<?xml version="1.0" encoding="UTF-8" standalone="no"?>
<!DOCTYPE svg PUBLIC "-//W3C//DTD SVG 1.1//EN"
 "http://www.w3.org/Graphics/SVG/1.1/DTD/svg11.dtd">
<!-- Generated by graphviz version 2.38.0 (20140413.2041)
 -->
<!-- Title: TEST Pages: 1 -->
<svg width="1079pt" height="926pt"
 viewBox="0.00 0.00 1079.00 926.00" xmlns="http://www.w3.org/2000/svg" xmlns:xlink="http://www.w3.org/1999/xlink">
<g id="graph0" class="graph" transform="scale(1 1) rotate(0) translate(4 922)">
<title>TEST</title>
<polygon fill="white" stroke="none" points="-4,4 -4,-922 1075,-922 1075,4 -4,4"/>
<!-- Node1 -->
<g id="node1" class="node"><title>Node1</title>
<polygon fill="#bfbfbf" stroke="black" points="0,-520.5 0,-539.5 42,-539.5 42,-520.5 0,-520.5"/>
<text text-anchor="middle" x="21" y="-527.5" font-family="Helvetica,sans-Serif" font-size="10.00">TEST</text>
</g>
<!-- Node2 -->
<g id="node2" class="node"><title>Node2</title>
<g id="a_node2"><a xlink:href="classpdal_1_1Options.html#a30826da39f9c4716412141eeeb719032" target="_top" xlink:title="pdal::Options::add">
<polygon fill="white" stroke="black" points="464,-656.5 464,-675.5 560,-675.5 560,-656.5 464,-656.5"/>
<text text-anchor="middle" x="512" y="-663.5" font-family="Helvetica,sans-Serif" font-size="10.00">pdal::Options::add</text>
</a>
</g>
</g>
<!-- Node1&#45;&gt;Node2 -->
<g id="edge1" class="edge"><title>Node1&#45;&gt;Node2</title>
<path fill="none" stroke="midnightblue" d="M25.3897,-539.506C41.2088,-582.174 112.398,-756.382 239,-813 304.321,-842.212 335.947,-844.896 400,-813 454.245,-785.988 489.002,-718.423 503.401,-685.14"/>
<polygon fill="midnightblue" stroke="midnightblue" points="506.746,-686.211 507.359,-675.634 500.284,-683.52 506.746,-686.211"/>
</g>
<!-- Node9 -->
<g id="node9" class="node"><title>Node9</title>
<g id="a_node9"><a xlink:href="classSupport.html#a9bbdf6f202f4f2e45e7a53007dd0a238" target="_top" xlink:title="Support::datapath">
<polygon fill="white" stroke="black" points="93.5,-898.5 93.5,-917.5 187.5,-917.5 187.5,-898.5 93.5,-898.5"/>
<text text-anchor="middle" x="140.5" y="-905.5" font-family="Helvetica,sans-Serif" font-size="10.00">Support::datapath</text>
</a>
</g>
</g>
<!-- Node1&#45;&gt;Node9 -->
<g id="edge8" class="edge"><title>Node1&#45;&gt;Node9</title>
<path fill="none" stroke="midnightblue" d="M22.168,-539.651C23.2577,-591.274 30.862,-834.484 78,-889 79.9529,-891.259 82.1681,-893.253 84.5696,-895.013"/>
<polygon fill="midnightblue" stroke="midnightblue" points="82.9421,-898.116 93.3416,-900.141 86.4749,-892.073 82.9421,-898.116"/>
</g>
<!-- Node11 -->
<g id="node11" class="node"><title>Node11</title>
<g id="a_node11"><a xlink:href="namespacepdal_1_1FileUtils.html#a9147ba0dbb2789edbd17feb104b00532" target="_top" xlink:title="pdal::FileUtils::deleteFile">
<polygon fill="white" stroke="black" points="78,-860.5 78,-879.5 203,-879.5 203,-860.5 78,-860.5"/>
<text text-anchor="middle" x="140.5" y="-867.5" font-family="Helvetica,sans-Serif" font-size="10.00">pdal::FileUtils::deleteFile</text>
</a>
</g>
</g>
<!-- Node1&#45;&gt;Node11 -->
<g id="edge10" class="edge"><title>Node1&#45;&gt;Node11</title>
<path fill="none" stroke="midnightblue" d="M22.4652,-539.678C24.939,-587.389 37.9788,-797.218 78,-846 81.0646,-849.735 84.7875,-852.891 88.869,-855.557"/>
<polygon fill="midnightblue" stroke="midnightblue" points="87.2022,-858.635 97.654,-860.371 90.5657,-852.496 87.2022,-858.635"/>
</g>
<!-- Node13 -->
<g id="node13" class="node"><title>Node13</title>
<g id="a_node13"><a xlink:href="classpdal_1_1Stage.html#a1615c4aa5ec5e48f90d73f0e7a796935" target="_top" xlink:title="pdal::Stage::execute">
<polygon fill="white" stroke="black" points="87,-586.5 87,-605.5 194,-605.5 194,-586.5 87,-586.5"/>
<text text-anchor="middle" x="140.5" y="-593.5" font-family="Helvetica,sans-Serif" font-size="10.00">pdal::Stage::execute</text>
</a>
</g>
</g>
<!-- Node1&#45;&gt;Node13 -->
<g id="edge12" class="edge"><title>Node1&#45;&gt;Node13</title>
<path fill="none" stroke="midnightblue" d="M39.0855,-539.597C58.6651,-550.595 90.9647,-568.738 113.632,-581.47"/>
<polygon fill="midnightblue" stroke="midnightblue" points="111.961,-584.546 122.394,-586.391 115.389,-578.443 111.961,-584.546"/>
</g>
<!-- Node28 -->
<g id="node28" class="node"><title>Node28</title>
<g id="a_node28"><a xlink:href="namespacehag.html#a39becb5458bcac317093e468da1639be" target="_top" xlink:title="hag.filter">
<polygon fill="white" stroke="black" points="113.5,-433.5 113.5,-452.5 167.5,-452.5 167.5,-433.5 113.5,-433.5"/>
<text text-anchor="middle" x="140.5" y="-440.5" font-family="Helvetica,sans-Serif" font-size="10.00">hag.filter</text>
</a>
</g>
</g>
<!-- Node1&#45;&gt;Node28 -->
<g id="edge28" class="edge"><title>Node1&#45;&gt;Node28</title>
<path fill="none" stroke="midnightblue" d="M35.0235,-520.357C55.1391,-505.463 93.9716,-476.71 118.21,-458.764"/>
<polygon fill="midnightblue" stroke="midnightblue" points="120.464,-461.45 126.418,-452.686 116.299,-455.824 120.464,-461.45"/>
</g>
<!-- Node31 -->
<g id="node31" class="node"><title>Node31</title>
<g id="a_node31"><a xlink:href="classpdal_1_1Stage.html#a4b9296a59f8852b3d08630f1086bfbea" target="_top" xlink:title="pdal::Stage::prepare">
<polygon fill="white" stroke="black" points="88.5,-281.5 88.5,-300.5 192.5,-300.5 192.5,-281.5 88.5,-281.5"/>
<text text-anchor="middle" x="140.5" y="-288.5" font-family="Helvetica,sans-Serif" font-size="10.00">pdal::Stage::prepare</text>
</a>
</g>
</g>
<!-- Node1&#45;&gt;Node31 -->
<g id="edge31" class="edge"><title>Node1&#45;&gt;Node31</title>
<path fill="none" stroke="midnightblue" d="M26.7517,-520.335C44.4314,-484.374 106.604,-357.913 130.264,-309.786"/>
<polygon fill="midnightblue" stroke="midnightblue" points="133.547,-311.042 134.818,-300.524 127.265,-307.953 133.547,-311.042"/>
</g>
<!-- Node49 -->
<g id="node49" class="node"><title>Node49</title>
<g id="a_node49"><a xlink:href="classpdal_1_1Stage.html#abfd87d459bea04a919aace286b2e377e" target="_top" xlink:title="pdal::Stage::setInput">
<polygon fill="white" stroke="black" points="87,-243.5 87,-262.5 194,-262.5 194,-243.5 87,-243.5"/>
<text text-anchor="middle" x="140.5" y="-250.5" font-family="Helvetica,sans-Serif" font-size="10.00">pdal::Stage::setInput</text>
</a>
</g>
</g>
<!-- Node1&#45;&gt;Node49 -->
<g id="edge61" class="edge"><title>Node1&#45;&gt;Node49</title>
<path fill="none" stroke="midnightblue" d="M22.8041,-520.406C26.5235,-478.233 43.3704,-309.74 78,-272 79.2207,-270.67 80.5322,-269.432 81.9183,-268.279"/>
<polygon fill="midnightblue" stroke="midnightblue" points="84.141,-271.006 90.5582,-262.576 80.2844,-265.164 84.141,-271.006"/>
</g>
<!-- Node50 -->
<g id="node50" class="node"><title>Node50</title>
<g id="a_node50"><a xlink:href="classpdal_1_1Stage.html#acb2434df20f371f1fec9577de3cf0046" target="_top" xlink:title="pdal::Stage::setOptions">
<polygon fill="white" stroke="black" points="81,-205.5 81,-224.5 200,-224.5 200,-205.5 81,-205.5"/>
<text text-anchor="middle" x="140.5" y="-212.5" font-family="Helvetica,sans-Serif" font-size="10.00">pdal::Stage::setOptions</text>
</a>
</g>
</g>
<!-- Node1&#45;&gt;Node50 -->
<g id="edge62" class="edge"><title>Node1&#45;&gt;Node50</title>
<path fill="none" stroke="midnightblue" d="M22.5224,-520.269C25.1883,-474.15 38.7165,-277.979 78,-234 79.1772,-232.682 80.4435,-231.455 81.7836,-230.311"/>
<polygon fill="midnightblue" stroke="midnightblue" points="83.8393,-233.146 90.1566,-224.641 79.9141,-227.35 83.8393,-233.146"/>
</g>
<!-- Node3 -->
<g id="node3" class="node"><title>Node3</title>
<g id="a_node3"><a xlink:href="classpdal_1_1Option.html#aef4422b88464a9cad83b3c11bf1f8cdd" target="_top" xlink:title="pdal::Option::nameValid">
<polygon fill="white" stroke="black" points="633,-581.5 633,-600.5 754,-600.5 754,-581.5 633,-581.5"/>
<text text-anchor="middle" x="693.5" y="-588.5" font-family="Helvetica,sans-Serif" font-size="10.00">pdal::Option::nameValid</text>
</a>
</g>
</g>
<!-- Node2&#45;&gt;Node3 -->
<g id="edge2" class="edge"><title>Node2&#45;&gt;Node3</title>
<path fill="none" stroke="midnightblue" d="M558.375,-656.4C568.281,-653.783 578.608,-650.643 588,-647 616.956,-635.768 648.082,-618.322 668.761,-605.889"/>
<polygon fill="midnightblue" stroke="midnightblue" points="670.767,-608.765 677.481,-600.569 667.121,-602.789 670.767,-608.765"/>
</g>
<!-- Node8 -->
<g id="node8" class="node"><title>Node8</title>
<g id="a_node8"><a xlink:href="classpdal_1_1Option.html#ad2b7a736742fb343e421fa326ef45c23" target="_top" xlink:title="pdal::Option::getName">
<polygon fill="white" stroke="black" points="636,-468.5 636,-487.5 751,-487.5 751,-468.5 636,-468.5"/>
<text text-anchor="middle" x="693.5" y="-475.5" font-family="Helvetica,sans-Serif" font-size="10.00">pdal::Option::getName</text>
</a>
</g>
</g>
<!-- Node2&#45;&gt;Node8 -->
<g id="edge7" class="edge"><title>Node2&#45;&gt;Node8</title>
<path fill="none" stroke="midnightblue" d="M560.376,-660.617C570.279,-657.765 580.099,-653.464 588,-647 616.617,-623.587 605.033,-603.739 624,-572 640.646,-544.144 663.387,-514.219 678.01,-495.799"/>
<polygon fill="midnightblue" stroke="midnightblue" points="680.948,-497.731 684.475,-487.741 675.487,-493.351 680.948,-497.731"/>
</g>
<!-- Node4 -->
<g id="node4" class="node"><title>Node4</title>
<g id="a_node4"><a xlink:href="classpdal_1_1Option.html#a978a36cf9180d3636ea770988961952b" target="_top" xlink:title="pdal::Option::parse">
<polygon fill="white" stroke="black" points="809,-600.5 809,-619.5 908,-619.5 908,-600.5 809,-600.5"/>
<text text-anchor="middle" x="858.5" y="-607.5" font-family="Helvetica,sans-Serif" font-size="10.00">pdal::Option::parse</text>
</a>
</g>
</g>
<!-- Node3&#45;&gt;Node4 -->
<g id="edge3" class="edge"><title>Node3&#45;&gt;Node4</title>
<path fill="none" stroke="midnightblue" d="M754.27,-597.967C768.746,-599.654 784.209,-601.457 798.643,-603.139"/>
<polygon fill="midnightblue" stroke="midnightblue" points="798.605,-606.659 808.943,-604.34 799.415,-599.706 798.605,-606.659"/>
</g>
<!-- Node7 -->
<g id="node7" class="node"><title>Node7</title>
<g id="a_node7"><a xlink:href="namespacepdal_1_1Utils.html#ada321695f57c876ef51227bdf5b84f7a" target="_top" xlink:title="pdal::Utils::printError">
<polygon fill="white" stroke="black" points="805,-562.5 805,-581.5 912,-581.5 912,-562.5 805,-562.5"/>
<text text-anchor="middle" x="858.5" y="-569.5" font-family="Helvetica,sans-Serif" font-size="10.00">pdal::Utils::printError</text>
</a>
</g>
</g>
<!-- Node3&#45;&gt;Node7 -->
<g id="edge6" class="edge"><title>Node3&#45;&gt;Node7</title>
<path fill="none" stroke="midnightblue" d="M754.27,-584.033C767.447,-582.497 781.442,-580.866 794.734,-579.316"/>
<polygon fill="midnightblue" stroke="midnightblue" points="795.209,-582.785 804.737,-578.15 794.399,-575.832 795.209,-582.785"/>
</g>
<!-- Node5 -->
<g id="node5" class="node"><title>Node5</title>
<g id="a_node5"><a xlink:href="namespacepdal_1_1Utils.html#acae5a19cd66121b77e2599daec48413d" target="_top" xlink:title="pdal::Utils::extract">
<polygon fill="white" stroke="black" points="964,-619.5 964,-638.5 1061,-638.5 1061,-619.5 964,-619.5"/>
<text text-anchor="middle" x="1012.5" y="-626.5" font-family="Helvetica,sans-Serif" font-size="10.00">pdal::Utils::extract</text>
</a>
</g>
</g>
<!-- Node4&#45;&gt;Node5 -->
<g id="edge4" class="edge"><title>Node4&#45;&gt;Node5</title>
<path fill="none" stroke="midnightblue" d="M908.012,-616.064C922.554,-617.882 938.647,-619.893 953.724,-621.778"/>
<polygon fill="midnightblue" stroke="midnightblue" points="953.611,-625.291 963.968,-623.059 954.479,-618.345 953.611,-625.291"/>
</g>
<!-- Node6 -->
<g id="node6" class="node"><title>Node6</title>
<g id="a_node6"><a xlink:href="namespacepdal_1_1Dimension.html#af3176b0b7e6b4be000317846cf7c2718" target="_top" xlink:title="pdal::Dimension::name">
<polygon fill="white" stroke="black" points="954,-581.5 954,-600.5 1071,-600.5 1071,-581.5 954,-581.5"/>
<text text-anchor="middle" x="1012.5" y="-588.5" font-family="Helvetica,sans-Serif" font-size="10.00">pdal::Dimension::name</text>
</a>
</g>
</g>
<!-- Node4&#45;&gt;Node6 -->
<g id="edge5" class="edge"><title>Node4&#45;&gt;Node6</title>
<path fill="none" stroke="midnightblue" d="M908.012,-603.936C919.415,-602.511 931.773,-600.966 943.846,-599.457"/>
<polygon fill="midnightblue" stroke="midnightblue" points="944.404,-602.914 953.893,-598.201 943.536,-595.968 944.404,-602.914"/>
</g>
<!-- Node10 -->
<g id="node10" class="node"><title>Node10</title>
<g id="a_node10"><a xlink:href="namespaceTestConfig.html#a0e622015f0610c2cfcbb3739b972d877" target="_top" xlink:title="TestConfig::dataPath">
<polygon fill="white" stroke="black" points="264.5,-898.5 264.5,-917.5 374.5,-917.5 374.5,-898.5 264.5,-898.5"/>
<text text-anchor="middle" x="319.5" y="-905.5" font-family="Helvetica,sans-Serif" font-size="10.00">TestConfig::dataPath</text>
</a>
</g>
</g>
<!-- Node9&#45;&gt;Node10 -->
<g id="edge9" class="edge"><title>Node9&#45;&gt;Node10</title>
<path fill="none" stroke="midnightblue" d="M187.543,-908C207.792,-908 231.928,-908 253.931,-908"/>
<polygon fill="midnightblue" stroke="midnightblue" points="254.2,-911.5 264.2,-908 254.2,-904.5 254.2,-911.5"/>
</g>
<!-- Node12 -->
<g id="node12" class="node"><title>Node12</title>
<g id="a_node12"><a xlink:href="namespacepdal_1_1Utils.html#ad875f14218020d7d4d10803f5a115bdb" target="_top" xlink:title="pdal::Utils::remove">
<polygon fill="white" stroke="black" points="270,-860.5 270,-879.5 369,-879.5 369,-860.5 270,-860.5"/>
<text text-anchor="middle" x="319.5" y="-867.5" font-family="Helvetica,sans-Serif" font-size="10.00">pdal::Utils::remove</text>
</a>
</g>
</g>
<!-- Node11&#45;&gt;Node12 -->
<g id="edge11" class="edge"><title>Node11&#45;&gt;Node12</title>
<path fill="none" stroke="midnightblue" d="M203.406,-870C221.658,-870 241.574,-870 259.629,-870"/>
<polygon fill="midnightblue" stroke="midnightblue" points="259.731,-873.5 269.731,-870 259.731,-866.5 259.731,-873.5"/>
</g>
<!-- Node13&#45;&gt;Node13 -->
<g id="edge19" class="edge"><title>Node13&#45;&gt;Node13</title>
<path fill="none" stroke="midnightblue" d="M122.313,-605.757C113.465,-614.565 119.527,-624 140.5,-624 153.936,-624 161.252,-620.128 162.449,-615.029"/>
<polygon fill="midnightblue" stroke="midnightblue" points="165.69,-613.707 158.687,-605.757 159.204,-616.339 165.69,-613.707"/>
</g>
<!-- Node14 -->
<g id="node14" class="node"><title>Node14</title>
<g id="a_node14"><a xlink:href="classpdal_1_1Stage.html#a74cf636cb0f633411e4e40dcd718508a" target="_top" xlink:title="pdal::Stage::startLogging">
<polygon fill="white" stroke="black" points="449.5,-430.5 449.5,-449.5 574.5,-449.5 574.5,-430.5 449.5,-430.5"/>
<text text-anchor="middle" x="512" y="-437.5" font-family="Helvetica,sans-Serif" font-size="10.00">pdal::Stage::startLogging</text>
</a>
</g>
</g>
<!-- Node13&#45;&gt;Node14 -->
<g id="edge13" class="edge"><title>Node13&#45;&gt;Node14</title>
<path fill="none" stroke="midnightblue" d="M148.314,-586.313C162.667,-566.687 198.081,-522.215 239,-500 248.507,-494.839 377.652,-467.571 454.516,-451.627"/>
<polygon fill="midnightblue" stroke="midnightblue" points="455.455,-455.007 464.537,-449.551 454.035,-448.153 455.455,-455.007"/>
</g>
<!-- Node19 -->
<g id="node19" class="node"><title>Node19</title>
<g id="a_node19"><a xlink:href="classpdal_1_1BasePointTable.html#a2554cd260c437c9b1e4a017a28a5c7de" target="_top" xlink:title="pdal::BasePointTable\l::finalize">
<polygon fill="white" stroke="black" points="264.5,-510 264.5,-540 374.5,-540 374.5,-510 264.5,-510"/>
<text text-anchor="start" x="272.5" y="-528" font-family="Helvetica,sans-Serif" font-size="10.00">pdal::BasePointTable</text>
<text text-anchor="middle" x="319.5" y="-517" font-family="Helvetica,sans-Serif" font-size="10.00">::finalize</text>
</a>
</g>
</g>
<!-- Node13&#45;&gt;Node19 -->
<g id="edge18" class="edge"><title>Node13&#45;&gt;Node19</title>
<path fill="none" stroke="midnightblue" d="M159.099,-586.484C178.344,-576.323 210.281,-560.178 239,-549 244.122,-547.006 249.482,-545.074 254.895,-543.229"/>
<polygon fill="midnightblue" stroke="midnightblue" points="256.256,-546.466 264.656,-540.009 254.063,-539.818 256.256,-546.466"/>
</g>
<!-- Node20 -->
<g id="node20" class="node"><title>Node20</title>
<g id="a_node20"><a xlink:href="classpdal_1_1BasePointTable.html#aa3ed63a9e1a8897ccb7dc81a614f6141" target="_top" xlink:title="pdal::BasePointTable\l::clearSpatialReferences">
<polygon fill="white" stroke="black" points="257.5,-773 257.5,-803 381.5,-803 381.5,-773 257.5,-773"/>
<text text-anchor="start" x="265.5" y="-791" font-family="Helvetica,sans-Serif" font-size="10.00">pdal::BasePointTable</text>
<text text-anchor="middle" x="319.5" y="-780" font-family="Helvetica,sans-Serif" font-size="10.00">::clearSpatialReferences</text>
</a>
</g>
</g>
<!-- Node13&#45;&gt;Node20 -->
<g id="edge20" class="edge"><title>Node13&#45;&gt;Node20</title>
<path fill="none" stroke="midnightblue" d="M144.346,-605.571C153.299,-634.017 183.63,-718.816 239,-763 241.944,-765.349 245.111,-767.479 248.426,-769.41"/>
<polygon fill="midnightblue" stroke="midnightblue" points="246.998,-772.612 257.492,-774.071 250.199,-766.386 246.998,-772.612"/>
</g>
<!-- Node21 -->
<g id="node21" class="node"><title>Node21</title>
<g id="a_node21"><a xlink:href="classpdal_1_1BasePointTable.html#a670592aca912391f1a90073a2031e5e0" target="_top" xlink:title="pdal::BasePointTable\l::addSpatialReference">
<polygon fill="white" stroke="black" points="263,-685 263,-715 376,-715 376,-685 263,-685"/>
<text text-anchor="start" x="271" y="-703" font-family="Helvetica,sans-Serif" font-size="10.00">pdal::BasePointTable</text>
<text text-anchor="middle" x="319.5" y="-692" font-family="Helvetica,sans-Serif" font-size="10.00">::addSpatialReference</text>
</a>
</g>
</g>
<!-- Node13&#45;&gt;Node21 -->
<g id="edge21" class="edge"><title>Node13&#45;&gt;Node21</title>
<path fill="none" stroke="midnightblue" d="M150.845,-605.659C167.248,-622.1 202.916,-655.622 239,-675 243.505,-677.419 248.282,-679.647 253.169,-681.69"/>
<polygon fill="midnightblue" stroke="midnightblue" points="252.073,-685.02 262.661,-685.393 254.617,-678.498 252.073,-685.02"/>
</g>
<!-- Node22 -->
<g id="node22" class="node"><title>Node22</title>
<g id="a_node22"><a xlink:href="classpdal_1_1Stage.html#afb562c59c53ed8120df9106655eb2543" target="_top" xlink:title="pdal::Stage::ready">
<polygon fill="white" stroke="black" points="271.5,-646.5 271.5,-665.5 367.5,-665.5 367.5,-646.5 271.5,-646.5"/>
<text text-anchor="middle" x="319.5" y="-653.5" font-family="Helvetica,sans-Serif" font-size="10.00">pdal::Stage::ready</text>
</a>
</g>
</g>
<!-- Node13&#45;&gt;Node22 -->
<g id="edge22" class="edge"><title>Node13&#45;&gt;Node22</title>
<path fill="none" stroke="midnightblue" d="M161.673,-605.629C181.137,-614.643 211.601,-628.032 239,-637 246.671,-639.511 254.857,-641.844 262.951,-643.954"/>
<polygon fill="midnightblue" stroke="midnightblue" points="262.186,-647.37 272.738,-646.414 263.893,-640.582 262.186,-647.37"/>
</g>
<!-- Node23 -->
<g id="node23" class="node"><title>Node23</title>
<g id="a_node23"><a xlink:href="classpdal_1_1Stage.html#a9889b4446f40daa6f4cd7bfe3c567839" target="_top" xlink:title="pdal::Stage::getSpatialReference">
<polygon fill="white" stroke="black" points="239,-608.5 239,-627.5 400,-627.5 400,-608.5 239,-608.5"/>
<text text-anchor="middle" x="319.5" y="-615.5" font-family="Helvetica,sans-Serif" font-size="10.00">pdal::Stage::getSpatialReference</text>
</a>
</g>
</g>
<!-- Node13&#45;&gt;Node23 -->
<g id="edge23" class="edge"><title>Node13&#45;&gt;Node23</title>
<path fill="none" stroke="midnightblue" d="M194.127,-602.541C205.947,-604.01 218.794,-605.607 231.598,-607.199"/>
<polygon fill="midnightblue" stroke="midnightblue" points="231.48,-610.711 241.835,-608.471 232.343,-603.764 231.48,-610.711"/>
</g>
<!-- Node24 -->
<g id="node24" class="node"><title>Node24</title>
<g id="a_node24"><a xlink:href="classpdal_1_1SpatialReference.html#a48fa2f7e79ea172b62ad2e874ff01610" target="_top" xlink:title="pdal::SpatialReference\l::empty">
<polygon fill="white" stroke="black" points="261.5,-559 261.5,-589 377.5,-589 377.5,-559 261.5,-559"/>
<text text-anchor="start" x="269.5" y="-577" font-family="Helvetica,sans-Serif" font-size="10.00">pdal::SpatialReference</text>
<text text-anchor="middle" x="319.5" y="-566" font-family="Helvetica,sans-Serif" font-size="10.00">::empty</text>
</a>
</g>
</g>
<!-- Node13&#45;&gt;Node24 -->
<g id="edge24" class="edge"><title>Node13&#45;&gt;Node24</title>
<path fill="none" stroke="midnightblue" d="M194.127,-589.459C212.094,-587.226 232.435,-584.697 251.385,-582.342"/>
<polygon fill="midnightblue" stroke="midnightblue" points="251.954,-585.798 261.446,-581.092 251.09,-578.852 251.954,-585.798"/>
</g>
<!-- Node25 -->
<g id="node25" class="node"><title>Node25</title>
<g id="a_node25"><a xlink:href="classpdal_1_1Stage.html#a1b00532ede55b90a7b6332a2966f5626" target="_top" xlink:title="pdal::Stage::l_done">
<polygon fill="white" stroke="black" points="269,-734.5 269,-753.5 370,-753.5 370,-734.5 269,-734.5"/>
<text text-anchor="middle" x="319.5" y="-741.5" font-family="Helvetica,sans-Serif" font-size="10.00">pdal::Stage::l_done</text>
</a>
</g>
</g>
<!-- Node13&#45;&gt;Node25 -->
<g id="edge25" class="edge"><title>Node13&#45;&gt;Node25</title>
<path fill="none" stroke="midnightblue" d="M145.832,-605.569C157.287,-629.73 190.833,-693.505 239,-725 245.124,-729.004 252.006,-732.166 259.093,-734.663"/>
<polygon fill="midnightblue" stroke="midnightblue" points="258.244,-738.064 268.831,-737.672 260.31,-731.376 258.244,-738.064"/>
</g>
<!-- Node27 -->
<g id="node27" class="node"><title>Node27</title>
<g id="a_node27"><a xlink:href="classpdal_1_1Stage.html#ae49e996fe285350923a3bf44d027adad" target="_top" xlink:title="pdal::Stage::stopLogging">
<polygon fill="white" stroke="black" points="257,-395.5 257,-414.5 382,-414.5 382,-395.5 257,-395.5"/>
<text text-anchor="middle" x="319.5" y="-402.5" font-family="Helvetica,sans-Serif" font-size="10.00">pdal::Stage::stopLogging</text>
</a>
</g>
</g>
<!-- Node13&#45;&gt;Node27 -->
<g id="edge27" class="edge"><title>Node13&#45;&gt;Node27</title>
<path fill="none" stroke="midnightblue" d="M145.727,-586.347C160.33,-553.413 209.373,-446.283 239,-424 241.665,-421.996 244.511,-420.199 247.482,-418.589"/>
<polygon fill="midnightblue" stroke="midnightblue" points="249.121,-421.687 256.713,-414.298 246.17,-415.339 249.121,-421.687"/>
</g>
<!-- Node15 -->
<g id="node15" class="node"><title>Node15</title>
<g id="a_node15"><a xlink:href="classpdal_1_1gdal_1_1ErrorHandler.html#a56e0125595a43bf3b0cbd0b9a4bc55ea" target="_top" xlink:title="pdal::gdal::ErrorHandler\l::getGlobalErrorHandler">
<polygon fill="white" stroke="black" points="634,-249 634,-279 753,-279 753,-249 634,-249"/>
<text text-anchor="start" x="642" y="-267" font-family="Helvetica,sans-Serif" font-size="10.00">pdal::gdal::ErrorHandler</text>
<text text-anchor="middle" x="693.5" y="-256" font-family="Helvetica,sans-Serif" font-size="10.00">::getGlobalErrorHandler</text>
</a>
</g>
</g>
<!-- Node14&#45;&gt;Node15 -->
<g id="edge14" class="edge"><title>Node14&#45;&gt;Node15</title>
<path fill="none" stroke="midnightblue" d="M574.419,-430.356C579.388,-427.877 584.018,-424.804 588,-421 627.954,-382.83 589.296,-344.999 624,-302 629.587,-295.078 636.79,-289.213 644.419,-284.316"/>
<polygon fill="midnightblue" stroke="midnightblue" points="646.633,-287.076 653.5,-279.007 643.1,-281.033 646.633,-287.076"/>
</g>
<!-- Node17 -->
<g id="node17" class="node"><title>Node17</title>
<g id="a_node17"><a xlink:href="classpdal_1_1gdal_1_1ErrorHandler.html#ace1cff928ab179f671181ebaf4d280a4" target="_top" xlink:title="pdal::gdal::ErrorHandler::set">
<polygon fill="white" stroke="red" points="624,-376.5 624,-395.5 763,-395.5 763,-376.5 624,-376.5"/>
<text text-anchor="middle" x="693.5" y="-383.5" font-family="Helvetica,sans-Serif" font-size="10.00">pdal::gdal::ErrorHandler::set</text>
</a>
</g>
</g>
<!-- Node14&#45;&gt;Node17 -->
<g id="edge16" class="edge"><title>Node14&#45;&gt;Node17</title>
<path fill="none" stroke="midnightblue" d="M552.853,-430.495C564.252,-427.617 576.659,-424.331 588,-421 610.771,-414.312 636.01,-405.888 655.979,-398.981"/>
<polygon fill="midnightblue" stroke="midnightblue" points="657.319,-402.22 665.611,-395.625 655.016,-395.61 657.319,-402.22"/>
</g>
<!-- Node18 -->
<g id="node18" class="node"><title>Node18</title>
<g id="a_node18"><a xlink:href="classpdal_1_1Stage.html#aec4fb27c40bb4b032ff003a89a950dd4" target="_top" xlink:title="pdal::Stage::isDebug">
<polygon fill="white" stroke="black" points="639.5,-311.5 639.5,-330.5 747.5,-330.5 747.5,-311.5 639.5,-311.5"/>
<text text-anchor="middle" x="693.5" y="-318.5" font-family="Helvetica,sans-Serif" font-size="10.00">pdal::Stage::isDebug</text>
</a>
</g>
</g>
<!-- Node14&#45;&gt;Node18 -->
<g id="edge17" class="edge"><title>Node14&#45;&gt;Node18</title>
<path fill="none" stroke="midnightblue" d="M569.882,-430.423C576.314,-427.965 582.516,-424.877 588,-421 611.552,-404.347 603.638,-387.43 624,-367 636.16,-354.799 652.01,-343.911 665.401,-335.794"/>
<polygon fill="midnightblue" stroke="midnightblue" points="667.345,-338.711 674.203,-330.635 663.806,-332.672 667.345,-338.711"/>
</g>
<!-- Node16 -->
<g id="node16" class="node"><title>Node16</title>
<g id="a_node16"><a xlink:href="classpdal_1_1gdal_1_1ErrorHandler.html#a73215504640551589024d36018f81d33" target="_top" xlink:title="pdal::gdal::ErrorHandler\l::ErrorHandler">
<polygon fill="white" stroke="red" points="799,-249 799,-279 918,-279 918,-249 799,-249"/>
<text text-anchor="start" x="807" y="-267" font-family="Helvetica,sans-Serif" font-size="10.00">pdal::gdal::ErrorHandler</text>
<text text-anchor="middle" x="858.5" y="-256" font-family="Helvetica,sans-Serif" font-size="10.00">::ErrorHandler</text>
</a>
</g>
</g>
<!-- Node15&#45;&gt;Node16 -->
<g id="edge15" class="edge"><title>Node15&#45;&gt;Node16</title>
<path fill="none" stroke="midnightblue" d="M753.347,-264C764.773,-264 776.844,-264 788.56,-264"/>
<polygon fill="midnightblue" stroke="midnightblue" points="788.74,-267.5 798.74,-264 788.74,-260.5 788.74,-267.5"/>
</g>
<!-- Node26 -->
<g id="node26" class="node"><title>Node26</title>
<g id="a_node26"><a xlink:href="classpdal_1_1Stage.html#a2444e73dc41bfc0b94981909595ef2ca" target="_top" xlink:title="pdal::Stage::done">
<polygon fill="white" stroke="black" points="465.5,-618.5 465.5,-637.5 558.5,-637.5 558.5,-618.5 465.5,-618.5"/>
<text text-anchor="middle" x="512" y="-625.5" font-family="Helvetica,sans-Serif" font-size="10.00">pdal::Stage::done</text>
</a>
</g>
</g>
<!-- Node25&#45;&gt;Node26 -->
<g id="edge26" class="edge"><title>Node25&#45;&gt;Node26</title>
<path fill="none" stroke="midnightblue" d="M370.353,-739.281C380.989,-736.404 391.548,-731.926 400,-725 429.532,-700.8 406.632,-671.399 436,-647 441.682,-642.279 448.385,-638.709 455.407,-636.015"/>
<polygon fill="midnightblue" stroke="midnightblue" points="456.689,-639.278 465.115,-632.856 454.523,-632.622 456.689,-639.278"/>
</g>
<!-- Node29 -->
<g id="node29" class="node"><title>Node29</title>
<g id="a_node29"><a xlink:href="namespacehag.html#aee422d0ebdb1730554711d82498e54c3" target="_top" xlink:title="hag.wakeup">
<polygon fill="white" stroke="black" points="285,-357.5 285,-376.5 354,-376.5 354,-357.5 285,-357.5"/>
<text text-anchor="middle" x="319.5" y="-364.5" font-family="Helvetica,sans-Serif" font-size="10.00">hag.wakeup</text>
</a>
</g>
</g>
<!-- Node28&#45;&gt;Node29 -->
<g id="edge29" class="edge"><title>Node28&#45;&gt;Node29</title>
<path fill="none" stroke="midnightblue" d="M155.043,-433.332C173.288,-420.727 207.158,-398.785 239,-386 250.42,-381.415 263.225,-377.756 275.167,-374.922"/>
<polygon fill="midnightblue" stroke="midnightblue" points="275.952,-378.333 284.946,-372.733 274.423,-371.502 275.952,-378.333"/>
</g>
<!-- Node30 -->
<g id="node30" class="node"><title>Node30</title>
<g id="a_node30"><a xlink:href="namespacehag.html#acad63bbd5fdda01bf56ff6aae70a0192" target="_top" xlink:title="hag.read">
<polygon fill="white" stroke="black" points="292.5,-433.5 292.5,-452.5 346.5,-452.5 346.5,-433.5 292.5,-433.5"/>
<text text-anchor="middle" x="319.5" y="-440.5" font-family="Helvetica,sans-Serif" font-size="10.00">hag.read</text>
</a>
</g>
</g>
<!-- Node28&#45;&gt;Node30 -->
<g id="edge30" class="edge"><title>Node28&#45;&gt;Node30</title>
<path fill="none" stroke="midnightblue" d="M167.617,-443C197.944,-443 248.158,-443 282.252,-443"/>
<polygon fill="midnightblue" stroke="midnightblue" points="282.276,-446.5 292.276,-443 282.276,-439.5 282.276,-446.5"/>
</g>
<!-- Node31&#45;&gt;Node14 -->
<g id="edge50" class="edge"><title>Node31&#45;&gt;Node14</title>
<path fill="none" stroke="midnightblue" d="M189.663,-300.502C262.132,-314.958 391.693,-341.488 400,-348 428.47,-370.318 407.88,-398.243 436,-421 438.176,-422.761 440.496,-424.362 442.92,-425.816"/>
<polygon fill="midnightblue" stroke="midnightblue" points="441.589,-429.065 452.09,-430.467 444.755,-422.822 441.589,-429.065"/>
</g>
<!-- Node31&#45;&gt;Node27 -->
<g id="edge60" class="edge"><title>Node31&#45;&gt;Node27</title>
<path fill="none" stroke="midnightblue" d="M148.371,-300.526C162.829,-319.836 198.427,-363.65 239,-386 243.207,-388.317 247.691,-390.354 252.305,-392.144"/>
<polygon fill="midnightblue" stroke="midnightblue" points="251.317,-395.506 261.912,-395.481 253.615,-388.893 251.317,-395.506"/>
</g>
<!-- Node31&#45;&gt;Node31 -->
<g id="edge32" class="edge"><title>Node31&#45;&gt;Node31</title>
<path fill="none" stroke="midnightblue" d="M122.313,-300.757C113.465,-309.565 119.527,-319 140.5,-319 153.936,-319 161.252,-315.128 162.449,-310.029"/>
<polygon fill="midnightblue" stroke="midnightblue" points="165.69,-308.707 158.687,-300.757 159.204,-311.339 165.69,-308.707"/>
</g>
<!-- Node32 -->
<g id="node32" class="node"><title>Node32</title>
<g id="a_node32"><a xlink:href="classpdal_1_1Stage.html#a75f17f9b67f48f6aab1d98aadefc4d5c" target="_top" xlink:title="pdal::Stage::handleOptions">
<polygon fill="white" stroke="black" points="252.5,-243.5 252.5,-262.5 386.5,-262.5 386.5,-243.5 252.5,-243.5"/>
<text text-anchor="middle" x="319.5" y="-250.5" font-family="Helvetica,sans-Serif" font-size="10.00">pdal::Stage::handleOptions</text>
</a>
</g>
</g>
<!-- Node31&#45;&gt;Node32 -->
<g id="edge33" class="edge"><title>Node31&#45;&gt;Node32</title>
<path fill="none" stroke="midnightblue" d="M186.165,-281.411C209.837,-276.329 239.108,-270.045 264.097,-264.68"/>
<polygon fill="midnightblue" stroke="midnightblue" points="265.114,-268.041 274.157,-262.52 263.645,-261.197 265.114,-268.041"/>
</g>
<!-- Node41 -->
<g id="node41" class="node"><title>Node41</title>
<g id="a_node41"><a xlink:href="classpdal_1_1Stage.html#a6c85dfbf6a674dbc2eda76a79efada48" target="_top" xlink:title="pdal::Stage::l_initialize">
<polygon fill="white" stroke="black" points="262,-79.5 262,-98.5 377,-98.5 377,-79.5 262,-79.5"/>
<text text-anchor="middle" x="319.5" y="-86.5" font-family="Helvetica,sans-Serif" font-size="10.00">pdal::Stage::l_initialize</text>
</a>
</g>
</g>
<!-- Node31&#45;&gt;Node41 -->
<g id="edge51" class="edge"><title>Node31&#45;&gt;Node41</title>
<path fill="none" stroke="midnightblue" d="M190.433,-281.416C195.121,-278.953 199.444,-275.866 203,-272 253.517,-217.075 186.723,-161.253 239,-108 242.914,-104.013 247.505,-100.802 252.472,-98.2243"/>
<polygon fill="midnightblue" stroke="midnightblue" points="253.948,-101.4 261.753,-94.2358 251.184,-94.9685 253.948,-101.4"/>
</g>
<!-- Node45 -->
<g id="node45" class="node"><title>Node45</title>
<g id="a_node45"><a xlink:href="classpdal_1_1Stage.html#a5b422f842a6374b448439df99fe6e07e" target="_top" xlink:title="pdal::Stage::initialize">
<polygon fill="white" stroke="black" points="266,-205.5 266,-224.5 373,-224.5 373,-205.5 266,-205.5"/>
<text text-anchor="middle" x="319.5" y="-212.5" font-family="Helvetica,sans-Serif" font-size="10.00">pdal::Stage::initialize</text>
</a>
</g>
</g>
<!-- Node31&#45;&gt;Node45 -->
<g id="edge56" class="edge"><title>Node31&#45;&gt;Node45</title>
<path fill="none" stroke="midnightblue" d="M182.816,-281.455C189.829,-278.946 196.83,-275.834 203,-272 222.76,-259.721 218.851,-245.63 239,-234 244.404,-230.881 250.297,-228.272 256.351,-226.092"/>
<polygon fill="midnightblue" stroke="midnightblue" points="257.502,-229.398 265.951,-223.005 255.36,-222.734 257.502,-229.398"/>
</g>
<!-- Node46 -->
<g id="node46" class="node"><title>Node46</title>
<g id="a_node46"><a xlink:href="classpdal_1_1Stage.html#a7ec627c76e1c30fc53780bd81d08d4ad" target="_top" xlink:title="pdal::Stage::addDimensions">
<polygon fill="white" stroke="black" points="249.5,-167.5 249.5,-186.5 389.5,-186.5 389.5,-167.5 249.5,-167.5"/>
<text text-anchor="middle" x="319.5" y="-174.5" font-family="Helvetica,sans-Serif" font-size="10.00">pdal::Stage::addDimensions</text>
</a>
</g>
</g>
<!-- Node31&#45;&gt;Node46 -->
<g id="edge57" class="edge"><title>Node31&#45;&gt;Node46</title>
<path fill="none" stroke="midnightblue" d="M187.74,-281.423C193.265,-278.966 198.524,-275.879 203,-272 231.246,-247.523 209.973,-219.545 239,-196 241.073,-194.318 243.271,-192.781 245.564,-191.376"/>
<polygon fill="midnightblue" stroke="midnightblue" points="247.544,-194.292 254.817,-186.588 244.327,-188.075 247.544,-194.292"/>
</g>
<!-- Node47 -->
<g id="node47" class="node"><title>Node47</title>
<g id="a_node47"><a xlink:href="classpdal_1_1BasePointTable.html#a7e3a12a1f29e6cd10d8669ed3d07eb94" target="_top" xlink:title="pdal::BasePointTable\l::layout">
<polygon fill="white" stroke="black" points="264.5,-118 264.5,-148 374.5,-148 374.5,-118 264.5,-118"/>
<text text-anchor="start" x="272.5" y="-136" font-family="Helvetica,sans-Serif" font-size="10.00">pdal::BasePointTable</text>
<text text-anchor="middle" x="319.5" y="-125" font-family="Helvetica,sans-Serif" font-size="10.00">::layout</text>
</a>
</g>
</g>
<!-- Node31&#45;&gt;Node47 -->
<g id="edge58" class="edge"><title>Node31&#45;&gt;Node47</title>
<path fill="none" stroke="midnightblue" d="M189.485,-281.393C194.466,-278.938 199.116,-275.86 203,-272 240.688,-234.547 201.407,-195.548 239,-158 243.568,-153.437 248.959,-149.706 254.748,-146.654"/>
<polygon fill="midnightblue" stroke="midnightblue" points="256.456,-149.722 264.11,-142.396 253.558,-143.35 256.456,-149.722"/>
</g>
<!-- Node48 -->
<g id="node48" class="node"><title>Node48</title>
<g id="a_node48"><a xlink:href="classpdal_1_1Stage.html#affff6bc9dbff793d074d76333c5732dd" target="_top" xlink:title="pdal::Stage::prepared">
<polygon fill="white" stroke="black" points="264.5,-281.5 264.5,-300.5 374.5,-300.5 374.5,-281.5 264.5,-281.5"/>
<text text-anchor="middle" x="319.5" y="-288.5" font-family="Helvetica,sans-Serif" font-size="10.00">pdal::Stage::prepared</text>
</a>
</g>
</g>
<!-- Node31&#45;&gt;Node48 -->
<g id="edge59" class="edge"><title>Node31&#45;&gt;Node48</title>
<path fill="none" stroke="midnightblue" d="M192.696,-291C211.911,-291 233.998,-291 254.25,-291"/>
<polygon fill="midnightblue" stroke="midnightblue" points="254.335,-294.5 264.334,-291 254.334,-287.5 254.335,-294.5"/>
</g>
<!-- Node33 -->
<g id="node33" class="node"><title>Node33</title>
<g id="a_node33"><a xlink:href="classpdal_1_1Stage.html#a75ff99f7b665c6573e304ed4148dd99e" target="_top" xlink:title="pdal::Stage::addAllArgs">
<polygon fill="white" stroke="red" points="452.5,-164.5 452.5,-183.5 571.5,-183.5 571.5,-164.5 452.5,-164.5"/>
<text text-anchor="middle" x="512" y="-171.5" font-family="Helvetica,sans-Serif" font-size="10.00">pdal::Stage::addAllArgs</text>
</a>
</g>
</g>
<!-- Node32&#45;&gt;Node33 -->
<g id="edge34" class="edge"><title>Node32&#45;&gt;Node33</title>
<path fill="none" stroke="midnightblue" d="M377.552,-243.433C385.359,-240.971 393.064,-237.879 400,-234 419.748,-222.954 416.681,-209.78 436,-198 443.215,-193.601 451.318,-189.927 459.461,-186.884"/>
<polygon fill="midnightblue" stroke="midnightblue" points="460.674,-190.168 468.986,-183.597 458.391,-183.551 460.674,-190.168"/>
</g>
<!-- Node34 -->
<g id="node34" class="node"><title>Node34</title>
<g id="a_node34"><a xlink:href="classpdal_1_1Stage.html#a6c81d6fbbac17ebe4cd63806916cc750" target="_top" xlink:title="pdal::Stage::getName">
<polygon fill="white" stroke="black" points="637.5,-183.5 637.5,-202.5 749.5,-202.5 749.5,-183.5 637.5,-183.5"/>
<text text-anchor="middle" x="693.5" y="-190.5" font-family="Helvetica,sans-Serif" font-size="10.00">pdal::Stage::getName</text>
</a>
</g>
</g>
<!-- Node32&#45;&gt;Node34 -->
<g id="edge44" class="edge"><title>Node32&#45;&gt;Node34</title>
<path fill="none" stroke="midnightblue" d="M368.186,-243.46C388.978,-239.419 413.66,-234.781 436,-231 500.915,-220.014 575.373,-209.178 627.285,-201.907"/>
<polygon fill="midnightblue" stroke="midnightblue" points="627.937,-205.35 637.357,-200.501 626.97,-198.417 627.937,-205.35"/>
</g>
<!-- Node35 -->
<g id="node35" class="node"><title>Node35</title>
<g id="a_node35"><a xlink:href="classpdal_1_1Options.html#a99aa4c0c7ba443d584f741d22d37f6a5" target="_top" xlink:title="pdal::Options::getValues">
<polygon fill="white" stroke="black" points="450,-392.5 450,-411.5 574,-411.5 574,-392.5 450,-392.5"/>
<text text-anchor="middle" x="512" y="-399.5" font-family="Helvetica,sans-Serif" font-size="10.00">pdal::Options::getValues</text>
</a>
</g>
</g>
<!-- Node32&#45;&gt;Node35 -->
<g id="edge36" class="edge"><title>Node32&#45;&gt;Node35</title>
<path fill="none" stroke="midnightblue" d="M385.879,-262.526C391.024,-265.036 395.831,-268.148 400,-272 438.093,-307.195 398.146,-347.548 436,-383 437.673,-384.567 439.456,-386.009 441.327,-387.336"/>
<polygon fill="midnightblue" stroke="midnightblue" points="439.632,-390.4 450.026,-392.451 443.179,-384.365 439.632,-390.4"/>
</g>
<!-- Node36 -->
<g id="node36" class="node"><title>Node36</title>
<g id="a_node36"><a xlink:href="classpdal_1_1Options.html#aab2dd4f9208512ad8c38a71ad9d2c98b" target="_top" xlink:title="pdal::Options::addConditional">
<polygon fill="white" stroke="black" points="439.5,-468.5 439.5,-487.5 584.5,-487.5 584.5,-468.5 439.5,-468.5"/>
<text text-anchor="middle" x="512" y="-475.5" font-family="Helvetica,sans-Serif" font-size="10.00">pdal::Options::addConditional</text>
</a>
</g>
</g>
<!-- Node32&#45;&gt;Node36 -->
<g id="edge37" class="edge"><title>Node32&#45;&gt;Node36</title>
<path fill="none" stroke="midnightblue" d="M386.781,-262.191C391.669,-264.779 396.174,-268.001 400,-272 458.504,-333.161 377.911,-397.444 436,-459 437.236,-460.31 438.548,-461.534 439.925,-462.679"/>
<polygon fill="midnightblue" stroke="midnightblue" points="438.189,-465.729 448.442,-468.401 442.093,-459.919 438.189,-465.729"/>
</g>
<!-- Node37 -->
<g id="node37" class="node"><title>Node37</title>
<g id="a_node37"><a xlink:href="classpdal_1_1Options.html#a541bdbfe72511dad8a22236f0a3cb2ab" target="_top" xlink:title="pdal::Options::fromFile">
<polygon fill="white" stroke="red" points="454,-354.5 454,-373.5 570,-373.5 570,-354.5 454,-354.5"/>
<text text-anchor="middle" x="512" y="-361.5" font-family="Helvetica,sans-Serif" font-size="10.00">pdal::Options::fromFile</text>
</a>
</g>
</g>
<!-- Node32&#45;&gt;Node37 -->
<g id="edge40" class="edge"><title>Node32&#45;&gt;Node37</title>
<path fill="none" stroke="midnightblue" d="M384.12,-262.666C389.821,-265.13 395.231,-268.193 400,-272 428.273,-294.567 407.88,-322.243 436,-345 438.746,-347.222 441.719,-349.188 444.843,-350.927"/>
<polygon fill="midnightblue" stroke="midnightblue" points="443.452,-354.141 453.988,-355.252 446.444,-347.813 443.452,-354.141"/>
</g>
<!-- Node38 -->
<g id="node38" class="node"><title>Node38</title>
<g id="a_node38"><a xlink:href="classpdal_1_1Options.html#a0d9ebe7f77b36dea85b51eb0098a5df0" target="_top" xlink:title="pdal::Options::remove">
<polygon fill="white" stroke="black" points="455.5,-278.5 455.5,-297.5 568.5,-297.5 568.5,-278.5 455.5,-278.5"/>
<text text-anchor="middle" x="512" y="-285.5" font-family="Helvetica,sans-Serif" font-size="10.00">pdal::Options::remove</text>
</a>
</g>
</g>
<!-- Node32&#45;&gt;Node38 -->
<g id="edge41" class="edge"><title>Node32&#45;&gt;Node38</title>
<path fill="none" stroke="midnightblue" d="M372.303,-262.518C396.028,-266.877 424.33,-272.076 449.162,-276.639"/>
<polygon fill="midnightblue" stroke="midnightblue" points="448.739,-280.12 459.207,-278.484 450.004,-273.235 448.739,-280.12"/>
</g>
<!-- Node39 -->
<g id="node39" class="node"><title>Node39</title>
<g id="a_node39"><a xlink:href="classpdal_1_1Options.html#afb18dcc4f3883b8413171db00482959c" target="_top" xlink:title="pdal::Options::toCommandLine">
<polygon fill="white" stroke="red" points="436,-316.5 436,-335.5 588,-335.5 588,-316.5 436,-316.5"/>
<text text-anchor="middle" x="512" y="-323.5" font-family="Helvetica,sans-Serif" font-size="10.00">pdal::Options::toCommandLine</text>
</a>
</g>
</g>
<!-- Node32&#45;&gt;Node39 -->
<g id="edge43" class="edge"><title>Node32&#45;&gt;Node39</title>
<path fill="none" stroke="midnightblue" d="M377.084,-262.526C385.041,-264.996 392.913,-268.101 400,-272 419.552,-282.756 416.521,-296.112 436,-307 439.999,-309.236 444.264,-311.213 448.653,-312.96"/>
<polygon fill="midnightblue" stroke="midnightblue" points="447.809,-316.375 458.404,-316.432 450.157,-309.781 447.809,-316.375"/>
</g>
<!-- Node40 -->
<g id="node40" class="node"><title>Node40</title>
<g id="a_node40"><a xlink:href="classpdal_1_1Stage.html#ab94db25b14b94de1f62f9738327accd2" target="_top" xlink:title="pdal::Stage::setupLog">
<polygon fill="white" stroke="black" points="456,-240.5 456,-259.5 568,-259.5 568,-240.5 456,-240.5"/>
<text text-anchor="middle" x="512" y="-247.5" font-family="Helvetica,sans-Serif" font-size="10.00">pdal::Stage::setupLog</text>
</a>
</g>
</g>
<!-- Node32&#45;&gt;Node40 -->
<g id="edge45" class="edge"><title>Node32&#45;&gt;Node40</title>
<path fill="none" stroke="midnightblue" d="M386.593,-251.959C405.722,-251.658 426.588,-251.329 445.67,-251.029"/>
<polygon fill="midnightblue" stroke="midnightblue" points="445.822,-254.527 455.766,-250.87 445.712,-247.528 445.822,-254.527"/>
</g>
<!-- Node33&#45;&gt;Node34 -->
<g id="edge35" class="edge"><title>Node33&#45;&gt;Node34</title>
<path fill="none" stroke="midnightblue" d="M571.775,-180.221C589.464,-182.094 608.983,-184.16 627.076,-186.075"/>
<polygon fill="midnightblue" stroke="midnightblue" points="626.935,-189.579 637.248,-187.152 627.672,-182.618 626.935,-189.579"/>
</g>
<!-- Node36&#45;&gt;Node3 -->
<g id="edge38" class="edge"><title>Node36&#45;&gt;Node3</title>
<path fill="none" stroke="midnightblue" d="M528.304,-487.634C559.567,-507.315 630.968,-552.264 668.474,-575.875"/>
<polygon fill="midnightblue" stroke="midnightblue" points="666.907,-579.024 677.235,-581.39 670.637,-573.101 666.907,-579.024"/>
</g>
<!-- Node36&#45;&gt;Node8 -->
<g id="edge39" class="edge"><title>Node36&#45;&gt;Node8</title>
<path fill="none" stroke="midnightblue" d="M584.717,-478C598.257,-478 612.368,-478 625.748,-478"/>
<polygon fill="midnightblue" stroke="midnightblue" points="625.816,-481.5 635.816,-478 625.816,-474.5 625.816,-481.5"/>
</g>
<!-- Node38&#45;&gt;Node8 -->
<g id="edge42" class="edge"><title>Node38&#45;&gt;Node8</title>
<path fill="none" stroke="midnightblue" d="M568.572,-295.45C575.68,-298.223 582.412,-301.965 588,-307 622.471,-338.062 599.635,-365.51 624,-405 637.475,-426.839 658.194,-447.771 673.318,-461.577"/>
<polygon fill="midnightblue" stroke="midnightblue" points="671.267,-464.437 681.063,-468.474 675.923,-459.21 671.267,-464.437"/>
</g>
<!-- Node40&#45;&gt;Node15 -->
<g id="edge47" class="edge"><title>Node40&#45;&gt;Node15</title>
<path fill="none" stroke="midnightblue" d="M568.321,-254.315C585.877,-255.684 605.506,-257.215 623.882,-258.648"/>
<polygon fill="midnightblue" stroke="midnightblue" points="623.698,-262.144 633.94,-259.433 624.243,-255.166 623.698,-262.144"/>
</g>
<!-- Node40&#45;&gt;Node17 -->
<g id="edge48" class="edge"><title>Node40&#45;&gt;Node17</title>
<path fill="none" stroke="midnightblue" d="M568.049,-258.065C575.234,-260.748 582.127,-264.301 588,-269 615.625,-291.104 600.555,-313.503 624,-340 635.26,-352.727 650.793,-363.536 664.222,-371.472"/>
<polygon fill="midnightblue" stroke="midnightblue" points="662.676,-374.619 673.103,-376.496 666.122,-368.526 662.676,-374.619"/>
</g>
<!-- Node40&#45;&gt;Node18 -->
<g id="edge49" class="edge"><title>Node40&#45;&gt;Node18</title>
<path fill="none" stroke="midnightblue" d="M557.961,-259.54C567.99,-262.176 578.471,-265.338 588,-269 604.888,-275.489 607.848,-279.85 624,-288 636.647,-294.381 650.728,-301.211 662.818,-306.993"/>
<polygon fill="midnightblue" stroke="midnightblue" points="661.489,-310.236 672.022,-311.376 664.498,-303.916 661.489,-310.236"/>
</g>
<!-- Node40&#45;&gt;Node34 -->
<g id="edge46" class="edge"><title>Node40&#45;&gt;Node34</title>
<path fill="none" stroke="midnightblue" d="M543.044,-240.459C573.073,-230.924 619.42,-216.206 652.537,-205.69"/>
<polygon fill="midnightblue" stroke="midnightblue" points="653.886,-208.934 662.358,-202.572 651.767,-202.262 653.886,-208.934"/>
</g>
<!-- Node41&#45;&gt;Node34 -->
<g id="edge54" class="edge"><title>Node41&#45;&gt;Node34</title>
<path fill="none" stroke="midnightblue" d="M360.963,-98.5847C373.484,-101.573 387.318,-104.899 400,-108 483.663,-128.455 505.641,-129.805 588,-155 611.955,-162.328 638.475,-171.991 658.805,-179.739"/>
<polygon fill="midnightblue" stroke="midnightblue" points="657.659,-183.048 668.249,-183.37 660.171,-176.514 657.659,-183.048"/>
</g>
<!-- Node42 -->
<g id="node42" class="node"><title>Node42</title>
<g id="a_node42"><a xlink:href="classpdal_1_1BasePointTable.html#a03429472e71e5dd323bc92319f4a9df6" target="_top" xlink:title="pdal::BasePointTable\l::metadata">
<polygon fill="white" stroke="black" points="457,-77 457,-107 567,-107 567,-77 457,-77"/>
<text text-anchor="start" x="465" y="-95" font-family="Helvetica,sans-Serif" font-size="10.00">pdal::BasePointTable</text>
<text text-anchor="middle" x="512" y="-84" font-family="Helvetica,sans-Serif" font-size="10.00">::metadata</text>
</a>
</g>
</g>
<!-- Node41&#45;&gt;Node42 -->
<g id="edge52" class="edge"><title>Node41&#45;&gt;Node42</title>
<path fill="none" stroke="midnightblue" d="M377.141,-89.892C399.016,-90.2365 424.161,-90.6325 446.71,-90.9876"/>
<polygon fill="midnightblue" stroke="midnightblue" points="446.812,-94.4895 456.866,-91.1475 446.923,-87.4904 446.812,-94.4895"/>
</g>
<!-- Node43 -->
<g id="node43" class="node"><title>Node43</title>
<g id="a_node43"><a xlink:href="classpdal_1_1MetadataNode.html#af2c1c5d91f6ab47a804aa8a0a1b043c2" target="_top" xlink:title="pdal::MetadataNode::add">
<polygon fill="white" stroke="black" points="449,-38.5 449,-57.5 575,-57.5 575,-38.5 449,-38.5"/>
<text text-anchor="middle" x="512" y="-45.5" font-family="Helvetica,sans-Serif" font-size="10.00">pdal::MetadataNode::add</text>
</a>
</g>
</g>
<!-- Node41&#45;&gt;Node43 -->
<g id="edge53" class="edge"><title>Node41&#45;&gt;Node43</title>
<path fill="none" stroke="midnightblue" d="M364.683,-79.4907C392.115,-73.5868 427.569,-65.9562 456.707,-59.6851"/>
<polygon fill="midnightblue" stroke="midnightblue" points="457.687,-63.0544 466.727,-57.5286 456.214,-56.2111 457.687,-63.0544"/>
</g>
<!-- Node44 -->
<g id="node44" class="node"><title>Node44</title>
<g id="a_node44"><a xlink:href="classpdal_1_1Stage.html#a0d7c0bb23ed18577b1aa58b02448487f" target="_top" xlink:title="pdal::Stage::writerInitialize">
<polygon fill="white" stroke="black" points="446,-0.5 446,-19.5 578,-19.5 578,-0.5 446,-0.5"/>
<text text-anchor="middle" x="512" y="-7.5" font-family="Helvetica,sans-Serif" font-size="10.00">pdal::Stage::writerInitialize</text>
</a>
</g>
</g>
<!-- Node41&#45;&gt;Node44 -->
<g id="edge55" class="edge"><title>Node41&#45;&gt;Node44</title>
<path fill="none" stroke="midnightblue" d="M336.029,-79.4489C357.715,-66.4617 398.62,-43.2245 436,-29 442.41,-26.5607 449.247,-24.3385 456.086,-22.344"/>
<polygon fill="midnightblue" stroke="midnightblue" points="457.352,-25.6253 466.056,-19.5858 455.485,-18.8787 457.352,-25.6253"/>
</g>
</g>
</svg>
