<?xml version="1.0" encoding="UTF-8" standalone="no"?>
<!DOCTYPE svg PUBLIC "-//W3C//DTD SVG 1.1//EN"
 "http://www.w3.org/Graphics/SVG/1.1/DTD/svg11.dtd">
<!-- Generated by graphviz version 2.38.0 (20140413.2041)
 -->
<!-- Title: endif Pages: 1 -->
<svg width="606pt" height="147pt"
 viewBox="0.00 0.00 606.00 147.00" xmlns="http://www.w3.org/2000/svg" xmlns:xlink="http://www.w3.org/1999/xlink">
<g id="graph0" class="graph" transform="scale(1 1) rotate(0) translate(4 143)">
<title>endif</title>
<polygon fill="white" stroke="none" points="-4,4 -4,-143 602,-143 602,4 -4,4"/>
<!-- Node1 -->
<g id="node1" class="node"><title>Node1</title>
<polygon fill="#bfbfbf" stroke="black" points="0,-43.5 0,-62.5 38,-62.5 38,-43.5 0,-43.5"/>
<text text-anchor="middle" x="19" y="-50.5" font-family="Helvetica,sans-Serif" font-size="10.00">endif</text>
</g>
<!-- Node2 -->
<g id="node2" class="node"><title>Node2</title>
<g id="a_node2"><a xlink:href="test_2unit_2CMakeLists_8txt.html#ab08ac1136c19e320931be30a4ff4d593" target="_top" xlink:title="configure_file">
<polygon fill="white" stroke="black" points="74,-119.5 74,-138.5 148,-138.5 148,-119.5 74,-119.5"/>
<text text-anchor="middle" x="111" y="-126.5" font-family="Helvetica,sans-Serif" font-size="10.00">configure_file</text>
</a>
</g>
</g>
<!-- Node1&#45;&gt;Node2 -->
<g id="edge1" class="edge"><title>Node1&#45;&gt;Node2</title>
<path fill="none" stroke="midnightblue" d="M27.5932,-62.8063C37.3654,-74.9695 55.321,-95.829 74,-110 76.0198,-111.532 78.1805,-113.008 80.4029,-114.414"/>
<polygon fill="midnightblue" stroke="midnightblue" points="78.7046,-117.475 89.113,-119.454 82.2105,-111.416 78.7046,-117.475"/>
</g>
<!-- Node3 -->
<g id="node3" class="node"><title>Node3</title>
<g id="a_node3"><a xlink:href="plugins_2geowave_2CMakeLists_8txt.html#a40f7f560816321b423ccda46740e1b80" target="_top" xlink:title="include">
<polygon fill="white" stroke="black" points="87.5,-81.5 87.5,-100.5 134.5,-100.5 134.5,-81.5 87.5,-81.5"/>
<text text-anchor="middle" x="111" y="-88.5" font-family="Helvetica,sans-Serif" font-size="10.00">include</text>
</a>
</g>
</g>
<!-- Node1&#45;&gt;Node3 -->
<g id="edge2" class="edge"><title>Node1&#45;&gt;Node3</title>
<path fill="none" stroke="midnightblue" d="M38.2128,-60.6899C49.6204,-65.5064 64.639,-71.8476 77.9893,-77.4844"/>
<polygon fill="midnightblue" stroke="midnightblue" points="76.7661,-80.7671 87.34,-81.4325 79.489,-74.3183 76.7661,-80.7671"/>
</g>
<!-- Node5 -->
<g id="node5" class="node"><title>Node5</title>
<g id="a_node5"><a xlink:href="plugins_2greyhound_2CMakeLists_8txt.html#aaf2c36d971af3676acf24962f41e8fce" target="_top" xlink:title="target_include_directories">
<polygon fill="white" stroke="black" points="333,-0.5 333,-19.5 461,-19.5 461,-0.5 333,-0.5"/>
<text text-anchor="middle" x="397" y="-7.5" font-family="Helvetica,sans-Serif" font-size="10.00">target_include_directories</text>
</a>
</g>
</g>
<!-- Node1&#45;&gt;Node5 -->
<g id="edge9" class="edge"><title>Node1&#45;&gt;Node5</title>
<path fill="none" stroke="midnightblue" d="M38.1996,-45.3277C68.4596,-38.3474 131.034,-31.0663 184,-25 230.138,-19.7158 281.933,-13.851 322.777,-10.2989"/>
<polygon fill="midnightblue" stroke="midnightblue" points="323.243,-13.7722 332.915,-9.44742 322.657,-6.79673 323.243,-13.7722"/>
</g>
<!-- Node4 -->
<g id="node4" class="node"><title>Node4</title>
<g id="a_node4"><a xlink:href="plugins_2sqlite_2CMakeLists_8txt.html#ae13dd749ac3c6bc0aacc152ad068c9cf" target="_top" xlink:title="PDAL_ADD_PLUGIN">
<polygon fill="white" stroke="black" points="184,-43.5 184,-62.5 297,-62.5 297,-43.5 184,-43.5"/>
<text text-anchor="middle" x="240.5" y="-50.5" font-family="Helvetica,sans-Serif" font-size="10.00">PDAL_ADD_PLUGIN</text>
</a>
</g>
</g>
<!-- Node3&#45;&gt;Node4 -->
<g id="edge3" class="edge"><title>Node3&#45;&gt;Node4</title>
<path fill="none" stroke="midnightblue" d="M134.501,-84.2938C151.905,-79.1068 176.497,-71.7775 197.506,-65.5158"/>
<polygon fill="midnightblue" stroke="midnightblue" points="198.592,-68.8444 207.176,-62.6339 196.593,-62.136 198.592,-68.8444"/>
</g>
<!-- Node4&#45;&gt;Node1 -->
<g id="edge8" class="edge"><title>Node4&#45;&gt;Node1</title>
<path fill="none" stroke="midnightblue" d="M183.791,-53C140.66,-53 82.6903,-53 48.5391,-53"/>
<polygon fill="midnightblue" stroke="midnightblue" points="48.3369,-49.5001 38.3369,-53 48.3369,-56.5001 48.3369,-49.5001"/>
</g>
<!-- Node4&#45;&gt;Node5 -->
<g id="edge4" class="edge"><title>Node4&#45;&gt;Node5</title>
<path fill="none" stroke="midnightblue" d="M275.789,-43.4569C298.291,-37.194 327.926,-28.9462 352.14,-22.2069"/>
<polygon fill="midnightblue" stroke="midnightblue" points="353.112,-25.5696 361.807,-19.5164 351.235,-18.8259 353.112,-25.5696"/>
</g>
<!-- Node6 -->
<g id="node6" class="node"><title>Node6</title>
<g id="a_node6"><a xlink:href="plugins_2pgpointcloud_2CMakeLists_8txt.html#aea33ba9daf1f5c8561730ee98d4f613c" target="_top" xlink:title="PDAL_ADD_TEST">
<polygon fill="white" stroke="black" points="497,-20.5 497,-39.5 598,-39.5 598,-20.5 497,-20.5"/>
<text text-anchor="middle" x="547.5" y="-27.5" font-family="Helvetica,sans-Serif" font-size="10.00">PDAL_ADD_TEST</text>
</a>
</g>
</g>
<!-- Node4&#45;&gt;Node6 -->
<g id="edge7" class="edge"><title>Node4&#45;&gt;Node6</title>
<path fill="none" stroke="midnightblue" d="M297.087,-48.8082C350.678,-44.7669 431.532,-38.6697 486.546,-34.5211"/>
<polygon fill="midnightblue" stroke="midnightblue" points="487.138,-37.9865 496.847,-33.7443 486.612,-31.0063 487.138,-37.9865"/>
</g>
<!-- Node5&#45;&gt;Node1 -->
<g id="edge6" class="edge"><title>Node5&#45;&gt;Node1</title>
<path fill="none" stroke="midnightblue" d="M365.454,-19.533C324.252,-27.0687 248.584,-35.6032 184,-43 136.413,-48.4501 81.0709,-54.881 48.3755,-56.1865"/>
<polygon fill="midnightblue" stroke="midnightblue" points="48.1152,-52.6915 38.1996,-56.4239 48.2785,-59.6896 48.1152,-52.6915"/>
</g>
<!-- Node5&#45;&gt;Node6 -->
<g id="edge5" class="edge"><title>Node5&#45;&gt;Node6</title>
<path fill="none" stroke="midnightblue" d="M461.408,-18.5398C469.815,-19.672 478.411,-20.8298 486.753,-21.9533"/>
<polygon fill="midnightblue" stroke="midnightblue" points="486.395,-25.4365 496.773,-23.3027 487.329,-18.4992 486.395,-25.4365"/>
</g>
</g>
</svg>
