<?xml version="1.0" encoding="UTF-8" standalone="no"?>
<!DOCTYPE svg PUBLIC "-//W3C//DTD SVG 1.1//EN"
 "http://www.w3.org/Graphics/SVG/1.1/DTD/svg11.dtd">
<!-- Generated by graphviz version 2.38.0 (20140413.2041)
 -->
<!-- Title: TEST Pages: 1 -->
<svg width="656pt" height="254pt"
 viewBox="0.00 0.00 656.00 254.00" xmlns="http://www.w3.org/2000/svg" xmlns:xlink="http://www.w3.org/1999/xlink">
<g id="graph0" class="graph" transform="scale(1 1) rotate(0) translate(4 250)">
<title>TEST</title>
<polygon fill="white" stroke="none" points="-4,4 -4,-250 652,-250 652,4 -4,4"/>
<!-- Node1 -->
<g id="node1" class="node"><title>Node1</title>
<polygon fill="#bfbfbf" stroke="black" points="0,-95.5 0,-114.5 42,-114.5 42,-95.5 0,-95.5"/>
<text text-anchor="middle" x="21" y="-102.5" font-family="Helvetica,sans-Serif" font-size="10.00">TEST</text>
</g>
<!-- Node2 -->
<g id="node2" class="node"><title>Node2</title>
<g id="a_node2"><a xlink:href="pc2pcTest_8cpp.html#afbd74d116f73f165ec877cdade110b3b" target="_top" xlink:title="appName">
<polygon fill="white" stroke="black" points="111,-152.5 111,-171.5 170,-171.5 170,-152.5 111,-152.5"/>
<text text-anchor="middle" x="140.5" y="-159.5" font-family="Helvetica,sans-Serif" font-size="10.00">appName</text>
</a>
</g>
</g>
<!-- Node1&#45;&gt;Node2 -->
<g id="edge1" class="edge"><title>Node1&#45;&gt;Node2</title>
<path fill="none" stroke="midnightblue" d="M36.8501,-114.638C47.9334,-121.61 63.5869,-130.997 78,-138 85.8541,-141.816 94.4803,-145.487 102.724,-148.76"/>
<polygon fill="midnightblue" stroke="midnightblue" points="101.566,-152.065 112.155,-152.405 104.089,-145.535 101.566,-152.065"/>
</g>
<!-- Node3 -->
<g id="node3" class="node"><title>Node3</title>
<g id="a_node3"><a xlink:href="classSupport.html#a971cbd16fbe820e56449268eb51ab34f" target="_top" xlink:title="Support::binpath">
<polygon fill="white" stroke="black" points="250,-220.5 250,-239.5 338,-239.5 338,-220.5 250,-220.5"/>
<text text-anchor="middle" x="294" y="-227.5" font-family="Helvetica,sans-Serif" font-size="10.00">Support::binpath</text>
</a>
</g>
</g>
<!-- Node1&#45;&gt;Node3 -->
<g id="edge12" class="edge"><title>Node1&#45;&gt;Node3</title>
<path fill="none" stroke="midnightblue" d="M26.2988,-114.664C34.1061,-131.043 52.2255,-164.116 78,-181 126.678,-212.887 193.349,-224.183 239.484,-228.098"/>
<polygon fill="midnightblue" stroke="midnightblue" points="239.347,-231.597 249.583,-228.865 239.877,-224.617 239.347,-231.597"/>
</g>
<!-- Node9 -->
<g id="node9" class="node"><title>Node9</title>
<g id="a_node9"><a xlink:href="namespacepdal_1_1Utils.html#a5f9f634d9b887cdc8a1740f2725e3f56" target="_top" xlink:title="pdal::Utils::run_shell\l_command">
<polygon fill="white" stroke="black" points="241,-92 241,-122 347,-122 347,-92 241,-92"/>
<text text-anchor="start" x="249" y="-110" font-family="Helvetica,sans-Serif" font-size="10.00">pdal::Utils::run_shell</text>
<text text-anchor="middle" x="294" y="-99" font-family="Helvetica,sans-Serif" font-size="10.00">_command</text>
</a>
</g>
</g>
<!-- Node1&#45;&gt;Node9 -->
<g id="edge17" class="edge"><title>Node1&#45;&gt;Node9</title>
<path fill="none" stroke="midnightblue" d="M42.369,-105.15C81.8159,-105.441 170.068,-106.093 230.578,-106.539"/>
<polygon fill="midnightblue" stroke="midnightblue" points="230.76,-110.041 240.786,-106.615 230.812,-103.041 230.76,-110.041"/>
</g>
<!-- Node13 -->
<g id="node13" class="node"><title>Node13</title>
<g id="a_node13"><a xlink:href="classSupport.html#a9bbdf6f202f4f2e45e7a53007dd0a238" target="_top" xlink:title="Support::datapath">
<polygon fill="white" stroke="black" points="93.5,-76.5 93.5,-95.5 187.5,-95.5 187.5,-76.5 93.5,-76.5"/>
<text text-anchor="middle" x="140.5" y="-83.5" font-family="Helvetica,sans-Serif" font-size="10.00">Support::datapath</text>
</a>
</g>
</g>
<!-- Node1&#45;&gt;Node13 -->
<g id="edge13" class="edge"><title>Node1&#45;&gt;Node13</title>
<path fill="none" stroke="midnightblue" d="M42.199,-101.734C53.6078,-99.8889 68.4893,-97.4826 83.1691,-95.1088"/>
<polygon fill="midnightblue" stroke="midnightblue" points="83.9415,-98.5295 93.2546,-93.478 82.8241,-91.6192 83.9415,-98.5295"/>
</g>
<!-- Node15 -->
<g id="node15" class="node"><title>Node15</title>
<g id="a_node15"><a xlink:href="namespacepdal_1_1FileUtils.html#a9147ba0dbb2789edbd17feb104b00532" target="_top" xlink:title="pdal::FileUtils::deleteFile">
<polygon fill="white" stroke="black" points="78,-0.5 78,-19.5 203,-19.5 203,-0.5 78,-0.5"/>
<text text-anchor="middle" x="140.5" y="-7.5" font-family="Helvetica,sans-Serif" font-size="10.00">pdal::FileUtils::deleteFile</text>
</a>
</g>
</g>
<!-- Node1&#45;&gt;Node15 -->
<g id="edge15" class="edge"><title>Node1&#45;&gt;Node15</title>
<path fill="none" stroke="midnightblue" d="M26.5665,-95.2813C34.6509,-79.121 53.0152,-46.7505 78,-29 80.8184,-26.9977 83.8538,-25.2018 87.0125,-23.5918"/>
<polygon fill="midnightblue" stroke="midnightblue" points="88.4439,-26.7858 96.1635,-19.5292 85.6035,-20.3879 88.4439,-26.7858"/>
</g>
<!-- Node17 -->
<g id="node17" class="node"><title>Node17</title>
<g id="a_node17"><a xlink:href="classSupport.html#a987d7adce1636b5852ff41a1d34d37bd" target="_top" xlink:title="Support::temppath">
<polygon fill="white" stroke="black" points="92,-38.5 92,-57.5 189,-57.5 189,-38.5 92,-38.5"/>
<text text-anchor="middle" x="140.5" y="-45.5" font-family="Helvetica,sans-Serif" font-size="10.00">Support::temppath</text>
</a>
</g>
</g>
<!-- Node1&#45;&gt;Node17 -->
<g id="edge18" class="edge"><title>Node1&#45;&gt;Node17</title>
<path fill="none" stroke="midnightblue" d="M33.8189,-95.4415C44.7387,-86.9959 61.6911,-74.8363 78,-67 82.6649,-64.7586 87.6547,-62.7063 92.6992,-60.8481"/>
<polygon fill="midnightblue" stroke="midnightblue" points="94.077,-64.0756 102.396,-57.5152 91.8017,-57.4556 94.077,-64.0756"/>
</g>
<!-- Node2&#45;&gt;Node3 -->
<g id="edge2" class="edge"><title>Node2&#45;&gt;Node3</title>
<path fill="none" stroke="midnightblue" d="M160.024,-171.664C183.785,-183.998 223.745,-204.514 239,-211 243.793,-213.038 248.887,-215.038 253.957,-216.929"/>
<polygon fill="midnightblue" stroke="midnightblue" points="252.999,-220.305 263.594,-220.416 255.381,-213.723 252.999,-220.305"/>
</g>
<!-- Node5 -->
<g id="node5" class="node"><title>Node5</title>
<g id="a_node5"><a xlink:href="classSupport.html#a37a80a3c6bd89bcb38f46c12e97010a4" target="_top" xlink:title="Support::exename">
<polygon fill="white" stroke="black" points="246,-182.5 246,-201.5 342,-201.5 342,-182.5 246,-182.5"/>
<text text-anchor="middle" x="294" y="-189.5" font-family="Helvetica,sans-Serif" font-size="10.00">Support::exename</text>
</a>
</g>
</g>
<!-- Node2&#45;&gt;Node5 -->
<g id="edge4" class="edge"><title>Node2&#45;&gt;Node5</title>
<path fill="none" stroke="midnightblue" d="M170.353,-167.713C188.816,-171.37 213.408,-176.239 235.723,-180.658"/>
<polygon fill="midnightblue" stroke="midnightblue" points="235.295,-184.141 245.785,-182.65 236.655,-177.275 235.295,-184.141"/>
</g>
<!-- Node7 -->
<g id="node7" class="node"><title>Node7</title>
<g id="a_node7"><a xlink:href="namespacepdal.html#a92dc84689275600c36ba420631406540" target="_top" xlink:title="pdal::TEST">
<polygon fill="white" stroke="black" points="261,-144.5 261,-163.5 327,-163.5 327,-144.5 261,-144.5"/>
<text text-anchor="middle" x="294" y="-151.5" font-family="Helvetica,sans-Serif" font-size="10.00">pdal::TEST</text>
</a>
</g>
</g>
<!-- Node2&#45;&gt;Node7 -->
<g id="edge6" class="edge"><title>Node2&#45;&gt;Node7</title>
<path fill="none" stroke="midnightblue" d="M170.353,-160.476C193.065,-159.277 225.051,-157.588 250.663,-156.236"/>
<polygon fill="midnightblue" stroke="midnightblue" points="251.044,-159.72 260.845,-155.698 250.675,-152.73 251.044,-159.72"/>
</g>
<!-- Node2&#45;&gt;Node9 -->
<g id="edge8" class="edge"><title>Node2&#45;&gt;Node9</title>
<path fill="none" stroke="midnightblue" d="M167.889,-152.42C188.246,-145.029 217.027,-134.581 241.853,-125.568"/>
<polygon fill="midnightblue" stroke="midnightblue" points="243.296,-128.768 251.502,-122.065 240.908,-122.188 243.296,-128.768"/>
</g>
<!-- Node4 -->
<g id="node4" class="node"><title>Node4</title>
<g id="a_node4"><a xlink:href="namespaceTestConfig.html#afe7849f5480837fa95084b466d22c603" target="_top" xlink:title="TestConfig::binaryPath">
<polygon fill="white" stroke="black" points="385,-226.5 385,-245.5 502,-245.5 502,-226.5 385,-226.5"/>
<text text-anchor="middle" x="443.5" y="-233.5" font-family="Helvetica,sans-Serif" font-size="10.00">TestConfig::binaryPath</text>
</a>
</g>
</g>
<!-- Node3&#45;&gt;Node4 -->
<g id="edge3" class="edge"><title>Node3&#45;&gt;Node4</title>
<path fill="none" stroke="midnightblue" d="M338.06,-231.752C349.486,-232.216 362.108,-232.73 374.512,-233.234"/>
<polygon fill="midnightblue" stroke="midnightblue" points="374.715,-236.745 384.849,-233.655 374.999,-229.751 374.715,-236.745"/>
</g>
<!-- Node6 -->
<g id="node6" class="node"><title>Node6</title>
<g id="a_node6"><a xlink:href="namespacepdal_1_1Dimension.html#af3176b0b7e6b4be000317846cf7c2718" target="_top" xlink:title="pdal::Dimension::name">
<polygon fill="white" stroke="black" points="385,-188.5 385,-207.5 502,-207.5 502,-188.5 385,-188.5"/>
<text text-anchor="middle" x="443.5" y="-195.5" font-family="Helvetica,sans-Serif" font-size="10.00">pdal::Dimension::name</text>
</a>
</g>
</g>
<!-- Node5&#45;&gt;Node6 -->
<g id="edge5" class="edge"><title>Node5&#45;&gt;Node6</title>
<path fill="none" stroke="midnightblue" d="M342.075,-193.915C352.468,-194.338 363.677,-194.794 374.708,-195.242"/>
<polygon fill="midnightblue" stroke="midnightblue" points="374.625,-198.742 384.759,-195.651 374.909,-191.748 374.625,-198.742"/>
</g>
<!-- Node8 -->
<g id="node8" class="node"><title>Node8</title>
<g id="a_node8"><a xlink:href="classpdal_1_1CpdFilter.html#a5763b0764c0c394ddb1108b883df9edb" target="_top" xlink:title="pdal::CpdFilter::default\lMethod">
<polygon fill="white" stroke="black" points="385.5,-139 385.5,-169 501.5,-169 501.5,-139 385.5,-139"/>
<text text-anchor="start" x="393.5" y="-157" font-family="Helvetica,sans-Serif" font-size="10.00">pdal::CpdFilter::default</text>
<text text-anchor="middle" x="443.5" y="-146" font-family="Helvetica,sans-Serif" font-size="10.00">Method</text>
</a>
</g>
</g>
<!-- Node7&#45;&gt;Node8 -->
<g id="edge7" class="edge"><title>Node7&#45;&gt;Node8</title>
<path fill="none" stroke="midnightblue" d="M327.005,-154C341.109,-154 358.249,-154 374.961,-154"/>
<polygon fill="midnightblue" stroke="midnightblue" points="375.28,-157.5 385.28,-154 375.28,-150.5 375.28,-157.5"/>
</g>
<!-- Node10 -->
<g id="node10" class="node"><title>Node10</title>
<g id="a_node10"><a xlink:href="namespacepdal_1_1Utils.html#a0dc879c4fedda93f12c44e08ac89ae12" target="_top" xlink:title="pdal::Utils::portable\l_popen">
<polygon fill="white" stroke="black" points="393,-90 393,-120 494,-120 494,-90 393,-90"/>
<text text-anchor="start" x="401" y="-108" font-family="Helvetica,sans-Serif" font-size="10.00">pdal::Utils::portable</text>
<text text-anchor="middle" x="443.5" y="-97" font-family="Helvetica,sans-Serif" font-size="10.00">_popen</text>
</a>
</g>
</g>
<!-- Node9&#45;&gt;Node10 -->
<g id="edge9" class="edge"><title>Node9&#45;&gt;Node10</title>
<path fill="none" stroke="midnightblue" d="M347.003,-106.295C358.55,-106.138 370.878,-105.971 382.709,-105.811"/>
<polygon fill="midnightblue" stroke="midnightblue" points="382.994,-109.307 392.945,-105.672 382.899,-102.308 382.994,-109.307"/>
</g>
<!-- Node12 -->
<g id="node12" class="node"><title>Node12</title>
<g id="a_node12"><a xlink:href="namespacepdal_1_1Utils.html#a6c26063d8fb4f02f28d5b1608ab8ea60" target="_top" xlink:title="pdal::Utils::portable\l_pclose">
<polygon fill="white" stroke="black" points="393,-41 393,-71 494,-71 494,-41 393,-41"/>
<text text-anchor="start" x="401" y="-59" font-family="Helvetica,sans-Serif" font-size="10.00">pdal::Utils::portable</text>
<text text-anchor="middle" x="443.5" y="-48" font-family="Helvetica,sans-Serif" font-size="10.00">_pclose</text>
</a>
</g>
</g>
<!-- Node9&#45;&gt;Node12 -->
<g id="edge11" class="edge"><title>Node9&#45;&gt;Node12</title>
<path fill="none" stroke="midnightblue" d="M338.457,-91.9742C354.44,-86.4478 372.721,-80.127 389.454,-74.3412"/>
<polygon fill="midnightblue" stroke="midnightblue" points="390.792,-77.5822 399.099,-71.0065 388.504,-70.9665 390.792,-77.5822"/>
</g>
<!-- Node11 -->
<g id="node11" class="node"><title>Node11</title>
<g id="a_node11"><a xlink:href="namespacepdal_1_1Utils.html#aee933a3f2afb351283582a3a50319fca" target="_top" xlink:title="pdal::Utils::replaceAll">
<polygon fill="white" stroke="black" points="538,-95.5 538,-114.5 648,-114.5 648,-95.5 538,-95.5"/>
<text text-anchor="middle" x="593" y="-102.5" font-family="Helvetica,sans-Serif" font-size="10.00">pdal::Utils::replaceAll</text>
</a>
</g>
</g>
<!-- Node10&#45;&gt;Node11 -->
<g id="edge10" class="edge"><title>Node10&#45;&gt;Node11</title>
<path fill="none" stroke="midnightblue" d="M494.026,-105C504.791,-105 516.33,-105 527.576,-105"/>
<polygon fill="midnightblue" stroke="midnightblue" points="527.79,-108.5 537.79,-105 527.79,-101.5 527.79,-108.5"/>
</g>
<!-- Node14 -->
<g id="node14" class="node"><title>Node14</title>
<g id="a_node14"><a xlink:href="namespaceTestConfig.html#a0e622015f0610c2cfcbb3739b972d877" target="_top" xlink:title="TestConfig::dataPath">
<polygon fill="white" stroke="black" points="239,-48.5 239,-67.5 349,-67.5 349,-48.5 239,-48.5"/>
<text text-anchor="middle" x="294" y="-55.5" font-family="Helvetica,sans-Serif" font-size="10.00">TestConfig::dataPath</text>
</a>
</g>
</g>
<!-- Node13&#45;&gt;Node14 -->
<g id="edge14" class="edge"><title>Node13&#45;&gt;Node14</title>
<path fill="none" stroke="midnightblue" d="M187.778,-77.4469C201.565,-74.8988 216.895,-72.0656 231.493,-69.3676"/>
<polygon fill="midnightblue" stroke="midnightblue" points="232.257,-72.7857 241.455,-67.5265 230.985,-65.9023 232.257,-72.7857"/>
</g>
<!-- Node16 -->
<g id="node16" class="node"><title>Node16</title>
<g id="a_node16"><a xlink:href="namespacepdal_1_1Utils.html#ad875f14218020d7d4d10803f5a115bdb" target="_top" xlink:title="pdal::Utils::remove">
<polygon fill="white" stroke="black" points="244.5,-0.5 244.5,-19.5 343.5,-19.5 343.5,-0.5 244.5,-0.5"/>
<text text-anchor="middle" x="294" y="-7.5" font-family="Helvetica,sans-Serif" font-size="10.00">pdal::Utils::remove</text>
</a>
</g>
</g>
<!-- Node15&#45;&gt;Node16 -->
<g id="edge16" class="edge"><title>Node15&#45;&gt;Node16</title>
<path fill="none" stroke="midnightblue" d="M203.121,-10C213.443,-10 224.128,-10 234.372,-10"/>
<polygon fill="midnightblue" stroke="midnightblue" points="234.439,-13.5001 244.439,-10 234.439,-6.5001 234.439,-13.5001"/>
</g>
<!-- Node17&#45;&gt;Node14 -->
<g id="edge19" class="edge"><title>Node17&#45;&gt;Node14</title>
<path fill="none" stroke="midnightblue" d="M189.02,-51.1366C201.605,-51.9673 215.404,-52.8781 228.719,-53.757"/>
<polygon fill="midnightblue" stroke="midnightblue" points="228.569,-57.2547 238.778,-54.421 229.03,-50.2699 228.569,-57.2547"/>
</g>
</g>
</svg>
