<?xml version="1.0" encoding="UTF-8" standalone="no"?>
<!DOCTYPE svg PUBLIC "-//W3C//DTD SVG 1.1//EN"
 "http://www.w3.org/Graphics/SVG/1.1/DTD/svg11.dtd">
<!-- Generated by graphviz version 2.38.0 (20140413.2041)
 -->
<!-- Title: pdal/pdal/util/Bounds.cpp Pages: 1 -->
<svg width="401pt" height="140pt"
 viewBox="0.00 0.00 401.00 140.00" xmlns="http://www.w3.org/2000/svg" xmlns:xlink="http://www.w3.org/1999/xlink">
<g id="graph0" class="graph" transform="scale(1 1) rotate(0) translate(4 136)">
<title>pdal/pdal/util/Bounds.cpp</title>
<polygon fill="white" stroke="none" points="-4,4 -4,-136 397,-136 397,4 -4,4"/>
<!-- Node1 -->
<g id="node1" class="node"><title>Node1</title>
<polygon fill="#bfbfbf" stroke="black" points="59,-112.5 59,-131.5 185,-131.5 185,-112.5 59,-112.5"/>
<text text-anchor="middle" x="122" y="-119.5" font-family="Helvetica,sans-Serif" font-size="10.00">pdal/pdal/util/Bounds.cpp</text>
</g>
<!-- Node2 -->
<g id="node2" class="node"><title>Node2</title>
<polygon fill="white" stroke="#bfbfbf" points="0,-56.5 0,-75.5 54,-75.5 54,-56.5 0,-56.5"/>
<text text-anchor="middle" x="27" y="-63.5" font-family="Helvetica,sans-Serif" font-size="10.00">iostream</text>
</g>
<!-- Node1&#45;&gt;Node2 -->
<g id="edge1" class="edge"><title>Node1&#45;&gt;Node2</title>
<path fill="none" stroke="midnightblue" d="M106.737,-112.324C91.7786,-103.822 68.7452,-90.7288 51.2733,-80.7975"/>
<polygon fill="midnightblue" stroke="midnightblue" points="52.6488,-77.5534 42.2255,-75.6545 49.1896,-83.639 52.6488,-77.5534"/>
</g>
<!-- Node3 -->
<g id="node3" class="node"><title>Node3</title>
<polygon fill="white" stroke="#bfbfbf" points="72,-56.5 72,-75.5 112,-75.5 112,-56.5 72,-56.5"/>
<text text-anchor="middle" x="92" y="-63.5" font-family="Helvetica,sans-Serif" font-size="10.00">limits</text>
</g>
<!-- Node1&#45;&gt;Node3 -->
<g id="edge2" class="edge"><title>Node1&#45;&gt;Node3</title>
<path fill="none" stroke="midnightblue" d="M117.046,-112.083C112.896,-104.613 106.847,-93.7244 101.733,-84.5199"/>
<polygon fill="midnightblue" stroke="midnightblue" points="104.778,-82.7929 96.8617,-75.7511 98.6586,-86.1924 104.778,-82.7929"/>
</g>
<!-- Node4 -->
<g id="node4" class="node"><title>Node4</title>
<polygon fill="white" stroke="#bfbfbf" points="130,-56.5 130,-75.5 174,-75.5 174,-56.5 130,-56.5"/>
<text text-anchor="middle" x="152" y="-63.5" font-family="Helvetica,sans-Serif" font-size="10.00">vector</text>
</g>
<!-- Node1&#45;&gt;Node4 -->
<g id="edge3" class="edge"><title>Node1&#45;&gt;Node4</title>
<path fill="none" stroke="midnightblue" d="M126.954,-112.083C131.104,-104.613 137.153,-93.7244 142.267,-84.5199"/>
<polygon fill="midnightblue" stroke="midnightblue" points="145.341,-86.1924 147.138,-75.7511 139.222,-82.7929 145.341,-86.1924"/>
</g>
<!-- Node5 -->
<g id="node5" class="node"><title>Node5</title>
<g id="a_node5"><a xlink:href="Bounds_8hpp.html" target="_top" xlink:title="pdal/util/Bounds.hpp">
<polygon fill="white" stroke="black" points="192.5,-56.5 192.5,-75.5 297.5,-75.5 297.5,-56.5 192.5,-56.5"/>
<text text-anchor="middle" x="245" y="-63.5" font-family="Helvetica,sans-Serif" font-size="10.00">pdal/util/Bounds.hpp</text>
</a>
</g>
</g>
<!-- Node1&#45;&gt;Node5 -->
<g id="edge4" class="edge"><title>Node1&#45;&gt;Node5</title>
<path fill="none" stroke="midnightblue" d="M141.49,-112.444C161.642,-103.596 193.323,-89.6875 216.331,-79.5865"/>
<polygon fill="midnightblue" stroke="midnightblue" points="217.852,-82.7411 225.601,-75.5164 215.038,-76.3316 217.852,-82.7411"/>
</g>
<!-- Node6 -->
<g id="node6" class="node"><title>Node6</title>
<polygon fill="white" stroke="#bfbfbf" points="155,-0.5 155,-19.5 201,-19.5 201,-0.5 155,-0.5"/>
<text text-anchor="middle" x="178" y="-7.5" font-family="Helvetica,sans-Serif" font-size="10.00">cstdint</text>
</g>
<!-- Node5&#45;&gt;Node6 -->
<g id="edge5" class="edge"><title>Node5&#45;&gt;Node6</title>
<path fill="none" stroke="midnightblue" d="M234.235,-56.324C224.234,-48.2631 209.113,-36.0765 197.07,-26.3695"/>
<polygon fill="midnightblue" stroke="midnightblue" points="198.943,-23.3841 188.961,-19.8339 194.55,-28.8343 198.943,-23.3841"/>
</g>
<!-- Node7 -->
<g id="node7" class="node"><title>Node7</title>
<polygon fill="white" stroke="#bfbfbf" points="219,-0.5 219,-19.5 271,-19.5 271,-0.5 219,-0.5"/>
<text text-anchor="middle" x="245" y="-7.5" font-family="Helvetica,sans-Serif" font-size="10.00">sstream</text>
</g>
<!-- Node5&#45;&gt;Node7 -->
<g id="edge6" class="edge"><title>Node5&#45;&gt;Node7</title>
<path fill="none" stroke="midnightblue" d="M245,-56.083C245,-49.0059 245,-38.8611 245,-29.9865"/>
<polygon fill="midnightblue" stroke="midnightblue" points="248.5,-29.751 245,-19.7511 241.5,-29.7511 248.5,-29.751"/>
</g>
<!-- Node8 -->
<g id="node8" class="node"><title>Node8</title>
<g id="a_node8"><a xlink:href="pdal__util__export_8hpp.html" target="_top" xlink:title="pdal_util_export.hpp">
<polygon fill="white" stroke="black" points="289,-0.5 289,-19.5 393,-19.5 393,-0.5 289,-0.5"/>
<text text-anchor="middle" x="341" y="-7.5" font-family="Helvetica,sans-Serif" font-size="10.00">pdal_util_export.hpp</text>
</a>
</g>
</g>
<!-- Node5&#45;&gt;Node8 -->
<g id="edge7" class="edge"><title>Node5&#45;&gt;Node8</title>
<path fill="none" stroke="midnightblue" d="M260.424,-56.324C275.54,-47.8215 298.815,-34.7288 316.471,-24.7975"/>
<polygon fill="midnightblue" stroke="midnightblue" points="318.614,-27.6077 325.614,-19.6545 315.183,-21.5066 318.614,-27.6077"/>
</g>
</g>
</svg>
