<?xml version="1.0" encoding="UTF-8" standalone="no"?>
<!DOCTYPE svg PUBLIC "-//W3C//DTD SVG 1.1//EN"
 "http://www.w3.org/Graphics/SVG/1.1/DTD/svg11.dtd">
<!-- Generated by graphviz version 2.38.0 (20140413.2041)
 -->
<!-- Title: pdal/plugins/greyhound/io/bounds.hpp Pages: 1 -->
<svg width="638pt" height="263pt"
 viewBox="0.00 0.00 638.00 263.00" xmlns="http://www.w3.org/2000/svg" xmlns:xlink="http://www.w3.org/1999/xlink">
<g id="graph0" class="graph" transform="scale(1 1) rotate(0) translate(4 259)">
<title>pdal/plugins/greyhound/io/bounds.hpp</title>
<polygon fill="white" stroke="none" points="-4,4 -4,-259 634,-259 634,4 -4,4"/>
<!-- Node1 -->
<g id="node1" class="node"><title>Node1</title>
<polygon fill="#bfbfbf" stroke="black" points="133.5,-224.5 133.5,-254.5 249.5,-254.5 249.5,-224.5 133.5,-224.5"/>
<text text-anchor="start" x="141.5" y="-242.5" font-family="Helvetica,sans-Serif" font-size="10.00">pdal/plugins/greyhound</text>
<text text-anchor="middle" x="191.5" y="-231.5" font-family="Helvetica,sans-Serif" font-size="10.00">/io/bounds.hpp</text>
</g>
<!-- Node2 -->
<g id="node2" class="node"><title>Node2</title>
<polygon fill="white" stroke="#bfbfbf" points="0,-168.5 0,-187.5 45,-187.5 45,-168.5 0,-168.5"/>
<text text-anchor="middle" x="22.5" y="-175.5" font-family="Helvetica,sans-Serif" font-size="10.00">cstdlib</text>
</g>
<!-- Node1&#45;&gt;Node2 -->
<g id="edge1" class="edge"><title>Node1&#45;&gt;Node2</title>
<path fill="none" stroke="midnightblue" d="M151.449,-224.399C121.892,-213.993 82.1919,-200.016 54.6851,-190.331"/>
<polygon fill="midnightblue" stroke="midnightblue" points="55.7389,-186.992 45.1441,-186.972 53.4142,-193.595 55.7389,-186.992"/>
</g>
<!-- Node3 -->
<g id="node3" class="node"><title>Node3</title>
<polygon fill="white" stroke="#bfbfbf" points="63.5,-168.5 63.5,-187.5 117.5,-187.5 117.5,-168.5 63.5,-168.5"/>
<text text-anchor="middle" x="90.5" y="-175.5" font-family="Helvetica,sans-Serif" font-size="10.00">iostream</text>
</g>
<!-- Node1&#45;&gt;Node3 -->
<g id="edge2" class="edge"><title>Node1&#45;&gt;Node3</title>
<path fill="none" stroke="midnightblue" d="M167.564,-224.399C151.375,-214.862 130.093,-202.325 113.997,-192.842"/>
<polygon fill="midnightblue" stroke="midnightblue" points="115.589,-189.718 105.196,-187.658 112.036,-195.749 115.589,-189.718"/>
</g>
<!-- Node4 -->
<g id="node4" class="node"><title>Node4</title>
<polygon fill="white" stroke="#bfbfbf" points="135.5,-168.5 135.5,-187.5 191.5,-187.5 191.5,-168.5 135.5,-168.5"/>
<text text-anchor="middle" x="163.5" y="-175.5" font-family="Helvetica,sans-Serif" font-size="10.00">algorithm</text>
</g>
<!-- Node1&#45;&gt;Node4 -->
<g id="edge3" class="edge"><title>Node1&#45;&gt;Node4</title>
<path fill="none" stroke="midnightblue" d="M184.864,-224.399C180.963,-216.11 175.996,-205.554 171.833,-196.708"/>
<polygon fill="midnightblue" stroke="midnightblue" points="174.999,-195.216 167.574,-187.658 168.665,-198.196 174.999,-195.216"/>
</g>
<!-- Node5 -->
<g id="node5" class="node"><title>Node5</title>
<polygon fill="white" stroke="#bfbfbf" points="121.5,-56.5 121.5,-75.5 185.5,-75.5 185.5,-56.5 121.5,-56.5"/>
<text text-anchor="middle" x="153.5" y="-63.5" font-family="Helvetica,sans-Serif" font-size="10.00">json/json.h</text>
</g>
<!-- Node1&#45;&gt;Node5 -->
<g id="edge4" class="edge"><title>Node1&#45;&gt;Node5</title>
<path fill="none" stroke="midnightblue" d="M196.147,-224.325C200.183,-209.996 204.765,-187.276 200.5,-168 193.601,-136.822 176.051,-103.849 164.459,-84.3649"/>
<polygon fill="midnightblue" stroke="midnightblue" points="167.375,-82.4249 159.173,-75.7181 161.402,-86.0758 167.375,-82.4249"/>
</g>
<!-- Node6 -->
<g id="node6" class="node"><title>Node6</title>
<g id="a_node6"><a xlink:href="dir_8hpp.html" target="_top" xlink:title="dir.hpp">
<polygon fill="white" stroke="black" points="247.5,-168.5 247.5,-187.5 293.5,-187.5 293.5,-168.5 247.5,-168.5"/>
<text text-anchor="middle" x="270.5" y="-175.5" font-family="Helvetica,sans-Serif" font-size="10.00">dir.hpp</text>
</a>
</g>
</g>
<!-- Node1&#45;&gt;Node6 -->
<g id="edge5" class="edge"><title>Node1&#45;&gt;Node6</title>
<path fill="none" stroke="midnightblue" d="M210.222,-224.399C222.412,-215.218 238.292,-203.258 250.693,-193.918"/>
<polygon fill="midnightblue" stroke="midnightblue" points="253.123,-196.47 259.005,-187.658 248.911,-190.878 253.123,-196.47"/>
</g>
<!-- Node7 -->
<g id="node7" class="node"><title>Node7</title>
<g id="a_node7"><a xlink:href="point_8hpp.html" target="_top" xlink:title="point.hpp">
<polygon fill="white" stroke="black" points="293.5,-112.5 293.5,-131.5 349.5,-131.5 349.5,-112.5 293.5,-112.5"/>
<text text-anchor="middle" x="321.5" y="-119.5" font-family="Helvetica,sans-Serif" font-size="10.00">point.hpp</text>
</a>
</g>
</g>
<!-- Node1&#45;&gt;Node7 -->
<g id="edge15" class="edge"><title>Node1&#45;&gt;Node7</title>
<path fill="none" stroke="midnightblue" d="M245.457,-224.489C265.838,-216.75 287.663,-205.119 302.5,-188 313.68,-175.101 318.29,-155.926 320.186,-141.743"/>
<polygon fill="midnightblue" stroke="midnightblue" points="323.682,-141.953 321.199,-131.653 316.717,-141.254 323.682,-141.953"/>
</g>
<!-- Node6&#45;&gt;Node7 -->
<g id="edge6" class="edge"><title>Node6&#45;&gt;Node7</title>
<path fill="none" stroke="midnightblue" d="M278.922,-168.083C286.348,-160.22 297.352,-148.569 306.312,-139.081"/>
<polygon fill="midnightblue" stroke="midnightblue" points="308.913,-141.424 313.235,-131.751 303.824,-136.618 308.913,-141.424"/>
</g>
<!-- Node7&#45;&gt;Node5 -->
<g id="edge12" class="edge"><title>Node7&#45;&gt;Node5</title>
<path fill="none" stroke="midnightblue" d="M294.88,-112.444C266.494,-103.32 221.363,-88.8133 189.747,-78.6509"/>
<polygon fill="midnightblue" stroke="midnightblue" points="190.587,-75.2445 179.996,-75.5164 188.445,-81.9087 190.587,-75.2445"/>
</g>
<!-- Node8 -->
<g id="node8" class="node"><title>Node8</title>
<polygon fill="white" stroke="#bfbfbf" points="203.5,-56.5 203.5,-75.5 247.5,-75.5 247.5,-56.5 203.5,-56.5"/>
<text text-anchor="middle" x="225.5" y="-63.5" font-family="Helvetica,sans-Serif" font-size="10.00">cmath</text>
</g>
<!-- Node7&#45;&gt;Node8 -->
<g id="edge7" class="edge"><title>Node7&#45;&gt;Node8</title>
<path fill="none" stroke="midnightblue" d="M306.076,-112.324C290.96,-103.822 267.685,-90.7288 250.029,-80.7975"/>
<polygon fill="midnightblue" stroke="midnightblue" points="251.317,-77.5066 240.886,-75.6545 247.886,-83.6077 251.317,-77.5066"/>
</g>
<!-- Node9 -->
<g id="node9" class="node"><title>Node9</title>
<polygon fill="white" stroke="#bfbfbf" points="265.5,-56.5 265.5,-75.5 315.5,-75.5 315.5,-56.5 265.5,-56.5"/>
<text text-anchor="middle" x="290.5" y="-63.5" font-family="Helvetica,sans-Serif" font-size="10.00">iomanip</text>
</g>
<!-- Node7&#45;&gt;Node9 -->
<g id="edge8" class="edge"><title>Node7&#45;&gt;Node9</title>
<path fill="none" stroke="midnightblue" d="M316.381,-112.083C312.092,-104.613 305.842,-93.7244 300.558,-84.5199"/>
<polygon fill="midnightblue" stroke="midnightblue" points="303.538,-82.6811 295.524,-75.7511 297.467,-86.1662 303.538,-82.6811"/>
</g>
<!-- Node10 -->
<g id="node10" class="node"><title>Node10</title>
<polygon fill="white" stroke="#bfbfbf" points="333.5,-56.5 333.5,-75.5 373.5,-75.5 373.5,-56.5 333.5,-56.5"/>
<text text-anchor="middle" x="353.5" y="-63.5" font-family="Helvetica,sans-Serif" font-size="10.00">limits</text>
</g>
<!-- Node7&#45;&gt;Node10 -->
<g id="edge9" class="edge"><title>Node7&#45;&gt;Node10</title>
<path fill="none" stroke="midnightblue" d="M326.784,-112.083C331.211,-104.613 337.663,-93.7244 343.118,-84.5199"/>
<polygon fill="midnightblue" stroke="midnightblue" points="346.227,-86.1383 348.314,-75.7511 340.205,-82.5697 346.227,-86.1383"/>
</g>
<!-- Node11 -->
<g id="node11" class="node"><title>Node11</title>
<polygon fill="white" stroke="#bfbfbf" points="391.5,-56.5 391.5,-75.5 443.5,-75.5 443.5,-56.5 391.5,-56.5"/>
<text text-anchor="middle" x="417.5" y="-63.5" font-family="Helvetica,sans-Serif" font-size="10.00">ostream</text>
</g>
<!-- Node7&#45;&gt;Node11 -->
<g id="edge10" class="edge"><title>Node7&#45;&gt;Node11</title>
<path fill="none" stroke="midnightblue" d="M336.924,-112.324C352.04,-103.822 375.315,-90.7288 392.971,-80.7975"/>
<polygon fill="midnightblue" stroke="midnightblue" points="395.114,-83.6077 402.114,-75.6545 391.683,-77.5066 395.114,-83.6077"/>
</g>
<!-- Node12 -->
<g id="node12" class="node"><title>Node12</title>
<polygon fill="white" stroke="#bfbfbf" points="461.5,-56.5 461.5,-75.5 505.5,-75.5 505.5,-56.5 461.5,-56.5"/>
<text text-anchor="middle" x="483.5" y="-63.5" font-family="Helvetica,sans-Serif" font-size="10.00">vector</text>
</g>
<!-- Node7&#45;&gt;Node12 -->
<g id="edge11" class="edge"><title>Node7&#45;&gt;Node12</title>
<path fill="none" stroke="midnightblue" d="M347.169,-112.444C375.465,-103.012 421.015,-87.8282 451.588,-77.6375"/>
<polygon fill="midnightblue" stroke="midnightblue" points="452.955,-80.8711 461.335,-74.3884 450.741,-74.2304 452.955,-80.8711"/>
</g>
<!-- Node13 -->
<g id="node13" class="node"><title>Node13</title>
<g id="a_node13"><a xlink:href="pdal__export_8hpp.html" target="_top" xlink:title="pdal/pdal_export.hpp">
<polygon fill="white" stroke="black" points="523,-56.5 523,-75.5 630,-75.5 630,-56.5 523,-56.5"/>
<text text-anchor="middle" x="576.5" y="-63.5" font-family="Helvetica,sans-Serif" font-size="10.00">pdal/pdal_export.hpp</text>
</a>
</g>
</g>
<!-- Node7&#45;&gt;Node13 -->
<g id="edge13" class="edge"><title>Node7&#45;&gt;Node13</title>
<path fill="none" stroke="midnightblue" d="M349.764,-115.015C392.279,-106.011 473.322,-88.8495 526.114,-77.67"/>
<polygon fill="midnightblue" stroke="midnightblue" points="526.893,-81.0826 535.951,-75.5868 525.443,-74.2345 526.893,-81.0826"/>
</g>
<!-- Node14 -->
<g id="node14" class="node"><title>Node14</title>
<g id="a_node14"><a xlink:href="pdal__defines_8h.html" target="_top" xlink:title="pdal/pdal_defines.h">
<polygon fill="white" stroke="black" points="526,-0.5 526,-19.5 627,-19.5 627,-0.5 526,-0.5"/>
<text text-anchor="middle" x="576.5" y="-7.5" font-family="Helvetica,sans-Serif" font-size="10.00">pdal/pdal_defines.h</text>
</a>
</g>
</g>
<!-- Node13&#45;&gt;Node14 -->
<g id="edge14" class="edge"><title>Node13&#45;&gt;Node14</title>
<path fill="none" stroke="midnightblue" d="M576.5,-56.083C576.5,-49.0059 576.5,-38.8611 576.5,-29.9865"/>
<polygon fill="midnightblue" stroke="midnightblue" points="580,-29.751 576.5,-19.7511 573,-29.7511 580,-29.751"/>
</g>
</g>
</svg>
