<?xml version="1.0" encoding="UTF-8" standalone="no"?>
<!DOCTYPE svg PUBLIC "-//W3C//DTD SVG 1.1//EN"
 "http://www.w3.org/Graphics/SVG/1.1/DTD/svg11.dtd">
<!-- Generated by graphviz version 2.38.0 (20140413.2041)
 -->
<!-- Title: pdal/io/BpfHeader.cpp Pages: 1 -->
<svg width="1899pt" height="420pt"
 viewBox="0.00 0.00 1898.50 420.00" xmlns="http://www.w3.org/2000/svg" xmlns:xlink="http://www.w3.org/1999/xlink">
<g id="graph0" class="graph" transform="scale(1 1) rotate(0) translate(4 416)">
<title>pdal/io/BpfHeader.cpp</title>
<polygon fill="white" stroke="none" points="-4,4 -4,-416 1894.5,-416 1894.5,4 -4,4"/>
<!-- Node1 -->
<g id="node1" class="node"><title>Node1</title>
<polygon fill="#bfbfbf" stroke="black" points="1269.5,-392.5 1269.5,-411.5 1382.5,-411.5 1382.5,-392.5 1269.5,-392.5"/>
<text text-anchor="middle" x="1326" y="-399.5" font-family="Helvetica,sans-Serif" font-size="10.00">pdal/io/BpfHeader.cpp</text>
</g>
<!-- Node2 -->
<g id="node2" class="node"><title>Node2</title>
<polygon fill="white" stroke="#bfbfbf" points="48,-0.5 48,-19.5 102,-19.5 102,-0.5 48,-0.5"/>
<text text-anchor="middle" x="75" y="-7.5" font-family="Helvetica,sans-Serif" font-size="10.00">iostream</text>
</g>
<!-- Node1&#45;&gt;Node2 -->
<g id="edge1" class="edge"><title>Node1&#45;&gt;Node2</title>
<path fill="none" stroke="midnightblue" d="M1269.45,-399.319C1016.35,-391.429 0,-355.716 0,-291 0,-291 0,-291 0,-121 0,-81.4439 33.5172,-45.6159 55.7389,-26.2091"/>
<polygon fill="midnightblue" stroke="midnightblue" points="58.2008,-28.7122 63.6091,-19.6017 53.6999,-23.351 58.2008,-28.7122"/>
</g>
<!-- Node3 -->
<g id="node3" class="node"><title>Node3</title>
<g id="a_node3"><a xlink:href="IStream_8hpp.html" target="_top" xlink:title="pdal/util/IStream.hpp">
<polygon fill="white" stroke="black" points="1382.5,-112.5 1382.5,-131.5 1489.5,-131.5 1489.5,-112.5 1382.5,-112.5"/>
<text text-anchor="middle" x="1436" y="-119.5" font-family="Helvetica,sans-Serif" font-size="10.00">pdal/util/IStream.hpp</text>
</a>
</g>
</g>
<!-- Node1&#45;&gt;Node3 -->
<g id="edge2" class="edge"><title>Node1&#45;&gt;Node3</title>
<path fill="none" stroke="midnightblue" d="M1382.52,-399.551C1454.87,-394.34 1571,-373.177 1571,-291 1571,-291 1571,-291 1571,-233 1571,-182.307 1513.09,-150.83 1473.12,-135.144"/>
<polygon fill="midnightblue" stroke="midnightblue" points="1474.24,-131.824 1463.65,-131.584 1471.78,-138.377 1474.24,-131.824"/>
</g>
<!-- Node14 -->
<g id="node14" class="node"><title>Node14</title>
<g id="a_node14"><a xlink:href="OStream_8hpp.html" target="_top" xlink:title="pdal/util/OStream.hpp">
<polygon fill="white" stroke="black" points="1507.5,-112.5 1507.5,-131.5 1618.5,-131.5 1618.5,-112.5 1507.5,-112.5"/>
<text text-anchor="middle" x="1563" y="-119.5" font-family="Helvetica,sans-Serif" font-size="10.00">pdal/util/OStream.hpp</text>
</a>
</g>
</g>
<!-- Node1&#45;&gt;Node14 -->
<g id="edge13" class="edge"><title>Node1&#45;&gt;Node14</title>
<path fill="none" stroke="midnightblue" d="M1382.71,-395.051C1442.78,-387.906 1532.88,-374.526 1562,-356 1592.08,-336.865 1609,-326.65 1609,-291 1609,-291 1609,-291 1609,-233 1609,-197.817 1588.72,-160.863 1575.09,-139.999"/>
<polygon fill="midnightblue" stroke="midnightblue" points="1577.91,-137.916 1569.4,-131.609 1572.12,-141.848 1577.91,-137.916"/>
</g>
<!-- Node15 -->
<g id="node15" class="node"><title>Node15</title>
<g id="a_node15"><a xlink:href="BpfHeader_8hpp.html" target="_top" xlink:title="BpfHeader.hpp">
<polygon fill="white" stroke="black" points="1034,-336.5 1034,-355.5 1116,-355.5 1116,-336.5 1034,-336.5"/>
<text text-anchor="middle" x="1075" y="-343.5" font-family="Helvetica,sans-Serif" font-size="10.00">BpfHeader.hpp</text>
</a>
</g>
</g>
<!-- Node1&#45;&gt;Node15 -->
<g id="edge21" class="edge"><title>Node1&#45;&gt;Node15</title>
<path fill="none" stroke="midnightblue" d="M1286.23,-392.444C1242.44,-383.023 1171.99,-367.866 1124.62,-357.675"/>
<polygon fill="midnightblue" stroke="midnightblue" points="1125.1,-354.198 1114.59,-355.516 1123.63,-361.041 1125.1,-354.198"/>
</g>
<!-- Node4 -->
<g id="node4" class="node"><title>Node4</title>
<polygon fill="white" stroke="#bfbfbf" points="1574,-56.5 1574,-75.5 1642,-75.5 1642,-56.5 1574,-56.5"/>
<text text-anchor="middle" x="1608" y="-63.5" font-family="Helvetica,sans-Serif" font-size="10.00">sys/types.h</text>
</g>
<!-- Node3&#45;&gt;Node4 -->
<g id="edge3" class="edge"><title>Node3&#45;&gt;Node4</title>
<path fill="none" stroke="midnightblue" d="M1463.25,-112.444C1492.44,-103.28 1538.92,-88.6876 1571.31,-78.5192"/>
<polygon fill="midnightblue" stroke="midnightblue" points="1572.38,-81.8512 1580.87,-75.5164 1570.28,-75.1726 1572.38,-81.8512"/>
</g>
<!-- Node5 -->
<g id="node5" class="node"><title>Node5</title>
<polygon fill="white" stroke="#bfbfbf" points="1841.5,-56.5 1841.5,-75.5 1890.5,-75.5 1890.5,-56.5 1841.5,-56.5"/>
<text text-anchor="middle" x="1866" y="-63.5" font-family="Helvetica,sans-Serif" font-size="10.00">stdint.h</text>
</g>
<!-- Node3&#45;&gt;Node5 -->
<g id="edge4" class="edge"><title>Node3&#45;&gt;Node5</title>
<path fill="none" stroke="midnightblue" d="M1489.75,-113.074C1492.54,-112.701 1495.3,-112.341 1498,-112 1642.94,-93.675 1683.46,-102.768 1831.32,-75.8502"/>
<polygon fill="midnightblue" stroke="midnightblue" points="1832.02,-79.2807 1841.22,-74.0245 1830.75,-72.3969 1832.02,-79.2807"/>
</g>
<!-- Node6 -->
<g id="node6" class="node"><title>Node6</title>
<polygon fill="white" stroke="#bfbfbf" points="906.5,-56.5 906.5,-75.5 955.5,-75.5 955.5,-56.5 906.5,-56.5"/>
<text text-anchor="middle" x="931" y="-63.5" font-family="Helvetica,sans-Serif" font-size="10.00">cassert</text>
</g>
<!-- Node3&#45;&gt;Node6 -->
<g id="edge5" class="edge"><title>Node3&#45;&gt;Node6</title>
<path fill="none" stroke="midnightblue" d="M1382.28,-118.728C1296.32,-114.468 1122.47,-103.29 966.054,-75.8883"/>
<polygon fill="midnightblue" stroke="midnightblue" points="966.236,-72.3657 955.778,-74.0598 965.01,-79.2575 966.236,-72.3657"/>
</g>
<!-- Node7 -->
<g id="node7" class="node"><title>Node7</title>
<polygon fill="white" stroke="#bfbfbf" points="1506,-56.5 1506,-75.5 1556,-75.5 1556,-56.5 1506,-56.5"/>
<text text-anchor="middle" x="1531" y="-63.5" font-family="Helvetica,sans-Serif" font-size="10.00">fstream</text>
</g>
<!-- Node3&#45;&gt;Node7 -->
<g id="edge6" class="edge"><title>Node3&#45;&gt;Node7</title>
<path fill="none" stroke="midnightblue" d="M1451.26,-112.324C1466.22,-103.822 1489.25,-90.7288 1506.73,-80.7975"/>
<polygon fill="midnightblue" stroke="midnightblue" points="1508.81,-83.639 1515.77,-75.6545 1505.35,-77.5534 1508.81,-83.639"/>
</g>
<!-- Node8 -->
<g id="node8" class="node"><title>Node8</title>
<polygon fill="white" stroke="#bfbfbf" points="1250,-56.5 1250,-75.5 1302,-75.5 1302,-56.5 1250,-56.5"/>
<text text-anchor="middle" x="1276" y="-63.5" font-family="Helvetica,sans-Serif" font-size="10.00">memory</text>
</g>
<!-- Node3&#45;&gt;Node8 -->
<g id="edge7" class="edge"><title>Node3&#45;&gt;Node8</title>
<path fill="none" stroke="midnightblue" d="M1410.65,-112.444C1383.73,-103.359 1341,-88.9388 1310.91,-78.7831"/>
<polygon fill="midnightblue" stroke="midnightblue" points="1311.83,-75.3981 1301.23,-75.5164 1309.59,-82.0305 1311.83,-75.3981"/>
</g>
<!-- Node9 -->
<g id="node9" class="node"><title>Node9</title>
<polygon fill="white" stroke="#bfbfbf" points="1782.5,-56.5 1782.5,-75.5 1823.5,-75.5 1823.5,-56.5 1782.5,-56.5"/>
<text text-anchor="middle" x="1803" y="-63.5" font-family="Helvetica,sans-Serif" font-size="10.00">stack</text>
</g>
<!-- Node3&#45;&gt;Node9 -->
<g id="edge8" class="edge"><title>Node3&#45;&gt;Node9</title>
<path fill="none" stroke="midnightblue" d="M1489.76,-113.149C1492.55,-112.757 1495.31,-112.372 1498,-112 1616.89,-95.5901 1650.7,-101.46 1772.37,-75.7946"/>
<polygon fill="midnightblue" stroke="midnightblue" points="1773.41,-79.1525 1782.46,-73.639 1771.95,-72.3072 1773.41,-79.1525"/>
</g>
<!-- Node10 -->
<g id="node10" class="node"><title>Node10</title>
<polygon fill="white" stroke="#bfbfbf" points="1188,-56.5 1188,-75.5 1232,-75.5 1232,-56.5 1188,-56.5"/>
<text text-anchor="middle" x="1210" y="-63.5" font-family="Helvetica,sans-Serif" font-size="10.00">vector</text>
</g>
<!-- Node3&#45;&gt;Node10 -->
<g id="edge9" class="edge"><title>Node3&#45;&gt;Node10</title>
<path fill="none" stroke="midnightblue" d="M1395.88,-112.427C1358.43,-104.272 1300.77,-91.3296 1242.11,-76.1872"/>
<polygon fill="midnightblue" stroke="midnightblue" points="1242.87,-72.7674 1232.31,-73.6382 1241.11,-79.5421 1242.87,-72.7674"/>
</g>
<!-- Node11 -->
<g id="node11" class="node"><title>Node11</title>
<polygon fill="white" stroke="#bfbfbf" points="1320,-56.5 1320,-75.5 1366,-75.5 1366,-56.5 1320,-56.5"/>
<text text-anchor="middle" x="1343" y="-63.5" font-family="Helvetica,sans-Serif" font-size="10.00">cstring</text>
</g>
<!-- Node3&#45;&gt;Node11 -->
<g id="edge10" class="edge"><title>Node3&#45;&gt;Node11</title>
<path fill="none" stroke="midnightblue" d="M1421.06,-112.324C1406.41,-103.822 1383.87,-90.7288 1366.76,-80.7975"/>
<polygon fill="midnightblue" stroke="midnightblue" points="1368.31,-77.6491 1357.9,-75.6545 1364.8,-83.7027 1368.31,-77.6491"/>
</g>
<!-- Node12 -->
<g id="node12" class="node"><title>Node12</title>
<g id="a_node12"><a xlink:href="portable__endian_8hpp.html" target="_top" xlink:title="portable_endian.hpp">
<polygon fill="white" stroke="black" points="1660,-56.5 1660,-75.5 1764,-75.5 1764,-56.5 1660,-56.5"/>
<text text-anchor="middle" x="1712" y="-63.5" font-family="Helvetica,sans-Serif" font-size="10.00">portable_endian.hpp</text>
</a>
</g>
</g>
<!-- Node3&#45;&gt;Node12 -->
<g id="edge11" class="edge"><title>Node3&#45;&gt;Node12</title>
<path fill="none" stroke="midnightblue" d="M1479.73,-112.444C1528.18,-102.964 1606.33,-87.6747 1658.42,-77.4835"/>
<polygon fill="midnightblue" stroke="midnightblue" points="1659.33,-80.8715 1668.47,-75.5164 1657.99,-74.0017 1659.33,-80.8715"/>
</g>
<!-- Node13 -->
<g id="node13" class="node"><title>Node13</title>
<g id="a_node13"><a xlink:href="pdal__util__export_8hpp.html" target="_top" xlink:title="pdal_util_export.hpp">
<polygon fill="white" stroke="black" points="1384,-56.5 1384,-75.5 1488,-75.5 1488,-56.5 1384,-56.5"/>
<text text-anchor="middle" x="1436" y="-63.5" font-family="Helvetica,sans-Serif" font-size="10.00">pdal_util_export.hpp</text>
</a>
</g>
</g>
<!-- Node3&#45;&gt;Node13 -->
<g id="edge12" class="edge"><title>Node3&#45;&gt;Node13</title>
<path fill="none" stroke="midnightblue" d="M1436,-112.083C1436,-105.006 1436,-94.8611 1436,-85.9865"/>
<polygon fill="midnightblue" stroke="midnightblue" points="1439.5,-85.751 1436,-75.7511 1432.5,-85.7511 1439.5,-85.751"/>
</g>
<!-- Node14&#45;&gt;Node4 -->
<g id="edge14" class="edge"><title>Node14&#45;&gt;Node4</title>
<path fill="none" stroke="midnightblue" d="M1570.43,-112.083C1576.85,-104.377 1586.31,-93.0333 1594.12,-83.6531"/>
<polygon fill="midnightblue" stroke="midnightblue" points="1596.99,-85.674 1600.71,-75.7511 1591.62,-81.1927 1596.99,-85.674"/>
</g>
<!-- Node14&#45;&gt;Node5 -->
<g id="edge15" class="edge"><title>Node14&#45;&gt;Node5</title>
<path fill="none" stroke="midnightblue" d="M1618.67,-113.232C1671.03,-105.578 1751.79,-92.8813 1831.03,-76.0385"/>
<polygon fill="midnightblue" stroke="midnightblue" points="1832.14,-79.3787 1841.18,-73.8547 1830.67,-72.5352 1832.14,-79.3787"/>
</g>
<!-- Node14&#45;&gt;Node7 -->
<g id="edge16" class="edge"><title>Node14&#45;&gt;Node7</title>
<path fill="none" stroke="midnightblue" d="M1557.72,-112.083C1553.29,-104.613 1546.84,-93.7244 1541.38,-84.5199"/>
<polygon fill="midnightblue" stroke="midnightblue" points="1544.29,-82.5697 1536.19,-75.7511 1538.27,-86.1383 1544.29,-82.5697"/>
</g>
<!-- Node14&#45;&gt;Node9 -->
<g id="edge18" class="edge"><title>Node14&#45;&gt;Node9</title>
<path fill="none" stroke="midnightblue" d="M1607.9,-112.466C1648.42,-104.521 1709.85,-91.8752 1772.36,-75.9927"/>
<polygon fill="midnightblue" stroke="midnightblue" points="1773.59,-79.2921 1782.4,-73.4161 1771.85,-72.5119 1773.59,-79.2921"/>
</g>
<!-- Node14&#45;&gt;Node11 -->
<g id="edge17" class="edge"><title>Node14&#45;&gt;Node11</title>
<path fill="none" stroke="midnightblue" d="M1525.44,-112.466C1489.49,-104.198 1433.51,-91.0583 1376.03,-76.1938"/>
<polygon fill="midnightblue" stroke="midnightblue" points="1376.6,-72.726 1366.04,-73.5972 1374.84,-79.5008 1376.6,-72.726"/>
</g>
<!-- Node14&#45;&gt;Node12 -->
<g id="edge19" class="edge"><title>Node14&#45;&gt;Node12</title>
<path fill="none" stroke="midnightblue" d="M1586.61,-112.444C1611.46,-103.438 1650.77,-89.1891 1678.75,-79.049"/>
<polygon fill="midnightblue" stroke="midnightblue" points="1680.29,-82.2144 1688.5,-75.5164 1677.91,-75.6332 1680.29,-82.2144"/>
</g>
<!-- Node14&#45;&gt;Node13 -->
<g id="edge20" class="edge"><title>Node14&#45;&gt;Node13</title>
<path fill="none" stroke="midnightblue" d="M1542.88,-112.444C1521.98,-103.557 1489.07,-89.5632 1465.28,-79.4514"/>
<polygon fill="midnightblue" stroke="midnightblue" points="1466.6,-76.2085 1456.03,-75.5164 1463.86,-82.6504 1466.6,-76.2085"/>
</g>
<!-- Node15&#45;&gt;Node5 -->
<g id="edge22" class="edge"><title>Node15&#45;&gt;Node5</title>
<path fill="none" stroke="midnightblue" d="M1116.35,-337.966C1158.11,-330.386 1224.26,-317.077 1280,-300 1500.8,-232.36 1755.56,-118.007 1838.43,-79.8354"/>
<polygon fill="midnightblue" stroke="midnightblue" points="1840.06,-82.9378 1847.67,-75.5662 1837.13,-76.5833 1840.06,-82.9378"/>
</g>
<!-- Node15&#45;&gt;Node10 -->
<g id="edge24" class="edge"><title>Node15&#45;&gt;Node10</title>
<path fill="none" stroke="midnightblue" d="M1116,-342.407C1179.15,-335.947 1293,-313.426 1293,-235 1293,-235 1293,-235 1293,-177 1293,-135.911 1255.64,-100.444 1231.05,-81.5491"/>
<polygon fill="midnightblue" stroke="midnightblue" points="1233.09,-78.7041 1222.97,-75.575 1228.93,-84.3334 1233.09,-78.7041"/>
</g>
<!-- Node16 -->
<g id="node16" class="node"><title>Node16</title>
<polygon fill="white" stroke="#bfbfbf" points="1128.5,-56.5 1128.5,-75.5 1169.5,-75.5 1169.5,-56.5 1128.5,-56.5"/>
<text text-anchor="middle" x="1149" y="-63.5" font-family="Helvetica,sans-Serif" font-size="10.00">string</text>
</g>
<!-- Node15&#45;&gt;Node16 -->
<g id="edge23" class="edge"><title>Node15&#45;&gt;Node16</title>
<path fill="none" stroke="midnightblue" d="M1062.5,-336.313C1040,-319.544 995,-280.338 995,-235 995,-235 995,-235 995,-177 995,-146.313 1076.99,-101.844 1121.32,-80.0426"/>
<polygon fill="midnightblue" stroke="midnightblue" points="1122.96,-83.1396 1130.42,-75.6242 1119.9,-76.8423 1122.96,-83.1396"/>
</g>
<!-- Node17 -->
<g id="node17" class="node"><title>Node17</title>
<g id="a_node17"><a xlink:href="Dimension_8hpp.html" target="_top" xlink:title="pdal/Dimension.hpp">
<polygon fill="white" stroke="black" points="1023.5,-224.5 1023.5,-243.5 1126.5,-243.5 1126.5,-224.5 1023.5,-224.5"/>
<text text-anchor="middle" x="1075" y="-231.5" font-family="Helvetica,sans-Serif" font-size="10.00">pdal/Dimension.hpp</text>
</a>
</g>
</g>
<!-- Node15&#45;&gt;Node17 -->
<g id="edge25" class="edge"><title>Node15&#45;&gt;Node17</title>
<path fill="none" stroke="midnightblue" d="M1075,-336.368C1075,-318.617 1075,-277.666 1075,-253.597"/>
<polygon fill="midnightblue" stroke="midnightblue" points="1078.5,-253.591 1075,-243.591 1071.5,-253.591 1078.5,-253.591"/>
</g>
<!-- Node36 -->
<g id="node36" class="node"><title>Node36</title>
<g id="a_node36"><a xlink:href="Log_8hpp.html" target="_top" xlink:title="pdal/Log.hpp">
<polygon fill="white" stroke="black" points="802,-280.5 802,-299.5 874,-299.5 874,-280.5 802,-280.5"/>
<text text-anchor="middle" x="838" y="-287.5" font-family="Helvetica,sans-Serif" font-size="10.00">pdal/Log.hpp</text>
</a>
</g>
</g>
<!-- Node15&#45;&gt;Node36 -->
<g id="edge65" class="edge"><title>Node15&#45;&gt;Node36</title>
<path fill="none" stroke="midnightblue" d="M1037.45,-336.444C995.913,-326.98 928.965,-311.726 884.237,-301.535"/>
<polygon fill="midnightblue" stroke="midnightblue" points="884.74,-298.06 874.212,-299.251 883.184,-304.885 884.74,-298.06"/>
</g>
<!-- Node40 -->
<g id="node40" class="node"><title>Node40</title>
<g id="a_node40"><a xlink:href="SpatialReference_8hpp.html" target="_top" xlink:title="pdal/SpatialReference.hpp">
<polygon fill="white" stroke="black" points="328.5,-280.5 328.5,-299.5 459.5,-299.5 459.5,-280.5 328.5,-280.5"/>
<text text-anchor="middle" x="394" y="-287.5" font-family="Helvetica,sans-Serif" font-size="10.00">pdal/SpatialReference.hpp</text>
</a>
</g>
</g>
<!-- Node15&#45;&gt;Node40 -->
<g id="edge76" class="edge"><title>Node15&#45;&gt;Node40</title>
<path fill="none" stroke="midnightblue" d="M1033.93,-341.744C922.587,-332.914 613.655,-308.418 469.674,-297.001"/>
<polygon fill="midnightblue" stroke="midnightblue" points="469.843,-293.503 459.597,-296.202 469.289,-300.481 469.843,-293.503"/>
</g>
<!-- Node17&#45;&gt;Node10 -->
<g id="edge27" class="edge"><title>Node17&#45;&gt;Node10</title>
<path fill="none" stroke="midnightblue" d="M1091.46,-224.348C1105.59,-216.326 1125.86,-203.338 1140,-188 1169.22,-156.308 1191.59,-110.342 1202.55,-85.168"/>
<polygon fill="midnightblue" stroke="midnightblue" points="1205.86,-86.3275 1206.54,-75.7541 1199.41,-83.5989 1205.86,-86.3275"/>
</g>
<!-- Node17&#45;&gt;Node16 -->
<g id="edge26" class="edge"><title>Node17&#45;&gt;Node16</title>
<path fill="none" stroke="midnightblue" d="M1087.07,-224.405C1097.64,-216.237 1112.57,-202.999 1121,-188 1139.51,-155.057 1145.8,-110.514 1147.92,-85.6904"/>
<polygon fill="midnightblue" stroke="midnightblue" points="1151.43,-85.7289 1148.65,-75.5046 1144.45,-85.2292 1151.43,-85.7289"/>
</g>
<!-- Node18 -->
<g id="node18" class="node"><title>Node18</title>
<g id="a_node18"><a xlink:href="DimUtil_8hpp.html" target="_top" xlink:title="pdal/DimUtil.hpp">
<polygon fill="white" stroke="black" points="1023.5,-168.5 1023.5,-187.5 1112.5,-187.5 1112.5,-168.5 1023.5,-168.5"/>
<text text-anchor="middle" x="1068" y="-175.5" font-family="Helvetica,sans-Serif" font-size="10.00">pdal/DimUtil.hpp</text>
</a>
</g>
</g>
<!-- Node17&#45;&gt;Node18 -->
<g id="edge28" class="edge"><title>Node17&#45;&gt;Node18</title>
<path fill="none" stroke="midnightblue" d="M1073.84,-224.083C1072.92,-216.927 1071.58,-206.635 1070.42,-197.691"/>
<polygon fill="midnightblue" stroke="midnightblue" points="1073.89,-197.218 1069.13,-187.751 1066.95,-198.118 1073.89,-197.218"/>
</g>
<!-- Node19 -->
<g id="node19" class="node"><title>Node19</title>
<g id="a_node19"><a xlink:href="Utils_8hpp.html" target="_top" xlink:title="pdal/util/Utils.hpp">
<polygon fill="white" stroke="black" points="837,-112.5 837,-131.5 929,-131.5 929,-112.5 837,-112.5"/>
<text text-anchor="middle" x="883" y="-119.5" font-family="Helvetica,sans-Serif" font-size="10.00">pdal/util/Utils.hpp</text>
</a>
</g>
</g>
<!-- Node17&#45;&gt;Node19 -->
<g id="edge64" class="edge"><title>Node17&#45;&gt;Node19</title>
<path fill="none" stroke="midnightblue" d="M1059.93,-224.368C1026.71,-205.332 946.91,-159.615 906.826,-136.65"/>
<polygon fill="midnightblue" stroke="midnightblue" points="908.413,-133.526 897.996,-131.591 904.933,-139.599 908.413,-133.526"/>
</g>
<!-- Node34 -->
<g id="node34" class="node"><title>Node34</title>
<g id="a_node34"><a xlink:href="pdal__types_8hpp.html" target="_top" xlink:title="pdal/pdal_types.hpp">
<polygon fill="white" stroke="black" points="786,-168.5 786,-187.5 890,-187.5 890,-168.5 786,-168.5"/>
<text text-anchor="middle" x="838" y="-175.5" font-family="Helvetica,sans-Serif" font-size="10.00">pdal/pdal_types.hpp</text>
</a>
</g>
</g>
<!-- Node17&#45;&gt;Node34 -->
<g id="edge55" class="edge"><title>Node17&#45;&gt;Node34</title>
<path fill="none" stroke="midnightblue" d="M1037.45,-224.444C996.189,-215.043 929.856,-199.929 885.134,-189.739"/>
<polygon fill="midnightblue" stroke="midnightblue" points="885.905,-186.326 875.378,-187.516 884.35,-193.151 885.905,-186.326"/>
</g>
<!-- Node18&#45;&gt;Node10 -->
<g id="edge30" class="edge"><title>Node18&#45;&gt;Node10</title>
<path fill="none" stroke="midnightblue" d="M1079.14,-168.368C1103.3,-149.653 1160.75,-105.151 1190.85,-81.8324"/>
<polygon fill="midnightblue" stroke="midnightblue" points="1193.15,-84.4824 1198.91,-75.5914 1188.86,-78.9485 1193.15,-84.4824"/>
</g>
<!-- Node18&#45;&gt;Node16 -->
<g id="edge29" class="edge"><title>Node18&#45;&gt;Node16</title>
<path fill="none" stroke="midnightblue" d="M1074.36,-168.368C1087.78,-150.135 1119.23,-107.426 1136.72,-83.6752"/>
<polygon fill="midnightblue" stroke="midnightblue" points="1139.56,-85.7192 1142.67,-75.5914 1133.93,-81.5685 1139.56,-85.7192"/>
</g>
<!-- Node18&#45;&gt;Node19 -->
<g id="edge31" class="edge"><title>Node18&#45;&gt;Node19</title>
<path fill="none" stroke="midnightblue" d="M1038.69,-168.444C1007.16,-159.241 956.869,-144.562 922.014,-134.388"/>
<polygon fill="midnightblue" stroke="midnightblue" points="922.757,-130.959 912.177,-131.516 920.795,-137.678 922.757,-130.959"/>
</g>
<!-- Node19&#45;&gt;Node2 -->
<g id="edge50" class="edge"><title>Node19&#45;&gt;Node2</title>
<path fill="none" stroke="midnightblue" d="M836.895,-113.3C833.551,-112.831 830.226,-112.391 827,-112 632.656,-88.4504 576.259,-129.694 388,-76 369.267,-70.6572 367.539,-61.9793 349,-56 250.266,-24.1563 217.859,-39.9636 112.18,-20.0322"/>
<polygon fill="midnightblue" stroke="midnightblue" points="112.55,-16.5383 102.065,-18.0585 111.209,-23.4088 112.55,-16.5383"/>
</g>
<!-- Node19&#45;&gt;Node6 -->
<g id="edge33" class="edge"><title>Node19&#45;&gt;Node6</title>
<path fill="none" stroke="midnightblue" d="M890.926,-112.083C897.846,-104.298 908.065,-92.8015 916.452,-83.3665"/>
<polygon fill="midnightblue" stroke="midnightblue" points="919.194,-85.5505 923.221,-75.7511 913.962,-80.8999 919.194,-85.5505"/>
</g>
<!-- Node19&#45;&gt;Node7 -->
<g id="edge38" class="edge"><title>Node19&#45;&gt;Node7</title>
<path fill="none" stroke="midnightblue" d="M929.177,-120.533C1030.37,-118.884 1279.28,-111.414 1495.9,-75.8693"/>
<polygon fill="midnightblue" stroke="midnightblue" points="1496.57,-79.3052 1505.86,-74.2105 1495.42,-72.4003 1496.57,-79.3052"/>
</g>
<!-- Node19&#45;&gt;Node8 -->
<g id="edge43" class="edge"><title>Node19&#45;&gt;Node8</title>
<path fill="none" stroke="midnightblue" d="M929.067,-117.091C995.641,-111.03 1122.74,-97.9155 1239.86,-76.01"/>
<polygon fill="midnightblue" stroke="midnightblue" points="1240.53,-79.4436 1249.71,-74.1417 1239.23,-72.5662 1240.53,-79.4436"/>
</g>
<!-- Node19&#45;&gt;Node10 -->
<g id="edge49" class="edge"><title>Node19&#45;&gt;Node10</title>
<path fill="none" stroke="midnightblue" d="M929.054,-115.753C985.38,-108.944 1083.76,-95.7839 1177.75,-75.7947"/>
<polygon fill="midnightblue" stroke="midnightblue" points="1178.67,-79.1763 1187.71,-73.6468 1177.19,-72.3335 1178.67,-79.1763"/>
</g>
<!-- Node19&#45;&gt;Node11 -->
<g id="edge37" class="edge"><title>Node19&#45;&gt;Node11</title>
<path fill="none" stroke="midnightblue" d="M929.296,-118.708C1006.44,-114.328 1166.21,-102.878 1309.82,-75.9306"/>
<polygon fill="midnightblue" stroke="midnightblue" points="1310.52,-79.3595 1319.69,-74.0485 1309.21,-72.4833 1310.52,-79.3595"/>
</g>
<!-- Node19&#45;&gt;Node13 -->
<g id="edge54" class="edge"><title>Node19&#45;&gt;Node13</title>
<path fill="none" stroke="midnightblue" d="M929.214,-117.63C1014.78,-111.204 1203.9,-96.1302 1373.66,-76.1009"/>
<polygon fill="midnightblue" stroke="midnightblue" points="1374.26,-79.5539 1383.78,-74.8981 1373.44,-72.6028 1374.26,-79.5539"/>
</g>
<!-- Node19&#45;&gt;Node16 -->
<g id="edge46" class="edge"><title>Node19&#45;&gt;Node16</title>
<path fill="none" stroke="midnightblue" d="M929.43,-113.601C975.096,-106 1046.95,-93.1764 1118.35,-75.9397"/>
<polygon fill="midnightblue" stroke="midnightblue" points="1119.54,-79.253 1128.42,-73.4784 1117.87,-72.4532 1119.54,-79.253"/>
</g>
<!-- Node20 -->
<g id="node20" class="node"><title>Node20</title>
<polygon fill="white" stroke="#bfbfbf" points="1054,-56.5 1054,-75.5 1110,-75.5 1110,-56.5 1054,-56.5"/>
<text text-anchor="middle" x="1082" y="-63.5" font-family="Helvetica,sans-Serif" font-size="10.00">algorithm</text>
</g>
<!-- Node19&#45;&gt;Node20 -->
<g id="edge32" class="edge"><title>Node19&#45;&gt;Node20</title>
<path fill="none" stroke="midnightblue" d="M914.532,-112.444C949.594,-102.929 1006.22,-87.5622 1043.78,-77.3713"/>
<polygon fill="midnightblue" stroke="midnightblue" points="1045.1,-80.6401 1053.83,-74.6433 1043.27,-73.8844 1045.1,-80.6401"/>
</g>
<!-- Node21 -->
<g id="node21" class="node"><title>Node21</title>
<polygon fill="white" stroke="#bfbfbf" points="397,-56.5 397,-75.5 443,-75.5 443,-56.5 397,-56.5"/>
<text text-anchor="middle" x="420" y="-63.5" font-family="Helvetica,sans-Serif" font-size="10.00">cctype</text>
</g>
<!-- Node19&#45;&gt;Node21 -->
<g id="edge34" class="edge"><title>Node19&#45;&gt;Node21</title>
<path fill="none" stroke="midnightblue" d="M836.889,-113.351C833.546,-112.87 830.223,-112.413 827,-112 664.17,-91.1212 618.357,-106.174 453.312,-75.9351"/>
<polygon fill="midnightblue" stroke="midnightblue" points="453.776,-72.4615 443.305,-74.0734 452.496,-79.3434 453.776,-72.4615"/>
</g>
<!-- Node22 -->
<g id="node22" class="node"><title>Node22</title>
<polygon fill="white" stroke="#bfbfbf" points="461,-56.5 461,-75.5 505,-75.5 505,-56.5 461,-56.5"/>
<text text-anchor="middle" x="483" y="-63.5" font-family="Helvetica,sans-Serif" font-size="10.00">cmath</text>
</g>
<!-- Node19&#45;&gt;Node22 -->
<g id="edge35" class="edge"><title>Node19&#45;&gt;Node22</title>
<path fill="none" stroke="midnightblue" d="M836.88,-113.42C833.539,-112.922 830.219,-112.444 827,-112 691.534,-93.3335 653.068,-103.131 515.331,-75.9628"/>
<polygon fill="midnightblue" stroke="midnightblue" points="515.733,-72.4738 505.24,-73.9419 514.358,-79.3375 515.733,-72.4738"/>
</g>
<!-- Node23 -->
<g id="node23" class="node"><title>Node23</title>
<polygon fill="white" stroke="#bfbfbf" points="523,-56.5 523,-75.5 569,-75.5 569,-56.5 523,-56.5"/>
<text text-anchor="middle" x="546" y="-63.5" font-family="Helvetica,sans-Serif" font-size="10.00">cstdint</text>
</g>
<!-- Node19&#45;&gt;Node23 -->
<g id="edge36" class="edge"><title>Node19&#45;&gt;Node23</title>
<path fill="none" stroke="midnightblue" d="M836.864,-113.526C833.527,-113.004 830.212,-112.49 827,-112 719.593,-95.6058 689.099,-98.9733 579.151,-76.0173"/>
<polygon fill="midnightblue" stroke="midnightblue" points="579.839,-72.5854 569.331,-73.9418 578.391,-79.4341 579.839,-72.5854"/>
</g>
<!-- Node24 -->
<g id="node24" class="node"><title>Node24</title>
<polygon fill="white" stroke="#bfbfbf" points="587,-56.5 587,-75.5 637,-75.5 637,-56.5 587,-56.5"/>
<text text-anchor="middle" x="612" y="-63.5" font-family="Helvetica,sans-Serif" font-size="10.00">iomanip</text>
</g>
<!-- Node19&#45;&gt;Node24 -->
<g id="edge39" class="edge"><title>Node19&#45;&gt;Node24</title>
<path fill="none" stroke="midnightblue" d="M836.922,-113.252C791.171,-105.335 718.824,-92.2175 647.288,-76.1684"/>
<polygon fill="midnightblue" stroke="midnightblue" points="647.728,-72.6795 637.202,-73.8845 646.182,-79.5067 647.728,-72.6795"/>
</g>
<!-- Node25 -->
<g id="node25" class="node"><title>Node25</title>
<polygon fill="white" stroke="#bfbfbf" points="291.5,-56.5 291.5,-75.5 340.5,-75.5 340.5,-56.5 291.5,-56.5"/>
<text text-anchor="middle" x="316" y="-63.5" font-family="Helvetica,sans-Serif" font-size="10.00">istream</text>
</g>
<!-- Node19&#45;&gt;Node25 -->
<g id="edge40" class="edge"><title>Node19&#45;&gt;Node25</title>
<path fill="none" stroke="midnightblue" d="M836.898,-113.279C833.553,-112.815 830.227,-112.382 827,-112 618.069,-87.2867 562.978,-107.744 355,-76 353.54,-75.7772 352.054,-75.5294 350.556,-75.2622"/>
<polygon fill="midnightblue" stroke="midnightblue" points="351.142,-71.8101 340.649,-73.2788 349.768,-78.6739 351.142,-71.8101"/>
</g>
<!-- Node26 -->
<g id="node26" class="node"><title>Node26</title>
<polygon fill="white" stroke="#bfbfbf" points="655,-56.5 655,-75.5 695,-75.5 695,-56.5 655,-56.5"/>
<text text-anchor="middle" x="675" y="-63.5" font-family="Helvetica,sans-Serif" font-size="10.00">limits</text>
</g>
<!-- Node19&#45;&gt;Node26 -->
<g id="edge41" class="edge"><title>Node19&#45;&gt;Node26</title>
<path fill="none" stroke="midnightblue" d="M846.506,-112.443C812.279,-104.282 759.463,-91.3382 705.054,-76.1881"/>
<polygon fill="midnightblue" stroke="midnightblue" points="705.813,-72.7661 695.24,-73.4358 703.923,-79.5061 705.813,-72.7661"/>
</g>
<!-- Node27 -->
<g id="node27" class="node"><title>Node27</title>
<polygon fill="white" stroke="#bfbfbf" points="713.5,-56.5 713.5,-75.5 748.5,-75.5 748.5,-56.5 713.5,-56.5"/>
<text text-anchor="middle" x="731" y="-63.5" font-family="Helvetica,sans-Serif" font-size="10.00">map</text>
</g>
<!-- Node19&#45;&gt;Node27 -->
<g id="edge42" class="edge"><title>Node19&#45;&gt;Node27</title>
<path fill="none" stroke="midnightblue" d="M858.915,-112.444C831.628,-102.749 787.238,-86.9792 758.582,-76.799"/>
<polygon fill="midnightblue" stroke="midnightblue" points="759.393,-73.3726 748.798,-73.323 757.049,-79.9687 759.393,-73.3726"/>
</g>
<!-- Node28 -->
<g id="node28" class="node"><title>Node28</title>
<polygon fill="white" stroke="#bfbfbf" points="767,-56.5 767,-75.5 819,-75.5 819,-56.5 767,-56.5"/>
<text text-anchor="middle" x="793" y="-63.5" font-family="Helvetica,sans-Serif" font-size="10.00">sstream</text>
</g>
<!-- Node19&#45;&gt;Node28 -->
<g id="edge44" class="edge"><title>Node19&#45;&gt;Node28</title>
<path fill="none" stroke="midnightblue" d="M868.54,-112.324C854.5,-103.9 832.952,-90.9709 816.457,-81.0741"/>
<polygon fill="midnightblue" stroke="midnightblue" points="817.8,-77.7983 807.424,-75.6545 814.198,-83.8007 817.8,-77.7983"/>
</g>
<!-- Node29 -->
<g id="node29" class="node"><title>Node29</title>
<polygon fill="white" stroke="#bfbfbf" points="214.5,-56.5 214.5,-75.5 273.5,-75.5 273.5,-56.5 214.5,-56.5"/>
<text text-anchor="middle" x="244" y="-63.5" font-family="Helvetica,sans-Serif" font-size="10.00">stdexcept</text>
</g>
<!-- Node19&#45;&gt;Node29 -->
<g id="edge45" class="edge"><title>Node19&#45;&gt;Node29</title>
<path fill="none" stroke="midnightblue" d="M836.902,-113.242C833.556,-112.786 830.229,-112.365 827,-112 589.086,-85.0838 523.827,-111.359 283.86,-76.0522"/>
<polygon fill="midnightblue" stroke="midnightblue" points="284.186,-72.5623 273.779,-74.5482 283.153,-79.4856 284.186,-72.5623"/>
</g>
<!-- Node30 -->
<g id="node30" class="node"><title>Node30</title>
<polygon fill="white" stroke="#bfbfbf" points="837.5,-56.5 837.5,-75.5 888.5,-75.5 888.5,-56.5 837.5,-56.5"/>
<text text-anchor="middle" x="863" y="-63.5" font-family="Helvetica,sans-Serif" font-size="10.00">typeinfo</text>
</g>
<!-- Node19&#45;&gt;Node30 -->
<g id="edge47" class="edge"><title>Node19&#45;&gt;Node30</title>
<path fill="none" stroke="midnightblue" d="M879.697,-112.083C877.018,-104.849 873.151,-94.4087 869.814,-85.3968"/>
<polygon fill="midnightblue" stroke="midnightblue" points="872.996,-83.9129 866.241,-75.7511 866.432,-86.3442 872.996,-83.9129"/>
</g>
<!-- Node31 -->
<g id="node31" class="node"><title>Node31</title>
<polygon fill="white" stroke="#bfbfbf" points="974,-56.5 974,-75.5 1036,-75.5 1036,-56.5 974,-56.5"/>
<text text-anchor="middle" x="1005" y="-63.5" font-family="Helvetica,sans-Serif" font-size="10.00">type_traits</text>
</g>
<!-- Node19&#45;&gt;Node31 -->
<g id="edge48" class="edge"><title>Node19&#45;&gt;Node31</title>
<path fill="none" stroke="midnightblue" d="M902.331,-112.444C922.32,-103.596 953.743,-89.6875 976.564,-79.5865"/>
<polygon fill="midnightblue" stroke="midnightblue" points="978.032,-82.7645 985.759,-75.5164 975.198,-76.3635 978.032,-82.7645"/>
</g>
<!-- Node32 -->
<g id="node32" class="node"><title>Node32</title>
<g id="a_node32"><a xlink:href="NullOStream_8hpp.html" target="_top" xlink:title="NullOStream.hpp">
<polygon fill="white" stroke="black" points="104,-56.5 104,-75.5 196,-75.5 196,-56.5 104,-56.5"/>
<text text-anchor="middle" x="150" y="-63.5" font-family="Helvetica,sans-Serif" font-size="10.00">NullOStream.hpp</text>
</a>
</g>
</g>
<!-- Node19&#45;&gt;Node32 -->
<g id="edge51" class="edge"><title>Node19&#45;&gt;Node32</title>
<path fill="none" stroke="midnightblue" d="M836.905,-113.212C833.558,-112.763 830.23,-112.352 827,-112 555.084,-82.3581 482.009,-105.812 206.474,-76.0414"/>
<polygon fill="midnightblue" stroke="midnightblue" points="206.487,-72.522 196.165,-74.9131 205.725,-79.4804 206.487,-72.522"/>
</g>
<!-- Node32&#45;&gt;Node2 -->
<g id="edge52" class="edge"><title>Node32&#45;&gt;Node2</title>
<path fill="none" stroke="midnightblue" d="M137.95,-56.324C126.537,-48.1066 109.169,-35.6017 95.5651,-25.8069"/>
<polygon fill="midnightblue" stroke="midnightblue" points="97.4297,-22.8366 87.2693,-19.8339 93.3396,-28.5174 97.4297,-22.8366"/>
</g>
<!-- Node33 -->
<g id="node33" class="node"><title>Node33</title>
<polygon fill="white" stroke="#bfbfbf" points="120,-0.5 120,-19.5 180,-19.5 180,-0.5 120,-0.5"/>
<text text-anchor="middle" x="150" y="-7.5" font-family="Helvetica,sans-Serif" font-size="10.00">streambuf</text>
</g>
<!-- Node32&#45;&gt;Node33 -->
<g id="edge53" class="edge"><title>Node32&#45;&gt;Node33</title>
<path fill="none" stroke="midnightblue" d="M150,-56.083C150,-49.0059 150,-38.8611 150,-29.9865"/>
<polygon fill="midnightblue" stroke="midnightblue" points="153.5,-29.751 150,-19.7511 146.5,-29.7511 153.5,-29.751"/>
</g>
<!-- Node34&#45;&gt;Node2 -->
<g id="edge62" class="edge"><title>Node34&#45;&gt;Node2</title>
<path fill="none" stroke="midnightblue" d="M785.721,-173.211C625.189,-161.126 147.049,-121.6 95,-76 81.8371,-64.468 77.212,-44.5005 75.6506,-29.7311"/>
<polygon fill="midnightblue" stroke="midnightblue" points="79.1372,-29.4139 74.9632,-19.676 72.1535,-29.8914 79.1372,-29.4139"/>
</g>
<!-- Node34&#45;&gt;Node5 -->
<g id="edge56" class="edge"><title>Node34&#45;&gt;Node5</title>
<path fill="none" stroke="midnightblue" d="M890.023,-174.332C1060.07,-165.572 1590.65,-137.913 1627,-132 1647.26,-128.704 1770.27,-94.1602 1831.48,-76.8185"/>
<polygon fill="midnightblue" stroke="midnightblue" points="1832.78,-80.0868 1841.44,-73.9909 1830.87,-73.3524 1832.78,-80.0868"/>
</g>
<!-- Node34&#45;&gt;Node10 -->
<g id="edge61" class="edge"><title>Node34&#45;&gt;Node10</title>
<path fill="none" stroke="midnightblue" d="M866.881,-168.46C935.218,-148.253 1106.45,-97.621 1177.9,-76.4929"/>
<polygon fill="midnightblue" stroke="midnightblue" points="1179.09,-79.7889 1187.69,-73.5968 1177.11,-73.0762 1179.09,-79.7889"/>
</g>
<!-- Node34&#45;&gt;Node16 -->
<g id="edge60" class="edge"><title>Node34&#45;&gt;Node16</title>
<path fill="none" stroke="midnightblue" d="M857.203,-168.444C877.359,-159.444 909.955,-144.832 938,-132 957.166,-123.231 961.167,-119.134 981,-112 1037.73,-91.5946 1056.17,-92.9167 1118.43,-76.0434"/>
<polygon fill="midnightblue" stroke="midnightblue" points="1119.67,-79.3326 1128.37,-73.2956 1117.8,-72.5854 1119.67,-79.3326"/>
</g>
<!-- Node34&#45;&gt;Node19 -->
<g id="edge63" class="edge"><title>Node34&#45;&gt;Node19</title>
<path fill="none" stroke="midnightblue" d="M845.431,-168.083C851.853,-160.377 861.306,-149.033 869.122,-139.653"/>
<polygon fill="midnightblue" stroke="midnightblue" points="871.994,-141.674 875.707,-131.751 866.617,-137.193 871.994,-141.674"/>
</g>
<!-- Node34&#45;&gt;Node25 -->
<g id="edge58" class="edge"><title>Node34&#45;&gt;Node25</title>
<path fill="none" stroke="midnightblue" d="M795.619,-168.444C711.499,-151.395 517.526,-111.742 355,-76 353.558,-75.6828 352.086,-75.3563 350.6,-75.0242"/>
<polygon fill="midnightblue" stroke="midnightblue" points="351.266,-71.5865 340.74,-72.7903 349.72,-78.4134 351.266,-71.5865"/>
</g>
<!-- Node34&#45;&gt;Node29 -->
<g id="edge59" class="edge"><title>Node34&#45;&gt;Node29</title>
<path fill="none" stroke="midnightblue" d="M785.828,-170.902C723.342,-163.281 615.619,-149.134 524,-132 418.663,-112.301 391.085,-101.792 283.803,-76.4271"/>
<polygon fill="midnightblue" stroke="midnightblue" points="284.403,-72.9727 273.867,-74.0892 282.8,-79.7866 284.403,-72.9727"/>
</g>
<!-- Node35 -->
<g id="node35" class="node"><title>Node35</title>
<polygon fill="white" stroke="#bfbfbf" points="773.5,-112.5 773.5,-131.5 818.5,-131.5 818.5,-112.5 773.5,-112.5"/>
<text text-anchor="middle" x="796" y="-119.5" font-family="Helvetica,sans-Serif" font-size="10.00">cstdlib</text>
</g>
<!-- Node34&#45;&gt;Node35 -->
<g id="edge57" class="edge"><title>Node34&#45;&gt;Node35</title>
<path fill="none" stroke="midnightblue" d="M831.065,-168.083C825.071,-160.377 816.248,-149.033 808.952,-139.653"/>
<polygon fill="midnightblue" stroke="midnightblue" points="811.709,-137.496 802.806,-131.751 806.183,-141.793 811.709,-137.496"/>
</g>
<!-- Node36&#45;&gt;Node6 -->
<g id="edge66" class="edge"><title>Node36&#45;&gt;Node6</title>
<path fill="none" stroke="midnightblue" d="M828.786,-280.463C800.733,-253.451 720.852,-168.313 764,-112 764.517,-111.325 847.893,-89.0811 896.625,-76.1253"/>
<polygon fill="midnightblue" stroke="midnightblue" points="897.69,-79.4638 906.456,-73.5128 895.892,-72.6986 897.69,-79.4638"/>
</g>
<!-- Node36&#45;&gt;Node8 -->
<g id="edge67" class="edge"><title>Node36&#45;&gt;Node8</title>
<path fill="none" stroke="midnightblue" d="M874.117,-286.816C943.227,-282.108 1091.21,-269.322 1135,-244 1201.86,-205.338 1249.19,-121.673 1267.55,-84.9248"/>
<polygon fill="midnightblue" stroke="midnightblue" points="1270.9,-86.026 1272.13,-75.5023 1264.61,-82.9647 1270.9,-86.026"/>
</g>
<!-- Node36&#45;&gt;Node9 -->
<g id="edge68" class="edge"><title>Node36&#45;&gt;Node9</title>
<path fill="none" stroke="midnightblue" d="M874.26,-285.17C934.506,-278.54 1058.9,-263.72 1163,-244 1371.44,-204.514 1424.04,-193.743 1627,-132 1679.05,-116.167 1738.09,-93.3274 1772.85,-79.3622"/>
<polygon fill="midnightblue" stroke="midnightblue" points="1774.45,-82.4932 1782.41,-75.5013 1771.82,-76.0031 1774.45,-82.4932"/>
</g>
<!-- Node36&#45;&gt;Node32 -->
<g id="edge75" class="edge"><title>Node36&#45;&gt;Node32</title>
<path fill="none" stroke="midnightblue" d="M811.451,-280.433C704.923,-246.06 308.37,-118.102 186.117,-78.6541"/>
<polygon fill="midnightblue" stroke="midnightblue" points="187.061,-75.2811 176.47,-75.5411 184.912,-81.9429 187.061,-75.2811"/>
</g>
<!-- Node37 -->
<g id="node37" class="node"><title>Node37</title>
<g id="a_node37"><a xlink:href="pdal__internal_8hpp.html" target="_top" xlink:title="pdal/pdal_internal.hpp">
<polygon fill="white" stroke="black" points="100.5,-224.5 100.5,-243.5 211.5,-243.5 211.5,-224.5 100.5,-224.5"/>
<text text-anchor="middle" x="156" y="-231.5" font-family="Helvetica,sans-Serif" font-size="10.00">pdal/pdal_internal.hpp</text>
</a>
</g>
</g>
<!-- Node36&#45;&gt;Node37 -->
<g id="edge69" class="edge"><title>Node36&#45;&gt;Node37</title>
<path fill="none" stroke="midnightblue" d="M801.726,-287.025C706.94,-281.713 444.091,-266.022 226,-244 224.697,-243.868 223.381,-243.732 222.055,-243.592"/>
<polygon fill="midnightblue" stroke="midnightblue" points="222.078,-240.073 211.753,-242.446 221.305,-247.03 222.078,-240.073"/>
</g>
<!-- Node37&#45;&gt;Node2 -->
<g id="edge70" class="edge"><title>Node37&#45;&gt;Node2</title>
<path fill="none" stroke="midnightblue" d="M135.478,-224.499C120.248,-217.11 100.247,-204.92 89,-188 56.3447,-138.874 64.6877,-64.2869 70.982,-29.7559"/>
<polygon fill="midnightblue" stroke="midnightblue" points="74.4689,-30.1648 72.9759,-19.6757 67.6019,-28.8065 74.4689,-30.1648"/>
</g>
<!-- Node37&#45;&gt;Node34 -->
<g id="edge74" class="edge"><title>Node37&#45;&gt;Node34</title>
<path fill="none" stroke="midnightblue" d="M211.522,-228.604C337.23,-218.65 642.94,-194.445 775.249,-183.969"/>
<polygon fill="midnightblue" stroke="midnightblue" points="775.917,-187.427 785.61,-183.148 775.365,-180.449 775.917,-187.427"/>
</g>
<!-- Node38 -->
<g id="node38" class="node"><title>Node38</title>
<g id="a_node38"><a xlink:href="pdal__export_8hpp.html" target="_top" xlink:title="pdal/pdal_export.hpp">
<polygon fill="white" stroke="black" points="104.5,-168.5 104.5,-187.5 211.5,-187.5 211.5,-168.5 104.5,-168.5"/>
<text text-anchor="middle" x="158" y="-175.5" font-family="Helvetica,sans-Serif" font-size="10.00">pdal/pdal_export.hpp</text>
</a>
</g>
</g>
<!-- Node37&#45;&gt;Node38 -->
<g id="edge71" class="edge"><title>Node37&#45;&gt;Node38</title>
<path fill="none" stroke="midnightblue" d="M156.33,-224.083C156.592,-217.006 156.968,-206.861 157.297,-197.986"/>
<polygon fill="midnightblue" stroke="midnightblue" points="160.803,-197.874 157.676,-187.751 153.808,-197.615 160.803,-197.874"/>
</g>
<!-- Node39 -->
<g id="node39" class="node"><title>Node39</title>
<g id="a_node39"><a xlink:href="pdal__defines_8h.html" target="_top" xlink:title="pdal/pdal_defines.h">
<polygon fill="white" stroke="black" points="87.5,-112.5 87.5,-131.5 188.5,-131.5 188.5,-112.5 87.5,-112.5"/>
<text text-anchor="middle" x="138" y="-119.5" font-family="Helvetica,sans-Serif" font-size="10.00">pdal/pdal_defines.h</text>
</a>
</g>
</g>
<!-- Node37&#45;&gt;Node39 -->
<g id="edge73" class="edge"><title>Node37&#45;&gt;Node39</title>
<path fill="none" stroke="midnightblue" d="M136.094,-224.41C121.775,-217.04 103.542,-204.916 95,-188 85.8917,-169.962 102.044,-150.849 117.085,-138.054"/>
<polygon fill="midnightblue" stroke="midnightblue" points="119.504,-140.602 125.159,-131.642 115.151,-135.12 119.504,-140.602"/>
</g>
<!-- Node38&#45;&gt;Node39 -->
<g id="edge72" class="edge"><title>Node38&#45;&gt;Node39</title>
<path fill="none" stroke="midnightblue" d="M154.697,-168.083C152.018,-160.849 148.151,-150.409 144.814,-141.397"/>
<polygon fill="midnightblue" stroke="midnightblue" points="147.996,-139.913 141.241,-131.751 141.432,-142.344 147.996,-139.913"/>
</g>
<!-- Node40&#45;&gt;Node37 -->
<g id="edge77" class="edge"><title>Node40&#45;&gt;Node37</title>
<path fill="none" stroke="midnightblue" d="M356.288,-280.444C314.857,-271.043 248.243,-255.929 203.333,-245.739"/>
<polygon fill="midnightblue" stroke="midnightblue" points="204.062,-242.316 193.535,-243.516 202.513,-249.142 204.062,-242.316"/>
</g>
</g>
</svg>
