<?xml version="1.0" encoding="UTF-8" standalone="no"?>
<!DOCTYPE svg PUBLIC "-//W3C//DTD SVG 1.1//EN"
 "http://www.w3.org/Graphics/SVG/1.1/DTD/svg11.dtd">
<!-- Generated by graphviz version 2.38.0 (20140413.2041)
 -->
<!-- Title: TEST Pages: 1 -->
<svg width="1043pt" height="1064pt"
 viewBox="0.00 0.00 1043.00 1064.00" xmlns="http://www.w3.org/2000/svg" xmlns:xlink="http://www.w3.org/1999/xlink">
<g id="graph0" class="graph" transform="scale(1 1) rotate(0) translate(4 1060)">
<title>TEST</title>
<polygon fill="white" stroke="none" points="-4,4 -4,-1060 1039,-1060 1039,4 -4,4"/>
<!-- Node1 -->
<g id="node1" class="node"><title>Node1</title>
<polygon fill="#bfbfbf" stroke="black" points="0,-323 0,-342 42,-342 42,-323 0,-323"/>
<text text-anchor="middle" x="21" y="-330" font-family="Helvetica,sans-Serif" font-size="10.00">TEST</text>
</g>
<!-- Node2 -->
<g id="node2" class="node"><title>Node2</title>
<g id="a_node2"><a xlink:href="classpdal_1_1Options.html#a30826da39f9c4716412141eeeb719032" target="_top" xlink:title="pdal::Options::add">
<polygon fill="white" stroke="black" points="461.5,-851 461.5,-870 557.5,-870 557.5,-851 461.5,-851"/>
<text text-anchor="middle" x="509.5" y="-858" font-family="Helvetica,sans-Serif" font-size="10.00">pdal::Options::add</text>
</a>
</g>
</g>
<!-- Node1&#45;&gt;Node2 -->
<g id="edge1" class="edge"><title>Node1&#45;&gt;Node2</title>
<path fill="none" stroke="midnightblue" d="M22.4606,-342.223C25.7109,-409.179 45.9971,-800.505 78,-841.5 167.849,-956.594 257.405,-927.954 401,-901.5 429.108,-896.322 459.378,-884.124 480.613,-874.37"/>
<polygon fill="midnightblue" stroke="midnightblue" points="482.137,-877.522 489.693,-870.095 479.155,-871.188 482.137,-877.522"/>
</g>
<!-- Node8 -->
<g id="node8" class="node"><title>Node8</title>
<g id="a_node8"><a xlink:href="namespacepdal_1_1Utils.html#aab74b31905c5d41eaca70a73675bf407" target="_top" xlink:title="pdal::Utils::base64\l_decode">
<polygon fill="white" stroke="black" points="271.5,-1025.5 271.5,-1055.5 369.5,-1055.5 369.5,-1025.5 271.5,-1025.5"/>
<text text-anchor="start" x="279.5" y="-1043.5" font-family="Helvetica,sans-Serif" font-size="10.00">pdal::Utils::base64</text>
<text text-anchor="middle" x="320.5" y="-1032.5" font-family="Helvetica,sans-Serif" font-size="10.00">_decode</text>
</a>
</g>
</g>
<!-- Node1&#45;&gt;Node8 -->
<g id="edge7" class="edge"><title>Node1&#45;&gt;Node8</title>
<path fill="none" stroke="midnightblue" d="M22.093,-342.235C22.9381,-421.181 30.3978,-954.906 78,-1005.5 124.05,-1054.44 205.756,-1056.17 261.248,-1050.4"/>
<polygon fill="midnightblue" stroke="midnightblue" points="261.756,-1053.87 271.291,-1049.25 260.956,-1046.91 261.756,-1053.87"/>
</g>
<!-- Node10 -->
<g id="node10" class="node"><title>Node10</title>
<g id="a_node10"><a xlink:href="classSupport.html#a9bbdf6f202f4f2e45e7a53007dd0a238" target="_top" xlink:title="Support::datapath">
<polygon fill="white" stroke="black" points="94,-285 94,-304 188,-304 188,-285 94,-285"/>
<text text-anchor="middle" x="141" y="-292" font-family="Helvetica,sans-Serif" font-size="10.00">Support::datapath</text>
</a>
</g>
</g>
<!-- Node1&#45;&gt;Node10 -->
<g id="edge9" class="edge"><title>Node1&#45;&gt;Node10</title>
<path fill="none" stroke="midnightblue" d="M42.1698,-325.495C52.8034,-321.843 66.0804,-317.348 78,-313.5 84.5504,-311.386 91.5084,-309.197 98.3057,-307.091"/>
<polygon fill="midnightblue" stroke="midnightblue" points="99.5551,-310.369 108.083,-304.082 97.4962,-303.678 99.5551,-310.369"/>
</g>
<!-- Node12 -->
<g id="node12" class="node"><title>Node12</title>
<g id="a_node12"><a xlink:href="namespacepdal_1_1FileUtils.html#a9147ba0dbb2789edbd17feb104b00532" target="_top" xlink:title="pdal::FileUtils::deleteFile">
<polygon fill="white" stroke="black" points="78.5,-247 78.5,-266 203.5,-266 203.5,-247 78.5,-247"/>
<text text-anchor="middle" x="141" y="-254" font-family="Helvetica,sans-Serif" font-size="10.00">pdal::FileUtils::deleteFile</text>
</a>
</g>
</g>
<!-- Node1&#45;&gt;Node12 -->
<g id="edge11" class="edge"><title>Node1&#45;&gt;Node12</title>
<path fill="none" stroke="midnightblue" d="M28.8745,-322.993C38.4885,-310.363 57.1316,-288.174 78,-275.5 81.4204,-273.423 85.0864,-271.556 88.8637,-269.881"/>
<polygon fill="midnightblue" stroke="midnightblue" points="90.3964,-273.039 98.4062,-266.104 87.8199,-266.53 90.3964,-273.039"/>
</g>
<!-- Node14 -->
<g id="node14" class="node"><title>Node14</title>
<g id="a_node14"><a xlink:href="classpdal_1_1Stage.html#a1615c4aa5ec5e48f90d73f0e7a796935" target="_top" xlink:title="pdal::Stage::execute">
<polygon fill="white" stroke="black" points="87.5,-361 87.5,-380 194.5,-380 194.5,-361 87.5,-361"/>
<text text-anchor="middle" x="141" y="-368" font-family="Helvetica,sans-Serif" font-size="10.00">pdal::Stage::execute</text>
</a>
</g>
</g>
<!-- Node1&#45;&gt;Node14 -->
<g id="edge13" class="edge"><title>Node1&#45;&gt;Node14</title>
<path fill="none" stroke="midnightblue" d="M42.1698,-339.505C52.8034,-343.157 66.0804,-347.652 78,-351.5 84.5504,-353.614 91.5084,-355.803 98.3057,-357.909"/>
<polygon fill="midnightblue" stroke="midnightblue" points="97.4962,-361.322 108.083,-360.918 99.5551,-354.631 97.4962,-361.322"/>
</g>
<!-- Node28 -->
<g id="node28" class="node"><title>Node28</title>
<g id="a_node28"><a xlink:href="classpdal_1_1MetadataNode.html#aac068a07b3c9efef69d82b8b2a036ab6" target="_top" xlink:title="pdal::MetadataNode\l::find">
<polygon fill="white" stroke="black" points="89,-179.5 89,-209.5 193,-209.5 193,-179.5 89,-179.5"/>
<text text-anchor="start" x="97" y="-197.5" font-family="Helvetica,sans-Serif" font-size="10.00">pdal::MetadataNode</text>
<text text-anchor="middle" x="141" y="-186.5" font-family="Helvetica,sans-Serif" font-size="10.00">::find</text>
</a>
</g>
</g>
<!-- Node1&#45;&gt;Node28 -->
<g id="edge28" class="edge"><title>Node1&#45;&gt;Node28</title>
<path fill="none" stroke="midnightblue" d="M25.9363,-322.99C33.794,-304.821 52.853,-264.573 78,-237.5 85.7128,-229.196 95.2935,-221.594 104.599,-215.168"/>
<polygon fill="midnightblue" stroke="midnightblue" points="106.594,-218.044 113.006,-209.61 102.734,-212.205 106.594,-218.044"/>
</g>
<!-- Node30 -->
<g id="node30" class="node"><title>Node30</title>
<g id="a_node30"><a xlink:href="classpdal_1_1MetadataNode.html#a437cb95d325cd52e9a9eba4b1c06f513" target="_top" xlink:title="pdal::MetadataNode\l::findChildren">
<polygon fill="white" stroke="black" points="89,-130.5 89,-160.5 193,-160.5 193,-130.5 89,-130.5"/>
<text text-anchor="start" x="97" y="-148.5" font-family="Helvetica,sans-Serif" font-size="10.00">pdal::MetadataNode</text>
<text text-anchor="middle" x="141" y="-137.5" font-family="Helvetica,sans-Serif" font-size="10.00">::findChildren</text>
</a>
</g>
</g>
<!-- Node1&#45;&gt;Node30 -->
<g id="edge31" class="edge"><title>Node1&#45;&gt;Node30</title>
<path fill="none" stroke="midnightblue" d="M22.5542,-322.988C24.6587,-295.456 34.4294,-214.777 78,-169.5 78.9229,-168.541 79.8884,-167.62 80.8909,-166.735"/>
<polygon fill="midnightblue" stroke="midnightblue" points="83.2124,-169.372 89.2049,-160.635 79.0717,-163.728 83.2124,-169.372"/>
</g>
<!-- Node31 -->
<g id="node31" class="node"><title>Node31</title>
<g id="a_node31"><a xlink:href="classpdal_1_1Stage.html#a03070b4d2496f6c0993fb0dfe16cc8e0" target="_top" xlink:title="pdal::Stage::getMetadata">
<polygon fill="white" stroke="black" points="78,-92 78,-111 204,-111 204,-92 78,-92"/>
<text text-anchor="middle" x="141" y="-99" font-family="Helvetica,sans-Serif" font-size="10.00">pdal::Stage::getMetadata</text>
</a>
</g>
</g>
<!-- Node1&#45;&gt;Node31 -->
<g id="edge32" class="edge"><title>Node1&#45;&gt;Node31</title>
<path fill="none" stroke="midnightblue" d="M21.4999,-322.931C20.3219,-289.947 21.005,-179.769 78,-120.5 79.4046,-119.039 80.9182,-117.69 82.5186,-116.444"/>
<polygon fill="midnightblue" stroke="midnightblue" points="84.5308,-119.313 91.1398,-111.033 80.8093,-113.385 84.5308,-119.313"/>
</g>
<!-- Node32 -->
<g id="node32" class="node"><title>Node32</title>
<g id="a_node32"><a xlink:href="classpdal_1_1MetadataNode.html#a645aadd856fb1a4ae4a12247fda3e618" target="_top" xlink:title="pdal::MetadataNode\l::name">
<polygon fill="white" stroke="black" points="89,-42.5 89,-72.5 193,-72.5 193,-42.5 89,-42.5"/>
<text text-anchor="start" x="97" y="-60.5" font-family="Helvetica,sans-Serif" font-size="10.00">pdal::MetadataNode</text>
<text text-anchor="middle" x="141" y="-49.5" font-family="Helvetica,sans-Serif" font-size="10.00">::name</text>
</a>
</g>
</g>
<!-- Node1&#45;&gt;Node32 -->
<g id="edge33" class="edge"><title>Node1&#45;&gt;Node32</title>
<path fill="none" stroke="midnightblue" d="M22.9516,-322.993C27.2317,-281.948 45.902,-120.305 78,-82.5 79.1361,-81.1619 80.3545,-79.8946 81.6413,-78.6944"/>
<polygon fill="midnightblue" stroke="midnightblue" points="83.8678,-81.3975 89.6649,-72.5294 79.6029,-75.8468 83.8678,-81.3975"/>
</g>
<!-- Node33 -->
<g id="node33" class="node"><title>Node33</title>
<g id="a_node33"><a xlink:href="classpdal_1_1Stage.html#a4b9296a59f8852b3d08630f1086bfbea" target="_top" xlink:title="pdal::Stage::prepare">
<polygon fill="white" stroke="black" points="89,-551 89,-570 193,-570 193,-551 89,-551"/>
<text text-anchor="middle" x="141" y="-558" font-family="Helvetica,sans-Serif" font-size="10.00">pdal::Stage::prepare</text>
</a>
</g>
</g>
<!-- Node1&#45;&gt;Node33 -->
<g id="edge34" class="edge"><title>Node1&#45;&gt;Node33</title>
<path fill="none" stroke="midnightblue" d="M26.9201,-342.007C44.8,-376.554 106.535,-495.838 130.44,-542.028"/>
<polygon fill="midnightblue" stroke="midnightblue" points="127.354,-543.68 135.059,-550.953 133.571,-540.463 127.354,-543.68"/>
</g>
<!-- Node43 -->
<g id="node43" class="node"><title>Node43</title>
<g id="a_node43"><a xlink:href="classpdal_1_1Stage.html#abfd87d459bea04a919aace286b2e377e" target="_top" xlink:title="pdal::Stage::setInput">
<polygon fill="white" stroke="black" points="87.5,-4 87.5,-23 194.5,-23 194.5,-4 87.5,-4"/>
<text text-anchor="middle" x="141" y="-11" font-family="Helvetica,sans-Serif" font-size="10.00">pdal::Stage::setInput</text>
</a>
</g>
</g>
<!-- Node1&#45;&gt;Node43 -->
<g id="edge49" class="edge"><title>Node1&#45;&gt;Node43</title>
<path fill="none" stroke="midnightblue" d="M22.4838,-322.946C25.0089,-276.773 38.1192,-77.1546 78,-32.5 79.1858,-31.1723 80.4616,-29.9361 81.8119,-28.7851"/>
<polygon fill="midnightblue" stroke="midnightblue" points="83.9243,-31.5819 90.2499,-23.0827 80.0047,-25.7822 83.9243,-31.5819"/>
</g>
<!-- Node44 -->
<g id="node44" class="node"><title>Node44</title>
<g id="a_node44"><a xlink:href="classpdal_1_1Stage.html#acb2434df20f371f1fec9577de3cf0046" target="_top" xlink:title="pdal::Stage::setOptions">
<polygon fill="white" stroke="black" points="450,-802 450,-821 569,-821 569,-802 450,-802"/>
<text text-anchor="middle" x="509.5" y="-809" font-family="Helvetica,sans-Serif" font-size="10.00">pdal::Stage::setOptions</text>
</a>
</g>
</g>
<!-- Node1&#45;&gt;Node44 -->
<g id="edge50" class="edge"><title>Node1&#45;&gt;Node44</title>
<path fill="none" stroke="midnightblue" d="M21.9522,-342.412C22.1964,-378.965 26.8178,-508.682 78,-597.5 126.394,-681.48 154.146,-698.515 240,-743.5 305.123,-777.623 330.029,-762.303 401,-781.5 417.15,-785.868 420.913,-787.906 437,-792.5 444.99,-794.781 453.508,-797.123 461.777,-799.349"/>
<polygon fill="midnightblue" stroke="midnightblue" points="461.123,-802.797 471.687,-801.995 462.929,-796.034 461.123,-802.797"/>
</g>
<!-- Node45 -->
<g id="node45" class="node"><title>Node45</title>
<g id="a_node45"><a xlink:href="classSupport.html#a987d7adce1636b5852ff41a1d34d37bd" target="_top" xlink:title="Support::temppath">
<polygon fill="white" stroke="black" points="92.5,-323 92.5,-342 189.5,-342 189.5,-323 92.5,-323"/>
<text text-anchor="middle" x="141" y="-330" font-family="Helvetica,sans-Serif" font-size="10.00">Support::temppath</text>
</a>
</g>
</g>
<!-- Node1&#45;&gt;Node45 -->
<g id="edge51" class="edge"><title>Node1&#45;&gt;Node45</title>
<path fill="none" stroke="midnightblue" d="M42.0171,-332.5C53.1284,-332.5 67.5787,-332.5 81.9534,-332.5"/>
<polygon fill="midnightblue" stroke="midnightblue" points="82.3583,-336 92.3583,-332.5 82.3583,-329 82.3583,-336"/>
</g>
<!-- Node46 -->
<g id="node46" class="node"><title>Node46</title>
<g id="a_node46"><a xlink:href="namespaceanonymous__namespace_02BPFTest_8cpp_03.html#aeaa0eed4469c4f37361a81341baa0445" target="_top" xlink:title="anonymous_namespace\l\{BPFTest::cpp\}::test\l_file_type">
<polygon fill="white" stroke="black" points="80,-791 80,-832 202,-832 202,-791 80,-791"/>
<text text-anchor="start" x="88" y="-820" font-family="Helvetica,sans-Serif" font-size="10.00">anonymous_namespace</text>
<text text-anchor="start" x="88" y="-809" font-family="Helvetica,sans-Serif" font-size="10.00">{BPFTest::cpp}::test</text>
<text text-anchor="middle" x="141" y="-798" font-family="Helvetica,sans-Serif" font-size="10.00">_file_type</text>
</a>
</g>
</g>
<!-- Node1&#45;&gt;Node46 -->
<g id="edge53" class="edge"><title>Node1&#45;&gt;Node46</title>
<path fill="none" stroke="midnightblue" d="M22.067,-342.244C22.6352,-400.432 27.9868,-701.993 78,-776.5 79.86,-779.271 82.0174,-781.847 84.3886,-784.238"/>
<polygon fill="midnightblue" stroke="midnightblue" points="82.2056,-786.977 92.0607,-790.867 86.7821,-781.68 82.2056,-786.977"/>
</g>
<!-- Node49 -->
<g id="node49" class="node"><title>Node49</title>
<g id="a_node49"><a xlink:href="classpdal_1_1MetadataNode.html#ab5c86ccff7ced090522b31cdc6c772b6" target="_top" xlink:title="pdal::MetadataNode\l::value">
<polygon fill="white" stroke="black" points="89,-965.5 89,-995.5 193,-995.5 193,-965.5 89,-965.5"/>
<text text-anchor="start" x="97" y="-983.5" font-family="Helvetica,sans-Serif" font-size="10.00">pdal::MetadataNode</text>
<text text-anchor="middle" x="141" y="-972.5" font-family="Helvetica,sans-Serif" font-size="10.00">::value</text>
</a>
</g>
</g>
<!-- Node1&#45;&gt;Node49 -->
<g id="edge59" class="edge"><title>Node1&#45;&gt;Node49</title>
<path fill="none" stroke="midnightblue" d="M21.8414,-342.256C20.8724,-411.356 17.6384,-827.248 78,-934.5 83.5865,-944.426 92.2966,-952.832 101.441,-959.632"/>
<polygon fill="midnightblue" stroke="midnightblue" points="99.657,-962.652 109.883,-965.423 103.617,-956.88 99.657,-962.652"/>
</g>
<!-- Node3 -->
<g id="node3" class="node"><title>Node3</title>
<g id="a_node3"><a xlink:href="classpdal_1_1Option.html#aef4422b88464a9cad83b3c11bf1f8cdd" target="_top" xlink:title="pdal::Option::nameValid">
<polygon fill="white" stroke="black" points="618,-813 618,-832 739,-832 739,-813 618,-813"/>
<text text-anchor="middle" x="678.5" y="-820" font-family="Helvetica,sans-Serif" font-size="10.00">pdal::Option::nameValid</text>
</a>
</g>
</g>
<!-- Node2&#45;&gt;Node3 -->
<g id="edge2" class="edge"><title>Node2&#45;&gt;Node3</title>
<path fill="none" stroke="midnightblue" d="M552.641,-850.911C574.877,-845.851 602.348,-839.6 625.856,-834.251"/>
<polygon fill="midnightblue" stroke="midnightblue" points="626.688,-837.652 635.662,-832.02 625.135,-830.826 626.688,-837.652"/>
</g>
<!-- Node7 -->
<g id="node7" class="node"><title>Node7</title>
<g id="a_node7"><a xlink:href="classpdal_1_1Option.html#ad2b7a736742fb343e421fa326ef45c23" target="_top" xlink:title="pdal::Option::getName">
<polygon fill="white" stroke="black" points="621,-851 621,-870 736,-870 736,-851 621,-851"/>
<text text-anchor="middle" x="678.5" y="-858" font-family="Helvetica,sans-Serif" font-size="10.00">pdal::Option::getName</text>
</a>
</g>
</g>
<!-- Node2&#45;&gt;Node7 -->
<g id="edge6" class="edge"><title>Node2&#45;&gt;Node7</title>
<path fill="none" stroke="midnightblue" d="M557.909,-860.5C574.273,-860.5 592.926,-860.5 610.555,-860.5"/>
<polygon fill="midnightblue" stroke="midnightblue" points="610.79,-864 620.79,-860.5 610.79,-857 610.79,-864"/>
</g>
<!-- Node4 -->
<g id="node4" class="node"><title>Node4</title>
<g id="a_node4"><a xlink:href="classpdal_1_1Option.html#a978a36cf9180d3636ea770988961952b" target="_top" xlink:title="pdal::Option::parse">
<polygon fill="white" stroke="red" points="779,-881 779,-900 878,-900 878,-881 779,-881"/>
<text text-anchor="middle" x="828.5" y="-888" font-family="Helvetica,sans-Serif" font-size="10.00">pdal::Option::parse</text>
</a>
</g>
</g>
<!-- Node3&#45;&gt;Node4 -->
<g id="edge3" class="edge"><title>Node3&#45;&gt;Node4</title>
<path fill="none" stroke="midnightblue" d="M713.282,-832.018C721.797,-834.762 730.836,-837.977 739,-841.5 761.585,-851.246 785.948,-864.995 803.383,-875.45"/>
<polygon fill="midnightblue" stroke="midnightblue" points="801.939,-878.667 812.301,-880.873 805.575,-872.686 801.939,-878.667"/>
</g>
<!-- Node6 -->
<g id="node6" class="node"><title>Node6</title>
<g id="a_node6"><a xlink:href="namespacepdal_1_1Utils.html#ada321695f57c876ef51227bdf5b84f7a" target="_top" xlink:title="pdal::Utils::printError">
<polygon fill="white" stroke="black" points="775,-813 775,-832 882,-832 882,-813 775,-813"/>
<text text-anchor="middle" x="828.5" y="-820" font-family="Helvetica,sans-Serif" font-size="10.00">pdal::Utils::printError</text>
</a>
</g>
</g>
<!-- Node3&#45;&gt;Node6 -->
<g id="edge5" class="edge"><title>Node3&#45;&gt;Node6</title>
<path fill="none" stroke="midnightblue" d="M739.271,-822.5C747.598,-822.5 756.175,-822.5 764.558,-822.5"/>
<polygon fill="midnightblue" stroke="midnightblue" points="764.658,-826 774.658,-822.5 764.658,-819 764.658,-826"/>
</g>
<!-- Node5 -->
<g id="node5" class="node"><title>Node5</title>
<g id="a_node5"><a xlink:href="namespacepdal_1_1Dimension.html#af3176b0b7e6b4be000317846cf7c2718" target="_top" xlink:title="pdal::Dimension::name">
<polygon fill="white" stroke="black" points="918,-915 918,-934 1035,-934 1035,-915 918,-915"/>
<text text-anchor="middle" x="976.5" y="-922" font-family="Helvetica,sans-Serif" font-size="10.00">pdal::Dimension::name</text>
</a>
</g>
</g>
<!-- Node4&#45;&gt;Node5 -->
<g id="edge4" class="edge"><title>Node4&#45;&gt;Node5</title>
<path fill="none" stroke="midnightblue" d="M870.558,-900.061C887.267,-903.953 906.758,-908.492 924.376,-912.594"/>
<polygon fill="midnightblue" stroke="midnightblue" points="923.965,-916.092 934.498,-914.952 925.552,-909.275 923.965,-916.092"/>
</g>
<!-- Node9 -->
<g id="node9" class="node"><title>Node9</title>
<g id="a_node9"><a xlink:href="namespacepdal.html#a4d7dbf8f97121c52d3b891ad9e944094" target="_top" xlink:title="pdal::is_base64">
<polygon fill="white" stroke="black" points="467,-1031 467,-1050 552,-1050 552,-1031 467,-1031"/>
<text text-anchor="middle" x="509.5" y="-1038" font-family="Helvetica,sans-Serif" font-size="10.00">pdal::is_base64</text>
</a>
</g>
</g>
<!-- Node8&#45;&gt;Node9 -->
<g id="edge8" class="edge"><title>Node8&#45;&gt;Node9</title>
<path fill="none" stroke="midnightblue" d="M369.657,-1040.5C396.333,-1040.5 429.507,-1040.5 456.738,-1040.5"/>
<polygon fill="midnightblue" stroke="midnightblue" points="456.857,-1044 466.857,-1040.5 456.857,-1037 456.857,-1044"/>
</g>
<!-- Node11 -->
<g id="node11" class="node"><title>Node11</title>
<g id="a_node11"><a xlink:href="namespaceTestConfig.html#a0e622015f0610c2cfcbb3739b972d877" target="_top" xlink:title="TestConfig::dataPath">
<polygon fill="white" stroke="black" points="265.5,-88 265.5,-107 375.5,-107 375.5,-88 265.5,-88"/>
<text text-anchor="middle" x="320.5" y="-95" font-family="Helvetica,sans-Serif" font-size="10.00">TestConfig::dataPath</text>
</a>
</g>
</g>
<!-- Node10&#45;&gt;Node11 -->
<g id="edge10" class="edge"><title>Node10&#45;&gt;Node11</title>
<path fill="none" stroke="midnightblue" d="M188.235,-286.433C194.14,-283.755 199.635,-280.204 204,-275.5 253.285,-222.389 189.073,-168.038 240,-116.5 244.517,-111.929 249.923,-108.381 255.762,-105.637"/>
<polygon fill="midnightblue" stroke="midnightblue" points="257.179,-108.841 265.23,-101.954 254.641,-102.317 257.179,-108.841"/>
</g>
<!-- Node13 -->
<g id="node13" class="node"><title>Node13</title>
<g id="a_node13"><a xlink:href="namespacepdal_1_1Utils.html#ad875f14218020d7d4d10803f5a115bdb" target="_top" xlink:title="pdal::Utils::remove">
<polygon fill="white" stroke="black" points="271,-50 271,-69 370,-69 370,-50 271,-50"/>
<text text-anchor="middle" x="320.5" y="-57" font-family="Helvetica,sans-Serif" font-size="10.00">pdal::Utils::remove</text>
</a>
</g>
</g>
<!-- Node12&#45;&gt;Node13 -->
<g id="edge12" class="edge"><title>Node12&#45;&gt;Node13</title>
<path fill="none" stroke="midnightblue" d="M189.799,-246.904C195.112,-244.238 200.028,-240.838 204,-236.5 252.637,-183.382 189.343,-129.696 240,-78.5 245.819,-72.6194 253.11,-68.4318 260.901,-65.4711"/>
<polygon fill="midnightblue" stroke="midnightblue" points="262.091,-68.7661 270.588,-62.4368 259.999,-62.0862 262.091,-68.7661"/>
</g>
<!-- Node14&#45;&gt;Node14 -->
<g id="edge19" class="edge"><title>Node14&#45;&gt;Node14</title>
<path fill="none" stroke="midnightblue" d="M122.505,-380.257C113.507,-389.065 119.672,-398.5 141,-398.5 154.663,-398.5 162.104,-394.628 163.321,-389.529"/>
<polygon fill="midnightblue" stroke="midnightblue" points="166.545,-388.166 159.495,-380.257 160.074,-390.836 166.545,-388.166"/>
</g>
<!-- Node15 -->
<g id="node15" class="node"><title>Node15</title>
<g id="a_node15"><a xlink:href="classpdal_1_1Stage.html#a74cf636cb0f633411e4e40dcd718508a" target="_top" xlink:title="pdal::Stage::startLogging">
<polygon fill="white" stroke="black" points="258,-475 258,-494 383,-494 383,-475 258,-475"/>
<text text-anchor="middle" x="320.5" y="-482" font-family="Helvetica,sans-Serif" font-size="10.00">pdal::Stage::startLogging</text>
</a>
</g>
</g>
<!-- Node14&#45;&gt;Node15 -->
<g id="edge14" class="edge"><title>Node14&#45;&gt;Node15</title>
<path fill="none" stroke="midnightblue" d="M148.918,-380.025C163.472,-399.333 199.291,-443.143 240,-465.5 244.21,-467.812 248.696,-469.845 253.311,-471.632"/>
<polygon fill="midnightblue" stroke="midnightblue" points="252.326,-474.994 262.921,-474.965 254.62,-468.381 252.326,-474.994"/>
</g>
<!-- Node19 -->
<g id="node19" class="node"><title>Node19</title>
<g id="a_node19"><a xlink:href="classpdal_1_1BasePointTable.html#a2554cd260c437c9b1e4a017a28a5c7de" target="_top" xlink:title="pdal::BasePointTable\l::finalize">
<polygon fill="white" stroke="black" points="265.5,-224.5 265.5,-254.5 375.5,-254.5 375.5,-224.5 265.5,-224.5"/>
<text text-anchor="start" x="273.5" y="-242.5" font-family="Helvetica,sans-Serif" font-size="10.00">pdal::BasePointTable</text>
<text text-anchor="middle" x="320.5" y="-231.5" font-family="Helvetica,sans-Serif" font-size="10.00">::finalize</text>
</a>
</g>
</g>
<!-- Node14&#45;&gt;Node19 -->
<g id="edge18" class="edge"><title>Node14&#45;&gt;Node19</title>
<path fill="none" stroke="midnightblue" d="M189.441,-360.909C194.748,-358.454 199.76,-355.371 204,-351.5 235.208,-323.009 208.733,-291.926 240,-263.5 244.69,-259.236 250.115,-255.728 255.883,-252.844"/>
<polygon fill="midnightblue" stroke="midnightblue" points="257.399,-256.001 265.173,-248.804 254.607,-249.582 257.399,-256.001"/>
</g>
<!-- Node20 -->
<g id="node20" class="node"><title>Node20</title>
<g id="a_node20"><a xlink:href="classpdal_1_1BasePointTable.html#aa3ed63a9e1a8897ccb7dc81a614f6141" target="_top" xlink:title="pdal::BasePointTable\l::clearSpatialReferences">
<polygon fill="white" stroke="black" points="258.5,-175.5 258.5,-205.5 382.5,-205.5 382.5,-175.5 258.5,-175.5"/>
<text text-anchor="start" x="266.5" y="-193.5" font-family="Helvetica,sans-Serif" font-size="10.00">pdal::BasePointTable</text>
<text text-anchor="middle" x="320.5" y="-182.5" font-family="Helvetica,sans-Serif" font-size="10.00">::clearSpatialReferences</text>
</a>
</g>
</g>
<!-- Node14&#45;&gt;Node20 -->
<g id="edge20" class="edge"><title>Node14&#45;&gt;Node20</title>
<path fill="none" stroke="midnightblue" d="M190.865,-360.972C195.738,-358.501 200.257,-355.397 204,-351.5 247.608,-306.093 196.297,-259.816 240,-214.5 242.846,-211.549 246.041,-208.957 249.472,-206.682"/>
<polygon fill="midnightblue" stroke="midnightblue" points="251.419,-209.602 258.422,-201.651 247.99,-203.5 251.419,-209.602"/>
</g>
<!-- Node21 -->
<g id="node21" class="node"><title>Node21</title>
<g id="a_node21"><a xlink:href="classpdal_1_1BasePointTable.html#a670592aca912391f1a90073a2031e5e0" target="_top" xlink:title="pdal::BasePointTable\l::addSpatialReference">
<polygon fill="white" stroke="black" points="264,-126.5 264,-156.5 377,-156.5 377,-126.5 264,-126.5"/>
<text text-anchor="start" x="272" y="-144.5" font-family="Helvetica,sans-Serif" font-size="10.00">pdal::BasePointTable</text>
<text text-anchor="middle" x="320.5" y="-133.5" font-family="Helvetica,sans-Serif" font-size="10.00">::addSpatialReference</text>
</a>
</g>
</g>
<!-- Node14&#45;&gt;Node21 -->
<g id="edge21" class="edge"><title>Node14&#45;&gt;Node21</title>
<path fill="none" stroke="midnightblue" d="M191.724,-360.894C196.318,-358.432 200.538,-355.351 204,-351.5 260.296,-288.885 183.574,-227.997 240,-165.5 244.085,-160.975 248.989,-157.291 254.331,-154.292"/>
<polygon fill="midnightblue" stroke="midnightblue" points="256.129,-157.313 263.665,-149.866 253.13,-150.988 256.129,-157.313"/>
</g>
<!-- Node22 -->
<g id="node22" class="node"><title>Node22</title>
<g id="a_node22"><a xlink:href="classpdal_1_1Stage.html#afb562c59c53ed8120df9106655eb2543" target="_top" xlink:title="pdal::Stage::ready">
<polygon fill="white" stroke="black" points="272.5,-361 272.5,-380 368.5,-380 368.5,-361 272.5,-361"/>
<text text-anchor="middle" x="320.5" y="-368" font-family="Helvetica,sans-Serif" font-size="10.00">pdal::Stage::ready</text>
</a>
</g>
</g>
<!-- Node14&#45;&gt;Node22 -->
<g id="edge22" class="edge"><title>Node14&#45;&gt;Node22</title>
<path fill="none" stroke="midnightblue" d="M194.775,-370.5C216.036,-370.5 240.613,-370.5 262.3,-370.5"/>
<polygon fill="midnightblue" stroke="midnightblue" points="262.362,-374 272.362,-370.5 262.362,-367 262.362,-374"/>
</g>
<!-- Node23 -->
<g id="node23" class="node"><title>Node23</title>
<g id="a_node23"><a xlink:href="classpdal_1_1Stage.html#a9889b4446f40daa6f4cd7bfe3c567839" target="_top" xlink:title="pdal::Stage::getSpatialReference">
<polygon fill="white" stroke="black" points="240,-323 240,-342 401,-342 401,-323 240,-323"/>
<text text-anchor="middle" x="320.5" y="-330" font-family="Helvetica,sans-Serif" font-size="10.00">pdal::Stage::getSpatialReference</text>
</a>
</g>
</g>
<!-- Node14&#45;&gt;Node23 -->
<g id="edge23" class="edge"><title>Node14&#45;&gt;Node23</title>
<path fill="none" stroke="midnightblue" d="M186.791,-360.911C210.53,-355.829 239.884,-349.545 264.944,-344.18"/>
<polygon fill="midnightblue" stroke="midnightblue" points="265.986,-347.536 275.031,-342.02 264.52,-340.691 265.986,-347.536"/>
</g>
<!-- Node24 -->
<g id="node24" class="node"><title>Node24</title>
<g id="a_node24"><a xlink:href="classpdal_1_1SpatialReference.html#a48fa2f7e79ea172b62ad2e874ff01610" target="_top" xlink:title="pdal::SpatialReference\l::empty">
<polygon fill="white" stroke="black" points="262.5,-273.5 262.5,-303.5 378.5,-303.5 378.5,-273.5 262.5,-273.5"/>
<text text-anchor="start" x="270.5" y="-291.5" font-family="Helvetica,sans-Serif" font-size="10.00">pdal::SpatialReference</text>
<text text-anchor="middle" x="320.5" y="-280.5" font-family="Helvetica,sans-Serif" font-size="10.00">::empty</text>
</a>
</g>
</g>
<!-- Node14&#45;&gt;Node24 -->
<g id="edge24" class="edge"><title>Node14&#45;&gt;Node24</title>
<path fill="none" stroke="midnightblue" d="M183.652,-360.991C190.722,-358.478 197.78,-355.355 204,-351.5 223.774,-339.243 220.271,-325.829 240,-313.5 244.08,-310.951 248.441,-308.642 252.941,-306.554"/>
<polygon fill="midnightblue" stroke="midnightblue" points="254.49,-309.699 262.329,-302.572 251.757,-303.254 254.49,-309.699"/>
</g>
<!-- Node25 -->
<g id="node25" class="node"><title>Node25</title>
<g id="a_node25"><a xlink:href="classpdal_1_1Stage.html#a1b00532ede55b90a7b6332a2966f5626" target="_top" xlink:title="pdal::Stage::l_done">
<polygon fill="white" stroke="black" points="270,-399 270,-418 371,-418 371,-399 270,-399"/>
<text text-anchor="middle" x="320.5" y="-406" font-family="Helvetica,sans-Serif" font-size="10.00">pdal::Stage::l_done</text>
</a>
</g>
</g>
<!-- Node14&#45;&gt;Node25 -->
<g id="edge25" class="edge"><title>Node14&#45;&gt;Node25</title>
<path fill="none" stroke="midnightblue" d="M186.791,-380.089C210.53,-385.171 239.884,-391.455 264.944,-396.82"/>
<polygon fill="midnightblue" stroke="midnightblue" points="264.52,-400.309 275.031,-398.98 265.986,-393.464 264.52,-400.309"/>
</g>
<!-- Node27 -->
<g id="node27" class="node"><title>Node27</title>
<g id="a_node27"><a xlink:href="classpdal_1_1Stage.html#ae49e996fe285350923a3bf44d027adad" target="_top" xlink:title="pdal::Stage::stopLogging">
<polygon fill="white" stroke="black" points="258,-437 258,-456 383,-456 383,-437 258,-437"/>
<text text-anchor="middle" x="320.5" y="-444" font-family="Helvetica,sans-Serif" font-size="10.00">pdal::Stage::stopLogging</text>
</a>
</g>
</g>
<!-- Node14&#45;&gt;Node27 -->
<g id="edge27" class="edge"><title>Node14&#45;&gt;Node27</title>
<path fill="none" stroke="midnightblue" d="M155.62,-380.164C173.968,-392.765 208.022,-414.702 240,-427.5 246.285,-430.015 252.988,-432.253 259.735,-434.229"/>
<polygon fill="midnightblue" stroke="midnightblue" points="259.039,-437.667 269.608,-436.939 260.891,-430.917 259.039,-437.667"/>
</g>
<!-- Node16 -->
<g id="node16" class="node"><title>Node16</title>
<g id="a_node16"><a xlink:href="classpdal_1_1gdal_1_1ErrorHandler.html#a56e0125595a43bf3b0cbd0b9a4bc55ea" target="_top" xlink:title="pdal::gdal::ErrorHandler\l::getGlobalErrorHandler">
<polygon fill="white" stroke="red" points="450,-431.5 450,-461.5 569,-461.5 569,-431.5 450,-431.5"/>
<text text-anchor="start" x="458" y="-449.5" font-family="Helvetica,sans-Serif" font-size="10.00">pdal::gdal::ErrorHandler</text>
<text text-anchor="middle" x="509.5" y="-438.5" font-family="Helvetica,sans-Serif" font-size="10.00">::getGlobalErrorHandler</text>
</a>
</g>
</g>
<!-- Node15&#45;&gt;Node16 -->
<g id="edge15" class="edge"><title>Node15&#45;&gt;Node16</title>
<path fill="none" stroke="midnightblue" d="M368.688,-474.911C390.273,-470.525 416.264,-465.243 439.951,-460.43"/>
<polygon fill="midnightblue" stroke="midnightblue" points="440.838,-463.821 449.941,-458.4 439.444,-456.961 440.838,-463.821"/>
</g>
<!-- Node17 -->
<g id="node17" class="node"><title>Node17</title>
<g id="a_node17"><a xlink:href="classpdal_1_1gdal_1_1ErrorHandler.html#ace1cff928ab179f671181ebaf4d280a4" target="_top" xlink:title="pdal::gdal::ErrorHandler::set">
<polygon fill="white" stroke="red" points="440,-519 440,-538 579,-538 579,-519 440,-519"/>
<text text-anchor="middle" x="509.5" y="-526" font-family="Helvetica,sans-Serif" font-size="10.00">pdal::gdal::ErrorHandler::set</text>
</a>
</g>
</g>
<!-- Node15&#45;&gt;Node17 -->
<g id="edge16" class="edge"><title>Node15&#45;&gt;Node17</title>
<path fill="none" stroke="midnightblue" d="M362.076,-494.047C390.257,-500.678 428.001,-509.559 458.11,-516.643"/>
<polygon fill="midnightblue" stroke="midnightblue" points="457.467,-520.088 468.003,-518.971 459.07,-513.274 457.467,-520.088"/>
</g>
<!-- Node18 -->
<g id="node18" class="node"><title>Node18</title>
<g id="a_node18"><a xlink:href="classpdal_1_1Stage.html#aec4fb27c40bb4b032ff003a89a950dd4" target="_top" xlink:title="pdal::Stage::isDebug">
<polygon fill="white" stroke="black" points="455.5,-481 455.5,-500 563.5,-500 563.5,-481 455.5,-481"/>
<text text-anchor="middle" x="509.5" y="-488" font-family="Helvetica,sans-Serif" font-size="10.00">pdal::Stage::isDebug</text>
</a>
</g>
</g>
<!-- Node15&#45;&gt;Node18 -->
<g id="edge17" class="edge"><title>Node15&#45;&gt;Node18</title>
<path fill="none" stroke="midnightblue" d="M383.249,-486.481C403.089,-487.118 425.093,-487.824 445.053,-488.464"/>
<polygon fill="midnightblue" stroke="midnightblue" points="445.175,-491.97 455.282,-488.792 445.399,-484.973 445.175,-491.97"/>
</g>
<!-- Node26 -->
<g id="node26" class="node"><title>Node26</title>
<g id="a_node26"><a xlink:href="classpdal_1_1Stage.html#a2444e73dc41bfc0b94981909595ef2ca" target="_top" xlink:title="pdal::Stage::done">
<polygon fill="white" stroke="black" points="463,-393 463,-412 556,-412 556,-393 463,-393"/>
<text text-anchor="middle" x="509.5" y="-400" font-family="Helvetica,sans-Serif" font-size="10.00">pdal::Stage::done</text>
</a>
</g>
</g>
<!-- Node25&#45;&gt;Node26 -->
<g id="edge26" class="edge"><title>Node25&#45;&gt;Node26</title>
<path fill="none" stroke="midnightblue" d="M371.122,-406.908C396.244,-406.102 426.832,-405.12 452.763,-404.288"/>
<polygon fill="midnightblue" stroke="midnightblue" points="452.937,-407.785 462.819,-403.966 452.712,-400.788 452.937,-407.785"/>
</g>
<!-- Node28&#45;&gt;Node28 -->
<g id="edge29" class="edge"><title>Node28&#45;&gt;Node28</title>
<path fill="none" stroke="midnightblue" d="M120.088,-209.659C115.045,-219.057 122.016,-228 141,-228 152.569,-228 159.676,-224.679 162.323,-219.958"/>
<polygon fill="midnightblue" stroke="midnightblue" points="165.808,-219.512 161.912,-209.659 158.813,-219.79 165.808,-219.512"/>
</g>
<!-- Node29 -->
<g id="node29" class="node"><title>Node29</title>
<g id="a_node29"><a xlink:href="classpdal_1_1MetadataNode.html#a097ca6118bd2432005d1815dc23c6c1f" target="_top" xlink:title="pdal::MetadataNode\l::empty">
<polygon fill="white" stroke="black" points="268.5,-0.5 268.5,-30.5 372.5,-30.5 372.5,-0.5 268.5,-0.5"/>
<text text-anchor="start" x="276.5" y="-18.5" font-family="Helvetica,sans-Serif" font-size="10.00">pdal::MetadataNode</text>
<text text-anchor="middle" x="320.5" y="-7.5" font-family="Helvetica,sans-Serif" font-size="10.00">::empty</text>
</a>
</g>
</g>
<!-- Node28&#45;&gt;Node29 -->
<g id="edge30" class="edge"><title>Node28&#45;&gt;Node29</title>
<path fill="none" stroke="midnightblue" d="M191.83,-179.479C196.344,-176.689 200.518,-173.392 204,-169.5 243.687,-125.137 198.6,-83.2688 240,-40.5 245.258,-35.0682 251.681,-30.8123 258.575,-27.4784"/>
<polygon fill="midnightblue" stroke="midnightblue" points="260.31,-30.5479 268.203,-23.4801 257.625,-24.0833 260.31,-30.5479"/>
</g>
<!-- Node33&#45;&gt;Node15 -->
<g id="edge42" class="edge"><title>Node33&#45;&gt;Node15</title>
<path fill="none" stroke="midnightblue" d="M155.62,-550.836C173.968,-538.235 208.022,-516.298 240,-503.5 246.285,-500.985 252.988,-498.747 259.735,-496.771"/>
<polygon fill="midnightblue" stroke="midnightblue" points="260.891,-500.083 269.608,-494.061 259.039,-493.333 260.891,-500.083"/>
</g>
<!-- Node33&#45;&gt;Node27 -->
<g id="edge48" class="edge"><title>Node33&#45;&gt;Node27</title>
<path fill="none" stroke="midnightblue" d="M148.918,-550.975C163.472,-531.667 199.291,-487.857 240,-465.5 244.21,-463.188 248.696,-461.155 253.311,-459.368"/>
<polygon fill="midnightblue" stroke="midnightblue" points="254.62,-462.619 262.921,-456.035 252.326,-456.006 254.62,-462.619"/>
</g>
<!-- Node33&#45;&gt;Node33 -->
<g id="edge35" class="edge"><title>Node33&#45;&gt;Node33</title>
<path fill="none" stroke="midnightblue" d="M122.505,-570.257C113.507,-579.065 119.672,-588.5 141,-588.5 154.663,-588.5 162.104,-584.628 163.321,-579.529"/>
<polygon fill="midnightblue" stroke="midnightblue" points="166.545,-578.166 159.495,-570.257 160.074,-580.836 166.545,-578.166"/>
</g>
<!-- Node34 -->
<g id="node34" class="node"><title>Node34</title>
<g id="a_node34"><a xlink:href="classpdal_1_1Stage.html#a75f17f9b67f48f6aab1d98aadefc4d5c" target="_top" xlink:title="pdal::Stage::handleOptions">
<polygon fill="white" stroke="red" points="253.5,-715 253.5,-734 387.5,-734 387.5,-715 253.5,-715"/>
<text text-anchor="middle" x="320.5" y="-722" font-family="Helvetica,sans-Serif" font-size="10.00">pdal::Stage::handleOptions</text>
</a>
</g>
</g>
<!-- Node33&#45;&gt;Node34 -->
<g id="edge36" class="edge"><title>Node33&#45;&gt;Node34</title>
<path fill="none" stroke="midnightblue" d="M145.564,-570.087C155.819,-596.288 188.038,-669.528 240,-705.5 242.888,-707.499 245.96,-709.289 249.155,-710.892"/>
<polygon fill="midnightblue" stroke="midnightblue" points="247.863,-714.147 258.428,-714.932 250.658,-707.729 247.863,-714.147"/>
</g>
<!-- Node38 -->
<g id="node38" class="node"><title>Node38</title>
<g id="a_node38"><a xlink:href="classpdal_1_1Stage.html#a6c85dfbf6a674dbc2eda76a79efada48" target="_top" xlink:title="pdal::Stage::l_initialize">
<polygon fill="white" stroke="red" points="263,-589 263,-608 378,-608 378,-589 263,-589"/>
<text text-anchor="middle" x="320.5" y="-596" font-family="Helvetica,sans-Serif" font-size="10.00">pdal::Stage::l_initialize</text>
</a>
</g>
</g>
<!-- Node33&#45;&gt;Node38 -->
<g id="edge43" class="edge"><title>Node33&#45;&gt;Node38</title>
<path fill="none" stroke="midnightblue" d="M186.791,-570.089C210.53,-575.171 239.884,-581.455 264.944,-586.82"/>
<polygon fill="midnightblue" stroke="midnightblue" points="264.52,-590.309 275.031,-588.98 265.986,-583.464 264.52,-590.309"/>
</g>
<!-- Node39 -->
<g id="node39" class="node"><title>Node39</title>
<g id="a_node39"><a xlink:href="classpdal_1_1Stage.html#a5b422f842a6374b448439df99fe6e07e" target="_top" xlink:title="pdal::Stage::initialize">
<polygon fill="white" stroke="black" points="267,-551 267,-570 374,-570 374,-551 267,-551"/>
<text text-anchor="middle" x="320.5" y="-558" font-family="Helvetica,sans-Serif" font-size="10.00">pdal::Stage::initialize</text>
</a>
</g>
</g>
<!-- Node33&#45;&gt;Node39 -->
<g id="edge44" class="edge"><title>Node33&#45;&gt;Node39</title>
<path fill="none" stroke="midnightblue" d="M193.34,-560.5C213.138,-560.5 235.976,-560.5 256.733,-560.5"/>
<polygon fill="midnightblue" stroke="midnightblue" points="256.734,-564 266.734,-560.5 256.734,-557 256.734,-564"/>
</g>
<!-- Node40 -->
<g id="node40" class="node"><title>Node40</title>
<g id="a_node40"><a xlink:href="classpdal_1_1Stage.html#a7ec627c76e1c30fc53780bd81d08d4ad" target="_top" xlink:title="pdal::Stage::addDimensions">
<polygon fill="white" stroke="black" points="250.5,-513 250.5,-532 390.5,-532 390.5,-513 250.5,-513"/>
<text text-anchor="middle" x="320.5" y="-520" font-family="Helvetica,sans-Serif" font-size="10.00">pdal::Stage::addDimensions</text>
</a>
</g>
</g>
<!-- Node33&#45;&gt;Node40 -->
<g id="edge45" class="edge"><title>Node33&#45;&gt;Node40</title>
<path fill="none" stroke="midnightblue" d="M186.791,-550.911C210.53,-545.829 239.884,-539.545 264.944,-534.18"/>
<polygon fill="midnightblue" stroke="midnightblue" points="265.986,-537.536 275.031,-532.02 264.52,-530.691 265.986,-537.536"/>
</g>
<!-- Node41 -->
<g id="node41" class="node"><title>Node41</title>
<g id="a_node41"><a xlink:href="classpdal_1_1BasePointTable.html#a7e3a12a1f29e6cd10d8669ed3d07eb94" target="_top" xlink:title="pdal::BasePointTable\l::layout">
<polygon fill="white" stroke="black" points="265.5,-665.5 265.5,-695.5 375.5,-695.5 375.5,-665.5 265.5,-665.5"/>
<text text-anchor="start" x="273.5" y="-683.5" font-family="Helvetica,sans-Serif" font-size="10.00">pdal::BasePointTable</text>
<text text-anchor="middle" x="320.5" y="-672.5" font-family="Helvetica,sans-Serif" font-size="10.00">::layout</text>
</a>
</g>
</g>
<!-- Node33&#45;&gt;Node41 -->
<g id="edge46" class="edge"><title>Node33&#45;&gt;Node41</title>
<path fill="none" stroke="midnightblue" d="M149.279,-570.083C164.221,-589.11 200.303,-631.852 240,-655.5 245.017,-658.489 250.427,-661.156 255.984,-663.53"/>
<polygon fill="midnightblue" stroke="midnightblue" points="254.84,-666.841 265.427,-667.251 257.407,-660.328 254.84,-666.841"/>
</g>
<!-- Node42 -->
<g id="node42" class="node"><title>Node42</title>
<g id="a_node42"><a xlink:href="classpdal_1_1Stage.html#affff6bc9dbff793d074d76333c5732dd" target="_top" xlink:title="pdal::Stage::prepared">
<polygon fill="white" stroke="black" points="265.5,-627 265.5,-646 375.5,-646 375.5,-627 265.5,-627"/>
<text text-anchor="middle" x="320.5" y="-634" font-family="Helvetica,sans-Serif" font-size="10.00">pdal::Stage::prepared</text>
</a>
</g>
</g>
<!-- Node33&#45;&gt;Node42 -->
<g id="edge47" class="edge"><title>Node33&#45;&gt;Node42</title>
<path fill="none" stroke="midnightblue" d="M155.62,-570.164C173.968,-582.765 208.022,-604.702 240,-617.5 246.285,-620.015 252.988,-622.253 259.735,-624.229"/>
<polygon fill="midnightblue" stroke="midnightblue" points="259.039,-627.667 269.608,-626.939 260.891,-620.917 259.039,-627.667"/>
</g>
<!-- Node35 -->
<g id="node35" class="node"><title>Node35</title>
<g id="a_node35"><a xlink:href="classpdal_1_1Stage.html#a75ff99f7b665c6573e304ed4148dd99e" target="_top" xlink:title="pdal::Stage::addAllArgs">
<polygon fill="white" stroke="red" points="450,-682 450,-701 569,-701 569,-682 450,-682"/>
<text text-anchor="middle" x="509.5" y="-689" font-family="Helvetica,sans-Serif" font-size="10.00">pdal::Stage::addAllArgs</text>
</a>
</g>
</g>
<!-- Node34&#45;&gt;Node35 -->
<g id="edge37" class="edge"><title>Node34&#45;&gt;Node35</title>
<path fill="none" stroke="midnightblue" d="M375.337,-714.999C396.858,-711.202 421.819,-706.797 444.275,-702.834"/>
<polygon fill="midnightblue" stroke="midnightblue" points="445.156,-706.233 454.395,-701.048 443.939,-699.339 445.156,-706.233"/>
</g>
<!-- Node36 -->
<g id="node36" class="node"><title>Node36</title>
<g id="a_node36"><a xlink:href="classpdal_1_1Options.html#a99aa4c0c7ba443d584f741d22d37f6a5" target="_top" xlink:title="pdal::Options::getValues">
<polygon fill="white" stroke="black" points="447.5,-720 447.5,-739 571.5,-739 571.5,-720 447.5,-720"/>
<text text-anchor="middle" x="509.5" y="-727" font-family="Helvetica,sans-Serif" font-size="10.00">pdal::Options::getValues</text>
</a>
</g>
</g>
<!-- Node34&#45;&gt;Node36 -->
<g id="edge38" class="edge"><title>Node34&#45;&gt;Node36</title>
<path fill="none" stroke="midnightblue" d="M387.692,-726.27C403.789,-726.7 421.069,-727.162 437.383,-727.598"/>
<polygon fill="midnightblue" stroke="midnightblue" points="437.307,-731.098 447.397,-727.866 437.494,-724.1 437.307,-731.098"/>
</g>
<!-- Node37 -->
<g id="node37" class="node"><title>Node37</title>
<g id="a_node37"><a xlink:href="classpdal_1_1Options.html#aab2dd4f9208512ad8c38a71ad9d2c98b" target="_top" xlink:title="pdal::Options::addConditional">
<polygon fill="white" stroke="black" points="437,-764 437,-783 582,-783 582,-764 437,-764"/>
<text text-anchor="middle" x="509.5" y="-771" font-family="Helvetica,sans-Serif" font-size="10.00">pdal::Options::addConditional</text>
</a>
</g>
</g>
<!-- Node34&#45;&gt;Node37 -->
<g id="edge39" class="edge"><title>Node34&#45;&gt;Node37</title>
<path fill="none" stroke="midnightblue" d="M357.999,-734.064C387.732,-741.855 429.899,-752.904 462.038,-761.326"/>
<polygon fill="midnightblue" stroke="midnightblue" points="461.532,-764.811 472.093,-763.96 463.306,-758.04 461.532,-764.811"/>
</g>
<!-- Node37&#45;&gt;Node3 -->
<g id="edge40" class="edge"><title>Node37&#45;&gt;Node3</title>
<path fill="none" stroke="midnightblue" d="M547.697,-783.048C558.764,-785.979 570.897,-789.283 582,-792.5 600.698,-797.918 621.317,-804.339 638.596,-809.847"/>
<polygon fill="midnightblue" stroke="midnightblue" points="637.753,-813.252 648.345,-812.97 639.889,-806.586 637.753,-813.252"/>
</g>
<!-- Node37&#45;&gt;Node7 -->
<g id="edge41" class="edge"><title>Node37&#45;&gt;Node7</title>
<path fill="none" stroke="midnightblue" d="M563.094,-783.022C569.775,-785.488 576.27,-788.593 582,-792.5 604.327,-807.724 596.055,-825.73 618,-841.5 620.686,-843.43 623.576,-845.17 626.584,-846.738"/>
<polygon fill="midnightblue" stroke="midnightblue" points="625.321,-850.008 635.875,-850.941 628.207,-843.63 625.321,-850.008"/>
</g>
<!-- Node45&#45;&gt;Node11 -->
<g id="edge52" class="edge"><title>Node45&#45;&gt;Node11</title>
<path fill="none" stroke="midnightblue" d="M189.646,-324.015C195.053,-321.384 200.034,-317.958 204,-313.5 263.162,-247.003 178.781,-181.108 240,-116.5 244.484,-111.768 249.918,-108.123 255.818,-105.326"/>
<polygon fill="midnightblue" stroke="midnightblue" points="257.352,-108.485 265.402,-101.596 254.813,-101.961 257.352,-108.485"/>
</g>
<!-- Node47 -->
<g id="node47" class="node"><title>Node47</title>
<g id="a_node47"><a xlink:href="namespaceanonymous__namespace_02BPFTest_8cpp_03.html#a87b2d65391eb80ade159f9958db0d553" target="_top" xlink:title="anonymous_namespace\l\{BPFTest::cpp\}::test\l_file_type_view">
<polygon fill="white" stroke="black" points="259.5,-851 259.5,-892 381.5,-892 381.5,-851 259.5,-851"/>
<text text-anchor="start" x="267.5" y="-880" font-family="Helvetica,sans-Serif" font-size="10.00">anonymous_namespace</text>
<text text-anchor="start" x="267.5" y="-869" font-family="Helvetica,sans-Serif" font-size="10.00">{BPFTest::cpp}::test</text>
<text text-anchor="middle" x="320.5" y="-858" font-family="Helvetica,sans-Serif" font-size="10.00">_file_type_view</text>
</a>
</g>
</g>
<!-- Node46&#45;&gt;Node47 -->
<g id="edge54" class="edge"><title>Node46&#45;&gt;Node47</title>
<path fill="none" stroke="midnightblue" d="M202.093,-831.813C217.418,-836.994 234.021,-842.606 249.782,-847.933"/>
<polygon fill="midnightblue" stroke="midnightblue" points="248.874,-851.321 259.468,-851.208 251.116,-844.69 248.874,-851.321"/>
</g>
<!-- Node48 -->
<g id="node48" class="node"><title>Node48</title>
<g id="a_node48"><a xlink:href="namespaceanonymous__namespace_02BPFTest_8cpp_03.html#ab4a782db2b08b92f3d539b7f01b290eb" target="_top" xlink:title="anonymous_namespace\l\{BPFTest::cpp\}::test\l_file_type_stream">
<polygon fill="white" stroke="red" points="259.5,-791 259.5,-832 381.5,-832 381.5,-791 259.5,-791"/>
<text text-anchor="start" x="267.5" y="-820" font-family="Helvetica,sans-Serif" font-size="10.00">anonymous_namespace</text>
<text text-anchor="start" x="267.5" y="-809" font-family="Helvetica,sans-Serif" font-size="10.00">{BPFTest::cpp}::test</text>
<text text-anchor="middle" x="320.5" y="-798" font-family="Helvetica,sans-Serif" font-size="10.00">_file_type_stream</text>
</a>
</g>
</g>
<!-- Node46&#45;&gt;Node48 -->
<g id="edge56" class="edge"><title>Node46&#45;&gt;Node48</title>
<path fill="none" stroke="midnightblue" d="M202.093,-811.5C217.274,-811.5 233.707,-811.5 249.336,-811.5"/>
<polygon fill="midnightblue" stroke="midnightblue" points="249.469,-815 259.468,-811.5 249.468,-808 249.469,-815"/>
</g>
<!-- Node47&#45;&gt;Node2 -->
<g id="edge55" class="edge"><title>Node47&#45;&gt;Node2</title>
<path fill="none" stroke="midnightblue" d="M381.697,-867.959C404.003,-866.647 429.217,-865.164 451.253,-863.867"/>
<polygon fill="midnightblue" stroke="midnightblue" points="451.682,-867.348 461.459,-863.267 451.271,-860.36 451.682,-867.348"/>
</g>
<!-- Node48&#45;&gt;Node2 -->
<g id="edge57" class="edge"><title>Node48&#45;&gt;Node2</title>
<path fill="none" stroke="midnightblue" d="M381.697,-827.274C407.879,-834.134 438.068,-842.044 462.42,-848.426"/>
<polygon fill="midnightblue" stroke="midnightblue" points="461.567,-851.82 472.127,-850.969 463.341,-845.049 461.567,-851.82"/>
</g>
<!-- Node48&#45;&gt;Node44 -->
<g id="edge58" class="edge"><title>Node48&#45;&gt;Node44</title>
<path fill="none" stroke="midnightblue" d="M381.697,-811.5C400.16,-811.5 420.616,-811.5 439.612,-811.5"/>
<polygon fill="midnightblue" stroke="midnightblue" points="439.693,-815 449.693,-811.5 439.693,-808 439.693,-815"/>
</g>
<!-- Node49&#45;&gt;Node5 -->
<g id="edge62" class="edge"><title>Node49&#45;&gt;Node5</title>
<path fill="none" stroke="midnightblue" d="M193.232,-975.48C264.036,-968.987 395.834,-958.5 508.5,-958.5 508.5,-958.5 508.5,-958.5 679.5,-958.5 761.037,-958.5 854.388,-945.609 914.09,-935.702"/>
<polygon fill="midnightblue" stroke="midnightblue" points="914.825,-939.128 924.105,-934.016 913.663,-932.225 914.825,-939.128"/>
</g>
<!-- Node49&#45;&gt;Node8 -->
<g id="edge60" class="edge"><title>Node49&#45;&gt;Node8</title>
<path fill="none" stroke="midnightblue" d="M183.363,-995.669C200.794,-1001.96 221.331,-1009.23 240,-1015.5 246.978,-1017.84 254.323,-1020.24 261.612,-1022.58"/>
<polygon fill="midnightblue" stroke="midnightblue" points="260.888,-1026.02 271.479,-1025.73 263.013,-1019.35 260.888,-1026.02"/>
</g>
<!-- Node50 -->
<g id="node50" class="node"><title>Node50</title>
<g id="a_node50"><a xlink:href="namespacepdal_1_1Utils.html#ab93520363c4224f135097c2829b4420c" target="_top" xlink:title="pdal::Utils::fromString">
<polygon fill="white" stroke="black" points="264.5,-987 264.5,-1006 376.5,-1006 376.5,-987 264.5,-987"/>
<text text-anchor="middle" x="320.5" y="-994" font-family="Helvetica,sans-Serif" font-size="10.00">pdal::Utils::fromString</text>
</a>
</g>
</g>
<!-- Node49&#45;&gt;Node50 -->
<g id="edge61" class="edge"><title>Node49&#45;&gt;Node50</title>
<path fill="none" stroke="midnightblue" d="M193.34,-985.128C212.347,-986.841 234.156,-988.807 254.237,-990.617"/>
<polygon fill="midnightblue" stroke="midnightblue" points="253.971,-994.107 264.244,-991.519 254.599,-987.135 253.971,-994.107"/>
</g>
</g>
</svg>
