<?xml version="1.0" encoding="UTF-8" standalone="no"?>
<!DOCTYPE svg PUBLIC "-//W3C//DTD SVG 1.1//EN"
 "http://www.w3.org/Graphics/SVG/1.1/DTD/svg11.dtd">
<!-- Generated by graphviz version 2.38.0 (20140413.2041)
 -->
<!-- Title: pdal::ColorizationFilter::filter Pages: 1 -->
<svg width="800pt" height="180pt"
 viewBox="0.00 0.00 800.00 180.00" xmlns="http://www.w3.org/2000/svg" xmlns:xlink="http://www.w3.org/1999/xlink">
<g id="graph0" class="graph" transform="scale(1 1) rotate(0) translate(4 176)">
<title>pdal::ColorizationFilter::filter</title>
<polygon fill="white" stroke="none" points="-4,4 -4,-176 796,-176 796,4 -4,4"/>
<!-- Node1 -->
<g id="node1" class="node"><title>Node1</title>
<polygon fill="#bfbfbf" stroke="black" points="0,-81 0,-111 114,-111 114,-81 0,-81"/>
<text text-anchor="start" x="8" y="-99" font-family="Helvetica,sans-Serif" font-size="10.00">pdal::ColorizationFilter</text>
<text text-anchor="middle" x="57" y="-88" font-family="Helvetica,sans-Serif" font-size="10.00">::filter</text>
</g>
<!-- Node2 -->
<g id="node2" class="node"><title>Node2</title>
<g id="a_node2"><a xlink:href="classpdal_1_1PointView.html#a8a70be04f4a4cc38c6f21a03364b3e52" target="_top" xlink:title="pdal::PointView::point">
<polygon fill="white" stroke="black" points="324.5,-152.5 324.5,-171.5 436.5,-171.5 436.5,-152.5 324.5,-152.5"/>
<text text-anchor="middle" x="380.5" y="-159.5" font-family="Helvetica,sans-Serif" font-size="10.00">pdal::PointView::point</text>
</a>
</g>
</g>
<!-- Node1&#45;&gt;Node2 -->
<g id="edge1" class="edge"><title>Node1&#45;&gt;Node2</title>
<path fill="none" stroke="midnightblue" d="M81.1564,-111.054C99.1558,-121.939 125.16,-135.926 150,-143 203.8,-158.322 267.347,-162.571 313.916,-163.274"/>
<polygon fill="midnightblue" stroke="midnightblue" points="314.145,-166.777 324.179,-163.376 314.214,-159.777 314.145,-166.777"/>
</g>
<!-- Node5 -->
<g id="node5" class="node"><title>Node5</title>
<g id="a_node5"><a xlink:href="classpdal_1_1ColorizationFilter.html#ad8cd226fee2afbd1ced7ea40e66990cf" target="_top" xlink:title="pdal::ColorizationFilter\l::processOne">
<polygon fill="white" stroke="black" points="157.5,-103 157.5,-133 271.5,-133 271.5,-103 157.5,-103"/>
<text text-anchor="start" x="165.5" y="-121" font-family="Helvetica,sans-Serif" font-size="10.00">pdal::ColorizationFilter</text>
<text text-anchor="middle" x="214.5" y="-110" font-family="Helvetica,sans-Serif" font-size="10.00">::processOne</text>
</a>
</g>
</g>
<!-- Node1&#45;&gt;Node5 -->
<g id="edge4" class="edge"><title>Node1&#45;&gt;Node5</title>
<path fill="none" stroke="midnightblue" d="M114.139,-103.943C124.929,-105.469 136.322,-107.081 147.393,-108.647"/>
<polygon fill="midnightblue" stroke="midnightblue" points="147.052,-112.134 157.443,-110.069 148.032,-105.203 147.052,-112.134"/>
</g>
<!-- Node13 -->
<g id="node13" class="node"><title>Node13</title>
<g id="a_node13"><a xlink:href="classpdal_1_1PointRef.html#af2252f383598b06c0756a6f0e9bad258" target="_top" xlink:title="pdal::PointRef::setPointId">
<polygon fill="white" stroke="black" points="150,-64.5 150,-83.5 279,-83.5 279,-64.5 150,-64.5"/>
<text text-anchor="middle" x="214.5" y="-71.5" font-family="Helvetica,sans-Serif" font-size="10.00">pdal::PointRef::setPointId</text>
</a>
</g>
</g>
<!-- Node1&#45;&gt;Node13 -->
<g id="edge15" class="edge"><title>Node1&#45;&gt;Node13</title>
<path fill="none" stroke="midnightblue" d="M114.139,-88.0575C122.455,-86.8809 131.13,-85.6537 139.739,-84.4357"/>
<polygon fill="midnightblue" stroke="midnightblue" points="140.378,-87.8801 149.79,-83.0137 139.398,-80.9491 140.378,-87.8801"/>
</g>
<!-- Node14 -->
<g id="node14" class="node"><title>Node14</title>
<g id="a_node14"><a xlink:href="classpdal_1_1PointView.html#a4c2fba9b5d7a61f19a558bb08405555d" target="_top" xlink:title="pdal::PointView::size">
<polygon fill="white" stroke="black" points="160,-26.5 160,-45.5 269,-45.5 269,-26.5 160,-26.5"/>
<text text-anchor="middle" x="214.5" y="-33.5" font-family="Helvetica,sans-Serif" font-size="10.00">pdal::PointView::size</text>
</a>
</g>
</g>
<!-- Node1&#45;&gt;Node14 -->
<g id="edge16" class="edge"><title>Node1&#45;&gt;Node14</title>
<path fill="none" stroke="midnightblue" d="M89.0956,-80.9441C106.731,-72.71 129.341,-62.6581 150,-55 156.019,-52.769 162.429,-50.6081 168.775,-48.5928"/>
<polygon fill="midnightblue" stroke="midnightblue" points="170.103,-51.8461 178.629,-45.5564 168.042,-45.1565 170.103,-51.8461"/>
</g>
<!-- Node3 -->
<g id="node3" class="node"><title>Node3</title>
<g id="a_node3"><a xlink:href="namespacepdal_1_1Dimension.html#a880d689fed54aa3ded6f88c9e058c5d2" target="_top" xlink:title="pdal::Dimension::type">
<polygon fill="white" stroke="black" points="514,-152.5 514,-171.5 626,-171.5 626,-152.5 514,-152.5"/>
<text text-anchor="middle" x="570" y="-159.5" font-family="Helvetica,sans-Serif" font-size="10.00">pdal::Dimension::type</text>
</a>
</g>
</g>
<!-- Node2&#45;&gt;Node3 -->
<g id="edge2" class="edge"><title>Node2&#45;&gt;Node3</title>
<path fill="none" stroke="midnightblue" d="M436.742,-162C457.724,-162 481.821,-162 503.65,-162"/>
<polygon fill="midnightblue" stroke="midnightblue" points="503.829,-165.5 513.829,-162 503.829,-158.5 503.829,-165.5"/>
</g>
<!-- Node4 -->
<g id="node4" class="node"><title>Node4</title>
<g id="a_node4"><a xlink:href="namespacepdal_1_1Utils.html#a5268937cf695835e55392f752dc02cb2" target="_top" xlink:title="pdal::Utils::tolower">
<polygon fill="white" stroke="black" points="694,-152.5 694,-171.5 792,-171.5 792,-152.5 694,-152.5"/>
<text text-anchor="middle" x="743" y="-159.5" font-family="Helvetica,sans-Serif" font-size="10.00">pdal::Utils::tolower</text>
</a>
</g>
</g>
<!-- Node3&#45;&gt;Node4 -->
<g id="edge3" class="edge"><title>Node3&#45;&gt;Node4</title>
<path fill="none" stroke="midnightblue" d="M626.047,-162C644.5,-162 665.129,-162 683.815,-162"/>
<polygon fill="midnightblue" stroke="midnightblue" points="683.969,-165.5 693.969,-162 683.969,-158.5 683.969,-165.5"/>
</g>
<!-- Node6 -->
<g id="node6" class="node"><title>Node6</title>
<g id="a_node6"><a xlink:href="classpdal_1_1PointRef.html#a4038a597d11918978943e286d58cd4c5" target="_top" xlink:title="pdal::PointRef::getFieldAs">
<polygon fill="white" stroke="black" points="315,-76.5 315,-95.5 446,-95.5 446,-76.5 315,-76.5"/>
<text text-anchor="middle" x="380.5" y="-83.5" font-family="Helvetica,sans-Serif" font-size="10.00">pdal::PointRef::getFieldAs</text>
</a>
</g>
</g>
<!-- Node5&#45;&gt;Node6 -->
<g id="edge5" class="edge"><title>Node5&#45;&gt;Node6</title>
<path fill="none" stroke="midnightblue" d="M271.939,-106.987C287.597,-103.932 304.635,-100.608 320.438,-97.5243"/>
<polygon fill="midnightblue" stroke="midnightblue" points="321.473,-100.888 330.617,-95.5381 320.132,-94.018 321.473,-100.888"/>
</g>
<!-- Node12 -->
<g id="node12" class="node"><title>Node12</title>
<g id="a_node12"><a xlink:href="classpdal_1_1PointRef.html#ad482c3195126757878cac8358dc9dccc" target="_top" xlink:title="pdal::PointRef::setField">
<polygon fill="white" stroke="black" points="321,-114.5 321,-133.5 440,-133.5 440,-114.5 321,-114.5"/>
<text text-anchor="middle" x="380.5" y="-121.5" font-family="Helvetica,sans-Serif" font-size="10.00">pdal::PointRef::setField</text>
</a>
</g>
</g>
<!-- Node5&#45;&gt;Node12 -->
<g id="edge12" class="edge"><title>Node5&#45;&gt;Node12</title>
<path fill="none" stroke="midnightblue" d="M271.939,-120.065C284.368,-120.52 297.668,-121.006 310.528,-121.477"/>
<polygon fill="midnightblue" stroke="midnightblue" points="310.602,-124.982 320.723,-121.85 310.858,-117.986 310.602,-124.982"/>
</g>
<!-- Node6&#45;&gt;Node3 -->
<g id="edge6" class="edge"><title>Node6&#45;&gt;Node3</title>
<path fill="none" stroke="midnightblue" d="M425.509,-95.5657C432.637,-98.0585 439.728,-101.159 446,-105 465.84,-117.149 461.738,-131.567 482,-143 488.816,-146.846 496.339,-149.914 504.022,-152.361"/>
<polygon fill="midnightblue" stroke="midnightblue" points="503.223,-155.773 513.799,-155.141 505.137,-149.04 503.223,-155.773"/>
</g>
<!-- Node7 -->
<g id="node7" class="node"><title>Node7</title>
<g id="a_node7"><a xlink:href="namespacepdal_1_1Utils.html#a33d614ac71aa03aaa5c10a242c4d14ac" target="_top" xlink:title="pdal::Utils::numericCast">
<polygon fill="white" stroke="black" points="509,-114.5 509,-133.5 631,-133.5 631,-114.5 509,-114.5"/>
<text text-anchor="middle" x="570" y="-121.5" font-family="Helvetica,sans-Serif" font-size="10.00">pdal::Utils::numericCast</text>
</a>
</g>
</g>
<!-- Node6&#45;&gt;Node7 -->
<g id="edge7" class="edge"><title>Node6&#45;&gt;Node7</title>
<path fill="none" stroke="midnightblue" d="M428.814,-95.589C454.114,-100.716 485.45,-107.067 512.075,-112.463"/>
<polygon fill="midnightblue" stroke="midnightblue" points="511.53,-115.924 522.026,-114.48 512.921,-109.063 511.53,-115.924"/>
</g>
<!-- Node9 -->
<g id="node9" class="node"><title>Node9</title>
<g id="a_node9"><a xlink:href="namespacepdal_1_1Dimension.html#af3176b0b7e6b4be000317846cf7c2718" target="_top" xlink:title="pdal::Dimension::name">
<polygon fill="white" stroke="black" points="511.5,-38.5 511.5,-57.5 628.5,-57.5 628.5,-38.5 511.5,-38.5"/>
<text text-anchor="middle" x="570" y="-45.5" font-family="Helvetica,sans-Serif" font-size="10.00">pdal::Dimension::name</text>
</a>
</g>
</g>
<!-- Node6&#45;&gt;Node9 -->
<g id="edge9" class="edge"><title>Node6&#45;&gt;Node9</title>
<path fill="none" stroke="midnightblue" d="M428.814,-76.411C454.114,-71.2835 485.45,-64.9328 512.075,-59.5368"/>
<polygon fill="midnightblue" stroke="midnightblue" points="512.921,-62.9367 522.026,-57.5201 511.53,-56.0762 512.921,-62.9367"/>
</g>
<!-- Node10 -->
<g id="node10" class="node"><title>Node10</title>
<g id="a_node10"><a xlink:href="namespacepdal_1_1Dimension.html#acc41232ae1e707d6c928ffb9a56592d3" target="_top" xlink:title="pdal::Dimension::interpretationName">
<polygon fill="white" stroke="black" points="482,-0.5 482,-19.5 658,-19.5 658,-0.5 482,-0.5"/>
<text text-anchor="middle" x="570" y="-7.5" font-family="Helvetica,sans-Serif" font-size="10.00">pdal::Dimension::interpretationName</text>
</a>
</g>
</g>
<!-- Node6&#45;&gt;Node10 -->
<g id="edge10" class="edge"><title>Node6&#45;&gt;Node10</title>
<path fill="none" stroke="midnightblue" d="M395.15,-76.4762C413.891,-63.8271 449.028,-41.6171 482,-29 488.927,-26.3492 496.314,-24.0246 503.744,-21.9971"/>
<polygon fill="midnightblue" stroke="midnightblue" points="504.682,-25.37 513.502,-19.5004 502.947,-18.5884 504.682,-25.37"/>
</g>
<!-- Node11 -->
<g id="node11" class="node"><title>Node11</title>
<g id="a_node11"><a xlink:href="namespacepdal_1_1Utils.html#a9b5b9ef216d7036c7cb36d219af17925" target="_top" xlink:title="pdal::Utils::toDouble">
<polygon fill="white" stroke="black" points="517,-76.5 517,-95.5 623,-95.5 623,-76.5 517,-76.5"/>
<text text-anchor="middle" x="570" y="-83.5" font-family="Helvetica,sans-Serif" font-size="10.00">pdal::Utils::toDouble</text>
</a>
</g>
</g>
<!-- Node6&#45;&gt;Node11 -->
<g id="edge11" class="edge"><title>Node6&#45;&gt;Node11</title>
<path fill="none" stroke="midnightblue" d="M446.027,-86C465.602,-86 487.066,-86 506.505,-86"/>
<polygon fill="midnightblue" stroke="midnightblue" points="506.767,-89.5001 516.767,-86 506.767,-82.5001 506.767,-89.5001"/>
</g>
<!-- Node8 -->
<g id="node8" class="node"><title>Node8</title>
<g id="a_node8"><a xlink:href="namespacepdal_1_1Utils.html#a06833597f1fc4287966cfa0867128e59" target="_top" xlink:title="pdal::Utils::sround">
<polygon fill="white" stroke="black" points="695,-114.5 695,-133.5 791,-133.5 791,-114.5 695,-114.5"/>
<text text-anchor="middle" x="743" y="-121.5" font-family="Helvetica,sans-Serif" font-size="10.00">pdal::Utils::sround</text>
</a>
</g>
</g>
<!-- Node7&#45;&gt;Node8 -->
<g id="edge8" class="edge"><title>Node7&#45;&gt;Node8</title>
<path fill="none" stroke="midnightblue" d="M631.288,-124C648.568,-124 667.356,-124 684.466,-124"/>
<polygon fill="midnightblue" stroke="midnightblue" points="684.873,-127.5 694.873,-124 684.873,-120.5 684.873,-127.5"/>
</g>
<!-- Node12&#45;&gt;Node3 -->
<g id="edge13" class="edge"><title>Node12&#45;&gt;Node3</title>
<path fill="none" stroke="midnightblue" d="M428.814,-133.589C454.114,-138.716 485.45,-145.067 512.075,-150.463"/>
<polygon fill="midnightblue" stroke="midnightblue" points="511.53,-153.924 522.026,-152.48 512.921,-147.063 511.53,-153.924"/>
</g>
<!-- Node12&#45;&gt;Node7 -->
<g id="edge14" class="edge"><title>Node12&#45;&gt;Node7</title>
<path fill="none" stroke="midnightblue" d="M440.055,-124C458.635,-124 479.374,-124 498.693,-124"/>
<polygon fill="midnightblue" stroke="midnightblue" points="498.951,-127.5 508.951,-124 498.951,-120.5 498.951,-127.5"/>
</g>
</g>
</svg>
