<?xml version="1.0" encoding="UTF-8" standalone="no"?>
<!DOCTYPE svg PUBLIC "-//W3C//DTD SVG 1.1//EN"
 "http://www.w3.org/Graphics/SVG/1.1/DTD/svg11.dtd">
<!-- Generated by graphviz version 2.38.0 (20140413.2041)
 -->
<!-- Title: pdal::MetadataNode::findChild Pages: 1 -->
<svg width="392pt" height="122pt"
 viewBox="0.00 0.00 392.00 121.93" xmlns="http://www.w3.org/2000/svg" xmlns:xlink="http://www.w3.org/1999/xlink">
<g id="graph0" class="graph" transform="scale(1 1) rotate(0) translate(4 117.928)">
<title>pdal::MetadataNode::findChild</title>
<polygon fill="white" stroke="none" points="-4,4 -4,-117.928 388,-117.928 388,4 -4,4"/>
<!-- Node1 -->
<g id="node1" class="node"><title>Node1</title>
<polygon fill="#bfbfbf" stroke="black" points="0,-49.5 0,-79.5 104,-79.5 104,-49.5 0,-49.5"/>
<text text-anchor="start" x="8" y="-67.5" font-family="Helvetica,sans-Serif" font-size="10.00">pdal::MetadataNode</text>
<text text-anchor="middle" x="52" y="-56.5" font-family="Helvetica,sans-Serif" font-size="10.00">::findChild</text>
</g>
<!-- Node2 -->
<g id="node2" class="node"><title>Node2</title>
<g id="a_node2"><a xlink:href="classpdal_1_1MetadataNode.html#a097ca6118bd2432005d1815dc23c6c1f" target="_top" xlink:title="pdal::MetadataNode\l::empty">
<polygon fill="white" stroke="black" points="280,-80.5 280,-110.5 384,-110.5 384,-80.5 280,-80.5"/>
<text text-anchor="start" x="288" y="-98.5" font-family="Helvetica,sans-Serif" font-size="10.00">pdal::MetadataNode</text>
<text text-anchor="middle" x="332" y="-87.5" font-family="Helvetica,sans-Serif" font-size="10.00">::empty</text>
</a>
</g>
</g>
<!-- Node1&#45;&gt;Node2 -->
<g id="edge1" class="edge"><title>Node1&#45;&gt;Node2</title>
<path fill="none" stroke="midnightblue" d="M76.2525,-79.6799C93.165,-89.7766 117.031,-102.134 140,-107.5 182.438,-117.415 231.53,-114.019 269.317,-108.35"/>
<polygon fill="midnightblue" stroke="midnightblue" points="270.336,-111.732 279.66,-106.7 269.234,-104.819 270.336,-111.732"/>
</g>
<!-- Node3 -->
<g id="node3" class="node"><title>Node3</title>
<g id="a_node3"><a xlink:href="classpdal_1_1MetadataNode.html#aac068a07b3c9efef69d82b8b2a036ab6" target="_top" xlink:title="pdal::MetadataNode\l::find">
<polygon fill="white" stroke="black" points="140,-49.5 140,-79.5 244,-79.5 244,-49.5 140,-49.5"/>
<text text-anchor="start" x="148" y="-67.5" font-family="Helvetica,sans-Serif" font-size="10.00">pdal::MetadataNode</text>
<text text-anchor="middle" x="192" y="-56.5" font-family="Helvetica,sans-Serif" font-size="10.00">::find</text>
</a>
</g>
</g>
<!-- Node1&#45;&gt;Node3 -->
<g id="edge2" class="edge"><title>Node1&#45;&gt;Node3</title>
<path fill="none" stroke="midnightblue" d="M104.386,-64.5C112.558,-64.5 121.083,-64.5 129.46,-64.5"/>
<polygon fill="midnightblue" stroke="midnightblue" points="129.571,-68.0001 139.571,-64.5 129.571,-61.0001 129.571,-68.0001"/>
</g>
<!-- Node4 -->
<g id="node4" class="node"><title>Node4</title>
<g id="a_node4"><a xlink:href="classpdal_1_1MetadataNode.html#a0c52985f2bedf620aea438ab1bce0af6" target="_top" xlink:title="pdal::MetadataNode\l::findChild">
<polygon fill="white" stroke="black" points="140,-0.5 140,-30.5 244,-30.5 244,-0.5 140,-0.5"/>
<text text-anchor="start" x="148" y="-18.5" font-family="Helvetica,sans-Serif" font-size="10.00">pdal::MetadataNode</text>
<text text-anchor="middle" x="192" y="-7.5" font-family="Helvetica,sans-Serif" font-size="10.00">::findChild</text>
</a>
</g>
</g>
<!-- Node1&#45;&gt;Node4 -->
<g id="edge5" class="edge"><title>Node1&#45;&gt;Node4</title>
<path fill="none" stroke="midnightblue" d="M95.5306,-49.3986C109.172,-44.5549 124.44,-39.1336 138.697,-34.0715"/>
<polygon fill="midnightblue" stroke="midnightblue" points="140.12,-37.2803 148.372,-30.6359 137.778,-30.6838 140.12,-37.2803"/>
</g>
<!-- Node3&#45;&gt;Node2 -->
<g id="edge3" class="edge"><title>Node3&#45;&gt;Node2</title>
<path fill="none" stroke="midnightblue" d="M244.386,-76.0433C252.648,-77.8992 261.271,-79.8362 269.736,-81.7379"/>
<polygon fill="midnightblue" stroke="midnightblue" points="269.047,-85.1702 279.571,-83.9471 270.581,-78.3404 269.047,-85.1702"/>
</g>
<!-- Node3&#45;&gt;Node3 -->
<g id="edge4" class="edge"><title>Node3&#45;&gt;Node3</title>
<path fill="none" stroke="midnightblue" d="M167.602,-79.659C161.719,-89.0566 169.852,-98 192,-98 205.497,-98 213.789,-94.679 216.876,-89.9579"/>
<polygon fill="midnightblue" stroke="midnightblue" points="220.358,-89.4858 216.398,-79.659 213.366,-89.8107 220.358,-89.4858"/>
</g>
</g>
</svg>
