<?xml version="1.0" encoding="UTF-8" standalone="no"?>
<!DOCTYPE svg PUBLIC "-//W3C//DTD SVG 1.1//EN"
 "http://www.w3.org/Graphics/SVG/1.1/DTD/svg11.dtd">
<!-- Generated by graphviz version 2.38.0 (20140413.2041)
 -->
<!-- Title: pdal::PipelineExecutor::getPipeline Pages: 1 -->
<svg width="559pt" height="102pt"
 viewBox="0.00 0.00 559.00 101.50" xmlns="http://www.w3.org/2000/svg" xmlns:xlink="http://www.w3.org/1999/xlink">
<g id="graph0" class="graph" transform="scale(1 1) rotate(0) translate(4 97.5)">
<title>pdal::PipelineExecutor::getPipeline</title>
<polygon fill="white" stroke="none" points="-4,4 -4,-97.5 555,-97.5 555,4 -4,4"/>
<!-- Node1 -->
<g id="node1" class="node"><title>Node1</title>
<polygon fill="#bfbfbf" stroke="black" points="0,-38 0,-68 114,-68 114,-38 0,-38"/>
<text text-anchor="start" x="8" y="-56" font-family="Helvetica,sans-Serif" font-size="10.00">pdal::PipelineExecutor</text>
<text text-anchor="middle" x="57" y="-45" font-family="Helvetica,sans-Serif" font-size="10.00">::getPipeline</text>
</g>
<!-- Node2 -->
<g id="node2" class="node"><title>Node2</title>
<g id="a_node2"><a xlink:href="classpdal_1_1PipelineManager.html#a0d1a3762d8fd3528468d9b0bfb794585" target="_top" xlink:title="pdal::PipelineManager\l::getStage">
<polygon fill="white" stroke="black" points="150,-63 150,-93 263,-93 263,-63 150,-63"/>
<text text-anchor="start" x="158" y="-81" font-family="Helvetica,sans-Serif" font-size="10.00">pdal::PipelineManager</text>
<text text-anchor="middle" x="206.5" y="-70" font-family="Helvetica,sans-Serif" font-size="10.00">::getStage</text>
</a>
</g>
</g>
<!-- Node1&#45;&gt;Node2 -->
<g id="edge1" class="edge"><title>Node1&#45;&gt;Node2</title>
<path fill="none" stroke="midnightblue" d="M114.184,-62.5227C122.61,-63.9509 131.362,-65.4342 139.962,-66.8918"/>
<polygon fill="midnightblue" stroke="midnightblue" points="139.516,-70.366 149.96,-68.5864 140.685,-63.4645 139.516,-70.366"/>
</g>
<!-- Node3 -->
<g id="node3" class="node"><title>Node3</title>
<g id="a_node3"><a xlink:href="namespacepdal_1_1PipelineWriter.html#ae63bae8c6ef7bc4260f70d19bf9948b7" target="_top" xlink:title="pdal::PipelineWriter\l::writePipeline">
<polygon fill="white" stroke="black" points="156,-14 156,-44 257,-44 257,-14 156,-14"/>
<text text-anchor="start" x="164" y="-32" font-family="Helvetica,sans-Serif" font-size="10.00">pdal::PipelineWriter</text>
<text text-anchor="middle" x="206.5" y="-21" font-family="Helvetica,sans-Serif" font-size="10.00">::writePipeline</text>
</a>
</g>
</g>
<!-- Node1&#45;&gt;Node3 -->
<g id="edge2" class="edge"><title>Node1&#45;&gt;Node3</title>
<path fill="none" stroke="midnightblue" d="M114.184,-43.8582C124.549,-42.1717 135.405,-40.4052 145.868,-38.7028"/>
<polygon fill="midnightblue" stroke="midnightblue" points="146.442,-42.1556 155.75,-37.095 145.317,-35.2465 146.442,-42.1556"/>
</g>
<!-- Node4 -->
<g id="node4" class="node"><title>Node4</title>
<g id="a_node4"><a xlink:href="namespacepdal_1_1Utils.html#afc186e6df66a9d8e26b8d434d7eb9be5" target="_top" xlink:title="pdal::Utils::createFile">
<polygon fill="white" stroke="black" points="299,-38.5 299,-57.5 409,-57.5 409,-38.5 299,-38.5"/>
<text text-anchor="middle" x="354" y="-45.5" font-family="Helvetica,sans-Serif" font-size="10.00">pdal::Utils::createFile</text>
</a>
</g>
</g>
<!-- Node3&#45;&gt;Node4 -->
<g id="edge3" class="edge"><title>Node3&#45;&gt;Node4</title>
<path fill="none" stroke="midnightblue" d="M257.166,-35.4856C267.335,-36.8135 278.175,-38.2291 288.771,-39.6127"/>
<polygon fill="midnightblue" stroke="midnightblue" points="288.456,-43.1012 298.825,-40.9256 289.363,-36.1602 288.456,-43.1012"/>
</g>
<!-- Node6 -->
<g id="node6" class="node"><title>Node6</title>
<g id="a_node6"><a xlink:href="namespacepdal_1_1Utils.html#aad48cdff8e3ff3d13c7a273583870185" target="_top" xlink:title="pdal::Utils::closeFile">
<polygon fill="white" stroke="black" points="301,-0.5 301,-19.5 407,-19.5 407,-0.5 301,-0.5"/>
<text text-anchor="middle" x="354" y="-7.5" font-family="Helvetica,sans-Serif" font-size="10.00">pdal::Utils::closeFile</text>
</a>
</g>
</g>
<!-- Node3&#45;&gt;Node6 -->
<g id="edge5" class="edge"><title>Node3&#45;&gt;Node6</title>
<path fill="none" stroke="midnightblue" d="M257.166,-22.5144C267.881,-21.1152 279.341,-19.6187 290.476,-18.1647"/>
<polygon fill="midnightblue" stroke="midnightblue" points="291.116,-21.6109 300.579,-16.8454 290.21,-14.6698 291.116,-21.6109"/>
</g>
<!-- Node5 -->
<g id="node5" class="node"><title>Node5</title>
<g id="a_node5"><a xlink:href="SQLiteTest_8cpp.html#afdd1742979cee35fe1879794bd7ff3a4" target="_top" xlink:title="tempFilename">
<polygon fill="white" stroke="black" points="459,-38.5 459,-57.5 537,-57.5 537,-38.5 459,-38.5"/>
<text text-anchor="middle" x="498" y="-45.5" font-family="Helvetica,sans-Serif" font-size="10.00">tempFilename</text>
</a>
</g>
</g>
<!-- Node4&#45;&gt;Node5 -->
<g id="edge4" class="edge"><title>Node4&#45;&gt;Node5</title>
<path fill="none" stroke="midnightblue" d="M409.089,-48C422.07,-48 435.852,-48 448.559,-48"/>
<polygon fill="midnightblue" stroke="midnightblue" points="448.938,-51.5001 458.938,-48 448.938,-44.5001 448.938,-51.5001"/>
</g>
<!-- Node7 -->
<g id="node7" class="node"><title>Node7</title>
<g id="a_node7"><a xlink:href="namespacepdal_1_1Utils.html#a6ce7036b0912ba81b1f1a876b2772a34" target="_top" xlink:title="pdal::Utils::closeFile">
<polygon fill="white" stroke="black" points="445,-0.5 445,-19.5 551,-19.5 551,-0.5 445,-0.5"/>
<text text-anchor="middle" x="498" y="-7.5" font-family="Helvetica,sans-Serif" font-size="10.00">pdal::Utils::closeFile</text>
</a>
</g>
</g>
<!-- Node6&#45;&gt;Node7 -->
<g id="edge6" class="edge"><title>Node6&#45;&gt;Node7</title>
<path fill="none" stroke="midnightblue" d="M407.069,-10C416.041,-10 425.447,-10 434.657,-10"/>
<polygon fill="midnightblue" stroke="midnightblue" points="434.937,-13.5001 444.937,-10 434.937,-6.5001 434.937,-13.5001"/>
</g>
</g>
</svg>
