<?xml version="1.0" encoding="UTF-8" standalone="no"?>
<!DOCTYPE svg PUBLIC "-//W3C//DTD SVG 1.1//EN"
 "http://www.w3.org/Graphics/SVG/1.1/DTD/svg11.dtd">
<!-- Generated by graphviz version 2.38.0 (20140413.2041)
 -->
<!-- Title: pdal::DimBuilder::writeOutput Pages: 1 -->
<svg width="553pt" height="278pt"
 viewBox="0.00 0.00 553.00 277.50" xmlns="http://www.w3.org/2000/svg" xmlns:xlink="http://www.w3.org/1999/xlink">
<g id="graph0" class="graph" transform="scale(1 1) rotate(0) translate(4 273.5)">
<title>pdal::DimBuilder::writeOutput</title>
<polygon fill="white" stroke="none" points="-4,4 -4,-273.5 549,-273.5 549,4 -4,4"/>
<!-- Node1 -->
<g id="node1" class="node"><title>Node1</title>
<polygon fill="#bfbfbf" stroke="black" points="0,-136 0,-155 145,-155 145,-136 0,-136"/>
<text text-anchor="middle" x="72.5" y="-143" font-family="Helvetica,sans-Serif" font-size="10.00">pdal::DimBuilder::writeOutput</text>
</g>
<!-- Node2 -->
<g id="node2" class="node"><title>Node2</title>
<g id="a_node2"><a xlink:href="classpdal_1_1DimBuilder.html#aa465ecf10aca86dbbb88442abc18b6f7" target="_top" xlink:title="pdal::DimBuilder::writeDescriptions">
<polygon fill="white" stroke="black" points="181,-250 181,-269 351,-269 351,-250 181,-250"/>
<text text-anchor="middle" x="266" y="-257" font-family="Helvetica,sans-Serif" font-size="10.00">pdal::DimBuilder::writeDescriptions</text>
</a>
</g>
</g>
<!-- Node1&#45;&gt;Node2 -->
<g id="edge1" class="edge"><title>Node1&#45;&gt;Node2</title>
<path fill="none" stroke="midnightblue" d="M81.2863,-155.044C97.616,-174.386 137.545,-218.257 181,-240.5 185.623,-242.866 190.538,-244.94 195.58,-246.758"/>
<polygon fill="midnightblue" stroke="midnightblue" points="194.799,-250.184 205.391,-249.946 196.962,-243.527 194.799,-250.184"/>
</g>
<!-- Node4 -->
<g id="node4" class="node"><title>Node4</title>
<g id="a_node4"><a xlink:href="classpdal_1_1DimBuilder.html#aa5e7836a1d8a39b25409f0286e493b1c" target="_top" xlink:title="pdal::DimBuilder::writeFooter">
<polygon fill="white" stroke="black" points="194.5,-212 194.5,-231 337.5,-231 337.5,-212 194.5,-212"/>
<text text-anchor="middle" x="266" y="-219" font-family="Helvetica,sans-Serif" font-size="10.00">pdal::DimBuilder::writeFooter</text>
</a>
</g>
</g>
<!-- Node1&#45;&gt;Node4 -->
<g id="edge3" class="edge"><title>Node1&#45;&gt;Node4</title>
<path fill="none" stroke="midnightblue" d="M88.5654,-155.149C108.83,-167.733 146.337,-189.651 181,-202.5 188.019,-205.102 195.504,-207.413 203.006,-209.447"/>
<polygon fill="midnightblue" stroke="midnightblue" points="202.284,-212.875 212.84,-211.963 204.019,-206.093 202.284,-212.875"/>
</g>
<!-- Node5 -->
<g id="node5" class="node"><title>Node5</title>
<g id="a_node5"><a xlink:href="classpdal_1_1DimBuilder.html#aabf17cbb51b7f539e51fa2690b381f4c" target="_top" xlink:title="pdal::DimBuilder::writeHeader">
<polygon fill="white" stroke="black" points="192.5,-174 192.5,-193 339.5,-193 339.5,-174 192.5,-174"/>
<text text-anchor="middle" x="266" y="-181" font-family="Helvetica,sans-Serif" font-size="10.00">pdal::DimBuilder::writeHeader</text>
</a>
</g>
</g>
<!-- Node1&#45;&gt;Node5 -->
<g id="edge4" class="edge"><title>Node1&#45;&gt;Node5</title>
<path fill="none" stroke="midnightblue" d="M121.824,-155.089C147.663,-160.216 179.668,-166.567 206.861,-171.963"/>
<polygon fill="midnightblue" stroke="midnightblue" points="206.534,-175.467 217.024,-173.98 207.896,-168.6 206.534,-175.467"/>
</g>
<!-- Node6 -->
<g id="node6" class="node"><title>Node6</title>
<g id="a_node6"><a xlink:href="classpdal_1_1DimBuilder.html#a63af00f4925dc2f90a21256073efa78f" target="_top" xlink:title="pdal::DimBuilder::writeIds">
<polygon fill="white" stroke="black" points="201.5,-136 201.5,-155 330.5,-155 330.5,-136 201.5,-136"/>
<text text-anchor="middle" x="266" y="-143" font-family="Helvetica,sans-Serif" font-size="10.00">pdal::DimBuilder::writeIds</text>
</a>
</g>
</g>
<!-- Node1&#45;&gt;Node6 -->
<g id="edge5" class="edge"><title>Node1&#45;&gt;Node6</title>
<path fill="none" stroke="midnightblue" d="M145.08,-145.5C160.099,-145.5 175.967,-145.5 191.07,-145.5"/>
<polygon fill="midnightblue" stroke="midnightblue" points="191.384,-149 201.384,-145.5 191.384,-142 191.384,-149"/>
</g>
<!-- Node7 -->
<g id="node7" class="node"><title>Node7</title>
<g id="a_node7"><a xlink:href="classpdal_1_1DimBuilder.html#a2cfa57a262035d6eec9c33ec72343232" target="_top" xlink:title="pdal::DimBuilder::writeId\lToName">
<polygon fill="white" stroke="black" points="204,-86.5 204,-116.5 328,-116.5 328,-86.5 204,-86.5"/>
<text text-anchor="start" x="212" y="-104.5" font-family="Helvetica,sans-Serif" font-size="10.00">pdal::DimBuilder::writeId</text>
<text text-anchor="middle" x="266" y="-93.5" font-family="Helvetica,sans-Serif" font-size="10.00">ToName</text>
</a>
</g>
</g>
<!-- Node1&#45;&gt;Node7 -->
<g id="edge6" class="edge"><title>Node1&#45;&gt;Node7</title>
<path fill="none" stroke="midnightblue" d="M115.053,-135.953C138.073,-130.663 167.324,-123.942 193.868,-117.844"/>
<polygon fill="midnightblue" stroke="midnightblue" points="194.928,-121.191 203.89,-115.541 193.36,-114.369 194.928,-121.191"/>
</g>
<!-- Node8 -->
<g id="node8" class="node"><title>Node8</title>
<g id="a_node8"><a xlink:href="classpdal_1_1DimBuilder.html#a6595bd77e7f44080ac436c3be33041fb" target="_top" xlink:title="pdal::DimBuilder::writeNameToId">
<polygon fill="white" stroke="black" points="185.5,-48 185.5,-67 346.5,-67 346.5,-48 185.5,-48"/>
<text text-anchor="middle" x="266" y="-55" font-family="Helvetica,sans-Serif" font-size="10.00">pdal::DimBuilder::writeNameToId</text>
</a>
</g>
</g>
<!-- Node1&#45;&gt;Node8 -->
<g id="edge7" class="edge"><title>Node1&#45;&gt;Node8</title>
<path fill="none" stroke="midnightblue" d="M85.2951,-135.936C104.293,-121.011 143.361,-92.2603 181,-76.5 187.116,-73.9392 193.633,-71.6955 200.229,-69.7359"/>
<polygon fill="midnightblue" stroke="midnightblue" points="201.204,-73.0979 209.913,-67.0642 199.342,-66.35 201.204,-73.0979"/>
</g>
<!-- Node10 -->
<g id="node10" class="node"><title>Node10</title>
<g id="a_node10"><a xlink:href="classpdal_1_1DimBuilder.html#a4edb34d9cfecc820ed55ace4c19cd511" target="_top" xlink:title="pdal::DimBuilder::writeTypes">
<polygon fill="white" stroke="black" points="194.5,-9 194.5,-28 337.5,-28 337.5,-9 194.5,-9"/>
<text text-anchor="middle" x="266" y="-16" font-family="Helvetica,sans-Serif" font-size="10.00">pdal::DimBuilder::writeTypes</text>
</a>
</g>
</g>
<!-- Node1&#45;&gt;Node10 -->
<g id="edge9" class="edge"><title>Node1&#45;&gt;Node10</title>
<path fill="none" stroke="midnightblue" d="M80.3071,-135.742C95.658,-114.515 135.226,-64.0083 181,-38.5 185.911,-35.7635 191.185,-33.3995 196.611,-31.3577"/>
<polygon fill="midnightblue" stroke="midnightblue" points="198.142,-34.535 206.497,-28.0194 195.902,-27.9029 198.142,-34.535"/>
</g>
<!-- Node3 -->
<g id="node3" class="node"><title>Node3</title>
<g id="a_node3"><a xlink:href="namespacepdal_1_1Utils.html#a93c849f4f0e3842f731be8c699ab57b9" target="_top" xlink:title="pdal::Utils::wordWrap2">
<polygon fill="white" stroke="black" points="408,-250 408,-269 524,-269 524,-250 408,-250"/>
<text text-anchor="middle" x="466" y="-257" font-family="Helvetica,sans-Serif" font-size="10.00">pdal::Utils::wordWrap2</text>
</a>
</g>
</g>
<!-- Node2&#45;&gt;Node3 -->
<g id="edge2" class="edge"><title>Node2&#45;&gt;Node3</title>
<path fill="none" stroke="midnightblue" d="M351.257,-259.5C366.736,-259.5 382.707,-259.5 397.61,-259.5"/>
<polygon fill="midnightblue" stroke="midnightblue" points="397.738,-263 407.738,-259.5 397.738,-256 397.738,-263"/>
</g>
<!-- Node9 -->
<g id="node9" class="node"><title>Node9</title>
<g id="a_node9"><a xlink:href="namespacepdal_1_1Utils.html#a28e3e2faff94b20f9908e77bc54ed983" target="_top" xlink:title="pdal::Utils::toupper">
<polygon fill="white" stroke="black" points="416.5,-50 416.5,-69 515.5,-69 515.5,-50 416.5,-50"/>
<text text-anchor="middle" x="466" y="-57" font-family="Helvetica,sans-Serif" font-size="10.00">pdal::Utils::toupper</text>
</a>
</g>
</g>
<!-- Node8&#45;&gt;Node9 -->
<g id="edge8" class="edge"><title>Node8&#45;&gt;Node9</title>
<path fill="none" stroke="midnightblue" d="M346.678,-58.3048C366.535,-58.5054 387.47,-58.7169 406.119,-58.9052"/>
<polygon fill="midnightblue" stroke="midnightblue" points="406.189,-62.406 416.223,-59.0073 406.259,-55.4064 406.189,-62.406"/>
</g>
<!-- Node11 -->
<g id="node11" class="node"><title>Node11</title>
<g id="a_node11"><a xlink:href="namespacepdal_1_1anonymous__namespace_02DimBuilder_8cpp_03.html#a72b35da8e486b073e2fd2bcbc1d80ecf" target="_top" xlink:title="pdal::anonymous_namespace\l\{DimBuilder::cpp\}::getTypename">
<polygon fill="white" stroke="black" points="387,-0.5 387,-30.5 545,-30.5 545,-0.5 387,-0.5"/>
<text text-anchor="start" x="395" y="-18.5" font-family="Helvetica,sans-Serif" font-size="10.00">pdal::anonymous_namespace</text>
<text text-anchor="middle" x="466" y="-7.5" font-family="Helvetica,sans-Serif" font-size="10.00">{DimBuilder::cpp}::getTypename</text>
</a>
</g>
</g>
<!-- Node10&#45;&gt;Node11 -->
<g id="edge10" class="edge"><title>Node10&#45;&gt;Node11</title>
<path fill="none" stroke="midnightblue" d="M337.644,-17.4296C350.388,-17.2365 363.817,-17.0331 376.983,-16.8336"/>
<polygon fill="midnightblue" stroke="midnightblue" points="377.039,-20.3332 386.985,-16.682 376.933,-13.334 377.039,-20.3332"/>
</g>
</g>
</svg>
