<?xml version="1.0" encoding="UTF-8" standalone="no"?>
<!DOCTYPE svg PUBLIC "-//W3C//DTD SVG 1.1//EN"
 "http://www.w3.org/Graphics/SVG/1.1/DTD/svg11.dtd">
<!-- Generated by graphviz version 2.38.0 (20140413.2041)
 -->
<!-- Title: pdal::PlyReader::extractProperty Pages: 1 -->
<svg width="599pt" height="180pt"
 viewBox="0.00 0.00 599.00 180.00" xmlns="http://www.w3.org/2000/svg" xmlns:xlink="http://www.w3.org/1999/xlink">
<g id="graph0" class="graph" transform="scale(1 1) rotate(0) translate(4 176)">
<title>pdal::PlyReader::extractProperty</title>
<polygon fill="white" stroke="none" points="-4,4 -4,-176 595,-176 595,4 -4,4"/>
<!-- Node1 -->
<g id="node1" class="node"><title>Node1</title>
<polygon fill="#bfbfbf" stroke="black" points="0,-71 0,-101 122,-101 122,-71 0,-71"/>
<text text-anchor="start" x="8" y="-89" font-family="Helvetica,sans-Serif" font-size="10.00">pdal::PlyReader::extract</text>
<text text-anchor="middle" x="61" y="-78" font-family="Helvetica,sans-Serif" font-size="10.00">Property</text>
</g>
<!-- Node2 -->
<g id="node2" class="node"><title>Node2</title>
<g id="a_node2"><a xlink:href="classpdal_1_1PlyReader.html#af687933c7ab3d57e3fdfcbfce6d0e6f9" target="_top" xlink:title="pdal::PlyReader::getType">
<polygon fill="white" stroke="black" points="161,-152.5 161,-171.5 289,-171.5 289,-152.5 161,-152.5"/>
<text text-anchor="middle" x="225" y="-159.5" font-family="Helvetica,sans-Serif" font-size="10.00">pdal::PlyReader::getType</text>
</a>
</g>
</g>
<!-- Node1&#45;&gt;Node2 -->
<g id="edge1" class="edge"><title>Node1&#45;&gt;Node2</title>
<path fill="none" stroke="midnightblue" d="M83.6432,-101.039C102.562,-113.641 131.135,-131.386 158,-143 163.399,-145.334 169.168,-147.474 174.963,-149.408"/>
<polygon fill="midnightblue" stroke="midnightblue" points="174.092,-152.803 184.682,-152.466 176.194,-146.126 174.092,-152.803"/>
</g>
<!-- Node3 -->
<g id="node3" class="node"><title>Node3</title>
<g id="a_node3"><a xlink:href="namespacepdal_1_1Dimension.html#af3176b0b7e6b4be000317846cf7c2718" target="_top" xlink:title="pdal::Dimension::name">
<polygon fill="white" stroke="black" points="166.5,-114.5 166.5,-133.5 283.5,-133.5 283.5,-114.5 166.5,-114.5"/>
<text text-anchor="middle" x="225" y="-121.5" font-family="Helvetica,sans-Serif" font-size="10.00">pdal::Dimension::name</text>
</a>
</g>
</g>
<!-- Node1&#45;&gt;Node3 -->
<g id="edge2" class="edge"><title>Node1&#45;&gt;Node3</title>
<path fill="none" stroke="midnightblue" d="M122.323,-100.15C139.159,-104.099 157.273,-108.348 173.48,-112.15"/>
<polygon fill="midnightblue" stroke="midnightblue" points="172.762,-115.576 183.297,-114.452 174.361,-108.761 172.762,-115.576"/>
</g>
<!-- Node4 -->
<g id="node4" class="node"><title>Node4</title>
<g id="a_node4"><a xlink:href="classpdal_1_1PlyReader.html#aa62e075130f0a99301f45f848b0a4c85" target="_top" xlink:title="pdal::PlyReader::nextWord">
<polygon fill="white" stroke="black" points="158,-76.5 158,-95.5 292,-95.5 292,-76.5 158,-76.5"/>
<text text-anchor="middle" x="225" y="-83.5" font-family="Helvetica,sans-Serif" font-size="10.00">pdal::PlyReader::nextWord</text>
</a>
</g>
</g>
<!-- Node1&#45;&gt;Node4 -->
<g id="edge3" class="edge"><title>Node1&#45;&gt;Node4</title>
<path fill="none" stroke="midnightblue" d="M122.323,-86C130.664,-86 139.318,-86 147.899,-86"/>
<polygon fill="midnightblue" stroke="midnightblue" points="147.915,-89.5001 157.915,-86 147.915,-82.5001 147.915,-89.5001"/>
</g>
<!-- Node7 -->
<g id="node7" class="node"><title>Node7</title>
<g id="a_node7"><a xlink:href="classpdal_1_1Stage.html#abdbd1176da12dfd882d931a43290797f" target="_top" xlink:title="pdal::Stage::throwError">
<polygon fill="white" stroke="black" points="166.5,-38.5 166.5,-57.5 283.5,-57.5 283.5,-38.5 166.5,-38.5"/>
<text text-anchor="middle" x="225" y="-45.5" font-family="Helvetica,sans-Serif" font-size="10.00">pdal::Stage::throwError</text>
</a>
</g>
</g>
<!-- Node1&#45;&gt;Node7 -->
<g id="edge7" class="edge"><title>Node1&#45;&gt;Node7</title>
<path fill="none" stroke="midnightblue" d="M122.323,-71.8502C139.159,-67.9009 157.273,-63.6521 173.48,-59.8503"/>
<polygon fill="midnightblue" stroke="midnightblue" points="174.361,-63.2389 183.297,-57.5476 172.762,-56.4239 174.361,-63.2389"/>
</g>
<!-- Node9 -->
<g id="node9" class="node"><title>Node9</title>
<g id="a_node9"><a xlink:href="namespacepdal_1_1Dimension.html#a880d689fed54aa3ded6f88c9e058c5d2" target="_top" xlink:title="pdal::Dimension::type">
<polygon fill="white" stroke="black" points="169,-0.5 169,-19.5 281,-19.5 281,-0.5 169,-0.5"/>
<text text-anchor="middle" x="225" y="-7.5" font-family="Helvetica,sans-Serif" font-size="10.00">pdal::Dimension::type</text>
</a>
</g>
</g>
<!-- Node1&#45;&gt;Node9 -->
<g id="edge9" class="edge"><title>Node1&#45;&gt;Node9</title>
<path fill="none" stroke="midnightblue" d="M83.6432,-70.9606C102.562,-58.3587 131.135,-40.6145 158,-29 163.399,-26.666 169.168,-24.526 174.963,-22.5919"/>
<polygon fill="midnightblue" stroke="midnightblue" points="176.194,-25.874 184.682,-19.5335 174.092,-19.1969 176.194,-25.874"/>
</g>
<!-- Node5 -->
<g id="node5" class="node"><title>Node5</title>
<g id="a_node5"><a xlink:href="namespacepdal_1_1Utils.html#a9bda8c5dbe5ef7cf66e99ba022184934" target="_top" xlink:title="pdal::Utils::extractSpaces">
<polygon fill="white" stroke="black" points="328,-114.5 328,-133.5 458,-133.5 458,-114.5 328,-114.5"/>
<text text-anchor="middle" x="393" y="-121.5" font-family="Helvetica,sans-Serif" font-size="10.00">pdal::Utils::extractSpaces</text>
</a>
</g>
</g>
<!-- Node4&#45;&gt;Node5 -->
<g id="edge4" class="edge"><title>Node4&#45;&gt;Node5</title>
<path fill="none" stroke="midnightblue" d="M267.889,-95.589C289.893,-100.626 317.055,-106.844 340.352,-112.177"/>
<polygon fill="midnightblue" stroke="midnightblue" points="339.884,-115.66 350.412,-114.48 341.446,-108.837 339.884,-115.66"/>
</g>
<!-- Node6 -->
<g id="node6" class="node"><title>Node6</title>
<g id="a_node6"><a xlink:href="namespacepdal_1_1Utils.html#acae5a19cd66121b77e2599daec48413d" target="_top" xlink:title="pdal::Utils::extract">
<polygon fill="white" stroke="black" points="494,-95.5 494,-114.5 591,-114.5 591,-95.5 494,-95.5"/>
<text text-anchor="middle" x="542.5" y="-102.5" font-family="Helvetica,sans-Serif" font-size="10.00">pdal::Utils::extract</text>
</a>
</g>
</g>
<!-- Node4&#45;&gt;Node6 -->
<g id="edge6" class="edge"><title>Node4&#45;&gt;Node6</title>
<path fill="none" stroke="midnightblue" d="M292.139,-89.983C348.836,-93.3974 429.695,-98.2669 483.807,-101.526"/>
<polygon fill="midnightblue" stroke="midnightblue" points="483.73,-105.027 493.922,-102.135 484.151,-98.0399 483.73,-105.027"/>
</g>
<!-- Node5&#45;&gt;Node6 -->
<g id="edge5" class="edge"><title>Node5&#45;&gt;Node6</title>
<path fill="none" stroke="midnightblue" d="M458.267,-115.722C466.766,-114.627 475.437,-113.51 483.816,-112.43"/>
<polygon fill="midnightblue" stroke="midnightblue" points="484.392,-115.885 493.862,-111.136 483.497,-108.943 484.392,-115.885"/>
</g>
<!-- Node8 -->
<g id="node8" class="node"><title>Node8</title>
<g id="a_node8"><a xlink:href="classpdal_1_1Stage.html#a6c81d6fbbac17ebe4cd63806916cc750" target="_top" xlink:title="pdal::Stage::getName">
<polygon fill="white" stroke="black" points="337,-38.5 337,-57.5 449,-57.5 449,-38.5 337,-38.5"/>
<text text-anchor="middle" x="393" y="-45.5" font-family="Helvetica,sans-Serif" font-size="10.00">pdal::Stage::getName</text>
</a>
</g>
</g>
<!-- Node7&#45;&gt;Node8 -->
<g id="edge8" class="edge"><title>Node7&#45;&gt;Node8</title>
<path fill="none" stroke="midnightblue" d="M283.593,-48C297.458,-48 312.369,-48 326.563,-48"/>
<polygon fill="midnightblue" stroke="midnightblue" points="326.746,-51.5001 336.746,-48 326.746,-44.5001 326.746,-51.5001"/>
</g>
<!-- Node10 -->
<g id="node10" class="node"><title>Node10</title>
<g id="a_node10"><a xlink:href="namespacepdal_1_1Utils.html#a5268937cf695835e55392f752dc02cb2" target="_top" xlink:title="pdal::Utils::tolower">
<polygon fill="white" stroke="black" points="344,-0.5 344,-19.5 442,-19.5 442,-0.5 344,-0.5"/>
<text text-anchor="middle" x="393" y="-7.5" font-family="Helvetica,sans-Serif" font-size="10.00">pdal::Utils::tolower</text>
</a>
</g>
</g>
<!-- Node9&#45;&gt;Node10 -->
<g id="edge10" class="edge"><title>Node9&#45;&gt;Node10</title>
<path fill="none" stroke="midnightblue" d="M281.276,-10C298.068,-10 316.571,-10 333.565,-10"/>
<polygon fill="midnightblue" stroke="midnightblue" points="333.922,-13.5001 343.921,-10 333.921,-6.5001 333.922,-13.5001"/>
</g>
</g>
</svg>
