<?xml version="1.0" encoding="UTF-8" standalone="no"?>
<!DOCTYPE svg PUBLIC "-//W3C//DTD SVG 1.1//EN"
 "http://www.w3.org/Graphics/SVG/1.1/DTD/svg11.dtd">
<!-- Generated by graphviz version 2.38.0 (20140413.2041)
 -->
<!-- Title: pdal::NitfWriter Pages: 1 -->
<svg width="94pt" height="252pt"
 viewBox="0.00 0.00 94.00 252.00" xmlns="http://www.w3.org/2000/svg" xmlns:xlink="http://www.w3.org/1999/xlink">
<g id="graph0" class="graph" transform="scale(1 1) rotate(0) translate(4 248)">
<title>pdal::NitfWriter</title>
<polygon fill="white" stroke="none" points="-4,4 -4,-248 90,-248 90,4 -4,4"/>
<!-- Node1 -->
<g id="node1" class="node"><title>Node1</title>
<polygon fill="#bfbfbf" stroke="black" points="1.5,-0.5 1.5,-19.5 84.5,-19.5 84.5,-0.5 1.5,-0.5"/>
<text text-anchor="middle" x="43" y="-7.5" font-family="Helvetica,sans-Serif" font-size="10.00">pdal::NitfWriter</text>
</g>
<!-- Node2 -->
<g id="node2" class="node"><title>Node2</title>
<g id="a_node2"><a xlink:href="classpdal_1_1LasWriter.html" target="_top" xlink:title="pdal::LasWriter">
<polygon fill="white" stroke="black" points="1.5,-56.5 1.5,-75.5 84.5,-75.5 84.5,-56.5 1.5,-56.5"/>
<text text-anchor="middle" x="43" y="-63.5" font-family="Helvetica,sans-Serif" font-size="10.00">pdal::LasWriter</text>
</a>
</g>
</g>
<!-- Node2&#45;&gt;Node1 -->
<g id="edge1" class="edge"><title>Node2&#45;&gt;Node1</title>
<path fill="none" stroke="midnightblue" d="M43,-45.8045C43,-36.9102 43,-26.7798 43,-19.7511"/>
<polygon fill="midnightblue" stroke="midnightblue" points="39.5001,-46.083 43,-56.083 46.5001,-46.083 39.5001,-46.083"/>
</g>
<!-- Node3 -->
<g id="node3" class="node"><title>Node3</title>
<g id="a_node3"><a xlink:href="classpdal_1_1FlexWriter.html" target="_top" xlink:title="pdal::FlexWriter">
<polygon fill="white" stroke="black" points="0,-112.5 0,-131.5 86,-131.5 86,-112.5 0,-112.5"/>
<text text-anchor="middle" x="43" y="-119.5" font-family="Helvetica,sans-Serif" font-size="10.00">pdal::FlexWriter</text>
</a>
</g>
</g>
<!-- Node3&#45;&gt;Node2 -->
<g id="edge2" class="edge"><title>Node3&#45;&gt;Node2</title>
<path fill="none" stroke="midnightblue" d="M43,-101.805C43,-92.9102 43,-82.7798 43,-75.7511"/>
<polygon fill="midnightblue" stroke="midnightblue" points="39.5001,-102.083 43,-112.083 46.5001,-102.083 39.5001,-102.083"/>
</g>
<!-- Node4 -->
<g id="node4" class="node"><title>Node4</title>
<g id="a_node4"><a xlink:href="classpdal_1_1Writer.html" target="_top" xlink:title="pdal::Writer">
<polygon fill="white" stroke="black" points="9.5,-168.5 9.5,-187.5 76.5,-187.5 76.5,-168.5 9.5,-168.5"/>
<text text-anchor="middle" x="43" y="-175.5" font-family="Helvetica,sans-Serif" font-size="10.00">pdal::Writer</text>
</a>
</g>
</g>
<!-- Node4&#45;&gt;Node3 -->
<g id="edge3" class="edge"><title>Node4&#45;&gt;Node3</title>
<path fill="none" stroke="midnightblue" d="M43,-157.805C43,-148.91 43,-138.78 43,-131.751"/>
<polygon fill="midnightblue" stroke="midnightblue" points="39.5001,-158.083 43,-168.083 46.5001,-158.083 39.5001,-158.083"/>
</g>
<!-- Node5 -->
<g id="node5" class="node"><title>Node5</title>
<g id="a_node5"><a xlink:href="classpdal_1_1Stage.html" target="_top" xlink:title="pdal::Stage">
<polygon fill="white" stroke="black" points="10,-224.5 10,-243.5 76,-243.5 76,-224.5 10,-224.5"/>
<text text-anchor="middle" x="43" y="-231.5" font-family="Helvetica,sans-Serif" font-size="10.00">pdal::Stage</text>
</a>
</g>
</g>
<!-- Node5&#45;&gt;Node4 -->
<g id="edge4" class="edge"><title>Node5&#45;&gt;Node4</title>
<path fill="none" stroke="midnightblue" d="M43,-213.805C43,-204.91 43,-194.78 43,-187.751"/>
<polygon fill="midnightblue" stroke="midnightblue" points="39.5001,-214.083 43,-224.083 46.5001,-214.083 39.5001,-214.083"/>
</g>
</g>
</svg>
