<?xml version="1.0" encoding="UTF-8" standalone="no"?>
<!DOCTYPE svg PUBLIC "-//W3C//DTD SVG 1.1//EN"
 "http://www.w3.org/Graphics/SVG/1.1/DTD/svg11.dtd">
<!-- Generated by graphviz version 2.38.0 (20140413.2041)
 -->
<!-- Title: pdal::OciWriter::runFileSQL Pages: 1 -->
<svg width="293pt" height="66pt"
 viewBox="0.00 0.00 293.00 66.00" xmlns="http://www.w3.org/2000/svg" xmlns:xlink="http://www.w3.org/1999/xlink">
<g id="graph0" class="graph" transform="scale(1 1) rotate(0) translate(4 62)">
<title>pdal::OciWriter::runFileSQL</title>
<polygon fill="white" stroke="none" points="-4,4 -4,-62 289,-62 289,4 -4,4"/>
<!-- Node1 -->
<g id="node1" class="node"><title>Node1</title>
<polygon fill="#bfbfbf" stroke="black" points="0,-19.5 0,-38.5 137,-38.5 137,-19.5 0,-19.5"/>
<text text-anchor="middle" x="68.5" y="-26.5" font-family="Helvetica,sans-Serif" font-size="10.00">pdal::OciWriter::runFileSQL</text>
</g>
<!-- Node2 -->
<g id="node2" class="node"><title>Node2</title>
<g id="a_node2"><a xlink:href="classpdal_1_1OciWriter.html#a899064a17b0d8ef871ab4d79dd2df62b" target="_top" xlink:title="pdal::OciWriter::done">
<polygon fill="white" stroke="black" points="174.5,-38.5 174.5,-57.5 283.5,-57.5 283.5,-38.5 174.5,-38.5"/>
<text text-anchor="middle" x="229" y="-45.5" font-family="Helvetica,sans-Serif" font-size="10.00">pdal::OciWriter::done</text>
</a>
</g>
</g>
<!-- Node1&#45;&gt;Node2 -->
<g id="edge1" class="edge"><title>Node1&#45;&gt;Node2</title>
<path fill="none" stroke="midnightblue" d="M147.16,-38.3094C156.391,-39.416 165.652,-40.5261 174.439,-41.5795"/>
<polygon fill="midnightblue" stroke="midnightblue" points="147.524,-34.828 137.178,-37.1128 146.69,-41.7782 147.524,-34.828"/>
</g>
<!-- Node3 -->
<g id="node3" class="node"><title>Node3</title>
<g id="a_node3"><a xlink:href="classpdal_1_1OciWriter.html#aaef01ec1f04e1cd86cd7d465d49e1d81" target="_top" xlink:title="pdal::OciWriter::ready">
<polygon fill="white" stroke="black" points="173,-0.5 173,-19.5 285,-19.5 285,-0.5 173,-0.5"/>
<text text-anchor="middle" x="229" y="-7.5" font-family="Helvetica,sans-Serif" font-size="10.00">pdal::OciWriter::ready</text>
</a>
</g>
</g>
<!-- Node1&#45;&gt;Node3 -->
<g id="edge2" class="edge"><title>Node1&#45;&gt;Node3</title>
<path fill="none" stroke="midnightblue" d="M147.319,-19.6715C155.988,-18.6323 164.68,-17.5904 172.98,-16.5955"/>
<polygon fill="midnightblue" stroke="midnightblue" points="146.69,-16.2218 137.178,-20.8872 147.524,-23.172 146.69,-16.2218"/>
</g>
</g>
</svg>
