<?xml version="1.0" encoding="UTF-8" standalone="no"?>
<!DOCTYPE svg PUBLIC "-//W3C//DTD SVG 1.1//EN"
 "http://www.w3.org/Graphics/SVG/1.1/DTD/svg11.dtd">
<!-- Generated by graphviz version 2.38.0 (20140413.2041)
 -->
<!-- Title: pdal::Ilvis2MetadataReader::countChildElements Pages: 1 -->
<svg width="489pt" height="127pt"
 viewBox="0.00 0.00 489.00 127.00" xmlns="http://www.w3.org/2000/svg" xmlns:xlink="http://www.w3.org/1999/xlink">
<g id="graph0" class="graph" transform="scale(1 1) rotate(0) translate(4 123)">
<title>pdal::Ilvis2MetadataReader::countChildElements</title>
<polygon fill="white" stroke="none" points="-4,4 -4,-123 485,-123 485,4 -4,4"/>
<!-- Node1 -->
<g id="node1" class="node"><title>Node1</title>
<polygon fill="#bfbfbf" stroke="black" points="0,-44.5 0,-74.5 136,-74.5 136,-44.5 0,-44.5"/>
<text text-anchor="start" x="8" y="-62.5" font-family="Helvetica,sans-Serif" font-size="10.00">pdal::Ilvis2MetadataReader</text>
<text text-anchor="middle" x="68" y="-51.5" font-family="Helvetica,sans-Serif" font-size="10.00">::countChildElements</text>
</g>
<!-- Node2 -->
<g id="node2" class="node"><title>Node2</title>
<g id="a_node2"><a xlink:href="classpdal_1_1Ilvis2MetadataReader.html#a516a2e8badf0443a0458cde94f40cbf8" target="_top" xlink:title="pdal::Ilvis2MetadataReader\l::getFirstChildElementNode">
<polygon fill="white" stroke="black" points="172,-88.5 172,-118.5 309,-118.5 309,-88.5 172,-88.5"/>
<text text-anchor="start" x="180" y="-106.5" font-family="Helvetica,sans-Serif" font-size="10.00">pdal::Ilvis2MetadataReader</text>
<text text-anchor="middle" x="240.5" y="-95.5" font-family="Helvetica,sans-Serif" font-size="10.00">::getFirstChildElementNode</text>
</a>
</g>
</g>
<!-- Node1&#45;&gt;Node2 -->
<g id="edge1" class="edge"><title>Node1&#45;&gt;Node2</title>
<path fill="none" stroke="midnightblue" d="M127.2,-74.5192C141.387,-78.1804 156.689,-82.1294 171.295,-85.8987"/>
<polygon fill="midnightblue" stroke="midnightblue" points="170.716,-89.3639 181.273,-88.4738 172.465,-82.586 170.716,-89.3639"/>
</g>
<!-- Node3 -->
<g id="node3" class="node"><title>Node3</title>
<g id="a_node3"><a xlink:href="classpdal_1_1Ilvis2MetadataReader.html#a2e6c0418fb4a806ad1c51215975f875b" target="_top" xlink:title="pdal::Ilvis2MetadataReader\l::getNextElementNode">
<polygon fill="white" stroke="black" points="345,-66.5 345,-96.5 481,-96.5 481,-66.5 345,-66.5"/>
<text text-anchor="start" x="353" y="-84.5" font-family="Helvetica,sans-Serif" font-size="10.00">pdal::Ilvis2MetadataReader</text>
<text text-anchor="middle" x="413" y="-73.5" font-family="Helvetica,sans-Serif" font-size="10.00">::getNextElementNode</text>
</a>
</g>
</g>
<!-- Node1&#45;&gt;Node3 -->
<g id="edge3" class="edge"><title>Node1&#45;&gt;Node3</title>
<path fill="none" stroke="midnightblue" d="M136.357,-63.8202C193.345,-67.4755 275.026,-72.7145 334.675,-76.5404"/>
<polygon fill="midnightblue" stroke="midnightblue" points="334.594,-80.0423 344.798,-77.1896 335.042,-73.0566 334.594,-80.0423"/>
</g>
<!-- Node4 -->
<g id="node4" class="node"><title>Node4</title>
<g id="a_node4"><a xlink:href="classpdal_1_1Ilvis2MetadataReader.html#a5ae3abe877b54ce54f6d3cf16846f397" target="_top" xlink:title="pdal::Ilvis2MetadataReader\l::nodeElementIs">
<polygon fill="white" stroke="black" points="172.5,-0.5 172.5,-30.5 308.5,-30.5 308.5,-0.5 172.5,-0.5"/>
<text text-anchor="start" x="180.5" y="-18.5" font-family="Helvetica,sans-Serif" font-size="10.00">pdal::Ilvis2MetadataReader</text>
<text text-anchor="middle" x="240.5" y="-7.5" font-family="Helvetica,sans-Serif" font-size="10.00">::nodeElementIs</text>
</a>
</g>
</g>
<!-- Node1&#45;&gt;Node4 -->
<g id="edge4" class="edge"><title>Node1&#45;&gt;Node4</title>
<path fill="none" stroke="midnightblue" d="M127.2,-44.4808C141.387,-40.8196 156.689,-36.8706 171.295,-33.1013"/>
<polygon fill="midnightblue" stroke="midnightblue" points="172.465,-36.414 181.273,-30.5262 170.716,-29.6361 172.465,-36.414"/>
</g>
<!-- Node2&#45;&gt;Node3 -->
<g id="edge2" class="edge"><title>Node2&#45;&gt;Node3</title>
<path fill="none" stroke="midnightblue" d="M309.376,-94.7418C317.786,-93.6566 326.432,-92.5411 334.967,-91.4398"/>
<polygon fill="midnightblue" stroke="midnightblue" points="335.444,-94.9073 344.914,-90.1562 334.548,-87.9648 335.444,-94.9073"/>
</g>
</g>
</svg>
