<?xml version="1.0" encoding="UTF-8" standalone="no"?>
<!DOCTYPE svg PUBLIC "-//W3C//DTD SVG 1.1//EN"
 "http://www.w3.org/Graphics/SVG/1.1/DTD/svg11.dtd">
<!-- Generated by graphviz version 2.38.0 (20140413.2041)
 -->
<!-- Title: pdal::MergeFilter::run Pages: 1 -->
<svg width="314pt" height="116pt"
 viewBox="0.00 0.00 314.00 115.50" xmlns="http://www.w3.org/2000/svg" xmlns:xlink="http://www.w3.org/1999/xlink">
<g id="graph0" class="graph" transform="scale(1 1) rotate(0) translate(4 111.5)">
<title>pdal::MergeFilter::run</title>
<polygon fill="white" stroke="none" points="-4,4 -4,-111.5 310,-111.5 310,4 -4,4"/>
<!-- Node1 -->
<g id="node1" class="node"><title>Node1</title>
<polygon fill="#bfbfbf" stroke="black" points="0,-38.5 0,-57.5 109,-57.5 109,-38.5 0,-38.5"/>
<text text-anchor="middle" x="54.5" y="-45.5" font-family="Helvetica,sans-Serif" font-size="10.00">pdal::MergeFilter::run</text>
</g>
<!-- Node2 -->
<g id="node2" class="node"><title>Node2</title>
<g id="a_node2"><a xlink:href="classpdal_1_1MergeFilter.html#a07b2897c6b84db2d4b5f3b0ea2c32717" target="_top" xlink:title="pdal::MergeFilter::\lgetName">
<polygon fill="white" stroke="black" points="178,-77 178,-107 273,-107 273,-77 178,-77"/>
<text text-anchor="start" x="186" y="-95" font-family="Helvetica,sans-Serif" font-size="10.00">pdal::MergeFilter::</text>
<text text-anchor="middle" x="225.5" y="-84" font-family="Helvetica,sans-Serif" font-size="10.00">getName</text>
</a>
</g>
</g>
<!-- Node1&#45;&gt;Node2 -->
<g id="edge1" class="edge"><title>Node1&#45;&gt;Node2</title>
<path fill="none" stroke="midnightblue" d="M92.1705,-57.5473C114.367,-63.3264 143.13,-70.8148 168.167,-77.3334"/>
<polygon fill="midnightblue" stroke="midnightblue" points="167.357,-80.7392 177.916,-79.8717 169.121,-73.965 167.357,-80.7392"/>
</g>
<!-- Node3 -->
<g id="node3" class="node"><title>Node3</title>
<g id="a_node3"><a xlink:href="classpdal_1_1Stage.html#a9889b4446f40daa6f4cd7bfe3c567839" target="_top" xlink:title="pdal::Stage::getSpatialReference">
<polygon fill="white" stroke="black" points="145,-38.5 145,-57.5 306,-57.5 306,-38.5 145,-38.5"/>
<text text-anchor="middle" x="225.5" y="-45.5" font-family="Helvetica,sans-Serif" font-size="10.00">pdal::Stage::getSpatialReference</text>
</a>
</g>
</g>
<!-- Node1&#45;&gt;Node3 -->
<g id="edge2" class="edge"><title>Node1&#45;&gt;Node3</title>
<path fill="none" stroke="midnightblue" d="M109.437,-48C117.561,-48 126.12,-48 134.752,-48"/>
<polygon fill="midnightblue" stroke="midnightblue" points="134.898,-51.5001 144.897,-48 134.897,-44.5001 134.898,-51.5001"/>
</g>
<!-- Node4 -->
<g id="node4" class="node"><title>Node4</title>
<g id="a_node4"><a xlink:href="classpdal_1_1Stage.html#ae8c29817e14d7cda53fdcbb23102d872" target="_top" xlink:title="pdal::Stage::log">
<polygon fill="white" stroke="black" points="183,-0.5 183,-19.5 268,-19.5 268,-0.5 183,-0.5"/>
<text text-anchor="middle" x="225.5" y="-7.5" font-family="Helvetica,sans-Serif" font-size="10.00">pdal::Stage::log</text>
</a>
</g>
</g>
<!-- Node1&#45;&gt;Node4 -->
<g id="edge3" class="edge"><title>Node1&#45;&gt;Node4</title>
<path fill="none" stroke="midnightblue" d="M98.1458,-38.411C120.819,-33.3128 148.871,-27.0053 172.78,-21.6294"/>
<polygon fill="midnightblue" stroke="midnightblue" points="173.756,-24.9973 182.745,-19.3887 172.221,-18.1678 173.756,-24.9973"/>
</g>
</g>
</svg>
