<?xml version="1.0" encoding="UTF-8" standalone="no"?>
<!DOCTYPE svg PUBLIC "-//W3C//DTD SVG 1.1//EN"
 "http://www.w3.org/Graphics/SVG/1.1/DTD/svg11.dtd">
<!-- Generated by graphviz version 2.38.0 (20140413.2041)
 -->
<!-- Title: pdal::MbReader::ready Pages: 1 -->
<svg width="425pt" height="66pt"
 viewBox="0.00 0.00 425.00 66.00" xmlns="http://www.w3.org/2000/svg" xmlns:xlink="http://www.w3.org/1999/xlink">
<g id="graph0" class="graph" transform="scale(1 1) rotate(0) translate(4 62)">
<title>pdal::MbReader::ready</title>
<polygon fill="white" stroke="none" points="-4,4 -4,-62 421,-62 421,4 -4,4"/>
<!-- Node1 -->
<g id="node1" class="node"><title>Node1</title>
<polygon fill="#bfbfbf" stroke="black" points="0,-19.5 0,-38.5 116,-38.5 116,-19.5 0,-19.5"/>
<text text-anchor="middle" x="58" y="-26.5" font-family="Helvetica,sans-Serif" font-size="10.00">pdal::MbReader::ready</text>
</g>
<!-- Node2 -->
<g id="node2" class="node"><title>Node2</title>
<g id="a_node2"><a xlink:href="namespacepdal_1_1MbError.html#a4d54b8e3f4518938995230a414498a54" target="_top" xlink:title="pdal::MbError::text">
<polygon fill="white" stroke="black" points="161.5,-38.5 161.5,-57.5 259.5,-57.5 259.5,-38.5 161.5,-38.5"/>
<text text-anchor="middle" x="210.5" y="-45.5" font-family="Helvetica,sans-Serif" font-size="10.00">pdal::MbError::text</text>
</a>
</g>
</g>
<!-- Node1&#45;&gt;Node2 -->
<g id="edge1" class="edge"><title>Node1&#45;&gt;Node2</title>
<path fill="none" stroke="midnightblue" d="M116.327,-36.2373C127.648,-37.6665 139.543,-39.1682 150.905,-40.6026"/>
<polygon fill="midnightblue" stroke="midnightblue" points="150.798,-44.1168 161.158,-41.897 151.675,-37.172 150.798,-44.1168"/>
</g>
<!-- Node3 -->
<g id="node3" class="node"><title>Node3</title>
<g id="a_node3"><a xlink:href="classpdal_1_1Stage.html#abdbd1176da12dfd882d931a43290797f" target="_top" xlink:title="pdal::Stage::throwError">
<polygon fill="white" stroke="black" points="152,-0.5 152,-19.5 269,-19.5 269,-0.5 152,-0.5"/>
<text text-anchor="middle" x="210.5" y="-7.5" font-family="Helvetica,sans-Serif" font-size="10.00">pdal::Stage::throwError</text>
</a>
</g>
</g>
<!-- Node1&#45;&gt;Node3 -->
<g id="edge2" class="edge"><title>Node1&#45;&gt;Node3</title>
<path fill="none" stroke="midnightblue" d="M116.327,-21.7627C124.686,-20.7074 133.358,-19.6126 141.897,-18.5346"/>
<polygon fill="midnightblue" stroke="midnightblue" points="142.351,-22.0051 151.834,-17.2801 141.474,-15.0603 142.351,-22.0051"/>
</g>
<!-- Node4 -->
<g id="node4" class="node"><title>Node4</title>
<g id="a_node4"><a xlink:href="classpdal_1_1Stage.html#a6c81d6fbbac17ebe4cd63806916cc750" target="_top" xlink:title="pdal::Stage::getName">
<polygon fill="white" stroke="black" points="305,-0.5 305,-19.5 417,-19.5 417,-0.5 305,-0.5"/>
<text text-anchor="middle" x="361" y="-7.5" font-family="Helvetica,sans-Serif" font-size="10.00">pdal::Stage::getName</text>
</a>
</g>
</g>
<!-- Node3&#45;&gt;Node4 -->
<g id="edge3" class="edge"><title>Node3&#45;&gt;Node4</title>
<path fill="none" stroke="midnightblue" d="M269.339,-10C277.676,-10 286.304,-10 294.773,-10"/>
<polygon fill="midnightblue" stroke="midnightblue" points="294.994,-13.5001 304.994,-10 294.994,-6.5001 294.994,-13.5001"/>
</g>
</g>
</svg>
