<?xml version="1.0" encoding="UTF-8" standalone="no"?>
<!DOCTYPE svg PUBLIC "-//W3C//DTD SVG 1.1//EN"
 "http://www.w3.org/Graphics/SVG/1.1/DTD/svg11.dtd">
<!-- Generated by graphviz version 2.38.0 (20140413.2041)
 -->
<!-- Title: pdal::BpfReader::readUlemData Pages: 1 -->
<svg width="489pt" height="28pt"
 viewBox="0.00 0.00 489.00 28.00" xmlns="http://www.w3.org/2000/svg" xmlns:xlink="http://www.w3.org/1999/xlink">
<g id="graph0" class="graph" transform="scale(1 1) rotate(0) translate(4 24)">
<title>pdal::BpfReader::readUlemData</title>
<polygon fill="white" stroke="none" points="-4,4 -4,-24 485,-24 485,4 -4,4"/>
<!-- Node1 -->
<g id="node1" class="node"><title>Node1</title>
<polygon fill="#bfbfbf" stroke="black" points="0,-0.5 0,-19.5 156,-19.5 156,-0.5 0,-0.5"/>
<text text-anchor="middle" x="78" y="-7.5" font-family="Helvetica,sans-Serif" font-size="10.00">pdal::BpfReader::readUlemData</text>
</g>
<!-- Node2 -->
<g id="node2" class="node"><title>Node2</title>
<g id="a_node2"><a xlink:href="classpdal_1_1BpfReader.html#ab7dd5387cb7f88c2c5bbbc1d4838be50" target="_top" xlink:title="pdal::BpfReader::initialize">
<polygon fill="white" stroke="black" points="192,-0.5 192,-19.5 320,-19.5 320,-0.5 192,-0.5"/>
<text text-anchor="middle" x="256" y="-7.5" font-family="Helvetica,sans-Serif" font-size="10.00">pdal::BpfReader::initialize</text>
</a>
</g>
</g>
<!-- Node1&#45;&gt;Node2 -->
<g id="edge1" class="edge"><title>Node1&#45;&gt;Node2</title>
<path fill="none" stroke="midnightblue" d="M166.293,-10C174.914,-10 183.545,-10 191.853,-10"/>
<polygon fill="midnightblue" stroke="midnightblue" points="166.196,-6.5001 156.196,-10 166.196,-13.5001 166.196,-6.5001"/>
</g>
<!-- Node3 -->
<g id="node3" class="node"><title>Node3</title>
<g id="a_node3"><a xlink:href="classpdal_1_1BpfReader.html#accb0283f384ad927abc5f37881be748c" target="_top" xlink:title="pdal::BpfReader::inspect">
<polygon fill="white" stroke="black" points="356,-0.5 356,-19.5 481,-19.5 481,-0.5 356,-0.5"/>
<text text-anchor="middle" x="418.5" y="-7.5" font-family="Helvetica,sans-Serif" font-size="10.00">pdal::BpfReader::inspect</text>
</a>
</g>
</g>
<!-- Node2&#45;&gt;Node3 -->
<g id="edge2" class="edge"><title>Node2&#45;&gt;Node3</title>
<path fill="none" stroke="midnightblue" d="M330.639,-10C339.065,-10 347.59,-10 355.837,-10"/>
<polygon fill="midnightblue" stroke="midnightblue" points="330.434,-6.5001 320.434,-10 330.434,-13.5001 330.434,-6.5001"/>
</g>
</g>
</svg>
