<?xml version="1.0" encoding="UTF-8" standalone="no"?>
<!DOCTYPE svg PUBLIC "-//W3C//DTD SVG 1.1//EN"
 "http://www.w3.org/Graphics/SVG/1.1/DTD/svg11.dtd">
<!-- Generated by graphviz version 2.38.0 (20140413.2041)
 -->
<!-- Title: pdal::BasePointTable::privateMetadata Pages: 1 -->
<svg width="280pt" height="127pt"
 viewBox="0.00 0.00 280.00 126.50" xmlns="http://www.w3.org/2000/svg" xmlns:xlink="http://www.w3.org/1999/xlink">
<g id="graph0" class="graph" transform="scale(1 1) rotate(0) translate(4 122.5)">
<title>pdal::BasePointTable::privateMetadata</title>
<polygon fill="white" stroke="none" points="-4,4 -4,-122.5 276,-122.5 276,4 -4,4"/>
<!-- Node1 -->
<g id="node1" class="node"><title>Node1</title>
<polygon fill="#bfbfbf" stroke="black" points="0,-49.5 0,-79.5 110,-79.5 110,-49.5 0,-49.5"/>
<text text-anchor="start" x="8" y="-67.5" font-family="Helvetica,sans-Serif" font-size="10.00">pdal::BasePointTable</text>
<text text-anchor="middle" x="55" y="-56.5" font-family="Helvetica,sans-Serif" font-size="10.00">::privateMetadata</text>
</g>
<!-- Node2 -->
<g id="node2" class="node"><title>Node2</title>
<g id="a_node2"><a xlink:href="classpdal_1_1MetadataNode.html#af2c1c5d91f6ab47a804aa8a0a1b043c2" target="_top" xlink:title="pdal::MetadataNode::add">
<polygon fill="white" stroke="black" points="146,-99 146,-118 272,-118 272,-99 146,-99"/>
<text text-anchor="middle" x="209" y="-106" font-family="Helvetica,sans-Serif" font-size="10.00">pdal::MetadataNode::add</text>
</a>
</g>
</g>
<!-- Node1&#45;&gt;Node2 -->
<g id="edge1" class="edge"><title>Node1&#45;&gt;Node2</title>
<path fill="none" stroke="midnightblue" d="M107.885,-79.5192C126.433,-84.8885 147.119,-90.8766 164.851,-96.0095"/>
<polygon fill="midnightblue" stroke="midnightblue" points="164.333,-99.503 174.911,-98.9217 166.279,-92.7791 164.333,-99.503"/>
</g>
<!-- Node3 -->
<g id="node3" class="node"><title>Node3</title>
<g id="a_node3"><a xlink:href="classpdal_1_1MetadataNode.html#a0c52985f2bedf620aea438ab1bce0af6" target="_top" xlink:title="pdal::MetadataNode\l::findChild">
<polygon fill="white" stroke="black" points="157,-49.5 157,-79.5 261,-79.5 261,-49.5 157,-49.5"/>
<text text-anchor="start" x="165" y="-67.5" font-family="Helvetica,sans-Serif" font-size="10.00">pdal::MetadataNode</text>
<text text-anchor="middle" x="209" y="-56.5" font-family="Helvetica,sans-Serif" font-size="10.00">::findChild</text>
</a>
</g>
</g>
<!-- Node1&#45;&gt;Node3 -->
<g id="edge2" class="edge"><title>Node1&#45;&gt;Node3</title>
<path fill="none" stroke="midnightblue" d="M110.017,-64.5C121.95,-64.5 134.674,-64.5 146.867,-64.5"/>
<polygon fill="midnightblue" stroke="midnightblue" points="146.955,-68.0001 156.955,-64.5 146.955,-61.0001 146.955,-68.0001"/>
</g>
<!-- Node4 -->
<g id="node4" class="node"><title>Node4</title>
<g id="a_node4"><a xlink:href="classpdal_1_1MetadataNode.html#a54eb6519dee5cce1b496d8cec4f58d99" target="_top" xlink:title="pdal::MetadataNode\l::valid">
<polygon fill="white" stroke="black" points="157,-0.5 157,-30.5 261,-30.5 261,-0.5 157,-0.5"/>
<text text-anchor="start" x="165" y="-18.5" font-family="Helvetica,sans-Serif" font-size="10.00">pdal::MetadataNode</text>
<text text-anchor="middle" x="209" y="-7.5" font-family="Helvetica,sans-Serif" font-size="10.00">::valid</text>
</a>
</g>
</g>
<!-- Node1&#45;&gt;Node4 -->
<g id="edge3" class="edge"><title>Node1&#45;&gt;Node4</title>
<path fill="none" stroke="midnightblue" d="M102.845,-49.3986C118.232,-44.4385 135.497,-38.8726 151.521,-33.7071"/>
<polygon fill="midnightblue" stroke="midnightblue" points="152.866,-36.951 161.309,-30.5516 150.718,-30.2887 152.866,-36.951"/>
</g>
</g>
</svg>
