<?xml version="1.0" encoding="UTF-8" standalone="no"?>
<!DOCTYPE svg PUBLIC "-//W3C//DTD SVG 1.1//EN"
 "http://www.w3.org/Graphics/SVG/1.1/DTD/svg11.dtd">
<!-- Generated by graphviz version 2.38.0 (20140413.2041)
 -->
<!-- Title: pdal::MetadataReader::doBand Pages: 1 -->
<svg width="1011pt" height="192pt"
 viewBox="0.00 0.00 1011.00 192.00" xmlns="http://www.w3.org/2000/svg" xmlns:xlink="http://www.w3.org/1999/xlink">
<g id="graph0" class="graph" transform="scale(1 1) rotate(0) translate(4 188)">
<title>pdal::MetadataReader::doBand</title>
<polygon fill="white" stroke="none" points="-4,4 -4,-188 1007,-188 1007,4 -4,4"/>
<!-- Node1 -->
<g id="node1" class="node"><title>Node1</title>
<polygon fill="#bfbfbf" stroke="black" points="0,-58 0,-88 113,-88 113,-58 0,-58"/>
<text text-anchor="start" x="8" y="-76" font-family="Helvetica,sans-Serif" font-size="10.00">pdal::MetadataReader</text>
<text text-anchor="middle" x="56.5" y="-65" font-family="Helvetica,sans-Serif" font-size="10.00">::doBand</text>
</g>
<!-- Node2 -->
<g id="node2" class="node"><title>Node2</title>
<g id="a_node2"><a xlink:href="classpdal_1_1MetadataReader.html#a1c64a95d8aa3024eac8fe8f98be64df4" target="_top" xlink:title="pdal::MetadataReader\l::writeField">
<polygon fill="white" stroke="black" points="149,-83 149,-113 262,-113 262,-83 149,-83"/>
<text text-anchor="start" x="157" y="-101" font-family="Helvetica,sans-Serif" font-size="10.00">pdal::MetadataReader</text>
<text text-anchor="middle" x="205.5" y="-90" font-family="Helvetica,sans-Serif" font-size="10.00">::writeField</text>
</a>
</g>
</g>
<!-- Node1&#45;&gt;Node2 -->
<g id="edge1" class="edge"><title>Node1&#45;&gt;Node2</title>
<path fill="none" stroke="midnightblue" d="M113.074,-82.4514C121.489,-83.8826 130.238,-85.3705 138.842,-86.8337"/>
<polygon fill="midnightblue" stroke="midnightblue" points="138.402,-90.309 148.847,-88.5352 139.575,-83.4081 138.402,-90.309"/>
</g>
<!-- Node13 -->
<g id="node13" class="node"><title>Node13</title>
<g id="a_node13"><a xlink:href="classpdal_1_1MetadataReader.html#af6980014b8787ec2fdb5207be98db734" target="_top" xlink:title="pdal::MetadataReader\l::writeInt">
<polygon fill="white" stroke="black" points="149,-34 149,-64 262,-64 262,-34 149,-34"/>
<text text-anchor="start" x="157" y="-52" font-family="Helvetica,sans-Serif" font-size="10.00">pdal::MetadataReader</text>
<text text-anchor="middle" x="205.5" y="-41" font-family="Helvetica,sans-Serif" font-size="10.00">::writeInt</text>
</a>
</g>
</g>
<!-- Node1&#45;&gt;Node13 -->
<g id="edge12" class="edge"><title>Node1&#45;&gt;Node13</title>
<path fill="none" stroke="midnightblue" d="M113.074,-63.9266C121.489,-62.5528 130.238,-61.1244 138.842,-59.7197"/>
<polygon fill="midnightblue" stroke="midnightblue" points="139.542,-63.1519 148.847,-58.0862 138.414,-56.2433 139.542,-63.1519"/>
</g>
<!-- Node3 -->
<g id="node3" class="node"><title>Node3</title>
<g id="a_node3"><a xlink:href="namespacepdal_1_1Utils.html#ac5d9d3dfd3f4611182c07aa85e27c1e4" target="_top" xlink:title="pdal::Utils::trim">
<polygon fill="white" stroke="black" points="319.5,-88.5 319.5,-107.5 402.5,-107.5 402.5,-88.5 319.5,-88.5"/>
<text text-anchor="middle" x="361" y="-95.5" font-family="Helvetica,sans-Serif" font-size="10.00">pdal::Utils::trim</text>
</a>
</g>
</g>
<!-- Node2&#45;&gt;Node3 -->
<g id="edge2" class="edge"><title>Node2&#45;&gt;Node3</title>
<path fill="none" stroke="midnightblue" d="M262.351,-98C277.674,-98 294.2,-98 309.221,-98"/>
<polygon fill="midnightblue" stroke="midnightblue" points="309.346,-101.5 319.346,-98 309.346,-94.5001 309.346,-101.5"/>
</g>
<!-- Node12 -->
<g id="node12" class="node"><title>Node12</title>
<g id="a_node12"><a xlink:href="classpdal_1_1MetadataNode.html#af2c1c5d91f6ab47a804aa8a0a1b043c2" target="_top" xlink:title="pdal::MetadataNode::add">
<polygon fill="white" stroke="black" points="298,-45.5 298,-64.5 424,-64.5 424,-45.5 298,-45.5"/>
<text text-anchor="middle" x="361" y="-52.5" font-family="Helvetica,sans-Serif" font-size="10.00">pdal::MetadataNode::add</text>
</a>
</g>
</g>
<!-- Node2&#45;&gt;Node12 -->
<g id="edge11" class="edge"><title>Node2&#45;&gt;Node12</title>
<path fill="none" stroke="midnightblue" d="M260.187,-82.9607C278.399,-77.8589 298.521,-72.222 315.899,-67.354"/>
<polygon fill="midnightblue" stroke="midnightblue" points="317.093,-70.6543 325.778,-64.5865 315.205,-63.9138 317.093,-70.6543"/>
</g>
<!-- Node4 -->
<g id="node4" class="node"><title>Node4</title>
<g id="a_node4"><a xlink:href="namespacepdal_1_1Utils.html#a10ae3cc2d10407cff89ba1ab00bc036b" target="_top" xlink:title="pdal::Utils::trimLeading">
<polygon fill="white" stroke="black" points="462,-164.5 462,-183.5 579,-183.5 579,-164.5 462,-164.5"/>
<text text-anchor="middle" x="520.5" y="-171.5" font-family="Helvetica,sans-Serif" font-size="10.00">pdal::Utils::trimLeading</text>
</a>
</g>
</g>
<!-- Node3&#45;&gt;Node4 -->
<g id="edge3" class="edge"><title>Node3&#45;&gt;Node4</title>
<path fill="none" stroke="midnightblue" d="M376.089,-107.519C394.675,-119.762 428.7,-141.099 460,-155 464.955,-157.201 470.244,-159.266 475.548,-161.166"/>
<polygon fill="midnightblue" stroke="midnightblue" points="474.448,-164.489 485.042,-164.4 476.704,-157.862 474.448,-164.489"/>
</g>
<!-- Node5 -->
<g id="node5" class="node"><title>Node5</title>
<g id="a_node5"><a xlink:href="namespacepdal_1_1Utils.html#afed0ad4146baafd1973c85e1508ade73" target="_top" xlink:title="pdal::Utils::trimTrailing">
<polygon fill="white" stroke="black" points="463,-126.5 463,-145.5 578,-145.5 578,-126.5 463,-126.5"/>
<text text-anchor="middle" x="520.5" y="-133.5" font-family="Helvetica,sans-Serif" font-size="10.00">pdal::Utils::trimTrailing</text>
</a>
</g>
</g>
<!-- Node3&#45;&gt;Node5 -->
<g id="edge4" class="edge"><title>Node3&#45;&gt;Node5</title>
<path fill="none" stroke="midnightblue" d="M401.744,-107.589C422.528,-112.604 448.161,-118.788 470.199,-124.105"/>
<polygon fill="midnightblue" stroke="midnightblue" points="469.5,-127.537 480.042,-126.48 471.142,-120.732 469.5,-127.537"/>
</g>
<!-- Node6 -->
<g id="node6" class="node"><title>Node6</title>
<g id="a_node6"><a xlink:href="namespacepdal_1_1Utils.html#abdd3e6ebf8047dbc72337bac885f1169" target="_top" xlink:title="pdal::Utils::eatcharacter">
<polygon fill="white" stroke="black" points="460,-88.5 460,-107.5 581,-107.5 581,-88.5 460,-88.5"/>
<text text-anchor="middle" x="520.5" y="-95.5" font-family="Helvetica,sans-Serif" font-size="10.00">pdal::Utils::eatcharacter</text>
</a>
</g>
</g>
<!-- Node3&#45;&gt;Node6 -->
<g id="edge5" class="edge"><title>Node3&#45;&gt;Node6</title>
<path fill="none" stroke="midnightblue" d="M402.56,-98C416.841,-98 433.332,-98 449.344,-98"/>
<polygon fill="midnightblue" stroke="midnightblue" points="449.768,-101.5 459.768,-98 449.768,-94.5001 449.768,-101.5"/>
</g>
<!-- Node7 -->
<g id="node7" class="node"><title>Node7</title>
<g id="a_node7"><a xlink:href="namespacepdal_1_1Utils.html#ab908ea72a2a7d385cbbab68939d1c1a2" target="_top" xlink:title="pdal::Utils::base64\l_encode">
<polygon fill="white" stroke="black" points="471.5,-39 471.5,-69 569.5,-69 569.5,-39 471.5,-39"/>
<text text-anchor="start" x="479.5" y="-57" font-family="Helvetica,sans-Serif" font-size="10.00">pdal::Utils::base64</text>
<text text-anchor="middle" x="520.5" y="-46" font-family="Helvetica,sans-Serif" font-size="10.00">_encode</text>
</a>
</g>
</g>
<!-- Node3&#45;&gt;Node7 -->
<g id="edge6" class="edge"><title>Node3&#45;&gt;Node7</title>
<path fill="none" stroke="midnightblue" d="M396.175,-88.4527C415.24,-83.1266 439.502,-76.3486 461.454,-70.216"/>
<polygon fill="midnightblue" stroke="midnightblue" points="462.661,-73.5129 471.35,-67.4513 460.777,-66.7711 462.661,-73.5129"/>
</g>
<!-- Node8 -->
<g id="node8" class="node"><title>Node8</title>
<g id="a_node8"><a xlink:href="namespacepdal_1_1Dimension.html#acf81dae9d5946f3a941f9df154b2329b" target="_top" xlink:title="pdal::Dimension::size">
<polygon fill="white" stroke="black" points="465,-0.5 465,-19.5 576,-19.5 576,-0.5 465,-0.5"/>
<text text-anchor="middle" x="520.5" y="-7.5" font-family="Helvetica,sans-Serif" font-size="10.00">pdal::Dimension::size</text>
</a>
</g>
</g>
<!-- Node3&#45;&gt;Node8 -->
<g id="edge7" class="edge"><title>Node3&#45;&gt;Node8</title>
<path fill="none" stroke="midnightblue" d="M396.153,-88.4402C405.698,-84.8259 415.716,-80.0744 424,-74 444.655,-58.8548 438.898,-43.5163 460,-29 462.902,-27.0036 466.026,-25.2078 469.268,-23.5941"/>
<polygon fill="midnightblue" stroke="midnightblue" points="470.865,-26.7161 478.634,-19.5123 468.068,-20.2991 470.865,-26.7161"/>
</g>
<!-- Node9 -->
<g id="node9" class="node"><title>Node9</title>
<g id="a_node9"><a xlink:href="namespacepdal_1_1Utils.html#a59253304d0f929e3a3ea00f09636002f" target="_top" xlink:title="pdal::Utils::toNative">
<polygon fill="white" stroke="black" points="617,-0.5 617,-19.5 721,-19.5 721,-0.5 617,-0.5"/>
<text text-anchor="middle" x="669" y="-7.5" font-family="Helvetica,sans-Serif" font-size="10.00">pdal::Utils::toNative</text>
</a>
</g>
</g>
<!-- Node8&#45;&gt;Node9 -->
<g id="edge8" class="edge"><title>Node8&#45;&gt;Node9</title>
<path fill="none" stroke="midnightblue" d="M576.051,-10C586.057,-10 596.563,-10 606.749,-10"/>
<polygon fill="midnightblue" stroke="midnightblue" points="606.8,-13.5001 616.8,-10 606.8,-6.5001 606.8,-13.5001"/>
</g>
<!-- Node10 -->
<g id="node10" class="node"><title>Node10</title>
<g id="a_node10"><a xlink:href="namespacepdal_1_1Dimension.html#a880d689fed54aa3ded6f88c9e058c5d2" target="_top" xlink:title="pdal::Dimension::type">
<polygon fill="white" stroke="black" points="757,-0.5 757,-19.5 869,-19.5 869,-0.5 757,-0.5"/>
<text text-anchor="middle" x="813" y="-7.5" font-family="Helvetica,sans-Serif" font-size="10.00">pdal::Dimension::type</text>
</a>
</g>
</g>
<!-- Node9&#45;&gt;Node10 -->
<g id="edge9" class="edge"><title>Node9&#45;&gt;Node10</title>
<path fill="none" stroke="midnightblue" d="M721.265,-10C729.602,-10 738.332,-10 746.946,-10"/>
<polygon fill="midnightblue" stroke="midnightblue" points="746.972,-13.5001 756.972,-10 746.972,-6.5001 746.972,-13.5001"/>
</g>
<!-- Node11 -->
<g id="node11" class="node"><title>Node11</title>
<g id="a_node11"><a xlink:href="namespacepdal_1_1Utils.html#a5268937cf695835e55392f752dc02cb2" target="_top" xlink:title="pdal::Utils::tolower">
<polygon fill="white" stroke="black" points="905,-0.5 905,-19.5 1003,-19.5 1003,-0.5 905,-0.5"/>
<text text-anchor="middle" x="954" y="-7.5" font-family="Helvetica,sans-Serif" font-size="10.00">pdal::Utils::tolower</text>
</a>
</g>
</g>
<!-- Node10&#45;&gt;Node11 -->
<g id="edge10" class="edge"><title>Node10&#45;&gt;Node11</title>
<path fill="none" stroke="midnightblue" d="M869.336,-10C877.625,-10 886.194,-10 894.546,-10"/>
<polygon fill="midnightblue" stroke="midnightblue" points="894.59,-13.5001 904.59,-10 894.59,-6.5001 894.59,-13.5001"/>
</g>
<!-- Node13&#45;&gt;Node12 -->
<g id="edge13" class="edge"><title>Node13&#45;&gt;Node12</title>
<path fill="none" stroke="midnightblue" d="M262.351,-51.1831C270.669,-51.5082 279.341,-51.8472 287.935,-52.1831"/>
<polygon fill="midnightblue" stroke="midnightblue" points="287.832,-55.6817 297.961,-52.575 288.105,-48.687 287.832,-55.6817"/>
</g>
</g>
</svg>
