<?xml version="1.0" encoding="UTF-8" standalone="no"?>
<!DOCTYPE svg PUBLIC "-//W3C//DTD SVG 1.1//EN"
 "http://www.w3.org/Graphics/SVG/1.1/DTD/svg11.dtd">
<!-- Generated by graphviz version 2.38.0 (20140413.2041)
 -->
<!-- Title: pdal::BpfWriter Pages: 1 -->
<svg width="669pt" height="362pt"
 viewBox="0.00 0.00 669.00 362.00" xmlns="http://www.w3.org/2000/svg" xmlns:xlink="http://www.w3.org/1999/xlink">
<g id="graph0" class="graph" transform="scale(1 1) rotate(0) translate(4 358)">
<title>pdal::BpfWriter</title>
<polygon fill="white" stroke="none" points="-4,4 -4,-358 665,-358 665,4 -4,4"/>
<!-- Node1 -->
<g id="node1" class="node"><title>Node1</title>
<polygon fill="#bfbfbf" stroke="black" points="375,-0.5 375,-19.5 457,-19.5 457,-0.5 375,-0.5"/>
<text text-anchor="middle" x="416" y="-7.5" font-family="Helvetica,sans-Serif" font-size="10.00">pdal::BpfWriter</text>
</g>
<!-- Node2 -->
<g id="node2" class="node"><title>Node2</title>
<g id="a_node2"><a xlink:href="classpdal_1_1FlexWriter.html" target="_top" xlink:title="pdal::FlexWriter">
<polygon fill="white" stroke="black" points="202,-67.5 202,-86.5 288,-86.5 288,-67.5 202,-67.5"/>
<text text-anchor="middle" x="245" y="-74.5" font-family="Helvetica,sans-Serif" font-size="10.00">pdal::FlexWriter</text>
</a>
</g>
</g>
<!-- Node2&#45;&gt;Node1 -->
<g id="edge1" class="edge"><title>Node2&#45;&gt;Node1</title>
<path fill="none" stroke="midnightblue" d="M277.173,-63.7706C311.112,-50.8699 363.712,-30.8757 393.471,-19.5637"/>
<polygon fill="midnightblue" stroke="midnightblue" points="275.811,-60.5437 267.707,-67.3685 278.299,-67.0869 275.811,-60.5437"/>
</g>
<!-- Node3 -->
<g id="node3" class="node"><title>Node3</title>
<g id="a_node3"><a xlink:href="classpdal_1_1Writer.html" target="_top" xlink:title="pdal::Writer">
<polygon fill="white" stroke="black" points="167.5,-134.5 167.5,-153.5 234.5,-153.5 234.5,-134.5 167.5,-134.5"/>
<text text-anchor="middle" x="201" y="-141.5" font-family="Helvetica,sans-Serif" font-size="10.00">pdal::Writer</text>
</a>
</g>
</g>
<!-- Node3&#45;&gt;Node2 -->
<g id="edge2" class="edge"><title>Node3&#45;&gt;Node2</title>
<path fill="none" stroke="midnightblue" d="M212.573,-125.904C221.123,-113.273 232.406,-96.6041 239.16,-86.6273"/>
<polygon fill="midnightblue" stroke="midnightblue" points="209.641,-123.991 206.934,-134.234 215.438,-127.915 209.641,-123.991"/>
</g>
<!-- Node4 -->
<g id="node4" class="node"><title>Node4</title>
<g id="a_node4"><a xlink:href="classpdal_1_1Stage.html" target="_top" xlink:title="pdal::Stage">
<polygon fill="white" stroke="black" points="148,-256.5 148,-275.5 214,-275.5 214,-256.5 148,-256.5"/>
<text text-anchor="middle" x="181" y="-263.5" font-family="Helvetica,sans-Serif" font-size="10.00">pdal::Stage</text>
</a>
</g>
</g>
<!-- Node4&#45;&gt;Node3 -->
<g id="edge3" class="edge"><title>Node4&#45;&gt;Node3</title>
<path fill="none" stroke="midnightblue" d="M184.083,-246.5C188.476,-220.145 196.358,-172.85 199.575,-153.552"/>
<polygon fill="midnightblue" stroke="midnightblue" points="180.63,-245.931 182.438,-256.37 187.535,-247.081 180.63,-245.931"/>
</g>
<!-- Node5 -->
<g id="node5" class="node"><title>Node5</title>
<g id="a_node5"><a xlink:href="classpdal_1_1MetadataNode.html" target="_top" xlink:title="pdal::MetadataNode">
<polygon fill="white" stroke="black" points="0,-334.5 0,-353.5 104,-353.5 104,-334.5 0,-334.5"/>
<text text-anchor="middle" x="52" y="-341.5" font-family="Helvetica,sans-Serif" font-size="10.00">pdal::MetadataNode</text>
</a>
</g>
</g>
<!-- Node5&#45;&gt;Node4 -->
<g id="edge4" class="edge"><title>Node5&#45;&gt;Node4</title>
<path fill="none" stroke="#9a32cd" stroke-dasharray="5,2" d="M70.5534,-327.703C83.5977,-317.39 101.737,-303.909 119,-294 131.422,-286.87 146.085,-280.403 158.032,-275.588"/>
<polygon fill="#9a32cd" stroke="#9a32cd" points="68.0077,-325.259 62.4101,-334.255 72.3956,-330.714 68.0077,-325.259"/>
<text text-anchor="middle" x="148" y="-302.5" font-family="Helvetica,sans-Serif" font-size="10.00"> m_metadata</text>
</g>
<!-- Node6 -->
<g id="node6" class="node"><title>Node6</title>
<g id="a_node6"><a xlink:href="classpdal_1_1SpatialReference.html" target="_top" xlink:title="pdal::SpatialReference">
<polygon fill="white" stroke="black" points="122,-334.5 122,-353.5 238,-353.5 238,-334.5 122,-334.5"/>
<text text-anchor="middle" x="180" y="-341.5" font-family="Helvetica,sans-Serif" font-size="10.00">pdal::SpatialReference</text>
</a>
</g>
</g>
<!-- Node6&#45;&gt;Node4 -->
<g id="edge5" class="edge"><title>Node6&#45;&gt;Node4</title>
<path fill="none" stroke="#9a32cd" stroke-dasharray="5,2" d="M180.247,-324.224C180.451,-308.697 180.732,-287.358 180.887,-275.616"/>
<polygon fill="#9a32cd" stroke="#9a32cd" points="176.747,-324.237 180.115,-334.282 183.746,-324.329 176.747,-324.237"/>
<text text-anchor="middle" x="226.5" y="-302.5" font-family="Helvetica,sans-Serif" font-size="10.00"> m_spatialReference</text>
</g>
<!-- Node7 -->
<g id="node7" class="node"><title>Node7</title>
<g id="a_node7"><a xlink:href="classpdal_1_1Options.html" target="_top" xlink:title="pdal::Options">
<polygon fill="white" stroke="black" points="257,-334.5 257,-353.5 331,-353.5 331,-334.5 257,-334.5"/>
<text text-anchor="middle" x="294" y="-341.5" font-family="Helvetica,sans-Serif" font-size="10.00">pdal::Options</text>
</a>
</g>
</g>
<!-- Node7&#45;&gt;Node4 -->
<g id="edge6" class="edge"><title>Node7&#45;&gt;Node4</title>
<path fill="none" stroke="#9a32cd" stroke-dasharray="5,2" d="M289.825,-324.668C286.582,-314.327 281.065,-301.928 272,-294 255.998,-280.005 233.017,-273.258 214.152,-270.009"/>
<polygon fill="#9a32cd" stroke="#9a32cd" points="286.47,-325.67 292.434,-334.426 293.232,-323.862 286.47,-325.67"/>
<text text-anchor="middle" x="311.5" y="-302.5" font-family="Helvetica,sans-Serif" font-size="10.00"> m_options</text>
</g>
<!-- Node8 -->
<g id="node8" class="node"><title>Node8</title>
<g id="a_node8"><a xlink:href="classpdal_1_1Scaling.html" target="_top" xlink:title="pdal::Scaling">
<polygon fill="white" stroke="black" points="289.5,-134.5 289.5,-153.5 362.5,-153.5 362.5,-134.5 289.5,-134.5"/>
<text text-anchor="middle" x="326" y="-141.5" font-family="Helvetica,sans-Serif" font-size="10.00">pdal::Scaling</text>
</a>
</g>
</g>
<!-- Node8&#45;&gt;Node2 -->
<g id="edge7" class="edge"><title>Node8&#45;&gt;Node2</title>
<path fill="none" stroke="#9a32cd" stroke-dasharray="5,2" d="M306.951,-127.713C290.992,-114.907 268.787,-97.0884 255.751,-86.6273"/>
<polygon fill="#9a32cd" stroke="#9a32cd" points="305.086,-130.705 315.076,-134.234 309.467,-125.245 305.086,-130.705"/>
<text text-anchor="middle" x="315" y="-108" font-family="Helvetica,sans-Serif" font-size="10.00"> m_scaling</text>
</g>
<!-- Node9 -->
<g id="node9" class="node"><title>Node9</title>
<g id="a_node9"><a xlink:href="classpdal_1_1Arg.html" target="_top" xlink:title="pdal::Arg">
<polygon fill="white" stroke="black" points="298,-256.5 298,-275.5 354,-275.5 354,-256.5 298,-256.5"/>
<text text-anchor="middle" x="326" y="-263.5" font-family="Helvetica,sans-Serif" font-size="10.00">pdal::Arg</text>
</a>
</g>
</g>
<!-- Node9&#45;&gt;Node8 -->
<g id="edge8" class="edge"><title>Node9&#45;&gt;Node8</title>
<path fill="none" stroke="#9a32cd" stroke-dasharray="5,2" d="M326,-246.145C326,-219.723 326,-172.764 326,-153.552"/>
<polygon fill="#9a32cd" stroke="#9a32cd" points="322.5,-246.37 326,-256.37 329.5,-246.37 322.5,-246.37"/>
<text text-anchor="middle" x="357" y="-230" font-family="Helvetica,sans-Serif" font-size="10.00"> m_xScaleArg</text>
<text text-anchor="middle" x="357" y="-219" font-family="Helvetica,sans-Serif" font-size="10.00">m_yScaleArg</text>
<text text-anchor="middle" x="357" y="-208" font-family="Helvetica,sans-Serif" font-size="10.00">m_zScaleArg</text>
<text text-anchor="middle" x="357" y="-197" font-family="Helvetica,sans-Serif" font-size="10.00">m_xOffArg</text>
<text text-anchor="middle" x="357" y="-186" font-family="Helvetica,sans-Serif" font-size="10.00">m_yOffArg</text>
<text text-anchor="middle" x="357" y="-175" font-family="Helvetica,sans-Serif" font-size="10.00">m_zOffArg</text>
</g>
<!-- Node10 -->
<g id="node10" class="node"><title>Node10</title>
<g id="a_node10"><a xlink:href="structpdal_1_1XForm.html" target="_top" xlink:title="pdal::XForm">
<polygon fill="white" stroke="black" points="390,-256.5 390,-275.5 460,-275.5 460,-256.5 390,-256.5"/>
<text text-anchor="middle" x="425" y="-263.5" font-family="Helvetica,sans-Serif" font-size="10.00">pdal::XForm</text>
</a>
</g>
</g>
<!-- Node10&#45;&gt;Node8 -->
<g id="edge9" class="edge"><title>Node10&#45;&gt;Node8</title>
<path fill="none" stroke="#9a32cd" stroke-dasharray="5,2" d="M422.922,-246.311C419.698,-225.661 411.654,-192.607 392,-172 383.883,-163.489 372.701,-157.577 361.847,-153.506"/>
<polygon fill="#9a32cd" stroke="#9a32cd" points="419.47,-246.9 424.261,-256.349 426.408,-245.974 419.47,-246.9"/>
<text text-anchor="middle" x="446.5" y="-213.5" font-family="Helvetica,sans-Serif" font-size="10.00"> m_zXform</text>
<text text-anchor="middle" x="446.5" y="-202.5" font-family="Helvetica,sans-Serif" font-size="10.00">m_yXform</text>
<text text-anchor="middle" x="446.5" y="-191.5" font-family="Helvetica,sans-Serif" font-size="10.00">m_xXform</text>
</g>
<!-- Node11 -->
<g id="node11" class="node"><title>Node11</title>
<g id="a_node11"><a xlink:href="structpdal_1_1XForm_1_1XFormComponent.html" target="_top" xlink:title="pdal::XForm::XFormComponent">
<polygon fill="white" stroke="black" points="349.5,-334.5 349.5,-353.5 504.5,-353.5 504.5,-334.5 349.5,-334.5"/>
<text text-anchor="middle" x="427" y="-341.5" font-family="Helvetica,sans-Serif" font-size="10.00">pdal::XForm::XFormComponent</text>
</a>
</g>
</g>
<!-- Node11&#45;&gt;Node10 -->
<g id="edge10" class="edge"><title>Node11&#45;&gt;Node10</title>
<path fill="none" stroke="#9a32cd" stroke-dasharray="5,2" d="M426.506,-324.224C426.097,-308.697 425.536,-287.358 425.227,-275.616"/>
<polygon fill="#9a32cd" stroke="#9a32cd" points="423.009,-324.377 426.771,-334.282 430.006,-324.193 423.009,-324.377"/>
<text text-anchor="middle" x="448" y="-308" font-family="Helvetica,sans-Serif" font-size="10.00"> m_offset</text>
<text text-anchor="middle" x="448" y="-297" font-family="Helvetica,sans-Serif" font-size="10.00">m_scale</text>
</g>
<!-- Node12 -->
<g id="node12" class="node"><title>Node12</title>
<g id="a_node12"><a xlink:href="structpdal_1_1BpfWriter_1_1CoordId.html" target="_top" xlink:title="pdal::BpfWriter::CoordId">
<polygon fill="white" stroke="black" points="306,-67.5 306,-86.5 428,-86.5 428,-67.5 306,-67.5"/>
<text text-anchor="middle" x="367" y="-74.5" font-family="Helvetica,sans-Serif" font-size="10.00">pdal::BpfWriter::CoordId</text>
</a>
</g>
</g>
<!-- Node12&#45;&gt;Node1 -->
<g id="edge11" class="edge"><title>Node12&#45;&gt;Node1</title>
<path fill="none" stroke="#9a32cd" stroke-dasharray="5,2" d="M378.61,-59.1562C383.294,-52.4954 388.81,-44.8174 394,-38 398.688,-31.8421 404.188,-25.0921 408.516,-19.8816"/>
<polygon fill="#9a32cd" stroke="#9a32cd" points="375.69,-57.2256 372.848,-67.4321 381.434,-61.2257 375.69,-57.2256"/>
<text text-anchor="middle" x="418.5" y="-41" font-family="Helvetica,sans-Serif" font-size="10.00"> m_coordId</text>
</g>
<!-- Node13 -->
<g id="node13" class="node"><title>Node13</title>
<g id="a_node13"><a xlink:href="classpdal_1_1OLeStream.html" target="_top" xlink:title="pdal::OLeStream">
<polygon fill="white" stroke="black" points="446,-67.5 446,-86.5 536,-86.5 536,-67.5 446,-67.5"/>
<text text-anchor="middle" x="491" y="-74.5" font-family="Helvetica,sans-Serif" font-size="10.00">pdal::OLeStream</text>
</a>
</g>
</g>
<!-- Node13&#45;&gt;Node1 -->
<g id="edge12" class="edge"><title>Node13&#45;&gt;Node1</title>
<path fill="none" stroke="#9a32cd" stroke-dasharray="5,2" d="M472.95,-60.3564C458.205,-47.5777 437.913,-29.9915 425.955,-19.6273"/>
<polygon fill="#9a32cd" stroke="#9a32cd" points="471.036,-63.3294 480.885,-67.2338 475.621,-58.0396 471.036,-63.3294"/>
<text text-anchor="middle" x="481.5" y="-41" font-family="Helvetica,sans-Serif" font-size="10.00"> m_stream</text>
</g>
<!-- Node14 -->
<g id="node14" class="node"><title>Node14</title>
<g id="a_node14"><a xlink:href="classpdal_1_1OStream.html" target="_top" xlink:title="pdal::OStream">
<polygon fill="white" stroke="black" points="449,-134.5 449,-153.5 529,-153.5 529,-134.5 449,-134.5"/>
<text text-anchor="middle" x="489" y="-141.5" font-family="Helvetica,sans-Serif" font-size="10.00">pdal::OStream</text>
</a>
</g>
</g>
<!-- Node14&#45;&gt;Node13 -->
<g id="edge13" class="edge"><title>Node14&#45;&gt;Node13</title>
<path fill="none" stroke="midnightblue" d="M489.583,-124.037C489.964,-111.67 490.442,-96.1198 490.735,-86.6273"/>
<polygon fill="midnightblue" stroke="midnightblue" points="486.079,-124.131 489.27,-134.234 493.076,-124.346 486.079,-124.131"/>
</g>
<!-- Node15 -->
<g id="node15" class="node"><title>Node15</title>
<g id="a_node15"><a xlink:href="structpdal_1_1BpfHeader.html" target="_top" xlink:title="pdal::BpfHeader">
<polygon fill="white" stroke="black" points="558.5,-67.5 558.5,-86.5 645.5,-86.5 645.5,-67.5 558.5,-67.5"/>
<text text-anchor="middle" x="602" y="-74.5" font-family="Helvetica,sans-Serif" font-size="10.00">pdal::BpfHeader</text>
</a>
</g>
</g>
<!-- Node15&#45;&gt;Node1 -->
<g id="edge14" class="edge"><title>Node15&#45;&gt;Node1</title>
<path fill="none" stroke="#9a32cd" stroke-dasharray="5,2" d="M573.428,-63.4124C555.182,-55.6024 530.92,-45.6363 509,-38 489.154,-31.0862 466.516,-24.4868 448.544,-19.5433"/>
<polygon fill="#9a32cd" stroke="#9a32cd" points="572.066,-66.6366 582.634,-67.3883 574.841,-60.2103 572.066,-66.6366"/>
<text text-anchor="middle" x="561" y="-41" font-family="Helvetica,sans-Serif" font-size="10.00"> m_header</text>
</g>
<!-- Node16 -->
<g id="node16" class="node"><title>Node16</title>
<g id="a_node16"><a xlink:href="structpdal_1_1BpfMuellerMatrix.html" target="_top" xlink:title="pdal::BpfMuellerMatrix">
<polygon fill="white" stroke="black" points="547,-134.5 547,-153.5 661,-153.5 661,-134.5 547,-134.5"/>
<text text-anchor="middle" x="604" y="-141.5" font-family="Helvetica,sans-Serif" font-size="10.00">pdal::BpfMuellerMatrix</text>
</a>
</g>
</g>
<!-- Node16&#45;&gt;Node15 -->
<g id="edge15" class="edge"><title>Node16&#45;&gt;Node15</title>
<path fill="none" stroke="#9a32cd" stroke-dasharray="5,2" d="M603.417,-124.037C603.036,-111.67 602.558,-96.1198 602.265,-86.6273"/>
<polygon fill="#9a32cd" stroke="#9a32cd" points="599.924,-124.346 603.73,-134.234 606.921,-124.131 599.924,-124.346"/>
<text text-anchor="middle" x="625" y="-108" font-family="Helvetica,sans-Serif" font-size="10.00"> m_xform</text>
</g>
</g>
</svg>
