<?xml version="1.0" encoding="UTF-8" standalone="no"?>
<!DOCTYPE svg PUBLIC "-//W3C//DTD SVG 1.1//EN"
 "http://www.w3.org/Graphics/SVG/1.1/DTD/svg11.dtd">
<!-- Generated by graphviz version 2.38.0 (20140413.2041)
 -->
<!-- Title: pdal::PlyReader::extractHeader Pages: 1 -->
<svg width="1100pt" height="382pt"
 viewBox="0.00 0.00 1100.00 381.67" xmlns="http://www.w3.org/2000/svg" xmlns:xlink="http://www.w3.org/1999/xlink">
<g id="graph0" class="graph" transform="scale(1 1) rotate(0) translate(4 377.675)">
<title>pdal::PlyReader::extractHeader</title>
<polygon fill="white" stroke="none" points="-4,4 -4,-377.675 1096,-377.675 1096,4 -4,4"/>
<!-- Node1 -->
<g id="node1" class="node"><title>Node1</title>
<polygon fill="#bfbfbf" stroke="black" points="0,-60.6658 0,-90.6658 122,-90.6658 122,-60.6658 0,-60.6658"/>
<text text-anchor="start" x="8" y="-78.6658" font-family="Helvetica,sans-Serif" font-size="10.00">pdal::PlyReader::extract</text>
<text text-anchor="middle" x="61" y="-67.6658" font-family="Helvetica,sans-Serif" font-size="10.00">Header</text>
</g>
<!-- Node2 -->
<g id="node2" class="node"><title>Node2</title>
<g id="a_node2"><a xlink:href="classpdal_1_1PlyReader.html#a86c91fd3c850c095dc537b627f92c426" target="_top" xlink:title="pdal::PlyReader::extract\lElement">
<polygon fill="white" stroke="black" points="158,-230.666 158,-260.666 280,-260.666 280,-230.666 158,-230.666"/>
<text text-anchor="start" x="166" y="-248.666" font-family="Helvetica,sans-Serif" font-size="10.00">pdal::PlyReader::extract</text>
<text text-anchor="middle" x="219" y="-237.666" font-family="Helvetica,sans-Serif" font-size="10.00">Element</text>
</a>
</g>
</g>
<!-- Node1&#45;&gt;Node2 -->
<g id="edge1" class="edge"><title>Node1&#45;&gt;Node2</title>
<path fill="none" stroke="midnightblue" d="M75.844,-90.7522C103.297,-120.669 164.77,-187.659 197.144,-222.938"/>
<polygon fill="midnightblue" stroke="midnightblue" points="194.623,-225.367 203.963,-230.369 199.78,-220.635 194.623,-225.367"/>
</g>
<!-- Node14 -->
<g id="node14" class="node"><title>Node14</title>
<g id="a_node14"><a xlink:href="classpdal_1_1Stage.html#abdbd1176da12dfd882d931a43290797f" target="_top" xlink:title="pdal::Stage::throwError">
<polygon fill="white" stroke="black" points="667.5,-79.1658 667.5,-98.1658 784.5,-98.1658 784.5,-79.1658 667.5,-79.1658"/>
<text text-anchor="middle" x="726" y="-86.1658" font-family="Helvetica,sans-Serif" font-size="10.00">pdal::Stage::throwError</text>
</a>
</g>
</g>
<!-- Node1&#45;&gt;Node14 -->
<g id="edge33" class="edge"><title>Node1&#45;&gt;Node14</title>
<path fill="none" stroke="midnightblue" d="M102.609,-60.5552C152.144,-43.0831 238.831,-15.5808 316,-6.66582 452.689,9.12525 492.081,-4.31722 623,-46.6658 647.741,-54.6689 674.932,-65.9978 695.013,-74.8731"/>
<polygon fill="midnightblue" stroke="midnightblue" points="693.701,-78.1202 704.258,-79.0076 696.558,-71.7301 693.701,-78.1202"/>
</g>
<!-- Node17 -->
<g id="node17" class="node"><title>Node17</title>
<g id="a_node17"><a xlink:href="classpdal_1_1PlyReader.html#aec1ef06026968ef08b98538d2f868f13" target="_top" xlink:title="pdal::PlyReader::extractEnd">
<polygon fill="white" stroke="black" points="316,-66.1658 316,-85.1658 456,-85.1658 456,-66.1658 316,-66.1658"/>
<text text-anchor="middle" x="386" y="-73.1658" font-family="Helvetica,sans-Serif" font-size="10.00">pdal::PlyReader::extractEnd</text>
</a>
</g>
</g>
<!-- Node1&#45;&gt;Node17 -->
<g id="edge23" class="edge"><title>Node1&#45;&gt;Node17</title>
<path fill="none" stroke="midnightblue" d="M122.375,-75.6658C174.115,-75.6658 249.027,-75.6658 305.614,-75.6658"/>
<polygon fill="midnightblue" stroke="midnightblue" points="305.957,-79.1659 315.957,-75.6658 305.957,-72.1659 305.957,-79.1659"/>
</g>
<!-- Node18 -->
<g id="node18" class="node"><title>Node18</title>
<g id="a_node18"><a xlink:href="classpdal_1_1PlyReader.html#a2ce78f148be470e4d613ae7f0ab9616f" target="_top" xlink:title="pdal::PlyReader::extract\lFormat">
<polygon fill="white" stroke="black" points="325,-142.666 325,-172.666 447,-172.666 447,-142.666 325,-142.666"/>
<text text-anchor="start" x="333" y="-160.666" font-family="Helvetica,sans-Serif" font-size="10.00">pdal::PlyReader::extract</text>
<text text-anchor="middle" x="386" y="-149.666" font-family="Helvetica,sans-Serif" font-size="10.00">Format</text>
</a>
</g>
</g>
<!-- Node1&#45;&gt;Node18 -->
<g id="edge26" class="edge"><title>Node1&#45;&gt;Node18</title>
<path fill="none" stroke="midnightblue" d="M121.243,-90.7059C176.25,-104.67 258.141,-125.46 316.058,-140.164"/>
<polygon fill="midnightblue" stroke="midnightblue" points="315.306,-143.584 325.86,-142.652 317.028,-136.799 315.306,-143.584"/>
</g>
<!-- Node19 -->
<g id="node19" class="node"><title>Node19</title>
<g id="a_node19"><a xlink:href="classpdal_1_1PlyReader.html#abf004e430f1c5f6ad2a89746e54316ca" target="_top" xlink:title="pdal::PlyReader::extract\lMagic">
<polygon fill="white" stroke="black" points="325,-16.6658 325,-46.6658 447,-46.6658 447,-16.6658 325,-16.6658"/>
<text text-anchor="start" x="333" y="-34.6658" font-family="Helvetica,sans-Serif" font-size="10.00">pdal::PlyReader::extract</text>
<text text-anchor="middle" x="386" y="-23.6658" font-family="Helvetica,sans-Serif" font-size="10.00">Magic</text>
</a>
</g>
</g>
<!-- Node1&#45;&gt;Node19 -->
<g id="edge30" class="edge"><title>Node1&#45;&gt;Node19</title>
<path fill="none" stroke="midnightblue" d="M122.375,-67.4414C176.979,-60.0031 257.389,-49.0493 314.833,-41.2242"/>
<polygon fill="midnightblue" stroke="midnightblue" points="315.485,-44.6677 324.921,-39.8499 314.54,-37.7318 315.485,-44.6677"/>
</g>
<!-- Node3 -->
<g id="node3" class="node"><title>Node3</title>
<g id="a_node3"><a xlink:href="classpdal_1_1PlyReader.html#ae3efcc96eca62b8d710e725b3358e88c" target="_top" xlink:title="pdal::PlyReader::extract\lProperties">
<polygon fill="white" stroke="black" points="325,-230.666 325,-260.666 447,-260.666 447,-230.666 325,-230.666"/>
<text text-anchor="start" x="333" y="-248.666" font-family="Helvetica,sans-Serif" font-size="10.00">pdal::PlyReader::extract</text>
<text text-anchor="middle" x="386" y="-237.666" font-family="Helvetica,sans-Serif" font-size="10.00">Properties</text>
</a>
</g>
</g>
<!-- Node2&#45;&gt;Node3 -->
<g id="edge2" class="edge"><title>Node2&#45;&gt;Node3</title>
<path fill="none" stroke="midnightblue" d="M280.036,-245.666C291.296,-245.666 303.16,-245.666 314.699,-245.666"/>
<polygon fill="midnightblue" stroke="midnightblue" points="314.733,-249.166 324.733,-245.666 314.733,-242.166 314.733,-249.166"/>
</g>
<!-- Node4 -->
<g id="node4" class="node"><title>Node4</title>
<g id="a_node4"><a xlink:href="classpdal_1_1PlyReader.html#a2a95bd0d7e52c96b191a76e18cb4f488" target="_top" xlink:title="pdal::PlyReader::readLine">
<polygon fill="white" stroke="black" points="493,-174.166 493,-193.166 622,-193.166 622,-174.166 493,-174.166"/>
<text text-anchor="middle" x="557.5" y="-181.166" font-family="Helvetica,sans-Serif" font-size="10.00">pdal::PlyReader::readLine</text>
</a>
</g>
</g>
<!-- Node2&#45;&gt;Node4 -->
<g id="edge21" class="edge"><title>Node2&#45;&gt;Node4</title>
<path fill="none" stroke="midnightblue" d="M273.845,-230.612C287.53,-227.071 302.254,-223.505 316,-220.666 371.618,-209.177 435.146,-199.551 482.937,-193"/>
<polygon fill="midnightblue" stroke="midnightblue" points="483.45,-196.462 492.888,-191.649 482.508,-189.526 483.45,-196.462"/>
</g>
<!-- Node8 -->
<g id="node8" class="node"><title>Node8</title>
<g id="a_node8"><a xlink:href="classpdal_1_1PlyReader.html#aa62e075130f0a99301f45f848b0a4c85" target="_top" xlink:title="pdal::PlyReader::nextWord">
<polygon fill="white" stroke="black" points="659,-288.166 659,-307.166 793,-307.166 793,-288.166 659,-288.166"/>
<text text-anchor="middle" x="726" y="-295.166" font-family="Helvetica,sans-Serif" font-size="10.00">pdal::PlyReader::nextWord</text>
</a>
</g>
</g>
<!-- Node2&#45;&gt;Node8 -->
<g id="edge19" class="edge"><title>Node2&#45;&gt;Node8</title>
<path fill="none" stroke="midnightblue" d="M243.524,-260.818C262.405,-272.313 289.97,-287.631 316,-296.666 445.598,-341.65 487.306,-348.831 623,-328.666 646.229,-325.214 671.488,-317.569 691.059,-310.734"/>
<polygon fill="midnightblue" stroke="midnightblue" points="692.505,-313.934 700.734,-307.261 690.14,-307.346 692.505,-313.934"/>
</g>
<!-- Node13 -->
<g id="node13" class="node"><title>Node13</title>
<g id="a_node13"><a xlink:href="namespacepdal_1_1Dimension.html#af3176b0b7e6b4be000317846cf7c2718" target="_top" xlink:title="pdal::Dimension::name">
<polygon fill="white" stroke="black" points="667.5,-351.166 667.5,-370.166 784.5,-370.166 784.5,-351.166 667.5,-351.166"/>
<text text-anchor="middle" x="726" y="-358.166" font-family="Helvetica,sans-Serif" font-size="10.00">pdal::Dimension::name</text>
</a>
</g>
</g>
<!-- Node2&#45;&gt;Node13 -->
<g id="edge18" class="edge"><title>Node2&#45;&gt;Node13</title>
<path fill="none" stroke="midnightblue" d="M231.754,-260.77C248.2,-280.655 280.12,-314.93 316,-330.666 427.727,-379.666 573.128,-376.511 657.068,-369.067"/>
<polygon fill="midnightblue" stroke="midnightblue" points="657.612,-372.531 667.243,-368.116 656.961,-365.562 657.612,-372.531"/>
</g>
<!-- Node2&#45;&gt;Node14 -->
<g id="edge22" class="edge"><title>Node2&#45;&gt;Node14</title>
<path fill="none" stroke="midnightblue" d="M227.891,-230.372C241.842,-205.101 273.456,-155.187 316,-132.666 345.388,-117.109 548.487,-100.9 656.99,-93.2211"/>
<polygon fill="midnightblue" stroke="midnightblue" points="657.456,-96.6971 667.186,-92.505 656.966,-89.7143 657.456,-96.6971"/>
</g>
<!-- Node16 -->
<g id="node16" class="node"><title>Node16</title>
<g id="a_node16"><a xlink:href="classpdal_1_1PlyReader.html#a8b379a87661973d414966252e17ce400" target="_top" xlink:title="pdal::PlyReader::pushLine">
<polygon fill="white" stroke="black" points="492,-300.166 492,-319.166 623,-319.166 623,-300.166 492,-300.166"/>
<text text-anchor="middle" x="557.5" y="-307.166" font-family="Helvetica,sans-Serif" font-size="10.00">pdal::PlyReader::pushLine</text>
</a>
</g>
</g>
<!-- Node2&#45;&gt;Node16 -->
<g id="edge20" class="edge"><title>Node2&#45;&gt;Node16</title>
<path fill="none" stroke="midnightblue" d="M276.935,-260.699C289.742,-263.857 303.301,-267.027 316,-269.666 371.326,-281.163 434.354,-291.547 482.004,-298.852"/>
<polygon fill="midnightblue" stroke="midnightblue" points="481.517,-302.319 491.93,-300.364 482.571,-295.398 481.517,-302.319"/>
</g>
<!-- Node3&#45;&gt;Node4 -->
<g id="edge3" class="edge"><title>Node3&#45;&gt;Node4</title>
<path fill="none" stroke="midnightblue" d="M421.182,-230.632C441.549,-221.935 468.023,-211.082 492,-202.666 498.438,-200.406 505.299,-198.187 512.054,-196.109"/>
<polygon fill="midnightblue" stroke="midnightblue" points="513.244,-199.406 521.814,-193.176 511.229,-192.702 513.244,-199.406"/>
</g>
<!-- Node7 -->
<g id="node7" class="node"><title>Node7</title>
<g id="a_node7"><a xlink:href="classpdal_1_1PlyReader.html#a4e99f726dfafb257dd9acbca102cd633" target="_top" xlink:title="pdal::PlyReader::extract\lProperty">
<polygon fill="white" stroke="black" points="496.5,-212.666 496.5,-242.666 618.5,-242.666 618.5,-212.666 496.5,-212.666"/>
<text text-anchor="start" x="504.5" y="-230.666" font-family="Helvetica,sans-Serif" font-size="10.00">pdal::PlyReader::extract</text>
<text text-anchor="middle" x="557.5" y="-219.666" font-family="Helvetica,sans-Serif" font-size="10.00">Property</text>
</a>
</g>
</g>
<!-- Node3&#45;&gt;Node7 -->
<g id="edge6" class="edge"><title>Node3&#45;&gt;Node7</title>
<path fill="none" stroke="midnightblue" d="M447.237,-239.269C459.851,-237.929 473.257,-236.506 486.2,-235.131"/>
<polygon fill="midnightblue" stroke="midnightblue" points="486.883,-238.579 496.457,-234.042 486.144,-231.618 486.883,-238.579"/>
</g>
<!-- Node3&#45;&gt;Node16 -->
<g id="edge17" class="edge"><title>Node3&#45;&gt;Node16</title>
<path fill="none" stroke="midnightblue" d="M426.363,-260.744C446.06,-268.268 470.275,-277.486 492,-285.666 501.461,-289.228 511.713,-293.057 521.201,-296.588"/>
<polygon fill="midnightblue" stroke="midnightblue" points="520.153,-299.932 530.746,-300.135 522.592,-293.371 520.153,-299.932"/>
</g>
<!-- Node5 -->
<g id="node5" class="node"><title>Node5</title>
<g id="a_node5"><a xlink:href="namespacepdal_1_1Utils.html#afed0ad4146baafd1973c85e1508ade73" target="_top" xlink:title="pdal::Utils::trimTrailing">
<polygon fill="white" stroke="black" points="668.5,-136.166 668.5,-155.166 783.5,-155.166 783.5,-136.166 668.5,-136.166"/>
<text text-anchor="middle" x="726" y="-143.166" font-family="Helvetica,sans-Serif" font-size="10.00">pdal::Utils::trimTrailing</text>
</a>
</g>
</g>
<!-- Node4&#45;&gt;Node5 -->
<g id="edge4" class="edge"><title>Node4&#45;&gt;Node5</title>
<path fill="none" stroke="midnightblue" d="M600.515,-174.077C622.684,-169.017 650.073,-162.766 673.511,-157.417"/>
<polygon fill="midnightblue" stroke="midnightblue" points="674.317,-160.823 683.287,-155.186 672.759,-153.999 674.317,-160.823"/>
</g>
<!-- Node6 -->
<g id="node6" class="node"><title>Node6</title>
<g id="a_node6"><a xlink:href="namespacepdal_1_1Utils.html#acae5a19cd66121b77e2599daec48413d" target="_top" xlink:title="pdal::Utils::extract">
<polygon fill="white" stroke="black" points="995,-250.166 995,-269.166 1092,-269.166 1092,-250.166 995,-250.166"/>
<text text-anchor="middle" x="1043.5" y="-257.166" font-family="Helvetica,sans-Serif" font-size="10.00">pdal::Utils::extract</text>
</a>
</g>
</g>
<!-- Node4&#45;&gt;Node6 -->
<g id="edge5" class="edge"><title>Node4&#45;&gt;Node6</title>
<path fill="none" stroke="midnightblue" d="M622.19,-176.24C702.88,-169.162 845.14,-164.53 959,-202.666 983.996,-211.038 1008.4,-229.205 1024.31,-242.793"/>
<polygon fill="midnightblue" stroke="midnightblue" points="1022.41,-245.783 1032.22,-249.779 1027.04,-240.536 1022.41,-245.783"/>
</g>
<!-- Node7&#45;&gt;Node8 -->
<g id="edge7" class="edge"><title>Node7&#45;&gt;Node8</title>
<path fill="none" stroke="midnightblue" d="M592.598,-242.808C602.496,-247.396 613.259,-252.574 623,-257.666 639.415,-266.248 641.969,-271.381 659,-278.666 664.408,-280.979 670.182,-283.106 675.981,-285.033"/>
<polygon fill="midnightblue" stroke="midnightblue" points="675.113,-288.429 685.702,-288.084 677.209,-281.75 675.113,-288.429"/>
</g>
<!-- Node10 -->
<g id="node10" class="node"><title>Node10</title>
<g id="a_node10"><a xlink:href="namespacepdal_1_1Dimension.html#a880d689fed54aa3ded6f88c9e058c5d2" target="_top" xlink:title="pdal::Dimension::type">
<polygon fill="white" stroke="black" points="670,-212.166 670,-231.166 782,-231.166 782,-212.166 670,-212.166"/>
<text text-anchor="middle" x="726" y="-219.166" font-family="Helvetica,sans-Serif" font-size="10.00">pdal::Dimension::type</text>
</a>
</g>
</g>
<!-- Node7&#45;&gt;Node10 -->
<g id="edge11" class="edge"><title>Node7&#45;&gt;Node10</title>
<path fill="none" stroke="midnightblue" d="M618.61,-225.5C631.971,-225.018 646.196,-224.506 659.752,-224.017"/>
<polygon fill="midnightblue" stroke="midnightblue" points="660.095,-227.507 669.962,-223.649 659.843,-220.512 660.095,-227.507"/>
</g>
<!-- Node12 -->
<g id="node12" class="node"><title>Node12</title>
<g id="a_node12"><a xlink:href="classpdal_1_1PlyReader.html#af687933c7ab3d57e3fdfcbfce6d0e6f9" target="_top" xlink:title="pdal::PlyReader::getType">
<polygon fill="white" stroke="black" points="662,-250.166 662,-269.166 790,-269.166 790,-250.166 662,-250.166"/>
<text text-anchor="middle" x="726" y="-257.166" font-family="Helvetica,sans-Serif" font-size="10.00">pdal::PlyReader::getType</text>
</a>
</g>
</g>
<!-- Node7&#45;&gt;Node12 -->
<g id="edge13" class="edge"><title>Node7&#45;&gt;Node12</title>
<path fill="none" stroke="midnightblue" d="M618.61,-239.219C633.892,-242.156 650.305,-245.31 665.554,-248.241"/>
<polygon fill="midnightblue" stroke="midnightblue" points="664.902,-251.679 675.383,-250.13 666.223,-244.805 664.902,-251.679"/>
</g>
<!-- Node7&#45;&gt;Node13 -->
<g id="edge14" class="edge"><title>Node7&#45;&gt;Node13</title>
<path fill="none" stroke="midnightblue" d="M574.279,-242.863C593.593,-261.173 627.613,-292.487 659,-316.666 672.344,-326.945 688.003,-337.446 700.719,-345.61"/>
<polygon fill="midnightblue" stroke="midnightblue" points="699.063,-348.705 709.383,-351.106 702.813,-342.794 699.063,-348.705"/>
</g>
<!-- Node7&#45;&gt;Node14 -->
<g id="edge15" class="edge"><title>Node7&#45;&gt;Node14</title>
<path fill="none" stroke="midnightblue" d="M609.011,-212.57C614.077,-209.785 618.866,-206.51 623,-202.666 650.37,-177.214 633.65,-154.13 659,-126.666 668.128,-116.776 680.432,-108.743 691.942,-102.654"/>
<polygon fill="midnightblue" stroke="midnightblue" points="693.53,-105.774 700.928,-98.1895 690.415,-99.5051 693.53,-105.774"/>
</g>
<!-- Node8&#45;&gt;Node6 -->
<g id="edge10" class="edge"><title>Node8&#45;&gt;Node6</title>
<path fill="none" stroke="midnightblue" d="M793.042,-294.757C839.626,-292.096 903.38,-287.227 959,-278.666 971.054,-276.81 983.956,-274.193 995.926,-271.493"/>
<polygon fill="midnightblue" stroke="midnightblue" points="996.772,-274.89 1005.72,-269.22 995.19,-268.071 996.772,-274.89"/>
</g>
<!-- Node9 -->
<g id="node9" class="node"><title>Node9</title>
<g id="a_node9"><a xlink:href="namespacepdal_1_1Utils.html#a9bda8c5dbe5ef7cf66e99ba022184934" target="_top" xlink:title="pdal::Utils::extractSpaces">
<polygon fill="white" stroke="black" points="829,-250.166 829,-269.166 959,-269.166 959,-250.166 829,-250.166"/>
<text text-anchor="middle" x="894" y="-257.166" font-family="Helvetica,sans-Serif" font-size="10.00">pdal::Utils::extractSpaces</text>
</a>
</g>
</g>
<!-- Node8&#45;&gt;Node9 -->
<g id="edge8" class="edge"><title>Node8&#45;&gt;Node9</title>
<path fill="none" stroke="midnightblue" d="M768.889,-288.077C790.893,-283.04 818.055,-276.822 841.352,-271.489"/>
<polygon fill="midnightblue" stroke="midnightblue" points="842.446,-274.829 851.412,-269.186 840.884,-268.006 842.446,-274.829"/>
</g>
<!-- Node9&#45;&gt;Node6 -->
<g id="edge9" class="edge"><title>Node9&#45;&gt;Node6</title>
<path fill="none" stroke="midnightblue" d="M959.267,-259.666C967.766,-259.666 976.437,-259.666 984.816,-259.666"/>
<polygon fill="midnightblue" stroke="midnightblue" points="984.862,-263.166 994.862,-259.666 984.862,-256.166 984.862,-263.166"/>
</g>
<!-- Node11 -->
<g id="node11" class="node"><title>Node11</title>
<g id="a_node11"><a xlink:href="namespacepdal_1_1Utils.html#a5268937cf695835e55392f752dc02cb2" target="_top" xlink:title="pdal::Utils::tolower">
<polygon fill="white" stroke="black" points="845,-212.166 845,-231.166 943,-231.166 943,-212.166 845,-212.166"/>
<text text-anchor="middle" x="894" y="-219.166" font-family="Helvetica,sans-Serif" font-size="10.00">pdal::Utils::tolower</text>
</a>
</g>
</g>
<!-- Node10&#45;&gt;Node11 -->
<g id="edge12" class="edge"><title>Node10&#45;&gt;Node11</title>
<path fill="none" stroke="midnightblue" d="M782.276,-221.666C799.068,-221.666 817.571,-221.666 834.565,-221.666"/>
<polygon fill="midnightblue" stroke="midnightblue" points="834.922,-225.166 844.921,-221.666 834.921,-218.166 834.922,-225.166"/>
</g>
<!-- Node15 -->
<g id="node15" class="node"><title>Node15</title>
<g id="a_node15"><a xlink:href="classpdal_1_1Stage.html#a6c81d6fbbac17ebe4cd63806916cc750" target="_top" xlink:title="pdal::Stage::getName">
<polygon fill="white" stroke="black" points="838,-79.1658 838,-98.1658 950,-98.1658 950,-79.1658 838,-79.1658"/>
<text text-anchor="middle" x="894" y="-86.1658" font-family="Helvetica,sans-Serif" font-size="10.00">pdal::Stage::getName</text>
</a>
</g>
</g>
<!-- Node14&#45;&gt;Node15 -->
<g id="edge16" class="edge"><title>Node14&#45;&gt;Node15</title>
<path fill="none" stroke="midnightblue" d="M784.593,-88.6658C798.458,-88.6658 813.369,-88.6658 827.563,-88.6658"/>
<polygon fill="midnightblue" stroke="midnightblue" points="827.746,-92.1659 837.746,-88.6658 827.746,-85.1659 827.746,-92.1659"/>
</g>
<!-- Node17&#45;&gt;Node4 -->
<g id="edge24" class="edge"><title>Node17&#45;&gt;Node4</title>
<path fill="none" stroke="midnightblue" d="M402.042,-85.2501C431.495,-104.016 496.985,-145.745 532.494,-168.37"/>
<polygon fill="midnightblue" stroke="midnightblue" points="530.934,-171.526 541.248,-173.948 534.695,-165.622 530.934,-171.526"/>
</g>
<!-- Node17&#45;&gt;Node14 -->
<g id="edge25" class="edge"><title>Node17&#45;&gt;Node14</title>
<path fill="none" stroke="midnightblue" d="M456.215,-78.3279C514.974,-80.5879 598.806,-83.8122 657.167,-86.0569"/>
<polygon fill="midnightblue" stroke="midnightblue" points="657.266,-89.5632 667.393,-86.4502 657.535,-82.5683 657.266,-89.5632"/>
</g>
<!-- Node18&#45;&gt;Node4 -->
<g id="edge28" class="edge"><title>Node18&#45;&gt;Node4</title>
<path fill="none" stroke="midnightblue" d="M447.237,-166.906C459.205,-168.742 471.888,-170.687 484.211,-172.577"/>
<polygon fill="midnightblue" stroke="midnightblue" points="484.039,-176.092 494.454,-174.148 485.1,-169.173 484.039,-176.092"/>
</g>
<!-- Node18&#45;&gt;Node8 -->
<g id="edge27" class="edge"><title>Node18&#45;&gt;Node8</title>
<path fill="none" stroke="midnightblue" d="M403.302,-172.671C431.48,-198.55 486.8,-249.073 492,-251.666 540.901,-276.049 601.614,-287.515 648.805,-292.902"/>
<polygon fill="midnightblue" stroke="midnightblue" points="648.647,-296.406 658.964,-293.993 649.395,-289.446 648.647,-296.406"/>
</g>
<!-- Node18&#45;&gt;Node14 -->
<g id="edge29" class="edge"><title>Node18&#45;&gt;Node14</title>
<path fill="none" stroke="midnightblue" d="M447.163,-151.208C495.163,-145.405 563.91,-135.635 623,-121.666 645.519,-116.342 670.223,-108.406 689.678,-101.651"/>
<polygon fill="midnightblue" stroke="midnightblue" points="691.068,-104.872 699.334,-98.2456 688.74,-98.2705 691.068,-104.872"/>
</g>
<!-- Node19&#45;&gt;Node4 -->
<g id="edge31" class="edge"><title>Node19&#45;&gt;Node4</title>
<path fill="none" stroke="midnightblue" d="M438.734,-46.7757C444.819,-49.5889 450.728,-52.8666 456,-56.6658 497.241,-86.3878 530.356,-137.472 546.254,-164.921"/>
<polygon fill="midnightblue" stroke="midnightblue" points="543.349,-166.895 551.315,-173.881 549.444,-163.452 543.349,-166.895"/>
</g>
<!-- Node19&#45;&gt;Node14 -->
<g id="edge32" class="edge"><title>Node19&#45;&gt;Node14</title>
<path fill="none" stroke="midnightblue" d="M447.038,-41.7906C506.429,-51.8061 597.116,-67.0996 658.621,-77.4717"/>
<polygon fill="midnightblue" stroke="midnightblue" points="658.168,-80.9447 668.611,-79.1565 659.332,-74.0422 658.168,-80.9447"/>
</g>
</g>
</svg>
