<?xml version="1.0" encoding="UTF-8" standalone="no"?>
<!DOCTYPE svg PUBLIC "-//W3C//DTD SVG 1.1//EN"
 "http://www.w3.org/Graphics/SVG/1.1/DTD/svg11.dtd">
<!-- Generated by graphviz version 2.38.0 (20140413.2041)
 -->
<!-- Title: pdal::PointView::getFieldAs Pages: 1 -->
<svg width="860pt" height="1374pt"
 viewBox="0.00 0.00 860.00 1374.00" xmlns="http://www.w3.org/2000/svg" xmlns:xlink="http://www.w3.org/1999/xlink">
<g id="graph0" class="graph" transform="scale(1 1) rotate(0) translate(4 1370)">
<title>pdal::PointView::getFieldAs</title>
<polygon fill="white" stroke="none" points="-4,4 -4,-1370 856,-1370 856,4 -4,4"/>
<!-- Node1 -->
<g id="node1" class="node"><title>Node1</title>
<polygon fill="#bfbfbf" stroke="black" points="0,-635.5 0,-654.5 137,-654.5 137,-635.5 0,-635.5"/>
<text text-anchor="middle" x="68.5" y="-642.5" font-family="Helvetica,sans-Serif" font-size="10.00">pdal::PointView::getFieldAs</text>
</g>
<!-- Node2 -->
<g id="node2" class="node"><title>Node2</title>
<g id="a_node2"><a xlink:href="classSupport.html#a1507a3257a1c6684f3575fa49befbe5c" target="_top" xlink:title="Support::check_pN">
<polygon fill="white" stroke="black" points="194.5,-1228.5 194.5,-1247.5 295.5,-1247.5 295.5,-1228.5 194.5,-1228.5"/>
<text text-anchor="middle" x="245" y="-1235.5" font-family="Helvetica,sans-Serif" font-size="10.00">Support::check_pN</text>
</a>
</g>
</g>
<!-- Node1&#45;&gt;Node2 -->
<g id="edge1" class="edge"><title>Node1&#45;&gt;Node2</title>
<path fill="none" stroke="midnightblue" d="M70.1881,-664.919C73.2935,-735.033 89.7751,-975.641 173,-1151 188.213,-1183.05 217.681,-1213.5 233.446,-1228.43"/>
<polygon fill="midnightblue" stroke="midnightblue" points="73.6687,-664.361 69.7731,-654.508 66.6742,-664.639 73.6687,-664.361"/>
</g>
<!-- Node8 -->
<g id="node8" class="node"><title>Node8</title>
<g id="a_node8"><a xlink:href="QFITReaderTest_8cpp.html#aa58ce96230bbe3f6864ca8d68f66f022" target="_top" xlink:title="Check_Point">
<polygon fill="white" stroke="black" points="208.5,-1122.5 208.5,-1141.5 281.5,-1141.5 281.5,-1122.5 208.5,-1122.5"/>
<text text-anchor="middle" x="245" y="-1129.5" font-family="Helvetica,sans-Serif" font-size="10.00">Check_Point</text>
</a>
</g>
</g>
<!-- Node1&#45;&gt;Node8 -->
<g id="edge7" class="edge"><title>Node1&#45;&gt;Node8</title>
<path fill="none" stroke="midnightblue" d="M71.1973,-664.989C78.4464,-745.717 109.385,-1046.53 173,-1113 182.176,-1122.59 195.614,-1127.52 208.337,-1130"/>
<polygon fill="midnightblue" stroke="midnightblue" points="74.658,-664.386 70.2986,-654.73 67.6847,-664.997 74.658,-664.386"/>
</g>
<!-- Node10 -->
<g id="node10" class="node"><title>Node10</title>
<g id="a_node10"><a xlink:href="IcebridgeReaderTest_8cpp.html#aeeb72d8c589853d3fe048f20adb0f293" target="_top" xlink:title="checkDimension">
<polygon fill="white" stroke="black" points="200.5,-1084.5 200.5,-1103.5 289.5,-1103.5 289.5,-1084.5 200.5,-1084.5"/>
<text text-anchor="middle" x="245" y="-1091.5" font-family="Helvetica,sans-Serif" font-size="10.00">checkDimension</text>
</a>
</g>
</g>
<!-- Node1&#45;&gt;Node10 -->
<g id="edge9" class="edge"><title>Node1&#45;&gt;Node10</title>
<path fill="none" stroke="midnightblue" d="M71.5986,-664.821C80.0652,-741.121 114.11,-1014.6 173,-1075 180.305,-1082.49 190.214,-1087.13 200.311,-1089.98"/>
<polygon fill="midnightblue" stroke="midnightblue" points="75.057,-664.248 70.497,-654.685 68.098,-665.004 75.057,-664.248"/>
</g>
<!-- Node12 -->
<g id="node12" class="node"><title>Node12</title>
<g id="a_node12"><a xlink:href="Ilvis2ReaderTest_8cpp.html#a10c9703c60d7e90aa4a510afeab2f704" target="_top" xlink:title="checkPoint">
<polygon fill="white" stroke="black" points="212.5,-1046.5 212.5,-1065.5 277.5,-1065.5 277.5,-1046.5 212.5,-1046.5"/>
<text text-anchor="middle" x="245" y="-1053.5" font-family="Helvetica,sans-Serif" font-size="10.00">checkPoint</text>
</a>
</g>
</g>
<!-- Node1&#45;&gt;Node12 -->
<g id="edge11" class="edge"><title>Node1&#45;&gt;Node12</title>
<path fill="none" stroke="midnightblue" d="M72.1018,-664.883C81.9109,-736.896 118.872,-982.691 173,-1037 183.269,-1047.3 198.471,-1052.2 212.177,-1054.46"/>
<polygon fill="midnightblue" stroke="midnightblue" points="75.5126,-663.983 70.7177,-654.535 68.5744,-664.911 75.5126,-663.983"/>
</g>
<!-- Node13 -->
<g id="node13" class="node"><title>Node13</title>
<g id="a_node13"><a xlink:href="namespacepdal_1_1eigen.html#a77a9913ed3d09f4d6105909e8ad4a5e5" target="_top" xlink:title="pdal::eigen::computeCentroid">
<polygon fill="white" stroke="black" points="173,-1008.5 173,-1027.5 317,-1027.5 317,-1008.5 173,-1008.5"/>
<text text-anchor="middle" x="245" y="-1015.5" font-family="Helvetica,sans-Serif" font-size="10.00">pdal::eigen::computeCentroid</text>
</a>
</g>
</g>
<!-- Node1&#45;&gt;Node13 -->
<g id="edge12" class="edge"><title>Node1&#45;&gt;Node13</title>
<path fill="none" stroke="midnightblue" d="M69.3961,-664.708C70.1755,-723.247 80.5281,-897.977 173,-994 179.137,-1000.37 187.024,-1005.05 195.297,-1008.49"/>
<polygon fill="midnightblue" stroke="midnightblue" points="72.8957,-664.59 69.3464,-654.608 65.8958,-664.625 72.8957,-664.59"/>
</g>
<!-- Node15 -->
<g id="node15" class="node"><title>Node15</title>
<g id="a_node15"><a xlink:href="namespacepdal_1_1eigen.html#a90d92be03d31009bbd1a4575c766eff0" target="_top" xlink:title="pdal::eigen::computeCovariance">
<polygon fill="white" stroke="black" points="353,-996.5 353,-1015.5 510,-1015.5 510,-996.5 353,-996.5"/>
<text text-anchor="middle" x="431.5" y="-1003.5" font-family="Helvetica,sans-Serif" font-size="10.00">pdal::eigen::computeCovariance</text>
</a>
</g>
</g>
<!-- Node1&#45;&gt;Node15 -->
<g id="edge20" class="edge"><title>Node1&#45;&gt;Node15</title>
<path fill="none" stroke="midnightblue" d="M69.6565,-664.935C71.2439,-720.411 83.7852,-877.649 173,-956 199.347,-979.139 287.179,-992.533 352.987,-999.533"/>
<polygon fill="midnightblue" stroke="midnightblue" points="73.1515,-664.638 69.4603,-654.707 66.1528,-664.772 73.1515,-664.638"/>
</g>
<!-- Node21 -->
<g id="node21" class="node"><title>Node21</title>
<g id="a_node21"><a xlink:href="namespacepdal_1_1eigen.html#a9eb56b77a9f1daac90fe69149299e901" target="_top" xlink:title="pdal::eigen::createMaxMatrix">
<polygon fill="white" stroke="black" points="548.5,-932.5 548.5,-951.5 691.5,-951.5 691.5,-932.5 548.5,-932.5"/>
<text text-anchor="middle" x="620" y="-939.5" font-family="Helvetica,sans-Serif" font-size="10.00">pdal::eigen::createMaxMatrix</text>
</a>
</g>
</g>
<!-- Node1&#45;&gt;Node21 -->
<g id="edge21" class="edge"><title>Node1&#45;&gt;Node21</title>
<path fill="none" stroke="midnightblue" d="M71.1779,-664.783C76.4138,-713.003 96.99,-836.894 173,-895 292.227,-986.143 484.754,-966.682 572.611,-951.502"/>
<polygon fill="midnightblue" stroke="midnightblue" points="74.6503,-664.329 70.1937,-654.718 67.6835,-665.011 74.6503,-664.329"/>
</g>
<!-- Node22 -->
<g id="node22" class="node"><title>Node22</title>
<g id="a_node22"><a xlink:href="namespacepdal_1_1eigen.html#a07e6e0633883fbc9b7c33e7dbaa29b10" target="_top" xlink:title="pdal::eigen::createMaxMatrix2">
<polygon fill="white" stroke="black" points="546,-894.5 546,-913.5 694,-913.5 694,-894.5 546,-894.5"/>
<text text-anchor="middle" x="620" y="-901.5" font-family="Helvetica,sans-Serif" font-size="10.00">pdal::eigen::createMaxMatrix2</text>
</a>
</g>
</g>
<!-- Node1&#45;&gt;Node22 -->
<g id="edge23" class="edge"><title>Node1&#45;&gt;Node22</title>
<path fill="none" stroke="midnightblue" d="M72.2846,-664.507C79.6886,-708.458 104.227,-815.189 173,-864 231.166,-905.283 435.1,-907.935 545.943,-906.126"/>
<polygon fill="midnightblue" stroke="midnightblue" points="75.7282,-663.874 70.7227,-654.536 68.8126,-664.957 75.7282,-663.874"/>
</g>
<!-- Node23 -->
<g id="node23" class="node"><title>Node23</title>
<g id="a_node23"><a xlink:href="namespacepdal_1_1eigen.html#aa987b7cbf37504e39491b728eb906da3" target="_top" xlink:title="pdal::eigen::createMinMatrix">
<polygon fill="white" stroke="black" points="550,-856.5 550,-875.5 690,-875.5 690,-856.5 550,-856.5"/>
<text text-anchor="middle" x="620" y="-863.5" font-family="Helvetica,sans-Serif" font-size="10.00">pdal::eigen::createMinMatrix</text>
</a>
</g>
</g>
<!-- Node1&#45;&gt;Node23 -->
<g id="edge25" class="edge"><title>Node1&#45;&gt;Node23</title>
<path fill="none" stroke="midnightblue" d="M73.6047,-664.544C83.1406,-704.5 110.879,-795.121 173,-835 233.581,-873.891 440.543,-872.697 549.94,-869.09"/>
<polygon fill="midnightblue" stroke="midnightblue" points="76.9994,-663.687 71.3843,-654.702 70.171,-665.227 76.9994,-663.687"/>
</g>
<!-- Node24 -->
<g id="node24" class="node"><title>Node24</title>
<g id="a_node24"><a xlink:href="namespacepdal_1_1eigen.html#a06de07ba3b8cc9060e3a34d6e3d234d8" target="_top" xlink:title="pdal::eigen::extendedLocal\lMinimum">
<polygon fill="white" stroke="black" points="553.5,-807 553.5,-837 686.5,-837 686.5,-807 553.5,-807"/>
<text text-anchor="start" x="561.5" y="-825" font-family="Helvetica,sans-Serif" font-size="10.00">pdal::eigen::extendedLocal</text>
<text text-anchor="middle" x="620" y="-814" font-family="Helvetica,sans-Serif" font-size="10.00">Minimum</text>
</a>
</g>
</g>
<!-- Node1&#45;&gt;Node24 -->
<g id="edge27" class="edge"><title>Node1&#45;&gt;Node24</title>
<path fill="none" stroke="midnightblue" d="M75.1218,-664.548C86.6685,-700.633 116.816,-776.945 173,-809 235.993,-844.941 445.45,-835.259 553.408,-827.467"/>
<polygon fill="midnightblue" stroke="midnightblue" points="78.3934,-663.277 72.1272,-654.734 71.6981,-665.32 78.3934,-663.277"/>
</g>
<!-- Node25 -->
<g id="node25" class="node"><title>Node25</title>
<g id="a_node25"><a xlink:href="classpdal_1_1ComputeRangeFilter.html#a5fd751a356cdbff6ea2c58c744ae2bd7" target="_top" xlink:title="pdal::ComputeRangeFilter\l::filter">
<polygon fill="white" stroke="black" points="179.5,-769 179.5,-799 310.5,-799 310.5,-769 179.5,-769"/>
<text text-anchor="start" x="187.5" y="-787" font-family="Helvetica,sans-Serif" font-size="10.00">pdal::ComputeRangeFilter</text>
<text text-anchor="middle" x="245" y="-776" font-family="Helvetica,sans-Serif" font-size="10.00">::filter</text>
</a>
</g>
</g>
<!-- Node1&#45;&gt;Node25 -->
<g id="edge29" class="edge"><title>Node1&#45;&gt;Node25</title>
<path fill="none" stroke="midnightblue" d="M81.6227,-663.246C99.0604,-688.178 133.505,-732.779 173,-759 178.77,-762.831 185.194,-766.147 191.754,-768.998"/>
<polygon fill="midnightblue" stroke="midnightblue" points="84.333,-661.01 75.7971,-654.734 78.5561,-664.963 84.333,-661.01"/>
</g>
<!-- Node26 -->
<g id="node26" class="node"><title>Node26</title>
<g id="a_node26"><a xlink:href="classpdal_1_1LOFFilter.html#acd584a9b602c5c804271361eea4180a0" target="_top" xlink:title="pdal::LOFFilter::filter">
<polygon fill="white" stroke="black" points="192,-730.5 192,-749.5 298,-749.5 298,-730.5 192,-730.5"/>
<text text-anchor="middle" x="245" y="-737.5" font-family="Helvetica,sans-Serif" font-size="10.00">pdal::LOFFilter::filter</text>
</a>
</g>
</g>
<!-- Node1&#45;&gt;Node26 -->
<g id="edge30" class="edge"><title>Node1&#45;&gt;Node26</title>
<path fill="none" stroke="midnightblue" d="M87.3574,-661.381C106.984,-678.563 140.114,-705.218 173,-721 180.938,-724.809 189.755,-727.945 198.4,-730.494"/>
<polygon fill="midnightblue" stroke="midnightblue" points="89.6067,-658.697 79.8126,-654.656 84.9492,-663.923 89.6067,-658.697"/>
</g>
<!-- Node27 -->
<g id="node27" class="node"><title>Node27</title>
<g id="a_node27"><a xlink:href="classpdal_1_1HAGFilter.html#af2b63a5eed2c9b3d27bc5b37851b5c71" target="_top" xlink:title="pdal::HAGFilter::filter">
<polygon fill="white" stroke="black" points="190.5,-692.5 190.5,-711.5 299.5,-711.5 299.5,-692.5 190.5,-692.5"/>
<text text-anchor="middle" x="245" y="-699.5" font-family="Helvetica,sans-Serif" font-size="10.00">pdal::HAGFilter::filter</text>
</a>
</g>
</g>
<!-- Node1&#45;&gt;Node27 -->
<g id="edge31" class="edge"><title>Node1&#45;&gt;Node27</title>
<path fill="none" stroke="midnightblue" d="M102.906,-658.137C123.053,-665.841 149.32,-675.501 173,-683 183.583,-686.351 195.173,-689.619 205.864,-692.473"/>
<polygon fill="midnightblue" stroke="midnightblue" points="104.135,-654.86 93.5452,-654.53 101.618,-661.392 104.135,-654.86"/>
</g>
<!-- Node28 -->
<g id="node28" class="node"><title>Node28</title>
<g id="a_node28"><a xlink:href="classpdal_1_1ELMFilter.html#a0bd1a3df59df71d3a4eff593c54f36d9" target="_top" xlink:title="pdal::ELMFilter::filter">
<polygon fill="white" stroke="black" points="191.5,-654.5 191.5,-673.5 298.5,-673.5 298.5,-654.5 191.5,-654.5"/>
<text text-anchor="middle" x="245" y="-661.5" font-family="Helvetica,sans-Serif" font-size="10.00">pdal::ELMFilter::filter</text>
</a>
</g>
</g>
<!-- Node1&#45;&gt;Node28 -->
<g id="edge32" class="edge"><title>Node1&#45;&gt;Node28</title>
<path fill="none" stroke="midnightblue" d="M147.631,-653.507C162.426,-655.118 177.575,-656.767 191.35,-658.267"/>
<polygon fill="midnightblue" stroke="midnightblue" points="147.786,-650.003 137.466,-652.4 147.028,-656.962 147.786,-650.003"/>
</g>
<!-- Node29 -->
<g id="node29" class="node"><title>Node29</title>
<g id="a_node29"><a xlink:href="classpdal_1_1HexBin.html#a22f91b8b374bd2ea4b9a44d9199ea6e8" target="_top" xlink:title="pdal::HexBin::filter">
<polygon fill="white" stroke="black" points="196,-616.5 196,-635.5 294,-635.5 294,-616.5 196,-616.5"/>
<text text-anchor="middle" x="245" y="-623.5" font-family="Helvetica,sans-Serif" font-size="10.00">pdal::HexBin::filter</text>
</a>
</g>
</g>
<!-- Node1&#45;&gt;Node29 -->
<g id="edge33" class="edge"><title>Node1&#45;&gt;Node29</title>
<path fill="none" stroke="midnightblue" d="M147.631,-636.493C164.081,-634.702 180.969,-632.863 195.92,-631.235"/>
<polygon fill="midnightblue" stroke="midnightblue" points="147.028,-633.038 137.466,-637.6 147.786,-639.997 147.028,-633.038"/>
</g>
<!-- Node30 -->
<g id="node30" class="node"><title>Node30</title>
<g id="a_node30"><a xlink:href="classpdal_1_1ColorinterpFilter.html#afbedcf0821624baf83586d9290310948" target="_top" xlink:title="pdal::ColorinterpFilter\l::filter">
<polygon fill="white" stroke="black" points="190,-567 190,-597 300,-597 300,-567 190,-567"/>
<text text-anchor="start" x="198" y="-585" font-family="Helvetica,sans-Serif" font-size="10.00">pdal::ColorinterpFilter</text>
<text text-anchor="middle" x="245" y="-574" font-family="Helvetica,sans-Serif" font-size="10.00">::filter</text>
</a>
</g>
</g>
<!-- Node1&#45;&gt;Node30 -->
<g id="edge34" class="edge"><title>Node1&#45;&gt;Node30</title>
<path fill="none" stroke="midnightblue" d="M105.022,-631.825C124.977,-624.458 150.349,-615.146 173,-607 181.977,-603.772 191.608,-600.352 200.789,-597.112"/>
<polygon fill="midnightblue" stroke="midnightblue" points="103.578,-628.628 95.4116,-635.378 106.005,-635.194 103.578,-628.628"/>
</g>
<!-- Node31 -->
<g id="node31" class="node"><title>Node31</title>
<g id="a_node31"><a xlink:href="classpdal_1_1BpfWriter.html#a3a14953a8baa61b81bae32286441f2cd" target="_top" xlink:title="pdal::BpfWriter::getAdjusted\lValue">
<polygon fill="white" stroke="black" points="175,-518 175,-548 315,-548 315,-518 175,-518"/>
<text text-anchor="start" x="183" y="-536" font-family="Helvetica,sans-Serif" font-size="10.00">pdal::BpfWriter::getAdjusted</text>
<text text-anchor="middle" x="245" y="-525" font-family="Helvetica,sans-Serif" font-size="10.00">Value</text>
</a>
</g>
</g>
<!-- Node1&#45;&gt;Node31 -->
<g id="edge35" class="edge"><title>Node1&#45;&gt;Node31</title>
<path fill="none" stroke="midnightblue" d="M85.6859,-628.114C104.933,-608.862 138.779,-577.538 173,-558 179.469,-554.307 186.577,-551.019 193.719,-548.139"/>
<polygon fill="midnightblue" stroke="midnightblue" points="83.1145,-625.737 78.5987,-635.321 88.1057,-630.645 83.1145,-625.737"/>
</g>
<!-- Node35 -->
<g id="node35" class="node"><title>Node35</title>
<g id="a_node35"><a xlink:href="classpdal_1_1GreedyProjection.html#a3386475661b04c459aae2cf7b21ed0ed" target="_top" xlink:title="pdal::GreedyProjection\l::getCoord">
<polygon fill="white" stroke="black" points="187,-469 187,-499 303,-499 303,-469 187,-469"/>
<text text-anchor="start" x="195" y="-487" font-family="Helvetica,sans-Serif" font-size="10.00">pdal::GreedyProjection</text>
<text text-anchor="middle" x="245" y="-476" font-family="Helvetica,sans-Serif" font-size="10.00">::getCoord</text>
</a>
</g>
</g>
<!-- Node1&#45;&gt;Node35 -->
<g id="edge39" class="edge"><title>Node1&#45;&gt;Node35</title>
<path fill="none" stroke="midnightblue" d="M79.1428,-626.109C94.9379,-596.956 129.016,-541.03 173,-509 178.282,-505.154 184.209,-501.856 190.328,-499.04"/>
<polygon fill="midnightblue" stroke="midnightblue" points="75.9058,-624.744 74.3322,-635.221 82.0961,-628.012 75.9058,-624.744"/>
</g>
<!-- Node38 -->
<g id="node38" class="node"><title>Node38</title>
<g id="a_node38"><a xlink:href="classpdal_1_1GreedyProjection.html#ac16f8a4c3814944430671c5446cd4db0" target="_top" xlink:title="pdal::GreedyProjection\l::getNormalCoord">
<polygon fill="white" stroke="black" points="373.5,-425 373.5,-455 489.5,-455 489.5,-425 373.5,-425"/>
<text text-anchor="start" x="381.5" y="-443" font-family="Helvetica,sans-Serif" font-size="10.00">pdal::GreedyProjection</text>
<text text-anchor="middle" x="431.5" y="-432" font-family="Helvetica,sans-Serif" font-size="10.00">::getNormalCoord</text>
</a>
</g>
</g>
<!-- Node1&#45;&gt;Node38 -->
<g id="edge43" class="edge"><title>Node1&#45;&gt;Node38</title>
<path fill="none" stroke="midnightblue" d="M74.002,-625.197C84.0821,-585.941 112.487,-498.712 173,-460 233.057,-421.58 317.845,-423.17 373.475,-429.89"/>
<polygon fill="midnightblue" stroke="midnightblue" points="70.5505,-624.578 71.5862,-635.122 77.3519,-626.234 70.5505,-624.578"/>
</g>
<!-- Node39 -->
<g id="node39" class="node"><title>Node39</title>
<g id="a_node39"><a xlink:href="namespaceanonymous__namespace_02ReprojectionFilterTest_8cpp_03.html#a174ed1fffbad99a456e9263e21877754" target="_top" xlink:title="anonymous_namespace\l\{ReprojectionFilterTest\l::cpp\}::getPoint">
<polygon fill="white" stroke="red" points="184,-370.5 184,-411.5 306,-411.5 306,-370.5 184,-370.5"/>
<text text-anchor="start" x="192" y="-399.5" font-family="Helvetica,sans-Serif" font-size="10.00">anonymous_namespace</text>
<text text-anchor="start" x="192" y="-388.5" font-family="Helvetica,sans-Serif" font-size="10.00">{ReprojectionFilterTest</text>
<text text-anchor="middle" x="245" y="-377.5" font-family="Helvetica,sans-Serif" font-size="10.00">::cpp}::getPoint</text>
</a>
</g>
</g>
<!-- Node1&#45;&gt;Node39 -->
<g id="edge45" class="edge"><title>Node1&#45;&gt;Node39</title>
<path fill="none" stroke="midnightblue" d="M74.0619,-625.422C84.6707,-583.765 114.652,-485.319 173,-426 178.397,-420.513 184.83,-415.752 191.588,-411.662"/>
<polygon fill="midnightblue" stroke="midnightblue" points="70.604,-624.828 71.6256,-635.374 77.4032,-626.493 70.604,-624.828"/>
</g>
<!-- Node43 -->
<g id="node43" class="node"><title>Node43</title>
<g id="a_node43"><a xlink:href="classpdal_1_1ChipperFilter.html#aaf9d0b5f727f7dfa1423835b3fe23a5f" target="_top" xlink:title="pdal::ChipperFilter\l::load">
<polygon fill="white" stroke="red" points="197,-322 197,-352 293,-352 293,-322 197,-322"/>
<text text-anchor="start" x="205" y="-340" font-family="Helvetica,sans-Serif" font-size="10.00">pdal::ChipperFilter</text>
<text text-anchor="middle" x="245" y="-329" font-family="Helvetica,sans-Serif" font-size="10.00">::load</text>
</a>
</g>
</g>
<!-- Node1&#45;&gt;Node43 -->
<g id="edge49" class="edge"><title>Node1&#45;&gt;Node43</title>
<path fill="none" stroke="midnightblue" d="M70.9574,-625.32C75.7871,-574.304 95.6935,-436.51 173,-361 179.609,-354.545 188.013,-349.824 196.708,-346.372"/>
<polygon fill="midnightblue" stroke="midnightblue" points="67.4652,-625.08 70.102,-635.342 74.4398,-625.676 67.4652,-625.08"/>
</g>
<!-- Node44 -->
<g id="node44" class="node"><title>Node44</title>
<g id="a_node44"><a xlink:href="classpdal_1_1PointViewSource.html#a167c9e5a92be222f698aba3acdb3762a" target="_top" xlink:title="pdal::PointViewSource\l::nextPoint">
<polygon fill="white" stroke="black" points="187,-273 187,-303 303,-303 303,-273 187,-273"/>
<text text-anchor="start" x="195" y="-291" font-family="Helvetica,sans-Serif" font-size="10.00">pdal::PointViewSource</text>
<text text-anchor="middle" x="245" y="-280" font-family="Helvetica,sans-Serif" font-size="10.00">::nextPoint</text>
</a>
</g>
</g>
<!-- Node1&#45;&gt;Node44 -->
<g id="edge50" class="edge"><title>Node1&#45;&gt;Node44</title>
<path fill="none" stroke="midnightblue" d="M69.8119,-625.181C71.7814,-568.519 85.1758,-404.077 173,-313 176.991,-308.861 181.708,-305.406 186.783,-302.523"/>
<polygon fill="midnightblue" stroke="midnightblue" points="66.31,-625.209 69.5469,-635.298 73.3076,-625.393 66.31,-625.209"/>
</g>
<!-- Node45 -->
<g id="node45" class="node"><title>Node45</title>
<g id="a_node45"><a xlink:href="classpdal_1_1ColorPointViewSource.html#a4eb35ee03a2227baee8d917085197b98" target="_top" xlink:title="pdal::ColorPointViewSource\l::nextPoint">
<polygon fill="white" stroke="black" points="175.5,-224 175.5,-254 314.5,-254 314.5,-224 175.5,-224"/>
<text text-anchor="start" x="183.5" y="-242" font-family="Helvetica,sans-Serif" font-size="10.00">pdal::ColorPointViewSource</text>
<text text-anchor="middle" x="245" y="-231" font-family="Helvetica,sans-Serif" font-size="10.00">::nextPoint</text>
</a>
</g>
</g>
<!-- Node1&#45;&gt;Node45 -->
<g id="edge51" class="edge"><title>Node1&#45;&gt;Node45</title>
<path fill="none" stroke="midnightblue" d="M68.8644,-625.204C67.9759,-563.247 73.73,-370.827 173,-264 176.558,-260.171 180.738,-256.928 185.258,-254.181"/>
<polygon fill="midnightblue" stroke="midnightblue" points="65.3653,-625.285 69.0866,-635.205 72.3635,-625.129 65.3653,-625.285"/>
</g>
<!-- Node46 -->
<g id="node46" class="node"><title>Node46</title>
<g id="a_node46"><a xlink:href="classpdal_1_1PointViewMesh.html#a57b2d7d9b5cdb507fac5dc702d7f9298" target="_top" xlink:title="pdal::PointViewMesh\l::nextPoint">
<polygon fill="white" stroke="black" points="190.5,-175 190.5,-205 299.5,-205 299.5,-175 190.5,-175"/>
<text text-anchor="start" x="198.5" y="-193" font-family="Helvetica,sans-Serif" font-size="10.00">pdal::PointViewMesh</text>
<text text-anchor="middle" x="245" y="-182" font-family="Helvetica,sans-Serif" font-size="10.00">::nextPoint</text>
</a>
</g>
</g>
<!-- Node1&#45;&gt;Node46 -->
<g id="edge52" class="edge"><title>Node1&#45;&gt;Node46</title>
<path fill="none" stroke="midnightblue" d="M71.7414,-625.313C80.7372,-549.509 116.481,-277.622 173,-215 177.816,-209.664 183.839,-205.467 190.33,-202.166"/>
<polygon fill="midnightblue" stroke="midnightblue" points="68.2492,-625.044 70.5683,-635.382 75.2021,-625.854 68.2492,-625.044"/>
</g>
<!-- Node47 -->
<g id="node47" class="node"><title>Node47</title>
<g id="a_node47"><a xlink:href="namespacepdal_1_1eigen.html#a8cca9caad55d997fe9e961272c2cea8c" target="_top" xlink:title="pdal::eigen::pointViewTo\lEigen">
<polygon fill="white" stroke="red" points="183,-126 183,-156 307,-156 307,-126 183,-126"/>
<text text-anchor="start" x="191" y="-144" font-family="Helvetica,sans-Serif" font-size="10.00">pdal::eigen::pointViewTo</text>
<text text-anchor="middle" x="245" y="-133" font-family="Helvetica,sans-Serif" font-size="10.00">Eigen</text>
</a>
</g>
</g>
<!-- Node1&#45;&gt;Node47 -->
<g id="edge53" class="edge"><title>Node1&#45;&gt;Node47</title>
<path fill="none" stroke="midnightblue" d="M71.2759,-624.682C78.8309,-542.606 110.797,-236.562 173,-166 176.37,-162.177 180.361,-158.938 184.706,-156.195"/>
<polygon fill="midnightblue" stroke="midnightblue" points="67.7478,-624.838 70.3377,-635.112 74.7196,-625.465 67.7478,-624.838"/>
</g>
<!-- Node48 -->
<g id="node48" class="node"><title>Node48</title>
<g id="a_node48"><a xlink:href="structpdal_1_1QuadIndex_1_1QImpl.html#a7bc821750980d6a1e69364ec8ac274ae" target="_top" xlink:title="pdal::QuadIndex::QImpl\l::QImpl">
<polygon fill="white" stroke="black" points="185,-77 185,-107 305,-107 305,-77 185,-77"/>
<text text-anchor="start" x="193" y="-95" font-family="Helvetica,sans-Serif" font-size="10.00">pdal::QuadIndex::QImpl</text>
<text text-anchor="middle" x="245" y="-84" font-family="Helvetica,sans-Serif" font-size="10.00">::QImpl</text>
</a>
</g>
</g>
<!-- Node1&#45;&gt;Node48 -->
<g id="edge54" class="edge"><title>Node1&#45;&gt;Node48</title>
<path fill="none" stroke="midnightblue" d="M70.753,-625.353C76.6304,-539.087 104.131,-194.678 173,-116 176.428,-112.084 180.518,-108.805 184.98,-106.061"/>
<polygon fill="midnightblue" stroke="midnightblue" points="67.2586,-625.155 70.0903,-635.364 74.2433,-625.617 67.2586,-625.155"/>
</g>
<!-- Node49 -->
<g id="node49" class="node"><title>Node49</title>
<g id="a_node49"><a xlink:href="PointViewTest_8cpp.html#a554817f7ce5a0b214316854b9c23c480" target="_top" xlink:title="TEST">
<polygon fill="white" stroke="black" points="224,-38.5 224,-57.5 266,-57.5 266,-38.5 224,-38.5"/>
<text text-anchor="middle" x="245" y="-45.5" font-family="Helvetica,sans-Serif" font-size="10.00">TEST</text>
</a>
</g>
</g>
<!-- Node1&#45;&gt;Node49 -->
<g id="edge55" class="edge"><title>Node1&#45;&gt;Node49</title>
<path fill="none" stroke="midnightblue" d="M70.2778,-625.196C74.2756,-533.54 95.4341,-151.396 173,-67 185.866,-53.0016 207.807,-48.8617 223.901,-47.8466"/>
<polygon fill="midnightblue" stroke="midnightblue" points="66.7756,-625.179 69.856,-635.316 73.7695,-625.471 66.7756,-625.179"/>
</g>
<!-- Node50 -->
<g id="node50" class="node"><title>Node50</title>
<g id="a_node50"><a xlink:href="PythonFilterTest_8cpp.html#ac349fd10d5edf782f81de4df561d6acd" target="_top" xlink:title="verifyTestView">
<polygon fill="white" stroke="red" points="204,-0.5 204,-19.5 286,-19.5 286,-0.5 204,-0.5"/>
<text text-anchor="middle" x="245" y="-7.5" font-family="Helvetica,sans-Serif" font-size="10.00">verifyTestView</text>
</a>
</g>
</g>
<!-- Node1&#45;&gt;Node50 -->
<g id="edge56" class="edge"><title>Node1&#45;&gt;Node50</title>
<path fill="none" stroke="midnightblue" d="M70.0418,-625.112C73.0432,-529.682 90.6286,-119.595 173,-29 180.897,-20.3142 192.288,-15.4175 203.642,-12.7082"/>
<polygon fill="midnightblue" stroke="midnightblue" points="66.5422,-625.049 69.7447,-635.148 73.5392,-625.256 66.5422,-625.049"/>
</g>
<!-- Node3 -->
<g id="node3" class="node"><title>Node3</title>
<g id="a_node3"><a xlink:href="classSupport.html#a169d6b87b05f8047bed88bba55f6f69a" target="_top" xlink:title="Support::check_p0_p1_p2">
<polygon fill="white" stroke="red" points="366.5,-1346.5 366.5,-1365.5 496.5,-1365.5 496.5,-1346.5 366.5,-1346.5"/>
<text text-anchor="middle" x="431.5" y="-1353.5" font-family="Helvetica,sans-Serif" font-size="10.00">Support::check_p0_p1_p2</text>
</a>
</g>
</g>
<!-- Node2&#45;&gt;Node3 -->
<g id="edge2" class="edge"><title>Node2&#45;&gt;Node3</title>
<path fill="none" stroke="midnightblue" d="M259.993,-1255.58C278.759,-1277.94 314.238,-1316.15 353,-1337 360.198,-1340.87 368.195,-1343.97 376.24,-1346.44"/>
<polygon fill="midnightblue" stroke="midnightblue" points="262.484,-1253.1 253.434,-1247.59 257.074,-1257.54 262.484,-1253.1"/>
</g>
<!-- Node4 -->
<g id="node4" class="node"><title>Node4</title>
<g id="a_node4"><a xlink:href="classSupport.html#abef8edb7c3c99322ef76cba69002f8ad" target="_top" xlink:title="Support::check_p100\l_p101_p102">
<polygon fill="white" stroke="red" points="377,-1297 377,-1327 486,-1327 486,-1297 377,-1297"/>
<text text-anchor="start" x="385" y="-1315" font-family="Helvetica,sans-Serif" font-size="10.00">Support::check_p100</text>
<text text-anchor="middle" x="431.5" y="-1304" font-family="Helvetica,sans-Serif" font-size="10.00">_p101_p102</text>
</a>
</g>
</g>
<!-- Node2&#45;&gt;Node4 -->
<g id="edge3" class="edge"><title>Node2&#45;&gt;Node4</title>
<path fill="none" stroke="midnightblue" d="M273.727,-1252.24C295.065,-1262.88 325.467,-1277.36 353,-1288 361.146,-1291.15 369.892,-1294.18 378.469,-1296.96"/>
<polygon fill="midnightblue" stroke="midnightblue" points="275.109,-1249.01 264.603,-1247.65 271.963,-1255.27 275.109,-1249.01"/>
</g>
<!-- Node5 -->
<g id="node5" class="node"><title>Node5</title>
<g id="a_node5"><a xlink:href="classSupport.html#a94ed323d03ff2477fb5fe3f5a265a29f" target="_top" xlink:title="Support::check_p355\l_p356_p357">
<polygon fill="white" stroke="black" points="377,-1248 377,-1278 486,-1278 486,-1248 377,-1248"/>
<text text-anchor="start" x="385" y="-1266" font-family="Helvetica,sans-Serif" font-size="10.00">Support::check_p355</text>
<text text-anchor="middle" x="431.5" y="-1255" font-family="Helvetica,sans-Serif" font-size="10.00">_p356_p357</text>
</a>
</g>
</g>
<!-- Node2&#45;&gt;Node5 -->
<g id="edge4" class="edge"><title>Node2&#45;&gt;Node5</title>
<path fill="none" stroke="midnightblue" d="M305.871,-1246.11C328.766,-1249.21 354.709,-1252.73 376.975,-1255.75"/>
<polygon fill="midnightblue" stroke="midnightblue" points="306.308,-1242.64 295.928,-1244.77 305.368,-1249.58 306.308,-1242.64"/>
</g>
<!-- Node6 -->
<g id="node6" class="node"><title>Node6</title>
<g id="a_node6"><a xlink:href="classSupport.html#afb27d4ba32e2d69ec609dca1b8994213" target="_top" xlink:title="Support::check_p710\l_p711_p712">
<polygon fill="white" stroke="black" points="377,-1199 377,-1229 486,-1229 486,-1199 377,-1199"/>
<text text-anchor="start" x="385" y="-1217" font-family="Helvetica,sans-Serif" font-size="10.00">Support::check_p710</text>
<text text-anchor="middle" x="431.5" y="-1206" font-family="Helvetica,sans-Serif" font-size="10.00">_p711_p712</text>
</a>
</g>
</g>
<!-- Node2&#45;&gt;Node6 -->
<g id="edge5" class="edge"><title>Node2&#45;&gt;Node6</title>
<path fill="none" stroke="midnightblue" d="M305.871,-1230.21C328.766,-1227.23 354.709,-1223.86 376.975,-1220.96"/>
<polygon fill="midnightblue" stroke="midnightblue" points="305.393,-1226.74 295.928,-1231.51 306.296,-1233.69 305.393,-1226.74"/>
</g>
<!-- Node7 -->
<g id="node7" class="node"><title>Node7</title>
<g id="a_node7"><a xlink:href="LasReaderTest_8cpp.html#aa76b17cddb63cde84b93800acc213041" target="_top" xlink:title="test_a_format">
<polygon fill="white" stroke="red" points="393,-1160.5 393,-1179.5 470,-1179.5 470,-1160.5 393,-1160.5"/>
<text text-anchor="middle" x="431.5" y="-1167.5" font-family="Helvetica,sans-Serif" font-size="10.00">test_a_format</text>
</a>
</g>
</g>
<!-- Node2&#45;&gt;Node7 -->
<g id="edge6" class="edge"><title>Node2&#45;&gt;Node7</title>
<path fill="none" stroke="midnightblue" d="M274.04,-1223.85C295.321,-1213.5 325.508,-1199.64 353,-1190 365.72,-1185.54 379.927,-1181.59 392.669,-1178.4"/>
<polygon fill="midnightblue" stroke="midnightblue" points="272.359,-1220.77 264.931,-1228.33 275.449,-1227.05 272.359,-1220.77"/>
</g>
<!-- Node9 -->
<g id="node9" class="node"><title>Node9</title>
<g id="a_node9"><a xlink:href="QFITReaderTest_8cpp.html#a6e4c00f07ff27033cc8bb74096ad5714" target="_top" xlink:title="TEST">
<polygon fill="white" stroke="black" points="410.5,-1122.5 410.5,-1141.5 452.5,-1141.5 452.5,-1122.5 410.5,-1122.5"/>
<text text-anchor="middle" x="431.5" y="-1129.5" font-family="Helvetica,sans-Serif" font-size="10.00">TEST</text>
</a>
</g>
</g>
<!-- Node8&#45;&gt;Node9 -->
<g id="edge8" class="edge"><title>Node8&#45;&gt;Node9</title>
<path fill="none" stroke="midnightblue" d="M291.895,-1132C329.936,-1132 382.187,-1132 410.426,-1132"/>
<polygon fill="midnightblue" stroke="midnightblue" points="291.573,-1128.5 281.573,-1132 291.573,-1135.5 291.573,-1128.5"/>
</g>
<!-- Node11 -->
<g id="node11" class="node"><title>Node11</title>
<g id="a_node11"><a xlink:href="IcebridgeReaderTest_8cpp.html#a01e44cae19992987203bbce0525d78a3" target="_top" xlink:title="checkPoint">
<polygon fill="white" stroke="black" points="399,-1084.5 399,-1103.5 464,-1103.5 464,-1084.5 399,-1084.5"/>
<text text-anchor="middle" x="431.5" y="-1091.5" font-family="Helvetica,sans-Serif" font-size="10.00">checkPoint</text>
</a>
</g>
</g>
<!-- Node10&#45;&gt;Node11 -->
<g id="edge10" class="edge"><title>Node10&#45;&gt;Node11</title>
<path fill="none" stroke="midnightblue" d="M299.875,-1094C332.039,-1094 371.778,-1094 398.923,-1094"/>
<polygon fill="midnightblue" stroke="midnightblue" points="299.724,-1090.5 289.724,-1094 299.724,-1097.5 299.724,-1090.5"/>
</g>
<!-- Node14 -->
<g id="node14" class="node"><title>Node14</title>
<g id="a_node14"><a xlink:href="classpdal_1_1VoxelCentroidNearestNeighborFilter.html#a2ecd640ccb33081784cc859a76900b68" target="_top" xlink:title="pdal::VoxelCentroidNearest\lNeighborFilter::run">
<polygon fill="white" stroke="black" points="363,-1035 363,-1065 500,-1065 500,-1035 363,-1035"/>
<text text-anchor="start" x="371" y="-1053" font-family="Helvetica,sans-Serif" font-size="10.00">pdal::VoxelCentroidNearest</text>
<text text-anchor="middle" x="431.5" y="-1042" font-family="Helvetica,sans-Serif" font-size="10.00">NeighborFilter::run</text>
</a>
</g>
</g>
<!-- Node13&#45;&gt;Node14 -->
<g id="edge13" class="edge"><title>Node13&#45;&gt;Node14</title>
<path fill="none" stroke="midnightblue" d="M311.094,-1029.29C327.843,-1032.19 345.903,-1035.33 362.782,-1038.25"/>
<polygon fill="midnightblue" stroke="midnightblue" points="311.308,-1025.77 300.857,-1027.51 310.111,-1032.67 311.308,-1025.77"/>
</g>
<!-- Node13&#45;&gt;Node15 -->
<g id="edge14" class="edge"><title>Node13&#45;&gt;Node15</title>
<path fill="none" stroke="midnightblue" d="M327.293,-1012.71C335.741,-1012.16 344.314,-1011.61 352.722,-1011.06"/>
<polygon fill="midnightblue" stroke="midnightblue" points="326.82,-1009.24 317.069,-1013.38 327.275,-1016.22 326.82,-1009.24"/>
</g>
<!-- Node16 -->
<g id="node16" class="node"><title>Node16</title>
<g id="a_node16"><a xlink:href="classpdal_1_1ApproximateCoplanarFilter.html#ae6d624215959d717deb5fecc9fe13764" target="_top" xlink:title="pdal::ApproximateCoplanar\lFilter::filter">
<polygon fill="white" stroke="black" points="553,-1107 553,-1137 687,-1137 687,-1107 553,-1107"/>
<text text-anchor="start" x="561" y="-1125" font-family="Helvetica,sans-Serif" font-size="10.00">pdal::ApproximateCoplanar</text>
<text text-anchor="middle" x="620" y="-1114" font-family="Helvetica,sans-Serif" font-size="10.00">Filter::filter</text>
</a>
</g>
</g>
<!-- Node15&#45;&gt;Node16 -->
<g id="edge15" class="edge"><title>Node15&#45;&gt;Node16</title>
<path fill="none" stroke="midnightblue" d="M501.041,-1019.97C504.203,-1021.75 507.214,-1023.75 510,-1026 537.823,-1048.49 518.924,-1074.61 546,-1098 549.938,-1101.4 554.37,-1104.32 559.054,-1106.83"/>
<polygon fill="midnightblue" stroke="midnightblue" points="502.319,-1016.7 491.79,-1015.52 499.288,-1023.01 502.319,-1016.7"/>
</g>
<!-- Node17 -->
<g id="node17" class="node"><title>Node17</title>
<g id="a_node17"><a xlink:href="classpdal_1_1EigenvaluesFilter.html#ace1cf82ccbdbeb69c62e0be58464e2ef" target="_top" xlink:title="pdal::EigenvaluesFilter\l::filter">
<polygon fill="white" stroke="black" points="562,-1058 562,-1088 678,-1088 678,-1058 562,-1058"/>
<text text-anchor="start" x="570" y="-1076" font-family="Helvetica,sans-Serif" font-size="10.00">pdal::EigenvaluesFilter</text>
<text text-anchor="middle" x="620" y="-1065" font-family="Helvetica,sans-Serif" font-size="10.00">::filter</text>
</a>
</g>
</g>
<!-- Node15&#45;&gt;Node17 -->
<g id="edge16" class="edge"><title>Node15&#45;&gt;Node17</title>
<path fill="none" stroke="midnightblue" d="M488.981,-1018.33C496.175,-1020.55 503.343,-1023.1 510,-1026 527.409,-1033.58 528.847,-1040.86 546,-1049 552.87,-1052.26 560.3,-1055.26 567.699,-1057.95"/>
<polygon fill="midnightblue" stroke="midnightblue" points="489.781,-1014.92 479.203,-1015.51 487.837,-1021.65 489.781,-1014.92"/>
</g>
<!-- Node18 -->
<g id="node18" class="node"><title>Node18</title>
<g id="a_node18"><a xlink:href="classpdal_1_1NormalFilter.html#a8bf36602629c8ff4ba8d7563b444aa2d" target="_top" xlink:title="pdal::NormalFilter\l::filter">
<polygon fill="white" stroke="red" points="573,-1009 573,-1039 667,-1039 667,-1009 573,-1009"/>
<text text-anchor="start" x="581" y="-1027" font-family="Helvetica,sans-Serif" font-size="10.00">pdal::NormalFilter</text>
<text text-anchor="middle" x="620" y="-1016" font-family="Helvetica,sans-Serif" font-size="10.00">::filter</text>
</a>
</g>
</g>
<!-- Node15&#45;&gt;Node18 -->
<g id="edge17" class="edge"><title>Node15&#45;&gt;Node18</title>
<path fill="none" stroke="midnightblue" d="M520.285,-1014.47C538.445,-1016.23 556.883,-1018 572.83,-1019.54"/>
<polygon fill="midnightblue" stroke="midnightblue" points="520.532,-1010.98 510.242,-1013.5 519.86,-1017.95 520.532,-1010.98"/>
</g>
<!-- Node19 -->
<g id="node19" class="node"><title>Node19</title>
<g id="a_node19"><a xlink:href="namespacepdal_1_1eigen.html#a19247293524a59ec2c829c20fca832f7" target="_top" xlink:title="pdal::eigen::computeRank">
<polygon fill="white" stroke="red" points="554.5,-970.5 554.5,-989.5 685.5,-989.5 685.5,-970.5 554.5,-970.5"/>
<text text-anchor="middle" x="620" y="-977.5" font-family="Helvetica,sans-Serif" font-size="10.00">pdal::eigen::computeRank</text>
</a>
</g>
</g>
<!-- Node15&#45;&gt;Node19 -->
<g id="edge18" class="edge"><title>Node15&#45;&gt;Node19</title>
<path fill="none" stroke="midnightblue" d="M510.825,-995.081C525.321,-993.06 540.311,-990.97 554.344,-989.014"/>
<polygon fill="midnightblue" stroke="midnightblue" points="510.308,-991.619 500.887,-996.466 511.274,-998.552 510.308,-991.619"/>
</g>
<!-- Node20 -->
<g id="node20" class="node"><title>Node20</title>
<g id="a_node20"><a xlink:href="namespacepdal_1_1eigen.html#ab66d3e2ad4a22c909e99668dd0ab6f5d" target="_top" xlink:title="pdal::eigen::centralDiffY">
<polygon fill="white" stroke="red" points="730,-894.5 730,-913.5 852,-913.5 852,-894.5 730,-894.5"/>
<text text-anchor="middle" x="791" y="-901.5" font-family="Helvetica,sans-Serif" font-size="10.00">pdal::eigen::centralDiffY</text>
</a>
</g>
</g>
<!-- Node19&#45;&gt;Node20 -->
<g id="edge19" class="edge"><title>Node19&#45;&gt;Node20</title>
<path fill="none" stroke="midnightblue" d="M675.81,-967.535C682.03,-965.592 688.21,-963.415 694,-961 725.306,-947.94 758.671,-926.1 776.652,-913.586"/>
<polygon fill="midnightblue" stroke="midnightblue" points="674.663,-964.224 666.052,-970.396 676.633,-970.941 674.663,-964.224"/>
</g>
<!-- Node21&#45;&gt;Node20 -->
<g id="edge22" class="edge"><title>Node21&#45;&gt;Node20</title>
<path fill="none" stroke="midnightblue" d="M673.587,-930.176C697.413,-924.818 725.207,-918.569 747.661,-913.52"/>
<polygon fill="midnightblue" stroke="midnightblue" points="672.634,-926.802 663.646,-932.411 674.17,-933.632 672.634,-926.802"/>
</g>
<!-- Node22&#45;&gt;Node20 -->
<g id="edge24" class="edge"><title>Node22&#45;&gt;Node20</title>
<path fill="none" stroke="midnightblue" d="M704.28,-904C712.941,-904 721.619,-904 729.95,-904"/>
<polygon fill="midnightblue" stroke="midnightblue" points="704.143,-900.5 694.143,-904 704.143,-907.5 704.143,-900.5"/>
</g>
<!-- Node23&#45;&gt;Node20 -->
<g id="edge26" class="edge"><title>Node23&#45;&gt;Node20</title>
<path fill="none" stroke="midnightblue" d="M673.587,-877.824C697.413,-883.182 725.207,-889.431 747.661,-894.48"/>
<polygon fill="midnightblue" stroke="midnightblue" points="674.17,-874.368 663.646,-875.589 672.634,-881.198 674.17,-874.368"/>
</g>
<!-- Node24&#45;&gt;Node20 -->
<g id="edge28" class="edge"><title>Node24&#45;&gt;Node20</title>
<path fill="none" stroke="midnightblue" d="M678.822,-840.559C684.009,-842.596 689.136,-844.752 694,-847 724.44,-861.067 757.58,-882.152 775.869,-894.346"/>
<polygon fill="midnightblue" stroke="midnightblue" points="680.052,-837.282 669.46,-837.025 677.58,-843.831 680.052,-837.282"/>
</g>
<!-- Node32 -->
<g id="node32" class="node"><title>Node32</title>
<g id="a_node32"><a xlink:href="classpdal_1_1BpfWriter.html#a8784f84370d69b9ae4dbbd632ed0f27a" target="_top" xlink:title="pdal::BpfWriter::writeByte\lMajor">
<polygon fill="white" stroke="red" points="367,-660 367,-690 496,-690 496,-660 367,-660"/>
<text text-anchor="start" x="375" y="-678" font-family="Helvetica,sans-Serif" font-size="10.00">pdal::BpfWriter::writeByte</text>
<text text-anchor="middle" x="431.5" y="-667" font-family="Helvetica,sans-Serif" font-size="10.00">Major</text>
</a>
</g>
</g>
<!-- Node31&#45;&gt;Node32 -->
<g id="edge36" class="edge"><title>Node31&#45;&gt;Node32</title>
<path fill="none" stroke="midnightblue" d="M312.323,-553.942C313.958,-555.216 315.522,-556.567 317,-558 348.819,-588.854 320.597,-620.76 353,-651 357.119,-654.844 361.843,-658.073 366.882,-660.785"/>
<polygon fill="midnightblue" stroke="midnightblue" points="313.904,-550.792 303.633,-548.192 310.041,-556.629 313.904,-550.792"/>
</g>
<!-- Node33 -->
<g id="node33" class="node"><title>Node33</title>
<g id="a_node33"><a xlink:href="classpdal_1_1BpfWriter.html#a28a12ad585ecfe6f9b21129c435184d4" target="_top" xlink:title="pdal::BpfWriter::writeDim\lMajor">
<polygon fill="white" stroke="red" points="368,-611 368,-641 495,-641 495,-611 368,-611"/>
<text text-anchor="start" x="376" y="-629" font-family="Helvetica,sans-Serif" font-size="10.00">pdal::BpfWriter::writeDim</text>
<text text-anchor="middle" x="431.5" y="-618" font-family="Helvetica,sans-Serif" font-size="10.00">Major</text>
</a>
</g>
</g>
<!-- Node31&#45;&gt;Node33 -->
<g id="edge37" class="edge"><title>Node31&#45;&gt;Node33</title>
<path fill="none" stroke="midnightblue" d="M308.392,-552.65C311.383,-554.305 314.272,-556.086 317,-558 337.684,-572.512 332.043,-587.886 353,-602 358.024,-605.383 363.546,-608.307 369.258,-610.83"/>
<polygon fill="midnightblue" stroke="midnightblue" points="309.685,-549.384 299.173,-548.055 306.562,-555.649 309.685,-549.384"/>
</g>
<!-- Node34 -->
<g id="node34" class="node"><title>Node34</title>
<g id="a_node34"><a xlink:href="classpdal_1_1BpfWriter.html#a9d45245505629571977d2116cdd07a5e" target="_top" xlink:title="pdal::BpfWriter::writePoint\lMajor">
<polygon fill="white" stroke="red" points="366,-562 366,-592 497,-592 497,-562 366,-562"/>
<text text-anchor="start" x="374" y="-580" font-family="Helvetica,sans-Serif" font-size="10.00">pdal::BpfWriter::writePoint</text>
<text text-anchor="middle" x="431.5" y="-569" font-family="Helvetica,sans-Serif" font-size="10.00">Major</text>
</a>
</g>
</g>
<!-- Node31&#45;&gt;Node34 -->
<g id="edge38" class="edge"><title>Node31&#45;&gt;Node34</title>
<path fill="none" stroke="midnightblue" d="M318.864,-550.377C334.943,-554.211 351.844,-558.242 367.492,-561.974"/>
<polygon fill="midnightblue" stroke="midnightblue" points="319.518,-546.935 308.978,-548.019 317.894,-553.744 319.518,-546.935"/>
</g>
<!-- Node36 -->
<g id="node36" class="node"><title>Node36</title>
<g id="a_node36"><a xlink:href="classpdal_1_1GreedyProjection.html#a6d044bb31d1c1c6071960457ef929bb2" target="_top" xlink:title="Forms a new triangle by connecting the current neighbor to the query point and the previous neighbor...">
<polygon fill="white" stroke="black" points="373.5,-513 373.5,-543 489.5,-543 489.5,-513 373.5,-513"/>
<text text-anchor="start" x="381.5" y="-531" font-family="Helvetica,sans-Serif" font-size="10.00">pdal::GreedyProjection</text>
<text text-anchor="middle" x="431.5" y="-520" font-family="Helvetica,sans-Serif" font-size="10.00">::connectPoint</text>
</a>
</g>
</g>
<!-- Node35&#45;&gt;Node36 -->
<g id="edge40" class="edge"><title>Node35&#45;&gt;Node36</title>
<path fill="none" stroke="midnightblue" d="M312.979,-499.973C332.765,-504.692 354.232,-509.811 373.339,-514.368"/>
<polygon fill="midnightblue" stroke="midnightblue" points="313.653,-496.536 303.113,-497.621 312.029,-503.345 313.653,-496.536"/>
</g>
<!-- Node37 -->
<g id="node37" class="node"><title>Node37</title>
<g id="a_node37"><a xlink:href="classpdal_1_1GreedyProjection.html#aa0de48c450a56b726634e29d28fd5427" target="_top" xlink:title="pdal::GreedyProjection\l::filter">
<polygon fill="white" stroke="black" points="562,-469 562,-499 678,-499 678,-469 562,-469"/>
<text text-anchor="start" x="570" y="-487" font-family="Helvetica,sans-Serif" font-size="10.00">pdal::GreedyProjection</text>
<text text-anchor="middle" x="620" y="-476" font-family="Helvetica,sans-Serif" font-size="10.00">::filter</text>
</a>
</g>
</g>
<!-- Node35&#45;&gt;Node37 -->
<g id="edge42" class="edge"><title>Node35&#45;&gt;Node37</title>
<path fill="none" stroke="midnightblue" d="M313.237,-484C384.262,-484 495.04,-484 561.95,-484"/>
<polygon fill="midnightblue" stroke="midnightblue" points="313.057,-480.5 303.057,-484 313.057,-487.5 313.057,-480.5"/>
</g>
<!-- Node36&#45;&gt;Node37 -->
<g id="edge41" class="edge"><title>Node36&#45;&gt;Node37</title>
<path fill="none" stroke="midnightblue" d="M499.575,-512.175C519.979,-507.362 542.202,-502.119 561.885,-497.475"/>
<polygon fill="midnightblue" stroke="midnightblue" points="498.653,-508.797 489.724,-514.5 500.26,-515.61 498.653,-508.797"/>
</g>
<!-- Node38&#45;&gt;Node37 -->
<g id="edge44" class="edge"><title>Node38&#45;&gt;Node37</title>
<path fill="none" stroke="midnightblue" d="M499.575,-455.825C519.979,-460.638 542.202,-465.881 561.885,-470.525"/>
<polygon fill="midnightblue" stroke="midnightblue" points="500.26,-452.39 489.724,-453.5 498.653,-459.203 500.26,-452.39"/>
</g>
<!-- Node40 -->
<g id="node40" class="node"><title>Node40</title>
<g id="a_node40"><a xlink:href="classpdal_1_1SimplePointTable.html#a78d8d1064458e3b7fb068cf743871a73" target="_top" xlink:title="pdal::SimplePointTable\l::getDimension">
<polygon fill="white" stroke="black" points="373,-376 373,-406 490,-406 490,-376 373,-376"/>
<text text-anchor="start" x="381" y="-394" font-family="Helvetica,sans-Serif" font-size="10.00">pdal::SimplePointTable</text>
<text text-anchor="middle" x="431.5" y="-383" font-family="Helvetica,sans-Serif" font-size="10.00">::getDimension</text>
</a>
</g>
</g>
<!-- Node39&#45;&gt;Node40 -->
<g id="edge46" class="edge"><title>Node39&#45;&gt;Node40</title>
<path fill="none" stroke="midnightblue" d="M316.385,-391C335.069,-391 355.023,-391 372.935,-391"/>
<polygon fill="midnightblue" stroke="midnightblue" points="316.157,-387.5 306.157,-391 316.157,-394.5 316.157,-387.5"/>
</g>
<!-- Node41 -->
<g id="node41" class="node"><title>Node41</title>
<g id="a_node41"><a xlink:href="classpdal_1_1BasePointTable.html#a82dcbafa29259989b24307186fbda54c" target="_top" xlink:title="pdal::BasePointTable\l::supportsView">
<polygon fill="white" stroke="red" points="376.5,-327 376.5,-357 486.5,-357 486.5,-327 376.5,-327"/>
<text text-anchor="start" x="384.5" y="-345" font-family="Helvetica,sans-Serif" font-size="10.00">pdal::BasePointTable</text>
<text text-anchor="middle" x="431.5" y="-334" font-family="Helvetica,sans-Serif" font-size="10.00">::supportsView</text>
</a>
</g>
</g>
<!-- Node39&#45;&gt;Node41 -->
<g id="edge47" class="edge"><title>Node39&#45;&gt;Node41</title>
<path fill="none" stroke="midnightblue" d="M315.851,-372.449C335.881,-367.129 357.411,-361.411 376.343,-356.383"/>
<polygon fill="midnightblue" stroke="midnightblue" points="314.923,-369.074 306.157,-375.023 316.72,-375.839 314.923,-369.074"/>
</g>
<!-- Node42 -->
<g id="node42" class="node"><title>Node42</title>
<g id="a_node42"><a xlink:href="classpdal_1_1PointTable.html#a9fc44492557cf443647aa6d5b7e30c7d" target="_top" xlink:title="pdal::PointTable::supportsView">
<polygon fill="white" stroke="black" points="355.5,-288.5 355.5,-307.5 507.5,-307.5 507.5,-288.5 355.5,-288.5"/>
<text text-anchor="middle" x="431.5" y="-295.5" font-family="Helvetica,sans-Serif" font-size="10.00">pdal::PointTable::supportsView</text>
</a>
</g>
</g>
<!-- Node39&#45;&gt;Node42 -->
<g id="edge48" class="edge"><title>Node39&#45;&gt;Node42</title>
<path fill="none" stroke="midnightblue" d="M312.155,-365.36C313.815,-364.277 315.434,-363.157 317,-362 337.32,-346.983 331.712,-331.61 353,-318 359.79,-313.659 367.482,-310.258 375.318,-307.595"/>
<polygon fill="midnightblue" stroke="midnightblue" points="310.367,-362.351 303.556,-370.467 313.942,-368.369 310.367,-362.351"/>
</g>
</g>
</svg>
