<?xml version="1.0" encoding="UTF-8" standalone="no"?>
<!DOCTYPE svg PUBLIC "-//W3C//DTD SVG 1.1//EN"
 "http://www.w3.org/Graphics/SVG/1.1/DTD/svg11.dtd">
<!-- Generated by graphviz version 2.38.0 (20140413.2041)
 -->
<!-- Title: pdal::PointView::size Pages: 1 -->
<svg width="464pt" height="2234pt"
 viewBox="0.00 0.00 464.00 2233.50" xmlns="http://www.w3.org/2000/svg" xmlns:xlink="http://www.w3.org/1999/xlink">
<g id="graph0" class="graph" transform="scale(1 1) rotate(0) translate(4 2229.5)">
<title>pdal::PointView::size</title>
<polygon fill="white" stroke="none" points="-4,4 -4,-2229.5 460,-2229.5 460,4 -4,4"/>
<!-- Node1 -->
<g id="node1" class="node"><title>Node1</title>
<polygon fill="#bfbfbf" stroke="black" points="0,-1162 0,-1181 109,-1181 109,-1162 0,-1162"/>
<text text-anchor="middle" x="54.5" y="-1169" font-family="Helvetica,sans-Serif" font-size="10.00">pdal::PointView::size</text>
</g>
<!-- Node2 -->
<g id="node2" class="node"><title>Node2</title>
<g id="a_node2"><a xlink:href="classpdal_1_1PointView.html#ad8267ce45d11bf7b8a8fb37a785da470" target="_top" xlink:title="pdal::PointView::append">
<polygon fill="white" stroke="black" points="156,-2206 156,-2225 278,-2225 278,-2206 156,-2206"/>
<text text-anchor="middle" x="217" y="-2213" font-family="Helvetica,sans-Serif" font-size="10.00">pdal::PointView::append</text>
</a>
</g>
</g>
<!-- Node1&#45;&gt;Node2 -->
<g id="edge1" class="edge"><title>Node1&#45;&gt;Node2</title>
<path fill="none" stroke="midnightblue" d="M55.8834,-1191.25C58.6871,-1326.8 77.8437,-2116.48 145,-2196.5 148.199,-2200.31 152.071,-2203.4 156.337,-2205.91"/>
<polygon fill="midnightblue" stroke="midnightblue" points="59.3797,-1191.03 55.6792,-1181.1 52.3812,-1191.17 59.3797,-1191.03"/>
</g>
<!-- Node3 -->
<g id="node3" class="node"><title>Node3</title>
<g id="a_node3"><a xlink:href="classpdal_1_1plang_1_1Invocation.html#adfe14b064df9a0d4dcf2d1da8a7cb1d8" target="_top" xlink:title="pdal::plang::Invocation\l::begin">
<polygon fill="white" stroke="red" points="159.5,-2156.5 159.5,-2186.5 274.5,-2186.5 274.5,-2156.5 159.5,-2156.5"/>
<text text-anchor="start" x="167.5" y="-2174.5" font-family="Helvetica,sans-Serif" font-size="10.00">pdal::plang::Invocation</text>
<text text-anchor="middle" x="217" y="-2163.5" font-family="Helvetica,sans-Serif" font-size="10.00">::begin</text>
</a>
</g>
</g>
<!-- Node1&#45;&gt;Node3 -->
<g id="edge2" class="edge"><title>Node1&#45;&gt;Node3</title>
<path fill="none" stroke="midnightblue" d="M56.0403,-1191.47C59.7829,-1323.66 83.5399,-2069.63 145,-2147.5 148.869,-2152.4 153.784,-2156.31 159.215,-2159.42"/>
<polygon fill="midnightblue" stroke="midnightblue" points="59.5318,-1191.12 55.7557,-1181.22 52.5345,-1191.31 59.5318,-1191.12"/>
</g>
<!-- Node4 -->
<g id="node4" class="node"><title>Node4</title>
<g id="a_node4"><a xlink:href="classpdal_1_1PointView.html#ac923198e7abd67efa95233f1febb3fcf" target="_top" xlink:title="pdal::PointView::calculate\lBounds">
<polygon fill="white" stroke="red" points="152,-2107.5 152,-2137.5 282,-2137.5 282,-2107.5 152,-2107.5"/>
<text text-anchor="start" x="160" y="-2125.5" font-family="Helvetica,sans-Serif" font-size="10.00">pdal::PointView::calculate</text>
<text text-anchor="middle" x="217" y="-2114.5" font-family="Helvetica,sans-Serif" font-size="10.00">Bounds</text>
</a>
</g>
</g>
<!-- Node1&#45;&gt;Node4 -->
<g id="edge3" class="edge"><title>Node1&#45;&gt;Node4</title>
<path fill="none" stroke="midnightblue" d="M56.2264,-1191.47C61.0249,-1319.06 89.692,-2017.27 145,-2092.5 149.518,-2098.65 155.544,-2103.54 162.182,-2107.44"/>
<polygon fill="midnightblue" stroke="midnightblue" points="59.7147,-1191.09 55.8467,-1181.22 52.7195,-1191.35 59.7147,-1191.09"/>
</g>
<!-- Node5 -->
<g id="node5" class="node"><title>Node5</title>
<g id="a_node5"><a xlink:href="classpdal_1_1ELMFilter.html#a0bd1a3df59df71d3a4eff593c54f36d9" target="_top" xlink:title="pdal::ELMFilter::filter">
<polygon fill="white" stroke="black" points="337,-2091 337,-2110 444,-2110 444,-2091 337,-2091"/>
<text text-anchor="middle" x="390.5" y="-2098" font-family="Helvetica,sans-Serif" font-size="10.00">pdal::ELMFilter::filter</text>
</a>
</g>
</g>
<!-- Node1&#45;&gt;Node5 -->
<g id="edge24" class="edge"><title>Node1&#45;&gt;Node5</title>
<path fill="none" stroke="midnightblue" d="M56.0803,-1191.32C59.9265,-1316.44 83.5077,-1993.83 145,-2059.5 170.41,-2086.64 272.862,-2095.82 336.809,-2098.92"/>
<polygon fill="midnightblue" stroke="midnightblue" points="59.5766,-1191.14 55.7772,-1181.25 52.5798,-1191.35 59.5766,-1191.14"/>
</g>
<!-- Node6 -->
<g id="node6" class="node"><title>Node6</title>
<g id="a_node6"><a xlink:href="classpdal_1_1DiffKernel.html#a62476920df163ad274b3aeab0b1538a2" target="_top" xlink:title="pdal::DiffKernel::checkPoints">
<polygon fill="white" stroke="black" points="145,-2031 145,-2050 289,-2050 289,-2031 145,-2031"/>
<text text-anchor="middle" x="217" y="-2038" font-family="Helvetica,sans-Serif" font-size="10.00">pdal::DiffKernel::checkPoints</text>
</a>
</g>
</g>
<!-- Node1&#45;&gt;Node6 -->
<g id="edge5" class="edge"><title>Node1&#45;&gt;Node6</title>
<path fill="none" stroke="midnightblue" d="M56.2522,-1191.14C61.0663,-1312.4 89.1442,-1956.13 145,-2021.5 148.233,-2025.28 152.129,-2028.35 156.41,-2030.84"/>
<polygon fill="midnightblue" stroke="midnightblue" points="59.7468,-1190.93 55.8588,-1181.07 52.7521,-1191.2 59.7468,-1190.93"/>
</g>
<!-- Node7 -->
<g id="node7" class="node"><title>Node7</title>
<g id="a_node7"><a xlink:href="namespacepdal_1_1eigen.html#a9eb56b77a9f1daac90fe69149299e901" target="_top" xlink:title="pdal::eigen::createMaxMatrix">
<polygon fill="white" stroke="red" points="145.5,-1993 145.5,-2012 288.5,-2012 288.5,-1993 145.5,-1993"/>
<text text-anchor="middle" x="217" y="-2000" font-family="Helvetica,sans-Serif" font-size="10.00">pdal::eigen::createMaxMatrix</text>
</a>
</g>
</g>
<!-- Node1&#45;&gt;Node7 -->
<g id="edge6" class="edge"><title>Node1&#45;&gt;Node7</title>
<path fill="none" stroke="midnightblue" d="M56.3634,-1191.36C61.6906,-1309.92 91.6271,-1921.35 145,-1983.5 148.242,-1987.28 152.144,-1990.34 156.43,-1992.83"/>
<polygon fill="midnightblue" stroke="midnightblue" points="59.8523,-1191.02 55.9131,-1181.19 52.8591,-1191.33 59.8523,-1191.02"/>
</g>
<!-- Node8 -->
<g id="node8" class="node"><title>Node8</title>
<g id="a_node8"><a xlink:href="namespacepdal_1_1eigen.html#aa987b7cbf37504e39491b728eb906da3" target="_top" xlink:title="pdal::eigen::createMinMatrix">
<polygon fill="white" stroke="red" points="147,-1955 147,-1974 287,-1974 287,-1955 147,-1955"/>
<text text-anchor="middle" x="217" y="-1962" font-family="Helvetica,sans-Serif" font-size="10.00">pdal::eigen::createMinMatrix</text>
</a>
</g>
</g>
<!-- Node1&#45;&gt;Node8 -->
<g id="edge7" class="edge"><title>Node1&#45;&gt;Node8</title>
<path fill="none" stroke="midnightblue" d="M56.4647,-1191.13C62.2713,-1305.85 94.0408,-1886.48 145,-1945.5 148.336,-1949.36 152.362,-1952.48 156.782,-1955"/>
<polygon fill="midnightblue" stroke="midnightblue" points="59.9533,-1190.81 55.9586,-1181 52.962,-1191.16 59.9533,-1190.81"/>
</g>
<!-- Node9 -->
<g id="node9" class="node"><title>Node9</title>
<g id="a_node9"><a xlink:href="classpdal_1_1CropFilter.html#ad3c621912b6cae25da4a1789733d4c65" target="_top" xlink:title="pdal::CropFilter::crop">
<polygon fill="white" stroke="black" points="163,-1917 163,-1936 271,-1936 271,-1917 163,-1917"/>
<text text-anchor="middle" x="217" y="-1924" font-family="Helvetica,sans-Serif" font-size="10.00">pdal::CropFilter::crop</text>
</a>
</g>
</g>
<!-- Node1&#45;&gt;Node9 -->
<g id="edge8" class="edge"><title>Node1&#45;&gt;Node9</title>
<path fill="none" stroke="midnightblue" d="M56.5913,-1191.2C62.9374,-1302.7 96.4948,-1851.65 145,-1907.5 149.853,-1913.09 156.152,-1917.12 162.991,-1920.01"/>
<polygon fill="midnightblue" stroke="midnightblue" points="60.0764,-1190.83 56.0203,-1181.05 53.0874,-1191.23 60.0764,-1190.83"/>
</g>
<!-- Node10 -->
<g id="node10" class="node"><title>Node10</title>
<g id="a_node10"><a xlink:href="classpdal_1_1DecimationFilter.html#a1e130d000d7b87370ea9dec55a8c9d69" target="_top" xlink:title="pdal::DecimationFilter\l::decimate">
<polygon fill="white" stroke="red" points="161,-1867.5 161,-1897.5 273,-1897.5 273,-1867.5 161,-1867.5"/>
<text text-anchor="start" x="169" y="-1885.5" font-family="Helvetica,sans-Serif" font-size="10.00">pdal::DecimationFilter</text>
<text text-anchor="middle" x="217" y="-1874.5" font-family="Helvetica,sans-Serif" font-size="10.00">::decimate</text>
</a>
</g>
</g>
<!-- Node1&#45;&gt;Node10 -->
<g id="edge9" class="edge"><title>Node1&#45;&gt;Node10</title>
<path fill="none" stroke="midnightblue" d="M55.382,-1191.51C55.1763,-1293.15 59.0862,-1751.47 145,-1857.5 149.278,-1862.78 154.748,-1866.95 160.748,-1870.23"/>
<polygon fill="midnightblue" stroke="midnightblue" points="58.8823,-1191.4 55.4197,-1181.39 51.8824,-1191.38 58.8823,-1191.4"/>
</g>
<!-- Node11 -->
<g id="node11" class="node"><title>Node11</title>
<g id="a_node11"><a xlink:href="classpdal_1_1PointView.html#a3de238250c283f7daf4f7a8436f33729" target="_top" xlink:title="pdal::PointView::dump">
<polygon fill="white" stroke="red" points="159.5,-1829 159.5,-1848 274.5,-1848 274.5,-1829 159.5,-1829"/>
<text text-anchor="middle" x="217" y="-1836" font-family="Helvetica,sans-Serif" font-size="10.00">pdal::PointView::dump</text>
</a>
</g>
</g>
<!-- Node1&#45;&gt;Node11 -->
<g id="edge10" class="edge"><title>Node1&#45;&gt;Node11</title>
<path fill="none" stroke="midnightblue" d="M55.4004,-1191.45C55.3188,-1289.9 59.8642,-1723.07 145,-1819.5 148.969,-1824 153.874,-1827.48 159.238,-1830.18"/>
<polygon fill="midnightblue" stroke="midnightblue" points="58.9005,-1191.38 55.4272,-1181.37 51.9006,-1191.36 58.9005,-1191.38"/>
</g>
<!-- Node12 -->
<g id="node12" class="node"><title>Node12</title>
<g id="a_node12"><a xlink:href="classpdal_1_1PointView.html#a8165df85024da0353a17eecf4caefc7c" target="_top" xlink:title="pdal::PointView::end">
<polygon fill="white" stroke="red" points="163.5,-1791 163.5,-1810 270.5,-1810 270.5,-1791 163.5,-1791"/>
<text text-anchor="middle" x="217" y="-1798" font-family="Helvetica,sans-Serif" font-size="10.00">pdal::PointView::end</text>
</a>
</g>
</g>
<!-- Node1&#45;&gt;Node12 -->
<g id="edge11" class="edge"><title>Node1&#45;&gt;Node12</title>
<path fill="none" stroke="midnightblue" d="M55.5899,-1191.46C56.4258,-1286.39 64.7124,-1691.33 145,-1781.5 150.006,-1787.12 156.476,-1791.16 163.47,-1794.05"/>
<polygon fill="midnightblue" stroke="midnightblue" points="59.0885,-1191.22 55.5196,-1181.24 52.0886,-1191.27 59.0885,-1191.22"/>
</g>
<!-- Node13 -->
<g id="node13" class="node"><title>Node13</title>
<g id="a_node13"><a xlink:href="classpdal_1_1plang_1_1Invocation.html#af0a21ef9951d6a5eefcc59c9c2e847b8" target="_top" xlink:title="pdal::plang::Invocation::end">
<polygon fill="white" stroke="red" points="148.5,-1753 148.5,-1772 285.5,-1772 285.5,-1753 148.5,-1753"/>
<text text-anchor="middle" x="217" y="-1760" font-family="Helvetica,sans-Serif" font-size="10.00">pdal::plang::Invocation::end</text>
</a>
</g>
</g>
<!-- Node1&#45;&gt;Node13 -->
<g id="edge12" class="edge"><title>Node1&#45;&gt;Node13</title>
<path fill="none" stroke="midnightblue" d="M55.7965,-1191.07C57.5667,-1281.67 69.4408,-1659.45 145,-1743.5 148.412,-1747.3 152.492,-1750.37 156.946,-1752.85"/>
<polygon fill="midnightblue" stroke="midnightblue" points="59.2959,-1191.01 55.6206,-1181.07 52.297,-1191.13 59.2959,-1191.01"/>
</g>
<!-- Node14 -->
<g id="node14" class="node"><title>Node14</title>
<g id="a_node14"><a xlink:href="namespacepdal_1_1eigen.html#a06de07ba3b8cc9060e3a34d6e3d234d8" target="_top" xlink:title="pdal::eigen::extendedLocal\lMinimum">
<polygon fill="white" stroke="red" points="150.5,-1703.5 150.5,-1733.5 283.5,-1733.5 283.5,-1703.5 150.5,-1703.5"/>
<text text-anchor="start" x="158.5" y="-1721.5" font-family="Helvetica,sans-Serif" font-size="10.00">pdal::eigen::extendedLocal</text>
<text text-anchor="middle" x="217" y="-1710.5" font-family="Helvetica,sans-Serif" font-size="10.00">Minimum</text>
</a>
</g>
</g>
<!-- Node1&#45;&gt;Node14 -->
<g id="edge13" class="edge"><title>Node1&#45;&gt;Node14</title>
<path fill="none" stroke="midnightblue" d="M56.2401,-1191.16C59.844,-1276.79 78.1991,-1616.33 145,-1694.5 147.959,-1697.96 151.435,-1700.93 155.233,-1703.46"/>
<polygon fill="midnightblue" stroke="midnightblue" points="59.7311,-1190.87 55.8333,-1181.02 52.7367,-1191.15 59.7311,-1190.87"/>
</g>
<!-- Node15 -->
<g id="node15" class="node"><title>Node15</title>
<g id="a_node15"><a xlink:href="namespacepdal_1_1Segmentation.html#af0fdd9efba9cd2851ae16063d3976039" target="_top" xlink:title="pdal::Segmentation\l::extractClusters">
<polygon fill="white" stroke="red" points="166.5,-1654.5 166.5,-1684.5 267.5,-1684.5 267.5,-1654.5 166.5,-1654.5"/>
<text text-anchor="start" x="174.5" y="-1672.5" font-family="Helvetica,sans-Serif" font-size="10.00">pdal::Segmentation</text>
<text text-anchor="middle" x="217" y="-1661.5" font-family="Helvetica,sans-Serif" font-size="10.00">::extractClusters</text>
</a>
</g>
</g>
<!-- Node1&#45;&gt;Node15 -->
<g id="edge14" class="edge"><title>Node1&#45;&gt;Node15</title>
<path fill="none" stroke="midnightblue" d="M56.6785,-1191.54C61.8208,-1272.5 84.7951,-1574.4 145,-1644.5 150.705,-1651.14 158.287,-1656.02 166.372,-1659.6"/>
<polygon fill="midnightblue" stroke="midnightblue" points="60.1532,-1191.02 56.0469,-1181.25 53.1664,-1191.45 60.1532,-1191.02"/>
</g>
<!-- Node16 -->
<g id="node16" class="node"><title>Node16</title>
<g id="a_node16"><a xlink:href="classpdal_1_1LasWriter.html#a2ff257e05cf972506e292bd28649c838" target="_top" xlink:title="pdal::LasWriter::fillWriteBuf">
<polygon fill="white" stroke="black" points="148.5,-1616 148.5,-1635 285.5,-1635 285.5,-1616 148.5,-1616"/>
<text text-anchor="middle" x="217" y="-1623" font-family="Helvetica,sans-Serif" font-size="10.00">pdal::LasWriter::fillWriteBuf</text>
</a>
</g>
</g>
<!-- Node1&#45;&gt;Node16 -->
<g id="edge15" class="edge"><title>Node1&#45;&gt;Node16</title>
<path fill="none" stroke="midnightblue" d="M57.0359,-1191.18C63.3242,-1266.97 89.447,-1538.8 145,-1601.5 150.609,-1607.83 157.946,-1612.49 165.774,-1615.93"/>
<polygon fill="midnightblue" stroke="midnightblue" points="60.5166,-1190.8 56.2229,-1181.12 53.5393,-1191.36 60.5166,-1190.8"/>
</g>
<!-- Node17 -->
<g id="node17" class="node"><title>Node17</title>
<g id="a_node17"><a xlink:href="classpdal_1_1LasWriter.html#a91550327b74a35121c29d342c9659578" target="_top" xlink:title="pdal::LasWriter::writeView">
<polygon fill="white" stroke="red" points="325,-1597 325,-1616 456,-1616 456,-1597 325,-1597"/>
<text text-anchor="middle" x="390.5" y="-1604" font-family="Helvetica,sans-Serif" font-size="10.00">pdal::LasWriter::writeView</text>
</a>
</g>
</g>
<!-- Node1&#45;&gt;Node17 -->
<g id="edge51" class="edge"><title>Node1&#45;&gt;Node17</title>
<path fill="none" stroke="midnightblue" d="M57.0839,-1191.35C63.3206,-1264.26 88.6537,-1515.84 145,-1568.5 170.382,-1592.22 261.298,-1601.14 324.801,-1604.49"/>
<polygon fill="midnightblue" stroke="midnightblue" points="60.56,-1190.91 56.2451,-1181.24 53.584,-1191.49 60.56,-1190.91"/>
</g>
<!-- Node18 -->
<g id="node18" class="node"><title>Node18</title>
<g id="a_node18"><a xlink:href="classpdal_1_1AssignFilter.html#a8be55c603ec946dd2747641b183a856b" target="_top" xlink:title="pdal::AssignFilter\l::filter">
<polygon fill="white" stroke="black" points="171,-1528.5 171,-1558.5 263,-1558.5 263,-1528.5 171,-1528.5"/>
<text text-anchor="start" x="179" y="-1546.5" font-family="Helvetica,sans-Serif" font-size="10.00">pdal::AssignFilter</text>
<text text-anchor="middle" x="217" y="-1535.5" font-family="Helvetica,sans-Serif" font-size="10.00">::filter</text>
</a>
</g>
</g>
<!-- Node1&#45;&gt;Node18 -->
<g id="edge17" class="edge"><title>Node1&#45;&gt;Node18</title>
<path fill="none" stroke="midnightblue" d="M58.0735,-1191.15C67.0987,-1257.25 99.2602,-1470.23 145,-1519.5 151.905,-1526.94 161.194,-1532.07 170.772,-1535.61"/>
<polygon fill="midnightblue" stroke="midnightblue" points="61.539,-1190.65 56.7413,-1181.21 54.6011,-1191.58 61.539,-1190.65"/>
</g>
<!-- Node19 -->
<g id="node19" class="node"><title>Node19</title>
<g id="a_node19"><a xlink:href="classpdal_1_1StreamCallbackFilter.html#a9fdb71b2186211f0b326eb464590f3a4" target="_top" xlink:title="pdal::StreamCallbackFilter\l::filter">
<polygon fill="white" stroke="black" points="151,-1479.5 151,-1509.5 283,-1509.5 283,-1479.5 151,-1479.5"/>
<text text-anchor="start" x="159" y="-1497.5" font-family="Helvetica,sans-Serif" font-size="10.00">pdal::StreamCallbackFilter</text>
<text text-anchor="middle" x="217" y="-1486.5" font-family="Helvetica,sans-Serif" font-size="10.00">::filter</text>
</a>
</g>
</g>
<!-- Node1&#45;&gt;Node19 -->
<g id="edge18" class="edge"><title>Node1&#45;&gt;Node19</title>
<path fill="none" stroke="midnightblue" d="M55.5143,-1191.08C56.63,-1243.71 66.9843,-1389.69 145,-1470.5 148.344,-1473.96 152.204,-1476.93 156.362,-1479.46"/>
<polygon fill="midnightblue" stroke="midnightblue" points="59.0139,-1191.02 55.3948,-1181.06 52.0144,-1191.11 59.0139,-1191.02"/>
</g>
<!-- Node20 -->
<g id="node20" class="node"><title>Node20</title>
<g id="a_node20"><a xlink:href="classpdal_1_1ComputeRangeFilter.html#a5fd751a356cdbff6ea2c58c744ae2bd7" target="_top" xlink:title="pdal::ComputeRangeFilter\l::filter">
<polygon fill="white" stroke="black" points="151.5,-1430.5 151.5,-1460.5 282.5,-1460.5 282.5,-1430.5 151.5,-1430.5"/>
<text text-anchor="start" x="159.5" y="-1448.5" font-family="Helvetica,sans-Serif" font-size="10.00">pdal::ComputeRangeFilter</text>
<text text-anchor="middle" x="217" y="-1437.5" font-family="Helvetica,sans-Serif" font-size="10.00">::filter</text>
</a>
</g>
</g>
<!-- Node1&#45;&gt;Node20 -->
<g id="edge19" class="edge"><title>Node1&#45;&gt;Node20</title>
<path fill="none" stroke="midnightblue" d="M56.9873,-1191.41C61.5239,-1238 79.2085,-1355.13 145,-1420.5 148.894,-1424.37 153.421,-1427.64 158.269,-1430.41"/>
<polygon fill="midnightblue" stroke="midnightblue" points="60.449,-1190.82 56.0959,-1181.16 53.4754,-1191.42 60.449,-1190.82"/>
</g>
<!-- Node21 -->
<g id="node21" class="node"><title>Node21</title>
<g id="a_node21"><a xlink:href="classpdal_1_1LOFFilter.html#acd584a9b602c5c804271361eea4180a0" target="_top" xlink:title="pdal::LOFFilter::filter">
<polygon fill="white" stroke="black" points="164,-1392 164,-1411 270,-1411 270,-1392 164,-1392"/>
<text text-anchor="middle" x="217" y="-1399" font-family="Helvetica,sans-Serif" font-size="10.00">pdal::LOFFilter::filter</text>
</a>
</g>
</g>
<!-- Node1&#45;&gt;Node21 -->
<g id="edge20" class="edge"><title>Node1&#45;&gt;Node21</title>
<path fill="none" stroke="midnightblue" d="M58.0576,-1191.21C64.5465,-1233 85.5797,-1330.85 145,-1382.5 150.489,-1387.27 157.054,-1390.86 163.943,-1393.56"/>
<polygon fill="midnightblue" stroke="midnightblue" points="61.5076,-1190.62 56.6213,-1181.21 54.5787,-1191.61 61.5076,-1190.62"/>
</g>
<!-- Node22 -->
<g id="node22" class="node"><title>Node22</title>
<g id="a_node22"><a xlink:href="classpdal_1_1RadialDensityFilter.html#a9e97f232df01dff4d097672fc70a7ace" target="_top" xlink:title="pdal::RadialDensityFilter\l::filter">
<polygon fill="white" stroke="black" points="155,-1342.5 155,-1372.5 279,-1372.5 279,-1342.5 155,-1342.5"/>
<text text-anchor="start" x="163" y="-1360.5" font-family="Helvetica,sans-Serif" font-size="10.00">pdal::RadialDensityFilter</text>
<text text-anchor="middle" x="217" y="-1349.5" font-family="Helvetica,sans-Serif" font-size="10.00">::filter</text>
</a>
</g>
</g>
<!-- Node1&#45;&gt;Node22 -->
<g id="edge21" class="edge"><title>Node1&#45;&gt;Node22</title>
<path fill="none" stroke="midnightblue" d="M61.2475,-1190.98C72.1327,-1224.58 98.8903,-1293.58 145,-1332.5 149.594,-1336.38 154.829,-1339.67 160.327,-1342.46"/>
<polygon fill="midnightblue" stroke="midnightblue" points="64.4677,-1189.54 58.1595,-1181.03 57.7826,-1191.62 64.4677,-1189.54"/>
</g>
<!-- Node23 -->
<g id="node23" class="node"><title>Node23</title>
<g id="a_node23"><a xlink:href="classpdal_1_1HAGFilter.html#af2b63a5eed2c9b3d27bc5b37851b5c71" target="_top" xlink:title="pdal::HAGFilter::filter">
<polygon fill="white" stroke="black" points="162.5,-1304 162.5,-1323 271.5,-1323 271.5,-1304 162.5,-1304"/>
<text text-anchor="middle" x="217" y="-1311" font-family="Helvetica,sans-Serif" font-size="10.00">pdal::HAGFilter::filter</text>
</a>
</g>
</g>
<!-- Node1&#45;&gt;Node23 -->
<g id="edge22" class="edge"><title>Node1&#45;&gt;Node23</title>
<path fill="none" stroke="midnightblue" d="M64.1178,-1190.47C77.4824,-1217.71 105.809,-1267.59 145,-1294.5 150.681,-1298.4 157.124,-1301.5 163.755,-1303.96"/>
<polygon fill="midnightblue" stroke="midnightblue" points="67.1842,-1188.77 59.7369,-1181.23 60.8593,-1191.77 67.1842,-1188.77"/>
</g>
<!-- Node24 -->
<g id="node24" class="node"><title>Node24</title>
<g id="a_node24"><a xlink:href="classpdal_1_1KDistanceFilter.html#a182b95187754df0feb50c022127a9920" target="_top" xlink:title="pdal::KDistanceFilter\l::filter">
<polygon fill="white" stroke="black" points="163,-1254.5 163,-1284.5 271,-1284.5 271,-1254.5 163,-1254.5"/>
<text text-anchor="start" x="171" y="-1272.5" font-family="Helvetica,sans-Serif" font-size="10.00">pdal::KDistanceFilter</text>
<text text-anchor="middle" x="217" y="-1261.5" font-family="Helvetica,sans-Serif" font-size="10.00">::filter</text>
</a>
</g>
</g>
<!-- Node1&#45;&gt;Node24 -->
<g id="edge23" class="edge"><title>Node1&#45;&gt;Node24</title>
<path fill="none" stroke="midnightblue" d="M72.532,-1188.87C89.5598,-1205.4 117.152,-1229.98 145,-1245.5 151.024,-1248.86 157.597,-1251.85 164.233,-1254.49"/>
<polygon fill="midnightblue" stroke="midnightblue" points="74.6355,-1186.03 65.0667,-1181.48 69.7104,-1191.01 74.6355,-1186.03"/>
</g>
<!-- Node25 -->
<g id="node25" class="node"><title>Node25</title>
<g id="a_node25"><a xlink:href="classpdal_1_1EigenvaluesFilter.html#ace1cf82ccbdbeb69c62e0be58464e2ef" target="_top" xlink:title="pdal::EigenvaluesFilter\l::filter">
<polygon fill="white" stroke="black" points="159,-1205.5 159,-1235.5 275,-1235.5 275,-1205.5 159,-1205.5"/>
<text text-anchor="start" x="167" y="-1223.5" font-family="Helvetica,sans-Serif" font-size="10.00">pdal::EigenvaluesFilter</text>
<text text-anchor="middle" x="217" y="-1212.5" font-family="Helvetica,sans-Serif" font-size="10.00">::filter</text>
</a>
</g>
</g>
<!-- Node1&#45;&gt;Node25 -->
<g id="edge25" class="edge"><title>Node1&#45;&gt;Node25</title>
<path fill="none" stroke="midnightblue" d="M96.5835,-1184.04C117.97,-1190.57 144.274,-1198.6 166.746,-1205.46"/>
<polygon fill="midnightblue" stroke="midnightblue" points="97.4132,-1180.64 86.827,-1181.06 95.3692,-1187.33 97.4132,-1180.64"/>
</g>
<!-- Node26 -->
<g id="node26" class="node"><title>Node26</title>
<g id="a_node26"><a xlink:href="classpdal_1_1EstimateRankFilter.html#a6d3b3cd97dc8c5b575a210b5d77df162" target="_top" xlink:title="pdal::EstimateRankFilter\l::filter">
<polygon fill="white" stroke="black" points="154.5,-1156.5 154.5,-1186.5 279.5,-1186.5 279.5,-1156.5 154.5,-1156.5"/>
<text text-anchor="start" x="162.5" y="-1174.5" font-family="Helvetica,sans-Serif" font-size="10.00">pdal::EstimateRankFilter</text>
<text text-anchor="middle" x="217" y="-1163.5" font-family="Helvetica,sans-Serif" font-size="10.00">::filter</text>
</a>
</g>
</g>
<!-- Node1&#45;&gt;Node26 -->
<g id="edge26" class="edge"><title>Node1&#45;&gt;Node26</title>
<path fill="none" stroke="midnightblue" d="M119.405,-1171.5C130.969,-1171.5 143.005,-1171.5 154.498,-1171.5"/>
<polygon fill="midnightblue" stroke="midnightblue" points="119.391,-1168 109.391,-1171.5 119.391,-1175 119.391,-1168"/>
</g>
<!-- Node27 -->
<g id="node27" class="node"><title>Node27</title>
<g id="a_node27"><a xlink:href="classpdal_1_1HexBin.html#a22f91b8b374bd2ea4b9a44d9199ea6e8" target="_top" xlink:title="pdal::HexBin::filter">
<polygon fill="white" stroke="black" points="168,-1118 168,-1137 266,-1137 266,-1118 168,-1118"/>
<text text-anchor="middle" x="217" y="-1125" font-family="Helvetica,sans-Serif" font-size="10.00">pdal::HexBin::filter</text>
</a>
</g>
</g>
<!-- Node1&#45;&gt;Node27 -->
<g id="edge27" class="edge"><title>Node1&#45;&gt;Node27</title>
<path fill="none" stroke="midnightblue" d="M100.177,-1159.25C125.801,-1152.23 157.491,-1143.54 181.242,-1137.03"/>
<polygon fill="midnightblue" stroke="midnightblue" points="99.0449,-1155.93 90.3261,-1161.95 100.896,-1162.68 99.0449,-1155.93"/>
</g>
<!-- Node28 -->
<g id="node28" class="node"><title>Node28</title>
<g id="a_node28"><a xlink:href="classpdal_1_1ApproximateCoplanarFilter.html#ae6d624215959d717deb5fecc9fe13764" target="_top" xlink:title="pdal::ApproximateCoplanar\lFilter::filter">
<polygon fill="white" stroke="black" points="150,-1068.5 150,-1098.5 284,-1098.5 284,-1068.5 150,-1068.5"/>
<text text-anchor="start" x="158" y="-1086.5" font-family="Helvetica,sans-Serif" font-size="10.00">pdal::ApproximateCoplanar</text>
<text text-anchor="middle" x="217" y="-1075.5" font-family="Helvetica,sans-Serif" font-size="10.00">Filter::filter</text>
</a>
</g>
</g>
<!-- Node1&#45;&gt;Node28 -->
<g id="edge28" class="edge"><title>Node1&#45;&gt;Node28</title>
<path fill="none" stroke="midnightblue" d="M75.2465,-1155.19C92.7373,-1141.35 119.399,-1121.7 145,-1108.5 152.086,-1104.85 159.826,-1101.52 167.506,-1098.56"/>
<polygon fill="midnightblue" stroke="midnightblue" points="72.5879,-1152.84 66.9901,-1161.83 76.9756,-1158.29 72.5879,-1152.84"/>
</g>
<!-- Node29 -->
<g id="node29" class="node"><title>Node29</title>
<g id="a_node29"><a xlink:href="classpdal_1_1TransformationFilter.html#a7fe6edc939560cf5a109bd2f61c812eb" target="_top" xlink:title="pdal::TransformationFilter\l::filter">
<polygon fill="white" stroke="black" points="153,-1019.5 153,-1049.5 281,-1049.5 281,-1019.5 153,-1019.5"/>
<text text-anchor="start" x="161" y="-1037.5" font-family="Helvetica,sans-Serif" font-size="10.00">pdal::TransformationFilter</text>
<text text-anchor="middle" x="217" y="-1026.5" font-family="Helvetica,sans-Serif" font-size="10.00">::filter</text>
</a>
</g>
</g>
<!-- Node1&#45;&gt;Node29 -->
<g id="edge29" class="edge"><title>Node1&#45;&gt;Node29</title>
<path fill="none" stroke="midnightblue" d="M65.6553,-1153.19C80.1907,-1128.57 109.171,-1084.95 145,-1059.5 150.327,-1055.72 156.282,-1052.46 162.416,-1049.66"/>
<polygon fill="midnightblue" stroke="midnightblue" points="62.5959,-1151.49 60.6483,-1161.9 68.6652,-1154.98 62.5959,-1151.49"/>
</g>
<!-- Node30 -->
<g id="node30" class="node"><title>Node30</title>
<g id="a_node30"><a xlink:href="classpdal_1_1FerryFilter.html#a17b62ce632d7750f7b4ca852c68dd9bb" target="_top" xlink:title="pdal::FerryFilter::\lfilter">
<polygon fill="white" stroke="black" points="171.5,-970.5 171.5,-1000.5 262.5,-1000.5 262.5,-970.5 171.5,-970.5"/>
<text text-anchor="start" x="179.5" y="-988.5" font-family="Helvetica,sans-Serif" font-size="10.00">pdal::FerryFilter::</text>
<text text-anchor="middle" x="217" y="-977.5" font-family="Helvetica,sans-Serif" font-size="10.00">filter</text>
</a>
</g>
</g>
<!-- Node1&#45;&gt;Node30 -->
<g id="edge30" class="edge"><title>Node1&#45;&gt;Node30</title>
<path fill="none" stroke="midnightblue" d="M61.2475,-1152.02C72.1327,-1118.42 98.8903,-1049.42 145,-1010.5 152.59,-1004.09 161.931,-999.288 171.314,-995.697"/>
<polygon fill="midnightblue" stroke="midnightblue" points="57.7826,-1151.38 58.1595,-1161.97 64.4677,-1153.46 57.7826,-1151.38"/>
</g>
<!-- Node31 -->
<g id="node31" class="node"><title>Node31</title>
<g id="a_node31"><a xlink:href="classpdal_1_1ColorinterpFilter.html#afbedcf0821624baf83586d9290310948" target="_top" xlink:title="pdal::ColorinterpFilter\l::filter">
<polygon fill="white" stroke="black" points="162,-921.5 162,-951.5 272,-951.5 272,-921.5 162,-921.5"/>
<text text-anchor="start" x="170" y="-939.5" font-family="Helvetica,sans-Serif" font-size="10.00">pdal::ColorinterpFilter</text>
<text text-anchor="middle" x="217" y="-928.5" font-family="Helvetica,sans-Serif" font-size="10.00">::filter</text>
</a>
</g>
</g>
<!-- Node1&#45;&gt;Node31 -->
<g id="edge31" class="edge"><title>Node1&#45;&gt;Node31</title>
<path fill="none" stroke="midnightblue" d="M58.5013,-1151.65C65.761,-1110.42 88.0632,-1014.89 145,-961.5 149.862,-956.941 155.604,-953.207 161.684,-950.149"/>
<polygon fill="midnightblue" stroke="midnightblue" points="55.0428,-1151.11 56.8687,-1161.55 61.9495,-1152.25 55.0428,-1151.11"/>
</g>
<!-- Node32 -->
<g id="node32" class="node"><title>Node32</title>
<g id="a_node32"><a xlink:href="classpdal_1_1NormalFilter.html#a8bf36602629c8ff4ba8d7563b444aa2d" target="_top" xlink:title="pdal::NormalFilter\l::filter">
<polygon fill="white" stroke="red" points="170,-872.5 170,-902.5 264,-902.5 264,-872.5 170,-872.5"/>
<text text-anchor="start" x="178" y="-890.5" font-family="Helvetica,sans-Serif" font-size="10.00">pdal::NormalFilter</text>
<text text-anchor="middle" x="217" y="-879.5" font-family="Helvetica,sans-Serif" font-size="10.00">::filter</text>
</a>
</g>
</g>
<!-- Node1&#45;&gt;Node32 -->
<g id="edge32" class="edge"><title>Node1&#45;&gt;Node32</title>
<path fill="none" stroke="midnightblue" d="M56.6509,-1151.77C60.4901,-1104.01 76.8291,-981.07 145,-912.5 151.818,-905.642 160.627,-900.66 169.706,-897.042"/>
<polygon fill="midnightblue" stroke="midnightblue" points="53.1433,-1151.76 55.9341,-1161.98 60.1261,-1152.25 53.1433,-1151.76"/>
</g>
<!-- Node33 -->
<g id="node33" class="node"><title>Node33</title>
<g id="a_node33"><a xlink:href="classpdal_1_1ColorizationFilter.html#ab20665869fab8502d8929a40c4a342c7" target="_top" xlink:title="pdal::ColorizationFilter\l::filter">
<polygon fill="white" stroke="black" points="160,-823.5 160,-853.5 274,-853.5 274,-823.5 160,-823.5"/>
<text text-anchor="start" x="168" y="-841.5" font-family="Helvetica,sans-Serif" font-size="10.00">pdal::ColorizationFilter</text>
<text text-anchor="middle" x="217" y="-830.5" font-family="Helvetica,sans-Serif" font-size="10.00">::filter</text>
</a>
</g>
</g>
<!-- Node1&#45;&gt;Node33 -->
<g id="edge33" class="edge"><title>Node1&#45;&gt;Node33</title>
<path fill="none" stroke="midnightblue" d="M55.3684,-1151.76C56.0939,-1098.03 65.5091,-947.552 145,-863.5 149.22,-859.038 154.284,-855.371 159.74,-852.358"/>
<polygon fill="midnightblue" stroke="midnightblue" points="51.8677,-1151.95 55.3248,-1161.96 58.8676,-1151.98 51.8677,-1151.95"/>
</g>
<!-- Node34 -->
<g id="node34" class="node"><title>Node34</title>
<g id="a_node34"><a xlink:href="classpdal_1_1StatsFilter.html#a49825617fe3408d6e565947cdd18b458" target="_top" xlink:title="pdal::StatsFilter::\lfilter">
<polygon fill="white" stroke="black" points="171,-774.5 171,-804.5 263,-804.5 263,-774.5 171,-774.5"/>
<text text-anchor="start" x="179" y="-792.5" font-family="Helvetica,sans-Serif" font-size="10.00">pdal::StatsFilter::</text>
<text text-anchor="middle" x="217" y="-781.5" font-family="Helvetica,sans-Serif" font-size="10.00">filter</text>
</a>
</g>
</g>
<!-- Node1&#45;&gt;Node34 -->
<g id="edge34" class="edge"><title>Node1&#45;&gt;Node34</title>
<path fill="none" stroke="midnightblue" d="M57.9677,-1151.82C66.7582,-1084.6 98.5213,-865.511 145,-814.5 151.865,-806.965 161.138,-801.701 170.714,-798.024"/>
<polygon fill="midnightblue" stroke="midnightblue" points="54.4758,-1151.53 56.6744,-1161.89 61.4188,-1152.42 54.4758,-1151.53"/>
</g>
<!-- Node35 -->
<g id="node35" class="node"><title>Node35</title>
<g id="a_node35"><a xlink:href="classpdal_1_1GreedyProjection.html#aa0de48c450a56b726634e29d28fd5427" target="_top" xlink:title="pdal::GreedyProjection\l::filter">
<polygon fill="white" stroke="black" points="159,-725.5 159,-755.5 275,-755.5 275,-725.5 159,-725.5"/>
<text text-anchor="start" x="167" y="-743.5" font-family="Helvetica,sans-Serif" font-size="10.00">pdal::GreedyProjection</text>
<text text-anchor="middle" x="217" y="-732.5" font-family="Helvetica,sans-Serif" font-size="10.00">::filter</text>
</a>
</g>
</g>
<!-- Node1&#45;&gt;Node35 -->
<g id="edge35" class="edge"><title>Node1&#45;&gt;Node35</title>
<path fill="none" stroke="midnightblue" d="M57.3518,-1151.54C64.5337,-1078.15 92.7747,-824.495 145,-765.5 148.898,-761.097 153.619,-757.469 158.754,-754.48"/>
<polygon fill="midnightblue" stroke="midnightblue" points="53.8468,-1151.42 56.3795,-1161.71 60.8151,-1152.09 53.8468,-1151.42"/>
</g>
<!-- Node36 -->
<g id="node36" class="node"><title>Node36</title>
<g id="a_node36"><a xlink:href="classpdal_1_1ChipperFilter.html#aaf9d0b5f727f7dfa1423835b3fe23a5f" target="_top" xlink:title="pdal::ChipperFilter\l::load">
<polygon fill="white" stroke="red" points="169,-676.5 169,-706.5 265,-706.5 265,-676.5 169,-676.5"/>
<text text-anchor="start" x="177" y="-694.5" font-family="Helvetica,sans-Serif" font-size="10.00">pdal::ChipperFilter</text>
<text text-anchor="middle" x="217" y="-683.5" font-family="Helvetica,sans-Serif" font-size="10.00">::load</text>
</a>
</g>
</g>
<!-- Node1&#45;&gt;Node36 -->
<g id="edge36" class="edge"><title>Node1&#45;&gt;Node36</title>
<path fill="none" stroke="midnightblue" d="M56.8243,-1151.71C62.4621,-1073.06 86.8877,-783.669 145,-716.5 151.327,-709.187 159.929,-704.012 168.962,-700.352"/>
<polygon fill="midnightblue" stroke="midnightblue" points="53.3295,-1151.51 56.127,-1161.73 60.3127,-1152 53.3295,-1151.51"/>
</g>
<!-- Node37 -->
<g id="node37" class="node"><title>Node37</title>
<g id="a_node37"><a xlink:href="classpdal_1_1PointViewMesh.html#ae1d8a30e7a53eecac24362959787cdd6" target="_top" xlink:title="pdal::PointViewMesh\l::newPoint">
<polygon fill="white" stroke="black" points="162.5,-627.5 162.5,-657.5 271.5,-657.5 271.5,-627.5 162.5,-627.5"/>
<text text-anchor="start" x="170.5" y="-645.5" font-family="Helvetica,sans-Serif" font-size="10.00">pdal::PointViewMesh</text>
<text text-anchor="middle" x="217" y="-634.5" font-family="Helvetica,sans-Serif" font-size="10.00">::newPoint</text>
</a>
</g>
</g>
<!-- Node1&#45;&gt;Node37 -->
<g id="edge37" class="edge"><title>Node1&#45;&gt;Node37</title>
<path fill="none" stroke="midnightblue" d="M56.4073,-1151.78C60.6369,-1068.05 80.9973,-742.874 145,-667.5 149.737,-661.922 155.799,-657.587 162.379,-654.22"/>
<polygon fill="midnightblue" stroke="midnightblue" points="52.9032,-1151.78 55.9147,-1161.94 59.8949,-1152.12 52.9032,-1151.78"/>
</g>
<!-- Node38 -->
<g id="node38" class="node"><title>Node38</title>
<g id="a_node38"><a xlink:href="classpdal_1_1PointViewSource.html#a167c9e5a92be222f698aba3acdb3762a" target="_top" xlink:title="pdal::PointViewSource\l::nextPoint">
<polygon fill="white" stroke="black" points="159,-578.5 159,-608.5 275,-608.5 275,-578.5 159,-578.5"/>
<text text-anchor="start" x="167" y="-596.5" font-family="Helvetica,sans-Serif" font-size="10.00">pdal::PointViewSource</text>
<text text-anchor="middle" x="217" y="-585.5" font-family="Helvetica,sans-Serif" font-size="10.00">::nextPoint</text>
</a>
</g>
</g>
<!-- Node1&#45;&gt;Node38 -->
<g id="edge38" class="edge"><title>Node1&#45;&gt;Node38</title>
<path fill="none" stroke="midnightblue" d="M56.0638,-1151.86C58.9846,-1063.34 75.0779,-702.133 145,-618.5 148.856,-613.888 153.618,-610.126 158.837,-607.058"/>
<polygon fill="midnightblue" stroke="midnightblue" points="52.5648,-1151.78 55.7523,-1161.88 59.5614,-1152 52.5648,-1151.78"/>
</g>
<!-- Node39 -->
<g id="node39" class="node"><title>Node39</title>
<g id="a_node39"><a xlink:href="classpdal_1_1ColorPointViewSource.html#a4eb35ee03a2227baee8d917085197b98" target="_top" xlink:title="pdal::ColorPointViewSource\l::nextPoint">
<polygon fill="white" stroke="black" points="147.5,-529.5 147.5,-559.5 286.5,-559.5 286.5,-529.5 147.5,-529.5"/>
<text text-anchor="start" x="155.5" y="-547.5" font-family="Helvetica,sans-Serif" font-size="10.00">pdal::ColorPointViewSource</text>
<text text-anchor="middle" x="217" y="-536.5" font-family="Helvetica,sans-Serif" font-size="10.00">::nextPoint</text>
</a>
</g>
</g>
<!-- Node1&#45;&gt;Node39 -->
<g id="edge39" class="edge"><title>Node1&#45;&gt;Node39</title>
<path fill="none" stroke="midnightblue" d="M55.7775,-1151.93C57.4785,-1058.81 69.1436,-661.426 145,-569.5 148.161,-565.67 151.947,-562.426 156.105,-559.678"/>
<polygon fill="midnightblue" stroke="midnightblue" points="52.2778,-1151.89 55.6128,-1161.94 59.2768,-1152 52.2778,-1151.89"/>
</g>
<!-- Node40 -->
<g id="node40" class="node"><title>Node40</title>
<g id="a_node40"><a xlink:href="classpdal_1_1PointViewMesh.html#a57b2d7d9b5cdb507fac5dc702d7f9298" target="_top" xlink:title="pdal::PointViewMesh\l::nextPoint">
<polygon fill="white" stroke="black" points="162.5,-480.5 162.5,-510.5 271.5,-510.5 271.5,-480.5 162.5,-480.5"/>
<text text-anchor="start" x="170.5" y="-498.5" font-family="Helvetica,sans-Serif" font-size="10.00">pdal::PointViewMesh</text>
<text text-anchor="middle" x="217" y="-487.5" font-family="Helvetica,sans-Serif" font-size="10.00">::nextPoint</text>
</a>
</g>
</g>
<!-- Node1&#45;&gt;Node40 -->
<g id="edge40" class="edge"><title>Node1&#45;&gt;Node40</title>
<path fill="none" stroke="midnightblue" d="M55.5372,-1151.59C56.1108,-1053.3 63.3043,-620.615 145,-520.5 149.627,-514.83 155.627,-510.444 162.178,-507.052"/>
<polygon fill="midnightblue" stroke="midnightblue" points="52.0371,-1151.63 55.496,-1161.65 59.037,-1151.66 52.0371,-1151.63"/>
</g>
<!-- Node41 -->
<g id="node41" class="node"><title>Node41</title>
<g id="a_node41"><a xlink:href="classpdal_1_1PointViewMesh.html#ac315612834831ed6c936ce84118d73d7" target="_top" xlink:title="pdal::PointViewMesh\l::pointCount">
<polygon fill="white" stroke="black" points="162.5,-431.5 162.5,-461.5 271.5,-461.5 271.5,-431.5 162.5,-431.5"/>
<text text-anchor="start" x="170.5" y="-449.5" font-family="Helvetica,sans-Serif" font-size="10.00">pdal::PointViewMesh</text>
<text text-anchor="middle" x="217" y="-438.5" font-family="Helvetica,sans-Serif" font-size="10.00">::pointCount</text>
</a>
</g>
</g>
<!-- Node1&#45;&gt;Node41 -->
<g id="edge41" class="edge"><title>Node1&#45;&gt;Node41</title>
<path fill="none" stroke="midnightblue" d="M55.3252,-1151.74C54.8091,-1049.37 57.3154,-579.998 145,-471.5 149.682,-465.707 155.799,-461.254 162.48,-457.831"/>
<polygon fill="midnightblue" stroke="midnightblue" points="51.8263,-1151.92 55.3937,-1161.9 58.8261,-1151.87 51.8263,-1151.92"/>
</g>
<!-- Node42 -->
<g id="node42" class="node"><title>Node42</title>
<g id="a_node42"><a xlink:href="namespacepdal_1_1eigen.html#a8cca9caad55d997fe9e961272c2cea8c" target="_top" xlink:title="pdal::eigen::pointViewTo\lEigen">
<polygon fill="white" stroke="red" points="155,-382.5 155,-412.5 279,-412.5 279,-382.5 155,-382.5"/>
<text text-anchor="start" x="163" y="-400.5" font-family="Helvetica,sans-Serif" font-size="10.00">pdal::eigen::pointViewTo</text>
<text text-anchor="middle" x="217" y="-389.5" font-family="Helvetica,sans-Serif" font-size="10.00">Eigen</text>
</a>
</g>
</g>
<!-- Node1&#45;&gt;Node42 -->
<g id="edge42" class="edge"><title>Node1&#45;&gt;Node42</title>
<path fill="none" stroke="midnightblue" d="M55.1407,-1151.71C53.5968,-1045.05 51.3648,-539.342 145,-422.5 148.105,-418.625 151.853,-415.349 155.985,-412.581"/>
<polygon fill="midnightblue" stroke="midnightblue" points="51.6416,-1151.79 55.3021,-1161.74 58.6407,-1151.68 51.6416,-1151.79"/>
</g>
<!-- Node43 -->
<g id="node43" class="node"><title>Node43</title>
<g id="a_node43"><a xlink:href="structpdal_1_1QuadIndex_1_1QImpl.html#a7bc821750980d6a1e69364ec8ac274ae" target="_top" xlink:title="pdal::QuadIndex::QImpl\l::QImpl">
<polygon fill="white" stroke="black" points="157,-333.5 157,-363.5 277,-363.5 277,-333.5 157,-333.5"/>
<text text-anchor="start" x="165" y="-351.5" font-family="Helvetica,sans-Serif" font-size="10.00">pdal::QuadIndex::QImpl</text>
<text text-anchor="middle" x="217" y="-340.5" font-family="Helvetica,sans-Serif" font-size="10.00">::QImpl</text>
</a>
</g>
</g>
<!-- Node1&#45;&gt;Node43 -->
<g id="edge43" class="edge"><title>Node1&#45;&gt;Node43</title>
<path fill="none" stroke="midnightblue" d="M56.4742,-1151.68C62.3905,-1034.59 94.9212,-436.456 145,-373.5 148.335,-369.307 152.424,-365.816 156.938,-362.909"/>
<polygon fill="midnightblue" stroke="midnightblue" points="52.9751,-1151.57 55.9721,-1161.73 59.9664,-1151.92 52.9751,-1151.57"/>
</g>
<!-- Node44 -->
<g id="node44" class="node"><title>Node44</title>
<g id="a_node44"><a xlink:href="classpdal_1_1OciReader.html#a0eabcf13dadb1f8adea54c91c86eb2bc" target="_top" xlink:title="pdal::OciReader::readDim\lMajor">
<polygon fill="white" stroke="red" points="152,-284.5 152,-314.5 282,-314.5 282,-284.5 152,-284.5"/>
<text text-anchor="start" x="160" y="-302.5" font-family="Helvetica,sans-Serif" font-size="10.00">pdal::OciReader::readDim</text>
<text text-anchor="middle" x="217" y="-291.5" font-family="Helvetica,sans-Serif" font-size="10.00">Major</text>
</a>
</g>
</g>
<!-- Node1&#45;&gt;Node44 -->
<g id="edge44" class="edge"><title>Node1&#45;&gt;Node44</title>
<path fill="none" stroke="midnightblue" d="M56.3257,-1151.99C61.5837,-1031.5 91.8778,-391.723 145,-324.5 148.079,-320.604 151.808,-317.313 155.927,-314.535"/>
<polygon fill="midnightblue" stroke="midnightblue" points="52.8285,-1151.85 55.8951,-1161.99 59.822,-1152.15 52.8285,-1151.85"/>
</g>
<!-- Node45 -->
<g id="node45" class="node"><title>Node45</title>
<g id="a_node45"><a xlink:href="classpdal_1_1OciReader.html#af16b0d1a2cca3ce787f21b57fd9fd4de" target="_top" xlink:title="pdal::OciReader::readPoint\lMajor">
<polygon fill="white" stroke="red" points="150,-235.5 150,-265.5 284,-265.5 284,-235.5 150,-235.5"/>
<text text-anchor="start" x="158" y="-253.5" font-family="Helvetica,sans-Serif" font-size="10.00">pdal::OciReader::readPoint</text>
<text text-anchor="middle" x="217" y="-242.5" font-family="Helvetica,sans-Serif" font-size="10.00">Major</text>
</a>
</g>
</g>
<!-- Node1&#45;&gt;Node45 -->
<g id="edge45" class="edge"><title>Node1&#45;&gt;Node45</title>
<path fill="none" stroke="midnightblue" d="M56.2202,-1151.64C60.9319,-1026.2 88.9261,-346.877 145,-275.5 148.068,-271.595 151.789,-268.298 155.903,-265.516"/>
<polygon fill="midnightblue" stroke="midnightblue" points="52.719,-1151.61 55.8468,-1161.73 59.7142,-1151.87 52.719,-1151.61"/>
</g>
<!-- Node46 -->
<g id="node46" class="node"><title>Node46</title>
<g id="a_node46"><a xlink:href="classpdal_1_1PointView.html#ab44e5131758df2f02a31b48a08c39363" target="_top" xlink:title="pdal::PointView::setField\lInternal">
<polygon fill="white" stroke="black" points="154.5,-186.5 154.5,-216.5 279.5,-216.5 279.5,-186.5 154.5,-186.5"/>
<text text-anchor="start" x="162.5" y="-204.5" font-family="Helvetica,sans-Serif" font-size="10.00">pdal::PointView::setField</text>
<text text-anchor="middle" x="217" y="-193.5" font-family="Helvetica,sans-Serif" font-size="10.00">Internal</text>
</a>
</g>
</g>
<!-- Node1&#45;&gt;Node46 -->
<g id="edge46" class="edge"><title>Node1&#45;&gt;Node46</title>
<path fill="none" stroke="midnightblue" d="M56.1078,-1151.77C60.2455,-1022.72 85.8999,-302.128 145,-226.5 147.977,-222.69 151.577,-219.459 155.557,-216.72"/>
<polygon fill="midnightblue" stroke="midnightblue" points="52.6084,-1151.69 55.7916,-1161.8 59.605,-1151.92 52.6084,-1151.69"/>
</g>
<!-- Node47 -->
<g id="node47" class="node"><title>Node47</title>
<g id="a_node47"><a xlink:href="classpdal_1_1PointView.html#adac12c7986511f00bac0879e2a1b7f5c" target="_top" xlink:title="pdal::PointView::toMetadata">
<polygon fill="white" stroke="black" points="147,-148 147,-167 287,-167 287,-148 147,-148"/>
<text text-anchor="middle" x="217" y="-155" font-family="Helvetica,sans-Serif" font-size="10.00">pdal::PointView::toMetadata</text>
</a>
</g>
</g>
<!-- Node1&#45;&gt;Node47 -->
<g id="edge47" class="edge"><title>Node1&#45;&gt;Node47</title>
<path fill="none" stroke="midnightblue" d="M55.957,-1151.54C59.1909,-1017.83 80.3957,-255.298 145,-177.5 148.6,-173.165 153.059,-169.729 157.977,-167.012"/>
<polygon fill="midnightblue" stroke="midnightblue" points="52.4497,-1151.81 55.7126,-1161.89 59.4478,-1151.98 52.4497,-1151.81"/>
</g>
<!-- Node48 -->
<g id="node48" class="node"><title>Node48</title>
<g id="a_node48"><a xlink:href="classpdal_1_1BpfWriter.html#a8784f84370d69b9ae4dbbd632ed0f27a" target="_top" xlink:title="pdal::BpfWriter::writeByte\lMajor">
<polygon fill="white" stroke="red" points="152.5,-98.5 152.5,-128.5 281.5,-128.5 281.5,-98.5 152.5,-98.5"/>
<text text-anchor="start" x="160.5" y="-116.5" font-family="Helvetica,sans-Serif" font-size="10.00">pdal::BpfWriter::writeByte</text>
<text text-anchor="middle" x="217" y="-105.5" font-family="Helvetica,sans-Serif" font-size="10.00">Major</text>
</a>
</g>
</g>
<!-- Node1&#45;&gt;Node48 -->
<g id="edge48" class="edge"><title>Node1&#45;&gt;Node48</title>
<path fill="none" stroke="midnightblue" d="M55.9429,-1151.65C59.1466,-1015.43 80.5087,-221.711 145,-138.5 147.962,-134.678 151.551,-131.439 155.524,-128.694"/>
<polygon fill="midnightblue" stroke="midnightblue" points="52.4392,-1151.77 55.7084,-1161.85 59.4373,-1151.93 52.4392,-1151.77"/>
</g>
<!-- Node49 -->
<g id="node49" class="node"><title>Node49</title>
<g id="a_node49"><a xlink:href="classpdal_1_1BpfWriter.html#a28a12ad585ecfe6f9b21129c435184d4" target="_top" xlink:title="pdal::BpfWriter::writeDim\lMajor">
<polygon fill="white" stroke="red" points="153.5,-49.5 153.5,-79.5 280.5,-79.5 280.5,-49.5 153.5,-49.5"/>
<text text-anchor="start" x="161.5" y="-67.5" font-family="Helvetica,sans-Serif" font-size="10.00">pdal::BpfWriter::writeDim</text>
<text text-anchor="middle" x="217" y="-56.5" font-family="Helvetica,sans-Serif" font-size="10.00">Major</text>
</a>
</g>
</g>
<!-- Node1&#45;&gt;Node49 -->
<g id="edge49" class="edge"><title>Node1&#45;&gt;Node49</title>
<path fill="none" stroke="midnightblue" d="M55.8621,-1151.58C58.5749,-1011.44 77.504,-176.939 145,-89.5 147.955,-85.6725 151.538,-82.4291 155.507,-79.681"/>
<polygon fill="midnightblue" stroke="midnightblue" points="52.3602,-1151.65 55.6711,-1161.72 59.3589,-1151.78 52.3602,-1151.65"/>
</g>
<!-- Node50 -->
<g id="node50" class="node"><title>Node50</title>
<g id="a_node50"><a xlink:href="classpdal_1_1BpfWriter.html#a9d45245505629571977d2116cdd07a5e" target="_top" xlink:title="pdal::BpfWriter::writePoint\lMajor">
<polygon fill="white" stroke="red" points="151.5,-0.5 151.5,-30.5 282.5,-30.5 282.5,-0.5 151.5,-0.5"/>
<text text-anchor="start" x="159.5" y="-18.5" font-family="Helvetica,sans-Serif" font-size="10.00">pdal::BpfWriter::writePoint</text>
<text text-anchor="middle" x="217" y="-7.5" font-family="Helvetica,sans-Serif" font-size="10.00">Major</text>
</a>
</g>
</g>
<!-- Node1&#45;&gt;Node50 -->
<g id="edge50" class="edge"><title>Node1&#45;&gt;Node50</title>
<path fill="none" stroke="midnightblue" d="M55.7868,-1151.58C58.0218,-1007.83 74.4845,-132.187 145,-40.5 147.948,-36.6672 151.527,-33.4201 155.492,-30.6694"/>
<polygon fill="midnightblue" stroke="midnightblue" points="52.2819,-1151.88 55.6311,-1161.93 59.2811,-1151.99 52.2819,-1151.88"/>
</g>
<!-- Node4&#45;&gt;Node5 -->
<g id="edge4" class="edge"><title>Node4&#45;&gt;Node5</title>
<path fill="none" stroke="midnightblue" d="M292.571,-2112.93C307.477,-2111.02 322.84,-2109.05 336.819,-2107.26"/>
<polygon fill="midnightblue" stroke="midnightblue" points="291.822,-2109.5 282.348,-2114.25 292.712,-2116.44 291.822,-2109.5"/>
</g>
<!-- Node16&#45;&gt;Node17 -->
<g id="edge16" class="edge"><title>Node16&#45;&gt;Node17</title>
<path fill="none" stroke="midnightblue" d="M295.793,-1616.88C305.468,-1615.81 315.279,-1614.72 324.728,-1613.68"/>
<polygon fill="midnightblue" stroke="midnightblue" points="295.335,-1613.41 285.781,-1617.99 296.106,-1620.37 295.335,-1613.41"/>
</g>
</g>
</svg>
