<?xml version="1.0" encoding="UTF-8" standalone="no"?>
<!DOCTYPE svg PUBLIC "-//W3C//DTD SVG 1.1//EN"
 "http://www.w3.org/Graphics/SVG/1.1/DTD/svg11.dtd">
<!-- Generated by graphviz version 2.38.0 (20140413.2041)
 -->
<!-- Title: pdal::FerryFilter::initialize Pages: 1 -->
<svg width="831pt" height="287pt"
 viewBox="0.00 0.00 831.00 287.00" xmlns="http://www.w3.org/2000/svg" xmlns:xlink="http://www.w3.org/1999/xlink">
<g id="graph0" class="graph" transform="scale(1 1) rotate(0) translate(4 283)">
<title>pdal::FerryFilter::initialize</title>
<polygon fill="white" stroke="none" points="-4,4 -4,-283 827,-283 827,4 -4,4"/>
<!-- Node1 -->
<g id="node1" class="node"><title>Node1</title>
<polygon fill="#bfbfbf" stroke="black" points="0,-197 0,-227 91,-227 91,-197 0,-197"/>
<text text-anchor="start" x="8" y="-215" font-family="Helvetica,sans-Serif" font-size="10.00">pdal::FerryFilter::</text>
<text text-anchor="middle" x="45.5" y="-204" font-family="Helvetica,sans-Serif" font-size="10.00">initialize</text>
</g>
<!-- Node2 -->
<g id="node2" class="node"><title>Node2</title>
<g id="a_node2"><a xlink:href="namespacepdal_1_1Utils.html#a3e140e4c0c21d020c56c0b8d58b8cb5b" target="_top" xlink:title="pdal::Utils::contains">
<polygon fill="white" stroke="black" points="133.5,-259.5 133.5,-278.5 237.5,-278.5 237.5,-259.5 133.5,-259.5"/>
<text text-anchor="middle" x="185.5" y="-266.5" font-family="Helvetica,sans-Serif" font-size="10.00">pdal::Utils::contains</text>
</a>
</g>
</g>
<!-- Node1&#45;&gt;Node2 -->
<g id="edge1" class="edge"><title>Node1&#45;&gt;Node2</title>
<path fill="none" stroke="midnightblue" d="M76.3148,-227.138C91.3264,-234.486 109.922,-243.177 127,-250 132.248,-252.097 137.827,-254.15 143.366,-256.087"/>
<polygon fill="midnightblue" stroke="midnightblue" points="142.621,-259.53 153.215,-259.43 144.871,-252.901 142.621,-259.53"/>
</g>
<!-- Node3 -->
<g id="node3" class="node"><title>Node3</title>
<g id="a_node3"><a xlink:href="namespacepdal_1_1Utils.html#a7c0bdff1817c4b21e6f5b37dc8fabff5" target="_top" xlink:title="pdal::Utils::split">
<polygon fill="white" stroke="black" points="143,-221.5 143,-240.5 228,-240.5 228,-221.5 143,-221.5"/>
<text text-anchor="middle" x="185.5" y="-228.5" font-family="Helvetica,sans-Serif" font-size="10.00">pdal::Utils::split</text>
</a>
</g>
</g>
<!-- Node1&#45;&gt;Node3 -->
<g id="edge2" class="edge"><title>Node1&#45;&gt;Node3</title>
<path fill="none" stroke="midnightblue" d="M91.3046,-218.169C104.475,-219.982 118.992,-221.981 132.568,-223.85"/>
<polygon fill="midnightblue" stroke="midnightblue" points="132.344,-227.352 142.728,-225.249 133.299,-220.417 132.344,-227.352"/>
</g>
<!-- Node4 -->
<g id="node4" class="node"><title>Node4</title>
<g id="a_node4"><a xlink:href="classpdal_1_1Stage.html#abdbd1176da12dfd882d931a43290797f" target="_top" xlink:title="pdal::Stage::throwError">
<polygon fill="white" stroke="black" points="127,-183.5 127,-202.5 244,-202.5 244,-183.5 127,-183.5"/>
<text text-anchor="middle" x="185.5" y="-190.5" font-family="Helvetica,sans-Serif" font-size="10.00">pdal::Stage::throwError</text>
</a>
</g>
</g>
<!-- Node1&#45;&gt;Node4 -->
<g id="edge3" class="edge"><title>Node1&#45;&gt;Node4</title>
<path fill="none" stroke="midnightblue" d="M91.3046,-205.831C99.4502,-204.71 108.111,-203.517 116.746,-202.329"/>
<polygon fill="midnightblue" stroke="midnightblue" points="117.408,-205.77 126.838,-200.939 116.454,-198.836 117.408,-205.77"/>
</g>
<!-- Node6 -->
<g id="node6" class="node"><title>Node6</title>
<g id="a_node6"><a xlink:href="namespacepdal_1_1Utils.html#ac5d9d3dfd3f4611182c07aa85e27c1e4" target="_top" xlink:title="pdal::Utils::trim">
<polygon fill="white" stroke="black" points="144,-107.5 144,-126.5 227,-126.5 227,-107.5 144,-107.5"/>
<text text-anchor="middle" x="185.5" y="-114.5" font-family="Helvetica,sans-Serif" font-size="10.00">pdal::Utils::trim</text>
</a>
</g>
</g>
<!-- Node1&#45;&gt;Node6 -->
<g id="edge5" class="edge"><title>Node1&#45;&gt;Node6</title>
<path fill="none" stroke="midnightblue" d="M68.3665,-196.947C93.9288,-179.35 136.023,-150.372 161.898,-132.56"/>
<polygon fill="midnightblue" stroke="midnightblue" points="164.067,-135.315 170.32,-126.762 160.098,-129.549 164.067,-135.315"/>
</g>
<!-- Node5 -->
<g id="node5" class="node"><title>Node5</title>
<g id="a_node5"><a xlink:href="classpdal_1_1Stage.html#a6c81d6fbbac17ebe4cd63806916cc750" target="_top" xlink:title="pdal::Stage::getName">
<polygon fill="white" stroke="black" points="284.5,-202.5 284.5,-221.5 396.5,-221.5 396.5,-202.5 284.5,-202.5"/>
<text text-anchor="middle" x="340.5" y="-209.5" font-family="Helvetica,sans-Serif" font-size="10.00">pdal::Stage::getName</text>
</a>
</g>
</g>
<!-- Node4&#45;&gt;Node5 -->
<g id="edge4" class="edge"><title>Node4&#45;&gt;Node5</title>
<path fill="none" stroke="midnightblue" d="M244.343,-200.183C254.078,-201.392 264.242,-202.654 274.151,-203.885"/>
<polygon fill="midnightblue" stroke="midnightblue" points="274.001,-207.393 284.356,-205.152 274.864,-200.446 274.001,-207.393"/>
</g>
<!-- Node7 -->
<g id="node7" class="node"><title>Node7</title>
<g id="a_node7"><a xlink:href="namespacepdal_1_1Utils.html#a10ae3cc2d10407cff89ba1ab00bc036b" target="_top" xlink:title="pdal::Utils::trimLeading">
<polygon fill="white" stroke="black" points="282,-164.5 282,-183.5 399,-183.5 399,-164.5 282,-164.5"/>
<text text-anchor="middle" x="340.5" y="-171.5" font-family="Helvetica,sans-Serif" font-size="10.00">pdal::Utils::trimLeading</text>
</a>
</g>
</g>
<!-- Node6&#45;&gt;Node7 -->
<g id="edge6" class="edge"><title>Node6&#45;&gt;Node7</title>
<path fill="none" stroke="midnightblue" d="M208.606,-126.545C227.435,-134.54 255.288,-146.048 280,-155 285.955,-157.157 292.289,-159.319 298.521,-161.371"/>
<polygon fill="midnightblue" stroke="midnightblue" points="297.566,-164.741 308.158,-164.489 299.721,-158.081 297.566,-164.741"/>
</g>
<!-- Node8 -->
<g id="node8" class="node"><title>Node8</title>
<g id="a_node8"><a xlink:href="namespacepdal_1_1Utils.html#afed0ad4146baafd1973c85e1508ade73" target="_top" xlink:title="pdal::Utils::trimTrailing">
<polygon fill="white" stroke="black" points="283,-126.5 283,-145.5 398,-145.5 398,-126.5 283,-126.5"/>
<text text-anchor="middle" x="340.5" y="-133.5" font-family="Helvetica,sans-Serif" font-size="10.00">pdal::Utils::trimTrailing</text>
</a>
</g>
</g>
<!-- Node6&#45;&gt;Node8 -->
<g id="edge7" class="edge"><title>Node6&#45;&gt;Node8</title>
<path fill="none" stroke="midnightblue" d="M227.1,-122.042C241.115,-123.782 257.211,-125.781 272.759,-127.712"/>
<polygon fill="midnightblue" stroke="midnightblue" points="272.516,-131.208 282.871,-128.968 273.378,-124.262 272.516,-131.208"/>
</g>
<!-- Node9 -->
<g id="node9" class="node"><title>Node9</title>
<g id="a_node9"><a xlink:href="namespacepdal_1_1Utils.html#abdd3e6ebf8047dbc72337bac885f1169" target="_top" xlink:title="pdal::Utils::eatcharacter">
<polygon fill="white" stroke="black" points="280,-88.5 280,-107.5 401,-107.5 401,-88.5 280,-88.5"/>
<text text-anchor="middle" x="340.5" y="-95.5" font-family="Helvetica,sans-Serif" font-size="10.00">pdal::Utils::eatcharacter</text>
</a>
</g>
</g>
<!-- Node6&#45;&gt;Node9 -->
<g id="edge8" class="edge"><title>Node6&#45;&gt;Node9</title>
<path fill="none" stroke="midnightblue" d="M227.1,-111.958C240.263,-110.324 255.26,-108.461 269.916,-106.641"/>
<polygon fill="midnightblue" stroke="midnightblue" points="270.488,-110.097 279.981,-105.391 269.626,-103.15 270.488,-110.097"/>
</g>
<!-- Node10 -->
<g id="node10" class="node"><title>Node10</title>
<g id="a_node10"><a xlink:href="namespacepdal_1_1Utils.html#ab908ea72a2a7d385cbbab68939d1c1a2" target="_top" xlink:title="pdal::Utils::base64\l_encode">
<polygon fill="white" stroke="black" points="291.5,-39 291.5,-69 389.5,-69 389.5,-39 291.5,-39"/>
<text text-anchor="start" x="299.5" y="-57" font-family="Helvetica,sans-Serif" font-size="10.00">pdal::Utils::base64</text>
<text text-anchor="middle" x="340.5" y="-46" font-family="Helvetica,sans-Serif" font-size="10.00">_encode</text>
</a>
</g>
</g>
<!-- Node6&#45;&gt;Node10 -->
<g id="edge9" class="edge"><title>Node6&#45;&gt;Node10</title>
<path fill="none" stroke="midnightblue" d="M209.737,-107.432C231.872,-98.3174 265.817,-84.34 293.437,-72.967"/>
<polygon fill="midnightblue" stroke="midnightblue" points="294.999,-76.109 302.913,-69.065 292.334,-69.6362 294.999,-76.109"/>
</g>
<!-- Node11 -->
<g id="node11" class="node"><title>Node11</title>
<g id="a_node11"><a xlink:href="namespacepdal_1_1Dimension.html#acf81dae9d5946f3a941f9df154b2329b" target="_top" xlink:title="pdal::Dimension::size">
<polygon fill="white" stroke="black" points="285,-0.5 285,-19.5 396,-19.5 396,-0.5 285,-0.5"/>
<text text-anchor="middle" x="340.5" y="-7.5" font-family="Helvetica,sans-Serif" font-size="10.00">pdal::Dimension::size</text>
</a>
</g>
</g>
<!-- Node6&#45;&gt;Node11 -->
<g id="edge10" class="edge"><title>Node6&#45;&gt;Node11</title>
<path fill="none" stroke="midnightblue" d="M194.194,-107.321C208.965,-89.357 243.118,-50.7141 280,-29 283.627,-26.8647 287.522,-24.9402 291.52,-23.2116"/>
<polygon fill="midnightblue" stroke="midnightblue" points="292.916,-26.4237 300.959,-19.5267 290.37,-19.903 292.916,-26.4237"/>
</g>
<!-- Node12 -->
<g id="node12" class="node"><title>Node12</title>
<g id="a_node12"><a xlink:href="namespacepdal_1_1Utils.html#a59253304d0f929e3a3ea00f09636002f" target="_top" xlink:title="pdal::Utils::toNative">
<polygon fill="white" stroke="black" points="437,-0.5 437,-19.5 541,-19.5 541,-0.5 437,-0.5"/>
<text text-anchor="middle" x="489" y="-7.5" font-family="Helvetica,sans-Serif" font-size="10.00">pdal::Utils::toNative</text>
</a>
</g>
</g>
<!-- Node11&#45;&gt;Node12 -->
<g id="edge11" class="edge"><title>Node11&#45;&gt;Node12</title>
<path fill="none" stroke="midnightblue" d="M396.051,-10C406.057,-10 416.563,-10 426.749,-10"/>
<polygon fill="midnightblue" stroke="midnightblue" points="426.8,-13.5001 436.8,-10 426.8,-6.5001 426.8,-13.5001"/>
</g>
<!-- Node13 -->
<g id="node13" class="node"><title>Node13</title>
<g id="a_node13"><a xlink:href="namespacepdal_1_1Dimension.html#a880d689fed54aa3ded6f88c9e058c5d2" target="_top" xlink:title="pdal::Dimension::type">
<polygon fill="white" stroke="black" points="577,-0.5 577,-19.5 689,-19.5 689,-0.5 577,-0.5"/>
<text text-anchor="middle" x="633" y="-7.5" font-family="Helvetica,sans-Serif" font-size="10.00">pdal::Dimension::type</text>
</a>
</g>
</g>
<!-- Node12&#45;&gt;Node13 -->
<g id="edge12" class="edge"><title>Node12&#45;&gt;Node13</title>
<path fill="none" stroke="midnightblue" d="M541.265,-10C549.602,-10 558.332,-10 566.946,-10"/>
<polygon fill="midnightblue" stroke="midnightblue" points="566.972,-13.5001 576.972,-10 566.972,-6.5001 566.972,-13.5001"/>
</g>
<!-- Node14 -->
<g id="node14" class="node"><title>Node14</title>
<g id="a_node14"><a xlink:href="namespacepdal_1_1Utils.html#a5268937cf695835e55392f752dc02cb2" target="_top" xlink:title="pdal::Utils::tolower">
<polygon fill="white" stroke="black" points="725,-0.5 725,-19.5 823,-19.5 823,-0.5 725,-0.5"/>
<text text-anchor="middle" x="774" y="-7.5" font-family="Helvetica,sans-Serif" font-size="10.00">pdal::Utils::tolower</text>
</a>
</g>
</g>
<!-- Node13&#45;&gt;Node14 -->
<g id="edge13" class="edge"><title>Node13&#45;&gt;Node14</title>
<path fill="none" stroke="midnightblue" d="M689.336,-10C697.625,-10 706.194,-10 714.546,-10"/>
<polygon fill="midnightblue" stroke="midnightblue" points="714.59,-13.5001 724.59,-10 714.59,-6.5001 714.59,-13.5001"/>
</g>
</g>
</svg>
