<?xml version="1.0" encoding="UTF-8" standalone="no"?>
<!DOCTYPE svg PUBLIC "-//W3C//DTD SVG 1.1//EN"
 "http://www.w3.org/Graphics/SVG/1.1/DTD/svg11.dtd">
<!-- Generated by graphviz version 2.38.0 (20140413.2041)
 -->
<!-- Title: pdal::PluginManager::loadAll Pages: 1 -->
<svg width="835pt" height="398pt"
 viewBox="0.00 0.00 835.00 397.50" xmlns="http://www.w3.org/2000/svg" xmlns:xlink="http://www.w3.org/1999/xlink">
<g id="graph0" class="graph" transform="scale(1 1) rotate(0) translate(4 393.5)">
<title>pdal::PluginManager::loadAll</title>
<polygon fill="white" stroke="none" points="-4,4 -4,-393.5 831,-393.5 831,4 -4,4"/>
<!-- Node1 -->
<g id="node1" class="node"><title>Node1</title>
<polygon fill="#bfbfbf" stroke="black" points="0,-288.5 0,-318.5 105,-318.5 105,-288.5 0,-288.5"/>
<text text-anchor="start" x="8" y="-306.5" font-family="Helvetica,sans-Serif" font-size="10.00">pdal::PluginManager</text>
<text text-anchor="middle" x="52.5" y="-295.5" font-family="Helvetica,sans-Serif" font-size="10.00">::loadAll</text>
</g>
<!-- Node2 -->
<g id="node2" class="node"><title>Node2</title>
<g id="a_node2"><a xlink:href="namespacepdal_1_1FileUtils.html#af4165597419cf00a2ff9cea447ea6c33" target="_top" xlink:title="pdal::FileUtils::directoryList">
<polygon fill="white" stroke="black" points="141,-370 141,-389 277,-389 277,-370 141,-370"/>
<text text-anchor="middle" x="209" y="-377" font-family="Helvetica,sans-Serif" font-size="10.00">pdal::FileUtils::directoryList</text>
</a>
</g>
</g>
<!-- Node1&#45;&gt;Node2 -->
<g id="edge1" class="edge"><title>Node1&#45;&gt;Node2</title>
<path fill="none" stroke="midnightblue" d="M73.0083,-318.681C90.1154,-331.371 116.08,-349.166 141,-360.5 146.09,-362.815 151.528,-364.914 157.022,-366.799"/>
<polygon fill="midnightblue" stroke="midnightblue" points="156.317,-370.248 166.908,-369.962 158.45,-363.581 156.317,-370.248"/>
</g>
<!-- Node3 -->
<g id="node3" class="node"><title>Node3</title>
<g id="a_node3"><a xlink:href="namespacepdal_1_1FileUtils.html#ae3c153961947c766ab18099f7ef71fc1" target="_top" xlink:title="pdal::FileUtils::extension">
<polygon fill="white" stroke="black" points="146.5,-332 146.5,-351 271.5,-351 271.5,-332 146.5,-332"/>
<text text-anchor="middle" x="209" y="-339" font-family="Helvetica,sans-Serif" font-size="10.00">pdal::FileUtils::extension</text>
</a>
</g>
</g>
<!-- Node1&#45;&gt;Node3 -->
<g id="edge2" class="edge"><title>Node1&#45;&gt;Node3</title>
<path fill="none" stroke="midnightblue" d="M105.376,-316.259C122.817,-320.549 142.199,-325.316 159.381,-329.542"/>
<polygon fill="midnightblue" stroke="midnightblue" points="158.664,-332.97 169.211,-331.96 160.336,-326.173 158.664,-332.97"/>
</g>
<!-- Node4 -->
<g id="node4" class="node"><title>Node4</title>
<g id="a_node4"><a xlink:href="namespacepdal_1_1FileUtils.html#ae2b8f1ddc38b0033b685a0bde6106ba1" target="_top" xlink:title="pdal::FileUtils::fileExists">
<polygon fill="white" stroke="black" points="147.5,-294 147.5,-313 270.5,-313 270.5,-294 147.5,-294"/>
<text text-anchor="middle" x="209" y="-301" font-family="Helvetica,sans-Serif" font-size="10.00">pdal::FileUtils::fileExists</text>
</a>
</g>
</g>
<!-- Node1&#45;&gt;Node4 -->
<g id="edge3" class="edge"><title>Node1&#45;&gt;Node4</title>
<path fill="none" stroke="midnightblue" d="M105.376,-303.5C115.607,-303.5 126.505,-303.5 137.236,-303.5"/>
<polygon fill="midnightblue" stroke="midnightblue" points="137.445,-307 147.445,-303.5 137.445,-300 137.445,-307"/>
</g>
<!-- Node7 -->
<g id="node7" class="node"><title>Node7</title>
<g id="a_node7"><a xlink:href="namespacepdal_1_1FileUtils.html#acfbe324737d031ab2650a56c6d50c776" target="_top" xlink:title="pdal::FileUtils::isDirectory">
<polygon fill="white" stroke="black" points="144,-256 144,-275 274,-275 274,-256 144,-256"/>
<text text-anchor="middle" x="209" y="-263" font-family="Helvetica,sans-Serif" font-size="10.00">pdal::FileUtils::isDirectory</text>
</a>
</g>
</g>
<!-- Node1&#45;&gt;Node7 -->
<g id="edge6" class="edge"><title>Node1&#45;&gt;Node7</title>
<path fill="none" stroke="midnightblue" d="M105.376,-290.741C122.817,-286.451 142.199,-281.684 159.381,-277.458"/>
<polygon fill="midnightblue" stroke="midnightblue" points="160.336,-280.827 169.211,-275.04 158.664,-274.03 160.336,-280.827"/>
</g>
<!-- Node8 -->
<g id="node8" class="node"><title>Node8</title>
<g id="a_node8"><a xlink:href="classpdal_1_1PluginManager.html#a3344bf0a8d35b309b26cb23ae5fa3579" target="_top" xlink:title="pdal::PluginManager\l::loadByPath">
<polygon fill="white" stroke="black" points="156.5,-160.5 156.5,-190.5 261.5,-190.5 261.5,-160.5 156.5,-160.5"/>
<text text-anchor="start" x="164.5" y="-178.5" font-family="Helvetica,sans-Serif" font-size="10.00">pdal::PluginManager</text>
<text text-anchor="middle" x="209" y="-167.5" font-family="Helvetica,sans-Serif" font-size="10.00">::loadByPath</text>
</a>
</g>
</g>
<!-- Node1&#45;&gt;Node8 -->
<g id="edge7" class="edge"><title>Node1&#45;&gt;Node8</title>
<path fill="none" stroke="midnightblue" d="M71.8299,-288.314C99.1256,-265.7 150.585,-223.067 181.833,-197.179"/>
<polygon fill="midnightblue" stroke="midnightblue" points="184.226,-199.741 189.694,-190.666 179.76,-194.351 184.226,-199.741"/>
</g>
<!-- Node5 -->
<g id="node5" class="node"><title>Node5</title>
<g id="a_node5"><a xlink:href="namespacepdal_1_1anonymous__namespace_02FileUtils_8cpp_03.html#a813a530ad72d50f747643f1bb996cacf" target="_top" xlink:title="pdal::anonymous_namespace\l\{FileUtils::cpp\}::isStdin">
<polygon fill="white" stroke="black" points="332,-312.5 332,-342.5 478,-342.5 478,-312.5 332,-312.5"/>
<text text-anchor="start" x="340" y="-330.5" font-family="Helvetica,sans-Serif" font-size="10.00">pdal::anonymous_namespace</text>
<text text-anchor="middle" x="405" y="-319.5" font-family="Helvetica,sans-Serif" font-size="10.00">{FileUtils::cpp}::isStdin</text>
</a>
</g>
</g>
<!-- Node4&#45;&gt;Node5 -->
<g id="edge4" class="edge"><title>Node4&#45;&gt;Node5</title>
<path fill="none" stroke="midnightblue" d="M270.585,-310.995C286.849,-313.007 304.71,-315.217 321.929,-317.347"/>
<polygon fill="midnightblue" stroke="midnightblue" points="321.621,-320.835 331.975,-318.59 322.481,-313.888 321.621,-320.835"/>
</g>
<!-- Node6 -->
<g id="node6" class="node"><title>Node6</title>
<g id="a_node6"><a xlink:href="namespacepdal_1_1Utils.html#a28e3e2faff94b20f9908e77bc54ed983" target="_top" xlink:title="pdal::Utils::toupper">
<polygon fill="white" stroke="black" points="558,-318 558,-337 657,-337 657,-318 558,-318"/>
<text text-anchor="middle" x="607.5" y="-325" font-family="Helvetica,sans-Serif" font-size="10.00">pdal::Utils::toupper</text>
</a>
</g>
</g>
<!-- Node5&#45;&gt;Node6 -->
<g id="edge5" class="edge"><title>Node5&#45;&gt;Node6</title>
<path fill="none" stroke="midnightblue" d="M478.102,-327.5C500.975,-327.5 525.975,-327.5 547.788,-327.5"/>
<polygon fill="midnightblue" stroke="midnightblue" points="547.891,-331 557.891,-327.5 547.891,-324 547.891,-331"/>
</g>
<!-- Node9 -->
<g id="node9" class="node"><title>Node9</title>
<g id="a_node9"><a xlink:href="namespacepdal_1_1Utils.html#a5268937cf695835e55392f752dc02cb2" target="_top" xlink:title="pdal::Utils::tolower">
<polygon fill="white" stroke="black" points="356,-274 356,-293 454,-293 454,-274 356,-274"/>
<text text-anchor="middle" x="405" y="-281" font-family="Helvetica,sans-Serif" font-size="10.00">pdal::Utils::tolower</text>
</a>
</g>
</g>
<!-- Node8&#45;&gt;Node9 -->
<g id="edge8" class="edge"><title>Node8&#45;&gt;Node9</title>
<path fill="none" stroke="midnightblue" d="M222.966,-190.741C241.014,-210.911 275.715,-246.064 313,-264.5 323.182,-269.535 334.644,-273.238 345.913,-275.96"/>
<polygon fill="midnightblue" stroke="midnightblue" points="345.211,-279.389 355.728,-278.109 346.708,-272.551 345.211,-279.389"/>
</g>
<!-- Node10 -->
<g id="node10" class="node"><title>Node10</title>
<g id="a_node10"><a xlink:href="namespacepdal_1_1FileUtils.html#a0d150fac3c099a0646763f1b862cac73" target="_top" xlink:title="pdal::FileUtils::getFilename">
<polygon fill="white" stroke="black" points="337,-236 337,-255 473,-255 473,-236 337,-236"/>
<text text-anchor="middle" x="405" y="-243" font-family="Helvetica,sans-Serif" font-size="10.00">pdal::FileUtils::getFilename</text>
</a>
</g>
</g>
<!-- Node8&#45;&gt;Node10 -->
<g id="edge9" class="edge"><title>Node8&#45;&gt;Node10</title>
<path fill="none" stroke="midnightblue" d="M236.793,-190.677C257.155,-201.669 286.147,-216.178 313,-225.5 321.846,-228.571 331.345,-231.276 340.749,-233.623"/>
<polygon fill="midnightblue" stroke="midnightblue" points="339.945,-237.029 350.483,-235.94 341.565,-230.22 339.945,-237.029"/>
</g>
<!-- Node11 -->
<g id="node11" class="node"><title>Node11</title>
<g id="a_node11"><a xlink:href="namespacepdal_1_1anonymous__namespace_02PluginManager_8cpp_03.html#a96b6f972ce14621acdc2ef6579cab857" target="_top" xlink:title="pdal::anonymous_namespace\l\{PluginManager::cpp\}::pluginTypeValid">
<polygon fill="white" stroke="black" points="313,-186.5 313,-216.5 497,-216.5 497,-186.5 313,-186.5"/>
<text text-anchor="start" x="321" y="-204.5" font-family="Helvetica,sans-Serif" font-size="10.00">pdal::anonymous_namespace</text>
<text text-anchor="middle" x="405" y="-193.5" font-family="Helvetica,sans-Serif" font-size="10.00">{PluginManager::cpp}::pluginTypeValid</text>
</a>
</g>
</g>
<!-- Node8&#45;&gt;Node11 -->
<g id="edge10" class="edge"><title>Node8&#45;&gt;Node11</title>
<path fill="none" stroke="midnightblue" d="M261.734,-182.433C274.379,-184.128 288.347,-186 302.444,-187.889"/>
<polygon fill="midnightblue" stroke="midnightblue" points="302.338,-191.406 312.714,-189.266 303.268,-184.468 302.338,-191.406"/>
</g>
<!-- Node13 -->
<g id="node13" class="node"><title>Node13</title>
<g id="a_node13"><a xlink:href="classpdal_1_1PluginManager.html#a05f55dd74e4883b9a8bca6ebbadda5bd" target="_top" xlink:title="pdal::PluginManager\l::libraryLoaded">
<polygon fill="white" stroke="black" points="352.5,-137.5 352.5,-167.5 457.5,-167.5 457.5,-137.5 352.5,-137.5"/>
<text text-anchor="start" x="360.5" y="-155.5" font-family="Helvetica,sans-Serif" font-size="10.00">pdal::PluginManager</text>
<text text-anchor="middle" x="405" y="-144.5" font-family="Helvetica,sans-Serif" font-size="10.00">::libraryLoaded</text>
</a>
</g>
</g>
<!-- Node8&#45;&gt;Node13 -->
<g id="edge12" class="edge"><title>Node8&#45;&gt;Node13</title>
<path fill="none" stroke="midnightblue" d="M261.734,-169.367C286.507,-166.43 316.357,-162.891 342.305,-159.814"/>
<polygon fill="midnightblue" stroke="midnightblue" points="342.892,-163.269 352.411,-158.616 342.068,-156.318 342.892,-163.269"/>
</g>
<!-- Node15 -->
<g id="node15" class="node"><title>Node15</title>
<g id="a_node15"><a xlink:href="namespacepdal_1_1FileUtils.html#a538c47da3e98daa37d68b568ca849ac9" target="_top" xlink:title="pdal::FileUtils::toAbsolutePath">
<polygon fill="white" stroke="black" points="533,-99 533,-118 682,-118 682,-99 533,-99"/>
<text text-anchor="middle" x="607.5" y="-106" font-family="Helvetica,sans-Serif" font-size="10.00">pdal::FileUtils::toAbsolutePath</text>
</a>
</g>
</g>
<!-- Node8&#45;&gt;Node15 -->
<g id="edge15" class="edge"><title>Node8&#45;&gt;Node15</title>
<path fill="none" stroke="midnightblue" d="M235.252,-160.482C255.517,-149.245 285.095,-134.636 313,-127.5 382.211,-109.8 463.433,-105.772 522.867,-105.758"/>
<polygon fill="midnightblue" stroke="midnightblue" points="522.944,-109.258 532.957,-105.794 522.969,-102.258 522.944,-109.258"/>
</g>
<!-- Node16 -->
<g id="node16" class="node"><title>Node16</title>
<g id="a_node16"><a xlink:href="classpdal_1_1PluginManager.html#a37dc2ebab8261695d3d42038046cd5e4" target="_top" xlink:title="pdal::PluginManager\l::loadLibrary">
<polygon fill="white" stroke="black" points="352.5,-49.5 352.5,-79.5 457.5,-79.5 457.5,-49.5 352.5,-49.5"/>
<text text-anchor="start" x="360.5" y="-67.5" font-family="Helvetica,sans-Serif" font-size="10.00">pdal::PluginManager</text>
<text text-anchor="middle" x="405" y="-56.5" font-family="Helvetica,sans-Serif" font-size="10.00">::loadLibrary</text>
</a>
</g>
</g>
<!-- Node8&#45;&gt;Node16 -->
<g id="edge16" class="edge"><title>Node8&#45;&gt;Node16</title>
<path fill="none" stroke="midnightblue" d="M225.524,-160.408C244.683,-142.503 278.921,-112.783 313,-94.5 322.22,-89.5534 332.403,-85.2265 342.519,-81.5135"/>
<polygon fill="midnightblue" stroke="midnightblue" points="343.879,-84.7458 352.163,-78.1414 341.568,-78.138 343.879,-84.7458"/>
</g>
<!-- Node19 -->
<g id="node19" class="node"><title>Node19</title>
<g id="a_node19"><a xlink:href="classpdal_1_1PluginManager.html#ae9e94964092e0fdb6be63484e5e69e9f" target="_top" xlink:title="pdal::PluginManager\l::initializePlugin">
<polygon fill="white" stroke="black" points="352.5,-0.5 352.5,-30.5 457.5,-30.5 457.5,-0.5 352.5,-0.5"/>
<text text-anchor="start" x="360.5" y="-18.5" font-family="Helvetica,sans-Serif" font-size="10.00">pdal::PluginManager</text>
<text text-anchor="middle" x="405" y="-7.5" font-family="Helvetica,sans-Serif" font-size="10.00">::initializePlugin</text>
</a>
</g>
</g>
<!-- Node8&#45;&gt;Node19 -->
<g id="edge20" class="edge"><title>Node8&#45;&gt;Node19</title>
<path fill="none" stroke="midnightblue" d="M217.235,-160.184C231.44,-131.825 265.754,-71.1499 313,-39.5 321.847,-33.5736 332.087,-29.1092 342.437,-25.7466"/>
<polygon fill="midnightblue" stroke="midnightblue" points="343.737,-29.0133 352.353,-22.8484 341.773,-22.2944 343.737,-29.0133"/>
</g>
<!-- Node12 -->
<g id="node12" class="node"><title>Node12</title>
<g id="a_node12"><a xlink:href="namespacepdal_1_1Utils.html#a28e27948fb8a4c1d958783d8a53bd784" target="_top" xlink:title="pdal::Utils::startsWith">
<polygon fill="white" stroke="black" points="551.5,-192 551.5,-211 663.5,-211 663.5,-192 551.5,-192"/>
<text text-anchor="middle" x="607.5" y="-199" font-family="Helvetica,sans-Serif" font-size="10.00">pdal::Utils::startsWith</text>
</a>
</g>
</g>
<!-- Node11&#45;&gt;Node12 -->
<g id="edge11" class="edge"><title>Node11&#45;&gt;Node12</title>
<path fill="none" stroke="midnightblue" d="M497.156,-201.5C512.057,-201.5 527.227,-201.5 541.337,-201.5"/>
<polygon fill="midnightblue" stroke="midnightblue" points="541.404,-205 551.404,-201.5 541.404,-198 541.404,-205"/>
</g>
<!-- Node14 -->
<g id="node14" class="node"><title>Node14</title>
<g id="a_node14"><a xlink:href="namespacepdal_1_1Utils.html#a3e140e4c0c21d020c56c0b8d58b8cb5b" target="_top" xlink:title="pdal::Utils::contains">
<polygon fill="white" stroke="black" points="555.5,-143 555.5,-162 659.5,-162 659.5,-143 555.5,-143"/>
<text text-anchor="middle" x="607.5" y="-150" font-family="Helvetica,sans-Serif" font-size="10.00">pdal::Utils::contains</text>
</a>
</g>
</g>
<!-- Node13&#45;&gt;Node14 -->
<g id="edge13" class="edge"><title>Node13&#45;&gt;Node14</title>
<path fill="none" stroke="midnightblue" d="M457.634,-152.5C484.398,-152.5 517.263,-152.5 545.298,-152.5"/>
<polygon fill="midnightblue" stroke="midnightblue" points="545.389,-156 555.389,-152.5 545.389,-149 545.389,-156"/>
</g>
<!-- Node13&#45;&gt;Node15 -->
<g id="edge14" class="edge"><title>Node13&#45;&gt;Node15</title>
<path fill="none" stroke="midnightblue" d="M457.634,-141.169C486.903,-134.746 523.467,-126.722 553.033,-120.233"/>
<polygon fill="midnightblue" stroke="midnightblue" points="554.158,-123.57 563.176,-118.008 552.658,-116.732 554.158,-123.57"/>
</g>
<!-- Node16&#45;&gt;Node15 -->
<g id="edge19" class="edge"><title>Node16&#45;&gt;Node15</title>
<path fill="none" stroke="midnightblue" d="M457.634,-75.8311C486.903,-82.2543 523.467,-90.2783 553.033,-96.7666"/>
<polygon fill="midnightblue" stroke="midnightblue" points="552.658,-100.268 563.176,-98.9924 554.158,-93.4302 552.658,-100.268"/>
</g>
<!-- Node17 -->
<g id="node17" class="node"><title>Node17</title>
<g id="a_node17"><a xlink:href="classpdal_1_1DynamicLibrary.html#afa96ce1595f15fb125e13c827902f030" target="_top" xlink:title="pdal::DynamicLibrary\l::load">
<polygon fill="white" stroke="black" points="553,-49.5 553,-79.5 662,-79.5 662,-49.5 553,-49.5"/>
<text text-anchor="start" x="561" y="-67.5" font-family="Helvetica,sans-Serif" font-size="10.00">pdal::DynamicLibrary</text>
<text text-anchor="middle" x="607.5" y="-56.5" font-family="Helvetica,sans-Serif" font-size="10.00">::load</text>
</a>
</g>
</g>
<!-- Node16&#45;&gt;Node17 -->
<g id="edge17" class="edge"><title>Node16&#45;&gt;Node17</title>
<path fill="none" stroke="midnightblue" d="M457.634,-64.5C483.561,-64.5 515.212,-64.5 542.653,-64.5"/>
<polygon fill="midnightblue" stroke="midnightblue" points="542.943,-68.0001 552.943,-64.5 542.943,-61.0001 542.943,-68.0001"/>
</g>
<!-- Node18 -->
<g id="node18" class="node"><title>Node18</title>
<g id="a_node18"><a xlink:href="classpdal_1_1DynamicLibrary.html#a48b54a6222a25732cc80500f52f3e618" target="_top" xlink:title="pdal::DynamicLibrary\l::DynamicLibrary">
<polygon fill="white" stroke="black" points="718,-49.5 718,-79.5 827,-79.5 827,-49.5 718,-49.5"/>
<text text-anchor="start" x="726" y="-67.5" font-family="Helvetica,sans-Serif" font-size="10.00">pdal::DynamicLibrary</text>
<text text-anchor="middle" x="772.5" y="-56.5" font-family="Helvetica,sans-Serif" font-size="10.00">::DynamicLibrary</text>
</a>
</g>
</g>
<!-- Node17&#45;&gt;Node18 -->
<g id="edge18" class="edge"><title>Node17&#45;&gt;Node18</title>
<path fill="none" stroke="midnightblue" d="M662.324,-64.5C676.79,-64.5 692.576,-64.5 707.535,-64.5"/>
<polygon fill="midnightblue" stroke="midnightblue" points="707.733,-68.0001 717.732,-64.5 707.732,-61.0001 707.733,-68.0001"/>
</g>
<!-- Node20 -->
<g id="node20" class="node"><title>Node20</title>
<g id="a_node20"><a xlink:href="classpdal_1_1PluginManager.html#a8a847508c24b6a254ae8eaba06c0069a" target="_top" xlink:title="pdal::PluginManager\l::l_initializePlugin">
<polygon fill="white" stroke="black" points="555,-0.5 555,-30.5 660,-30.5 660,-0.5 555,-0.5"/>
<text text-anchor="start" x="563" y="-18.5" font-family="Helvetica,sans-Serif" font-size="10.00">pdal::PluginManager</text>
<text text-anchor="middle" x="607.5" y="-7.5" font-family="Helvetica,sans-Serif" font-size="10.00">::l_initializePlugin</text>
</a>
</g>
</g>
<!-- Node19&#45;&gt;Node20 -->
<g id="edge21" class="edge"><title>Node19&#45;&gt;Node20</title>
<path fill="none" stroke="midnightblue" d="M457.634,-15.5C484.192,-15.5 516.756,-15.5 544.648,-15.5"/>
<polygon fill="midnightblue" stroke="midnightblue" points="544.693,-19.0001 554.693,-15.5 544.693,-12.0001 544.693,-19.0001"/>
</g>
</g>
</svg>
