<?xml version="1.0" encoding="UTF-8" standalone="no"?>
<!DOCTYPE svg PUBLIC "-//W3C//DTD SVG 1.1//EN"
 "http://www.w3.org/Graphics/SVG/1.1/DTD/svg11.dtd">
<!-- Generated by graphviz version 2.38.0 (20140413.2041)
 -->
<!-- Title: pdal::PluginManager::link Pages: 1 -->
<svg width="254pt" height="116pt"
 viewBox="0.00 0.00 254.00 115.50" xmlns="http://www.w3.org/2000/svg" xmlns:xlink="http://www.w3.org/1999/xlink">
<g id="graph0" class="graph" transform="scale(1 1) rotate(0) translate(4 111.5)">
<title>pdal::PluginManager::link</title>
<polygon fill="white" stroke="none" points="-4,4 -4,-111.5 250,-111.5 250,4 -4,4"/>
<!-- Node1 -->
<g id="node1" class="node"><title>Node1</title>
<polygon fill="#bfbfbf" stroke="black" points="0,-55 0,-85 105,-85 105,-55 0,-55"/>
<text text-anchor="start" x="8" y="-73" font-family="Helvetica,sans-Serif" font-size="10.00">pdal::PluginManager</text>
<text text-anchor="middle" x="52.5" y="-62" font-family="Helvetica,sans-Serif" font-size="10.00">::link</text>
</g>
<!-- Node2 -->
<g id="node2" class="node"><title>Node2</title>
<g id="a_node2"><a xlink:href="classpdal_1_1PluginManager.html#a8e5621de86ff9604a24a6c8ac8adf6dd" target="_top" xlink:title="pdal::PluginManager\l::l_link">
<polygon fill="white" stroke="black" points="141,-77 141,-107 246,-107 246,-77 141,-77"/>
<text text-anchor="start" x="149" y="-95" font-family="Helvetica,sans-Serif" font-size="10.00">pdal::PluginManager</text>
<text text-anchor="middle" x="193.5" y="-84" font-family="Helvetica,sans-Serif" font-size="10.00">::l_link</text>
</a>
</g>
</g>
<!-- Node1&#45;&gt;Node2 -->
<g id="edge1" class="edge"><title>Node1&#45;&gt;Node2</title>
<path fill="none" stroke="midnightblue" d="M115.163,-73.0479C123.69,-74.3138 132.375,-75.7419 140.698,-77.2496"/>
<polygon fill="midnightblue" stroke="midnightblue" points="115.651,-69.5822 105.258,-71.6414 114.667,-76.5127 115.651,-69.5822"/>
</g>
<!-- Node3 -->
<g id="node3" class="node"><title>Node3</title>
<g id="a_node3"><a xlink:href="classApp.html#a1577860a48c9cef4fe5f669480cac388" target="_top" xlink:title="App::outputDrivers">
<polygon fill="white" stroke="black" points="144.5,-38.5 144.5,-57.5 242.5,-57.5 242.5,-38.5 144.5,-38.5"/>
<text text-anchor="middle" x="193.5" y="-45.5" font-family="Helvetica,sans-Serif" font-size="10.00">App::outputDrivers</text>
</a>
</g>
</g>
<!-- Node1&#45;&gt;Node3 -->
<g id="edge3" class="edge"><title>Node1&#45;&gt;Node3</title>
<path fill="none" stroke="midnightblue" d="M115.308,-60.2175C125.053,-58.675 135.003,-57.1002 144.378,-55.6164"/>
<polygon fill="midnightblue" stroke="midnightblue" points="114.588,-56.7877 105.258,-61.808 115.683,-63.7016 114.588,-56.7877"/>
</g>
<!-- Node4 -->
<g id="node4" class="node"><title>Node4</title>
<g id="a_node4"><a xlink:href="classApp.html#adf89e292877822f233d3b95598d2b1cb" target="_top" xlink:title="App::outputOptions">
<polygon fill="white" stroke="black" points="143,-0.5 143,-19.5 244,-19.5 244,-0.5 143,-0.5"/>
<text text-anchor="middle" x="193.5" y="-7.5" font-family="Helvetica,sans-Serif" font-size="10.00">App::outputOptions</text>
</a>
</g>
</g>
<!-- Node1&#45;&gt;Node4 -->
<g id="edge4" class="edge"><title>Node1&#45;&gt;Node4</title>
<path fill="none" stroke="midnightblue" d="M93.3792,-50.4439C108.208,-43.4032 125.255,-35.5793 141,-29 148.826,-25.7298 157.435,-22.4369 165.337,-19.5325"/>
<polygon fill="midnightblue" stroke="midnightblue" points="91.5005,-47.4628 83.991,-54.9366 94.5222,-53.777 91.5005,-47.4628"/>
</g>
<!-- Node2&#45;&gt;Node1 -->
<g id="edge2" class="edge"><title>Node2&#45;&gt;Node1</title>
<path fill="none" stroke="midnightblue" d="M130.793,-88.9455C122.266,-87.6791 113.58,-86.2505 105.258,-84.7426"/>
<polygon fill="midnightblue" stroke="midnightblue" points="130.305,-92.4114 140.698,-90.3528 131.29,-85.4809 130.305,-92.4114"/>
</g>
</g>
</svg>
