<?xml version="1.0" encoding="UTF-8" standalone="no"?>
<!DOCTYPE svg PUBLIC "-//W3C//DTD SVG 1.1//EN"
 "http://www.w3.org/Graphics/SVG/1.1/DTD/svg11.dtd">
<!-- Generated by graphviz version 2.38.0 (20140413.2041)
 -->
<!-- Title: pdal::Stage::execute Pages: 1 -->
<svg width="952pt" height="472pt"
 viewBox="0.00 0.00 952.00 472.00" xmlns="http://www.w3.org/2000/svg" xmlns:xlink="http://www.w3.org/1999/xlink">
<g id="graph0" class="graph" transform="scale(1 1) rotate(0) translate(4 468)">
<title>pdal::Stage::execute</title>
<polygon fill="white" stroke="none" points="-4,4 -4,-468 948,-468 948,4 -4,4"/>
<!-- Node1 -->
<g id="node1" class="node"><title>Node1</title>
<polygon fill="#bfbfbf" stroke="black" points="0,-237 0,-256 107,-256 107,-237 0,-237"/>
<text text-anchor="middle" x="53.5" y="-244" font-family="Helvetica,sans-Serif" font-size="10.00">pdal::Stage::execute</text>
</g>
<!-- Node2 -->
<g id="node2" class="node"><title>Node2</title>
<g id="a_node2"><a xlink:href="classpdal_1_1StreamPointTable.html#adbb9e8c346dae6dd114686164bb7fa07" target="_top" xlink:title="pdal::StreamPointTable\l::capacity">
<polygon fill="white" stroke="black" points="164,-433.5 164,-463.5 283,-463.5 283,-433.5 164,-433.5"/>
<text text-anchor="start" x="172" y="-451.5" font-family="Helvetica,sans-Serif" font-size="10.00">pdal::StreamPointTable</text>
<text text-anchor="middle" x="223.5" y="-440.5" font-family="Helvetica,sans-Serif" font-size="10.00">::capacity</text>
</a>
</g>
</g>
<!-- Node1&#45;&gt;Node2 -->
<g id="edge1" class="edge"><title>Node1&#45;&gt;Node2</title>
<path fill="none" stroke="midnightblue" d="M56.4906,-256.284C63.0924,-286.202 87.1016,-377.294 143,-424.5 146.502,-427.458 150.361,-430.051 154.434,-432.325"/>
<polygon fill="midnightblue" stroke="midnightblue" points="153.113,-435.575 163.636,-436.809 156.18,-429.282 153.113,-435.575"/>
</g>
<!-- Node3 -->
<g id="node3" class="node"><title>Node3</title>
<g id="a_node3"><a xlink:href="classpdal_1_1BasePointTable.html#aa3ed63a9e1a8897ccb7dc81a614f6141" target="_top" xlink:title="pdal::BasePointTable\l::clearSpatialReferences">
<polygon fill="white" stroke="black" points="161.5,-384.5 161.5,-414.5 285.5,-414.5 285.5,-384.5 161.5,-384.5"/>
<text text-anchor="start" x="169.5" y="-402.5" font-family="Helvetica,sans-Serif" font-size="10.00">pdal::BasePointTable</text>
<text text-anchor="middle" x="223.5" y="-391.5" font-family="Helvetica,sans-Serif" font-size="10.00">::clearSpatialReferences</text>
</a>
</g>
</g>
<!-- Node1&#45;&gt;Node3 -->
<g id="edge2" class="edge"><title>Node1&#45;&gt;Node3</title>
<path fill="none" stroke="midnightblue" d="M58.435,-256.257C68.6319,-280.299 98.2746,-342.798 143,-375.5 145.88,-377.606 148.947,-379.529 152.137,-381.285"/>
<polygon fill="midnightblue" stroke="midnightblue" points="150.878,-384.565 161.4,-385.804 153.947,-378.274 150.878,-384.565"/>
</g>
<!-- Node4 -->
<g id="node4" class="node"><title>Node4</title>
<g id="a_node4"><a xlink:href="classpdal_1_1SpatialReference.html#a48fa2f7e79ea172b62ad2e874ff01610" target="_top" xlink:title="pdal::SpatialReference\l::empty">
<polygon fill="white" stroke="black" points="165.5,-335.5 165.5,-365.5 281.5,-365.5 281.5,-335.5 165.5,-335.5"/>
<text text-anchor="start" x="173.5" y="-353.5" font-family="Helvetica,sans-Serif" font-size="10.00">pdal::SpatialReference</text>
<text text-anchor="middle" x="223.5" y="-342.5" font-family="Helvetica,sans-Serif" font-size="10.00">::empty</text>
</a>
</g>
</g>
<!-- Node1&#45;&gt;Node4 -->
<g id="edge3" class="edge"><title>Node1&#45;&gt;Node4</title>
<path fill="none" stroke="midnightblue" d="M62.7897,-256.212C77.3869,-272.733 109.335,-306.372 143,-325.5 147.108,-327.834 151.462,-329.98 155.931,-331.947"/>
<polygon fill="midnightblue" stroke="midnightblue" points="154.646,-335.202 165.228,-335.736 157.289,-328.72 154.646,-335.202"/>
</g>
<!-- Node5 -->
<g id="node5" class="node"><title>Node5</title>
<g id="a_node5"><a xlink:href="classpdal_1_1Stage.html#a9889b4446f40daa6f4cd7bfe3c567839" target="_top" xlink:title="pdal::Stage::getSpatialReference">
<polygon fill="white" stroke="black" points="143,-297 143,-316 304,-316 304,-297 143,-297"/>
<text text-anchor="middle" x="223.5" y="-304" font-family="Helvetica,sans-Serif" font-size="10.00">pdal::Stage::getSpatialReference</text>
</a>
</g>
</g>
<!-- Node1&#45;&gt;Node5 -->
<g id="edge4" class="edge"><title>Node1&#45;&gt;Node5</title>
<path fill="none" stroke="midnightblue" d="M72.3667,-256.067C89.938,-265.163 117.726,-278.724 143,-287.5 150.352,-290.053 158.203,-292.384 166.001,-294.471"/>
<polygon fill="midnightblue" stroke="midnightblue" points="165.254,-297.893 175.809,-296.983 166.99,-291.112 165.254,-297.893"/>
</g>
<!-- Node6 -->
<g id="node6" class="node"><title>Node6</title>
<g id="a_node6"><a xlink:href="classpdal_1_1Stage.html#ae1e215c4fd772b295479510f117cb528" target="_top" xlink:title="pdal::Stage::processOne">
<polygon fill="white" stroke="black" points="161,-259 161,-278 286,-278 286,-259 161,-259"/>
<text text-anchor="middle" x="223.5" y="-266" font-family="Helvetica,sans-Serif" font-size="10.00">pdal::Stage::processOne</text>
</a>
</g>
</g>
<!-- Node1&#45;&gt;Node6 -->
<g id="edge5" class="edge"><title>Node1&#45;&gt;Node6</title>
<path fill="none" stroke="midnightblue" d="M107.195,-253.401C121.034,-255.213 136.196,-257.198 150.845,-259.117"/>
<polygon fill="midnightblue" stroke="midnightblue" points="150.513,-262.603 160.883,-260.431 151.422,-255.662 150.513,-262.603"/>
</g>
<!-- Node7 -->
<g id="node7" class="node"><title>Node7</title>
<g id="a_node7"><a xlink:href="classpdal_1_1StreamPointTable.html#a8471871bcabc6b51e5026bdb170ce771" target="_top" xlink:title="pdal::StreamPointTable\l::reset">
<polygon fill="white" stroke="black" points="164,-209.5 164,-239.5 283,-239.5 283,-209.5 164,-209.5"/>
<text text-anchor="start" x="172" y="-227.5" font-family="Helvetica,sans-Serif" font-size="10.00">pdal::StreamPointTable</text>
<text text-anchor="middle" x="223.5" y="-216.5" font-family="Helvetica,sans-Serif" font-size="10.00">::reset</text>
</a>
</g>
</g>
<!-- Node1&#45;&gt;Node7 -->
<g id="edge6" class="edge"><title>Node1&#45;&gt;Node7</title>
<path fill="none" stroke="midnightblue" d="M107.195,-239.599C121.957,-237.666 138.223,-235.536 153.767,-233.501"/>
<polygon fill="midnightblue" stroke="midnightblue" points="154.394,-236.949 163.855,-232.18 153.485,-230.008 154.394,-236.949"/>
</g>
<!-- Node8 -->
<g id="node8" class="node"><title>Node8</title>
<g id="a_node8"><a xlink:href="classpdal_1_1PointRef.html#af2252f383598b06c0756a6f0e9bad258" target="_top" xlink:title="pdal::PointRef::setPointId">
<polygon fill="white" stroke="black" points="159,-171 159,-190 288,-190 288,-171 159,-171"/>
<text text-anchor="middle" x="223.5" y="-178" font-family="Helvetica,sans-Serif" font-size="10.00">pdal::PointRef::setPointId</text>
</a>
</g>
</g>
<!-- Node1&#45;&gt;Node8 -->
<g id="edge7" class="edge"><title>Node1&#45;&gt;Node8</title>
<path fill="none" stroke="midnightblue" d="M70.2878,-236.853C87.5975,-226.624 116.451,-210.581 143,-200.5 150.662,-197.591 158.9,-194.978 167.066,-192.676"/>
<polygon fill="midnightblue" stroke="midnightblue" points="168.198,-195.996 176.949,-190.023 166.383,-189.236 168.198,-195.996"/>
</g>
<!-- Node9 -->
<g id="node9" class="node"><title>Node9</title>
<g id="a_node9"><a xlink:href="classpdal_1_1BasePointTable.html#ab51e40b623a7b48264946f474f50d86a" target="_top" xlink:title="pdal::BasePointTable\l::setSpatialReference">
<polygon fill="white" stroke="black" points="168,-121.5 168,-151.5 279,-151.5 279,-121.5 168,-121.5"/>
<text text-anchor="start" x="176" y="-139.5" font-family="Helvetica,sans-Serif" font-size="10.00">pdal::BasePointTable</text>
<text text-anchor="middle" x="223.5" y="-128.5" font-family="Helvetica,sans-Serif" font-size="10.00">::setSpatialReference</text>
</a>
</g>
</g>
<!-- Node1&#45;&gt;Node9 -->
<g id="edge8" class="edge"><title>Node1&#45;&gt;Node9</title>
<path fill="none" stroke="midnightblue" d="M61.9489,-236.855C75.96,-219.35 107.995,-182.244 143,-161.5 147.745,-158.688 152.841,-156.159 158.076,-153.891"/>
<polygon fill="midnightblue" stroke="midnightblue" points="159.617,-157.045 167.607,-150.086 157.022,-150.544 159.617,-157.045"/>
</g>
<!-- Node10 -->
<g id="node10" class="node"><title>Node10</title>
<g id="a_node10"><a xlink:href="classpdal_1_1Stage.html#a74cf636cb0f633411e4e40dcd718508a" target="_top" xlink:title="pdal::Stage::startLogging">
<polygon fill="white" stroke="black" points="161,-83 161,-102 286,-102 286,-83 161,-83"/>
<text text-anchor="middle" x="223.5" y="-90" font-family="Helvetica,sans-Serif" font-size="10.00">pdal::Stage::startLogging</text>
</a>
</g>
</g>
<!-- Node1&#45;&gt;Node10 -->
<g id="edge9" class="edge"><title>Node1&#45;&gt;Node10</title>
<path fill="none" stroke="midnightblue" d="M57.9477,-236.963C67.3936,-212.244 96.1501,-145.72 143,-112.5 146.461,-110.046 150.194,-107.892 154.089,-106.002"/>
<polygon fill="midnightblue" stroke="midnightblue" points="155.574,-109.174 163.419,-102.053 152.846,-102.728 155.574,-109.174"/>
</g>
<!-- Node19 -->
<g id="node19" class="node"><title>Node19</title>
<g id="a_node19"><a xlink:href="classpdal_1_1Stage.html#ae49e996fe285350923a3bf44d027adad" target="_top" xlink:title="pdal::Stage::stopLogging">
<polygon fill="white" stroke="black" points="161,-45 161,-64 286,-64 286,-45 161,-45"/>
<text text-anchor="middle" x="223.5" y="-52" font-family="Helvetica,sans-Serif" font-size="10.00">pdal::Stage::stopLogging</text>
</a>
</g>
</g>
<!-- Node1&#45;&gt;Node19 -->
<g id="edge19" class="edge"><title>Node1&#45;&gt;Node19</title>
<path fill="none" stroke="midnightblue" d="M56.4616,-236.843C62.98,-207.337 86.7746,-117.704 143,-73.5 145.761,-71.3293 148.731,-69.4006 151.845,-67.6876"/>
<polygon fill="midnightblue" stroke="midnightblue" points="153.382,-70.8323 160.942,-63.4089 150.403,-64.4979 153.382,-70.8323"/>
</g>
<!-- Node11 -->
<g id="node11" class="node"><title>Node11</title>
<g id="a_node11"><a xlink:href="classpdal_1_1gdal_1_1ErrorHandler.html#a56e0125595a43bf3b0cbd0b9a4bc55ea" target="_top" xlink:title="pdal::gdal::ErrorHandler\l::getGlobalErrorHandler">
<polygon fill="white" stroke="black" points="350,-121.5 350,-151.5 469,-151.5 469,-121.5 350,-121.5"/>
<text text-anchor="start" x="358" y="-139.5" font-family="Helvetica,sans-Serif" font-size="10.00">pdal::gdal::ErrorHandler</text>
<text text-anchor="middle" x="409.5" y="-128.5" font-family="Helvetica,sans-Serif" font-size="10.00">::getGlobalErrorHandler</text>
</a>
</g>
</g>
<!-- Node10&#45;&gt;Node11 -->
<g id="edge10" class="edge"><title>Node10&#45;&gt;Node11</title>
<path fill="none" stroke="midnightblue" d="M264.425,-102.047C286.446,-107.313 314.402,-113.998 339.817,-120.076"/>
<polygon fill="midnightblue" stroke="midnightblue" points="339.243,-123.537 349.783,-122.459 340.872,-116.729 339.243,-123.537"/>
</g>
<!-- Node15 -->
<g id="node15" class="node"><title>Node15</title>
<g id="a_node15"><a xlink:href="classpdal_1_1Stage.html#aec4fb27c40bb4b032ff003a89a950dd4" target="_top" xlink:title="pdal::Stage::isDebug">
<polygon fill="white" stroke="black" points="355.5,-83 355.5,-102 463.5,-102 463.5,-83 355.5,-83"/>
<text text-anchor="middle" x="409.5" y="-90" font-family="Helvetica,sans-Serif" font-size="10.00">pdal::Stage::isDebug</text>
</a>
</g>
</g>
<!-- Node10&#45;&gt;Node15 -->
<g id="edge15" class="edge"><title>Node10&#45;&gt;Node15</title>
<path fill="none" stroke="midnightblue" d="M286.025,-92.5C305.065,-92.5 326.068,-92.5 345.224,-92.5"/>
<polygon fill="midnightblue" stroke="midnightblue" points="345.351,-96.0001 355.351,-92.5 345.351,-89.0001 345.351,-96.0001"/>
</g>
<!-- Node16 -->
<g id="node16" class="node"><title>Node16</title>
<g id="a_node16"><a xlink:href="classpdal_1_1gdal_1_1ErrorHandler.html#ace1cff928ab179f671181ebaf4d280a4" target="_top" xlink:title="pdal::gdal::ErrorHandler::set">
<polygon fill="white" stroke="black" points="340,-45 340,-64 479,-64 479,-45 340,-45"/>
<text text-anchor="middle" x="409.5" y="-52" font-family="Helvetica,sans-Serif" font-size="10.00">pdal::gdal::ErrorHandler::set</text>
</a>
</g>
</g>
<!-- Node10&#45;&gt;Node16 -->
<g id="edge16" class="edge"><title>Node10&#45;&gt;Node16</title>
<path fill="none" stroke="midnightblue" d="M270.931,-82.911C295.649,-77.8061 326.239,-71.4887 352.292,-66.1082"/>
<polygon fill="midnightblue" stroke="midnightblue" points="353.317,-69.4703 362.403,-64.0201 351.902,-62.615 353.317,-69.4703"/>
</g>
<!-- Node12 -->
<g id="node12" class="node"><title>Node12</title>
<g id="a_node12"><a xlink:href="classpdal_1_1gdal_1_1ErrorHandler.html#a73215504640551589024d36018f81d33" target="_top" xlink:title="pdal::gdal::ErrorHandler\l::ErrorHandler">
<polygon fill="white" stroke="black" points="515,-146.5 515,-176.5 634,-176.5 634,-146.5 515,-146.5"/>
<text text-anchor="start" x="523" y="-164.5" font-family="Helvetica,sans-Serif" font-size="10.00">pdal::gdal::ErrorHandler</text>
<text text-anchor="middle" x="574.5" y="-153.5" font-family="Helvetica,sans-Serif" font-size="10.00">::ErrorHandler</text>
</a>
</g>
</g>
<!-- Node11&#45;&gt;Node12 -->
<g id="edge11" class="edge"><title>Node11&#45;&gt;Node12</title>
<path fill="none" stroke="midnightblue" d="M469.347,-145.526C480.773,-147.278 492.844,-149.129 504.56,-150.926"/>
<polygon fill="midnightblue" stroke="midnightblue" points="504.325,-154.431 514.74,-152.488 505.386,-147.512 504.325,-154.431"/>
</g>
<!-- Node13 -->
<g id="node13" class="node"><title>Node13</title>
<g id="a_node13"><a xlink:href="classpdal_1_1gdal_1_1ErrorHandler.html#a6381c703007e462e66d9906c806ec0a4" target="_top" xlink:title="pdal::gdal::ErrorHandler\l::trampoline">
<polygon fill="white" stroke="black" points="670,-124.5 670,-154.5 789,-154.5 789,-124.5 670,-124.5"/>
<text text-anchor="start" x="678" y="-142.5" font-family="Helvetica,sans-Serif" font-size="10.00">pdal::gdal::ErrorHandler</text>
<text text-anchor="middle" x="729.5" y="-131.5" font-family="Helvetica,sans-Serif" font-size="10.00">::trampoline</text>
</a>
</g>
</g>
<!-- Node12&#45;&gt;Node13 -->
<g id="edge12" class="edge"><title>Node12&#45;&gt;Node13</title>
<path fill="none" stroke="midnightblue" d="M634.216,-153.057C642.635,-151.847 651.359,-150.592 659.947,-149.357"/>
<polygon fill="midnightblue" stroke="midnightblue" points="660.541,-152.808 669.941,-147.92 659.545,-145.879 660.541,-152.808"/>
</g>
<!-- Node13&#45;&gt;Node11 -->
<g id="edge13" class="edge"><title>Node13&#45;&gt;Node11</title>
<path fill="none" stroke="midnightblue" d="M669.775,-138.105C657.932,-137.867 645.568,-137.648 634,-137.5 582.167,-136.836 523.566,-136.592 479.378,-136.512"/>
<polygon fill="midnightblue" stroke="midnightblue" points="479.329,-133.012 469.324,-136.496 479.318,-140.012 479.329,-133.012"/>
</g>
<!-- Node14 -->
<g id="node14" class="node"><title>Node14</title>
<g id="a_node14"><a xlink:href="classpdal_1_1gdal_1_1ErrorHandler.html#a4d90644b75f1266d089af2bc61bb8de7" target="_top" xlink:title="pdal::gdal::ErrorHandler\l::handle">
<polygon fill="white" stroke="black" points="825,-124.5 825,-154.5 944,-154.5 944,-124.5 825,-124.5"/>
<text text-anchor="start" x="833" y="-142.5" font-family="Helvetica,sans-Serif" font-size="10.00">pdal::gdal::ErrorHandler</text>
<text text-anchor="middle" x="884.5" y="-131.5" font-family="Helvetica,sans-Serif" font-size="10.00">::handle</text>
</a>
</g>
</g>
<!-- Node13&#45;&gt;Node14 -->
<g id="edge14" class="edge"><title>Node13&#45;&gt;Node14</title>
<path fill="none" stroke="midnightblue" d="M789.216,-139.5C797.544,-139.5 806.169,-139.5 814.667,-139.5"/>
<polygon fill="midnightblue" stroke="midnightblue" points="814.941,-143 824.941,-139.5 814.941,-136 814.941,-143"/>
</g>
<!-- Node17 -->
<g id="node17" class="node"><title>Node17</title>
<g id="a_node17"><a xlink:href="classpdal_1_1gdal_1_1ErrorHandler.html#abe7fbf19bfcfbb0be1c8ae934bd5c9d2" target="_top" xlink:title="pdal::gdal::ErrorHandler\l::setLog">
<polygon fill="white" stroke="black" points="515,-49.5 515,-79.5 634,-79.5 634,-49.5 515,-49.5"/>
<text text-anchor="start" x="523" y="-67.5" font-family="Helvetica,sans-Serif" font-size="10.00">pdal::gdal::ErrorHandler</text>
<text text-anchor="middle" x="574.5" y="-56.5" font-family="Helvetica,sans-Serif" font-size="10.00">::setLog</text>
</a>
</g>
</g>
<!-- Node16&#45;&gt;Node17 -->
<g id="edge17" class="edge"><title>Node16&#45;&gt;Node17</title>
<path fill="none" stroke="midnightblue" d="M479.154,-58.7119C487.628,-59.2318 496.293,-59.7634 504.768,-60.2833"/>
<polygon fill="midnightblue" stroke="midnightblue" points="504.791,-63.7912 514.987,-60.9102 505.22,-56.8044 504.791,-63.7912"/>
</g>
<!-- Node18 -->
<g id="node18" class="node"><title>Node18</title>
<g id="a_node18"><a xlink:href="classpdal_1_1gdal_1_1ErrorHandler.html#a61ea2c53f778817785d39cd9fc6a81a6" target="_top" xlink:title="pdal::gdal::ErrorHandler\l::setDebug">
<polygon fill="white" stroke="black" points="515,-0.5 515,-30.5 634,-30.5 634,-0.5 515,-0.5"/>
<text text-anchor="start" x="523" y="-18.5" font-family="Helvetica,sans-Serif" font-size="10.00">pdal::gdal::ErrorHandler</text>
<text text-anchor="middle" x="574.5" y="-7.5" font-family="Helvetica,sans-Serif" font-size="10.00">::setDebug</text>
</a>
</g>
</g>
<!-- Node16&#45;&gt;Node18 -->
<g id="edge18" class="edge"><title>Node16&#45;&gt;Node18</title>
<path fill="none" stroke="midnightblue" d="M450.374,-44.9595C466.832,-41.0218 486.385,-36.3434 505.008,-31.8876"/>
<polygon fill="midnightblue" stroke="midnightblue" points="506.025,-35.2433 514.936,-29.5123 504.396,-28.4354 506.025,-35.2433"/>
</g>
</g>
</svg>
