<?xml version="1.0" encoding="UTF-8" standalone="no"?>
<!DOCTYPE svg PUBLIC "-//W3C//DTD SVG 1.1//EN"
 "http://www.w3.org/Graphics/SVG/1.1/DTD/svg11.dtd">
<!-- Generated by graphviz version 2.38.0 (20140413.2041)
 -->
<!-- Title: pdal::PlyReader::readLine Pages: 1 -->
<svg width="793pt" height="185pt"
 viewBox="0.00 0.00 793.00 184.60" xmlns="http://www.w3.org/2000/svg" xmlns:xlink="http://www.w3.org/1999/xlink">
<g id="graph0" class="graph" transform="scale(1 1) rotate(0) translate(4 180.597)">
<title>pdal::PlyReader::readLine</title>
<polygon fill="white" stroke="none" points="-4,4 -4,-180.597 789,-180.597 789,4 -4,4"/>
<!-- Node1 -->
<g id="node1" class="node"><title>Node1</title>
<polygon fill="#bfbfbf" stroke="black" points="0,-88 0,-107 129,-107 129,-88 0,-88"/>
<text text-anchor="middle" x="64.5" y="-95" font-family="Helvetica,sans-Serif" font-size="10.00">pdal::PlyReader::readLine</text>
</g>
<!-- Node2 -->
<g id="node2" class="node"><title>Node2</title>
<g id="a_node2"><a xlink:href="classpdal_1_1PlyReader.html#a86c91fd3c850c095dc537b627f92c426" target="_top" xlink:title="pdal::PlyReader::extract\lElement">
<polygon fill="white" stroke="black" points="332,-132.5 332,-162.5 454,-162.5 454,-132.5 332,-132.5"/>
<text text-anchor="start" x="340" y="-150.5" font-family="Helvetica,sans-Serif" font-size="10.00">pdal::PlyReader::extract</text>
<text text-anchor="middle" x="393" y="-139.5" font-family="Helvetica,sans-Serif" font-size="10.00">Element</text>
</a>
</g>
</g>
<!-- Node1&#45;&gt;Node2 -->
<g id="edge1" class="edge"><title>Node1&#45;&gt;Node2</title>
<path fill="none" stroke="midnightblue" d="M82.146,-113.914C100.606,-130.857 132.144,-156.222 165,-166.5 223.503,-184.8 294.379,-173.975 341.198,-162.584"/>
<polygon fill="midnightblue" stroke="midnightblue" points="84.5212,-111.343 74.8478,-107.022 79.7149,-116.432 84.5212,-111.343"/>
</g>
<!-- Node5 -->
<g id="node5" class="node"><title>Node5</title>
<g id="a_node5"><a xlink:href="classpdal_1_1PlyReader.html#aec1ef06026968ef08b98538d2f868f13" target="_top" xlink:title="pdal::PlyReader::extractEnd">
<polygon fill="white" stroke="black" points="323,-94 323,-113 463,-113 463,-94 323,-94"/>
<text text-anchor="middle" x="393" y="-101" font-family="Helvetica,sans-Serif" font-size="10.00">pdal::PlyReader::extractEnd</text>
</a>
</g>
</g>
<!-- Node1&#45;&gt;Node5 -->
<g id="edge4" class="edge"><title>Node1&#45;&gt;Node5</title>
<path fill="none" stroke="midnightblue" d="M139.262,-98.8555C194.272,-99.8664 268.903,-101.238 322.789,-102.228"/>
<polygon fill="midnightblue" stroke="midnightblue" points="139.29,-95.3555 129.228,-98.6711 139.162,-102.354 139.29,-95.3555"/>
</g>
<!-- Node6 -->
<g id="node6" class="node"><title>Node6</title>
<g id="a_node6"><a xlink:href="classpdal_1_1PlyReader.html#a2ce78f148be470e4d613ae7f0ab9616f" target="_top" xlink:title="pdal::PlyReader::extract\lFormat">
<polygon fill="white" stroke="black" points="332,-44.5 332,-74.5 454,-74.5 454,-44.5 332,-44.5"/>
<text text-anchor="start" x="340" y="-62.5" font-family="Helvetica,sans-Serif" font-size="10.00">pdal::PlyReader::extract</text>
<text text-anchor="middle" x="393" y="-51.5" font-family="Helvetica,sans-Serif" font-size="10.00">Format</text>
</a>
</g>
</g>
<!-- Node1&#45;&gt;Node6 -->
<g id="edge6" class="edge"><title>Node1&#45;&gt;Node6</title>
<path fill="none" stroke="midnightblue" d="M139.449,-88.8934C197.561,-82.13 277.48,-72.8285 331.74,-66.5134"/>
<polygon fill="midnightblue" stroke="midnightblue" points="138.756,-85.4503 129.228,-90.083 139.565,-92.4034 138.756,-85.4503"/>
</g>
<!-- Node7 -->
<g id="node7" class="node"><title>Node7</title>
<g id="a_node7"><a xlink:href="classpdal_1_1PlyReader.html#abf004e430f1c5f6ad2a89746e54316ca" target="_top" xlink:title="pdal::PlyReader::extract\lMagic">
<polygon fill="white" stroke="black" points="165,-0.5 165,-30.5 287,-30.5 287,-0.5 165,-0.5"/>
<text text-anchor="start" x="173" y="-18.5" font-family="Helvetica,sans-Serif" font-size="10.00">pdal::PlyReader::extract</text>
<text text-anchor="middle" x="226" y="-7.5" font-family="Helvetica,sans-Serif" font-size="10.00">Magic</text>
</a>
</g>
</g>
<!-- Node1&#45;&gt;Node7 -->
<g id="edge8" class="edge"><title>Node1&#45;&gt;Node7</title>
<path fill="none" stroke="midnightblue" d="M92.6381,-83.15C112.604,-72.6335 140.43,-58.0616 165,-45.5 174.644,-40.5696 185.199,-35.2623 194.731,-30.5025"/>
<polygon fill="midnightblue" stroke="midnightblue" points="91.0004,-80.0567 83.7877,-87.8174 94.2658,-86.2485 91.0004,-80.0567"/>
</g>
<!-- Node8 -->
<g id="node8" class="node"><title>Node8</title>
<g id="a_node8"><a xlink:href="classpdal_1_1PlyReader.html#ae3efcc96eca62b8d710e725b3358e88c" target="_top" xlink:title="pdal::PlyReader::extract\lProperties">
<polygon fill="white" stroke="black" points="165,-126.5 165,-156.5 287,-156.5 287,-126.5 165,-126.5"/>
<text text-anchor="start" x="173" y="-144.5" font-family="Helvetica,sans-Serif" font-size="10.00">pdal::PlyReader::extract</text>
<text text-anchor="middle" x="226" y="-133.5" font-family="Helvetica,sans-Serif" font-size="10.00">Properties</text>
</a>
</g>
</g>
<!-- Node1&#45;&gt;Node8 -->
<g id="edge10" class="edge"><title>Node1&#45;&gt;Node8</title>
<path fill="none" stroke="midnightblue" d="M109.871,-109.74C128.624,-114.913 150.65,-120.99 170.388,-126.435"/>
<polygon fill="midnightblue" stroke="midnightblue" points="110.68,-106.333 100.109,-107.047 108.818,-113.081 110.68,-106.333"/>
</g>
<!-- Node3 -->
<g id="node3" class="node"><title>Node3</title>
<g id="a_node3"><a xlink:href="classpdal_1_1PlyReader.html#a9b0179c012f82bcb1878e1197d2e4040" target="_top" xlink:title="pdal::PlyReader::extract\lHeader">
<polygon fill="white" stroke="black" points="499,-66.5 499,-96.5 621,-96.5 621,-66.5 499,-66.5"/>
<text text-anchor="start" x="507" y="-84.5" font-family="Helvetica,sans-Serif" font-size="10.00">pdal::PlyReader::extract</text>
<text text-anchor="middle" x="560" y="-73.5" font-family="Helvetica,sans-Serif" font-size="10.00">Header</text>
</a>
</g>
</g>
<!-- Node2&#45;&gt;Node3 -->
<g id="edge2" class="edge"><title>Node2&#45;&gt;Node3</title>
<path fill="none" stroke="midnightblue" d="M446.303,-128.9C451.955,-126.786 457.609,-124.626 463,-122.5 483.737,-114.322 506.709,-104.538 524.981,-96.5789"/>
<polygon fill="midnightblue" stroke="midnightblue" points="445.002,-125.649 436.837,-132.402 447.43,-132.215 445.002,-125.649"/>
</g>
<!-- Node4 -->
<g id="node4" class="node"><title>Node4</title>
<g id="a_node4"><a xlink:href="classpdal_1_1PlyReader.html#a1502df4ba555d39c66aebabc40b61342" target="_top" xlink:title="pdal::PlyReader::initialize">
<polygon fill="white" stroke="black" points="657,-72 657,-91 785,-91 785,-72 657,-72"/>
<text text-anchor="middle" x="721" y="-79" font-family="Helvetica,sans-Serif" font-size="10.00">pdal::PlyReader::initialize</text>
</a>
</g>
</g>
<!-- Node3&#45;&gt;Node4 -->
<g id="edge3" class="edge"><title>Node3&#45;&gt;Node4</title>
<path fill="none" stroke="midnightblue" d="M631.377,-81.5C639.872,-81.5 648.508,-81.5 656.89,-81.5"/>
<polygon fill="midnightblue" stroke="midnightblue" points="631.111,-78.0001 621.111,-81.5 631.111,-85.0001 631.111,-78.0001"/>
</g>
<!-- Node5&#45;&gt;Node3 -->
<g id="edge5" class="edge"><title>Node5&#45;&gt;Node3</title>
<path fill="none" stroke="midnightblue" d="M473.146,-92.9471C481.813,-91.7917 490.528,-90.6296 498.91,-89.512"/>
<polygon fill="midnightblue" stroke="midnightblue" points="472.468,-89.5065 463.019,-94.2975 473.394,-96.4451 472.468,-89.5065"/>
</g>
<!-- Node6&#45;&gt;Node3 -->
<g id="edge7" class="edge"><title>Node6&#45;&gt;Node3</title>
<path fill="none" stroke="midnightblue" d="M464.063,-68.8417C475.598,-70.3797 487.464,-71.9619 498.733,-73.4644"/>
<polygon fill="midnightblue" stroke="midnightblue" points="464.41,-65.3572 454.036,-67.5047 463.485,-72.2958 464.41,-65.3572"/>
</g>
<!-- Node7&#45;&gt;Node3 -->
<g id="edge9" class="edge"><title>Node7&#45;&gt;Node3</title>
<path fill="none" stroke="midnightblue" d="M297.423,-14.3408C344.969,-15.2079 408.713,-19.6037 463,-34.5 488.769,-41.5711 515.923,-55.5583 534.75,-66.4437"/>
<polygon fill="midnightblue" stroke="midnightblue" points="297.274,-10.8386 287.228,-14.2042 297.18,-17.838 297.274,-10.8386"/>
</g>
<!-- Node8&#45;&gt;Node2 -->
<g id="edge11" class="edge"><title>Node8&#45;&gt;Node2</title>
<path fill="none" stroke="midnightblue" d="M297.063,-144.048C308.598,-144.467 320.464,-144.899 331.733,-145.308"/>
<polygon fill="midnightblue" stroke="midnightblue" points="297.156,-140.549 287.036,-143.683 296.902,-147.544 297.156,-140.549"/>
</g>
</g>
</svg>
