<?xml version="1.0" encoding="UTF-8" standalone="no"?>
<!DOCTYPE svg PUBLIC "-//W3C//DTD SVG 1.1//EN"
 "http://www.w3.org/Graphics/SVG/1.1/DTD/svg11.dtd">
<!-- Generated by graphviz version 2.38.0 (20140413.2041)
 -->
<!-- Title: pdal::Bounds::to2d Pages: 1 -->
<svg width="290pt" height="142pt"
 viewBox="0.00 0.00 290.00 142.00" xmlns="http://www.w3.org/2000/svg" xmlns:xlink="http://www.w3.org/1999/xlink">
<g id="graph0" class="graph" transform="scale(1 1) rotate(0) translate(4 138)">
<title>pdal::Bounds::to2d</title>
<polygon fill="white" stroke="none" points="-4,4 -4,-138 286,-138 286,4 -4,4"/>
<!-- Node1 -->
<g id="node1" class="node"><title>Node1</title>
<polygon fill="#bfbfbf" stroke="black" points="0,-57.5 0,-76.5 98,-76.5 98,-57.5 0,-57.5"/>
<text text-anchor="middle" x="49" y="-64.5" font-family="Helvetica,sans-Serif" font-size="10.00">pdal::Bounds::to2d</text>
</g>
<!-- Node2 -->
<g id="node2" class="node"><title>Node2</title>
<g id="a_node2"><a xlink:href="namespacepdal.html#a0fb7899359d09eef29b1fcd2b53bf093" target="_top" xlink:title="pdal::operator\&lt;\&lt;">
<polygon fill="white" stroke="black" points="164,-114.5 164,-133.5 252,-133.5 252,-114.5 164,-114.5"/>
<text text-anchor="middle" x="208" y="-121.5" font-family="Helvetica,sans-Serif" font-size="10.00">pdal::operator&lt;&lt;</text>
</a>
</g>
</g>
<!-- Node1&#45;&gt;Node2 -->
<g id="edge1" class="edge"><title>Node1&#45;&gt;Node2</title>
<path fill="none" stroke="midnightblue" d="M78.0053,-81.117C94.1085,-88.865 114.879,-98.242 134,-105 144.001,-108.535 154.982,-111.735 165.321,-114.458"/>
<polygon fill="midnightblue" stroke="midnightblue" points="79.1599,-77.7858 68.6384,-76.5412 76.0874,-84.0754 79.1599,-77.7858"/>
</g>
<!-- Node3 -->
<g id="node3" class="node"><title>Node3</title>
<g id="a_node3"><a xlink:href="classpdal_1_1GDALWriter.html#a847b524d64e68e8add5eeda3506c2007" target="_top" xlink:title="pdal::GDALWriter::readyFile">
<polygon fill="white" stroke="black" points="138,-76.5 138,-95.5 278,-95.5 278,-76.5 138,-76.5"/>
<text text-anchor="middle" x="208" y="-83.5" font-family="Helvetica,sans-Serif" font-size="10.00">pdal::GDALWriter::readyFile</text>
</a>
</g>
</g>
<!-- Node1&#45;&gt;Node3 -->
<g id="edge2" class="edge"><title>Node1&#45;&gt;Node3</title>
<path fill="none" stroke="midnightblue" d="M108.592,-74.0907C118.177,-75.2507 128.187,-76.4621 137.996,-77.6492"/>
<polygon fill="midnightblue" stroke="midnightblue" points="108.734,-70.5825 98.3862,-72.8557 107.893,-77.5318 108.734,-70.5825"/>
</g>
<!-- Node4 -->
<g id="node4" class="node"><title>Node4</title>
<g id="a_node4"><a xlink:href="classpdal_1_1GDALWriter.html#a7a6b359afb9b6619910d1145202ad31c" target="_top" xlink:title="pdal::GDALWriter::readyTable">
<polygon fill="white" stroke="black" points="134,-38.5 134,-57.5 282,-57.5 282,-38.5 134,-38.5"/>
<text text-anchor="middle" x="208" y="-45.5" font-family="Helvetica,sans-Serif" font-size="10.00">pdal::GDALWriter::readyTable</text>
</a>
</g>
</g>
<!-- Node1&#45;&gt;Node4 -->
<g id="edge3" class="edge"><title>Node1&#45;&gt;Node4</title>
<path fill="none" stroke="midnightblue" d="M108.369,-59.9362C116.709,-58.927 125.373,-57.8784 133.95,-56.8404"/>
<polygon fill="midnightblue" stroke="midnightblue" points="107.893,-56.4682 98.3862,-61.1443 108.734,-63.4175 107.893,-56.4682"/>
</g>
<!-- Node5 -->
<g id="node5" class="node"><title>Node5</title>
<g id="a_node5"><a xlink:href="classpdal_1_1GDALWriter.html#af35536b95e60de238dee71b984acd0a4" target="_top" xlink:title="pdal::GDALWriter::writeView">
<polygon fill="white" stroke="black" points="136.5,-0.5 136.5,-19.5 279.5,-19.5 279.5,-0.5 136.5,-0.5"/>
<text text-anchor="middle" x="208" y="-7.5" font-family="Helvetica,sans-Serif" font-size="10.00">pdal::GDALWriter::writeView</text>
</a>
</g>
</g>
<!-- Node1&#45;&gt;Node5 -->
<g id="edge4" class="edge"><title>Node1&#45;&gt;Node5</title>
<path fill="none" stroke="midnightblue" d="M78.0053,-52.883C94.1085,-45.135 114.879,-35.758 134,-29 144.001,-25.4652 154.982,-22.2651 165.321,-19.5418"/>
<polygon fill="midnightblue" stroke="midnightblue" points="76.0874,-49.9246 68.6384,-57.4588 79.1599,-56.2142 76.0874,-49.9246"/>
</g>
</g>
</svg>
