<?xml version="1.0" encoding="UTF-8" standalone="no"?>
<!DOCTYPE svg PUBLIC "-//W3C//DTD SVG 1.1//EN"
 "http://www.w3.org/Graphics/SVG/1.1/DTD/svg11.dtd">
<!-- Generated by graphviz version 2.38.0 (20140413.2041)
 -->
<!-- Title: pdal::BasePointTable Pages: 1 -->
<svg width="232pt" height="252pt"
 viewBox="0.00 0.00 232.00 252.00" xmlns="http://www.w3.org/2000/svg" xmlns:xlink="http://www.w3.org/1999/xlink">
<g id="graph0" class="graph" transform="scale(1 1) rotate(0) translate(4 248)">
<title>pdal::BasePointTable</title>
<polygon fill="white" stroke="none" points="-4,4 -4,-248 228,-248 228,4 -4,4"/>
<!-- Node1 -->
<g id="node1" class="node"><title>Node1</title>
<polygon fill="#bfbfbf" stroke="black" points="48.5,-168.5 48.5,-187.5 158.5,-187.5 158.5,-168.5 48.5,-168.5"/>
<text text-anchor="middle" x="103.5" y="-175.5" font-family="Helvetica,sans-Serif" font-size="10.00">pdal::BasePointTable</text>
</g>
<!-- Node3 -->
<g id="node3" class="node"><title>Node3</title>
<g id="a_node3"><a xlink:href="classpdal_1_1SimplePointTable.html" target="_top" xlink:title="pdal::SimplePointTable">
<polygon fill="white" stroke="black" points="45,-112.5 45,-131.5 162,-131.5 162,-112.5 45,-112.5"/>
<text text-anchor="middle" x="103.5" y="-119.5" font-family="Helvetica,sans-Serif" font-size="10.00">pdal::SimplePointTable</text>
</a>
</g>
</g>
<!-- Node1&#45;&gt;Node3 -->
<g id="edge2" class="edge"><title>Node1&#45;&gt;Node3</title>
<path fill="none" stroke="midnightblue" d="M103.5,-157.805C103.5,-148.91 103.5,-138.78 103.5,-131.751"/>
<polygon fill="midnightblue" stroke="midnightblue" points="100,-158.083 103.5,-168.083 107,-158.083 100,-158.083"/>
</g>
<!-- Node2 -->
<g id="node2" class="node"><title>Node2</title>
<g id="a_node2"><a xlink:href="classpdal_1_1PointContainer.html" target="_top" xlink:title="pdal::PointContainer">
<polygon fill="white" stroke="black" points="51,-224.5 51,-243.5 156,-243.5 156,-224.5 51,-224.5"/>
<text text-anchor="middle" x="103.5" y="-231.5" font-family="Helvetica,sans-Serif" font-size="10.00">pdal::PointContainer</text>
</a>
</g>
</g>
<!-- Node2&#45;&gt;Node1 -->
<g id="edge1" class="edge"><title>Node2&#45;&gt;Node1</title>
<path fill="none" stroke="midnightblue" d="M103.5,-213.805C103.5,-204.91 103.5,-194.78 103.5,-187.751"/>
<polygon fill="midnightblue" stroke="midnightblue" points="100,-214.083 103.5,-224.083 107,-214.083 100,-214.083"/>
</g>
<!-- Node4 -->
<g id="node4" class="node"><title>Node4</title>
<g id="a_node4"><a xlink:href="classpdal_1_1PointTable.html" target="_top" xlink:title="pdal::PointTable">
<polygon fill="white" stroke="black" points="0,-56.5 0,-75.5 87,-75.5 87,-56.5 0,-56.5"/>
<text text-anchor="middle" x="43.5" y="-63.5" font-family="Helvetica,sans-Serif" font-size="10.00">pdal::PointTable</text>
</a>
</g>
</g>
<!-- Node3&#45;&gt;Node4 -->
<g id="edge3" class="edge"><title>Node3&#45;&gt;Node4</title>
<path fill="none" stroke="midnightblue" d="M86.3191,-105.537C75.6208,-95.9087 62.2437,-83.8694 53.3154,-75.8339"/>
<polygon fill="midnightblue" stroke="midnightblue" points="84.0856,-108.236 93.86,-112.324 88.7684,-103.033 84.0856,-108.236"/>
</g>
<!-- Node5 -->
<g id="node5" class="node"><title>Node5</title>
<g id="a_node5"><a xlink:href="classpdal_1_1StreamPointTable.html" target="_top" xlink:title="pdal::StreamPointTable">
<polygon fill="white" stroke="black" points="105,-56.5 105,-75.5 224,-75.5 224,-56.5 105,-56.5"/>
<text text-anchor="middle" x="164.5" y="-63.5" font-family="Helvetica,sans-Serif" font-size="10.00">pdal::StreamPointTable</text>
</a>
</g>
</g>
<!-- Node3&#45;&gt;Node5 -->
<g id="edge4" class="edge"><title>Node3&#45;&gt;Node5</title>
<path fill="none" stroke="midnightblue" d="M120.967,-105.537C131.844,-95.9087 145.444,-83.8694 154.521,-75.8339"/>
<polygon fill="midnightblue" stroke="midnightblue" points="118.468,-103.075 113.301,-112.324 123.108,-108.316 118.468,-103.075"/>
</g>
<!-- Node6 -->
<g id="node6" class="node"><title>Node6</title>
<g id="a_node6"><a xlink:href="classpdal_1_1FixedPointTable.html" target="_top" xlink:title="pdal::FixedPointTable">
<polygon fill="white" stroke="black" points="109,-0.5 109,-19.5 220,-19.5 220,-0.5 109,-0.5"/>
<text text-anchor="middle" x="164.5" y="-7.5" font-family="Helvetica,sans-Serif" font-size="10.00">pdal::FixedPointTable</text>
</a>
</g>
</g>
<!-- Node5&#45;&gt;Node6 -->
<g id="edge5" class="edge"><title>Node5&#45;&gt;Node6</title>
<path fill="none" stroke="midnightblue" d="M164.5,-45.8045C164.5,-36.9102 164.5,-26.7798 164.5,-19.7511"/>
<polygon fill="midnightblue" stroke="midnightblue" points="161,-46.083 164.5,-56.083 168,-46.083 161,-46.083"/>
</g>
</g>
</svg>
