<?xml version="1.0" encoding="UTF-8" standalone="no"?>
<!DOCTYPE svg PUBLIC "-//W3C//DTD SVG 1.1//EN"
 "http://www.w3.org/Graphics/SVG/1.1/DTD/svg11.dtd">
<!-- Generated by graphviz version 2.38.0 (20140413.2041)
 -->
<!-- Title: pdal::MetadataNode::type Pages: 1 -->
<svg width="578pt" height="110pt"
 viewBox="0.00 0.00 578.00 109.50" xmlns="http://www.w3.org/2000/svg" xmlns:xlink="http://www.w3.org/1999/xlink">
<g id="graph0" class="graph" transform="scale(1 1) rotate(0) translate(4 105.5)">
<title>pdal::MetadataNode::type</title>
<polygon fill="white" stroke="none" points="-4,4 -4,-105.5 574,-105.5 574,4 -4,4"/>
<!-- Node1 -->
<g id="node1" class="node"><title>Node1</title>
<polygon fill="#bfbfbf" stroke="black" points="0,-33 0,-63 104,-63 104,-33 0,-33"/>
<text text-anchor="start" x="8" y="-51" font-family="Helvetica,sans-Serif" font-size="10.00">pdal::MetadataNode</text>
<text text-anchor="middle" x="52" y="-40" font-family="Helvetica,sans-Serif" font-size="10.00">::type</text>
</g>
<!-- Node2 -->
<g id="node2" class="node"><title>Node2</title>
<g id="a_node2"><a xlink:href="namespacepdal_1_1plang.html#aadb0654c8e74d07ceb868c94f430f94a" target="_top" xlink:title="pdal::plang::fromMetadata">
<polygon fill="white" stroke="black" points="140,-76.5 140,-95.5 270,-95.5 270,-76.5 140,-76.5"/>
<text text-anchor="middle" x="205" y="-83.5" font-family="Helvetica,sans-Serif" font-size="10.00">pdal::plang::fromMetadata</text>
</a>
</g>
</g>
<!-- Node1&#45;&gt;Node2 -->
<g id="edge1" class="edge"><title>Node1&#45;&gt;Node2</title>
<path fill="none" stroke="midnightblue" d="M114.241,-63.4116C131.684,-67.8013 150.181,-72.4563 165.823,-76.3926"/>
<polygon fill="midnightblue" stroke="midnightblue" points="114.674,-59.9114 104.122,-60.8651 112.965,-66.6998 114.674,-59.9114"/>
</g>
<!-- Node5 -->
<g id="node5" class="node"><title>Node5</title>
<g id="a_node5"><a xlink:href="MetadataTest_8cpp.html#a51418dfaf40922e4a44ca87031aebf4b" target="_top" xlink:title="TEST">
<polygon fill="white" stroke="black" points="184,-38.5 184,-57.5 226,-57.5 226,-38.5 184,-38.5"/>
<text text-anchor="middle" x="205" y="-45.5" font-family="Helvetica,sans-Serif" font-size="10.00">TEST</text>
</a>
</g>
</g>
<!-- Node1&#45;&gt;Node5 -->
<g id="edge4" class="edge"><title>Node1&#45;&gt;Node5</title>
<path fill="none" stroke="midnightblue" d="M114.249,-48C139.117,-48 166.126,-48 183.948,-48"/>
<polygon fill="midnightblue" stroke="midnightblue" points="114.122,-44.5001 104.122,-48 114.122,-51.5001 114.122,-44.5001"/>
</g>
<!-- Node6 -->
<g id="node6" class="node"><title>Node6</title>
<g id="a_node6"><a xlink:href="namespacepdal.html#a5b2cbab4c33f3baa635b78d33dc0ae04" target="_top" xlink:title="pdal::TEST">
<polygon fill="white" stroke="black" points="172,-0.5 172,-19.5 238,-19.5 238,-0.5 172,-0.5"/>
<text text-anchor="middle" x="205" y="-7.5" font-family="Helvetica,sans-Serif" font-size="10.00">pdal::TEST</text>
</a>
</g>
</g>
<!-- Node1&#45;&gt;Node6 -->
<g id="edge5" class="edge"><title>Node1&#45;&gt;Node6</title>
<path fill="none" stroke="midnightblue" d="M114.015,-32.6452C133.822,-27.6606 155.011,-22.3283 171.85,-18.0908"/>
<polygon fill="midnightblue" stroke="midnightblue" points="112.965,-29.3002 104.122,-35.1349 114.674,-36.0886 112.965,-29.3002"/>
</g>
<!-- Node3 -->
<g id="node3" class="node"><title>Node3</title>
<g id="a_node3"><a xlink:href="classpdal_1_1plang_1_1Invocation.html#adfe14b064df9a0d4dcf2d1da8a7cb1d8" target="_top" xlink:title="pdal::plang::Invocation\l::begin">
<polygon fill="white" stroke="black" points="306,-71 306,-101 421,-101 421,-71 306,-71"/>
<text text-anchor="start" x="314" y="-89" font-family="Helvetica,sans-Serif" font-size="10.00">pdal::plang::Invocation</text>
<text text-anchor="middle" x="363.5" y="-78" font-family="Helvetica,sans-Serif" font-size="10.00">::begin</text>
</a>
</g>
</g>
<!-- Node2&#45;&gt;Node3 -->
<g id="edge2" class="edge"><title>Node2&#45;&gt;Node3</title>
<path fill="none" stroke="midnightblue" d="M280.158,-86C288.768,-86 297.444,-86 305.768,-86"/>
<polygon fill="midnightblue" stroke="midnightblue" points="280.106,-82.5001 270.106,-86 280.106,-89.5001 280.106,-82.5001"/>
</g>
<!-- Node4 -->
<g id="node4" class="node"><title>Node4</title>
<g id="a_node4"><a xlink:href="classpdal_1_1PythonFilter.html#a237d32f937771c1f5792170606a440be" target="_top" xlink:title="pdal::PythonFilter::run">
<polygon fill="white" stroke="black" points="457,-76.5 457,-95.5 570,-95.5 570,-76.5 457,-76.5"/>
<text text-anchor="middle" x="513.5" y="-83.5" font-family="Helvetica,sans-Serif" font-size="10.00">pdal::PythonFilter::run</text>
</a>
</g>
</g>
<!-- Node3&#45;&gt;Node4 -->
<g id="edge3" class="edge"><title>Node3&#45;&gt;Node4</title>
<path fill="none" stroke="midnightblue" d="M431.455,-86C439.856,-86 448.38,-86 456.587,-86"/>
<polygon fill="midnightblue" stroke="midnightblue" points="431.297,-82.5001 421.297,-86 431.297,-89.5001 431.297,-82.5001"/>
</g>
</g>
</svg>
