<?xml version="1.0" encoding="UTF-8" standalone="no"?>
<!DOCTYPE svg PUBLIC "-//W3C//DTD SVG 1.1//EN"
 "http://www.w3.org/Graphics/SVG/1.1/DTD/svg11.dtd">
<!-- Generated by graphviz version 2.38.0 (20140413.2041)
 -->
<!-- Title: pdal::mlang::Script::getMatlabDataType Pages: 1 -->
<svg width="397pt" height="78pt"
 viewBox="0.00 0.00 397.00 77.50" xmlns="http://www.w3.org/2000/svg" xmlns:xlink="http://www.w3.org/1999/xlink">
<g id="graph0" class="graph" transform="scale(1 1) rotate(0) translate(4 73.5)">
<title>pdal::mlang::Script::getMatlabDataType</title>
<polygon fill="white" stroke="none" points="-4,4 -4,-73.5 393,-73.5 393,4 -4,4"/>
<!-- Node1 -->
<g id="node1" class="node"><title>Node1</title>
<polygon fill="#bfbfbf" stroke="black" points="0,-22.5 0,-52.5 108,-52.5 108,-22.5 0,-22.5"/>
<text text-anchor="start" x="8" y="-40.5" font-family="Helvetica,sans-Serif" font-size="10.00">pdal::mlang::Script</text>
<text text-anchor="middle" x="54" y="-29.5" font-family="Helvetica,sans-Serif" font-size="10.00">::getMatlabDataType</text>
</g>
<!-- Node2 -->
<g id="node2" class="node"><title>Node2</title>
<g id="a_node2"><a xlink:href="classpdal_1_1mlang_1_1Script.html#afbb1ef33651f4742aad98f4acc51a572" target="_top" xlink:title="pdal::mlang::Script\l::setMatlabStruct">
<polygon fill="white" stroke="black" points="144,-22.5 144,-52.5 242,-52.5 242,-22.5 144,-22.5"/>
<text text-anchor="start" x="152" y="-40.5" font-family="Helvetica,sans-Serif" font-size="10.00">pdal::mlang::Script</text>
<text text-anchor="middle" x="193" y="-29.5" font-family="Helvetica,sans-Serif" font-size="10.00">::setMatlabStruct</text>
</a>
</g>
</g>
<!-- Node1&#45;&gt;Node2 -->
<g id="edge1" class="edge"><title>Node1&#45;&gt;Node2</title>
<path fill="none" stroke="midnightblue" d="M118.364,-37.5C126.957,-37.5 135.657,-37.5 143.922,-37.5"/>
<polygon fill="midnightblue" stroke="midnightblue" points="118.36,-34.0001 108.36,-37.5 118.36,-41.0001 118.36,-34.0001"/>
</g>
<!-- Node3 -->
<g id="node3" class="node"><title>Node3</title>
<g id="a_node3"><a xlink:href="classpdal_1_1MatlabFilter.html#a8936067bb62fb503d654703fb4dbb45a" target="_top" xlink:title="pdal::MatlabFilter::run">
<polygon fill="white" stroke="black" points="278,-50 278,-69 389,-69 389,-50 278,-50"/>
<text text-anchor="middle" x="333.5" y="-57" font-family="Helvetica,sans-Serif" font-size="10.00">pdal::MatlabFilter::run</text>
</a>
</g>
</g>
<!-- Node2&#45;&gt;Node3 -->
<g id="edge2" class="edge"><title>Node2&#45;&gt;Node3</title>
<path fill="none" stroke="midnightblue" d="M251.983,-46.7102C260.563,-48.0732 269.38,-49.4737 277.889,-50.8253"/>
<polygon fill="midnightblue" stroke="midnightblue" points="252.477,-43.245 242.052,-45.1328 251.379,-50.1583 252.477,-43.245"/>
</g>
<!-- Node4 -->
<g id="node4" class="node"><title>Node4</title>
<g id="a_node4"><a xlink:href="classpdal_1_1MatlabWriter.html#a96ed356ff0f2ae0276cbdbb050be13b6" target="_top" xlink:title="pdal::MatlabWriter\l::write">
<polygon fill="white" stroke="black" points="285.5,-0.5 285.5,-30.5 381.5,-30.5 381.5,-0.5 285.5,-0.5"/>
<text text-anchor="start" x="293.5" y="-18.5" font-family="Helvetica,sans-Serif" font-size="10.00">pdal::MatlabWriter</text>
<text text-anchor="middle" x="333.5" y="-7.5" font-family="Helvetica,sans-Serif" font-size="10.00">::write</text>
</a>
</g>
</g>
<!-- Node2&#45;&gt;Node4 -->
<g id="edge3" class="edge"><title>Node2&#45;&gt;Node4</title>
<path fill="none" stroke="midnightblue" d="M252.119,-28.2681C263.238,-26.5019 274.75,-24.6732 285.468,-22.9707"/>
<polygon fill="midnightblue" stroke="midnightblue" points="251.379,-24.8417 242.052,-29.8672 252.477,-31.755 251.379,-24.8417"/>
</g>
</g>
</svg>
