<?xml version="1.0" encoding="UTF-8" standalone="no"?>
<!DOCTYPE svg PUBLIC "-//W3C//DTD SVG 1.1//EN"
 "http://www.w3.org/Graphics/SVG/1.1/DTD/svg11.dtd">
<!-- Generated by graphviz version 2.38.0 (20140413.2041)
 -->
<!-- Title: pdal::LasWriter::addGeotiffVlrs Pages: 1 -->
<svg width="666pt" height="66pt"
 viewBox="0.00 0.00 666.00 66.00" xmlns="http://www.w3.org/2000/svg" xmlns:xlink="http://www.w3.org/1999/xlink">
<g id="graph0" class="graph" transform="scale(1 1) rotate(0) translate(4 62)">
<title>pdal::LasWriter::addGeotiffVlrs</title>
<polygon fill="white" stroke="none" points="-4,4 -4,-62 662,-62 662,4 -4,4"/>
<!-- Node1 -->
<g id="node1" class="node"><title>Node1</title>
<polygon fill="#bfbfbf" stroke="black" points="0,-19.5 0,-38.5 151,-38.5 151,-19.5 0,-19.5"/>
<text text-anchor="middle" x="75.5" y="-26.5" font-family="Helvetica,sans-Serif" font-size="10.00">pdal::LasWriter::addGeotiffVlrs</text>
</g>
<!-- Node2 -->
<g id="node2" class="node"><title>Node2</title>
<g id="a_node2"><a xlink:href="classpdal_1_1LasWriter.html#adc7f548939d9f79bed4a760c830b96ab" target="_top" xlink:title="pdal::LasWriter::addSpatial\lRefVlrs">
<polygon fill="white" stroke="black" points="187,-14 187,-44 321,-44 321,-14 187,-14"/>
<text text-anchor="start" x="195" y="-32" font-family="Helvetica,sans-Serif" font-size="10.00">pdal::LasWriter::addSpatial</text>
<text text-anchor="middle" x="254" y="-21" font-family="Helvetica,sans-Serif" font-size="10.00">RefVlrs</text>
</a>
</g>
</g>
<!-- Node1&#45;&gt;Node2 -->
<g id="edge1" class="edge"><title>Node1&#45;&gt;Node2</title>
<path fill="none" stroke="midnightblue" d="M161.159,-29C169.765,-29 178.417,-29 186.787,-29"/>
<polygon fill="midnightblue" stroke="midnightblue" points="161.096,-25.5001 151.096,-29 161.096,-32.5001 161.096,-25.5001"/>
</g>
<!-- Node3 -->
<g id="node3" class="node"><title>Node3</title>
<g id="a_node3"><a xlink:href="classpdal_1_1LasWriter.html#a76f6b960b128ccdb8e3e8db69eff445b" target="_top" xlink:title="pdal::LasWriter::prepOutput">
<polygon fill="white" stroke="black" points="357,-19.5 357,-38.5 494,-38.5 494,-19.5 357,-19.5"/>
<text text-anchor="middle" x="425.5" y="-26.5" font-family="Helvetica,sans-Serif" font-size="10.00">pdal::LasWriter::prepOutput</text>
</a>
</g>
</g>
<!-- Node2&#45;&gt;Node3 -->
<g id="edge2" class="edge"><title>Node2&#45;&gt;Node3</title>
<path fill="none" stroke="midnightblue" d="M331.078,-29C339.714,-29 348.471,-29 356.986,-29"/>
<polygon fill="midnightblue" stroke="midnightblue" points="331.019,-25.5001 321.018,-29 331.018,-32.5001 331.019,-25.5001"/>
</g>
<!-- Node4 -->
<g id="node4" class="node"><title>Node4</title>
<g id="a_node4"><a xlink:href="classpdal_1_1LasWriter.html#a4b0ad482eac655fb22cf29717c04c6b3" target="_top" xlink:title="pdal::LasWriter::readyFile">
<polygon fill="white" stroke="black" points="530,-38.5 530,-57.5 658,-57.5 658,-38.5 530,-38.5"/>
<text text-anchor="middle" x="594" y="-45.5" font-family="Helvetica,sans-Serif" font-size="10.00">pdal::LasWriter::readyFile</text>
</a>
</g>
</g>
<!-- Node3&#45;&gt;Node4 -->
<g id="edge3" class="edge"><title>Node3&#45;&gt;Node4</title>
<path fill="none" stroke="midnightblue" d="M504.254,-37.8728C512.848,-38.8536 521.522,-39.8433 529.905,-40.8"/>
<polygon fill="midnightblue" stroke="midnightblue" points="504.554,-34.3845 494.222,-36.728 503.761,-41.3393 504.554,-34.3845"/>
</g>
<!-- Node5 -->
<g id="node5" class="node"><title>Node5</title>
<g id="a_node5"><a xlink:href="classpdal_1_1NitfWriter.html#a34d932e82c5d6842ca515cc59281021e" target="_top" xlink:title="pdal::NitfWriter::readyFile">
<polygon fill="white" stroke="black" points="530,-0.5 530,-19.5 658,-19.5 658,-0.5 530,-0.5"/>
<text text-anchor="middle" x="594" y="-7.5" font-family="Helvetica,sans-Serif" font-size="10.00">pdal::NitfWriter::readyFile</text>
</a>
</g>
</g>
<!-- Node3&#45;&gt;Node5 -->
<g id="edge4" class="edge"><title>Node3&#45;&gt;Node5</title>
<path fill="none" stroke="midnightblue" d="M504.254,-20.1272C512.848,-19.1464 521.522,-18.1567 529.905,-17.2"/>
<polygon fill="midnightblue" stroke="midnightblue" points="503.761,-16.6607 494.222,-21.272 504.554,-23.6155 503.761,-16.6607"/>
</g>
</g>
</svg>
