<?xml version="1.0" encoding="UTF-8" standalone="no"?>
<!DOCTYPE svg PUBLIC "-//W3C//DTD SVG 1.1//EN"
 "http://www.w3.org/Graphics/SVG/1.1/DTD/svg11.dtd">
<!-- Generated by graphviz version 2.38.0 (20140413.2041)
 -->
<!-- Title: pdal::KD3Index::neighbors Pages: 1 -->
<svg width="782pt" height="361pt"
 viewBox="0.00 0.00 782.00 361.00" xmlns="http://www.w3.org/2000/svg" xmlns:xlink="http://www.w3.org/1999/xlink">
<g id="graph0" class="graph" transform="scale(1 1) rotate(0) translate(4 357)">
<title>pdal::KD3Index::neighbors</title>
<polygon fill="white" stroke="none" points="-4,4 -4,-357 778,-357 778,4 -4,4"/>
<!-- Node1 -->
<g id="node1" class="node"><title>Node1</title>
<polygon fill="#bfbfbf" stroke="black" points="0,-166.5 0,-185.5 132,-185.5 132,-166.5 0,-166.5"/>
<text text-anchor="middle" x="66" y="-173.5" font-family="Helvetica,sans-Serif" font-size="10.00">pdal::KD3Index::neighbors</text>
</g>
<!-- Node2 -->
<g id="node2" class="node"><title>Node2</title>
<g id="a_node2"><a xlink:href="classpdal_1_1InfoKernel.html#a560094127dc8acaf76ab8a3ed9656ce9" target="_top" xlink:title="pdal::InfoKernel::dumpQuery">
<polygon fill="white" stroke="black" points="168,-333.5 168,-352.5 309,-352.5 309,-333.5 168,-333.5"/>
<text text-anchor="middle" x="238.5" y="-340.5" font-family="Helvetica,sans-Serif" font-size="10.00">pdal::InfoKernel::dumpQuery</text>
</a>
</g>
</g>
<!-- Node1&#45;&gt;Node2 -->
<g id="edge1" class="edge"><title>Node1&#45;&gt;Node2</title>
<path fill="none" stroke="midnightblue" d="M74.762,-195.163C88.6187,-226.909 120.668,-290.251 168,-324 173.398,-327.849 179.54,-330.918 185.886,-333.366"/>
<polygon fill="midnightblue" stroke="midnightblue" points="77.879,-193.547 70.7644,-185.696 71.4304,-196.27 77.879,-193.547"/>
</g>
<!-- Node6 -->
<g id="node6" class="node"><title>Node6</title>
<g id="a_node6"><a xlink:href="classpdal_1_1EigenvaluesFilter.html#ace1cf82ccbdbeb69c62e0be58464e2ef" target="_top" xlink:title="pdal::EigenvaluesFilter\l::filter">
<polygon fill="white" stroke="black" points="180.5,-284 180.5,-314 296.5,-314 296.5,-284 180.5,-284"/>
<text text-anchor="start" x="188.5" y="-302" font-family="Helvetica,sans-Serif" font-size="10.00">pdal::EigenvaluesFilter</text>
<text text-anchor="middle" x="238.5" y="-291" font-family="Helvetica,sans-Serif" font-size="10.00">::filter</text>
</a>
</g>
</g>
<!-- Node1&#45;&gt;Node6 -->
<g id="edge5" class="edge"><title>Node1&#45;&gt;Node6</title>
<path fill="none" stroke="midnightblue" d="M80.5644,-193.413C98.4383,-215.286 131.868,-252.651 168,-275 173.428,-278.358 179.387,-281.319 185.462,-283.911"/>
<polygon fill="midnightblue" stroke="midnightblue" points="83.2832,-191.209 74.2989,-185.594 77.8203,-195.586 83.2832,-191.209"/>
</g>
<!-- Node7 -->
<g id="node7" class="node"><title>Node7</title>
<g id="a_node7"><a xlink:href="classpdal_1_1EstimateRankFilter.html#a6d3b3cd97dc8c5b575a210b5d77df162" target="_top" xlink:title="pdal::EstimateRankFilter\l::filter">
<polygon fill="white" stroke="black" points="176,-235 176,-265 301,-265 301,-235 176,-235"/>
<text text-anchor="start" x="184" y="-253" font-family="Helvetica,sans-Serif" font-size="10.00">pdal::EstimateRankFilter</text>
<text text-anchor="middle" x="238.5" y="-242" font-family="Helvetica,sans-Serif" font-size="10.00">::filter</text>
</a>
</g>
</g>
<!-- Node1&#45;&gt;Node7 -->
<g id="edge6" class="edge"><title>Node1&#45;&gt;Node7</title>
<path fill="none" stroke="midnightblue" d="M93.4471,-190.248C113.576,-200.808 142.132,-215.182 168,-226 175.419,-229.103 183.396,-232.132 191.207,-234.936"/>
<polygon fill="midnightblue" stroke="midnightblue" points="95.0379,-187.13 84.5619,-185.548 91.7645,-193.318 95.0379,-187.13"/>
</g>
<!-- Node8 -->
<g id="node8" class="node"><title>Node8</title>
<g id="a_node8"><a xlink:href="classpdal_1_1ApproximateCoplanarFilter.html#ae6d624215959d717deb5fecc9fe13764" target="_top" xlink:title="pdal::ApproximateCoplanar\lFilter::filter">
<polygon fill="white" stroke="black" points="171.5,-186 171.5,-216 305.5,-216 305.5,-186 171.5,-186"/>
<text text-anchor="start" x="179.5" y="-204" font-family="Helvetica,sans-Serif" font-size="10.00">pdal::ApproximateCoplanar</text>
<text text-anchor="middle" x="238.5" y="-193" font-family="Helvetica,sans-Serif" font-size="10.00">Filter::filter</text>
</a>
</g>
</g>
<!-- Node1&#45;&gt;Node8 -->
<g id="edge7" class="edge"><title>Node1&#45;&gt;Node8</title>
<path fill="none" stroke="midnightblue" d="M142.026,-187.001C151.784,-188.432 161.723,-189.889 171.322,-191.296"/>
<polygon fill="midnightblue" stroke="midnightblue" points="142.347,-183.511 131.945,-185.523 141.332,-190.437 142.347,-183.511"/>
</g>
<!-- Node9 -->
<g id="node9" class="node"><title>Node9</title>
<g id="a_node9"><a xlink:href="classpdal_1_1NormalFilter.html#a8bf36602629c8ff4ba8d7563b444aa2d" target="_top" xlink:title="pdal::NormalFilter\l::filter">
<polygon fill="white" stroke="black" points="191.5,-137 191.5,-167 285.5,-167 285.5,-137 191.5,-137"/>
<text text-anchor="start" x="199.5" y="-155" font-family="Helvetica,sans-Serif" font-size="10.00">pdal::NormalFilter</text>
<text text-anchor="middle" x="238.5" y="-144" font-family="Helvetica,sans-Serif" font-size="10.00">::filter</text>
</a>
</g>
</g>
<!-- Node1&#45;&gt;Node9 -->
<g id="edge8" class="edge"><title>Node1&#45;&gt;Node9</title>
<path fill="none" stroke="midnightblue" d="M142.661,-165.35C159.228,-163.018 176.283,-160.617 191.283,-158.506"/>
<polygon fill="midnightblue" stroke="midnightblue" points="141.847,-161.93 132.432,-166.79 142.822,-168.861 141.847,-161.93"/>
</g>
<!-- Node13 -->
<g id="node13" class="node"><title>Node13</title>
<g id="a_node13"><a xlink:href="classpdal_1_1VoxelCenterNearestNeighborFilter.html#af6c1313d2e10ba457add01089b0a9d99" target="_top" xlink:title="pdal::VoxelCenterNearest\lNeighborFilter::run">
<polygon fill="white" stroke="black" points="174,-88 174,-118 303,-118 303,-88 174,-88"/>
<text text-anchor="start" x="182" y="-106" font-family="Helvetica,sans-Serif" font-size="10.00">pdal::VoxelCenterNearest</text>
<text text-anchor="middle" x="238.5" y="-95" font-family="Helvetica,sans-Serif" font-size="10.00">NeighborFilter::run</text>
</a>
</g>
</g>
<!-- Node1&#45;&gt;Node13 -->
<g id="edge12" class="edge"><title>Node1&#45;&gt;Node13</title>
<path fill="none" stroke="midnightblue" d="M94.9295,-161.816C115.023,-151.837 142.894,-138.452 168,-128 176.168,-124.6 184.982,-121.216 193.501,-118.087"/>
<polygon fill="midnightblue" stroke="midnightblue" points="93.115,-158.81 85.7366,-166.414 96.2461,-165.071 93.115,-158.81"/>
</g>
<!-- Node14 -->
<g id="node14" class="node"><title>Node14</title>
<g id="a_node14"><a xlink:href="classpdal_1_1VoxelCentroidNearestNeighborFilter.html#a2ecd640ccb33081784cc859a76900b68" target="_top" xlink:title="pdal::VoxelCentroidNearest\lNeighborFilter::run">
<polygon fill="white" stroke="black" points="170,-39 170,-69 307,-69 307,-39 170,-39"/>
<text text-anchor="start" x="178" y="-57" font-family="Helvetica,sans-Serif" font-size="10.00">pdal::VoxelCentroidNearest</text>
<text text-anchor="middle" x="238.5" y="-46" font-family="Helvetica,sans-Serif" font-size="10.00">NeighborFilter::run</text>
</a>
</g>
</g>
<!-- Node1&#45;&gt;Node14 -->
<g id="edge13" class="edge"><title>Node1&#45;&gt;Node14</title>
<path fill="none" stroke="midnightblue" d="M81.2031,-158.414C99.3258,-136.995 132.593,-100.965 168,-79 174.102,-75.2146 180.86,-71.889 187.695,-69.0032"/>
<polygon fill="midnightblue" stroke="midnightblue" points="78.3019,-156.429 74.6088,-166.359 83.6885,-160.899 78.3019,-156.429"/>
</g>
<!-- Node15 -->
<g id="node15" class="node"><title>Node15</title>
<g id="a_node15"><a xlink:href="KDIndexTest_8cpp.html#ab661538c5035482b70fdc469c1c10592" target="_top" xlink:title="TEST">
<polygon fill="white" stroke="black" points="217.5,-0.5 217.5,-19.5 259.5,-19.5 259.5,-0.5 217.5,-0.5"/>
<text text-anchor="middle" x="238.5" y="-7.5" font-family="Helvetica,sans-Serif" font-size="10.00">TEST</text>
</a>
</g>
</g>
<!-- Node1&#45;&gt;Node15 -->
<g id="edge14" class="edge"><title>Node1&#45;&gt;Node15</title>
<path fill="none" stroke="midnightblue" d="M74.8829,-157.164C88.9171,-125.946 121.22,-63.6019 168,-30 182.582,-19.5254 202.559,-14.5123 217.354,-12.1276"/>
<polygon fill="midnightblue" stroke="midnightblue" points="71.6135,-155.905 70.8293,-166.471 78.0312,-158.7 71.6135,-155.905"/>
</g>
<!-- Node3 -->
<g id="node3" class="node"><title>Node3</title>
<g id="a_node3"><a xlink:href="classpdal_1_1InfoKernel.html#a402cba839f0a07e7d1b5982869ae71c5" target="_top" xlink:title="pdal::InfoKernel::dump">
<polygon fill="white" stroke="black" points="345,-333.5 345,-352.5 460,-352.5 460,-333.5 345,-333.5"/>
<text text-anchor="middle" x="402.5" y="-340.5" font-family="Helvetica,sans-Serif" font-size="10.00">pdal::InfoKernel::dump</text>
</a>
</g>
</g>
<!-- Node2&#45;&gt;Node3 -->
<g id="edge2" class="edge"><title>Node2&#45;&gt;Node3</title>
<path fill="none" stroke="midnightblue" d="M319.183,-343C327.764,-343 336.364,-343 344.598,-343"/>
<polygon fill="midnightblue" stroke="midnightblue" points="319.143,-339.5 309.143,-343 319.143,-346.5 319.143,-339.5"/>
</g>
<!-- Node4 -->
<g id="node4" class="node"><title>Node4</title>
<g id="a_node4"><a xlink:href="classpdal_1_1InfoKernel.html#a507a4fa6aa98127ddc55bb730bcf6a2f" target="_top" xlink:title="pdal::InfoKernel::run">
<polygon fill="white" stroke="black" points="502.5,-333.5 502.5,-352.5 606.5,-352.5 606.5,-333.5 502.5,-333.5"/>
<text text-anchor="middle" x="554.5" y="-340.5" font-family="Helvetica,sans-Serif" font-size="10.00">pdal::InfoKernel::run</text>
</a>
</g>
</g>
<!-- Node3&#45;&gt;Node4 -->
<g id="edge3" class="edge"><title>Node3&#45;&gt;Node4</title>
<path fill="none" stroke="midnightblue" d="M470.34,-343C481.009,-343 491.9,-343 502.138,-343"/>
<polygon fill="midnightblue" stroke="midnightblue" points="470.209,-339.5 460.209,-343 470.209,-346.5 470.209,-339.5"/>
</g>
<!-- Node5 -->
<g id="node5" class="node"><title>Node5</title>
<g id="a_node5"><a xlink:href="classpdal_1_1InfoKernel.html#ac8d3f256fa5d844710b25034f4e22eaa" target="_top" xlink:title="pdal::InfoKernel::execute">
<polygon fill="white" stroke="black" points="649,-333.5 649,-352.5 774,-352.5 774,-333.5 649,-333.5"/>
<text text-anchor="middle" x="711.5" y="-340.5" font-family="Helvetica,sans-Serif" font-size="10.00">pdal::InfoKernel::execute</text>
</a>
</g>
</g>
<!-- Node4&#45;&gt;Node5 -->
<g id="edge4" class="edge"><title>Node4&#45;&gt;Node5</title>
<path fill="none" stroke="midnightblue" d="M616.997,-343C627.478,-343 638.368,-343 648.853,-343"/>
<polygon fill="midnightblue" stroke="midnightblue" points="616.682,-339.5 606.682,-343 616.682,-346.5 616.682,-339.5"/>
</g>
<!-- Node10 -->
<g id="node10" class="node"><title>Node10</title>
<g id="a_node10"><a xlink:href="classpdal_1_1NormalFilter.html#a185fb796093e0397afbd0b7c6a1813a8" target="_top" xlink:title="pdal::NormalFilter\l::doFilter">
<polygon fill="white" stroke="black" points="355.5,-137 355.5,-167 449.5,-167 449.5,-137 355.5,-137"/>
<text text-anchor="start" x="363.5" y="-155" font-family="Helvetica,sans-Serif" font-size="10.00">pdal::NormalFilter</text>
<text text-anchor="middle" x="402.5" y="-144" font-family="Helvetica,sans-Serif" font-size="10.00">::doFilter</text>
</a>
</g>
</g>
<!-- Node9&#45;&gt;Node10 -->
<g id="edge9" class="edge"><title>Node9&#45;&gt;Node10</title>
<path fill="none" stroke="midnightblue" d="M296.136,-152C315.501,-152 336.914,-152 355.351,-152"/>
<polygon fill="midnightblue" stroke="midnightblue" points="295.923,-148.5 285.923,-152 295.923,-155.5 295.923,-148.5"/>
</g>
<!-- Node11 -->
<g id="node11" class="node"><title>Node11</title>
<g id="a_node11"><a xlink:href="classpdal_1_1GreedyProjection.html#aa0de48c450a56b726634e29d28fd5427" target="_top" xlink:title="pdal::GreedyProjection\l::filter">
<polygon fill="white" stroke="black" points="496.5,-159 496.5,-189 612.5,-189 612.5,-159 496.5,-159"/>
<text text-anchor="start" x="504.5" y="-177" font-family="Helvetica,sans-Serif" font-size="10.00">pdal::GreedyProjection</text>
<text text-anchor="middle" x="554.5" y="-166" font-family="Helvetica,sans-Serif" font-size="10.00">::filter</text>
</a>
</g>
</g>
<!-- Node10&#45;&gt;Node11 -->
<g id="edge10" class="edge"><title>Node10&#45;&gt;Node11</title>
<path fill="none" stroke="midnightblue" d="M459.97,-160.282C471.854,-162.025 484.4,-163.865 496.311,-165.612"/>
<polygon fill="midnightblue" stroke="midnightblue" points="460.131,-156.769 449.729,-158.78 459.115,-163.694 460.131,-156.769"/>
</g>
<!-- Node12 -->
<g id="node12" class="node"><title>Node12</title>
<g id="a_node12"><a xlink:href="classpdal_1_1PoissonFilter.html#a5b238b48de8b895610512e2683cb5fe7" target="_top" xlink:title="pdal::PoissonFilter::run">
<polygon fill="white" stroke="black" points="496,-120.5 496,-139.5 613,-139.5 613,-120.5 496,-120.5"/>
<text text-anchor="middle" x="554.5" y="-127.5" font-family="Helvetica,sans-Serif" font-size="10.00">pdal::PoissonFilter::run</text>
</a>
</g>
</g>
<!-- Node10&#45;&gt;Node12 -->
<g id="edge11" class="edge"><title>Node10&#45;&gt;Node12</title>
<path fill="none" stroke="midnightblue" d="M459.847,-143.736C471.588,-142.014 483.98,-140.196 495.77,-138.467"/>
<polygon fill="midnightblue" stroke="midnightblue" points="459.115,-140.306 449.729,-145.22 460.131,-147.231 459.115,-140.306"/>
</g>
</g>
</svg>
