<?xml version="1.0" encoding="UTF-8" standalone="no"?>
<!DOCTYPE svg PUBLIC "-//W3C//DTD SVG 1.1//EN"
 "http://www.w3.org/Graphics/SVG/1.1/DTD/svg11.dtd">
<!-- Generated by graphviz version 2.38.0 (20140413.2041)
 -->
<!-- Title: pdal::Polygon::simplify Pages: 1 -->
<svg width="439pt" height="47pt"
 viewBox="0.00 0.00 439.00 47.00" xmlns="http://www.w3.org/2000/svg" xmlns:xlink="http://www.w3.org/1999/xlink">
<g id="graph0" class="graph" transform="scale(1 1) rotate(0) translate(4 43)">
<title>pdal::Polygon::simplify</title>
<polygon fill="white" stroke="none" points="-4,4 -4,-43 435,-43 435,4 -4,4"/>
<!-- Node1 -->
<g id="node1" class="node"><title>Node1</title>
<polygon fill="#bfbfbf" stroke="black" points="0,-0.5 0,-19.5 116,-19.5 116,-0.5 0,-0.5"/>
<text text-anchor="middle" x="58" y="-7.5" font-family="Helvetica,sans-Serif" font-size="10.00">pdal::Polygon::simplify</text>
</g>
<!-- Node2 -->
<g id="node2" class="node"><title>Node2</title>
<g id="a_node2"><a xlink:href="classpdal_1_1Polygon.html#a6c007fc5a5c5c6419fc794fec5b38f86" target="_top" xlink:title="pdal::Polygon::area">
<polygon fill="white" stroke="black" points="152,-19.5 152,-38.5 253,-38.5 253,-19.5 152,-19.5"/>
<text text-anchor="middle" x="202.5" y="-26.5" font-family="Helvetica,sans-Serif" font-size="10.00">pdal::Polygon::area</text>
</a>
</g>
</g>
<!-- Node1&#45;&gt;Node2 -->
<g id="edge1" class="edge"><title>Node1&#45;&gt;Node2</title>
<path fill="none" stroke="midnightblue" d="M116.139,-17.6185C124.506,-18.7342 133.144,-19.8859 141.566,-21.0088"/>
<polygon fill="midnightblue" stroke="midnightblue" points="141.323,-24.5073 151.698,-22.3597 142.248,-17.5687 141.323,-24.5073"/>
</g>
<!-- Node3 -->
<g id="node3" class="node"><title>Node3</title>
<g id="a_node3"><a xlink:href="classpdal_1_1geos_1_1ErrorHandler.html#a54bdaa70ba8baee1c8ad8f9f47572c8d" target="_top" xlink:title="pdal::geos::ErrorHandler::ctx">
<polygon fill="white" stroke="black" points="289,-0.5 289,-19.5 431,-19.5 431,-0.5 289,-0.5"/>
<text text-anchor="middle" x="360" y="-7.5" font-family="Helvetica,sans-Serif" font-size="10.00">pdal::geos::ErrorHandler::ctx</text>
</a>
</g>
</g>
<!-- Node1&#45;&gt;Node3 -->
<g id="edge3" class="edge"><title>Node1&#45;&gt;Node3</title>
<path fill="none" stroke="midnightblue" d="M116.134,-10C162.194,-10 227.516,-10 278.815,-10"/>
<polygon fill="midnightblue" stroke="midnightblue" points="278.878,-13.5001 288.878,-10 278.878,-6.5001 278.878,-13.5001"/>
</g>
<!-- Node2&#45;&gt;Node3 -->
<g id="edge2" class="edge"><title>Node2&#45;&gt;Node3</title>
<path fill="none" stroke="midnightblue" d="M253.129,-22.936C261.306,-21.9369 269.963,-20.8791 278.663,-19.8161"/>
<polygon fill="midnightblue" stroke="midnightblue" points="279.368,-23.2561 288.87,-18.569 278.519,-16.3077 279.368,-23.2561"/>
</g>
</g>
</svg>
