<?xml version="1.0" encoding="UTF-8" standalone="no"?>
<!DOCTYPE svg PUBLIC "-//W3C//DTD SVG 1.1//EN"
 "http://www.w3.org/Graphics/SVG/1.1/DTD/svg11.dtd">
<!-- Generated by graphviz version 2.38.0 (20140413.2041)
 -->
<!-- Title: pdal::OverlayFilter::addArgs Pages: 1 -->
<svg width="435pt" height="85pt"
 viewBox="0.00 0.00 435.00 85.00" xmlns="http://www.w3.org/2000/svg" xmlns:xlink="http://www.w3.org/1999/xlink">
<g id="graph0" class="graph" transform="scale(1 1) rotate(0) translate(4 81)">
<title>pdal::OverlayFilter::addArgs</title>
<polygon fill="white" stroke="none" points="-4,4 -4,-81 431,-81 431,4 -4,4"/>
<!-- Node1 -->
<g id="node1" class="node"><title>Node1</title>
<polygon fill="#bfbfbf" stroke="black" points="0,-14 0,-44 96,-44 96,-14 0,-14"/>
<text text-anchor="start" x="8" y="-32" font-family="Helvetica,sans-Serif" font-size="10.00">pdal::OverlayFilter</text>
<text text-anchor="middle" x="48" y="-21" font-family="Helvetica,sans-Serif" font-size="10.00">::addArgs</text>
</g>
<!-- Node2 -->
<g id="node2" class="node"><title>Node2</title>
<g id="a_node2"><a xlink:href="classpdal_1_1ProgramArgs.html#a9f773618ed928e9cef78aa1bf8278784" target="_top" xlink:title="pdal::ProgramArgs::add">
<polygon fill="white" stroke="black" points="132,-38.5 132,-57.5 251,-57.5 251,-38.5 132,-38.5"/>
<text text-anchor="middle" x="191.5" y="-45.5" font-family="Helvetica,sans-Serif" font-size="10.00">pdal::ProgramArgs::add</text>
</a>
</g>
</g>
<!-- Node1&#45;&gt;Node2 -->
<g id="edge1" class="edge"><title>Node1&#45;&gt;Node2</title>
<path fill="none" stroke="midnightblue" d="M96.1175,-35.3267C104.323,-36.4285 113.007,-37.5946 121.654,-38.7556"/>
<polygon fill="midnightblue" stroke="midnightblue" points="121.379,-42.25 131.756,-40.1121 122.31,-35.3123 121.379,-42.25"/>
</g>
<!-- Node5 -->
<g id="node5" class="node"><title>Node5</title>
<g id="a_node5"><a xlink:href="classpdal_1_1Arg.html#acd96700a01950da368119d2a06f441ae" target="_top" xlink:title="pdal::Arg::setPositional">
<polygon fill="white" stroke="black" points="132.5,-0.5 132.5,-19.5 250.5,-19.5 250.5,-0.5 132.5,-0.5"/>
<text text-anchor="middle" x="191.5" y="-7.5" font-family="Helvetica,sans-Serif" font-size="10.00">pdal::Arg::setPositional</text>
</a>
</g>
</g>
<!-- Node1&#45;&gt;Node5 -->
<g id="edge4" class="edge"><title>Node1&#45;&gt;Node5</title>
<path fill="none" stroke="midnightblue" d="M96.1175,-22.6733C104.529,-21.5438 113.444,-20.3468 122.305,-19.1569"/>
<polygon fill="midnightblue" stroke="midnightblue" points="122.812,-22.6203 132.257,-17.8206 121.88,-15.6826 122.812,-22.6203"/>
</g>
<!-- Node3 -->
<g id="node3" class="node"><title>Node3</title>
<g id="a_node3"><a xlink:href="namespacepdal_1_1Dimension.html#af3176b0b7e6b4be000317846cf7c2718" target="_top" xlink:title="pdal::Dimension::name">
<polygon fill="white" stroke="black" points="298.5,-57.5 298.5,-76.5 415.5,-76.5 415.5,-57.5 298.5,-57.5"/>
<text text-anchor="middle" x="357" y="-64.5" font-family="Helvetica,sans-Serif" font-size="10.00">pdal::Dimension::name</text>
</a>
</g>
</g>
<!-- Node2&#45;&gt;Node3 -->
<g id="edge2" class="edge"><title>Node2&#45;&gt;Node3</title>
<path fill="none" stroke="midnightblue" d="M251.065,-54.8058C263.092,-56.2033 275.848,-57.6857 288.17,-59.1176"/>
<polygon fill="midnightblue" stroke="midnightblue" points="288.055,-62.6277 298.392,-60.3055 288.863,-55.6745 288.055,-62.6277"/>
</g>
<!-- Node4 -->
<g id="node4" class="node"><title>Node4</title>
<g id="a_node4"><a xlink:href="namespacepdal_1_1Dimension.html#a4041a0eeee0ca503caad91db24affa0e" target="_top" xlink:title="pdal::Dimension::description">
<polygon fill="white" stroke="black" points="287,-19.5 287,-38.5 427,-38.5 427,-19.5 287,-19.5"/>
<text text-anchor="middle" x="357" y="-26.5" font-family="Helvetica,sans-Serif" font-size="10.00">pdal::Dimension::description</text>
</a>
</g>
</g>
<!-- Node2&#45;&gt;Node4 -->
<g id="edge3" class="edge"><title>Node2&#45;&gt;Node4</title>
<path fill="none" stroke="midnightblue" d="M251.065,-41.1942C259.43,-40.2223 268.147,-39.2093 276.825,-38.2008"/>
<polygon fill="midnightblue" stroke="midnightblue" points="277.442,-41.6527 286.971,-37.0217 276.634,-34.6995 277.442,-41.6527"/>
</g>
</g>
</svg>
