<?xml version="1.0" encoding="UTF-8" standalone="no"?>
<!DOCTYPE svg PUBLIC "-//W3C//DTD SVG 1.1//EN"
 "http://www.w3.org/Graphics/SVG/1.1/DTD/svg11.dtd">
<!-- Generated by graphviz version 2.38.0 (20140413.2041)
 -->
<!-- Title: pdal::SmoothKernel::execute Pages: 1 -->
<svg width="991pt" height="869pt"
 viewBox="0.00 0.00 991.00 868.50" xmlns="http://www.w3.org/2000/svg" xmlns:xlink="http://www.w3.org/1999/xlink">
<g id="graph0" class="graph" transform="scale(1 1) rotate(0) translate(4 864.5)">
<title>pdal::SmoothKernel::execute</title>
<polygon fill="white" stroke="none" points="-4,4 -4,-864.5 987,-864.5 987,4 -4,4"/>
<!-- Node1 -->
<g id="node1" class="node"><title>Node1</title>
<polygon fill="#bfbfbf" stroke="black" points="0,-477 0,-507 102,-507 102,-477 0,-477"/>
<text text-anchor="start" x="8" y="-495" font-family="Helvetica,sans-Serif" font-size="10.00">pdal::SmoothKernel</text>
<text text-anchor="middle" x="51" y="-484" font-family="Helvetica,sans-Serif" font-size="10.00">::execute</text>
</g>
<!-- Node2 -->
<g id="node2" class="node"><title>Node2</title>
<g id="a_node2"><a xlink:href="classpdal_1_1BufferReader.html#a24ef4b5709565c53838d2184bcb51f2f" target="_top" xlink:title="pdal::BufferReader\l::addView">
<polygon fill="white" stroke="black" points="154,-704 154,-734 252,-734 252,-704 154,-704"/>
<text text-anchor="start" x="162" y="-722" font-family="Helvetica,sans-Serif" font-size="10.00">pdal::BufferReader</text>
<text text-anchor="middle" x="203" y="-711" font-family="Helvetica,sans-Serif" font-size="10.00">::addView</text>
</a>
</g>
</g>
<!-- Node1&#45;&gt;Node2 -->
<g id="edge1" class="edge"><title>Node1&#45;&gt;Node2</title>
<path fill="none" stroke="midnightblue" d="M54.2276,-507.035C60.4938,-544.139 81.6421,-640.958 138,-695 140.168,-697.079 142.533,-698.981 145.035,-700.722"/>
<polygon fill="midnightblue" stroke="midnightblue" points="143.596,-703.938 153.981,-706.037 147.172,-697.92 143.596,-703.938"/>
</g>
<!-- Node3 -->
<g id="node3" class="node"><title>Node3</title>
<g id="a_node3"><a xlink:href="classpdal_1_1PipelineManager.html#a14f9cd803fa196fece034ccc9838ce24" target="_top" xlink:title="pdal::PipelineManager\l::commonOptions">
<polygon fill="white" stroke="black" points="146.5,-655 146.5,-685 259.5,-685 259.5,-655 146.5,-655"/>
<text text-anchor="start" x="154.5" y="-673" font-family="Helvetica,sans-Serif" font-size="10.00">pdal::PipelineManager</text>
<text text-anchor="middle" x="203" y="-662" font-family="Helvetica,sans-Serif" font-size="10.00">::commonOptions</text>
</a>
</g>
</g>
<!-- Node1&#45;&gt;Node3 -->
<g id="edge2" class="edge"><title>Node1&#45;&gt;Node3</title>
<path fill="none" stroke="midnightblue" d="M56.6831,-507.281C66.7301,-537.65 93.1551,-606.019 138,-645 139.93,-646.678 141.986,-648.25 144.132,-649.722"/>
<polygon fill="midnightblue" stroke="midnightblue" points="142.414,-652.773 152.79,-654.919 146.017,-646.771 142.414,-652.773"/>
</g>
<!-- Node4 -->
<g id="node4" class="node"><title>Node4</title>
<g id="a_node4"><a xlink:href="classpdal_1_1Stage.html#a1615c4aa5ec5e48f90d73f0e7a796935" target="_top" xlink:title="pdal::Stage::execute">
<polygon fill="white" stroke="black" points="149.5,-598.5 149.5,-617.5 256.5,-617.5 256.5,-598.5 149.5,-598.5"/>
<text text-anchor="middle" x="203" y="-605.5" font-family="Helvetica,sans-Serif" font-size="10.00">pdal::Stage::execute</text>
</a>
</g>
</g>
<!-- Node1&#45;&gt;Node4 -->
<g id="edge3" class="edge"><title>Node1&#45;&gt;Node4</title>
<path fill="none" stroke="midnightblue" d="M71.0183,-507.265C88.3724,-521.14 114.777,-542.115 138,-560 151.99,-570.775 167.87,-582.686 180.312,-591.948"/>
<polygon fill="midnightblue" stroke="midnightblue" points="178.573,-595.016 188.688,-598.17 182.747,-589.397 178.573,-595.016"/>
</g>
<!-- Node21 -->
<g id="node21" class="node"><title>Node21</title>
<g id="a_node21"><a xlink:href="classpdal_1_1PipelineManager.html#a8626f2e57d8d35b4e5379f36a842ccbf" target="_top" xlink:title="pdal::PipelineManager\l::makeFilter">
<polygon fill="white" stroke="black" points="146.5,-521 146.5,-551 259.5,-551 259.5,-521 146.5,-521"/>
<text text-anchor="start" x="154.5" y="-539" font-family="Helvetica,sans-Serif" font-size="10.00">pdal::PipelineManager</text>
<text text-anchor="middle" x="203" y="-528" font-family="Helvetica,sans-Serif" font-size="10.00">::makeFilter</text>
</a>
</g>
</g>
<!-- Node1&#45;&gt;Node21 -->
<g id="edge21" class="edge"><title>Node1&#45;&gt;Node21</title>
<path fill="none" stroke="midnightblue" d="M102.365,-506.774C114.777,-510.414 128.201,-514.352 141.054,-518.122"/>
<polygon fill="midnightblue" stroke="midnightblue" points="140.164,-521.509 150.745,-520.965 142.134,-514.792 140.164,-521.509"/>
</g>
<!-- Node22 -->
<g id="node22" class="node"><title>Node22</title>
<g id="a_node22"><a xlink:href="classpdal_1_1Kernel.html#a96467a73a6f109cf7c04275a4bd76aa8" target="_top" xlink:title="pdal::Kernel::makeReader">
<polygon fill="white" stroke="black" points="138,-444.5 138,-463.5 268,-463.5 268,-444.5 138,-444.5"/>
<text text-anchor="middle" x="203" y="-451.5" font-family="Helvetica,sans-Serif" font-size="10.00">pdal::Kernel::makeReader</text>
</a>
</g>
</g>
<!-- Node1&#45;&gt;Node22 -->
<g id="edge22" class="edge"><title>Node1&#45;&gt;Node22</title>
<path fill="none" stroke="midnightblue" d="M102.365,-479.241C119.14,-474.991 137.764,-470.273 154.328,-466.077"/>
<polygon fill="midnightblue" stroke="midnightblue" points="155.507,-469.389 164.341,-463.54 153.787,-462.603 155.507,-469.389"/>
</g>
<!-- Node23 -->
<g id="node23" class="node"><title>Node23</title>
<g id="a_node23"><a xlink:href="classpdal_1_1PipelineManager.html#a1ed693ba560749af6f5a20e73474b09b" target="_top" xlink:title="pdal::PipelineManager\l::makeReader">
<polygon fill="white" stroke="black" points="328,-442 328,-472 441,-472 441,-442 328,-442"/>
<text text-anchor="start" x="336" y="-460" font-family="Helvetica,sans-Serif" font-size="10.00">pdal::PipelineManager</text>
<text text-anchor="middle" x="384.5" y="-449" font-family="Helvetica,sans-Serif" font-size="10.00">::makeReader</text>
</a>
</g>
</g>
<!-- Node1&#45;&gt;Node23 -->
<g id="edge24" class="edge"><title>Node1&#45;&gt;Node23</title>
<path fill="none" stroke="midnightblue" d="M102.263,-488.293C146.086,-484.89 211.33,-479.414 268,-473 284.158,-471.171 301.548,-468.915 317.806,-466.679"/>
<polygon fill="midnightblue" stroke="midnightblue" points="318.339,-470.139 327.761,-465.294 317.374,-463.206 318.339,-470.139"/>
</g>
<!-- Node24 -->
<g id="node24" class="node"><title>Node24</title>
<g id="a_node24"><a xlink:href="classpdal_1_1Kernel.html#a5095d9efbd0f2b755e851179b8a0f658" target="_top" xlink:title="pdal::Kernel::makeWriter">
<polygon fill="white" stroke="black" points="140.5,-403.5 140.5,-422.5 265.5,-422.5 265.5,-403.5 140.5,-403.5"/>
<text text-anchor="middle" x="203" y="-410.5" font-family="Helvetica,sans-Serif" font-size="10.00">pdal::Kernel::makeWriter</text>
</a>
</g>
</g>
<!-- Node1&#45;&gt;Node24 -->
<g id="edge25" class="edge"><title>Node1&#45;&gt;Node24</title>
<path fill="none" stroke="midnightblue" d="M71.6292,-476.888C88.519,-464.412 113.903,-446.885 138,-435 144.737,-431.677 152.101,-428.642 159.359,-425.957"/>
<polygon fill="midnightblue" stroke="midnightblue" points="160.851,-429.143 169.121,-422.521 158.526,-422.54 160.851,-429.143"/>
</g>
<!-- Node26 -->
<g id="node26" class="node"><title>Node26</title>
<g id="a_node26"><a xlink:href="classpdal_1_1Stage.html#a4b9296a59f8852b3d08630f1086bfbea" target="_top" xlink:title="pdal::Stage::prepare">
<polygon fill="white" stroke="black" points="151,-297.5 151,-316.5 255,-316.5 255,-297.5 151,-297.5"/>
<text text-anchor="middle" x="203" y="-304.5" font-family="Helvetica,sans-Serif" font-size="10.00">pdal::Stage::prepare</text>
</a>
</g>
</g>
<!-- Node1&#45;&gt;Node26 -->
<g id="edge27" class="edge"><title>Node1&#45;&gt;Node26</title>
<path fill="none" stroke="midnightblue" d="M64.2751,-476.861C91.7535,-442.971 158.107,-361.135 187.532,-324.844"/>
<polygon fill="midnightblue" stroke="midnightblue" points="190.592,-326.628 194.171,-316.656 185.154,-322.219 190.592,-326.628"/>
</g>
<!-- Node50 -->
<g id="node50" class="node"><title>Node50</title>
<g id="a_node50"><a xlink:href="classpdal_1_1PipelineManager.html#ace2121baba26bb17c43438584e7d2db2" target="_top" xlink:title="pdal::PipelineManager\l::stageOptions">
<polygon fill="white" stroke="black" points="146.5,-248 146.5,-278 259.5,-278 259.5,-248 146.5,-248"/>
<text text-anchor="start" x="154.5" y="-266" font-family="Helvetica,sans-Serif" font-size="10.00">pdal::PipelineManager</text>
<text text-anchor="middle" x="203" y="-255" font-family="Helvetica,sans-Serif" font-size="10.00">::stageOptions</text>
</a>
</g>
</g>
<!-- Node1&#45;&gt;Node50 -->
<g id="edge61" class="edge"><title>Node1&#45;&gt;Node50</title>
<path fill="none" stroke="midnightblue" d="M54.2503,-476.939C60.5684,-439.764 81.8259,-342.701 138,-288 139.474,-286.564 141.04,-285.209 142.679,-283.929"/>
<polygon fill="midnightblue" stroke="midnightblue" points="145,-286.589 151.393,-278.14 141.126,-280.759 145,-286.589"/>
</g>
<!-- Node4&#45;&gt;Node4 -->
<g id="edge7" class="edge"><title>Node4&#45;&gt;Node4</title>
<path fill="none" stroke="midnightblue" d="M179.572,-617.757C168.175,-626.565 175.984,-636 203,-636 220.729,-636 230.186,-631.937 231.372,-626.654"/>
<polygon fill="midnightblue" stroke="midnightblue" points="234.345,-624.797 226.428,-617.757 228.226,-628.198 234.345,-624.797"/>
</g>
<!-- Node5 -->
<g id="node5" class="node"><title>Node5</title>
<g id="a_node5"><a xlink:href="classpdal_1_1BasePointTable.html#a670592aca912391f1a90073a2031e5e0" target="_top" xlink:title="pdal::BasePointTable\l::addSpatialReference">
<polygon fill="white" stroke="black" points="328,-666 328,-696 441,-696 441,-666 328,-666"/>
<text text-anchor="start" x="336" y="-684" font-family="Helvetica,sans-Serif" font-size="10.00">pdal::BasePointTable</text>
<text text-anchor="middle" x="384.5" y="-673" font-family="Helvetica,sans-Serif" font-size="10.00">::addSpatialReference</text>
</a>
</g>
</g>
<!-- Node4&#45;&gt;Node5 -->
<g id="edge4" class="edge"><title>Node4&#45;&gt;Node5</title>
<path fill="none" stroke="midnightblue" d="M221.313,-617.558C240.95,-628.144 274.13,-645.263 304,-657 309.032,-658.977 314.296,-660.89 319.615,-662.715"/>
<polygon fill="midnightblue" stroke="midnightblue" points="318.619,-666.072 329.212,-665.9 320.824,-659.429 318.619,-666.072"/>
</g>
<!-- Node6 -->
<g id="node6" class="node"><title>Node6</title>
<g id="a_node6"><a xlink:href="classpdal_1_1BasePointTable.html#aa3ed63a9e1a8897ccb7dc81a614f6141" target="_top" xlink:title="pdal::BasePointTable\l::clearSpatialReferences">
<polygon fill="white" stroke="black" points="322.5,-617 322.5,-647 446.5,-647 446.5,-617 322.5,-617"/>
<text text-anchor="start" x="330.5" y="-635" font-family="Helvetica,sans-Serif" font-size="10.00">pdal::BasePointTable</text>
<text text-anchor="middle" x="384.5" y="-624" font-family="Helvetica,sans-Serif" font-size="10.00">::clearSpatialReferences</text>
</a>
</g>
</g>
<!-- Node4&#45;&gt;Node6 -->
<g id="edge5" class="edge"><title>Node4&#45;&gt;Node6</title>
<path fill="none" stroke="midnightblue" d="M256.885,-615.071C274.249,-617.393 293.841,-620.012 312.333,-622.485"/>
<polygon fill="midnightblue" stroke="midnightblue" points="312.096,-625.984 322.471,-623.84 313.023,-619.046 312.096,-625.984"/>
</g>
<!-- Node7 -->
<g id="node7" class="node"><title>Node7</title>
<g id="a_node7"><a xlink:href="classpdal_1_1SpatialReference.html#a48fa2f7e79ea172b62ad2e874ff01610" target="_top" xlink:title="pdal::SpatialReference\l::empty">
<polygon fill="white" stroke="black" points="326.5,-568 326.5,-598 442.5,-598 442.5,-568 326.5,-568"/>
<text text-anchor="start" x="334.5" y="-586" font-family="Helvetica,sans-Serif" font-size="10.00">pdal::SpatialReference</text>
<text text-anchor="middle" x="384.5" y="-575" font-family="Helvetica,sans-Serif" font-size="10.00">::empty</text>
</a>
</g>
</g>
<!-- Node4&#45;&gt;Node7 -->
<g id="edge6" class="edge"><title>Node4&#45;&gt;Node7</title>
<path fill="none" stroke="midnightblue" d="M256.885,-600.634C275.466,-598.046 296.6,-595.103 316.205,-592.373"/>
<polygon fill="midnightblue" stroke="midnightblue" points="316.875,-595.813 326.296,-590.967 315.909,-588.88 316.875,-595.813"/>
</g>
<!-- Node8 -->
<g id="node8" class="node"><title>Node8</title>
<g id="a_node8"><a xlink:href="classpdal_1_1BasePointTable.html#a2554cd260c437c9b1e4a017a28a5c7de" target="_top" xlink:title="pdal::BasePointTable\l::finalize">
<polygon fill="white" stroke="black" points="329.5,-830 329.5,-860 439.5,-860 439.5,-830 329.5,-830"/>
<text text-anchor="start" x="337.5" y="-848" font-family="Helvetica,sans-Serif" font-size="10.00">pdal::BasePointTable</text>
<text text-anchor="middle" x="384.5" y="-837" font-family="Helvetica,sans-Serif" font-size="10.00">::finalize</text>
</a>
</g>
</g>
<!-- Node4&#45;&gt;Node8 -->
<g id="edge8" class="edge"><title>Node4&#45;&gt;Node8</title>
<path fill="none" stroke="midnightblue" d="M230.401,-617.634C243.636,-623.782 258.771,-633.059 268,-646 313.853,-710.296 251.039,-761.42 304,-820 308.563,-825.048 314.133,-829.084 320.186,-832.311"/>
<polygon fill="midnightblue" stroke="midnightblue" points="318.787,-835.52 329.338,-836.483 321.691,-829.151 318.787,-835.52"/>
</g>
<!-- Node9 -->
<g id="node9" class="node"><title>Node9</title>
<g id="a_node9"><a xlink:href="classpdal_1_1Stage.html#a9889b4446f40daa6f4cd7bfe3c567839" target="_top" xlink:title="pdal::Stage::getSpatialReference">
<polygon fill="white" stroke="black" points="304,-753.5 304,-772.5 465,-772.5 465,-753.5 304,-753.5"/>
<text text-anchor="middle" x="384.5" y="-760.5" font-family="Helvetica,sans-Serif" font-size="10.00">pdal::Stage::getSpatialReference</text>
</a>
</g>
</g>
<!-- Node4&#45;&gt;Node9 -->
<g id="edge9" class="edge"><title>Node4&#45;&gt;Node9</title>
<path fill="none" stroke="midnightblue" d="M228.384,-617.609C241.676,-623.929 257.509,-633.38 268,-646 297.662,-681.683 269.32,-713.172 304,-744 305.767,-745.57 307.64,-747.017 309.598,-748.349"/>
<polygon fill="midnightblue" stroke="midnightblue" points="308.24,-751.602 318.666,-753.485 311.69,-745.511 308.24,-751.602"/>
</g>
<!-- Node10 -->
<g id="node10" class="node"><title>Node10</title>
<g id="a_node10"><a xlink:href="classpdal_1_1Stage.html#a1b00532ede55b90a7b6332a2966f5626" target="_top" xlink:title="pdal::Stage::l_done">
<polygon fill="white" stroke="black" points="334,-791.5 334,-810.5 435,-810.5 435,-791.5 334,-791.5"/>
<text text-anchor="middle" x="384.5" y="-798.5" font-family="Helvetica,sans-Serif" font-size="10.00">pdal::Stage::l_done</text>
</a>
</g>
</g>
<!-- Node4&#45;&gt;Node10 -->
<g id="edge10" class="edge"><title>Node4&#45;&gt;Node10</title>
<path fill="none" stroke="midnightblue" d="M229.477,-617.542C242.778,-623.749 258.265,-633.111 268,-646 305.684,-695.894 259.256,-738.325 304,-782 309.712,-787.576 316.752,-791.618 324.261,-794.533"/>
<polygon fill="midnightblue" stroke="midnightblue" points="323.367,-797.922 333.958,-797.651 325.51,-791.258 323.367,-797.922"/>
</g>
<!-- Node12 -->
<g id="node12" class="node"><title>Node12</title>
<g id="a_node12"><a xlink:href="classpdal_1_1Stage.html#afb562c59c53ed8120df9106655eb2543" target="_top" xlink:title="pdal::Stage::ready">
<polygon fill="white" stroke="black" points="336.5,-715.5 336.5,-734.5 432.5,-734.5 432.5,-715.5 336.5,-715.5"/>
<text text-anchor="middle" x="384.5" y="-722.5" font-family="Helvetica,sans-Serif" font-size="10.00">pdal::Stage::ready</text>
</a>
</g>
</g>
<!-- Node4&#45;&gt;Node12 -->
<g id="edge12" class="edge"><title>Node4&#45;&gt;Node12</title>
<path fill="none" stroke="midnightblue" d="M225.992,-617.64C239.273,-624.24 255.911,-633.967 268,-646 290.041,-667.939 278.917,-687.616 304,-706 310.673,-710.89 318.429,-714.539 326.429,-717.257"/>
<polygon fill="midnightblue" stroke="midnightblue" points="325.672,-720.682 336.252,-720.133 327.638,-713.964 325.672,-720.682"/>
</g>
<!-- Node13 -->
<g id="node13" class="node"><title>Node13</title>
<g id="a_node13"><a xlink:href="classpdal_1_1Stage.html#a74cf636cb0f633411e4e40dcd718508a" target="_top" xlink:title="pdal::Stage::startLogging">
<polygon fill="white" stroke="black" points="514.5,-487.5 514.5,-506.5 639.5,-506.5 639.5,-487.5 514.5,-487.5"/>
<text text-anchor="middle" x="577" y="-494.5" font-family="Helvetica,sans-Serif" font-size="10.00">pdal::Stage::startLogging</text>
</a>
</g>
</g>
<!-- Node4&#45;&gt;Node13 -->
<g id="edge13" class="edge"><title>Node4&#45;&gt;Node13</title>
<path fill="none" stroke="midnightblue" d="M220.091,-598.414C239.416,-587.271 273.098,-569.005 304,-558 324.22,-550.799 447.04,-524.284 520.548,-508.682"/>
<polygon fill="midnightblue" stroke="midnightblue" points="521.52,-512.054 530.577,-506.556 520.068,-505.206 521.52,-512.054"/>
</g>
<!-- Node20 -->
<g id="node20" class="node"><title>Node20</title>
<g id="a_node20"><a xlink:href="classpdal_1_1Stage.html#ae49e996fe285350923a3bf44d027adad" target="_top" xlink:title="pdal::Stage::stopLogging">
<polygon fill="white" stroke="black" points="322,-491.5 322,-510.5 447,-510.5 447,-491.5 322,-491.5"/>
<text text-anchor="middle" x="384.5" y="-498.5" font-family="Helvetica,sans-Serif" font-size="10.00">pdal::Stage::stopLogging</text>
</a>
</g>
</g>
<!-- Node4&#45;&gt;Node20 -->
<g id="edge20" class="edge"><title>Node4&#45;&gt;Node20</title>
<path fill="none" stroke="midnightblue" d="M217.875,-598.374C231.11,-589.014 251.427,-574.171 268,-560 284.961,-545.498 284.772,-536.324 304,-525 311.582,-520.535 320.067,-516.834 328.594,-513.788"/>
<polygon fill="midnightblue" stroke="midnightblue" points="329.793,-517.078 338.193,-510.621 327.6,-510.431 329.793,-517.078"/>
</g>
<!-- Node11 -->
<g id="node11" class="node"><title>Node11</title>
<g id="a_node11"><a xlink:href="classpdal_1_1Stage.html#a2444e73dc41bfc0b94981909595ef2ca" target="_top" xlink:title="pdal::Stage::done">
<polygon fill="white" stroke="black" points="530.5,-791.5 530.5,-810.5 623.5,-810.5 623.5,-791.5 530.5,-791.5"/>
<text text-anchor="middle" x="577" y="-798.5" font-family="Helvetica,sans-Serif" font-size="10.00">pdal::Stage::done</text>
</a>
</g>
</g>
<!-- Node10&#45;&gt;Node11 -->
<g id="edge11" class="edge"><title>Node10&#45;&gt;Node11</title>
<path fill="none" stroke="midnightblue" d="M435.054,-801C461.155,-801 493.254,-801 520.224,-801"/>
<polygon fill="midnightblue" stroke="midnightblue" points="520.286,-804.5 530.286,-801 520.286,-797.5 520.286,-804.5"/>
</g>
<!-- Node14 -->
<g id="node14" class="node"><title>Node14</title>
<g id="a_node14"><a xlink:href="classpdal_1_1gdal_1_1ErrorHandler.html#a56e0125595a43bf3b0cbd0b9a4bc55ea" target="_top" xlink:title="pdal::gdal::ErrorHandler\l::getGlobalErrorHandler">
<polygon fill="white" stroke="black" points="699,-463 699,-493 818,-493 818,-463 699,-463"/>
<text text-anchor="start" x="707" y="-481" font-family="Helvetica,sans-Serif" font-size="10.00">pdal::gdal::ErrorHandler</text>
<text text-anchor="middle" x="758.5" y="-470" font-family="Helvetica,sans-Serif" font-size="10.00">::getGlobalErrorHandler</text>
</a>
</g>
</g>
<!-- Node13&#45;&gt;Node14 -->
<g id="edge14" class="edge"><title>Node13&#45;&gt;Node14</title>
<path fill="none" stroke="midnightblue" d="M639.523,-490.488C655.407,-488.807 672.605,-486.986 688.828,-485.269"/>
<polygon fill="midnightblue" stroke="midnightblue" points="689.208,-488.748 698.784,-484.215 688.471,-481.787 689.208,-488.748"/>
</g>
<!-- Node16 -->
<g id="node16" class="node"><title>Node16</title>
<g id="a_node16"><a xlink:href="classpdal_1_1Stage.html#aec4fb27c40bb4b032ff003a89a950dd4" target="_top" xlink:title="pdal::Stage::isDebug">
<polygon fill="white" stroke="black" points="704.5,-402.5 704.5,-421.5 812.5,-421.5 812.5,-402.5 704.5,-402.5"/>
<text text-anchor="middle" x="758.5" y="-409.5" font-family="Helvetica,sans-Serif" font-size="10.00">pdal::Stage::isDebug</text>
</a>
</g>
</g>
<!-- Node13&#45;&gt;Node16 -->
<g id="edge16" class="edge"><title>Node13&#45;&gt;Node16</title>
<path fill="none" stroke="midnightblue" d="M626.488,-487.437C635.5,-484.903 644.688,-481.787 653,-478 670.726,-469.923 672.633,-463.564 689,-453 702.962,-443.988 718.872,-434.424 731.842,-426.802"/>
<polygon fill="midnightblue" stroke="midnightblue" points="733.826,-429.696 740.697,-421.631 730.296,-423.652 733.826,-429.696"/>
</g>
<!-- Node17 -->
<g id="node17" class="node"><title>Node17</title>
<g id="a_node17"><a xlink:href="classpdal_1_1gdal_1_1ErrorHandler.html#ace1cff928ab179f671181ebaf4d280a4" target="_top" xlink:title="pdal::gdal::ErrorHandler::set">
<polygon fill="white" stroke="black" points="689,-356.5 689,-375.5 828,-375.5 828,-356.5 689,-356.5"/>
<text text-anchor="middle" x="758.5" y="-363.5" font-family="Helvetica,sans-Serif" font-size="10.00">pdal::gdal::ErrorHandler::set</text>
</a>
</g>
</g>
<!-- Node13&#45;&gt;Node17 -->
<g id="edge17" class="edge"><title>Node13&#45;&gt;Node17</title>
<path fill="none" stroke="midnightblue" d="M637.887,-487.409C643.356,-484.936 648.515,-481.849 653,-478 684.136,-451.284 659.627,-421.643 689,-393 694.598,-387.541 701.432,-383.149 708.592,-379.626"/>
<polygon fill="midnightblue" stroke="midnightblue" points="710.007,-382.827 717.767,-375.613 707.202,-376.414 710.007,-382.827"/>
</g>
<!-- Node15 -->
<g id="node15" class="node"><title>Node15</title>
<g id="a_node15"><a xlink:href="classpdal_1_1gdal_1_1ErrorHandler.html#a73215504640551589024d36018f81d33" target="_top" xlink:title="pdal::gdal::ErrorHandler\l::ErrorHandler">
<polygon fill="white" stroke="red" points="864,-463 864,-493 983,-493 983,-463 864,-463"/>
<text text-anchor="start" x="872" y="-481" font-family="Helvetica,sans-Serif" font-size="10.00">pdal::gdal::ErrorHandler</text>
<text text-anchor="middle" x="923.5" y="-470" font-family="Helvetica,sans-Serif" font-size="10.00">::ErrorHandler</text>
</a>
</g>
</g>
<!-- Node14&#45;&gt;Node15 -->
<g id="edge15" class="edge"><title>Node14&#45;&gt;Node15</title>
<path fill="none" stroke="midnightblue" d="M818.347,-478C829.773,-478 841.844,-478 853.56,-478"/>
<polygon fill="midnightblue" stroke="midnightblue" points="853.74,-481.5 863.74,-478 853.74,-474.5 853.74,-481.5"/>
</g>
<!-- Node18 -->
<g id="node18" class="node"><title>Node18</title>
<g id="a_node18"><a xlink:href="classpdal_1_1gdal_1_1ErrorHandler.html#abe7fbf19bfcfbb0be1c8ae934bd5c9d2" target="_top" xlink:title="pdal::gdal::ErrorHandler\l::setLog">
<polygon fill="white" stroke="black" points="864,-396 864,-426 983,-426 983,-396 864,-396"/>
<text text-anchor="start" x="872" y="-414" font-family="Helvetica,sans-Serif" font-size="10.00">pdal::gdal::ErrorHandler</text>
<text text-anchor="middle" x="923.5" y="-403" font-family="Helvetica,sans-Serif" font-size="10.00">::setLog</text>
</a>
</g>
</g>
<!-- Node17&#45;&gt;Node18 -->
<g id="edge18" class="edge"><title>Node17&#45;&gt;Node18</title>
<path fill="none" stroke="midnightblue" d="M794.068,-375.543C812.707,-380.689 836.315,-387.206 858.191,-393.246"/>
<polygon fill="midnightblue" stroke="midnightblue" points="857.525,-396.693 868.096,-395.98 859.388,-389.945 857.525,-396.693"/>
</g>
<!-- Node19 -->
<g id="node19" class="node"><title>Node19</title>
<g id="a_node19"><a xlink:href="classpdal_1_1gdal_1_1ErrorHandler.html#a61ea2c53f778817785d39cd9fc6a81a6" target="_top" xlink:title="pdal::gdal::ErrorHandler\l::setDebug">
<polygon fill="white" stroke="black" points="864,-347 864,-377 983,-377 983,-347 864,-347"/>
<text text-anchor="start" x="872" y="-365" font-family="Helvetica,sans-Serif" font-size="10.00">pdal::gdal::ErrorHandler</text>
<text text-anchor="middle" x="923.5" y="-354" font-family="Helvetica,sans-Serif" font-size="10.00">::setDebug</text>
</a>
</g>
</g>
<!-- Node17&#45;&gt;Node19 -->
<g id="edge19" class="edge"><title>Node17&#45;&gt;Node19</title>
<path fill="none" stroke="midnightblue" d="M828.154,-364.315C836.628,-364.107 845.293,-363.895 853.768,-363.687"/>
<polygon fill="midnightblue" stroke="midnightblue" points="854.076,-367.18 863.987,-363.436 853.904,-360.182 854.076,-367.18"/>
</g>
<!-- Node22&#45;&gt;Node23 -->
<g id="edge23" class="edge"><title>Node22&#45;&gt;Node23</title>
<path fill="none" stroke="midnightblue" d="M268.043,-455.07C284.066,-455.338 301.283,-455.626 317.403,-455.895"/>
<polygon fill="midnightblue" stroke="midnightblue" points="317.757,-459.402 327.815,-456.069 317.875,-452.403 317.757,-459.402"/>
</g>
<!-- Node25 -->
<g id="node25" class="node"><title>Node25</title>
<g id="a_node25"><a xlink:href="classpdal_1_1PipelineManager.html#a5d818c00afd49f76e4284474fc0f4f3f" target="_top" xlink:title="pdal::PipelineManager\l::makeWriter">
<polygon fill="white" stroke="black" points="328,-393 328,-423 441,-423 441,-393 328,-393"/>
<text text-anchor="start" x="336" y="-411" font-family="Helvetica,sans-Serif" font-size="10.00">pdal::PipelineManager</text>
<text text-anchor="middle" x="384.5" y="-400" font-family="Helvetica,sans-Serif" font-size="10.00">::makeWriter</text>
</a>
</g>
</g>
<!-- Node24&#45;&gt;Node25 -->
<g id="edge26" class="edge"><title>Node24&#45;&gt;Node25</title>
<path fill="none" stroke="midnightblue" d="M265.523,-411.286C282.247,-410.82 300.428,-410.314 317.395,-409.841"/>
<polygon fill="midnightblue" stroke="midnightblue" points="317.88,-413.329 327.779,-409.552 317.685,-406.332 317.88,-413.329"/>
</g>
<!-- Node26&#45;&gt;Node13 -->
<g id="edge59" class="edge"><title>Node26&#45;&gt;Node13</title>
<path fill="none" stroke="midnightblue" d="M226.739,-316.622C246.817,-324.881 277.01,-336.726 304,-345 374.293,-366.549 409.735,-334.511 465,-383 498.94,-412.779 467.304,-447.945 501,-478 502.751,-479.562 504.612,-480.999 506.561,-482.321"/>
<polygon fill="midnightblue" stroke="midnightblue" points="505.159,-485.549 515.589,-487.413 508.598,-479.452 505.159,-485.549"/>
</g>
<!-- Node26&#45;&gt;Node20 -->
<g id="edge60" class="edge"><title>Node26&#45;&gt;Node20</title>
<path fill="none" stroke="midnightblue" d="M212.319,-316.642C225.408,-332.15 251.058,-363.945 268,-394 288.548,-430.454 272.332,-453.645 304,-481 306.721,-483.351 309.68,-485.432 312.802,-487.274"/>
<polygon fill="midnightblue" stroke="midnightblue" points="311.465,-490.519 321.974,-491.859 314.595,-484.258 311.465,-490.519"/>
</g>
<!-- Node26&#45;&gt;Node26 -->
<g id="edge57" class="edge"><title>Node26&#45;&gt;Node26</title>
<path fill="none" stroke="midnightblue" d="M179.572,-316.757C168.175,-325.565 175.984,-335 203,-335 220.729,-335 230.186,-330.937 231.372,-325.654"/>
<polygon fill="midnightblue" stroke="midnightblue" points="234.345,-323.797 226.428,-316.757 228.226,-327.198 234.345,-323.797"/>
</g>
<!-- Node27 -->
<g id="node27" class="node"><title>Node27</title>
<g id="a_node27"><a xlink:href="classpdal_1_1Stage.html#a7ec627c76e1c30fc53780bd81d08d4ad" target="_top" xlink:title="pdal::Stage::addDimensions">
<polygon fill="white" stroke="black" points="314.5,-114.5 314.5,-133.5 454.5,-133.5 454.5,-114.5 314.5,-114.5"/>
<text text-anchor="middle" x="384.5" y="-121.5" font-family="Helvetica,sans-Serif" font-size="10.00">pdal::Stage::addDimensions</text>
</a>
</g>
</g>
<!-- Node26&#45;&gt;Node27 -->
<g id="edge28" class="edge"><title>Node26&#45;&gt;Node27</title>
<path fill="none" stroke="midnightblue" d="M253.553,-297.371C258.934,-294.709 263.925,-291.318 268,-287 313.278,-239.022 257.111,-189.405 304,-143 305.437,-141.578 306.961,-140.255 308.557,-139.024"/>
<polygon fill="midnightblue" stroke="midnightblue" points="310.508,-141.932 317.073,-133.616 306.755,-136.022 310.508,-141.932"/>
</g>
<!-- Node28 -->
<g id="node28" class="node"><title>Node28</title>
<g id="a_node28"><a xlink:href="classpdal_1_1Stage.html#a75f17f9b67f48f6aab1d98aadefc4d5c" target="_top" xlink:title="pdal::Stage::handleOptions">
<polygon fill="white" stroke="black" points="317.5,-190.5 317.5,-209.5 451.5,-209.5 451.5,-190.5 317.5,-190.5"/>
<text text-anchor="middle" x="384.5" y="-197.5" font-family="Helvetica,sans-Serif" font-size="10.00">pdal::Stage::handleOptions</text>
</a>
</g>
</g>
<!-- Node26&#45;&gt;Node28 -->
<g id="edge29" class="edge"><title>Node26&#45;&gt;Node28</title>
<path fill="none" stroke="midnightblue" d="M249.985,-297.496C256.471,-294.818 262.718,-291.39 268,-287 294.3,-265.144 276.969,-239.946 304,-219 306.314,-217.207 308.77,-215.58 311.332,-214.103"/>
<polygon fill="midnightblue" stroke="midnightblue" points="312.968,-217.199 320.393,-209.641 309.875,-210.92 312.968,-217.199"/>
</g>
<!-- Node43 -->
<g id="node43" class="node"><title>Node43</title>
<g id="a_node43"><a xlink:href="classpdal_1_1Stage.html#a5b422f842a6374b448439df99fe6e07e" target="_top" xlink:title="pdal::Stage::initialize">
<polygon fill="white" stroke="black" points="331,-278.5 331,-297.5 438,-297.5 438,-278.5 331,-278.5"/>
<text text-anchor="middle" x="384.5" y="-285.5" font-family="Helvetica,sans-Serif" font-size="10.00">pdal::Stage::initialize</text>
</a>
</g>
</g>
<!-- Node26&#45;&gt;Node43 -->
<g id="edge50" class="edge"><title>Node26&#45;&gt;Node43</title>
<path fill="none" stroke="midnightblue" d="M255.437,-301.555C275.828,-299.397 299.467,-296.895 320.844,-294.632"/>
<polygon fill="midnightblue" stroke="midnightblue" points="321.232,-298.111 330.808,-293.577 320.495,-291.15 321.232,-298.111"/>
</g>
<!-- Node44 -->
<g id="node44" class="node"><title>Node44</title>
<g id="a_node44"><a xlink:href="classpdal_1_1Stage.html#a6c85dfbf6a674dbc2eda76a79efada48" target="_top" xlink:title="pdal::Stage::l_initialize">
<polygon fill="white" stroke="black" points="327,-316.5 327,-335.5 442,-335.5 442,-316.5 327,-316.5"/>
<text text-anchor="middle" x="384.5" y="-323.5" font-family="Helvetica,sans-Serif" font-size="10.00">pdal::Stage::l_initialize</text>
</a>
</g>
</g>
<!-- Node26&#45;&gt;Node44 -->
<g id="edge51" class="edge"><title>Node26&#45;&gt;Node44</title>
<path fill="none" stroke="midnightblue" d="M255.437,-312.445C274.492,-314.462 296.382,-316.779 316.612,-318.92"/>
<polygon fill="midnightblue" stroke="midnightblue" points="316.389,-322.416 326.702,-319.988 317.126,-315.455 316.389,-322.416"/>
</g>
<!-- Node48 -->
<g id="node48" class="node"><title>Node48</title>
<g id="a_node48"><a xlink:href="classpdal_1_1BasePointTable.html#a7e3a12a1f29e6cd10d8669ed3d07eb94" target="_top" xlink:title="pdal::BasePointTable\l::layout">
<polygon fill="white" stroke="black" points="329.5,-229 329.5,-259 439.5,-259 439.5,-229 329.5,-229"/>
<text text-anchor="start" x="337.5" y="-247" font-family="Helvetica,sans-Serif" font-size="10.00">pdal::BasePointTable</text>
<text text-anchor="middle" x="384.5" y="-236" font-family="Helvetica,sans-Serif" font-size="10.00">::layout</text>
</a>
</g>
</g>
<!-- Node26&#45;&gt;Node48 -->
<g id="edge56" class="edge"><title>Node26&#45;&gt;Node48</title>
<path fill="none" stroke="midnightblue" d="M238.237,-297.414C247.968,-294.391 258.499,-290.831 268,-287 284.591,-280.311 287.415,-275.704 304,-269 309.722,-266.687 315.744,-264.451 321.808,-262.33"/>
<polygon fill="midnightblue" stroke="midnightblue" points="322.989,-265.625 331.334,-259.097 320.739,-258.996 322.989,-265.625"/>
</g>
<!-- Node49 -->
<g id="node49" class="node"><title>Node49</title>
<g id="a_node49"><a xlink:href="classpdal_1_1Stage.html#affff6bc9dbff793d074d76333c5732dd" target="_top" xlink:title="pdal::Stage::prepared">
<polygon fill="white" stroke="black" points="329.5,-152.5 329.5,-171.5 439.5,-171.5 439.5,-152.5 329.5,-152.5"/>
<text text-anchor="middle" x="384.5" y="-159.5" font-family="Helvetica,sans-Serif" font-size="10.00">pdal::Stage::prepared</text>
</a>
</g>
</g>
<!-- Node26&#45;&gt;Node49 -->
<g id="edge58" class="edge"><title>Node26&#45;&gt;Node49</title>
<path fill="none" stroke="midnightblue" d="M252.255,-297.494C258.052,-294.818 263.501,-291.39 268,-287 303.61,-252.253 267.225,-214.512 304,-181 308.681,-176.735 314.145,-173.379 319.978,-170.746"/>
<polygon fill="midnightblue" stroke="midnightblue" points="321.28,-173.995 329.388,-167.175 318.797,-167.451 321.28,-173.995"/>
</g>
<!-- Node29 -->
<g id="node29" class="node"><title>Node29</title>
<g id="a_node29"><a xlink:href="classpdal_1_1Stage.html#a75ff99f7b665c6573e304ed4148dd99e" target="_top" xlink:title="pdal::Stage::addAllArgs">
<polygon fill="white" stroke="black" points="517.5,-171.5 517.5,-190.5 636.5,-190.5 636.5,-171.5 517.5,-171.5"/>
<text text-anchor="middle" x="577" y="-178.5" font-family="Helvetica,sans-Serif" font-size="10.00">pdal::Stage::addAllArgs</text>
</a>
</g>
</g>
<!-- Node28&#45;&gt;Node29 -->
<g id="edge30" class="edge"><title>Node28&#45;&gt;Node29</title>
<path fill="none" stroke="midnightblue" d="M451.593,-193.408C469.553,-191.617 489.044,-189.673 507.152,-187.867"/>
<polygon fill="midnightblue" stroke="midnightblue" points="507.738,-191.326 517.341,-186.85 507.043,-184.36 507.738,-191.326"/>
</g>
<!-- Node31 -->
<g id="node31" class="node"><title>Node31</title>
<g id="a_node31"><a xlink:href="classpdal_1_1Stage.html#a6c81d6fbbac17ebe4cd63806916cc750" target="_top" xlink:title="pdal::Stage::getName">
<polygon fill="white" stroke="black" points="702.5,-266.5 702.5,-285.5 814.5,-285.5 814.5,-266.5 702.5,-266.5"/>
<text text-anchor="middle" x="758.5" y="-273.5" font-family="Helvetica,sans-Serif" font-size="10.00">pdal::Stage::getName</text>
</a>
</g>
</g>
<!-- Node28&#45;&gt;Node31 -->
<g id="edge44" class="edge"><title>Node28&#45;&gt;Node31</title>
<path fill="none" stroke="midnightblue" d="M451.644,-205.539C506.234,-211.027 585.422,-221.108 653,-238 678.108,-244.276 705.577,-254.4 726.049,-262.62"/>
<polygon fill="midnightblue" stroke="midnightblue" points="724.914,-265.938 735.495,-266.478 727.56,-259.457 724.914,-265.938"/>
</g>
<!-- Node33 -->
<g id="node33" class="node"><title>Node33</title>
<g id="a_node33"><a xlink:href="classpdal_1_1Options.html#a99aa4c0c7ba443d584f741d22d37f6a5" target="_top" xlink:title="pdal::Options::getValues">
<polygon fill="white" stroke="black" points="515,-247.5 515,-266.5 639,-266.5 639,-247.5 515,-247.5"/>
<text text-anchor="middle" x="577" y="-254.5" font-family="Helvetica,sans-Serif" font-size="10.00">pdal::Options::getValues</text>
</a>
</g>
</g>
<!-- Node28&#45;&gt;Node33 -->
<g id="edge34" class="edge"><title>Node28&#45;&gt;Node33</title>
<path fill="none" stroke="midnightblue" d="M430.361,-209.592C441.744,-212.335 453.893,-215.531 465,-219 481.387,-224.118 484.817,-227.27 501,-233 511.952,-236.878 523.898,-240.826 534.971,-244.37"/>
<polygon fill="midnightblue" stroke="midnightblue" points="534.251,-247.814 544.841,-247.498 536.366,-241.141 534.251,-247.814"/>
</g>
<!-- Node34 -->
<g id="node34" class="node"><title>Node34</title>
<g id="a_node34"><a xlink:href="classpdal_1_1Options.html#aab2dd4f9208512ad8c38a71ad9d2c98b" target="_top" xlink:title="pdal::Options::addConditional">
<polygon fill="white" stroke="black" points="504.5,-95.5 504.5,-114.5 649.5,-114.5 649.5,-95.5 504.5,-95.5"/>
<text text-anchor="middle" x="577" y="-102.5" font-family="Helvetica,sans-Serif" font-size="10.00">pdal::Options::addConditional</text>
</a>
</g>
</g>
<!-- Node28&#45;&gt;Node34 -->
<g id="edge35" class="edge"><title>Node28&#45;&gt;Node34</title>
<path fill="none" stroke="midnightblue" d="M447.099,-190.446C453.463,-187.977 459.576,-184.881 465,-181 489.368,-163.565 476.75,-141.599 501,-124 503.663,-122.067 506.504,-120.33 509.463,-118.769"/>
<polygon fill="midnightblue" stroke="midnightblue" points="510.986,-121.922 518.64,-114.595 508.088,-115.55 510.986,-121.922"/>
</g>
<!-- Node37 -->
<g id="node37" class="node"><title>Node37</title>
<g id="a_node37"><a xlink:href="classpdal_1_1Options.html#a541bdbfe72511dad8a22236f0a3cb2ab" target="_top" xlink:title="pdal::Options::fromFile">
<polygon fill="white" stroke="red" points="519,-19.5 519,-38.5 635,-38.5 635,-19.5 519,-19.5"/>
<text text-anchor="middle" x="577" y="-26.5" font-family="Helvetica,sans-Serif" font-size="10.00">pdal::Options::fromFile</text>
</a>
</g>
</g>
<!-- Node28&#45;&gt;Node37 -->
<g id="edge38" class="edge"><title>Node28&#45;&gt;Node37</title>
<path fill="none" stroke="midnightblue" d="M451.467,-190.498C456.423,-187.976 461.029,-184.855 465,-181 508.941,-138.347 457.348,-90.9492 501,-48 503.696,-45.3475 506.706,-43.0487 509.929,-41.0577"/>
<polygon fill="midnightblue" stroke="midnightblue" points="511.577,-44.1459 518.886,-36.4755 508.389,-37.9141 511.577,-44.1459"/>
</g>
<!-- Node40 -->
<g id="node40" class="node"><title>Node40</title>
<g id="a_node40"><a xlink:href="classpdal_1_1Options.html#a0d9ebe7f77b36dea85b51eb0098a5df0" target="_top" xlink:title="pdal::Options::remove">
<polygon fill="white" stroke="black" points="520.5,-133.5 520.5,-152.5 633.5,-152.5 633.5,-133.5 520.5,-133.5"/>
<text text-anchor="middle" x="577" y="-140.5" font-family="Helvetica,sans-Serif" font-size="10.00">pdal::Options::remove</text>
</a>
</g>
</g>
<!-- Node28&#45;&gt;Node40 -->
<g id="edge41" class="edge"><title>Node28&#45;&gt;Node40</title>
<path fill="none" stroke="midnightblue" d="M434.01,-190.456C444.384,-187.849 455.172,-184.7 465,-181 481.931,-174.625 484.112,-168.489 501,-162 507.402,-159.54 514.235,-157.305 521.07,-155.304"/>
<polygon fill="midnightblue" stroke="midnightblue" points="522.338,-158.585 531.039,-152.54 520.467,-151.839 522.338,-158.585"/>
</g>
<!-- Node41 -->
<g id="node41" class="node"><title>Node41</title>
<g id="a_node41"><a xlink:href="classpdal_1_1Options.html#afb18dcc4f3883b8413171db00482959c" target="_top" xlink:title="pdal::Options::toCommandLine">
<polygon fill="white" stroke="red" points="501,-57.5 501,-76.5 653,-76.5 653,-57.5 501,-57.5"/>
<text text-anchor="middle" x="577" y="-64.5" font-family="Helvetica,sans-Serif" font-size="10.00">pdal::Options::toCommandLine</text>
</a>
</g>
</g>
<!-- Node28&#45;&gt;Node41 -->
<g id="edge43" class="edge"><title>Node28&#45;&gt;Node41</title>
<path fill="none" stroke="midnightblue" d="M450.293,-190.439C455.624,-187.943 460.632,-184.843 465,-181 498.899,-151.174 467.304,-116.055 501,-86 502.751,-84.4381 504.612,-83.001 506.561,-81.6787"/>
<polygon fill="midnightblue" stroke="midnightblue" points="508.598,-84.5482 515.589,-76.5874 505.159,-78.4509 508.598,-84.5482"/>
</g>
<!-- Node42 -->
<g id="node42" class="node"><title>Node42</title>
<g id="a_node42"><a xlink:href="classpdal_1_1Stage.html#ab94db25b14b94de1f62f9738327accd2" target="_top" xlink:title="pdal::Stage::setupLog">
<polygon fill="white" stroke="black" points="521,-323.5 521,-342.5 633,-342.5 633,-323.5 521,-323.5"/>
<text text-anchor="middle" x="577" y="-330.5" font-family="Helvetica,sans-Serif" font-size="10.00">pdal::Stage::setupLog</text>
</a>
</g>
</g>
<!-- Node28&#45;&gt;Node42 -->
<g id="edge45" class="edge"><title>Node28&#45;&gt;Node42</title>
<path fill="none" stroke="midnightblue" d="M447.099,-209.554C453.463,-212.023 459.576,-215.119 465,-219 489.368,-236.435 480.749,-253.916 501,-276 515.968,-292.324 536.088,-307.328 551.72,-317.84"/>
<polygon fill="midnightblue" stroke="midnightblue" points="550.051,-320.931 560.333,-323.487 553.889,-315.077 550.051,-320.931"/>
</g>
<!-- Node30 -->
<g id="node30" class="node"><title>Node30</title>
<g id="a_node30"><a xlink:href="classpdal_1_1Stage.html#a3f15d8fc5456be812aafc84000d8e621" target="_top" xlink:title="pdal::Stage::addArgs">
<polygon fill="white" stroke="black" points="704.5,-171.5 704.5,-190.5 812.5,-190.5 812.5,-171.5 704.5,-171.5"/>
<text text-anchor="middle" x="758.5" y="-178.5" font-family="Helvetica,sans-Serif" font-size="10.00">pdal::Stage::addArgs</text>
</a>
</g>
</g>
<!-- Node29&#45;&gt;Node30 -->
<g id="edge31" class="edge"><title>Node29&#45;&gt;Node30</title>
<path fill="none" stroke="midnightblue" d="M636.775,-181C655.15,-181 675.5,-181 694.175,-181"/>
<polygon fill="midnightblue" stroke="midnightblue" points="694.354,-184.5 704.354,-181 694.354,-177.5 694.354,-184.5"/>
</g>
<!-- Node29&#45;&gt;Node31 -->
<g id="edge32" class="edge"><title>Node29&#45;&gt;Node31</title>
<path fill="none" stroke="midnightblue" d="M618.673,-190.518C630.205,-194.131 642.476,-198.893 653,-205 671.773,-215.894 671.388,-225.314 689,-238 701.223,-246.804 715.693,-255.104 728.177,-261.687"/>
<polygon fill="midnightblue" stroke="midnightblue" points="726.773,-264.901 737.266,-266.366 729.977,-258.677 726.773,-264.901"/>
</g>
<!-- Node32 -->
<g id="node32" class="node"><title>Node32</title>
<g id="a_node32"><a xlink:href="classpdal_1_1Stage.html#ae89a62fb39c52a2067fc318359065625" target="_top" xlink:title="pdal::Stage::l_addArgs">
<polygon fill="white" stroke="red" points="700.5,-209.5 700.5,-228.5 816.5,-228.5 816.5,-209.5 700.5,-209.5"/>
<text text-anchor="middle" x="758.5" y="-216.5" font-family="Helvetica,sans-Serif" font-size="10.00">pdal::Stage::l_addArgs</text>
</a>
</g>
</g>
<!-- Node29&#45;&gt;Node32 -->
<g id="edge33" class="edge"><title>Node29&#45;&gt;Node32</title>
<path fill="none" stroke="midnightblue" d="M623.295,-190.589C647.409,-195.694 677.251,-202.011 702.667,-207.392"/>
<polygon fill="midnightblue" stroke="midnightblue" points="702.022,-210.833 712.53,-209.48 703.472,-203.985 702.022,-210.833"/>
</g>
<!-- Node35 -->
<g id="node35" class="node"><title>Node35</title>
<g id="a_node35"><a xlink:href="classpdal_1_1Option.html#ad2b7a736742fb343e421fa326ef45c23" target="_top" xlink:title="pdal::Option::getName">
<polygon fill="white" stroke="black" points="701,-133.5 701,-152.5 816,-152.5 816,-133.5 701,-133.5"/>
<text text-anchor="middle" x="758.5" y="-140.5" font-family="Helvetica,sans-Serif" font-size="10.00">pdal::Option::getName</text>
</a>
</g>
</g>
<!-- Node34&#45;&gt;Node35 -->
<g id="edge36" class="edge"><title>Node34&#45;&gt;Node35</title>
<path fill="none" stroke="midnightblue" d="M623.295,-114.589C647.409,-119.694 677.251,-126.011 702.667,-131.392"/>
<polygon fill="midnightblue" stroke="midnightblue" points="702.022,-134.833 712.53,-133.48 703.472,-127.985 702.022,-134.833"/>
</g>
<!-- Node36 -->
<g id="node36" class="node"><title>Node36</title>
<g id="a_node36"><a xlink:href="classpdal_1_1Option.html#aef4422b88464a9cad83b3c11bf1f8cdd" target="_top" xlink:title="pdal::Option::nameValid">
<polygon fill="white" stroke="red" points="698,-95.5 698,-114.5 819,-114.5 819,-95.5 698,-95.5"/>
<text text-anchor="middle" x="758.5" y="-102.5" font-family="Helvetica,sans-Serif" font-size="10.00">pdal::Option::nameValid</text>
</a>
</g>
</g>
<!-- Node34&#45;&gt;Node36 -->
<g id="edge37" class="edge"><title>Node34&#45;&gt;Node36</title>
<path fill="none" stroke="midnightblue" d="M649.717,-105C662.152,-105 675.069,-105 687.459,-105"/>
<polygon fill="midnightblue" stroke="midnightblue" points="687.721,-108.5 697.721,-105 687.721,-101.5 687.721,-108.5"/>
</g>
<!-- Node38 -->
<g id="node38" class="node"><title>Node38</title>
<g id="a_node38"><a xlink:href="namespacepdal_1_1Utils.html#a9bda8c5dbe5ef7cf66e99ba022184934" target="_top" xlink:title="pdal::Utils::extractSpaces">
<polygon fill="white" stroke="red" points="693.5,-38.5 693.5,-57.5 823.5,-57.5 823.5,-38.5 693.5,-38.5"/>
<text text-anchor="middle" x="758.5" y="-45.5" font-family="Helvetica,sans-Serif" font-size="10.00">pdal::Utils::extractSpaces</text>
</a>
</g>
</g>
<!-- Node37&#45;&gt;Node38 -->
<g id="edge39" class="edge"><title>Node37&#45;&gt;Node38</title>
<path fill="none" stroke="midnightblue" d="M635.288,-35.064C650.438,-36.6676 667.014,-38.4221 682.934,-40.1072"/>
<polygon fill="midnightblue" stroke="midnightblue" points="682.966,-43.63 693.279,-41.2022 683.703,-36.6689 682.966,-43.63"/>
</g>
<!-- Node39 -->
<g id="node39" class="node"><title>Node39</title>
<g id="a_node39"><a xlink:href="namespacepdal_1_1FileUtils.html#ae2b8f1ddc38b0033b685a0bde6106ba1" target="_top" xlink:title="pdal::FileUtils::fileExists">
<polygon fill="white" stroke="red" points="697,-0.5 697,-19.5 820,-19.5 820,-0.5 697,-0.5"/>
<text text-anchor="middle" x="758.5" y="-7.5" font-family="Helvetica,sans-Serif" font-size="10.00">pdal::FileUtils::fileExists</text>
</a>
</g>
</g>
<!-- Node37&#45;&gt;Node39 -->
<g id="edge40" class="edge"><title>Node37&#45;&gt;Node39</title>
<path fill="none" stroke="midnightblue" d="M635.288,-22.936C651.517,-21.2182 669.382,-19.3272 686.324,-17.5339"/>
<polygon fill="midnightblue" stroke="midnightblue" points="687.154,-20.9657 696.73,-16.4324 686.418,-14.0046 687.154,-20.9657"/>
</g>
<!-- Node40&#45;&gt;Node35 -->
<g id="edge42" class="edge"><title>Node40&#45;&gt;Node35</title>
<path fill="none" stroke="midnightblue" d="M633.811,-143C651.786,-143 671.891,-143 690.58,-143"/>
<polygon fill="midnightblue" stroke="midnightblue" points="690.796,-146.5 700.796,-143 690.796,-139.5 690.796,-146.5"/>
</g>
<!-- Node42&#45;&gt;Node14 -->
<g id="edge47" class="edge"><title>Node42&#45;&gt;Node14</title>
<path fill="none" stroke="midnightblue" d="M633.231,-340.843C640.389,-343.558 647.226,-347.179 653,-352 682.619,-376.729 664.187,-401.452 689,-431 697.563,-441.197 708.858,-450.151 719.801,-457.434"/>
<polygon fill="midnightblue" stroke="midnightblue" points="718.123,-460.513 728.443,-462.907 721.868,-454.6 718.123,-460.513"/>
</g>
<!-- Node42&#45;&gt;Node16 -->
<g id="edge49" class="edge"><title>Node42&#45;&gt;Node16</title>
<path fill="none" stroke="midnightblue" d="M629.704,-342.502C637.758,-344.991 645.79,-348.108 653,-352 672.099,-362.311 670.595,-373.494 689,-385 697.527,-390.331 707.283,-394.935 716.706,-398.756"/>
<polygon fill="midnightblue" stroke="midnightblue" points="715.75,-402.138 726.341,-402.452 718.258,-395.602 715.75,-402.138"/>
</g>
<!-- Node42&#45;&gt;Node17 -->
<g id="edge48" class="edge"><title>Node42&#45;&gt;Node17</title>
<path fill="none" stroke="midnightblue" d="M629.919,-342.545C650.477,-346.325 674.278,-350.7 695.714,-354.641"/>
<polygon fill="midnightblue" stroke="midnightblue" points="695.23,-358.111 705.698,-356.476 696.496,-351.226 695.23,-358.111"/>
</g>
<!-- Node42&#45;&gt;Node31 -->
<g id="edge46" class="edge"><title>Node42&#45;&gt;Node31</title>
<path fill="none" stroke="midnightblue" d="M608.044,-323.459C638.073,-313.924 684.42,-299.206 717.537,-288.69"/>
<polygon fill="midnightblue" stroke="midnightblue" points="718.886,-291.934 727.358,-285.572 716.767,-285.262 718.886,-291.934"/>
</g>
<!-- Node44&#45;&gt;Node31 -->
<g id="edge54" class="edge"><title>Node44&#45;&gt;Node31</title>
<path fill="none" stroke="midnightblue" d="M442.404,-318.352C509.719,-309.304 621.548,-294.273 692.294,-284.764"/>
<polygon fill="midnightblue" stroke="midnightblue" points="692.979,-288.204 702.423,-283.403 692.046,-281.266 692.979,-288.204"/>
</g>
<!-- Node45 -->
<g id="node45" class="node"><title>Node45</title>
<g id="a_node45"><a xlink:href="classpdal_1_1BasePointTable.html#a03429472e71e5dd323bc92319f4a9df6" target="_top" xlink:title="pdal::BasePointTable\l::metadata">
<polygon fill="white" stroke="black" points="522,-400 522,-430 632,-430 632,-400 522,-400"/>
<text text-anchor="start" x="530" y="-418" font-family="Helvetica,sans-Serif" font-size="10.00">pdal::BasePointTable</text>
<text text-anchor="middle" x="577" y="-407" font-family="Helvetica,sans-Serif" font-size="10.00">::metadata</text>
</a>
</g>
</g>
<!-- Node44&#45;&gt;Node45 -->
<g id="edge52" class="edge"><title>Node44&#45;&gt;Node45</title>
<path fill="none" stroke="midnightblue" d="M432.338,-335.539C443.561,-339.041 455.141,-343.742 465,-350 485.193,-362.818 480.992,-376.895 501,-390 504.717,-392.435 508.694,-394.653 512.804,-396.672"/>
<polygon fill="midnightblue" stroke="midnightblue" points="511.412,-399.883 521.97,-400.777 514.274,-393.495 511.412,-399.883"/>
</g>
<!-- Node46 -->
<g id="node46" class="node"><title>Node46</title>
<g id="a_node46"><a xlink:href="classpdal_1_1MetadataNode.html#af2c1c5d91f6ab47a804aa8a0a1b043c2" target="_top" xlink:title="pdal::MetadataNode::add">
<polygon fill="white" stroke="black" points="514,-361.5 514,-380.5 640,-380.5 640,-361.5 514,-361.5"/>
<text text-anchor="middle" x="577" y="-368.5" font-family="Helvetica,sans-Serif" font-size="10.00">pdal::MetadataNode::add</text>
</a>
</g>
</g>
<!-- Node44&#45;&gt;Node46 -->
<g id="edge53" class="edge"><title>Node44&#45;&gt;Node46</title>
<path fill="none" stroke="midnightblue" d="M425.9,-335.543C455.072,-342.434 494.655,-351.785 525.849,-359.153"/>
<polygon fill="midnightblue" stroke="midnightblue" points="525.121,-362.578 535.658,-361.47 526.731,-355.765 525.121,-362.578"/>
</g>
<!-- Node47 -->
<g id="node47" class="node"><title>Node47</title>
<g id="a_node47"><a xlink:href="classpdal_1_1Stage.html#a0d7c0bb23ed18577b1aa58b02448487f" target="_top" xlink:title="pdal::Stage::writerInitialize">
<polygon fill="white" stroke="black" points="511,-449.5 511,-468.5 643,-468.5 643,-449.5 511,-449.5"/>
<text text-anchor="middle" x="577" y="-456.5" font-family="Helvetica,sans-Serif" font-size="10.00">pdal::Stage::writerInitialize</text>
</a>
</g>
</g>
<!-- Node44&#45;&gt;Node47 -->
<g id="edge55" class="edge"><title>Node44&#45;&gt;Node47</title>
<path fill="none" stroke="midnightblue" d="M440.668,-335.594C449.546,-339.026 458.078,-343.682 465,-350 496.515,-378.765 469.02,-410.752 501,-439 503.474,-441.186 506.162,-443.136 509,-444.877"/>
<polygon fill="midnightblue" stroke="midnightblue" points="507.41,-447.995 517.899,-449.492 510.633,-441.781 507.41,-447.995"/>
</g>
</g>
</svg>
