<?xml version="1.0" encoding="UTF-8" standalone="no"?>
<!DOCTYPE svg PUBLIC "-//W3C//DTD SVG 1.1//EN"
 "http://www.w3.org/Graphics/SVG/1.1/DTD/svg11.dtd">
<!-- Generated by graphviz version 2.38.0 (20140413.2041)
 -->
<!-- Title: pdal::ProgramArgs::addSynonym Pages: 1 -->
<svg width="245pt" height="78pt"
 viewBox="0.00 0.00 245.00 77.50" xmlns="http://www.w3.org/2000/svg" xmlns:xlink="http://www.w3.org/1999/xlink">
<g id="graph0" class="graph" transform="scale(1 1) rotate(0) translate(4 73.5)">
<title>pdal::ProgramArgs::addSynonym</title>
<polygon fill="white" stroke="none" points="-4,4 -4,-73.5 241,-73.5 241,4 -4,4"/>
<!-- Node1 -->
<g id="node1" class="node"><title>Node1</title>
<polygon fill="#bfbfbf" stroke="black" points="0,-17 0,-47 104,-47 104,-17 0,-17"/>
<text text-anchor="start" x="8" y="-35" font-family="Helvetica,sans-Serif" font-size="10.00">pdal::ProgramArgs::</text>
<text text-anchor="middle" x="52" y="-24" font-family="Helvetica,sans-Serif" font-size="10.00">addSynonym</text>
</g>
<!-- Node2 -->
<g id="node2" class="node"><title>Node2</title>
<g id="a_node2"><a xlink:href="classpdal_1_1SQLiteWriter.html#afb6937456aad4fabd8ad6726fb10720d" target="_top" xlink:title="pdal::SQLiteWriter\l::addArgs">
<polygon fill="white" stroke="black" points="140,-39 140,-69 237,-69 237,-39 140,-39"/>
<text text-anchor="start" x="148" y="-57" font-family="Helvetica,sans-Serif" font-size="10.00">pdal::SQLiteWriter</text>
<text text-anchor="middle" x="188.5" y="-46" font-family="Helvetica,sans-Serif" font-size="10.00">::addArgs</text>
</a>
</g>
</g>
<!-- Node1&#45;&gt;Node2 -->
<g id="edge1" class="edge"><title>Node1&#45;&gt;Node2</title>
<path fill="none" stroke="midnightblue" d="M114.259,-42.02C122.881,-43.4303 131.635,-44.8622 139.949,-46.2221"/>
<polygon fill="midnightblue" stroke="midnightblue" points="114.666,-38.5402 104.232,-40.38 113.536,-45.4484 114.666,-38.5402"/>
</g>
<!-- Node3 -->
<g id="node3" class="node"><title>Node3</title>
<g id="a_node3"><a xlink:href="ProgramArgsTest_8cpp.html#a6d12e0e44c077a58661412df0bb56aa0" target="_top" xlink:title="TEST">
<polygon fill="white" stroke="black" points="167.5,-0.5 167.5,-19.5 209.5,-19.5 209.5,-0.5 167.5,-0.5"/>
<text text-anchor="middle" x="188.5" y="-7.5" font-family="Helvetica,sans-Serif" font-size="10.00">TEST</text>
</a>
</g>
</g>
<!-- Node1&#45;&gt;Node3 -->
<g id="edge2" class="edge"><title>Node1&#45;&gt;Node3</title>
<path fill="none" stroke="midnightblue" d="M114.145,-21.9986C133.279,-18.8688 153.079,-15.6303 167.278,-13.3078"/>
<polygon fill="midnightblue" stroke="midnightblue" points="113.536,-18.5516 104.232,-23.62 114.666,-25.4598 113.536,-18.5516"/>
</g>
</g>
</svg>
