<?xml version="1.0" encoding="UTF-8" standalone="no"?>
<!DOCTYPE svg PUBLIC "-//W3C//DTD SVG 1.1//EN"
 "http://www.w3.org/Graphics/SVG/1.1/DTD/svg11.dtd">
<!-- Generated by graphviz version 2.38.0 (20140413.2041)
 -->
<!-- Title: pdal::Stage::addAllArgs Pages: 1 -->
<svg width="628pt" height="123pt"
 viewBox="0.00 0.00 628.00 123.00" xmlns="http://www.w3.org/2000/svg" xmlns:xlink="http://www.w3.org/1999/xlink">
<g id="graph0" class="graph" transform="scale(1 1) rotate(0) translate(4 119)">
<title>pdal::Stage::addAllArgs</title>
<polygon fill="white" stroke="none" points="-4,4 -4,-119 624,-119 624,4 -4,4"/>
<!-- Node1 -->
<g id="node1" class="node"><title>Node1</title>
<polygon fill="#bfbfbf" stroke="black" points="0,-57.5 0,-76.5 119,-76.5 119,-57.5 0,-57.5"/>
<text text-anchor="middle" x="59.5" y="-64.5" font-family="Helvetica,sans-Serif" font-size="10.00">pdal::Stage::addAllArgs</text>
</g>
<!-- Node2 -->
<g id="node2" class="node"><title>Node2</title>
<g id="a_node2"><a xlink:href="classpdal_1_1Stage.html#a3f15d8fc5456be812aafc84000d8e621" target="_top" xlink:title="pdal::Stage::addArgs">
<polygon fill="white" stroke="black" points="159,-95.5 159,-114.5 267,-114.5 267,-95.5 159,-95.5"/>
<text text-anchor="middle" x="213" y="-102.5" font-family="Helvetica,sans-Serif" font-size="10.00">pdal::Stage::addArgs</text>
</a>
</g>
</g>
<!-- Node1&#45;&gt;Node2 -->
<g id="edge1" class="edge"><title>Node1&#45;&gt;Node2</title>
<path fill="none" stroke="midnightblue" d="M98.7298,-76.589C118.632,-81.5809 143.157,-87.7324 164.291,-93.0334"/>
<polygon fill="midnightblue" stroke="midnightblue" points="163.494,-96.4418 174.045,-95.4799 165.197,-89.6521 163.494,-96.4418"/>
</g>
<!-- Node3 -->
<g id="node3" class="node"><title>Node3</title>
<g id="a_node3"><a xlink:href="classpdal_1_1Stage.html#a6c81d6fbbac17ebe4cd63806916cc750" target="_top" xlink:title="pdal::Stage::getName">
<polygon fill="white" stroke="black" points="157,-57.5 157,-76.5 269,-76.5 269,-57.5 157,-57.5"/>
<text text-anchor="middle" x="213" y="-64.5" font-family="Helvetica,sans-Serif" font-size="10.00">pdal::Stage::getName</text>
</a>
</g>
</g>
<!-- Node1&#45;&gt;Node3 -->
<g id="edge2" class="edge"><title>Node1&#45;&gt;Node3</title>
<path fill="none" stroke="midnightblue" d="M119.074,-67C128.028,-67 137.319,-67 146.412,-67"/>
<polygon fill="midnightblue" stroke="midnightblue" points="146.565,-70.5001 156.565,-67 146.565,-63.5001 146.565,-70.5001"/>
</g>
<!-- Node4 -->
<g id="node4" class="node"><title>Node4</title>
<g id="a_node4"><a xlink:href="classpdal_1_1Stage.html#ae89a62fb39c52a2067fc318359065625" target="_top" xlink:title="pdal::Stage::l_addArgs">
<polygon fill="white" stroke="black" points="155,-19.5 155,-38.5 271,-38.5 271,-19.5 155,-19.5"/>
<text text-anchor="middle" x="213" y="-26.5" font-family="Helvetica,sans-Serif" font-size="10.00">pdal::Stage::l_addArgs</text>
</a>
</g>
</g>
<!-- Node1&#45;&gt;Node4 -->
<g id="edge3" class="edge"><title>Node1&#45;&gt;Node4</title>
<path fill="none" stroke="midnightblue" d="M98.7298,-57.411C118.632,-52.4191 143.157,-46.2676 164.291,-40.9666"/>
<polygon fill="midnightblue" stroke="midnightblue" points="165.197,-44.3479 174.045,-38.5201 163.494,-37.5582 165.197,-44.3479"/>
</g>
<!-- Node5 -->
<g id="node5" class="node"><title>Node5</title>
<g id="a_node5"><a xlink:href="classpdal_1_1ProgramArgs.html#a9f773618ed928e9cef78aa1bf8278784" target="_top" xlink:title="pdal::ProgramArgs::add">
<polygon fill="white" stroke="black" points="316,-38.5 316,-57.5 435,-57.5 435,-38.5 316,-38.5"/>
<text text-anchor="middle" x="375.5" y="-45.5" font-family="Helvetica,sans-Serif" font-size="10.00">pdal::ProgramArgs::add</text>
</a>
</g>
</g>
<!-- Node4&#45;&gt;Node5 -->
<g id="edge4" class="edge"><title>Node4&#45;&gt;Node5</title>
<path fill="none" stroke="midnightblue" d="M271.038,-35.7522C282.258,-37.0804 294.14,-38.487 305.699,-39.8553"/>
<polygon fill="midnightblue" stroke="midnightblue" points="305.406,-43.345 315.748,-41.045 306.229,-36.3936 305.406,-43.345"/>
</g>
<!-- Node8 -->
<g id="node8" class="node"><title>Node8</title>
<g id="a_node8"><a xlink:href="classpdal_1_1Stage.html#af186e56bcda662a1342914818d490272" target="_top" xlink:title="pdal::Stage::readerAddArgs">
<polygon fill="white" stroke="black" points="307,-0.5 307,-19.5 444,-19.5 444,-0.5 307,-0.5"/>
<text text-anchor="middle" x="375.5" y="-7.5" font-family="Helvetica,sans-Serif" font-size="10.00">pdal::Stage::readerAddArgs</text>
</a>
</g>
</g>
<!-- Node4&#45;&gt;Node8 -->
<g id="edge7" class="edge"><title>Node4&#45;&gt;Node8</title>
<path fill="none" stroke="midnightblue" d="M271.038,-22.2478C279.392,-21.2588 288.114,-20.2264 296.795,-19.1987"/>
<polygon fill="midnightblue" stroke="midnightblue" points="297.425,-22.6487 306.944,-17.9973 296.602,-15.6972 297.425,-22.6487"/>
</g>
<!-- Node6 -->
<g id="node6" class="node"><title>Node6</title>
<g id="a_node6"><a xlink:href="namespacepdal_1_1Dimension.html#a4041a0eeee0ca503caad91db24affa0e" target="_top" xlink:title="pdal::Dimension::description">
<polygon fill="white" stroke="black" points="480,-57.5 480,-76.5 620,-76.5 620,-57.5 480,-57.5"/>
<text text-anchor="middle" x="550" y="-64.5" font-family="Helvetica,sans-Serif" font-size="10.00">pdal::Dimension::description</text>
</a>
</g>
</g>
<!-- Node5&#45;&gt;Node6 -->
<g id="edge5" class="edge"><title>Node5&#45;&gt;Node6</title>
<path fill="none" stroke="midnightblue" d="M435.382,-54.4856C446.479,-55.7078 458.25,-57.0044 469.849,-58.2819"/>
<polygon fill="midnightblue" stroke="midnightblue" points="469.653,-61.7814 479.976,-59.3974 470.419,-54.8235 469.653,-61.7814"/>
</g>
<!-- Node7 -->
<g id="node7" class="node"><title>Node7</title>
<g id="a_node7"><a xlink:href="namespacepdal_1_1Dimension.html#af3176b0b7e6b4be000317846cf7c2718" target="_top" xlink:title="pdal::Dimension::name">
<polygon fill="white" stroke="black" points="491.5,-19.5 491.5,-38.5 608.5,-38.5 608.5,-19.5 491.5,-19.5"/>
<text text-anchor="middle" x="550" y="-26.5" font-family="Helvetica,sans-Serif" font-size="10.00">pdal::Dimension::name</text>
</a>
</g>
</g>
<!-- Node5&#45;&gt;Node7 -->
<g id="edge6" class="edge"><title>Node5&#45;&gt;Node7</title>
<path fill="none" stroke="midnightblue" d="M435.382,-41.5144C450.053,-39.8985 465.902,-38.1528 480.974,-36.4928"/>
<polygon fill="midnightblue" stroke="midnightblue" points="481.703,-39.9337 491.259,-35.3599 480.936,-32.9758 481.703,-39.9337"/>
</g>
</g>
</svg>
