<?xml version="1.0" encoding="UTF-8" standalone="no"?>
<!DOCTYPE svg PUBLIC "-//W3C//DTD SVG 1.1//EN"
 "http://www.w3.org/Graphics/SVG/1.1/DTD/svg11.dtd">
<!-- Generated by graphviz version 2.38.0 (20140413.2041)
 -->
<!-- Title: pdal::entwine::Point::max Pages: 1 -->
<svg width="285pt" height="88pt"
 viewBox="0.00 0.00 285.00 88.00" xmlns="http://www.w3.org/2000/svg" xmlns:xlink="http://www.w3.org/1999/xlink">
<g id="graph0" class="graph" transform="scale(1 1) rotate(0) translate(4 84)">
<title>pdal::entwine::Point::max</title>
<polygon fill="white" stroke="none" points="-4,4 -4,-84 281,-84 281,4 -4,4"/>
<!-- Node1 -->
<g id="node1" class="node"><title>Node1</title>
<polygon fill="#bfbfbf" stroke="black" points="0,-30 0,-49 128,-49 128,-30 0,-30"/>
<text text-anchor="middle" x="64" y="-37" font-family="Helvetica,sans-Serif" font-size="10.00">pdal::entwine::Point::max</text>
</g>
<!-- Node2 -->
<g id="node2" class="node"><title>Node2</title>
<g id="a_node2"><a xlink:href="classpdal_1_1entwine_1_1Bounds.html#a2ac435e7eec69b71d8b8ecb3a98b938e" target="_top" xlink:title="pdal::entwine::Bounds\l::intersection">
<polygon fill="white" stroke="black" points="164,-49.5 164,-79.5 277,-79.5 277,-49.5 164,-49.5"/>
<text text-anchor="start" x="172" y="-67.5" font-family="Helvetica,sans-Serif" font-size="10.00">pdal::entwine::Bounds</text>
<text text-anchor="middle" x="220.5" y="-56.5" font-family="Helvetica,sans-Serif" font-size="10.00">::intersection</text>
</a>
</g>
</g>
<!-- Node1&#45;&gt;Node2 -->
<g id="edge1" class="edge"><title>Node1&#45;&gt;Node2</title>
<path fill="none" stroke="midnightblue" d="M133.816,-50.6352C143.871,-52.2622 154.119,-53.9205 163.867,-55.4979"/>
<polygon fill="midnightblue" stroke="midnightblue" points="134.281,-47.1651 123.851,-49.0227 133.163,-54.0752 134.281,-47.1651"/>
</g>
<!-- Node3 -->
<g id="node3" class="node"><title>Node3</title>
<g id="a_node3"><a xlink:href="classpdal_1_1entwine_1_1Bounds.html#a885aac2d965ca61c54c06386a86349e9" target="_top" xlink:title="pdal::entwine::Bounds\l::shrink">
<polygon fill="white" stroke="black" points="164,-0.5 164,-30.5 277,-30.5 277,-0.5 164,-0.5"/>
<text text-anchor="start" x="172" y="-18.5" font-family="Helvetica,sans-Serif" font-size="10.00">pdal::entwine::Bounds</text>
<text text-anchor="middle" x="220.5" y="-7.5" font-family="Helvetica,sans-Serif" font-size="10.00">::shrink</text>
</a>
</g>
</g>
<!-- Node1&#45;&gt;Node3 -->
<g id="edge2" class="edge"><title>Node1&#45;&gt;Node3</title>
<path fill="none" stroke="midnightblue" d="M136.39,-28.4104C145.56,-26.9858 154.842,-25.544 163.713,-24.1659"/>
<polygon fill="midnightblue" stroke="midnightblue" points="135.851,-24.952 126.506,-29.9456 136.925,-31.8691 135.851,-24.952"/>
</g>
</g>
</svg>
