<?xml version="1.0" encoding="UTF-8" standalone="no"?>
<!DOCTYPE svg PUBLIC "-//W3C//DTD SVG 1.1//EN"
 "http://www.w3.org/Graphics/SVG/1.1/DTD/svg11.dtd">
<!-- Generated by graphviz version 2.38.0 (20140413.2041)
 -->
<!-- Title: pdal::LasHeader::getBounds Pages: 1 -->
<svg width="616pt" height="88pt"
 viewBox="0.00 0.00 616.00 88.00" xmlns="http://www.w3.org/2000/svg" xmlns:xlink="http://www.w3.org/1999/xlink">
<g id="graph0" class="graph" transform="scale(1 1) rotate(0) translate(4 84)">
<title>pdal::LasHeader::getBounds</title>
<polygon fill="white" stroke="none" points="-4,4 -4,-84 612,-84 612,4 -4,4"/>
<!-- Node1 -->
<g id="node1" class="node"><title>Node1</title>
<polygon fill="#bfbfbf" stroke="black" points="0,-30 0,-49 140,-49 140,-30 0,-30"/>
<text text-anchor="middle" x="70" y="-37" font-family="Helvetica,sans-Serif" font-size="10.00">pdal::LasHeader::getBounds</text>
</g>
<!-- Node2 -->
<g id="node2" class="node"><title>Node2</title>
<g id="a_node2"><a xlink:href="classpdal_1_1nitfwrap_1_1NitfWrap.html#ac2b599d635483308c618daef6655d1af" target="_top" xlink:title="pdal::nitfwrap::NitfWrap\l::verifyLas">
<polygon fill="white" stroke="black" points="176,-24.5 176,-54.5 296,-54.5 296,-24.5 176,-24.5"/>
<text text-anchor="start" x="184" y="-42.5" font-family="Helvetica,sans-Serif" font-size="10.00">pdal::nitfwrap::NitfWrap</text>
<text text-anchor="middle" x="236" y="-31.5" font-family="Helvetica,sans-Serif" font-size="10.00">::verifyLas</text>
</a>
</g>
</g>
<!-- Node1&#45;&gt;Node2 -->
<g id="edge1" class="edge"><title>Node1&#45;&gt;Node2</title>
<path fill="none" stroke="midnightblue" d="M150.186,-39.5C158.835,-39.5 167.525,-39.5 175.872,-39.5"/>
<polygon fill="midnightblue" stroke="midnightblue" points="150.075,-36.0001 140.075,-39.5 150.075,-43.0001 150.075,-36.0001"/>
</g>
<!-- Node3 -->
<g id="node3" class="node"><title>Node3</title>
<g id="a_node3"><a xlink:href="classpdal_1_1nitfwrap_1_1NitfWrap.html#a427c1cc359051aed8f90ec5ba317de89" target="_top" xlink:title="pdal::nitfwrap::NitfWrap\l::unwrap">
<polygon fill="white" stroke="black" points="332,-49.5 332,-79.5 452,-79.5 452,-49.5 332,-49.5"/>
<text text-anchor="start" x="340" y="-67.5" font-family="Helvetica,sans-Serif" font-size="10.00">pdal::nitfwrap::NitfWrap</text>
<text text-anchor="middle" x="392" y="-56.5" font-family="Helvetica,sans-Serif" font-size="10.00">::unwrap</text>
</a>
</g>
</g>
<!-- Node2&#45;&gt;Node3 -->
<g id="edge2" class="edge"><title>Node2&#45;&gt;Node3</title>
<path fill="none" stroke="midnightblue" d="M306.089,-50.7158C314.672,-52.1092 323.388,-53.524 331.804,-54.8902"/>
<polygon fill="midnightblue" stroke="midnightblue" points="306.532,-47.2419 296.1,-49.0942 305.41,-54.1514 306.532,-47.2419"/>
</g>
<!-- Node5 -->
<g id="node5" class="node"><title>Node5</title>
<g id="a_node5"><a xlink:href="classpdal_1_1nitfwrap_1_1NitfWrap.html#aba62e4c086a16ff4d1a3b1c014dbbcc4" target="_top" xlink:title="pdal::nitfwrap::NitfWrap\l::verify">
<polygon fill="white" stroke="black" points="332,-0.5 332,-30.5 452,-30.5 452,-0.5 332,-0.5"/>
<text text-anchor="start" x="340" y="-18.5" font-family="Helvetica,sans-Serif" font-size="10.00">pdal::nitfwrap::NitfWrap</text>
<text text-anchor="middle" x="392" y="-7.5" font-family="Helvetica,sans-Serif" font-size="10.00">::verify</text>
</a>
</g>
</g>
<!-- Node2&#45;&gt;Node5 -->
<g id="edge4" class="edge"><title>Node2&#45;&gt;Node5</title>
<path fill="none" stroke="midnightblue" d="M306.089,-28.7329C314.672,-27.3952 323.388,-26.0369 331.804,-24.7254"/>
<polygon fill="midnightblue" stroke="midnightblue" points="305.442,-25.2914 296.1,-30.2896 306.52,-32.2079 305.442,-25.2914"/>
</g>
<!-- Node4 -->
<g id="node4" class="node"><title>Node4</title>
<g id="a_node4"><a xlink:href="classpdal_1_1nitfwrap_1_1NitfWrap.html#a507defc6c08af645c161ee875c58374a" target="_top" xlink:title="pdal::nitfwrap::NitfWrap\l::NitfWrap">
<polygon fill="white" stroke="black" points="488,-24.5 488,-54.5 608,-54.5 608,-24.5 488,-24.5"/>
<text text-anchor="start" x="496" y="-42.5" font-family="Helvetica,sans-Serif" font-size="10.00">pdal::nitfwrap::NitfWrap</text>
<text text-anchor="middle" x="548" y="-31.5" font-family="Helvetica,sans-Serif" font-size="10.00">::NitfWrap</text>
</a>
</g>
</g>
<!-- Node3&#45;&gt;Node4 -->
<g id="edge3" class="edge"><title>Node3&#45;&gt;Node4</title>
<path fill="none" stroke="midnightblue" d="M462.089,-53.2842C470.672,-51.8908 479.388,-50.476 487.804,-49.1098"/>
<polygon fill="midnightblue" stroke="midnightblue" points="461.41,-49.8486 452.1,-54.9058 462.532,-56.7581 461.41,-49.8486"/>
</g>
<!-- Node5&#45;&gt;Node4 -->
<g id="edge5" class="edge"><title>Node5&#45;&gt;Node4</title>
<path fill="none" stroke="midnightblue" d="M462.089,-26.2671C470.672,-27.6048 479.388,-28.9631 487.804,-30.2746"/>
<polygon fill="midnightblue" stroke="midnightblue" points="462.52,-22.7921 452.1,-24.7104 461.442,-29.7086 462.52,-22.7921"/>
</g>
</g>
</svg>
