<?xml version="1.0" encoding="UTF-8" standalone="no"?>
<!DOCTYPE svg PUBLIC "-//W3C//DTD SVG 1.1//EN"
 "http://www.w3.org/Graphics/SVG/1.1/DTD/svg11.dtd">
<!-- Generated by graphviz version 2.38.0 (20140413.2041)
 -->
<!-- Title: pdal::Stage::ready Pages: 1 -->
<svg width="589pt" height="1949pt"
 viewBox="0.00 0.00 589.00 1949.00" xmlns="http://www.w3.org/2000/svg" xmlns:xlink="http://www.w3.org/1999/xlink">
<g id="graph0" class="graph" transform="scale(1 1) rotate(0) translate(4 1945)">
<title>pdal::Stage::ready</title>
<polygon fill="white" stroke="none" points="-4,4 -4,-1945 585,-1945 585,4 -4,4"/>
<!-- Node1 -->
<g id="node1" class="node"><title>Node1</title>
<polygon fill="#bfbfbf" stroke="black" points="0,-563.5 0,-582.5 96,-582.5 96,-563.5 0,-563.5"/>
<text text-anchor="middle" x="48" y="-570.5" font-family="Helvetica,sans-Serif" font-size="10.00">pdal::Stage::ready</text>
</g>
<!-- Node2 -->
<g id="node2" class="node"><title>Node2</title>
<g id="a_node2"><a xlink:href="classpdal_1_1Stage.html#a1615c4aa5ec5e48f90d73f0e7a796935" target="_top" xlink:title="pdal::Stage::execute">
<polygon fill="white" stroke="black" points="132,-1041.5 132,-1060.5 239,-1060.5 239,-1041.5 132,-1041.5"/>
<text text-anchor="middle" x="185.5" y="-1048.5" font-family="Helvetica,sans-Serif" font-size="10.00">pdal::Stage::execute</text>
</a>
</g>
</g>
<!-- Node1&#45;&gt;Node2 -->
<g id="edge1" class="edge"><title>Node1&#45;&gt;Node2</title>
<path fill="none" stroke="midnightblue" d="M54.5023,-592.41C77.4621,-673.405 165.203,-982.927 181.787,-1041.43"/>
<polygon fill="midnightblue" stroke="midnightblue" points="57.8013,-591.215 51.7067,-582.548 51.0667,-593.124 57.8013,-591.215"/>
</g>
<!-- Node47 -->
<g id="node47" class="node"><title>Node47</title>
<g id="a_node47"><a xlink:href="classpdal_1_1StageWrapper.html#a715049187e7a31bee7e093d791e73123" target="_top" xlink:title="pdal::StageWrapper\l::ready">
<polygon fill="white" stroke="black" points="134,-57 134,-87 237,-87 237,-57 134,-57"/>
<text text-anchor="start" x="142" y="-75" font-family="Helvetica,sans-Serif" font-size="10.00">pdal::StageWrapper</text>
<text text-anchor="middle" x="185.5" y="-64" font-family="Helvetica,sans-Serif" font-size="10.00">::ready</text>
</a>
</g>
</g>
<!-- Node1&#45;&gt;Node47 -->
<g id="edge47" class="edge"><title>Node1&#45;&gt;Node47</title>
<path fill="none" stroke="midnightblue" d="M54.2654,-553.531C76.2881,-472.105 160.779,-159.707 180.409,-87.1262"/>
<polygon fill="midnightblue" stroke="midnightblue" points="50.818,-552.872 51.5858,-563.439 57.5753,-554.7 50.818,-552.872"/>
</g>
<!-- Node2&#45;&gt;Node2 -->
<g id="edge22" class="edge"><title>Node2&#45;&gt;Node2</title>
<path fill="none" stroke="midnightblue" d="M160.202,-1070.03C161.582,-1075.13 170.015,-1079 185.5,-1079 209.672,-1079 216.659,-1069.57 206.462,-1060.76"/>
<polygon fill="midnightblue" stroke="midnightblue" points="163.473,-1071.3 164.538,-1060.76 157.132,-1068.33 163.473,-1071.3"/>
</g>
<!-- Node3 -->
<g id="node3" class="node"><title>Node3</title>
<g id="a_node3"><a xlink:href="classSupport.html#a0f6b5ed9b20a213a0607f3b989b81cec" target="_top" xlink:title="Support::checkXYZ">
<polygon fill="white" stroke="black" points="291,-1921.5 291,-1940.5 393,-1940.5 393,-1921.5 291,-1921.5"/>
<text text-anchor="middle" x="342" y="-1928.5" font-family="Helvetica,sans-Serif" font-size="10.00">Support::checkXYZ</text>
</a>
</g>
</g>
<!-- Node2&#45;&gt;Node3 -->
<g id="edge2" class="edge"><title>Node2&#45;&gt;Node3</title>
<path fill="none" stroke="midnightblue" d="M187.241,-1070.85C191.986,-1193.37 219.671,-1843.9 275,-1911 279.266,-1916.17 284.823,-1920.04 290.903,-1922.92"/>
<polygon fill="midnightblue" stroke="midnightblue" points="190.732,-1070.53 186.854,-1060.67 183.737,-1070.8 190.732,-1070.53"/>
</g>
<!-- Node5 -->
<g id="node5" class="node"><title>Node5</title>
<g id="a_node5"><a xlink:href="classGDALReaderTypeTest.html#a7ccb2f33deda3d1840509c81f3718ca8" target="_top" xlink:title="GDALReaderTypeTest\l::compare">
<polygon fill="white" stroke="black" points="284,-1872 284,-1902 400,-1902 400,-1872 284,-1872"/>
<text text-anchor="start" x="292" y="-1890" font-family="Helvetica,sans-Serif" font-size="10.00">GDALReaderTypeTest</text>
<text text-anchor="middle" x="342" y="-1879" font-family="Helvetica,sans-Serif" font-size="10.00">::compare</text>
</a>
</g>
</g>
<!-- Node2&#45;&gt;Node5 -->
<g id="edge4" class="edge"><title>Node2&#45;&gt;Node5</title>
<path fill="none" stroke="midnightblue" d="M187.431,-1070.76C193.147,-1188.74 224.923,-1797.3 275,-1862 278,-1865.88 281.674,-1869.15 285.738,-1871.92"/>
<polygon fill="midnightblue" stroke="midnightblue" points="190.921,-1070.46 186.946,-1060.64 183.929,-1070.8 190.921,-1070.46"/>
</g>
<!-- Node6 -->
<g id="node6" class="node"><title>Node6</title>
<g id="a_node6"><a xlink:href="OCITest_8cpp.html#aa992a42d3b52c376e3902f1412402781" target="_top" xlink:title="compare">
<polygon fill="white" stroke="black" points="315,-1833.5 315,-1852.5 369,-1852.5 369,-1833.5 315,-1833.5"/>
<text text-anchor="middle" x="342" y="-1840.5" font-family="Helvetica,sans-Serif" font-size="10.00">compare</text>
</a>
</g>
</g>
<!-- Node2&#45;&gt;Node6 -->
<g id="edge5" class="edge"><title>Node2&#45;&gt;Node6</title>
<path fill="none" stroke="midnightblue" d="M187.475,-1070.95C193.28,-1186.3 224.756,-1764.62 275,-1824 284.704,-1835.47 300.844,-1840.25 314.734,-1842.15"/>
<polygon fill="midnightblue" stroke="midnightblue" points="190.96,-1070.56 186.968,-1060.75 183.968,-1070.91 190.96,-1070.56"/>
</g>
<!-- Node10 -->
<g id="node10" class="node"><title>Node10</title>
<g id="a_node10"><a xlink:href="LasWriterTest_8cpp.html#a3303a951654ed83ac6abc2a44e07b2d3" target="_top" xlink:title="compareFiles">
<polygon fill="white" stroke="red" points="304.5,-1795.5 304.5,-1814.5 379.5,-1814.5 379.5,-1795.5 304.5,-1795.5"/>
<text text-anchor="middle" x="342" y="-1802.5" font-family="Helvetica,sans-Serif" font-size="10.00">compareFiles</text>
</a>
</g>
</g>
<!-- Node2&#45;&gt;Node10 -->
<g id="edge9" class="edge"><title>Node2&#45;&gt;Node10</title>
<path fill="none" stroke="midnightblue" d="M187.582,-1070.66C193.873,-1181.93 227.128,-1729.76 275,-1786 282.342,-1794.63 293.324,-1799.47 304.233,-1802.14"/>
<polygon fill="midnightblue" stroke="midnightblue" points="191.068,-1070.32 187.016,-1060.53 184.079,-1070.71 191.068,-1070.32"/>
</g>
<!-- Node11 -->
<g id="node11" class="node"><title>Node11</title>
<g id="a_node11"><a xlink:href="TextReaderTest_8cpp.html#a509a22500d50c63ed7f1575067f5879d" target="_top" xlink:title="compareTextLas">
<polygon fill="white" stroke="red" points="297.5,-1757.5 297.5,-1776.5 386.5,-1776.5 386.5,-1757.5 297.5,-1757.5"/>
<text text-anchor="middle" x="342" y="-1764.5" font-family="Helvetica,sans-Serif" font-size="10.00">compareTextLas</text>
</a>
</g>
</g>
<!-- Node2&#45;&gt;Node11 -->
<g id="edge10" class="edge"><title>Node2&#45;&gt;Node11</title>
<path fill="none" stroke="midnightblue" d="M186.193,-1070.77C185.009,-1173.17 184.638,-1642.53 275,-1748 280.818,-1754.79 288.892,-1759.23 297.401,-1762.12"/>
<polygon fill="midnightblue" stroke="midnightblue" points="189.695,-1070.66 186.329,-1060.61 182.696,-1070.56 189.695,-1070.66"/>
</g>
<!-- Node12 -->
<g id="node12" class="node"><title>Node12</title>
<g id="a_node12"><a xlink:href="TextReaderTest_8cpp.html#afffb357c566f20e6383568d28525817a" target="_top" xlink:title="compareTextLasStreaming">
<polygon fill="white" stroke="red" points="275,-1719.5 275,-1738.5 409,-1738.5 409,-1719.5 275,-1719.5"/>
<text text-anchor="middle" x="342" y="-1726.5" font-family="Helvetica,sans-Serif" font-size="10.00">compareTextLasStreaming</text>
</a>
</g>
</g>
<!-- Node2&#45;&gt;Node12 -->
<g id="edge11" class="edge"><title>Node2&#45;&gt;Node12</title>
<path fill="none" stroke="midnightblue" d="M186.354,-1070.62C186.021,-1169.33 189.394,-1610.8 275,-1710 278.35,-1713.88 282.436,-1717 286.918,-1719.49"/>
<polygon fill="midnightblue" stroke="midnightblue" points="189.855,-1070.57 186.407,-1060.55 182.855,-1070.53 189.855,-1070.57"/>
</g>
<!-- Node13 -->
<g id="node13" class="node"><title>Node13</title>
<g id="a_node13"><a xlink:href="classpdal_1_1MyKernel.html#a2aa834686cb68aab88b9d40df48d6f13" target="_top" xlink:title="pdal::MyKernel::execute">
<polygon fill="white" stroke="black" points="281,-1681.5 281,-1700.5 403,-1700.5 403,-1681.5 281,-1681.5"/>
<text text-anchor="middle" x="342" y="-1688.5" font-family="Helvetica,sans-Serif" font-size="10.00">pdal::MyKernel::execute</text>
</a>
</g>
</g>
<!-- Node2&#45;&gt;Node13 -->
<g id="edge12" class="edge"><title>Node2&#45;&gt;Node13</title>
<path fill="none" stroke="midnightblue" d="M186.535,-1070.99C187.107,-1166.92 194.289,-1579.24 275,-1672 278.365,-1675.87 282.462,-1678.97 286.95,-1681.46"/>
<polygon fill="midnightblue" stroke="midnightblue" points="190.034,-1070.89 186.493,-1060.9 183.035,-1070.92 190.034,-1070.89"/>
</g>
<!-- Node14 -->
<g id="node14" class="node"><title>Node14</title>
<g id="a_node14"><a xlink:href="classpdal_1_1PCLKernel.html#aab22ad378b4c29bbe5dd69ad6eb0c6ef" target="_top" xlink:title="pdal::PCLKernel::execute">
<polygon fill="white" stroke="black" points="278,-1643.5 278,-1662.5 406,-1662.5 406,-1643.5 278,-1643.5"/>
<text text-anchor="middle" x="342" y="-1650.5" font-family="Helvetica,sans-Serif" font-size="10.00">pdal::PCLKernel::execute</text>
</a>
</g>
</g>
<!-- Node2&#45;&gt;Node14 -->
<g id="edge13" class="edge"><title>Node2&#45;&gt;Node14</title>
<path fill="none" stroke="midnightblue" d="M186.77,-1070.86C188.418,-1162.77 199.768,-1546.13 275,-1633 278.762,-1637.34 283.434,-1640.76 288.542,-1643.45"/>
<polygon fill="midnightblue" stroke="midnightblue" points="190.267,-1070.65 186.608,-1060.71 183.268,-1070.76 190.267,-1070.65"/>
</g>
<!-- Node15 -->
<g id="node15" class="node"><title>Node15</title>
<g id="a_node15"><a xlink:href="classpdal_1_1SmoothKernel.html#a12357e09bb47a0567ed0af7089c3739f" target="_top" xlink:title="pdal::SmoothKernel\l::execute">
<polygon fill="white" stroke="black" points="291,-1594 291,-1624 393,-1624 393,-1594 291,-1594"/>
<text text-anchor="start" x="299" y="-1612" font-family="Helvetica,sans-Serif" font-size="10.00">pdal::SmoothKernel</text>
<text text-anchor="middle" x="342" y="-1601" font-family="Helvetica,sans-Serif" font-size="10.00">::execute</text>
</a>
</g>
</g>
<!-- Node2&#45;&gt;Node15 -->
<g id="edge14" class="edge"><title>Node2&#45;&gt;Node15</title>
<path fill="none" stroke="midnightblue" d="M187.205,-1070.71C190.677,-1157.26 208.559,-1502.94 275,-1584 279.272,-1589.21 284.755,-1593.34 290.731,-1596.6"/>
<polygon fill="midnightblue" stroke="midnightblue" points="190.701,-1070.52 186.822,-1060.67 183.706,-1070.79 190.701,-1070.52"/>
</g>
<!-- Node16 -->
<g id="node16" class="node"><title>Node16</title>
<g id="a_node16"><a xlink:href="classpdal_1_1SortKernel.html#a35de433cd919ac9fc87a957395323820" target="_top" xlink:title="pdal::SortKernel::execute">
<polygon fill="white" stroke="black" points="278.5,-1555.5 278.5,-1574.5 405.5,-1574.5 405.5,-1555.5 278.5,-1555.5"/>
<text text-anchor="middle" x="342" y="-1562.5" font-family="Helvetica,sans-Serif" font-size="10.00">pdal::SortKernel::execute</text>
</a>
</g>
</g>
<!-- Node2&#45;&gt;Node16 -->
<g id="edge15" class="edge"><title>Node2&#45;&gt;Node16</title>
<path fill="none" stroke="midnightblue" d="M187.364,-1070.94C191.365,-1154.15 210.711,-1472.71 275,-1545 278.819,-1549.29 283.527,-1552.68 288.655,-1555.35"/>
<polygon fill="midnightblue" stroke="midnightblue" points="190.854,-1070.64 186.899,-1060.81 183.862,-1070.96 190.854,-1070.64"/>
</g>
<!-- Node17 -->
<g id="node17" class="node"><title>Node17</title>
<g id="a_node17"><a xlink:href="classpdal_1_1MergeKernel.html#a0f279da4375db6bb051489b6588fa897" target="_top" xlink:title="pdal::MergeKernel::\lexecute">
<polygon fill="white" stroke="black" points="291.5,-1506 291.5,-1536 392.5,-1536 392.5,-1506 291.5,-1506"/>
<text text-anchor="start" x="299.5" y="-1524" font-family="Helvetica,sans-Serif" font-size="10.00">pdal::MergeKernel::</text>
<text text-anchor="middle" x="342" y="-1513" font-family="Helvetica,sans-Serif" font-size="10.00">execute</text>
</a>
</g>
</g>
<!-- Node2&#45;&gt;Node17 -->
<g id="edge16" class="edge"><title>Node2&#45;&gt;Node17</title>
<path fill="none" stroke="midnightblue" d="M187.921,-1070.79C193.85,-1148.26 218.964,-1429.81 275,-1496 279.434,-1501.24 285.086,-1505.38 291.211,-1508.65"/>
<polygon fill="midnightblue" stroke="midnightblue" points="191.39,-1070.25 187.158,-1060.54 184.409,-1070.77 191.39,-1070.25"/>
</g>
<!-- Node18 -->
<g id="node18" class="node"><title>Node18</title>
<g id="a_node18"><a xlink:href="classpdal_1_1SplitKernel.html#aa93e386ee8d67c65d5c31d39ec7c9971" target="_top" xlink:title="pdal::SplitKernel::\lexecute">
<polygon fill="white" stroke="black" points="295,-1457 295,-1487 389,-1487 389,-1457 295,-1457"/>
<text text-anchor="start" x="303" y="-1475" font-family="Helvetica,sans-Serif" font-size="10.00">pdal::SplitKernel::</text>
<text text-anchor="middle" x="342" y="-1464" font-family="Helvetica,sans-Serif" font-size="10.00">execute</text>
</a>
</g>
</g>
<!-- Node2&#45;&gt;Node18 -->
<g id="edge17" class="edge"><title>Node2&#45;&gt;Node18</title>
<path fill="none" stroke="midnightblue" d="M188.459,-1070.88C195.924,-1142.9 224.729,-1389.02 275,-1447 280.378,-1453.2 287.461,-1457.87 294.99,-1461.38"/>
<polygon fill="midnightblue" stroke="midnightblue" points="191.901,-1070.13 187.411,-1060.53 184.937,-1070.83 191.901,-1070.13"/>
</g>
<!-- Node19 -->
<g id="node19" class="node"><title>Node19</title>
<g id="a_node19"><a xlink:href="classpdal_1_1RandomKernel.html#ae101bc78cfab26709852a1ef31d7a38f" target="_top" xlink:title="pdal::RandomKernel\l::execute">
<polygon fill="white" stroke="black" points="289.5,-1408 289.5,-1438 394.5,-1438 394.5,-1408 289.5,-1408"/>
<text text-anchor="start" x="297.5" y="-1426" font-family="Helvetica,sans-Serif" font-size="10.00">pdal::RandomKernel</text>
<text text-anchor="middle" x="342" y="-1415" font-family="Helvetica,sans-Serif" font-size="10.00">::execute</text>
</a>
</g>
</g>
<!-- Node2&#45;&gt;Node19 -->
<g id="edge18" class="edge"><title>Node2&#45;&gt;Node19</title>
<path fill="none" stroke="midnightblue" d="M189.145,-1070.94C198.288,-1137.12 230.452,-1348.14 275,-1398 279.082,-1402.57 284.087,-1406.31 289.499,-1409.36"/>
<polygon fill="midnightblue" stroke="midnightblue" points="192.562,-1070.09 187.75,-1060.65 185.626,-1071.03 192.562,-1070.09"/>
</g>
<!-- Node20 -->
<g id="node20" class="node"><title>Node20</title>
<g id="a_node20"><a xlink:href="classpdal_1_1DiffKernel.html#a5594ac6561864e2c80a26545397d56f6" target="_top" xlink:title="pdal::DiffKernel::execute">
<polygon fill="white" stroke="black" points="279.5,-1369.5 279.5,-1388.5 404.5,-1388.5 404.5,-1369.5 279.5,-1369.5"/>
<text text-anchor="middle" x="342" y="-1376.5" font-family="Helvetica,sans-Serif" font-size="10.00">pdal::DiffKernel::execute</text>
</a>
</g>
</g>
<!-- Node2&#45;&gt;Node20 -->
<g id="edge19" class="edge"><title>Node2&#45;&gt;Node20</title>
<path fill="none" stroke="midnightblue" d="M186.1,-1070.92C186.131,-1125.12 193.86,-1276.68 275,-1359 279.286,-1363.35 284.484,-1366.76 290.061,-1369.43"/>
<polygon fill="midnightblue" stroke="midnightblue" points="189.602,-1070.66 186.191,-1060.63 182.602,-1070.6 189.602,-1070.66"/>
</g>
<!-- Node21 -->
<g id="node21" class="node"><title>Node21</title>
<g id="a_node21"><a xlink:href="classpdal_1_1GroundKernel.html#a652b5f932cd5e982b887917a82f692e2" target="_top" xlink:title="pdal::GroundKernel\l::execute">
<polygon fill="white" stroke="black" points="292,-1320 292,-1350 392,-1350 392,-1320 292,-1320"/>
<text text-anchor="start" x="300" y="-1338" font-family="Helvetica,sans-Serif" font-size="10.00">pdal::GroundKernel</text>
<text text-anchor="middle" x="342" y="-1327" font-family="Helvetica,sans-Serif" font-size="10.00">::execute</text>
</a>
</g>
</g>
<!-- Node2&#45;&gt;Node21 -->
<g id="edge20" class="edge"><title>Node2&#45;&gt;Node21</title>
<path fill="none" stroke="midnightblue" d="M187.696,-1070.95C191.611,-1118.7 207.993,-1240.76 275,-1310 279.772,-1314.93 285.614,-1318.9 291.83,-1322.09"/>
<polygon fill="midnightblue" stroke="midnightblue" points="191.169,-1070.45 186.961,-1060.72 184.187,-1070.95 191.169,-1070.45"/>
</g>
<!-- Node22 -->
<g id="node22" class="node"><title>Node22</title>
<g id="a_node22"><a xlink:href="classpdal_1_1PipelineManager.html#a826f2b5b837f610c14d18777b595abff" target="_top" xlink:title="pdal::PipelineManager\l::execute">
<polygon fill="white" stroke="red" points="285.5,-1271 285.5,-1301 398.5,-1301 398.5,-1271 285.5,-1271"/>
<text text-anchor="start" x="293.5" y="-1289" font-family="Helvetica,sans-Serif" font-size="10.00">pdal::PipelineManager</text>
<text text-anchor="middle" x="342" y="-1278" font-family="Helvetica,sans-Serif" font-size="10.00">::execute</text>
</a>
</g>
</g>
<!-- Node2&#45;&gt;Node22 -->
<g id="edge21" class="edge"><title>Node2&#45;&gt;Node22</title>
<path fill="none" stroke="midnightblue" d="M189.546,-1071C196.834,-1112.17 219.02,-1207.04 275,-1261 278.97,-1264.83 283.583,-1268.08 288.492,-1270.84"/>
<polygon fill="midnightblue" stroke="midnightblue" points="192.959,-1070.18 187.87,-1060.89 186.053,-1071.33 192.959,-1070.18"/>
</g>
<!-- Node23 -->
<g id="node23" class="node"><title>Node23</title>
<g id="a_node23"><a xlink:href="classpdal_1_1PipelineManager.html#a657ff17a1dce54e42bd3f152759a896c" target="_top" xlink:title="pdal::PipelineManager\l::executeStream">
<polygon fill="white" stroke="red" points="285.5,-1222 285.5,-1252 398.5,-1252 398.5,-1222 285.5,-1222"/>
<text text-anchor="start" x="293.5" y="-1240" font-family="Helvetica,sans-Serif" font-size="10.00">pdal::PipelineManager</text>
<text text-anchor="middle" x="342" y="-1229" font-family="Helvetica,sans-Serif" font-size="10.00">::executeStream</text>
</a>
</g>
</g>
<!-- Node2&#45;&gt;Node23 -->
<g id="edge23" class="edge"><title>Node2&#45;&gt;Node23</title>
<path fill="none" stroke="midnightblue" d="M192.372,-1070.84C203.284,-1104.45 229.781,-1172.73 275,-1212 279.44,-1215.86 284.536,-1219.15 289.885,-1221.94"/>
<polygon fill="midnightblue" stroke="midnightblue" points="195.58,-1069.37 189.264,-1060.87 188.897,-1071.46 195.58,-1069.37"/>
</g>
<!-- Node24 -->
<g id="node24" class="node"><title>Node24</title>
<g id="a_node24"><a xlink:href="CompressionTest_8cpp.html#a6d46cc9b57a277b3a7c486859232bcf8" target="_top" xlink:title="getBytes">
<polygon fill="white" stroke="black" points="314,-1183.5 314,-1202.5 370,-1202.5 370,-1183.5 314,-1183.5"/>
<text text-anchor="middle" x="342" y="-1190.5" font-family="Helvetica,sans-Serif" font-size="10.00">getBytes</text>
</a>
</g>
</g>
<!-- Node2&#45;&gt;Node24 -->
<g id="edge24" class="edge"><title>Node2&#45;&gt;Node24</title>
<path fill="none" stroke="midnightblue" d="M195.123,-1069.65C208.465,-1096.46 236.631,-1145.68 275,-1173 286.411,-1181.12 301.178,-1186 313.849,-1188.9"/>
<polygon fill="midnightblue" stroke="midnightblue" points="198.238,-1068.05 190.745,-1060.56 191.932,-1071.09 198.238,-1068.05"/>
</g>
<!-- Node25 -->
<g id="node25" class="node"><title>Node25</title>
<g id="a_node25"><a xlink:href="classpdal_1_1TIndexKernel.html#a496ad191832c2af610f60ae5ef00d1d0" target="_top" xlink:title="pdal::TIndexKernel\l::getFileInfo">
<polygon fill="white" stroke="red" points="293,-1134 293,-1164 391,-1164 391,-1134 293,-1134"/>
<text text-anchor="start" x="301" y="-1152" font-family="Helvetica,sans-Serif" font-size="10.00">pdal::TIndexKernel</text>
<text text-anchor="middle" x="342" y="-1141" font-family="Helvetica,sans-Serif" font-size="10.00">::getFileInfo</text>
</a>
</g>
</g>
<!-- Node2&#45;&gt;Node25 -->
<g id="edge25" class="edge"><title>Node2&#45;&gt;Node25</title>
<path fill="none" stroke="midnightblue" d="M203.473,-1067.92C220.408,-1084.06 247.762,-1108.19 275,-1124 281.358,-1127.69 288.362,-1131.02 295.358,-1133.97"/>
<polygon fill="midnightblue" stroke="midnightblue" points="205.656,-1065.16 196.042,-1060.71 200.782,-1070.19 205.656,-1065.16"/>
</g>
<!-- Node26 -->
<g id="node26" class="node"><title>Node26</title>
<g id="a_node26"><a xlink:href="classpdal_1_1HausdorffKernel.html#a1d3664d111d8b5abc23ab609e3b9163e" target="_top" xlink:title="pdal::HausdorffKernel\l::loadSet">
<polygon fill="white" stroke="red" points="286.5,-1085 286.5,-1115 397.5,-1115 397.5,-1085 286.5,-1085"/>
<text text-anchor="start" x="294.5" y="-1103" font-family="Helvetica,sans-Serif" font-size="10.00">pdal::HausdorffKernel</text>
<text text-anchor="middle" x="342" y="-1092" font-family="Helvetica,sans-Serif" font-size="10.00">::loadSet</text>
</a>
</g>
</g>
<!-- Node2&#45;&gt;Node26 -->
<g id="edge26" class="edge"><title>Node2&#45;&gt;Node26</title>
<path fill="none" stroke="midnightblue" d="M226.327,-1063.63C246.864,-1070.14 272.053,-1078.13 293.588,-1084.96"/>
<polygon fill="midnightblue" stroke="midnightblue" points="227.246,-1060.25 216.656,-1060.56 225.13,-1066.92 227.246,-1060.25"/>
</g>
<!-- Node27 -->
<g id="node27" class="node"><title>Node27</title>
<g id="a_node27"><a xlink:href="classpdal_1_1DeltaKernel.html#a9f78c94029ba013d88acd41301de7ee2" target="_top" xlink:title="pdal::DeltaKernel::\lloadSet">
<polygon fill="white" stroke="red" points="293,-1036 293,-1066 391,-1066 391,-1036 293,-1036"/>
<text text-anchor="start" x="301" y="-1054" font-family="Helvetica,sans-Serif" font-size="10.00">pdal::DeltaKernel::</text>
<text text-anchor="middle" x="342" y="-1043" font-family="Helvetica,sans-Serif" font-size="10.00">loadSet</text>
</a>
</g>
</g>
<!-- Node2&#45;&gt;Node27 -->
<g id="edge27" class="edge"><title>Node2&#45;&gt;Node27</title>
<path fill="none" stroke="midnightblue" d="M249.612,-1051C264.067,-1051 279.206,-1051 292.91,-1051"/>
<polygon fill="midnightblue" stroke="midnightblue" points="249.238,-1047.5 239.238,-1051 249.238,-1054.5 249.238,-1047.5"/>
</g>
<!-- Node28 -->
<g id="node28" class="node"><title>Node28</title>
<g id="a_node28"><a xlink:href="tutorial_8cpp.html#a0ddf1224851353fc92bfbff6f499fa97" target="_top" xlink:title="main">
<polygon fill="white" stroke="black" points="323,-997.5 323,-1016.5 361,-1016.5 361,-997.5 323,-997.5"/>
<text text-anchor="middle" x="342" y="-1004.5" font-family="Helvetica,sans-Serif" font-size="10.00">main</text>
</a>
</g>
</g>
<!-- Node2&#45;&gt;Node28 -->
<g id="edge28" class="edge"><title>Node2&#45;&gt;Node28</title>
<path fill="none" stroke="midnightblue" d="M229.664,-1038.71C260.432,-1029.94 300.224,-1018.61 322.951,-1012.14"/>
<polygon fill="midnightblue" stroke="midnightblue" points="228.683,-1035.35 220.024,-1041.45 230.6,-1042.08 228.683,-1035.35"/>
</g>
<!-- Node29 -->
<g id="node29" class="node"><title>Node29</title>
<g id="a_node29"><a xlink:href="classpdal_1_1TIndexKernel.html#a260c46e9fc8a9e5dddd395c93422dfa6" target="_top" xlink:title="pdal::TIndexKernel\l::mergeFile">
<polygon fill="white" stroke="red" points="293,-948 293,-978 391,-978 391,-948 293,-948"/>
<text text-anchor="start" x="301" y="-966" font-family="Helvetica,sans-Serif" font-size="10.00">pdal::TIndexKernel</text>
<text text-anchor="middle" x="342" y="-955" font-family="Helvetica,sans-Serif" font-size="10.00">::mergeFile</text>
</a>
</g>
</g>
<!-- Node2&#45;&gt;Node29 -->
<g id="edge29" class="edge"><title>Node2&#45;&gt;Node29</title>
<path fill="none" stroke="midnightblue" d="M206.074,-1034.83C223.4,-1021.07 249.781,-1001.46 275,-988 281.81,-984.365 289.265,-981.004 296.635,-978.004"/>
<polygon fill="midnightblue" stroke="midnightblue" points="203.481,-1032.42 197.893,-1041.42 207.875,-1037.87 203.481,-1032.42"/>
</g>
<!-- Node30 -->
<g id="node30" class="node"><title>Node30</title>
<g id="a_node30"><a xlink:href="classpdal_1_1TIndexReader.html#aab30ff453c7bb99f11295f9a6395f9a9" target="_top" xlink:title="pdal::TIndexReader\l::ready">
<polygon fill="white" stroke="black" points="291,-899 291,-929 393,-929 393,-899 291,-899"/>
<text text-anchor="start" x="299" y="-917" font-family="Helvetica,sans-Serif" font-size="10.00">pdal::TIndexReader</text>
<text text-anchor="middle" x="342" y="-906" font-family="Helvetica,sans-Serif" font-size="10.00">::ready</text>
</a>
</g>
</g>
<!-- Node2&#45;&gt;Node30 -->
<g id="edge30" class="edge"><title>Node2&#45;&gt;Node30</title>
<path fill="none" stroke="midnightblue" d="M196.489,-1032.57C210.8,-1007.79 239.387,-963.835 275,-938 279.836,-934.492 285.239,-931.448 290.814,-928.818"/>
<polygon fill="midnightblue" stroke="midnightblue" points="193.407,-1030.91 191.561,-1041.34 199.51,-1034.34 193.407,-1030.91"/>
</g>
<!-- Node31 -->
<g id="node31" class="node"><title>Node31</title>
<g id="a_node31"><a xlink:href="namespaceanonymous__namespace_02GDALWriterTest_8cpp_03.html#afa82c052f6116c30a757052c3013ec06" target="_top" xlink:title="anonymous_namespace\l\{GDALWriterTest::cpp\}\l::runGdalWriter">
<polygon fill="white" stroke="red" points="281,-839.5 281,-880.5 403,-880.5 403,-839.5 281,-839.5"/>
<text text-anchor="start" x="289" y="-868.5" font-family="Helvetica,sans-Serif" font-size="10.00">anonymous_namespace</text>
<text text-anchor="start" x="289" y="-857.5" font-family="Helvetica,sans-Serif" font-size="10.00">{GDALWriterTest::cpp}</text>
<text text-anchor="middle" x="342" y="-846.5" font-family="Helvetica,sans-Serif" font-size="10.00">::runGdalWriter</text>
</a>
</g>
</g>
<!-- Node2&#45;&gt;Node31 -->
<g id="edge31" class="edge"><title>Node2&#45;&gt;Node31</title>
<path fill="none" stroke="midnightblue" d="M192.559,-1031.28C203.751,-997.843 230.658,-929.684 275,-889 278.32,-885.954 282.011,-883.191 285.904,-880.692"/>
<polygon fill="midnightblue" stroke="midnightblue" points="189.098,-1030.61 189.363,-1041.2 195.761,-1032.76 189.098,-1030.61"/>
</g>
<!-- Node32 -->
<g id="node32" class="node"><title>Node32</title>
<g id="a_node32"><a xlink:href="namespaceanonymous__namespace_02GDALWriterTest_8cpp_03.html#ab4af538727de76014b4faf8c8b616793" target="_top" xlink:title="anonymous_namespace\l\{GDALWriterTest::cpp\}\l::runGdalWriter2">
<polygon fill="white" stroke="red" points="281,-779.5 281,-820.5 403,-820.5 403,-779.5 281,-779.5"/>
<text text-anchor="start" x="289" y="-808.5" font-family="Helvetica,sans-Serif" font-size="10.00">anonymous_namespace</text>
<text text-anchor="start" x="289" y="-797.5" font-family="Helvetica,sans-Serif" font-size="10.00">{GDALWriterTest::cpp}</text>
<text text-anchor="middle" x="342" y="-786.5" font-family="Helvetica,sans-Serif" font-size="10.00">::runGdalWriter2</text>
</a>
</g>
</g>
<!-- Node2&#45;&gt;Node32 -->
<g id="edge32" class="edge"><title>Node2&#45;&gt;Node32</title>
<path fill="none" stroke="midnightblue" d="M189.38,-1031.13C196.476,-988.874 218.513,-889.131 275,-830 278.304,-826.542 282.081,-823.449 286.118,-820.689"/>
<polygon fill="midnightblue" stroke="midnightblue" points="185.888,-1030.8 187.79,-1041.23 192.803,-1031.89 185.888,-1030.8"/>
</g>
<!-- Node33 -->
<g id="node33" class="node"><title>Node33</title>
<g id="a_node33"><a xlink:href="namespaceanonymous__namespace_02ColorinterpFilterTest_8cpp_03.html#a2c7a8c71c9e37bd0e7821a01064bd259" target="_top" xlink:title="anonymous_namespace\l\{ColorinterpFilterTest\l::cpp\}::standardTest">
<polygon fill="white" stroke="red" points="281,-719.5 281,-760.5 403,-760.5 403,-719.5 281,-719.5"/>
<text text-anchor="start" x="289" y="-748.5" font-family="Helvetica,sans-Serif" font-size="10.00">anonymous_namespace</text>
<text text-anchor="start" x="289" y="-737.5" font-family="Helvetica,sans-Serif" font-size="10.00">{ColorinterpFilterTest</text>
<text text-anchor="middle" x="342" y="-726.5" font-family="Helvetica,sans-Serif" font-size="10.00">::cpp}::standardTest</text>
</a>
</g>
</g>
<!-- Node2&#45;&gt;Node33 -->
<g id="edge33" class="edge"><title>Node2&#45;&gt;Node33</title>
<path fill="none" stroke="midnightblue" d="M187.361,-1031.36C190.553,-981.509 205.488,-848.517 275,-770 278.087,-766.513 281.66,-763.407 285.515,-760.646"/>
<polygon fill="midnightblue" stroke="midnightblue" points="183.862,-1031.25 186.809,-1041.42 190.851,-1031.63 183.862,-1031.25"/>
</g>
<!-- Node34 -->
<g id="node34" class="node"><title>Node34</title>
<g id="a_node34"><a xlink:href="LasReaderTest_8cpp.html#a3fe845027bd4709eb9126245edd6f3c6" target="_top" xlink:title="streamTest">
<polygon fill="white" stroke="red" points="309,-681.5 309,-700.5 375,-700.5 375,-681.5 309,-681.5"/>
<text text-anchor="middle" x="342" y="-688.5" font-family="Helvetica,sans-Serif" font-size="10.00">streamTest</text>
</a>
</g>
</g>
<!-- Node2&#45;&gt;Node34 -->
<g id="edge34" class="edge"><title>Node2&#45;&gt;Node34</title>
<path fill="none" stroke="midnightblue" d="M189.042,-1031.26C197.858,-965.774 229.107,-757.12 275,-710 283.902,-700.86 296.892,-696.042 308.998,-693.528"/>
<polygon fill="midnightblue" stroke="midnightblue" points="185.537,-1031.07 187.699,-1041.45 192.477,-1031.99 185.537,-1031.07"/>
</g>
<!-- Node35 -->
<g id="node35" class="node"><title>Node35</title>
<g id="a_node35"><a xlink:href="MatlabReaderTest_8cpp.html#a13d075df757d9911160c6c091b867b08" target="_top" xlink:title="TEST">
<polygon fill="white" stroke="black" points="321,-643.5 321,-662.5 363,-662.5 363,-643.5 321,-643.5"/>
<text text-anchor="middle" x="342" y="-650.5" font-family="Helvetica,sans-Serif" font-size="10.00">TEST</text>
</a>
</g>
</g>
<!-- Node2&#45;&gt;Node35 -->
<g id="edge35" class="edge"><title>Node2&#45;&gt;Node35</title>
<path fill="none" stroke="midnightblue" d="M188.479,-1031.38C195.919,-961.374 224.404,-725.239 275,-672 286.828,-659.554 306.232,-655.098 320.947,-653.581"/>
<polygon fill="midnightblue" stroke="midnightblue" points="184.983,-1031.16 187.432,-1041.46 191.946,-1031.88 184.983,-1031.16"/>
</g>
<!-- Node36 -->
<g id="node36" class="node"><title>Node36</title>
<g id="a_node36"><a xlink:href="namespaceanonymous__namespace_02BufferTest_8cpp_03.html#aa82a48c7e159e43f9c99511f10d16b3c" target="_top" xlink:title="anonymous_namespace\l\{BufferTest::cpp\}::TEST">
<polygon fill="white" stroke="black" points="281,-594 281,-624 403,-624 403,-594 281,-594"/>
<text text-anchor="start" x="289" y="-612" font-family="Helvetica,sans-Serif" font-size="10.00">anonymous_namespace</text>
<text text-anchor="middle" x="342" y="-601" font-family="Helvetica,sans-Serif" font-size="10.00">{BufferTest::cpp}::TEST</text>
</a>
</g>
</g>
<!-- Node2&#45;&gt;Node36 -->
<g id="edge36" class="edge"><title>Node2&#45;&gt;Node36</title>
<path fill="none" stroke="midnightblue" d="M188.225,-1031.03C195.034,-956.464 222.292,-695.456 275,-634 278.35,-630.094 282.378,-626.796 286.77,-624.013"/>
<polygon fill="midnightblue" stroke="midnightblue" points="184.708,-1031.07 187.307,-1041.34 191.68,-1031.69 184.708,-1031.07"/>
</g>
<!-- Node37 -->
<g id="node37" class="node"><title>Node37</title>
<g id="a_node37"><a xlink:href="namespacepdal.html#a51cbf5225e506db21e7efe20f4eebb09" target="_top" xlink:title="pdal::TEST">
<polygon fill="white" stroke="black" points="309,-555.5 309,-574.5 375,-574.5 375,-555.5 309,-555.5"/>
<text text-anchor="middle" x="342" y="-562.5" font-family="Helvetica,sans-Serif" font-size="10.00">pdal::TEST</text>
</a>
</g>
</g>
<!-- Node2&#45;&gt;Node37 -->
<g id="edge37" class="edge"><title>Node2&#45;&gt;Node37</title>
<path fill="none" stroke="midnightblue" d="M187.559,-1031.12C192.229,-950.803 213.556,-651.443 275,-584 283.592,-574.569 296.532,-569.702 308.684,-567.232"/>
<polygon fill="midnightblue" stroke="midnightblue" points="184.052,-1031.14 186.988,-1041.32 191.041,-1031.53 184.052,-1031.14"/>
</g>
<!-- Node38 -->
<g id="node38" class="node"><title>Node38</title>
<g id="a_node38"><a xlink:href="LasReaderTest_8cpp.html#aa76b17cddb63cde84b93800acc213041" target="_top" xlink:title="test_a_format">
<polygon fill="white" stroke="red" points="303.5,-517.5 303.5,-536.5 380.5,-536.5 380.5,-517.5 303.5,-517.5"/>
<text text-anchor="middle" x="342" y="-524.5" font-family="Helvetica,sans-Serif" font-size="10.00">test_a_format</text>
</a>
</g>
</g>
<!-- Node2&#45;&gt;Node38 -->
<g id="edge38" class="edge"><title>Node2&#45;&gt;Node38</title>
<path fill="none" stroke="midnightblue" d="M187.248,-1031.14C190.82,-946.855 208.808,-619.669 275,-546 282.332,-537.84 292.918,-533.091 303.472,-530.356"/>
<polygon fill="midnightblue" stroke="midnightblue" points="183.742,-1031.24 186.836,-1041.37 190.736,-1031.52 183.742,-1031.24"/>
</g>
<!-- Node39 -->
<g id="node39" class="node"><title>Node39</title>
<g id="a_node39"><a xlink:href="namespacepdal.html#ab19387b4eb501050585c3603e06db46a" target="_top" xlink:title="pdal::TEST_F">
<polygon fill="white" stroke="black" points="303.5,-479.5 303.5,-498.5 380.5,-498.5 380.5,-479.5 303.5,-479.5"/>
<text text-anchor="middle" x="342" y="-486.5" font-family="Helvetica,sans-Serif" font-size="10.00">pdal::TEST_F</text>
</a>
</g>
</g>
<!-- Node2&#45;&gt;Node39 -->
<g id="edge39" class="edge"><title>Node2&#45;&gt;Node39</title>
<path fill="none" stroke="midnightblue" d="M186.984,-1031.06C189.526,-942.765 204.074,-587.89 275,-508 282.283,-499.797 292.855,-495.036 303.412,-492.302"/>
<polygon fill="midnightblue" stroke="midnightblue" points="183.484,-1031 186.715,-1041.09 190.482,-1031.18 183.484,-1031"/>
</g>
<!-- Node40 -->
<g id="node40" class="node"><title>Node40</title>
<g id="a_node40"><a xlink:href="GreyhoundReaderTest_8cpp.html#af2d766907254ea1571821d6d621f0b61" target="_top" xlink:title="TEST_F">
<polygon fill="white" stroke="black" points="315.5,-441.5 315.5,-460.5 368.5,-460.5 368.5,-441.5 315.5,-441.5"/>
<text text-anchor="middle" x="342" y="-448.5" font-family="Helvetica,sans-Serif" font-size="10.00">TEST_F</text>
</a>
</g>
</g>
<!-- Node2&#45;&gt;Node40 -->
<g id="edge40" class="edge"><title>Node2&#45;&gt;Node40</title>
<path fill="none" stroke="midnightblue" d="M186.749,-1031.15C188.299,-939.291 199.28,-556.188 275,-470 284.995,-458.624 301.316,-453.859 315.227,-451.945"/>
<polygon fill="midnightblue" stroke="midnightblue" points="183.247,-1031.24 186.597,-1041.3 190.246,-1031.35 183.247,-1031.24"/>
</g>
<!-- Node41 -->
<g id="node41" class="node"><title>Node41</title>
<g id="a_node41"><a xlink:href="namespaceanonymous__namespace_02BPFTest_8cpp_03.html#a55eec1c3e76a6cdaa20e260fb6c03fe9" target="_top" xlink:title="anonymous_namespace\l\{BPFTest::cpp\}::test\l_roundtrip">
<polygon fill="white" stroke="red" points="281,-381.5 281,-422.5 403,-422.5 403,-381.5 281,-381.5"/>
<text text-anchor="start" x="289" y="-410.5" font-family="Helvetica,sans-Serif" font-size="10.00">anonymous_namespace</text>
<text text-anchor="start" x="289" y="-399.5" font-family="Helvetica,sans-Serif" font-size="10.00">{BPFTest::cpp}::test</text>
<text text-anchor="middle" x="342" y="-388.5" font-family="Helvetica,sans-Serif" font-size="10.00">_roundtrip</text>
</a>
</g>
</g>
<!-- Node2&#45;&gt;Node41 -->
<g id="edge41" class="edge"><title>Node2&#45;&gt;Node41</title>
<path fill="none" stroke="midnightblue" d="M186.841,-1031.02C188.832,-935.957 201.571,-529.989 275,-432 277.642,-428.475 280.795,-425.353 284.27,-422.589"/>
<polygon fill="midnightblue" stroke="midnightblue" points="183.338,-1031.18 186.645,-1041.25 190.336,-1031.32 183.338,-1031.18"/>
</g>
<!-- Node42 -->
<g id="node42" class="node"><title>Node42</title>
<g id="a_node42"><a xlink:href="namespaceanonymous__namespace_02ColorizationFilterTest_8cpp_03.html#a9ecba8dd0dc941d16a50be7a9a264b07" target="_top" xlink:title="anonymous_namespace\l\{ColorizationFilterTest\l::cpp\}::testFile">
<polygon fill="white" stroke="red" points="281,-321.5 281,-362.5 403,-362.5 403,-321.5 281,-321.5"/>
<text text-anchor="start" x="289" y="-350.5" font-family="Helvetica,sans-Serif" font-size="10.00">anonymous_namespace</text>
<text text-anchor="start" x="289" y="-339.5" font-family="Helvetica,sans-Serif" font-size="10.00">{ColorizationFilterTest</text>
<text text-anchor="middle" x="342" y="-328.5" font-family="Helvetica,sans-Serif" font-size="10.00">::cpp}::testFile</text>
</a>
</g>
</g>
<!-- Node2&#45;&gt;Node42 -->
<g id="edge42" class="edge"><title>Node2&#45;&gt;Node42</title>
<path fill="none" stroke="midnightblue" d="M186.561,-1031.03C187.235,-930.5 194.755,-480.481 275,-372 277.62,-368.458 280.757,-365.324 284.221,-362.553"/>
<polygon fill="midnightblue" stroke="midnightblue" points="183.059,-1031.26 186.509,-1041.28 190.059,-1031.3 183.059,-1031.26"/>
</g>
<!-- Node43 -->
<g id="node43" class="node"><title>Node43</title>
<g id="a_node43"><a xlink:href="namespaceanonymous__namespace_02ColorizationFilterTest_8cpp_03.html#a34ec954a3562386020f65ce3ad8d025e" target="_top" xlink:title="anonymous_namespace\l\{ColorizationFilterTest\l::cpp\}::testFileStreamed">
<polygon fill="white" stroke="red" points="281,-261.5 281,-302.5 403,-302.5 403,-261.5 281,-261.5"/>
<text text-anchor="start" x="289" y="-290.5" font-family="Helvetica,sans-Serif" font-size="10.00">anonymous_namespace</text>
<text text-anchor="start" x="289" y="-279.5" font-family="Helvetica,sans-Serif" font-size="10.00">{ColorizationFilterTest</text>
<text text-anchor="middle" x="342" y="-268.5" font-family="Helvetica,sans-Serif" font-size="10.00">::cpp}::testFileStreamed</text>
</a>
</g>
</g>
<!-- Node2&#45;&gt;Node43 -->
<g id="edge43" class="edge"><title>Node2&#45;&gt;Node43</title>
<path fill="none" stroke="midnightblue" d="M186.326,-1031.29C185.765,-926.08 187.85,-431.109 275,-312 277.601,-308.445 280.725,-305.301 284.18,-302.522"/>
<polygon fill="midnightblue" stroke="midnightblue" points="182.827,-1031.46 186.396,-1041.43 189.827,-1031.41 182.827,-1031.46"/>
</g>
<!-- Node44 -->
<g id="node44" class="node"><title>Node44</title>
<g id="a_node44"><a xlink:href="FauxReaderTest_8cpp.html#a3d5539afea38de83c9e480676f12c736" target="_top" xlink:title="testGrid">
<polygon fill="white" stroke="red" points="316.5,-223.5 316.5,-242.5 367.5,-242.5 367.5,-223.5 316.5,-223.5"/>
<text text-anchor="middle" x="342" y="-230.5" font-family="Helvetica,sans-Serif" font-size="10.00">testGrid</text>
</a>
</g>
</g>
<!-- Node2&#45;&gt;Node44 -->
<g id="edge44" class="edge"><title>Node2&#45;&gt;Node44</title>
<path fill="none" stroke="midnightblue" d="M187.377,-1031.48C192.78,-914.892 223.04,-313.639 275,-252 285.068,-240.057 302.114,-235.362 316.361,-233.624"/>
<polygon fill="midnightblue" stroke="midnightblue" points="183.88,-1031.32 186.92,-1041.47 190.873,-1031.64 183.88,-1031.32"/>
</g>
<!-- Node45 -->
<g id="node45" class="node"><title>Node45</title>
<g id="a_node45"><a xlink:href="OverlayFilterTest_8cpp.html#a81ea698dfcbc49b4d563206ceb68d003" target="_top" xlink:title="testOverlay">
<polygon fill="white" stroke="red" points="308.5,-185.5 308.5,-204.5 375.5,-204.5 375.5,-185.5 308.5,-185.5"/>
<text text-anchor="middle" x="342" y="-192.5" font-family="Helvetica,sans-Serif" font-size="10.00">testOverlay</text>
</a>
</g>
</g>
<!-- Node2&#45;&gt;Node45 -->
<g id="edge45" class="edge"><title>Node2&#45;&gt;Node45</title>
<path fill="none" stroke="midnightblue" d="M187.281,-1031.3C192.219,-911.032 220.647,-278.803 275,-214 283.199,-204.225 296.074,-199.302 308.284,-196.883"/>
<polygon fill="midnightblue" stroke="midnightblue" points="183.784,-1031.17 186.877,-1041.3 190.778,-1031.45 183.784,-1031.17"/>
</g>
<!-- Node46 -->
<g id="node46" class="node"><title>Node46</title>
<g id="a_node46"><a xlink:href="classpdal_1_1MongusFilter.html#aaacd9ce3a847541bad94929bb8f28179" target="_top" xlink:title="pdal::MongusFilter\l::writeControl">
<polygon fill="white" stroke="red" points="293.5,-136 293.5,-166 390.5,-166 390.5,-136 293.5,-136"/>
<text text-anchor="start" x="301.5" y="-154" font-family="Helvetica,sans-Serif" font-size="10.00">pdal::MongusFilter</text>
<text text-anchor="middle" x="342" y="-143" font-family="Helvetica,sans-Serif" font-size="10.00">::writeControl</text>
</a>
</g>
</g>
<!-- Node2&#45;&gt;Node46 -->
<g id="edge46" class="edge"><title>Node2&#45;&gt;Node46</title>
<path fill="none" stroke="midnightblue" d="M187.265,-1031.25C192.2,-907.888 221.068,-246.248 275,-176 279.775,-169.78 286.288,-165.107 293.371,-161.597"/>
<polygon fill="midnightblue" stroke="midnightblue" points="183.759,-1031.34 186.862,-1041.47 190.753,-1031.61 183.759,-1031.34"/>
</g>
<!-- Node4 -->
<g id="node4" class="node"><title>Node4</title>
<g id="a_node4"><a xlink:href="SpatialReferenceTest_8cpp.html#acbe8bbc3b3d602e92c360d196a0431d0" target="_top" xlink:title="TEST">
<polygon fill="white" stroke="black" points="492,-1921.5 492,-1940.5 534,-1940.5 534,-1921.5 492,-1921.5"/>
<text text-anchor="middle" x="513" y="-1928.5" font-family="Helvetica,sans-Serif" font-size="10.00">TEST</text>
</a>
</g>
</g>
<!-- Node3&#45;&gt;Node4 -->
<g id="edge3" class="edge"><title>Node3&#45;&gt;Node4</title>
<path fill="none" stroke="midnightblue" d="M403.561,-1931C434.583,-1931 470.295,-1931 491.999,-1931"/>
<polygon fill="midnightblue" stroke="midnightblue" points="403.248,-1927.5 393.248,-1931 403.248,-1934.5 403.248,-1927.5"/>
</g>
<!-- Node7 -->
<g id="node7" class="node"><title>Node7</title>
<g id="a_node7"><a xlink:href="OCITest_8cpp.html#ab1703367762abc1490e00dcd5ccb29bc" target="_top" xlink:title="readData">
<polygon fill="white" stroke="red" points="485,-1871.5 485,-1890.5 541,-1890.5 541,-1871.5 485,-1871.5"/>
<text text-anchor="middle" x="513" y="-1878.5" font-family="Helvetica,sans-Serif" font-size="10.00">readData</text>
</a>
</g>
</g>
<!-- Node6&#45;&gt;Node7 -->
<g id="edge6" class="edge"><title>Node6&#45;&gt;Node7</title>
<path fill="none" stroke="midnightblue" d="M378.797,-1851.05C410.481,-1858.17 456.036,-1868.42 484.814,-1874.89"/>
<polygon fill="midnightblue" stroke="midnightblue" points="379.56,-1847.63 369.036,-1848.85 378.024,-1854.46 379.56,-1847.63"/>
</g>
<!-- Node8 -->
<g id="node8" class="node"><title>Node8</title>
<g id="a_node8"><a xlink:href="classpdal_1_1MortonOrderFilter.html#ad677d9f6af17b471a1959ae20afb1af8" target="_top" xlink:title="pdal::MortonOrderFilter::run">
<polygon fill="white" stroke="black" points="445,-1833.5 445,-1852.5 581,-1852.5 581,-1833.5 445,-1833.5"/>
<text text-anchor="middle" x="513" y="-1840.5" font-family="Helvetica,sans-Serif" font-size="10.00">pdal::MortonOrderFilter::run</text>
</a>
</g>
</g>
<!-- Node6&#45;&gt;Node8 -->
<g id="edge7" class="edge"><title>Node6&#45;&gt;Node8</title>
<path fill="none" stroke="midnightblue" d="M379.094,-1843C398.198,-1843 422.283,-1843 444.685,-1843"/>
<polygon fill="midnightblue" stroke="midnightblue" points="379.036,-1839.5 369.036,-1843 379.036,-1846.5 379.036,-1839.5"/>
</g>
<!-- Node9 -->
<g id="node9" class="node"><title>Node9</title>
<g id="a_node9"><a xlink:href="GDALReaderTest_8cpp.html#a3516d024f113af1dacf61dd812810c42" target="_top" xlink:title="TEST_F">
<polygon fill="white" stroke="black" points="486.5,-1795.5 486.5,-1814.5 539.5,-1814.5 539.5,-1795.5 486.5,-1795.5"/>
<text text-anchor="middle" x="513" y="-1802.5" font-family="Helvetica,sans-Serif" font-size="10.00">TEST_F</text>
</a>
</g>
</g>
<!-- Node6&#45;&gt;Node9 -->
<g id="edge8" class="edge"><title>Node6&#45;&gt;Node9</title>
<path fill="none" stroke="midnightblue" d="M378.979,-1834.91C411.278,-1827.65 457.882,-1817.17 486.488,-1810.74"/>
<polygon fill="midnightblue" stroke="midnightblue" points="378.024,-1831.54 369.036,-1837.15 379.56,-1838.37 378.024,-1831.54"/>
</g>
<!-- Node48 -->
<g id="node48" class="node"><title>Node48</title>
<g id="a_node48"><a xlink:href="namespaceanonymous__namespace_02SortFilterTest_8cpp_03.html#a4dd665dd162481d153ad54779b8e970b" target="_top" xlink:title="anonymous_namespace\l\{SortFilterTest::cpp\}\l::doSort">
<polygon fill="white" stroke="red" points="281,-76.5 281,-117.5 403,-117.5 403,-76.5 281,-76.5"/>
<text text-anchor="start" x="289" y="-105.5" font-family="Helvetica,sans-Serif" font-size="10.00">anonymous_namespace</text>
<text text-anchor="start" x="289" y="-94.5" font-family="Helvetica,sans-Serif" font-size="10.00">{SortFilterTest::cpp}</text>
<text text-anchor="middle" x="342" y="-83.5" font-family="Helvetica,sans-Serif" font-size="10.00">::doSort</text>
</a>
</g>
</g>
<!-- Node47&#45;&gt;Node48 -->
<g id="edge48" class="edge"><title>Node47&#45;&gt;Node48</title>
<path fill="none" stroke="midnightblue" d="M247.119,-81.8089C258.218,-83.6049 269.798,-85.4787 280.883,-87.2723"/>
<polygon fill="midnightblue" stroke="midnightblue" points="247.52,-78.3283 237.089,-80.1859 246.402,-85.2384 247.52,-78.3283"/>
</g>
<!-- Node49 -->
<g id="node49" class="node"><title>Node49</title>
<g id="a_node49"><a xlink:href="ChipperTest_8cpp.html#aadb7e2f0db96e8ee2f311a8a48b095bb" target="_top" xlink:title="TEST">
<polygon fill="white" stroke="black" points="321,-38.5 321,-57.5 363,-57.5 363,-38.5 321,-38.5"/>
<text text-anchor="middle" x="342" y="-45.5" font-family="Helvetica,sans-Serif" font-size="10.00">TEST</text>
</a>
</g>
</g>
<!-- Node47&#45;&gt;Node49 -->
<g id="edge49" class="edge"><title>Node47&#45;&gt;Node49</title>
<path fill="none" stroke="midnightblue" d="M247.311,-62.5536C273.403,-58.5005 302.119,-54.0398 320.792,-51.1391"/>
<polygon fill="midnightblue" stroke="midnightblue" points="246.433,-59.1479 237.089,-64.1415 247.508,-66.065 246.433,-59.1479"/>
</g>
<!-- Node50 -->
<g id="node50" class="node"><title>Node50</title>
<g id="a_node50"><a xlink:href="PythonFilterTest_8cpp.html#a7934cc436f5caaabbabb865a6293a7f8" target="_top" xlink:title="TEST_F">
<polygon fill="white" stroke="black" points="315.5,-0.5 315.5,-19.5 368.5,-19.5 368.5,-0.5 315.5,-0.5"/>
<text text-anchor="middle" x="342" y="-7.5" font-family="Helvetica,sans-Serif" font-size="10.00">TEST_F</text>
</a>
</g>
</g>
<!-- Node47&#45;&gt;Node50 -->
<g id="edge50" class="edge"><title>Node47&#45;&gt;Node50</title>
<path fill="none" stroke="midnightblue" d="M223.556,-52.2326C239.167,-44.371 257.698,-35.6372 275,-29 288.025,-24.0035 302.931,-19.6054 315.277,-16.3024"/>
<polygon fill="midnightblue" stroke="midnightblue" points="221.562,-49.3209 214.251,-56.9883 224.748,-55.5541 221.562,-49.3209"/>
</g>
</g>
</svg>
