<?xml version="1.0" encoding="UTF-8" standalone="no"?>
<!DOCTYPE svg PUBLIC "-//W3C//DTD SVG 1.1//EN"
 "http://www.w3.org/Graphics/SVG/1.1/DTD/svg11.dtd">
<!-- Generated by graphviz version 2.38.0 (20140413.2041)
 -->
<!-- Title: App::outputCommands Pages: 1 -->
<svg width="419pt" height="78pt"
 viewBox="0.00 0.00 419.00 77.50" xmlns="http://www.w3.org/2000/svg" xmlns:xlink="http://www.w3.org/1999/xlink">
<g id="graph0" class="graph" transform="scale(1 1) rotate(0) translate(4 73.5)">
<title>App::outputCommands</title>
<polygon fill="white" stroke="none" points="-4,4 -4,-73.5 415,-73.5 415,4 -4,4"/>
<!-- Node1 -->
<g id="node1" class="node"><title>Node1</title>
<polygon fill="#bfbfbf" stroke="black" points="0,-28 0,-47 117,-47 117,-28 0,-28"/>
<text text-anchor="middle" x="58.5" y="-35" font-family="Helvetica,sans-Serif" font-size="10.00">App::outputCommands</text>
</g>
<!-- Node2 -->
<g id="node2" class="node"><title>Node2</title>
<g id="a_node2"><a xlink:href="namespacepdal_1_1Dimension.html#af3176b0b7e6b4be000317846cf7c2718" target="_top" xlink:title="pdal::Dimension::name">
<polygon fill="white" stroke="black" points="153,-50 153,-69 270,-69 270,-50 153,-50"/>
<text text-anchor="middle" x="211.5" y="-57" font-family="Helvetica,sans-Serif" font-size="10.00">pdal::Dimension::name</text>
</a>
</g>
</g>
<!-- Node1&#45;&gt;Node2 -->
<g id="edge1" class="edge"><title>Node1&#45;&gt;Node2</title>
<path fill="none" stroke="midnightblue" d="M117.017,-45.88C125.464,-47.1106 134.229,-48.3877 142.856,-49.6446"/>
<polygon fill="midnightblue" stroke="midnightblue" points="142.492,-53.1285 152.893,-51.1069 143.502,-46.2016 142.492,-53.1285"/>
</g>
<!-- Node3 -->
<g id="node3" class="node"><title>Node3</title>
<g id="a_node3"><a xlink:href="classpdal_1_1PluginManager.html#a494f92a49079015190f9f8d9e5267779" target="_top" xlink:title="pdal::PluginManager\l::names">
<polygon fill="white" stroke="black" points="159,-0.5 159,-30.5 264,-30.5 264,-0.5 159,-0.5"/>
<text text-anchor="start" x="167" y="-18.5" font-family="Helvetica,sans-Serif" font-size="10.00">pdal::PluginManager</text>
<text text-anchor="middle" x="211.5" y="-7.5" font-family="Helvetica,sans-Serif" font-size="10.00">::names</text>
</a>
</g>
</g>
<!-- Node1&#45;&gt;Node3 -->
<g id="edge2" class="edge"><title>Node1&#45;&gt;Node3</title>
<path fill="none" stroke="midnightblue" d="M117.017,-29.12C127.376,-27.6108 138.213,-26.0318 148.687,-24.5058"/>
<polygon fill="midnightblue" stroke="midnightblue" points="149.2,-27.9682 158.59,-23.063 148.19,-21.0414 149.2,-27.9682"/>
</g>
<!-- Node4 -->
<g id="node4" class="node"><title>Node4</title>
<g id="a_node4"><a xlink:href="classpdal_1_1PluginManager.html#ab1040369e315ab5d6f15033e098e0652" target="_top" xlink:title="pdal::PluginManager\l::l_names">
<polygon fill="white" stroke="black" points="306,-0.5 306,-30.5 411,-30.5 411,-0.5 306,-0.5"/>
<text text-anchor="start" x="314" y="-18.5" font-family="Helvetica,sans-Serif" font-size="10.00">pdal::PluginManager</text>
<text text-anchor="middle" x="358.5" y="-7.5" font-family="Helvetica,sans-Serif" font-size="10.00">::l_names</text>
</a>
</g>
</g>
<!-- Node3&#45;&gt;Node4 -->
<g id="edge3" class="edge"><title>Node3&#45;&gt;Node4</title>
<path fill="none" stroke="midnightblue" d="M264.03,-15.5C274.164,-15.5 284.897,-15.5 295.337,-15.5"/>
<polygon fill="midnightblue" stroke="midnightblue" points="295.648,-19.0001 305.648,-15.5 295.648,-12.0001 295.648,-19.0001"/>
</g>
</g>
</svg>
