<?xml version="1.0" encoding="UTF-8" standalone="no"?>
<!DOCTYPE svg PUBLIC "-//W3C//DTD SVG 1.1//EN"
 "http://www.w3.org/Graphics/SVG/1.1/DTD/svg11.dtd">
<!-- Generated by graphviz version 2.38.0 (20140413.2041)
 -->
<!-- Title: pdal::SMRFilter::addArgs Pages: 1 -->
<svg width="466pt" height="66pt"
 viewBox="0.00 0.00 466.00 66.00" xmlns="http://www.w3.org/2000/svg" xmlns:xlink="http://www.w3.org/1999/xlink">
<g id="graph0" class="graph" transform="scale(1 1) rotate(0) translate(4 62)">
<title>pdal::SMRFilter::addArgs</title>
<polygon fill="white" stroke="none" points="-4,4 -4,-62 462,-62 462,4 -4,4"/>
<!-- Node1 -->
<g id="node1" class="node"><title>Node1</title>
<polygon fill="#bfbfbf" stroke="black" points="0,-19.5 0,-38.5 127,-38.5 127,-19.5 0,-19.5"/>
<text text-anchor="middle" x="63.5" y="-26.5" font-family="Helvetica,sans-Serif" font-size="10.00">pdal::SMRFilter::addArgs</text>
</g>
<!-- Node2 -->
<g id="node2" class="node"><title>Node2</title>
<g id="a_node2"><a xlink:href="classpdal_1_1ProgramArgs.html#a9f773618ed928e9cef78aa1bf8278784" target="_top" xlink:title="pdal::ProgramArgs::add">
<polygon fill="white" stroke="black" points="163,-19.5 163,-38.5 282,-38.5 282,-19.5 163,-19.5"/>
<text text-anchor="middle" x="222.5" y="-26.5" font-family="Helvetica,sans-Serif" font-size="10.00">pdal::ProgramArgs::add</text>
</a>
</g>
</g>
<!-- Node1&#45;&gt;Node2 -->
<g id="edge1" class="edge"><title>Node1&#45;&gt;Node2</title>
<path fill="none" stroke="midnightblue" d="M127.002,-29C135.391,-29 144.035,-29 152.528,-29"/>
<polygon fill="midnightblue" stroke="midnightblue" points="152.786,-32.5001 162.786,-29 152.786,-25.5001 152.786,-32.5001"/>
</g>
<!-- Node3 -->
<g id="node3" class="node"><title>Node3</title>
<g id="a_node3"><a xlink:href="namespacepdal_1_1Dimension.html#a4041a0eeee0ca503caad91db24affa0e" target="_top" xlink:title="pdal::Dimension::description">
<polygon fill="white" stroke="black" points="318,-38.5 318,-57.5 458,-57.5 458,-38.5 318,-38.5"/>
<text text-anchor="middle" x="388" y="-45.5" font-family="Helvetica,sans-Serif" font-size="10.00">pdal::Dimension::description</text>
</a>
</g>
</g>
<!-- Node2&#45;&gt;Node3 -->
<g id="edge2" class="edge"><title>Node2&#45;&gt;Node3</title>
<path fill="none" stroke="midnightblue" d="M282.065,-35.8058C290.43,-36.7777 299.147,-37.7907 307.825,-38.7992"/>
<polygon fill="midnightblue" stroke="midnightblue" points="307.634,-42.3005 317.971,-39.9783 308.442,-35.3473 307.634,-42.3005"/>
</g>
<!-- Node4 -->
<g id="node4" class="node"><title>Node4</title>
<g id="a_node4"><a xlink:href="namespacepdal_1_1Dimension.html#af3176b0b7e6b4be000317846cf7c2718" target="_top" xlink:title="pdal::Dimension::name">
<polygon fill="white" stroke="black" points="329.5,-0.5 329.5,-19.5 446.5,-19.5 446.5,-0.5 329.5,-0.5"/>
<text text-anchor="middle" x="388" y="-7.5" font-family="Helvetica,sans-Serif" font-size="10.00">pdal::Dimension::name</text>
</a>
</g>
</g>
<!-- Node2&#45;&gt;Node4 -->
<g id="edge3" class="edge"><title>Node2&#45;&gt;Node4</title>
<path fill="none" stroke="midnightblue" d="M282.065,-22.1942C294.092,-20.7967 306.848,-19.3143 319.17,-17.8824"/>
<polygon fill="midnightblue" stroke="midnightblue" points="319.863,-21.3255 329.392,-16.6945 319.055,-14.3723 319.863,-21.3255"/>
</g>
</g>
</svg>
