<?xml version="1.0" encoding="UTF-8" standalone="no"?>
<!DOCTYPE svg PUBLIC "-//W3C//DTD SVG 1.1//EN"
 "http://www.w3.org/Graphics/SVG/1.1/DTD/svg11.dtd">
<!-- Generated by graphviz version 2.38.0 (20140413.2041)
 -->
<!-- Title: pdal::LasReader::LasStreamIf::LasStreamIf Pages: 1 -->
<svg width="403pt" height="39pt"
 viewBox="0.00 0.00 403.00 39.00" xmlns="http://www.w3.org/2000/svg" xmlns:xlink="http://www.w3.org/1999/xlink">
<g id="graph0" class="graph" transform="scale(1 1) rotate(0) translate(4 35)">
<title>pdal::LasReader::LasStreamIf::LasStreamIf</title>
<polygon fill="white" stroke="none" points="-4,4 -4,-35 399,-35 399,4 -4,4"/>
<!-- Node1 -->
<g id="node1" class="node"><title>Node1</title>
<polygon fill="#bfbfbf" stroke="black" points="0,-0.5 0,-30.5 141,-30.5 141,-0.5 0,-0.5"/>
<text text-anchor="start" x="8" y="-18.5" font-family="Helvetica,sans-Serif" font-size="10.00">pdal::LasReader::LasStream</text>
<text text-anchor="middle" x="70.5" y="-7.5" font-family="Helvetica,sans-Serif" font-size="10.00">If::LasStreamIf</text>
</g>
<!-- Node2 -->
<g id="node2" class="node"><title>Node2</title>
<g id="a_node2"><a xlink:href="namespacepdal_1_1Utils.html#ac3322e84f8c5a998a344a5a606c74793" target="_top" xlink:title="pdal::Utils::openFile">
<polygon fill="white" stroke="black" points="177,-6 177,-25 281,-25 281,-6 177,-6"/>
<text text-anchor="middle" x="229" y="-13" font-family="Helvetica,sans-Serif" font-size="10.00">pdal::Utils::openFile</text>
</a>
</g>
</g>
<!-- Node1&#45;&gt;Node2 -->
<g id="edge1" class="edge"><title>Node1&#45;&gt;Node2</title>
<path fill="none" stroke="midnightblue" d="M141.055,-15.5C149.644,-15.5 158.375,-15.5 166.827,-15.5"/>
<polygon fill="midnightblue" stroke="midnightblue" points="166.969,-19.0001 176.969,-15.5 166.969,-12.0001 166.969,-19.0001"/>
</g>
<!-- Node3 -->
<g id="node3" class="node"><title>Node3</title>
<g id="a_node3"><a xlink:href="SQLiteTest_8cpp.html#afdd1742979cee35fe1879794bd7ff3a4" target="_top" xlink:title="tempFilename">
<polygon fill="white" stroke="black" points="317,-6 317,-25 395,-25 395,-6 317,-6"/>
<text text-anchor="middle" x="356" y="-13" font-family="Helvetica,sans-Serif" font-size="10.00">tempFilename</text>
</a>
</g>
</g>
<!-- Node2&#45;&gt;Node3 -->
<g id="edge2" class="edge"><title>Node2&#45;&gt;Node3</title>
<path fill="none" stroke="midnightblue" d="M281.203,-15.5C289.547,-15.5 298.168,-15.5 306.445,-15.5"/>
<polygon fill="midnightblue" stroke="midnightblue" points="306.7,-19.0001 316.7,-15.5 306.7,-12.0001 306.7,-19.0001"/>
</g>
</g>
</svg>
