<?xml version="1.0" encoding="UTF-8" standalone="no"?>
<!DOCTYPE svg PUBLIC "-//W3C//DTD SVG 1.1//EN"
 "http://www.w3.org/Graphics/SVG/1.1/DTD/svg11.dtd">
<!-- Generated by graphviz version 2.38.0 (20140413.2041)
 -->
<!-- Title: pdal::NitfWriter::addArgs Pages: 1 -->
<svg width="647pt" height="192pt"
 viewBox="0.00 0.00 647.00 192.00" xmlns="http://www.w3.org/2000/svg" xmlns:xlink="http://www.w3.org/1999/xlink">
<g id="graph0" class="graph" transform="scale(1 1) rotate(0) translate(4 188)">
<title>pdal::NitfWriter::addArgs</title>
<polygon fill="white" stroke="none" points="-4,4 -4,-188 643,-188 643,4 -4,4"/>
<!-- Node1 -->
<g id="node1" class="node"><title>Node1</title>
<polygon fill="#bfbfbf" stroke="black" points="0,-104.5 0,-123.5 125,-123.5 125,-104.5 0,-104.5"/>
<text text-anchor="middle" x="62.5" y="-111.5" font-family="Helvetica,sans-Serif" font-size="10.00">pdal::NitfWriter::addArgs</text>
</g>
<!-- Node2 -->
<g id="node2" class="node"><title>Node2</title>
<g id="a_node2"><a xlink:href="classpdal_1_1NitfFileWriter.html#a4198aece20d529637a6fa10e2bb7b8eb" target="_top" xlink:title="pdal::NitfFileWriter\l::addArgs">
<polygon fill="white" stroke="black" points="174.5,-121 174.5,-151 272.5,-151 272.5,-121 174.5,-121"/>
<text text-anchor="start" x="182.5" y="-139" font-family="Helvetica,sans-Serif" font-size="10.00">pdal::NitfFileWriter</text>
<text text-anchor="middle" x="223.5" y="-128" font-family="Helvetica,sans-Serif" font-size="10.00">::addArgs</text>
</a>
</g>
</g>
<!-- Node1&#45;&gt;Node2 -->
<g id="edge1" class="edge"><title>Node1&#45;&gt;Node2</title>
<path fill="none" stroke="midnightblue" d="M125.429,-122.569C138.226,-124.339 151.663,-126.199 164.321,-127.95"/>
<polygon fill="midnightblue" stroke="midnightblue" points="163.894,-131.424 174.279,-129.328 164.853,-124.49 163.894,-131.424"/>
</g>
<!-- Node6 -->
<g id="node6" class="node"><title>Node6</title>
<g id="a_node6"><a xlink:href="classpdal_1_1LasWriter.html#accb15beb5adfeda7fd1cba87b24cf5ff" target="_top" xlink:title="pdal::LasWriter::addArgs">
<polygon fill="white" stroke="black" points="161,-82.5 161,-101.5 286,-101.5 286,-82.5 161,-82.5"/>
<text text-anchor="middle" x="223.5" y="-89.5" font-family="Helvetica,sans-Serif" font-size="10.00">pdal::LasWriter::addArgs</text>
</a>
</g>
</g>
<!-- Node1&#45;&gt;Node6 -->
<g id="edge5" class="edge"><title>Node1&#45;&gt;Node6</title>
<path fill="none" stroke="midnightblue" d="M125.429,-105.431C133.674,-104.29 142.184,-103.113 150.58,-101.951"/>
<polygon fill="midnightblue" stroke="midnightblue" points="151.314,-105.383 160.74,-100.545 150.355,-98.4491 151.314,-105.383"/>
</g>
<!-- Node3 -->
<g id="node3" class="node"><title>Node3</title>
<g id="a_node3"><a xlink:href="classpdal_1_1ProgramArgs.html#a9f773618ed928e9cef78aa1bf8278784" target="_top" xlink:title="pdal::ProgramArgs::add">
<polygon fill="white" stroke="black" points="333,-126.5 333,-145.5 452,-145.5 452,-126.5 333,-126.5"/>
<text text-anchor="middle" x="392.5" y="-133.5" font-family="Helvetica,sans-Serif" font-size="10.00">pdal::ProgramArgs::add</text>
</a>
</g>
</g>
<!-- Node2&#45;&gt;Node3 -->
<g id="edge2" class="edge"><title>Node2&#45;&gt;Node3</title>
<path fill="none" stroke="midnightblue" d="M272.803,-136C288.359,-136 305.91,-136 322.65,-136"/>
<polygon fill="midnightblue" stroke="midnightblue" points="322.943,-139.5 332.943,-136 322.943,-132.5 322.943,-139.5"/>
</g>
<!-- Node4 -->
<g id="node4" class="node"><title>Node4</title>
<g id="a_node4"><a xlink:href="namespacepdal_1_1Dimension.html#af3176b0b7e6b4be000317846cf7c2718" target="_top" xlink:title="pdal::Dimension::name">
<polygon fill="white" stroke="black" points="510.5,-164.5 510.5,-183.5 627.5,-183.5 627.5,-164.5 510.5,-164.5"/>
<text text-anchor="middle" x="569" y="-171.5" font-family="Helvetica,sans-Serif" font-size="10.00">pdal::Dimension::name</text>
</a>
</g>
</g>
<!-- Node3&#45;&gt;Node4 -->
<g id="edge3" class="edge"><title>Node3&#45;&gt;Node4</title>
<path fill="none" stroke="midnightblue" d="M437.534,-145.589C460.872,-150.671 489.73,-156.955 514.366,-162.32"/>
<polygon fill="midnightblue" stroke="midnightblue" points="513.767,-165.772 524.283,-164.48 515.257,-158.932 513.767,-165.772"/>
</g>
<!-- Node5 -->
<g id="node5" class="node"><title>Node5</title>
<g id="a_node5"><a xlink:href="namespacepdal_1_1Dimension.html#a4041a0eeee0ca503caad91db24affa0e" target="_top" xlink:title="pdal::Dimension::description">
<polygon fill="white" stroke="black" points="499,-126.5 499,-145.5 639,-145.5 639,-126.5 499,-126.5"/>
<text text-anchor="middle" x="569" y="-133.5" font-family="Helvetica,sans-Serif" font-size="10.00">pdal::Dimension::description</text>
</a>
</g>
</g>
<!-- Node3&#45;&gt;Node5 -->
<g id="edge4" class="edge"><title>Node3&#45;&gt;Node5</title>
<path fill="none" stroke="midnightblue" d="M452.091,-136C463.849,-136 476.388,-136 488.713,-136"/>
<polygon fill="midnightblue" stroke="midnightblue" points="488.994,-139.5 498.994,-136 488.994,-132.5 488.994,-139.5"/>
</g>
<!-- Node6&#45;&gt;Node3 -->
<g id="edge6" class="edge"><title>Node6&#45;&gt;Node3</title>
<path fill="none" stroke="midnightblue" d="M260.737,-101.547C285.575,-108.092 318.733,-116.828 345.443,-123.865"/>
<polygon fill="midnightblue" stroke="midnightblue" points="344.772,-127.308 355.334,-126.471 346.556,-120.539 344.772,-127.308"/>
</g>
<!-- Node7 -->
<g id="node7" class="node"><title>Node7</title>
<g id="a_node7"><a xlink:href="namespacepdal.html#aaca316a45d6db7f2f9296443a089c8f7" target="_top" xlink:title="pdal::GetDefaultSoftwareId">
<polygon fill="white" stroke="black" points="325,-88.5 325,-107.5 460,-107.5 460,-88.5 325,-88.5"/>
<text text-anchor="middle" x="392.5" y="-95.5" font-family="Helvetica,sans-Serif" font-size="10.00">pdal::GetDefaultSoftwareId</text>
</a>
</g>
</g>
<!-- Node6&#45;&gt;Node7 -->
<g id="edge7" class="edge"><title>Node6&#45;&gt;Node7</title>
<path fill="none" stroke="midnightblue" d="M286.21,-94.2171C295.49,-94.5505 305.156,-94.8978 314.704,-95.2409"/>
<polygon fill="midnightblue" stroke="midnightblue" points="314.876,-98.7492 324.995,-95.6106 315.127,-91.7537 314.876,-98.7492"/>
</g>
<!-- Node9 -->
<g id="node9" class="node"><title>Node9</title>
<g id="a_node9"><a xlink:href="classpdal_1_1LasHeader.html#ab5e5701a5e5027be8b8ea6e239dda5f9" target="_top" xlink:title="pdal::LasHeader::getSystem\lIdentifier">
<polygon fill="white" stroke="black" points="322,-39 322,-69 463,-69 463,-39 322,-39"/>
<text text-anchor="start" x="330" y="-57" font-family="Helvetica,sans-Serif" font-size="10.00">pdal::LasHeader::getSystem</text>
<text text-anchor="middle" x="392.5" y="-46" font-family="Helvetica,sans-Serif" font-size="10.00">Identifier</text>
</a>
</g>
</g>
<!-- Node6&#45;&gt;Node9 -->
<g id="edge9" class="edge"><title>Node6&#45;&gt;Node9</title>
<path fill="none" stroke="midnightblue" d="M266.641,-82.411C281.503,-79.0292 298.704,-75.1152 315.498,-71.294"/>
<polygon fill="midnightblue" stroke="midnightblue" points="316.343,-74.6911 325.317,-69.0595 314.79,-67.8656 316.343,-74.6911"/>
</g>
<!-- Node10 -->
<g id="node10" class="node"><title>Node10</title>
<g id="a_node10"><a xlink:href="classpdal_1_1Arg.html#acd96700a01950da368119d2a06f441ae" target="_top" xlink:title="pdal::Arg::setPositional">
<polygon fill="white" stroke="black" points="333.5,-0.5 333.5,-19.5 451.5,-19.5 451.5,-0.5 333.5,-0.5"/>
<text text-anchor="middle" x="392.5" y="-7.5" font-family="Helvetica,sans-Serif" font-size="10.00">pdal::Arg::setPositional</text>
</a>
</g>
</g>
<!-- Node6&#45;&gt;Node10 -->
<g id="edge10" class="edge"><title>Node6&#45;&gt;Node10</title>
<path fill="none" stroke="midnightblue" d="M236.717,-82.3246C254.519,-68.6552 289.065,-43.7184 322,-29 327.341,-26.6133 333.05,-24.4645 338.814,-22.5464"/>
<polygon fill="midnightblue" stroke="midnightblue" points="339.999,-25.8432 348.511,-19.5348 337.923,-19.1581 339.999,-25.8432"/>
</g>
<!-- Node8 -->
<g id="node8" class="node"><title>Node8</title>
<g id="a_node8"><a xlink:href="namespacepdal.html#acfb8a485cf093e54991b8ba7eef0e08a" target="_top" xlink:title="pdal::GetSHA1">
<polygon fill="white" stroke="black" points="527.5,-88.5 527.5,-107.5 610.5,-107.5 610.5,-88.5 527.5,-88.5"/>
<text text-anchor="middle" x="569" y="-95.5" font-family="Helvetica,sans-Serif" font-size="10.00">pdal::GetSHA1</text>
</a>
</g>
</g>
<!-- Node7&#45;&gt;Node8 -->
<g id="edge8" class="edge"><title>Node7&#45;&gt;Node8</title>
<path fill="none" stroke="midnightblue" d="M460.467,-98C479.348,-98 499.571,-98 517.326,-98"/>
<polygon fill="midnightblue" stroke="midnightblue" points="517.466,-101.5 527.466,-98 517.466,-94.5001 517.466,-101.5"/>
</g>
</g>
</svg>
