<?xml version="1.0" encoding="UTF-8" standalone="no"?>
<!DOCTYPE svg PUBLIC "-//W3C//DTD SVG 1.1//EN"
 "http://www.w3.org/Graphics/SVG/1.1/DTD/svg11.dtd">
<!-- Generated by graphviz version 2.38.0 (20140413.2041)
 -->
<!-- Title: pdal::DimBuilder::writeFooter Pages: 1 -->
<svg width="571pt" height="28pt"
 viewBox="0.00 0.00 571.00 28.00" xmlns="http://www.w3.org/2000/svg" xmlns:xlink="http://www.w3.org/1999/xlink">
<g id="graph0" class="graph" transform="scale(1 1) rotate(0) translate(4 24)">
<title>pdal::DimBuilder::writeFooter</title>
<polygon fill="white" stroke="none" points="-4,4 -4,-24 567,-24 567,4 -4,4"/>
<!-- Node1 -->
<g id="node1" class="node"><title>Node1</title>
<polygon fill="#bfbfbf" stroke="black" points="0,-0.5 0,-19.5 143,-19.5 143,-0.5 0,-0.5"/>
<text text-anchor="middle" x="71.5" y="-7.5" font-family="Helvetica,sans-Serif" font-size="10.00">pdal::DimBuilder::writeFooter</text>
</g>
<!-- Node2 -->
<g id="node2" class="node"><title>Node2</title>
<g id="a_node2"><a xlink:href="classpdal_1_1DimBuilder.html#a708e0d65c30b147f1ac1c8cfb8eb2c02" target="_top" xlink:title="pdal::DimBuilder::writeOutput">
<polygon fill="white" stroke="black" points="179,-0.5 179,-19.5 324,-19.5 324,-0.5 179,-0.5"/>
<text text-anchor="middle" x="251.5" y="-7.5" font-family="Helvetica,sans-Serif" font-size="10.00">pdal::DimBuilder::writeOutput</text>
</a>
</g>
</g>
<!-- Node1&#45;&gt;Node2 -->
<g id="edge1" class="edge"><title>Node1&#45;&gt;Node2</title>
<path fill="none" stroke="midnightblue" d="M153.382,-10C161.864,-10 170.445,-10 178.813,-10"/>
<polygon fill="midnightblue" stroke="midnightblue" points="153.106,-6.5001 143.106,-10 153.106,-13.5001 153.106,-6.5001"/>
</g>
<!-- Node3 -->
<g id="node3" class="node"><title>Node3</title>
<g id="a_node3"><a xlink:href="classpdal_1_1DimBuilder.html#a80dc37c7ba907d37af6ce04620364855" target="_top" xlink:title="pdal::DimBuilder::execute">
<polygon fill="white" stroke="black" points="360,-0.5 360,-19.5 489,-19.5 489,-0.5 360,-0.5"/>
<text text-anchor="middle" x="424.5" y="-7.5" font-family="Helvetica,sans-Serif" font-size="10.00">pdal::DimBuilder::execute</text>
</a>
</g>
</g>
<!-- Node2&#45;&gt;Node3 -->
<g id="edge2" class="edge"><title>Node2&#45;&gt;Node3</title>
<path fill="none" stroke="midnightblue" d="M334.134,-10C342.781,-10 351.481,-10 359.879,-10"/>
<polygon fill="midnightblue" stroke="midnightblue" points="334.029,-6.5001 324.029,-10 334.029,-13.5001 334.029,-6.5001"/>
</g>
<!-- Node4 -->
<g id="node4" class="node"><title>Node4</title>
<g id="a_node4"><a xlink:href="DimBuilder_8cpp.html#a0ddf1224851353fc92bfbff6f499fa97" target="_top" xlink:title="main">
<polygon fill="white" stroke="black" points="525,-0.5 525,-19.5 563,-19.5 563,-0.5 525,-0.5"/>
<text text-anchor="middle" x="544" y="-7.5" font-family="Helvetica,sans-Serif" font-size="10.00">main</text>
</a>
</g>
</g>
<!-- Node3&#45;&gt;Node4 -->
<g id="edge3" class="edge"><title>Node3&#45;&gt;Node4</title>
<path fill="none" stroke="midnightblue" d="M499.158,-10C508.693,-10 517.667,-10 524.982,-10"/>
<polygon fill="midnightblue" stroke="midnightblue" points="499.065,-6.5001 489.065,-10 499.064,-13.5001 499.065,-6.5001"/>
</g>
</g>
</svg>
