<?xml version="1.0" encoding="UTF-8" standalone="no"?>
<!DOCTYPE svg PUBLIC "-//W3C//DTD SVG 1.1//EN"
 "http://www.w3.org/Graphics/SVG/1.1/DTD/svg11.dtd">
<!-- Generated by graphviz version 2.38.0 (20140413.2041)
 -->
<!-- Title: pdal::PointView::getField Pages: 1 -->
<svg width="763pt" height="39pt"
 viewBox="0.00 0.00 763.00 39.00" xmlns="http://www.w3.org/2000/svg" xmlns:xlink="http://www.w3.org/1999/xlink">
<g id="graph0" class="graph" transform="scale(1 1) rotate(0) translate(4 35)">
<title>pdal::PointView::getField</title>
<polygon fill="white" stroke="none" points="-4,4 -4,-35 759,-35 759,4 -4,4"/>
<!-- Node1 -->
<g id="node1" class="node"><title>Node1</title>
<polygon fill="#bfbfbf" stroke="black" points="0,-6 0,-25 125,-25 125,-6 0,-6"/>
<text text-anchor="middle" x="62.5" y="-13" font-family="Helvetica,sans-Serif" font-size="10.00">pdal::PointView::getField</text>
</g>
<!-- Node2 -->
<g id="node2" class="node"><title>Node2</title>
<g id="a_node2"><a xlink:href="classpdal_1_1DbWriter.html#a0860109cb58a4273d08cf8843b00a9e0" target="_top" xlink:title="pdal::DbWriter::readField">
<polygon fill="white" stroke="black" points="161,-6 161,-25 286,-25 286,-6 161,-6"/>
<text text-anchor="middle" x="223.5" y="-13" font-family="Helvetica,sans-Serif" font-size="10.00">pdal::DbWriter::readField</text>
</a>
</g>
</g>
<!-- Node1&#45;&gt;Node2 -->
<g id="edge1" class="edge"><title>Node1&#45;&gt;Node2</title>
<path fill="none" stroke="midnightblue" d="M135.592,-15.5C143.99,-15.5 152.499,-15.5 160.74,-15.5"/>
<polygon fill="midnightblue" stroke="midnightblue" points="135.429,-12.0001 125.429,-15.5 135.429,-19.0001 135.429,-12.0001"/>
</g>
<!-- Node3 -->
<g id="node3" class="node"><title>Node3</title>
<g id="a_node3"><a xlink:href="classpdal_1_1OciWriter.html#a5250821bc6d746c06f61f99290af65b8" target="_top" xlink:title="pdal::OciWriter::writeDim\lMajor">
<polygon fill="white" stroke="black" points="322,-0.5 322,-30.5 449,-30.5 449,-0.5 322,-0.5"/>
<text text-anchor="start" x="330" y="-18.5" font-family="Helvetica,sans-Serif" font-size="10.00">pdal::OciWriter::writeDim</text>
<text text-anchor="middle" x="385.5" y="-7.5" font-family="Helvetica,sans-Serif" font-size="10.00">Major</text>
</a>
</g>
</g>
<!-- Node2&#45;&gt;Node3 -->
<g id="edge2" class="edge"><title>Node2&#45;&gt;Node3</title>
<path fill="none" stroke="midnightblue" d="M296.536,-15.5C304.947,-15.5 313.477,-15.5 321.748,-15.5"/>
<polygon fill="midnightblue" stroke="midnightblue" points="296.36,-12.0001 286.36,-15.5 296.36,-19.0001 296.36,-12.0001"/>
</g>
<!-- Node4 -->
<g id="node4" class="node"><title>Node4</title>
<g id="a_node4"><a xlink:href="classpdal_1_1OciWriter.html#afa1630f5e91fc1cbc266f1839e4b62b9" target="_top" xlink:title="pdal::OciWriter::writeTile">
<polygon fill="white" stroke="black" points="485,-6 485,-25 610,-25 610,-6 485,-6"/>
<text text-anchor="middle" x="547.5" y="-13" font-family="Helvetica,sans-Serif" font-size="10.00">pdal::OciWriter::writeTile</text>
</a>
</g>
</g>
<!-- Node3&#45;&gt;Node4 -->
<g id="edge3" class="edge"><title>Node3&#45;&gt;Node4</title>
<path fill="none" stroke="midnightblue" d="M459.555,-15.5C468.044,-15.5 476.639,-15.5 484.953,-15.5"/>
<polygon fill="midnightblue" stroke="midnightblue" points="459.277,-12.0001 449.277,-15.5 459.277,-19.0001 459.277,-12.0001"/>
</g>
<!-- Node5 -->
<g id="node5" class="node"><title>Node5</title>
<g id="a_node5"><a xlink:href="classpdal_1_1OciWriter.html#a11f02a9af7350d831dff5f81859c76f2" target="_top" xlink:title="pdal::OciWriter::write">
<polygon fill="white" stroke="black" points="646,-6 646,-25 755,-25 755,-6 646,-6"/>
<text text-anchor="middle" x="700.5" y="-13" font-family="Helvetica,sans-Serif" font-size="10.00">pdal::OciWriter::write</text>
</a>
</g>
</g>
<!-- Node4&#45;&gt;Node5 -->
<g id="edge4" class="edge"><title>Node4&#45;&gt;Node5</title>
<path fill="none" stroke="midnightblue" d="M620.609,-15.5C629.064,-15.5 637.575,-15.5 645.718,-15.5"/>
<polygon fill="midnightblue" stroke="midnightblue" points="620.353,-12.0001 610.353,-15.5 620.353,-19.0001 620.353,-12.0001"/>
</g>
</g>
</svg>
