<?xml version="1.0" encoding="UTF-8" standalone="no"?>
<!DOCTYPE svg PUBLIC "-//W3C//DTD SVG 1.1//EN"
 "http://www.w3.org/Graphics/SVG/1.1/DTD/svg11.dtd">
<!-- Generated by graphviz version 2.38.0 (20140413.2041)
 -->
<!-- Title: pdal::BpfReader::readPolarData Pages: 1 -->
<svg width="488pt" height="28pt"
 viewBox="0.00 0.00 488.00 28.00" xmlns="http://www.w3.org/2000/svg" xmlns:xlink="http://www.w3.org/1999/xlink">
<g id="graph0" class="graph" transform="scale(1 1) rotate(0) translate(4 24)">
<title>pdal::BpfReader::readPolarData</title>
<polygon fill="white" stroke="none" points="-4,4 -4,-24 484,-24 484,4 -4,4"/>
<!-- Node1 -->
<g id="node1" class="node"><title>Node1</title>
<polygon fill="#bfbfbf" stroke="black" points="0,-0.5 0,-19.5 155,-19.5 155,-0.5 0,-0.5"/>
<text text-anchor="middle" x="77.5" y="-7.5" font-family="Helvetica,sans-Serif" font-size="10.00">pdal::BpfReader::readPolarData</text>
</g>
<!-- Node2 -->
<g id="node2" class="node"><title>Node2</title>
<g id="a_node2"><a xlink:href="classpdal_1_1BpfReader.html#ab7dd5387cb7f88c2c5bbbc1d4838be50" target="_top" xlink:title="pdal::BpfReader::initialize">
<polygon fill="white" stroke="black" points="191,-0.5 191,-19.5 319,-19.5 319,-0.5 191,-0.5"/>
<text text-anchor="middle" x="255" y="-7.5" font-family="Helvetica,sans-Serif" font-size="10.00">pdal::BpfReader::initialize</text>
</a>
</g>
</g>
<!-- Node1&#45;&gt;Node2 -->
<g id="edge1" class="edge"><title>Node1&#45;&gt;Node2</title>
<path fill="none" stroke="midnightblue" d="M165.306,-10C173.918,-10 182.543,-10 190.847,-10"/>
<polygon fill="midnightblue" stroke="midnightblue" points="165.222,-6.5001 155.222,-10 165.222,-13.5001 165.222,-6.5001"/>
</g>
<!-- Node3 -->
<g id="node3" class="node"><title>Node3</title>
<g id="a_node3"><a xlink:href="classpdal_1_1BpfReader.html#accb0283f384ad927abc5f37881be748c" target="_top" xlink:title="pdal::BpfReader::inspect">
<polygon fill="white" stroke="black" points="355,-0.5 355,-19.5 480,-19.5 480,-0.5 355,-0.5"/>
<text text-anchor="middle" x="417.5" y="-7.5" font-family="Helvetica,sans-Serif" font-size="10.00">pdal::BpfReader::inspect</text>
</a>
</g>
</g>
<!-- Node2&#45;&gt;Node3 -->
<g id="edge2" class="edge"><title>Node2&#45;&gt;Node3</title>
<path fill="none" stroke="midnightblue" d="M329.639,-10C338.065,-10 346.59,-10 354.837,-10"/>
<polygon fill="midnightblue" stroke="midnightblue" points="329.434,-6.5001 319.434,-10 329.434,-13.5001 329.434,-6.5001"/>
</g>
</g>
</svg>
