<?xml version="1.0" encoding="UTF-8" standalone="no"?>
<!DOCTYPE svg PUBLIC "-//W3C//DTD SVG 1.1//EN"
 "http://www.w3.org/Graphics/SVG/1.1/DTD/svg11.dtd">
<!-- Generated by graphviz version 2.38.0 (20140413.2041)
 -->
<!-- Title: pdal::Stage::execute Pages: 1 -->
<svg width="952pt" height="427pt"
 viewBox="0.00 0.00 952.00 427.00" xmlns="http://www.w3.org/2000/svg" xmlns:xlink="http://www.w3.org/1999/xlink">
<g id="graph0" class="graph" transform="scale(1 1) rotate(0) translate(4 423)">
<title>pdal::Stage::execute</title>
<polygon fill="white" stroke="none" points="-4,4 -4,-423 948,-423 948,4 -4,4"/>
<!-- Node1 -->
<g id="node1" class="node"><title>Node1</title>
<polygon fill="#bfbfbf" stroke="black" points="0,-203 0,-222 107,-222 107,-203 0,-203"/>
<text text-anchor="middle" x="53.5" y="-210" font-family="Helvetica,sans-Serif" font-size="10.00">pdal::Stage::execute</text>
</g>
<!-- Node1&#45;&gt;Node1 -->
<g id="edge4" class="edge"><title>Node1&#45;&gt;Node1</title>
<path fill="none" stroke="midnightblue" d="M27.2981,-222.257C14.5512,-231.065 23.2852,-240.5 53.5,-240.5 73.8006,-240.5 84.4044,-236.241 85.3114,-230.775"/>
<polygon fill="midnightblue" stroke="midnightblue" points="88.1252,-228.684 79.7019,-222.257 82.2791,-232.534 88.1252,-228.684"/>
</g>
<!-- Node2 -->
<g id="node2" class="node"><title>Node2</title>
<g id="a_node2"><a xlink:href="classpdal_1_1BasePointTable.html#a670592aca912391f1a90073a2031e5e0" target="_top" xlink:title="pdal::BasePointTable\l::addSpatialReference">
<polygon fill="white" stroke="black" points="167,-388.5 167,-418.5 280,-418.5 280,-388.5 167,-388.5"/>
<text text-anchor="start" x="175" y="-406.5" font-family="Helvetica,sans-Serif" font-size="10.00">pdal::BasePointTable</text>
<text text-anchor="middle" x="223.5" y="-395.5" font-family="Helvetica,sans-Serif" font-size="10.00">::addSpatialReference</text>
</a>
</g>
</g>
<!-- Node1&#45;&gt;Node2 -->
<g id="edge1" class="edge"><title>Node1&#45;&gt;Node2</title>
<path fill="none" stroke="midnightblue" d="M56.7858,-222.089C64.0806,-250.589 89.5298,-335.519 143,-379.5 147.315,-383.049 152.145,-386.073 157.235,-388.651"/>
<polygon fill="midnightblue" stroke="midnightblue" points="156.064,-391.961 166.624,-392.824 158.908,-385.564 156.064,-391.961"/>
</g>
<!-- Node3 -->
<g id="node3" class="node"><title>Node3</title>
<g id="a_node3"><a xlink:href="classpdal_1_1BasePointTable.html#aa3ed63a9e1a8897ccb7dc81a614f6141" target="_top" xlink:title="pdal::BasePointTable\l::clearSpatialReferences">
<polygon fill="white" stroke="black" points="161.5,-339.5 161.5,-369.5 285.5,-369.5 285.5,-339.5 161.5,-339.5"/>
<text text-anchor="start" x="169.5" y="-357.5" font-family="Helvetica,sans-Serif" font-size="10.00">pdal::BasePointTable</text>
<text text-anchor="middle" x="223.5" y="-346.5" font-family="Helvetica,sans-Serif" font-size="10.00">::clearSpatialReferences</text>
</a>
</g>
</g>
<!-- Node1&#45;&gt;Node3 -->
<g id="edge2" class="edge"><title>Node1&#45;&gt;Node3</title>
<path fill="none" stroke="midnightblue" d="M58.9935,-222.079C70.0144,-244.525 100.609,-300.857 143,-330.5 145.863,-332.502 148.897,-334.341 152.043,-336.028"/>
<polygon fill="midnightblue" stroke="midnightblue" points="150.628,-339.231 161.159,-340.394 153.652,-332.918 150.628,-339.231"/>
</g>
<!-- Node4 -->
<g id="node4" class="node"><title>Node4</title>
<g id="a_node4"><a xlink:href="classpdal_1_1SpatialReference.html#a48fa2f7e79ea172b62ad2e874ff01610" target="_top" xlink:title="pdal::SpatialReference\l::empty">
<polygon fill="white" stroke="black" points="165.5,-290.5 165.5,-320.5 281.5,-320.5 281.5,-290.5 165.5,-290.5"/>
<text text-anchor="start" x="173.5" y="-308.5" font-family="Helvetica,sans-Serif" font-size="10.00">pdal::SpatialReference</text>
<text text-anchor="middle" x="223.5" y="-297.5" font-family="Helvetica,sans-Serif" font-size="10.00">::empty</text>
</a>
</g>
</g>
<!-- Node1&#45;&gt;Node4 -->
<g id="edge3" class="edge"><title>Node1&#45;&gt;Node4</title>
<path fill="none" stroke="midnightblue" d="M64.2611,-222.134C79.7192,-236.893 111.338,-265.109 143,-281.5 147.181,-283.665 151.589,-285.667 156.098,-287.515"/>
<polygon fill="midnightblue" stroke="midnightblue" points="154.865,-290.79 165.455,-291.089 157.363,-284.251 154.865,-290.79"/>
</g>
<!-- Node5 -->
<g id="node5" class="node"><title>Node5</title>
<g id="a_node5"><a xlink:href="classpdal_1_1BasePointTable.html#a2554cd260c437c9b1e4a017a28a5c7de" target="_top" xlink:title="pdal::BasePointTable\l::finalize">
<polygon fill="white" stroke="black" points="168.5,-241.5 168.5,-271.5 278.5,-271.5 278.5,-241.5 168.5,-241.5"/>
<text text-anchor="start" x="176.5" y="-259.5" font-family="Helvetica,sans-Serif" font-size="10.00">pdal::BasePointTable</text>
<text text-anchor="middle" x="223.5" y="-248.5" font-family="Helvetica,sans-Serif" font-size="10.00">::finalize</text>
</a>
</g>
</g>
<!-- Node1&#45;&gt;Node5 -->
<g id="edge5" class="edge"><title>Node1&#45;&gt;Node5</title>
<path fill="none" stroke="midnightblue" d="M90.9535,-222.047C110.625,-227.199 135.483,-233.71 158.28,-239.68"/>
<polygon fill="midnightblue" stroke="midnightblue" points="157.681,-243.142 168.242,-242.289 159.455,-236.37 157.681,-243.142"/>
</g>
<!-- Node6 -->
<g id="node6" class="node"><title>Node6</title>
<g id="a_node6"><a xlink:href="classpdal_1_1Stage.html#a9889b4446f40daa6f4cd7bfe3c567839" target="_top" xlink:title="pdal::Stage::getSpatialReference">
<polygon fill="white" stroke="black" points="143,-203 143,-222 304,-222 304,-203 143,-203"/>
<text text-anchor="middle" x="223.5" y="-210" font-family="Helvetica,sans-Serif" font-size="10.00">pdal::Stage::getSpatialReference</text>
</a>
</g>
</g>
<!-- Node1&#45;&gt;Node6 -->
<g id="edge6" class="edge"><title>Node1&#45;&gt;Node6</title>
<path fill="none" stroke="midnightblue" d="M107.195,-212.5C115.357,-212.5 123.978,-212.5 132.683,-212.5"/>
<polygon fill="midnightblue" stroke="midnightblue" points="132.918,-216 142.918,-212.5 132.918,-209 132.918,-216"/>
</g>
<!-- Node7 -->
<g id="node7" class="node"><title>Node7</title>
<g id="a_node7"><a xlink:href="classpdal_1_1Stage.html#a1b00532ede55b90a7b6332a2966f5626" target="_top" xlink:title="pdal::Stage::l_done">
<polygon fill="white" stroke="black" points="173,-165 173,-184 274,-184 274,-165 173,-165"/>
<text text-anchor="middle" x="223.5" y="-172" font-family="Helvetica,sans-Serif" font-size="10.00">pdal::Stage::l_done</text>
</a>
</g>
</g>
<!-- Node1&#45;&gt;Node7 -->
<g id="edge7" class="edge"><title>Node1&#45;&gt;Node7</title>
<path fill="none" stroke="midnightblue" d="M96.8935,-202.911C119.263,-197.851 146.898,-191.6 170.547,-186.251"/>
<polygon fill="midnightblue" stroke="midnightblue" points="171.43,-189.64 180.411,-184.02 169.886,-182.813 171.43,-189.64"/>
</g>
<!-- Node9 -->
<g id="node9" class="node"><title>Node9</title>
<g id="a_node9"><a xlink:href="classpdal_1_1Stage.html#afb562c59c53ed8120df9106655eb2543" target="_top" xlink:title="pdal::Stage::ready">
<polygon fill="white" stroke="black" points="175.5,-127 175.5,-146 271.5,-146 271.5,-127 175.5,-127"/>
<text text-anchor="middle" x="223.5" y="-134" font-family="Helvetica,sans-Serif" font-size="10.00">pdal::Stage::ready</text>
</a>
</g>
</g>
<!-- Node1&#45;&gt;Node9 -->
<g id="edge9" class="edge"><title>Node1&#45;&gt;Node9</title>
<path fill="none" stroke="midnightblue" d="M66.3591,-202.979C82.6803,-190.333 113.417,-168.126 143,-155.5 150.158,-152.445 157.898,-149.827 165.642,-147.599"/>
<polygon fill="midnightblue" stroke="midnightblue" points="166.656,-150.951 175.409,-144.981 164.844,-144.189 166.656,-150.951"/>
</g>
<!-- Node10 -->
<g id="node10" class="node"><title>Node10</title>
<g id="a_node10"><a xlink:href="classpdal_1_1Stage.html#a74cf636cb0f633411e4e40dcd718508a" target="_top" xlink:title="pdal::Stage::startLogging">
<polygon fill="white" stroke="black" points="161,-89 161,-108 286,-108 286,-89 161,-89"/>
<text text-anchor="middle" x="223.5" y="-96" font-family="Helvetica,sans-Serif" font-size="10.00">pdal::Stage::startLogging</text>
</a>
</g>
</g>
<!-- Node1&#45;&gt;Node10 -->
<g id="edge10" class="edge"><title>Node1&#45;&gt;Node10</title>
<path fill="none" stroke="midnightblue" d="M60.5153,-202.957C73.2306,-183.615 104.83,-139.747 143,-117.5 146.724,-115.329 150.684,-113.407 154.77,-111.703"/>
<polygon fill="midnightblue" stroke="midnightblue" points="156.319,-114.862 164.486,-108.113 153.893,-108.296 156.319,-114.862"/>
</g>
<!-- Node19 -->
<g id="node19" class="node"><title>Node19</title>
<g id="a_node19"><a xlink:href="classpdal_1_1Stage.html#ae49e996fe285350923a3bf44d027adad" target="_top" xlink:title="pdal::Stage::stopLogging">
<polygon fill="white" stroke="black" points="161,-51 161,-70 286,-70 286,-51 161,-51"/>
<text text-anchor="middle" x="223.5" y="-58" font-family="Helvetica,sans-Serif" font-size="10.00">pdal::Stage::stopLogging</text>
</a>
</g>
</g>
<!-- Node1&#45;&gt;Node19 -->
<g id="edge20" class="edge"><title>Node1&#45;&gt;Node19</title>
<path fill="none" stroke="midnightblue" d="M58.0856,-202.641C67.6698,-177.748 96.369,-112.031 143,-79.5 145.881,-77.4905 148.947,-75.6919 152.137,-74.0823"/>
<polygon fill="midnightblue" stroke="midnightblue" points="153.643,-77.2439 161.401,-70.0282 150.836,-70.8312 153.643,-77.2439"/>
</g>
<!-- Node8 -->
<g id="node8" class="node"><title>Node8</title>
<g id="a_node8"><a xlink:href="classpdal_1_1Stage.html#a2444e73dc41bfc0b94981909595ef2ca" target="_top" xlink:title="pdal::Stage::done">
<polygon fill="white" stroke="black" points="363,-171 363,-190 456,-190 456,-171 363,-171"/>
<text text-anchor="middle" x="409.5" y="-178" font-family="Helvetica,sans-Serif" font-size="10.00">pdal::Stage::done</text>
</a>
</g>
</g>
<!-- Node7&#45;&gt;Node8 -->
<g id="edge8" class="edge"><title>Node7&#45;&gt;Node8</title>
<path fill="none" stroke="midnightblue" d="M274.293,-176.124C298.521,-176.914 327.734,-177.866 352.71,-178.681"/>
<polygon fill="midnightblue" stroke="midnightblue" points="352.66,-182.181 362.768,-179.009 352.888,-175.185 352.66,-182.181"/>
</g>
<!-- Node11 -->
<g id="node11" class="node"><title>Node11</title>
<g id="a_node11"><a xlink:href="classpdal_1_1gdal_1_1ErrorHandler.html#a56e0125595a43bf3b0cbd0b9a4bc55ea" target="_top" xlink:title="pdal::gdal::ErrorHandler\l::getGlobalErrorHandler">
<polygon fill="white" stroke="black" points="350,-121.5 350,-151.5 469,-151.5 469,-121.5 350,-121.5"/>
<text text-anchor="start" x="358" y="-139.5" font-family="Helvetica,sans-Serif" font-size="10.00">pdal::gdal::ErrorHandler</text>
<text text-anchor="middle" x="409.5" y="-128.5" font-family="Helvetica,sans-Serif" font-size="10.00">::getGlobalErrorHandler</text>
</a>
</g>
</g>
<!-- Node10&#45;&gt;Node11 -->
<g id="edge11" class="edge"><title>Node10&#45;&gt;Node11</title>
<path fill="none" stroke="midnightblue" d="M270.931,-108.089C291.797,-112.398 316.847,-117.572 339.82,-122.316"/>
<polygon fill="midnightblue" stroke="midnightblue" points="339.361,-125.795 349.862,-124.39 340.777,-118.94 339.361,-125.795"/>
</g>
<!-- Node15 -->
<g id="node15" class="node"><title>Node15</title>
<g id="a_node15"><a xlink:href="classpdal_1_1Stage.html#aec4fb27c40bb4b032ff003a89a950dd4" target="_top" xlink:title="pdal::Stage::isDebug">
<polygon fill="white" stroke="black" points="355.5,-83 355.5,-102 463.5,-102 463.5,-83 355.5,-83"/>
<text text-anchor="middle" x="409.5" y="-90" font-family="Helvetica,sans-Serif" font-size="10.00">pdal::Stage::isDebug</text>
</a>
</g>
</g>
<!-- Node10&#45;&gt;Node15 -->
<g id="edge16" class="edge"><title>Node10&#45;&gt;Node15</title>
<path fill="none" stroke="midnightblue" d="M286.025,-96.4937C305.065,-95.8729 326.068,-95.188 345.224,-94.5633"/>
<polygon fill="midnightblue" stroke="midnightblue" points="345.471,-98.0573 355.351,-94.2331 345.243,-91.061 345.471,-98.0573"/>
</g>
<!-- Node16 -->
<g id="node16" class="node"><title>Node16</title>
<g id="a_node16"><a xlink:href="classpdal_1_1gdal_1_1ErrorHandler.html#ace1cff928ab179f671181ebaf4d280a4" target="_top" xlink:title="pdal::gdal::ErrorHandler::set">
<polygon fill="white" stroke="black" points="340,-45 340,-64 479,-64 479,-45 340,-45"/>
<text text-anchor="middle" x="409.5" y="-52" font-family="Helvetica,sans-Serif" font-size="10.00">pdal::gdal::ErrorHandler::set</text>
</a>
</g>
</g>
<!-- Node10&#45;&gt;Node16 -->
<g id="edge17" class="edge"><title>Node10&#45;&gt;Node16</title>
<path fill="none" stroke="midnightblue" d="M264.536,-88.9334C277.163,-85.9159 291.164,-82.5692 304,-79.5 321.745,-75.257 341.184,-70.6071 358.432,-66.4804"/>
<polygon fill="midnightblue" stroke="midnightblue" points="359.394,-69.849 368.305,-64.1182 357.766,-63.0412 359.394,-69.849"/>
</g>
<!-- Node12 -->
<g id="node12" class="node"><title>Node12</title>
<g id="a_node12"><a xlink:href="classpdal_1_1gdal_1_1ErrorHandler.html#a73215504640551589024d36018f81d33" target="_top" xlink:title="pdal::gdal::ErrorHandler\l::ErrorHandler">
<polygon fill="white" stroke="black" points="515,-146.5 515,-176.5 634,-176.5 634,-146.5 515,-146.5"/>
<text text-anchor="start" x="523" y="-164.5" font-family="Helvetica,sans-Serif" font-size="10.00">pdal::gdal::ErrorHandler</text>
<text text-anchor="middle" x="574.5" y="-153.5" font-family="Helvetica,sans-Serif" font-size="10.00">::ErrorHandler</text>
</a>
</g>
</g>
<!-- Node11&#45;&gt;Node12 -->
<g id="edge12" class="edge"><title>Node11&#45;&gt;Node12</title>
<path fill="none" stroke="midnightblue" d="M469.347,-145.526C480.773,-147.278 492.844,-149.129 504.56,-150.926"/>
<polygon fill="midnightblue" stroke="midnightblue" points="504.325,-154.431 514.74,-152.488 505.386,-147.512 504.325,-154.431"/>
</g>
<!-- Node13 -->
<g id="node13" class="node"><title>Node13</title>
<g id="a_node13"><a xlink:href="classpdal_1_1gdal_1_1ErrorHandler.html#a6381c703007e462e66d9906c806ec0a4" target="_top" xlink:title="pdal::gdal::ErrorHandler\l::trampoline">
<polygon fill="white" stroke="black" points="670,-124.5 670,-154.5 789,-154.5 789,-124.5 670,-124.5"/>
<text text-anchor="start" x="678" y="-142.5" font-family="Helvetica,sans-Serif" font-size="10.00">pdal::gdal::ErrorHandler</text>
<text text-anchor="middle" x="729.5" y="-131.5" font-family="Helvetica,sans-Serif" font-size="10.00">::trampoline</text>
</a>
</g>
</g>
<!-- Node12&#45;&gt;Node13 -->
<g id="edge13" class="edge"><title>Node12&#45;&gt;Node13</title>
<path fill="none" stroke="midnightblue" d="M634.216,-153.057C642.635,-151.847 651.359,-150.592 659.947,-149.357"/>
<polygon fill="midnightblue" stroke="midnightblue" points="660.541,-152.808 669.941,-147.92 659.545,-145.879 660.541,-152.808"/>
</g>
<!-- Node13&#45;&gt;Node11 -->
<g id="edge14" class="edge"><title>Node13&#45;&gt;Node11</title>
<path fill="none" stroke="midnightblue" d="M669.775,-138.105C657.932,-137.867 645.568,-137.648 634,-137.5 582.167,-136.836 523.566,-136.592 479.378,-136.512"/>
<polygon fill="midnightblue" stroke="midnightblue" points="479.329,-133.012 469.324,-136.496 479.318,-140.012 479.329,-133.012"/>
</g>
<!-- Node14 -->
<g id="node14" class="node"><title>Node14</title>
<g id="a_node14"><a xlink:href="classpdal_1_1gdal_1_1ErrorHandler.html#a4d90644b75f1266d089af2bc61bb8de7" target="_top" xlink:title="pdal::gdal::ErrorHandler\l::handle">
<polygon fill="white" stroke="black" points="825,-124.5 825,-154.5 944,-154.5 944,-124.5 825,-124.5"/>
<text text-anchor="start" x="833" y="-142.5" font-family="Helvetica,sans-Serif" font-size="10.00">pdal::gdal::ErrorHandler</text>
<text text-anchor="middle" x="884.5" y="-131.5" font-family="Helvetica,sans-Serif" font-size="10.00">::handle</text>
</a>
</g>
</g>
<!-- Node13&#45;&gt;Node14 -->
<g id="edge15" class="edge"><title>Node13&#45;&gt;Node14</title>
<path fill="none" stroke="midnightblue" d="M789.216,-139.5C797.544,-139.5 806.169,-139.5 814.667,-139.5"/>
<polygon fill="midnightblue" stroke="midnightblue" points="814.941,-143 824.941,-139.5 814.941,-136 814.941,-143"/>
</g>
<!-- Node17 -->
<g id="node17" class="node"><title>Node17</title>
<g id="a_node17"><a xlink:href="classpdal_1_1gdal_1_1ErrorHandler.html#abe7fbf19bfcfbb0be1c8ae934bd5c9d2" target="_top" xlink:title="pdal::gdal::ErrorHandler\l::setLog">
<polygon fill="white" stroke="black" points="515,-49.5 515,-79.5 634,-79.5 634,-49.5 515,-49.5"/>
<text text-anchor="start" x="523" y="-67.5" font-family="Helvetica,sans-Serif" font-size="10.00">pdal::gdal::ErrorHandler</text>
<text text-anchor="middle" x="574.5" y="-56.5" font-family="Helvetica,sans-Serif" font-size="10.00">::setLog</text>
</a>
</g>
</g>
<!-- Node16&#45;&gt;Node17 -->
<g id="edge18" class="edge"><title>Node16&#45;&gt;Node17</title>
<path fill="none" stroke="midnightblue" d="M479.154,-58.7119C487.628,-59.2318 496.293,-59.7634 504.768,-60.2833"/>
<polygon fill="midnightblue" stroke="midnightblue" points="504.791,-63.7912 514.987,-60.9102 505.22,-56.8044 504.791,-63.7912"/>
</g>
<!-- Node18 -->
<g id="node18" class="node"><title>Node18</title>
<g id="a_node18"><a xlink:href="classpdal_1_1gdal_1_1ErrorHandler.html#a61ea2c53f778817785d39cd9fc6a81a6" target="_top" xlink:title="pdal::gdal::ErrorHandler\l::setDebug">
<polygon fill="white" stroke="black" points="515,-0.5 515,-30.5 634,-30.5 634,-0.5 515,-0.5"/>
<text text-anchor="start" x="523" y="-18.5" font-family="Helvetica,sans-Serif" font-size="10.00">pdal::gdal::ErrorHandler</text>
<text text-anchor="middle" x="574.5" y="-7.5" font-family="Helvetica,sans-Serif" font-size="10.00">::setDebug</text>
</a>
</g>
</g>
<!-- Node16&#45;&gt;Node18 -->
<g id="edge19" class="edge"><title>Node16&#45;&gt;Node18</title>
<path fill="none" stroke="midnightblue" d="M450.374,-44.9595C466.832,-41.0218 486.385,-36.3434 505.008,-31.8876"/>
<polygon fill="midnightblue" stroke="midnightblue" points="506.025,-35.2433 514.936,-29.5123 504.396,-28.4354 506.025,-35.2433"/>
</g>
</g>
</svg>
