<?xml version="1.0" encoding="UTF-8" standalone="no"?>
<!DOCTYPE svg PUBLIC "-//W3C//DTD SVG 1.1//EN"
 "http://www.w3.org/Graphics/SVG/1.1/DTD/svg11.dtd">
<!-- Generated by graphviz version 2.38.0 (20140413.2041)
 -->
<!-- Title: pdal::BpfReader::readUlemData Pages: 1 -->
<svg width="1020pt" height="105pt"
 viewBox="0.00 0.00 1020.00 104.50" xmlns="http://www.w3.org/2000/svg" xmlns:xlink="http://www.w3.org/1999/xlink">
<g id="graph0" class="graph" transform="scale(1 1) rotate(0) translate(4 100.5)">
<title>pdal::BpfReader::readUlemData</title>
<polygon fill="white" stroke="none" points="-4,4 -4,-100.5 1016,-100.5 1016,4 -4,4"/>
<!-- Node1 -->
<g id="node1" class="node"><title>Node1</title>
<polygon fill="#bfbfbf" stroke="black" points="0,-30 0,-49 156,-49 156,-30 0,-30"/>
<text text-anchor="middle" x="78" y="-37" font-family="Helvetica,sans-Serif" font-size="10.00">pdal::BpfReader::readUlemData</text>
</g>
<!-- Node2 -->
<g id="node2" class="node"><title>Node2</title>
<g id="a_node2"><a xlink:href="structpdal_1_1BpfUlemHeader.html#a1da471dacef7cbde51256a671330877b" target="_top" xlink:title="pdal::BpfUlemHeader\l::read">
<polygon fill="white" stroke="black" points="192,-49.5 192,-79.5 302,-79.5 302,-49.5 192,-49.5"/>
<text text-anchor="start" x="200" y="-67.5" font-family="Helvetica,sans-Serif" font-size="10.00">pdal::BpfUlemHeader</text>
<text text-anchor="middle" x="247" y="-56.5" font-family="Helvetica,sans-Serif" font-size="10.00">::read</text>
</a>
</g>
</g>
<!-- Node1&#45;&gt;Node2 -->
<g id="edge1" class="edge"><title>Node1&#45;&gt;Node2</title>
<path fill="none" stroke="midnightblue" d="M142.612,-49.0227C155.413,-50.9391 168.876,-52.9545 181.7,-54.8743"/>
<polygon fill="midnightblue" stroke="midnightblue" points="181.415,-58.3705 191.823,-56.3897 182.452,-51.4477 181.415,-58.3705"/>
</g>
<!-- Node9 -->
<g id="node9" class="node"><title>Node9</title>
<g id="a_node9"><a xlink:href="structpdal_1_1BpfUlemFrame.html#a74e9500c4f91ea30adcb702a9dad7e66" target="_top" xlink:title="pdal::BpfUlemFrame\l::read">
<polygon fill="white" stroke="black" points="193.5,-0.5 193.5,-30.5 300.5,-30.5 300.5,-0.5 193.5,-0.5"/>
<text text-anchor="start" x="201.5" y="-18.5" font-family="Helvetica,sans-Serif" font-size="10.00">pdal::BpfUlemFrame</text>
<text text-anchor="middle" x="247" y="-7.5" font-family="Helvetica,sans-Serif" font-size="10.00">::read</text>
</a>
</g>
</g>
<!-- Node1&#45;&gt;Node9 -->
<g id="edge8" class="edge"><title>Node1&#45;&gt;Node9</title>
<path fill="none" stroke="midnightblue" d="M145.483,-29.9456C157.918,-28.1584 170.88,-26.2957 183.2,-24.5251"/>
<polygon fill="midnightblue" stroke="midnightblue" points="183.972,-27.9503 193.372,-23.0633 182.976,-21.0214 183.972,-27.9503"/>
</g>
<!-- Node3 -->
<g id="node3" class="node"><title>Node3</title>
<g id="a_node3"><a xlink:href="classpdal_1_1IStream.html#a1868ec9fd091d4af1281c2181315521a" target="_top" xlink:title="pdal::IStream::get">
<polygon fill="white" stroke="black" points="343,-77 343,-96 438,-96 438,-77 343,-77"/>
<text text-anchor="middle" x="390.5" y="-84" font-family="Helvetica,sans-Serif" font-size="10.00">pdal::IStream::get</text>
</a>
</g>
</g>
<!-- Node2&#45;&gt;Node3 -->
<g id="edge2" class="edge"><title>Node2&#45;&gt;Node3</title>
<path fill="none" stroke="midnightblue" d="M302.303,-72.9429C312.357,-74.506 322.88,-76.1421 332.997,-77.7151"/>
<polygon fill="midnightblue" stroke="midnightblue" points="332.528,-81.1841 342.947,-79.2621 333.604,-74.2672 332.528,-81.1841"/>
</g>
<!-- Node8 -->
<g id="node8" class="node"><title>Node8</title>
<g id="a_node8"><a xlink:href="classpdal_1_1IStreamMarker.html#a7c9b2f97052085aa9435357789ee25ca" target="_top" xlink:title="pdal::IStreamMarker\l::rewind">
<polygon fill="white" stroke="black" points="338,-27.5 338,-57.5 443,-57.5 443,-27.5 338,-27.5"/>
<text text-anchor="start" x="346" y="-45.5" font-family="Helvetica,sans-Serif" font-size="10.00">pdal::IStreamMarker</text>
<text text-anchor="middle" x="390.5" y="-34.5" font-family="Helvetica,sans-Serif" font-size="10.00">::rewind</text>
</a>
</g>
</g>
<!-- Node2&#45;&gt;Node8 -->
<g id="edge7" class="edge"><title>Node2&#45;&gt;Node8</title>
<path fill="none" stroke="midnightblue" d="M302.303,-56.0571C310.705,-54.7507 319.436,-53.3934 327.983,-52.0645"/>
<polygon fill="midnightblue" stroke="midnightblue" points="328.559,-55.5171 337.902,-50.5223 327.483,-48.6002 328.559,-55.5171"/>
</g>
<!-- Node4 -->
<g id="node4" class="node"><title>Node4</title>
<g id="a_node4"><a xlink:href="namespacepdal_1_1Dimension.html#acf81dae9d5946f3a941f9df154b2329b" target="_top" xlink:title="pdal::Dimension::size">
<polygon fill="white" stroke="black" points="479,-77 479,-96 590,-96 590,-77 479,-77"/>
<text text-anchor="middle" x="534.5" y="-84" font-family="Helvetica,sans-Serif" font-size="10.00">pdal::Dimension::size</text>
</a>
</g>
</g>
<!-- Node3&#45;&gt;Node4 -->
<g id="edge3" class="edge"><title>Node3&#45;&gt;Node4</title>
<path fill="none" stroke="midnightblue" d="M438.39,-86.5C448.084,-86.5 458.458,-86.5 468.662,-86.5"/>
<polygon fill="midnightblue" stroke="midnightblue" points="468.777,-90.0001 478.777,-86.5 468.777,-83.0001 468.777,-90.0001"/>
</g>
<!-- Node5 -->
<g id="node5" class="node"><title>Node5</title>
<g id="a_node5"><a xlink:href="namespacepdal_1_1Utils.html#a59253304d0f929e3a3ea00f09636002f" target="_top" xlink:title="pdal::Utils::toNative">
<polygon fill="white" stroke="black" points="626,-77 626,-96 730,-96 730,-77 626,-77"/>
<text text-anchor="middle" x="678" y="-84" font-family="Helvetica,sans-Serif" font-size="10.00">pdal::Utils::toNative</text>
</a>
</g>
</g>
<!-- Node4&#45;&gt;Node5 -->
<g id="edge4" class="edge"><title>Node4&#45;&gt;Node5</title>
<path fill="none" stroke="midnightblue" d="M590.208,-86.5C598.501,-86.5 607.105,-86.5 615.53,-86.5"/>
<polygon fill="midnightblue" stroke="midnightblue" points="615.686,-90.0001 625.685,-86.5 615.685,-83.0001 615.686,-90.0001"/>
</g>
<!-- Node6 -->
<g id="node6" class="node"><title>Node6</title>
<g id="a_node6"><a xlink:href="namespacepdal_1_1Dimension.html#a880d689fed54aa3ded6f88c9e058c5d2" target="_top" xlink:title="pdal::Dimension::type">
<polygon fill="white" stroke="black" points="766,-77 766,-96 878,-96 878,-77 766,-77"/>
<text text-anchor="middle" x="822" y="-84" font-family="Helvetica,sans-Serif" font-size="10.00">pdal::Dimension::type</text>
</a>
</g>
</g>
<!-- Node5&#45;&gt;Node6 -->
<g id="edge5" class="edge"><title>Node5&#45;&gt;Node6</title>
<path fill="none" stroke="midnightblue" d="M730.265,-86.5C738.602,-86.5 747.332,-86.5 755.946,-86.5"/>
<polygon fill="midnightblue" stroke="midnightblue" points="755.972,-90.0001 765.972,-86.5 755.972,-83.0001 755.972,-90.0001"/>
</g>
<!-- Node7 -->
<g id="node7" class="node"><title>Node7</title>
<g id="a_node7"><a xlink:href="namespacepdal_1_1Utils.html#a5268937cf695835e55392f752dc02cb2" target="_top" xlink:title="pdal::Utils::tolower">
<polygon fill="white" stroke="black" points="914,-77 914,-96 1012,-96 1012,-77 914,-77"/>
<text text-anchor="middle" x="963" y="-84" font-family="Helvetica,sans-Serif" font-size="10.00">pdal::Utils::tolower</text>
</a>
</g>
</g>
<!-- Node6&#45;&gt;Node7 -->
<g id="edge6" class="edge"><title>Node6&#45;&gt;Node7</title>
<path fill="none" stroke="midnightblue" d="M878.336,-86.5C886.625,-86.5 895.194,-86.5 903.546,-86.5"/>
<polygon fill="midnightblue" stroke="midnightblue" points="903.59,-90.0001 913.59,-86.5 903.59,-83.0001 903.59,-90.0001"/>
</g>
</g>
</svg>
