<?xml version="1.0" encoding="UTF-8" standalone="no"?>
<!DOCTYPE svg PUBLIC "-//W3C//DTD SVG 1.1//EN"
 "http://www.w3.org/Graphics/SVG/1.1/DTD/svg11.dtd">
<!-- Generated by graphviz version 2.38.0 (20140413.2041)
 -->
<!-- Title: pdal::DimBuilder::execute Pages: 1 -->
<svg width="1140pt" height="558pt"
 viewBox="0.00 0.00 1140.00 558.00" xmlns="http://www.w3.org/2000/svg" xmlns:xlink="http://www.w3.org/1999/xlink">
<g id="graph0" class="graph" transform="scale(1 1) rotate(0) translate(4 554)">
<title>pdal::DimBuilder::execute</title>
<polygon fill="white" stroke="none" points="-4,4 -4,-554 1136,-554 1136,4 -4,4"/>
<!-- Node1 -->
<g id="node1" class="node"><title>Node1</title>
<polygon fill="#bfbfbf" stroke="black" points="0,-284.5 0,-303.5 129,-303.5 129,-284.5 0,-284.5"/>
<text text-anchor="middle" x="64.5" y="-291.5" font-family="Helvetica,sans-Serif" font-size="10.00">pdal::DimBuilder::execute</text>
</g>
<!-- Node2 -->
<g id="node2" class="node"><title>Node2</title>
<g id="a_node2"><a xlink:href="classpdal_1_1DimBuilder.html#a51bc21469f4546a9d5152f725ae41345" target="_top" xlink:title="pdal::DimBuilder::extractDim">
<polygon fill="white" stroke="black" points="166,-404.5 166,-423.5 309,-423.5 309,-404.5 166,-404.5"/>
<text text-anchor="middle" x="237.5" y="-411.5" font-family="Helvetica,sans-Serif" font-size="10.00">pdal::DimBuilder::extractDim</text>
</a>
</g>
</g>
<!-- Node1&#45;&gt;Node2 -->
<g id="edge1" class="edge"><title>Node1&#45;&gt;Node2</title>
<path fill="none" stroke="midnightblue" d="M79.2046,-303.617C108.721,-324.331 178.527,-373.317 214.389,-398.484"/>
<polygon fill="midnightblue" stroke="midnightblue" points="212.534,-401.458 222.73,-404.337 216.555,-395.728 212.534,-401.458"/>
</g>
<!-- Node18 -->
<g id="node18" class="node"><title>Node18</title>
<g id="a_node18"><a xlink:href="classpdal_1_1DimBuilder.html#a708e0d65c30b147f1ac1c8cfb8eb2c02" target="_top" xlink:title="pdal::DimBuilder::writeOutput">
<polygon fill="white" stroke="black" points="165,-145.5 165,-164.5 310,-164.5 310,-145.5 165,-145.5"/>
<text text-anchor="middle" x="237.5" y="-152.5" font-family="Helvetica,sans-Serif" font-size="10.00">pdal::DimBuilder::writeOutput</text>
</a>
</g>
</g>
<!-- Node1&#45;&gt;Node18 -->
<g id="edge18" class="edge"><title>Node1&#45;&gt;Node18</title>
<path fill="none" stroke="midnightblue" d="M77.2535,-284.446C106.174,-260.937 181.033,-200.087 216.847,-170.975"/>
<polygon fill="midnightblue" stroke="midnightblue" points="219.112,-173.644 224.664,-164.621 214.697,-168.213 219.112,-173.644"/>
</g>
<!-- Node3 -->
<g id="node3" class="node"><title>Node3</title>
<g id="a_node3"><a xlink:href="namespacepdal_1_1Dimension.html#af3176b0b7e6b4be000317846cf7c2718" target="_top" xlink:title="pdal::Dimension::name">
<polygon fill="white" stroke="black" points="372.5,-530.5 372.5,-549.5 489.5,-549.5 489.5,-530.5 372.5,-530.5"/>
<text text-anchor="middle" x="431" y="-537.5" font-family="Helvetica,sans-Serif" font-size="10.00">pdal::Dimension::name</text>
</a>
</g>
</g>
<!-- Node2&#45;&gt;Node3 -->
<g id="edge2" class="edge"><title>Node2&#45;&gt;Node3</title>
<path fill="none" stroke="midnightblue" d="M245.286,-423.796C260.594,-445.1 300.083,-495.751 346,-521 351.204,-523.861 356.815,-526.292 362.582,-528.358"/>
<polygon fill="midnightblue" stroke="midnightblue" points="361.798,-531.782 372.389,-531.499 363.933,-525.115 361.798,-531.782"/>
</g>
<!-- Node4 -->
<g id="node4" class="node"><title>Node4</title>
<g id="a_node4"><a xlink:href="classpdal_1_1DimBuilder.html#ad791e4b31e813727f0fcb15c645a28f1" target="_top" xlink:title="pdal::DimBuilder::validate\lDimension">
<polygon fill="white" stroke="black" points="367,-481 367,-511 495,-511 495,-481 367,-481"/>
<text text-anchor="start" x="375" y="-499" font-family="Helvetica,sans-Serif" font-size="10.00">pdal::DimBuilder::validate</text>
<text text-anchor="middle" x="431" y="-488" font-family="Helvetica,sans-Serif" font-size="10.00">Dimension</text>
</a>
</g>
</g>
<!-- Node2&#45;&gt;Node4 -->
<g id="edge3" class="edge"><title>Node2&#45;&gt;Node4</title>
<path fill="none" stroke="midnightblue" d="M254.052,-423.513C274.544,-435.75 311.981,-457.08 346,-471 351.822,-473.382 357.955,-475.647 364.145,-477.771"/>
<polygon fill="midnightblue" stroke="midnightblue" points="363.292,-481.175 373.885,-480.987 365.487,-474.528 363.292,-481.175"/>
</g>
<!-- Node7 -->
<g id="node7" class="node"><title>Node7</title>
<g id="a_node7"><a xlink:href="namespacepdal_1_1Dimension.html#a4041a0eeee0ca503caad91db24affa0e" target="_top" xlink:title="pdal::Dimension::description">
<polygon fill="white" stroke="black" points="361,-442.5 361,-461.5 501,-461.5 501,-442.5 361,-442.5"/>
<text text-anchor="middle" x="431" y="-449.5" font-family="Helvetica,sans-Serif" font-size="10.00">pdal::Dimension::description</text>
</a>
</g>
</g>
<!-- Node2&#45;&gt;Node7 -->
<g id="edge6" class="edge"><title>Node2&#45;&gt;Node7</title>
<path fill="none" stroke="midnightblue" d="M286.824,-423.589C312.663,-428.716 344.668,-435.067 371.861,-440.463"/>
<polygon fill="midnightblue" stroke="midnightblue" points="371.534,-443.967 382.024,-442.48 372.896,-437.1 371.534,-443.967"/>
</g>
<!-- Node8 -->
<g id="node8" class="node"><title>Node8</title>
<g id="a_node8"><a xlink:href="namespacepdal_1_1Dimension.html#a880d689fed54aa3ded6f88c9e058c5d2" target="_top" xlink:title="pdal::Dimension::type">
<polygon fill="white" stroke="black" points="886,-344.5 886,-363.5 998,-363.5 998,-344.5 886,-344.5"/>
<text text-anchor="middle" x="942" y="-351.5" font-family="Helvetica,sans-Serif" font-size="10.00">pdal::Dimension::type</text>
</a>
</g>
</g>
<!-- Node2&#45;&gt;Node8 -->
<g id="edge7" class="edge"><title>Node2&#45;&gt;Node8</title>
<path fill="none" stroke="midnightblue" d="M309.016,-414.129C401.391,-413.618 568.282,-410.361 710,-395 771.304,-388.355 840.887,-375.231 887.517,-365.615"/>
<polygon fill="midnightblue" stroke="midnightblue" points="888.322,-369.022 897.399,-363.558 886.896,-362.169 888.322,-369.022"/>
</g>
<!-- Node10 -->
<g id="node10" class="node"><title>Node10</title>
<g id="a_node10"><a xlink:href="namespacepdal_1_1Utils.html#a6ae33c6d7b4eb4bcae6ec17fb8cc04fc" target="_top" xlink:title="pdal::Utils::split2">
<polygon fill="white" stroke="black" points="386,-366.5 386,-385.5 476,-385.5 476,-366.5 386,-366.5"/>
<text text-anchor="middle" x="431" y="-373.5" font-family="Helvetica,sans-Serif" font-size="10.00">pdal::Utils::split2</text>
</a>
</g>
</g>
<!-- Node2&#45;&gt;Node10 -->
<g id="edge9" class="edge"><title>Node2&#45;&gt;Node10</title>
<path fill="none" stroke="midnightblue" d="M286.824,-404.411C313.961,-399.026 347.899,-392.292 375.921,-386.731"/>
<polygon fill="midnightblue" stroke="midnightblue" points="376.826,-390.12 385.953,-384.74 375.463,-383.254 376.826,-390.12"/>
</g>
<!-- Node11 -->
<g id="node11" class="node"><title>Node11</title>
<g id="a_node11"><a xlink:href="namespacepdal_1_1Utils.html#ac5d9d3dfd3f4611182c07aa85e27c1e4" target="_top" xlink:title="pdal::Utils::trim">
<polygon fill="white" stroke="black" points="389.5,-309.5 389.5,-328.5 472.5,-328.5 472.5,-309.5 389.5,-309.5"/>
<text text-anchor="middle" x="431" y="-316.5" font-family="Helvetica,sans-Serif" font-size="10.00">pdal::Utils::trim</text>
</a>
</g>
</g>
<!-- Node2&#45;&gt;Node11 -->
<g id="edge10" class="edge"><title>Node2&#45;&gt;Node11</title>
<path fill="none" stroke="midnightblue" d="M255.829,-404.38C276.934,-392.765 313.761,-372.82 346,-357 363.135,-348.592 382.534,-339.771 398.369,-332.747"/>
<polygon fill="midnightblue" stroke="midnightblue" points="399.978,-335.863 407.716,-328.626 397.154,-329.458 399.978,-335.863"/>
</g>
<!-- Node5 -->
<g id="node5" class="node"><title>Node5</title>
<g id="a_node5"><a xlink:href="namespacepdal_1_1Dimension.html#ad7dd00ca79ce099313f3fe405f40cd93" target="_top" xlink:title="pdal::Dimension::extractName">
<polygon fill="white" stroke="black" points="556.5,-486.5 556.5,-505.5 705.5,-505.5 705.5,-486.5 556.5,-486.5"/>
<text text-anchor="middle" x="631" y="-493.5" font-family="Helvetica,sans-Serif" font-size="10.00">pdal::Dimension::extractName</text>
</a>
</g>
</g>
<!-- Node4&#45;&gt;Node5 -->
<g id="edge4" class="edge"><title>Node4&#45;&gt;Node5</title>
<path fill="none" stroke="midnightblue" d="M495.193,-496C511.313,-496 528.898,-496 545.884,-496"/>
<polygon fill="midnightblue" stroke="midnightblue" points="546.364,-499.5 556.364,-496 546.364,-492.5 546.364,-499.5"/>
</g>
<!-- Node6 -->
<g id="node6" class="node"><title>Node6</title>
<g id="a_node6"><a xlink:href="namespacepdal_1_1Utils.html#acae5a19cd66121b77e2599daec48413d" target="_top" xlink:title="pdal::Utils::extract">
<polygon fill="white" stroke="black" points="749.5,-486.5 749.5,-505.5 846.5,-505.5 846.5,-486.5 749.5,-486.5"/>
<text text-anchor="middle" x="798" y="-493.5" font-family="Helvetica,sans-Serif" font-size="10.00">pdal::Utils::extract</text>
</a>
</g>
</g>
<!-- Node5&#45;&gt;Node6 -->
<g id="edge5" class="edge"><title>Node5&#45;&gt;Node6</title>
<path fill="none" stroke="midnightblue" d="M705.813,-496C716.997,-496 728.397,-496 739.177,-496"/>
<polygon fill="midnightblue" stroke="midnightblue" points="739.296,-499.5 749.296,-496 739.296,-492.5 739.296,-499.5"/>
</g>
<!-- Node9 -->
<g id="node9" class="node"><title>Node9</title>
<g id="a_node9"><a xlink:href="namespacepdal_1_1Utils.html#a5268937cf695835e55392f752dc02cb2" target="_top" xlink:title="pdal::Utils::tolower">
<polygon fill="white" stroke="black" points="1034,-344.5 1034,-363.5 1132,-363.5 1132,-344.5 1034,-344.5"/>
<text text-anchor="middle" x="1083" y="-351.5" font-family="Helvetica,sans-Serif" font-size="10.00">pdal::Utils::tolower</text>
</a>
</g>
</g>
<!-- Node8&#45;&gt;Node9 -->
<g id="edge8" class="edge"><title>Node8&#45;&gt;Node9</title>
<path fill="none" stroke="midnightblue" d="M998.336,-354C1006.62,-354 1015.19,-354 1023.55,-354"/>
<polygon fill="midnightblue" stroke="midnightblue" points="1023.59,-357.5 1033.59,-354 1023.59,-350.5 1023.59,-357.5"/>
</g>
<!-- Node12 -->
<g id="node12" class="node"><title>Node12</title>
<g id="a_node12"><a xlink:href="namespacepdal_1_1Utils.html#a10ae3cc2d10407cff89ba1ab00bc036b" target="_top" xlink:title="pdal::Utils::trimLeading">
<polygon fill="white" stroke="black" points="572.5,-366.5 572.5,-385.5 689.5,-385.5 689.5,-366.5 572.5,-366.5"/>
<text text-anchor="middle" x="631" y="-373.5" font-family="Helvetica,sans-Serif" font-size="10.00">pdal::Utils::trimLeading</text>
</a>
</g>
</g>
<!-- Node11&#45;&gt;Node12 -->
<g id="edge11" class="edge"><title>Node11&#45;&gt;Node12</title>
<path fill="none" stroke="midnightblue" d="M460.447,-328.607C484.66,-336.64 520.433,-348.168 552,-357 560.582,-359.401 569.742,-361.788 578.657,-364.018"/>
<polygon fill="midnightblue" stroke="midnightblue" points="578.027,-367.467 588.574,-366.461 579.702,-360.671 578.027,-367.467"/>
</g>
<!-- Node13 -->
<g id="node13" class="node"><title>Node13</title>
<g id="a_node13"><a xlink:href="namespacepdal_1_1Utils.html#afed0ad4146baafd1973c85e1508ade73" target="_top" xlink:title="pdal::Utils::trimTrailing">
<polygon fill="white" stroke="black" points="573.5,-328.5 573.5,-347.5 688.5,-347.5 688.5,-328.5 573.5,-328.5"/>
<text text-anchor="middle" x="631" y="-335.5" font-family="Helvetica,sans-Serif" font-size="10.00">pdal::Utils::trimTrailing</text>
</a>
</g>
</g>
<!-- Node11&#45;&gt;Node13 -->
<g id="edge12" class="edge"><title>Node11&#45;&gt;Node13</title>
<path fill="none" stroke="midnightblue" d="M472.546,-322.891C498.67,-325.398 533.254,-328.716 563.354,-331.605"/>
<polygon fill="midnightblue" stroke="midnightblue" points="563.083,-335.095 573.372,-332.566 563.752,-328.127 563.083,-335.095"/>
</g>
<!-- Node14 -->
<g id="node14" class="node"><title>Node14</title>
<g id="a_node14"><a xlink:href="namespacepdal_1_1Utils.html#abdd3e6ebf8047dbc72337bac885f1169" target="_top" xlink:title="pdal::Utils::eatcharacter">
<polygon fill="white" stroke="black" points="570.5,-290.5 570.5,-309.5 691.5,-309.5 691.5,-290.5 570.5,-290.5"/>
<text text-anchor="middle" x="631" y="-297.5" font-family="Helvetica,sans-Serif" font-size="10.00">pdal::Utils::eatcharacter</text>
</a>
</g>
</g>
<!-- Node11&#45;&gt;Node14 -->
<g id="edge13" class="edge"><title>Node11&#45;&gt;Node14</title>
<path fill="none" stroke="midnightblue" d="M472.546,-315.109C497.747,-312.691 530.82,-309.517 560.147,-306.703"/>
<polygon fill="midnightblue" stroke="midnightblue" points="560.725,-310.164 570.345,-305.724 560.056,-303.196 560.725,-310.164"/>
</g>
<!-- Node15 -->
<g id="node15" class="node"><title>Node15</title>
<g id="a_node15"><a xlink:href="namespacepdal_1_1Utils.html#ab908ea72a2a7d385cbbab68939d1c1a2" target="_top" xlink:title="pdal::Utils::base64\l_encode">
<polygon fill="white" stroke="black" points="582,-241 582,-271 680,-271 680,-241 582,-241"/>
<text text-anchor="start" x="590" y="-259" font-family="Helvetica,sans-Serif" font-size="10.00">pdal::Utils::base64</text>
<text text-anchor="middle" x="631" y="-248" font-family="Helvetica,sans-Serif" font-size="10.00">_encode</text>
</a>
</g>
</g>
<!-- Node11&#45;&gt;Node15 -->
<g id="edge14" class="edge"><title>Node11&#45;&gt;Node15</title>
<path fill="none" stroke="midnightblue" d="M462.072,-309.432C491.342,-300.118 536.571,-285.727 572.719,-274.226"/>
<polygon fill="midnightblue" stroke="midnightblue" points="574.185,-277.432 582.653,-271.065 572.062,-270.762 574.185,-277.432"/>
</g>
<!-- Node16 -->
<g id="node16" class="node"><title>Node16</title>
<g id="a_node16"><a xlink:href="namespacepdal_1_1Dimension.html#acf81dae9d5946f3a941f9df154b2329b" target="_top" xlink:title="pdal::Dimension::size">
<polygon fill="white" stroke="black" points="575.5,-202.5 575.5,-221.5 686.5,-221.5 686.5,-202.5 575.5,-202.5"/>
<text text-anchor="middle" x="631" y="-209.5" font-family="Helvetica,sans-Serif" font-size="10.00">pdal::Dimension::size</text>
</a>
</g>
</g>
<!-- Node11&#45;&gt;Node16 -->
<g id="edge15" class="edge"><title>Node11&#45;&gt;Node16</title>
<path fill="none" stroke="midnightblue" d="M451.315,-309.466C468.997,-300.295 495.458,-285.431 516,-269 534.168,-254.468 531.877,-242.674 552,-231 556.223,-228.55 560.751,-226.415 565.422,-224.554"/>
<polygon fill="midnightblue" stroke="midnightblue" points="566.898,-227.744 575.156,-221.107 564.561,-221.146 566.898,-227.744"/>
</g>
<!-- Node17 -->
<g id="node17" class="node"><title>Node17</title>
<g id="a_node17"><a xlink:href="namespacepdal_1_1Utils.html#a59253304d0f929e3a3ea00f09636002f" target="_top" xlink:title="pdal::Utils::toNative">
<polygon fill="white" stroke="black" points="746,-284.5 746,-303.5 850,-303.5 850,-284.5 746,-284.5"/>
<text text-anchor="middle" x="798" y="-291.5" font-family="Helvetica,sans-Serif" font-size="10.00">pdal::Utils::toNative</text>
</a>
</g>
</g>
<!-- Node16&#45;&gt;Node17 -->
<g id="edge16" class="edge"><title>Node16&#45;&gt;Node17</title>
<path fill="none" stroke="midnightblue" d="M683.734,-221.601C692.7,-224.105 701.776,-227.2 710,-231 735.948,-242.99 762.014,-263.208 778.753,-277.502"/>
<polygon fill="midnightblue" stroke="midnightblue" points="776.772,-280.419 786.606,-284.362 781.378,-275.147 776.772,-280.419"/>
</g>
<!-- Node17&#45;&gt;Node8 -->
<g id="edge17" class="edge"><title>Node17&#45;&gt;Node8</title>
<path fill="none" stroke="midnightblue" d="M821.5,-303.507C845.042,-313.454 882.21,-329.159 908.844,-340.413"/>
<polygon fill="midnightblue" stroke="midnightblue" points="907.561,-343.67 918.135,-344.339 910.286,-337.222 907.561,-343.67"/>
</g>
<!-- Node19 -->
<g id="node19" class="node"><title>Node19</title>
<g id="a_node19"><a xlink:href="classpdal_1_1DimBuilder.html#aabf17cbb51b7f539e51fa2690b381f4c" target="_top" xlink:title="pdal::DimBuilder::writeHeader">
<polygon fill="white" stroke="black" points="357.5,-240.5 357.5,-259.5 504.5,-259.5 504.5,-240.5 357.5,-240.5"/>
<text text-anchor="middle" x="431" y="-247.5" font-family="Helvetica,sans-Serif" font-size="10.00">pdal::DimBuilder::writeHeader</text>
</a>
</g>
</g>
<!-- Node18&#45;&gt;Node19 -->
<g id="edge19" class="edge"><title>Node18&#45;&gt;Node19</title>
<path fill="none" stroke="midnightblue" d="M248.916,-164.538C267.171,-180.727 306.746,-213.521 346,-231 351.647,-233.515 357.661,-235.712 363.776,-237.63"/>
<polygon fill="midnightblue" stroke="midnightblue" points="362.852,-241.006 373.431,-240.419 364.795,-234.281 362.852,-241.006"/>
</g>
<!-- Node20 -->
<g id="node20" class="node"><title>Node20</title>
<g id="a_node20"><a xlink:href="classpdal_1_1DimBuilder.html#a63af00f4925dc2f90a21256073efa78f" target="_top" xlink:title="pdal::DimBuilder::writeIds">
<polygon fill="white" stroke="black" points="366.5,-202.5 366.5,-221.5 495.5,-221.5 495.5,-202.5 366.5,-202.5"/>
<text text-anchor="middle" x="431" y="-209.5" font-family="Helvetica,sans-Serif" font-size="10.00">pdal::DimBuilder::writeIds</text>
</a>
</g>
</g>
<!-- Node18&#45;&gt;Node20 -->
<g id="edge20" class="edge"><title>Node18&#45;&gt;Node20</title>
<path fill="none" stroke="midnightblue" d="M262.998,-164.586C284.615,-172.821 317.093,-184.653 346,-193 354.756,-195.528 364.104,-197.93 373.267,-200.121"/>
<polygon fill="midnightblue" stroke="midnightblue" points="372.565,-203.552 383.099,-202.413 374.154,-196.735 372.565,-203.552"/>
</g>
<!-- Node21 -->
<g id="node21" class="node"><title>Node21</title>
<g id="a_node21"><a xlink:href="classpdal_1_1DimBuilder.html#aa465ecf10aca86dbbb88442abc18b6f7" target="_top" xlink:title="pdal::DimBuilder::writeDescriptions">
<polygon fill="white" stroke="black" points="346,-164.5 346,-183.5 516,-183.5 516,-164.5 346,-164.5"/>
<text text-anchor="middle" x="431" y="-171.5" font-family="Helvetica,sans-Serif" font-size="10.00">pdal::DimBuilder::writeDescriptions</text>
</a>
</g>
</g>
<!-- Node18&#45;&gt;Node21 -->
<g id="edge21" class="edge"><title>Node18&#45;&gt;Node21</title>
<path fill="none" stroke="midnightblue" d="M310.08,-162.102C318.479,-162.935 327.144,-163.795 335.792,-164.653"/>
<polygon fill="midnightblue" stroke="midnightblue" points="335.623,-168.153 345.919,-165.658 336.314,-161.187 335.623,-168.153"/>
</g>
<!-- Node23 -->
<g id="node23" class="node"><title>Node23</title>
<g id="a_node23"><a xlink:href="classpdal_1_1DimBuilder.html#a6595bd77e7f44080ac436c3be33041fb" target="_top" xlink:title="pdal::DimBuilder::writeNameToId">
<polygon fill="white" stroke="black" points="350.5,-126.5 350.5,-145.5 511.5,-145.5 511.5,-126.5 350.5,-126.5"/>
<text text-anchor="middle" x="431" y="-133.5" font-family="Helvetica,sans-Serif" font-size="10.00">pdal::DimBuilder::writeNameToId</text>
</a>
</g>
</g>
<!-- Node18&#45;&gt;Node23 -->
<g id="edge23" class="edge"><title>Node18&#45;&gt;Node23</title>
<path fill="none" stroke="midnightblue" d="M310.08,-147.898C319.96,-146.918 330.207,-145.901 340.362,-144.894"/>
<polygon fill="midnightblue" stroke="midnightblue" points="340.864,-148.361 350.47,-143.891 340.173,-141.395 340.864,-148.361"/>
</g>
<!-- Node25 -->
<g id="node25" class="node"><title>Node25</title>
<g id="a_node25"><a xlink:href="classpdal_1_1DimBuilder.html#a2cfa57a262035d6eec9c33ec72343232" target="_top" xlink:title="pdal::DimBuilder::writeId\lToName">
<polygon fill="white" stroke="black" points="369,-77 369,-107 493,-107 493,-77 369,-77"/>
<text text-anchor="start" x="377" y="-95" font-family="Helvetica,sans-Serif" font-size="10.00">pdal::DimBuilder::writeId</text>
<text text-anchor="middle" x="431" y="-84" font-family="Helvetica,sans-Serif" font-size="10.00">ToName</text>
</a>
</g>
</g>
<!-- Node18&#45;&gt;Node25 -->
<g id="edge25" class="edge"><title>Node18&#45;&gt;Node25</title>
<path fill="none" stroke="midnightblue" d="M264.442,-145.416C286.137,-137.5 317.952,-126.125 346,-117 353.143,-114.676 360.655,-112.319 368.128,-110.028"/>
<polygon fill="midnightblue" stroke="midnightblue" points="369.343,-113.316 377.895,-107.062 367.309,-106.618 369.343,-113.316"/>
</g>
<!-- Node26 -->
<g id="node26" class="node"><title>Node26</title>
<g id="a_node26"><a xlink:href="classpdal_1_1DimBuilder.html#a4edb34d9cfecc820ed55ace4c19cd511" target="_top" xlink:title="pdal::DimBuilder::writeTypes">
<polygon fill="white" stroke="black" points="359.5,-38.5 359.5,-57.5 502.5,-57.5 502.5,-38.5 359.5,-38.5"/>
<text text-anchor="middle" x="431" y="-45.5" font-family="Helvetica,sans-Serif" font-size="10.00">pdal::DimBuilder::writeTypes</text>
</a>
</g>
</g>
<!-- Node18&#45;&gt;Node26 -->
<g id="edge26" class="edge"><title>Node18&#45;&gt;Node26</title>
<path fill="none" stroke="midnightblue" d="M247.227,-145.345C264.312,-127.069 304.17,-87.424 346,-67 350.954,-64.5809 356.224,-62.4645 361.616,-60.6138"/>
<polygon fill="midnightblue" stroke="midnightblue" points="362.905,-63.8782 371.411,-57.5615 360.823,-57.1951 362.905,-63.8782"/>
</g>
<!-- Node28 -->
<g id="node28" class="node"><title>Node28</title>
<g id="a_node28"><a xlink:href="classpdal_1_1DimBuilder.html#aa5e7836a1d8a39b25409f0286e493b1c" target="_top" xlink:title="pdal::DimBuilder::writeFooter">
<polygon fill="white" stroke="black" points="359.5,-0.5 359.5,-19.5 502.5,-19.5 502.5,-0.5 359.5,-0.5"/>
<text text-anchor="middle" x="431" y="-7.5" font-family="Helvetica,sans-Serif" font-size="10.00">pdal::DimBuilder::writeFooter</text>
</a>
</g>
</g>
<!-- Node18&#45;&gt;Node28 -->
<g id="edge28" class="edge"><title>Node18&#45;&gt;Node28</title>
<path fill="none" stroke="midnightblue" d="M243.79,-145.27C257.339,-121.334 295.792,-59.3326 346,-29 349.599,-26.8255 353.422,-24.8995 357.375,-23.1936"/>
<polygon fill="midnightblue" stroke="midnightblue" points="358.697,-26.4352 366.791,-19.5993 356.201,-19.8954 358.697,-26.4352"/>
</g>
<!-- Node22 -->
<g id="node22" class="node"><title>Node22</title>
<g id="a_node22"><a xlink:href="namespacepdal_1_1Utils.html#a93c849f4f0e3842f731be8c699ab57b9" target="_top" xlink:title="pdal::Utils::wordWrap2">
<polygon fill="white" stroke="black" points="573,-164.5 573,-183.5 689,-183.5 689,-164.5 573,-164.5"/>
<text text-anchor="middle" x="631" y="-171.5" font-family="Helvetica,sans-Serif" font-size="10.00">pdal::Utils::wordWrap2</text>
</a>
</g>
</g>
<!-- Node21&#45;&gt;Node22 -->
<g id="edge22" class="edge"><title>Node21&#45;&gt;Node22</title>
<path fill="none" stroke="midnightblue" d="M516.257,-174C531.736,-174 547.707,-174 562.61,-174"/>
<polygon fill="midnightblue" stroke="midnightblue" points="562.738,-177.5 572.738,-174 562.738,-170.5 562.738,-177.5"/>
</g>
<!-- Node24 -->
<g id="node24" class="node"><title>Node24</title>
<g id="a_node24"><a xlink:href="namespacepdal_1_1Utils.html#a28e3e2faff94b20f9908e77bc54ed983" target="_top" xlink:title="pdal::Utils::toupper">
<polygon fill="white" stroke="black" points="581.5,-126.5 581.5,-145.5 680.5,-145.5 680.5,-126.5 581.5,-126.5"/>
<text text-anchor="middle" x="631" y="-133.5" font-family="Helvetica,sans-Serif" font-size="10.00">pdal::Utils::toupper</text>
</a>
</g>
</g>
<!-- Node23&#45;&gt;Node24 -->
<g id="edge24" class="edge"><title>Node23&#45;&gt;Node24</title>
<path fill="none" stroke="midnightblue" d="M511.678,-136C531.535,-136 552.47,-136 571.119,-136"/>
<polygon fill="midnightblue" stroke="midnightblue" points="571.223,-139.5 581.223,-136 571.223,-132.5 571.223,-139.5"/>
</g>
<!-- Node27 -->
<g id="node27" class="node"><title>Node27</title>
<g id="a_node27"><a xlink:href="namespacepdal_1_1anonymous__namespace_02DimBuilder_8cpp_03.html#a72b35da8e486b073e2fd2bcbc1d80ecf" target="_top" xlink:title="pdal::anonymous_namespace\l\{DimBuilder::cpp\}::getTypename">
<polygon fill="white" stroke="black" points="552,-33 552,-63 710,-63 710,-33 552,-33"/>
<text text-anchor="start" x="560" y="-51" font-family="Helvetica,sans-Serif" font-size="10.00">pdal::anonymous_namespace</text>
<text text-anchor="middle" x="631" y="-40" font-family="Helvetica,sans-Serif" font-size="10.00">{DimBuilder::cpp}::getTypename</text>
</a>
</g>
</g>
<!-- Node26&#45;&gt;Node27 -->
<g id="edge27" class="edge"><title>Node26&#45;&gt;Node27</title>
<path fill="none" stroke="midnightblue" d="M502.644,-48C515.388,-48 528.817,-48 541.983,-48"/>
<polygon fill="midnightblue" stroke="midnightblue" points="541.985,-51.5001 551.985,-48 541.985,-44.5001 541.985,-51.5001"/>
</g>
</g>
</svg>
