<?xml version="1.0" encoding="UTF-8" standalone="no"?>
<!DOCTYPE svg PUBLIC "-//W3C//DTD SVG 1.1//EN"
 "http://www.w3.org/Graphics/SVG/1.1/DTD/svg11.dtd">
<!-- Generated by graphviz version 2.38.0 (20140413.2041)
 -->
<!-- Title: pdal::LasReader::addDimensions Pages: 1 -->
<svg width="1366pt" height="345pt"
 viewBox="0.00 0.00 1366.00 345.00" xmlns="http://www.w3.org/2000/svg" xmlns:xlink="http://www.w3.org/1999/xlink">
<g id="graph0" class="graph" transform="scale(1 1) rotate(0) translate(4 341)">
<title>pdal::LasReader::addDimensions</title>
<polygon fill="white" stroke="none" points="-4,4 -4,-341 1362,-341 1362,4 -4,4"/>
<!-- Node1 -->
<g id="node1" class="node"><title>Node1</title>
<polygon fill="#bfbfbf" stroke="black" points="0,-261.5 0,-280.5 161,-280.5 161,-261.5 0,-261.5"/>
<text text-anchor="middle" x="80.5" y="-268.5" font-family="Helvetica,sans-Serif" font-size="10.00">pdal::LasReader::addDimensions</text>
</g>
<!-- Node2 -->
<g id="node2" class="node"><title>Node2</title>
<g id="a_node2"><a xlink:href="classpdal_1_1PointLayout.html#ac18a9b8b3dd23c601df823e84d90f61e" target="_top" xlink:title="pdal::PointLayout::\lregisterDim">
<polygon fill="white" stroke="black" points="340,-300 340,-330 438,-330 438,-300 340,-300"/>
<text text-anchor="start" x="348" y="-318" font-family="Helvetica,sans-Serif" font-size="10.00">pdal::PointLayout::</text>
<text text-anchor="middle" x="389" y="-307" font-family="Helvetica,sans-Serif" font-size="10.00">registerDim</text>
</a>
</g>
</g>
<!-- Node1&#45;&gt;Node2 -->
<g id="edge1" class="edge"><title>Node1&#45;&gt;Node2</title>
<path fill="none" stroke="midnightblue" d="M120.32,-280.56C142.634,-285.763 171.261,-291.948 197,-296 241.231,-302.964 291.649,-307.852 329.575,-310.924"/>
<polygon fill="midnightblue" stroke="midnightblue" points="329.68,-314.443 339.925,-311.743 330.232,-307.465 329.68,-314.443"/>
</g>
<!-- Node4 -->
<g id="node4" class="node"><title>Node4</title>
<g id="a_node4"><a xlink:href="classpdal_1_1PointLayout.html#a5eb18bf1cedb4bd97f5db6a094b10360" target="_top" xlink:title="pdal::PointLayout::\lregisterOrAssignDim">
<polygon fill="white" stroke="black" points="197,-256 197,-286 304,-286 304,-256 197,-256"/>
<text text-anchor="start" x="205" y="-274" font-family="Helvetica,sans-Serif" font-size="10.00">pdal::PointLayout::</text>
<text text-anchor="middle" x="250.5" y="-263" font-family="Helvetica,sans-Serif" font-size="10.00">registerOrAssignDim</text>
</a>
</g>
</g>
<!-- Node1&#45;&gt;Node4 -->
<g id="edge3" class="edge"><title>Node1&#45;&gt;Node4</title>
<path fill="none" stroke="midnightblue" d="M161.072,-271C169.54,-271 178.068,-271 186.31,-271"/>
<polygon fill="midnightblue" stroke="midnightblue" points="186.573,-274.5 196.573,-271 186.573,-267.5 186.573,-274.5"/>
</g>
<!-- Node9 -->
<g id="node9" class="node"><title>Node9</title>
<g id="a_node9"><a xlink:href="namespacepdal_1_1Dimension.html#a880d689fed54aa3ded6f88c9e058c5d2" target="_top" xlink:title="pdal::Dimension::type">
<polygon fill="white" stroke="black" points="1112,-33.5 1112,-52.5 1224,-52.5 1224,-33.5 1112,-33.5"/>
<text text-anchor="middle" x="1168" y="-40.5" font-family="Helvetica,sans-Serif" font-size="10.00">pdal::Dimension::type</text>
</a>
</g>
</g>
<!-- Node1&#45;&gt;Node9 -->
<g id="edge24" class="edge"><title>Node1&#45;&gt;Node9</title>
<path fill="none" stroke="midnightblue" d="M86.2013,-261.355C110.478,-213.079 226.765,-0 388,-0 388,-0 388,-0 880,-0 964.601,-0 1061.7,-18.5005 1118.5,-31.2314"/>
<polygon fill="midnightblue" stroke="midnightblue" points="1117.75,-34.6517 1128.28,-33.4569 1119.31,-27.826 1117.75,-34.6517"/>
</g>
<!-- Node3 -->
<g id="node3" class="node"><title>Node3</title>
<g id="a_node3"><a xlink:href="namespacepdal_1_1Dimension.html#a9562a0d1c8e24bf903f1ccdd37b62d2f" target="_top" xlink:title="pdal::Dimension::defaultType">
<polygon fill="white" stroke="black" points="474,-317.5 474,-336.5 618,-336.5 618,-317.5 474,-317.5"/>
<text text-anchor="middle" x="546" y="-324.5" font-family="Helvetica,sans-Serif" font-size="10.00">pdal::Dimension::defaultType</text>
</a>
</g>
</g>
<!-- Node2&#45;&gt;Node3 -->
<g id="edge2" class="edge"><title>Node2&#45;&gt;Node3</title>
<path fill="none" stroke="midnightblue" d="M438.193,-318.731C446.305,-319.359 454.92,-320.026 463.6,-320.698"/>
<polygon fill="midnightblue" stroke="midnightblue" points="463.552,-324.205 473.793,-321.487 464.093,-317.226 463.552,-324.205"/>
</g>
<!-- Node4&#45;&gt;Node2 -->
<g id="edge6" class="edge"><title>Node4&#45;&gt;Node2</title>
<path fill="none" stroke="midnightblue" d="M298.094,-286.019C308.846,-289.485 320.398,-293.209 331.52,-296.794"/>
<polygon fill="midnightblue" stroke="midnightblue" points="330.561,-300.162 341.153,-299.899 332.709,-293.5 330.561,-300.162"/>
</g>
<!-- Node5 -->
<g id="node5" class="node"><title>Node5</title>
<g id="a_node5"><a xlink:href="namespacepdal_1_1Dimension.html#a10b4c693e3bdbdf1a0eec8f4b008a291" target="_top" xlink:title="pdal::Dimension::id">
<polygon fill="white" stroke="black" points="495.5,-279.5 495.5,-298.5 596.5,-298.5 596.5,-279.5 495.5,-279.5"/>
<text text-anchor="middle" x="546" y="-286.5" font-family="Helvetica,sans-Serif" font-size="10.00">pdal::Dimension::id</text>
</a>
</g>
</g>
<!-- Node4&#45;&gt;Node5 -->
<g id="edge4" class="edge"><title>Node4&#45;&gt;Node5</title>
<path fill="none" stroke="midnightblue" d="M304.311,-274.239C355.061,-277.351 431.669,-282.05 484.769,-285.306"/>
<polygon fill="midnightblue" stroke="midnightblue" points="484.866,-288.819 495.061,-285.937 485.294,-281.832 484.866,-288.819"/>
</g>
<!-- Node7 -->
<g id="node7" class="node"><title>Node7</title>
<g id="a_node7"><a xlink:href="classpdal_1_1PointLayout.html#a62c64539215e8136b502e025627657ca" target="_top" xlink:title="pdal::PointLayout::\lassignDim">
<polygon fill="white" stroke="black" points="340,-188 340,-218 438,-218 438,-188 340,-188"/>
<text text-anchor="start" x="348" y="-206" font-family="Helvetica,sans-Serif" font-size="10.00">pdal::PointLayout::</text>
<text text-anchor="middle" x="389" y="-195" font-family="Helvetica,sans-Serif" font-size="10.00">assignDim</text>
</a>
</g>
</g>
<!-- Node4&#45;&gt;Node7 -->
<g id="edge7" class="edge"><title>Node4&#45;&gt;Node7</title>
<path fill="none" stroke="midnightblue" d="M281.794,-255.909C301.498,-246.092 327.392,-233.193 348.678,-222.589"/>
<polygon fill="midnightblue" stroke="midnightblue" points="350.401,-225.641 357.791,-218.049 347.279,-219.375 350.401,-225.641"/>
</g>
<!-- Node6 -->
<g id="node6" class="node"><title>Node6</title>
<g id="a_node6"><a xlink:href="namespacepdal_1_1Utils.html#a28e3e2faff94b20f9908e77bc54ed983" target="_top" xlink:title="pdal::Utils::toupper">
<polygon fill="white" stroke="black" points="670.5,-279.5 670.5,-298.5 769.5,-298.5 769.5,-279.5 670.5,-279.5"/>
<text text-anchor="middle" x="720" y="-286.5" font-family="Helvetica,sans-Serif" font-size="10.00">pdal::Utils::toupper</text>
</a>
</g>
</g>
<!-- Node5&#45;&gt;Node6 -->
<g id="edge5" class="edge"><title>Node5&#45;&gt;Node6</title>
<path fill="none" stroke="midnightblue" d="M596.75,-289C616.526,-289 639.432,-289 660.034,-289"/>
<polygon fill="midnightblue" stroke="midnightblue" points="660.253,-292.5 670.253,-289 660.252,-285.5 660.253,-292.5"/>
</g>
<!-- Node7&#45;&gt;Node5 -->
<g id="edge23" class="edge"><title>Node7&#45;&gt;Node5</title>
<path fill="none" stroke="midnightblue" d="M406.963,-218.003C423.223,-231.758 448.931,-251.92 474,-265 482.217,-269.288 491.359,-273.047 500.274,-276.241"/>
<polygon fill="midnightblue" stroke="midnightblue" points="499.211,-279.576 509.805,-279.482 501.465,-272.949 499.211,-279.576"/>
</g>
<!-- Node8 -->
<g id="node8" class="node"><title>Node8</title>
<g id="a_node8"><a xlink:href="namespacepdal_1_1Utils.html#a59253304d0f929e3a3ea00f09636002f" target="_top" xlink:title="pdal::Utils::toNative">
<polygon fill="white" stroke="black" points="972,-80.5 972,-99.5 1076,-99.5 1076,-80.5 972,-80.5"/>
<text text-anchor="middle" x="1024" y="-87.5" font-family="Helvetica,sans-Serif" font-size="10.00">pdal::Utils::toNative</text>
</a>
</g>
</g>
<!-- Node7&#45;&gt;Node8 -->
<g id="edge8" class="edge"><title>Node7&#45;&gt;Node8</title>
<path fill="none" stroke="midnightblue" d="M438.026,-213.999C538.085,-234.199 773.098,-267.276 936,-176 966.849,-158.715 994.372,-127.535 1009.85,-107.847"/>
<polygon fill="midnightblue" stroke="midnightblue" points="1012.78,-109.77 1016.08,-99.7002 1007.22,-105.517 1012.78,-109.77"/>
</g>
<!-- Node11 -->
<g id="node11" class="node"><title>Node11</title>
<g id="a_node11"><a xlink:href="classpdal_1_1PointLayout.html#aa1b5a748ef7b9467b4977606a7f61aa5" target="_top" xlink:title="pdal::PointLayout::\lresolveType">
<polygon fill="white" stroke="black" points="671,-29 671,-59 769,-59 769,-29 671,-29"/>
<text text-anchor="start" x="679" y="-47" font-family="Helvetica,sans-Serif" font-size="10.00">pdal::PointLayout::</text>
<text text-anchor="middle" x="720" y="-36" font-family="Helvetica,sans-Serif" font-size="10.00">resolveType</text>
</a>
</g>
</g>
<!-- Node7&#45;&gt;Node11 -->
<g id="edge11" class="edge"><title>Node7&#45;&gt;Node11</title>
<path fill="none" stroke="midnightblue" d="M403.461,-187.788C418.987,-171.063 445.992,-144.394 474,-128 533.3,-93.2886 609.103,-70.0866 660.577,-57.0219"/>
<polygon fill="midnightblue" stroke="midnightblue" points="661.677,-60.3551 670.535,-54.5437 659.986,-53.5622 661.677,-60.3551"/>
</g>
<!-- Node14 -->
<g id="node14" class="node"><title>Node14</title>
<g id="a_node14"><a xlink:href="classpdal_1_1PointLayout.html#a63db6cc5de2aea2b949ee0c34e1d5501" target="_top" xlink:title="pdal::PointLayout::\lupdate">
<polygon fill="white" stroke="black" points="497,-176 497,-206 595,-206 595,-176 497,-176"/>
<text text-anchor="start" x="505" y="-194" font-family="Helvetica,sans-Serif" font-size="10.00">pdal::PointLayout::</text>
<text text-anchor="middle" x="546" y="-183" font-family="Helvetica,sans-Serif" font-size="10.00">update</text>
</a>
</g>
</g>
<!-- Node7&#45;&gt;Node14 -->
<g id="edge16" class="edge"><title>Node7&#45;&gt;Node14</title>
<path fill="none" stroke="midnightblue" d="M438.193,-199.269C453.502,-198.084 470.6,-196.76 486.551,-195.525"/>
<polygon fill="midnightblue" stroke="midnightblue" points="487.137,-198.99 496.836,-194.729 486.596,-192.011 487.137,-198.99"/>
</g>
<!-- Node18 -->
<g id="node18" class="node"><title>Node18</title>
<g id="a_node18"><a xlink:href="namespacepdal_1_1Dimension.html#af3176b0b7e6b4be000317846cf7c2718" target="_top" xlink:title="pdal::Dimension::name">
<polygon fill="white" stroke="black" points="487.5,-137.5 487.5,-156.5 604.5,-156.5 604.5,-137.5 487.5,-137.5"/>
<text text-anchor="middle" x="546" y="-144.5" font-family="Helvetica,sans-Serif" font-size="10.00">pdal::Dimension::name</text>
</a>
</g>
</g>
<!-- Node7&#45;&gt;Node18 -->
<g id="edge22" class="edge"><title>Node7&#45;&gt;Node18</title>
<path fill="none" stroke="midnightblue" d="M421.053,-187.958C436.703,-180.729 456.111,-172.292 474,-166 480.786,-163.613 488.026,-161.356 495.192,-159.288"/>
<polygon fill="midnightblue" stroke="midnightblue" points="496.175,-162.647 504.867,-156.589 494.294,-155.905 496.175,-162.647"/>
</g>
<!-- Node8&#45;&gt;Node9 -->
<g id="edge9" class="edge"><title>Node8&#45;&gt;Node9</title>
<path fill="none" stroke="midnightblue" d="M1053.74,-80.4888C1075.15,-73.4008 1104.63,-63.6432 1128.15,-55.8597"/>
<polygon fill="midnightblue" stroke="midnightblue" points="1129.43,-59.1233 1137.82,-52.6583 1127.23,-52.4779 1129.43,-59.1233"/>
</g>
<!-- Node10 -->
<g id="node10" class="node"><title>Node10</title>
<g id="a_node10"><a xlink:href="namespacepdal_1_1Utils.html#a5268937cf695835e55392f752dc02cb2" target="_top" xlink:title="pdal::Utils::tolower">
<polygon fill="white" stroke="black" points="1260,-33.5 1260,-52.5 1358,-52.5 1358,-33.5 1260,-33.5"/>
<text text-anchor="middle" x="1309" y="-40.5" font-family="Helvetica,sans-Serif" font-size="10.00">pdal::Utils::tolower</text>
</a>
</g>
</g>
<!-- Node9&#45;&gt;Node10 -->
<g id="edge10" class="edge"><title>Node9&#45;&gt;Node10</title>
<path fill="none" stroke="midnightblue" d="M1224.34,-43C1232.62,-43 1241.19,-43 1249.55,-43"/>
<polygon fill="midnightblue" stroke="midnightblue" points="1249.59,-46.5001 1259.59,-43 1249.59,-39.5001 1249.59,-46.5001"/>
</g>
<!-- Node12 -->
<g id="node12" class="node"><title>Node12</title>
<g id="a_node12"><a xlink:href="namespacepdal_1_1Dimension.html#ab9491687b8700d1db27e0aba1fcd7143" target="_top" xlink:title="pdal::Dimension::base">
<polygon fill="white" stroke="black" points="822,-37.5 822,-56.5 936,-56.5 936,-37.5 822,-37.5"/>
<text text-anchor="middle" x="879" y="-44.5" font-family="Helvetica,sans-Serif" font-size="10.00">pdal::Dimension::base</text>
</a>
</g>
</g>
<!-- Node11&#45;&gt;Node12 -->
<g id="edge12" class="edge"><title>Node11&#45;&gt;Node12</title>
<path fill="none" stroke="midnightblue" d="M769.386,-44.9246C782.726,-45.1795 797.434,-45.4605 811.603,-45.7313"/>
<polygon fill="midnightblue" stroke="midnightblue" points="811.732,-49.2343 821.797,-45.9261 811.866,-42.2356 811.732,-49.2343"/>
</g>
<!-- Node13 -->
<g id="node13" class="node"><title>Node13</title>
<g id="a_node13"><a xlink:href="namespacepdal_1_1Dimension.html#acf81dae9d5946f3a941f9df154b2329b" target="_top" xlink:title="pdal::Dimension::size">
<polygon fill="white" stroke="black" points="823.5,-80.5 823.5,-99.5 934.5,-99.5 934.5,-80.5 823.5,-80.5"/>
<text text-anchor="middle" x="879" y="-87.5" font-family="Helvetica,sans-Serif" font-size="10.00">pdal::Dimension::size</text>
</a>
</g>
</g>
<!-- Node11&#45;&gt;Node13 -->
<g id="edge14" class="edge"><title>Node11&#45;&gt;Node13</title>
<path fill="none" stroke="midnightblue" d="M769.386,-58.1769C790.602,-64.3928 815.276,-71.6222 835.74,-77.6181"/>
<polygon fill="midnightblue" stroke="midnightblue" points="834.834,-80.9996 845.414,-80.4526 836.802,-74.282 834.834,-80.9996"/>
</g>
<!-- Node12&#45;&gt;Node8 -->
<g id="edge13" class="edge"><title>Node12&#45;&gt;Node8</title>
<path fill="none" stroke="midnightblue" d="M911.736,-56.5431C932.287,-62.7225 959.263,-70.8342 981.506,-77.5227"/>
<polygon fill="midnightblue" stroke="midnightblue" points="980.768,-80.9556 991.352,-80.4836 982.784,-74.2521 980.768,-80.9556"/>
</g>
<!-- Node13&#45;&gt;Node8 -->
<g id="edge15" class="edge"><title>Node13&#45;&gt;Node8</title>
<path fill="none" stroke="midnightblue" d="M934.879,-90C943.597,-90 952.664,-90 961.522,-90"/>
<polygon fill="midnightblue" stroke="midnightblue" points="961.79,-93.5001 971.79,-90 961.79,-86.5001 961.79,-93.5001"/>
</g>
<!-- Node14&#45;&gt;Node8 -->
<g id="edge19" class="edge"><title>Node14&#45;&gt;Node8</title>
<path fill="none" stroke="midnightblue" d="M595.208,-197.699C643.906,-203.051 721.02,-207.63 786,-194 868.381,-176.72 957.104,-129.04 998.774,-104.704"/>
<polygon fill="midnightblue" stroke="midnightblue" points="1000.57,-107.708 1007.4,-99.6065 997.008,-101.682 1000.57,-107.708"/>
</g>
<!-- Node15 -->
<g id="node15" class="node"><title>Node15</title>
<g id="a_node15"><a xlink:href="namespacepdal_1_1Utils.html#a3e140e4c0c21d020c56c0b8d58b8cb5b" target="_top" xlink:title="pdal::Utils::contains">
<polygon fill="white" stroke="black" points="668,-165.5 668,-184.5 772,-184.5 772,-165.5 668,-165.5"/>
<text text-anchor="middle" x="720" y="-172.5" font-family="Helvetica,sans-Serif" font-size="10.00">pdal::Utils::contains</text>
</a>
</g>
</g>
<!-- Node14&#45;&gt;Node15 -->
<g id="edge17" class="edge"><title>Node14&#45;&gt;Node15</title>
<path fill="none" stroke="midnightblue" d="M595.369,-186.501C614.75,-184.698 637.306,-182.599 657.805,-180.693"/>
<polygon fill="midnightblue" stroke="midnightblue" points="658.362,-184.156 667.994,-179.745 657.713,-177.186 658.362,-184.156"/>
</g>
<!-- Node16 -->
<g id="node16" class="node"><title>Node16</title>
<g id="a_node16"><a xlink:href="classpdal_1_1Dimension_1_1Detail.html#a549ea013da1958d0b9120987cb33e291" target="_top" xlink:title="pdal::Dimension::Detail::id">
<polygon fill="white" stroke="black" points="654,-127.5 654,-146.5 786,-146.5 786,-127.5 654,-127.5"/>
<text text-anchor="middle" x="720" y="-134.5" font-family="Helvetica,sans-Serif" font-size="10.00">pdal::Dimension::Detail::id</text>
</a>
</g>
</g>
<!-- Node14&#45;&gt;Node16 -->
<g id="edge18" class="edge"><title>Node14&#45;&gt;Node16</title>
<path fill="none" stroke="midnightblue" d="M591.932,-175.951C611.025,-169.648 633.556,-162.33 654,-156 661.026,-153.825 668.5,-151.578 675.784,-149.424"/>
<polygon fill="midnightblue" stroke="midnightblue" points="676.928,-152.736 685.538,-146.561 674.957,-146.019 676.928,-152.736"/>
</g>
<!-- Node17 -->
<g id="node17" class="node"><title>Node17</title>
<g id="a_node17"><a xlink:href="classpdal_1_1Dimension_1_1Detail.html#a320806a1cc878b5fdb10e178f27a4c61" target="_top" xlink:title="pdal::Dimension::Detail\l::size">
<polygon fill="white" stroke="black" points="660.5,-78 660.5,-108 779.5,-108 779.5,-78 660.5,-78"/>
<text text-anchor="start" x="668.5" y="-96" font-family="Helvetica,sans-Serif" font-size="10.00">pdal::Dimension::Detail</text>
<text text-anchor="middle" x="720" y="-85" font-family="Helvetica,sans-Serif" font-size="10.00">::size</text>
</a>
</g>
</g>
<!-- Node14&#45;&gt;Node17 -->
<g id="edge20" class="edge"><title>Node14&#45;&gt;Node17</title>
<path fill="none" stroke="midnightblue" d="M595.155,-178.407C603.203,-175.109 611.151,-171.024 618,-166 639.501,-150.227 632.727,-134.08 654,-118 656.429,-116.164 659.01,-114.447 661.688,-112.843"/>
<polygon fill="midnightblue" stroke="midnightblue" points="663.359,-115.919 670.511,-108.103 660.045,-109.753 663.359,-115.919"/>
</g>
<!-- Node17&#45;&gt;Node13 -->
<g id="edge21" class="edge"><title>Node17&#45;&gt;Node13</title>
<path fill="none" stroke="midnightblue" d="M779.908,-91.8744C790.833,-91.6656 802.299,-91.4465 813.384,-91.2347"/>
<polygon fill="midnightblue" stroke="midnightblue" points="813.499,-94.7332 823.43,-91.0427 813.365,-87.7345 813.499,-94.7332"/>
</g>
</g>
</svg>
