<?xml version="1.0" encoding="UTF-8" standalone="no"?>
<!DOCTYPE svg PUBLIC "-//W3C//DTD SVG 1.1//EN"
 "http://www.w3.org/Graphics/SVG/1.1/DTD/svg11.dtd">
<!-- Generated by graphviz version 2.38.0 (20140413.2041)
 -->
<!-- Title: pdal::Arg::defaultVal Pages: 1 -->
<svg width="390pt" height="88pt"
 viewBox="0.00 0.00 390.00 88.00" xmlns="http://www.w3.org/2000/svg" xmlns:xlink="http://www.w3.org/1999/xlink">
<g id="graph0" class="graph" transform="scale(1 1) rotate(0) translate(4 84)">
<title>pdal::Arg::defaultVal</title>
<polygon fill="white" stroke="none" points="-4,4 -4,-84 386,-84 386,4 -4,4"/>
<!-- Node1 -->
<g id="node1" class="node"><title>Node1</title>
<polygon fill="#bfbfbf" stroke="black" points="0,-30 0,-49 105,-49 105,-30 0,-30"/>
<text text-anchor="middle" x="52.5" y="-37" font-family="Helvetica,sans-Serif" font-size="10.00">pdal::Arg::defaultVal</text>
</g>
<!-- Node2 -->
<g id="node2" class="node"><title>Node2</title>
<g id="a_node2"><a xlink:href="classpdal_1_1ProgramArgs.html#ae2a1be6e688b4bcf822c20c2b6d836ea" target="_top" xlink:title="pdal::ProgramArgs::\ldump2">
<polygon fill="white" stroke="black" points="141,-49.5 141,-79.5 245,-79.5 245,-49.5 141,-49.5"/>
<text text-anchor="start" x="149" y="-67.5" font-family="Helvetica,sans-Serif" font-size="10.00">pdal::ProgramArgs::</text>
<text text-anchor="middle" x="193" y="-56.5" font-family="Helvetica,sans-Serif" font-size="10.00">dump2</text>
</a>
</g>
</g>
<!-- Node1&#45;&gt;Node2 -->
<g id="edge1" class="edge"><title>Node1&#45;&gt;Node2</title>
<path fill="none" stroke="midnightblue" d="M115.074,-50.6145C123.685,-52.1688 132.456,-53.752 140.846,-55.2664"/>
<polygon fill="midnightblue" stroke="midnightblue" points="115.535,-47.1412 105.072,-48.8091 114.292,-54.0298 115.535,-47.1412"/>
</g>
<!-- Node4 -->
<g id="node4" class="node"><title>Node4</title>
<g id="a_node4"><a xlink:href="classpdal_1_1ProgramArgs.html#ab1df9436868323d1f34bb8128684bb37" target="_top" xlink:title="pdal::ProgramArgs::\ldump3">
<polygon fill="white" stroke="black" points="141,-0.5 141,-30.5 245,-30.5 245,-0.5 141,-0.5"/>
<text text-anchor="start" x="149" y="-18.5" font-family="Helvetica,sans-Serif" font-size="10.00">pdal::ProgramArgs::</text>
<text text-anchor="middle" x="193" y="-7.5" font-family="Helvetica,sans-Serif" font-size="10.00">dump3</text>
</a>
</g>
</g>
<!-- Node1&#45;&gt;Node4 -->
<g id="edge3" class="edge"><title>Node1&#45;&gt;Node4</title>
<path fill="none" stroke="midnightblue" d="M115.074,-28.8301C123.685,-27.338 132.456,-25.8181 140.846,-24.3643"/>
<polygon fill="midnightblue" stroke="midnightblue" points="114.328,-25.4072 105.072,-30.5633 115.523,-32.3044 114.328,-25.4072"/>
</g>
<!-- Node3 -->
<g id="node3" class="node"><title>Node3</title>
<g id="a_node3"><a xlink:href="classApp.html#adf89e292877822f233d3b95598d2b1cb" target="_top" xlink:title="App::outputOptions">
<polygon fill="white" stroke="black" points="281,-30 281,-49 382,-49 382,-30 281,-30"/>
<text text-anchor="middle" x="331.5" y="-37" font-family="Helvetica,sans-Serif" font-size="10.00">App::outputOptions</text>
</a>
</g>
</g>
<!-- Node2&#45;&gt;Node3 -->
<g id="edge2" class="edge"><title>Node2&#45;&gt;Node3</title>
<path fill="none" stroke="midnightblue" d="M255.181,-53.2948C263.756,-51.7242 272.482,-50.1261 280.809,-48.601"/>
<polygon fill="midnightblue" stroke="midnightblue" points="254.422,-49.8754 245.216,-55.1198 255.683,-56.7609 254.422,-49.8754"/>
</g>
<!-- Node4&#45;&gt;Node3 -->
<g id="edge4" class="edge"><title>Node4&#45;&gt;Node3</title>
<path fill="none" stroke="midnightblue" d="M255.181,-26.257C263.756,-27.7648 272.482,-29.299 280.809,-30.763"/>
<polygon fill="midnightblue" stroke="midnightblue" points="255.671,-22.7896 245.216,-24.505 254.459,-29.6839 255.671,-22.7896"/>
</g>
</g>
</svg>
