<?xml version="1.0" encoding="UTF-8" standalone="no"?>
<!DOCTYPE svg PUBLIC "-//W3C//DTD SVG 1.1//EN"
 "http://www.w3.org/Graphics/SVG/1.1/DTD/svg11.dtd">
<!-- Generated by graphviz version 2.38.0 (20140413.2041)
 -->
<!-- Title: pdal::LasVLR::setDataLen Pages: 1 -->
<svg width="893pt" height="123pt"
 viewBox="0.00 0.00 893.00 123.00" xmlns="http://www.w3.org/2000/svg" xmlns:xlink="http://www.w3.org/1999/xlink">
<g id="graph0" class="graph" transform="scale(1 1) rotate(0) translate(4 119)">
<title>pdal::LasVLR::setDataLen</title>
<polygon fill="white" stroke="none" points="-4,4 -4,-119 889,-119 889,4 -4,4"/>
<!-- Node1 -->
<g id="node1" class="node"><title>Node1</title>
<polygon fill="#bfbfbf" stroke="black" points="0,-76.5 0,-95.5 132,-95.5 132,-76.5 0,-76.5"/>
<text text-anchor="middle" x="66" y="-83.5" font-family="Helvetica,sans-Serif" font-size="10.00">pdal::LasVLR::setDataLen</text>
</g>
<!-- Node2 -->
<g id="node2" class="node"><title>Node2</title>
<g id="a_node2"><a xlink:href="namespacepdal.html#a8af0329eb87f27a8e758e50c36b2a705" target="_top" xlink:title="pdal::operator\&lt;\&lt;">
<polygon fill="white" stroke="black" points="168,-95.5 168,-114.5 256,-114.5 256,-95.5 168,-95.5"/>
<text text-anchor="middle" x="212" y="-102.5" font-family="Helvetica,sans-Serif" font-size="10.00">pdal::operator&lt;&lt;</text>
</a>
</g>
</g>
<!-- Node1&#45;&gt;Node2 -->
<g id="edge1" class="edge"><title>Node1&#45;&gt;Node2</title>
<path fill="none" stroke="midnightblue" d="M132.259,-94.6105C140.829,-95.7414 149.528,-96.8892 157.864,-97.9891"/>
<polygon fill="midnightblue" stroke="midnightblue" points="157.448,-101.464 167.82,-99.3026 158.363,-94.5245 157.448,-101.464"/>
</g>
<!-- Node3 -->
<g id="node3" class="node"><title>Node3</title>
<g id="a_node3"><a xlink:href="namespacepdal.html#ace4187c9d299de84872aa9a04c71dbf3" target="_top" xlink:title="pdal::operator\&gt;\&gt;">
<polygon fill="white" stroke="black" points="168,-57.5 168,-76.5 256,-76.5 256,-57.5 168,-57.5"/>
<text text-anchor="middle" x="212" y="-64.5" font-family="Helvetica,sans-Serif" font-size="10.00">pdal::operator&gt;&gt;</text>
</a>
</g>
</g>
<!-- Node1&#45;&gt;Node3 -->
<g id="edge2" class="edge"><title>Node1&#45;&gt;Node3</title>
<path fill="none" stroke="midnightblue" d="M132.259,-77.3895C140.829,-76.2586 149.528,-75.1108 157.864,-74.0109"/>
<polygon fill="midnightblue" stroke="midnightblue" points="158.363,-77.4755 167.82,-72.6974 157.448,-70.5357 158.363,-77.4755"/>
</g>
<!-- Node4 -->
<g id="node4" class="node"><title>Node4</title>
<g id="a_node4"><a xlink:href="structpdal_1_1AssignRange.html#add1a82f38c804c85284aa9bed0c4330a" target="_top" xlink:title="pdal::AssignRange::\lparse">
<polygon fill="white" stroke="black" points="292,-52 292,-82 397,-82 397,-52 292,-52"/>
<text text-anchor="start" x="300" y="-70" font-family="Helvetica,sans-Serif" font-size="10.00">pdal::AssignRange::</text>
<text text-anchor="middle" x="344.5" y="-59" font-family="Helvetica,sans-Serif" font-size="10.00">parse</text>
</a>
</g>
</g>
<!-- Node3&#45;&gt;Node4 -->
<g id="edge3" class="edge"><title>Node3&#45;&gt;Node4</title>
<path fill="none" stroke="midnightblue" d="M256.092,-67C264.31,-67 273.06,-67 281.727,-67"/>
<polygon fill="midnightblue" stroke="midnightblue" points="281.828,-70.5001 291.828,-67 281.828,-63.5001 281.828,-70.5001"/>
</g>
<!-- Node5 -->
<g id="node5" class="node"><title>Node5</title>
<g id="a_node5"><a xlink:href="namespacepdal_1_1Utils.html#a9bda8c5dbe5ef7cf66e99ba022184934" target="_top" xlink:title="pdal::Utils::extractSpaces">
<polygon fill="white" stroke="black" points="612.5,-76.5 612.5,-95.5 742.5,-95.5 742.5,-76.5 612.5,-76.5"/>
<text text-anchor="middle" x="677.5" y="-83.5" font-family="Helvetica,sans-Serif" font-size="10.00">pdal::Utils::extractSpaces</text>
</a>
</g>
</g>
<!-- Node4&#45;&gt;Node5 -->
<g id="edge4" class="edge"><title>Node4&#45;&gt;Node5</title>
<path fill="none" stroke="midnightblue" d="M397.219,-69.9688C452.248,-73.1275 539.806,-78.1535 602.208,-81.7355"/>
<polygon fill="midnightblue" stroke="midnightblue" points="602.201,-85.2408 612.386,-82.3197 602.603,-78.2523 602.201,-85.2408"/>
</g>
<!-- Node7 -->
<g id="node7" class="node"><title>Node7</title>
<g id="a_node7"><a xlink:href="structpdal_1_1DimRange.html#a6b6b128ffc786bddb749f37ccd9fcf1d" target="_top" xlink:title="pdal::DimRange::subParse">
<polygon fill="white" stroke="black" points="433,-38.5 433,-57.5 567,-57.5 567,-38.5 433,-38.5"/>
<text text-anchor="middle" x="500" y="-45.5" font-family="Helvetica,sans-Serif" font-size="10.00">pdal::DimRange::subParse</text>
</a>
</g>
</g>
<!-- Node4&#45;&gt;Node7 -->
<g id="edge6" class="edge"><title>Node4&#45;&gt;Node7</title>
<path fill="none" stroke="midnightblue" d="M397.04,-60.6204C405.304,-59.5976 414.005,-58.5205 422.7,-57.4443"/>
<polygon fill="midnightblue" stroke="midnightblue" points="423.381,-60.8868 432.876,-56.1848 422.521,-53.9398 423.381,-60.8868"/>
</g>
<!-- Node6 -->
<g id="node6" class="node"><title>Node6</title>
<g id="a_node6"><a xlink:href="namespacepdal_1_1Utils.html#acae5a19cd66121b77e2599daec48413d" target="_top" xlink:title="pdal::Utils::extract">
<polygon fill="white" stroke="black" points="788,-57.5 788,-76.5 885,-76.5 885,-57.5 788,-57.5"/>
<text text-anchor="middle" x="836.5" y="-64.5" font-family="Helvetica,sans-Serif" font-size="10.00">pdal::Utils::extract</text>
</a>
</g>
</g>
<!-- Node5&#45;&gt;Node6 -->
<g id="edge5" class="edge"><title>Node5&#45;&gt;Node6</title>
<path fill="none" stroke="midnightblue" d="M742.811,-78.2172C754.352,-76.8205 766.316,-75.3726 777.66,-73.9998"/>
<polygon fill="midnightblue" stroke="midnightblue" points="778.367,-77.4398 787.874,-72.7637 777.526,-70.4905 778.367,-77.4398"/>
</g>
<!-- Node7&#45;&gt;Node5 -->
<g id="edge9" class="edge"><title>Node7&#45;&gt;Node5</title>
<path fill="none" stroke="midnightblue" d="M545.286,-57.589C568.758,-62.6713 597.781,-68.9554 622.558,-74.3203"/>
<polygon fill="midnightblue" stroke="midnightblue" points="622.018,-77.7844 632.532,-76.4799 623.5,-70.9429 622.018,-77.7844"/>
</g>
<!-- Node8 -->
<g id="node8" class="node"><title>Node8</title>
<g id="a_node8"><a xlink:href="namespacepdal_1_1Dimension.html#ad7dd00ca79ce099313f3fe405f40cd93" target="_top" xlink:title="pdal::Dimension::extractName">
<polygon fill="white" stroke="black" points="603,-38.5 603,-57.5 752,-57.5 752,-38.5 603,-38.5"/>
<text text-anchor="middle" x="677.5" y="-45.5" font-family="Helvetica,sans-Serif" font-size="10.00">pdal::Dimension::extractName</text>
</a>
</g>
</g>
<!-- Node7&#45;&gt;Node8 -->
<g id="edge7" class="edge"><title>Node7&#45;&gt;Node8</title>
<path fill="none" stroke="midnightblue" d="M567.349,-48C575.561,-48 584.039,-48 592.472,-48"/>
<polygon fill="midnightblue" stroke="midnightblue" points="592.714,-51.5001 602.714,-48 592.714,-44.5001 592.714,-51.5001"/>
</g>
<!-- Node9 -->
<g id="node9" class="node"><title>Node9</title>
<g id="a_node9"><a xlink:href="namespacepdal_1_1Dimension.html#af3176b0b7e6b4be000317846cf7c2718" target="_top" xlink:title="pdal::Dimension::name">
<polygon fill="white" stroke="black" points="619,-0.5 619,-19.5 736,-19.5 736,-0.5 619,-0.5"/>
<text text-anchor="middle" x="677.5" y="-7.5" font-family="Helvetica,sans-Serif" font-size="10.00">pdal::Dimension::name</text>
</a>
</g>
</g>
<!-- Node7&#45;&gt;Node9 -->
<g id="edge10" class="edge"><title>Node7&#45;&gt;Node9</title>
<path fill="none" stroke="midnightblue" d="M545.286,-38.411C568.758,-33.3287 597.781,-27.0446 622.558,-21.6797"/>
<polygon fill="midnightblue" stroke="midnightblue" points="623.5,-25.0571 632.532,-19.5201 622.018,-18.2156 623.5,-25.0571"/>
</g>
<!-- Node8&#45;&gt;Node6 -->
<g id="edge8" class="edge"><title>Node8&#45;&gt;Node6</title>
<path fill="none" stroke="midnightblue" d="M752.403,-56.9436C760.997,-57.9837 769.666,-59.0328 777.994,-60.0406"/>
<polygon fill="midnightblue" stroke="midnightblue" points="777.607,-63.5193 787.955,-61.2462 778.448,-56.57 777.607,-63.5193"/>
</g>
</g>
</svg>
