<?xml version="1.0" encoding="UTF-8" standalone="no"?>
<!DOCTYPE svg PUBLIC "-//W3C//DTD SVG 1.1//EN"
 "http://www.w3.org/Graphics/SVG/1.1/DTD/svg11.dtd">
<!-- Generated by graphviz version 2.38.0 (20140413.2041)
 -->
<!-- Title: pdal::BpfWriter::prepared Pages: 1 -->
<svg width="1175pt" height="253pt"
 viewBox="0.00 0.00 1175.00 252.50" xmlns="http://www.w3.org/2000/svg" xmlns:xlink="http://www.w3.org/1999/xlink">
<g id="graph0" class="graph" transform="scale(1 1) rotate(0) translate(4 248.5)">
<title>pdal::BpfWriter::prepared</title>
<polygon fill="white" stroke="none" points="-4,4 -4,-248.5 1171,-248.5 1171,4 -4,4"/>
<!-- Node1 -->
<g id="node1" class="node"><title>Node1</title>
<polygon fill="#bfbfbf" stroke="black" points="0,-161.5 0,-180.5 125,-180.5 125,-161.5 0,-161.5"/>
<text text-anchor="middle" x="62.5" y="-168.5" font-family="Helvetica,sans-Serif" font-size="10.00">pdal::BpfWriter::prepared</text>
</g>
<!-- Node2 -->
<g id="node2" class="node"><title>Node2</title>
<g id="a_node2"><a xlink:href="classpdal_1_1BasePointTable.html#a7e3a12a1f29e6cd10d8669ed3d07eb94" target="_top" xlink:title="pdal::BasePointTable\l::layout">
<polygon fill="white" stroke="black" points="166.5,-181 166.5,-211 276.5,-211 276.5,-181 166.5,-181"/>
<text text-anchor="start" x="174.5" y="-199" font-family="Helvetica,sans-Serif" font-size="10.00">pdal::BasePointTable</text>
<text text-anchor="middle" x="221.5" y="-188" font-family="Helvetica,sans-Serif" font-size="10.00">::layout</text>
</a>
</g>
</g>
<!-- Node1&#45;&gt;Node2 -->
<g id="edge1" class="edge"><title>Node1&#45;&gt;Node2</title>
<path fill="none" stroke="midnightblue" d="M123.303,-180.523C134.117,-182.245 145.434,-184.047 156.367,-185.788"/>
<polygon fill="midnightblue" stroke="midnightblue" points="155.847,-189.249 166.273,-187.365 156.948,-182.336 155.847,-189.249"/>
</g>
<!-- Node3 -->
<g id="node3" class="node"><title>Node3</title>
<g id="a_node3"><a xlink:href="classpdal_1_1BpfWriter.html#a9f5fb35cec2cfa9043a3c89977c78614" target="_top" xlink:title="pdal::BpfWriter::loadBpf\lDimensions">
<polygon fill="white" stroke="black" points="161,-132 161,-162 282,-162 282,-132 161,-132"/>
<text text-anchor="start" x="169" y="-150" font-family="Helvetica,sans-Serif" font-size="10.00">pdal::BpfWriter::loadBpf</text>
<text text-anchor="middle" x="221.5" y="-139" font-family="Helvetica,sans-Serif" font-size="10.00">Dimensions</text>
</a>
</g>
</g>
<!-- Node1&#45;&gt;Node3 -->
<g id="edge2" class="edge"><title>Node1&#45;&gt;Node3</title>
<path fill="none" stroke="midnightblue" d="M125.1,-161.583C133.559,-160.29 142.293,-158.955 150.883,-157.642"/>
<polygon fill="midnightblue" stroke="midnightblue" points="151.52,-161.085 160.877,-156.114 150.462,-154.166 151.52,-161.085"/>
</g>
<!-- Node4 -->
<g id="node4" class="node"><title>Node4</title>
<g id="a_node4"><a xlink:href="classpdal_1_1PointLayout.html#aa3902ee8869ff33139401a6900ae088c" target="_top" xlink:title="pdal::PointLayout::\ldimName">
<polygon fill="white" stroke="black" points="328.5,-214 328.5,-244 426.5,-244 426.5,-214 328.5,-214"/>
<text text-anchor="start" x="336.5" y="-232" font-family="Helvetica,sans-Serif" font-size="10.00">pdal::PointLayout::</text>
<text text-anchor="middle" x="377.5" y="-221" font-family="Helvetica,sans-Serif" font-size="10.00">dimName</text>
</a>
</g>
</g>
<!-- Node3&#45;&gt;Node4 -->
<g id="edge3" class="edge"><title>Node3&#45;&gt;Node4</title>
<path fill="none" stroke="midnightblue" d="M263.409,-162.076C269.812,-165.03 276.217,-168.357 282,-172 300.112,-183.411 299.923,-192.534 318,-204 320.934,-205.861 324.029,-207.642 327.203,-209.334"/>
<polygon fill="midnightblue" stroke="midnightblue" points="325.774,-212.532 336.285,-213.863 328.898,-206.268 325.774,-212.532"/>
</g>
<!-- Node6 -->
<g id="node6" class="node"><title>Node6</title>
<g id="a_node6"><a xlink:href="classpdal_1_1PointLayout.html#afd6b92bf6e8fc83993db132b1ed980e2" target="_top" xlink:title="pdal::PointLayout::dims">
<polygon fill="white" stroke="black" points="318,-175.5 318,-194.5 437,-194.5 437,-175.5 318,-175.5"/>
<text text-anchor="middle" x="377.5" y="-182.5" font-family="Helvetica,sans-Serif" font-size="10.00">pdal::PointLayout::dims</text>
</a>
</g>
</g>
<!-- Node3&#45;&gt;Node6 -->
<g id="edge5" class="edge"><title>Node3&#45;&gt;Node6</title>
<path fill="none" stroke="midnightblue" d="M282.04,-161.692C297.17,-165.425 313.248,-169.392 327.77,-172.976"/>
<polygon fill="midnightblue" stroke="midnightblue" points="326.996,-176.39 337.543,-175.387 328.673,-169.593 326.996,-176.39"/>
</g>
<!-- Node7 -->
<g id="node7" class="node"><title>Node7</title>
<g id="a_node7"><a xlink:href="classpdal_1_1PointLayout.html#a5a720db4e74a5412c1420b0d1eaacda7" target="_top" xlink:title="pdal::PointLayout::\lfindDim">
<polygon fill="white" stroke="black" points="328.5,-88 328.5,-118 426.5,-118 426.5,-88 328.5,-88"/>
<text text-anchor="start" x="336.5" y="-106" font-family="Helvetica,sans-Serif" font-size="10.00">pdal::PointLayout::</text>
<text text-anchor="middle" x="377.5" y="-95" font-family="Helvetica,sans-Serif" font-size="10.00">findDim</text>
</a>
</g>
</g>
<!-- Node3&#45;&gt;Node7 -->
<g id="edge6" class="edge"><title>Node3&#45;&gt;Node7</title>
<path fill="none" stroke="midnightblue" d="M275.067,-131.981C289.085,-127.976 304.308,-123.626 318.595,-119.544"/>
<polygon fill="midnightblue" stroke="midnightblue" points="319.656,-122.881 328.31,-116.769 317.733,-116.151 319.656,-122.881"/>
</g>
<!-- Node8 -->
<g id="node8" class="node"><title>Node8</title>
<g id="a_node8"><a xlink:href="namespacepdal_1_1Dimension.html#a10b4c693e3bdbdf1a0eec8f4b008a291" target="_top" xlink:title="pdal::Dimension::id">
<polygon fill="white" stroke="black" points="481,-137.5 481,-156.5 582,-156.5 582,-137.5 481,-137.5"/>
<text text-anchor="middle" x="531.5" y="-144.5" font-family="Helvetica,sans-Serif" font-size="10.00">pdal::Dimension::id</text>
</a>
</g>
</g>
<!-- Node3&#45;&gt;Node8 -->
<g id="edge16" class="edge"><title>Node3&#45;&gt;Node8</title>
<path fill="none" stroke="midnightblue" d="M282.251,-147C336.485,-147 416.058,-147 470.401,-147"/>
<polygon fill="midnightblue" stroke="midnightblue" points="470.58,-150.5 480.58,-147 470.58,-143.5 470.58,-150.5"/>
</g>
<!-- Node17 -->
<g id="node17" class="node"><title>Node17</title>
<g id="a_node17"><a xlink:href="classpdal_1_1Stage.html#abdbd1176da12dfd882d931a43290797f" target="_top" xlink:title="pdal::Stage::throwError">
<polygon fill="white" stroke="black" points="319,-25.5 319,-44.5 436,-44.5 436,-25.5 319,-25.5"/>
<text text-anchor="middle" x="377.5" y="-32.5" font-family="Helvetica,sans-Serif" font-size="10.00">pdal::Stage::throwError</text>
</a>
</g>
</g>
<!-- Node3&#45;&gt;Node17 -->
<g id="edge17" class="edge"><title>Node3&#45;&gt;Node17</title>
<path fill="none" stroke="midnightblue" d="M243.269,-131.895C272.435,-110.683 325.268,-72.2594 354.885,-50.7204"/>
<polygon fill="midnightblue" stroke="midnightblue" points="357.25,-53.328 363.278,-44.6157 353.132,-47.6668 357.25,-53.328"/>
</g>
<!-- Node5 -->
<g id="node5" class="node"><title>Node5</title>
<g id="a_node5"><a xlink:href="namespacepdal_1_1Dimension.html#af3176b0b7e6b4be000317846cf7c2718" target="_top" xlink:title="pdal::Dimension::name">
<polygon fill="white" stroke="black" points="473,-219.5 473,-238.5 590,-238.5 590,-219.5 473,-219.5"/>
<text text-anchor="middle" x="531.5" y="-226.5" font-family="Helvetica,sans-Serif" font-size="10.00">pdal::Dimension::name</text>
</a>
</g>
</g>
<!-- Node4&#45;&gt;Node5 -->
<g id="edge4" class="edge"><title>Node4&#45;&gt;Node5</title>
<path fill="none" stroke="midnightblue" d="M426.594,-229C438.077,-229 450.548,-229 462.733,-229"/>
<polygon fill="midnightblue" stroke="midnightblue" points="462.873,-232.5 472.873,-229 462.873,-225.5 462.873,-232.5"/>
</g>
<!-- Node7&#45;&gt;Node8 -->
<g id="edge7" class="edge"><title>Node7&#45;&gt;Node8</title>
<path fill="none" stroke="midnightblue" d="M426.594,-116.922C446.295,-122.625 468.902,-129.169 487.987,-134.693"/>
<polygon fill="midnightblue" stroke="midnightblue" points="487.033,-138.061 497.612,-137.48 488.979,-131.337 487.033,-138.061"/>
</g>
<!-- Node10 -->
<g id="node10" class="node"><title>Node10</title>
<g id="a_node10"><a xlink:href="classpdal_1_1PointLayout.html#adaef1dfccc620aa7f7f2a57ea2c19d6d" target="_top" xlink:title="pdal::PointLayout::\ldimType">
<polygon fill="white" stroke="black" points="482.5,-88 482.5,-118 580.5,-118 580.5,-88 482.5,-88"/>
<text text-anchor="start" x="490.5" y="-106" font-family="Helvetica,sans-Serif" font-size="10.00">pdal::PointLayout::</text>
<text text-anchor="middle" x="531.5" y="-95" font-family="Helvetica,sans-Serif" font-size="10.00">dimType</text>
</a>
</g>
</g>
<!-- Node7&#45;&gt;Node10 -->
<g id="edge9" class="edge"><title>Node7&#45;&gt;Node10</title>
<path fill="none" stroke="midnightblue" d="M426.594,-103C441.081,-103 457.138,-103 472.212,-103"/>
<polygon fill="midnightblue" stroke="midnightblue" points="472.458,-106.5 482.458,-103 472.458,-99.5001 472.458,-106.5"/>
</g>
<!-- Node16 -->
<g id="node16" class="node"><title>Node16</title>
<g id="a_node16"><a xlink:href="classpdal_1_1PointLayout.html#abb03661faa312e6954f49cf8e0e809a3" target="_top" xlink:title="pdal::PointLayout::\lfindProprietaryDim">
<polygon fill="white" stroke="black" points="482.5,-39 482.5,-69 580.5,-69 580.5,-39 482.5,-39"/>
<text text-anchor="start" x="490.5" y="-57" font-family="Helvetica,sans-Serif" font-size="10.00">pdal::PointLayout::</text>
<text text-anchor="middle" x="531.5" y="-46" font-family="Helvetica,sans-Serif" font-size="10.00">findProprietaryDim</text>
</a>
</g>
</g>
<!-- Node7&#45;&gt;Node16 -->
<g id="edge15" class="edge"><title>Node7&#45;&gt;Node16</title>
<path fill="none" stroke="midnightblue" d="M425.345,-87.8986C440.732,-82.9385 457.997,-77.3726 474.021,-72.2071"/>
<polygon fill="midnightblue" stroke="midnightblue" points="475.366,-75.451 483.809,-69.0516 473.218,-68.7887 475.366,-75.451"/>
</g>
<!-- Node9 -->
<g id="node9" class="node"><title>Node9</title>
<g id="a_node9"><a xlink:href="namespacepdal_1_1Utils.html#a28e3e2faff94b20f9908e77bc54ed983" target="_top" xlink:title="pdal::Utils::toupper">
<polygon fill="white" stroke="black" points="636,-137.5 636,-156.5 735,-156.5 735,-137.5 636,-137.5"/>
<text text-anchor="middle" x="685.5" y="-144.5" font-family="Helvetica,sans-Serif" font-size="10.00">pdal::Utils::toupper</text>
</a>
</g>
</g>
<!-- Node8&#45;&gt;Node9 -->
<g id="edge8" class="edge"><title>Node8&#45;&gt;Node9</title>
<path fill="none" stroke="midnightblue" d="M582.27,-147C596.135,-147 611.327,-147 625.66,-147"/>
<polygon fill="midnightblue" stroke="midnightblue" points="625.913,-150.5 635.913,-147 625.913,-143.5 625.913,-150.5"/>
</g>
<!-- Node11 -->
<g id="node11" class="node"><title>Node11</title>
<g id="a_node11"><a xlink:href="classpdal_1_1PointLayout.html#abcfdf0f917e71d1bd8a96bc64ff1e8a2" target="_top" xlink:title="pdal::PointLayout::\ldimDetail">
<polygon fill="white" stroke="black" points="636.5,-88 636.5,-118 734.5,-118 734.5,-88 636.5,-88"/>
<text text-anchor="start" x="644.5" y="-106" font-family="Helvetica,sans-Serif" font-size="10.00">pdal::PointLayout::</text>
<text text-anchor="middle" x="685.5" y="-95" font-family="Helvetica,sans-Serif" font-size="10.00">dimDetail</text>
</a>
</g>
</g>
<!-- Node10&#45;&gt;Node11 -->
<g id="edge10" class="edge"><title>Node10&#45;&gt;Node11</title>
<path fill="none" stroke="midnightblue" d="M580.594,-103C595.081,-103 611.138,-103 626.212,-103"/>
<polygon fill="midnightblue" stroke="midnightblue" points="626.458,-106.5 636.458,-103 626.458,-99.5001 626.458,-106.5"/>
</g>
<!-- Node15 -->
<g id="node15" class="node"><title>Node15</title>
<g id="a_node15"><a xlink:href="classpdal_1_1Dimension_1_1Detail.html#adf5961976b7fce3d90a0dddd50519a7c" target="_top" xlink:title="pdal::Dimension::Detail\l::type">
<polygon fill="white" stroke="black" points="626,-39 626,-69 745,-69 745,-39 626,-39"/>
<text text-anchor="start" x="634" y="-57" font-family="Helvetica,sans-Serif" font-size="10.00">pdal::Dimension::Detail</text>
<text text-anchor="middle" x="685.5" y="-46" font-family="Helvetica,sans-Serif" font-size="10.00">::type</text>
</a>
</g>
</g>
<!-- Node10&#45;&gt;Node15 -->
<g id="edge14" class="edge"><title>Node10&#45;&gt;Node15</title>
<path fill="none" stroke="midnightblue" d="M579.345,-87.8986C594.732,-82.9385 611.997,-77.3726 628.021,-72.2071"/>
<polygon fill="midnightblue" stroke="midnightblue" points="629.366,-75.451 637.809,-69.0516 627.218,-68.7887 629.366,-75.451"/>
</g>
<!-- Node12 -->
<g id="node12" class="node"><title>Node12</title>
<g id="a_node12"><a xlink:href="namespacepdal_1_1Utils.html#a59253304d0f929e3a3ea00f09636002f" target="_top" xlink:title="pdal::Utils::toNative">
<polygon fill="white" stroke="black" points="781,-93.5 781,-112.5 885,-112.5 885,-93.5 781,-93.5"/>
<text text-anchor="middle" x="833" y="-100.5" font-family="Helvetica,sans-Serif" font-size="10.00">pdal::Utils::toNative</text>
</a>
</g>
</g>
<!-- Node11&#45;&gt;Node12 -->
<g id="edge11" class="edge"><title>Node11&#45;&gt;Node12</title>
<path fill="none" stroke="midnightblue" d="M734.545,-103C746.121,-103 758.643,-103 770.732,-103"/>
<polygon fill="midnightblue" stroke="midnightblue" points="770.754,-106.5 780.754,-103 770.754,-99.5001 770.754,-106.5"/>
</g>
<!-- Node13 -->
<g id="node13" class="node"><title>Node13</title>
<g id="a_node13"><a xlink:href="namespacepdal_1_1Dimension.html#a880d689fed54aa3ded6f88c9e058c5d2" target="_top" xlink:title="pdal::Dimension::type">
<polygon fill="white" stroke="black" points="921,-93.5 921,-112.5 1033,-112.5 1033,-93.5 921,-93.5"/>
<text text-anchor="middle" x="977" y="-100.5" font-family="Helvetica,sans-Serif" font-size="10.00">pdal::Dimension::type</text>
</a>
</g>
</g>
<!-- Node12&#45;&gt;Node13 -->
<g id="edge12" class="edge"><title>Node12&#45;&gt;Node13</title>
<path fill="none" stroke="midnightblue" d="M885.265,-103C893.602,-103 902.332,-103 910.946,-103"/>
<polygon fill="midnightblue" stroke="midnightblue" points="910.972,-106.5 920.972,-103 910.972,-99.5001 910.972,-106.5"/>
</g>
<!-- Node14 -->
<g id="node14" class="node"><title>Node14</title>
<g id="a_node14"><a xlink:href="namespacepdal_1_1Utils.html#a5268937cf695835e55392f752dc02cb2" target="_top" xlink:title="pdal::Utils::tolower">
<polygon fill="white" stroke="black" points="1069,-93.5 1069,-112.5 1167,-112.5 1167,-93.5 1069,-93.5"/>
<text text-anchor="middle" x="1118" y="-100.5" font-family="Helvetica,sans-Serif" font-size="10.00">pdal::Utils::tolower</text>
</a>
</g>
</g>
<!-- Node13&#45;&gt;Node14 -->
<g id="edge13" class="edge"><title>Node13&#45;&gt;Node14</title>
<path fill="none" stroke="midnightblue" d="M1033.34,-103C1041.62,-103 1050.19,-103 1058.55,-103"/>
<polygon fill="midnightblue" stroke="midnightblue" points="1058.59,-106.5 1068.59,-103 1058.59,-99.5001 1058.59,-106.5"/>
</g>
<!-- Node18 -->
<g id="node18" class="node"><title>Node18</title>
<g id="a_node18"><a xlink:href="classpdal_1_1Stage.html#a6c81d6fbbac17ebe4cd63806916cc750" target="_top" xlink:title="pdal::Stage::getName">
<polygon fill="white" stroke="black" points="475.5,-0.5 475.5,-19.5 587.5,-19.5 587.5,-0.5 475.5,-0.5"/>
<text text-anchor="middle" x="531.5" y="-7.5" font-family="Helvetica,sans-Serif" font-size="10.00">pdal::Stage::getName</text>
</a>
</g>
</g>
<!-- Node17&#45;&gt;Node18 -->
<g id="edge18" class="edge"><title>Node17&#45;&gt;Node18</title>
<path fill="none" stroke="midnightblue" d="M436.398,-25.4773C445.863,-23.9206 455.725,-22.2985 465.35,-20.7154"/>
<polygon fill="midnightblue" stroke="midnightblue" points="465.969,-24.1607 475.268,-19.0841 464.833,-17.2535 465.969,-24.1607"/>
</g>
</g>
</svg>
