<?xml version="1.0" encoding="UTF-8" standalone="no"?>
<!DOCTYPE svg PUBLIC "-//W3C//DTD SVG 1.1//EN"
 "http://www.w3.org/Graphics/SVG/1.1/DTD/svg11.dtd">
<!-- Generated by graphviz version 2.38.0 (20140413.2041)
 -->
<!-- Title: pdal::MetadataNode::find Pages: 1 -->
<svg width="264pt" height="127pt"
 viewBox="0.00 0.00 264.00 126.50" xmlns="http://www.w3.org/2000/svg" xmlns:xlink="http://www.w3.org/1999/xlink">
<g id="graph0" class="graph" transform="scale(1 1) rotate(0) translate(4 122.5)">
<title>pdal::MetadataNode::find</title>
<polygon fill="white" stroke="none" points="-4,4 -4,-122.5 260,-122.5 260,4 -4,4"/>
<!-- Node1 -->
<g id="node1" class="node"><title>Node1</title>
<polygon fill="#bfbfbf" stroke="black" points="0,-39 0,-69 104,-69 104,-39 0,-39"/>
<text text-anchor="start" x="8" y="-57" font-family="Helvetica,sans-Serif" font-size="10.00">pdal::MetadataNode</text>
<text text-anchor="middle" x="52" y="-46" font-family="Helvetica,sans-Serif" font-size="10.00">::find</text>
</g>
<!-- Node1&#45;&gt;Node1 -->
<g id="edge1" class="edge"><title>Node1&#45;&gt;Node1</title>
<path fill="none" stroke="midnightblue" d="M26.0576,-79.4579C29.2774,-84.179 37.9249,-87.5 52,-87.5 75.0977,-87.5 83.5788,-78.5566 77.4435,-69.159"/>
<polygon fill="midnightblue" stroke="midnightblue" points="29.5684,-79.3167 26.5565,-69.159 22.5766,-78.9779 29.5684,-79.3167"/>
</g>
<!-- Node2 -->
<g id="node2" class="node"><title>Node2</title>
<g id="a_node2"><a xlink:href="classpdal_1_1MetadataNode.html#aa2773bcdbe5c5b7a1658d77a5ba76216" target="_top" xlink:title="pdal::MetadataNode\l::findChild">
<polygon fill="white" stroke="black" points="146,-88 146,-118 250,-118 250,-88 146,-88"/>
<text text-anchor="start" x="154" y="-106" font-family="Helvetica,sans-Serif" font-size="10.00">pdal::MetadataNode</text>
<text text-anchor="middle" x="198" y="-95" font-family="Helvetica,sans-Serif" font-size="10.00">::findChild</text>
</a>
</g>
</g>
<!-- Node1&#45;&gt;Node2 -->
<g id="edge2" class="edge"><title>Node1&#45;&gt;Node2</title>
<path fill="none" stroke="midnightblue" d="M107.043,-72.3896C122.036,-77.4916 138.14,-82.9711 152.519,-87.8641"/>
<polygon fill="midnightblue" stroke="midnightblue" points="107.974,-69.0095 97.3797,-69.1014 105.719,-75.6363 107.974,-69.0095"/>
</g>
<!-- Node3 -->
<g id="node3" class="node"><title>Node3</title>
<g id="a_node3"><a xlink:href="classpdal_1_1LasWriter.html#a0abd8808cc1faf5296783ab279adb527" target="_top" xlink:title="pdal::LasWriter::findVlr\lMetadata">
<polygon fill="white" stroke="black" points="140,-39 140,-69 256,-69 256,-39 140,-39"/>
<text text-anchor="start" x="148" y="-57" font-family="Helvetica,sans-Serif" font-size="10.00">pdal::LasWriter::findVlr</text>
<text text-anchor="middle" x="198" y="-46" font-family="Helvetica,sans-Serif" font-size="10.00">Metadata</text>
</a>
</g>
</g>
<!-- Node1&#45;&gt;Node3 -->
<g id="edge3" class="edge"><title>Node1&#45;&gt;Node3</title>
<path fill="none" stroke="midnightblue" d="M114.291,-54C122.692,-54 131.291,-54 139.619,-54"/>
<polygon fill="midnightblue" stroke="midnightblue" points="114.175,-50.5001 104.174,-54 114.174,-57.5001 114.175,-50.5001"/>
</g>
<!-- Node4 -->
<g id="node4" class="node"><title>Node4</title>
<g id="a_node4"><a xlink:href="StatsFilterTest_8cpp.html#a5ee4039c1286ed8c5cddca48c85265b2" target="_top" xlink:title="TEST">
<polygon fill="white" stroke="black" points="177,-0.5 177,-19.5 219,-19.5 219,-0.5 177,-0.5"/>
<text text-anchor="middle" x="198" y="-7.5" font-family="Helvetica,sans-Serif" font-size="10.00">TEST</text>
</a>
</g>
</g>
<!-- Node1&#45;&gt;Node4 -->
<g id="edge4" class="edge"><title>Node1&#45;&gt;Node4</title>
<path fill="none" stroke="midnightblue" d="M111.92,-35.9967C135.041,-28.9319 160.024,-21.2982 176.896,-16.143"/>
<polygon fill="midnightblue" stroke="midnightblue" points="110.695,-32.7113 102.154,-38.9808 112.74,-39.4057 110.695,-32.7113"/>
</g>
</g>
</svg>
