<?xml version="1.0" encoding="UTF-8" standalone="no"?>
<!DOCTYPE svg PUBLIC "-//W3C//DTD SVG 1.1//EN"
 "http://www.w3.org/Graphics/SVG/1.1/DTD/svg11.dtd">
<!-- Generated by graphviz version 2.38.0 (20140413.2041)
 -->
<!-- Title: pdal::LasSummaryData::getBounds Pages: 1 -->
<svg width="650pt" height="66pt"
 viewBox="0.00 0.00 650.00 66.00" xmlns="http://www.w3.org/2000/svg" xmlns:xlink="http://www.w3.org/1999/xlink">
<g id="graph0" class="graph" transform="scale(1 1) rotate(0) translate(4 62)">
<title>pdal::LasSummaryData::getBounds</title>
<polygon fill="white" stroke="none" points="-4,4 -4,-62 646,-62 646,4 -4,4"/>
<!-- Node1 -->
<g id="node1" class="node"><title>Node1</title>
<polygon fill="#bfbfbf" stroke="black" points="0,-14 0,-44 119,-44 119,-14 0,-14"/>
<text text-anchor="start" x="8" y="-32" font-family="Helvetica,sans-Serif" font-size="10.00">pdal::LasSummaryData</text>
<text text-anchor="middle" x="59.5" y="-21" font-family="Helvetica,sans-Serif" font-size="10.00">::getBounds</text>
</g>
<!-- Node2 -->
<g id="node2" class="node"><title>Node2</title>
<g id="a_node2"><a xlink:href="classpdal_1_1LasHeader.html#ae256802ba1ef6d3244dd74e96302929b" target="_top" xlink:title="pdal::LasHeader::setSummary">
<polygon fill="white" stroke="black" points="155,-19.5 155,-38.5 304,-38.5 304,-19.5 155,-19.5"/>
<text text-anchor="middle" x="229.5" y="-26.5" font-family="Helvetica,sans-Serif" font-size="10.00">pdal::LasHeader::setSummary</text>
</a>
</g>
</g>
<!-- Node1&#45;&gt;Node2 -->
<g id="edge1" class="edge"><title>Node1&#45;&gt;Node2</title>
<path fill="none" stroke="midnightblue" d="M129.336,-29C137.702,-29 146.276,-29 154.71,-29"/>
<polygon fill="midnightblue" stroke="midnightblue" points="129.258,-25.5001 119.258,-29 129.258,-32.5001 129.258,-25.5001"/>
</g>
<!-- Node3 -->
<g id="node3" class="node"><title>Node3</title>
<g id="a_node3"><a xlink:href="classpdal_1_1LasWriter.html#ac63068fbfab5b221508950495d22db54" target="_top" xlink:title="pdal::LasWriter::finishOutput">
<polygon fill="white" stroke="black" points="340,-19.5 340,-38.5 481,-38.5 481,-19.5 340,-19.5"/>
<text text-anchor="middle" x="410.5" y="-26.5" font-family="Helvetica,sans-Serif" font-size="10.00">pdal::LasWriter::finishOutput</text>
</a>
</g>
</g>
<!-- Node2&#45;&gt;Node3 -->
<g id="edge2" class="edge"><title>Node2&#45;&gt;Node3</title>
<path fill="none" stroke="midnightblue" d="M314.16,-29C322.792,-29 331.495,-29 339.949,-29"/>
<polygon fill="midnightblue" stroke="midnightblue" points="314.081,-25.5001 304.081,-29 314.081,-32.5001 314.081,-25.5001"/>
</g>
<!-- Node4 -->
<g id="node4" class="node"><title>Node4</title>
<g id="a_node4"><a xlink:href="classpdal_1_1LasWriter.html#a8e6cccdc4e5b6cf4ac9361697b4e6f4f" target="_top" xlink:title="pdal::LasWriter::doneFile">
<polygon fill="white" stroke="black" points="517,-38.5 517,-57.5 642,-57.5 642,-38.5 517,-38.5"/>
<text text-anchor="middle" x="579.5" y="-45.5" font-family="Helvetica,sans-Serif" font-size="10.00">pdal::LasWriter::doneFile</text>
</a>
</g>
</g>
<!-- Node3&#45;&gt;Node4 -->
<g id="edge3" class="edge"><title>Node3&#45;&gt;Node4</title>
<path fill="none" stroke="midnightblue" d="M491.377,-38.0878C499.952,-39.0634 508.579,-40.0449 516.894,-40.9909"/>
<polygon fill="midnightblue" stroke="midnightblue" points="491.687,-34.6006 481.355,-36.9476 490.896,-41.5557 491.687,-34.6006"/>
</g>
<!-- Node5 -->
<g id="node5" class="node"><title>Node5</title>
<g id="a_node5"><a xlink:href="classpdal_1_1NitfWriter.html#a0320785ad5311c55705c6b41a13cfb75" target="_top" xlink:title="pdal::NitfWriter::doneFile">
<polygon fill="white" stroke="black" points="517,-0.5 517,-19.5 642,-19.5 642,-0.5 517,-0.5"/>
<text text-anchor="middle" x="579.5" y="-7.5" font-family="Helvetica,sans-Serif" font-size="10.00">pdal::NitfWriter::doneFile</text>
</a>
</g>
</g>
<!-- Node3&#45;&gt;Node5 -->
<g id="edge4" class="edge"><title>Node3&#45;&gt;Node5</title>
<path fill="none" stroke="midnightblue" d="M491.377,-19.9122C499.952,-18.9366 508.579,-17.9551 516.894,-17.0091"/>
<polygon fill="midnightblue" stroke="midnightblue" points="490.896,-16.4443 481.355,-21.0524 491.687,-23.3994 490.896,-16.4443"/>
</g>
</g>
</svg>
