<?xml version="1.0" encoding="UTF-8" standalone="no"?>
<!DOCTYPE svg PUBLIC "-//W3C//DTD SVG 1.1//EN"
 "http://www.w3.org/Graphics/SVG/1.1/DTD/svg11.dtd">
<!-- Generated by graphviz version 2.38.0 (20140413.2041)
 -->
<!-- Title: pdal::OciWriter::runFileSQL Pages: 1 -->
<svg width="910pt" height="180pt"
 viewBox="0.00 0.00 910.00 180.00" xmlns="http://www.w3.org/2000/svg" xmlns:xlink="http://www.w3.org/1999/xlink">
<g id="graph0" class="graph" transform="scale(1 1) rotate(0) translate(4 176)">
<title>pdal::OciWriter::runFileSQL</title>
<polygon fill="white" stroke="none" points="-4,4 -4,-176 906,-176 906,4 -4,4"/>
<!-- Node1 -->
<g id="node1" class="node"><title>Node1</title>
<polygon fill="#bfbfbf" stroke="black" points="0,-85.5 0,-104.5 137,-104.5 137,-85.5 0,-85.5"/>
<text text-anchor="middle" x="68.5" y="-92.5" font-family="Helvetica,sans-Serif" font-size="10.00">pdal::OciWriter::runFileSQL</text>
</g>
<!-- Node2 -->
<g id="node2" class="node"><title>Node2</title>
<g id="a_node2"><a xlink:href="namespacepdal_1_1Utils.html#aa7cd618aca677bff881c1c14fbeebe72" target="_top" xlink:title="pdal::Utils::fileExists">
<polygon fill="white" stroke="black" points="360,-152.5 360,-171.5 467,-171.5 467,-152.5 360,-152.5"/>
<text text-anchor="middle" x="413.5" y="-159.5" font-family="Helvetica,sans-Serif" font-size="10.00">pdal::Utils::fileExists</text>
</a>
</g>
</g>
<!-- Node1&#45;&gt;Node2 -->
<g id="edge1" class="edge"><title>Node1&#45;&gt;Node2</title>
<path fill="none" stroke="midnightblue" d="M118.279,-104.528C180.292,-116.642 287.259,-137.536 353.71,-150.516"/>
<polygon fill="midnightblue" stroke="midnightblue" points="353.126,-153.968 363.612,-152.45 354.468,-147.098 353.126,-153.968"/>
</g>
<!-- Node3 -->
<g id="node3" class="node"><title>Node3</title>
<g id="a_node3"><a xlink:href="classpdal_1_1OciWriter.html#a7d89ae96811071e045b6cfc091b7bd01" target="_top" xlink:title="pdal::OciWriter::loadSQLData">
<polygon fill="white" stroke="black" points="173,-85.5 173,-104.5 319,-104.5 319,-85.5 173,-85.5"/>
<text text-anchor="middle" x="246" y="-92.5" font-family="Helvetica,sans-Serif" font-size="10.00">pdal::OciWriter::loadSQLData</text>
</a>
</g>
</g>
<!-- Node1&#45;&gt;Node3 -->
<g id="edge2" class="edge"><title>Node1&#45;&gt;Node3</title>
<path fill="none" stroke="midnightblue" d="M137.102,-95C145.5,-95 154.158,-95 162.745,-95"/>
<polygon fill="midnightblue" stroke="midnightblue" points="162.774,-98.5001 172.774,-95 162.774,-91.5001 162.774,-98.5001"/>
</g>
<!-- Node14 -->
<g id="node14" class="node"><title>Node14</title>
<g id="a_node14"><a xlink:href="classpdal_1_1OciWriter.html#a80b62166cf73958e525123c285ad79a3" target="_top" xlink:title="pdal::OciWriter::runCommand">
<polygon fill="white" stroke="black" points="173,-47.5 173,-66.5 319,-66.5 319,-47.5 173,-47.5"/>
<text text-anchor="middle" x="246" y="-54.5" font-family="Helvetica,sans-Serif" font-size="10.00">pdal::OciWriter::runCommand</text>
</a>
</g>
</g>
<!-- Node1&#45;&gt;Node14 -->
<g id="edge14" class="edge"><title>Node1&#45;&gt;Node14</title>
<path fill="none" stroke="midnightblue" d="M113.786,-85.411C137.258,-80.3287 166.281,-74.0446 191.058,-68.6797"/>
<polygon fill="midnightblue" stroke="midnightblue" points="192,-72.0571 201.032,-66.5201 190.518,-65.2156 192,-72.0571"/>
</g>
<!-- Node3&#45;&gt;Node2 -->
<g id="edge5" class="edge"><title>Node3&#45;&gt;Node2</title>
<path fill="none" stroke="midnightblue" d="M267.052,-104.63C288.549,-114.783 323.802,-130.947 355,-143 360.529,-145.136 366.411,-147.253 372.223,-149.255"/>
<polygon fill="midnightblue" stroke="midnightblue" points="371.268,-152.626 381.862,-152.5 373.501,-145.992 371.268,-152.626"/>
</g>
<!-- Node4 -->
<g id="node4" class="node"><title>Node4</title>
<g id="a_node4"><a xlink:href="namespacepdal_1_1Utils.html#aad48cdff8e3ff3d13c7a273583870185" target="_top" xlink:title="pdal::Utils::closeFile">
<polygon fill="white" stroke="black" points="360.5,-114.5 360.5,-133.5 466.5,-133.5 466.5,-114.5 360.5,-114.5"/>
<text text-anchor="middle" x="413.5" y="-121.5" font-family="Helvetica,sans-Serif" font-size="10.00">pdal::Utils::closeFile</text>
</a>
</g>
</g>
<!-- Node3&#45;&gt;Node4 -->
<g id="edge3" class="edge"><title>Node3&#45;&gt;Node4</title>
<path fill="none" stroke="midnightblue" d="M301.65,-104.576C317.174,-107.296 334.195,-110.279 350.14,-113.073"/>
<polygon fill="midnightblue" stroke="midnightblue" points="349.981,-116.598 360.436,-114.877 351.19,-109.703 349.981,-116.598"/>
</g>
<!-- Node6 -->
<g id="node6" class="node"><title>Node6</title>
<g id="a_node6"><a xlink:href="namespacepdal_1_1Utils.html#ac3322e84f8c5a998a344a5a606c74793" target="_top" xlink:title="pdal::Utils::openFile">
<polygon fill="white" stroke="black" points="361.5,-76.5 361.5,-95.5 465.5,-95.5 465.5,-76.5 361.5,-76.5"/>
<text text-anchor="middle" x="413.5" y="-83.5" font-family="Helvetica,sans-Serif" font-size="10.00">pdal::Utils::openFile</text>
</a>
</g>
</g>
<!-- Node3&#45;&gt;Node6 -->
<g id="edge6" class="edge"><title>Node3&#45;&gt;Node6</title>
<path fill="none" stroke="midnightblue" d="M319.109,-91.0787C329.693,-90.5031 340.512,-89.9147 350.86,-89.352"/>
<polygon fill="midnightblue" stroke="midnightblue" points="351.229,-92.8372 361.024,-88.7993 350.849,-85.8475 351.229,-92.8372"/>
</g>
<!-- Node8 -->
<g id="node8" class="node"><title>Node8</title>
<g id="a_node8"><a xlink:href="namespacepdal_1_1Dimension.html#acf81dae9d5946f3a941f9df154b2329b" target="_top" xlink:title="pdal::Dimension::size">
<polygon fill="white" stroke="black" points="358,-38.5 358,-57.5 469,-57.5 469,-38.5 358,-38.5"/>
<text text-anchor="middle" x="413.5" y="-45.5" font-family="Helvetica,sans-Serif" font-size="10.00">pdal::Dimension::size</text>
</a>
</g>
</g>
<!-- Node3&#45;&gt;Node8 -->
<g id="edge8" class="edge"><title>Node3&#45;&gt;Node8</title>
<path fill="none" stroke="midnightblue" d="M284.062,-85.4696C295.305,-82.5113 307.676,-79.1888 319,-76 336.289,-71.1315 355.291,-65.4941 371.623,-60.5594"/>
<polygon fill="midnightblue" stroke="midnightblue" points="372.855,-63.8433 381.408,-57.5908 370.823,-57.1448 372.855,-63.8433"/>
</g>
<!-- Node12 -->
<g id="node12" class="node"><title>Node12</title>
<g id="a_node12"><a xlink:href="classpdal_1_1Stage.html#abdbd1176da12dfd882d931a43290797f" target="_top" xlink:title="pdal::Stage::throwError">
<polygon fill="white" stroke="black" points="355,-0.5 355,-19.5 472,-19.5 472,-0.5 355,-0.5"/>
<text text-anchor="middle" x="413.5" y="-7.5" font-family="Helvetica,sans-Serif" font-size="10.00">pdal::Stage::throwError</text>
</a>
</g>
</g>
<!-- Node3&#45;&gt;Node12 -->
<g id="edge12" class="edge"><title>Node3&#45;&gt;Node12</title>
<path fill="none" stroke="midnightblue" d="M299.888,-85.4081C306.627,-82.9527 313.19,-79.87 319,-76 340.899,-61.4136 333.557,-44.2488 355,-29 357.699,-27.0807 360.604,-25.3461 363.624,-23.7798"/>
<polygon fill="midnightblue" stroke="midnightblue" points="365.267,-26.8782 372.937,-19.5692 362.383,-20.4999 365.267,-26.8782"/>
</g>
<!-- Node5 -->
<g id="node5" class="node"><title>Node5</title>
<g id="a_node5"><a xlink:href="namespacepdal_1_1Utils.html#a6ce7036b0912ba81b1f1a876b2772a34" target="_top" xlink:title="pdal::Utils::closeFile">
<polygon fill="white" stroke="black" points="511,-114.5 511,-133.5 617,-133.5 617,-114.5 511,-114.5"/>
<text text-anchor="middle" x="564" y="-121.5" font-family="Helvetica,sans-Serif" font-size="10.00">pdal::Utils::closeFile</text>
</a>
</g>
</g>
<!-- Node4&#45;&gt;Node5 -->
<g id="edge4" class="edge"><title>Node4&#45;&gt;Node5</title>
<path fill="none" stroke="midnightblue" d="M466.856,-124C477.788,-124 489.416,-124 500.669,-124"/>
<polygon fill="midnightblue" stroke="midnightblue" points="500.867,-127.5 510.867,-124 500.867,-120.5 500.867,-127.5"/>
</g>
<!-- Node7 -->
<g id="node7" class="node"><title>Node7</title>
<g id="a_node7"><a xlink:href="SQLiteTest_8cpp.html#afdd1742979cee35fe1879794bd7ff3a4" target="_top" xlink:title="tempFilename">
<polygon fill="white" stroke="black" points="525,-76.5 525,-95.5 603,-95.5 603,-76.5 525,-76.5"/>
<text text-anchor="middle" x="564" y="-83.5" font-family="Helvetica,sans-Serif" font-size="10.00">tempFilename</text>
</a>
</g>
</g>
<!-- Node6&#45;&gt;Node7 -->
<g id="edge7" class="edge"><title>Node6&#45;&gt;Node7</title>
<path fill="none" stroke="midnightblue" d="M465.605,-86C481.572,-86 499.126,-86 514.88,-86"/>
<polygon fill="midnightblue" stroke="midnightblue" points="514.938,-89.5001 524.938,-86 514.938,-82.5001 514.938,-89.5001"/>
</g>
<!-- Node9 -->
<g id="node9" class="node"><title>Node9</title>
<g id="a_node9"><a xlink:href="namespacepdal_1_1Utils.html#a59253304d0f929e3a3ea00f09636002f" target="_top" xlink:title="pdal::Utils::toNative">
<polygon fill="white" stroke="black" points="512,-38.5 512,-57.5 616,-57.5 616,-38.5 512,-38.5"/>
<text text-anchor="middle" x="564" y="-45.5" font-family="Helvetica,sans-Serif" font-size="10.00">pdal::Utils::toNative</text>
</a>
</g>
</g>
<!-- Node8&#45;&gt;Node9 -->
<g id="edge9" class="edge"><title>Node8&#45;&gt;Node9</title>
<path fill="none" stroke="midnightblue" d="M469.374,-48C479.893,-48 490.969,-48 501.676,-48"/>
<polygon fill="midnightblue" stroke="midnightblue" points="501.797,-51.5001 511.797,-48 501.797,-44.5001 501.797,-51.5001"/>
</g>
<!-- Node10 -->
<g id="node10" class="node"><title>Node10</title>
<g id="a_node10"><a xlink:href="namespacepdal_1_1Dimension.html#a880d689fed54aa3ded6f88c9e058c5d2" target="_top" xlink:title="pdal::Dimension::type">
<polygon fill="white" stroke="black" points="656,-38.5 656,-57.5 768,-57.5 768,-38.5 656,-38.5"/>
<text text-anchor="middle" x="712" y="-45.5" font-family="Helvetica,sans-Serif" font-size="10.00">pdal::Dimension::type</text>
</a>
</g>
</g>
<!-- Node9&#45;&gt;Node10 -->
<g id="edge10" class="edge"><title>Node9&#45;&gt;Node10</title>
<path fill="none" stroke="midnightblue" d="M616.064,-48C625.646,-48 635.783,-48 645.727,-48"/>
<polygon fill="midnightblue" stroke="midnightblue" points="645.989,-51.5001 655.989,-48 645.989,-44.5001 645.989,-51.5001"/>
</g>
<!-- Node11 -->
<g id="node11" class="node"><title>Node11</title>
<g id="a_node11"><a xlink:href="namespacepdal_1_1Utils.html#a5268937cf695835e55392f752dc02cb2" target="_top" xlink:title="pdal::Utils::tolower">
<polygon fill="white" stroke="black" points="804,-38.5 804,-57.5 902,-57.5 902,-38.5 804,-38.5"/>
<text text-anchor="middle" x="853" y="-45.5" font-family="Helvetica,sans-Serif" font-size="10.00">pdal::Utils::tolower</text>
</a>
</g>
</g>
<!-- Node10&#45;&gt;Node11 -->
<g id="edge11" class="edge"><title>Node10&#45;&gt;Node11</title>
<path fill="none" stroke="midnightblue" d="M768.336,-48C776.625,-48 785.194,-48 793.546,-48"/>
<polygon fill="midnightblue" stroke="midnightblue" points="793.59,-51.5001 803.59,-48 793.59,-44.5001 793.59,-51.5001"/>
</g>
<!-- Node13 -->
<g id="node13" class="node"><title>Node13</title>
<g id="a_node13"><a xlink:href="classpdal_1_1Stage.html#a6c81d6fbbac17ebe4cd63806916cc750" target="_top" xlink:title="pdal::Stage::getName">
<polygon fill="white" stroke="black" points="508,-0.5 508,-19.5 620,-19.5 620,-0.5 508,-0.5"/>
<text text-anchor="middle" x="564" y="-7.5" font-family="Helvetica,sans-Serif" font-size="10.00">pdal::Stage::getName</text>
</a>
</g>
</g>
<!-- Node12&#45;&gt;Node13 -->
<g id="edge13" class="edge"><title>Node12&#45;&gt;Node13</title>
<path fill="none" stroke="midnightblue" d="M472.339,-10C480.676,-10 489.304,-10 497.773,-10"/>
<polygon fill="midnightblue" stroke="midnightblue" points="497.994,-13.5001 507.994,-10 497.994,-6.5001 497.994,-13.5001"/>
</g>
</g>
</svg>
