<?xml version="1.0" encoding="UTF-8" standalone="no"?>
<!DOCTYPE svg PUBLIC "-//W3C//DTD SVG 1.1//EN"
 "http://www.w3.org/Graphics/SVG/1.1/DTD/svg11.dtd">
<!-- Generated by graphviz version 2.38.0 (20140413.2041)
 -->
<!-- Title: pdal::geos::ErrorHandler::vaErrorCb Pages: 1 -->
<svg width="308pt" height="78pt"
 viewBox="0.00 0.00 308.00 77.50" xmlns="http://www.w3.org/2000/svg" xmlns:xlink="http://www.w3.org/1999/xlink">
<g id="graph0" class="graph" transform="scale(1 1) rotate(0) translate(4 73.5)">
<title>pdal::geos::ErrorHandler::vaErrorCb</title>
<polygon fill="white" stroke="none" points="-4,4 -4,-73.5 304,-73.5 304,4 -4,4"/>
<!-- Node1 -->
<g id="node1" class="node"><title>Node1</title>
<polygon fill="#bfbfbf" stroke="black" points="0,-22.5 0,-52.5 122,-52.5 122,-22.5 0,-22.5"/>
<text text-anchor="start" x="8" y="-40.5" font-family="Helvetica,sans-Serif" font-size="10.00">pdal::geos::ErrorHandler</text>
<text text-anchor="middle" x="61" y="-29.5" font-family="Helvetica,sans-Serif" font-size="10.00">::vaErrorCb</text>
</g>
<!-- Node2 -->
<g id="node2" class="node"><title>Node2</title>
<g id="a_node2"><a xlink:href="classpdal_1_1geos_1_1ErrorHandler.html#a62f183a3f404d605dc451c99d1e4636c" target="_top" xlink:title="pdal::geos::ErrorHandler::get">
<polygon fill="white" stroke="black" points="158,-50 158,-69 300,-69 300,-50 158,-50"/>
<text text-anchor="middle" x="229" y="-57" font-family="Helvetica,sans-Serif" font-size="10.00">pdal::geos::ErrorHandler::get</text>
</a>
</g>
</g>
<!-- Node1&#45;&gt;Node2 -->
<g id="edge1" class="edge"><title>Node1&#45;&gt;Node2</title>
<path fill="none" stroke="midnightblue" d="M122.399,-45.5047C130.661,-46.5997 139.247,-47.7376 147.793,-48.8701"/>
<polygon fill="midnightblue" stroke="midnightblue" points="147.412,-52.3502 157.785,-50.1944 148.332,-45.4109 147.412,-52.3502"/>
</g>
<!-- Node3 -->
<g id="node3" class="node"><title>Node3</title>
<g id="a_node3"><a xlink:href="classpdal_1_1geos_1_1ErrorHandler.html#a5863d0ea0a286587f0954df8faf08420" target="_top" xlink:title="pdal::geos::ErrorHandler\l::handle">
<polygon fill="white" stroke="black" points="168,-0.5 168,-30.5 290,-30.5 290,-0.5 168,-0.5"/>
<text text-anchor="start" x="176" y="-18.5" font-family="Helvetica,sans-Serif" font-size="10.00">pdal::geos::ErrorHandler</text>
<text text-anchor="middle" x="229" y="-7.5" font-family="Helvetica,sans-Serif" font-size="10.00">::handle</text>
</a>
</g>
</g>
<!-- Node1&#45;&gt;Node3 -->
<g id="edge2" class="edge"><title>Node1&#45;&gt;Node3</title>
<path fill="none" stroke="midnightblue" d="M122.399,-29.4953C133.871,-27.9749 145.967,-26.3719 157.714,-24.815"/>
<polygon fill="midnightblue" stroke="midnightblue" points="158.47,-28.2455 167.924,-23.4619 157.55,-21.3062 158.47,-28.2455"/>
</g>
</g>
</svg>
