<?xml version="1.0" encoding="UTF-8" standalone="no"?>
<!DOCTYPE svg PUBLIC "-//W3C//DTD SVG 1.1//EN"
 "http://www.w3.org/Graphics/SVG/1.1/DTD/svg11.dtd">
<!-- Generated by graphviz version 2.38.0 (20140413.2041)
 -->
<!-- Title: pdal::LasHeader::compressed Pages: 1 -->
<svg width="648pt" height="193pt"
 viewBox="0.00 0.00 648.00 192.50" xmlns="http://www.w3.org/2000/svg" xmlns:xlink="http://www.w3.org/1999/xlink">
<g id="graph0" class="graph" transform="scale(1 1) rotate(0) translate(4 188.5)">
<title>pdal::LasHeader::compressed</title>
<polygon fill="white" stroke="none" points="-4,4 -4,-188.5 644,-188.5 644,4 -4,4"/>
<!-- Node1 -->
<g id="node1" class="node"><title>Node1</title>
<polygon fill="#bfbfbf" stroke="black" points="0,-108 0,-127 147,-127 147,-108 0,-108"/>
<text text-anchor="middle" x="73.5" y="-115" font-family="Helvetica,sans-Serif" font-size="10.00">pdal::LasHeader::compressed</text>
</g>
<!-- Node2 -->
<g id="node2" class="node"><title>Node2</title>
<g id="a_node2"><a xlink:href="namespacepdal.html#ab0eb19c256a7de81752841ef0c83f9c2" target="_top" xlink:title="pdal::operator\&lt;\&lt;">
<polygon fill="white" stroke="black" points="207.5,-165 207.5,-184 295.5,-184 295.5,-165 207.5,-165"/>
<text text-anchor="middle" x="251.5" y="-172" font-family="Helvetica,sans-Serif" font-size="10.00">pdal::operator&lt;&lt;</text>
</a>
</g>
</g>
<!-- Node1&#45;&gt;Node2 -->
<g id="edge1" class="edge"><title>Node1&#45;&gt;Node2</title>
<path fill="none" stroke="midnightblue" d="M109.744,-130.471C130.879,-138.091 158.353,-147.723 183,-155.5 193.333,-158.76 204.64,-162.05 214.994,-164.955"/>
<polygon fill="midnightblue" stroke="midnightblue" points="110.811,-127.134 100.217,-127.016 108.425,-133.715 110.811,-127.134"/>
</g>
<!-- Node3 -->
<g id="node3" class="node"><title>Node3</title>
<g id="a_node3"><a xlink:href="classpdal_1_1LasWriter.html#a76f6b960b128ccdb8e3e8db69eff445b" target="_top" xlink:title="pdal::LasWriter::prepOutput">
<polygon fill="white" stroke="black" points="183,-127 183,-146 320,-146 320,-127 183,-127"/>
<text text-anchor="middle" x="251.5" y="-134" font-family="Helvetica,sans-Serif" font-size="10.00">pdal::LasWriter::prepOutput</text>
</a>
</g>
</g>
<!-- Node1&#45;&gt;Node3 -->
<g id="edge2" class="edge"><title>Node1&#45;&gt;Node3</title>
<path fill="none" stroke="midnightblue" d="M157.16,-126.424C165.772,-127.353 174.452,-128.29 182.869,-129.199"/>
<polygon fill="midnightblue" stroke="midnightblue" points="157.42,-122.931 147.102,-125.338 156.669,-129.891 157.42,-122.931"/>
</g>
<!-- Node6 -->
<g id="node6" class="node"><title>Node6</title>
<g id="a_node6"><a xlink:href="LasReaderTest_8cpp.html#abb7afe92c00ae82352167ef5a47190e0" target="_top" xlink:title="TEST">
<polygon fill="white" stroke="black" points="230.5,-89 230.5,-108 272.5,-108 272.5,-89 230.5,-89"/>
<text text-anchor="middle" x="251.5" y="-96" font-family="Helvetica,sans-Serif" font-size="10.00">TEST</text>
</a>
</g>
</g>
<!-- Node1&#45;&gt;Node6 -->
<g id="edge5" class="edge"><title>Node1&#45;&gt;Node6</title>
<path fill="none" stroke="midnightblue" d="M157.052,-108.588C184.197,-105.658 212.036,-102.652 230.184,-100.693"/>
<polygon fill="midnightblue" stroke="midnightblue" points="156.669,-105.109 147.102,-109.662 157.42,-112.069 156.669,-105.109"/>
</g>
<!-- Node7 -->
<g id="node7" class="node"><title>Node7</title>
<g id="a_node7"><a xlink:href="classpdal_1_1nitfwrap_1_1NitfWrap.html#ac2b599d635483308c618daef6655d1af" target="_top" xlink:title="pdal::nitfwrap::NitfWrap\l::verifyLas">
<polygon fill="white" stroke="black" points="191.5,-39.5 191.5,-69.5 311.5,-69.5 311.5,-39.5 191.5,-39.5"/>
<text text-anchor="start" x="199.5" y="-57.5" font-family="Helvetica,sans-Serif" font-size="10.00">pdal::nitfwrap::NitfWrap</text>
<text text-anchor="middle" x="251.5" y="-46.5" font-family="Helvetica,sans-Serif" font-size="10.00">::verifyLas</text>
</a>
</g>
</g>
<!-- Node1&#45;&gt;Node7 -->
<g id="edge6" class="edge"><title>Node1&#45;&gt;Node7</title>
<path fill="none" stroke="midnightblue" d="M110.769,-104.517C139.145,-94.36 178.647,-80.2201 208.414,-69.565"/>
<polygon fill="midnightblue" stroke="midnightblue" points="109.466,-101.266 101.231,-107.932 111.825,-107.857 109.466,-101.266"/>
</g>
<!-- Node4 -->
<g id="node4" class="node"><title>Node4</title>
<g id="a_node4"><a xlink:href="classpdal_1_1LasWriter.html#a4b0ad482eac655fb22cf29717c04c6b3" target="_top" xlink:title="pdal::LasWriter::readyFile">
<polygon fill="white" stroke="black" points="356,-156 356,-175 484,-175 484,-156 356,-156"/>
<text text-anchor="middle" x="420" y="-163" font-family="Helvetica,sans-Serif" font-size="10.00">pdal::LasWriter::readyFile</text>
</a>
</g>
</g>
<!-- Node3&#45;&gt;Node4 -->
<g id="edge3" class="edge"><title>Node3&#45;&gt;Node4</title>
<path fill="none" stroke="midnightblue" d="M317.51,-147.823C333.005,-150.522 349.387,-153.375 364.362,-155.983"/>
<polygon fill="midnightblue" stroke="midnightblue" points="317.932,-144.344 307.48,-146.076 316.731,-151.24 317.932,-144.344"/>
</g>
<!-- Node5 -->
<g id="node5" class="node"><title>Node5</title>
<g id="a_node5"><a xlink:href="classpdal_1_1NitfWriter.html#a34d932e82c5d6842ca515cc59281021e" target="_top" xlink:title="pdal::NitfWriter::readyFile">
<polygon fill="white" stroke="black" points="356,-118 356,-137 484,-137 484,-118 356,-118"/>
<text text-anchor="middle" x="420" y="-125" font-family="Helvetica,sans-Serif" font-size="10.00">pdal::NitfWriter::readyFile</text>
</a>
</g>
</g>
<!-- Node3&#45;&gt;Node5 -->
<g id="edge4" class="edge"><title>Node3&#45;&gt;Node5</title>
<path fill="none" stroke="midnightblue" d="M330.254,-132.297C338.848,-131.833 347.522,-131.364 355.905,-130.911"/>
<polygon fill="midnightblue" stroke="midnightblue" points="330.018,-128.805 320.222,-132.839 330.396,-135.794 330.018,-128.805"/>
</g>
<!-- Node8 -->
<g id="node8" class="node"><title>Node8</title>
<g id="a_node8"><a xlink:href="classpdal_1_1nitfwrap_1_1NitfWrap.html#a427c1cc359051aed8f90ec5ba317de89" target="_top" xlink:title="pdal::nitfwrap::NitfWrap\l::unwrap">
<polygon fill="white" stroke="black" points="360,-49.5 360,-79.5 480,-79.5 480,-49.5 360,-49.5"/>
<text text-anchor="start" x="368" y="-67.5" font-family="Helvetica,sans-Serif" font-size="10.00">pdal::nitfwrap::NitfWrap</text>
<text text-anchor="middle" x="420" y="-56.5" font-family="Helvetica,sans-Serif" font-size="10.00">::unwrap</text>
</a>
</g>
</g>
<!-- Node7&#45;&gt;Node8 -->
<g id="edge7" class="edge"><title>Node7&#45;&gt;Node8</title>
<path fill="none" stroke="midnightblue" d="M321.69,-58.6556C334.332,-59.4148 347.419,-60.2008 359.74,-60.9408"/>
<polygon fill="midnightblue" stroke="midnightblue" points="321.862,-55.1597 311.67,-58.0538 321.443,-62.1471 321.862,-55.1597"/>
</g>
<!-- Node10 -->
<g id="node10" class="node"><title>Node10</title>
<g id="a_node10"><a xlink:href="classpdal_1_1nitfwrap_1_1NitfWrap.html#aba62e4c086a16ff4d1a3b1c014dbbcc4" target="_top" xlink:title="pdal::nitfwrap::NitfWrap\l::verify">
<polygon fill="white" stroke="black" points="360,-0.5 360,-30.5 480,-30.5 480,-0.5 360,-0.5"/>
<text text-anchor="start" x="368" y="-18.5" font-family="Helvetica,sans-Serif" font-size="10.00">pdal::nitfwrap::NitfWrap</text>
<text text-anchor="middle" x="420" y="-7.5" font-family="Helvetica,sans-Serif" font-size="10.00">::verify</text>
</a>
</g>
</g>
<!-- Node7&#45;&gt;Node10 -->
<g id="edge9" class="edge"><title>Node7&#45;&gt;Node10</title>
<path fill="none" stroke="midnightblue" d="M321.69,-38.2933C334.332,-35.3322 347.419,-32.2667 359.74,-29.3808"/>
<polygon fill="midnightblue" stroke="midnightblue" points="320.609,-34.9518 311.67,-40.6402 322.205,-41.7673 320.609,-34.9518"/>
</g>
<!-- Node9 -->
<g id="node9" class="node"><title>Node9</title>
<g id="a_node9"><a xlink:href="classpdal_1_1nitfwrap_1_1NitfWrap.html#a507defc6c08af645c161ee875c58374a" target="_top" xlink:title="pdal::nitfwrap::NitfWrap\l::NitfWrap">
<polygon fill="white" stroke="black" points="520,-24.5 520,-54.5 640,-54.5 640,-24.5 520,-24.5"/>
<text text-anchor="start" x="528" y="-42.5" font-family="Helvetica,sans-Serif" font-size="10.00">pdal::nitfwrap::NitfWrap</text>
<text text-anchor="middle" x="580" y="-31.5" font-family="Helvetica,sans-Serif" font-size="10.00">::NitfWrap</text>
</a>
</g>
</g>
<!-- Node8&#45;&gt;Node9 -->
<g id="edge8" class="edge"><title>Node8&#45;&gt;Node9</title>
<path fill="none" stroke="midnightblue" d="M490.431,-53.5141C500.264,-51.9582 510.298,-50.3706 519.91,-48.8496"/>
<polygon fill="midnightblue" stroke="midnightblue" points="489.613,-50.0999 480.283,-55.1198 490.707,-57.0139 489.613,-50.0999"/>
</g>
<!-- Node10&#45;&gt;Node9 -->
<g id="edge10" class="edge"><title>Node10&#45;&gt;Node9</title>
<path fill="none" stroke="midnightblue" d="M490.431,-26.0465C500.264,-27.5401 510.298,-29.0642 519.91,-30.5244"/>
<polygon fill="midnightblue" stroke="midnightblue" points="490.695,-22.5465 480.283,-24.505 489.644,-29.4671 490.695,-22.5465"/>
</g>
</g>
</svg>
