<?xml version="1.0" encoding="UTF-8" standalone="no"?>
<!DOCTYPE svg PUBLIC "-//W3C//DTD SVG 1.1//EN"
 "http://www.w3.org/Graphics/SVG/1.1/DTD/svg11.dtd">
<!-- Generated by graphviz version 2.38.0 (20140413.2041)
 -->
<!-- Title: pdal::PipelineExecutor::getSchema Pages: 1 -->
<svg width="1501pt" height="615pt"
 viewBox="0.00 0.00 1501.00 615.18" xmlns="http://www.w3.org/2000/svg" xmlns:xlink="http://www.w3.org/1999/xlink">
<g id="graph0" class="graph" transform="scale(1 1) rotate(0) translate(4 611.184)">
<title>pdal::PipelineExecutor::getSchema</title>
<polygon fill="white" stroke="none" points="-4,4 -4,-611.184 1497,-611.184 1497,4 -4,4"/>
<!-- Node1 -->
<g id="node1" class="node"><title>Node1</title>
<polygon fill="#bfbfbf" stroke="black" points="0,-359.5 0,-389.5 114,-389.5 114,-359.5 0,-359.5"/>
<text text-anchor="start" x="8" y="-377.5" font-family="Helvetica,sans-Serif" font-size="10.00">pdal::PipelineExecutor</text>
<text text-anchor="middle" x="57" y="-366.5" font-family="Helvetica,sans-Serif" font-size="10.00">::getSchema</text>
</g>
<!-- Node2 -->
<g id="node2" class="node"><title>Node2</title>
<g id="a_node2"><a xlink:href="classpdal_1_1MetadataNode.html#af47954f1958aa8a9937eac6da614a073" target="_top" xlink:title="pdal::MetadataNode\l::clone">
<polygon fill="white" stroke="black" points="154.5,-539.5 154.5,-569.5 258.5,-569.5 258.5,-539.5 154.5,-539.5"/>
<text text-anchor="start" x="162.5" y="-557.5" font-family="Helvetica,sans-Serif" font-size="10.00">pdal::MetadataNode</text>
<text text-anchor="middle" x="206.5" y="-546.5" font-family="Helvetica,sans-Serif" font-size="10.00">::clone</text>
</a>
</g>
</g>
<!-- Node1&#45;&gt;Node2 -->
<g id="edge1" class="edge"><title>Node1&#45;&gt;Node2</title>
<path fill="none" stroke="midnightblue" d="M70.3221,-389.537C96.1345,-421.037 156.026,-494.125 186.683,-531.536"/>
<polygon fill="midnightblue" stroke="midnightblue" points="184.064,-533.863 193.109,-539.379 189.478,-529.426 184.064,-533.863"/>
</g>
<!-- Node4 -->
<g id="node4" class="node"><title>Node4</title>
<g id="a_node4"><a xlink:href="classpdal_1_1BasePointTable.html#a7e3a12a1f29e6cd10d8669ed3d07eb94" target="_top" xlink:title="pdal::BasePointTable\l::layout">
<polygon fill="white" stroke="black" points="151.5,-359.5 151.5,-389.5 261.5,-389.5 261.5,-359.5 151.5,-359.5"/>
<text text-anchor="start" x="159.5" y="-377.5" font-family="Helvetica,sans-Serif" font-size="10.00">pdal::BasePointTable</text>
<text text-anchor="middle" x="206.5" y="-366.5" font-family="Helvetica,sans-Serif" font-size="10.00">::layout</text>
</a>
</g>
</g>
<!-- Node1&#45;&gt;Node4 -->
<g id="edge3" class="edge"><title>Node1&#45;&gt;Node4</title>
<path fill="none" stroke="midnightblue" d="M114.184,-374.5C123.057,-374.5 132.29,-374.5 141.328,-374.5"/>
<polygon fill="midnightblue" stroke="midnightblue" points="141.419,-378 151.419,-374.5 141.419,-371 141.419,-378"/>
</g>
<!-- Node5 -->
<g id="node5" class="node"><title>Node5</title>
<g id="a_node5"><a xlink:href="classpdal_1_1PipelineManager.html#a3b8c6f20dda729e16c8b46b7a5ecb8f3" target="_top" xlink:title="pdal::PipelineManager\l::pointTable">
<polygon fill="white" stroke="black" points="150,-310.5 150,-340.5 263,-340.5 263,-310.5 150,-310.5"/>
<text text-anchor="start" x="158" y="-328.5" font-family="Helvetica,sans-Serif" font-size="10.00">pdal::PipelineManager</text>
<text text-anchor="middle" x="206.5" y="-317.5" font-family="Helvetica,sans-Serif" font-size="10.00">::pointTable</text>
</a>
</g>
</g>
<!-- Node1&#45;&gt;Node5 -->
<g id="edge4" class="edge"><title>Node1&#45;&gt;Node5</title>
<path fill="none" stroke="midnightblue" d="M103.458,-359.399C118.389,-354.438 135.144,-348.873 150.693,-343.707"/>
<polygon fill="midnightblue" stroke="midnightblue" points="151.805,-347.026 160.192,-340.552 149.598,-340.383 151.805,-347.026"/>
</g>
<!-- Node6 -->
<g id="node6" class="node"><title>Node6</title>
<g id="a_node6"><a xlink:href="namespacepdal_1_1Utils.html#ae34d4c6244b0915b7ff635d74c5315cc" target="_top" xlink:title="pdal::Utils::toJSON">
<polygon fill="white" stroke="black" points="155.5,-215 155.5,-234 257.5,-234 257.5,-215 155.5,-215"/>
<text text-anchor="middle" x="206.5" y="-222" font-family="Helvetica,sans-Serif" font-size="10.00">pdal::Utils::toJSON</text>
</a>
</g>
</g>
<!-- Node1&#45;&gt;Node6 -->
<g id="edge5" class="edge"><title>Node1&#45;&gt;Node6</title>
<path fill="none" stroke="midnightblue" d="M72.9548,-359.292C100.67,-331.106 159.823,-270.951 188.801,-241.482"/>
<polygon fill="midnightblue" stroke="midnightblue" points="191.608,-243.62 196.124,-234.035 186.617,-238.712 191.608,-243.62"/>
</g>
<!-- Node19 -->
<g id="node19" class="node"><title>Node19</title>
<g id="a_node19"><a xlink:href="classpdal_1_1PointLayout.html#a677fc6bf9b31cdbb8d64f57d7e796140" target="_top" xlink:title="pdal::PointLayout::\ltoMetadata">
<polygon fill="white" stroke="black" points="157.5,-408.5 157.5,-438.5 255.5,-438.5 255.5,-408.5 157.5,-408.5"/>
<text text-anchor="start" x="165.5" y="-426.5" font-family="Helvetica,sans-Serif" font-size="10.00">pdal::PointLayout::</text>
<text text-anchor="middle" x="206.5" y="-415.5" font-family="Helvetica,sans-Serif" font-size="10.00">toMetadata</text>
</a>
</g>
</g>
<!-- Node1&#45;&gt;Node19 -->
<g id="edge24" class="edge"><title>Node1&#45;&gt;Node19</title>
<path fill="none" stroke="midnightblue" d="M103.458,-389.601C118.389,-394.562 135.144,-400.127 150.693,-405.293"/>
<polygon fill="midnightblue" stroke="midnightblue" points="149.598,-408.617 160.192,-408.448 151.805,-401.974 149.598,-408.617"/>
</g>
<!-- Node3 -->
<g id="node3" class="node"><title>Node3</title>
<g id="a_node3"><a xlink:href="namespacepdal_1_1Dimension.html#af3176b0b7e6b4be000317846cf7c2718" target="_top" xlink:title="pdal::Dimension::name">
<polygon fill="white" stroke="black" points="493,-543 493,-562 610,-562 610,-543 493,-543"/>
<text text-anchor="middle" x="551.5" y="-550" font-family="Helvetica,sans-Serif" font-size="10.00">pdal::Dimension::name</text>
</a>
</g>
</g>
<!-- Node2&#45;&gt;Node3 -->
<g id="edge2" class="edge"><title>Node2&#45;&gt;Node3</title>
<path fill="none" stroke="midnightblue" d="M231.256,-569.596C249.113,-580.008 274.596,-592.937 299,-598.5 354.466,-611.143 371.013,-608.588 427,-598.5 460.992,-592.375 497.84,-577.478 522.355,-566.284"/>
<polygon fill="midnightblue" stroke="midnightblue" points="523.847,-569.45 531.43,-562.051 520.888,-563.106 523.847,-569.45"/>
</g>
<!-- Node7 -->
<g id="node7" class="node"><title>Node7</title>
<g id="a_node7"><a xlink:href="namespacepdal_1_1Utils.html#a90c7b124d5407ee4d7120e4c42b40b02" target="_top" xlink:title="pdal::Utils::toJSON">
<polygon fill="white" stroke="black" points="312,-138 312,-157 414,-157 414,-138 312,-138"/>
<text text-anchor="middle" x="363" y="-145" font-family="Helvetica,sans-Serif" font-size="10.00">pdal::Utils::toJSON</text>
</a>
</g>
</g>
<!-- Node6&#45;&gt;Node7 -->
<g id="edge6" class="edge"><title>Node6&#45;&gt;Node7</title>
<path fill="none" stroke="midnightblue" d="M226.755,-214.904C253.586,-201.532 302.413,-177.197 333.476,-161.716"/>
<polygon fill="midnightblue" stroke="midnightblue" points="335.113,-164.81 342.502,-157.217 331.991,-158.545 335.113,-164.81"/>
</g>
<!-- Node8 -->
<g id="node8" class="node"><title>Node8</title>
<g id="a_node8"><a xlink:href="classpdal_1_1MetadataNode.html#a645aadd856fb1a4ae4a12247fda3e618" target="_top" xlink:title="pdal::MetadataNode\l::name">
<polygon fill="white" stroke="black" points="702.5,-235.5 702.5,-265.5 806.5,-265.5 806.5,-235.5 702.5,-235.5"/>
<text text-anchor="start" x="710.5" y="-253.5" font-family="Helvetica,sans-Serif" font-size="10.00">pdal::MetadataNode</text>
<text text-anchor="middle" x="754.5" y="-242.5" font-family="Helvetica,sans-Serif" font-size="10.00">::name</text>
</a>
</g>
</g>
<!-- Node7&#45;&gt;Node8 -->
<g id="edge7" class="edge"><title>Node7&#45;&gt;Node8</title>
<path fill="none" stroke="midnightblue" d="M379.877,-157.081C398.957,-168.181 432.253,-186.253 463,-196.5 539.943,-222.143 632.65,-236.709 692.302,-244.099"/>
<polygon fill="midnightblue" stroke="midnightblue" points="691.965,-247.584 702.313,-245.31 692.806,-240.634 691.965,-247.584"/>
</g>
<!-- Node9 -->
<g id="node9" class="node"><title>Node9</title>
<g id="a_node9"><a xlink:href="namespacepdal_1_1anonymous__namespace_02PDALUtils_8cpp_03.html#a9836ab34bb1a9ec78acdf0da8134082d" target="_top" xlink:title="pdal::anonymous_namespace\l\{PDALUtils::cpp\}::subnodesToJSON">
<polygon fill="white" stroke="black" points="463,-132.5 463,-162.5 640,-162.5 640,-132.5 463,-132.5"/>
<text text-anchor="start" x="471" y="-150.5" font-family="Helvetica,sans-Serif" font-size="10.00">pdal::anonymous_namespace</text>
<text text-anchor="middle" x="551.5" y="-139.5" font-family="Helvetica,sans-Serif" font-size="10.00">{PDALUtils::cpp}::subnodesToJSON</text>
</a>
</g>
</g>
<!-- Node7&#45;&gt;Node9 -->
<g id="edge8" class="edge"><title>Node7&#45;&gt;Node9</title>
<path fill="none" stroke="midnightblue" d="M414.47,-141.426C426.419,-141.02 439.564,-140.797 452.829,-140.757"/>
<polygon fill="midnightblue" stroke="midnightblue" points="452.977,-144.257 462.979,-140.761 452.98,-137.257 452.977,-144.257"/>
</g>
<!-- Node11 -->
<g id="node11" class="node"><title>Node11</title>
<g id="a_node11"><a xlink:href="classpdal_1_1MetadataNode.html#ab86b0ccbf27f9eee29cbb5252e9431b7" target="_top" xlink:title="pdal::MetadataNode\l::children">
<polygon fill="white" stroke="black" points="702.5,-186.5 702.5,-216.5 806.5,-216.5 806.5,-186.5 702.5,-186.5"/>
<text text-anchor="start" x="710.5" y="-204.5" font-family="Helvetica,sans-Serif" font-size="10.00">pdal::MetadataNode</text>
<text text-anchor="middle" x="754.5" y="-193.5" font-family="Helvetica,sans-Serif" font-size="10.00">::children</text>
</a>
</g>
</g>
<!-- Node7&#45;&gt;Node11 -->
<g id="edge23" class="edge"><title>Node7&#45;&gt;Node11</title>
<path fill="none" stroke="midnightblue" d="M398.581,-157.097C417.485,-162.035 441.388,-167.782 463,-171.5 541.485,-185.002 633.018,-193.229 692.043,-197.571"/>
<polygon fill="midnightblue" stroke="midnightblue" points="692.087,-201.084 702.313,-198.312 692.591,-194.102 692.087,-201.084"/>
</g>
<!-- Node12 -->
<g id="node12" class="node"><title>Node12</title>
<g id="a_node12"><a xlink:href="classpdal_1_1MetadataNode.html#a66863365a08eb3ee538ebeb4ce788a39" target="_top" xlink:title="pdal::MetadataNode\l::kind">
<polygon fill="white" stroke="black" points="702.5,-49.5 702.5,-79.5 806.5,-79.5 806.5,-49.5 702.5,-49.5"/>
<text text-anchor="start" x="710.5" y="-67.5" font-family="Helvetica,sans-Serif" font-size="10.00">pdal::MetadataNode</text>
<text text-anchor="middle" x="754.5" y="-56.5" font-family="Helvetica,sans-Serif" font-size="10.00">::kind</text>
</a>
</g>
</g>
<!-- Node7&#45;&gt;Node12 -->
<g id="edge21" class="edge"><title>Node7&#45;&gt;Node12</title>
<path fill="none" stroke="midnightblue" d="M400.102,-137.919C418.816,-133.071 442.078,-127.227 463,-122.5 541.957,-104.66 633.636,-86.8328 692.547,-75.7459"/>
<polygon fill="midnightblue" stroke="midnightblue" points="693.25,-79.1751 702.433,-73.8908 691.959,-72.2952 693.25,-79.1751"/>
</g>
<!-- Node13 -->
<g id="node13" class="node"><title>Node13</title>
<g id="a_node13"><a xlink:href="namespacepdal_1_1anonymous__namespace_02PDALUtils_8cpp_03.html#a24e6b833ca779a04307fb80c249cdf19" target="_top" xlink:title="pdal::anonymous_namespace\l\{PDALUtils::cpp\}::arrayToJSON">
<polygon fill="white" stroke="black" points="676,-0.5 676,-30.5 833,-30.5 833,-0.5 676,-0.5"/>
<text text-anchor="start" x="684" y="-18.5" font-family="Helvetica,sans-Serif" font-size="10.00">pdal::anonymous_namespace</text>
<text text-anchor="middle" x="754.5" y="-7.5" font-family="Helvetica,sans-Serif" font-size="10.00">{PDALUtils::cpp}::arrayToJSON</text>
</a>
</g>
</g>
<!-- Node7&#45;&gt;Node13 -->
<g id="edge22" class="edge"><title>Node7&#45;&gt;Node13</title>
<path fill="none" stroke="midnightblue" d="M375.734,-137.97C393.535,-123.984 428.908,-97.9908 463,-83.5 528.229,-55.7747 606.722,-38.2606 665.665,-27.963"/>
<polygon fill="midnightblue" stroke="midnightblue" points="666.425,-31.3838 675.692,-26.2476 665.245,-24.484 666.425,-31.3838"/>
</g>
<!-- Node9&#45;&gt;Node7 -->
<g id="edge20" class="edge"><title>Node9&#45;&gt;Node7</title>
<path fill="none" stroke="midnightblue" d="M462.979,-154.239C449.982,-154.29 436.837,-154.166 424.558,-153.867"/>
<polygon fill="midnightblue" stroke="midnightblue" points="424.567,-150.366 414.47,-153.574 424.364,-157.363 424.567,-150.366"/>
</g>
<!-- Node9&#45;&gt;Node8 -->
<g id="edge12" class="edge"><title>Node9&#45;&gt;Node8</title>
<path fill="none" stroke="midnightblue" d="M572.993,-162.719C596.774,-179.826 637.642,-207.55 676,-225.5 681.332,-227.995 686.98,-230.34 692.7,-232.517"/>
<polygon fill="midnightblue" stroke="midnightblue" points="691.757,-235.899 702.351,-236.021 694.146,-229.319 691.757,-235.899"/>
</g>
<!-- Node10 -->
<g id="node10" class="node"><title>Node10</title>
<g id="a_node10"><a xlink:href="classpdal_1_1MetadataNode.html#ae9794860b91201dce86f162799d902b1" target="_top" xlink:title="pdal::MetadataNode\l::childNames">
<polygon fill="white" stroke="black" points="702.5,-98.5 702.5,-128.5 806.5,-128.5 806.5,-98.5 702.5,-98.5"/>
<text text-anchor="start" x="710.5" y="-116.5" font-family="Helvetica,sans-Serif" font-size="10.00">pdal::MetadataNode</text>
<text text-anchor="middle" x="754.5" y="-105.5" font-family="Helvetica,sans-Serif" font-size="10.00">::childNames</text>
</a>
</g>
</g>
<!-- Node9&#45;&gt;Node10 -->
<g id="edge9" class="edge"><title>Node9&#45;&gt;Node10</title>
<path fill="none" stroke="midnightblue" d="M640.077,-132.686C657.686,-129.707 675.834,-126.638 692.308,-123.851"/>
<polygon fill="midnightblue" stroke="midnightblue" points="693.054,-127.274 702.33,-122.156 691.887,-120.373 693.054,-127.274"/>
</g>
<!-- Node9&#45;&gt;Node11 -->
<g id="edge10" class="edge"><title>Node9&#45;&gt;Node11</title>
<path fill="none" stroke="midnightblue" d="M608.49,-162.542C634.549,-169.543 665.612,-177.888 692.291,-185.056"/>
<polygon fill="midnightblue" stroke="midnightblue" points="691.716,-188.525 702.282,-187.74 693.532,-181.765 691.716,-188.525"/>
</g>
<!-- Node9&#45;&gt;Node12 -->
<g id="edge11" class="edge"><title>Node9&#45;&gt;Node12</title>
<path fill="none" stroke="midnightblue" d="M580.922,-132.464C605.623,-119.753 642.586,-101.575 676,-88.5 681.378,-86.3956 687.021,-84.3496 692.707,-82.3974"/>
<polygon fill="midnightblue" stroke="midnightblue" points="693.896,-85.6903 702.275,-79.2066 691.682,-79.0497 693.896,-85.6903"/>
</g>
<!-- Node9&#45;&gt;Node13 -->
<g id="edge13" class="edge"><title>Node9&#45;&gt;Node13</title>
<path fill="none" stroke="midnightblue" d="M565.799,-132.364C586.939,-109.185 630.495,-64.9196 676,-39.5 679.201,-37.7119 682.552,-36.0393 685.99,-34.4772"/>
<polygon fill="midnightblue" stroke="midnightblue" points="687.38,-37.6899 695.25,-30.5968 684.674,-31.2339 687.38,-37.6899"/>
</g>
<!-- Node14 -->
<g id="node14" class="node"><title>Node14</title>
<g id="a_node14"><a xlink:href="namespacepdal_1_1anonymous__namespace_02PDALUtils_8cpp_03.html#ac00099447614a63b2acd68d05ee3a5c1" target="_top" xlink:title="pdal::anonymous_namespace\l\{PDALUtils::cpp\}::arrayEltToJSON">
<polygon fill="white" stroke="black" points="869,-71.5 869,-101.5 1038,-101.5 1038,-71.5 869,-71.5"/>
<text text-anchor="start" x="877" y="-89.5" font-family="Helvetica,sans-Serif" font-size="10.00">pdal::anonymous_namespace</text>
<text text-anchor="middle" x="953.5" y="-78.5" font-family="Helvetica,sans-Serif" font-size="10.00">{PDALUtils::cpp}::arrayEltToJSON</text>
</a>
</g>
</g>
<!-- Node13&#45;&gt;Node14 -->
<g id="edge14" class="edge"><title>Node13&#45;&gt;Node14</title>
<path fill="none" stroke="midnightblue" d="M806.122,-30.581C815.113,-33.4288 824.361,-36.4682 833,-39.5 857.646,-48.1493 884.763,-58.7262 906.927,-67.6545"/>
<polygon fill="midnightblue" stroke="midnightblue" points="905.834,-70.9882 916.417,-71.4983 908.462,-64.5002 905.834,-70.9882"/>
</g>
<!-- Node14&#45;&gt;Node9 -->
<g id="edge19" class="edge"><title>Node14&#45;&gt;Node9</title>
<path fill="none" stroke="midnightblue" d="M924.988,-101.701C901.375,-113.889 866.024,-130.132 833,-137.5 773.352,-150.807 704.825,-153.476 650.435,-152.736"/>
<polygon fill="midnightblue" stroke="midnightblue" points="650.162,-149.231 640.101,-152.553 650.038,-156.23 650.162,-149.231"/>
</g>
<!-- Node15 -->
<g id="node15" class="node"><title>Node15</title>
<g id="a_node15"><a xlink:href="classpdal_1_1MetadataNode.html#ac936d257e7eaa30e130ad9de526b2087" target="_top" xlink:title="pdal::MetadataNode\l::jsonValue">
<polygon fill="white" stroke="black" points="1078,-47.5 1078,-77.5 1182,-77.5 1182,-47.5 1078,-47.5"/>
<text text-anchor="start" x="1086" y="-65.5" font-family="Helvetica,sans-Serif" font-size="10.00">pdal::MetadataNode</text>
<text text-anchor="middle" x="1130" y="-54.5" font-family="Helvetica,sans-Serif" font-size="10.00">::jsonValue</text>
</a>
</g>
</g>
<!-- Node14&#45;&gt;Node15 -->
<g id="edge15" class="edge"><title>Node14&#45;&gt;Node15</title>
<path fill="none" stroke="midnightblue" d="M1038.17,-74.9921C1048.06,-73.6315 1058.02,-72.2625 1067.52,-70.9552"/>
<polygon fill="midnightblue" stroke="midnightblue" points="1068.21,-74.3941 1077.64,-69.5642 1067.25,-67.4594 1068.21,-74.3941"/>
</g>
<!-- Node18 -->
<g id="node18" class="node"><title>Node18</title>
<g id="a_node18"><a xlink:href="classpdal_1_1MetadataNode.html#ada667c2ca1eab9957ae5c7a98fea5d02" target="_top" xlink:title="pdal::MetadataNode\l::hasChildren">
<polygon fill="white" stroke="black" points="1078,-96.5 1078,-126.5 1182,-126.5 1182,-96.5 1078,-96.5"/>
<text text-anchor="start" x="1086" y="-114.5" font-family="Helvetica,sans-Serif" font-size="10.00">pdal::MetadataNode</text>
<text text-anchor="middle" x="1130" y="-103.5" font-family="Helvetica,sans-Serif" font-size="10.00">::hasChildren</text>
</a>
</g>
</g>
<!-- Node14&#45;&gt;Node18 -->
<g id="edge18" class="edge"><title>Node14&#45;&gt;Node18</title>
<path fill="none" stroke="midnightblue" d="M1038.17,-98.4874C1048.06,-99.9047 1058.02,-101.331 1067.52,-102.692"/>
<polygon fill="midnightblue" stroke="midnightblue" points="1067.24,-106.188 1077.64,-104.142 1068.24,-99.2586 1067.24,-106.188"/>
</g>
<!-- Node16 -->
<g id="node16" class="node"><title>Node16</title>
<g id="a_node16"><a xlink:href="namespacepdal_1_1Utils.html#aabcd6b5abf9f2cd30b485fc100656663" target="_top" xlink:title="pdal::Utils::escapeJSON">
<polygon fill="white" stroke="black" points="1222,-53 1222,-72 1347,-72 1347,-53 1222,-53"/>
<text text-anchor="middle" x="1284.5" y="-60" font-family="Helvetica,sans-Serif" font-size="10.00">pdal::Utils::escapeJSON</text>
</a>
</g>
</g>
<!-- Node15&#45;&gt;Node16 -->
<g id="edge16" class="edge"><title>Node15&#45;&gt;Node16</title>
<path fill="none" stroke="midnightblue" d="M1182.2,-62.5C1191.64,-62.5 1201.66,-62.5 1211.58,-62.5"/>
<polygon fill="midnightblue" stroke="midnightblue" points="1211.85,-66.0001 1221.85,-62.5 1211.85,-59.0001 1211.85,-66.0001"/>
</g>
<!-- Node17 -->
<g id="node17" class="node"><title>Node17</title>
<g id="a_node17"><a xlink:href="namespacepdal_1_1Utils.html#ac6b599972dcd3fe440ef5c476961081a" target="_top" xlink:title="pdal::Utils::remove_if">
<polygon fill="white" stroke="black" points="1383,-53 1383,-72 1493,-72 1493,-53 1383,-53"/>
<text text-anchor="middle" x="1438" y="-60" font-family="Helvetica,sans-Serif" font-size="10.00">pdal::Utils::remove_if</text>
</a>
</g>
</g>
<!-- Node16&#45;&gt;Node17 -->
<g id="edge17" class="edge"><title>Node16&#45;&gt;Node17</title>
<path fill="none" stroke="midnightblue" d="M1347.12,-62.5C1355.51,-62.5 1364.13,-62.5 1372.57,-62.5"/>
<polygon fill="midnightblue" stroke="midnightblue" points="1372.73,-66.0001 1382.73,-62.5 1372.73,-59.0001 1372.73,-66.0001"/>
</g>
<!-- Node20 -->
<g id="node20" class="node"><title>Node20</title>
<g id="a_node20"><a xlink:href="classpdal_1_1PointLayout.html#afd6b92bf6e8fc83993db132b1ed980e2" target="_top" xlink:title="pdal::PointLayout::dims">
<polygon fill="white" stroke="black" points="303.5,-433 303.5,-452 422.5,-452 422.5,-433 303.5,-433"/>
<text text-anchor="middle" x="363" y="-440" font-family="Helvetica,sans-Serif" font-size="10.00">pdal::PointLayout::dims</text>
</a>
</g>
</g>
<!-- Node19&#45;&gt;Node20 -->
<g id="edge25" class="edge"><title>Node19&#45;&gt;Node20</title>
<path fill="none" stroke="midnightblue" d="M255.538,-429.408C267.49,-430.877 280.537,-432.482 293.27,-434.048"/>
<polygon fill="midnightblue" stroke="midnightblue" points="293.036,-437.545 303.389,-435.292 293.891,-430.598 293.036,-437.545"/>
</g>
<!-- Node21 -->
<g id="node21" class="node"><title>Node21</title>
<g id="a_node21"><a xlink:href="classpdal_1_1MetadataNode.html#af2c1c5d91f6ab47a804aa8a0a1b043c2" target="_top" xlink:title="pdal::MetadataNode::add">
<polygon fill="white" stroke="black" points="300,-395 300,-414 426,-414 426,-395 300,-395"/>
<text text-anchor="middle" x="363" y="-402" font-family="Helvetica,sans-Serif" font-size="10.00">pdal::MetadataNode::add</text>
</a>
</g>
</g>
<!-- Node19&#45;&gt;Node21 -->
<g id="edge26" class="edge"><title>Node19&#45;&gt;Node21</title>
<path fill="none" stroke="midnightblue" d="M255.538,-417.592C266.363,-416.261 278.085,-414.82 289.66,-413.396"/>
<polygon fill="midnightblue" stroke="midnightblue" points="290.27,-416.848 299.768,-412.153 289.415,-409.9 290.27,-416.848"/>
</g>
<!-- Node22 -->
<g id="node22" class="node"><title>Node22</title>
<g id="a_node22"><a xlink:href="classpdal_1_1PointLayout.html#aa3902ee8869ff33139401a6900ae088c" target="_top" xlink:title="pdal::PointLayout::\ldimName">
<polygon fill="white" stroke="black" points="314,-471.5 314,-501.5 412,-501.5 412,-471.5 314,-471.5"/>
<text text-anchor="start" x="322" y="-489.5" font-family="Helvetica,sans-Serif" font-size="10.00">pdal::PointLayout::</text>
<text text-anchor="middle" x="363" y="-478.5" font-family="Helvetica,sans-Serif" font-size="10.00">dimName</text>
</a>
</g>
</g>
<!-- Node19&#45;&gt;Node22 -->
<g id="edge27" class="edge"><title>Node19&#45;&gt;Node22</title>
<path fill="none" stroke="midnightblue" d="M243.516,-438.612C260.346,-445.634 280.672,-454.058 299,-461.5 303.85,-463.469 308.917,-465.509 313.978,-467.535"/>
<polygon fill="midnightblue" stroke="midnightblue" points="313.063,-470.938 323.648,-471.393 315.657,-464.437 313.063,-470.938"/>
</g>
<!-- Node23 -->
<g id="node23" class="node"><title>Node23</title>
<g id="a_node23"><a xlink:href="classpdal_1_1PointLayout.html#adaef1dfccc620aa7f7f2a57ea2c19d6d" target="_top" xlink:title="pdal::PointLayout::\ldimType">
<polygon fill="white" stroke="black" points="314,-296.5 314,-326.5 412,-326.5 412,-296.5 314,-296.5"/>
<text text-anchor="start" x="322" y="-314.5" font-family="Helvetica,sans-Serif" font-size="10.00">pdal::PointLayout::</text>
<text text-anchor="middle" x="363" y="-303.5" font-family="Helvetica,sans-Serif" font-size="10.00">dimType</text>
</a>
</g>
</g>
<!-- Node19&#45;&gt;Node23 -->
<g id="edge29" class="edge"><title>Node19&#45;&gt;Node23</title>
<path fill="none" stroke="midnightblue" d="M249.028,-408.375C254.046,-405.544 258.854,-402.266 263,-398.5 286.87,-376.816 274.498,-356.468 299,-335.5 300.945,-333.835 303.018,-332.28 305.183,-330.827"/>
<polygon fill="midnightblue" stroke="midnightblue" points="307.046,-333.792 313.908,-325.72 303.51,-327.751 307.046,-333.792"/>
</g>
<!-- Node29 -->
<g id="node29" class="node"><title>Node29</title>
<g id="a_node29"><a xlink:href="namespacepdal_1_1Dimension.html#ab617d7d6d8a56b6711d9e8aa645ba161" target="_top" xlink:title="pdal::Dimension::toName">
<polygon fill="white" stroke="black" points="299,-570 299,-589 427,-589 427,-570 299,-570"/>
<text text-anchor="middle" x="363" y="-577" font-family="Helvetica,sans-Serif" font-size="10.00">pdal::Dimension::toName</text>
</a>
</g>
</g>
<!-- Node19&#45;&gt;Node29 -->
<g id="edge35" class="edge"><title>Node19&#45;&gt;Node29</title>
<path fill="none" stroke="midnightblue" d="M213.522,-438.778C225.466,-467.097 254.869,-527.818 299,-560.5 301.616,-562.438 304.431,-564.179 307.368,-565.745"/>
<polygon fill="midnightblue" stroke="midnightblue" points="305.918,-568.93 316.465,-569.932 308.844,-562.571 305.918,-568.93"/>
</g>
<!-- Node30 -->
<g id="node30" class="node"><title>Node30</title>
<g id="a_node30"><a xlink:href="namespacepdal_1_1Dimension.html#ab9491687b8700d1db27e0aba1fcd7143" target="_top" xlink:title="pdal::Dimension::base">
<polygon fill="white" stroke="black" points="494.5,-258 494.5,-277 608.5,-277 608.5,-258 494.5,-258"/>
<text text-anchor="middle" x="551.5" y="-265" font-family="Helvetica,sans-Serif" font-size="10.00">pdal::Dimension::base</text>
</a>
</g>
</g>
<!-- Node19&#45;&gt;Node30 -->
<g id="edge36" class="edge"><title>Node19&#45;&gt;Node30</title>
<path fill="none" stroke="midnightblue" d="M250.91,-408.471C255.387,-405.66 259.55,-402.361 263,-398.5 297.84,-359.513 257.939,-318.87 299,-286.5 355.975,-241.584 444.55,-246.85 499.955,-256.155"/>
<polygon fill="midnightblue" stroke="midnightblue" points="499.44,-259.619 509.899,-257.929 500.669,-252.727 499.44,-259.619"/>
</g>
<!-- Node31 -->
<g id="node31" class="node"><title>Node31</title>
<g id="a_node31"><a xlink:href="classpdal_1_1PointLayout.html#ac2fa83b59ea49e234822cd432e71455d" target="_top" xlink:title="pdal::PointLayout::\ldimSize">
<polygon fill="white" stroke="black" points="314,-345.5 314,-375.5 412,-375.5 412,-345.5 314,-345.5"/>
<text text-anchor="start" x="322" y="-363.5" font-family="Helvetica,sans-Serif" font-size="10.00">pdal::PointLayout::</text>
<text text-anchor="middle" x="363" y="-352.5" font-family="Helvetica,sans-Serif" font-size="10.00">dimSize</text>
</a>
</g>
</g>
<!-- Node19&#45;&gt;Node31 -->
<g id="edge38" class="edge"><title>Node19&#45;&gt;Node31</title>
<path fill="none" stroke="midnightblue" d="M243.516,-408.388C260.346,-401.366 280.672,-392.942 299,-385.5 303.85,-383.531 308.917,-381.491 313.978,-379.465"/>
<polygon fill="midnightblue" stroke="midnightblue" points="315.657,-382.563 323.648,-375.607 313.063,-376.062 315.657,-382.563"/>
</g>
<!-- Node34 -->
<g id="node34" class="node"><title>Node34</title>
<g id="a_node34"><a xlink:href="classpdal_1_1MetadataNode.html#af9242fea26778fb33e939d38f0dd0dd4" target="_top" xlink:title="pdal::MetadataNode\l::addList">
<polygon fill="white" stroke="black" points="311,-520.5 311,-550.5 415,-550.5 415,-520.5 311,-520.5"/>
<text text-anchor="start" x="319" y="-538.5" font-family="Helvetica,sans-Serif" font-size="10.00">pdal::MetadataNode</text>
<text text-anchor="middle" x="363" y="-527.5" font-family="Helvetica,sans-Serif" font-size="10.00">::addList</text>
</a>
</g>
</g>
<!-- Node19&#45;&gt;Node34 -->
<g id="edge43" class="edge"><title>Node19&#45;&gt;Node34</title>
<path fill="none" stroke="midnightblue" d="M219.962,-438.816C236.331,-458.076 266.795,-491.087 299,-511.5 301.456,-513.057 304.029,-514.537 306.672,-515.942"/>
<polygon fill="midnightblue" stroke="midnightblue" points="305.344,-519.188 315.866,-520.425 308.412,-512.896 305.344,-519.188"/>
</g>
<!-- Node22&#45;&gt;Node3 -->
<g id="edge28" class="edge"><title>Node22&#45;&gt;Node3</title>
<path fill="none" stroke="midnightblue" d="M406.787,-501.642C439.198,-513.112 483.248,-528.7 514.005,-539.585"/>
<polygon fill="midnightblue" stroke="midnightblue" points="512.897,-542.905 523.492,-542.942 515.232,-536.306 512.897,-542.905"/>
</g>
<!-- Node24 -->
<g id="node24" class="node"><title>Node24</title>
<g id="a_node24"><a xlink:href="classpdal_1_1PointLayout.html#abcfdf0f917e71d1bd8a96bc64ff1e8a2" target="_top" xlink:title="pdal::PointLayout::\ldimDetail">
<polygon fill="white" stroke="black" points="502.5,-345.5 502.5,-375.5 600.5,-375.5 600.5,-345.5 502.5,-345.5"/>
<text text-anchor="start" x="510.5" y="-363.5" font-family="Helvetica,sans-Serif" font-size="10.00">pdal::PointLayout::</text>
<text text-anchor="middle" x="551.5" y="-352.5" font-family="Helvetica,sans-Serif" font-size="10.00">dimDetail</text>
</a>
</g>
</g>
<!-- Node23&#45;&gt;Node24 -->
<g id="edge30" class="edge"><title>Node23&#45;&gt;Node24</title>
<path fill="none" stroke="midnightblue" d="M412.028,-324.119C436.624,-330.581 466.757,-338.498 492.625,-345.294"/>
<polygon fill="midnightblue" stroke="midnightblue" points="491.749,-348.683 502.311,-347.839 493.528,-341.913 491.749,-348.683"/>
</g>
<!-- Node28 -->
<g id="node28" class="node"><title>Node28</title>
<g id="a_node28"><a xlink:href="classpdal_1_1Dimension_1_1Detail.html#adf5961976b7fce3d90a0dddd50519a7c" target="_top" xlink:title="pdal::Dimension::Detail\l::type">
<polygon fill="white" stroke="black" points="492,-296.5 492,-326.5 611,-326.5 611,-296.5 492,-296.5"/>
<text text-anchor="start" x="500" y="-314.5" font-family="Helvetica,sans-Serif" font-size="10.00">pdal::Dimension::Detail</text>
<text text-anchor="middle" x="551.5" y="-303.5" font-family="Helvetica,sans-Serif" font-size="10.00">::type</text>
</a>
</g>
</g>
<!-- Node23&#45;&gt;Node28 -->
<g id="edge34" class="edge"><title>Node23&#45;&gt;Node28</title>
<path fill="none" stroke="midnightblue" d="M412.028,-311.5C433.276,-311.5 458.656,-311.5 481.849,-311.5"/>
<polygon fill="midnightblue" stroke="midnightblue" points="481.982,-315 491.982,-311.5 481.982,-308 481.982,-315"/>
</g>
<!-- Node25 -->
<g id="node25" class="node"><title>Node25</title>
<g id="a_node25"><a xlink:href="namespacepdal_1_1Utils.html#a59253304d0f929e3a3ea00f09636002f" target="_top" xlink:title="pdal::Utils::toNative">
<polygon fill="white" stroke="black" points="901.5,-351 901.5,-370 1005.5,-370 1005.5,-351 901.5,-351"/>
<text text-anchor="middle" x="953.5" y="-358" font-family="Helvetica,sans-Serif" font-size="10.00">pdal::Utils::toNative</text>
</a>
</g>
</g>
<!-- Node24&#45;&gt;Node25 -->
<g id="edge31" class="edge"><title>Node24&#45;&gt;Node25</title>
<path fill="none" stroke="midnightblue" d="M600.749,-360.5C673.433,-360.5 810.983,-360.5 890.842,-360.5"/>
<polygon fill="midnightblue" stroke="midnightblue" points="891.239,-364 901.239,-360.5 891.239,-357 891.239,-364"/>
</g>
<!-- Node26 -->
<g id="node26" class="node"><title>Node26</title>
<g id="a_node26"><a xlink:href="namespacepdal_1_1Dimension.html#a880d689fed54aa3ded6f88c9e058c5d2" target="_top" xlink:title="pdal::Dimension::type">
<polygon fill="white" stroke="black" points="1074,-351 1074,-370 1186,-370 1186,-351 1074,-351"/>
<text text-anchor="middle" x="1130" y="-358" font-family="Helvetica,sans-Serif" font-size="10.00">pdal::Dimension::type</text>
</a>
</g>
</g>
<!-- Node25&#45;&gt;Node26 -->
<g id="edge32" class="edge"><title>Node25&#45;&gt;Node26</title>
<path fill="none" stroke="midnightblue" d="M1005.91,-360.5C1023.98,-360.5 1044.53,-360.5 1063.59,-360.5"/>
<polygon fill="midnightblue" stroke="midnightblue" points="1063.7,-364 1073.7,-360.5 1063.7,-357 1063.7,-364"/>
</g>
<!-- Node27 -->
<g id="node27" class="node"><title>Node27</title>
<g id="a_node27"><a xlink:href="namespacepdal_1_1Utils.html#a5268937cf695835e55392f752dc02cb2" target="_top" xlink:title="pdal::Utils::tolower">
<polygon fill="white" stroke="black" points="1235.5,-351 1235.5,-370 1333.5,-370 1333.5,-351 1235.5,-351"/>
<text text-anchor="middle" x="1284.5" y="-358" font-family="Helvetica,sans-Serif" font-size="10.00">pdal::Utils::tolower</text>
</a>
</g>
</g>
<!-- Node26&#45;&gt;Node27 -->
<g id="edge33" class="edge"><title>Node26&#45;&gt;Node27</title>
<path fill="none" stroke="midnightblue" d="M1186.06,-360.5C1198.71,-360.5 1212.21,-360.5 1225.01,-360.5"/>
<polygon fill="midnightblue" stroke="midnightblue" points="1225.09,-364 1235.09,-360.5 1225.09,-357 1225.09,-364"/>
</g>
<!-- Node30&#45;&gt;Node25 -->
<g id="edge37" class="edge"><title>Node30&#45;&gt;Node25</title>
<path fill="none" stroke="midnightblue" d="M597.049,-277.005C610.83,-279.991 626.053,-283.335 640,-286.5 733.222,-307.657 841.749,-333.668 903.264,-348.541"/>
<polygon fill="midnightblue" stroke="midnightblue" points="902.547,-351.968 913.09,-350.918 904.194,-345.164 902.547,-351.968"/>
</g>
<!-- Node31&#45;&gt;Node24 -->
<g id="edge39" class="edge"><title>Node31&#45;&gt;Node24</title>
<path fill="none" stroke="midnightblue" d="M412.028,-360.5C436.515,-360.5 466.491,-360.5 492.283,-360.5"/>
<polygon fill="midnightblue" stroke="midnightblue" points="492.311,-364 502.311,-360.5 492.311,-357 492.311,-364"/>
</g>
<!-- Node32 -->
<g id="node32" class="node"><title>Node32</title>
<g id="a_node32"><a xlink:href="classpdal_1_1Dimension_1_1Detail.html#a320806a1cc878b5fdb10e178f27a4c61" target="_top" xlink:title="pdal::Dimension::Detail\l::size">
<polygon fill="white" stroke="black" points="492,-394.5 492,-424.5 611,-424.5 611,-394.5 492,-394.5"/>
<text text-anchor="start" x="500" y="-412.5" font-family="Helvetica,sans-Serif" font-size="10.00">pdal::Dimension::Detail</text>
<text text-anchor="middle" x="551.5" y="-401.5" font-family="Helvetica,sans-Serif" font-size="10.00">::size</text>
</a>
</g>
</g>
<!-- Node31&#45;&gt;Node32 -->
<g id="edge40" class="edge"><title>Node31&#45;&gt;Node32</title>
<path fill="none" stroke="midnightblue" d="M412.028,-373.119C433.749,-378.825 459.788,-385.667 483.395,-391.869"/>
<polygon fill="midnightblue" stroke="midnightblue" points="482.783,-395.327 493.344,-394.483 484.562,-388.557 482.783,-395.327"/>
</g>
<!-- Node33 -->
<g id="node33" class="node"><title>Node33</title>
<g id="a_node33"><a xlink:href="namespacepdal_1_1Dimension.html#acf81dae9d5946f3a941f9df154b2329b" target="_top" xlink:title="pdal::Dimension::size">
<polygon fill="white" stroke="black" points="699,-394 699,-413 810,-413 810,-394 699,-394"/>
<text text-anchor="middle" x="754.5" y="-401" font-family="Helvetica,sans-Serif" font-size="10.00">pdal::Dimension::size</text>
</a>
</g>
</g>
<!-- Node32&#45;&gt;Node33 -->
<g id="edge41" class="edge"><title>Node32&#45;&gt;Node33</title>
<path fill="none" stroke="midnightblue" d="M611.178,-407.748C635.518,-407.022 663.842,-406.176 688.784,-405.432"/>
<polygon fill="midnightblue" stroke="midnightblue" points="688.991,-408.927 698.882,-405.13 688.782,-401.93 688.991,-408.927"/>
</g>
<!-- Node33&#45;&gt;Node25 -->
<g id="edge42" class="edge"><title>Node33&#45;&gt;Node25</title>
<path fill="none" stroke="midnightblue" d="M799.221,-393.957C828.679,-387.527 867.722,-379.005 899.03,-372.171"/>
<polygon fill="midnightblue" stroke="midnightblue" points="899.878,-375.569 908.902,-370.016 898.385,-368.73 899.878,-375.569"/>
</g>
</g>
</svg>
