<?xml version="1.0" encoding="UTF-8" standalone="no"?>
<!DOCTYPE svg PUBLIC "-//W3C//DTD SVG 1.1//EN"
 "http://www.w3.org/Graphics/SVG/1.1/DTD/svg11.dtd">
<!-- Generated by graphviz version 2.38.0 (20140413.2041)
 -->
<!-- Title: pdal::SQLiteReader Pages: 1 -->
<svg width="385pt" height="297pt"
 viewBox="0.00 0.00 385.00 297.00" xmlns="http://www.w3.org/2000/svg" xmlns:xlink="http://www.w3.org/1999/xlink">
<g id="graph0" class="graph" transform="scale(1 1) rotate(0) translate(4 293)">
<title>pdal::SQLiteReader</title>
<polygon fill="white" stroke="none" points="-4,4 -4,-293 381,-293 381,4 -4,4"/>
<!-- Node1 -->
<g id="node1" class="node"><title>Node1</title>
<polygon fill="#bfbfbf" stroke="black" points="0,-0.5 0,-19.5 102,-19.5 102,-0.5 0,-0.5"/>
<text text-anchor="middle" x="51" y="-7.5" font-family="Helvetica,sans-Serif" font-size="10.00">pdal::SQLiteReader</text>
</g>
<!-- Node2 -->
<g id="node2" class="node"><title>Node2</title>
<g id="a_node2"><a xlink:href="classpdal_1_1DbReader.html" target="_top" xlink:title="pdal::DbReader">
<polygon fill="white" stroke="black" points="96.5,-57.5 96.5,-76.5 181.5,-76.5 181.5,-57.5 96.5,-57.5"/>
<text text-anchor="middle" x="139" y="-64.5" font-family="Helvetica,sans-Serif" font-size="10.00">pdal::DbReader</text>
</a>
</g>
</g>
<!-- Node2&#45;&gt;Node1 -->
<g id="edge1" class="edge"><title>Node2&#45;&gt;Node1</title>
<path fill="none" stroke="midnightblue" d="M116.319,-51.8244C99.968,-41.605 78.4373,-28.1483 64.6534,-19.5334"/>
<polygon fill="midnightblue" stroke="midnightblue" points="114.915,-55.0742 125.25,-57.4062 118.625,-49.1382 114.915,-55.0742"/>
</g>
<!-- Node3 -->
<g id="node3" class="node"><title>Node3</title>
<g id="a_node3"><a xlink:href="classpdal_1_1Reader.html" target="_top" xlink:title="pdal::Reader">
<polygon fill="white" stroke="black" points="203,-124.5 203,-143.5 275,-143.5 275,-124.5 203,-124.5"/>
<text text-anchor="middle" x="239" y="-131.5" font-family="Helvetica,sans-Serif" font-size="10.00">pdal::Reader</text>
</a>
</g>
</g>
<!-- Node3&#45;&gt;Node2 -->
<g id="edge2" class="edge"><title>Node3&#45;&gt;Node2</title>
<path fill="none" stroke="midnightblue" d="M219.172,-118.063C209.354,-110.854 197.226,-102.223 186,-95 175.87,-88.4825 164.12,-81.7325 154.903,-76.6119"/>
<polygon fill="midnightblue" stroke="midnightblue" points="217.33,-121.054 227.447,-124.203 221.502,-115.433 217.33,-121.054"/>
</g>
<!-- Node4 -->
<g id="node4" class="node"><title>Node4</title>
<g id="a_node4"><a xlink:href="classpdal_1_1Stage.html" target="_top" xlink:title="pdal::Stage">
<polygon fill="white" stroke="black" points="205,-202.5 205,-221.5 271,-221.5 271,-202.5 205,-202.5"/>
<text text-anchor="middle" x="238" y="-209.5" font-family="Helvetica,sans-Serif" font-size="10.00">pdal::Stage</text>
</a>
</g>
</g>
<!-- Node4&#45;&gt;Node3 -->
<g id="edge3" class="edge"><title>Node4&#45;&gt;Node3</title>
<path fill="none" stroke="midnightblue" d="M238.247,-192.224C238.451,-176.697 238.732,-155.358 238.887,-143.616"/>
<polygon fill="midnightblue" stroke="midnightblue" points="234.747,-192.237 238.115,-202.282 241.746,-192.329 234.747,-192.237"/>
</g>
<!-- Node5 -->
<g id="node5" class="node"><title>Node5</title>
<g id="a_node5"><a xlink:href="classpdal_1_1MetadataNode.html" target="_top" xlink:title="pdal::MetadataNode">
<polygon fill="white" stroke="black" points="273,-269.5 273,-288.5 377,-288.5 377,-269.5 273,-269.5"/>
<text text-anchor="middle" x="325" y="-276.5" font-family="Helvetica,sans-Serif" font-size="10.00">pdal::MetadataNode</text>
</a>
</g>
</g>
<!-- Node5&#45;&gt;Node4 -->
<g id="edge4" class="edge"><title>Node5&#45;&gt;Node4</title>
<path fill="none" stroke="#9a32cd" stroke-dasharray="5,2" d="M308.992,-262.163C301.411,-255.023 292.05,-246.709 283,-240 273.778,-233.163 262.733,-226.516 253.893,-221.527"/>
<polygon fill="#9a32cd" stroke="#9a32cd" points="306.791,-264.901 316.422,-269.317 311.646,-259.859 306.791,-264.901"/>
<text text-anchor="middle" x="326" y="-243" font-family="Helvetica,sans-Serif" font-size="10.00"> m_metadata</text>
</g>
<!-- Node6 -->
<g id="node6" class="node"><title>Node6</title>
<g id="a_node6"><a xlink:href="classpdal_1_1SpatialReference.html" target="_top" xlink:title="pdal::SpatialReference">
<polygon fill="white" stroke="black" points="11,-269.5 11,-288.5 127,-288.5 127,-269.5 11,-269.5"/>
<text text-anchor="middle" x="69" y="-276.5" font-family="Helvetica,sans-Serif" font-size="10.00">pdal::SpatialReference</text>
</a>
</g>
</g>
<!-- Node6&#45;&gt;Node1 -->
<g id="edge9" class="edge"><title>Node6&#45;&gt;Node1</title>
<path fill="none" stroke="#9a32cd" stroke-dasharray="5,2" d="M46.0286,-263.325C30.9484,-251.722 14,-234.007 14,-213 14,-213 14,-213 14,-66 14,-46.8964 29.5574,-29.4419 40.4963,-19.5303"/>
<polygon fill="#9a32cd" stroke="#9a32cd" points="44.382,-266.451 54.5494,-269.43 48.4588,-260.761 44.382,-266.451"/>
<text text-anchor="middle" x="44.5" y="-131.5" font-family="Helvetica,sans-Serif" font-size="10.00"> m_spatialRef</text>
</g>
<!-- Node6&#45;&gt;Node4 -->
<g id="edge5" class="edge"><title>Node6&#45;&gt;Node4</title>
<path fill="none" stroke="#9a32cd" stroke-dasharray="5,2" d="M89.3277,-263.638C101.289,-255.734 116.975,-246.283 132,-240 145.053,-234.542 178.82,-226.291 204.767,-220.347"/>
<polygon fill="#9a32cd" stroke="#9a32cd" points="87.2888,-260.792 80.9793,-269.303 91.2193,-266.584 87.2888,-260.792"/>
<text text-anchor="middle" x="177.5" y="-243" font-family="Helvetica,sans-Serif" font-size="10.00"> m_spatialReference</text>
</g>
<!-- Node7 -->
<g id="node7" class="node"><title>Node7</title>
<g id="a_node7"><a xlink:href="classpdal_1_1Options.html" target="_top" xlink:title="pdal::Options">
<polygon fill="white" stroke="black" points="181,-269.5 181,-288.5 255,-288.5 255,-269.5 181,-269.5"/>
<text text-anchor="middle" x="218" y="-276.5" font-family="Helvetica,sans-Serif" font-size="10.00">pdal::Options</text>
</a>
</g>
</g>
<!-- Node7&#45;&gt;Node4 -->
<g id="edge6" class="edge"><title>Node7&#45;&gt;Node4</title>
<path fill="none" stroke="#9a32cd" stroke-dasharray="5,2" d="M223.719,-259.415C227.542,-246.988 232.395,-231.217 235.345,-221.627"/>
<polygon fill="#9a32cd" stroke="#9a32cd" points="220.293,-258.647 220.697,-269.234 226.983,-260.705 220.293,-258.647"/>
<text text-anchor="middle" x="254.5" y="-243" font-family="Helvetica,sans-Serif" font-size="10.00"> m_options</text>
</g>
<!-- Node8 -->
<g id="node8" class="node"><title>Node8</title>
<g id="a_node8"><a xlink:href="classpdal_1_1Arg.html" target="_top" xlink:title="pdal::Arg">
<polygon fill="white" stroke="black" points="130,-202.5 130,-221.5 186,-221.5 186,-202.5 130,-202.5"/>
<text text-anchor="middle" x="158" y="-209.5" font-family="Helvetica,sans-Serif" font-size="10.00">pdal::Arg</text>
</a>
</g>
</g>
<!-- Node8&#45;&gt;Node3 -->
<g id="edge7" class="edge"><title>Node8&#45;&gt;Node3</title>
<path fill="none" stroke="#9a32cd" stroke-dasharray="5,2" d="M158.102,-192.114C159.094,-182.122 161.883,-170.25 169,-162 177.678,-151.94 190.553,-145.61 202.904,-141.635"/>
<polygon fill="#9a32cd" stroke="#9a32cd" points="154.597,-192.146 157.612,-202.303 161.589,-192.483 154.597,-192.146"/>
<text text-anchor="middle" x="202" y="-176" font-family="Helvetica,sans-Serif" font-size="10.00"> m_countArg</text>
<text text-anchor="middle" x="202" y="-165" font-family="Helvetica,sans-Serif" font-size="10.00">m_filenameArg</text>
</g>
<!-- Node9 -->
<g id="node9" class="node"><title>Node9</title>
<g id="a_node9"><a xlink:href="classpdal_1_1PointLayout.html" target="_top" xlink:title="pdal::PointLayout">
<polygon fill="white" stroke="black" points="93,-124.5 93,-143.5 185,-143.5 185,-124.5 93,-124.5"/>
<text text-anchor="middle" x="139" y="-131.5" font-family="Helvetica,sans-Serif" font-size="10.00">pdal::PointLayout</text>
</a>
</g>
</g>
<!-- Node9&#45;&gt;Node2 -->
<g id="edge8" class="edge"><title>Node9&#45;&gt;Node2</title>
<path fill="none" stroke="#9a32cd" stroke-dasharray="5,2" d="M139,-114.037C139,-101.67 139,-86.1198 139,-76.6273"/>
<polygon fill="#9a32cd" stroke="#9a32cd" points="135.5,-114.234 139,-124.234 142.5,-114.234 135.5,-114.234"/>
<text text-anchor="middle" x="160.5" y="-98" font-family="Helvetica,sans-Serif" font-size="10.00"> m_layout</text>
</g>
</g>
</svg>
