<?xml version="1.0" encoding="UTF-8" standalone="no"?>
<!DOCTYPE svg PUBLIC "-//W3C//DTD SVG 1.1//EN"
 "http://www.w3.org/Graphics/SVG/1.1/DTD/svg11.dtd">
<!-- Generated by graphviz version 2.38.0 (20140413.2041)
 -->
<!-- Title: pdal::MatlabWriter::done Pages: 1 -->
<svg width="414pt" height="116pt"
 viewBox="0.00 0.00 414.00 115.50" xmlns="http://www.w3.org/2000/svg" xmlns:xlink="http://www.w3.org/1999/xlink">
<g id="graph0" class="graph" transform="scale(1 1) rotate(0) translate(4 111.5)">
<title>pdal::MatlabWriter::done</title>
<polygon fill="white" stroke="none" points="-4,4 -4,-111.5 410,-111.5 410,4 -4,4"/>
<!-- Node1 -->
<g id="node1" class="node"><title>Node1</title>
<polygon fill="#bfbfbf" stroke="black" points="0,-33 0,-63 96,-63 96,-33 0,-33"/>
<text text-anchor="start" x="8" y="-51" font-family="Helvetica,sans-Serif" font-size="10.00">pdal::MatlabWriter</text>
<text text-anchor="middle" x="48" y="-40" font-family="Helvetica,sans-Serif" font-size="10.00">::done</text>
</g>
<!-- Node2 -->
<g id="node2" class="node"><title>Node2</title>
<g id="a_node2"><a xlink:href="classpdal_1_1MetadataNode.html#af9242fea26778fb33e939d38f0dd0dd4" target="_top" xlink:title="pdal::MetadataNode\l::addList">
<polygon fill="white" stroke="black" points="143,-77 143,-107 247,-107 247,-77 143,-77"/>
<text text-anchor="start" x="151" y="-95" font-family="Helvetica,sans-Serif" font-size="10.00">pdal::MetadataNode</text>
<text text-anchor="middle" x="195" y="-84" font-family="Helvetica,sans-Serif" font-size="10.00">::addList</text>
</a>
</g>
</g>
<!-- Node1&#45;&gt;Node2 -->
<g id="edge1" class="edge"><title>Node1&#45;&gt;Node2</title>
<path fill="none" stroke="midnightblue" d="M96.0773,-62.2855C108.4,-66.0248 121.845,-70.1045 134.714,-74.0098"/>
<polygon fill="midnightblue" stroke="midnightblue" points="133.83,-77.399 144.415,-76.9536 135.863,-70.7006 133.83,-77.399"/>
</g>
<!-- Node3 -->
<g id="node3" class="node"><title>Node3</title>
<g id="a_node3"><a xlink:href="classpdal_1_1Stage.html#a03070b4d2496f6c0993fb0dfe16cc8e0" target="_top" xlink:title="pdal::Stage::getMetadata">
<polygon fill="white" stroke="black" points="132,-38.5 132,-57.5 258,-57.5 258,-38.5 132,-38.5"/>
<text text-anchor="middle" x="195" y="-45.5" font-family="Helvetica,sans-Serif" font-size="10.00">pdal::Stage::getMetadata</text>
</a>
</g>
</g>
<!-- Node1&#45;&gt;Node3 -->
<g id="edge2" class="edge"><title>Node1&#45;&gt;Node3</title>
<path fill="none" stroke="midnightblue" d="M96.0773,-48C104.28,-48 112.979,-48 121.675,-48"/>
<polygon fill="midnightblue" stroke="midnightblue" points="121.851,-51.5001 131.851,-48 121.851,-44.5001 121.851,-51.5001"/>
</g>
<!-- Node4 -->
<g id="node4" class="node"><title>Node4</title>
<g id="a_node4"><a xlink:href="classpdal_1_1Stage.html#abdbd1176da12dfd882d931a43290797f" target="_top" xlink:title="pdal::Stage::throwError">
<polygon fill="white" stroke="black" points="136.5,-0.5 136.5,-19.5 253.5,-19.5 253.5,-0.5 136.5,-0.5"/>
<text text-anchor="middle" x="195" y="-7.5" font-family="Helvetica,sans-Serif" font-size="10.00">pdal::Stage::throwError</text>
</a>
</g>
</g>
<!-- Node1&#45;&gt;Node4 -->
<g id="edge3" class="edge"><title>Node1&#45;&gt;Node4</title>
<path fill="none" stroke="midnightblue" d="M96.0773,-35.6625C112.65,-31.3194 131.251,-26.4445 147.754,-22.1196"/>
<polygon fill="midnightblue" stroke="midnightblue" points="148.936,-25.4282 157.722,-19.5074 147.161,-18.6569 148.936,-25.4282"/>
</g>
<!-- Node5 -->
<g id="node5" class="node"><title>Node5</title>
<g id="a_node5"><a xlink:href="classpdal_1_1Stage.html#a6c81d6fbbac17ebe4cd63806916cc750" target="_top" xlink:title="pdal::Stage::getName">
<polygon fill="white" stroke="black" points="294,-0.5 294,-19.5 406,-19.5 406,-0.5 294,-0.5"/>
<text text-anchor="middle" x="350" y="-7.5" font-family="Helvetica,sans-Serif" font-size="10.00">pdal::Stage::getName</text>
</a>
</g>
</g>
<!-- Node4&#45;&gt;Node5 -->
<g id="edge4" class="edge"><title>Node4&#45;&gt;Node5</title>
<path fill="none" stroke="midnightblue" d="M253.843,-10C263.578,-10 273.742,-10 283.651,-10"/>
<polygon fill="midnightblue" stroke="midnightblue" points="283.856,-13.5001 293.856,-10 283.856,-6.5001 283.856,-13.5001"/>
</g>
</g>
</svg>
