<?xml version="1.0" encoding="UTF-8" standalone="no"?>
<!DOCTYPE svg PUBLIC "-//W3C//DTD SVG 1.1//EN"
 "http://www.w3.org/Graphics/SVG/1.1/DTD/svg11.dtd">
<!-- Generated by graphviz version 2.38.0 (20140413.2041)
 -->
<!-- Title: pdal::TerrasolidReader::initialize Pages: 1 -->
<svg width="846pt" height="142pt"
 viewBox="0.00 0.00 846.00 142.00" xmlns="http://www.w3.org/2000/svg" xmlns:xlink="http://www.w3.org/1999/xlink">
<g id="graph0" class="graph" transform="scale(1 1) rotate(0) translate(4 138)">
<title>pdal::TerrasolidReader::initialize</title>
<polygon fill="white" stroke="none" points="-4,4 -4,-138 842,-138 842,4 -4,4"/>
<!-- Node1 -->
<g id="node1" class="node"><title>Node1</title>
<polygon fill="#bfbfbf" stroke="black" points="0,-52 0,-82 115,-82 115,-52 0,-52"/>
<text text-anchor="start" x="8" y="-70" font-family="Helvetica,sans-Serif" font-size="10.00">pdal::TerrasolidReader</text>
<text text-anchor="middle" x="57.5" y="-59" font-family="Helvetica,sans-Serif" font-size="10.00">::initialize</text>
</g>
<!-- Node2 -->
<g id="node2" class="node"><title>Node2</title>
<g id="a_node2"><a xlink:href="classpdal_1_1IStream.html#a1868ec9fd091d4af1281c2181315521a" target="_top" xlink:title="pdal::IStream::get">
<polygon fill="white" stroke="black" points="162,-114.5 162,-133.5 257,-133.5 257,-114.5 162,-114.5"/>
<text text-anchor="middle" x="209.5" y="-121.5" font-family="Helvetica,sans-Serif" font-size="10.00">pdal::IStream::get</text>
</a>
</g>
</g>
<!-- Node1&#45;&gt;Node2 -->
<g id="edge1" class="edge"><title>Node1&#45;&gt;Node2</title>
<path fill="none" stroke="midnightblue" d="M93.4099,-82.0233C110.633,-89.2603 131.787,-97.8894 151,-105 156.622,-107.081 162.591,-109.177 168.475,-111.179"/>
<polygon fill="midnightblue" stroke="midnightblue" points="167.626,-114.585 178.22,-114.439 169.847,-107.947 167.626,-114.585"/>
</g>
<!-- Node7 -->
<g id="node7" class="node"><title>Node7</title>
<g id="a_node7"><a xlink:href="classpdal_1_1Stage.html#ae8c29817e14d7cda53fdcbb23102d872" target="_top" xlink:title="pdal::Stage::log">
<polygon fill="white" stroke="black" points="167,-76.5 167,-95.5 252,-95.5 252,-76.5 167,-76.5"/>
<text text-anchor="middle" x="209.5" y="-83.5" font-family="Helvetica,sans-Serif" font-size="10.00">pdal::Stage::log</text>
</a>
</g>
</g>
<!-- Node1&#45;&gt;Node7 -->
<g id="edge6" class="edge"><title>Node1&#45;&gt;Node7</title>
<path fill="none" stroke="midnightblue" d="M115.209,-74.1831C128.828,-75.9082 143.304,-77.7418 156.687,-79.437"/>
<polygon fill="midnightblue" stroke="midnightblue" points="156.316,-82.9179 166.676,-80.7023 157.195,-75.9733 156.316,-82.9179"/>
</g>
<!-- Node8 -->
<g id="node8" class="node"><title>Node8</title>
<g id="a_node8"><a xlink:href="classpdal_1_1Stage.html#abdbd1176da12dfd882d931a43290797f" target="_top" xlink:title="pdal::Stage::throwError">
<polygon fill="white" stroke="black" points="151,-38.5 151,-57.5 268,-57.5 268,-38.5 151,-38.5"/>
<text text-anchor="middle" x="209.5" y="-45.5" font-family="Helvetica,sans-Serif" font-size="10.00">pdal::Stage::throwError</text>
</a>
</g>
</g>
<!-- Node1&#45;&gt;Node8 -->
<g id="edge7" class="edge"><title>Node1&#45;&gt;Node8</title>
<path fill="none" stroke="midnightblue" d="M115.209,-59.8169C123.557,-58.7595 132.227,-57.6612 140.77,-56.5791"/>
<polygon fill="midnightblue" stroke="midnightblue" points="141.233,-60.0485 150.714,-55.3196 140.353,-53.104 141.233,-60.0485"/>
</g>
<!-- Node10 -->
<g id="node10" class="node"><title>Node10</title>
<g id="a_node10"><a xlink:href="namespacepdal_1_1Utils.html#a19dbb0a5ce84b6f60fea55cd54e674cf" target="_top" xlink:title="pdal::Utils::toString">
<polygon fill="white" stroke="black" points="159,-0.5 159,-19.5 260,-19.5 260,-0.5 159,-0.5"/>
<text text-anchor="middle" x="209.5" y="-7.5" font-family="Helvetica,sans-Serif" font-size="10.00">pdal::Utils::toString</text>
</a>
</g>
</g>
<!-- Node1&#45;&gt;Node10 -->
<g id="edge9" class="edge"><title>Node1&#45;&gt;Node10</title>
<path fill="none" stroke="midnightblue" d="M93.4099,-51.9767C110.633,-44.7397 131.787,-36.1106 151,-29 156.622,-26.9194 162.591,-24.8232 168.475,-22.8214"/>
<polygon fill="midnightblue" stroke="midnightblue" points="169.847,-26.0532 178.22,-19.5612 167.626,-19.4149 169.847,-26.0532"/>
</g>
<!-- Node3 -->
<g id="node3" class="node"><title>Node3</title>
<g id="a_node3"><a xlink:href="namespacepdal_1_1Dimension.html#acf81dae9d5946f3a941f9df154b2329b" target="_top" xlink:title="pdal::Dimension::size">
<polygon fill="white" stroke="black" points="304.5,-114.5 304.5,-133.5 415.5,-133.5 415.5,-114.5 304.5,-114.5"/>
<text text-anchor="middle" x="360" y="-121.5" font-family="Helvetica,sans-Serif" font-size="10.00">pdal::Dimension::size</text>
</a>
</g>
</g>
<!-- Node2&#45;&gt;Node3 -->
<g id="edge2" class="edge"><title>Node2&#45;&gt;Node3</title>
<path fill="none" stroke="midnightblue" d="M257.079,-124C268.774,-124 281.539,-124 293.955,-124"/>
<polygon fill="midnightblue" stroke="midnightblue" points="294.271,-127.5 304.271,-124 294.271,-120.5 294.271,-127.5"/>
</g>
<!-- Node4 -->
<g id="node4" class="node"><title>Node4</title>
<g id="a_node4"><a xlink:href="namespacepdal_1_1Utils.html#a59253304d0f929e3a3ea00f09636002f" target="_top" xlink:title="pdal::Utils::toNative">
<polygon fill="white" stroke="black" points="452,-114.5 452,-133.5 556,-133.5 556,-114.5 452,-114.5"/>
<text text-anchor="middle" x="504" y="-121.5" font-family="Helvetica,sans-Serif" font-size="10.00">pdal::Utils::toNative</text>
</a>
</g>
</g>
<!-- Node3&#45;&gt;Node4 -->
<g id="edge3" class="edge"><title>Node3&#45;&gt;Node4</title>
<path fill="none" stroke="midnightblue" d="M415.901,-124C424.427,-124 433.281,-124 441.933,-124"/>
<polygon fill="midnightblue" stroke="midnightblue" points="441.967,-127.5 451.967,-124 441.967,-120.5 441.967,-127.5"/>
</g>
<!-- Node5 -->
<g id="node5" class="node"><title>Node5</title>
<g id="a_node5"><a xlink:href="namespacepdal_1_1Dimension.html#a880d689fed54aa3ded6f88c9e058c5d2" target="_top" xlink:title="pdal::Dimension::type">
<polygon fill="white" stroke="black" points="592,-114.5 592,-133.5 704,-133.5 704,-114.5 592,-114.5"/>
<text text-anchor="middle" x="648" y="-121.5" font-family="Helvetica,sans-Serif" font-size="10.00">pdal::Dimension::type</text>
</a>
</g>
</g>
<!-- Node4&#45;&gt;Node5 -->
<g id="edge4" class="edge"><title>Node4&#45;&gt;Node5</title>
<path fill="none" stroke="midnightblue" d="M556.265,-124C564.602,-124 573.332,-124 581.946,-124"/>
<polygon fill="midnightblue" stroke="midnightblue" points="581.972,-127.5 591.972,-124 581.972,-120.5 581.972,-127.5"/>
</g>
<!-- Node6 -->
<g id="node6" class="node"><title>Node6</title>
<g id="a_node6"><a xlink:href="namespacepdal_1_1Utils.html#a5268937cf695835e55392f752dc02cb2" target="_top" xlink:title="pdal::Utils::tolower">
<polygon fill="white" stroke="black" points="740,-114.5 740,-133.5 838,-133.5 838,-114.5 740,-114.5"/>
<text text-anchor="middle" x="789" y="-121.5" font-family="Helvetica,sans-Serif" font-size="10.00">pdal::Utils::tolower</text>
</a>
</g>
</g>
<!-- Node5&#45;&gt;Node6 -->
<g id="edge5" class="edge"><title>Node5&#45;&gt;Node6</title>
<path fill="none" stroke="midnightblue" d="M704.336,-124C712.625,-124 721.194,-124 729.546,-124"/>
<polygon fill="midnightblue" stroke="midnightblue" points="729.59,-127.5 739.59,-124 729.59,-120.5 729.59,-127.5"/>
</g>
<!-- Node9 -->
<g id="node9" class="node"><title>Node9</title>
<g id="a_node9"><a xlink:href="classpdal_1_1Stage.html#a6c81d6fbbac17ebe4cd63806916cc750" target="_top" xlink:title="pdal::Stage::getName">
<polygon fill="white" stroke="black" points="304,-38.5 304,-57.5 416,-57.5 416,-38.5 304,-38.5"/>
<text text-anchor="middle" x="360" y="-45.5" font-family="Helvetica,sans-Serif" font-size="10.00">pdal::Stage::getName</text>
</a>
</g>
</g>
<!-- Node8&#45;&gt;Node9 -->
<g id="edge8" class="edge"><title>Node8&#45;&gt;Node9</title>
<path fill="none" stroke="midnightblue" d="M268.339,-48C276.676,-48 285.304,-48 293.773,-48"/>
<polygon fill="midnightblue" stroke="midnightblue" points="293.994,-51.5001 303.994,-48 293.994,-44.5001 293.994,-51.5001"/>
</g>
</g>
</svg>
