<?xml version="1.0" encoding="UTF-8" standalone="no"?>
<!DOCTYPE svg PUBLIC "-//W3C//DTD SVG 1.1//EN"
 "http://www.w3.org/Graphics/SVG/1.1/DTD/svg11.dtd">
<!-- Generated by graphviz version 2.38.0 (20140413.2041)
 -->
<!-- Title: pdal::entwine::Bounds::grow Pages: 1 -->
<svg width="608pt" height="66pt"
 viewBox="0.00 0.00 608.00 66.00" xmlns="http://www.w3.org/2000/svg" xmlns:xlink="http://www.w3.org/1999/xlink">
<g id="graph0" class="graph" transform="scale(1 1) rotate(0) translate(4 62)">
<title>pdal::entwine::Bounds::grow</title>
<polygon fill="white" stroke="none" points="-4,4 -4,-62 604,-62 604,4 -4,4"/>
<!-- Node1 -->
<g id="node1" class="node"><title>Node1</title>
<polygon fill="#bfbfbf" stroke="black" points="0,-14 0,-44 113,-44 113,-14 0,-14"/>
<text text-anchor="start" x="8" y="-32" font-family="Helvetica,sans-Serif" font-size="10.00">pdal::entwine::Bounds</text>
<text text-anchor="middle" x="56.5" y="-21" font-family="Helvetica,sans-Serif" font-size="10.00">::grow</text>
</g>
<!-- Node2 -->
<g id="node2" class="node"><title>Node2</title>
<g id="a_node2"><a xlink:href="classpdal_1_1entwine_1_1Bounds.html#abba3dd337b171b5b24b309c184778e6f" target="_top" xlink:title="pdal::entwine::Bounds\l::setMid">
<polygon fill="white" stroke="black" points="149,-14 149,-44 262,-44 262,-14 149,-14"/>
<text text-anchor="start" x="157" y="-32" font-family="Helvetica,sans-Serif" font-size="10.00">pdal::entwine::Bounds</text>
<text text-anchor="middle" x="205.5" y="-21" font-family="Helvetica,sans-Serif" font-size="10.00">::setMid</text>
</a>
</g>
</g>
<!-- Node1&#45;&gt;Node2 -->
<g id="edge1" class="edge"><title>Node1&#45;&gt;Node2</title>
<path fill="none" stroke="midnightblue" d="M113.074,-29C121.489,-29 130.238,-29 138.842,-29"/>
<polygon fill="midnightblue" stroke="midnightblue" points="138.847,-32.5001 148.847,-29 138.847,-25.5001 138.847,-32.5001"/>
</g>
<!-- Node3 -->
<g id="node3" class="node"><title>Node3</title>
<g id="a_node3"><a xlink:href="namespacepdal_1_1entwine.html#a0e121edf608aed244a8b7d7e322b05bd" target="_top" xlink:title="pdal::entwine::operator\&lt;\&lt;">
<polygon fill="white" stroke="black" points="298,-19.5 298,-38.5 426,-38.5 426,-19.5 298,-19.5"/>
<text text-anchor="middle" x="362" y="-26.5" font-family="Helvetica,sans-Serif" font-size="10.00">pdal::entwine::operator&lt;&lt;</text>
</a>
</g>
</g>
<!-- Node2&#45;&gt;Node3 -->
<g id="edge2" class="edge"><title>Node2&#45;&gt;Node3</title>
<path fill="none" stroke="midnightblue" d="M262.278,-29C270.603,-29 279.289,-29 287.906,-29"/>
<polygon fill="midnightblue" stroke="midnightblue" points="287.964,-32.5001 297.964,-29 287.964,-25.5001 287.964,-32.5001"/>
</g>
<!-- Node4 -->
<g id="node4" class="node"><title>Node4</title>
<g id="a_node4"><a xlink:href="classpdal_1_1entwine_1_1Bounds.html#ada24966b1e21a6118dae010ed1e24803" target="_top" xlink:title="pdal::entwine::Bounds::max">
<polygon fill="white" stroke="black" points="462,-38.5 462,-57.5 600,-57.5 600,-38.5 462,-38.5"/>
<text text-anchor="middle" x="531" y="-45.5" font-family="Helvetica,sans-Serif" font-size="10.00">pdal::entwine::Bounds::max</text>
</a>
</g>
</g>
<!-- Node3&#45;&gt;Node4 -->
<g id="edge3" class="edge"><title>Node3&#45;&gt;Node4</title>
<path fill="none" stroke="midnightblue" d="M426.136,-36.1831C434.5,-37.1348 443.156,-38.1195 451.737,-39.0958"/>
<polygon fill="midnightblue" stroke="midnightblue" points="451.423,-42.5826 461.755,-40.2356 452.215,-35.6275 451.423,-42.5826"/>
</g>
<!-- Node5 -->
<g id="node5" class="node"><title>Node5</title>
<g id="a_node5"><a xlink:href="classpdal_1_1entwine_1_1Bounds.html#a84002d285e0f6bfeef4ace7f79b783c8" target="_top" xlink:title="pdal::entwine::Bounds::min">
<polygon fill="white" stroke="black" points="463.5,-0.5 463.5,-19.5 598.5,-19.5 598.5,-0.5 463.5,-0.5"/>
<text text-anchor="middle" x="531" y="-7.5" font-family="Helvetica,sans-Serif" font-size="10.00">pdal::entwine::Bounds::min</text>
</a>
</g>
</g>
<!-- Node3&#45;&gt;Node5 -->
<g id="edge4" class="edge"><title>Node3&#45;&gt;Node5</title>
<path fill="none" stroke="midnightblue" d="M426.136,-21.8169C434.994,-20.8091 444.178,-19.7642 453.255,-18.7314"/>
<polygon fill="midnightblue" stroke="midnightblue" points="453.895,-22.1814 463.435,-17.5733 453.103,-15.2262 453.895,-22.1814"/>
</g>
</g>
</svg>
