<?xml version="1.0" encoding="UTF-8" standalone="no"?>
<!DOCTYPE svg PUBLIC "-//W3C//DTD SVG 1.1//EN"
 "http://www.w3.org/Graphics/SVG/1.1/DTD/svg11.dtd">
<!-- Generated by graphviz version 2.38.0 (20140413.2041)
 -->
<!-- Title: pdal::MortonOrderFilter::run Pages: 1 -->
<svg width="1268pt" height="845pt"
 viewBox="0.00 0.00 1268.00 845.00" xmlns="http://www.w3.org/2000/svg" xmlns:xlink="http://www.w3.org/1999/xlink">
<g id="graph0" class="graph" transform="scale(1 1) rotate(0) translate(4 841)">
<title>pdal::MortonOrderFilter::run</title>
<polygon fill="white" stroke="none" points="-4,4 -4,-841 1264,-841 1264,4 -4,4"/>
<!-- Node1 -->
<g id="node1" class="node"><title>Node1</title>
<polygon fill="#bfbfbf" stroke="black" points="0,-228.5 0,-247.5 136,-247.5 136,-228.5 0,-228.5"/>
<text text-anchor="middle" x="68" y="-235.5" font-family="Helvetica,sans-Serif" font-size="10.00">pdal::MortonOrderFilter::run</text>
</g>
<!-- Node2 -->
<g id="node2" class="node"><title>Node2</title>
<g id="a_node2"><a xlink:href="OCITest_8cpp.html#aa992a42d3b52c376e3902f1412402781" target="_top" xlink:title="compare">
<polygon fill="white" stroke="black" points="172,-228.5 172,-247.5 226,-247.5 226,-228.5 172,-228.5"/>
<text text-anchor="middle" x="199" y="-235.5" font-family="Helvetica,sans-Serif" font-size="10.00">compare</text>
</a>
</g>
</g>
<!-- Node1&#45;&gt;Node2 -->
<g id="edge1" class="edge"><title>Node1&#45;&gt;Node2</title>
<path fill="none" stroke="midnightblue" d="M136.145,-238C144.999,-238 153.786,-238 161.838,-238"/>
<polygon fill="midnightblue" stroke="midnightblue" points="161.943,-241.5 171.943,-238 161.943,-234.5 161.943,-241.5"/>
</g>
<!-- Node3 -->
<g id="node3" class="node"><title>Node3</title>
<g id="a_node3"><a xlink:href="classpdal_1_1Options.html#a30826da39f9c4716412141eeeb719032" target="_top" xlink:title="pdal::Options::add">
<polygon fill="white" stroke="black" points="642,-0.5 642,-19.5 738,-19.5 738,-0.5 642,-0.5"/>
<text text-anchor="middle" x="690" y="-7.5" font-family="Helvetica,sans-Serif" font-size="10.00">pdal::Options::add</text>
</a>
</g>
</g>
<!-- Node2&#45;&gt;Node3 -->
<g id="edge2" class="edge"><title>Node2&#45;&gt;Node3</title>
<path fill="none" stroke="midnightblue" d="M218.255,-228.486C292.811,-189.672 572.239,-44.6147 614,-29 620.509,-26.5663 627.45,-24.3403 634.383,-22.3374"/>
<polygon fill="midnightblue" stroke="midnightblue" points="635.767,-25.5871 644.483,-19.5644 633.913,-18.8369 635.767,-25.5871"/>
</g>
<!-- Node10 -->
<g id="node10" class="node"><title>Node10</title>
<g id="a_node10"><a xlink:href="classpdal_1_1Stage.html#a1615c4aa5ec5e48f90d73f0e7a796935" target="_top" xlink:title="pdal::Stage::execute">
<polygon fill="white" stroke="black" points="268,-604.5 268,-623.5 375,-623.5 375,-604.5 268,-604.5"/>
<text text-anchor="middle" x="321.5" y="-611.5" font-family="Helvetica,sans-Serif" font-size="10.00">pdal::Stage::execute</text>
</a>
</g>
</g>
<!-- Node2&#45;&gt;Node10 -->
<g id="edge9" class="edge"><title>Node2&#45;&gt;Node10</title>
<path fill="none" stroke="midnightblue" d="M203.1,-247.672C219.082,-297.542 292.274,-525.926 314.246,-594.486"/>
<polygon fill="midnightblue" stroke="midnightblue" points="311.036,-595.937 317.421,-604.392 317.702,-593.801 311.036,-595.937"/>
</g>
<!-- Node27 -->
<g id="node27" class="node"><title>Node27</title>
<g id="a_node27"><a xlink:href="classpdal_1_1Stage.html#a4b9296a59f8852b3d08630f1086bfbea" target="_top" xlink:title="pdal::Stage::prepare">
<polygon fill="white" stroke="black" points="269.5,-304.5 269.5,-323.5 373.5,-323.5 373.5,-304.5 269.5,-304.5"/>
<text text-anchor="middle" x="321.5" y="-311.5" font-family="Helvetica,sans-Serif" font-size="10.00">pdal::Stage::prepare</text>
</a>
</g>
</g>
<!-- Node2&#45;&gt;Node27 -->
<g id="edge27" class="edge"><title>Node2&#45;&gt;Node27</title>
<path fill="none" stroke="midnightblue" d="M215.261,-247.625C235.814,-260.588 272.595,-283.786 296.773,-299.035"/>
<polygon fill="midnightblue" stroke="midnightblue" points="295.037,-302.078 305.363,-304.453 298.771,-296.158 295.037,-302.078"/>
</g>
<!-- Node50 -->
<g id="node50" class="node"><title>Node50</title>
<g id="a_node50"><a xlink:href="classpdal_1_1Stage.html#acb2434df20f371f1fec9577de3cf0046" target="_top" xlink:title="pdal::Stage::setOptions">
<polygon fill="white" stroke="black" points="262,-114.5 262,-133.5 381,-133.5 381,-114.5 262,-114.5"/>
<text text-anchor="middle" x="321.5" y="-121.5" font-family="Helvetica,sans-Serif" font-size="10.00">pdal::Stage::setOptions</text>
</a>
</g>
</g>
<!-- Node2&#45;&gt;Node50 -->
<g id="edge63" class="edge"><title>Node2&#45;&gt;Node50</title>
<path fill="none" stroke="midnightblue" d="M204.37,-228.224C212.944,-210.056 233.638,-170.862 262,-148 266.936,-144.021 272.622,-140.616 278.468,-137.729"/>
<polygon fill="midnightblue" stroke="midnightblue" points="279.996,-140.88 287.703,-133.609 277.144,-134.487 279.996,-140.88"/>
</g>
<!-- Node4 -->
<g id="node4" class="node"><title>Node4</title>
<g id="a_node4"><a xlink:href="classpdal_1_1Option.html#aef4422b88464a9cad83b3c11bf1f8cdd" target="_top" xlink:title="pdal::Option::nameValid">
<polygon fill="white" stroke="black" points="811,-26.5 811,-45.5 932,-45.5 932,-26.5 811,-26.5"/>
<text text-anchor="middle" x="871.5" y="-33.5" font-family="Helvetica,sans-Serif" font-size="10.00">pdal::Option::nameValid</text>
</a>
</g>
</g>
<!-- Node3&#45;&gt;Node4 -->
<g id="edge3" class="edge"><title>Node3&#45;&gt;Node4</title>
<path fill="none" stroke="midnightblue" d="M738.162,-16.8312C757.264,-19.5982 779.718,-22.8505 800.651,-25.8826"/>
<polygon fill="midnightblue" stroke="midnightblue" points="800.385,-29.3805 810.784,-27.3503 801.389,-22.4528 800.385,-29.3805"/>
</g>
<!-- Node9 -->
<g id="node9" class="node"><title>Node9</title>
<g id="a_node9"><a xlink:href="classpdal_1_1Option.html#ad2b7a736742fb343e421fa326ef45c23" target="_top" xlink:title="pdal::Option::getName">
<polygon fill="white" stroke="black" points="814,-64.5 814,-83.5 929,-83.5 929,-64.5 814,-64.5"/>
<text text-anchor="middle" x="871.5" y="-71.5" font-family="Helvetica,sans-Serif" font-size="10.00">pdal::Option::getName</text>
</a>
</g>
</g>
<!-- Node3&#45;&gt;Node9 -->
<g id="edge8" class="edge"><title>Node3&#45;&gt;Node9</title>
<path fill="none" stroke="midnightblue" d="M738.355,-19.1054C747.741,-21.7075 757.359,-24.9655 766,-29 783.883,-37.3494 784.211,-46.4504 802,-55 806.866,-57.3389 812.07,-59.4333 817.354,-61.2985"/>
<polygon fill="midnightblue" stroke="midnightblue" points="816.303,-64.637 826.895,-64.4115 818.474,-57.9823 816.303,-64.637"/>
</g>
<!-- Node5 -->
<g id="node5" class="node"><title>Node5</title>
<g id="a_node5"><a xlink:href="classpdal_1_1Option.html#a978a36cf9180d3636ea770988961952b" target="_top" xlink:title="pdal::Option::parse">
<polygon fill="white" stroke="black" points="992.5,-26.5 992.5,-45.5 1091.5,-45.5 1091.5,-26.5 992.5,-26.5"/>
<text text-anchor="middle" x="1042" y="-33.5" font-family="Helvetica,sans-Serif" font-size="10.00">pdal::Option::parse</text>
</a>
</g>
</g>
<!-- Node4&#45;&gt;Node5 -->
<g id="edge4" class="edge"><title>Node4&#45;&gt;Node5</title>
<path fill="none" stroke="midnightblue" d="M932.381,-36C948.521,-36 965.967,-36 982.055,-36"/>
<polygon fill="midnightblue" stroke="midnightblue" points="982.404,-39.5001 992.404,-36 982.404,-32.5001 982.404,-39.5001"/>
</g>
<!-- Node8 -->
<g id="node8" class="node"><title>Node8</title>
<g id="a_node8"><a xlink:href="namespacepdal_1_1Utils.html#ada321695f57c876ef51227bdf5b84f7a" target="_top" xlink:title="pdal::Utils::printError">
<polygon fill="white" stroke="black" points="988.5,-64.5 988.5,-83.5 1095.5,-83.5 1095.5,-64.5 988.5,-64.5"/>
<text text-anchor="middle" x="1042" y="-71.5" font-family="Helvetica,sans-Serif" font-size="10.00">pdal::Utils::printError</text>
</a>
</g>
</g>
<!-- Node4&#45;&gt;Node8 -->
<g id="edge7" class="edge"><title>Node4&#45;&gt;Node8</title>
<path fill="none" stroke="midnightblue" d="M915.02,-45.589C937.455,-50.6487 965.173,-56.8996 988.893,-62.2488"/>
<polygon fill="midnightblue" stroke="midnightblue" points="988.261,-65.6942 998.786,-64.4799 989.801,-58.8657 988.261,-65.6942"/>
</g>
<!-- Node6 -->
<g id="node6" class="node"><title>Node6</title>
<g id="a_node6"><a xlink:href="namespacepdal_1_1Utils.html#acae5a19cd66121b77e2599daec48413d" target="_top" xlink:title="pdal::Utils::extract">
<polygon fill="white" stroke="black" points="1153,-105.5 1153,-124.5 1250,-124.5 1250,-105.5 1153,-105.5"/>
<text text-anchor="middle" x="1201.5" y="-112.5" font-family="Helvetica,sans-Serif" font-size="10.00">pdal::Utils::extract</text>
</a>
</g>
</g>
<!-- Node5&#45;&gt;Node6 -->
<g id="edge5" class="edge"><title>Node5&#45;&gt;Node6</title>
<path fill="none" stroke="midnightblue" d="M1081.55,-45.5296C1090.1,-48.1665 1098.99,-51.3315 1107,-55 1133.67,-67.2183 1161.66,-86.0998 1179.98,-99.4125"/>
<polygon fill="midnightblue" stroke="midnightblue" points="1178.03,-102.321 1188.15,-105.447 1182.19,-96.6904 1178.03,-102.321"/>
</g>
<!-- Node7 -->
<g id="node7" class="node"><title>Node7</title>
<g id="a_node7"><a xlink:href="namespacepdal_1_1Dimension.html#af3176b0b7e6b4be000317846cf7c2718" target="_top" xlink:title="pdal::Dimension::name">
<polygon fill="white" stroke="black" points="1143,-26.5 1143,-45.5 1260,-45.5 1260,-26.5 1143,-26.5"/>
<text text-anchor="middle" x="1201.5" y="-33.5" font-family="Helvetica,sans-Serif" font-size="10.00">pdal::Dimension::name</text>
</a>
</g>
</g>
<!-- Node5&#45;&gt;Node7 -->
<g id="edge6" class="edge"><title>Node5&#45;&gt;Node7</title>
<path fill="none" stroke="midnightblue" d="M1091.54,-36C1104.63,-36 1119.04,-36 1132.96,-36"/>
<polygon fill="midnightblue" stroke="midnightblue" points="1132.99,-39.5001 1142.99,-36 1132.99,-32.5001 1132.99,-39.5001"/>
</g>
<!-- Node10&#45;&gt;Node10 -->
<g id="edge13" class="edge"><title>Node10&#45;&gt;Node10</title>
<path fill="none" stroke="midnightblue" d="M302.696,-623.757C293.548,-632.565 299.816,-642 321.5,-642 335.391,-642 342.956,-638.128 344.193,-633.029"/>
<polygon fill="midnightblue" stroke="midnightblue" points="347.4,-631.625 340.304,-623.757 340.945,-634.332 347.4,-631.625"/>
</g>
<!-- Node11 -->
<g id="node11" class="node"><title>Node11</title>
<g id="a_node11"><a xlink:href="classpdal_1_1BasePointTable.html#a670592aca912391f1a90073a2031e5e0" target="_top" xlink:title="pdal::BasePointTable\l::addSpatialReference">
<polygon fill="white" stroke="black" points="441,-768 441,-798 554,-798 554,-768 441,-768"/>
<text text-anchor="start" x="449" y="-786" font-family="Helvetica,sans-Serif" font-size="10.00">pdal::BasePointTable</text>
<text text-anchor="middle" x="497.5" y="-775" font-family="Helvetica,sans-Serif" font-size="10.00">::addSpatialReference</text>
</a>
</g>
</g>
<!-- Node10&#45;&gt;Node11 -->
<g id="edge10" class="edge"><title>Node10&#45;&gt;Node11</title>
<path fill="none" stroke="midnightblue" d="M326.091,-623.803C336.161,-649.915 367.229,-721.696 417,-759 421.398,-762.297 426.25,-765.144 431.322,-767.602"/>
<polygon fill="midnightblue" stroke="midnightblue" points="430.071,-770.874 440.64,-771.62 432.843,-764.446 430.071,-770.874"/>
</g>
<!-- Node12 -->
<g id="node12" class="node"><title>Node12</title>
<g id="a_node12"><a xlink:href="classpdal_1_1BasePointTable.html#aa3ed63a9e1a8897ccb7dc81a614f6141" target="_top" xlink:title="pdal::BasePointTable\l::clearSpatialReferences">
<polygon fill="white" stroke="black" points="435.5,-719 435.5,-749 559.5,-749 559.5,-719 435.5,-719"/>
<text text-anchor="start" x="443.5" y="-737" font-family="Helvetica,sans-Serif" font-size="10.00">pdal::BasePointTable</text>
<text text-anchor="middle" x="497.5" y="-726" font-family="Helvetica,sans-Serif" font-size="10.00">::clearSpatialReferences</text>
</a>
</g>
</g>
<!-- Node10&#45;&gt;Node12 -->
<g id="edge11" class="edge"><title>Node10&#45;&gt;Node12</title>
<path fill="none" stroke="midnightblue" d="M329.39,-623.739C343.565,-643.065 377.961,-686.427 417,-710 419.839,-711.714 422.809,-713.314 425.864,-714.806"/>
<polygon fill="midnightblue" stroke="midnightblue" points="424.679,-718.109 435.239,-718.967 427.519,-711.711 424.679,-718.109"/>
</g>
<!-- Node13 -->
<g id="node13" class="node"><title>Node13</title>
<g id="a_node13"><a xlink:href="classpdal_1_1SpatialReference.html#a48fa2f7e79ea172b62ad2e874ff01610" target="_top" xlink:title="pdal::SpatialReference\l::empty">
<polygon fill="white" stroke="black" points="439.5,-670 439.5,-700 555.5,-700 555.5,-670 439.5,-670"/>
<text text-anchor="start" x="447.5" y="-688" font-family="Helvetica,sans-Serif" font-size="10.00">pdal::SpatialReference</text>
<text text-anchor="middle" x="497.5" y="-677" font-family="Helvetica,sans-Serif" font-size="10.00">::empty</text>
</a>
</g>
</g>
<!-- Node10&#45;&gt;Node13 -->
<g id="edge12" class="edge"><title>Node10&#45;&gt;Node13</title>
<path fill="none" stroke="midnightblue" d="M339.518,-623.557C358.138,-633.753 389.064,-649.927 417,-661 422.026,-662.992 427.286,-664.916 432.602,-666.748"/>
<polygon fill="midnightblue" stroke="midnightblue" points="431.602,-670.104 442.196,-669.942 433.814,-663.462 431.602,-670.104"/>
</g>
<!-- Node14 -->
<g id="node14" class="node"><title>Node14</title>
<g id="a_node14"><a xlink:href="classpdal_1_1BasePointTable.html#a2554cd260c437c9b1e4a017a28a5c7de" target="_top" xlink:title="pdal::BasePointTable\l::finalize">
<polygon fill="white" stroke="black" points="442.5,-621 442.5,-651 552.5,-651 552.5,-621 442.5,-621"/>
<text text-anchor="start" x="450.5" y="-639" font-family="Helvetica,sans-Serif" font-size="10.00">pdal::BasePointTable</text>
<text text-anchor="middle" x="497.5" y="-628" font-family="Helvetica,sans-Serif" font-size="10.00">::finalize</text>
</a>
</g>
</g>
<!-- Node10&#45;&gt;Node14 -->
<g id="edge14" class="edge"><title>Node10&#45;&gt;Node14</title>
<path fill="none" stroke="midnightblue" d="M375.178,-620.66C393.237,-622.944 413.647,-625.524 432.503,-627.908"/>
<polygon fill="midnightblue" stroke="midnightblue" points="432.137,-631.39 442.497,-629.172 433.015,-624.445 432.137,-631.39"/>
</g>
<!-- Node15 -->
<g id="node15" class="node"><title>Node15</title>
<g id="a_node15"><a xlink:href="classpdal_1_1Stage.html#a9889b4446f40daa6f4cd7bfe3c567839" target="_top" xlink:title="pdal::Stage::getSpatialReference">
<polygon fill="white" stroke="black" points="417,-582.5 417,-601.5 578,-601.5 578,-582.5 417,-582.5"/>
<text text-anchor="middle" x="497.5" y="-589.5" font-family="Helvetica,sans-Serif" font-size="10.00">pdal::Stage::getSpatialReference</text>
</a>
</g>
</g>
<!-- Node10&#45;&gt;Node15 -->
<g id="edge15" class="edge"><title>Node10&#45;&gt;Node15</title>
<path fill="none" stroke="midnightblue" d="M375.178,-607.34C386.509,-605.907 398.765,-604.357 410.982,-602.813"/>
<polygon fill="midnightblue" stroke="midnightblue" points="411.732,-606.246 421.214,-601.519 410.854,-599.301 411.732,-606.246"/>
</g>
<!-- Node16 -->
<g id="node16" class="node"><title>Node16</title>
<g id="a_node16"><a xlink:href="classpdal_1_1Stage.html#a1b00532ede55b90a7b6332a2966f5626" target="_top" xlink:title="pdal::Stage::l_done">
<polygon fill="white" stroke="black" points="447,-817.5 447,-836.5 548,-836.5 548,-817.5 447,-817.5"/>
<text text-anchor="middle" x="497.5" y="-824.5" font-family="Helvetica,sans-Serif" font-size="10.00">pdal::Stage::l_done</text>
</a>
</g>
</g>
<!-- Node10&#45;&gt;Node16 -->
<g id="edge16" class="edge"><title>Node10&#45;&gt;Node16</title>
<path fill="none" stroke="midnightblue" d="M324.246,-623.901C330.444,-655.974 354.461,-757.834 417,-808 422.86,-812.701 429.696,-816.27 436.853,-818.974"/>
<polygon fill="midnightblue" stroke="midnightblue" points="436.161,-822.427 446.752,-822.151 438.3,-815.762 436.161,-822.427"/>
</g>
<!-- Node18 -->
<g id="node18" class="node"><title>Node18</title>
<g id="a_node18"><a xlink:href="classpdal_1_1Stage.html#afb562c59c53ed8120df9106655eb2543" target="_top" xlink:title="pdal::Stage::ready">
<polygon fill="white" stroke="black" points="449.5,-544.5 449.5,-563.5 545.5,-563.5 545.5,-544.5 449.5,-544.5"/>
<text text-anchor="middle" x="497.5" y="-551.5" font-family="Helvetica,sans-Serif" font-size="10.00">pdal::Stage::ready</text>
</a>
</g>
</g>
<!-- Node10&#45;&gt;Node18 -->
<g id="edge18" class="edge"><title>Node10&#45;&gt;Node18</title>
<path fill="none" stroke="midnightblue" d="M342.017,-604.334C360.857,-595.293 390.365,-581.885 417,-573 424.477,-570.506 432.453,-568.199 440.358,-566.117"/>
<polygon fill="midnightblue" stroke="midnightblue" points="441.457,-569.449 450.291,-563.601 439.738,-562.663 441.457,-569.449"/>
</g>
<!-- Node19 -->
<g id="node19" class="node"><title>Node19</title>
<g id="a_node19"><a xlink:href="classpdal_1_1Stage.html#a74cf636cb0f633411e4e40dcd718508a" target="_top" xlink:title="pdal::Stage::startLogging">
<polygon fill="white" stroke="black" points="627.5,-506.5 627.5,-525.5 752.5,-525.5 752.5,-506.5 627.5,-506.5"/>
<text text-anchor="middle" x="690" y="-513.5" font-family="Helvetica,sans-Serif" font-size="10.00">pdal::Stage::startLogging</text>
</a>
</g>
</g>
<!-- Node10&#45;&gt;Node19 -->
<g id="edge19" class="edge"><title>Node10&#45;&gt;Node19</title>
<path fill="none" stroke="midnightblue" d="M330.356,-604.259C345.158,-586.727 379.116,-550.264 417,-535 481.172,-509.144 560.727,-506.618 617.183,-509.211"/>
<polygon fill="midnightblue" stroke="midnightblue" points="617.277,-512.721 627.447,-509.75 617.645,-505.73 617.277,-512.721"/>
</g>
<!-- Node26 -->
<g id="node26" class="node"><title>Node26</title>
<g id="a_node26"><a xlink:href="classpdal_1_1Stage.html#ae49e996fe285350923a3bf44d027adad" target="_top" xlink:title="pdal::Stage::stopLogging">
<polygon fill="white" stroke="black" points="435,-468.5 435,-487.5 560,-487.5 560,-468.5 435,-468.5"/>
<text text-anchor="middle" x="497.5" y="-475.5" font-family="Helvetica,sans-Serif" font-size="10.00">pdal::Stage::stopLogging</text>
</a>
</g>
</g>
<!-- Node10&#45;&gt;Node26 -->
<g id="edge26" class="edge"><title>Node10&#45;&gt;Node26</title>
<path fill="none" stroke="midnightblue" d="M327.984,-604.279C340.72,-582.588 374.483,-529.951 417,-502 423.766,-497.552 431.39,-493.9 439.169,-490.91"/>
<polygon fill="midnightblue" stroke="midnightblue" points="440.405,-494.186 448.689,-487.581 438.094,-487.578 440.405,-494.186"/>
</g>
<!-- Node17 -->
<g id="node17" class="node"><title>Node17</title>
<g id="a_node17"><a xlink:href="classpdal_1_1Stage.html#a2444e73dc41bfc0b94981909595ef2ca" target="_top" xlink:title="pdal::Stage::done">
<polygon fill="white" stroke="black" points="643.5,-817.5 643.5,-836.5 736.5,-836.5 736.5,-817.5 643.5,-817.5"/>
<text text-anchor="middle" x="690" y="-824.5" font-family="Helvetica,sans-Serif" font-size="10.00">pdal::Stage::done</text>
</a>
</g>
</g>
<!-- Node16&#45;&gt;Node17 -->
<g id="edge17" class="edge"><title>Node16&#45;&gt;Node17</title>
<path fill="none" stroke="midnightblue" d="M548.054,-827C574.155,-827 606.254,-827 633.224,-827"/>
<polygon fill="midnightblue" stroke="midnightblue" points="633.286,-830.5 643.286,-827 633.286,-823.5 633.286,-830.5"/>
</g>
<!-- Node20 -->
<g id="node20" class="node"><title>Node20</title>
<g id="a_node20"><a xlink:href="classpdal_1_1gdal_1_1ErrorHandler.html#a56e0125595a43bf3b0cbd0b9a4bc55ea" target="_top" xlink:title="pdal::gdal::ErrorHandler\l::getGlobalErrorHandler">
<polygon fill="white" stroke="black" points="812,-491 812,-521 931,-521 931,-491 812,-491"/>
<text text-anchor="start" x="820" y="-509" font-family="Helvetica,sans-Serif" font-size="10.00">pdal::gdal::ErrorHandler</text>
<text text-anchor="middle" x="871.5" y="-498" font-family="Helvetica,sans-Serif" font-size="10.00">::getGlobalErrorHandler</text>
</a>
</g>
</g>
<!-- Node19&#45;&gt;Node20 -->
<g id="edge20" class="edge"><title>Node19&#45;&gt;Node20</title>
<path fill="none" stroke="midnightblue" d="M752.523,-512.573C768.257,-511.696 785.28,-510.748 801.369,-509.851"/>
<polygon fill="midnightblue" stroke="midnightblue" points="801.994,-513.322 811.784,-509.271 801.604,-506.333 801.994,-513.322"/>
</g>
<!-- Node22 -->
<g id="node22" class="node"><title>Node22</title>
<g id="a_node22"><a xlink:href="classpdal_1_1Stage.html#aec4fb27c40bb4b032ff003a89a950dd4" target="_top" xlink:title="pdal::Stage::isDebug">
<polygon fill="white" stroke="black" points="817.5,-342.5 817.5,-361.5 925.5,-361.5 925.5,-342.5 817.5,-342.5"/>
<text text-anchor="middle" x="871.5" y="-349.5" font-family="Helvetica,sans-Serif" font-size="10.00">pdal::Stage::isDebug</text>
</a>
</g>
</g>
<!-- Node19&#45;&gt;Node22 -->
<g id="edge22" class="edge"><title>Node19&#45;&gt;Node22</title>
<path fill="none" stroke="midnightblue" d="M750.936,-506.466C756.395,-503.981 761.538,-500.876 766,-497 797.9,-469.286 777.017,-443.082 802,-409 814.119,-392.467 832.043,-377.779 846.517,-367.454"/>
<polygon fill="midnightblue" stroke="midnightblue" points="848.749,-370.167 855,-361.613 844.779,-364.402 848.749,-370.167"/>
</g>
<!-- Node23 -->
<g id="node23" class="node"><title>Node23</title>
<g id="a_node23"><a xlink:href="classpdal_1_1gdal_1_1ErrorHandler.html#ace1cff928ab179f671181ebaf4d280a4" target="_top" xlink:title="pdal::gdal::ErrorHandler::set">
<polygon fill="white" stroke="black" points="802,-418.5 802,-437.5 941,-437.5 941,-418.5 802,-418.5"/>
<text text-anchor="middle" x="871.5" y="-425.5" font-family="Helvetica,sans-Serif" font-size="10.00">pdal::gdal::ErrorHandler::set</text>
</a>
</g>
</g>
<!-- Node19&#45;&gt;Node23 -->
<g id="edge23" class="edge"><title>Node19&#45;&gt;Node23</title>
<path fill="none" stroke="midnightblue" d="M739.02,-506.39C748.165,-503.85 757.522,-500.744 766,-497 797.703,-483 830.443,-459.681 850.636,-444.077"/>
<polygon fill="midnightblue" stroke="midnightblue" points="853.034,-446.644 858.732,-437.712 848.708,-441.141 853.034,-446.644"/>
</g>
<!-- Node21 -->
<g id="node21" class="node"><title>Node21</title>
<g id="a_node21"><a xlink:href="classpdal_1_1gdal_1_1ErrorHandler.html#a73215504640551589024d36018f81d33" target="_top" xlink:title="pdal::gdal::ErrorHandler\l::ErrorHandler">
<polygon fill="white" stroke="red" points="982.5,-491 982.5,-521 1101.5,-521 1101.5,-491 982.5,-491"/>
<text text-anchor="start" x="990.5" y="-509" font-family="Helvetica,sans-Serif" font-size="10.00">pdal::gdal::ErrorHandler</text>
<text text-anchor="middle" x="1042" y="-498" font-family="Helvetica,sans-Serif" font-size="10.00">::ErrorHandler</text>
</a>
</g>
</g>
<!-- Node20&#45;&gt;Node21 -->
<g id="edge21" class="edge"><title>Node20&#45;&gt;Node21</title>
<path fill="none" stroke="midnightblue" d="M931.433,-506C944.592,-506 958.659,-506 972.178,-506"/>
<polygon fill="midnightblue" stroke="midnightblue" points="972.385,-509.5 982.385,-506 972.385,-502.5 972.385,-509.5"/>
</g>
<!-- Node24 -->
<g id="node24" class="node"><title>Node24</title>
<g id="a_node24"><a xlink:href="classpdal_1_1gdal_1_1ErrorHandler.html#abe7fbf19bfcfbb0be1c8ae934bd5c9d2" target="_top" xlink:title="pdal::gdal::ErrorHandler\l::setLog">
<polygon fill="white" stroke="black" points="982.5,-423 982.5,-453 1101.5,-453 1101.5,-423 982.5,-423"/>
<text text-anchor="start" x="990.5" y="-441" font-family="Helvetica,sans-Serif" font-size="10.00">pdal::gdal::ErrorHandler</text>
<text text-anchor="middle" x="1042" y="-430" font-family="Helvetica,sans-Serif" font-size="10.00">::setLog</text>
</a>
</g>
</g>
<!-- Node23&#45;&gt;Node24 -->
<g id="edge24" class="edge"><title>Node23&#45;&gt;Node24</title>
<path fill="none" stroke="midnightblue" d="M941.035,-432.067C951.286,-432.676 961.858,-433.303 972.115,-433.912"/>
<polygon fill="midnightblue" stroke="midnightblue" points="972.054,-437.414 982.244,-434.513 972.469,-430.427 972.054,-437.414"/>
</g>
<!-- Node25 -->
<g id="node25" class="node"><title>Node25</title>
<g id="a_node25"><a xlink:href="classpdal_1_1gdal_1_1ErrorHandler.html#a61ea2c53f778817785d39cd9fc6a81a6" target="_top" xlink:title="pdal::gdal::ErrorHandler\l::setDebug">
<polygon fill="white" stroke="black" points="982.5,-374 982.5,-404 1101.5,-404 1101.5,-374 982.5,-374"/>
<text text-anchor="start" x="990.5" y="-392" font-family="Helvetica,sans-Serif" font-size="10.00">pdal::gdal::ErrorHandler</text>
<text text-anchor="middle" x="1042" y="-381" font-family="Helvetica,sans-Serif" font-size="10.00">::setDebug</text>
</a>
</g>
</g>
<!-- Node23&#45;&gt;Node25 -->
<g id="edge25" class="edge"><title>Node23&#45;&gt;Node25</title>
<path fill="none" stroke="midnightblue" d="M913.72,-418.46C931.39,-414.37 952.511,-409.481 972.423,-404.873"/>
<polygon fill="midnightblue" stroke="midnightblue" points="973.435,-408.231 982.388,-402.566 971.857,-401.411 973.435,-408.231"/>
</g>
<!-- Node27&#45;&gt;Node19 -->
<g id="edge61" class="edge"><title>Node27&#45;&gt;Node19</title>
<path fill="none" stroke="midnightblue" d="M328.211,-323.672C341.16,-344.712 374.924,-394.768 417,-420 480.142,-457.864 514.292,-422.096 578,-459 598.131,-470.661 593.93,-485.234 614,-497 617.715,-499.178 621.676,-501.109 625.763,-502.82"/>
<polygon fill="midnightblue" stroke="midnightblue" points="624.879,-506.225 635.472,-506.426 627.317,-499.663 624.879,-506.225"/>
</g>
<!-- Node27&#45;&gt;Node26 -->
<g id="edge62" class="edge"><title>Node27&#45;&gt;Node26</title>
<path fill="none" stroke="midnightblue" d="M326.341,-323.834C336.813,-349.347 368.371,-418.161 417,-454 422.905,-458.352 429.602,-461.921 436.544,-464.848"/>
<polygon fill="midnightblue" stroke="midnightblue" points="435.519,-468.202 446.111,-468.454 437.988,-461.652 435.519,-468.202"/>
</g>
<!-- Node27&#45;&gt;Node27 -->
<g id="edge59" class="edge"><title>Node27&#45;&gt;Node27</title>
<path fill="none" stroke="midnightblue" d="M302.696,-323.757C293.548,-332.565 299.816,-342 321.5,-342 335.391,-342 342.956,-338.128 344.193,-333.029"/>
<polygon fill="midnightblue" stroke="midnightblue" points="347.4,-331.625 340.304,-323.757 340.945,-334.332 347.4,-331.625"/>
</g>
<!-- Node28 -->
<g id="node28" class="node"><title>Node28</title>
<g id="a_node28"><a xlink:href="classpdal_1_1Stage.html#a7ec627c76e1c30fc53780bd81d08d4ad" target="_top" xlink:title="pdal::Stage::addDimensions">
<polygon fill="white" stroke="black" points="427.5,-266.5 427.5,-285.5 567.5,-285.5 567.5,-266.5 427.5,-266.5"/>
<text text-anchor="middle" x="497.5" y="-273.5" font-family="Helvetica,sans-Serif" font-size="10.00">pdal::Stage::addDimensions</text>
</a>
</g>
</g>
<!-- Node27&#45;&gt;Node28 -->
<g id="edge28" class="edge"><title>Node27&#45;&gt;Node28</title>
<path fill="none" stroke="midnightblue" d="M366.408,-304.411C389.679,-299.329 418.454,-293.045 443.019,-287.68"/>
<polygon fill="midnightblue" stroke="midnightblue" points="443.885,-291.073 452.908,-285.52 442.392,-284.234 443.885,-291.073"/>
</g>
<!-- Node29 -->
<g id="node29" class="node"><title>Node29</title>
<g id="a_node29"><a xlink:href="classpdal_1_1Stage.html#a75f17f9b67f48f6aab1d98aadefc4d5c" target="_top" xlink:title="pdal::Stage::handleOptions">
<polygon fill="white" stroke="black" points="430.5,-228.5 430.5,-247.5 564.5,-247.5 564.5,-228.5 430.5,-228.5"/>
<text text-anchor="middle" x="497.5" y="-235.5" font-family="Helvetica,sans-Serif" font-size="10.00">pdal::Stage::handleOptions</text>
</a>
</g>
</g>
<!-- Node27&#45;&gt;Node29 -->
<g id="edge29" class="edge"><title>Node27&#45;&gt;Node29</title>
<path fill="none" stroke="midnightblue" d="M335.576,-304.308C353.205,-291.677 385.971,-269.706 417,-257 423.176,-254.471 429.766,-252.23 436.41,-250.256"/>
<polygon fill="midnightblue" stroke="midnightblue" points="437.441,-253.602 446.14,-247.553 435.568,-246.857 437.441,-253.602"/>
</g>
<!-- Node43 -->
<g id="node43" class="node"><title>Node43</title>
<g id="a_node43"><a xlink:href="classpdal_1_1Stage.html#a5b422f842a6374b448439df99fe6e07e" target="_top" xlink:title="pdal::Stage::initialize">
<polygon fill="white" stroke="black" points="444,-190.5 444,-209.5 551,-209.5 551,-190.5 444,-190.5"/>
<text text-anchor="middle" x="497.5" y="-197.5" font-family="Helvetica,sans-Serif" font-size="10.00">pdal::Stage::initialize</text>
</a>
</g>
</g>
<!-- Node27&#45;&gt;Node43 -->
<g id="edge52" class="edge"><title>Node27&#45;&gt;Node43</title>
<path fill="none" stroke="midnightblue" d="M329.087,-304.467C342.966,-285.146 377.235,-241.311 417,-219 422.233,-216.064 427.905,-213.58 433.73,-211.478"/>
<polygon fill="midnightblue" stroke="midnightblue" points="435.181,-214.687 443.626,-208.289 433.034,-208.025 435.181,-214.687"/>
</g>
<!-- Node44 -->
<g id="node44" class="node"><title>Node44</title>
<g id="a_node44"><a xlink:href="classpdal_1_1Stage.html#a6c85dfbf6a674dbc2eda76a79efada48" target="_top" xlink:title="pdal::Stage::l_initialize">
<polygon fill="white" stroke="black" points="440,-304.5 440,-323.5 555,-323.5 555,-304.5 440,-304.5"/>
<text text-anchor="middle" x="497.5" y="-311.5" font-family="Helvetica,sans-Serif" font-size="10.00">pdal::Stage::l_initialize</text>
</a>
</g>
</g>
<!-- Node27&#45;&gt;Node44 -->
<g id="edge53" class="edge"><title>Node27&#45;&gt;Node44</title>
<path fill="none" stroke="midnightblue" d="M373.765,-314C391.273,-314 411.119,-314 429.67,-314"/>
<polygon fill="midnightblue" stroke="midnightblue" points="429.819,-317.5 439.819,-314 429.819,-310.5 429.819,-317.5"/>
</g>
<!-- Node48 -->
<g id="node48" class="node"><title>Node48</title>
<g id="a_node48"><a xlink:href="classpdal_1_1BasePointTable.html#a7e3a12a1f29e6cd10d8669ed3d07eb94" target="_top" xlink:title="pdal::BasePointTable\l::layout">
<polygon fill="white" stroke="black" points="442.5,-381 442.5,-411 552.5,-411 552.5,-381 442.5,-381"/>
<text text-anchor="start" x="450.5" y="-399" font-family="Helvetica,sans-Serif" font-size="10.00">pdal::BasePointTable</text>
<text text-anchor="middle" x="497.5" y="-388" font-family="Helvetica,sans-Serif" font-size="10.00">::layout</text>
</a>
</g>
</g>
<!-- Node27&#45;&gt;Node48 -->
<g id="edge58" class="edge"><title>Node27&#45;&gt;Node48</title>
<path fill="none" stroke="midnightblue" d="M336.022,-323.579C353.875,-335.887 386.61,-357.293 417,-371 422.028,-373.268 427.322,-375.415 432.691,-377.426"/>
<polygon fill="midnightblue" stroke="midnightblue" points="431.8,-380.825 442.394,-380.898 434.158,-374.234 431.8,-380.825"/>
</g>
<!-- Node49 -->
<g id="node49" class="node"><title>Node49</title>
<g id="a_node49"><a xlink:href="classpdal_1_1Stage.html#affff6bc9dbff793d074d76333c5732dd" target="_top" xlink:title="pdal::Stage::prepared">
<polygon fill="white" stroke="black" points="442.5,-342.5 442.5,-361.5 552.5,-361.5 552.5,-342.5 442.5,-342.5"/>
<text text-anchor="middle" x="497.5" y="-349.5" font-family="Helvetica,sans-Serif" font-size="10.00">pdal::Stage::prepared</text>
</a>
</g>
</g>
<!-- Node27&#45;&gt;Node49 -->
<g id="edge60" class="edge"><title>Node27&#45;&gt;Node49</title>
<path fill="none" stroke="midnightblue" d="M366.408,-323.589C389.679,-328.671 418.454,-334.955 443.019,-340.32"/>
<polygon fill="midnightblue" stroke="midnightblue" points="442.392,-343.766 452.908,-342.48 443.885,-336.927 442.392,-343.766"/>
</g>
<!-- Node30 -->
<g id="node30" class="node"><title>Node30</title>
<g id="a_node30"><a xlink:href="classpdal_1_1Stage.html#a75ff99f7b665c6573e304ed4148dd99e" target="_top" xlink:title="pdal::Stage::addAllArgs">
<polygon fill="white" stroke="black" points="630.5,-228.5 630.5,-247.5 749.5,-247.5 749.5,-228.5 630.5,-228.5"/>
<text text-anchor="middle" x="690" y="-235.5" font-family="Helvetica,sans-Serif" font-size="10.00">pdal::Stage::addAllArgs</text>
</a>
</g>
</g>
<!-- Node29&#45;&gt;Node30 -->
<g id="edge30" class="edge"><title>Node29&#45;&gt;Node30</title>
<path fill="none" stroke="midnightblue" d="M564.593,-238C582.553,-238 602.044,-238 620.152,-238"/>
<polygon fill="midnightblue" stroke="midnightblue" points="620.341,-241.5 630.341,-238 620.341,-234.5 620.341,-241.5"/>
</g>
<!-- Node32 -->
<g id="node32" class="node"><title>Node32</title>
<g id="a_node32"><a xlink:href="classpdal_1_1Stage.html#a6c81d6fbbac17ebe4cd63806916cc750" target="_top" xlink:title="pdal::Stage::getName">
<polygon fill="white" stroke="black" points="815.5,-304.5 815.5,-323.5 927.5,-323.5 927.5,-304.5 815.5,-304.5"/>
<text text-anchor="middle" x="871.5" y="-311.5" font-family="Helvetica,sans-Serif" font-size="10.00">pdal::Stage::getName</text>
</a>
</g>
</g>
<!-- Node29&#45;&gt;Node32 -->
<g id="edge46" class="edge"><title>Node29&#45;&gt;Node32</title>
<path fill="none" stroke="midnightblue" d="M545.237,-247.548C613.543,-261.503 740.479,-287.437 813.953,-302.447"/>
<polygon fill="midnightblue" stroke="midnightblue" points="813.456,-305.918 823.954,-304.491 814.857,-299.06 813.456,-305.918"/>
</g>
<!-- Node34 -->
<g id="node34" class="node"><title>Node34</title>
<g id="a_node34"><a xlink:href="classpdal_1_1Options.html#a99aa4c0c7ba443d584f741d22d37f6a5" target="_top" xlink:title="pdal::Options::getValues">
<polygon fill="white" stroke="black" points="628,-38.5 628,-57.5 752,-57.5 752,-38.5 628,-38.5"/>
<text text-anchor="middle" x="690" y="-45.5" font-family="Helvetica,sans-Serif" font-size="10.00">pdal::Options::getValues</text>
</a>
</g>
</g>
<!-- Node29&#45;&gt;Node34 -->
<g id="edge34" class="edge"><title>Node29&#45;&gt;Node34</title>
<path fill="none" stroke="midnightblue" d="M564.6,-228.633C569.527,-226.082 574.091,-222.917 578,-219 627.04,-169.86 565.293,-116.471 614,-67 615.608,-65.3669 617.335,-63.867 619.157,-62.4899"/>
<polygon fill="midnightblue" stroke="midnightblue" points="621.032,-65.4461 627.691,-57.206 617.347,-59.4946 621.032,-65.4461"/>
</g>
<!-- Node35 -->
<g id="node35" class="node"><title>Node35</title>
<g id="a_node35"><a xlink:href="classpdal_1_1Options.html#aab2dd4f9208512ad8c38a71ad9d2c98b" target="_top" xlink:title="pdal::Options::addConditional">
<polygon fill="white" stroke="black" points="617.5,-76.5 617.5,-95.5 762.5,-95.5 762.5,-76.5 617.5,-76.5"/>
<text text-anchor="middle" x="690" y="-83.5" font-family="Helvetica,sans-Serif" font-size="10.00">pdal::Options::addConditional</text>
</a>
</g>
</g>
<!-- Node29&#45;&gt;Node35 -->
<g id="edge35" class="edge"><title>Node29&#45;&gt;Node35</title>
<path fill="none" stroke="midnightblue" d="M564.296,-228.318C569.288,-225.835 573.95,-222.771 578,-219 616.886,-182.792 575.36,-141.47 614,-105 615.667,-103.427 617.444,-101.979 619.311,-100.647"/>
<polygon fill="midnightblue" stroke="midnightblue" points="621.166,-103.616 627.995,-95.5158 617.605,-97.5897 621.166,-103.616"/>
</g>
<!-- Node36 -->
<g id="node36" class="node"><title>Node36</title>
<g id="a_node36"><a xlink:href="classpdal_1_1Options.html#a541bdbfe72511dad8a22236f0a3cb2ab" target="_top" xlink:title="pdal::Options::fromFile">
<polygon fill="white" stroke="black" points="632,-190.5 632,-209.5 748,-209.5 748,-190.5 632,-190.5"/>
<text text-anchor="middle" x="690" y="-197.5" font-family="Helvetica,sans-Serif" font-size="10.00">pdal::Options::fromFile</text>
</a>
</g>
</g>
<!-- Node29&#45;&gt;Node36 -->
<g id="edge38" class="edge"><title>Node29&#45;&gt;Node36</title>
<path fill="none" stroke="midnightblue" d="M546.571,-228.411C572.276,-223.284 604.113,-216.933 631.164,-211.537"/>
<polygon fill="midnightblue" stroke="midnightblue" points="632.152,-214.909 641.274,-209.52 630.783,-208.044 632.152,-214.909"/>
</g>
<!-- Node40 -->
<g id="node40" class="node"><title>Node40</title>
<g id="a_node40"><a xlink:href="classpdal_1_1Options.html#a0d9ebe7f77b36dea85b51eb0098a5df0" target="_top" xlink:title="pdal::Options::remove">
<polygon fill="white" stroke="black" points="633.5,-152.5 633.5,-171.5 746.5,-171.5 746.5,-152.5 633.5,-152.5"/>
<text text-anchor="middle" x="690" y="-159.5" font-family="Helvetica,sans-Serif" font-size="10.00">pdal::Options::remove</text>
</a>
</g>
</g>
<!-- Node29&#45;&gt;Node40 -->
<g id="edge43" class="edge"><title>Node29&#45;&gt;Node40</title>
<path fill="none" stroke="midnightblue" d="M556.067,-228.47C563.716,-226.004 571.24,-222.902 578,-219 598.149,-207.37 593.93,-192.766 614,-181 617.715,-178.822 621.676,-176.891 625.763,-175.18"/>
<polygon fill="midnightblue" stroke="midnightblue" points="627.317,-178.337 635.472,-171.574 624.879,-171.775 627.317,-178.337"/>
</g>
<!-- Node41 -->
<g id="node41" class="node"><title>Node41</title>
<g id="a_node41"><a xlink:href="classpdal_1_1Options.html#afb18dcc4f3883b8413171db00482959c" target="_top" xlink:title="pdal::Options::toCommandLine">
<polygon fill="white" stroke="red" points="614,-114.5 614,-133.5 766,-133.5 766,-114.5 614,-114.5"/>
<text text-anchor="middle" x="690" y="-121.5" font-family="Helvetica,sans-Serif" font-size="10.00">pdal::Options::toCommandLine</text>
</a>
</g>
</g>
<!-- Node29&#45;&gt;Node41 -->
<g id="edge45" class="edge"><title>Node29&#45;&gt;Node41</title>
<path fill="none" stroke="midnightblue" d="M562.183,-228.412C567.871,-225.933 573.261,-222.844 578,-219 607.027,-195.455 585.133,-166.741 614,-143 616.042,-141.32 618.214,-139.786 620.484,-138.386"/>
<polygon fill="midnightblue" stroke="midnightblue" points="622.393,-141.338 629.652,-133.62 619.165,-135.127 622.393,-141.338"/>
</g>
<!-- Node42 -->
<g id="node42" class="node"><title>Node42</title>
<g id="a_node42"><a xlink:href="classpdal_1_1Stage.html#ab94db25b14b94de1f62f9738327accd2" target="_top" xlink:title="pdal::Stage::setupLog">
<polygon fill="white" stroke="black" points="634,-342.5 634,-361.5 746,-361.5 746,-342.5 634,-342.5"/>
<text text-anchor="middle" x="690" y="-349.5" font-family="Helvetica,sans-Serif" font-size="10.00">pdal::Stage::setupLog</text>
</a>
</g>
</g>
<!-- Node29&#45;&gt;Node42 -->
<g id="edge47" class="edge"><title>Node29&#45;&gt;Node42</title>
<path fill="none" stroke="midnightblue" d="M554.562,-247.587C562.675,-250.052 570.731,-253.139 578,-257 597.169,-267.182 597.63,-275.747 614,-290 632.213,-305.857 653.471,-323.337 668.694,-335.683"/>
<polygon fill="midnightblue" stroke="midnightblue" points="666.914,-338.744 676.892,-342.307 671.314,-333.3 666.914,-338.744"/>
</g>
<!-- Node31 -->
<g id="node31" class="node"><title>Node31</title>
<g id="a_node31"><a xlink:href="classpdal_1_1Stage.html#a3f15d8fc5456be812aafc84000d8e621" target="_top" xlink:title="pdal::Stage::addArgs">
<polygon fill="white" stroke="black" points="817.5,-228.5 817.5,-247.5 925.5,-247.5 925.5,-228.5 817.5,-228.5"/>
<text text-anchor="middle" x="871.5" y="-235.5" font-family="Helvetica,sans-Serif" font-size="10.00">pdal::Stage::addArgs</text>
</a>
</g>
</g>
<!-- Node30&#45;&gt;Node31 -->
<g id="edge31" class="edge"><title>Node30&#45;&gt;Node31</title>
<path fill="none" stroke="midnightblue" d="M749.775,-238C768.15,-238 788.5,-238 807.175,-238"/>
<polygon fill="midnightblue" stroke="midnightblue" points="807.354,-241.5 817.354,-238 807.354,-234.5 807.354,-241.5"/>
</g>
<!-- Node30&#45;&gt;Node32 -->
<g id="edge32" class="edge"><title>Node30&#45;&gt;Node32</title>
<path fill="none" stroke="midnightblue" d="M731.673,-247.518C743.205,-251.131 755.476,-255.893 766,-262 784.773,-272.894 783.017,-284.475 802,-295 805.994,-297.214 810.264,-299.185 814.647,-300.937"/>
<polygon fill="midnightblue" stroke="midnightblue" points="813.765,-304.34 824.36,-304.432 816.135,-297.753 813.765,-304.34"/>
</g>
<!-- Node33 -->
<g id="node33" class="node"><title>Node33</title>
<g id="a_node33"><a xlink:href="classpdal_1_1Stage.html#ae89a62fb39c52a2067fc318359065625" target="_top" xlink:title="pdal::Stage::l_addArgs">
<polygon fill="white" stroke="red" points="813.5,-266.5 813.5,-285.5 929.5,-285.5 929.5,-266.5 813.5,-266.5"/>
<text text-anchor="middle" x="871.5" y="-273.5" font-family="Helvetica,sans-Serif" font-size="10.00">pdal::Stage::l_addArgs</text>
</a>
</g>
</g>
<!-- Node30&#45;&gt;Node33 -->
<g id="edge33" class="edge"><title>Node30&#45;&gt;Node33</title>
<path fill="none" stroke="midnightblue" d="M736.295,-247.589C760.409,-252.694 790.251,-259.011 815.667,-264.392"/>
<polygon fill="midnightblue" stroke="midnightblue" points="815.022,-267.833 825.53,-266.48 816.472,-260.985 815.022,-267.833"/>
</g>
<!-- Node35&#45;&gt;Node4 -->
<g id="edge36" class="edge"><title>Node35&#45;&gt;Node4</title>
<path fill="none" stroke="midnightblue" d="M730.85,-76.4846C742.249,-73.606 754.656,-70.3226 766,-67 782.185,-62.2592 785.869,-59.9222 802,-55 809.47,-52.7207 817.432,-50.4073 825.187,-48.2159"/>
<polygon fill="midnightblue" stroke="midnightblue" points="826.158,-51.5789 834.847,-45.5171 824.274,-44.8371 826.158,-51.5789"/>
</g>
<!-- Node35&#45;&gt;Node9 -->
<g id="edge37" class="edge"><title>Node35&#45;&gt;Node9</title>
<path fill="none" stroke="midnightblue" d="M762.717,-81.2055C776.257,-80.3004 790.368,-79.357 803.748,-78.4625"/>
<polygon fill="midnightblue" stroke="midnightblue" points="804.072,-81.9488 813.816,-77.7895 803.605,-74.9644 804.072,-81.9488"/>
</g>
<!-- Node37 -->
<g id="node37" class="node"><title>Node37</title>
<g id="a_node37"><a xlink:href="namespacepdal_1_1FileUtils.html#ae2b8f1ddc38b0033b685a0bde6106ba1" target="_top" xlink:title="pdal::FileUtils::fileExists">
<polygon fill="white" stroke="red" points="810,-152.5 810,-171.5 933,-171.5 933,-152.5 810,-152.5"/>
<text text-anchor="middle" x="871.5" y="-159.5" font-family="Helvetica,sans-Serif" font-size="10.00">pdal::FileUtils::fileExists</text>
</a>
</g>
</g>
<!-- Node36&#45;&gt;Node37 -->
<g id="edge39" class="edge"><title>Node36&#45;&gt;Node37</title>
<path fill="none" stroke="midnightblue" d="M736.295,-190.411C760.409,-185.306 790.251,-178.989 815.667,-173.608"/>
<polygon fill="midnightblue" stroke="midnightblue" points="816.472,-177.015 825.53,-171.52 815.022,-170.167 816.472,-177.015"/>
</g>
<!-- Node38 -->
<g id="node38" class="node"><title>Node38</title>
<g id="a_node38"><a xlink:href="namespacepdal_1_1FileUtils.html#a183613921413dc5f8fe3efe45763945c" target="_top" xlink:title="pdal::FileUtils::readFile\lIntoString">
<polygon fill="white" stroke="red" points="813,-103 813,-133 930,-133 930,-103 813,-103"/>
<text text-anchor="start" x="821" y="-121" font-family="Helvetica,sans-Serif" font-size="10.00">pdal::FileUtils::readFile</text>
<text text-anchor="middle" x="871.5" y="-110" font-family="Helvetica,sans-Serif" font-size="10.00">IntoString</text>
</a>
</g>
</g>
<!-- Node36&#45;&gt;Node38 -->
<g id="edge40" class="edge"><title>Node36&#45;&gt;Node38</title>
<path fill="none" stroke="midnightblue" d="M744.528,-190.426C752.013,-187.962 759.395,-184.872 766,-181 786.07,-169.234 782.555,-155.772 802,-143 804.946,-141.065 808.062,-139.255 811.275,-137.566"/>
<polygon fill="midnightblue" stroke="midnightblue" points="813.031,-140.605 820.53,-133.122 810.001,-134.295 813.031,-140.605"/>
</g>
<!-- Node39 -->
<g id="node39" class="node"><title>Node39</title>
<g id="a_node39"><a xlink:href="namespacepdal_1_1Utils.html#a9bda8c5dbe5ef7cf66e99ba022184934" target="_top" xlink:title="pdal::Utils::extractSpaces">
<polygon fill="white" stroke="black" points="977,-146.5 977,-165.5 1107,-165.5 1107,-146.5 977,-146.5"/>
<text text-anchor="middle" x="1042" y="-153.5" font-family="Helvetica,sans-Serif" font-size="10.00">pdal::Utils::extractSpaces</text>
</a>
</g>
</g>
<!-- Node36&#45;&gt;Node39 -->
<g id="edge41" class="edge"><title>Node36&#45;&gt;Node39</title>
<path fill="none" stroke="midnightblue" d="M748.417,-198.394C799.299,-196.316 875.472,-191.603 941,-181 960.198,-177.894 981.116,-172.92 998.836,-168.223"/>
<polygon fill="midnightblue" stroke="midnightblue" points="1000.13,-171.5 1008.86,-165.507 998.294,-164.744 1000.13,-171.5"/>
</g>
<!-- Node39&#45;&gt;Node6 -->
<g id="edge42" class="edge"><title>Node39&#45;&gt;Node6</title>
<path fill="none" stroke="midnightblue" d="M1079.53,-146.491C1101.71,-140.716 1130.25,-133.289 1154.03,-127.098"/>
<polygon fill="midnightblue" stroke="midnightblue" points="1155.1,-130.435 1163.9,-124.529 1153.34,-123.661 1155.1,-130.435"/>
</g>
<!-- Node40&#45;&gt;Node9 -->
<g id="edge44" class="edge"><title>Node40&#45;&gt;Node9</title>
<path fill="none" stroke="midnightblue" d="M746.584,-152.66C753.451,-150.166 760.114,-147.005 766,-143 788.64,-127.596 779.535,-108.657 802,-93 804.871,-90.9988 807.947,-89.2078 811.147,-87.6051"/>
<polygon fill="midnightblue" stroke="midnightblue" points="812.652,-90.7671 820.426,-83.5681 809.86,-84.3483 812.652,-90.7671"/>
</g>
<!-- Node42&#45;&gt;Node20 -->
<g id="edge49" class="edge"><title>Node42&#45;&gt;Node20</title>
<path fill="none" stroke="midnightblue" d="M746.166,-359.921C753.334,-362.625 760.19,-366.222 766,-371 794.867,-394.741 779.349,-417.27 802,-447 812.768,-461.133 827.407,-474.304 840.389,-484.6"/>
<polygon fill="midnightblue" stroke="midnightblue" points="838.562,-487.61 848.622,-490.932 842.829,-482.061 838.562,-487.61"/>
</g>
<!-- Node42&#45;&gt;Node22 -->
<g id="edge51" class="edge"><title>Node42&#45;&gt;Node22</title>
<path fill="none" stroke="midnightblue" d="M746.321,-352C765.531,-352 787.222,-352 807.038,-352"/>
<polygon fill="midnightblue" stroke="midnightblue" points="807.207,-355.5 817.207,-352 807.207,-348.5 807.207,-355.5"/>
</g>
<!-- Node42&#45;&gt;Node23 -->
<g id="edge50" class="edge"><title>Node42&#45;&gt;Node23</title>
<path fill="none" stroke="midnightblue" d="M736.395,-361.547C746.301,-364.168 756.621,-367.322 766,-371 795.197,-382.45 826.501,-400.355 847.153,-413.039"/>
<polygon fill="midnightblue" stroke="midnightblue" points="845.509,-416.138 855.847,-418.457 849.212,-410.198 845.509,-416.138"/>
</g>
<!-- Node42&#45;&gt;Node32 -->
<g id="edge48" class="edge"><title>Node42&#45;&gt;Node32</title>
<path fill="none" stroke="midnightblue" d="M736.295,-342.411C760.409,-337.306 790.251,-330.989 815.667,-325.608"/>
<polygon fill="midnightblue" stroke="midnightblue" points="816.472,-329.015 825.53,-323.52 815.022,-322.167 816.472,-329.015"/>
</g>
<!-- Node44&#45;&gt;Node32 -->
<g id="edge56" class="edge"><title>Node44&#45;&gt;Node32</title>
<path fill="none" stroke="midnightblue" d="M555.404,-314C622.719,-314 734.548,-314 805.294,-314"/>
<polygon fill="midnightblue" stroke="midnightblue" points="805.423,-317.5 815.423,-314 805.423,-310.5 805.423,-317.5"/>
</g>
<!-- Node45 -->
<g id="node45" class="node"><title>Node45</title>
<g id="a_node45"><a xlink:href="classpdal_1_1BasePointTable.html#a03429472e71e5dd323bc92319f4a9df6" target="_top" xlink:title="pdal::BasePointTable\l::metadata">
<polygon fill="white" stroke="black" points="635,-381 635,-411 745,-411 745,-381 635,-381"/>
<text text-anchor="start" x="643" y="-399" font-family="Helvetica,sans-Serif" font-size="10.00">pdal::BasePointTable</text>
<text text-anchor="middle" x="690" y="-388" font-family="Helvetica,sans-Serif" font-size="10.00">::metadata</text>
</a>
</g>
</g>
<!-- Node44&#45;&gt;Node45 -->
<g id="edge54" class="edge"><title>Node44&#45;&gt;Node45</title>
<path fill="none" stroke="midnightblue" d="M555.232,-323.263C563.167,-325.771 570.995,-328.956 578,-333 598.149,-344.63 594.377,-358.503 614,-371 617.582,-373.281 621.393,-375.376 625.326,-377.296"/>
<polygon fill="midnightblue" stroke="midnightblue" points="624.115,-380.588 634.674,-381.465 626.967,-374.195 624.115,-380.588"/>
</g>
<!-- Node46 -->
<g id="node46" class="node"><title>Node46</title>
<g id="a_node46"><a xlink:href="classpdal_1_1MetadataNode.html#af2c1c5d91f6ab47a804aa8a0a1b043c2" target="_top" xlink:title="pdal::MetadataNode::add">
<polygon fill="white" stroke="black" points="627,-468.5 627,-487.5 753,-487.5 753,-468.5 627,-468.5"/>
<text text-anchor="middle" x="690" y="-475.5" font-family="Helvetica,sans-Serif" font-size="10.00">pdal::MetadataNode::add</text>
</a>
</g>
</g>
<!-- Node44&#45;&gt;Node46 -->
<g id="edge55" class="edge"><title>Node44&#45;&gt;Node46</title>
<path fill="none" stroke="midnightblue" d="M555.32,-319.715C563.704,-322.665 571.644,-326.916 578,-333 620.073,-373.273 572.201,-418.444 614,-459 615.482,-460.438 617.057,-461.772 618.708,-463.009"/>
<polygon fill="midnightblue" stroke="midnightblue" points="617.166,-466.169 627.519,-468.421 620.829,-460.205 617.166,-466.169"/>
</g>
<!-- Node47 -->
<g id="node47" class="node"><title>Node47</title>
<g id="a_node47"><a xlink:href="classpdal_1_1Stage.html#a0d7c0bb23ed18577b1aa58b02448487f" target="_top" xlink:title="pdal::Stage::writerInitialize">
<polygon fill="white" stroke="black" points="624,-430.5 624,-449.5 756,-449.5 756,-430.5 624,-430.5"/>
<text text-anchor="middle" x="690" y="-437.5" font-family="Helvetica,sans-Serif" font-size="10.00">pdal::Stage::writerInitialize</text>
</a>
</g>
</g>
<!-- Node44&#45;&gt;Node47 -->
<g id="edge57" class="edge"><title>Node44&#45;&gt;Node47</title>
<path fill="none" stroke="midnightblue" d="M555.149,-320.496C563.455,-323.36 571.416,-327.38 578,-333 609.829,-360.166 582.527,-392.422 614,-420 616.483,-422.176 619.178,-424.118 622.021,-425.852"/>
<polygon fill="midnightblue" stroke="midnightblue" points="620.441,-428.976 630.933,-430.453 623.653,-422.756 620.441,-428.976"/>
</g>
</g>
</svg>
