<?xml version="1.0" encoding="UTF-8" standalone="no"?>
<!DOCTYPE svg PUBLIC "-//W3C//DTD SVG 1.1//EN"
 "http://www.w3.org/Graphics/SVG/1.1/DTD/svg11.dtd">
<!-- Generated by graphviz version 2.38.0 (20140413.2041)
 -->
<!-- Title: pdal::Arg::setOptionalPositional Pages: 1 -->
<svg width="501pt" height="166pt"
 viewBox="0.00 0.00 501.00 165.50" xmlns="http://www.w3.org/2000/svg" xmlns:xlink="http://www.w3.org/1999/xlink">
<g id="graph0" class="graph" transform="scale(1 1) rotate(0) translate(4 161.5)">
<title>pdal::Arg::setOptionalPositional</title>
<polygon fill="white" stroke="none" points="-4,4 -4,-161.5 497,-161.5 497,4 -4,4"/>
<!-- Node1 -->
<g id="node1" class="node"><title>Node1</title>
<polygon fill="#bfbfbf" stroke="black" points="0,-66.5 0,-85.5 154,-85.5 154,-66.5 0,-66.5"/>
<text text-anchor="middle" x="77" y="-73.5" font-family="Helvetica,sans-Serif" font-size="10.00">pdal::Arg::setOptionalPositional</text>
</g>
<!-- Node2 -->
<g id="node2" class="node"><title>Node2</title>
<g id="a_node2"><a xlink:href="classpdal_1_1PipelineKernel.html#a155cc56428725641fa476db77b3ca1fb" target="_top" xlink:title="pdal::PipelineKernel\l::addSwitches">
<polygon fill="white" stroke="black" points="212,-127 212,-157 315,-157 315,-127 212,-127"/>
<text text-anchor="start" x="220" y="-145" font-family="Helvetica,sans-Serif" font-size="10.00">pdal::PipelineKernel</text>
<text text-anchor="middle" x="263.5" y="-134" font-family="Helvetica,sans-Serif" font-size="10.00">::addSwitches</text>
</a>
</g>
</g>
<!-- Node1&#45;&gt;Node2 -->
<g id="edge1" class="edge"><title>Node1&#45;&gt;Node2</title>
<path fill="none" stroke="midnightblue" d="M113.343,-89.1314C135.356,-97.2622 164.282,-107.86 190,-117 199.158,-120.255 208.988,-123.686 218.363,-126.929"/>
<polygon fill="midnightblue" stroke="midnightblue" points="114.344,-85.7703 103.751,-85.5833 111.916,-92.3355 114.344,-85.7703"/>
</g>
<!-- Node3 -->
<g id="node3" class="node"><title>Node3</title>
<g id="a_node3"><a xlink:href="classpdal_1_1InfoKernel.html#a7e54dd349c99c13e4f1ed9fc92e6c51a" target="_top" xlink:title="pdal::InfoKernel::addSwitches">
<polygon fill="white" stroke="black" points="190,-88.5 190,-107.5 337,-107.5 337,-88.5 190,-88.5"/>
<text text-anchor="middle" x="263.5" y="-95.5" font-family="Helvetica,sans-Serif" font-size="10.00">pdal::InfoKernel::addSwitches</text>
</a>
</g>
</g>
<!-- Node1&#45;&gt;Node3 -->
<g id="edge2" class="edge"><title>Node1&#45;&gt;Node3</title>
<path fill="none" stroke="midnightblue" d="M164.144,-86.2719C172.735,-87.2963 181.398,-88.3292 189.831,-89.3349"/>
<polygon fill="midnightblue" stroke="midnightblue" points="164.453,-82.784 154.108,-85.0753 163.624,-89.7347 164.453,-82.784"/>
</g>
<!-- Node4 -->
<g id="node4" class="node"><title>Node4</title>
<g id="a_node4"><a xlink:href="classpdal_1_1nitfwrap_1_1NitfWrap.html#abf899b397aff312f6e153a6230a047a4" target="_top" xlink:title="pdal::nitfwrap::NitfWrap\l::parseArgs">
<polygon fill="white" stroke="black" points="203.5,-39 203.5,-69 323.5,-69 323.5,-39 203.5,-39"/>
<text text-anchor="start" x="211.5" y="-57" font-family="Helvetica,sans-Serif" font-size="10.00">pdal::nitfwrap::NitfWrap</text>
<text text-anchor="middle" x="263.5" y="-46" font-family="Helvetica,sans-Serif" font-size="10.00">::parseArgs</text>
</a>
</g>
</g>
<!-- Node1&#45;&gt;Node4 -->
<g id="edge3" class="edge"><title>Node1&#45;&gt;Node4</title>
<path fill="none" stroke="midnightblue" d="M164.219,-65.7192C177.507,-64.1347 190.963,-62.5302 203.477,-61.038"/>
<polygon fill="midnightblue" stroke="midnightblue" points="163.624,-62.2653 154.108,-66.9247 164.453,-69.216 163.624,-62.2653"/>
</g>
<!-- Node6 -->
<g id="node6" class="node"><title>Node6</title>
<g id="a_node6"><a xlink:href="ProgramArgsTest_8cpp.html#a01ef3657a88a8b5b41fd914ea2abe362" target="_top" xlink:title="TEST">
<polygon fill="white" stroke="black" points="242.5,-0.5 242.5,-19.5 284.5,-19.5 284.5,-0.5 242.5,-0.5"/>
<text text-anchor="middle" x="263.5" y="-7.5" font-family="Helvetica,sans-Serif" font-size="10.00">TEST</text>
</a>
</g>
</g>
<!-- Node1&#45;&gt;Node6 -->
<g id="edge5" class="edge"><title>Node1&#45;&gt;Node6</title>
<path fill="none" stroke="midnightblue" d="M108.464,-62.3209C130.775,-52.5909 161.932,-39.5965 190,-30 207.42,-24.0441 227.645,-18.5818 242.3,-14.8761"/>
<polygon fill="midnightblue" stroke="midnightblue" points="106.924,-59.1748 99.1791,-66.4045 109.742,-65.5825 106.924,-59.1748"/>
</g>
<!-- Node5 -->
<g id="node5" class="node"><title>Node5</title>
<g id="a_node5"><a xlink:href="classpdal_1_1nitfwrap_1_1NitfWrap.html#a507defc6c08af645c161ee875c58374a" target="_top" xlink:title="pdal::nitfwrap::NitfWrap\l::NitfWrap">
<polygon fill="white" stroke="black" points="373,-39 373,-69 493,-69 493,-39 373,-39"/>
<text text-anchor="start" x="381" y="-57" font-family="Helvetica,sans-Serif" font-size="10.00">pdal::nitfwrap::NitfWrap</text>
<text text-anchor="middle" x="433" y="-46" font-family="Helvetica,sans-Serif" font-size="10.00">::NitfWrap</text>
</a>
</g>
</g>
<!-- Node4&#45;&gt;Node5 -->
<g id="edge4" class="edge"><title>Node4&#45;&gt;Node5</title>
<path fill="none" stroke="midnightblue" d="M333.839,-54C346.82,-54 360.279,-54 372.914,-54"/>
<polygon fill="midnightblue" stroke="midnightblue" points="333.554,-50.5001 323.554,-54 333.554,-57.5001 333.554,-50.5001"/>
</g>
</g>
</svg>
