<?xml version="1.0" encoding="UTF-8" standalone="no"?>
<!DOCTYPE svg PUBLIC "-//W3C//DTD SVG 1.1//EN"
 "http://www.w3.org/Graphics/SVG/1.1/DTD/svg11.dtd">
<!-- Generated by graphviz version 2.38.0 (20140413.2041)
 -->
<!-- Title: pdal::LasReader::header Pages: 1 -->
<svg width="322pt" height="66pt"
 viewBox="0.00 0.00 322.00 66.00" xmlns="http://www.w3.org/2000/svg" xmlns:xlink="http://www.w3.org/1999/xlink">
<g id="graph0" class="graph" transform="scale(1 1) rotate(0) translate(4 62)">
<title>pdal::LasReader::header</title>
<polygon fill="white" stroke="none" points="-4,4 -4,-62 318,-62 318,4 -4,4"/>
<!-- Node1 -->
<g id="node1" class="node"><title>Node1</title>
<polygon fill="#bfbfbf" stroke="black" points="0,-19.5 0,-38.5 123,-38.5 123,-19.5 0,-19.5"/>
<text text-anchor="middle" x="61.5" y="-26.5" font-family="Helvetica,sans-Serif" font-size="10.00">pdal::LasReader::header</text>
</g>
<!-- Node2 -->
<g id="node2" class="node"><title>Node2</title>
<g id="a_node2"><a xlink:href="LasReaderTest_8cpp.html#abb7afe92c00ae82352167ef5a47190e0" target="_top" xlink:title="TEST">
<polygon fill="white" stroke="black" points="176.5,-38.5 176.5,-57.5 218.5,-57.5 218.5,-38.5 176.5,-38.5"/>
<text text-anchor="middle" x="197.5" y="-45.5" font-family="Helvetica,sans-Serif" font-size="10.00">TEST</text>
</a>
</g>
</g>
<!-- Node1&#45;&gt;Node2 -->
<g id="edge1" class="edge"><title>Node1&#45;&gt;Node2</title>
<path fill="none" stroke="midnightblue" d="M133.56,-39.0756C149.274,-41.3037 164.688,-43.4894 176.33,-45.1401"/>
<polygon fill="midnightblue" stroke="midnightblue" points="133.619,-35.5491 123.227,-37.6105 132.637,-42.4798 133.619,-35.5491"/>
</g>
<!-- Node3 -->
<g id="node3" class="node"><title>Node3</title>
<g id="a_node3"><a xlink:href="LasReaderTest_8cpp.html#aa76b17cddb63cde84b93800acc213041" target="_top" xlink:title="test_a_format">
<polygon fill="white" stroke="black" points="159,-0.5 159,-19.5 236,-19.5 236,-0.5 159,-0.5"/>
<text text-anchor="middle" x="197.5" y="-7.5" font-family="Helvetica,sans-Serif" font-size="10.00">test_a_format</text>
</a>
</g>
</g>
<!-- Node1&#45;&gt;Node3 -->
<g id="edge2" class="edge"><title>Node1&#45;&gt;Node3</title>
<path fill="none" stroke="midnightblue" d="M133.254,-18.9677C142.131,-17.709 150.92,-16.4628 158.995,-15.3178"/>
<polygon fill="midnightblue" stroke="midnightblue" points="132.637,-15.5202 123.227,-20.3895 133.619,-22.4509 132.637,-15.5202"/>
</g>
<!-- Node4 -->
<g id="node4" class="node"><title>Node4</title>
<g id="a_node4"><a xlink:href="LasReaderTest_8cpp.html#abd37167698e2bd335f4e75c21866b7a6" target="_top" xlink:title="TEST">
<polygon fill="white" stroke="black" points="272,-0.5 272,-19.5 314,-19.5 314,-0.5 272,-0.5"/>
<text text-anchor="middle" x="293" y="-7.5" font-family="Helvetica,sans-Serif" font-size="10.00">TEST</text>
</a>
</g>
</g>
<!-- Node3&#45;&gt;Node4 -->
<g id="edge3" class="edge"><title>Node3&#45;&gt;Node4</title>
<path fill="none" stroke="midnightblue" d="M246.357,-10C255.342,-10 264.273,-10 271.82,-10"/>
<polygon fill="midnightblue" stroke="midnightblue" points="246.261,-6.5001 236.261,-10 246.26,-13.5001 246.261,-6.5001"/>
</g>
</g>
</svg>
