<?xml version="1.0" encoding="UTF-8" standalone="no"?>
<!DOCTYPE svg PUBLIC "-//W3C//DTD SVG 1.1//EN"
 "http://www.w3.org/Graphics/SVG/1.1/DTD/svg11.dtd">
<!-- Generated by graphviz version 2.38.0 (20140413.2041)
 -->
<!-- Title: pdal::entwine::Point::scale Pages: 1 -->
<svg width="260pt" height="88pt"
 viewBox="0.00 0.00 260.00 88.00" xmlns="http://www.w3.org/2000/svg" xmlns:xlink="http://www.w3.org/1999/xlink">
<g id="graph0" class="graph" transform="scale(1 1) rotate(0) translate(4 84)">
<title>pdal::entwine::Point::scale</title>
<polygon fill="white" stroke="none" points="-4,4 -4,-84 256,-84 256,4 -4,4"/>
<!-- Node1 -->
<g id="node1" class="node"><title>Node1</title>
<polygon fill="#bfbfbf" stroke="black" points="0,-24.5 0,-54.5 103,-54.5 103,-24.5 0,-24.5"/>
<text text-anchor="start" x="8" y="-42.5" font-family="Helvetica,sans-Serif" font-size="10.00">pdal::entwine::Point</text>
<text text-anchor="middle" x="51.5" y="-31.5" font-family="Helvetica,sans-Serif" font-size="10.00">::scale</text>
</g>
<!-- Node2 -->
<g id="node2" class="node"><title>Node2</title>
<g id="a_node2"><a xlink:href="classpdal_1_1entwine_1_1Point.html#a60c0cf15a49101ebaaa285d1581c74db" target="_top" xlink:title="pdal::entwine::Point\l::scale">
<polygon fill="white" stroke="black" points="144,-49.5 144,-79.5 247,-79.5 247,-49.5 144,-49.5"/>
<text text-anchor="start" x="152" y="-67.5" font-family="Helvetica,sans-Serif" font-size="10.00">pdal::entwine::Point</text>
<text text-anchor="middle" x="195.5" y="-56.5" font-family="Helvetica,sans-Serif" font-size="10.00">::scale</text>
</a>
</g>
</g>
<!-- Node1&#45;&gt;Node2 -->
<g id="edge1" class="edge"><title>Node1&#45;&gt;Node2</title>
<path fill="none" stroke="midnightblue" d="M113.43,-50.2271C123.622,-52.0215 134.097,-53.8657 143.991,-55.6076"/>
<polygon fill="midnightblue" stroke="midnightblue" points="113.82,-46.742 103.364,-48.455 112.606,-53.6359 113.82,-46.742"/>
</g>
<!-- Node3 -->
<g id="node3" class="node"><title>Node3</title>
<g id="a_node3"><a xlink:href="classpdal_1_1entwine_1_1Bounds.html#ab6cbc2cd21e9093a0249542a90774177" target="_top" xlink:title="pdal::entwine::Bounds\l::scale">
<polygon fill="white" stroke="black" points="139,-0.5 139,-30.5 252,-30.5 252,-0.5 139,-0.5"/>
<text text-anchor="start" x="147" y="-18.5" font-family="Helvetica,sans-Serif" font-size="10.00">pdal::entwine::Bounds</text>
<text text-anchor="middle" x="195.5" y="-7.5" font-family="Helvetica,sans-Serif" font-size="10.00">::scale</text>
</a>
</g>
</g>
<!-- Node1&#45;&gt;Node3 -->
<g id="edge2" class="edge"><title>Node1&#45;&gt;Node3</title>
<path fill="none" stroke="midnightblue" d="M113.461,-29.1968C121.842,-27.7802 130.414,-26.3314 138.696,-24.9316"/>
<polygon fill="midnightblue" stroke="midnightblue" points="112.641,-25.7856 103.364,-30.9032 113.808,-32.6877 112.641,-25.7856"/>
</g>
</g>
</svg>
