<?xml version="1.0" encoding="UTF-8" standalone="no"?>
<!DOCTYPE svg PUBLIC "-//W3C//DTD SVG 1.1//EN"
 "http://www.w3.org/Graphics/SVG/1.1/DTD/svg11.dtd">
<!-- Generated by graphviz version 2.38.0 (20140413.2041)
 -->
<!-- Title: pdal::Stage::getSpatialReference Pages: 1 -->
<svg width="512pt" height="1978pt"
 viewBox="0.00 0.00 512.00 1978.00" xmlns="http://www.w3.org/2000/svg" xmlns:xlink="http://www.w3.org/1999/xlink">
<g id="graph0" class="graph" transform="scale(1 1) rotate(0) translate(4 1974)">
<title>pdal::Stage::getSpatialReference</title>
<polygon fill="white" stroke="none" points="-4,4 -4,-1974 508,-1974 508,4 -4,4"/>
<!-- Node1 -->
<g id="node1" class="node"><title>Node1</title>
<polygon fill="#bfbfbf" stroke="black" points="0,-126.5 0,-145.5 161,-145.5 161,-126.5 0,-126.5"/>
<text text-anchor="middle" x="80.5" y="-133.5" font-family="Helvetica,sans-Serif" font-size="10.00">pdal::Stage::getSpatialReference</text>
</g>
<!-- Node2 -->
<g id="node2" class="node"><title>Node2</title>
<g id="a_node2"><a xlink:href="classpdal_1_1Stage.html#a1615c4aa5ec5e48f90d73f0e7a796935" target="_top" xlink:title="pdal::Stage::execute">
<polygon fill="white" stroke="black" points="212,-1070.5 212,-1089.5 319,-1089.5 319,-1070.5 212,-1070.5"/>
<text text-anchor="middle" x="265.5" y="-1077.5" font-family="Helvetica,sans-Serif" font-size="10.00">pdal::Stage::execute</text>
</a>
</g>
</g>
<!-- Node1&#45;&gt;Node2 -->
<g id="edge1" class="edge"><title>Node1&#45;&gt;Node2</title>
<path fill="none" stroke="midnightblue" d="M85.3478,-155.849C109.979,-282.908 245.075,-979.798 262.621,-1070.31"/>
<polygon fill="midnightblue" stroke="midnightblue" points="88.7101,-154.802 83.3708,-145.651 81.838,-156.134 88.7101,-154.802"/>
</g>
<!-- Node43 -->
<g id="node43" class="node"><title>Node43</title>
<g id="a_node43"><a xlink:href="classpdal_1_1PgReader.html#aa331a66a5721b67033658624135914d5" target="_top" xlink:title="pdal::PgReader::initialize">
<polygon fill="white" stroke="black" points="203,-202.5 203,-221.5 328,-221.5 328,-202.5 203,-202.5"/>
<text text-anchor="middle" x="265.5" y="-209.5" font-family="Helvetica,sans-Serif" font-size="10.00">pdal::PgReader::initialize</text>
</a>
</g>
</g>
<!-- Node1&#45;&gt;Node43 -->
<g id="edge43" class="edge"><title>Node1&#45;&gt;Node43</title>
<path fill="none" stroke="midnightblue" d="M107.066,-150.321C130.074,-162.793 165.073,-180.749 197,-193 206.206,-196.533 216.345,-199.732 225.903,-202.455"/>
<polygon fill="midnightblue" stroke="midnightblue" points="108.73,-147.242 98.2784,-145.508 105.367,-153.381 108.73,-147.242"/>
</g>
<!-- Node44 -->
<g id="node44" class="node"><title>Node44</title>
<g id="a_node44"><a xlink:href="classpdal_1_1BpfReader.html#accb0283f384ad927abc5f37881be748c" target="_top" xlink:title="pdal::BpfReader::inspect">
<polygon fill="white" stroke="black" points="203,-164.5 203,-183.5 328,-183.5 328,-164.5 203,-164.5"/>
<text text-anchor="middle" x="265.5" y="-171.5" font-family="Helvetica,sans-Serif" font-size="10.00">pdal::BpfReader::inspect</text>
</a>
</g>
</g>
<!-- Node1&#45;&gt;Node44 -->
<g id="edge44" class="edge"><title>Node1&#45;&gt;Node44</title>
<path fill="none" stroke="midnightblue" d="M137.753,-147.681C163.705,-153.07 194.122,-159.386 218.653,-164.48"/>
<polygon fill="midnightblue" stroke="midnightblue" points="138.181,-144.195 127.679,-145.589 136.758,-151.049 138.181,-144.195"/>
</g>
<!-- Node45 -->
<g id="node45" class="node"><title>Node45</title>
<g id="a_node45"><a xlink:href="classpdal_1_1LasWriter.html#a76f6b960b128ccdb8e3e8db69eff445b" target="_top" xlink:title="pdal::LasWriter::prepOutput">
<polygon fill="white" stroke="black" points="197,-126.5 197,-145.5 334,-145.5 334,-126.5 197,-126.5"/>
<text text-anchor="middle" x="265.5" y="-133.5" font-family="Helvetica,sans-Serif" font-size="10.00">pdal::LasWriter::prepOutput</text>
</a>
</g>
</g>
<!-- Node1&#45;&gt;Node45 -->
<g id="edge45" class="edge"><title>Node1&#45;&gt;Node45</title>
<path fill="none" stroke="midnightblue" d="M171.276,-136C179.853,-136 188.45,-136 196.766,-136"/>
<polygon fill="midnightblue" stroke="midnightblue" points="171.234,-132.5 161.234,-136 171.234,-139.5 171.234,-132.5"/>
</g>
<!-- Node48 -->
<g id="node48" class="node"><title>Node48</title>
<g id="a_node48"><a xlink:href="classpdal_1_1MergeFilter.html#a0264a972f49b46f481c06638389e3bdd" target="_top" xlink:title="pdal::MergeFilter::\lready">
<polygon fill="white" stroke="black" points="218,-77 218,-107 313,-107 313,-77 218,-77"/>
<text text-anchor="start" x="226" y="-95" font-family="Helvetica,sans-Serif" font-size="10.00">pdal::MergeFilter::</text>
<text text-anchor="middle" x="265.5" y="-84" font-family="Helvetica,sans-Serif" font-size="10.00">ready</text>
</a>
</g>
</g>
<!-- Node1&#45;&gt;Node48 -->
<g id="edge48" class="edge"><title>Node1&#45;&gt;Node48</title>
<path fill="none" stroke="midnightblue" d="M131.209,-124.048C158.159,-117.568 191.27,-109.607 217.748,-103.241"/>
<polygon fill="midnightblue" stroke="midnightblue" points="130.113,-120.712 121.208,-126.453 131.749,-127.518 130.113,-120.712"/>
</g>
<!-- Node49 -->
<g id="node49" class="node"><title>Node49</title>
<g id="a_node49"><a xlink:href="classpdal_1_1MergeFilter.html#a6df04ca27666b985b177b39298399c84" target="_top" xlink:title="pdal::MergeFilter::run">
<polygon fill="white" stroke="black" points="211,-38.5 211,-57.5 320,-57.5 320,-38.5 211,-38.5"/>
<text text-anchor="middle" x="265.5" y="-45.5" font-family="Helvetica,sans-Serif" font-size="10.00">pdal::MergeFilter::run</text>
</a>
</g>
</g>
<!-- Node1&#45;&gt;Node49 -->
<g id="edge49" class="edge"><title>Node1&#45;&gt;Node49</title>
<path fill="none" stroke="midnightblue" d="M103.209,-120.643C125.753,-105.279 162.492,-81.8526 197,-67 205.499,-63.3421 214.9,-60.1815 223.92,-57.5454"/>
<polygon fill="midnightblue" stroke="midnightblue" points="100.981,-117.927 94.7413,-126.49 104.959,-123.687 100.981,-117.927"/>
</g>
<!-- Node50 -->
<g id="node50" class="node"><title>Node50</title>
<g id="a_node50"><a xlink:href="NitfReaderTest_8cpp.html#aad1742d471c72bddbd0f815c33f79c51" target="_top" xlink:title="TEST">
<polygon fill="white" stroke="black" points="244.5,-0.5 244.5,-19.5 286.5,-19.5 286.5,-0.5 244.5,-0.5"/>
<text text-anchor="middle" x="265.5" y="-7.5" font-family="Helvetica,sans-Serif" font-size="10.00">TEST</text>
</a>
</g>
</g>
<!-- Node1&#45;&gt;Node50 -->
<g id="edge50" class="edge"><title>Node1&#45;&gt;Node50</title>
<path fill="none" stroke="midnightblue" d="M95.5712,-118.572C115.634,-94.8602 154.738,-52.6839 197,-29 211.762,-20.7272 230.393,-15.8367 244.34,-13.0944"/>
<polygon fill="midnightblue" stroke="midnightblue" points="92.7642,-116.473 89.0707,-126.403 98.1506,-120.944 92.7642,-116.473"/>
</g>
<!-- Node2&#45;&gt;Node2 -->
<g id="edge18" class="edge"><title>Node2&#45;&gt;Node2</title>
<path fill="none" stroke="midnightblue" d="M233.689,-1098.27C234.596,-1103.74 245.199,-1108 265.5,-1108 295.715,-1108 304.449,-1098.57 291.702,-1089.76"/>
<polygon fill="midnightblue" stroke="midnightblue" points="236.721,-1100.03 239.298,-1089.76 230.875,-1096.18 236.721,-1100.03"/>
</g>
<!-- Node3 -->
<g id="node3" class="node"><title>Node3</title>
<g id="a_node3"><a xlink:href="classSupport.html#a0f6b5ed9b20a213a0607f3b989b81cec" target="_top" xlink:title="Support::checkXYZ">
<polygon fill="white" stroke="red" points="386,-1950.5 386,-1969.5 488,-1969.5 488,-1950.5 386,-1950.5"/>
<text text-anchor="middle" x="437" y="-1957.5" font-family="Helvetica,sans-Serif" font-size="10.00">Support::checkXYZ</text>
</a>
</g>
</g>
<!-- Node2&#45;&gt;Node3 -->
<g id="edge2" class="edge"><title>Node2&#45;&gt;Node3</title>
<path fill="none" stroke="midnightblue" d="M267.586,-1099.89C274.462,-1222.68 313.463,-1874.56 370,-1941 374.25,-1945.99 379.72,-1949.72 385.691,-1952.49"/>
<polygon fill="midnightblue" stroke="midnightblue" points="271.07,-1099.49 267.022,-1089.69 264.08,-1099.87 271.07,-1099.49"/>
</g>
<!-- Node4 -->
<g id="node4" class="node"><title>Node4</title>
<g id="a_node4"><a xlink:href="classGDALReaderTypeTest.html#a7ccb2f33deda3d1840509c81f3718ca8" target="_top" xlink:title="GDALReaderTypeTest\l::compare">
<polygon fill="white" stroke="black" points="379,-1901 379,-1931 495,-1931 495,-1901 379,-1901"/>
<text text-anchor="start" x="387" y="-1919" font-family="Helvetica,sans-Serif" font-size="10.00">GDALReaderTypeTest</text>
<text text-anchor="middle" x="437" y="-1908" font-family="Helvetica,sans-Serif" font-size="10.00">::compare</text>
</a>
</g>
</g>
<!-- Node2&#45;&gt;Node4 -->
<g id="edge3" class="edge"><title>Node2&#45;&gt;Node4</title>
<path fill="none" stroke="midnightblue" d="M266.356,-1099.98C265.933,-1212.14 269.08,-1763.04 370,-1891 373.035,-1894.85 376.733,-1898.1 380.813,-1900.86"/>
<polygon fill="midnightblue" stroke="midnightblue" points="269.857,-1099.78 266.41,-1089.76 262.857,-1099.74 269.857,-1099.78"/>
</g>
<!-- Node5 -->
<g id="node5" class="node"><title>Node5</title>
<g id="a_node5"><a xlink:href="OCITest_8cpp.html#aa992a42d3b52c376e3902f1412402781" target="_top" xlink:title="compare">
<polygon fill="white" stroke="red" points="410,-1862.5 410,-1881.5 464,-1881.5 464,-1862.5 410,-1862.5"/>
<text text-anchor="middle" x="437" y="-1869.5" font-family="Helvetica,sans-Serif" font-size="10.00">compare</text>
</a>
</g>
</g>
<!-- Node2&#45;&gt;Node5 -->
<g id="edge4" class="edge"><title>Node2&#45;&gt;Node5</title>
<path fill="none" stroke="midnightblue" d="M266.333,-1099.85C265.816,-1209 268.667,-1735.53 370,-1853 379.814,-1864.38 395.955,-1869.16 409.819,-1871.08"/>
<polygon fill="midnightblue" stroke="midnightblue" points="269.834,-1099.64 266.398,-1089.62 262.834,-1099.6 269.834,-1099.64"/>
</g>
<!-- Node6 -->
<g id="node6" class="node"><title>Node6</title>
<g id="a_node6"><a xlink:href="LasWriterTest_8cpp.html#a3303a951654ed83ac6abc2a44e07b2d3" target="_top" xlink:title="compareFiles">
<polygon fill="white" stroke="red" points="399.5,-1824.5 399.5,-1843.5 474.5,-1843.5 474.5,-1824.5 399.5,-1824.5"/>
<text text-anchor="middle" x="437" y="-1831.5" font-family="Helvetica,sans-Serif" font-size="10.00">compareFiles</text>
</a>
</g>
</g>
<!-- Node2&#45;&gt;Node6 -->
<g id="edge5" class="edge"><title>Node2&#45;&gt;Node6</title>
<path fill="none" stroke="midnightblue" d="M266.484,-1099.86C266.803,-1205.83 273.481,-1703.88 370,-1815 377.428,-1823.55 388.432,-1828.37 399.335,-1831.05"/>
<polygon fill="midnightblue" stroke="midnightblue" points="269.984,-1099.64 266.471,-1089.64 262.984,-1099.64 269.984,-1099.64"/>
</g>
<!-- Node7 -->
<g id="node7" class="node"><title>Node7</title>
<g id="a_node7"><a xlink:href="TextReaderTest_8cpp.html#a509a22500d50c63ed7f1575067f5879d" target="_top" xlink:title="compareTextLas">
<polygon fill="white" stroke="red" points="392.5,-1786.5 392.5,-1805.5 481.5,-1805.5 481.5,-1786.5 392.5,-1786.5"/>
<text text-anchor="middle" x="437" y="-1793.5" font-family="Helvetica,sans-Serif" font-size="10.00">compareTextLas</text>
</a>
</g>
</g>
<!-- Node2&#45;&gt;Node7 -->
<g id="edge6" class="edge"><title>Node2&#45;&gt;Node7</title>
<path fill="none" stroke="midnightblue" d="M266.652,-1099.8C267.836,-1202.32 278.263,-1672.18 370,-1777 375.811,-1783.64 383.778,-1788.03 392.168,-1790.91"/>
<polygon fill="midnightblue" stroke="midnightblue" points="270.15,-1099.59 266.552,-1089.62 263.15,-1099.66 270.15,-1099.59"/>
</g>
<!-- Node8 -->
<g id="node8" class="node"><title>Node8</title>
<g id="a_node8"><a xlink:href="TextReaderTest_8cpp.html#afffb357c566f20e6383568d28525817a" target="_top" xlink:title="compareTextLasStreaming">
<polygon fill="white" stroke="red" points="370,-1748.5 370,-1767.5 504,-1767.5 504,-1748.5 370,-1748.5"/>
<text text-anchor="middle" x="437" y="-1755.5" font-family="Helvetica,sans-Serif" font-size="10.00">compareTextLasStreaming</text>
</a>
</g>
</g>
<!-- Node2&#45;&gt;Node8 -->
<g id="edge7" class="edge"><title>Node2&#45;&gt;Node8</title>
<path fill="none" stroke="midnightblue" d="M266.835,-1099.64C268.912,-1198.47 283.012,-1640.45 370,-1739 373.393,-1742.84 377.508,-1745.93 382.007,-1748.41"/>
<polygon fill="midnightblue" stroke="midnightblue" points="270.332,-1099.49 266.641,-1089.56 263.334,-1099.63 270.332,-1099.49"/>
</g>
<!-- Node9 -->
<g id="node9" class="node"><title>Node9</title>
<g id="a_node9"><a xlink:href="classpdal_1_1MyKernel.html#a2aa834686cb68aab88b9d40df48d6f13" target="_top" xlink:title="pdal::MyKernel::execute">
<polygon fill="white" stroke="black" points="376,-1710.5 376,-1729.5 498,-1729.5 498,-1710.5 376,-1710.5"/>
<text text-anchor="middle" x="437" y="-1717.5" font-family="Helvetica,sans-Serif" font-size="10.00">pdal::MyKernel::execute</text>
</a>
</g>
</g>
<!-- Node2&#45;&gt;Node9 -->
<g id="edge8" class="edge"><title>Node2&#45;&gt;Node9</title>
<path fill="none" stroke="midnightblue" d="M267.053,-1100.02C270.108,-1196.06 287.902,-1608.86 370,-1701 373.411,-1704.83 377.538,-1707.91 382.044,-1710.38"/>
<polygon fill="midnightblue" stroke="midnightblue" points="270.549,-1099.81 266.75,-1089.92 263.552,-1100.02 270.549,-1099.81"/>
</g>
<!-- Node10 -->
<g id="node10" class="node"><title>Node10</title>
<g id="a_node10"><a xlink:href="classpdal_1_1PCLKernel.html#aab22ad378b4c29bbe5dd69ad6eb0c6ef" target="_top" xlink:title="pdal::PCLKernel::execute">
<polygon fill="white" stroke="black" points="373,-1672.5 373,-1691.5 501,-1691.5 501,-1672.5 373,-1672.5"/>
<text text-anchor="middle" x="437" y="-1679.5" font-family="Helvetica,sans-Serif" font-size="10.00">pdal::PCLKernel::execute</text>
</a>
</g>
</g>
<!-- Node2&#45;&gt;Node10 -->
<g id="edge9" class="edge"><title>Node2&#45;&gt;Node10</title>
<path fill="none" stroke="midnightblue" d="M267.319,-1099.88C271.502,-1191.92 293.367,-1575.73 370,-1662 373.817,-1666.3 378.522,-1669.69 383.649,-1672.36"/>
<polygon fill="midnightblue" stroke="midnightblue" points="270.808,-1099.56 266.877,-1089.72 263.815,-1099.86 270.808,-1099.56"/>
</g>
<!-- Node11 -->
<g id="node11" class="node"><title>Node11</title>
<g id="a_node11"><a xlink:href="classpdal_1_1SmoothKernel.html#a12357e09bb47a0567ed0af7089c3739f" target="_top" xlink:title="pdal::SmoothKernel\l::execute">
<polygon fill="white" stroke="black" points="386,-1623 386,-1653 488,-1653 488,-1623 386,-1623"/>
<text text-anchor="start" x="394" y="-1641" font-family="Helvetica,sans-Serif" font-size="10.00">pdal::SmoothKernel</text>
<text text-anchor="middle" x="437" y="-1630" font-family="Helvetica,sans-Serif" font-size="10.00">::execute</text>
</a>
</g>
</g>
<!-- Node2&#45;&gt;Node11 -->
<g id="edge10" class="edge"><title>Node2&#45;&gt;Node11</title>
<path fill="none" stroke="midnightblue" d="M267.801,-1099.73C273.884,-1186.39 302.128,-1532.46 370,-1613 374.343,-1618.15 379.866,-1622.25 385.862,-1625.5"/>
<polygon fill="midnightblue" stroke="midnightblue" points="271.288,-1099.42 267.115,-1089.68 264.304,-1099.89 271.288,-1099.42"/>
</g>
<!-- Node12 -->
<g id="node12" class="node"><title>Node12</title>
<g id="a_node12"><a xlink:href="classpdal_1_1SortKernel.html#a35de433cd919ac9fc87a957395323820" target="_top" xlink:title="pdal::SortKernel::execute">
<polygon fill="white" stroke="black" points="373.5,-1584.5 373.5,-1603.5 500.5,-1603.5 500.5,-1584.5 373.5,-1584.5"/>
<text text-anchor="middle" x="437" y="-1591.5" font-family="Helvetica,sans-Serif" font-size="10.00">pdal::SortKernel::execute</text>
</a>
</g>
</g>
<!-- Node2&#45;&gt;Node12 -->
<g id="edge11" class="edge"><title>Node2&#45;&gt;Node12</title>
<path fill="none" stroke="midnightblue" d="M268.011,-1099.97C274.701,-1183.29 304.288,-1502.26 370,-1574 373.963,-1578.33 378.826,-1581.73 384.101,-1584.4"/>
<polygon fill="midnightblue" stroke="midnightblue" points="271.486,-1099.52 267.217,-1089.83 264.508,-1100.07 271.486,-1099.52"/>
</g>
<!-- Node13 -->
<g id="node13" class="node"><title>Node13</title>
<g id="a_node13"><a xlink:href="classpdal_1_1MergeKernel.html#a0f279da4375db6bb051489b6588fa897" target="_top" xlink:title="pdal::MergeKernel::\lexecute">
<polygon fill="white" stroke="black" points="386.5,-1535 386.5,-1565 487.5,-1565 487.5,-1535 386.5,-1535"/>
<text text-anchor="start" x="394.5" y="-1553" font-family="Helvetica,sans-Serif" font-size="10.00">pdal::MergeKernel::</text>
<text text-anchor="middle" x="437" y="-1542" font-family="Helvetica,sans-Serif" font-size="10.00">execute</text>
</a>
</g>
</g>
<!-- Node2&#45;&gt;Node13 -->
<g id="edge12" class="edge"><title>Node2&#45;&gt;Node13</title>
<path fill="none" stroke="midnightblue" d="M268.633,-1099.82C277.345,-1177.38 312.508,-1459.27 370,-1525 374.517,-1530.16 380.216,-1534.27 386.364,-1537.52"/>
<polygon fill="midnightblue" stroke="midnightblue" points="272.076,-1099.1 267.502,-1089.55 265.118,-1099.87 272.076,-1099.1"/>
</g>
<!-- Node14 -->
<g id="node14" class="node"><title>Node14</title>
<g id="a_node14"><a xlink:href="classpdal_1_1SplitKernel.html#aa93e386ee8d67c65d5c31d39ec7c9971" target="_top" xlink:title="pdal::SplitKernel::\lexecute">
<polygon fill="white" stroke="black" points="390,-1486 390,-1516 484,-1516 484,-1486 390,-1486"/>
<text text-anchor="start" x="398" y="-1504" font-family="Helvetica,sans-Serif" font-size="10.00">pdal::SplitKernel::</text>
<text text-anchor="middle" x="437" y="-1493" font-family="Helvetica,sans-Serif" font-size="10.00">execute</text>
</a>
</g>
</g>
<!-- Node2&#45;&gt;Node14 -->
<g id="edge13" class="edge"><title>Node2&#45;&gt;Node14</title>
<path fill="none" stroke="midnightblue" d="M265.72,-1100.03C264.35,-1163.62 268.711,-1363.31 370,-1476 375.406,-1482.01 382.411,-1486.59 389.832,-1490.07"/>
<polygon fill="midnightblue" stroke="midnightblue" points="269.225,-1099.89 266.02,-1089.79 262.228,-1099.69 269.225,-1099.89"/>
</g>
<!-- Node15 -->
<g id="node15" class="node"><title>Node15</title>
<g id="a_node15"><a xlink:href="classpdal_1_1RandomKernel.html#ae101bc78cfab26709852a1ef31d7a38f" target="_top" xlink:title="pdal::RandomKernel\l::execute">
<polygon fill="white" stroke="black" points="384.5,-1437 384.5,-1467 489.5,-1467 489.5,-1437 384.5,-1437"/>
<text text-anchor="start" x="392.5" y="-1455" font-family="Helvetica,sans-Serif" font-size="10.00">pdal::RandomKernel</text>
<text text-anchor="middle" x="437" y="-1444" font-family="Helvetica,sans-Serif" font-size="10.00">::execute</text>
</a>
</g>
</g>
<!-- Node2&#45;&gt;Node15 -->
<g id="edge14" class="edge"><title>Node2&#45;&gt;Node15</title>
<path fill="none" stroke="midnightblue" d="M266.605,-1099.83C267.985,-1158 279.879,-1330.12 370,-1427 374.089,-1431.4 379.031,-1435.02 384.35,-1438.02"/>
<polygon fill="midnightblue" stroke="midnightblue" points="270.104,-1099.72 266.449,-1089.77 263.105,-1099.83 270.104,-1099.72"/>
</g>
<!-- Node16 -->
<g id="node16" class="node"><title>Node16</title>
<g id="a_node16"><a xlink:href="classpdal_1_1DiffKernel.html#a5594ac6561864e2c80a26545397d56f6" target="_top" xlink:title="pdal::DiffKernel::execute">
<polygon fill="white" stroke="black" points="374.5,-1398.5 374.5,-1417.5 499.5,-1417.5 499.5,-1398.5 374.5,-1398.5"/>
<text text-anchor="middle" x="437" y="-1405.5" font-family="Helvetica,sans-Serif" font-size="10.00">pdal::DiffKernel::execute</text>
</a>
</g>
</g>
<!-- Node2&#45;&gt;Node16 -->
<g id="edge15" class="edge"><title>Node2&#45;&gt;Node16</title>
<path fill="none" stroke="midnightblue" d="M267.181,-1100C270.136,-1154.39 285.898,-1306.38 370,-1388 374.468,-1392.34 379.844,-1395.74 385.574,-1398.4"/>
<polygon fill="midnightblue" stroke="midnightblue" points="270.663,-1099.5 266.716,-1089.67 263.67,-1099.81 270.663,-1099.5"/>
</g>
<!-- Node17 -->
<g id="node17" class="node"><title>Node17</title>
<g id="a_node17"><a xlink:href="classpdal_1_1GroundKernel.html#a652b5f932cd5e982b887917a82f692e2" target="_top" xlink:title="pdal::GroundKernel\l::execute">
<polygon fill="white" stroke="black" points="387,-1349 387,-1379 487,-1379 487,-1349 387,-1349"/>
<text text-anchor="start" x="395" y="-1367" font-family="Helvetica,sans-Serif" font-size="10.00">pdal::GroundKernel</text>
<text text-anchor="middle" x="437" y="-1356" font-family="Helvetica,sans-Serif" font-size="10.00">::execute</text>
</a>
</g>
</g>
<!-- Node2&#45;&gt;Node17 -->
<g id="edge16" class="edge"><title>Node2&#45;&gt;Node17</title>
<path fill="none" stroke="midnightblue" d="M268.932,-1099.7C275.831,-1147.37 299.795,-1270.05 370,-1339 374.808,-1343.72 380.597,-1347.57 386.722,-1350.7"/>
<polygon fill="midnightblue" stroke="midnightblue" points="272.395,-1099.19 267.587,-1089.75 265.458,-1100.13 272.395,-1099.19"/>
</g>
<!-- Node18 -->
<g id="node18" class="node"><title>Node18</title>
<g id="a_node18"><a xlink:href="classpdal_1_1PipelineManager.html#a826f2b5b837f610c14d18777b595abff" target="_top" xlink:title="pdal::PipelineManager\l::execute">
<polygon fill="white" stroke="red" points="380.5,-1300 380.5,-1330 493.5,-1330 493.5,-1300 380.5,-1300"/>
<text text-anchor="start" x="388.5" y="-1318" font-family="Helvetica,sans-Serif" font-size="10.00">pdal::PipelineManager</text>
<text text-anchor="middle" x="437" y="-1307" font-family="Helvetica,sans-Serif" font-size="10.00">::execute</text>
</a>
</g>
</g>
<!-- Node2&#45;&gt;Node18 -->
<g id="edge17" class="edge"><title>Node2&#45;&gt;Node18</title>
<path fill="none" stroke="midnightblue" d="M271.023,-1099.78C281.408,-1140.88 310.75,-1236.17 370,-1290 374.262,-1293.87 379.184,-1297.17 384.38,-1299.96"/>
<polygon fill="midnightblue" stroke="midnightblue" points="274.39,-1098.81 268.637,-1089.91 267.587,-1100.46 274.39,-1098.81"/>
</g>
<!-- Node19 -->
<g id="node19" class="node"><title>Node19</title>
<g id="a_node19"><a xlink:href="classpdal_1_1PipelineManager.html#a657ff17a1dce54e42bd3f152759a896c" target="_top" xlink:title="pdal::PipelineManager\l::executeStream">
<polygon fill="white" stroke="red" points="380.5,-1251 380.5,-1281 493.5,-1281 493.5,-1251 380.5,-1251"/>
<text text-anchor="start" x="388.5" y="-1269" font-family="Helvetica,sans-Serif" font-size="10.00">pdal::PipelineManager</text>
<text text-anchor="middle" x="437" y="-1258" font-family="Helvetica,sans-Serif" font-size="10.00">::executeStream</text>
</a>
</g>
</g>
<!-- Node2&#45;&gt;Node19 -->
<g id="edge19" class="edge"><title>Node2&#45;&gt;Node19</title>
<path fill="none" stroke="midnightblue" d="M274.12,-1099.41C288.185,-1132.85 321.303,-1201.56 370,-1241 374.761,-1244.86 380.18,-1248.16 385.818,-1250.98"/>
<polygon fill="midnightblue" stroke="midnightblue" points="277.247,-1097.8 270.228,-1089.87 270.765,-1100.45 277.247,-1097.8"/>
</g>
<!-- Node20 -->
<g id="node20" class="node"><title>Node20</title>
<g id="a_node20"><a xlink:href="CompressionTest_8cpp.html#a6d46cc9b57a277b3a7c486859232bcf8" target="_top" xlink:title="getBytes">
<polygon fill="white" stroke="black" points="409,-1212.5 409,-1231.5 465,-1231.5 465,-1212.5 409,-1212.5"/>
<text text-anchor="middle" x="437" y="-1219.5" font-family="Helvetica,sans-Serif" font-size="10.00">getBytes</text>
</a>
</g>
</g>
<!-- Node2&#45;&gt;Node20 -->
<g id="edge20" class="edge"><title>Node2&#45;&gt;Node20</title>
<path fill="none" stroke="midnightblue" d="M277.178,-1098.27C293.71,-1124.96 328.015,-1174.45 370,-1202 381.612,-1209.62 396.251,-1214.44 408.791,-1217.43"/>
<polygon fill="midnightblue" stroke="midnightblue" points="280.076,-1096.29 271.91,-1089.54 274.084,-1099.91 280.076,-1096.29"/>
</g>
<!-- Node21 -->
<g id="node21" class="node"><title>Node21</title>
<g id="a_node21"><a xlink:href="classpdal_1_1TIndexKernel.html#a496ad191832c2af610f60ae5ef00d1d0" target="_top" xlink:title="pdal::TIndexKernel\l::getFileInfo">
<polygon fill="white" stroke="red" points="388,-1163 388,-1193 486,-1193 486,-1163 388,-1163"/>
<text text-anchor="start" x="396" y="-1181" font-family="Helvetica,sans-Serif" font-size="10.00">pdal::TIndexKernel</text>
<text text-anchor="middle" x="437" y="-1170" font-family="Helvetica,sans-Serif" font-size="10.00">::getFileInfo</text>
</a>
</g>
</g>
<!-- Node2&#45;&gt;Node21 -->
<g id="edge21" class="edge"><title>Node2&#45;&gt;Node21</title>
<path fill="none" stroke="midnightblue" d="M286.034,-1096.05C306.152,-1112.02 338.873,-1136.47 370,-1153 376.818,-1156.62 384.277,-1159.97 391.649,-1162.97"/>
<polygon fill="midnightblue" stroke="midnightblue" points="287.962,-1093.11 277.976,-1089.57 283.575,-1098.57 287.962,-1093.11"/>
</g>
<!-- Node22 -->
<g id="node22" class="node"><title>Node22</title>
<g id="a_node22"><a xlink:href="classpdal_1_1HausdorffKernel.html#a1d3664d111d8b5abc23ab609e3b9163e" target="_top" xlink:title="pdal::HausdorffKernel\l::loadSet">
<polygon fill="white" stroke="red" points="381.5,-1114 381.5,-1144 492.5,-1144 492.5,-1114 381.5,-1114"/>
<text text-anchor="start" x="389.5" y="-1132" font-family="Helvetica,sans-Serif" font-size="10.00">pdal::HausdorffKernel</text>
<text text-anchor="middle" x="437" y="-1121" font-family="Helvetica,sans-Serif" font-size="10.00">::loadSet</text>
</a>
</g>
</g>
<!-- Node2&#45;&gt;Node22 -->
<g id="edge22" class="edge"><title>Node2&#45;&gt;Node22</title>
<path fill="none" stroke="midnightblue" d="M309.275,-1092.37C331.97,-1098.93 360.037,-1107.04 383.984,-1113.96"/>
<polygon fill="midnightblue" stroke="midnightblue" points="310.162,-1088.98 299.584,-1089.56 308.218,-1095.7 310.162,-1088.98"/>
</g>
<!-- Node23 -->
<g id="node23" class="node"><title>Node23</title>
<g id="a_node23"><a xlink:href="classpdal_1_1DeltaKernel.html#a9f78c94029ba013d88acd41301de7ee2" target="_top" xlink:title="pdal::DeltaKernel::\lloadSet">
<polygon fill="white" stroke="red" points="388,-1065 388,-1095 486,-1095 486,-1065 388,-1065"/>
<text text-anchor="start" x="396" y="-1083" font-family="Helvetica,sans-Serif" font-size="10.00">pdal::DeltaKernel::</text>
<text text-anchor="middle" x="437" y="-1072" font-family="Helvetica,sans-Serif" font-size="10.00">loadSet</text>
</a>
</g>
</g>
<!-- Node2&#45;&gt;Node23 -->
<g id="edge23" class="edge"><title>Node2&#45;&gt;Node23</title>
<path fill="none" stroke="midnightblue" d="M329.448,-1080C348.793,-1080 369.763,-1080 387.942,-1080"/>
<polygon fill="midnightblue" stroke="midnightblue" points="329.202,-1076.5 319.202,-1080 329.202,-1083.5 329.202,-1076.5"/>
</g>
<!-- Node24 -->
<g id="node24" class="node"><title>Node24</title>
<g id="a_node24"><a xlink:href="tutorial_8cpp.html#a0ddf1224851353fc92bfbff6f499fa97" target="_top" xlink:title="main">
<polygon fill="white" stroke="black" points="418,-1026.5 418,-1045.5 456,-1045.5 456,-1026.5 418,-1026.5"/>
<text text-anchor="middle" x="437" y="-1033.5" font-family="Helvetica,sans-Serif" font-size="10.00">main</text>
</a>
</g>
</g>
<!-- Node2&#45;&gt;Node24 -->
<g id="edge24" class="edge"><title>Node2&#45;&gt;Node24</title>
<path fill="none" stroke="midnightblue" d="M313.149,-1067.89C347.627,-1058.94 392.73,-1047.23 417.576,-1040.78"/>
<polygon fill="midnightblue" stroke="midnightblue" points="312.079,-1064.55 303.279,-1070.45 313.838,-1071.33 312.079,-1064.55"/>
</g>
<!-- Node25 -->
<g id="node25" class="node"><title>Node25</title>
<g id="a_node25"><a xlink:href="classpdal_1_1TIndexKernel.html#a260c46e9fc8a9e5dddd395c93422dfa6" target="_top" xlink:title="pdal::TIndexKernel\l::mergeFile">
<polygon fill="white" stroke="red" points="388,-977 388,-1007 486,-1007 486,-977 388,-977"/>
<text text-anchor="start" x="396" y="-995" font-family="Helvetica,sans-Serif" font-size="10.00">pdal::TIndexKernel</text>
<text text-anchor="middle" x="437" y="-984" font-family="Helvetica,sans-Serif" font-size="10.00">::mergeFile</text>
</a>
</g>
</g>
<!-- Node2&#45;&gt;Node25 -->
<g id="edge25" class="edge"><title>Node2&#45;&gt;Node25</title>
<path fill="none" stroke="midnightblue" d="M288.763,-1064.79C309.276,-1051.18 340.858,-1031.24 370,-1017 377.266,-1013.45 385.172,-1010.07 392.906,-1007.01"/>
<polygon fill="midnightblue" stroke="midnightblue" points="286.786,-1061.9 280.428,-1070.37 290.684,-1067.71 286.786,-1061.9"/>
</g>
<!-- Node26 -->
<g id="node26" class="node"><title>Node26</title>
<g id="a_node26"><a xlink:href="classpdal_1_1TIndexReader.html#aab30ff453c7bb99f11295f9a6395f9a9" target="_top" xlink:title="pdal::TIndexReader\l::ready">
<polygon fill="white" stroke="black" points="386,-928 386,-958 488,-958 488,-928 386,-928"/>
<text text-anchor="start" x="394" y="-946" font-family="Helvetica,sans-Serif" font-size="10.00">pdal::TIndexReader</text>
<text text-anchor="middle" x="437" y="-935" font-family="Helvetica,sans-Serif" font-size="10.00">::ready</text>
</a>
</g>
</g>
<!-- Node2&#45;&gt;Node26 -->
<g id="edge26" class="edge"><title>Node2&#45;&gt;Node26</title>
<path fill="none" stroke="midnightblue" d="M278.698,-1061.98C296.224,-1037.33 330.771,-993.21 370,-967 375.069,-963.613 380.676,-960.634 386.416,-958.032"/>
<polygon fill="midnightblue" stroke="midnightblue" points="275.683,-1060.18 272.84,-1070.39 281.427,-1064.18 275.683,-1060.18"/>
</g>
<!-- Node27 -->
<g id="node27" class="node"><title>Node27</title>
<g id="a_node27"><a xlink:href="namespaceanonymous__namespace_02GDALWriterTest_8cpp_03.html#afa82c052f6116c30a757052c3013ec06" target="_top" xlink:title="anonymous_namespace\l\{GDALWriterTest::cpp\}\l::runGdalWriter">
<polygon fill="white" stroke="red" points="376,-868.5 376,-909.5 498,-909.5 498,-868.5 376,-868.5"/>
<text text-anchor="start" x="384" y="-897.5" font-family="Helvetica,sans-Serif" font-size="10.00">anonymous_namespace</text>
<text text-anchor="start" x="384" y="-886.5" font-family="Helvetica,sans-Serif" font-size="10.00">{GDALWriterTest::cpp}</text>
<text text-anchor="middle" x="437" y="-875.5" font-family="Helvetica,sans-Serif" font-size="10.00">::runGdalWriter</text>
</a>
</g>
</g>
<!-- Node2&#45;&gt;Node27 -->
<g id="edge27" class="edge"><title>Node2&#45;&gt;Node27</title>
<path fill="none" stroke="midnightblue" d="M274.305,-1060.73C288.653,-1027.48 322.191,-958.939 370,-918 373.613,-914.907 377.607,-912.093 381.79,-909.543"/>
<polygon fill="midnightblue" stroke="midnightblue" points="270.97,-1059.64 270.327,-1070.21 277.424,-1062.34 270.97,-1059.64"/>
</g>
<!-- Node28 -->
<g id="node28" class="node"><title>Node28</title>
<g id="a_node28"><a xlink:href="namespaceanonymous__namespace_02GDALWriterTest_8cpp_03.html#ab4af538727de76014b4faf8c8b616793" target="_top" xlink:title="anonymous_namespace\l\{GDALWriterTest::cpp\}\l::runGdalWriter2">
<polygon fill="white" stroke="red" points="376,-808.5 376,-849.5 498,-849.5 498,-808.5 376,-808.5"/>
<text text-anchor="start" x="384" y="-837.5" font-family="Helvetica,sans-Serif" font-size="10.00">anonymous_namespace</text>
<text text-anchor="start" x="384" y="-826.5" font-family="Helvetica,sans-Serif" font-size="10.00">{GDALWriterTest::cpp}</text>
<text text-anchor="middle" x="437" y="-815.5" font-family="Helvetica,sans-Serif" font-size="10.00">::runGdalWriter2</text>
</a>
</g>
</g>
<!-- Node2&#45;&gt;Node28 -->
<g id="edge28" class="edge"><title>Node2&#45;&gt;Node28</title>
<path fill="none" stroke="midnightblue" d="M270.801,-1060.37C280.972,-1018.21 310.262,-918.063 370,-859 373.491,-855.549 377.45,-852.453 381.653,-849.684"/>
<polygon fill="midnightblue" stroke="midnightblue" points="267.369,-1059.68 268.525,-1070.21 274.188,-1061.26 267.369,-1059.68"/>
</g>
<!-- Node29 -->
<g id="node29" class="node"><title>Node29</title>
<g id="a_node29"><a xlink:href="namespaceanonymous__namespace_02ColorinterpFilterTest_8cpp_03.html#a2c7a8c71c9e37bd0e7821a01064bd259" target="_top" xlink:title="anonymous_namespace\l\{ColorinterpFilterTest\l::cpp\}::standardTest">
<polygon fill="white" stroke="red" points="376,-748.5 376,-789.5 498,-789.5 498,-748.5 376,-748.5"/>
<text text-anchor="start" x="384" y="-777.5" font-family="Helvetica,sans-Serif" font-size="10.00">anonymous_namespace</text>
<text text-anchor="start" x="384" y="-766.5" font-family="Helvetica,sans-Serif" font-size="10.00">{ColorinterpFilterTest</text>
<text text-anchor="middle" x="437" y="-755.5" font-family="Helvetica,sans-Serif" font-size="10.00">::cpp}::standardTest</text>
</a>
</g>
</g>
<!-- Node2&#45;&gt;Node29 -->
<g id="edge29" class="edge"><title>Node2&#45;&gt;Node29</title>
<path fill="none" stroke="midnightblue" d="M268.548,-1060.31C274.724,-1010.34 297.457,-877.098 370,-799 373.255,-795.496 376.998,-792.371 381.012,-789.59"/>
<polygon fill="midnightblue" stroke="midnightblue" points="265.052,-1060.07 267.39,-1070.4 272.007,-1060.86 265.052,-1060.07"/>
</g>
<!-- Node30 -->
<g id="node30" class="node"><title>Node30</title>
<g id="a_node30"><a xlink:href="LasReaderTest_8cpp.html#a3fe845027bd4709eb9126245edd6f3c6" target="_top" xlink:title="streamTest">
<polygon fill="white" stroke="red" points="404,-710.5 404,-729.5 470,-729.5 470,-710.5 404,-710.5"/>
<text text-anchor="middle" x="437" y="-717.5" font-family="Helvetica,sans-Serif" font-size="10.00">streamTest</text>
</a>
</g>
</g>
<!-- Node2&#45;&gt;Node30 -->
<g id="edge30" class="edge"><title>Node2&#45;&gt;Node30</title>
<path fill="none" stroke="midnightblue" d="M266.357,-1060.15C267.055,-1002 277.266,-830.41 370,-739 379.001,-730.127 391.864,-725.345 403.847,-722.787"/>
<polygon fill="midnightblue" stroke="midnightblue" points="262.857,-1060.2 266.323,-1070.21 269.857,-1060.22 262.857,-1060.2"/>
</g>
<!-- Node31 -->
<g id="node31" class="node"><title>Node31</title>
<g id="a_node31"><a xlink:href="MatlabReaderTest_8cpp.html#a13d075df757d9911160c6c091b867b08" target="_top" xlink:title="TEST">
<polygon fill="white" stroke="black" points="416,-672.5 416,-691.5 458,-691.5 458,-672.5 416,-672.5"/>
<text text-anchor="middle" x="437" y="-679.5" font-family="Helvetica,sans-Serif" font-size="10.00">TEST</text>
</a>
</g>
</g>
<!-- Node2&#45;&gt;Node31 -->
<g id="edge31" class="edge"><title>Node2&#45;&gt;Node31</title>
<path fill="none" stroke="midnightblue" d="M269.299,-1060.35C279.658,-990.237 317.935,-753.784 370,-701 381.974,-688.861 401.164,-684.355 415.773,-682.742"/>
<polygon fill="midnightblue" stroke="midnightblue" points="265.805,-1060.05 267.831,-1070.45 272.733,-1061.06 265.805,-1060.05"/>
</g>
<!-- Node32 -->
<g id="node32" class="node"><title>Node32</title>
<g id="a_node32"><a xlink:href="namespaceanonymous__namespace_02BufferTest_8cpp_03.html#aa82a48c7e159e43f9c99511f10d16b3c" target="_top" xlink:title="anonymous_namespace\l\{BufferTest::cpp\}::TEST">
<polygon fill="white" stroke="black" points="376,-623 376,-653 498,-653 498,-623 376,-623"/>
<text text-anchor="start" x="384" y="-641" font-family="Helvetica,sans-Serif" font-size="10.00">anonymous_namespace</text>
<text text-anchor="middle" x="437" y="-630" font-family="Helvetica,sans-Serif" font-size="10.00">{BufferTest::cpp}::TEST</text>
</a>
</g>
</g>
<!-- Node2&#45;&gt;Node32 -->
<g id="edge32" class="edge"><title>Node2&#45;&gt;Node32</title>
<path fill="none" stroke="midnightblue" d="M268.99,-1060C278.651,-985.338 315.826,-724.025 370,-663 373.416,-659.151 377.488,-655.893 381.909,-653.134"/>
<polygon fill="midnightblue" stroke="midnightblue" points="265.467,-1059.96 267.677,-1070.33 272.411,-1060.85 265.467,-1059.96"/>
</g>
<!-- Node33 -->
<g id="node33" class="node"><title>Node33</title>
<g id="a_node33"><a xlink:href="namespacepdal.html#a51cbf5225e506db21e7efe20f4eebb09" target="_top" xlink:title="pdal::TEST">
<polygon fill="white" stroke="black" points="404,-584.5 404,-603.5 470,-603.5 470,-584.5 404,-584.5"/>
<text text-anchor="middle" x="437" y="-591.5" font-family="Helvetica,sans-Serif" font-size="10.00">pdal::TEST</text>
</a>
</g>
</g>
<!-- Node2&#45;&gt;Node33 -->
<g id="edge33" class="edge"><title>Node2&#45;&gt;Node33</title>
<path fill="none" stroke="midnightblue" d="M268.239,-1060.09C275.648,-979.658 307.127,-679.91 370,-613 378.737,-603.702 391.7,-598.858 403.831,-596.368"/>
<polygon fill="midnightblue" stroke="midnightblue" points="264.729,-1060.03 267.319,-1070.31 271.701,-1060.66 264.729,-1060.03"/>
</g>
<!-- Node34 -->
<g id="node34" class="node"><title>Node34</title>
<g id="a_node34"><a xlink:href="LasReaderTest_8cpp.html#aa76b17cddb63cde84b93800acc213041" target="_top" xlink:title="test_a_format">
<polygon fill="white" stroke="red" points="398.5,-546.5 398.5,-565.5 475.5,-565.5 475.5,-546.5 398.5,-546.5"/>
<text text-anchor="middle" x="437" y="-553.5" font-family="Helvetica,sans-Serif" font-size="10.00">test_a_format</text>
</a>
</g>
</g>
<!-- Node2&#45;&gt;Node34 -->
<g id="edge34" class="edge"><title>Node2&#45;&gt;Node34</title>
<path fill="none" stroke="midnightblue" d="M267.859,-1060.37C274.057,-976.379 302.322,-648.185 370,-575 377.367,-567.034 387.836,-562.33 398.271,-559.576"/>
<polygon fill="midnightblue" stroke="midnightblue" points="264.367,-1060.13 267.142,-1070.36 271.349,-1060.63 264.367,-1060.13"/>
</g>
<!-- Node35 -->
<g id="node35" class="node"><title>Node35</title>
<g id="a_node35"><a xlink:href="namespacepdal.html#ab19387b4eb501050585c3603e06db46a" target="_top" xlink:title="pdal::TEST_F">
<polygon fill="white" stroke="black" points="398.5,-508.5 398.5,-527.5 475.5,-527.5 475.5,-508.5 398.5,-508.5"/>
<text text-anchor="middle" x="437" y="-515.5" font-family="Helvetica,sans-Serif" font-size="10.00">pdal::TEST_F</text>
</a>
</g>
</g>
<!-- Node2&#45;&gt;Node35 -->
<g id="edge35" class="edge"><title>Node2&#45;&gt;Node35</title>
<path fill="none" stroke="midnightblue" d="M267.556,-1060.33C272.663,-972.414 297.588,-616.396 370,-537 377.312,-528.983 387.765,-524.265 398.202,-521.513"/>
<polygon fill="midnightblue" stroke="midnightblue" points="264.051,-1060.32 266.985,-1070.5 271.04,-1060.71 264.051,-1060.32"/>
</g>
<!-- Node36 -->
<g id="node36" class="node"><title>Node36</title>
<g id="a_node36"><a xlink:href="GreyhoundReaderTest_8cpp.html#af2d766907254ea1571821d6d621f0b61" target="_top" xlink:title="TEST_F">
<polygon fill="white" stroke="black" points="410.5,-470.5 410.5,-489.5 463.5,-489.5 463.5,-470.5 410.5,-470.5"/>
<text text-anchor="middle" x="437" y="-477.5" font-family="Helvetica,sans-Serif" font-size="10.00">TEST_F</text>
</a>
</g>
</g>
<!-- Node2&#45;&gt;Node36 -->
<g id="edge36" class="edge"><title>Node2&#45;&gt;Node36</title>
<path fill="none" stroke="midnightblue" d="M267.298,-1060.13C271.385,-968.144 292.884,-584.585 370,-499 380.137,-487.75 396.459,-482.986 410.335,-481.042"/>
<polygon fill="midnightblue" stroke="midnightblue" points="263.794,-1060.14 266.866,-1070.28 270.788,-1060.44 263.794,-1060.14"/>
</g>
<!-- Node37 -->
<g id="node37" class="node"><title>Node37</title>
<g id="a_node37"><a xlink:href="namespaceanonymous__namespace_02BPFTest_8cpp_03.html#a55eec1c3e76a6cdaa20e260fb6c03fe9" target="_top" xlink:title="anonymous_namespace\l\{BPFTest::cpp\}::test\l_roundtrip">
<polygon fill="white" stroke="red" points="376,-410.5 376,-451.5 498,-451.5 498,-410.5 376,-410.5"/>
<text text-anchor="start" x="384" y="-439.5" font-family="Helvetica,sans-Serif" font-size="10.00">anonymous_namespace</text>
<text text-anchor="start" x="384" y="-428.5" font-family="Helvetica,sans-Serif" font-size="10.00">{BPFTest::cpp}::test</text>
<text text-anchor="middle" x="437" y="-417.5" font-family="Helvetica,sans-Serif" font-size="10.00">_roundtrip</text>
</a>
</g>
</g>
<!-- Node2&#45;&gt;Node37 -->
<g id="edge37" class="edge"><title>Node2&#45;&gt;Node37</title>
<path fill="none" stroke="midnightblue" d="M267.366,-1060C271.844,-964.833 295.143,-558.47 370,-461 372.683,-457.506 375.866,-454.407 379.363,-451.66"/>
<polygon fill="midnightblue" stroke="midnightblue" points="263.858,-1060.09 266.901,-1070.24 270.851,-1060.41 263.858,-1060.09"/>
</g>
<!-- Node38 -->
<g id="node38" class="node"><title>Node38</title>
<g id="a_node38"><a xlink:href="namespaceanonymous__namespace_02ColorizationFilterTest_8cpp_03.html#a9ecba8dd0dc941d16a50be7a9a264b07" target="_top" xlink:title="anonymous_namespace\l\{ColorizationFilterTest\l::cpp\}::testFile">
<polygon fill="white" stroke="red" points="376,-350.5 376,-391.5 498,-391.5 498,-350.5 376,-350.5"/>
<text text-anchor="start" x="384" y="-379.5" font-family="Helvetica,sans-Serif" font-size="10.00">anonymous_namespace</text>
<text text-anchor="start" x="384" y="-368.5" font-family="Helvetica,sans-Serif" font-size="10.00">{ColorizationFilterTest</text>
<text text-anchor="middle" x="437" y="-357.5" font-family="Helvetica,sans-Serif" font-size="10.00">::cpp}::testFile</text>
</a>
</g>
</g>
<!-- Node2&#45;&gt;Node38 -->
<g id="edge38" class="edge"><title>Node2&#45;&gt;Node38</title>
<path fill="none" stroke="midnightblue" d="M267.039,-1060C270.118,-959.377 288.335,-508.935 370,-401 372.658,-397.487 375.823,-394.374 379.306,-391.617"/>
<polygon fill="midnightblue" stroke="midnightblue" points="263.533,-1060.17 266.742,-1070.27 270.53,-1060.37 263.533,-1060.17"/>
</g>
<!-- Node39 -->
<g id="node39" class="node"><title>Node39</title>
<g id="a_node39"><a xlink:href="namespaceanonymous__namespace_02ColorizationFilterTest_8cpp_03.html#a34ec954a3562386020f65ce3ad8d025e" target="_top" xlink:title="anonymous_namespace\l\{ColorizationFilterTest\l::cpp\}::testFileStreamed">
<polygon fill="white" stroke="red" points="376,-290.5 376,-331.5 498,-331.5 498,-290.5 376,-290.5"/>
<text text-anchor="start" x="384" y="-319.5" font-family="Helvetica,sans-Serif" font-size="10.00">anonymous_namespace</text>
<text text-anchor="start" x="384" y="-308.5" font-family="Helvetica,sans-Serif" font-size="10.00">{ColorizationFilterTest</text>
<text text-anchor="middle" x="437" y="-297.5" font-family="Helvetica,sans-Serif" font-size="10.00">::cpp}::testFileStreamed</text>
</a>
</g>
</g>
<!-- Node2&#45;&gt;Node39 -->
<g id="edge39" class="edge"><title>Node2&#45;&gt;Node39</title>
<path fill="none" stroke="midnightblue" d="M266.761,-1060.27C268.516,-954.957 281.436,-459.54 370,-341 372.637,-337.471 375.786,-334.346 379.259,-331.581"/>
<polygon fill="midnightblue" stroke="midnightblue" points="263.259,-1060.37 266.607,-1070.42 270.258,-1060.48 263.259,-1060.37"/>
</g>
<!-- Node40 -->
<g id="node40" class="node"><title>Node40</title>
<g id="a_node40"><a xlink:href="FauxReaderTest_8cpp.html#a3d5539afea38de83c9e480676f12c736" target="_top" xlink:title="testGrid">
<polygon fill="white" stroke="red" points="411.5,-252.5 411.5,-271.5 462.5,-271.5 462.5,-252.5 411.5,-252.5"/>
<text text-anchor="middle" x="437" y="-259.5" font-family="Helvetica,sans-Serif" font-size="10.00">testGrid</text>
</a>
</g>
</g>
<!-- Node2&#45;&gt;Node40 -->
<g id="edge40" class="edge"><title>Node2&#45;&gt;Node40</title>
<path fill="none" stroke="midnightblue" d="M266.237,-1060.18C265.167,-948.94 265.362,-402.823 370,-281 380.178,-269.151 397.222,-264.453 411.44,-262.691"/>
<polygon fill="midnightblue" stroke="midnightblue" points="262.739,-1060.36 266.351,-1070.32 269.739,-1060.28 262.739,-1060.36"/>
</g>
<!-- Node41 -->
<g id="node41" class="node"><title>Node41</title>
<g id="a_node41"><a xlink:href="OverlayFilterTest_8cpp.html#a81ea698dfcbc49b4d563206ceb68d003" target="_top" xlink:title="testOverlay">
<polygon fill="white" stroke="red" points="403.5,-214.5 403.5,-233.5 470.5,-233.5 470.5,-214.5 403.5,-214.5"/>
<text text-anchor="middle" x="437" y="-221.5" font-family="Helvetica,sans-Serif" font-size="10.00">testOverlay</text>
</a>
</g>
</g>
<!-- Node2&#45;&gt;Node41 -->
<g id="edge41" class="edge"><title>Node2&#45;&gt;Node41</title>
<path fill="none" stroke="midnightblue" d="M266.111,-1060.32C264.256,-946.322 260.495,-371.238 370,-243 378.285,-233.298 391.174,-228.387 403.372,-225.957"/>
<polygon fill="midnightblue" stroke="midnightblue" points="262.612,-1060.46 266.29,-1070.4 269.611,-1060.34 262.612,-1060.46"/>
</g>
<!-- Node42 -->
<g id="node42" class="node"><title>Node42</title>
<g id="a_node42"><a xlink:href="classpdal_1_1MongusFilter.html#aaacd9ce3a847541bad94929bb8f28179" target="_top" xlink:title="pdal::MongusFilter\l::writeControl">
<polygon fill="white" stroke="red" points="388.5,-165 388.5,-195 485.5,-195 485.5,-165 388.5,-165"/>
<text text-anchor="start" x="396.5" y="-183" font-family="Helvetica,sans-Serif" font-size="10.00">pdal::MongusFilter</text>
<text text-anchor="middle" x="437" y="-172" font-family="Helvetica,sans-Serif" font-size="10.00">::writeControl</text>
</a>
</g>
</g>
<!-- Node2&#45;&gt;Node42 -->
<g id="edge42" class="edge"><title>Node2&#45;&gt;Node42</title>
<path fill="none" stroke="midnightblue" d="M266.152,-1060.3C264.478,-943.672 261.313,-344.113 370,-205 374.828,-198.821 381.367,-194.168 388.46,-190.666"/>
<polygon fill="midnightblue" stroke="midnightblue" points="262.653,-1060.36 266.31,-1070.31 269.652,-1060.25 262.653,-1060.36"/>
</g>
<!-- Node46 -->
<g id="node46" class="node"><title>Node46</title>
<g id="a_node46"><a xlink:href="classpdal_1_1NitfWriter.html#a34d932e82c5d6842ca515cc59281021e" target="_top" xlink:title="pdal::NitfWriter::readyFile">
<polygon fill="white" stroke="black" points="373,-126.5 373,-145.5 501,-145.5 501,-126.5 373,-126.5"/>
<text text-anchor="middle" x="437" y="-133.5" font-family="Helvetica,sans-Serif" font-size="10.00">pdal::NitfWriter::readyFile</text>
</a>
</g>
</g>
<!-- Node45&#45;&gt;Node46 -->
<g id="edge46" class="edge"><title>Node45&#45;&gt;Node46</title>
<path fill="none" stroke="midnightblue" d="M344.682,-136C354.158,-136 363.745,-136 372.964,-136"/>
<polygon fill="midnightblue" stroke="midnightblue" points="344.466,-132.5 334.465,-136 344.465,-139.5 344.466,-132.5"/>
</g>
<!-- Node47 -->
<g id="node47" class="node"><title>Node47</title>
<g id="a_node47"><a xlink:href="classpdal_1_1LasWriter.html#a4b0ad482eac655fb22cf29717c04c6b3" target="_top" xlink:title="pdal::LasWriter::readyFile">
<polygon fill="white" stroke="black" points="373,-88.5 373,-107.5 501,-107.5 501,-88.5 373,-88.5"/>
<text text-anchor="middle" x="437" y="-95.5" font-family="Helvetica,sans-Serif" font-size="10.00">pdal::LasWriter::readyFile</text>
</a>
</g>
</g>
<!-- Node45&#45;&gt;Node47 -->
<g id="edge47" class="edge"><title>Node45&#45;&gt;Node47</title>
<path fill="none" stroke="midnightblue" d="M319.242,-124.176C343.139,-118.818 371.015,-112.569 393.536,-107.52"/>
<polygon fill="midnightblue" stroke="midnightblue" points="318.264,-120.808 309.272,-126.411 319.795,-127.639 318.264,-120.808"/>
</g>
</g>
</svg>
