<?xml version="1.0" encoding="UTF-8" standalone="no"?>
<!DOCTYPE svg PUBLIC "-//W3C//DTD SVG 1.1//EN"
 "http://www.w3.org/Graphics/SVG/1.1/DTD/svg11.dtd">
<!-- Generated by graphviz version 2.38.0 (20140413.2041)
 -->
<!-- Title: pdal::BpfWriter::writeView Pages: 1 -->
<svg width="1012pt" height="307pt"
 viewBox="0.00 0.00 1012.00 306.50" xmlns="http://www.w3.org/2000/svg" xmlns:xlink="http://www.w3.org/1999/xlink">
<g id="graph0" class="graph" transform="scale(1 1) rotate(0) translate(4 302.5)">
<title>pdal::BpfWriter::writeView</title>
<polygon fill="white" stroke="none" points="-4,4 -4,-302.5 1008,-302.5 1008,4 -4,4"/>
<!-- Node1 -->
<g id="node1" class="node"><title>Node1</title>
<polygon fill="#bfbfbf" stroke="black" points="0,-197 0,-216 131,-216 131,-197 0,-197"/>
<text text-anchor="middle" x="65.5" y="-204" font-family="Helvetica,sans-Serif" font-size="10.00">pdal::BpfWriter::writeView</text>
</g>
<!-- Node2 -->
<g id="node2" class="node"><title>Node2</title>
<g id="a_node2"><a xlink:href="classpdal_1_1Scaling.html#a6227896f9db24655d39c6633982680d2" target="_top" xlink:title="pdal::Scaling::setAutoXForm">
<polygon fill="white" stroke="black" points="167,-279 167,-298 309,-298 309,-279 167,-279"/>
<text text-anchor="middle" x="238" y="-286" font-family="Helvetica,sans-Serif" font-size="10.00">pdal::Scaling::setAutoXForm</text>
</a>
</g>
</g>
<!-- Node1&#45;&gt;Node2 -->
<g id="edge1" class="edge"><title>Node1&#45;&gt;Node2</title>
<path fill="none" stroke="midnightblue" d="M79.1418,-216.159C97.5506,-229.809 133.231,-254.723 167,-269.5 172.395,-271.861 178.155,-273.993 183.966,-275.902"/>
<polygon fill="midnightblue" stroke="midnightblue" points="183.153,-279.313 193.74,-278.903 185.208,-272.622 183.153,-279.313"/>
</g>
<!-- Node3 -->
<g id="node3" class="node"><title>Node3</title>
<g id="a_node3"><a xlink:href="classpdal_1_1Stage.html#abdbd1176da12dfd882d931a43290797f" target="_top" xlink:title="pdal::Stage::throwError">
<polygon fill="white" stroke="black" points="179.5,-241 179.5,-260 296.5,-260 296.5,-241 179.5,-241"/>
<text text-anchor="middle" x="238" y="-248" font-family="Helvetica,sans-Serif" font-size="10.00">pdal::Stage::throwError</text>
</a>
</g>
</g>
<!-- Node1&#45;&gt;Node3 -->
<g id="edge2" class="edge"><title>Node1&#45;&gt;Node3</title>
<path fill="none" stroke="midnightblue" d="M103.496,-216.047C128.967,-222.62 163.006,-231.405 190.338,-238.458"/>
<polygon fill="midnightblue" stroke="midnightblue" points="189.519,-241.861 200.076,-240.971 191.268,-235.083 189.519,-241.861"/>
</g>
<!-- Node5 -->
<g id="node5" class="node"><title>Node5</title>
<g id="a_node5"><a xlink:href="classpdal_1_1BpfWriter.html#a8784f84370d69b9ae4dbbd632ed0f27a" target="_top" xlink:title="pdal::BpfWriter::writeByte\lMajor">
<polygon fill="white" stroke="black" points="173.5,-142.5 173.5,-172.5 302.5,-172.5 302.5,-142.5 173.5,-142.5"/>
<text text-anchor="start" x="181.5" y="-160.5" font-family="Helvetica,sans-Serif" font-size="10.00">pdal::BpfWriter::writeByte</text>
<text text-anchor="middle" x="238" y="-149.5" font-family="Helvetica,sans-Serif" font-size="10.00">Major</text>
</a>
</g>
</g>
<!-- Node1&#45;&gt;Node5 -->
<g id="edge4" class="edge"><title>Node1&#45;&gt;Node5</title>
<path fill="none" stroke="midnightblue" d="M99.7789,-196.936C121.082,-190.814 149.387,-182.679 174.754,-175.389"/>
<polygon fill="midnightblue" stroke="midnightblue" points="176.033,-178.663 184.678,-172.537 174.1,-171.935 176.033,-178.663"/>
</g>
<!-- Node15 -->
<g id="node15" class="node"><title>Node15</title>
<g id="a_node15"><a xlink:href="classpdal_1_1BpfWriter.html#a28a12ad585ecfe6f9b21129c435184d4" target="_top" xlink:title="pdal::BpfWriter::writeDim\lMajor">
<polygon fill="white" stroke="black" points="174.5,-93.5 174.5,-123.5 301.5,-123.5 301.5,-93.5 174.5,-93.5"/>
<text text-anchor="start" x="182.5" y="-111.5" font-family="Helvetica,sans-Serif" font-size="10.00">pdal::BpfWriter::writeDim</text>
<text text-anchor="middle" x="238" y="-100.5" font-family="Helvetica,sans-Serif" font-size="10.00">Major</text>
</a>
</g>
</g>
<!-- Node1&#45;&gt;Node15 -->
<g id="edge14" class="edge"><title>Node1&#45;&gt;Node15</title>
<path fill="none" stroke="midnightblue" d="M77.2093,-196.873C94.8194,-181.462 131.491,-151.099 167,-132.5 170.325,-130.758 173.803,-129.102 177.356,-127.533"/>
<polygon fill="midnightblue" stroke="midnightblue" points="178.98,-130.649 186.881,-123.589 176.303,-124.181 178.98,-130.649"/>
</g>
<!-- Node18 -->
<g id="node18" class="node"><title>Node18</title>
<g id="a_node18"><a xlink:href="classpdal_1_1BpfWriter.html#a9d45245505629571977d2116cdd07a5e" target="_top" xlink:title="pdal::BpfWriter::writePoint\lMajor">
<polygon fill="white" stroke="black" points="172.5,-191.5 172.5,-221.5 303.5,-221.5 303.5,-191.5 172.5,-191.5"/>
<text text-anchor="start" x="180.5" y="-209.5" font-family="Helvetica,sans-Serif" font-size="10.00">pdal::BpfWriter::writePoint</text>
<text text-anchor="middle" x="238" y="-198.5" font-family="Helvetica,sans-Serif" font-size="10.00">Major</text>
</a>
</g>
</g>
<!-- Node1&#45;&gt;Node18 -->
<g id="edge20" class="edge"><title>Node1&#45;&gt;Node18</title>
<path fill="none" stroke="midnightblue" d="M131.445,-206.5C141.468,-206.5 151.888,-206.5 162.106,-206.5"/>
<polygon fill="midnightblue" stroke="midnightblue" points="162.235,-210 172.235,-206.5 162.235,-203 162.235,-210"/>
</g>
<!-- Node4 -->
<g id="node4" class="node"><title>Node4</title>
<g id="a_node4"><a xlink:href="classpdal_1_1Stage.html#a6c81d6fbbac17ebe4cd63806916cc750" target="_top" xlink:title="pdal::Stage::getName">
<polygon fill="white" stroke="black" points="359,-274 359,-293 471,-293 471,-274 359,-274"/>
<text text-anchor="middle" x="415" y="-281" font-family="Helvetica,sans-Serif" font-size="10.00">pdal::Stage::getName</text>
</a>
</g>
</g>
<!-- Node3&#45;&gt;Node4 -->
<g id="edge3" class="edge"><title>Node3&#45;&gt;Node4</title>
<path fill="none" stroke="midnightblue" d="M289.617,-260.045C309.57,-263.807 332.654,-268.16 353.479,-272.087"/>
<polygon fill="midnightblue" stroke="midnightblue" points="353.021,-275.563 363.497,-273.976 354.318,-268.684 353.021,-275.563"/>
</g>
<!-- Node6 -->
<g id="node6" class="node"><title>Node6</title>
<g id="a_node6"><a xlink:href="classpdal_1_1BpfWriter.html#a3a14953a8baa61b81bae32286441f2cd" target="_top" xlink:title="pdal::BpfWriter::getAdjusted\lValue">
<polygon fill="white" stroke="black" points="345,-186.5 345,-216.5 485,-216.5 485,-186.5 345,-186.5"/>
<text text-anchor="start" x="353" y="-204.5" font-family="Helvetica,sans-Serif" font-size="10.00">pdal::BpfWriter::getAdjusted</text>
<text text-anchor="middle" x="415" y="-193.5" font-family="Helvetica,sans-Serif" font-size="10.00">Value</text>
</a>
</g>
</g>
<!-- Node5&#45;&gt;Node6 -->
<g id="edge5" class="edge"><title>Node5&#45;&gt;Node6</title>
<path fill="none" stroke="midnightblue" d="M298.736,-172.519C313.437,-176.216 329.305,-180.205 344.427,-184.007"/>
<polygon fill="midnightblue" stroke="midnightblue" points="343.685,-187.43 354.237,-186.474 345.392,-180.641 343.685,-187.43"/>
</g>
<!-- Node13 -->
<g id="node13" class="node"><title>Node13</title>
<g id="a_node13"><a xlink:href="classpdal_1_1PointView.html#a4c2fba9b5d7a61f19a558bb08405555d" target="_top" xlink:title="pdal::PointView::size">
<polygon fill="white" stroke="black" points="360.5,-148 360.5,-167 469.5,-167 469.5,-148 360.5,-148"/>
<text text-anchor="middle" x="415" y="-155" font-family="Helvetica,sans-Serif" font-size="10.00">pdal::PointView::size</text>
</a>
</g>
</g>
<!-- Node5&#45;&gt;Node13 -->
<g id="edge12" class="edge"><title>Node5&#45;&gt;Node13</title>
<path fill="none" stroke="midnightblue" d="M302.674,-157.5C318.227,-157.5 334.866,-157.5 350.415,-157.5"/>
<polygon fill="midnightblue" stroke="midnightblue" points="350.452,-161 360.452,-157.5 350.452,-154 350.452,-161"/>
</g>
<!-- Node14 -->
<g id="node14" class="node"><title>Node14</title>
<g id="a_node14"><a xlink:href="classpdal_1_1BpfCompressor.html#a906a2f20c37d1ef06fde968a4e43945f" target="_top" xlink:title="pdal::BpfCompressor\l::startBlock">
<polygon fill="white" stroke="black" points="360.5,-98.5 360.5,-128.5 469.5,-128.5 469.5,-98.5 360.5,-98.5"/>
<text text-anchor="start" x="368.5" y="-116.5" font-family="Helvetica,sans-Serif" font-size="10.00">pdal::BpfCompressor</text>
<text text-anchor="middle" x="415" y="-105.5" font-family="Helvetica,sans-Serif" font-size="10.00">::startBlock</text>
</a>
</g>
</g>
<!-- Node5&#45;&gt;Node14 -->
<g id="edge13" class="edge"><title>Node5&#45;&gt;Node14</title>
<path fill="none" stroke="midnightblue" d="M298.736,-142.481C315.455,-138.277 333.684,-133.694 350.608,-129.439"/>
<polygon fill="midnightblue" stroke="midnightblue" points="351.555,-132.809 360.4,-126.977 349.848,-126.021 351.555,-132.809"/>
</g>
<!-- Node7 -->
<g id="node7" class="node"><title>Node7</title>
<g id="a_node7"><a xlink:href="classpdal_1_1PointView.html#a4c594a6d2a469e594988194ccf125a15" target="_top" xlink:title="pdal::PointView::getFieldAs">
<polygon fill="white" stroke="black" points="521,-184 521,-203 658,-203 658,-184 521,-184"/>
<text text-anchor="middle" x="589.5" y="-191" font-family="Helvetica,sans-Serif" font-size="10.00">pdal::PointView::getFieldAs</text>
</a>
</g>
</g>
<!-- Node6&#45;&gt;Node7 -->
<g id="edge6" class="edge"><title>Node6&#45;&gt;Node7</title>
<path fill="none" stroke="midnightblue" d="M485.168,-198.292C493.498,-197.906 502.049,-197.509 510.494,-197.118"/>
<polygon fill="midnightblue" stroke="midnightblue" points="510.893,-200.603 520.72,-196.643 510.569,-193.611 510.893,-200.603"/>
</g>
<!-- Node8 -->
<g id="node8" class="node"><title>Node8</title>
<g id="a_node8"><a xlink:href="classpdal_1_1Dimension_1_1Detail.html#adf5961976b7fce3d90a0dddd50519a7c" target="_top" xlink:title="pdal::Dimension::Detail\l::type">
<polygon fill="white" stroke="black" points="722.5,-134.5 722.5,-164.5 841.5,-164.5 841.5,-134.5 722.5,-134.5"/>
<text text-anchor="start" x="730.5" y="-152.5" font-family="Helvetica,sans-Serif" font-size="10.00">pdal::Dimension::Detail</text>
<text text-anchor="middle" x="782" y="-141.5" font-family="Helvetica,sans-Serif" font-size="10.00">::type</text>
</a>
</g>
</g>
<!-- Node7&#45;&gt;Node8 -->
<g id="edge7" class="edge"><title>Node7&#45;&gt;Node8</title>
<path fill="none" stroke="midnightblue" d="M631.836,-183.953C655.421,-178.505 685.582,-171.539 712.604,-165.298"/>
<polygon fill="midnightblue" stroke="midnightblue" points="713.443,-168.696 722.399,-163.035 711.868,-161.875 713.443,-168.696"/>
</g>
<!-- Node9 -->
<g id="node9" class="node"><title>Node9</title>
<g id="a_node9"><a xlink:href="namespacepdal_1_1Utils.html#a33d614ac71aa03aaa5c10a242c4d14ac" target="_top" xlink:title="pdal::Utils::numericCast">
<polygon fill="white" stroke="black" points="721,-96 721,-115 843,-115 843,-96 721,-96"/>
<text text-anchor="middle" x="782" y="-103" font-family="Helvetica,sans-Serif" font-size="10.00">pdal::Utils::numericCast</text>
</a>
</g>
</g>
<!-- Node7&#45;&gt;Node9 -->
<g id="edge8" class="edge"><title>Node7&#45;&gt;Node9</title>
<path fill="none" stroke="midnightblue" d="M601.776,-183.881C619.958,-168.881 657.424,-140.029 694,-124.5 700.119,-121.902 706.637,-119.641 713.248,-117.676"/>
<polygon fill="midnightblue" stroke="midnightblue" points="714.248,-121.031 722.963,-115.006 712.393,-114.281 714.248,-121.031"/>
</g>
<!-- Node11 -->
<g id="node11" class="node"><title>Node11</title>
<g id="a_node11"><a xlink:href="namespacepdal_1_1Dimension.html#af3176b0b7e6b4be000317846cf7c2718" target="_top" xlink:title="pdal::Dimension::name">
<polygon fill="white" stroke="black" points="723.5,-222 723.5,-241 840.5,-241 840.5,-222 723.5,-222"/>
<text text-anchor="middle" x="782" y="-229" font-family="Helvetica,sans-Serif" font-size="10.00">pdal::Dimension::name</text>
</a>
</g>
</g>
<!-- Node7&#45;&gt;Node11 -->
<g id="edge10" class="edge"><title>Node7&#45;&gt;Node11</title>
<path fill="none" stroke="midnightblue" d="M638.571,-203.089C664.276,-208.216 696.113,-214.567 723.164,-219.963"/>
<polygon fill="midnightblue" stroke="midnightblue" points="722.783,-223.456 733.274,-221.98 724.152,-216.591 722.783,-223.456"/>
</g>
<!-- Node12 -->
<g id="node12" class="node"><title>Node12</title>
<g id="a_node12"><a xlink:href="namespacepdal_1_1Dimension.html#acc41232ae1e707d6c928ffb9a56592d3" target="_top" xlink:title="pdal::Dimension::interpretationName">
<polygon fill="white" stroke="black" points="694,-184 694,-203 870,-203 870,-184 694,-184"/>
<text text-anchor="middle" x="782" y="-191" font-family="Helvetica,sans-Serif" font-size="10.00">pdal::Dimension::interpretationName</text>
</a>
</g>
</g>
<!-- Node7&#45;&gt;Node12 -->
<g id="edge11" class="edge"><title>Node7&#45;&gt;Node12</title>
<path fill="none" stroke="midnightblue" d="M658.2,-193.5C666.501,-193.5 675.108,-193.5 683.737,-193.5"/>
<polygon fill="midnightblue" stroke="midnightblue" points="683.86,-197 693.86,-193.5 683.86,-190 683.86,-197"/>
</g>
<!-- Node10 -->
<g id="node10" class="node"><title>Node10</title>
<g id="a_node10"><a xlink:href="namespacepdal_1_1Utils.html#a06833597f1fc4287966cfa0867128e59" target="_top" xlink:title="pdal::Utils::sround">
<polygon fill="white" stroke="black" points="907,-96 907,-115 1003,-115 1003,-96 907,-96"/>
<text text-anchor="middle" x="955" y="-103" font-family="Helvetica,sans-Serif" font-size="10.00">pdal::Utils::sround</text>
</a>
</g>
</g>
<!-- Node9&#45;&gt;Node10 -->
<g id="edge9" class="edge"><title>Node9&#45;&gt;Node10</title>
<path fill="none" stroke="midnightblue" d="M843.288,-105.5C860.568,-105.5 879.356,-105.5 896.466,-105.5"/>
<polygon fill="midnightblue" stroke="midnightblue" points="896.873,-109 906.873,-105.5 896.873,-102 896.873,-109"/>
</g>
<!-- Node15&#45;&gt;Node6 -->
<g id="edge17" class="edge"><title>Node15&#45;&gt;Node6</title>
<path fill="none" stroke="midnightblue" d="M293.237,-123.642C298.78,-126.189 304.148,-129.126 309,-132.5 329.744,-146.927 324.382,-161.894 345,-176.5 347.703,-178.415 350.569,-180.199 353.537,-181.858"/>
<polygon fill="midnightblue" stroke="midnightblue" points="352.179,-185.093 362.683,-186.471 355.331,-178.843 352.179,-185.093"/>
</g>
<!-- Node15&#45;&gt;Node13 -->
<g id="edge18" class="edge"><title>Node15&#45;&gt;Node13</title>
<path fill="none" stroke="midnightblue" d="M292.934,-123.601C317.802,-130.565 346.934,-138.722 370.389,-145.289"/>
<polygon fill="midnightblue" stroke="midnightblue" points="369.491,-148.672 380.065,-147.998 371.379,-141.931 369.491,-148.672"/>
</g>
<!-- Node15&#45;&gt;Node14 -->
<g id="edge19" class="edge"><title>Node15&#45;&gt;Node14</title>
<path fill="none" stroke="midnightblue" d="M301.685,-110.291C317.453,-110.742 334.394,-111.226 350.216,-111.678"/>
<polygon fill="midnightblue" stroke="midnightblue" points="350.332,-115.182 360.428,-111.969 350.532,-108.185 350.332,-115.182"/>
</g>
<!-- Node16 -->
<g id="node16" class="node"><title>Node16</title>
<g id="a_node16"><a xlink:href="classpdal_1_1BpfCompressor.html#a37a5330b1e5d1e320f678eed19fe4309" target="_top" xlink:title="pdal::BpfCompressor\l::compress">
<polygon fill="white" stroke="black" points="360.5,-0.5 360.5,-30.5 469.5,-30.5 469.5,-0.5 360.5,-0.5"/>
<text text-anchor="start" x="368.5" y="-18.5" font-family="Helvetica,sans-Serif" font-size="10.00">pdal::BpfCompressor</text>
<text text-anchor="middle" x="415" y="-7.5" font-family="Helvetica,sans-Serif" font-size="10.00">::compress</text>
</a>
</g>
</g>
<!-- Node15&#45;&gt;Node16 -->
<g id="edge15" class="edge"><title>Node15&#45;&gt;Node16</title>
<path fill="none" stroke="midnightblue" d="M258.844,-93.4763C279.516,-78.3428 313.258,-55.0644 345,-39.5 348.715,-37.6783 352.604,-35.9311 356.562,-34.269"/>
<polygon fill="midnightblue" stroke="midnightblue" points="357.885,-37.5096 365.874,-30.5503 355.289,-31.0088 357.885,-37.5096"/>
</g>
<!-- Node17 -->
<g id="node17" class="node"><title>Node17</title>
<g id="a_node17"><a xlink:href="classpdal_1_1BpfCompressor.html#ae55ceb929a1f1edece3bf5161efca771" target="_top" xlink:title="pdal::BpfCompressor\l::finish">
<polygon fill="white" stroke="black" points="360.5,-49.5 360.5,-79.5 469.5,-79.5 469.5,-49.5 360.5,-49.5"/>
<text text-anchor="start" x="368.5" y="-67.5" font-family="Helvetica,sans-Serif" font-size="10.00">pdal::BpfCompressor</text>
<text text-anchor="middle" x="415" y="-56.5" font-family="Helvetica,sans-Serif" font-size="10.00">::finish</text>
</a>
</g>
</g>
<!-- Node15&#45;&gt;Node17 -->
<g id="edge16" class="edge"><title>Node15&#45;&gt;Node17</title>
<path fill="none" stroke="midnightblue" d="M298.736,-93.4808C315.455,-89.2769 333.684,-84.6937 350.608,-80.4386"/>
<polygon fill="midnightblue" stroke="midnightblue" points="351.555,-83.8094 360.4,-77.9766 349.848,-77.0207 351.555,-83.8094"/>
</g>
<!-- Node18&#45;&gt;Node6 -->
<g id="edge21" class="edge"><title>Node18&#45;&gt;Node6</title>
<path fill="none" stroke="midnightblue" d="M303.666,-204.652C313.744,-204.364 324.255,-204.064 334.614,-203.768"/>
<polygon fill="midnightblue" stroke="midnightblue" points="335.004,-207.259 344.9,-203.474 334.804,-200.261 335.004,-207.259"/>
</g>
<!-- Node18&#45;&gt;Node13 -->
<g id="edge22" class="edge"><title>Node18&#45;&gt;Node13</title>
<path fill="none" stroke="midnightblue" d="M291.818,-191.472C308.793,-186.663 327.684,-181.334 345,-176.5 352.912,-174.291 361.34,-171.956 369.49,-169.707"/>
<polygon fill="midnightblue" stroke="midnightblue" points="370.528,-173.051 379.239,-167.02 368.668,-166.303 370.528,-173.051"/>
</g>
<!-- Node18&#45;&gt;Node14 -->
<g id="edge27" class="edge"><title>Node18&#45;&gt;Node14</title>
<path fill="none" stroke="midnightblue" d="M291.019,-191.482C297.336,-188.644 303.494,-185.335 309,-181.5 329.452,-167.254 324.58,-152.793 345,-138.5 347.714,-136.6 350.588,-134.829 353.563,-133.179"/>
<polygon fill="midnightblue" stroke="midnightblue" points="355.353,-136.197 362.725,-128.587 352.216,-129.939 355.353,-136.197"/>
</g>
<!-- Node19 -->
<g id="node19" class="node"><title>Node19</title>
<g id="a_node19"><a xlink:href="namespacepdal_1_1Dimension.html#acf81dae9d5946f3a941f9df154b2329b" target="_top" xlink:title="pdal::Dimension::size">
<polygon fill="white" stroke="black" points="359.5,-236 359.5,-255 470.5,-255 470.5,-236 359.5,-236"/>
<text text-anchor="middle" x="415" y="-243" font-family="Helvetica,sans-Serif" font-size="10.00">pdal::Dimension::size</text>
</a>
</g>
</g>
<!-- Node18&#45;&gt;Node19 -->
<g id="edge23" class="edge"><title>Node18&#45;&gt;Node19</title>
<path fill="none" stroke="midnightblue" d="M303.666,-220.911C322.726,-225.159 343.339,-229.753 361.532,-233.807"/>
<polygon fill="midnightblue" stroke="midnightblue" points="360.843,-237.239 371.365,-235.998 362.366,-230.407 360.843,-237.239"/>
</g>
<!-- Node20 -->
<g id="node20" class="node"><title>Node20</title>
<g id="a_node20"><a xlink:href="namespacepdal_1_1Utils.html#a59253304d0f929e3a3ea00f09636002f" target="_top" xlink:title="pdal::Utils::toNative">
<polygon fill="white" stroke="black" points="537.5,-252 537.5,-271 641.5,-271 641.5,-252 537.5,-252"/>
<text text-anchor="middle" x="589.5" y="-259" font-family="Helvetica,sans-Serif" font-size="10.00">pdal::Utils::toNative</text>
</a>
</g>
</g>
<!-- Node19&#45;&gt;Node20 -->
<g id="edge24" class="edge"><title>Node19&#45;&gt;Node20</title>
<path fill="none" stroke="midnightblue" d="M470.58,-250.562C488.569,-252.231 508.693,-254.098 527.152,-255.81"/>
<polygon fill="midnightblue" stroke="midnightblue" points="526.931,-259.304 537.211,-256.743 527.577,-252.334 526.931,-259.304"/>
</g>
<!-- Node21 -->
<g id="node21" class="node"><title>Node21</title>
<g id="a_node21"><a xlink:href="namespacepdal_1_1Dimension.html#a880d689fed54aa3ded6f88c9e058c5d2" target="_top" xlink:title="pdal::Dimension::type">
<polygon fill="white" stroke="black" points="726,-260 726,-279 838,-279 838,-260 726,-260"/>
<text text-anchor="middle" x="782" y="-267" font-family="Helvetica,sans-Serif" font-size="10.00">pdal::Dimension::type</text>
</a>
</g>
</g>
<!-- Node20&#45;&gt;Node21 -->
<g id="edge25" class="edge"><title>Node20&#45;&gt;Node21</title>
<path fill="none" stroke="midnightblue" d="M641.551,-263.644C664.309,-264.6 691.394,-265.737 715.613,-266.754"/>
<polygon fill="midnightblue" stroke="midnightblue" points="715.658,-270.259 725.796,-267.182 715.951,-263.265 715.658,-270.259"/>
</g>
<!-- Node22 -->
<g id="node22" class="node"><title>Node22</title>
<g id="a_node22"><a xlink:href="namespacepdal_1_1Utils.html#a5268937cf695835e55392f752dc02cb2" target="_top" xlink:title="pdal::Utils::tolower">
<polygon fill="white" stroke="black" points="906,-260 906,-279 1004,-279 1004,-260 906,-260"/>
<text text-anchor="middle" x="955" y="-267" font-family="Helvetica,sans-Serif" font-size="10.00">pdal::Utils::tolower</text>
</a>
</g>
</g>
<!-- Node21&#45;&gt;Node22 -->
<g id="edge26" class="edge"><title>Node21&#45;&gt;Node22</title>
<path fill="none" stroke="midnightblue" d="M838.047,-269.5C856.5,-269.5 877.129,-269.5 895.815,-269.5"/>
<polygon fill="midnightblue" stroke="midnightblue" points="895.969,-273 905.969,-269.5 895.969,-266 895.969,-273"/>
</g>
</g>
</svg>
