<?xml version="1.0" encoding="UTF-8" standalone="no"?>
<!DOCTYPE svg PUBLIC "-//W3C//DTD SVG 1.1//EN"
 "http://www.w3.org/Graphics/SVG/1.1/DTD/svg11.dtd">
<!-- Generated by graphviz version 2.38.0 (20140413.2041)
 -->
<!-- Title: pdal::PgReader::ready Pages: 1 -->
<svg width="794pt" height="123pt"
 viewBox="0.00 0.00 794.00 123.00" xmlns="http://www.w3.org/2000/svg" xmlns:xlink="http://www.w3.org/1999/xlink">
<g id="graph0" class="graph" transform="scale(1 1) rotate(0) translate(4 119)">
<title>pdal::PgReader::ready</title>
<polygon fill="white" stroke="none" points="-4,4 -4,-119 790,-119 790,4 -4,4"/>
<!-- Node1 -->
<g id="node1" class="node"><title>Node1</title>
<polygon fill="#bfbfbf" stroke="black" points="0,-38.5 0,-57.5 114,-57.5 114,-38.5 0,-38.5"/>
<text text-anchor="middle" x="57" y="-45.5" font-family="Helvetica,sans-Serif" font-size="10.00">pdal::PgReader::ready</text>
</g>
<!-- Node2 -->
<g id="node2" class="node"><title>Node2</title>
<g id="a_node2"><a xlink:href="classpdal_1_1PgReader.html#a3b72f380cedc08e711303327b035f2b4" target="_top" xlink:title="pdal::PgReader::CursorSetup">
<polygon fill="white" stroke="black" points="150,-38.5 150,-57.5 295,-57.5 295,-38.5 150,-38.5"/>
<text text-anchor="middle" x="222.5" y="-45.5" font-family="Helvetica,sans-Serif" font-size="10.00">pdal::PgReader::CursorSetup</text>
</a>
</g>
</g>
<!-- Node1&#45;&gt;Node2 -->
<g id="edge1" class="edge"><title>Node1&#45;&gt;Node2</title>
<path fill="none" stroke="midnightblue" d="M114.267,-48C122.5,-48 131.116,-48 139.732,-48"/>
<polygon fill="midnightblue" stroke="midnightblue" points="139.824,-51.5001 149.824,-48 139.824,-44.5001 139.824,-51.5001"/>
</g>
<!-- Node3 -->
<g id="node3" class="node"><title>Node3</title>
<g id="a_node3"><a xlink:href="classpdal_1_1PgReader.html#aef8bf617afc5251372f7c0986c87bbc0" target="_top" xlink:title="pdal::PgReader::getDataQuery">
<polygon fill="white" stroke="black" points="331,-57.5 331,-76.5 482,-76.5 482,-57.5 331,-57.5"/>
<text text-anchor="middle" x="406.5" y="-64.5" font-family="Helvetica,sans-Serif" font-size="10.00">pdal::PgReader::getDataQuery</text>
</a>
</g>
</g>
<!-- Node2&#45;&gt;Node3 -->
<g id="edge2" class="edge"><title>Node2&#45;&gt;Node3</title>
<path fill="none" stroke="midnightblue" d="M295.17,-55.482C303.607,-56.3628 312.276,-57.2678 320.868,-58.1648"/>
<polygon fill="midnightblue" stroke="midnightblue" points="320.593,-61.655 330.902,-59.2123 321.32,-54.6928 320.593,-61.655"/>
</g>
<!-- Node4 -->
<g id="node4" class="node"><title>Node4</title>
<g id="a_node4"><a xlink:href="classpdal_1_1Stage.html#ae8c29817e14d7cda53fdcbb23102d872" target="_top" xlink:title="pdal::Stage::log">
<polygon fill="white" stroke="black" points="536.5,-95.5 536.5,-114.5 621.5,-114.5 621.5,-95.5 536.5,-95.5"/>
<text text-anchor="middle" x="579" y="-102.5" font-family="Helvetica,sans-Serif" font-size="10.00">pdal::Stage::log</text>
</a>
</g>
</g>
<!-- Node2&#45;&gt;Node4 -->
<g id="edge6" class="edge"><title>Node2&#45;&gt;Node4</title>
<path fill="none" stroke="midnightblue" d="M245.247,-57.5995C266.623,-66.5737 300.4,-79.533 331,-86 397.391,-100.031 475.769,-103.984 526.139,-104.952"/>
<polygon fill="midnightblue" stroke="midnightblue" points="526.394,-108.456 536.448,-105.116 526.505,-101.457 526.394,-108.456"/>
</g>
<!-- Node7 -->
<g id="node7" class="node"><title>Node7</title>
<g id="a_node7"><a xlink:href="namespacepdal.html#afe1717f9645892064094713c3f4f3315" target="_top" xlink:title="pdal::pg_begin">
<polygon fill="white" stroke="black" points="366.5,-19.5 366.5,-38.5 446.5,-38.5 446.5,-19.5 366.5,-19.5"/>
<text text-anchor="middle" x="406.5" y="-26.5" font-family="Helvetica,sans-Serif" font-size="10.00">pdal::pg_begin</text>
</a>
</g>
</g>
<!-- Node2&#45;&gt;Node7 -->
<g id="edge7" class="edge"><title>Node2&#45;&gt;Node7</title>
<path fill="none" stroke="midnightblue" d="M295.17,-40.518C315.649,-38.38 337.498,-36.0992 356.303,-34.136"/>
<polygon fill="midnightblue" stroke="midnightblue" points="356.827,-37.6004 366.409,-33.0809 356.1,-30.6382 356.827,-37.6004"/>
</g>
<!-- Node8 -->
<g id="node8" class="node"><title>Node8</title>
<g id="a_node8"><a xlink:href="namespacepdal.html#a5eac2926f1224d534da8c435e6a645d1" target="_top" xlink:title="pdal::pg_execute">
<polygon fill="white" stroke="black" points="533.5,-0.5 533.5,-19.5 624.5,-19.5 624.5,-0.5 533.5,-0.5"/>
<text text-anchor="middle" x="579" y="-7.5" font-family="Helvetica,sans-Serif" font-size="10.00">pdal::pg_execute</text>
</a>
</g>
</g>
<!-- Node2&#45;&gt;Node8 -->
<g id="edge9" class="edge"><title>Node2&#45;&gt;Node8</title>
<path fill="none" stroke="midnightblue" d="M243.948,-38.411C265.168,-29.029 299.589,-15.3883 331,-10 396.44,1.2257 473.075,-1.12757 523.425,-4.74064"/>
<polygon fill="midnightblue" stroke="midnightblue" points="523.208,-8.2342 533.445,-5.50131 523.738,-1.25428 523.208,-8.2342"/>
</g>
<!-- Node3&#45;&gt;Node4 -->
<g id="edge3" class="edge"><title>Node3&#45;&gt;Node4</title>
<path fill="none" stroke="midnightblue" d="M450.524,-76.589C473.675,-81.7486 502.383,-88.1469 526.691,-93.5645"/>
<polygon fill="midnightblue" stroke="midnightblue" points="525.939,-96.9829 536.461,-95.7421 527.462,-90.1505 525.939,-96.9829"/>
</g>
<!-- Node5 -->
<g id="node5" class="node"><title>Node5</title>
<g id="a_node5"><a xlink:href="namespacepdal.html#ad99ce17aa864ec243dd2c32460009634" target="_top" xlink:title="pdal::pg_quote_identifier">
<polygon fill="white" stroke="black" points="518,-57.5 518,-76.5 640,-76.5 640,-57.5 518,-57.5"/>
<text text-anchor="middle" x="579" y="-64.5" font-family="Helvetica,sans-Serif" font-size="10.00">pdal::pg_quote_identifier</text>
</a>
</g>
</g>
<!-- Node3&#45;&gt;Node5 -->
<g id="edge4" class="edge"><title>Node3&#45;&gt;Node5</title>
<path fill="none" stroke="midnightblue" d="M482.284,-67C490.744,-67 499.344,-67 507.743,-67"/>
<polygon fill="midnightblue" stroke="midnightblue" points="507.867,-70.5001 517.867,-67 507.866,-63.5001 507.867,-70.5001"/>
</g>
<!-- Node6 -->
<g id="node6" class="node"><title>Node6</title>
<g id="a_node6"><a xlink:href="namespacepdal_1_1Utils.html#aee933a3f2afb351283582a3a50319fca" target="_top" xlink:title="pdal::Utils::replaceAll">
<polygon fill="white" stroke="black" points="676,-57.5 676,-76.5 786,-76.5 786,-57.5 676,-57.5"/>
<text text-anchor="middle" x="731" y="-64.5" font-family="Helvetica,sans-Serif" font-size="10.00">pdal::Utils::replaceAll</text>
</a>
</g>
</g>
<!-- Node5&#45;&gt;Node6 -->
<g id="edge5" class="edge"><title>Node5&#45;&gt;Node6</title>
<path fill="none" stroke="midnightblue" d="M640.146,-67C648.491,-67 657.09,-67 665.51,-67"/>
<polygon fill="midnightblue" stroke="midnightblue" points="665.661,-70.5001 675.661,-67 665.661,-63.5001 665.661,-70.5001"/>
</g>
<!-- Node7&#45;&gt;Node8 -->
<g id="edge8" class="edge"><title>Node7&#45;&gt;Node8</title>
<path fill="none" stroke="midnightblue" d="M446.616,-24.641C469.342,-22.1085 498.327,-18.8785 523.288,-16.097"/>
<polygon fill="midnightblue" stroke="midnightblue" points="523.798,-19.5619 533.348,-14.9758 523.022,-12.605 523.798,-19.5619"/>
</g>
</g>
</svg>
