<?xml version="1.0" encoding="UTF-8" standalone="no"?>
<!DOCTYPE svg PUBLIC "-//W3C//DTD SVG 1.1//EN"
 "http://www.w3.org/Graphics/SVG/1.1/DTD/svg11.dtd">
<!-- Generated by graphviz version 2.38.0 (20140413.2041)
 -->
<!-- Title: pdal::LasWriter::writeLasZipBuf Pages: 1 -->
<svg width="962pt" height="610pt"
 viewBox="0.00 0.00 962.00 610.00" xmlns="http://www.w3.org/2000/svg" xmlns:xlink="http://www.w3.org/1999/xlink">
<g id="graph0" class="graph" transform="scale(1 1) rotate(0) translate(4 606)">
<title>pdal::LasWriter::writeLasZipBuf</title>
<polygon fill="white" stroke="none" points="-4,4 -4,-606 958,-606 958,4 -4,4"/>
<!-- Node1 -->
<g id="node1" class="node"><title>Node1</title>
<polygon fill="#bfbfbf" stroke="black" points="0,-273 0,-303 125,-303 125,-273 0,-273"/>
<text text-anchor="start" x="8" y="-291" font-family="Helvetica,sans-Serif" font-size="10.00">pdal::LasWriter::writeLas</text>
<text text-anchor="middle" x="62.5" y="-280" font-family="Helvetica,sans-Serif" font-size="10.00">ZipBuf</text>
</g>
<!-- Node2 -->
<g id="node2" class="node"><title>Node2</title>
<g id="a_node2"><a xlink:href="classpdal_1_1PointRef.html#aad07ead440276ae8684e560ab631c2cf" target="_top" xlink:title="pdal::PointRef::getField">
<polygon fill="white" stroke="black" points="177,-563.5 177,-582.5 296,-582.5 296,-563.5 177,-563.5"/>
<text text-anchor="middle" x="236.5" y="-570.5" font-family="Helvetica,sans-Serif" font-size="10.00">pdal::PointRef::getField</text>
</a>
</g>
</g>
<!-- Node1&#45;&gt;Node2 -->
<g id="edge1" class="edge"><title>Node1&#45;&gt;Node2</title>
<path fill="none" stroke="midnightblue" d="M64.6673,-303.139C68.905,-347.533 87.3699,-478.672 161,-549 165.115,-552.93 169.877,-556.217 174.964,-558.965"/>
<polygon fill="midnightblue" stroke="midnightblue" points="173.86,-562.312 184.403,-563.354 176.811,-555.964 173.86,-562.312"/>
</g>
<!-- Node7 -->
<g id="node7" class="node"><title>Node7</title>
<g id="a_node7"><a xlink:href="classpdal_1_1PointRef.html#a4038a597d11918978943e286d58cd4c5" target="_top" xlink:title="pdal::PointRef::getFieldAs">
<polygon fill="white" stroke="black" points="171,-468.5 171,-487.5 302,-487.5 302,-468.5 171,-468.5"/>
<text text-anchor="middle" x="236.5" y="-475.5" font-family="Helvetica,sans-Serif" font-size="10.00">pdal::PointRef::getFieldAs</text>
</a>
</g>
</g>
<!-- Node1&#45;&gt;Node7 -->
<g id="edge6" class="edge"><title>Node1&#45;&gt;Node7</title>
<path fill="none" stroke="midnightblue" d="M68.2948,-303.328C79.2772,-335.943 109.364,-412.61 161,-454 166.272,-458.225 172.306,-461.715 178.607,-464.595"/>
<polygon fill="midnightblue" stroke="midnightblue" points="177.391,-467.878 187.973,-468.393 180.021,-461.392 177.391,-467.878"/>
</g>
<!-- Node8 -->
<g id="node8" class="node"><title>Node8</title>
<g id="a_node8"><a xlink:href="namespacepdal_1_1Utils.html#a33d614ac71aa03aaa5c10a242c4d14ac" target="_top" xlink:title="pdal::Utils::numericCast">
<polygon fill="white" stroke="black" points="375,-544.5 375,-563.5 497,-563.5 497,-544.5 375,-544.5"/>
<text text-anchor="middle" x="436" y="-551.5" font-family="Helvetica,sans-Serif" font-size="10.00">pdal::Utils::numericCast</text>
</a>
</g>
</g>
<!-- Node1&#45;&gt;Node8 -->
<g id="edge24" class="edge"><title>Node1&#45;&gt;Node8</title>
<path fill="none" stroke="midnightblue" d="M65.8547,-303.228C72.7223,-342.173 96.4921,-445.925 161,-497 218.886,-542.832 304.595,-554.337 364.699,-556.119"/>
<polygon fill="midnightblue" stroke="midnightblue" points="364.791,-559.621 374.863,-556.335 364.94,-552.623 364.791,-559.621"/>
</g>
<!-- Node10 -->
<g id="node10" class="node"><title>Node10</title>
<g id="a_node10"><a xlink:href="namespacepdal_1_1Dimension.html#af3176b0b7e6b4be000317846cf7c2718" target="_top" xlink:title="pdal::Dimension::name">
<polygon fill="white" stroke="black" points="377.5,-392.5 377.5,-411.5 494.5,-411.5 494.5,-392.5 377.5,-392.5"/>
<text text-anchor="middle" x="436" y="-399.5" font-family="Helvetica,sans-Serif" font-size="10.00">pdal::Dimension::name</text>
</a>
</g>
</g>
<!-- Node1&#45;&gt;Node10 -->
<g id="edge23" class="edge"><title>Node1&#45;&gt;Node10</title>
<path fill="none" stroke="midnightblue" d="M69.1688,-303.206C81.0106,-332.458 111.458,-395.89 161,-421 197.13,-439.312 305.983,-424.95 375.121,-413.218"/>
<polygon fill="midnightblue" stroke="midnightblue" points="375.761,-416.659 385.02,-411.51 374.571,-409.761 375.761,-416.659"/>
</g>
<!-- Node13 -->
<g id="node13" class="node"><title>Node13</title>
<g id="a_node13"><a xlink:href="classpdal_1_1LasWriter.html#a37ad073f141dcf074c5dcced687feaea" target="_top" xlink:title="pdal::LasWriter::handleLaszip">
<polygon fill="white" stroke="black" points="163.5,-392.5 163.5,-411.5 309.5,-411.5 309.5,-392.5 163.5,-392.5"/>
<text text-anchor="middle" x="236.5" y="-399.5" font-family="Helvetica,sans-Serif" font-size="10.00">pdal::LasWriter::handleLaszip</text>
</a>
</g>
</g>
<!-- Node1&#45;&gt;Node13 -->
<g id="edge13" class="edge"><title>Node1&#45;&gt;Node13</title>
<path fill="none" stroke="midnightblue" d="M76.1506,-303.223C93.4084,-323.079 126.188,-357.671 161,-378 168.588,-382.431 177.096,-386.155 185.575,-389.246"/>
<polygon fill="midnightblue" stroke="midnightblue" points="184.491,-392.574 195.085,-392.471 186.739,-385.945 184.491,-392.574"/>
</g>
<!-- Node14 -->
<g id="node14" class="node"><title>Node14</title>
<g id="a_node14"><a xlink:href="classpdal_1_1Stage.html#abdbd1176da12dfd882d931a43290797f" target="_top" xlink:title="pdal::Stage::throwError">
<polygon fill="white" stroke="black" points="377.5,-354.5 377.5,-373.5 494.5,-373.5 494.5,-354.5 377.5,-354.5"/>
<text text-anchor="middle" x="436" y="-361.5" font-family="Helvetica,sans-Serif" font-size="10.00">pdal::Stage::throwError</text>
</a>
</g>
</g>
<!-- Node1&#45;&gt;Node14 -->
<g id="edge25" class="edge"><title>Node1&#45;&gt;Node14</title>
<path fill="none" stroke="midnightblue" d="M83.1289,-303.171C101.959,-316.792 131.771,-335.986 161,-345 228.991,-365.967 310.809,-368.947 367.237,-367.785"/>
<polygon fill="midnightblue" stroke="midnightblue" points="367.561,-371.278 377.468,-367.523 367.382,-364.28 367.561,-371.278"/>
</g>
<!-- Node16 -->
<g id="node16" class="node"><title>Node16</title>
<g id="a_node16"><a xlink:href="classpdal_1_1LasHeader.html#aa645d7428833489346fe80c449790c48" target="_top" xlink:title="pdal::LasHeader::has14Format">
<polygon fill="white" stroke="black" points="161,-316.5 161,-335.5 312,-335.5 312,-316.5 161,-316.5"/>
<text text-anchor="middle" x="236.5" y="-323.5" font-family="Helvetica,sans-Serif" font-size="10.00">pdal::LasHeader::has14Format</text>
</a>
</g>
</g>
<!-- Node1&#45;&gt;Node16 -->
<g id="edge16" class="edge"><title>Node1&#45;&gt;Node16</title>
<path fill="none" stroke="midnightblue" d="M125.11,-301.612C143.898,-305.762 164.379,-310.287 182.541,-314.3"/>
<polygon fill="midnightblue" stroke="midnightblue" points="181.847,-317.731 192.367,-316.471 183.357,-310.896 181.847,-317.731"/>
</g>
<!-- Node17 -->
<g id="node17" class="node"><title>Node17</title>
<g id="a_node17"><a xlink:href="classpdal_1_1LasHeader.html#a6d71059a21e0f08aed6088e92d695739" target="_top" xlink:title="pdal::LasHeader::hasColor">
<polygon fill="white" stroke="black" points="170,-278.5 170,-297.5 303,-297.5 303,-278.5 170,-278.5"/>
<text text-anchor="middle" x="236.5" y="-285.5" font-family="Helvetica,sans-Serif" font-size="10.00">pdal::LasHeader::hasColor</text>
</a>
</g>
</g>
<!-- Node1&#45;&gt;Node17 -->
<g id="edge17" class="edge"><title>Node1&#45;&gt;Node17</title>
<path fill="none" stroke="midnightblue" d="M125.11,-288C136.368,-288 148.233,-288 159.844,-288"/>
<polygon fill="midnightblue" stroke="midnightblue" points="159.96,-291.5 169.96,-288 159.96,-284.5 159.96,-291.5"/>
</g>
<!-- Node18 -->
<g id="node18" class="node"><title>Node18</title>
<g id="a_node18"><a xlink:href="classpdal_1_1PointRef.html#a67c52d10c675f2cf90fd0b013ed100c3" target="_top" xlink:title="pdal::PointRef::hasDim">
<polygon fill="white" stroke="black" points="177,-240.5 177,-259.5 296,-259.5 296,-240.5 177,-240.5"/>
<text text-anchor="middle" x="236.5" y="-247.5" font-family="Helvetica,sans-Serif" font-size="10.00">pdal::PointRef::hasDim</text>
</a>
</g>
</g>
<!-- Node1&#45;&gt;Node18 -->
<g id="edge18" class="edge"><title>Node1&#45;&gt;Node18</title>
<path fill="none" stroke="midnightblue" d="M125.11,-274.388C143.898,-270.238 164.379,-265.713 182.541,-261.7"/>
<polygon fill="midnightblue" stroke="midnightblue" points="183.357,-265.104 192.367,-259.529 181.847,-258.269 183.357,-265.104"/>
</g>
<!-- Node19 -->
<g id="node19" class="node"><title>Node19</title>
<g id="a_node19"><a xlink:href="classpdal_1_1LasHeader.html#a2dd619414561b16f228517640975ed00" target="_top" xlink:title="pdal::LasHeader::hasInfrared">
<polygon fill="white" stroke="black" points="165,-202.5 165,-221.5 308,-221.5 308,-202.5 165,-202.5"/>
<text text-anchor="middle" x="236.5" y="-209.5" font-family="Helvetica,sans-Serif" font-size="10.00">pdal::LasHeader::hasInfrared</text>
</a>
</g>
</g>
<!-- Node1&#45;&gt;Node19 -->
<g id="edge19" class="edge"><title>Node1&#45;&gt;Node19</title>
<path fill="none" stroke="midnightblue" d="M85.4279,-272.771C104.609,-260.051 133.609,-242.239 161,-231 166.916,-228.573 173.227,-226.388 179.577,-224.441"/>
<polygon fill="midnightblue" stroke="midnightblue" points="180.896,-227.704 189.538,-221.576 178.96,-220.977 180.896,-227.704"/>
</g>
<!-- Node20 -->
<g id="node20" class="node"><title>Node20</title>
<g id="a_node20"><a xlink:href="classpdal_1_1LasHeader.html#a3ad638058d53aca409dadb2b201c23d2" target="_top" xlink:title="pdal::LasHeader::hasTime">
<polygon fill="white" stroke="black" points="171,-164.5 171,-183.5 302,-183.5 302,-164.5 171,-164.5"/>
<text text-anchor="middle" x="236.5" y="-171.5" font-family="Helvetica,sans-Serif" font-size="10.00">pdal::LasHeader::hasTime</text>
</a>
</g>
</g>
<!-- Node1&#45;&gt;Node20 -->
<g id="edge20" class="edge"><title>Node1&#45;&gt;Node20</title>
<path fill="none" stroke="midnightblue" d="M74.9194,-272.647C91.5031,-251.467 124.307,-213.575 161,-193 164.971,-190.773 169.207,-188.802 173.566,-187.059"/>
<polygon fill="midnightblue" stroke="midnightblue" points="175.014,-190.258 183.251,-183.595 172.656,-183.667 175.014,-190.258"/>
</g>
<!-- Node21 -->
<g id="node21" class="node"><title>Node21</title>
<g id="a_node21"><a xlink:href="namespacepdal_1_1Utils.html#aef7c4c4e9e8293317fdc299dff2067f9" target="_top" xlink:title="pdal::Utils::insertDim">
<polygon fill="white" stroke="black" points="182,-126.5 182,-145.5 291,-145.5 291,-126.5 182,-126.5"/>
<text text-anchor="middle" x="236.5" y="-133.5" font-family="Helvetica,sans-Serif" font-size="10.00">pdal::Utils::insertDim</text>
</a>
</g>
</g>
<!-- Node1&#45;&gt;Node21 -->
<g id="edge21" class="edge"><title>Node1&#45;&gt;Node21</title>
<path fill="none" stroke="midnightblue" d="M70.1928,-272.987C83.3786,-245.194 115.445,-185.764 161,-155 164.547,-152.605 168.374,-150.512 172.355,-148.682"/>
<polygon fill="midnightblue" stroke="midnightblue" points="173.883,-151.841 181.866,-144.875 171.281,-145.342 173.883,-151.841"/>
</g>
<!-- Node22 -->
<g id="node22" class="node"><title>Node22</title>
<g id="a_node22"><a xlink:href="classpdal_1_1LasHeader.html#a62adddb546768ece16aa64d48d811b68" target="_top" xlink:title="pdal::LasHeader::maxReturn\lCount">
<polygon fill="white" stroke="black" points="165.5,-77 165.5,-107 307.5,-107 307.5,-77 165.5,-77"/>
<text text-anchor="start" x="173.5" y="-95" font-family="Helvetica,sans-Serif" font-size="10.00">pdal::LasHeader::maxReturn</text>
<text text-anchor="middle" x="236.5" y="-84" font-family="Helvetica,sans-Serif" font-size="10.00">Count</text>
</a>
</g>
</g>
<!-- Node1&#45;&gt;Node22 -->
<g id="edge22" class="edge"><title>Node1&#45;&gt;Node22</title>
<path fill="none" stroke="midnightblue" d="M68.036,-272.767C78.6927,-239.563 108.471,-160.193 161,-117 163.075,-115.294 165.271,-113.703 167.557,-112.218"/>
<polygon fill="midnightblue" stroke="midnightblue" points="169.783,-114.98 176.761,-107.007 166.334,-108.889 169.783,-114.98"/>
</g>
<!-- Node23 -->
<g id="node23" class="node"><title>Node23</title>
<g id="a_node23"><a xlink:href="structpdal_1_1XForm.html#af3817e67d13a8d832f168a2f4eac7408" target="_top" xlink:title="pdal::XForm::toScaled">
<polygon fill="white" stroke="black" points="179.5,-38.5 179.5,-57.5 293.5,-57.5 293.5,-38.5 179.5,-38.5"/>
<text text-anchor="middle" x="236.5" y="-45.5" font-family="Helvetica,sans-Serif" font-size="10.00">pdal::XForm::toScaled</text>
</a>
</g>
</g>
<!-- Node1&#45;&gt;Node23 -->
<g id="edge26" class="edge"><title>Node1&#45;&gt;Node23</title>
<path fill="none" stroke="midnightblue" d="M65.5668,-272.974C71.8894,-232.967 94.7463,-123.089 161,-67 163.868,-64.5716 167.007,-62.4476 170.322,-60.5903"/>
<polygon fill="midnightblue" stroke="midnightblue" points="171.903,-63.7143 179.443,-56.2713 168.907,-57.3878 171.903,-63.7143"/>
</g>
<!-- Node24 -->
<g id="node24" class="node"><title>Node24</title>
<g id="a_node24"><a xlink:href="namespacepdal_1_1Utils.html#a19dbb0a5ce84b6f60fea55cd54e674cf" target="_top" xlink:title="pdal::Utils::toString">
<polygon fill="white" stroke="black" points="186,-0.5 186,-19.5 287,-19.5 287,-0.5 186,-0.5"/>
<text text-anchor="middle" x="236.5" y="-7.5" font-family="Helvetica,sans-Serif" font-size="10.00">pdal::Utils::toString</text>
</a>
</g>
</g>
<!-- Node1&#45;&gt;Node24 -->
<g id="edge27" class="edge"><title>Node1&#45;&gt;Node24</title>
<path fill="none" stroke="midnightblue" d="M64.5044,-272.757C68.2942,-228.096 85.6514,-96.4625 161,-29 165.46,-25.0072 170.643,-21.8303 176.159,-19.3059"/>
<polygon fill="midnightblue" stroke="midnightblue" points="177.609,-22.4983 185.689,-15.6447 175.099,-15.9639 177.609,-22.4983"/>
</g>
<!-- Node3 -->
<g id="node3" class="node"><title>Node3</title>
<g id="a_node3"><a xlink:href="namespacepdal_1_1Dimension.html#acf81dae9d5946f3a941f9df154b2329b" target="_top" xlink:title="pdal::Dimension::size">
<polygon fill="white" stroke="black" points="380.5,-582.5 380.5,-601.5 491.5,-601.5 491.5,-582.5 380.5,-582.5"/>
<text text-anchor="middle" x="436" y="-589.5" font-family="Helvetica,sans-Serif" font-size="10.00">pdal::Dimension::size</text>
</a>
</g>
</g>
<!-- Node2&#45;&gt;Node3 -->
<g id="edge2" class="edge"><title>Node2&#45;&gt;Node3</title>
<path fill="none" stroke="midnightblue" d="M296.222,-578.649C319.503,-580.889 346.358,-583.472 370.204,-585.766"/>
<polygon fill="midnightblue" stroke="midnightblue" points="369.932,-589.256 380.221,-586.73 370.602,-582.289 369.932,-589.256"/>
</g>
<!-- Node4 -->
<g id="node4" class="node"><title>Node4</title>
<g id="a_node4"><a xlink:href="namespacepdal_1_1Utils.html#a59253304d0f929e3a3ea00f09636002f" target="_top" xlink:title="pdal::Utils::toNative">
<polygon fill="white" stroke="black" points="564,-582.5 564,-601.5 668,-601.5 668,-582.5 564,-582.5"/>
<text text-anchor="middle" x="616" y="-589.5" font-family="Helvetica,sans-Serif" font-size="10.00">pdal::Utils::toNative</text>
</a>
</g>
</g>
<!-- Node3&#45;&gt;Node4 -->
<g id="edge3" class="edge"><title>Node3&#45;&gt;Node4</title>
<path fill="none" stroke="midnightblue" d="M491.858,-592C511.52,-592 533.802,-592 553.956,-592"/>
<polygon fill="midnightblue" stroke="midnightblue" points="553.965,-595.5 563.965,-592 553.965,-588.5 553.965,-595.5"/>
</g>
<!-- Node5 -->
<g id="node5" class="node"><title>Node5</title>
<g id="a_node5"><a xlink:href="namespacepdal_1_1Dimension.html#a880d689fed54aa3ded6f88c9e058c5d2" target="_top" xlink:title="pdal::Dimension::type">
<polygon fill="white" stroke="black" points="708,-544.5 708,-563.5 820,-563.5 820,-544.5 708,-544.5"/>
<text text-anchor="middle" x="764" y="-551.5" font-family="Helvetica,sans-Serif" font-size="10.00">pdal::Dimension::type</text>
</a>
</g>
</g>
<!-- Node4&#45;&gt;Node5 -->
<g id="edge4" class="edge"><title>Node4&#45;&gt;Node5</title>
<path fill="none" stroke="midnightblue" d="M653.842,-582.411C672.848,-577.464 696.229,-571.379 716.469,-566.111"/>
<polygon fill="midnightblue" stroke="midnightblue" points="717.627,-569.426 726.423,-563.52 715.864,-562.652 717.627,-569.426"/>
</g>
<!-- Node6 -->
<g id="node6" class="node"><title>Node6</title>
<g id="a_node6"><a xlink:href="namespacepdal_1_1Utils.html#a5268937cf695835e55392f752dc02cb2" target="_top" xlink:title="pdal::Utils::tolower">
<polygon fill="white" stroke="black" points="856,-544.5 856,-563.5 954,-563.5 954,-544.5 856,-544.5"/>
<text text-anchor="middle" x="905" y="-551.5" font-family="Helvetica,sans-Serif" font-size="10.00">pdal::Utils::tolower</text>
</a>
</g>
</g>
<!-- Node5&#45;&gt;Node6 -->
<g id="edge5" class="edge"><title>Node5&#45;&gt;Node6</title>
<path fill="none" stroke="midnightblue" d="M820.336,-554C828.625,-554 837.194,-554 845.546,-554"/>
<polygon fill="midnightblue" stroke="midnightblue" points="845.59,-557.5 855.59,-554 845.59,-550.5 845.59,-557.5"/>
</g>
<!-- Node7&#45;&gt;Node5 -->
<g id="edge7" class="edge"><title>Node7&#45;&gt;Node5</title>
<path fill="none" stroke="midnightblue" d="M289.406,-487.515C307.87,-490.743 328.831,-494.23 348,-497 491.496,-517.737 528.895,-511.716 672,-535 684.695,-537.066 698.305,-539.686 711.03,-542.317"/>
<polygon fill="midnightblue" stroke="midnightblue" points="710.505,-545.783 721.011,-544.418 711.947,-538.933 710.505,-545.783"/>
</g>
<!-- Node7&#45;&gt;Node8 -->
<g id="edge8" class="edge"><title>Node7&#45;&gt;Node8</title>
<path fill="none" stroke="midnightblue" d="M255.469,-487.625C277.004,-498.884 314.397,-517.562 348,-530 359.709,-534.334 372.559,-538.295 384.704,-541.696"/>
<polygon fill="midnightblue" stroke="midnightblue" points="384.132,-545.168 394.7,-544.417 385.97,-538.413 384.132,-545.168"/>
</g>
<!-- Node7&#45;&gt;Node10 -->
<g id="edge10" class="edge"><title>Node7&#45;&gt;Node10</title>
<path fill="none" stroke="midnightblue" d="M277.901,-468.448C289.356,-464.834 301.546,-460.08 312,-454 330.762,-443.087 328.732,-430.994 348,-421 354.086,-417.843 360.673,-415.21 367.407,-413.014"/>
<polygon fill="midnightblue" stroke="midnightblue" points="368.726,-416.275 377.335,-410.099 366.753,-409.558 368.726,-416.275"/>
</g>
<!-- Node11 -->
<g id="node11" class="node"><title>Node11</title>
<g id="a_node11"><a xlink:href="namespacepdal_1_1Dimension.html#acc41232ae1e707d6c928ffb9a56592d3" target="_top" xlink:title="pdal::Dimension::interpretationName">
<polygon fill="white" stroke="black" points="348,-430.5 348,-449.5 524,-449.5 524,-430.5 348,-430.5"/>
<text text-anchor="middle" x="436" y="-437.5" font-family="Helvetica,sans-Serif" font-size="10.00">pdal::Dimension::interpretationName</text>
</a>
</g>
</g>
<!-- Node7&#45;&gt;Node11 -->
<g id="edge11" class="edge"><title>Node7&#45;&gt;Node11</title>
<path fill="none" stroke="midnightblue" d="M287.083,-468.46C313.847,-463.31 347.081,-456.916 375.264,-451.494"/>
<polygon fill="midnightblue" stroke="midnightblue" points="376.238,-454.87 385.397,-449.544 374.916,-447.996 376.238,-454.87"/>
</g>
<!-- Node12 -->
<g id="node12" class="node"><title>Node12</title>
<g id="a_node12"><a xlink:href="namespacepdal_1_1Utils.html#a9b5b9ef216d7036c7cb36d219af17925" target="_top" xlink:title="pdal::Utils::toDouble">
<polygon fill="white" stroke="black" points="383,-468.5 383,-487.5 489,-487.5 489,-468.5 383,-468.5"/>
<text text-anchor="middle" x="436" y="-475.5" font-family="Helvetica,sans-Serif" font-size="10.00">pdal::Utils::toDouble</text>
</a>
</g>
</g>
<!-- Node7&#45;&gt;Node12 -->
<g id="edge12" class="edge"><title>Node7&#45;&gt;Node12</title>
<path fill="none" stroke="midnightblue" d="M302.169,-478C324.802,-478 350.158,-478 372.602,-478"/>
<polygon fill="midnightblue" stroke="midnightblue" points="372.689,-481.5 382.689,-478 372.689,-474.5 372.689,-481.5"/>
</g>
<!-- Node9 -->
<g id="node9" class="node"><title>Node9</title>
<g id="a_node9"><a xlink:href="namespacepdal_1_1Utils.html#a06833597f1fc4287966cfa0867128e59" target="_top" xlink:title="pdal::Utils::sround">
<polygon fill="white" stroke="black" points="568,-544.5 568,-563.5 664,-563.5 664,-544.5 568,-544.5"/>
<text text-anchor="middle" x="616" y="-551.5" font-family="Helvetica,sans-Serif" font-size="10.00">pdal::Utils::sround</text>
</a>
</g>
</g>
<!-- Node8&#45;&gt;Node9 -->
<g id="edge9" class="edge"><title>Node8&#45;&gt;Node9</title>
<path fill="none" stroke="midnightblue" d="M497.263,-554C516.755,-554 538.308,-554 557.588,-554"/>
<polygon fill="midnightblue" stroke="midnightblue" points="557.737,-557.5 567.737,-554 557.737,-550.5 557.737,-557.5"/>
</g>
<!-- Node13&#45;&gt;Node14 -->
<g id="edge14" class="edge"><title>Node13&#45;&gt;Node14</title>
<path fill="none" stroke="midnightblue" d="M287.083,-392.46C313.847,-387.31 347.081,-380.916 375.264,-375.494"/>
<polygon fill="midnightblue" stroke="midnightblue" points="376.238,-378.87 385.397,-373.544 374.916,-371.996 376.238,-378.87"/>
</g>
<!-- Node15 -->
<g id="node15" class="node"><title>Node15</title>
<g id="a_node15"><a xlink:href="classpdal_1_1Stage.html#a6c81d6fbbac17ebe4cd63806916cc750" target="_top" xlink:title="pdal::Stage::getName">
<polygon fill="white" stroke="black" points="560,-354.5 560,-373.5 672,-373.5 672,-354.5 560,-354.5"/>
<text text-anchor="middle" x="616" y="-361.5" font-family="Helvetica,sans-Serif" font-size="10.00">pdal::Stage::getName</text>
</a>
</g>
</g>
<!-- Node14&#45;&gt;Node15 -->
<g id="edge15" class="edge"><title>Node14&#45;&gt;Node15</title>
<path fill="none" stroke="midnightblue" d="M494.791,-364C512.354,-364 531.773,-364 549.789,-364"/>
<polygon fill="midnightblue" stroke="midnightblue" points="549.92,-367.5 559.92,-364 549.92,-360.5 549.92,-367.5"/>
</g>
</g>
</svg>
