<?xml version="1.0" encoding="UTF-8" standalone="no"?>
<!DOCTYPE svg PUBLIC "-//W3C//DTD SVG 1.1//EN"
 "http://www.w3.org/Graphics/SVG/1.1/DTD/svg11.dtd">
<!-- Generated by graphviz version 2.38.0 (20140413.2041)
 -->
<!-- Title: App::App Pages: 1 -->
<svg width="713pt" height="218pt"
 viewBox="0.00 0.00 713.00 218.00" xmlns="http://www.w3.org/2000/svg" xmlns:xlink="http://www.w3.org/1999/xlink">
<g id="graph0" class="graph" transform="scale(1 1) rotate(0) translate(4 214)">
<title>App::App</title>
<polygon fill="white" stroke="none" points="-4,4 -4,-214 709,-214 709,4 -4,4"/>
<!-- Node1 -->
<g id="node1" class="node"><title>Node1</title>
<polygon fill="#bfbfbf" stroke="black" points="0,-92.5 0,-111.5 57,-111.5 57,-92.5 0,-92.5"/>
<text text-anchor="middle" x="28.5" y="-99.5" font-family="Helvetica,sans-Serif" font-size="10.00">App::App</text>
</g>
<!-- Node2 -->
<g id="node2" class="node"><title>Node2</title>
<g id="a_node2"><a xlink:href="namespacepdal_1_1nitfwrap_1_1anonymous__namespace_02NitfWrap_8cpp_03.html#a9f3fd3fdc0afe5194453dd76bf9e5bfa" target="_top" xlink:title="pdal::nitfwrap::anonymous\l_namespace\{NitfWrap::cpp\}\l::outputHelp">
<polygon fill="white" stroke="black" points="93,-81.5 93,-122.5 232,-122.5 232,-81.5 93,-81.5"/>
<text text-anchor="start" x="101" y="-110.5" font-family="Helvetica,sans-Serif" font-size="10.00">pdal::nitfwrap::anonymous</text>
<text text-anchor="start" x="101" y="-99.5" font-family="Helvetica,sans-Serif" font-size="10.00">_namespace{NitfWrap::cpp}</text>
<text text-anchor="middle" x="162.5" y="-88.5" font-family="Helvetica,sans-Serif" font-size="10.00">::outputHelp</text>
</a>
</g>
</g>
<!-- Node1&#45;&gt;Node2 -->
<g id="edge1" class="edge"><title>Node1&#45;&gt;Node2</title>
<path fill="none" stroke="midnightblue" d="M57.1715,-102C64.8064,-102 73.4885,-102 82.5077,-102"/>
<polygon fill="midnightblue" stroke="midnightblue" points="82.7959,-105.5 92.7959,-102 82.7959,-98.5001 82.7959,-105.5"/>
</g>
<!-- Node3 -->
<g id="node3" class="node"><title>Node3</title>
<g id="a_node3"><a xlink:href="classpdal_1_1ProgramArgs.html#a2edde7bdd6035cd449d94478a985f33f" target="_top" xlink:title="pdal::ProgramArgs::\lcommandLine">
<polygon fill="white" stroke="black" points="280,-147 280,-177 384,-177 384,-147 280,-147"/>
<text text-anchor="start" x="288" y="-165" font-family="Helvetica,sans-Serif" font-size="10.00">pdal::ProgramArgs::</text>
<text text-anchor="middle" x="332" y="-154" font-family="Helvetica,sans-Serif" font-size="10.00">commandLine</text>
</a>
</g>
</g>
<!-- Node2&#45;&gt;Node3 -->
<g id="edge2" class="edge"><title>Node2&#45;&gt;Node3</title>
<path fill="none" stroke="midnightblue" d="M221.144,-122.649C240.162,-129.461 261.176,-136.988 279.688,-143.62"/>
<polygon fill="midnightblue" stroke="midnightblue" points="278.523,-146.92 289.118,-146.997 280.884,-140.33 278.523,-146.92"/>
</g>
<!-- Node6 -->
<g id="node6" class="node"><title>Node6</title>
<g id="a_node6"><a xlink:href="classpdal_1_1ProgramArgs.html#a735375940de6cf77c210986dbadb5ae2" target="_top" xlink:title="pdal::ProgramArgs::dump">
<polygon fill="white" stroke="black" points="268,-92.5 268,-111.5 396,-111.5 396,-92.5 268,-92.5"/>
<text text-anchor="middle" x="332" y="-99.5" font-family="Helvetica,sans-Serif" font-size="10.00">pdal::ProgramArgs::dump</text>
</a>
</g>
</g>
<!-- Node2&#45;&gt;Node6 -->
<g id="edge5" class="edge"><title>Node2&#45;&gt;Node6</title>
<path fill="none" stroke="midnightblue" d="M232.112,-102C240.526,-102 249.151,-102 257.632,-102"/>
<polygon fill="midnightblue" stroke="midnightblue" points="257.882,-105.5 267.881,-102 257.881,-98.5001 257.882,-105.5"/>
</g>
<!-- Node12 -->
<g id="node12" class="node"><title>Node12</title>
<g id="a_node12"><a xlink:href="namespacepdal_1_1Utils.html#aee17eefb452039219cd761523ec99bed" target="_top" xlink:title="pdal::Utils::screenWidth">
<polygon fill="white" stroke="black" points="271,-54.5 271,-73.5 393,-73.5 393,-54.5 271,-54.5"/>
<text text-anchor="middle" x="332" y="-61.5" font-family="Helvetica,sans-Serif" font-size="10.00">pdal::Utils::screenWidth</text>
</a>
</g>
</g>
<!-- Node2&#45;&gt;Node12 -->
<g id="edge12" class="edge"><title>Node2&#45;&gt;Node12</title>
<path fill="none" stroke="midnightblue" d="M232.112,-86.4343C247.674,-82.9038 263.958,-79.2096 278.716,-75.8615"/>
<polygon fill="midnightblue" stroke="midnightblue" points="279.684,-79.2309 288.662,-73.6051 278.135,-72.4044 279.684,-79.2309"/>
</g>
<!-- Node4 -->
<g id="node4" class="node"><title>Node4</title>
<g id="a_node4"><a xlink:href="classpdal_1_1Arg.html#a04d4397190ffe54f705dc746568a99c8" target="_top" xlink:title="pdal::Arg::hidden">
<polygon fill="white" stroke="black" points="448,-152.5 448,-171.5 538,-171.5 538,-152.5 448,-152.5"/>
<text text-anchor="middle" x="493" y="-159.5" font-family="Helvetica,sans-Serif" font-size="10.00">pdal::Arg::hidden</text>
</a>
</g>
</g>
<!-- Node3&#45;&gt;Node4 -->
<g id="edge3" class="edge"><title>Node3&#45;&gt;Node4</title>
<path fill="none" stroke="midnightblue" d="M384.184,-162C401.174,-162 420.15,-162 437.389,-162"/>
<polygon fill="midnightblue" stroke="midnightblue" points="437.865,-165.5 447.865,-162 437.865,-158.5 437.865,-165.5"/>
</g>
<!-- Node5 -->
<g id="node5" class="node"><title>Node5</title>
<g id="a_node5"><a xlink:href="classpdal_1_1Arg.html#aa8fe22fa454e6ec15b3d6f588d4e6449" target="_top" xlink:title="pdal::Arg::commandLine">
<polygon fill="white" stroke="black" points="432,-190.5 432,-209.5 554,-209.5 554,-190.5 432,-190.5"/>
<text text-anchor="middle" x="493" y="-197.5" font-family="Helvetica,sans-Serif" font-size="10.00">pdal::Arg::commandLine</text>
</a>
</g>
</g>
<!-- Node3&#45;&gt;Node5 -->
<g id="edge4" class="edge"><title>Node3&#45;&gt;Node5</title>
<path fill="none" stroke="midnightblue" d="M384.184,-174.233C402.721,-178.663 423.62,-183.658 442.049,-188.062"/>
<polygon fill="midnightblue" stroke="midnightblue" points="441.463,-191.52 452.003,-190.441 443.09,-184.712 441.463,-191.52"/>
</g>
<!-- Node6&#45;&gt;Node4 -->
<g id="edge6" class="edge"><title>Node6&#45;&gt;Node4</title>
<path fill="none" stroke="midnightblue" d="M354.807,-111.666C374.726,-120.342 405.085,-133.186 432,-143 437.928,-145.162 444.235,-147.315 450.448,-149.354"/>
<polygon fill="midnightblue" stroke="midnightblue" points="449.475,-152.717 460.066,-152.448 451.619,-146.053 449.475,-152.717"/>
</g>
<!-- Node7 -->
<g id="node7" class="node"><title>Node7</title>
<g id="a_node7"><a xlink:href="classpdal_1_1Arg.html#aed1a5d82948beeb7c7edae502fc48153" target="_top" xlink:title="pdal::Arg::nameDescrip">
<polygon fill="white" stroke="black" points="433.5,-114.5 433.5,-133.5 552.5,-133.5 552.5,-114.5 433.5,-114.5"/>
<text text-anchor="middle" x="493" y="-121.5" font-family="Helvetica,sans-Serif" font-size="10.00">pdal::Arg::nameDescrip</text>
</a>
</g>
</g>
<!-- Node6&#45;&gt;Node7 -->
<g id="edge7" class="edge"><title>Node6&#45;&gt;Node7</title>
<path fill="none" stroke="midnightblue" d="M396.298,-110.758C405.17,-111.986 414.323,-113.252 423.289,-114.493"/>
<polygon fill="midnightblue" stroke="midnightblue" points="422.923,-117.975 433.309,-115.879 423.883,-111.042 422.923,-117.975"/>
</g>
<!-- Node8 -->
<g id="node8" class="node"><title>Node8</title>
<g id="a_node8"><a xlink:href="classpdal_1_1Arg.html#a3018ba91f8251d33c1c41fc28406dcb1" target="_top" xlink:title="pdal::Arg::description">
<polygon fill="white" stroke="black" points="438.5,-76.5 438.5,-95.5 547.5,-95.5 547.5,-76.5 438.5,-76.5"/>
<text text-anchor="middle" x="493" y="-83.5" font-family="Helvetica,sans-Serif" font-size="10.00">pdal::Arg::description</text>
</a>
</g>
</g>
<!-- Node6&#45;&gt;Node8 -->
<g id="edge8" class="edge"><title>Node6&#45;&gt;Node8</title>
<path fill="none" stroke="midnightblue" d="M396.298,-95.6304C406.864,-94.5672 417.829,-93.4638 428.402,-92.3998"/>
<polygon fill="midnightblue" stroke="midnightblue" points="428.795,-95.878 438.394,-91.3943 428.094,-88.9132 428.795,-95.878"/>
</g>
<!-- Node9 -->
<g id="node9" class="node"><title>Node9</title>
<g id="a_node9"><a xlink:href="namespacepdal_1_1Utils.html#aa378eb082b365411cba12fa0d72d0fa9" target="_top" xlink:title="pdal::Utils::wordWrap">
<polygon fill="white" stroke="black" points="437.5,-38.5 437.5,-57.5 548.5,-57.5 548.5,-38.5 437.5,-38.5"/>
<text text-anchor="middle" x="493" y="-45.5" font-family="Helvetica,sans-Serif" font-size="10.00">pdal::Utils::wordWrap</text>
</a>
</g>
</g>
<!-- Node6&#45;&gt;Node9 -->
<g id="edge9" class="edge"><title>Node6&#45;&gt;Node9</title>
<path fill="none" stroke="midnightblue" d="M367.591,-92.4179C376.893,-89.6107 386.897,-86.3804 396,-83 412.414,-76.9047 415.628,-73.2081 432,-67 437.694,-64.8408 443.753,-62.7211 449.747,-60.7262"/>
<polygon fill="midnightblue" stroke="midnightblue" points="451.265,-63.9136 459.7,-57.5017 449.108,-57.2544 451.265,-63.9136"/>
</g>
<!-- Node11 -->
<g id="node11" class="node"><title>Node11</title>
<g id="a_node11"><a xlink:href="namespacepdal_1_1Dimension.html#af3176b0b7e6b4be000317846cf7c2718" target="_top" xlink:title="pdal::Dimension::name">
<polygon fill="white" stroke="black" points="434.5,-0.5 434.5,-19.5 551.5,-19.5 551.5,-0.5 434.5,-0.5"/>
<text text-anchor="middle" x="493" y="-7.5" font-family="Helvetica,sans-Serif" font-size="10.00">pdal::Dimension::name</text>
</a>
</g>
</g>
<!-- Node6&#45;&gt;Node11 -->
<g id="edge11" class="edge"><title>Node6&#45;&gt;Node11</title>
<path fill="none" stroke="midnightblue" d="M378.538,-92.4356C384.744,-89.9703 390.769,-86.8776 396,-83 419.173,-65.824 408.946,-46.3351 432,-29 434.496,-27.1234 437.182,-25.429 439.985,-23.8994"/>
<polygon fill="midnightblue" stroke="midnightblue" points="441.679,-26.9708 449.245,-19.5547 438.706,-20.6337 441.679,-26.9708"/>
</g>
<!-- Node10 -->
<g id="node10" class="node"><title>Node10</title>
<g id="a_node10"><a xlink:href="namespacepdal_1_1Utils.html#afed0ad4146baafd1973c85e1508ade73" target="_top" xlink:title="pdal::Utils::trimTrailing">
<polygon fill="white" stroke="black" points="590,-38.5 590,-57.5 705,-57.5 705,-38.5 590,-38.5"/>
<text text-anchor="middle" x="647.5" y="-45.5" font-family="Helvetica,sans-Serif" font-size="10.00">pdal::Utils::trimTrailing</text>
</a>
</g>
</g>
<!-- Node9&#45;&gt;Node10 -->
<g id="edge10" class="edge"><title>Node9&#45;&gt;Node10</title>
<path fill="none" stroke="midnightblue" d="M548.625,-48C558.689,-48 569.3,-48 579.675,-48"/>
<polygon fill="midnightblue" stroke="midnightblue" points="579.942,-51.5001 589.942,-48 579.942,-44.5001 579.942,-51.5001"/>
</g>
</g>
</svg>
