<?xml version="1.0" encoding="UTF-8" standalone="no"?>
<!DOCTYPE svg PUBLIC "-//W3C//DTD SVG 1.1//EN"
 "http://www.w3.org/Graphics/SVG/1.1/DTD/svg11.dtd">
<!-- Generated by graphviz version 2.38.0 (20140413.2041)
 -->
<!-- Title: pdal::Stage::setupLog Pages: 1 -->
<svg width="742pt" height="2000pt"
 viewBox="0.00 0.00 742.00 2000.00" xmlns="http://www.w3.org/2000/svg" xmlns:xlink="http://www.w3.org/1999/xlink">
<g id="graph0" class="graph" transform="scale(1 1) rotate(0) translate(4 1996)">
<title>pdal::Stage::setupLog</title>
<polygon fill="white" stroke="none" points="-4,4 -4,-1996 738,-1996 738,4 -4,4"/>
<!-- Node1 -->
<g id="node1" class="node"><title>Node1</title>
<polygon fill="#bfbfbf" stroke="black" points="0,-576.5 0,-595.5 112,-595.5 112,-576.5 0,-576.5"/>
<text text-anchor="middle" x="56" y="-583.5" font-family="Helvetica,sans-Serif" font-size="10.00">pdal::Stage::setupLog</text>
</g>
<!-- Node2 -->
<g id="node2" class="node"><title>Node2</title>
<g id="a_node2"><a xlink:href="classpdal_1_1Stage.html#a75f17f9b67f48f6aab1d98aadefc4d5c" target="_top" xlink:title="pdal::Stage::handleOptions">
<polygon fill="white" stroke="black" points="148,-576.5 148,-595.5 282,-595.5 282,-576.5 148,-576.5"/>
<text text-anchor="middle" x="215" y="-583.5" font-family="Helvetica,sans-Serif" font-size="10.00">pdal::Stage::handleOptions</text>
</a>
</g>
</g>
<!-- Node1&#45;&gt;Node2 -->
<g id="edge1" class="edge"><title>Node1&#45;&gt;Node2</title>
<path fill="none" stroke="midnightblue" d="M122.46,-586C130.851,-586 139.447,-586 147.85,-586"/>
<polygon fill="midnightblue" stroke="midnightblue" points="122.352,-582.5 112.352,-586 122.352,-589.5 122.352,-582.5"/>
</g>
<!-- Node3 -->
<g id="node3" class="node"><title>Node3</title>
<g id="a_node3"><a xlink:href="classpdal_1_1Stage.html#a4b9296a59f8852b3d08630f1086bfbea" target="_top" xlink:title="pdal::Stage::prepare">
<polygon fill="white" stroke="black" points="319,-1064.5 319,-1083.5 423,-1083.5 423,-1064.5 319,-1064.5"/>
<text text-anchor="middle" x="371" y="-1071.5" font-family="Helvetica,sans-Serif" font-size="10.00">pdal::Stage::prepare</text>
</a>
</g>
</g>
<!-- Node2&#45;&gt;Node3 -->
<g id="edge2" class="edge"><title>Node2&#45;&gt;Node3</title>
<path fill="none" stroke="midnightblue" d="M222.094,-605.312C247.94,-687.212 348.03,-1004.38 366.916,-1064.23"/>
<polygon fill="midnightblue" stroke="midnightblue" points="225.423,-604.231 219.076,-595.748 218.748,-606.338 225.423,-604.231"/>
</g>
<!-- Node48 -->
<g id="node48" class="node"><title>Node48</title>
<g id="a_node48"><a xlink:href="classpdal_1_1Stage.html#a25bb5ef4315f98fb88657876077ae7e4" target="_top" xlink:title="pdal::Stage::preview">
<polygon fill="white" stroke="black" points="318,-88.5 318,-107.5 424,-107.5 424,-88.5 318,-88.5"/>
<text text-anchor="middle" x="371" y="-95.5" font-family="Helvetica,sans-Serif" font-size="10.00">pdal::Stage::preview</text>
</a>
</g>
</g>
<!-- Node2&#45;&gt;Node48 -->
<g id="edge48" class="edge"><title>Node2&#45;&gt;Node48</title>
<path fill="none" stroke="midnightblue" d="M222.094,-566.688C247.94,-484.788 348.03,-167.619 366.916,-107.771"/>
<polygon fill="midnightblue" stroke="midnightblue" points="218.748,-565.662 219.076,-576.252 225.423,-567.769 218.748,-565.662"/>
</g>
<!-- Node3&#45;&gt;Node3 -->
<g id="edge28" class="edge"><title>Node3&#45;&gt;Node3</title>
<path fill="none" stroke="midnightblue" d="M341.881,-1092.65C343.098,-1097.94 352.804,-1102 371,-1102 398.727,-1102 406.741,-1092.57 395.044,-1083.76"/>
<polygon fill="midnightblue" stroke="midnightblue" points="345.041,-1094.18 346.956,-1083.76 338.961,-1090.71 345.041,-1094.18"/>
</g>
<!-- Node4 -->
<g id="node4" class="node"><title>Node4</title>
<g id="a_node4"><a xlink:href="classSupport.html#a0f6b5ed9b20a213a0607f3b989b81cec" target="_top" xlink:title="Support::checkXYZ">
<polygon fill="white" stroke="black" points="476,-1972.5 476,-1991.5 578,-1991.5 578,-1972.5 476,-1972.5"/>
<text text-anchor="middle" x="527" y="-1979.5" font-family="Helvetica,sans-Serif" font-size="10.00">Support::checkXYZ</text>
</a>
</g>
</g>
<!-- Node3&#45;&gt;Node4 -->
<g id="edge3" class="edge"><title>Node3&#45;&gt;Node4</title>
<path fill="none" stroke="midnightblue" d="M372.643,-1093.75C376.876,-1218.46 402.361,-1893.81 460,-1963 464.274,-1968.13 469.836,-1971.93 475.919,-1974.72"/>
<polygon fill="midnightblue" stroke="midnightblue" points="376.14,-1093.59 372.309,-1083.71 369.144,-1093.83 376.14,-1093.59"/>
</g>
<!-- Node6 -->
<g id="node6" class="node"><title>Node6</title>
<g id="a_node6"><a xlink:href="classGDALReaderTypeTest.html#a7ccb2f33deda3d1840509c81f3718ca8" target="_top" xlink:title="GDALReaderTypeTest\l::compare">
<polygon fill="white" stroke="black" points="469,-1923 469,-1953 585,-1953 585,-1923 469,-1923"/>
<text text-anchor="start" x="477" y="-1941" font-family="Helvetica,sans-Serif" font-size="10.00">GDALReaderTypeTest</text>
<text text-anchor="middle" x="527" y="-1930" font-family="Helvetica,sans-Serif" font-size="10.00">::compare</text>
</a>
</g>
</g>
<!-- Node3&#45;&gt;Node6 -->
<g id="edge5" class="edge"><title>Node3&#45;&gt;Node6</title>
<path fill="none" stroke="midnightblue" d="M372.84,-1093.69C378.126,-1213.88 408.251,-1845.85 460,-1913 462.992,-1916.88 466.66,-1920.16 470.72,-1922.93"/>
<polygon fill="midnightblue" stroke="midnightblue" points="376.336,-1093.53 372.406,-1083.69 369.343,-1093.83 376.336,-1093.53"/>
</g>
<!-- Node7 -->
<g id="node7" class="node"><title>Node7</title>
<g id="a_node7"><a xlink:href="OCITest_8cpp.html#aa992a42d3b52c376e3902f1412402781" target="_top" xlink:title="compare">
<polygon fill="white" stroke="red" points="500,-1884.5 500,-1903.5 554,-1903.5 554,-1884.5 500,-1884.5"/>
<text text-anchor="middle" x="527" y="-1891.5" font-family="Helvetica,sans-Serif" font-size="10.00">compare</text>
</a>
</g>
</g>
<!-- Node3&#45;&gt;Node7 -->
<g id="edge6" class="edge"><title>Node3&#45;&gt;Node7</title>
<path fill="none" stroke="midnightblue" d="M372.861,-1093.57C378.169,-1210.45 407.942,-1813.19 460,-1875 469.678,-1886.49 485.818,-1891.27 499.714,-1893.17"/>
<polygon fill="midnightblue" stroke="midnightblue" points="376.356,-1093.38 372.412,-1083.55 369.363,-1093.7 376.356,-1093.38"/>
</g>
<!-- Node9 -->
<g id="node9" class="node"><title>Node9</title>
<g id="a_node9"><a xlink:href="LasWriterTest_8cpp.html#a3303a951654ed83ac6abc2a44e07b2d3" target="_top" xlink:title="compareFiles">
<polygon fill="white" stroke="red" points="489.5,-1846.5 489.5,-1865.5 564.5,-1865.5 564.5,-1846.5 489.5,-1846.5"/>
<text text-anchor="middle" x="527" y="-1853.5" font-family="Helvetica,sans-Serif" font-size="10.00">compareFiles</text>
</a>
</g>
</g>
<!-- Node3&#45;&gt;Node9 -->
<g id="edge8" class="edge"><title>Node3&#45;&gt;Node9</title>
<path fill="none" stroke="midnightblue" d="M372.98,-1093.7C378.809,-1207.55 410.377,-1778.4 460,-1837 467.32,-1845.64 478.297,-1850.49 489.207,-1853.16"/>
<polygon fill="midnightblue" stroke="midnightblue" points="376.471,-1093.43 372.47,-1083.62 369.48,-1093.79 376.471,-1093.43"/>
</g>
<!-- Node10 -->
<g id="node10" class="node"><title>Node10</title>
<g id="a_node10"><a xlink:href="TextReaderTest_8cpp.html#a509a22500d50c63ed7f1575067f5879d" target="_top" xlink:title="compareTextLas">
<polygon fill="white" stroke="red" points="482.5,-1808.5 482.5,-1827.5 571.5,-1827.5 571.5,-1808.5 482.5,-1808.5"/>
<text text-anchor="middle" x="527" y="-1815.5" font-family="Helvetica,sans-Serif" font-size="10.00">compareTextLas</text>
</a>
</g>
</g>
<!-- Node3&#45;&gt;Node10 -->
<g id="edge9" class="edge"><title>Node3&#45;&gt;Node10</title>
<path fill="none" stroke="midnightblue" d="M373.107,-1093.74C379.473,-1204.28 412.797,-1743.6 460,-1799 465.8,-1805.81 473.866,-1810.26 482.373,-1813.15"/>
<polygon fill="midnightblue" stroke="midnightblue" points="376.595,-1093.44 372.533,-1083.65 369.607,-1093.84 376.595,-1093.44"/>
</g>
<!-- Node11 -->
<g id="node11" class="node"><title>Node11</title>
<g id="a_node11"><a xlink:href="TextReaderTest_8cpp.html#afffb357c566f20e6383568d28525817a" target="_top" xlink:title="compareTextLasStreaming">
<polygon fill="white" stroke="red" points="460,-1770.5 460,-1789.5 594,-1789.5 594,-1770.5 460,-1770.5"/>
<text text-anchor="middle" x="527" y="-1777.5" font-family="Helvetica,sans-Serif" font-size="10.00">compareTextLasStreaming</text>
</a>
</g>
</g>
<!-- Node3&#45;&gt;Node11 -->
<g id="edge10" class="edge"><title>Node3&#45;&gt;Node11</title>
<path fill="none" stroke="midnightblue" d="M371.715,-1094.13C370.677,-1196.38 371.053,-1657.3 460,-1761 463.26,-1764.8 467.227,-1767.87 471.581,-1770.34"/>
<polygon fill="midnightblue" stroke="midnightblue" points="375.216,-1093.99 371.836,-1083.95 368.217,-1093.91 375.216,-1093.99"/>
</g>
<!-- Node12 -->
<g id="node12" class="node"><title>Node12</title>
<g id="a_node12"><a xlink:href="namespaceanonymous__namespace_02SortFilterTest_8cpp_03.html#a4dd665dd162481d153ad54779b8e970b" target="_top" xlink:title="anonymous_namespace\l\{SortFilterTest::cpp\}\l::doSort">
<polygon fill="white" stroke="red" points="466,-1710.5 466,-1751.5 588,-1751.5 588,-1710.5 466,-1710.5"/>
<text text-anchor="start" x="474" y="-1739.5" font-family="Helvetica,sans-Serif" font-size="10.00">anonymous_namespace</text>
<text text-anchor="start" x="474" y="-1728.5" font-family="Helvetica,sans-Serif" font-size="10.00">{SortFilterTest::cpp}</text>
<text text-anchor="middle" x="527" y="-1717.5" font-family="Helvetica,sans-Serif" font-size="10.00">::doSort</text>
</a>
</g>
</g>
<!-- Node3&#45;&gt;Node12 -->
<g id="edge11" class="edge"><title>Node3&#45;&gt;Node12</title>
<path fill="none" stroke="midnightblue" d="M372.283,-1093.94C374.007,-1189.68 385.701,-1601.58 460,-1701 462.637,-1704.53 465.787,-1707.65 469.26,-1710.42"/>
<polygon fill="midnightblue" stroke="midnightblue" points="375.781,-1093.82 372.118,-1083.88 368.782,-1093.93 375.781,-1093.82"/>
</g>
<!-- Node13 -->
<g id="node13" class="node"><title>Node13</title>
<g id="a_node13"><a xlink:href="classpdal_1_1MyKernel.html#a2aa834686cb68aab88b9d40df48d6f13" target="_top" xlink:title="pdal::MyKernel::execute">
<polygon fill="white" stroke="black" points="466,-1672.5 466,-1691.5 588,-1691.5 588,-1672.5 466,-1672.5"/>
<text text-anchor="middle" x="527" y="-1679.5" font-family="Helvetica,sans-Serif" font-size="10.00">pdal::MyKernel::execute</text>
</a>
</g>
</g>
<!-- Node3&#45;&gt;Node13 -->
<g id="edge12" class="edge"><title>Node3&#45;&gt;Node13</title>
<path fill="none" stroke="midnightblue" d="M372.189,-1094.12C373.47,-1187.23 383.396,-1575.55 460,-1663 463.378,-1666.86 467.484,-1669.95 471.977,-1672.44"/>
<polygon fill="midnightblue" stroke="midnightblue" points="375.686,-1093.79 372.068,-1083.84 368.686,-1093.88 375.686,-1093.79"/>
</g>
<!-- Node14 -->
<g id="node14" class="node"><title>Node14</title>
<g id="a_node14"><a xlink:href="classpdal_1_1PCLKernel.html#aab22ad378b4c29bbe5dd69ad6eb0c6ef" target="_top" xlink:title="pdal::PCLKernel::execute">
<polygon fill="white" stroke="black" points="463,-1634.5 463,-1653.5 591,-1653.5 591,-1634.5 463,-1634.5"/>
<text text-anchor="middle" x="527" y="-1641.5" font-family="Helvetica,sans-Serif" font-size="10.00">pdal::PCLKernel::execute</text>
</a>
</g>
</g>
<!-- Node3&#45;&gt;Node14 -->
<g id="edge13" class="edge"><title>Node3&#45;&gt;Node14</title>
<path fill="none" stroke="midnightblue" d="M372.406,-1093.66C374.629,-1182.27 388.042,-1543.69 460,-1625 463.398,-1628.84 467.516,-1631.93 472.017,-1634.4"/>
<polygon fill="midnightblue" stroke="midnightblue" points="375.904,-1093.54 372.174,-1083.63 368.906,-1093.71 375.904,-1093.54"/>
</g>
<!-- Node15 -->
<g id="node15" class="node"><title>Node15</title>
<g id="a_node15"><a xlink:href="classpdal_1_1SmoothKernel.html#a12357e09bb47a0567ed0af7089c3739f" target="_top" xlink:title="pdal::SmoothKernel\l::execute">
<polygon fill="white" stroke="black" points="476,-1585 476,-1615 578,-1615 578,-1585 476,-1585"/>
<text text-anchor="start" x="484" y="-1603" font-family="Helvetica,sans-Serif" font-size="10.00">pdal::SmoothKernel</text>
<text text-anchor="middle" x="527" y="-1592" font-family="Helvetica,sans-Serif" font-size="10.00">::execute</text>
</a>
</g>
</g>
<!-- Node3&#45;&gt;Node15 -->
<g id="edge14" class="edge"><title>Node3&#45;&gt;Node15</title>
<path fill="none" stroke="midnightblue" d="M372.934,-1094.1C377.213,-1178.02 397.49,-1499.46 460,-1575 464.296,-1580.19 469.793,-1584.31 475.776,-1587.57"/>
<polygon fill="midnightblue" stroke="midnightblue" points="376.419,-1093.71 372.434,-1083.89 369.427,-1094.05 376.419,-1093.71"/>
</g>
<!-- Node16 -->
<g id="node16" class="node"><title>Node16</title>
<g id="a_node16"><a xlink:href="classpdal_1_1SortKernel.html#a35de433cd919ac9fc87a957395323820" target="_top" xlink:title="pdal::SortKernel::execute">
<polygon fill="white" stroke="black" points="463.5,-1546.5 463.5,-1565.5 590.5,-1565.5 590.5,-1546.5 463.5,-1546.5"/>
<text text-anchor="middle" x="527" y="-1553.5" font-family="Helvetica,sans-Serif" font-size="10.00">pdal::SortKernel::execute</text>
</a>
</g>
</g>
<!-- Node3&#45;&gt;Node16 -->
<g id="edge15" class="edge"><title>Node3&#45;&gt;Node16</title>
<path fill="none" stroke="midnightblue" d="M373.062,-1093.71C377.739,-1173.34 399.058,-1470.14 460,-1537 463.534,-1540.88 467.803,-1543.98 472.45,-1546.47"/>
<polygon fill="midnightblue" stroke="midnightblue" points="376.548,-1093.38 372.489,-1083.6 369.56,-1093.78 376.548,-1093.38"/>
</g>
<!-- Node17 -->
<g id="node17" class="node"><title>Node17</title>
<g id="a_node17"><a xlink:href="classpdal_1_1MergeKernel.html#a0f279da4375db6bb051489b6588fa897" target="_top" xlink:title="pdal::MergeKernel::\lexecute">
<polygon fill="white" stroke="black" points="476.5,-1497 476.5,-1527 577.5,-1527 577.5,-1497 476.5,-1497"/>
<text text-anchor="start" x="484.5" y="-1515" font-family="Helvetica,sans-Serif" font-size="10.00">pdal::MergeKernel::</text>
<text text-anchor="middle" x="527" y="-1504" font-family="Helvetica,sans-Serif" font-size="10.00">execute</text>
</a>
</g>
</g>
<!-- Node3&#45;&gt;Node17 -->
<g id="edge16" class="edge"><title>Node3&#45;&gt;Node17</title>
<path fill="none" stroke="midnightblue" d="M373.694,-1093.85C380.388,-1167.96 407.253,-1427.34 460,-1488 464.48,-1493.15 470.158,-1497.2 476.296,-1500.38"/>
<polygon fill="midnightblue" stroke="midnightblue" points="377.155,-1093.26 372.791,-1083.6 370.182,-1093.87 377.155,-1093.26"/>
</g>
<!-- Node18 -->
<g id="node18" class="node"><title>Node18</title>
<g id="a_node18"><a xlink:href="classpdal_1_1SplitKernel.html#aa93e386ee8d67c65d5c31d39ec7c9971" target="_top" xlink:title="pdal::SplitKernel::\lexecute">
<polygon fill="white" stroke="black" points="480,-1448 480,-1478 574,-1478 574,-1448 480,-1448"/>
<text text-anchor="start" x="488" y="-1466" font-family="Helvetica,sans-Serif" font-size="10.00">pdal::SplitKernel::</text>
<text text-anchor="middle" x="527" y="-1455" font-family="Helvetica,sans-Serif" font-size="10.00">execute</text>
</a>
</g>
</g>
<!-- Node3&#45;&gt;Node18 -->
<g id="edge17" class="edge"><title>Node3&#45;&gt;Node18</title>
<path fill="none" stroke="midnightblue" d="M374.338,-1094.1C382.691,-1162.74 413.089,-1386.51 460,-1439 465.362,-1445 472.346,-1449.5 479.76,-1452.88"/>
<polygon fill="midnightblue" stroke="midnightblue" points="377.77,-1093.32 373.11,-1083.81 370.819,-1094.15 377.77,-1093.32"/>
</g>
<!-- Node19 -->
<g id="node19" class="node"><title>Node19</title>
<g id="a_node19"><a xlink:href="classpdal_1_1RandomKernel.html#ae101bc78cfab26709852a1ef31d7a38f" target="_top" xlink:title="pdal::RandomKernel\l::execute">
<polygon fill="white" stroke="black" points="474.5,-1399 474.5,-1429 579.5,-1429 579.5,-1399 474.5,-1399"/>
<text text-anchor="start" x="482.5" y="-1417" font-family="Helvetica,sans-Serif" font-size="10.00">pdal::RandomKernel</text>
<text text-anchor="middle" x="527" y="-1406" font-family="Helvetica,sans-Serif" font-size="10.00">::execute</text>
</a>
</g>
</g>
<!-- Node3&#45;&gt;Node19 -->
<g id="edge18" class="edge"><title>Node3&#45;&gt;Node19</title>
<path fill="none" stroke="midnightblue" d="M371.716,-1093.73C372.009,-1148.08 380.24,-1301.75 460,-1389 464.051,-1393.43 468.969,-1397.08 474.274,-1400.09"/>
<polygon fill="midnightblue" stroke="midnightblue" points="375.216,-1093.71 371.751,-1083.69 368.216,-1093.68 375.216,-1093.71"/>
</g>
<!-- Node20 -->
<g id="node20" class="node"><title>Node20</title>
<g id="a_node20"><a xlink:href="classpdal_1_1DiffKernel.html#a5594ac6561864e2c80a26545397d56f6" target="_top" xlink:title="pdal::DiffKernel::execute">
<polygon fill="white" stroke="black" points="464.5,-1360.5 464.5,-1379.5 589.5,-1379.5 589.5,-1360.5 464.5,-1360.5"/>
<text text-anchor="middle" x="527" y="-1367.5" font-family="Helvetica,sans-Serif" font-size="10.00">pdal::DiffKernel::execute</text>
</a>
</g>
</g>
<!-- Node3&#45;&gt;Node20 -->
<g id="edge19" class="edge"><title>Node3&#45;&gt;Node20</title>
<path fill="none" stroke="midnightblue" d="M372.258,-1093.99C374.028,-1144.59 385.854,-1278.85 460,-1351 463.931,-1354.83 468.58,-1357.89 473.563,-1360.34"/>
<polygon fill="midnightblue" stroke="midnightblue" points="375.752,-1093.67 372.003,-1083.76 368.754,-1093.84 375.752,-1093.67"/>
</g>
<!-- Node21 -->
<g id="node21" class="node"><title>Node21</title>
<g id="a_node21"><a xlink:href="classpdal_1_1GroundKernel.html#a652b5f932cd5e982b887917a82f692e2" target="_top" xlink:title="pdal::GroundKernel\l::execute">
<polygon fill="white" stroke="black" points="477,-1311 477,-1341 577,-1341 577,-1311 477,-1311"/>
<text text-anchor="start" x="485" y="-1329" font-family="Helvetica,sans-Serif" font-size="10.00">pdal::GroundKernel</text>
<text text-anchor="middle" x="527" y="-1318" font-family="Helvetica,sans-Serif" font-size="10.00">::execute</text>
</a>
</g>
</g>
<!-- Node3&#45;&gt;Node21 -->
<g id="edge20" class="edge"><title>Node3&#45;&gt;Node21</title>
<path fill="none" stroke="midnightblue" d="M374.162,-1093.95C379.939,-1137.69 399.654,-1242.82 460,-1302 464.788,-1306.7 470.565,-1310.48 476.685,-1313.53"/>
<polygon fill="midnightblue" stroke="midnightblue" points="377.606,-1093.28 372.928,-1083.77 370.657,-1094.12 377.606,-1093.28"/>
</g>
<!-- Node22 -->
<g id="node22" class="node"><title>Node22</title>
<g id="a_node22"><a xlink:href="classpdal_1_1PipelineManager.html#a657ff17a1dce54e42bd3f152759a896c" target="_top" xlink:title="pdal::PipelineManager\l::executeStream">
<polygon fill="white" stroke="red" points="470.5,-1262 470.5,-1292 583.5,-1292 583.5,-1262 470.5,-1262"/>
<text text-anchor="start" x="478.5" y="-1280" font-family="Helvetica,sans-Serif" font-size="10.00">pdal::PipelineManager</text>
<text text-anchor="middle" x="527" y="-1269" font-family="Helvetica,sans-Serif" font-size="10.00">::executeStream</text>
</a>
</g>
</g>
<!-- Node3&#45;&gt;Node22 -->
<g id="edge21" class="edge"><title>Node3&#45;&gt;Node22</title>
<path fill="none" stroke="midnightblue" d="M376.541,-1093.4C385.959,-1129.54 410.951,-1207.49 460,-1252 464.265,-1255.87 469.188,-1259.16 474.385,-1261.96"/>
<polygon fill="midnightblue" stroke="midnightblue" points="379.917,-1092.48 374.109,-1083.62 373.124,-1094.16 379.917,-1092.48"/>
</g>
<!-- Node23 -->
<g id="node23" class="node"><title>Node23</title>
<g id="a_node23"><a xlink:href="CompressionTest_8cpp.html#a6d46cc9b57a277b3a7c486859232bcf8" target="_top" xlink:title="getBytes">
<polygon fill="white" stroke="black" points="499,-1223.5 499,-1242.5 555,-1242.5 555,-1223.5 499,-1223.5"/>
<text text-anchor="middle" x="527" y="-1230.5" font-family="Helvetica,sans-Serif" font-size="10.00">getBytes</text>
</a>
</g>
</g>
<!-- Node3&#45;&gt;Node23 -->
<g id="edge22" class="edge"><title>Node3&#45;&gt;Node23</title>
<path fill="none" stroke="midnightblue" d="M378.897,-1093.32C390.714,-1123.64 417.725,-1182.2 460,-1214 471.244,-1222.46 486.145,-1227.16 498.942,-1229.76"/>
<polygon fill="midnightblue" stroke="midnightblue" points="382.14,-1092 375.351,-1083.87 375.586,-1094.46 382.14,-1092"/>
</g>
<!-- Node24 -->
<g id="node24" class="node"><title>Node24</title>
<g id="a_node24"><a xlink:href="classpdal_1_1TIndexKernel.html#a496ad191832c2af610f60ae5ef00d1d0" target="_top" xlink:title="pdal::TIndexKernel\l::getFileInfo">
<polygon fill="white" stroke="red" points="478,-127 478,-157 576,-157 576,-127 478,-127"/>
<text text-anchor="start" x="486" y="-145" font-family="Helvetica,sans-Serif" font-size="10.00">pdal::TIndexKernel</text>
<text text-anchor="middle" x="527" y="-134" font-family="Helvetica,sans-Serif" font-size="10.00">::getFileInfo</text>
</a>
</g>
</g>
<!-- Node3&#45;&gt;Node24 -->
<g id="edge23" class="edge"><title>Node3&#45;&gt;Node24</title>
<path fill="none" stroke="midnightblue" d="M372.663,-1054.28C377.063,-928.259 403.61,-238.76 460,-166 464.631,-160.025 470.89,-155.537 477.716,-152.165"/>
<polygon fill="midnightblue" stroke="midnightblue" points="369.161,-1054.28 372.316,-1064.4 376.157,-1054.52 369.161,-1054.28"/>
</g>
<!-- Node25 -->
<g id="node25" class="node"><title>Node25</title>
<g id="a_node25"><a xlink:href="classpdal_1_1HausdorffKernel.html#a1d3664d111d8b5abc23ab609e3b9163e" target="_top" xlink:title="pdal::HausdorffKernel\l::loadSet">
<polygon fill="white" stroke="red" points="471.5,-1174 471.5,-1204 582.5,-1204 582.5,-1174 471.5,-1174"/>
<text text-anchor="start" x="479.5" y="-1192" font-family="Helvetica,sans-Serif" font-size="10.00">pdal::HausdorffKernel</text>
<text text-anchor="middle" x="527" y="-1181" font-family="Helvetica,sans-Serif" font-size="10.00">::loadSet</text>
</a>
</g>
</g>
<!-- Node3&#45;&gt;Node25 -->
<g id="edge24" class="edge"><title>Node3&#45;&gt;Node25</title>
<path fill="none" stroke="midnightblue" d="M385.032,-1091.7C400.765,-1111.95 429.002,-1144.89 460,-1165 465.217,-1168.38 470.974,-1171.37 476.85,-1173.99"/>
<polygon fill="midnightblue" stroke="midnightblue" points="387.736,-1089.47 378.9,-1083.63 382.162,-1093.71 387.736,-1089.47"/>
</g>
<!-- Node26 -->
<g id="node26" class="node"><title>Node26</title>
<g id="a_node26"><a xlink:href="classpdal_1_1DeltaKernel.html#a9f78c94029ba013d88acd41301de7ee2" target="_top" xlink:title="pdal::DeltaKernel::\lloadSet">
<polygon fill="white" stroke="red" points="478,-1125 478,-1155 576,-1155 576,-1125 478,-1125"/>
<text text-anchor="start" x="486" y="-1143" font-family="Helvetica,sans-Serif" font-size="10.00">pdal::DeltaKernel::</text>
<text text-anchor="middle" x="527" y="-1132" font-family="Helvetica,sans-Serif" font-size="10.00">loadSet</text>
</a>
</g>
</g>
<!-- Node3&#45;&gt;Node26 -->
<g id="edge25" class="edge"><title>Node3&#45;&gt;Node26</title>
<path fill="none" stroke="midnightblue" d="M400.798,-1088.07C417.869,-1096.25 440.007,-1106.57 460,-1115 468.016,-1118.38 476.662,-1121.81 484.973,-1125"/>
<polygon fill="midnightblue" stroke="midnightblue" points="401.915,-1084.73 391.388,-1083.54 398.876,-1091.03 401.915,-1084.73"/>
</g>
<!-- Node27 -->
<g id="node27" class="node"><title>Node27</title>
<g id="a_node27"><a xlink:href="tutorial_8cpp.html#a0ddf1224851353fc92bfbff6f499fa97" target="_top" xlink:title="main">
<polygon fill="white" stroke="black" points="508,-1086.5 508,-1105.5 546,-1105.5 546,-1086.5 508,-1086.5"/>
<text text-anchor="middle" x="527" y="-1093.5" font-family="Helvetica,sans-Serif" font-size="10.00">main</text>
</a>
</g>
</g>
<!-- Node3&#45;&gt;Node27 -->
<g id="edge26" class="edge"><title>Node3&#45;&gt;Node27</title>
<path fill="none" stroke="midnightblue" d="M433.398,-1082.77C460.209,-1086.6 489.654,-1090.81 507.983,-1093.43"/>
<polygon fill="midnightblue" stroke="midnightblue" points="433.674,-1079.28 423.28,-1081.33 432.684,-1086.2 433.674,-1079.28"/>
</g>
<!-- Node28 -->
<g id="node28" class="node"><title>Node28</title>
<g id="a_node28"><a xlink:href="classpdal_1_1TIndexKernel.html#a260c46e9fc8a9e5dddd395c93422dfa6" target="_top" xlink:title="pdal::TIndexKernel\l::mergeFile">
<polygon fill="white" stroke="red" points="478,-1037 478,-1067 576,-1067 576,-1037 478,-1037"/>
<text text-anchor="start" x="486" y="-1055" font-family="Helvetica,sans-Serif" font-size="10.00">pdal::TIndexKernel</text>
<text text-anchor="middle" x="527" y="-1044" font-family="Helvetica,sans-Serif" font-size="10.00">::mergeFile</text>
</a>
</g>
</g>
<!-- Node3&#45;&gt;Node28 -->
<g id="edge27" class="edge"><title>Node3&#45;&gt;Node28</title>
<path fill="none" stroke="midnightblue" d="M433.357,-1065.23C448.14,-1063.12 463.726,-1060.9 477.81,-1058.88"/>
<polygon fill="midnightblue" stroke="midnightblue" points="432.684,-1061.8 423.28,-1066.67 433.674,-1068.72 432.684,-1061.8"/>
</g>
<!-- Node29 -->
<g id="node29" class="node"><title>Node29</title>
<g id="a_node29"><a xlink:href="classpdal_1_1PipelineManager.html#ab1216e90ce5bea6ed10b3bdfeef47e6d" target="_top" xlink:title="pdal::PipelineManager\l::prepare">
<polygon fill="white" stroke="red" points="470.5,-988 470.5,-1018 583.5,-1018 583.5,-988 470.5,-988"/>
<text text-anchor="start" x="478.5" y="-1006" font-family="Helvetica,sans-Serif" font-size="10.00">pdal::PipelineManager</text>
<text text-anchor="middle" x="527" y="-995" font-family="Helvetica,sans-Serif" font-size="10.00">::prepare</text>
</a>
</g>
</g>
<!-- Node3&#45;&gt;Node29 -->
<g id="edge29" class="edge"><title>Node3&#45;&gt;Node29</title>
<path fill="none" stroke="midnightblue" d="M397.841,-1059.45C415.165,-1049.95 438.635,-1037.59 460,-1028 467.601,-1024.59 475.821,-1021.23 483.795,-1018.13"/>
<polygon fill="midnightblue" stroke="midnightblue" points="395.958,-1056.49 388.9,-1064.39 399.345,-1062.62 395.958,-1056.49"/>
</g>
<!-- Node31 -->
<g id="node31" class="node"><title>Node31</title>
<g id="a_node31"><a xlink:href="classpdal_1_1TIndexReader.html#aab30ff453c7bb99f11295f9a6395f9a9" target="_top" xlink:title="pdal::TIndexReader\l::ready">
<polygon fill="white" stroke="black" points="476,-939 476,-969 578,-969 578,-939 476,-939"/>
<text text-anchor="start" x="484" y="-957" font-family="Helvetica,sans-Serif" font-size="10.00">pdal::TIndexReader</text>
<text text-anchor="middle" x="527" y="-946" font-family="Helvetica,sans-Serif" font-size="10.00">::ready</text>
</a>
</g>
</g>
<!-- Node3&#45;&gt;Node31 -->
<g id="edge31" class="edge"><title>Node3&#45;&gt;Node31</title>
<path fill="none" stroke="midnightblue" d="M384.667,-1055.89C400.234,-1034.83 428.491,-1000.23 460,-979 465.589,-975.235 471.823,-971.933 478.167,-969.07"/>
<polygon fill="midnightblue" stroke="midnightblue" points="381.635,-1054.11 378.62,-1064.27 387.311,-1058.21 381.635,-1054.11"/>
</g>
<!-- Node32 -->
<g id="node32" class="node"><title>Node32</title>
<g id="a_node32"><a xlink:href="namespaceanonymous__namespace_02GDALWriterTest_8cpp_03.html#afa82c052f6116c30a757052c3013ec06" target="_top" xlink:title="anonymous_namespace\l\{GDALWriterTest::cpp\}\l::runGdalWriter">
<polygon fill="white" stroke="red" points="466,-879.5 466,-920.5 588,-920.5 588,-879.5 466,-879.5"/>
<text text-anchor="start" x="474" y="-908.5" font-family="Helvetica,sans-Serif" font-size="10.00">anonymous_namespace</text>
<text text-anchor="start" x="474" y="-897.5" font-family="Helvetica,sans-Serif" font-size="10.00">{GDALWriterTest::cpp}</text>
<text text-anchor="middle" x="527" y="-886.5" font-family="Helvetica,sans-Serif" font-size="10.00">::runGdalWriter</text>
</a>
</g>
</g>
<!-- Node3&#45;&gt;Node32 -->
<g id="edge32" class="edge"><title>Node3&#45;&gt;Node32</title>
<path fill="none" stroke="midnightblue" d="M379.332,-1054.85C391.748,-1024.66 419.569,-965.78 460,-930 463.865,-926.58 468.184,-923.486 472.714,-920.701"/>
<polygon fill="midnightblue" stroke="midnightblue" points="376.038,-1053.66 375.587,-1064.24 382.541,-1056.25 376.038,-1053.66"/>
</g>
<!-- Node33 -->
<g id="node33" class="node"><title>Node33</title>
<g id="a_node33"><a xlink:href="namespaceanonymous__namespace_02GDALWriterTest_8cpp_03.html#ab4af538727de76014b4faf8c8b616793" target="_top" xlink:title="anonymous_namespace\l\{GDALWriterTest::cpp\}\l::runGdalWriter2">
<polygon fill="white" stroke="red" points="466,-819.5 466,-860.5 588,-860.5 588,-819.5 466,-819.5"/>
<text text-anchor="start" x="474" y="-848.5" font-family="Helvetica,sans-Serif" font-size="10.00">anonymous_namespace</text>
<text text-anchor="start" x="474" y="-837.5" font-family="Helvetica,sans-Serif" font-size="10.00">{GDALWriterTest::cpp}</text>
<text text-anchor="middle" x="527" y="-826.5" font-family="Helvetica,sans-Serif" font-size="10.00">::runGdalWriter2</text>
</a>
</g>
</g>
<!-- Node3&#45;&gt;Node33 -->
<g id="edge33" class="edge"><title>Node3&#45;&gt;Node33</title>
<path fill="none" stroke="midnightblue" d="M375.613,-1054.04C383.796,-1014.13 407.281,-923.75 460,-870 463.437,-866.496 467.359,-863.363 471.538,-860.569"/>
<polygon fill="midnightblue" stroke="midnightblue" points="372.132,-1053.6 373.662,-1064.09 379.003,-1054.94 372.132,-1053.6"/>
</g>
<!-- Node34 -->
<g id="node34" class="node"><title>Node34</title>
<g id="a_node34"><a xlink:href="namespaceanonymous__namespace_02ColorinterpFilterTest_8cpp_03.html#a2c7a8c71c9e37bd0e7821a01064bd259" target="_top" xlink:title="anonymous_namespace\l\{ColorinterpFilterTest\l::cpp\}::standardTest">
<polygon fill="white" stroke="red" points="466,-759.5 466,-800.5 588,-800.5 588,-759.5 466,-759.5"/>
<text text-anchor="start" x="474" y="-788.5" font-family="Helvetica,sans-Serif" font-size="10.00">anonymous_namespace</text>
<text text-anchor="start" x="474" y="-777.5" font-family="Helvetica,sans-Serif" font-size="10.00">{ColorinterpFilterTest</text>
<text text-anchor="middle" x="527" y="-766.5" font-family="Helvetica,sans-Serif" font-size="10.00">::cpp}::standardTest</text>
</a>
</g>
</g>
<!-- Node3&#45;&gt;Node34 -->
<g id="edge34" class="edge"><title>Node3&#45;&gt;Node34</title>
<path fill="none" stroke="midnightblue" d="M373.301,-1054.28C377.455,-1006.48 394.303,-882.976 460,-810 463.116,-806.539 466.71,-803.452 470.578,-800.702"/>
<polygon fill="midnightblue" stroke="midnightblue" points="369.793,-1054.25 372.512,-1064.49 376.772,-1054.79 369.793,-1054.25"/>
</g>
<!-- Node35 -->
<g id="node35" class="node"><title>Node35</title>
<g id="a_node35"><a xlink:href="LasReaderTest_8cpp.html#a3fe845027bd4709eb9126245edd6f3c6" target="_top" xlink:title="streamTest">
<polygon fill="white" stroke="red" points="494,-721.5 494,-740.5 560,-740.5 560,-721.5 494,-721.5"/>
<text text-anchor="middle" x="527" y="-728.5" font-family="Helvetica,sans-Serif" font-size="10.00">streamTest</text>
</a>
</g>
</g>
<!-- Node3&#45;&gt;Node35 -->
<g id="edge35" class="edge"><title>Node3&#45;&gt;Node35</title>
<path fill="none" stroke="midnightblue" d="M371.167,-1054.12C369.951,-998.012 374.46,-836.84 460,-750 468.87,-740.996 481.709,-736.19 493.711,-733.651"/>
<polygon fill="midnightblue" stroke="midnightblue" points="367.678,-1054.55 371.486,-1064.44 374.675,-1054.33 367.678,-1054.55"/>
</g>
<!-- Node36 -->
<g id="node36" class="node"><title>Node36</title>
<g id="a_node36"><a xlink:href="MatlabReaderTest_8cpp.html#a13d075df757d9911160c6c091b867b08" target="_top" xlink:title="TEST">
<polygon fill="white" stroke="black" points="506,-683.5 506,-702.5 548,-702.5 548,-683.5 506,-683.5"/>
<text text-anchor="middle" x="527" y="-690.5" font-family="Helvetica,sans-Serif" font-size="10.00">TEST</text>
</a>
</g>
</g>
<!-- Node3&#45;&gt;Node36 -->
<g id="edge36" class="edge"><title>Node3&#45;&gt;Node36</title>
<path fill="none" stroke="midnightblue" d="M374.232,-1053.94C382.241,-985.476 411.65,-762.416 460,-712 471.885,-699.608 491.282,-695.145 505.98,-693.612"/>
<polygon fill="midnightblue" stroke="midnightblue" points="370.717,-1053.88 373.058,-1064.21 377.672,-1054.67 370.717,-1053.88"/>
</g>
<!-- Node37 -->
<g id="node37" class="node"><title>Node37</title>
<g id="a_node37"><a xlink:href="namespaceanonymous__namespace_02BufferTest_8cpp_03.html#aa82a48c7e159e43f9c99511f10d16b3c" target="_top" xlink:title="anonymous_namespace\l\{BufferTest::cpp\}::TEST">
<polygon fill="white" stroke="black" points="466,-634 466,-664 588,-664 588,-634 466,-634"/>
<text text-anchor="start" x="474" y="-652" font-family="Helvetica,sans-Serif" font-size="10.00">anonymous_namespace</text>
<text text-anchor="middle" x="527" y="-641" font-family="Helvetica,sans-Serif" font-size="10.00">{BufferTest::cpp}::TEST</text>
</a>
</g>
</g>
<!-- Node3&#45;&gt;Node37 -->
<g id="edge37" class="edge"><title>Node3&#45;&gt;Node37</title>
<path fill="none" stroke="midnightblue" d="M373.86,-1054.37C381.059,-982.205 409.251,-732.73 460,-674 463.365,-670.106 467.402,-666.817 471.8,-664.039"/>
<polygon fill="midnightblue" stroke="midnightblue" points="370.371,-1054.08 372.884,-1064.37 377.338,-1054.76 370.371,-1054.08"/>
</g>
<!-- Node38 -->
<g id="node38" class="node"><title>Node38</title>
<g id="a_node38"><a xlink:href="namespacepdal.html#a51cbf5225e506db21e7efe20f4eebb09" target="_top" xlink:title="pdal::TEST">
<polygon fill="white" stroke="black" points="494,-595.5 494,-614.5 560,-614.5 560,-595.5 494,-595.5"/>
<text text-anchor="middle" x="527" y="-602.5" font-family="Helvetica,sans-Serif" font-size="10.00">pdal::TEST</text>
</a>
</g>
</g>
<!-- Node3&#45;&gt;Node38 -->
<g id="edge38" class="edge"><title>Node3&#45;&gt;Node38</title>
<path fill="none" stroke="midnightblue" d="M373.241,-1053.92C378.488,-975.336 401.35,-689.875 460,-625 468.591,-615.497 481.531,-610.444 493.683,-607.781"/>
<polygon fill="midnightblue" stroke="midnightblue" points="369.72,-1054.12 372.569,-1064.32 376.706,-1054.57 369.72,-1054.12"/>
</g>
<!-- Node39 -->
<g id="node39" class="node"><title>Node39</title>
<g id="a_node39"><a xlink:href="LasReaderTest_8cpp.html#aa76b17cddb63cde84b93800acc213041" target="_top" xlink:title="test_a_format">
<polygon fill="white" stroke="red" points="488.5,-557.5 488.5,-576.5 565.5,-576.5 565.5,-557.5 488.5,-557.5"/>
<text text-anchor="middle" x="527" y="-564.5" font-family="Helvetica,sans-Serif" font-size="10.00">test_a_format</text>
</a>
</g>
</g>
<!-- Node3&#45;&gt;Node39 -->
<g id="edge39" class="edge"><title>Node3&#45;&gt;Node39</title>
<path fill="none" stroke="midnightblue" d="M372.853,-1054.28C376.802,-971.98 395.942,-656.941 460,-586 467.352,-577.858 477.943,-573.115 488.497,-570.378"/>
<polygon fill="midnightblue" stroke="midnightblue" points="369.355,-1054.15 372.393,-1064.3 376.348,-1054.47 369.355,-1054.15"/>
</g>
<!-- Node40 -->
<g id="node40" class="node"><title>Node40</title>
<g id="a_node40"><a xlink:href="namespacepdal.html#ab19387b4eb501050585c3603e06db46a" target="_top" xlink:title="pdal::TEST_F">
<polygon fill="white" stroke="black" points="488.5,-519.5 488.5,-538.5 565.5,-538.5 565.5,-519.5 488.5,-519.5"/>
<text text-anchor="middle" x="527" y="-526.5" font-family="Helvetica,sans-Serif" font-size="10.00">pdal::TEST_F</text>
</a>
</g>
</g>
<!-- Node3&#45;&gt;Node40 -->
<g id="edge40" class="edge"><title>Node3&#45;&gt;Node40</title>
<path fill="none" stroke="midnightblue" d="M372.576,-1054.15C375.479,-967.73 391.225,-625.14 460,-548 467.3,-539.812 477.877,-535.055 488.433,-532.321"/>
<polygon fill="midnightblue" stroke="midnightblue" points="369.07,-1054.29 372.253,-1064.39 376.066,-1054.51 369.07,-1054.29"/>
</g>
<!-- Node41 -->
<g id="node41" class="node"><title>Node41</title>
<g id="a_node41"><a xlink:href="GreyhoundReaderTest_8cpp.html#af2d766907254ea1571821d6d621f0b61" target="_top" xlink:title="TEST_F">
<polygon fill="white" stroke="black" points="500.5,-481.5 500.5,-500.5 553.5,-500.5 553.5,-481.5 500.5,-481.5"/>
<text text-anchor="middle" x="527" y="-488.5" font-family="Helvetica,sans-Serif" font-size="10.00">TEST_F</text>
</a>
</g>
</g>
<!-- Node3&#45;&gt;Node41 -->
<g id="edge41" class="edge"><title>Node3&#45;&gt;Node41</title>
<path fill="none" stroke="midnightblue" d="M372.336,-1053.88C374.254,-963.199 386.536,-593.317 460,-510 470.015,-498.642 486.337,-493.877 500.242,-491.959"/>
<polygon fill="midnightblue" stroke="midnightblue" points="368.831,-1054.08 372.139,-1064.15 375.83,-1054.22 368.831,-1054.08"/>
</g>
<!-- Node42 -->
<g id="node42" class="node"><title>Node42</title>
<g id="a_node42"><a xlink:href="namespaceanonymous__namespace_02BPFTest_8cpp_03.html#a55eec1c3e76a6cdaa20e260fb6c03fe9" target="_top" xlink:title="anonymous_namespace\l\{BPFTest::cpp\}::test\l_roundtrip">
<polygon fill="white" stroke="red" points="466,-421.5 466,-462.5 588,-462.5 588,-421.5 466,-421.5"/>
<text text-anchor="start" x="474" y="-450.5" font-family="Helvetica,sans-Serif" font-size="10.00">anonymous_namespace</text>
<text text-anchor="start" x="474" y="-439.5" font-family="Helvetica,sans-Serif" font-size="10.00">{BPFTest::cpp}::test</text>
<text text-anchor="middle" x="527" y="-428.5" font-family="Helvetica,sans-Serif" font-size="10.00">_roundtrip</text>
</a>
</g>
</g>
<!-- Node3&#45;&gt;Node42 -->
<g id="edge42" class="edge"><title>Node3&#45;&gt;Node42</title>
<path fill="none" stroke="midnightblue" d="M372.414,-1053.97C374.715,-960.421 388.558,-567.026 460,-472 462.647,-468.479 465.804,-465.36 469.282,-462.599"/>
<polygon fill="midnightblue" stroke="midnightblue" points="368.913,-1053.99 372.183,-1064.07 375.911,-1054.15 368.913,-1053.99"/>
</g>
<!-- Node43 -->
<g id="node43" class="node"><title>Node43</title>
<g id="a_node43"><a xlink:href="namespaceanonymous__namespace_02ColorizationFilterTest_8cpp_03.html#a9ecba8dd0dc941d16a50be7a9a264b07" target="_top" xlink:title="anonymous_namespace\l\{ColorizationFilterTest\l::cpp\}::testFile">
<polygon fill="white" stroke="red" points="466,-361.5 466,-402.5 588,-402.5 588,-361.5 466,-361.5"/>
<text text-anchor="start" x="474" y="-390.5" font-family="Helvetica,sans-Serif" font-size="10.00">anonymous_namespace</text>
<text text-anchor="start" x="474" y="-379.5" font-family="Helvetica,sans-Serif" font-size="10.00">{ColorizationFilterTest</text>
<text text-anchor="middle" x="527" y="-368.5" font-family="Helvetica,sans-Serif" font-size="10.00">::cpp}::testFile</text>
</a>
</g>
</g>
<!-- Node3&#45;&gt;Node43 -->
<g id="edge43" class="edge"><title>Node3&#45;&gt;Node43</title>
<path fill="none" stroke="midnightblue" d="M372.12,-1053.9C373.083,-954.645 381.769,-517.476 460,-412 462.624,-408.462 465.765,-405.33 469.231,-402.56"/>
<polygon fill="midnightblue" stroke="midnightblue" points="368.619,-1054.03 372.038,-1064.05 375.619,-1054.08 368.619,-1054.03"/>
</g>
<!-- Node44 -->
<g id="node44" class="node"><title>Node44</title>
<g id="a_node44"><a xlink:href="namespaceanonymous__namespace_02ColorizationFilterTest_8cpp_03.html#a34ec954a3562386020f65ce3ad8d025e" target="_top" xlink:title="anonymous_namespace\l\{ColorizationFilterTest\l::cpp\}::testFileStreamed">
<polygon fill="white" stroke="red" points="466,-301.5 466,-342.5 588,-342.5 588,-301.5 466,-301.5"/>
<text text-anchor="start" x="474" y="-330.5" font-family="Helvetica,sans-Serif" font-size="10.00">anonymous_namespace</text>
<text text-anchor="start" x="474" y="-319.5" font-family="Helvetica,sans-Serif" font-size="10.00">{ColorizationFilterTest</text>
<text text-anchor="middle" x="527" y="-308.5" font-family="Helvetica,sans-Serif" font-size="10.00">::cpp}::testFileStreamed</text>
</a>
</g>
</g>
<!-- Node3&#45;&gt;Node44 -->
<g id="edge44" class="edge"><title>Node3&#45;&gt;Node44</title>
<path fill="none" stroke="midnightblue" d="M371.873,-1054.08C371.577,-949.902 374.891,-468.063 460,-352 462.605,-348.448 465.731,-345.306 469.188,-342.529"/>
<polygon fill="midnightblue" stroke="midnightblue" points="368.373,-1054.18 371.917,-1064.17 375.373,-1054.15 368.373,-1054.18"/>
</g>
<!-- Node45 -->
<g id="node45" class="node"><title>Node45</title>
<g id="a_node45"><a xlink:href="FauxReaderTest_8cpp.html#a3d5539afea38de83c9e480676f12c736" target="_top" xlink:title="testGrid">
<polygon fill="white" stroke="red" points="501.5,-263.5 501.5,-282.5 552.5,-282.5 552.5,-263.5 501.5,-263.5"/>
<text text-anchor="middle" x="527" y="-270.5" font-family="Helvetica,sans-Serif" font-size="10.00">testGrid</text>
</a>
</g>
</g>
<!-- Node3&#45;&gt;Node45 -->
<g id="edge45" class="edge"><title>Node3&#45;&gt;Node45</title>
<path fill="none" stroke="midnightblue" d="M372.928,-1054.18C378.517,-938.365 409.187,-352.171 460,-292 470.078,-280.066 487.124,-275.37 501.368,-273.63"/>
<polygon fill="midnightblue" stroke="midnightblue" points="369.42,-1054.25 372.441,-1064.41 376.412,-1054.59 369.42,-1054.25"/>
</g>
<!-- Node46 -->
<g id="node46" class="node"><title>Node46</title>
<g id="a_node46"><a xlink:href="OverlayFilterTest_8cpp.html#a81ea698dfcbc49b4d563206ceb68d003" target="_top" xlink:title="testOverlay">
<polygon fill="white" stroke="red" points="493.5,-225.5 493.5,-244.5 560.5,-244.5 560.5,-225.5 493.5,-225.5"/>
<text text-anchor="middle" x="527" y="-232.5" font-family="Helvetica,sans-Serif" font-size="10.00">testOverlay</text>
</a>
</g>
</g>
<!-- Node3&#45;&gt;Node46 -->
<g id="edge46" class="edge"><title>Node3&#45;&gt;Node46</title>
<path fill="none" stroke="midnightblue" d="M372.812,-1054.34C377.886,-935.621 406.746,-317.392 460,-254 468.206,-244.231 481.083,-239.309 493.292,-236.889"/>
<polygon fill="midnightblue" stroke="midnightblue" points="369.309,-1054.36 372.385,-1064.5 376.302,-1054.65 369.309,-1054.36"/>
</g>
<!-- Node47 -->
<g id="node47" class="node"><title>Node47</title>
<g id="a_node47"><a xlink:href="classpdal_1_1MongusFilter.html#aaacd9ce3a847541bad94929bb8f28179" target="_top" xlink:title="pdal::MongusFilter\l::writeControl">
<polygon fill="white" stroke="red" points="478.5,-176 478.5,-206 575.5,-206 575.5,-176 478.5,-176"/>
<text text-anchor="start" x="486.5" y="-194" font-family="Helvetica,sans-Serif" font-size="10.00">pdal::MongusFilter</text>
<text text-anchor="middle" x="527" y="-183" font-family="Helvetica,sans-Serif" font-size="10.00">::writeControl</text>
</a>
</g>
</g>
<!-- Node3&#45;&gt;Node47 -->
<g id="edge47" class="edge"><title>Node3&#45;&gt;Node47</title>
<path fill="none" stroke="midnightblue" d="M372.794,-1054.25C377.858,-932.309 407.115,-284.784 460,-216 464.78,-209.783 471.295,-205.112 478.378,-201.603"/>
<polygon fill="midnightblue" stroke="midnightblue" points="369.292,-1054.24 372.38,-1064.37 376.286,-1054.52 369.292,-1054.24"/>
</g>
<!-- Node5 -->
<g id="node5" class="node"><title>Node5</title>
<g id="a_node5"><a xlink:href="SpatialReferenceTest_8cpp.html#acbe8bbc3b3d602e92c360d196a0431d0" target="_top" xlink:title="TEST">
<polygon fill="white" stroke="black" points="661,-1972.5 661,-1991.5 703,-1991.5 703,-1972.5 661,-1972.5"/>
<text text-anchor="middle" x="682" y="-1979.5" font-family="Helvetica,sans-Serif" font-size="10.00">TEST</text>
</a>
</g>
</g>
<!-- Node4&#45;&gt;Node5 -->
<g id="edge4" class="edge"><title>Node4&#45;&gt;Node5</title>
<path fill="none" stroke="midnightblue" d="M588.221,-1982C614.06,-1982 642.496,-1982 660.988,-1982"/>
<polygon fill="midnightblue" stroke="midnightblue" points="588.098,-1978.5 578.098,-1982 588.098,-1985.5 588.098,-1978.5"/>
</g>
<!-- Node8 -->
<g id="node8" class="node"><title>Node8</title>
<g id="a_node8"><a xlink:href="OCITest_8cpp.html#ab1703367762abc1490e00dcd5ccb29bc" target="_top" xlink:title="readData">
<polygon fill="white" stroke="red" points="654,-1884.5 654,-1903.5 710,-1903.5 710,-1884.5 654,-1884.5"/>
<text text-anchor="middle" x="682" y="-1891.5" font-family="Helvetica,sans-Serif" font-size="10.00">readData</text>
</a>
</g>
</g>
<!-- Node7&#45;&gt;Node8 -->
<g id="edge7" class="edge"><title>Node7&#45;&gt;Node8</title>
<path fill="none" stroke="midnightblue" d="M564.664,-1894C592.068,-1894 628.931,-1894 653.755,-1894"/>
<polygon fill="midnightblue" stroke="midnightblue" points="564.302,-1890.5 554.302,-1894 564.302,-1897.5 564.302,-1890.5"/>
</g>
<!-- Node30 -->
<g id="node30" class="node"><title>Node30</title>
<g id="a_node30"><a xlink:href="classpdal_1_1InfoKernel.html#a507a4fa6aa98127ddc55bb730bcf6a2f" target="_top" xlink:title="pdal::InfoKernel::run">
<polygon fill="white" stroke="red" points="630,-540.5 630,-559.5 734,-559.5 734,-540.5 630,-540.5"/>
<text text-anchor="middle" x="682" y="-547.5" font-family="Helvetica,sans-Serif" font-size="10.00">pdal::InfoKernel::run</text>
</a>
</g>
</g>
<!-- Node29&#45;&gt;Node30 -->
<g id="edge30" class="edge"><title>Node29&#45;&gt;Node30</title>
<path fill="none" stroke="midnightblue" d="M591.696,-981.473C592.495,-980.679 593.264,-979.855 594,-979 651.285,-912.496 676.026,-616.709 680.312,-559.572"/>
<polygon fill="midnightblue" stroke="midnightblue" points="589.371,-978.852 583.799,-987.863 593.774,-984.294 589.371,-978.852"/>
</g>
<!-- Node48&#45;&gt;Node24 -->
<g id="edge49" class="edge"><title>Node48&#45;&gt;Node24</title>
<path fill="none" stroke="midnightblue" d="M415.228,-110.351C434.683,-115.91 457.727,-122.493 477.744,-128.213"/>
<polygon fill="midnightblue" stroke="midnightblue" points="415.992,-106.929 405.416,-107.547 414.069,-113.66 415.992,-106.929"/>
</g>
<!-- Node48&#45;&gt;Node30 -->
<g id="edge51" class="edge"><title>Node48&#45;&gt;Node30</title>
<path fill="none" stroke="midnightblue" d="M421.914,-86.7567C471.798,-78.6936 547.572,-75.5392 594,-117 660.198,-176.117 677.815,-482.402 680.581,-540.486"/>
<polygon fill="midnightblue" stroke="midnightblue" points="421.244,-83.3206 411.991,-88.4801 422.442,-90.2173 421.244,-83.3206"/>
</g>
<!-- Node49 -->
<g id="node49" class="node"><title>Node49</title>
<g id="a_node49"><a xlink:href="classpdal_1_1PipelineManager.html#abb1e647775de2cbad890d3d587d5225e" target="_top" xlink:title="pdal::PipelineManager\l::preview">
<polygon fill="white" stroke="black" points="470.5,-39 470.5,-69 583.5,-69 583.5,-39 470.5,-39"/>
<text text-anchor="start" x="478.5" y="-57" font-family="Helvetica,sans-Serif" font-size="10.00">pdal::PipelineManager</text>
<text text-anchor="middle" x="527" y="-46" font-family="Helvetica,sans-Serif" font-size="10.00">::preview</text>
</a>
</g>
</g>
<!-- Node48&#45;&gt;Node49 -->
<g id="edge50" class="edge"><title>Node48&#45;&gt;Node49</title>
<path fill="none" stroke="midnightblue" d="M415.091,-85.6882C433.143,-80.5306 454.302,-74.4852 473.271,-69.0654"/>
<polygon fill="midnightblue" stroke="midnightblue" points="414.069,-82.34 405.416,-88.4527 415.992,-89.0707 414.069,-82.34"/>
</g>
<!-- Node50 -->
<g id="node50" class="node"><title>Node50</title>
<g id="a_node50"><a xlink:href="BPFTest_8cpp.html#ad1194f510d848685a18563b15d7075f9" target="_top" xlink:title="TEST">
<polygon fill="white" stroke="black" points="506,-0.5 506,-19.5 548,-19.5 548,-0.5 506,-0.5"/>
<text text-anchor="middle" x="527" y="-7.5" font-family="Helvetica,sans-Serif" font-size="10.00">TEST</text>
</a>
</g>
</g>
<!-- Node48&#45;&gt;Node50 -->
<g id="edge52" class="edge"><title>Node48&#45;&gt;Node50</title>
<path fill="none" stroke="midnightblue" d="M389.042,-81.3283C405.821,-65.761 432.815,-42.8991 460,-29 474.545,-21.5636 492.424,-16.645 505.903,-13.6791"/>
<polygon fill="midnightblue" stroke="midnightblue" points="386.521,-78.8947 381.669,-88.3132 391.336,-83.9762 386.521,-78.8947"/>
</g>
</g>
</svg>
