<?xml version="1.0" encoding="UTF-8" standalone="no"?>
<!DOCTYPE svg PUBLIC "-//W3C//DTD SVG 1.1//EN"
 "http://www.w3.org/Graphics/SVG/1.1/DTD/svg11.dtd">
<!-- Generated by graphviz version 2.38.0 (20140413.2041)
 -->
<!-- Title: pdal::StageWrapper::initialize Pages: 1 -->
<svg width="430pt" height="154pt"
 viewBox="0.00 0.00 430.00 154.00" xmlns="http://www.w3.org/2000/svg" xmlns:xlink="http://www.w3.org/1999/xlink">
<g id="graph0" class="graph" transform="scale(1 1) rotate(0) translate(4 150)">
<title>pdal::StageWrapper::initialize</title>
<polygon fill="white" stroke="none" points="-4,4 -4,-150 426,-150 426,4 -4,4"/>
<!-- Node1 -->
<g id="node1" class="node"><title>Node1</title>
<polygon fill="#bfbfbf" stroke="black" points="0,-80 0,-110 103,-110 103,-80 0,-80"/>
<text text-anchor="start" x="8" y="-98" font-family="Helvetica,sans-Serif" font-size="10.00">pdal::StageWrapper</text>
<text text-anchor="middle" x="51.5" y="-87" font-family="Helvetica,sans-Serif" font-size="10.00">::initialize</text>
</g>
<!-- Node2 -->
<g id="node2" class="node"><title>Node2</title>
<g id="a_node2"><a xlink:href="classpdal_1_1Stage.html#a733fa2edaf345d709441e18dd08d2125" target="_top" xlink:title="pdal::Stage::initialize">
<polygon fill="white" stroke="black" points="143,-104.5 143,-123.5 250,-123.5 250,-104.5 143,-104.5"/>
<text text-anchor="middle" x="196.5" y="-111.5" font-family="Helvetica,sans-Serif" font-size="10.00">pdal::Stage::initialize</text>
</a>
</g>
</g>
<!-- Node1&#45;&gt;Node2 -->
<g id="edge1" class="edge"><title>Node1&#45;&gt;Node2</title>
<path fill="none" stroke="midnightblue" d="M103.319,-101.752C112.852,-103.019 122.922,-104.357 132.766,-105.665"/>
<polygon fill="midnightblue" stroke="midnightblue" points="132.538,-109.165 142.912,-107.013 133.46,-102.226 132.538,-109.165"/>
</g>
<!-- Node3 -->
<g id="node3" class="node"><title>Node3</title>
<g id="a_node3"><a xlink:href="classpdal_1_1Stage.html#a6c85dfbf6a674dbc2eda76a79efada48" target="_top" xlink:title="pdal::Stage::l_initialize">
<polygon fill="white" stroke="black" points="139,-66.5 139,-85.5 254,-85.5 254,-66.5 139,-66.5"/>
<text text-anchor="middle" x="196.5" y="-73.5" font-family="Helvetica,sans-Serif" font-size="10.00">pdal::Stage::l_initialize</text>
</a>
</g>
</g>
<!-- Node1&#45;&gt;Node3 -->
<g id="edge2" class="edge"><title>Node1&#45;&gt;Node3</title>
<path fill="none" stroke="midnightblue" d="M103.319,-88.2478C111.423,-87.171 119.916,-86.0427 128.328,-84.925"/>
<polygon fill="midnightblue" stroke="midnightblue" points="129.065,-88.3578 138.517,-83.5712 128.143,-81.4188 129.065,-88.3578"/>
</g>
<!-- Node4 -->
<g id="node4" class="node"><title>Node4</title>
<g id="a_node4"><a xlink:href="classpdal_1_1MetadataNode.html#af2c1c5d91f6ab47a804aa8a0a1b043c2" target="_top" xlink:title="pdal::MetadataNode::add">
<polygon fill="white" stroke="black" points="293,-126.5 293,-145.5 419,-145.5 419,-126.5 293,-126.5"/>
<text text-anchor="middle" x="356" y="-133.5" font-family="Helvetica,sans-Serif" font-size="10.00">pdal::MetadataNode::add</text>
</a>
</g>
</g>
<!-- Node3&#45;&gt;Node4 -->
<g id="edge3" class="edge"><title>Node3&#45;&gt;Node4</title>
<path fill="none" stroke="midnightblue" d="M229.961,-85.5293C237.958,-88.2529 246.403,-91.4563 254,-95 270.993,-102.927 272.852,-109.415 290,-117 295.304,-119.346 300.977,-121.493 306.68,-123.432"/>
<polygon fill="midnightblue" stroke="midnightblue" points="305.656,-126.779 316.247,-126.494 307.79,-120.112 305.656,-126.779"/>
</g>
<!-- Node5 -->
<g id="node5" class="node"><title>Node5</title>
<g id="a_node5"><a xlink:href="classpdal_1_1Stage.html#a6c81d6fbbac17ebe4cd63806916cc750" target="_top" xlink:title="pdal::Stage::getName">
<polygon fill="white" stroke="black" points="300,-88.5 300,-107.5 412,-107.5 412,-88.5 300,-88.5"/>
<text text-anchor="middle" x="356" y="-95.5" font-family="Helvetica,sans-Serif" font-size="10.00">pdal::Stage::getName</text>
</a>
</g>
</g>
<!-- Node3&#45;&gt;Node5 -->
<g id="edge4" class="edge"><title>Node3&#45;&gt;Node5</title>
<path fill="none" stroke="midnightblue" d="M254.361,-83.9425C265.81,-85.5418 277.93,-87.2347 289.643,-88.8707"/>
<polygon fill="midnightblue" stroke="midnightblue" points="289.415,-92.3729 299.804,-90.29 290.384,-85.4402 289.415,-92.3729"/>
</g>
<!-- Node6 -->
<g id="node6" class="node"><title>Node6</title>
<g id="a_node6"><a xlink:href="classpdal_1_1BasePointTable.html#a03429472e71e5dd323bc92319f4a9df6" target="_top" xlink:title="pdal::BasePointTable\l::metadata">
<polygon fill="white" stroke="black" points="301,-39 301,-69 411,-69 411,-39 301,-39"/>
<text text-anchor="start" x="309" y="-57" font-family="Helvetica,sans-Serif" font-size="10.00">pdal::BasePointTable</text>
<text text-anchor="middle" x="356" y="-46" font-family="Helvetica,sans-Serif" font-size="10.00">::metadata</text>
</a>
</g>
</g>
<!-- Node3&#45;&gt;Node6 -->
<g id="edge5" class="edge"><title>Node3&#45;&gt;Node6</title>
<path fill="none" stroke="midnightblue" d="M254.361,-68.0575C266.201,-66.4036 278.759,-64.6496 290.841,-62.9619"/>
<polygon fill="midnightblue" stroke="midnightblue" points="291.433,-66.4133 300.853,-61.5635 290.464,-59.4806 291.433,-66.4133"/>
</g>
<!-- Node7 -->
<g id="node7" class="node"><title>Node7</title>
<g id="a_node7"><a xlink:href="classpdal_1_1Stage.html#a0d7c0bb23ed18577b1aa58b02448487f" target="_top" xlink:title="pdal::Stage::writerInitialize">
<polygon fill="white" stroke="black" points="290,-0.5 290,-19.5 422,-19.5 422,-0.5 290,-0.5"/>
<text text-anchor="middle" x="356" y="-7.5" font-family="Helvetica,sans-Serif" font-size="10.00">pdal::Stage::writerInitialize</text>
</a>
</g>
</g>
<!-- Node3&#45;&gt;Node7 -->
<g id="edge6" class="edge"><title>Node3&#45;&gt;Node7</title>
<path fill="none" stroke="midnightblue" d="M214.504,-66.4916C232.774,-56.5273 262.851,-40.8434 290,-30 296.483,-27.4107 303.438,-24.9507 310.302,-22.6982"/>
<polygon fill="midnightblue" stroke="midnightblue" points="311.751,-25.911 320.228,-19.5559 309.638,-19.2375 311.751,-25.911"/>
</g>
</g>
</svg>
