<?xml version="1.0" encoding="UTF-8" standalone="no"?>
<!DOCTYPE svg PUBLIC "-//W3C//DTD SVG 1.1//EN"
 "http://www.w3.org/Graphics/SVG/1.1/DTD/svg11.dtd">
<!-- Generated by graphviz version 2.38.0 (20140413.2041)
 -->
<!-- Title: pdal::LasHeader::scaleX Pages: 1 -->
<svg width="320pt" height="142pt"
 viewBox="0.00 0.00 320.00 142.00" xmlns="http://www.w3.org/2000/svg" xmlns:xlink="http://www.w3.org/1999/xlink">
<g id="graph0" class="graph" transform="scale(1 1) rotate(0) translate(4 138)">
<title>pdal::LasHeader::scaleX</title>
<polygon fill="white" stroke="none" points="-4,4 -4,-138 316,-138 316,4 -4,4"/>
<!-- Node1 -->
<g id="node1" class="node"><title>Node1</title>
<polygon fill="#bfbfbf" stroke="black" points="0,-57.5 0,-76.5 124,-76.5 124,-57.5 0,-57.5"/>
<text text-anchor="middle" x="62" y="-64.5" font-family="Helvetica,sans-Serif" font-size="10.00">pdal::LasHeader::scaleX</text>
</g>
<!-- Node2 -->
<g id="node2" class="node"><title>Node2</title>
<g id="a_node2"><a xlink:href="classpdal_1_1LasReader.html#ae3158359997bea71a22048e864b672ea" target="_top" xlink:title="pdal::LasReader::loadPoint">
<polygon fill="white" stroke="black" points="169,-114.5 169,-133.5 303,-133.5 303,-114.5 169,-114.5"/>
<text text-anchor="middle" x="236" y="-121.5" font-family="Helvetica,sans-Serif" font-size="10.00">pdal::LasReader::loadPoint</text>
</a>
</g>
</g>
<!-- Node1&#45;&gt;Node2 -->
<g id="edge1" class="edge"><title>Node1&#45;&gt;Node2</title>
<path fill="none" stroke="midnightblue" d="M94.3394,-80.4312C113.163,-88.2076 137.711,-97.8418 160,-105 170.743,-108.45 182.51,-111.682 193.474,-114.467"/>
<polygon fill="midnightblue" stroke="midnightblue" points="95.6362,-77.1799 85.0597,-76.5569 92.9393,-83.6395 95.6362,-77.1799"/>
</g>
<!-- Node3 -->
<g id="node3" class="node"><title>Node3</title>
<g id="a_node3"><a xlink:href="classpdal_1_1LasReader.html#a49fa38f0c3b504eaaaef5bee5088480e" target="_top" xlink:title="pdal::LasReader::loadPointV10">
<polygon fill="white" stroke="black" points="160,-76.5 160,-95.5 312,-95.5 312,-76.5 160,-76.5"/>
<text text-anchor="middle" x="236" y="-83.5" font-family="Helvetica,sans-Serif" font-size="10.00">pdal::LasReader::loadPointV10</text>
</a>
</g>
</g>
<!-- Node1&#45;&gt;Node3 -->
<g id="edge2" class="edge"><title>Node1&#45;&gt;Node3</title>
<path fill="none" stroke="midnightblue" d="M134.316,-74.8779C142.768,-75.8116 151.415,-76.7668 159.918,-77.7061"/>
<polygon fill="midnightblue" stroke="midnightblue" points="134.449,-71.3714 124.125,-73.7522 133.68,-78.3291 134.449,-71.3714"/>
</g>
<!-- Node4 -->
<g id="node4" class="node"><title>Node4</title>
<g id="a_node4"><a xlink:href="classpdal_1_1LasReader.html#aacb114f2b0d885bd0e6fc6d574a81a2c" target="_top" xlink:title="pdal::LasReader::loadPointV14">
<polygon fill="white" stroke="black" points="160,-38.5 160,-57.5 312,-57.5 312,-38.5 160,-38.5"/>
<text text-anchor="middle" x="236" y="-45.5" font-family="Helvetica,sans-Serif" font-size="10.00">pdal::LasReader::loadPointV14</text>
</a>
</g>
</g>
<!-- Node1&#45;&gt;Node4 -->
<g id="edge3" class="edge"><title>Node1&#45;&gt;Node4</title>
<path fill="none" stroke="midnightblue" d="M134.316,-59.1221C142.768,-58.1884 151.415,-57.2332 159.918,-56.2939"/>
<polygon fill="midnightblue" stroke="midnightblue" points="133.68,-55.6709 124.125,-60.2478 134.449,-62.6286 133.68,-55.6709"/>
</g>
<!-- Node5 -->
<g id="node5" class="node"><title>Node5</title>
<g id="a_node5"><a xlink:href="LasReaderTest_8cpp.html#abb7afe92c00ae82352167ef5a47190e0" target="_top" xlink:title="TEST">
<polygon fill="white" stroke="black" points="215,-0.5 215,-19.5 257,-19.5 257,-0.5 215,-0.5"/>
<text text-anchor="middle" x="236" y="-7.5" font-family="Helvetica,sans-Serif" font-size="10.00">TEST</text>
</a>
</g>
</g>
<!-- Node1&#45;&gt;Node5 -->
<g id="edge4" class="edge"><title>Node1&#45;&gt;Node5</title>
<path fill="none" stroke="midnightblue" d="M94.3394,-53.5688C113.163,-45.7924 137.711,-36.1582 160,-29 178.288,-23.1268 199.547,-17.8866 214.751,-14.4047"/>
<polygon fill="midnightblue" stroke="midnightblue" points="92.9393,-50.3605 85.0597,-57.4431 95.6362,-56.8201 92.9393,-50.3605"/>
</g>
</g>
</svg>
