<?xml version="1.0" encoding="UTF-8" standalone="no"?>
<!DOCTYPE svg PUBLIC "-//W3C//DTD SVG 1.1//EN"
 "http://www.w3.org/Graphics/SVG/1.1/DTD/svg11.dtd">
<!-- Generated by graphviz version 2.38.0 (20140413.2041)
 -->
<!-- Title: pdal::OciWriter::shutOff_SDO_PC_Trigger Pages: 1 -->
<svg width="431pt" height="39pt"
 viewBox="0.00 0.00 431.00 39.00" xmlns="http://www.w3.org/2000/svg" xmlns:xlink="http://www.w3.org/1999/xlink">
<g id="graph0" class="graph" transform="scale(1 1) rotate(0) translate(4 35)">
<title>pdal::OciWriter::shutOff_SDO_PC_Trigger</title>
<polygon fill="white" stroke="none" points="-4,4 -4,-35 427,-35 427,4 -4,4"/>
<!-- Node1 -->
<g id="node1" class="node"><title>Node1</title>
<polygon fill="#bfbfbf" stroke="black" points="0,-0.5 0,-30.5 120,-30.5 120,-0.5 0,-0.5"/>
<text text-anchor="start" x="8" y="-18.5" font-family="Helvetica,sans-Serif" font-size="10.00">pdal::OciWriter::shutOff</text>
<text text-anchor="middle" x="60" y="-7.5" font-family="Helvetica,sans-Serif" font-size="10.00">_SDO_PC_Trigger</text>
</g>
<!-- Node2 -->
<g id="node2" class="node"><title>Node2</title>
<g id="a_node2"><a xlink:href="classpdal_1_1OciWriter.html#a29c890b4de7d31ab917f5d4577f62345" target="_top" xlink:title="pdal::OciWriter::writeInit">
<polygon fill="white" stroke="black" points="156,-6 156,-25 278,-25 278,-6 156,-6"/>
<text text-anchor="middle" x="217" y="-13" font-family="Helvetica,sans-Serif" font-size="10.00">pdal::OciWriter::writeInit</text>
</a>
</g>
</g>
<!-- Node1&#45;&gt;Node2 -->
<g id="edge1" class="edge"><title>Node1&#45;&gt;Node2</title>
<path fill="none" stroke="midnightblue" d="M130.047,-15.5C138.647,-15.5 147.387,-15.5 155.838,-15.5"/>
<polygon fill="midnightblue" stroke="midnightblue" points="130.041,-12.0001 120.041,-15.5 130.041,-19.0001 130.041,-12.0001"/>
</g>
<!-- Node3 -->
<g id="node3" class="node"><title>Node3</title>
<g id="a_node3"><a xlink:href="classpdal_1_1OciWriter.html#a11f02a9af7350d831dff5f81859c76f2" target="_top" xlink:title="pdal::OciWriter::write">
<polygon fill="white" stroke="black" points="314,-6 314,-25 423,-25 423,-6 314,-6"/>
<text text-anchor="middle" x="368.5" y="-13" font-family="Helvetica,sans-Serif" font-size="10.00">pdal::OciWriter::write</text>
</a>
</g>
</g>
<!-- Node2&#45;&gt;Node3 -->
<g id="edge2" class="edge"><title>Node2&#45;&gt;Node3</title>
<path fill="none" stroke="midnightblue" d="M288.589,-15.5C297.014,-15.5 305.509,-15.5 313.646,-15.5"/>
<polygon fill="midnightblue" stroke="midnightblue" points="288.376,-12.0001 278.376,-15.5 288.376,-19.0001 288.376,-12.0001"/>
</g>
</g>
</svg>
