<?xml version="1.0" encoding="UTF-8" standalone="no"?>
<!DOCTYPE svg PUBLIC "-//W3C//DTD SVG 1.1//EN"
 "http://www.w3.org/Graphics/SVG/1.1/DTD/svg11.dtd">
<!-- Generated by graphviz version 2.38.0 (20140413.2041)
 -->
<!-- Title: pdal::OciWriter::initialize Pages: 1 -->
<svg width="870pt" height="237pt"
 viewBox="0.00 0.00 870.00 237.00" xmlns="http://www.w3.org/2000/svg" xmlns:xlink="http://www.w3.org/1999/xlink">
<g id="graph0" class="graph" transform="scale(1 1) rotate(0) translate(4 233)">
<title>pdal::OciWriter::initialize</title>
<polygon fill="white" stroke="none" points="-4,4 -4,-233 866,-233 866,4 -4,4"/>
<!-- Node1 -->
<g id="node1" class="node"><title>Node1</title>
<polygon fill="#bfbfbf" stroke="black" points="0,-76.5 0,-95.5 123,-95.5 123,-76.5 0,-76.5"/>
<text text-anchor="middle" x="61.5" y="-83.5" font-family="Helvetica,sans-Serif" font-size="10.00">pdal::OciWriter::initialize</text>
</g>
<!-- Node2 -->
<g id="node2" class="node"><title>Node2</title>
<g id="a_node2"><a xlink:href="namespacepdal.html#a923ba44d8815490512521c355b75c38b" target="_top" xlink:title="pdal::connect">
<polygon fill="white" stroke="black" points="187,-152.5 187,-171.5 262,-171.5 262,-152.5 187,-152.5"/>
<text text-anchor="middle" x="224.5" y="-159.5" font-family="Helvetica,sans-Serif" font-size="10.00">pdal::connect</text>
</a>
</g>
</g>
<!-- Node1&#45;&gt;Node2 -->
<g id="edge1" class="edge"><title>Node1&#45;&gt;Node2</title>
<path fill="none" stroke="midnightblue" d="M76.3026,-95.6442C94.5276,-108.022 127.949,-129.504 159,-143 164.761,-145.504 170.95,-147.795 177.133,-149.852"/>
<polygon fill="midnightblue" stroke="midnightblue" points="176.191,-153.224 186.781,-152.888 178.293,-146.547 176.191,-153.224"/>
</g>
<!-- Node12 -->
<g id="node12" class="node"><title>Node12</title>
<g id="a_node12"><a xlink:href="classpdal_1_1OciWriter.html#abf4a8e103237c762567ac6138539033c" target="_top" xlink:title="pdal::OciWriter::getGType">
<polygon fill="white" stroke="black" points="159,-114.5 159,-133.5 290,-133.5 290,-114.5 159,-114.5"/>
<text text-anchor="middle" x="224.5" y="-121.5" font-family="Helvetica,sans-Serif" font-size="10.00">pdal::OciWriter::getGType</text>
</a>
</g>
</g>
<!-- Node1&#45;&gt;Node12 -->
<g id="edge11" class="edge"><title>Node1&#45;&gt;Node12</title>
<path fill="none" stroke="midnightblue" d="M103.127,-95.589C124.468,-100.626 150.812,-106.844 173.408,-112.177"/>
<polygon fill="midnightblue" stroke="midnightblue" points="172.628,-115.589 183.165,-114.48 174.236,-108.776 172.628,-115.589"/>
</g>
<!-- Node13 -->
<g id="node13" class="node"><title>Node13</title>
<g id="a_node13"><a xlink:href="namespacepdal_1_1gdal.html#a35a1ae3b5fe64517230477135fae8569" target="_top" xlink:title="pdal::gdal::registerDrivers">
<polygon fill="white" stroke="black" points="160.5,-76.5 160.5,-95.5 288.5,-95.5 288.5,-76.5 160.5,-76.5"/>
<text text-anchor="middle" x="224.5" y="-83.5" font-family="Helvetica,sans-Serif" font-size="10.00">pdal::gdal::registerDrivers</text>
</a>
</g>
</g>
<!-- Node1&#45;&gt;Node13 -->
<g id="edge12" class="edge"><title>Node1&#45;&gt;Node13</title>
<path fill="none" stroke="midnightblue" d="M123.367,-86C132.166,-86 141.299,-86 150.308,-86"/>
<polygon fill="midnightblue" stroke="midnightblue" points="150.403,-89.5001 160.403,-86 150.403,-82.5001 150.403,-89.5001"/>
</g>
<!-- Node14 -->
<g id="node14" class="node"><title>Node14</title>
<g id="a_node14"><a xlink:href="classpdal_1_1Stage.html#abdbd1176da12dfd882d931a43290797f" target="_top" xlink:title="pdal::Stage::throwError">
<polygon fill="white" stroke="black" points="166,-38.5 166,-57.5 283,-57.5 283,-38.5 166,-38.5"/>
<text text-anchor="middle" x="224.5" y="-45.5" font-family="Helvetica,sans-Serif" font-size="10.00">pdal::Stage::throwError</text>
</a>
</g>
</g>
<!-- Node1&#45;&gt;Node14 -->
<g id="edge13" class="edge"><title>Node1&#45;&gt;Node14</title>
<path fill="none" stroke="midnightblue" d="M103.127,-76.411C124.468,-71.3739 150.812,-65.1562 173.408,-59.8229"/>
<polygon fill="midnightblue" stroke="midnightblue" points="174.236,-63.2237 183.165,-57.5201 172.628,-56.4109 174.236,-63.2237"/>
</g>
<!-- Node16 -->
<g id="node16" class="node"><title>Node16</title>
<g id="a_node16"><a xlink:href="namespacepdal_1_1Utils.html#a28e3e2faff94b20f9908e77bc54ed983" target="_top" xlink:title="pdal::Utils::toupper">
<polygon fill="white" stroke="black" points="175,-0.5 175,-19.5 274,-19.5 274,-0.5 175,-0.5"/>
<text text-anchor="middle" x="224.5" y="-7.5" font-family="Helvetica,sans-Serif" font-size="10.00">pdal::Utils::toupper</text>
</a>
</g>
</g>
<!-- Node1&#45;&gt;Node16 -->
<g id="edge15" class="edge"><title>Node1&#45;&gt;Node16</title>
<path fill="none" stroke="midnightblue" d="M76.3026,-76.3558C94.5276,-63.9782 127.949,-42.4956 159,-29 164.35,-26.6748 170.068,-24.5335 175.808,-22.5928"/>
<polygon fill="midnightblue" stroke="midnightblue" points="176.966,-25.8971 185.426,-19.5191 174.836,-19.2293 176.966,-25.8971"/>
</g>
<!-- Node3 -->
<g id="node3" class="node"><title>Node3</title>
<g id="a_node3"><a xlink:href="namespacepdal_1_1Utils.html#aad48cdff8e3ff3d13c7a273583870185" target="_top" xlink:title="pdal::Utils::closeFile">
<polygon fill="white" stroke="black" points="329,-209.5 329,-228.5 435,-228.5 435,-209.5 329,-209.5"/>
<text text-anchor="middle" x="382" y="-216.5" font-family="Helvetica,sans-Serif" font-size="10.00">pdal::Utils::closeFile</text>
</a>
</g>
</g>
<!-- Node2&#45;&gt;Node3 -->
<g id="edge2" class="edge"><title>Node2&#45;&gt;Node3</title>
<path fill="none" stroke="midnightblue" d="M250.207,-171.569C270.505,-179.376 300.039,-190.61 326,-200 331.599,-202.025 337.535,-204.125 343.356,-206.158"/>
<polygon fill="midnightblue" stroke="midnightblue" points="342.37,-209.52 352.965,-209.49 344.664,-202.906 342.37,-209.52"/>
</g>
<!-- Node5 -->
<g id="node5" class="node"><title>Node5</title>
<g id="a_node5"><a xlink:href="namespacepdal_1_1Utils.html#aa7cd618aca677bff881c1c14fbeebe72" target="_top" xlink:title="pdal::Utils::fileExists">
<polygon fill="white" stroke="black" points="328.5,-171.5 328.5,-190.5 435.5,-190.5 435.5,-171.5 328.5,-171.5"/>
<text text-anchor="middle" x="382" y="-178.5" font-family="Helvetica,sans-Serif" font-size="10.00">pdal::Utils::fileExists</text>
</a>
</g>
</g>
<!-- Node2&#45;&gt;Node5 -->
<g id="edge4" class="edge"><title>Node2&#45;&gt;Node5</title>
<path fill="none" stroke="midnightblue" d="M262.351,-166.503C279.024,-168.54 299.203,-171.006 318.156,-173.321"/>
<polygon fill="midnightblue" stroke="midnightblue" points="317.877,-176.813 328.228,-174.552 318.726,-169.865 317.877,-176.813"/>
</g>
<!-- Node6 -->
<g id="node6" class="node"><title>Node6</title>
<g id="a_node6"><a xlink:href="namespacepdal_1_1Utils.html#ac3322e84f8c5a998a344a5a606c74793" target="_top" xlink:title="pdal::Utils::openFile">
<polygon fill="white" stroke="black" points="330,-133.5 330,-152.5 434,-152.5 434,-133.5 330,-133.5"/>
<text text-anchor="middle" x="382" y="-140.5" font-family="Helvetica,sans-Serif" font-size="10.00">pdal::Utils::openFile</text>
</a>
</g>
</g>
<!-- Node2&#45;&gt;Node6 -->
<g id="edge5" class="edge"><title>Node2&#45;&gt;Node6</title>
<path fill="none" stroke="midnightblue" d="M262.351,-157.497C279.483,-155.404 300.318,-152.858 319.719,-150.488"/>
<polygon fill="midnightblue" stroke="midnightblue" points="320.205,-153.954 329.706,-149.267 319.356,-147.006 320.205,-153.954"/>
</g>
<!-- Node8 -->
<g id="node8" class="node"><title>Node8</title>
<g id="a_node8"><a xlink:href="namespacepdal_1_1Dimension.html#acf81dae9d5946f3a941f9df154b2329b" target="_top" xlink:title="pdal::Dimension::size">
<polygon fill="white" stroke="black" points="326.5,-95.5 326.5,-114.5 437.5,-114.5 437.5,-95.5 326.5,-95.5"/>
<text text-anchor="middle" x="382" y="-102.5" font-family="Helvetica,sans-Serif" font-size="10.00">pdal::Dimension::size</text>
</a>
</g>
</g>
<!-- Node2&#45;&gt;Node8 -->
<g id="edge7" class="edge"><title>Node2&#45;&gt;Node8</title>
<path fill="none" stroke="midnightblue" d="M262.096,-152.595C271.327,-149.849 281.132,-146.604 290,-143 306.76,-136.188 309.401,-131.197 326,-124 330.801,-121.918 335.911,-119.901 341.008,-118.008"/>
<polygon fill="midnightblue" stroke="midnightblue" points="342.474,-121.2 350.709,-114.535 340.115,-114.61 342.474,-121.2"/>
</g>
<!-- Node4 -->
<g id="node4" class="node"><title>Node4</title>
<g id="a_node4"><a xlink:href="namespacepdal_1_1Utils.html#a6ce7036b0912ba81b1f1a876b2772a34" target="_top" xlink:title="pdal::Utils::closeFile">
<polygon fill="white" stroke="black" points="474,-209.5 474,-228.5 580,-228.5 580,-209.5 474,-209.5"/>
<text text-anchor="middle" x="527" y="-216.5" font-family="Helvetica,sans-Serif" font-size="10.00">pdal::Utils::closeFile</text>
</a>
</g>
</g>
<!-- Node3&#45;&gt;Node4 -->
<g id="edge3" class="edge"><title>Node3&#45;&gt;Node4</title>
<path fill="none" stroke="midnightblue" d="M435.031,-219C444.297,-219 454.035,-219 463.556,-219"/>
<polygon fill="midnightblue" stroke="midnightblue" points="463.768,-222.5 473.768,-219 463.768,-215.5 463.768,-222.5"/>
</g>
<!-- Node7 -->
<g id="node7" class="node"><title>Node7</title>
<g id="a_node7"><a xlink:href="SQLiteTest_8cpp.html#afdd1742979cee35fe1879794bd7ff3a4" target="_top" xlink:title="tempFilename">
<polygon fill="white" stroke="black" points="488,-133.5 488,-152.5 566,-152.5 566,-133.5 488,-133.5"/>
<text text-anchor="middle" x="527" y="-140.5" font-family="Helvetica,sans-Serif" font-size="10.00">tempFilename</text>
</a>
</g>
</g>
<!-- Node6&#45;&gt;Node7 -->
<g id="edge6" class="edge"><title>Node6&#45;&gt;Node7</title>
<path fill="none" stroke="midnightblue" d="M434.222,-143C448.272,-143 463.461,-143 477.361,-143"/>
<polygon fill="midnightblue" stroke="midnightblue" points="477.699,-146.5 487.699,-143 477.699,-139.5 477.699,-146.5"/>
</g>
<!-- Node9 -->
<g id="node9" class="node"><title>Node9</title>
<g id="a_node9"><a xlink:href="namespacepdal_1_1Utils.html#a59253304d0f929e3a3ea00f09636002f" target="_top" xlink:title="pdal::Utils::toNative">
<polygon fill="white" stroke="black" points="475,-95.5 475,-114.5 579,-114.5 579,-95.5 475,-95.5"/>
<text text-anchor="middle" x="527" y="-102.5" font-family="Helvetica,sans-Serif" font-size="10.00">pdal::Utils::toNative</text>
</a>
</g>
</g>
<!-- Node8&#45;&gt;Node9 -->
<g id="edge8" class="edge"><title>Node8&#45;&gt;Node9</title>
<path fill="none" stroke="midnightblue" d="M437.879,-105C446.597,-105 455.664,-105 464.522,-105"/>
<polygon fill="midnightblue" stroke="midnightblue" points="464.79,-108.5 474.79,-105 464.79,-101.5 464.79,-108.5"/>
</g>
<!-- Node10 -->
<g id="node10" class="node"><title>Node10</title>
<g id="a_node10"><a xlink:href="namespacepdal_1_1Dimension.html#a880d689fed54aa3ded6f88c9e058c5d2" target="_top" xlink:title="pdal::Dimension::type">
<polygon fill="white" stroke="black" points="616,-95.5 616,-114.5 728,-114.5 728,-95.5 616,-95.5"/>
<text text-anchor="middle" x="672" y="-102.5" font-family="Helvetica,sans-Serif" font-size="10.00">pdal::Dimension::type</text>
</a>
</g>
</g>
<!-- Node9&#45;&gt;Node10 -->
<g id="edge9" class="edge"><title>Node9&#45;&gt;Node10</title>
<path fill="none" stroke="midnightblue" d="M579.222,-105C587.747,-105 596.692,-105 605.513,-105"/>
<polygon fill="midnightblue" stroke="midnightblue" points="605.78,-108.5 615.78,-105 605.78,-101.5 605.78,-108.5"/>
</g>
<!-- Node11 -->
<g id="node11" class="node"><title>Node11</title>
<g id="a_node11"><a xlink:href="namespacepdal_1_1Utils.html#a5268937cf695835e55392f752dc02cb2" target="_top" xlink:title="pdal::Utils::tolower">
<polygon fill="white" stroke="black" points="764,-95.5 764,-114.5 862,-114.5 862,-95.5 764,-95.5"/>
<text text-anchor="middle" x="813" y="-102.5" font-family="Helvetica,sans-Serif" font-size="10.00">pdal::Utils::tolower</text>
</a>
</g>
</g>
<!-- Node10&#45;&gt;Node11 -->
<g id="edge10" class="edge"><title>Node10&#45;&gt;Node11</title>
<path fill="none" stroke="midnightblue" d="M728.336,-105C736.625,-105 745.194,-105 753.546,-105"/>
<polygon fill="midnightblue" stroke="midnightblue" points="753.59,-108.5 763.59,-105 753.59,-101.5 753.59,-108.5"/>
</g>
<!-- Node15 -->
<g id="node15" class="node"><title>Node15</title>
<g id="a_node15"><a xlink:href="classpdal_1_1Stage.html#a6c81d6fbbac17ebe4cd63806916cc750" target="_top" xlink:title="pdal::Stage::getName">
<polygon fill="white" stroke="black" points="326,-38.5 326,-57.5 438,-57.5 438,-38.5 326,-38.5"/>
<text text-anchor="middle" x="382" y="-45.5" font-family="Helvetica,sans-Serif" font-size="10.00">pdal::Stage::getName</text>
</a>
</g>
</g>
<!-- Node14&#45;&gt;Node15 -->
<g id="edge14" class="edge"><title>Node14&#45;&gt;Node15</title>
<path fill="none" stroke="midnightblue" d="M283.402,-48C293.938,-48 304.994,-48 315.725,-48"/>
<polygon fill="midnightblue" stroke="midnightblue" points="315.886,-51.5001 325.886,-48 315.886,-44.5001 315.886,-51.5001"/>
</g>
</g>
</svg>
