<?xml version="1.0" encoding="UTF-8" standalone="no"?>
<!DOCTYPE svg PUBLIC "-//W3C//DTD SVG 1.1//EN"
 "http://www.w3.org/Graphics/SVG/1.1/DTD/svg11.dtd">
<!-- Generated by graphviz version 2.38.0 (20140413.2041)
 -->
<!-- Title: pdal::Stage::setLog Pages: 1 -->
<svg width="407pt" height="215pt"
 viewBox="0.00 0.00 407.00 214.50" xmlns="http://www.w3.org/2000/svg" xmlns:xlink="http://www.w3.org/1999/xlink">
<g id="graph0" class="graph" transform="scale(1 1) rotate(0) translate(4 210.5)">
<title>pdal::Stage::setLog</title>
<polygon fill="white" stroke="none" points="-4,4 -4,-210.5 403,-210.5 403,4 -4,4"/>
<!-- Node1 -->
<g id="node1" class="node"><title>Node1</title>
<polygon fill="#bfbfbf" stroke="black" points="0,-68.5 0,-87.5 101,-87.5 101,-68.5 0,-68.5"/>
<text text-anchor="middle" x="50.5" y="-75.5" font-family="Helvetica,sans-Serif" font-size="10.00">pdal::Stage::setLog</text>
</g>
<!-- Node2 -->
<g id="node2" class="node"><title>Node2</title>
<g id="a_node2"><a xlink:href="classpdal_1_1PipelineManager.html#ad7f4c4be357e68bdec3051285cfc72f2" target="_top" xlink:title="pdal::PipelineManager\l::addFilter">
<polygon fill="white" stroke="black" points="137,-137 137,-167 250,-167 250,-137 137,-137"/>
<text text-anchor="start" x="145" y="-155" font-family="Helvetica,sans-Serif" font-size="10.00">pdal::PipelineManager</text>
<text text-anchor="middle" x="193.5" y="-144" font-family="Helvetica,sans-Serif" font-size="10.00">::addFilter</text>
</a>
</g>
</g>
<!-- Node1&#45;&gt;Node2 -->
<g id="edge1" class="edge"><title>Node1&#45;&gt;Node2</title>
<path fill="none" stroke="midnightblue" d="M76.0185,-92.8978C92.9249,-102.96 116.041,-116.306 137,-127 143.589,-130.362 150.725,-133.755 157.615,-136.91"/>
<polygon fill="midnightblue" stroke="midnightblue" points="77.6948,-89.822 67.3181,-87.6834 74.0963,-95.8263 77.6948,-89.822"/>
</g>
<!-- Node5 -->
<g id="node5" class="node"><title>Node5</title>
<g id="a_node5"><a xlink:href="classpdal_1_1PipelineManager.html#ac06522a7da0c1dbe787701a6abbe0f96" target="_top" xlink:title="pdal::PipelineManager\l::addReader">
<polygon fill="white" stroke="black" points="137,-88 137,-118 250,-118 250,-88 137,-88"/>
<text text-anchor="start" x="145" y="-106" font-family="Helvetica,sans-Serif" font-size="10.00">pdal::PipelineManager</text>
<text text-anchor="middle" x="193.5" y="-95" font-family="Helvetica,sans-Serif" font-size="10.00">::addReader</text>
</a>
</g>
</g>
<!-- Node1&#45;&gt;Node5 -->
<g id="edge4" class="edge"><title>Node1&#45;&gt;Node5</title>
<path fill="none" stroke="midnightblue" d="M111.142,-88.5748C119.714,-90.0947 128.505,-91.6534 136.993,-93.1583"/>
<polygon fill="midnightblue" stroke="midnightblue" points="111.669,-85.1137 101.211,-86.8141 110.447,-92.0062 111.669,-85.1137"/>
</g>
<!-- Node7 -->
<g id="node7" class="node"><title>Node7</title>
<g id="a_node7"><a xlink:href="classpdal_1_1PipelineManager.html#afeee48332d9d12837a531c398b9f26d6" target="_top" xlink:title="pdal::PipelineManager\l::addWriter">
<polygon fill="white" stroke="black" points="137,-39 137,-69 250,-69 250,-39 137,-39"/>
<text text-anchor="start" x="145" y="-57" font-family="Helvetica,sans-Serif" font-size="10.00">pdal::PipelineManager</text>
<text text-anchor="middle" x="193.5" y="-46" font-family="Helvetica,sans-Serif" font-size="10.00">::addWriter</text>
</a>
</g>
</g>
<!-- Node1&#45;&gt;Node7 -->
<g id="edge7" class="edge"><title>Node1&#45;&gt;Node7</title>
<path fill="none" stroke="midnightblue" d="M111.142,-67.8482C119.714,-66.3891 128.505,-64.8927 136.993,-63.448"/>
<polygon fill="midnightblue" stroke="midnightblue" points="110.482,-64.41 101.211,-69.5385 111.657,-71.3108 110.482,-64.41"/>
</g>
<!-- Node9 -->
<g id="node9" class="node"><title>Node9</title>
<g id="a_node9"><a xlink:href="OverlayFilterTest_8cpp.html#a81ea698dfcbc49b4d563206ceb68d003" target="_top" xlink:title="testOverlay">
<polygon fill="white" stroke="black" points="160,-0.5 160,-19.5 227,-19.5 227,-0.5 160,-0.5"/>
<text text-anchor="middle" x="193.5" y="-7.5" font-family="Helvetica,sans-Serif" font-size="10.00">testOverlay</text>
</a>
</g>
</g>
<!-- Node1&#45;&gt;Node9 -->
<g id="edge10" class="edge"><title>Node1&#45;&gt;Node9</title>
<path fill="none" stroke="midnightblue" d="M74.7929,-63.034C91.6339,-52.6193 115.17,-38.883 137,-29 144.701,-25.5137 153.242,-22.2908 161.269,-19.527"/>
<polygon fill="midnightblue" stroke="midnightblue" points="72.7936,-60.1564 66.179,-68.4327 76.5111,-66.0878 72.7936,-60.1564"/>
</g>
<!-- Node3 -->
<g id="node3" class="node"><title>Node3</title>
<g id="a_node3"><a xlink:href="classpdal_1_1PipelineManager.html#aeb5065b985604b7e92096470643c391a" target="_top" xlink:title="pdal::PipelineManager\l::makeFilter">
<polygon fill="white" stroke="black" points="286,-176 286,-206 399,-206 399,-176 286,-176"/>
<text text-anchor="start" x="294" y="-194" font-family="Helvetica,sans-Serif" font-size="10.00">pdal::PipelineManager</text>
<text text-anchor="middle" x="342.5" y="-183" font-family="Helvetica,sans-Serif" font-size="10.00">::makeFilter</text>
</a>
</g>
</g>
<!-- Node2&#45;&gt;Node3 -->
<g id="edge2" class="edge"><title>Node2&#45;&gt;Node3</title>
<path fill="none" stroke="midnightblue" d="M259.797,-169.324C268.49,-171.63 277.338,-173.978 285.847,-176.235"/>
<polygon fill="midnightblue" stroke="midnightblue" points="260.638,-165.926 250.074,-166.744 258.842,-172.692 260.638,-165.926"/>
</g>
<!-- Node4 -->
<g id="node4" class="node"><title>Node4</title>
<g id="a_node4"><a xlink:href="AdditionalMergeTest_8cpp.html#ac4c8e2ca590e0c0e62bbfdd934c0cdc8" target="_top" xlink:title="TEST">
<polygon fill="white" stroke="black" points="321.5,-88.5 321.5,-107.5 363.5,-107.5 363.5,-88.5 321.5,-88.5"/>
<text text-anchor="middle" x="342.5" y="-95.5" font-family="Helvetica,sans-Serif" font-size="10.00">TEST</text>
</a>
</g>
</g>
<!-- Node2&#45;&gt;Node4 -->
<g id="edge3" class="edge"><title>Node2&#45;&gt;Node4</title>
<path fill="none" stroke="midnightblue" d="M242.55,-133.253C256.524,-127.9 271.838,-122.131 286,-117 297.682,-112.768 310.834,-108.254 321.402,-104.689"/>
<polygon fill="midnightblue" stroke="midnightblue" points="241.198,-130.023 233.12,-136.879 243.71,-136.556 241.198,-130.023"/>
</g>
<!-- Node5&#45;&gt;Node4 -->
<g id="edge6" class="edge"><title>Node5&#45;&gt;Node4</title>
<path fill="none" stroke="midnightblue" d="M260.179,-100.766C282.383,-100.011 305.55,-99.2228 321.45,-98.682"/>
<polygon fill="midnightblue" stroke="midnightblue" points="259.95,-97.2717 250.074,-101.11 260.188,-104.268 259.95,-97.2717"/>
</g>
<!-- Node6 -->
<g id="node6" class="node"><title>Node6</title>
<g id="a_node6"><a xlink:href="classpdal_1_1PipelineManager.html#a9b5b93498ef9ce477c9be6125816b97f" target="_top" xlink:title="pdal::PipelineManager\l::makeReader">
<polygon fill="white" stroke="black" points="286,-127 286,-157 399,-157 399,-127 286,-127"/>
<text text-anchor="start" x="294" y="-145" font-family="Helvetica,sans-Serif" font-size="10.00">pdal::PipelineManager</text>
<text text-anchor="middle" x="342.5" y="-134" font-family="Helvetica,sans-Serif" font-size="10.00">::makeReader</text>
</a>
</g>
</g>
<!-- Node5&#45;&gt;Node6 -->
<g id="edge5" class="edge"><title>Node5&#45;&gt;Node6</title>
<path fill="none" stroke="midnightblue" d="M259.797,-120.324C268.49,-122.63 277.338,-124.978 285.847,-127.235"/>
<polygon fill="midnightblue" stroke="midnightblue" points="260.638,-116.926 250.074,-117.744 258.842,-123.692 260.638,-116.926"/>
</g>
<!-- Node7&#45;&gt;Node4 -->
<g id="edge9" class="edge"><title>Node7&#45;&gt;Node4</title>
<path fill="none" stroke="midnightblue" d="M254.394,-71.9274C278.239,-79.0647 304.064,-86.7947 321.352,-91.9692"/>
<polygon fill="midnightblue" stroke="midnightblue" points="255.262,-68.5338 244.678,-69.0192 253.254,-75.2398 255.262,-68.5338"/>
</g>
<!-- Node8 -->
<g id="node8" class="node"><title>Node8</title>
<g id="a_node8"><a xlink:href="classpdal_1_1PipelineManager.html#a799449dfca11d1961ea0ecd8cdb886a5" target="_top" xlink:title="pdal::PipelineManager\l::makeWriter">
<polygon fill="white" stroke="black" points="286,-39 286,-69 399,-69 399,-39 286,-39"/>
<text text-anchor="start" x="294" y="-57" font-family="Helvetica,sans-Serif" font-size="10.00">pdal::PipelineManager</text>
<text text-anchor="middle" x="342.5" y="-46" font-family="Helvetica,sans-Serif" font-size="10.00">::makeWriter</text>
</a>
</g>
</g>
<!-- Node7&#45;&gt;Node8 -->
<g id="edge8" class="edge"><title>Node7&#45;&gt;Node8</title>
<path fill="none" stroke="midnightblue" d="M260.078,-54C268.681,-54 277.43,-54 285.847,-54"/>
<polygon fill="midnightblue" stroke="midnightblue" points="260.074,-50.5001 250.074,-54 260.074,-57.5001 260.074,-50.5001"/>
</g>
<!-- Node10 -->
<g id="node10" class="node"><title>Node10</title>
<g id="a_node10"><a xlink:href="OverlayFilterTest_8cpp.html#a653ec05b727533a5526b56cb828cb0f6" target="_top" xlink:title="TEST">
<polygon fill="white" stroke="black" points="321.5,-0.5 321.5,-19.5 363.5,-19.5 363.5,-0.5 321.5,-0.5"/>
<text text-anchor="middle" x="342.5" y="-7.5" font-family="Helvetica,sans-Serif" font-size="10.00">TEST</text>
</a>
</g>
</g>
<!-- Node9&#45;&gt;Node10 -->
<g id="edge11" class="edge"><title>Node9&#45;&gt;Node10</title>
<path fill="none" stroke="midnightblue" d="M237.327,-10C264.958,-10 299.637,-10 321.186,-10"/>
<polygon fill="midnightblue" stroke="midnightblue" points="237.124,-6.5001 227.124,-10 237.124,-13.5001 237.124,-6.5001"/>
</g>
</g>
</svg>
