<?xml version="1.0" encoding="UTF-8" standalone="no"?>
<!DOCTYPE svg PUBLIC "-//W3C//DTD SVG 1.1//EN"
 "http://www.w3.org/Graphics/SVG/1.1/DTD/svg11.dtd">
<!-- Generated by graphviz version 2.38.0 (20140413.2041)
 -->
<!-- Title: pdal::PipelineManager::makeFilter Pages: 1 -->
<svg width="1673pt" height="579pt"
 viewBox="0.00 0.00 1673.00 578.56" xmlns="http://www.w3.org/2000/svg" xmlns:xlink="http://www.w3.org/1999/xlink">
<g id="graph0" class="graph" transform="scale(1 1) rotate(0) translate(4 574.555)">
<title>pdal::PipelineManager::makeFilter</title>
<polygon fill="white" stroke="none" points="-4,4 -4,-574.555 1669,-574.555 1669,4 -4,4"/>
<!-- Node1 -->
<g id="node1" class="node"><title>Node1</title>
<polygon fill="#bfbfbf" stroke="black" points="0,-154.5 0,-184.5 113,-184.5 113,-154.5 0,-154.5"/>
<text text-anchor="start" x="8" y="-172.5" font-family="Helvetica,sans-Serif" font-size="10.00">pdal::PipelineManager</text>
<text text-anchor="middle" x="56.5" y="-161.5" font-family="Helvetica,sans-Serif" font-size="10.00">::makeFilter</text>
</g>
<!-- Node2 -->
<g id="node2" class="node"><title>Node2</title>
<g id="a_node2"><a xlink:href="classpdal_1_1PipelineManager.html#ad7f4c4be357e68bdec3051285cfc72f2" target="_top" xlink:title="pdal::PipelineManager\l::addFilter">
<polygon fill="white" stroke="black" points="149,-208.5 149,-238.5 262,-238.5 262,-208.5 149,-208.5"/>
<text text-anchor="start" x="157" y="-226.5" font-family="Helvetica,sans-Serif" font-size="10.00">pdal::PipelineManager</text>
<text text-anchor="middle" x="205.5" y="-215.5" font-family="Helvetica,sans-Serif" font-size="10.00">::addFilter</text>
</a>
</g>
</g>
<!-- Node1&#45;&gt;Node2 -->
<g id="edge1" class="edge"><title>Node1&#45;&gt;Node2</title>
<path fill="none" stroke="midnightblue" d="M98.4477,-184.542C115.658,-190.864 135.853,-198.283 153.976,-204.94"/>
<polygon fill="midnightblue" stroke="midnightblue" points="152.924,-208.282 163.517,-208.445 155.337,-201.712 152.924,-208.282"/>
</g>
<!-- Node31 -->
<g id="node31" class="node"><title>Node31</title>
<g id="a_node31"><a xlink:href="namespacehag.html#a39becb5458bcac317093e468da1639be" target="_top" xlink:title="hag.filter">
<polygon fill="white" stroke="black" points="340,-290 340,-309 394,-309 394,-290 340,-290"/>
<text text-anchor="middle" x="367" y="-297" font-family="Helvetica,sans-Serif" font-size="10.00">hag.filter</text>
</a>
</g>
</g>
<!-- Node1&#45;&gt;Node31 -->
<g id="edge41" class="edge"><title>Node1&#45;&gt;Node31</title>
<path fill="none" stroke="midnightblue" d="M70.8322,-184.547C87.3997,-202.294 117.371,-231.411 149,-247.5 208.139,-277.582 285.274,-290.688 329.856,-296.068"/>
<polygon fill="midnightblue" stroke="midnightblue" points="329.592,-299.56 339.925,-297.217 330.387,-292.605 329.592,-299.56"/>
</g>
<!-- Node36 -->
<g id="node36" class="node"><title>Node36</title>
<g id="a_node36"><a xlink:href="classpdal_1_1Stage.html#abfd87d459bea04a919aace286b2e377e" target="_top" xlink:title="pdal::Stage::setInput">
<polygon fill="white" stroke="black" points="152,-160 152,-179 259,-179 259,-160 152,-160"/>
<text text-anchor="middle" x="205.5" y="-167" font-family="Helvetica,sans-Serif" font-size="10.00">pdal::Stage::setInput</text>
</a>
</g>
</g>
<!-- Node1&#45;&gt;Node36 -->
<g id="edge42" class="edge"><title>Node1&#45;&gt;Node36</title>
<path fill="none" stroke="midnightblue" d="M113.074,-169.5C122.389,-169.5 132.112,-169.5 141.595,-169.5"/>
<polygon fill="midnightblue" stroke="midnightblue" points="141.761,-173 151.761,-169.5 141.761,-166 141.761,-173"/>
</g>
<!-- Node37 -->
<g id="node37" class="node"><title>Node37</title>
<g id="a_node37"><a xlink:href="classpdal_1_1PipelineManager.html#a94d8a870db9447df03ffbc4f24fa1d22" target="_top" xlink:title="pdal::PipelineManager\l::setOptions">
<polygon fill="white" stroke="black" points="149,-91.5 149,-121.5 262,-121.5 262,-91.5 149,-91.5"/>
<text text-anchor="start" x="157" y="-109.5" font-family="Helvetica,sans-Serif" font-size="10.00">pdal::PipelineManager</text>
<text text-anchor="middle" x="205.5" y="-98.5" font-family="Helvetica,sans-Serif" font-size="10.00">::setOptions</text>
</a>
</g>
</g>
<!-- Node1&#45;&gt;Node37 -->
<g id="edge43" class="edge"><title>Node1&#45;&gt;Node37</title>
<path fill="none" stroke="midnightblue" d="M92.7102,-154.41C112.909,-145.753 138.461,-134.802 160.036,-125.556"/>
<polygon fill="midnightblue" stroke="midnightblue" points="161.51,-128.732 169.323,-121.576 158.752,-122.298 161.51,-128.732"/>
</g>
<!-- Node43 -->
<g id="node43" class="node"><title>Node43</title>
<g id="a_node43"><a xlink:href="classpdal_1_1Stage.html#a49584fa79b06e1ddb18a6bc837e6b6d8" target="_top" xlink:title="pdal::Stage::setTag">
<polygon fill="white" stroke="black" points="154.5,-53 154.5,-72 256.5,-72 256.5,-53 154.5,-53"/>
<text text-anchor="middle" x="205.5" y="-60" font-family="Helvetica,sans-Serif" font-size="10.00">pdal::Stage::setTag</text>
</a>
</g>
</g>
<!-- Node1&#45;&gt;Node43 -->
<g id="edge50" class="edge"><title>Node1&#45;&gt;Node43</title>
<path fill="none" stroke="midnightblue" d="M69.5733,-154.346C85.7575,-134.95 116.264,-101.475 149,-81.5 152.376,-79.4403 156.004,-77.5683 159.731,-75.8744"/>
<polygon fill="midnightblue" stroke="midnightblue" points="161.187,-79.0601 169.11,-72.0255 158.53,-72.5842 161.187,-79.0601"/>
</g>
<!-- Node3 -->
<g id="node3" class="node"><title>Node3</title>
<g id="a_node3"><a xlink:href="classpdal_1_1StageFactory.html#ac23b3763b84750594c834ec6ea27e334" target="_top" xlink:title="pdal::StageFactory\l::createStage">
<polygon fill="white" stroke="black" points="317.5,-164.5 317.5,-194.5 416.5,-194.5 416.5,-164.5 317.5,-164.5"/>
<text text-anchor="start" x="325.5" y="-182.5" font-family="Helvetica,sans-Serif" font-size="10.00">pdal::StageFactory</text>
<text text-anchor="middle" x="367" y="-171.5" font-family="Helvetica,sans-Serif" font-size="10.00">::createStage</text>
</a>
</g>
</g>
<!-- Node2&#45;&gt;Node3 -->
<g id="edge2" class="edge"><title>Node2&#45;&gt;Node3</title>
<path fill="none" stroke="midnightblue" d="M260.945,-208.481C275.973,-204.335 292.338,-199.82 307.582,-195.615"/>
<polygon fill="midnightblue" stroke="midnightblue" points="308.702,-198.937 317.411,-192.904 306.84,-192.189 308.702,-198.937"/>
</g>
<!-- Node2&#45;&gt;Node31 -->
<g id="edge36" class="edge"><title>Node2&#45;&gt;Node31</title>
<path fill="none" stroke="midnightblue" d="M226.998,-238.653C244.949,-251.326 272.136,-269.111 298,-280.5 308.117,-284.955 319.544,-288.629 330.103,-291.519"/>
<polygon fill="midnightblue" stroke="midnightblue" points="329.332,-294.935 339.89,-294.05 331.085,-288.158 329.332,-294.935"/>
</g>
<!-- Node34 -->
<g id="node34" class="node"><title>Node34</title>
<g id="a_node34"><a xlink:href="classpdal_1_1Stage.html#ad70b59db94921fc309a13955d3330c2d" target="_top" xlink:title="pdal::Stage::setLog">
<polygon fill="white" stroke="black" points="316.5,-214 316.5,-233 417.5,-233 417.5,-214 316.5,-214"/>
<text text-anchor="middle" x="367" y="-221" font-family="Helvetica,sans-Serif" font-size="10.00">pdal::Stage::setLog</text>
</a>
</g>
</g>
<!-- Node2&#45;&gt;Node34 -->
<g id="edge39" class="edge"><title>Node2&#45;&gt;Node34</title>
<path fill="none" stroke="midnightblue" d="M262.285,-223.5C276.454,-223.5 291.735,-223.5 306.099,-223.5"/>
<polygon fill="midnightblue" stroke="midnightblue" points="306.367,-227 316.367,-223.5 306.367,-220 306.367,-227"/>
</g>
<!-- Node35 -->
<g id="node35" class="node"><title>Node35</title>
<g id="a_node35"><a xlink:href="classpdal_1_1Stage.html#a714dfe1f3b91fd41afe8146d94759b29" target="_top" xlink:title="pdal::Stage::setProgressFd">
<polygon fill="white" stroke="black" points="299,-252 299,-271 435,-271 435,-252 299,-252"/>
<text text-anchor="middle" x="367" y="-259" font-family="Helvetica,sans-Serif" font-size="10.00">pdal::Stage::setProgressFd</text>
</a>
</g>
</g>
<!-- Node2&#45;&gt;Node35 -->
<g id="edge40" class="edge"><title>Node2&#45;&gt;Node35</title>
<path fill="none" stroke="midnightblue" d="M262.285,-236.791C279.858,-240.977 299.142,-245.571 316.264,-249.651"/>
<polygon fill="midnightblue" stroke="midnightblue" points="315.528,-253.073 326.067,-251.986 317.15,-246.264 315.528,-253.073"/>
</g>
<!-- Node4 -->
<g id="node4" class="node"><title>Node4</title>
<g id="a_node4"><a xlink:href="classpdal_1_1PluginManager.html#a70e78b2649f28e266ec11b7a9e183af9" target="_top" xlink:title="pdal::PluginManager\l::createObject">
<polygon fill="white" stroke="black" points="483.5,-164.5 483.5,-194.5 588.5,-194.5 588.5,-164.5 483.5,-164.5"/>
<text text-anchor="start" x="491.5" y="-182.5" font-family="Helvetica,sans-Serif" font-size="10.00">pdal::PluginManager</text>
<text text-anchor="middle" x="536" y="-171.5" font-family="Helvetica,sans-Serif" font-size="10.00">::createObject</text>
</a>
</g>
</g>
<!-- Node3&#45;&gt;Node4 -->
<g id="edge3" class="edge"><title>Node3&#45;&gt;Node4</title>
<path fill="none" stroke="midnightblue" d="M416.752,-179.5C434.379,-179.5 454.521,-179.5 473.125,-179.5"/>
<polygon fill="midnightblue" stroke="midnightblue" points="473.276,-183 483.276,-179.5 473.276,-176 473.276,-183"/>
</g>
<!-- Node5 -->
<g id="node5" class="node"><title>Node5</title>
<g id="a_node5"><a xlink:href="classpdal_1_1PluginManager.html#a1d74a4219bdf2592c026084e0aa3809a" target="_top" xlink:title="pdal::PluginManager\l::l_createObject">
<polygon fill="white" stroke="black" points="636,-164.5 636,-194.5 741,-194.5 741,-164.5 636,-164.5"/>
<text text-anchor="start" x="644" y="-182.5" font-family="Helvetica,sans-Serif" font-size="10.00">pdal::PluginManager</text>
<text text-anchor="middle" x="688.5" y="-171.5" font-family="Helvetica,sans-Serif" font-size="10.00">::l_createObject</text>
</a>
</g>
</g>
<!-- Node4&#45;&gt;Node5 -->
<g id="edge4" class="edge"><title>Node4&#45;&gt;Node5</title>
<path fill="none" stroke="midnightblue" d="M588.794,-179.5C600.684,-179.5 613.443,-179.5 625.709,-179.5"/>
<polygon fill="midnightblue" stroke="midnightblue" points="625.866,-183 635.866,-179.5 625.866,-176 625.866,-183"/>
</g>
<!-- Node6 -->
<g id="node6" class="node"><title>Node6</title>
<g id="a_node6"><a xlink:href="classpdal_1_1PluginManager.html#a4b104d8173aec62bcd3745ddee7aa3d5" target="_top" xlink:title="pdal::PluginManager\l::guessLoadByPath">
<polygon fill="white" stroke="black" points="777,-164.5 777,-194.5 882,-194.5 882,-164.5 777,-164.5"/>
<text text-anchor="start" x="785" y="-182.5" font-family="Helvetica,sans-Serif" font-size="10.00">pdal::PluginManager</text>
<text text-anchor="middle" x="829.5" y="-171.5" font-family="Helvetica,sans-Serif" font-size="10.00">::guessLoadByPath</text>
</a>
</g>
</g>
<!-- Node5&#45;&gt;Node6 -->
<g id="edge5" class="edge"><title>Node5&#45;&gt;Node6</title>
<path fill="none" stroke="midnightblue" d="M741.258,-179.5C749.49,-179.5 758.077,-179.5 766.514,-179.5"/>
<polygon fill="midnightblue" stroke="midnightblue" points="766.698,-183 776.698,-179.5 766.698,-176 766.698,-183"/>
</g>
<!-- Node7 -->
<g id="node7" class="node"><title>Node7</title>
<g id="a_node7"><a xlink:href="namespacepdal_1_1Utils.html#a6ae33c6d7b4eb4bcae6ec17fb8cc04fc" target="_top" xlink:title="pdal::Utils::split2">
<polygon fill="white" stroke="black" points="1198,-546 1198,-565 1288,-565 1288,-546 1198,-546"/>
<text text-anchor="middle" x="1243" y="-553" font-family="Helvetica,sans-Serif" font-size="10.00">pdal::Utils::split2</text>
</a>
</g>
</g>
<!-- Node6&#45;&gt;Node7 -->
<g id="edge6" class="edge"><title>Node6&#45;&gt;Node7</title>
<path fill="none" stroke="midnightblue" d="M832.279,-194.823C839.511,-254.337 868.693,-469.001 918,-512.5 992.523,-578.244 1116.72,-574.159 1187.75,-565.018"/>
<polygon fill="midnightblue" stroke="midnightblue" points="1188.39,-568.463 1197.83,-563.641 1187.45,-561.527 1188.39,-568.463"/>
</g>
<!-- Node8 -->
<g id="node8" class="node"><title>Node8</title>
<g id="a_node8"><a xlink:href="namespacepdal_1_1anonymous__namespace_02PluginManager_8cpp_03.html#a1fdbb485623dfdef1f484e665ffe43fe" target="_top" xlink:title="pdal::anonymous_namespace\l\{PluginManager::cpp\}::pluginSearchPaths">
<polygon fill="white" stroke="black" points="918,-472.5 918,-502.5 1115,-502.5 1115,-472.5 918,-472.5"/>
<text text-anchor="start" x="926" y="-490.5" font-family="Helvetica,sans-Serif" font-size="10.00">pdal::anonymous_namespace</text>
<text text-anchor="middle" x="1016.5" y="-479.5" font-family="Helvetica,sans-Serif" font-size="10.00">{PluginManager::cpp}::pluginSearchPaths</text>
</a>
</g>
</g>
<!-- Node6&#45;&gt;Node8 -->
<g id="edge7" class="edge"><title>Node6&#45;&gt;Node8</title>
<path fill="none" stroke="midnightblue" d="M839.674,-194.774C869.64,-244.664 964.801,-403.093 1001.17,-463.65"/>
<polygon fill="midnightblue" stroke="midnightblue" points="998.339,-465.727 1006.49,-472.497 1004.34,-462.123 998.339,-465.727"/>
</g>
<!-- Node11 -->
<g id="node11" class="node"><title>Node11</title>
<g id="a_node11"><a xlink:href="namespacepdal_1_1FileUtils.html#ae2b8f1ddc38b0033b685a0bde6106ba1" target="_top" xlink:title="pdal::FileUtils::fileExists">
<polygon fill="white" stroke="black" points="955,-132 955,-151 1078,-151 1078,-132 955,-132"/>
<text text-anchor="middle" x="1016.5" y="-139" font-family="Helvetica,sans-Serif" font-size="10.00">pdal::FileUtils::fileExists</text>
</a>
</g>
</g>
<!-- Node6&#45;&gt;Node11 -->
<g id="edge11" class="edge"><title>Node6&#45;&gt;Node11</title>
<path fill="none" stroke="midnightblue" d="M882.282,-168.064C894.016,-165.526 906.429,-162.883 918,-160.5 930.195,-157.988 943.267,-155.382 955.75,-152.934"/>
<polygon fill="midnightblue" stroke="midnightblue" points="956.464,-156.361 965.608,-151.01 955.122,-149.491 956.464,-156.361"/>
</g>
<!-- Node14 -->
<g id="node14" class="node"><title>Node14</title>
<g id="a_node14"><a xlink:href="namespacepdal_1_1FileUtils.html#acfbe324737d031ab2650a56c6d50c776" target="_top" xlink:title="pdal::FileUtils::isDirectory">
<polygon fill="white" stroke="black" points="951.5,-94 951.5,-113 1081.5,-113 1081.5,-94 951.5,-94"/>
<text text-anchor="middle" x="1016.5" y="-101" font-family="Helvetica,sans-Serif" font-size="10.00">pdal::FileUtils::isDirectory</text>
</a>
</g>
</g>
<!-- Node6&#45;&gt;Node14 -->
<g id="edge14" class="edge"><title>Node6&#45;&gt;Node14</title>
<path fill="none" stroke="midnightblue" d="M849.11,-164.302C866.058,-151.241 892.291,-132.915 918,-122.5 925.443,-119.485 933.404,-116.938 941.449,-114.788"/>
<polygon fill="midnightblue" stroke="midnightblue" points="942.406,-118.157 951.274,-112.359 940.726,-111.362 942.406,-118.157"/>
</g>
<!-- Node15 -->
<g id="node15" class="node"><title>Node15</title>
<g id="a_node15"><a xlink:href="namespacepdal_1_1FileUtils.html#af4165597419cf00a2ff9cea447ea6c33" target="_top" xlink:title="pdal::FileUtils::directoryList">
<polygon fill="white" stroke="black" points="948.5,-56 948.5,-75 1084.5,-75 1084.5,-56 948.5,-56"/>
<text text-anchor="middle" x="1016.5" y="-63" font-family="Helvetica,sans-Serif" font-size="10.00">pdal::FileUtils::directoryList</text>
</a>
</g>
</g>
<!-- Node6&#45;&gt;Node15 -->
<g id="edge15" class="edge"><title>Node6&#45;&gt;Node15</title>
<path fill="none" stroke="midnightblue" d="M839.976,-164.199C854.142,-142.722 882.96,-104.075 918,-84.5 924.417,-80.9149 931.401,-77.9969 938.584,-75.6233"/>
<polygon fill="midnightblue" stroke="midnightblue" points="939.864,-78.8949 948.468,-72.7124 937.887,-72.18 939.864,-78.8949"/>
</g>
<!-- Node16 -->
<g id="node16" class="node"><title>Node16</title>
<g id="a_node16"><a xlink:href="namespacepdal_1_1FileUtils.html#ae3c153961947c766ab18099f7ef71fc1" target="_top" xlink:title="pdal::FileUtils::extension">
<polygon fill="white" stroke="black" points="954,-18 954,-37 1079,-37 1079,-18 954,-18"/>
<text text-anchor="middle" x="1016.5" y="-25" font-family="Helvetica,sans-Serif" font-size="10.00">pdal::FileUtils::extension</text>
</a>
</g>
</g>
<!-- Node6&#45;&gt;Node16 -->
<g id="edge16" class="edge"><title>Node6&#45;&gt;Node16</title>
<path fill="none" stroke="midnightblue" d="M835.908,-164.26C846.743,-136.09 873.924,-76.0544 918,-46.5 925.867,-41.2251 934.846,-37.339 944.097,-34.4886"/>
<polygon fill="midnightblue" stroke="midnightblue" points="945.055,-37.8556 953.802,-31.8784 943.236,-31.0959 945.055,-37.8556"/>
</g>
<!-- Node17 -->
<g id="node17" class="node"><title>Node17</title>
<g id="a_node17"><a xlink:href="namespacepdal_1_1FileUtils.html#a3bdadae2f0ef6896942c02e9a9c81e00" target="_top" xlink:title="pdal::FileUtils::stem">
<polygon fill="white" stroke="black" points="964.5,-208 964.5,-227 1068.5,-227 1068.5,-208 964.5,-208"/>
<text text-anchor="middle" x="1016.5" y="-215" font-family="Helvetica,sans-Serif" font-size="10.00">pdal::FileUtils::stem</text>
</a>
</g>
</g>
<!-- Node6&#45;&gt;Node17 -->
<g id="edge17" class="edge"><title>Node6&#45;&gt;Node17</title>
<path fill="none" stroke="midnightblue" d="M882.282,-190.936C894.016,-193.474 906.429,-196.117 918,-198.5 930.195,-201.012 943.267,-203.618 955.75,-206.066"/>
<polygon fill="midnightblue" stroke="midnightblue" points="955.122,-209.509 965.608,-207.99 956.464,-202.639 955.122,-209.509"/>
</g>
<!-- Node19 -->
<g id="node19" class="node"><title>Node19</title>
<g id="a_node19"><a xlink:href="namespacepdal_1_1Dimension.html#a880d689fed54aa3ded6f88c9e058c5d2" target="_top" xlink:title="pdal::Dimension::type">
<polygon fill="white" stroke="black" points="960.5,-170 960.5,-189 1072.5,-189 1072.5,-170 960.5,-170"/>
<text text-anchor="middle" x="1016.5" y="-177" font-family="Helvetica,sans-Serif" font-size="10.00">pdal::Dimension::type</text>
</a>
</g>
</g>
<!-- Node6&#45;&gt;Node19 -->
<g id="edge19" class="edge"><title>Node6&#45;&gt;Node19</title>
<path fill="none" stroke="midnightblue" d="M882.033,-179.5C903.172,-179.5 927.888,-179.5 950.266,-179.5"/>
<polygon fill="midnightblue" stroke="midnightblue" points="950.362,-183 960.362,-179.5 950.362,-176 950.362,-183"/>
</g>
<!-- Node21 -->
<g id="node21" class="node"><title>Node21</title>
<g id="a_node21"><a xlink:href="classpdal_1_1PluginManager.html#a3344bf0a8d35b309b26cb23ae5fa3579" target="_top" xlink:title="pdal::PluginManager\l::loadByPath">
<polygon fill="white" stroke="black" points="964,-258.5 964,-288.5 1069,-288.5 1069,-258.5 964,-258.5"/>
<text text-anchor="start" x="972" y="-276.5" font-family="Helvetica,sans-Serif" font-size="10.00">pdal::PluginManager</text>
<text text-anchor="middle" x="1016.5" y="-265.5" font-family="Helvetica,sans-Serif" font-size="10.00">::loadByPath</text>
</a>
</g>
</g>
<!-- Node6&#45;&gt;Node21 -->
<g id="edge21" class="edge"><title>Node6&#45;&gt;Node21</title>
<path fill="none" stroke="midnightblue" d="M850.958,-194.637C868.226,-206.963 893.916,-224.265 918,-236.5 931.246,-243.229 946.019,-249.446 959.978,-254.788"/>
<polygon fill="midnightblue" stroke="midnightblue" points="958.891,-258.118 969.484,-258.342 961.342,-251.561 958.891,-258.118"/>
</g>
<!-- Node8&#45;&gt;Node7 -->
<g id="edge9" class="edge"><title>Node8&#45;&gt;Node7</title>
<path fill="none" stroke="midnightblue" d="M1054.14,-502.593C1080.7,-513.126 1117.65,-526.954 1151,-536.5 1162.76,-539.866 1175.53,-542.904 1187.68,-545.513"/>
<polygon fill="midnightblue" stroke="midnightblue" points="1187.21,-548.989 1197.71,-547.602 1188.64,-542.137 1187.21,-548.989"/>
</g>
<!-- Node9 -->
<g id="node9" class="node"><title>Node9</title>
<g id="a_node9"><a xlink:href="namespacepdal_1_1Utils.html#a280847d8a85057a3cfe513abec5c6527" target="_top" xlink:title="pdal::Utils::getenv">
<polygon fill="white" stroke="black" points="1195,-508 1195,-527 1291,-527 1291,-508 1195,-508"/>
<text text-anchor="middle" x="1243" y="-515" font-family="Helvetica,sans-Serif" font-size="10.00">pdal::Utils::getenv</text>
</a>
</g>
</g>
<!-- Node8&#45;&gt;Node9 -->
<g id="edge8" class="edge"><title>Node8&#45;&gt;Node9</title>
<path fill="none" stroke="midnightblue" d="M1115.32,-500.571C1139.08,-503.746 1163.72,-507.039 1184.88,-509.867"/>
<polygon fill="midnightblue" stroke="midnightblue" points="1184.59,-513.36 1194.97,-511.215 1185.52,-506.421 1184.59,-513.36"/>
</g>
<!-- Node10 -->
<g id="node10" class="node"><title>Node10</title>
<g id="a_node10"><a xlink:href="namespacepdal_1_1FileUtils.html#a538c47da3e98daa37d68b568ca849ac9" target="_top" xlink:title="pdal::FileUtils::toAbsolutePath">
<polygon fill="white" stroke="black" points="1371,-333 1371,-352 1520,-352 1520,-333 1371,-333"/>
<text text-anchor="middle" x="1445.5" y="-340" font-family="Helvetica,sans-Serif" font-size="10.00">pdal::FileUtils::toAbsolutePath</text>
</a>
</g>
</g>
<!-- Node8&#45;&gt;Node10 -->
<g id="edge10" class="edge"><title>Node8&#45;&gt;Node10</title>
<path fill="none" stroke="midnightblue" d="M1115.2,-490.405C1195.6,-490.801 1301.56,-486.101 1335,-460.5 1372.17,-432.038 1336.35,-392.983 1371,-361.5 1372.7,-359.952 1374.52,-358.526 1376.42,-357.214"/>
<polygon fill="midnightblue" stroke="midnightblue" points="1378.3,-360.168 1385.24,-352.157 1374.82,-354.096 1378.3,-360.168"/>
</g>
<!-- Node12 -->
<g id="node12" class="node"><title>Node12</title>
<g id="a_node12"><a xlink:href="namespacepdal_1_1anonymous__namespace_02FileUtils_8cpp_03.html#a813a530ad72d50f747643f1bb996cacf" target="_top" xlink:title="pdal::anonymous_namespace\l\{FileUtils::cpp\}::isStdin">
<polygon fill="white" stroke="black" points="1170,-108.5 1170,-138.5 1316,-138.5 1316,-108.5 1170,-108.5"/>
<text text-anchor="start" x="1178" y="-126.5" font-family="Helvetica,sans-Serif" font-size="10.00">pdal::anonymous_namespace</text>
<text text-anchor="middle" x="1243" y="-115.5" font-family="Helvetica,sans-Serif" font-size="10.00">{FileUtils::cpp}::isStdin</text>
</a>
</g>
</g>
<!-- Node11&#45;&gt;Node12 -->
<g id="edge12" class="edge"><title>Node11&#45;&gt;Node12</title>
<path fill="none" stroke="midnightblue" d="M1078.25,-136.629C1103.24,-134.626 1132.57,-132.274 1159.46,-130.118"/>
<polygon fill="midnightblue" stroke="midnightblue" points="1159.94,-133.591 1169.63,-129.303 1159.38,-126.613 1159.94,-133.591"/>
</g>
<!-- Node13 -->
<g id="node13" class="node"><title>Node13</title>
<g id="a_node13"><a xlink:href="namespacepdal_1_1Utils.html#a28e3e2faff94b20f9908e77bc54ed983" target="_top" xlink:title="pdal::Utils::toupper">
<polygon fill="white" stroke="black" points="1396,-114 1396,-133 1495,-133 1495,-114 1396,-114"/>
<text text-anchor="middle" x="1445.5" y="-121" font-family="Helvetica,sans-Serif" font-size="10.00">pdal::Utils::toupper</text>
</a>
</g>
</g>
<!-- Node12&#45;&gt;Node13 -->
<g id="edge13" class="edge"><title>Node12&#45;&gt;Node13</title>
<path fill="none" stroke="midnightblue" d="M1316.1,-123.5C1338.97,-123.5 1363.98,-123.5 1385.79,-123.5"/>
<polygon fill="midnightblue" stroke="midnightblue" points="1385.89,-127 1395.89,-123.5 1385.89,-120 1385.89,-127"/>
</g>
<!-- Node18 -->
<g id="node18" class="node"><title>Node18</title>
<g id="a_node18"><a xlink:href="namespacepdal_1_1FileUtils.html#a0d150fac3c099a0646763f1b862cac73" target="_top" xlink:title="pdal::FileUtils::getFilename">
<polygon fill="white" stroke="black" points="1175,-196 1175,-215 1311,-215 1311,-196 1175,-196"/>
<text text-anchor="middle" x="1243" y="-203" font-family="Helvetica,sans-Serif" font-size="10.00">pdal::FileUtils::getFilename</text>
</a>
</g>
</g>
<!-- Node17&#45;&gt;Node18 -->
<g id="edge18" class="edge"><title>Node17&#45;&gt;Node18</title>
<path fill="none" stroke="midnightblue" d="M1068.72,-214.762C1097.1,-213.245 1132.95,-211.329 1164.67,-209.633"/>
<polygon fill="midnightblue" stroke="midnightblue" points="1165.01,-213.12 1174.81,-209.091 1164.64,-206.13 1165.01,-213.12"/>
</g>
<!-- Node20 -->
<g id="node20" class="node"><title>Node20</title>
<g id="a_node20"><a xlink:href="namespacepdal_1_1Utils.html#a5268937cf695835e55392f752dc02cb2" target="_top" xlink:title="pdal::Utils::tolower">
<polygon fill="white" stroke="black" points="1194,-158 1194,-177 1292,-177 1292,-158 1194,-158"/>
<text text-anchor="middle" x="1243" y="-165" font-family="Helvetica,sans-Serif" font-size="10.00">pdal::Utils::tolower</text>
</a>
</g>
</g>
<!-- Node19&#45;&gt;Node20 -->
<g id="edge20" class="edge"><title>Node19&#45;&gt;Node20</title>
<path fill="none" stroke="midnightblue" d="M1072.71,-176.549C1106.36,-174.75 1149.32,-172.454 1183.55,-170.624"/>
<polygon fill="midnightblue" stroke="midnightblue" points="1184.07,-174.102 1193.87,-170.073 1183.7,-167.112 1184.07,-174.102"/>
</g>
<!-- Node21&#45;&gt;Node10 -->
<g id="edge29" class="edge"><title>Node21&#45;&gt;Node10</title>
<path fill="none" stroke="midnightblue" d="M1050.46,-288.589C1077.02,-300.006 1115.62,-314.963 1151,-322.5 1220.65,-337.339 1301.5,-341.946 1360.68,-343.066"/>
<polygon fill="midnightblue" stroke="midnightblue" points="1360.68,-346.566 1370.73,-343.226 1360.79,-339.567 1360.68,-346.566"/>
</g>
<!-- Node21&#45;&gt;Node18 -->
<g id="edge23" class="edge"><title>Node21&#45;&gt;Node18</title>
<path fill="none" stroke="midnightblue" d="M1056.44,-258.489C1088.99,-246.077 1132.9,-229.681 1151,-224.5 1160.21,-221.863 1170.05,-219.427 1179.72,-217.241"/>
<polygon fill="midnightblue" stroke="midnightblue" points="1180.69,-220.612 1189.71,-215.055 1179.19,-213.774 1180.69,-220.612"/>
</g>
<!-- Node21&#45;&gt;Node20 -->
<g id="edge22" class="edge"><title>Node21&#45;&gt;Node20</title>
<path fill="none" stroke="midnightblue" d="M1069.25,-260.162C1084.95,-254.522 1101.57,-246.808 1115,-236.5 1136.72,-219.825 1128.04,-201.422 1151,-186.5 1160.73,-180.174 1172.18,-175.903 1183.61,-173.031"/>
<polygon fill="midnightblue" stroke="midnightblue" points="1184.58,-176.402 1193.61,-170.852 1183.09,-169.562 1184.58,-176.402"/>
</g>
<!-- Node22 -->
<g id="node22" class="node"><title>Node22</title>
<g id="a_node22"><a xlink:href="namespacepdal_1_1anonymous__namespace_02PluginManager_8cpp_03.html#a96b6f972ce14621acdc2ef6579cab857" target="_top" xlink:title="pdal::anonymous_namespace\l\{PluginManager::cpp\}::pluginTypeValid">
<polygon fill="white" stroke="black" points="1151,-420.5 1151,-450.5 1335,-450.5 1335,-420.5 1151,-420.5"/>
<text text-anchor="start" x="1159" y="-438.5" font-family="Helvetica,sans-Serif" font-size="10.00">pdal::anonymous_namespace</text>
<text text-anchor="middle" x="1243" y="-427.5" font-family="Helvetica,sans-Serif" font-size="10.00">{PluginManager::cpp}::pluginTypeValid</text>
</a>
</g>
</g>
<!-- Node21&#45;&gt;Node22 -->
<g id="edge24" class="edge"><title>Node21&#45;&gt;Node22</title>
<path fill="none" stroke="midnightblue" d="M1028.06,-288.829C1048.45,-317.232 1096.09,-378.089 1151,-410.5 1154.65,-412.655 1158.49,-414.63 1162.45,-416.439"/>
<polygon fill="midnightblue" stroke="midnightblue" points="1161.28,-419.744 1171.86,-420.365 1163.98,-413.284 1161.28,-419.744"/>
</g>
<!-- Node24 -->
<g id="node24" class="node"><title>Node24</title>
<g id="a_node24"><a xlink:href="classpdal_1_1PluginManager.html#a05f55dd74e4883b9a8bca6ebbadda5bd" target="_top" xlink:title="pdal::PluginManager\l::libraryLoaded">
<polygon fill="white" stroke="black" points="1190.5,-283.5 1190.5,-313.5 1295.5,-313.5 1295.5,-283.5 1190.5,-283.5"/>
<text text-anchor="start" x="1198.5" y="-301.5" font-family="Helvetica,sans-Serif" font-size="10.00">pdal::PluginManager</text>
<text text-anchor="middle" x="1243" y="-290.5" font-family="Helvetica,sans-Serif" font-size="10.00">::libraryLoaded</text>
</a>
</g>
</g>
<!-- Node21&#45;&gt;Node24 -->
<g id="edge26" class="edge"><title>Node21&#45;&gt;Node24</title>
<path fill="none" stroke="midnightblue" d="M1069,-279.236C1102.11,-282.922 1145.31,-287.733 1180.26,-291.624"/>
<polygon fill="midnightblue" stroke="midnightblue" points="1180.02,-295.12 1190.35,-292.748 1180.8,-288.163 1180.02,-295.12"/>
</g>
<!-- Node26 -->
<g id="node26" class="node"><title>Node26</title>
<g id="a_node26"><a xlink:href="classpdal_1_1PluginManager.html#a37dc2ebab8261695d3d42038046cd5e4" target="_top" xlink:title="pdal::PluginManager\l::loadLibrary">
<polygon fill="white" stroke="black" points="1190.5,-371.5 1190.5,-401.5 1295.5,-401.5 1295.5,-371.5 1190.5,-371.5"/>
<text text-anchor="start" x="1198.5" y="-389.5" font-family="Helvetica,sans-Serif" font-size="10.00">pdal::PluginManager</text>
<text text-anchor="middle" x="1243" y="-378.5" font-family="Helvetica,sans-Serif" font-size="10.00">::loadLibrary</text>
</a>
</g>
</g>
<!-- Node21&#45;&gt;Node26 -->
<g id="edge30" class="edge"><title>Node21&#45;&gt;Node26</title>
<path fill="none" stroke="midnightblue" d="M1038.35,-288.655C1063.89,-306.696 1108.97,-336.85 1151,-356.5 1160.36,-360.878 1170.54,-364.898 1180.59,-368.477"/>
<polygon fill="midnightblue" stroke="midnightblue" points="1179.56,-371.823 1190.15,-371.769 1181.84,-365.204 1179.56,-371.823"/>
</g>
<!-- Node29 -->
<g id="node29" class="node"><title>Node29</title>
<g id="a_node29"><a xlink:href="classpdal_1_1PluginManager.html#ae9e94964092e0fdb6be63484e5e69e9f" target="_top" xlink:title="pdal::PluginManager\l::initializePlugin">
<polygon fill="white" stroke="black" points="1190.5,-234.5 1190.5,-264.5 1295.5,-264.5 1295.5,-234.5 1190.5,-234.5"/>
<text text-anchor="start" x="1198.5" y="-252.5" font-family="Helvetica,sans-Serif" font-size="10.00">pdal::PluginManager</text>
<text text-anchor="middle" x="1243" y="-241.5" font-family="Helvetica,sans-Serif" font-size="10.00">::initializePlugin</text>
</a>
</g>
</g>
<!-- Node21&#45;&gt;Node29 -->
<g id="edge34" class="edge"><title>Node21&#45;&gt;Node29</title>
<path fill="none" stroke="midnightblue" d="M1069,-267.994C1102.11,-264.455 1145.31,-259.837 1180.26,-256.101"/>
<polygon fill="midnightblue" stroke="midnightblue" points="1180.78,-259.565 1190.35,-255.022 1180.03,-252.605 1180.78,-259.565"/>
</g>
<!-- Node23 -->
<g id="node23" class="node"><title>Node23</title>
<g id="a_node23"><a xlink:href="namespacepdal_1_1Utils.html#a28e27948fb8a4c1d958783d8a53bd784" target="_top" xlink:title="pdal::Utils::startsWith">
<polygon fill="white" stroke="black" points="1389.5,-426 1389.5,-445 1501.5,-445 1501.5,-426 1389.5,-426"/>
<text text-anchor="middle" x="1445.5" y="-433" font-family="Helvetica,sans-Serif" font-size="10.00">pdal::Utils::startsWith</text>
</a>
</g>
</g>
<!-- Node22&#45;&gt;Node23 -->
<g id="edge25" class="edge"><title>Node22&#45;&gt;Node23</title>
<path fill="none" stroke="midnightblue" d="M1335.16,-435.5C1350.06,-435.5 1365.23,-435.5 1379.34,-435.5"/>
<polygon fill="midnightblue" stroke="midnightblue" points="1379.4,-439 1389.4,-435.5 1379.4,-432 1379.4,-439"/>
</g>
<!-- Node24&#45;&gt;Node10 -->
<g id="edge27" class="edge"><title>Node24&#45;&gt;Node10</title>
<path fill="none" stroke="midnightblue" d="M1295.63,-309.831C1324.9,-316.254 1361.47,-324.278 1391.03,-330.767"/>
<polygon fill="midnightblue" stroke="midnightblue" points="1390.66,-334.268 1401.18,-332.992 1392.16,-327.43 1390.66,-334.268"/>
</g>
<!-- Node25 -->
<g id="node25" class="node"><title>Node25</title>
<g id="a_node25"><a xlink:href="namespacepdal_1_1Utils.html#a3e140e4c0c21d020c56c0b8d58b8cb5b" target="_top" xlink:title="pdal::Utils::contains">
<polygon fill="white" stroke="black" points="1393.5,-289 1393.5,-308 1497.5,-308 1497.5,-289 1393.5,-289"/>
<text text-anchor="middle" x="1445.5" y="-296" font-family="Helvetica,sans-Serif" font-size="10.00">pdal::Utils::contains</text>
</a>
</g>
</g>
<!-- Node24&#45;&gt;Node25 -->
<g id="edge28" class="edge"><title>Node24&#45;&gt;Node25</title>
<path fill="none" stroke="midnightblue" d="M1295.63,-298.5C1322.4,-298.5 1355.26,-298.5 1383.3,-298.5"/>
<polygon fill="midnightblue" stroke="midnightblue" points="1383.39,-302 1393.39,-298.5 1383.39,-295 1383.39,-302"/>
</g>
<!-- Node26&#45;&gt;Node10 -->
<g id="edge33" class="edge"><title>Node26&#45;&gt;Node10</title>
<path fill="none" stroke="midnightblue" d="M1295.63,-375.169C1324.9,-368.746 1361.47,-360.722 1391.03,-354.233"/>
<polygon fill="midnightblue" stroke="midnightblue" points="1392.16,-357.57 1401.18,-352.008 1390.66,-350.732 1392.16,-357.57"/>
</g>
<!-- Node27 -->
<g id="node27" class="node"><title>Node27</title>
<g id="a_node27"><a xlink:href="classpdal_1_1DynamicLibrary.html#afa96ce1595f15fb125e13c827902f030" target="_top" xlink:title="pdal::DynamicLibrary\l::load">
<polygon fill="white" stroke="black" points="1391,-371.5 1391,-401.5 1500,-401.5 1500,-371.5 1391,-371.5"/>
<text text-anchor="start" x="1399" y="-389.5" font-family="Helvetica,sans-Serif" font-size="10.00">pdal::DynamicLibrary</text>
<text text-anchor="middle" x="1445.5" y="-378.5" font-family="Helvetica,sans-Serif" font-size="10.00">::load</text>
</a>
</g>
</g>
<!-- Node26&#45;&gt;Node27 -->
<g id="edge31" class="edge"><title>Node26&#45;&gt;Node27</title>
<path fill="none" stroke="midnightblue" d="M1295.63,-386.5C1321.56,-386.5 1353.21,-386.5 1380.65,-386.5"/>
<polygon fill="midnightblue" stroke="midnightblue" points="1380.94,-390 1390.94,-386.5 1380.94,-383 1380.94,-390"/>
</g>
<!-- Node28 -->
<g id="node28" class="node"><title>Node28</title>
<g id="a_node28"><a xlink:href="classpdal_1_1DynamicLibrary.html#a48b54a6222a25732cc80500f52f3e618" target="_top" xlink:title="pdal::DynamicLibrary\l::DynamicLibrary">
<polygon fill="white" stroke="black" points="1556,-371.5 1556,-401.5 1665,-401.5 1665,-371.5 1556,-371.5"/>
<text text-anchor="start" x="1564" y="-389.5" font-family="Helvetica,sans-Serif" font-size="10.00">pdal::DynamicLibrary</text>
<text text-anchor="middle" x="1610.5" y="-378.5" font-family="Helvetica,sans-Serif" font-size="10.00">::DynamicLibrary</text>
</a>
</g>
</g>
<!-- Node27&#45;&gt;Node28 -->
<g id="edge32" class="edge"><title>Node27&#45;&gt;Node28</title>
<path fill="none" stroke="midnightblue" d="M1500.32,-386.5C1514.79,-386.5 1530.58,-386.5 1545.53,-386.5"/>
<polygon fill="midnightblue" stroke="midnightblue" points="1545.73,-390 1555.73,-386.5 1545.73,-383 1545.73,-390"/>
</g>
<!-- Node30 -->
<g id="node30" class="node"><title>Node30</title>
<g id="a_node30"><a xlink:href="classpdal_1_1PluginManager.html#a8a847508c24b6a254ae8eaba06c0069a" target="_top" xlink:title="pdal::PluginManager\l::l_initializePlugin">
<polygon fill="white" stroke="black" points="1393,-234.5 1393,-264.5 1498,-264.5 1498,-234.5 1393,-234.5"/>
<text text-anchor="start" x="1401" y="-252.5" font-family="Helvetica,sans-Serif" font-size="10.00">pdal::PluginManager</text>
<text text-anchor="middle" x="1445.5" y="-241.5" font-family="Helvetica,sans-Serif" font-size="10.00">::l_initializePlugin</text>
</a>
</g>
</g>
<!-- Node29&#45;&gt;Node30 -->
<g id="edge35" class="edge"><title>Node29&#45;&gt;Node30</title>
<path fill="none" stroke="midnightblue" d="M1295.63,-249.5C1322.19,-249.5 1354.76,-249.5 1382.65,-249.5"/>
<polygon fill="midnightblue" stroke="midnightblue" points="1382.69,-253 1392.69,-249.5 1382.69,-246 1382.69,-253"/>
</g>
<!-- Node32 -->
<g id="node32" class="node"><title>Node32</title>
<g id="a_node32"><a xlink:href="namespacehag.html#acad63bbd5fdda01bf56ff6aae70a0192" target="_top" xlink:title="hag.read">
<polygon fill="white" stroke="black" points="509,-309 509,-328 563,-328 563,-309 509,-309"/>
<text text-anchor="middle" x="536" y="-316" font-family="Helvetica,sans-Serif" font-size="10.00">hag.read</text>
</a>
</g>
</g>
<!-- Node31&#45;&gt;Node32 -->
<g id="edge37" class="edge"><title>Node31&#45;&gt;Node32</title>
<path fill="none" stroke="midnightblue" d="M394.094,-302.469C422.199,-305.666 467.121,-310.777 498.671,-314.367"/>
<polygon fill="midnightblue" stroke="midnightblue" points="498.483,-317.868 508.814,-315.521 499.274,-310.913 498.483,-317.868"/>
</g>
<!-- Node33 -->
<g id="node33" class="node"><title>Node33</title>
<g id="a_node33"><a xlink:href="namespacehag.html#aee422d0ebdb1730554711d82498e54c3" target="_top" xlink:title="hag.wakeup">
<polygon fill="white" stroke="black" points="501.5,-271 501.5,-290 570.5,-290 570.5,-271 501.5,-271"/>
<text text-anchor="middle" x="536" y="-278" font-family="Helvetica,sans-Serif" font-size="10.00">hag.wakeup</text>
</a>
</g>
</g>
<!-- Node31&#45;&gt;Node33 -->
<g id="edge38" class="edge"><title>Node31&#45;&gt;Node33</title>
<path fill="none" stroke="midnightblue" d="M394.094,-296.531C420.056,-293.577 460.368,-288.991 491.234,-285.479"/>
<polygon fill="midnightblue" stroke="midnightblue" points="491.765,-288.942 501.306,-284.333 490.974,-281.986 491.765,-288.942"/>
</g>
<!-- Node38 -->
<g id="node38" class="node"><title>Node38</title>
<g id="a_node38"><a xlink:href="classpdal_1_1Stage.html#acb2434df20f371f1fec9577de3cf0046" target="_top" xlink:title="pdal::Stage::setOptions">
<polygon fill="white" stroke="black" points="307.5,-126 307.5,-145 426.5,-145 426.5,-126 307.5,-126"/>
<text text-anchor="middle" x="367" y="-133" font-family="Helvetica,sans-Serif" font-size="10.00">pdal::Stage::setOptions</text>
</a>
</g>
</g>
<!-- Node37&#45;&gt;Node38 -->
<g id="edge44" class="edge"><title>Node37&#45;&gt;Node38</title>
<path fill="none" stroke="midnightblue" d="M262.285,-116.643C275.6,-119.064 289.898,-121.663 303.494,-124.135"/>
<polygon fill="midnightblue" stroke="midnightblue" points="303.261,-127.65 313.725,-125.996 304.513,-120.763 303.261,-127.65"/>
</g>
<!-- Node39 -->
<g id="node39" class="node"><title>Node39</title>
<g id="a_node39"><a xlink:href="classpdal_1_1Stage.html#ab1fa73224209557248ed896eae7a1f4d" target="_top" xlink:title="pdal::Stage::removeOptions">
<polygon fill="white" stroke="black" points="298,-88 298,-107 436,-107 436,-88 298,-88"/>
<text text-anchor="middle" x="367" y="-95" font-family="Helvetica,sans-Serif" font-size="10.00">pdal::Stage::removeOptions</text>
</a>
</g>
</g>
<!-- Node37&#45;&gt;Node39 -->
<g id="edge45" class="edge"><title>Node37&#45;&gt;Node39</title>
<path fill="none" stroke="midnightblue" d="M262.285,-103.352C270.55,-102.886 279.193,-102.398 287.812,-101.912"/>
<polygon fill="midnightblue" stroke="midnightblue" points="288.108,-105.401 297.895,-101.343 287.714,-98.4119 288.108,-105.401"/>
</g>
<!-- Node41 -->
<g id="node41" class="node"><title>Node41</title>
<g id="a_node41"><a xlink:href="classpdal_1_1Stage.html#ace3043bc318e31d6d88a296c0a8cf62b" target="_top" xlink:title="pdal::Stage::addOptions">
<polygon fill="white" stroke="black" points="306,-50 306,-69 428,-69 428,-50 306,-50"/>
<text text-anchor="middle" x="367" y="-57" font-family="Helvetica,sans-Serif" font-size="10.00">pdal::Stage::addOptions</text>
</a>
</g>
</g>
<!-- Node37&#45;&gt;Node41 -->
<g id="edge47" class="edge"><title>Node37&#45;&gt;Node41</title>
<path fill="none" stroke="midnightblue" d="M254.87,-91.4563C268.773,-87.198 283.969,-82.6062 298,-78.5 305.61,-76.2728 313.716,-73.9581 321.581,-71.7422"/>
<polygon fill="midnightblue" stroke="midnightblue" points="322.675,-75.0706 331.36,-69.0023 320.786,-68.3301 322.675,-75.0706"/>
</g>
<!-- Node42 -->
<g id="node42" class="node"><title>Node42</title>
<g id="a_node42"><a xlink:href="classpdal_1_1PipelineManager.html#ace2121baba26bb17c43438584e7d2db2" target="_top" xlink:title="pdal::PipelineManager\l::stageOptions">
<polygon fill="white" stroke="black" points="310.5,-0.5 310.5,-30.5 423.5,-30.5 423.5,-0.5 310.5,-0.5"/>
<text text-anchor="start" x="318.5" y="-18.5" font-family="Helvetica,sans-Serif" font-size="10.00">pdal::PipelineManager</text>
<text text-anchor="middle" x="367" y="-7.5" font-family="Helvetica,sans-Serif" font-size="10.00">::stageOptions</text>
</a>
</g>
</g>
<!-- Node37&#45;&gt;Node42 -->
<g id="edge49" class="edge"><title>Node37&#45;&gt;Node42</title>
<path fill="none" stroke="midnightblue" d="M245.609,-91.4576C251.336,-88.5335 256.987,-85.2072 262,-81.5 281.498,-67.0817 278.003,-54.2179 298,-40.5 300.835,-38.5555 303.839,-36.7413 306.944,-35.0516"/>
<polygon fill="midnightblue" stroke="midnightblue" points="308.497,-38.1881 315.907,-30.6152 305.392,-31.9146 308.497,-38.1881"/>
</g>
<!-- Node40 -->
<g id="node40" class="node"><title>Node40</title>
<g id="a_node40"><a xlink:href="classpdal_1_1Options.html#a9db7862d4f1e54669fd88d8a0284c247" target="_top" xlink:title="pdal::Options::getOptions">
<polygon fill="white" stroke="black" points="472,-69 472,-88 600,-88 600,-69 472,-69"/>
<text text-anchor="middle" x="536" y="-76" font-family="Helvetica,sans-Serif" font-size="10.00">pdal::Options::getOptions</text>
</a>
</g>
</g>
<!-- Node39&#45;&gt;Node40 -->
<g id="edge46" class="edge"><title>Node39&#45;&gt;Node40</title>
<path fill="none" stroke="midnightblue" d="M436.407,-89.7172C444.732,-88.77 453.264,-87.7993 461.657,-86.8444"/>
<polygon fill="midnightblue" stroke="midnightblue" points="462.263,-90.2982 471.803,-85.6901 461.472,-83.343 462.263,-90.2982"/>
</g>
<!-- Node41&#45;&gt;Node40 -->
<g id="edge48" class="edge"><title>Node41&#45;&gt;Node40</title>
<path fill="none" stroke="midnightblue" d="M428.291,-66.3594C439.164,-67.5964 450.607,-68.8983 461.799,-70.1717"/>
<polygon fill="midnightblue" stroke="midnightblue" points="461.652,-73.6775 471.983,-71.3305 462.443,-66.7224 461.652,-73.6775"/>
</g>
</g>
</svg>
