<?xml version="1.0" encoding="UTF-8" standalone="no"?>
<!DOCTYPE svg PUBLIC "-//W3C//DTD SVG 1.1//EN"
 "http://www.w3.org/Graphics/SVG/1.1/DTD/svg11.dtd">
<!-- Generated by graphviz version 2.38.0 (20140413.2041)
 -->
<!-- Title: pdal::geos::ErrorHandler::get Pages: 1 -->
<svg width="466pt" height="88pt"
 viewBox="0.00 0.00 466.00 88.00" xmlns="http://www.w3.org/2000/svg" xmlns:xlink="http://www.w3.org/1999/xlink">
<g id="graph0" class="graph" transform="scale(1 1) rotate(0) translate(4 84)">
<title>pdal::geos::ErrorHandler::get</title>
<polygon fill="white" stroke="none" points="-4,4 -4,-84 462,-84 462,4 -4,4"/>
<!-- Node1 -->
<g id="node1" class="node"><title>Node1</title>
<polygon fill="#bfbfbf" stroke="black" points="0,-30 0,-49 142,-49 142,-30 0,-30"/>
<text text-anchor="middle" x="71" y="-37" font-family="Helvetica,sans-Serif" font-size="10.00">pdal::geos::ErrorHandler::get</text>
</g>
<!-- Node2 -->
<g id="node2" class="node"><title>Node2</title>
<g id="a_node2"><a xlink:href="classpdal_1_1geos_1_1ErrorHandler.html#a6750af06600dce4dbd7424e2b52f1cf7" target="_top" xlink:title="pdal::geos::ErrorHandler\l::vaErrorCb">
<polygon fill="white" stroke="black" points="178,-49.5 178,-79.5 300,-79.5 300,-49.5 178,-49.5"/>
<text text-anchor="start" x="186" y="-67.5" font-family="Helvetica,sans-Serif" font-size="10.00">pdal::geos::ErrorHandler</text>
<text text-anchor="middle" x="239" y="-56.5" font-family="Helvetica,sans-Serif" font-size="10.00">::vaErrorCb</text>
</a>
</g>
</g>
<!-- Node1&#45;&gt;Node2 -->
<g id="edge1" class="edge"><title>Node1&#45;&gt;Node2</title>
<path fill="none" stroke="midnightblue" d="M145.197,-50.5237C156.144,-52.1723 167.322,-53.8557 177.954,-55.4569"/>
<polygon fill="midnightblue" stroke="midnightblue" points="145.641,-47.0511 135.231,-49.0227 144.598,-53.973 145.641,-47.0511"/>
</g>
<!-- Node4 -->
<g id="node4" class="node"><title>Node4</title>
<g id="a_node4"><a xlink:href="classpdal_1_1geos_1_1ErrorHandler.html#ad2b603ddc34d8a888605907d241efc34" target="_top" xlink:title="pdal::geos::ErrorHandler\l::vaNoticeCb">
<polygon fill="white" stroke="black" points="178,-0.5 178,-30.5 300,-30.5 300,-0.5 178,-0.5"/>
<text text-anchor="start" x="186" y="-18.5" font-family="Helvetica,sans-Serif" font-size="10.00">pdal::geos::ErrorHandler</text>
<text text-anchor="middle" x="239" y="-7.5" font-family="Helvetica,sans-Serif" font-size="10.00">::vaNoticeCb</text>
</a>
</g>
</g>
<!-- Node1&#45;&gt;Node4 -->
<g id="edge3" class="edge"><title>Node1&#45;&gt;Node4</title>
<path fill="none" stroke="midnightblue" d="M148.006,-28.5112C157.994,-27.0672 168.118,-25.6034 177.794,-24.2045"/>
<polygon fill="midnightblue" stroke="midnightblue" points="147.481,-25.0506 138.085,-29.9456 148.483,-31.9786 147.481,-25.0506"/>
</g>
<!-- Node3 -->
<g id="node3" class="node"><title>Node3</title>
<g id="a_node3"><a xlink:href="classpdal_1_1geos_1_1ErrorHandler.html#a6317a7a181f6c2793eee6a5935d73507" target="_top" xlink:title="pdal::geos::ErrorHandler\l::ErrorHandler">
<polygon fill="white" stroke="black" points="336,-24.5 336,-54.5 458,-54.5 458,-24.5 336,-24.5"/>
<text text-anchor="start" x="344" y="-42.5" font-family="Helvetica,sans-Serif" font-size="10.00">pdal::geos::ErrorHandler</text>
<text text-anchor="middle" x="397" y="-31.5" font-family="Helvetica,sans-Serif" font-size="10.00">::ErrorHandler</text>
</a>
</g>
</g>
<!-- Node2&#45;&gt;Node3 -->
<g id="edge2" class="edge"><title>Node2&#45;&gt;Node3</title>
<path fill="none" stroke="midnightblue" d="M310.259,-53.2405C318.802,-51.8715 327.469,-50.4825 335.847,-49.1399"/>
<polygon fill="midnightblue" stroke="midnightblue" points="309.634,-49.796 300.314,-54.8343 310.742,-56.7078 309.634,-49.796"/>
</g>
<!-- Node4&#45;&gt;Node3 -->
<g id="edge4" class="edge"><title>Node4&#45;&gt;Node3</title>
<path fill="none" stroke="midnightblue" d="M310.259,-26.3091C318.802,-27.6234 327.469,-28.9568 335.847,-30.2457"/>
<polygon fill="midnightblue" stroke="midnightblue" points="310.73,-22.8404 300.314,-24.779 309.665,-29.759 310.73,-22.8404"/>
</g>
</g>
</svg>
