<?xml version="1.0" encoding="UTF-8" standalone="no"?>
<!DOCTYPE svg PUBLIC "-//W3C//DTD SVG 1.1//EN"
 "http://www.w3.org/Graphics/SVG/1.1/DTD/svg11.dtd">
<!-- Generated by graphviz version 2.38.0 (20140413.2041)
 -->
<!-- Title: pdal::GeoWaveWriter::ready Pages: 1 -->
<svg width="273pt" height="116pt"
 viewBox="0.00 0.00 273.00 115.50" xmlns="http://www.w3.org/2000/svg" xmlns:xlink="http://www.w3.org/1999/xlink">
<g id="graph0" class="graph" transform="scale(1 1) rotate(0) translate(4 111.5)">
<title>pdal::GeoWaveWriter::ready</title>
<polygon fill="white" stroke="none" points="-4,4 -4,-111.5 269,-111.5 269,4 -4,4"/>
<!-- Node1 -->
<g id="node1" class="node"><title>Node1</title>
<polygon fill="#bfbfbf" stroke="black" points="0,-44.5 0,-74.5 110,-74.5 110,-44.5 0,-44.5"/>
<text text-anchor="start" x="8" y="-62.5" font-family="Helvetica,sans-Serif" font-size="10.00">pdal::GeoWaveWriter</text>
<text text-anchor="middle" x="55" y="-51.5" font-family="Helvetica,sans-Serif" font-size="10.00">::ready</text>
</g>
<!-- Node2 -->
<g id="node2" class="node"><title>Node2</title>
<g id="a_node2"><a xlink:href="namespacepdal_1_1Utils.html#a3e140e4c0c21d020c56c0b8d58b8cb5b" target="_top" xlink:title="pdal::Utils::contains">
<polygon fill="white" stroke="black" points="153.5,-88 153.5,-107 257.5,-107 257.5,-88 153.5,-88"/>
<text text-anchor="middle" x="205.5" y="-95" font-family="Helvetica,sans-Serif" font-size="10.00">pdal::Utils::contains</text>
</a>
</g>
</g>
<!-- Node1&#45;&gt;Node2 -->
<g id="edge1" class="edge"><title>Node1&#45;&gt;Node2</title>
<path fill="none" stroke="midnightblue" d="M110.032,-73.3264C125.395,-77.2576 142.007,-81.5086 156.954,-85.3334"/>
<polygon fill="midnightblue" stroke="midnightblue" points="156.445,-88.8157 167,-87.9041 158.18,-82.0342 156.445,-88.8157"/>
</g>
<!-- Node3 -->
<g id="node3" class="node"><title>Node3</title>
<g id="a_node3"><a xlink:href="classpdal_1_1PointLayout.html#afd6b92bf6e8fc83993db132b1ed980e2" target="_top" xlink:title="pdal::PointLayout::dims">
<polygon fill="white" stroke="black" points="146,-50 146,-69 265,-69 265,-50 146,-50"/>
<text text-anchor="middle" x="205.5" y="-57" font-family="Helvetica,sans-Serif" font-size="10.00">pdal::PointLayout::dims</text>
</a>
</g>
</g>
<!-- Node1&#45;&gt;Node3 -->
<g id="edge2" class="edge"><title>Node1&#45;&gt;Node3</title>
<path fill="none" stroke="midnightblue" d="M110.032,-59.5C118.436,-59.5 127.215,-59.5 135.89,-59.5"/>
<polygon fill="midnightblue" stroke="midnightblue" points="135.998,-63.0001 145.998,-59.5 135.998,-56.0001 135.998,-63.0001"/>
</g>
<!-- Node4 -->
<g id="node4" class="node"><title>Node4</title>
<g id="a_node4"><a xlink:href="classpdal_1_1BasePointTable.html#a7e3a12a1f29e6cd10d8669ed3d07eb94" target="_top" xlink:title="pdal::BasePointTable\l::layout">
<polygon fill="white" stroke="black" points="150.5,-0.5 150.5,-30.5 260.5,-30.5 260.5,-0.5 150.5,-0.5"/>
<text text-anchor="start" x="158.5" y="-18.5" font-family="Helvetica,sans-Serif" font-size="10.00">pdal::BasePointTable</text>
<text text-anchor="middle" x="205.5" y="-7.5" font-family="Helvetica,sans-Serif" font-size="10.00">::layout</text>
</a>
</g>
</g>
<!-- Node1&#45;&gt;Node4 -->
<g id="edge3" class="edge"><title>Node1&#45;&gt;Node4</title>
<path fill="none" stroke="midnightblue" d="M106.69,-44.4808C118.69,-40.9252 131.606,-37.0982 143.993,-33.4279"/>
<polygon fill="midnightblue" stroke="midnightblue" points="145.193,-36.723 153.787,-30.5262 143.204,-30.0114 145.193,-36.723"/>
</g>
</g>
</svg>
