<?xml version="1.0" encoding="UTF-8" standalone="no"?>
<!DOCTYPE svg PUBLIC "-//W3C//DTD SVG 1.1//EN"
 "http://www.w3.org/Graphics/SVG/1.1/DTD/svg11.dtd">
<!-- Generated by graphviz version 2.38.0 (20140413.2041)
 -->
<!-- Title: pdal::Option::nameValid Pages: 1 -->
<svg width="425pt" height="85pt"
 viewBox="0.00 0.00 425.00 85.00" xmlns="http://www.w3.org/2000/svg" xmlns:xlink="http://www.w3.org/1999/xlink">
<g id="graph0" class="graph" transform="scale(1 1) rotate(0) translate(4 81)">
<title>pdal::Option::nameValid</title>
<polygon fill="white" stroke="none" points="-4,4 -4,-81 421,-81 421,4 -4,4"/>
<!-- Node1 -->
<g id="node1" class="node"><title>Node1</title>
<polygon fill="#bfbfbf" stroke="black" points="0,-19.5 0,-38.5 121,-38.5 121,-19.5 0,-19.5"/>
<text text-anchor="middle" x="60.5" y="-26.5" font-family="Helvetica,sans-Serif" font-size="10.00">pdal::Option::nameValid</text>
</g>
<!-- Node2 -->
<g id="node2" class="node"><title>Node2</title>
<g id="a_node2"><a xlink:href="classpdal_1_1Option.html#a978a36cf9180d3636ea770988961952b" target="_top" xlink:title="pdal::Option::parse">
<polygon fill="white" stroke="black" points="161,-38.5 161,-57.5 260,-57.5 260,-38.5 161,-38.5"/>
<text text-anchor="middle" x="210.5" y="-45.5" font-family="Helvetica,sans-Serif" font-size="10.00">pdal::Option::parse</text>
</a>
</g>
</g>
<!-- Node1&#45;&gt;Node2 -->
<g id="edge1" class="edge"><title>Node1&#45;&gt;Node2</title>
<path fill="none" stroke="midnightblue" d="M121.271,-36.6733C131.036,-37.9269 141.144,-39.2246 150.881,-40.4746"/>
<polygon fill="midnightblue" stroke="midnightblue" points="150.499,-43.9542 160.863,-41.7561 151.39,-37.0111 150.499,-43.9542"/>
</g>
<!-- Node5 -->
<g id="node5" class="node"><title>Node5</title>
<g id="a_node5"><a xlink:href="namespacepdal_1_1Utils.html#ada321695f57c876ef51227bdf5b84f7a" target="_top" xlink:title="pdal::Utils::printError">
<polygon fill="white" stroke="black" points="157,-0.5 157,-19.5 264,-19.5 264,-0.5 157,-0.5"/>
<text text-anchor="middle" x="210.5" y="-7.5" font-family="Helvetica,sans-Serif" font-size="10.00">pdal::Utils::printError</text>
</a>
</g>
</g>
<!-- Node1&#45;&gt;Node5 -->
<g id="edge4" class="edge"><title>Node1&#45;&gt;Node5</title>
<path fill="none" stroke="midnightblue" d="M121.271,-21.3267C129.598,-20.2577 138.175,-19.1566 146.558,-18.0804"/>
<polygon fill="midnightblue" stroke="midnightblue" points="147.185,-21.5287 156.658,-16.7838 146.294,-14.5857 147.185,-21.5287"/>
</g>
<!-- Node3 -->
<g id="node3" class="node"><title>Node3</title>
<g id="a_node3"><a xlink:href="namespacepdal_1_1Utils.html#acae5a19cd66121b77e2599daec48413d" target="_top" xlink:title="pdal::Utils::extract">
<polygon fill="white" stroke="black" points="310,-57.5 310,-76.5 407,-76.5 407,-57.5 310,-57.5"/>
<text text-anchor="middle" x="358.5" y="-64.5" font-family="Helvetica,sans-Serif" font-size="10.00">pdal::Utils::extract</text>
</a>
</g>
</g>
<!-- Node2&#45;&gt;Node3 -->
<g id="edge2" class="edge"><title>Node2&#45;&gt;Node3</title>
<path fill="none" stroke="midnightblue" d="M260.116,-54.3267C272.683,-55.9622 286.34,-57.7394 299.341,-59.4313"/>
<polygon fill="midnightblue" stroke="midnightblue" points="299.225,-62.9457 309.593,-60.7655 300.128,-56.0042 299.225,-62.9457"/>
</g>
<!-- Node4 -->
<g id="node4" class="node"><title>Node4</title>
<g id="a_node4"><a xlink:href="namespacepdal_1_1Dimension.html#af3176b0b7e6b4be000317846cf7c2718" target="_top" xlink:title="pdal::Dimension::name">
<polygon fill="white" stroke="black" points="300,-19.5 300,-38.5 417,-38.5 417,-19.5 300,-19.5"/>
<text text-anchor="middle" x="358.5" y="-26.5" font-family="Helvetica,sans-Serif" font-size="10.00">pdal::Dimension::name</text>
</a>
</g>
</g>
<!-- Node2&#45;&gt;Node4 -->
<g id="edge3" class="edge"><title>Node2&#45;&gt;Node4</title>
<path fill="none" stroke="midnightblue" d="M260.116,-41.6733C269.697,-40.4264 279.911,-39.0972 289.985,-37.7862"/>
<polygon fill="midnightblue" stroke="midnightblue" points="290.519,-41.2463 299.984,-36.485 289.616,-34.3049 290.519,-41.2463"/>
</g>
</g>
</svg>
