<?xml version="1.0" encoding="UTF-8" standalone="no"?>
<!DOCTYPE svg PUBLIC "-//W3C//DTD SVG 1.1//EN"
 "http://www.w3.org/Graphics/SVG/1.1/DTD/svg11.dtd">
<!-- Generated by graphviz version 2.38.0 (20140413.2041)
 -->
<!-- Title: pdal::TranslateKernel::makeArgPipeline Pages: 1 -->
<svg width="371pt" height="233pt"
 viewBox="0.00 0.00 371.00 233.00" xmlns="http://www.w3.org/2000/svg" xmlns:xlink="http://www.w3.org/1999/xlink">
<g id="graph0" class="graph" transform="scale(1 1) rotate(0) translate(4 229)">
<title>pdal::TranslateKernel::makeArgPipeline</title>
<polygon fill="white" stroke="none" points="-4,4 -4,-229 367,-229 367,4 -4,4"/>
<!-- Node1 -->
<g id="node1" class="node"><title>Node1</title>
<polygon fill="#bfbfbf" stroke="black" points="0,-88 0,-118 109,-118 109,-88 0,-88"/>
<text text-anchor="start" x="8" y="-106" font-family="Helvetica,sans-Serif" font-size="10.00">pdal::TranslateKernel</text>
<text text-anchor="middle" x="54.5" y="-95" font-family="Helvetica,sans-Serif" font-size="10.00">::makeArgPipeline</text>
</g>
<!-- Node2 -->
<g id="node2" class="node"><title>Node2</title>
<g id="a_node2"><a xlink:href="namespacehag.html#a39becb5458bcac317093e468da1639be" target="_top" xlink:title="hag.filter">
<polygon fill="white" stroke="black" points="174.5,-186.5 174.5,-205.5 228.5,-205.5 228.5,-186.5 174.5,-186.5"/>
<text text-anchor="middle" x="201.5" y="-193.5" font-family="Helvetica,sans-Serif" font-size="10.00">hag.filter</text>
</a>
</g>
</g>
<!-- Node1&#45;&gt;Node2 -->
<g id="edge1" class="edge"><title>Node1&#45;&gt;Node2</title>
<path fill="none" stroke="midnightblue" d="M70.3836,-118.244C87.1832,-134.706 115.973,-160.75 145,-177 151.09,-180.409 157.897,-183.355 164.6,-185.841"/>
<polygon fill="midnightblue" stroke="midnightblue" points="163.657,-189.218 174.252,-189.154 165.93,-182.597 163.657,-189.218"/>
</g>
<!-- Node5 -->
<g id="node5" class="node"><title>Node5</title>
<g id="a_node5"><a xlink:href="classpdal_1_1PipelineManager.html#a8626f2e57d8d35b4e5379f36a842ccbf" target="_top" xlink:title="pdal::PipelineManager\l::makeFilter">
<polygon fill="white" stroke="black" points="145,-137 145,-167 258,-167 258,-137 145,-137"/>
<text text-anchor="start" x="153" y="-155" font-family="Helvetica,sans-Serif" font-size="10.00">pdal::PipelineManager</text>
<text text-anchor="middle" x="201.5" y="-144" font-family="Helvetica,sans-Serif" font-size="10.00">::makeFilter</text>
</a>
</g>
</g>
<!-- Node1&#45;&gt;Node5 -->
<g id="edge4" class="edge"><title>Node1&#45;&gt;Node5</title>
<path fill="none" stroke="midnightblue" d="M100.188,-118.101C114.659,-122.992 130.872,-128.471 145.975,-133.574"/>
<polygon fill="midnightblue" stroke="midnightblue" points="145.116,-136.978 155.71,-136.864 147.357,-130.347 145.116,-136.978"/>
</g>
<!-- Node6 -->
<g id="node6" class="node"><title>Node6</title>
<g id="a_node6"><a xlink:href="classpdal_1_1PipelineManager.html#a1ed693ba560749af6f5a20e73474b09b" target="_top" xlink:title="pdal::PipelineManager\l::makeReader">
<polygon fill="white" stroke="black" points="145,-88 145,-118 258,-118 258,-88 145,-88"/>
<text text-anchor="start" x="153" y="-106" font-family="Helvetica,sans-Serif" font-size="10.00">pdal::PipelineManager</text>
<text text-anchor="middle" x="201.5" y="-95" font-family="Helvetica,sans-Serif" font-size="10.00">::makeReader</text>
</a>
</g>
</g>
<!-- Node1&#45;&gt;Node6 -->
<g id="edge5" class="edge"><title>Node1&#45;&gt;Node6</title>
<path fill="none" stroke="midnightblue" d="M109.081,-103C117.34,-103 125.951,-103 134.443,-103"/>
<polygon fill="midnightblue" stroke="midnightblue" points="134.711,-106.5 144.711,-103 134.711,-99.5001 134.711,-106.5"/>
</g>
<!-- Node7 -->
<g id="node7" class="node"><title>Node7</title>
<g id="a_node7"><a xlink:href="classpdal_1_1PipelineManager.html#a5d818c00afd49f76e4284474fc0f4f3f" target="_top" xlink:title="pdal::PipelineManager\l::makeWriter">
<polygon fill="white" stroke="black" points="145,-39 145,-69 258,-69 258,-39 145,-39"/>
<text text-anchor="start" x="153" y="-57" font-family="Helvetica,sans-Serif" font-size="10.00">pdal::PipelineManager</text>
<text text-anchor="middle" x="201.5" y="-46" font-family="Helvetica,sans-Serif" font-size="10.00">::makeWriter</text>
</a>
</g>
</g>
<!-- Node1&#45;&gt;Node7 -->
<g id="edge6" class="edge"><title>Node1&#45;&gt;Node7</title>
<path fill="none" stroke="midnightblue" d="M100.188,-87.8986C114.659,-83.0083 130.872,-77.5293 145.975,-72.4256"/>
<polygon fill="midnightblue" stroke="midnightblue" points="147.357,-75.6532 155.71,-69.1359 145.116,-69.0217 147.357,-75.6532"/>
</g>
<!-- Node8 -->
<g id="node8" class="node"><title>Node8</title>
<g id="a_node8"><a xlink:href="namespacepdal_1_1Utils.html#a28e27948fb8a4c1d958783d8a53bd784" target="_top" xlink:title="pdal::Utils::startsWith">
<polygon fill="white" stroke="black" points="145.5,-0.5 145.5,-19.5 257.5,-19.5 257.5,-0.5 145.5,-0.5"/>
<text text-anchor="middle" x="201.5" y="-7.5" font-family="Helvetica,sans-Serif" font-size="10.00">pdal::Utils::startsWith</text>
</a>
</g>
</g>
<!-- Node1&#45;&gt;Node8 -->
<g id="edge7" class="edge"><title>Node1&#45;&gt;Node8</title>
<path fill="none" stroke="midnightblue" d="M70.7807,-87.7683C87.6998,-71.6014 116.382,-46.1978 145,-30 149.287,-27.5737 153.922,-25.3532 158.623,-23.3468"/>
<polygon fill="midnightblue" stroke="midnightblue" points="160.261,-26.4627 168.274,-19.5316 157.688,-19.9528 160.261,-26.4627"/>
</g>
<!-- Node3 -->
<g id="node3" class="node"><title>Node3</title>
<g id="a_node3"><a xlink:href="namespacehag.html#acad63bbd5fdda01bf56ff6aae70a0192" target="_top" xlink:title="hag.read">
<polygon fill="white" stroke="black" points="301.5,-205.5 301.5,-224.5 355.5,-224.5 355.5,-205.5 301.5,-205.5"/>
<text text-anchor="middle" x="328.5" y="-212.5" font-family="Helvetica,sans-Serif" font-size="10.00">hag.read</text>
</a>
</g>
</g>
<!-- Node2&#45;&gt;Node3 -->
<g id="edge2" class="edge"><title>Node2&#45;&gt;Node3</title>
<path fill="none" stroke="midnightblue" d="M228.704,-199.983C246.871,-202.744 271.299,-206.458 291.32,-209.501"/>
<polygon fill="midnightblue" stroke="midnightblue" points="290.918,-212.98 301.33,-211.022 291.97,-206.059 290.918,-212.98"/>
</g>
<!-- Node4 -->
<g id="node4" class="node"><title>Node4</title>
<g id="a_node4"><a xlink:href="namespacehag.html#aee422d0ebdb1730554711d82498e54c3" target="_top" xlink:title="hag.wakeup">
<polygon fill="white" stroke="black" points="294,-167.5 294,-186.5 363,-186.5 363,-167.5 294,-167.5"/>
<text text-anchor="middle" x="328.5" y="-174.5" font-family="Helvetica,sans-Serif" font-size="10.00">hag.wakeup</text>
</a>
</g>
</g>
<!-- Node2&#45;&gt;Node4 -->
<g id="edge3" class="edge"><title>Node2&#45;&gt;Node4</title>
<path fill="none" stroke="midnightblue" d="M228.704,-192.017C244.651,-189.593 265.422,-186.436 283.801,-183.642"/>
<polygon fill="midnightblue" stroke="midnightblue" points="284.359,-187.098 293.72,-182.135 283.307,-180.177 284.359,-187.098"/>
</g>
</g>
</svg>
