<?xml version="1.0" encoding="UTF-8" standalone="no"?>
<!DOCTYPE svg PUBLIC "-//W3C//DTD SVG 1.1//EN"
 "http://www.w3.org/Graphics/SVG/1.1/DTD/svg11.dtd">
<!-- Generated by graphviz version 2.38.0 (20140413.2041)
 -->
<!-- Title: pdal::Scaling::nonstandard Pages: 1 -->
<svg width="595pt" height="28pt"
 viewBox="0.00 0.00 595.00 28.00" xmlns="http://www.w3.org/2000/svg" xmlns:xlink="http://www.w3.org/1999/xlink">
<g id="graph0" class="graph" transform="scale(1 1) rotate(0) translate(4 24)">
<title>pdal::Scaling::nonstandard</title>
<polygon fill="white" stroke="none" points="-4,4 -4,-24 591,-24 591,4 -4,4"/>
<!-- Node1 -->
<g id="node1" class="node"><title>Node1</title>
<polygon fill="#bfbfbf" stroke="black" points="0,-0.5 0,-19.5 132,-19.5 132,-0.5 0,-0.5"/>
<text text-anchor="middle" x="66" y="-7.5" font-family="Helvetica,sans-Serif" font-size="10.00">pdal::Scaling::nonstandard</text>
</g>
<!-- Node2 -->
<g id="node2" class="node"><title>Node2</title>
<g id="a_node2"><a xlink:href="classpdal_1_1DbWriter.html#a39553d80fb4fb40fb9cb9bd7b634df66" target="_top" xlink:title="pdal::DbWriter::ready">
<polygon fill="white" stroke="black" points="168,-0.5 168,-19.5 278,-19.5 278,-0.5 168,-0.5"/>
<text text-anchor="middle" x="223" y="-7.5" font-family="Helvetica,sans-Serif" font-size="10.00">pdal::DbWriter::ready</text>
</a>
</g>
</g>
<!-- Node1&#45;&gt;Node2 -->
<g id="edge1" class="edge"><title>Node1&#45;&gt;Node2</title>
<path fill="none" stroke="midnightblue" d="M142.542,-10C150.986,-10 159.461,-10 167.566,-10"/>
<polygon fill="midnightblue" stroke="midnightblue" points="142.285,-6.5001 132.285,-10 142.285,-13.5001 142.285,-6.5001"/>
</g>
<!-- Node3 -->
<g id="node3" class="node"><title>Node3</title>
<g id="a_node3"><a xlink:href="classpdal_1_1DbWriter.html#a0e1666ce3872f2d6c0c1059df0c82340" target="_top" xlink:title="pdal::DbWriter::doReady">
<polygon fill="white" stroke="black" points="314,-0.5 314,-19.5 439,-19.5 439,-0.5 314,-0.5"/>
<text text-anchor="middle" x="376.5" y="-7.5" font-family="Helvetica,sans-Serif" font-size="10.00">pdal::DbWriter::doReady</text>
</a>
</g>
</g>
<!-- Node2&#45;&gt;Node3 -->
<g id="edge2" class="edge"><title>Node2&#45;&gt;Node3</title>
<path fill="none" stroke="midnightblue" d="M288.434,-10C296.87,-10 305.498,-10 313.886,-10"/>
<polygon fill="midnightblue" stroke="midnightblue" points="288.267,-6.5001 278.267,-10 288.267,-13.5001 288.267,-6.5001"/>
</g>
<!-- Node4 -->
<g id="node4" class="node"><title>Node4</title>
<g id="a_node4"><a xlink:href="classpdal_1_1OciWriter.html#aaef01ec1f04e1cd86cd7d465d49e1d81" target="_top" xlink:title="pdal::OciWriter::ready">
<polygon fill="white" stroke="black" points="475,-0.5 475,-19.5 587,-19.5 587,-0.5 475,-0.5"/>
<text text-anchor="middle" x="531" y="-7.5" font-family="Helvetica,sans-Serif" font-size="10.00">pdal::OciWriter::ready</text>
</a>
</g>
</g>
<!-- Node3&#45;&gt;Node4 -->
<g id="edge3" class="edge"><title>Node3&#45;&gt;Node4</title>
<path fill="none" stroke="midnightblue" d="M449.36,-10C457.834,-10 466.38,-10 474.578,-10"/>
<polygon fill="midnightblue" stroke="midnightblue" points="449.088,-6.5001 439.088,-10 449.088,-13.5001 449.088,-6.5001"/>
</g>
</g>
</svg>
