<?xml version="1.0" encoding="UTF-8" standalone="no"?>
<!DOCTYPE svg PUBLIC "-//W3C//DTD SVG 1.1//EN"
 "http://www.w3.org/Graphics/SVG/1.1/DTD/svg11.dtd">
<!-- Generated by graphviz version 2.38.0 (20140413.2041)
 -->
<!-- Title: GDALReaderTypeTest::compare Pages: 1 -->
<svg width="1147pt" height="1014pt"
 viewBox="0.00 0.00 1147.00 1013.50" xmlns="http://www.w3.org/2000/svg" xmlns:xlink="http://www.w3.org/1999/xlink">
<g id="graph0" class="graph" transform="scale(1 1) rotate(0) translate(4 1009.5)">
<title>GDALReaderTypeTest::compare</title>
<polygon fill="white" stroke="none" points="-4,4 -4,-1009.5 1143,-1009.5 1143,4 -4,4"/>
<!-- Node1 -->
<g id="node1" class="node"><title>Node1</title>
<polygon fill="#bfbfbf" stroke="black" points="0,-410 0,-440 116,-440 116,-410 0,-410"/>
<text text-anchor="start" x="8" y="-428" font-family="Helvetica,sans-Serif" font-size="10.00">GDALReaderTypeTest</text>
<text text-anchor="middle" x="58" y="-417" font-family="Helvetica,sans-Serif" font-size="10.00">::compare</text>
</g>
<!-- Node2 -->
<g id="node2" class="node"><title>Node2</title>
<g id="a_node2"><a xlink:href="classpdal_1_1Options.html#a30826da39f9c4716412141eeeb719032" target="_top" xlink:title="pdal::Options::add">
<polygon fill="white" stroke="black" points="532,-19.5 532,-38.5 628,-38.5 628,-19.5 532,-19.5"/>
<text text-anchor="middle" x="580" y="-26.5" font-family="Helvetica,sans-Serif" font-size="10.00">pdal::Options::add</text>
</a>
</g>
</g>
<!-- Node1&#45;&gt;Node2 -->
<g id="edge1" class="edge"><title>Node1&#45;&gt;Node2</title>
<path fill="none" stroke="midnightblue" d="M71.7031,-409.728C120.693,-351.932 304.583,-144.979 504,-48 509.708,-45.2243 515.863,-42.826 522.107,-40.7603"/>
<polygon fill="midnightblue" stroke="midnightblue" points="523.384,-44.0306 531.94,-37.7816 521.354,-37.3313 523.384,-44.0306"/>
</g>
<!-- Node9 -->
<g id="node9" class="node"><title>Node9</title>
<g id="a_node9"><a xlink:href="classpdal_1_1Stage.html#a1615c4aa5ec5e48f90d73f0e7a796935" target="_top" xlink:title="pdal::Stage::execute">
<polygon fill="white" stroke="black" points="158,-781.5 158,-800.5 265,-800.5 265,-781.5 158,-781.5"/>
<text text-anchor="middle" x="211.5" y="-788.5" font-family="Helvetica,sans-Serif" font-size="10.00">pdal::Stage::execute</text>
</a>
</g>
</g>
<!-- Node1&#45;&gt;Node9 -->
<g id="edge8" class="edge"><title>Node1&#45;&gt;Node9</title>
<path fill="none" stroke="midnightblue" d="M65.3169,-440.261C89.4537,-498.571 175.836,-707.258 202.562,-771.823"/>
<polygon fill="midnightblue" stroke="midnightblue" points="199.391,-773.314 206.45,-781.216 205.859,-770.637 199.391,-773.314"/>
</g>
<!-- Node25 -->
<g id="node25" class="node"><title>Node25</title>
<g id="a_node25"><a xlink:href="classpdal_1_1PointLayout.html#a5a720db4e74a5412c1420b0d1eaacda7" target="_top" xlink:title="pdal::PointLayout::\lfindDim">
<polygon fill="white" stroke="black" points="162.5,-522 162.5,-552 260.5,-552 260.5,-522 162.5,-522"/>
<text text-anchor="start" x="170.5" y="-540" font-family="Helvetica,sans-Serif" font-size="10.00">pdal::PointLayout::</text>
<text text-anchor="middle" x="211.5" y="-529" font-family="Helvetica,sans-Serif" font-size="10.00">findDim</text>
</a>
</g>
</g>
<!-- Node1&#45;&gt;Node25 -->
<g id="edge25" class="edge"><title>Node1&#45;&gt;Node25</title>
<path fill="none" stroke="midnightblue" d="M79.432,-440.105C105.749,-459.56 151.653,-493.496 181.555,-515.602"/>
<polygon fill="midnightblue" stroke="midnightblue" points="179.786,-518.647 189.908,-521.777 183.947,-513.018 179.786,-518.647"/>
</g>
<!-- Node32 -->
<g id="node32" class="node"><title>Node32</title>
<g id="a_node32"><a xlink:href="classpdal_1_1BasePointTable.html#a7e3a12a1f29e6cd10d8669ed3d07eb94" target="_top" xlink:title="pdal::BasePointTable\l::layout">
<polygon fill="white" stroke="black" points="332.5,-451 332.5,-481 442.5,-481 442.5,-451 332.5,-451"/>
<text text-anchor="start" x="340.5" y="-469" font-family="Helvetica,sans-Serif" font-size="10.00">pdal::BasePointTable</text>
<text text-anchor="middle" x="387.5" y="-458" font-family="Helvetica,sans-Serif" font-size="10.00">::layout</text>
</a>
</g>
</g>
<!-- Node1&#45;&gt;Node32 -->
<g id="edge32" class="edge"><title>Node1&#45;&gt;Node32</title>
<path fill="none" stroke="midnightblue" d="M116.046,-432.142C173.562,-439.342 262.187,-450.437 322.171,-457.947"/>
<polygon fill="midnightblue" stroke="midnightblue" points="321.925,-461.443 332.282,-459.212 322.795,-454.497 321.925,-461.443"/>
</g>
<!-- Node33 -->
<g id="node33" class="node"><title>Node33</title>
<g id="a_node33"><a xlink:href="classpdal_1_1Stage.html#a4b9296a59f8852b3d08630f1086bfbea" target="_top" xlink:title="pdal::Stage::prepare">
<polygon fill="white" stroke="black" points="159.5,-374.5 159.5,-393.5 263.5,-393.5 263.5,-374.5 159.5,-374.5"/>
<text text-anchor="middle" x="211.5" y="-381.5" font-family="Helvetica,sans-Serif" font-size="10.00">pdal::Stage::prepare</text>
</a>
</g>
</g>
<!-- Node1&#45;&gt;Node33 -->
<g id="edge33" class="edge"><title>Node1&#45;&gt;Node33</title>
<path fill="none" stroke="midnightblue" d="M114.553,-409.966C131.179,-405.466 149.205,-400.588 165.097,-396.287"/>
<polygon fill="midnightblue" stroke="midnightblue" points="166.457,-399.545 175.195,-393.554 164.628,-392.788 166.457,-399.545"/>
</g>
<!-- Node50 -->
<g id="node50" class="node"><title>Node50</title>
<g id="a_node50"><a xlink:href="classpdal_1_1Stage.html#acb2434df20f371f1fec9577de3cf0046" target="_top" xlink:title="pdal::Stage::setOptions">
<polygon fill="white" stroke="black" points="152,-133.5 152,-152.5 271,-152.5 271,-133.5 152,-133.5"/>
<text text-anchor="middle" x="211.5" y="-140.5" font-family="Helvetica,sans-Serif" font-size="10.00">pdal::Stage::setOptions</text>
</a>
</g>
</g>
<!-- Node1&#45;&gt;Node50 -->
<g id="edge63" class="edge"><title>Node1&#45;&gt;Node50</title>
<path fill="none" stroke="midnightblue" d="M60.2308,-409.998C64.5674,-366.564 82.8475,-239.217 152,-167 155.655,-163.183 160.004,-159.953 164.657,-157.224"/>
<polygon fill="midnightblue" stroke="midnightblue" points="166.526,-160.201 173.876,-152.571 163.372,-153.952 166.526,-160.201"/>
</g>
<!-- Node3 -->
<g id="node3" class="node"><title>Node3</title>
<g id="a_node3"><a xlink:href="classpdal_1_1Option.html#aef4422b88464a9cad83b3c11bf1f8cdd" target="_top" xlink:title="pdal::Option::nameValid">
<polygon fill="white" stroke="black" points="701,-38.5 701,-57.5 822,-57.5 822,-38.5 701,-38.5"/>
<text text-anchor="middle" x="761.5" y="-45.5" font-family="Helvetica,sans-Serif" font-size="10.00">pdal::Option::nameValid</text>
</a>
</g>
</g>
<!-- Node2&#45;&gt;Node3 -->
<g id="edge2" class="edge"><title>Node2&#45;&gt;Node3</title>
<path fill="none" stroke="midnightblue" d="M628.162,-33.992C647.264,-36.0141 669.718,-38.3908 690.651,-40.6065"/>
<polygon fill="midnightblue" stroke="midnightblue" points="690.471,-44.1069 700.784,-41.6791 691.208,-37.1458 690.471,-44.1069"/>
</g>
<!-- Node8 -->
<g id="node8" class="node"><title>Node8</title>
<g id="a_node8"><a xlink:href="classpdal_1_1Option.html#ad2b7a736742fb343e421fa326ef45c23" target="_top" xlink:title="pdal::Option::getName">
<polygon fill="white" stroke="black" points="704,-95.5 704,-114.5 819,-114.5 819,-95.5 704,-95.5"/>
<text text-anchor="middle" x="761.5" y="-102.5" font-family="Helvetica,sans-Serif" font-size="10.00">pdal::Option::getName</text>
</a>
</g>
</g>
<!-- Node2&#45;&gt;Node8 -->
<g id="edge7" class="edge"><title>Node2&#45;&gt;Node8</title>
<path fill="none" stroke="midnightblue" d="M626.395,-38.5474C636.301,-41.1683 646.621,-44.322 656,-48 660.08,-49.5999 704.64,-74.1091 734.24,-90.4629"/>
<polygon fill="midnightblue" stroke="midnightblue" points="732.809,-93.6712 743.254,-95.4467 736.196,-87.5451 732.809,-93.6712"/>
</g>
<!-- Node4 -->
<g id="node4" class="node"><title>Node4</title>
<g id="a_node4"><a xlink:href="classpdal_1_1Option.html#a978a36cf9180d3636ea770988961952b" target="_top" xlink:title="pdal::Option::parse">
<polygon fill="white" stroke="black" points="877,-19.5 877,-38.5 976,-38.5 976,-19.5 877,-19.5"/>
<text text-anchor="middle" x="926.5" y="-26.5" font-family="Helvetica,sans-Serif" font-size="10.00">pdal::Option::parse</text>
</a>
</g>
</g>
<!-- Node3&#45;&gt;Node4 -->
<g id="edge3" class="edge"><title>Node3&#45;&gt;Node4</title>
<path fill="none" stroke="midnightblue" d="M822.27,-41.033C836.746,-39.3455 852.209,-37.5431 866.643,-35.8606"/>
<polygon fill="midnightblue" stroke="midnightblue" points="867.415,-39.2944 876.943,-34.66 866.605,-32.3415 867.415,-39.2944"/>
</g>
<!-- Node7 -->
<g id="node7" class="node"><title>Node7</title>
<g id="a_node7"><a xlink:href="namespacepdal_1_1Utils.html#ada321695f57c876ef51227bdf5b84f7a" target="_top" xlink:title="pdal::Utils::printError">
<polygon fill="white" stroke="black" points="873,-57.5 873,-76.5 980,-76.5 980,-57.5 873,-57.5"/>
<text text-anchor="middle" x="926.5" y="-64.5" font-family="Helvetica,sans-Serif" font-size="10.00">pdal::Utils::printError</text>
</a>
</g>
</g>
<!-- Node3&#45;&gt;Node7 -->
<g id="edge6" class="edge"><title>Node3&#45;&gt;Node7</title>
<path fill="none" stroke="midnightblue" d="M822.27,-54.967C835.447,-56.503 849.442,-58.1344 862.734,-59.6838"/>
<polygon fill="midnightblue" stroke="midnightblue" points="862.399,-63.1683 872.737,-60.8497 863.209,-56.2153 862.399,-63.1683"/>
</g>
<!-- Node5 -->
<g id="node5" class="node"><title>Node5</title>
<g id="a_node5"><a xlink:href="namespacepdal_1_1Utils.html#acae5a19cd66121b77e2599daec48413d" target="_top" xlink:title="pdal::Utils::extract">
<polygon fill="white" stroke="black" points="1032,-38.5 1032,-57.5 1129,-57.5 1129,-38.5 1032,-38.5"/>
<text text-anchor="middle" x="1080.5" y="-45.5" font-family="Helvetica,sans-Serif" font-size="10.00">pdal::Utils::extract</text>
</a>
</g>
</g>
<!-- Node4&#45;&gt;Node5 -->
<g id="edge4" class="edge"><title>Node4&#45;&gt;Node5</title>
<path fill="none" stroke="midnightblue" d="M976.012,-35.064C990.554,-36.8817 1006.65,-38.8934 1021.72,-40.778"/>
<polygon fill="midnightblue" stroke="midnightblue" points="1021.61,-44.291 1031.97,-42.0585 1022.48,-37.3451 1021.61,-44.291"/>
</g>
<!-- Node6 -->
<g id="node6" class="node"><title>Node6</title>
<g id="a_node6"><a xlink:href="namespacepdal_1_1Dimension.html#af3176b0b7e6b4be000317846cf7c2718" target="_top" xlink:title="pdal::Dimension::name">
<polygon fill="white" stroke="black" points="1022,-0.5 1022,-19.5 1139,-19.5 1139,-0.5 1022,-0.5"/>
<text text-anchor="middle" x="1080.5" y="-7.5" font-family="Helvetica,sans-Serif" font-size="10.00">pdal::Dimension::name</text>
</a>
</g>
</g>
<!-- Node4&#45;&gt;Node6 -->
<g id="edge5" class="edge"><title>Node4&#45;&gt;Node6</title>
<path fill="none" stroke="midnightblue" d="M976.012,-22.936C987.415,-21.5106 999.773,-19.9659 1011.85,-18.4568"/>
<polygon fill="midnightblue" stroke="midnightblue" points="1012.4,-21.9143 1021.89,-17.2009 1011.54,-14.9683 1012.4,-21.9143"/>
</g>
<!-- Node9&#45;&gt;Node9 -->
<g id="edge16" class="edge"><title>Node9&#45;&gt;Node9</title>
<path fill="none" stroke="midnightblue" d="M188.072,-800.757C176.675,-809.565 184.484,-819 211.5,-819 229.229,-819 238.686,-814.937 239.872,-809.654"/>
<polygon fill="midnightblue" stroke="midnightblue" points="242.845,-807.797 234.928,-800.757 236.726,-811.198 242.845,-807.797"/>
</g>
<!-- Node10 -->
<g id="node10" class="node"><title>Node10</title>
<g id="a_node10"><a xlink:href="classpdal_1_1Stage.html#a74cf636cb0f633411e4e40dcd718508a" target="_top" xlink:title="pdal::Stage::startLogging">
<polygon fill="white" stroke="black" points="517.5,-525.5 517.5,-544.5 642.5,-544.5 642.5,-525.5 517.5,-525.5"/>
<text text-anchor="middle" x="580" y="-532.5" font-family="Helvetica,sans-Serif" font-size="10.00">pdal::Stage::startLogging</text>
</a>
</g>
</g>
<!-- Node9&#45;&gt;Node10 -->
<g id="edge9" class="edge"><title>Node9&#45;&gt;Node10</title>
<path fill="none" stroke="midnightblue" d="M216.282,-781.206C226.611,-755.827 257.853,-687.578 307,-654 367.706,-612.525 408.952,-659.804 468,-616 493.591,-597.016 478.565,-573.193 504,-554 506.493,-552.119 509.152,-550.423 511.925,-548.894"/>
<polygon fill="midnightblue" stroke="midnightblue" points="513.566,-551.99 521.114,-544.555 510.577,-545.66 513.566,-551.99"/>
</g>
<!-- Node16 -->
<g id="node16" class="node"><title>Node16</title>
<g id="a_node16"><a xlink:href="classpdal_1_1BasePointTable.html#a2554cd260c437c9b1e4a017a28a5c7de" target="_top" xlink:title="pdal::BasePointTable\l::finalize">
<polygon fill="white" stroke="black" points="332.5,-975 332.5,-1005 442.5,-1005 442.5,-975 332.5,-975"/>
<text text-anchor="start" x="340.5" y="-993" font-family="Helvetica,sans-Serif" font-size="10.00">pdal::BasePointTable</text>
<text text-anchor="middle" x="387.5" y="-982" font-family="Helvetica,sans-Serif" font-size="10.00">::finalize</text>
</a>
</g>
</g>
<!-- Node9&#45;&gt;Node16 -->
<g id="edge15" class="edge"><title>Node9&#45;&gt;Node16</title>
<path fill="none" stroke="midnightblue" d="M214.889,-800.631C222.697,-830.078 250.285,-919.72 307,-966 311.838,-969.948 317.315,-973.247 323.076,-976.004"/>
<polygon fill="midnightblue" stroke="midnightblue" points="321.737,-979.238 332.311,-979.905 324.461,-972.789 321.737,-979.238"/>
</g>
<!-- Node17 -->
<g id="node17" class="node"><title>Node17</title>
<g id="a_node17"><a xlink:href="classpdal_1_1BasePointTable.html#aa3ed63a9e1a8897ccb7dc81a614f6141" target="_top" xlink:title="pdal::BasePointTable\l::clearSpatialReferences">
<polygon fill="white" stroke="black" points="325.5,-926 325.5,-956 449.5,-956 449.5,-926 325.5,-926"/>
<text text-anchor="start" x="333.5" y="-944" font-family="Helvetica,sans-Serif" font-size="10.00">pdal::BasePointTable</text>
<text text-anchor="middle" x="387.5" y="-933" font-family="Helvetica,sans-Serif" font-size="10.00">::clearSpatialReferences</text>
</a>
</g>
</g>
<!-- Node9&#45;&gt;Node17 -->
<g id="edge17" class="edge"><title>Node9&#45;&gt;Node17</title>
<path fill="none" stroke="midnightblue" d="M216.955,-800.527C228.421,-824.002 261.287,-885.034 307,-917 309.863,-919.002 312.897,-920.841 316.043,-922.528"/>
<polygon fill="midnightblue" stroke="midnightblue" points="314.628,-925.731 325.159,-926.894 317.652,-919.418 314.628,-925.731"/>
</g>
<!-- Node18 -->
<g id="node18" class="node"><title>Node18</title>
<g id="a_node18"><a xlink:href="classpdal_1_1BasePointTable.html#a670592aca912391f1a90073a2031e5e0" target="_top" xlink:title="pdal::BasePointTable\l::addSpatialReference">
<polygon fill="white" stroke="black" points="331,-877 331,-907 444,-907 444,-877 331,-877"/>
<text text-anchor="start" x="339" y="-895" font-family="Helvetica,sans-Serif" font-size="10.00">pdal::BasePointTable</text>
<text text-anchor="middle" x="387.5" y="-884" font-family="Helvetica,sans-Serif" font-size="10.00">::addSpatialReference</text>
</a>
</g>
</g>
<!-- Node9&#45;&gt;Node18 -->
<g id="edge18" class="edge"><title>Node9&#45;&gt;Node18</title>
<path fill="none" stroke="midnightblue" d="M221.828,-800.542C237.86,-816.441 272.281,-848.437 307,-867 311.51,-869.411 316.289,-871.633 321.179,-873.672"/>
<polygon fill="midnightblue" stroke="midnightblue" points="320.086,-877.002 330.674,-877.369 322.625,-870.479 320.086,-877.002"/>
</g>
<!-- Node19 -->
<g id="node19" class="node"><title>Node19</title>
<g id="a_node19"><a xlink:href="classpdal_1_1Stage.html#afb562c59c53ed8120df9106655eb2543" target="_top" xlink:title="pdal::Stage::ready">
<polygon fill="white" stroke="black" points="339.5,-800.5 339.5,-819.5 435.5,-819.5 435.5,-800.5 339.5,-800.5"/>
<text text-anchor="middle" x="387.5" y="-807.5" font-family="Helvetica,sans-Serif" font-size="10.00">pdal::Stage::ready</text>
</a>
</g>
</g>
<!-- Node9&#45;&gt;Node19 -->
<g id="edge19" class="edge"><title>Node9&#45;&gt;Node19</title>
<path fill="none" stroke="midnightblue" d="M265.178,-796.752C285.372,-798.957 308.504,-801.483 329.118,-803.734"/>
<polygon fill="midnightblue" stroke="midnightblue" points="329.003,-807.242 339.323,-804.849 329.763,-800.284 329.003,-807.242"/>
</g>
<!-- Node20 -->
<g id="node20" class="node"><title>Node20</title>
<g id="a_node20"><a xlink:href="classpdal_1_1Stage.html#a9889b4446f40daa6f4cd7bfe3c567839" target="_top" xlink:title="pdal::Stage::getSpatialReference">
<polygon fill="white" stroke="black" points="307,-762.5 307,-781.5 468,-781.5 468,-762.5 307,-762.5"/>
<text text-anchor="middle" x="387.5" y="-769.5" font-family="Helvetica,sans-Serif" font-size="10.00">pdal::Stage::getSpatialReference</text>
</a>
</g>
</g>
<!-- Node9&#45;&gt;Node20 -->
<g id="edge20" class="edge"><title>Node9&#45;&gt;Node20</title>
<path fill="none" stroke="midnightblue" d="M265.178,-785.248C275.108,-784.164 285.748,-783.002 296.45,-781.833"/>
<polygon fill="midnightblue" stroke="midnightblue" points="297.147,-785.278 306.708,-780.713 296.387,-778.319 297.147,-785.278"/>
</g>
<!-- Node21 -->
<g id="node21" class="node"><title>Node21</title>
<g id="a_node21"><a xlink:href="classpdal_1_1SpatialReference.html#a48fa2f7e79ea172b62ad2e874ff01610" target="_top" xlink:title="pdal::SpatialReference\l::empty">
<polygon fill="white" stroke="black" points="329.5,-713 329.5,-743 445.5,-743 445.5,-713 329.5,-713"/>
<text text-anchor="start" x="337.5" y="-731" font-family="Helvetica,sans-Serif" font-size="10.00">pdal::SpatialReference</text>
<text text-anchor="middle" x="387.5" y="-720" font-family="Helvetica,sans-Serif" font-size="10.00">::empty</text>
</a>
</g>
</g>
<!-- Node9&#45;&gt;Node21 -->
<g id="edge21" class="edge"><title>Node9&#45;&gt;Node21</title>
<path fill="none" stroke="midnightblue" d="M234.843,-781.445C253.874,-773.444 282.025,-761.933 307,-753 313.407,-750.708 320.143,-748.415 326.871,-746.198"/>
<polygon fill="midnightblue" stroke="midnightblue" points="328.253,-749.429 336.684,-743.013 326.092,-742.771 328.253,-749.429"/>
</g>
<!-- Node22 -->
<g id="node22" class="node"><title>Node22</title>
<g id="a_node22"><a xlink:href="classpdal_1_1Stage.html#a1b00532ede55b90a7b6332a2966f5626" target="_top" xlink:title="pdal::Stage::l_done">
<polygon fill="white" stroke="black" points="337,-838.5 337,-857.5 438,-857.5 438,-838.5 337,-838.5"/>
<text text-anchor="middle" x="387.5" y="-845.5" font-family="Helvetica,sans-Serif" font-size="10.00">pdal::Stage::l_done</text>
</a>
</g>
</g>
<!-- Node9&#45;&gt;Node22 -->
<g id="edge22" class="edge"><title>Node9&#45;&gt;Node22</title>
<path fill="none" stroke="midnightblue" d="M233.564,-800.515C252.502,-808.817 281.222,-820.786 307,-829 314.969,-831.539 323.482,-833.916 331.867,-836.071"/>
<polygon fill="midnightblue" stroke="midnightblue" points="331.062,-839.477 341.611,-838.495 332.752,-832.685 331.062,-839.477"/>
</g>
<!-- Node24 -->
<g id="node24" class="node"><title>Node24</title>
<g id="a_node24"><a xlink:href="classpdal_1_1Stage.html#ae49e996fe285350923a3bf44d027adad" target="_top" xlink:title="pdal::Stage::stopLogging">
<polygon fill="white" stroke="black" points="325,-587.5 325,-606.5 450,-606.5 450,-587.5 325,-587.5"/>
<text text-anchor="middle" x="387.5" y="-594.5" font-family="Helvetica,sans-Serif" font-size="10.00">pdal::Stage::stopLogging</text>
</a>
</g>
</g>
<!-- Node9&#45;&gt;Node24 -->
<g id="edge24" class="edge"><title>Node9&#45;&gt;Node24</title>
<path fill="none" stroke="midnightblue" d="M215.091,-781.232C223.299,-752.205 251.523,-665.708 307,-621 312.28,-616.745 318.303,-613.244 324.618,-610.362"/>
<polygon fill="midnightblue" stroke="midnightblue" points="326.06,-613.555 334.026,-606.569 323.443,-607.062 326.06,-613.555"/>
</g>
<!-- Node11 -->
<g id="node11" class="node"><title>Node11</title>
<g id="a_node11"><a xlink:href="classpdal_1_1gdal_1_1ErrorHandler.html#a56e0125595a43bf3b0cbd0b9a4bc55ea" target="_top" xlink:title="pdal::gdal::ErrorHandler\l::getGlobalErrorHandler">
<polygon fill="white" stroke="black" points="702,-375 702,-405 821,-405 821,-375 702,-375"/>
<text text-anchor="start" x="710" y="-393" font-family="Helvetica,sans-Serif" font-size="10.00">pdal::gdal::ErrorHandler</text>
<text text-anchor="middle" x="761.5" y="-382" font-family="Helvetica,sans-Serif" font-size="10.00">::getGlobalErrorHandler</text>
</a>
</g>
</g>
<!-- Node10&#45;&gt;Node11 -->
<g id="edge10" class="edge"><title>Node10&#45;&gt;Node11</title>
<path fill="none" stroke="midnightblue" d="M640.903,-525.428C646.369,-522.951 651.523,-519.858 656,-516 687.39,-488.952 664.698,-461.169 692,-430 698.737,-422.308 707.329,-415.713 716.132,-410.226"/>
<polygon fill="midnightblue" stroke="midnightblue" points="718.055,-413.157 724.946,-405.109 714.54,-407.103 718.055,-413.157"/>
</g>
<!-- Node13 -->
<g id="node13" class="node"><title>Node13</title>
<g id="a_node13"><a xlink:href="classpdal_1_1gdal_1_1ErrorHandler.html#ace1cff928ab179f671181ebaf4d280a4" target="_top" xlink:title="pdal::gdal::ErrorHandler::set">
<polygon fill="white" stroke="red" points="692,-439.5 692,-458.5 831,-458.5 831,-439.5 692,-439.5"/>
<text text-anchor="middle" x="761.5" y="-446.5" font-family="Helvetica,sans-Serif" font-size="10.00">pdal::gdal::ErrorHandler::set</text>
</a>
</g>
</g>
<!-- Node10&#45;&gt;Node13 -->
<g id="edge12" class="edge"><title>Node10&#45;&gt;Node13</title>
<path fill="none" stroke="midnightblue" d="M628.582,-525.408C637.857,-522.856 647.373,-519.74 656,-516 687.347,-502.408 719.946,-479.955 740.225,-464.829"/>
<polygon fill="midnightblue" stroke="midnightblue" points="742.522,-467.479 748.373,-458.647 738.291,-461.902 742.522,-467.479"/>
</g>
<!-- Node15 -->
<g id="node15" class="node"><title>Node15</title>
<g id="a_node15"><a xlink:href="classpdal_1_1Stage.html#aec4fb27c40bb4b032ff003a89a950dd4" target="_top" xlink:title="pdal::Stage::isDebug">
<polygon fill="white" stroke="black" points="707.5,-515.5 707.5,-534.5 815.5,-534.5 815.5,-515.5 707.5,-515.5"/>
<text text-anchor="middle" x="761.5" y="-522.5" font-family="Helvetica,sans-Serif" font-size="10.00">pdal::Stage::isDebug</text>
</a>
</g>
</g>
<!-- Node10&#45;&gt;Node15 -->
<g id="edge14" class="edge"><title>Node10&#45;&gt;Node15</title>
<path fill="none" stroke="midnightblue" d="M642.523,-531.573C660.169,-530.589 679.436,-529.516 697.188,-528.527"/>
<polygon fill="midnightblue" stroke="midnightblue" points="697.651,-532.007 707.441,-527.956 697.262,-525.018 697.651,-532.007"/>
</g>
<!-- Node12 -->
<g id="node12" class="node"><title>Node12</title>
<g id="a_node12"><a xlink:href="classpdal_1_1gdal_1_1ErrorHandler.html#a73215504640551589024d36018f81d33" target="_top" xlink:title="pdal::gdal::ErrorHandler\l::ErrorHandler">
<polygon fill="white" stroke="red" points="867,-375 867,-405 986,-405 986,-375 867,-375"/>
<text text-anchor="start" x="875" y="-393" font-family="Helvetica,sans-Serif" font-size="10.00">pdal::gdal::ErrorHandler</text>
<text text-anchor="middle" x="926.5" y="-382" font-family="Helvetica,sans-Serif" font-size="10.00">::ErrorHandler</text>
</a>
</g>
</g>
<!-- Node11&#45;&gt;Node12 -->
<g id="edge11" class="edge"><title>Node11&#45;&gt;Node12</title>
<path fill="none" stroke="midnightblue" d="M821.347,-390C832.773,-390 844.844,-390 856.56,-390"/>
<polygon fill="midnightblue" stroke="midnightblue" points="856.74,-393.5 866.74,-390 856.74,-386.5 856.74,-393.5"/>
</g>
<!-- Node14 -->
<g id="node14" class="node"><title>Node14</title>
<g id="a_node14"><a xlink:href="classpdal_1_1gdal_1_1ErrorHandler.html#abe7fbf19bfcfbb0be1c8ae934bd5c9d2" target="_top" xlink:title="pdal::gdal::ErrorHandler\l::setLog">
<polygon fill="white" stroke="black" points="867,-434 867,-464 986,-464 986,-434 867,-434"/>
<text text-anchor="start" x="875" y="-452" font-family="Helvetica,sans-Serif" font-size="10.00">pdal::gdal::ErrorHandler</text>
<text text-anchor="middle" x="926.5" y="-441" font-family="Helvetica,sans-Serif" font-size="10.00">::setLog</text>
</a>
</g>
</g>
<!-- Node13&#45;&gt;Node14 -->
<g id="edge13" class="edge"><title>Node13&#45;&gt;Node14</title>
<path fill="none" stroke="midnightblue" d="M831.154,-449C839.628,-449 848.293,-449 856.768,-449"/>
<polygon fill="midnightblue" stroke="midnightblue" points="856.987,-452.5 866.987,-449 856.987,-445.5 856.987,-452.5"/>
</g>
<!-- Node23 -->
<g id="node23" class="node"><title>Node23</title>
<g id="a_node23"><a xlink:href="classpdal_1_1Stage.html#a2444e73dc41bfc0b94981909595ef2ca" target="_top" xlink:title="pdal::Stage::done">
<polygon fill="white" stroke="black" points="533.5,-838.5 533.5,-857.5 626.5,-857.5 626.5,-838.5 533.5,-838.5"/>
<text text-anchor="middle" x="580" y="-845.5" font-family="Helvetica,sans-Serif" font-size="10.00">pdal::Stage::done</text>
</a>
</g>
</g>
<!-- Node22&#45;&gt;Node23 -->
<g id="edge23" class="edge"><title>Node22&#45;&gt;Node23</title>
<path fill="none" stroke="midnightblue" d="M438.054,-848C464.155,-848 496.254,-848 523.224,-848"/>
<polygon fill="midnightblue" stroke="midnightblue" points="523.286,-851.5 533.286,-848 523.286,-844.5 523.286,-851.5"/>
</g>
<!-- Node26 -->
<g id="node26" class="node"><title>Node26</title>
<g id="a_node26"><a xlink:href="namespacepdal_1_1Dimension.html#a10b4c693e3bdbdf1a0eec8f4b008a291" target="_top" xlink:title="pdal::Dimension::id">
<polygon fill="white" stroke="black" points="337,-549.5 337,-568.5 438,-568.5 438,-549.5 337,-549.5"/>
<text text-anchor="middle" x="387.5" y="-556.5" font-family="Helvetica,sans-Serif" font-size="10.00">pdal::Dimension::id</text>
</a>
</g>
</g>
<!-- Node25&#45;&gt;Node26 -->
<g id="edge26" class="edge"><title>Node25&#45;&gt;Node26</title>
<path fill="none" stroke="midnightblue" d="M260.507,-543.07C281.001,-545.661 305.135,-548.712 326.767,-551.447"/>
<polygon fill="midnightblue" stroke="midnightblue" points="326.471,-554.938 336.831,-552.72 327.349,-547.993 326.471,-554.938"/>
</g>
<!-- Node28 -->
<g id="node28" class="node"><title>Node28</title>
<g id="a_node28"><a xlink:href="classpdal_1_1PointLayout.html#adaef1dfccc620aa7f7f2a57ea2c19d6d" target="_top" xlink:title="pdal::PointLayout::\ldimType">
<polygon fill="white" stroke="black" points="338.5,-664 338.5,-694 436.5,-694 436.5,-664 338.5,-664"/>
<text text-anchor="start" x="346.5" y="-682" font-family="Helvetica,sans-Serif" font-size="10.00">pdal::PointLayout::</text>
<text text-anchor="middle" x="387.5" y="-671" font-family="Helvetica,sans-Serif" font-size="10.00">dimType</text>
</a>
</g>
</g>
<!-- Node25&#45;&gt;Node28 -->
<g id="edge28" class="edge"><title>Node25&#45;&gt;Node28</title>
<path fill="none" stroke="midnightblue" d="M230.5,-552.286C249.427,-568.304 280.133,-594.131 307,-616 324.17,-629.976 343.649,-645.419 359.028,-657.517"/>
<polygon fill="midnightblue" stroke="midnightblue" points="357.083,-660.44 367.11,-663.864 361.407,-654.935 357.083,-660.44"/>
</g>
<!-- Node31 -->
<g id="node31" class="node"><title>Node31</title>
<g id="a_node31"><a xlink:href="classpdal_1_1PointLayout.html#abb03661faa312e6954f49cf8e0e809a3" target="_top" xlink:title="pdal::PointLayout::\lfindProprietaryDim">
<polygon fill="white" stroke="black" points="338.5,-500 338.5,-530 436.5,-530 436.5,-500 338.5,-500"/>
<text text-anchor="start" x="346.5" y="-518" font-family="Helvetica,sans-Serif" font-size="10.00">pdal::PointLayout::</text>
<text text-anchor="middle" x="387.5" y="-507" font-family="Helvetica,sans-Serif" font-size="10.00">findProprietaryDim</text>
</a>
</g>
</g>
<!-- Node25&#45;&gt;Node31 -->
<g id="edge31" class="edge"><title>Node25&#45;&gt;Node31</title>
<path fill="none" stroke="midnightblue" d="M260.507,-530.93C281.435,-528.284 306.159,-525.158 328.138,-522.379"/>
<polygon fill="midnightblue" stroke="midnightblue" points="328.866,-525.815 338.348,-521.088 327.988,-518.87 328.866,-525.815"/>
</g>
<!-- Node27 -->
<g id="node27" class="node"><title>Node27</title>
<g id="a_node27"><a xlink:href="namespacepdal_1_1Utils.html#a28e3e2faff94b20f9908e77bc54ed983" target="_top" xlink:title="pdal::Utils::toupper">
<polygon fill="white" stroke="black" points="530.5,-563.5 530.5,-582.5 629.5,-582.5 629.5,-563.5 530.5,-563.5"/>
<text text-anchor="middle" x="580" y="-570.5" font-family="Helvetica,sans-Serif" font-size="10.00">pdal::Utils::toupper</text>
</a>
</g>
</g>
<!-- Node26&#45;&gt;Node27 -->
<g id="edge27" class="edge"><title>Node26&#45;&gt;Node27</title>
<path fill="none" stroke="midnightblue" d="M438.054,-562.642C463.164,-564.487 493.826,-566.74 520.131,-568.674"/>
<polygon fill="midnightblue" stroke="midnightblue" points="520.123,-572.182 530.353,-569.425 520.636,-565.201 520.123,-572.182"/>
</g>
<!-- Node29 -->
<g id="node29" class="node"><title>Node29</title>
<g id="a_node29"><a xlink:href="classpdal_1_1PointLayout.html#abcfdf0f917e71d1bd8a96bc64ff1e8a2" target="_top" xlink:title="pdal::PointLayout::\ldimDetail">
<polygon fill="white" stroke="red" points="531,-688 531,-718 629,-718 629,-688 531,-688"/>
<text text-anchor="start" x="539" y="-706" font-family="Helvetica,sans-Serif" font-size="10.00">pdal::PointLayout::</text>
<text text-anchor="middle" x="580" y="-695" font-family="Helvetica,sans-Serif" font-size="10.00">dimDetail</text>
</a>
</g>
</g>
<!-- Node28&#45;&gt;Node29 -->
<g id="edge29" class="edge"><title>Node28&#45;&gt;Node29</title>
<path fill="none" stroke="midnightblue" d="M436.571,-685.056C462.178,-688.282 493.871,-692.275 520.855,-695.675"/>
<polygon fill="midnightblue" stroke="midnightblue" points="520.585,-699.168 530.944,-696.946 521.46,-692.223 520.585,-699.168"/>
</g>
<!-- Node30 -->
<g id="node30" class="node"><title>Node30</title>
<g id="a_node30"><a xlink:href="classpdal_1_1Dimension_1_1Detail.html#adf5961976b7fce3d90a0dddd50519a7c" target="_top" xlink:title="pdal::Dimension::Detail\l::type">
<polygon fill="white" stroke="black" points="520.5,-639 520.5,-669 639.5,-669 639.5,-639 520.5,-639"/>
<text text-anchor="start" x="528.5" y="-657" font-family="Helvetica,sans-Serif" font-size="10.00">pdal::Dimension::Detail</text>
<text text-anchor="middle" x="580" y="-646" font-family="Helvetica,sans-Serif" font-size="10.00">::type</text>
</a>
</g>
</g>
<!-- Node28&#45;&gt;Node30 -->
<g id="edge30" class="edge"><title>Node28&#45;&gt;Node30</title>
<path fill="none" stroke="midnightblue" d="M436.571,-672.691C458.949,-669.755 485.976,-666.208 510.445,-662.997"/>
<polygon fill="midnightblue" stroke="midnightblue" points="510.935,-666.462 520.395,-661.691 510.024,-659.522 510.935,-666.462"/>
</g>
<!-- Node33&#45;&gt;Node10 -->
<g id="edge52" class="edge"><title>Node33&#45;&gt;Node10</title>
<path fill="none" stroke="midnightblue" d="M260.113,-393.506C331.753,-407.968 459.827,-434.506 468,-441 496.95,-464.001 475.383,-492.587 504,-516 506.047,-517.674 508.222,-519.204 510.495,-520.6"/>
<polygon fill="midnightblue" stroke="midnightblue" points="509.183,-523.863 519.672,-525.355 512.403,-517.647 509.183,-523.863"/>
</g>
<!-- Node33&#45;&gt;Node24 -->
<g id="edge62" class="edge"><title>Node33&#45;&gt;Node24</title>
<path fill="none" stroke="midnightblue" d="M216.863,-393.524C234.366,-431.65 298.927,-571.524 307,-578 309.74,-580.198 312.693,-582.148 315.792,-583.878"/>
<polygon fill="midnightblue" stroke="midnightblue" points="314.326,-587.057 324.86,-588.194 317.335,-580.736 314.326,-587.057"/>
</g>
<!-- Node33&#45;&gt;Node32 -->
<g id="edge60" class="edge"><title>Node33&#45;&gt;Node32</title>
<path fill="none" stroke="midnightblue" d="M228.195,-393.541C246.66,-404.551 278.43,-422.83 307,-436 315.461,-439.9 324.586,-443.702 333.532,-447.217"/>
<polygon fill="midnightblue" stroke="midnightblue" points="332.54,-450.585 343.13,-450.908 335.053,-444.052 332.54,-450.585"/>
</g>
<!-- Node33&#45;&gt;Node33 -->
<g id="edge34" class="edge"><title>Node33&#45;&gt;Node33</title>
<path fill="none" stroke="midnightblue" d="M188.072,-393.757C176.675,-402.565 184.484,-412 211.5,-412 229.229,-412 238.686,-407.937 239.872,-402.654"/>
<polygon fill="midnightblue" stroke="midnightblue" points="242.845,-400.797 234.928,-393.757 236.726,-404.198 242.845,-400.797"/>
</g>
<!-- Node34 -->
<g id="node34" class="node"><title>Node34</title>
<g id="a_node34"><a xlink:href="classpdal_1_1Stage.html#a75f17f9b67f48f6aab1d98aadefc4d5c" target="_top" xlink:title="pdal::Stage::handleOptions">
<polygon fill="white" stroke="black" points="320.5,-209.5 320.5,-228.5 454.5,-228.5 454.5,-209.5 320.5,-209.5"/>
<text text-anchor="middle" x="387.5" y="-216.5" font-family="Helvetica,sans-Serif" font-size="10.00">pdal::Stage::handleOptions</text>
</a>
</g>
</g>
<!-- Node33&#45;&gt;Node34 -->
<g id="edge35" class="edge"><title>Node33&#45;&gt;Node34</title>
<path fill="none" stroke="midnightblue" d="M216.997,-374.196C228.56,-349.994 261.631,-286.786 307,-251 317.047,-243.075 329.317,-236.863 341.181,-232.108"/>
<polygon fill="midnightblue" stroke="midnightblue" points="342.419,-235.382 350.56,-228.602 339.967,-228.825 342.419,-235.382"/>
</g>
<!-- Node43 -->
<g id="node43" class="node"><title>Node43</title>
<g id="a_node43"><a xlink:href="classpdal_1_1Stage.html#a6c85dfbf6a674dbc2eda76a79efada48" target="_top" xlink:title="pdal::Stage::l_initialize">
<polygon fill="white" stroke="black" points="330,-336.5 330,-355.5 445,-355.5 445,-336.5 330,-336.5"/>
<text text-anchor="middle" x="387.5" y="-343.5" font-family="Helvetica,sans-Serif" font-size="10.00">pdal::Stage::l_initialize</text>
</a>
</g>
</g>
<!-- Node33&#45;&gt;Node43 -->
<g id="edge53" class="edge"><title>Node33&#45;&gt;Node43</title>
<path fill="none" stroke="midnightblue" d="M256.408,-374.411C279.679,-369.329 308.454,-363.045 333.019,-357.68"/>
<polygon fill="midnightblue" stroke="midnightblue" points="333.885,-361.073 342.908,-355.52 332.392,-354.234 333.885,-361.073"/>
</g>
<!-- Node47 -->
<g id="node47" class="node"><title>Node47</title>
<g id="a_node47"><a xlink:href="classpdal_1_1Stage.html#a5b422f842a6374b448439df99fe6e07e" target="_top" xlink:title="pdal::Stage::initialize">
<polygon fill="white" stroke="black" points="334,-374.5 334,-393.5 441,-393.5 441,-374.5 334,-374.5"/>
<text text-anchor="middle" x="387.5" y="-381.5" font-family="Helvetica,sans-Serif" font-size="10.00">pdal::Stage::initialize</text>
</a>
</g>
</g>
<!-- Node33&#45;&gt;Node47 -->
<g id="edge58" class="edge"><title>Node33&#45;&gt;Node47</title>
<path fill="none" stroke="midnightblue" d="M263.765,-384C282.545,-384 304.014,-384 323.69,-384"/>
<polygon fill="midnightblue" stroke="midnightblue" points="323.793,-387.5 333.793,-384 323.792,-380.5 323.793,-387.5"/>
</g>
<!-- Node48 -->
<g id="node48" class="node"><title>Node48</title>
<g id="a_node48"><a xlink:href="classpdal_1_1Stage.html#a7ec627c76e1c30fc53780bd81d08d4ad" target="_top" xlink:title="pdal::Stage::addDimensions">
<polygon fill="white" stroke="black" points="317.5,-298.5 317.5,-317.5 457.5,-317.5 457.5,-298.5 317.5,-298.5"/>
<text text-anchor="middle" x="387.5" y="-305.5" font-family="Helvetica,sans-Serif" font-size="10.00">pdal::Stage::addDimensions</text>
</a>
</g>
</g>
<!-- Node33&#45;&gt;Node48 -->
<g id="edge59" class="edge"><title>Node33&#45;&gt;Node48</title>
<path fill="none" stroke="midnightblue" d="M225.576,-374.308C243.205,-361.677 275.971,-339.706 307,-327 313.176,-324.471 319.766,-322.23 326.41,-320.256"/>
<polygon fill="midnightblue" stroke="midnightblue" points="327.441,-323.602 336.14,-317.553 325.568,-316.857 327.441,-323.602"/>
</g>
<!-- Node49 -->
<g id="node49" class="node"><title>Node49</title>
<g id="a_node49"><a xlink:href="classpdal_1_1Stage.html#affff6bc9dbff793d074d76333c5732dd" target="_top" xlink:title="pdal::Stage::prepared">
<polygon fill="white" stroke="black" points="332.5,-260.5 332.5,-279.5 442.5,-279.5 442.5,-260.5 332.5,-260.5"/>
<text text-anchor="middle" x="387.5" y="-267.5" font-family="Helvetica,sans-Serif" font-size="10.00">pdal::Stage::prepared</text>
</a>
</g>
</g>
<!-- Node33&#45;&gt;Node49 -->
<g id="edge61" class="edge"><title>Node33&#45;&gt;Node49</title>
<path fill="none" stroke="midnightblue" d="M219.087,-374.467C232.966,-355.146 267.235,-311.311 307,-289 311.873,-286.266 317.128,-283.923 322.531,-281.917"/>
<polygon fill="midnightblue" stroke="midnightblue" points="323.978,-285.124 332.369,-278.655 321.775,-278.48 323.978,-285.124"/>
</g>
<!-- Node35 -->
<g id="node35" class="node"><title>Node35</title>
<g id="a_node35"><a xlink:href="classpdal_1_1Stage.html#a75ff99f7b665c6573e304ed4148dd99e" target="_top" xlink:title="pdal::Stage::addAllArgs">
<polygon fill="white" stroke="red" points="520.5,-247.5 520.5,-266.5 639.5,-266.5 639.5,-247.5 520.5,-247.5"/>
<text text-anchor="middle" x="580" y="-254.5" font-family="Helvetica,sans-Serif" font-size="10.00">pdal::Stage::addAllArgs</text>
</a>
</g>
</g>
<!-- Node34&#45;&gt;Node35 -->
<g id="edge36" class="edge"><title>Node34&#45;&gt;Node35</title>
<path fill="none" stroke="midnightblue" d="M436.571,-228.589C462.276,-233.716 494.113,-240.067 521.164,-245.463"/>
<polygon fill="midnightblue" stroke="midnightblue" points="520.783,-248.956 531.274,-247.48 522.152,-242.091 520.783,-248.956"/>
</g>
<!-- Node36 -->
<g id="node36" class="node"><title>Node36</title>
<g id="a_node36"><a xlink:href="classpdal_1_1Stage.html#a6c81d6fbbac17ebe4cd63806916cc750" target="_top" xlink:title="pdal::Stage::getName">
<polygon fill="white" stroke="black" points="705.5,-304.5 705.5,-323.5 817.5,-323.5 817.5,-304.5 705.5,-304.5"/>
<text text-anchor="middle" x="761.5" y="-311.5" font-family="Helvetica,sans-Serif" font-size="10.00">pdal::Stage::getName</text>
</a>
</g>
</g>
<!-- Node34&#45;&gt;Node36 -->
<g id="edge46" class="edge"><title>Node34&#45;&gt;Node36</title>
<path fill="none" stroke="midnightblue" d="M416.79,-228.624C432.295,-234.332 451.633,-242.168 468,-251 485.143,-260.251 485.889,-268.828 504,-276 565.9,-300.511 641.884,-309.384 695.021,-312.507"/>
<polygon fill="midnightblue" stroke="midnightblue" points="695.161,-316.019 705.333,-313.058 695.534,-309.029 695.161,-316.019"/>
</g>
<!-- Node37 -->
<g id="node37" class="node"><title>Node37</title>
<g id="a_node37"><a xlink:href="classpdal_1_1Options.html#a99aa4c0c7ba443d584f741d22d37f6a5" target="_top" xlink:title="pdal::Options::getValues">
<polygon fill="white" stroke="black" points="518,-209.5 518,-228.5 642,-228.5 642,-209.5 518,-209.5"/>
<text text-anchor="middle" x="580" y="-216.5" font-family="Helvetica,sans-Serif" font-size="10.00">pdal::Options::getValues</text>
</a>
</g>
</g>
<!-- Node34&#45;&gt;Node37 -->
<g id="edge38" class="edge"><title>Node34&#45;&gt;Node37</title>
<path fill="none" stroke="midnightblue" d="M454.593,-219C471.751,-219 490.306,-219 507.718,-219"/>
<polygon fill="midnightblue" stroke="midnightblue" points="507.819,-222.5 517.819,-219 507.819,-215.5 507.819,-222.5"/>
</g>
<!-- Node38 -->
<g id="node38" class="node"><title>Node38</title>
<g id="a_node38"><a xlink:href="classpdal_1_1Options.html#aab2dd4f9208512ad8c38a71ad9d2c98b" target="_top" xlink:title="pdal::Options::addConditional">
<polygon fill="white" stroke="black" points="507.5,-95.5 507.5,-114.5 652.5,-114.5 652.5,-95.5 507.5,-95.5"/>
<text text-anchor="middle" x="580" y="-102.5" font-family="Helvetica,sans-Serif" font-size="10.00">pdal::Options::addConditional</text>
</a>
</g>
</g>
<!-- Node34&#45;&gt;Node38 -->
<g id="edge39" class="edge"><title>Node34&#45;&gt;Node38</title>
<path fill="none" stroke="midnightblue" d="M441.994,-209.367C451.353,-205.941 460.485,-201.296 468,-195 495.12,-172.279 476.375,-146.104 504,-124 506.186,-122.251 508.513,-120.661 510.944,-119.215"/>
<polygon fill="midnightblue" stroke="midnightblue" points="512.777,-122.211 520.134,-114.587 509.628,-115.959 512.777,-122.211"/>
</g>
<!-- Node39 -->
<g id="node39" class="node"><title>Node39</title>
<g id="a_node39"><a xlink:href="classpdal_1_1Options.html#a541bdbfe72511dad8a22236f0a3cb2ab" target="_top" xlink:title="pdal::Options::fromFile">
<polygon fill="white" stroke="red" points="522,-171.5 522,-190.5 638,-190.5 638,-171.5 522,-171.5"/>
<text text-anchor="middle" x="580" y="-178.5" font-family="Helvetica,sans-Serif" font-size="10.00">pdal::Options::fromFile</text>
</a>
</g>
</g>
<!-- Node34&#45;&gt;Node39 -->
<g id="edge42" class="edge"><title>Node34&#45;&gt;Node39</title>
<path fill="none" stroke="midnightblue" d="M436.571,-209.411C462.276,-204.284 494.113,-197.933 521.164,-192.537"/>
<polygon fill="midnightblue" stroke="midnightblue" points="522.152,-195.909 531.274,-190.52 520.783,-189.044 522.152,-195.909"/>
</g>
<!-- Node40 -->
<g id="node40" class="node"><title>Node40</title>
<g id="a_node40"><a xlink:href="classpdal_1_1Options.html#a0d9ebe7f77b36dea85b51eb0098a5df0" target="_top" xlink:title="pdal::Options::remove">
<polygon fill="white" stroke="black" points="523.5,-133.5 523.5,-152.5 636.5,-152.5 636.5,-133.5 523.5,-133.5"/>
<text text-anchor="middle" x="580" y="-140.5" font-family="Helvetica,sans-Serif" font-size="10.00">pdal::Options::remove</text>
</a>
</g>
</g>
<!-- Node34&#45;&gt;Node40 -->
<g id="edge43" class="edge"><title>Node34&#45;&gt;Node40</title>
<path fill="none" stroke="midnightblue" d="M432.858,-209.421C444.718,-205.856 457.225,-201.135 468,-195 486.862,-184.261 484.901,-172.311 504,-162 508.281,-159.689 512.852,-157.651 517.545,-155.856"/>
<polygon fill="midnightblue" stroke="midnightblue" points="518.978,-159.065 527.296,-152.502 516.701,-152.445 518.978,-159.065"/>
</g>
<!-- Node41 -->
<g id="node41" class="node"><title>Node41</title>
<g id="a_node41"><a xlink:href="classpdal_1_1Options.html#afb18dcc4f3883b8413171db00482959c" target="_top" xlink:title="pdal::Options::toCommandLine">
<polygon fill="white" stroke="red" points="504,-57.5 504,-76.5 656,-76.5 656,-57.5 504,-57.5"/>
<text text-anchor="middle" x="580" y="-64.5" font-family="Helvetica,sans-Serif" font-size="10.00">pdal::Options::toCommandLine</text>
</a>
</g>
</g>
<!-- Node34&#45;&gt;Node41 -->
<g id="edge45" class="edge"><title>Node34&#45;&gt;Node41</title>
<path fill="none" stroke="midnightblue" d="M444.834,-209.454C453.377,-206.012 461.495,-201.339 468,-195 504.538,-159.393 466.669,-120.774 504,-86 505.677,-84.4378 507.464,-82.9995 509.338,-81.6755"/>
<polygon fill="midnightblue" stroke="midnightblue" points="511.189,-84.6475 518.048,-76.5724 507.65,-78.6078 511.189,-84.6475"/>
</g>
<!-- Node42 -->
<g id="node42" class="node"><title>Node42</title>
<g id="a_node42"><a xlink:href="classpdal_1_1Stage.html#ab94db25b14b94de1f62f9738327accd2" target="_top" xlink:title="pdal::Stage::setupLog">
<polygon fill="white" stroke="black" points="524,-361.5 524,-380.5 636,-380.5 636,-361.5 524,-361.5"/>
<text text-anchor="middle" x="580" y="-368.5" font-family="Helvetica,sans-Serif" font-size="10.00">pdal::Stage::setupLog</text>
</a>
</g>
</g>
<!-- Node34&#45;&gt;Node42 -->
<g id="edge47" class="edge"><title>Node34&#45;&gt;Node42</title>
<path fill="none" stroke="midnightblue" d="M425.963,-228.633C440.222,-233.622 455.927,-240.852 468,-251 491.225,-270.522 484.046,-286.146 504,-309 519.656,-326.932 540.799,-343.907 556.646,-355.546"/>
<polygon fill="midnightblue" stroke="midnightblue" points="554.674,-358.439 564.836,-361.436 558.761,-352.756 554.674,-358.439"/>
</g>
<!-- Node35&#45;&gt;Node36 -->
<g id="edge37" class="edge"><title>Node35&#45;&gt;Node36</title>
<path fill="none" stroke="midnightblue" d="M611.044,-266.541C641.073,-276.076 687.42,-290.794 720.537,-301.31"/>
<polygon fill="midnightblue" stroke="midnightblue" points="719.767,-304.738 730.358,-304.428 721.886,-298.066 719.767,-304.738"/>
</g>
<!-- Node38&#45;&gt;Node3 -->
<g id="edge40" class="edge"><title>Node38&#45;&gt;Node3</title>
<path fill="none" stroke="midnightblue" d="M621.688,-95.4855C632.872,-92.6553 644.959,-89.3966 656,-86 679.943,-78.6343 706.464,-68.972 726.797,-61.234"/>
<polygon fill="midnightblue" stroke="midnightblue" points="728.161,-64.4593 736.243,-57.6084 725.653,-57.9242 728.161,-64.4593"/>
</g>
<!-- Node38&#45;&gt;Node8 -->
<g id="edge41" class="edge"><title>Node38&#45;&gt;Node8</title>
<path fill="none" stroke="midnightblue" d="M652.717,-105C666.257,-105 680.368,-105 693.748,-105"/>
<polygon fill="midnightblue" stroke="midnightblue" points="693.816,-108.5 703.816,-105 693.816,-101.5 693.816,-108.5"/>
</g>
<!-- Node40&#45;&gt;Node8 -->
<g id="edge44" class="edge"><title>Node40&#45;&gt;Node8</title>
<path fill="none" stroke="midnightblue" d="M626.295,-133.411C650.409,-128.306 680.251,-121.989 705.667,-116.608"/>
<polygon fill="midnightblue" stroke="midnightblue" points="706.472,-120.015 715.53,-114.52 705.022,-113.167 706.472,-120.015"/>
</g>
<!-- Node42&#45;&gt;Node11 -->
<g id="edge49" class="edge"><title>Node42&#45;&gt;Node11</title>
<path fill="none" stroke="midnightblue" d="M636.321,-376.856C653.877,-378.714 673.506,-380.792 691.882,-382.737"/>
<polygon fill="midnightblue" stroke="midnightblue" points="691.627,-386.229 701.94,-383.801 692.364,-379.268 691.627,-386.229"/>
</g>
<!-- Node42&#45;&gt;Node13 -->
<g id="edge50" class="edge"><title>Node42&#45;&gt;Node13</title>
<path fill="none" stroke="midnightblue" d="M629.033,-380.58C638.177,-383.123 647.53,-386.237 656,-390 673.574,-397.807 675.41,-404.276 692,-414 704.546,-421.354 718.812,-428.784 731.066,-434.895"/>
<polygon fill="midnightblue" stroke="midnightblue" points="729.872,-438.209 740.39,-439.487 732.965,-431.929 729.872,-438.209"/>
</g>
<!-- Node42&#45;&gt;Node15 -->
<g id="edge51" class="edge"><title>Node42&#45;&gt;Node15</title>
<path fill="none" stroke="midnightblue" d="M636.21,-378.869C643.371,-381.58 650.214,-385.193 656,-390 685.368,-414.399 668.754,-437.711 692,-468 704.559,-484.364 722.616,-499.143 737.038,-509.551"/>
<polygon fill="midnightblue" stroke="midnightblue" points="735.265,-512.581 745.467,-515.441 739.275,-506.844 735.265,-512.581"/>
</g>
<!-- Node42&#45;&gt;Node36 -->
<g id="edge48" class="edge"><title>Node42&#45;&gt;Node36</title>
<path fill="none" stroke="midnightblue" d="M611.044,-361.459C641.073,-351.924 687.42,-337.206 720.537,-326.69"/>
<polygon fill="midnightblue" stroke="midnightblue" points="721.886,-329.934 730.358,-323.572 719.767,-323.262 721.886,-329.934"/>
</g>
<!-- Node43&#45;&gt;Node36 -->
<g id="edge56" class="edge"><title>Node43&#45;&gt;Node36</title>
<path fill="none" stroke="midnightblue" d="M445.404,-341.105C512.719,-335.315 624.548,-325.695 695.294,-319.609"/>
<polygon fill="midnightblue" stroke="midnightblue" points="695.76,-323.082 705.423,-318.738 695.16,-316.108 695.76,-323.082"/>
</g>
<!-- Node44 -->
<g id="node44" class="node"><title>Node44</title>
<g id="a_node44"><a xlink:href="classpdal_1_1BasePointTable.html#a03429472e71e5dd323bc92319f4a9df6" target="_top" xlink:title="pdal::BasePointTable\l::metadata">
<polygon fill="white" stroke="black" points="525,-438 525,-468 635,-468 635,-438 525,-438"/>
<text text-anchor="start" x="533" y="-456" font-family="Helvetica,sans-Serif" font-size="10.00">pdal::BasePointTable</text>
<text text-anchor="middle" x="580" y="-445" font-family="Helvetica,sans-Serif" font-size="10.00">::metadata</text>
</a>
</g>
</g>
<!-- Node43&#45;&gt;Node44 -->
<g id="edge54" class="edge"><title>Node43&#45;&gt;Node44</title>
<path fill="none" stroke="midnightblue" d="M445.376,-353.518C453.466,-356.263 461.3,-359.979 468,-365 493.807,-384.34 479.06,-407.554 504,-428 507.559,-430.918 511.473,-433.5 515.586,-435.785"/>
<polygon fill="midnightblue" stroke="midnightblue" points="514.333,-439.068 524.853,-440.326 517.413,-432.782 514.333,-439.068"/>
</g>
<!-- Node45 -->
<g id="node45" class="node"><title>Node45</title>
<g id="a_node45"><a xlink:href="classpdal_1_1MetadataNode.html#af2c1c5d91f6ab47a804aa8a0a1b043c2" target="_top" xlink:title="pdal::MetadataNode::add">
<polygon fill="white" stroke="black" points="517,-399.5 517,-418.5 643,-418.5 643,-399.5 517,-399.5"/>
<text text-anchor="middle" x="580" y="-406.5" font-family="Helvetica,sans-Serif" font-size="10.00">pdal::MetadataNode::add</text>
</a>
</g>
</g>
<!-- Node43&#45;&gt;Node45 -->
<g id="edge55" class="edge"><title>Node43&#45;&gt;Node45</title>
<path fill="none" stroke="midnightblue" d="M440.745,-355.54C450.026,-358.058 459.451,-361.174 468,-365 485.78,-372.957 486.274,-381.923 504,-390 509.325,-392.426 515.009,-394.577 520.776,-396.476"/>
<polygon fill="midnightblue" stroke="midnightblue" points="519.926,-399.875 530.512,-399.437 521.963,-393.178 519.926,-399.875"/>
</g>
<!-- Node46 -->
<g id="node46" class="node"><title>Node46</title>
<g id="a_node46"><a xlink:href="classpdal_1_1Stage.html#a0d7c0bb23ed18577b1aa58b02448487f" target="_top" xlink:title="pdal::Stage::writerInitialize">
<polygon fill="white" stroke="black" points="514,-487.5 514,-506.5 646,-506.5 646,-487.5 514,-487.5"/>
<text text-anchor="middle" x="580" y="-494.5" font-family="Helvetica,sans-Serif" font-size="10.00">pdal::Stage::writerInitialize</text>
</a>
</g>
</g>
<!-- Node43&#45;&gt;Node46 -->
<g id="edge57" class="edge"><title>Node43&#45;&gt;Node46</title>
<path fill="none" stroke="midnightblue" d="M445.15,-351.895C453.554,-354.823 461.546,-359.021 468,-365 506.357,-400.533 466.108,-440.971 504,-477 505.965,-478.869 508.085,-480.567 510.323,-482.111"/>
<polygon fill="midnightblue" stroke="midnightblue" points="509.043,-485.41 519.463,-487.328 512.514,-479.331 509.043,-485.41"/>
</g>
</g>
</svg>
