<?xml version="1.0" encoding="UTF-8" standalone="no"?>
<!DOCTYPE svg PUBLIC "-//W3C//DTD SVG 1.1//EN"
 "http://www.w3.org/Graphics/SVG/1.1/DTD/svg11.dtd">
<!-- Generated by graphviz version 2.38.0 (20140413.2041)
 -->
<!-- Title: pdal::ProgramArgs::validate Pages: 1 -->
<svg width="252pt" height="116pt"
 viewBox="0.00 0.00 252.00 115.50" xmlns="http://www.w3.org/2000/svg" xmlns:xlink="http://www.w3.org/1999/xlink">
<g id="graph0" class="graph" transform="scale(1 1) rotate(0) translate(4 111.5)">
<title>pdal::ProgramArgs::validate</title>
<polygon fill="white" stroke="none" points="-4,4 -4,-111.5 248,-111.5 248,4 -4,4"/>
<!-- Node1 -->
<g id="node1" class="node"><title>Node1</title>
<polygon fill="#bfbfbf" stroke="black" points="0,-33 0,-63 104,-63 104,-33 0,-33"/>
<text text-anchor="start" x="8" y="-51" font-family="Helvetica,sans-Serif" font-size="10.00">pdal::ProgramArgs::</text>
<text text-anchor="middle" x="52" y="-40" font-family="Helvetica,sans-Serif" font-size="10.00">validate</text>
</g>
<!-- Node2 -->
<g id="node2" class="node"><title>Node2</title>
<g id="a_node2"><a xlink:href="classpdal_1_1arg__error.html#a9c69d74938ebdf04e76cad0724f87d51" target="_top" xlink:title="pdal::arg_error::arg\l_error">
<polygon fill="white" stroke="black" points="143,-77 143,-107 241,-107 241,-77 143,-77"/>
<text text-anchor="start" x="151" y="-95" font-family="Helvetica,sans-Serif" font-size="10.00">pdal::arg_error::arg</text>
<text text-anchor="middle" x="192" y="-84" font-family="Helvetica,sans-Serif" font-size="10.00">_error</text>
</a>
</g>
</g>
<!-- Node1&#45;&gt;Node2 -->
<g id="edge1" class="edge"><title>Node1&#45;&gt;Node2</title>
<path fill="none" stroke="midnightblue" d="M100.106,-63.0192C110.976,-66.4852 122.655,-70.2089 133.9,-73.7941"/>
<polygon fill="midnightblue" stroke="midnightblue" points="133.047,-77.1959 143.638,-76.8991 135.174,-70.5267 133.047,-77.1959"/>
</g>
<!-- Node3 -->
<g id="node3" class="node"><title>Node3</title>
<g id="a_node3"><a xlink:href="classpdal_1_1Arg.html#a70d1a737ace051dea6625311aa7ef073" target="_top" xlink:title="pdal::Arg::longname">
<polygon fill="white" stroke="black" points="140,-38.5 140,-57.5 244,-57.5 244,-38.5 140,-38.5"/>
<text text-anchor="middle" x="192" y="-45.5" font-family="Helvetica,sans-Serif" font-size="10.00">pdal::Arg::longname</text>
</a>
</g>
</g>
<!-- Node1&#45;&gt;Node3 -->
<g id="edge2" class="edge"><title>Node1&#45;&gt;Node3</title>
<path fill="none" stroke="midnightblue" d="M104.386,-48C112.558,-48 121.083,-48 129.46,-48"/>
<polygon fill="midnightblue" stroke="midnightblue" points="129.571,-51.5001 139.571,-48 129.571,-44.5001 129.571,-51.5001"/>
</g>
<!-- Node4 -->
<g id="node4" class="node"><title>Node4</title>
<g id="a_node4"><a xlink:href="classpdal_1_1Arg.html#a4b79c0275fed0c6292b765b1edc4ba24" target="_top" xlink:title="pdal::Arg::positional">
<polygon fill="white" stroke="black" points="140.5,-0.5 140.5,-19.5 243.5,-19.5 243.5,-0.5 140.5,-0.5"/>
<text text-anchor="middle" x="192" y="-7.5" font-family="Helvetica,sans-Serif" font-size="10.00">pdal::Arg::positional</text>
</a>
</g>
</g>
<!-- Node1&#45;&gt;Node4 -->
<g id="edge3" class="edge"><title>Node1&#45;&gt;Node4</title>
<path fill="none" stroke="midnightblue" d="M104.386,-33.8502C118.187,-30.05 132.995,-25.9723 146.395,-22.2825"/>
<polygon fill="midnightblue" stroke="midnightblue" points="147.615,-25.5769 156.327,-19.5476 145.757,-18.8281 147.615,-25.5769"/>
</g>
</g>
</svg>
