<?xml version="1.0" encoding="UTF-8" standalone="no"?>
<!DOCTYPE svg PUBLIC "-//W3C//DTD SVG 1.1//EN"
 "http://www.w3.org/Graphics/SVG/1.1/DTD/svg11.dtd">
<!-- Generated by graphviz version 2.38.0 (20140413.2041)
 -->
<!-- Title: pdal::MyReader::MyReader Pages: 1 -->
<svg width="312pt" height="104pt"
 viewBox="0.00 0.00 312.00 104.00" xmlns="http://www.w3.org/2000/svg" xmlns:xlink="http://www.w3.org/1999/xlink">
<g id="graph0" class="graph" transform="scale(1 1) rotate(0) translate(4 100)">
<title>pdal::MyReader::MyReader</title>
<polygon fill="white" stroke="none" points="-4,4 -4,-100 308,-100 308,4 -4,4"/>
<!-- Node1 -->
<g id="node1" class="node"><title>Node1</title>
<polygon fill="#bfbfbf" stroke="black" points="0,-38.5 0,-57.5 137,-57.5 137,-38.5 0,-38.5"/>
<text text-anchor="middle" x="68.5" y="-45.5" font-family="Helvetica,sans-Serif" font-size="10.00">pdal::MyReader::MyReader</text>
</g>
<!-- Node2 -->
<g id="node2" class="node"><title>Node2</title>
<g id="a_node2"><a xlink:href="classpdal_1_1MyReader.html#ab1a18ddbfdd423ddd5dcd7187f13af87" target="_top" xlink:title="pdal::MyReader::create">
<polygon fill="white" stroke="black" points="179,-76.5 179,-95.5 298,-95.5 298,-76.5 179,-76.5"/>
<text text-anchor="middle" x="238.5" y="-83.5" font-family="Helvetica,sans-Serif" font-size="10.00">pdal::MyReader::create</text>
</a>
</g>
</g>
<!-- Node1&#45;&gt;Node2 -->
<g id="edge1" class="edge"><title>Node1&#45;&gt;Node2</title>
<path fill="none" stroke="midnightblue" d="M111.893,-57.589C134.263,-62.6487 161.898,-68.8996 185.547,-74.2488"/>
<polygon fill="midnightblue" stroke="midnightblue" points="184.886,-77.6875 195.411,-76.4799 186.43,-70.8599 184.886,-77.6875"/>
</g>
<!-- Node3 -->
<g id="node3" class="node"><title>Node3</title>
<g id="a_node3"><a xlink:href="classpdal_1_1MyReader.html#ad731ec69f730d1f5b61c7f707036f232" target="_top" xlink:title="pdal::MyReader::destroy">
<polygon fill="white" stroke="black" points="176.5,-38.5 176.5,-57.5 300.5,-57.5 300.5,-38.5 176.5,-38.5"/>
<text text-anchor="middle" x="238.5" y="-45.5" font-family="Helvetica,sans-Serif" font-size="10.00">pdal::MyReader::destroy</text>
</a>
</g>
</g>
<!-- Node1&#45;&gt;Node3 -->
<g id="edge2" class="edge"><title>Node1&#45;&gt;Node3</title>
<path fill="none" stroke="midnightblue" d="M137.348,-48C146.844,-48 156.627,-48 166.186,-48"/>
<polygon fill="midnightblue" stroke="midnightblue" points="166.445,-51.5001 176.445,-48 166.445,-44.5001 166.445,-51.5001"/>
</g>
<!-- Node4 -->
<g id="node4" class="node"><title>Node4</title>
<g id="a_node4"><a xlink:href="classpdal_1_1MyReader.html#a2698a24f712f581c23cd067f19f4e633" target="_top" xlink:title="pdal::MyReader::getName">
<polygon fill="white" stroke="black" points="173,-0.5 173,-19.5 304,-19.5 304,-0.5 173,-0.5"/>
<text text-anchor="middle" x="238.5" y="-7.5" font-family="Helvetica,sans-Serif" font-size="10.00">pdal::MyReader::getName</text>
</a>
</g>
</g>
<!-- Node1&#45;&gt;Node4 -->
<g id="edge3" class="edge"><title>Node1&#45;&gt;Node4</title>
<path fill="none" stroke="midnightblue" d="M111.893,-38.411C134.263,-33.3513 161.898,-27.1004 185.547,-21.7512"/>
<polygon fill="midnightblue" stroke="midnightblue" points="186.43,-25.1401 195.411,-19.5201 184.886,-18.3125 186.43,-25.1401"/>
</g>
</g>
</svg>
