<?xml version="1.0" encoding="UTF-8" standalone="no"?>
<!DOCTYPE svg PUBLIC "-//W3C//DTD SVG 1.1//EN"
 "http://www.w3.org/Graphics/SVG/1.1/DTD/svg11.dtd">
<!-- Generated by graphviz version 2.38.0 (20140413.2041)
 -->
<!-- Title: pdal::stats::Summary::computeGlobalStats Pages: 1 -->
<svg width="414pt" height="78pt"
 viewBox="0.00 0.00 414.00 77.50" xmlns="http://www.w3.org/2000/svg" xmlns:xlink="http://www.w3.org/1999/xlink">
<g id="graph0" class="graph" transform="scale(1 1) rotate(0) translate(4 73.5)">
<title>pdal::stats::Summary::computeGlobalStats</title>
<polygon fill="white" stroke="none" points="-4,4 -4,-73.5 410,-73.5 410,4 -4,4"/>
<!-- Node1 -->
<g id="node1" class="node"><title>Node1</title>
<polygon fill="#bfbfbf" stroke="black" points="0,-22.5 0,-52.5 111,-52.5 111,-22.5 0,-22.5"/>
<text text-anchor="start" x="8" y="-40.5" font-family="Helvetica,sans-Serif" font-size="10.00">pdal::stats::Summary</text>
<text text-anchor="middle" x="55.5" y="-29.5" font-family="Helvetica,sans-Serif" font-size="10.00">::computeGlobalStats</text>
</g>
<!-- Node2 -->
<g id="node2" class="node"><title>Node2</title>
<g id="a_node2"><a xlink:href="classpdal_1_1stats_1_1Summary.html#af796af3387dc44ffe6dea09f28a793dc" target="_top" xlink:title="pdal::stats::Summary\l::extractMetadata">
<polygon fill="white" stroke="black" points="147,-22.5 147,-52.5 257,-52.5 257,-22.5 147,-22.5"/>
<text text-anchor="start" x="155" y="-40.5" font-family="Helvetica,sans-Serif" font-size="10.00">pdal::stats::Summary</text>
<text text-anchor="middle" x="202" y="-29.5" font-family="Helvetica,sans-Serif" font-size="10.00">::extractMetadata</text>
</a>
</g>
</g>
<!-- Node1&#45;&gt;Node2 -->
<g id="edge1" class="edge"><title>Node1&#45;&gt;Node2</title>
<path fill="none" stroke="midnightblue" d="M121.38,-37.5C129.865,-37.5 138.488,-37.5 146.773,-37.5"/>
<polygon fill="midnightblue" stroke="midnightblue" points="121.129,-34.0001 111.129,-37.5 121.129,-41.0001 121.129,-34.0001"/>
</g>
<!-- Node3 -->
<g id="node3" class="node"><title>Node3</title>
<g id="a_node3"><a xlink:href="classpdal_1_1StatsFilter.html#af31e8e0558e26c2b831bd8dc50579d4a" target="_top" xlink:title="pdal::StatsFilter::done">
<polygon fill="white" stroke="black" points="293,-50 293,-69 406,-69 406,-50 293,-50"/>
<text text-anchor="middle" x="349.5" y="-57" font-family="Helvetica,sans-Serif" font-size="10.00">pdal::StatsFilter::done</text>
</a>
</g>
</g>
<!-- Node2&#45;&gt;Node3 -->
<g id="edge2" class="edge"><title>Node2&#45;&gt;Node3</title>
<path fill="none" stroke="midnightblue" d="M267.128,-47.1963C275.691,-48.491 284.415,-49.8102 292.818,-51.0807"/>
<polygon fill="midnightblue" stroke="midnightblue" points="267.59,-43.7264 257.179,-45.692 266.543,-50.6478 267.59,-43.7264"/>
</g>
<!-- Node4 -->
<g id="node4" class="node"><title>Node4</title>
<g id="a_node4"><a xlink:href="classpdal_1_1StatsFilter.html#a374631f225f1fba0918b159c1353142e" target="_top" xlink:title="pdal::StatsFilter::\lextractMetadata">
<polygon fill="white" stroke="black" points="303.5,-0.5 303.5,-30.5 395.5,-30.5 395.5,-0.5 303.5,-0.5"/>
<text text-anchor="start" x="311.5" y="-18.5" font-family="Helvetica,sans-Serif" font-size="10.00">pdal::StatsFilter::</text>
<text text-anchor="middle" x="349.5" y="-7.5" font-family="Helvetica,sans-Serif" font-size="10.00">extractMetadata</text>
</a>
</g>
</g>
<!-- Node2&#45;&gt;Node4 -->
<g id="edge3" class="edge"><title>Node2&#45;&gt;Node4</title>
<path fill="none" stroke="midnightblue" d="M267.283,-27.7802C279.437,-25.9425 291.911,-24.0564 303.323,-22.3309"/>
<polygon fill="midnightblue" stroke="midnightblue" points="266.543,-24.3522 257.179,-29.308 267.59,-31.2736 266.543,-24.3522"/>
</g>
</g>
</svg>
