<?xml version="1.0" encoding="UTF-8" standalone="no"?>
<!DOCTYPE svg PUBLIC "-//W3C//DTD SVG 1.1//EN"
 "http://www.w3.org/Graphics/SVG/1.1/DTD/svg11.dtd">
<!-- Generated by graphviz version 2.38.0 (20140413.2041)
 -->
<!-- Title: pdal::TextReader::addDimensions Pages: 1 -->
<svg width="1403pt" height="480pt"
 viewBox="0.00 0.00 1403.00 480.15" xmlns="http://www.w3.org/2000/svg" xmlns:xlink="http://www.w3.org/1999/xlink">
<g id="graph0" class="graph" transform="scale(1 1) rotate(0) translate(4 476.151)">
<title>pdal::TextReader::addDimensions</title>
<polygon fill="white" stroke="none" points="-4,4 -4,-476.151 1399,-476.151 1399,4 -4,4"/>
<!-- Node1 -->
<g id="node1" class="node"><title>Node1</title>
<polygon fill="#bfbfbf" stroke="black" points="0,-292.5 0,-311.5 165,-311.5 165,-292.5 0,-292.5"/>
<text text-anchor="middle" x="82.5" y="-299.5" font-family="Helvetica,sans-Serif" font-size="10.00">pdal::TextReader::addDimensions</text>
</g>
<!-- Node2 -->
<g id="node2" class="node"><title>Node2</title>
<g id="a_node2"><a xlink:href="namespacepdal_1_1Utils.html#a3e140e4c0c21d020c56c0b8d58b8cb5b" target="_top" xlink:title="pdal::Utils::contains">
<polygon fill="white" stroke="black" points="705,-415.5 705,-434.5 809,-434.5 809,-415.5 705,-415.5"/>
<text text-anchor="middle" x="757" y="-422.5" font-family="Helvetica,sans-Serif" font-size="10.00">pdal::Utils::contains</text>
</a>
</g>
</g>
<!-- Node1&#45;&gt;Node2 -->
<g id="edge1" class="edge"><title>Node1&#45;&gt;Node2</title>
<path fill="none" stroke="midnightblue" d="M98.583,-311.649C120.474,-325.347 162.634,-350.586 201,-367 333.728,-423.786 368.291,-442.194 511,-464 574.266,-473.667 592.083,-475.725 655,-464 680.725,-459.206 708.341,-448.092 728.182,-438.95"/>
<polygon fill="midnightblue" stroke="midnightblue" points="729.714,-442.097 737.256,-434.657 726.72,-435.77 729.714,-442.097"/>
</g>
<!-- Node3 -->
<g id="node3" class="node"><title>Node3</title>
<g id="a_node3"><a xlink:href="namespacepdal_1_1Dimension.html#af3176b0b7e6b4be000317846cf7c2718" target="_top" xlink:title="pdal::Dimension::name">
<polygon fill="white" stroke="black" points="524.5,-435.5 524.5,-454.5 641.5,-454.5 641.5,-435.5 524.5,-435.5"/>
<text text-anchor="middle" x="583" y="-442.5" font-family="Helvetica,sans-Serif" font-size="10.00">pdal::Dimension::name</text>
</a>
</g>
</g>
<!-- Node1&#45;&gt;Node3 -->
<g id="edge2" class="edge"><title>Node1&#45;&gt;Node3</title>
<path fill="none" stroke="midnightblue" d="M116.982,-311.605C204.691,-336.765 441.102,-404.582 538.823,-432.614"/>
<polygon fill="midnightblue" stroke="midnightblue" points="538.086,-436.044 548.664,-435.437 540.016,-429.315 538.086,-436.044"/>
</g>
<!-- Node4 -->
<g id="node4" class="node"><title>Node4</title>
<g id="a_node4"><a xlink:href="classpdal_1_1PointLayout.html#a5eb18bf1cedb4bd97f5db6a094b10360" target="_top" xlink:title="pdal::PointLayout::\lregisterOrAssignDim">
<polygon fill="white" stroke="black" points="206,-287 206,-317 313,-317 313,-287 206,-287"/>
<text text-anchor="start" x="214" y="-305" font-family="Helvetica,sans-Serif" font-size="10.00">pdal::PointLayout::</text>
<text text-anchor="middle" x="259.5" y="-294" font-family="Helvetica,sans-Serif" font-size="10.00">registerOrAssignDim</text>
</a>
</g>
</g>
<!-- Node1&#45;&gt;Node4 -->
<g id="edge3" class="edge"><title>Node1&#45;&gt;Node4</title>
<path fill="none" stroke="midnightblue" d="M165.108,-302C175.425,-302 185.852,-302 195.811,-302"/>
<polygon fill="midnightblue" stroke="midnightblue" points="195.996,-305.5 205.996,-302 195.996,-298.5 195.996,-305.5"/>
</g>
<!-- Node19 -->
<g id="node19" class="node"><title>Node19</title>
<g id="a_node19"><a xlink:href="classpdal_1_1Stage.html#abdbd1176da12dfd882d931a43290797f" target="_top" xlink:title="pdal::Stage::throwError">
<polygon fill="white" stroke="black" points="201,-226.5 201,-245.5 318,-245.5 318,-226.5 201,-226.5"/>
<text text-anchor="middle" x="259.5" y="-233.5" font-family="Helvetica,sans-Serif" font-size="10.00">pdal::Stage::throwError</text>
</a>
</g>
</g>
<!-- Node1&#45;&gt;Node19 -->
<g id="edge25" class="edge"><title>Node1&#45;&gt;Node19</title>
<path fill="none" stroke="midnightblue" d="M108.947,-292.403C139.231,-280.982 189.947,-261.854 223.808,-249.084"/>
<polygon fill="midnightblue" stroke="midnightblue" points="225.185,-252.305 233.307,-245.501 222.715,-245.756 225.185,-252.305"/>
</g>
<!-- Node21 -->
<g id="node21" class="node"><title>Node21</title>
<g id="a_node21"><a xlink:href="namespacepdal_1_1Utils.html#ac5d9d3dfd3f4611182c07aa85e27c1e4" target="_top" xlink:title="pdal::Utils::trim">
<polygon fill="white" stroke="black" points="218,-98.5 218,-117.5 301,-117.5 301,-98.5 218,-98.5"/>
<text text-anchor="middle" x="259.5" y="-105.5" font-family="Helvetica,sans-Serif" font-size="10.00">pdal::Utils::trim</text>
</a>
</g>
</g>
<!-- Node1&#45;&gt;Node21 -->
<g id="edge27" class="edge"><title>Node1&#45;&gt;Node21</title>
<path fill="none" stroke="midnightblue" d="M92.1783,-292.38C119.994,-261.544 207.191,-164.88 242.958,-125.23"/>
<polygon fill="midnightblue" stroke="midnightblue" points="245.67,-127.448 249.769,-117.679 240.472,-122.76 245.67,-127.448"/>
</g>
<!-- Node5 -->
<g id="node5" class="node"><title>Node5</title>
<g id="a_node5"><a xlink:href="classpdal_1_1PointLayout.html#a62c64539215e8136b502e025627657ca" target="_top" xlink:title="pdal::PointLayout::\lassignDim">
<polygon fill="white" stroke="black" points="365.5,-340 365.5,-370 463.5,-370 463.5,-340 365.5,-340"/>
<text text-anchor="start" x="373.5" y="-358" font-family="Helvetica,sans-Serif" font-size="10.00">pdal::PointLayout::</text>
<text text-anchor="middle" x="414.5" y="-347" font-family="Helvetica,sans-Serif" font-size="10.00">assignDim</text>
</a>
</g>
</g>
<!-- Node4&#45;&gt;Node5 -->
<g id="edge4" class="edge"><title>Node4&#45;&gt;Node5</title>
<path fill="none" stroke="midnightblue" d="M303.934,-317.046C321.458,-323.116 341.848,-330.179 360.254,-336.555"/>
<polygon fill="midnightblue" stroke="midnightblue" points="359.362,-339.95 369.957,-339.916 361.654,-333.336 359.362,-339.95"/>
</g>
<!-- Node6 -->
<g id="node6" class="node"><title>Node6</title>
<g id="a_node6"><a xlink:href="namespacepdal_1_1Dimension.html#a10b4c693e3bdbdf1a0eec8f4b008a291" target="_top" xlink:title="pdal::Dimension::id">
<polygon fill="white" stroke="black" points="532.5,-271.5 532.5,-290.5 633.5,-290.5 633.5,-271.5 532.5,-271.5"/>
<text text-anchor="middle" x="583" y="-278.5" font-family="Helvetica,sans-Serif" font-size="10.00">pdal::Dimension::id</text>
</a>
</g>
</g>
<!-- Node4&#45;&gt;Node6 -->
<g id="edge22" class="edge"><title>Node4&#45;&gt;Node6</title>
<path fill="none" stroke="midnightblue" d="M313.229,-298.556C370.654,-294.805 462.307,-288.818 522.327,-284.898"/>
<polygon fill="midnightblue" stroke="midnightblue" points="522.663,-288.383 532.413,-284.239 522.206,-281.398 522.663,-288.383"/>
</g>
<!-- Node17 -->
<g id="node17" class="node"><title>Node17</title>
<g id="a_node17"><a xlink:href="classpdal_1_1PointLayout.html#ac18a9b8b3dd23c601df823e84d90f61e" target="_top" xlink:title="pdal::PointLayout::\lregisterDim">
<polygon fill="white" stroke="black" points="365.5,-243 365.5,-273 463.5,-273 463.5,-243 365.5,-243"/>
<text text-anchor="start" x="373.5" y="-261" font-family="Helvetica,sans-Serif" font-size="10.00">pdal::PointLayout::</text>
<text text-anchor="middle" x="414.5" y="-250" font-family="Helvetica,sans-Serif" font-size="10.00">registerDim</text>
</a>
</g>
</g>
<!-- Node4&#45;&gt;Node17 -->
<g id="edge23" class="edge"><title>Node4&#45;&gt;Node17</title>
<path fill="none" stroke="midnightblue" d="M312.726,-286.981C326.582,-282.996 341.624,-278.67 355.756,-274.606"/>
<polygon fill="midnightblue" stroke="midnightblue" points="356.725,-277.969 365.368,-271.842 354.79,-271.242 356.725,-277.969"/>
</g>
<!-- Node5&#45;&gt;Node3 -->
<g id="edge7" class="edge"><title>Node5&#45;&gt;Node3</title>
<path fill="none" stroke="midnightblue" d="M433.908,-370.053C452.458,-384.643 482.363,-406.62 511,-421 519.369,-425.202 528.643,-428.938 537.653,-432.138"/>
<polygon fill="midnightblue" stroke="midnightblue" points="536.676,-435.503 547.27,-435.397 538.923,-428.873 536.676,-435.503"/>
</g>
<!-- Node5&#45;&gt;Node6 -->
<g id="edge5" class="edge"><title>Node5&#45;&gt;Node6</title>
<path fill="none" stroke="midnightblue" d="M441.716,-339.852C460.607,-329.291 486.91,-315.303 511,-305 520.421,-300.971 530.765,-297.149 540.572,-293.789"/>
<polygon fill="midnightblue" stroke="midnightblue" points="541.769,-297.079 550.146,-290.592 539.552,-290.44 541.769,-297.079"/>
</g>
<!-- Node8 -->
<g id="node8" class="node"><title>Node8</title>
<g id="a_node8"><a xlink:href="classpdal_1_1PointLayout.html#aa1b5a748ef7b9467b4977606a7f61aa5" target="_top" xlink:title="pdal::PointLayout::\lresolveType">
<polygon fill="white" stroke="black" points="708,-290 708,-320 806,-320 806,-290 708,-290"/>
<text text-anchor="start" x="716" y="-308" font-family="Helvetica,sans-Serif" font-size="10.00">pdal::PointLayout::</text>
<text text-anchor="middle" x="757" y="-297" font-family="Helvetica,sans-Serif" font-size="10.00">resolveType</text>
</a>
</g>
</g>
<!-- Node5&#45;&gt;Node8 -->
<g id="edge8" class="edge"><title>Node5&#45;&gt;Node8</title>
<path fill="none" stroke="midnightblue" d="M463.527,-346.042C478.692,-343.323 495.526,-340.418 511,-338 574.672,-328.049 647.939,-318.419 697.641,-312.156"/>
<polygon fill="midnightblue" stroke="midnightblue" points="698.08,-315.628 707.567,-310.91 697.209,-308.683 698.08,-315.628"/>
</g>
<!-- Node10 -->
<g id="node10" class="node"><title>Node10</title>
<g id="a_node10"><a xlink:href="namespacepdal_1_1Utils.html#a59253304d0f929e3a3ea00f09636002f" target="_top" xlink:title="pdal::Utils::toNative">
<polygon fill="white" stroke="black" points="1009,-318.5 1009,-337.5 1113,-337.5 1113,-318.5 1009,-318.5"/>
<text text-anchor="middle" x="1061" y="-325.5" font-family="Helvetica,sans-Serif" font-size="10.00">pdal::Utils::toNative</text>
</a>
</g>
</g>
<!-- Node5&#45;&gt;Node10 -->
<g id="edge15" class="edge"><title>Node5&#45;&gt;Node10</title>
<path fill="none" stroke="midnightblue" d="M458.589,-370.037C474.935,-375.583 493.762,-381.783 511,-387 574.463,-406.208 593.04,-402.39 655,-426 671.716,-432.37 673.59,-439.89 691,-444 748.097,-457.479 765.846,-457.237 823,-444 907.849,-424.349 997.386,-369.907 1037.85,-343.188"/>
<polygon fill="midnightblue" stroke="midnightblue" points="1039.8,-346.096 1046.17,-337.629 1035.91,-340.277 1039.8,-346.096"/>
</g>
<!-- Node14 -->
<g id="node14" class="node"><title>Node14</title>
<g id="a_node14"><a xlink:href="classpdal_1_1PointLayout.html#a63db6cc5de2aea2b949ee0c34e1d5501" target="_top" xlink:title="pdal::PointLayout::\lupdate">
<polygon fill="white" stroke="black" points="534,-348 534,-378 632,-378 632,-348 534,-348"/>
<text text-anchor="start" x="542" y="-366" font-family="Helvetica,sans-Serif" font-size="10.00">pdal::PointLayout::</text>
<text text-anchor="middle" x="583" y="-355" font-family="Helvetica,sans-Serif" font-size="10.00">update</text>
</a>
</g>
</g>
<!-- Node5&#45;&gt;Node14 -->
<g id="edge16" class="edge"><title>Node5&#45;&gt;Node14</title>
<path fill="none" stroke="midnightblue" d="M463.659,-357.314C482.47,-358.218 504.206,-359.262 523.877,-360.207"/>
<polygon fill="midnightblue" stroke="midnightblue" points="523.793,-363.707 533.95,-360.691 524.129,-356.715 523.793,-363.707"/>
</g>
<!-- Node7 -->
<g id="node7" class="node"><title>Node7</title>
<g id="a_node7"><a xlink:href="namespacepdal_1_1Utils.html#a28e3e2faff94b20f9908e77bc54ed983" target="_top" xlink:title="pdal::Utils::toupper">
<polygon fill="white" stroke="black" points="707.5,-202.5 707.5,-221.5 806.5,-221.5 806.5,-202.5 707.5,-202.5"/>
<text text-anchor="middle" x="757" y="-209.5" font-family="Helvetica,sans-Serif" font-size="10.00">pdal::Utils::toupper</text>
</a>
</g>
</g>
<!-- Node6&#45;&gt;Node7 -->
<g id="edge6" class="edge"><title>Node6&#45;&gt;Node7</title>
<path fill="none" stroke="midnightblue" d="M631.722,-271.408C639.732,-268.911 647.78,-265.816 655,-262 673.668,-252.134 672.446,-241.079 691,-231 695.171,-228.734 699.643,-226.71 704.218,-224.909"/>
<polygon fill="midnightblue" stroke="midnightblue" points="705.454,-228.183 713.688,-221.516 703.094,-221.594 705.454,-228.183"/>
</g>
<!-- Node9 -->
<g id="node9" class="node"><title>Node9</title>
<g id="a_node9"><a xlink:href="namespacepdal_1_1Dimension.html#ab9491687b8700d1db27e0aba1fcd7143" target="_top" xlink:title="pdal::Dimension::base">
<polygon fill="white" stroke="black" points="859,-298.5 859,-317.5 973,-317.5 973,-298.5 859,-298.5"/>
<text text-anchor="middle" x="916" y="-305.5" font-family="Helvetica,sans-Serif" font-size="10.00">pdal::Dimension::base</text>
</a>
</g>
</g>
<!-- Node8&#45;&gt;Node9 -->
<g id="edge9" class="edge"><title>Node8&#45;&gt;Node9</title>
<path fill="none" stroke="midnightblue" d="M806.386,-305.925C819.726,-306.179 834.434,-306.461 848.603,-306.731"/>
<polygon fill="midnightblue" stroke="midnightblue" points="848.732,-310.234 858.797,-306.926 848.866,-303.236 848.732,-310.234"/>
</g>
<!-- Node13 -->
<g id="node13" class="node"><title>Node13</title>
<g id="a_node13"><a xlink:href="namespacepdal_1_1Dimension.html#acf81dae9d5946f3a941f9df154b2329b" target="_top" xlink:title="pdal::Dimension::size">
<polygon fill="white" stroke="black" points="860.5,-255.5 860.5,-274.5 971.5,-274.5 971.5,-255.5 860.5,-255.5"/>
<text text-anchor="middle" x="916" y="-262.5" font-family="Helvetica,sans-Serif" font-size="10.00">pdal::Dimension::size</text>
</a>
</g>
</g>
<!-- Node8&#45;&gt;Node13 -->
<g id="edge13" class="edge"><title>Node8&#45;&gt;Node13</title>
<path fill="none" stroke="midnightblue" d="M806.386,-292.672C825.874,-287.707 848.281,-281.999 867.662,-277.061"/>
<polygon fill="midnightblue" stroke="midnightblue" points="868.663,-280.417 877.49,-274.557 866.935,-273.634 868.663,-280.417"/>
</g>
<!-- Node9&#45;&gt;Node10 -->
<g id="edge10" class="edge"><title>Node9&#45;&gt;Node10</title>
<path fill="none" stroke="midnightblue" d="M973.107,-315.847C981.451,-317.014 990.089,-318.222 998.536,-319.404"/>
<polygon fill="midnightblue" stroke="midnightblue" points="998.325,-322.908 1008.71,-320.827 999.294,-315.976 998.325,-322.908"/>
</g>
<!-- Node11 -->
<g id="node11" class="node"><title>Node11</title>
<g id="a_node11"><a xlink:href="namespacepdal_1_1Dimension.html#a880d689fed54aa3ded6f88c9e058c5d2" target="_top" xlink:title="pdal::Dimension::type">
<polygon fill="white" stroke="black" points="1149,-318.5 1149,-337.5 1261,-337.5 1261,-318.5 1149,-318.5"/>
<text text-anchor="middle" x="1205" y="-325.5" font-family="Helvetica,sans-Serif" font-size="10.00">pdal::Dimension::type</text>
</a>
</g>
</g>
<!-- Node10&#45;&gt;Node11 -->
<g id="edge11" class="edge"><title>Node10&#45;&gt;Node11</title>
<path fill="none" stroke="midnightblue" d="M1113.27,-328C1121.6,-328 1130.33,-328 1138.95,-328"/>
<polygon fill="midnightblue" stroke="midnightblue" points="1138.97,-331.5 1148.97,-328 1138.97,-324.5 1138.97,-331.5"/>
</g>
<!-- Node12 -->
<g id="node12" class="node"><title>Node12</title>
<g id="a_node12"><a xlink:href="namespacepdal_1_1Utils.html#a5268937cf695835e55392f752dc02cb2" target="_top" xlink:title="pdal::Utils::tolower">
<polygon fill="white" stroke="black" points="1297,-318.5 1297,-337.5 1395,-337.5 1395,-318.5 1297,-318.5"/>
<text text-anchor="middle" x="1346" y="-325.5" font-family="Helvetica,sans-Serif" font-size="10.00">pdal::Utils::tolower</text>
</a>
</g>
</g>
<!-- Node11&#45;&gt;Node12 -->
<g id="edge12" class="edge"><title>Node11&#45;&gt;Node12</title>
<path fill="none" stroke="midnightblue" d="M1261.34,-328C1269.62,-328 1278.19,-328 1286.55,-328"/>
<polygon fill="midnightblue" stroke="midnightblue" points="1286.59,-331.5 1296.59,-328 1286.59,-324.5 1286.59,-331.5"/>
</g>
<!-- Node13&#45;&gt;Node10 -->
<g id="edge14" class="edge"><title>Node13&#45;&gt;Node10</title>
<path fill="none" stroke="midnightblue" d="M939.652,-274.608C949.859,-278.963 962.053,-284.201 973,-289 991.882,-297.278 1012.99,-306.733 1029.68,-314.26"/>
<polygon fill="midnightblue" stroke="midnightblue" points="1028.39,-317.52 1038.95,-318.445 1031.27,-311.14 1028.39,-317.52"/>
</g>
<!-- Node14&#45;&gt;Node2 -->
<g id="edge17" class="edge"><title>Node14&#45;&gt;Node2</title>
<path fill="none" stroke="midnightblue" d="M618.854,-378.011C639.616,-386.699 666.595,-397.552 691,-406 697.494,-408.248 704.412,-410.46 711.22,-412.535"/>
<polygon fill="midnightblue" stroke="midnightblue" points="710.473,-415.965 721.056,-415.466 712.472,-409.256 710.473,-415.965"/>
</g>
<!-- Node14&#45;&gt;Node10 -->
<g id="edge21" class="edge"><title>Node14&#45;&gt;Node10</title>
<path fill="none" stroke="midnightblue" d="M632.261,-359.451C719.374,-353.046 902.724,-339.564 998.614,-332.514"/>
<polygon fill="midnightblue" stroke="midnightblue" points="999.022,-335.993 1008.74,-331.769 998.509,-329.012 999.022,-335.993"/>
</g>
<!-- Node15 -->
<g id="node15" class="node"><title>Node15</title>
<g id="a_node15"><a xlink:href="classpdal_1_1Dimension_1_1Detail.html#a549ea013da1958d0b9120987cb33e291" target="_top" xlink:title="pdal::Dimension::Detail::id">
<polygon fill="white" stroke="black" points="691,-377.5 691,-396.5 823,-396.5 823,-377.5 691,-377.5"/>
<text text-anchor="middle" x="757" y="-384.5" font-family="Helvetica,sans-Serif" font-size="10.00">pdal::Dimension::Detail::id</text>
</a>
</g>
</g>
<!-- Node14&#45;&gt;Node15 -->
<g id="edge18" class="edge"><title>Node14&#45;&gt;Node15</title>
<path fill="none" stroke="midnightblue" d="M632.369,-369.749C647.427,-371.85 664.403,-374.219 680.841,-376.513"/>
<polygon fill="midnightblue" stroke="midnightblue" points="680.597,-380.012 690.985,-377.928 681.564,-373.08 680.597,-380.012"/>
</g>
<!-- Node16 -->
<g id="node16" class="node"><title>Node16</title>
<g id="a_node16"><a xlink:href="classpdal_1_1Dimension_1_1Detail.html#a320806a1cc878b5fdb10e178f27a4c61" target="_top" xlink:title="pdal::Dimension::Detail\l::size">
<polygon fill="white" stroke="black" points="697.5,-241 697.5,-271 816.5,-271 816.5,-241 697.5,-241"/>
<text text-anchor="start" x="705.5" y="-259" font-family="Helvetica,sans-Serif" font-size="10.00">pdal::Dimension::Detail</text>
<text text-anchor="middle" x="757" y="-248" font-family="Helvetica,sans-Serif" font-size="10.00">::size</text>
</a>
</g>
</g>
<!-- Node14&#45;&gt;Node16 -->
<g id="edge19" class="edge"><title>Node14&#45;&gt;Node16</title>
<path fill="none" stroke="midnightblue" d="M600.282,-347.76C620.337,-329.633 656.055,-299.397 691,-280 694.037,-278.314 697.216,-276.703 700.466,-275.172"/>
<polygon fill="midnightblue" stroke="midnightblue" points="702.021,-278.312 709.755,-271.071 699.193,-271.908 702.021,-278.312"/>
</g>
<!-- Node16&#45;&gt;Node13 -->
<g id="edge20" class="edge"><title>Node16&#45;&gt;Node13</title>
<path fill="none" stroke="midnightblue" d="M816.908,-259.377C827.833,-260.003 839.299,-260.66 850.384,-261.296"/>
<polygon fill="midnightblue" stroke="midnightblue" points="850.246,-264.794 860.43,-261.872 850.647,-257.805 850.246,-264.794"/>
</g>
<!-- Node18 -->
<g id="node18" class="node"><title>Node18</title>
<g id="a_node18"><a xlink:href="namespacepdal_1_1Dimension.html#a9562a0d1c8e24bf903f1ccdd37b62d2f" target="_top" xlink:title="pdal::Dimension::defaultType">
<polygon fill="white" stroke="black" points="511,-233.5 511,-252.5 655,-252.5 655,-233.5 511,-233.5"/>
<text text-anchor="middle" x="583" y="-240.5" font-family="Helvetica,sans-Serif" font-size="10.00">pdal::Dimension::defaultType</text>
</a>
</g>
</g>
<!-- Node17&#45;&gt;Node18 -->
<g id="edge24" class="edge"><title>Node17&#45;&gt;Node18</title>
<path fill="none" stroke="midnightblue" d="M463.659,-253.661C475.254,-252.617 487.96,-251.472 500.609,-250.332"/>
<polygon fill="midnightblue" stroke="midnightblue" points="501.074,-253.805 510.719,-249.422 500.445,-246.833 501.074,-253.805"/>
</g>
<!-- Node20 -->
<g id="node20" class="node"><title>Node20</title>
<g id="a_node20"><a xlink:href="classpdal_1_1Stage.html#a6c81d6fbbac17ebe4cd63806916cc750" target="_top" xlink:title="pdal::Stage::getName">
<polygon fill="white" stroke="black" points="358.5,-204.5 358.5,-223.5 470.5,-223.5 470.5,-204.5 358.5,-204.5"/>
<text text-anchor="middle" x="414.5" y="-211.5" font-family="Helvetica,sans-Serif" font-size="10.00">pdal::Stage::getName</text>
</a>
</g>
</g>
<!-- Node19&#45;&gt;Node20 -->
<g id="edge26" class="edge"><title>Node19&#45;&gt;Node20</title>
<path fill="none" stroke="midnightblue" d="M318.343,-227.683C328.078,-226.283 338.242,-224.821 348.151,-223.397"/>
<polygon fill="midnightblue" stroke="midnightblue" points="348.956,-226.817 358.356,-221.929 347.96,-219.888 348.956,-226.817"/>
</g>
<!-- Node21&#45;&gt;Node13 -->
<g id="edge32" class="edge"><title>Node21&#45;&gt;Node13</title>
<path fill="none" stroke="midnightblue" d="M275.347,-117.501C293.225,-128.408 324.535,-145.843 354,-154 555.581,-209.808 628.257,-116.68 823,-193 853.509,-204.957 882.152,-230.498 899.133,-247.716"/>
<polygon fill="midnightblue" stroke="midnightblue" points="897.047,-250.598 906.489,-255.404 902.104,-245.759 897.047,-250.598"/>
</g>
<!-- Node22 -->
<g id="node22" class="node"><title>Node22</title>
<g id="a_node22"><a xlink:href="namespacepdal_1_1Utils.html#a10ae3cc2d10407cff89ba1ab00bc036b" target="_top" xlink:title="pdal::Utils::trimLeading">
<polygon fill="white" stroke="black" points="356,-76.5 356,-95.5 473,-95.5 473,-76.5 356,-76.5"/>
<text text-anchor="middle" x="414.5" y="-83.5" font-family="Helvetica,sans-Serif" font-size="10.00">pdal::Utils::trimLeading</text>
</a>
</g>
</g>
<!-- Node21&#45;&gt;Node22 -->
<g id="edge28" class="edge"><title>Node21&#45;&gt;Node22</title>
<path fill="none" stroke="midnightblue" d="M301.1,-102.162C314.825,-100.189 330.545,-97.9282 345.792,-95.7358"/>
<polygon fill="midnightblue" stroke="midnightblue" points="346.318,-99.1963 355.718,-94.3086 345.321,-92.2675 346.318,-99.1963"/>
</g>
<!-- Node23 -->
<g id="node23" class="node"><title>Node23</title>
<g id="a_node23"><a xlink:href="namespacepdal_1_1Utils.html#afed0ad4146baafd1973c85e1508ade73" target="_top" xlink:title="pdal::Utils::trimTrailing">
<polygon fill="white" stroke="black" points="357,-38.5 357,-57.5 472,-57.5 472,-38.5 357,-38.5"/>
<text text-anchor="middle" x="414.5" y="-45.5" font-family="Helvetica,sans-Serif" font-size="10.00">pdal::Utils::trimTrailing</text>
</a>
</g>
</g>
<!-- Node21&#45;&gt;Node23 -->
<g id="edge29" class="edge"><title>Node21&#45;&gt;Node23</title>
<path fill="none" stroke="midnightblue" d="M280.676,-98.4235C299.444,-89.6907 328.299,-76.7083 354,-67 359.654,-64.8643 365.666,-62.758 371.613,-60.7695"/>
<polygon fill="midnightblue" stroke="midnightblue" points="373.062,-63.9783 381.483,-57.5498 370.891,-57.3234 373.062,-63.9783"/>
</g>
<!-- Node24 -->
<g id="node24" class="node"><title>Node24</title>
<g id="a_node24"><a xlink:href="namespacepdal_1_1Utils.html#abdd3e6ebf8047dbc72337bac885f1169" target="_top" xlink:title="pdal::Utils::eatcharacter">
<polygon fill="white" stroke="black" points="354,-0.5 354,-19.5 475,-19.5 475,-0.5 354,-0.5"/>
<text text-anchor="middle" x="414.5" y="-7.5" font-family="Helvetica,sans-Serif" font-size="10.00">pdal::Utils::eatcharacter</text>
</a>
</g>
</g>
<!-- Node21&#45;&gt;Node24 -->
<g id="edge30" class="edge"><title>Node21&#45;&gt;Node24</title>
<path fill="none" stroke="midnightblue" d="M269.387,-98.333C285.003,-81.8796 319.041,-48.3401 354,-29 357.895,-26.8453 362.07,-24.8932 366.336,-23.1339"/>
<polygon fill="midnightblue" stroke="midnightblue" points="367.623,-26.3893 375.746,-19.5872 365.154,-19.8391 367.623,-26.3893"/>
</g>
<!-- Node25 -->
<g id="node25" class="node"><title>Node25</title>
<g id="a_node25"><a xlink:href="namespacepdal_1_1Utils.html#ab908ea72a2a7d385cbbab68939d1c1a2" target="_top" xlink:title="pdal::Utils::base64\l_encode">
<polygon fill="white" stroke="black" points="365.5,-115 365.5,-145 463.5,-145 463.5,-115 365.5,-115"/>
<text text-anchor="start" x="373.5" y="-133" font-family="Helvetica,sans-Serif" font-size="10.00">pdal::Utils::base64</text>
<text text-anchor="middle" x="414.5" y="-122" font-family="Helvetica,sans-Serif" font-size="10.00">_encode</text>
</a>
</g>
</g>
<!-- Node21&#45;&gt;Node25 -->
<g id="edge31" class="edge"><title>Node21&#45;&gt;Node25</title>
<path fill="none" stroke="midnightblue" d="M301.1,-113.838C317.68,-116.222 337.17,-119.024 355.222,-121.62"/>
<polygon fill="midnightblue" stroke="midnightblue" points="354.967,-125.119 365.363,-123.078 355.963,-118.191 354.967,-125.119"/>
</g>
</g>
</svg>
