<?xml version="1.0" encoding="UTF-8" standalone="no"?>
<!DOCTYPE svg PUBLIC "-//W3C//DTD SVG 1.1//EN"
 "http://www.w3.org/Graphics/SVG/1.1/DTD/svg11.dtd">
<!-- Generated by graphviz version 2.38.0 (20140413.2041)
 -->
<!-- Title: Support::check_pN Pages: 1 -->
<svg width="353pt" height="214pt"
 viewBox="0.00 0.00 353.00 214.00" xmlns="http://www.w3.org/2000/svg" xmlns:xlink="http://www.w3.org/1999/xlink">
<g id="graph0" class="graph" transform="scale(1 1) rotate(0) translate(4 210)">
<title>Support::check_pN</title>
<polygon fill="white" stroke="none" points="-4,4 -4,-210 349,-210 349,4 -4,4"/>
<!-- Node1 -->
<g id="node1" class="node"><title>Node1</title>
<polygon fill="#bfbfbf" stroke="black" points="0,-93.5 0,-112.5 101,-112.5 101,-93.5 0,-93.5"/>
<text text-anchor="middle" x="50.5" y="-100.5" font-family="Helvetica,sans-Serif" font-size="10.00">Support::check_pN</text>
</g>
<!-- Node2 -->
<g id="node2" class="node"><title>Node2</title>
<g id="a_node2"><a xlink:href="classSupport.html#a169d6b87b05f8047bed88bba55f6f69a" target="_top" xlink:title="Support::check_p0_p1_p2">
<polygon fill="white" stroke="black" points="137,-186.5 137,-205.5 267,-205.5 267,-186.5 137,-186.5"/>
<text text-anchor="middle" x="202" y="-193.5" font-family="Helvetica,sans-Serif" font-size="10.00">Support::check_p0_p1_p2</text>
</a>
</g>
</g>
<!-- Node1&#45;&gt;Node2 -->
<g id="edge1" class="edge"><title>Node1&#45;&gt;Node2</title>
<path fill="none" stroke="midnightblue" d="M66.9771,-120.098C82.991,-136.828 109.477,-161.928 137,-177 143.913,-180.786 151.669,-183.901 159.332,-186.434"/>
<polygon fill="midnightblue" stroke="midnightblue" points="69.386,-117.55 59.9983,-112.639 64.2743,-122.333 69.386,-117.55"/>
</g>
<!-- Node4 -->
<g id="node4" class="node"><title>Node4</title>
<g id="a_node4"><a xlink:href="classSupport.html#abef8edb7c3c99322ef76cba69002f8ad" target="_top" xlink:title="Support::check_p100\l_p101_p102">
<polygon fill="white" stroke="black" points="147.5,-137 147.5,-167 256.5,-167 256.5,-137 147.5,-137"/>
<text text-anchor="start" x="155.5" y="-155" font-family="Helvetica,sans-Serif" font-size="10.00">Support::check_p100</text>
<text text-anchor="middle" x="202" y="-144" font-family="Helvetica,sans-Serif" font-size="10.00">_p101_p102</text>
</a>
</g>
</g>
<!-- Node1&#45;&gt;Node4 -->
<g id="edge3" class="edge"><title>Node1&#45;&gt;Node4</title>
<path fill="none" stroke="midnightblue" d="M90.3097,-115.72C110.132,-122.217 134.379,-130.164 155.122,-136.963"/>
<polygon fill="midnightblue" stroke="midnightblue" points="91.2727,-112.353 80.68,-112.564 89.0925,-119.005 91.2727,-112.353"/>
</g>
<!-- Node5 -->
<g id="node5" class="node"><title>Node5</title>
<g id="a_node5"><a xlink:href="classSupport.html#a94ed323d03ff2477fb5fe3f5a265a29f" target="_top" xlink:title="Support::check_p355\l_p356_p357">
<polygon fill="white" stroke="black" points="147.5,-88 147.5,-118 256.5,-118 256.5,-88 147.5,-88"/>
<text text-anchor="start" x="155.5" y="-106" font-family="Helvetica,sans-Serif" font-size="10.00">Support::check_p355</text>
<text text-anchor="middle" x="202" y="-95" font-family="Helvetica,sans-Serif" font-size="10.00">_p356_p357</text>
</a>
</g>
</g>
<!-- Node1&#45;&gt;Node5 -->
<g id="edge5" class="edge"><title>Node1&#45;&gt;Node5</title>
<path fill="none" stroke="midnightblue" d="M111.522,-103C123.361,-103 135.714,-103 147.327,-103"/>
<polygon fill="midnightblue" stroke="midnightblue" points="111.281,-99.5001 101.281,-103 111.281,-106.5 111.281,-99.5001"/>
</g>
<!-- Node6 -->
<g id="node6" class="node"><title>Node6</title>
<g id="a_node6"><a xlink:href="classSupport.html#afb27d4ba32e2d69ec609dca1b8994213" target="_top" xlink:title="Support::check_p710\l_p711_p712">
<polygon fill="white" stroke="black" points="147.5,-39 147.5,-69 256.5,-69 256.5,-39 147.5,-39"/>
<text text-anchor="start" x="155.5" y="-57" font-family="Helvetica,sans-Serif" font-size="10.00">Support::check_p710</text>
<text text-anchor="middle" x="202" y="-46" font-family="Helvetica,sans-Serif" font-size="10.00">_p711_p712</text>
</a>
</g>
</g>
<!-- Node1&#45;&gt;Node6 -->
<g id="edge6" class="edge"><title>Node1&#45;&gt;Node6</title>
<path fill="none" stroke="midnightblue" d="M90.3097,-90.2798C110.132,-83.7828 134.379,-75.8355 155.122,-69.037"/>
<polygon fill="midnightblue" stroke="midnightblue" points="89.0925,-86.9954 80.68,-93.436 91.2727,-93.6473 89.0925,-86.9954"/>
</g>
<!-- Node7 -->
<g id="node7" class="node"><title>Node7</title>
<g id="a_node7"><a xlink:href="LasReaderTest_8cpp.html#aa76b17cddb63cde84b93800acc213041" target="_top" xlink:title="test_a_format">
<polygon fill="white" stroke="black" points="163.5,-0.5 163.5,-19.5 240.5,-19.5 240.5,-0.5 163.5,-0.5"/>
<text text-anchor="middle" x="202" y="-7.5" font-family="Helvetica,sans-Serif" font-size="10.00">test_a_format</text>
</a>
</g>
</g>
<!-- Node1&#45;&gt;Node7 -->
<g id="edge7" class="edge"><title>Node1&#45;&gt;Node7</title>
<path fill="none" stroke="midnightblue" d="M66.9771,-85.9015C82.991,-69.172 109.477,-44.0718 137,-29 145.133,-24.5464 154.433,-21.0209 163.376,-18.2782"/>
<polygon fill="midnightblue" stroke="midnightblue" points="64.2743,-83.6675 59.9983,-93.3611 69.386,-88.4497 64.2743,-83.6675"/>
</g>
<!-- Node3 -->
<g id="node3" class="node"><title>Node3</title>
<g id="a_node3"><a xlink:href="LasReaderTest_8cpp.html#a822d9cf4f1e9d4617ec7c9c5258df43a" target="_top" xlink:title="TEST">
<polygon fill="white" stroke="black" points="303,-164.5 303,-183.5 345,-183.5 345,-164.5 303,-164.5"/>
<text text-anchor="middle" x="324" y="-171.5" font-family="Helvetica,sans-Serif" font-size="10.00">TEST</text>
</a>
</g>
</g>
<!-- Node2&#45;&gt;Node3 -->
<g id="edge2" class="edge"><title>Node2&#45;&gt;Node3</title>
<path fill="none" stroke="midnightblue" d="M264.941,-184.644C278.706,-182.12 292.335,-179.622 302.925,-177.68"/>
<polygon fill="midnightblue" stroke="midnightblue" points="264.141,-181.232 254.936,-186.478 265.403,-188.118 264.141,-181.232"/>
</g>
<!-- Node4&#45;&gt;Node3 -->
<g id="edge4" class="edge"><title>Node4&#45;&gt;Node3</title>
<path fill="none" stroke="midnightblue" d="M266.759,-163.689C279.929,-166.104 292.857,-168.474 302.991,-170.332"/>
<polygon fill="midnightblue" stroke="midnightblue" points="267.15,-160.202 256.682,-161.842 265.887,-167.088 267.15,-160.202"/>
</g>
<!-- Node8 -->
<g id="node8" class="node"><title>Node8</title>
<g id="a_node8"><a xlink:href="LasReaderTest_8cpp.html#abd37167698e2bd335f4e75c21866b7a6" target="_top" xlink:title="TEST">
<polygon fill="white" stroke="black" points="303,-0.5 303,-19.5 345,-19.5 345,-0.5 303,-0.5"/>
<text text-anchor="middle" x="324" y="-7.5" font-family="Helvetica,sans-Serif" font-size="10.00">TEST</text>
</a>
</g>
</g>
<!-- Node7&#45;&gt;Node8 -->
<g id="edge8" class="edge"><title>Node7&#45;&gt;Node8</title>
<path fill="none" stroke="midnightblue" d="M250.814,-10C268.982,-10 288.706,-10 302.938,-10"/>
<polygon fill="midnightblue" stroke="midnightblue" points="250.64,-6.5001 240.64,-10 250.639,-13.5001 250.64,-6.5001"/>
</g>
</g>
</svg>
