<?xml version="1.0" encoding="UTF-8" standalone="no"?>
<!DOCTYPE svg PUBLIC "-//W3C//DTD SVG 1.1//EN"
 "http://www.w3.org/Graphics/SVG/1.1/DTD/svg11.dtd">
<!-- Generated by graphviz version 2.38.0 (20140413.2041)
 -->
<!-- Title: pdal::ColorizationFilter::ready Pages: 1 -->
<svg width="423pt" height="116pt"
 viewBox="0.00 0.00 423.00 115.50" xmlns="http://www.w3.org/2000/svg" xmlns:xlink="http://www.w3.org/1999/xlink">
<g id="graph0" class="graph" transform="scale(1 1) rotate(0) translate(4 111.5)">
<title>pdal::ColorizationFilter::ready</title>
<polygon fill="white" stroke="none" points="-4,4 -4,-111.5 419,-111.5 419,4 -4,4"/>
<!-- Node1 -->
<g id="node1" class="node"><title>Node1</title>
<polygon fill="#bfbfbf" stroke="black" points="0,-33 0,-63 114,-63 114,-33 0,-33"/>
<text text-anchor="start" x="8" y="-51" font-family="Helvetica,sans-Serif" font-size="10.00">pdal::ColorizationFilter</text>
<text text-anchor="middle" x="57" y="-40" font-family="Helvetica,sans-Serif" font-size="10.00">::ready</text>
</g>
<!-- Node2 -->
<g id="node2" class="node"><title>Node2</title>
<g id="a_node2"><a xlink:href="classpdal_1_1ColorizationFilter.html#a85d3d0fc5825a706861eb53cccf66a0a" target="_top" xlink:title="pdal::ColorizationFilter\l::getName">
<polygon fill="white" stroke="black" points="151.5,-77 151.5,-107 265.5,-107 265.5,-77 151.5,-77"/>
<text text-anchor="start" x="159.5" y="-95" font-family="Helvetica,sans-Serif" font-size="10.00">pdal::ColorizationFilter</text>
<text text-anchor="middle" x="208.5" y="-84" font-family="Helvetica,sans-Serif" font-size="10.00">::getName</text>
</a>
</g>
</g>
<!-- Node1&#45;&gt;Node2 -->
<g id="edge1" class="edge"><title>Node1&#45;&gt;Node2</title>
<path fill="none" stroke="midnightblue" d="M109.031,-63.0192C121.112,-66.5748 134.115,-70.4018 146.586,-74.0721"/>
<polygon fill="midnightblue" stroke="midnightblue" points="145.864,-77.5079 156.445,-76.9738 147.84,-70.7927 145.864,-77.5079"/>
</g>
<!-- Node3 -->
<g id="node3" class="node"><title>Node3</title>
<g id="a_node3"><a xlink:href="classpdal_1_1Stage.html#ae8c29817e14d7cda53fdcbb23102d872" target="_top" xlink:title="pdal::Stage::log">
<polygon fill="white" stroke="black" points="166,-38.5 166,-57.5 251,-57.5 251,-38.5 166,-38.5"/>
<text text-anchor="middle" x="208.5" y="-45.5" font-family="Helvetica,sans-Serif" font-size="10.00">pdal::Stage::log</text>
</a>
</g>
</g>
<!-- Node1&#45;&gt;Node3 -->
<g id="edge2" class="edge"><title>Node1&#45;&gt;Node3</title>
<path fill="none" stroke="midnightblue" d="M114.094,-48C127.695,-48 142.176,-48 155.575,-48"/>
<polygon fill="midnightblue" stroke="midnightblue" points="155.578,-51.5001 165.578,-48 155.578,-44.5001 155.578,-51.5001"/>
</g>
<!-- Node4 -->
<g id="node4" class="node"><title>Node4</title>
<g id="a_node4"><a xlink:href="classpdal_1_1Stage.html#abdbd1176da12dfd882d931a43290797f" target="_top" xlink:title="pdal::Stage::throwError">
<polygon fill="white" stroke="black" points="150,-0.5 150,-19.5 267,-19.5 267,-0.5 150,-0.5"/>
<text text-anchor="middle" x="208.5" y="-7.5" font-family="Helvetica,sans-Serif" font-size="10.00">pdal::Stage::throwError</text>
</a>
</g>
</g>
<!-- Node1&#45;&gt;Node4 -->
<g id="edge3" class="edge"><title>Node1&#45;&gt;Node4</title>
<path fill="none" stroke="midnightblue" d="M114.094,-33.7421C129.173,-29.9092 145.335,-25.8012 159.904,-22.0981"/>
<polygon fill="midnightblue" stroke="midnightblue" points="160.873,-25.4631 169.702,-19.6074 159.148,-18.6788 160.873,-25.4631"/>
</g>
<!-- Node5 -->
<g id="node5" class="node"><title>Node5</title>
<g id="a_node5"><a xlink:href="classpdal_1_1Stage.html#a6c81d6fbbac17ebe4cd63806916cc750" target="_top" xlink:title="pdal::Stage::getName">
<polygon fill="white" stroke="black" points="303,-0.5 303,-19.5 415,-19.5 415,-0.5 303,-0.5"/>
<text text-anchor="middle" x="359" y="-7.5" font-family="Helvetica,sans-Serif" font-size="10.00">pdal::Stage::getName</text>
</a>
</g>
</g>
<!-- Node4&#45;&gt;Node5 -->
<g id="edge4" class="edge"><title>Node4&#45;&gt;Node5</title>
<path fill="none" stroke="midnightblue" d="M267.339,-10C275.676,-10 284.304,-10 292.773,-10"/>
<polygon fill="midnightblue" stroke="midnightblue" points="292.994,-13.5001 302.994,-10 292.994,-6.5001 292.994,-13.5001"/>
</g>
</g>
</svg>
