<?xml version="1.0" encoding="UTF-8" standalone="no"?>
<!DOCTYPE svg PUBLIC "-//W3C//DTD SVG 1.1//EN"
 "http://www.w3.org/Graphics/SVG/1.1/DTD/svg11.dtd">
<!-- Generated by graphviz version 2.38.0 (20140413.2041)
 -->
<!-- Title: pdal::PlyReader::readElement Pages: 1 -->
<svg width="638pt" height="116pt"
 viewBox="0.00 0.00 638.00 116.00" xmlns="http://www.w3.org/2000/svg" xmlns:xlink="http://www.w3.org/1999/xlink">
<g id="graph0" class="graph" transform="scale(1 1) rotate(0) translate(4 112)">
<title>pdal::PlyReader::readElement</title>
<polygon fill="white" stroke="none" points="-4,4 -4,-112 634,-112 634,4 -4,4"/>
<!-- Node1 -->
<g id="node1" class="node"><title>Node1</title>
<polygon fill="#bfbfbf" stroke="black" points="0,-44.5 0,-63.5 147,-63.5 147,-44.5 0,-44.5"/>
<text text-anchor="middle" x="73.5" y="-51.5" font-family="Helvetica,sans-Serif" font-size="10.00">pdal::PlyReader::readElement</text>
</g>
<!-- Node2 -->
<g id="node2" class="node"><title>Node2</title>
<g id="a_node2"><a xlink:href="classpdal_1_1PointRef.html#ae6ca67ab4acd1fd5bd330bc3eaeec971" target="_top" xlink:title="pdal::PointRef::pointId">
<polygon fill="white" stroke="black" points="200,-85.5 200,-104.5 314,-104.5 314,-85.5 200,-85.5"/>
<text text-anchor="middle" x="257" y="-92.5" font-family="Helvetica,sans-Serif" font-size="10.00">pdal::PointRef::pointId</text>
</a>
</g>
</g>
<!-- Node1&#45;&gt;Node2 -->
<g id="edge1" class="edge"><title>Node1&#45;&gt;Node2</title>
<path fill="none" stroke="midnightblue" d="M116.596,-63.5093C142.617,-69.3874 176.216,-76.9772 203.908,-83.2327"/>
<polygon fill="midnightblue" stroke="midnightblue" points="203.293,-86.6818 213.818,-85.4714 204.835,-79.8539 203.293,-86.6818"/>
</g>
<!-- Node5 -->
<g id="node5" class="node"><title>Node5</title>
<g id="a_node5"><a xlink:href="classpdal_1_1PlyReader.html#ac58ba5e9f6a206ba64927bf000d275f9" target="_top" xlink:title="pdal::PlyReader::readProperty">
<polygon fill="white" stroke="black" points="183,-44.5 183,-63.5 331,-63.5 331,-44.5 183,-44.5"/>
<text text-anchor="middle" x="257" y="-51.5" font-family="Helvetica,sans-Serif" font-size="10.00">pdal::PlyReader::readProperty</text>
</a>
</g>
</g>
<!-- Node1&#45;&gt;Node5 -->
<g id="edge4" class="edge"><title>Node1&#45;&gt;Node5</title>
<path fill="none" stroke="midnightblue" d="M147.016,-54C155.461,-54 164.127,-54 172.702,-54"/>
<polygon fill="midnightblue" stroke="midnightblue" points="172.71,-57.5001 182.71,-54 172.71,-50.5001 172.71,-57.5001"/>
</g>
<!-- Node7 -->
<g id="node7" class="node"><title>Node7</title>
<g id="a_node7"><a xlink:href="classpdal_1_1Stage.html#abdbd1176da12dfd882d931a43290797f" target="_top" xlink:title="pdal::Stage::throwError">
<polygon fill="white" stroke="black" points="198.5,-3.5 198.5,-22.5 315.5,-22.5 315.5,-3.5 198.5,-3.5"/>
<text text-anchor="middle" x="257" y="-10.5" font-family="Helvetica,sans-Serif" font-size="10.00">pdal::Stage::throwError</text>
</a>
</g>
</g>
<!-- Node1&#45;&gt;Node7 -->
<g id="edge6" class="edge"><title>Node1&#45;&gt;Node7</title>
<path fill="none" stroke="midnightblue" d="M116.596,-44.4907C142.617,-38.6126 176.216,-31.0228 203.908,-24.7673"/>
<polygon fill="midnightblue" stroke="midnightblue" points="204.835,-28.1461 213.818,-22.5286 203.293,-21.3182 204.835,-28.1461"/>
</g>
<!-- Node3 -->
<g id="node3" class="node"><title>Node3</title>
<g id="a_node3"><a xlink:href="namespacepdal_1_1Dimension.html#a880d689fed54aa3ded6f88c9e058c5d2" target="_top" xlink:title="pdal::Dimension::type">
<polygon fill="white" stroke="black" points="375.5,-88.5 375.5,-107.5 487.5,-107.5 487.5,-88.5 375.5,-88.5"/>
<text text-anchor="middle" x="431.5" y="-95.5" font-family="Helvetica,sans-Serif" font-size="10.00">pdal::Dimension::type</text>
</a>
</g>
</g>
<!-- Node2&#45;&gt;Node3 -->
<g id="edge2" class="edge"><title>Node2&#45;&gt;Node3</title>
<path fill="none" stroke="midnightblue" d="M314.006,-95.974C330.299,-96.2574 348.242,-96.5694 365.061,-96.8619"/>
<polygon fill="midnightblue" stroke="midnightblue" points="365.305,-100.367 375.364,-97.0411 365.426,-93.3677 365.305,-100.367"/>
</g>
<!-- Node4 -->
<g id="node4" class="node"><title>Node4</title>
<g id="a_node4"><a xlink:href="namespacepdal_1_1Utils.html#a5268937cf695835e55392f752dc02cb2" target="_top" xlink:title="pdal::Utils::tolower">
<polygon fill="white" stroke="black" points="532,-88.5 532,-107.5 630,-107.5 630,-88.5 532,-88.5"/>
<text text-anchor="middle" x="581" y="-95.5" font-family="Helvetica,sans-Serif" font-size="10.00">pdal::Utils::tolower</text>
</a>
</g>
</g>
<!-- Node3&#45;&gt;Node4 -->
<g id="edge3" class="edge"><title>Node3&#45;&gt;Node4</title>
<path fill="none" stroke="midnightblue" d="M487.843,-98C498.858,-98 510.459,-98 521.574,-98"/>
<polygon fill="midnightblue" stroke="midnightblue" points="521.614,-101.5 531.614,-98 521.614,-94.5001 521.614,-101.5"/>
</g>
<!-- Node6 -->
<g id="node6" class="node"><title>Node6</title>
<g id="a_node6"><a xlink:href="structpdal_1_1PlyReader_1_1Property.html#a19a80e32d95d547aca2b814c4a7ec311" target="_top" xlink:title="pdal::PlyReader::Property\l::read">
<polygon fill="white" stroke="black" points="367,-39 367,-69 496,-69 496,-39 367,-39"/>
<text text-anchor="start" x="375" y="-57" font-family="Helvetica,sans-Serif" font-size="10.00">pdal::PlyReader::Property</text>
<text text-anchor="middle" x="431.5" y="-46" font-family="Helvetica,sans-Serif" font-size="10.00">::read</text>
</a>
</g>
</g>
<!-- Node5&#45;&gt;Node6 -->
<g id="edge5" class="edge"><title>Node5&#45;&gt;Node6</title>
<path fill="none" stroke="midnightblue" d="M331.156,-54C339.577,-54 348.169,-54 356.6,-54"/>
<polygon fill="midnightblue" stroke="midnightblue" points="356.782,-57.5001 366.782,-54 356.782,-50.5001 356.782,-57.5001"/>
</g>
<!-- Node8 -->
<g id="node8" class="node"><title>Node8</title>
<g id="a_node8"><a xlink:href="classpdal_1_1Stage.html#a6c81d6fbbac17ebe4cd63806916cc750" target="_top" xlink:title="pdal::Stage::getName">
<polygon fill="white" stroke="black" points="375.5,-0.5 375.5,-19.5 487.5,-19.5 487.5,-0.5 375.5,-0.5"/>
<text text-anchor="middle" x="431.5" y="-7.5" font-family="Helvetica,sans-Serif" font-size="10.00">pdal::Stage::getName</text>
</a>
</g>
</g>
<!-- Node7&#45;&gt;Node8 -->
<g id="edge7" class="edge"><title>Node7&#45;&gt;Node8</title>
<path fill="none" stroke="midnightblue" d="M315.92,-11.9927C331.657,-11.719 348.809,-11.4207 364.936,-11.1402"/>
<polygon fill="midnightblue" stroke="midnightblue" points="365.423,-14.6324 375.36,-10.959 365.301,-7.63346 365.423,-14.6324"/>
</g>
</g>
</svg>
