<?xml version="1.0" encoding="UTF-8" standalone="no"?>
<!DOCTYPE svg PUBLIC "-//W3C//DTD SVG 1.1//EN"
 "http://www.w3.org/Graphics/SVG/1.1/DTD/svg11.dtd">
<!-- Generated by graphviz version 2.38.0 (20140413.2041)
 -->
<!-- Title: pdal::DimBuilder::extractDim Pages: 1 -->
<svg width="934pt" height="280pt"
 viewBox="0.00 0.00 934.00 279.50" xmlns="http://www.w3.org/2000/svg" xmlns:xlink="http://www.w3.org/1999/xlink">
<g id="graph0" class="graph" transform="scale(1 1) rotate(0) translate(4 275.5)">
<title>pdal::DimBuilder::extractDim</title>
<polygon fill="white" stroke="none" points="-4,4 -4,-275.5 930,-275.5 930,4 -4,4"/>
<!-- Node1 -->
<g id="node1" class="node"><title>Node1</title>
<polygon fill="#bfbfbf" stroke="black" points="0,-151 0,-170 143,-170 143,-151 0,-151"/>
<text text-anchor="middle" x="71.5" y="-158" font-family="Helvetica,sans-Serif" font-size="10.00">pdal::DimBuilder::extractDim</text>
</g>
<!-- Node2 -->
<g id="node2" class="node"><title>Node2</title>
<g id="a_node2"><a xlink:href="namespacepdal_1_1Dimension.html#a4041a0eeee0ca503caad91db24affa0e" target="_top" xlink:title="pdal::Dimension::description">
<polygon fill="white" stroke="black" points="179,-246 179,-265 319,-265 319,-246 179,-246"/>
<text text-anchor="middle" x="249" y="-253" font-family="Helvetica,sans-Serif" font-size="10.00">pdal::Dimension::description</text>
</a>
</g>
</g>
<!-- Node1&#45;&gt;Node2 -->
<g id="edge1" class="edge"><title>Node1&#45;&gt;Node2</title>
<path fill="none" stroke="midnightblue" d="M83.1813,-170.109C101.498,-186.107 140.647,-218.244 179,-236.5 183.908,-238.836 189.154,-240.929 194.479,-242.793"/>
<polygon fill="midnightblue" stroke="midnightblue" points="193.501,-246.155 204.093,-245.905 195.656,-239.495 193.501,-246.155"/>
</g>
<!-- Node3 -->
<g id="node3" class="node"><title>Node3</title>
<g id="a_node3"><a xlink:href="namespacepdal_1_1Dimension.html#af3176b0b7e6b4be000317846cf7c2718" target="_top" xlink:title="pdal::Dimension::name">
<polygon fill="white" stroke="black" points="190.5,-208 190.5,-227 307.5,-227 307.5,-208 190.5,-208"/>
<text text-anchor="middle" x="249" y="-215" font-family="Helvetica,sans-Serif" font-size="10.00">pdal::Dimension::name</text>
</a>
</g>
</g>
<!-- Node1&#45;&gt;Node3 -->
<g id="edge2" class="edge"><title>Node1&#45;&gt;Node3</title>
<path fill="none" stroke="midnightblue" d="M97.7131,-170.091C119.181,-178.114 150.918,-189.637 179,-198.5 186.25,-200.788 193.976,-203.068 201.537,-205.213"/>
<polygon fill="midnightblue" stroke="midnightblue" points="200.753,-208.628 211.326,-207.944 202.634,-201.885 200.753,-208.628"/>
</g>
<!-- Node4 -->
<g id="node4" class="node"><title>Node4</title>
<g id="a_node4"><a xlink:href="namespacepdal_1_1Utils.html#a6ae33c6d7b4eb4bcae6ec17fb8cc04fc" target="_top" xlink:title="pdal::Utils::split2">
<polygon fill="white" stroke="black" points="204,-170 204,-189 294,-189 294,-170 204,-170"/>
<text text-anchor="middle" x="249" y="-177" font-family="Helvetica,sans-Serif" font-size="10.00">pdal::Utils::split2</text>
</a>
</g>
</g>
<!-- Node1&#45;&gt;Node4 -->
<g id="edge3" class="edge"><title>Node1&#45;&gt;Node4</title>
<path fill="none" stroke="midnightblue" d="M143.124,-168.146C159.923,-169.965 177.592,-171.878 193.54,-173.604"/>
<polygon fill="midnightblue" stroke="midnightblue" points="193.426,-177.112 203.744,-174.709 194.179,-170.153 193.426,-177.112"/>
</g>
<!-- Node5 -->
<g id="node5" class="node"><title>Node5</title>
<g id="a_node5"><a xlink:href="namespacepdal_1_1Utils.html#ac5d9d3dfd3f4611182c07aa85e27c1e4" target="_top" xlink:title="pdal::Utils::trim">
<polygon fill="white" stroke="black" points="207.5,-132 207.5,-151 290.5,-151 290.5,-132 207.5,-132"/>
<text text-anchor="middle" x="249" y="-139" font-family="Helvetica,sans-Serif" font-size="10.00">pdal::Utils::trim</text>
</a>
</g>
</g>
<!-- Node1&#45;&gt;Node5 -->
<g id="edge4" class="edge"><title>Node1&#45;&gt;Node5</title>
<path fill="none" stroke="midnightblue" d="M143.124,-152.854C161.108,-150.907 180.09,-148.852 196.889,-147.033"/>
<polygon fill="midnightblue" stroke="midnightblue" points="197.473,-150.491 207.038,-145.935 196.72,-143.531 197.473,-150.491"/>
</g>
<!-- Node12 -->
<g id="node12" class="node"><title>Node12</title>
<g id="a_node12"><a xlink:href="namespacepdal_1_1Dimension.html#a880d689fed54aa3ded6f88c9e058c5d2" target="_top" xlink:title="pdal::Dimension::type">
<polygon fill="white" stroke="black" points="680,-69 680,-88 792,-88 792,-69 680,-69"/>
<text text-anchor="middle" x="736" y="-76" font-family="Helvetica,sans-Serif" font-size="10.00">pdal::Dimension::type</text>
</a>
</g>
</g>
<!-- Node1&#45;&gt;Node12 -->
<g id="edge13" class="edge"><title>Node1&#45;&gt;Node12</title>
<path fill="none" stroke="midnightblue" d="M97.2327,-150.899C118.673,-142.764 150.627,-131.086 179,-122.5 256.173,-99.1463 274.974,-88.3516 355,-78.5 464.752,-64.989 593.689,-69.1706 669.638,-73.6686"/>
<polygon fill="midnightblue" stroke="midnightblue" points="669.8,-77.185 679.995,-74.3035 670.228,-70.1981 669.8,-77.185"/>
</g>
<!-- Node14 -->
<g id="node14" class="node"><title>Node14</title>
<g id="a_node14"><a xlink:href="classpdal_1_1DimBuilder.html#ad791e4b31e813727f0fcb15c645a28f1" target="_top" xlink:title="pdal::DimBuilder::validate\lDimension">
<polygon fill="white" stroke="black" points="185,-0.5 185,-30.5 313,-30.5 313,-0.5 185,-0.5"/>
<text text-anchor="start" x="193" y="-18.5" font-family="Helvetica,sans-Serif" font-size="10.00">pdal::DimBuilder::validate</text>
<text text-anchor="middle" x="249" y="-7.5" font-family="Helvetica,sans-Serif" font-size="10.00">Dimension</text>
</a>
</g>
</g>
<!-- Node1&#45;&gt;Node14 -->
<g id="edge14" class="edge"><title>Node1&#45;&gt;Node14</title>
<path fill="none" stroke="midnightblue" d="M79.1865,-150.919C94.5767,-129.466 134.609,-76.9863 179,-45.5 184.44,-41.6411 190.456,-38.1281 196.6,-34.9764"/>
<polygon fill="midnightblue" stroke="midnightblue" points="198.153,-38.1132 205.643,-30.6193 195.115,-31.8071 198.153,-38.1132"/>
</g>
<!-- Node6 -->
<g id="node6" class="node"><title>Node6</title>
<g id="a_node6"><a xlink:href="namespacepdal_1_1Utils.html#a10ae3cc2d10407cff89ba1ab00bc036b" target="_top" xlink:title="pdal::Utils::trimLeading">
<polygon fill="white" stroke="black" points="371,-252 371,-271 488,-271 488,-252 371,-252"/>
<text text-anchor="middle" x="429.5" y="-259" font-family="Helvetica,sans-Serif" font-size="10.00">pdal::Utils::trimLeading</text>
</a>
</g>
</g>
<!-- Node5&#45;&gt;Node6 -->
<g id="edge5" class="edge"><title>Node5&#45;&gt;Node6</title>
<path fill="none" stroke="midnightblue" d="M290.537,-146.361C300.72,-149.177 311.011,-153.593 319,-160.5 349.109,-186.532 324.687,-216.706 355,-242.5 357.064,-244.256 359.271,-245.853 361.584,-247.305"/>
<polygon fill="midnightblue" stroke="midnightblue" points="360.473,-250.674 370.956,-252.213 363.721,-244.473 360.473,-250.674"/>
</g>
<!-- Node7 -->
<g id="node7" class="node"><title>Node7</title>
<g id="a_node7"><a xlink:href="namespacepdal_1_1Utils.html#afed0ad4146baafd1973c85e1508ade73" target="_top" xlink:title="pdal::Utils::trimTrailing">
<polygon fill="white" stroke="black" points="372,-214 372,-233 487,-233 487,-214 372,-214"/>
<text text-anchor="middle" x="429.5" y="-221" font-family="Helvetica,sans-Serif" font-size="10.00">pdal::Utils::trimTrailing</text>
</a>
</g>
</g>
<!-- Node5&#45;&gt;Node7 -->
<g id="edge6" class="edge"><title>Node5&#45;&gt;Node7</title>
<path fill="none" stroke="midnightblue" d="M290.822,-148.302C300.559,-151.093 310.564,-155.011 319,-160.5 340.178,-174.281 333.714,-190.886 355,-204.5 358.34,-206.636 361.909,-208.532 365.608,-210.216"/>
<polygon fill="midnightblue" stroke="midnightblue" points="364.429,-213.514 375.014,-213.977 367.029,-207.014 364.429,-213.514"/>
</g>
<!-- Node8 -->
<g id="node8" class="node"><title>Node8</title>
<g id="a_node8"><a xlink:href="namespacepdal_1_1Utils.html#abdd3e6ebf8047dbc72337bac885f1169" target="_top" xlink:title="pdal::Utils::eatcharacter">
<polygon fill="white" stroke="black" points="369,-176 369,-195 490,-195 490,-176 369,-176"/>
<text text-anchor="middle" x="429.5" y="-183" font-family="Helvetica,sans-Serif" font-size="10.00">pdal::Utils::eatcharacter</text>
</a>
</g>
</g>
<!-- Node5&#45;&gt;Node8 -->
<g id="edge7" class="edge"><title>Node5&#45;&gt;Node8</title>
<path fill="none" stroke="midnightblue" d="M288.732,-151.047C315.514,-157.649 351.347,-166.482 380.025,-173.551"/>
<polygon fill="midnightblue" stroke="midnightblue" points="379.297,-176.976 389.844,-175.971 380.972,-170.18 379.297,-176.976"/>
</g>
<!-- Node9 -->
<g id="node9" class="node"><title>Node9</title>
<g id="a_node9"><a xlink:href="namespacepdal_1_1Utils.html#ab908ea72a2a7d385cbbab68939d1c1a2" target="_top" xlink:title="pdal::Utils::base64\l_encode">
<polygon fill="white" stroke="black" points="380.5,-126.5 380.5,-156.5 478.5,-156.5 478.5,-126.5 380.5,-126.5"/>
<text text-anchor="start" x="388.5" y="-144.5" font-family="Helvetica,sans-Serif" font-size="10.00">pdal::Utils::base64</text>
<text text-anchor="middle" x="429.5" y="-133.5" font-family="Helvetica,sans-Serif" font-size="10.00">_encode</text>
</a>
</g>
</g>
<!-- Node5&#45;&gt;Node9 -->
<g id="edge8" class="edge"><title>Node5&#45;&gt;Node9</title>
<path fill="none" stroke="midnightblue" d="M290.504,-141.5C314.023,-141.5 344.057,-141.5 370.096,-141.5"/>
<polygon fill="midnightblue" stroke="midnightblue" points="370.23,-145 380.23,-141.5 370.23,-138 370.23,-145"/>
</g>
<!-- Node10 -->
<g id="node10" class="node"><title>Node10</title>
<g id="a_node10"><a xlink:href="namespacepdal_1_1Dimension.html#acf81dae9d5946f3a941f9df154b2329b" target="_top" xlink:title="pdal::Dimension::size">
<polygon fill="white" stroke="black" points="374,-88 374,-107 485,-107 485,-88 374,-88"/>
<text text-anchor="middle" x="429.5" y="-95" font-family="Helvetica,sans-Serif" font-size="10.00">pdal::Dimension::size</text>
</a>
</g>
</g>
<!-- Node5&#45;&gt;Node10 -->
<g id="edge9" class="edge"><title>Node5&#45;&gt;Node10</title>
<path fill="none" stroke="midnightblue" d="M288.732,-131.953C315.514,-125.351 351.347,-116.518 380.025,-109.449"/>
<polygon fill="midnightblue" stroke="midnightblue" points="380.972,-112.82 389.844,-107.029 379.297,-106.024 380.972,-112.82"/>
</g>
<!-- Node11 -->
<g id="node11" class="node"><title>Node11</title>
<g id="a_node11"><a xlink:href="namespacepdal_1_1Utils.html#a59253304d0f929e3a3ea00f09636002f" target="_top" xlink:title="pdal::Utils::toNative">
<polygon fill="white" stroke="black" points="540,-88 540,-107 644,-107 644,-88 540,-88"/>
<text text-anchor="middle" x="592" y="-95" font-family="Helvetica,sans-Serif" font-size="10.00">pdal::Utils::toNative</text>
</a>
</g>
</g>
<!-- Node10&#45;&gt;Node11 -->
<g id="edge10" class="edge"><title>Node10&#45;&gt;Node11</title>
<path fill="none" stroke="midnightblue" d="M485.286,-97.5C499.536,-97.5 514.98,-97.5 529.549,-97.5"/>
<polygon fill="midnightblue" stroke="midnightblue" points="529.973,-101 539.973,-97.5 529.973,-94.0001 529.973,-101"/>
</g>
<!-- Node11&#45;&gt;Node12 -->
<g id="edge11" class="edge"><title>Node11&#45;&gt;Node12</title>
<path fill="none" stroke="midnightblue" d="M644.265,-90.6406C652.602,-89.5251 661.332,-88.3569 669.946,-87.2045"/>
<polygon fill="midnightblue" stroke="midnightblue" points="670.525,-90.6583 679.972,-85.8629 669.596,-83.7201 670.525,-90.6583"/>
</g>
<!-- Node13 -->
<g id="node13" class="node"><title>Node13</title>
<g id="a_node13"><a xlink:href="namespacepdal_1_1Utils.html#a5268937cf695835e55392f752dc02cb2" target="_top" xlink:title="pdal::Utils::tolower">
<polygon fill="white" stroke="black" points="828,-69 828,-88 926,-88 926,-69 828,-69"/>
<text text-anchor="middle" x="877" y="-76" font-family="Helvetica,sans-Serif" font-size="10.00">pdal::Utils::tolower</text>
</a>
</g>
</g>
<!-- Node12&#45;&gt;Node13 -->
<g id="edge12" class="edge"><title>Node12&#45;&gt;Node13</title>
<path fill="none" stroke="midnightblue" d="M792.336,-78.5C800.625,-78.5 809.194,-78.5 817.546,-78.5"/>
<polygon fill="midnightblue" stroke="midnightblue" points="817.59,-82.0001 827.59,-78.5 817.59,-75.0001 817.59,-82.0001"/>
</g>
<!-- Node15 -->
<g id="node15" class="node"><title>Node15</title>
<g id="a_node15"><a xlink:href="namespacepdal_1_1Dimension.html#ad7dd00ca79ce099313f3fe405f40cd93" target="_top" xlink:title="pdal::Dimension::extractName">
<polygon fill="white" stroke="black" points="355,-6 355,-25 504,-25 504,-6 355,-6"/>
<text text-anchor="middle" x="429.5" y="-13" font-family="Helvetica,sans-Serif" font-size="10.00">pdal::Dimension::extractName</text>
</a>
</g>
</g>
<!-- Node14&#45;&gt;Node15 -->
<g id="edge15" class="edge"><title>Node14&#45;&gt;Node15</title>
<path fill="none" stroke="midnightblue" d="M313.184,-15.5C323.368,-15.5 334.048,-15.5 344.628,-15.5"/>
<polygon fill="midnightblue" stroke="midnightblue" points="344.721,-19.0001 354.721,-15.5 344.721,-12.0001 344.721,-19.0001"/>
</g>
<!-- Node16 -->
<g id="node16" class="node"><title>Node16</title>
<g id="a_node16"><a xlink:href="namespacepdal_1_1Utils.html#acae5a19cd66121b77e2599daec48413d" target="_top" xlink:title="pdal::Utils::extract">
<polygon fill="white" stroke="black" points="543.5,-6 543.5,-25 640.5,-25 640.5,-6 543.5,-6"/>
<text text-anchor="middle" x="592" y="-13" font-family="Helvetica,sans-Serif" font-size="10.00">pdal::Utils::extract</text>
</a>
</g>
</g>
<!-- Node15&#45;&gt;Node16 -->
<g id="edge16" class="edge"><title>Node15&#45;&gt;Node16</title>
<path fill="none" stroke="midnightblue" d="M504.174,-15.5C513.978,-15.5 523.913,-15.5 533.39,-15.5"/>
<polygon fill="midnightblue" stroke="midnightblue" points="533.466,-19.0001 543.466,-15.5 533.466,-12.0001 533.466,-19.0001"/>
</g>
</g>
</svg>
