<?xml version="1.0" encoding="UTF-8" standalone="no"?>
<!DOCTYPE svg PUBLIC "-//W3C//DTD SVG 1.1//EN"
 "http://www.w3.org/Graphics/SVG/1.1/DTD/svg11.dtd">
<!-- Generated by graphviz version 2.38.0 (20140413.2041)
 -->
<!-- Title: pdal::stats::Summary::insert Pages: 1 -->
<svg width="264pt" height="88pt"
 viewBox="0.00 0.00 264.00 88.00" xmlns="http://www.w3.org/2000/svg" xmlns:xlink="http://www.w3.org/1999/xlink">
<g id="graph0" class="graph" transform="scale(1 1) rotate(0) translate(4 84)">
<title>pdal::stats::Summary::insert</title>
<polygon fill="white" stroke="none" points="-4,4 -4,-84 260,-84 260,4 -4,4"/>
<!-- Node1 -->
<g id="node1" class="node"><title>Node1</title>
<polygon fill="#bfbfbf" stroke="black" points="0,-24.5 0,-54.5 110,-54.5 110,-24.5 0,-24.5"/>
<text text-anchor="start" x="8" y="-42.5" font-family="Helvetica,sans-Serif" font-size="10.00">pdal::stats::Summary</text>
<text text-anchor="middle" x="55" y="-31.5" font-family="Helvetica,sans-Serif" font-size="10.00">::insert</text>
</g>
<!-- Node2 -->
<g id="node2" class="node"><title>Node2</title>
<g id="a_node2"><a xlink:href="classpdal_1_1ColorinterpFilter.html#afbedcf0821624baf83586d9290310948" target="_top" xlink:title="pdal::ColorinterpFilter\l::filter">
<polygon fill="white" stroke="black" points="146,-49.5 146,-79.5 256,-79.5 256,-49.5 146,-49.5"/>
<text text-anchor="start" x="154" y="-67.5" font-family="Helvetica,sans-Serif" font-size="10.00">pdal::ColorinterpFilter</text>
<text text-anchor="middle" x="201" y="-56.5" font-family="Helvetica,sans-Serif" font-size="10.00">::filter</text>
</a>
</g>
</g>
<!-- Node1&#45;&gt;Node2 -->
<g id="edge1" class="edge"><title>Node1&#45;&gt;Node2</title>
<path fill="none" stroke="midnightblue" d="M119.991,-50.6095C128.561,-52.0974 137.284,-53.6119 145.667,-55.0672"/>
<polygon fill="midnightblue" stroke="midnightblue" points="120.481,-47.1424 110.03,-48.8802 119.284,-54.0392 120.481,-47.1424"/>
</g>
<!-- Node3 -->
<g id="node3" class="node"><title>Node3</title>
<g id="a_node3"><a xlink:href="classpdal_1_1StatsFilter.html#aeb2a3504e4d6eb9c9c7852795587b234" target="_top" xlink:title="pdal::StatsFilter::\lprocessOne">
<polygon fill="white" stroke="black" points="155,-0.5 155,-30.5 247,-30.5 247,-0.5 155,-0.5"/>
<text text-anchor="start" x="163" y="-18.5" font-family="Helvetica,sans-Serif" font-size="10.00">pdal::StatsFilter::</text>
<text text-anchor="middle" x="201" y="-7.5" font-family="Helvetica,sans-Serif" font-size="10.00">processOne</text>
</a>
</g>
</g>
<!-- Node1&#45;&gt;Node3 -->
<g id="edge2" class="edge"><title>Node1&#45;&gt;Node3</title>
<path fill="none" stroke="midnightblue" d="M120.144,-28.8094C131.769,-26.8719 143.67,-24.8883 154.617,-23.0639"/>
<polygon fill="midnightblue" stroke="midnightblue" points="119.318,-25.3986 110.03,-30.495 120.469,-32.3033 119.318,-25.3986"/>
</g>
</g>
</svg>
