<?xml version="1.0" encoding="UTF-8" standalone="no"?>
<!DOCTYPE svg PUBLIC "-//W3C//DTD SVG 1.1//EN"
 "http://www.w3.org/Graphics/SVG/1.1/DTD/svg11.dtd">
<!-- Generated by graphviz version 2.38.0 (20140413.2041)
 -->
<!-- Title: pdal::GDALGrid::windowFill Pages: 1 -->
<svg width="838pt" height="240pt"
 viewBox="0.00 0.00 838.00 240.30" xmlns="http://www.w3.org/2000/svg" xmlns:xlink="http://www.w3.org/1999/xlink">
<g id="graph0" class="graph" transform="scale(1 1) rotate(0) translate(4 236.296)">
<title>pdal::GDALGrid::windowFill</title>
<polygon fill="white" stroke="none" points="-4,4 -4,-236.296 834,-236.296 834,4 -4,4"/>
<!-- Node1 -->
<g id="node1" class="node"><title>Node1</title>
<polygon fill="#bfbfbf" stroke="black" points="0,-103.357 0,-122.357 137,-122.357 137,-103.357 0,-103.357"/>
<text text-anchor="middle" x="68.5" y="-110.357" font-family="Helvetica,sans-Serif" font-size="10.00">pdal::GDALGrid::windowFill</text>
</g>
<!-- Node2 -->
<g id="node2" class="node"><title>Node2</title>
<g id="a_node2"><a xlink:href="classpdal_1_1GDALGrid.html#af93a4a87c937433d3d82c050c0bd86bc" target="_top" xlink:title="pdal::GDALGrid::distance">
<polygon fill="white" stroke="black" points="364,-84.3574 364,-103.357 492,-103.357 492,-84.3574 364,-84.3574"/>
<text text-anchor="middle" x="428" y="-91.3574" font-family="Helvetica,sans-Serif" font-size="10.00">pdal::GDALGrid::distance</text>
</a>
</g>
</g>
<!-- Node1&#45;&gt;Node2 -->
<g id="edge1" class="edge"><title>Node1&#45;&gt;Node2</title>
<path fill="none" stroke="midnightblue" d="M76.1008,-103.136C90.6941,-82.6266 127.998,-35.3795 173,-17.8574 237.195,7.13749 262.769,4.29341 328,-17.8574 362.137,-29.4494 393.718,-58.0755 411.647,-76.6979"/>
<polygon fill="midnightblue" stroke="midnightblue" points="409.289,-79.3015 418.673,-84.2204 414.405,-74.5233 409.289,-79.3015"/>
</g>
<!-- Node3 -->
<g id="node3" class="node"><title>Node3</title>
<g id="a_node3"><a xlink:href="classpdal_1_1GDALGrid.html#a3db36b257c5b02984a70daba39fcf5ff" target="_top" xlink:title="pdal::GDALGrid::fillNodata">
<polygon fill="white" stroke="black" points="537,-141.357 537,-160.357 670,-160.357 670,-141.357 537,-141.357"/>
<text text-anchor="middle" x="603.5" y="-148.357" font-family="Helvetica,sans-Serif" font-size="10.00">pdal::GDALGrid::fillNodata</text>
</a>
</g>
</g>
<!-- Node1&#45;&gt;Node3 -->
<g id="edge9" class="edge"><title>Node1&#45;&gt;Node3</title>
<path fill="none" stroke="midnightblue" d="M113.877,-122.387C132.11,-125.941 153.486,-129.645 173,-131.857 296.292,-145.834 440.576,-149.671 526.596,-150.643"/>
<polygon fill="midnightblue" stroke="midnightblue" points="526.757,-154.144 536.792,-150.748 526.829,-147.145 526.757,-154.144"/>
</g>
<!-- Node6 -->
<g id="node6" class="node"><title>Node6</title>
<g id="a_node6"><a xlink:href="classpdal_1_1GDALGrid.html#aad61638561cd3049bba2717ab1ba23b1" target="_top" xlink:title="pdal::GDALGrid::index">
<polygon fill="white" stroke="black" points="715,-179.357 715,-198.357 830,-198.357 830,-179.357 715,-179.357"/>
<text text-anchor="middle" x="772.5" y="-186.357" font-family="Helvetica,sans-Serif" font-size="10.00">pdal::GDALGrid::index</text>
</a>
</g>
</g>
<!-- Node1&#45;&gt;Node6 -->
<g id="edge11" class="edge"><title>Node1&#45;&gt;Node6</title>
<path fill="none" stroke="midnightblue" d="M78.6703,-122.529C95.5062,-139.574 133.278,-174.597 173,-189.857 364.493,-263.425 616.582,-222.928 721.915,-200.545"/>
<polygon fill="midnightblue" stroke="midnightblue" points="722.909,-203.911 731.942,-198.374 721.428,-197.069 722.909,-203.911"/>
</g>
<!-- Node8 -->
<g id="node8" class="node"><title>Node8</title>
<g id="a_node8"><a xlink:href="classpdal_1_1GDALGrid.html#a502944d1c3bf2d7daed001d5b56887cc" target="_top" xlink:title="pdal::GDALGrid::empty">
<polygon fill="white" stroke="black" points="368.5,-179.357 368.5,-198.357 487.5,-198.357 487.5,-179.357 368.5,-179.357"/>
<text text-anchor="middle" x="428" y="-186.357" font-family="Helvetica,sans-Serif" font-size="10.00">pdal::GDALGrid::empty</text>
</a>
</g>
</g>
<!-- Node1&#45;&gt;Node8 -->
<g id="edge7" class="edge"><title>Node1&#45;&gt;Node8</title>
<path fill="none" stroke="midnightblue" d="M84.2037,-122.47C103.642,-134.642 139.372,-155.191 173,-164.857 234.061,-182.409 306.437,-187.826 358.28,-189.198"/>
<polygon fill="midnightblue" stroke="midnightblue" points="358.29,-192.699 368.365,-189.42 358.444,-185.7 358.29,-192.699"/>
</g>
<!-- Node9 -->
<g id="node9" class="node"><title>Node9</title>
<g id="a_node9"><a xlink:href="classpdal_1_1GDALGrid.html#a0b26924f2de92cf1379112fab6f88401" target="_top" xlink:title="pdal::GDALGrid::height">
<polygon fill="white" stroke="black" points="191.5,-65.3574 191.5,-84.3574 309.5,-84.3574 309.5,-65.3574 191.5,-65.3574"/>
<text text-anchor="middle" x="250.5" y="-72.3574" font-family="Helvetica,sans-Serif" font-size="10.00">pdal::GDALGrid::height</text>
</a>
</g>
</g>
<!-- Node1&#45;&gt;Node9 -->
<g id="edge10" class="edge"><title>Node1&#45;&gt;Node9</title>
<path fill="none" stroke="midnightblue" d="M114.922,-103.268C139.103,-98.1635 169.027,-91.8461 194.514,-86.4655"/>
<polygon fill="midnightblue" stroke="midnightblue" points="195.344,-89.8676 204.405,-84.3774 193.898,-83.0186 195.344,-89.8676"/>
</g>
<!-- Node10 -->
<g id="node10" class="node"><title>Node10</title>
<g id="a_node10"><a xlink:href="classpdal_1_1GDALGrid.html#aa87e44877a62e79b92d651ff4dc28848" target="_top" xlink:title="pdal::GDALGrid::width">
<polygon fill="white" stroke="black" points="193,-27.3574 193,-46.3574 308,-46.3574 308,-27.3574 193,-27.3574"/>
<text text-anchor="middle" x="250.5" y="-34.3574" font-family="Helvetica,sans-Serif" font-size="10.00">pdal::GDALGrid::width</text>
</a>
</g>
</g>
<!-- Node1&#45;&gt;Node10 -->
<g id="edge12" class="edge"><title>Node1&#45;&gt;Node10</title>
<path fill="none" stroke="midnightblue" d="M83.9893,-103.282C103.483,-90.7807 139.575,-68.9532 173,-55.8574 179.335,-53.3753 186.095,-51.1407 192.875,-49.151"/>
<polygon fill="midnightblue" stroke="midnightblue" points="194.073,-52.4511 202.778,-46.4109 192.207,-45.7046 194.073,-52.4511"/>
</g>
<!-- Node11 -->
<g id="node11" class="node"><title>Node11</title>
<g id="a_node11"><a xlink:href="classpdal_1_1GDALGrid.html#a3df67e9df954c3b14c421e6319abbc93" target="_top" xlink:title="pdal::GDALGrid::windowFillCell">
<polygon fill="white" stroke="black" points="173,-103.357 173,-122.357 328,-122.357 328,-103.357 173,-103.357"/>
<text text-anchor="middle" x="250.5" y="-110.357" font-family="Helvetica,sans-Serif" font-size="10.00">pdal::GDALGrid::windowFillCell</text>
</a>
</g>
</g>
<!-- Node1&#45;&gt;Node11 -->
<g id="edge13" class="edge"><title>Node1&#45;&gt;Node11</title>
<path fill="none" stroke="midnightblue" d="M137.037,-112.857C145.426,-112.857 154.094,-112.857 162.721,-112.857"/>
<polygon fill="midnightblue" stroke="midnightblue" points="162.812,-116.357 172.812,-112.857 162.812,-109.357 162.812,-116.357"/>
</g>
<!-- Node2&#45;&gt;Node3 -->
<g id="edge2" class="edge"><title>Node2&#45;&gt;Node3</title>
<path fill="none" stroke="midnightblue" d="M451.539,-103.375C471.433,-111.566 501.334,-123.371 528,-131.857 535.686,-134.303 543.895,-136.653 551.951,-138.816"/>
<polygon fill="midnightblue" stroke="midnightblue" points="551.097,-142.211 561.657,-141.356 552.869,-135.439 551.097,-142.211"/>
</g>
<!-- Node4 -->
<g id="node4" class="node"><title>Node4</title>
<g id="a_node4"><a xlink:href="classpdal_1_1GDALGrid.html#ab8332fb6e1bba9e71ace877af67811b6" target="_top" xlink:title="pdal::GDALGrid::horizontalPos">
<polygon fill="white" stroke="black" points="528,-65.3574 528,-84.3574 679,-84.3574 679,-65.3574 528,-65.3574"/>
<text text-anchor="middle" x="603.5" y="-72.3574" font-family="Helvetica,sans-Serif" font-size="10.00">pdal::GDALGrid::horizontalPos</text>
</a>
</g>
</g>
<!-- Node2&#45;&gt;Node4 -->
<g id="edge3" class="edge"><title>Node2&#45;&gt;Node4</title>
<path fill="none" stroke="midnightblue" d="M492.128,-86.9442C500.485,-86.029 509.158,-85.0792 517.805,-84.1324"/>
<polygon fill="midnightblue" stroke="midnightblue" points="518.362,-87.5924 527.921,-83.0245 517.6,-80.634 518.362,-87.5924"/>
</g>
<!-- Node5 -->
<g id="node5" class="node"><title>Node5</title>
<g id="a_node5"><a xlink:href="classpdal_1_1GDALGrid.html#ac76afe2343939aefb49a0d4f82956519" target="_top" xlink:title="pdal::GDALGrid::update">
<polygon fill="white" stroke="black" points="543,-27.3574 543,-46.3574 664,-46.3574 664,-27.3574 543,-27.3574"/>
<text text-anchor="middle" x="603.5" y="-34.3574" font-family="Helvetica,sans-Serif" font-size="10.00">pdal::GDALGrid::update</text>
</a>
</g>
</g>
<!-- Node2&#45;&gt;Node5 -->
<g id="edge4" class="edge"><title>Node2&#45;&gt;Node5</title>
<path fill="none" stroke="midnightblue" d="M451.539,-84.3401C471.433,-76.1488 501.334,-64.3434 528,-55.8574 535.686,-53.4113 543.895,-51.0613 551.951,-48.8984"/>
<polygon fill="midnightblue" stroke="midnightblue" points="552.869,-52.2762 561.657,-46.3589 551.097,-45.5042 552.869,-52.2762"/>
</g>
<!-- Node7 -->
<g id="node7" class="node"><title>Node7</title>
<g id="a_node7"><a xlink:href="classpdal_1_1GDALGrid.html#a74693723015c77582ea471d923133dbd" target="_top" xlink:title="pdal::GDALGrid::verticalPos">
<polygon fill="white" stroke="black" points="533.5,-103.357 533.5,-122.357 673.5,-122.357 673.5,-103.357 533.5,-103.357"/>
<text text-anchor="middle" x="603.5" y="-110.357" font-family="Helvetica,sans-Serif" font-size="10.00">pdal::GDALGrid::verticalPos</text>
</a>
</g>
</g>
<!-- Node2&#45;&gt;Node7 -->
<g id="edge6" class="edge"><title>Node2&#45;&gt;Node7</title>
<path fill="none" stroke="midnightblue" d="M492.128,-100.771C502.261,-101.88 512.859,-103.041 523.31,-104.185"/>
<polygon fill="midnightblue" stroke="midnightblue" points="522.942,-107.666 533.264,-105.275 523.704,-100.707 522.942,-107.666"/>
</g>
<!-- Node5&#45;&gt;Node6 -->
<g id="edge5" class="edge"><title>Node5&#45;&gt;Node6</title>
<path fill="none" stroke="midnightblue" d="M660.547,-46.432C667.085,-48.8897 673.406,-51.9777 679,-55.8574 721.195,-85.1235 750.254,-140.295 763.451,-169.534"/>
<polygon fill="midnightblue" stroke="midnightblue" points="760.388,-171.267 767.59,-179.037 766.806,-168.472 760.388,-171.267"/>
</g>
<!-- Node8&#45;&gt;Node6 -->
<g id="edge8" class="edge"><title>Node8&#45;&gt;Node6</title>
<path fill="none" stroke="midnightblue" d="M487.878,-188.857C548.119,-188.857 641.575,-188.857 704.583,-188.857"/>
<polygon fill="midnightblue" stroke="midnightblue" points="704.812,-192.357 714.812,-188.857 704.812,-185.357 704.812,-192.357"/>
</g>
<!-- Node11&#45;&gt;Node2 -->
<g id="edge14" class="edge"><title>Node11&#45;&gt;Node2</title>
<path fill="none" stroke="midnightblue" d="M328.222,-104.551C336.681,-103.636 345.278,-102.705 353.694,-101.794"/>
<polygon fill="midnightblue" stroke="midnightblue" points="354.282,-105.251 363.847,-100.694 353.529,-98.2912 354.282,-105.251"/>
</g>
</g>
</svg>
