<?xml version="1.0" encoding="UTF-8" standalone="no"?>
<!DOCTYPE svg PUBLIC "-//W3C//DTD SVG 1.1//EN"
 "http://www.w3.org/Graphics/SVG/1.1/DTD/svg11.dtd">
<!-- Generated by graphviz version 2.38.0 (20140413.2041)
 -->
<!-- Title: pdal::PlyReader::read Pages: 1 -->
<svg width="966pt" height="116pt"
 viewBox="0.00 0.00 966.00 115.50" xmlns="http://www.w3.org/2000/svg" xmlns:xlink="http://www.w3.org/1999/xlink">
<g id="graph0" class="graph" transform="scale(1 1) rotate(0) translate(4 111.5)">
<title>pdal::PlyReader::read</title>
<polygon fill="white" stroke="none" points="-4,4 -4,-111.5 962,-111.5 962,4 -4,4"/>
<!-- Node1 -->
<g id="node1" class="node"><title>Node1</title>
<polygon fill="#bfbfbf" stroke="black" points="0,-19.5 0,-38.5 111,-38.5 111,-19.5 0,-19.5"/>
<text text-anchor="middle" x="55.5" y="-26.5" font-family="Helvetica,sans-Serif" font-size="10.00">pdal::PlyReader::read</text>
</g>
<!-- Node2 -->
<g id="node2" class="node"><title>Node2</title>
<g id="a_node2"><a xlink:href="classpdal_1_1PlyReader.html#a2ffd816ad722bc26a939e2205672fc22" target="_top" xlink:title="pdal::PlyReader::processOne">
<polygon fill="white" stroke="black" points="147,-38.5 147,-57.5 292,-57.5 292,-38.5 147,-38.5"/>
<text text-anchor="middle" x="219.5" y="-45.5" font-family="Helvetica,sans-Serif" font-size="10.00">pdal::PlyReader::processOne</text>
</a>
</g>
</g>
<!-- Node1&#45;&gt;Node2 -->
<g id="edge1" class="edge"><title>Node1&#45;&gt;Node2</title>
<path fill="none" stroke="midnightblue" d="M111.346,-35.4325C119.527,-36.392 128.106,-37.3983 136.698,-38.406"/>
<polygon fill="midnightblue" stroke="midnightblue" points="136.427,-41.898 146.766,-39.5868 137.242,-34.9457 136.427,-41.898"/>
</g>
<!-- Node11 -->
<g id="node11" class="node"><title>Node11</title>
<g id="a_node11"><a xlink:href="classpdal_1_1PointRef.html#af2252f383598b06c0756a6f0e9bad258" target="_top" xlink:title="pdal::PointRef::setPointId">
<polygon fill="white" stroke="black" points="155,-0.5 155,-19.5 284,-19.5 284,-0.5 155,-0.5"/>
<text text-anchor="middle" x="219.5" y="-7.5" font-family="Helvetica,sans-Serif" font-size="10.00">pdal::PointRef::setPointId</text>
</a>
</g>
</g>
<!-- Node1&#45;&gt;Node11 -->
<g id="edge10" class="edge"><title>Node1&#45;&gt;Node11</title>
<path fill="none" stroke="midnightblue" d="M111.346,-22.5675C122.028,-21.3146 133.39,-19.982 144.571,-18.6707"/>
<polygon fill="midnightblue" stroke="midnightblue" points="145.24,-22.1163 154.764,-17.4752 144.424,-15.164 145.24,-22.1163"/>
</g>
<!-- Node3 -->
<g id="node3" class="node"><title>Node3</title>
<g id="a_node3"><a xlink:href="classpdal_1_1PlyReader.html#a9f8530cfe07a115f3aec19f71ed53ea2" target="_top" xlink:title="pdal::PlyReader::readElement">
<polygon fill="white" stroke="black" points="328,-38.5 328,-57.5 475,-57.5 475,-38.5 328,-38.5"/>
<text text-anchor="middle" x="401.5" y="-45.5" font-family="Helvetica,sans-Serif" font-size="10.00">pdal::PlyReader::readElement</text>
</a>
</g>
</g>
<!-- Node2&#45;&gt;Node3 -->
<g id="edge2" class="edge"><title>Node2&#45;&gt;Node3</title>
<path fill="none" stroke="midnightblue" d="M292.158,-48C300.614,-48 309.295,-48 317.886,-48"/>
<polygon fill="midnightblue" stroke="midnightblue" points="317.911,-51.5001 327.911,-48 317.911,-44.5001 317.911,-51.5001"/>
</g>
<!-- Node4 -->
<g id="node4" class="node"><title>Node4</title>
<g id="a_node4"><a xlink:href="classpdal_1_1PlyReader.html#ac58ba5e9f6a206ba64927bf000d275f9" target="_top" xlink:title="pdal::PlyReader::readProperty">
<polygon fill="white" stroke="black" points="511,-79.5 511,-98.5 659,-98.5 659,-79.5 511,-79.5"/>
<text text-anchor="middle" x="585" y="-86.5" font-family="Helvetica,sans-Serif" font-size="10.00">pdal::PlyReader::readProperty</text>
</a>
</g>
</g>
<!-- Node3&#45;&gt;Node4 -->
<g id="edge3" class="edge"><title>Node3&#45;&gt;Node4</title>
<path fill="none" stroke="midnightblue" d="M444.596,-57.5093C470.617,-63.3874 504.216,-70.9772 531.908,-77.2327"/>
<polygon fill="midnightblue" stroke="midnightblue" points="531.293,-80.6818 541.818,-79.4714 532.835,-73.8539 531.293,-80.6818"/>
</g>
<!-- Node6 -->
<g id="node6" class="node"><title>Node6</title>
<g id="a_node6"><a xlink:href="classpdal_1_1Stage.html#abdbd1176da12dfd882d931a43290797f" target="_top" xlink:title="pdal::Stage::throwError">
<polygon fill="white" stroke="black" points="526.5,-38.5 526.5,-57.5 643.5,-57.5 643.5,-38.5 526.5,-38.5"/>
<text text-anchor="middle" x="585" y="-45.5" font-family="Helvetica,sans-Serif" font-size="10.00">pdal::Stage::throwError</text>
</a>
</g>
</g>
<!-- Node3&#45;&gt;Node6 -->
<g id="edge5" class="edge"><title>Node3&#45;&gt;Node6</title>
<path fill="none" stroke="midnightblue" d="M475.016,-48C488.628,-48 502.811,-48 516.271,-48"/>
<polygon fill="midnightblue" stroke="midnightblue" points="516.401,-51.5001 526.401,-48 516.401,-44.5001 516.401,-51.5001"/>
</g>
<!-- Node8 -->
<g id="node8" class="node"><title>Node8</title>
<g id="a_node8"><a xlink:href="classpdal_1_1PointRef.html#ae6ca67ab4acd1fd5bd330bc3eaeec971" target="_top" xlink:title="pdal::PointRef::pointId">
<polygon fill="white" stroke="black" points="528,-0.5 528,-19.5 642,-19.5 642,-0.5 528,-0.5"/>
<text text-anchor="middle" x="585" y="-7.5" font-family="Helvetica,sans-Serif" font-size="10.00">pdal::PointRef::pointId</text>
</a>
</g>
</g>
<!-- Node3&#45;&gt;Node8 -->
<g id="edge7" class="edge"><title>Node3&#45;&gt;Node8</title>
<path fill="none" stroke="midnightblue" d="M448.3,-38.411C472.683,-33.3061 502.857,-26.9887 528.556,-21.6082"/>
<polygon fill="midnightblue" stroke="midnightblue" points="529.459,-24.9951 538.529,-19.5201 528.024,-18.1436 529.459,-24.9951"/>
</g>
<!-- Node5 -->
<g id="node5" class="node"><title>Node5</title>
<g id="a_node5"><a xlink:href="structpdal_1_1PlyReader_1_1Property.html#a19a80e32d95d547aca2b814c4a7ec311" target="_top" xlink:title="pdal::PlyReader::Property\l::read">
<polygon fill="white" stroke="black" points="695,-77 695,-107 824,-107 824,-77 695,-77"/>
<text text-anchor="start" x="703" y="-95" font-family="Helvetica,sans-Serif" font-size="10.00">pdal::PlyReader::Property</text>
<text text-anchor="middle" x="759.5" y="-84" font-family="Helvetica,sans-Serif" font-size="10.00">::read</text>
</a>
</g>
</g>
<!-- Node4&#45;&gt;Node5 -->
<g id="edge4" class="edge"><title>Node4&#45;&gt;Node5</title>
<path fill="none" stroke="midnightblue" d="M659.156,-90.2723C667.577,-90.4187 676.169,-90.5682 684.6,-90.7148"/>
<polygon fill="midnightblue" stroke="midnightblue" points="684.723,-94.2174 694.782,-90.8919 684.845,-87.2184 684.723,-94.2174"/>
</g>
<!-- Node7 -->
<g id="node7" class="node"><title>Node7</title>
<g id="a_node7"><a xlink:href="classpdal_1_1Stage.html#a6c81d6fbbac17ebe4cd63806916cc750" target="_top" xlink:title="pdal::Stage::getName">
<polygon fill="white" stroke="black" points="703.5,-38.5 703.5,-57.5 815.5,-57.5 815.5,-38.5 703.5,-38.5"/>
<text text-anchor="middle" x="759.5" y="-45.5" font-family="Helvetica,sans-Serif" font-size="10.00">pdal::Stage::getName</text>
</a>
</g>
</g>
<!-- Node6&#45;&gt;Node7 -->
<g id="edge6" class="edge"><title>Node6&#45;&gt;Node7</title>
<path fill="none" stroke="midnightblue" d="M643.92,-48C659.657,-48 676.809,-48 692.936,-48"/>
<polygon fill="midnightblue" stroke="midnightblue" points="693.36,-51.5001 703.36,-48 693.36,-44.5001 693.36,-51.5001"/>
</g>
<!-- Node9 -->
<g id="node9" class="node"><title>Node9</title>
<g id="a_node9"><a xlink:href="namespacepdal_1_1Dimension.html#a880d689fed54aa3ded6f88c9e058c5d2" target="_top" xlink:title="pdal::Dimension::type">
<polygon fill="white" stroke="black" points="703.5,-0.5 703.5,-19.5 815.5,-19.5 815.5,-0.5 703.5,-0.5"/>
<text text-anchor="middle" x="759.5" y="-7.5" font-family="Helvetica,sans-Serif" font-size="10.00">pdal::Dimension::type</text>
</a>
</g>
</g>
<!-- Node8&#45;&gt;Node9 -->
<g id="edge8" class="edge"><title>Node8&#45;&gt;Node9</title>
<path fill="none" stroke="midnightblue" d="M642.006,-10C658.299,-10 676.242,-10 693.061,-10"/>
<polygon fill="midnightblue" stroke="midnightblue" points="693.364,-13.5001 703.364,-10 693.364,-6.5001 693.364,-13.5001"/>
</g>
<!-- Node10 -->
<g id="node10" class="node"><title>Node10</title>
<g id="a_node10"><a xlink:href="namespacepdal_1_1Utils.html#a5268937cf695835e55392f752dc02cb2" target="_top" xlink:title="pdal::Utils::tolower">
<polygon fill="white" stroke="black" points="860,-0.5 860,-19.5 958,-19.5 958,-0.5 860,-0.5"/>
<text text-anchor="middle" x="909" y="-7.5" font-family="Helvetica,sans-Serif" font-size="10.00">pdal::Utils::tolower</text>
</a>
</g>
</g>
<!-- Node9&#45;&gt;Node10 -->
<g id="edge9" class="edge"><title>Node9&#45;&gt;Node10</title>
<path fill="none" stroke="midnightblue" d="M815.843,-10C826.858,-10 838.459,-10 849.574,-10"/>
<polygon fill="midnightblue" stroke="midnightblue" points="849.614,-13.5001 859.614,-10 849.614,-6.5001 849.614,-13.5001"/>
</g>
</g>
</svg>
