<?xml version="1.0" encoding="UTF-8" standalone="no"?>
<!DOCTYPE svg PUBLIC "-//W3C//DTD SVG 1.1//EN"
 "http://www.w3.org/Graphics/SVG/1.1/DTD/svg11.dtd">
<!-- Generated by graphviz version 2.38.0 (20140413.2041)
 -->
<!-- Title: pdal::InfoKernel::addSwitches Pages: 1 -->
<svg width="521pt" height="123pt"
 viewBox="0.00 0.00 521.00 123.00" xmlns="http://www.w3.org/2000/svg" xmlns:xlink="http://www.w3.org/1999/xlink">
<g id="graph0" class="graph" transform="scale(1 1) rotate(0) translate(4 119)">
<title>pdal::InfoKernel::addSwitches</title>
<polygon fill="white" stroke="none" points="-4,4 -4,-119 517,-119 517,4 -4,4"/>
<!-- Node1 -->
<g id="node1" class="node"><title>Node1</title>
<polygon fill="#bfbfbf" stroke="black" points="0,-38.5 0,-57.5 147,-57.5 147,-38.5 0,-38.5"/>
<text text-anchor="middle" x="73.5" y="-45.5" font-family="Helvetica,sans-Serif" font-size="10.00">pdal::InfoKernel::addSwitches</text>
</g>
<!-- Node2 -->
<g id="node2" class="node"><title>Node2</title>
<g id="a_node2"><a xlink:href="classpdal_1_1ProgramArgs.html#a9f773618ed928e9cef78aa1bf8278784" target="_top" xlink:title="pdal::ProgramArgs::add">
<polygon fill="white" stroke="black" points="200.5,-76.5 200.5,-95.5 319.5,-95.5 319.5,-76.5 200.5,-76.5"/>
<text text-anchor="middle" x="260" y="-83.5" font-family="Helvetica,sans-Serif" font-size="10.00">pdal::ProgramArgs::add</text>
</a>
</g>
</g>
<!-- Node1&#45;&gt;Node2 -->
<g id="edge1" class="edge"><title>Node1&#45;&gt;Node2</title>
<path fill="none" stroke="midnightblue" d="M121.057,-57.589C145.843,-62.6939 176.515,-69.0113 202.639,-74.3918"/>
<polygon fill="midnightblue" stroke="midnightblue" points="202.277,-77.8906 212.778,-76.4799 203.689,-71.0345 202.277,-77.8906"/>
</g>
<!-- Node5 -->
<g id="node5" class="node"><title>Node5</title>
<g id="a_node5"><a xlink:href="classpdal_1_1Arg.html#a7ece3b53a718135710280814714cd6ca" target="_top" xlink:title="pdal::Arg::setHidden">
<polygon fill="white" stroke="black" points="207,-38.5 207,-57.5 313,-57.5 313,-38.5 207,-38.5"/>
<text text-anchor="middle" x="260" y="-45.5" font-family="Helvetica,sans-Serif" font-size="10.00">pdal::Arg::setHidden</text>
</a>
</g>
</g>
<!-- Node1&#45;&gt;Node5 -->
<g id="edge4" class="edge"><title>Node1&#45;&gt;Node5</title>
<path fill="none" stroke="midnightblue" d="M147.154,-48C163.533,-48 180.776,-48 196.686,-48"/>
<polygon fill="midnightblue" stroke="midnightblue" points="196.926,-51.5001 206.926,-48 196.926,-44.5001 196.926,-51.5001"/>
</g>
<!-- Node6 -->
<g id="node6" class="node"><title>Node6</title>
<g id="a_node6"><a xlink:href="classpdal_1_1Arg.html#afccdbda0722996d217e669b3e150f71d" target="_top" xlink:title="pdal::Arg::setOptionalPositional">
<polygon fill="white" stroke="black" points="183,-0.5 183,-19.5 337,-19.5 337,-0.5 183,-0.5"/>
<text text-anchor="middle" x="260" y="-7.5" font-family="Helvetica,sans-Serif" font-size="10.00">pdal::Arg::setOptionalPositional</text>
</a>
</g>
</g>
<!-- Node1&#45;&gt;Node6 -->
<g id="edge5" class="edge"><title>Node1&#45;&gt;Node6</title>
<path fill="none" stroke="midnightblue" d="M121.057,-38.411C145.843,-33.3061 176.515,-26.9887 202.639,-21.6082"/>
<polygon fill="midnightblue" stroke="midnightblue" points="203.689,-24.9655 212.778,-19.5201 202.277,-18.1094 203.689,-24.9655"/>
</g>
<!-- Node3 -->
<g id="node3" class="node"><title>Node3</title>
<g id="a_node3"><a xlink:href="namespacepdal_1_1Dimension.html#af3176b0b7e6b4be000317846cf7c2718" target="_top" xlink:title="pdal::Dimension::name">
<polygon fill="white" stroke="black" points="384.5,-95.5 384.5,-114.5 501.5,-114.5 501.5,-95.5 384.5,-95.5"/>
<text text-anchor="middle" x="443" y="-102.5" font-family="Helvetica,sans-Serif" font-size="10.00">pdal::Dimension::name</text>
</a>
</g>
</g>
<!-- Node2&#45;&gt;Node3 -->
<g id="edge2" class="edge"><title>Node2&#45;&gt;Node3</title>
<path fill="none" stroke="midnightblue" d="M319.766,-92.1688C337.191,-93.9979 356.413,-96.0157 374.353,-97.899"/>
<polygon fill="midnightblue" stroke="midnightblue" points="374.145,-101.396 384.456,-98.9594 374.876,-94.4345 374.145,-101.396"/>
</g>
<!-- Node4 -->
<g id="node4" class="node"><title>Node4</title>
<g id="a_node4"><a xlink:href="namespacepdal_1_1Dimension.html#a4041a0eeee0ca503caad91db24affa0e" target="_top" xlink:title="pdal::Dimension::description">
<polygon fill="white" stroke="black" points="373,-57.5 373,-76.5 513,-76.5 513,-57.5 373,-57.5"/>
<text text-anchor="middle" x="443" y="-64.5" font-family="Helvetica,sans-Serif" font-size="10.00">pdal::Dimension::description</text>
</a>
</g>
</g>
<!-- Node2&#45;&gt;Node4 -->
<g id="edge3" class="edge"><title>Node2&#45;&gt;Node4</title>
<path fill="none" stroke="midnightblue" d="M319.766,-79.8312C333.388,-78.4013 348.109,-76.856 362.457,-75.3499"/>
<polygon fill="midnightblue" stroke="midnightblue" points="363.237,-78.7872 372.817,-74.2623 362.506,-71.8255 363.237,-78.7872"/>
</g>
</g>
</svg>
