<?xml version="1.0" encoding="UTF-8" standalone="no"?>
<!DOCTYPE svg PUBLIC "-//W3C//DTD SVG 1.1//EN"
 "http://www.w3.org/Graphics/SVG/1.1/DTD/svg11.dtd">
<!-- Generated by graphviz version 2.38.0 (20140413.2041)
 -->
<!-- Title: pdal::PluginManager::l_link Pages: 1 -->
<svg width="391pt" height="66pt"
 viewBox="0.00 0.00 391.00 66.00" xmlns="http://www.w3.org/2000/svg" xmlns:xlink="http://www.w3.org/1999/xlink">
<g id="graph0" class="graph" transform="scale(1 1) rotate(0) translate(4 62)">
<title>pdal::PluginManager::l_link</title>
<polygon fill="white" stroke="none" points="-4,4 -4,-62 387,-62 387,4 -4,4"/>
<!-- Node1 -->
<g id="node1" class="node"><title>Node1</title>
<polygon fill="#bfbfbf" stroke="black" points="0,-14 0,-44 105,-44 105,-14 0,-14"/>
<text text-anchor="start" x="8" y="-32" font-family="Helvetica,sans-Serif" font-size="10.00">pdal::PluginManager</text>
<text text-anchor="middle" x="52.5" y="-21" font-family="Helvetica,sans-Serif" font-size="10.00">::l_link</text>
</g>
<!-- Node2 -->
<g id="node2" class="node"><title>Node2</title>
<g id="a_node2"><a xlink:href="classpdal_1_1PluginManager.html#a158eb5da5a800f5591eef3d31baa5b1c" target="_top" xlink:title="pdal::PluginManager\l::link">
<polygon fill="white" stroke="black" points="141,-14 141,-44 246,-44 246,-14 141,-14"/>
<text text-anchor="start" x="149" y="-32" font-family="Helvetica,sans-Serif" font-size="10.00">pdal::PluginManager</text>
<text text-anchor="middle" x="193.5" y="-21" font-family="Helvetica,sans-Serif" font-size="10.00">::link</text>
</a>
</g>
</g>
<!-- Node1&#45;&gt;Node2 -->
<g id="edge1" class="edge"><title>Node1&#45;&gt;Node2</title>
<path fill="none" stroke="midnightblue" d="M115.441,-22.2856C123.878,-22.2058 132.466,-22.2601 140.698,-22.4484"/>
<polygon fill="midnightblue" stroke="midnightblue" points="115.201,-18.7889 105.258,-22.4494 115.314,-25.788 115.201,-18.7889"/>
</g>
<!-- Node2&#45;&gt;Node1 -->
<g id="edge4" class="edge"><title>Node2&#45;&gt;Node1</title>
<path fill="none" stroke="midnightblue" d="M130.514,-35.7148C122.077,-35.7941 113.49,-35.7394 105.258,-35.5506"/>
<polygon fill="midnightblue" stroke="midnightblue" points="130.756,-39.2115 140.698,-35.5516 130.643,-32.2124 130.756,-39.2115"/>
</g>
<!-- Node3 -->
<g id="node3" class="node"><title>Node3</title>
<g id="a_node3"><a xlink:href="classApp.html#a1577860a48c9cef4fe5f669480cac388" target="_top" xlink:title="App::outputDrivers">
<polygon fill="white" stroke="black" points="283.5,-38.5 283.5,-57.5 381.5,-57.5 381.5,-38.5 283.5,-38.5"/>
<text text-anchor="middle" x="332.5" y="-45.5" font-family="Helvetica,sans-Serif" font-size="10.00">App::outputDrivers</text>
</a>
</g>
</g>
<!-- Node2&#45;&gt;Node3 -->
<g id="edge2" class="edge"><title>Node2&#45;&gt;Node3</title>
<path fill="none" stroke="midnightblue" d="M256.372,-37.5808C265.387,-38.831 274.556,-40.1026 283.247,-41.308"/>
<polygon fill="midnightblue" stroke="midnightblue" points="256.68,-34.0901 246.294,-36.1831 255.718,-41.0237 256.68,-34.0901"/>
</g>
<!-- Node4 -->
<g id="node4" class="node"><title>Node4</title>
<g id="a_node4"><a xlink:href="classApp.html#adf89e292877822f233d3b95598d2b1cb" target="_top" xlink:title="App::outputOptions">
<polygon fill="white" stroke="black" points="282,-0.5 282,-19.5 383,-19.5 383,-0.5 282,-0.5"/>
<text text-anchor="middle" x="332.5" y="-7.5" font-family="Helvetica,sans-Serif" font-size="10.00">App::outputOptions</text>
</a>
</g>
</g>
<!-- Node2&#45;&gt;Node4 -->
<g id="edge3" class="edge"><title>Node2&#45;&gt;Node4</title>
<path fill="none" stroke="midnightblue" d="M256.27,-20.4333C264.852,-19.2431 273.577,-18.0331 281.898,-16.8792"/>
<polygon fill="midnightblue" stroke="midnightblue" points="255.718,-16.9763 246.294,-21.8169 256.68,-23.9099 255.718,-16.9763"/>
</g>
</g>
</svg>
