<?xml version="1.0" encoding="UTF-8" standalone="no"?>
<!DOCTYPE svg PUBLIC "-//W3C//DTD SVG 1.1//EN"
 "http://www.w3.org/Graphics/SVG/1.1/DTD/svg11.dtd">
<!-- Generated by graphviz version 2.38.0 (20140413.2041)
 -->
<!-- Title: pdal::BpfReader::readPointMajor Pages: 1 -->
<svg width="1085pt" height="141pt"
 viewBox="0.00 0.00 1085.00 140.50" xmlns="http://www.w3.org/2000/svg" xmlns:xlink="http://www.w3.org/1999/xlink">
<g id="graph0" class="graph" transform="scale(1 1) rotate(0) translate(4 136.5)">
<title>pdal::BpfReader::readPointMajor</title>
<polygon fill="white" stroke="none" points="-4,4 -4,-136.5 1081,-136.5 1081,4 -4,4"/>
<!-- Node1 -->
<g id="node1" class="node"><title>Node1</title>
<polygon fill="#bfbfbf" stroke="black" points="0,-44.5 0,-74.5 134,-74.5 134,-44.5 0,-44.5"/>
<text text-anchor="start" x="8" y="-62.5" font-family="Helvetica,sans-Serif" font-size="10.00">pdal::BpfReader::readPoint</text>
<text text-anchor="middle" x="67" y="-51.5" font-family="Helvetica,sans-Serif" font-size="10.00">Major</text>
</g>
<!-- Node2 -->
<g id="node2" class="node"><title>Node2</title>
<g id="a_node2"><a xlink:href="structpdal_1_1BpfMuellerMatrix.html#a3bae8cd517356ffb0aea13a57d930ae7" target="_top" xlink:title="pdal::BpfMuellerMatrix\l::apply">
<polygon fill="white" stroke="black" points="183,-88.5 183,-118.5 297,-118.5 297,-88.5 183,-88.5"/>
<text text-anchor="start" x="191" y="-106.5" font-family="Helvetica,sans-Serif" font-size="10.00">pdal::BpfMuellerMatrix</text>
<text text-anchor="middle" x="240" y="-95.5" font-family="Helvetica,sans-Serif" font-size="10.00">::apply</text>
</a>
</g>
</g>
<!-- Node1&#45;&gt;Node2 -->
<g id="edge1" class="edge"><title>Node1&#45;&gt;Node2</title>
<path fill="none" stroke="midnightblue" d="M126.37,-74.5192C141.371,-78.379 157.614,-82.5586 172.972,-86.5104"/>
<polygon fill="midnightblue" stroke="midnightblue" points="172.358,-89.9663 182.915,-89.0687 174.102,-83.1871 172.358,-89.9663"/>
</g>
<!-- Node11 -->
<g id="node11" class="node"><title>Node11</title>
<g id="a_node11"><a xlink:href="classpdal_1_1BpfReader.html#a8474ab61285bb81bc1bcc4d69383bb95" target="_top" xlink:title="pdal::BpfReader::numPoints">
<polygon fill="white" stroke="black" points="170,-50 170,-69 310,-69 310,-50 170,-50"/>
<text text-anchor="middle" x="240" y="-57" font-family="Helvetica,sans-Serif" font-size="10.00">pdal::BpfReader::numPoints</text>
</a>
</g>
</g>
<!-- Node1&#45;&gt;Node11 -->
<g id="edge12" class="edge"><title>Node1&#45;&gt;Node11</title>
<path fill="none" stroke="midnightblue" d="M134.113,-59.5C142.557,-59.5 151.267,-59.5 159.89,-59.5"/>
<polygon fill="midnightblue" stroke="midnightblue" points="159.951,-63.0001 169.951,-59.5 159.951,-56.0001 159.951,-63.0001"/>
</g>
<!-- Node12 -->
<g id="node12" class="node"><title>Node12</title>
<g id="a_node12"><a xlink:href="classpdal_1_1BpfReader.html#a84689f8de22fe8725fde3244b628b9d2" target="_top" xlink:title="pdal::BpfReader::seekPoint\lMajor">
<polygon fill="white" stroke="black" points="171.5,-0.5 171.5,-30.5 308.5,-30.5 308.5,-0.5 171.5,-0.5"/>
<text text-anchor="start" x="179.5" y="-18.5" font-family="Helvetica,sans-Serif" font-size="10.00">pdal::BpfReader::seekPoint</text>
<text text-anchor="middle" x="240" y="-7.5" font-family="Helvetica,sans-Serif" font-size="10.00">Major</text>
</a>
</g>
</g>
<!-- Node1&#45;&gt;Node12 -->
<g id="edge13" class="edge"><title>Node1&#45;&gt;Node12</title>
<path fill="none" stroke="midnightblue" d="M126.37,-44.4808C140.599,-40.8196 155.946,-36.8706 170.595,-33.1013"/>
<polygon fill="midnightblue" stroke="midnightblue" points="171.79,-36.4078 180.603,-30.5262 170.046,-29.6286 171.79,-36.4078"/>
</g>
<!-- Node3 -->
<g id="node3" class="node"><title>Node3</title>
<g id="a_node3"><a xlink:href="namespacepdal.html#a8af0329eb87f27a8e758e50c36b2a705" target="_top" xlink:title="pdal::operator\&lt;\&lt;">
<polygon fill="white" stroke="black" points="353,-113 353,-132 441,-132 441,-113 353,-113"/>
<text text-anchor="middle" x="397" y="-120" font-family="Helvetica,sans-Serif" font-size="10.00">pdal::operator&lt;&lt;</text>
</a>
</g>
</g>
<!-- Node2&#45;&gt;Node3 -->
<g id="edge2" class="edge"><title>Node2&#45;&gt;Node3</title>
<path fill="none" stroke="midnightblue" d="M297.397,-110.413C312.024,-112.206 327.737,-114.132 342.225,-115.908"/>
<polygon fill="midnightblue" stroke="midnightblue" points="342.174,-119.428 352.526,-117.171 343.026,-112.48 342.174,-119.428"/>
</g>
<!-- Node4 -->
<g id="node4" class="node"><title>Node4</title>
<g id="a_node4"><a xlink:href="namespacepdal.html#ace4187c9d299de84872aa9a04c71dbf3" target="_top" xlink:title="pdal::operator\&gt;\&gt;">
<polygon fill="white" stroke="black" points="353,-75 353,-94 441,-94 441,-75 353,-75"/>
<text text-anchor="middle" x="397" y="-82" font-family="Helvetica,sans-Serif" font-size="10.00">pdal::operator&gt;&gt;</text>
</a>
</g>
</g>
<!-- Node2&#45;&gt;Node4 -->
<g id="edge3" class="edge"><title>Node2&#45;&gt;Node4</title>
<path fill="none" stroke="midnightblue" d="M297.397,-96.5868C312.024,-94.7938 327.737,-92.8677 342.225,-91.0917"/>
<polygon fill="midnightblue" stroke="midnightblue" points="343.026,-94.5199 352.526,-89.8291 342.174,-87.5719 343.026,-94.5199"/>
</g>
<!-- Node5 -->
<g id="node5" class="node"><title>Node5</title>
<g id="a_node5"><a xlink:href="structpdal_1_1AssignRange.html#add1a82f38c804c85284aa9bed0c4330a" target="_top" xlink:title="pdal::AssignRange::\lparse">
<polygon fill="white" stroke="black" points="484,-69.5 484,-99.5 589,-99.5 589,-69.5 484,-69.5"/>
<text text-anchor="start" x="492" y="-87.5" font-family="Helvetica,sans-Serif" font-size="10.00">pdal::AssignRange::</text>
<text text-anchor="middle" x="536.5" y="-76.5" font-family="Helvetica,sans-Serif" font-size="10.00">parse</text>
</a>
</g>
</g>
<!-- Node4&#45;&gt;Node5 -->
<g id="edge4" class="edge"><title>Node4&#45;&gt;Node5</title>
<path fill="none" stroke="midnightblue" d="M441.129,-84.5C451.5,-84.5 462.779,-84.5 473.813,-84.5"/>
<polygon fill="midnightblue" stroke="midnightblue" points="473.845,-88.0001 483.845,-84.5 473.845,-81.0001 473.845,-88.0001"/>
</g>
<!-- Node6 -->
<g id="node6" class="node"><title>Node6</title>
<g id="a_node6"><a xlink:href="namespacepdal_1_1Utils.html#a9bda8c5dbe5ef7cf66e99ba022184934" target="_top" xlink:title="pdal::Utils::extractSpaces">
<polygon fill="white" stroke="black" points="804.5,-94 804.5,-113 934.5,-113 934.5,-94 804.5,-94"/>
<text text-anchor="middle" x="869.5" y="-101" font-family="Helvetica,sans-Serif" font-size="10.00">pdal::Utils::extractSpaces</text>
</a>
</g>
</g>
<!-- Node5&#45;&gt;Node6 -->
<g id="edge5" class="edge"><title>Node5&#45;&gt;Node6</title>
<path fill="none" stroke="midnightblue" d="M589.219,-87.4688C644.248,-90.6275 731.806,-95.6535 794.208,-99.2355"/>
<polygon fill="midnightblue" stroke="midnightblue" points="794.201,-102.741 804.386,-99.8197 794.603,-95.7523 794.201,-102.741"/>
</g>
<!-- Node8 -->
<g id="node8" class="node"><title>Node8</title>
<g id="a_node8"><a xlink:href="structpdal_1_1DimRange.html#a6b6b128ffc786bddb749f37ccd9fcf1d" target="_top" xlink:title="pdal::DimRange::subParse">
<polygon fill="white" stroke="black" points="625,-56 625,-75 759,-75 759,-56 625,-56"/>
<text text-anchor="middle" x="692" y="-63" font-family="Helvetica,sans-Serif" font-size="10.00">pdal::DimRange::subParse</text>
</a>
</g>
</g>
<!-- Node5&#45;&gt;Node8 -->
<g id="edge7" class="edge"><title>Node5&#45;&gt;Node8</title>
<path fill="none" stroke="midnightblue" d="M589.04,-78.1204C597.304,-77.0976 606.005,-76.0205 614.7,-74.9443"/>
<polygon fill="midnightblue" stroke="midnightblue" points="615.381,-78.3868 624.876,-73.6848 614.521,-71.4398 615.381,-78.3868"/>
</g>
<!-- Node7 -->
<g id="node7" class="node"><title>Node7</title>
<g id="a_node7"><a xlink:href="namespacepdal_1_1Utils.html#acae5a19cd66121b77e2599daec48413d" target="_top" xlink:title="pdal::Utils::extract">
<polygon fill="white" stroke="black" points="980,-75 980,-94 1077,-94 1077,-75 980,-75"/>
<text text-anchor="middle" x="1028.5" y="-82" font-family="Helvetica,sans-Serif" font-size="10.00">pdal::Utils::extract</text>
</a>
</g>
</g>
<!-- Node6&#45;&gt;Node7 -->
<g id="edge6" class="edge"><title>Node6&#45;&gt;Node7</title>
<path fill="none" stroke="midnightblue" d="M934.811,-95.7172C946.352,-94.3205 958.316,-92.8726 969.66,-91.4998"/>
<polygon fill="midnightblue" stroke="midnightblue" points="970.367,-94.9398 979.874,-90.2637 969.526,-87.9905 970.367,-94.9398"/>
</g>
<!-- Node8&#45;&gt;Node6 -->
<g id="edge10" class="edge"><title>Node8&#45;&gt;Node6</title>
<path fill="none" stroke="midnightblue" d="M737.286,-75.089C760.758,-80.1713 789.781,-86.4554 814.558,-91.8203"/>
<polygon fill="midnightblue" stroke="midnightblue" points="814.018,-95.2844 824.532,-93.9799 815.5,-88.4429 814.018,-95.2844"/>
</g>
<!-- Node9 -->
<g id="node9" class="node"><title>Node9</title>
<g id="a_node9"><a xlink:href="namespacepdal_1_1Dimension.html#ad7dd00ca79ce099313f3fe405f40cd93" target="_top" xlink:title="pdal::Dimension::extractName">
<polygon fill="white" stroke="black" points="795,-56 795,-75 944,-75 944,-56 795,-56"/>
<text text-anchor="middle" x="869.5" y="-63" font-family="Helvetica,sans-Serif" font-size="10.00">pdal::Dimension::extractName</text>
</a>
</g>
</g>
<!-- Node8&#45;&gt;Node9 -->
<g id="edge8" class="edge"><title>Node8&#45;&gt;Node9</title>
<path fill="none" stroke="midnightblue" d="M759.349,-65.5C767.561,-65.5 776.039,-65.5 784.472,-65.5"/>
<polygon fill="midnightblue" stroke="midnightblue" points="784.714,-69.0001 794.714,-65.5 784.714,-62.0001 784.714,-69.0001"/>
</g>
<!-- Node10 -->
<g id="node10" class="node"><title>Node10</title>
<g id="a_node10"><a xlink:href="namespacepdal_1_1Dimension.html#af3176b0b7e6b4be000317846cf7c2718" target="_top" xlink:title="pdal::Dimension::name">
<polygon fill="white" stroke="black" points="811,-18 811,-37 928,-37 928,-18 811,-18"/>
<text text-anchor="middle" x="869.5" y="-25" font-family="Helvetica,sans-Serif" font-size="10.00">pdal::Dimension::name</text>
</a>
</g>
</g>
<!-- Node8&#45;&gt;Node10 -->
<g id="edge11" class="edge"><title>Node8&#45;&gt;Node10</title>
<path fill="none" stroke="midnightblue" d="M737.286,-55.911C760.758,-50.8287 789.781,-44.5446 814.558,-39.1797"/>
<polygon fill="midnightblue" stroke="midnightblue" points="815.5,-42.5571 824.532,-37.0201 814.018,-35.7156 815.5,-42.5571"/>
</g>
<!-- Node9&#45;&gt;Node7 -->
<g id="edge9" class="edge"><title>Node9&#45;&gt;Node7</title>
<path fill="none" stroke="midnightblue" d="M944.403,-74.4436C952.997,-75.4837 961.666,-76.5328 969.994,-77.5406"/>
<polygon fill="midnightblue" stroke="midnightblue" points="969.607,-81.0193 979.955,-78.7462 970.448,-74.07 969.607,-81.0193"/>
</g>
<!-- Node13 -->
<g id="node13" class="node"><title>Node13</title>
<g id="a_node13"><a xlink:href="classpdal_1_1IStream.html#af0ce8ed6fcaea7ead21c0e7c5c054812" target="_top" xlink:title="pdal::IStream::seek">
<polygon fill="white" stroke="black" points="346,-6 346,-25 448,-25 448,-6 346,-6"/>
<text text-anchor="middle" x="397" y="-13" font-family="Helvetica,sans-Serif" font-size="10.00">pdal::IStream::seek</text>
</a>
</g>
</g>
<!-- Node12&#45;&gt;Node13 -->
<g id="edge14" class="edge"><title>Node12&#45;&gt;Node13</title>
<path fill="none" stroke="midnightblue" d="M308.534,-15.5C317.564,-15.5 326.778,-15.5 335.673,-15.5"/>
<polygon fill="midnightblue" stroke="midnightblue" points="335.94,-19.0001 345.94,-15.5 335.94,-12.0001 335.94,-19.0001"/>
</g>
</g>
</svg>
