<?xml version="1.0" encoding="UTF-8" standalone="no"?>
<!DOCTYPE svg PUBLIC "-//W3C//DTD SVG 1.1//EN"
 "http://www.w3.org/Graphics/SVG/1.1/DTD/svg11.dtd">
<!-- Generated by graphviz version 2.38.0 (20140413.2041)
 -->
<!-- Title: pdal::PipelineManager::makeFilter Pages: 1 -->
<svg width="595pt" height="400pt"
 viewBox="0.00 0.00 595.00 399.50" xmlns="http://www.w3.org/2000/svg" xmlns:xlink="http://www.w3.org/1999/xlink">
<g id="graph0" class="graph" transform="scale(1 1) rotate(0) translate(4 395.5)">
<title>pdal::PipelineManager::makeFilter</title>
<polygon fill="white" stroke="none" points="-4,4 -4,-395.5 591,-395.5 591,4 -4,4"/>
<!-- Node1 -->
<g id="node1" class="node"><title>Node1</title>
<polygon fill="#bfbfbf" stroke="black" points="0,-170 0,-200 113,-200 113,-170 0,-170"/>
<text text-anchor="start" x="8" y="-188" font-family="Helvetica,sans-Serif" font-size="10.00">pdal::PipelineManager</text>
<text text-anchor="middle" x="56.5" y="-177" font-family="Helvetica,sans-Serif" font-size="10.00">::makeFilter</text>
</g>
<!-- Node2 -->
<g id="node2" class="node"><title>Node2</title>
<g id="a_node2"><a xlink:href="classpdal_1_1SmoothKernel.html#a12357e09bb47a0567ed0af7089c3739f" target="_top" xlink:title="pdal::SmoothKernel\l::execute">
<polygon fill="white" stroke="black" points="165,-361 165,-391 267,-391 267,-361 165,-361"/>
<text text-anchor="start" x="173" y="-379" font-family="Helvetica,sans-Serif" font-size="10.00">pdal::SmoothKernel</text>
<text text-anchor="middle" x="216" y="-368" font-family="Helvetica,sans-Serif" font-size="10.00">::execute</text>
</a>
</g>
</g>
<!-- Node1&#45;&gt;Node2 -->
<g id="edge1" class="edge"><title>Node1&#45;&gt;Node2</title>
<path fill="none" stroke="midnightblue" d="M64.9221,-210.043C76.8868,-246.272 103.787,-313.203 149,-352 153.719,-356.049 159.177,-359.438 164.893,-362.268"/>
<polygon fill="midnightblue" stroke="midnightblue" points="68.1793,-208.736 61.8123,-200.268 61.5088,-210.859 68.1793,-208.736"/>
</g>
<!-- Node3 -->
<g id="node3" class="node"><title>Node3</title>
<g id="a_node3"><a xlink:href="classpdal_1_1DensityKernel.html#a0c74e94ba52214ddb0455254fb25a0b3" target="_top" xlink:title="pdal::DensityKernel\l::execute">
<polygon fill="white" stroke="black" points="165,-312 165,-342 267,-342 267,-312 165,-312"/>
<text text-anchor="start" x="173" y="-330" font-family="Helvetica,sans-Serif" font-size="10.00">pdal::DensityKernel</text>
<text text-anchor="middle" x="216" y="-319" font-family="Helvetica,sans-Serif" font-size="10.00">::execute</text>
</a>
</g>
</g>
<!-- Node1&#45;&gt;Node3 -->
<g id="edge2" class="edge"><title>Node1&#45;&gt;Node3</title>
<path fill="none" stroke="midnightblue" d="M70.6789,-209.263C86.1945,-235.733 114.3,-277.7 149,-303 153.827,-306.52 159.225,-309.571 164.797,-312.205"/>
<polygon fill="midnightblue" stroke="midnightblue" points="73.5422,-207.219 65.5433,-200.271 67.4638,-210.691 73.5422,-207.219"/>
</g>
<!-- Node4 -->
<g id="node4" class="node"><title>Node4</title>
<g id="a_node4"><a xlink:href="classpdal_1_1TIndexKernel.html#a496ad191832c2af610f60ae5ef00d1d0" target="_top" xlink:title="pdal::TIndexKernel\l::getFileInfo">
<polygon fill="white" stroke="black" points="167,-263 167,-293 265,-293 265,-263 167,-263"/>
<text text-anchor="start" x="175" y="-281" font-family="Helvetica,sans-Serif" font-size="10.00">pdal::TIndexKernel</text>
<text text-anchor="middle" x="216" y="-270" font-family="Helvetica,sans-Serif" font-size="10.00">::getFileInfo</text>
</a>
</g>
</g>
<!-- Node1&#45;&gt;Node4 -->
<g id="edge3" class="edge"><title>Node1&#45;&gt;Node4</title>
<path fill="none" stroke="midnightblue" d="M82.3824,-206.999C100.039,-221.772 124.808,-240.864 149,-254 155,-257.258 161.534,-260.239 168.08,-262.909"/>
<polygon fill="midnightblue" stroke="midnightblue" points="84.2041,-203.954 74.3199,-200.139 79.6679,-209.285 84.2041,-203.954"/>
</g>
<!-- Node7 -->
<g id="node7" class="node"><title>Node7</title>
<g id="a_node7"><a xlink:href="classpdal_1_1TranslateKernel.html#a4eb91a1cc4a888e9bdfec17d6673c0b2" target="_top" xlink:title="pdal::TranslateKernel\l::makeArgPipeline">
<polygon fill="white" stroke="black" points="161.5,-214 161.5,-244 270.5,-244 270.5,-214 161.5,-214"/>
<text text-anchor="start" x="169.5" y="-232" font-family="Helvetica,sans-Serif" font-size="10.00">pdal::TranslateKernel</text>
<text text-anchor="middle" x="216" y="-221" font-family="Helvetica,sans-Serif" font-size="10.00">::makeArgPipeline</text>
</a>
</g>
</g>
<!-- Node1&#45;&gt;Node7 -->
<g id="edge6" class="edge"><title>Node1&#45;&gt;Node7</title>
<path fill="none" stroke="midnightblue" d="M120.922,-202.718C134.372,-206.475 148.442,-210.406 161.48,-214.048"/>
<polygon fill="midnightblue" stroke="midnightblue" points="121.835,-199.339 111.262,-200.019 119.952,-206.081 121.835,-199.339"/>
</g>
<!-- Node9 -->
<g id="node9" class="node"><title>Node9</title>
<g id="a_node9"><a xlink:href="classpdal_1_1Kernel.html#aefd7c4bcc56f7f686e7a4c57b726c7ea" target="_top" xlink:title="pdal::Kernel::makeFilter">
<polygon fill="white" stroke="black" points="156,-175.5 156,-194.5 276,-194.5 276,-175.5 156,-175.5"/>
<text text-anchor="middle" x="216" y="-182.5" font-family="Helvetica,sans-Serif" font-size="10.00">pdal::Kernel::makeFilter</text>
</a>
</g>
</g>
<!-- Node1&#45;&gt;Node9 -->
<g id="edge8" class="edge"><title>Node1&#45;&gt;Node9</title>
<path fill="none" stroke="midnightblue" d="M123.29,-185C134.13,-185 145.306,-185 155.967,-185"/>
<polygon fill="midnightblue" stroke="midnightblue" points="123.029,-181.5 113.029,-185 123.029,-188.5 123.029,-181.5"/>
</g>
<!-- Node10 -->
<g id="node10" class="node"><title>Node10</title>
<g id="a_node10"><a xlink:href="classpdal_1_1PipelineManager.html#aecf24d56a3d21fa982772eaaa9568c0c" target="_top" xlink:title="pdal::PipelineManager\l::makeFilter">
<polygon fill="white" stroke="black" points="159.5,-126 159.5,-156 272.5,-156 272.5,-126 159.5,-126"/>
<text text-anchor="start" x="167.5" y="-144" font-family="Helvetica,sans-Serif" font-size="10.00">pdal::PipelineManager</text>
<text text-anchor="middle" x="216" y="-133" font-family="Helvetica,sans-Serif" font-size="10.00">::makeFilter</text>
</a>
</g>
</g>
<!-- Node1&#45;&gt;Node10 -->
<g id="edge9" class="edge"><title>Node1&#45;&gt;Node10</title>
<path fill="none" stroke="midnightblue" d="M121.258,-167.188C134.514,-163.485 148.358,-159.617 161.213,-156.026"/>
<polygon fill="midnightblue" stroke="midnightblue" points="119.952,-163.919 111.262,-169.981 121.835,-170.661 119.952,-163.919"/>
</g>
<!-- Node11 -->
<g id="node11" class="node"><title>Node11</title>
<g id="a_node11"><a xlink:href="classpdal_1_1PipelineReaderJSON.html#a648ae28bf1b1fc54a9aa92b5d880c434" target="_top" xlink:title="pdal::PipelineReaderJSON\l::parsePipeline">
<polygon fill="white" stroke="black" points="149,-77 149,-107 283,-107 283,-77 149,-77"/>
<text text-anchor="start" x="157" y="-95" font-family="Helvetica,sans-Serif" font-size="10.00">pdal::PipelineReaderJSON</text>
<text text-anchor="middle" x="216" y="-84" font-family="Helvetica,sans-Serif" font-size="10.00">::parsePipeline</text>
</a>
</g>
</g>
<!-- Node1&#45;&gt;Node11 -->
<g id="edge10" class="edge"><title>Node1&#45;&gt;Node11</title>
<path fill="none" stroke="midnightblue" d="M82.3824,-163.001C100.039,-148.228 124.808,-129.136 149,-116 155,-112.742 161.534,-109.761 168.08,-107.091"/>
<polygon fill="midnightblue" stroke="midnightblue" points="79.6679,-160.715 74.3199,-169.861 84.2041,-166.046 79.6679,-160.715"/>
</g>
<!-- Node13 -->
<g id="node13" class="node"><title>Node13</title>
<g id="a_node13"><a xlink:href="classpdal_1_1InfoKernel.html#a00062fa07419bc191ed6269ce47e1fa0" target="_top" xlink:title="pdal::InfoKernel::setup">
<polygon fill="white" stroke="black" points="158.5,-38.5 158.5,-57.5 273.5,-57.5 273.5,-38.5 158.5,-38.5"/>
<text text-anchor="middle" x="216" y="-45.5" font-family="Helvetica,sans-Serif" font-size="10.00">pdal::InfoKernel::setup</text>
</a>
</g>
</g>
<!-- Node1&#45;&gt;Node13 -->
<g id="edge12" class="edge"><title>Node1&#45;&gt;Node13</title>
<path fill="none" stroke="midnightblue" d="M70.1183,-160.72C85.2983,-133.874 113.263,-91.227 149,-67 154.724,-63.1193 161.243,-60.0218 167.901,-57.5517"/>
<polygon fill="midnightblue" stroke="midnightblue" points="66.8598,-159.383 65.1134,-169.832 72.9953,-162.752 66.8598,-159.383"/>
</g>
<!-- Node15 -->
<g id="node15" class="node"><title>Node15</title>
<g id="a_node15"><a xlink:href="PipelineManagerTest_8cpp.html#a5f7d613b66c68b059a59deb1d6981faa" target="_top" xlink:title="TEST">
<polygon fill="white" stroke="black" points="195,-0.5 195,-19.5 237,-19.5 237,-0.5 195,-0.5"/>
<text text-anchor="middle" x="216" y="-7.5" font-family="Helvetica,sans-Serif" font-size="10.00">TEST</text>
</a>
</g>
</g>
<!-- Node1&#45;&gt;Node15 -->
<g id="edge14" class="edge"><title>Node1&#45;&gt;Node15</title>
<path fill="none" stroke="midnightblue" d="M65.5917,-159.707C77.9788,-125.048 104.952,-63.2082 149,-29 162.184,-18.761 180.687,-14.0385 194.748,-11.8611"/>
<polygon fill="midnightblue" stroke="midnightblue" points="62.156,-158.935 62.2129,-169.529 68.7753,-161.212 62.156,-158.935"/>
</g>
<!-- Node5 -->
<g id="node5" class="node"><title>Node5</title>
<g id="a_node5"><a xlink:href="classpdal_1_1TIndexKernel.html#a4b8641b118372c9dc004ff4ed105a91e" target="_top" xlink:title="pdal::TIndexKernel\l::createFile">
<polygon fill="white" stroke="black" points="337,-263 337,-293 435,-293 435,-263 337,-263"/>
<text text-anchor="start" x="345" y="-281" font-family="Helvetica,sans-Serif" font-size="10.00">pdal::TIndexKernel</text>
<text text-anchor="middle" x="386" y="-270" font-family="Helvetica,sans-Serif" font-size="10.00">::createFile</text>
</a>
</g>
</g>
<!-- Node4&#45;&gt;Node5 -->
<g id="edge4" class="edge"><title>Node4&#45;&gt;Node5</title>
<path fill="none" stroke="midnightblue" d="M275.411,-278C295.476,-278 317.694,-278 336.851,-278"/>
<polygon fill="midnightblue" stroke="midnightblue" points="275.142,-274.5 265.142,-278 275.142,-281.5 275.142,-274.5"/>
</g>
<!-- Node6 -->
<g id="node6" class="node"><title>Node6</title>
<g id="a_node6"><a xlink:href="classpdal_1_1TIndexKernel.html#a607f1463d5518bbaa66662a905b48e51" target="_top" xlink:title="pdal::TIndexKernel\l::execute">
<polygon fill="white" stroke="black" points="489,-263 489,-293 587,-293 587,-263 489,-263"/>
<text text-anchor="start" x="497" y="-281" font-family="Helvetica,sans-Serif" font-size="10.00">pdal::TIndexKernel</text>
<text text-anchor="middle" x="538" y="-270" font-family="Helvetica,sans-Serif" font-size="10.00">::execute</text>
</a>
</g>
</g>
<!-- Node5&#45;&gt;Node6 -->
<g id="edge5" class="edge"><title>Node5&#45;&gt;Node6</title>
<path fill="none" stroke="midnightblue" d="M445.536,-278C459.86,-278 475.027,-278 488.804,-278"/>
<polygon fill="midnightblue" stroke="midnightblue" points="445.287,-274.5 435.287,-278 445.287,-281.5 445.287,-274.5"/>
</g>
<!-- Node8 -->
<g id="node8" class="node"><title>Node8</title>
<g id="a_node8"><a xlink:href="classpdal_1_1TranslateKernel.html#a29dcfe64f27066795c729465ffbef49c" target="_top" xlink:title="pdal::TranslateKernel\l::execute">
<polygon fill="white" stroke="black" points="331.5,-214 331.5,-244 440.5,-244 440.5,-214 331.5,-214"/>
<text text-anchor="start" x="339.5" y="-232" font-family="Helvetica,sans-Serif" font-size="10.00">pdal::TranslateKernel</text>
<text text-anchor="middle" x="386" y="-221" font-family="Helvetica,sans-Serif" font-size="10.00">::execute</text>
</a>
</g>
</g>
<!-- Node7&#45;&gt;Node8 -->
<g id="edge7" class="edge"><title>Node7&#45;&gt;Node8</title>
<path fill="none" stroke="midnightblue" d="M280.816,-229C297.469,-229 315.247,-229 331.315,-229"/>
<polygon fill="midnightblue" stroke="midnightblue" points="280.618,-225.5 270.618,-229 280.618,-232.5 280.618,-225.5"/>
</g>
<!-- Node12 -->
<g id="node12" class="node"><title>Node12</title>
<g id="a_node12"><a xlink:href="classpdal_1_1PipelineReaderJSON.html#a712d3ed4bde00fdf2a043be6f7c0374f" target="_top" xlink:title="pdal::PipelineReaderJSON\l::readPipeline">
<polygon fill="white" stroke="black" points="319,-77 319,-107 453,-107 453,-77 319,-77"/>
<text text-anchor="start" x="327" y="-95" font-family="Helvetica,sans-Serif" font-size="10.00">pdal::PipelineReaderJSON</text>
<text text-anchor="middle" x="386" y="-84" font-family="Helvetica,sans-Serif" font-size="10.00">::readPipeline</text>
</a>
</g>
</g>
<!-- Node11&#45;&gt;Node12 -->
<g id="edge11" class="edge"><title>Node11&#45;&gt;Node12</title>
<path fill="none" stroke="midnightblue" d="M293.595,-92C302.013,-92 310.532,-92 318.809,-92"/>
<polygon fill="midnightblue" stroke="midnightblue" points="293.398,-88.5001 283.398,-92 293.398,-95.5001 293.398,-88.5001"/>
</g>
<!-- Node14 -->
<g id="node14" class="node"><title>Node14</title>
<g id="a_node14"><a xlink:href="classpdal_1_1InfoKernel.html#ac8d3f256fa5d844710b25034f4e22eaa" target="_top" xlink:title="pdal::InfoKernel::execute">
<polygon fill="white" stroke="black" points="323.5,-38.5 323.5,-57.5 448.5,-57.5 448.5,-38.5 323.5,-38.5"/>
<text text-anchor="middle" x="386" y="-45.5" font-family="Helvetica,sans-Serif" font-size="10.00">pdal::InfoKernel::execute</text>
</a>
</g>
</g>
<!-- Node13&#45;&gt;Node14 -->
<g id="edge13" class="edge"><title>Node13&#45;&gt;Node14</title>
<path fill="none" stroke="midnightblue" d="M284.106,-48C297.04,-48 310.532,-48 323.285,-48"/>
<polygon fill="midnightblue" stroke="midnightblue" points="283.877,-44.5001 273.877,-48 283.877,-51.5001 283.877,-44.5001"/>
</g>
</g>
</svg>
