<?xml version="1.0" encoding="UTF-8" standalone="no"?>
<!DOCTYPE svg PUBLIC "-//W3C//DTD SVG 1.1//EN"
 "http://www.w3.org/Graphics/SVG/1.1/DTD/svg11.dtd">
<!-- Generated by graphviz version 2.38.0 (20140413.2041)
 -->
<!-- Title: pdal::DbWriter::dbDimTypes Pages: 1 -->
<svg width="643pt" height="262pt"
 viewBox="0.00 0.00 643.00 261.50" xmlns="http://www.w3.org/2000/svg" xmlns:xlink="http://www.w3.org/1999/xlink">
<g id="graph0" class="graph" transform="scale(1 1) rotate(0) translate(4 257.5)">
<title>pdal::DbWriter::dbDimTypes</title>
<polygon fill="white" stroke="none" points="-4,4 -4,-257.5 639,-257.5 639,4 -4,4"/>
<!-- Node1 -->
<g id="node1" class="node"><title>Node1</title>
<polygon fill="#bfbfbf" stroke="black" points="0,-115.5 0,-134.5 141,-134.5 141,-115.5 0,-115.5"/>
<text text-anchor="middle" x="70.5" y="-122.5" font-family="Helvetica,sans-Serif" font-size="10.00">pdal::DbWriter::dbDimTypes</text>
</g>
<!-- Node2 -->
<g id="node2" class="node"><title>Node2</title>
<g id="a_node2"><a xlink:href="classpdal_1_1SQLiteWriter.html#abe82618f125304df98d7719e6078fc0a" target="_top" xlink:title="pdal::SQLiteWriter\l::CreateCloud">
<polygon fill="white" stroke="black" points="204.5,-176 204.5,-206 301.5,-206 301.5,-176 204.5,-176"/>
<text text-anchor="start" x="212.5" y="-194" font-family="Helvetica,sans-Serif" font-size="10.00">pdal::SQLiteWriter</text>
<text text-anchor="middle" x="253" y="-183" font-family="Helvetica,sans-Serif" font-size="10.00">::CreateCloud</text>
</a>
</g>
</g>
<!-- Node1&#45;&gt;Node2 -->
<g id="edge1" class="edge"><title>Node1&#45;&gt;Node2</title>
<path fill="none" stroke="midnightblue" d="M104.566,-138.329C125.28,-146.559 152.585,-157.193 177,-166 186.167,-169.307 196.018,-172.702 205.468,-175.883"/>
<polygon fill="midnightblue" stroke="midnightblue" points="105.843,-135.07 95.2578,-134.616 103.249,-141.572 105.843,-135.07"/>
</g>
<!-- Node5 -->
<g id="node5" class="node"><title>Node5</title>
<g id="a_node5"><a xlink:href="classpdal_1_1OciWriter.html#a305cd40729c19754aec8fc7c9d104fdf" target="_top" xlink:title="pdal::OciWriter::createPCEntry">
<polygon fill="white" stroke="black" points="177,-137.5 177,-156.5 329,-156.5 329,-137.5 177,-137.5"/>
<text text-anchor="middle" x="253" y="-144.5" font-family="Helvetica,sans-Serif" font-size="10.00">pdal::OciWriter::createPCEntry</text>
</a>
</g>
</g>
<!-- Node1&#45;&gt;Node5 -->
<g id="edge4" class="edge"><title>Node1&#45;&gt;Node5</title>
<path fill="none" stroke="midnightblue" d="M151.014,-134.691C159.587,-135.736 168.292,-136.797 176.813,-137.836"/>
<polygon fill="midnightblue" stroke="midnightblue" points="151.378,-131.21 141.028,-133.474 150.531,-138.159 151.378,-131.21"/>
</g>
<!-- Node8 -->
<g id="node8" class="node"><title>Node8</title>
<g id="a_node8"><a xlink:href="classpdal_1_1PgWriter.html#a53ebf855ce148dfff8b9d21e8015ee4f" target="_top" xlink:title="pdal::PgWriter::SetupSchema">
<polygon fill="white" stroke="black" points="180,-0.5 180,-19.5 326,-19.5 326,-0.5 180,-0.5"/>
<text text-anchor="middle" x="253" y="-7.5" font-family="Helvetica,sans-Serif" font-size="10.00">pdal::PgWriter::SetupSchema</text>
</a>
</g>
</g>
<!-- Node1&#45;&gt;Node8 -->
<g id="edge7" class="edge"><title>Node1&#45;&gt;Node8</title>
<path fill="none" stroke="midnightblue" d="M85.6684,-107.678C104.338,-86.007 139.257,-49.2869 177,-29 184.217,-25.1208 192.253,-22.0114 200.308,-19.5254"/>
<polygon fill="midnightblue" stroke="midnightblue" points="82.8949,-105.538 79.1239,-115.439 88.2462,-110.05 82.8949,-105.538"/>
</g>
<!-- Node11 -->
<g id="node11" class="node"><title>Node11</title>
<g id="a_node11"><a xlink:href="classpdal_1_1OciWriter.html#a5250821bc6d746c06f61f99290af65b8" target="_top" xlink:title="pdal::OciWriter::writeDim\lMajor">
<polygon fill="white" stroke="black" points="189.5,-39 189.5,-69 316.5,-69 316.5,-39 189.5,-39"/>
<text text-anchor="start" x="197.5" y="-57" font-family="Helvetica,sans-Serif" font-size="10.00">pdal::OciWriter::writeDim</text>
<text text-anchor="middle" x="253" y="-46" font-family="Helvetica,sans-Serif" font-size="10.00">Major</text>
</a>
</g>
</g>
<!-- Node1&#45;&gt;Node11 -->
<g id="edge10" class="edge"><title>Node1&#45;&gt;Node11</title>
<path fill="none" stroke="midnightblue" d="M100.765,-110.926C121.74,-101.095 150.799,-87.994 177,-78 185.047,-74.9304 193.676,-71.9182 202.113,-69.1209"/>
<polygon fill="midnightblue" stroke="midnightblue" points="98.9979,-107.89 91.4507,-115.326 101.988,-114.219 98.9979,-107.89"/>
</g>
<!-- Node13 -->
<g id="node13" class="node"><title>Node13</title>
<g id="a_node13"><a xlink:href="classpdal_1_1OciWriter.html#a7852def2b7ce6cfcddc26664bfdfd830" target="_top" xlink:title="pdal::OciWriter::writePoint\lMajor">
<polygon fill="white" stroke="black" points="187.5,-88 187.5,-118 318.5,-118 318.5,-88 187.5,-88"/>
<text text-anchor="start" x="195.5" y="-106" font-family="Helvetica,sans-Serif" font-size="10.00">pdal::OciWriter::writePoint</text>
<text text-anchor="middle" x="253" y="-95" font-family="Helvetica,sans-Serif" font-size="10.00">Major</text>
</a>
</g>
</g>
<!-- Node1&#45;&gt;Node13 -->
<g id="edge13" class="edge"><title>Node1&#45;&gt;Node13</title>
<path fill="none" stroke="midnightblue" d="M151.099,-115.298C163.184,-113.825 175.527,-112.321 187.245,-110.893"/>
<polygon fill="midnightblue" stroke="midnightblue" points="150.531,-111.841 141.028,-116.526 151.378,-118.79 150.531,-111.841"/>
</g>
<!-- Node14 -->
<g id="node14" class="node"><title>Node14</title>
<g id="a_node14"><a xlink:href="classpdal_1_1SQLiteWriter.html#a6e0b933d7f15b34a4e244f6ff31cfb1a" target="_top" xlink:title="pdal::SQLiteWriter\l::writeTile">
<polygon fill="white" stroke="black" points="379,-223 379,-253 476,-253 476,-223 379,-223"/>
<text text-anchor="start" x="387" y="-241" font-family="Helvetica,sans-Serif" font-size="10.00">pdal::SQLiteWriter</text>
<text text-anchor="middle" x="427.5" y="-230" font-family="Helvetica,sans-Serif" font-size="10.00">::writeTile</text>
</a>
</g>
</g>
<!-- Node1&#45;&gt;Node14 -->
<g id="edge15" class="edge"><title>Node1&#45;&gt;Node14</title>
<path fill="none" stroke="midnightblue" d="M85.4134,-142.346C103.814,-163.866 138.448,-199.708 177,-216 242.889,-243.845 327.121,-244.989 378.916,-242.249"/>
<polygon fill="midnightblue" stroke="midnightblue" points="88.0617,-140.056 78.9728,-134.612 82.6826,-144.536 88.0617,-140.056"/>
</g>
<!-- Node3 -->
<g id="node3" class="node"><title>Node3</title>
<g id="a_node3"><a xlink:href="classpdal_1_1SQLiteWriter.html#aeb1ac7f6fa795c2c0c47eff286aae3a0" target="_top" xlink:title="pdal::SQLiteWriter\l::writeInit">
<polygon fill="white" stroke="black" points="379,-174 379,-204 476,-204 476,-174 379,-174"/>
<text text-anchor="start" x="387" y="-192" font-family="Helvetica,sans-Serif" font-size="10.00">pdal::SQLiteWriter</text>
<text text-anchor="middle" x="427.5" y="-181" font-family="Helvetica,sans-Serif" font-size="10.00">::writeInit</text>
</a>
</g>
</g>
<!-- Node2&#45;&gt;Node3 -->
<g id="edge2" class="edge"><title>Node2&#45;&gt;Node3</title>
<path fill="none" stroke="midnightblue" d="M311.708,-190.331C333.485,-190.078 357.998,-189.794 378.763,-189.553"/>
<polygon fill="midnightblue" stroke="midnightblue" points="311.552,-186.832 301.593,-190.448 311.633,-193.832 311.552,-186.832"/>
</g>
<!-- Node4 -->
<g id="node4" class="node"><title>Node4</title>
<g id="a_node4"><a xlink:href="classpdal_1_1SQLiteWriter.html#a258990451ca91103f10913812e5ef623" target="_top" xlink:title="pdal::SQLiteWriter\l::write">
<polygon fill="white" stroke="black" points="532,-198 532,-228 629,-228 629,-198 532,-198"/>
<text text-anchor="start" x="540" y="-216" font-family="Helvetica,sans-Serif" font-size="10.00">pdal::SQLiteWriter</text>
<text text-anchor="middle" x="580.5" y="-205" font-family="Helvetica,sans-Serif" font-size="10.00">::write</text>
</a>
</g>
</g>
<!-- Node3&#45;&gt;Node4 -->
<g id="edge3" class="edge"><title>Node3&#45;&gt;Node4</title>
<path fill="none" stroke="midnightblue" d="M486.459,-198.212C501.435,-200.592 517.387,-203.128 531.774,-205.414"/>
<polygon fill="midnightblue" stroke="midnightblue" points="486.703,-194.707 476.277,-196.594 485.604,-201.62 486.703,-194.707"/>
</g>
<!-- Node6 -->
<g id="node6" class="node"><title>Node6</title>
<g id="a_node6"><a xlink:href="classpdal_1_1OciWriter.html#a29c890b4de7d31ab917f5d4577f62345" target="_top" xlink:title="pdal::OciWriter::writeInit">
<polygon fill="white" stroke="black" points="366.5,-135.5 366.5,-154.5 488.5,-154.5 488.5,-135.5 366.5,-135.5"/>
<text text-anchor="middle" x="427.5" y="-142.5" font-family="Helvetica,sans-Serif" font-size="10.00">pdal::OciWriter::writeInit</text>
</a>
</g>
</g>
<!-- Node5&#45;&gt;Node6 -->
<g id="edge5" class="edge"><title>Node5&#45;&gt;Node6</title>
<path fill="none" stroke="midnightblue" d="M339.411,-146.01C348.515,-145.904 357.632,-145.798 366.355,-145.697"/>
<polygon fill="midnightblue" stroke="midnightblue" points="339.118,-142.513 329.159,-146.129 339.199,-149.512 339.118,-142.513"/>
</g>
<!-- Node7 -->
<g id="node7" class="node"><title>Node7</title>
<g id="a_node7"><a xlink:href="classpdal_1_1OciWriter.html#a11f02a9af7350d831dff5f81859c76f2" target="_top" xlink:title="pdal::OciWriter::write">
<polygon fill="white" stroke="black" points="526,-113.5 526,-132.5 635,-132.5 635,-113.5 526,-113.5"/>
<text text-anchor="middle" x="580.5" y="-120.5" font-family="Helvetica,sans-Serif" font-size="10.00">pdal::OciWriter::write</text>
</a>
</g>
</g>
<!-- Node6&#45;&gt;Node7 -->
<g id="edge6" class="edge"><title>Node6&#45;&gt;Node7</title>
<path fill="none" stroke="midnightblue" d="M498.539,-134.796C507.75,-133.454 517.069,-132.096 525.946,-130.803"/>
<polygon fill="midnightblue" stroke="midnightblue" points="498.004,-131.337 488.613,-136.242 499.013,-138.263 498.004,-131.337"/>
</g>
<!-- Node9 -->
<g id="node9" class="node"><title>Node9</title>
<g id="a_node9"><a xlink:href="classpdal_1_1PgWriter.html#a533424111db08989e4d3a670e9db884f" target="_top" xlink:title="pdal::PgWriter::writeInit">
<polygon fill="white" stroke="black" points="368,-0.5 368,-19.5 487,-19.5 487,-0.5 368,-0.5"/>
<text text-anchor="middle" x="427.5" y="-7.5" font-family="Helvetica,sans-Serif" font-size="10.00">pdal::PgWriter::writeInit</text>
</a>
</g>
</g>
<!-- Node8&#45;&gt;Node9 -->
<g id="edge8" class="edge"><title>Node8&#45;&gt;Node9</title>
<path fill="none" stroke="midnightblue" d="M336.352,-10C347.035,-10 357.798,-10 367.983,-10"/>
<polygon fill="midnightblue" stroke="midnightblue" points="336.156,-6.5001 326.156,-10 336.156,-13.5001 336.156,-6.5001"/>
</g>
<!-- Node10 -->
<g id="node10" class="node"><title>Node10</title>
<g id="a_node10"><a xlink:href="classpdal_1_1PgWriter.html#a75d2fa0130cb17470e69425c0b866635" target="_top" xlink:title="pdal::PgWriter::write">
<polygon fill="white" stroke="black" points="527.5,-0.5 527.5,-19.5 633.5,-19.5 633.5,-0.5 527.5,-0.5"/>
<text text-anchor="middle" x="580.5" y="-7.5" font-family="Helvetica,sans-Serif" font-size="10.00">pdal::PgWriter::write</text>
</a>
</g>
</g>
<!-- Node9&#45;&gt;Node10 -->
<g id="edge9" class="edge"><title>Node9&#45;&gt;Node10</title>
<path fill="none" stroke="midnightblue" d="M497.358,-10C507.484,-10 517.771,-10 527.482,-10"/>
<polygon fill="midnightblue" stroke="midnightblue" points="497.313,-6.5001 487.313,-10 497.313,-13.5001 497.313,-6.5001"/>
</g>
<!-- Node12 -->
<g id="node12" class="node"><title>Node12</title>
<g id="a_node12"><a xlink:href="classpdal_1_1OciWriter.html#afa1630f5e91fc1cbc266f1839e4b62b9" target="_top" xlink:title="pdal::OciWriter::writeTile">
<polygon fill="white" stroke="black" points="365,-93.5 365,-112.5 490,-112.5 490,-93.5 365,-93.5"/>
<text text-anchor="middle" x="427.5" y="-100.5" font-family="Helvetica,sans-Serif" font-size="10.00">pdal::OciWriter::writeTile</text>
</a>
</g>
</g>
<!-- Node11&#45;&gt;Node12 -->
<g id="edge11" class="edge"><title>Node11&#45;&gt;Node12</title>
<path fill="none" stroke="midnightblue" d="M316.874,-71.8599C342.652,-79.1823 371.443,-87.3607 393.049,-93.4981"/>
<polygon fill="midnightblue" stroke="midnightblue" points="317.739,-68.4672 307.163,-69.1014 315.826,-75.2008 317.739,-68.4672"/>
</g>
<!-- Node12&#45;&gt;Node7 -->
<g id="edge12" class="edge"><title>Node12&#45;&gt;Node7</title>
<path fill="none" stroke="midnightblue" d="M500.33,-112.514C508.877,-113.646 517.486,-114.786 525.718,-115.877"/>
<polygon fill="midnightblue" stroke="midnightblue" points="500.726,-109.036 490.353,-111.192 499.807,-115.975 500.726,-109.036"/>
</g>
<!-- Node13&#45;&gt;Node12 -->
<g id="edge14" class="edge"><title>Node13&#45;&gt;Node12</title>
<path fill="none" stroke="midnightblue" d="M328.75,-103C340.797,-103 353.148,-103 364.842,-103"/>
<polygon fill="midnightblue" stroke="midnightblue" points="328.723,-99.5001 318.723,-103 328.723,-106.5 328.723,-99.5001"/>
</g>
<!-- Node14&#45;&gt;Node4 -->
<g id="edge16" class="edge"><title>Node14&#45;&gt;Node4</title>
<path fill="none" stroke="midnightblue" d="M486.459,-228.404C501.435,-225.925 517.387,-223.284 531.774,-220.902"/>
<polygon fill="midnightblue" stroke="midnightblue" points="485.571,-225.003 476.277,-230.09 486.715,-231.909 485.571,-225.003"/>
</g>
</g>
</svg>
