<?xml version="1.0" encoding="UTF-8" standalone="no"?>
<!DOCTYPE svg PUBLIC "-//W3C//DTD SVG 1.1//EN"
 "http://www.w3.org/Graphics/SVG/1.1/DTD/svg11.dtd">
<!-- Generated by graphviz version 2.38.0 (20140413.2041)
 -->
<!-- Title: pdal::Stage::writerInitialize Pages: 1 -->
<svg width="773pt" height="1874pt"
 viewBox="0.00 0.00 773.00 1873.50" xmlns="http://www.w3.org/2000/svg" xmlns:xlink="http://www.w3.org/1999/xlink">
<g id="graph0" class="graph" transform="scale(1 1) rotate(0) translate(4 1869.5)">
<title>pdal::Stage::writerInitialize</title>
<polygon fill="white" stroke="none" points="-4,4 -4,-1869.5 769,-1869.5 769,4 -4,4"/>
<!-- Node1 -->
<g id="node1" class="node"><title>Node1</title>
<polygon fill="#bfbfbf" stroke="black" points="0,-986 0,-1005 132,-1005 132,-986 0,-986"/>
<text text-anchor="middle" x="66" y="-993" font-family="Helvetica,sans-Serif" font-size="10.00">pdal::Stage::writerInitialize</text>
</g>
<!-- Node2 -->
<g id="node2" class="node"><title>Node2</title>
<g id="a_node2"><a xlink:href="classpdal_1_1Stage.html#a6c85dfbf6a674dbc2eda76a79efada48" target="_top" xlink:title="pdal::Stage::l_initialize">
<polygon fill="white" stroke="black" points="168,-986 168,-1005 283,-1005 283,-986 168,-986"/>
<text text-anchor="middle" x="225.5" y="-993" font-family="Helvetica,sans-Serif" font-size="10.00">pdal::Stage::l_initialize</text>
</a>
</g>
</g>
<!-- Node1&#45;&gt;Node2 -->
<g id="edge1" class="edge"><title>Node1&#45;&gt;Node2</title>
<path fill="none" stroke="midnightblue" d="M142.615,-995.5C151.009,-995.5 159.45,-995.5 167.557,-995.5"/>
<polygon fill="midnightblue" stroke="midnightblue" points="142.426,-992 132.426,-995.5 142.426,-999 142.426,-992"/>
</g>
<!-- Node3 -->
<g id="node3" class="node"><title>Node3</title>
<g id="a_node3"><a xlink:href="classpdal_1_1StageWrapper.html#a64fbeca8f3381979fb2a495769097485" target="_top" xlink:title="pdal::StageWrapper\l::initialize">
<polygon fill="white" stroke="black" points="319.5,-1011.5 319.5,-1041.5 422.5,-1041.5 422.5,-1011.5 319.5,-1011.5"/>
<text text-anchor="start" x="327.5" y="-1029.5" font-family="Helvetica,sans-Serif" font-size="10.00">pdal::StageWrapper</text>
<text text-anchor="middle" x="371" y="-1018.5" font-family="Helvetica,sans-Serif" font-size="10.00">::initialize</text>
</a>
</g>
</g>
<!-- Node2&#45;&gt;Node3 -->
<g id="edge2" class="edge"><title>Node2&#45;&gt;Node3</title>
<path fill="none" stroke="midnightblue" d="M280.704,-1007.21C293.396,-1009.95 306.868,-1012.86 319.395,-1015.57"/>
<polygon fill="midnightblue" stroke="midnightblue" points="281.239,-1003.74 270.726,-1005.05 279.761,-1010.59 281.239,-1003.74"/>
</g>
<!-- Node4 -->
<g id="node4" class="node"><title>Node4</title>
<g id="a_node4"><a xlink:href="classpdal_1_1Stage.html#a4b9296a59f8852b3d08630f1086bfbea" target="_top" xlink:title="pdal::Stage::prepare">
<polygon fill="white" stroke="black" points="319,-955 319,-974 423,-974 423,-955 319,-955"/>
<text text-anchor="middle" x="371" y="-962" font-family="Helvetica,sans-Serif" font-size="10.00">pdal::Stage::prepare</text>
</a>
</g>
</g>
<!-- Node2&#45;&gt;Node4 -->
<g id="edge3" class="edge"><title>Node2&#45;&gt;Node4</title>
<path fill="none" stroke="midnightblue" d="M280.783,-983.773C295.602,-980.572 311.48,-977.142 325.673,-974.076"/>
<polygon fill="midnightblue" stroke="midnightblue" points="279.761,-980.413 270.726,-985.946 281.239,-987.255 279.761,-980.413"/>
</g>
<!-- Node4&#45;&gt;Node4 -->
<g id="edge32" class="edge"><title>Node4&#45;&gt;Node4</title>
<path fill="none" stroke="midnightblue" d="M344.121,-983.154C345.244,-988.437 354.204,-992.5 371,-992.5 396.594,-992.5 403.992,-983.065 393.195,-974.257"/>
<polygon fill="midnightblue" stroke="midnightblue" points="347.243,-984.736 348.805,-974.257 341.049,-981.475 347.243,-984.736"/>
</g>
<!-- Node5 -->
<g id="node5" class="node"><title>Node5</title>
<g id="a_node5"><a xlink:href="classSupport.html#a0f6b5ed9b20a213a0607f3b989b81cec" target="_top" xlink:title="Support::checkXYZ">
<polygon fill="white" stroke="black" points="475,-1846 475,-1865 577,-1865 577,-1846 475,-1846"/>
<text text-anchor="middle" x="526" y="-1853" font-family="Helvetica,sans-Serif" font-size="10.00">Support::checkXYZ</text>
</a>
</g>
</g>
<!-- Node4&#45;&gt;Node5 -->
<g id="edge4" class="edge"><title>Node4&#45;&gt;Node5</title>
<path fill="none" stroke="midnightblue" d="M401.052,-979.498C409.63,-985.445 418.041,-993.131 423,-1002.5 466.389,-1084.48 401.633,-1763.62 459,-1836.5 463.204,-1841.84 468.807,-1845.74 474.979,-1848.59"/>
<polygon fill="midnightblue" stroke="midnightblue" points="402.867,-976.504 392.541,-974.131 399.134,-982.425 402.867,-976.504"/>
</g>
<!-- Node7 -->
<g id="node7" class="node"><title>Node7</title>
<g id="a_node7"><a xlink:href="classGDALReaderTypeTest.html#a7ccb2f33deda3d1840509c81f3718ca8" target="_top" xlink:title="GDALReaderTypeTest\l::compare">
<polygon fill="white" stroke="black" points="468,-1796.5 468,-1826.5 584,-1826.5 584,-1796.5 468,-1796.5"/>
<text text-anchor="start" x="476" y="-1814.5" font-family="Helvetica,sans-Serif" font-size="10.00">GDALReaderTypeTest</text>
<text text-anchor="middle" x="526" y="-1803.5" font-family="Helvetica,sans-Serif" font-size="10.00">::compare</text>
</a>
</g>
</g>
<!-- Node4&#45;&gt;Node7 -->
<g id="edge6" class="edge"><title>Node4&#45;&gt;Node7</title>
<path fill="none" stroke="midnightblue" d="M401.037,-979.506C409.614,-985.454 418.029,-993.138 423,-1002.5 463.899,-1079.52 407.815,-1715.9 459,-1786.5 461.805,-1790.37 465.287,-1793.64 469.175,-1796.4"/>
<polygon fill="midnightblue" stroke="midnightblue" points="402.854,-976.513 392.529,-974.138 399.119,-982.434 402.854,-976.513"/>
</g>
<!-- Node8 -->
<g id="node8" class="node"><title>Node8</title>
<g id="a_node8"><a xlink:href="OCITest_8cpp.html#aa992a42d3b52c376e3902f1412402781" target="_top" xlink:title="compare">
<polygon fill="white" stroke="black" points="499,-1758 499,-1777 553,-1777 553,-1758 499,-1758"/>
<text text-anchor="middle" x="526" y="-1765" font-family="Helvetica,sans-Serif" font-size="10.00">compare</text>
</a>
</g>
</g>
<!-- Node4&#45;&gt;Node8 -->
<g id="edge7" class="edge"><title>Node4&#45;&gt;Node8</title>
<path fill="none" stroke="midnightblue" d="M401.025,-979.512C409.6,-985.461 418.018,-993.144 423,-1002.5 462.006,-1075.75 407.509,-1683.42 459,-1748.5 468.396,-1760.38 484.713,-1765.14 498.771,-1766.94"/>
<polygon fill="midnightblue" stroke="midnightblue" points="402.842,-976.521 392.518,-974.144 399.107,-982.441 402.842,-976.521"/>
</g>
<!-- Node12 -->
<g id="node12" class="node"><title>Node12</title>
<g id="a_node12"><a xlink:href="LasWriterTest_8cpp.html#a3303a951654ed83ac6abc2a44e07b2d3" target="_top" xlink:title="compareFiles">
<polygon fill="white" stroke="black" points="488.5,-1720 488.5,-1739 563.5,-1739 563.5,-1720 488.5,-1720"/>
<text text-anchor="middle" x="526" y="-1727" font-family="Helvetica,sans-Serif" font-size="10.00">compareFiles</text>
</a>
</g>
</g>
<!-- Node4&#45;&gt;Node12 -->
<g id="edge11" class="edge"><title>Node4&#45;&gt;Node12</title>
<path fill="none" stroke="midnightblue" d="M400.809,-979.381C409.453,-985.349 417.967,-993.077 423,-1002.5 460.114,-1071.98 410.046,-1648.79 459,-1710.5 466.114,-1719.47 477.174,-1724.38 488.22,-1727.02"/>
<polygon fill="midnightblue" stroke="midnightblue" points="402.576,-976.357 392.246,-974.001 398.852,-982.285 402.576,-976.357"/>
</g>
<!-- Node14 -->
<g id="node14" class="node"><title>Node14</title>
<g id="a_node14"><a xlink:href="TextReaderTest_8cpp.html#a509a22500d50c63ed7f1575067f5879d" target="_top" xlink:title="compareTextLas">
<polygon fill="white" stroke="red" points="481.5,-1682 481.5,-1701 570.5,-1701 570.5,-1682 481.5,-1682"/>
<text text-anchor="middle" x="526" y="-1689" font-family="Helvetica,sans-Serif" font-size="10.00">compareTextLas</text>
</a>
</g>
</g>
<!-- Node4&#45;&gt;Node14 -->
<g id="edge13" class="edge"><title>Node4&#45;&gt;Node14</title>
<path fill="none" stroke="midnightblue" d="M400.794,-979.389C409.436,-985.358 417.953,-993.085 423,-1002.5 493.443,-1133.91 366.165,-1555.82 459,-1672.5 464.642,-1679.59 472.751,-1684.15 481.365,-1687.05"/>
<polygon fill="midnightblue" stroke="midnightblue" points="402.562,-976.367 392.233,-974.008 398.837,-982.293 402.562,-976.367"/>
</g>
<!-- Node15 -->
<g id="node15" class="node"><title>Node15</title>
<g id="a_node15"><a xlink:href="TextReaderTest_8cpp.html#afffb357c566f20e6383568d28525817a" target="_top" xlink:title="compareTextLasStreaming">
<polygon fill="white" stroke="red" points="459,-1644 459,-1663 593,-1663 593,-1644 459,-1644"/>
<text text-anchor="middle" x="526" y="-1651" font-family="Helvetica,sans-Serif" font-size="10.00">compareTextLasStreaming</text>
</a>
</g>
</g>
<!-- Node4&#45;&gt;Node15 -->
<g id="edge14" class="edge"><title>Node4&#45;&gt;Node15</title>
<path fill="none" stroke="midnightblue" d="M400.776,-979.399C409.418,-985.368 417.938,-993.093 423,-1002.5 489.659,-1126.38 371.237,-1524.56 459,-1634.5 462.05,-1638.32 465.816,-1641.4 469.99,-1643.89"/>
<polygon fill="midnightblue" stroke="midnightblue" points="402.546,-976.377 392.218,-974.016 398.82,-982.303 402.546,-976.377"/>
</g>
<!-- Node16 -->
<g id="node16" class="node"><title>Node16</title>
<g id="a_node16"><a xlink:href="namespaceanonymous__namespace_02SortFilterTest_8cpp_03.html#a4dd665dd162481d153ad54779b8e970b" target="_top" xlink:title="anonymous_namespace\l\{SortFilterTest::cpp\}\l::doSort">
<polygon fill="white" stroke="red" points="465,-1584 465,-1625 587,-1625 587,-1584 465,-1584"/>
<text text-anchor="start" x="473" y="-1613" font-family="Helvetica,sans-Serif" font-size="10.00">anonymous_namespace</text>
<text text-anchor="start" x="473" y="-1602" font-family="Helvetica,sans-Serif" font-size="10.00">{SortFilterTest::cpp}</text>
<text text-anchor="middle" x="526" y="-1591" font-family="Helvetica,sans-Serif" font-size="10.00">::doSort</text>
</a>
</g>
</g>
<!-- Node4&#45;&gt;Node16 -->
<g id="edge15" class="edge"><title>Node4&#45;&gt;Node16</title>
<path fill="none" stroke="midnightblue" d="M400.744,-979.416C409.383,-985.387 417.91,-993.108 423,-1002.5 483.686,-1114.48 386.717,-1469.64 459,-1574.5 461.429,-1578.02 464.377,-1581.14 467.663,-1583.9"/>
<polygon fill="midnightblue" stroke="midnightblue" points="402.518,-976.397 392.19,-974.031 398.788,-982.321 402.518,-976.397"/>
</g>
<!-- Node17 -->
<g id="node17" class="node"><title>Node17</title>
<g id="a_node17"><a xlink:href="classpdal_1_1MyKernel.html#a2aa834686cb68aab88b9d40df48d6f13" target="_top" xlink:title="pdal::MyKernel::execute">
<polygon fill="white" stroke="black" points="465,-1546 465,-1565 587,-1565 587,-1546 465,-1546"/>
<text text-anchor="middle" x="526" y="-1553" font-family="Helvetica,sans-Serif" font-size="10.00">pdal::MyKernel::execute</text>
</a>
</g>
</g>
<!-- Node4&#45;&gt;Node17 -->
<g id="edge16" class="edge"><title>Node4&#45;&gt;Node17</title>
<path fill="none" stroke="midnightblue" d="M400.719,-979.429C409.357,-985.401 417.889,-993.119 423,-1002.5 479.904,-1106.94 384.315,-1443.94 459,-1536.5 462.07,-1540.3 465.849,-1543.38 470.032,-1545.86"/>
<polygon fill="midnightblue" stroke="midnightblue" points="402.496,-976.412 392.17,-974.043 398.764,-982.335 402.496,-976.412"/>
</g>
<!-- Node18 -->
<g id="node18" class="node"><title>Node18</title>
<g id="a_node18"><a xlink:href="classpdal_1_1PCLKernel.html#aab22ad378b4c29bbe5dd69ad6eb0c6ef" target="_top" xlink:title="pdal::PCLKernel::execute">
<polygon fill="white" stroke="black" points="462,-1508 462,-1527 590,-1527 590,-1508 462,-1508"/>
<text text-anchor="middle" x="526" y="-1515" font-family="Helvetica,sans-Serif" font-size="10.00">pdal::PCLKernel::execute</text>
</a>
</g>
</g>
<!-- Node4&#45;&gt;Node18 -->
<g id="edge17" class="edge"><title>Node4&#45;&gt;Node18</title>
<path fill="none" stroke="midnightblue" d="M400.691,-979.445C409.327,-985.418 417.865,-993.132 423,-1002.5 476.123,-1099.41 389.384,-1412.67 459,-1498.5 462.08,-1502.3 465.866,-1505.36 470.053,-1507.84"/>
<polygon fill="midnightblue" stroke="midnightblue" points="402.471,-976.429 392.146,-974.055 398.737,-982.35 402.471,-976.429"/>
</g>
<!-- Node19 -->
<g id="node19" class="node"><title>Node19</title>
<g id="a_node19"><a xlink:href="classpdal_1_1SmoothKernel.html#a12357e09bb47a0567ed0af7089c3739f" target="_top" xlink:title="pdal::SmoothKernel\l::execute">
<polygon fill="white" stroke="black" points="475,-1458.5 475,-1488.5 577,-1488.5 577,-1458.5 475,-1458.5"/>
<text text-anchor="start" x="483" y="-1476.5" font-family="Helvetica,sans-Serif" font-size="10.00">pdal::SmoothKernel</text>
<text text-anchor="middle" x="526" y="-1465.5" font-family="Helvetica,sans-Serif" font-size="10.00">::execute</text>
</a>
</g>
</g>
<!-- Node4&#45;&gt;Node19 -->
<g id="edge18" class="edge"><title>Node4&#45;&gt;Node19</title>
<path fill="none" stroke="midnightblue" d="M400.647,-979.469C409.28,-985.444 417.827,-993.153 423,-1002.5 471.149,-1089.5 399.25,-1369.02 459,-1448.5 463.197,-1454.08 468.797,-1458.42 474.967,-1461.79"/>
<polygon fill="midnightblue" stroke="midnightblue" points="402.433,-976.457 392.109,-974.076 398.695,-982.375 402.433,-976.457"/>
</g>
<!-- Node20 -->
<g id="node20" class="node"><title>Node20</title>
<g id="a_node20"><a xlink:href="classpdal_1_1SortKernel.html#a35de433cd919ac9fc87a957395323820" target="_top" xlink:title="pdal::SortKernel::execute">
<polygon fill="white" stroke="black" points="462.5,-1420 462.5,-1439 589.5,-1439 589.5,-1420 462.5,-1420"/>
<text text-anchor="middle" x="526" y="-1427" font-family="Helvetica,sans-Serif" font-size="10.00">pdal::SortKernel::execute</text>
</a>
</g>
</g>
<!-- Node4&#45;&gt;Node20 -->
<g id="edge19" class="edge"><title>Node4&#45;&gt;Node20</title>
<path fill="none" stroke="midnightblue" d="M400.607,-979.491C409.236,-985.468 417.792,-993.173 423,-1002.5 467.372,-1081.97 401.116,-1340.26 459,-1410.5 462.185,-1414.36 466.101,-1417.47 470.423,-1419.97"/>
<polygon fill="midnightblue" stroke="midnightblue" points="402.397,-976.482 392.074,-974.095 398.655,-982.398 402.397,-976.482"/>
</g>
<!-- Node21 -->
<g id="node21" class="node"><title>Node21</title>
<g id="a_node21"><a xlink:href="classpdal_1_1MergeKernel.html#a0f279da4375db6bb051489b6588fa897" target="_top" xlink:title="pdal::MergeKernel::\lexecute">
<polygon fill="white" stroke="black" points="475.5,-1370.5 475.5,-1400.5 576.5,-1400.5 576.5,-1370.5 475.5,-1370.5"/>
<text text-anchor="start" x="483.5" y="-1388.5" font-family="Helvetica,sans-Serif" font-size="10.00">pdal::MergeKernel::</text>
<text text-anchor="middle" x="526" y="-1377.5" font-family="Helvetica,sans-Serif" font-size="10.00">execute</text>
</a>
</g>
</g>
<!-- Node4&#45;&gt;Node21 -->
<g id="edge20" class="edge"><title>Node4&#45;&gt;Node21</title>
<path fill="none" stroke="midnightblue" d="M400.542,-979.528C409.167,-985.507 417.737,-993.204 423,-1002.5 462.504,-1072.27 409.779,-1298.21 459,-1361.5 463.341,-1367.08 469.103,-1371.37 475.419,-1374.66"/>
<polygon fill="midnightblue" stroke="midnightblue" points="402.34,-976.523 392.02,-974.126 398.592,-982.436 402.34,-976.523"/>
</g>
<!-- Node22 -->
<g id="node22" class="node"><title>Node22</title>
<g id="a_node22"><a xlink:href="classpdal_1_1SplitKernel.html#aa93e386ee8d67c65d5c31d39ec7c9971" target="_top" xlink:title="pdal::SplitKernel::\lexecute">
<polygon fill="white" stroke="black" points="479,-1321.5 479,-1351.5 573,-1351.5 573,-1321.5 479,-1321.5"/>
<text text-anchor="start" x="487" y="-1339.5" font-family="Helvetica,sans-Serif" font-size="10.00">pdal::SplitKernel::</text>
<text text-anchor="middle" x="526" y="-1328.5" font-family="Helvetica,sans-Serif" font-size="10.00">execute</text>
</a>
</g>
</g>
<!-- Node4&#45;&gt;Node22 -->
<g id="edge21" class="edge"><title>Node4&#45;&gt;Node22</title>
<path fill="none" stroke="midnightblue" d="M400.258,-979.437C408.943,-985.439 417.623,-993.174 423,-1002.5 492.283,-1122.66 372.995,-1203.68 459,-1312.5 464.141,-1319 471.207,-1323.75 478.814,-1327.2"/>
<polygon fill="midnightblue" stroke="midnightblue" points="402.014,-976.406 391.692,-974.017 398.271,-982.322 402.014,-976.406"/>
</g>
<!-- Node23 -->
<g id="node23" class="node"><title>Node23</title>
<g id="a_node23"><a xlink:href="classpdal_1_1RandomKernel.html#ae101bc78cfab26709852a1ef31d7a38f" target="_top" xlink:title="pdal::RandomKernel\l::execute">
<polygon fill="white" stroke="black" points="473.5,-1272.5 473.5,-1302.5 578.5,-1302.5 578.5,-1272.5 473.5,-1272.5"/>
<text text-anchor="start" x="481.5" y="-1290.5" font-family="Helvetica,sans-Serif" font-size="10.00">pdal::RandomKernel</text>
<text text-anchor="middle" x="526" y="-1279.5" font-family="Helvetica,sans-Serif" font-size="10.00">::execute</text>
</a>
</g>
</g>
<!-- Node4&#45;&gt;Node23 -->
<g id="edge22" class="edge"><title>Node4&#45;&gt;Node23</title>
<path fill="none" stroke="midnightblue" d="M400.14,-979.506C408.817,-985.513 417.52,-993.233 423,-1002.5 482.378,-1102.92 386.27,-1171.29 459,-1262.5 462.896,-1267.39 467.859,-1271.32 473.309,-1274.48"/>
<polygon fill="midnightblue" stroke="midnightblue" points="401.91,-976.484 391.593,-974.075 398.156,-982.392 401.91,-976.484"/>
</g>
<!-- Node24 -->
<g id="node24" class="node"><title>Node24</title>
<g id="a_node24"><a xlink:href="classpdal_1_1DiffKernel.html#a5594ac6561864e2c80a26545397d56f6" target="_top" xlink:title="pdal::DiffKernel::execute">
<polygon fill="white" stroke="black" points="463.5,-1234 463.5,-1253 588.5,-1253 588.5,-1234 463.5,-1234"/>
<text text-anchor="middle" x="526" y="-1241" font-family="Helvetica,sans-Serif" font-size="10.00">pdal::DiffKernel::execute</text>
</a>
</g>
</g>
<!-- Node4&#45;&gt;Node24 -->
<g id="edge23" class="edge"><title>Node4&#45;&gt;Node24</title>
<path fill="none" stroke="midnightblue" d="M400.017,-979.579C408.684,-985.592 417.413,-993.297 423,-1002.5 474.87,-1087.94 392.669,-1149.73 459,-1224.5 462.402,-1228.34 466.524,-1231.42 471.027,-1233.89"/>
<polygon fill="midnightblue" stroke="midnightblue" points="401.802,-976.566 391.489,-974.137 398.036,-982.467 401.802,-976.566"/>
</g>
<!-- Node25 -->
<g id="node25" class="node"><title>Node25</title>
<g id="a_node25"><a xlink:href="classpdal_1_1GroundKernel.html#a652b5f932cd5e982b887917a82f692e2" target="_top" xlink:title="pdal::GroundKernel\l::execute">
<polygon fill="white" stroke="black" points="476,-1184.5 476,-1214.5 576,-1214.5 576,-1184.5 476,-1184.5"/>
<text text-anchor="start" x="484" y="-1202.5" font-family="Helvetica,sans-Serif" font-size="10.00">pdal::GroundKernel</text>
<text text-anchor="middle" x="526" y="-1191.5" font-family="Helvetica,sans-Serif" font-size="10.00">::execute</text>
</a>
</g>
</g>
<!-- Node4&#45;&gt;Node25 -->
<g id="edge24" class="edge"><title>Node4&#45;&gt;Node25</title>
<path fill="none" stroke="midnightblue" d="M399.584,-979.586C408.298,-985.631 417.166,-993.354 423,-1002.5 465.235,-1068.71 407.594,-1116.13 459,-1175.5 463.629,-1180.85 469.548,-1185 475.935,-1188.23"/>
<polygon fill="midnightblue" stroke="midnightblue" points="401.348,-976.559 391.04,-974.11 397.57,-982.452 401.348,-976.559"/>
</g>
<!-- Node26 -->
<g id="node26" class="node"><title>Node26</title>
<g id="a_node26"><a xlink:href="classpdal_1_1PipelineManager.html#a657ff17a1dce54e42bd3f152759a896c" target="_top" xlink:title="pdal::PipelineManager\l::executeStream">
<polygon fill="white" stroke="red" points="469.5,-1135.5 469.5,-1165.5 582.5,-1165.5 582.5,-1135.5 469.5,-1135.5"/>
<text text-anchor="start" x="477.5" y="-1153.5" font-family="Helvetica,sans-Serif" font-size="10.00">pdal::PipelineManager</text>
<text text-anchor="middle" x="526" y="-1142.5" font-family="Helvetica,sans-Serif" font-size="10.00">::executeStream</text>
</a>
</g>
</g>
<!-- Node4&#45;&gt;Node26 -->
<g id="edge25" class="edge"><title>Node4&#45;&gt;Node26</title>
<path fill="none" stroke="midnightblue" d="M398.976,-979.72C407.718,-985.809 416.759,-993.525 423,-1002.5 455.518,-1049.27 420.311,-1083.7 459,-1125.5 462.579,-1129.37 466.817,-1132.64 471.393,-1135.41"/>
<polygon fill="midnightblue" stroke="midnightblue" points="400.743,-976.694 390.448,-974.187 396.933,-982.566 400.743,-976.694"/>
</g>
<!-- Node27 -->
<g id="node27" class="node"><title>Node27</title>
<g id="a_node27"><a xlink:href="CompressionTest_8cpp.html#a6d46cc9b57a277b3a7c486859232bcf8" target="_top" xlink:title="getBytes">
<polygon fill="white" stroke="black" points="498,-1097 498,-1116 554,-1116 554,-1097 498,-1097"/>
<text text-anchor="middle" x="526" y="-1104" font-family="Helvetica,sans-Serif" font-size="10.00">getBytes</text>
</a>
</g>
</g>
<!-- Node4&#45;&gt;Node27 -->
<g id="edge26" class="edge"><title>Node4&#45;&gt;Node27</title>
<path fill="none" stroke="midnightblue" d="M398.007,-979.867C406.816,-986.04 416.148,-993.771 423,-1002.5 448.333,-1034.77 428.298,-1060.29 459,-1087.5 469.708,-1096.99 484.879,-1101.76 497.976,-1104.15"/>
<polygon fill="midnightblue" stroke="midnightblue" points="399.756,-976.828 389.484,-974.235 395.897,-982.668 399.756,-976.828"/>
</g>
<!-- Node28 -->
<g id="node28" class="node"><title>Node28</title>
<g id="a_node28"><a xlink:href="classpdal_1_1TIndexKernel.html#a496ad191832c2af610f60ae5ef00d1d0" target="_top" xlink:title="pdal::TIndexKernel\l::getFileInfo">
<polygon fill="white" stroke="red" points="477,-1047.5 477,-1077.5 575,-1077.5 575,-1047.5 477,-1047.5"/>
<text text-anchor="start" x="485" y="-1065.5" font-family="Helvetica,sans-Serif" font-size="10.00">pdal::TIndexKernel</text>
<text text-anchor="middle" x="526" y="-1054.5" font-family="Helvetica,sans-Serif" font-size="10.00">::getFileInfo</text>
</a>
</g>
</g>
<!-- Node4&#45;&gt;Node28 -->
<g id="edge27" class="edge"><title>Node4&#45;&gt;Node28</title>
<path fill="none" stroke="midnightblue" d="M394.481,-980.169C403.568,-986.777 414.012,-994.729 423,-1002.5 440.117,-1017.3 439.914,-1026.35 459,-1038.5 464.553,-1042.04 470.7,-1045.15 476.944,-1047.86"/>
<polygon fill="midnightblue" stroke="midnightblue" points="396.445,-977.27 386.277,-974.295 392.37,-982.962 396.445,-977.27"/>
</g>
<!-- Node29 -->
<g id="node29" class="node"><title>Node29</title>
<g id="a_node29"><a xlink:href="classpdal_1_1HausdorffKernel.html#a1d3664d111d8b5abc23ab609e3b9163e" target="_top" xlink:title="pdal::HausdorffKernel\l::loadSet">
<polygon fill="white" stroke="red" points="470.5,-998.5 470.5,-1028.5 581.5,-1028.5 581.5,-998.5 470.5,-998.5"/>
<text text-anchor="start" x="478.5" y="-1016.5" font-family="Helvetica,sans-Serif" font-size="10.00">pdal::HausdorffKernel</text>
<text text-anchor="middle" x="526" y="-1005.5" font-family="Helvetica,sans-Serif" font-size="10.00">::loadSet</text>
</a>
</g>
</g>
<!-- Node4&#45;&gt;Node29 -->
<g id="edge28" class="edge"><title>Node4&#45;&gt;Node29</title>
<path fill="none" stroke="midnightblue" d="M411.441,-977.131C431.778,-983.645 456.723,-991.633 478.048,-998.463"/>
<polygon fill="midnightblue" stroke="midnightblue" points="412.454,-973.781 401.863,-974.064 410.319,-980.447 412.454,-973.781"/>
</g>
<!-- Node30 -->
<g id="node30" class="node"><title>Node30</title>
<g id="a_node30"><a xlink:href="classpdal_1_1DeltaKernel.html#a9f78c94029ba013d88acd41301de7ee2" target="_top" xlink:title="pdal::DeltaKernel::\lloadSet">
<polygon fill="white" stroke="red" points="477,-949.5 477,-979.5 575,-979.5 575,-949.5 477,-949.5"/>
<text text-anchor="start" x="485" y="-967.5" font-family="Helvetica,sans-Serif" font-size="10.00">pdal::DeltaKernel::</text>
<text text-anchor="middle" x="526" y="-956.5" font-family="Helvetica,sans-Serif" font-size="10.00">loadSet</text>
</a>
</g>
</g>
<!-- Node4&#45;&gt;Node30 -->
<g id="edge29" class="edge"><title>Node4&#45;&gt;Node30</title>
<path fill="none" stroke="midnightblue" d="M433.684,-964.5C448.065,-964.5 463.171,-964.5 476.865,-964.5"/>
<polygon fill="midnightblue" stroke="midnightblue" points="433.372,-961 423.372,-964.5 433.372,-968 433.372,-961"/>
</g>
<!-- Node31 -->
<g id="node31" class="node"><title>Node31</title>
<g id="a_node31"><a xlink:href="tutorial_8cpp.html#a0ddf1224851353fc92bfbff6f499fa97" target="_top" xlink:title="main">
<polygon fill="white" stroke="black" points="507,-911 507,-930 545,-930 545,-911 507,-911"/>
<text text-anchor="middle" x="526" y="-918" font-family="Helvetica,sans-Serif" font-size="10.00">main</text>
</a>
</g>
</g>
<!-- Node4&#45;&gt;Node31 -->
<g id="edge30" class="edge"><title>Node4&#45;&gt;Node31</title>
<path fill="none" stroke="midnightblue" d="M415.083,-952.11C445.315,-943.416 484.213,-932.23 506.704,-925.762"/>
<polygon fill="midnightblue" stroke="midnightblue" points="413.842,-948.825 405.199,-954.953 415.777,-955.552 413.842,-948.825"/>
</g>
<!-- Node32 -->
<g id="node32" class="node"><title>Node32</title>
<g id="a_node32"><a xlink:href="classpdal_1_1TIndexKernel.html#a260c46e9fc8a9e5dddd395c93422dfa6" target="_top" xlink:title="pdal::TIndexKernel\l::mergeFile">
<polygon fill="white" stroke="red" points="477,-861.5 477,-891.5 575,-891.5 575,-861.5 477,-861.5"/>
<text text-anchor="start" x="485" y="-879.5" font-family="Helvetica,sans-Serif" font-size="10.00">pdal::TIndexKernel</text>
<text text-anchor="middle" x="526" y="-868.5" font-family="Helvetica,sans-Serif" font-size="10.00">::mergeFile</text>
</a>
</g>
</g>
<!-- Node4&#45;&gt;Node32 -->
<g id="edge31" class="edge"><title>Node4&#45;&gt;Node32</title>
<path fill="none" stroke="midnightblue" d="M391.197,-948.3C408.201,-934.529 434.118,-914.913 459,-901.5 465.687,-897.895 473.006,-894.57 480.259,-891.601"/>
<polygon fill="midnightblue" stroke="midnightblue" points="388.668,-945.848 383.17,-954.905 393.116,-951.254 388.668,-945.848"/>
</g>
<!-- Node33 -->
<g id="node33" class="node"><title>Node33</title>
<g id="a_node33"><a xlink:href="classpdal_1_1PipelineManager.html#ab1216e90ce5bea6ed10b3bdfeef47e6d" target="_top" xlink:title="pdal::PipelineManager\l::prepare">
<polygon fill="white" stroke="red" points="469.5,-812.5 469.5,-842.5 582.5,-842.5 582.5,-812.5 469.5,-812.5"/>
<text text-anchor="start" x="477.5" y="-830.5" font-family="Helvetica,sans-Serif" font-size="10.00">pdal::PipelineManager</text>
<text text-anchor="middle" x="526" y="-819.5" font-family="Helvetica,sans-Serif" font-size="10.00">::prepare</text>
</a>
</g>
</g>
<!-- Node4&#45;&gt;Node33 -->
<g id="edge33" class="edge"><title>Node4&#45;&gt;Node33</title>
<path fill="none" stroke="midnightblue" d="M382.019,-945.975C396.164,-921.422 424.188,-878.216 459,-852.5 464.125,-848.714 469.891,-845.435 475.826,-842.613"/>
<polygon fill="midnightblue" stroke="midnightblue" points="378.816,-944.532 376.982,-954.967 384.923,-947.953 378.816,-944.532"/>
</g>
<!-- Node34 -->
<g id="node34" class="node"><title>Node34</title>
<g id="a_node34"><a xlink:href="classpdal_1_1TIndexReader.html#aab30ff453c7bb99f11295f9a6395f9a9" target="_top" xlink:title="pdal::TIndexReader\l::ready">
<polygon fill="white" stroke="black" points="475,-763.5 475,-793.5 577,-793.5 577,-763.5 475,-763.5"/>
<text text-anchor="start" x="483" y="-781.5" font-family="Helvetica,sans-Serif" font-size="10.00">pdal::TIndexReader</text>
<text text-anchor="middle" x="526" y="-770.5" font-family="Helvetica,sans-Serif" font-size="10.00">::ready</text>
</a>
</g>
</g>
<!-- Node4&#45;&gt;Node34 -->
<g id="edge34" class="edge"><title>Node4&#45;&gt;Node34</title>
<path fill="none" stroke="midnightblue" d="M377.677,-944.659C388.26,-911.057 414.099,-842.781 459,-803.5 463.703,-799.386 469.152,-795.918 474.862,-793.003"/>
<polygon fill="midnightblue" stroke="midnightblue" points="374.205,-944.049 374.667,-954.633 380.907,-946.071 374.205,-944.049"/>
</g>
<!-- Node35 -->
<g id="node35" class="node"><title>Node35</title>
<g id="a_node35"><a xlink:href="namespaceanonymous__namespace_02GDALWriterTest_8cpp_03.html#afa82c052f6116c30a757052c3013ec06" target="_top" xlink:title="anonymous_namespace\l\{GDALWriterTest::cpp\}\l::runGdalWriter">
<polygon fill="white" stroke="red" points="465,-704 465,-745 587,-745 587,-704 465,-704"/>
<text text-anchor="start" x="473" y="-733" font-family="Helvetica,sans-Serif" font-size="10.00">anonymous_namespace</text>
<text text-anchor="start" x="473" y="-722" font-family="Helvetica,sans-Serif" font-size="10.00">{GDALWriterTest::cpp}</text>
<text text-anchor="middle" x="526" y="-711" font-family="Helvetica,sans-Serif" font-size="10.00">::runGdalWriter</text>
</a>
</g>
</g>
<!-- Node4&#45;&gt;Node35 -->
<g id="edge35" class="edge"><title>Node4&#45;&gt;Node35</title>
<path fill="none" stroke="midnightblue" d="M375.177,-944.791C382.683,-904.166 405.097,-810.26 459,-754.5 462.412,-750.971 466.316,-747.821 470.483,-745.016"/>
<polygon fill="midnightblue" stroke="midnightblue" points="371.709,-944.308 373.442,-954.76 378.605,-945.508 371.709,-944.308"/>
</g>
<!-- Node36 -->
<g id="node36" class="node"><title>Node36</title>
<g id="a_node36"><a xlink:href="namespaceanonymous__namespace_02GDALWriterTest_8cpp_03.html#ab4af538727de76014b4faf8c8b616793" target="_top" xlink:title="anonymous_namespace\l\{GDALWriterTest::cpp\}\l::runGdalWriter2">
<polygon fill="white" stroke="red" points="465,-644 465,-685 587,-685 587,-644 465,-644"/>
<text text-anchor="start" x="473" y="-673" font-family="Helvetica,sans-Serif" font-size="10.00">anonymous_namespace</text>
<text text-anchor="start" x="473" y="-662" font-family="Helvetica,sans-Serif" font-size="10.00">{GDALWriterTest::cpp}</text>
<text text-anchor="middle" x="526" y="-651" font-family="Helvetica,sans-Serif" font-size="10.00">::runGdalWriter2</text>
</a>
</g>
</g>
<!-- Node4&#45;&gt;Node36 -->
<g id="edge36" class="edge"><title>Node4&#45;&gt;Node36</title>
<path fill="none" stroke="midnightblue" d="M373.054,-944.655C376.649,-896.014 392.263,-769.382 459,-694.5 462.098,-691.023 465.68,-687.925 469.54,-685.168"/>
<polygon fill="midnightblue" stroke="midnightblue" points="369.552,-944.578 372.401,-954.782 376.537,-945.028 369.552,-944.578"/>
</g>
<!-- Node37 -->
<g id="node37" class="node"><title>Node37</title>
<g id="a_node37"><a xlink:href="namespaceanonymous__namespace_02ColorinterpFilterTest_8cpp_03.html#a2c7a8c71c9e37bd0e7821a01064bd259" target="_top" xlink:title="anonymous_namespace\l\{ColorinterpFilterTest\l::cpp\}::standardTest">
<polygon fill="white" stroke="red" points="465,-584 465,-625 587,-625 587,-584 465,-584"/>
<text text-anchor="start" x="473" y="-613" font-family="Helvetica,sans-Serif" font-size="10.00">anonymous_namespace</text>
<text text-anchor="start" x="473" y="-602" font-family="Helvetica,sans-Serif" font-size="10.00">{ColorinterpFilterTest</text>
<text text-anchor="middle" x="526" y="-591" font-family="Helvetica,sans-Serif" font-size="10.00">::cpp}::standardTest</text>
</a>
</g>
</g>
<!-- Node4&#45;&gt;Node37 -->
<g id="edge37" class="edge"><title>Node4&#45;&gt;Node37</title>
<path fill="none" stroke="midnightblue" d="M371.645,-944.511C371.712,-888.676 379.265,-728.979 459,-634.5 461.922,-631.037 465.328,-627.955 469.023,-625.215"/>
<polygon fill="midnightblue" stroke="midnightblue" points="368.147,-944.814 371.721,-954.788 375.147,-944.762 368.147,-944.814"/>
</g>
<!-- Node38 -->
<g id="node38" class="node"><title>Node38</title>
<g id="a_node38"><a xlink:href="LasReaderTest_8cpp.html#a3fe845027bd4709eb9126245edd6f3c6" target="_top" xlink:title="streamTest">
<polygon fill="white" stroke="red" points="493,-546 493,-565 559,-565 559,-546 493,-546"/>
<text text-anchor="middle" x="526" y="-553" font-family="Helvetica,sans-Serif" font-size="10.00">streamTest</text>
</a>
</g>
</g>
<!-- Node4&#45;&gt;Node38 -->
<g id="edge38" class="edge"><title>Node4&#45;&gt;Node38</title>
<path fill="none" stroke="midnightblue" d="M373.813,-944.317C380.675,-872.313 407.325,-629.417 459,-574.5 467.743,-565.208 480.708,-560.365 492.837,-557.874"/>
<polygon fill="midnightblue" stroke="midnightblue" points="370.289,-944.411 372.85,-954.692 377.259,-945.058 370.289,-944.411"/>
</g>
<!-- Node39 -->
<g id="node39" class="node"><title>Node39</title>
<g id="a_node39"><a xlink:href="MatlabReaderTest_8cpp.html#a13d075df757d9911160c6c091b867b08" target="_top" xlink:title="TEST">
<polygon fill="white" stroke="black" points="505,-508 505,-527 547,-527 547,-508 505,-508"/>
<text text-anchor="middle" x="526" y="-515" font-family="Helvetica,sans-Serif" font-size="10.00">TEST</text>
</a>
</g>
</g>
<!-- Node4&#45;&gt;Node39 -->
<g id="edge39" class="edge"><title>Node4&#45;&gt;Node39</title>
<path fill="none" stroke="midnightblue" d="M373.342,-944.837C378.895,-869.134 402.492,-597.705 459,-536.5 470.647,-523.884 490.074,-519.45 504.843,-517.984"/>
<polygon fill="midnightblue" stroke="midnightblue" points="369.845,-944.67 372.627,-954.893 376.827,-945.166 369.845,-944.67"/>
</g>
<!-- Node40 -->
<g id="node40" class="node"><title>Node40</title>
<g id="a_node40"><a xlink:href="namespaceanonymous__namespace_02BufferTest_8cpp_03.html#aa82a48c7e159e43f9c99511f10d16b3c" target="_top" xlink:title="anonymous_namespace\l\{BufferTest::cpp\}::TEST">
<polygon fill="white" stroke="black" points="465,-458.5 465,-488.5 587,-488.5 587,-458.5 465,-458.5"/>
<text text-anchor="start" x="473" y="-476.5" font-family="Helvetica,sans-Serif" font-size="10.00">anonymous_namespace</text>
<text text-anchor="middle" x="526" y="-465.5" font-family="Helvetica,sans-Serif" font-size="10.00">{BufferTest::cpp}::TEST</text>
</a>
</g>
</g>
<!-- Node4&#45;&gt;Node40 -->
<g id="edge40" class="edge"><title>Node4&#45;&gt;Node40</title>
<path fill="none" stroke="midnightblue" d="M373.153,-944.797C378.182,-865.197 400.614,-568.292 459,-498.5 462.223,-494.647 466.107,-491.387 470.357,-488.628"/>
<polygon fill="midnightblue" stroke="midnightblue" points="369.652,-944.717 372.535,-954.912 376.639,-945.144 369.652,-944.717"/>
</g>
<!-- Node41 -->
<g id="node41" class="node"><title>Node41</title>
<g id="a_node41"><a xlink:href="namespacepdal.html#a51cbf5225e506db21e7efe20f4eebb09" target="_top" xlink:title="pdal::TEST">
<polygon fill="white" stroke="black" points="493,-420 493,-439 559,-439 559,-420 493,-420"/>
<text text-anchor="middle" x="526" y="-427" font-family="Helvetica,sans-Serif" font-size="10.00">pdal::TEST</text>
</a>
</g>
</g>
<!-- Node4&#45;&gt;Node41 -->
<g id="edge41" class="edge"><title>Node4&#45;&gt;Node41</title>
<path fill="none" stroke="midnightblue" d="M372.644,-944.542C375.794,-859.13 392.256,-525.299 459,-449.5 467.545,-439.795 480.627,-434.719 492.897,-432.094"/>
<polygon fill="midnightblue" stroke="midnightblue" points="369.14,-944.58 372.29,-954.696 376.136,-944.824 369.14,-944.58"/>
</g>
<!-- Node42 -->
<g id="node42" class="node"><title>Node42</title>
<g id="a_node42"><a xlink:href="LasReaderTest_8cpp.html#aa76b17cddb63cde84b93800acc213041" target="_top" xlink:title="test_a_format">
<polygon fill="white" stroke="red" points="487.5,-382 487.5,-401 564.5,-401 564.5,-382 487.5,-382"/>
<text text-anchor="middle" x="526" y="-389" font-family="Helvetica,sans-Serif" font-size="10.00">test_a_format</text>
</a>
</g>
</g>
<!-- Node4&#45;&gt;Node42 -->
<g id="edge42" class="edge"><title>Node4&#45;&gt;Node42</title>
<path fill="none" stroke="midnightblue" d="M372.351,-944.735C374.332,-855.658 386.787,-492.317 459,-410.5 466.259,-402.276 476.825,-397.509 487.383,-394.776"/>
<polygon fill="midnightblue" stroke="midnightblue" points="368.85,-944.752 372.147,-954.821 375.849,-944.894 368.85,-944.752"/>
</g>
<!-- Node43 -->
<g id="node43" class="node"><title>Node43</title>
<g id="a_node43"><a xlink:href="namespacepdal.html#ab19387b4eb501050585c3603e06db46a" target="_top" xlink:title="pdal::TEST_F">
<polygon fill="white" stroke="black" points="487.5,-344 487.5,-363 564.5,-363 564.5,-344 487.5,-344"/>
<text text-anchor="middle" x="526" y="-351" font-family="Helvetica,sans-Serif" font-size="10.00">pdal::TEST_F</text>
</a>
</g>
</g>
<!-- Node4&#45;&gt;Node43 -->
<g id="edge43" class="edge"><title>Node4&#45;&gt;Node43</title>
<path fill="none" stroke="midnightblue" d="M372.134,-944.569C373.161,-851.503 382.06,-460.543 459,-372.5 466.219,-364.24 476.773,-359.463 487.333,-356.732"/>
<polygon fill="midnightblue" stroke="midnightblue" points="368.634,-944.584 372.042,-954.615 375.633,-944.648 368.634,-944.584"/>
</g>
<!-- Node44 -->
<g id="node44" class="node"><title>Node44</title>
<g id="a_node44"><a xlink:href="GreyhoundReaderTest_8cpp.html#af2d766907254ea1571821d6d621f0b61" target="_top" xlink:title="TEST_F">
<polygon fill="white" stroke="black" points="499.5,-306 499.5,-325 552.5,-325 552.5,-306 499.5,-306"/>
<text text-anchor="middle" x="526" y="-313" font-family="Helvetica,sans-Serif" font-size="10.00">TEST_F</text>
</a>
</g>
</g>
<!-- Node4&#45;&gt;Node44 -->
<g id="edge44" class="edge"><title>Node4&#45;&gt;Node44</title>
<path fill="none" stroke="midnightblue" d="M371.938,-944.843C372.035,-848.713 377.199,-428.929 459,-334.5 468.993,-322.964 485.493,-318.214 499.495,-316.348"/>
<polygon fill="midnightblue" stroke="midnightblue" points="368.438,-944.921 371.947,-954.918 375.438,-944.915 368.438,-944.921"/>
</g>
<!-- Node45 -->
<g id="node45" class="node"><title>Node45</title>
<g id="a_node45"><a xlink:href="namespaceanonymous__namespace_02BPFTest_8cpp_03.html#a55eec1c3e76a6cdaa20e260fb6c03fe9" target="_top" xlink:title="anonymous_namespace\l\{BPFTest::cpp\}::test\l_roundtrip">
<polygon fill="white" stroke="red" points="465,-246 465,-287 587,-287 587,-246 465,-246"/>
<text text-anchor="start" x="473" y="-275" font-family="Helvetica,sans-Serif" font-size="10.00">anonymous_namespace</text>
<text text-anchor="start" x="473" y="-264" font-family="Helvetica,sans-Serif" font-size="10.00">{BPFTest::cpp}::test</text>
<text text-anchor="middle" x="526" y="-253" font-family="Helvetica,sans-Serif" font-size="10.00">_roundtrip</text>
</a>
</g>
</g>
<!-- Node4&#45;&gt;Node45 -->
<g id="edge45" class="edge"><title>Node4&#45;&gt;Node45</title>
<path fill="none" stroke="midnightblue" d="M372.057,-944.849C372.71,-845.953 380.061,-403.226 459,-296.5 461.62,-292.958 464.757,-289.824 468.221,-287.053"/>
<polygon fill="midnightblue" stroke="midnightblue" points="368.557,-944.92 372.007,-954.937 375.557,-944.955 368.557,-944.92"/>
</g>
<!-- Node46 -->
<g id="node46" class="node"><title>Node46</title>
<g id="a_node46"><a xlink:href="namespaceanonymous__namespace_02ColorizationFilterTest_8cpp_03.html#a9ecba8dd0dc941d16a50be7a9a264b07" target="_top" xlink:title="anonymous_namespace\l\{ColorizationFilterTest\l::cpp\}::testFile">
<polygon fill="white" stroke="red" points="465,-186 465,-227 587,-227 587,-186 465,-186"/>
<text text-anchor="start" x="473" y="-215" font-family="Helvetica,sans-Serif" font-size="10.00">anonymous_namespace</text>
<text text-anchor="start" x="473" y="-204" font-family="Helvetica,sans-Serif" font-size="10.00">{ColorizationFilterTest</text>
<text text-anchor="middle" x="526" y="-193" font-family="Helvetica,sans-Serif" font-size="10.00">::cpp}::testFile</text>
</a>
</g>
</g>
<!-- Node4&#45;&gt;Node46 -->
<g id="edge46" class="edge"><title>Node4&#45;&gt;Node46</title>
<path fill="none" stroke="midnightblue" d="M371.82,-944.419C371.251,-839.385 373.345,-353.595 459,-236.5 461.601,-232.944 464.724,-229.8 468.179,-227.022"/>
<polygon fill="midnightblue" stroke="midnightblue" points="368.321,-944.611 371.891,-954.586 375.321,-944.562 368.321,-944.611"/>
</g>
<!-- Node47 -->
<g id="node47" class="node"><title>Node47</title>
<g id="a_node47"><a xlink:href="namespaceanonymous__namespace_02ColorizationFilterTest_8cpp_03.html#a34ec954a3562386020f65ce3ad8d025e" target="_top" xlink:title="anonymous_namespace\l\{ColorizationFilterTest\l::cpp\}::testFileStreamed">
<polygon fill="white" stroke="red" points="465,-126 465,-167 587,-167 587,-126 465,-126"/>
<text text-anchor="start" x="473" y="-155" font-family="Helvetica,sans-Serif" font-size="10.00">anonymous_namespace</text>
<text text-anchor="start" x="473" y="-144" font-family="Helvetica,sans-Serif" font-size="10.00">{ColorizationFilterTest</text>
<text text-anchor="middle" x="526" y="-133" font-family="Helvetica,sans-Serif" font-size="10.00">::cpp}::testFileStreamed</text>
</a>
</g>
</g>
<!-- Node4&#45;&gt;Node47 -->
<g id="edge47" class="edge"><title>Node4&#45;&gt;Node47</title>
<path fill="none" stroke="midnightblue" d="M371.617,-944.528C369.883,-834.661 366.468,-304.196 459,-176.5 461.511,-173.035 464.519,-169.961 467.848,-167.235"/>
<polygon fill="midnightblue" stroke="midnightblue" points="368.122,-944.885 371.795,-954.823 375.121,-944.764 368.122,-944.885"/>
</g>
<!-- Node48 -->
<g id="node48" class="node"><title>Node48</title>
<g id="a_node48"><a xlink:href="FauxReaderTest_8cpp.html#a3d5539afea38de83c9e480676f12c736" target="_top" xlink:title="testGrid">
<polygon fill="white" stroke="red" points="500.5,-88 500.5,-107 551.5,-107 551.5,-88 500.5,-88"/>
<text text-anchor="middle" x="526" y="-95" font-family="Helvetica,sans-Serif" font-size="10.00">testGrid</text>
</a>
</g>
</g>
<!-- Node4&#45;&gt;Node48 -->
<g id="edge48" class="edge"><title>Node4&#45;&gt;Node48</title>
<path fill="none" stroke="midnightblue" d="M372.712,-944.921C377.277,-824.045 403.995,-182.288 459,-116.5 469.019,-104.517 486.067,-99.8223 500.326,-98.0949"/>
<polygon fill="midnightblue" stroke="midnightblue" points="369.213,-944.833 372.339,-954.956 376.208,-945.093 369.213,-944.833"/>
</g>
<!-- Node49 -->
<g id="node49" class="node"><title>Node49</title>
<g id="a_node49"><a xlink:href="OverlayFilterTest_8cpp.html#a81ea698dfcbc49b4d563206ceb68d003" target="_top" xlink:title="testOverlay">
<polygon fill="white" stroke="red" points="492.5,-50 492.5,-69 559.5,-69 559.5,-50 492.5,-50"/>
<text text-anchor="middle" x="526" y="-57" font-family="Helvetica,sans-Serif" font-size="10.00">testOverlay</text>
</a>
</g>
</g>
<!-- Node4&#45;&gt;Node49 -->
<g id="edge49" class="edge"><title>Node4&#45;&gt;Node49</title>
<path fill="none" stroke="midnightblue" d="M372.625,-944.818C376.741,-820.526 401.587,-147.472 459,-78.5 467.162,-68.6943 480.031,-63.7663 492.247,-61.3515"/>
<polygon fill="midnightblue" stroke="midnightblue" points="369.127,-944.71 372.3,-954.819 376.123,-944.938 369.127,-944.71"/>
</g>
<!-- Node50 -->
<g id="node50" class="node"><title>Node50</title>
<g id="a_node50"><a xlink:href="classpdal_1_1MongusFilter.html#aaacd9ce3a847541bad94929bb8f28179" target="_top" xlink:title="pdal::MongusFilter\l::writeControl">
<polygon fill="white" stroke="red" points="477.5,-0.5 477.5,-30.5 574.5,-30.5 574.5,-0.5 477.5,-0.5"/>
<text text-anchor="start" x="485.5" y="-18.5" font-family="Helvetica,sans-Serif" font-size="10.00">pdal::MongusFilter</text>
<text text-anchor="middle" x="526" y="-7.5" font-family="Helvetica,sans-Serif" font-size="10.00">::writeControl</text>
</a>
</g>
</g>
<!-- Node4&#45;&gt;Node50 -->
<g id="edge50" class="edge"><title>Node4&#45;&gt;Node50</title>
<path fill="none" stroke="midnightblue" d="M372.63,-944.44C376.818,-816.272 402.227,-114.981 459,-40.5 463.754,-34.2634 470.256,-29.5826 477.335,-26.0695"/>
<polygon fill="midnightblue" stroke="midnightblue" points="369.122,-944.625 372.299,-954.732 376.119,-944.849 369.122,-944.625"/>
</g>
<!-- Node6 -->
<g id="node6" class="node"><title>Node6</title>
<g id="a_node6"><a xlink:href="SpatialReferenceTest_8cpp.html#acbe8bbc3b3d602e92c360d196a0431d0" target="_top" xlink:title="TEST">
<polygon fill="white" stroke="black" points="676,-1846 676,-1865 718,-1865 718,-1846 676,-1846"/>
<text text-anchor="middle" x="697" y="-1853" font-family="Helvetica,sans-Serif" font-size="10.00">TEST</text>
</a>
</g>
</g>
<!-- Node5&#45;&gt;Node6 -->
<g id="edge5" class="edge"><title>Node5&#45;&gt;Node6</title>
<path fill="none" stroke="midnightblue" d="M587.561,-1855.5C618.583,-1855.5 654.295,-1855.5 675.999,-1855.5"/>
<polygon fill="midnightblue" stroke="midnightblue" points="587.248,-1852 577.248,-1855.5 587.248,-1859 587.248,-1852"/>
</g>
<!-- Node9 -->
<g id="node9" class="node"><title>Node9</title>
<g id="a_node9"><a xlink:href="OCITest_8cpp.html#ab1703367762abc1490e00dcd5ccb29bc" target="_top" xlink:title="readData">
<polygon fill="white" stroke="red" points="669,-1802 669,-1821 725,-1821 725,-1802 669,-1802"/>
<text text-anchor="middle" x="697" y="-1809" font-family="Helvetica,sans-Serif" font-size="10.00">readData</text>
</a>
</g>
</g>
<!-- Node8&#45;&gt;Node9 -->
<g id="edge8" class="edge"><title>Node8&#45;&gt;Node9</title>
<path fill="none" stroke="midnightblue" d="M562.797,-1776.82C594.481,-1785.07 640.036,-1796.93 668.814,-1804.42"/>
<polygon fill="midnightblue" stroke="midnightblue" points="563.595,-1773.41 553.036,-1774.28 561.831,-1780.19 563.595,-1773.41"/>
</g>
<!-- Node10 -->
<g id="node10" class="node"><title>Node10</title>
<g id="a_node10"><a xlink:href="classpdal_1_1MortonOrderFilter.html#ad677d9f6af17b471a1959ae20afb1af8" target="_top" xlink:title="pdal::MortonOrderFilter::run">
<polygon fill="white" stroke="black" points="629,-1764 629,-1783 765,-1783 765,-1764 629,-1764"/>
<text text-anchor="middle" x="697" y="-1771" font-family="Helvetica,sans-Serif" font-size="10.00">pdal::MortonOrderFilter::run</text>
</a>
</g>
</g>
<!-- Node8&#45;&gt;Node10 -->
<g id="edge9" class="edge"><title>Node8&#45;&gt;Node10</title>
<path fill="none" stroke="midnightblue" d="M563.094,-1768.78C582.198,-1769.46 606.283,-1770.31 628.685,-1771.11"/>
<polygon fill="midnightblue" stroke="midnightblue" points="563.154,-1765.28 553.036,-1768.42 562.905,-1772.28 563.154,-1765.28"/>
</g>
<!-- Node11 -->
<g id="node11" class="node"><title>Node11</title>
<g id="a_node11"><a xlink:href="GDALReaderTest_8cpp.html#a3516d024f113af1dacf61dd812810c42" target="_top" xlink:title="TEST_F">
<polygon fill="white" stroke="black" points="670.5,-1726 670.5,-1745 723.5,-1745 723.5,-1726 670.5,-1726"/>
<text text-anchor="middle" x="697" y="-1733" font-family="Helvetica,sans-Serif" font-size="10.00">TEST_F</text>
</a>
</g>
</g>
<!-- Node8&#45;&gt;Node11 -->
<g id="edge10" class="edge"><title>Node8&#45;&gt;Node11</title>
<path fill="none" stroke="midnightblue" d="M562.979,-1760.69C595.278,-1754.57 641.882,-1745.75 670.488,-1740.33"/>
<polygon fill="midnightblue" stroke="midnightblue" points="562.21,-1757.27 553.036,-1762.57 563.512,-1764.15 562.21,-1757.27"/>
</g>
<!-- Node13 -->
<g id="node13" class="node"><title>Node13</title>
<g id="a_node13"><a xlink:href="LasWriterTest_8cpp.html#a96e02b574ec50a9a46445046ca8f303b" target="_top" xlink:title="TEST">
<polygon fill="white" stroke="black" points="676,-1688 676,-1707 718,-1707 718,-1688 676,-1688"/>
<text text-anchor="middle" x="697" y="-1695" font-family="Helvetica,sans-Serif" font-size="10.00">TEST</text>
</a>
</g>
</g>
<!-- Node12&#45;&gt;Node13 -->
<g id="edge12" class="edge"><title>Node12&#45;&gt;Node13</title>
<path fill="none" stroke="midnightblue" d="M573.719,-1720.65C607.233,-1714.31 650.732,-1706.07 675.79,-1701.33"/>
<polygon fill="midnightblue" stroke="midnightblue" points="572.845,-1717.26 563.67,-1722.56 574.147,-1724.13 572.845,-1717.26"/>
</g>
</g>
</svg>
