<?xml version="1.0" encoding="UTF-8" standalone="no"?>
<!DOCTYPE svg PUBLIC "-//W3C//DTD SVG 1.1//EN"
 "http://www.w3.org/Graphics/SVG/1.1/DTD/svg11.dtd">
<!-- Generated by graphviz version 2.38.0 (20140413.2041)
 -->
<!-- Title: pdal::TextReader::fillFields Pages: 1 -->
<svg width="277pt" height="142pt"
 viewBox="0.00 0.00 277.00 142.00" xmlns="http://www.w3.org/2000/svg" xmlns:xlink="http://www.w3.org/1999/xlink">
<g id="graph0" class="graph" transform="scale(1 1) rotate(0) translate(4 138)">
<title>pdal::TextReader::fillFields</title>
<polygon fill="white" stroke="none" points="-4,4 -4,-138 273,-138 273,4 -4,4"/>
<!-- Node1 -->
<g id="node1" class="node"><title>Node1</title>
<polygon fill="#bfbfbf" stroke="black" points="0,-57.5 0,-76.5 134,-76.5 134,-57.5 0,-57.5"/>
<text text-anchor="middle" x="67" y="-64.5" font-family="Helvetica,sans-Serif" font-size="10.00">pdal::TextReader::fillFields</text>
</g>
<!-- Node2 -->
<g id="node2" class="node"><title>Node2</title>
<g id="a_node2"><a xlink:href="classpdal_1_1Stage.html#ae8c29817e14d7cda53fdcbb23102d872" target="_top" xlink:title="pdal::Stage::log">
<polygon fill="white" stroke="black" points="177,-114.5 177,-133.5 262,-133.5 262,-114.5 177,-114.5"/>
<text text-anchor="middle" x="219.5" y="-121.5" font-family="Helvetica,sans-Serif" font-size="10.00">pdal::Stage::log</text>
</a>
</g>
</g>
<!-- Node1&#45;&gt;Node2 -->
<g id="edge1" class="edge"><title>Node1&#45;&gt;Node2</title>
<path fill="none" stroke="midnightblue" d="M93.1903,-76.5405C117.933,-85.9116 155.891,-100.288 183.548,-110.762"/>
<polygon fill="midnightblue" stroke="midnightblue" points="182.636,-114.16 193.228,-114.428 185.115,-107.613 182.636,-114.16"/>
</g>
<!-- Node3 -->
<g id="node3" class="node"><title>Node3</title>
<g id="a_node3"><a xlink:href="namespacepdal_1_1Utils.html#ad875f14218020d7d4d10803f5a115bdb" target="_top" xlink:title="pdal::Utils::remove">
<polygon fill="white" stroke="black" points="170,-76.5 170,-95.5 269,-95.5 269,-76.5 170,-76.5"/>
<text text-anchor="middle" x="219.5" y="-83.5" font-family="Helvetica,sans-Serif" font-size="10.00">pdal::Utils::remove</text>
</a>
</g>
</g>
<!-- Node1&#45;&gt;Node3 -->
<g id="edge2" class="edge"><title>Node1&#45;&gt;Node3</title>
<path fill="none" stroke="midnightblue" d="M134.011,-75.3337C142.546,-76.4111 151.242,-77.5089 159.65,-78.5705"/>
<polygon fill="midnightblue" stroke="midnightblue" points="159.375,-82.0634 169.734,-79.8435 160.252,-75.1185 159.375,-82.0634"/>
</g>
<!-- Node4 -->
<g id="node4" class="node"><title>Node4</title>
<g id="a_node4"><a xlink:href="namespacepdal_1_1Utils.html#a7c0bdff1817c4b21e6f5b37dc8fabff5" target="_top" xlink:title="pdal::Utils::split">
<polygon fill="white" stroke="black" points="177,-38.5 177,-57.5 262,-57.5 262,-38.5 177,-38.5"/>
<text text-anchor="middle" x="219.5" y="-45.5" font-family="Helvetica,sans-Serif" font-size="10.00">pdal::Utils::split</text>
</a>
</g>
</g>
<!-- Node1&#45;&gt;Node4 -->
<g id="edge3" class="edge"><title>Node1&#45;&gt;Node4</title>
<path fill="none" stroke="midnightblue" d="M134.011,-58.6663C144.911,-57.2903 156.072,-55.8812 166.563,-54.5568"/>
<polygon fill="midnightblue" stroke="midnightblue" points="167.313,-57.99 176.796,-53.265 166.436,-51.0451 167.313,-57.99"/>
</g>
<!-- Node5 -->
<g id="node5" class="node"><title>Node5</title>
<g id="a_node5"><a xlink:href="namespacepdal_1_1Utils.html#a6ae33c6d7b4eb4bcae6ec17fb8cc04fc" target="_top" xlink:title="pdal::Utils::split2">
<polygon fill="white" stroke="black" points="174.5,-0.5 174.5,-19.5 264.5,-19.5 264.5,-0.5 174.5,-0.5"/>
<text text-anchor="middle" x="219.5" y="-7.5" font-family="Helvetica,sans-Serif" font-size="10.00">pdal::Utils::split2</text>
</a>
</g>
</g>
<!-- Node1&#45;&gt;Node5 -->
<g id="edge4" class="edge"><title>Node1&#45;&gt;Node5</title>
<path fill="none" stroke="midnightblue" d="M93.1903,-57.4595C117.933,-48.0884 155.891,-33.7124 183.548,-23.2377"/>
<polygon fill="midnightblue" stroke="midnightblue" points="185.115,-26.3867 193.228,-19.5716 182.636,-19.8405 185.115,-26.3867"/>
</g>
</g>
</svg>
