<?xml version="1.0" encoding="UTF-8" standalone="no"?>
<!DOCTYPE svg PUBLIC "-//W3C//DTD SVG 1.1//EN"
 "http://www.w3.org/Graphics/SVG/1.1/DTD/svg11.dtd">
<!-- Generated by graphviz version 2.38.0 (20140413.2041)
 -->
<!-- Title: pdal::TIndexKernel::createFeature Pages: 1 -->
<svg width="264pt" height="99pt"
 viewBox="0.00 0.00 264.00 98.50" xmlns="http://www.w3.org/2000/svg" xmlns:xlink="http://www.w3.org/1999/xlink">
<g id="graph0" class="graph" transform="scale(1 1) rotate(0) translate(4 94.5)">
<title>pdal::TIndexKernel::createFeature</title>
<polygon fill="white" stroke="none" points="-4,4 -4,-94.5 260,-94.5 260,4 -4,4"/>
<!-- Node1 -->
<g id="node1" class="node"><title>Node1</title>
<polygon fill="#bfbfbf" stroke="black" points="0,-33 0,-63 98,-63 98,-33 0,-33"/>
<text text-anchor="start" x="8" y="-51" font-family="Helvetica,sans-Serif" font-size="10.00">pdal::TIndexKernel</text>
<text text-anchor="middle" x="49" y="-40" font-family="Helvetica,sans-Serif" font-size="10.00">::createFeature</text>
</g>
<!-- Node2 -->
<g id="node2" class="node"><title>Node2</title>
<g id="a_node2"><a xlink:href="classpdal_1_1TIndexKernel.html#a2519b2bf9b62ae5de923bc3bf3616fac" target="_top" xlink:title="pdal::TIndexKernel\l::prepareGeometry">
<polygon fill="white" stroke="black" points="146,-60 146,-90 244,-90 244,-60 146,-60"/>
<text text-anchor="start" x="154" y="-78" font-family="Helvetica,sans-Serif" font-size="10.00">pdal::TIndexKernel</text>
<text text-anchor="middle" x="195" y="-67" font-family="Helvetica,sans-Serif" font-size="10.00">::prepareGeometry</text>
</a>
</g>
</g>
<!-- Node1&#45;&gt;Node2 -->
<g id="edge1" class="edge"><title>Node1&#45;&gt;Node2</title>
<path fill="none" stroke="midnightblue" d="M98.3505,-57.0657C110.223,-59.2919 123.062,-61.699 135.361,-64.0051"/>
<polygon fill="midnightblue" stroke="midnightblue" points="135.058,-67.5093 145.532,-65.9122 136.348,-60.6292 135.058,-67.5093"/>
</g>
<!-- Node3 -->
<g id="node3" class="node"><title>Node3</title>
<g id="a_node3"><a xlink:href="namespaceanonymous__namespace_02TIndexKernel_8cpp_03.html#aa5dcc5b0045f0c64e1d246244b6cf9b6" target="_top" xlink:title="anonymous_namespace\l\{TIndexKernel::cpp\}\l::setDate">
<polygon fill="white" stroke="black" points="134,-0.5 134,-41.5 256,-41.5 256,-0.5 134,-0.5"/>
<text text-anchor="start" x="142" y="-29.5" font-family="Helvetica,sans-Serif" font-size="10.00">anonymous_namespace</text>
<text text-anchor="start" x="142" y="-18.5" font-family="Helvetica,sans-Serif" font-size="10.00">{TIndexKernel::cpp}</text>
<text text-anchor="middle" x="195" y="-7.5" font-family="Helvetica,sans-Serif" font-size="10.00">::setDate</text>
</a>
</g>
</g>
<!-- Node1&#45;&gt;Node3 -->
<g id="edge2" class="edge"><title>Node1&#45;&gt;Node3</title>
<path fill="none" stroke="midnightblue" d="M98.3505,-38.9343C106.513,-37.4037 115.133,-35.7876 123.719,-34.1776"/>
<polygon fill="midnightblue" stroke="midnightblue" points="124.571,-37.579 133.755,-32.296 123.281,-30.6989 124.571,-37.579"/>
</g>
</g>
</svg>
