<?xml version="1.0" encoding="UTF-8" standalone="no"?>
<!DOCTYPE svg PUBLIC "-//W3C//DTD SVG 1.1//EN"
 "http://www.w3.org/Graphics/SVG/1.1/DTD/svg11.dtd">
<!-- Generated by graphviz version 2.38.0 (20140413.2041)
 -->
<!-- Title: pdal::ReprojectionFilter::initialize Pages: 1 -->
<svg width="426pt" height="127pt"
 viewBox="0.00 0.00 426.00 126.50" xmlns="http://www.w3.org/2000/svg" xmlns:xlink="http://www.w3.org/1999/xlink">
<g id="graph0" class="graph" transform="scale(1 1) rotate(0) translate(4 122.5)">
<title>pdal::ReprojectionFilter::initialize</title>
<polygon fill="white" stroke="none" points="-4,4 -4,-122.5 422,-122.5 422,4 -4,4"/>
<!-- Node1 -->
<g id="node1" class="node"><title>Node1</title>
<polygon fill="#bfbfbf" stroke="black" points="0,-39 0,-69 117,-69 117,-39 0,-39"/>
<text text-anchor="start" x="8" y="-57" font-family="Helvetica,sans-Serif" font-size="10.00">pdal::ReprojectionFilter</text>
<text text-anchor="middle" x="58.5" y="-46" font-family="Helvetica,sans-Serif" font-size="10.00">::initialize</text>
</g>
<!-- Node2 -->
<g id="node2" class="node"><title>Node2</title>
<g id="a_node2"><a xlink:href="classpdal_1_1SpatialReference.html#a48fa2f7e79ea172b62ad2e874ff01610" target="_top" xlink:title="pdal::SpatialReference\l::empty">
<polygon fill="white" stroke="black" points="153.5,-88 153.5,-118 269.5,-118 269.5,-88 153.5,-88"/>
<text text-anchor="start" x="161.5" y="-106" font-family="Helvetica,sans-Serif" font-size="10.00">pdal::SpatialReference</text>
<text text-anchor="middle" x="211.5" y="-95" font-family="Helvetica,sans-Serif" font-size="10.00">::empty</text>
</a>
</g>
</g>
<!-- Node1&#45;&gt;Node2 -->
<g id="edge1" class="edge"><title>Node1&#45;&gt;Node2</title>
<path fill="none" stroke="midnightblue" d="M106.037,-69.1014C121.322,-74.0615 138.474,-79.6274 154.392,-84.7929"/>
<polygon fill="midnightblue" stroke="midnightblue" points="153.525,-88.1909 164.117,-87.9484 155.685,-81.5327 153.525,-88.1909"/>
</g>
<!-- Node3 -->
<g id="node3" class="node"><title>Node3</title>
<g id="a_node3"><a xlink:href="classpdal_1_1SpatialReference.html#ad6242348b0fecc9662bec718d056ef39" target="_top" xlink:title="pdal::SpatialReference\l::getWKT">
<polygon fill="white" stroke="black" points="153.5,-39 153.5,-69 269.5,-69 269.5,-39 153.5,-39"/>
<text text-anchor="start" x="161.5" y="-57" font-family="Helvetica,sans-Serif" font-size="10.00">pdal::SpatialReference</text>
<text text-anchor="middle" x="211.5" y="-46" font-family="Helvetica,sans-Serif" font-size="10.00">::getWKT</text>
</a>
</g>
</g>
<!-- Node1&#45;&gt;Node3 -->
<g id="edge2" class="edge"><title>Node1&#45;&gt;Node3</title>
<path fill="none" stroke="midnightblue" d="M117.017,-54C125.584,-54 134.478,-54 143.223,-54"/>
<polygon fill="midnightblue" stroke="midnightblue" points="143.392,-57.5001 153.392,-54 143.392,-50.5001 143.392,-57.5001"/>
</g>
<!-- Node4 -->
<g id="node4" class="node"><title>Node4</title>
<g id="a_node4"><a xlink:href="classpdal_1_1Stage.html#abdbd1176da12dfd882d931a43290797f" target="_top" xlink:title="pdal::Stage::throwError">
<polygon fill="white" stroke="black" points="153,-0.5 153,-19.5 270,-19.5 270,-0.5 153,-0.5"/>
<text text-anchor="middle" x="211.5" y="-7.5" font-family="Helvetica,sans-Serif" font-size="10.00">pdal::Stage::throwError</text>
</a>
</g>
</g>
<!-- Node1&#45;&gt;Node4 -->
<g id="edge3" class="edge"><title>Node1&#45;&gt;Node4</title>
<path fill="none" stroke="midnightblue" d="M111.043,-38.9808C129.47,-33.6115 150.02,-27.6234 167.635,-22.4905"/>
<polygon fill="midnightblue" stroke="midnightblue" points="169.008,-25.7362 177.629,-19.5783 167.049,-19.0157 169.008,-25.7362"/>
</g>
<!-- Node5 -->
<g id="node5" class="node"><title>Node5</title>
<g id="a_node5"><a xlink:href="classpdal_1_1Stage.html#a6c81d6fbbac17ebe4cd63806916cc750" target="_top" xlink:title="pdal::Stage::getName">
<polygon fill="white" stroke="black" points="306,-0.5 306,-19.5 418,-19.5 418,-0.5 306,-0.5"/>
<text text-anchor="middle" x="362" y="-7.5" font-family="Helvetica,sans-Serif" font-size="10.00">pdal::Stage::getName</text>
</a>
</g>
</g>
<!-- Node4&#45;&gt;Node5 -->
<g id="edge4" class="edge"><title>Node4&#45;&gt;Node5</title>
<path fill="none" stroke="midnightblue" d="M270.339,-10C278.676,-10 287.304,-10 295.773,-10"/>
<polygon fill="midnightblue" stroke="midnightblue" points="295.994,-13.5001 305.994,-10 295.994,-6.5001 295.994,-13.5001"/>
</g>
</g>
</svg>
