<?xml version="1.0" encoding="UTF-8" standalone="no"?>
<!DOCTYPE svg PUBLIC "-//W3C//DTD SVG 1.1//EN"
 "http://www.w3.org/Graphics/SVG/1.1/DTD/svg11.dtd">
<!-- Generated by graphviz version 2.38.0 (20140413.2041)
 -->
<!-- Title: pdal::KD3Index Pages: 1 -->
<svg width="333pt" height="286pt"
 viewBox="0.00 0.00 332.50 286.00" xmlns="http://www.w3.org/2000/svg" xmlns:xlink="http://www.w3.org/1999/xlink">
<g id="graph0" class="graph" transform="scale(1 1) rotate(0) translate(4 282)">
<title>pdal::KD3Index</title>
<polygon fill="white" stroke="none" points="-4,4 -4,-282 328.5,-282 328.5,4 -4,4"/>
<!-- Node1 -->
<g id="node1" class="node"><title>Node1</title>
<polygon fill="#bfbfbf" stroke="black" points="93.5,-0.5 93.5,-19.5 177.5,-19.5 177.5,-0.5 93.5,-0.5"/>
<text text-anchor="middle" x="135.5" y="-7.5" font-family="Helvetica,sans-Serif" font-size="10.00">pdal::KD3Index</text>
</g>
<!-- Node2 -->
<g id="node2" class="node"><title>Node2</title>
<g id="a_node2"><a xlink:href="classpdal_1_1KDIndex.html" target="_top" xlink:title="pdal::KDIndex\&lt; 3 \&gt;">
<polygon fill="white" stroke="black" points="84.5,-57.5 84.5,-76.5 186.5,-76.5 186.5,-57.5 84.5,-57.5"/>
<text text-anchor="middle" x="135.5" y="-64.5" font-family="Helvetica,sans-Serif" font-size="10.00">pdal::KDIndex&lt; 3 &gt;</text>
</a>
</g>
</g>
<!-- Node2&#45;&gt;Node1 -->
<g id="edge1" class="edge"><title>Node2&#45;&gt;Node1</title>
<path fill="none" stroke="midnightblue" d="M135.5,-47.1166C135.5,-37.8173 135.5,-27.0557 135.5,-19.7149"/>
<polygon fill="midnightblue" stroke="midnightblue" points="132,-47.4062 135.5,-57.4062 139,-47.4063 132,-47.4062"/>
</g>
<!-- Node3 -->
<g id="node3" class="node"><title>Node3</title>
<g id="a_node3"><a xlink:href="classpdal_1_1PointView.html" target="_top" xlink:title="pdal::PointView">
<polygon fill="white" stroke="black" points="93,-124.5 93,-143.5 178,-143.5 178,-124.5 93,-124.5"/>
<text text-anchor="middle" x="135.5" y="-131.5" font-family="Helvetica,sans-Serif" font-size="10.00">pdal::PointView</text>
</a>
</g>
</g>
<!-- Node3&#45;&gt;Node2 -->
<g id="edge2" class="edge"><title>Node3&#45;&gt;Node2</title>
<path fill="none" stroke="#9a32cd" stroke-dasharray="5,2" d="M135.5,-114.037C135.5,-101.67 135.5,-86.1198 135.5,-76.6273"/>
<polygon fill="#9a32cd" stroke="#9a32cd" points="132,-114.234 135.5,-124.234 139,-114.234 132,-114.234"/>
<text text-anchor="middle" x="151" y="-98" font-family="Helvetica,sans-Serif" font-size="10.00"> m_buf</text>
</g>
<!-- Node4 -->
<g id="node4" class="node"><title>Node4</title>
<g id="a_node4"><a xlink:href="classpdal_1_1PointContainer.html" target="_top" xlink:title="pdal::PointContainer">
<polygon fill="white" stroke="black" points="0,-258.5 0,-277.5 105,-277.5 105,-258.5 0,-258.5"/>
<text text-anchor="middle" x="52.5" y="-265.5" font-family="Helvetica,sans-Serif" font-size="10.00">pdal::PointContainer</text>
</a>
</g>
</g>
<!-- Node4&#45;&gt;Node3 -->
<g id="edge3" class="edge"><title>Node4&#45;&gt;Node3</title>
<path fill="none" stroke="midnightblue" d="M54.0517,-248.067C56.0886,-231.904 60.7725,-208.557 71.5,-191 84.0474,-170.464 106.563,-153.377 121.266,-143.671"/>
<polygon fill="midnightblue" stroke="midnightblue" points="50.5324,-248.074 52.9877,-258.38 57.4955,-248.792 50.5324,-248.074"/>
</g>
<!-- Node6 -->
<g id="node6" class="node"><title>Node6</title>
<g id="a_node6"><a xlink:href="classpdal_1_1BasePointTable.html" target="_top" xlink:title="pdal::BasePointTable">
<polygon fill="white" stroke="black" points="80.5,-191.5 80.5,-210.5 190.5,-210.5 190.5,-191.5 80.5,-191.5"/>
<text text-anchor="middle" x="135.5" y="-198.5" font-family="Helvetica,sans-Serif" font-size="10.00">pdal::BasePointTable</text>
</a>
</g>
</g>
<!-- Node4&#45;&gt;Node6 -->
<g id="edge6" class="edge"><title>Node4&#45;&gt;Node6</title>
<path fill="none" stroke="midnightblue" d="M71.5673,-252.068C87.9504,-239.238 111.002,-221.185 124.484,-210.627"/>
<polygon fill="midnightblue" stroke="midnightblue" points="69.4088,-249.313 63.6937,-258.234 73.7248,-254.824 69.4088,-249.313"/>
</g>
<!-- Node5 -->
<g id="node5" class="node"><title>Node5</title>
<g id="a_node5"><a xlink:href="classpdal_1_1SpatialReference.html" target="_top" xlink:title="pdal::SpatialReference">
<polygon fill="white" stroke="black" points="208.5,-191.5 208.5,-210.5 324.5,-210.5 324.5,-191.5 208.5,-191.5"/>
<text text-anchor="middle" x="266.5" y="-198.5" font-family="Helvetica,sans-Serif" font-size="10.00">pdal::SpatialReference</text>
</a>
</g>
</g>
<!-- Node5&#45;&gt;Node3 -->
<g id="edge4" class="edge"><title>Node5&#45;&gt;Node3</title>
<path fill="none" stroke="#9a32cd" stroke-dasharray="5,2" d="M244.162,-185.891C231.817,-178.363 216.07,-169.195 201.5,-162 187.624,-155.148 171.564,-148.55 158.76,-143.592"/>
<polygon fill="#9a32cd" stroke="#9a32cd" points="242.517,-188.988 252.864,-191.268 246.197,-183.034 242.517,-188.988"/>
<text text-anchor="middle" x="268" y="-165" font-family="Helvetica,sans-Serif" font-size="10.00"> m_spatialReference</text>
</g>
<!-- Node6&#45;&gt;Node3 -->
<g id="edge5" class="edge"><title>Node6&#45;&gt;Node3</title>
<path fill="none" stroke="#9a32cd" stroke-dasharray="5,2" d="M135.5,-181.037C135.5,-168.67 135.5,-153.12 135.5,-143.627"/>
<polygon fill="#9a32cd" stroke="#9a32cd" points="132,-181.234 135.5,-191.234 139,-181.234 132,-181.234"/>
<text text-anchor="middle" x="166.5" y="-165" font-family="Helvetica,sans-Serif" font-size="10.00"> m_pointTable</text>
</g>
<!-- Node7 -->
<g id="node7" class="node"><title>Node7</title>
<g id="a_node7"><a xlink:href="classpdal_1_1PointLayout.html" target="_top" xlink:title="pdal::PointLayout">
<polygon fill="white" stroke="black" points="123.5,-258.5 123.5,-277.5 215.5,-277.5 215.5,-258.5 123.5,-258.5"/>
<text text-anchor="middle" x="169.5" y="-265.5" font-family="Helvetica,sans-Serif" font-size="10.00">pdal::PointLayout</text>
</a>
</g>
</g>
<!-- Node7&#45;&gt;Node6 -->
<g id="edge7" class="edge"><title>Node7&#45;&gt;Node6</title>
<path fill="none" stroke="#9a32cd" stroke-dasharray="5,2" d="M160.17,-249.163C153.613,-236.628 145.13,-220.41 140.013,-210.627"/>
<polygon fill="#9a32cd" stroke="#9a32cd" points="157.178,-250.995 164.915,-258.234 163.381,-247.751 157.178,-250.995"/>
<text text-anchor="middle" x="185" y="-232" font-family="Helvetica,sans-Serif" font-size="10.00"> m_layoutRef</text>
</g>
</g>
</svg>
