<?xml version="1.0" encoding="UTF-8" standalone="no"?>
<!DOCTYPE svg PUBLIC "-//W3C//DTD SVG 1.1//EN"
 "http://www.w3.org/Graphics/SVG/1.1/DTD/svg11.dtd">
<!-- Generated by graphviz version 2.38.0 (20140413.2041)
 -->
<!-- Title: pdal::StageWrapper::ready Pages: 1 -->
<svg width="347pt" height="126pt"
 viewBox="0.00 0.00 347.00 126.00" xmlns="http://www.w3.org/2000/svg" xmlns:xlink="http://www.w3.org/1999/xlink">
<g id="graph0" class="graph" transform="scale(1 1) rotate(0) translate(4 122)">
<title>pdal::StageWrapper::ready</title>
<polygon fill="white" stroke="none" points="-4,4 -4,-122 343,-122 343,4 -4,4"/>
<!-- Node1 -->
<g id="node1" class="node"><title>Node1</title>
<polygon fill="#bfbfbf" stroke="black" points="0,-33 0,-63 103,-63 103,-33 0,-33"/>
<text text-anchor="start" x="8" y="-51" font-family="Helvetica,sans-Serif" font-size="10.00">pdal::StageWrapper</text>
<text text-anchor="middle" x="51.5" y="-40" font-family="Helvetica,sans-Serif" font-size="10.00">::ready</text>
</g>
<!-- Node2 -->
<g id="node2" class="node"><title>Node2</title>
<g id="a_node2"><a xlink:href="namespaceanonymous__namespace_02SortFilterTest_8cpp_03.html#a4dd665dd162481d153ad54779b8e970b" target="_top" xlink:title="anonymous_namespace\l\{SortFilterTest::cpp\}\l::doSort">
<polygon fill="white" stroke="black" points="139,-76.5 139,-117.5 261,-117.5 261,-76.5 139,-76.5"/>
<text text-anchor="start" x="147" y="-105.5" font-family="Helvetica,sans-Serif" font-size="10.00">anonymous_namespace</text>
<text text-anchor="start" x="147" y="-94.5" font-family="Helvetica,sans-Serif" font-size="10.00">{SortFilterTest::cpp}</text>
<text text-anchor="middle" x="200" y="-83.5" font-family="Helvetica,sans-Serif" font-size="10.00">::doSort</text>
</a>
</g>
</g>
<!-- Node1&#45;&gt;Node2 -->
<g id="edge1" class="edge"><title>Node1&#45;&gt;Node2</title>
<path fill="none" stroke="midnightblue" d="M107.335,-66.3408C117.633,-69.7852 128.45,-73.4032 138.898,-76.8978"/>
<polygon fill="midnightblue" stroke="midnightblue" points="108.244,-62.9542 97.6502,-63.1014 106.024,-69.5928 108.244,-62.9542"/>
</g>
<!-- Node4 -->
<g id="node4" class="node"><title>Node4</title>
<g id="a_node4"><a xlink:href="ChipperTest_8cpp.html#aadb7e2f0db96e8ee2f311a8a48b095bb" target="_top" xlink:title="TEST">
<polygon fill="white" stroke="black" points="179,-38.5 179,-57.5 221,-57.5 221,-38.5 179,-38.5"/>
<text text-anchor="middle" x="200" y="-45.5" font-family="Helvetica,sans-Serif" font-size="10.00">TEST</text>
</a>
</g>
</g>
<!-- Node1&#45;&gt;Node4 -->
<g id="edge3" class="edge"><title>Node1&#45;&gt;Node4</title>
<path fill="none" stroke="midnightblue" d="M113.538,-48C136.861,-48 161.883,-48 178.785,-48"/>
<polygon fill="midnightblue" stroke="midnightblue" points="113.327,-44.5001 103.327,-48 113.327,-51.5001 113.327,-44.5001"/>
</g>
<!-- Node5 -->
<g id="node5" class="node"><title>Node5</title>
<g id="a_node5"><a xlink:href="PythonFilterTest_8cpp.html#a7934cc436f5caaabbabb865a6293a7f8" target="_top" xlink:title="TEST_F">
<polygon fill="white" stroke="black" points="173.5,-0.5 173.5,-19.5 226.5,-19.5 226.5,-0.5 173.5,-0.5"/>
<text text-anchor="middle" x="200" y="-7.5" font-family="Helvetica,sans-Serif" font-size="10.00">TEST_F</text>
</a>
</g>
</g>
<!-- Node1&#45;&gt;Node5 -->
<g id="edge4" class="edge"><title>Node1&#45;&gt;Node5</title>
<path fill="none" stroke="midnightblue" d="M113.186,-32.2588C134.223,-26.8022 156.685,-20.9759 173.349,-16.6534"/>
<polygon fill="midnightblue" stroke="midnightblue" points="112.128,-28.9174 103.327,-34.8161 113.886,-35.6931 112.128,-28.9174"/>
</g>
<!-- Node3 -->
<g id="node3" class="node"><title>Node3</title>
<g id="a_node3"><a xlink:href="SortFilterTest_8cpp.html#afd1da29769e5d1e5e0b9cf3a0cfbf40d" target="_top" xlink:title="TEST">
<polygon fill="white" stroke="black" points="297,-87.5 297,-106.5 339,-106.5 339,-87.5 297,-87.5"/>
<text text-anchor="middle" x="318" y="-94.5" font-family="Helvetica,sans-Serif" font-size="10.00">TEST</text>
</a>
</g>
</g>
<!-- Node2&#45;&gt;Node3 -->
<g id="edge2" class="edge"><title>Node2&#45;&gt;Node3</title>
<path fill="none" stroke="midnightblue" d="M271.27,-97C280.584,-97 289.455,-97 296.863,-97"/>
<polygon fill="midnightblue" stroke="midnightblue" points="271.039,-93.5001 261.039,-97 271.039,-100.5 271.039,-93.5001"/>
</g>
</g>
</svg>
