<?xml version="1.0" encoding="UTF-8" standalone="no"?>
<!DOCTYPE svg PUBLIC "-//W3C//DTD SVG 1.1//EN"
 "http://www.w3.org/Graphics/SVG/1.1/DTD/svg11.dtd">
<!-- Generated by graphviz version 2.38.0 (20140413.2041)
 -->
<!-- Title: pdal::OverlayFilter::ready Pages: 1 -->
<svg width="253pt" height="39pt"
 viewBox="0.00 0.00 253.00 39.00" xmlns="http://www.w3.org/2000/svg" xmlns:xlink="http://www.w3.org/1999/xlink">
<g id="graph0" class="graph" transform="scale(1 1) rotate(0) translate(4 35)">
<title>pdal::OverlayFilter::ready</title>
<polygon fill="white" stroke="none" points="-4,4 -4,-35 249,-35 249,4 -4,4"/>
<!-- Node1 -->
<g id="node1" class="node"><title>Node1</title>
<polygon fill="#bfbfbf" stroke="black" points="0,-0.5 0,-30.5 96,-30.5 96,-0.5 0,-0.5"/>
<text text-anchor="start" x="8" y="-18.5" font-family="Helvetica,sans-Serif" font-size="10.00">pdal::OverlayFilter</text>
<text text-anchor="middle" x="48" y="-7.5" font-family="Helvetica,sans-Serif" font-size="10.00">::ready</text>
</g>
<!-- Node2 -->
<g id="node2" class="node"><title>Node2</title>
<g id="a_node2"><a xlink:href="classpdal_1_1BasePointTable.html#ac9e8a72e5ea52b6a280fb8b6ecf622ef" target="_top" xlink:title="pdal::BasePointTable\l::anySpatialReference">
<polygon fill="white" stroke="black" points="132,-0.5 132,-30.5 245,-30.5 245,-0.5 132,-0.5"/>
<text text-anchor="start" x="140" y="-18.5" font-family="Helvetica,sans-Serif" font-size="10.00">pdal::BasePointTable</text>
<text text-anchor="middle" x="188.5" y="-7.5" font-family="Helvetica,sans-Serif" font-size="10.00">::anySpatialReference</text>
</a>
</g>
</g>
<!-- Node1&#45;&gt;Node2 -->
<g id="edge1" class="edge"><title>Node1&#45;&gt;Node2</title>
<path fill="none" stroke="midnightblue" d="M96.2765,-15.5C104.5,-15.5 113.184,-15.5 121.796,-15.5"/>
<polygon fill="midnightblue" stroke="midnightblue" points="121.839,-19.0001 131.839,-15.5 121.839,-12.0001 121.839,-19.0001"/>
</g>
</g>
</svg>
