<?xml version="1.0" encoding="UTF-8" standalone="no"?>
<!DOCTYPE svg PUBLIC "-//W3C//DTD SVG 1.1//EN"
 "http://www.w3.org/Graphics/SVG/1.1/DTD/svg11.dtd">
<!-- Generated by graphviz version 2.38.0 (20140413.2041)
 -->
<!-- Title: pdal::entwine::Bounds::min Pages: 1 -->
<svg width="605pt" height="203pt"
 viewBox="0.00 0.00 605.00 202.50" xmlns="http://www.w3.org/2000/svg" xmlns:xlink="http://www.w3.org/1999/xlink">
<g id="graph0" class="graph" transform="scale(1 1) rotate(0) translate(4 198.5)">
<title>pdal::entwine::Bounds::min</title>
<polygon fill="white" stroke="none" points="-4,4 -4,-198.5 601,-198.5 601,4 -4,4"/>
<!-- Node1 -->
<g id="node1" class="node"><title>Node1</title>
<polygon fill="#bfbfbf" stroke="black" points="0,-76.5 0,-95.5 135,-95.5 135,-76.5 0,-76.5"/>
<text text-anchor="middle" x="67.5" y="-83.5" font-family="Helvetica,sans-Serif" font-size="10.00">pdal::entwine::Bounds::min</text>
</g>
<!-- Node2 -->
<g id="node2" class="node"><title>Node2</title>
<g id="a_node2"><a xlink:href="classpdal_1_1entwine_1_1Bounds.html#a46cd008276c19c20d0c01b2beaef5cd3" target="_top" xlink:title="pdal::entwine::Bounds\l::grow">
<polygon fill="white" stroke="black" points="178.5,-164 178.5,-194 291.5,-194 291.5,-164 178.5,-164"/>
<text text-anchor="start" x="186.5" y="-182" font-family="Helvetica,sans-Serif" font-size="10.00">pdal::entwine::Bounds</text>
<text text-anchor="middle" x="235" y="-171" font-family="Helvetica,sans-Serif" font-size="10.00">::grow</text>
</a>
</g>
</g>
<!-- Node1&#45;&gt;Node2 -->
<g id="edge1" class="edge"><title>Node1&#45;&gt;Node2</title>
<path fill="none" stroke="midnightblue" d="M88.9601,-101.831C109.052,-116.869 140.972,-139.435 171,-155 177.131,-158.178 183.782,-161.166 190.388,-163.883"/>
<polygon fill="midnightblue" stroke="midnightblue" points="90.9465,-98.9445 80.862,-95.6958 86.7195,-104.524 90.9465,-98.9445"/>
</g>
<!-- Node3 -->
<g id="node3" class="node"><title>Node3</title>
<g id="a_node3"><a xlink:href="classpdal_1_1entwine_1_1Bounds.html#a2ac435e7eec69b71d8b8ecb3a98b938e" target="_top" xlink:title="pdal::entwine::Bounds\l::intersection">
<polygon fill="white" stroke="black" points="178.5,-115 178.5,-145 291.5,-145 291.5,-115 178.5,-115"/>
<text text-anchor="start" x="186.5" y="-133" font-family="Helvetica,sans-Serif" font-size="10.00">pdal::entwine::Bounds</text>
<text text-anchor="middle" x="235" y="-122" font-family="Helvetica,sans-Serif" font-size="10.00">::intersection</text>
</a>
</g>
</g>
<!-- Node1&#45;&gt;Node3 -->
<g id="edge2" class="edge"><title>Node1&#45;&gt;Node3</title>
<path fill="none" stroke="midnightblue" d="M114.136,-98.1327C133.988,-103.411 157.435,-109.644 178.303,-115.192"/>
<polygon fill="midnightblue" stroke="midnightblue" points="114.975,-94.7343 104.411,-95.5473 113.176,-101.499 114.975,-94.7343"/>
</g>
<!-- Node4 -->
<g id="node4" class="node"><title>Node4</title>
<g id="a_node4"><a xlink:href="namespacepdal_1_1entwine.html#a0e121edf608aed244a8b7d7e322b05bd" target="_top" xlink:title="pdal::entwine::operator\&lt;\&lt;">
<polygon fill="white" stroke="black" points="171,-76.5 171,-95.5 299,-95.5 299,-76.5 171,-76.5"/>
<text text-anchor="middle" x="235" y="-83.5" font-family="Helvetica,sans-Serif" font-size="10.00">pdal::entwine::operator&lt;&lt;</text>
</a>
</g>
</g>
<!-- Node1&#45;&gt;Node4 -->
<g id="edge3" class="edge"><title>Node1&#45;&gt;Node4</title>
<path fill="none" stroke="midnightblue" d="M145.617,-86C154.096,-86 162.654,-86 170.933,-86"/>
<polygon fill="midnightblue" stroke="midnightblue" points="145.338,-82.5001 135.338,-86 145.338,-89.5001 145.338,-82.5001"/>
</g>
<!-- Node8 -->
<g id="node8" class="node"><title>Node8</title>
<g id="a_node8"><a xlink:href="classpdal_1_1entwine_1_1Bounds.html#a885aac2d965ca61c54c06386a86349e9" target="_top" xlink:title="pdal::entwine::Bounds\l::shrink">
<polygon fill="white" stroke="black" points="484,-32 484,-62 597,-62 597,-32 484,-32"/>
<text text-anchor="start" x="492" y="-50" font-family="Helvetica,sans-Serif" font-size="10.00">pdal::entwine::Bounds</text>
<text text-anchor="middle" x="540.5" y="-39" font-family="Helvetica,sans-Serif" font-size="10.00">::shrink</text>
</a>
</g>
</g>
<!-- Node1&#45;&gt;Node8 -->
<g id="edge9" class="edge"><title>Node1&#45;&gt;Node8</title>
<path fill="none" stroke="midnightblue" d="M122.898,-74.5666C138.379,-71.6807 155.3,-68.8732 171,-67 281.378,-53.8303 411.403,-49.3252 483.745,-47.7893"/>
<polygon fill="midnightblue" stroke="midnightblue" points="122.125,-71.1507 112.96,-76.4653 123.439,-78.0264 122.125,-71.1507"/>
</g>
<!-- Node9 -->
<g id="node9" class="node"><title>Node9</title>
<g id="a_node9"><a xlink:href="namespacepdal_1_1entwine.html#aa10afd558d04a9336013b45d7e8ef06c" target="_top" xlink:title="pdal::entwine::operator==">
<polygon fill="white" stroke="black" points="171,-0.5 171,-19.5 299,-19.5 299,-0.5 171,-0.5"/>
<text text-anchor="middle" x="235" y="-7.5" font-family="Helvetica,sans-Serif" font-size="10.00">pdal::entwine::operator==</text>
</a>
</g>
</g>
<!-- Node1&#45;&gt;Node9 -->
<g id="edge8" class="edge"><title>Node1&#45;&gt;Node9</title>
<path fill="none" stroke="midnightblue" d="M95.0316,-71.5663C115.51,-60.665 144.695,-45.6443 171,-34 182.666,-28.836 195.819,-23.7186 207.077,-19.5442"/>
<polygon fill="midnightblue" stroke="midnightblue" points="93.1632,-68.5967 86.0032,-76.4059 96.4704,-74.7662 93.1632,-68.5967"/>
</g>
<!-- Node5 -->
<g id="node5" class="node"><title>Node5</title>
<g id="a_node5"><a xlink:href="classpdal_1_1entwine_1_1Bounds.html#abba3dd337b171b5b24b309c184778e6f" target="_top" xlink:title="pdal::entwine::Bounds\l::setMid">
<polygon fill="white" stroke="black" points="335,-79 335,-109 448,-109 448,-79 335,-79"/>
<text text-anchor="start" x="343" y="-97" font-family="Helvetica,sans-Serif" font-size="10.00">pdal::entwine::Bounds</text>
<text text-anchor="middle" x="391.5" y="-86" font-family="Helvetica,sans-Serif" font-size="10.00">::setMid</text>
</a>
</g>
</g>
<!-- Node4&#45;&gt;Node5 -->
<g id="edge4" class="edge"><title>Node4&#45;&gt;Node5</title>
<path fill="none" stroke="midnightblue" d="M309.353,-89.7982C317.975,-90.2447 326.662,-90.6945 334.983,-91.1253"/>
<polygon fill="midnightblue" stroke="midnightblue" points="309.454,-86.2989 299.287,-89.277 309.092,-93.2895 309.454,-86.2989"/>
</g>
<!-- Node6 -->
<g id="node6" class="node"><title>Node6</title>
<g id="a_node6"><a xlink:href="classpdal_1_1entwine_1_1Bounds.html#a56e80a10564ab05d885123ee4ace66b7" target="_top" xlink:title="pdal::entwine::Bounds\l::Bounds">
<polygon fill="white" stroke="black" points="484,-130 484,-160 597,-160 597,-130 484,-130"/>
<text text-anchor="start" x="492" y="-148" font-family="Helvetica,sans-Serif" font-size="10.00">pdal::entwine::Bounds</text>
<text text-anchor="middle" x="540.5" y="-137" font-family="Helvetica,sans-Serif" font-size="10.00">::Bounds</text>
</a>
</g>
</g>
<!-- Node5&#45;&gt;Node6 -->
<g id="edge5" class="edge"><title>Node5&#45;&gt;Node6</title>
<path fill="none" stroke="midnightblue" d="M445.424,-112.361C462.104,-118.148 480.322,-124.469 496.246,-129.994"/>
<polygon fill="midnightblue" stroke="midnightblue" points="446.405,-108.997 435.81,-109.026 444.11,-115.61 446.405,-108.997"/>
</g>
<!-- Node7 -->
<g id="node7" class="node"><title>Node7</title>
<g id="a_node7"><a xlink:href="classpdal_1_1entwine_1_1Bounds.html#a3975245fc8e177de0fbe508fdadbe7f4" target="_top" xlink:title="pdal::entwine::Bounds\l::grow">
<polygon fill="white" stroke="black" points="484,-81 484,-111 597,-111 597,-81 484,-81"/>
<text text-anchor="start" x="492" y="-99" font-family="Helvetica,sans-Serif" font-size="10.00">pdal::entwine::Bounds</text>
<text text-anchor="middle" x="540.5" y="-88" font-family="Helvetica,sans-Serif" font-size="10.00">::grow</text>
</a>
</g>
</g>
<!-- Node5&#45;&gt;Node7 -->
<g id="edge6" class="edge"><title>Node5&#45;&gt;Node7</title>
<path fill="none" stroke="midnightblue" d="M458.078,-94.8922C466.681,-95.0093 475.43,-95.1283 483.847,-95.2428"/>
<polygon fill="midnightblue" stroke="midnightblue" points="458.121,-91.3926 448.074,-94.7561 458.026,-98.3919 458.121,-91.3926"/>
</g>
<!-- Node5&#45;&gt;Node8 -->
<g id="edge7" class="edge"><title>Node5&#45;&gt;Node8</title>
<path fill="none" stroke="midnightblue" d="M449.165,-75.8826C463.497,-71.3004 478.731,-66.4295 492.526,-62.019"/>
<polygon fill="midnightblue" stroke="midnightblue" points="447.875,-72.6205 439.416,-78.9997 450.007,-79.288 447.875,-72.6205"/>
</g>
</g>
</svg>
