<?xml version="1.0" encoding="UTF-8" standalone="no"?>
<!DOCTYPE svg PUBLIC "-//W3C//DTD SVG 1.1//EN"
 "http://www.w3.org/Graphics/SVG/1.1/DTD/svg11.dtd">
<!-- Generated by graphviz version 2.38.0 (20140413.2041)
 -->
<!-- Title: pdal::FlexWriter::validateFilename Pages: 1 -->
<svg width="954pt" height="192pt"
 viewBox="0.00 0.00 954.00 191.50" xmlns="http://www.w3.org/2000/svg" xmlns:xlink="http://www.w3.org/1999/xlink">
<g id="graph0" class="graph" transform="scale(1 1) rotate(0) translate(4 187.5)">
<title>pdal::FlexWriter::validateFilename</title>
<polygon fill="white" stroke="none" points="-4,4 -4,-187.5 950,-187.5 950,4 -4,4"/>
<!-- Node1 -->
<g id="node1" class="node"><title>Node1</title>
<polygon fill="#bfbfbf" stroke="black" points="0,-33 0,-63 125,-63 125,-33 0,-33"/>
<text text-anchor="start" x="8" y="-51" font-family="Helvetica,sans-Serif" font-size="10.00">pdal::FlexWriter::validate</text>
<text text-anchor="middle" x="62.5" y="-40" font-family="Helvetica,sans-Serif" font-size="10.00">Filename</text>
</g>
<!-- Node2 -->
<g id="node2" class="node"><title>Node2</title>
<g id="a_node2"><a xlink:href="classpdal_1_1BasePointTable.html#a82dcbafa29259989b24307186fbda54c" target="_top" xlink:title="pdal::BasePointTable\l::supportsView">
<polygon fill="white" stroke="black" points="161,-33 161,-63 271,-63 271,-33 161,-33"/>
<text text-anchor="start" x="169" y="-51" font-family="Helvetica,sans-Serif" font-size="10.00">pdal::BasePointTable</text>
<text text-anchor="middle" x="216" y="-40" font-family="Helvetica,sans-Serif" font-size="10.00">::supportsView</text>
</a>
</g>
</g>
<!-- Node1&#45;&gt;Node2 -->
<g id="edge1" class="edge"><title>Node1&#45;&gt;Node2</title>
<path fill="none" stroke="midnightblue" d="M125.121,-48C133.508,-48 142.134,-48 150.568,-48"/>
<polygon fill="midnightblue" stroke="midnightblue" points="150.733,-51.5001 160.733,-48 150.733,-44.5001 150.733,-51.5001"/>
</g>
<!-- Node3 -->
<g id="node3" class="node"><title>Node3</title>
<g id="a_node3"><a xlink:href="namespaceanonymous__namespace_02ReprojectionFilterTest_8cpp_03.html#a174ed1fffbad99a456e9263e21877754" target="_top" xlink:title="anonymous_namespace\l\{ReprojectionFilterTest\l::cpp\}::getPoint">
<polygon fill="white" stroke="black" points="307,-76.5 307,-117.5 429,-117.5 429,-76.5 307,-76.5"/>
<text text-anchor="start" x="315" y="-105.5" font-family="Helvetica,sans-Serif" font-size="10.00">anonymous_namespace</text>
<text text-anchor="start" x="315" y="-94.5" font-family="Helvetica,sans-Serif" font-size="10.00">{ReprojectionFilterTest</text>
<text text-anchor="middle" x="368" y="-83.5" font-family="Helvetica,sans-Serif" font-size="10.00">::cpp}::getPoint</text>
</a>
</g>
</g>
<!-- Node2&#45;&gt;Node3 -->
<g id="edge2" class="edge"><title>Node2&#45;&gt;Node3</title>
<path fill="none" stroke="midnightblue" d="M263.229,-63.1014C273.989,-66.6164 285.68,-70.4356 297.207,-74.201"/>
<polygon fill="midnightblue" stroke="midnightblue" points="296.234,-77.5651 306.827,-77.3433 298.408,-70.9111 296.234,-77.5651"/>
</g>
<!-- Node8 -->
<g id="node8" class="node"><title>Node8</title>
<g id="a_node8"><a xlink:href="namespacepdal_1_1Dimension.html#af3176b0b7e6b4be000317846cf7c2718" target="_top" xlink:title="pdal::Dimension::name">
<polygon fill="white" stroke="black" points="667.5,-38.5 667.5,-57.5 784.5,-57.5 784.5,-38.5 667.5,-38.5"/>
<text text-anchor="middle" x="726" y="-45.5" font-family="Helvetica,sans-Serif" font-size="10.00">pdal::Dimension::name</text>
</a>
</g>
</g>
<!-- Node2&#45;&gt;Node8 -->
<g id="edge9" class="edge"><title>Node2&#45;&gt;Node8</title>
<path fill="none" stroke="midnightblue" d="M271.365,-48C364.657,-48 555.013,-48 656.96,-48"/>
<polygon fill="midnightblue" stroke="midnightblue" points="657.143,-51.5001 667.143,-48 657.143,-44.5001 657.143,-51.5001"/>
</g>
<!-- Node10 -->
<g id="node10" class="node"><title>Node10</title>
<g id="a_node10"><a xlink:href="namespacepdal_1_1Utils.html#a6dc647c5dbaa51d1d78fc535a52210d3" target="_top" xlink:title="pdal::Utils::toMetadata">
<polygon fill="white" stroke="black" points="310,-0.5 310,-19.5 426,-19.5 426,-0.5 310,-0.5"/>
<text text-anchor="middle" x="368" y="-7.5" font-family="Helvetica,sans-Serif" font-size="10.00">pdal::Utils::toMetadata</text>
</a>
</g>
</g>
<!-- Node2&#45;&gt;Node10 -->
<g id="edge10" class="edge"><title>Node2&#45;&gt;Node10</title>
<path fill="none" stroke="midnightblue" d="M271.153,-34.2811C286.986,-30.2701 304.166,-25.9181 319.549,-22.0209"/>
<polygon fill="midnightblue" stroke="midnightblue" points="320.532,-25.3825 329.366,-19.5338 318.813,-18.5968 320.532,-25.3825"/>
</g>
<!-- Node4 -->
<g id="node4" class="node"><title>Node4</title>
<g id="a_node4"><a xlink:href="classpdal_1_1PointView.html#a4c594a6d2a469e594988194ccf125a15" target="_top" xlink:title="pdal::PointView::getFieldAs">
<polygon fill="white" stroke="black" points="465,-87.5 465,-106.5 602,-106.5 602,-87.5 465,-87.5"/>
<text text-anchor="middle" x="533.5" y="-94.5" font-family="Helvetica,sans-Serif" font-size="10.00">pdal::PointView::getFieldAs</text>
</a>
</g>
</g>
<!-- Node3&#45;&gt;Node4 -->
<g id="edge3" class="edge"><title>Node3&#45;&gt;Node4</title>
<path fill="none" stroke="midnightblue" d="M429.417,-97C437.63,-97 446.152,-97 454.619,-97"/>
<polygon fill="midnightblue" stroke="midnightblue" points="454.895,-100.5 464.895,-97 454.895,-93.5001 454.895,-100.5"/>
</g>
<!-- Node5 -->
<g id="node5" class="node"><title>Node5</title>
<g id="a_node5"><a xlink:href="classpdal_1_1Dimension_1_1Detail.html#adf5961976b7fce3d90a0dddd50519a7c" target="_top" xlink:title="pdal::Dimension::Detail\l::type">
<polygon fill="white" stroke="black" points="666.5,-153 666.5,-183 785.5,-183 785.5,-153 666.5,-153"/>
<text text-anchor="start" x="674.5" y="-171" font-family="Helvetica,sans-Serif" font-size="10.00">pdal::Dimension::Detail</text>
<text text-anchor="middle" x="726" y="-160" font-family="Helvetica,sans-Serif" font-size="10.00">::type</text>
</a>
</g>
</g>
<!-- Node4&#45;&gt;Node5 -->
<g id="edge4" class="edge"><title>Node4&#45;&gt;Node5</title>
<path fill="none" stroke="midnightblue" d="M554.008,-106.645C574.57,-116.579 608.066,-132.106 638,-143 644.701,-145.439 651.76,-147.798 658.839,-150.03"/>
<polygon fill="midnightblue" stroke="midnightblue" points="657.886,-153.399 668.473,-152.99 659.942,-146.707 657.886,-153.399"/>
</g>
<!-- Node6 -->
<g id="node6" class="node"><title>Node6</title>
<g id="a_node6"><a xlink:href="namespacepdal_1_1Utils.html#a33d614ac71aa03aaa5c10a242c4d14ac" target="_top" xlink:title="pdal::Utils::numericCast">
<polygon fill="white" stroke="black" points="665,-114.5 665,-133.5 787,-133.5 787,-114.5 665,-114.5"/>
<text text-anchor="middle" x="726" y="-121.5" font-family="Helvetica,sans-Serif" font-size="10.00">pdal::Utils::numericCast</text>
</a>
</g>
</g>
<!-- Node4&#45;&gt;Node6 -->
<g id="edge5" class="edge"><title>Node4&#45;&gt;Node6</title>
<path fill="none" stroke="midnightblue" d="M601.663,-106.519C618.856,-108.956 637.39,-111.583 654.734,-114.041"/>
<polygon fill="midnightblue" stroke="midnightblue" points="654.398,-117.528 664.79,-115.466 655.38,-110.598 654.398,-117.528"/>
</g>
<!-- Node4&#45;&gt;Node8 -->
<g id="edge7" class="edge"><title>Node4&#45;&gt;Node8</title>
<path fill="none" stroke="midnightblue" d="M565.602,-87.3936C586.076,-81.2164 613.52,-73.2135 638,-67 647.778,-64.5182 658.223,-62.0672 668.36,-59.7926"/>
<polygon fill="midnightblue" stroke="midnightblue" points="669.35,-63.1583 678.359,-57.5821 667.839,-56.3233 669.35,-63.1583"/>
</g>
<!-- Node9 -->
<g id="node9" class="node"><title>Node9</title>
<g id="a_node9"><a xlink:href="namespacepdal_1_1Dimension.html#acc41232ae1e707d6c928ffb9a56592d3" target="_top" xlink:title="pdal::Dimension::interpretationName">
<polygon fill="white" stroke="black" points="638,-76.5 638,-95.5 814,-95.5 814,-76.5 638,-76.5"/>
<text text-anchor="middle" x="726" y="-83.5" font-family="Helvetica,sans-Serif" font-size="10.00">pdal::Dimension::interpretationName</text>
</a>
</g>
</g>
<!-- Node4&#45;&gt;Node9 -->
<g id="edge8" class="edge"><title>Node4&#45;&gt;Node9</title>
<path fill="none" stroke="midnightblue" d="M602.2,-93.0908C610.501,-92.6115 619.108,-92.1145 627.737,-91.6162"/>
<polygon fill="midnightblue" stroke="midnightblue" points="628.078,-95.1024 637.86,-91.0317 627.675,-88.1141 628.078,-95.1024"/>
</g>
<!-- Node7 -->
<g id="node7" class="node"><title>Node7</title>
<g id="a_node7"><a xlink:href="namespacepdal_1_1Utils.html#a06833597f1fc4287966cfa0867128e59" target="_top" xlink:title="pdal::Utils::sround">
<polygon fill="white" stroke="black" points="850,-114.5 850,-133.5 946,-133.5 946,-114.5 850,-114.5"/>
<text text-anchor="middle" x="898" y="-121.5" font-family="Helvetica,sans-Serif" font-size="10.00">pdal::Utils::sround</text>
</a>
</g>
</g>
<!-- Node6&#45;&gt;Node7 -->
<g id="edge6" class="edge"><title>Node6&#45;&gt;Node7</title>
<path fill="none" stroke="midnightblue" d="M787.414,-124C804.406,-124 822.832,-124 839.641,-124"/>
<polygon fill="midnightblue" stroke="midnightblue" points="839.87,-127.5 849.87,-124 839.869,-120.5 839.87,-127.5"/>
</g>
<!-- Node11 -->
<g id="node11" class="node"><title>Node11</title>
<g id="a_node11"><a xlink:href="classpdal_1_1MetadataNode.html#af2c1c5d91f6ab47a804aa8a0a1b043c2" target="_top" xlink:title="pdal::MetadataNode::add">
<polygon fill="white" stroke="black" points="470.5,-0.5 470.5,-19.5 596.5,-19.5 596.5,-0.5 470.5,-0.5"/>
<text text-anchor="middle" x="533.5" y="-7.5" font-family="Helvetica,sans-Serif" font-size="10.00">pdal::MetadataNode::add</text>
</a>
</g>
</g>
<!-- Node10&#45;&gt;Node11 -->
<g id="edge11" class="edge"><title>Node10&#45;&gt;Node11</title>
<path fill="none" stroke="midnightblue" d="M426.184,-10C437.113,-10 448.686,-10 460.019,-10"/>
<polygon fill="midnightblue" stroke="midnightblue" points="460.334,-13.5001 470.334,-10 460.334,-6.5001 460.334,-13.5001"/>
</g>
</g>
</svg>
