<?xml version="1.0" encoding="UTF-8" standalone="no"?>
<!DOCTYPE svg PUBLIC "-//W3C//DTD SVG 1.1//EN"
 "http://www.w3.org/Graphics/SVG/1.1/DTD/svg11.dtd">
<!-- Generated by graphviz version 2.38.0 (20140413.2041)
 -->
<!-- Title: pdal::NitfFileWriter::initialize Pages: 1 -->
<svg width="273pt" height="78pt"
 viewBox="0.00 0.00 273.00 77.50" xmlns="http://www.w3.org/2000/svg" xmlns:xlink="http://www.w3.org/1999/xlink">
<g id="graph0" class="graph" transform="scale(1 1) rotate(0) translate(4 73.5)">
<title>pdal::NitfFileWriter::initialize</title>
<polygon fill="white" stroke="none" points="-4,4 -4,-73.5 269,-73.5 269,4 -4,4"/>
<!-- Node1 -->
<g id="node1" class="node"><title>Node1</title>
<polygon fill="#bfbfbf" stroke="black" points="0,-17 0,-47 98,-47 98,-17 0,-17"/>
<text text-anchor="start" x="8" y="-35" font-family="Helvetica,sans-Serif" font-size="10.00">pdal::NitfFileWriter</text>
<text text-anchor="middle" x="49" y="-24" font-family="Helvetica,sans-Serif" font-size="10.00">::initialize</text>
</g>
<!-- Node2 -->
<g id="node2" class="node"><title>Node2</title>
<g id="a_node2"><a xlink:href="classpdal_1_1nitfwrap_1_1NitfWrap.html#a507defc6c08af645c161ee875c58374a" target="_top" xlink:title="pdal::nitfwrap::NitfWrap\l::NitfWrap">
<polygon fill="white" stroke="black" points="139.5,-39 139.5,-69 259.5,-69 259.5,-39 139.5,-39"/>
<text text-anchor="start" x="147.5" y="-57" font-family="Helvetica,sans-Serif" font-size="10.00">pdal::nitfwrap::NitfWrap</text>
<text text-anchor="middle" x="199.5" y="-46" font-family="Helvetica,sans-Serif" font-size="10.00">::NitfWrap</text>
</a>
</g>
</g>
<!-- Node1&#45;&gt;Node2 -->
<g id="edge1" class="edge"><title>Node1&#45;&gt;Node2</title>
<path fill="none" stroke="midnightblue" d="M108.261,-40.6313C118.481,-42.1453 129.125,-43.7222 139.368,-45.2397"/>
<polygon fill="midnightblue" stroke="midnightblue" points="108.619,-37.1461 98.2137,-39.1428 107.593,-44.0706 108.619,-37.1461"/>
</g>
<!-- Node3 -->
<g id="node3" class="node"><title>Node3</title>
<g id="a_node3"><a xlink:href="classpdal_1_1NitfWriter.html#a2397db467ddcd777da2e2937303759d1" target="_top" xlink:title="pdal::NitfWriter::NitfWriter">
<polygon fill="white" stroke="black" points="134,-0.5 134,-19.5 265,-19.5 265,-0.5 134,-0.5"/>
<text text-anchor="middle" x="199.5" y="-7.5" font-family="Helvetica,sans-Serif" font-size="10.00">pdal::NitfWriter::NitfWriter</text>
</a>
</g>
</g>
<!-- Node1&#45;&gt;Node3 -->
<g id="edge2" class="edge"><title>Node1&#45;&gt;Node3</title>
<path fill="none" stroke="midnightblue" d="M108.13,-23.3882C116.72,-22.1156 125.612,-20.7982 134.317,-19.5086"/>
<polygon fill="midnightblue" stroke="midnightblue" points="107.593,-19.9294 98.2137,-24.8572 108.619,-26.8539 107.593,-19.9294"/>
</g>
</g>
</svg>
