<?xml version="1.0" encoding="UTF-8" standalone="no"?>
<!DOCTYPE svg PUBLIC "-//W3C//DTD SVG 1.1//EN"
 "http://www.w3.org/Graphics/SVG/1.1/DTD/svg11.dtd">
<!-- Generated by graphviz version 2.38.0 (20140413.2041)
 -->
<!-- Title: pdal::PointLayout::findProprietaryDim Pages: 1 -->
<svg width="755pt" height="1001pt"
 viewBox="0.00 0.00 755.00 1000.70" xmlns="http://www.w3.org/2000/svg" xmlns:xlink="http://www.w3.org/1999/xlink">
<g id="graph0" class="graph" transform="scale(1 1) rotate(0) translate(4 996.698)">
<title>pdal::PointLayout::findProprietaryDim</title>
<polygon fill="white" stroke="none" points="-4,4 -4,-996.698 751,-996.698 751,4 -4,4"/>
<!-- Node1 -->
<g id="node1" class="node"><title>Node1</title>
<polygon fill="#bfbfbf" stroke="black" points="0,-481 0,-511 98,-511 98,-481 0,-481"/>
<text text-anchor="start" x="8" y="-499" font-family="Helvetica,sans-Serif" font-size="10.00">pdal::PointLayout::</text>
<text text-anchor="middle" x="49" y="-488" font-family="Helvetica,sans-Serif" font-size="10.00">findProprietaryDim</text>
</g>
<!-- Node2 -->
<g id="node2" class="node"><title>Node2</title>
<g id="a_node2"><a xlink:href="classpdal_1_1PointLayout.html#a41955b0c316d4ae4d34eca8768be2ef9" target="_top" xlink:title="pdal::PointLayout::\lfinalized">
<polygon fill="white" stroke="black" points="486.5,-940 486.5,-970 584.5,-970 584.5,-940 486.5,-940"/>
<text text-anchor="start" x="494.5" y="-958" font-family="Helvetica,sans-Serif" font-size="10.00">pdal::PointLayout::</text>
<text text-anchor="middle" x="535.5" y="-947" font-family="Helvetica,sans-Serif" font-size="10.00">finalized</text>
</a>
</g>
</g>
<!-- Node1&#45;&gt;Node2 -->
<g id="edge1" class="edge"><title>Node1&#45;&gt;Node2</title>
<path fill="none" stroke="midnightblue" d="M53.1032,-521.214C64.7503,-603.547 114.057,-865.17 280,-969 346.398,-1010.54 442.642,-987.948 495.719,-970.046"/>
<polygon fill="midnightblue" stroke="midnightblue" points="56.5629,-520.68 51.755,-511.239 49.626,-521.617 56.5629,-520.68"/>
</g>
<!-- Node3 -->
<g id="node3" class="node"><title>Node3</title>
<g id="a_node3"><a xlink:href="classpdal_1_1PointLayout.html#a5a720db4e74a5412c1420b0d1eaacda7" target="_top" xlink:title="pdal::PointLayout::\lfindDim">
<polygon fill="white" stroke="black" points="140,-481 140,-511 238,-511 238,-481 140,-481"/>
<text text-anchor="start" x="148" y="-499" font-family="Helvetica,sans-Serif" font-size="10.00">pdal::PointLayout::</text>
<text text-anchor="middle" x="189" y="-488" font-family="Helvetica,sans-Serif" font-size="10.00">findDim</text>
</a>
</g>
</g>
<!-- Node1&#45;&gt;Node3 -->
<g id="edge2" class="edge"><title>Node1&#45;&gt;Node3</title>
<path fill="none" stroke="midnightblue" d="M108.592,-496C119.064,-496 129.863,-496 139.995,-496"/>
<polygon fill="midnightblue" stroke="midnightblue" points="108.266,-492.5 98.2657,-496 108.266,-499.5 108.266,-492.5"/>
</g>
<!-- Node33 -->
<g id="node33" class="node"><title>Node33</title>
<g id="a_node33"><a xlink:href="classpdal_1_1MyReader.html#a57105fe5414522b13e446aead08942a9" target="_top" xlink:title="pdal::MyReader::read">
<polygon fill="white" stroke="black" points="134,-442.5 134,-461.5 244,-461.5 244,-442.5 134,-442.5"/>
<text text-anchor="middle" x="189" y="-449.5" font-family="Helvetica,sans-Serif" font-size="10.00">pdal::MyReader::read</text>
</a>
</g>
</g>
<!-- Node1&#45;&gt;Node33 -->
<g id="edge35" class="edge"><title>Node1&#45;&gt;Node33</title>
<path fill="none" stroke="midnightblue" d="M106.722,-477.915C124.289,-472.314 142.952,-466.363 157.959,-461.578"/>
<polygon fill="midnightblue" stroke="midnightblue" points="105.57,-474.608 97.1058,-480.981 107.696,-481.278 105.57,-474.608"/>
</g>
<!-- Node3&#45;&gt;Node2 -->
<g id="edge4" class="edge"><title>Node3&#45;&gt;Node2</title>
<path fill="none" stroke="midnightblue" d="M191.306,-521.324C196.261,-606.511 216.922,-880.478 280,-936 336.373,-985.62 429.666,-977.862 486.275,-966.954"/>
<polygon fill="midnightblue" stroke="midnightblue" points="194.796,-521.033 190.743,-511.244 187.806,-521.424 194.796,-521.033"/>
</g>
<!-- Node4 -->
<g id="node4" class="node"><title>Node4</title>
<g id="a_node4"><a xlink:href="classGDALReaderTypeTest.html#a7ccb2f33deda3d1840509c81f3718ca8" target="_top" xlink:title="GDALReaderTypeTest\l::compare">
<polygon fill="white" stroke="black" points="300,-896 300,-926 416,-926 416,-896 300,-896"/>
<text text-anchor="start" x="308" y="-914" font-family="Helvetica,sans-Serif" font-size="10.00">GDALReaderTypeTest</text>
<text text-anchor="middle" x="358" y="-903" font-family="Helvetica,sans-Serif" font-size="10.00">::compare</text>
</a>
</g>
</g>
<!-- Node3&#45;&gt;Node4 -->
<g id="edge3" class="edge"><title>Node3&#45;&gt;Node4</title>
<path fill="none" stroke="midnightblue" d="M192.606,-521.804C201.006,-600.086 229.792,-832.828 280,-887 285.521,-892.956 292.492,-897.446 299.974,-900.827"/>
<polygon fill="midnightblue" stroke="midnightblue" points="196.04,-520.994 191.514,-511.415 189.078,-521.726 196.04,-520.994"/>
</g>
<!-- Node5 -->
<g id="node5" class="node"><title>Node5</title>
<g id="a_node5"><a xlink:href="classpdal_1_1PointLayout.html#ab4aae22c6b219962f56e0d316e7cadf8" target="_top" xlink:title="pdal::PointLayout::\lfindDimType">
<polygon fill="white" stroke="black" points="309,-847 309,-877 407,-877 407,-847 309,-847"/>
<text text-anchor="start" x="317" y="-865" font-family="Helvetica,sans-Serif" font-size="10.00">pdal::PointLayout::</text>
<text text-anchor="middle" x="358" y="-854" font-family="Helvetica,sans-Serif" font-size="10.00">findDimType</text>
</a>
</g>
</g>
<!-- Node3&#45;&gt;Node5 -->
<g id="edge5" class="edge"><title>Node3&#45;&gt;Node5</title>
<path fill="none" stroke="midnightblue" d="M193.459,-521.352C203.64,-592.447 235.596,-791.56 280,-838 287.741,-846.096 298.164,-851.476 308.836,-855.047"/>
<polygon fill="midnightblue" stroke="midnightblue" points="196.873,-520.498 192.013,-511.083 189.942,-521.474 196.873,-520.498"/>
</g>
<!-- Node7 -->
<g id="node7" class="node"><title>Node7</title>
<g id="a_node7"><a xlink:href="classpdal_1_1BpfWriter.html#a9f5fb35cec2cfa9043a3c89977c78614" target="_top" xlink:title="pdal::BpfWriter::loadBpf\lDimensions">
<polygon fill="white" stroke="black" points="297.5,-798 297.5,-828 418.5,-828 418.5,-798 297.5,-798"/>
<text text-anchor="start" x="305.5" y="-816" font-family="Helvetica,sans-Serif" font-size="10.00">pdal::BpfWriter::loadBpf</text>
<text text-anchor="middle" x="358" y="-805" font-family="Helvetica,sans-Serif" font-size="10.00">Dimensions</text>
</a>
</g>
</g>
<!-- Node3&#45;&gt;Node7 -->
<g id="edge8" class="edge"><title>Node3&#45;&gt;Node7</title>
<path fill="none" stroke="midnightblue" d="M190.264,-521.365C192.252,-577.601 205.017,-713.707 280,-789 284.94,-793.961 290.888,-797.899 297.262,-801.026"/>
<polygon fill="midnightblue" stroke="midnightblue" points="193.759,-521.129 189.995,-511.225 186.762,-521.314 193.759,-521.129"/>
</g>
<!-- Node9 -->
<g id="node9" class="node"><title>Node9</title>
<g id="a_node9"><a xlink:href="classpdal_1_1AssignFilter.html#ac8c6082d05ebfa787e611b836b26c15d" target="_top" xlink:title="pdal::AssignFilter\l::prepared">
<polygon fill="white" stroke="black" points="312,-749 312,-779 404,-779 404,-749 312,-749"/>
<text text-anchor="start" x="320" y="-767" font-family="Helvetica,sans-Serif" font-size="10.00">pdal::AssignFilter</text>
<text text-anchor="middle" x="358" y="-756" font-family="Helvetica,sans-Serif" font-size="10.00">::prepared</text>
</a>
</g>
</g>
<!-- Node3&#45;&gt;Node9 -->
<g id="edge10" class="edge"><title>Node3&#45;&gt;Node9</title>
<path fill="none" stroke="midnightblue" d="M192.08,-521.155C197.496,-570.31 216.397,-679.574 280,-740 288.73,-748.294 300.285,-753.724 311.78,-757.278"/>
<polygon fill="midnightblue" stroke="midnightblue" points="195.55,-520.682 191.069,-511.081 188.585,-521.381 195.55,-520.682"/>
</g>
<!-- Node10 -->
<g id="node10" class="node"><title>Node10</title>
<g id="a_node10"><a xlink:href="classpdal_1_1MatlabWriter.html#a3d3313fd65d477c292798d86418e5b72" target="_top" xlink:title="pdal::MatlabWriter\l::prepared">
<polygon fill="white" stroke="black" points="310,-700 310,-730 406,-730 406,-700 310,-700"/>
<text text-anchor="start" x="318" y="-718" font-family="Helvetica,sans-Serif" font-size="10.00">pdal::MatlabWriter</text>
<text text-anchor="middle" x="358" y="-707" font-family="Helvetica,sans-Serif" font-size="10.00">::prepared</text>
</a>
</g>
</g>
<!-- Node3&#45;&gt;Node10 -->
<g id="edge11" class="edge"><title>Node3&#45;&gt;Node10</title>
<path fill="none" stroke="midnightblue" d="M194.863,-521.078C204.136,-562.234 228.221,-644.11 280,-690 288.415,-697.458 299.09,-702.696 309.791,-706.373"/>
<polygon fill="midnightblue" stroke="midnightblue" points="198.237,-520.121 192.722,-511.074 191.392,-521.585 198.237,-520.121"/>
</g>
<!-- Node11 -->
<g id="node11" class="node"><title>Node11</title>
<g id="a_node11"><a xlink:href="classpdal_1_1GDALWriter.html#a2366d4db69778dbadad9b61120dcbd90" target="_top" xlink:title="pdal::GDALWriter::prepared">
<polygon fill="white" stroke="black" points="289.5,-661.5 289.5,-680.5 426.5,-680.5 426.5,-661.5 289.5,-661.5"/>
<text text-anchor="middle" x="358" y="-668.5" font-family="Helvetica,sans-Serif" font-size="10.00">pdal::GDALWriter::prepared</text>
</a>
</g>
</g>
<!-- Node3&#45;&gt;Node11 -->
<g id="edge12" class="edge"><title>Node3&#45;&gt;Node11</title>
<path fill="none" stroke="midnightblue" d="M197.48,-520.994C209.225,-555.826 235.383,-618.452 280,-652 285.172,-655.889 291.041,-658.991 297.176,-661.463"/>
<polygon fill="midnightblue" stroke="midnightblue" points="200.7,-519.578 194.293,-511.14 194.04,-521.732 200.7,-519.578"/>
</g>
<!-- Node12 -->
<g id="node12" class="node"><title>Node12</title>
<g id="a_node12"><a xlink:href="classpdal_1_1PlyWriter.html#acab9a311bcabba9a9b8bf4cef5fe6c3e" target="_top" xlink:title="pdal::PlyWriter::prepared">
<polygon fill="white" stroke="black" points="295.5,-623.5 295.5,-642.5 420.5,-642.5 420.5,-623.5 295.5,-623.5"/>
<text text-anchor="middle" x="358" y="-630.5" font-family="Helvetica,sans-Serif" font-size="10.00">pdal::PlyWriter::prepared</text>
</a>
</g>
</g>
<!-- Node3&#45;&gt;Node12 -->
<g id="edge13" class="edge"><title>Node3&#45;&gt;Node12</title>
<path fill="none" stroke="midnightblue" d="M202.144,-520.533C216.833,-547.609 244.12,-590.464 280,-614 285.872,-617.852 292.46,-620.923 299.246,-623.371"/>
<polygon fill="midnightblue" stroke="midnightblue" points="205.061,-518.56 197.31,-511.337 198.865,-521.817 205.061,-518.56"/>
</g>
<!-- Node13 -->
<g id="node13" class="node"><title>Node13</title>
<g id="a_node13"><a xlink:href="classpdal_1_1RangeFilter.html#a8aa4cfed6fe510908d7c9993311e8328" target="_top" xlink:title="pdal::RangeFilter::\lprepared">
<polygon fill="white" stroke="black" points="309.5,-574 309.5,-604 406.5,-604 406.5,-574 309.5,-574"/>
<text text-anchor="start" x="317.5" y="-592" font-family="Helvetica,sans-Serif" font-size="10.00">pdal::RangeFilter::</text>
<text text-anchor="middle" x="358" y="-581" font-family="Helvetica,sans-Serif" font-size="10.00">prepared</text>
</a>
</g>
</g>
<!-- Node3&#45;&gt;Node13 -->
<g id="edge14" class="edge"><title>Node3&#45;&gt;Node13</title>
<path fill="none" stroke="midnightblue" d="M213.906,-518.103C231.18,-533.087 255.663,-552.388 280,-565 289.076,-569.703 299.236,-573.675 309.126,-576.951"/>
<polygon fill="midnightblue" stroke="midnightblue" points="215.846,-515.146 206.038,-511.141 211.208,-520.389 215.846,-515.146"/>
</g>
<!-- Node14 -->
<g id="node14" class="node"><title>Node14</title>
<g id="a_node14"><a xlink:href="classpdal_1_1FerryFilter.html#a66baa704e52d26052fa36e4fbd7cb71c" target="_top" xlink:title="pdal::FerryFilter::\lprepared">
<polygon fill="white" stroke="black" points="312.5,-525 312.5,-555 403.5,-555 403.5,-525 312.5,-525"/>
<text text-anchor="start" x="320.5" y="-543" font-family="Helvetica,sans-Serif" font-size="10.00">pdal::FerryFilter::</text>
<text text-anchor="middle" x="358" y="-532" font-family="Helvetica,sans-Serif" font-size="10.00">prepared</text>
</a>
</g>
</g>
<!-- Node3&#45;&gt;Node14 -->
<g id="edge15" class="edge"><title>Node3&#45;&gt;Node14</title>
<path fill="none" stroke="midnightblue" d="M248.092,-511.306C269.122,-516.847 292.529,-523.014 312.237,-528.206"/>
<polygon fill="midnightblue" stroke="midnightblue" points="248.865,-507.89 238.303,-508.727 247.082,-514.659 248.865,-507.89"/>
</g>
<!-- Node15 -->
<g id="node15" class="node"><title>Node15</title>
<g id="a_node15"><a xlink:href="classpdal_1_1SMRFilter.html#a8eff8ae7994dad8a7176d2fd2220a178" target="_top" xlink:title="pdal::SMRFilter::prepared">
<polygon fill="white" stroke="black" points="294,-486.5 294,-505.5 422,-505.5 422,-486.5 294,-486.5"/>
<text text-anchor="middle" x="358" y="-493.5" font-family="Helvetica,sans-Serif" font-size="10.00">pdal::SMRFilter::prepared</text>
</a>
</g>
</g>
<!-- Node3&#45;&gt;Node15 -->
<g id="edge16" class="edge"><title>Node3&#45;&gt;Node15</title>
<path fill="none" stroke="midnightblue" d="M248.718,-496C263.331,-496 279.057,-496 293.872,-496"/>
<polygon fill="midnightblue" stroke="midnightblue" points="248.303,-492.5 238.303,-496 248.303,-499.5 248.303,-492.5"/>
</g>
<!-- Node16 -->
<g id="node16" class="node"><title>Node16</title>
<g id="a_node16"><a xlink:href="classpdal_1_1SortFilter.html#ab91f2f6827c175d33ceaa667bcf872a5" target="_top" xlink:title="pdal::SortFilter::prepared">
<polygon fill="white" stroke="black" points="296,-448.5 296,-467.5 420,-467.5 420,-448.5 296,-448.5"/>
<text text-anchor="middle" x="358" y="-455.5" font-family="Helvetica,sans-Serif" font-size="10.00">pdal::SortFilter::prepared</text>
</a>
</g>
</g>
<!-- Node3&#45;&gt;Node16 -->
<g id="edge17" class="edge"><title>Node3&#45;&gt;Node16</title>
<path fill="none" stroke="midnightblue" d="M248.208,-482.755C270.215,-477.748 294.81,-472.151 315.041,-467.548"/>
<polygon fill="midnightblue" stroke="midnightblue" points="247.277,-479.377 238.303,-485.009 248.831,-486.203 247.277,-479.377"/>
</g>
<!-- Node17 -->
<g id="node17" class="node"><title>Node17</title>
<g id="a_node17"><a xlink:href="classpdal_1_1OverlayFilter.html#a3b5a11183229595db7f2f7906a9e69f3" target="_top" xlink:title="pdal::OverlayFilter\l::prepared">
<polygon fill="white" stroke="black" points="310,-399 310,-429 406,-429 406,-399 310,-399"/>
<text text-anchor="start" x="318" y="-417" font-family="Helvetica,sans-Serif" font-size="10.00">pdal::OverlayFilter</text>
<text text-anchor="middle" x="358" y="-406" font-family="Helvetica,sans-Serif" font-size="10.00">::prepared</text>
</a>
</g>
</g>
<!-- Node3&#45;&gt;Node17 -->
<g id="edge18" class="edge"><title>Node3&#45;&gt;Node17</title>
<path fill="none" stroke="midnightblue" d="M235.469,-476.158C238.409,-474.507 241.278,-472.784 244,-471 261.905,-459.266 261.425,-449.642 280,-439 289.146,-433.76 299.543,-429.444 309.671,-425.961"/>
<polygon fill="midnightblue" stroke="midnightblue" points="233.728,-473.119 226.516,-480.88 236.994,-479.31 233.728,-473.119"/>
</g>
<!-- Node18 -->
<g id="node18" class="node"><title>Node18</title>
<g id="a_node18"><a xlink:href="classpdal_1_1LasWriter.html#a12a07c613de24341d69fae93497a4cbc" target="_top" xlink:title="pdal::LasWriter::prepared">
<polygon fill="white" stroke="black" points="295,-360.5 295,-379.5 421,-379.5 421,-360.5 295,-360.5"/>
<text text-anchor="middle" x="358" y="-367.5" font-family="Helvetica,sans-Serif" font-size="10.00">pdal::LasWriter::prepared</text>
</a>
</g>
</g>
<!-- Node3&#45;&gt;Node18 -->
<g id="edge19" class="edge"><title>Node3&#45;&gt;Node18</title>
<path fill="none" stroke="midnightblue" d="M239.489,-475.088C241.075,-473.797 242.586,-472.435 244,-471 271.642,-442.93 249.954,-415.48 280,-390 285.056,-385.712 290.923,-382.329 297.12,-379.662"/>
<polygon fill="midnightblue" stroke="midnightblue" points="237.249,-472.382 231.04,-480.967 241.248,-478.128 237.249,-472.382"/>
</g>
<!-- Node19 -->
<g id="node19" class="node"><title>Node19</title>
<g id="a_node19"><a xlink:href="classpdal_1_1Ilvis2Reader.html#a9a7d3810bb3b4d458435079c4bfd2890" target="_top" xlink:title="pdal::Ilvis2Reader\l::readPoint">
<polygon fill="white" stroke="black" points="310.5,-311 310.5,-341 405.5,-341 405.5,-311 310.5,-311"/>
<text text-anchor="start" x="318.5" y="-329" font-family="Helvetica,sans-Serif" font-size="10.00">pdal::Ilvis2Reader</text>
<text text-anchor="middle" x="358" y="-318" font-family="Helvetica,sans-Serif" font-size="10.00">::readPoint</text>
</a>
</g>
</g>
<!-- Node3&#45;&gt;Node19 -->
<g id="edge20" class="edge"><title>Node3&#45;&gt;Node19</title>
<path fill="none" stroke="midnightblue" d="M240.345,-474.753C241.636,-473.565 242.86,-472.315 244,-471 280.478,-428.931 241.072,-390.813 280,-351 288.156,-342.659 299.117,-337.099 310.207,-333.393"/>
<polygon fill="midnightblue" stroke="midnightblue" points="238.129,-472.041 232.317,-480.899 242.385,-477.599 238.129,-472.041"/>
</g>
<!-- Node22 -->
<g id="node22" class="node"><title>Node22</title>
<g id="a_node22"><a xlink:href="classpdal_1_1MyWriter.html#a4915f49a23012523d782349f5145946f" target="_top" xlink:title="pdal::MyWriter::ready">
<polygon fill="white" stroke="black" points="303,-272.5 303,-291.5 413,-291.5 413,-272.5 303,-272.5"/>
<text text-anchor="middle" x="358" y="-279.5" font-family="Helvetica,sans-Serif" font-size="10.00">pdal::MyWriter::ready</text>
</a>
</g>
</g>
<!-- Node3&#45;&gt;Node22 -->
<g id="edge23" class="edge"><title>Node3&#45;&gt;Node22</title>
<path fill="none" stroke="midnightblue" d="M240.898,-474.469C241.996,-473.367 243.034,-472.212 244,-471 292.138,-410.606 226.304,-356.511 280,-301 286.222,-294.567 294.249,-290.176 302.763,-287.205"/>
<polygon fill="midnightblue" stroke="midnightblue" points="238.439,-471.958 232.895,-480.987 242.859,-477.385 238.439,-471.958"/>
</g>
<!-- Node24 -->
<g id="node24" class="node"><title>Node24</title>
<g id="a_node24"><a xlink:href="classpdal_1_1TextWriter.html#ac1d9448dc94fc5272631b7066301e521" target="_top" xlink:title="pdal::TextWriter::ready">
<polygon fill="white" stroke="black" points="300,-234.5 300,-253.5 416,-253.5 416,-234.5 300,-234.5"/>
<text text-anchor="middle" x="358" y="-241.5" font-family="Helvetica,sans-Serif" font-size="10.00">pdal::TextWriter::ready</text>
</a>
</g>
</g>
<!-- Node3&#45;&gt;Node24 -->
<g id="edge25" class="edge"><title>Node3&#45;&gt;Node24</title>
<path fill="none" stroke="midnightblue" d="M241.026,-474.447C242.081,-473.352 243.077,-472.204 244,-471 301.098,-396.557 216.041,-331.638 280,-263 285.444,-257.157 292.374,-252.987 299.837,-250.031"/>
<polygon fill="midnightblue" stroke="midnightblue" points="238.715,-471.817 233.299,-480.922 243.211,-477.181 238.715,-471.817"/>
</g>
<!-- Node25 -->
<g id="node25" class="node"><title>Node25</title>
<g id="a_node25"><a xlink:href="FerryFilterTest_8cpp.html#a4cb9bb9f4f943839c8ef28a7effeb31f" target="_top" xlink:title="TEST">
<polygon fill="white" stroke="black" points="337,-196.5 337,-215.5 379,-215.5 379,-196.5 337,-196.5"/>
<text text-anchor="middle" x="358" y="-203.5" font-family="Helvetica,sans-Serif" font-size="10.00">TEST</text>
</a>
</g>
</g>
<!-- Node3&#45;&gt;Node25 -->
<g id="edge26" class="edge"><title>Node3&#45;&gt;Node25</title>
<path fill="none" stroke="midnightblue" d="M241.068,-474.479C242.111,-473.375 243.092,-472.216 244,-471 310.101,-382.454 205.73,-306.815 280,-225 294.252,-209.3 319.222,-205.613 336.857,-205.168"/>
<polygon fill="midnightblue" stroke="midnightblue" points="238.751,-471.854 233.4,-480.999 243.285,-477.187 238.751,-471.854"/>
</g>
<!-- Node26 -->
<g id="node26" class="node"><title>Node26</title>
<g id="a_node26"><a xlink:href="PythonFilterTest_8cpp.html#a4df16eb00252b52a772c4cfa9fc23e53" target="_top" xlink:title="TEST_F">
<polygon fill="white" stroke="black" points="331.5,-158.5 331.5,-177.5 384.5,-177.5 384.5,-158.5 331.5,-158.5"/>
<text text-anchor="middle" x="358" y="-165.5" font-family="Helvetica,sans-Serif" font-size="10.00">TEST_F</text>
</a>
</g>
</g>
<!-- Node3&#45;&gt;Node26 -->
<g id="edge27" class="edge"><title>Node3&#45;&gt;Node26</title>
<path fill="none" stroke="midnightblue" d="M241.466,-474.102C242.363,-473.112 243.211,-472.079 244,-471 319.128,-368.317 195.392,-282.024 280,-187 292.727,-172.706 314.334,-168.333 331.426,-167.321"/>
<polygon fill="midnightblue" stroke="midnightblue" points="238.95,-471.653 233.731,-480.874 243.561,-476.92 238.95,-471.653"/>
</g>
<!-- Node27 -->
<g id="node27" class="node"><title>Node27</title>
<g id="a_node27"><a xlink:href="namespaceanonymous__namespace_02ColorizationFilterTest_8cpp_03.html#a9ecba8dd0dc941d16a50be7a9a264b07" target="_top" xlink:title="anonymous_namespace\l\{ColorizationFilterTest\l::cpp\}::testFile">
<polygon fill="white" stroke="black" points="297,-98.5 297,-139.5 419,-139.5 419,-98.5 297,-98.5"/>
<text text-anchor="start" x="305" y="-127.5" font-family="Helvetica,sans-Serif" font-size="10.00">anonymous_namespace</text>
<text text-anchor="start" x="305" y="-116.5" font-family="Helvetica,sans-Serif" font-size="10.00">{ColorizationFilterTest</text>
<text text-anchor="middle" x="358" y="-105.5" font-family="Helvetica,sans-Serif" font-size="10.00">::cpp}::testFile</text>
</a>
</g>
</g>
<!-- Node3&#45;&gt;Node27 -->
<g id="edge28" class="edge"><title>Node3&#45;&gt;Node27</title>
<path fill="none" stroke="midnightblue" d="M241.487,-474.118C242.379,-473.123 243.219,-472.084 244,-471 328.171,-354.158 192.244,-263.174 280,-149 284.546,-143.085 290.423,-138.335 296.901,-134.521"/>
<polygon fill="midnightblue" stroke="midnightblue" points="238.968,-471.673 233.788,-480.916 243.601,-476.921 238.968,-471.673"/>
</g>
<!-- Node29 -->
<g id="node29" class="node"><title>Node29</title>
<g id="a_node29"><a xlink:href="namespaceanonymous__namespace_02ColorizationFilterTest_8cpp_03.html#a34ec954a3562386020f65ce3ad8d025e" target="_top" xlink:title="anonymous_namespace\l\{ColorizationFilterTest\l::cpp\}::testFileStreamed">
<polygon fill="white" stroke="black" points="297,-38.5 297,-79.5 419,-79.5 419,-38.5 297,-38.5"/>
<text text-anchor="start" x="305" y="-67.5" font-family="Helvetica,sans-Serif" font-size="10.00">anonymous_namespace</text>
<text text-anchor="start" x="305" y="-56.5" font-family="Helvetica,sans-Serif" font-size="10.00">{ColorizationFilterTest</text>
<text text-anchor="middle" x="358" y="-45.5" font-family="Helvetica,sans-Serif" font-size="10.00">::cpp}::testFileStreamed</text>
</a>
</g>
</g>
<!-- Node3&#45;&gt;Node29 -->
<g id="edge30" class="edge"><title>Node3&#45;&gt;Node29</title>
<path fill="none" stroke="midnightblue" d="M241.513,-474.136C242.397,-473.136 243.228,-472.091 244,-471 342.471,-331.774 177.257,-225.104 280,-89 284.495,-83.0457 290.341,-78.2726 296.803,-74.4464"/>
<polygon fill="midnightblue" stroke="midnightblue" points="238.99,-471.696 233.856,-480.964 243.649,-476.921 238.99,-471.696"/>
</g>
<!-- Node30 -->
<g id="node30" class="node"><title>Node30</title>
<g id="a_node30"><a xlink:href="classpdal_1_1DbReader.html#aae2016e35e785ac4cbeb5d6e513c1831" target="_top" xlink:title="pdal::DbReader::updateSchema">
<polygon fill="white" stroke="black" points="280,-0.5 280,-19.5 436,-19.5 436,-0.5 280,-0.5"/>
<text text-anchor="middle" x="358" y="-7.5" font-family="Helvetica,sans-Serif" font-size="10.00">pdal::DbReader::updateSchema</text>
</a>
</g>
</g>
<!-- Node3&#45;&gt;Node30 -->
<g id="edge32" class="edge"><title>Node3&#45;&gt;Node30</title>
<path fill="none" stroke="midnightblue" d="M241.532,-474.149C242.41,-473.145 243.235,-472.096 244,-471 300.393,-390.183 216.132,-104.05 280,-29 283.212,-25.225 287.044,-22.1361 291.257,-19.6148"/>
<polygon fill="midnightblue" stroke="midnightblue" points="239.007,-471.713 233.906,-480.999 243.684,-476.92 239.007,-471.713"/>
</g>
<!-- Node5&#45;&gt;Node2 -->
<g id="edge6" class="edge"><title>Node5&#45;&gt;Node2</title>
<path fill="none" stroke="midnightblue" d="M416.763,-878.714C423.364,-881.22 429.905,-883.987 436,-887 465.992,-901.825 497.218,-924.899 516.264,-939.982"/>
<polygon fill="midnightblue" stroke="midnightblue" points="417.688,-875.327 407.094,-875.23 415.316,-881.913 417.688,-875.327"/>
</g>
<!-- Node6 -->
<g id="node6" class="node"><title>Node6</title>
<g id="a_node6"><a xlink:href="classpdal_1_1DbWriter.html#a90b983486e91db14751cbbdfbdfdea6e" target="_top" xlink:title="pdal::DbWriter::prepared">
<polygon fill="white" stroke="black" points="474,-852.5 474,-871.5 597,-871.5 597,-852.5 474,-852.5"/>
<text text-anchor="middle" x="535.5" y="-859.5" font-family="Helvetica,sans-Serif" font-size="10.00">pdal::DbWriter::prepared</text>
</a>
</g>
</g>
<!-- Node5&#45;&gt;Node6 -->
<g id="edge7" class="edge"><title>Node5&#45;&gt;Node6</title>
<path fill="none" stroke="midnightblue" d="M417.521,-862C435.574,-862 455.49,-862 473.694,-862"/>
<polygon fill="midnightblue" stroke="midnightblue" points="417.421,-858.5 407.421,-862 417.421,-865.5 417.421,-858.5"/>
</g>
<!-- Node8 -->
<g id="node8" class="node"><title>Node8</title>
<g id="a_node8"><a xlink:href="classpdal_1_1BpfWriter.html#ad2fb4eb626abc606ea21719edfc72134" target="_top" xlink:title="pdal::BpfWriter::prepared">
<polygon fill="white" stroke="black" points="473,-803.5 473,-822.5 598,-822.5 598,-803.5 473,-803.5"/>
<text text-anchor="middle" x="535.5" y="-810.5" font-family="Helvetica,sans-Serif" font-size="10.00">pdal::BpfWriter::prepared</text>
</a>
</g>
</g>
<!-- Node7&#45;&gt;Node8 -->
<g id="edge9" class="edge"><title>Node7&#45;&gt;Node8</title>
<path fill="none" stroke="midnightblue" d="M429.251,-813C443.649,-813 458.701,-813 472.773,-813"/>
<polygon fill="midnightblue" stroke="midnightblue" points="428.906,-809.5 418.906,-813 428.906,-816.5 428.906,-809.5"/>
</g>
<!-- Node20 -->
<g id="node20" class="node"><title>Node20</title>
<g id="a_node20"><a xlink:href="classpdal_1_1Ilvis2Reader.html#ac396bea41b06d5528521dc48f2bf3f1b" target="_top" xlink:title="pdal::Ilvis2Reader\l::processOne">
<polygon fill="white" stroke="black" points="488,-311 488,-341 583,-341 583,-311 488,-311"/>
<text text-anchor="start" x="496" y="-329" font-family="Helvetica,sans-Serif" font-size="10.00">pdal::Ilvis2Reader</text>
<text text-anchor="middle" x="535.5" y="-318" font-family="Helvetica,sans-Serif" font-size="10.00">::processOne</text>
</a>
</g>
</g>
<!-- Node19&#45;&gt;Node20 -->
<g id="edge21" class="edge"><title>Node19&#45;&gt;Node20</title>
<path fill="none" stroke="midnightblue" d="M415.659,-326C438.937,-326 465.568,-326 487.712,-326"/>
<polygon fill="midnightblue" stroke="midnightblue" points="415.57,-322.5 405.57,-326 415.57,-329.5 415.57,-322.5"/>
</g>
<!-- Node21 -->
<g id="node21" class="node"><title>Node21</title>
<g id="a_node21"><a xlink:href="classpdal_1_1Ilvis2Reader.html#a36ad873f8bdb773ccd87a9b8d3127cde" target="_top" xlink:title="pdal::Ilvis2Reader\l::read">
<polygon fill="white" stroke="black" points="643.5,-311 643.5,-341 738.5,-341 738.5,-311 643.5,-311"/>
<text text-anchor="start" x="651.5" y="-329" font-family="Helvetica,sans-Serif" font-size="10.00">pdal::Ilvis2Reader</text>
<text text-anchor="middle" x="691" y="-318" font-family="Helvetica,sans-Serif" font-size="10.00">::read</text>
</a>
</g>
</g>
<!-- Node20&#45;&gt;Node21 -->
<g id="edge22" class="edge"><title>Node20&#45;&gt;Node21</title>
<path fill="none" stroke="midnightblue" d="M593.437,-326C609.892,-326 627.651,-326 643.398,-326"/>
<polygon fill="midnightblue" stroke="midnightblue" points="593.389,-322.5 583.389,-326 593.389,-329.5 593.389,-322.5"/>
</g>
<!-- Node23 -->
<g id="node23" class="node"><title>Node23</title>
<g id="a_node23"><a xlink:href="classpdal_1_1MyWriter.html#a7a1ec3d8ebe4b4602537edecf4a00e4b" target="_top" xlink:title="pdal::MyWriter::MyWriter">
<polygon fill="white" stroke="black" points="472.5,-272.5 472.5,-291.5 598.5,-291.5 598.5,-272.5 472.5,-272.5"/>
<text text-anchor="middle" x="535.5" y="-279.5" font-family="Helvetica,sans-Serif" font-size="10.00">pdal::MyWriter::MyWriter</text>
</a>
</g>
</g>
<!-- Node22&#45;&gt;Node23 -->
<g id="edge24" class="edge"><title>Node22&#45;&gt;Node23</title>
<path fill="none" stroke="midnightblue" d="M423.395,-282C439.361,-282 456.44,-282 472.299,-282"/>
<polygon fill="midnightblue" stroke="midnightblue" points="423.088,-278.5 413.088,-282 423.088,-285.5 423.088,-278.5"/>
</g>
<!-- Node28 -->
<g id="node28" class="node"><title>Node28</title>
<g id="a_node28"><a xlink:href="ColorizationFilterTest_8cpp.html#aea681c9f5ee6e7fbbb2d7411514ce122" target="_top" xlink:title="TEST">
<polygon fill="white" stroke="black" points="514.5,-79.5 514.5,-98.5 556.5,-98.5 556.5,-79.5 514.5,-79.5"/>
<text text-anchor="middle" x="535.5" y="-86.5" font-family="Helvetica,sans-Serif" font-size="10.00">TEST</text>
</a>
</g>
</g>
<!-- Node27&#45;&gt;Node28 -->
<g id="edge29" class="edge"><title>Node27&#45;&gt;Node28</title>
<path fill="none" stroke="midnightblue" d="M429.643,-106.924C460.25,-101.692 493.746,-95.9665 514.445,-92.4281"/>
<polygon fill="midnightblue" stroke="midnightblue" points="428.664,-103.541 419.397,-108.676 429.844,-110.441 428.664,-103.541"/>
</g>
<!-- Node29&#45;&gt;Node28 -->
<g id="edge31" class="edge"><title>Node29&#45;&gt;Node28</title>
<path fill="none" stroke="midnightblue" d="M429.643,-71.0758C460.25,-76.3078 493.746,-82.0335 514.445,-85.5719"/>
<polygon fill="midnightblue" stroke="midnightblue" points="429.844,-67.5594 419.397,-69.3243 428.664,-74.4593 429.844,-67.5594"/>
</g>
<!-- Node31 -->
<g id="node31" class="node"><title>Node31</title>
<g id="a_node31"><a xlink:href="classpdal_1_1OciReader.html#a037e27a09676d06f791f4b39945d7d8e" target="_top" xlink:title="pdal::OciReader::readOci">
<polygon fill="white" stroke="black" points="472,-0.5 472,-19.5 599,-19.5 599,-0.5 472,-0.5"/>
<text text-anchor="middle" x="535.5" y="-7.5" font-family="Helvetica,sans-Serif" font-size="10.00">pdal::OciReader::readOci</text>
</a>
</g>
</g>
<!-- Node30&#45;&gt;Node31 -->
<g id="edge33" class="edge"><title>Node30&#45;&gt;Node31</title>
<path fill="none" stroke="midnightblue" d="M446.362,-10C455.01,-10 463.663,-10 471.985,-10"/>
<polygon fill="midnightblue" stroke="midnightblue" points="446.232,-6.5001 436.232,-10 446.232,-13.5001 446.232,-6.5001"/>
</g>
<!-- Node32 -->
<g id="node32" class="node"><title>Node32</title>
<g id="a_node32"><a xlink:href="classpdal_1_1OciReader.html#ae697d44314c547c0e8458505c060448b" target="_top" xlink:title="pdal::OciReader::read">
<polygon fill="white" stroke="black" points="635,-0.5 635,-19.5 747,-19.5 747,-0.5 635,-0.5"/>
<text text-anchor="middle" x="691" y="-7.5" font-family="Helvetica,sans-Serif" font-size="10.00">pdal::OciReader::read</text>
</a>
</g>
</g>
<!-- Node31&#45;&gt;Node32 -->
<g id="edge34" class="edge"><title>Node31&#45;&gt;Node32</title>
<path fill="none" stroke="midnightblue" d="M609.378,-10C617.944,-10 626.575,-10 634.842,-10"/>
<polygon fill="midnightblue" stroke="midnightblue" points="609.377,-6.5001 599.377,-10 609.377,-13.5001 609.377,-6.5001"/>
</g>
</g>
</svg>
