<?xml version="1.0" encoding="UTF-8" standalone="no"?>
<!DOCTYPE svg PUBLIC "-//W3C//DTD SVG 1.1//EN"
 "http://www.w3.org/Graphics/SVG/1.1/DTD/svg11.dtd">
<!-- Generated by graphviz version 2.38.0 (20140413.2041)
 -->
<!-- Title: pdal::OverlayFilter::filter Pages: 1 -->
<svg width="567pt" height="104pt"
 viewBox="0.00 0.00 567.00 104.00" xmlns="http://www.w3.org/2000/svg" xmlns:xlink="http://www.w3.org/1999/xlink">
<g id="graph0" class="graph" transform="scale(1 1) rotate(0) translate(4 100)">
<title>pdal::OverlayFilter::filter</title>
<polygon fill="white" stroke="none" points="-4,4 -4,-100 563,-100 563,4 -4,4"/>
<!-- Node1 -->
<g id="node1" class="node"><title>Node1</title>
<polygon fill="#bfbfbf" stroke="black" points="0,-33 0,-63 96,-63 96,-33 0,-33"/>
<text text-anchor="start" x="8" y="-51" font-family="Helvetica,sans-Serif" font-size="10.00">pdal::OverlayFilter</text>
<text text-anchor="middle" x="48" y="-40" font-family="Helvetica,sans-Serif" font-size="10.00">::filter</text>
</g>
<!-- Node2 -->
<g id="node2" class="node"><title>Node2</title>
<g id="a_node2"><a xlink:href="classpdal_1_1QuadIndex.html#a4222870c5a1c7506698af0f5e538646d" target="_top" xlink:title="pdal::QuadIndex::getPoints">
<polygon fill="white" stroke="black" points="132,-76.5 132,-95.5 267,-95.5 267,-76.5 132,-76.5"/>
<text text-anchor="middle" x="199.5" y="-83.5" font-family="Helvetica,sans-Serif" font-size="10.00">pdal::QuadIndex::getPoints</text>
</a>
</g>
</g>
<!-- Node1&#45;&gt;Node2 -->
<g id="edge1" class="edge"><title>Node1&#45;&gt;Node2</title>
<path fill="none" stroke="midnightblue" d="M96.3027,-60.0234C113.751,-64.4585 133.517,-69.4825 150.984,-73.9223"/>
<polygon fill="midnightblue" stroke="midnightblue" points="150.414,-77.3886 160.968,-76.46 152.138,-70.6044 150.414,-77.3886"/>
</g>
<!-- Node3 -->
<g id="node3" class="node"><title>Node3</title>
<g id="a_node3"><a xlink:href="classpdal_1_1PointRef.html#ad482c3195126757878cac8358dc9dccc" target="_top" xlink:title="pdal::PointRef::setField">
<polygon fill="white" stroke="black" points="140,-38.5 140,-57.5 259,-57.5 259,-38.5 140,-38.5"/>
<text text-anchor="middle" x="199.5" y="-45.5" font-family="Helvetica,sans-Serif" font-size="10.00">pdal::PointRef::setField</text>
</a>
</g>
</g>
<!-- Node1&#45;&gt;Node3 -->
<g id="edge2" class="edge"><title>Node1&#45;&gt;Node3</title>
<path fill="none" stroke="midnightblue" d="M96.3027,-48C106.913,-48 118.38,-48 129.666,-48"/>
<polygon fill="midnightblue" stroke="midnightblue" points="129.95,-51.5001 139.95,-48 129.95,-44.5001 129.95,-51.5001"/>
</g>
<!-- Node8 -->
<g id="node8" class="node"><title>Node8</title>
<g id="a_node8"><a xlink:href="classpdal_1_1PointRef.html#af2252f383598b06c0756a6f0e9bad258" target="_top" xlink:title="pdal::PointRef::setPointId">
<polygon fill="white" stroke="black" points="135,-0.5 135,-19.5 264,-19.5 264,-0.5 135,-0.5"/>
<text text-anchor="middle" x="199.5" y="-7.5" font-family="Helvetica,sans-Serif" font-size="10.00">pdal::PointRef::setPointId</text>
</a>
</g>
</g>
<!-- Node1&#45;&gt;Node8 -->
<g id="edge7" class="edge"><title>Node1&#45;&gt;Node8</title>
<path fill="none" stroke="midnightblue" d="M96.3027,-35.9766C113.751,-31.5415 133.517,-26.5175 150.984,-22.0777"/>
<polygon fill="midnightblue" stroke="midnightblue" points="152.138,-25.3956 160.968,-19.54 150.414,-18.6114 152.138,-25.3956"/>
</g>
<!-- Node4 -->
<g id="node4" class="node"><title>Node4</title>
<g id="a_node4"><a xlink:href="namespacepdal_1_1Dimension.html#a880d689fed54aa3ded6f88c9e058c5d2" target="_top" xlink:title="pdal::Dimension::type">
<polygon fill="white" stroke="black" points="308,-57.5 308,-76.5 420,-76.5 420,-57.5 308,-57.5"/>
<text text-anchor="middle" x="364" y="-64.5" font-family="Helvetica,sans-Serif" font-size="10.00">pdal::Dimension::type</text>
</a>
</g>
</g>
<!-- Node3&#45;&gt;Node4 -->
<g id="edge3" class="edge"><title>Node3&#45;&gt;Node4</title>
<path fill="none" stroke="midnightblue" d="M259.166,-54.8594C271.72,-56.3272 285.054,-57.8864 297.836,-59.3808"/>
<polygon fill="midnightblue" stroke="midnightblue" points="297.604,-62.8774 307.942,-60.5625 298.417,-55.9248 297.604,-62.8774"/>
</g>
<!-- Node6 -->
<g id="node6" class="node"><title>Node6</title>
<g id="a_node6"><a xlink:href="namespacepdal_1_1Utils.html#a33d614ac71aa03aaa5c10a242c4d14ac" target="_top" xlink:title="pdal::Utils::numericCast">
<polygon fill="white" stroke="black" points="303,-19.5 303,-38.5 425,-38.5 425,-19.5 303,-19.5"/>
<text text-anchor="middle" x="364" y="-26.5" font-family="Helvetica,sans-Serif" font-size="10.00">pdal::Utils::numericCast</text>
</a>
</g>
</g>
<!-- Node3&#45;&gt;Node6 -->
<g id="edge5" class="edge"><title>Node3&#45;&gt;Node6</title>
<path fill="none" stroke="midnightblue" d="M259.166,-41.1406C270.024,-39.871 281.467,-38.5331 292.631,-37.2278"/>
<polygon fill="midnightblue" stroke="midnightblue" points="293.254,-40.6789 302.78,-36.0412 292.441,-33.7262 293.254,-40.6789"/>
</g>
<!-- Node5 -->
<g id="node5" class="node"><title>Node5</title>
<g id="a_node5"><a xlink:href="namespacepdal_1_1Utils.html#a5268937cf695835e55392f752dc02cb2" target="_top" xlink:title="pdal::Utils::tolower">
<polygon fill="white" stroke="black" points="461,-57.5 461,-76.5 559,-76.5 559,-57.5 461,-57.5"/>
<text text-anchor="middle" x="510" y="-64.5" font-family="Helvetica,sans-Serif" font-size="10.00">pdal::Utils::tolower</text>
</a>
</g>
</g>
<!-- Node4&#45;&gt;Node5 -->
<g id="edge4" class="edge"><title>Node4&#45;&gt;Node5</title>
<path fill="none" stroke="midnightblue" d="M420.262,-67C430.152,-67 440.487,-67 450.465,-67"/>
<polygon fill="midnightblue" stroke="midnightblue" points="450.7,-70.5001 460.7,-67 450.7,-63.5001 450.7,-70.5001"/>
</g>
<!-- Node7 -->
<g id="node7" class="node"><title>Node7</title>
<g id="a_node7"><a xlink:href="namespacepdal_1_1Utils.html#a06833597f1fc4287966cfa0867128e59" target="_top" xlink:title="pdal::Utils::sround">
<polygon fill="white" stroke="black" points="462,-19.5 462,-38.5 558,-38.5 558,-19.5 462,-19.5"/>
<text text-anchor="middle" x="510" y="-26.5" font-family="Helvetica,sans-Serif" font-size="10.00">pdal::Utils::sround</text>
</a>
</g>
</g>
<!-- Node6&#45;&gt;Node7 -->
<g id="edge6" class="edge"><title>Node6&#45;&gt;Node7</title>
<path fill="none" stroke="midnightblue" d="M425.235,-29C433.987,-29 442.977,-29 451.67,-29"/>
<polygon fill="midnightblue" stroke="midnightblue" points="451.706,-32.5001 461.706,-29 451.706,-25.5001 451.706,-32.5001"/>
</g>
</g>
</svg>
