<?xml version="1.0" encoding="UTF-8" standalone="no"?>
<!DOCTYPE svg PUBLIC "-//W3C//DTD SVG 1.1//EN"
 "http://www.w3.org/Graphics/SVG/1.1/DTD/svg11.dtd">
<!-- Generated by graphviz version 2.38.0 (20140413.2041)
 -->
<!-- Title: pdal::MetadataNodeImpl::setValue Pages: 1 -->
<svg width="427pt" height="61pt"
 viewBox="0.00 0.00 427.00 61.00" xmlns="http://www.w3.org/2000/svg" xmlns:xlink="http://www.w3.org/1999/xlink">
<g id="graph0" class="graph" transform="scale(1 1) rotate(0) translate(4 57)">
<title>pdal::MetadataNodeImpl::setValue</title>
<polygon fill="white" stroke="none" points="-4,4 -4,-57 423,-57 423,4 -4,4"/>
<!-- Node1 -->
<g id="node1" class="node"><title>Node1</title>
<polygon fill="#bfbfbf" stroke="black" points="0,-0.5 0,-30.5 123,-30.5 123,-0.5 0,-0.5"/>
<text text-anchor="start" x="8" y="-18.5" font-family="Helvetica,sans-Serif" font-size="10.00">pdal::MetadataNodeImpl</text>
<text text-anchor="middle" x="61.5" y="-7.5" font-family="Helvetica,sans-Serif" font-size="10.00">::setValue</text>
</g>
<!-- Node2 -->
<g id="node2" class="node"><title>Node2</title>
<g id="a_node2"><a xlink:href="classpdal_1_1MetadataNodeImpl.html#a40dcfb2a20f7f25f9e627eb61e10ee79" target="_top" xlink:title="pdal::MetadataNodeImpl\l::setValue">
<polygon fill="white" stroke="black" points="159,-22.5 159,-52.5 282,-52.5 282,-22.5 159,-22.5"/>
<text text-anchor="start" x="167" y="-40.5" font-family="Helvetica,sans-Serif" font-size="10.00">pdal::MetadataNodeImpl</text>
<text text-anchor="middle" x="220.5" y="-29.5" font-family="Helvetica,sans-Serif" font-size="10.00">::setValue</text>
</a>
</g>
</g>
<!-- Node1&#45;&gt;Node2 -->
<g id="edge1" class="edge"><title>Node1&#45;&gt;Node2</title>
<path fill="none" stroke="midnightblue" d="M123.2,-24.0058C131.635,-25.1877 140.359,-26.4102 148.955,-27.6147"/>
<polygon fill="midnightblue" stroke="midnightblue" points="148.572,-31.0952 158.961,-29.0168 149.544,-24.1629 148.572,-31.0952"/>
</g>
<!-- Node3 -->
<g id="node3" class="node"><title>Node3</title>
<g id="a_node3"><a xlink:href="namespacepdal_1_1Utils.html#a19dbb0a5ce84b6f60fea55cd54e674cf" target="_top" xlink:title="pdal::Utils::toString">
<polygon fill="white" stroke="black" points="318,-6 318,-25 419,-25 419,-6 318,-6"/>
<text text-anchor="middle" x="368.5" y="-13" font-family="Helvetica,sans-Serif" font-size="10.00">pdal::Utils::toString</text>
</a>
</g>
</g>
<!-- Node1&#45;&gt;Node3 -->
<g id="edge3" class="edge"><title>Node1&#45;&gt;Node3</title>
<path fill="none" stroke="midnightblue" d="M123.24,-14.0493C135.099,-13.8203 147.438,-13.6198 159,-13.5 213.664,-12.9336 227.337,-12.8608 282,-13.5 290.323,-13.5973 299.102,-13.748 307.737,-13.9239"/>
<polygon fill="midnightblue" stroke="midnightblue" points="307.698,-17.4237 317.771,-14.1403 307.849,-10.4254 307.698,-17.4237"/>
</g>
<!-- Node2&#45;&gt;Node3 -->
<g id="edge2" class="edge"><title>Node2&#45;&gt;Node3</title>
<path fill="none" stroke="midnightblue" d="M282.149,-28.3611C290.615,-27.0854 299.31,-25.7753 307.759,-24.5021"/>
<polygon fill="midnightblue" stroke="midnightblue" points="308.545,-27.9232 317.912,-22.9722 307.502,-21.0014 308.545,-27.9232"/>
</g>
</g>
</svg>
