<?xml version="1.0" encoding="UTF-8" standalone="no"?>
<!DOCTYPE svg PUBLIC "-//W3C//DTD SVG 1.1//EN"
 "http://www.w3.org/Graphics/SVG/1.1/DTD/svg11.dtd">
<!-- Generated by graphviz version 2.38.0 (20140413.2041)
 -->
<!-- Title: pdal::StatsFilter::getStats Pages: 1 -->
<svg width="258pt" height="78pt"
 viewBox="0.00 0.00 258.00 77.50" xmlns="http://www.w3.org/2000/svg" xmlns:xlink="http://www.w3.org/1999/xlink">
<g id="graph0" class="graph" transform="scale(1 1) rotate(0) translate(4 73.5)">
<title>pdal::StatsFilter::getStats</title>
<polygon fill="white" stroke="none" points="-4,4 -4,-73.5 254,-73.5 254,4 -4,4"/>
<!-- Node1 -->
<g id="node1" class="node"><title>Node1</title>
<polygon fill="#bfbfbf" stroke="black" points="0,-17 0,-47 92,-47 92,-17 0,-17"/>
<text text-anchor="start" x="8" y="-35" font-family="Helvetica,sans-Serif" font-size="10.00">pdal::StatsFilter::</text>
<text text-anchor="middle" x="46" y="-24" font-family="Helvetica,sans-Serif" font-size="10.00">getStats</text>
</g>
<!-- Node2 -->
<g id="node2" class="node"><title>Node2</title>
<g id="a_node2"><a xlink:href="namespaceanonymous__namespace_02BufferTest_8cpp_03.html#aa82a48c7e159e43f9c99511f10d16b3c" target="_top" xlink:title="anonymous_namespace\l\{BufferTest::cpp\}::TEST">
<polygon fill="white" stroke="black" points="128,-39 128,-69 250,-69 250,-39 128,-39"/>
<text text-anchor="start" x="136" y="-57" font-family="Helvetica,sans-Serif" font-size="10.00">anonymous_namespace</text>
<text text-anchor="middle" x="189" y="-46" font-family="Helvetica,sans-Serif" font-size="10.00">{BufferTest::cpp}::TEST</text>
</a>
</g>
</g>
<!-- Node1&#45;&gt;Node2 -->
<g id="edge1" class="edge"><title>Node1&#45;&gt;Node2</title>
<path fill="none" stroke="midnightblue" d="M102.15,-40.605C110.626,-41.9274 119.413,-43.2984 127.988,-44.6364"/>
<polygon fill="midnightblue" stroke="midnightblue" points="102.421,-37.105 92.001,-39.0214 101.342,-44.0213 102.421,-37.105"/>
</g>
<!-- Node3 -->
<g id="node3" class="node"><title>Node3</title>
<g id="a_node3"><a xlink:href="CropFilterTest_8cpp.html#aee3efdf57f5f6cdc49fd431472fa8dbb" target="_top" xlink:title="TEST">
<polygon fill="white" stroke="black" points="168,-0.5 168,-19.5 210,-19.5 210,-0.5 168,-0.5"/>
<text text-anchor="middle" x="189" y="-7.5" font-family="Helvetica,sans-Serif" font-size="10.00">TEST</text>
</a>
</g>
</g>
<!-- Node1&#45;&gt;Node3 -->
<g id="edge2" class="edge"><title>Node1&#45;&gt;Node3</title>
<path fill="none" stroke="midnightblue" d="M102.071,-23.4073C125.177,-19.8022 150.607,-15.8344 167.763,-13.1575"/>
<polygon fill="midnightblue" stroke="midnightblue" points="101.342,-19.9787 92.001,-24.9786 102.421,-26.895 101.342,-19.9787"/>
</g>
</g>
</svg>
