<?xml version="1.0" encoding="UTF-8" standalone="no"?>
<!DOCTYPE svg PUBLIC "-//W3C//DTD SVG 1.1//EN"
 "http://www.w3.org/Graphics/SVG/1.1/DTD/svg11.dtd">
<!-- Generated by graphviz version 2.38.0 (20140413.2041)
 -->
<!-- Title: pdal::OptechReader::initialize Pages: 1 -->
<svg width="854pt" height="154pt"
 viewBox="0.00 0.00 854.00 153.50" xmlns="http://www.w3.org/2000/svg" xmlns:xlink="http://www.w3.org/1999/xlink">
<g id="graph0" class="graph" transform="scale(1 1) rotate(0) translate(4 149.5)">
<title>pdal::OptechReader::initialize</title>
<polygon fill="white" stroke="none" points="-4,4 -4,-149.5 850,-149.5 850,4 -4,4"/>
<!-- Node1 -->
<g id="node1" class="node"><title>Node1</title>
<polygon fill="#bfbfbf" stroke="black" points="0,-52 0,-82 104,-82 104,-52 0,-52"/>
<text text-anchor="start" x="8" y="-70" font-family="Helvetica,sans-Serif" font-size="10.00">pdal::OptechReader</text>
<text text-anchor="middle" x="52" y="-59" font-family="Helvetica,sans-Serif" font-size="10.00">::initialize</text>
</g>
<!-- Node2 -->
<g id="node2" class="node"><title>Node2</title>
<g id="a_node2"><a xlink:href="namespacepdal.html#afc093d132f46a6d4e212d6ea0096faa0" target="_top" xlink:title="pdal::createOptechRotation\lMatrix">
<polygon fill="white" stroke="black" points="140,-115 140,-145 276,-145 276,-115 140,-115"/>
<text text-anchor="start" x="148" y="-133" font-family="Helvetica,sans-Serif" font-size="10.00">pdal::createOptechRotation</text>
<text text-anchor="middle" x="208" y="-122" font-family="Helvetica,sans-Serif" font-size="10.00">Matrix</text>
</a>
</g>
</g>
<!-- Node1&#45;&gt;Node2 -->
<g id="edge1" class="edge"><title>Node1&#45;&gt;Node2</title>
<path fill="none" stroke="midnightblue" d="M86.2831,-82.0461C102.415,-89.2082 122.124,-97.7672 140,-105 145.107,-107.066 150.457,-109.168 155.812,-111.229"/>
<polygon fill="midnightblue" stroke="midnightblue" points="154.813,-114.594 165.404,-114.882 157.304,-108.053 154.813,-114.594"/>
</g>
<!-- Node3 -->
<g id="node3" class="node"><title>Node3</title>
<g id="a_node3"><a xlink:href="classpdal_1_1IStream.html#a1868ec9fd091d4af1281c2181315521a" target="_top" xlink:title="pdal::IStream::get">
<polygon fill="white" stroke="black" points="160.5,-76.5 160.5,-95.5 255.5,-95.5 255.5,-76.5 160.5,-76.5"/>
<text text-anchor="middle" x="208" y="-83.5" font-family="Helvetica,sans-Serif" font-size="10.00">pdal::IStream::get</text>
</a>
</g>
</g>
<!-- Node1&#45;&gt;Node3 -->
<g id="edge2" class="edge"><title>Node1&#45;&gt;Node3</title>
<path fill="none" stroke="midnightblue" d="M104.28,-73.3267C118.996,-75.1423 135.128,-77.1326 150.158,-78.987"/>
<polygon fill="midnightblue" stroke="midnightblue" points="150.002,-82.4943 160.356,-80.2452 150.86,-75.547 150.002,-82.4943"/>
</g>
<!-- Node8 -->
<g id="node8" class="node"><title>Node8</title>
<g id="a_node8"><a xlink:href="namespacepdal_1_1Utils.html#ac3322e84f8c5a998a344a5a606c74793" target="_top" xlink:title="pdal::Utils::openFile">
<polygon fill="white" stroke="black" points="156,-38.5 156,-57.5 260,-57.5 260,-38.5 156,-38.5"/>
<text text-anchor="middle" x="208" y="-45.5" font-family="Helvetica,sans-Serif" font-size="10.00">pdal::Utils::openFile</text>
</a>
</g>
</g>
<!-- Node1&#45;&gt;Node8 -->
<g id="edge7" class="edge"><title>Node1&#45;&gt;Node8</title>
<path fill="none" stroke="midnightblue" d="M104.28,-60.6733C117.527,-59.0388 131.923,-57.2628 145.628,-55.5718"/>
<polygon fill="midnightblue" stroke="midnightblue" points="146.448,-58.9973 155.944,-54.2991 145.591,-52.05 146.448,-58.9973"/>
</g>
<!-- Node10 -->
<g id="node10" class="node"><title>Node10</title>
<g id="a_node10"><a xlink:href="classpdal_1_1Stage.html#abdbd1176da12dfd882d931a43290797f" target="_top" xlink:title="pdal::Stage::throwError">
<polygon fill="white" stroke="black" points="149.5,-0.5 149.5,-19.5 266.5,-19.5 266.5,-0.5 149.5,-0.5"/>
<text text-anchor="middle" x="208" y="-7.5" font-family="Helvetica,sans-Serif" font-size="10.00">pdal::Stage::throwError</text>
</a>
</g>
</g>
<!-- Node1&#45;&gt;Node10 -->
<g id="edge9" class="edge"><title>Node1&#45;&gt;Node10</title>
<path fill="none" stroke="midnightblue" d="M84.8082,-51.8698C101.101,-44.4382 121.381,-35.6717 140,-29 146.424,-26.6983 153.271,-24.488 160.044,-22.4406"/>
<polygon fill="midnightblue" stroke="midnightblue" points="161.242,-25.7367 169.855,-19.566 159.274,-19.0192 161.242,-25.7367"/>
</g>
<!-- Node4 -->
<g id="node4" class="node"><title>Node4</title>
<g id="a_node4"><a xlink:href="namespacepdal_1_1Dimension.html#acf81dae9d5946f3a941f9df154b2329b" target="_top" xlink:title="pdal::Dimension::size">
<polygon fill="white" stroke="black" points="312.5,-76.5 312.5,-95.5 423.5,-95.5 423.5,-76.5 312.5,-76.5"/>
<text text-anchor="middle" x="368" y="-83.5" font-family="Helvetica,sans-Serif" font-size="10.00">pdal::Dimension::size</text>
</a>
</g>
</g>
<!-- Node3&#45;&gt;Node4 -->
<g id="edge3" class="edge"><title>Node3&#45;&gt;Node4</title>
<path fill="none" stroke="midnightblue" d="M255.551,-86C270.186,-86 286.62,-86 302.28,-86"/>
<polygon fill="midnightblue" stroke="midnightblue" points="302.432,-89.5001 312.432,-86 302.432,-82.5001 302.432,-89.5001"/>
</g>
<!-- Node5 -->
<g id="node5" class="node"><title>Node5</title>
<g id="a_node5"><a xlink:href="namespacepdal_1_1Utils.html#a59253304d0f929e3a3ea00f09636002f" target="_top" xlink:title="pdal::Utils::toNative">
<polygon fill="white" stroke="black" points="460,-76.5 460,-95.5 564,-95.5 564,-76.5 460,-76.5"/>
<text text-anchor="middle" x="512" y="-83.5" font-family="Helvetica,sans-Serif" font-size="10.00">pdal::Utils::toNative</text>
</a>
</g>
</g>
<!-- Node4&#45;&gt;Node5 -->
<g id="edge4" class="edge"><title>Node4&#45;&gt;Node5</title>
<path fill="none" stroke="midnightblue" d="M423.901,-86C432.427,-86 441.281,-86 449.933,-86"/>
<polygon fill="midnightblue" stroke="midnightblue" points="449.967,-89.5001 459.967,-86 449.967,-82.5001 449.967,-89.5001"/>
</g>
<!-- Node6 -->
<g id="node6" class="node"><title>Node6</title>
<g id="a_node6"><a xlink:href="namespacepdal_1_1Dimension.html#a880d689fed54aa3ded6f88c9e058c5d2" target="_top" xlink:title="pdal::Dimension::type">
<polygon fill="white" stroke="black" points="600,-76.5 600,-95.5 712,-95.5 712,-76.5 600,-76.5"/>
<text text-anchor="middle" x="656" y="-83.5" font-family="Helvetica,sans-Serif" font-size="10.00">pdal::Dimension::type</text>
</a>
</g>
</g>
<!-- Node5&#45;&gt;Node6 -->
<g id="edge5" class="edge"><title>Node5&#45;&gt;Node6</title>
<path fill="none" stroke="midnightblue" d="M564.265,-86C572.602,-86 581.332,-86 589.946,-86"/>
<polygon fill="midnightblue" stroke="midnightblue" points="589.972,-89.5001 599.972,-86 589.972,-82.5001 589.972,-89.5001"/>
</g>
<!-- Node7 -->
<g id="node7" class="node"><title>Node7</title>
<g id="a_node7"><a xlink:href="namespacepdal_1_1Utils.html#a5268937cf695835e55392f752dc02cb2" target="_top" xlink:title="pdal::Utils::tolower">
<polygon fill="white" stroke="black" points="748,-76.5 748,-95.5 846,-95.5 846,-76.5 748,-76.5"/>
<text text-anchor="middle" x="797" y="-83.5" font-family="Helvetica,sans-Serif" font-size="10.00">pdal::Utils::tolower</text>
</a>
</g>
</g>
<!-- Node6&#45;&gt;Node7 -->
<g id="edge6" class="edge"><title>Node6&#45;&gt;Node7</title>
<path fill="none" stroke="midnightblue" d="M712.336,-86C720.625,-86 729.194,-86 737.546,-86"/>
<polygon fill="midnightblue" stroke="midnightblue" points="737.59,-89.5001 747.59,-86 737.59,-82.5001 737.59,-89.5001"/>
</g>
<!-- Node9 -->
<g id="node9" class="node"><title>Node9</title>
<g id="a_node9"><a xlink:href="SQLiteTest_8cpp.html#afdd1742979cee35fe1879794bd7ff3a4" target="_top" xlink:title="tempFilename">
<polygon fill="white" stroke="black" points="329,-38.5 329,-57.5 407,-57.5 407,-38.5 329,-38.5"/>
<text text-anchor="middle" x="368" y="-45.5" font-family="Helvetica,sans-Serif" font-size="10.00">tempFilename</text>
</a>
</g>
</g>
<!-- Node8&#45;&gt;Node9 -->
<g id="edge8" class="edge"><title>Node8&#45;&gt;Node9</title>
<path fill="none" stroke="midnightblue" d="M260.298,-48C279.066,-48 300.222,-48 318.717,-48"/>
<polygon fill="midnightblue" stroke="midnightblue" points="318.973,-51.5001 328.973,-48 318.973,-44.5001 318.973,-51.5001"/>
</g>
<!-- Node11 -->
<g id="node11" class="node"><title>Node11</title>
<g id="a_node11"><a xlink:href="classpdal_1_1Stage.html#a6c81d6fbbac17ebe4cd63806916cc750" target="_top" xlink:title="pdal::Stage::getName">
<polygon fill="white" stroke="black" points="312,-0.5 312,-19.5 424,-19.5 424,-0.5 312,-0.5"/>
<text text-anchor="middle" x="368" y="-7.5" font-family="Helvetica,sans-Serif" font-size="10.00">pdal::Stage::getName</text>
</a>
</g>
</g>
<!-- Node10&#45;&gt;Node11 -->
<g id="edge10" class="edge"><title>Node10&#45;&gt;Node11</title>
<path fill="none" stroke="midnightblue" d="M266.936,-10C278.312,-10 290.316,-10 301.908,-10"/>
<polygon fill="midnightblue" stroke="midnightblue" points="301.963,-13.5001 311.963,-10 301.963,-6.5001 301.963,-13.5001"/>
</g>
</g>
</svg>
