<?xml version="1.0" encoding="UTF-8" standalone="no"?>
<!DOCTYPE svg PUBLIC "-//W3C//DTD SVG 1.1//EN"
 "http://www.w3.org/Graphics/SVG/1.1/DTD/svg11.dtd">
<!-- Generated by graphviz version 2.38.0 (20140413.2041)
 -->
<!-- Title: pdal::PipelineManager::views Pages: 1 -->
<svg width="1774pt" height="203pt"
 viewBox="0.00 0.00 1774.00 203.00" xmlns="http://www.w3.org/2000/svg" xmlns:xlink="http://www.w3.org/1999/xlink">
<g id="graph0" class="graph" transform="scale(1 1) rotate(0) translate(4 199)">
<title>pdal::PipelineManager::views</title>
<polygon fill="white" stroke="none" points="-4,4 -4,-199 1770,-199 1770,4 -4,4"/>
<!-- Node1 -->
<g id="node1" class="node"><title>Node1</title>
<polygon fill="#bfbfbf" stroke="black" points="0,-77 0,-107 113,-107 113,-77 0,-77"/>
<text text-anchor="start" x="8" y="-95" font-family="Helvetica,sans-Serif" font-size="10.00">pdal::PipelineManager</text>
<text text-anchor="middle" x="56.5" y="-84" font-family="Helvetica,sans-Serif" font-size="10.00">::views</text>
</g>
<!-- Node2 -->
<g id="node2" class="node"><title>Node2</title>
<g id="a_node2"><a xlink:href="classpdal_1_1InfoKernel.html#a402cba839f0a07e7d1b5982869ae71c5" target="_top" xlink:title="pdal::InfoKernel::dump">
<polygon fill="white" stroke="black" points="149,-175.5 149,-194.5 264,-194.5 264,-175.5 149,-175.5"/>
<text text-anchor="middle" x="206.5" y="-182.5" font-family="Helvetica,sans-Serif" font-size="10.00">pdal::InfoKernel::dump</text>
</a>
</g>
</g>
<!-- Node1&#45;&gt;Node2 -->
<g id="edge1" class="edge"><title>Node1&#45;&gt;Node2</title>
<path fill="none" stroke="midnightblue" d="M80.245,-114.276C97.8121,-130.469 123.377,-151.928 149,-166 155.712,-169.686 163.265,-172.829 170.612,-175.435"/>
<polygon fill="midnightblue" stroke="midnightblue" points="82.4508,-111.546 72.765,-107.253 77.6591,-116.649 82.4508,-111.546"/>
</g>
<!-- Node5 -->
<g id="node5" class="node"><title>Node5</title>
<g id="a_node5"><a xlink:href="classlibpdalpython_1_1Pipeline.html#ab60931b6a25f92b0896477732a3aa770" target="_top" xlink:title="libpdalpython::Pipeline\l::getArrays">
<polygon fill="white" stroke="black" points="149.5,-126 149.5,-156 263.5,-156 263.5,-126 149.5,-126"/>
<text text-anchor="start" x="157.5" y="-144" font-family="Helvetica,sans-Serif" font-size="10.00">libpdalpython::Pipeline</text>
<text text-anchor="middle" x="206.5" y="-133" font-family="Helvetica,sans-Serif" font-size="10.00">::getArrays</text>
</a>
</g>
</g>
<!-- Node1&#45;&gt;Node5 -->
<g id="edge4" class="edge"><title>Node1&#45;&gt;Node5</title>
<path fill="none" stroke="midnightblue" d="M112.65,-110.259C128.26,-115.427 145.069,-120.992 160.038,-125.948"/>
<polygon fill="midnightblue" stroke="midnightblue" points="113.706,-106.922 103.113,-107.101 111.506,-113.567 113.706,-106.922"/>
</g>
<!-- Node6 -->
<g id="node6" class="node"><title>Node6</title>
<g id="a_node6"><a xlink:href="classlibpdaljava_1_1Pipeline.html#a4ac34d34f578b53893f21097860deaa6" target="_top" xlink:title="libpdaljava::Pipeline\l::getPointViews">
<polygon fill="white" stroke="black" points="155,-77 155,-107 258,-107 258,-77 155,-77"/>
<text text-anchor="start" x="163" y="-95" font-family="Helvetica,sans-Serif" font-size="10.00">libpdaljava::Pipeline</text>
<text text-anchor="middle" x="206.5" y="-84" font-family="Helvetica,sans-Serif" font-size="10.00">::getPointViews</text>
</a>
</g>
</g>
<!-- Node1&#45;&gt;Node6 -->
<g id="edge5" class="edge"><title>Node1&#45;&gt;Node6</title>
<path fill="none" stroke="midnightblue" d="M123.052,-92C133.608,-92 144.396,-92 154.543,-92"/>
<polygon fill="midnightblue" stroke="midnightblue" points="123.031,-88.5001 113.031,-92 123.031,-95.5001 123.031,-88.5001"/>
</g>
<!-- Node17 -->
<g id="node17" class="node"><title>Node17</title>
<g id="a_node17"><a xlink:href="PCLBlockFilterTest_8cpp.html#af806c6fe59d3420714ce9c0f90f25992" target="_top" xlink:title="TEST">
<polygon fill="white" stroke="black" points="185.5,-38.5 185.5,-57.5 227.5,-57.5 227.5,-38.5 185.5,-38.5"/>
<text text-anchor="middle" x="206.5" y="-45.5" font-family="Helvetica,sans-Serif" font-size="10.00">TEST</text>
</a>
</g>
</g>
<!-- Node1&#45;&gt;Node17 -->
<g id="edge16" class="edge"><title>Node1&#45;&gt;Node17</title>
<path fill="none" stroke="midnightblue" d="M117.801,-74.0726C141.809,-66.9353 167.809,-59.2053 185.215,-54.0308"/>
<polygon fill="midnightblue" stroke="midnightblue" points="116.607,-70.7761 108.019,-76.9808 118.602,-77.4859 116.607,-70.7761"/>
</g>
<!-- Node18 -->
<g id="node18" class="node"><title>Node18</title>
<g id="a_node18"><a xlink:href="PythonFilterTest_8cpp.html#ab2403002240c7f84a058b864ce05cda0" target="_top" xlink:title="TEST_F">
<polygon fill="white" stroke="black" points="180,-0.5 180,-19.5 233,-19.5 233,-0.5 180,-0.5"/>
<text text-anchor="middle" x="206.5" y="-7.5" font-family="Helvetica,sans-Serif" font-size="10.00">TEST_F</text>
</a>
</g>
</g>
<!-- Node1&#45;&gt;Node18 -->
<g id="edge17" class="edge"><title>Node1&#45;&gt;Node18</title>
<path fill="none" stroke="midnightblue" d="M84.2617,-70.6073C101.876,-57.2938 125.874,-40.5643 149,-29 158.719,-24.14 169.97,-20.0704 179.862,-16.9604"/>
<polygon fill="midnightblue" stroke="midnightblue" points="81.9577,-67.9637 76.1592,-76.831 86.2218,-73.5151 81.9577,-67.9637"/>
</g>
<!-- Node3 -->
<g id="node3" class="node"><title>Node3</title>
<g id="a_node3"><a xlink:href="classpdal_1_1InfoKernel.html#a507a4fa6aa98127ddc55bb730bcf6a2f" target="_top" xlink:title="pdal::InfoKernel::run">
<polygon fill="white" stroke="black" points="304.5,-175.5 304.5,-194.5 408.5,-194.5 408.5,-175.5 304.5,-175.5"/>
<text text-anchor="middle" x="356.5" y="-182.5" font-family="Helvetica,sans-Serif" font-size="10.00">pdal::InfoKernel::run</text>
</a>
</g>
</g>
<!-- Node2&#45;&gt;Node3 -->
<g id="edge2" class="edge"><title>Node2&#45;&gt;Node3</title>
<path fill="none" stroke="midnightblue" d="M274.319,-185C284.428,-185 294.718,-185 304.424,-185"/>
<polygon fill="midnightblue" stroke="midnightblue" points="274.297,-181.5 264.297,-185 274.297,-188.5 274.297,-181.5"/>
</g>
<!-- Node4 -->
<g id="node4" class="node"><title>Node4</title>
<g id="a_node4"><a xlink:href="classpdal_1_1InfoKernel.html#ac8d3f256fa5d844710b25034f4e22eaa" target="_top" xlink:title="pdal::InfoKernel::execute">
<polygon fill="white" stroke="black" points="449,-175.5 449,-194.5 574,-194.5 574,-175.5 449,-175.5"/>
<text text-anchor="middle" x="511.5" y="-182.5" font-family="Helvetica,sans-Serif" font-size="10.00">pdal::InfoKernel::execute</text>
</a>
</g>
</g>
<!-- Node3&#45;&gt;Node4 -->
<g id="edge3" class="edge"><title>Node3&#45;&gt;Node4</title>
<path fill="none" stroke="midnightblue" d="M418.993,-185C428.853,-185 439.058,-185 448.92,-185"/>
<polygon fill="midnightblue" stroke="midnightblue" points="418.872,-181.5 408.872,-185 418.872,-188.5 418.872,-181.5"/>
</g>
<!-- Node7 -->
<g id="node7" class="node"><title>Node7</title>
<g id="a_node7"><a xlink:href="io__pdal__Pipeline_8cpp.html#a6d1c246b35dfbc9b84fceb5f08761a6b" target="_top" xlink:title="Java_io_pdal_Pipeline\l_getPointViews">
<polygon fill="white" stroke="black" points="300,-77 300,-107 413,-107 413,-77 300,-77"/>
<text text-anchor="start" x="308" y="-95" font-family="Helvetica,sans-Serif" font-size="10.00">Java_io_pdal_Pipeline</text>
<text text-anchor="middle" x="356.5" y="-84" font-family="Helvetica,sans-Serif" font-size="10.00">_getPointViews</text>
</a>
</g>
</g>
<!-- Node6&#45;&gt;Node7 -->
<g id="edge6" class="edge"><title>Node6&#45;&gt;Node7</title>
<path fill="none" stroke="midnightblue" d="M268.316,-92C278.766,-92 289.578,-92 299.883,-92"/>
<polygon fill="midnightblue" stroke="midnightblue" points="268.019,-88.5001 258.019,-92 268.019,-95.5001 268.019,-88.5001"/>
</g>
<!-- Node8 -->
<g id="node8" class="node"><title>Node8</title>
<g id="a_node8"><a xlink:href="io__pdal__Pipeline_8cpp.html#a5f3246e321662c6fef50671c277ee500" target="_top" xlink:title="Java_io_pdal_Pipeline\l_getLog">
<polygon fill="white" stroke="black" points="455,-77 455,-107 568,-107 568,-77 455,-77"/>
<text text-anchor="start" x="463" y="-95" font-family="Helvetica,sans-Serif" font-size="10.00">Java_io_pdal_Pipeline</text>
<text text-anchor="middle" x="511.5" y="-84" font-family="Helvetica,sans-Serif" font-size="10.00">_getLog</text>
</a>
</g>
</g>
<!-- Node7&#45;&gt;Node8 -->
<g id="edge7" class="edge"><title>Node7&#45;&gt;Node8</title>
<path fill="none" stroke="midnightblue" d="M423.18,-92C433.739,-92 444.578,-92 454.872,-92"/>
<polygon fill="midnightblue" stroke="midnightblue" points="423.169,-88.5001 413.169,-92 423.169,-95.5001 423.169,-88.5001"/>
</g>
<!-- Node9 -->
<g id="node9" class="node"><title>Node9</title>
<g id="a_node9"><a xlink:href="io__pdal__Pipeline_8cpp.html#a36f7aae14c7ecd91b257653ad04c1f04" target="_top" xlink:title="Java_io_pdal_Pipeline\l_getLogLevel">
<polygon fill="white" stroke="black" points="610,-77 610,-107 723,-107 723,-77 610,-77"/>
<text text-anchor="start" x="618" y="-95" font-family="Helvetica,sans-Serif" font-size="10.00">Java_io_pdal_Pipeline</text>
<text text-anchor="middle" x="666.5" y="-84" font-family="Helvetica,sans-Serif" font-size="10.00">_getLogLevel</text>
</a>
</g>
</g>
<!-- Node8&#45;&gt;Node9 -->
<g id="edge8" class="edge"><title>Node8&#45;&gt;Node9</title>
<path fill="none" stroke="midnightblue" d="M578.18,-92C588.739,-92 599.578,-92 609.872,-92"/>
<polygon fill="midnightblue" stroke="midnightblue" points="578.169,-88.5001 568.169,-92 578.169,-95.5001 578.169,-88.5001"/>
</g>
<!-- Node10 -->
<g id="node10" class="node"><title>Node10</title>
<g id="a_node10"><a xlink:href="io__pdal__Pipeline_8cpp.html#a082bb922d20e2a275aa41432e8e4b125" target="_top" xlink:title="Java_io_pdal_Pipeline\l_setLogLevel">
<polygon fill="white" stroke="black" points="759,-77 759,-107 872,-107 872,-77 759,-77"/>
<text text-anchor="start" x="767" y="-95" font-family="Helvetica,sans-Serif" font-size="10.00">Java_io_pdal_Pipeline</text>
<text text-anchor="middle" x="815.5" y="-84" font-family="Helvetica,sans-Serif" font-size="10.00">_setLogLevel</text>
</a>
</g>
</g>
<!-- Node9&#45;&gt;Node10 -->
<g id="edge9" class="edge"><title>Node9&#45;&gt;Node10</title>
<path fill="none" stroke="midnightblue" d="M733.078,-92C741.681,-92 750.43,-92 758.847,-92"/>
<polygon fill="midnightblue" stroke="midnightblue" points="733.074,-88.5001 723.074,-92 733.074,-95.5001 733.074,-88.5001"/>
</g>
<!-- Node11 -->
<g id="node11" class="node"><title>Node11</title>
<g id="a_node11"><a xlink:href="io__pdal__Pipeline_8cpp.html#a8a69b7f4a488cb8f6e3daf06565454a9" target="_top" xlink:title="Java_io_pdal_Pipeline\l_validate">
<polygon fill="white" stroke="black" points="908,-77 908,-107 1021,-107 1021,-77 908,-77"/>
<text text-anchor="start" x="916" y="-95" font-family="Helvetica,sans-Serif" font-size="10.00">Java_io_pdal_Pipeline</text>
<text text-anchor="middle" x="964.5" y="-84" font-family="Helvetica,sans-Serif" font-size="10.00">_validate</text>
</a>
</g>
</g>
<!-- Node10&#45;&gt;Node11 -->
<g id="edge10" class="edge"><title>Node10&#45;&gt;Node11</title>
<path fill="none" stroke="midnightblue" d="M882.078,-92C890.681,-92 899.43,-92 907.847,-92"/>
<polygon fill="midnightblue" stroke="midnightblue" points="882.074,-88.5001 872.074,-92 882.074,-95.5001 882.074,-88.5001"/>
</g>
<!-- Node12 -->
<g id="node12" class="node"><title>Node12</title>
<g id="a_node12"><a xlink:href="io__pdal__Pipeline_8cpp.html#ae6caeca72780b5e3ad792cd5c00df87c" target="_top" xlink:title="Java_io_pdal_Pipeline\l_getSchema">
<polygon fill="white" stroke="black" points="1057,-77 1057,-107 1170,-107 1170,-77 1057,-77"/>
<text text-anchor="start" x="1065" y="-95" font-family="Helvetica,sans-Serif" font-size="10.00">Java_io_pdal_Pipeline</text>
<text text-anchor="middle" x="1113.5" y="-84" font-family="Helvetica,sans-Serif" font-size="10.00">_getSchema</text>
</a>
</g>
</g>
<!-- Node11&#45;&gt;Node12 -->
<g id="edge11" class="edge"><title>Node11&#45;&gt;Node12</title>
<path fill="none" stroke="midnightblue" d="M1031.08,-92C1039.68,-92 1048.43,-92 1056.85,-92"/>
<polygon fill="midnightblue" stroke="midnightblue" points="1031.07,-88.5001 1021.07,-92 1031.07,-95.5001 1031.07,-88.5001"/>
</g>
<!-- Node13 -->
<g id="node13" class="node"><title>Node13</title>
<g id="a_node13"><a xlink:href="io__pdal__Pipeline_8cpp.html#a66a0073f40bd33fe176e2e8bacc57d7d" target="_top" xlink:title="Java_io_pdal_Pipeline\l_getMetadata">
<polygon fill="white" stroke="black" points="1206,-77 1206,-107 1319,-107 1319,-77 1206,-77"/>
<text text-anchor="start" x="1214" y="-95" font-family="Helvetica,sans-Serif" font-size="10.00">Java_io_pdal_Pipeline</text>
<text text-anchor="middle" x="1262.5" y="-84" font-family="Helvetica,sans-Serif" font-size="10.00">_getMetadata</text>
</a>
</g>
</g>
<!-- Node12&#45;&gt;Node13 -->
<g id="edge12" class="edge"><title>Node12&#45;&gt;Node13</title>
<path fill="none" stroke="midnightblue" d="M1180.08,-92C1188.68,-92 1197.43,-92 1205.85,-92"/>
<polygon fill="midnightblue" stroke="midnightblue" points="1180.07,-88.5001 1170.07,-92 1180.07,-95.5001 1180.07,-88.5001"/>
</g>
<!-- Node14 -->
<g id="node14" class="node"><title>Node14</title>
<g id="a_node14"><a xlink:href="io__pdal__Pipeline_8cpp.html#a12a870b2859adaaa0556bf0a18f4d13c" target="_top" xlink:title="Java_io_pdal_Pipeline\l_execute">
<polygon fill="white" stroke="black" points="1355,-77 1355,-107 1468,-107 1468,-77 1355,-77"/>
<text text-anchor="start" x="1363" y="-95" font-family="Helvetica,sans-Serif" font-size="10.00">Java_io_pdal_Pipeline</text>
<text text-anchor="middle" x="1411.5" y="-84" font-family="Helvetica,sans-Serif" font-size="10.00">_execute</text>
</a>
</g>
</g>
<!-- Node13&#45;&gt;Node14 -->
<g id="edge13" class="edge"><title>Node13&#45;&gt;Node14</title>
<path fill="none" stroke="midnightblue" d="M1329.08,-92C1337.68,-92 1346.43,-92 1354.85,-92"/>
<polygon fill="midnightblue" stroke="midnightblue" points="1329.07,-88.5001 1319.07,-92 1329.07,-95.5001 1329.07,-88.5001"/>
</g>
<!-- Node15 -->
<g id="node15" class="node"><title>Node15</title>
<g id="a_node15"><a xlink:href="io__pdal__Pipeline_8cpp.html#a8238e4e6616b338d76b4ed68e533305c" target="_top" xlink:title="Java_io_pdal_Pipeline\l_dispose">
<polygon fill="white" stroke="black" points="1504,-77 1504,-107 1617,-107 1617,-77 1504,-77"/>
<text text-anchor="start" x="1512" y="-95" font-family="Helvetica,sans-Serif" font-size="10.00">Java_io_pdal_Pipeline</text>
<text text-anchor="middle" x="1560.5" y="-84" font-family="Helvetica,sans-Serif" font-size="10.00">_dispose</text>
</a>
</g>
</g>
<!-- Node14&#45;&gt;Node15 -->
<g id="edge14" class="edge"><title>Node14&#45;&gt;Node15</title>
<path fill="none" stroke="midnightblue" d="M1478.08,-92C1486.68,-92 1495.43,-92 1503.85,-92"/>
<polygon fill="midnightblue" stroke="midnightblue" points="1478.07,-88.5001 1468.07,-92 1478.07,-95.5001 1478.07,-88.5001"/>
</g>
<!-- Node16 -->
<g id="node16" class="node"><title>Node16</title>
<g id="a_node16"><a xlink:href="io__pdal__Pipeline_8cpp.html#ad7b0833a8c4a23a66bf49021695854ee" target="_top" xlink:title="Java_io_pdal_Pipeline\l_initialise">
<polygon fill="white" stroke="black" points="1653,-77 1653,-107 1766,-107 1766,-77 1653,-77"/>
<text text-anchor="start" x="1661" y="-95" font-family="Helvetica,sans-Serif" font-size="10.00">Java_io_pdal_Pipeline</text>
<text text-anchor="middle" x="1709.5" y="-84" font-family="Helvetica,sans-Serif" font-size="10.00">_initialise</text>
</a>
</g>
</g>
<!-- Node15&#45;&gt;Node16 -->
<g id="edge15" class="edge"><title>Node15&#45;&gt;Node16</title>
<path fill="none" stroke="midnightblue" d="M1627.08,-92C1635.68,-92 1644.43,-92 1652.85,-92"/>
<polygon fill="midnightblue" stroke="midnightblue" points="1627.07,-88.5001 1617.07,-92 1627.07,-95.5001 1627.07,-88.5001"/>
</g>
</g>
</svg>
