<?xml version="1.0" encoding="UTF-8" standalone="no"?>
<!DOCTYPE svg PUBLIC "-//W3C//DTD SVG 1.1//EN"
 "http://www.w3.org/Graphics/SVG/1.1/DTD/svg11.dtd">
<!-- Generated by graphviz version 2.38.0 (20140413.2041)
 -->
<!-- Title: pdal::LasHeader::minZ Pages: 1 -->
<svg width="248pt" height="104pt"
 viewBox="0.00 0.00 248.00 104.00" xmlns="http://www.w3.org/2000/svg" xmlns:xlink="http://www.w3.org/1999/xlink">
<g id="graph0" class="graph" transform="scale(1 1) rotate(0) translate(4 100)">
<title>pdal::LasHeader::minZ</title>
<polygon fill="white" stroke="none" points="-4,4 -4,-100 244,-100 244,4 -4,4"/>
<!-- Node1 -->
<g id="node1" class="node"><title>Node1</title>
<polygon fill="#bfbfbf" stroke="black" points="0,-38.5 0,-57.5 116,-57.5 116,-38.5 0,-38.5"/>
<text text-anchor="middle" x="58" y="-45.5" font-family="Helvetica,sans-Serif" font-size="10.00">pdal::LasHeader::minZ</text>
</g>
<!-- Node2 -->
<g id="node2" class="node"><title>Node2</title>
<g id="a_node2"><a xlink:href="namespacepdal.html#ab0eb19c256a7de81752841ef0c83f9c2" target="_top" xlink:title="pdal::operator\&lt;\&lt;">
<polygon fill="white" stroke="black" points="152,-76.5 152,-95.5 240,-95.5 240,-76.5 152,-76.5"/>
<text text-anchor="middle" x="196" y="-83.5" font-family="Helvetica,sans-Serif" font-size="10.00">pdal::operator&lt;&lt;</text>
</a>
</g>
</g>
<!-- Node1&#45;&gt;Node2 -->
<g id="edge1" class="edge"><title>Node1&#45;&gt;Node2</title>
<path fill="none" stroke="midnightblue" d="M103.087,-60.3183C121.772,-65.5393 143.218,-71.5316 160.692,-76.4141"/>
<polygon fill="midnightblue" stroke="midnightblue" points="103.892,-56.9092 93.3185,-57.589 102.008,-63.651 103.892,-56.9092"/>
</g>
<!-- Node3 -->
<g id="node3" class="node"><title>Node3</title>
<g id="a_node3"><a xlink:href="namespacepdal.html#a96d3d7266c452f1ea279b43b78dd43d1" target="_top" xlink:title="pdal::operator\&gt;\&gt;">
<polygon fill="white" stroke="black" points="152,-38.5 152,-57.5 240,-57.5 240,-38.5 152,-38.5"/>
<text text-anchor="middle" x="196" y="-45.5" font-family="Helvetica,sans-Serif" font-size="10.00">pdal::operator&gt;&gt;</text>
</a>
</g>
</g>
<!-- Node1&#45;&gt;Node3 -->
<g id="edge2" class="edge"><title>Node1&#45;&gt;Node3</title>
<path fill="none" stroke="midnightblue" d="M126.4,-48C135.053,-48 143.719,-48 151.837,-48"/>
<polygon fill="midnightblue" stroke="midnightblue" points="126.282,-44.5001 116.282,-48 126.282,-51.5001 126.282,-44.5001"/>
</g>
<!-- Node4 -->
<g id="node4" class="node"><title>Node4</title>
<g id="a_node4"><a xlink:href="LasReaderTest_8cpp.html#abb7afe92c00ae82352167ef5a47190e0" target="_top" xlink:title="TEST">
<polygon fill="white" stroke="black" points="175,-0.5 175,-19.5 217,-19.5 217,-0.5 175,-0.5"/>
<text text-anchor="middle" x="196" y="-7.5" font-family="Helvetica,sans-Serif" font-size="10.00">TEST</text>
</a>
</g>
</g>
<!-- Node1&#45;&gt;Node4 -->
<g id="edge3" class="edge"><title>Node1&#45;&gt;Node4</title>
<path fill="none" stroke="midnightblue" d="M102.976,-35.7125C127.069,-28.9806 155.779,-20.9587 174.649,-15.6864"/>
<polygon fill="midnightblue" stroke="midnightblue" points="102.008,-32.349 93.3185,-38.411 103.892,-39.0908 102.008,-32.349"/>
</g>
</g>
</svg>
