<?xml version="1.0" encoding="UTF-8" standalone="no"?>
<!DOCTYPE svg PUBLIC "-//W3C//DTD SVG 1.1//EN"
 "http://www.w3.org/Graphics/SVG/1.1/DTD/svg11.dtd">
<!-- Generated by graphviz version 2.38.0 (20140413.2041)
 -->
<!-- Title: pdal::PointView::getPackedPoint Pages: 1 -->
<svg width="781pt" height="127pt"
 viewBox="0.00 0.00 781.00 126.50" xmlns="http://www.w3.org/2000/svg" xmlns:xlink="http://www.w3.org/1999/xlink">
<g id="graph0" class="graph" transform="scale(1 1) rotate(0) translate(4 122.5)">
<title>pdal::PointView::getPackedPoint</title>
<polygon fill="white" stroke="none" points="-4,4 -4,-122.5 777,-122.5 777,4 -4,4"/>
<!-- Node1 -->
<g id="node1" class="node"><title>Node1</title>
<polygon fill="#bfbfbf" stroke="black" points="0,-39 0,-69 137,-69 137,-39 0,-39"/>
<text text-anchor="start" x="8" y="-57" font-family="Helvetica,sans-Serif" font-size="10.00">pdal::PointView::getPacked</text>
<text text-anchor="middle" x="68.5" y="-46" font-family="Helvetica,sans-Serif" font-size="10.00">Point</text>
</g>
<!-- Node2 -->
<g id="node2" class="node"><title>Node2</title>
<g id="a_node2"><a xlink:href="classpdal_1_1DbWriter.html#a04cc75915e510a5ceaaef7498c02cb39" target="_top" xlink:title="pdal::DbWriter::readPoint">
<polygon fill="white" stroke="black" points="173,-44.5 173,-63.5 300,-63.5 300,-44.5 173,-44.5"/>
<text text-anchor="middle" x="236.5" y="-51.5" font-family="Helvetica,sans-Serif" font-size="10.00">pdal::DbWriter::readPoint</text>
</a>
</g>
</g>
<!-- Node1&#45;&gt;Node2 -->
<g id="edge1" class="edge"><title>Node1&#45;&gt;Node2</title>
<path fill="none" stroke="midnightblue" d="M147.097,-54C155.732,-54 164.445,-54 172.861,-54"/>
<polygon fill="midnightblue" stroke="midnightblue" points="147.019,-50.5001 137.019,-54 147.019,-57.5001 147.019,-50.5001"/>
</g>
<!-- Node3 -->
<g id="node3" class="node"><title>Node3</title>
<g id="a_node3"><a xlink:href="classpdal_1_1OciWriter.html#a7852def2b7ce6cfcddc26664bfdfd830" target="_top" xlink:title="pdal::OciWriter::writePoint\lMajor">
<polygon fill="white" stroke="black" points="336,-88 336,-118 467,-118 467,-88 336,-88"/>
<text text-anchor="start" x="344" y="-106" font-family="Helvetica,sans-Serif" font-size="10.00">pdal::OciWriter::writePoint</text>
<text text-anchor="middle" x="401.5" y="-95" font-family="Helvetica,sans-Serif" font-size="10.00">Major</text>
</a>
</g>
</g>
<!-- Node2&#45;&gt;Node3 -->
<g id="edge2" class="edge"><title>Node2&#45;&gt;Node3</title>
<path fill="none" stroke="midnightblue" d="M278.929,-66.4541C300.702,-72.9992 327.554,-81.0713 350.479,-87.963"/>
<polygon fill="midnightblue" stroke="midnightblue" points="279.899,-63.0911 269.315,-63.564 277.884,-69.7948 279.899,-63.0911"/>
</g>
<!-- Node6 -->
<g id="node6" class="node"><title>Node6</title>
<g id="a_node6"><a xlink:href="classpdal_1_1SQLiteWriter.html#a6e0b933d7f15b34a4e244f6ff31cfb1a" target="_top" xlink:title="pdal::SQLiteWriter\l::writeTile">
<polygon fill="white" stroke="black" points="353,-39 353,-69 450,-69 450,-39 353,-39"/>
<text text-anchor="start" x="361" y="-57" font-family="Helvetica,sans-Serif" font-size="10.00">pdal::SQLiteWriter</text>
<text text-anchor="middle" x="401.5" y="-46" font-family="Helvetica,sans-Serif" font-size="10.00">::writeTile</text>
</a>
</g>
</g>
<!-- Node2&#45;&gt;Node6 -->
<g id="edge5" class="edge"><title>Node2&#45;&gt;Node6</title>
<path fill="none" stroke="midnightblue" d="M310.427,-54C324.796,-54 339.524,-54 352.799,-54"/>
<polygon fill="midnightblue" stroke="midnightblue" points="310.054,-50.5001 300.054,-54 310.054,-57.5001 310.054,-50.5001"/>
</g>
<!-- Node8 -->
<g id="node8" class="node"><title>Node8</title>
<g id="a_node8"><a xlink:href="classpdal_1_1PgWriter.html#a2dcd008f6d9eedb97a9fc2716347db84" target="_top" xlink:title="pdal::PgWriter::writeTile">
<polygon fill="white" stroke="black" points="340.5,-0.5 340.5,-19.5 462.5,-19.5 462.5,-0.5 340.5,-0.5"/>
<text text-anchor="middle" x="401.5" y="-7.5" font-family="Helvetica,sans-Serif" font-size="10.00">pdal::PgWriter::writeTile</text>
</a>
</g>
</g>
<!-- Node2&#45;&gt;Node8 -->
<g id="edge7" class="edge"><title>Node2&#45;&gt;Node8</title>
<path fill="none" stroke="midnightblue" d="M282.528,-41.8453C308.611,-34.8045 340.972,-26.0688 365.2,-19.5287"/>
<polygon fill="midnightblue" stroke="midnightblue" points="281.611,-38.4674 272.869,-44.4527 283.435,-45.2255 281.611,-38.4674"/>
</g>
<!-- Node4 -->
<g id="node4" class="node"><title>Node4</title>
<g id="a_node4"><a xlink:href="classpdal_1_1OciWriter.html#afa1630f5e91fc1cbc266f1839e4b62b9" target="_top" xlink:title="pdal::OciWriter::writeTile">
<polygon fill="white" stroke="black" points="503,-93.5 503,-112.5 628,-112.5 628,-93.5 503,-93.5"/>
<text text-anchor="middle" x="565.5" y="-100.5" font-family="Helvetica,sans-Serif" font-size="10.00">pdal::OciWriter::writeTile</text>
</a>
</g>
</g>
<!-- Node3&#45;&gt;Node4 -->
<g id="edge3" class="edge"><title>Node3&#45;&gt;Node4</title>
<path fill="none" stroke="midnightblue" d="M477.703,-103C486.156,-103 494.694,-103 502.946,-103"/>
<polygon fill="midnightblue" stroke="midnightblue" points="477.458,-99.5001 467.458,-103 477.458,-106.5 477.458,-99.5001"/>
</g>
<!-- Node5 -->
<g id="node5" class="node"><title>Node5</title>
<g id="a_node5"><a xlink:href="classpdal_1_1OciWriter.html#a11f02a9af7350d831dff5f81859c76f2" target="_top" xlink:title="pdal::OciWriter::write">
<polygon fill="white" stroke="black" points="664,-93.5 664,-112.5 773,-112.5 773,-93.5 664,-93.5"/>
<text text-anchor="middle" x="718.5" y="-100.5" font-family="Helvetica,sans-Serif" font-size="10.00">pdal::OciWriter::write</text>
</a>
</g>
</g>
<!-- Node4&#45;&gt;Node5 -->
<g id="edge4" class="edge"><title>Node4&#45;&gt;Node5</title>
<path fill="none" stroke="midnightblue" d="M638.609,-103C647.064,-103 655.575,-103 663.718,-103"/>
<polygon fill="midnightblue" stroke="midnightblue" points="638.353,-99.5001 628.353,-103 638.353,-106.5 638.353,-99.5001"/>
</g>
<!-- Node7 -->
<g id="node7" class="node"><title>Node7</title>
<g id="a_node7"><a xlink:href="classpdal_1_1SQLiteWriter.html#a258990451ca91103f10913812e5ef623" target="_top" xlink:title="pdal::SQLiteWriter\l::write">
<polygon fill="white" stroke="black" points="517,-39 517,-69 614,-69 614,-39 517,-39"/>
<text text-anchor="start" x="525" y="-57" font-family="Helvetica,sans-Serif" font-size="10.00">pdal::SQLiteWriter</text>
<text text-anchor="middle" x="565.5" y="-46" font-family="Helvetica,sans-Serif" font-size="10.00">::write</text>
</a>
</g>
</g>
<!-- Node6&#45;&gt;Node7 -->
<g id="edge6" class="edge"><title>Node6&#45;&gt;Node7</title>
<path fill="none" stroke="midnightblue" d="M460.31,-54C478.831,-54 499.12,-54 516.832,-54"/>
<polygon fill="midnightblue" stroke="midnightblue" points="460.229,-50.5001 450.229,-54 460.229,-57.5001 460.229,-50.5001"/>
</g>
<!-- Node9 -->
<g id="node9" class="node"><title>Node9</title>
<g id="a_node9"><a xlink:href="classpdal_1_1PgWriter.html#a75d2fa0130cb17470e69425c0b866635" target="_top" xlink:title="pdal::PgWriter::write">
<polygon fill="white" stroke="black" points="512.5,-0.5 512.5,-19.5 618.5,-19.5 618.5,-0.5 512.5,-0.5"/>
<text text-anchor="middle" x="565.5" y="-7.5" font-family="Helvetica,sans-Serif" font-size="10.00">pdal::PgWriter::write</text>
</a>
</g>
</g>
<!-- Node8&#45;&gt;Node9 -->
<g id="edge8" class="edge"><title>Node8&#45;&gt;Node9</title>
<path fill="none" stroke="midnightblue" d="M472.869,-10C486.136,-10 499.79,-10 512.375,-10"/>
<polygon fill="midnightblue" stroke="midnightblue" points="472.823,-6.5001 462.823,-10 472.823,-13.5001 472.823,-6.5001"/>
</g>
</g>
</svg>
