<?xml version="1.0" encoding="UTF-8" standalone="no"?>
<!DOCTYPE svg PUBLIC "-//W3C//DTD SVG 1.1//EN"
 "http://www.w3.org/Graphics/SVG/1.1/DTD/svg11.dtd">
<!-- Generated by graphviz version 2.38.0 (20140413.2041)
 -->
<!-- Title: pdal::PipelineManager::addFilter Pages: 1 -->
<svg width="1499pt" height="560pt"
 viewBox="0.00 0.00 1499.00 560.04" xmlns="http://www.w3.org/2000/svg" xmlns:xlink="http://www.w3.org/1999/xlink">
<g id="graph0" class="graph" transform="scale(1 1) rotate(0) translate(4 556.038)">
<title>pdal::PipelineManager::addFilter</title>
<polygon fill="white" stroke="none" points="-4,4 -4,-556.038 1495,-556.038 1495,4 -4,4"/>
<!-- Node1 -->
<g id="node1" class="node"><title>Node1</title>
<polygon fill="#bfbfbf" stroke="black" points="0,-84 0,-114 113,-114 113,-84 0,-84"/>
<text text-anchor="start" x="8" y="-102" font-family="Helvetica,sans-Serif" font-size="10.00">pdal::PipelineManager</text>
<text text-anchor="middle" x="56.5" y="-91" font-family="Helvetica,sans-Serif" font-size="10.00">::addFilter</text>
</g>
<!-- Node2 -->
<g id="node2" class="node"><title>Node2</title>
<g id="a_node2"><a xlink:href="classpdal_1_1StageFactory.html#ac23b3763b84750594c834ec6ea27e334" target="_top" xlink:title="pdal::StageFactory\l::createStage">
<polygon fill="white" stroke="black" points="167.5,-147 167.5,-177 266.5,-177 266.5,-147 167.5,-147"/>
<text text-anchor="start" x="175.5" y="-165" font-family="Helvetica,sans-Serif" font-size="10.00">pdal::StageFactory</text>
<text text-anchor="middle" x="217" y="-154" font-family="Helvetica,sans-Serif" font-size="10.00">::createStage</text>
</a>
</g>
</g>
<!-- Node1&#45;&gt;Node2 -->
<g id="edge1" class="edge"><title>Node1&#45;&gt;Node2</title>
<path fill="none" stroke="midnightblue" d="M93.0091,-114.101C109.909,-121.197 130.436,-129.685 149,-137 154.198,-139.048 159.639,-141.149 165.076,-143.22"/>
<polygon fill="midnightblue" stroke="midnightblue" points="164.216,-146.637 174.807,-146.899 166.691,-140.089 164.216,-146.637"/>
</g>
<!-- Node30 -->
<g id="node30" class="node"><title>Node30</title>
<g id="a_node30"><a xlink:href="namespacehag.html#a39becb5458bcac317093e468da1639be" target="_top" xlink:title="hag.filter">
<polygon fill="white" stroke="black" points="190,-108.5 190,-127.5 244,-127.5 244,-108.5 190,-108.5"/>
<text text-anchor="middle" x="217" y="-115.5" font-family="Helvetica,sans-Serif" font-size="10.00">hag.filter</text>
</a>
</g>
</g>
<!-- Node1&#45;&gt;Node30 -->
<g id="edge35" class="edge"><title>Node1&#45;&gt;Node30</title>
<path fill="none" stroke="midnightblue" d="M113.381,-105.699C135.442,-108.343 160.155,-111.306 179.801,-113.661"/>
<polygon fill="midnightblue" stroke="midnightblue" points="179.512,-117.151 189.857,-114.866 180.345,-110.201 179.512,-117.151"/>
</g>
<!-- Node33 -->
<g id="node33" class="node"><title>Node33</title>
<g id="a_node33"><a xlink:href="classpdal_1_1Stage.html#ad70b59db94921fc309a13955d3330c2d" target="_top" xlink:title="pdal::Stage::setLog">
<polygon fill="white" stroke="black" points="166.5,-70.5 166.5,-89.5 267.5,-89.5 267.5,-70.5 166.5,-70.5"/>
<text text-anchor="middle" x="217" y="-77.5" font-family="Helvetica,sans-Serif" font-size="10.00">pdal::Stage::setLog</text>
</a>
</g>
</g>
<!-- Node1&#45;&gt;Node33 -->
<g id="edge38" class="edge"><title>Node1&#45;&gt;Node33</title>
<path fill="none" stroke="midnightblue" d="M113.381,-92.3013C127.295,-90.6334 142.264,-88.839 156.351,-87.1503"/>
<polygon fill="midnightblue" stroke="midnightblue" points="156.913,-90.6081 166.425,-85.9427 156.08,-83.6579 156.913,-90.6081"/>
</g>
<!-- Node34 -->
<g id="node34" class="node"><title>Node34</title>
<g id="a_node34"><a xlink:href="classpdal_1_1Stage.html#a714dfe1f3b91fd41afe8146d94759b29" target="_top" xlink:title="pdal::Stage::setProgressFd">
<polygon fill="white" stroke="black" points="149,-32.5 149,-51.5 285,-51.5 285,-32.5 149,-32.5"/>
<text text-anchor="middle" x="217" y="-39.5" font-family="Helvetica,sans-Serif" font-size="10.00">pdal::Stage::setProgressFd</text>
</a>
</g>
</g>
<!-- Node1&#45;&gt;Node34 -->
<g id="edge39" class="edge"><title>Node1&#45;&gt;Node34</title>
<path fill="none" stroke="midnightblue" d="M91.0285,-83.9664C108.183,-76.5594 129.506,-67.7857 149,-61 155.521,-58.73 162.467,-56.5273 169.324,-54.4748"/>
<polygon fill="midnightblue" stroke="midnightblue" points="170.624,-57.7417 179.246,-51.5847 168.666,-51.0209 170.624,-57.7417"/>
</g>
<!-- Node3 -->
<g id="node3" class="node"><title>Node3</title>
<g id="a_node3"><a xlink:href="classpdal_1_1PluginManager.html#a70e78b2649f28e266ec11b7a9e183af9" target="_top" xlink:title="pdal::PluginManager\l::createObject">
<polygon fill="white" stroke="black" points="321,-147 321,-177 426,-177 426,-147 321,-147"/>
<text text-anchor="start" x="329" y="-165" font-family="Helvetica,sans-Serif" font-size="10.00">pdal::PluginManager</text>
<text text-anchor="middle" x="373.5" y="-154" font-family="Helvetica,sans-Serif" font-size="10.00">::createObject</text>
</a>
</g>
</g>
<!-- Node2&#45;&gt;Node3 -->
<g id="edge2" class="edge"><title>Node2&#45;&gt;Node3</title>
<path fill="none" stroke="midnightblue" d="M266.885,-162C280.686,-162 295.889,-162 310.357,-162"/>
<polygon fill="midnightblue" stroke="midnightblue" points="310.731,-165.5 320.731,-162 310.731,-158.5 310.731,-165.5"/>
</g>
<!-- Node4 -->
<g id="node4" class="node"><title>Node4</title>
<g id="a_node4"><a xlink:href="classpdal_1_1PluginManager.html#a1d74a4219bdf2592c026084e0aa3809a" target="_top" xlink:title="pdal::PluginManager\l::l_createObject">
<polygon fill="white" stroke="black" points="462,-147 462,-177 567,-177 567,-147 462,-147"/>
<text text-anchor="start" x="470" y="-165" font-family="Helvetica,sans-Serif" font-size="10.00">pdal::PluginManager</text>
<text text-anchor="middle" x="514.5" y="-154" font-family="Helvetica,sans-Serif" font-size="10.00">::l_createObject</text>
</a>
</g>
</g>
<!-- Node3&#45;&gt;Node4 -->
<g id="edge3" class="edge"><title>Node3&#45;&gt;Node4</title>
<path fill="none" stroke="midnightblue" d="M426.258,-162C434.49,-162 443.077,-162 451.514,-162"/>
<polygon fill="midnightblue" stroke="midnightblue" points="451.698,-165.5 461.698,-162 451.698,-158.5 451.698,-165.5"/>
</g>
<!-- Node5 -->
<g id="node5" class="node"><title>Node5</title>
<g id="a_node5"><a xlink:href="classpdal_1_1PluginManager.html#a4b104d8173aec62bcd3745ddee7aa3d5" target="_top" xlink:title="pdal::PluginManager\l::guessLoadByPath">
<polygon fill="white" stroke="black" points="603,-147 603,-177 708,-177 708,-147 603,-147"/>
<text text-anchor="start" x="611" y="-165" font-family="Helvetica,sans-Serif" font-size="10.00">pdal::PluginManager</text>
<text text-anchor="middle" x="655.5" y="-154" font-family="Helvetica,sans-Serif" font-size="10.00">::guessLoadByPath</text>
</a>
</g>
</g>
<!-- Node4&#45;&gt;Node5 -->
<g id="edge4" class="edge"><title>Node4&#45;&gt;Node5</title>
<path fill="none" stroke="midnightblue" d="M567.258,-162C575.49,-162 584.077,-162 592.514,-162"/>
<polygon fill="midnightblue" stroke="midnightblue" points="592.698,-165.5 602.698,-162 592.698,-158.5 592.698,-165.5"/>
</g>
<!-- Node6 -->
<g id="node6" class="node"><title>Node6</title>
<g id="a_node6"><a xlink:href="namespacepdal_1_1Utils.html#a6ae33c6d7b4eb4bcae6ec17fb8cc04fc" target="_top" xlink:title="pdal::Utils::split2">
<polygon fill="white" stroke="black" points="1024,-527.5 1024,-546.5 1114,-546.5 1114,-527.5 1024,-527.5"/>
<text text-anchor="middle" x="1069" y="-534.5" font-family="Helvetica,sans-Serif" font-size="10.00">pdal::Utils::split2</text>
</a>
</g>
</g>
<!-- Node5&#45;&gt;Node6 -->
<g id="edge5" class="edge"><title>Node5&#45;&gt;Node6</title>
<path fill="none" stroke="midnightblue" d="M658.286,-177.277C665.546,-236.615 694.815,-450.641 744,-494 818.548,-559.717 942.737,-555.642 1013.75,-546.51"/>
<polygon fill="midnightblue" stroke="midnightblue" points="1014.4,-549.955 1023.83,-545.134 1013.45,-543.019 1014.4,-549.955"/>
</g>
<!-- Node7 -->
<g id="node7" class="node"><title>Node7</title>
<g id="a_node7"><a xlink:href="namespacepdal_1_1anonymous__namespace_02PluginManager_8cpp_03.html#a1fdbb485623dfdef1f484e665ffe43fe" target="_top" xlink:title="pdal::anonymous_namespace\l\{PluginManager::cpp\}::pluginSearchPaths">
<polygon fill="white" stroke="black" points="744,-454 744,-484 941,-484 941,-454 744,-454"/>
<text text-anchor="start" x="752" y="-472" font-family="Helvetica,sans-Serif" font-size="10.00">pdal::anonymous_namespace</text>
<text text-anchor="middle" x="842.5" y="-461" font-family="Helvetica,sans-Serif" font-size="10.00">{PluginManager::cpp}::pluginSearchPaths</text>
</a>
</g>
</g>
<!-- Node5&#45;&gt;Node7 -->
<g id="edge6" class="edge"><title>Node5&#45;&gt;Node7</title>
<path fill="none" stroke="midnightblue" d="M665.674,-177.224C695.571,-226.837 790.362,-384.138 826.922,-444.808"/>
<polygon fill="midnightblue" stroke="midnightblue" points="824.111,-446.925 832.27,-453.684 830.107,-443.312 824.111,-446.925"/>
</g>
<!-- Node10 -->
<g id="node10" class="node"><title>Node10</title>
<g id="a_node10"><a xlink:href="namespacepdal_1_1FileUtils.html#ae2b8f1ddc38b0033b685a0bde6106ba1" target="_top" xlink:title="pdal::FileUtils::fileExists">
<polygon fill="white" stroke="black" points="781,-114.5 781,-133.5 904,-133.5 904,-114.5 781,-114.5"/>
<text text-anchor="middle" x="842.5" y="-121.5" font-family="Helvetica,sans-Serif" font-size="10.00">pdal::FileUtils::fileExists</text>
</a>
</g>
</g>
<!-- Node5&#45;&gt;Node10 -->
<g id="edge10" class="edge"><title>Node5&#45;&gt;Node10</title>
<path fill="none" stroke="midnightblue" d="M708.282,-150.564C720.016,-148.026 732.429,-145.383 744,-143 756.195,-140.488 769.267,-137.882 781.75,-135.434"/>
<polygon fill="midnightblue" stroke="midnightblue" points="782.464,-138.861 791.608,-133.51 781.122,-131.991 782.464,-138.861"/>
</g>
<!-- Node13 -->
<g id="node13" class="node"><title>Node13</title>
<g id="a_node13"><a xlink:href="namespacepdal_1_1FileUtils.html#acfbe324737d031ab2650a56c6d50c776" target="_top" xlink:title="pdal::FileUtils::isDirectory">
<polygon fill="white" stroke="black" points="777.5,-76.5 777.5,-95.5 907.5,-95.5 907.5,-76.5 777.5,-76.5"/>
<text text-anchor="middle" x="842.5" y="-83.5" font-family="Helvetica,sans-Serif" font-size="10.00">pdal::FileUtils::isDirectory</text>
</a>
</g>
</g>
<!-- Node5&#45;&gt;Node13 -->
<g id="edge13" class="edge"><title>Node5&#45;&gt;Node13</title>
<path fill="none" stroke="midnightblue" d="M675.11,-146.802C692.058,-133.741 718.291,-115.415 744,-105 751.443,-101.985 759.404,-99.4376 767.449,-97.2883"/>
<polygon fill="midnightblue" stroke="midnightblue" points="768.406,-100.657 777.274,-94.8591 766.726,-93.8617 768.406,-100.657"/>
</g>
<!-- Node14 -->
<g id="node14" class="node"><title>Node14</title>
<g id="a_node14"><a xlink:href="namespacepdal_1_1FileUtils.html#af4165597419cf00a2ff9cea447ea6c33" target="_top" xlink:title="pdal::FileUtils::directoryList">
<polygon fill="white" stroke="black" points="774.5,-38.5 774.5,-57.5 910.5,-57.5 910.5,-38.5 774.5,-38.5"/>
<text text-anchor="middle" x="842.5" y="-45.5" font-family="Helvetica,sans-Serif" font-size="10.00">pdal::FileUtils::directoryList</text>
</a>
</g>
</g>
<!-- Node5&#45;&gt;Node14 -->
<g id="edge14" class="edge"><title>Node5&#45;&gt;Node14</title>
<path fill="none" stroke="midnightblue" d="M665.976,-146.699C680.142,-125.222 708.96,-86.5752 744,-67 750.417,-63.4149 757.401,-60.4969 764.584,-58.1233"/>
<polygon fill="midnightblue" stroke="midnightblue" points="765.864,-61.3949 774.468,-55.2124 763.887,-54.68 765.864,-61.3949"/>
</g>
<!-- Node15 -->
<g id="node15" class="node"><title>Node15</title>
<g id="a_node15"><a xlink:href="namespacepdal_1_1FileUtils.html#ae3c153961947c766ab18099f7ef71fc1" target="_top" xlink:title="pdal::FileUtils::extension">
<polygon fill="white" stroke="black" points="780,-0.5 780,-19.5 905,-19.5 905,-0.5 780,-0.5"/>
<text text-anchor="middle" x="842.5" y="-7.5" font-family="Helvetica,sans-Serif" font-size="10.00">pdal::FileUtils::extension</text>
</a>
</g>
</g>
<!-- Node5&#45;&gt;Node15 -->
<g id="edge15" class="edge"><title>Node5&#45;&gt;Node15</title>
<path fill="none" stroke="midnightblue" d="M661.908,-146.76C672.743,-118.59 699.924,-58.5544 744,-29 751.867,-23.7251 760.846,-19.839 770.097,-16.9886"/>
<polygon fill="midnightblue" stroke="midnightblue" points="771.055,-20.3556 779.802,-14.3784 769.236,-13.5959 771.055,-20.3556"/>
</g>
<!-- Node16 -->
<g id="node16" class="node"><title>Node16</title>
<g id="a_node16"><a xlink:href="namespacepdal_1_1FileUtils.html#a3bdadae2f0ef6896942c02e9a9c81e00" target="_top" xlink:title="pdal::FileUtils::stem">
<polygon fill="white" stroke="black" points="790.5,-190.5 790.5,-209.5 894.5,-209.5 894.5,-190.5 790.5,-190.5"/>
<text text-anchor="middle" x="842.5" y="-197.5" font-family="Helvetica,sans-Serif" font-size="10.00">pdal::FileUtils::stem</text>
</a>
</g>
</g>
<!-- Node5&#45;&gt;Node16 -->
<g id="edge16" class="edge"><title>Node5&#45;&gt;Node16</title>
<path fill="none" stroke="midnightblue" d="M708.282,-173.436C720.016,-175.974 732.429,-178.617 744,-181 756.195,-183.512 769.267,-186.118 781.75,-188.566"/>
<polygon fill="midnightblue" stroke="midnightblue" points="781.122,-192.009 791.608,-190.49 782.464,-185.139 781.122,-192.009"/>
</g>
<!-- Node18 -->
<g id="node18" class="node"><title>Node18</title>
<g id="a_node18"><a xlink:href="namespacepdal_1_1Dimension.html#a880d689fed54aa3ded6f88c9e058c5d2" target="_top" xlink:title="pdal::Dimension::type">
<polygon fill="white" stroke="black" points="786.5,-152.5 786.5,-171.5 898.5,-171.5 898.5,-152.5 786.5,-152.5"/>
<text text-anchor="middle" x="842.5" y="-159.5" font-family="Helvetica,sans-Serif" font-size="10.00">pdal::Dimension::type</text>
</a>
</g>
</g>
<!-- Node5&#45;&gt;Node18 -->
<g id="edge18" class="edge"><title>Node5&#45;&gt;Node18</title>
<path fill="none" stroke="midnightblue" d="M708.033,-162C729.172,-162 753.888,-162 776.266,-162"/>
<polygon fill="midnightblue" stroke="midnightblue" points="776.362,-165.5 786.362,-162 776.362,-158.5 776.362,-165.5"/>
</g>
<!-- Node20 -->
<g id="node20" class="node"><title>Node20</title>
<g id="a_node20"><a xlink:href="classpdal_1_1PluginManager.html#a3344bf0a8d35b309b26cb23ae5fa3579" target="_top" xlink:title="pdal::PluginManager\l::loadByPath">
<polygon fill="white" stroke="black" points="790,-241 790,-271 895,-271 895,-241 790,-241"/>
<text text-anchor="start" x="798" y="-259" font-family="Helvetica,sans-Serif" font-size="10.00">pdal::PluginManager</text>
<text text-anchor="middle" x="842.5" y="-248" font-family="Helvetica,sans-Serif" font-size="10.00">::loadByPath</text>
</a>
</g>
</g>
<!-- Node5&#45;&gt;Node20 -->
<g id="edge20" class="edge"><title>Node5&#45;&gt;Node20</title>
<path fill="none" stroke="midnightblue" d="M676.958,-177.137C694.226,-189.463 719.916,-206.765 744,-219 757.246,-225.729 772.019,-231.946 785.978,-237.288"/>
<polygon fill="midnightblue" stroke="midnightblue" points="784.891,-240.618 795.484,-240.842 787.342,-234.061 784.891,-240.618"/>
</g>
<!-- Node7&#45;&gt;Node6 -->
<g id="edge8" class="edge"><title>Node7&#45;&gt;Node6</title>
<path fill="none" stroke="midnightblue" d="M880.138,-484.093C906.696,-494.626 943.651,-508.454 977,-518 988.758,-521.366 1001.53,-524.404 1013.68,-527.013"/>
<polygon fill="midnightblue" stroke="midnightblue" points="1013.21,-530.489 1023.71,-529.102 1014.64,-523.637 1013.21,-530.489"/>
</g>
<!-- Node8 -->
<g id="node8" class="node"><title>Node8</title>
<g id="a_node8"><a xlink:href="namespacepdal_1_1Utils.html#a280847d8a85057a3cfe513abec5c6527" target="_top" xlink:title="pdal::Utils::getenv">
<polygon fill="white" stroke="black" points="1021,-489.5 1021,-508.5 1117,-508.5 1117,-489.5 1021,-489.5"/>
<text text-anchor="middle" x="1069" y="-496.5" font-family="Helvetica,sans-Serif" font-size="10.00">pdal::Utils::getenv</text>
</a>
</g>
</g>
<!-- Node7&#45;&gt;Node8 -->
<g id="edge7" class="edge"><title>Node7&#45;&gt;Node8</title>
<path fill="none" stroke="midnightblue" d="M941.316,-482.071C965.077,-485.246 989.716,-488.539 1010.88,-491.367"/>
<polygon fill="midnightblue" stroke="midnightblue" points="1010.59,-494.86 1020.97,-492.715 1011.52,-487.921 1010.59,-494.86"/>
</g>
<!-- Node9 -->
<g id="node9" class="node"><title>Node9</title>
<g id="a_node9"><a xlink:href="namespacepdal_1_1FileUtils.html#a538c47da3e98daa37d68b568ca849ac9" target="_top" xlink:title="pdal::FileUtils::toAbsolutePath">
<polygon fill="white" stroke="black" points="1197,-410.5 1197,-429.5 1346,-429.5 1346,-410.5 1197,-410.5"/>
<text text-anchor="middle" x="1271.5" y="-417.5" font-family="Helvetica,sans-Serif" font-size="10.00">pdal::FileUtils::toAbsolutePath</text>
</a>
</g>
</g>
<!-- Node7&#45;&gt;Node9 -->
<g id="edge9" class="edge"><title>Node7&#45;&gt;Node9</title>
<path fill="none" stroke="midnightblue" d="M941.277,-460.51C1004.14,-454.715 1087.5,-446.403 1161,-437 1174.59,-435.262 1189.09,-433.175 1202.95,-431.068"/>
<polygon fill="midnightblue" stroke="midnightblue" points="1203.55,-434.517 1212.9,-429.535 1202.48,-427.598 1203.55,-434.517"/>
</g>
<!-- Node11 -->
<g id="node11" class="node"><title>Node11</title>
<g id="a_node11"><a xlink:href="namespacepdal_1_1anonymous__namespace_02FileUtils_8cpp_03.html#a813a530ad72d50f747643f1bb996cacf" target="_top" xlink:title="pdal::anonymous_namespace\l\{FileUtils::cpp\}::isStdin">
<polygon fill="white" stroke="black" points="996,-91 996,-121 1142,-121 1142,-91 996,-91"/>
<text text-anchor="start" x="1004" y="-109" font-family="Helvetica,sans-Serif" font-size="10.00">pdal::anonymous_namespace</text>
<text text-anchor="middle" x="1069" y="-98" font-family="Helvetica,sans-Serif" font-size="10.00">{FileUtils::cpp}::isStdin</text>
</a>
</g>
</g>
<!-- Node10&#45;&gt;Node11 -->
<g id="edge11" class="edge"><title>Node10&#45;&gt;Node11</title>
<path fill="none" stroke="midnightblue" d="M904.253,-119.129C929.24,-117.126 958.573,-114.774 985.457,-112.618"/>
<polygon fill="midnightblue" stroke="midnightblue" points="985.938,-116.091 995.626,-111.803 985.378,-109.113 985.938,-116.091"/>
</g>
<!-- Node12 -->
<g id="node12" class="node"><title>Node12</title>
<g id="a_node12"><a xlink:href="namespacepdal_1_1Utils.html#a28e3e2faff94b20f9908e77bc54ed983" target="_top" xlink:title="pdal::Utils::toupper">
<polygon fill="white" stroke="black" points="1222,-96.5 1222,-115.5 1321,-115.5 1321,-96.5 1222,-96.5"/>
<text text-anchor="middle" x="1271.5" y="-103.5" font-family="Helvetica,sans-Serif" font-size="10.00">pdal::Utils::toupper</text>
</a>
</g>
</g>
<!-- Node11&#45;&gt;Node12 -->
<g id="edge12" class="edge"><title>Node11&#45;&gt;Node12</title>
<path fill="none" stroke="midnightblue" d="M1142.1,-106C1164.97,-106 1189.98,-106 1211.79,-106"/>
<polygon fill="midnightblue" stroke="midnightblue" points="1211.89,-109.5 1221.89,-106 1211.89,-102.5 1211.89,-109.5"/>
</g>
<!-- Node17 -->
<g id="node17" class="node"><title>Node17</title>
<g id="a_node17"><a xlink:href="namespacepdal_1_1FileUtils.html#a0d150fac3c099a0646763f1b862cac73" target="_top" xlink:title="pdal::FileUtils::getFilename">
<polygon fill="white" stroke="black" points="1001,-178.5 1001,-197.5 1137,-197.5 1137,-178.5 1001,-178.5"/>
<text text-anchor="middle" x="1069" y="-185.5" font-family="Helvetica,sans-Serif" font-size="10.00">pdal::FileUtils::getFilename</text>
</a>
</g>
</g>
<!-- Node16&#45;&gt;Node17 -->
<g id="edge17" class="edge"><title>Node16&#45;&gt;Node17</title>
<path fill="none" stroke="midnightblue" d="M894.723,-197.262C923.1,-195.745 958.951,-193.829 990.671,-192.133"/>
<polygon fill="midnightblue" stroke="midnightblue" points="991.011,-195.62 1000.81,-191.591 990.637,-188.63 991.011,-195.62"/>
</g>
<!-- Node19 -->
<g id="node19" class="node"><title>Node19</title>
<g id="a_node19"><a xlink:href="namespacepdal_1_1Utils.html#a5268937cf695835e55392f752dc02cb2" target="_top" xlink:title="pdal::Utils::tolower">
<polygon fill="white" stroke="black" points="1020,-140.5 1020,-159.5 1118,-159.5 1118,-140.5 1020,-140.5"/>
<text text-anchor="middle" x="1069" y="-147.5" font-family="Helvetica,sans-Serif" font-size="10.00">pdal::Utils::tolower</text>
</a>
</g>
</g>
<!-- Node18&#45;&gt;Node19 -->
<g id="edge19" class="edge"><title>Node18&#45;&gt;Node19</title>
<path fill="none" stroke="midnightblue" d="M898.706,-159.049C932.356,-157.25 975.321,-154.954 1009.55,-153.124"/>
<polygon fill="midnightblue" stroke="midnightblue" points="1010.07,-156.602 1019.87,-152.573 1009.7,-149.612 1010.07,-156.602"/>
</g>
<!-- Node20&#45;&gt;Node9 -->
<g id="edge28" class="edge"><title>Node20&#45;&gt;Node9</title>
<path fill="none" stroke="midnightblue" d="M851.703,-271.278C869.592,-302.813 915.49,-374.616 977,-404 1047.66,-437.756 1139.07,-436.792 1200.96,-430.603"/>
<polygon fill="midnightblue" stroke="midnightblue" points="1201.45,-434.072 1211.02,-429.526 1200.7,-427.111 1201.45,-434.072"/>
</g>
<!-- Node20&#45;&gt;Node17 -->
<g id="edge22" class="edge"><title>Node20&#45;&gt;Node17</title>
<path fill="none" stroke="midnightblue" d="M881.34,-240.92C907.837,-230.726 944.223,-217.452 977,-208 987.353,-205.015 998.479,-202.229 1009.27,-199.741"/>
<polygon fill="midnightblue" stroke="midnightblue" points="1010.07,-203.148 1019.07,-197.542 1008.54,-196.318 1010.07,-203.148"/>
</g>
<!-- Node20&#45;&gt;Node19 -->
<g id="edge21" class="edge"><title>Node20&#45;&gt;Node19</title>
<path fill="none" stroke="midnightblue" d="M895.251,-242.662C910.947,-237.022 927.572,-229.308 941,-219 962.72,-202.325 954.04,-183.922 977,-169 986.734,-162.674 998.182,-158.403 1009.61,-155.531"/>
<polygon fill="midnightblue" stroke="midnightblue" points="1010.58,-158.902 1019.61,-153.352 1009.09,-152.062 1010.58,-158.902"/>
</g>
<!-- Node21 -->
<g id="node21" class="node"><title>Node21</title>
<g id="a_node21"><a xlink:href="namespacepdal_1_1anonymous__namespace_02PluginManager_8cpp_03.html#a96b6f972ce14621acdc2ef6579cab857" target="_top" xlink:title="pdal::anonymous_namespace\l\{PluginManager::cpp\}::pluginTypeValid">
<polygon fill="white" stroke="black" points="977,-266 977,-296 1161,-296 1161,-266 977,-266"/>
<text text-anchor="start" x="985" y="-284" font-family="Helvetica,sans-Serif" font-size="10.00">pdal::anonymous_namespace</text>
<text text-anchor="middle" x="1069" y="-273" font-family="Helvetica,sans-Serif" font-size="10.00">{PluginManager::cpp}::pluginTypeValid</text>
</a>
</g>
</g>
<!-- Node20&#45;&gt;Node21 -->
<g id="edge23" class="edge"><title>Node20&#45;&gt;Node21</title>
<path fill="none" stroke="midnightblue" d="M895.005,-261.736C916.281,-264.105 941.724,-266.938 966.466,-269.693"/>
<polygon fill="midnightblue" stroke="midnightblue" points="966.315,-273.198 976.64,-270.826 967.089,-266.241 966.315,-273.198"/>
</g>
<!-- Node23 -->
<g id="node23" class="node"><title>Node23</title>
<g id="a_node23"><a xlink:href="classpdal_1_1PluginManager.html#a05f55dd74e4883b9a8bca6ebbadda5bd" target="_top" xlink:title="pdal::PluginManager\l::libraryLoaded">
<polygon fill="white" stroke="black" points="1016.5,-364 1016.5,-394 1121.5,-394 1121.5,-364 1016.5,-364"/>
<text text-anchor="start" x="1024.5" y="-382" font-family="Helvetica,sans-Serif" font-size="10.00">pdal::PluginManager</text>
<text text-anchor="middle" x="1069" y="-371" font-family="Helvetica,sans-Serif" font-size="10.00">::libraryLoaded</text>
</a>
</g>
</g>
<!-- Node20&#45;&gt;Node23 -->
<g id="edge25" class="edge"><title>Node20&#45;&gt;Node23</title>
<path fill="none" stroke="midnightblue" d="M859.434,-271.047C883.204,-292.699 930.187,-332.503 977,-355 986.263,-359.451 996.467,-363.164 1006.59,-366.233"/>
<polygon fill="midnightblue" stroke="midnightblue" points="1005.66,-369.608 1016.24,-368.98 1007.58,-362.875 1005.66,-369.608"/>
</g>
<!-- Node25 -->
<g id="node25" class="node"><title>Node25</title>
<g id="a_node25"><a xlink:href="classpdal_1_1PluginManager.html#a37dc2ebab8261695d3d42038046cd5e4" target="_top" xlink:title="pdal::PluginManager\l::loadLibrary">
<polygon fill="white" stroke="black" points="1016.5,-315 1016.5,-345 1121.5,-345 1121.5,-315 1016.5,-315"/>
<text text-anchor="start" x="1024.5" y="-333" font-family="Helvetica,sans-Serif" font-size="10.00">pdal::PluginManager</text>
<text text-anchor="middle" x="1069" y="-322" font-family="Helvetica,sans-Serif" font-size="10.00">::loadLibrary</text>
</a>
</g>
</g>
<!-- Node20&#45;&gt;Node25 -->
<g id="edge29" class="edge"><title>Node20&#45;&gt;Node25</title>
<path fill="none" stroke="midnightblue" d="M880.553,-271.022C907.152,-281.524 943.983,-295.492 977,-306 986.458,-309.01 996.552,-311.943 1006.45,-314.666"/>
<polygon fill="midnightblue" stroke="midnightblue" points="1005.68,-318.084 1016.25,-317.314 1007.5,-311.326 1005.68,-318.084"/>
</g>
<!-- Node28 -->
<g id="node28" class="node"><title>Node28</title>
<g id="a_node28"><a xlink:href="classpdal_1_1PluginManager.html#ae9e94964092e0fdb6be63484e5e69e9f" target="_top" xlink:title="pdal::PluginManager\l::initializePlugin">
<polygon fill="white" stroke="black" points="1016.5,-217 1016.5,-247 1121.5,-247 1121.5,-217 1016.5,-217"/>
<text text-anchor="start" x="1024.5" y="-235" font-family="Helvetica,sans-Serif" font-size="10.00">pdal::PluginManager</text>
<text text-anchor="middle" x="1069" y="-224" font-family="Helvetica,sans-Serif" font-size="10.00">::initializePlugin</text>
</a>
</g>
</g>
<!-- Node20&#45;&gt;Node28 -->
<g id="edge33" class="edge"><title>Node20&#45;&gt;Node28</title>
<path fill="none" stroke="midnightblue" d="M895.005,-250.494C928.113,-246.955 971.311,-242.337 1006.26,-238.601"/>
<polygon fill="midnightblue" stroke="midnightblue" points="1006.78,-242.065 1016.35,-237.522 1006.03,-235.105 1006.78,-242.065"/>
</g>
<!-- Node22 -->
<g id="node22" class="node"><title>Node22</title>
<g id="a_node22"><a xlink:href="namespacepdal_1_1Utils.html#a28e27948fb8a4c1d958783d8a53bd784" target="_top" xlink:title="pdal::Utils::startsWith">
<polygon fill="white" stroke="black" points="1215.5,-271.5 1215.5,-290.5 1327.5,-290.5 1327.5,-271.5 1215.5,-271.5"/>
<text text-anchor="middle" x="1271.5" y="-278.5" font-family="Helvetica,sans-Serif" font-size="10.00">pdal::Utils::startsWith</text>
</a>
</g>
</g>
<!-- Node21&#45;&gt;Node22 -->
<g id="edge24" class="edge"><title>Node21&#45;&gt;Node22</title>
<path fill="none" stroke="midnightblue" d="M1161.16,-281C1176.06,-281 1191.23,-281 1205.34,-281"/>
<polygon fill="midnightblue" stroke="midnightblue" points="1205.4,-284.5 1215.4,-281 1205.4,-277.5 1205.4,-284.5"/>
</g>
<!-- Node23&#45;&gt;Node9 -->
<g id="edge26" class="edge"><title>Node23&#45;&gt;Node9</title>
<path fill="none" stroke="midnightblue" d="M1121.63,-389.559C1149.86,-395.331 1184.88,-402.492 1213.86,-408.418"/>
<polygon fill="midnightblue" stroke="midnightblue" points="1213.34,-411.884 1223.84,-410.458 1214.74,-405.026 1213.34,-411.884"/>
</g>
<!-- Node24 -->
<g id="node24" class="node"><title>Node24</title>
<g id="a_node24"><a xlink:href="namespacepdal_1_1Utils.html#a3e140e4c0c21d020c56c0b8d58b8cb5b" target="_top" xlink:title="pdal::Utils::contains">
<polygon fill="white" stroke="black" points="1219.5,-369.5 1219.5,-388.5 1323.5,-388.5 1323.5,-369.5 1219.5,-369.5"/>
<text text-anchor="middle" x="1271.5" y="-376.5" font-family="Helvetica,sans-Serif" font-size="10.00">pdal::Utils::contains</text>
</a>
</g>
</g>
<!-- Node23&#45;&gt;Node24 -->
<g id="edge27" class="edge"><title>Node23&#45;&gt;Node24</title>
<path fill="none" stroke="midnightblue" d="M1121.63,-379C1148.4,-379 1181.26,-379 1209.3,-379"/>
<polygon fill="midnightblue" stroke="midnightblue" points="1209.39,-382.5 1219.39,-379 1209.39,-375.5 1209.39,-382.5"/>
</g>
<!-- Node25&#45;&gt;Node9 -->
<g id="edge32" class="edge"><title>Node25&#45;&gt;Node9</title>
<path fill="none" stroke="midnightblue" d="M1121.88,-338.488C1135.31,-342.189 1149.28,-347.474 1161,-355 1181.97,-368.47 1176.18,-384.293 1197,-398 1202.26,-401.461 1208.08,-404.394 1214.07,-406.876"/>
<polygon fill="midnightblue" stroke="midnightblue" points="1212.99,-410.208 1223.59,-410.416 1215.43,-403.648 1212.99,-410.208"/>
</g>
<!-- Node26 -->
<g id="node26" class="node"><title>Node26</title>
<g id="a_node26"><a xlink:href="classpdal_1_1DynamicLibrary.html#afa96ce1595f15fb125e13c827902f030" target="_top" xlink:title="pdal::DynamicLibrary\l::load">
<polygon fill="white" stroke="black" points="1217,-315 1217,-345 1326,-345 1326,-315 1217,-315"/>
<text text-anchor="start" x="1225" y="-333" font-family="Helvetica,sans-Serif" font-size="10.00">pdal::DynamicLibrary</text>
<text text-anchor="middle" x="1271.5" y="-322" font-family="Helvetica,sans-Serif" font-size="10.00">::load</text>
</a>
</g>
</g>
<!-- Node25&#45;&gt;Node26 -->
<g id="edge30" class="edge"><title>Node25&#45;&gt;Node26</title>
<path fill="none" stroke="midnightblue" d="M1121.63,-330C1147.56,-330 1179.21,-330 1206.65,-330"/>
<polygon fill="midnightblue" stroke="midnightblue" points="1206.94,-333.5 1216.94,-330 1206.94,-326.5 1206.94,-333.5"/>
</g>
<!-- Node27 -->
<g id="node27" class="node"><title>Node27</title>
<g id="a_node27"><a xlink:href="classpdal_1_1DynamicLibrary.html#a48b54a6222a25732cc80500f52f3e618" target="_top" xlink:title="pdal::DynamicLibrary\l::DynamicLibrary">
<polygon fill="white" stroke="black" points="1382,-315 1382,-345 1491,-345 1491,-315 1382,-315"/>
<text text-anchor="start" x="1390" y="-333" font-family="Helvetica,sans-Serif" font-size="10.00">pdal::DynamicLibrary</text>
<text text-anchor="middle" x="1436.5" y="-322" font-family="Helvetica,sans-Serif" font-size="10.00">::DynamicLibrary</text>
</a>
</g>
</g>
<!-- Node26&#45;&gt;Node27 -->
<g id="edge31" class="edge"><title>Node26&#45;&gt;Node27</title>
<path fill="none" stroke="midnightblue" d="M1326.32,-330C1340.79,-330 1356.58,-330 1371.53,-330"/>
<polygon fill="midnightblue" stroke="midnightblue" points="1371.73,-333.5 1381.73,-330 1371.73,-326.5 1371.73,-333.5"/>
</g>
<!-- Node29 -->
<g id="node29" class="node"><title>Node29</title>
<g id="a_node29"><a xlink:href="classpdal_1_1PluginManager.html#a8a847508c24b6a254ae8eaba06c0069a" target="_top" xlink:title="pdal::PluginManager\l::l_initializePlugin">
<polygon fill="white" stroke="black" points="1219,-217 1219,-247 1324,-247 1324,-217 1219,-217"/>
<text text-anchor="start" x="1227" y="-235" font-family="Helvetica,sans-Serif" font-size="10.00">pdal::PluginManager</text>
<text text-anchor="middle" x="1271.5" y="-224" font-family="Helvetica,sans-Serif" font-size="10.00">::l_initializePlugin</text>
</a>
</g>
</g>
<!-- Node28&#45;&gt;Node29 -->
<g id="edge34" class="edge"><title>Node28&#45;&gt;Node29</title>
<path fill="none" stroke="midnightblue" d="M1121.63,-232C1148.19,-232 1180.76,-232 1208.65,-232"/>
<polygon fill="midnightblue" stroke="midnightblue" points="1208.69,-235.5 1218.69,-232 1208.69,-228.5 1208.69,-235.5"/>
</g>
<!-- Node31 -->
<g id="node31" class="node"><title>Node31</title>
<g id="a_node31"><a xlink:href="namespacehag.html#acad63bbd5fdda01bf56ff6aae70a0192" target="_top" xlink:title="hag.read">
<polygon fill="white" stroke="black" points="346.5,-108.5 346.5,-127.5 400.5,-127.5 400.5,-108.5 346.5,-108.5"/>
<text text-anchor="middle" x="373.5" y="-115.5" font-family="Helvetica,sans-Serif" font-size="10.00">hag.read</text>
</a>
</g>
</g>
<!-- Node30&#45;&gt;Node31 -->
<g id="edge36" class="edge"><title>Node30&#45;&gt;Node31</title>
<path fill="none" stroke="midnightblue" d="M244.209,-118C269.477,-118 307.934,-118 336.155,-118"/>
<polygon fill="midnightblue" stroke="midnightblue" points="336.421,-121.5 346.421,-118 336.421,-114.5 336.421,-121.5"/>
</g>
<!-- Node32 -->
<g id="node32" class="node"><title>Node32</title>
<g id="a_node32"><a xlink:href="namespacehag.html#aee422d0ebdb1730554711d82498e54c3" target="_top" xlink:title="hag.wakeup">
<polygon fill="white" stroke="black" points="339,-70.5 339,-89.5 408,-89.5 408,-70.5 339,-70.5"/>
<text text-anchor="middle" x="373.5" y="-77.5" font-family="Helvetica,sans-Serif" font-size="10.00">hag.wakeup</text>
</a>
</g>
</g>
<!-- Node30&#45;&gt;Node32 -->
<g id="edge37" class="edge"><title>Node30&#45;&gt;Node32</title>
<path fill="none" stroke="midnightblue" d="M244.209,-111.554C267.442,-105.84 301.824,-97.3832 329.148,-90.6627"/>
<polygon fill="midnightblue" stroke="midnightblue" points="329.987,-94.0608 338.861,-88.2736 328.315,-87.2634 329.987,-94.0608"/>
</g>
</g>
</svg>
