<?xml version="1.0" encoding="UTF-8" standalone="no"?>
<!DOCTYPE svg PUBLIC "-//W3C//DTD SVG 1.1//EN"
 "http://www.w3.org/Graphics/SVG/1.1/DTD/svg11.dtd">
<!-- Generated by graphviz version 2.38.0 (20140413.2041)
 -->
<!-- Title: pdal::Options::fromFile Pages: 1 -->
<svg width="924pt" height="142pt"
 viewBox="0.00 0.00 924.00 142.00" xmlns="http://www.w3.org/2000/svg" xmlns:xlink="http://www.w3.org/1999/xlink">
<g id="graph0" class="graph" transform="scale(1 1) rotate(0) translate(4 138)">
<title>pdal::Options::fromFile</title>
<polygon fill="white" stroke="none" points="-4,4 -4,-138 920,-138 920,4 -4,4"/>
<!-- Node1 -->
<g id="node1" class="node"><title>Node1</title>
<polygon fill="#bfbfbf" stroke="black" points="0,-76.5 0,-95.5 116,-95.5 116,-76.5 0,-76.5"/>
<text text-anchor="middle" x="58" y="-83.5" font-family="Helvetica,sans-Serif" font-size="10.00">pdal::Options::fromFile</text>
</g>
<!-- Node2 -->
<g id="node2" class="node"><title>Node2</title>
<g id="a_node2"><a xlink:href="namespacepdal_1_1Utils.html#a9bda8c5dbe5ef7cf66e99ba022184934" target="_top" xlink:title="pdal::Utils::extractSpaces">
<polygon fill="white" stroke="black" points="152,-114.5 152,-133.5 282,-133.5 282,-114.5 152,-114.5"/>
<text text-anchor="middle" x="217" y="-121.5" font-family="Helvetica,sans-Serif" font-size="10.00">pdal::Utils::extractSpaces</text>
</a>
</g>
</g>
<!-- Node1&#45;&gt;Node2 -->
<g id="edge1" class="edge"><title>Node1&#45;&gt;Node2</title>
<path fill="none" stroke="midnightblue" d="M98.6177,-95.589C119.336,-100.604 144.888,-106.788 166.856,-112.105"/>
<polygon fill="midnightblue" stroke="midnightblue" points="166.124,-115.529 176.667,-114.48 167.771,-108.726 166.124,-115.529"/>
</g>
<!-- Node4 -->
<g id="node4" class="node"><title>Node4</title>
<g id="a_node4"><a xlink:href="namespacepdal_1_1FileUtils.html#ae2b8f1ddc38b0033b685a0bde6106ba1" target="_top" xlink:title="pdal::FileUtils::fileExists">
<polygon fill="white" stroke="black" points="476,-76.5 476,-95.5 599,-95.5 599,-76.5 476,-76.5"/>
<text text-anchor="middle" x="537.5" y="-83.5" font-family="Helvetica,sans-Serif" font-size="10.00">pdal::FileUtils::fileExists</text>
</a>
</g>
</g>
<!-- Node1&#45;&gt;Node4 -->
<g id="edge3" class="edge"><title>Node1&#45;&gt;Node4</title>
<path fill="none" stroke="midnightblue" d="M116.123,-86C203.66,-86 370.803,-86 465.836,-86"/>
<polygon fill="midnightblue" stroke="midnightblue" points="465.929,-89.5001 475.929,-86 465.929,-82.5001 465.929,-89.5001"/>
</g>
<!-- Node7 -->
<g id="node7" class="node"><title>Node7</title>
<g id="a_node7"><a xlink:href="namespacepdal_1_1FileUtils.html#a183613921413dc5f8fe3efe45763945c" target="_top" xlink:title="pdal::FileUtils::readFile\lIntoString">
<polygon fill="white" stroke="black" points="158.5,-27 158.5,-57 275.5,-57 275.5,-27 158.5,-27"/>
<text text-anchor="start" x="166.5" y="-45" font-family="Helvetica,sans-Serif" font-size="10.00">pdal::FileUtils::readFile</text>
<text text-anchor="middle" x="217" y="-34" font-family="Helvetica,sans-Serif" font-size="10.00">IntoString</text>
</a>
</g>
</g>
<!-- Node1&#45;&gt;Node7 -->
<g id="edge6" class="edge"><title>Node1&#45;&gt;Node7</title>
<path fill="none" stroke="midnightblue" d="M93.0667,-76.4527C110.427,-71.5872 132.111,-65.5102 152.413,-59.8204"/>
<polygon fill="midnightblue" stroke="midnightblue" points="153.56,-63.1342 162.244,-57.0654 151.671,-56.3939 153.56,-63.1342"/>
</g>
<!-- Node3 -->
<g id="node3" class="node"><title>Node3</title>
<g id="a_node3"><a xlink:href="namespacepdal_1_1Utils.html#acae5a19cd66121b77e2599daec48413d" target="_top" xlink:title="pdal::Utils::extract">
<polygon fill="white" stroke="black" points="330.5,-114.5 330.5,-133.5 427.5,-133.5 427.5,-114.5 330.5,-114.5"/>
<text text-anchor="middle" x="379" y="-121.5" font-family="Helvetica,sans-Serif" font-size="10.00">pdal::Utils::extract</text>
</a>
</g>
</g>
<!-- Node2&#45;&gt;Node3 -->
<g id="edge2" class="edge"><title>Node2&#45;&gt;Node3</title>
<path fill="none" stroke="midnightblue" d="M282.156,-124C294.654,-124 307.689,-124 319.974,-124"/>
<polygon fill="midnightblue" stroke="midnightblue" points="320.09,-127.5 330.09,-124 320.09,-120.5 320.09,-127.5"/>
</g>
<!-- Node5 -->
<g id="node5" class="node"><title>Node5</title>
<g id="a_node5"><a xlink:href="namespacepdal_1_1anonymous__namespace_02FileUtils_8cpp_03.html#a813a530ad72d50f747643f1bb996cacf" target="_top" xlink:title="pdal::anonymous_namespace\l\{FileUtils::cpp\}::isStdin">
<polygon fill="white" stroke="black" points="635,-52 635,-82 781,-82 781,-52 635,-52"/>
<text text-anchor="start" x="643" y="-70" font-family="Helvetica,sans-Serif" font-size="10.00">pdal::anonymous_namespace</text>
<text text-anchor="middle" x="708" y="-59" font-family="Helvetica,sans-Serif" font-size="10.00">{FileUtils::cpp}::isStdin</text>
</a>
</g>
</g>
<!-- Node4&#45;&gt;Node5 -->
<g id="edge4" class="edge"><title>Node4&#45;&gt;Node5</title>
<path fill="none" stroke="midnightblue" d="M599.332,-79.1406C607.598,-78.2085 616.191,-77.2396 624.756,-76.2738"/>
<polygon fill="midnightblue" stroke="midnightblue" points="625.232,-79.7424 634.777,-75.1438 624.448,-72.7865 625.232,-79.7424"/>
</g>
<!-- Node6 -->
<g id="node6" class="node"><title>Node6</title>
<g id="a_node6"><a xlink:href="namespacepdal_1_1Utils.html#a28e3e2faff94b20f9908e77bc54ed983" target="_top" xlink:title="pdal::Utils::toupper">
<polygon fill="white" stroke="black" points="817,-57.5 817,-76.5 916,-76.5 916,-57.5 817,-57.5"/>
<text text-anchor="middle" x="866.5" y="-64.5" font-family="Helvetica,sans-Serif" font-size="10.00">pdal::Utils::toupper</text>
</a>
</g>
</g>
<!-- Node5&#45;&gt;Node6 -->
<g id="edge5" class="edge"><title>Node5&#45;&gt;Node6</title>
<path fill="none" stroke="midnightblue" d="M781.295,-67C789.742,-67 798.282,-67 806.518,-67"/>
<polygon fill="midnightblue" stroke="midnightblue" points="806.758,-70.5001 816.758,-67 806.758,-63.5001 806.758,-70.5001"/>
</g>
<!-- Node8 -->
<g id="node8" class="node"><title>Node8</title>
<g id="a_node8"><a xlink:href="namespacepdal_1_1FileUtils.html#aeeda62ff11a1e6bcc9175f51f7efe522" target="_top" xlink:title="pdal::FileUtils::openFile">
<polygon fill="white" stroke="black" points="319.5,-38.5 319.5,-57.5 438.5,-57.5 438.5,-38.5 319.5,-38.5"/>
<text text-anchor="middle" x="379" y="-45.5" font-family="Helvetica,sans-Serif" font-size="10.00">pdal::FileUtils::openFile</text>
</a>
</g>
</g>
<!-- Node7&#45;&gt;Node8 -->
<g id="edge7" class="edge"><title>Node7&#45;&gt;Node8</title>
<path fill="none" stroke="midnightblue" d="M275.764,-44.1661C286.592,-44.5722 298.01,-45.0004 309.136,-45.4176"/>
<polygon fill="midnightblue" stroke="midnightblue" points="309.121,-48.9194 319.245,-45.7967 309.384,-41.9243 309.121,-48.9194"/>
</g>
<!-- Node10 -->
<g id="node10" class="node"><title>Node10</title>
<g id="a_node10"><a xlink:href="namespacepdal_1_1FileUtils.html#a04d2d37c72f0f400f5d5b917b2f2ba05" target="_top" xlink:title="pdal::FileUtils::closeFile">
<polygon fill="white" stroke="black" points="318,-0.5 318,-19.5 440,-19.5 440,-0.5 318,-0.5"/>
<text text-anchor="middle" x="379" y="-7.5" font-family="Helvetica,sans-Serif" font-size="10.00">pdal::FileUtils::closeFile</text>
</a>
</g>
</g>
<!-- Node7&#45;&gt;Node10 -->
<g id="edge11" class="edge"><title>Node7&#45;&gt;Node10</title>
<path fill="none" stroke="midnightblue" d="M275.764,-30.4473C290.309,-27.5381 305.92,-24.4159 320.455,-21.5089"/>
<polygon fill="midnightblue" stroke="midnightblue" points="321.2,-24.9293 330.32,-19.5361 319.827,-18.0653 321.2,-24.9293"/>
</g>
<!-- Node8&#45;&gt;Node4 -->
<g id="edge10" class="edge"><title>Node8&#45;&gt;Node4</title>
<path fill="none" stroke="midnightblue" d="M419.492,-57.589C440.143,-62.6035 465.614,-68.7881 487.512,-74.1053"/>
<polygon fill="midnightblue" stroke="midnightblue" points="486.749,-77.5215 497.292,-76.4799 488.401,-70.7191 486.749,-77.5215"/>
</g>
<!-- Node8&#45;&gt;Node5 -->
<g id="edge9" class="edge"><title>Node8&#45;&gt;Node5</title>
<path fill="none" stroke="midnightblue" d="M438.839,-51.4188C490.704,-54.4323 566.81,-58.8544 624.707,-62.2184"/>
<polygon fill="midnightblue" stroke="midnightblue" points="624.743,-65.7264 634.929,-62.8124 625.149,-58.7382 624.743,-65.7264"/>
</g>
<!-- Node9 -->
<g id="node9" class="node"><title>Node9</title>
<g id="a_node9"><a xlink:href="namespacepdal_1_1Dimension.html#af3176b0b7e6b4be000317846cf7c2718" target="_top" xlink:title="pdal::Dimension::name">
<polygon fill="white" stroke="black" points="479,-0.5 479,-19.5 596,-19.5 596,-0.5 479,-0.5"/>
<text text-anchor="middle" x="537.5" y="-7.5" font-family="Helvetica,sans-Serif" font-size="10.00">pdal::Dimension::name</text>
</a>
</g>
</g>
<!-- Node8&#45;&gt;Node9 -->
<g id="edge8" class="edge"><title>Node8&#45;&gt;Node9</title>
<path fill="none" stroke="midnightblue" d="M419.492,-38.411C440.143,-33.3965 465.614,-27.2119 487.512,-21.8947"/>
<polygon fill="midnightblue" stroke="midnightblue" points="488.401,-25.2809 497.292,-19.5201 486.749,-18.4785 488.401,-25.2809"/>
</g>
</g>
</svg>
