<?xml version="1.0" encoding="UTF-8" standalone="no"?>
<!DOCTYPE svg PUBLIC "-//W3C//DTD SVG 1.1//EN"
 "http://www.w3.org/Graphics/SVG/1.1/DTD/svg11.dtd">
<!-- Generated by graphviz version 2.38.0 (20140413.2041)
 -->
<!-- Title: Support::configuredpath Pages: 1 -->
<svg width="403pt" height="262pt"
 viewBox="0.00 0.00 403.00 262.00" xmlns="http://www.w3.org/2000/svg" xmlns:xlink="http://www.w3.org/1999/xlink">
<g id="graph0" class="graph" transform="scale(1 1) rotate(0) translate(4 258)">
<title>Support::configuredpath</title>
<polygon fill="white" stroke="none" points="-4,4 -4,-258 399,-258 399,4 -4,4"/>
<!-- Node1 -->
<g id="node1" class="node"><title>Node1</title>
<polygon fill="#bfbfbf" stroke="black" points="0,-100.5 0,-119.5 120,-119.5 120,-100.5 0,-100.5"/>
<text text-anchor="middle" x="60" y="-107.5" font-family="Helvetica,sans-Serif" font-size="10.00">Support::configuredpath</text>
</g>
<!-- Node2 -->
<g id="node2" class="node"><title>Node2</title>
<g id="a_node2"><a xlink:href="namespaceanonymous__namespace_02pcpipelineTestJSON_8cpp_03.html#aa33d8022f870d86cca70cde7c401a7cd" target="_top" xlink:title="anonymous_namespace\l\{pcpipelineTestJSON\l::cpp\}::run_pipeline">
<polygon fill="white" stroke="black" points="157.5,-212.5 157.5,-253.5 279.5,-253.5 279.5,-212.5 157.5,-212.5"/>
<text text-anchor="start" x="165.5" y="-241.5" font-family="Helvetica,sans-Serif" font-size="10.00">anonymous_namespace</text>
<text text-anchor="start" x="165.5" y="-230.5" font-family="Helvetica,sans-Serif" font-size="10.00">{pcpipelineTestJSON</text>
<text text-anchor="middle" x="218.5" y="-219.5" font-family="Helvetica,sans-Serif" font-size="10.00">::cpp}::run_pipeline</text>
</a>
</g>
</g>
<!-- Node1&#45;&gt;Node2 -->
<g id="edge1" class="edge"><title>Node1&#45;&gt;Node2</title>
<path fill="none" stroke="midnightblue" d="M75.7267,-127.49C93.3027,-147.583 124.314,-180.65 156,-203 160.757,-206.355 165.946,-209.525 171.227,-212.458"/>
<polygon fill="midnightblue" stroke="midnightblue" points="78.2317,-125.035 69.0539,-119.742 72.9277,-129.603 78.2317,-125.035"/>
</g>
<!-- Node3 -->
<g id="node3" class="node"><title>Node3</title>
<g id="a_node3"><a xlink:href="PythonFilterTest_8cpp.html#a3b0e29c8ef9c682be47419dfa868bc91" target="_top" xlink:title="run_pipeline">
<polygon fill="white" stroke="black" points="184.5,-174.5 184.5,-193.5 252.5,-193.5 252.5,-174.5 184.5,-174.5"/>
<text text-anchor="middle" x="218.5" y="-181.5" font-family="Helvetica,sans-Serif" font-size="10.00">run_pipeline</text>
</a>
</g>
</g>
<!-- Node1&#45;&gt;Node3 -->
<g id="edge2" class="edge"><title>Node1&#45;&gt;Node3</title>
<path fill="none" stroke="midnightblue" d="M83.7308,-125.119C102.514,-137.125 130.19,-153.714 156,-165 165.01,-168.94 175.093,-172.416 184.446,-175.282"/>
<polygon fill="midnightblue" stroke="midnightblue" points="85.5671,-122.138 75.2717,-119.637 81.76,-128.013 85.5671,-122.138"/>
</g>
<!-- Node7 -->
<g id="node7" class="node"><title>Node7</title>
<g id="a_node7"><a xlink:href="namespaceanonymous__namespace_02pcpipelineTestJSON_8cpp_03.html#a4770adf10dd3cf8415754bb734f5ea4e" target="_top" xlink:title="anonymous_namespace\l\{pcpipelineTestJSON\l::cpp\}::run_pipeline_stdin">
<polygon fill="white" stroke="black" points="156,-114.5 156,-155.5 281,-155.5 281,-114.5 156,-114.5"/>
<text text-anchor="start" x="164" y="-143.5" font-family="Helvetica,sans-Serif" font-size="10.00">anonymous_namespace</text>
<text text-anchor="start" x="164" y="-132.5" font-family="Helvetica,sans-Serif" font-size="10.00">{pcpipelineTestJSON</text>
<text text-anchor="middle" x="218.5" y="-121.5" font-family="Helvetica,sans-Serif" font-size="10.00">::cpp}::run_pipeline_stdin</text>
</a>
</g>
</g>
<!-- Node1&#45;&gt;Node7 -->
<g id="edge6" class="edge"><title>Node1&#45;&gt;Node7</title>
<path fill="none" stroke="midnightblue" d="M130.144,-121.045C138.723,-122.416 147.45,-123.81 155.905,-125.161"/>
<polygon fill="midnightblue" stroke="midnightblue" points="130.593,-117.573 120.166,-119.451 129.489,-124.485 130.593,-117.573"/>
</g>
<!-- Node9 -->
<g id="node9" class="node"><title>Node9</title>
<g id="a_node9"><a xlink:href="namespacepdal.html#aa06938168593f61abd59b9a856423fe5" target="_top" xlink:title="pdal::TEST">
<polygon fill="white" stroke="black" points="185.5,-76.5 185.5,-95.5 251.5,-95.5 251.5,-76.5 185.5,-76.5"/>
<text text-anchor="middle" x="218.5" y="-83.5" font-family="Helvetica,sans-Serif" font-size="10.00">pdal::TEST</text>
</a>
</g>
</g>
<!-- Node1&#45;&gt;Node9 -->
<g id="edge8" class="edge"><title>Node1&#45;&gt;Node9</title>
<path fill="none" stroke="midnightblue" d="M130.152,-99.3952C149.427,-96.4393 169.448,-93.369 185.452,-90.9147"/>
<polygon fill="midnightblue" stroke="midnightblue" points="129.52,-95.9512 120.166,-100.927 130.581,-102.87 129.52,-95.9512"/>
</g>
<!-- Node10 -->
<g id="node10" class="node"><title>Node10</title>
<g id="a_node10"><a xlink:href="IcebridgeReaderTest_8cpp.html#a2dbac50759032cdb6bd09a9912a570c4" target="_top" xlink:title="TEST">
<polygon fill="white" stroke="black" points="197.5,-38.5 197.5,-57.5 239.5,-57.5 239.5,-38.5 197.5,-38.5"/>
<text text-anchor="middle" x="218.5" y="-45.5" font-family="Helvetica,sans-Serif" font-size="10.00">TEST</text>
</a>
</g>
</g>
<!-- Node1&#45;&gt;Node10 -->
<g id="edge9" class="edge"><title>Node1&#45;&gt;Node10</title>
<path fill="none" stroke="midnightblue" d="M89.4792,-95.9782C108.147,-87.0703 133.223,-75.6341 156,-67 169.584,-61.8505 185.231,-57.0314 197.343,-53.535"/>
<polygon fill="midnightblue" stroke="midnightblue" points="87.8374,-92.8841 80.3477,-100.378 90.8757,-99.1903 87.8374,-92.8841"/>
</g>
<!-- Node11 -->
<g id="node11" class="node"><title>Node11</title>
<g id="a_node11"><a xlink:href="PythonFilterTest_8cpp.html#ab2403002240c7f84a058b864ce05cda0" target="_top" xlink:title="TEST_F">
<polygon fill="white" stroke="black" points="192,-0.5 192,-19.5 245,-19.5 245,-0.5 192,-0.5"/>
<text text-anchor="middle" x="218.5" y="-7.5" font-family="Helvetica,sans-Serif" font-size="10.00">TEST_F</text>
</a>
</g>
</g>
<!-- Node1&#45;&gt;Node11 -->
<g id="edge10" class="edge"><title>Node1&#45;&gt;Node11</title>
<path fill="none" stroke="midnightblue" d="M76.9546,-92.7385C94.6632,-74.5193 124.873,-46.1192 156,-29 167.065,-22.9146 180.344,-18.4995 191.727,-15.4658"/>
<polygon fill="midnightblue" stroke="midnightblue" points="74.1006,-90.6603 69.7396,-100.316 79.1701,-95.4874 74.1006,-90.6603"/>
</g>
<!-- Node4 -->
<g id="node4" class="node"><title>Node4</title>
<g id="a_node4"><a xlink:href="namespacepdal.html#a836c69b6f14c14cb5125bba917b1e335" target="_top" xlink:title="pdal::TEST">
<polygon fill="white" stroke="black" points="323,-225.5 323,-244.5 389,-244.5 389,-225.5 323,-225.5"/>
<text text-anchor="middle" x="356" y="-232.5" font-family="Helvetica,sans-Serif" font-size="10.00">pdal::TEST</text>
</a>
</g>
</g>
<!-- Node3&#45;&gt;Node4 -->
<g id="edge3" class="edge"><title>Node3&#45;&gt;Node4</title>
<path fill="none" stroke="midnightblue" d="M262.349,-196.582C268.641,-198.619 275.015,-200.789 281,-203 299.381,-209.791 319.79,-218.725 334.51,-225.426"/>
<polygon fill="midnightblue" stroke="midnightblue" points="263.186,-193.176 252.596,-193.503 261.078,-199.851 263.186,-193.176"/>
</g>
<!-- Node5 -->
<g id="node5" class="node"><title>Node5</title>
<g id="a_node5"><a xlink:href="namespacepdal.html#aa4a69dd1b8bd22b76470e76fc997728f" target="_top" xlink:title="pdal::TEST_P">
<polygon fill="white" stroke="black" points="317,-187.5 317,-206.5 395,-206.5 395,-187.5 317,-187.5"/>
<text text-anchor="middle" x="356" y="-194.5" font-family="Helvetica,sans-Serif" font-size="10.00">pdal::TEST_P</text>
</a>
</g>
</g>
<!-- Node3&#45;&gt;Node5 -->
<g id="edge4" class="edge"><title>Node3&#45;&gt;Node5</title>
<path fill="none" stroke="midnightblue" d="M263.077,-188.181C280.411,-189.844 300.175,-191.74 316.923,-193.347"/>
<polygon fill="midnightblue" stroke="midnightblue" points="262.936,-184.651 252.647,-187.18 262.267,-191.619 262.936,-184.651"/>
</g>
<!-- Node6 -->
<g id="node6" class="node"><title>Node6</title>
<g id="a_node6"><a xlink:href="PythonFilterTest_8cpp.html#a3cdcc7f98bd91950226a7ae9bc056a7b" target="_top" xlink:title="TEST_P">
<polygon fill="white" stroke="black" points="329,-149.5 329,-168.5 383,-168.5 383,-149.5 329,-149.5"/>
<text text-anchor="middle" x="356" y="-156.5" font-family="Helvetica,sans-Serif" font-size="10.00">TEST_P</text>
</a>
</g>
</g>
<!-- Node3&#45;&gt;Node6 -->
<g id="edge5" class="edge"><title>Node3&#45;&gt;Node6</title>
<path fill="none" stroke="midnightblue" d="M262.67,-176.035C284.48,-172.011 310.222,-167.262 328.977,-163.801"/>
<polygon fill="midnightblue" stroke="midnightblue" points="261.846,-172.628 252.647,-177.884 263.116,-179.512 261.846,-172.628"/>
</g>
<!-- Node8 -->
<g id="node8" class="node"><title>Node8</title>
<g id="a_node8"><a xlink:href="namespacepdal.html#a6ca19728aca1c952820f7f163848feba" target="_top" xlink:title="pdal::TEST">
<polygon fill="white" stroke="black" points="323,-111.5 323,-130.5 389,-130.5 389,-111.5 323,-111.5"/>
<text text-anchor="middle" x="356" y="-118.5" font-family="Helvetica,sans-Serif" font-size="10.00">pdal::TEST</text>
</a>
</g>
</g>
<!-- Node7&#45;&gt;Node8 -->
<g id="edge7" class="edge"><title>Node7&#45;&gt;Node8</title>
<path fill="none" stroke="midnightblue" d="M291.438,-127.567C302.465,-126.428 313.345,-125.304 322.9,-124.317"/>
<polygon fill="midnightblue" stroke="midnightblue" points="290.89,-124.105 281.302,-128.615 291.609,-131.068 290.89,-124.105"/>
</g>
</g>
</svg>
