<?xml version="1.0" encoding="UTF-8" standalone="no"?>
<!DOCTYPE svg PUBLIC "-//W3C//DTD SVG 1.1//EN"
 "http://www.w3.org/Graphics/SVG/1.1/DTD/svg11.dtd">
<!-- Generated by graphviz version 2.38.0 (20140413.2041)
 -->
<!-- Title: pdal::TextReader::initialize Pages: 1 -->
<svg width="442pt" height="180pt"
 viewBox="0.00 0.00 442.00 180.00" xmlns="http://www.w3.org/2000/svg" xmlns:xlink="http://www.w3.org/1999/xlink">
<g id="graph0" class="graph" transform="scale(1 1) rotate(0) translate(4 176)">
<title>pdal::TextReader::initialize</title>
<polygon fill="white" stroke="none" points="-4,4 -4,-176 438,-176 438,4 -4,4"/>
<!-- Node1 -->
<g id="node1" class="node"><title>Node1</title>
<polygon fill="#bfbfbf" stroke="black" points="0,-76.5 0,-95.5 133,-95.5 133,-76.5 0,-76.5"/>
<text text-anchor="middle" x="66.5" y="-83.5" font-family="Helvetica,sans-Serif" font-size="10.00">pdal::TextReader::initialize</text>
</g>
<!-- Node2 -->
<g id="node2" class="node"><title>Node2</title>
<g id="a_node2"><a xlink:href="namespacepdal_1_1Utils.html#aad48cdff8e3ff3d13c7a273583870185" target="_top" xlink:title="pdal::Utils::closeFile">
<polygon fill="white" stroke="black" points="174.5,-152.5 174.5,-171.5 280.5,-171.5 280.5,-152.5 174.5,-152.5"/>
<text text-anchor="middle" x="227.5" y="-159.5" font-family="Helvetica,sans-Serif" font-size="10.00">pdal::Utils::closeFile</text>
</a>
</g>
</g>
<!-- Node1&#45;&gt;Node2 -->
<g id="edge1" class="edge"><title>Node1&#45;&gt;Node2</title>
<path fill="none" stroke="midnightblue" d="M82.5018,-95.6402C101.904,-107.82 137.01,-128.89 169,-143 173.807,-145.12 178.928,-147.136 184.057,-149.009"/>
<polygon fill="midnightblue" stroke="midnightblue" points="183.256,-152.436 193.851,-152.421 185.559,-145.826 183.256,-152.436"/>
</g>
<!-- Node4 -->
<g id="node4" class="node"><title>Node4</title>
<g id="a_node4"><a xlink:href="namespacepdal_1_1Utils.html#ac3322e84f8c5a998a344a5a606c74793" target="_top" xlink:title="pdal::Utils::openFile">
<polygon fill="white" stroke="black" points="175.5,-114.5 175.5,-133.5 279.5,-133.5 279.5,-114.5 175.5,-114.5"/>
<text text-anchor="middle" x="227.5" y="-121.5" font-family="Helvetica,sans-Serif" font-size="10.00">pdal::Utils::openFile</text>
</a>
</g>
</g>
<!-- Node1&#45;&gt;Node4 -->
<g id="edge3" class="edge"><title>Node1&#45;&gt;Node4</title>
<path fill="none" stroke="midnightblue" d="M107.622,-95.589C128.604,-100.604 154.482,-106.788 176.73,-112.105"/>
<polygon fill="midnightblue" stroke="midnightblue" points="176.126,-115.56 186.666,-114.48 177.754,-108.751 176.126,-115.56"/>
</g>
<!-- Node6 -->
<g id="node6" class="node"><title>Node6</title>
<g id="a_node6"><a xlink:href="namespacepdal_1_1Utils.html#a7c0bdff1817c4b21e6f5b37dc8fabff5" target="_top" xlink:title="pdal::Utils::split">
<polygon fill="white" stroke="black" points="185,-76.5 185,-95.5 270,-95.5 270,-76.5 185,-76.5"/>
<text text-anchor="middle" x="227.5" y="-83.5" font-family="Helvetica,sans-Serif" font-size="10.00">pdal::Utils::split</text>
</a>
</g>
</g>
<!-- Node1&#45;&gt;Node6 -->
<g id="edge5" class="edge"><title>Node1&#45;&gt;Node6</title>
<path fill="none" stroke="midnightblue" d="M133.089,-86C146.859,-86 161.204,-86 174.401,-86"/>
<polygon fill="midnightblue" stroke="midnightblue" points="174.705,-89.5001 184.705,-86 174.705,-82.5001 174.705,-89.5001"/>
</g>
<!-- Node7 -->
<g id="node7" class="node"><title>Node7</title>
<g id="a_node7"><a xlink:href="namespacepdal_1_1Utils.html#a6ae33c6d7b4eb4bcae6ec17fb8cc04fc" target="_top" xlink:title="pdal::Utils::split2">
<polygon fill="white" stroke="black" points="182.5,-38.5 182.5,-57.5 272.5,-57.5 272.5,-38.5 182.5,-38.5"/>
<text text-anchor="middle" x="227.5" y="-45.5" font-family="Helvetica,sans-Serif" font-size="10.00">pdal::Utils::split2</text>
</a>
</g>
</g>
<!-- Node1&#45;&gt;Node7 -->
<g id="edge6" class="edge"><title>Node1&#45;&gt;Node7</title>
<path fill="none" stroke="midnightblue" d="M107.622,-76.411C128.604,-71.3965 154.482,-65.2119 176.73,-59.8947"/>
<polygon fill="midnightblue" stroke="midnightblue" points="177.754,-63.2487 186.666,-57.5201 176.126,-56.4405 177.754,-63.2487"/>
</g>
<!-- Node8 -->
<g id="node8" class="node"><title>Node8</title>
<g id="a_node8"><a xlink:href="classpdal_1_1Stage.html#abdbd1176da12dfd882d931a43290797f" target="_top" xlink:title="pdal::Stage::throwError">
<polygon fill="white" stroke="black" points="169,-0.5 169,-19.5 286,-19.5 286,-0.5 169,-0.5"/>
<text text-anchor="middle" x="227.5" y="-7.5" font-family="Helvetica,sans-Serif" font-size="10.00">pdal::Stage::throwError</text>
</a>
</g>
</g>
<!-- Node1&#45;&gt;Node8 -->
<g id="edge7" class="edge"><title>Node1&#45;&gt;Node8</title>
<path fill="none" stroke="midnightblue" d="M82.5018,-76.3598C101.904,-64.1803 137.01,-43.1101 169,-29 173.807,-26.8799 178.928,-24.8635 184.057,-22.9912"/>
<polygon fill="midnightblue" stroke="midnightblue" points="185.559,-26.1741 193.851,-19.5787 183.256,-19.5639 185.559,-26.1741"/>
</g>
<!-- Node3 -->
<g id="node3" class="node"><title>Node3</title>
<g id="a_node3"><a xlink:href="namespacepdal_1_1Utils.html#a6ce7036b0912ba81b1f1a876b2772a34" target="_top" xlink:title="pdal::Utils::closeFile">
<polygon fill="white" stroke="black" points="325,-152.5 325,-171.5 431,-171.5 431,-152.5 325,-152.5"/>
<text text-anchor="middle" x="378" y="-159.5" font-family="Helvetica,sans-Serif" font-size="10.00">pdal::Utils::closeFile</text>
</a>
</g>
</g>
<!-- Node2&#45;&gt;Node3 -->
<g id="edge2" class="edge"><title>Node2&#45;&gt;Node3</title>
<path fill="none" stroke="midnightblue" d="M280.856,-162C291.788,-162 303.416,-162 314.669,-162"/>
<polygon fill="midnightblue" stroke="midnightblue" points="314.867,-165.5 324.867,-162 314.867,-158.5 314.867,-165.5"/>
</g>
<!-- Node5 -->
<g id="node5" class="node"><title>Node5</title>
<g id="a_node5"><a xlink:href="SQLiteTest_8cpp.html#afdd1742979cee35fe1879794bd7ff3a4" target="_top" xlink:title="tempFilename">
<polygon fill="white" stroke="black" points="339,-114.5 339,-133.5 417,-133.5 417,-114.5 339,-114.5"/>
<text text-anchor="middle" x="378" y="-121.5" font-family="Helvetica,sans-Serif" font-size="10.00">tempFilename</text>
</a>
</g>
</g>
<!-- Node4&#45;&gt;Node5 -->
<g id="edge4" class="edge"><title>Node4&#45;&gt;Node5</title>
<path fill="none" stroke="midnightblue" d="M279.605,-124C295.572,-124 313.126,-124 328.88,-124"/>
<polygon fill="midnightblue" stroke="midnightblue" points="328.938,-127.5 338.938,-124 328.938,-120.5 328.938,-127.5"/>
</g>
<!-- Node9 -->
<g id="node9" class="node"><title>Node9</title>
<g id="a_node9"><a xlink:href="classpdal_1_1Stage.html#a6c81d6fbbac17ebe4cd63806916cc750" target="_top" xlink:title="pdal::Stage::getName">
<polygon fill="white" stroke="black" points="322,-0.5 322,-19.5 434,-19.5 434,-0.5 322,-0.5"/>
<text text-anchor="middle" x="378" y="-7.5" font-family="Helvetica,sans-Serif" font-size="10.00">pdal::Stage::getName</text>
</a>
</g>
</g>
<!-- Node8&#45;&gt;Node9 -->
<g id="edge8" class="edge"><title>Node8&#45;&gt;Node9</title>
<path fill="none" stroke="midnightblue" d="M286.339,-10C294.676,-10 303.304,-10 311.773,-10"/>
<polygon fill="midnightblue" stroke="midnightblue" points="311.994,-13.5001 321.994,-10 311.994,-6.5001 311.994,-13.5001"/>
</g>
</g>
</svg>
