<?xml version="1.0" encoding="UTF-8" standalone="no"?>
<!DOCTYPE svg PUBLIC "-//W3C//DTD SVG 1.1//EN"
 "http://www.w3.org/Graphics/SVG/1.1/DTD/svg11.dtd">
<!-- Generated by graphviz version 2.38.0 (20140413.2041)
 -->
<!-- Title: pdal::PointView::convertAndSet Pages: 1 -->
<svg width="421pt" height="39pt"
 viewBox="0.00 0.00 421.00 39.00" xmlns="http://www.w3.org/2000/svg" xmlns:xlink="http://www.w3.org/1999/xlink">
<g id="graph0" class="graph" transform="scale(1 1) rotate(0) translate(4 35)">
<title>pdal::PointView::convertAndSet</title>
<polygon fill="white" stroke="none" points="-4,4 -4,-35 417,-35 417,4 -4,4"/>
<!-- Node1 -->
<g id="node1" class="node"><title>Node1</title>
<polygon fill="#bfbfbf" stroke="black" points="0,-0.5 0,-30.5 123,-30.5 123,-0.5 0,-0.5"/>
<text text-anchor="start" x="8" y="-18.5" font-family="Helvetica,sans-Serif" font-size="10.00">pdal::PointView::convert</text>
<text text-anchor="middle" x="61.5" y="-7.5" font-family="Helvetica,sans-Serif" font-size="10.00">AndSet</text>
</g>
<!-- Node2 -->
<g id="node2" class="node"><title>Node2</title>
<g id="a_node2"><a xlink:href="namespacepdal_1_1Utils.html#a33d614ac71aa03aaa5c10a242c4d14ac" target="_top" xlink:title="pdal::Utils::numericCast">
<polygon fill="white" stroke="black" points="159,-6 159,-25 281,-25 281,-6 159,-6"/>
<text text-anchor="middle" x="220" y="-13" font-family="Helvetica,sans-Serif" font-size="10.00">pdal::Utils::numericCast</text>
</a>
</g>
</g>
<!-- Node1&#45;&gt;Node2 -->
<g id="edge1" class="edge"><title>Node1&#45;&gt;Node2</title>
<path fill="none" stroke="midnightblue" d="M123.007,-15.5C131.477,-15.5 140.239,-15.5 148.868,-15.5"/>
<polygon fill="midnightblue" stroke="midnightblue" points="148.912,-19.0001 158.912,-15.5 148.912,-12.0001 148.912,-19.0001"/>
</g>
<!-- Node3 -->
<g id="node3" class="node"><title>Node3</title>
<g id="a_node3"><a xlink:href="namespacepdal_1_1Utils.html#a06833597f1fc4287966cfa0867128e59" target="_top" xlink:title="pdal::Utils::sround">
<polygon fill="white" stroke="black" points="317,-6 317,-25 413,-25 413,-6 317,-6"/>
<text text-anchor="middle" x="365" y="-13" font-family="Helvetica,sans-Serif" font-size="10.00">pdal::Utils::sround</text>
</a>
</g>
</g>
<!-- Node2&#45;&gt;Node3 -->
<g id="edge2" class="edge"><title>Node2&#45;&gt;Node3</title>
<path fill="none" stroke="midnightblue" d="M281.23,-15.5C289.696,-15.5 298.378,-15.5 306.785,-15.5"/>
<polygon fill="midnightblue" stroke="midnightblue" points="306.87,-19.0001 316.87,-15.5 306.87,-12.0001 306.87,-19.0001"/>
</g>
</g>
</svg>
