<?xml version="1.0" encoding="UTF-8" standalone="no"?>
<!DOCTYPE svg PUBLIC "-//W3C//DTD SVG 1.1//EN"
 "http://www.w3.org/Graphics/SVG/1.1/DTD/svg11.dtd">
<!-- Generated by graphviz version 2.38.0 (20140413.2041)
 -->
<!-- Title: pdal::NormalFilter::prepared Pages: 1 -->
<svg width="223pt" height="66pt"
 viewBox="0.00 0.00 223.00 66.00" xmlns="http://www.w3.org/2000/svg" xmlns:xlink="http://www.w3.org/1999/xlink">
<g id="graph0" class="graph" transform="scale(1 1) rotate(0) translate(4 62)">
<title>pdal::NormalFilter::prepared</title>
<polygon fill="white" stroke="none" points="-4,4 -4,-62 219,-62 219,4 -4,4"/>
<!-- Node1 -->
<g id="node1" class="node"><title>Node1</title>
<polygon fill="#bfbfbf" stroke="black" points="0,-14 0,-44 94,-44 94,-14 0,-14"/>
<text text-anchor="start" x="8" y="-32" font-family="Helvetica,sans-Serif" font-size="10.00">pdal::NormalFilter</text>
<text text-anchor="middle" x="47" y="-21" font-family="Helvetica,sans-Serif" font-size="10.00">::prepared</text>
</g>
<!-- Node2 -->
<g id="node2" class="node"><title>Node2</title>
<g id="a_node2"><a xlink:href="classpdal_1_1Stage.html#ae8c29817e14d7cda53fdcbb23102d872" target="_top" xlink:title="pdal::Stage::log">
<polygon fill="white" stroke="black" points="130,-38.5 130,-57.5 215,-57.5 215,-38.5 130,-38.5"/>
<text text-anchor="middle" x="172.5" y="-45.5" font-family="Helvetica,sans-Serif" font-size="10.00">pdal::Stage::log</text>
</a>
</g>
</g>
<!-- Node1&#45;&gt;Node2 -->
<g id="edge1" class="edge"><title>Node1&#45;&gt;Node2</title>
<path fill="none" stroke="midnightblue" d="M94.3382,-36.129C102.61,-37.4016 111.277,-38.7349 119.69,-40.0293"/>
<polygon fill="midnightblue" stroke="midnightblue" points="119.368,-43.5208 129.784,-41.5822 120.433,-36.6022 119.368,-43.5208"/>
</g>
<!-- Node3 -->
<g id="node3" class="node"><title>Node3</title>
<g id="a_node3"><a xlink:href="classpdal_1_1Arg.html#a55c1fe32c818a69b4ea9ea95c77b7c64" target="_top" xlink:title="pdal::Arg::set">
<polygon fill="white" stroke="black" points="135,-0.5 135,-19.5 210,-19.5 210,-0.5 135,-0.5"/>
<text text-anchor="middle" x="172.5" y="-7.5" font-family="Helvetica,sans-Serif" font-size="10.00">pdal::Arg::set</text>
</a>
</g>
</g>
<!-- Node1&#45;&gt;Node3 -->
<g id="edge2" class="edge"><title>Node1&#45;&gt;Node3</title>
<path fill="none" stroke="midnightblue" d="M94.3382,-21.871C104.295,-20.3393 114.822,-18.7196 124.793,-17.1857"/>
<polygon fill="midnightblue" stroke="midnightblue" points="125.583,-20.6055 134.934,-15.6255 124.518,-13.6869 125.583,-20.6055"/>
</g>
</g>
</svg>
