<?xml version="1.0" encoding="UTF-8" standalone="no"?>
<!DOCTYPE svg PUBLIC "-//W3C//DTD SVG 1.1//EN"
 "http://www.w3.org/Graphics/SVG/1.1/DTD/svg11.dtd">
<!-- Generated by graphviz version 2.38.0 (20140413.2041)
 -->
<!-- Title: pdal::PlyWriter::getType Pages: 1 -->
<svg width="453pt" height="28pt"
 viewBox="0.00 0.00 453.00 28.00" xmlns="http://www.w3.org/2000/svg" xmlns:xlink="http://www.w3.org/1999/xlink">
<g id="graph0" class="graph" transform="scale(1 1) rotate(0) translate(4 24)">
<title>pdal::PlyWriter::getType</title>
<polygon fill="white" stroke="none" points="-4,4 -4,-24 449,-24 449,4 -4,4"/>
<!-- Node1 -->
<g id="node1" class="node"><title>Node1</title>
<polygon fill="#bfbfbf" stroke="black" points="0,-0.5 0,-19.5 122,-19.5 122,-0.5 0,-0.5"/>
<text text-anchor="middle" x="61" y="-7.5" font-family="Helvetica,sans-Serif" font-size="10.00">pdal::PlyWriter::getType</text>
</g>
<!-- Node2 -->
<g id="node2" class="node"><title>Node2</title>
<g id="a_node2"><a xlink:href="classpdal_1_1PlyWriter.html#aca27414015caa20f9ce98919f6b5b33b" target="_top" xlink:title="pdal::PlyWriter::writeHeader">
<polygon fill="white" stroke="black" points="158,-0.5 158,-19.5 298,-19.5 298,-0.5 158,-0.5"/>
<text text-anchor="middle" x="228" y="-7.5" font-family="Helvetica,sans-Serif" font-size="10.00">pdal::PlyWriter::writeHeader</text>
</a>
</g>
</g>
<!-- Node1&#45;&gt;Node2 -->
<g id="edge1" class="edge"><title>Node1&#45;&gt;Node2</title>
<path fill="none" stroke="midnightblue" d="M132.24,-10C140.698,-10 149.331,-10 157.774,-10"/>
<polygon fill="midnightblue" stroke="midnightblue" points="132.036,-6.5001 122.036,-10 132.036,-13.5001 132.036,-6.5001"/>
</g>
<!-- Node3 -->
<g id="node3" class="node"><title>Node3</title>
<g id="a_node3"><a xlink:href="classpdal_1_1PlyWriter.html#aa39b57d097ca267a877c12ffbde46900" target="_top" xlink:title="pdal::PlyWriter::ready">
<polygon fill="white" stroke="black" points="334,-0.5 334,-19.5 445,-19.5 445,-0.5 334,-0.5"/>
<text text-anchor="middle" x="389.5" y="-7.5" font-family="Helvetica,sans-Serif" font-size="10.00">pdal::PlyWriter::ready</text>
</a>
</g>
</g>
<!-- Node2&#45;&gt;Node3 -->
<g id="edge2" class="edge"><title>Node2&#45;&gt;Node3</title>
<path fill="none" stroke="midnightblue" d="M308.172,-10C316.835,-10 325.506,-10 333.778,-10"/>
<polygon fill="midnightblue" stroke="midnightblue" points="308.031,-6.5001 298.031,-10 308.031,-13.5001 308.031,-6.5001"/>
</g>
</g>
</svg>
