<?xml version="1.0" encoding="UTF-8" standalone="no"?>
<!DOCTYPE svg PUBLIC "-//W3C//DTD SVG 1.1//EN"
 "http://www.w3.org/Graphics/SVG/1.1/DTD/svg11.dtd">
<!-- Generated by graphviz version 2.38.0 (20140413.2041)
 -->
<!-- Title: pdal::Kernel::execute Pages: 1 -->
<svg width="738pt" height="78pt"
 viewBox="0.00 0.00 738.00 77.50" xmlns="http://www.w3.org/2000/svg" xmlns:xlink="http://www.w3.org/1999/xlink">
<g id="graph0" class="graph" transform="scale(1 1) rotate(0) translate(4 73.5)">
<title>pdal::Kernel::execute</title>
<polygon fill="white" stroke="none" points="-4,4 -4,-73.5 734,-73.5 734,4 -4,4"/>
<!-- Node1 -->
<g id="node1" class="node"><title>Node1</title>
<polygon fill="#bfbfbf" stroke="black" points="0,-28 0,-47 109,-47 109,-28 0,-28"/>
<text text-anchor="middle" x="54.5" y="-35" font-family="Helvetica,sans-Serif" font-size="10.00">pdal::Kernel::execute</text>
</g>
<!-- Node2 -->
<g id="node2" class="node"><title>Node2</title>
<g id="a_node2"><a xlink:href="classpdal_1_1Kernel.html#a75417dddc31172a99c7b7c90fdf7aa90" target="_top" xlink:title="pdal::Kernel::innerRun">
<polygon fill="white" stroke="black" points="145,-50 145,-69 258,-69 258,-50 145,-50"/>
<text text-anchor="middle" x="201.5" y="-57" font-family="Helvetica,sans-Serif" font-size="10.00">pdal::Kernel::innerRun</text>
</a>
</g>
</g>
<!-- Node1&#45;&gt;Node2 -->
<g id="edge1" class="edge"><title>Node1&#45;&gt;Node2</title>
<path fill="none" stroke="midnightblue" d="M119.019,-47.1373C127.576,-48.4356 136.302,-49.7596 144.711,-51.0355"/>
<polygon fill="midnightblue" stroke="midnightblue" points="119.493,-43.6692 109.081,-45.6295 118.442,-50.59 119.493,-43.6692"/>
</g>
<!-- Node7 -->
<g id="node7" class="node"><title>Node7</title>
<g id="a_node7"><a xlink:href="classpdal_1_1Kernel.html#abc56e55f506b89d81a798909b4955df4" target="_top" xlink:title="pdal::Kernel::test\l_parseStageOption">
<polygon fill="white" stroke="black" points="151.5,-0.5 151.5,-30.5 251.5,-30.5 251.5,-0.5 151.5,-0.5"/>
<text text-anchor="start" x="159.5" y="-18.5" font-family="Helvetica,sans-Serif" font-size="10.00">pdal::Kernel::test</text>
<text text-anchor="middle" x="201.5" y="-7.5" font-family="Helvetica,sans-Serif" font-size="10.00">_parseStageOption</text>
</a>
</g>
</g>
<!-- Node1&#45;&gt;Node7 -->
<g id="edge6" class="edge"><title>Node1&#45;&gt;Node7</title>
<path fill="none" stroke="midnightblue" d="M118.972,-27.8697C129.859,-26.218 141.021,-24.5244 151.457,-22.941"/>
<polygon fill="midnightblue" stroke="midnightblue" points="118.442,-24.41 109.081,-29.3705 119.493,-31.3308 118.442,-24.41"/>
</g>
<!-- Node3 -->
<g id="node3" class="node"><title>Node3</title>
<g id="a_node3"><a xlink:href="classpdal_1_1Kernel.html#a793c419df84b12c612ac12f1828e8754" target="_top" xlink:title="pdal::Kernel::doExecution">
<polygon fill="white" stroke="black" points="294,-50 294,-69 422,-69 422,-50 294,-50"/>
<text text-anchor="middle" x="358" y="-57" font-family="Helvetica,sans-Serif" font-size="10.00">pdal::Kernel::doExecution</text>
</a>
</g>
</g>
<!-- Node2&#45;&gt;Node3 -->
<g id="edge2" class="edge"><title>Node2&#45;&gt;Node3</title>
<path fill="none" stroke="midnightblue" d="M268.469,-59.5C276.922,-59.5 285.559,-59.5 293.964,-59.5"/>
<polygon fill="midnightblue" stroke="midnightblue" points="268.278,-56.0001 258.278,-59.5 268.278,-63.0001 268.278,-56.0001"/>
</g>
<!-- Node4 -->
<g id="node4" class="node"><title>Node4</title>
<g id="a_node4"><a xlink:href="classpdal_1_1Kernel.html#a063a87bdb5459f336c905ab0d2ce3b05" target="_top" xlink:title="pdal::Kernel::run">
<polygon fill="white" stroke="black" points="458,-50 458,-69 546,-69 546,-50 458,-50"/>
<text text-anchor="middle" x="502" y="-57" font-family="Helvetica,sans-Serif" font-size="10.00">pdal::Kernel::run</text>
</a>
</g>
</g>
<!-- Node3&#45;&gt;Node4 -->
<g id="edge3" class="edge"><title>Node3&#45;&gt;Node4</title>
<path fill="none" stroke="midnightblue" d="M432.276,-59.5C440.945,-59.5 449.568,-59.5 457.628,-59.5"/>
<polygon fill="midnightblue" stroke="midnightblue" points="432.11,-56.0001 422.11,-59.5 432.11,-63.0001 432.11,-56.0001"/>
</g>
<!-- Node5 -->
<g id="node5" class="node"><title>Node5</title>
<g id="a_node5"><a xlink:href="classApp.html#a2817579d633c3d379248cd45d035aba8" target="_top" xlink:title="App::execute">
<polygon fill="white" stroke="black" points="582,-50 582,-69 656,-69 656,-50 582,-50"/>
<text text-anchor="middle" x="619" y="-57" font-family="Helvetica,sans-Serif" font-size="10.00">App::execute</text>
</a>
</g>
</g>
<!-- Node4&#45;&gt;Node5 -->
<g id="edge4" class="edge"><title>Node4&#45;&gt;Node5</title>
<path fill="none" stroke="midnightblue" d="M556.198,-59.5C564.85,-59.5 573.633,-59.5 581.756,-59.5"/>
<polygon fill="midnightblue" stroke="midnightblue" points="556.149,-56.0001 546.149,-59.5 556.149,-63.0001 556.149,-56.0001"/>
</g>
<!-- Node6 -->
<g id="node6" class="node"><title>Node6</title>
<g id="a_node6"><a xlink:href="pdal_8cpp.html#a0ddf1224851353fc92bfbff6f499fa97" target="_top" xlink:title="main">
<polygon fill="white" stroke="black" points="692,-50 692,-69 730,-69 730,-50 692,-50"/>
<text text-anchor="middle" x="711" y="-57" font-family="Helvetica,sans-Serif" font-size="10.00">main</text>
</a>
</g>
</g>
<!-- Node5&#45;&gt;Node6 -->
<g id="edge5" class="edge"><title>Node5&#45;&gt;Node6</title>
<path fill="none" stroke="midnightblue" d="M666.326,-59.5C675.437,-59.5 684.476,-59.5 691.946,-59.5"/>
<polygon fill="midnightblue" stroke="midnightblue" points="666.088,-56.0001 656.088,-59.5 666.088,-63.0001 666.088,-56.0001"/>
</g>
<!-- Node8 -->
<g id="node8" class="node"><title>Node8</title>
<g id="a_node8"><a xlink:href="namespacepdal.html#aeb4ef85ebf69fda6f12fd1c6ce19c695" target="_top" xlink:title="pdal::TEST">
<polygon fill="white" stroke="black" points="325,-6 325,-25 391,-25 391,-6 325,-6"/>
<text text-anchor="middle" x="358" y="-13" font-family="Helvetica,sans-Serif" font-size="10.00">pdal::TEST</text>
</a>
</g>
</g>
<!-- Node7&#45;&gt;Node8 -->
<g id="edge7" class="edge"><title>Node7&#45;&gt;Node8</title>
<path fill="none" stroke="midnightblue" d="M262.082,-15.5C283.379,-15.5 306.568,-15.5 324.696,-15.5"/>
<polygon fill="midnightblue" stroke="midnightblue" points="261.81,-12.0001 251.81,-15.5 261.81,-19.0001 261.81,-12.0001"/>
</g>
</g>
</svg>
