<?xml version="1.0" encoding="UTF-8" standalone="no"?>
<!DOCTYPE svg PUBLIC "-//W3C//DTD SVG 1.1//EN"
 "http://www.w3.org/Graphics/SVG/1.1/DTD/svg11.dtd">
<!-- Generated by graphviz version 2.38.0 (20140413.2041)
 -->
<!-- Title: pdal::BOX3D::clear Pages: 1 -->
<svg width="257pt" height="104pt"
 viewBox="0.00 0.00 257.00 104.00" xmlns="http://www.w3.org/2000/svg" xmlns:xlink="http://www.w3.org/1999/xlink">
<g id="graph0" class="graph" transform="scale(1 1) rotate(0) translate(4 100)">
<title>pdal::BOX3D::clear</title>
<polygon fill="white" stroke="none" points="-4,4 -4,-100 253,-100 253,4 -4,4"/>
<!-- Node1 -->
<g id="node1" class="node"><title>Node1</title>
<polygon fill="#bfbfbf" stroke="black" points="0,-38.5 0,-57.5 101,-57.5 101,-38.5 0,-38.5"/>
<text text-anchor="middle" x="50.5" y="-45.5" font-family="Helvetica,sans-Serif" font-size="10.00">pdal::BOX3D::clear</text>
</g>
<!-- Node2 -->
<g id="node2" class="node"><title>Node2</title>
<g id="a_node2"><a xlink:href="namespacepdal.html#ad8ea77d827fa3c2b51074bccaed7489d" target="_top" xlink:title="pdal::operator\&gt;\&gt;">
<polygon fill="white" stroke="black" points="149,-76.5 149,-95.5 237,-95.5 237,-76.5 149,-76.5"/>
<text text-anchor="middle" x="193" y="-83.5" font-family="Helvetica,sans-Serif" font-size="10.00">pdal::operator&gt;&gt;</text>
</a>
</g>
</g>
<!-- Node1&#45;&gt;Node2 -->
<g id="edge1" class="edge"><title>Node1&#45;&gt;Node2</title>
<path fill="none" stroke="midnightblue" d="M96.7787,-60.2462C116.145,-65.484 138.422,-71.5091 156.557,-76.4141"/>
<polygon fill="midnightblue" stroke="midnightblue" points="97.5211,-56.8213 86.9541,-57.589 95.6934,-63.5785 97.5211,-56.8213"/>
</g>
<!-- Node3 -->
<g id="node3" class="node"><title>Node3</title>
<g id="a_node3"><a xlink:href="classpdal_1_1OciWriter.html#aaef01ec1f04e1cd86cd7d465d49e1d81" target="_top" xlink:title="pdal::OciWriter::ready">
<polygon fill="white" stroke="black" points="137,-38.5 137,-57.5 249,-57.5 249,-38.5 137,-38.5"/>
<text text-anchor="middle" x="193" y="-45.5" font-family="Helvetica,sans-Serif" font-size="10.00">pdal::OciWriter::ready</text>
</a>
</g>
</g>
<!-- Node1&#45;&gt;Node3 -->
<g id="edge2" class="edge"><title>Node1&#45;&gt;Node3</title>
<path fill="none" stroke="midnightblue" d="M111.209,-48C119.662,-48 128.324,-48 136.69,-48"/>
<polygon fill="midnightblue" stroke="midnightblue" points="111.035,-44.5001 101.035,-48 111.035,-51.5001 111.035,-44.5001"/>
</g>
<!-- Node4 -->
<g id="node4" class="node"><title>Node4</title>
<g id="a_node4"><a xlink:href="BoundsTest_8cpp.html#af543cb5d85e50e103f9f33e7e75e89ca" target="_top" xlink:title="TEST">
<polygon fill="white" stroke="black" points="172,-0.5 172,-19.5 214,-19.5 214,-0.5 172,-0.5"/>
<text text-anchor="middle" x="193" y="-7.5" font-family="Helvetica,sans-Serif" font-size="10.00">TEST</text>
</a>
</g>
</g>
<!-- Node1&#45;&gt;Node4 -->
<g id="edge3" class="edge"><title>Node1&#45;&gt;Node4</title>
<path fill="none" stroke="midnightblue" d="M96.7217,-35.7692C122.002,-28.9319 152.257,-20.7491 171.786,-15.4672"/>
<polygon fill="midnightblue" stroke="midnightblue" points="95.6934,-32.4215 86.9541,-38.411 97.5211,-39.1787 95.6934,-32.4215"/>
</g>
</g>
</svg>
