<?xml version="1.0" encoding="UTF-8" standalone="no"?>
<!DOCTYPE svg PUBLIC "-//W3C//DTD SVG 1.1//EN"
 "http://www.w3.org/Graphics/SVG/1.1/DTD/svg11.dtd">
<!-- Generated by graphviz version 2.38.0 (20140413.2041)
 -->
<!-- Title: pdal::TransformationFilter::processOne Pages: 1 -->
<svg width="649pt" height="180pt"
 viewBox="0.00 0.00 649.00 180.00" xmlns="http://www.w3.org/2000/svg" xmlns:xlink="http://www.w3.org/1999/xlink">
<g id="graph0" class="graph" transform="scale(1 1) rotate(0) translate(4 176)">
<title>pdal::TransformationFilter::processOne</title>
<polygon fill="white" stroke="none" points="-4,4 -4,-176 645,-176 645,4 -4,4"/>
<!-- Node1 -->
<g id="node1" class="node"><title>Node1</title>
<polygon fill="#bfbfbf" stroke="black" points="0,-52 0,-82 128,-82 128,-52 0,-52"/>
<text text-anchor="start" x="8" y="-70" font-family="Helvetica,sans-Serif" font-size="10.00">pdal::TransformationFilter</text>
<text text-anchor="middle" x="64" y="-59" font-family="Helvetica,sans-Serif" font-size="10.00">::processOne</text>
</g>
<!-- Node2 -->
<g id="node2" class="node"><title>Node2</title>
<g id="a_node2"><a xlink:href="classpdal_1_1PointRef.html#a4038a597d11918978943e286d58cd4c5" target="_top" xlink:title="pdal::PointRef::getFieldAs">
<polygon fill="white" stroke="black" points="164,-76.5 164,-95.5 295,-95.5 295,-76.5 164,-76.5"/>
<text text-anchor="middle" x="229.5" y="-83.5" font-family="Helvetica,sans-Serif" font-size="10.00">pdal::PointRef::getFieldAs</text>
</a>
</g>
</g>
<!-- Node1&#45;&gt;Node2 -->
<g id="edge1" class="edge"><title>Node1&#45;&gt;Node2</title>
<path fill="none" stroke="midnightblue" d="M128.213,-74.3459C136.61,-75.3216 145.282,-76.3294 153.849,-77.3249"/>
<polygon fill="midnightblue" stroke="midnightblue" points="153.497,-80.8076 163.835,-78.4854 154.305,-73.8544 153.497,-80.8076"/>
</g>
<!-- Node10 -->
<g id="node10" class="node"><title>Node10</title>
<g id="a_node10"><a xlink:href="classpdal_1_1PointRef.html#ad482c3195126757878cac8358dc9dccc" target="_top" xlink:title="pdal::PointRef::setField">
<polygon fill="white" stroke="black" points="170,-38.5 170,-57.5 289,-57.5 289,-38.5 170,-38.5"/>
<text text-anchor="middle" x="229.5" y="-45.5" font-family="Helvetica,sans-Serif" font-size="10.00">pdal::PointRef::setField</text>
</a>
</g>
</g>
<!-- Node1&#45;&gt;Node10 -->
<g id="edge9" class="edge"><title>Node1&#45;&gt;Node10</title>
<path fill="none" stroke="midnightblue" d="M128.213,-59.6541C138.458,-58.4637 149.112,-57.2256 159.485,-56.0201"/>
<polygon fill="midnightblue" stroke="midnightblue" points="160.211,-59.4594 169.74,-54.8284 159.403,-52.5062 160.211,-59.4594"/>
</g>
<!-- Node3 -->
<g id="node3" class="node"><title>Node3</title>
<g id="a_node3"><a xlink:href="namespacepdal_1_1Dimension.html#acc41232ae1e707d6c928ffb9a56592d3" target="_top" xlink:title="pdal::Dimension::interpretationName">
<polygon fill="white" stroke="black" points="331,-152.5 331,-171.5 507,-171.5 507,-152.5 331,-152.5"/>
<text text-anchor="middle" x="419" y="-159.5" font-family="Helvetica,sans-Serif" font-size="10.00">pdal::Dimension::interpretationName</text>
</a>
</g>
</g>
<!-- Node2&#45;&gt;Node3 -->
<g id="edge2" class="edge"><title>Node2&#45;&gt;Node3</title>
<path fill="none" stroke="midnightblue" d="M244.15,-95.5238C262.891,-108.173 298.028,-130.383 331,-143 337.927,-145.651 345.314,-147.975 352.744,-150.003"/>
<polygon fill="midnightblue" stroke="midnightblue" points="351.947,-153.412 362.502,-152.5 353.682,-146.63 351.947,-153.412"/>
</g>
<!-- Node4 -->
<g id="node4" class="node"><title>Node4</title>
<g id="a_node4"><a xlink:href="namespacepdal_1_1Dimension.html#af3176b0b7e6b4be000317846cf7c2718" target="_top" xlink:title="pdal::Dimension::name">
<polygon fill="white" stroke="black" points="360.5,-114.5 360.5,-133.5 477.5,-133.5 477.5,-114.5 360.5,-114.5"/>
<text text-anchor="middle" x="419" y="-121.5" font-family="Helvetica,sans-Serif" font-size="10.00">pdal::Dimension::name</text>
</a>
</g>
</g>
<!-- Node2&#45;&gt;Node4 -->
<g id="edge3" class="edge"><title>Node2&#45;&gt;Node4</title>
<path fill="none" stroke="midnightblue" d="M277.814,-95.589C303.114,-100.716 334.45,-107.067 361.075,-112.463"/>
<polygon fill="midnightblue" stroke="midnightblue" points="360.53,-115.924 371.026,-114.48 361.921,-109.063 360.53,-115.924"/>
</g>
<!-- Node5 -->
<g id="node5" class="node"><title>Node5</title>
<g id="a_node5"><a xlink:href="namespacepdal_1_1Utils.html#a33d614ac71aa03aaa5c10a242c4d14ac" target="_top" xlink:title="pdal::Utils::numericCast">
<polygon fill="white" stroke="black" points="358,-0.5 358,-19.5 480,-19.5 480,-0.5 358,-0.5"/>
<text text-anchor="middle" x="419" y="-7.5" font-family="Helvetica,sans-Serif" font-size="10.00">pdal::Utils::numericCast</text>
</a>
</g>
</g>
<!-- Node2&#45;&gt;Node5 -->
<g id="edge4" class="edge"><title>Node2&#45;&gt;Node5</title>
<path fill="none" stroke="midnightblue" d="M274.509,-76.4343C281.637,-73.9415 288.728,-70.8406 295,-67 314.84,-54.851 310.738,-40.4326 331,-29 336.39,-25.9587 342.222,-23.4039 348.225,-21.2579"/>
<polygon fill="midnightblue" stroke="midnightblue" points="349.301,-24.5884 357.762,-18.2109 347.171,-17.9205 349.301,-24.5884"/>
</g>
<!-- Node7 -->
<g id="node7" class="node"><title>Node7</title>
<g id="a_node7"><a xlink:href="namespacepdal_1_1Utils.html#a9b5b9ef216d7036c7cb36d219af17925" target="_top" xlink:title="pdal::Utils::toDouble">
<polygon fill="white" stroke="black" points="366,-76.5 366,-95.5 472,-95.5 472,-76.5 366,-76.5"/>
<text text-anchor="middle" x="419" y="-83.5" font-family="Helvetica,sans-Serif" font-size="10.00">pdal::Utils::toDouble</text>
</a>
</g>
</g>
<!-- Node2&#45;&gt;Node7 -->
<g id="edge6" class="edge"><title>Node2&#45;&gt;Node7</title>
<path fill="none" stroke="midnightblue" d="M295.027,-86C314.602,-86 336.066,-86 355.505,-86"/>
<polygon fill="midnightblue" stroke="midnightblue" points="355.767,-89.5001 365.767,-86 355.767,-82.5001 355.767,-89.5001"/>
</g>
<!-- Node8 -->
<g id="node8" class="node"><title>Node8</title>
<g id="a_node8"><a xlink:href="namespacepdal_1_1Dimension.html#a880d689fed54aa3ded6f88c9e058c5d2" target="_top" xlink:title="pdal::Dimension::type">
<polygon fill="white" stroke="black" points="363,-38.5 363,-57.5 475,-57.5 475,-38.5 363,-38.5"/>
<text text-anchor="middle" x="419" y="-45.5" font-family="Helvetica,sans-Serif" font-size="10.00">pdal::Dimension::type</text>
</a>
</g>
</g>
<!-- Node2&#45;&gt;Node8 -->
<g id="edge7" class="edge"><title>Node2&#45;&gt;Node8</title>
<path fill="none" stroke="midnightblue" d="M277.814,-76.411C303.114,-71.2835 334.45,-64.9328 361.075,-59.5368"/>
<polygon fill="midnightblue" stroke="midnightblue" points="361.921,-62.9367 371.026,-57.5201 360.53,-56.0762 361.921,-62.9367"/>
</g>
<!-- Node6 -->
<g id="node6" class="node"><title>Node6</title>
<g id="a_node6"><a xlink:href="namespacepdal_1_1Utils.html#a06833597f1fc4287966cfa0867128e59" target="_top" xlink:title="pdal::Utils::sround">
<polygon fill="white" stroke="black" points="544,-0.5 544,-19.5 640,-19.5 640,-0.5 544,-0.5"/>
<text text-anchor="middle" x="592" y="-7.5" font-family="Helvetica,sans-Serif" font-size="10.00">pdal::Utils::sround</text>
</a>
</g>
</g>
<!-- Node5&#45;&gt;Node6 -->
<g id="edge5" class="edge"><title>Node5&#45;&gt;Node6</title>
<path fill="none" stroke="midnightblue" d="M480.288,-10C497.568,-10 516.356,-10 533.466,-10"/>
<polygon fill="midnightblue" stroke="midnightblue" points="533.873,-13.5001 543.873,-10 533.873,-6.5001 533.873,-13.5001"/>
</g>
<!-- Node9 -->
<g id="node9" class="node"><title>Node9</title>
<g id="a_node9"><a xlink:href="namespacepdal_1_1Utils.html#a5268937cf695835e55392f752dc02cb2" target="_top" xlink:title="pdal::Utils::tolower">
<polygon fill="white" stroke="black" points="543,-38.5 543,-57.5 641,-57.5 641,-38.5 543,-38.5"/>
<text text-anchor="middle" x="592" y="-45.5" font-family="Helvetica,sans-Serif" font-size="10.00">pdal::Utils::tolower</text>
</a>
</g>
</g>
<!-- Node8&#45;&gt;Node9 -->
<g id="edge8" class="edge"><title>Node8&#45;&gt;Node9</title>
<path fill="none" stroke="midnightblue" d="M475.047,-48C493.5,-48 514.129,-48 532.815,-48"/>
<polygon fill="midnightblue" stroke="midnightblue" points="532.969,-51.5001 542.969,-48 532.969,-44.5001 532.969,-51.5001"/>
</g>
<!-- Node10&#45;&gt;Node5 -->
<g id="edge10" class="edge"><title>Node10&#45;&gt;Node5</title>
<path fill="none" stroke="midnightblue" d="M277.814,-38.411C303.114,-33.2835 334.45,-26.9328 361.075,-21.5368"/>
<polygon fill="midnightblue" stroke="midnightblue" points="361.921,-24.9367 371.026,-19.5201 360.53,-18.0762 361.921,-24.9367"/>
</g>
<!-- Node10&#45;&gt;Node8 -->
<g id="edge11" class="edge"><title>Node10&#45;&gt;Node8</title>
<path fill="none" stroke="midnightblue" d="M289.055,-48C309.186,-48 331.849,-48 352.496,-48"/>
<polygon fill="midnightblue" stroke="midnightblue" points="352.766,-51.5001 362.766,-48 352.766,-44.5001 352.766,-51.5001"/>
</g>
</g>
</svg>
