<?xml version="1.0" encoding="UTF-8" standalone="no"?>
<!DOCTYPE svg PUBLIC "-//W3C//DTD SVG 1.1//EN"
 "http://www.w3.org/Graphics/SVG/1.1/DTD/svg11.dtd">
<!-- Generated by graphviz version 2.38.0 (20140413.2041)
 -->
<!-- Title: App::outputDrivers Pages: 1 -->
<svg width="433pt" height="292pt"
 viewBox="0.00 0.00 433.00 291.50" xmlns="http://www.w3.org/2000/svg" xmlns:xlink="http://www.w3.org/1999/xlink">
<g id="graph0" class="graph" transform="scale(1 1) rotate(0) translate(4 287.5)">
<title>App::outputDrivers</title>
<polygon fill="white" stroke="none" points="-4,4 -4,-287.5 429,-287.5 429,4 -4,4"/>
<!-- Node1 -->
<g id="node1" class="node"><title>Node1</title>
<polygon fill="#bfbfbf" stroke="black" points="0,-126.5 0,-145.5 98,-145.5 98,-126.5 0,-126.5"/>
<text text-anchor="middle" x="49" y="-133.5" font-family="Helvetica,sans-Serif" font-size="10.00">App::outputDrivers</text>
</g>
<!-- Node2 -->
<g id="node2" class="node"><title>Node2</title>
<g id="a_node2"><a xlink:href="classpdal_1_1PluginManager.html#acbf3ce9545623dd9c636aec6160fb51e" target="_top" xlink:title="pdal::PluginManager\l::description">
<polygon fill="white" stroke="black" points="151.5,-253 151.5,-283 256.5,-283 256.5,-253 151.5,-253"/>
<text text-anchor="start" x="159.5" y="-271" font-family="Helvetica,sans-Serif" font-size="10.00">pdal::PluginManager</text>
<text text-anchor="middle" x="204" y="-260" font-family="Helvetica,sans-Serif" font-size="10.00">::description</text>
</a>
</g>
</g>
<!-- Node1&#45;&gt;Node2 -->
<g id="edge1" class="edge"><title>Node1&#45;&gt;Node2</title>
<path fill="none" stroke="midnightblue" d="M55.1479,-145.767C66.5851,-166.57 96.1172,-215.586 134,-243 136.632,-244.905 139.424,-246.678 142.319,-248.327"/>
<polygon fill="midnightblue" stroke="midnightblue" points="140.756,-251.459 151.251,-252.91 143.952,-245.231 140.756,-251.459"/>
</g>
<!-- Node4 -->
<g id="node4" class="node"><title>Node4</title>
<g id="a_node4"><a xlink:href="namespacepdal_1_1Dimension.html#a4041a0eeee0ca503caad91db24affa0e" target="_top" xlink:title="pdal::Dimension::description">
<polygon fill="white" stroke="black" points="134,-214.5 134,-233.5 274,-233.5 274,-214.5 134,-214.5"/>
<text text-anchor="middle" x="204" y="-221.5" font-family="Helvetica,sans-Serif" font-size="10.00">pdal::Dimension::description</text>
</a>
</g>
</g>
<!-- Node1&#45;&gt;Node4 -->
<g id="edge3" class="edge"><title>Node1&#45;&gt;Node4</title>
<path fill="none" stroke="midnightblue" d="M58.8798,-145.512C73.2634,-160.366 103.17,-189.02 134,-205 138.504,-207.334 143.326,-209.407 148.251,-211.243"/>
<polygon fill="midnightblue" stroke="midnightblue" points="147.196,-214.581 157.79,-214.487 149.45,-207.954 147.196,-214.581"/>
</g>
<!-- Node5 -->
<g id="node5" class="node"><title>Node5</title>
<g id="a_node5"><a xlink:href="classpdal_1_1PluginManager.html#a158eb5da5a800f5591eef3d31baa5b1c" target="_top" xlink:title="pdal::PluginManager\l::link">
<polygon fill="white" stroke="black" points="151.5,-165 151.5,-195 256.5,-195 256.5,-165 151.5,-165"/>
<text text-anchor="start" x="159.5" y="-183" font-family="Helvetica,sans-Serif" font-size="10.00">pdal::PluginManager</text>
<text text-anchor="middle" x="204" y="-172" font-family="Helvetica,sans-Serif" font-size="10.00">::link</text>
</a>
</g>
</g>
<!-- Node1&#45;&gt;Node5 -->
<g id="edge4" class="edge"><title>Node1&#45;&gt;Node5</title>
<path fill="none" stroke="midnightblue" d="M83.1987,-145.547C100.268,-150.456 121.626,-156.598 141.563,-162.332"/>
<polygon fill="midnightblue" stroke="midnightblue" points="140.633,-165.706 151.211,-165.106 142.568,-158.979 140.633,-165.706"/>
</g>
<!-- Node7 -->
<g id="node7" class="node"><title>Node7</title>
<g id="a_node7"><a xlink:href="namespacepdal_1_1Dimension.html#af3176b0b7e6b4be000317846cf7c2718" target="_top" xlink:title="pdal::Dimension::name">
<polygon fill="white" stroke="black" points="145.5,-126.5 145.5,-145.5 262.5,-145.5 262.5,-126.5 145.5,-126.5"/>
<text text-anchor="middle" x="204" y="-133.5" font-family="Helvetica,sans-Serif" font-size="10.00">pdal::Dimension::name</text>
</a>
</g>
</g>
<!-- Node1&#45;&gt;Node7 -->
<g id="edge7" class="edge"><title>Node1&#45;&gt;Node7</title>
<path fill="none" stroke="midnightblue" d="M98.4102,-136C110.038,-136 122.67,-136 135.004,-136"/>
<polygon fill="midnightblue" stroke="midnightblue" points="135.266,-139.5 145.266,-136 135.266,-132.5 135.266,-139.5"/>
</g>
<!-- Node8 -->
<g id="node8" class="node"><title>Node8</title>
<g id="a_node8"><a xlink:href="classpdal_1_1PluginManager.html#a494f92a49079015190f9f8d9e5267779" target="_top" xlink:title="pdal::PluginManager\l::names">
<polygon fill="white" stroke="black" points="151.5,-77 151.5,-107 256.5,-107 256.5,-77 151.5,-77"/>
<text text-anchor="start" x="159.5" y="-95" font-family="Helvetica,sans-Serif" font-size="10.00">pdal::PluginManager</text>
<text text-anchor="middle" x="204" y="-84" font-family="Helvetica,sans-Serif" font-size="10.00">::names</text>
</a>
</g>
</g>
<!-- Node1&#45;&gt;Node8 -->
<g id="edge8" class="edge"><title>Node1&#45;&gt;Node8</title>
<path fill="none" stroke="midnightblue" d="M83.1987,-126.453C100.268,-121.544 121.626,-115.402 141.563,-109.668"/>
<polygon fill="midnightblue" stroke="midnightblue" points="142.568,-113.021 151.211,-106.894 140.633,-106.294 142.568,-113.021"/>
</g>
<!-- Node10 -->
<g id="node10" class="node"><title>Node10</title>
<g id="a_node10"><a xlink:href="namespacepdal_1_1Utils.html#aee17eefb452039219cd761523ec99bed" target="_top" xlink:title="pdal::Utils::screenWidth">
<polygon fill="white" stroke="black" points="143,-38.5 143,-57.5 265,-57.5 265,-38.5 143,-38.5"/>
<text text-anchor="middle" x="204" y="-45.5" font-family="Helvetica,sans-Serif" font-size="10.00">pdal::Utils::screenWidth</text>
</a>
</g>
</g>
<!-- Node1&#45;&gt;Node10 -->
<g id="edge10" class="edge"><title>Node1&#45;&gt;Node10</title>
<path fill="none" stroke="midnightblue" d="M58.8798,-126.488C73.2634,-111.634 103.17,-82.9797 134,-67 138.504,-64.6656 143.326,-62.5925 148.251,-60.7568"/>
<polygon fill="midnightblue" stroke="midnightblue" points="149.45,-64.046 157.79,-57.5129 147.196,-57.4187 149.45,-64.046"/>
</g>
<!-- Node11 -->
<g id="node11" class="node"><title>Node11</title>
<g id="a_node11"><a xlink:href="namespacepdal_1_1Utils.html#aa378eb082b365411cba12fa0d72d0fa9" target="_top" xlink:title="pdal::Utils::wordWrap">
<polygon fill="white" stroke="black" points="148.5,-0.5 148.5,-19.5 259.5,-19.5 259.5,-0.5 148.5,-0.5"/>
<text text-anchor="middle" x="204" y="-7.5" font-family="Helvetica,sans-Serif" font-size="10.00">pdal::Utils::wordWrap</text>
</a>
</g>
</g>
<!-- Node1&#45;&gt;Node11 -->
<g id="edge11" class="edge"><title>Node1&#45;&gt;Node11</title>
<path fill="none" stroke="midnightblue" d="M54.8188,-126.32C65.8163,-105.247 94.8688,-55.0292 134,-29 137.078,-26.9528 140.372,-25.1247 143.791,-23.4926"/>
<polygon fill="midnightblue" stroke="midnightblue" points="145.193,-26.7003 153.069,-19.614 142.493,-20.2419 145.193,-26.7003"/>
</g>
<!-- Node3 -->
<g id="node3" class="node"><title>Node3</title>
<g id="a_node3"><a xlink:href="classpdal_1_1PluginManager.html#a4384f5ca0a59446c497a4b2fc6da7188" target="_top" xlink:title="pdal::PluginManager\l::l_description">
<polygon fill="white" stroke="black" points="315,-253 315,-283 420,-283 420,-253 315,-253"/>
<text text-anchor="start" x="323" y="-271" font-family="Helvetica,sans-Serif" font-size="10.00">pdal::PluginManager</text>
<text text-anchor="middle" x="367.5" y="-260" font-family="Helvetica,sans-Serif" font-size="10.00">::l_description</text>
</a>
</g>
</g>
<!-- Node2&#45;&gt;Node3 -->
<g id="edge2" class="edge"><title>Node2&#45;&gt;Node3</title>
<path fill="none" stroke="midnightblue" d="M256.544,-268C271.84,-268 288.753,-268 304.633,-268"/>
<polygon fill="midnightblue" stroke="midnightblue" points="304.892,-271.5 314.892,-268 304.892,-264.5 304.892,-271.5"/>
</g>
<!-- Node6 -->
<g id="node6" class="node"><title>Node6</title>
<g id="a_node6"><a xlink:href="classpdal_1_1PluginManager.html#a8e5621de86ff9604a24a6c8ac8adf6dd" target="_top" xlink:title="pdal::PluginManager\l::l_link">
<polygon fill="white" stroke="black" points="315,-165 315,-195 420,-195 420,-165 315,-165"/>
<text text-anchor="start" x="323" y="-183" font-family="Helvetica,sans-Serif" font-size="10.00">pdal::PluginManager</text>
<text text-anchor="middle" x="367.5" y="-172" font-family="Helvetica,sans-Serif" font-size="10.00">::l_link</text>
</a>
</g>
</g>
<!-- Node5&#45;&gt;Node6 -->
<g id="edge5" class="edge"><title>Node5&#45;&gt;Node6</title>
<path fill="none" stroke="midnightblue" d="M256.544,-173.659C271.84,-173.212 288.753,-173.132 304.633,-173.417"/>
<polygon fill="midnightblue" stroke="midnightblue" points="304.813,-176.922 314.892,-173.657 304.977,-169.924 304.813,-176.922"/>
</g>
<!-- Node6&#45;&gt;Node5 -->
<g id="edge6" class="edge"><title>Node6&#45;&gt;Node5</title>
<path fill="none" stroke="midnightblue" d="M314.892,-186.343C299.591,-186.789 282.678,-186.868 266.8,-186.582"/>
<polygon fill="midnightblue" stroke="midnightblue" points="266.623,-183.077 256.544,-186.341 266.459,-190.075 266.623,-183.077"/>
</g>
<!-- Node9 -->
<g id="node9" class="node"><title>Node9</title>
<g id="a_node9"><a xlink:href="classpdal_1_1PluginManager.html#ab1040369e315ab5d6f15033e098e0652" target="_top" xlink:title="pdal::PluginManager\l::l_names">
<polygon fill="white" stroke="black" points="315,-77 315,-107 420,-107 420,-77 315,-77"/>
<text text-anchor="start" x="323" y="-95" font-family="Helvetica,sans-Serif" font-size="10.00">pdal::PluginManager</text>
<text text-anchor="middle" x="367.5" y="-84" font-family="Helvetica,sans-Serif" font-size="10.00">::l_names</text>
</a>
</g>
</g>
<!-- Node8&#45;&gt;Node9 -->
<g id="edge9" class="edge"><title>Node8&#45;&gt;Node9</title>
<path fill="none" stroke="midnightblue" d="M256.544,-92C271.84,-92 288.753,-92 304.633,-92"/>
<polygon fill="midnightblue" stroke="midnightblue" points="304.892,-95.5001 314.892,-92 304.892,-88.5001 304.892,-95.5001"/>
</g>
<!-- Node12 -->
<g id="node12" class="node"><title>Node12</title>
<g id="a_node12"><a xlink:href="namespacepdal_1_1Utils.html#afed0ad4146baafd1973c85e1508ade73" target="_top" xlink:title="pdal::Utils::trimTrailing">
<polygon fill="white" stroke="black" points="310,-0.5 310,-19.5 425,-19.5 425,-0.5 310,-0.5"/>
<text text-anchor="middle" x="367.5" y="-7.5" font-family="Helvetica,sans-Serif" font-size="10.00">pdal::Utils::trimTrailing</text>
</a>
</g>
</g>
<!-- Node11&#45;&gt;Node12 -->
<g id="edge12" class="edge"><title>Node11&#45;&gt;Node12</title>
<path fill="none" stroke="midnightblue" d="M259.677,-10C272.584,-10 286.486,-10 299.856,-10"/>
<polygon fill="midnightblue" stroke="midnightblue" points="299.951,-13.5001 309.951,-10 299.951,-6.5001 299.951,-13.5001"/>
</g>
</g>
</svg>
