<?xml version="1.0" encoding="UTF-8" standalone="no"?>
<!DOCTYPE svg PUBLIC "-//W3C//DTD SVG 1.1//EN"
 "http://www.w3.org/Graphics/SVG/1.1/DTD/svg11.dtd">
<!-- Generated by graphviz version 2.38.0 (20140413.2041)
 -->
<!-- Title: pdal::PMFFilter::run Pages: 1 -->
<svg width="802pt" height="332pt"
 viewBox="0.00 0.00 802.00 332.00" xmlns="http://www.w3.org/2000/svg" xmlns:xlink="http://www.w3.org/1999/xlink">
<g id="graph0" class="graph" transform="scale(1 1) rotate(0) translate(4 328)">
<title>pdal::PMFFilter::run</title>
<polygon fill="white" stroke="none" points="-4,4 -4,-328 798,-328 798,4 -4,4"/>
<!-- Node1 -->
<g id="node1" class="node"><title>Node1</title>
<polygon fill="#bfbfbf" stroke="black" points="0,-203.5 0,-222.5 103,-222.5 103,-203.5 0,-203.5"/>
<text text-anchor="middle" x="51.5" y="-210.5" font-family="Helvetica,sans-Serif" font-size="10.00">pdal::PMFFilter::run</text>
</g>
<!-- Node2 -->
<g id="node2" class="node"><title>Node2</title>
<g id="a_node2"><a xlink:href="namespacepdal_1_1Segmentation.html#a15de8d5069f29339cdf7a78679e83344" target="_top" xlink:title="pdal::Segmentation\l::ignoreDimRange">
<polygon fill="white" stroke="black" points="150.5,-198 150.5,-228 251.5,-228 251.5,-198 150.5,-198"/>
<text text-anchor="start" x="158.5" y="-216" font-family="Helvetica,sans-Serif" font-size="10.00">pdal::Segmentation</text>
<text text-anchor="middle" x="201" y="-205" font-family="Helvetica,sans-Serif" font-size="10.00">::ignoreDimRange</text>
</a>
</g>
</g>
<!-- Node1&#45;&gt;Node2 -->
<g id="edge1" class="edge"><title>Node1&#45;&gt;Node2</title>
<path fill="none" stroke="midnightblue" d="M103.261,-213C115.11,-213 127.839,-213 140.044,-213"/>
<polygon fill="midnightblue" stroke="midnightblue" points="140.144,-216.5 150.144,-213 140.144,-209.5 140.144,-216.5"/>
</g>
<!-- Node13 -->
<g id="node13" class="node"><title>Node13</title>
<g id="a_node13"><a xlink:href="classpdal_1_1PMFFilter.html#a95bf260add76b94ebbaed325d4277c53" target="_top" xlink:title="pdal::PMFFilter::process\lGround">
<polygon fill="white" stroke="black" points="139,-90 139,-120 263,-120 263,-90 139,-90"/>
<text text-anchor="start" x="147" y="-108" font-family="Helvetica,sans-Serif" font-size="10.00">pdal::PMFFilter::process</text>
<text text-anchor="middle" x="201" y="-97" font-family="Helvetica,sans-Serif" font-size="10.00">Ground</text>
</a>
</g>
</g>
<!-- Node1&#45;&gt;Node13 -->
<g id="edge12" class="edge"><title>Node1&#45;&gt;Node13</title>
<path fill="none" stroke="midnightblue" d="M65.5896,-203.416C89.2131,-186.119 139.479,-149.313 171.401,-125.94"/>
<polygon fill="midnightblue" stroke="midnightblue" points="173.486,-128.751 179.487,-120.02 169.351,-123.103 173.486,-128.751"/>
</g>
<!-- Node19 -->
<g id="node19" class="node"><title>Node19</title>
<g id="a_node19"><a xlink:href="namespacepdal_1_1Segmentation.html#a4f02e4a44fabec61f58b3532f0652bc5" target="_top" xlink:title="pdal::Segmentation\l::segmentLastReturns">
<polygon fill="white" stroke="black" points="144.5,-247 144.5,-277 257.5,-277 257.5,-247 144.5,-247"/>
<text text-anchor="start" x="152.5" y="-265" font-family="Helvetica,sans-Serif" font-size="10.00">pdal::Segmentation</text>
<text text-anchor="middle" x="201" y="-254" font-family="Helvetica,sans-Serif" font-size="10.00">::segmentLastReturns</text>
</a>
</g>
</g>
<!-- Node1&#45;&gt;Node19 -->
<g id="edge18" class="edge"><title>Node1&#45;&gt;Node19</title>
<path fill="none" stroke="midnightblue" d="M81.2896,-222.564C99.3928,-228.578 123.341,-236.533 144.983,-243.723"/>
<polygon fill="midnightblue" stroke="midnightblue" points="144.142,-247.132 154.736,-246.963 146.349,-240.489 144.142,-247.132"/>
</g>
<!-- Node3 -->
<g id="node3" class="node"><title>Node3</title>
<g id="a_node3"><a xlink:href="classpdal_1_1PointRef.html#af2252f383598b06c0756a6f0e9bad258" target="_top" xlink:title="pdal::PointRef::setPointId">
<polygon fill="white" stroke="black" points="309,-266.5 309,-285.5 438,-285.5 438,-266.5 309,-266.5"/>
<text text-anchor="middle" x="373.5" y="-273.5" font-family="Helvetica,sans-Serif" font-size="10.00">pdal::PointRef::setPointId</text>
</a>
</g>
</g>
<!-- Node2&#45;&gt;Node3 -->
<g id="edge2" class="edge"><title>Node2&#45;&gt;Node3</title>
<path fill="none" stroke="midnightblue" d="M240.318,-228.041C247.893,-231.201 255.742,-234.607 263,-238 279.389,-245.662 282.128,-250.47 299,-257 305.359,-259.461 312.149,-261.704 318.937,-263.715"/>
<polygon fill="midnightblue" stroke="midnightblue" points="318.256,-267.159 328.83,-266.496 320.15,-260.42 318.256,-267.159"/>
</g>
<!-- Node4 -->
<g id="node4" class="node"><title>Node4</title>
<g id="a_node4"><a xlink:href="structpdal_1_1DimRange.html#a878e6c8be56223e3f5c9dbcb9587b8ae" target="_top" xlink:title="pdal::DimRange::valuePasses">
<polygon fill="white" stroke="black" points="299,-190.5 299,-209.5 448,-209.5 448,-190.5 299,-190.5"/>
<text text-anchor="middle" x="373.5" y="-197.5" font-family="Helvetica,sans-Serif" font-size="10.00">pdal::DimRange::valuePasses</text>
</a>
</g>
</g>
<!-- Node2&#45;&gt;Node4 -->
<g id="edge3" class="edge"><title>Node2&#45;&gt;Node4</title>
<path fill="none" stroke="midnightblue" d="M251.774,-209.205C263.408,-208.318 276.114,-207.349 288.776,-206.384"/>
<polygon fill="midnightblue" stroke="midnightblue" points="289.195,-209.862 298.899,-205.612 288.662,-202.882 289.195,-209.862"/>
</g>
<!-- Node5 -->
<g id="node5" class="node"><title>Node5</title>
<g id="a_node5"><a xlink:href="classpdal_1_1PointRef.html#a4038a597d11918978943e286d58cd4c5" target="_top" xlink:title="pdal::PointRef::getFieldAs">
<polygon fill="white" stroke="black" points="308,-228.5 308,-247.5 439,-247.5 439,-228.5 308,-228.5"/>
<text text-anchor="middle" x="373.5" y="-235.5" font-family="Helvetica,sans-Serif" font-size="10.00">pdal::PointRef::getFieldAs</text>
</a>
</g>
</g>
<!-- Node2&#45;&gt;Node5 -->
<g id="edge4" class="edge"><title>Node2&#45;&gt;Node5</title>
<path fill="none" stroke="midnightblue" d="M251.774,-220.298C266.126,-222.403 282.111,-224.746 297.63,-227.022"/>
<polygon fill="midnightblue" stroke="midnightblue" points="297.337,-230.516 307.739,-228.504 298.353,-223.59 297.337,-230.516"/>
</g>
<!-- Node6 -->
<g id="node6" class="node"><title>Node6</title>
<g id="a_node6"><a xlink:href="namespacepdal_1_1Dimension.html#a880d689fed54aa3ded6f88c9e058c5d2" target="_top" xlink:title="pdal::Dimension::type">
<polygon fill="white" stroke="black" points="516,-304.5 516,-323.5 628,-323.5 628,-304.5 516,-304.5"/>
<text text-anchor="middle" x="572" y="-311.5" font-family="Helvetica,sans-Serif" font-size="10.00">pdal::Dimension::type</text>
</a>
</g>
</g>
<!-- Node5&#45;&gt;Node6 -->
<g id="edge5" class="edge"><title>Node5&#45;&gt;Node6</title>
<path fill="none" stroke="midnightblue" d="M426.573,-247.549C434.041,-250.019 441.415,-253.118 448,-257 468.041,-268.815 463.738,-283.567 484,-295 490.816,-298.846 498.339,-301.914 506.022,-304.361"/>
<polygon fill="midnightblue" stroke="midnightblue" points="505.223,-307.773 515.799,-307.141 507.137,-301.04 505.223,-307.773"/>
</g>
<!-- Node8 -->
<g id="node8" class="node"><title>Node8</title>
<g id="a_node8"><a xlink:href="namespacepdal_1_1Utils.html#a33d614ac71aa03aaa5c10a242c4d14ac" target="_top" xlink:title="pdal::Utils::numericCast">
<polygon fill="white" stroke="black" points="511,-266.5 511,-285.5 633,-285.5 633,-266.5 511,-266.5"/>
<text text-anchor="middle" x="572" y="-273.5" font-family="Helvetica,sans-Serif" font-size="10.00">pdal::Utils::numericCast</text>
</a>
</g>
</g>
<!-- Node5&#45;&gt;Node8 -->
<g id="edge7" class="edge"><title>Node5&#45;&gt;Node8</title>
<path fill="none" stroke="midnightblue" d="M423.832,-247.54C450.461,-252.69 483.527,-259.084 511.566,-264.506"/>
<polygon fill="midnightblue" stroke="midnightblue" points="511.165,-267.994 521.648,-266.456 512.495,-261.121 511.165,-267.994"/>
</g>
<!-- Node10 -->
<g id="node10" class="node"><title>Node10</title>
<g id="a_node10"><a xlink:href="namespacepdal_1_1Dimension.html#af3176b0b7e6b4be000317846cf7c2718" target="_top" xlink:title="pdal::Dimension::name">
<polygon fill="white" stroke="black" points="513.5,-228.5 513.5,-247.5 630.5,-247.5 630.5,-228.5 513.5,-228.5"/>
<text text-anchor="middle" x="572" y="-235.5" font-family="Helvetica,sans-Serif" font-size="10.00">pdal::Dimension::name</text>
</a>
</g>
</g>
<!-- Node5&#45;&gt;Node10 -->
<g id="edge9" class="edge"><title>Node5&#45;&gt;Node10</title>
<path fill="none" stroke="midnightblue" d="M439.114,-238C459.685,-238 482.494,-238 503.28,-238"/>
<polygon fill="midnightblue" stroke="midnightblue" points="503.302,-241.5 513.302,-238 503.302,-234.5 503.302,-241.5"/>
</g>
<!-- Node11 -->
<g id="node11" class="node"><title>Node11</title>
<g id="a_node11"><a xlink:href="namespacepdal_1_1Dimension.html#acc41232ae1e707d6c928ffb9a56592d3" target="_top" xlink:title="pdal::Dimension::interpretationName">
<polygon fill="white" stroke="black" points="484,-190.5 484,-209.5 660,-209.5 660,-190.5 484,-190.5"/>
<text text-anchor="middle" x="572" y="-197.5" font-family="Helvetica,sans-Serif" font-size="10.00">pdal::Dimension::interpretationName</text>
</a>
</g>
</g>
<!-- Node5&#45;&gt;Node11 -->
<g id="edge10" class="edge"><title>Node5&#45;&gt;Node11</title>
<path fill="none" stroke="midnightblue" d="M423.832,-228.46C450.461,-223.31 483.527,-216.916 511.566,-211.494"/>
<polygon fill="midnightblue" stroke="midnightblue" points="512.495,-214.879 521.648,-209.544 511.165,-208.006 512.495,-214.879"/>
</g>
<!-- Node12 -->
<g id="node12" class="node"><title>Node12</title>
<g id="a_node12"><a xlink:href="namespacepdal_1_1Utils.html#a9b5b9ef216d7036c7cb36d219af17925" target="_top" xlink:title="pdal::Utils::toDouble">
<polygon fill="white" stroke="black" points="519,-152.5 519,-171.5 625,-171.5 625,-152.5 519,-152.5"/>
<text text-anchor="middle" x="572" y="-159.5" font-family="Helvetica,sans-Serif" font-size="10.00">pdal::Utils::toDouble</text>
</a>
</g>
</g>
<!-- Node5&#45;&gt;Node12 -->
<g id="edge11" class="edge"><title>Node5&#45;&gt;Node12</title>
<path fill="none" stroke="midnightblue" d="M426.573,-228.451C434.041,-225.981 441.415,-222.882 448,-219 468.041,-207.185 463.738,-192.433 484,-181 491.728,-176.639 500.365,-173.279 509.114,-170.689"/>
<polygon fill="midnightblue" stroke="midnightblue" points="510.221,-174.017 518.997,-168.081 508.434,-167.249 510.221,-174.017"/>
</g>
<!-- Node7 -->
<g id="node7" class="node"><title>Node7</title>
<g id="a_node7"><a xlink:href="namespacepdal_1_1Utils.html#a5268937cf695835e55392f752dc02cb2" target="_top" xlink:title="pdal::Utils::tolower">
<polygon fill="white" stroke="black" points="696,-304.5 696,-323.5 794,-323.5 794,-304.5 696,-304.5"/>
<text text-anchor="middle" x="745" y="-311.5" font-family="Helvetica,sans-Serif" font-size="10.00">pdal::Utils::tolower</text>
</a>
</g>
</g>
<!-- Node6&#45;&gt;Node7 -->
<g id="edge6" class="edge"><title>Node6&#45;&gt;Node7</title>
<path fill="none" stroke="midnightblue" d="M628.047,-314C646.5,-314 667.129,-314 685.815,-314"/>
<polygon fill="midnightblue" stroke="midnightblue" points="685.969,-317.5 695.969,-314 685.969,-310.5 685.969,-317.5"/>
</g>
<!-- Node9 -->
<g id="node9" class="node"><title>Node9</title>
<g id="a_node9"><a xlink:href="namespacepdal_1_1Utils.html#a06833597f1fc4287966cfa0867128e59" target="_top" xlink:title="pdal::Utils::sround">
<polygon fill="white" stroke="black" points="697,-266.5 697,-285.5 793,-285.5 793,-266.5 697,-266.5"/>
<text text-anchor="middle" x="745" y="-273.5" font-family="Helvetica,sans-Serif" font-size="10.00">pdal::Utils::sround</text>
</a>
</g>
</g>
<!-- Node8&#45;&gt;Node9 -->
<g id="edge8" class="edge"><title>Node8&#45;&gt;Node9</title>
<path fill="none" stroke="midnightblue" d="M633.288,-276C650.568,-276 669.356,-276 686.466,-276"/>
<polygon fill="midnightblue" stroke="midnightblue" points="686.873,-279.5 696.873,-276 686.873,-272.5 686.873,-279.5"/>
</g>
<!-- Node14 -->
<g id="node14" class="node"><title>Node14</title>
<g id="a_node14"><a xlink:href="classpdal_1_1KDIndex.html#ad179eda54c39330a0e06ec2bebee9c26" target="_top" xlink:title="pdal::KDIndex::build">
<polygon fill="white" stroke="black" points="321,-0.5 321,-19.5 426,-19.5 426,-0.5 321,-0.5"/>
<text text-anchor="middle" x="373.5" y="-7.5" font-family="Helvetica,sans-Serif" font-size="10.00">pdal::KDIndex::build</text>
</a>
</g>
</g>
<!-- Node13&#45;&gt;Node14 -->
<g id="edge13" class="edge"><title>Node13&#45;&gt;Node14</title>
<path fill="none" stroke="midnightblue" d="M217.082,-89.8751C235.071,-72.6733 266.775,-44.9169 299,-29 303.681,-26.6881 308.672,-24.6367 313.767,-22.8206"/>
<polygon fill="midnightblue" stroke="midnightblue" points="315.209,-26.0324 323.636,-19.6116 313.044,-19.3754 315.209,-26.0324"/>
</g>
<!-- Node15 -->
<g id="node15" class="node"><title>Node15</title>
<g id="a_node15"><a xlink:href="namespacepdal_1_1eigen.html#a0d6815d7fd34883bed5d5161281f2f90" target="_top" xlink:title="pdal::eigen::dilateDiamond">
<polygon fill="white" stroke="black" points="307.5,-152.5 307.5,-171.5 439.5,-171.5 439.5,-152.5 307.5,-152.5"/>
<text text-anchor="middle" x="373.5" y="-159.5" font-family="Helvetica,sans-Serif" font-size="10.00">pdal::eigen::dilateDiamond</text>
</a>
</g>
</g>
<!-- Node13&#45;&gt;Node15 -->
<g id="edge14" class="edge"><title>Node13&#45;&gt;Node15</title>
<path fill="none" stroke="midnightblue" d="M237.559,-120.118C255.748,-127.546 278.352,-136.314 299,-143 306.406,-145.398 314.307,-147.701 322.08,-149.825"/>
<polygon fill="midnightblue" stroke="midnightblue" points="321.247,-153.225 331.811,-152.414 323.047,-146.46 321.247,-153.225"/>
</g>
<!-- Node16 -->
<g id="node16" class="node"><title>Node16</title>
<g id="a_node16"><a xlink:href="namespacepdal_1_1eigen.html#a78a0eed5d6753db18fc57da7ce6c2661" target="_top" xlink:title="pdal::eigen::erodeDiamond">
<polygon fill="white" stroke="black" points="307,-114.5 307,-133.5 440,-133.5 440,-114.5 307,-114.5"/>
<text text-anchor="middle" x="373.5" y="-121.5" font-family="Helvetica,sans-Serif" font-size="10.00">pdal::eigen::erodeDiamond</text>
</a>
</g>
</g>
<!-- Node13&#45;&gt;Node16 -->
<g id="edge15" class="edge"><title>Node13&#45;&gt;Node16</title>
<path fill="none" stroke="midnightblue" d="M263.073,-111.806C273.973,-113.02 285.449,-114.299 296.702,-115.553"/>
<polygon fill="midnightblue" stroke="midnightblue" points="296.625,-119.066 306.951,-116.695 297.4,-112.109 296.625,-119.066"/>
</g>
<!-- Node17 -->
<g id="node17" class="node"><title>Node17</title>
<g id="a_node17"><a xlink:href="classpdal_1_1KD2Index.html#a2a6be63ecca658fabb575ff70ac4cc41" target="_top" xlink:title="pdal::KD2Index::knnSearch">
<polygon fill="white" stroke="black" points="305,-76.5 305,-95.5 442,-95.5 442,-76.5 305,-76.5"/>
<text text-anchor="middle" x="373.5" y="-83.5" font-family="Helvetica,sans-Serif" font-size="10.00">pdal::KD2Index::knnSearch</text>
</a>
</g>
</g>
<!-- Node13&#45;&gt;Node17 -->
<g id="edge16" class="edge"><title>Node13&#45;&gt;Node17</title>
<path fill="none" stroke="midnightblue" d="M263.073,-98.1942C273.355,-97.0484 284.149,-95.8455 294.785,-94.6603"/>
<polygon fill="midnightblue" stroke="midnightblue" points="295.362,-98.1178 304.913,-93.5317 294.587,-91.1608 295.362,-98.1178"/>
</g>
<!-- Node18 -->
<g id="node18" class="node"><title>Node18</title>
<g id="a_node18"><a xlink:href="classpdal_1_1Stage.html#ae8c29817e14d7cda53fdcbb23102d872" target="_top" xlink:title="pdal::Stage::log">
<polygon fill="white" stroke="black" points="331,-38.5 331,-57.5 416,-57.5 416,-38.5 331,-38.5"/>
<text text-anchor="middle" x="373.5" y="-45.5" font-family="Helvetica,sans-Serif" font-size="10.00">pdal::Stage::log</text>
</a>
</g>
</g>
<!-- Node13&#45;&gt;Node18 -->
<g id="edge17" class="edge"><title>Node13&#45;&gt;Node18</title>
<path fill="none" stroke="midnightblue" d="M237.559,-89.8823C255.748,-82.4539 278.352,-73.6864 299,-67 306.406,-64.6018 314.307,-62.2989 322.08,-60.1749"/>
<polygon fill="midnightblue" stroke="midnightblue" points="323.047,-63.5395 331.811,-57.5865 321.247,-56.7747 323.047,-63.5395"/>
</g>
<!-- Node19&#45;&gt;Node3 -->
<g id="edge19" class="edge"><title>Node19&#45;&gt;Node3</title>
<path fill="none" stroke="midnightblue" d="M257.828,-266.584C270.83,-267.652 284.872,-268.805 298.523,-269.926"/>
<polygon fill="midnightblue" stroke="midnightblue" points="298.608,-273.444 308.861,-270.774 299.181,-266.468 298.608,-273.444"/>
</g>
<!-- Node19&#45;&gt;Node5 -->
<g id="edge20" class="edge"><title>Node19&#45;&gt;Node5</title>
<path fill="none" stroke="midnightblue" d="M257.828,-254.142C270.598,-252.344 284.371,-250.405 297.791,-248.516"/>
<polygon fill="midnightblue" stroke="midnightblue" points="298.547,-251.944 307.962,-247.085 297.571,-245.013 298.547,-251.944"/>
</g>
</g>
</svg>
