<?xml version="1.0" encoding="UTF-8" standalone="no"?>
<!DOCTYPE svg PUBLIC "-//W3C//DTD SVG 1.1//EN"
 "http://www.w3.org/Graphics/SVG/1.1/DTD/svg11.dtd">
<!-- Generated by graphviz version 2.38.0 (20140413.2041)
 -->
<!-- Title: pdal::GDALWriter::addArgs Pages: 1 -->
<svg width="475pt" height="85pt"
 viewBox="0.00 0.00 475.00 85.00" xmlns="http://www.w3.org/2000/svg" xmlns:xlink="http://www.w3.org/1999/xlink">
<g id="graph0" class="graph" transform="scale(1 1) rotate(0) translate(4 81)">
<title>pdal::GDALWriter::addArgs</title>
<polygon fill="white" stroke="none" points="-4,4 -4,-81 471,-81 471,4 -4,4"/>
<!-- Node1 -->
<g id="node1" class="node"><title>Node1</title>
<polygon fill="#bfbfbf" stroke="black" points="0,-19.5 0,-38.5 136,-38.5 136,-19.5 0,-19.5"/>
<text text-anchor="middle" x="68" y="-26.5" font-family="Helvetica,sans-Serif" font-size="10.00">pdal::GDALWriter::addArgs</text>
</g>
<!-- Node2 -->
<g id="node2" class="node"><title>Node2</title>
<g id="a_node2"><a xlink:href="classpdal_1_1ProgramArgs.html#a9f773618ed928e9cef78aa1bf8278784" target="_top" xlink:title="pdal::ProgramArgs::add">
<polygon fill="white" stroke="black" points="172,-38.5 172,-57.5 291,-57.5 291,-38.5 172,-38.5"/>
<text text-anchor="middle" x="231.5" y="-45.5" font-family="Helvetica,sans-Serif" font-size="10.00">pdal::ProgramArgs::add</text>
</a>
</g>
</g>
<!-- Node1&#45;&gt;Node2 -->
<g id="edge1" class="edge"><title>Node1&#45;&gt;Node2</title>
<path fill="none" stroke="midnightblue" d="M136.088,-36.8926C144.621,-37.8966 153.365,-38.9252 161.921,-39.9319"/>
<polygon fill="midnightblue" stroke="midnightblue" points="161.516,-43.4083 171.857,-41.1008 162.334,-36.4563 161.516,-43.4083"/>
</g>
<!-- Node5 -->
<g id="node5" class="node"><title>Node5</title>
<g id="a_node5"><a xlink:href="classpdal_1_1Arg.html#acd96700a01950da368119d2a06f441ae" target="_top" xlink:title="pdal::Arg::setPositional">
<polygon fill="white" stroke="black" points="172.5,-0.5 172.5,-19.5 290.5,-19.5 290.5,-0.5 172.5,-0.5"/>
<text text-anchor="middle" x="231.5" y="-7.5" font-family="Helvetica,sans-Serif" font-size="10.00">pdal::Arg::setPositional</text>
</a>
</g>
</g>
<!-- Node1&#45;&gt;Node5 -->
<g id="edge4" class="edge"><title>Node1&#45;&gt;Node5</title>
<path fill="none" stroke="midnightblue" d="M136.088,-21.1074C144.746,-20.0887 153.62,-19.0447 162.296,-18.024"/>
<polygon fill="midnightblue" stroke="midnightblue" points="162.843,-21.4839 172.365,-16.8394 162.025,-14.5319 162.843,-21.4839"/>
</g>
<!-- Node3 -->
<g id="node3" class="node"><title>Node3</title>
<g id="a_node3"><a xlink:href="namespacepdal_1_1Dimension.html#af3176b0b7e6b4be000317846cf7c2718" target="_top" xlink:title="pdal::Dimension::name">
<polygon fill="white" stroke="black" points="338.5,-57.5 338.5,-76.5 455.5,-76.5 455.5,-57.5 338.5,-57.5"/>
<text text-anchor="middle" x="397" y="-64.5" font-family="Helvetica,sans-Serif" font-size="10.00">pdal::Dimension::name</text>
</a>
</g>
</g>
<!-- Node2&#45;&gt;Node3 -->
<g id="edge2" class="edge"><title>Node2&#45;&gt;Node3</title>
<path fill="none" stroke="midnightblue" d="M291.065,-54.8058C303.092,-56.2033 315.848,-57.6857 328.17,-59.1176"/>
<polygon fill="midnightblue" stroke="midnightblue" points="328.055,-62.6277 338.392,-60.3055 328.863,-55.6745 328.055,-62.6277"/>
</g>
<!-- Node4 -->
<g id="node4" class="node"><title>Node4</title>
<g id="a_node4"><a xlink:href="namespacepdal_1_1Dimension.html#a4041a0eeee0ca503caad91db24affa0e" target="_top" xlink:title="pdal::Dimension::description">
<polygon fill="white" stroke="black" points="327,-19.5 327,-38.5 467,-38.5 467,-19.5 327,-19.5"/>
<text text-anchor="middle" x="397" y="-26.5" font-family="Helvetica,sans-Serif" font-size="10.00">pdal::Dimension::description</text>
</a>
</g>
</g>
<!-- Node2&#45;&gt;Node4 -->
<g id="edge3" class="edge"><title>Node2&#45;&gt;Node4</title>
<path fill="none" stroke="midnightblue" d="M291.065,-41.1942C299.43,-40.2223 308.147,-39.2093 316.825,-38.2008"/>
<polygon fill="midnightblue" stroke="midnightblue" points="317.442,-41.6527 326.971,-37.0217 316.634,-34.6995 317.442,-41.6527"/>
</g>
</g>
</svg>
