<?xml version="1.0" encoding="UTF-8" standalone="no"?>
<!DOCTYPE svg PUBLIC "-//W3C//DTD SVG 1.1//EN"
 "http://www.w3.org/Graphics/SVG/1.1/DTD/svg11.dtd">
<!-- Generated by graphviz version 2.38.0 (20140413.2041)
 -->
<!-- Title: pdal::Geometry Pages: 1 -->
<svg width="264pt" height="162pt"
 viewBox="0.00 0.00 264.00 162.00" xmlns="http://www.w3.org/2000/svg" xmlns:xlink="http://www.w3.org/1999/xlink">
<g id="graph0" class="graph" transform="scale(1 1) rotate(0) translate(4 158)">
<title>pdal::Geometry</title>
<polygon fill="white" stroke="none" points="-4,4 -4,-158 260,-158 260,4 -4,4"/>
<!-- Node1 -->
<g id="node1" class="node"><title>Node1</title>
<polygon fill="#bfbfbf" stroke="black" points="63.5,-0.5 63.5,-19.5 146.5,-19.5 146.5,-0.5 63.5,-0.5"/>
<text text-anchor="middle" x="105" y="-7.5" font-family="Helvetica,sans-Serif" font-size="10.00">pdal::Geometry</text>
</g>
<!-- Node2 -->
<g id="node2" class="node"><title>Node2</title>
<g id="a_node2"><a xlink:href="classpdal_1_1SpatialReference.html" target="_top" xlink:title="pdal::SpatialReference">
<polygon fill="white" stroke="black" points="-7.10543e-15,-67.5 -7.10543e-15,-86.5 116,-86.5 116,-67.5 -7.10543e-15,-67.5"/>
<text text-anchor="middle" x="58" y="-74.5" font-family="Helvetica,sans-Serif" font-size="10.00">pdal::SpatialReference</text>
</a>
</g>
</g>
<!-- Node2&#45;&gt;Node1 -->
<g id="edge1" class="edge"><title>Node2&#45;&gt;Node1</title>
<path fill="none" stroke="#9a32cd" stroke-dasharray="5,2" d="M70.3619,-58.9037C79.495,-46.2729 91.5478,-29.6041 98.7618,-19.6273"/>
<polygon fill="#9a32cd" stroke="#9a32cd" points="67.3619,-57.0795 64.3386,-67.2338 73.0344,-61.1811 67.3619,-57.0795"/>
<text text-anchor="middle" x="99.5" y="-41" font-family="Helvetica,sans-Serif" font-size="10.00"> m_srs</text>
</g>
<!-- Node3 -->
<g id="node3" class="node"><title>Node3</title>
<g id="a_node3"><a xlink:href="classpdal_1_1geos_1_1ErrorHandler.html" target="_top" xlink:title="pdal::geos::ErrorHandler">
<polygon fill="white" stroke="black" points="134,-67.5 134,-86.5 256,-86.5 256,-67.5 134,-67.5"/>
<text text-anchor="middle" x="195" y="-74.5" font-family="Helvetica,sans-Serif" font-size="10.00">pdal::geos::ErrorHandler</text>
</a>
</g>
</g>
<!-- Node3&#45;&gt;Node1 -->
<g id="edge2" class="edge"><title>Node3&#45;&gt;Node1</title>
<path fill="none" stroke="#9a32cd" stroke-dasharray="5,2" d="M174.325,-61.0678C156.56,-48.2376 131.564,-30.1853 116.945,-19.6273"/>
<polygon fill="#9a32cd" stroke="#9a32cd" points="172.706,-64.2162 182.862,-67.2338 176.805,-58.5415 172.706,-64.2162"/>
<text text-anchor="middle" x="179.5" y="-41" font-family="Helvetica,sans-Serif" font-size="10.00"> m_geoserr</text>
</g>
<!-- Node4 -->
<g id="node4" class="node"><title>Node4</title>
<polygon fill="white" stroke="#bfbfbf" points="174.5,-134.5 174.5,-153.5 215.5,-153.5 215.5,-134.5 174.5,-134.5"/>
<text text-anchor="middle" x="195" y="-141.5" font-family="Helvetica,sans-Serif" font-size="10.00">struct</text>
</g>
<!-- Node4&#45;&gt;Node3 -->
<g id="edge3" class="edge"><title>Node4&#45;&gt;Node3</title>
<path fill="none" stroke="#9a32cd" stroke-dasharray="5,2" d="M195,-124.037C195,-111.67 195,-96.1198 195,-86.6273"/>
<polygon fill="#9a32cd" stroke="#9a32cd" points="191.5,-124.234 195,-134.234 198.5,-124.234 191.5,-124.234"/>
<text text-anchor="middle" x="210.5" y="-108" font-family="Helvetica,sans-Serif" font-size="10.00"> m_ctx</text>
</g>
</g>
</svg>
