<?xml version="1.0" encoding="UTF-8" standalone="no"?>
<!DOCTYPE svg PUBLIC "-//W3C//DTD SVG 1.1//EN"
 "http://www.w3.org/Graphics/SVG/1.1/DTD/svg11.dtd">
<!-- Generated by graphviz version 2.38.0 (20140413.2041)
 -->
<!-- Title: pdal::PipelineExecutor::execute Pages: 1 -->
<svg width="1308pt" height="751pt"
 viewBox="0.00 0.00 1308.00 750.50" xmlns="http://www.w3.org/2000/svg" xmlns:xlink="http://www.w3.org/1999/xlink">
<g id="graph0" class="graph" transform="scale(1 1) rotate(0) translate(4 746.5)">
<title>pdal::PipelineExecutor::execute</title>
<polygon fill="white" stroke="none" points="-4,4 -4,-746.5 1304,-746.5 1304,4 -4,4"/>
<!-- Node1 -->
<g id="node1" class="node"><title>Node1</title>
<polygon fill="#bfbfbf" stroke="black" points="0,-234 0,-264 114,-264 114,-234 0,-234"/>
<text text-anchor="start" x="8" y="-252" font-family="Helvetica,sans-Serif" font-size="10.00">pdal::PipelineExecutor</text>
<text text-anchor="middle" x="57" y="-241" font-family="Helvetica,sans-Serif" font-size="10.00">::execute</text>
</g>
<!-- Node2 -->
<g id="node2" class="node"><title>Node2</title>
<g id="a_node2"><a xlink:href="classpdal_1_1PipelineManager.html#a826f2b5b837f610c14d18777b595abff" target="_top" xlink:title="pdal::PipelineManager\l::execute">
<polygon fill="white" stroke="black" points="150,-302 150,-332 263,-332 263,-302 150,-302"/>
<text text-anchor="start" x="158" y="-320" font-family="Helvetica,sans-Serif" font-size="10.00">pdal::PipelineManager</text>
<text text-anchor="middle" x="206.5" y="-309" font-family="Helvetica,sans-Serif" font-size="10.00">::execute</text>
</a>
</g>
</g>
<!-- Node1&#45;&gt;Node2 -->
<g id="edge1" class="edge"><title>Node1&#45;&gt;Node2</title>
<path fill="none" stroke="midnightblue" d="M90.735,-264.091C112.218,-273.996 140.51,-287.039 163.627,-297.696"/>
<polygon fill="midnightblue" stroke="midnightblue" points="162.31,-300.943 172.856,-301.951 165.24,-294.586 162.31,-300.943"/>
</g>
<!-- Node45 -->
<g id="node45" class="node"><title>Node45</title>
<g id="a_node45"><a xlink:href="classpdal_1_1PipelineManager.html#ae13910b65bf0d0fce79164630d226aef" target="_top" xlink:title="pdal::PipelineManager\l::readPipeline">
<polygon fill="white" stroke="black" points="150,-100 150,-130 263,-130 263,-100 150,-100"/>
<text text-anchor="start" x="158" y="-118" font-family="Helvetica,sans-Serif" font-size="10.00">pdal::PipelineManager</text>
<text text-anchor="middle" x="206.5" y="-107" font-family="Helvetica,sans-Serif" font-size="10.00">::readPipeline</text>
</a>
</g>
</g>
<!-- Node1&#45;&gt;Node45 -->
<g id="edge56" class="edge"><title>Node1&#45;&gt;Node45</title>
<path fill="none" stroke="midnightblue" d="M74.6334,-233.889C100.638,-210.264 151.055,-164.462 181.151,-137.12"/>
<polygon fill="midnightblue" stroke="midnightblue" points="183.653,-139.576 188.701,-130.261 178.946,-134.395 183.653,-139.576"/>
</g>
<!-- Node3 -->
<g id="node3" class="node"><title>Node3</title>
<g id="a_node3"><a xlink:href="classpdal_1_1PipelineManager.html#ab1216e90ce5bea6ed10b3bdfeef47e6d" target="_top" xlink:title="pdal::PipelineManager\l::prepare">
<polygon fill="white" stroke="black" points="309.5,-279 309.5,-309 422.5,-309 422.5,-279 309.5,-279"/>
<text text-anchor="start" x="317.5" y="-297" font-family="Helvetica,sans-Serif" font-size="10.00">pdal::PipelineManager</text>
<text text-anchor="middle" x="366" y="-286" font-family="Helvetica,sans-Serif" font-size="10.00">::prepare</text>
</a>
</g>
</g>
<!-- Node2&#45;&gt;Node3 -->
<g id="edge2" class="edge"><title>Node2&#45;&gt;Node3</title>
<path fill="none" stroke="midnightblue" d="M263.029,-308.891C274.791,-307.173 287.313,-305.345 299.408,-303.578"/>
<polygon fill="midnightblue" stroke="midnightblue" points="300.053,-307.022 309.442,-302.113 299.041,-300.095 300.053,-307.022"/>
</g>
<!-- Node5 -->
<g id="node5" class="node"><title>Node5</title>
<g id="a_node5"><a xlink:href="classpdal_1_1PipelineManager.html#a0d1a3762d8fd3528468d9b0bfb794585" target="_top" xlink:title="pdal::PipelineManager\l::getStage">
<polygon fill="white" stroke="black" points="470.5,-327 470.5,-357 583.5,-357 583.5,-327 470.5,-327"/>
<text text-anchor="start" x="478.5" y="-345" font-family="Helvetica,sans-Serif" font-size="10.00">pdal::PipelineManager</text>
<text text-anchor="middle" x="527" y="-334" font-family="Helvetica,sans-Serif" font-size="10.00">::getStage</text>
</a>
</g>
</g>
<!-- Node2&#45;&gt;Node5 -->
<g id="edge43" class="edge"><title>Node2&#45;&gt;Node5</title>
<path fill="none" stroke="midnightblue" d="M263.343,-321.383C318.294,-325.697 402.184,-332.281 460.309,-336.844"/>
<polygon fill="midnightblue" stroke="midnightblue" points="460.245,-340.349 470.488,-337.643 460.793,-333.371 460.245,-340.349"/>
</g>
<!-- Node36 -->
<g id="node36" class="node"><title>Node36</title>
<g id="a_node36"><a xlink:href="classpdal_1_1Stage.html#a1615c4aa5ec5e48f90d73f0e7a796935" target="_top" xlink:title="pdal::Stage::execute">
<polygon fill="white" stroke="black" points="473.5,-537.5 473.5,-556.5 580.5,-556.5 580.5,-537.5 473.5,-537.5"/>
<text text-anchor="middle" x="527" y="-544.5" font-family="Helvetica,sans-Serif" font-size="10.00">pdal::Stage::execute</text>
</a>
</g>
</g>
<!-- Node2&#45;&gt;Node36 -->
<g id="edge44" class="edge"><title>Node2&#45;&gt;Node36</title>
<path fill="none" stroke="midnightblue" d="M228.398,-332.091C285.923,-373.632 446.191,-489.367 504.466,-531.449"/>
<polygon fill="midnightblue" stroke="midnightblue" points="502.45,-534.311 512.606,-537.328 506.548,-528.636 502.45,-534.311"/>
</g>
<!-- Node4 -->
<g id="node4" class="node"><title>Node4</title>
<g id="a_node4"><a xlink:href="classpdal_1_1PipelineManager.html#a26e0dafe6752f3a94b5348e811658f50" target="_top" xlink:title="pdal::PipelineManager\l::validateStageOptions">
<polygon fill="white" stroke="black" points="469,-278 469,-308 585,-308 585,-278 469,-278"/>
<text text-anchor="start" x="477" y="-296" font-family="Helvetica,sans-Serif" font-size="10.00">pdal::PipelineManager</text>
<text text-anchor="middle" x="527" y="-285" font-family="Helvetica,sans-Serif" font-size="10.00">::validateStageOptions</text>
</a>
</g>
</g>
<!-- Node3&#45;&gt;Node4 -->
<g id="edge3" class="edge"><title>Node3&#45;&gt;Node4</title>
<path fill="none" stroke="midnightblue" d="M422.61,-293.65C434.294,-293.577 446.737,-293.499 458.793,-293.423"/>
<polygon fill="midnightblue" stroke="midnightblue" points="458.827,-296.923 468.804,-293.36 458.783,-289.923 458.827,-296.923"/>
</g>
<!-- Node3&#45;&gt;Node5 -->
<g id="edge4" class="edge"><title>Node3&#45;&gt;Node5</title>
<path fill="none" stroke="midnightblue" d="M416.872,-309.056C432.56,-313.792 450.043,-319.07 466.339,-323.989"/>
<polygon fill="midnightblue" stroke="midnightblue" points="465.72,-327.458 476.305,-326.998 467.743,-320.757 465.72,-327.458"/>
</g>
<!-- Node6 -->
<g id="node6" class="node"><title>Node6</title>
<g id="a_node6"><a xlink:href="classpdal_1_1Stage.html#a4b9296a59f8852b3d08630f1086bfbea" target="_top" xlink:title="pdal::Stage::prepare">
<polygon fill="white" stroke="black" points="475,-221.5 475,-240.5 579,-240.5 579,-221.5 475,-221.5"/>
<text text-anchor="middle" x="527" y="-228.5" font-family="Helvetica,sans-Serif" font-size="10.00">pdal::Stage::prepare</text>
</a>
</g>
</g>
<!-- Node3&#45;&gt;Node6 -->
<g id="edge5" class="edge"><title>Node3&#45;&gt;Node6</title>
<path fill="none" stroke="midnightblue" d="M405.084,-278.91C431.525,-268.433 466.445,-254.597 491.958,-244.488"/>
<polygon fill="midnightblue" stroke="midnightblue" points="493.572,-247.614 501.579,-240.676 490.993,-241.106 493.572,-247.614"/>
</g>
<!-- Node6&#45;&gt;Node6 -->
<g id="edge36" class="edge"><title>Node6&#45;&gt;Node6</title>
<path fill="none" stroke="midnightblue" d="M502.339,-240.757C490.342,-249.565 498.562,-259 527,-259 546.106,-259 556.086,-254.741 556.94,-249.275"/>
<polygon fill="midnightblue" stroke="midnightblue" points="559.904,-247.413 551.661,-240.757 553.954,-251.101 559.904,-247.413"/>
</g>
<!-- Node7 -->
<g id="node7" class="node"><title>Node7</title>
<g id="a_node7"><a xlink:href="classpdal_1_1Stage.html#a7ec627c76e1c30fc53780bd81d08d4ad" target="_top" xlink:title="pdal::Stage::addDimensions">
<polygon fill="white" stroke="black" points="631.5,-76.5 631.5,-95.5 771.5,-95.5 771.5,-76.5 631.5,-76.5"/>
<text text-anchor="middle" x="701.5" y="-83.5" font-family="Helvetica,sans-Serif" font-size="10.00">pdal::Stage::addDimensions</text>
</a>
</g>
</g>
<!-- Node6&#45;&gt;Node7 -->
<g id="edge6" class="edge"><title>Node6&#45;&gt;Node7</title>
<path fill="none" stroke="midnightblue" d="M532.228,-221.306C543.156,-197.449 574.752,-135.617 621,-105 624.143,-102.919 627.49,-101.066 630.964,-99.4147"/>
<polygon fill="midnightblue" stroke="midnightblue" points="632.509,-102.563 640.406,-95.5002 629.828,-96.0967 632.509,-102.563"/>
</g>
<!-- Node8 -->
<g id="node8" class="node"><title>Node8</title>
<g id="a_node8"><a xlink:href="classpdal_1_1Stage.html#a75f17f9b67f48f6aab1d98aadefc4d5c" target="_top" xlink:title="pdal::Stage::handleOptions">
<polygon fill="white" stroke="black" points="634.5,-240.5 634.5,-259.5 768.5,-259.5 768.5,-240.5 634.5,-240.5"/>
<text text-anchor="middle" x="701.5" y="-247.5" font-family="Helvetica,sans-Serif" font-size="10.00">pdal::Stage::handleOptions</text>
</a>
</g>
</g>
<!-- Node6&#45;&gt;Node8 -->
<g id="edge7" class="edge"><title>Node6&#45;&gt;Node8</title>
<path fill="none" stroke="midnightblue" d="M579.289,-236.649C593.464,-238.211 609.156,-239.939 624.417,-241.62"/>
<polygon fill="midnightblue" stroke="midnightblue" points="624.041,-245.099 634.364,-242.715 624.807,-238.142 624.041,-245.099"/>
</g>
<!-- Node27 -->
<g id="node27" class="node"><title>Node27</title>
<g id="a_node27"><a xlink:href="classpdal_1_1Stage.html#a5b422f842a6374b448439df99fe6e07e" target="_top" xlink:title="pdal::Stage::initialize">
<polygon fill="white" stroke="black" points="648,-202.5 648,-221.5 755,-221.5 755,-202.5 648,-202.5"/>
<text text-anchor="middle" x="701.5" y="-209.5" font-family="Helvetica,sans-Serif" font-size="10.00">pdal::Stage::initialize</text>
</a>
</g>
</g>
<!-- Node6&#45;&gt;Node27 -->
<g id="edge29" class="edge"><title>Node6&#45;&gt;Node27</title>
<path fill="none" stroke="midnightblue" d="M579.289,-225.351C597.641,-223.329 618.535,-221.028 637.745,-218.912"/>
<polygon fill="midnightblue" stroke="midnightblue" points="638.359,-222.366 647.915,-217.792 637.592,-215.408 638.359,-222.366"/>
</g>
<!-- Node28 -->
<g id="node28" class="node"><title>Node28</title>
<g id="a_node28"><a xlink:href="classpdal_1_1Stage.html#a6c85dfbf6a674dbc2eda76a79efada48" target="_top" xlink:title="pdal::Stage::l_initialize">
<polygon fill="white" stroke="black" points="644,-297.5 644,-316.5 759,-316.5 759,-297.5 644,-297.5"/>
<text text-anchor="middle" x="701.5" y="-304.5" font-family="Helvetica,sans-Serif" font-size="10.00">pdal::Stage::l_initialize</text>
</a>
</g>
</g>
<!-- Node6&#45;&gt;Node28 -->
<g id="edge30" class="edge"><title>Node6&#45;&gt;Node28</title>
<path fill="none" stroke="midnightblue" d="M549.847,-240.625C580.047,-253.931 634.722,-278.02 669.24,-293.228"/>
<polygon fill="midnightblue" stroke="midnightblue" points="668.268,-296.624 678.83,-297.453 671.09,-290.218 668.268,-296.624"/>
</g>
<!-- Node32 -->
<g id="node32" class="node"><title>Node32</title>
<g id="a_node32"><a xlink:href="classpdal_1_1BasePointTable.html#a7e3a12a1f29e6cd10d8669ed3d07eb94" target="_top" xlink:title="pdal::BasePointTable\l::layout">
<polygon fill="white" stroke="black" points="646.5,-153 646.5,-183 756.5,-183 756.5,-153 646.5,-153"/>
<text text-anchor="start" x="654.5" y="-171" font-family="Helvetica,sans-Serif" font-size="10.00">pdal::BasePointTable</text>
<text text-anchor="middle" x="701.5" y="-160" font-family="Helvetica,sans-Serif" font-size="10.00">::layout</text>
</a>
</g>
</g>
<!-- Node6&#45;&gt;Node32 -->
<g id="edge35" class="edge"><title>Node6&#45;&gt;Node32</title>
<path fill="none" stroke="midnightblue" d="M549.972,-221.417C568.691,-213.4 596.391,-201.88 621,-193 627.309,-190.723 633.941,-188.452 640.57,-186.257"/>
<polygon fill="midnightblue" stroke="midnightblue" points="641.82,-189.531 650.245,-183.107 639.653,-182.875 641.82,-189.531"/>
</g>
<!-- Node33 -->
<g id="node33" class="node"><title>Node33</title>
<g id="a_node33"><a xlink:href="classpdal_1_1Stage.html#affff6bc9dbff793d074d76333c5732dd" target="_top" xlink:title="pdal::Stage::prepared">
<polygon fill="white" stroke="black" points="646.5,-114.5 646.5,-133.5 756.5,-133.5 756.5,-114.5 646.5,-114.5"/>
<text text-anchor="middle" x="701.5" y="-121.5" font-family="Helvetica,sans-Serif" font-size="10.00">pdal::Stage::prepared</text>
</a>
</g>
</g>
<!-- Node6&#45;&gt;Node33 -->
<g id="edge37" class="edge"><title>Node6&#45;&gt;Node33</title>
<path fill="none" stroke="midnightblue" d="M535.27,-221.345C549.572,-203.069 583.273,-163.424 621,-143 625.914,-140.34 631.197,-138.049 636.619,-136.076"/>
<polygon fill="midnightblue" stroke="midnightblue" points="638.06,-139.287 646.48,-132.857 635.888,-132.633 638.06,-139.287"/>
</g>
<!-- Node34 -->
<g id="node34" class="node"><title>Node34</title>
<g id="a_node34"><a xlink:href="classpdal_1_1Stage.html#a74cf636cb0f633411e4e40dcd718508a" target="_top" xlink:title="pdal::Stage::startLogging">
<polygon fill="white" stroke="black" points="831.5,-509.5 831.5,-528.5 956.5,-528.5 956.5,-509.5 831.5,-509.5"/>
<text text-anchor="middle" x="894" y="-516.5" font-family="Helvetica,sans-Serif" font-size="10.00">pdal::Stage::startLogging</text>
</a>
</g>
</g>
<!-- Node6&#45;&gt;Node34 -->
<g id="edge38" class="edge"><title>Node6&#45;&gt;Node34</title>
<path fill="none" stroke="midnightblue" d="M546.959,-240.507C558.836,-247.1 573.935,-256.709 585,-268 606.235,-289.67 596.37,-308.284 621,-326 680.686,-368.93 729.316,-312.719 782,-364 826.805,-407.612 773.552,-456.023 818,-500 819.468,-501.453 821.03,-502.799 822.67,-504.047"/>
<polygon fill="midnightblue" stroke="midnightblue" points="821.099,-507.192 831.439,-509.502 824.797,-501.248 821.099,-507.192"/>
</g>
<!-- Node35 -->
<g id="node35" class="node"><title>Node35</title>
<g id="a_node35"><a xlink:href="classpdal_1_1Stage.html#ae49e996fe285350923a3bf44d027adad" target="_top" xlink:title="pdal::Stage::stopLogging">
<polygon fill="white" stroke="black" points="639,-373.5 639,-392.5 764,-392.5 764,-373.5 639,-373.5"/>
<text text-anchor="middle" x="701.5" y="-380.5" font-family="Helvetica,sans-Serif" font-size="10.00">pdal::Stage::stopLogging</text>
</a>
</g>
</g>
<!-- Node6&#45;&gt;Node35 -->
<g id="edge42" class="edge"><title>Node6&#45;&gt;Node35</title>
<path fill="none" stroke="midnightblue" d="M549.049,-240.587C560.963,-246.919 575.361,-256.222 585,-268 612.547,-301.659 588.988,-329.556 621,-359 625.419,-363.064 630.503,-366.441 635.92,-369.247"/>
<polygon fill="midnightblue" stroke="midnightblue" points="634.735,-372.551 645.291,-373.45 637.6,-366.164 634.735,-372.551"/>
</g>
<!-- Node9 -->
<g id="node9" class="node"><title>Node9</title>
<g id="a_node9"><a xlink:href="classpdal_1_1Stage.html#a75ff99f7b665c6573e304ed4148dd99e" target="_top" xlink:title="pdal::Stage::addAllArgs">
<polygon fill="white" stroke="black" points="834.5,-193.5 834.5,-212.5 953.5,-212.5 953.5,-193.5 834.5,-193.5"/>
<text text-anchor="middle" x="894" y="-200.5" font-family="Helvetica,sans-Serif" font-size="10.00">pdal::Stage::addAllArgs</text>
</a>
</g>
</g>
<!-- Node8&#45;&gt;Node9 -->
<g id="edge8" class="edge"><title>Node8&#45;&gt;Node9</title>
<path fill="none" stroke="midnightblue" d="M742.967,-240.432C755.488,-237.444 769.321,-234.114 782,-231 802.956,-225.853 826.102,-220.035 845.812,-215.042"/>
<polygon fill="midnightblue" stroke="midnightblue" points="846.944,-218.366 855.776,-212.513 845.222,-211.581 846.944,-218.366"/>
</g>
<!-- Node11 -->
<g id="node11" class="node"><title>Node11</title>
<g id="a_node11"><a xlink:href="classpdal_1_1Stage.html#a6c81d6fbbac17ebe4cd63806916cc750" target="_top" xlink:title="pdal::Stage::getName">
<polygon fill="white" stroke="black" points="1019.5,-269.5 1019.5,-288.5 1131.5,-288.5 1131.5,-269.5 1019.5,-269.5"/>
<text text-anchor="middle" x="1075.5" y="-276.5" font-family="Helvetica,sans-Serif" font-size="10.00">pdal::Stage::getName</text>
</a>
</g>
</g>
<!-- Node8&#45;&gt;Node11 -->
<g id="edge20" class="edge"><title>Node8&#45;&gt;Node11</title>
<path fill="none" stroke="midnightblue" d="M768.649,-249.857C822.902,-250.367 901.625,-252.544 970,-260 986.24,-261.771 1003.76,-264.591 1019.72,-267.523"/>
<polygon fill="midnightblue" stroke="midnightblue" points="1019.48,-271.04 1029.95,-269.456 1020.78,-264.161 1019.48,-271.04"/>
</g>
<!-- Node13 -->
<g id="node13" class="node"><title>Node13</title>
<g id="a_node13"><a xlink:href="classpdal_1_1Options.html#a99aa4c0c7ba443d584f741d22d37f6a5" target="_top" xlink:title="pdal::Options::getValues">
<polygon fill="white" stroke="black" points="832,-269.5 832,-288.5 956,-288.5 956,-269.5 832,-269.5"/>
<text text-anchor="middle" x="894" y="-276.5" font-family="Helvetica,sans-Serif" font-size="10.00">pdal::Options::getValues</text>
</a>
</g>
</g>
<!-- Node8&#45;&gt;Node13 -->
<g id="edge12" class="edge"><title>Node8&#45;&gt;Node13</title>
<path fill="none" stroke="midnightblue" d="M765.141,-259.536C783.342,-262.307 803.349,-265.352 822.023,-268.195"/>
<polygon fill="midnightblue" stroke="midnightblue" points="821.531,-271.66 831.944,-269.705 822.584,-264.74 821.531,-271.66"/>
</g>
<!-- Node14 -->
<g id="node14" class="node"><title>Node14</title>
<g id="a_node14"><a xlink:href="classpdal_1_1Options.html#aab2dd4f9208512ad8c38a71ad9d2c98b" target="_top" xlink:title="pdal::Options::addConditional">
<polygon fill="white" stroke="black" points="821.5,-41.5 821.5,-60.5 966.5,-60.5 966.5,-41.5 821.5,-41.5"/>
<text text-anchor="middle" x="894" y="-48.5" font-family="Helvetica,sans-Serif" font-size="10.00">pdal::Options::addConditional</text>
</a>
</g>
</g>
<!-- Node8&#45;&gt;Node14 -->
<g id="edge13" class="edge"><title>Node8&#45;&gt;Node14</title>
<path fill="none" stroke="midnightblue" d="M768.653,-240.686C773.569,-238.124 778.115,-234.942 782,-231 833.467,-178.776 766.887,-122.571 818,-70 819.405,-68.5554 820.902,-67.2149 822.477,-65.9712"/>
<polygon fill="midnightblue" stroke="midnightblue" points="824.413,-68.8871 830.92,-60.526 820.619,-63.0043 824.413,-68.8871"/>
</g>
<!-- Node17 -->
<g id="node17" class="node"><title>Node17</title>
<g id="a_node17"><a xlink:href="classpdal_1_1Options.html#a541bdbfe72511dad8a22236f0a3cb2ab" target="_top" xlink:title="pdal::Options::fromFile">
<polygon fill="white" stroke="red" points="836,-117.5 836,-136.5 952,-136.5 952,-117.5 836,-117.5"/>
<text text-anchor="middle" x="894" y="-124.5" font-family="Helvetica,sans-Serif" font-size="10.00">pdal::Options::fromFile</text>
</a>
</g>
</g>
<!-- Node8&#45;&gt;Node17 -->
<g id="edge16" class="edge"><title>Node8&#45;&gt;Node17</title>
<path fill="none" stroke="midnightblue" d="M766.745,-240.438C772.254,-237.949 777.451,-234.85 782,-231 813.316,-204.495 786.864,-172.716 818,-146 820.681,-143.7 823.602,-141.672 826.686,-139.884"/>
<polygon fill="midnightblue" stroke="midnightblue" points="828.298,-142.992 835.745,-135.457 825.224,-136.703 828.298,-142.992"/>
</g>
<!-- Node18 -->
<g id="node18" class="node"><title>Node18</title>
<g id="a_node18"><a xlink:href="classpdal_1_1Options.html#a0d9ebe7f77b36dea85b51eb0098a5df0" target="_top" xlink:title="pdal::Options::remove">
<polygon fill="white" stroke="black" points="837.5,-155.5 837.5,-174.5 950.5,-174.5 950.5,-155.5 837.5,-155.5"/>
<text text-anchor="middle" x="894" y="-162.5" font-family="Helvetica,sans-Serif" font-size="10.00">pdal::Options::remove</text>
</a>
</g>
</g>
<!-- Node8&#45;&gt;Node18 -->
<g id="edge17" class="edge"><title>Node8&#45;&gt;Node18</title>
<path fill="none" stroke="midnightblue" d="M762.526,-240.397C769.39,-237.943 776.049,-234.864 782,-231 804.069,-216.671 796.029,-198.478 818,-184 821.158,-181.919 824.529,-180.066 828.027,-178.416"/>
<polygon fill="midnightblue" stroke="midnightblue" points="829.612,-181.548 837.527,-174.505 826.947,-175.075 829.612,-181.548"/>
</g>
<!-- Node19 -->
<g id="node19" class="node"><title>Node19</title>
<g id="a_node19"><a xlink:href="classpdal_1_1Options.html#afb18dcc4f3883b8413171db00482959c" target="_top" xlink:title="pdal::Options::toCommandLine">
<polygon fill="white" stroke="red" points="818,-79.5 818,-98.5 970,-98.5 970,-79.5 818,-79.5"/>
<text text-anchor="middle" x="894" y="-86.5" font-family="Helvetica,sans-Serif" font-size="10.00">pdal::Options::toCommandLine</text>
</a>
</g>
</g>
<!-- Node8&#45;&gt;Node19 -->
<g id="edge19" class="edge"><title>Node8&#45;&gt;Node19</title>
<path fill="none" stroke="midnightblue" d="M768.383,-240.41C773.356,-237.907 777.99,-234.814 782,-231 823.274,-191.745 776.993,-147.533 818,-108 819.487,-106.567 821.066,-105.237 822.72,-104.004"/>
<polygon fill="midnightblue" stroke="midnightblue" points="824.84,-106.81 831.545,-98.6062 821.188,-100.838 824.84,-106.81"/>
</g>
<!-- Node20 -->
<g id="node20" class="node"><title>Node20</title>
<g id="a_node20"><a xlink:href="classpdal_1_1Stage.html#ab94db25b14b94de1f62f9738327accd2" target="_top" xlink:title="pdal::Stage::setupLog">
<polygon fill="white" stroke="black" points="838,-345.5 838,-364.5 950,-364.5 950,-345.5 838,-345.5"/>
<text text-anchor="middle" x="894" y="-352.5" font-family="Helvetica,sans-Serif" font-size="10.00">pdal::Stage::setupLog</text>
</a>
</g>
</g>
<!-- Node8&#45;&gt;Node20 -->
<g id="edge21" class="edge"><title>Node8&#45;&gt;Node20</title>
<path fill="none" stroke="midnightblue" d="M724.04,-259.607C740.195,-266.978 762.745,-277.618 782,-288 812.859,-304.638 847.255,-325.831 869.462,-339.878"/>
<polygon fill="midnightblue" stroke="midnightblue" points="867.871,-343.013 878.188,-345.426 871.627,-337.107 867.871,-343.013"/>
</g>
<!-- Node10 -->
<g id="node10" class="node"><title>Node10</title>
<g id="a_node10"><a xlink:href="classpdal_1_1Stage.html#a3f15d8fc5456be812aafc84000d8e621" target="_top" xlink:title="pdal::Stage::addArgs">
<polygon fill="white" stroke="black" points="1021.5,-155.5 1021.5,-174.5 1129.5,-174.5 1129.5,-155.5 1021.5,-155.5"/>
<text text-anchor="middle" x="1075.5" y="-162.5" font-family="Helvetica,sans-Serif" font-size="10.00">pdal::Stage::addArgs</text>
</a>
</g>
</g>
<!-- Node9&#45;&gt;Node10 -->
<g id="edge9" class="edge"><title>Node9&#45;&gt;Node10</title>
<path fill="none" stroke="midnightblue" d="M940.295,-193.411C964.409,-188.306 994.251,-181.989 1019.67,-176.608"/>
<polygon fill="midnightblue" stroke="midnightblue" points="1020.47,-180.015 1029.53,-174.52 1019.02,-173.167 1020.47,-180.015"/>
</g>
<!-- Node9&#45;&gt;Node11 -->
<g id="edge10" class="edge"><title>Node9&#45;&gt;Node11</title>
<path fill="none" stroke="midnightblue" d="M928.617,-212.563C941.693,-216.591 956.7,-221.599 970,-227 997.354,-238.107 1027.42,-253.413 1048.25,-264.542"/>
<polygon fill="midnightblue" stroke="midnightblue" points="1046.66,-267.664 1057.13,-269.331 1049.99,-261.503 1046.66,-267.664"/>
</g>
<!-- Node12 -->
<g id="node12" class="node"><title>Node12</title>
<g id="a_node12"><a xlink:href="classpdal_1_1Stage.html#ae89a62fb39c52a2067fc318359065625" target="_top" xlink:title="pdal::Stage::l_addArgs">
<polygon fill="white" stroke="red" points="1017.5,-193.5 1017.5,-212.5 1133.5,-212.5 1133.5,-193.5 1017.5,-193.5"/>
<text text-anchor="middle" x="1075.5" y="-200.5" font-family="Helvetica,sans-Serif" font-size="10.00">pdal::Stage::l_addArgs</text>
</a>
</g>
</g>
<!-- Node9&#45;&gt;Node12 -->
<g id="edge11" class="edge"><title>Node9&#45;&gt;Node12</title>
<path fill="none" stroke="midnightblue" d="M953.775,-203C970.869,-203 989.672,-203 1007.25,-203"/>
<polygon fill="midnightblue" stroke="midnightblue" points="1007.43,-206.5 1017.43,-203 1007.43,-199.5 1007.43,-206.5"/>
</g>
<!-- Node15 -->
<g id="node15" class="node"><title>Node15</title>
<g id="a_node15"><a xlink:href="classpdal_1_1Option.html#ad2b7a736742fb343e421fa326ef45c23" target="_top" xlink:title="pdal::Option::getName">
<polygon fill="white" stroke="black" points="1018,-98.5 1018,-117.5 1133,-117.5 1133,-98.5 1018,-98.5"/>
<text text-anchor="middle" x="1075.5" y="-105.5" font-family="Helvetica,sans-Serif" font-size="10.00">pdal::Option::getName</text>
</a>
</g>
</g>
<!-- Node14&#45;&gt;Node15 -->
<g id="edge14" class="edge"><title>Node14&#45;&gt;Node15</title>
<path fill="none" stroke="midnightblue" d="M935.688,-60.5145C946.872,-63.3447 958.959,-66.6034 970,-70 993.943,-77.3657 1020.46,-87.028 1040.8,-94.766"/>
<polygon fill="midnightblue" stroke="midnightblue" points="1039.65,-98.0758 1050.24,-98.3916 1042.16,-91.5407 1039.65,-98.0758"/>
</g>
<!-- Node16 -->
<g id="node16" class="node"><title>Node16</title>
<g id="a_node16"><a xlink:href="classpdal_1_1Option.html#aef4422b88464a9cad83b3c11bf1f8cdd" target="_top" xlink:title="pdal::Option::nameValid">
<polygon fill="white" stroke="red" points="1015,-41.5 1015,-60.5 1136,-60.5 1136,-41.5 1015,-41.5"/>
<text text-anchor="middle" x="1075.5" y="-48.5" font-family="Helvetica,sans-Serif" font-size="10.00">pdal::Option::nameValid</text>
</a>
</g>
</g>
<!-- Node14&#45;&gt;Node16 -->
<g id="edge15" class="edge"><title>Node14&#45;&gt;Node16</title>
<path fill="none" stroke="midnightblue" d="M966.717,-51C979.152,-51 992.069,-51 1004.46,-51"/>
<polygon fill="midnightblue" stroke="midnightblue" points="1004.72,-54.5001 1014.72,-51 1004.72,-47.5001 1004.72,-54.5001"/>
</g>
<!-- Node18&#45;&gt;Node15 -->
<g id="edge18" class="edge"><title>Node18&#45;&gt;Node15</title>
<path fill="none" stroke="midnightblue" d="M935.688,-155.485C946.872,-152.655 958.959,-149.397 970,-146 993.943,-138.634 1020.46,-128.972 1040.8,-121.234"/>
<polygon fill="midnightblue" stroke="midnightblue" points="1042.16,-124.459 1050.24,-117.608 1039.65,-117.924 1042.16,-124.459"/>
</g>
<!-- Node20&#45;&gt;Node11 -->
<g id="edge22" class="edge"><title>Node20&#45;&gt;Node11</title>
<path fill="none" stroke="midnightblue" d="M928.617,-345.437C941.693,-341.409 956.7,-336.401 970,-331 997.354,-319.893 1027.42,-304.587 1048.25,-293.458"/>
<polygon fill="midnightblue" stroke="midnightblue" points="1049.99,-296.497 1057.13,-288.669 1046.66,-290.336 1049.99,-296.497"/>
</g>
<!-- Node21 -->
<g id="node21" class="node"><title>Node21</title>
<g id="a_node21"><a xlink:href="classpdal_1_1gdal_1_1ErrorHandler.html#a56e0125595a43bf3b0cbd0b9a4bc55ea" target="_top" xlink:title="pdal::gdal::ErrorHandler\l::getGlobalErrorHandler">
<polygon fill="white" stroke="black" points="1016,-434 1016,-464 1135,-464 1135,-434 1016,-434"/>
<text text-anchor="start" x="1024" y="-452" font-family="Helvetica,sans-Serif" font-size="10.00">pdal::gdal::ErrorHandler</text>
<text text-anchor="middle" x="1075.5" y="-441" font-family="Helvetica,sans-Serif" font-size="10.00">::getGlobalErrorHandler</text>
</a>
</g>
</g>
<!-- Node20&#45;&gt;Node21 -->
<g id="edge23" class="edge"><title>Node20&#45;&gt;Node21</title>
<path fill="none" stroke="midnightblue" d="M943.934,-364.571C952.814,-367.095 961.84,-370.205 970,-374 999.72,-387.822 1029.71,-410.449 1049.9,-427.241"/>
<polygon fill="midnightblue" stroke="midnightblue" points="1047.76,-430.018 1057.65,-433.811 1052.28,-424.677 1047.76,-430.018"/>
</g>
<!-- Node23 -->
<g id="node23" class="node"><title>Node23</title>
<g id="a_node23"><a xlink:href="classpdal_1_1gdal_1_1ErrorHandler.html#ace1cff928ab179f671181ebaf4d280a4" target="_top" xlink:title="pdal::gdal::ErrorHandler::set">
<polygon fill="white" stroke="black" points="1006,-350.5 1006,-369.5 1145,-369.5 1145,-350.5 1006,-350.5"/>
<text text-anchor="middle" x="1075.5" y="-357.5" font-family="Helvetica,sans-Serif" font-size="10.00">pdal::gdal::ErrorHandler::set</text>
</a>
</g>
</g>
<!-- Node20&#45;&gt;Node23 -->
<g id="edge25" class="edge"><title>Node20&#45;&gt;Node23</title>
<path fill="none" stroke="midnightblue" d="M950.321,-356.541C964.549,-356.937 980.138,-357.372 995.318,-357.794"/>
<polygon fill="midnightblue" stroke="midnightblue" points="995.647,-361.305 1005.74,-358.085 995.842,-354.308 995.647,-361.305"/>
</g>
<!-- Node26 -->
<g id="node26" class="node"><title>Node26</title>
<g id="a_node26"><a xlink:href="classpdal_1_1Stage.html#aec4fb27c40bb4b032ff003a89a950dd4" target="_top" xlink:title="pdal::Stage::isDebug">
<polygon fill="white" stroke="black" points="1021.5,-494.5 1021.5,-513.5 1129.5,-513.5 1129.5,-494.5 1021.5,-494.5"/>
<text text-anchor="middle" x="1075.5" y="-501.5" font-family="Helvetica,sans-Serif" font-size="10.00">pdal::Stage::isDebug</text>
</a>
</g>
</g>
<!-- Node20&#45;&gt;Node26 -->
<g id="edge28" class="edge"><title>Node20&#45;&gt;Node26</title>
<path fill="none" stroke="midnightblue" d="M950.206,-362.286C957.452,-365.075 964.321,-368.865 970,-374 1004.73,-405.398 974.179,-438.657 1006,-473 1012.72,-480.249 1021.45,-485.921 1030.42,-490.316"/>
<polygon fill="midnightblue" stroke="midnightblue" points="1029.22,-493.611 1039.78,-494.445 1032.05,-487.207 1029.22,-493.611"/>
</g>
<!-- Node22 -->
<g id="node22" class="node"><title>Node22</title>
<g id="a_node22"><a xlink:href="classpdal_1_1gdal_1_1ErrorHandler.html#a73215504640551589024d36018f81d33" target="_top" xlink:title="pdal::gdal::ErrorHandler\l::ErrorHandler">
<polygon fill="white" stroke="red" points="1181,-434 1181,-464 1300,-464 1300,-434 1181,-434"/>
<text text-anchor="start" x="1189" y="-452" font-family="Helvetica,sans-Serif" font-size="10.00">pdal::gdal::ErrorHandler</text>
<text text-anchor="middle" x="1240.5" y="-441" font-family="Helvetica,sans-Serif" font-size="10.00">::ErrorHandler</text>
</a>
</g>
</g>
<!-- Node21&#45;&gt;Node22 -->
<g id="edge24" class="edge"><title>Node21&#45;&gt;Node22</title>
<path fill="none" stroke="midnightblue" d="M1135.35,-449C1146.77,-449 1158.84,-449 1170.56,-449"/>
<polygon fill="midnightblue" stroke="midnightblue" points="1170.74,-452.5 1180.74,-449 1170.74,-445.5 1170.74,-452.5"/>
</g>
<!-- Node24 -->
<g id="node24" class="node"><title>Node24</title>
<g id="a_node24"><a xlink:href="classpdal_1_1gdal_1_1ErrorHandler.html#abe7fbf19bfcfbb0be1c8ae934bd5c9d2" target="_top" xlink:title="pdal::gdal::ErrorHandler\l::setLog">
<polygon fill="white" stroke="black" points="1181,-321 1181,-351 1300,-351 1300,-321 1181,-321"/>
<text text-anchor="start" x="1189" y="-339" font-family="Helvetica,sans-Serif" font-size="10.00">pdal::gdal::ErrorHandler</text>
<text text-anchor="middle" x="1240.5" y="-328" font-family="Helvetica,sans-Serif" font-size="10.00">::setLog</text>
</a>
</g>
</g>
<!-- Node23&#45;&gt;Node24 -->
<g id="edge26" class="edge"><title>Node23&#45;&gt;Node24</title>
<path fill="none" stroke="midnightblue" d="M1141.39,-350.446C1151.08,-349.019 1161.09,-347.545 1170.85,-346.108"/>
<polygon fill="midnightblue" stroke="midnightblue" points="1171.52,-349.547 1180.91,-344.627 1170.5,-342.621 1171.52,-349.547"/>
</g>
<!-- Node25 -->
<g id="node25" class="node"><title>Node25</title>
<g id="a_node25"><a xlink:href="classpdal_1_1gdal_1_1ErrorHandler.html#a61ea2c53f778817785d39cd9fc6a81a6" target="_top" xlink:title="pdal::gdal::ErrorHandler\l::setDebug">
<polygon fill="white" stroke="black" points="1181,-370 1181,-400 1300,-400 1300,-370 1181,-370"/>
<text text-anchor="start" x="1189" y="-388" font-family="Helvetica,sans-Serif" font-size="10.00">pdal::gdal::ErrorHandler</text>
<text text-anchor="middle" x="1240.5" y="-377" font-family="Helvetica,sans-Serif" font-size="10.00">::setDebug</text>
</a>
</g>
</g>
<!-- Node23&#45;&gt;Node25 -->
<g id="edge27" class="edge"><title>Node23&#45;&gt;Node25</title>
<path fill="none" stroke="midnightblue" d="M1138.59,-369.523C1149.09,-371.133 1160.04,-372.813 1170.7,-374.448"/>
<polygon fill="midnightblue" stroke="midnightblue" points="1170.39,-377.941 1180.81,-375.998 1171.45,-371.022 1170.39,-377.941"/>
</g>
<!-- Node28&#45;&gt;Node11 -->
<g id="edge33" class="edge"><title>Node28&#45;&gt;Node11</title>
<path fill="none" stroke="midnightblue" d="M759.029,-307.49C813.286,-307.397 897.462,-305.772 970,-298 986.319,-296.251 1003.92,-293.422 1019.94,-290.475"/>
<polygon fill="midnightblue" stroke="midnightblue" points="1021.04,-293.83 1030.21,-288.531 1019.74,-286.952 1021.04,-293.83"/>
</g>
<!-- Node29 -->
<g id="node29" class="node"><title>Node29</title>
<g id="a_node29"><a xlink:href="classpdal_1_1BasePointTable.html#a03429472e71e5dd323bc92319f4a9df6" target="_top" xlink:title="pdal::BasePointTable\l::metadata">
<polygon fill="white" stroke="black" points="839,-384 839,-414 949,-414 949,-384 839,-384"/>
<text text-anchor="start" x="847" y="-402" font-family="Helvetica,sans-Serif" font-size="10.00">pdal::BasePointTable</text>
<text text-anchor="middle" x="894" y="-391" font-family="Helvetica,sans-Serif" font-size="10.00">::metadata</text>
</a>
</g>
</g>
<!-- Node28&#45;&gt;Node29 -->
<g id="edge31" class="edge"><title>Node28&#45;&gt;Node29</title>
<path fill="none" stroke="midnightblue" d="M750.328,-316.555C761.285,-320.037 772.495,-324.725 782,-331 802.801,-344.732 797.397,-359.973 818,-374 821.673,-376.501 825.616,-378.769 829.703,-380.823"/>
<polygon fill="midnightblue" stroke="midnightblue" points="828.279,-384.02 838.83,-384.986 831.184,-377.652 828.279,-384.02"/>
</g>
<!-- Node30 -->
<g id="node30" class="node"><title>Node30</title>
<g id="a_node30"><a xlink:href="classpdal_1_1MetadataNode.html#af2c1c5d91f6ab47a804aa8a0a1b043c2" target="_top" xlink:title="pdal::MetadataNode::add">
<polygon fill="white" stroke="black" points="831,-471.5 831,-490.5 957,-490.5 957,-471.5 831,-471.5"/>
<text text-anchor="middle" x="894" y="-478.5" font-family="Helvetica,sans-Serif" font-size="10.00">pdal::MetadataNode::add</text>
</a>
</g>
</g>
<!-- Node28&#45;&gt;Node30 -->
<g id="edge32" class="edge"><title>Node28&#45;&gt;Node30</title>
<path fill="none" stroke="midnightblue" d="M759.112,-316.268C767.623,-319.742 775.658,-324.498 782,-331 824.159,-374.226 774.878,-419.735 818,-462 819.475,-463.446 821.043,-464.786 822.688,-466.029"/>
<polygon fill="midnightblue" stroke="midnightblue" points="821.131,-469.181 831.477,-471.463 824.812,-463.227 821.131,-469.181"/>
</g>
<!-- Node31 -->
<g id="node31" class="node"><title>Node31</title>
<g id="a_node31"><a xlink:href="classpdal_1_1Stage.html#a0d7c0bb23ed18577b1aa58b02448487f" target="_top" xlink:title="pdal::Stage::writerInitialize">
<polygon fill="white" stroke="black" points="828,-433.5 828,-452.5 960,-452.5 960,-433.5 828,-433.5"/>
<text text-anchor="middle" x="894" y="-440.5" font-family="Helvetica,sans-Serif" font-size="10.00">pdal::Stage::writerInitialize</text>
</a>
</g>
</g>
<!-- Node28&#45;&gt;Node31 -->
<g id="edge34" class="edge"><title>Node28&#45;&gt;Node31</title>
<path fill="none" stroke="midnightblue" d="M757.728,-316.528C766.6,-319.967 775.114,-324.643 782,-331 814.261,-360.784 785.258,-393.745 818,-423 820.336,-425.088 822.867,-426.961 825.537,-428.642"/>
<polygon fill="midnightblue" stroke="midnightblue" points="824,-431.788 834.474,-433.381 827.279,-425.604 824,-431.788"/>
</g>
<!-- Node34&#45;&gt;Node21 -->
<g id="edge39" class="edge"><title>Node34&#45;&gt;Node21</title>
<path fill="none" stroke="midnightblue" d="M939.086,-509.443C949.356,-506.774 960.162,-503.603 970,-500 993.565,-491.369 1018.89,-479.095 1038.7,-468.75"/>
<polygon fill="midnightblue" stroke="midnightblue" points="1040.47,-471.774 1047.67,-464.003 1037.19,-465.587 1040.47,-471.774"/>
</g>
<!-- Node34&#45;&gt;Node23 -->
<g id="edge41" class="edge"><title>Node34&#45;&gt;Node23</title>
<path fill="none" stroke="midnightblue" d="M954.348,-509.38C959.987,-506.916 965.332,-503.839 970,-500 998.867,-476.259 983.954,-454.182 1006,-424 1019.48,-405.543 1038.79,-388.076 1053.47,-376.067"/>
<polygon fill="midnightblue" stroke="midnightblue" points="1055.86,-378.633 1061.5,-369.661 1051.5,-373.161 1055.86,-378.633"/>
</g>
<!-- Node34&#45;&gt;Node26 -->
<g id="edge40" class="edge"><title>Node34&#45;&gt;Node26</title>
<path fill="none" stroke="midnightblue" d="M956.523,-513.859C974.169,-512.384 993.436,-510.774 1011.19,-509.291"/>
<polygon fill="midnightblue" stroke="midnightblue" points="1011.77,-512.755 1021.44,-508.434 1011.18,-505.779 1011.77,-512.755"/>
</g>
<!-- Node36&#45;&gt;Node34 -->
<g id="edge54" class="edge"><title>Node36&#45;&gt;Node34</title>
<path fill="none" stroke="midnightblue" d="M580.623,-548.329C593.806,-548.608 607.92,-548.859 621,-549 692.551,-549.769 711.067,-558.417 782,-549 807.112,-545.666 834.604,-538.266 855.945,-531.65"/>
<polygon fill="midnightblue" stroke="midnightblue" points="857.118,-534.949 865.587,-528.584 854.997,-528.278 857.118,-534.949"/>
</g>
<!-- Node36&#45;&gt;Node35 -->
<g id="edge55" class="edge"><title>Node36&#45;&gt;Node35</title>
<path fill="none" stroke="midnightblue" d="M531.234,-537.418C540.587,-511.23 570.284,-438.019 621,-402 623.719,-400.069 626.609,-398.332 629.615,-396.771"/>
<polygon fill="midnightblue" stroke="midnightblue" points="631.238,-399.879 638.928,-392.592 628.372,-393.492 631.238,-399.879"/>
</g>
<!-- Node36&#45;&gt;Node36 -->
<g id="edge48" class="edge"><title>Node36&#45;&gt;Node36</title>
<path fill="none" stroke="midnightblue" d="M502.339,-556.757C490.342,-565.565 498.562,-575 527,-575 546.106,-575 556.086,-570.741 556.94,-565.275"/>
<polygon fill="midnightblue" stroke="midnightblue" points="559.904,-563.413 551.661,-556.757 553.954,-567.101 559.904,-563.413"/>
</g>
<!-- Node37 -->
<g id="node37" class="node"><title>Node37</title>
<g id="a_node37"><a xlink:href="classpdal_1_1BasePointTable.html#a670592aca912391f1a90073a2031e5e0" target="_top" xlink:title="pdal::BasePointTable\l::addSpatialReference">
<polygon fill="white" stroke="black" points="645,-510 645,-540 758,-540 758,-510 645,-510"/>
<text text-anchor="start" x="653" y="-528" font-family="Helvetica,sans-Serif" font-size="10.00">pdal::BasePointTable</text>
<text text-anchor="middle" x="701.5" y="-517" font-family="Helvetica,sans-Serif" font-size="10.00">::addSpatialReference</text>
</a>
</g>
</g>
<!-- Node36&#45;&gt;Node37 -->
<g id="edge45" class="edge"><title>Node36&#45;&gt;Node37</title>
<path fill="none" stroke="midnightblue" d="M580.693,-540.28C597.672,-538.114 616.707,-535.687 634.519,-533.415"/>
<polygon fill="midnightblue" stroke="midnightblue" points="635.363,-536.836 644.84,-532.099 634.478,-529.892 635.363,-536.836"/>
</g>
<!-- Node38 -->
<g id="node38" class="node"><title>Node38</title>
<g id="a_node38"><a xlink:href="classpdal_1_1BasePointTable.html#aa3ed63a9e1a8897ccb7dc81a614f6141" target="_top" xlink:title="pdal::BasePointTable\l::clearSpatialReferences">
<polygon fill="white" stroke="black" points="639.5,-461 639.5,-491 763.5,-491 763.5,-461 639.5,-461"/>
<text text-anchor="start" x="647.5" y="-479" font-family="Helvetica,sans-Serif" font-size="10.00">pdal::BasePointTable</text>
<text text-anchor="middle" x="701.5" y="-468" font-family="Helvetica,sans-Serif" font-size="10.00">::clearSpatialReferences</text>
</a>
</g>
</g>
<!-- Node36&#45;&gt;Node38 -->
<g id="edge46" class="edge"><title>Node36&#45;&gt;Node38</title>
<path fill="none" stroke="midnightblue" d="M544.727,-537.422C563.034,-527.21 593.454,-511.02 621,-500 626.02,-497.992 631.275,-496.057 636.588,-494.217"/>
<polygon fill="midnightblue" stroke="midnightblue" points="637.803,-497.502 646.178,-491.012 635.584,-490.862 637.803,-497.502"/>
</g>
<!-- Node39 -->
<g id="node39" class="node"><title>Node39</title>
<g id="a_node39"><a xlink:href="classpdal_1_1SpatialReference.html#a48fa2f7e79ea172b62ad2e874ff01610" target="_top" xlink:title="pdal::SpatialReference\l::empty">
<polygon fill="white" stroke="black" points="643.5,-412 643.5,-442 759.5,-442 759.5,-412 643.5,-412"/>
<text text-anchor="start" x="651.5" y="-430" font-family="Helvetica,sans-Serif" font-size="10.00">pdal::SpatialReference</text>
<text text-anchor="middle" x="701.5" y="-419" font-family="Helvetica,sans-Serif" font-size="10.00">::empty</text>
</a>
</g>
</g>
<!-- Node36&#45;&gt;Node39 -->
<g id="edge47" class="edge"><title>Node36&#45;&gt;Node39</title>
<path fill="none" stroke="midnightblue" d="M534.743,-537.256C548.625,-517.921 582.358,-474.544 621,-451 625.094,-448.506 629.465,-446.254 633.973,-444.225"/>
<polygon fill="midnightblue" stroke="midnightblue" points="635.452,-447.402 643.373,-440.365 632.793,-440.926 635.452,-447.402"/>
</g>
<!-- Node40 -->
<g id="node40" class="node"><title>Node40</title>
<g id="a_node40"><a xlink:href="classpdal_1_1BasePointTable.html#a2554cd260c437c9b1e4a017a28a5c7de" target="_top" xlink:title="pdal::BasePointTable\l::finalize">
<polygon fill="white" stroke="black" points="646.5,-712 646.5,-742 756.5,-742 756.5,-712 646.5,-712"/>
<text text-anchor="start" x="654.5" y="-730" font-family="Helvetica,sans-Serif" font-size="10.00">pdal::BasePointTable</text>
<text text-anchor="middle" x="701.5" y="-719" font-family="Helvetica,sans-Serif" font-size="10.00">::finalize</text>
</a>
</g>
</g>
<!-- Node36&#45;&gt;Node40 -->
<g id="edge49" class="edge"><title>Node36&#45;&gt;Node40</title>
<path fill="none" stroke="midnightblue" d="M531.044,-556.65C540.1,-583.781 569.49,-661.398 621,-702 625.732,-705.73 631.027,-708.907 636.578,-711.614"/>
<polygon fill="midnightblue" stroke="midnightblue" points="635.54,-714.978 646.107,-715.739 638.321,-708.554 635.54,-714.978"/>
</g>
<!-- Node41 -->
<g id="node41" class="node"><title>Node41</title>
<g id="a_node41"><a xlink:href="classpdal_1_1Stage.html#a9889b4446f40daa6f4cd7bfe3c567839" target="_top" xlink:title="pdal::Stage::getSpatialReference">
<polygon fill="white" stroke="black" points="621,-673.5 621,-692.5 782,-692.5 782,-673.5 621,-673.5"/>
<text text-anchor="middle" x="701.5" y="-680.5" font-family="Helvetica,sans-Serif" font-size="10.00">pdal::Stage::getSpatialReference</text>
</a>
</g>
</g>
<!-- Node36&#45;&gt;Node41 -->
<g id="edge50" class="edge"><title>Node36&#45;&gt;Node41</title>
<path fill="none" stroke="midnightblue" d="M532.766,-556.664C544.443,-579.279 576.785,-635.853 621,-664 624.339,-666.125 627.894,-668.013 631.578,-669.69"/>
<polygon fill="midnightblue" stroke="midnightblue" points="630.369,-672.976 640.953,-673.438 632.967,-666.476 630.369,-672.976"/>
</g>
<!-- Node42 -->
<g id="node42" class="node"><title>Node42</title>
<g id="a_node42"><a xlink:href="classpdal_1_1Stage.html#a1b00532ede55b90a7b6332a2966f5626" target="_top" xlink:title="pdal::Stage::l_done">
<polygon fill="white" stroke="black" points="651,-635.5 651,-654.5 752,-654.5 752,-635.5 651,-635.5"/>
<text text-anchor="middle" x="701.5" y="-642.5" font-family="Helvetica,sans-Serif" font-size="10.00">pdal::Stage::l_done</text>
</a>
</g>
</g>
<!-- Node36&#45;&gt;Node42 -->
<g id="edge51" class="edge"><title>Node36&#45;&gt;Node42</title>
<path fill="none" stroke="midnightblue" d="M536.438,-556.68C551.618,-573.46 585.291,-607.889 621,-626 627.207,-629.148 633.954,-631.788 640.806,-633.998"/>
<polygon fill="midnightblue" stroke="midnightblue" points="640.29,-637.493 650.87,-636.937 642.252,-630.774 640.29,-637.493"/>
</g>
<!-- Node44 -->
<g id="node44" class="node"><title>Node44</title>
<g id="a_node44"><a xlink:href="classpdal_1_1Stage.html#afb562c59c53ed8120df9106655eb2543" target="_top" xlink:title="pdal::Stage::ready">
<polygon fill="white" stroke="black" points="653.5,-597.5 653.5,-616.5 749.5,-616.5 749.5,-597.5 653.5,-597.5"/>
<text text-anchor="middle" x="701.5" y="-604.5" font-family="Helvetica,sans-Serif" font-size="10.00">pdal::Stage::ready</text>
</a>
</g>
</g>
<!-- Node36&#45;&gt;Node44 -->
<g id="edge53" class="edge"><title>Node36&#45;&gt;Node44</title>
<path fill="none" stroke="midnightblue" d="M551.133,-556.52C569.841,-564.081 596.933,-574.723 621,-583 632.61,-586.993 645.292,-590.985 657.05,-594.535"/>
<polygon fill="midnightblue" stroke="midnightblue" points="656.081,-597.898 666.664,-597.403 658.082,-591.191 656.081,-597.898"/>
</g>
<!-- Node43 -->
<g id="node43" class="node"><title>Node43</title>
<g id="a_node43"><a xlink:href="classpdal_1_1Stage.html#a2444e73dc41bfc0b94981909595ef2ca" target="_top" xlink:title="pdal::Stage::done">
<polygon fill="white" stroke="black" points="847.5,-635.5 847.5,-654.5 940.5,-654.5 940.5,-635.5 847.5,-635.5"/>
<text text-anchor="middle" x="894" y="-642.5" font-family="Helvetica,sans-Serif" font-size="10.00">pdal::Stage::done</text>
</a>
</g>
</g>
<!-- Node42&#45;&gt;Node43 -->
<g id="edge52" class="edge"><title>Node42&#45;&gt;Node43</title>
<path fill="none" stroke="midnightblue" d="M752.054,-645C778.155,-645 810.254,-645 837.224,-645"/>
<polygon fill="midnightblue" stroke="midnightblue" points="837.286,-648.5 847.286,-645 837.286,-641.5 837.286,-648.5"/>
</g>
<!-- Node46 -->
<g id="node46" class="node"><title>Node46</title>
<g id="a_node46"><a xlink:href="classpdal_1_1PipelineReaderJSON.html#a84a02c6838be0ce79beb1f3ad56d90d3" target="_top" xlink:title="pdal::PipelineReaderJSON\l::readPipeline">
<polygon fill="white" stroke="black" points="299,-33 299,-63 433,-63 433,-33 299,-33"/>
<text text-anchor="start" x="307" y="-51" font-family="Helvetica,sans-Serif" font-size="10.00">pdal::PipelineReaderJSON</text>
<text text-anchor="middle" x="366" y="-40" font-family="Helvetica,sans-Serif" font-size="10.00">::readPipeline</text>
</a>
</g>
</g>
<!-- Node45&#45;&gt;Node46 -->
<g id="edge57" class="edge"><title>Node45&#45;&gt;Node46</title>
<path fill="none" stroke="midnightblue" d="M242.846,-99.9639C265.665,-90.2567 295.555,-77.5415 320.057,-67.1188"/>
<polygon fill="midnightblue" stroke="midnightblue" points="321.668,-70.2369 329.5,-63.1017 318.928,-63.7955 321.668,-70.2369"/>
</g>
<!-- Node47 -->
<g id="node47" class="node"><title>Node47</title>
<g id="a_node47"><a xlink:href="namespacepdal_1_1Utils.html#ac3322e84f8c5a998a344a5a606c74793" target="_top" xlink:title="pdal::Utils::openFile">
<polygon fill="white" stroke="black" points="475,-38.5 475,-57.5 579,-57.5 579,-38.5 475,-38.5"/>
<text text-anchor="middle" x="527" y="-45.5" font-family="Helvetica,sans-Serif" font-size="10.00">pdal::Utils::openFile</text>
</a>
</g>
</g>
<!-- Node46&#45;&gt;Node47 -->
<g id="edge58" class="edge"><title>Node46&#45;&gt;Node47</title>
<path fill="none" stroke="midnightblue" d="M433.049,-48C443.544,-48 454.36,-48 464.739,-48"/>
<polygon fill="midnightblue" stroke="midnightblue" points="464.943,-51.5001 474.943,-48 464.943,-44.5001 464.943,-51.5001"/>
</g>
<!-- Node49 -->
<g id="node49" class="node"><title>Node49</title>
<g id="a_node49"><a xlink:href="namespacepdal_1_1Utils.html#aad48cdff8e3ff3d13c7a273583870185" target="_top" xlink:title="pdal::Utils::closeFile">
<polygon fill="white" stroke="black" points="474,-0.5 474,-19.5 580,-19.5 580,-0.5 474,-0.5"/>
<text text-anchor="middle" x="527" y="-7.5" font-family="Helvetica,sans-Serif" font-size="10.00">pdal::Utils::closeFile</text>
</a>
</g>
</g>
<!-- Node46&#45;&gt;Node49 -->
<g id="edge60" class="edge"><title>Node46&#45;&gt;Node49</title>
<path fill="none" stroke="midnightblue" d="M429.841,-32.9814C445.216,-29.3069 461.461,-25.4243 476.135,-21.9174"/>
<polygon fill="midnightblue" stroke="midnightblue" points="477.1,-25.2855 486.012,-19.5568 475.473,-18.4772 477.1,-25.2855"/>
</g>
<!-- Node48 -->
<g id="node48" class="node"><title>Node48</title>
<g id="a_node48"><a xlink:href="SQLiteTest_8cpp.html#afdd1742979cee35fe1879794bd7ff3a4" target="_top" xlink:title="tempFilename">
<polygon fill="white" stroke="black" points="662.5,-38.5 662.5,-57.5 740.5,-57.5 740.5,-38.5 662.5,-38.5"/>
<text text-anchor="middle" x="701.5" y="-45.5" font-family="Helvetica,sans-Serif" font-size="10.00">tempFilename</text>
</a>
</g>
</g>
<!-- Node47&#45;&gt;Node48 -->
<g id="edge59" class="edge"><title>Node47&#45;&gt;Node48</title>
<path fill="none" stroke="midnightblue" d="M579.289,-48C602.37,-48 629.471,-48 652.188,-48"/>
<polygon fill="midnightblue" stroke="midnightblue" points="652.287,-51.5001 662.287,-48 652.287,-44.5001 652.287,-51.5001"/>
</g>
<!-- Node50 -->
<g id="node50" class="node"><title>Node50</title>
<g id="a_node50"><a xlink:href="namespacepdal_1_1Utils.html#a6ce7036b0912ba81b1f1a876b2772a34" target="_top" xlink:title="pdal::Utils::closeFile">
<polygon fill="white" stroke="black" points="648.5,-0.5 648.5,-19.5 754.5,-19.5 754.5,-0.5 648.5,-0.5"/>
<text text-anchor="middle" x="701.5" y="-7.5" font-family="Helvetica,sans-Serif" font-size="10.00">pdal::Utils::closeFile</text>
</a>
</g>
</g>
<!-- Node49&#45;&gt;Node50 -->
<g id="edge61" class="edge"><title>Node49&#45;&gt;Node50</title>
<path fill="none" stroke="midnightblue" d="M580.224,-10C598.548,-10 619.312,-10 638.369,-10"/>
<polygon fill="midnightblue" stroke="midnightblue" points="638.454,-13.5001 648.454,-10 638.454,-6.5001 638.454,-13.5001"/>
</g>
</g>
</svg>
