<?xml version="1.0" encoding="UTF-8" standalone="no"?>
<!DOCTYPE svg PUBLIC "-//W3C//DTD SVG 1.1//EN"
 "http://www.w3.org/Graphics/SVG/1.1/DTD/svg11.dtd">
<!-- Generated by graphviz version 2.38.0 (20140413.2041)
 -->
<!-- Title: Support::diff_text_files Pages: 1 -->
<svg width="385pt" height="104pt"
 viewBox="0.00 0.00 385.00 104.00" xmlns="http://www.w3.org/2000/svg" xmlns:xlink="http://www.w3.org/1999/xlink">
<g id="graph0" class="graph" transform="scale(1 1) rotate(0) translate(4 100)">
<title>Support::diff_text_files</title>
<polygon fill="white" stroke="none" points="-4,4 -4,-100 381,-100 381,4 -4,4"/>
<!-- Node1 -->
<g id="node1" class="node"><title>Node1</title>
<polygon fill="#bfbfbf" stroke="black" points="0,-33 0,-63 92,-63 92,-33 0,-33"/>
<text text-anchor="start" x="8" y="-51" font-family="Helvetica,sans-Serif" font-size="10.00">Support::diff_text</text>
<text text-anchor="middle" x="46" y="-40" font-family="Helvetica,sans-Serif" font-size="10.00">_files</text>
</g>
<!-- Node2 -->
<g id="node2" class="node"><title>Node2</title>
<g id="a_node2"><a xlink:href="namespacepdal_1_1Utils.html#aad48cdff8e3ff3d13c7a273583870185" target="_top" xlink:title="pdal::Utils::closeFile">
<polygon fill="white" stroke="black" points="128.5,-76.5 128.5,-95.5 234.5,-95.5 234.5,-76.5 128.5,-76.5"/>
<text text-anchor="middle" x="181.5" y="-83.5" font-family="Helvetica,sans-Serif" font-size="10.00">pdal::Utils::closeFile</text>
</a>
</g>
</g>
<!-- Node1&#45;&gt;Node2 -->
<g id="edge1" class="edge"><title>Node1&#45;&gt;Node2</title>
<path fill="none" stroke="midnightblue" d="M92.197,-60.8651C106.702,-64.9937 122.727,-69.5553 137.1,-73.6465"/>
<polygon fill="midnightblue" stroke="midnightblue" points="136.171,-77.0211 146.748,-76.3926 138.088,-70.2885 136.171,-77.0211"/>
</g>
<!-- Node4 -->
<g id="node4" class="node"><title>Node4</title>
<g id="a_node4"><a xlink:href="namespacepdal_1_1Utils.html#aa7cd618aca677bff881c1c14fbeebe72" target="_top" xlink:title="pdal::Utils::fileExists">
<polygon fill="white" stroke="black" points="128,-38.5 128,-57.5 235,-57.5 235,-38.5 128,-38.5"/>
<text text-anchor="middle" x="181.5" y="-45.5" font-family="Helvetica,sans-Serif" font-size="10.00">pdal::Utils::fileExists</text>
</a>
</g>
</g>
<!-- Node1&#45;&gt;Node4 -->
<g id="edge3" class="edge"><title>Node1&#45;&gt;Node4</title>
<path fill="none" stroke="midnightblue" d="M92.197,-48C100.461,-48 109.219,-48 117.883,-48"/>
<polygon fill="midnightblue" stroke="midnightblue" points="117.977,-51.5001 127.977,-48 117.977,-44.5001 117.977,-51.5001"/>
</g>
<!-- Node5 -->
<g id="node5" class="node"><title>Node5</title>
<g id="a_node5"><a xlink:href="namespacepdal_1_1Utils.html#ac3322e84f8c5a998a344a5a606c74793" target="_top" xlink:title="pdal::Utils::openFile">
<polygon fill="white" stroke="black" points="129.5,-0.5 129.5,-19.5 233.5,-19.5 233.5,-0.5 129.5,-0.5"/>
<text text-anchor="middle" x="181.5" y="-7.5" font-family="Helvetica,sans-Serif" font-size="10.00">pdal::Utils::openFile</text>
</a>
</g>
</g>
<!-- Node1&#45;&gt;Node5 -->
<g id="edge4" class="edge"><title>Node1&#45;&gt;Node5</title>
<path fill="none" stroke="midnightblue" d="M92.197,-35.1349C106.702,-31.0063 122.727,-26.4447 137.1,-22.3535"/>
<polygon fill="midnightblue" stroke="midnightblue" points="138.088,-25.7115 146.748,-19.6074 136.171,-18.9789 138.088,-25.7115"/>
</g>
<!-- Node3 -->
<g id="node3" class="node"><title>Node3</title>
<g id="a_node3"><a xlink:href="namespacepdal_1_1Utils.html#a6ce7036b0912ba81b1f1a876b2772a34" target="_top" xlink:title="pdal::Utils::closeFile">
<polygon fill="white" stroke="black" points="271,-76.5 271,-95.5 377,-95.5 377,-76.5 271,-76.5"/>
<text text-anchor="middle" x="324" y="-83.5" font-family="Helvetica,sans-Serif" font-size="10.00">pdal::Utils::closeFile</text>
</a>
</g>
</g>
<!-- Node2&#45;&gt;Node3 -->
<g id="edge2" class="edge"><title>Node2&#45;&gt;Node3</title>
<path fill="none" stroke="midnightblue" d="M234.817,-86C243.229,-86 252.008,-86 260.627,-86"/>
<polygon fill="midnightblue" stroke="midnightblue" points="260.639,-89.5001 270.639,-86 260.639,-82.5001 260.639,-89.5001"/>
</g>
<!-- Node6 -->
<g id="node6" class="node"><title>Node6</title>
<g id="a_node6"><a xlink:href="SQLiteTest_8cpp.html#afdd1742979cee35fe1879794bd7ff3a4" target="_top" xlink:title="tempFilename">
<polygon fill="white" stroke="black" points="285,-0.5 285,-19.5 363,-19.5 363,-0.5 285,-0.5"/>
<text text-anchor="middle" x="324" y="-7.5" font-family="Helvetica,sans-Serif" font-size="10.00">tempFilename</text>
</a>
</g>
</g>
<!-- Node5&#45;&gt;Node6 -->
<g id="edge5" class="edge"><title>Node5&#45;&gt;Node6</title>
<path fill="none" stroke="midnightblue" d="M233.621,-10C246.994,-10 261.368,-10 274.595,-10"/>
<polygon fill="midnightblue" stroke="midnightblue" points="274.915,-13.5001 284.915,-10 274.915,-6.5001 274.915,-13.5001"/>
</g>
</g>
</svg>
