<?xml version="1.0" encoding="UTF-8" standalone="no"?>
<!DOCTYPE svg PUBLIC "-//W3C//DTD SVG 1.1//EN"
 "http://www.w3.org/Graphics/SVG/1.1/DTD/svg11.dtd">
<!-- Generated by graphviz version 2.38.0 (20140413.2041)
 -->
<!-- Title: pdal::Polygon::initializeFromBounds Pages: 1 -->
<svg width="461pt" height="53pt"
 viewBox="0.00 0.00 461.00 52.50" xmlns="http://www.w3.org/2000/svg" xmlns:xlink="http://www.w3.org/1999/xlink">
<g id="graph0" class="graph" transform="scale(1 1) rotate(0) translate(4 48.5)">
<title>pdal::Polygon::initializeFromBounds</title>
<polygon fill="white" stroke="none" points="-4,4 -4,-48.5 457,-48.5 457,4 -4,4"/>
<!-- Node1 -->
<g id="node1" class="node"><title>Node1</title>
<polygon fill="#bfbfbf" stroke="black" points="0,-14 0,-44 117,-44 117,-14 0,-14"/>
<text text-anchor="start" x="8" y="-32" font-family="Helvetica,sans-Serif" font-size="10.00">pdal::Polygon::initialize</text>
<text text-anchor="middle" x="58.5" y="-21" font-family="Helvetica,sans-Serif" font-size="10.00">FromBounds</text>
</g>
<!-- Node2 -->
<g id="node2" class="node"><title>Node2</title>
<g id="a_node2"><a xlink:href="classpdal_1_1geos_1_1ErrorHandler.html#a54bdaa70ba8baee1c8ad8f9f47572c8d" target="_top" xlink:title="pdal::geos::ErrorHandler::ctx">
<polygon fill="white" stroke="black" points="311,-19.5 311,-38.5 453,-38.5 453,-19.5 311,-19.5"/>
<text text-anchor="middle" x="382" y="-26.5" font-family="Helvetica,sans-Serif" font-size="10.00">pdal::geos::ErrorHandler::ctx</text>
</a>
</g>
</g>
<!-- Node1&#45;&gt;Node2 -->
<g id="edge1" class="edge"><title>Node1&#45;&gt;Node2</title>
<path fill="none" stroke="midnightblue" d="M117.349,-29C168.513,-29 243.669,-29 300.662,-29"/>
<polygon fill="midnightblue" stroke="midnightblue" points="300.722,-32.5001 310.722,-29 300.722,-25.5001 300.722,-32.5001"/>
</g>
<!-- Node3 -->
<g id="node3" class="node"><title>Node3</title>
<g id="a_node3"><a xlink:href="classpdal_1_1Geometry.html#a5340a42c65209674135a41008d0c305a" target="_top" xlink:title="pdal::Geometry::prepare">
<polygon fill="white" stroke="black" points="153,-0.5 153,-19.5 275,-19.5 275,-0.5 153,-0.5"/>
<text text-anchor="middle" x="214" y="-7.5" font-family="Helvetica,sans-Serif" font-size="10.00">pdal::Geometry::prepare</text>
</a>
</g>
</g>
<!-- Node1&#45;&gt;Node3 -->
<g id="edge2" class="edge"><title>Node1&#45;&gt;Node3</title>
<path fill="none" stroke="midnightblue" d="M117.094,-21.871C125.471,-20.8342 134.173,-19.757 142.766,-18.6935"/>
<polygon fill="midnightblue" stroke="midnightblue" points="143.282,-22.1564 152.776,-17.4545 142.422,-15.2095 143.282,-22.1564"/>
</g>
<!-- Node3&#45;&gt;Node2 -->
<g id="edge3" class="edge"><title>Node3&#45;&gt;Node2</title>
<path fill="none" stroke="midnightblue" d="M275.399,-16.9132C283.661,-17.8588 292.247,-18.8415 300.793,-19.8197"/>
<polygon fill="midnightblue" stroke="midnightblue" points="300.452,-23.3034 310.785,-20.9634 301.248,-16.3488 300.452,-23.3034"/>
</g>
</g>
</svg>
