<?xml version="1.0" encoding="UTF-8" standalone="no"?>
<!DOCTYPE svg PUBLIC "-//W3C//DTD SVG 1.1//EN"
 "http://www.w3.org/Graphics/SVG/1.1/DTD/svg11.dtd">
<!-- Generated by graphviz version 2.38.0 (20140413.2041)
 -->
<!-- Title: pdal::Option::parse Pages: 1 -->
<svg width="260pt" height="66pt"
 viewBox="0.00 0.00 260.00 66.00" xmlns="http://www.w3.org/2000/svg" xmlns:xlink="http://www.w3.org/1999/xlink">
<g id="graph0" class="graph" transform="scale(1 1) rotate(0) translate(4 62)">
<title>pdal::Option::parse</title>
<polygon fill="white" stroke="none" points="-4,4 -4,-62 256,-62 256,4 -4,4"/>
<!-- Node1 -->
<g id="node1" class="node"><title>Node1</title>
<polygon fill="#bfbfbf" stroke="black" points="0,-19.5 0,-38.5 99,-38.5 99,-19.5 0,-19.5"/>
<text text-anchor="middle" x="49.5" y="-26.5" font-family="Helvetica,sans-Serif" font-size="10.00">pdal::Option::parse</text>
</g>
<!-- Node2 -->
<g id="node2" class="node"><title>Node2</title>
<g id="a_node2"><a xlink:href="namespacepdal_1_1Utils.html#acae5a19cd66121b77e2599daec48413d" target="_top" xlink:title="pdal::Utils::extract">
<polygon fill="white" stroke="black" points="145,-38.5 145,-57.5 242,-57.5 242,-38.5 145,-38.5"/>
<text text-anchor="middle" x="193.5" y="-45.5" font-family="Helvetica,sans-Serif" font-size="10.00">pdal::Utils::extract</text>
</a>
</g>
</g>
<!-- Node1&#45;&gt;Node2 -->
<g id="edge1" class="edge"><title>Node1&#45;&gt;Node2</title>
<path fill="none" stroke="midnightblue" d="M99.3683,-35.5387C110.785,-37.0664 123.051,-38.7075 134.811,-40.2811"/>
<polygon fill="midnightblue" stroke="midnightblue" points="134.606,-43.7847 144.982,-41.6419 135.534,-36.8465 134.606,-43.7847"/>
</g>
<!-- Node3 -->
<g id="node3" class="node"><title>Node3</title>
<g id="a_node3"><a xlink:href="namespacepdal_1_1Dimension.html#af3176b0b7e6b4be000317846cf7c2718" target="_top" xlink:title="pdal::Dimension::name">
<polygon fill="white" stroke="black" points="135,-0.5 135,-19.5 252,-19.5 252,-0.5 135,-0.5"/>
<text text-anchor="middle" x="193.5" y="-7.5" font-family="Helvetica,sans-Serif" font-size="10.00">pdal::Dimension::name</text>
</a>
</g>
</g>
<!-- Node1&#45;&gt;Node3 -->
<g id="edge2" class="edge"><title>Node1&#45;&gt;Node3</title>
<path fill="none" stroke="midnightblue" d="M99.3683,-22.4613C107.556,-21.3657 116.181,-20.2117 124.742,-19.0662"/>
<polygon fill="midnightblue" stroke="midnightblue" points="125.286,-22.5247 134.734,-17.7293 124.358,-15.5865 125.286,-22.5247"/>
</g>
</g>
</svg>
