<?xml version="1.0" encoding="UTF-8" standalone="no"?>
<!DOCTYPE svg PUBLIC "-//W3C//DTD SVG 1.1//EN"
 "http://www.w3.org/Graphics/SVG/1.1/DTD/svg11.dtd">
<!-- Generated by graphviz version 2.38.0 (20140413.2041)
 -->
<!-- Title: pdal::OciWriter::loadSQLData Pages: 1 -->
<svg width="645pt" height="104pt"
 viewBox="0.00 0.00 645.00 104.00" xmlns="http://www.w3.org/2000/svg" xmlns:xlink="http://www.w3.org/1999/xlink">
<g id="graph0" class="graph" transform="scale(1 1) rotate(0) translate(4 100)">
<title>pdal::OciWriter::loadSQLData</title>
<polygon fill="white" stroke="none" points="-4,4 -4,-100 641,-100 641,4 -4,4"/>
<!-- Node1 -->
<g id="node1" class="node"><title>Node1</title>
<polygon fill="#bfbfbf" stroke="black" points="0,-57.5 0,-76.5 146,-76.5 146,-57.5 0,-57.5"/>
<text text-anchor="middle" x="73" y="-64.5" font-family="Helvetica,sans-Serif" font-size="10.00">pdal::OciWriter::loadSQLData</text>
</g>
<!-- Node2 -->
<g id="node2" class="node"><title>Node2</title>
<g id="a_node2"><a xlink:href="classpdal_1_1OciWriter.html#a305cd40729c19754aec8fc7c9d104fdf" target="_top" xlink:title="pdal::OciWriter::createPCEntry">
<polygon fill="white" stroke="black" points="182,-76.5 182,-95.5 334,-95.5 334,-76.5 182,-76.5"/>
<text text-anchor="middle" x="258" y="-83.5" font-family="Helvetica,sans-Serif" font-size="10.00">pdal::OciWriter::createPCEntry</text>
</a>
</g>
</g>
<!-- Node1&#45;&gt;Node2 -->
<g id="edge1" class="edge"><title>Node1&#45;&gt;Node2</title>
<path fill="none" stroke="midnightblue" d="M156.111,-75.5252C164.729,-76.42 173.46,-77.3264 181.992,-78.2123"/>
<polygon fill="midnightblue" stroke="midnightblue" points="156.372,-72.0335 146.064,-74.482 155.649,-78.9961 156.372,-72.0335"/>
</g>
<!-- Node5 -->
<g id="node5" class="node"><title>Node5</title>
<g id="a_node5"><a xlink:href="classpdal_1_1OciWriter.html#a629a673386708bf15044f9c05c2218fd" target="_top" xlink:title="pdal::OciWriter::runFileSQL">
<polygon fill="white" stroke="black" points="189.5,-38.5 189.5,-57.5 326.5,-57.5 326.5,-38.5 189.5,-38.5"/>
<text text-anchor="middle" x="258" y="-45.5" font-family="Helvetica,sans-Serif" font-size="10.00">pdal::OciWriter::runFileSQL</text>
</a>
</g>
</g>
<!-- Node1&#45;&gt;Node5 -->
<g id="edge4" class="edge"><title>Node1&#45;&gt;Node5</title>
<path fill="none" stroke="midnightblue" d="M156.211,-58.4645C167.337,-57.3092 178.649,-56.1348 189.478,-55.0104"/>
<polygon fill="midnightblue" stroke="midnightblue" points="155.649,-55.0039 146.064,-59.518 156.372,-61.9665 155.649,-55.0039"/>
</g>
<!-- Node3 -->
<g id="node3" class="node"><title>Node3</title>
<g id="a_node3"><a xlink:href="classpdal_1_1OciWriter.html#a29c890b4de7d31ab917f5d4577f62345" target="_top" xlink:title="pdal::OciWriter::writeInit">
<polygon fill="white" stroke="black" points="370,-76.5 370,-95.5 492,-95.5 492,-76.5 370,-76.5"/>
<text text-anchor="middle" x="431" y="-83.5" font-family="Helvetica,sans-Serif" font-size="10.00">pdal::OciWriter::writeInit</text>
</a>
</g>
</g>
<!-- Node2&#45;&gt;Node3 -->
<g id="edge2" class="edge"><title>Node2&#45;&gt;Node3</title>
<path fill="none" stroke="midnightblue" d="M344.194,-86C352.896,-86 361.601,-86 369.95,-86"/>
<polygon fill="midnightblue" stroke="midnightblue" points="344.003,-82.5001 334.003,-86 344.003,-89.5001 344.003,-82.5001"/>
</g>
<!-- Node4 -->
<g id="node4" class="node"><title>Node4</title>
<g id="a_node4"><a xlink:href="classpdal_1_1OciWriter.html#a11f02a9af7350d831dff5f81859c76f2" target="_top" xlink:title="pdal::OciWriter::write">
<polygon fill="white" stroke="black" points="528,-76.5 528,-95.5 637,-95.5 637,-76.5 528,-76.5"/>
<text text-anchor="middle" x="582.5" y="-83.5" font-family="Helvetica,sans-Serif" font-size="10.00">pdal::OciWriter::write</text>
</a>
</g>
</g>
<!-- Node3&#45;&gt;Node4 -->
<g id="edge3" class="edge"><title>Node3&#45;&gt;Node4</title>
<path fill="none" stroke="midnightblue" d="M502.589,-86C511.014,-86 519.509,-86 527.646,-86"/>
<polygon fill="midnightblue" stroke="midnightblue" points="502.376,-82.5001 492.376,-86 502.376,-89.5001 502.376,-82.5001"/>
</g>
<!-- Node6 -->
<g id="node6" class="node"><title>Node6</title>
<g id="a_node6"><a xlink:href="classpdal_1_1OciWriter.html#aaef01ec1f04e1cd86cd7d465d49e1d81" target="_top" xlink:title="pdal::OciWriter::ready">
<polygon fill="white" stroke="black" points="375,-38.5 375,-57.5 487,-57.5 487,-38.5 375,-38.5"/>
<text text-anchor="middle" x="431" y="-45.5" font-family="Helvetica,sans-Serif" font-size="10.00">pdal::OciWriter::ready</text>
</a>
</g>
</g>
<!-- Node5&#45;&gt;Node6 -->
<g id="edge5" class="edge"><title>Node5&#45;&gt;Node6</title>
<path fill="none" stroke="midnightblue" d="M336.84,-48C349.719,-48 362.832,-48 374.997,-48"/>
<polygon fill="midnightblue" stroke="midnightblue" points="336.584,-44.5001 326.584,-48 336.584,-51.5001 336.584,-44.5001"/>
</g>
<!-- Node7 -->
<g id="node7" class="node"><title>Node7</title>
<g id="a_node7"><a xlink:href="classpdal_1_1OciWriter.html#a899064a17b0d8ef871ab4d79dd2df62b" target="_top" xlink:title="pdal::OciWriter::done">
<polygon fill="white" stroke="black" points="376.5,-0.5 376.5,-19.5 485.5,-19.5 485.5,-0.5 376.5,-0.5"/>
<text text-anchor="middle" x="431" y="-7.5" font-family="Helvetica,sans-Serif" font-size="10.00">pdal::OciWriter::done</text>
</a>
</g>
</g>
<!-- Node5&#45;&gt;Node7 -->
<g id="edge6" class="edge"><title>Node5&#45;&gt;Node7</title>
<path fill="none" stroke="midnightblue" d="M312.209,-36.1757C336.317,-30.8184 364.44,-24.5689 387.16,-19.5201"/>
<polygon fill="midnightblue" stroke="midnightblue" points="311.153,-32.825 302.151,-38.411 312.672,-39.6583 311.153,-32.825"/>
</g>
</g>
</svg>
