<?xml version="1.0" encoding="UTF-8" standalone="no"?>
<!DOCTYPE svg PUBLIC "-//W3C//DTD SVG 1.1//EN"
 "http://www.w3.org/Graphics/SVG/1.1/DTD/svg11.dtd">
<!-- Generated by graphviz version 2.38.0 (20140413.2041)
 -->
<!-- Title: pdal::TIndexKernel::prepareGeometry Pages: 1 -->
<svg width="272pt" height="66pt"
 viewBox="0.00 0.00 272.00 66.00" xmlns="http://www.w3.org/2000/svg" xmlns:xlink="http://www.w3.org/1999/xlink">
<g id="graph0" class="graph" transform="scale(1 1) rotate(0) translate(4 62)">
<title>pdal::TIndexKernel::prepareGeometry</title>
<polygon fill="white" stroke="none" points="-4,4 -4,-62 268,-62 268,4 -4,4"/>
<!-- Node1 -->
<g id="node1" class="node"><title>Node1</title>
<polygon fill="#bfbfbf" stroke="black" points="0,-14 0,-44 98,-44 98,-14 0,-14"/>
<text text-anchor="start" x="8" y="-32" font-family="Helvetica,sans-Serif" font-size="10.00">pdal::TIndexKernel</text>
<text text-anchor="middle" x="49" y="-21" font-family="Helvetica,sans-Serif" font-size="10.00">::prepareGeometry</text>
</g>
<!-- Node2 -->
<g id="node2" class="node"><title>Node2</title>
<g id="a_node2"><a xlink:href="classpdal_1_1gdal_1_1SpatialRef.html#a6e9fd085183596f638066f2ef30c99ab" target="_top" xlink:title="pdal::gdal::SpatialRef::get">
<polygon fill="white" stroke="black" points="134,-38.5 134,-57.5 264,-57.5 264,-38.5 134,-38.5"/>
<text text-anchor="middle" x="199" y="-45.5" font-family="Helvetica,sans-Serif" font-size="10.00">pdal::gdal::SpatialRef::get</text>
</a>
</g>
</g>
<!-- Node1&#45;&gt;Node2 -->
<g id="edge1" class="edge"><title>Node1&#45;&gt;Node2</title>
<path fill="none" stroke="midnightblue" d="M98.0514,-35.1688C106.241,-36.2202 114.917,-37.3339 123.599,-38.4486"/>
<polygon fill="midnightblue" stroke="midnightblue" points="123.403,-41.9519 133.767,-39.7539 124.294,-35.0089 123.403,-41.9519"/>
</g>
<!-- Node3 -->
<g id="node3" class="node"><title>Node3</title>
<g id="a_node3"><a xlink:href="classpdal_1_1gdal_1_1Geometry.html#af2aae75d567627bb51f9751305bd8ad3" target="_top" xlink:title="pdal::gdal::Geometry::get">
<polygon fill="white" stroke="black" points="135.5,-0.5 135.5,-19.5 262.5,-19.5 262.5,-0.5 135.5,-0.5"/>
<text text-anchor="middle" x="199" y="-7.5" font-family="Helvetica,sans-Serif" font-size="10.00">pdal::gdal::Geometry::get</text>
</a>
</g>
</g>
<!-- Node1&#45;&gt;Node3 -->
<g id="edge2" class="edge"><title>Node1&#45;&gt;Node3</title>
<path fill="none" stroke="midnightblue" d="M98.0514,-22.8312C106.791,-21.7092 116.084,-20.5163 125.348,-19.3269"/>
<polygon fill="midnightblue" stroke="midnightblue" points="125.89,-22.7862 135.363,-18.0413 124.999,-15.8432 125.89,-22.7862"/>
</g>
</g>
</svg>
