<?xml version="1.0" encoding="UTF-8" standalone="no"?>
<!DOCTYPE svg PUBLIC "-//W3C//DTD SVG 1.1//EN"
 "http://www.w3.org/Graphics/SVG/1.1/DTD/svg11.dtd">
<!-- Generated by graphviz version 2.38.0 (20140413.2041)
 -->
<!-- Title: pdal::StreamCallbackFilter::setCallback Pages: 1 -->
<svg width="376pt" height="148pt"
 viewBox="0.00 0.00 376.00 148.00" xmlns="http://www.w3.org/2000/svg" xmlns:xlink="http://www.w3.org/1999/xlink">
<g id="graph0" class="graph" transform="scale(1 1) rotate(0) translate(4 144)">
<title>pdal::StreamCallbackFilter::setCallback</title>
<polygon fill="white" stroke="none" points="-4,4 -4,-144 372,-144 372,4 -4,4"/>
<!-- Node1 -->
<g id="node1" class="node"><title>Node1</title>
<polygon fill="#bfbfbf" stroke="black" points="0,-55 0,-85 132,-85 132,-55 0,-55"/>
<text text-anchor="start" x="8" y="-73" font-family="Helvetica,sans-Serif" font-size="10.00">pdal::StreamCallbackFilter</text>
<text text-anchor="middle" x="66" y="-62" font-family="Helvetica,sans-Serif" font-size="10.00">::setCallback</text>
</g>
<!-- Node2 -->
<g id="node2" class="node"><title>Node2</title>
<g id="a_node2"><a xlink:href="namespaceanonymous__namespace_02ColorinterpFilterTest_8cpp_03.html#a2c7a8c71c9e37bd0e7821a01064bd259" target="_top" xlink:title="anonymous_namespace\l\{ColorinterpFilterTest\l::cpp\}::standardTest">
<polygon fill="white" stroke="black" points="168,-98.5 168,-139.5 290,-139.5 290,-98.5 168,-98.5"/>
<text text-anchor="start" x="176" y="-127.5" font-family="Helvetica,sans-Serif" font-size="10.00">anonymous_namespace</text>
<text text-anchor="start" x="176" y="-116.5" font-family="Helvetica,sans-Serif" font-size="10.00">{ColorinterpFilterTest</text>
<text text-anchor="middle" x="229" y="-105.5" font-family="Helvetica,sans-Serif" font-size="10.00">::cpp}::standardTest</text>
</a>
</g>
</g>
<!-- Node1&#45;&gt;Node2 -->
<g id="edge1" class="edge"><title>Node1&#45;&gt;Node2</title>
<path fill="none" stroke="midnightblue" d="M126.293,-88.0457C139.821,-92.1628 154.209,-96.5418 167.775,-100.671"/>
<polygon fill="midnightblue" stroke="midnightblue" points="127.205,-84.6648 116.619,-85.1014 125.167,-91.3615 127.205,-84.6648"/>
</g>
<!-- Node4 -->
<g id="node4" class="node"><title>Node4</title>
<g id="a_node4"><a xlink:href="ColorinterpFilterTest_8cpp.html#a7b0a986bc2a7cc088365e9b3271c103b" target="_top" xlink:title="TEST">
<polygon fill="white" stroke="black" points="208,-60.5 208,-79.5 250,-79.5 250,-60.5 208,-60.5"/>
<text text-anchor="middle" x="229" y="-67.5" font-family="Helvetica,sans-Serif" font-size="10.00">TEST</text>
</a>
</g>
</g>
<!-- Node1&#45;&gt;Node4 -->
<g id="edge3" class="edge"><title>Node1&#45;&gt;Node4</title>
<path fill="none" stroke="midnightblue" d="M142.321,-70C166.504,-70 191.314,-70 207.97,-70"/>
<polygon fill="midnightblue" stroke="midnightblue" points="142.021,-66.5001 132.021,-70 142.021,-73.5001 142.021,-66.5001"/>
</g>
<!-- Node5 -->
<g id="node5" class="node"><title>Node5</title>
<g id="a_node5"><a xlink:href="namespaceanonymous__namespace_02ColorizationFilterTest_8cpp_03.html#a34ec954a3562386020f65ce3ad8d025e" target="_top" xlink:title="anonymous_namespace\l\{ColorizationFilterTest\l::cpp\}::testFileStreamed">
<polygon fill="white" stroke="black" points="168,-0.5 168,-41.5 290,-41.5 290,-0.5 168,-0.5"/>
<text text-anchor="start" x="176" y="-29.5" font-family="Helvetica,sans-Serif" font-size="10.00">anonymous_namespace</text>
<text text-anchor="start" x="176" y="-18.5" font-family="Helvetica,sans-Serif" font-size="10.00">{ColorizationFilterTest</text>
<text text-anchor="middle" x="229" y="-7.5" font-family="Helvetica,sans-Serif" font-size="10.00">::cpp}::testFileStreamed</text>
</a>
</g>
</g>
<!-- Node1&#45;&gt;Node5 -->
<g id="edge4" class="edge"><title>Node1&#45;&gt;Node5</title>
<path fill="none" stroke="midnightblue" d="M126.293,-51.9543C139.821,-47.8372 154.209,-43.4582 167.775,-39.3294"/>
<polygon fill="midnightblue" stroke="midnightblue" points="125.167,-48.6385 116.619,-54.8986 127.205,-55.3352 125.167,-48.6385"/>
</g>
<!-- Node3 -->
<g id="node3" class="node"><title>Node3</title>
<g id="a_node3"><a xlink:href="ColorinterpFilterTest_8cpp.html#a35a5b908889b5367759015ffa19c58c9" target="_top" xlink:title="TEST">
<polygon fill="white" stroke="black" points="326,-109.5 326,-128.5 368,-128.5 368,-109.5 326,-109.5"/>
<text text-anchor="middle" x="347" y="-116.5" font-family="Helvetica,sans-Serif" font-size="10.00">TEST</text>
</a>
</g>
</g>
<!-- Node2&#45;&gt;Node3 -->
<g id="edge2" class="edge"><title>Node2&#45;&gt;Node3</title>
<path fill="none" stroke="midnightblue" d="M300.27,-119C309.584,-119 318.455,-119 325.863,-119"/>
<polygon fill="midnightblue" stroke="midnightblue" points="300.039,-115.5 290.039,-119 300.039,-122.5 300.039,-115.5"/>
</g>
<!-- Node6 -->
<g id="node6" class="node"><title>Node6</title>
<g id="a_node6"><a xlink:href="ColorizationFilterTest_8cpp.html#aea681c9f5ee6e7fbbb2d7411514ce122" target="_top" xlink:title="TEST">
<polygon fill="white" stroke="black" points="326,-11.5 326,-30.5 368,-30.5 368,-11.5 326,-11.5"/>
<text text-anchor="middle" x="347" y="-18.5" font-family="Helvetica,sans-Serif" font-size="10.00">TEST</text>
</a>
</g>
</g>
<!-- Node5&#45;&gt;Node6 -->
<g id="edge5" class="edge"><title>Node5&#45;&gt;Node6</title>
<path fill="none" stroke="midnightblue" d="M300.27,-21C309.584,-21 318.455,-21 325.863,-21"/>
<polygon fill="midnightblue" stroke="midnightblue" points="300.039,-17.5001 290.039,-21 300.039,-24.5001 300.039,-17.5001"/>
</g>
</g>
</svg>
