<?xml version="1.0" encoding="UTF-8" standalone="no"?>
<!DOCTYPE svg PUBLIC "-//W3C//DTD SVG 1.1//EN"
 "http://www.w3.org/Graphics/SVG/1.1/DTD/svg11.dtd">
<!-- Generated by graphviz version 2.38.0 (20140413.2041)
 -->
<!-- Title: pdal::PlyReader::getType Pages: 1 -->
<svg width="932pt" height="39pt"
 viewBox="0.00 0.00 932.00 39.00" xmlns="http://www.w3.org/2000/svg" xmlns:xlink="http://www.w3.org/1999/xlink">
<g id="graph0" class="graph" transform="scale(1 1) rotate(0) translate(4 35)">
<title>pdal::PlyReader::getType</title>
<polygon fill="white" stroke="none" points="-4,4 -4,-35 928,-35 928,4 -4,4"/>
<!-- Node1 -->
<g id="node1" class="node"><title>Node1</title>
<polygon fill="#bfbfbf" stroke="black" points="0,-6 0,-25 128,-25 128,-6 0,-6"/>
<text text-anchor="middle" x="64" y="-13" font-family="Helvetica,sans-Serif" font-size="10.00">pdal::PlyReader::getType</text>
</g>
<!-- Node2 -->
<g id="node2" class="node"><title>Node2</title>
<g id="a_node2"><a xlink:href="classpdal_1_1PlyReader.html#a4e99f726dfafb257dd9acbca102cd633" target="_top" xlink:title="pdal::PlyReader::extract\lProperty">
<polygon fill="white" stroke="black" points="164,-0.5 164,-30.5 286,-30.5 286,-0.5 164,-0.5"/>
<text text-anchor="start" x="172" y="-18.5" font-family="Helvetica,sans-Serif" font-size="10.00">pdal::PlyReader::extract</text>
<text text-anchor="middle" x="225" y="-7.5" font-family="Helvetica,sans-Serif" font-size="10.00">Property</text>
</a>
</g>
</g>
<!-- Node1&#45;&gt;Node2 -->
<g id="edge1" class="edge"><title>Node1&#45;&gt;Node2</title>
<path fill="none" stroke="midnightblue" d="M138.533,-15.5C146.982,-15.5 155.521,-15.5 163.766,-15.5"/>
<polygon fill="midnightblue" stroke="midnightblue" points="138.298,-12.0001 128.298,-15.5 138.298,-19.0001 138.298,-12.0001"/>
</g>
<!-- Node3 -->
<g id="node3" class="node"><title>Node3</title>
<g id="a_node3"><a xlink:href="classpdal_1_1PlyReader.html#ae3efcc96eca62b8d710e725b3358e88c" target="_top" xlink:title="pdal::PlyReader::extract\lProperties">
<polygon fill="white" stroke="black" points="322,-0.5 322,-30.5 444,-30.5 444,-0.5 322,-0.5"/>
<text text-anchor="start" x="330" y="-18.5" font-family="Helvetica,sans-Serif" font-size="10.00">pdal::PlyReader::extract</text>
<text text-anchor="middle" x="383" y="-7.5" font-family="Helvetica,sans-Serif" font-size="10.00">Properties</text>
</a>
</g>
</g>
<!-- Node2&#45;&gt;Node3 -->
<g id="edge2" class="edge"><title>Node2&#45;&gt;Node3</title>
<path fill="none" stroke="midnightblue" d="M296.538,-15.5C304.99,-15.5 313.56,-15.5 321.847,-15.5"/>
<polygon fill="midnightblue" stroke="midnightblue" points="296.314,-12.0001 286.314,-15.5 296.314,-19.0001 296.314,-12.0001"/>
</g>
<!-- Node4 -->
<g id="node4" class="node"><title>Node4</title>
<g id="a_node4"><a xlink:href="classpdal_1_1PlyReader.html#a86c91fd3c850c095dc537b627f92c426" target="_top" xlink:title="pdal::PlyReader::extract\lElement">
<polygon fill="white" stroke="black" points="480,-0.5 480,-30.5 602,-30.5 602,-0.5 480,-0.5"/>
<text text-anchor="start" x="488" y="-18.5" font-family="Helvetica,sans-Serif" font-size="10.00">pdal::PlyReader::extract</text>
<text text-anchor="middle" x="541" y="-7.5" font-family="Helvetica,sans-Serif" font-size="10.00">Element</text>
</a>
</g>
</g>
<!-- Node3&#45;&gt;Node4 -->
<g id="edge3" class="edge"><title>Node3&#45;&gt;Node4</title>
<path fill="none" stroke="midnightblue" d="M454.538,-15.5C462.99,-15.5 471.56,-15.5 479.847,-15.5"/>
<polygon fill="midnightblue" stroke="midnightblue" points="454.314,-12.0001 444.314,-15.5 454.314,-19.0001 454.314,-12.0001"/>
</g>
<!-- Node5 -->
<g id="node5" class="node"><title>Node5</title>
<g id="a_node5"><a xlink:href="classpdal_1_1PlyReader.html#a9b0179c012f82bcb1878e1197d2e4040" target="_top" xlink:title="pdal::PlyReader::extract\lHeader">
<polygon fill="white" stroke="black" points="638,-0.5 638,-30.5 760,-30.5 760,-0.5 638,-0.5"/>
<text text-anchor="start" x="646" y="-18.5" font-family="Helvetica,sans-Serif" font-size="10.00">pdal::PlyReader::extract</text>
<text text-anchor="middle" x="699" y="-7.5" font-family="Helvetica,sans-Serif" font-size="10.00">Header</text>
</a>
</g>
</g>
<!-- Node4&#45;&gt;Node5 -->
<g id="edge4" class="edge"><title>Node4&#45;&gt;Node5</title>
<path fill="none" stroke="midnightblue" d="M612.538,-15.5C620.99,-15.5 629.56,-15.5 637.847,-15.5"/>
<polygon fill="midnightblue" stroke="midnightblue" points="612.314,-12.0001 602.314,-15.5 612.314,-19.0001 612.314,-12.0001"/>
</g>
<!-- Node6 -->
<g id="node6" class="node"><title>Node6</title>
<g id="a_node6"><a xlink:href="classpdal_1_1PlyReader.html#a1502df4ba555d39c66aebabc40b61342" target="_top" xlink:title="pdal::PlyReader::initialize">
<polygon fill="white" stroke="black" points="796,-6 796,-25 924,-25 924,-6 796,-6"/>
<text text-anchor="middle" x="860" y="-13" font-family="Helvetica,sans-Serif" font-size="10.00">pdal::PlyReader::initialize</text>
</a>
</g>
</g>
<!-- Node5&#45;&gt;Node6 -->
<g id="edge5" class="edge"><title>Node5&#45;&gt;Node6</title>
<path fill="none" stroke="midnightblue" d="M770.377,-15.5C778.872,-15.5 787.508,-15.5 795.89,-15.5"/>
<polygon fill="midnightblue" stroke="midnightblue" points="770.111,-12.0001 760.111,-15.5 770.111,-19.0001 770.111,-12.0001"/>
</g>
</g>
</svg>
