<?xml version="1.0" encoding="UTF-8" standalone="no"?>
<!DOCTYPE svg PUBLIC "-//W3C//DTD SVG 1.1//EN"
 "http://www.w3.org/Graphics/SVG/1.1/DTD/svg11.dtd">
<!-- Generated by graphviz version 2.38.0 (20140413.2041)
 -->
<!-- Title: pdal::LasWriter::readyTable Pages: 1 -->
<svg width="1733pt" height="706pt"
 viewBox="0.00 0.00 1733.00 706.00" xmlns="http://www.w3.org/2000/svg" xmlns:xlink="http://www.w3.org/1999/xlink">
<g id="graph0" class="graph" transform="scale(1 1) rotate(0) translate(4 702)">
<title>pdal::LasWriter::readyTable</title>
<polygon fill="white" stroke="none" points="-4,4 -4,-702 1729,-702 1729,4 -4,4"/>
<!-- Node1 -->
<g id="node1" class="node"><title>Node1</title>
<polygon fill="#bfbfbf" stroke="black" points="0,-349.5 0,-368.5 137,-368.5 137,-349.5 0,-349.5"/>
<text text-anchor="middle" x="68.5" y="-356.5" font-family="Helvetica,sans-Serif" font-size="10.00">pdal::LasWriter::readyTable</text>
</g>
<!-- Node2 -->
<g id="node2" class="node"><title>Node2</title>
<g id="a_node2"><a xlink:href="classpdal_1_1LasWriter.html#a27652d39c59f2b21099e787f1dce7686" target="_top" xlink:title="pdal::LasWriter::addExtra\lBytesVlr">
<polygon fill="white" stroke="black" points="187.5,-388 187.5,-418 315.5,-418 315.5,-388 187.5,-388"/>
<text text-anchor="start" x="195.5" y="-406" font-family="Helvetica,sans-Serif" font-size="10.00">pdal::LasWriter::addExtra</text>
<text text-anchor="middle" x="251.5" y="-395" font-family="Helvetica,sans-Serif" font-size="10.00">BytesVlr</text>
</a>
</g>
</g>
<!-- Node1&#45;&gt;Node2 -->
<g id="edge1" class="edge"><title>Node1&#45;&gt;Node2</title>
<path fill="none" stroke="midnightblue" d="M108.774,-368.547C129.244,-373.523 154.926,-379.767 178.787,-385.567"/>
<polygon fill="midnightblue" stroke="midnightblue" points="177.983,-388.973 188.527,-387.935 179.636,-382.171 177.983,-388.973"/>
</g>
<!-- Node11 -->
<g id="node11" class="node"><title>Node11</title>
<g id="a_node11"><a xlink:href="classpdal_1_1LasWriter.html#aabf75f7bd3615f00707fc687dc693d0f" target="_top" xlink:title="Add VLRs forwarded from the input. ">
<polygon fill="white" stroke="black" points="173,-213.5 173,-232.5 330,-232.5 330,-213.5 173,-213.5"/>
<text text-anchor="middle" x="251.5" y="-220.5" font-family="Helvetica,sans-Serif" font-size="10.00">pdal::LasWriter::addForwardVlrs</text>
</a>
</g>
</g>
<!-- Node1&#45;&gt;Node11 -->
<g id="edge10" class="edge"><title>Node1&#45;&gt;Node11</title>
<path fill="none" stroke="midnightblue" d="M82.2276,-349.437C112.92,-326.375 191.269,-267.505 229.237,-238.977"/>
<polygon fill="midnightblue" stroke="midnightblue" points="231.652,-241.54 237.544,-232.735 227.447,-235.944 231.652,-241.54"/>
</g>
<!-- Node21 -->
<g id="node21" class="node"><title>Node21</title>
<g id="a_node21"><a xlink:href="classpdal_1_1LasWriter.html#a8b3878dd632dd8a1eb0828acd1b06ca5" target="_top" xlink:title="pdal::LasWriter::addMetadataVlr">
<polygon fill="white" stroke="black" points="173,-475.5 173,-494.5 330,-494.5 330,-475.5 173,-475.5"/>
<text text-anchor="middle" x="251.5" y="-482.5" font-family="Helvetica,sans-Serif" font-size="10.00">pdal::LasWriter::addMetadataVlr</text>
</a>
</g>
</g>
<!-- Node1&#45;&gt;Node21 -->
<g id="edge22" class="edge"><title>Node1&#45;&gt;Node21</title>
<path fill="none" stroke="midnightblue" d="M83.4022,-368.678C114.67,-390.444 190.746,-443.403 228.5,-469.685"/>
<polygon fill="midnightblue" stroke="midnightblue" points="226.591,-472.621 236.798,-475.462 230.591,-466.876 226.591,-472.621"/>
</g>
<!-- Node36 -->
<g id="node36" class="node"><title>Node36</title>
<g id="a_node36"><a xlink:href="classpdal_1_1LasWriter.html#a84eddaac28c0c4954ebd4226b246ad4b" target="_top" xlink:title="pdal::LasWriter::addPipelineVlr">
<polygon fill="white" stroke="black" points="176,-551.5 176,-570.5 327,-570.5 327,-551.5 176,-551.5"/>
<text text-anchor="middle" x="251.5" y="-558.5" font-family="Helvetica,sans-Serif" font-size="10.00">pdal::LasWriter::addPipelineVlr</text>
</a>
</g>
</g>
<!-- Node1&#45;&gt;Node36 -->
<g id="edge45" class="edge"><title>Node1&#45;&gt;Node36</title>
<path fill="none" stroke="midnightblue" d="M74.8865,-368.596C88.8948,-393.029 128.487,-458.849 173,-504 188.879,-520.107 209.646,-535.123 225.685,-545.696"/>
<polygon fill="midnightblue" stroke="midnightblue" points="224.208,-548.908 234.51,-551.382 227.999,-543.023 224.208,-548.908"/>
</g>
<!-- Node42 -->
<g id="node42" class="node"><title>Node42</title>
<g id="a_node42"><a xlink:href="classpdal_1_1LasWriter.html#acd9544d91246e45871281c600e414281" target="_top" xlink:title="pdal::LasWriter::addUserVlrs">
<polygon fill="white" stroke="black" points="180,-349.5 180,-368.5 323,-368.5 323,-349.5 180,-349.5"/>
<text text-anchor="middle" x="251.5" y="-356.5" font-family="Helvetica,sans-Serif" font-size="10.00">pdal::LasWriter::addUserVlrs</text>
</a>
</g>
</g>
<!-- Node1&#45;&gt;Node42 -->
<g id="edge54" class="edge"><title>Node1&#45;&gt;Node42</title>
<path fill="none" stroke="midnightblue" d="M137.155,-359C147.732,-359 158.754,-359 169.591,-359"/>
<polygon fill="midnightblue" stroke="midnightblue" points="169.904,-362.5 179.904,-359 169.904,-355.5 169.904,-362.5"/>
</g>
<!-- Node43 -->
<g id="node43" class="node"><title>Node43</title>
<g id="a_node43"><a xlink:href="classpdal_1_1BasePointTable.html#a03429472e71e5dd323bc92319f4a9df6" target="_top" xlink:title="pdal::BasePointTable\l::metadata">
<polygon fill="white" stroke="black" points="196.5,-39 196.5,-69 306.5,-69 306.5,-39 196.5,-39"/>
<text text-anchor="start" x="204.5" y="-57" font-family="Helvetica,sans-Serif" font-size="10.00">pdal::BasePointTable</text>
<text text-anchor="middle" x="251.5" y="-46" font-family="Helvetica,sans-Serif" font-size="10.00">::metadata</text>
</a>
</g>
</g>
<!-- Node1&#45;&gt;Node43 -->
<g id="edge58" class="edge"><title>Node1&#45;&gt;Node43</title>
<path fill="none" stroke="midnightblue" d="M70.0809,-349.384C73.0001,-309.728 89.4602,-157.258 173,-78 177.087,-74.1222 181.789,-70.8703 186.814,-68.1434"/>
<polygon fill="midnightblue" stroke="midnightblue" points="188.569,-71.1866 196.145,-63.78 185.604,-64.8457 188.569,-71.1866"/>
</g>
<!-- Node44 -->
<g id="node44" class="node"><title>Node44</title>
<g id="a_node44"><a xlink:href="classpdal_1_1BasePointTable.html#abcfac8f6e48b8a19dad8092ece3f734e" target="_top" xlink:title="pdal::BasePointTable\l::privateMetadata">
<polygon fill="white" stroke="black" points="196.5,-88 196.5,-118 306.5,-118 306.5,-88 196.5,-88"/>
<text text-anchor="start" x="204.5" y="-106" font-family="Helvetica,sans-Serif" font-size="10.00">pdal::BasePointTable</text>
<text text-anchor="middle" x="251.5" y="-95" font-family="Helvetica,sans-Serif" font-size="10.00">::privateMetadata</text>
</a>
</g>
</g>
<!-- Node1&#45;&gt;Node44 -->
<g id="edge59" class="edge"><title>Node1&#45;&gt;Node44</title>
<path fill="none" stroke="midnightblue" d="M75.5871,-349.417C91.2392,-324.879 134.371,-257.924 173,-204 192.484,-176.802 216.023,-146.454 232.01,-126.192"/>
<polygon fill="midnightblue" stroke="midnightblue" points="234.902,-128.177 238.365,-118.164 229.414,-123.832 234.902,-128.177"/>
</g>
<!-- Node3 -->
<g id="node3" class="node"><title>Node3</title>
<g id="a_node3"><a xlink:href="classpdal_1_1LasWriter.html#aee3405138c851c3ffc662e591a2bfece" target="_top" xlink:title="pdal::LasWriter::addVlr">
<polygon fill="white" stroke="black" points="378,-437.5 378,-456.5 494,-456.5 494,-437.5 378,-437.5"/>
<text text-anchor="middle" x="436" y="-444.5" font-family="Helvetica,sans-Serif" font-size="10.00">pdal::LasWriter::addVlr</text>
</a>
</g>
</g>
<!-- Node2&#45;&gt;Node3 -->
<g id="edge2" class="edge"><title>Node2&#45;&gt;Node3</title>
<path fill="none" stroke="midnightblue" d="M314.796,-418.019C337.988,-423.611 363.964,-429.874 385.819,-435.143"/>
<polygon fill="midnightblue" stroke="midnightblue" points="385.003,-438.546 395.545,-437.488 386.644,-431.741 385.003,-438.546"/>
</g>
<!-- Node7 -->
<g id="node7" class="node"><title>Node7</title>
<g id="a_node7"><a xlink:href="classpdal_1_1ExtraBytesIf.html#a002a974b053c1aa71335a77d1556abd2" target="_top" xlink:title="pdal::ExtraBytesIf\l::appendTo">
<polygon fill="white" stroke="black" points="388.5,-388 388.5,-418 483.5,-418 483.5,-388 388.5,-388"/>
<text text-anchor="start" x="396.5" y="-406" font-family="Helvetica,sans-Serif" font-size="10.00">pdal::ExtraBytesIf</text>
<text text-anchor="middle" x="436" y="-395" font-family="Helvetica,sans-Serif" font-size="10.00">::appendTo</text>
</a>
</g>
</g>
<!-- Node2&#45;&gt;Node7 -->
<g id="edge6" class="edge"><title>Node2&#45;&gt;Node7</title>
<path fill="none" stroke="midnightblue" d="M315.562,-403C335.916,-403 358.346,-403 378.219,-403"/>
<polygon fill="midnightblue" stroke="midnightblue" points="378.353,-406.5 388.353,-403 378.353,-399.5 378.353,-406.5"/>
</g>
<!-- Node10 -->
<g id="node10" class="node"><title>Node10</title>
<g id="a_node10"><a xlink:href="namespacepdal_1_1Dimension.html#a4041a0eeee0ca503caad91db24affa0e" target="_top" xlink:title="pdal::Dimension::description">
<polygon fill="white" stroke="black" points="366,-349.5 366,-368.5 506,-368.5 506,-349.5 366,-349.5"/>
<text text-anchor="middle" x="436" y="-356.5" font-family="Helvetica,sans-Serif" font-size="10.00">pdal::Dimension::description</text>
</a>
</g>
</g>
<!-- Node2&#45;&gt;Node10 -->
<g id="edge9" class="edge"><title>Node2&#45;&gt;Node10</title>
<path fill="none" stroke="midnightblue" d="M314.796,-387.981C337.988,-382.389 363.964,-376.126 385.819,-370.857"/>
<polygon fill="midnightblue" stroke="midnightblue" points="386.644,-374.259 395.545,-368.512 385.003,-367.454 386.644,-374.259"/>
</g>
<!-- Node4 -->
<g id="node4" class="node"><title>Node4</title>
<g id="a_node4"><a xlink:href="classpdal_1_1Stage.html#abdbd1176da12dfd882d931a43290797f" target="_top" xlink:title="pdal::Stage::throwError">
<polygon fill="white" stroke="black" points="546,-434.5 546,-453.5 663,-453.5 663,-434.5 546,-434.5"/>
<text text-anchor="middle" x="604.5" y="-441.5" font-family="Helvetica,sans-Serif" font-size="10.00">pdal::Stage::throwError</text>
</a>
</g>
</g>
<!-- Node3&#45;&gt;Node4 -->
<g id="edge3" class="edge"><title>Node3&#45;&gt;Node4</title>
<path fill="none" stroke="midnightblue" d="M494.3,-445.968C507.568,-445.729 521.813,-445.472 535.49,-445.225"/>
<polygon fill="midnightblue" stroke="midnightblue" points="535.877,-448.719 545.812,-445.039 535.751,-441.72 535.877,-448.719"/>
</g>
<!-- Node6 -->
<g id="node6" class="node"><title>Node6</title>
<g id="a_node6"><a xlink:href="classpdal_1_1LasHeader.html#ace5a26c0b9358ad59ab8b5ae629ffb3f" target="_top" xlink:title="pdal::LasHeader::version\lAtLeast">
<polygon fill="white" stroke="black" points="542,-473 542,-503 667,-503 667,-473 542,-473"/>
<text text-anchor="start" x="550" y="-491" font-family="Helvetica,sans-Serif" font-size="10.00">pdal::LasHeader::version</text>
<text text-anchor="middle" x="604.5" y="-480" font-family="Helvetica,sans-Serif" font-size="10.00">AtLeast</text>
</a>
</g>
</g>
<!-- Node3&#45;&gt;Node6 -->
<g id="edge5" class="edge"><title>Node3&#45;&gt;Node6</title>
<path fill="none" stroke="midnightblue" d="M475.617,-456.509C492.546,-460.678 512.972,-465.708 532.481,-470.512"/>
<polygon fill="midnightblue" stroke="midnightblue" points="531.723,-473.93 542.27,-472.922 533.397,-467.133 531.723,-473.93"/>
</g>
<!-- Node5 -->
<g id="node5" class="node"><title>Node5</title>
<g id="a_node5"><a xlink:href="classpdal_1_1Stage.html#a6c81d6fbbac17ebe4cd63806916cc750" target="_top" xlink:title="pdal::Stage::getName">
<polygon fill="white" stroke="black" points="735.5,-400.5 735.5,-419.5 847.5,-419.5 847.5,-400.5 735.5,-400.5"/>
<text text-anchor="middle" x="791.5" y="-407.5" font-family="Helvetica,sans-Serif" font-size="10.00">pdal::Stage::getName</text>
</a>
</g>
</g>
<!-- Node4&#45;&gt;Node5 -->
<g id="edge4" class="edge"><title>Node4&#45;&gt;Node5</title>
<path fill="none" stroke="midnightblue" d="M657.525,-434.439C679.589,-430.384 705.479,-425.625 728.523,-421.39"/>
<polygon fill="midnightblue" stroke="midnightblue" points="729.343,-424.798 738.545,-419.548 728.077,-417.914 729.343,-424.798"/>
</g>
<!-- Node8 -->
<g id="node8" class="node"><title>Node8</title>
<g id="a_node8"><a xlink:href="classpdal_1_1ExtraBytesIf.html#a225512655c5e100f157805765520bbdc" target="_top" xlink:title="pdal::ExtraBytesIf\l::lasType">
<polygon fill="white" stroke="black" points="557,-385 557,-415 652,-415 652,-385 557,-385"/>
<text text-anchor="start" x="565" y="-403" font-family="Helvetica,sans-Serif" font-size="10.00">pdal::ExtraBytesIf</text>
<text text-anchor="middle" x="604.5" y="-392" font-family="Helvetica,sans-Serif" font-size="10.00">::lasType</text>
</a>
</g>
</g>
<!-- Node7&#45;&gt;Node8 -->
<g id="edge7" class="edge"><title>Node7&#45;&gt;Node8</title>
<path fill="none" stroke="midnightblue" d="M483.823,-402.156C503.324,-401.805 526.147,-401.394 546.603,-401.025"/>
<polygon fill="midnightblue" stroke="midnightblue" points="546.805,-404.522 556.741,-400.843 546.679,-397.523 546.805,-404.522"/>
</g>
<!-- Node9 -->
<g id="node9" class="node"><title>Node9</title>
<g id="a_node9"><a xlink:href="classpdal_1_1Inserter.html#aa9126abc68b00cfb9ccf2b2399df997e" target="_top" xlink:title="pdal::Inserter::put">
<polygon fill="white" stroke="black" points="558,-346.5 558,-365.5 651,-365.5 651,-346.5 558,-346.5"/>
<text text-anchor="middle" x="604.5" y="-353.5" font-family="Helvetica,sans-Serif" font-size="10.00">pdal::Inserter::put</text>
</a>
</g>
</g>
<!-- Node7&#45;&gt;Node9 -->
<g id="edge8" class="edge"><title>Node7&#45;&gt;Node9</title>
<path fill="none" stroke="midnightblue" d="M483.823,-389.783C507.725,-383.036 536.617,-374.88 560.025,-368.272"/>
<polygon fill="midnightblue" stroke="midnightblue" points="561.017,-371.629 569.69,-365.544 559.115,-364.892 561.017,-371.629"/>
</g>
<!-- Node11&#45;&gt;Node3 -->
<g id="edge11" class="edge"><title>Node11&#45;&gt;Node3</title>
<path fill="none" stroke="midnightblue" d="M259.805,-232.618C274.404,-252.123 307.695,-298.05 330,-340 349.646,-376.948 334.825,-399.085 366,-427 368.34,-429.096 370.888,-430.972 373.58,-432.653"/>
<polygon fill="midnightblue" stroke="midnightblue" points="372.108,-435.833 382.589,-437.382 375.361,-429.635 372.108,-435.833"/>
</g>
<!-- Node12 -->
<g id="node12" class="node"><title>Node12</title>
<g id="a_node12"><a xlink:href="namespacepdal_1_1Utils.html#aab74b31905c5d41eaca70a73675bf407" target="_top" xlink:title="pdal::Utils::base64\l_decode">
<polygon fill="white" stroke="black" points="555.5,-268 555.5,-298 653.5,-298 653.5,-268 555.5,-268"/>
<text text-anchor="start" x="563.5" y="-286" font-family="Helvetica,sans-Serif" font-size="10.00">pdal::Utils::base64</text>
<text text-anchor="middle" x="604.5" y="-275" font-family="Helvetica,sans-Serif" font-size="10.00">_decode</text>
</a>
</g>
</g>
<!-- Node11&#45;&gt;Node12 -->
<g id="edge12" class="edge"><title>Node11&#45;&gt;Node12</title>
<path fill="none" stroke="midnightblue" d="M273.753,-232.619C296.188,-242.307 332.828,-256.817 366,-264 426.074,-277.008 496.428,-281.316 544.887,-282.642"/>
<polygon fill="midnightblue" stroke="midnightblue" points="545.107,-286.148 555.188,-282.888 545.274,-279.15 545.107,-286.148"/>
</g>
<!-- Node14 -->
<g id="node14" class="node"><title>Node14</title>
<g id="a_node14"><a xlink:href="classpdal_1_1MetadataNode.html#a0c52985f2bedf620aea438ab1bce0af6" target="_top" xlink:title="pdal::MetadataNode\l::findChild">
<polygon fill="white" stroke="black" points="384,-88 384,-118 488,-118 488,-88 384,-88"/>
<text text-anchor="start" x="392" y="-106" font-family="Helvetica,sans-Serif" font-size="10.00">pdal::MetadataNode</text>
<text text-anchor="middle" x="436" y="-95" font-family="Helvetica,sans-Serif" font-size="10.00">::findChild</text>
</a>
</g>
</g>
<!-- Node11&#45;&gt;Node14 -->
<g id="edge14" class="edge"><title>Node11&#45;&gt;Node14</title>
<path fill="none" stroke="midnightblue" d="M261.316,-213.493C279.313,-194.584 322.286,-151.936 366,-127 369.011,-125.283 372.165,-123.658 375.398,-122.127"/>
<polygon fill="midnightblue" stroke="midnightblue" points="376.915,-125.283 384.662,-118.057 374.099,-118.875 376.915,-125.283"/>
</g>
<!-- Node15 -->
<g id="node15" class="node"><title>Node15</title>
<g id="a_node15"><a xlink:href="classpdal_1_1MetadataNode.html#a437cb95d325cd52e9a9eba4b1c06f513" target="_top" xlink:title="pdal::MetadataNode\l::findChildren">
<polygon fill="white" stroke="black" points="384,-186 384,-216 488,-216 488,-186 384,-186"/>
<text text-anchor="start" x="392" y="-204" font-family="Helvetica,sans-Serif" font-size="10.00">pdal::MetadataNode</text>
<text text-anchor="middle" x="436" y="-193" font-family="Helvetica,sans-Serif" font-size="10.00">::findChildren</text>
</a>
</g>
</g>
<!-- Node11&#45;&gt;Node15 -->
<g id="edge15" class="edge"><title>Node11&#45;&gt;Node15</title>
<path fill="none" stroke="midnightblue" d="M330.161,-213.638C344.76,-211.878 359.833,-210.061 373.841,-208.373"/>
<polygon fill="midnightblue" stroke="midnightblue" points="374.321,-211.84 383.83,-207.168 373.483,-204.89 374.321,-211.84"/>
</g>
<!-- Node16 -->
<g id="node16" class="node"><title>Node16</title>
<g id="a_node16"><a xlink:href="namespacepdal_1_1Utils.html#a28e27948fb8a4c1d958783d8a53bd784" target="_top" xlink:title="pdal::Utils::startsWith">
<polygon fill="white" stroke="black" points="380,-235.5 380,-254.5 492,-254.5 492,-235.5 380,-235.5"/>
<text text-anchor="middle" x="436" y="-242.5" font-family="Helvetica,sans-Serif" font-size="10.00">pdal::Utils::startsWith</text>
</a>
</g>
</g>
<!-- Node11&#45;&gt;Node16 -->
<g id="edge16" class="edge"><title>Node11&#45;&gt;Node16</title>
<path fill="none" stroke="midnightblue" d="M330.161,-232.362C343.328,-233.949 356.881,-235.583 369.69,-237.127"/>
<polygon fill="midnightblue" stroke="midnightblue" points="369.435,-240.621 379.782,-238.344 370.272,-233.672 369.435,-240.621"/>
</g>
<!-- Node17 -->
<g id="node17" class="node"><title>Node17</title>
<g id="a_node17"><a xlink:href="classpdal_1_1MetadataNode.html#a54eb6519dee5cce1b496d8cec4f58d99" target="_top" xlink:title="pdal::MetadataNode\l::valid">
<polygon fill="white" stroke="black" points="384,-39 384,-69 488,-69 488,-39 384,-39"/>
<text text-anchor="start" x="392" y="-57" font-family="Helvetica,sans-Serif" font-size="10.00">pdal::MetadataNode</text>
<text text-anchor="middle" x="436" y="-46" font-family="Helvetica,sans-Serif" font-size="10.00">::valid</text>
</a>
</g>
</g>
<!-- Node11&#45;&gt;Node17 -->
<g id="edge17" class="edge"><title>Node11&#45;&gt;Node17</title>
<path fill="none" stroke="midnightblue" d="M260.57,-213.305C274.826,-196.113 305.294,-159.071 330,-127 346.492,-105.592 344.259,-94.0504 366,-78 368.788,-75.9414 371.768,-74.0487 374.866,-72.3102"/>
<polygon fill="midnightblue" stroke="midnightblue" points="376.477,-75.4176 383.849,-67.8084 373.341,-69.1594 376.477,-75.4176"/>
</g>
<!-- Node18 -->
<g id="node18" class="node"><title>Node18</title>
<g id="a_node18"><a xlink:href="classpdal_1_1MetadataNode.html#ab5c86ccff7ced090522b31cdc6c772b6" target="_top" xlink:title="pdal::MetadataNode\l::value">
<polygon fill="white" stroke="black" points="384,-137 384,-167 488,-167 488,-137 384,-137"/>
<text text-anchor="start" x="392" y="-155" font-family="Helvetica,sans-Serif" font-size="10.00">pdal::MetadataNode</text>
<text text-anchor="middle" x="436" y="-144" font-family="Helvetica,sans-Serif" font-size="10.00">::value</text>
</a>
</g>
</g>
<!-- Node11&#45;&gt;Node18 -->
<g id="edge18" class="edge"><title>Node11&#45;&gt;Node18</title>
<path fill="none" stroke="midnightblue" d="M274.532,-213.433C297.29,-203.655 333.908,-188.214 366,-176 370.767,-174.186 375.74,-172.349 380.735,-170.542"/>
<polygon fill="midnightblue" stroke="midnightblue" points="382.083,-173.777 390.322,-167.116 379.728,-167.185 382.083,-173.777"/>
</g>
<!-- Node13 -->
<g id="node13" class="node"><title>Node13</title>
<g id="a_node13"><a xlink:href="namespacepdal.html#a4d7dbf8f97121c52d3b891ad9e944094" target="_top" xlink:title="pdal::is_base64">
<polygon fill="white" stroke="black" points="749,-273.5 749,-292.5 834,-292.5 834,-273.5 749,-273.5"/>
<text text-anchor="middle" x="791.5" y="-280.5" font-family="Helvetica,sans-Serif" font-size="10.00">pdal::is_base64</text>
</a>
</g>
</g>
<!-- Node12&#45;&gt;Node13 -->
<g id="edge13" class="edge"><title>Node12&#45;&gt;Node13</title>
<path fill="none" stroke="midnightblue" d="M653.624,-283C679.709,-283 711.966,-283 738.612,-283"/>
<polygon fill="midnightblue" stroke="midnightblue" points="738.9,-286.5 748.9,-283 738.9,-279.5 738.9,-286.5"/>
</g>
<!-- Node18&#45;&gt;Node12 -->
<g id="edge19" class="edge"><title>Node18&#45;&gt;Node12</title>
<path fill="none" stroke="midnightblue" d="M488.129,-166.512C494.38,-169.221 500.495,-172.368 506,-176 540.002,-198.436 570.034,-235.358 587.492,-259.427"/>
<polygon fill="midnightblue" stroke="midnightblue" points="584.696,-261.534 593.339,-267.662 590.404,-257.482 584.696,-261.534"/>
</g>
<!-- Node19 -->
<g id="node19" class="node"><title>Node19</title>
<g id="a_node19"><a xlink:href="namespacepdal_1_1Utils.html#ab93520363c4224f135097c2829b4420c" target="_top" xlink:title="pdal::Utils::fromString">
<polygon fill="white" stroke="black" points="548.5,-123.5 548.5,-142.5 660.5,-142.5 660.5,-123.5 548.5,-123.5"/>
<text text-anchor="middle" x="604.5" y="-130.5" font-family="Helvetica,sans-Serif" font-size="10.00">pdal::Utils::fromString</text>
</a>
</g>
</g>
<!-- Node18&#45;&gt;Node19 -->
<g id="edge20" class="edge"><title>Node18&#45;&gt;Node19</title>
<path fill="none" stroke="midnightblue" d="M488.314,-146.144C504.06,-144.347 521.603,-142.346 538.155,-140.457"/>
<polygon fill="midnightblue" stroke="midnightblue" points="538.769,-143.909 548.308,-139.298 537.976,-136.955 538.769,-143.909"/>
</g>
<!-- Node20 -->
<g id="node20" class="node"><title>Node20</title>
<g id="a_node20"><a xlink:href="namespacepdal_1_1Dimension.html#af3176b0b7e6b4be000317846cf7c2718" target="_top" xlink:title="pdal::Dimension::name">
<polygon fill="white" stroke="black" points="546,-161.5 546,-180.5 663,-180.5 663,-161.5 546,-161.5"/>
<text text-anchor="middle" x="604.5" y="-168.5" font-family="Helvetica,sans-Serif" font-size="10.00">pdal::Dimension::name</text>
</a>
</g>
</g>
<!-- Node18&#45;&gt;Node20 -->
<g id="edge21" class="edge"><title>Node18&#45;&gt;Node20</title>
<path fill="none" stroke="midnightblue" d="M488.314,-157.856C503.285,-159.564 519.88,-161.458 535.703,-163.263"/>
<polygon fill="midnightblue" stroke="midnightblue" points="535.632,-166.778 545.964,-164.434 536.426,-159.823 535.632,-166.778"/>
</g>
<!-- Node21&#45;&gt;Node3 -->
<g id="edge23" class="edge"><title>Node21&#45;&gt;Node3</title>
<path fill="none" stroke="midnightblue" d="M298.552,-475.411C323.069,-470.306 353.41,-463.989 379.25,-458.608"/>
<polygon fill="midnightblue" stroke="midnightblue" points="380.202,-461.985 389.279,-456.52 378.775,-455.132 380.202,-461.985"/>
</g>
<!-- Node21&#45;&gt;Node6 -->
<g id="edge44" class="edge"><title>Node21&#45;&gt;Node6</title>
<path fill="none" stroke="midnightblue" d="M330.398,-485.666C390.51,-486.18 473.021,-486.885 531.577,-487.385"/>
<polygon fill="midnightblue" stroke="midnightblue" points="531.826,-490.887 541.855,-487.473 531.885,-483.888 531.826,-490.887"/>
</g>
<!-- Node22 -->
<g id="node22" class="node"><title>Node22</title>
<g id="a_node22"><a xlink:href="classpdal_1_1Stage.html#ae8c29817e14d7cda53fdcbb23102d872" target="_top" xlink:title="pdal::Stage::log">
<polygon fill="white" stroke="black" points="393.5,-551.5 393.5,-570.5 478.5,-570.5 478.5,-551.5 393.5,-551.5"/>
<text text-anchor="middle" x="436" y="-558.5" font-family="Helvetica,sans-Serif" font-size="10.00">pdal::Stage::log</text>
</a>
</g>
</g>
<!-- Node21&#45;&gt;Node22 -->
<g id="edge24" class="edge"><title>Node21&#45;&gt;Node22</title>
<path fill="none" stroke="midnightblue" d="M268.952,-494.56C290.624,-506.847 330.188,-528.231 366,-542 372.234,-544.397 378.891,-546.625 385.52,-548.649"/>
<polygon fill="midnightblue" stroke="midnightblue" points="384.579,-552.02 395.159,-551.465 386.542,-545.301 384.579,-552.02"/>
</g>
<!-- Node23 -->
<g id="node23" class="node"><title>Node23</title>
<g id="a_node23"><a xlink:href="namespacepdal_1_1Utils.html#ae34d4c6244b0915b7ff635d74c5315cc" target="_top" xlink:title="pdal::Utils::toJSON">
<polygon fill="white" stroke="black" points="385,-513.5 385,-532.5 487,-532.5 487,-513.5 385,-513.5"/>
<text text-anchor="middle" x="436" y="-520.5" font-family="Helvetica,sans-Serif" font-size="10.00">pdal::Utils::toJSON</text>
</a>
</g>
</g>
<!-- Node21&#45;&gt;Node23 -->
<g id="edge25" class="edge"><title>Node21&#45;&gt;Node23</title>
<path fill="none" stroke="midnightblue" d="M298.552,-494.589C323.069,-499.694 353.41,-506.011 379.25,-511.392"/>
<polygon fill="midnightblue" stroke="midnightblue" points="378.775,-514.868 389.279,-513.48 380.202,-508.015 378.775,-514.868"/>
</g>
<!-- Node24 -->
<g id="node24" class="node"><title>Node24</title>
<g id="a_node24"><a xlink:href="namespacepdal_1_1Utils.html#a90c7b124d5407ee4d7120e4c42b40b02" target="_top" xlink:title="pdal::Utils::toJSON">
<polygon fill="white" stroke="black" points="553.5,-522.5 553.5,-541.5 655.5,-541.5 655.5,-522.5 553.5,-522.5"/>
<text text-anchor="middle" x="604.5" y="-529.5" font-family="Helvetica,sans-Serif" font-size="10.00">pdal::Utils::toJSON</text>
</a>
</g>
</g>
<!-- Node23&#45;&gt;Node24 -->
<g id="edge26" class="edge"><title>Node23&#45;&gt;Node24</title>
<path fill="none" stroke="midnightblue" d="M487.407,-525.725C505.013,-526.676 524.952,-527.754 543.275,-528.745"/>
<polygon fill="midnightblue" stroke="midnightblue" points="543.09,-532.24 553.264,-529.285 543.468,-525.25 543.09,-532.24"/>
</g>
<!-- Node25 -->
<g id="node25" class="node"><title>Node25</title>
<g id="a_node25"><a xlink:href="classpdal_1_1MetadataNode.html#a645aadd856fb1a4ae4a12247fda3e618" target="_top" xlink:title="pdal::MetadataNode\l::name">
<polygon fill="white" stroke="black" points="942.5,-652 942.5,-682 1046.5,-682 1046.5,-652 942.5,-652"/>
<text text-anchor="start" x="950.5" y="-670" font-family="Helvetica,sans-Serif" font-size="10.00">pdal::MetadataNode</text>
<text text-anchor="middle" x="994.5" y="-659" font-family="Helvetica,sans-Serif" font-size="10.00">::name</text>
</a>
</g>
</g>
<!-- Node24&#45;&gt;Node25 -->
<g id="edge27" class="edge"><title>Node24&#45;&gt;Node25</title>
<path fill="none" stroke="midnightblue" d="M618.004,-541.622C635.876,-554.911 670.202,-578.737 703,-592 777.679,-622.198 802.35,-609.567 880,-631 896.258,-635.487 899.944,-637.838 916,-643 921.984,-644.924 928.237,-646.906 934.483,-648.868"/>
<polygon fill="midnightblue" stroke="midnightblue" points="933.663,-652.279 944.252,-651.923 935.753,-645.598 933.663,-652.279"/>
</g>
<!-- Node26 -->
<g id="node26" class="node"><title>Node26</title>
<g id="a_node26"><a xlink:href="namespacepdal_1_1anonymous__namespace_02PDALUtils_8cpp_03.html#a9836ab34bb1a9ec78acdf0da8134082d" target="_top" xlink:title="pdal::anonymous_namespace\l\{PDALUtils::cpp\}::subnodesToJSON">
<polygon fill="white" stroke="black" points="703,-553 703,-583 880,-583 880,-553 703,-553"/>
<text text-anchor="start" x="711" y="-571" font-family="Helvetica,sans-Serif" font-size="10.00">pdal::anonymous_namespace</text>
<text text-anchor="middle" x="791.5" y="-560" font-family="Helvetica,sans-Serif" font-size="10.00">{PDALUtils::cpp}::subnodesToJSON</text>
</a>
</g>
</g>
<!-- Node24&#45;&gt;Node26 -->
<g id="edge28" class="edge"><title>Node24&#45;&gt;Node26</title>
<path fill="none" stroke="midnightblue" d="M655.564,-535.668C679.735,-539.545 708.841,-545.141 733.824,-550.693"/>
<polygon fill="midnightblue" stroke="midnightblue" points="733.365,-554.178 743.892,-552.981 734.917,-547.352 733.365,-554.178"/>
</g>
<!-- Node28 -->
<g id="node28" class="node"><title>Node28</title>
<g id="a_node28"><a xlink:href="classpdal_1_1MetadataNode.html#ab86b0ccbf27f9eee29cbb5252e9431b7" target="_top" xlink:title="pdal::MetadataNode\l::children">
<polygon fill="white" stroke="black" points="942.5,-515 942.5,-545 1046.5,-545 1046.5,-515 942.5,-515"/>
<text text-anchor="start" x="950.5" y="-533" font-family="Helvetica,sans-Serif" font-size="10.00">pdal::MetadataNode</text>
<text text-anchor="middle" x="994.5" y="-522" font-family="Helvetica,sans-Serif" font-size="10.00">::children</text>
</a>
</g>
</g>
<!-- Node24&#45;&gt;Node28 -->
<g id="edge43" class="edge"><title>Node24&#45;&gt;Node28</title>
<path fill="none" stroke="midnightblue" d="M655.826,-531.741C726.621,-531.376 855.487,-530.711 931.913,-530.317"/>
<polygon fill="midnightblue" stroke="midnightblue" points="932.356,-533.815 942.337,-530.264 932.319,-526.815 932.356,-533.815"/>
</g>
<!-- Node29 -->
<g id="node29" class="node"><title>Node29</title>
<g id="a_node29"><a xlink:href="classpdal_1_1MetadataNode.html#a66863365a08eb3ee538ebeb4ce788a39" target="_top" xlink:title="pdal::MetadataNode\l::kind">
<polygon fill="white" stroke="black" points="942.5,-466 942.5,-496 1046.5,-496 1046.5,-466 942.5,-466"/>
<text text-anchor="start" x="950.5" y="-484" font-family="Helvetica,sans-Serif" font-size="10.00">pdal::MetadataNode</text>
<text text-anchor="middle" x="994.5" y="-473" font-family="Helvetica,sans-Serif" font-size="10.00">::kind</text>
</a>
</g>
</g>
<!-- Node24&#45;&gt;Node29 -->
<g id="edge41" class="edge"><title>Node24&#45;&gt;Node29</title>
<path fill="none" stroke="midnightblue" d="M655.826,-525.385C726.765,-516.06 856.014,-499.072 932.381,-489.034"/>
<polygon fill="midnightblue" stroke="midnightblue" points="932.879,-492.498 942.337,-487.725 931.966,-485.558 932.879,-492.498"/>
</g>
<!-- Node30 -->
<g id="node30" class="node"><title>Node30</title>
<g id="a_node30"><a xlink:href="namespacepdal_1_1anonymous__namespace_02PDALUtils_8cpp_03.html#a24e6b833ca779a04307fb80c249cdf19" target="_top" xlink:title="pdal::anonymous_namespace\l\{PDALUtils::cpp\}::arrayToJSON">
<polygon fill="white" stroke="black" points="916,-417 916,-447 1073,-447 1073,-417 916,-417"/>
<text text-anchor="start" x="924" y="-435" font-family="Helvetica,sans-Serif" font-size="10.00">pdal::anonymous_namespace</text>
<text text-anchor="middle" x="994.5" y="-424" font-family="Helvetica,sans-Serif" font-size="10.00">{PDALUtils::cpp}::arrayToJSON</text>
</a>
</g>
</g>
<!-- Node24&#45;&gt;Node30 -->
<g id="edge42" class="edge"><title>Node24&#45;&gt;Node30</title>
<path fill="none" stroke="midnightblue" d="M638.437,-522.436C647.789,-519.413 657.9,-515.848 667,-512 683.663,-504.954 685.982,-499.141 703,-493 769.101,-469.148 847.206,-453.399 905.772,-443.888"/>
<polygon fill="midnightblue" stroke="midnightblue" points="906.41,-447.33 915.734,-442.299 905.308,-440.418 906.41,-447.33"/>
</g>
<!-- Node26&#45;&gt;Node24 -->
<g id="edge40" class="edge"><title>Node26&#45;&gt;Node24</title>
<path fill="none" stroke="midnightblue" d="M702.944,-557.703C680.602,-553.433 657.874,-548.562 639.994,-544.107"/>
<polygon fill="midnightblue" stroke="midnightblue" points="640.624,-540.655 630.067,-541.541 638.872,-547.432 640.624,-540.655"/>
</g>
<!-- Node26&#45;&gt;Node25 -->
<g id="edge32" class="edge"><title>Node26&#45;&gt;Node25</title>
<path fill="none" stroke="midnightblue" d="M851.686,-583.149C861.621,-587.102 871.463,-591.993 880,-598 900.947,-612.739 894.835,-628.577 916,-643 921.194,-646.54 926.932,-649.575 932.867,-652.173"/>
<polygon fill="midnightblue" stroke="midnightblue" points="931.719,-655.483 942.305,-655.907 934.294,-648.974 931.719,-655.483"/>
</g>
<!-- Node27 -->
<g id="node27" class="node"><title>Node27</title>
<g id="a_node27"><a xlink:href="classpdal_1_1MetadataNode.html#ae9794860b91201dce86f162799d902b1" target="_top" xlink:title="pdal::MetadataNode\l::childNames">
<polygon fill="white" stroke="black" points="942.5,-603 942.5,-633 1046.5,-633 1046.5,-603 942.5,-603"/>
<text text-anchor="start" x="950.5" y="-621" font-family="Helvetica,sans-Serif" font-size="10.00">pdal::MetadataNode</text>
<text text-anchor="middle" x="994.5" y="-610" font-family="Helvetica,sans-Serif" font-size="10.00">::childNames</text>
</a>
</g>
</g>
<!-- Node26&#45;&gt;Node27 -->
<g id="edge29" class="edge"><title>Node26&#45;&gt;Node27</title>
<path fill="none" stroke="midnightblue" d="M852.807,-583.002C878.022,-589.274 907.278,-596.552 932.56,-602.841"/>
<polygon fill="midnightblue" stroke="midnightblue" points="931.85,-606.271 942.399,-605.288 933.54,-599.478 931.85,-606.271"/>
</g>
<!-- Node26&#45;&gt;Node28 -->
<g id="edge30" class="edge"><title>Node26&#45;&gt;Node28</title>
<path fill="none" stroke="midnightblue" d="M871.941,-552.981C892.032,-549.183 913.299,-545.162 932.331,-541.564"/>
<polygon fill="midnightblue" stroke="midnightblue" points="933.181,-544.966 942.357,-539.669 931.881,-538.088 933.181,-544.966"/>
</g>
<!-- Node26&#45;&gt;Node29 -->
<g id="edge31" class="edge"><title>Node26&#45;&gt;Node29</title>
<path fill="none" stroke="midnightblue" d="M818.862,-552.878C843.454,-539.179 881.437,-519.046 916,-505 921.35,-502.826 926.974,-500.732 932.648,-498.75"/>
<polygon fill="midnightblue" stroke="midnightblue" points="933.848,-502.039 942.202,-495.523 931.608,-495.407 933.848,-502.039"/>
</g>
<!-- Node26&#45;&gt;Node30 -->
<g id="edge33" class="edge"><title>Node26&#45;&gt;Node30</title>
<path fill="none" stroke="midnightblue" d="M805.334,-552.668C826.179,-528.705 869.741,-482.392 916,-456 919.028,-454.272 922.195,-452.655 925.445,-451.142"/>
<polygon fill="midnightblue" stroke="midnightblue" points="926.963,-454.299 934.782,-447.15 924.211,-447.863 926.963,-454.299"/>
</g>
<!-- Node31 -->
<g id="node31" class="node"><title>Node31</title>
<g id="a_node31"><a xlink:href="namespacepdal_1_1anonymous__namespace_02PDALUtils_8cpp_03.html#ac00099447614a63b2acd68d05ee3a5c1" target="_top" xlink:title="pdal::anonymous_namespace\l\{PDALUtils::cpp\}::arrayEltToJSON">
<polygon fill="white" stroke="black" points="1109,-488 1109,-518 1278,-518 1278,-488 1109,-488"/>
<text text-anchor="start" x="1117" y="-506" font-family="Helvetica,sans-Serif" font-size="10.00">pdal::anonymous_namespace</text>
<text text-anchor="middle" x="1193.5" y="-495" font-family="Helvetica,sans-Serif" font-size="10.00">{PDALUtils::cpp}::arrayEltToJSON</text>
</a>
</g>
</g>
<!-- Node30&#45;&gt;Node31 -->
<g id="edge34" class="edge"><title>Node30&#45;&gt;Node31</title>
<path fill="none" stroke="midnightblue" d="M1046.12,-447.081C1055.11,-449.929 1064.36,-452.968 1073,-456 1097.65,-464.649 1124.76,-475.226 1146.93,-484.155"/>
<polygon fill="midnightblue" stroke="midnightblue" points="1145.83,-487.488 1156.42,-487.998 1148.46,-481 1145.83,-487.488"/>
</g>
<!-- Node31&#45;&gt;Node26 -->
<g id="edge39" class="edge"><title>Node31&#45;&gt;Node26</title>
<path fill="none" stroke="midnightblue" d="M1164.96,-518.08C1141.33,-530.195 1105.97,-546.398 1073,-554 1013.41,-567.74 944.886,-571.377 890.482,-571.513"/>
<polygon fill="midnightblue" stroke="midnightblue" points="890.15,-568.013 880.145,-571.498 890.14,-575.013 890.15,-568.013"/>
</g>
<!-- Node32 -->
<g id="node32" class="node"><title>Node32</title>
<g id="a_node32"><a xlink:href="classpdal_1_1MetadataNode.html#ac936d257e7eaa30e130ad9de526b2087" target="_top" xlink:title="pdal::MetadataNode\l::jsonValue">
<polygon fill="white" stroke="black" points="1314,-513 1314,-543 1418,-543 1418,-513 1314,-513"/>
<text text-anchor="start" x="1322" y="-531" font-family="Helvetica,sans-Serif" font-size="10.00">pdal::MetadataNode</text>
<text text-anchor="middle" x="1366" y="-520" font-family="Helvetica,sans-Serif" font-size="10.00">::jsonValue</text>
</a>
</g>
</g>
<!-- Node31&#45;&gt;Node32 -->
<g id="edge35" class="edge"><title>Node31&#45;&gt;Node32</title>
<path fill="none" stroke="midnightblue" d="M1278.25,-515.28C1286.87,-516.544 1295.52,-517.812 1303.82,-519.03"/>
<polygon fill="midnightblue" stroke="midnightblue" points="1303.37,-522.501 1313.77,-520.489 1304.39,-515.575 1303.37,-522.501"/>
</g>
<!-- Node35 -->
<g id="node35" class="node"><title>Node35</title>
<g id="a_node35"><a xlink:href="classpdal_1_1MetadataNode.html#ada667c2ca1eab9957ae5c7a98fea5d02" target="_top" xlink:title="pdal::MetadataNode\l::hasChildren">
<polygon fill="white" stroke="black" points="1314,-464 1314,-494 1418,-494 1418,-464 1314,-464"/>
<text text-anchor="start" x="1322" y="-482" font-family="Helvetica,sans-Serif" font-size="10.00">pdal::MetadataNode</text>
<text text-anchor="middle" x="1366" y="-471" font-family="Helvetica,sans-Serif" font-size="10.00">::hasChildren</text>
</a>
</g>
</g>
<!-- Node31&#45;&gt;Node35 -->
<g id="edge38" class="edge"><title>Node31&#45;&gt;Node35</title>
<path fill="none" stroke="midnightblue" d="M1278.25,-491.211C1286.87,-489.997 1295.52,-488.781 1303.82,-487.611"/>
<polygon fill="midnightblue" stroke="midnightblue" points="1304.36,-491.071 1313.77,-486.211 1303.38,-484.139 1304.36,-491.071"/>
</g>
<!-- Node33 -->
<g id="node33" class="node"><title>Node33</title>
<g id="a_node33"><a xlink:href="namespacepdal_1_1Utils.html#aabcd6b5abf9f2cd30b485fc100656663" target="_top" xlink:title="pdal::Utils::escapeJSON">
<polygon fill="white" stroke="black" points="1454,-518.5 1454,-537.5 1579,-537.5 1579,-518.5 1454,-518.5"/>
<text text-anchor="middle" x="1516.5" y="-525.5" font-family="Helvetica,sans-Serif" font-size="10.00">pdal::Utils::escapeJSON</text>
</a>
</g>
</g>
<!-- Node32&#45;&gt;Node33 -->
<g id="edge36" class="edge"><title>Node32&#45;&gt;Node33</title>
<path fill="none" stroke="midnightblue" d="M1418.11,-528C1426.37,-528 1435.05,-528 1443.69,-528"/>
<polygon fill="midnightblue" stroke="midnightblue" points="1443.79,-531.5 1453.79,-528 1443.79,-524.5 1443.79,-531.5"/>
</g>
<!-- Node34 -->
<g id="node34" class="node"><title>Node34</title>
<g id="a_node34"><a xlink:href="namespacepdal_1_1Utils.html#ac6b599972dcd3fe440ef5c476961081a" target="_top" xlink:title="pdal::Utils::remove_if">
<polygon fill="white" stroke="black" points="1615,-518.5 1615,-537.5 1725,-537.5 1725,-518.5 1615,-518.5"/>
<text text-anchor="middle" x="1670" y="-525.5" font-family="Helvetica,sans-Serif" font-size="10.00">pdal::Utils::remove_if</text>
</a>
</g>
</g>
<!-- Node33&#45;&gt;Node34 -->
<g id="edge37" class="edge"><title>Node33&#45;&gt;Node34</title>
<path fill="none" stroke="midnightblue" d="M1579.12,-528C1587.51,-528 1596.13,-528 1604.57,-528"/>
<polygon fill="midnightblue" stroke="midnightblue" points="1604.73,-531.5 1614.73,-528 1604.73,-524.5 1604.73,-531.5"/>
</g>
<!-- Node36&#45;&gt;Node3 -->
<g id="edge46" class="edge"><title>Node36&#45;&gt;Node3</title>
<path fill="none" stroke="midnightblue" d="M267.746,-551.477C299.415,-531.694 372.544,-486.014 410.754,-462.146"/>
<polygon fill="midnightblue" stroke="midnightblue" points="413.042,-464.843 419.669,-456.577 409.334,-458.906 413.042,-464.843"/>
</g>
<!-- Node36&#45;&gt;Node6 -->
<g id="edge48" class="edge"><title>Node36&#45;&gt;Node6</title>
<path fill="none" stroke="midnightblue" d="M274.443,-570.53C320.928,-589.134 431.188,-624.73 506,-580 535.014,-562.653 516.853,-535.591 542,-513 543.742,-511.435 545.594,-509.962 547.529,-508.574"/>
<polygon fill="midnightblue" stroke="midnightblue" points="549.803,-511.281 556.449,-503.03 546.108,-505.336 549.803,-511.281"/>
</g>
<!-- Node36&#45;&gt;Node22 -->
<g id="edge47" class="edge"><title>Node36&#45;&gt;Node22</title>
<path fill="none" stroke="midnightblue" d="M327.256,-561C345.924,-561 365.544,-561 382.851,-561"/>
<polygon fill="midnightblue" stroke="midnightblue" points="383.298,-564.5 393.298,-561 383.298,-557.5 383.298,-564.5"/>
</g>
<!-- Node37 -->
<g id="node37" class="node"><title>Node37</title>
<g id="a_node37"><a xlink:href="namespacepdal_1_1PipelineWriter.html#ae63bae8c6ef7bc4260f70d19bf9948b7" target="_top" xlink:title="pdal::PipelineWriter\l::writePipeline">
<polygon fill="white" stroke="black" points="385.5,-635 385.5,-665 486.5,-665 486.5,-635 385.5,-635"/>
<text text-anchor="start" x="393.5" y="-653" font-family="Helvetica,sans-Serif" font-size="10.00">pdal::PipelineWriter</text>
<text text-anchor="middle" x="436" y="-642" font-family="Helvetica,sans-Serif" font-size="10.00">::writePipeline</text>
</a>
</g>
</g>
<!-- Node36&#45;&gt;Node37 -->
<g id="edge49" class="edge"><title>Node36&#45;&gt;Node37</title>
<path fill="none" stroke="midnightblue" d="M272.031,-570.525C301.191,-584.745 356.75,-611.84 394.818,-630.404"/>
<polygon fill="midnightblue" stroke="midnightblue" points="393.571,-633.69 404.093,-634.928 396.639,-627.398 393.571,-633.69"/>
</g>
<!-- Node38 -->
<g id="node38" class="node"><title>Node38</title>
<g id="a_node38"><a xlink:href="namespacepdal_1_1Utils.html#afc186e6df66a9d8e26b8d434d7eb9be5" target="_top" xlink:title="pdal::Utils::createFile">
<polygon fill="white" stroke="black" points="549.5,-640.5 549.5,-659.5 659.5,-659.5 659.5,-640.5 549.5,-640.5"/>
<text text-anchor="middle" x="604.5" y="-647.5" font-family="Helvetica,sans-Serif" font-size="10.00">pdal::Utils::createFile</text>
</a>
</g>
</g>
<!-- Node37&#45;&gt;Node38 -->
<g id="edge50" class="edge"><title>Node37&#45;&gt;Node38</title>
<path fill="none" stroke="midnightblue" d="M486.505,-650C503.012,-650 521.65,-650 539.118,-650"/>
<polygon fill="midnightblue" stroke="midnightblue" points="539.243,-653.5 549.243,-650 539.243,-646.5 539.243,-653.5"/>
</g>
<!-- Node40 -->
<g id="node40" class="node"><title>Node40</title>
<g id="a_node40"><a xlink:href="namespacepdal_1_1Utils.html#aad48cdff8e3ff3d13c7a273583870185" target="_top" xlink:title="pdal::Utils::closeFile">
<polygon fill="white" stroke="black" points="551.5,-678.5 551.5,-697.5 657.5,-697.5 657.5,-678.5 551.5,-678.5"/>
<text text-anchor="middle" x="604.5" y="-685.5" font-family="Helvetica,sans-Serif" font-size="10.00">pdal::Utils::closeFile</text>
</a>
</g>
</g>
<!-- Node37&#45;&gt;Node40 -->
<g id="edge52" class="edge"><title>Node37&#45;&gt;Node40</title>
<path fill="none" stroke="midnightblue" d="M486.505,-661.298C507.099,-665.999 531.011,-671.456 551.829,-676.207"/>
<polygon fill="midnightblue" stroke="midnightblue" points="551.244,-679.664 561.772,-678.477 552.802,-672.839 551.244,-679.664"/>
</g>
<!-- Node39 -->
<g id="node39" class="node"><title>Node39</title>
<g id="a_node39"><a xlink:href="SQLiteTest_8cpp.html#afdd1742979cee35fe1879794bd7ff3a4" target="_top" xlink:title="tempFilename">
<polygon fill="white" stroke="black" points="752.5,-640.5 752.5,-659.5 830.5,-659.5 830.5,-640.5 752.5,-640.5"/>
<text text-anchor="middle" x="791.5" y="-647.5" font-family="Helvetica,sans-Serif" font-size="10.00">tempFilename</text>
</a>
</g>
</g>
<!-- Node38&#45;&gt;Node39 -->
<g id="edge51" class="edge"><title>Node38&#45;&gt;Node39</title>
<path fill="none" stroke="midnightblue" d="M659.507,-650C685.659,-650 716.808,-650 742.169,-650"/>
<polygon fill="midnightblue" stroke="midnightblue" points="742.293,-653.5 752.293,-650 742.293,-646.5 742.293,-653.5"/>
</g>
<!-- Node41 -->
<g id="node41" class="node"><title>Node41</title>
<g id="a_node41"><a xlink:href="namespacepdal_1_1Utils.html#a6ce7036b0912ba81b1f1a876b2772a34" target="_top" xlink:title="pdal::Utils::closeFile">
<polygon fill="white" stroke="black" points="738.5,-678.5 738.5,-697.5 844.5,-697.5 844.5,-678.5 738.5,-678.5"/>
<text text-anchor="middle" x="791.5" y="-685.5" font-family="Helvetica,sans-Serif" font-size="10.00">pdal::Utils::closeFile</text>
</a>
</g>
</g>
<!-- Node40&#45;&gt;Node41 -->
<g id="edge53" class="edge"><title>Node40&#45;&gt;Node41</title>
<path fill="none" stroke="midnightblue" d="M657.525,-688C679.397,-688 705.03,-688 727.922,-688"/>
<polygon fill="midnightblue" stroke="midnightblue" points="728.224,-691.5 738.224,-688 728.224,-684.5 728.224,-691.5"/>
</g>
<!-- Node42&#45;&gt;Node3 -->
<g id="edge55" class="edge"><title>Node42&#45;&gt;Node3</title>
<path fill="none" stroke="midnightblue" d="M311.096,-368.636C317.773,-371.084 324.24,-374.153 330,-378 352.473,-393.008 343.845,-411.527 366,-427 369.509,-429.45 373.316,-431.603 377.28,-433.494"/>
<polygon fill="midnightblue" stroke="midnightblue" points="376.167,-436.822 386.743,-437.448 378.866,-430.363 376.167,-436.822"/>
</g>
<!-- Node42&#45;&gt;Node10 -->
<g id="edge57" class="edge"><title>Node42&#45;&gt;Node10</title>
<path fill="none" stroke="midnightblue" d="M323.059,-359C333.701,-359 344.739,-359 355.552,-359"/>
<polygon fill="midnightblue" stroke="midnightblue" points="355.83,-362.5 365.83,-359 355.83,-355.5 355.83,-362.5"/>
</g>
<!-- Node42&#45;&gt;Node12 -->
<g id="edge56" class="edge"><title>Node42&#45;&gt;Node12</title>
<path fill="none" stroke="midnightblue" d="M296.599,-349.452C359.601,-335.81 475.465,-310.723 545.397,-295.581"/>
<polygon fill="midnightblue" stroke="midnightblue" points="546.337,-298.958 555.37,-293.421 544.856,-292.117 546.337,-298.958"/>
</g>
<!-- Node44&#45;&gt;Node14 -->
<g id="edge61" class="edge"><title>Node44&#45;&gt;Node14</title>
<path fill="none" stroke="midnightblue" d="M306.762,-103C327.806,-103 352.008,-103 373.679,-103"/>
<polygon fill="midnightblue" stroke="midnightblue" points="373.762,-106.5 383.761,-103 373.761,-99.5001 373.762,-106.5"/>
</g>
<!-- Node44&#45;&gt;Node17 -->
<g id="edge62" class="edge"><title>Node44&#45;&gt;Node17</title>
<path fill="none" stroke="midnightblue" d="M306.762,-88.4311C327.901,-82.7554 352.227,-76.2239 373.973,-70.3854"/>
<polygon fill="midnightblue" stroke="midnightblue" points="375.011,-73.7306 383.761,-67.7572 373.196,-66.9701 375.011,-73.7306"/>
</g>
<!-- Node45 -->
<g id="node45" class="node"><title>Node45</title>
<g id="a_node45"><a xlink:href="classpdal_1_1MetadataNode.html#af2c1c5d91f6ab47a804aa8a0a1b043c2" target="_top" xlink:title="pdal::MetadataNode::add">
<polygon fill="white" stroke="black" points="373,-0.5 373,-19.5 499,-19.5 499,-0.5 373,-0.5"/>
<text text-anchor="middle" x="436" y="-7.5" font-family="Helvetica,sans-Serif" font-size="10.00">pdal::MetadataNode::add</text>
</a>
</g>
</g>
<!-- Node44&#45;&gt;Node45 -->
<g id="edge60" class="edge"><title>Node44&#45;&gt;Node45</title>
<path fill="none" stroke="midnightblue" d="M306.719,-90.3601C314.942,-87.1022 323.004,-83.0431 330,-78 351.921,-62.1973 343.741,-44.324 366,-29 368.902,-27.0019 372.008,-25.2133 375.237,-23.6123"/>
<polygon fill="midnightblue" stroke="midnightblue" points="376.798,-26.7511 384.596,-19.5791 374.027,-20.3227 376.798,-26.7511"/>
</g>
</g>
</svg>
