<?xml version="1.0" encoding="UTF-8" standalone="no"?>
<!DOCTYPE svg PUBLIC "-//W3C//DTD SVG 1.1//EN"
 "http://www.w3.org/Graphics/SVG/1.1/DTD/svg11.dtd">
<!-- Generated by graphviz version 2.38.0 (20140413.2041)
 -->
<!-- Title: pdal::PointView::dump Pages: 1 -->
<svg width="757pt" height="367pt"
 viewBox="0.00 0.00 757.00 367.00" xmlns="http://www.w3.org/2000/svg" xmlns:xlink="http://www.w3.org/1999/xlink">
<g id="graph0" class="graph" transform="scale(1 1) rotate(0) translate(4 363)">
<title>pdal::PointView::dump</title>
<polygon fill="white" stroke="none" points="-4,4 -4,-363 753,-363 753,4 -4,4"/>
<!-- Node1 -->
<g id="node1" class="node"><title>Node1</title>
<polygon fill="#bfbfbf" stroke="black" points="0,-170 0,-189 115,-189 115,-170 0,-170"/>
<text text-anchor="middle" x="57.5" y="-177" font-family="Helvetica,sans-Serif" font-size="10.00">pdal::PointView::dump</text>
</g>
<!-- Node2 -->
<g id="node2" class="node"><title>Node2</title>
<g id="a_node2"><a xlink:href="classpdal_1_1PointLayout.html#abcfdf0f917e71d1bd8a96bc64ff1e8a2" target="_top" xlink:title="pdal::PointLayout::\ldimDetail">
<polygon fill="white" stroke="black" points="190,-328.5 190,-358.5 288,-358.5 288,-328.5 190,-328.5"/>
<text text-anchor="start" x="198" y="-346.5" font-family="Helvetica,sans-Serif" font-size="10.00">pdal::PointLayout::</text>
<text text-anchor="middle" x="239" y="-335.5" font-family="Helvetica,sans-Serif" font-size="10.00">dimDetail</text>
</a>
</g>
</g>
<!-- Node1&#45;&gt;Node2 -->
<g id="edge1" class="edge"><title>Node1&#45;&gt;Node2</title>
<path fill="none" stroke="midnightblue" d="M62.1926,-189.301C72.2803,-214.72 102.811,-283.237 151,-318.5 159.554,-324.759 169.639,-329.456 179.855,-332.978"/>
<polygon fill="midnightblue" stroke="midnightblue" points="179.057,-336.395 189.645,-336.009 181.127,-329.708 179.057,-336.395"/>
</g>
<!-- Node6 -->
<g id="node6" class="node"><title>Node6</title>
<g id="a_node6"><a xlink:href="classpdal_1_1PointLayout.html#afd6b92bf6e8fc83993db132b1ed980e2" target="_top" xlink:title="pdal::PointLayout::dims">
<polygon fill="white" stroke="black" points="179.5,-290 179.5,-309 298.5,-309 298.5,-290 179.5,-290"/>
<text text-anchor="middle" x="239" y="-297" font-family="Helvetica,sans-Serif" font-size="10.00">pdal::PointLayout::dims</text>
</a>
</g>
</g>
<!-- Node1&#45;&gt;Node6 -->
<g id="edge5" class="edge"><title>Node1&#45;&gt;Node6</title>
<path fill="none" stroke="midnightblue" d="M64.309,-189.088C77.176,-209.442 110.194,-257.019 151,-280.5 156.762,-283.816 163.043,-286.553 169.506,-288.814"/>
<polygon fill="midnightblue" stroke="midnightblue" points="168.477,-292.159 179.066,-291.796 170.562,-285.477 168.477,-292.159"/>
</g>
<!-- Node7 -->
<g id="node7" class="node"><title>Node7</title>
<g id="a_node7"><a xlink:href="classpdal_1_1PointView.html#aa0ea88bef58126dcdfeb11bdc570a918" target="_top" xlink:title="pdal::PointView::dims">
<polygon fill="white" stroke="black" points="183,-252 183,-271 295,-271 295,-252 183,-252"/>
<text text-anchor="middle" x="239" y="-259" font-family="Helvetica,sans-Serif" font-size="10.00">pdal::PointView::dims</text>
</a>
</g>
</g>
<!-- Node1&#45;&gt;Node7 -->
<g id="edge6" class="edge"><title>Node1&#45;&gt;Node7</title>
<path fill="none" stroke="midnightblue" d="M69.6231,-189.205C86.1956,-203.144 118.876,-228.673 151,-242.5 157.912,-245.475 165.34,-248.006 172.839,-250.153"/>
<polygon fill="midnightblue" stroke="midnightblue" points="172.137,-253.588 182.7,-252.761 173.927,-246.821 172.137,-253.588"/>
</g>
<!-- Node8 -->
<g id="node8" class="node"><title>Node8</title>
<g id="a_node8"><a xlink:href="namespacepdal_1_1Dimension.html#acc41232ae1e707d6c928ffb9a56592d3" target="_top" xlink:title="pdal::Dimension::interpretationName">
<polygon fill="white" stroke="black" points="151,-214 151,-233 327,-233 327,-214 151,-214"/>
<text text-anchor="middle" x="239" y="-221" font-family="Helvetica,sans-Serif" font-size="10.00">pdal::Dimension::interpretationName</text>
</a>
</g>
</g>
<!-- Node1&#45;&gt;Node8 -->
<g id="edge7" class="edge"><title>Node1&#45;&gt;Node8</title>
<path fill="none" stroke="midnightblue" d="M92.2267,-189.041C109.712,-193.879 131.446,-199.725 151,-204.5 161.13,-206.973 171.96,-209.462 182.42,-211.787"/>
<polygon fill="midnightblue" stroke="midnightblue" points="181.781,-215.23 192.299,-213.959 183.284,-208.393 181.781,-215.23"/>
</g>
<!-- Node9 -->
<g id="node9" class="node"><title>Node9</title>
<g id="a_node9"><a xlink:href="classpdal_1_1BasePointTable.html#a7e3a12a1f29e6cd10d8669ed3d07eb94" target="_top" xlink:title="pdal::BasePointTable\l::layout">
<polygon fill="white" stroke="black" points="184,-164.5 184,-194.5 294,-194.5 294,-164.5 184,-164.5"/>
<text text-anchor="start" x="192" y="-182.5" font-family="Helvetica,sans-Serif" font-size="10.00">pdal::BasePointTable</text>
<text text-anchor="middle" x="239" y="-171.5" font-family="Helvetica,sans-Serif" font-size="10.00">::layout</text>
</a>
</g>
</g>
<!-- Node1&#45;&gt;Node9 -->
<g id="edge8" class="edge"><title>Node1&#45;&gt;Node9</title>
<path fill="none" stroke="midnightblue" d="M115.295,-179.5C133.839,-179.5 154.564,-179.5 173.624,-179.5"/>
<polygon fill="midnightblue" stroke="midnightblue" points="173.718,-183 183.718,-179.5 173.718,-176 173.718,-183"/>
</g>
<!-- Node10 -->
<g id="node10" class="node"><title>Node10</title>
<g id="a_node10"><a xlink:href="classpdal_1_1PointView.html#a6ca889798235df9aa71467bb782add3c" target="_top" xlink:title="pdal::PointView::layout">
<polygon fill="white" stroke="black" points="180.5,-126 180.5,-145 297.5,-145 297.5,-126 180.5,-126"/>
<text text-anchor="middle" x="239" y="-133" font-family="Helvetica,sans-Serif" font-size="10.00">pdal::PointView::layout</text>
</a>
</g>
</g>
<!-- Node1&#45;&gt;Node10 -->
<g id="edge9" class="edge"><title>Node1&#45;&gt;Node10</title>
<path fill="none" stroke="midnightblue" d="M94.4622,-169.92C111.561,-165.429 132.306,-160.073 151,-155.5 162.178,-152.766 174.19,-149.935 185.613,-147.294"/>
<polygon fill="midnightblue" stroke="midnightblue" points="186.502,-150.681 195.463,-145.029 184.933,-143.859 186.502,-150.681"/>
</g>
<!-- Node11 -->
<g id="node11" class="node"><title>Node11</title>
<g id="a_node11"><a xlink:href="namespacepdal_1_1Dimension.html#af3176b0b7e6b4be000317846cf7c2718" target="_top" xlink:title="pdal::Dimension::name">
<polygon fill="white" stroke="black" points="180.5,-88 180.5,-107 297.5,-107 297.5,-88 180.5,-88"/>
<text text-anchor="middle" x="239" y="-95" font-family="Helvetica,sans-Serif" font-size="10.00">pdal::Dimension::name</text>
</a>
</g>
</g>
<!-- Node1&#45;&gt;Node11 -->
<g id="edge10" class="edge"><title>Node1&#45;&gt;Node11</title>
<path fill="none" stroke="midnightblue" d="M69.6231,-169.795C86.1956,-155.856 118.876,-130.327 151,-116.5 157.202,-113.831 163.819,-111.519 170.53,-109.521"/>
<polygon fill="midnightblue" stroke="midnightblue" points="171.676,-112.836 180.392,-106.812 169.823,-106.086 171.676,-112.836"/>
</g>
<!-- Node12 -->
<g id="node12" class="node"><title>Node12</title>
<g id="a_node12"><a xlink:href="classpdal_1_1PointView.html#a4c2fba9b5d7a61f19a558bb08405555d" target="_top" xlink:title="pdal::PointView::size">
<polygon fill="white" stroke="black" points="184.5,-50 184.5,-69 293.5,-69 293.5,-50 184.5,-50"/>
<text text-anchor="middle" x="239" y="-57" font-family="Helvetica,sans-Serif" font-size="10.00">pdal::PointView::size</text>
</a>
</g>
</g>
<!-- Node1&#45;&gt;Node12 -->
<g id="edge11" class="edge"><title>Node1&#45;&gt;Node12</title>
<path fill="none" stroke="midnightblue" d="M64.309,-169.912C77.176,-149.558 110.194,-101.981 151,-78.5 158.223,-74.3434 166.262,-71.0949 174.453,-68.5563"/>
<polygon fill="midnightblue" stroke="midnightblue" points="175.392,-71.9281 184.098,-65.8904 173.527,-65.181 175.392,-71.9281"/>
</g>
<!-- Node13 -->
<g id="node13" class="node"><title>Node13</title>
<g id="a_node13"><a xlink:href="classpdal_1_1Dimension_1_1Detail.html#adf5961976b7fce3d90a0dddd50519a7c" target="_top" xlink:title="pdal::Dimension::Detail\l::type">
<polygon fill="white" stroke="black" points="179.5,-0.5 179.5,-30.5 298.5,-30.5 298.5,-0.5 179.5,-0.5"/>
<text text-anchor="start" x="187.5" y="-18.5" font-family="Helvetica,sans-Serif" font-size="10.00">pdal::Dimension::Detail</text>
<text text-anchor="middle" x="239" y="-7.5" font-family="Helvetica,sans-Serif" font-size="10.00">::type</text>
</a>
</g>
</g>
<!-- Node1&#45;&gt;Node13 -->
<g id="edge12" class="edge"><title>Node1&#45;&gt;Node13</title>
<path fill="none" stroke="midnightblue" d="M62.1926,-169.699C72.2803,-144.28 102.811,-75.7626 151,-40.5 156.624,-36.3847 162.91,-32.945 169.46,-30.0702"/>
<polygon fill="midnightblue" stroke="midnightblue" points="171.168,-33.1601 179.199,-26.2498 168.611,-26.6435 171.168,-33.1601"/>
</g>
<!-- Node3 -->
<g id="node3" class="node"><title>Node3</title>
<g id="a_node3"><a xlink:href="namespacepdal_1_1Utils.html#a59253304d0f929e3a3ea00f09636002f" target="_top" xlink:title="pdal::Utils::toNative">
<polygon fill="white" stroke="black" points="363,-334 363,-353 467,-353 467,-334 363,-334"/>
<text text-anchor="middle" x="415" y="-341" font-family="Helvetica,sans-Serif" font-size="10.00">pdal::Utils::toNative</text>
</a>
</g>
</g>
<!-- Node2&#45;&gt;Node3 -->
<g id="edge2" class="edge"><title>Node2&#45;&gt;Node3</title>
<path fill="none" stroke="midnightblue" d="M288.007,-343.5C307.976,-343.5 331.401,-343.5 352.599,-343.5"/>
<polygon fill="midnightblue" stroke="midnightblue" points="352.802,-347 362.802,-343.5 352.802,-340 352.802,-347"/>
</g>
<!-- Node4 -->
<g id="node4" class="node"><title>Node4</title>
<g id="a_node4"><a xlink:href="namespacepdal_1_1Dimension.html#a880d689fed54aa3ded6f88c9e058c5d2" target="_top" xlink:title="pdal::Dimension::type">
<polygon fill="white" stroke="black" points="503,-334 503,-353 615,-353 615,-334 503,-334"/>
<text text-anchor="middle" x="559" y="-341" font-family="Helvetica,sans-Serif" font-size="10.00">pdal::Dimension::type</text>
</a>
</g>
</g>
<!-- Node3&#45;&gt;Node4 -->
<g id="edge3" class="edge"><title>Node3&#45;&gt;Node4</title>
<path fill="none" stroke="midnightblue" d="M467.265,-343.5C475.602,-343.5 484.332,-343.5 492.946,-343.5"/>
<polygon fill="midnightblue" stroke="midnightblue" points="492.972,-347 502.972,-343.5 492.972,-340 492.972,-347"/>
</g>
<!-- Node5 -->
<g id="node5" class="node"><title>Node5</title>
<g id="a_node5"><a xlink:href="namespacepdal_1_1Utils.html#a5268937cf695835e55392f752dc02cb2" target="_top" xlink:title="pdal::Utils::tolower">
<polygon fill="white" stroke="black" points="651,-334 651,-353 749,-353 749,-334 651,-334"/>
<text text-anchor="middle" x="700" y="-341" font-family="Helvetica,sans-Serif" font-size="10.00">pdal::Utils::tolower</text>
</a>
</g>
</g>
<!-- Node4&#45;&gt;Node5 -->
<g id="edge4" class="edge"><title>Node4&#45;&gt;Node5</title>
<path fill="none" stroke="midnightblue" d="M615.336,-343.5C623.625,-343.5 632.194,-343.5 640.546,-343.5"/>
<polygon fill="midnightblue" stroke="midnightblue" points="640.59,-347 650.59,-343.5 640.59,-340 640.59,-347"/>
</g>
</g>
</svg>
