<?xml version="1.0" encoding="UTF-8" standalone="no"?>
<!DOCTYPE svg PUBLIC "-//W3C//DTD SVG 1.1//EN"
 "http://www.w3.org/Graphics/SVG/1.1/DTD/svg11.dtd">
<!-- Generated by graphviz version 2.38.0 (20140413.2041)
 -->
<!-- Title: App::outputHelp Pages: 1 -->
<svg width="565pt" height="230pt"
 viewBox="0.00 0.00 565.00 229.50" xmlns="http://www.w3.org/2000/svg" xmlns:xlink="http://www.w3.org/1999/xlink">
<g id="graph0" class="graph" transform="scale(1 1) rotate(0) translate(4 225.5)">
<title>App::outputHelp</title>
<polygon fill="white" stroke="none" points="-4,4 -4,-225.5 561,-225.5 561,4 -4,4"/>
<!-- Node1 -->
<g id="node1" class="node"><title>Node1</title>
<polygon fill="#bfbfbf" stroke="black" points="0,-50 0,-69 87,-69 87,-50 0,-50"/>
<text text-anchor="middle" x="43.5" y="-57" font-family="Helvetica,sans-Serif" font-size="10.00">App::outputHelp</text>
</g>
<!-- Node2 -->
<g id="node2" class="node"><title>Node2</title>
<g id="a_node2"><a xlink:href="classpdal_1_1ProgramArgs.html#a735375940de6cf77c210986dbadb5ae2" target="_top" xlink:title="pdal::ProgramArgs::dump">
<polygon fill="white" stroke="black" points="123,-107 123,-126 251,-126 251,-107 123,-107"/>
<text text-anchor="middle" x="187" y="-114" font-family="Helvetica,sans-Serif" font-size="10.00">pdal::ProgramArgs::dump</text>
</a>
</g>
</g>
<!-- Node1&#45;&gt;Node2 -->
<g id="edge1" class="edge"><title>Node1&#45;&gt;Node2</title>
<path fill="none" stroke="midnightblue" d="M68.1839,-69.0405C91.3451,-78.3705 126.822,-92.6616 152.795,-103.124"/>
<polygon fill="midnightblue" stroke="midnightblue" points="151.655,-106.438 162.239,-106.928 154.271,-99.9453 151.655,-106.438"/>
</g>
<!-- Node8 -->
<g id="node8" class="node"><title>Node8</title>
<g id="a_node8"><a xlink:href="namespacepdal_1_1Dimension.html#af3176b0b7e6b4be000317846cf7c2718" target="_top" xlink:title="pdal::Dimension::name">
<polygon fill="white" stroke="black" points="288,-50 288,-69 405,-69 405,-50 288,-50"/>
<text text-anchor="middle" x="346.5" y="-57" font-family="Helvetica,sans-Serif" font-size="10.00">pdal::Dimension::name</text>
</a>
</g>
</g>
<!-- Node1&#45;&gt;Node8 -->
<g id="edge8" class="edge"><title>Node1&#45;&gt;Node8</title>
<path fill="none" stroke="midnightblue" d="M87.3063,-59.5C136.915,-59.5 219.307,-59.5 277.662,-59.5"/>
<polygon fill="midnightblue" stroke="midnightblue" points="277.901,-63.0001 287.901,-59.5 277.901,-56.0001 277.901,-63.0001"/>
</g>
<!-- Node9 -->
<g id="node9" class="node"><title>Node9</title>
<g id="a_node9"><a xlink:href="classpdal_1_1PluginManager.html#a494f92a49079015190f9f8d9e5267779" target="_top" xlink:title="pdal::PluginManager\l::names">
<polygon fill="white" stroke="black" points="134.5,-0.5 134.5,-30.5 239.5,-30.5 239.5,-0.5 134.5,-0.5"/>
<text text-anchor="start" x="142.5" y="-18.5" font-family="Helvetica,sans-Serif" font-size="10.00">pdal::PluginManager</text>
<text text-anchor="middle" x="187" y="-7.5" font-family="Helvetica,sans-Serif" font-size="10.00">::names</text>
</a>
</g>
</g>
<!-- Node1&#45;&gt;Node9 -->
<g id="edge9" class="edge"><title>Node1&#45;&gt;Node9</title>
<path fill="none" stroke="midnightblue" d="M75.2034,-49.9527C90.5657,-45.1757 109.684,-39.2308 127.692,-33.6311"/>
<polygon fill="midnightblue" stroke="midnightblue" points="129.041,-36.8769 137.551,-30.5654 126.963,-30.1926 129.041,-36.8769"/>
</g>
<!-- Node3 -->
<g id="node3" class="node"><title>Node3</title>
<g id="a_node3"><a xlink:href="classpdal_1_1Arg.html#a04d4397190ffe54f705dc746568a99c8" target="_top" xlink:title="pdal::Arg::hidden">
<polygon fill="white" stroke="black" points="301.5,-202 301.5,-221 391.5,-221 391.5,-202 301.5,-202"/>
<text text-anchor="middle" x="346.5" y="-209" font-family="Helvetica,sans-Serif" font-size="10.00">pdal::Arg::hidden</text>
</a>
</g>
</g>
<!-- Node2&#45;&gt;Node3 -->
<g id="edge2" class="edge"><title>Node2&#45;&gt;Node3</title>
<path fill="none" stroke="midnightblue" d="M198.158,-126.23C215.234,-142.117 251.334,-173.733 287,-192.5 291.043,-194.627 295.368,-196.574 299.769,-198.342"/>
<polygon fill="midnightblue" stroke="midnightblue" points="298.849,-201.733 309.442,-201.924 301.28,-195.169 298.849,-201.733"/>
</g>
<!-- Node4 -->
<g id="node4" class="node"><title>Node4</title>
<g id="a_node4"><a xlink:href="classpdal_1_1Arg.html#aed1a5d82948beeb7c7edae502fc48153" target="_top" xlink:title="pdal::Arg::nameDescrip">
<polygon fill="white" stroke="black" points="287,-164 287,-183 406,-183 406,-164 287,-164"/>
<text text-anchor="middle" x="346.5" y="-171" font-family="Helvetica,sans-Serif" font-size="10.00">pdal::Arg::nameDescrip</text>
</a>
</g>
</g>
<!-- Node2&#45;&gt;Node4 -->
<g id="edge3" class="edge"><title>Node2&#45;&gt;Node4</title>
<path fill="none" stroke="midnightblue" d="M211.875,-126.068C231.847,-133.974 261.142,-145.345 287,-154.5 292.945,-156.605 299.261,-158.75 305.46,-160.804"/>
<polygon fill="midnightblue" stroke="midnightblue" points="304.443,-164.154 315.035,-163.94 306.621,-157.502 304.443,-164.154"/>
</g>
<!-- Node5 -->
<g id="node5" class="node"><title>Node5</title>
<g id="a_node5"><a xlink:href="classpdal_1_1Arg.html#a3018ba91f8251d33c1c41fc28406dcb1" target="_top" xlink:title="pdal::Arg::description">
<polygon fill="white" stroke="black" points="292,-126 292,-145 401,-145 401,-126 292,-126"/>
<text text-anchor="middle" x="346.5" y="-133" font-family="Helvetica,sans-Serif" font-size="10.00">pdal::Arg::description</text>
</a>
</g>
</g>
<!-- Node2&#45;&gt;Node5 -->
<g id="edge4" class="edge"><title>Node2&#45;&gt;Node5</title>
<path fill="none" stroke="midnightblue" d="M251.154,-124.119C261.295,-125.342 271.796,-126.609 281.947,-127.833"/>
<polygon fill="midnightblue" stroke="midnightblue" points="281.607,-131.318 291.954,-129.041 282.446,-124.368 281.607,-131.318"/>
</g>
<!-- Node6 -->
<g id="node6" class="node"><title>Node6</title>
<g id="a_node6"><a xlink:href="namespacepdal_1_1Utils.html#aa378eb082b365411cba12fa0d72d0fa9" target="_top" xlink:title="pdal::Utils::wordWrap">
<polygon fill="white" stroke="black" points="291,-88 291,-107 402,-107 402,-88 291,-88"/>
<text text-anchor="middle" x="346.5" y="-95" font-family="Helvetica,sans-Serif" font-size="10.00">pdal::Utils::wordWrap</text>
</a>
</g>
</g>
<!-- Node2&#45;&gt;Node6 -->
<g id="edge5" class="edge"><title>Node2&#45;&gt;Node6</title>
<path fill="none" stroke="midnightblue" d="M251.154,-108.881C260.935,-107.701 271.052,-106.481 280.865,-105.297"/>
<polygon fill="midnightblue" stroke="midnightblue" points="281.447,-108.752 290.956,-104.08 280.609,-101.803 281.447,-108.752"/>
</g>
<!-- Node2&#45;&gt;Node8 -->
<g id="edge7" class="edge"><title>Node2&#45;&gt;Node8</title>
<path fill="none" stroke="midnightblue" d="M211.875,-106.932C231.847,-99.0258 261.142,-87.6548 287,-78.5 292.945,-76.3951 299.261,-74.2501 305.46,-72.1956"/>
<polygon fill="midnightblue" stroke="midnightblue" points="306.621,-75.4985 315.035,-69.0603 304.443,-68.846 306.621,-75.4985"/>
</g>
<!-- Node7 -->
<g id="node7" class="node"><title>Node7</title>
<g id="a_node7"><a xlink:href="namespacepdal_1_1Utils.html#afed0ad4146baafd1973c85e1508ade73" target="_top" xlink:title="pdal::Utils::trimTrailing">
<polygon fill="white" stroke="black" points="442,-88 442,-107 557,-107 557,-88 442,-88"/>
<text text-anchor="middle" x="499.5" y="-95" font-family="Helvetica,sans-Serif" font-size="10.00">pdal::Utils::trimTrailing</text>
</a>
</g>
</g>
<!-- Node6&#45;&gt;Node7 -->
<g id="edge6" class="edge"><title>Node6&#45;&gt;Node7</title>
<path fill="none" stroke="midnightblue" d="M402.014,-97.5C411.607,-97.5 421.691,-97.5 431.576,-97.5"/>
<polygon fill="midnightblue" stroke="midnightblue" points="431.776,-101 441.776,-97.5 431.776,-94.0001 431.776,-101"/>
</g>
<!-- Node10 -->
<g id="node10" class="node"><title>Node10</title>
<g id="a_node10"><a xlink:href="classpdal_1_1PluginManager.html#ab1040369e315ab5d6f15033e098e0652" target="_top" xlink:title="pdal::PluginManager\l::l_names">
<polygon fill="white" stroke="black" points="294,-0.5 294,-30.5 399,-30.5 399,-0.5 294,-0.5"/>
<text text-anchor="start" x="302" y="-18.5" font-family="Helvetica,sans-Serif" font-size="10.00">pdal::PluginManager</text>
<text text-anchor="middle" x="346.5" y="-7.5" font-family="Helvetica,sans-Serif" font-size="10.00">::l_names</text>
</a>
</g>
</g>
<!-- Node9&#45;&gt;Node10 -->
<g id="edge10" class="edge"><title>Node9&#45;&gt;Node10</title>
<path fill="none" stroke="midnightblue" d="M239.571,-15.5C253.577,-15.5 268.889,-15.5 283.41,-15.5"/>
<polygon fill="midnightblue" stroke="midnightblue" points="283.813,-19.0001 293.813,-15.5 283.813,-12.0001 283.813,-19.0001"/>
</g>
</g>
</svg>
