<?xml version="1.0" encoding="UTF-8" standalone="no"?>
<!DOCTYPE svg PUBLIC "-//W3C//DTD SVG 1.1//EN"
 "http://www.w3.org/Graphics/SVG/1.1/DTD/svg11.dtd">
<!-- Generated by graphviz version 2.38.0 (20140413.2041)
 -->
<!-- Title: pdal::BasePointTable Pages: 1 -->
<svg width="224pt" height="95pt"
 viewBox="0.00 0.00 223.50 95.00" xmlns="http://www.w3.org/2000/svg" xmlns:xlink="http://www.w3.org/1999/xlink">
<g id="graph0" class="graph" transform="scale(1 1) rotate(0) translate(4 91)">
<title>pdal::BasePointTable</title>
<polygon fill="white" stroke="none" points="-4,4 -4,-91 219.5,-91 219.5,4 -4,4"/>
<!-- Node1 -->
<g id="node1" class="node"><title>Node1</title>
<polygon fill="#bfbfbf" stroke="black" points="55.5,-0.5 55.5,-19.5 165.5,-19.5 165.5,-0.5 55.5,-0.5"/>
<text text-anchor="middle" x="110.5" y="-7.5" font-family="Helvetica,sans-Serif" font-size="10.00">pdal::BasePointTable</text>
</g>
<!-- Node2 -->
<g id="node2" class="node"><title>Node2</title>
<g id="a_node2"><a xlink:href="classpdal_1_1PointContainer.html" target="_top" xlink:title="pdal::PointContainer">
<polygon fill="white" stroke="black" points="0,-67.5 0,-86.5 105,-86.5 105,-67.5 0,-67.5"/>
<text text-anchor="middle" x="52.5" y="-74.5" font-family="Helvetica,sans-Serif" font-size="10.00">pdal::PointContainer</text>
</a>
</g>
</g>
<!-- Node2&#45;&gt;Node1 -->
<g id="edge1" class="edge"><title>Node2&#45;&gt;Node1</title>
<path fill="none" stroke="midnightblue" d="M67.1028,-59.6348C78.4458,-46.9228 93.7266,-29.7978 102.802,-19.6273"/>
<polygon fill="midnightblue" stroke="midnightblue" points="64.3685,-57.4421 60.3221,-67.2338 69.5916,-62.1026 64.3685,-57.4421"/>
</g>
<!-- Node3 -->
<g id="node3" class="node"><title>Node3</title>
<g id="a_node3"><a xlink:href="classpdal_1_1PointLayout.html" target="_top" xlink:title="pdal::PointLayout">
<polygon fill="white" stroke="black" points="123.5,-67.5 123.5,-86.5 215.5,-86.5 215.5,-67.5 123.5,-67.5"/>
<text text-anchor="middle" x="169.5" y="-74.5" font-family="Helvetica,sans-Serif" font-size="10.00">pdal::PointLayout</text>
</a>
</g>
</g>
<!-- Node3&#45;&gt;Node1 -->
<g id="edge2" class="edge"><title>Node3&#45;&gt;Node1</title>
<path fill="none" stroke="#9a32cd" stroke-dasharray="5,2" d="M154.645,-59.6348C143.107,-46.9228 127.563,-29.7978 118.331,-19.6273"/>
<polygon fill="#9a32cd" stroke="#9a32cd" points="152.23,-62.1816 161.543,-67.2338 157.414,-57.4769 152.23,-62.1816"/>
<text text-anchor="middle" x="174" y="-41" font-family="Helvetica,sans-Serif" font-size="10.00"> m_layoutRef</text>
</g>
</g>
</svg>
