<?xml version="1.0" encoding="UTF-8" standalone="no"?>
<!DOCTYPE svg PUBLIC "-//W3C//DTD SVG 1.1//EN"
 "http://www.w3.org/Graphics/SVG/1.1/DTD/svg11.dtd">
<!-- Generated by graphviz version 2.38.0 (20140413.2041)
 -->
<!-- Title: pdal::FerryFilter::prepared Pages: 1 -->
<svg width="977pt" height="165pt"
 viewBox="0.00 0.00 977.00 165.00" xmlns="http://www.w3.org/2000/svg" xmlns:xlink="http://www.w3.org/1999/xlink">
<g id="graph0" class="graph" transform="scale(1 1) rotate(0) translate(4 161)">
<title>pdal::FerryFilter::prepared</title>
<polygon fill="white" stroke="none" points="-4,4 -4,-161 973,-161 973,4 -4,4"/>
<!-- Node1 -->
<g id="node1" class="node"><title>Node1</title>
<polygon fill="#bfbfbf" stroke="black" points="0,-39 0,-69 91,-69 91,-39 0,-39"/>
<text text-anchor="start" x="8" y="-57" font-family="Helvetica,sans-Serif" font-size="10.00">pdal::FerryFilter::</text>
<text text-anchor="middle" x="45.5" y="-46" font-family="Helvetica,sans-Serif" font-size="10.00">prepared</text>
</g>
<!-- Node2 -->
<g id="node2" class="node"><title>Node2</title>
<g id="a_node2"><a xlink:href="classpdal_1_1PointLayout.html#a5a720db4e74a5412c1420b0d1eaacda7" target="_top" xlink:title="pdal::PointLayout::\lfindDim">
<polygon fill="white" stroke="black" points="136.5,-88 136.5,-118 234.5,-118 234.5,-88 136.5,-88"/>
<text text-anchor="start" x="144.5" y="-106" font-family="Helvetica,sans-Serif" font-size="10.00">pdal::PointLayout::</text>
<text text-anchor="middle" x="185.5" y="-95" font-family="Helvetica,sans-Serif" font-size="10.00">findDim</text>
</a>
</g>
</g>
<!-- Node1&#45;&gt;Node2 -->
<g id="edge1" class="edge"><title>Node1&#45;&gt;Node2</title>
<path fill="none" stroke="midnightblue" d="M89.0306,-69.1014C102.672,-73.9451 117.94,-79.3664 132.197,-84.4285"/>
<polygon fill="midnightblue" stroke="midnightblue" points="131.278,-87.8162 141.872,-87.8641 133.62,-81.2197 131.278,-87.8162"/>
</g>
<!-- Node12 -->
<g id="node12" class="node"><title>Node12</title>
<g id="a_node12"><a xlink:href="classpdal_1_1BasePointTable.html#a7e3a12a1f29e6cd10d8669ed3d07eb94" target="_top" xlink:title="pdal::BasePointTable\l::layout">
<polygon fill="white" stroke="black" points="130.5,-39 130.5,-69 240.5,-69 240.5,-39 130.5,-39"/>
<text text-anchor="start" x="138.5" y="-57" font-family="Helvetica,sans-Serif" font-size="10.00">pdal::BasePointTable</text>
<text text-anchor="middle" x="185.5" y="-46" font-family="Helvetica,sans-Serif" font-size="10.00">::layout</text>
</a>
</g>
</g>
<!-- Node1&#45;&gt;Node12 -->
<g id="edge11" class="edge"><title>Node1&#45;&gt;Node12</title>
<path fill="none" stroke="midnightblue" d="M91.3046,-54C100.534,-54 110.424,-54 120.188,-54"/>
<polygon fill="midnightblue" stroke="midnightblue" points="120.285,-57.5001 130.285,-54 120.285,-50.5001 120.285,-57.5001"/>
</g>
<!-- Node13 -->
<g id="node13" class="node"><title>Node13</title>
<g id="a_node13"><a xlink:href="classpdal_1_1Stage.html#abdbd1176da12dfd882d931a43290797f" target="_top" xlink:title="pdal::Stage::throwError">
<polygon fill="white" stroke="black" points="127,-0.5 127,-19.5 244,-19.5 244,-0.5 127,-0.5"/>
<text text-anchor="middle" x="185.5" y="-7.5" font-family="Helvetica,sans-Serif" font-size="10.00">pdal::Stage::throwError</text>
</a>
</g>
</g>
<!-- Node1&#45;&gt;Node13 -->
<g id="edge12" class="edge"><title>Node1&#45;&gt;Node13</title>
<path fill="none" stroke="midnightblue" d="M91.3046,-39.7145C108.38,-34.27 127.72,-28.1039 144.338,-22.8053"/>
<polygon fill="midnightblue" stroke="midnightblue" points="145.824,-26.005 154.289,-19.6326 143.698,-19.3358 145.824,-26.005"/>
</g>
<!-- Node3 -->
<g id="node3" class="node"><title>Node3</title>
<g id="a_node3"><a xlink:href="namespacepdal_1_1Dimension.html#a10b4c693e3bdbdf1a0eec8f4b008a291" target="_top" xlink:title="pdal::Dimension::id">
<polygon fill="white" stroke="black" points="285.5,-137.5 285.5,-156.5 386.5,-156.5 386.5,-137.5 285.5,-137.5"/>
<text text-anchor="middle" x="336" y="-144.5" font-family="Helvetica,sans-Serif" font-size="10.00">pdal::Dimension::id</text>
</a>
</g>
</g>
<!-- Node2&#45;&gt;Node3 -->
<g id="edge2" class="edge"><title>Node2&#45;&gt;Node3</title>
<path fill="none" stroke="midnightblue" d="M234.714,-117.286C253.435,-122.833 274.686,-129.129 292.791,-134.494"/>
<polygon fill="midnightblue" stroke="midnightblue" points="291.908,-137.882 302.49,-137.367 293.896,-131.171 291.908,-137.882"/>
</g>
<!-- Node5 -->
<g id="node5" class="node"><title>Node5</title>
<g id="a_node5"><a xlink:href="classpdal_1_1PointLayout.html#adaef1dfccc620aa7f7f2a57ea2c19d6d" target="_top" xlink:title="pdal::PointLayout::\ldimType">
<polygon fill="white" stroke="black" points="287,-88 287,-118 385,-118 385,-88 287,-88"/>
<text text-anchor="start" x="295" y="-106" font-family="Helvetica,sans-Serif" font-size="10.00">pdal::PointLayout::</text>
<text text-anchor="middle" x="336" y="-95" font-family="Helvetica,sans-Serif" font-size="10.00">dimType</text>
</a>
</g>
</g>
<!-- Node2&#45;&gt;Node5 -->
<g id="edge4" class="edge"><title>Node2&#45;&gt;Node5</title>
<path fill="none" stroke="midnightblue" d="M234.714,-103C248.009,-103 262.579,-103 276.392,-103"/>
<polygon fill="midnightblue" stroke="midnightblue" points="276.774,-106.5 286.774,-103 276.774,-99.5001 276.774,-106.5"/>
</g>
<!-- Node11 -->
<g id="node11" class="node"><title>Node11</title>
<g id="a_node11"><a xlink:href="classpdal_1_1PointLayout.html#abb03661faa312e6954f49cf8e0e809a3" target="_top" xlink:title="pdal::PointLayout::\lfindProprietaryDim">
<polygon fill="white" stroke="black" points="287,-39 287,-69 385,-69 385,-39 287,-39"/>
<text text-anchor="start" x="295" y="-57" font-family="Helvetica,sans-Serif" font-size="10.00">pdal::PointLayout::</text>
<text text-anchor="middle" x="336" y="-46" font-family="Helvetica,sans-Serif" font-size="10.00">findProprietaryDim</text>
</a>
</g>
</g>
<!-- Node2&#45;&gt;Node11 -->
<g id="edge10" class="edge"><title>Node2&#45;&gt;Node11</title>
<path fill="none" stroke="midnightblue" d="M232.267,-87.8986C247.299,-82.9385 264.167,-77.3726 279.821,-72.2071"/>
<polygon fill="midnightblue" stroke="midnightblue" points="280.985,-75.5089 289.385,-69.0516 278.791,-68.8614 280.985,-75.5089"/>
</g>
<!-- Node4 -->
<g id="node4" class="node"><title>Node4</title>
<g id="a_node4"><a xlink:href="namespacepdal_1_1Utils.html#a28e3e2faff94b20f9908e77bc54ed983" target="_top" xlink:title="pdal::Utils::toupper">
<polygon fill="white" stroke="black" points="438,-137.5 438,-156.5 537,-156.5 537,-137.5 438,-137.5"/>
<text text-anchor="middle" x="487.5" y="-144.5" font-family="Helvetica,sans-Serif" font-size="10.00">pdal::Utils::toupper</text>
</a>
</g>
</g>
<!-- Node3&#45;&gt;Node4 -->
<g id="edge3" class="edge"><title>Node3&#45;&gt;Node4</title>
<path fill="none" stroke="midnightblue" d="M386.781,-147C399.913,-147 414.205,-147 427.761,-147"/>
<polygon fill="midnightblue" stroke="midnightblue" points="427.952,-150.5 437.952,-147 427.952,-143.5 427.952,-150.5"/>
</g>
<!-- Node6 -->
<g id="node6" class="node"><title>Node6</title>
<g id="a_node6"><a xlink:href="classpdal_1_1PointLayout.html#abcfdf0f917e71d1bd8a96bc64ff1e8a2" target="_top" xlink:title="pdal::PointLayout::\ldimDetail">
<polygon fill="white" stroke="black" points="438.5,-88 438.5,-118 536.5,-118 536.5,-88 438.5,-88"/>
<text text-anchor="start" x="446.5" y="-106" font-family="Helvetica,sans-Serif" font-size="10.00">pdal::PointLayout::</text>
<text text-anchor="middle" x="487.5" y="-95" font-family="Helvetica,sans-Serif" font-size="10.00">dimDetail</text>
</a>
</g>
</g>
<!-- Node5&#45;&gt;Node6 -->
<g id="edge5" class="edge"><title>Node5&#45;&gt;Node6</title>
<path fill="none" stroke="midnightblue" d="M385.126,-103C398.863,-103 413.98,-103 428.253,-103"/>
<polygon fill="midnightblue" stroke="midnightblue" points="428.465,-106.5 438.465,-103 428.464,-99.5001 428.465,-106.5"/>
</g>
<!-- Node10 -->
<g id="node10" class="node"><title>Node10</title>
<g id="a_node10"><a xlink:href="classpdal_1_1Dimension_1_1Detail.html#adf5961976b7fce3d90a0dddd50519a7c" target="_top" xlink:title="pdal::Dimension::Detail\l::type">
<polygon fill="white" stroke="black" points="428,-39 428,-69 547,-69 547,-39 428,-39"/>
<text text-anchor="start" x="436" y="-57" font-family="Helvetica,sans-Serif" font-size="10.00">pdal::Dimension::Detail</text>
<text text-anchor="middle" x="487.5" y="-46" font-family="Helvetica,sans-Serif" font-size="10.00">::type</text>
</a>
</g>
</g>
<!-- Node5&#45;&gt;Node10 -->
<g id="edge9" class="edge"><title>Node5&#45;&gt;Node10</title>
<path fill="none" stroke="midnightblue" d="M383.075,-87.8986C398.208,-82.9385 415.19,-77.3726 430.95,-72.2071"/>
<polygon fill="midnightblue" stroke="midnightblue" points="432.165,-75.4921 440.577,-69.0516 429.985,-68.8403 432.165,-75.4921"/>
</g>
<!-- Node7 -->
<g id="node7" class="node"><title>Node7</title>
<g id="a_node7"><a xlink:href="namespacepdal_1_1Utils.html#a59253304d0f929e3a3ea00f09636002f" target="_top" xlink:title="pdal::Utils::toNative">
<polygon fill="white" stroke="black" points="583,-93.5 583,-112.5 687,-112.5 687,-93.5 583,-93.5"/>
<text text-anchor="middle" x="635" y="-100.5" font-family="Helvetica,sans-Serif" font-size="10.00">pdal::Utils::toNative</text>
</a>
</g>
</g>
<!-- Node6&#45;&gt;Node7 -->
<g id="edge6" class="edge"><title>Node6&#45;&gt;Node7</title>
<path fill="none" stroke="midnightblue" d="M536.545,-103C548.121,-103 560.643,-103 572.732,-103"/>
<polygon fill="midnightblue" stroke="midnightblue" points="572.754,-106.5 582.754,-103 572.754,-99.5001 572.754,-106.5"/>
</g>
<!-- Node8 -->
<g id="node8" class="node"><title>Node8</title>
<g id="a_node8"><a xlink:href="namespacepdal_1_1Dimension.html#a880d689fed54aa3ded6f88c9e058c5d2" target="_top" xlink:title="pdal::Dimension::type">
<polygon fill="white" stroke="black" points="723,-93.5 723,-112.5 835,-112.5 835,-93.5 723,-93.5"/>
<text text-anchor="middle" x="779" y="-100.5" font-family="Helvetica,sans-Serif" font-size="10.00">pdal::Dimension::type</text>
</a>
</g>
</g>
<!-- Node7&#45;&gt;Node8 -->
<g id="edge7" class="edge"><title>Node7&#45;&gt;Node8</title>
<path fill="none" stroke="midnightblue" d="M687.265,-103C695.602,-103 704.332,-103 712.946,-103"/>
<polygon fill="midnightblue" stroke="midnightblue" points="712.972,-106.5 722.972,-103 712.972,-99.5001 712.972,-106.5"/>
</g>
<!-- Node9 -->
<g id="node9" class="node"><title>Node9</title>
<g id="a_node9"><a xlink:href="namespacepdal_1_1Utils.html#a5268937cf695835e55392f752dc02cb2" target="_top" xlink:title="pdal::Utils::tolower">
<polygon fill="white" stroke="black" points="871,-93.5 871,-112.5 969,-112.5 969,-93.5 871,-93.5"/>
<text text-anchor="middle" x="920" y="-100.5" font-family="Helvetica,sans-Serif" font-size="10.00">pdal::Utils::tolower</text>
</a>
</g>
</g>
<!-- Node8&#45;&gt;Node9 -->
<g id="edge8" class="edge"><title>Node8&#45;&gt;Node9</title>
<path fill="none" stroke="midnightblue" d="M835.336,-103C843.625,-103 852.194,-103 860.546,-103"/>
<polygon fill="midnightblue" stroke="midnightblue" points="860.59,-106.5 870.59,-103 860.59,-99.5001 860.59,-106.5"/>
</g>
<!-- Node14 -->
<g id="node14" class="node"><title>Node14</title>
<g id="a_node14"><a xlink:href="classpdal_1_1Stage.html#a6c81d6fbbac17ebe4cd63806916cc750" target="_top" xlink:title="pdal::Stage::getName">
<polygon fill="white" stroke="black" points="280,-0.5 280,-19.5 392,-19.5 392,-0.5 280,-0.5"/>
<text text-anchor="middle" x="336" y="-7.5" font-family="Helvetica,sans-Serif" font-size="10.00">pdal::Stage::getName</text>
</a>
</g>
</g>
<!-- Node13&#45;&gt;Node14 -->
<g id="edge13" class="edge"><title>Node13&#45;&gt;Node14</title>
<path fill="none" stroke="midnightblue" d="M244.339,-10C252.676,-10 261.304,-10 269.773,-10"/>
<polygon fill="midnightblue" stroke="midnightblue" points="269.994,-13.5001 279.994,-10 269.994,-6.5001 269.994,-13.5001"/>
</g>
</g>
</svg>
