<?xml version="1.0" encoding="UTF-8" standalone="no"?>
<!DOCTYPE svg PUBLIC "-//W3C//DTD SVG 1.1//EN"
 "http://www.w3.org/Graphics/SVG/1.1/DTD/svg11.dtd">
<!-- Generated by graphviz version 2.38.0 (20140413.2041)
 -->
<!-- Title: pdal::StageRunner Pages: 1 -->
<svg width="339pt" height="162pt"
 viewBox="0.00 0.00 339.00 162.00" xmlns="http://www.w3.org/2000/svg" xmlns:xlink="http://www.w3.org/1999/xlink">
<g id="graph0" class="graph" transform="scale(1 1) rotate(0) translate(4 158)">
<title>pdal::StageRunner</title>
<polygon fill="white" stroke="none" points="-4,4 -4,-158 335,-158 335,4 -4,4"/>
<!-- Node1 -->
<g id="node1" class="node"><title>Node1</title>
<polygon fill="#bfbfbf" stroke="black" points="131,-0.5 131,-19.5 229,-19.5 229,-0.5 131,-0.5"/>
<text text-anchor="middle" x="180" y="-7.5" font-family="Helvetica,sans-Serif" font-size="10.00">pdal::StageRunner</text>
</g>
<!-- Node2 -->
<g id="node2" class="node"><title>Node2</title>
<g id="a_node2"><a xlink:href="classpdal_1_1Stage.html" target="_top" xlink:title="pdal::Stage">
<polygon fill="white" stroke="black" points="147,-67.5 147,-86.5 213,-86.5 213,-67.5 147,-67.5"/>
<text text-anchor="middle" x="180" y="-74.5" font-family="Helvetica,sans-Serif" font-size="10.00">pdal::Stage</text>
</a>
</g>
</g>
<!-- Node2&#45;&gt;Node1 -->
<g id="edge1" class="edge"><title>Node2&#45;&gt;Node1</title>
<path fill="none" stroke="#9a32cd" stroke-dasharray="5,2" d="M180,-57.037C180,-44.6703 180,-29.1198 180,-19.6273"/>
<polygon fill="#9a32cd" stroke="#9a32cd" points="176.5,-57.2338 180,-67.2338 183.5,-57.2338 176.5,-57.2338"/>
<text text-anchor="middle" x="200.5" y="-41" font-family="Helvetica,sans-Serif" font-size="10.00"> m_stage</text>
</g>
<!-- Node3 -->
<g id="node3" class="node"><title>Node3</title>
<g id="a_node3"><a xlink:href="classpdal_1_1MetadataNode.html" target="_top" xlink:title="pdal::MetadataNode">
<polygon fill="white" stroke="black" points="0,-134.5 0,-153.5 104,-153.5 104,-134.5 0,-134.5"/>
<text text-anchor="middle" x="52" y="-141.5" font-family="Helvetica,sans-Serif" font-size="10.00">pdal::MetadataNode</text>
</a>
</g>
</g>
<!-- Node3&#45;&gt;Node2 -->
<g id="edge2" class="edge"><title>Node3&#45;&gt;Node2</title>
<path fill="none" stroke="#9a32cd" stroke-dasharray="5,2" d="M74.7724,-129.048C87.3344,-121.567 103.32,-112.393 118,-105 131.317,-98.2932 146.679,-91.5958 158.781,-86.5492"/>
<polygon fill="#9a32cd" stroke="#9a32cd" points="72.6743,-126.226 65.9119,-134.382 76.2845,-132.223 72.6743,-126.226"/>
<text text-anchor="middle" x="147" y="-108" font-family="Helvetica,sans-Serif" font-size="10.00"> m_metadata</text>
</g>
<!-- Node4 -->
<g id="node4" class="node"><title>Node4</title>
<g id="a_node4"><a xlink:href="classpdal_1_1SpatialReference.html" target="_top" xlink:title="pdal::SpatialReference">
<polygon fill="white" stroke="black" points="122,-134.5 122,-153.5 238,-153.5 238,-134.5 122,-134.5"/>
<text text-anchor="middle" x="180" y="-141.5" font-family="Helvetica,sans-Serif" font-size="10.00">pdal::SpatialReference</text>
</a>
</g>
</g>
<!-- Node4&#45;&gt;Node2 -->
<g id="edge3" class="edge"><title>Node4&#45;&gt;Node2</title>
<path fill="none" stroke="#9a32cd" stroke-dasharray="5,2" d="M180,-124.037C180,-111.67 180,-96.1198 180,-86.6273"/>
<polygon fill="#9a32cd" stroke="#9a32cd" points="176.5,-124.234 180,-134.234 183.5,-124.234 176.5,-124.234"/>
<text text-anchor="middle" x="225.5" y="-108" font-family="Helvetica,sans-Serif" font-size="10.00"> m_spatialReference</text>
</g>
<!-- Node5 -->
<g id="node5" class="node"><title>Node5</title>
<g id="a_node5"><a xlink:href="classpdal_1_1Options.html" target="_top" xlink:title="pdal::Options">
<polygon fill="white" stroke="black" points="257,-134.5 257,-153.5 331,-153.5 331,-134.5 257,-134.5"/>
<text text-anchor="middle" x="294" y="-141.5" font-family="Helvetica,sans-Serif" font-size="10.00">pdal::Options</text>
</a>
</g>
</g>
<!-- Node5&#45;&gt;Node2 -->
<g id="edge4" class="edge"><title>Node5&#45;&gt;Node2</title>
<path fill="none" stroke="#9a32cd" stroke-dasharray="5,2" d="M287.018,-124.847C283.479,-117.761 278.526,-110.125 272,-105 255.243,-91.8402 232.243,-85.0902 213.432,-81.6302"/>
<polygon fill="#9a32cd" stroke="#9a32cd" points="284.009,-126.704 291.208,-134.477 290.428,-123.911 284.009,-126.704"/>
<text text-anchor="middle" x="305.5" y="-108" font-family="Helvetica,sans-Serif" font-size="10.00"> m_options</text>
</g>
</g>
</svg>
