<?xml version="1.0" encoding="UTF-8" standalone="no"?>
<!DOCTYPE svg PUBLIC "-//W3C//DTD SVG 1.1//EN"
 "http://www.w3.org/Graphics/SVG/1.1/DTD/svg11.dtd">
<!-- Generated by graphviz version 2.38.0 (20140413.2041)
 -->
<!-- Title: pdal::PcdReader::addDimensions Pages: 1 -->
<svg width="626pt" height="78pt"
 viewBox="0.00 0.00 626.00 77.50" xmlns="http://www.w3.org/2000/svg" xmlns:xlink="http://www.w3.org/1999/xlink">
<g id="graph0" class="graph" transform="scale(1 1) rotate(0) translate(4 73.5)">
<title>pdal::PcdReader::addDimensions</title>
<polygon fill="white" stroke="none" points="-4,4 -4,-73.5 622,-73.5 622,4 -4,4"/>
<!-- Node1 -->
<g id="node1" class="node"><title>Node1</title>
<polygon fill="#bfbfbf" stroke="black" points="0,-28 0,-47 163,-47 163,-28 0,-28"/>
<text text-anchor="middle" x="81.5" y="-35" font-family="Helvetica,sans-Serif" font-size="10.00">pdal::PcdReader::addDimensions</text>
</g>
<!-- Node2 -->
<g id="node2" class="node"><title>Node2</title>
<g id="a_node2"><a xlink:href="namespacepdal.html#afacee4f73f9b6c92398427963e9d8a2c" target="_top" xlink:title="pdal::fileDimensions">
<polygon fill="white" stroke="black" points="199,-50 199,-69 304,-69 304,-50 199,-50"/>
<text text-anchor="middle" x="251.5" y="-57" font-family="Helvetica,sans-Serif" font-size="10.00">pdal::fileDimensions</text>
</a>
</g>
</g>
<!-- Node1&#45;&gt;Node2 -->
<g id="edge1" class="edge"><title>Node1&#45;&gt;Node2</title>
<path fill="none" stroke="midnightblue" d="M155.21,-47.0216C166.366,-48.4824 177.792,-49.9787 188.682,-51.4048"/>
<polygon fill="midnightblue" stroke="midnightblue" points="188.563,-54.919 198.933,-52.7472 189.472,-47.9783 188.563,-54.919"/>
</g>
<!-- Node3 -->
<g id="node3" class="node"><title>Node3</title>
<g id="a_node3"><a xlink:href="classpdal_1_1PointLayout.html#af0404b823635c356a5bddce383ad239c" target="_top" xlink:title="pdal::PointLayout::\lregisterDims">
<polygon fill="white" stroke="black" points="202.5,-0.5 202.5,-30.5 300.5,-30.5 300.5,-0.5 202.5,-0.5"/>
<text text-anchor="start" x="210.5" y="-18.5" font-family="Helvetica,sans-Serif" font-size="10.00">pdal::PointLayout::</text>
<text text-anchor="middle" x="251.5" y="-7.5" font-family="Helvetica,sans-Serif" font-size="10.00">registerDims</text>
</a>
</g>
</g>
<!-- Node1&#45;&gt;Node3 -->
<g id="edge2" class="edge"><title>Node1&#45;&gt;Node3</title>
<path fill="none" stroke="midnightblue" d="M155.21,-27.9784C167.556,-26.3617 180.233,-24.7016 192.149,-23.1412"/>
<polygon fill="midnightblue" stroke="midnightblue" points="192.936,-26.5681 202.397,-21.7993 192.027,-19.6274 192.936,-26.5681"/>
</g>
<!-- Node4 -->
<g id="node4" class="node"><title>Node4</title>
<g id="a_node4"><a xlink:href="classpdal_1_1PointLayout.html#ac18a9b8b3dd23c601df823e84d90f61e" target="_top" xlink:title="pdal::PointLayout::\lregisterDim">
<polygon fill="white" stroke="black" points="340,-0.5 340,-30.5 438,-30.5 438,-0.5 340,-0.5"/>
<text text-anchor="start" x="348" y="-18.5" font-family="Helvetica,sans-Serif" font-size="10.00">pdal::PointLayout::</text>
<text text-anchor="middle" x="389" y="-7.5" font-family="Helvetica,sans-Serif" font-size="10.00">registerDim</text>
</a>
</g>
</g>
<!-- Node3&#45;&gt;Node4 -->
<g id="edge3" class="edge"><title>Node3&#45;&gt;Node4</title>
<path fill="none" stroke="midnightblue" d="M300.654,-15.5C309.927,-15.5 319.736,-15.5 329.3,-15.5"/>
<polygon fill="midnightblue" stroke="midnightblue" points="329.545,-19.0001 339.545,-15.5 329.545,-12.0001 329.545,-19.0001"/>
</g>
<!-- Node5 -->
<g id="node5" class="node"><title>Node5</title>
<g id="a_node5"><a xlink:href="namespacepdal_1_1Dimension.html#a9562a0d1c8e24bf903f1ccdd37b62d2f" target="_top" xlink:title="pdal::Dimension::defaultType">
<polygon fill="white" stroke="black" points="474,-6 474,-25 618,-25 618,-6 474,-6"/>
<text text-anchor="middle" x="546" y="-13" font-family="Helvetica,sans-Serif" font-size="10.00">pdal::Dimension::defaultType</text>
</a>
</g>
</g>
<!-- Node4&#45;&gt;Node5 -->
<g id="edge4" class="edge"><title>Node4&#45;&gt;Node5</title>
<path fill="none" stroke="midnightblue" d="M438.193,-15.5C446.305,-15.5 454.92,-15.5 463.6,-15.5"/>
<polygon fill="midnightblue" stroke="midnightblue" points="463.793,-19.0001 473.793,-15.5 463.793,-12.0001 463.793,-19.0001"/>
</g>
</g>
</svg>
