<?xml version="1.0" encoding="UTF-8" standalone="no"?>
<!DOCTYPE svg PUBLIC "-//W3C//DTD SVG 1.1//EN"
 "http://www.w3.org/Graphics/SVG/1.1/DTD/svg11.dtd">
<!-- Generated by graphviz version 2.38.0 (20140413.2041)
 -->
<!-- Title: pdal::Stage::setProgressFd Pages: 1 -->
<svg width="442pt" height="176pt"
 viewBox="0.00 0.00 442.00 176.00" xmlns="http://www.w3.org/2000/svg" xmlns:xlink="http://www.w3.org/1999/xlink">
<g id="graph0" class="graph" transform="scale(1 1) rotate(0) translate(4 172)">
<title>pdal::Stage::setProgressFd</title>
<polygon fill="white" stroke="none" points="-4,4 -4,-172 438,-172 438,4 -4,4"/>
<!-- Node1 -->
<g id="node1" class="node"><title>Node1</title>
<polygon fill="#bfbfbf" stroke="black" points="0,-74 0,-93 136,-93 136,-74 0,-74"/>
<text text-anchor="middle" x="68" y="-81" font-family="Helvetica,sans-Serif" font-size="10.00">pdal::Stage::setProgressFd</text>
</g>
<!-- Node2 -->
<g id="node2" class="node"><title>Node2</title>
<g id="a_node2"><a xlink:href="classpdal_1_1PipelineManager.html#ad7f4c4be357e68bdec3051285cfc72f2" target="_top" xlink:title="pdal::PipelineManager\l::addFilter">
<polygon fill="white" stroke="black" points="172,-117.5 172,-147.5 285,-147.5 285,-117.5 172,-117.5"/>
<text text-anchor="start" x="180" y="-135.5" font-family="Helvetica,sans-Serif" font-size="10.00">pdal::PipelineManager</text>
<text text-anchor="middle" x="228.5" y="-124.5" font-family="Helvetica,sans-Serif" font-size="10.00">::addFilter</text>
</a>
</g>
</g>
<!-- Node1&#45;&gt;Node2 -->
<g id="edge1" class="edge"><title>Node1&#45;&gt;Node2</title>
<path fill="none" stroke="midnightblue" d="M109.572,-96.0426C130.692,-102.572 156.668,-110.602 178.86,-117.463"/>
<polygon fill="midnightblue" stroke="midnightblue" points="110.524,-92.6738 99.9367,-93.064 108.457,-99.3615 110.524,-92.6738"/>
</g>
<!-- Node5 -->
<g id="node5" class="node"><title>Node5</title>
<g id="a_node5"><a xlink:href="classpdal_1_1PipelineManager.html#ac06522a7da0c1dbe787701a6abbe0f96" target="_top" xlink:title="pdal::PipelineManager\l::addReader">
<polygon fill="white" stroke="black" points="172,-68.5 172,-98.5 285,-98.5 285,-68.5 172,-68.5"/>
<text text-anchor="start" x="180" y="-86.5" font-family="Helvetica,sans-Serif" font-size="10.00">pdal::PipelineManager</text>
<text text-anchor="middle" x="228.5" y="-75.5" font-family="Helvetica,sans-Serif" font-size="10.00">::addReader</text>
</a>
</g>
</g>
<!-- Node1&#45;&gt;Node5 -->
<g id="edge4" class="edge"><title>Node1&#45;&gt;Node5</title>
<path fill="none" stroke="midnightblue" d="M146.247,-83.5C154.824,-83.5 163.431,-83.5 171.668,-83.5"/>
<polygon fill="midnightblue" stroke="midnightblue" points="146.218,-80.0001 136.218,-83.5 146.218,-87.0001 146.218,-80.0001"/>
</g>
<!-- Node7 -->
<g id="node7" class="node"><title>Node7</title>
<g id="a_node7"><a xlink:href="classpdal_1_1PipelineManager.html#afeee48332d9d12837a531c398b9f26d6" target="_top" xlink:title="pdal::PipelineManager\l::addWriter">
<polygon fill="white" stroke="black" points="172,-19.5 172,-49.5 285,-49.5 285,-19.5 172,-19.5"/>
<text text-anchor="start" x="180" y="-37.5" font-family="Helvetica,sans-Serif" font-size="10.00">pdal::PipelineManager</text>
<text text-anchor="middle" x="228.5" y="-26.5" font-family="Helvetica,sans-Serif" font-size="10.00">::addWriter</text>
</a>
</g>
</g>
<!-- Node1&#45;&gt;Node7 -->
<g id="edge7" class="edge"><title>Node1&#45;&gt;Node7</title>
<path fill="none" stroke="midnightblue" d="M109.572,-70.9574C130.692,-64.4281 156.668,-56.3976 178.86,-49.537"/>
<polygon fill="midnightblue" stroke="midnightblue" points="108.457,-67.6385 99.9367,-73.936 110.524,-74.3262 108.457,-67.6385"/>
</g>
<!-- Node3 -->
<g id="node3" class="node"><title>Node3</title>
<g id="a_node3"><a xlink:href="classpdal_1_1PipelineManager.html#aeb5065b985604b7e92096470643c391a" target="_top" xlink:title="pdal::PipelineManager\l::makeFilter">
<polygon fill="white" stroke="black" points="321,-137.5 321,-167.5 434,-167.5 434,-137.5 321,-137.5"/>
<text text-anchor="start" x="329" y="-155.5" font-family="Helvetica,sans-Serif" font-size="10.00">pdal::PipelineManager</text>
<text text-anchor="middle" x="377.5" y="-144.5" font-family="Helvetica,sans-Serif" font-size="10.00">::makeFilter</text>
</a>
</g>
</g>
<!-- Node2&#45;&gt;Node3 -->
<g id="edge2" class="edge"><title>Node2&#45;&gt;Node3</title>
<path fill="none" stroke="midnightblue" d="M295.078,-141.422C303.681,-142.593 312.43,-143.783 320.847,-144.928"/>
<polygon fill="midnightblue" stroke="midnightblue" points="295.455,-137.941 285.074,-140.061 294.511,-144.877 295.455,-137.941"/>
</g>
<!-- Node4 -->
<g id="node4" class="node"><title>Node4</title>
<g id="a_node4"><a xlink:href="AdditionalMergeTest_8cpp.html#ac4c8e2ca590e0c0e62bbfdd934c0cdc8" target="_top" xlink:title="TEST">
<polygon fill="white" stroke="black" points="356.5,-99 356.5,-118 398.5,-118 398.5,-99 356.5,-99"/>
<text text-anchor="middle" x="377.5" y="-106" font-family="Helvetica,sans-Serif" font-size="10.00">TEST</text>
</a>
</g>
</g>
<!-- Node2&#45;&gt;Node4 -->
<g id="edge3" class="edge"><title>Node2&#45;&gt;Node4</title>
<path fill="none" stroke="midnightblue" d="M295.179,-121.777C317.383,-118.152 340.55,-114.369 356.45,-111.773"/>
<polygon fill="midnightblue" stroke="midnightblue" points="294.38,-118.361 285.074,-123.427 295.508,-125.269 294.38,-118.361"/>
</g>
<!-- Node5&#45;&gt;Node4 -->
<g id="edge6" class="edge"><title>Node5&#45;&gt;Node4</title>
<path fill="none" stroke="midnightblue" d="M295.179,-94.6699C317.383,-98.446 340.55,-102.386 356.45,-105.09"/>
<polygon fill="midnightblue" stroke="midnightblue" points="295.52,-91.1777 285.074,-92.9514 294.346,-98.0786 295.52,-91.1777"/>
</g>
<!-- Node6 -->
<g id="node6" class="node"><title>Node6</title>
<g id="a_node6"><a xlink:href="classpdal_1_1PipelineManager.html#a9b5b93498ef9ce477c9be6125816b97f" target="_top" xlink:title="pdal::PipelineManager\l::makeReader">
<polygon fill="white" stroke="black" points="321,-49.5 321,-79.5 434,-79.5 434,-49.5 321,-49.5"/>
<text text-anchor="start" x="329" y="-67.5" font-family="Helvetica,sans-Serif" font-size="10.00">pdal::PipelineManager</text>
<text text-anchor="middle" x="377.5" y="-56.5" font-family="Helvetica,sans-Serif" font-size="10.00">::makeReader</text>
</a>
</g>
</g>
<!-- Node5&#45;&gt;Node6 -->
<g id="edge5" class="edge"><title>Node5&#45;&gt;Node6</title>
<path fill="none" stroke="midnightblue" d="M295.078,-75.024C303.681,-73.912 312.43,-72.7812 320.847,-71.6932"/>
<polygon fill="midnightblue" stroke="midnightblue" points="294.543,-71.5638 285.074,-76.3169 295.441,-78.5061 294.543,-71.5638"/>
</g>
<!-- Node7&#45;&gt;Node4 -->
<g id="edge9" class="edge"><title>Node7&#45;&gt;Node4</title>
<path fill="none" stroke="midnightblue" d="M277.429,-54.1618C280.028,-55.5563 282.569,-57.0047 285,-58.5 302.74,-69.4118 302.929,-78.1458 321,-88.5 332.019,-94.8138 345.385,-99.7035 356.239,-103.067"/>
<polygon fill="midnightblue" stroke="midnightblue" points="278.943,-51.0058 268.437,-49.6376 275.797,-57.2589 278.943,-51.0058"/>
</g>
<!-- Node8 -->
<g id="node8" class="node"><title>Node8</title>
<g id="a_node8"><a xlink:href="classpdal_1_1PipelineManager.html#a799449dfca11d1961ea0ecd8cdb886a5" target="_top" xlink:title="pdal::PipelineManager\l::makeWriter">
<polygon fill="white" stroke="black" points="321,-0.5 321,-30.5 434,-30.5 434,-0.5 321,-0.5"/>
<text text-anchor="start" x="329" y="-18.5" font-family="Helvetica,sans-Serif" font-size="10.00">pdal::PipelineManager</text>
<text text-anchor="middle" x="377.5" y="-7.5" font-family="Helvetica,sans-Serif" font-size="10.00">::makeWriter</text>
</a>
</g>
</g>
<!-- Node7&#45;&gt;Node8 -->
<g id="edge8" class="edge"><title>Node7&#45;&gt;Node8</title>
<path fill="none" stroke="midnightblue" d="M295.078,-26.024C303.681,-24.912 312.43,-23.7812 320.847,-22.6932"/>
<polygon fill="midnightblue" stroke="midnightblue" points="294.543,-22.5638 285.074,-27.3169 295.441,-29.5061 294.543,-22.5638"/>
</g>
</g>
</svg>
