<?xml version="1.0" encoding="UTF-8" standalone="no"?>
<!DOCTYPE svg PUBLIC "-//W3C//DTD SVG 1.1//EN"
 "http://www.w3.org/Graphics/SVG/1.1/DTD/svg11.dtd">
<!-- Generated by graphviz version 2.38.0 (20140413.2041)
 -->
<!-- Title: pdal::DividerFilter Pages: 1 -->
<svg width="339pt" height="230pt"
 viewBox="0.00 0.00 339.00 230.00" xmlns="http://www.w3.org/2000/svg" xmlns:xlink="http://www.w3.org/1999/xlink">
<g id="graph0" class="graph" transform="scale(1 1) rotate(0) translate(4 226)">
<title>pdal::DividerFilter</title>
<polygon fill="white" stroke="none" points="-4,4 -4,-226 335,-226 335,4 -4,4"/>
<!-- Node1 -->
<g id="node1" class="node"><title>Node1</title>
<polygon fill="#bfbfbf" stroke="black" points="190.5,-0.5 190.5,-19.5 283.5,-19.5 283.5,-0.5 190.5,-0.5"/>
<text text-anchor="middle" x="237" y="-7.5" font-family="Helvetica,sans-Serif" font-size="10.00">pdal::DividerFilter</text>
</g>
<!-- Node2 -->
<g id="node2" class="node"><title>Node2</title>
<g id="a_node2"><a xlink:href="classpdal_1_1Filter.html" target="_top" xlink:title="pdal::Filter">
<polygon fill="white" stroke="black" points="149,-78.5 149,-97.5 211,-97.5 211,-78.5 149,-78.5"/>
<text text-anchor="middle" x="180" y="-85.5" font-family="Helvetica,sans-Serif" font-size="10.00">pdal::Filter</text>
</a>
</g>
</g>
<!-- Node2&#45;&gt;Node1 -->
<g id="edge1" class="edge"><title>Node2&#45;&gt;Node1</title>
<path fill="none" stroke="midnightblue" d="M192.746,-70.0056C204.473,-54.3693 221.389,-31.8142 230.538,-19.6165"/>
<polygon fill="midnightblue" stroke="midnightblue" points="189.739,-68.1818 186.539,-78.2818 195.339,-72.3818 189.739,-68.1818"/>
</g>
<!-- Node3 -->
<g id="node3" class="node"><title>Node3</title>
<g id="a_node3"><a xlink:href="classpdal_1_1Stage.html" target="_top" xlink:title="pdal::Stage">
<polygon fill="white" stroke="black" points="147,-135.5 147,-154.5 213,-154.5 213,-135.5 147,-135.5"/>
<text text-anchor="middle" x="180" y="-142.5" font-family="Helvetica,sans-Serif" font-size="10.00">pdal::Stage</text>
</a>
</g>
</g>
<!-- Node3&#45;&gt;Node2 -->
<g id="edge2" class="edge"><title>Node3&#45;&gt;Node2</title>
<path fill="none" stroke="midnightblue" d="M180,-125.117C180,-115.817 180,-105.056 180,-97.7149"/>
<polygon fill="midnightblue" stroke="midnightblue" points="176.5,-125.406 180,-135.406 183.5,-125.406 176.5,-125.406"/>
</g>
<!-- Node4 -->
<g id="node4" class="node"><title>Node4</title>
<g id="a_node4"><a xlink:href="classpdal_1_1MetadataNode.html" target="_top" xlink:title="pdal::MetadataNode">
<polygon fill="white" stroke="black" points="0,-202.5 0,-221.5 104,-221.5 104,-202.5 0,-202.5"/>
<text text-anchor="middle" x="52" y="-209.5" font-family="Helvetica,sans-Serif" font-size="10.00">pdal::MetadataNode</text>
</a>
</g>
</g>
<!-- Node4&#45;&gt;Node3 -->
<g id="edge3" class="edge"><title>Node4&#45;&gt;Node3</title>
<path fill="none" stroke="#9a32cd" stroke-dasharray="5,2" d="M74.7724,-197.048C87.3344,-189.567 103.32,-180.393 118,-173 131.317,-166.293 146.679,-159.596 158.781,-154.549"/>
<polygon fill="#9a32cd" stroke="#9a32cd" points="72.6743,-194.226 65.9119,-202.382 76.2845,-200.223 72.6743,-194.226"/>
<text text-anchor="middle" x="147" y="-176" font-family="Helvetica,sans-Serif" font-size="10.00"> m_metadata</text>
</g>
<!-- Node5 -->
<g id="node5" class="node"><title>Node5</title>
<g id="a_node5"><a xlink:href="classpdal_1_1SpatialReference.html" target="_top" xlink:title="pdal::SpatialReference">
<polygon fill="white" stroke="black" points="122,-202.5 122,-221.5 238,-221.5 238,-202.5 122,-202.5"/>
<text text-anchor="middle" x="180" y="-209.5" font-family="Helvetica,sans-Serif" font-size="10.00">pdal::SpatialReference</text>
</a>
</g>
</g>
<!-- Node5&#45;&gt;Node3 -->
<g id="edge4" class="edge"><title>Node5&#45;&gt;Node3</title>
<path fill="none" stroke="#9a32cd" stroke-dasharray="5,2" d="M180,-192.037C180,-179.67 180,-164.12 180,-154.627"/>
<polygon fill="#9a32cd" stroke="#9a32cd" points="176.5,-192.234 180,-202.234 183.5,-192.234 176.5,-192.234"/>
<text text-anchor="middle" x="225.5" y="-176" font-family="Helvetica,sans-Serif" font-size="10.00"> m_spatialReference</text>
</g>
<!-- Node6 -->
<g id="node6" class="node"><title>Node6</title>
<g id="a_node6"><a xlink:href="classpdal_1_1Options.html" target="_top" xlink:title="pdal::Options">
<polygon fill="white" stroke="black" points="257,-202.5 257,-221.5 331,-221.5 331,-202.5 257,-202.5"/>
<text text-anchor="middle" x="294" y="-209.5" font-family="Helvetica,sans-Serif" font-size="10.00">pdal::Options</text>
</a>
</g>
</g>
<!-- Node6&#45;&gt;Node3 -->
<g id="edge5" class="edge"><title>Node6&#45;&gt;Node3</title>
<path fill="none" stroke="#9a32cd" stroke-dasharray="5,2" d="M287.018,-192.847C283.479,-185.761 278.526,-178.125 272,-173 255.243,-159.84 232.243,-153.09 213.432,-149.63"/>
<polygon fill="#9a32cd" stroke="#9a32cd" points="284.009,-194.704 291.208,-202.477 290.428,-191.911 284.009,-194.704"/>
<text text-anchor="middle" x="305.5" y="-176" font-family="Helvetica,sans-Serif" font-size="10.00"> m_options</text>
</g>
<!-- Node7 -->
<g id="node7" class="node"><title>Node7</title>
<g id="a_node7"><a xlink:href="classpdal_1_1Arg.html" target="_top" xlink:title="pdal::Arg">
<polygon fill="white" stroke="black" points="229,-78.5 229,-97.5 285,-97.5 285,-78.5 229,-78.5"/>
<text text-anchor="middle" x="257" y="-85.5" font-family="Helvetica,sans-Serif" font-size="10.00">pdal::Arg</text>
</a>
</g>
</g>
<!-- Node7&#45;&gt;Node1 -->
<g id="edge6" class="edge"><title>Node7&#45;&gt;Node1</title>
<path fill="none" stroke="#9a32cd" stroke-dasharray="5,2" d="M252.059,-68.2239C247.973,-52.6974 242.357,-31.3582 239.267,-19.6165"/>
<polygon fill="#9a32cd" stroke="#9a32cd" points="248.776,-69.5018 254.706,-78.2818 255.546,-67.7203 248.776,-69.5018"/>
<text text-anchor="middle" x="272" y="-52" font-family="Helvetica,sans-Serif" font-size="10.00"> m_cntArg</text>
<text text-anchor="middle" x="272" y="-41" font-family="Helvetica,sans-Serif" font-size="10.00">m_capArg</text>
</g>
</g>
</svg>
