<?xml version="1.0" encoding="UTF-8" standalone="no"?>
<!DOCTYPE svg PUBLIC "-//W3C//DTD SVG 1.1//EN"
 "http://www.w3.org/Graphics/SVG/1.1/DTD/svg11.dtd">
<!-- Generated by graphviz version 2.38.0 (20140413.2041)
 -->
<!-- Title: pdal::PointLayout::finalized Pages: 1 -->
<svg width="1330pt" height="1082pt"
 viewBox="0.00 0.00 1330.00 1081.97" xmlns="http://www.w3.org/2000/svg" xmlns:xlink="http://www.w3.org/1999/xlink">
<g id="graph0" class="graph" transform="scale(1 1) rotate(0) translate(4 1077.97)">
<title>pdal::PointLayout::finalized</title>
<polygon fill="white" stroke="none" points="-4,4 -4,-1077.97 1326,-1077.97 1326,4 -4,4"/>
<!-- Node1 -->
<g id="node1" class="node"><title>Node1</title>
<polygon fill="#bfbfbf" stroke="black" points="0,-520.427 0,-550.427 98,-550.427 98,-520.427 0,-520.427"/>
<text text-anchor="start" x="8" y="-538.427" font-family="Helvetica,sans-Serif" font-size="10.00">pdal::PointLayout::</text>
<text text-anchor="middle" x="49" y="-527.427" font-family="Helvetica,sans-Serif" font-size="10.00">finalized</text>
</g>
<!-- Node2 -->
<g id="node2" class="node"><title>Node2</title>
<g id="a_node2"><a xlink:href="classpdal_1_1PointLayout.html#a62c64539215e8136b502e025627657ca" target="_top" xlink:title="pdal::PointLayout::\lassignDim">
<polygon fill="white" stroke="black" points="292,-206.427 292,-236.427 390,-236.427 390,-206.427 292,-206.427"/>
<text text-anchor="start" x="300" y="-224.427" font-family="Helvetica,sans-Serif" font-size="10.00">pdal::PointLayout::</text>
<text text-anchor="middle" x="341" y="-213.427" font-family="Helvetica,sans-Serif" font-size="10.00">assignDim</text>
</a>
</g>
</g>
<!-- Node1&#45;&gt;Node2 -->
<g id="edge1" class="edge"><title>Node1&#45;&gt;Node2</title>
<path fill="none" stroke="midnightblue" d="M49.3076,-520.151C48.0419,-472.125 51.2258,-323.14 134,-251.427 174.251,-216.555 236.417,-211.889 281.933,-214.209"/>
<polygon fill="midnightblue" stroke="midnightblue" points="281.756,-217.704 291.958,-214.845 282.2,-210.718 281.756,-217.704"/>
</g>
<!-- Node5 -->
<g id="node5" class="node"><title>Node5</title>
<g id="a_node5"><a xlink:href="namespacepdal_1_1Dimension.html#af3176b0b7e6b4be000317846cf7c2718" target="_top" xlink:title="pdal::Dimension::name">
<polygon fill="white" stroke="black" points="454.5,-356.927 454.5,-375.927 571.5,-375.927 571.5,-356.927 454.5,-356.927"/>
<text text-anchor="middle" x="513" y="-363.927" font-family="Helvetica,sans-Serif" font-size="10.00">pdal::Dimension::name</text>
</a>
</g>
</g>
<!-- Node1&#45;&gt;Node5 -->
<g id="edge46" class="edge"><title>Node1&#45;&gt;Node5</title>
<path fill="none" stroke="midnightblue" d="M52.6754,-520.168C59.4934,-486.21 80.8868,-404.337 134,-365.427 231.482,-294.014 284.836,-330.658 405,-343.427 425.5,-345.606 447.844,-350.069 466.786,-354.489"/>
<polygon fill="midnightblue" stroke="midnightblue" points="466.098,-357.923 476.639,-356.855 467.732,-351.117 466.098,-357.923"/>
</g>
<!-- Node6 -->
<g id="node6" class="node"><title>Node6</title>
<g id="a_node6"><a xlink:href="classpdal_1_1PointLayout.html#aa1b5a748ef7b9467b4977606a7f61aa5" target="_top" xlink:title="pdal::PointLayout::\lresolveType">
<polygon fill="white" stroke="black" points="464,-307.427 464,-337.427 562,-337.427 562,-307.427 464,-307.427"/>
<text text-anchor="start" x="472" y="-325.427" font-family="Helvetica,sans-Serif" font-size="10.00">pdal::PointLayout::</text>
<text text-anchor="middle" x="513" y="-314.427" font-family="Helvetica,sans-Serif" font-size="10.00">resolveType</text>
</a>
</g>
</g>
<!-- Node1&#45;&gt;Node6 -->
<g id="edge56" class="edge"><title>Node1&#45;&gt;Node6</title>
<path fill="none" stroke="midnightblue" d="M50.4826,-520.182C52.7031,-479.197 65.091,-366.566 134,-319.427 231.915,-252.447 380.026,-281.556 458.621,-304.449"/>
<polygon fill="midnightblue" stroke="midnightblue" points="457.732,-307.836 468.315,-307.344 459.735,-301.129 457.732,-307.836"/>
</g>
<!-- Node9 -->
<g id="node9" class="node"><title>Node9</title>
<g id="a_node9"><a xlink:href="namespacepdal_1_1Dimension.html#a880d689fed54aa3ded6f88c9e058c5d2" target="_top" xlink:title="pdal::Dimension::type">
<polygon fill="white" stroke="black" points="1076,-765.927 1076,-784.927 1188,-784.927 1188,-765.927 1076,-765.927"/>
<text text-anchor="middle" x="1132" y="-772.927" font-family="Helvetica,sans-Serif" font-size="10.00">pdal::Dimension::type</text>
</a>
</g>
</g>
<!-- Node1&#45;&gt;Node9 -->
<g id="edge66" class="edge"><title>Node1&#45;&gt;Node9</title>
<path fill="none" stroke="midnightblue" d="M50.5204,-550.817C53.3448,-625.182 69.1928,-946.625 134,-1017.43 197.982,-1087.33 245.237,-1072.43 340,-1072.43 340,-1072.43 340,-1072.43 845.5,-1072.43 1000.31,-1072.43 1097.43,-860.107 1123.75,-794.503"/>
<polygon fill="midnightblue" stroke="midnightblue" points="1127.09,-795.56 1127.48,-784.973 1120.57,-793.007 1127.09,-795.56"/>
</g>
<!-- Node12 -->
<g id="node12" class="node"><title>Node12</title>
<g id="a_node12"><a xlink:href="classpdal_1_1PointLayout.html#a63db6cc5de2aea2b949ee0c34e1d5501" target="_top" xlink:title="pdal::PointLayout::\lupdate">
<polygon fill="white" stroke="black" points="464,-165.427 464,-195.427 562,-195.427 562,-165.427 464,-165.427"/>
<text text-anchor="start" x="472" y="-183.427" font-family="Helvetica,sans-Serif" font-size="10.00">pdal::PointLayout::</text>
<text text-anchor="middle" x="513" y="-172.427" font-family="Helvetica,sans-Serif" font-size="10.00">update</text>
</a>
</g>
</g>
<!-- Node1&#45;&gt;Node12 -->
<g id="edge67" class="edge"><title>Node1&#45;&gt;Node12</title>
<path fill="none" stroke="midnightblue" d="M50.5335,-520.106C53.3142,-450.265 68.635,-163.162 134,-109.427 237.171,-24.613 409.88,-115.677 480.48,-159.56"/>
<polygon fill="midnightblue" stroke="midnightblue" points="479.032,-162.785 489.356,-165.165 482.77,-156.866 479.032,-162.785"/>
</g>
<!-- Node16 -->
<g id="node16" class="node"><title>Node16</title>
<g id="a_node16"><a xlink:href="classpdal_1_1PointLayout.html#abcfdf0f917e71d1bd8a96bc64ff1e8a2" target="_top" xlink:title="pdal::PointLayout::\ldimDetail">
<polygon fill="white" stroke="black" points="638,-653.427 638,-683.427 736,-683.427 736,-653.427 638,-653.427"/>
<text text-anchor="start" x="646" y="-671.427" font-family="Helvetica,sans-Serif" font-size="10.00">pdal::PointLayout::</text>
<text text-anchor="middle" x="687" y="-660.427" font-family="Helvetica,sans-Serif" font-size="10.00">dimDetail</text>
</a>
</g>
</g>
<!-- Node1&#45;&gt;Node16 -->
<g id="edge19" class="edge"><title>Node1&#45;&gt;Node16</title>
<path fill="none" stroke="midnightblue" d="M71.9378,-550.43C111.064,-576.247 196.365,-628.329 277,-649.427 398.426,-681.199 546.924,-678.181 627.382,-673.251"/>
<polygon fill="midnightblue" stroke="midnightblue" points="628.046,-676.715 637.8,-672.578 627.595,-669.73 628.046,-676.715"/>
</g>
<!-- Node17 -->
<g id="node17" class="node"><title>Node17</title>
<g id="a_node17"><a xlink:href="classpdal_1_1PointLayout.html#aa3902ee8869ff33139401a6900ae088c" target="_top" xlink:title="pdal::PointLayout::\ldimName">
<polygon fill="white" stroke="black" points="292,-370.427 292,-400.427 390,-400.427 390,-370.427 292,-370.427"/>
<text text-anchor="start" x="300" y="-388.427" font-family="Helvetica,sans-Serif" font-size="10.00">pdal::PointLayout::</text>
<text text-anchor="middle" x="341" y="-377.427" font-family="Helvetica,sans-Serif" font-size="10.00">dimName</text>
</a>
</g>
</g>
<!-- Node1&#45;&gt;Node17 -->
<g id="edge21" class="edge"><title>Node1&#45;&gt;Node17</title>
<path fill="none" stroke="midnightblue" d="M74.5844,-520.248C115.596,-495.277 200.983,-444.784 277,-409.427 280.761,-407.678 284.688,-405.953 288.662,-404.28"/>
<polygon fill="midnightblue" stroke="midnightblue" points="290.034,-407.5 297.969,-400.48 287.388,-401.02 290.034,-407.5"/>
</g>
<!-- Node18 -->
<g id="node18" class="node"><title>Node18</title>
<g id="a_node18"><a xlink:href="classpdal_1_1PointLayout.html#a9272ad881305d1bd3b258643f68ace72" target="_top" xlink:title="pdal::PointLayout::\ldimOffset">
<polygon fill="white" stroke="black" points="138.5,-775.427 138.5,-805.427 236.5,-805.427 236.5,-775.427 138.5,-775.427"/>
<text text-anchor="start" x="146.5" y="-793.427" font-family="Helvetica,sans-Serif" font-size="10.00">pdal::PointLayout::</text>
<text text-anchor="middle" x="187.5" y="-782.427" font-family="Helvetica,sans-Serif" font-size="10.00">dimOffset</text>
</a>
</g>
</g>
<!-- Node1&#45;&gt;Node18 -->
<g id="edge23" class="edge"><title>Node1&#45;&gt;Node18</title>
<path fill="none" stroke="midnightblue" d="M51.5807,-550.617C56.4967,-590.665 74.9206,-700.5 134,-765.427 135.191,-766.736 136.465,-767.983 137.806,-769.171"/>
<polygon fill="midnightblue" stroke="midnightblue" points="135.975,-772.171 146.087,-775.334 140.155,-766.556 135.975,-772.171"/>
</g>
<!-- Node20 -->
<g id="node20" class="node"><title>Node20</title>
<g id="a_node20"><a xlink:href="classpdal_1_1PointLayout.html#afd6b92bf6e8fc83993db132b1ed980e2" target="_top" xlink:title="pdal::PointLayout::dims">
<polygon fill="white" stroke="black" points="281.5,-696.927 281.5,-715.927 400.5,-715.927 400.5,-696.927 281.5,-696.927"/>
<text text-anchor="middle" x="341" y="-703.927" font-family="Helvetica,sans-Serif" font-size="10.00">pdal::PointLayout::dims</text>
</a>
</g>
</g>
<!-- Node1&#45;&gt;Node20 -->
<g id="edge26" class="edge"><title>Node1&#45;&gt;Node20</title>
<path fill="none" stroke="midnightblue" d="M54.4461,-550.451C63.8811,-579.482 88.8296,-643.09 134,-673.427 174.084,-700.349 228.284,-708.18 271.028,-709.504"/>
<polygon fill="midnightblue" stroke="midnightblue" points="271.007,-713.004 281.074,-709.703 271.146,-706.005 271.007,-713.004"/>
</g>
<!-- Node21 -->
<g id="node21" class="node"><title>Node21</title>
<g id="a_node21"><a xlink:href="classpdal_1_1PointLayout.html#ac2fa83b59ea49e234822cd432e71455d" target="_top" xlink:title="pdal::PointLayout::\ldimSize">
<polygon fill="white" stroke="black" points="464,-476.427 464,-506.427 562,-506.427 562,-476.427 464,-476.427"/>
<text text-anchor="start" x="472" y="-494.427" font-family="Helvetica,sans-Serif" font-size="10.00">pdal::PointLayout::</text>
<text text-anchor="middle" x="513" y="-483.427" font-family="Helvetica,sans-Serif" font-size="10.00">dimSize</text>
</a>
</g>
</g>
<!-- Node1&#45;&gt;Node21 -->
<g id="edge27" class="edge"><title>Node1&#45;&gt;Node21</title>
<path fill="none" stroke="midnightblue" d="M58.1522,-520.213C71.3359,-496.849 99.3874,-451.957 134,-424.427 188.496,-381.084 208.905,-374.97 277,-360.427 332.634,-348.546 353.601,-336.044 405,-360.427 429.111,-371.866 472.922,-433.097 496.306,-467.651"/>
<polygon fill="midnightblue" stroke="midnightblue" points="493.578,-469.867 502.056,-476.22 499.39,-465.966 493.578,-469.867"/>
</g>
<!-- Node22 -->
<g id="node22" class="node"><title>Node22</title>
<g id="a_node22"><a xlink:href="classpdal_1_1PointLayout.html#adaef1dfccc620aa7f7f2a57ea2c19d6d" target="_top" xlink:title="pdal::PointLayout::\ldimType">
<polygon fill="white" stroke="black" points="464,-861.427 464,-891.427 562,-891.427 562,-861.427 464,-861.427"/>
<text text-anchor="start" x="472" y="-879.427" font-family="Helvetica,sans-Serif" font-size="10.00">pdal::PointLayout::</text>
<text text-anchor="middle" x="513" y="-868.427" font-family="Helvetica,sans-Serif" font-size="10.00">dimType</text>
</a>
</g>
</g>
<!-- Node1&#45;&gt;Node22 -->
<g id="edge30" class="edge"><title>Node1&#45;&gt;Node22</title>
<path fill="none" stroke="midnightblue" d="M51.1694,-550.592C56.3636,-613.706 79.5353,-854.495 134,-902.427 229.302,-986.299 395.746,-928.934 471.9,-895.617"/>
<polygon fill="midnightblue" stroke="midnightblue" points="473.455,-898.756 481.163,-891.487 470.605,-892.363 473.455,-898.756"/>
</g>
<!-- Node24 -->
<g id="node24" class="node"><title>Node24</title>
<g id="a_node24"><a xlink:href="classpdal_1_1PointLayout.html#ade9058917c1e1580b9048f0f81ee8d5e" target="_top" xlink:title="pdal::PointLayout::\ldimTypes">
<polygon fill="white" stroke="black" points="138.5,-726.427 138.5,-756.427 236.5,-756.427 236.5,-726.427 138.5,-726.427"/>
<text text-anchor="start" x="146.5" y="-744.427" font-family="Helvetica,sans-Serif" font-size="10.00">pdal::PointLayout::</text>
<text text-anchor="middle" x="187.5" y="-733.427" font-family="Helvetica,sans-Serif" font-size="10.00">dimTypes</text>
</a>
</g>
</g>
<!-- Node1&#45;&gt;Node24 -->
<g id="edge33" class="edge"><title>Node1&#45;&gt;Node24</title>
<path fill="none" stroke="midnightblue" d="M53.9564,-550.872C63.079,-583.886 88.3795,-662.307 134,-711.427 137.098,-714.763 140.652,-717.829 144.419,-720.621"/>
<polygon fill="midnightblue" stroke="midnightblue" points="142.654,-723.65 152.913,-726.295 146.542,-717.83 142.654,-723.65"/>
</g>
<!-- Node25 -->
<g id="node25" class="node"><title>Node25</title>
<g id="a_node25"><a xlink:href="classpdal_1_1PointLayout.html#a5a720db4e74a5412c1420b0d1eaacda7" target="_top" xlink:title="pdal::PointLayout::\lfindDim">
<polygon fill="white" stroke="black" points="292,-861.427 292,-891.427 390,-891.427 390,-861.427 292,-861.427"/>
<text text-anchor="start" x="300" y="-879.427" font-family="Helvetica,sans-Serif" font-size="10.00">pdal::PointLayout::</text>
<text text-anchor="middle" x="341" y="-868.427" font-family="Helvetica,sans-Serif" font-size="10.00">findDim</text>
</a>
</g>
</g>
<!-- Node1&#45;&gt;Node25 -->
<g id="edge36" class="edge"><title>Node1&#45;&gt;Node25</title>
<path fill="none" stroke="midnightblue" d="M49.8707,-550.6C50.3255,-597.026 58.1658,-738.6 134,-814.427 144.713,-825.14 224.602,-847.18 281.673,-861.885"/>
<polygon fill="midnightblue" stroke="midnightblue" points="281.13,-865.359 291.686,-864.45 282.867,-858.578 281.13,-865.359"/>
</g>
<!-- Node26 -->
<g id="node26" class="node"><title>Node26</title>
<g id="a_node26"><a xlink:href="classpdal_1_1PointLayout.html#abb03661faa312e6954f49cf8e0e809a3" target="_top" xlink:title="pdal::PointLayout::\lfindProprietaryDim">
<polygon fill="white" stroke="black" points="464,-943.427 464,-973.427 562,-973.427 562,-943.427 464,-943.427"/>
<text text-anchor="start" x="472" y="-961.427" font-family="Helvetica,sans-Serif" font-size="10.00">pdal::PointLayout::</text>
<text text-anchor="middle" x="513" y="-950.427" font-family="Helvetica,sans-Serif" font-size="10.00">findProprietaryDim</text>
</a>
</g>
</g>
<!-- Node1&#45;&gt;Node26 -->
<g id="edge43" class="edge"><title>Node1&#45;&gt;Node26</title>
<path fill="none" stroke="midnightblue" d="M50.8297,-550.639C54.8084,-617.465 74.2697,-883.983 134,-936.427 222.437,-1014.08 372.052,-993.879 454.023,-974.714"/>
<polygon fill="midnightblue" stroke="midnightblue" points="455.016,-978.075 463.917,-972.329 453.375,-971.27 455.016,-978.075"/>
</g>
<!-- Node27 -->
<g id="node27" class="node"><title>Node27</title>
<g id="a_node27"><a xlink:href="classpdal_1_1PointLayout.html#ab4aae22c6b219962f56e0d316e7cadf8" target="_top" xlink:title="pdal::PointLayout::\lfindDimType">
<polygon fill="white" stroke="black" points="138.5,-863.427 138.5,-893.427 236.5,-893.427 236.5,-863.427 138.5,-863.427"/>
<text text-anchor="start" x="146.5" y="-881.427" font-family="Helvetica,sans-Serif" font-size="10.00">pdal::PointLayout::</text>
<text text-anchor="middle" x="187.5" y="-870.427" font-family="Helvetica,sans-Serif" font-size="10.00">findDimType</text>
</a>
</g>
</g>
<!-- Node1&#45;&gt;Node27 -->
<g id="edge40" class="edge"><title>Node1&#45;&gt;Node27</title>
<path fill="none" stroke="midnightblue" d="M50.1114,-550.578C51.2189,-599.143 60.6438,-753.306 134,-848.427 136.489,-851.655 139.431,-854.594 142.631,-857.257"/>
<polygon fill="midnightblue" stroke="midnightblue" points="140.853,-860.29 151.006,-863.317 144.956,-854.619 140.853,-860.29"/>
</g>
<!-- Node28 -->
<g id="node28" class="node"><title>Node28</title>
<g id="a_node28"><a xlink:href="classpdal_1_1PointLayout.html#ad65974ca933954236f23cc3a05a230e6" target="_top" xlink:title="pdal::PointLayout::\lhasDim">
<polygon fill="white" stroke="black" points="795.5,-818.427 795.5,-848.427 893.5,-848.427 893.5,-818.427 795.5,-818.427"/>
<text text-anchor="start" x="803.5" y="-836.427" font-family="Helvetica,sans-Serif" font-size="10.00">pdal::PointLayout::</text>
<text text-anchor="middle" x="844.5" y="-825.427" font-family="Helvetica,sans-Serif" font-size="10.00">hasDim</text>
</a>
</g>
</g>
<!-- Node1&#45;&gt;Node28 -->
<g id="edge44" class="edge"><title>Node1&#45;&gt;Node28</title>
<path fill="none" stroke="midnightblue" d="M50.8399,-550.805C54.9745,-620.96 75.3818,-909.999 134,-974.427 198.174,-1044.96 244.64,-1034.43 340,-1034.43 340,-1034.43 340,-1034.43 514,-1034.43 649.48,-1034.43 776.487,-909.053 823.899,-856.341"/>
<polygon fill="midnightblue" stroke="midnightblue" points="826.803,-858.341 830.814,-848.535 821.564,-853.699 826.803,-858.341"/>
</g>
<!-- Node29 -->
<g id="node29" class="node"><title>Node29</title>
<g id="a_node29"><a xlink:href="classpdal_1_1PointLayout.html#a7659947ed0894bcadabb01e01e9b4e6c" target="_top" xlink:title="pdal::PointLayout::\lpointSize">
<polygon fill="white" stroke="black" points="138.5,-168.427 138.5,-198.427 236.5,-198.427 236.5,-168.427 138.5,-168.427"/>
<text text-anchor="start" x="146.5" y="-186.427" font-family="Helvetica,sans-Serif" font-size="10.00">pdal::PointLayout::</text>
<text text-anchor="middle" x="187.5" y="-175.427" font-family="Helvetica,sans-Serif" font-size="10.00">pointSize</text>
</a>
</g>
</g>
<!-- Node1&#45;&gt;Node29 -->
<g id="edge47" class="edge"><title>Node1&#45;&gt;Node29</title>
<path fill="none" stroke="midnightblue" d="M49.9721,-520.197C50.6402,-470.65 58.8416,-311.595 134,-213.427 136.478,-210.191 139.412,-207.246 142.606,-204.579"/>
<polygon fill="midnightblue" stroke="midnightblue" points="144.932,-207.216 150.973,-198.513 140.823,-201.549 144.932,-207.216"/>
</g>
<!-- Node30 -->
<g id="node30" class="node"><title>Node30</title>
<g id="a_node30"><a xlink:href="classpdal_1_1PointLayout.html#ac18a9b8b3dd23c601df823e84d90f61e" target="_top" xlink:title="pdal::PointLayout::\lregisterDim">
<polygon fill="white" stroke="black" points="292,-31.4273 292,-61.4273 390,-61.4273 390,-31.4273 292,-31.4273"/>
<text text-anchor="start" x="300" y="-49.4273" font-family="Helvetica,sans-Serif" font-size="10.00">pdal::PointLayout::</text>
<text text-anchor="middle" x="341" y="-38.4273" font-family="Helvetica,sans-Serif" font-size="10.00">registerDim</text>
</a>
</g>
</g>
<!-- Node1&#45;&gt;Node30 -->
<g id="edge48" class="edge"><title>Node1&#45;&gt;Node30</title>
<path fill="none" stroke="midnightblue" d="M49.9774,-520.211C50.2117,-442.183 55.6264,-88.0325 134,-21.4273 181.157,18.649 257.783,-6.31549 303.096,-27.0784"/>
<polygon fill="midnightblue" stroke="midnightblue" points="301.732,-30.3051 312.268,-31.4203 304.727,-23.9782 301.732,-30.3051"/>
</g>
<!-- Node32 -->
<g id="node32" class="node"><title>Node32</title>
<g id="a_node32"><a xlink:href="classpdal_1_1PointLayout.html#af0404b823635c356a5bddce383ad239c" target="_top" xlink:title="pdal::PointLayout::\lregisterDims">
<polygon fill="white" stroke="black" points="138.5,-31.4273 138.5,-61.4273 236.5,-61.4273 236.5,-31.4273 138.5,-31.4273"/>
<text text-anchor="start" x="146.5" y="-49.4273" font-family="Helvetica,sans-Serif" font-size="10.00">pdal::PointLayout::</text>
<text text-anchor="middle" x="187.5" y="-38.4273" font-family="Helvetica,sans-Serif" font-size="10.00">registerDims</text>
</a>
</g>
</g>
<!-- Node1&#45;&gt;Node32 -->
<g id="edge50" class="edge"><title>Node1&#45;&gt;Node32</title>
<path fill="none" stroke="midnightblue" d="M51.0794,-520.137C56.3533,-449.005 81.3188,-150.796 134,-76.4273 136.323,-73.1481 139.125,-70.1787 142.211,-67.4999"/>
<polygon fill="midnightblue" stroke="midnightblue" points="144.43,-70.2112 150.356,-61.4286 140.247,-64.5988 144.43,-70.2112"/>
</g>
<!-- Node33 -->
<g id="node33" class="node"><title>Node33</title>
<g id="a_node33"><a xlink:href="classpdal_1_1PointLayout.html#a5eb18bf1cedb4bd97f5db6a094b10360" target="_top" xlink:title="pdal::PointLayout::\lregisterOrAssignDim">
<polygon fill="white" stroke="black" points="134,-119.427 134,-149.427 241,-149.427 241,-119.427 134,-119.427"/>
<text text-anchor="start" x="142" y="-137.427" font-family="Helvetica,sans-Serif" font-size="10.00">pdal::PointLayout::</text>
<text text-anchor="middle" x="187.5" y="-126.427" font-family="Helvetica,sans-Serif" font-size="10.00">registerOrAssignDim</text>
</a>
</g>
</g>
<!-- Node1&#45;&gt;Node33 -->
<g id="edge52" class="edge"><title>Node1&#45;&gt;Node33</title>
<path fill="none" stroke="midnightblue" d="M51.5729,-520.305C58.3892,-457.302 87.1612,-216.275 134,-158.427 134.607,-157.678 135.243,-156.95 135.904,-156.245"/>
<polygon fill="midnightblue" stroke="midnightblue" points="138.486,-158.643 143.829,-149.493 133.947,-153.314 138.486,-158.643"/>
</g>
<!-- Node34 -->
<g id="node34" class="node"><title>Node34</title>
<g id="a_node34"><a xlink:href="classpdal_1_1PointLayout.html#a677fc6bf9b31cdbb8d64f57d7e796140" target="_top" xlink:title="pdal::PointLayout::\ltoMetadata">
<polygon fill="white" stroke="black" points="138.5,-520.427 138.5,-550.427 236.5,-550.427 236.5,-520.427 138.5,-520.427"/>
<text text-anchor="start" x="146.5" y="-538.427" font-family="Helvetica,sans-Serif" font-size="10.00">pdal::PointLayout::</text>
<text text-anchor="middle" x="187.5" y="-527.427" font-family="Helvetica,sans-Serif" font-size="10.00">toMetadata</text>
</a>
</g>
</g>
<!-- Node1&#45;&gt;Node34 -->
<g id="edge57" class="edge"><title>Node1&#45;&gt;Node34</title>
<path fill="none" stroke="midnightblue" d="M98.1248,-535.427C107.809,-535.427 118.087,-535.427 128.079,-535.427"/>
<polygon fill="midnightblue" stroke="midnightblue" points="128.35,-538.927 138.35,-535.427 128.35,-531.927 128.35,-538.927"/>
</g>
<!-- Node3 -->
<g id="node3" class="node"><title>Node3</title>
<g id="a_node3"><a xlink:href="namespacepdal_1_1Dimension.html#a10b4c693e3bdbdf1a0eec8f4b008a291" target="_top" xlink:title="pdal::Dimension::id">
<polygon fill="white" stroke="black" points="462.5,-268.927 462.5,-287.927 563.5,-287.927 563.5,-268.927 462.5,-268.927"/>
<text text-anchor="middle" x="513" y="-275.927" font-family="Helvetica,sans-Serif" font-size="10.00">pdal::Dimension::id</text>
</a>
</g>
</g>
<!-- Node2&#45;&gt;Node3 -->
<g id="edge2" class="edge"><title>Node2&#45;&gt;Node3</title>
<path fill="none" stroke="midnightblue" d="M387.111,-236.553C414.117,-245.608 448.072,-256.993 473.758,-265.605"/>
<polygon fill="midnightblue" stroke="midnightblue" points="472.92,-269.015 483.514,-268.876 475.145,-262.379 472.92,-269.015"/>
</g>
<!-- Node2&#45;&gt;Node5 -->
<g id="edge4" class="edge"><title>Node2&#45;&gt;Node5</title>
<path fill="none" stroke="midnightblue" d="M357.627,-236.638C370.934,-249.963 390.191,-270.16 405,-289.427 423.259,-313.184 416.985,-328.509 441,-346.427 444.199,-348.815 447.672,-350.917 451.305,-352.769"/>
<polygon fill="midnightblue" stroke="midnightblue" points="450.036,-356.034 460.598,-356.874 452.865,-349.631 450.036,-356.034"/>
</g>
<!-- Node2&#45;&gt;Node6 -->
<g id="edge5" class="edge"><title>Node2&#45;&gt;Node6</title>
<path fill="none" stroke="midnightblue" d="M380.984,-236.526C389.344,-240.687 397.816,-245.67 405,-251.427 425.258,-267.662 419.911,-282.287 441,-297.427 445.205,-300.446 449.808,-303.129 454.586,-305.508"/>
<polygon fill="midnightblue" stroke="midnightblue" points="453.375,-308.801 463.931,-309.717 456.25,-302.419 453.375,-308.801"/>
</g>
<!-- Node8 -->
<g id="node8" class="node"><title>Node8</title>
<g id="a_node8"><a xlink:href="namespacepdal_1_1Utils.html#a59253304d0f929e3a3ea00f09636002f" target="_top" xlink:title="pdal::Utils::toNative">
<polygon fill="white" stroke="black" points="936,-469.927 936,-488.927 1040,-488.927 1040,-469.927 936,-469.927"/>
<text text-anchor="middle" x="988" y="-476.927" font-family="Helvetica,sans-Serif" font-size="10.00">pdal::Utils::toNative</text>
</a>
</g>
</g>
<!-- Node2&#45;&gt;Node8 -->
<g id="edge12" class="edge"><title>Node2&#45;&gt;Node8</title>
<path fill="none" stroke="midnightblue" d="M390.171,-216.72C469.345,-210.946 630.423,-207.543 753,-259.427 857.509,-303.663 943.745,-416.613 974.708,-461.061"/>
<polygon fill="midnightblue" stroke="midnightblue" points="971.922,-463.187 980.463,-469.456 977.695,-459.229 971.922,-463.187"/>
</g>
<!-- Node2&#45;&gt;Node12 -->
<g id="edge13" class="edge"><title>Node2&#45;&gt;Node12</title>
<path fill="none" stroke="midnightblue" d="M390.26,-209.788C410.085,-205.007 433.211,-199.429 453.949,-194.428"/>
<polygon fill="midnightblue" stroke="midnightblue" points="455.013,-197.772 463.913,-192.025 453.371,-190.967 455.013,-197.772"/>
</g>
<!-- Node4 -->
<g id="node4" class="node"><title>Node4</title>
<g id="a_node4"><a xlink:href="namespacepdal_1_1Utils.html#a28e3e2faff94b20f9908e77bc54ed983" target="_top" xlink:title="pdal::Utils::toupper">
<polygon fill="white" stroke="black" points="637.5,-268.927 637.5,-287.927 736.5,-287.927 736.5,-268.927 637.5,-268.927"/>
<text text-anchor="middle" x="687" y="-275.927" font-family="Helvetica,sans-Serif" font-size="10.00">pdal::Utils::toupper</text>
</a>
</g>
</g>
<!-- Node3&#45;&gt;Node4 -->
<g id="edge3" class="edge"><title>Node3&#45;&gt;Node4</title>
<path fill="none" stroke="midnightblue" d="M563.75,-278.427C583.526,-278.427 606.432,-278.427 627.034,-278.427"/>
<polygon fill="midnightblue" stroke="midnightblue" points="627.253,-281.927 637.253,-278.427 627.252,-274.927 627.253,-281.927"/>
</g>
<!-- Node7 -->
<g id="node7" class="node"><title>Node7</title>
<g id="a_node7"><a xlink:href="namespacepdal_1_1Dimension.html#ab9491687b8700d1db27e0aba1fcd7143" target="_top" xlink:title="pdal::Dimension::base">
<polygon fill="white" stroke="black" points="630,-469.927 630,-488.927 744,-488.927 744,-469.927 630,-469.927"/>
<text text-anchor="middle" x="687" y="-476.927" font-family="Helvetica,sans-Serif" font-size="10.00">pdal::Dimension::base</text>
</a>
</g>
</g>
<!-- Node6&#45;&gt;Node7 -->
<g id="edge6" class="edge"><title>Node6&#45;&gt;Node7</title>
<path fill="none" stroke="midnightblue" d="M562.193,-333.745C570.418,-337.19 578.418,-341.654 585,-347.427 611.598,-370.758 599.78,-390.117 621,-418.427 633.759,-435.451 651.559,-451.781 665.306,-463.254"/>
<polygon fill="midnightblue" stroke="midnightblue" points="663.296,-466.131 673.26,-469.732 667.717,-460.704 663.296,-466.131"/>
</g>
<!-- Node11 -->
<g id="node11" class="node"><title>Node11</title>
<g id="a_node11"><a xlink:href="namespacepdal_1_1Dimension.html#acf81dae9d5946f3a941f9df154b2329b" target="_top" xlink:title="pdal::Dimension::size">
<polygon fill="white" stroke="black" points="789,-394.927 789,-413.927 900,-413.927 900,-394.927 789,-394.927"/>
<text text-anchor="middle" x="844.5" y="-401.927" font-family="Helvetica,sans-Serif" font-size="10.00">pdal::Dimension::size</text>
</a>
</g>
</g>
<!-- Node6&#45;&gt;Node11 -->
<g id="edge10" class="edge"><title>Node6&#45;&gt;Node11</title>
<path fill="none" stroke="midnightblue" d="M562.015,-335.919C569.993,-339.107 577.953,-342.922 585,-347.427 604.331,-359.786 600.284,-374.564 621,-384.427 670.159,-407.833 732.311,-411.583 778.424,-410.196"/>
<polygon fill="midnightblue" stroke="midnightblue" points="778.742,-413.687 788.599,-409.8 778.47,-406.692 778.742,-413.687"/>
</g>
<!-- Node7&#45;&gt;Node8 -->
<g id="edge7" class="edge"><title>Node7&#45;&gt;Node8</title>
<path fill="none" stroke="midnightblue" d="M744.24,-479.427C795.941,-479.427 872.419,-479.427 925.671,-479.427"/>
<polygon fill="midnightblue" stroke="midnightblue" points="925.998,-482.927 935.998,-479.427 925.998,-475.927 925.998,-482.927"/>
</g>
<!-- Node8&#45;&gt;Node9 -->
<g id="edge8" class="edge"><title>Node8&#45;&gt;Node9</title>
<path fill="none" stroke="midnightblue" d="M993.564,-488.941C1013.67,-530.861 1094.59,-699.541 1121.93,-756.518"/>
<polygon fill="midnightblue" stroke="midnightblue" points="1118.9,-758.298 1126.38,-765.801 1125.21,-755.271 1118.9,-758.298"/>
</g>
<!-- Node10 -->
<g id="node10" class="node"><title>Node10</title>
<g id="a_node10"><a xlink:href="namespacepdal_1_1Utils.html#a5268937cf695835e55392f752dc02cb2" target="_top" xlink:title="pdal::Utils::tolower">
<polygon fill="white" stroke="black" points="1224,-765.927 1224,-784.927 1322,-784.927 1322,-765.927 1224,-765.927"/>
<text text-anchor="middle" x="1273" y="-772.927" font-family="Helvetica,sans-Serif" font-size="10.00">pdal::Utils::tolower</text>
</a>
</g>
</g>
<!-- Node9&#45;&gt;Node10 -->
<g id="edge9" class="edge"><title>Node9&#45;&gt;Node10</title>
<path fill="none" stroke="midnightblue" d="M1188.34,-775.427C1196.62,-775.427 1205.19,-775.427 1213.55,-775.427"/>
<polygon fill="midnightblue" stroke="midnightblue" points="1213.59,-778.927 1223.59,-775.427 1213.59,-771.927 1213.59,-778.927"/>
</g>
<!-- Node11&#45;&gt;Node8 -->
<g id="edge11" class="edge"><title>Node11&#45;&gt;Node8</title>
<path fill="none" stroke="midnightblue" d="M863.709,-414.079C888.119,-427.017 931.647,-450.088 959.911,-465.069"/>
<polygon fill="midnightblue" stroke="midnightblue" points="958.386,-468.222 968.861,-469.813 961.664,-462.037 958.386,-468.222"/>
</g>
<!-- Node12&#45;&gt;Node8 -->
<g id="edge16" class="edge"><title>Node12&#45;&gt;Node8</title>
<path fill="none" stroke="midnightblue" d="M562.308,-183.328C660.042,-189.605 874.169,-205.577 900,-226.427 973.78,-285.981 985.214,-411.428 986.819,-459.814"/>
<polygon fill="midnightblue" stroke="midnightblue" points="983.322,-459.972 987.043,-469.892 990.32,-459.817 983.322,-459.972"/>
</g>
<!-- Node13 -->
<g id="node13" class="node"><title>Node13</title>
<g id="a_node13"><a xlink:href="namespacepdal_1_1Utils.html#a3e140e4c0c21d020c56c0b8d58b8cb5b" target="_top" xlink:title="pdal::Utils::contains">
<polygon fill="white" stroke="black" points="635,-116.927 635,-135.927 739,-135.927 739,-116.927 635,-116.927"/>
<text text-anchor="middle" x="687" y="-123.927" font-family="Helvetica,sans-Serif" font-size="10.00">pdal::Utils::contains</text>
</a>
</g>
</g>
<!-- Node12&#45;&gt;Node13 -->
<g id="edge14" class="edge"><title>Node12&#45;&gt;Node13</title>
<path fill="none" stroke="midnightblue" d="M558.932,-165.379C578.025,-159.076 600.556,-151.757 621,-145.427 628.026,-143.252 635.5,-141.005 642.784,-138.851"/>
<polygon fill="midnightblue" stroke="midnightblue" points="643.928,-142.163 652.538,-135.988 641.957,-135.447 643.928,-142.163"/>
</g>
<!-- Node14 -->
<g id="node14" class="node"><title>Node14</title>
<g id="a_node14"><a xlink:href="classpdal_1_1Dimension_1_1Detail.html#a549ea013da1958d0b9120987cb33e291" target="_top" xlink:title="pdal::Dimension::Detail::id">
<polygon fill="white" stroke="black" points="621,-154.927 621,-173.927 753,-173.927 753,-154.927 621,-154.927"/>
<text text-anchor="middle" x="687" y="-161.927" font-family="Helvetica,sans-Serif" font-size="10.00">pdal::Dimension::Detail::id</text>
</a>
</g>
</g>
<!-- Node12&#45;&gt;Node14 -->
<g id="edge15" class="edge"><title>Node12&#45;&gt;Node14</title>
<path fill="none" stroke="midnightblue" d="M562.369,-175.928C577.427,-174.527 594.403,-172.948 610.841,-171.419"/>
<polygon fill="midnightblue" stroke="midnightblue" points="611.352,-174.887 620.985,-170.475 610.703,-167.917 611.352,-174.887"/>
</g>
<!-- Node15 -->
<g id="node15" class="node"><title>Node15</title>
<g id="a_node15"><a xlink:href="classpdal_1_1Dimension_1_1Detail.html#a320806a1cc878b5fdb10e178f27a4c61" target="_top" xlink:title="pdal::Dimension::Detail\l::size">
<polygon fill="white" stroke="black" points="627.5,-345.427 627.5,-375.427 746.5,-375.427 746.5,-345.427 627.5,-345.427"/>
<text text-anchor="start" x="635.5" y="-363.427" font-family="Helvetica,sans-Serif" font-size="10.00">pdal::Dimension::Detail</text>
<text text-anchor="middle" x="687" y="-352.427" font-family="Helvetica,sans-Serif" font-size="10.00">::size</text>
</a>
</g>
</g>
<!-- Node12&#45;&gt;Node15 -->
<g id="edge17" class="edge"><title>Node12&#45;&gt;Node15</title>
<path fill="none" stroke="midnightblue" d="M527.232,-195.468C547.171,-218.001 586.285,-261.691 621,-297.427 634.512,-311.336 650.099,-326.473 662.622,-338.423"/>
<polygon fill="midnightblue" stroke="midnightblue" points="660.317,-341.061 669.977,-345.412 665.139,-335.987 660.317,-341.061"/>
</g>
<!-- Node15&#45;&gt;Node11 -->
<g id="edge18" class="edge"><title>Node15&#45;&gt;Node11</title>
<path fill="none" stroke="midnightblue" d="M741.079,-375.447C760.232,-380.866 781.613,-386.916 799.865,-392.081"/>
<polygon fill="midnightblue" stroke="midnightblue" points="799.074,-395.494 809.649,-394.849 800.98,-388.759 799.074,-395.494"/>
</g>
<!-- Node16&#45;&gt;Node8 -->
<g id="edge20" class="edge"><title>Node16&#45;&gt;Node8</title>
<path fill="none" stroke="midnightblue" d="M711.963,-653.28C768.015,-617.849 907.157,-529.897 963.123,-494.52"/>
<polygon fill="midnightblue" stroke="midnightblue" points="965.086,-497.42 971.668,-489.119 961.345,-491.503 965.086,-497.42"/>
</g>
<!-- Node17&#45;&gt;Node5 -->
<g id="edge22" class="edge"><title>Node17&#45;&gt;Node5</title>
<path fill="none" stroke="midnightblue" d="M390.26,-380.034C406.996,-378.163 426.085,-376.03 444.104,-374.016"/>
<polygon fill="midnightblue" stroke="midnightblue" points="444.722,-377.468 454.272,-372.879 443.945,-370.512 444.722,-377.468"/>
</g>
<!-- Node18&#45;&gt;Node16 -->
<g id="edge24" class="edge"><title>Node18&#45;&gt;Node16</title>
<path fill="none" stroke="midnightblue" d="M236.854,-804.517C281.149,-815.272 348.258,-826.12 405,-812.427 504.283,-788.47 607.89,-723.111 656.94,-689.303"/>
<polygon fill="midnightblue" stroke="midnightblue" points="658.966,-692.158 665.173,-683.571 654.966,-686.413 658.966,-692.158"/>
</g>
<!-- Node19 -->
<g id="node19" class="node"><title>Node19</title>
<g id="a_node19"><a xlink:href="classpdal_1_1Dimension_1_1Detail.html#acfd60ca17fcdc93bd5ec3f4446fd54d6" target="_top" xlink:title="pdal::Dimension::Detail\l::offset">
<polygon fill="white" stroke="black" points="281.5,-773.427 281.5,-803.427 400.5,-803.427 400.5,-773.427 281.5,-773.427"/>
<text text-anchor="start" x="289.5" y="-791.427" font-family="Helvetica,sans-Serif" font-size="10.00">pdal::Dimension::Detail</text>
<text text-anchor="middle" x="341" y="-780.427" font-family="Helvetica,sans-Serif" font-size="10.00">::offset</text>
</a>
</g>
</g>
<!-- Node18&#45;&gt;Node19 -->
<g id="edge25" class="edge"><title>Node18&#45;&gt;Node19</title>
<path fill="none" stroke="midnightblue" d="M236.852,-789.789C247.769,-789.645 259.564,-789.489 271.142,-789.336"/>
<polygon fill="midnightblue" stroke="midnightblue" points="271.281,-792.835 281.234,-789.203 271.189,-785.836 271.281,-792.835"/>
</g>
<!-- Node21&#45;&gt;Node15 -->
<g id="edge29" class="edge"><title>Node21&#45;&gt;Node15</title>
<path fill="none" stroke="midnightblue" d="M533.731,-476.4C564.235,-453.167 622.966,-408.436 657.898,-381.83"/>
<polygon fill="midnightblue" stroke="midnightblue" points="660.401,-384.324 666.235,-375.481 656.159,-378.755 660.401,-384.324"/>
</g>
<!-- Node21&#45;&gt;Node16 -->
<g id="edge28" class="edge"><title>Node21&#45;&gt;Node16</title>
<path fill="none" stroke="midnightblue" d="M528.665,-506.518C559.002,-537.738 628.785,-609.549 664.333,-646.13"/>
<polygon fill="midnightblue" stroke="midnightblue" points="661.893,-648.642 671.372,-653.375 666.913,-643.764 661.893,-648.642"/>
</g>
<!-- Node22&#45;&gt;Node16 -->
<g id="edge31" class="edge"><title>Node22&#45;&gt;Node16</title>
<path fill="none" stroke="midnightblue" d="M562.004,-861.263C570.247,-857.283 578.302,-852.388 585,-846.427 633.523,-803.245 664.25,-730.965 677.853,-693.166"/>
<polygon fill="midnightblue" stroke="midnightblue" points="681.245,-694.067 681.236,-683.472 674.636,-691.76 681.245,-694.067"/>
</g>
<!-- Node23 -->
<g id="node23" class="node"><title>Node23</title>
<g id="a_node23"><a xlink:href="classpdal_1_1Dimension_1_1Detail.html#adf5961976b7fce3d90a0dddd50519a7c" target="_top" xlink:title="pdal::Dimension::Detail\l::type">
<polygon fill="white" stroke="black" points="627.5,-861.427 627.5,-891.427 746.5,-891.427 746.5,-861.427 627.5,-861.427"/>
<text text-anchor="start" x="635.5" y="-879.427" font-family="Helvetica,sans-Serif" font-size="10.00">pdal::Dimension::Detail</text>
<text text-anchor="middle" x="687" y="-868.427" font-family="Helvetica,sans-Serif" font-size="10.00">::type</text>
</a>
</g>
</g>
<!-- Node22&#45;&gt;Node23 -->
<g id="edge32" class="edge"><title>Node22&#45;&gt;Node23</title>
<path fill="none" stroke="midnightblue" d="M562.369,-876.427C579.388,-876.427 598.856,-876.427 617.23,-876.427"/>
<polygon fill="midnightblue" stroke="midnightblue" points="617.303,-879.927 627.303,-876.427 617.302,-872.927 617.303,-879.927"/>
</g>
<!-- Node24&#45;&gt;Node20 -->
<g id="edge34" class="edge"><title>Node24&#45;&gt;Node20</title>
<path fill="none" stroke="midnightblue" d="M236.852,-730.257C253.346,-726.446 271.843,-722.173 288.57,-718.309"/>
<polygon fill="midnightblue" stroke="midnightblue" points="289.767,-721.625 298.722,-715.963 288.191,-714.804 289.767,-721.625"/>
</g>
<!-- Node24&#45;&gt;Node22 -->
<g id="edge35" class="edge"><title>Node24&#45;&gt;Node22</title>
<path fill="none" stroke="midnightblue" d="M236.71,-737.011C282.402,-734.911 351.771,-737.256 405,-763.427 445.734,-783.455 479.088,-825.865 497.204,-852.653"/>
<polygon fill="midnightblue" stroke="midnightblue" points="494.331,-854.654 502.752,-861.084 500.178,-850.806 494.331,-854.654"/>
</g>
<!-- Node25&#45;&gt;Node3 -->
<g id="edge37" class="edge"><title>Node25&#45;&gt;Node3</title>
<path fill="none" stroke="midnightblue" d="M363.247,-861.418C377.769,-849.847 395.963,-832.467 405,-812.427 452.163,-707.846 368.014,-385.94 441,-297.427 444.364,-293.348 448.499,-290.091 453.067,-287.498"/>
<polygon fill="midnightblue" stroke="midnightblue" points="454.653,-290.622 462.298,-283.287 451.748,-284.253 454.653,-290.622"/>
</g>
<!-- Node25&#45;&gt;Node22 -->
<g id="edge38" class="edge"><title>Node25&#45;&gt;Node22</title>
<path fill="none" stroke="midnightblue" d="M390.26,-876.427C409.995,-876.427 433,-876.427 453.666,-876.427"/>
<polygon fill="midnightblue" stroke="midnightblue" points="453.913,-879.927 463.913,-876.427 453.913,-872.927 453.913,-879.927"/>
</g>
<!-- Node25&#45;&gt;Node26 -->
<g id="edge39" class="edge"><title>Node25&#45;&gt;Node26</title>
<path fill="none" stroke="midnightblue" d="M373.181,-891.467C400.772,-904.776 441.216,-924.285 471.341,-938.815"/>
<polygon fill="midnightblue" stroke="midnightblue" points="470.202,-942.152 480.73,-943.344 473.243,-935.847 470.202,-942.152"/>
</g>
<!-- Node27&#45;&gt;Node22 -->
<g id="edge42" class="edge"><title>Node27&#45;&gt;Node22</title>
<path fill="none" stroke="midnightblue" d="M236.791,-892.687C249.733,-895.887 263.8,-898.811 277,-900.427 333.467,-907.341 348.457,-906.691 405,-900.427 420.988,-898.656 438.078,-895.44 453.801,-891.925"/>
<polygon fill="midnightblue" stroke="midnightblue" points="454.958,-895.25 463.91,-889.585 453.379,-888.431 454.958,-895.25"/>
</g>
<!-- Node27&#45;&gt;Node25 -->
<g id="edge41" class="edge"><title>Node27&#45;&gt;Node25</title>
<path fill="none" stroke="midnightblue" d="M236.852,-877.789C251.135,-877.6 266.92,-877.392 281.757,-877.196"/>
<polygon fill="midnightblue" stroke="midnightblue" points="281.894,-880.695 291.847,-877.063 281.802,-873.695 281.894,-880.695"/>
</g>
<!-- Node28&#45;&gt;Node8 -->
<g id="edge45" class="edge"><title>Node28&#45;&gt;Node8</title>
<path fill="none" stroke="midnightblue" d="M851.58,-818.216C874.283,-761.42 954.075,-561.799 979.297,-498.699"/>
<polygon fill="midnightblue" stroke="midnightblue" points="982.643,-499.757 983.105,-489.172 976.143,-497.159 982.643,-499.757"/>
</g>
<!-- Node31 -->
<g id="node31" class="node"><title>Node31</title>
<g id="a_node31"><a xlink:href="namespacepdal_1_1Dimension.html#a9562a0d1c8e24bf903f1ccdd37b62d2f" target="_top" xlink:title="pdal::Dimension::defaultType">
<polygon fill="white" stroke="black" points="441,-36.9273 441,-55.9273 585,-55.9273 585,-36.9273 441,-36.9273"/>
<text text-anchor="middle" x="513" y="-43.9273" font-family="Helvetica,sans-Serif" font-size="10.00">pdal::Dimension::defaultType</text>
</a>
</g>
</g>
<!-- Node30&#45;&gt;Node31 -->
<g id="edge49" class="edge"><title>Node30&#45;&gt;Node31</title>
<path fill="none" stroke="midnightblue" d="M390.26,-46.4273C402.899,-46.4273 416.879,-46.4273 430.727,-46.4273"/>
<polygon fill="midnightblue" stroke="midnightblue" points="430.767,-49.9274 440.767,-46.4273 430.767,-42.9274 430.767,-49.9274"/>
</g>
<!-- Node32&#45;&gt;Node30 -->
<g id="edge51" class="edge"><title>Node32&#45;&gt;Node30</title>
<path fill="none" stroke="midnightblue" d="M236.852,-46.4273C251.135,-46.4273 266.92,-46.4273 281.757,-46.4273"/>
<polygon fill="midnightblue" stroke="midnightblue" points="281.847,-49.9274 291.847,-46.4273 281.847,-42.9274 281.847,-49.9274"/>
</g>
<!-- Node33&#45;&gt;Node2 -->
<g id="edge55" class="edge"><title>Node33&#45;&gt;Node2</title>
<path fill="none" stroke="midnightblue" d="M223.287,-149.51C229.265,-152.334 235.364,-155.365 241,-158.427 264.75,-171.333 290.475,-187.784 309.747,-200.638"/>
<polygon fill="midnightblue" stroke="midnightblue" points="307.866,-203.591 318.118,-206.266 311.772,-197.782 307.866,-203.591"/>
</g>
<!-- Node33&#45;&gt;Node3 -->
<g id="edge53" class="edge"><title>Node33&#45;&gt;Node3</title>
<path fill="none" stroke="midnightblue" d="M241.274,-143.764C286.42,-153.079 352.268,-169.88 405,-196.427 439.909,-214.002 474.804,-243.54 494.85,-261.956"/>
<polygon fill="midnightblue" stroke="midnightblue" points="492.556,-264.602 502.251,-268.874 497.336,-259.488 492.556,-264.602"/>
</g>
<!-- Node33&#45;&gt;Node30 -->
<g id="edge54" class="edge"><title>Node33&#45;&gt;Node30</title>
<path fill="none" stroke="midnightblue" d="M214.544,-119.3C239.551,-104.774 277.498,-82.7323 305.109,-66.694"/>
<polygon fill="midnightblue" stroke="midnightblue" points="307.154,-69.5539 314.043,-61.5047 303.638,-63.501 307.154,-69.5539"/>
</g>
<!-- Node34&#45;&gt;Node7 -->
<g id="edge63" class="edge"><title>Node34&#45;&gt;Node7</title>
<path fill="none" stroke="midnightblue" d="M236.743,-537.89C312.034,-540.643 461.64,-541.722 585,-515.427 609.141,-510.282 635.37,-500.808 655.048,-492.871"/>
<polygon fill="midnightblue" stroke="midnightblue" points="656.508,-496.055 664.419,-489.008 653.84,-489.583 656.508,-496.055"/>
</g>
<!-- Node34&#45;&gt;Node17 -->
<g id="edge60" class="edge"><title>Node34&#45;&gt;Node17</title>
<path fill="none" stroke="midnightblue" d="M197.676,-520.101C215.848,-490.162 256.43,-425.433 277,-409.427 278.839,-407.997 280.773,-406.643 282.775,-405.364"/>
<polygon fill="midnightblue" stroke="midnightblue" points="284.921,-408.173 291.919,-400.218 281.488,-402.072 284.921,-408.173"/>
</g>
<!-- Node34&#45;&gt;Node20 -->
<g id="edge58" class="edge"><title>Node34&#45;&gt;Node20</title>
<path fill="none" stroke="midnightblue" d="M198.897,-550.486C214.69,-572.956 246.162,-616.175 277,-649.427 290.658,-664.154 307.611,-679.342 320.489,-690.333"/>
<polygon fill="midnightblue" stroke="midnightblue" points="318.386,-693.137 328.289,-696.903 322.895,-687.783 318.386,-693.137"/>
</g>
<!-- Node34&#45;&gt;Node21 -->
<g id="edge64" class="edge"><title>Node34&#45;&gt;Node21</title>
<path fill="none" stroke="midnightblue" d="M236.582,-528.888C294.52,-521.007 391.802,-507.776 453.889,-499.331"/>
<polygon fill="midnightblue" stroke="midnightblue" points="454.481,-502.783 463.918,-497.967 453.538,-495.847 454.481,-502.783"/>
</g>
<!-- Node34&#45;&gt;Node22 -->
<g id="edge61" class="edge"><title>Node34&#45;&gt;Node22</title>
<path fill="none" stroke="midnightblue" d="M228.048,-550.49C243.305,-556.218 260.925,-562.732 277,-568.427 333.568,-588.469 361.317,-570.276 405,-611.427 476.141,-678.446 501.154,-799.233 508.905,-851.359"/>
<polygon fill="midnightblue" stroke="midnightblue" points="505.457,-851.976 510.307,-861.396 512.39,-851.007 505.457,-851.976"/>
</g>
<!-- Node35 -->
<g id="node35" class="node"><title>Node35</title>
<g id="a_node35"><a xlink:href="classpdal_1_1MetadataNode.html#af2c1c5d91f6ab47a804aa8a0a1b043c2" target="_top" xlink:title="pdal::MetadataNode::add">
<polygon fill="white" stroke="black" points="278,-620.927 278,-639.927 404,-639.927 404,-620.927 278,-620.927"/>
<text text-anchor="middle" x="341" y="-627.927" font-family="Helvetica,sans-Serif" font-size="10.00">pdal::MetadataNode::add</text>
</a>
</g>
</g>
<!-- Node34&#45;&gt;Node35 -->
<g id="edge59" class="edge"><title>Node34&#45;&gt;Node35</title>
<path fill="none" stroke="midnightblue" d="M204.333,-550.702C221.224,-566.35 249.308,-590.57 277,-606.427 284.149,-610.521 292.129,-614.178 299.942,-617.328"/>
<polygon fill="midnightblue" stroke="midnightblue" points="298.733,-620.613 309.324,-620.916 301.234,-614.075 298.733,-620.613"/>
</g>
<!-- Node36 -->
<g id="node36" class="node"><title>Node36</title>
<g id="a_node36"><a xlink:href="namespacepdal_1_1Dimension.html#ab617d7d6d8a56b6711d9e8aa645ba161" target="_top" xlink:title="pdal::Dimension::toName">
<polygon fill="white" stroke="black" points="277,-468.927 277,-487.927 405,-487.927 405,-468.927 277,-468.927"/>
<text text-anchor="middle" x="341" y="-475.927" font-family="Helvetica,sans-Serif" font-size="10.00">pdal::Dimension::toName</text>
</a>
</g>
</g>
<!-- Node34&#45;&gt;Node36 -->
<g id="edge62" class="edge"><title>Node34&#45;&gt;Node36</title>
<path fill="none" stroke="midnightblue" d="M228.701,-520.302C252.373,-511.396 282.035,-500.236 304.784,-491.677"/>
<polygon fill="midnightblue" stroke="midnightblue" points="306.26,-494.861 314.387,-488.064 303.795,-488.309 306.26,-494.861"/>
</g>
<!-- Node37 -->
<g id="node37" class="node"><title>Node37</title>
<g id="a_node37"><a xlink:href="classpdal_1_1MetadataNode.html#af9242fea26778fb33e939d38f0dd0dd4" target="_top" xlink:title="pdal::MetadataNode\l::addList">
<polygon fill="white" stroke="black" points="289,-419.427 289,-449.427 393,-449.427 393,-419.427 289,-419.427"/>
<text text-anchor="start" x="297" y="-437.427" font-family="Helvetica,sans-Serif" font-size="10.00">pdal::MetadataNode</text>
<text text-anchor="middle" x="341" y="-426.427" font-family="Helvetica,sans-Serif" font-size="10.00">::addList</text>
</a>
</g>
</g>
<!-- Node34&#45;&gt;Node37 -->
<g id="edge65" class="edge"><title>Node34&#45;&gt;Node37</title>
<path fill="none" stroke="midnightblue" d="M202.956,-520.3C219.558,-503.611 248.228,-476.818 277,-459.427 280.21,-457.487 283.597,-455.643 287.068,-453.9"/>
<polygon fill="midnightblue" stroke="midnightblue" points="288.819,-456.945 296.386,-449.529 285.846,-450.607 288.819,-456.945"/>
</g>
</g>
</svg>
