<?xml version="1.0" encoding="UTF-8" standalone="no"?>
<!DOCTYPE svg PUBLIC "-//W3C//DTD SVG 1.1//EN"
 "http://www.w3.org/Graphics/SVG/1.1/DTD/svg11.dtd">
<!-- Generated by graphviz version 2.38.0 (20140413.2041)
 -->
<!-- Title: pdal::Geometry::operator= Pages: 1 -->
<svg width="475pt" height="47pt"
 viewBox="0.00 0.00 475.00 47.00" xmlns="http://www.w3.org/2000/svg" xmlns:xlink="http://www.w3.org/1999/xlink">
<g id="graph0" class="graph" transform="scale(1 1) rotate(0) translate(4 43)">
<title>pdal::Geometry::operator=</title>
<polygon fill="white" stroke="none" points="-4,4 -4,-43 471,-43 471,4 -4,4"/>
<!-- Node1 -->
<g id="node1" class="node"><title>Node1</title>
<polygon fill="#bfbfbf" stroke="black" points="0,-19.5 0,-38.5 131,-38.5 131,-19.5 0,-19.5"/>
<text text-anchor="middle" x="65.5" y="-26.5" font-family="Helvetica,sans-Serif" font-size="10.00">pdal::Geometry::operator=</text>
</g>
<!-- Node2 -->
<g id="node2" class="node"><title>Node2</title>
<g id="a_node2"><a xlink:href="classpdal_1_1geos_1_1ErrorHandler.html#a54bdaa70ba8baee1c8ad8f9f47572c8d" target="_top" xlink:title="pdal::geos::ErrorHandler::ctx">
<polygon fill="white" stroke="black" points="325,-19.5 325,-38.5 467,-38.5 467,-19.5 325,-19.5"/>
<text text-anchor="middle" x="396" y="-26.5" font-family="Helvetica,sans-Serif" font-size="10.00">pdal::geos::ErrorHandler::ctx</text>
</a>
</g>
</g>
<!-- Node1&#45;&gt;Node2 -->
<g id="edge1" class="edge"><title>Node1&#45;&gt;Node2</title>
<path fill="none" stroke="midnightblue" d="M131.009,-29C183.604,-29 258.159,-29 314.631,-29"/>
<polygon fill="midnightblue" stroke="midnightblue" points="314.956,-32.5001 324.956,-29 314.956,-25.5001 314.956,-32.5001"/>
</g>
<!-- Node3 -->
<g id="node3" class="node"><title>Node3</title>
<g id="a_node3"><a xlink:href="classpdal_1_1Geometry.html#a5340a42c65209674135a41008d0c305a" target="_top" xlink:title="pdal::Geometry::prepare">
<polygon fill="white" stroke="black" points="167,-0.5 167,-19.5 289,-19.5 289,-0.5 167,-0.5"/>
<text text-anchor="middle" x="228" y="-7.5" font-family="Helvetica,sans-Serif" font-size="10.00">pdal::Geometry::prepare</text>
</a>
</g>
</g>
<!-- Node1&#45;&gt;Node3 -->
<g id="edge2" class="edge"><title>Node1&#45;&gt;Node3</title>
<path fill="none" stroke="midnightblue" d="M131.319,-21.3267C139.669,-20.3383 148.251,-19.3224 156.684,-18.324"/>
<polygon fill="midnightblue" stroke="midnightblue" points="157.352,-21.7695 166.871,-17.1181 156.529,-14.818 157.352,-21.7695"/>
</g>
<!-- Node3&#45;&gt;Node2 -->
<g id="edge3" class="edge"><title>Node3&#45;&gt;Node2</title>
<path fill="none" stroke="midnightblue" d="M289.399,-16.9132C297.661,-17.8588 306.247,-18.8415 314.793,-19.8197"/>
<polygon fill="midnightblue" stroke="midnightblue" points="314.452,-23.3034 324.785,-20.9634 315.248,-16.3488 314.452,-23.3034"/>
</g>
</g>
</svg>
