<?xml version="1.0" encoding="UTF-8" standalone="no"?>
<!DOCTYPE svg PUBLIC "-//W3C//DTD SVG 1.1//EN"
 "http://www.w3.org/Graphics/SVG/1.1/DTD/svg11.dtd">
<!-- Generated by graphviz version 2.38.0 (20140413.2041)
 -->
<!-- Title: pdal::BasePointTable::privateMetadata Pages: 1 -->
<svg width="456pt" height="116pt"
 viewBox="0.00 0.00 456.00 115.50" xmlns="http://www.w3.org/2000/svg" xmlns:xlink="http://www.w3.org/1999/xlink">
<g id="graph0" class="graph" transform="scale(1 1) rotate(0) translate(4 111.5)">
<title>pdal::BasePointTable::privateMetadata</title>
<polygon fill="white" stroke="none" points="-4,4 -4,-111.5 452,-111.5 452,4 -4,4"/>
<!-- Node1 -->
<g id="node1" class="node"><title>Node1</title>
<polygon fill="#bfbfbf" stroke="black" points="0,-33 0,-63 110,-63 110,-33 0,-33"/>
<text text-anchor="start" x="8" y="-51" font-family="Helvetica,sans-Serif" font-size="10.00">pdal::BasePointTable</text>
<text text-anchor="middle" x="55" y="-40" font-family="Helvetica,sans-Serif" font-size="10.00">::privateMetadata</text>
</g>
<!-- Node2 -->
<g id="node2" class="node"><title>Node2</title>
<g id="a_node2"><a xlink:href="classpdal_1_1LasReader.html#a998510dc0b7d1b59387a5c2686c27f46" target="_top" xlink:title="pdal::LasReader::initialize\lLocal">
<polygon fill="white" stroke="black" points="150,-77 150,-107 279,-107 279,-77 150,-77"/>
<text text-anchor="start" x="158" y="-95" font-family="Helvetica,sans-Serif" font-size="10.00">pdal::LasReader::initialize</text>
<text text-anchor="middle" x="214.5" y="-84" font-family="Helvetica,sans-Serif" font-size="10.00">Local</text>
</a>
</g>
</g>
<!-- Node1&#45;&gt;Node2 -->
<g id="edge1" class="edge"><title>Node1&#45;&gt;Node2</title>
<path fill="none" stroke="midnightblue" d="M119.758,-65.8118C133.014,-69.515 146.858,-73.3827 159.713,-76.9738"/>
<polygon fill="midnightblue" stroke="midnightblue" points="120.335,-62.339 109.762,-63.0192 118.452,-69.0809 120.335,-62.339"/>
</g>
<!-- Node4 -->
<g id="node4" class="node"><title>Node4</title>
<g id="a_node4"><a xlink:href="classpdal_1_1LasWriter.html#a2e5b4f04008d3784799d9e4ad029352a" target="_top" xlink:title="pdal::LasWriter::readyTable">
<polygon fill="white" stroke="black" points="146,-38.5 146,-57.5 283,-57.5 283,-38.5 146,-38.5"/>
<text text-anchor="middle" x="214.5" y="-45.5" font-family="Helvetica,sans-Serif" font-size="10.00">pdal::LasWriter::readyTable</text>
</a>
</g>
</g>
<!-- Node1&#45;&gt;Node4 -->
<g id="edge3" class="edge"><title>Node1&#45;&gt;Node4</title>
<path fill="none" stroke="midnightblue" d="M120.324,-48C128.736,-48 137.375,-48 145.84,-48"/>
<polygon fill="midnightblue" stroke="midnightblue" points="120.203,-44.5001 110.203,-48 120.203,-51.5001 120.203,-44.5001"/>
</g>
<!-- Node5 -->
<g id="node5" class="node"><title>Node5</title>
<g id="a_node5"><a xlink:href="LasWriterTest_8cpp.html#ace6753f5368c81d6c14dcd1043f31e34" target="_top" xlink:title="TEST">
<polygon fill="white" stroke="black" points="193.5,-0.5 193.5,-19.5 235.5,-19.5 235.5,-0.5 193.5,-0.5"/>
<text text-anchor="middle" x="214.5" y="-7.5" font-family="Helvetica,sans-Serif" font-size="10.00">TEST</text>
</a>
</g>
</g>
<!-- Node1&#45;&gt;Node5 -->
<g id="edge4" class="edge"><title>Node1&#45;&gt;Node5</title>
<path fill="none" stroke="midnightblue" d="M120.1,-32.5346C146.277,-26.219 174.692,-19.3633 193.22,-14.8931"/>
<polygon fill="midnightblue" stroke="midnightblue" points="119.103,-29.1747 110.203,-34.9226 120.745,-35.9795 119.103,-29.1747"/>
</g>
<!-- Node3 -->
<g id="node3" class="node"><title>Node3</title>
<g id="a_node3"><a xlink:href="classpdal_1_1NitfReader.html#aff135fa0b6888020a5de9eb33e2d7fea" target="_top" xlink:title="pdal::NitfReader::initialize">
<polygon fill="white" stroke="black" points="319,-82.5 319,-101.5 448,-101.5 448,-82.5 319,-82.5"/>
<text text-anchor="middle" x="383.5" y="-89.5" font-family="Helvetica,sans-Serif" font-size="10.00">pdal::NitfReader::initialize</text>
</a>
</g>
</g>
<!-- Node2&#45;&gt;Node3 -->
<g id="edge2" class="edge"><title>Node2&#45;&gt;Node3</title>
<path fill="none" stroke="midnightblue" d="M289.277,-92C299.117,-92 309.14,-92 318.788,-92"/>
<polygon fill="midnightblue" stroke="midnightblue" points="289.112,-88.5001 279.112,-92 289.112,-95.5001 289.112,-88.5001"/>
</g>
</g>
</svg>
