<?xml version="1.0" encoding="UTF-8" standalone="no"?>
<!DOCTYPE svg PUBLIC "-//W3C//DTD SVG 1.1//EN"
 "http://www.w3.org/Graphics/SVG/1.1/DTD/svg11.dtd">
<!-- Generated by graphviz version 2.38.0 (20140413.2041)
 -->
<!-- Title: pdal::Geometry::wkt Pages: 1 -->
<svg width="408pt" height="218pt"
 viewBox="0.00 0.00 408.00 218.00" xmlns="http://www.w3.org/2000/svg" xmlns:xlink="http://www.w3.org/1999/xlink">
<g id="graph0" class="graph" transform="scale(1 1) rotate(0) translate(4 214)">
<title>pdal::Geometry::wkt</title>
<polygon fill="white" stroke="none" points="-4,4 -4,-214 404,-214 404,4 -4,4"/>
<!-- Node1 -->
<g id="node1" class="node"><title>Node1</title>
<polygon fill="#bfbfbf" stroke="black" points="0,-95.5 0,-114.5 105,-114.5 105,-95.5 0,-95.5"/>
<text text-anchor="middle" x="52.5" y="-102.5" font-family="Helvetica,sans-Serif" font-size="10.00">pdal::Geometry::wkt</text>
</g>
<!-- Node2 -->
<g id="node2" class="node"><title>Node2</title>
<g id="a_node2"><a xlink:href="classpdal_1_1Geometry.html#a4fe6b400d8c8969aedfca8bcd2983220" target="_top" xlink:title="pdal::Geometry::json">
<polygon fill="white" stroke="black" points="153,-190.5 153,-209.5 260,-209.5 260,-190.5 153,-190.5"/>
<text text-anchor="middle" x="206.5" y="-197.5" font-family="Helvetica,sans-Serif" font-size="10.00">pdal::Geometry::json</text>
</a>
</g>
</g>
<!-- Node1&#45;&gt;Node2 -->
<g id="edge1" class="edge"><title>Node1&#45;&gt;Node2</title>
<path fill="none" stroke="midnightblue" d="M69.0566,-122.299C85.402,-139.492 112.636,-165.474 141,-181 147.963,-184.811 155.778,-187.939 163.501,-190.476"/>
<polygon fill="midnightblue" stroke="midnightblue" points="71.3205,-119.594 61.95,-114.65 66.1921,-124.358 71.3205,-119.594"/>
</g>
<!-- Node5 -->
<g id="node5" class="node"><title>Node5</title>
<g id="a_node5"><a xlink:href="classpdal_1_1Geometry.html#abc01f415332537f4083e78611178e4e9" target="_top" xlink:title="pdal::Geometry::operator\&lt;">
<polygon fill="white" stroke="black" points="141,-152.5 141,-171.5 272,-171.5 272,-152.5 141,-152.5"/>
<text text-anchor="middle" x="206.5" y="-159.5" font-family="Helvetica,sans-Serif" font-size="10.00">pdal::Geometry::operator&lt;</text>
</a>
</g>
</g>
<!-- Node1&#45;&gt;Node5 -->
<g id="edge4" class="edge"><title>Node1&#45;&gt;Node5</title>
<path fill="none" stroke="midnightblue" d="M83.0093,-118.897C99.8032,-126.532 121.349,-135.869 141,-143 150.328,-146.385 160.572,-149.616 170.096,-152.423"/>
<polygon fill="midnightblue" stroke="midnightblue" points="84.2686,-115.624 73.7207,-114.629 81.3456,-121.985 84.2686,-115.624"/>
</g>
<!-- Node6 -->
<g id="node6" class="node"><title>Node6</title>
<g id="a_node6"><a xlink:href="namespacepdal.html#a314249cca6174740eb3a3d10ca4464ce" target="_top" xlink:title="pdal::operator\&lt;\&lt;">
<polygon fill="white" stroke="black" points="162.5,-114.5 162.5,-133.5 250.5,-133.5 250.5,-114.5 162.5,-114.5"/>
<text text-anchor="middle" x="206.5" y="-121.5" font-family="Helvetica,sans-Serif" font-size="10.00">pdal::operator&lt;&lt;</text>
</a>
</g>
</g>
<!-- Node1&#45;&gt;Node6 -->
<g id="edge5" class="edge"><title>Node1&#45;&gt;Node6</title>
<path fill="none" stroke="midnightblue" d="M115.577,-112.76C131.312,-114.726 147.872,-116.796 162.432,-118.616"/>
<polygon fill="midnightblue" stroke="midnightblue" points="115.742,-109.253 105.385,-111.486 114.873,-116.199 115.742,-109.253"/>
</g>
<!-- Node7 -->
<g id="node7" class="node"><title>Node7</title>
<g id="a_node7"><a xlink:href="namespacepdal.html#a85a81def9c51e19a619e4f76c47eeff5" target="_top" xlink:title="pdal::TEST">
<polygon fill="white" stroke="black" points="173.5,-76.5 173.5,-95.5 239.5,-95.5 239.5,-76.5 173.5,-76.5"/>
<text text-anchor="middle" x="206.5" y="-83.5" font-family="Helvetica,sans-Serif" font-size="10.00">pdal::TEST</text>
</a>
</g>
</g>
<!-- Node1&#45;&gt;Node7 -->
<g id="edge6" class="edge"><title>Node1&#45;&gt;Node7</title>
<path fill="none" stroke="midnightblue" d="M115.325,-97.2719C135.218,-94.7853 156.454,-92.1307 173.318,-90.0227"/>
<polygon fill="midnightblue" stroke="midnightblue" points="114.873,-93.801 105.385,-98.5144 115.742,-100.747 114.873,-93.801"/>
</g>
<!-- Node8 -->
<g id="node8" class="node"><title>Node8</title>
<g id="a_node8"><a xlink:href="classpdal_1_1Polygon.html#af7abd73f687dca5b798513a3328d8613" target="_top" xlink:title="pdal::Polygon::transform">
<polygon fill="white" stroke="black" points="145,-38.5 145,-57.5 268,-57.5 268,-38.5 145,-38.5"/>
<text text-anchor="middle" x="206.5" y="-45.5" font-family="Helvetica,sans-Serif" font-size="10.00">pdal::Polygon::transform</text>
</a>
</g>
</g>
<!-- Node1&#45;&gt;Node8 -->
<g id="edge7" class="edge"><title>Node1&#45;&gt;Node8</title>
<path fill="none" stroke="midnightblue" d="M83.0093,-91.1025C99.8032,-83.4682 121.349,-74.1308 141,-67 150.328,-63.6154 160.572,-60.3837 170.096,-57.5765"/>
<polygon fill="midnightblue" stroke="midnightblue" points="81.3456,-88.0151 73.7207,-95.3711 84.2686,-94.3757 81.3456,-88.0151"/>
</g>
<!-- Node10 -->
<g id="node10" class="node"><title>Node10</title>
<g id="a_node10"><a xlink:href="classpdal_1_1Geometry.html#aafde44fd43948db0d322016a9a424127" target="_top" xlink:title="pdal::Geometry::transform">
<polygon fill="white" stroke="black" points="141,-0.5 141,-19.5 272,-19.5 272,-0.5 141,-0.5"/>
<text text-anchor="middle" x="206.5" y="-7.5" font-family="Helvetica,sans-Serif" font-size="10.00">pdal::Geometry::transform</text>
</a>
</g>
</g>
<!-- Node1&#45;&gt;Node10 -->
<g id="edge10" class="edge"><title>Node1&#45;&gt;Node10</title>
<path fill="none" stroke="midnightblue" d="M69.0566,-87.7006C85.402,-70.508 112.636,-44.5257 141,-29 147.963,-25.1885 155.778,-22.0613 163.501,-19.5238"/>
<polygon fill="midnightblue" stroke="midnightblue" points="66.1921,-85.6416 61.95,-95.3501 71.3205,-90.406 66.1921,-85.6416"/>
</g>
<!-- Node3 -->
<g id="node3" class="node"><title>Node3</title>
<g id="a_node3"><a xlink:href="classpdal_1_1StatsFilter.html#a374631f225f1fba0918b159c1353142e" target="_top" xlink:title="pdal::StatsFilter::\lextractMetadata">
<polygon fill="white" stroke="black" points="308,-109 308,-139 400,-139 400,-109 308,-109"/>
<text text-anchor="start" x="316" y="-127" font-family="Helvetica,sans-Serif" font-size="10.00">pdal::StatsFilter::</text>
<text text-anchor="middle" x="354" y="-116" font-family="Helvetica,sans-Serif" font-size="10.00">extractMetadata</text>
</a>
</g>
</g>
<!-- Node2&#45;&gt;Node3 -->
<g id="edge2" class="edge"><title>Node2&#45;&gt;Node3</title>
<path fill="none" stroke="midnightblue" d="M257.257,-187.146C262.325,-185.305 267.324,-183.258 272,-181 295.382,-169.71 319.362,-151.907 335.099,-139.203"/>
<polygon fill="midnightblue" stroke="midnightblue" points="255.853,-183.926 247.493,-190.434 258.087,-190.56 255.853,-183.926"/>
</g>
<!-- Node4 -->
<g id="node4" class="node"><title>Node4</title>
<g id="a_node4"><a xlink:href="namespacepdal.html#a1109917a065de835f668b7ef76d66d07" target="_top" xlink:title="pdal::TEST">
<polygon fill="white" stroke="black" points="321,-190.5 321,-209.5 387,-209.5 387,-190.5 321,-190.5"/>
<text text-anchor="middle" x="354" y="-197.5" font-family="Helvetica,sans-Serif" font-size="10.00">pdal::TEST</text>
</a>
</g>
</g>
<!-- Node2&#45;&gt;Node4 -->
<g id="edge3" class="edge"><title>Node2&#45;&gt;Node4</title>
<path fill="none" stroke="midnightblue" d="M270.199,-200C287.679,-200 305.949,-200 320.867,-200"/>
<polygon fill="midnightblue" stroke="midnightblue" points="270.029,-196.5 260.029,-200 270.029,-203.5 270.029,-196.5"/>
</g>
<!-- Node8&#45;&gt;Node3 -->
<g id="edge8" class="edge"><title>Node8&#45;&gt;Node3</title>
<path fill="none" stroke="midnightblue" d="M257.257,-60.8539C262.325,-62.695 267.324,-64.742 272,-67 295.382,-78.2901 319.362,-96.0926 335.099,-108.797"/>
<polygon fill="midnightblue" stroke="midnightblue" points="258.087,-57.4402 247.493,-57.5658 255.853,-64.0742 258.087,-57.4402"/>
</g>
<!-- Node9 -->
<g id="node9" class="node"><title>Node9</title>
<g id="a_node9"><a xlink:href="SpatialReferenceTest_8cpp.html#a6e052a6067c12c912d392cfc168b0046" target="_top" xlink:title="TEST">
<polygon fill="white" stroke="black" points="333,-38.5 333,-57.5 375,-57.5 375,-38.5 333,-38.5"/>
<text text-anchor="middle" x="354" y="-45.5" font-family="Helvetica,sans-Serif" font-size="10.00">TEST</text>
</a>
</g>
</g>
<!-- Node8&#45;&gt;Node9 -->
<g id="edge9" class="edge"><title>Node8&#45;&gt;Node9</title>
<path fill="none" stroke="midnightblue" d="M278.43,-48C298.382,-48 318.517,-48 332.826,-48"/>
<polygon fill="midnightblue" stroke="midnightblue" points="278.362,-44.5001 268.362,-48 278.362,-51.5001 278.362,-44.5001"/>
</g>
</g>
</svg>
