<?xml version="1.0" encoding="UTF-8" standalone="no"?>
<!DOCTYPE svg PUBLIC "-//W3C//DTD SVG 1.1//EN"
 "http://www.w3.org/Graphics/SVG/1.1/DTD/svg11.dtd">
<!-- Generated by graphviz version 2.38.0 (20140413.2041)
 -->
<!-- Title: pdal::XMLSchema::XMLSchema Pages: 1 -->
<svg width="1081pt" height="173pt"
 viewBox="0.00 0.00 1081.00 173.00" xmlns="http://www.w3.org/2000/svg" xmlns:xlink="http://www.w3.org/1999/xlink">
<g id="graph0" class="graph" transform="scale(1 1) rotate(0) translate(4 169)">
<title>pdal::XMLSchema::XMLSchema</title>
<polygon fill="white" stroke="none" points="-4,4 -4,-169 1077,-169 1077,4 -4,4"/>
<!-- Node1 -->
<g id="node1" class="node"><title>Node1</title>
<polygon fill="#bfbfbf" stroke="black" points="0,-96 0,-115 159,-115 159,-96 0,-96"/>
<text text-anchor="middle" x="79.5" y="-103" font-family="Helvetica,sans-Serif" font-size="10.00">pdal::XMLSchema::XMLSchema</text>
</g>
<!-- Node2 -->
<g id="node2" class="node"><title>Node2</title>
<g id="a_node2"><a xlink:href="classpdal_1_1PointLayout.html#aa3902ee8869ff33139401a6900ae088c" target="_top" xlink:title="pdal::PointLayout::\ldimName">
<polygon fill="white" stroke="black" points="219,-134.5 219,-164.5 317,-164.5 317,-134.5 219,-134.5"/>
<text text-anchor="start" x="227" y="-152.5" font-family="Helvetica,sans-Serif" font-size="10.00">pdal::PointLayout::</text>
<text text-anchor="middle" x="268" y="-141.5" font-family="Helvetica,sans-Serif" font-size="10.00">dimName</text>
</a>
</g>
</g>
<!-- Node1&#45;&gt;Node2 -->
<g id="edge1" class="edge"><title>Node1&#45;&gt;Node2</title>
<path fill="none" stroke="midnightblue" d="M120.968,-115.047C146.651,-121.107 180.299,-129.045 208.822,-135.774"/>
<polygon fill="midnightblue" stroke="midnightblue" points="208.139,-139.209 218.676,-138.099 209.747,-132.396 208.139,-139.209"/>
</g>
<!-- Node4 -->
<g id="node4" class="node"><title>Node4</title>
<g id="a_node4"><a xlink:href="classpdal_1_1XMLSchema.html#ab42848a53a4f241a415eff84a96285d2" target="_top" xlink:title="pdal::XMLSchema::dimTypes">
<polygon fill="white" stroke="black" points="195,-96 195,-115 341,-115 341,-96 195,-96"/>
<text text-anchor="middle" x="268" y="-103" font-family="Helvetica,sans-Serif" font-size="10.00">pdal::XMLSchema::dimTypes</text>
</a>
</g>
</g>
<!-- Node1&#45;&gt;Node4 -->
<g id="edge3" class="edge"><title>Node1&#45;&gt;Node4</title>
<path fill="none" stroke="midnightblue" d="M159.052,-105.5C167.474,-105.5 176.06,-105.5 184.526,-105.5"/>
<polygon fill="midnightblue" stroke="midnightblue" points="184.774,-109 194.774,-105.5 184.774,-102 184.774,-109"/>
</g>
<!-- Node5 -->
<g id="node5" class="node"><title>Node5</title>
<g id="a_node5"><a xlink:href="classpdal_1_1PointLayout.html#ade9058917c1e1580b9048f0f81ee8d5e" target="_top" xlink:title="pdal::PointLayout::\ldimTypes">
<polygon fill="white" stroke="black" points="219,-46.5 219,-76.5 317,-76.5 317,-46.5 219,-46.5"/>
<text text-anchor="start" x="227" y="-64.5" font-family="Helvetica,sans-Serif" font-size="10.00">pdal::PointLayout::</text>
<text text-anchor="middle" x="268" y="-53.5" font-family="Helvetica,sans-Serif" font-size="10.00">dimTypes</text>
</a>
</g>
</g>
<!-- Node1&#45;&gt;Node5 -->
<g id="edge4" class="edge"><title>Node1&#45;&gt;Node5</title>
<path fill="none" stroke="midnightblue" d="M120.968,-95.9527C146.651,-89.8934 180.299,-81.955 208.822,-75.2256"/>
<polygon fill="midnightblue" stroke="midnightblue" points="209.747,-78.6036 218.676,-72.9008 208.139,-71.7906 209.747,-78.6036"/>
</g>
<!-- Node3 -->
<g id="node3" class="node"><title>Node3</title>
<g id="a_node3"><a xlink:href="namespacepdal_1_1Dimension.html#af3176b0b7e6b4be000317846cf7c2718" target="_top" xlink:title="pdal::Dimension::name">
<polygon fill="white" stroke="black" points="378,-140 378,-159 495,-159 495,-140 378,-140"/>
<text text-anchor="middle" x="436.5" y="-147" font-family="Helvetica,sans-Serif" font-size="10.00">pdal::Dimension::name</text>
</a>
</g>
</g>
<!-- Node2&#45;&gt;Node3 -->
<g id="edge2" class="edge"><title>Node2&#45;&gt;Node3</title>
<path fill="none" stroke="midnightblue" d="M317.159,-149.5C332.827,-149.5 350.525,-149.5 367.369,-149.5"/>
<polygon fill="midnightblue" stroke="midnightblue" points="367.721,-153 377.721,-149.5 367.721,-146 367.721,-153"/>
</g>
<!-- Node6 -->
<g id="node6" class="node"><title>Node6</title>
<g id="a_node6"><a xlink:href="classpdal_1_1PointLayout.html#afd6b92bf6e8fc83993db132b1ed980e2" target="_top" xlink:title="pdal::PointLayout::dims">
<polygon fill="white" stroke="black" points="377,-74 377,-93 496,-93 496,-74 377,-74"/>
<text text-anchor="middle" x="436.5" y="-81" font-family="Helvetica,sans-Serif" font-size="10.00">pdal::PointLayout::dims</text>
</a>
</g>
</g>
<!-- Node5&#45;&gt;Node6 -->
<g id="edge5" class="edge"><title>Node5&#45;&gt;Node6</title>
<path fill="none" stroke="midnightblue" d="M317.159,-67.8633C332.589,-69.9021 349.987,-72.201 366.599,-74.396"/>
<polygon fill="midnightblue" stroke="midnightblue" points="366.444,-77.9059 376.817,-75.746 367.361,-70.9662 366.444,-77.9059"/>
</g>
<!-- Node7 -->
<g id="node7" class="node"><title>Node7</title>
<g id="a_node7"><a xlink:href="classpdal_1_1PointLayout.html#adaef1dfccc620aa7f7f2a57ea2c19d6d" target="_top" xlink:title="pdal::PointLayout::\ldimType">
<polygon fill="white" stroke="black" points="387.5,-24.5 387.5,-54.5 485.5,-54.5 485.5,-24.5 387.5,-24.5"/>
<text text-anchor="start" x="395.5" y="-42.5" font-family="Helvetica,sans-Serif" font-size="10.00">pdal::PointLayout::</text>
<text text-anchor="middle" x="436.5" y="-31.5" font-family="Helvetica,sans-Serif" font-size="10.00">dimType</text>
</a>
</g>
</g>
<!-- Node5&#45;&gt;Node7 -->
<g id="edge6" class="edge"><title>Node5&#45;&gt;Node7</title>
<path fill="none" stroke="midnightblue" d="M317.159,-55.1367C335.97,-52.6512 357.706,-49.7791 377.377,-47.1799"/>
<polygon fill="midnightblue" stroke="midnightblue" points="377.994,-50.6289 387.45,-45.849 377.077,-43.6892 377.994,-50.6289"/>
</g>
<!-- Node8 -->
<g id="node8" class="node"><title>Node8</title>
<g id="a_node8"><a xlink:href="classpdal_1_1PointLayout.html#abcfdf0f917e71d1bd8a96bc64ff1e8a2" target="_top" xlink:title="pdal::PointLayout::\ldimDetail">
<polygon fill="white" stroke="black" points="542.5,-49.5 542.5,-79.5 640.5,-79.5 640.5,-49.5 542.5,-49.5"/>
<text text-anchor="start" x="550.5" y="-67.5" font-family="Helvetica,sans-Serif" font-size="10.00">pdal::PointLayout::</text>
<text text-anchor="middle" x="591.5" y="-56.5" font-family="Helvetica,sans-Serif" font-size="10.00">dimDetail</text>
</a>
</g>
</g>
<!-- Node7&#45;&gt;Node8 -->
<g id="edge7" class="edge"><title>Node7&#45;&gt;Node8</title>
<path fill="none" stroke="midnightblue" d="M485.91,-47.4102C500.704,-49.8275 517.126,-52.5108 532.489,-55.0211"/>
<polygon fill="midnightblue" stroke="midnightblue" points="531.971,-58.4828 542.405,-56.6413 533.1,-51.5744 531.971,-58.4828"/>
</g>
<!-- Node12 -->
<g id="node12" class="node"><title>Node12</title>
<g id="a_node12"><a xlink:href="classpdal_1_1Dimension_1_1Detail.html#adf5961976b7fce3d90a0dddd50519a7c" target="_top" xlink:title="pdal::Dimension::Detail\l::type">
<polygon fill="white" stroke="black" points="532,-0.5 532,-30.5 651,-30.5 651,-0.5 532,-0.5"/>
<text text-anchor="start" x="540" y="-18.5" font-family="Helvetica,sans-Serif" font-size="10.00">pdal::Dimension::Detail</text>
<text text-anchor="middle" x="591.5" y="-7.5" font-family="Helvetica,sans-Serif" font-size="10.00">::type</text>
</a>
</g>
</g>
<!-- Node7&#45;&gt;Node12 -->
<g id="edge11" class="edge"><title>Node7&#45;&gt;Node12</title>
<path fill="none" stroke="midnightblue" d="M485.91,-31.9062C497.332,-30.1145 509.725,-28.1706 521.851,-26.2684"/>
<polygon fill="midnightblue" stroke="midnightblue" points="522.611,-29.6921 531.948,-24.6847 521.526,-22.7767 522.611,-29.6921"/>
</g>
<!-- Node9 -->
<g id="node9" class="node"><title>Node9</title>
<g id="a_node9"><a xlink:href="namespacepdal_1_1Utils.html#a59253304d0f929e3a3ea00f09636002f" target="_top" xlink:title="pdal::Utils::toNative">
<polygon fill="white" stroke="black" points="687,-55 687,-74 791,-74 791,-55 687,-55"/>
<text text-anchor="middle" x="739" y="-62" font-family="Helvetica,sans-Serif" font-size="10.00">pdal::Utils::toNative</text>
</a>
</g>
</g>
<!-- Node8&#45;&gt;Node9 -->
<g id="edge8" class="edge"><title>Node8&#45;&gt;Node9</title>
<path fill="none" stroke="midnightblue" d="M640.545,-64.5C652.121,-64.5 664.643,-64.5 676.732,-64.5"/>
<polygon fill="midnightblue" stroke="midnightblue" points="676.754,-68.0001 686.754,-64.5 676.754,-61.0001 676.754,-68.0001"/>
</g>
<!-- Node10 -->
<g id="node10" class="node"><title>Node10</title>
<g id="a_node10"><a xlink:href="namespacepdal_1_1Dimension.html#a880d689fed54aa3ded6f88c9e058c5d2" target="_top" xlink:title="pdal::Dimension::type">
<polygon fill="white" stroke="black" points="827,-55 827,-74 939,-74 939,-55 827,-55"/>
<text text-anchor="middle" x="883" y="-62" font-family="Helvetica,sans-Serif" font-size="10.00">pdal::Dimension::type</text>
</a>
</g>
</g>
<!-- Node9&#45;&gt;Node10 -->
<g id="edge9" class="edge"><title>Node9&#45;&gt;Node10</title>
<path fill="none" stroke="midnightblue" d="M791.265,-64.5C799.602,-64.5 808.332,-64.5 816.946,-64.5"/>
<polygon fill="midnightblue" stroke="midnightblue" points="816.972,-68.0001 826.972,-64.5 816.972,-61.0001 816.972,-68.0001"/>
</g>
<!-- Node11 -->
<g id="node11" class="node"><title>Node11</title>
<g id="a_node11"><a xlink:href="namespacepdal_1_1Utils.html#a5268937cf695835e55392f752dc02cb2" target="_top" xlink:title="pdal::Utils::tolower">
<polygon fill="white" stroke="black" points="975,-55 975,-74 1073,-74 1073,-55 975,-55"/>
<text text-anchor="middle" x="1024" y="-62" font-family="Helvetica,sans-Serif" font-size="10.00">pdal::Utils::tolower</text>
</a>
</g>
</g>
<!-- Node10&#45;&gt;Node11 -->
<g id="edge10" class="edge"><title>Node10&#45;&gt;Node11</title>
<path fill="none" stroke="midnightblue" d="M939.336,-64.5C947.625,-64.5 956.194,-64.5 964.546,-64.5"/>
<polygon fill="midnightblue" stroke="midnightblue" points="964.59,-68.0001 974.59,-64.5 964.59,-61.0001 964.59,-68.0001"/>
</g>
</g>
</svg>
