<?xml version="1.0" encoding="UTF-8" standalone="no"?>
<!DOCTYPE svg PUBLIC "-//W3C//DTD SVG 1.1//EN"
 "http://www.w3.org/Graphics/SVG/1.1/DTD/svg11.dtd">
<!-- Generated by graphviz version 2.38.0 (20140413.2041)
 -->
<!-- Title: pdal::GeoWaveReader::initialize Pages: 1 -->
<svg width="397pt" height="61pt"
 viewBox="0.00 0.00 397.00 61.00" xmlns="http://www.w3.org/2000/svg" xmlns:xlink="http://www.w3.org/1999/xlink">
<g id="graph0" class="graph" transform="scale(1 1) rotate(0) translate(4 57)">
<title>pdal::GeoWaveReader::initialize</title>
<polygon fill="white" stroke="none" points="-4,4 -4,-57 393,-57 393,4 -4,4"/>
<!-- Node1 -->
<g id="node1" class="node"><title>Node1</title>
<polygon fill="#bfbfbf" stroke="black" points="0,-0.5 0,-30.5 116,-30.5 116,-0.5 0,-0.5"/>
<text text-anchor="start" x="8" y="-18.5" font-family="Helvetica,sans-Serif" font-size="10.00">pdal::GeoWaveReader</text>
<text text-anchor="middle" x="58" y="-7.5" font-family="Helvetica,sans-Serif" font-size="10.00">::initialize</text>
</g>
<!-- Node2 -->
<g id="node2" class="node"><title>Node2</title>
<g id="a_node2"><a xlink:href="classpdal_1_1GeoWaveReader.html#acf4b24b5169383d05fe519a8f0c6fe9e" target="_top" xlink:title="pdal::GeoWaveReader\l::createJvm">
<polygon fill="white" stroke="black" points="152,-22.5 152,-52.5 268,-52.5 268,-22.5 152,-22.5"/>
<text text-anchor="start" x="160" y="-40.5" font-family="Helvetica,sans-Serif" font-size="10.00">pdal::GeoWaveReader</text>
<text text-anchor="middle" x="210" y="-29.5" font-family="Helvetica,sans-Serif" font-size="10.00">::createJvm</text>
</a>
</g>
</g>
<!-- Node1&#45;&gt;Node2 -->
<g id="edge1" class="edge"><title>Node1&#45;&gt;Node2</title>
<path fill="none" stroke="midnightblue" d="M116.136,-23.88C124.468,-25.1019 133.111,-26.3696 141.622,-27.6179"/>
<polygon fill="midnightblue" stroke="midnightblue" points="141.123,-31.0821 151.525,-29.0704 142.139,-24.1562 141.123,-31.0821"/>
</g>
<!-- Node3 -->
<g id="node3" class="node"><title>Node3</title>
<g id="a_node3"><a xlink:href="classpdal_1_1Stage.html#ae8c29817e14d7cda53fdcbb23102d872" target="_top" xlink:title="pdal::Stage::log">
<polygon fill="white" stroke="black" points="304,-6 304,-25 389,-25 389,-6 304,-6"/>
<text text-anchor="middle" x="346.5" y="-13" font-family="Helvetica,sans-Serif" font-size="10.00">pdal::Stage::log</text>
</a>
</g>
</g>
<!-- Node1&#45;&gt;Node3 -->
<g id="edge3" class="edge"><title>Node1&#45;&gt;Node3</title>
<path fill="none" stroke="midnightblue" d="M116.049,-14.0794C127.93,-13.8379 140.373,-13.625 152,-13.5 203.553,-12.9457 216.449,-12.8349 268,-13.5 276.228,-13.6062 284.947,-13.7757 293.452,-13.9723"/>
<polygon fill="midnightblue" stroke="midnightblue" points="293.591,-17.4766 303.674,-14.223 293.763,-10.4787 293.591,-17.4766"/>
</g>
<!-- Node2&#45;&gt;Node3 -->
<g id="edge2" class="edge"><title>Node2&#45;&gt;Node3</title>
<path fill="none" stroke="midnightblue" d="M268.04,-28.17C276.592,-26.7713 285.368,-25.3356 293.8,-23.9564"/>
<polygon fill="midnightblue" stroke="midnightblue" points="294.572,-27.3768 303.876,-22.3084 293.442,-20.4686 294.572,-27.3768"/>
</g>
</g>
</svg>
