<?xml version="1.0" encoding="UTF-8" standalone="no"?>
<!DOCTYPE svg PUBLIC "-//W3C//DTD SVG 1.1//EN"
 "http://www.w3.org/Graphics/SVG/1.1/DTD/svg11.dtd">
<!-- Generated by graphviz version 2.38.0 (20140413.2041)
 -->
<!-- Title: pdal::Kernel::doStartup Pages: 1 -->
<svg width="432pt" height="28pt"
 viewBox="0.00 0.00 432.00 28.00" xmlns="http://www.w3.org/2000/svg" xmlns:xlink="http://www.w3.org/1999/xlink">
<g id="graph0" class="graph" transform="scale(1 1) rotate(0) translate(4 24)">
<title>pdal::Kernel::doStartup</title>
<polygon fill="white" stroke="none" points="-4,4 -4,-24 428,-24 428,4 -4,4"/>
<!-- Node1 -->
<g id="node1" class="node"><title>Node1</title>
<polygon fill="#bfbfbf" stroke="black" points="0,-0.5 0,-19.5 116,-19.5 116,-0.5 0,-0.5"/>
<text text-anchor="middle" x="58" y="-7.5" font-family="Helvetica,sans-Serif" font-size="10.00">pdal::Kernel::doStartup</text>
</g>
<!-- Node2 -->
<g id="node2" class="node"><title>Node2</title>
<g id="a_node2"><a xlink:href="classpdal_1_1Kernel.html#a063a87bdb5459f336c905ab0d2ce3b05" target="_top" xlink:title="pdal::Kernel::run">
<polygon fill="white" stroke="black" points="152,-0.5 152,-19.5 240,-19.5 240,-0.5 152,-0.5"/>
<text text-anchor="middle" x="196" y="-7.5" font-family="Helvetica,sans-Serif" font-size="10.00">pdal::Kernel::run</text>
</a>
</g>
</g>
<!-- Node1&#45;&gt;Node2 -->
<g id="edge1" class="edge"><title>Node1&#45;&gt;Node2</title>
<path fill="none" stroke="midnightblue" d="M126.4,-10C135.053,-10 143.719,-10 151.837,-10"/>
<polygon fill="midnightblue" stroke="midnightblue" points="126.282,-6.5001 116.282,-10 126.282,-13.5001 126.282,-6.5001"/>
</g>
<!-- Node3 -->
<g id="node3" class="node"><title>Node3</title>
<g id="a_node3"><a xlink:href="classApp.html#a2817579d633c3d379248cd45d035aba8" target="_top" xlink:title="App::execute">
<polygon fill="white" stroke="black" points="276,-0.5 276,-19.5 350,-19.5 350,-0.5 276,-0.5"/>
<text text-anchor="middle" x="313" y="-7.5" font-family="Helvetica,sans-Serif" font-size="10.00">App::execute</text>
</a>
</g>
</g>
<!-- Node2&#45;&gt;Node3 -->
<g id="edge2" class="edge"><title>Node2&#45;&gt;Node3</title>
<path fill="none" stroke="midnightblue" d="M250.198,-10C258.85,-10 267.633,-10 275.756,-10"/>
<polygon fill="midnightblue" stroke="midnightblue" points="250.149,-6.5001 240.149,-10 250.149,-13.5001 250.149,-6.5001"/>
</g>
<!-- Node4 -->
<g id="node4" class="node"><title>Node4</title>
<g id="a_node4"><a xlink:href="pdal_8cpp.html#a0ddf1224851353fc92bfbff6f499fa97" target="_top" xlink:title="main">
<polygon fill="white" stroke="black" points="386,-0.5 386,-19.5 424,-19.5 424,-0.5 386,-0.5"/>
<text text-anchor="middle" x="405" y="-7.5" font-family="Helvetica,sans-Serif" font-size="10.00">main</text>
</a>
</g>
</g>
<!-- Node3&#45;&gt;Node4 -->
<g id="edge3" class="edge"><title>Node3&#45;&gt;Node4</title>
<path fill="none" stroke="midnightblue" d="M360.326,-10C369.437,-10 378.476,-10 385.946,-10"/>
<polygon fill="midnightblue" stroke="midnightblue" points="360.088,-6.5001 350.088,-10 360.088,-13.5001 360.088,-6.5001"/>
</g>
</g>
</svg>
