<?xml version="1.0" encoding="UTF-8" standalone="no"?>
<!DOCTYPE svg PUBLIC "-//W3C//DTD SVG 1.1//EN"
 "http://www.w3.org/Graphics/SVG/1.1/DTD/svg11.dtd">
<!-- Generated by graphviz version 2.38.0 (20140413.2041)
 -->
<!-- Title: pdal::LasHeader::versionMinor Pages: 1 -->
<svg width="324pt" height="66pt"
 viewBox="0.00 0.00 324.00 66.00" xmlns="http://www.w3.org/2000/svg" xmlns:xlink="http://www.w3.org/1999/xlink">
<g id="graph0" class="graph" transform="scale(1 1) rotate(0) translate(4 62)">
<title>pdal::LasHeader::versionMinor</title>
<polygon fill="white" stroke="none" points="-4,4 -4,-62 320,-62 320,4 -4,4"/>
<!-- Node1 -->
<g id="node1" class="node"><title>Node1</title>
<polygon fill="#bfbfbf" stroke="black" points="0,-14 0,-44 125,-44 125,-14 0,-14"/>
<text text-anchor="start" x="8" y="-32" font-family="Helvetica,sans-Serif" font-size="10.00">pdal::LasHeader::version</text>
<text text-anchor="middle" x="62.5" y="-21" font-family="Helvetica,sans-Serif" font-size="10.00">Minor</text>
</g>
<!-- Node2 -->
<g id="node2" class="node"><title>Node2</title>
<g id="a_node2"><a xlink:href="LasReaderTest_8cpp.html#abb7afe92c00ae82352167ef5a47190e0" target="_top" xlink:title="TEST">
<polygon fill="white" stroke="black" points="178.5,-38.5 178.5,-57.5 220.5,-57.5 220.5,-38.5 178.5,-38.5"/>
<text text-anchor="middle" x="199.5" y="-45.5" font-family="Helvetica,sans-Serif" font-size="10.00">TEST</text>
</a>
</g>
</g>
<!-- Node1&#45;&gt;Node2 -->
<g id="edge1" class="edge"><title>Node1&#45;&gt;Node2</title>
<path fill="none" stroke="midnightblue" d="M134.996,-39.0624C150.92,-41.3036 166.547,-43.5029 178.314,-45.159"/>
<polygon fill="midnightblue" stroke="midnightblue" points="135.464,-35.5939 125.074,-37.666 134.489,-42.5256 135.464,-35.5939"/>
</g>
<!-- Node3 -->
<g id="node3" class="node"><title>Node3</title>
<g id="a_node3"><a xlink:href="LasReaderTest_8cpp.html#aa76b17cddb63cde84b93800acc213041" target="_top" xlink:title="test_a_format">
<polygon fill="white" stroke="black" points="161,-0.5 161,-19.5 238,-19.5 238,-0.5 161,-0.5"/>
<text text-anchor="middle" x="199.5" y="-7.5" font-family="Helvetica,sans-Serif" font-size="10.00">test_a_format</text>
</a>
</g>
</g>
<!-- Node1&#45;&gt;Node3 -->
<g id="edge2" class="edge"><title>Node1&#45;&gt;Node3</title>
<path fill="none" stroke="midnightblue" d="M135.14,-18.9174C144.048,-17.6636 152.86,-16.4235 160.951,-15.2847"/>
<polygon fill="midnightblue" stroke="midnightblue" points="134.489,-15.4744 125.074,-20.334 135.464,-22.4061 134.489,-15.4744"/>
</g>
<!-- Node4 -->
<g id="node4" class="node"><title>Node4</title>
<g id="a_node4"><a xlink:href="LasReaderTest_8cpp.html#abd37167698e2bd335f4e75c21866b7a6" target="_top" xlink:title="TEST">
<polygon fill="white" stroke="black" points="274,-0.5 274,-19.5 316,-19.5 316,-0.5 274,-0.5"/>
<text text-anchor="middle" x="295" y="-7.5" font-family="Helvetica,sans-Serif" font-size="10.00">TEST</text>
</a>
</g>
</g>
<!-- Node3&#45;&gt;Node4 -->
<g id="edge3" class="edge"><title>Node3&#45;&gt;Node4</title>
<path fill="none" stroke="midnightblue" d="M248.357,-10C257.342,-10 266.273,-10 273.82,-10"/>
<polygon fill="midnightblue" stroke="midnightblue" points="248.261,-6.5001 238.261,-10 248.26,-13.5001 248.261,-6.5001"/>
</g>
</g>
</svg>
