<?xml version="1.0" encoding="UTF-8" standalone="no"?>
<!DOCTYPE svg PUBLIC "-//W3C//DTD SVG 1.1//EN"
 "http://www.w3.org/Graphics/SVG/1.1/DTD/svg11.dtd">
<!-- Generated by graphviz version 2.38.0 (20140413.2041)
 -->
<!-- Title: pdal::PluginManager::l_createObject Pages: 1 -->
<svg width="1037pt" height="536pt"
 viewBox="0.00 0.00 1037.00 535.61" xmlns="http://www.w3.org/2000/svg" xmlns:xlink="http://www.w3.org/1999/xlink">
<g id="graph0" class="graph" transform="scale(1 1) rotate(0) translate(4 531.61)">
<title>pdal::PluginManager::l_createObject</title>
<polygon fill="white" stroke="none" points="-4,4 -4,-531.61 1033,-531.61 1033,4 -4,4"/>
<!-- Node1 -->
<g id="node1" class="node"><title>Node1</title>
<polygon fill="#bfbfbf" stroke="black" points="0,-350.61 0,-380.61 105,-380.61 105,-350.61 0,-350.61"/>
<text text-anchor="start" x="8" y="-368.61" font-family="Helvetica,sans-Serif" font-size="10.00">pdal::PluginManager</text>
<text text-anchor="middle" x="52.5" y="-357.61" font-family="Helvetica,sans-Serif" font-size="10.00">::l_createObject</text>
</g>
<!-- Node2 -->
<g id="node2" class="node"><title>Node2</title>
<g id="a_node2"><a xlink:href="classpdal_1_1PluginManager.html#a4b104d8173aec62bcd3745ddee7aa3d5" target="_top" xlink:title="pdal::PluginManager\l::guessLoadByPath">
<polygon fill="white" stroke="black" points="141,-350.61 141,-380.61 246,-380.61 246,-350.61 141,-350.61"/>
<text text-anchor="start" x="149" y="-368.61" font-family="Helvetica,sans-Serif" font-size="10.00">pdal::PluginManager</text>
<text text-anchor="middle" x="193.5" y="-357.61" font-family="Helvetica,sans-Serif" font-size="10.00">::guessLoadByPath</text>
</a>
</g>
</g>
<!-- Node1&#45;&gt;Node2 -->
<g id="edge1" class="edge"><title>Node1&#45;&gt;Node2</title>
<path fill="none" stroke="midnightblue" d="M105.258,-365.61C113.49,-365.61 122.077,-365.61 130.514,-365.61"/>
<polygon fill="midnightblue" stroke="midnightblue" points="130.698,-369.11 140.698,-365.61 130.698,-362.11 130.698,-369.11"/>
</g>
<!-- Node3 -->
<g id="node3" class="node"><title>Node3</title>
<g id="a_node3"><a xlink:href="namespacepdal_1_1FileUtils.html#af4165597419cf00a2ff9cea447ea6c33" target="_top" xlink:title="pdal::FileUtils::directoryList">
<polygon fill="white" stroke="black" points="312.5,-508.11 312.5,-527.11 448.5,-527.11 448.5,-508.11 312.5,-508.11"/>
<text text-anchor="middle" x="380.5" y="-515.11" font-family="Helvetica,sans-Serif" font-size="10.00">pdal::FileUtils::directoryList</text>
</a>
</g>
</g>
<!-- Node2&#45;&gt;Node3 -->
<g id="edge2" class="edge"><title>Node2&#45;&gt;Node3</title>
<path fill="none" stroke="midnightblue" d="M199.908,-380.85C210.743,-409.02 237.924,-469.056 282,-498.61 288.253,-502.803 295.209,-506.118 302.446,-508.734"/>
<polygon fill="midnightblue" stroke="midnightblue" points="301.86,-512.218 312.449,-511.883 303.962,-505.541 301.86,-512.218"/>
</g>
<!-- Node4 -->
<g id="node4" class="node"><title>Node4</title>
<g id="a_node4"><a xlink:href="namespacepdal_1_1FileUtils.html#ae3c153961947c766ab18099f7ef71fc1" target="_top" xlink:title="pdal::FileUtils::extension">
<polygon fill="white" stroke="black" points="318,-470.11 318,-489.11 443,-489.11 443,-470.11 318,-470.11"/>
<text text-anchor="middle" x="380.5" y="-477.11" font-family="Helvetica,sans-Serif" font-size="10.00">pdal::FileUtils::extension</text>
</a>
</g>
</g>
<!-- Node2&#45;&gt;Node4 -->
<g id="edge3" class="edge"><title>Node2&#45;&gt;Node4</title>
<path fill="none" stroke="midnightblue" d="M203.976,-380.911C218.142,-402.388 246.96,-441.035 282,-460.61 290.016,-465.088 298.915,-468.525 307.983,-471.161"/>
<polygon fill="midnightblue" stroke="midnightblue" points="307.297,-474.599 317.855,-473.718 309.052,-467.822 307.297,-474.599"/>
</g>
<!-- Node5 -->
<g id="node5" class="node"><title>Node5</title>
<g id="a_node5"><a xlink:href="namespacepdal_1_1FileUtils.html#ae2b8f1ddc38b0033b685a0bde6106ba1" target="_top" xlink:title="pdal::FileUtils::fileExists">
<polygon fill="white" stroke="black" points="319,-432.11 319,-451.11 442,-451.11 442,-432.11 319,-432.11"/>
<text text-anchor="middle" x="380.5" y="-439.11" font-family="Helvetica,sans-Serif" font-size="10.00">pdal::FileUtils::fileExists</text>
</a>
</g>
</g>
<!-- Node2&#45;&gt;Node5 -->
<g id="edge4" class="edge"><title>Node2&#45;&gt;Node5</title>
<path fill="none" stroke="midnightblue" d="M213.11,-380.809C230.058,-393.869 256.291,-412.195 282,-422.61 290.51,-426.058 299.698,-428.893 308.913,-431.222"/>
<polygon fill="midnightblue" stroke="midnightblue" points="308.358,-434.687 318.892,-433.555 309.952,-427.87 308.358,-434.687"/>
</g>
<!-- Node8 -->
<g id="node8" class="node"><title>Node8</title>
<g id="a_node8"><a xlink:href="namespacepdal_1_1FileUtils.html#acfbe324737d031ab2650a56c6d50c776" target="_top" xlink:title="pdal::FileUtils::isDirectory">
<polygon fill="white" stroke="black" points="315.5,-394.11 315.5,-413.11 445.5,-413.11 445.5,-394.11 315.5,-394.11"/>
<text text-anchor="middle" x="380.5" y="-401.11" font-family="Helvetica,sans-Serif" font-size="10.00">pdal::FileUtils::isDirectory</text>
</a>
</g>
</g>
<!-- Node2&#45;&gt;Node8 -->
<g id="edge7" class="edge"><title>Node2&#45;&gt;Node8</title>
<path fill="none" stroke="midnightblue" d="M246.282,-377.046C258.016,-379.584 270.429,-382.227 282,-384.61 294.195,-387.122 307.267,-389.728 319.75,-392.176"/>
<polygon fill="midnightblue" stroke="midnightblue" points="319.122,-395.62 329.608,-394.1 320.464,-388.749 319.122,-395.62"/>
</g>
<!-- Node9 -->
<g id="node9" class="node"><title>Node9</title>
<g id="a_node9"><a xlink:href="classpdal_1_1PluginManager.html#a3344bf0a8d35b309b26cb23ae5fa3579" target="_top" xlink:title="pdal::PluginManager\l::loadByPath">
<polygon fill="white" stroke="black" points="328,-260.61 328,-290.61 433,-290.61 433,-260.61 328,-260.61"/>
<text text-anchor="start" x="336" y="-278.61" font-family="Helvetica,sans-Serif" font-size="10.00">pdal::PluginManager</text>
<text text-anchor="middle" x="380.5" y="-267.61" font-family="Helvetica,sans-Serif" font-size="10.00">::loadByPath</text>
</a>
</g>
</g>
<!-- Node2&#45;&gt;Node9 -->
<g id="edge8" class="edge"><title>Node2&#45;&gt;Node9</title>
<path fill="none" stroke="midnightblue" d="M214.498,-350.493C231.699,-338.013 257.535,-320.485 282,-308.61 293.417,-303.069 306.003,-298.062 318.23,-293.72"/>
<polygon fill="midnightblue" stroke="midnightblue" points="319.613,-296.946 327.93,-290.383 317.336,-290.327 319.613,-296.946"/>
</g>
<!-- Node22 -->
<g id="node22" class="node"><title>Node22</title>
<g id="a_node22"><a xlink:href="namespacepdal_1_1anonymous__namespace_02PluginManager_8cpp_03.html#a1fdbb485623dfdef1f484e665ffe43fe" target="_top" xlink:title="pdal::anonymous_namespace\l\{PluginManager::cpp\}::pluginSearchPaths">
<polygon fill="white" stroke="black" points="282,-67.6101 282,-97.6101 479,-97.6101 479,-67.6101 282,-67.6101"/>
<text text-anchor="start" x="290" y="-85.6101" font-family="Helvetica,sans-Serif" font-size="10.00">pdal::anonymous_namespace</text>
<text text-anchor="middle" x="380.5" y="-74.6101" font-family="Helvetica,sans-Serif" font-size="10.00">{PluginManager::cpp}::pluginSearchPaths</text>
</a>
</g>
</g>
<!-- Node2&#45;&gt;Node22 -->
<g id="edge23" class="edge"><title>Node2&#45;&gt;Node22</title>
<path fill="none" stroke="midnightblue" d="M204.446,-350.395C234.875,-303.848 326.878,-163.108 363.86,-106.535"/>
<polygon fill="midnightblue" stroke="midnightblue" points="366.962,-108.186 369.504,-97.9007 361.103,-104.356 366.962,-108.186"/>
</g>
<!-- Node24 -->
<g id="node24" class="node"><title>Node24</title>
<g id="a_node24"><a xlink:href="namespacepdal_1_1Utils.html#a6ae33c6d7b4eb4bcae6ec17fb8cc04fc" target="_top" xlink:title="pdal::Utils::split2">
<polygon fill="white" stroke="black" points="562,-5.11013 562,-24.1101 652,-24.1101 652,-5.11013 562,-5.11013"/>
<text text-anchor="middle" x="607" y="-12.1101" font-family="Helvetica,sans-Serif" font-size="10.00">pdal::Utils::split2</text>
</a>
</g>
</g>
<!-- Node2&#45;&gt;Node24 -->
<g id="edge27" class="edge"><title>Node2&#45;&gt;Node24</title>
<path fill="none" stroke="midnightblue" d="M196.625,-350.277C204.799,-293.622 236.062,-97.3327 282,-57.6101 357.172,7.39161 481.131,3.57968 551.942,-5.31405"/>
<polygon fill="midnightblue" stroke="midnightblue" points="551.616,-8.80155 561.992,-6.65553 552.543,-1.8631 551.616,-8.80155"/>
</g>
<!-- Node25 -->
<g id="node25" class="node"><title>Node25</title>
<g id="a_node25"><a xlink:href="namespacepdal_1_1FileUtils.html#a3bdadae2f0ef6896942c02e9a9c81e00" target="_top" xlink:title="pdal::FileUtils::stem">
<polygon fill="white" stroke="black" points="328.5,-318.11 328.5,-337.11 432.5,-337.11 432.5,-318.11 328.5,-318.11"/>
<text text-anchor="middle" x="380.5" y="-325.11" font-family="Helvetica,sans-Serif" font-size="10.00">pdal::FileUtils::stem</text>
</a>
</g>
</g>
<!-- Node2&#45;&gt;Node25 -->
<g id="edge28" class="edge"><title>Node2&#45;&gt;Node25</title>
<path fill="none" stroke="midnightblue" d="M246.282,-354.175C258.016,-351.636 270.429,-348.994 282,-346.61 294.195,-344.098 307.267,-341.492 319.75,-339.044"/>
<polygon fill="midnightblue" stroke="midnightblue" points="320.464,-342.471 329.608,-337.12 319.122,-335.601 320.464,-342.471"/>
</g>
<!-- Node26 -->
<g id="node26" class="node"><title>Node26</title>
<g id="a_node26"><a xlink:href="namespacepdal_1_1Dimension.html#a880d689fed54aa3ded6f88c9e058c5d2" target="_top" xlink:title="pdal::Dimension::type">
<polygon fill="white" stroke="black" points="324.5,-356.11 324.5,-375.11 436.5,-375.11 436.5,-356.11 324.5,-356.11"/>
<text text-anchor="middle" x="380.5" y="-363.11" font-family="Helvetica,sans-Serif" font-size="10.00">pdal::Dimension::type</text>
</a>
</g>
</g>
<!-- Node2&#45;&gt;Node26 -->
<g id="edge30" class="edge"><title>Node2&#45;&gt;Node26</title>
<path fill="none" stroke="midnightblue" d="M246.033,-365.61C267.172,-365.61 291.888,-365.61 314.266,-365.61"/>
<polygon fill="midnightblue" stroke="midnightblue" points="314.362,-369.11 324.362,-365.61 314.362,-362.11 314.362,-369.11"/>
</g>
<!-- Node6 -->
<g id="node6" class="node"><title>Node6</title>
<g id="a_node6"><a xlink:href="namespacepdal_1_1anonymous__namespace_02FileUtils_8cpp_03.html#a813a530ad72d50f747643f1bb996cacf" target="_top" xlink:title="pdal::anonymous_namespace\l\{FileUtils::cpp\}::isStdin">
<polygon fill="white" stroke="black" points="534,-431.61 534,-461.61 680,-461.61 680,-431.61 534,-431.61"/>
<text text-anchor="start" x="542" y="-449.61" font-family="Helvetica,sans-Serif" font-size="10.00">pdal::anonymous_namespace</text>
<text text-anchor="middle" x="607" y="-438.61" font-family="Helvetica,sans-Serif" font-size="10.00">{FileUtils::cpp}::isStdin</text>
</a>
</g>
</g>
<!-- Node5&#45;&gt;Node6 -->
<g id="edge5" class="edge"><title>Node5&#45;&gt;Node6</title>
<path fill="none" stroke="midnightblue" d="M442.253,-442.963C467.24,-443.52 496.573,-444.173 523.457,-444.772"/>
<polygon fill="midnightblue" stroke="midnightblue" points="523.55,-448.275 533.626,-444.998 523.706,-441.276 523.55,-448.275"/>
</g>
<!-- Node7 -->
<g id="node7" class="node"><title>Node7</title>
<g id="a_node7"><a xlink:href="namespacepdal_1_1Utils.html#a28e3e2faff94b20f9908e77bc54ed983" target="_top" xlink:title="pdal::Utils::toupper">
<polygon fill="white" stroke="black" points="760,-437.11 760,-456.11 859,-456.11 859,-437.11 760,-437.11"/>
<text text-anchor="middle" x="809.5" y="-444.11" font-family="Helvetica,sans-Serif" font-size="10.00">pdal::Utils::toupper</text>
</a>
</g>
</g>
<!-- Node6&#45;&gt;Node7 -->
<g id="edge6" class="edge"><title>Node6&#45;&gt;Node7</title>
<path fill="none" stroke="midnightblue" d="M680.102,-446.61C702.975,-446.61 727.975,-446.61 749.788,-446.61"/>
<polygon fill="midnightblue" stroke="midnightblue" points="749.891,-450.11 759.891,-446.61 749.891,-443.11 749.891,-450.11"/>
</g>
<!-- Node10 -->
<g id="node10" class="node"><title>Node10</title>
<g id="a_node10"><a xlink:href="namespacepdal_1_1Utils.html#a5268937cf695835e55392f752dc02cb2" target="_top" xlink:title="pdal::Utils::tolower">
<polygon fill="white" stroke="black" points="558,-393.11 558,-412.11 656,-412.11 656,-393.11 558,-393.11"/>
<text text-anchor="middle" x="607" y="-400.11" font-family="Helvetica,sans-Serif" font-size="10.00">pdal::Utils::tolower</text>
</a>
</g>
</g>
<!-- Node9&#45;&gt;Node10 -->
<g id="edge9" class="edge"><title>Node9&#45;&gt;Node10</title>
<path fill="none" stroke="midnightblue" d="M433.1,-284.84C449.235,-289.752 466.157,-297.236 479,-308.61 506.68,-333.124 485.894,-360.808 515,-383.61 524.429,-390.997 536.04,-395.698 547.774,-398.649"/>
<polygon fill="midnightblue" stroke="midnightblue" points="547.107,-402.086 557.615,-400.737 548.56,-395.238 547.107,-402.086"/>
</g>
<!-- Node11 -->
<g id="node11" class="node"><title>Node11</title>
<g id="a_node11"><a xlink:href="namespacepdal_1_1FileUtils.html#a0d150fac3c099a0646763f1b862cac73" target="_top" xlink:title="pdal::FileUtils::getFilename">
<polygon fill="white" stroke="black" points="539,-355.11 539,-374.11 675,-374.11 675,-355.11 539,-355.11"/>
<text text-anchor="middle" x="607" y="-362.11" font-family="Helvetica,sans-Serif" font-size="10.00">pdal::FileUtils::getFilename</text>
</a>
</g>
</g>
<!-- Node9&#45;&gt;Node11 -->
<g id="edge10" class="edge"><title>Node9&#45;&gt;Node11</title>
<path fill="none" stroke="midnightblue" d="M433.08,-288.206C448.515,-293.233 465.035,-299.935 479,-308.61 498.221,-320.55 495.152,-333.745 515,-344.61 520.09,-347.397 525.541,-349.795 531.151,-351.859"/>
<polygon fill="midnightblue" stroke="midnightblue" points="530.114,-355.203 540.707,-355.027 532.317,-348.558 530.114,-355.203"/>
</g>
<!-- Node12 -->
<g id="node12" class="node"><title>Node12</title>
<g id="a_node12"><a xlink:href="namespacepdal_1_1anonymous__namespace_02PluginManager_8cpp_03.html#a96b6f972ce14621acdc2ef6579cab857" target="_top" xlink:title="pdal::anonymous_namespace\l\{PluginManager::cpp\}::pluginTypeValid">
<polygon fill="white" stroke="black" points="515,-256.61 515,-286.61 699,-286.61 699,-256.61 515,-256.61"/>
<text text-anchor="start" x="523" y="-274.61" font-family="Helvetica,sans-Serif" font-size="10.00">pdal::anonymous_namespace</text>
<text text-anchor="middle" x="607" y="-263.61" font-family="Helvetica,sans-Serif" font-size="10.00">{PluginManager::cpp}::pluginTypeValid</text>
</a>
</g>
</g>
<!-- Node9&#45;&gt;Node12 -->
<g id="edge11" class="edge"><title>Node9&#45;&gt;Node12</title>
<path fill="none" stroke="midnightblue" d="M433.005,-274.692C454.281,-274.313 479.724,-273.86 504.466,-273.419"/>
<polygon fill="midnightblue" stroke="midnightblue" points="504.704,-276.916 514.64,-273.238 504.58,-269.917 504.704,-276.916"/>
</g>
<!-- Node14 -->
<g id="node14" class="node"><title>Node14</title>
<g id="a_node14"><a xlink:href="classpdal_1_1PluginManager.html#a05f55dd74e4883b9a8bca6ebbadda5bd" target="_top" xlink:title="pdal::PluginManager\l::libraryLoaded">
<polygon fill="white" stroke="black" points="554.5,-207.61 554.5,-237.61 659.5,-237.61 659.5,-207.61 554.5,-207.61"/>
<text text-anchor="start" x="562.5" y="-225.61" font-family="Helvetica,sans-Serif" font-size="10.00">pdal::PluginManager</text>
<text text-anchor="middle" x="607" y="-214.61" font-family="Helvetica,sans-Serif" font-size="10.00">::libraryLoaded</text>
</a>
</g>
</g>
<!-- Node9&#45;&gt;Node14 -->
<g id="edge13" class="edge"><title>Node9&#45;&gt;Node14</title>
<path fill="none" stroke="midnightblue" d="M433.005,-263.451C466.113,-255.635 509.311,-245.437 544.257,-237.187"/>
<polygon fill="midnightblue" stroke="midnightblue" points="545.418,-240.509 554.347,-234.804 543.81,-233.696 545.418,-240.509"/>
</g>
<!-- Node15 -->
<g id="node15" class="node"><title>Node15</title>
<g id="a_node15"><a xlink:href="namespacepdal_1_1FileUtils.html#a538c47da3e98daa37d68b568ca849ac9" target="_top" xlink:title="pdal::FileUtils::toAbsolutePath">
<polygon fill="white" stroke="black" points="735,-169.11 735,-188.11 884,-188.11 884,-169.11 735,-169.11"/>
<text text-anchor="middle" x="809.5" y="-176.11" font-family="Helvetica,sans-Serif" font-size="10.00">pdal::FileUtils::toAbsolutePath</text>
</a>
</g>
</g>
<!-- Node9&#45;&gt;Node15 -->
<g id="edge16" class="edge"><title>Node9&#45;&gt;Node15</title>
<path fill="none" stroke="midnightblue" d="M400.926,-260.288C425.761,-241.679 470.847,-211.109 515,-197.61 583.432,-176.688 664.897,-172.979 724.618,-173.907"/>
<polygon fill="midnightblue" stroke="midnightblue" points="724.689,-177.409 734.757,-174.112 724.83,-170.41 724.689,-177.409"/>
</g>
<!-- Node17 -->
<g id="node17" class="node"><title>Node17</title>
<g id="a_node17"><a xlink:href="classpdal_1_1PluginManager.html#a37dc2ebab8261695d3d42038046cd5e4" target="_top" xlink:title="pdal::PluginManager\l::loadLibrary">
<polygon fill="white" stroke="black" points="554.5,-119.61 554.5,-149.61 659.5,-149.61 659.5,-119.61 554.5,-119.61"/>
<text text-anchor="start" x="562.5" y="-137.61" font-family="Helvetica,sans-Serif" font-size="10.00">pdal::PluginManager</text>
<text text-anchor="middle" x="607" y="-126.61" font-family="Helvetica,sans-Serif" font-size="10.00">::loadLibrary</text>
</a>
</g>
</g>
<!-- Node9&#45;&gt;Node17 -->
<g id="edge17" class="edge"><title>Node9&#45;&gt;Node17</title>
<path fill="none" stroke="midnightblue" d="M395.728,-260.588C418.747,-237.075 466.49,-191.493 515,-164.61 524.152,-159.538 534.3,-155.148 544.402,-151.41"/>
<polygon fill="midnightblue" stroke="midnightblue" points="545.765,-154.641 554.04,-148.025 543.445,-148.037 545.765,-154.641"/>
</g>
<!-- Node20 -->
<g id="node20" class="node"><title>Node20</title>
<g id="a_node20"><a xlink:href="classpdal_1_1PluginManager.html#ae9e94964092e0fdb6be63484e5e69e9f" target="_top" xlink:title="pdal::PluginManager\l::initializePlugin">
<polygon fill="white" stroke="black" points="554.5,-305.61 554.5,-335.61 659.5,-335.61 659.5,-305.61 554.5,-305.61"/>
<text text-anchor="start" x="562.5" y="-323.61" font-family="Helvetica,sans-Serif" font-size="10.00">pdal::PluginManager</text>
<text text-anchor="middle" x="607" y="-312.61" font-family="Helvetica,sans-Serif" font-size="10.00">::initializePlugin</text>
</a>
</g>
</g>
<!-- Node9&#45;&gt;Node20 -->
<g id="edge21" class="edge"><title>Node9&#45;&gt;Node20</title>
<path fill="none" stroke="midnightblue" d="M433.005,-285.934C466.113,-292.57 509.311,-301.229 544.257,-308.234"/>
<polygon fill="midnightblue" stroke="midnightblue" points="543.854,-311.723 554.347,-310.256 545.23,-304.859 543.854,-311.723"/>
</g>
<!-- Node13 -->
<g id="node13" class="node"><title>Node13</title>
<g id="a_node13"><a xlink:href="namespacepdal_1_1Utils.html#a28e27948fb8a4c1d958783d8a53bd784" target="_top" xlink:title="pdal::Utils::startsWith">
<polygon fill="white" stroke="black" points="753.5,-262.11 753.5,-281.11 865.5,-281.11 865.5,-262.11 753.5,-262.11"/>
<text text-anchor="middle" x="809.5" y="-269.11" font-family="Helvetica,sans-Serif" font-size="10.00">pdal::Utils::startsWith</text>
</a>
</g>
</g>
<!-- Node12&#45;&gt;Node13 -->
<g id="edge12" class="edge"><title>Node12&#45;&gt;Node13</title>
<path fill="none" stroke="midnightblue" d="M699.156,-271.61C714.057,-271.61 729.227,-271.61 743.337,-271.61"/>
<polygon fill="midnightblue" stroke="midnightblue" points="743.404,-275.11 753.404,-271.61 743.404,-268.11 743.404,-275.11"/>
</g>
<!-- Node14&#45;&gt;Node15 -->
<g id="edge14" class="edge"><title>Node14&#45;&gt;Node15</title>
<path fill="none" stroke="midnightblue" d="M659.634,-211.279C688.903,-204.856 725.467,-196.832 755.033,-190.343"/>
<polygon fill="midnightblue" stroke="midnightblue" points="756.158,-193.68 765.176,-188.118 754.658,-186.843 756.158,-193.68"/>
</g>
<!-- Node16 -->
<g id="node16" class="node"><title>Node16</title>
<g id="a_node16"><a xlink:href="namespacepdal_1_1Utils.html#a3e140e4c0c21d020c56c0b8d58b8cb5b" target="_top" xlink:title="pdal::Utils::contains">
<polygon fill="white" stroke="black" points="757.5,-213.11 757.5,-232.11 861.5,-232.11 861.5,-213.11 757.5,-213.11"/>
<text text-anchor="middle" x="809.5" y="-220.11" font-family="Helvetica,sans-Serif" font-size="10.00">pdal::Utils::contains</text>
</a>
</g>
</g>
<!-- Node14&#45;&gt;Node16 -->
<g id="edge15" class="edge"><title>Node14&#45;&gt;Node16</title>
<path fill="none" stroke="midnightblue" d="M659.634,-222.61C686.398,-222.61 719.263,-222.61 747.298,-222.61"/>
<polygon fill="midnightblue" stroke="midnightblue" points="747.389,-226.11 757.389,-222.61 747.389,-219.11 747.389,-226.11"/>
</g>
<!-- Node17&#45;&gt;Node15 -->
<g id="edge20" class="edge"><title>Node17&#45;&gt;Node15</title>
<path fill="none" stroke="midnightblue" d="M659.634,-145.941C688.903,-152.364 725.467,-160.388 755.033,-166.877"/>
<polygon fill="midnightblue" stroke="midnightblue" points="754.658,-170.378 765.176,-169.103 756.158,-163.54 754.658,-170.378"/>
</g>
<!-- Node18 -->
<g id="node18" class="node"><title>Node18</title>
<g id="a_node18"><a xlink:href="classpdal_1_1DynamicLibrary.html#afa96ce1595f15fb125e13c827902f030" target="_top" xlink:title="pdal::DynamicLibrary\l::load">
<polygon fill="white" stroke="black" points="755,-119.61 755,-149.61 864,-149.61 864,-119.61 755,-119.61"/>
<text text-anchor="start" x="763" y="-137.61" font-family="Helvetica,sans-Serif" font-size="10.00">pdal::DynamicLibrary</text>
<text text-anchor="middle" x="809.5" y="-126.61" font-family="Helvetica,sans-Serif" font-size="10.00">::load</text>
</a>
</g>
</g>
<!-- Node17&#45;&gt;Node18 -->
<g id="edge18" class="edge"><title>Node17&#45;&gt;Node18</title>
<path fill="none" stroke="midnightblue" d="M659.634,-134.61C685.561,-134.61 717.212,-134.61 744.653,-134.61"/>
<polygon fill="midnightblue" stroke="midnightblue" points="744.943,-138.11 754.943,-134.61 744.943,-131.11 744.943,-138.11"/>
</g>
<!-- Node19 -->
<g id="node19" class="node"><title>Node19</title>
<g id="a_node19"><a xlink:href="classpdal_1_1DynamicLibrary.html#a48b54a6222a25732cc80500f52f3e618" target="_top" xlink:title="pdal::DynamicLibrary\l::DynamicLibrary">
<polygon fill="white" stroke="black" points="920,-119.61 920,-149.61 1029,-149.61 1029,-119.61 920,-119.61"/>
<text text-anchor="start" x="928" y="-137.61" font-family="Helvetica,sans-Serif" font-size="10.00">pdal::DynamicLibrary</text>
<text text-anchor="middle" x="974.5" y="-126.61" font-family="Helvetica,sans-Serif" font-size="10.00">::DynamicLibrary</text>
</a>
</g>
</g>
<!-- Node18&#45;&gt;Node19 -->
<g id="edge19" class="edge"><title>Node18&#45;&gt;Node19</title>
<path fill="none" stroke="midnightblue" d="M864.324,-134.61C878.79,-134.61 894.576,-134.61 909.535,-134.61"/>
<polygon fill="midnightblue" stroke="midnightblue" points="909.733,-138.11 919.732,-134.61 909.732,-131.11 909.733,-138.11"/>
</g>
<!-- Node21 -->
<g id="node21" class="node"><title>Node21</title>
<g id="a_node21"><a xlink:href="classpdal_1_1PluginManager.html#a8a847508c24b6a254ae8eaba06c0069a" target="_top" xlink:title="pdal::PluginManager\l::l_initializePlugin">
<polygon fill="white" stroke="black" points="757,-305.61 757,-335.61 862,-335.61 862,-305.61 757,-305.61"/>
<text text-anchor="start" x="765" y="-323.61" font-family="Helvetica,sans-Serif" font-size="10.00">pdal::PluginManager</text>
<text text-anchor="middle" x="809.5" y="-312.61" font-family="Helvetica,sans-Serif" font-size="10.00">::l_initializePlugin</text>
</a>
</g>
</g>
<!-- Node20&#45;&gt;Node21 -->
<g id="edge22" class="edge"><title>Node20&#45;&gt;Node21</title>
<path fill="none" stroke="midnightblue" d="M659.634,-320.61C686.192,-320.61 718.756,-320.61 746.648,-320.61"/>
<polygon fill="midnightblue" stroke="midnightblue" points="746.693,-324.11 756.693,-320.61 746.693,-317.11 746.693,-324.11"/>
</g>
<!-- Node22&#45;&gt;Node15 -->
<g id="edge26" class="edge"><title>Node22&#45;&gt;Node15</title>
<path fill="none" stroke="midnightblue" d="M479.143,-82.1957C558.307,-83.4417 662.508,-89.1502 699,-109.61 722.571,-122.826 712.718,-143.32 735,-158.61 738.557,-161.051 742.402,-163.195 746.402,-165.078"/>
<polygon fill="midnightblue" stroke="midnightblue" points="745.379,-168.441 755.959,-169.013 748.045,-161.969 745.379,-168.441"/>
</g>
<!-- Node23 -->
<g id="node23" class="node"><title>Node23</title>
<g id="a_node23"><a xlink:href="namespacepdal_1_1Utils.html#a280847d8a85057a3cfe513abec5c6527" target="_top" xlink:title="pdal::Utils::getenv">
<polygon fill="white" stroke="black" points="559,-43.1101 559,-62.1101 655,-62.1101 655,-43.1101 559,-43.1101"/>
<text text-anchor="middle" x="607" y="-50.1101" font-family="Helvetica,sans-Serif" font-size="10.00">pdal::Utils::getenv</text>
</a>
</g>
</g>
<!-- Node22&#45;&gt;Node23 -->
<g id="edge24" class="edge"><title>Node22&#45;&gt;Node23</title>
<path fill="none" stroke="midnightblue" d="M479.316,-69.539C503.077,-66.3637 527.716,-63.0712 548.877,-60.2434"/>
<polygon fill="midnightblue" stroke="midnightblue" points="549.519,-63.6889 558.967,-58.8951 548.592,-56.7506 549.519,-63.6889"/>
</g>
<!-- Node22&#45;&gt;Node24 -->
<g id="edge25" class="edge"><title>Node22&#45;&gt;Node24</title>
<path fill="none" stroke="midnightblue" d="M418.138,-67.5172C444.696,-56.9836 481.651,-43.1565 515,-33.6101 526.758,-30.2442 539.529,-27.2061 551.683,-24.5967"/>
<polygon fill="midnightblue" stroke="midnightblue" points="552.635,-27.9736 561.712,-22.5078 551.208,-21.1207 552.635,-27.9736"/>
</g>
<!-- Node25&#45;&gt;Node11 -->
<g id="edge29" class="edge"><title>Node25&#45;&gt;Node11</title>
<path fill="none" stroke="midnightblue" d="M432.723,-336.052C463.92,-341.194 504.151,-347.824 537.995,-353.402"/>
<polygon fill="midnightblue" stroke="midnightblue" points="537.84,-356.924 548.276,-355.097 538.978,-350.017 537.84,-356.924"/>
</g>
<!-- Node26&#45;&gt;Node10 -->
<g id="edge31" class="edge"><title>Node26&#45;&gt;Node10</title>
<path fill="none" stroke="midnightblue" d="M436.706,-374.709C470.501,-380.279 513.692,-387.397 547.989,-393.049"/>
<polygon fill="midnightblue" stroke="midnightblue" points="547.432,-396.505 557.868,-394.677 548.57,-389.598 547.432,-396.505"/>
</g>
</g>
</svg>
