<?xml version="1.0" encoding="UTF-8" standalone="no"?>
<!DOCTYPE svg PUBLIC "-//W3C//DTD SVG 1.1//EN"
 "http://www.w3.org/Graphics/SVG/1.1/DTD/svg11.dtd">
<!-- Generated by graphviz version 2.38.0 (20140413.2041)
 -->
<!-- Title: pdal::OGRWriter::addArgs Pages: 1 -->
<svg width="470pt" height="85pt"
 viewBox="0.00 0.00 470.00 85.00" xmlns="http://www.w3.org/2000/svg" xmlns:xlink="http://www.w3.org/1999/xlink">
<g id="graph0" class="graph" transform="scale(1 1) rotate(0) translate(4 81)">
<title>pdal::OGRWriter::addArgs</title>
<polygon fill="white" stroke="none" points="-4,4 -4,-81 466,-81 466,4 -4,4"/>
<!-- Node1 -->
<g id="node1" class="node"><title>Node1</title>
<polygon fill="#bfbfbf" stroke="black" points="0,-19.5 0,-38.5 131,-38.5 131,-19.5 0,-19.5"/>
<text text-anchor="middle" x="65.5" y="-26.5" font-family="Helvetica,sans-Serif" font-size="10.00">pdal::OGRWriter::addArgs</text>
</g>
<!-- Node2 -->
<g id="node2" class="node"><title>Node2</title>
<g id="a_node2"><a xlink:href="classpdal_1_1ProgramArgs.html#a9f773618ed928e9cef78aa1bf8278784" target="_top" xlink:title="pdal::ProgramArgs::add">
<polygon fill="white" stroke="black" points="167,-38.5 167,-57.5 286,-57.5 286,-38.5 167,-38.5"/>
<text text-anchor="middle" x="226.5" y="-45.5" font-family="Helvetica,sans-Serif" font-size="10.00">pdal::ProgramArgs::add</text>
</a>
</g>
</g>
<!-- Node1&#45;&gt;Node2 -->
<g id="edge1" class="edge"><title>Node1&#45;&gt;Node2</title>
<path fill="none" stroke="midnightblue" d="M131.171,-36.728C139.545,-37.7287 148.147,-38.7566 156.586,-39.765"/>
<polygon fill="midnightblue" stroke="midnightblue" points="156.43,-43.2711 166.774,-40.9825 157.26,-36.3206 156.43,-43.2711"/>
</g>
<!-- Node5 -->
<g id="node5" class="node"><title>Node5</title>
<g id="a_node5"><a xlink:href="classpdal_1_1Arg.html#acd96700a01950da368119d2a06f441ae" target="_top" xlink:title="pdal::Arg::setPositional">
<polygon fill="white" stroke="black" points="167.5,-0.5 167.5,-19.5 285.5,-19.5 285.5,-0.5 167.5,-0.5"/>
<text text-anchor="middle" x="226.5" y="-7.5" font-family="Helvetica,sans-Serif" font-size="10.00">pdal::Arg::setPositional</text>
</a>
</g>
</g>
<!-- Node1&#45;&gt;Node5 -->
<g id="edge4" class="edge"><title>Node1&#45;&gt;Node5</title>
<path fill="none" stroke="midnightblue" d="M131.171,-21.272C139.761,-20.2455 148.59,-19.1905 157.238,-18.1571"/>
<polygon fill="midnightblue" stroke="midnightblue" points="157.768,-21.6188 167.282,-16.9569 156.937,-14.6683 157.768,-21.6188"/>
</g>
<!-- Node3 -->
<g id="node3" class="node"><title>Node3</title>
<g id="a_node3"><a xlink:href="namespacepdal_1_1Dimension.html#af3176b0b7e6b4be000317846cf7c2718" target="_top" xlink:title="pdal::Dimension::name">
<polygon fill="white" stroke="black" points="333.5,-57.5 333.5,-76.5 450.5,-76.5 450.5,-57.5 333.5,-57.5"/>
<text text-anchor="middle" x="392" y="-64.5" font-family="Helvetica,sans-Serif" font-size="10.00">pdal::Dimension::name</text>
</a>
</g>
</g>
<!-- Node2&#45;&gt;Node3 -->
<g id="edge2" class="edge"><title>Node2&#45;&gt;Node3</title>
<path fill="none" stroke="midnightblue" d="M286.065,-54.8058C298.092,-56.2033 310.848,-57.6857 323.17,-59.1176"/>
<polygon fill="midnightblue" stroke="midnightblue" points="323.055,-62.6277 333.392,-60.3055 323.863,-55.6745 323.055,-62.6277"/>
</g>
<!-- Node4 -->
<g id="node4" class="node"><title>Node4</title>
<g id="a_node4"><a xlink:href="namespacepdal_1_1Dimension.html#a4041a0eeee0ca503caad91db24affa0e" target="_top" xlink:title="pdal::Dimension::description">
<polygon fill="white" stroke="black" points="322,-19.5 322,-38.5 462,-38.5 462,-19.5 322,-19.5"/>
<text text-anchor="middle" x="392" y="-26.5" font-family="Helvetica,sans-Serif" font-size="10.00">pdal::Dimension::description</text>
</a>
</g>
</g>
<!-- Node2&#45;&gt;Node4 -->
<g id="edge3" class="edge"><title>Node2&#45;&gt;Node4</title>
<path fill="none" stroke="midnightblue" d="M286.065,-41.1942C294.43,-40.2223 303.147,-39.2093 311.825,-38.2008"/>
<polygon fill="midnightblue" stroke="midnightblue" points="312.442,-41.6527 321.971,-37.0217 311.634,-34.6995 312.442,-41.6527"/>
</g>
</g>
</svg>
