<?xml version="1.0" encoding="UTF-8" standalone="no"?>
<!DOCTYPE svg PUBLIC "-//W3C//DTD SVG 1.1//EN"
 "http://www.w3.org/Graphics/SVG/1.1/DTD/svg11.dtd">
<!-- Generated by graphviz version 2.38.0 (20140413.2041)
 -->
<!-- Title: pdal::PointView::calculateBounds Pages: 1 -->
<svg width="420pt" height="66pt"
 viewBox="0.00 0.00 420.00 66.00" xmlns="http://www.w3.org/2000/svg" xmlns:xlink="http://www.w3.org/1999/xlink">
<g id="graph0" class="graph" transform="scale(1 1) rotate(0) translate(4 62)">
<title>pdal::PointView::calculateBounds</title>
<polygon fill="white" stroke="none" points="-4,4 -4,-62 416,-62 416,4 -4,4"/>
<!-- Node1 -->
<g id="node1" class="node"><title>Node1</title>
<polygon fill="#bfbfbf" stroke="black" points="0,-14 0,-44 130,-44 130,-14 0,-14"/>
<text text-anchor="start" x="8" y="-32" font-family="Helvetica,sans-Serif" font-size="10.00">pdal::PointView::calculate</text>
<text text-anchor="middle" x="65" y="-21" font-family="Helvetica,sans-Serif" font-size="10.00">Bounds</text>
</g>
<!-- Node2 -->
<g id="node2" class="node"><title>Node2</title>
<g id="a_node2"><a xlink:href="classpdal_1_1BOX3D.html#a3dd1b7cf2ec9bd58f73a0183f0b64702" target="_top" xlink:title="pdal::BOX3D::grow">
<polygon fill="white" stroke="black" points="170,-38.5 170,-57.5 271,-57.5 271,-38.5 170,-38.5"/>
<text text-anchor="middle" x="220.5" y="-45.5" font-family="Helvetica,sans-Serif" font-size="10.00">pdal::BOX3D::grow</text>
</a>
</g>
</g>
<!-- Node1&#45;&gt;Node2 -->
<g id="edge1" class="edge"><title>Node1&#45;&gt;Node2</title>
<path fill="none" stroke="midnightblue" d="M130.208,-36.9476C139.862,-38.1425 149.787,-39.371 159.351,-40.5548"/>
<polygon fill="midnightblue" stroke="midnightblue" points="159.203,-44.0631 169.557,-41.8181 160.063,-37.1161 159.203,-44.0631"/>
</g>
<!-- Node4 -->
<g id="node4" class="node"><title>Node4</title>
<g id="a_node4"><a xlink:href="classpdal_1_1PointView.html#a4c2fba9b5d7a61f19a558bb08405555d" target="_top" xlink:title="pdal::PointView::size">
<polygon fill="white" stroke="black" points="166,-0.5 166,-19.5 275,-19.5 275,-0.5 166,-0.5"/>
<text text-anchor="middle" x="220.5" y="-7.5" font-family="Helvetica,sans-Serif" font-size="10.00">pdal::PointView::size</text>
</a>
</g>
</g>
<!-- Node1&#45;&gt;Node4 -->
<g id="edge3" class="edge"><title>Node1&#45;&gt;Node4</title>
<path fill="none" stroke="midnightblue" d="M130.208,-21.0524C138.619,-20.0113 147.236,-18.9447 155.641,-17.9044"/>
<polygon fill="midnightblue" stroke="midnightblue" points="156.265,-21.3539 165.759,-16.6519 155.405,-14.407 156.265,-21.3539"/>
</g>
<!-- Node3 -->
<g id="node3" class="node"><title>Node3</title>
<g id="a_node3"><a xlink:href="classpdal_1_1BOX2D.html#ad7673d05a1323a58e86eb721ae6a3b57" target="_top" xlink:title="pdal::BOX2D::grow">
<polygon fill="white" stroke="black" points="311,-38.5 311,-57.5 412,-57.5 412,-38.5 311,-38.5"/>
<text text-anchor="middle" x="361.5" y="-45.5" font-family="Helvetica,sans-Serif" font-size="10.00">pdal::BOX2D::grow</text>
</a>
</g>
</g>
<!-- Node2&#45;&gt;Node3 -->
<g id="edge2" class="edge"><title>Node2&#45;&gt;Node3</title>
<path fill="none" stroke="midnightblue" d="M271.29,-48C280.771,-48 290.787,-48 300.546,-48"/>
<polygon fill="midnightblue" stroke="midnightblue" points="300.591,-51.5001 310.591,-48 300.591,-44.5001 300.591,-51.5001"/>
</g>
</g>
</svg>
