<?xml version="1.0" encoding="UTF-8" standalone="no"?>
<!DOCTYPE svg PUBLIC "-//W3C//DTD SVG 1.1//EN"
 "http://www.w3.org/Graphics/SVG/1.1/DTD/svg11.dtd">
<!-- Generated by graphviz version 2.38.0 (20140413.2041)
 -->
<!-- Title: pdal::MatlabWriterTest::SetUp Pages: 1 -->
<svg width="732pt" height="123pt"
 viewBox="0.00 0.00 732.00 123.00" xmlns="http://www.w3.org/2000/svg" xmlns:xlink="http://www.w3.org/1999/xlink">
<g id="graph0" class="graph" transform="scale(1 1) rotate(0) translate(4 119)">
<title>pdal::MatlabWriterTest::SetUp</title>
<polygon fill="white" stroke="none" points="-4,4 -4,-119 728,-119 728,4 -4,4"/>
<!-- Node1 -->
<g id="node1" class="node"><title>Node1</title>
<polygon fill="#bfbfbf" stroke="black" points="0,-14 0,-44 116,-44 116,-14 0,-14"/>
<text text-anchor="start" x="8" y="-32" font-family="Helvetica,sans-Serif" font-size="10.00">pdal::MatlabWriterTest</text>
<text text-anchor="middle" x="58" y="-21" font-family="Helvetica,sans-Serif" font-size="10.00">::SetUp</text>
</g>
<!-- Node2 -->
<g id="node2" class="node"><title>Node2</title>
<g id="a_node2"><a xlink:href="classpdal_1_1Options.html#a30826da39f9c4716412141eeeb719032" target="_top" xlink:title="pdal::Options::add">
<polygon fill="white" stroke="black" points="163.5,-38.5 163.5,-57.5 259.5,-57.5 259.5,-38.5 163.5,-38.5"/>
<text text-anchor="middle" x="211.5" y="-45.5" font-family="Helvetica,sans-Serif" font-size="10.00">pdal::Options::add</text>
</a>
</g>
</g>
<!-- Node1&#45;&gt;Node2 -->
<g id="edge1" class="edge"><title>Node1&#45;&gt;Node2</title>
<path fill="none" stroke="midnightblue" d="M116.276,-36.1831C128.321,-37.6937 141.03,-39.2876 153.08,-40.7989"/>
<polygon fill="midnightblue" stroke="midnightblue" points="152.661,-44.2736 163.019,-42.0453 153.532,-37.328 152.661,-44.2736"/>
</g>
<!-- Node9 -->
<g id="node9" class="node"><title>Node9</title>
<g id="a_node9"><a xlink:href="classpdal_1_1Stage.html#acb2434df20f371f1fec9577de3cf0046" target="_top" xlink:title="pdal::Stage::setOptions">
<polygon fill="white" stroke="black" points="152,-0.5 152,-19.5 271,-19.5 271,-0.5 152,-0.5"/>
<text text-anchor="middle" x="211.5" y="-7.5" font-family="Helvetica,sans-Serif" font-size="10.00">pdal::Stage::setOptions</text>
</a>
</g>
</g>
<!-- Node1&#45;&gt;Node9 -->
<g id="edge8" class="edge"><title>Node1&#45;&gt;Node9</title>
<path fill="none" stroke="midnightblue" d="M116.276,-21.8169C124.647,-20.767 133.339,-19.6769 141.908,-18.6023"/>
<polygon fill="midnightblue" stroke="midnightblue" points="142.397,-22.0685 151.884,-17.3512 141.526,-15.1229 142.397,-22.0685"/>
</g>
<!-- Node3 -->
<g id="node3" class="node"><title>Node3</title>
<g id="a_node3"><a xlink:href="classpdal_1_1Option.html#aef4422b88464a9cad83b3c11bf1f8cdd" target="_top" xlink:title="pdal::Option::nameValid">
<polygon fill="white" stroke="black" points="307,-57.5 307,-76.5 428,-76.5 428,-57.5 307,-57.5"/>
<text text-anchor="middle" x="367.5" y="-64.5" font-family="Helvetica,sans-Serif" font-size="10.00">pdal::Option::nameValid</text>
</a>
</g>
</g>
<!-- Node2&#45;&gt;Node3 -->
<g id="edge2" class="edge"><title>Node2&#45;&gt;Node3</title>
<path fill="none" stroke="midnightblue" d="M259.542,-53.8039C271.337,-55.2592 284.244,-56.8515 296.883,-58.4109"/>
<polygon fill="midnightblue" stroke="midnightblue" points="296.582,-61.9002 306.935,-59.6511 297.439,-54.9529 296.582,-61.9002"/>
</g>
<!-- Node8 -->
<g id="node8" class="node"><title>Node8</title>
<g id="a_node8"><a xlink:href="classpdal_1_1Option.html#ad2b7a736742fb343e421fa326ef45c23" target="_top" xlink:title="pdal::Option::getName">
<polygon fill="white" stroke="black" points="310,-19.5 310,-38.5 425,-38.5 425,-19.5 310,-19.5"/>
<text text-anchor="middle" x="367.5" y="-26.5" font-family="Helvetica,sans-Serif" font-size="10.00">pdal::Option::getName</text>
</a>
</g>
</g>
<!-- Node2&#45;&gt;Node8 -->
<g id="edge7" class="edge"><title>Node2&#45;&gt;Node8</title>
<path fill="none" stroke="midnightblue" d="M259.542,-42.1961C272.23,-40.6308 286.203,-38.9068 299.746,-37.2359"/>
<polygon fill="midnightblue" stroke="midnightblue" points="300.493,-40.6703 309.99,-35.9721 299.636,-33.723 300.493,-40.6703"/>
</g>
<!-- Node4 -->
<g id="node4" class="node"><title>Node4</title>
<g id="a_node4"><a xlink:href="classpdal_1_1Option.html#a978a36cf9180d3636ea770988961952b" target="_top" xlink:title="pdal::Option::parse">
<polygon fill="white" stroke="black" points="468,-76.5 468,-95.5 567,-95.5 567,-76.5 468,-76.5"/>
<text text-anchor="middle" x="517.5" y="-83.5" font-family="Helvetica,sans-Serif" font-size="10.00">pdal::Option::parse</text>
</a>
</g>
</g>
<!-- Node3&#45;&gt;Node4 -->
<g id="edge3" class="edge"><title>Node3&#45;&gt;Node4</title>
<path fill="none" stroke="midnightblue" d="M428.271,-74.6733C438.036,-75.9269 448.144,-77.2246 457.881,-78.4746"/>
<polygon fill="midnightblue" stroke="midnightblue" points="457.499,-81.9542 467.863,-79.7561 458.39,-75.0111 457.499,-81.9542"/>
</g>
<!-- Node7 -->
<g id="node7" class="node"><title>Node7</title>
<g id="a_node7"><a xlink:href="namespacepdal_1_1Utils.html#ada321695f57c876ef51227bdf5b84f7a" target="_top" xlink:title="pdal::Utils::printError">
<polygon fill="white" stroke="black" points="464,-38.5 464,-57.5 571,-57.5 571,-38.5 464,-38.5"/>
<text text-anchor="middle" x="517.5" y="-45.5" font-family="Helvetica,sans-Serif" font-size="10.00">pdal::Utils::printError</text>
</a>
</g>
</g>
<!-- Node3&#45;&gt;Node7 -->
<g id="edge6" class="edge"><title>Node3&#45;&gt;Node7</title>
<path fill="none" stroke="midnightblue" d="M428.271,-59.3267C436.598,-58.2577 445.175,-57.1566 453.558,-56.0804"/>
<polygon fill="midnightblue" stroke="midnightblue" points="454.185,-59.5287 463.658,-54.7838 453.294,-52.5857 454.185,-59.5287"/>
</g>
<!-- Node5 -->
<g id="node5" class="node"><title>Node5</title>
<g id="a_node5"><a xlink:href="namespacepdal_1_1Utils.html#acae5a19cd66121b77e2599daec48413d" target="_top" xlink:title="pdal::Utils::extract">
<polygon fill="white" stroke="black" points="617,-95.5 617,-114.5 714,-114.5 714,-95.5 617,-95.5"/>
<text text-anchor="middle" x="665.5" y="-102.5" font-family="Helvetica,sans-Serif" font-size="10.00">pdal::Utils::extract</text>
</a>
</g>
</g>
<!-- Node4&#45;&gt;Node5 -->
<g id="edge4" class="edge"><title>Node4&#45;&gt;Node5</title>
<path fill="none" stroke="midnightblue" d="M567.116,-92.3267C579.683,-93.9622 593.34,-95.7394 606.341,-97.4313"/>
<polygon fill="midnightblue" stroke="midnightblue" points="606.225,-100.946 616.593,-98.7655 607.128,-94.0042 606.225,-100.946"/>
</g>
<!-- Node6 -->
<g id="node6" class="node"><title>Node6</title>
<g id="a_node6"><a xlink:href="namespacepdal_1_1Dimension.html#af3176b0b7e6b4be000317846cf7c2718" target="_top" xlink:title="pdal::Dimension::name">
<polygon fill="white" stroke="black" points="607,-57.5 607,-76.5 724,-76.5 724,-57.5 607,-57.5"/>
<text text-anchor="middle" x="665.5" y="-64.5" font-family="Helvetica,sans-Serif" font-size="10.00">pdal::Dimension::name</text>
</a>
</g>
</g>
<!-- Node4&#45;&gt;Node6 -->
<g id="edge5" class="edge"><title>Node4&#45;&gt;Node6</title>
<path fill="none" stroke="midnightblue" d="M567.116,-79.6733C576.697,-78.4264 586.911,-77.0972 596.985,-75.7862"/>
<polygon fill="midnightblue" stroke="midnightblue" points="597.519,-79.2463 606.984,-74.485 596.616,-72.3049 597.519,-79.2463"/>
</g>
</g>
</svg>
