<?xml version="1.0" encoding="UTF-8" standalone="no"?>
<!DOCTYPE svg PUBLIC "-//W3C//DTD SVG 1.1//EN"
 "http://www.w3.org/Graphics/SVG/1.1/DTD/svg11.dtd">
<!-- Generated by graphviz version 2.38.0 (20140413.2041)
 -->
<!-- Title: pdal::ProgramArgs::parse Pages: 1 -->
<svg width="627pt" height="192pt"
 viewBox="0.00 0.00 627.00 192.00" xmlns="http://www.w3.org/2000/svg" xmlns:xlink="http://www.w3.org/1999/xlink">
<g id="graph0" class="graph" transform="scale(1 1) rotate(0) translate(4 188)">
<title>pdal::ProgramArgs::parse</title>
<polygon fill="white" stroke="none" points="-4,4 -4,-188 623,-188 623,4 -4,4"/>
<!-- Node1 -->
<g id="node1" class="node"><title>Node1</title>
<polygon fill="#bfbfbf" stroke="black" points="0,-71 0,-101 104,-101 104,-71 0,-71"/>
<text text-anchor="start" x="8" y="-89" font-family="Helvetica,sans-Serif" font-size="10.00">pdal::ProgramArgs::</text>
<text text-anchor="middle" x="52" y="-78" font-family="Helvetica,sans-Serif" font-size="10.00">parse</text>
</g>
<!-- Node2 -->
<g id="node2" class="node"><title>Node2</title>
<g id="a_node2"><a xlink:href="classpdal_1_1Kernel.html#a03863e07df6fe6c6dc915e2d21f1b153" target="_top" xlink:title="pdal::Kernel::doSwitches">
<polygon fill="white" stroke="black" points="147,-164.5 147,-183.5 272,-183.5 272,-164.5 147,-164.5"/>
<text text-anchor="middle" x="209.5" y="-171.5" font-family="Helvetica,sans-Serif" font-size="10.00">pdal::Kernel::doSwitches</text>
</a>
</g>
</g>
<!-- Node1&#45;&gt;Node2 -->
<g id="edge1" class="edge"><title>Node1&#45;&gt;Node2</title>
<path fill="none" stroke="midnightblue" d="M75.5553,-108.1C92.1536,-123.253 115.931,-142.757 140,-155 147.48,-158.805 155.819,-161.929 164.034,-164.465"/>
<polygon fill="midnightblue" stroke="midnightblue" points="77.7127,-105.326 68.014,-101.062 72.9366,-110.444 77.7127,-105.326"/>
</g>
<!-- Node6 -->
<g id="node6" class="node"><title>Node6</title>
<g id="a_node6"><a xlink:href="classpdal_1_1nitfwrap_1_1NitfWrap.html#abf899b397aff312f6e153a6230a047a4" target="_top" xlink:title="pdal::nitfwrap::NitfWrap\l::parseArgs">
<polygon fill="white" stroke="black" points="149.5,-115 149.5,-145 269.5,-145 269.5,-115 149.5,-115"/>
<text text-anchor="start" x="157.5" y="-133" font-family="Helvetica,sans-Serif" font-size="10.00">pdal::nitfwrap::NitfWrap</text>
<text text-anchor="middle" x="209.5" y="-122" font-family="Helvetica,sans-Serif" font-size="10.00">::parseArgs</text>
</a>
</g>
</g>
<!-- Node1&#45;&gt;Node6 -->
<g id="edge5" class="edge"><title>Node1&#45;&gt;Node6</title>
<path fill="none" stroke="midnightblue" d="M114.114,-103.293C127.735,-107.147 142.071,-111.203 155.342,-114.958"/>
<polygon fill="midnightblue" stroke="midnightblue" points="114.923,-99.8842 104.347,-100.529 113.017,-106.62 114.923,-99.8842"/>
</g>
<!-- Node8 -->
<g id="node8" class="node"><title>Node8</title>
<g id="a_node8"><a xlink:href="classpdal_1_1DimBuilder.html#af0b25f62fde3f5d6698fc1fcd472f3ec" target="_top" xlink:title="pdal::DimBuilder::parseArgs">
<polygon fill="white" stroke="black" points="140,-76.5 140,-95.5 279,-95.5 279,-76.5 140,-76.5"/>
<text text-anchor="middle" x="209.5" y="-83.5" font-family="Helvetica,sans-Serif" font-size="10.00">pdal::DimBuilder::parseArgs</text>
</a>
</g>
</g>
<!-- Node1&#45;&gt;Node8 -->
<g id="edge7" class="edge"><title>Node1&#45;&gt;Node8</title>
<path fill="none" stroke="midnightblue" d="M114.352,-86C122.684,-86 131.278,-86 139.73,-86"/>
<polygon fill="midnightblue" stroke="midnightblue" points="114.348,-82.5001 104.347,-86 114.347,-89.5001 114.348,-82.5001"/>
</g>
<!-- Node10 -->
<g id="node10" class="node"><title>Node10</title>
<g id="a_node10"><a xlink:href="ProgramArgsTest_8cpp.html#a4ffc215ba34b7e1528a51b688507098f" target="_top" xlink:title="TEST">
<polygon fill="white" stroke="black" points="188.5,-38.5 188.5,-57.5 230.5,-57.5 230.5,-38.5 188.5,-38.5"/>
<text text-anchor="middle" x="209.5" y="-45.5" font-family="Helvetica,sans-Serif" font-size="10.00">TEST</text>
</a>
</g>
</g>
<!-- Node1&#45;&gt;Node10 -->
<g id="edge9" class="edge"><title>Node1&#45;&gt;Node10</title>
<path fill="none" stroke="midnightblue" d="M114.271,-71.0271C140.569,-64.6006 169.503,-57.5298 188.278,-52.9416"/>
<polygon fill="midnightblue" stroke="midnightblue" points="113.231,-67.6782 104.347,-73.4521 114.893,-74.4781 113.231,-67.6782"/>
</g>
<!-- Node11 -->
<g id="node11" class="node"><title>Node11</title>
<g id="a_node11"><a xlink:href="namespacepdal.html#a6f85d149f74faa30876993bdf585d0e6" target="_top" xlink:title="pdal::TEST">
<polygon fill="white" stroke="black" points="176.5,-0.5 176.5,-19.5 242.5,-19.5 242.5,-0.5 176.5,-0.5"/>
<text text-anchor="middle" x="209.5" y="-7.5" font-family="Helvetica,sans-Serif" font-size="10.00">pdal::TEST</text>
</a>
</g>
</g>
<!-- Node1&#45;&gt;Node11 -->
<g id="edge10" class="edge"><title>Node1&#45;&gt;Node11</title>
<path fill="none" stroke="midnightblue" d="M80.4832,-64.8149C96.9965,-52.9167 118.849,-38.5798 140,-29 151.467,-23.8063 164.671,-19.7351 176.407,-16.7163"/>
<polygon fill="midnightblue" stroke="midnightblue" points="78.3542,-62.0359 72.3665,-70.7765 82.498,-67.6776 78.3542,-62.0359"/>
</g>
<!-- Node3 -->
<g id="node3" class="node"><title>Node3</title>
<g id="a_node3"><a xlink:href="classpdal_1_1Kernel.html#a063a87bdb5459f336c905ab0d2ce3b05" target="_top" xlink:title="pdal::Kernel::run">
<polygon fill="white" stroke="black" points="331,-164.5 331,-183.5 419,-183.5 419,-164.5 331,-164.5"/>
<text text-anchor="middle" x="375" y="-171.5" font-family="Helvetica,sans-Serif" font-size="10.00">pdal::Kernel::run</text>
</a>
</g>
</g>
<!-- Node2&#45;&gt;Node3 -->
<g id="edge2" class="edge"><title>Node2&#45;&gt;Node3</title>
<path fill="none" stroke="midnightblue" d="M282.503,-174C299.02,-174 316.077,-174 330.922,-174"/>
<polygon fill="midnightblue" stroke="midnightblue" points="282.312,-170.5 272.312,-174 282.312,-177.5 282.312,-170.5"/>
</g>
<!-- Node4 -->
<g id="node4" class="node"><title>Node4</title>
<g id="a_node4"><a xlink:href="classApp.html#a2817579d633c3d379248cd45d035aba8" target="_top" xlink:title="App::execute">
<polygon fill="white" stroke="black" points="471,-164.5 471,-183.5 545,-183.5 545,-164.5 471,-164.5"/>
<text text-anchor="middle" x="508" y="-171.5" font-family="Helvetica,sans-Serif" font-size="10.00">App::execute</text>
</a>
</g>
</g>
<!-- Node3&#45;&gt;Node4 -->
<g id="edge3" class="edge"><title>Node3&#45;&gt;Node4</title>
<path fill="none" stroke="midnightblue" d="M429.658,-174C443.501,-174 458.074,-174 470.792,-174"/>
<polygon fill="midnightblue" stroke="midnightblue" points="429.257,-170.5 419.257,-174 429.257,-177.5 429.257,-170.5"/>
</g>
<!-- Node5 -->
<g id="node5" class="node"><title>Node5</title>
<g id="a_node5"><a xlink:href="pdal_8cpp.html#a0ddf1224851353fc92bfbff6f499fa97" target="_top" xlink:title="main">
<polygon fill="white" stroke="black" points="581,-164.5 581,-183.5 619,-183.5 619,-164.5 581,-164.5"/>
<text text-anchor="middle" x="600" y="-171.5" font-family="Helvetica,sans-Serif" font-size="10.00">main</text>
</a>
</g>
</g>
<!-- Node4&#45;&gt;Node5 -->
<g id="edge4" class="edge"><title>Node4&#45;&gt;Node5</title>
<path fill="none" stroke="midnightblue" d="M555.326,-174C564.437,-174 573.476,-174 580.946,-174"/>
<polygon fill="midnightblue" stroke="midnightblue" points="555.088,-170.5 545.088,-174 555.088,-177.5 555.088,-170.5"/>
</g>
<!-- Node7 -->
<g id="node7" class="node"><title>Node7</title>
<g id="a_node7"><a xlink:href="classpdal_1_1nitfwrap_1_1NitfWrap.html#a507defc6c08af645c161ee875c58374a" target="_top" xlink:title="pdal::nitfwrap::NitfWrap\l::NitfWrap">
<polygon fill="white" stroke="black" points="315,-115 315,-145 435,-145 435,-115 315,-115"/>
<text text-anchor="start" x="323" y="-133" font-family="Helvetica,sans-Serif" font-size="10.00">pdal::nitfwrap::NitfWrap</text>
<text text-anchor="middle" x="375" y="-122" font-family="Helvetica,sans-Serif" font-size="10.00">::NitfWrap</text>
</a>
</g>
</g>
<!-- Node6&#45;&gt;Node7 -->
<g id="edge6" class="edge"><title>Node6&#45;&gt;Node7</title>
<path fill="none" stroke="midnightblue" d="M279.677,-130C291.357,-130 303.388,-130 314.785,-130"/>
<polygon fill="midnightblue" stroke="midnightblue" points="279.527,-126.5 269.527,-130 279.527,-133.5 279.527,-126.5"/>
</g>
<!-- Node9 -->
<g id="node9" class="node"><title>Node9</title>
<g id="a_node9"><a xlink:href="DimBuilder_8cpp.html#a0ddf1224851353fc92bfbff6f499fa97" target="_top" xlink:title="main">
<polygon fill="white" stroke="black" points="356,-76.5 356,-95.5 394,-95.5 394,-76.5 356,-76.5"/>
<text text-anchor="middle" x="375" y="-83.5" font-family="Helvetica,sans-Serif" font-size="10.00">main</text>
</a>
</g>
</g>
<!-- Node8&#45;&gt;Node9 -->
<g id="edge8" class="edge"><title>Node8&#45;&gt;Node9</title>
<path fill="none" stroke="midnightblue" d="M289.577,-86C314.386,-86 339.525,-86 355.839,-86"/>
<polygon fill="midnightblue" stroke="midnightblue" points="289.365,-82.5001 279.365,-86 289.365,-89.5001 289.365,-82.5001"/>
</g>
</g>
</svg>
