<?xml version="1.0" encoding="UTF-8" standalone="no"?>
<!DOCTYPE svg PUBLIC "-//W3C//DTD SVG 1.1//EN"
 "http://www.w3.org/Graphics/SVG/1.1/DTD/svg11.dtd">
<!-- Generated by graphviz version 2.38.0 (20140413.2041)
 -->
<!-- Title: pdal::LasWriter::readyLasZipCompression Pages: 1 -->
<svg width="761pt" height="180pt"
 viewBox="0.00 0.00 761.00 180.00" xmlns="http://www.w3.org/2000/svg" xmlns:xlink="http://www.w3.org/1999/xlink">
<g id="graph0" class="graph" transform="scale(1 1) rotate(0) translate(4 176)">
<title>pdal::LasWriter::readyLasZipCompression</title>
<polygon fill="white" stroke="none" points="-4,4 -4,-176 757,-176 757,4 -4,4"/>
<!-- Node1 -->
<g id="node1" class="node"><title>Node1</title>
<polygon fill="#bfbfbf" stroke="black" points="0,-71 0,-101 128,-101 128,-71 0,-71"/>
<text text-anchor="start" x="8" y="-89" font-family="Helvetica,sans-Serif" font-size="10.00">pdal::LasWriter::readyLas</text>
<text text-anchor="middle" x="64" y="-78" font-family="Helvetica,sans-Serif" font-size="10.00">ZipCompression</text>
</g>
<!-- Node2 -->
<g id="node2" class="node"><title>Node2</title>
<g id="a_node2"><a xlink:href="classpdal_1_1LasWriter.html#aee3405138c851c3ffc662e591a2bfece" target="_top" xlink:title="pdal::LasWriter::addVlr">
<polygon fill="white" stroke="black" points="179,-114.5 179,-133.5 295,-133.5 295,-114.5 179,-114.5"/>
<text text-anchor="middle" x="237" y="-121.5" font-family="Helvetica,sans-Serif" font-size="10.00">pdal::LasWriter::addVlr</text>
</a>
</g>
</g>
<!-- Node1&#45;&gt;Node2 -->
<g id="edge1" class="edge"><title>Node1&#45;&gt;Node2</title>
<path fill="none" stroke="midnightblue" d="M128.188,-100.042C146.242,-104.054 165.722,-108.383 183.092,-112.243"/>
<polygon fill="midnightblue" stroke="midnightblue" points="182.528,-115.703 193.049,-114.455 184.046,-108.869 182.528,-115.703"/>
</g>
<!-- Node6 -->
<g id="node6" class="node"><title>Node6</title>
<g id="a_node6"><a xlink:href="classpdal_1_1LasWriter.html#a37ad073f141dcf074c5dcced687feaea" target="_top" xlink:title="pdal::LasWriter::handleLaszip">
<polygon fill="white" stroke="black" points="164,-152.5 164,-171.5 310,-171.5 310,-152.5 164,-152.5"/>
<text text-anchor="middle" x="237" y="-159.5" font-family="Helvetica,sans-Serif" font-size="10.00">pdal::LasWriter::handleLaszip</text>
</a>
</g>
</g>
<!-- Node1&#45;&gt;Node6 -->
<g id="edge5" class="edge"><title>Node1&#45;&gt;Node6</title>
<path fill="none" stroke="midnightblue" d="M87.3239,-101.152C106.837,-113.824 136.304,-131.609 164,-143 169.885,-145.42 176.168,-147.612 182.479,-149.574"/>
<polygon fill="midnightblue" stroke="midnightblue" points="181.786,-153.018 192.366,-152.468 183.752,-146.3 181.786,-153.018"/>
</g>
<!-- Node7 -->
<g id="node7" class="node"><title>Node7</title>
<g id="a_node7"><a xlink:href="classpdal_1_1LasHeader.html#a6fd77c7bd324ad8ea97eb427baa7b0e1" target="_top" xlink:title="Get identifier of point data (record) format. ">
<polygon fill="white" stroke="black" points="164,-76.5 164,-95.5 310,-95.5 310,-76.5 164,-76.5"/>
<text text-anchor="middle" x="237" y="-83.5" font-family="Helvetica,sans-Serif" font-size="10.00">pdal::LasHeader::pointFormat</text>
</a>
</g>
</g>
<!-- Node1&#45;&gt;Node7 -->
<g id="edge7" class="edge"><title>Node1&#45;&gt;Node7</title>
<path fill="none" stroke="midnightblue" d="M128.188,-86C136.531,-86 145.178,-86 153.781,-86"/>
<polygon fill="midnightblue" stroke="midnightblue" points="153.839,-89.5001 163.839,-86 153.839,-82.5001 153.839,-89.5001"/>
</g>
<!-- Node8 -->
<g id="node8" class="node"><title>Node8</title>
<g id="a_node8"><a xlink:href="classpdal_1_1LasHeader.html#ac0f903b35cbf225179de41a170a644b0" target="_top" xlink:title="pdal::LasHeader::pointLen">
<polygon fill="white" stroke="black" points="171.5,-38.5 171.5,-57.5 302.5,-57.5 302.5,-38.5 171.5,-38.5"/>
<text text-anchor="middle" x="237" y="-45.5" font-family="Helvetica,sans-Serif" font-size="10.00">pdal::LasHeader::pointLen</text>
</a>
</g>
</g>
<!-- Node1&#45;&gt;Node8 -->
<g id="edge8" class="edge"><title>Node1&#45;&gt;Node8</title>
<path fill="none" stroke="midnightblue" d="M128.188,-71.9582C146.242,-67.9463 165.722,-63.6173 183.092,-59.7573"/>
<polygon fill="midnightblue" stroke="midnightblue" points="184.046,-63.1308 193.049,-57.5447 182.528,-56.2975 184.046,-63.1308"/>
</g>
<!-- Node9 -->
<g id="node9" class="node"><title>Node9</title>
<g id="a_node9"><a xlink:href="namespacepdal_1_1Dimension.html#acf81dae9d5946f3a941f9df154b2329b" target="_top" xlink:title="pdal::Dimension::size">
<polygon fill="white" stroke="black" points="181.5,-0.5 181.5,-19.5 292.5,-19.5 292.5,-0.5 181.5,-0.5"/>
<text text-anchor="middle" x="237" y="-7.5" font-family="Helvetica,sans-Serif" font-size="10.00">pdal::Dimension::size</text>
</a>
</g>
</g>
<!-- Node1&#45;&gt;Node9 -->
<g id="edge9" class="edge"><title>Node1&#45;&gt;Node9</title>
<path fill="none" stroke="midnightblue" d="M87.3239,-70.848C106.837,-58.1757 136.304,-40.3914 164,-29 169.885,-26.5797 176.168,-24.3877 182.479,-22.4257"/>
<polygon fill="midnightblue" stroke="midnightblue" points="183.752,-25.7001 192.366,-19.5322 181.786,-18.9819 183.752,-25.7001"/>
</g>
<!-- Node3 -->
<g id="node3" class="node"><title>Node3</title>
<g id="a_node3"><a xlink:href="classpdal_1_1Stage.html#abdbd1176da12dfd882d931a43290797f" target="_top" xlink:title="pdal::Stage::throwError">
<polygon fill="white" stroke="black" points="350,-152.5 350,-171.5 467,-171.5 467,-152.5 350,-152.5"/>
<text text-anchor="middle" x="408.5" y="-159.5" font-family="Helvetica,sans-Serif" font-size="10.00">pdal::Stage::throwError</text>
</a>
</g>
</g>
<!-- Node2&#45;&gt;Node3 -->
<g id="edge2" class="edge"><title>Node2&#45;&gt;Node3</title>
<path fill="none" stroke="midnightblue" d="M280.772,-133.589C303.341,-138.649 331.223,-144.9 355.083,-150.249"/>
<polygon fill="midnightblue" stroke="midnightblue" points="354.512,-153.708 365.036,-152.48 356.043,-146.877 354.512,-153.708"/>
</g>
<!-- Node5 -->
<g id="node5" class="node"><title>Node5</title>
<g id="a_node5"><a xlink:href="classpdal_1_1LasHeader.html#ace5a26c0b9358ad59ab8b5ae629ffb3f" target="_top" xlink:title="pdal::LasHeader::version\lAtLeast">
<polygon fill="white" stroke="black" points="346,-103 346,-133 471,-133 471,-103 346,-103"/>
<text text-anchor="start" x="354" y="-121" font-family="Helvetica,sans-Serif" font-size="10.00">pdal::LasHeader::version</text>
<text text-anchor="middle" x="408.5" y="-110" font-family="Helvetica,sans-Serif" font-size="10.00">AtLeast</text>
</a>
</g>
</g>
<!-- Node2&#45;&gt;Node5 -->
<g id="edge4" class="edge"><title>Node2&#45;&gt;Node5</title>
<path fill="none" stroke="midnightblue" d="M295.385,-121.969C308.319,-121.511 322.206,-121.019 335.649,-120.543"/>
<polygon fill="midnightblue" stroke="midnightblue" points="335.95,-124.035 345.82,-120.183 335.702,-117.039 335.95,-124.035"/>
</g>
<!-- Node4 -->
<g id="node4" class="node"><title>Node4</title>
<g id="a_node4"><a xlink:href="classpdal_1_1Stage.html#a6c81d6fbbac17ebe4cd63806916cc750" target="_top" xlink:title="pdal::Stage::getName">
<polygon fill="white" stroke="black" points="507,-152.5 507,-171.5 619,-171.5 619,-152.5 507,-152.5"/>
<text text-anchor="middle" x="563" y="-159.5" font-family="Helvetica,sans-Serif" font-size="10.00">pdal::Stage::getName</text>
</a>
</g>
</g>
<!-- Node3&#45;&gt;Node4 -->
<g id="edge3" class="edge"><title>Node3&#45;&gt;Node4</title>
<path fill="none" stroke="midnightblue" d="M467.154,-162C476.794,-162 486.857,-162 496.673,-162"/>
<polygon fill="midnightblue" stroke="midnightblue" points="496.786,-165.5 506.786,-162 496.786,-158.5 496.786,-165.5"/>
</g>
<!-- Node6&#45;&gt;Node3 -->
<g id="edge6" class="edge"><title>Node6&#45;&gt;Node3</title>
<path fill="none" stroke="midnightblue" d="M310.375,-162C320.089,-162 330.024,-162 339.655,-162"/>
<polygon fill="midnightblue" stroke="midnightblue" points="339.963,-165.5 349.963,-162 339.963,-158.5 339.963,-165.5"/>
</g>
<!-- Node10 -->
<g id="node10" class="node"><title>Node10</title>
<g id="a_node10"><a xlink:href="namespacepdal_1_1Utils.html#a59253304d0f929e3a3ea00f09636002f" target="_top" xlink:title="pdal::Utils::toNative">
<polygon fill="white" stroke="black" points="356.5,-0.5 356.5,-19.5 460.5,-19.5 460.5,-0.5 356.5,-0.5"/>
<text text-anchor="middle" x="408.5" y="-7.5" font-family="Helvetica,sans-Serif" font-size="10.00">pdal::Utils::toNative</text>
</a>
</g>
</g>
<!-- Node9&#45;&gt;Node10 -->
<g id="edge10" class="edge"><title>Node9&#45;&gt;Node10</title>
<path fill="none" stroke="midnightblue" d="M292.564,-10C309.715,-10 328.763,-10 346.34,-10"/>
<polygon fill="midnightblue" stroke="midnightblue" points="346.494,-13.5001 356.494,-10 346.494,-6.5001 346.494,-13.5001"/>
</g>
<!-- Node11 -->
<g id="node11" class="node"><title>Node11</title>
<g id="a_node11"><a xlink:href="namespacepdal_1_1Dimension.html#a880d689fed54aa3ded6f88c9e058c5d2" target="_top" xlink:title="pdal::Dimension::type">
<polygon fill="white" stroke="black" points="507,-0.5 507,-19.5 619,-19.5 619,-0.5 507,-0.5"/>
<text text-anchor="middle" x="563" y="-7.5" font-family="Helvetica,sans-Serif" font-size="10.00">pdal::Dimension::type</text>
</a>
</g>
</g>
<!-- Node10&#45;&gt;Node11 -->
<g id="edge11" class="edge"><title>Node10&#45;&gt;Node11</title>
<path fill="none" stroke="midnightblue" d="M460.705,-10C472.264,-10 484.688,-10 496.738,-10"/>
<polygon fill="midnightblue" stroke="midnightblue" points="496.744,-13.5001 506.744,-10 496.744,-6.5001 496.744,-13.5001"/>
</g>
<!-- Node12 -->
<g id="node12" class="node"><title>Node12</title>
<g id="a_node12"><a xlink:href="namespacepdal_1_1Utils.html#a5268937cf695835e55392f752dc02cb2" target="_top" xlink:title="pdal::Utils::tolower">
<polygon fill="white" stroke="black" points="655,-0.5 655,-19.5 753,-19.5 753,-0.5 655,-0.5"/>
<text text-anchor="middle" x="704" y="-7.5" font-family="Helvetica,sans-Serif" font-size="10.00">pdal::Utils::tolower</text>
</a>
</g>
</g>
<!-- Node11&#45;&gt;Node12 -->
<g id="edge12" class="edge"><title>Node11&#45;&gt;Node12</title>
<path fill="none" stroke="midnightblue" d="M619.336,-10C627.625,-10 636.194,-10 644.546,-10"/>
<polygon fill="midnightblue" stroke="midnightblue" points="644.59,-13.5001 654.59,-10 644.59,-6.5001 644.59,-13.5001"/>
</g>
</g>
</svg>
