<?xml version="1.0" encoding="UTF-8" standalone="no"?>
<!DOCTYPE svg PUBLIC "-//W3C//DTD SVG 1.1//EN"
 "http://www.w3.org/Graphics/SVG/1.1/DTD/svg11.dtd">
<!-- Generated by graphviz version 2.38.0 (20140413.2041)
 -->
<!-- Title: pdal::XMLSchema::xml Pages: 1 -->
<svg width="948pt" height="318pt"
 viewBox="0.00 0.00 948.00 317.50" xmlns="http://www.w3.org/2000/svg" xmlns:xlink="http://www.w3.org/1999/xlink">
<g id="graph0" class="graph" transform="scale(1 1) rotate(0) translate(4 313.5)">
<title>pdal::XMLSchema::xml</title>
<polygon fill="white" stroke="none" points="-4,4 -4,-313.5 944,-313.5 944,4 -4,4"/>
<!-- Node1 -->
<g id="node1" class="node"><title>Node1</title>
<polygon fill="#bfbfbf" stroke="black" points="0,-133.5 0,-152.5 119,-152.5 119,-133.5 0,-133.5"/>
<text text-anchor="middle" x="59.5" y="-140.5" font-family="Helvetica,sans-Serif" font-size="10.00">pdal::XMLSchema::xml</text>
</g>
<!-- Node2 -->
<g id="node2" class="node"><title>Node2</title>
<g id="a_node2"><a xlink:href="classpdal_1_1XMLSchema.html#a9148f9295b75c3db5f6fed865ccf90f6" target="_top" xlink:title="pdal::XMLSchema::writeXml">
<polygon fill="white" stroke="black" points="155,-133.5 155,-152.5 296,-152.5 296,-133.5 155,-133.5"/>
<text text-anchor="middle" x="225.5" y="-140.5" font-family="Helvetica,sans-Serif" font-size="10.00">pdal::XMLSchema::writeXml</text>
</a>
</g>
</g>
<!-- Node1&#45;&gt;Node2 -->
<g id="edge1" class="edge"><title>Node1&#45;&gt;Node2</title>
<path fill="none" stroke="midnightblue" d="M119.245,-143C127.568,-143 136.24,-143 144.877,-143"/>
<polygon fill="midnightblue" stroke="midnightblue" points="144.977,-146.5 154.977,-143 144.977,-139.5 144.977,-146.5"/>
</g>
<!-- Node3 -->
<g id="node3" class="node"><title>Node3</title>
<g id="a_node3"><a xlink:href="namespacepdal_1_1anonymous__namespace_02XMLSchema_8cpp_03.html#a9c3ad98fd8f4f67f2c954bf92591af1d" target="_top" xlink:title="pdal::anonymous_namespace\l\{XMLSchema::cpp\}::addMetadataEntry">
<polygon fill="white" stroke="black" points="332,-279 332,-309 518,-309 518,-279 332,-279"/>
<text text-anchor="start" x="340" y="-297" font-family="Helvetica,sans-Serif" font-size="10.00">pdal::anonymous_namespace</text>
<text text-anchor="middle" x="425" y="-286" font-family="Helvetica,sans-Serif" font-size="10.00">{XMLSchema::cpp}::addMetadataEntry</text>
</a>
</g>
</g>
<!-- Node2&#45;&gt;Node3 -->
<g id="edge2" class="edge"><title>Node2&#45;&gt;Node3</title>
<path fill="none" stroke="midnightblue" d="M231.723,-152.599C245.094,-176.239 282.985,-237.615 332,-269 335.184,-271.039 338.533,-272.913 341.991,-274.635"/>
<polygon fill="midnightblue" stroke="midnightblue" points="340.807,-277.941 351.363,-278.849 343.678,-271.556 340.807,-277.941"/>
</g>
<!-- Node5 -->
<g id="node5" class="node"><title>Node5</title>
<g id="a_node5"><a xlink:href="namespacepdal_1_1Dimension.html#a4041a0eeee0ca503caad91db24affa0e" target="_top" xlink:title="pdal::Dimension::description">
<polygon fill="white" stroke="black" points="355,-240.5 355,-259.5 495,-259.5 495,-240.5 355,-240.5"/>
<text text-anchor="middle" x="425" y="-247.5" font-family="Helvetica,sans-Serif" font-size="10.00">pdal::Dimension::description</text>
</a>
</g>
</g>
<!-- Node2&#45;&gt;Node5 -->
<g id="edge4" class="edge"><title>Node2&#45;&gt;Node5</title>
<path fill="none" stroke="midnightblue" d="M234.99,-152.732C251.63,-171.14 290.538,-211.001 332,-231 337.05,-233.436 342.402,-235.56 347.885,-237.412"/>
<polygon fill="midnightblue" stroke="midnightblue" points="347.27,-240.884 357.857,-240.461 349.317,-234.19 347.27,-240.884"/>
</g>
<!-- Node6 -->
<g id="node6" class="node"><title>Node6</title>
<g id="a_node6"><a xlink:href="classpdal_1_1MetadataNode.html#a097ca6118bd2432005d1815dc23c6c1f" target="_top" xlink:title="pdal::MetadataNode\l::empty">
<polygon fill="white" stroke="black" points="373,-191 373,-221 477,-221 477,-191 373,-191"/>
<text text-anchor="start" x="381" y="-209" font-family="Helvetica,sans-Serif" font-size="10.00">pdal::MetadataNode</text>
<text text-anchor="middle" x="425" y="-198" font-family="Helvetica,sans-Serif" font-size="10.00">::empty</text>
</a>
</g>
</g>
<!-- Node2&#45;&gt;Node6 -->
<g id="edge5" class="edge"><title>Node2&#45;&gt;Node6</title>
<path fill="none" stroke="midnightblue" d="M251.46,-152.632C272.717,-160.68 304.151,-172.216 332,-181 341.928,-184.131 352.532,-187.233 362.879,-190.131"/>
<polygon fill="midnightblue" stroke="midnightblue" points="362.12,-193.552 372.691,-192.841 363.984,-186.805 362.12,-193.552"/>
</g>
<!-- Node7 -->
<g id="node7" class="node"><title>Node7</title>
<g id="a_node7"><a xlink:href="namespacepdal_1_1Dimension.html#acc41232ae1e707d6c928ffb9a56592d3" target="_top" xlink:title="pdal::Dimension::interpretationName">
<polygon fill="white" stroke="black" points="337,-152.5 337,-171.5 513,-171.5 513,-152.5 337,-152.5"/>
<text text-anchor="middle" x="425" y="-159.5" font-family="Helvetica,sans-Serif" font-size="10.00">pdal::Dimension::interpretationName</text>
</a>
</g>
</g>
<!-- Node2&#45;&gt;Node7 -->
<g id="edge6" class="edge"><title>Node2&#45;&gt;Node7</title>
<path fill="none" stroke="midnightblue" d="M296.131,-149.699C305.96,-150.644 316.211,-151.63 326.445,-152.615"/>
<polygon fill="midnightblue" stroke="midnightblue" points="326.368,-156.124 336.657,-153.597 327.038,-149.156 326.368,-156.124"/>
</g>
<!-- Node8 -->
<g id="node8" class="node"><title>Node8</title>
<g id="a_node8"><a xlink:href="namespacepdal_1_1Dimension.html#af3176b0b7e6b4be000317846cf7c2718" target="_top" xlink:title="pdal::Dimension::name">
<polygon fill="white" stroke="black" points="366.5,-114.5 366.5,-133.5 483.5,-133.5 483.5,-114.5 366.5,-114.5"/>
<text text-anchor="middle" x="425" y="-121.5" font-family="Helvetica,sans-Serif" font-size="10.00">pdal::Dimension::name</text>
</a>
</g>
</g>
<!-- Node2&#45;&gt;Node8 -->
<g id="edge7" class="edge"><title>Node2&#45;&gt;Node8</title>
<path fill="none" stroke="midnightblue" d="M296.131,-136.301C315.708,-134.418 336.961,-132.373 356.416,-130.502"/>
<polygon fill="midnightblue" stroke="midnightblue" points="356.788,-133.982 366.407,-129.541 356.118,-127.014 356.788,-133.982"/>
</g>
<!-- Node9 -->
<g id="node9" class="node"><title>Node9</title>
<g id="a_node9"><a xlink:href="structpdal_1_1XForm.html#aa8911e8618efef91038c0b4d1e37c331" target="_top" xlink:title="pdal::XForm::nonstandard">
<polygon fill="white" stroke="black" points="360.5,-76.5 360.5,-95.5 489.5,-95.5 489.5,-76.5 360.5,-76.5"/>
<text text-anchor="middle" x="425" y="-83.5" font-family="Helvetica,sans-Serif" font-size="10.00">pdal::XForm::nonstandard</text>
</a>
</g>
</g>
<!-- Node2&#45;&gt;Node9 -->
<g id="edge8" class="edge"><title>Node2&#45;&gt;Node9</title>
<path fill="none" stroke="midnightblue" d="M250.069,-133.419C271.246,-125.075 303.331,-113.079 332,-105 341.419,-102.346 351.476,-99.8919 361.355,-97.6904"/>
<polygon fill="midnightblue" stroke="midnightblue" points="362.11,-101.108 371.145,-95.5749 360.631,-94.2661 362.11,-101.108"/>
</g>
<!-- Node10 -->
<g id="node10" class="node"><title>Node10</title>
<g id="a_node10"><a xlink:href="classpdal_1_1XMLSchema.html#a9b9265cfb89000cbc60013d785f14a89" target="_top" xlink:title="pdal::XMLSchema::orientation">
<polygon fill="white" stroke="black" points="351,-38.5 351,-57.5 499,-57.5 499,-38.5 351,-38.5"/>
<text text-anchor="middle" x="425" y="-45.5" font-family="Helvetica,sans-Serif" font-size="10.00">pdal::XMLSchema::orientation</text>
</a>
</g>
</g>
<!-- Node2&#45;&gt;Node10 -->
<g id="edge9" class="edge"><title>Node2&#45;&gt;Node10</title>
<path fill="none" stroke="midnightblue" d="M236.653,-133.375C254.462,-117.056 293.146,-84.0706 332,-67 337.781,-64.4599 343.918,-62.2536 350.171,-60.3381"/>
<polygon fill="midnightblue" stroke="midnightblue" points="351.377,-63.635 360.058,-57.5614 349.484,-56.8957 351.377,-63.635"/>
</g>
<!-- Node11 -->
<g id="node11" class="node"><title>Node11</title>
<g id="a_node11"><a xlink:href="namespacepdal_1_1Dimension.html#acf81dae9d5946f3a941f9df154b2329b" target="_top" xlink:title="pdal::Dimension::size">
<polygon fill="white" stroke="black" points="369.5,-0.5 369.5,-19.5 480.5,-19.5 480.5,-0.5 369.5,-0.5"/>
<text text-anchor="middle" x="425" y="-7.5" font-family="Helvetica,sans-Serif" font-size="10.00">pdal::Dimension::size</text>
</a>
</g>
</g>
<!-- Node2&#45;&gt;Node11 -->
<g id="edge10" class="edge"><title>Node2&#45;&gt;Node11</title>
<path fill="none" stroke="midnightblue" d="M232.27,-133.497C246.301,-111.275 284.563,-55.7763 332,-29 340.433,-24.2399 349.903,-20.6658 359.476,-17.9836"/>
<polygon fill="midnightblue" stroke="midnightblue" points="360.592,-21.3126 369.449,-15.499 358.9,-14.5202 360.592,-21.3126"/>
</g>
<!-- Node4 -->
<g id="node4" class="node"><title>Node4</title>
<g id="a_node4"><a xlink:href="classpdal_1_1MetadataNode.html#ab86b0ccbf27f9eee29cbb5252e9431b7" target="_top" xlink:title="pdal::MetadataNode\l::children">
<polygon fill="white" stroke="black" points="554,-279 554,-309 658,-309 658,-279 554,-279"/>
<text text-anchor="start" x="562" y="-297" font-family="Helvetica,sans-Serif" font-size="10.00">pdal::MetadataNode</text>
<text text-anchor="middle" x="606" y="-286" font-family="Helvetica,sans-Serif" font-size="10.00">::children</text>
</a>
</g>
</g>
<!-- Node3&#45;&gt;Node4 -->
<g id="edge3" class="edge"><title>Node3&#45;&gt;Node4</title>
<path fill="none" stroke="midnightblue" d="M518.122,-294C526.795,-294 535.436,-294 543.717,-294"/>
<polygon fill="midnightblue" stroke="midnightblue" points="543.99,-297.5 553.99,-294 543.99,-290.5 543.99,-297.5"/>
</g>
<!-- Node12 -->
<g id="node12" class="node"><title>Node12</title>
<g id="a_node12"><a xlink:href="namespacepdal_1_1Utils.html#a59253304d0f929e3a3ea00f09636002f" target="_top" xlink:title="pdal::Utils::toNative">
<polygon fill="white" stroke="black" points="554,-0.5 554,-19.5 658,-19.5 658,-0.5 554,-0.5"/>
<text text-anchor="middle" x="606" y="-7.5" font-family="Helvetica,sans-Serif" font-size="10.00">pdal::Utils::toNative</text>
</a>
</g>
</g>
<!-- Node11&#45;&gt;Node12 -->
<g id="edge11" class="edge"><title>Node11&#45;&gt;Node12</title>
<path fill="none" stroke="midnightblue" d="M480.679,-10C500.556,-10 523.149,-10 543.571,-10"/>
<polygon fill="midnightblue" stroke="midnightblue" points="543.713,-13.5001 553.713,-10 543.713,-6.5001 543.713,-13.5001"/>
</g>
<!-- Node13 -->
<g id="node13" class="node"><title>Node13</title>
<g id="a_node13"><a xlink:href="namespacepdal_1_1Dimension.html#a880d689fed54aa3ded6f88c9e058c5d2" target="_top" xlink:title="pdal::Dimension::type">
<polygon fill="white" stroke="black" points="694,-0.5 694,-19.5 806,-19.5 806,-0.5 694,-0.5"/>
<text text-anchor="middle" x="750" y="-7.5" font-family="Helvetica,sans-Serif" font-size="10.00">pdal::Dimension::type</text>
</a>
</g>
</g>
<!-- Node12&#45;&gt;Node13 -->
<g id="edge12" class="edge"><title>Node12&#45;&gt;Node13</title>
<path fill="none" stroke="midnightblue" d="M658.265,-10C666.602,-10 675.332,-10 683.946,-10"/>
<polygon fill="midnightblue" stroke="midnightblue" points="683.972,-13.5001 693.972,-10 683.972,-6.5001 683.972,-13.5001"/>
</g>
<!-- Node14 -->
<g id="node14" class="node"><title>Node14</title>
<g id="a_node14"><a xlink:href="namespacepdal_1_1Utils.html#a5268937cf695835e55392f752dc02cb2" target="_top" xlink:title="pdal::Utils::tolower">
<polygon fill="white" stroke="black" points="842,-0.5 842,-19.5 940,-19.5 940,-0.5 842,-0.5"/>
<text text-anchor="middle" x="891" y="-7.5" font-family="Helvetica,sans-Serif" font-size="10.00">pdal::Utils::tolower</text>
</a>
</g>
</g>
<!-- Node13&#45;&gt;Node14 -->
<g id="edge13" class="edge"><title>Node13&#45;&gt;Node14</title>
<path fill="none" stroke="midnightblue" d="M806.336,-10C814.625,-10 823.194,-10 831.546,-10"/>
<polygon fill="midnightblue" stroke="midnightblue" points="831.59,-13.5001 841.59,-10 831.59,-6.5001 831.59,-13.5001"/>
</g>
</g>
</svg>
