<?xml version="1.0" encoding="UTF-8" standalone="no"?>
<!DOCTYPE svg PUBLIC "-//W3C//DTD SVG 1.1//EN"
 "http://www.w3.org/Graphics/SVG/1.1/DTD/svg11.dtd">
<!-- Generated by graphviz version 2.38.0 (20140413.2041)
 -->
<!-- Title: pdal::gdal::Geometry::Geometry Pages: 1 -->
<svg width="449pt" height="127pt"
 viewBox="0.00 0.00 449.00 127.00" xmlns="http://www.w3.org/2000/svg" xmlns:xlink="http://www.w3.org/1999/xlink">
<g id="graph0" class="graph" transform="scale(1 1) rotate(0) translate(4 123)">
<title>pdal::gdal::Geometry::Geometry</title>
<polygon fill="white" stroke="none" points="-4,4 -4,-123 445,-123 445,4 -4,4"/>
<!-- Node1 -->
<g id="node1" class="node"><title>Node1</title>
<polygon fill="#bfbfbf" stroke="black" points="0,-44.5 0,-74.5 107,-74.5 107,-44.5 0,-44.5"/>
<text text-anchor="start" x="8" y="-62.5" font-family="Helvetica,sans-Serif" font-size="10.00">pdal::gdal::Geometry</text>
<text text-anchor="middle" x="53.5" y="-51.5" font-family="Helvetica,sans-Serif" font-size="10.00">::Geometry</text>
</g>
<!-- Node2 -->
<g id="node2" class="node"><title>Node2</title>
<g id="a_node2"><a xlink:href="classpdal_1_1gdal_1_1SpatialRef.html#a7c333d474f0897a3db6089a494c14dce" target="_top" xlink:title="pdal::gdal::SpatialRef\l::empty">
<polygon fill="white" stroke="black" points="153,-88.5 153,-118.5 263,-118.5 263,-88.5 153,-88.5"/>
<text text-anchor="start" x="161" y="-106.5" font-family="Helvetica,sans-Serif" font-size="10.00">pdal::gdal::SpatialRef</text>
<text text-anchor="middle" x="208" y="-95.5" font-family="Helvetica,sans-Serif" font-size="10.00">::empty</text>
</a>
</g>
</g>
<!-- Node1&#45;&gt;Node2 -->
<g id="edge1" class="edge"><title>Node1&#45;&gt;Node2</title>
<path fill="none" stroke="midnightblue" d="M106.555,-74.5192C119.001,-78.11 132.405,-81.9776 145.241,-85.681"/>
<polygon fill="midnightblue" stroke="midnightblue" points="144.342,-89.0644 154.921,-88.4738 146.283,-82.3387 144.342,-89.0644"/>
</g>
<!-- Node4 -->
<g id="node4" class="node"><title>Node4</title>
<g id="a_node4"><a xlink:href="classpdal_1_1gdal_1_1SpatialRef.html#a6e9fd085183596f638066f2ef30c99ab" target="_top" xlink:title="pdal::gdal::SpatialRef::get">
<polygon fill="white" stroke="black" points="143,-50 143,-69 273,-69 273,-50 143,-50"/>
<text text-anchor="middle" x="208" y="-57" font-family="Helvetica,sans-Serif" font-size="10.00">pdal::gdal::SpatialRef::get</text>
</a>
</g>
</g>
<!-- Node1&#45;&gt;Node4 -->
<g id="edge3" class="edge"><title>Node1&#45;&gt;Node4</title>
<path fill="none" stroke="midnightblue" d="M107.409,-59.5C115.633,-59.5 124.257,-59.5 132.846,-59.5"/>
<polygon fill="midnightblue" stroke="midnightblue" points="132.886,-63.0001 142.886,-59.5 132.886,-56.0001 132.886,-63.0001"/>
</g>
<!-- Node5 -->
<g id="node5" class="node"><title>Node5</title>
<g id="a_node5"><a xlink:href="classpdal_1_1gdal_1_1SpatialRef.html#a8f05965b54cf00f39186887598948d62" target="_top" xlink:title="pdal::gdal::SpatialRef\l::newRef">
<polygon fill="white" stroke="black" points="153,-0.5 153,-30.5 263,-30.5 263,-0.5 153,-0.5"/>
<text text-anchor="start" x="161" y="-18.5" font-family="Helvetica,sans-Serif" font-size="10.00">pdal::gdal::SpatialRef</text>
<text text-anchor="middle" x="208" y="-7.5" font-family="Helvetica,sans-Serif" font-size="10.00">::newRef</text>
</a>
</g>
</g>
<!-- Node1&#45;&gt;Node5 -->
<g id="edge4" class="edge"><title>Node1&#45;&gt;Node5</title>
<path fill="none" stroke="midnightblue" d="M106.555,-44.4808C119.001,-40.89 132.405,-37.0224 145.241,-33.319"/>
<polygon fill="midnightblue" stroke="midnightblue" points="146.283,-36.6613 154.921,-30.5262 144.342,-29.9356 146.283,-36.6613"/>
</g>
<!-- Node3 -->
<g id="node3" class="node"><title>Node3</title>
<g id="a_node3"><a xlink:href="classpdal_1_1gdal_1_1SpatialRef.html#a2276a16d9f75c7ae8cab6d11572aa0dd" target="_top" xlink:title="pdal::gdal::SpatialRef::wkt">
<polygon fill="white" stroke="black" points="309,-94 309,-113 441,-113 441,-94 309,-94"/>
<text text-anchor="middle" x="375" y="-101" font-family="Helvetica,sans-Serif" font-size="10.00">pdal::gdal::SpatialRef::wkt</text>
</a>
</g>
</g>
<!-- Node2&#45;&gt;Node3 -->
<g id="edge2" class="edge"><title>Node2&#45;&gt;Node3</title>
<path fill="none" stroke="midnightblue" d="M263.027,-103.5C274.482,-103.5 286.771,-103.5 298.849,-103.5"/>
<polygon fill="midnightblue" stroke="midnightblue" points="298.921,-107 308.921,-103.5 298.921,-100 298.921,-107"/>
</g>
</g>
</svg>
