<?xml version="1.0" encoding="UTF-8" standalone="no"?>
<!DOCTYPE svg PUBLIC "-//W3C//DTD SVG 1.1//EN"
 "http://www.w3.org/Graphics/SVG/1.1/DTD/svg11.dtd">
<!-- Generated by graphviz version 2.38.0 (20140413.2041)
 -->
<!-- Title: pdal::PlyWriter::writeValue Pages: 1 -->
<svg width="942pt" height="218pt"
 viewBox="0.00 0.00 942.00 218.00" xmlns="http://www.w3.org/2000/svg" xmlns:xlink="http://www.w3.org/1999/xlink">
<g id="graph0" class="graph" transform="scale(1 1) rotate(0) translate(4 214)">
<title>pdal::PlyWriter::writeValue</title>
<polygon fill="white" stroke="none" points="-4,4 -4,-214 938,-214 938,4 -4,4"/>
<!-- Node1 -->
<g id="node1" class="node"><title>Node1</title>
<polygon fill="#bfbfbf" stroke="black" points="0,-95.5 0,-114.5 133,-114.5 133,-95.5 0,-95.5"/>
<text text-anchor="middle" x="66.5" y="-102.5" font-family="Helvetica,sans-Serif" font-size="10.00">pdal::PlyWriter::writeValue</text>
</g>
<!-- Node2 -->
<g id="node2" class="node"><title>Node2</title>
<g id="a_node2"><a xlink:href="classpdal_1_1PointRef.html#aad07ead440276ae8684e560ab631c2cf" target="_top" xlink:title="pdal::PointRef::getField">
<polygon fill="white" stroke="black" points="175,-171.5 175,-190.5 294,-190.5 294,-171.5 175,-171.5"/>
<text text-anchor="middle" x="234.5" y="-178.5" font-family="Helvetica,sans-Serif" font-size="10.00">pdal::PointRef::getField</text>
</a>
</g>
</g>
<!-- Node1&#45;&gt;Node2 -->
<g id="edge1" class="edge"><title>Node1&#45;&gt;Node2</title>
<path fill="none" stroke="midnightblue" d="M88.524,-114.625C117.586,-127.931 170.201,-152.02 203.418,-167.228"/>
<polygon fill="midnightblue" stroke="midnightblue" points="202.097,-170.472 212.647,-171.453 205.011,-164.108 202.097,-170.472"/>
</g>
<!-- Node7 -->
<g id="node7" class="node"><title>Node7</title>
<g id="a_node7"><a xlink:href="classpdal_1_1PointRef.html#a4038a597d11918978943e286d58cd4c5" target="_top" xlink:title="pdal::PointRef::getFieldAs">
<polygon fill="white" stroke="black" points="169,-95.5 169,-114.5 300,-114.5 300,-95.5 169,-95.5"/>
<text text-anchor="middle" x="234.5" y="-102.5" font-family="Helvetica,sans-Serif" font-size="10.00">pdal::PointRef::getFieldAs</text>
</a>
</g>
</g>
<!-- Node1&#45;&gt;Node7 -->
<g id="edge6" class="edge"><title>Node1&#45;&gt;Node7</title>
<path fill="none" stroke="midnightblue" d="M133.108,-105C141.575,-105 150.296,-105 158.895,-105"/>
<polygon fill="midnightblue" stroke="midnightblue" points="158.912,-108.5 168.912,-105 158.912,-101.5 158.912,-108.5"/>
</g>
<!-- Node13 -->
<g id="node13" class="node"><title>Node13</title>
<g id="a_node13"><a xlink:href="namespacepdal_1_1Utils.html#aef7c4c4e9e8293317fdc299dff2067f9" target="_top" xlink:title="pdal::Utils::insertDim">
<polygon fill="white" stroke="black" points="180,-57.5 180,-76.5 289,-76.5 289,-57.5 180,-57.5"/>
<text text-anchor="middle" x="234.5" y="-64.5" font-family="Helvetica,sans-Serif" font-size="10.00">pdal::Utils::insertDim</text>
</a>
</g>
</g>
<!-- Node1&#45;&gt;Node13 -->
<g id="edge13" class="edge"><title>Node1&#45;&gt;Node13</title>
<path fill="none" stroke="midnightblue" d="M109.389,-95.411C131.393,-90.3739 158.555,-84.1562 181.852,-78.8229"/>
<polygon fill="midnightblue" stroke="midnightblue" points="182.946,-82.1633 191.912,-76.5201 181.384,-75.3398 182.946,-82.1633"/>
</g>
<!-- Node3 -->
<g id="node3" class="node"><title>Node3</title>
<g id="a_node3"><a xlink:href="namespacepdal_1_1Dimension.html#acf81dae9d5946f3a941f9df154b2329b" target="_top" xlink:title="pdal::Dimension::size">
<polygon fill="white" stroke="black" points="368.5,-190.5 368.5,-209.5 479.5,-209.5 479.5,-190.5 368.5,-190.5"/>
<text text-anchor="middle" x="424" y="-197.5" font-family="Helvetica,sans-Serif" font-size="10.00">pdal::Dimension::size</text>
</a>
</g>
</g>
<!-- Node2&#45;&gt;Node3 -->
<g id="edge2" class="edge"><title>Node2&#45;&gt;Node3</title>
<path fill="none" stroke="midnightblue" d="M294.055,-186.934C314.462,-189.001 337.472,-191.333 358.346,-193.448"/>
<polygon fill="midnightblue" stroke="midnightblue" points="358.099,-196.941 368.401,-194.467 358.804,-189.977 358.099,-196.941"/>
</g>
<!-- Node4 -->
<g id="node4" class="node"><title>Node4</title>
<g id="a_node4"><a xlink:href="namespacepdal_1_1Utils.html#a59253304d0f929e3a3ea00f09636002f" target="_top" xlink:title="pdal::Utils::toNative">
<polygon fill="white" stroke="black" points="548,-190.5 548,-209.5 652,-209.5 652,-190.5 548,-190.5"/>
<text text-anchor="middle" x="600" y="-197.5" font-family="Helvetica,sans-Serif" font-size="10.00">pdal::Utils::toNative</text>
</a>
</g>
</g>
<!-- Node3&#45;&gt;Node4 -->
<g id="edge3" class="edge"><title>Node3&#45;&gt;Node4</title>
<path fill="none" stroke="midnightblue" d="M479.577,-200C498.079,-200 518.863,-200 537.843,-200"/>
<polygon fill="midnightblue" stroke="midnightblue" points="537.877,-203.5 547.877,-200 537.877,-196.5 537.877,-203.5"/>
</g>
<!-- Node5 -->
<g id="node5" class="node"><title>Node5</title>
<g id="a_node5"><a xlink:href="namespacepdal_1_1Dimension.html#a880d689fed54aa3ded6f88c9e058c5d2" target="_top" xlink:title="pdal::Dimension::type">
<polygon fill="white" stroke="black" points="688,-171.5 688,-190.5 800,-190.5 800,-171.5 688,-171.5"/>
<text text-anchor="middle" x="744" y="-178.5" font-family="Helvetica,sans-Serif" font-size="10.00">pdal::Dimension::type</text>
</a>
</g>
</g>
<!-- Node4&#45;&gt;Node5 -->
<g id="edge4" class="edge"><title>Node4&#45;&gt;Node5</title>
<path fill="none" stroke="midnightblue" d="M652.265,-193.141C660.602,-192.025 669.332,-190.857 677.946,-189.704"/>
<polygon fill="midnightblue" stroke="midnightblue" points="678.525,-193.158 687.972,-188.363 677.596,-186.22 678.525,-193.158"/>
</g>
<!-- Node6 -->
<g id="node6" class="node"><title>Node6</title>
<g id="a_node6"><a xlink:href="namespacepdal_1_1Utils.html#a5268937cf695835e55392f752dc02cb2" target="_top" xlink:title="pdal::Utils::tolower">
<polygon fill="white" stroke="black" points="836,-171.5 836,-190.5 934,-190.5 934,-171.5 836,-171.5"/>
<text text-anchor="middle" x="885" y="-178.5" font-family="Helvetica,sans-Serif" font-size="10.00">pdal::Utils::tolower</text>
</a>
</g>
</g>
<!-- Node5&#45;&gt;Node6 -->
<g id="edge5" class="edge"><title>Node5&#45;&gt;Node6</title>
<path fill="none" stroke="midnightblue" d="M800.336,-181C808.625,-181 817.194,-181 825.546,-181"/>
<polygon fill="midnightblue" stroke="midnightblue" points="825.59,-184.5 835.59,-181 825.59,-177.5 825.59,-184.5"/>
</g>
<!-- Node7&#45;&gt;Node5 -->
<g id="edge7" class="edge"><title>Node7&#45;&gt;Node5</title>
<path fill="none" stroke="midnightblue" d="M255.784,-114.523C275.733,-123.44 307.286,-136.359 336,-143 454.522,-170.413 596.804,-178.152 677.886,-180.274"/>
<polygon fill="midnightblue" stroke="midnightblue" points="677.865,-183.774 687.947,-180.517 678.034,-176.776 677.865,-183.774"/>
</g>
<!-- Node8 -->
<g id="node8" class="node"><title>Node8</title>
<g id="a_node8"><a xlink:href="namespacepdal_1_1Utils.html#a33d614ac71aa03aaa5c10a242c4d14ac" target="_top" xlink:title="pdal::Utils::numericCast">
<polygon fill="white" stroke="black" points="363,-114.5 363,-133.5 485,-133.5 485,-114.5 363,-114.5"/>
<text text-anchor="middle" x="424" y="-121.5" font-family="Helvetica,sans-Serif" font-size="10.00">pdal::Utils::numericCast</text>
</a>
</g>
</g>
<!-- Node7&#45;&gt;Node8 -->
<g id="edge8" class="edge"><title>Node7&#45;&gt;Node8</title>
<path fill="none" stroke="midnightblue" d="M300.027,-111.539C317.029,-113.262 335.456,-115.129 352.743,-116.881"/>
<polygon fill="midnightblue" stroke="midnightblue" points="352.469,-120.371 362.771,-117.897 353.175,-113.406 352.469,-120.371"/>
</g>
<!-- Node10 -->
<g id="node10" class="node"><title>Node10</title>
<g id="a_node10"><a xlink:href="namespacepdal_1_1Dimension.html#af3176b0b7e6b4be000317846cf7c2718" target="_top" xlink:title="pdal::Dimension::name">
<polygon fill="white" stroke="black" points="365.5,-76.5 365.5,-95.5 482.5,-95.5 482.5,-76.5 365.5,-76.5"/>
<text text-anchor="middle" x="424" y="-83.5" font-family="Helvetica,sans-Serif" font-size="10.00">pdal::Dimension::name</text>
</a>
</g>
</g>
<!-- Node7&#45;&gt;Node10 -->
<g id="edge10" class="edge"><title>Node7&#45;&gt;Node10</title>
<path fill="none" stroke="midnightblue" d="M300.027,-98.4613C317.82,-96.6582 337.174,-94.6971 355.149,-92.8756"/>
<polygon fill="midnightblue" stroke="midnightblue" points="355.666,-96.3412 365.262,-91.8508 354.96,-89.3769 355.666,-96.3412"/>
</g>
<!-- Node11 -->
<g id="node11" class="node"><title>Node11</title>
<g id="a_node11"><a xlink:href="namespacepdal_1_1Dimension.html#acc41232ae1e707d6c928ffb9a56592d3" target="_top" xlink:title="pdal::Dimension::interpretationName">
<polygon fill="white" stroke="black" points="336,-38.5 336,-57.5 512,-57.5 512,-38.5 336,-38.5"/>
<text text-anchor="middle" x="424" y="-45.5" font-family="Helvetica,sans-Serif" font-size="10.00">pdal::Dimension::interpretationName</text>
</a>
</g>
</g>
<!-- Node7&#45;&gt;Node11 -->
<g id="edge11" class="edge"><title>Node7&#45;&gt;Node11</title>
<path fill="none" stroke="midnightblue" d="M272.434,-95.494C281.566,-92.7698 291.24,-89.5603 300,-86 316.76,-79.188 319.007,-73.209 336,-67 343.249,-64.3512 350.98,-62.0129 358.728,-59.9648"/>
<polygon fill="midnightblue" stroke="midnightblue" points="359.66,-63.3395 368.517,-57.5242 357.967,-56.5474 359.66,-63.3395"/>
</g>
<!-- Node12 -->
<g id="node12" class="node"><title>Node12</title>
<g id="a_node12"><a xlink:href="namespacepdal_1_1Utils.html#a9b5b9ef216d7036c7cb36d219af17925" target="_top" xlink:title="pdal::Utils::toDouble">
<polygon fill="white" stroke="black" points="371,-0.5 371,-19.5 477,-19.5 477,-0.5 371,-0.5"/>
<text text-anchor="middle" x="424" y="-7.5" font-family="Helvetica,sans-Serif" font-size="10.00">pdal::Utils::toDouble</text>
</a>
</g>
</g>
<!-- Node7&#45;&gt;Node12 -->
<g id="edge12" class="edge"><title>Node7&#45;&gt;Node12</title>
<path fill="none" stroke="midnightblue" d="M282.873,-95.4116C288.978,-92.9543 294.877,-89.8701 300,-86 323.908,-67.9391 311.462,-46.1954 336,-29 343.531,-23.7223 352.26,-19.8714 361.223,-17.0692"/>
<polygon fill="midnightblue" stroke="midnightblue" points="362.258,-20.4151 370.995,-14.4223 360.427,-13.6586 362.258,-20.4151"/>
</g>
<!-- Node9 -->
<g id="node9" class="node"><title>Node9</title>
<g id="a_node9"><a xlink:href="namespacepdal_1_1Utils.html#a06833597f1fc4287966cfa0867128e59" target="_top" xlink:title="pdal::Utils::sround">
<polygon fill="white" stroke="black" points="552,-114.5 552,-133.5 648,-133.5 648,-114.5 552,-114.5"/>
<text text-anchor="middle" x="600" y="-121.5" font-family="Helvetica,sans-Serif" font-size="10.00">pdal::Utils::sround</text>
</a>
</g>
</g>
<!-- Node8&#45;&gt;Node9 -->
<g id="edge9" class="edge"><title>Node8&#45;&gt;Node9</title>
<path fill="none" stroke="midnightblue" d="M485.368,-124C503.669,-124 523.709,-124 541.796,-124"/>
<polygon fill="midnightblue" stroke="midnightblue" points="541.904,-127.5 551.904,-124 541.904,-120.5 541.904,-127.5"/>
</g>
</g>
</svg>
