<?xml version="1.0" encoding="UTF-8" standalone="no"?>
<!DOCTYPE svg PUBLIC "-//W3C//DTD SVG 1.1//EN"
 "http://www.w3.org/Graphics/SVG/1.1/DTD/svg11.dtd">
<!-- Generated by graphviz version 2.38.0 (20140413.2041)
 -->
<!-- Title: pdal::NitfFileReader::locateLidarImageSegment Pages: 1 -->
<svg width="605pt" height="78pt"
 viewBox="0.00 0.00 605.00 77.50" xmlns="http://www.w3.org/2000/svg" xmlns:xlink="http://www.w3.org/1999/xlink">
<g id="graph0" class="graph" transform="scale(1 1) rotate(0) translate(4 73.5)">
<title>pdal::NitfFileReader::locateLidarImageSegment</title>
<polygon fill="white" stroke="none" points="-4,4 -4,-73.5 601,-73.5 601,4 -4,4"/>
<!-- Node1 -->
<g id="node1" class="node"><title>Node1</title>
<polygon fill="#bfbfbf" stroke="black" points="0,-22.5 0,-52.5 136,-52.5 136,-22.5 0,-22.5"/>
<text text-anchor="start" x="8" y="-40.5" font-family="Helvetica,sans-Serif" font-size="10.00">pdal::NitfFileReader</text>
<text text-anchor="middle" x="68" y="-29.5" font-family="Helvetica,sans-Serif" font-size="10.00">::locateLidarImageSegment</text>
</g>
<!-- Node2 -->
<g id="node2" class="node"><title>Node2</title>
<g id="a_node2"><a xlink:href="classpdal_1_1NitfFileReader.html#a2ac3911bf92cf8ac2a4c2c8046adf050" target="_top" xlink:title="pdal::NitfFileReader\l::open">
<polygon fill="white" stroke="black" points="172,-22.5 172,-52.5 276,-52.5 276,-22.5 172,-22.5"/>
<text text-anchor="start" x="180" y="-40.5" font-family="Helvetica,sans-Serif" font-size="10.00">pdal::NitfFileReader</text>
<text text-anchor="middle" x="224" y="-29.5" font-family="Helvetica,sans-Serif" font-size="10.00">::open</text>
</a>
</g>
</g>
<!-- Node1&#45;&gt;Node2 -->
<g id="edge1" class="edge"><title>Node1&#45;&gt;Node2</title>
<path fill="none" stroke="midnightblue" d="M146.271,-37.5C154.957,-37.5 163.639,-37.5 171.874,-37.5"/>
<polygon fill="midnightblue" stroke="midnightblue" points="146.099,-34.0001 136.099,-37.5 146.099,-41.0001 146.099,-34.0001"/>
</g>
<!-- Node3 -->
<g id="node3" class="node"><title>Node3</title>
<g id="a_node3"><a xlink:href="classpdal_1_1NitfReader.html#aff135fa0b6888020a5de9eb33e2d7fea" target="_top" xlink:title="pdal::NitfReader::initialize">
<polygon fill="white" stroke="black" points="312,-50 312,-69 441,-69 441,-50 312,-50"/>
<text text-anchor="middle" x="376.5" y="-57" font-family="Helvetica,sans-Serif" font-size="10.00">pdal::NitfReader::initialize</text>
</a>
</g>
</g>
<!-- Node2&#45;&gt;Node3 -->
<g id="edge2" class="edge"><title>Node2&#45;&gt;Node3</title>
<path fill="none" stroke="midnightblue" d="M286.443,-46.4818C294.82,-47.7062 303.432,-48.9652 311.847,-50.1952"/>
<polygon fill="midnightblue" stroke="midnightblue" points="286.774,-42.9929 276.373,-45.0096 285.761,-49.9193 286.774,-42.9929"/>
</g>
<!-- Node4 -->
<g id="node4" class="node"><title>Node4</title>
<g id="a_node4"><a xlink:href="classpdal_1_1nitfwrap_1_1NitfWrap.html#a427c1cc359051aed8f90ec5ba317de89" target="_top" xlink:title="pdal::nitfwrap::NitfWrap\l::unwrap">
<polygon fill="white" stroke="black" points="316.5,-0.5 316.5,-30.5 436.5,-30.5 436.5,-0.5 316.5,-0.5"/>
<text text-anchor="start" x="324.5" y="-18.5" font-family="Helvetica,sans-Serif" font-size="10.00">pdal::nitfwrap::NitfWrap</text>
<text text-anchor="middle" x="376.5" y="-7.5" font-family="Helvetica,sans-Serif" font-size="10.00">::unwrap</text>
</a>
</g>
</g>
<!-- Node2&#45;&gt;Node4 -->
<g id="edge3" class="edge"><title>Node2&#45;&gt;Node4</title>
<path fill="none" stroke="midnightblue" d="M286.495,-28.5107C296.35,-27.0701 306.531,-25.5819 316.33,-24.1495"/>
<polygon fill="midnightblue" stroke="midnightblue" points="285.761,-25.0807 276.373,-29.9904 286.774,-32.0071 285.761,-25.0807"/>
</g>
<!-- Node5 -->
<g id="node5" class="node"><title>Node5</title>
<g id="a_node5"><a xlink:href="classpdal_1_1nitfwrap_1_1NitfWrap.html#a507defc6c08af645c161ee875c58374a" target="_top" xlink:title="pdal::nitfwrap::NitfWrap\l::NitfWrap">
<polygon fill="white" stroke="black" points="477,-0.5 477,-30.5 597,-30.5 597,-0.5 477,-0.5"/>
<text text-anchor="start" x="485" y="-18.5" font-family="Helvetica,sans-Serif" font-size="10.00">pdal::nitfwrap::NitfWrap</text>
<text text-anchor="middle" x="537" y="-7.5" font-family="Helvetica,sans-Serif" font-size="10.00">::NitfWrap</text>
</a>
</g>
</g>
<!-- Node4&#45;&gt;Node5 -->
<g id="edge4" class="edge"><title>Node4&#45;&gt;Node5</title>
<path fill="none" stroke="midnightblue" d="M446.547,-15.5C456.674,-15.5 467.028,-15.5 476.931,-15.5"/>
<polygon fill="midnightblue" stroke="midnightblue" points="446.52,-12.0001 436.52,-15.5 446.52,-19.0001 446.52,-12.0001"/>
</g>
</g>
</svg>
