<?xml version="1.0" encoding="UTF-8" standalone="no"?>
<!DOCTYPE svg PUBLIC "-//W3C//DTD SVG 1.1//EN"
 "http://www.w3.org/Graphics/SVG/1.1/DTD/svg11.dtd">
<!-- Generated by graphviz version 2.38.0 (20140413.2041)
 -->
<!-- Title: pdal::ClusterFilter::addDimensions Pages: 1 -->
<svg width="1299pt" height="282pt"
 viewBox="0.00 0.00 1299.00 281.75" xmlns="http://www.w3.org/2000/svg" xmlns:xlink="http://www.w3.org/1999/xlink">
<g id="graph0" class="graph" transform="scale(1 1) rotate(0) translate(4 277.75)">
<title>pdal::ClusterFilter::addDimensions</title>
<polygon fill="white" stroke="none" points="-4,4 -4,-277.75 1295,-277.75 1295,4 -4,4"/>
<!-- Node1 -->
<g id="node1" class="node"><title>Node1</title>
<polygon fill="#bfbfbf" stroke="black" points="0,-175.75 0,-205.75 94,-205.75 94,-175.75 0,-175.75"/>
<text text-anchor="start" x="8" y="-193.75" font-family="Helvetica,sans-Serif" font-size="10.00">pdal::ClusterFilter</text>
<text text-anchor="middle" x="47" y="-182.75" font-family="Helvetica,sans-Serif" font-size="10.00">::addDimensions</text>
</g>
<!-- Node2 -->
<g id="node2" class="node"><title>Node2</title>
<g id="a_node2"><a xlink:href="classpdal_1_1PointLayout.html#a5eb18bf1cedb4bd97f5db6a094b10360" target="_top" xlink:title="pdal::PointLayout::\lregisterOrAssignDim">
<polygon fill="white" stroke="black" points="130,-175.75 130,-205.75 237,-205.75 237,-175.75 130,-175.75"/>
<text text-anchor="start" x="138" y="-193.75" font-family="Helvetica,sans-Serif" font-size="10.00">pdal::PointLayout::</text>
<text text-anchor="middle" x="183.5" y="-182.75" font-family="Helvetica,sans-Serif" font-size="10.00">registerOrAssignDim</text>
</a>
</g>
</g>
<!-- Node1&#45;&gt;Node2 -->
<g id="edge1" class="edge"><title>Node1&#45;&gt;Node2</title>
<path fill="none" stroke="midnightblue" d="M94.2873,-190.75C102.391,-190.75 110.945,-190.75 119.412,-190.75"/>
<polygon fill="midnightblue" stroke="midnightblue" points="119.659,-194.25 129.659,-190.75 119.659,-187.25 119.659,-194.25"/>
</g>
<!-- Node3 -->
<g id="node3" class="node"><title>Node3</title>
<g id="a_node3"><a xlink:href="namespacepdal_1_1Dimension.html#a10b4c693e3bdbdf1a0eec8f4b008a291" target="_top" xlink:title="pdal::Dimension::id">
<polygon fill="white" stroke="black" points="428.5,-184.25 428.5,-203.25 529.5,-203.25 529.5,-184.25 428.5,-184.25"/>
<text text-anchor="middle" x="479" y="-191.25" font-family="Helvetica,sans-Serif" font-size="10.00">pdal::Dimension::id</text>
</a>
</g>
</g>
<!-- Node2&#45;&gt;Node3 -->
<g id="edge2" class="edge"><title>Node2&#45;&gt;Node3</title>
<path fill="none" stroke="midnightblue" d="M237.311,-191.29C288.061,-191.808 364.669,-192.592 417.769,-193.134"/>
<polygon fill="midnightblue" stroke="midnightblue" points="418.026,-196.637 428.061,-193.239 418.097,-189.637 418.026,-196.637"/>
</g>
<!-- Node5 -->
<g id="node5" class="node"><title>Node5</title>
<g id="a_node5"><a xlink:href="classpdal_1_1PointLayout.html#ac18a9b8b3dd23c601df823e84d90f61e" target="_top" xlink:title="pdal::PointLayout::\lregisterDim">
<polygon fill="white" stroke="black" points="273,-219.75 273,-249.75 371,-249.75 371,-219.75 273,-219.75"/>
<text text-anchor="start" x="281" y="-237.75" font-family="Helvetica,sans-Serif" font-size="10.00">pdal::PointLayout::</text>
<text text-anchor="middle" x="322" y="-226.75" font-family="Helvetica,sans-Serif" font-size="10.00">registerDim</text>
</a>
</g>
</g>
<!-- Node2&#45;&gt;Node5 -->
<g id="edge4" class="edge"><title>Node2&#45;&gt;Node5</title>
<path fill="none" stroke="midnightblue" d="M231.094,-205.769C241.846,-209.235 253.398,-212.959 264.52,-216.544"/>
<polygon fill="midnightblue" stroke="midnightblue" points="263.561,-219.912 274.153,-219.649 265.709,-213.25 263.561,-219.912"/>
</g>
<!-- Node7 -->
<g id="node7" class="node"><title>Node7</title>
<g id="a_node7"><a xlink:href="classpdal_1_1PointLayout.html#a62c64539215e8136b502e025627657ca" target="_top" xlink:title="pdal::PointLayout::\lassignDim">
<polygon fill="white" stroke="black" points="273,-110.75 273,-140.75 371,-140.75 371,-110.75 273,-110.75"/>
<text text-anchor="start" x="281" y="-128.75" font-family="Helvetica,sans-Serif" font-size="10.00">pdal::PointLayout::</text>
<text text-anchor="middle" x="322" y="-117.75" font-family="Helvetica,sans-Serif" font-size="10.00">assignDim</text>
</a>
</g>
</g>
<!-- Node2&#45;&gt;Node7 -->
<g id="edge6" class="edge"><title>Node2&#45;&gt;Node7</title>
<path fill="none" stroke="midnightblue" d="M216.159,-175.674C235.145,-166.633 259.496,-155.038 279.95,-145.298"/>
<polygon fill="midnightblue" stroke="midnightblue" points="281.516,-148.428 289.04,-140.969 278.507,-142.108 281.516,-148.428"/>
</g>
<!-- Node4 -->
<g id="node4" class="node"><title>Node4</title>
<g id="a_node4"><a xlink:href="namespacepdal_1_1Utils.html#a28e3e2faff94b20f9908e77bc54ed983" target="_top" xlink:title="pdal::Utils::toupper">
<polygon fill="white" stroke="black" points="603.5,-254.25 603.5,-273.25 702.5,-273.25 702.5,-254.25 603.5,-254.25"/>
<text text-anchor="middle" x="653" y="-261.25" font-family="Helvetica,sans-Serif" font-size="10.00">pdal::Utils::toupper</text>
</a>
</g>
</g>
<!-- Node3&#45;&gt;Node4 -->
<g id="edge3" class="edge"><title>Node3&#45;&gt;Node4</title>
<path fill="none" stroke="midnightblue" d="M520.126,-203.299C530.499,-206.535 541.432,-210.655 551,-215.75 569.135,-225.407 568.788,-235.24 587,-244.75 591.27,-246.98 595.837,-248.982 600.498,-250.773"/>
<polygon fill="midnightblue" stroke="midnightblue" points="599.537,-254.145 610.132,-254.158 601.857,-247.541 599.537,-254.145"/>
</g>
<!-- Node6 -->
<g id="node6" class="node"><title>Node6</title>
<g id="a_node6"><a xlink:href="namespacepdal_1_1Dimension.html#a9562a0d1c8e24bf903f1ccdd37b62d2f" target="_top" xlink:title="pdal::Dimension::defaultType">
<polygon fill="white" stroke="black" points="407,-225.25 407,-244.25 551,-244.25 551,-225.25 407,-225.25"/>
<text text-anchor="middle" x="479" y="-232.25" font-family="Helvetica,sans-Serif" font-size="10.00">pdal::Dimension::defaultType</text>
</a>
</g>
</g>
<!-- Node5&#45;&gt;Node6 -->
<g id="edge5" class="edge"><title>Node5&#45;&gt;Node6</title>
<path fill="none" stroke="midnightblue" d="M371.193,-234.75C379.305,-234.75 387.92,-234.75 396.6,-234.75"/>
<polygon fill="midnightblue" stroke="midnightblue" points="396.793,-238.25 406.793,-234.75 396.793,-231.25 396.793,-238.25"/>
</g>
<!-- Node7&#45;&gt;Node3 -->
<g id="edge22" class="edge"><title>Node7&#45;&gt;Node3</title>
<path fill="none" stroke="midnightblue" d="M345.752,-140.786C362.224,-151.157 385.313,-164.661 407,-173.75 413.658,-176.54 420.827,-179.072 427.959,-181.323"/>
<polygon fill="midnightblue" stroke="midnightblue" points="427.026,-184.697 437.61,-184.217 429.036,-177.992 427.026,-184.697"/>
</g>
<!-- Node8 -->
<g id="node8" class="node"><title>Node8</title>
<g id="a_node8"><a xlink:href="namespacepdal_1_1Utils.html#a59253304d0f929e3a3ea00f09636002f" target="_top" xlink:title="pdal::Utils::toNative">
<polygon fill="white" stroke="black" points="905,-66.2499 905,-85.2499 1009,-85.2499 1009,-66.2499 905,-66.2499"/>
<text text-anchor="middle" x="957" y="-73.2499" font-family="Helvetica,sans-Serif" font-size="10.00">pdal::Utils::toNative</text>
</a>
</g>
</g>
<!-- Node7&#45;&gt;Node8 -->
<g id="edge7" class="edge"><title>Node7&#45;&gt;Node8</title>
<path fill="none" stroke="midnightblue" d="M336.883,-110.747C352.37,-95.0336 378.956,-70.975 407,-58.7499 595.421,23.3875 668.677,8.28744 869,-37.7499 890.485,-42.6875 913.268,-52.8383 930.128,-61.4073"/>
<polygon fill="midnightblue" stroke="midnightblue" points="928.833,-64.6801 939.315,-66.2183 932.08,-58.4788 928.833,-64.6801"/>
</g>
<!-- Node11 -->
<g id="node11" class="node"><title>Node11</title>
<g id="a_node11"><a xlink:href="classpdal_1_1PointLayout.html#aa1b5a748ef7b9467b4977606a7f61aa5" target="_top" xlink:title="pdal::PointLayout::\lresolveType">
<polygon fill="white" stroke="black" points="604,-41.7499 604,-71.7499 702,-71.7499 702,-41.7499 604,-41.7499"/>
<text text-anchor="start" x="612" y="-59.7499" font-family="Helvetica,sans-Serif" font-size="10.00">pdal::PointLayout::</text>
<text text-anchor="middle" x="653" y="-48.7499" font-family="Helvetica,sans-Serif" font-size="10.00">resolveType</text>
</a>
</g>
</g>
<!-- Node7&#45;&gt;Node11 -->
<g id="edge10" class="edge"><title>Node7&#45;&gt;Node11</title>
<path fill="none" stroke="midnightblue" d="M349.783,-110.685C365.883,-102.306 387.057,-92.4471 407,-86.7499 469.256,-68.9655 543.367,-61.7238 593.654,-58.775"/>
<polygon fill="midnightblue" stroke="midnightblue" points="593.902,-62.2667 603.696,-58.2247 593.519,-55.2772 593.902,-62.2667"/>
</g>
<!-- Node14 -->
<g id="node14" class="node"><title>Node14</title>
<g id="a_node14"><a xlink:href="classpdal_1_1PointLayout.html#a63db6cc5de2aea2b949ee0c34e1d5501" target="_top" xlink:title="pdal::PointLayout::\lupdate">
<polygon fill="white" stroke="black" points="430,-134.75 430,-164.75 528,-164.75 528,-134.75 430,-134.75"/>
<text text-anchor="start" x="438" y="-152.75" font-family="Helvetica,sans-Serif" font-size="10.00">pdal::PointLayout::</text>
<text text-anchor="middle" x="479" y="-141.75" font-family="Helvetica,sans-Serif" font-size="10.00">update</text>
</a>
</g>
</g>
<!-- Node7&#45;&gt;Node14 -->
<g id="edge15" class="edge"><title>Node7&#45;&gt;Node14</title>
<path fill="none" stroke="midnightblue" d="M371.193,-133.212C386.502,-135.583 403.6,-138.23 419.551,-140.7"/>
<polygon fill="midnightblue" stroke="midnightblue" points="419.419,-144.221 429.836,-142.292 420.49,-137.303 419.419,-144.221"/>
</g>
<!-- Node18 -->
<g id="node18" class="node"><title>Node18</title>
<g id="a_node18"><a xlink:href="namespacepdal_1_1Dimension.html#af3176b0b7e6b4be000317846cf7c2718" target="_top" xlink:title="pdal::Dimension::name">
<polygon fill="white" stroke="black" points="420.5,-96.2499 420.5,-115.25 537.5,-115.25 537.5,-96.2499 420.5,-96.2499"/>
<text text-anchor="middle" x="479" y="-103.25" font-family="Helvetica,sans-Serif" font-size="10.00">pdal::Dimension::name</text>
</a>
</g>
</g>
<!-- Node7&#45;&gt;Node18 -->
<g id="edge21" class="edge"><title>Node7&#45;&gt;Node18</title>
<path fill="none" stroke="midnightblue" d="M371.193,-119.531C383.586,-117.932 397.152,-116.182 410.332,-114.481"/>
<polygon fill="midnightblue" stroke="midnightblue" points="410.84,-117.945 420.31,-113.194 409.944,-111.002 410.84,-117.945"/>
</g>
<!-- Node9 -->
<g id="node9" class="node"><title>Node9</title>
<g id="a_node9"><a xlink:href="namespacepdal_1_1Dimension.html#a880d689fed54aa3ded6f88c9e058c5d2" target="_top" xlink:title="pdal::Dimension::type">
<polygon fill="white" stroke="black" points="1045,-66.2499 1045,-85.2499 1157,-85.2499 1157,-66.2499 1045,-66.2499"/>
<text text-anchor="middle" x="1101" y="-73.2499" font-family="Helvetica,sans-Serif" font-size="10.00">pdal::Dimension::type</text>
</a>
</g>
</g>
<!-- Node8&#45;&gt;Node9 -->
<g id="edge8" class="edge"><title>Node8&#45;&gt;Node9</title>
<path fill="none" stroke="midnightblue" d="M1009.27,-75.7499C1017.6,-75.7499 1026.33,-75.7499 1034.95,-75.7499"/>
<polygon fill="midnightblue" stroke="midnightblue" points="1034.97,-79.25 1044.97,-75.7499 1034.97,-72.25 1034.97,-79.25"/>
</g>
<!-- Node10 -->
<g id="node10" class="node"><title>Node10</title>
<g id="a_node10"><a xlink:href="namespacepdal_1_1Utils.html#a5268937cf695835e55392f752dc02cb2" target="_top" xlink:title="pdal::Utils::tolower">
<polygon fill="white" stroke="black" points="1193,-66.2499 1193,-85.2499 1291,-85.2499 1291,-66.2499 1193,-66.2499"/>
<text text-anchor="middle" x="1242" y="-73.2499" font-family="Helvetica,sans-Serif" font-size="10.00">pdal::Utils::tolower</text>
</a>
</g>
</g>
<!-- Node9&#45;&gt;Node10 -->
<g id="edge9" class="edge"><title>Node9&#45;&gt;Node10</title>
<path fill="none" stroke="midnightblue" d="M1157.34,-75.7499C1165.62,-75.7499 1174.19,-75.7499 1182.55,-75.7499"/>
<polygon fill="midnightblue" stroke="midnightblue" points="1182.59,-79.25 1192.59,-75.7499 1182.59,-72.25 1182.59,-79.25"/>
</g>
<!-- Node12 -->
<g id="node12" class="node"><title>Node12</title>
<g id="a_node12"><a xlink:href="namespacepdal_1_1Dimension.html#ab9491687b8700d1db27e0aba1fcd7143" target="_top" xlink:title="pdal::Dimension::base">
<polygon fill="white" stroke="black" points="755,-47.2499 755,-66.2499 869,-66.2499 869,-47.2499 755,-47.2499"/>
<text text-anchor="middle" x="812" y="-54.2499" font-family="Helvetica,sans-Serif" font-size="10.00">pdal::Dimension::base</text>
</a>
</g>
</g>
<!-- Node11&#45;&gt;Node12 -->
<g id="edge11" class="edge"><title>Node11&#45;&gt;Node12</title>
<path fill="none" stroke="midnightblue" d="M702.386,-56.7499C715.726,-56.7499 730.434,-56.7499 744.603,-56.7499"/>
<polygon fill="midnightblue" stroke="midnightblue" points="744.797,-60.25 754.797,-56.7499 744.797,-53.25 744.797,-60.25"/>
</g>
<!-- Node13 -->
<g id="node13" class="node"><title>Node13</title>
<g id="a_node13"><a xlink:href="namespacepdal_1_1Dimension.html#acf81dae9d5946f3a941f9df154b2329b" target="_top" xlink:title="pdal::Dimension::size">
<polygon fill="white" stroke="black" points="756.5,-85.2499 756.5,-104.25 867.5,-104.25 867.5,-85.2499 756.5,-85.2499"/>
<text text-anchor="middle" x="812" y="-92.2499" font-family="Helvetica,sans-Serif" font-size="10.00">pdal::Dimension::size</text>
</a>
</g>
</g>
<!-- Node11&#45;&gt;Node13 -->
<g id="edge13" class="edge"><title>Node11&#45;&gt;Node13</title>
<path fill="none" stroke="midnightblue" d="M702.386,-68.4613C721.25,-73.0271 742.849,-78.2547 761.791,-82.8395"/>
<polygon fill="midnightblue" stroke="midnightblue" points="761.173,-86.2908 771.715,-85.2416 762.819,-79.4873 761.173,-86.2908"/>
</g>
<!-- Node12&#45;&gt;Node8 -->
<g id="edge12" class="edge"><title>Node12&#45;&gt;Node8</title>
<path fill="none" stroke="midnightblue" d="M869.107,-64.2047C877.451,-65.3134 886.089,-66.4611 894.536,-67.5834"/>
<polygon fill="midnightblue" stroke="midnightblue" points="894.339,-71.0879 904.713,-68.9356 895.261,-64.1489 894.339,-71.0879"/>
</g>
<!-- Node13&#45;&gt;Node8 -->
<g id="edge14" class="edge"><title>Node13&#45;&gt;Node8</title>
<path fill="none" stroke="midnightblue" d="M867.879,-87.4584C876.691,-86.2874 885.861,-85.0691 894.81,-83.88"/>
<polygon fill="midnightblue" stroke="midnightblue" points="895.338,-87.3407 904.79,-82.554 894.416,-80.4017 895.338,-87.3407"/>
</g>
<!-- Node14&#45;&gt;Node8 -->
<g id="edge18" class="edge"><title>Node14&#45;&gt;Node8</title>
<path fill="none" stroke="midnightblue" d="M528.197,-150.392C602.601,-150.251 749.352,-145.455 869,-113.75 890.043,-108.174 912.531,-98.2364 929.371,-89.9223"/>
<polygon fill="midnightblue" stroke="midnightblue" points="931.239,-92.8995 938.58,-85.2599 928.077,-86.6543 931.239,-92.8995"/>
</g>
<!-- Node15 -->
<g id="node15" class="node"><title>Node15</title>
<g id="a_node15"><a xlink:href="namespacepdal_1_1Utils.html#a3e140e4c0c21d020c56c0b8d58b8cb5b" target="_top" xlink:title="pdal::Utils::contains">
<polygon fill="white" stroke="black" points="601,-216.25 601,-235.25 705,-235.25 705,-216.25 601,-216.25"/>
<text text-anchor="middle" x="653" y="-223.25" font-family="Helvetica,sans-Serif" font-size="10.00">pdal::Utils::contains</text>
</a>
</g>
</g>
<!-- Node14&#45;&gt;Node15 -->
<g id="edge16" class="edge"><title>Node14&#45;&gt;Node15</title>
<path fill="none" stroke="midnightblue" d="M528.123,-163.825C536.006,-166.932 543.907,-170.569 551,-174.75 569.442,-185.62 568.27,-196.383 587,-206.75 590.984,-208.955 595.251,-210.928 599.624,-212.689"/>
<polygon fill="midnightblue" stroke="midnightblue" points="598.702,-216.078 609.296,-216.211 601.097,-209.5 598.702,-216.078"/>
</g>
<!-- Node16 -->
<g id="node16" class="node"><title>Node16</title>
<g id="a_node16"><a xlink:href="classpdal_1_1Dimension_1_1Detail.html#a549ea013da1958d0b9120987cb33e291" target="_top" xlink:title="pdal::Dimension::Detail::id">
<polygon fill="white" stroke="black" points="587,-178.25 587,-197.25 719,-197.25 719,-178.25 587,-178.25"/>
<text text-anchor="middle" x="653" y="-185.25" font-family="Helvetica,sans-Serif" font-size="10.00">pdal::Dimension::Detail::id</text>
</a>
</g>
</g>
<!-- Node14&#45;&gt;Node16 -->
<g id="edge17" class="edge"><title>Node14&#45;&gt;Node16</title>
<path fill="none" stroke="midnightblue" d="M528.369,-160.436C550.341,-165.291 576.396,-171.047 598.908,-176.02"/>
<polygon fill="midnightblue" stroke="midnightblue" points="598.455,-179.504 608.974,-178.244 599.965,-172.669 598.455,-179.504"/>
</g>
<!-- Node17 -->
<g id="node17" class="node"><title>Node17</title>
<g id="a_node17"><a xlink:href="classpdal_1_1Dimension_1_1Detail.html#a320806a1cc878b5fdb10e178f27a4c61" target="_top" xlink:title="pdal::Dimension::Detail\l::size">
<polygon fill="white" stroke="black" points="593.5,-90.7499 593.5,-120.75 712.5,-120.75 712.5,-90.7499 593.5,-90.7499"/>
<text text-anchor="start" x="601.5" y="-108.75" font-family="Helvetica,sans-Serif" font-size="10.00">pdal::Dimension::Detail</text>
<text text-anchor="middle" x="653" y="-97.7499" font-family="Helvetica,sans-Serif" font-size="10.00">::size</text>
</a>
</g>
</g>
<!-- Node14&#45;&gt;Node17 -->
<g id="edge19" class="edge"><title>Node14&#45;&gt;Node17</title>
<path fill="none" stroke="midnightblue" d="M528.369,-137.376C545.467,-133.003 565.036,-127.996 583.485,-123.277"/>
<polygon fill="midnightblue" stroke="midnightblue" points="584.482,-126.635 593.303,-120.766 582.747,-119.853 584.482,-126.635"/>
</g>
<!-- Node17&#45;&gt;Node13 -->
<g id="edge20" class="edge"><title>Node17&#45;&gt;Node13</title>
<path fill="none" stroke="midnightblue" d="M712.908,-101.623C723.833,-100.857 735.299,-100.054 746.384,-99.2772"/>
<polygon fill="midnightblue" stroke="midnightblue" points="746.699,-102.764 756.43,-98.5733 746.21,-95.7809 746.699,-102.764"/>
</g>
</g>
</svg>
