<?xml version="1.0" encoding="UTF-8" standalone="no"?>
<!DOCTYPE svg PUBLIC "-//W3C//DTD SVG 1.1//EN"
 "http://www.w3.org/Graphics/SVG/1.1/DTD/svg11.dtd">
<!-- Generated by graphviz version 2.38.0 (20140413.2041)
 -->
<!-- Title: TEST Pages: 1 -->
<svg width="1086pt" height="928pt"
 viewBox="0.00 0.00 1086.00 928.46" xmlns="http://www.w3.org/2000/svg" xmlns:xlink="http://www.w3.org/1999/xlink">
<g id="graph0" class="graph" transform="scale(1 1) rotate(0) translate(4 924.457)">
<title>TEST</title>
<polygon fill="white" stroke="none" points="-4,4 -4,-924.457 1082,-924.457 1082,4 -4,4"/>
<!-- Node1 -->
<g id="node1" class="node"><title>Node1</title>
<polygon fill="#bfbfbf" stroke="black" points="0,-404.5 0,-423.5 42,-423.5 42,-404.5 0,-404.5"/>
<text text-anchor="middle" x="21" y="-411.5" font-family="Helvetica,sans-Serif" font-size="10.00">TEST</text>
</g>
<!-- Node2 -->
<g id="node2" class="node"><title>Node2</title>
<g id="a_node2"><a xlink:href="classpdal_1_1Options.html#a30826da39f9c4716412141eeeb719032" target="_top" xlink:title="pdal::Options::add">
<polygon fill="white" stroke="black" points="471,-731.5 471,-750.5 567,-750.5 567,-731.5 471,-731.5"/>
<text text-anchor="middle" x="519" y="-738.5" font-family="Helvetica,sans-Serif" font-size="10.00">pdal::Options::add</text>
</a>
</g>
</g>
<!-- Node1&#45;&gt;Node2 -->
<g id="edge1" class="edge"><title>Node1&#45;&gt;Node2</title>
<path fill="none" stroke="midnightblue" d="M21.9817,-423.535C22.2708,-461.735 26.8592,-606.637 78,-710 127.546,-810.139 143.959,-851.501 246,-897 311.353,-926.141 343.405,-929.8 407,-897 463.489,-867.864 497.52,-795.217 511.126,-760.316"/>
<polygon fill="midnightblue" stroke="midnightblue" points="514.465,-761.378 514.694,-750.786 507.91,-758.923 514.465,-761.378"/>
</g>
<!-- Node9 -->
<g id="node9" class="node"><title>Node9</title>
<g id="a_node9"><a xlink:href="classpdal_1_1Stage.html#a1615c4aa5ec5e48f90d73f0e7a796935" target="_top" xlink:title="pdal::Stage::execute">
<polygon fill="white" stroke="black" points="90.5,-663.5 90.5,-682.5 197.5,-682.5 197.5,-663.5 90.5,-663.5"/>
<text text-anchor="middle" x="144" y="-670.5" font-family="Helvetica,sans-Serif" font-size="10.00">pdal::Stage::execute</text>
</a>
</g>
</g>
<!-- Node1&#45;&gt;Node9 -->
<g id="edge8" class="edge"><title>Node1&#45;&gt;Node9</title>
<path fill="none" stroke="midnightblue" d="M26.45,-423.525C44.2004,-461.52 110.143,-602.67 134.17,-654.1"/>
<polygon fill="midnightblue" stroke="midnightblue" points="131.106,-655.81 138.51,-663.388 137.448,-652.847 131.106,-655.81"/>
</g>
<!-- Node26 -->
<g id="node26" class="node"><title>Node26</title>
<g id="a_node26"><a xlink:href="namespaceanonymous__namespace_02ColorinterpFilterTest_8cpp_03.html#ac844242020c3cf9d7d330419c0613e7f" target="_top" xlink:title="anonymous_namespace\l\{ColorinterpFilterTest\l::cpp\}::makeColor">
<polygon fill="white" stroke="black" points="83,-464.5 83,-505.5 205,-505.5 205,-464.5 83,-464.5"/>
<text text-anchor="start" x="91" y="-493.5" font-family="Helvetica,sans-Serif" font-size="10.00">anonymous_namespace</text>
<text text-anchor="start" x="91" y="-482.5" font-family="Helvetica,sans-Serif" font-size="10.00">{ColorinterpFilterTest</text>
<text text-anchor="middle" x="144" y="-471.5" font-family="Helvetica,sans-Serif" font-size="10.00">::cpp}::makeColor</text>
</a>
</g>
</g>
<!-- Node1&#45;&gt;Node26 -->
<g id="edge26" class="edge"><title>Node1&#45;&gt;Node26</title>
<path fill="none" stroke="midnightblue" d="M35.5595,-423.521C46.7497,-431.241 63.1455,-442.238 78,-451 82.7991,-453.831 87.8563,-456.687 92.9432,-459.477"/>
<polygon fill="midnightblue" stroke="midnightblue" points="91.6198,-462.74 102.082,-464.409 94.944,-456.58 91.6198,-462.74"/>
</g>
<!-- Node28 -->
<g id="node28" class="node"><title>Node28</title>
<g id="a_node28"><a xlink:href="classpdal_1_1Stage.html#a4b9296a59f8852b3d08630f1086bfbea" target="_top" xlink:title="pdal::Stage::prepare">
<polygon fill="white" stroke="black" points="92,-404.5 92,-423.5 196,-423.5 196,-404.5 92,-404.5"/>
<text text-anchor="middle" x="144" y="-411.5" font-family="Helvetica,sans-Serif" font-size="10.00">pdal::Stage::prepare</text>
</a>
</g>
</g>
<!-- Node1&#45;&gt;Node28 -->
<g id="edge28" class="edge"><title>Node1&#45;&gt;Node28</title>
<path fill="none" stroke="midnightblue" d="M42.2527,-414C53.1883,-414 67.3347,-414 81.551,-414"/>
<polygon fill="midnightblue" stroke="midnightblue" points="81.8701,-417.5 91.8701,-414 81.87,-410.5 81.8701,-417.5"/>
</g>
<!-- Node48 -->
<g id="node48" class="node"><title>Node48</title>
<g id="a_node48"><a xlink:href="classpdal_1_1StreamCallbackFilter.html#a45e5e95951e50c85ee5844b2c4bb376b" target="_top" xlink:title="pdal::StreamCallbackFilter\l::setCallback">
<polygon fill="white" stroke="black" points="78,-355 78,-385 210,-385 210,-355 78,-355"/>
<text text-anchor="start" x="86" y="-373" font-family="Helvetica,sans-Serif" font-size="10.00">pdal::StreamCallbackFilter</text>
<text text-anchor="middle" x="144" y="-362" font-family="Helvetica,sans-Serif" font-size="10.00">::setCallback</text>
</a>
</g>
</g>
<!-- Node1&#45;&gt;Node48 -->
<g id="edge60" class="edge"><title>Node1&#45;&gt;Node48</title>
<path fill="none" stroke="midnightblue" d="M42.2527,-406.635C55.8762,-401.681 74.4829,-394.915 91.9999,-388.546"/>
<polygon fill="midnightblue" stroke="midnightblue" points="93.379,-391.768 101.581,-385.062 90.9868,-385.19 93.379,-391.768"/>
</g>
<!-- Node49 -->
<g id="node49" class="node"><title>Node49</title>
<g id="a_node49"><a xlink:href="classpdal_1_1Stage.html#abfd87d459bea04a919aace286b2e377e" target="_top" xlink:title="pdal::Stage::setInput">
<polygon fill="white" stroke="black" points="90.5,-316.5 90.5,-335.5 197.5,-335.5 197.5,-316.5 90.5,-316.5"/>
<text text-anchor="middle" x="144" y="-323.5" font-family="Helvetica,sans-Serif" font-size="10.00">pdal::Stage::setInput</text>
</a>
</g>
</g>
<!-- Node1&#45;&gt;Node49 -->
<g id="edge61" class="edge"><title>Node1&#45;&gt;Node49</title>
<path fill="none" stroke="midnightblue" d="M27.1874,-404.426C35.7727,-389.486 54.3598,-360.716 78,-345 81.0688,-342.96 84.3605,-341.134 87.7746,-339.502"/>
<polygon fill="midnightblue" stroke="midnightblue" points="89.164,-342.715 97.0285,-335.615 86.4533,-336.261 89.164,-342.715"/>
</g>
<!-- Node50 -->
<g id="node50" class="node"><title>Node50</title>
<g id="a_node50"><a xlink:href="classpdal_1_1Stage.html#acb2434df20f371f1fec9577de3cf0046" target="_top" xlink:title="pdal::Stage::setOptions">
<polygon fill="white" stroke="black" points="84.5,-278.5 84.5,-297.5 203.5,-297.5 203.5,-278.5 84.5,-278.5"/>
<text text-anchor="middle" x="144" y="-285.5" font-family="Helvetica,sans-Serif" font-size="10.00">pdal::Stage::setOptions</text>
</a>
</g>
</g>
<!-- Node1&#45;&gt;Node50 -->
<g id="edge62" class="edge"><title>Node1&#45;&gt;Node50</title>
<path fill="none" stroke="midnightblue" d="M24.2927,-404.382C29.7902,-383.433 45.7282,-333.446 78,-307 80.0688,-305.305 82.2832,-303.761 84.601,-302.354"/>
<polygon fill="midnightblue" stroke="midnightblue" points="86.6425,-305.242 93.9644,-297.585 83.4652,-299.005 86.6425,-305.242"/>
</g>
<!-- Node3 -->
<g id="node3" class="node"><title>Node3</title>
<g id="a_node3"><a xlink:href="classpdal_1_1Option.html#aef4422b88464a9cad83b3c11bf1f8cdd" target="_top" xlink:title="pdal::Option::nameValid">
<polygon fill="white" stroke="black" points="640,-520.5 640,-539.5 761,-539.5 761,-520.5 640,-520.5"/>
<text text-anchor="middle" x="700.5" y="-527.5" font-family="Helvetica,sans-Serif" font-size="10.00">pdal::Option::nameValid</text>
</a>
</g>
</g>
<!-- Node2&#45;&gt;Node3 -->
<g id="edge2" class="edge"><title>Node2&#45;&gt;Node3</title>
<path fill="none" stroke="midnightblue" d="M567.136,-735.315C577.051,-732.479 586.937,-728.261 595,-722 653.509,-676.569 683.547,-588.797 694.516,-549.663"/>
<polygon fill="midnightblue" stroke="midnightblue" points="697.955,-550.351 697.164,-539.786 691.194,-548.539 697.955,-550.351"/>
</g>
<!-- Node8 -->
<g id="node8" class="node"><title>Node8</title>
<g id="a_node8"><a xlink:href="classpdal_1_1Option.html#ad2b7a736742fb343e421fa326ef45c23" target="_top" xlink:title="pdal::Option::getName">
<polygon fill="white" stroke="black" points="643,-480.5 643,-499.5 758,-499.5 758,-480.5 643,-480.5"/>
<text text-anchor="middle" x="700.5" y="-487.5" font-family="Helvetica,sans-Serif" font-size="10.00">pdal::Option::getName</text>
</a>
</g>
</g>
<!-- Node2&#45;&gt;Node8 -->
<g id="edge7" class="edge"><title>Node2&#45;&gt;Node8</title>
<path fill="none" stroke="midnightblue" d="M567.265,-737.599C577.649,-734.708 587.708,-729.893 595,-722 659.556,-652.123 568.188,-582.449 631,-511 632.963,-508.767 635.157,-506.767 637.522,-504.978"/>
<polygon fill="midnightblue" stroke="midnightblue" points="639.458,-507.896 646.13,-499.666 635.782,-501.939 639.458,-507.896"/>
</g>
<!-- Node4 -->
<g id="node4" class="node"><title>Node4</title>
<g id="a_node4"><a xlink:href="classpdal_1_1Option.html#a978a36cf9180d3636ea770988961952b" target="_top" xlink:title="pdal::Option::parse">
<polygon fill="white" stroke="black" points="816,-501.5 816,-520.5 915,-520.5 915,-501.5 816,-501.5"/>
<text text-anchor="middle" x="865.5" y="-508.5" font-family="Helvetica,sans-Serif" font-size="10.00">pdal::Option::parse</text>
</a>
</g>
</g>
<!-- Node3&#45;&gt;Node4 -->
<g id="edge3" class="edge"><title>Node3&#45;&gt;Node4</title>
<path fill="none" stroke="midnightblue" d="M761.27,-523.033C775.746,-521.346 791.209,-519.543 805.643,-517.861"/>
<polygon fill="midnightblue" stroke="midnightblue" points="806.415,-521.294 815.943,-516.66 805.605,-514.341 806.415,-521.294"/>
</g>
<!-- Node7 -->
<g id="node7" class="node"><title>Node7</title>
<g id="a_node7"><a xlink:href="namespacepdal_1_1Utils.html#ada321695f57c876ef51227bdf5b84f7a" target="_top" xlink:title="pdal::Utils::printError">
<polygon fill="white" stroke="black" points="812,-539.5 812,-558.5 919,-558.5 919,-539.5 812,-539.5"/>
<text text-anchor="middle" x="865.5" y="-546.5" font-family="Helvetica,sans-Serif" font-size="10.00">pdal::Utils::printError</text>
</a>
</g>
</g>
<!-- Node3&#45;&gt;Node7 -->
<g id="edge6" class="edge"><title>Node3&#45;&gt;Node7</title>
<path fill="none" stroke="midnightblue" d="M761.27,-536.967C774.447,-538.503 788.442,-540.134 801.734,-541.684"/>
<polygon fill="midnightblue" stroke="midnightblue" points="801.399,-545.168 811.737,-542.85 802.209,-538.215 801.399,-545.168"/>
</g>
<!-- Node5 -->
<g id="node5" class="node"><title>Node5</title>
<g id="a_node5"><a xlink:href="namespacepdal_1_1Utils.html#acae5a19cd66121b77e2599daec48413d" target="_top" xlink:title="pdal::Utils::extract">
<polygon fill="white" stroke="black" points="971,-520.5 971,-539.5 1068,-539.5 1068,-520.5 971,-520.5"/>
<text text-anchor="middle" x="1019.5" y="-527.5" font-family="Helvetica,sans-Serif" font-size="10.00">pdal::Utils::extract</text>
</a>
</g>
</g>
<!-- Node4&#45;&gt;Node5 -->
<g id="edge4" class="edge"><title>Node4&#45;&gt;Node5</title>
<path fill="none" stroke="midnightblue" d="M915.012,-517.064C929.554,-518.882 945.647,-520.893 960.724,-522.778"/>
<polygon fill="midnightblue" stroke="midnightblue" points="960.611,-526.291 970.968,-524.059 961.479,-519.345 960.611,-526.291"/>
</g>
<!-- Node6 -->
<g id="node6" class="node"><title>Node6</title>
<g id="a_node6"><a xlink:href="namespacepdal_1_1Dimension.html#af3176b0b7e6b4be000317846cf7c2718" target="_top" xlink:title="pdal::Dimension::name">
<polygon fill="white" stroke="black" points="961,-482.5 961,-501.5 1078,-501.5 1078,-482.5 961,-482.5"/>
<text text-anchor="middle" x="1019.5" y="-489.5" font-family="Helvetica,sans-Serif" font-size="10.00">pdal::Dimension::name</text>
</a>
</g>
</g>
<!-- Node4&#45;&gt;Node6 -->
<g id="edge5" class="edge"><title>Node4&#45;&gt;Node6</title>
<path fill="none" stroke="midnightblue" d="M915.012,-504.936C926.415,-503.511 938.773,-501.966 950.846,-500.457"/>
<polygon fill="midnightblue" stroke="midnightblue" points="951.404,-503.914 960.893,-499.201 950.536,-496.968 951.404,-503.914"/>
</g>
<!-- Node9&#45;&gt;Node9 -->
<g id="edge17" class="edge"><title>Node9&#45;&gt;Node9</title>
<path fill="none" stroke="midnightblue" d="M125.196,-682.757C116.048,-691.565 122.316,-701 144,-701 157.891,-701 165.456,-697.128 166.693,-692.029"/>
<polygon fill="midnightblue" stroke="midnightblue" points="169.9,-690.625 162.804,-682.757 163.445,-693.332 169.9,-690.625"/>
</g>
<!-- Node10 -->
<g id="node10" class="node"><title>Node10</title>
<g id="a_node10"><a xlink:href="classpdal_1_1Stage.html#a74cf636cb0f633411e4e40dcd718508a" target="_top" xlink:title="pdal::Stage::startLogging">
<polygon fill="white" stroke="black" points="456.5,-392.5 456.5,-411.5 581.5,-411.5 581.5,-392.5 456.5,-392.5"/>
<text text-anchor="middle" x="519" y="-399.5" font-family="Helvetica,sans-Serif" font-size="10.00">pdal::Stage::startLogging</text>
</a>
</g>
</g>
<!-- Node9&#45;&gt;Node10 -->
<g id="edge9" class="edge"><title>Node9&#45;&gt;Node10</title>
<path fill="none" stroke="midnightblue" d="M151.09,-682.695C164.904,-703.648 200.942,-752.733 246,-771 312.313,-797.884 353.82,-818.876 407,-771 463.795,-719.87 395.841,-489.133 443,-429 447.035,-423.855 452.136,-419.689 457.771,-416.316"/>
<polygon fill="midnightblue" stroke="midnightblue" points="459.653,-419.286 466.99,-411.643 456.488,-413.043 459.653,-419.286"/>
</g>
<!-- Node17 -->
<g id="node17" class="node"><title>Node17</title>
<g id="a_node17"><a xlink:href="classpdal_1_1BasePointTable.html#a2554cd260c437c9b1e4a017a28a5c7de" target="_top" xlink:title="pdal::BasePointTable\l::finalize">
<polygon fill="white" stroke="black" points="271.5,-731 271.5,-761 381.5,-761 381.5,-731 271.5,-731"/>
<text text-anchor="start" x="279.5" y="-749" font-family="Helvetica,sans-Serif" font-size="10.00">pdal::BasePointTable</text>
<text text-anchor="middle" x="326.5" y="-738" font-family="Helvetica,sans-Serif" font-size="10.00">::finalize</text>
</a>
</g>
</g>
<!-- Node9&#45;&gt;Node17 -->
<g id="edge16" class="edge"><title>Node9&#45;&gt;Node17</title>
<path fill="none" stroke="midnightblue" d="M162.499,-682.545C182.344,-693.119 215.866,-710.227 246,-722 251.036,-723.967 256.302,-725.873 261.624,-727.694"/>
<polygon fill="midnightblue" stroke="midnightblue" points="260.63,-731.052 271.223,-730.873 262.831,-724.406 260.63,-731.052"/>
</g>
<!-- Node18 -->
<g id="node18" class="node"><title>Node18</title>
<g id="a_node18"><a xlink:href="classpdal_1_1BasePointTable.html#aa3ed63a9e1a8897ccb7dc81a614f6141" target="_top" xlink:title="pdal::BasePointTable\l::clearSpatialReferences">
<polygon fill="white" stroke="black" points="264.5,-682 264.5,-712 388.5,-712 388.5,-682 264.5,-682"/>
<text text-anchor="start" x="272.5" y="-700" font-family="Helvetica,sans-Serif" font-size="10.00">pdal::BasePointTable</text>
<text text-anchor="middle" x="326.5" y="-689" font-family="Helvetica,sans-Serif" font-size="10.00">::clearSpatialReferences</text>
</a>
</g>
</g>
<!-- Node9&#45;&gt;Node18 -->
<g id="edge18" class="edge"><title>Node9&#45;&gt;Node18</title>
<path fill="none" stroke="midnightblue" d="M197.693,-680.006C215.422,-682.364 235.505,-685.034 254.411,-687.548"/>
<polygon fill="midnightblue" stroke="midnightblue" points="254.096,-691.037 264.471,-688.885 255.019,-684.098 254.096,-691.037"/>
</g>
<!-- Node19 -->
<g id="node19" class="node"><title>Node19</title>
<g id="a_node19"><a xlink:href="classpdal_1_1BasePointTable.html#a670592aca912391f1a90073a2031e5e0" target="_top" xlink:title="pdal::BasePointTable\l::addSpatialReference">
<polygon fill="white" stroke="black" points="270,-633 270,-663 383,-663 383,-633 270,-633"/>
<text text-anchor="start" x="278" y="-651" font-family="Helvetica,sans-Serif" font-size="10.00">pdal::BasePointTable</text>
<text text-anchor="middle" x="326.5" y="-640" font-family="Helvetica,sans-Serif" font-size="10.00">::addSpatialReference</text>
</a>
</g>
</g>
<!-- Node9&#45;&gt;Node19 -->
<g id="edge19" class="edge"><title>Node9&#45;&gt;Node19</title>
<path fill="none" stroke="midnightblue" d="M197.693,-665.702C217.099,-663.014 239.324,-659.936 259.741,-657.108"/>
<polygon fill="midnightblue" stroke="midnightblue" points="260.486,-660.538 269.912,-655.699 259.526,-653.604 260.486,-660.538"/>
</g>
<!-- Node20 -->
<g id="node20" class="node"><title>Node20</title>
<g id="a_node20"><a xlink:href="classpdal_1_1Stage.html#afb562c59c53ed8120df9106655eb2543" target="_top" xlink:title="pdal::Stage::ready">
<polygon fill="white" stroke="black" points="278.5,-594.5 278.5,-613.5 374.5,-613.5 374.5,-594.5 278.5,-594.5"/>
<text text-anchor="middle" x="326.5" y="-601.5" font-family="Helvetica,sans-Serif" font-size="10.00">pdal::Stage::ready</text>
</a>
</g>
</g>
<!-- Node9&#45;&gt;Node20 -->
<g id="edge20" class="edge"><title>Node9&#45;&gt;Node20</title>
<path fill="none" stroke="midnightblue" d="M162.044,-663.387C181.754,-652.592 215.416,-635.132 246,-624 253.978,-621.096 262.555,-618.459 271.019,-616.123"/>
<polygon fill="midnightblue" stroke="midnightblue" points="272.087,-619.461 280.859,-613.521 270.297,-612.694 272.087,-619.461"/>
</g>
<!-- Node21 -->
<g id="node21" class="node"><title>Node21</title>
<g id="a_node21"><a xlink:href="classpdal_1_1Stage.html#a9889b4446f40daa6f4cd7bfe3c567839" target="_top" xlink:title="pdal::Stage::getSpatialReference">
<polygon fill="white" stroke="black" points="246,-556.5 246,-575.5 407,-575.5 407,-556.5 246,-556.5"/>
<text text-anchor="middle" x="326.5" y="-563.5" font-family="Helvetica,sans-Serif" font-size="10.00">pdal::Stage::getSpatialReference</text>
</a>
</g>
</g>
<!-- Node9&#45;&gt;Node21 -->
<g id="edge21" class="edge"><title>Node9&#45;&gt;Node21</title>
<path fill="none" stroke="midnightblue" d="M153.09,-663.369C168.954,-645.133 206.097,-605.554 246,-585 250.613,-582.624 255.529,-580.539 260.569,-578.711"/>
<polygon fill="midnightblue" stroke="midnightblue" points="261.952,-581.941 270.365,-575.502 259.772,-575.289 261.952,-581.941"/>
</g>
<!-- Node22 -->
<g id="node22" class="node"><title>Node22</title>
<g id="a_node22"><a xlink:href="classpdal_1_1SpatialReference.html#a48fa2f7e79ea172b62ad2e874ff01610" target="_top" xlink:title="pdal::SpatialReference\l::empty">
<polygon fill="white" stroke="black" points="268.5,-819 268.5,-849 384.5,-849 384.5,-819 268.5,-819"/>
<text text-anchor="start" x="276.5" y="-837" font-family="Helvetica,sans-Serif" font-size="10.00">pdal::SpatialReference</text>
<text text-anchor="middle" x="326.5" y="-826" font-family="Helvetica,sans-Serif" font-size="10.00">::empty</text>
</a>
</g>
</g>
<!-- Node9&#45;&gt;Node22 -->
<g id="edge22" class="edge"><title>Node9&#45;&gt;Node22</title>
<path fill="none" stroke="midnightblue" d="M149.981,-682.704C162.738,-706.65 198.919,-769.135 246,-804 251.416,-808.011 257.432,-811.546 263.659,-814.647"/>
<polygon fill="midnightblue" stroke="midnightblue" points="262.342,-817.893 272.891,-818.884 265.263,-811.532 262.342,-817.893"/>
</g>
<!-- Node23 -->
<g id="node23" class="node"><title>Node23</title>
<g id="a_node23"><a xlink:href="classpdal_1_1Stage.html#a1b00532ede55b90a7b6332a2966f5626" target="_top" xlink:title="pdal::Stage::l_done">
<polygon fill="white" stroke="black" points="276,-868.5 276,-887.5 377,-887.5 377,-868.5 276,-868.5"/>
<text text-anchor="middle" x="326.5" y="-875.5" font-family="Helvetica,sans-Serif" font-size="10.00">pdal::Stage::l_done</text>
</a>
</g>
</g>
<!-- Node9&#45;&gt;Node23 -->
<g id="edge23" class="edge"><title>Node9&#45;&gt;Node23</title>
<path fill="none" stroke="midnightblue" d="M147.224,-682.514C154.943,-713.328 183.589,-811.163 246,-859 251.962,-863.57 258.858,-867.062 266.047,-869.727"/>
<polygon fill="midnightblue" stroke="midnightblue" points="265.38,-873.188 275.97,-872.872 267.495,-866.515 265.38,-873.188"/>
</g>
<!-- Node25 -->
<g id="node25" class="node"><title>Node25</title>
<g id="a_node25"><a xlink:href="classpdal_1_1Stage.html#ae49e996fe285350923a3bf44d027adad" target="_top" xlink:title="pdal::Stage::stopLogging">
<polygon fill="white" stroke="black" points="264,-518.5 264,-537.5 389,-537.5 389,-518.5 264,-518.5"/>
<text text-anchor="middle" x="326.5" y="-525.5" font-family="Helvetica,sans-Serif" font-size="10.00">pdal::Stage::stopLogging</text>
</a>
</g>
</g>
<!-- Node9&#45;&gt;Node25 -->
<g id="edge25" class="edge"><title>Node9&#45;&gt;Node25</title>
<path fill="none" stroke="midnightblue" d="M149.829,-663.305C162.239,-639.448 197.691,-577.614 246,-547 249.343,-544.881 252.901,-542.999 256.588,-541.326"/>
<polygon fill="midnightblue" stroke="midnightblue" points="257.976,-544.541 265.969,-537.586 255.384,-538.039 257.976,-544.541"/>
</g>
<!-- Node11 -->
<g id="node11" class="node"><title>Node11</title>
<g id="a_node11"><a xlink:href="classpdal_1_1gdal_1_1ErrorHandler.html#a56e0125595a43bf3b0cbd0b9a4bc55ea" target="_top" xlink:title="pdal::gdal::ErrorHandler\l::getGlobalErrorHandler">
<polygon fill="white" stroke="black" points="641,-327 641,-357 760,-357 760,-327 641,-327"/>
<text text-anchor="start" x="649" y="-345" font-family="Helvetica,sans-Serif" font-size="10.00">pdal::gdal::ErrorHandler</text>
<text text-anchor="middle" x="700.5" y="-334" font-family="Helvetica,sans-Serif" font-size="10.00">::getGlobalErrorHandler</text>
</a>
</g>
</g>
<!-- Node10&#45;&gt;Node11 -->
<g id="edge10" class="edge"><title>Node10&#45;&gt;Node11</title>
<path fill="none" stroke="midnightblue" d="M561.527,-392.47C572.491,-389.685 584.258,-386.453 595,-383 614.908,-376.601 636.485,-368.364 654.835,-360.953"/>
<polygon fill="midnightblue" stroke="midnightblue" points="656.175,-364.186 664.111,-357.167 653.53,-357.705 656.175,-364.186"/>
</g>
<!-- Node13 -->
<g id="node13" class="node"><title>Node13</title>
<g id="a_node13"><a xlink:href="classpdal_1_1gdal_1_1ErrorHandler.html#ace1cff928ab179f671181ebaf4d280a4" target="_top" xlink:title="pdal::gdal::ErrorHandler::set">
<polygon fill="white" stroke="black" points="631,-391.5 631,-410.5 770,-410.5 770,-391.5 631,-391.5"/>
<text text-anchor="middle" x="700.5" y="-398.5" font-family="Helvetica,sans-Serif" font-size="10.00">pdal::gdal::ErrorHandler::set</text>
</a>
</g>
</g>
<!-- Node10&#45;&gt;Node13 -->
<g id="edge12" class="edge"><title>Node10&#45;&gt;Node13</title>
<path fill="none" stroke="midnightblue" d="M581.523,-401.657C594.22,-401.587 607.756,-401.511 620.963,-401.438"/>
<polygon fill="midnightblue" stroke="midnightblue" points="620.999,-404.937 630.979,-401.382 620.96,-397.938 620.999,-404.937"/>
</g>
<!-- Node16 -->
<g id="node16" class="node"><title>Node16</title>
<g id="a_node16"><a xlink:href="classpdal_1_1Stage.html#aec4fb27c40bb4b032ff003a89a950dd4" target="_top" xlink:title="pdal::Stage::isDebug">
<polygon fill="white" stroke="black" points="646.5,-283.5 646.5,-302.5 754.5,-302.5 754.5,-283.5 646.5,-283.5"/>
<text text-anchor="middle" x="700.5" y="-290.5" font-family="Helvetica,sans-Serif" font-size="10.00">pdal::Stage::isDebug</text>
</a>
</g>
</g>
<!-- Node10&#45;&gt;Node16 -->
<g id="edge15" class="edge"><title>Node10&#45;&gt;Node16</title>
<path fill="none" stroke="midnightblue" d="M578.37,-392.424C584.327,-389.959 590.012,-386.87 595,-383 621.401,-362.52 605.535,-338.633 631,-317 635.853,-312.877 641.459,-309.447 647.331,-306.597"/>
<polygon fill="midnightblue" stroke="midnightblue" points="648.896,-309.734 656.709,-302.578 646.139,-303.3 648.896,-309.734"/>
</g>
<!-- Node12 -->
<g id="node12" class="node"><title>Node12</title>
<g id="a_node12"><a xlink:href="classpdal_1_1gdal_1_1ErrorHandler.html#a73215504640551589024d36018f81d33" target="_top" xlink:title="pdal::gdal::ErrorHandler\l::ErrorHandler">
<polygon fill="white" stroke="red" points="806,-327 806,-357 925,-357 925,-327 806,-327"/>
<text text-anchor="start" x="814" y="-345" font-family="Helvetica,sans-Serif" font-size="10.00">pdal::gdal::ErrorHandler</text>
<text text-anchor="middle" x="865.5" y="-334" font-family="Helvetica,sans-Serif" font-size="10.00">::ErrorHandler</text>
</a>
</g>
</g>
<!-- Node11&#45;&gt;Node12 -->
<g id="edge11" class="edge"><title>Node11&#45;&gt;Node12</title>
<path fill="none" stroke="midnightblue" d="M760.347,-342C771.773,-342 783.844,-342 795.56,-342"/>
<polygon fill="midnightblue" stroke="midnightblue" points="795.74,-345.5 805.74,-342 795.74,-338.5 795.74,-345.5"/>
</g>
<!-- Node14 -->
<g id="node14" class="node"><title>Node14</title>
<g id="a_node14"><a xlink:href="classpdal_1_1gdal_1_1ErrorHandler.html#abe7fbf19bfcfbb0be1c8ae934bd5c9d2" target="_top" xlink:title="pdal::gdal::ErrorHandler\l::setLog">
<polygon fill="white" stroke="black" points="806,-385 806,-415 925,-415 925,-385 806,-385"/>
<text text-anchor="start" x="814" y="-403" font-family="Helvetica,sans-Serif" font-size="10.00">pdal::gdal::ErrorHandler</text>
<text text-anchor="middle" x="865.5" y="-392" font-family="Helvetica,sans-Serif" font-size="10.00">::setLog</text>
</a>
</g>
</g>
<!-- Node13&#45;&gt;Node14 -->
<g id="edge13" class="edge"><title>Node13&#45;&gt;Node14</title>
<path fill="none" stroke="midnightblue" d="M770.154,-400.579C778.628,-400.527 787.293,-400.474 795.768,-400.422"/>
<polygon fill="midnightblue" stroke="midnightblue" points="796.009,-403.92 805.987,-400.359 795.966,-396.92 796.009,-403.92"/>
</g>
<!-- Node15 -->
<g id="node15" class="node"><title>Node15</title>
<g id="a_node15"><a xlink:href="classpdal_1_1gdal_1_1ErrorHandler.html#a61ea2c53f778817785d39cd9fc6a81a6" target="_top" xlink:title="pdal::gdal::ErrorHandler\l::setDebug">
<polygon fill="white" stroke="black" points="806,-434 806,-464 925,-464 925,-434 806,-434"/>
<text text-anchor="start" x="814" y="-452" font-family="Helvetica,sans-Serif" font-size="10.00">pdal::gdal::ErrorHandler</text>
<text text-anchor="middle" x="865.5" y="-441" font-family="Helvetica,sans-Serif" font-size="10.00">::setDebug</text>
</a>
</g>
</g>
<!-- Node13&#45;&gt;Node15 -->
<g id="edge14" class="edge"><title>Node13&#45;&gt;Node15</title>
<path fill="none" stroke="midnightblue" d="M734.094,-410.598C754.018,-416.465 780.129,-424.155 803.75,-431.11"/>
<polygon fill="midnightblue" stroke="midnightblue" points="802.767,-434.47 813.349,-433.937 804.745,-427.755 802.767,-434.47"/>
</g>
<!-- Node24 -->
<g id="node24" class="node"><title>Node24</title>
<g id="a_node24"><a xlink:href="classpdal_1_1Stage.html#a2444e73dc41bfc0b94981909595ef2ca" target="_top" xlink:title="pdal::Stage::done">
<polygon fill="white" stroke="black" points="472.5,-693.5 472.5,-712.5 565.5,-712.5 565.5,-693.5 472.5,-693.5"/>
<text text-anchor="middle" x="519" y="-700.5" font-family="Helvetica,sans-Serif" font-size="10.00">pdal::Stage::done</text>
</a>
</g>
</g>
<!-- Node23&#45;&gt;Node24 -->
<g id="edge24" class="edge"><title>Node23&#45;&gt;Node24</title>
<path fill="none" stroke="midnightblue" d="M377.052,-874.661C388.076,-871.769 398.883,-866.937 407,-859 452.012,-814.984 398.287,-766.319 443,-722 448.444,-716.604 455.187,-712.67 462.38,-709.814"/>
<polygon fill="midnightblue" stroke="midnightblue" points="463.965,-712.978 472.387,-706.551 461.795,-706.323 463.965,-712.978"/>
</g>
<!-- Node27 -->
<g id="node27" class="node"><title>Node27</title>
<g id="a_node27"><a xlink:href="namespacepdal_1_1Utils.html#a19dbb0a5ce84b6f60fea55cd54e674cf" target="_top" xlink:title="pdal::Utils::toString">
<polygon fill="white" stroke="black" points="276,-480.5 276,-499.5 377,-499.5 377,-480.5 276,-480.5"/>
<text text-anchor="middle" x="326.5" y="-487.5" font-family="Helvetica,sans-Serif" font-size="10.00">pdal::Utils::toString</text>
</a>
</g>
</g>
<!-- Node26&#45;&gt;Node27 -->
<g id="edge27" class="edge"><title>Node26&#45;&gt;Node27</title>
<path fill="none" stroke="midnightblue" d="M205.104,-486.665C224.576,-487.204 246.164,-487.802 265.62,-488.341"/>
<polygon fill="midnightblue" stroke="midnightblue" points="265.786,-491.847 275.879,-488.625 265.98,-484.85 265.786,-491.847"/>
</g>
<!-- Node28&#45;&gt;Node10 -->
<g id="edge49" class="edge"><title>Node28&#45;&gt;Node10</title>
<path fill="none" stroke="midnightblue" d="M193.407,-404.457C199.459,-401.788 205.198,-398.371 210,-394 240.945,-365.831 211.21,-330.255 246,-307 305.489,-267.235 346.535,-268.736 407,-307 438.583,-326.987 414.133,-359.259 443,-383 445.042,-384.68 447.214,-386.214 449.484,-387.614"/>
<polygon fill="midnightblue" stroke="midnightblue" points="448.165,-390.873 458.652,-392.38 451.393,-384.662 448.165,-390.873"/>
</g>
<!-- Node28&#45;&gt;Node25 -->
<g id="edge59" class="edge"><title>Node28&#45;&gt;Node25</title>
<path fill="none" stroke="midnightblue" d="M164.705,-423.593C178.44,-430.92 196.626,-441.96 210,-455 230.652,-475.137 222.336,-492.507 246,-509 248.881,-511.008 251.949,-512.806 255.139,-514.415"/>
<polygon fill="midnightblue" stroke="midnightblue" points="253.839,-517.666 264.404,-518.467 256.645,-511.253 253.839,-517.666"/>
</g>
<!-- Node28&#45;&gt;Node28 -->
<g id="edge29" class="edge"><title>Node28&#45;&gt;Node28</title>
<path fill="none" stroke="midnightblue" d="M125.196,-423.757C116.048,-432.565 122.316,-442 144,-442 157.891,-442 165.456,-438.128 166.693,-433.029"/>
<polygon fill="midnightblue" stroke="midnightblue" points="169.9,-431.625 162.804,-423.757 163.445,-434.332 169.9,-431.625"/>
</g>
<!-- Node29 -->
<g id="node29" class="node"><title>Node29</title>
<g id="a_node29"><a xlink:href="classpdal_1_1Stage.html#a75f17f9b67f48f6aab1d98aadefc4d5c" target="_top" xlink:title="pdal::Stage::handleOptions">
<polygon fill="white" stroke="black" points="259.5,-240.5 259.5,-259.5 393.5,-259.5 393.5,-240.5 259.5,-240.5"/>
<text text-anchor="middle" x="326.5" y="-247.5" font-family="Helvetica,sans-Serif" font-size="10.00">pdal::Stage::handleOptions</text>
</a>
</g>
</g>
<!-- Node28&#45;&gt;Node29 -->
<g id="edge30" class="edge"><title>Node28&#45;&gt;Node29</title>
<path fill="none" stroke="midnightblue" d="M194.803,-404.44C200.424,-401.768 205.674,-398.357 210,-394 249.234,-354.489 206.661,-313.407 246,-274 249.947,-270.046 254.521,-266.739 259.441,-263.974"/>
<polygon fill="midnightblue" stroke="midnightblue" points="261.119,-267.051 268.611,-259.56 258.082,-260.744 261.119,-267.051"/>
</g>
<!-- Node40 -->
<g id="node40" class="node"><title>Node40</title>
<g id="a_node40"><a xlink:href="classpdal_1_1Stage.html#a6c85dfbf6a674dbc2eda76a79efada48" target="_top" xlink:title="pdal::Stage::l_initialize">
<polygon fill="white" stroke="black" points="269,-82.5 269,-101.5 384,-101.5 384,-82.5 269,-82.5"/>
<text text-anchor="middle" x="326.5" y="-89.5" font-family="Helvetica,sans-Serif" font-size="10.00">pdal::Stage::l_initialize</text>
</a>
</g>
</g>
<!-- Node28&#45;&gt;Node40 -->
<g id="edge50" class="edge"><title>Node28&#45;&gt;Node40</title>
<path fill="none" stroke="midnightblue" d="M195.756,-404.422C201.08,-401.748 205.998,-398.34 210,-394 260.29,-339.455 219.279,-300.211 246,-231 263.835,-184.804 295.34,-135.599 312.857,-109.938"/>
<polygon fill="midnightblue" stroke="midnightblue" points="315.816,-111.813 318.627,-101.598 310.059,-107.831 315.816,-111.813"/>
</g>
<!-- Node44 -->
<g id="node44" class="node"><title>Node44</title>
<g id="a_node44"><a xlink:href="classpdal_1_1Stage.html#a5b422f842a6374b448439df99fe6e07e" target="_top" xlink:title="pdal::Stage::initialize">
<polygon fill="white" stroke="black" points="273,-442.5 273,-461.5 380,-461.5 380,-442.5 273,-442.5"/>
<text text-anchor="middle" x="326.5" y="-449.5" font-family="Helvetica,sans-Serif" font-size="10.00">pdal::Stage::initialize</text>
</a>
</g>
</g>
<!-- Node28&#45;&gt;Node44 -->
<g id="edge55" class="edge"><title>Node28&#45;&gt;Node44</title>
<path fill="none" stroke="midnightblue" d="M190.548,-423.589C214.796,-428.694 244.804,-435.011 270.361,-440.392"/>
<polygon fill="midnightblue" stroke="midnightblue" points="269.773,-443.845 280.28,-442.48 271.215,-436.995 269.773,-443.845"/>
</g>
<!-- Node45 -->
<g id="node45" class="node"><title>Node45</title>
<g id="a_node45"><a xlink:href="classpdal_1_1Stage.html#a7ec627c76e1c30fc53780bd81d08d4ad" target="_top" xlink:title="pdal::Stage::addDimensions">
<polygon fill="white" stroke="black" points="256.5,-404.5 256.5,-423.5 396.5,-423.5 396.5,-404.5 256.5,-404.5"/>
<text text-anchor="middle" x="326.5" y="-411.5" font-family="Helvetica,sans-Serif" font-size="10.00">pdal::Stage::addDimensions</text>
</a>
</g>
</g>
<!-- Node28&#45;&gt;Node45 -->
<g id="edge56" class="edge"><title>Node28&#45;&gt;Node45</title>
<path fill="none" stroke="midnightblue" d="M196.241,-414C211.691,-414 229.03,-414 245.868,-414"/>
<polygon fill="midnightblue" stroke="midnightblue" points="246.267,-417.5 256.266,-414 246.266,-410.5 246.267,-417.5"/>
</g>
<!-- Node46 -->
<g id="node46" class="node"><title>Node46</title>
<g id="a_node46"><a xlink:href="classpdal_1_1BasePointTable.html#a7e3a12a1f29e6cd10d8669ed3d07eb94" target="_top" xlink:title="pdal::BasePointTable\l::layout">
<polygon fill="white" stroke="black" points="271.5,-355 271.5,-385 381.5,-385 381.5,-355 271.5,-355"/>
<text text-anchor="start" x="279.5" y="-373" font-family="Helvetica,sans-Serif" font-size="10.00">pdal::BasePointTable</text>
<text text-anchor="middle" x="326.5" y="-362" font-family="Helvetica,sans-Serif" font-size="10.00">::layout</text>
</a>
</g>
</g>
<!-- Node28&#45;&gt;Node46 -->
<g id="edge57" class="edge"><title>Node28&#45;&gt;Node46</title>
<path fill="none" stroke="midnightblue" d="M184.166,-404.453C206.783,-398.939 235.782,-391.87 261.62,-385.572"/>
<polygon fill="midnightblue" stroke="midnightblue" points="262.461,-388.969 271.348,-383.201 260.803,-382.168 262.461,-388.969"/>
</g>
<!-- Node47 -->
<g id="node47" class="node"><title>Node47</title>
<g id="a_node47"><a xlink:href="classpdal_1_1Stage.html#affff6bc9dbff793d074d76333c5732dd" target="_top" xlink:title="pdal::Stage::prepared">
<polygon fill="white" stroke="black" points="271.5,-316.5 271.5,-335.5 381.5,-335.5 381.5,-316.5 271.5,-316.5"/>
<text text-anchor="middle" x="326.5" y="-323.5" font-family="Helvetica,sans-Serif" font-size="10.00">pdal::Stage::prepared</text>
</a>
</g>
</g>
<!-- Node28&#45;&gt;Node47 -->
<g id="edge58" class="edge"><title>Node28&#45;&gt;Node47</title>
<path fill="none" stroke="midnightblue" d="M189.789,-404.385C196.921,-401.708 203.937,-398.309 210,-394 232.028,-378.346 223.483,-359.942 246,-345 250.848,-341.783 256.182,-339.109 261.723,-336.887"/>
<polygon fill="midnightblue" stroke="midnightblue" points="262.919,-340.176 271.192,-333.557 260.597,-333.572 262.919,-340.176"/>
</g>
<!-- Node30 -->
<g id="node30" class="node"><title>Node30</title>
<g id="a_node30"><a xlink:href="classpdal_1_1Stage.html#a75ff99f7b665c6573e304ed4148dd99e" target="_top" xlink:title="pdal::Stage::addAllArgs">
<polygon fill="white" stroke="black" points="459.5,-126.5 459.5,-145.5 578.5,-145.5 578.5,-126.5 459.5,-126.5"/>
<text text-anchor="middle" x="519" y="-133.5" font-family="Helvetica,sans-Serif" font-size="10.00">pdal::Stage::addAllArgs</text>
</a>
</g>
</g>
<!-- Node29&#45;&gt;Node30 -->
<g id="edge31" class="edge"><title>Node29&#45;&gt;Node30</title>
<path fill="none" stroke="midnightblue" d="M343.414,-240.477C376.612,-220.61 453.453,-174.626 493.196,-150.844"/>
<polygon fill="midnightblue" stroke="midnightblue" points="495.213,-153.715 501.997,-145.577 491.619,-147.708 495.213,-153.715"/>
</g>
<!-- Node33 -->
<g id="node33" class="node"><title>Node33</title>
<g id="a_node33"><a xlink:href="classpdal_1_1Stage.html#a6c81d6fbbac17ebe4cd63806916cc750" target="_top" xlink:title="pdal::Stage::getName">
<polygon fill="white" stroke="black" points="644.5,-183.5 644.5,-202.5 756.5,-202.5 756.5,-183.5 644.5,-183.5"/>
<text text-anchor="middle" x="700.5" y="-190.5" font-family="Helvetica,sans-Serif" font-size="10.00">pdal::Stage::getName</text>
</a>
</g>
</g>
<!-- Node29&#45;&gt;Node33 -->
<g id="edge43" class="edge"><title>Node29&#45;&gt;Node33</title>
<path fill="none" stroke="midnightblue" d="M384.161,-240.494C402.884,-237.402 423.826,-233.997 443,-231 508.048,-220.832 582.488,-209.88 634.359,-202.358"/>
<polygon fill="midnightblue" stroke="midnightblue" points="635.027,-205.797 644.422,-200.9 634.024,-198.87 635.027,-205.797"/>
</g>
<!-- Node34 -->
<g id="node34" class="node"><title>Node34</title>
<g id="a_node34"><a xlink:href="classpdal_1_1Options.html#a99aa4c0c7ba443d584f741d22d37f6a5" target="_top" xlink:title="pdal::Options::getValues">
<polygon fill="white" stroke="black" points="457,-354.5 457,-373.5 581,-373.5 581,-354.5 457,-354.5"/>
<text text-anchor="middle" x="519" y="-361.5" font-family="Helvetica,sans-Serif" font-size="10.00">pdal::Options::getValues</text>
</a>
</g>
</g>
<!-- Node29&#45;&gt;Node34 -->
<g id="edge35" class="edge"><title>Node29&#45;&gt;Node34</title>
<path fill="none" stroke="midnightblue" d="M380.994,-259.633C390.353,-263.059 399.485,-267.704 407,-274 434.12,-296.721 415.375,-322.896 443,-345 445.186,-346.749 447.513,-348.339 449.944,-349.785"/>
<polygon fill="midnightblue" stroke="midnightblue" points="448.628,-353.041 459.134,-354.413 451.777,-346.789 448.628,-353.041"/>
</g>
<!-- Node35 -->
<g id="node35" class="node"><title>Node35</title>
<g id="a_node35"><a xlink:href="classpdal_1_1Options.html#aab2dd4f9208512ad8c38a71ad9d2c98b" target="_top" xlink:title="pdal::Options::addConditional">
<polygon fill="white" stroke="black" points="446.5,-480.5 446.5,-499.5 591.5,-499.5 591.5,-480.5 446.5,-480.5"/>
<text text-anchor="middle" x="519" y="-487.5" font-family="Helvetica,sans-Serif" font-size="10.00">pdal::Options::addConditional</text>
</a>
</g>
</g>
<!-- Node29&#45;&gt;Node35 -->
<g id="edge36" class="edge"><title>Node29&#45;&gt;Node35</title>
<path fill="none" stroke="midnightblue" d="M348.427,-259.551C366.721,-268.998 392.557,-285.196 407,-307 447.252,-367.767 393.462,-413.533 443,-467 446.104,-470.35 449.681,-473.217 453.555,-475.67"/>
<polygon fill="midnightblue" stroke="midnightblue" points="451.969,-478.79 462.44,-480.406 455.261,-472.613 451.969,-478.79"/>
</g>
<!-- Node36 -->
<g id="node36" class="node"><title>Node36</title>
<g id="a_node36"><a xlink:href="classpdal_1_1Options.html#a541bdbfe72511dad8a22236f0a3cb2ab" target="_top" xlink:title="pdal::Options::fromFile">
<polygon fill="white" stroke="red" points="461,-316.5 461,-335.5 577,-335.5 577,-316.5 461,-316.5"/>
<text text-anchor="middle" x="519" y="-323.5" font-family="Helvetica,sans-Serif" font-size="10.00">pdal::Options::fromFile</text>
</a>
</g>
</g>
<!-- Node29&#45;&gt;Node36 -->
<g id="edge39" class="edge"><title>Node29&#45;&gt;Node36</title>
<path fill="none" stroke="midnightblue" d="M371.858,-259.579C383.718,-263.144 396.225,-267.865 407,-274 425.862,-284.739 423.901,-296.689 443,-307 447.281,-309.311 451.852,-311.349 456.545,-313.144"/>
<polygon fill="midnightblue" stroke="midnightblue" points="455.701,-316.555 466.296,-316.498 457.978,-309.935 455.701,-316.555"/>
</g>
<!-- Node37 -->
<g id="node37" class="node"><title>Node37</title>
<g id="a_node37"><a xlink:href="classpdal_1_1Options.html#a0d9ebe7f77b36dea85b51eb0098a5df0" target="_top" xlink:title="pdal::Options::remove">
<polygon fill="white" stroke="black" points="462.5,-438.5 462.5,-457.5 575.5,-457.5 575.5,-438.5 462.5,-438.5"/>
<text text-anchor="middle" x="519" y="-445.5" font-family="Helvetica,sans-Serif" font-size="10.00">pdal::Options::remove</text>
</a>
</g>
</g>
<!-- Node29&#45;&gt;Node37 -->
<g id="edge40" class="edge"><title>Node29&#45;&gt;Node37</title>
<path fill="none" stroke="midnightblue" d="M347.644,-259.664C365.664,-269.288 391.549,-285.688 407,-307 438.188,-350.017 406.182,-382.691 443,-421 448.208,-426.419 454.582,-430.754 461.393,-434.221"/>
<polygon fill="midnightblue" stroke="midnightblue" points="460.323,-437.575 470.883,-438.431 463.162,-431.177 460.323,-437.575"/>
</g>
<!-- Node38 -->
<g id="node38" class="node"><title>Node38</title>
<g id="a_node38"><a xlink:href="classpdal_1_1Options.html#afb18dcc4f3883b8413171db00482959c" target="_top" xlink:title="pdal::Options::toCommandLine">
<polygon fill="white" stroke="red" points="443,-240.5 443,-259.5 595,-259.5 595,-240.5 443,-240.5"/>
<text text-anchor="middle" x="519" y="-247.5" font-family="Helvetica,sans-Serif" font-size="10.00">pdal::Options::toCommandLine</text>
</a>
</g>
</g>
<!-- Node29&#45;&gt;Node38 -->
<g id="edge42" class="edge"><title>Node29&#45;&gt;Node38</title>
<path fill="none" stroke="midnightblue" d="M393.593,-250C406.267,-250 419.703,-250 432.878,-250"/>
<polygon fill="midnightblue" stroke="midnightblue" points="432.885,-253.5 442.885,-250 432.885,-246.5 432.885,-253.5"/>
</g>
<!-- Node39 -->
<g id="node39" class="node"><title>Node39</title>
<g id="a_node39"><a xlink:href="classpdal_1_1Stage.html#ab94db25b14b94de1f62f9738327accd2" target="_top" xlink:title="pdal::Stage::setupLog">
<polygon fill="white" stroke="black" points="463,-278.5 463,-297.5 575,-297.5 575,-278.5 463,-278.5"/>
<text text-anchor="middle" x="519" y="-285.5" font-family="Helvetica,sans-Serif" font-size="10.00">pdal::Stage::setupLog</text>
</a>
</g>
</g>
<!-- Node29&#45;&gt;Node39 -->
<g id="edge44" class="edge"><title>Node29&#45;&gt;Node39</title>
<path fill="none" stroke="midnightblue" d="M375.571,-259.589C401.276,-264.716 433.113,-271.067 460.164,-276.463"/>
<polygon fill="midnightblue" stroke="midnightblue" points="459.783,-279.956 470.274,-278.48 461.152,-273.091 459.783,-279.956"/>
</g>
<!-- Node31 -->
<g id="node31" class="node"><title>Node31</title>
<g id="a_node31"><a xlink:href="classpdal_1_1Stage.html#ae89a62fb39c52a2067fc318359065625" target="_top" xlink:title="pdal::Stage::l_addArgs">
<polygon fill="white" stroke="red" points="642.5,-98.5 642.5,-117.5 758.5,-117.5 758.5,-98.5 642.5,-98.5"/>
<text text-anchor="middle" x="700.5" y="-105.5" font-family="Helvetica,sans-Serif" font-size="10.00">pdal::Stage::l_addArgs</text>
</a>
</g>
</g>
<!-- Node30&#45;&gt;Node31 -->
<g id="edge32" class="edge"><title>Node30&#45;&gt;Node31</title>
<path fill="none" stroke="midnightblue" d="M578.775,-126.832C595.869,-124.165 614.672,-121.232 632.245,-118.491"/>
<polygon fill="midnightblue" stroke="midnightblue" points="633.087,-121.902 642.428,-116.903 632.008,-114.986 633.087,-121.902"/>
</g>
<!-- Node32 -->
<g id="node32" class="node"><title>Node32</title>
<g id="a_node32"><a xlink:href="classpdal_1_1Stage.html#a3f15d8fc5456be812aafc84000d8e621" target="_top" xlink:title="pdal::Stage::addArgs">
<polygon fill="white" stroke="black" points="646.5,-136.5 646.5,-155.5 754.5,-155.5 754.5,-136.5 646.5,-136.5"/>
<text text-anchor="middle" x="700.5" y="-143.5" font-family="Helvetica,sans-Serif" font-size="10.00">pdal::Stage::addArgs</text>
</a>
</g>
</g>
<!-- Node30&#45;&gt;Node32 -->
<g id="edge33" class="edge"><title>Node30&#45;&gt;Node32</title>
<path fill="none" stroke="midnightblue" d="M578.775,-139.274C597.15,-140.298 617.5,-141.432 636.175,-142.472"/>
<polygon fill="midnightblue" stroke="midnightblue" points="636.174,-145.977 646.354,-143.039 636.564,-138.988 636.174,-145.977"/>
</g>
<!-- Node30&#45;&gt;Node33 -->
<g id="edge34" class="edge"><title>Node30&#45;&gt;Node33</title>
<path fill="none" stroke="midnightblue" d="M550.044,-145.541C580.073,-155.076 626.42,-169.794 659.537,-180.31"/>
<polygon fill="midnightblue" stroke="midnightblue" points="658.767,-183.738 669.358,-183.428 660.886,-177.066 658.767,-183.738"/>
</g>
<!-- Node35&#45;&gt;Node3 -->
<g id="edge37" class="edge"><title>Node35&#45;&gt;Node3</title>
<path fill="none" stroke="midnightblue" d="M562.995,-499.581C588.194,-505.196 620.216,-512.332 646.911,-518.281"/>
<polygon fill="midnightblue" stroke="midnightblue" points="646.334,-521.738 656.856,-520.497 647.857,-514.906 646.334,-521.738"/>
</g>
<!-- Node35&#45;&gt;Node8 -->
<g id="edge38" class="edge"><title>Node35&#45;&gt;Node8</title>
<path fill="none" stroke="midnightblue" d="M591.717,-490C605.257,-490 619.368,-490 632.748,-490"/>
<polygon fill="midnightblue" stroke="midnightblue" points="632.816,-493.5 642.816,-490 632.816,-486.5 632.816,-493.5"/>
</g>
<!-- Node37&#45;&gt;Node8 -->
<g id="edge41" class="edge"><title>Node37&#45;&gt;Node8</title>
<path fill="none" stroke="midnightblue" d="M560.731,-457.53C586.802,-463.631 620.834,-471.593 648.671,-478.107"/>
<polygon fill="midnightblue" stroke="midnightblue" points="648.085,-481.564 658.62,-480.435 649.68,-474.748 648.085,-481.564"/>
</g>
<!-- Node39&#45;&gt;Node11 -->
<g id="edge46" class="edge"><title>Node39&#45;&gt;Node11</title>
<path fill="none" stroke="midnightblue" d="M559.853,-297.505C571.252,-300.383 583.659,-303.669 595,-307 612.187,-312.048 630.78,-318.084 647.452,-323.712"/>
<polygon fill="midnightblue" stroke="midnightblue" points="646.426,-327.06 657.021,-326.967 648.681,-320.433 646.426,-327.06"/>
</g>
<!-- Node39&#45;&gt;Node13 -->
<g id="edge47" class="edge"><title>Node39&#45;&gt;Node13</title>
<path fill="none" stroke="midnightblue" d="M575.107,-296.636C582.202,-299.237 589.055,-302.615 595,-307 619.721,-325.234 608.475,-345.114 631,-366 640.334,-374.655 652.213,-381.716 663.448,-387.172"/>
<polygon fill="midnightblue" stroke="midnightblue" points="662.113,-390.41 672.664,-391.376 665.019,-384.041 662.113,-390.41"/>
</g>
<!-- Node39&#45;&gt;Node16 -->
<g id="edge48" class="edge"><title>Node39&#45;&gt;Node16</title>
<path fill="none" stroke="midnightblue" d="M575.321,-289.541C594.531,-290.076 616.222,-290.68 636.038,-291.232"/>
<polygon fill="midnightblue" stroke="midnightblue" points="636.113,-294.736 646.207,-291.516 636.308,-287.738 636.113,-294.736"/>
</g>
<!-- Node39&#45;&gt;Node33 -->
<g id="edge45" class="edge"><title>Node39&#45;&gt;Node33</title>
<path fill="none" stroke="midnightblue" d="M568.953,-278.471C577.831,-275.943 586.852,-272.821 595,-269 628.234,-253.417 661.675,-226.706 681.482,-209.458"/>
<polygon fill="midnightblue" stroke="midnightblue" points="683.936,-211.96 689.095,-202.706 679.291,-206.723 683.936,-211.96"/>
</g>
<!-- Node40&#45;&gt;Node33 -->
<g id="edge53" class="edge"><title>Node40&#45;&gt;Node33</title>
<path fill="none" stroke="midnightblue" d="M341.338,-101.673C362.293,-115.813 403.798,-141.869 443,-155 505.929,-176.079 581.442,-185.482 634.176,-189.667"/>
<polygon fill="midnightblue" stroke="midnightblue" points="634.175,-193.176 644.409,-190.436 634.7,-186.196 634.175,-193.176"/>
</g>
<!-- Node41 -->
<g id="node41" class="node"><title>Node41</title>
<g id="a_node41"><a xlink:href="classpdal_1_1BasePointTable.html#a03429472e71e5dd323bc92319f4a9df6" target="_top" xlink:title="pdal::BasePointTable\l::metadata">
<polygon fill="white" stroke="black" points="464,-77 464,-107 574,-107 574,-77 464,-77"/>
<text text-anchor="start" x="472" y="-95" font-family="Helvetica,sans-Serif" font-size="10.00">pdal::BasePointTable</text>
<text text-anchor="middle" x="519" y="-84" font-family="Helvetica,sans-Serif" font-size="10.00">::metadata</text>
</a>
</g>
</g>
<!-- Node40&#45;&gt;Node41 -->
<g id="edge51" class="edge"><title>Node40&#45;&gt;Node41</title>
<path fill="none" stroke="midnightblue" d="M384.141,-92C406.016,-92 431.161,-92 453.71,-92"/>
<polygon fill="midnightblue" stroke="midnightblue" points="453.866,-95.5001 463.866,-92 453.866,-88.5001 453.866,-95.5001"/>
</g>
<!-- Node42 -->
<g id="node42" class="node"><title>Node42</title>
<g id="a_node42"><a xlink:href="classpdal_1_1MetadataNode.html#af2c1c5d91f6ab47a804aa8a0a1b043c2" target="_top" xlink:title="pdal::MetadataNode::add">
<polygon fill="white" stroke="black" points="456,-38.5 456,-57.5 582,-57.5 582,-38.5 456,-38.5"/>
<text text-anchor="middle" x="519" y="-45.5" font-family="Helvetica,sans-Serif" font-size="10.00">pdal::MetadataNode::add</text>
</a>
</g>
</g>
<!-- Node40&#45;&gt;Node42 -->
<g id="edge52" class="edge"><title>Node40&#45;&gt;Node42</title>
<path fill="none" stroke="midnightblue" d="M368.836,-82.4527C397.544,-75.8219 435.994,-66.9409 466.667,-59.8565"/>
<polygon fill="midnightblue" stroke="midnightblue" points="467.789,-63.1895 476.745,-57.5287 466.214,-56.369 467.789,-63.1895"/>
</g>
<!-- Node43 -->
<g id="node43" class="node"><title>Node43</title>
<g id="a_node43"><a xlink:href="classpdal_1_1Stage.html#a0d7c0bb23ed18577b1aa58b02448487f" target="_top" xlink:title="pdal::Stage::writerInitialize">
<polygon fill="white" stroke="black" points="453,-0.5 453,-19.5 585,-19.5 585,-0.5 453,-0.5"/>
<text text-anchor="middle" x="519" y="-7.5" font-family="Helvetica,sans-Serif" font-size="10.00">pdal::Stage::writerInitialize</text>
</a>
</g>
</g>
<!-- Node40&#45;&gt;Node43 -->
<g id="edge54" class="edge"><title>Node40&#45;&gt;Node43</title>
<path fill="none" stroke="midnightblue" d="M342.231,-82.3812C363.634,-68.7806 404.937,-43.9269 443,-29 449.301,-26.5289 456.028,-24.2944 462.768,-22.2992"/>
<polygon fill="midnightblue" stroke="midnightblue" points="463.918,-25.612 472.605,-19.5474 462.032,-18.8708 463.918,-25.612"/>
</g>
</g>
</svg>
