<?xml version="1.0" encoding="UTF-8" standalone="no"?>
<!DOCTYPE svg PUBLIC "-//W3C//DTD SVG 1.1//EN"
 "http://www.w3.org/Graphics/SVG/1.1/DTD/svg11.dtd">
<!-- Generated by graphviz version 2.38.0 (20140413.2041)
 -->
<!-- Title: pdal/plugins/greyhound/io/CompressionStream.cpp Pages: 1 -->
<svg width="379pt" height="151pt"
 viewBox="0.00 0.00 379.00 151.00" xmlns="http://www.w3.org/2000/svg" xmlns:xlink="http://www.w3.org/1999/xlink">
<g id="graph0" class="graph" transform="scale(1 1) rotate(0) translate(4 147)">
<title>pdal/plugins/greyhound/io/CompressionStream.cpp</title>
<polygon fill="white" stroke="none" points="-4,4 -4,-147 375,-147 375,4 -4,4"/>
<!-- Node1 -->
<g id="node1" class="node"><title>Node1</title>
<polygon fill="#bfbfbf" stroke="black" points="31.5,-112.5 31.5,-142.5 169.5,-142.5 169.5,-112.5 31.5,-112.5"/>
<text text-anchor="start" x="39.5" y="-130.5" font-family="Helvetica,sans-Serif" font-size="10.00">pdal/plugins/greyhound</text>
<text text-anchor="middle" x="100.5" y="-119.5" font-family="Helvetica,sans-Serif" font-size="10.00">/io/CompressionStream.cpp</text>
</g>
<!-- Node2 -->
<g id="node2" class="node"><title>Node2</title>
<polygon fill="white" stroke="#bfbfbf" points="0,-56.5 0,-75.5 59,-75.5 59,-56.5 0,-56.5"/>
<text text-anchor="middle" x="29.5" y="-63.5" font-family="Helvetica,sans-Serif" font-size="10.00">stdexcept</text>
</g>
<!-- Node1&#45;&gt;Node2 -->
<g id="edge1" class="edge"><title>Node1&#45;&gt;Node2</title>
<path fill="none" stroke="midnightblue" d="M83.674,-112.399C72.825,-103.308 58.7233,-91.4899 47.627,-82.1909"/>
<polygon fill="midnightblue" stroke="midnightblue" points="49.7437,-79.3983 39.8311,-75.6578 45.2476,-84.7634 49.7437,-79.3983"/>
</g>
<!-- Node3 -->
<g id="node3" class="node"><title>Node3</title>
<polygon fill="white" stroke="#bfbfbf" points="77.5,-56.5 77.5,-75.5 123.5,-75.5 123.5,-56.5 77.5,-56.5"/>
<text text-anchor="middle" x="100.5" y="-63.5" font-family="Helvetica,sans-Serif" font-size="10.00">cstring</text>
</g>
<!-- Node1&#45;&gt;Node3 -->
<g id="edge2" class="edge"><title>Node1&#45;&gt;Node3</title>
<path fill="none" stroke="midnightblue" d="M100.5,-112.399C100.5,-104.466 100.5,-94.458 100.5,-85.8583"/>
<polygon fill="midnightblue" stroke="midnightblue" points="104,-85.6577 100.5,-75.6578 97.0001,-85.6578 104,-85.6577"/>
</g>
<!-- Node4 -->
<g id="node4" class="node"><title>Node4</title>
<g id="a_node4"><a xlink:href="CompressionStream_8hpp.html" target="_top" xlink:title="CompressionStream.hpp">
<polygon fill="white" stroke="black" points="142,-56.5 142,-75.5 267,-75.5 267,-56.5 142,-56.5"/>
<text text-anchor="middle" x="204.5" y="-63.5" font-family="Helvetica,sans-Serif" font-size="10.00">CompressionStream.hpp</text>
</a>
</g>
</g>
<!-- Node1&#45;&gt;Node4 -->
<g id="edge3" class="edge"><title>Node1&#45;&gt;Node4</title>
<path fill="none" stroke="midnightblue" d="M125.147,-112.399C141.817,-102.862 163.731,-90.3248 180.305,-80.8422"/>
<polygon fill="midnightblue" stroke="midnightblue" points="182.425,-83.6617 189.367,-75.6578 178.949,-77.5858 182.425,-83.6617"/>
</g>
<!-- Node5 -->
<g id="node5" class="node"><title>Node5</title>
<polygon fill="white" stroke="#bfbfbf" points="87.5,-0.5 87.5,-19.5 133.5,-19.5 133.5,-0.5 87.5,-0.5"/>
<text text-anchor="middle" x="110.5" y="-7.5" font-family="Helvetica,sans-Serif" font-size="10.00">cstdint</text>
</g>
<!-- Node4&#45;&gt;Node5 -->
<g id="edge4" class="edge"><title>Node4&#45;&gt;Node5</title>
<path fill="none" stroke="midnightblue" d="M189.397,-56.324C174.597,-47.8215 151.806,-34.7288 134.518,-24.7975"/>
<polygon fill="midnightblue" stroke="midnightblue" points="135.98,-21.6009 125.565,-19.6545 132.493,-27.6707 135.98,-21.6009"/>
</g>
<!-- Node6 -->
<g id="node6" class="node"><title>Node6</title>
<polygon fill="white" stroke="#bfbfbf" points="151.5,-0.5 151.5,-19.5 195.5,-19.5 195.5,-0.5 151.5,-0.5"/>
<text text-anchor="middle" x="173.5" y="-7.5" font-family="Helvetica,sans-Serif" font-size="10.00">vector</text>
</g>
<!-- Node4&#45;&gt;Node6 -->
<g id="edge5" class="edge"><title>Node4&#45;&gt;Node6</title>
<path fill="none" stroke="midnightblue" d="M199.381,-56.083C195.092,-48.6127 188.842,-37.7244 183.558,-28.5199"/>
<polygon fill="midnightblue" stroke="midnightblue" points="186.538,-26.6811 178.524,-19.7511 180.467,-30.1662 186.538,-26.6811"/>
</g>
<!-- Node7 -->
<g id="node7" class="node"><title>Node7</title>
<polygon fill="white" stroke="#bfbfbf" points="213.5,-0.5 213.5,-19.5 257.5,-19.5 257.5,-0.5 213.5,-0.5"/>
<text text-anchor="middle" x="235.5" y="-7.5" font-family="Helvetica,sans-Serif" font-size="10.00">mutex</text>
</g>
<!-- Node4&#45;&gt;Node7 -->
<g id="edge6" class="edge"><title>Node4&#45;&gt;Node7</title>
<path fill="none" stroke="midnightblue" d="M209.619,-56.083C213.908,-48.6127 220.158,-37.7244 225.442,-28.5199"/>
<polygon fill="midnightblue" stroke="midnightblue" points="228.533,-30.1662 230.476,-19.7511 222.462,-26.6811 228.533,-30.1662"/>
</g>
<!-- Node8 -->
<g id="node8" class="node"><title>Node8</title>
<polygon fill="white" stroke="#bfbfbf" points="276,-0.5 276,-19.5 371,-19.5 371,-0.5 276,-0.5"/>
<text text-anchor="middle" x="323.5" y="-7.5" font-family="Helvetica,sans-Serif" font-size="10.00">condition_variable</text>
</g>
<!-- Node4&#45;&gt;Node8 -->
<g id="edge7" class="edge"><title>Node4&#45;&gt;Node8</title>
<path fill="none" stroke="midnightblue" d="M223.356,-56.4435C242.766,-47.6356 273.23,-33.8116 295.465,-23.722"/>
<polygon fill="midnightblue" stroke="midnightblue" points="297.072,-26.836 304.732,-19.5164 294.18,-20.4615 297.072,-26.836"/>
</g>
</g>
</svg>
