<?xml version="1.0" encoding="UTF-8" standalone="no"?>
<!DOCTYPE svg PUBLIC "-//W3C//DTD SVG 1.1//EN"
 "http://www.w3.org/Graphics/SVG/1.1/DTD/svg11.dtd">
<!-- Generated by graphviz version 2.38.0 (20140413.2041)
 -->
<!-- Title: pdal/filters/CropFilter.hpp Pages: 1 -->
<svg width="574pt" height="95pt"
 viewBox="0.00 0.00 574.00 95.00" xmlns="http://www.w3.org/2000/svg" xmlns:xlink="http://www.w3.org/1999/xlink">
<g id="graph0" class="graph" transform="scale(1 1) rotate(0) translate(4 91)">
<title>pdal/filters/CropFilter.hpp</title>
<polygon fill="white" stroke="none" points="-4,4 -4,-91 570,-91 570,4 -4,4"/>
<!-- Node1 -->
<g id="node1" class="node"><title>Node1</title>
<polygon fill="#bfbfbf" stroke="black" points="217,-67.5 217,-86.5 343,-86.5 343,-67.5 217,-67.5"/>
<text text-anchor="middle" x="280" y="-74.5" font-family="Helvetica,sans-Serif" font-size="10.00">pdal/filters/CropFilter.hpp</text>
</g>
<!-- Node2 -->
<g id="node2" class="node"><title>Node2</title>
<g id="a_node2"><a xlink:href="CropFilter_8cpp.html" target="_top" xlink:title="pdal/filters/CropFilter.cpp">
<polygon fill="white" stroke="black" points="0,-6 0,-25 126,-25 126,-6 0,-6"/>
<text text-anchor="middle" x="63" y="-13" font-family="Helvetica,sans-Serif" font-size="10.00">pdal/filters/CropFilter.cpp</text>
</a>
</g>
</g>
<!-- Node1&#45;&gt;Node2 -->
<g id="edge1" class="edge"><title>Node1&#45;&gt;Node2</title>
<path fill="none" stroke="midnightblue" d="M239.235,-64.8225C197.082,-53.2645 132.196,-35.4732 94.0331,-25.0091"/>
<polygon fill="midnightblue" stroke="midnightblue" points="238.34,-68.2061 248.909,-67.4751 240.191,-61.4553 238.34,-68.2061"/>
</g>
<!-- Node3 -->
<g id="node3" class="node"><title>Node3</title>
<g id="a_node3"><a xlink:href="StageFactory_8cpp.html" target="_top" xlink:title="pdal/pdal/StageFactory.cpp">
<polygon fill="white" stroke="black" points="144,-6 144,-25 280,-25 280,-6 144,-6"/>
<text text-anchor="middle" x="212" y="-13" font-family="Helvetica,sans-Serif" font-size="10.00">pdal/pdal/StageFactory.cpp</text>
</a>
</g>
</g>
<!-- Node1&#45;&gt;Node3 -->
<g id="edge2" class="edge"><title>Node1&#45;&gt;Node3</title>
<path fill="none" stroke="midnightblue" d="M262.457,-60.6496C249.492,-49.3058 232.321,-34.2811 221.725,-25.0091"/>
<polygon fill="midnightblue" stroke="midnightblue" points="260.427,-63.524 270.257,-67.4751 265.036,-58.256 260.427,-63.524"/>
</g>
<!-- Node4 -->
<g id="node4" class="node"><title>Node4</title>
<g id="a_node4"><a xlink:href="CropFilterTest_8cpp.html" target="_top" xlink:title="pdal/test/unit/filters\l/CropFilterTest.cpp">
<polygon fill="white" stroke="black" points="298.5,-0.5 298.5,-30.5 399.5,-30.5 399.5,-0.5 298.5,-0.5"/>
<text text-anchor="start" x="306.5" y="-18.5" font-family="Helvetica,sans-Serif" font-size="10.00">pdal/test/unit/filters</text>
<text text-anchor="middle" x="349" y="-7.5" font-family="Helvetica,sans-Serif" font-size="10.00">/CropFilterTest.cpp</text>
</a>
</g>
</g>
<!-- Node1&#45;&gt;Node4 -->
<g id="edge3" class="edge"><title>Node1&#45;&gt;Node4</title>
<path fill="none" stroke="midnightblue" d="M297.486,-60.9215C308.32,-51.579 322.14,-39.6616 332.738,-30.523"/>
<polygon fill="midnightblue" stroke="midnightblue" points="295.174,-58.294 289.886,-67.4751 299.745,-63.5952 295.174,-58.294"/>
</g>
<!-- Node5 -->
<g id="node5" class="node"><title>Node5</title>
<g id="a_node5"><a xlink:href="OptionsTest_8cpp.html" target="_top" xlink:title="pdal/test/unit/OptionsTest.cpp">
<polygon fill="white" stroke="black" points="418,-6 418,-25 566,-25 566,-6 418,-6"/>
<text text-anchor="middle" x="492" y="-13" font-family="Helvetica,sans-Serif" font-size="10.00">pdal/test/unit/OptionsTest.cpp</text>
</a>
</g>
</g>
<!-- Node1&#45;&gt;Node5 -->
<g id="edge4" class="edge"><title>Node1&#45;&gt;Node5</title>
<path fill="none" stroke="midnightblue" d="M320.087,-64.7493C361.275,-53.1894 424.477,-35.4511 461.682,-25.0091"/>
<polygon fill="midnightblue" stroke="midnightblue" points="319.057,-61.403 310.374,-67.4751 320.948,-68.1426 319.057,-61.403"/>
</g>
</g>
</svg>
