<?xml version="1.0" encoding="UTF-8" standalone="no"?>
<!DOCTYPE svg PUBLIC "-//W3C//DTD SVG 1.1//EN"
 "http://www.w3.org/Graphics/SVG/1.1/DTD/svg11.dtd">
<!-- Generated by graphviz version 2.38.0 (20140413.2041)
 -->
<!-- Title: pdal/pdal/DbReader.hpp Pages: 1 -->
<svg width="516pt" height="162pt"
 viewBox="0.00 0.00 516.00 162.00" xmlns="http://www.w3.org/2000/svg" xmlns:xlink="http://www.w3.org/1999/xlink">
<g id="graph0" class="graph" transform="scale(1 1) rotate(0) translate(4 158)">
<title>pdal/pdal/DbReader.hpp</title>
<polygon fill="white" stroke="none" points="-4,4 -4,-158 512,-158 512,4 -4,4"/>
<!-- Node1 -->
<g id="node1" class="node"><title>Node1</title>
<polygon fill="#bfbfbf" stroke="black" points="191,-134.5 191,-153.5 313,-153.5 313,-134.5 191,-134.5"/>
<text text-anchor="middle" x="252" y="-141.5" font-family="Helvetica,sans-Serif" font-size="10.00">pdal/pdal/DbReader.hpp</text>
</g>
<!-- Node2 -->
<g id="node2" class="node"><title>Node2</title>
<g id="a_node2"><a xlink:href="DbReader_8cpp.html" target="_top" xlink:title="pdal/pdal/DbReader.cpp">
<polygon fill="white" stroke="black" points="0,-73 0,-92 122,-92 122,-73 0,-73"/>
<text text-anchor="middle" x="61" y="-80" font-family="Helvetica,sans-Serif" font-size="10.00">pdal/pdal/DbReader.cpp</text>
</a>
</g>
</g>
<!-- Node1&#45;&gt;Node2 -->
<g id="edge1" class="edge"><title>Node1&#45;&gt;Node2</title>
<path fill="none" stroke="midnightblue" d="M214.701,-131.381C177.575,-119.815 121.48,-102.341 88.3149,-92.0091"/>
<polygon fill="midnightblue" stroke="midnightblue" points="214.046,-134.842 224.634,-134.475 216.128,-128.159 214.046,-134.842"/>
</g>
<!-- Node3 -->
<g id="node3" class="node"><title>Node3</title>
<g id="a_node3"><a xlink:href="OciReader_8hpp.html" target="_top" xlink:title="pdal/plugins/oci/io\l/OciReader.hpp">
<polygon fill="white" stroke="black" points="140.5,-67.5 140.5,-97.5 235.5,-97.5 235.5,-67.5 140.5,-67.5"/>
<text text-anchor="start" x="148.5" y="-85.5" font-family="Helvetica,sans-Serif" font-size="10.00">pdal/plugins/oci/io</text>
<text text-anchor="middle" x="188" y="-74.5" font-family="Helvetica,sans-Serif" font-size="10.00">/OciReader.hpp</text>
</a>
</g>
</g>
<!-- Node1&#45;&gt;Node3 -->
<g id="edge2" class="edge"><title>Node1&#45;&gt;Node3</title>
<path fill="none" stroke="midnightblue" d="M235.485,-127.646C225.481,-118.346 212.817,-106.572 203.084,-97.523"/>
<polygon fill="midnightblue" stroke="midnightblue" points="233.123,-130.23 242.83,-134.475 237.89,-125.103 233.123,-130.23"/>
</g>
<!-- Node5 -->
<g id="node5" class="node"><title>Node5</title>
<g id="a_node5"><a xlink:href="PgReader_8hpp.html" target="_top" xlink:title="pdal/plugins/pgpointcloud\l/io/PgReader.hpp">
<polygon fill="white" stroke="black" points="254,-67.5 254,-97.5 380,-97.5 380,-67.5 254,-67.5"/>
<text text-anchor="start" x="262" y="-85.5" font-family="Helvetica,sans-Serif" font-size="10.00">pdal/plugins/pgpointcloud</text>
<text text-anchor="middle" x="317" y="-74.5" font-family="Helvetica,sans-Serif" font-size="10.00">/io/PgReader.hpp</text>
</a>
</g>
</g>
<!-- Node1&#45;&gt;Node5 -->
<g id="edge4" class="edge"><title>Node1&#45;&gt;Node5</title>
<path fill="none" stroke="midnightblue" d="M268.773,-127.646C278.933,-118.346 291.795,-106.572 301.681,-97.523"/>
<polygon fill="midnightblue" stroke="midnightblue" points="266.326,-125.141 261.313,-134.475 271.052,-130.305 266.326,-125.141"/>
</g>
<!-- Node7 -->
<g id="node7" class="node"><title>Node7</title>
<g id="a_node7"><a xlink:href="SQLiteReader_8hpp.html" target="_top" xlink:title="pdal/plugins/sqlite\l/io/SQLiteReader.hpp">
<polygon fill="white" stroke="black" points="398,-67.5 398,-97.5 508,-97.5 508,-67.5 398,-67.5"/>
<text text-anchor="start" x="406" y="-85.5" font-family="Helvetica,sans-Serif" font-size="10.00">pdal/plugins/sqlite</text>
<text text-anchor="middle" x="453" y="-74.5" font-family="Helvetica,sans-Serif" font-size="10.00">/io/SQLiteReader.hpp</text>
</a>
</g>
</g>
<!-- Node1&#45;&gt;Node7 -->
<g id="edge6" class="edge"><title>Node1&#45;&gt;Node7</title>
<path fill="none" stroke="midnightblue" d="M290.481,-131.609C323.27,-121.903 370.519,-107.916 405.628,-97.523"/>
<polygon fill="midnightblue" stroke="midnightblue" points="289.394,-128.281 280.798,-134.475 291.381,-134.993 289.394,-128.281"/>
</g>
<!-- Node4 -->
<g id="node4" class="node"><title>Node4</title>
<g id="a_node4"><a xlink:href="OciReader_8cpp.html" target="_top" xlink:title="pdal/plugins/oci/io\l/OciReader.cpp">
<polygon fill="white" stroke="black" points="140.5,-0.5 140.5,-30.5 235.5,-30.5 235.5,-0.5 140.5,-0.5"/>
<text text-anchor="start" x="148.5" y="-18.5" font-family="Helvetica,sans-Serif" font-size="10.00">pdal/plugins/oci/io</text>
<text text-anchor="middle" x="188" y="-7.5" font-family="Helvetica,sans-Serif" font-size="10.00">/OciReader.cpp</text>
</a>
</g>
</g>
<!-- Node3&#45;&gt;Node4 -->
<g id="edge3" class="edge"><title>Node3&#45;&gt;Node4</title>
<path fill="none" stroke="midnightblue" d="M188,-57.1081C188,-48.1539 188,-38.3227 188,-30.5765"/>
<polygon fill="midnightblue" stroke="midnightblue" points="184.5,-57.3959 188,-67.396 191.5,-57.396 184.5,-57.3959"/>
</g>
<!-- Node6 -->
<g id="node6" class="node"><title>Node6</title>
<g id="a_node6"><a xlink:href="PgReader_8cpp.html" target="_top" xlink:title="pdal/plugins/pgpointcloud\l/io/PgReader.cpp">
<polygon fill="white" stroke="black" points="254,-0.5 254,-30.5 380,-30.5 380,-0.5 254,-0.5"/>
<text text-anchor="start" x="262" y="-18.5" font-family="Helvetica,sans-Serif" font-size="10.00">pdal/plugins/pgpointcloud</text>
<text text-anchor="middle" x="317" y="-7.5" font-family="Helvetica,sans-Serif" font-size="10.00">/io/PgReader.cpp</text>
</a>
</g>
</g>
<!-- Node5&#45;&gt;Node6 -->
<g id="edge5" class="edge"><title>Node5&#45;&gt;Node6</title>
<path fill="none" stroke="midnightblue" d="M317,-57.1081C317,-48.1539 317,-38.3227 317,-30.5765"/>
<polygon fill="midnightblue" stroke="midnightblue" points="313.5,-57.3959 317,-67.396 320.5,-57.396 313.5,-57.3959"/>
</g>
<!-- Node8 -->
<g id="node8" class="node"><title>Node8</title>
<g id="a_node8"><a xlink:href="SQLiteReader_8cpp.html" target="_top" xlink:title="pdal/plugins/sqlite\l/io/SQLiteReader.cpp">
<polygon fill="white" stroke="black" points="398,-0.5 398,-30.5 508,-30.5 508,-0.5 398,-0.5"/>
<text text-anchor="start" x="406" y="-18.5" font-family="Helvetica,sans-Serif" font-size="10.00">pdal/plugins/sqlite</text>
<text text-anchor="middle" x="453" y="-7.5" font-family="Helvetica,sans-Serif" font-size="10.00">/io/SQLiteReader.cpp</text>
</a>
</g>
</g>
<!-- Node7&#45;&gt;Node8 -->
<g id="edge7" class="edge"><title>Node7&#45;&gt;Node8</title>
<path fill="none" stroke="midnightblue" d="M453,-57.1081C453,-48.1539 453,-38.3227 453,-30.5765"/>
<polygon fill="midnightblue" stroke="midnightblue" points="449.5,-57.3959 453,-67.396 456.5,-57.396 449.5,-57.3959"/>
</g>
</g>
</svg>
