<?xml version="1.0" encoding="UTF-8" standalone="no"?>
<!DOCTYPE svg PUBLIC "-//W3C//DTD SVG 1.1//EN"
 "http://www.w3.org/Graphics/SVG/1.1/DTD/svg11.dtd">
<!-- Generated by graphviz version 2.38.0 (20140413.2041)
 -->
<!-- Title: pdal/pdal/DimUtil.hpp Pages: 1 -->
<svg width="1461pt" height="196pt"
 viewBox="0.00 0.00 1460.50 196.00" xmlns="http://www.w3.org/2000/svg" xmlns:xlink="http://www.w3.org/1999/xlink">
<g id="graph0" class="graph" transform="scale(1 1) rotate(0) translate(4 192)">
<title>pdal/pdal/DimUtil.hpp</title>
<polygon fill="white" stroke="none" points="-4,4 -4,-192 1456.5,-192 1456.5,4 -4,4"/>
<!-- Node1 -->
<g id="node1" class="node"><title>Node1</title>
<polygon fill="#bfbfbf" stroke="black" points="26.5,-168.5 26.5,-187.5 136.5,-187.5 136.5,-168.5 26.5,-168.5"/>
<text text-anchor="middle" x="81.5" y="-175.5" font-family="Helvetica,sans-Serif" font-size="10.00">pdal/pdal/DimUtil.hpp</text>
</g>
<!-- Node2 -->
<g id="node2" class="node"><title>Node2</title>
<polygon fill="white" stroke="#bfbfbf" points="0,-56.5 0,-75.5 41,-75.5 41,-56.5 0,-56.5"/>
<text text-anchor="middle" x="20.5" y="-63.5" font-family="Helvetica,sans-Serif" font-size="10.00">string</text>
</g>
<!-- Node1&#45;&gt;Node2 -->
<g id="edge1" class="edge"><title>Node1&#45;&gt;Node2</title>
<path fill="none" stroke="midnightblue" d="M76.7134,-168.368C66.7358,-150.376 43.5415,-108.55 30.2748,-84.6267"/>
<polygon fill="midnightblue" stroke="midnightblue" points="33.1749,-82.6393 25.2643,-75.5914 27.0532,-86.0342 33.1749,-82.6393"/>
</g>
<!-- Node3 -->
<g id="node3" class="node"><title>Node3</title>
<polygon fill="white" stroke="#bfbfbf" points="59.5,-56.5 59.5,-75.5 103.5,-75.5 103.5,-56.5 59.5,-56.5"/>
<text text-anchor="middle" x="81.5" y="-63.5" font-family="Helvetica,sans-Serif" font-size="10.00">vector</text>
</g>
<!-- Node1&#45;&gt;Node3 -->
<g id="edge2" class="edge"><title>Node1&#45;&gt;Node3</title>
<path fill="none" stroke="midnightblue" d="M81.5,-168.368C81.5,-150.617 81.5,-109.666 81.5,-85.5974"/>
<polygon fill="midnightblue" stroke="midnightblue" points="85.0001,-85.5914 81.5,-75.5914 78.0001,-85.5915 85.0001,-85.5914"/>
</g>
<!-- Node4 -->
<g id="node4" class="node"><title>Node4</title>
<g id="a_node4"><a xlink:href="Utils_8hpp.html" target="_top" xlink:title="pdal/util/Utils.hpp">
<polygon fill="white" stroke="black" points="597.5,-112.5 597.5,-131.5 689.5,-131.5 689.5,-112.5 597.5,-112.5"/>
<text text-anchor="middle" x="643.5" y="-119.5" font-family="Helvetica,sans-Serif" font-size="10.00">pdal/util/Utils.hpp</text>
</a>
</g>
</g>
<!-- Node1&#45;&gt;Node4 -->
<g id="edge3" class="edge"><title>Node1&#45;&gt;Node4</title>
<path fill="none" stroke="midnightblue" d="M136.667,-171.699C243.835,-161.402 479.1,-138.796 587.179,-128.412"/>
<polygon fill="midnightblue" stroke="midnightblue" points="587.614,-131.886 597.233,-127.446 586.944,-124.918 587.614,-131.886"/>
</g>
<!-- Node4&#45;&gt;Node2 -->
<g id="edge18" class="edge"><title>Node4&#45;&gt;Node2</title>
<path fill="none" stroke="midnightblue" d="M597.307,-120.868C498.498,-119.863 259.374,-113.571 50.9159,-75.6212"/>
<polygon fill="midnightblue" stroke="midnightblue" points="51.4829,-72.1668 41.0132,-73.7901 50.2101,-79.0501 51.4829,-72.1668"/>
</g>
<!-- Node4&#45;&gt;Node3 -->
<g id="edge21" class="edge"><title>Node4&#45;&gt;Node3</title>
<path fill="none" stroke="midnightblue" d="M597.278,-120.152C506.25,-117.822 297.378,-109.206 113.829,-75.8878"/>
<polygon fill="midnightblue" stroke="midnightblue" points="114.193,-72.396 103.724,-74.0236 112.923,-79.2799 114.193,-72.396"/>
</g>
<!-- Node5 -->
<g id="node5" class="node"><title>Node5</title>
<polygon fill="white" stroke="#bfbfbf" points="1074.5,-56.5 1074.5,-75.5 1130.5,-75.5 1130.5,-56.5 1074.5,-56.5"/>
<text text-anchor="middle" x="1102.5" y="-63.5" font-family="Helvetica,sans-Serif" font-size="10.00">algorithm</text>
</g>
<!-- Node4&#45;&gt;Node5 -->
<g id="edge4" class="edge"><title>Node4&#45;&gt;Node5</title>
<path fill="none" stroke="midnightblue" d="M689.675,-118.085C765.765,-112.845 922.38,-100.217 1064.12,-76.0287"/>
<polygon fill="midnightblue" stroke="midnightblue" points="1065.04,-79.4213 1074.3,-74.267 1063.85,-72.5238 1065.04,-79.4213"/>
</g>
<!-- Node6 -->
<g id="node6" class="node"><title>Node6</title>
<polygon fill="white" stroke="#bfbfbf" points="1149,-56.5 1149,-75.5 1198,-75.5 1198,-56.5 1149,-56.5"/>
<text text-anchor="middle" x="1173.5" y="-63.5" font-family="Helvetica,sans-Serif" font-size="10.00">cassert</text>
</g>
<!-- Node4&#45;&gt;Node6 -->
<g id="edge5" class="edge"><title>Node4&#45;&gt;Node6</title>
<path fill="none" stroke="midnightblue" d="M689.658,-119.405C776.051,-115.859 968.091,-105.329 1138.81,-75.8142"/>
<polygon fill="midnightblue" stroke="midnightblue" points="1139.48,-79.2497 1148.72,-74.0737 1138.27,-72.3551 1139.48,-79.2497"/>
</g>
<!-- Node7 -->
<g id="node7" class="node"><title>Node7</title>
<polygon fill="white" stroke="#bfbfbf" points="1216.5,-56.5 1216.5,-75.5 1262.5,-75.5 1262.5,-56.5 1216.5,-56.5"/>
<text text-anchor="middle" x="1239.5" y="-63.5" font-family="Helvetica,sans-Serif" font-size="10.00">cctype</text>
</g>
<!-- Node4&#45;&gt;Node7 -->
<g id="edge6" class="edge"><title>Node4&#45;&gt;Node7</title>
<path fill="none" stroke="midnightblue" d="M689.578,-120.35C784.689,-118.356 1009.62,-110.283 1206.27,-75.8826"/>
<polygon fill="midnightblue" stroke="midnightblue" points="1206.97,-79.313 1216.2,-74.1178 1205.75,-72.4209 1206.97,-79.313"/>
</g>
<!-- Node8 -->
<g id="node8" class="node"><title>Node8</title>
<polygon fill="white" stroke="#bfbfbf" points="1280.5,-56.5 1280.5,-75.5 1324.5,-75.5 1324.5,-56.5 1280.5,-56.5"/>
<text text-anchor="middle" x="1302.5" y="-63.5" font-family="Helvetica,sans-Serif" font-size="10.00">cmath</text>
</g>
<!-- Node4&#45;&gt;Node8 -->
<g id="edge7" class="edge"><title>Node4&#45;&gt;Node8</title>
<path fill="none" stroke="midnightblue" d="M689.613,-121.009C792.521,-120.321 1048.65,-114.672 1270.42,-75.8142"/>
<polygon fill="midnightblue" stroke="midnightblue" points="1271.05,-79.2564 1280.28,-74.0591 1269.82,-72.3646 1271.05,-79.2564"/>
</g>
<!-- Node9 -->
<g id="node9" class="node"><title>Node9</title>
<polygon fill="white" stroke="#bfbfbf" points="1342.5,-56.5 1342.5,-75.5 1388.5,-75.5 1388.5,-56.5 1342.5,-56.5"/>
<text text-anchor="middle" x="1365.5" y="-63.5" font-family="Helvetica,sans-Serif" font-size="10.00">cstdint</text>
</g>
<!-- Node4&#45;&gt;Node9 -->
<g id="edge8" class="edge"><title>Node4&#45;&gt;Node9</title>
<path fill="none" stroke="midnightblue" d="M689.504,-121.303C799.372,-121.321 1085.63,-117.208 1331.99,-75.8972"/>
<polygon fill="midnightblue" stroke="midnightblue" points="1332.94,-79.2859 1342.21,-74.1578 1331.76,-72.3851 1332.94,-79.2859"/>
</g>
<!-- Node10 -->
<g id="node10" class="node"><title>Node10</title>
<polygon fill="white" stroke="#bfbfbf" points="1406.5,-56.5 1406.5,-75.5 1452.5,-75.5 1452.5,-56.5 1406.5,-56.5"/>
<text text-anchor="middle" x="1429.5" y="-63.5" font-family="Helvetica,sans-Serif" font-size="10.00">cstring</text>
</g>
<!-- Node4&#45;&gt;Node10 -->
<g id="edge9" class="edge"><title>Node4&#45;&gt;Node10</title>
<path fill="none" stroke="midnightblue" d="M689.788,-121.671C806.926,-122.637 1124.53,-120.705 1396.16,-75.8555"/>
<polygon fill="midnightblue" stroke="midnightblue" points="1396.93,-79.2763 1406.21,-74.173 1395.77,-72.3724 1396.93,-79.2763"/>
</g>
<!-- Node11 -->
<g id="node11" class="node"><title>Node11</title>
<polygon fill="white" stroke="#bfbfbf" points="121.5,-56.5 121.5,-75.5 171.5,-75.5 171.5,-56.5 121.5,-56.5"/>
<text text-anchor="middle" x="146.5" y="-63.5" font-family="Helvetica,sans-Serif" font-size="10.00">fstream</text>
</g>
<!-- Node4&#45;&gt;Node11 -->
<g id="edge10" class="edge"><title>Node4&#45;&gt;Node11</title>
<path fill="none" stroke="midnightblue" d="M597.49,-118.998C515.606,-114.9 339.154,-103.653 181.524,-75.9072"/>
<polygon fill="midnightblue" stroke="midnightblue" points="182.109,-72.4563 171.649,-74.1426 180.878,-79.3471 182.109,-72.4563"/>
</g>
<!-- Node12 -->
<g id="node12" class="node"><title>Node12</title>
<polygon fill="white" stroke="#bfbfbf" points="189.5,-56.5 189.5,-75.5 239.5,-75.5 239.5,-56.5 189.5,-56.5"/>
<text text-anchor="middle" x="214.5" y="-63.5" font-family="Helvetica,sans-Serif" font-size="10.00">iomanip</text>
</g>
<!-- Node4&#45;&gt;Node12 -->
<g id="edge11" class="edge"><title>Node4&#45;&gt;Node12</title>
<path fill="none" stroke="midnightblue" d="M597.395,-117.808C523.517,-112.23 374.24,-99.0477 249.5,-76 249.4,-75.9815 249.299,-75.9628 249.199,-75.944"/>
<polygon fill="midnightblue" stroke="midnightblue" points="250.153,-72.5688 239.643,-73.9076 248.694,-79.415 250.153,-72.5688"/>
</g>
<!-- Node13 -->
<g id="node13" class="node"><title>Node13</title>
<polygon fill="white" stroke="#bfbfbf" points="258,-56.5 258,-75.5 307,-75.5 307,-56.5 258,-56.5"/>
<text text-anchor="middle" x="282.5" y="-63.5" font-family="Helvetica,sans-Serif" font-size="10.00">istream</text>
</g>
<!-- Node4&#45;&gt;Node13 -->
<g id="edge12" class="edge"><title>Node4&#45;&gt;Node13</title>
<path fill="none" stroke="midnightblue" d="M597.442,-116.454C535.793,-109.975 422.912,-96.7341 317.18,-75.9113"/>
<polygon fill="midnightblue" stroke="midnightblue" points="317.792,-72.4645 307.301,-73.9389 316.422,-79.329 317.792,-72.4645"/>
</g>
<!-- Node14 -->
<g id="node14" class="node"><title>Node14</title>
<polygon fill="white" stroke="#bfbfbf" points="325.5,-56.5 325.5,-75.5 365.5,-75.5 365.5,-56.5 325.5,-56.5"/>
<text text-anchor="middle" x="345.5" y="-63.5" font-family="Helvetica,sans-Serif" font-size="10.00">limits</text>
</g>
<!-- Node4&#45;&gt;Node14 -->
<g id="edge13" class="edge"><title>Node4&#45;&gt;Node14</title>
<path fill="none" stroke="midnightblue" d="M597.152,-115.014C543.445,-107.663 452.464,-93.9319 375.5,-76 375.401,-75.9769 375.301,-75.9536 375.202,-75.9302"/>
<polygon fill="midnightblue" stroke="midnightblue" points="376.302,-72.6005 365.741,-73.4467 374.524,-79.3711 376.302,-72.6005"/>
</g>
<!-- Node15 -->
<g id="node15" class="node"><title>Node15</title>
<polygon fill="white" stroke="#bfbfbf" points="384,-56.5 384,-75.5 419,-75.5 419,-56.5 384,-56.5"/>
<text text-anchor="middle" x="401.5" y="-63.5" font-family="Helvetica,sans-Serif" font-size="10.00">map</text>
</g>
<!-- Node4&#45;&gt;Node15 -->
<g id="edge14" class="edge"><title>Node4&#45;&gt;Node15</title>
<path fill="none" stroke="midnightblue" d="M597.42,-112.949C555.774,-105.317 492.651,-92.8667 428.943,-75.8567"/>
<polygon fill="midnightblue" stroke="midnightblue" points="429.697,-72.4349 419.13,-73.2011 427.868,-79.1919 429.697,-72.4349"/>
</g>
<!-- Node16 -->
<g id="node16" class="node"><title>Node16</title>
<polygon fill="white" stroke="#bfbfbf" points="437.5,-56.5 437.5,-75.5 489.5,-75.5 489.5,-56.5 437.5,-56.5"/>
<text text-anchor="middle" x="463.5" y="-63.5" font-family="Helvetica,sans-Serif" font-size="10.00">memory</text>
</g>
<!-- Node4&#45;&gt;Node16 -->
<g id="edge15" class="edge"><title>Node4&#45;&gt;Node16</title>
<path fill="none" stroke="midnightblue" d="M614.978,-112.444C583.715,-103.064 533.493,-87.9978 499.53,-77.8089"/>
<polygon fill="midnightblue" stroke="midnightblue" points="500.134,-74.3363 489.55,-74.8151 498.123,-81.041 500.134,-74.3363"/>
</g>
<!-- Node17 -->
<g id="node17" class="node"><title>Node17</title>
<polygon fill="white" stroke="#bfbfbf" points="507.5,-56.5 507.5,-75.5 559.5,-75.5 559.5,-56.5 507.5,-56.5"/>
<text text-anchor="middle" x="533.5" y="-63.5" font-family="Helvetica,sans-Serif" font-size="10.00">sstream</text>
</g>
<!-- Node4&#45;&gt;Node17 -->
<g id="edge16" class="edge"><title>Node4&#45;&gt;Node17</title>
<path fill="none" stroke="midnightblue" d="M625.827,-112.324C608.106,-103.625 580.597,-90.1202 560.212,-80.113"/>
<polygon fill="midnightblue" stroke="midnightblue" points="561.649,-76.9195 551.13,-75.6545 558.564,-83.2031 561.649,-76.9195"/>
</g>
<!-- Node18 -->
<g id="node18" class="node"><title>Node18</title>
<polygon fill="white" stroke="#bfbfbf" points="578,-56.5 578,-75.5 637,-75.5 637,-56.5 578,-56.5"/>
<text text-anchor="middle" x="607.5" y="-63.5" font-family="Helvetica,sans-Serif" font-size="10.00">stdexcept</text>
</g>
<!-- Node4&#45;&gt;Node18 -->
<g id="edge17" class="edge"><title>Node4&#45;&gt;Node18</title>
<path fill="none" stroke="midnightblue" d="M637.555,-112.083C632.523,-104.534 625.163,-93.4948 618.987,-84.2298"/>
<polygon fill="midnightblue" stroke="midnightblue" points="621.793,-82.1301 613.334,-75.7511 615.969,-86.0131 621.793,-82.1301"/>
</g>
<!-- Node19 -->
<g id="node19" class="node"><title>Node19</title>
<polygon fill="white" stroke="#bfbfbf" points="655,-56.5 655,-75.5 706,-75.5 706,-56.5 655,-56.5"/>
<text text-anchor="middle" x="680.5" y="-63.5" font-family="Helvetica,sans-Serif" font-size="10.00">typeinfo</text>
</g>
<!-- Node4&#45;&gt;Node19 -->
<g id="edge19" class="edge"><title>Node4&#45;&gt;Node19</title>
<path fill="none" stroke="midnightblue" d="M649.61,-112.083C654.782,-104.534 662.346,-93.4948 668.694,-84.2298"/>
<polygon fill="midnightblue" stroke="midnightblue" points="671.739,-85.9787 674.504,-75.7511 665.964,-82.0221 671.739,-85.9787"/>
</g>
<!-- Node20 -->
<g id="node20" class="node"><title>Node20</title>
<polygon fill="white" stroke="#bfbfbf" points="724.5,-56.5 724.5,-75.5 786.5,-75.5 786.5,-56.5 724.5,-56.5"/>
<text text-anchor="middle" x="755.5" y="-63.5" font-family="Helvetica,sans-Serif" font-size="10.00">type_traits</text>
</g>
<!-- Node4&#45;&gt;Node20 -->
<g id="edge20" class="edge"><title>Node4&#45;&gt;Node20</title>
<path fill="none" stroke="midnightblue" d="M661.495,-112.324C679.538,-103.625 707.547,-90.1202 728.303,-80.113"/>
<polygon fill="midnightblue" stroke="midnightblue" points="730.062,-83.1502 737.55,-75.6545 727.022,-76.8449 730.062,-83.1502"/>
</g>
<!-- Node21 -->
<g id="node21" class="node"><title>Node21</title>
<polygon fill="white" stroke="#bfbfbf" points="787.5,-0.5 787.5,-19.5 841.5,-19.5 841.5,-0.5 787.5,-0.5"/>
<text text-anchor="middle" x="814.5" y="-7.5" font-family="Helvetica,sans-Serif" font-size="10.00">iostream</text>
</g>
<!-- Node4&#45;&gt;Node21 -->
<g id="edge22" class="edge"><title>Node4&#45;&gt;Node21</title>
<path fill="none" stroke="midnightblue" d="M689.612,-118.774C723.238,-114.726 767.623,-103.974 795.5,-76 807.549,-63.9092 812.043,-44.6257 813.675,-30.197"/>
<polygon fill="midnightblue" stroke="midnightblue" points="817.19,-30.1336 814.46,-19.8964 810.21,-29.6013 817.19,-30.1336"/>
</g>
<!-- Node22 -->
<g id="node22" class="node"><title>Node22</title>
<g id="a_node22"><a xlink:href="NullOStream_8hpp.html" target="_top" xlink:title="NullOStream.hpp">
<polygon fill="white" stroke="black" points="842.5,-56.5 842.5,-75.5 934.5,-75.5 934.5,-56.5 842.5,-56.5"/>
<text text-anchor="middle" x="888.5" y="-63.5" font-family="Helvetica,sans-Serif" font-size="10.00">NullOStream.hpp</text>
</a>
</g>
</g>
<!-- Node4&#45;&gt;Node22 -->
<g id="edge23" class="edge"><title>Node4&#45;&gt;Node22</title>
<path fill="none" stroke="midnightblue" d="M682.321,-112.444C725.061,-103.023 793.832,-87.8656 840.066,-77.6752"/>
<polygon fill="midnightblue" stroke="midnightblue" points="840.848,-81.0869 849.861,-75.5164 839.342,-74.251 840.848,-81.0869"/>
</g>
<!-- Node24 -->
<g id="node24" class="node"><title>Node24</title>
<g id="a_node24"><a xlink:href="pdal__util__export_8hpp.html" target="_top" xlink:title="pdal_util_export.hpp">
<polygon fill="white" stroke="black" points="952.5,-56.5 952.5,-75.5 1056.5,-75.5 1056.5,-56.5 952.5,-56.5"/>
<text text-anchor="middle" x="1004.5" y="-63.5" font-family="Helvetica,sans-Serif" font-size="10.00">pdal_util_export.hpp</text>
</a>
</g>
</g>
<!-- Node4&#45;&gt;Node24 -->
<g id="edge26" class="edge"><title>Node4&#45;&gt;Node24</title>
<path fill="none" stroke="midnightblue" d="M689.588,-114.106C753.722,-104.513 870.087,-87.1062 941.99,-76.3505"/>
<polygon fill="midnightblue" stroke="midnightblue" points="942.893,-79.7545 952.265,-74.8135 941.857,-72.8315 942.893,-79.7545"/>
</g>
<!-- Node22&#45;&gt;Node21 -->
<g id="edge24" class="edge"><title>Node22&#45;&gt;Node21</title>
<path fill="none" stroke="midnightblue" d="M876.611,-56.324C865.35,-48.1066 848.213,-35.6017 834.791,-25.8069"/>
<polygon fill="midnightblue" stroke="midnightblue" points="836.747,-22.9014 826.606,-19.8339 832.62,-28.5559 836.747,-22.9014"/>
</g>
<!-- Node23 -->
<g id="node23" class="node"><title>Node23</title>
<polygon fill="white" stroke="#bfbfbf" points="859.5,-0.5 859.5,-19.5 919.5,-19.5 919.5,-0.5 859.5,-0.5"/>
<text text-anchor="middle" x="889.5" y="-7.5" font-family="Helvetica,sans-Serif" font-size="10.00">streambuf</text>
</g>
<!-- Node22&#45;&gt;Node23 -->
<g id="edge25" class="edge"><title>Node22&#45;&gt;Node23</title>
<path fill="none" stroke="midnightblue" d="M888.665,-56.083C888.796,-49.0059 888.984,-38.8611 889.148,-29.9865"/>
<polygon fill="midnightblue" stroke="midnightblue" points="892.652,-29.8142 889.338,-19.7511 885.653,-29.6845 892.652,-29.8142"/>
</g>
</g>
</svg>
