<?xml version="1.0" encoding="UTF-8" standalone="no"?>
<!DOCTYPE svg PUBLIC "-//W3C//DTD SVG 1.1//EN"
 "http://www.w3.org/Graphics/SVG/1.1/DTD/svg11.dtd">
<!-- Generated by graphviz version 2.38.0 (20140413.2041)
 -->
<!-- Title: pdal/plugins/python/test Pages: 1 -->
<svg width="212pt" height="367pt"
 viewBox="0.00 0.00 211.99 367.00" xmlns="http://www.w3.org/2000/svg" xmlns:xlink="http://www.w3.org/1999/xlink">
<g id="graph0" class="graph" transform="scale(1 1) rotate(0) translate(4 363)">
<title>pdal/plugins/python/test</title>
<polygon fill="white" stroke="none" points="-4,4 -4,-363 207.986,-363 207.986,4 -4,4"/>
<g id="clust1" class="cluster"><title>clusterdir_b70b6c0de9b6d71740dcbb8e92be8dd5</title>
<g id="a_clust1"><a xlink:href="dir_b70b6c0de9b6d71740dcbb8e92be8dd5.html" target="_top" xlink:title="python">
<polygon fill="#ddddee" stroke="black" points="69.4672,-280 69.4672,-351 139.467,-351 139.467,-280 69.4672,-280"/>
<text text-anchor="middle" x="104.467" y="-339" font-family="Helvetica,sans-Serif" font-size="10.00">python</text>
</a>
</g>
</g>
<!-- dir_62dadcf2e7a19c99562abb4ec1d9d372 -->
<g id="node1" class="node"><title>dir_62dadcf2e7a19c99562abb4ec1d9d372</title>
<g id="a_node1"><a xlink:href="dir_62dadcf2e7a19c99562abb4ec1d9d372.html" target="_top" xlink:title="test">
<polygon fill="#eeeeff" stroke="black" points="131.467,-324 77.4672,-324 77.4672,-288 131.467,-288 131.467,-324"/>
<text text-anchor="middle" x="104.467" y="-303.5" font-family="Helvetica,sans-Serif" font-size="10.00">test</text>
</a>
</g>
</g>
<!-- dir_37e2adedb6e706efcbfadb5213756005 -->
<g id="node2" class="node"><title>dir_37e2adedb6e706efcbfadb5213756005</title>
<g id="a_node2"><a xlink:href="dir_37e2adedb6e706efcbfadb5213756005.html" target="_top" xlink:title="pdal">
<polygon fill="white" stroke="red" points="110.467,-180 56.4672,-180 56.4672,-144 110.467,-144 110.467,-180"/>
<text text-anchor="middle" x="83.4672" y="-159.5" font-family="Helvetica,sans-Serif" font-size="10.00">pdal</text>
</a>
</g>
</g>
<!-- dir_62dadcf2e7a19c99562abb4ec1d9d372&#45;&gt;dir_37e2adedb6e706efcbfadb5213756005 -->
<g id="edge3" class="edge"><title>dir_62dadcf2e7a19c99562abb4ec1d9d372&#45;&gt;dir_37e2adedb6e706efcbfadb5213756005</title>
<path fill="none" stroke="black" d="M101.934,-287.871C98.3551,-263.67 91.7801,-219.211 87.5183,-190.393"/>
<polygon fill="black" stroke="black" points="90.9347,-189.57 86.0093,-180.189 84.01,-190.594 90.9347,-189.57"/>
<g id="a_edge3&#45;headlabel"><a xlink:href="dir_000100_000050.html" target="_top" xlink:title="5">
<text text-anchor="middle" x="94.2692" y="-190.21" font-family="Helvetica,sans-Serif" font-size="10.00">5</text>
</a>
</g>
</g>
<!-- dir_88aa5027650279860e272a4a9998da6e -->
<g id="node3" class="node"><title>dir_88aa5027650279860e272a4a9998da6e</title>
<g id="a_node3"><a xlink:href="dir_88aa5027650279860e272a4a9998da6e.html" target="_top" xlink:title="test">
<polygon fill="white" stroke="red" points="186.467,-252 132.467,-252 132.467,-216 186.467,-216 186.467,-252"/>
<text text-anchor="middle" x="159.467" y="-231.5" font-family="Helvetica,sans-Serif" font-size="10.00">test</text>
</a>
</g>
</g>
<!-- dir_62dadcf2e7a19c99562abb4ec1d9d372&#45;&gt;dir_88aa5027650279860e272a4a9998da6e -->
<g id="edge4" class="edge"><title>dir_62dadcf2e7a19c99562abb4ec1d9d372&#45;&gt;dir_88aa5027650279860e272a4a9998da6e</title>
<path fill="none" stroke="black" d="M118.063,-287.697C124.59,-279.389 132.535,-269.277 139.714,-260.141"/>
<polygon fill="black" stroke="black" points="142.602,-262.13 146.028,-252.104 137.098,-257.805 142.602,-262.13"/>
<g id="a_edge4&#45;headlabel"><a xlink:href="dir_000100_000012.html" target="_top" xlink:title="1">
<text text-anchor="middle" x="142.614" y="-264.211" font-family="Helvetica,sans-Serif" font-size="10.00">1</text>
</a>
</g>
</g>
<!-- dir_1d5bbadd870fe047ff237b24e55617ae -->
<g id="node4" class="node"><title>dir_1d5bbadd870fe047ff237b24e55617ae</title>
<g id="a_node4"><a xlink:href="dir_1d5bbadd870fe047ff237b24e55617ae.html" target="_top" xlink:title="io">
<polygon fill="none" stroke="black" points="148.467,-108 94.4672,-108 94.4672,-72 148.467,-72 148.467,-108"/>
<text text-anchor="middle" x="121.467" y="-87.5" font-family="Helvetica,sans-Serif" font-size="10.00">io</text>
</a>
</g>
</g>
<!-- dir_62dadcf2e7a19c99562abb4ec1d9d372&#45;&gt;dir_1d5bbadd870fe047ff237b24e55617ae -->
<g id="edge5" class="edge"><title>dir_62dadcf2e7a19c99562abb4ec1d9d372&#45;&gt;dir_1d5bbadd870fe047ff237b24e55617ae</title>
<path fill="none" stroke="black" d="M131.755,-297.341C153.291,-289.697 181.891,-275.618 195.467,-252 222.15,-205.581 178.346,-147.862 147.566,-115.664"/>
<polygon fill="black" stroke="black" points="149.964,-113.11 140.458,-108.431 144.971,-118.016 149.964,-113.11"/>
<g id="a_edge5&#45;headlabel"><a xlink:href="dir_000100_000044.html" target="_top" xlink:title="1">
<text text-anchor="middle" x="154.508" y="-111.183" font-family="Helvetica,sans-Serif" font-size="10.00">1</text>
</a>
</g>
</g>
<!-- dir_9348238a26585a7e0b208544997ebe2f -->
<g id="node5" class="node"><title>dir_9348238a26585a7e0b208544997ebe2f</title>
<g id="a_node5"><a xlink:href="dir_9348238a26585a7e0b208544997ebe2f.html" target="_top" xlink:title="filters">
<polygon fill="white" stroke="red" points="116.467,-36 62.4672,-36 62.4672,-0 116.467,-0 116.467,-36"/>
<text text-anchor="middle" x="89.4672" y="-15.5" font-family="Helvetica,sans-Serif" font-size="10.00">filters</text>
</a>
</g>
</g>
<!-- dir_62dadcf2e7a19c99562abb4ec1d9d372&#45;&gt;dir_9348238a26585a7e0b208544997ebe2f -->
<g id="edge6" class="edge"><title>dir_62dadcf2e7a19c99562abb4ec1d9d372&#45;&gt;dir_9348238a26585a7e0b208544997ebe2f</title>
<path fill="none" stroke="black" d="M77.1791,-297.341C55.643,-289.697 27.0432,-275.618 13.4672,-252 -26.6729,-182.17 34.1064,-88.2098 68.5031,-43.9881"/>
<polygon fill="black" stroke="black" points="71.3084,-46.0837 74.7908,-36.0775 65.8285,-41.7281 71.3084,-46.0837"/>
<g id="a_edge6&#45;headlabel"><a xlink:href="dir_000100_000042.html" target="_top" xlink:title="1">
<text text-anchor="middle" x="71.2944" y="-48.1643" font-family="Helvetica,sans-Serif" font-size="10.00">1</text>
</a>
</g>
</g>
<!-- dir_33440c3653ad722e2d3e34650b6d639e -->
<g id="node6" class="node"><title>dir_33440c3653ad722e2d3e34650b6d639e</title>
<g id="a_node6"><a xlink:href="dir_33440c3653ad722e2d3e34650b6d639e.html" target="_top" xlink:title="plang">
<polygon fill="none" stroke="black" points="76.4672,-252 22.4672,-252 22.4672,-216 76.4672,-216 76.4672,-252"/>
<text text-anchor="middle" x="49.4672" y="-231.5" font-family="Helvetica,sans-Serif" font-size="10.00">plang</text>
</a>
</g>
</g>
<!-- dir_62dadcf2e7a19c99562abb4ec1d9d372&#45;&gt;dir_33440c3653ad722e2d3e34650b6d639e -->
<g id="edge7" class="edge"><title>dir_62dadcf2e7a19c99562abb4ec1d9d372&#45;&gt;dir_33440c3653ad722e2d3e34650b6d639e</title>
<path fill="none" stroke="black" d="M90.8717,-287.697C84.3445,-279.389 76.3992,-269.277 69.2206,-260.141"/>
<polygon fill="black" stroke="black" points="71.8367,-257.805 62.9063,-252.104 66.3325,-262.13 71.8367,-257.805"/>
<g id="a_edge7&#45;headlabel"><a xlink:href="dir_000100_000073.html" target="_top" xlink:title="2">
<text text-anchor="middle" x="76.2901" y="-256.377" font-family="Helvetica,sans-Serif" font-size="10.00">2</text>
</a>
</g>
</g>
<!-- dir_37e2adedb6e706efcbfadb5213756005&#45;&gt;dir_1d5bbadd870fe047ff237b24e55617ae -->
<g id="edge1" class="edge"><title>dir_37e2adedb6e706efcbfadb5213756005&#45;&gt;dir_1d5bbadd870fe047ff237b24e55617ae</title>
<path fill="none" stroke="black" d="M86.9447,-143.697C90.523,-135.559 95.6749,-125.689 100.981,-116.701"/>
<polygon fill="black" stroke="black" points="104.014,-118.452 106.287,-108.104 98.0566,-114.776 104.014,-118.452"/>
<g id="a_edge1&#45;headlabel"><a xlink:href="dir_000050_000044.html" target="_top" xlink:title="21">
<text text-anchor="middle" x="104.542" y="-120.502" font-family="Helvetica,sans-Serif" font-size="10.00">21</text>
</a>
</g>
</g>
<!-- dir_37e2adedb6e706efcbfadb5213756005&#45;&gt;dir_9348238a26585a7e0b208544997ebe2f -->
<g id="edge2" class="edge"><title>dir_37e2adedb6e706efcbfadb5213756005&#45;&gt;dir_9348238a26585a7e0b208544997ebe2f</title>
<path fill="none" stroke="black" d="M76.8638,-143.929C74.7676,-126.005 75.2434,-97.0076 76.4672,-72 76.8795,-63.5755 77.5073,-54.4102 78.5539,-46.107"/>
<polygon fill="black" stroke="black" points="82.0202,-46.5943 80.1188,-36.1715 75.1054,-45.5051 82.0202,-46.5943"/>
<g id="a_edge2&#45;headlabel"><a xlink:href="dir_000050_000042.html" target="_top" xlink:title="46">
<text text-anchor="middle" x="84.2657" y="-48.0868" font-family="Helvetica,sans-Serif" font-size="10.00">46</text>
</a>
</g>
</g>
<!-- dir_88aa5027650279860e272a4a9998da6e&#45;&gt;dir_37e2adedb6e706efcbfadb5213756005 -->
<g id="edge8" class="edge"><title>dir_88aa5027650279860e272a4a9998da6e&#45;&gt;dir_37e2adedb6e706efcbfadb5213756005</title>
<path fill="none" stroke="black" d="M140.681,-215.697C131.293,-207.05 119.783,-196.449 109.554,-187.027"/>
<polygon fill="black" stroke="black" points="111.764,-184.305 102.038,-180.104 107.022,-189.454 111.764,-184.305"/>
<g id="a_edge8&#45;headlabel"><a xlink:href="dir_000012_000050.html" target="_top" xlink:title="221">
<text text-anchor="middle" x="116.332" y="-182.152" font-family="Helvetica,sans-Serif" font-size="10.00">221</text>
</a>
</g>
</g>
<!-- dir_88aa5027650279860e272a4a9998da6e&#45;&gt;dir_1d5bbadd870fe047ff237b24e55617ae -->
<g id="edge9" class="edge"><title>dir_88aa5027650279860e272a4a9998da6e&#45;&gt;dir_1d5bbadd870fe047ff237b24e55617ae</title>
<path fill="none" stroke="black" d="M154.884,-215.871C148.379,-191.564 136.405,-146.819 128.696,-118.013"/>
<polygon fill="black" stroke="black" points="132.033,-116.945 126.067,-108.189 125.271,-118.754 132.033,-116.945"/>
<g id="a_edge9&#45;headlabel"><a xlink:href="dir_000012_000044.html" target="_top" xlink:title="69">
<text text-anchor="middle" x="135.705" y="-117.183" font-family="Helvetica,sans-Serif" font-size="10.00">69</text>
</a>
</g>
</g>
<!-- dir_88aa5027650279860e272a4a9998da6e&#45;&gt;dir_9348238a26585a7e0b208544997ebe2f -->
<g id="edge10" class="edge"><title>dir_88aa5027650279860e272a4a9998da6e&#45;&gt;dir_9348238a26585a7e0b208544997ebe2f</title>
<path fill="none" stroke="black" d="M163.844,-215.901C170.741,-185.218 181.074,-119.577 157.467,-72 150.494,-57.9466 137.832,-46.5165 125.309,-37.9174"/>
<polygon fill="black" stroke="black" points="127.04,-34.8697 116.732,-32.419 123.262,-40.7626 127.04,-34.8697"/>
<g id="a_edge10&#45;headlabel"><a xlink:href="dir_000012_000042.html" target="_top" xlink:title="34">
<text text-anchor="middle" x="131.598" y="-31.9195" font-family="Helvetica,sans-Serif" font-size="10.00">34</text>
</a>
</g>
</g>
<!-- dir_1d5bbadd870fe047ff237b24e55617ae&#45;&gt;dir_37e2adedb6e706efcbfadb5213756005 -->
<g id="edge11" class="edge"><title>dir_1d5bbadd870fe047ff237b24e55617ae&#45;&gt;dir_37e2adedb6e706efcbfadb5213756005</title>
<path fill="none" stroke="black" d="M118.077,-108.104C114.525,-116.214 109.387,-126.076 104.083,-135.078"/>
<polygon fill="black" stroke="black" points="101.039,-133.346 98.7762,-143.697 107,-137.017 101.039,-133.346"/>
<g id="a_edge11&#45;headlabel"><a xlink:href="dir_000044_000050.html" target="_top" xlink:title="200">
<text text-anchor="middle" x="100.506" y="-126.297" font-family="Helvetica,sans-Serif" font-size="10.00">200</text>
</a>
</g>
</g>
<!-- dir_1d5bbadd870fe047ff237b24e55617ae&#45;&gt;dir_9348238a26585a7e0b208544997ebe2f -->
<g id="edge12" class="edge"><title>dir_1d5bbadd870fe047ff237b24e55617ae&#45;&gt;dir_9348238a26585a7e0b208544997ebe2f</title>
<path fill="none" stroke="black" d="M107.641,-71.6966C103.224,-63.8132 98.6587,-54.3042 95.0308,-45.5464"/>
<polygon fill="black" stroke="black" points="98.2538,-44.1763 91.3913,-36.1043 91.7222,-46.694 98.2538,-44.1763"/>
<g id="a_edge12&#45;headlabel"><a xlink:href="dir_000044_000042.html" target="_top" xlink:title="1">
<text text-anchor="middle" x="102.196" y="-44.0092" font-family="Helvetica,sans-Serif" font-size="10.00">1</text>
</a>
</g>
</g>
<!-- dir_9348238a26585a7e0b208544997ebe2f&#45;&gt;dir_37e2adedb6e706efcbfadb5213756005 -->
<g id="edge13" class="edge"><title>dir_9348238a26585a7e0b208544997ebe2f&#45;&gt;dir_37e2adedb6e706efcbfadb5213756005</title>
<path fill="none" stroke="black" d="M95.7616,-36.1715C96.0759,-46.5384 95.0536,-60.0185 94.4672,-72 93.4537,-92.7095 92.9532,-116.155 91.4111,-133.782"/>
<polygon fill="black" stroke="black" points="87.9094,-133.608 90.3024,-143.929 94.868,-134.368 87.9094,-133.608"/>
<g id="a_edge13&#45;headlabel"><a xlink:href="dir_000042_000050.html" target="_top" xlink:title="228">
<text text-anchor="middle" x="85.4773" y="-127.226" font-family="Helvetica,sans-Serif" font-size="10.00">228</text>
</a>
</g>
</g>
<!-- dir_9348238a26585a7e0b208544997ebe2f&#45;&gt;dir_1d5bbadd870fe047ff237b24e55617ae -->
<g id="edge14" class="edge"><title>dir_9348238a26585a7e0b208544997ebe2f&#45;&gt;dir_1d5bbadd870fe047ff237b24e55617ae</title>
<path fill="none" stroke="black" d="M103.181,-36.1043C107.596,-43.9602 112.168,-53.4616 115.812,-62.232"/>
<polygon fill="black" stroke="black" points="112.601,-63.6328 119.473,-71.6966 119.129,-61.1074 112.601,-63.6328"/>
<g id="a_edge14&#45;headlabel"><a xlink:href="dir_000042_000044.html" target="_top" xlink:title="1">
<text text-anchor="middle" x="108.656" y="-58.8046" font-family="Helvetica,sans-Serif" font-size="10.00">1</text>
</a>
</g>
</g>
<!-- dir_33440c3653ad722e2d3e34650b6d639e&#45;&gt;dir_37e2adedb6e706efcbfadb5213756005 -->
<g id="edge15" class="edge"><title>dir_33440c3653ad722e2d3e34650b6d639e&#45;&gt;dir_37e2adedb6e706efcbfadb5213756005</title>
<path fill="none" stroke="black" d="M57.8717,-215.697C61.742,-207.728 66.4189,-198.1 70.7103,-189.264"/>
<polygon fill="black" stroke="black" points="73.9386,-190.629 75.1594,-180.104 67.642,-187.57 73.9386,-190.629"/>
<g id="a_edge15&#45;headlabel"><a xlink:href="dir_000073_000050.html" target="_top" xlink:title="6">
<text text-anchor="middle" x="74.9221" y="-192.602" font-family="Helvetica,sans-Serif" font-size="10.00">6</text>
</a>
</g>
</g>
</g>
</svg>
