<?xml version="1.0" encoding="UTF-8" standalone="no"?>
<!DOCTYPE svg PUBLIC "-//W3C//DTD SVG 1.1//EN"
 "http://www.w3.org/Graphics/SVG/1.1/DTD/svg11.dtd">
<!-- Generated by graphviz version 2.38.0 (20140413.2041)
 -->
<!-- Title: pdal/plugins/greyhound Pages: 1 -->
<svg width="244pt" height="231pt"
 viewBox="0.00 0.00 244.00 231.00" xmlns="http://www.w3.org/2000/svg" xmlns:xlink="http://www.w3.org/1999/xlink">
<g id="graph0" class="graph" transform="scale(1 1) rotate(0) translate(4 227)">
<title>pdal/plugins/greyhound</title>
<polygon fill="white" stroke="none" points="-4,4 -4,-227 240,-227 240,4 -4,4"/>
<g id="clust1" class="cluster"><title>clusterdir_afa3ef11413a136c9ba1f7af288efe0d</title>
<g id="a_clust1"><a xlink:href="dir_afa3ef11413a136c9ba1f7af288efe0d.html" target="_top" xlink:title="plugins">
<polygon fill="#ddddee" stroke="black" points="8,-56 8,-215 174,-215 174,-56 8,-56"/>
<text text-anchor="middle" x="91" y="-203" font-family="Helvetica,sans-Serif" font-size="10.00">plugins</text>
</a>
</g>
</g>
<g id="clust2" class="cluster"><title>clusterdir_2d6feb5f2214f8738b4013e67350f6db</title>
<g id="a_clust2"><a xlink:href="dir_2d6feb5f2214f8738b4013e67350f6db.html" target="_top">
<polygon fill="#eeeeff" stroke="black" points="16,-64 16,-188 166,-188 166,-64 16,-64"/>
</a>
</g>
</g>
<!-- dir_2d6feb5f2214f8738b4013e67350f6db -->
<g id="node1" class="node"><title>dir_2d6feb5f2214f8738b4013e67350f6db</title>
<text text-anchor="middle" x="127" y="-159.5" font-family="Helvetica,sans-Serif" font-size="10.00">greyhound</text>
</g>
<!-- dir_ade1fa6a9ef18f8286b200c98500ae9c -->
<g id="node2" class="node"><title>dir_ade1fa6a9ef18f8286b200c98500ae9c</title>
<g id="a_node2"><a xlink:href="dir_ade1fa6a9ef18f8286b200c98500ae9c.html" target="_top" xlink:title="io">
<polygon fill="white" stroke="black" points="78,-108 24,-108 24,-72 78,-72 78,-108"/>
<text text-anchor="middle" x="51" y="-87.5" font-family="Helvetica,sans-Serif" font-size="10.00">io</text>
</a>
</g>
</g>
<!-- dir_37e2adedb6e706efcbfadb5213756005 -->
<g id="node4" class="node"><title>dir_37e2adedb6e706efcbfadb5213756005</title>
<g id="a_node4"><a xlink:href="dir_37e2adedb6e706efcbfadb5213756005.html" target="_top" xlink:title="pdal">
<polygon fill="white" stroke="red" points="133,-36 79,-36 79,-0 133,-0 133,-36"/>
<text text-anchor="middle" x="106" y="-15.5" font-family="Helvetica,sans-Serif" font-size="10.00">pdal</text>
</a>
</g>
</g>
<!-- dir_ade1fa6a9ef18f8286b200c98500ae9c&#45;&gt;dir_37e2adedb6e706efcbfadb5213756005 -->
<g id="edge1" class="edge"><title>dir_ade1fa6a9ef18f8286b200c98500ae9c&#45;&gt;dir_37e2adedb6e706efcbfadb5213756005</title>
<path fill="none" stroke="black" d="M64.5955,-71.6966C71.1227,-63.3893 79.068,-53.2771 86.2466,-44.1407"/>
<polygon fill="black" stroke="black" points="89.1347,-46.1299 92.5609,-36.1043 83.6305,-41.8051 89.1347,-46.1299"/>
<g id="a_edge1&#45;headlabel"><a xlink:href="dir_000061_000050.html" target="_top" xlink:title="7">
<text text-anchor="middle" x="89.1465" y="-48.2106" font-family="Helvetica,sans-Serif" font-size="10.00">7</text>
</a>
</g>
</g>
<!-- dir_38838a980678f6a5e2a930086ed2b63d -->
<g id="node3" class="node"><title>dir_38838a980678f6a5e2a930086ed2b63d</title>
<g id="a_node3"><a xlink:href="dir_38838a980678f6a5e2a930086ed2b63d.html" target="_top" xlink:title="test">
<polygon fill="white" stroke="black" points="78,-180 24,-180 24,-144 78,-144 78,-180"/>
<text text-anchor="middle" x="51" y="-159.5" font-family="Helvetica,sans-Serif" font-size="10.00">test</text>
</a>
</g>
</g>
<!-- dir_38838a980678f6a5e2a930086ed2b63d&#45;&gt;dir_ade1fa6a9ef18f8286b200c98500ae9c -->
<g id="edge4" class="edge"><title>dir_38838a980678f6a5e2a930086ed2b63d&#45;&gt;dir_ade1fa6a9ef18f8286b200c98500ae9c</title>
<path fill="none" stroke="black" d="M51,-143.697C51,-135.983 51,-126.712 51,-118.112"/>
<polygon fill="black" stroke="black" points="54.5001,-118.104 51,-108.104 47.5001,-118.104 54.5001,-118.104"/>
<g id="a_edge4&#45;headlabel"><a xlink:href="dir_000062_000061.html" target="_top" xlink:title="2">
<text text-anchor="middle" x="57.3393" y="-119.199" font-family="Helvetica,sans-Serif" font-size="10.00">2</text>
</a>
</g>
</g>
<!-- dir_38838a980678f6a5e2a930086ed2b63d&#45;&gt;dir_37e2adedb6e706efcbfadb5213756005 -->
<g id="edge3" class="edge"><title>dir_38838a980678f6a5e2a930086ed2b63d&#45;&gt;dir_37e2adedb6e706efcbfadb5213756005</title>
<path fill="none" stroke="black" d="M65.1647,-143.851C72.6902,-133.93 81.4971,-120.89 87,-108 95.4132,-88.2932 100.245,-64.4881 102.928,-46.4579"/>
<polygon fill="black" stroke="black" points="106.427,-46.7052 104.303,-36.3255 99.4903,-45.7643 106.427,-46.7052"/>
<g id="a_edge3&#45;headlabel"><a xlink:href="dir_000062_000050.html" target="_top" xlink:title="4">
<text text-anchor="middle" x="108.757" y="-48.1489" font-family="Helvetica,sans-Serif" font-size="10.00">4</text>
</a>
</g>
</g>
<!-- dir_88aa5027650279860e272a4a9998da6e -->
<g id="node5" class="node"><title>dir_88aa5027650279860e272a4a9998da6e</title>
<g id="a_node5"><a xlink:href="dir_88aa5027650279860e272a4a9998da6e.html" target="_top" xlink:title="test">
<polygon fill="white" stroke="red" points="236,-108 182,-108 182,-72 236,-72 236,-108"/>
<text text-anchor="middle" x="209" y="-87.5" font-family="Helvetica,sans-Serif" font-size="10.00">test</text>
</a>
</g>
</g>
<!-- dir_38838a980678f6a5e2a930086ed2b63d&#45;&gt;dir_88aa5027650279860e272a4a9998da6e -->
<g id="edge5" class="edge"><title>dir_38838a980678f6a5e2a930086ed2b63d&#45;&gt;dir_88aa5027650279860e272a4a9998da6e</title>
<path fill="none" stroke="black" d="M78.0838,-148.097C81.0859,-146.701 84.1037,-145.312 87,-144 123.629,-127.413 133.126,-124.034 170,-108 170.83,-107.639 171.669,-107.274 172.516,-106.906"/>
<polygon fill="black" stroke="black" points="173.956,-110.096 181.728,-102.895 171.162,-103.678 173.956,-110.096"/>
<g id="a_edge5&#45;headlabel"><a xlink:href="dir_000062_000012.html" target="_top" xlink:title="1">
<text text-anchor="middle" x="171.793" y="-111.634" font-family="Helvetica,sans-Serif" font-size="10.00">1</text>
</a>
</g>
</g>
<!-- dir_88aa5027650279860e272a4a9998da6e&#45;&gt;dir_37e2adedb6e706efcbfadb5213756005 -->
<g id="edge2" class="edge"><title>dir_88aa5027650279860e272a4a9998da6e&#45;&gt;dir_37e2adedb6e706efcbfadb5213756005</title>
<path fill="none" stroke="black" d="M190.104,-71.8447C183.888,-66.5219 176.818,-60.7981 170,-56 161.171,-49.787 151.234,-43.6621 141.871,-38.2384"/>
<polygon fill="black" stroke="black" points="143.549,-35.1662 133.125,-33.2731 140.093,-41.2537 143.549,-35.1662"/>
<g id="a_edge2&#45;headlabel"><a xlink:href="dir_000012_000050.html" target="_top" xlink:title="221">
<text text-anchor="middle" x="148.077" y="-31.9716" font-family="Helvetica,sans-Serif" font-size="10.00">221</text>
</a>
</g>
</g>
</g>
</svg>
