<?xml version="1.0" encoding="UTF-8" standalone="no"?>
<!DOCTYPE svg PUBLIC "-//W3C//DTD SVG 1.1//EN"
 "http://www.w3.org/Graphics/SVG/1.1/DTD/svg11.dtd">
<!-- Generated by graphviz version 2.38.0 (20140413.2041)
 -->
<!-- Title: pdal/plugins/nitf/test Pages: 1 -->
<svg width="125pt" height="295pt"
 viewBox="0.00 0.00 125.00 295.00" xmlns="http://www.w3.org/2000/svg" xmlns:xlink="http://www.w3.org/1999/xlink">
<g id="graph0" class="graph" transform="scale(1 1) rotate(0) translate(4 291)">
<title>pdal/plugins/nitf/test</title>
<polygon fill="white" stroke="none" points="-4,4 -4,-291 121,-291 121,4 -4,4"/>
<g id="clust1" class="cluster"><title>clusterdir_820305a1dbf6bdce1c6597d66e243ee1</title>
<g id="a_clust1"><a xlink:href="dir_820305a1dbf6bdce1c6597d66e243ee1.html" target="_top" xlink:title="nitf">
<polygon fill="#ddddee" stroke="black" points="39,-208 39,-279 109,-279 109,-208 39,-208"/>
<text text-anchor="middle" x="74" y="-267" font-family="Helvetica,sans-Serif" font-size="10.00">nitf</text>
</a>
</g>
</g>
<!-- dir_0969003aba5f0213801fa2d588356255 -->
<g id="node1" class="node"><title>dir_0969003aba5f0213801fa2d588356255</title>
<g id="a_node1"><a xlink:href="dir_0969003aba5f0213801fa2d588356255.html" target="_top" xlink:title="test">
<polygon fill="#eeeeff" stroke="black" points="101,-252 47,-252 47,-216 101,-216 101,-252"/>
<text text-anchor="middle" x="74" y="-231.5" font-family="Helvetica,sans-Serif" font-size="10.00">test</text>
</a>
</g>
</g>
<!-- dir_37e2adedb6e706efcbfadb5213756005 -->
<g id="node2" class="node"><title>dir_37e2adedb6e706efcbfadb5213756005</title>
<g id="a_node2"><a xlink:href="dir_37e2adedb6e706efcbfadb5213756005.html" target="_top" xlink:title="pdal">
<polygon fill="white" stroke="red" points="54,-108 0,-108 0,-72 54,-72 54,-108"/>
<text text-anchor="middle" x="27" y="-87.5" font-family="Helvetica,sans-Serif" font-size="10.00">pdal</text>
</a>
</g>
</g>
<!-- dir_0969003aba5f0213801fa2d588356255&#45;&gt;dir_37e2adedb6e706efcbfadb5213756005 -->
<g id="edge2" class="edge"><title>dir_0969003aba5f0213801fa2d588356255&#45;&gt;dir_37e2adedb6e706efcbfadb5213756005</title>
<path fill="none" stroke="black" d="M59.0301,-215.555C51.4546,-205.748 42.8565,-192.91 38,-180 30.5654,-160.237 27.9209,-136.436 27.0777,-118.421"/>
<polygon fill="black" stroke="black" points="30.5721,-118.185 26.7626,-108.299 23.5755,-118.403 30.5721,-118.185"/>
<g id="a_edge2&#45;headlabel"><a xlink:href="dir_000084_000050.html" target="_top" xlink:title="8">
<text text-anchor="middle" x="33.5217" y="-119.19" font-family="Helvetica,sans-Serif" font-size="10.00">8</text>
</a>
</g>
</g>
<!-- dir_88aa5027650279860e272a4a9998da6e -->
<g id="node3" class="node"><title>dir_88aa5027650279860e272a4a9998da6e</title>
<g id="a_node3"><a xlink:href="dir_88aa5027650279860e272a4a9998da6e.html" target="_top" xlink:title="test">
<polygon fill="white" stroke="red" points="101,-180 47,-180 47,-144 101,-144 101,-180"/>
<text text-anchor="middle" x="74" y="-159.5" font-family="Helvetica,sans-Serif" font-size="10.00">test</text>
</a>
</g>
</g>
<!-- dir_0969003aba5f0213801fa2d588356255&#45;&gt;dir_88aa5027650279860e272a4a9998da6e -->
<g id="edge3" class="edge"><title>dir_0969003aba5f0213801fa2d588356255&#45;&gt;dir_88aa5027650279860e272a4a9998da6e</title>
<path fill="none" stroke="black" d="M74,-215.697C74,-207.983 74,-198.712 74,-190.112"/>
<polygon fill="black" stroke="black" points="77.5001,-190.104 74,-180.104 70.5001,-190.104 77.5001,-190.104"/>
<g id="a_edge3&#45;headlabel"><a xlink:href="dir_000084_000012.html" target="_top" xlink:title="2">
<text text-anchor="middle" x="80.3393" y="-191.199" font-family="Helvetica,sans-Serif" font-size="10.00">2</text>
</a>
</g>
</g>
<!-- dir_1d5bbadd870fe047ff237b24e55617ae -->
<g id="node4" class="node"><title>dir_1d5bbadd870fe047ff237b24e55617ae</title>
<g id="a_node4"><a xlink:href="dir_1d5bbadd870fe047ff237b24e55617ae.html" target="_top" xlink:title="io">
<polygon fill="none" stroke="black" points="81,-36 27,-36 27,-0 81,-0 81,-36"/>
<text text-anchor="middle" x="54" y="-15.5" font-family="Helvetica,sans-Serif" font-size="10.00">io</text>
</a>
</g>
</g>
<!-- dir_0969003aba5f0213801fa2d588356255&#45;&gt;dir_1d5bbadd870fe047ff237b24e55617ae -->
<g id="edge4" class="edge"><title>dir_0969003aba5f0213801fa2d588356255&#45;&gt;dir_1d5bbadd870fe047ff237b24e55617ae</title>
<path fill="none" stroke="black" d="M89.6099,-215.774C97.3729,-206.03 105.946,-193.184 110,-180 114.703,-164.707 113.138,-159.689 110,-144 102.763,-107.816 83.7239,-69.5705 69.8494,-45.0572"/>
<polygon fill="black" stroke="black" points="72.8586,-43.2693 64.8201,-36.3676 66.8001,-46.7757 72.8586,-43.2693"/>
<g id="a_edge4&#45;headlabel"><a xlink:href="dir_000084_000044.html" target="_top" xlink:title="2">
<text text-anchor="middle" x="77.1165" y="-42.4581" font-family="Helvetica,sans-Serif" font-size="10.00">2</text>
</a>
</g>
</g>
<!-- dir_37e2adedb6e706efcbfadb5213756005&#45;&gt;dir_1d5bbadd870fe047ff237b24e55617ae -->
<g id="edge1" class="edge"><title>dir_37e2adedb6e706efcbfadb5213756005&#45;&gt;dir_1d5bbadd870fe047ff237b24e55617ae</title>
<path fill="none" stroke="black" d="M27.7584,-71.6966C30.01,-63.7284 33.5093,-54.0995 37.31,-45.2641"/>
<polygon fill="black" stroke="black" points="40.5233,-46.6534 41.5076,-36.1043 34.1597,-43.7371 40.5233,-46.6534"/>
<g id="a_edge1&#45;headlabel"><a xlink:href="dir_000050_000044.html" target="_top" xlink:title="21">
<text text-anchor="middle" x="41.607" y="-48.604" font-family="Helvetica,sans-Serif" font-size="10.00">21</text>
</a>
</g>
</g>
<!-- dir_88aa5027650279860e272a4a9998da6e&#45;&gt;dir_37e2adedb6e706efcbfadb5213756005 -->
<g id="edge5" class="edge"><title>dir_88aa5027650279860e272a4a9998da6e&#45;&gt;dir_37e2adedb6e706efcbfadb5213756005</title>
<path fill="none" stroke="black" d="M62.382,-143.697C56.8612,-135.474 50.153,-125.483 44.0682,-116.421"/>
<polygon fill="black" stroke="black" points="46.9645,-114.456 38.4843,-108.104 41.1529,-118.358 46.9645,-114.456"/>
<g id="a_edge5&#45;headlabel"><a xlink:href="dir_000012_000050.html" target="_top" xlink:title="221">
<text text-anchor="middle" x="51.3254" y="-113.357" font-family="Helvetica,sans-Serif" font-size="10.00">221</text>
</a>
</g>
</g>
<!-- dir_88aa5027650279860e272a4a9998da6e&#45;&gt;dir_1d5bbadd870fe047ff237b24e55617ae -->
<g id="edge6" class="edge"><title>dir_88aa5027650279860e272a4a9998da6e&#45;&gt;dir_1d5bbadd870fe047ff237b24e55617ae</title>
<path fill="none" stroke="black" d="M72.1199,-143.907C70.0921,-125.966 66.6591,-96.9549 63,-72 61.7624,-63.5592 60.2611,-54.3892 58.8423,-46.0868"/>
<polygon fill="black" stroke="black" points="62.2768,-45.4072 57.1153,-36.1546 55.3802,-46.6064 62.2768,-45.4072"/>
<g id="a_edge6&#45;headlabel"><a xlink:href="dir_000012_000044.html" target="_top" xlink:title="69">
<text text-anchor="middle" x="65.6898" y="-45.9623" font-family="Helvetica,sans-Serif" font-size="10.00">69</text>
</a>
</g>
</g>
<!-- dir_1d5bbadd870fe047ff237b24e55617ae&#45;&gt;dir_37e2adedb6e706efcbfadb5213756005 -->
<g id="edge7" class="edge"><title>dir_1d5bbadd870fe047ff237b24e55617ae&#45;&gt;dir_37e2adedb6e706efcbfadb5213756005</title>
<path fill="none" stroke="black" d="M53.2976,-36.1043C51.067,-44.0447 47.5806,-53.6661 43.785,-62.5146"/>
<polygon fill="black" stroke="black" points="40.5621,-61.1465 39.5899,-71.6966 46.9291,-64.0555 40.5621,-61.1465"/>
<g id="a_edge7&#45;headlabel"><a xlink:href="dir_000044_000050.html" target="_top" xlink:title="200">
<text text-anchor="middle" x="39.4734" y="-54.1971" font-family="Helvetica,sans-Serif" font-size="10.00">200</text>
</a>
</g>
</g>
</g>
</svg>
