<?xml version="1.0" encoding="UTF-8" standalone="no"?>
<!DOCTYPE svg PUBLIC "-//W3C//DTD SVG 1.1//EN"
 "http://www.w3.org/Graphics/SVG/1.1/DTD/svg11.dtd">
<!-- Generated by graphviz version 2.38.0 (20140413.2041)
 -->
<!-- Title: pdal/filters/private Pages: 1 -->
<svg width="150pt" height="151pt"
 viewBox="0.00 0.00 150.00 151.00" xmlns="http://www.w3.org/2000/svg" xmlns:xlink="http://www.w3.org/1999/xlink">
<g id="graph0" class="graph" transform="scale(1 1) rotate(0) translate(4 147)">
<title>pdal/filters/private</title>
<polygon fill="white" stroke="none" points="-4,4 -4,-147 146,-147 146,4 -4,4"/>
<g id="clust1" class="cluster"><title>clusterdir_9348238a26585a7e0b208544997ebe2f</title>
<g id="a_clust1"><a xlink:href="dir_9348238a26585a7e0b208544997ebe2f.html" target="_top" xlink:title="filters">
<polygon fill="#ddddee" stroke="black" points="8,-64 8,-135 78,-135 78,-64 8,-64"/>
<text text-anchor="middle" x="43" y="-123" font-family="Helvetica,sans-Serif" font-size="10.00">filters</text>
</a>
</g>
</g>
<!-- dir_e2da29d2b76d777ed57edf0bb9f58ca1 -->
<g id="node1" class="node"><title>dir_e2da29d2b76d777ed57edf0bb9f58ca1</title>
<g id="a_node1"><a xlink:href="dir_e2da29d2b76d777ed57edf0bb9f58ca1.html" target="_top" xlink:title="private">
<polygon fill="#eeeeff" stroke="black" points="70,-108 16,-108 16,-72 70,-72 70,-108"/>
<text text-anchor="middle" x="43" y="-87.5" font-family="Helvetica,sans-Serif" font-size="10.00">private</text>
</a>
</g>
</g>
<!-- dir_37e2adedb6e706efcbfadb5213756005 -->
<g id="node2" class="node"><title>dir_37e2adedb6e706efcbfadb5213756005</title>
<g id="a_node2"><a xlink:href="dir_37e2adedb6e706efcbfadb5213756005.html" target="_top" xlink:title="pdal">
<polygon fill="white" stroke="red" points="142,-108 88,-108 88,-72 142,-72 142,-108"/>
<text text-anchor="middle" x="115" y="-87.5" font-family="Helvetica,sans-Serif" font-size="10.00">pdal</text>
</a>
</g>
</g>
<!-- dir_e2da29d2b76d777ed57edf0bb9f58ca1&#45;&gt;dir_37e2adedb6e706efcbfadb5213756005 -->
<g id="edge3" class="edge"><title>dir_e2da29d2b76d777ed57edf0bb9f58ca1&#45;&gt;dir_37e2adedb6e706efcbfadb5213756005</title>
<path fill="none" stroke="black" d="M70.2812,-90C72.7377,-90 75.1942,-90 77.6507,-90"/>
<polygon fill="black" stroke="black" points="77.7495,-93.5001 87.7495,-90 77.7495,-86.5001 77.7495,-93.5001"/>
<g id="a_edge3&#45;headlabel"><a xlink:href="dir_000043_000050.html" target="_top" xlink:title="2">
<text text-anchor="middle" x="74.1549" y="-93.8393" font-family="Helvetica,sans-Serif" font-size="10.00">2</text>
</a>
</g>
</g>
<!-- dir_58d97b97570bab8e4f5aca2d6cc8ee64 -->
<g id="node3" class="node"><title>dir_58d97b97570bab8e4f5aca2d6cc8ee64</title>
<g id="a_node3"><a xlink:href="dir_58d97b97570bab8e4f5aca2d6cc8ee64.html" target="_top" xlink:title="build">
<polygon fill="white" stroke="red" points="142,-36 88,-36 88,-0 142,-0 142,-36"/>
<text text-anchor="middle" x="115" y="-15.5" font-family="Helvetica,sans-Serif" font-size="10.00">build</text>
</a>
</g>
</g>
<!-- dir_e2da29d2b76d777ed57edf0bb9f58ca1&#45;&gt;dir_58d97b97570bab8e4f5aca2d6cc8ee64 -->
<g id="edge4" class="edge"><title>dir_e2da29d2b76d777ed57edf0bb9f58ca1&#45;&gt;dir_58d97b97570bab8e4f5aca2d6cc8ee64</title>
<path fill="none" stroke="black" d="M60.7978,-71.6966C69.604,-63.135 80.3821,-52.6562 90.0011,-43.3045"/>
<polygon fill="black" stroke="black" points="92.6768,-45.5846 97.407,-36.1043 87.7972,-40.5657 92.6768,-45.5846"/>
<g id="a_edge4&#45;headlabel"><a xlink:href="dir_000043_000002.html" target="_top" xlink:title="1">
<text text-anchor="middle" x="92.0787" y="-47.6261" font-family="Helvetica,sans-Serif" font-size="10.00">1</text>
</a>
</g>
</g>
<!-- dir_37e2adedb6e706efcbfadb5213756005&#45;&gt;dir_e2da29d2b76d777ed57edf0bb9f58ca1 -->
<g id="edge1" class="edge"><title>dir_37e2adedb6e706efcbfadb5213756005&#45;&gt;dir_e2da29d2b76d777ed57edf0bb9f58ca1</title>
<path fill="none" stroke="black" d="M87.7495,-90C85.293,-90 82.8366,-90 80.3801,-90"/>
<polygon fill="black" stroke="black" points="80.2813,-86.5001 70.2812,-90 80.2812,-93.5001 80.2813,-86.5001"/>
<g id="a_edge1&#45;headlabel"><a xlink:href="dir_000050_000043.html" target="_top" xlink:title="2">
<text text-anchor="middle" x="83.8759" y="-81.1607" font-family="Helvetica,sans-Serif" font-size="10.00">2</text>
</a>
</g>
</g>
<!-- dir_37e2adedb6e706efcbfadb5213756005&#45;&gt;dir_58d97b97570bab8e4f5aca2d6cc8ee64 -->
<g id="edge2" class="edge"><title>dir_37e2adedb6e706efcbfadb5213756005&#45;&gt;dir_58d97b97570bab8e4f5aca2d6cc8ee64</title>
<path fill="none" stroke="black" d="M109.084,-71.6966C108.289,-63.9827 108.062,-54.7125 108.405,-46.1124"/>
<polygon fill="black" stroke="black" points="111.898,-46.3243 109.105,-36.1043 104.915,-45.8356 111.898,-46.3243"/>
<g id="a_edge2&#45;headlabel"><a xlink:href="dir_000050_000002.html" target="_top" xlink:title="14">
<text text-anchor="middle" x="114.48" y="-47.6083" font-family="Helvetica,sans-Serif" font-size="10.00">14</text>
</a>
</g>
</g>
<!-- dir_58d97b97570bab8e4f5aca2d6cc8ee64&#45;&gt;dir_37e2adedb6e706efcbfadb5213756005 -->
<g id="edge5" class="edge"><title>dir_58d97b97570bab8e4f5aca2d6cc8ee64&#45;&gt;dir_37e2adedb6e706efcbfadb5213756005</title>
<path fill="none" stroke="black" d="M120.895,-36.1043C121.701,-43.7913 121.937,-53.0537 121.604,-61.6651"/>
<polygon fill="black" stroke="black" points="118.109,-61.4805 120.916,-71.6966 125.092,-61.9597 118.109,-61.4805"/>
<g id="a_edge5&#45;headlabel"><a xlink:href="dir_000002_000050.html" target="_top" xlink:title="3">
<text text-anchor="middle" x="115.522" y="-55.2" font-family="Helvetica,sans-Serif" font-size="10.00">3</text>
</a>
</g>
</g>
</g>
</svg>
