<?xml version="1.0" encoding="UTF-8" standalone="no"?>
<!DOCTYPE svg PUBLIC "-//W3C//DTD SVG 1.1//EN"
 "http://www.w3.org/Graphics/SVG/1.1/DTD/svg11.dtd">
<!-- Generated by graphviz version 2.38.0 (20140413.2041)
 -->
<!-- Title: pdal/io Pages: 1 -->
<svg width="206pt" height="188pt"
 viewBox="0.00 0.00 206.00 188.00" xmlns="http://www.w3.org/2000/svg" xmlns:xlink="http://www.w3.org/1999/xlink">
<g id="graph0" class="graph" transform="scale(1 1) rotate(0) translate(4 184)">
<title>pdal/io</title>
<polygon fill="white" stroke="none" points="-4,4 -4,-184 202,-184 202,4 -4,4"/>
<g id="clust1" class="cluster"><title>clusterdir_a542be5b8e919f24a4504a2b5a97aa0f</title>
<g id="a_clust1"><a xlink:href="dir_a542be5b8e919f24a4504a2b5a97aa0f.html" target="_top" xlink:title="pdal">
<polygon fill="#ddddee" stroke="black" points="8,-64 8,-135 78,-135 78,-64 8,-64"/>
<text text-anchor="middle" x="43" y="-123" font-family="Helvetica,sans-Serif" font-size="10.00">pdal</text>
</a>
</g>
</g>
<!-- dir_1d5bbadd870fe047ff237b24e55617ae -->
<g id="node1" class="node"><title>dir_1d5bbadd870fe047ff237b24e55617ae</title>
<g id="a_node1"><a xlink:href="dir_1d5bbadd870fe047ff237b24e55617ae.html" target="_top" xlink:title="io">
<polygon fill="#eeeeff" stroke="black" points="70,-108 16,-108 16,-72 70,-72 70,-108"/>
<text text-anchor="middle" x="43" y="-87.5" font-family="Helvetica,sans-Serif" font-size="10.00">io</text>
</a>
</g>
</g>
<!-- dir_37e2adedb6e706efcbfadb5213756005 -->
<g id="node2" class="node"><title>dir_37e2adedb6e706efcbfadb5213756005</title>
<g id="a_node2"><a xlink:href="dir_37e2adedb6e706efcbfadb5213756005.html" target="_top" xlink:title="pdal">
<polygon fill="white" stroke="red" points="134,-180 80,-180 80,-144 134,-144 134,-180"/>
<text text-anchor="middle" x="107" y="-159.5" font-family="Helvetica,sans-Serif" font-size="10.00">pdal</text>
</a>
</g>
</g>
<!-- dir_1d5bbadd870fe047ff237b24e55617ae&#45;&gt;dir_37e2adedb6e706efcbfadb5213756005 -->
<g id="edge5" class="edge"><title>dir_1d5bbadd870fe047ff237b24e55617ae&#45;&gt;dir_37e2adedb6e706efcbfadb5213756005</title>
<path fill="none" stroke="black" d="M52.7432,-108.104C59.6496,-116.636 69.0315,-127.108 78.1058,-136.478"/>
<polygon fill="black" stroke="black" points="75.7376,-139.06 85.264,-143.697 80.7083,-134.131 75.7376,-139.06"/>
<g id="a_edge5&#45;headlabel"><a xlink:href="dir_000044_000050.html" target="_top" xlink:title="200">
<text text-anchor="middle" x="71.1905" y="-136.007" font-family="Helvetica,sans-Serif" font-size="10.00">200</text>
</a>
</g>
</g>
<!-- dir_58d97b97570bab8e4f5aca2d6cc8ee64 -->
<g id="node3" class="node"><title>dir_58d97b97570bab8e4f5aca2d6cc8ee64</title>
<g id="a_node3"><a xlink:href="dir_58d97b97570bab8e4f5aca2d6cc8ee64.html" target="_top" xlink:title="build">
<polygon fill="white" stroke="red" points="134,-36 80,-36 80,-0 134,-0 134,-36"/>
<text text-anchor="middle" x="107" y="-15.5" font-family="Helvetica,sans-Serif" font-size="10.00">build</text>
</a>
</g>
</g>
<!-- dir_1d5bbadd870fe047ff237b24e55617ae&#45;&gt;dir_58d97b97570bab8e4f5aca2d6cc8ee64 -->
<g id="edge6" class="edge"><title>dir_1d5bbadd870fe047ff237b24e55617ae&#45;&gt;dir_58d97b97570bab8e4f5aca2d6cc8ee64</title>
<path fill="none" stroke="black" d="M58.8202,-71.6966C66.5705,-63.2198 76.039,-52.8636 84.5245,-43.5826"/>
<polygon fill="black" stroke="black" points="87.1971,-45.8464 91.3618,-36.1043 82.0309,-41.1229 87.1971,-45.8464"/>
<g id="a_edge6&#45;headlabel"><a xlink:href="dir_000044_000002.html" target="_top" xlink:title="6">
<text text-anchor="middle" x="86.8671" y="-47.9151" font-family="Helvetica,sans-Serif" font-size="10.00">6</text>
</a>
</g>
</g>
<!-- dir_9348238a26585a7e0b208544997ebe2f -->
<g id="node4" class="node"><title>dir_9348238a26585a7e0b208544997ebe2f</title>
<g id="a_node4"><a xlink:href="dir_9348238a26585a7e0b208544997ebe2f.html" target="_top" xlink:title="filters">
<polygon fill="white" stroke="red" points="198,-108 144,-108 144,-72 198,-72 198,-108"/>
<text text-anchor="middle" x="171" y="-87.5" font-family="Helvetica,sans-Serif" font-size="10.00">filters</text>
</a>
</g>
</g>
<!-- dir_1d5bbadd870fe047ff237b24e55617ae&#45;&gt;dir_9348238a26585a7e0b208544997ebe2f -->
<g id="edge7" class="edge"><title>dir_1d5bbadd870fe047ff237b24e55617ae&#45;&gt;dir_9348238a26585a7e0b208544997ebe2f</title>
<path fill="none" stroke="black" d="M70.5,-90C91.6251,-90 112.75,-90 133.875,-90"/>
<polygon fill="black" stroke="black" points="133.912,-93.5001 143.912,-90 133.912,-86.5001 133.912,-93.5001"/>
<g id="a_edge7&#45;headlabel"><a xlink:href="dir_000044_000042.html" target="_top" xlink:title="1">
<text text-anchor="middle" x="130.317" y="-93.8393" font-family="Helvetica,sans-Serif" font-size="10.00">1</text>
</a>
</g>
</g>
<!-- dir_37e2adedb6e706efcbfadb5213756005&#45;&gt;dir_1d5bbadd870fe047ff237b24e55617ae -->
<g id="edge2" class="edge"><title>dir_37e2adedb6e706efcbfadb5213756005&#45;&gt;dir_1d5bbadd870fe047ff237b24e55617ae</title>
<path fill="none" stroke="black" d="M97.0955,-143.697C90.1509,-135.135 80.7523,-124.656 71.6829,-115.304"/>
<polygon fill="black" stroke="black" points="74.063,-112.734 64.5333,-108.104 69.0959,-117.666 74.063,-112.734"/>
<g id="a_edge2&#45;headlabel"><a xlink:href="dir_000050_000044.html" target="_top" xlink:title="21">
<text text-anchor="middle" x="78.6105" y="-110.784" font-family="Helvetica,sans-Serif" font-size="10.00">21</text>
</a>
</g>
</g>
<!-- dir_37e2adedb6e706efcbfadb5213756005&#45;&gt;dir_58d97b97570bab8e4f5aca2d6cc8ee64 -->
<g id="edge1" class="edge"><title>dir_37e2adedb6e706efcbfadb5213756005&#45;&gt;dir_58d97b97570bab8e4f5aca2d6cc8ee64</title>
<path fill="none" stroke="black" d="M102.416,-143.871C99.8571,-119.67 99.5656,-75.2108 101.541,-46.3932"/>
<polygon fill="black" stroke="black" points="105.049,-46.45 102.409,-36.1893 98.0739,-45.8566 105.049,-46.45"/>
<g id="a_edge1&#45;headlabel"><a xlink:href="dir_000050_000002.html" target="_top" xlink:title="14">
<text text-anchor="middle" x="107.573" y="-47.7723" font-family="Helvetica,sans-Serif" font-size="10.00">14</text>
</a>
</g>
</g>
<!-- dir_37e2adedb6e706efcbfadb5213756005&#45;&gt;dir_9348238a26585a7e0b208544997ebe2f -->
<g id="edge3" class="edge"><title>dir_37e2adedb6e706efcbfadb5213756005&#45;&gt;dir_9348238a26585a7e0b208544997ebe2f</title>
<path fill="none" stroke="black" d="M116.905,-143.697C123.849,-135.135 133.248,-124.656 142.317,-115.304"/>
<polygon fill="black" stroke="black" points="144.904,-117.666 149.467,-108.104 139.937,-112.734 144.904,-117.666"/>
<g id="a_edge3&#45;headlabel"><a xlink:href="dir_000050_000042.html" target="_top" xlink:title="46">
<text text-anchor="middle" x="144.386" y="-119.718" font-family="Helvetica,sans-Serif" font-size="10.00">46</text>
</a>
</g>
</g>
<!-- dir_58d97b97570bab8e4f5aca2d6cc8ee64&#45;&gt;dir_37e2adedb6e706efcbfadb5213756005 -->
<g id="edge4" class="edge"><title>dir_58d97b97570bab8e4f5aca2d6cc8ee64&#45;&gt;dir_37e2adedb6e706efcbfadb5213756005</title>
<path fill="none" stroke="black" d="M111.591,-36.1893C114.145,-60.4244 114.433,-104.888 112.454,-133.679"/>
<polygon fill="black" stroke="black" points="108.947,-133.61 111.584,-143.871 115.922,-134.205 108.947,-133.61"/>
<g id="a_edge4&#45;headlabel"><a xlink:href="dir_000002_000050.html" target="_top" xlink:title="3">
<text text-anchor="middle" x="106.424" y="-127.287" font-family="Helvetica,sans-Serif" font-size="10.00">3</text>
</a>
</g>
</g>
<!-- dir_9348238a26585a7e0b208544997ebe2f&#45;&gt;dir_1d5bbadd870fe047ff237b24e55617ae -->
<g id="edge10" class="edge"><title>dir_9348238a26585a7e0b208544997ebe2f&#45;&gt;dir_1d5bbadd870fe047ff237b24e55617ae</title>
<path fill="none" stroke="black" d="M143.912,-90C122.787,-90 101.662,-90 80.5368,-90"/>
<polygon fill="black" stroke="black" points="80.5,-86.5001 70.5,-90 80.5,-93.5001 80.5,-86.5001"/>
<g id="a_edge10&#45;headlabel"><a xlink:href="dir_000042_000044.html" target="_top" xlink:title="1">
<text text-anchor="middle" x="84.0946" y="-81.1607" font-family="Helvetica,sans-Serif" font-size="10.00">1</text>
</a>
</g>
</g>
<!-- dir_9348238a26585a7e0b208544997ebe2f&#45;&gt;dir_37e2adedb6e706efcbfadb5213756005 -->
<g id="edge8" class="edge"><title>dir_9348238a26585a7e0b208544997ebe2f&#45;&gt;dir_37e2adedb6e706efcbfadb5213756005</title>
<path fill="none" stroke="black" d="M161.257,-108.104C154.35,-116.636 144.968,-127.108 135.894,-136.478"/>
<polygon fill="black" stroke="black" points="133.292,-134.131 128.736,-143.697 138.262,-139.06 133.292,-134.131"/>
<g id="a_edge8&#45;headlabel"><a xlink:href="dir_000042_000050.html" target="_top" xlink:title="228">
<text text-anchor="middle" x="133.807" y="-127.08" font-family="Helvetica,sans-Serif" font-size="10.00">228</text>
</a>
</g>
</g>
<!-- dir_9348238a26585a7e0b208544997ebe2f&#45;&gt;dir_58d97b97570bab8e4f5aca2d6cc8ee64 -->
<g id="edge9" class="edge"><title>dir_9348238a26585a7e0b208544997ebe2f&#45;&gt;dir_58d97b97570bab8e4f5aca2d6cc8ee64</title>
<path fill="none" stroke="black" d="M155.18,-71.6966C147.43,-63.2198 137.961,-52.8636 129.476,-43.5826"/>
<polygon fill="black" stroke="black" points="131.969,-41.1229 122.638,-36.1043 126.803,-45.8464 131.969,-41.1229"/>
<g id="a_edge9&#45;headlabel"><a xlink:href="dir_000042_000002.html" target="_top" xlink:title="1">
<text text-anchor="middle" x="136.49" y="-39.36" font-family="Helvetica,sans-Serif" font-size="10.00">1</text>
</a>
</g>
</g>
</g>
</svg>
