<?xml version="1.0" encoding="UTF-8" standalone="no"?>
<!DOCTYPE svg PUBLIC "-//W3C//DTD SVG 1.1//EN"
 "http://www.w3.org/Graphics/SVG/1.1/DTD/svg11.dtd">
<!-- Generated by graphviz version 2.38.0 (20140413.2041)
 -->
<!-- Title: pdal/plugins/sqlite/test Pages: 1 -->
<svg width="214pt" height="367pt"
 viewBox="0.00 0.00 214.45 367.00" xmlns="http://www.w3.org/2000/svg" xmlns:xlink="http://www.w3.org/1999/xlink">
<g id="graph0" class="graph" transform="scale(1 1) rotate(0) translate(4 363)">
<title>pdal/plugins/sqlite/test</title>
<polygon fill="white" stroke="none" points="-4,4 -4,-363 210.452,-363 210.452,4 -4,4"/>
<g id="clust1" class="cluster"><title>clusterdir_7060e7895af0e1ebaa865a3c2ce6bc24</title>
<g id="a_clust1"><a xlink:href="dir_7060e7895af0e1ebaa865a3c2ce6bc24.html" target="_top" xlink:title="sqlite">
<polygon fill="#ddddee" stroke="black" points="71.9341,-280 71.9341,-351 141.934,-351 141.934,-280 71.9341,-280"/>
<text text-anchor="middle" x="106.934" y="-339" font-family="Helvetica,sans-Serif" font-size="10.00">sqlite</text>
</a>
</g>
</g>
<!-- dir_9a8832529b19459961327cfdd20e5900 -->
<g id="node1" class="node"><title>dir_9a8832529b19459961327cfdd20e5900</title>
<g id="a_node1"><a xlink:href="dir_9a8832529b19459961327cfdd20e5900.html" target="_top" xlink:title="test">
<polygon fill="#eeeeff" stroke="black" points="133.934,-324 79.9341,-324 79.9341,-288 133.934,-288 133.934,-324"/>
<text text-anchor="middle" x="106.934" y="-303.5" font-family="Helvetica,sans-Serif" font-size="10.00">test</text>
</a>
</g>
</g>
<!-- dir_37e2adedb6e706efcbfadb5213756005 -->
<g id="node2" class="node"><title>dir_37e2adedb6e706efcbfadb5213756005</title>
<g id="a_node2"><a xlink:href="dir_37e2adedb6e706efcbfadb5213756005.html" target="_top" xlink:title="pdal">
<polygon fill="white" stroke="red" points="112.934,-180 58.9341,-180 58.9341,-144 112.934,-144 112.934,-180"/>
<text text-anchor="middle" x="85.9341" y="-159.5" font-family="Helvetica,sans-Serif" font-size="10.00">pdal</text>
</a>
</g>
</g>
<!-- dir_9a8832529b19459961327cfdd20e5900&#45;&gt;dir_37e2adedb6e706efcbfadb5213756005 -->
<g id="edge1" class="edge"><title>dir_9a8832529b19459961327cfdd20e5900&#45;&gt;dir_37e2adedb6e706efcbfadb5213756005</title>
<path fill="none" stroke="black" d="M104.401,-287.871C100.822,-263.67 94.2469,-219.211 89.9852,-190.393"/>
<polygon fill="black" stroke="black" points="93.4015,-189.57 88.4761,-180.189 86.4768,-190.594 93.4015,-189.57"/>
<g id="a_edge1&#45;headlabel"><a xlink:href="dir_000106_000050.html" target="_top" xlink:title="4">
<text text-anchor="middle" x="96.736" y="-190.21" font-family="Helvetica,sans-Serif" font-size="10.00">4</text>
</a>
</g>
</g>
<!-- dir_88aa5027650279860e272a4a9998da6e -->
<g id="node3" class="node"><title>dir_88aa5027650279860e272a4a9998da6e</title>
<g id="a_node3"><a xlink:href="dir_88aa5027650279860e272a4a9998da6e.html" target="_top" xlink:title="test">
<polygon fill="white" stroke="red" points="188.934,-252 134.934,-252 134.934,-216 188.934,-216 188.934,-252"/>
<text text-anchor="middle" x="161.934" y="-231.5" font-family="Helvetica,sans-Serif" font-size="10.00">test</text>
</a>
</g>
</g>
<!-- dir_9a8832529b19459961327cfdd20e5900&#45;&gt;dir_88aa5027650279860e272a4a9998da6e -->
<g id="edge2" class="edge"><title>dir_9a8832529b19459961327cfdd20e5900&#45;&gt;dir_88aa5027650279860e272a4a9998da6e</title>
<path fill="none" stroke="black" d="M120.53,-287.697C127.057,-279.389 135.002,-269.277 142.181,-260.141"/>
<polygon fill="black" stroke="black" points="145.069,-262.13 148.495,-252.104 139.565,-257.805 145.069,-262.13"/>
<g id="a_edge2&#45;headlabel"><a xlink:href="dir_000106_000012.html" target="_top" xlink:title="1">
<text text-anchor="middle" x="145.081" y="-264.211" font-family="Helvetica,sans-Serif" font-size="10.00">1</text>
</a>
</g>
</g>
<!-- dir_58d97b97570bab8e4f5aca2d6cc8ee64 -->
<g id="node4" class="node"><title>dir_58d97b97570bab8e4f5aca2d6cc8ee64</title>
<g id="a_node4"><a xlink:href="dir_58d97b97570bab8e4f5aca2d6cc8ee64.html" target="_top" xlink:title="build">
<polygon fill="white" stroke="red" points="86.9341,-36 32.9341,-36 32.9341,-0 86.9341,-0 86.9341,-36"/>
<text text-anchor="middle" x="59.9341" y="-15.5" font-family="Helvetica,sans-Serif" font-size="10.00">build</text>
</a>
</g>
</g>
<!-- dir_9a8832529b19459961327cfdd20e5900&#45;&gt;dir_58d97b97570bab8e4f5aca2d6cc8ee64 -->
<g id="edge3" class="edge"><title>dir_9a8832529b19459961327cfdd20e5900&#45;&gt;dir_58d97b97570bab8e4f5aca2d6cc8ee64</title>
<path fill="none" stroke="black" d="M79.6459,-297.341C58.1099,-289.697 29.51,-275.618 15.9341,-252 -22.7553,-184.694 19.4351,-90.1086 44.3385,-44.9608"/>
<polygon fill="black" stroke="black" points="47.4717,-46.5308 49.3549,-36.1047 41.3809,-43.0807 47.4717,-46.5308"/>
<g id="a_edge3&#45;headlabel"><a xlink:href="dir_000106_000002.html" target="_top" xlink:title="1">
<text text-anchor="middle" x="48.1705" y="-48.5579" font-family="Helvetica,sans-Serif" font-size="10.00">1</text>
</a>
</g>
</g>
<!-- dir_d30bcadec901e5e140c5fc101d2f4d68 -->
<g id="node5" class="node"><title>dir_d30bcadec901e5e140c5fc101d2f4d68</title>
<g id="a_node5"><a xlink:href="dir_d30bcadec901e5e140c5fc101d2f4d68.html" target="_top" xlink:title="io">
<polygon fill="none" stroke="black" points="78.9341,-252 24.9341,-252 24.9341,-216 78.9341,-216 78.9341,-252"/>
<text text-anchor="middle" x="51.9341" y="-231.5" font-family="Helvetica,sans-Serif" font-size="10.00">io</text>
</a>
</g>
</g>
<!-- dir_9a8832529b19459961327cfdd20e5900&#45;&gt;dir_d30bcadec901e5e140c5fc101d2f4d68 -->
<g id="edge4" class="edge"><title>dir_9a8832529b19459961327cfdd20e5900&#45;&gt;dir_d30bcadec901e5e140c5fc101d2f4d68</title>
<path fill="none" stroke="black" d="M93.3386,-287.697C86.8114,-279.389 78.866,-269.277 71.6875,-260.141"/>
<polygon fill="black" stroke="black" points="74.3036,-257.805 65.3732,-252.104 68.7993,-262.13 74.3036,-257.805"/>
<g id="a_edge4&#45;headlabel"><a xlink:href="dir_000106_000105.html" target="_top" xlink:title="1">
<text text-anchor="middle" x="78.7569" y="-256.377" font-family="Helvetica,sans-Serif" font-size="10.00">1</text>
</a>
</g>
</g>
<!-- dir_1d5bbadd870fe047ff237b24e55617ae -->
<g id="node6" class="node"><title>dir_1d5bbadd870fe047ff237b24e55617ae</title>
<g id="a_node6"><a xlink:href="dir_1d5bbadd870fe047ff237b24e55617ae.html" target="_top" xlink:title="io">
<polygon fill="none" stroke="black" points="150.934,-108 96.9341,-108 96.9341,-72 150.934,-72 150.934,-108"/>
<text text-anchor="middle" x="123.934" y="-87.5" font-family="Helvetica,sans-Serif" font-size="10.00">io</text>
</a>
</g>
</g>
<!-- dir_9a8832529b19459961327cfdd20e5900&#45;&gt;dir_1d5bbadd870fe047ff237b24e55617ae -->
<g id="edge5" class="edge"><title>dir_9a8832529b19459961327cfdd20e5900&#45;&gt;dir_1d5bbadd870fe047ff237b24e55617ae</title>
<path fill="none" stroke="black" d="M134.222,-297.341C155.758,-289.697 184.358,-275.618 197.934,-252 224.617,-205.581 180.813,-147.862 150.033,-115.664"/>
<polygon fill="black" stroke="black" points="152.43,-113.11 142.925,-108.431 147.438,-118.016 152.43,-113.11"/>
<g id="a_edge5&#45;headlabel"><a xlink:href="dir_000106_000044.html" target="_top" xlink:title="1">
<text text-anchor="middle" x="156.975" y="-111.183" font-family="Helvetica,sans-Serif" font-size="10.00">1</text>
</a>
</g>
</g>
<!-- dir_37e2adedb6e706efcbfadb5213756005&#45;&gt;dir_58d97b97570bab8e4f5aca2d6cc8ee64 -->
<g id="edge6" class="edge"><title>dir_37e2adedb6e706efcbfadb5213756005&#45;&gt;dir_58d97b97570bab8e4f5aca2d6cc8ee64</title>
<path fill="none" stroke="black" d="M78.2134,-143.871C71.2238,-119.67 62.7918,-75.2108 59.4907,-46.3932"/>
<polygon fill="black" stroke="black" points="62.9495,-45.8001 58.4905,-36.1893 55.9829,-46.483 62.9495,-45.8001"/>
<g id="a_edge6&#45;headlabel"><a xlink:href="dir_000050_000002.html" target="_top" xlink:title="14">
<text text-anchor="middle" x="66.1258" y="-46.6006" font-family="Helvetica,sans-Serif" font-size="10.00">14</text>
</a>
</g>
</g>
<!-- dir_37e2adedb6e706efcbfadb5213756005&#45;&gt;dir_1d5bbadd870fe047ff237b24e55617ae -->
<g id="edge7" class="edge"><title>dir_37e2adedb6e706efcbfadb5213756005&#45;&gt;dir_1d5bbadd870fe047ff237b24e55617ae</title>
<path fill="none" stroke="black" d="M89.4116,-143.697C92.9898,-135.559 98.1418,-125.689 103.448,-116.701"/>
<polygon fill="black" stroke="black" points="106.48,-118.452 108.754,-108.104 100.523,-114.776 106.48,-118.452"/>
<g id="a_edge7&#45;headlabel"><a xlink:href="dir_000050_000044.html" target="_top" xlink:title="21">
<text text-anchor="middle" x="107.009" y="-120.502" font-family="Helvetica,sans-Serif" font-size="10.00">21</text>
</a>
</g>
</g>
<!-- dir_88aa5027650279860e272a4a9998da6e&#45;&gt;dir_37e2adedb6e706efcbfadb5213756005 -->
<g id="edge8" class="edge"><title>dir_88aa5027650279860e272a4a9998da6e&#45;&gt;dir_37e2adedb6e706efcbfadb5213756005</title>
<path fill="none" stroke="black" d="M143.148,-215.697C133.76,-207.05 122.25,-196.449 112.021,-187.027"/>
<polygon fill="black" stroke="black" points="114.231,-184.305 104.504,-180.104 109.489,-189.454 114.231,-184.305"/>
<g id="a_edge8&#45;headlabel"><a xlink:href="dir_000012_000050.html" target="_top" xlink:title="221">
<text text-anchor="middle" x="118.799" y="-182.152" font-family="Helvetica,sans-Serif" font-size="10.00">221</text>
</a>
</g>
</g>
<!-- dir_88aa5027650279860e272a4a9998da6e&#45;&gt;dir_58d97b97570bab8e4f5aca2d6cc8ee64 -->
<g id="edge9" class="edge"><title>dir_88aa5027650279860e272a4a9998da6e&#45;&gt;dir_58d97b97570bab8e4f5aca2d6cc8ee64</title>
<path fill="none" stroke="black" d="M166.992,-215.947C175.171,-184.765 187.747,-117.575 159.934,-72 146.114,-49.3542 119.055,-35.8529 96.5659,-28.1497"/>
<polygon fill="black" stroke="black" points="97.5301,-24.7838 86.94,-25.0999 95.4159,-31.4568 97.5301,-24.7838"/>
<g id="a_edge9&#45;headlabel"><a xlink:href="dir_000012_000002.html" target="_top" xlink:title="3">
<text text-anchor="middle" x="101.814" y="-20.6627" font-family="Helvetica,sans-Serif" font-size="10.00">3</text>
</a>
</g>
</g>
<!-- dir_88aa5027650279860e272a4a9998da6e&#45;&gt;dir_1d5bbadd870fe047ff237b24e55617ae -->
<g id="edge10" class="edge"><title>dir_88aa5027650279860e272a4a9998da6e&#45;&gt;dir_1d5bbadd870fe047ff237b24e55617ae</title>
<path fill="none" stroke="black" d="M157.35,-215.871C150.845,-191.564 138.871,-146.819 131.163,-118.013"/>
<polygon fill="black" stroke="black" points="134.5,-116.945 128.534,-108.189 127.738,-118.754 134.5,-116.945"/>
<g id="a_edge10&#45;headlabel"><a xlink:href="dir_000012_000044.html" target="_top" xlink:title="69">
<text text-anchor="middle" x="138.172" y="-117.183" font-family="Helvetica,sans-Serif" font-size="10.00">69</text>
</a>
</g>
</g>
<!-- dir_58d97b97570bab8e4f5aca2d6cc8ee64&#45;&gt;dir_37e2adedb6e706efcbfadb5213756005 -->
<g id="edge11" class="edge"><title>dir_58d97b97570bab8e4f5aca2d6cc8ee64&#45;&gt;dir_37e2adedb6e706efcbfadb5213756005</title>
<path fill="none" stroke="black" d="M67.6723,-36.1893C74.6643,-60.4244 83.0932,-104.888 86.3857,-133.679"/>
<polygon fill="black" stroke="black" points="82.9256,-134.26 87.3824,-143.871 89.8924,-133.578 82.9256,-134.26"/>
<g id="a_edge11&#45;headlabel"><a xlink:href="dir_000002_000050.html" target="_top" xlink:title="3">
<text text-anchor="middle" x="79.7501" y="-128.458" font-family="Helvetica,sans-Serif" font-size="10.00">3</text>
</a>
</g>
</g>
<!-- dir_d30bcadec901e5e140c5fc101d2f4d68&#45;&gt;dir_37e2adedb6e706efcbfadb5213756005 -->
<g id="edge12" class="edge"><title>dir_d30bcadec901e5e140c5fc101d2f4d68&#45;&gt;dir_37e2adedb6e706efcbfadb5213756005</title>
<path fill="none" stroke="black" d="M60.3386,-215.697C64.2088,-207.728 68.8857,-198.1 73.1772,-189.264"/>
<polygon fill="black" stroke="black" points="76.4054,-190.629 77.6262,-180.104 70.1089,-187.57 76.4054,-190.629"/>
<g id="a_edge12&#45;headlabel"><a xlink:href="dir_000105_000050.html" target="_top" xlink:title="20">
<text text-anchor="middle" x="77.3889" y="-192.602" font-family="Helvetica,sans-Serif" font-size="10.00">20</text>
</a>
</g>
</g>
<!-- dir_1d5bbadd870fe047ff237b24e55617ae&#45;&gt;dir_37e2adedb6e706efcbfadb5213756005 -->
<g id="edge13" class="edge"><title>dir_1d5bbadd870fe047ff237b24e55617ae&#45;&gt;dir_37e2adedb6e706efcbfadb5213756005</title>
<path fill="none" stroke="black" d="M120.544,-108.104C116.991,-116.214 111.854,-126.076 106.55,-135.078"/>
<polygon fill="black" stroke="black" points="103.506,-133.346 101.243,-143.697 109.467,-137.017 103.506,-133.346"/>
<g id="a_edge13&#45;headlabel"><a xlink:href="dir_000044_000050.html" target="_top" xlink:title="200">
<text text-anchor="middle" x="102.973" y="-126.297" font-family="Helvetica,sans-Serif" font-size="10.00">200</text>
</a>
</g>
</g>
<!-- dir_1d5bbadd870fe047ff237b24e55617ae&#45;&gt;dir_58d97b97570bab8e4f5aca2d6cc8ee64 -->
<g id="edge14" class="edge"><title>dir_1d5bbadd870fe047ff237b24e55617ae&#45;&gt;dir_58d97b97570bab8e4f5aca2d6cc8ee64</title>
<path fill="none" stroke="black" d="M108.114,-71.6966C100.364,-63.2198 90.895,-52.8636 82.4096,-43.5826"/>
<polygon fill="black" stroke="black" points="84.9031,-41.1229 75.5723,-36.1043 79.7369,-45.8464 84.9031,-41.1229"/>
<g id="a_edge14&#45;headlabel"><a xlink:href="dir_000044_000002.html" target="_top" xlink:title="6">
<text text-anchor="middle" x="89.4241" y="-39.36" font-family="Helvetica,sans-Serif" font-size="10.00">6</text>
</a>
</g>
</g>
</g>
</svg>
