<?xml version="1.0" encoding="UTF-8" standalone="no"?>
<!DOCTYPE svg PUBLIC "-//W3C//DTD SVG 1.1//EN"
 "http://www.w3.org/Graphics/SVG/1.1/DTD/svg11.dtd">
<!-- Generated by graphviz version 2.38.0 (20140413.2041)
 -->
<!-- Title: pdal/filters/FerryFilter.hpp Pages: 1 -->
<svg width="410pt" height="95pt"
 viewBox="0.00 0.00 410.00 95.00" xmlns="http://www.w3.org/2000/svg" xmlns:xlink="http://www.w3.org/1999/xlink">
<g id="graph0" class="graph" transform="scale(1 1) rotate(0) translate(4 91)">
<title>pdal/filters/FerryFilter.hpp</title>
<polygon fill="white" stroke="none" points="-4,4 -4,-91 406,-91 406,4 -4,4"/>
<!-- Node1 -->
<g id="node1" class="node"><title>Node1</title>
<polygon fill="#bfbfbf" stroke="black" points="150,-67.5 150,-86.5 278,-86.5 278,-67.5 150,-67.5"/>
<text text-anchor="middle" x="214" y="-74.5" font-family="Helvetica,sans-Serif" font-size="10.00">pdal/filters/FerryFilter.hpp</text>
</g>
<!-- Node2 -->
<g id="node2" class="node"><title>Node2</title>
<g id="a_node2"><a xlink:href="FerryFilter_8cpp.html" target="_top" xlink:title="pdal/filters/FerryFilter.cpp">
<polygon fill="white" stroke="black" points="0,-6 0,-25 128,-25 128,-6 0,-6"/>
<text text-anchor="middle" x="64" y="-13" font-family="Helvetica,sans-Serif" font-size="10.00">pdal/filters/FerryFilter.cpp</text>
</a>
</g>
</g>
<!-- Node1&#45;&gt;Node2 -->
<g id="edge1" class="edge"><title>Node1&#45;&gt;Node2</title>
<path fill="none" stroke="midnightblue" d="M183.199,-63.7824C154.05,-52.2199 111.052,-35.1641 85.4515,-25.0091"/>
<polygon fill="midnightblue" stroke="midnightblue" points="181.923,-67.0413 192.509,-67.4751 184.504,-60.5345 181.923,-67.0413"/>
</g>
<!-- Node3 -->
<g id="node3" class="node"><title>Node3</title>
<g id="a_node3"><a xlink:href="StageFactory_8cpp.html" target="_top" xlink:title="pdal/pdal/StageFactory.cpp">
<polygon fill="white" stroke="black" points="146,-6 146,-25 282,-25 282,-6 146,-6"/>
<text text-anchor="middle" x="214" y="-13" font-family="Helvetica,sans-Serif" font-size="10.00">pdal/pdal/StageFactory.cpp</text>
</a>
</g>
</g>
<!-- Node1&#45;&gt;Node3 -->
<g id="edge2" class="edge"><title>Node1&#45;&gt;Node3</title>
<path fill="none" stroke="midnightblue" d="M214,-57.3165C214,-46.4962 214,-33.398 214,-25.0091"/>
<polygon fill="midnightblue" stroke="midnightblue" points="210.5,-57.4751 214,-67.4751 217.5,-57.4751 210.5,-57.4751"/>
</g>
<!-- Node4 -->
<g id="node4" class="node"><title>Node4</title>
<g id="a_node4"><a xlink:href="FerryFilterTest_8cpp.html" target="_top" xlink:title="pdal/test/unit/filters\l/FerryFilterTest.cpp">
<polygon fill="white" stroke="black" points="300,-0.5 300,-30.5 402,-30.5 402,-0.5 300,-0.5"/>
<text text-anchor="start" x="308" y="-18.5" font-family="Helvetica,sans-Serif" font-size="10.00">pdal/test/unit/filters</text>
<text text-anchor="middle" x="351" y="-7.5" font-family="Helvetica,sans-Serif" font-size="10.00">/FerryFilterTest.cpp</text>
</a>
</g>
</g>
<!-- Node1&#45;&gt;Node4 -->
<g id="edge3" class="edge"><title>Node1&#45;&gt;Node4</title>
<path fill="none" stroke="midnightblue" d="M242.872,-63.4605C265.063,-53.823 295.71,-40.5127 318.712,-30.523"/>
<polygon fill="midnightblue" stroke="midnightblue" points="241.407,-60.2811 233.629,-67.4751 244.195,-66.7018 241.407,-60.2811"/>
</g>
</g>
</svg>
