<?xml version="1.0" encoding="UTF-8" standalone="no"?>
<!DOCTYPE svg PUBLIC "-//W3C//DTD SVG 1.1//EN"
 "http://www.w3.org/Graphics/SVG/1.1/DTD/svg11.dtd">
<!-- Generated by graphviz version 2.38.0 (20140413.2041)
 -->
<!-- Title: TEST Pages: 1 -->
<svg width="675pt" height="256pt"
 viewBox="0.00 0.00 675.00 256.00" xmlns="http://www.w3.org/2000/svg" xmlns:xlink="http://www.w3.org/1999/xlink">
<g id="graph0" class="graph" transform="scale(1 1) rotate(0) translate(4 252)">
<title>TEST</title>
<polygon fill="white" stroke="none" points="-4,4 -4,-252 671,-252 671,4 -4,4"/>
<!-- Node1 -->
<g id="node1" class="node"><title>Node1</title>
<polygon fill="#bfbfbf" stroke="black" points="0,-114.5 0,-133.5 42,-133.5 42,-114.5 0,-114.5"/>
<text text-anchor="middle" x="21" y="-121.5" font-family="Helvetica,sans-Serif" font-size="10.00">TEST</text>
</g>
<!-- Node2 -->
<g id="node2" class="node"><title>Node2</title>
<g id="a_node2"><a xlink:href="namespacepdal_1_1FileUtils.html#a04d2d37c72f0f400f5d5b917b2f2ba05" target="_top" xlink:title="pdal::FileUtils::closeFile">
<polygon fill="white" stroke="black" points="79.5,-228.5 79.5,-247.5 201.5,-247.5 201.5,-228.5 79.5,-228.5"/>
<text text-anchor="middle" x="140.5" y="-235.5" font-family="Helvetica,sans-Serif" font-size="10.00">pdal::FileUtils::closeFile</text>
</a>
</g>
</g>
<!-- Node1&#45;&gt;Node2 -->
<g id="edge1" class="edge"><title>Node1&#45;&gt;Node2</title>
<path fill="none" stroke="midnightblue" d="M25.0347,-133.668C31.5503,-152.847 48.7118,-195.849 78,-219 80.3013,-220.819 82.7773,-222.465 85.3679,-223.954"/>
<polygon fill="midnightblue" stroke="midnightblue" points="84.0097,-227.186 94.5306,-228.436 87.0855,-220.898 84.0097,-227.186"/>
</g>
<!-- Node3 -->
<g id="node3" class="node"><title>Node3</title>
<g id="a_node3"><a xlink:href="namespacepdal_1_1FileUtils.html#a5d7b6d46e6a7e128e47d6afcae341f0e" target="_top" xlink:title="pdal::FileUtils::createFile">
<polygon fill="white" stroke="black" points="78,-190.5 78,-209.5 203,-209.5 203,-190.5 78,-190.5"/>
<text text-anchor="middle" x="140.5" y="-197.5" font-family="Helvetica,sans-Serif" font-size="10.00">pdal::FileUtils::createFile</text>
</a>
</g>
</g>
<!-- Node1&#45;&gt;Node3 -->
<g id="edge2" class="edge"><title>Node1&#45;&gt;Node3</title>
<path fill="none" stroke="midnightblue" d="M28.8787,-133.5C38.4975,-146.122 57.146,-168.302 78,-181 81.4451,-183.098 85.1412,-184.982 88.9492,-186.67"/>
<polygon fill="midnightblue" stroke="midnightblue" points="87.9794,-190.051 98.5657,-190.476 90.5555,-183.542 87.9794,-190.051"/>
</g>
<!-- Node6 -->
<g id="node6" class="node"><title>Node6</title>
<g id="a_node6"><a xlink:href="namespacepdal_1_1FileUtils.html#a9147ba0dbb2789edbd17feb104b00532" target="_top" xlink:title="pdal::FileUtils::deleteFile">
<polygon fill="white" stroke="black" points="78,-152.5 78,-171.5 203,-171.5 203,-152.5 78,-152.5"/>
<text text-anchor="middle" x="140.5" y="-159.5" font-family="Helvetica,sans-Serif" font-size="10.00">pdal::FileUtils::deleteFile</text>
</a>
</g>
</g>
<!-- Node1&#45;&gt;Node6 -->
<g id="edge5" class="edge"><title>Node1&#45;&gt;Node6</title>
<path fill="none" stroke="midnightblue" d="M42.1735,-130.994C52.808,-134.643 66.0848,-139.139 78,-143 84.5712,-145.129 91.5545,-147.338 98.3679,-149.464"/>
<polygon fill="midnightblue" stroke="midnightblue" points="97.573,-152.882 108.161,-152.5 99.6459,-146.196 97.573,-152.882"/>
</g>
<!-- Node8 -->
<g id="node8" class="node"><title>Node8</title>
<g id="a_node8"><a xlink:href="namespacepdal_1_1FileUtils.html#ad3ecdcd953af7eed6e0286e3e45e1a97" target="_top" xlink:title="pdal::FileUtils::glob">
<polygon fill="white" stroke="black" points="90,-114.5 90,-133.5 191,-133.5 191,-114.5 90,-114.5"/>
<text text-anchor="middle" x="140.5" y="-121.5" font-family="Helvetica,sans-Serif" font-size="10.00">pdal::FileUtils::glob</text>
</a>
</g>
</g>
<!-- Node1&#45;&gt;Node8 -->
<g id="edge7" class="edge"><title>Node1&#45;&gt;Node8</title>
<path fill="none" stroke="midnightblue" d="M42.199,-124C52.6564,-124 66.0314,-124 79.4944,-124"/>
<polygon fill="midnightblue" stroke="midnightblue" points="79.7599,-127.5 89.7599,-124 79.7599,-120.5 79.7599,-127.5"/>
</g>
<!-- Node9 -->
<g id="node9" class="node"><title>Node9</title>
<g id="a_node9"><a xlink:href="namespacepdal_1_1Dimension.html#af3176b0b7e6b4be000317846cf7c2718" target="_top" xlink:title="pdal::Dimension::name">
<polygon fill="white" stroke="black" points="82,-76.5 82,-95.5 199,-95.5 199,-76.5 82,-76.5"/>
<text text-anchor="middle" x="140.5" y="-83.5" font-family="Helvetica,sans-Serif" font-size="10.00">pdal::Dimension::name</text>
</a>
</g>
</g>
<!-- Node1&#45;&gt;Node9 -->
<g id="edge8" class="edge"><title>Node1&#45;&gt;Node9</title>
<path fill="none" stroke="midnightblue" d="M42.1735,-117.006C52.808,-113.357 66.0848,-108.861 78,-105 84.5712,-102.871 91.5545,-100.662 98.3679,-98.5361"/>
<polygon fill="midnightblue" stroke="midnightblue" points="99.6459,-101.804 108.161,-95.5001 97.573,-95.1183 99.6459,-101.804"/>
</g>
<!-- Node10 -->
<g id="node10" class="node"><title>Node10</title>
<g id="a_node10"><a xlink:href="namespacepdal_1_1Dimension.html#acf81dae9d5946f3a941f9df154b2329b" target="_top" xlink:title="pdal::Dimension::size">
<polygon fill="white" stroke="black" points="85,-38.5 85,-57.5 196,-57.5 196,-38.5 85,-38.5"/>
<text text-anchor="middle" x="140.5" y="-45.5" font-family="Helvetica,sans-Serif" font-size="10.00">pdal::Dimension::size</text>
</a>
</g>
</g>
<!-- Node1&#45;&gt;Node10 -->
<g id="edge9" class="edge"><title>Node1&#45;&gt;Node10</title>
<path fill="none" stroke="midnightblue" d="M28.8787,-114.5C38.4975,-101.878 57.146,-79.6982 78,-67 81.4451,-64.9023 85.1412,-63.0184 88.9492,-61.3297"/>
<polygon fill="midnightblue" stroke="midnightblue" points="90.5555,-64.4582 98.5657,-57.5237 87.9794,-57.9494 90.5555,-64.4582"/>
</g>
<!-- Node14 -->
<g id="node14" class="node"><title>Node14</title>
<g id="a_node14"><a xlink:href="classSupport.html#a987d7adce1636b5852ff41a1d34d37bd" target="_top" xlink:title="Support::temppath">
<polygon fill="white" stroke="black" points="92,-0.5 92,-19.5 189,-19.5 189,-0.5 92,-0.5"/>
<text text-anchor="middle" x="140.5" y="-7.5" font-family="Helvetica,sans-Serif" font-size="10.00">Support::temppath</text>
</a>
</g>
</g>
<!-- Node1&#45;&gt;Node14 -->
<g id="edge13" class="edge"><title>Node1&#45;&gt;Node14</title>
<path fill="none" stroke="midnightblue" d="M25.0347,-114.332C31.5503,-95.1535 48.7118,-52.1512 78,-29 80.3013,-27.1809 82.7773,-25.5351 85.3679,-24.0462"/>
<polygon fill="midnightblue" stroke="midnightblue" points="87.0855,-27.1024 94.5306,-19.5644 84.0097,-20.8143 87.0855,-27.1024"/>
</g>
<!-- Node4 -->
<g id="node4" class="node"><title>Node4</title>
<g id="a_node4"><a xlink:href="namespacepdal_1_1anonymous__namespace_02FileUtils_8cpp_03.html#a6a4f8cec1324aa27b45a6e8c1ac44dd6" target="_top" xlink:title="pdal::anonymous_namespace\l\{FileUtils::cpp\}::isStdout">
<polygon fill="white" stroke="black" points="239,-188 239,-218 385,-218 385,-188 239,-188"/>
<text text-anchor="start" x="247" y="-206" font-family="Helvetica,sans-Serif" font-size="10.00">pdal::anonymous_namespace</text>
<text text-anchor="middle" x="312" y="-195" font-family="Helvetica,sans-Serif" font-size="10.00">{FileUtils::cpp}::isStdout</text>
</a>
</g>
</g>
<!-- Node3&#45;&gt;Node4 -->
<g id="edge3" class="edge"><title>Node3&#45;&gt;Node4</title>
<path fill="none" stroke="midnightblue" d="M203.173,-201.092C211.473,-201.238 220.093,-201.391 228.68,-201.543"/>
<polygon fill="midnightblue" stroke="midnightblue" points="228.663,-205.043 238.723,-201.721 228.787,-198.044 228.663,-205.043"/>
</g>
<!-- Node5 -->
<g id="node5" class="node"><title>Node5</title>
<g id="a_node5"><a xlink:href="namespacepdal_1_1Utils.html#a28e3e2faff94b20f9908e77bc54ed983" target="_top" xlink:title="pdal::Utils::toupper">
<polygon fill="white" stroke="black" points="427.5,-193.5 427.5,-212.5 526.5,-212.5 526.5,-193.5 427.5,-193.5"/>
<text text-anchor="middle" x="477" y="-200.5" font-family="Helvetica,sans-Serif" font-size="10.00">pdal::Utils::toupper</text>
</a>
</g>
</g>
<!-- Node4&#45;&gt;Node5 -->
<g id="edge4" class="edge"><title>Node4&#45;&gt;Node5</title>
<path fill="none" stroke="midnightblue" d="M385.443,-203C396.029,-203 406.821,-203 417.093,-203"/>
<polygon fill="midnightblue" stroke="midnightblue" points="417.165,-206.5 427.165,-203 417.165,-199.5 417.165,-206.5"/>
</g>
<!-- Node7 -->
<g id="node7" class="node"><title>Node7</title>
<g id="a_node7"><a xlink:href="namespacepdal_1_1Utils.html#ad875f14218020d7d4d10803f5a115bdb" target="_top" xlink:title="pdal::Utils::remove">
<polygon fill="white" stroke="black" points="262.5,-149.5 262.5,-168.5 361.5,-168.5 361.5,-149.5 262.5,-149.5"/>
<text text-anchor="middle" x="312" y="-156.5" font-family="Helvetica,sans-Serif" font-size="10.00">pdal::Utils::remove</text>
</a>
</g>
</g>
<!-- Node6&#45;&gt;Node7 -->
<g id="edge6" class="edge"><title>Node6&#45;&gt;Node7</title>
<path fill="none" stroke="midnightblue" d="M203.173,-160.908C219.168,-160.625 236.351,-160.321 252.195,-160.041"/>
<polygon fill="midnightblue" stroke="midnightblue" points="252.451,-163.537 262.387,-159.86 252.327,-156.538 252.451,-163.537"/>
</g>
<!-- Node11 -->
<g id="node11" class="node"><title>Node11</title>
<g id="a_node11"><a xlink:href="namespacepdal_1_1Utils.html#a59253304d0f929e3a3ea00f09636002f" target="_top" xlink:title="pdal::Utils::toNative">
<polygon fill="white" stroke="black" points="260,-38.5 260,-57.5 364,-57.5 364,-38.5 260,-38.5"/>
<text text-anchor="middle" x="312" y="-45.5" font-family="Helvetica,sans-Serif" font-size="10.00">pdal::Utils::toNative</text>
</a>
</g>
</g>
<!-- Node10&#45;&gt;Node11 -->
<g id="edge10" class="edge"><title>Node10&#45;&gt;Node11</title>
<path fill="none" stroke="midnightblue" d="M196.064,-48C213.215,-48 232.263,-48 249.84,-48"/>
<polygon fill="midnightblue" stroke="midnightblue" points="249.994,-51.5001 259.994,-48 249.994,-44.5001 249.994,-51.5001"/>
</g>
<!-- Node12 -->
<g id="node12" class="node"><title>Node12</title>
<g id="a_node12"><a xlink:href="namespacepdal_1_1Dimension.html#a880d689fed54aa3ded6f88c9e058c5d2" target="_top" xlink:title="pdal::Dimension::type">
<polygon fill="white" stroke="black" points="421,-38.5 421,-57.5 533,-57.5 533,-38.5 421,-38.5"/>
<text text-anchor="middle" x="477" y="-45.5" font-family="Helvetica,sans-Serif" font-size="10.00">pdal::Dimension::type</text>
</a>
</g>
</g>
<!-- Node11&#45;&gt;Node12 -->
<g id="edge11" class="edge"><title>Node11&#45;&gt;Node12</title>
<path fill="none" stroke="midnightblue" d="M364.127,-48C378.908,-48 395.245,-48 410.763,-48"/>
<polygon fill="midnightblue" stroke="midnightblue" points="410.817,-51.5001 420.817,-48 410.816,-44.5001 410.817,-51.5001"/>
</g>
<!-- Node13 -->
<g id="node13" class="node"><title>Node13</title>
<g id="a_node13"><a xlink:href="namespacepdal_1_1Utils.html#a5268937cf695835e55392f752dc02cb2" target="_top" xlink:title="pdal::Utils::tolower">
<polygon fill="white" stroke="black" points="569,-38.5 569,-57.5 667,-57.5 667,-38.5 569,-38.5"/>
<text text-anchor="middle" x="618" y="-45.5" font-family="Helvetica,sans-Serif" font-size="10.00">pdal::Utils::tolower</text>
</a>
</g>
</g>
<!-- Node12&#45;&gt;Node13 -->
<g id="edge12" class="edge"><title>Node12&#45;&gt;Node13</title>
<path fill="none" stroke="midnightblue" d="M533.336,-48C541.625,-48 550.194,-48 558.546,-48"/>
<polygon fill="midnightblue" stroke="midnightblue" points="558.59,-51.5001 568.59,-48 558.59,-44.5001 558.59,-51.5001"/>
</g>
<!-- Node15 -->
<g id="node15" class="node"><title>Node15</title>
<g id="a_node15"><a xlink:href="namespaceTestConfig.html#a0e622015f0610c2cfcbb3739b972d877" target="_top" xlink:title="TestConfig::dataPath">
<polygon fill="white" stroke="black" points="257,-0.5 257,-19.5 367,-19.5 367,-0.5 257,-0.5"/>
<text text-anchor="middle" x="312" y="-7.5" font-family="Helvetica,sans-Serif" font-size="10.00">TestConfig::dataPath</text>
</a>
</g>
</g>
<!-- Node14&#45;&gt;Node15 -->
<g id="edge14" class="edge"><title>Node14&#45;&gt;Node15</title>
<path fill="none" stroke="midnightblue" d="M189.166,-10C207.011,-10 227.589,-10 246.693,-10"/>
<polygon fill="midnightblue" stroke="midnightblue" points="246.826,-13.5001 256.826,-10 246.826,-6.5001 246.826,-13.5001"/>
</g>
</g>
</svg>
