<?xml version="1.0" encoding="UTF-8" standalone="no"?>
<!DOCTYPE svg PUBLIC "-//W3C//DTD SVG 1.1//EN"
 "http://www.w3.org/Graphics/SVG/1.1/DTD/svg11.dtd">
<!-- Generated by graphviz version 2.38.0 (20140413.2041)
 -->
<!-- Title: pdal/io/GeotiffSupport.cpp Pages: 1 -->
<svg width="1847pt" height="420pt"
 viewBox="0.00 0.00 1846.91 420.00" xmlns="http://www.w3.org/2000/svg" xmlns:xlink="http://www.w3.org/1999/xlink">
<g id="graph0" class="graph" transform="scale(1 1) rotate(0) translate(4 416)">
<title>pdal/io/GeotiffSupport.cpp</title>
<polygon fill="white" stroke="none" points="-4,4 -4,-416 1842.91,-416 1842.91,4 -4,4"/>
<!-- Node1 -->
<g id="node1" class="node"><title>Node1</title>
<polygon fill="#bfbfbf" stroke="black" points="1217.41,-392.5 1217.41,-411.5 1347.41,-411.5 1347.41,-392.5 1217.41,-392.5"/>
<text text-anchor="middle" x="1282.41" y="-399.5" font-family="Helvetica,sans-Serif" font-size="10.00">pdal/io/GeotiffSupport.cpp</text>
</g>
<!-- Node2 -->
<g id="node2" class="node"><title>Node2</title>
<g id="a_node2"><a xlink:href="GeotiffSupport_8hpp.html" target="_top" xlink:title="GeotiffSupport.hpp">
<polygon fill="white" stroke="black" points="1062.41,-336.5 1062.41,-355.5 1160.41,-355.5 1160.41,-336.5 1062.41,-336.5"/>
<text text-anchor="middle" x="1111.41" y="-343.5" font-family="Helvetica,sans-Serif" font-size="10.00">GeotiffSupport.hpp</text>
</a>
</g>
</g>
<!-- Node1&#45;&gt;Node2 -->
<g id="edge1" class="edge"><title>Node1&#45;&gt;Node2</title>
<path fill="none" stroke="midnightblue" d="M1255.31,-392.444C1226.42,-383.32 1180.48,-368.813 1148.3,-358.651"/>
<polygon fill="midnightblue" stroke="midnightblue" points="1148.96,-355.19 1138.37,-355.516 1146.86,-361.865 1148.96,-355.19"/>
</g>
<!-- Node27 -->
<g id="node27" class="node"><title>Node27</title>
<polygon fill="white" stroke="#bfbfbf" points="13.4055,-56.5 13.4055,-75.5 65.4055,-75.5 65.4055,-56.5 13.4055,-56.5"/>
<text text-anchor="middle" x="39.4055" y="-63.5" font-family="Helvetica,sans-Serif" font-size="10.00">sstream</text>
</g>
<!-- Node1&#45;&gt;Node27 -->
<g id="edge40" class="edge"><title>Node1&#45;&gt;Node27</title>
<path fill="none" stroke="midnightblue" d="M1217.37,-398.761C959.559,-389.466 23.4055,-351.543 23.4055,-291 23.4055,-291 23.4055,-291 23.4055,-177 23.4055,-144.626 30.2762,-107.445 35.0129,-85.6593"/>
<polygon fill="midnightblue" stroke="midnightblue" points="38.4557,-86.3028 37.2476,-75.7771 31.6281,-84.7588 38.4557,-86.3028"/>
</g>
<!-- Node33 -->
<g id="node33" class="node"><title>Node33</title>
<polygon fill="white" stroke="#bfbfbf" points="1290.41,-336.5 1290.41,-355.5 1378.41,-355.5 1378.41,-336.5 1290.41,-336.5"/>
<text text-anchor="middle" x="1334.41" y="-343.5" font-family="Helvetica,sans-Serif" font-size="10.00">geo_normalize.h</text>
</g>
<!-- Node1&#45;&gt;Node33 -->
<g id="edge41" class="edge"><title>Node1&#45;&gt;Node33</title>
<path fill="none" stroke="midnightblue" d="M1290.99,-392.083C1298.56,-384.22 1309.78,-372.569 1318.92,-363.081"/>
<polygon fill="midnightblue" stroke="midnightblue" points="1321.56,-365.382 1325.98,-355.751 1316.52,-360.527 1321.56,-365.382"/>
</g>
<!-- Node34 -->
<g id="node34" class="node"><title>Node34</title>
<polygon fill="white" stroke="#bfbfbf" points="1396.91,-336.5 1396.91,-355.5 1479.91,-355.5 1479.91,-336.5 1396.91,-336.5"/>
<text text-anchor="middle" x="1438.41" y="-343.5" font-family="Helvetica,sans-Serif" font-size="10.00">ogr_spatialref.h</text>
</g>
<!-- Node1&#45;&gt;Node34 -->
<g id="edge42" class="edge"><title>Node1&#45;&gt;Node34</title>
<path fill="none" stroke="midnightblue" d="M1307.12,-392.444C1333.25,-383.399 1374.66,-369.064 1403.98,-358.916"/>
<polygon fill="midnightblue" stroke="midnightblue" points="1405.5,-362.095 1413.8,-355.516 1403.21,-355.48 1405.5,-362.095"/>
</g>
<!-- Node35 -->
<g id="node35" class="node"><title>Node35</title>
<polygon fill="white" stroke="#bfbfbf" points="1497.91,-336.5 1497.91,-355.5 1590.91,-355.5 1590.91,-336.5 1497.91,-336.5"/>
<text text-anchor="middle" x="1544.41" y="-343.5" font-family="Helvetica,sans-Serif" font-size="10.00">geo_simpletags.h</text>
</g>
<!-- Node1&#45;&gt;Node35 -->
<g id="edge43" class="edge"><title>Node1&#45;&gt;Node35</title>
<path fill="none" stroke="midnightblue" d="M1323.92,-392.444C1369.82,-382.984 1443.79,-367.738 1493.23,-357.547"/>
<polygon fill="midnightblue" stroke="midnightblue" points="1494,-360.963 1503.09,-355.516 1492.58,-354.107 1494,-360.963"/>
</g>
<!-- Node36 -->
<g id="node36" class="node"><title>Node36</title>
<g id="a_node36"><a xlink:href="LasVLR_8hpp.html" target="_top" xlink:title="io/LasVLR.hpp">
<polygon fill="white" stroke="black" points="1190.91,-336.5 1190.91,-355.5 1271.91,-355.5 1271.91,-336.5 1190.91,-336.5"/>
<text text-anchor="middle" x="1231.41" y="-343.5" font-family="Helvetica,sans-Serif" font-size="10.00">io/LasVLR.hpp</text>
</a>
</g>
</g>
<!-- Node1&#45;&gt;Node36 -->
<g id="edge44" class="edge"><title>Node1&#45;&gt;Node36</title>
<path fill="none" stroke="midnightblue" d="M1273.98,-392.083C1266.56,-384.22 1255.55,-372.569 1246.59,-363.081"/>
<polygon fill="midnightblue" stroke="midnightblue" points="1249.08,-360.618 1239.67,-355.751 1243.99,-365.424 1249.08,-360.618"/>
</g>
<!-- Node3 -->
<g id="node3" class="node"><title>Node3</title>
<g id="a_node3"><a xlink:href="SpatialReference_8hpp.html" target="_top" xlink:title="pdal/SpatialReference.hpp">
<polygon fill="white" stroke="black" points="1039.91,-280.5 1039.91,-299.5 1170.91,-299.5 1170.91,-280.5 1039.91,-280.5"/>
<text text-anchor="middle" x="1105.41" y="-287.5" font-family="Helvetica,sans-Serif" font-size="10.00">pdal/SpatialReference.hpp</text>
</a>
</g>
</g>
<!-- Node2&#45;&gt;Node3 -->
<g id="edge2" class="edge"><title>Node2&#45;&gt;Node3</title>
<path fill="none" stroke="midnightblue" d="M1110.41,-336.083C1109.62,-328.927 1108.48,-318.635 1107.48,-309.691"/>
<polygon fill="midnightblue" stroke="midnightblue" points="1110.96,-309.303 1106.38,-299.751 1104,-310.076 1110.96,-309.303"/>
</g>
<!-- Node4 -->
<g id="node4" class="node"><title>Node4</title>
<g id="a_node4"><a xlink:href="pdal__internal_8hpp.html" target="_top" xlink:title="pdal/pdal_internal.hpp">
<polygon fill="white" stroke="black" points="1002.91,-224.5 1002.91,-243.5 1113.91,-243.5 1113.91,-224.5 1002.91,-224.5"/>
<text text-anchor="middle" x="1058.41" y="-231.5" font-family="Helvetica,sans-Serif" font-size="10.00">pdal/pdal_internal.hpp</text>
</a>
</g>
</g>
<!-- Node3&#45;&gt;Node4 -->
<g id="edge3" class="edge"><title>Node3&#45;&gt;Node4</title>
<path fill="none" stroke="midnightblue" d="M1097.64,-280.083C1090.87,-272.298 1080.86,-260.801 1072.65,-251.367"/>
<polygon fill="midnightblue" stroke="midnightblue" points="1075.23,-248.996 1066.02,-243.751 1069.95,-253.592 1075.23,-248.996"/>
</g>
<!-- Node5 -->
<g id="node5" class="node"><title>Node5</title>
<polygon fill="white" stroke="#bfbfbf" points="380.405,-0.5 380.405,-19.5 434.405,-19.5 434.405,-0.5 380.405,-0.5"/>
<text text-anchor="middle" x="407.405" y="-7.5" font-family="Helvetica,sans-Serif" font-size="10.00">iostream</text>
</g>
<!-- Node4&#45;&gt;Node5 -->
<g id="edge4" class="edge"><title>Node4&#45;&gt;Node5</title>
<path fill="none" stroke="midnightblue" d="M1002.58,-233.804C803.727,-235.359 134.908,-228.974 4.40546,-76 -1.36359,-69.2376 -1.52093,-62.625 4.40546,-56 16.5622,-42.4103 273.041,-21.3399 370.382,-13.8007"/>
<polygon fill="midnightblue" stroke="midnightblue" points="370.667,-17.2892 380.369,-13.0315 370.129,-10.3099 370.667,-17.2892"/>
</g>
<!-- Node6 -->
<g id="node6" class="node"><title>Node6</title>
<g id="a_node6"><a xlink:href="pdal__export_8hpp.html" target="_top" xlink:title="pdal/pdal_export.hpp">
<polygon fill="white" stroke="black" points="1004.91,-168.5 1004.91,-187.5 1111.91,-187.5 1111.91,-168.5 1004.91,-168.5"/>
<text text-anchor="middle" x="1058.41" y="-175.5" font-family="Helvetica,sans-Serif" font-size="10.00">pdal/pdal_export.hpp</text>
</a>
</g>
</g>
<!-- Node4&#45;&gt;Node6 -->
<g id="edge5" class="edge"><title>Node4&#45;&gt;Node6</title>
<path fill="none" stroke="midnightblue" d="M1058.41,-224.083C1058.41,-217.006 1058.41,-206.861 1058.41,-197.986"/>
<polygon fill="midnightblue" stroke="midnightblue" points="1061.91,-197.751 1058.41,-187.751 1054.91,-197.751 1061.91,-197.751"/>
</g>
<!-- Node7 -->
<g id="node7" class="node"><title>Node7</title>
<g id="a_node7"><a xlink:href="pdal__defines_8h.html" target="_top" xlink:title="pdal/pdal_defines.h">
<polygon fill="white" stroke="black" points="1069.91,-112.5 1069.91,-131.5 1170.91,-131.5 1170.91,-112.5 1069.91,-112.5"/>
<text text-anchor="middle" x="1120.41" y="-119.5" font-family="Helvetica,sans-Serif" font-size="10.00">pdal/pdal_defines.h</text>
</a>
</g>
</g>
<!-- Node4&#45;&gt;Node7 -->
<g id="edge7" class="edge"><title>Node4&#45;&gt;Node7</title>
<path fill="none" stroke="midnightblue" d="M1078.63,-224.495C1093.18,-217.168 1111.71,-205.063 1120.41,-188 1127.69,-173.705 1126.89,-155.238 1124.73,-141.642"/>
<polygon fill="midnightblue" stroke="midnightblue" points="1128.11,-140.703 1122.74,-131.567 1121.24,-142.055 1128.11,-140.703"/>
</g>
<!-- Node8 -->
<g id="node8" class="node"><title>Node8</title>
<g id="a_node8"><a xlink:href="pdal__types_8hpp.html" target="_top" xlink:title="pdal/pdal_types.hpp">
<polygon fill="white" stroke="black" points="882.405,-168.5 882.405,-187.5 986.405,-187.5 986.405,-168.5 882.405,-168.5"/>
<text text-anchor="middle" x="934.405" y="-175.5" font-family="Helvetica,sans-Serif" font-size="10.00">pdal/pdal_types.hpp</text>
</a>
</g>
</g>
<!-- Node4&#45;&gt;Node8 -->
<g id="edge8" class="edge"><title>Node4&#45;&gt;Node8</title>
<path fill="none" stroke="midnightblue" d="M1038.76,-224.444C1018.44,-215.596 986.503,-201.687 963.308,-191.586"/>
<polygon fill="midnightblue" stroke="midnightblue" points="964.528,-188.3 953.962,-187.516 961.733,-194.718 964.528,-188.3"/>
</g>
<!-- Node6&#45;&gt;Node7 -->
<g id="edge6" class="edge"><title>Node6&#45;&gt;Node7</title>
<path fill="none" stroke="midnightblue" d="M1068.37,-168.324C1077.53,-160.341 1091.34,-148.313 1102.43,-138.653"/>
<polygon fill="midnightblue" stroke="midnightblue" points="1105.02,-141.041 1110.26,-131.834 1100.42,-135.762 1105.02,-141.041"/>
</g>
<!-- Node8&#45;&gt;Node5 -->
<g id="edge15" class="edge"><title>Node8&#45;&gt;Node5</title>
<path fill="none" stroke="midnightblue" d="M944.32,-168.384C959.612,-155.319 990.146,-130.102 1018.41,-112 1047.53,-93.3423 1069.47,-105.579 1087.41,-76 1092.01,-68.3987 1093.48,-62.4896 1087.41,-56 1043.32,-8.9035 580.819,-9.39251 444.818,-10.5699"/>
<polygon fill="midnightblue" stroke="midnightblue" points="444.469,-7.07293 434.502,-10.6662 444.534,-14.0726 444.469,-7.07293"/>
</g>
<!-- Node9 -->
<g id="node9" class="node"><title>Node9</title>
<polygon fill="white" stroke="#bfbfbf" points="1789.91,-56.5 1789.91,-75.5 1838.91,-75.5 1838.91,-56.5 1789.91,-56.5"/>
<text text-anchor="middle" x="1814.41" y="-63.5" font-family="Helvetica,sans-Serif" font-size="10.00">stdint.h</text>
</g>
<!-- Node8&#45;&gt;Node9 -->
<g id="edge9" class="edge"><title>Node8&#45;&gt;Node9</title>
<path fill="none" stroke="midnightblue" d="M986.612,-168.998C989.584,-168.636 992.531,-168.299 995.405,-168 1256.26,-140.835 1325.84,-175.915 1584.41,-132 1655.76,-119.882 1736.64,-94.1045 1780.95,-78.9051"/>
<polygon fill="midnightblue" stroke="midnightblue" points="1782.32,-82.1371 1790.62,-75.5573 1780.03,-75.5225 1782.32,-82.1371"/>
</g>
<!-- Node10 -->
<g id="node10" class="node"><title>Node10</title>
<polygon fill="white" stroke="#bfbfbf" points="891.905,-112.5 891.905,-131.5 936.905,-131.5 936.905,-112.5 891.905,-112.5"/>
<text text-anchor="middle" x="914.405" y="-119.5" font-family="Helvetica,sans-Serif" font-size="10.00">cstdlib</text>
</g>
<!-- Node8&#45;&gt;Node10 -->
<g id="edge10" class="edge"><title>Node8&#45;&gt;Node10</title>
<path fill="none" stroke="midnightblue" d="M931.103,-168.083C928.423,-160.849 924.557,-150.409 921.219,-141.397"/>
<polygon fill="midnightblue" stroke="midnightblue" points="924.402,-139.913 917.647,-131.751 917.838,-142.344 924.402,-139.913"/>
</g>
<!-- Node11 -->
<g id="node11" class="node"><title>Node11</title>
<polygon fill="white" stroke="#bfbfbf" points="83.9055,-56.5 83.9055,-75.5 132.905,-75.5 132.905,-56.5 83.9055,-56.5"/>
<text text-anchor="middle" x="108.405" y="-63.5" font-family="Helvetica,sans-Serif" font-size="10.00">istream</text>
</g>
<!-- Node8&#45;&gt;Node11 -->
<g id="edge11" class="edge"><title>Node8&#45;&gt;Node11</title>
<path fill="none" stroke="midnightblue" d="M882.133,-172.738C756.259,-161.962 426.428,-130.662 143.254,-75.9248"/>
<polygon fill="midnightblue" stroke="midnightblue" points="143.685,-72.4431 133.2,-73.9677 142.347,-79.3142 143.685,-72.4431"/>
</g>
<!-- Node12 -->
<g id="node12" class="node"><title>Node12</title>
<polygon fill="white" stroke="#bfbfbf" points="834.905,-56.5 834.905,-75.5 893.905,-75.5 893.905,-56.5 834.905,-56.5"/>
<text text-anchor="middle" x="864.405" y="-63.5" font-family="Helvetica,sans-Serif" font-size="10.00">stdexcept</text>
</g>
<!-- Node8&#45;&gt;Node12 -->
<g id="edge12" class="edge"><title>Node8&#45;&gt;Node12</title>
<path fill="none" stroke="midnightblue" d="M920.434,-168.348C908.617,-160.327 892.103,-147.338 882.405,-132 873.508,-117.927 868.941,-99.4353 866.64,-85.7743"/>
<polygon fill="midnightblue" stroke="midnightblue" points="870.071,-85.0437 865.193,-75.6384 863.141,-86.0326 870.071,-85.0437"/>
</g>
<!-- Node13 -->
<g id="node13" class="node"><title>Node13</title>
<polygon fill="white" stroke="#bfbfbf" points="911.905,-56.5 911.905,-75.5 952.905,-75.5 952.905,-56.5 911.905,-56.5"/>
<text text-anchor="middle" x="932.405" y="-63.5" font-family="Helvetica,sans-Serif" font-size="10.00">string</text>
</g>
<!-- Node8&#45;&gt;Node13 -->
<g id="edge13" class="edge"><title>Node8&#45;&gt;Node13</title>
<path fill="none" stroke="midnightblue" d="M937.642,-168.192C941.827,-155.717 948.261,-132.171 945.405,-112 944.138,-103.042 941.517,-93.372 938.958,-85.2998"/>
<polygon fill="midnightblue" stroke="midnightblue" points="942.266,-84.1569 935.749,-75.8034 935.635,-86.3976 942.266,-84.1569"/>
</g>
<!-- Node14 -->
<g id="node14" class="node"><title>Node14</title>
<polygon fill="white" stroke="#bfbfbf" points="1135.41,-56.5 1135.41,-75.5 1179.41,-75.5 1179.41,-56.5 1135.41,-56.5"/>
<text text-anchor="middle" x="1157.41" y="-63.5" font-family="Helvetica,sans-Serif" font-size="10.00">vector</text>
</g>
<!-- Node8&#45;&gt;Node14 -->
<g id="edge14" class="edge"><title>Node8&#45;&gt;Node14</title>
<path fill="none" stroke="midnightblue" d="M950.606,-168.367C974.487,-155.703 1020.61,-131.483 1060.41,-112 1083.37,-100.756 1109.7,-88.5856 1129.13,-79.7399"/>
<polygon fill="midnightblue" stroke="midnightblue" points="1130.68,-82.8815 1138.34,-75.5617 1127.78,-76.5072 1130.68,-82.8815"/>
</g>
<!-- Node15 -->
<g id="node15" class="node"><title>Node15</title>
<g id="a_node15"><a xlink:href="Utils_8hpp.html" target="_top" xlink:title="pdal/util/Utils.hpp">
<polygon fill="white" stroke="black" points="713.405,-112.5 713.405,-131.5 805.405,-131.5 805.405,-112.5 713.405,-112.5"/>
<text text-anchor="middle" x="759.405" y="-119.5" font-family="Helvetica,sans-Serif" font-size="10.00">pdal/util/Utils.hpp</text>
</a>
</g>
</g>
<!-- Node8&#45;&gt;Node15 -->
<g id="edge16" class="edge"><title>Node8&#45;&gt;Node15</title>
<path fill="none" stroke="midnightblue" d="M906.676,-168.444C876.98,-159.28 829.689,-144.688 796.736,-134.519"/>
<polygon fill="midnightblue" stroke="midnightblue" points="797.592,-131.121 787.005,-131.516 795.528,-137.809 797.592,-131.121"/>
</g>
<!-- Node15&#45;&gt;Node5 -->
<g id="edge35" class="edge"><title>Node15&#45;&gt;Node5</title>
<path fill="none" stroke="midnightblue" d="M713.209,-114.019C672.442,-107.036 611.831,-94.6344 561.405,-76 543.503,-69.3845 540.775,-63.9087 523.405,-56 496.227,-43.6249 464.573,-31.492 441.203,-22.9488"/>
<polygon fill="midnightblue" stroke="midnightblue" points="442.327,-19.6332 431.732,-19.5169 439.942,-26.2144 442.327,-19.6332"/>
</g>
<!-- Node15&#45;&gt;Node11 -->
<g id="edge25" class="edge"><title>Node15&#45;&gt;Node11</title>
<path fill="none" stroke="midnightblue" d="M713.391,-120.559C611.953,-118.962 361.47,-111.589 143.212,-75.7959"/>
<polygon fill="midnightblue" stroke="midnightblue" points="143.611,-72.3143 133.172,-74.1254 142.462,-79.2193 143.611,-72.3143"/>
</g>
<!-- Node15&#45;&gt;Node12 -->
<g id="edge30" class="edge"><title>Node15&#45;&gt;Node12</title>
<path fill="none" stroke="midnightblue" d="M776.276,-112.324C793.114,-103.664 819.212,-90.2424 838.643,-80.249"/>
<polygon fill="midnightblue" stroke="midnightblue" points="840.285,-83.3405 847.577,-75.6545 837.084,-77.1155 840.285,-83.3405"/>
</g>
<!-- Node15&#45;&gt;Node13 -->
<g id="edge31" class="edge"><title>Node15&#45;&gt;Node13</title>
<path fill="none" stroke="midnightblue" d="M786.818,-112.444C818.197,-102.649 869.45,-86.6509 902.023,-76.4836"/>
<polygon fill="midnightblue" stroke="midnightblue" points="903.391,-79.7233 911.893,-73.4026 901.305,-73.0413 903.391,-79.7233"/>
</g>
<!-- Node15&#45;&gt;Node14 -->
<g id="edge34" class="edge"><title>Node15&#45;&gt;Node14</title>
<path fill="none" stroke="midnightblue" d="M805.45,-114.753C887,-103.688 1054.85,-80.9152 1125.23,-71.3656"/>
<polygon fill="midnightblue" stroke="midnightblue" points="1125.83,-74.8156 1135.27,-70.0028 1124.89,-67.8791 1125.83,-74.8156"/>
</g>
<!-- Node16 -->
<g id="node16" class="node"><title>Node16</title>
<polygon fill="white" stroke="#bfbfbf" points="570.405,-56.5 570.405,-75.5 626.405,-75.5 626.405,-56.5 570.405,-56.5"/>
<text text-anchor="middle" x="598.405" y="-63.5" font-family="Helvetica,sans-Serif" font-size="10.00">algorithm</text>
</g>
<!-- Node15&#45;&gt;Node16 -->
<g id="edge17" class="edge"><title>Node15&#45;&gt;Node16</title>
<path fill="none" stroke="midnightblue" d="M733.895,-112.444C706.809,-103.359 663.815,-88.9388 633.537,-78.7831"/>
<polygon fill="midnightblue" stroke="midnightblue" points="634.391,-75.3781 623.797,-75.5164 632.165,-82.0148 634.391,-75.3781"/>
</g>
<!-- Node17 -->
<g id="node17" class="node"><title>Node17</title>
<polygon fill="white" stroke="#bfbfbf" points="1029.91,-56.5 1029.91,-75.5 1078.91,-75.5 1078.91,-56.5 1029.91,-56.5"/>
<text text-anchor="middle" x="1054.41" y="-63.5" font-family="Helvetica,sans-Serif" font-size="10.00">cassert</text>
</g>
<!-- Node15&#45;&gt;Node17 -->
<g id="edge18" class="edge"><title>Node15&#45;&gt;Node17</title>
<path fill="none" stroke="midnightblue" d="M805.848,-114.256C856.181,-106.667 939.04,-93.3576 1019.75,-75.9796"/>
<polygon fill="midnightblue" stroke="midnightblue" points="1020.56,-79.3868 1029.58,-73.8403 1019.07,-72.5469 1020.56,-79.3868"/>
</g>
<!-- Node18 -->
<g id="node18" class="node"><title>Node18</title>
<polygon fill="white" stroke="#bfbfbf" points="644.405,-56.5 644.405,-75.5 690.405,-75.5 690.405,-56.5 644.405,-56.5"/>
<text text-anchor="middle" x="667.405" y="-63.5" font-family="Helvetica,sans-Serif" font-size="10.00">cctype</text>
</g>
<!-- Node15&#45;&gt;Node18 -->
<g id="edge19" class="edge"><title>Node15&#45;&gt;Node18</title>
<path fill="none" stroke="midnightblue" d="M744.624,-112.324C730.138,-103.822 707.832,-90.7288 690.912,-80.7975"/>
<polygon fill="midnightblue" stroke="midnightblue" points="692.546,-77.6981 682.15,-75.6545 689.003,-83.735 692.546,-77.6981"/>
</g>
<!-- Node19 -->
<g id="node19" class="node"><title>Node19</title>
<polygon fill="white" stroke="#bfbfbf" points="708.405,-56.5 708.405,-75.5 752.405,-75.5 752.405,-56.5 708.405,-56.5"/>
<text text-anchor="middle" x="730.405" y="-63.5" font-family="Helvetica,sans-Serif" font-size="10.00">cmath</text>
</g>
<!-- Node15&#45;&gt;Node19 -->
<g id="edge20" class="edge"><title>Node15&#45;&gt;Node19</title>
<path fill="none" stroke="midnightblue" d="M754.617,-112.083C750.647,-104.691 744.88,-93.9533 739.971,-84.8111"/>
<polygon fill="midnightblue" stroke="midnightblue" points="742.92,-82.9051 735.105,-75.7511 736.753,-86.217 742.92,-82.9051"/>
</g>
<!-- Node20 -->
<g id="node20" class="node"><title>Node20</title>
<polygon fill="white" stroke="#bfbfbf" points="770.405,-56.5 770.405,-75.5 816.405,-75.5 816.405,-56.5 770.405,-56.5"/>
<text text-anchor="middle" x="793.405" y="-63.5" font-family="Helvetica,sans-Serif" font-size="10.00">cstdint</text>
</g>
<!-- Node15&#45;&gt;Node20 -->
<g id="edge21" class="edge"><title>Node15&#45;&gt;Node20</title>
<path fill="none" stroke="midnightblue" d="M765.02,-112.083C769.773,-104.534 776.724,-93.4948 782.557,-84.2298"/>
<polygon fill="midnightblue" stroke="midnightblue" points="785.529,-86.0783 787.896,-75.7511 779.606,-82.3486 785.529,-86.0783"/>
</g>
<!-- Node21 -->
<g id="node21" class="node"><title>Node21</title>
<polygon fill="white" stroke="#bfbfbf" points="1267.41,-56.5 1267.41,-75.5 1313.41,-75.5 1313.41,-56.5 1267.41,-56.5"/>
<text text-anchor="middle" x="1290.41" y="-63.5" font-family="Helvetica,sans-Serif" font-size="10.00">cstring</text>
</g>
<!-- Node15&#45;&gt;Node21 -->
<g id="edge22" class="edge"><title>Node15&#45;&gt;Node21</title>
<path fill="none" stroke="midnightblue" d="M805.708,-117.315C914.876,-108.559 1184.09,-86.5613 1256.84,-75.7812"/>
<polygon fill="midnightblue" stroke="midnightblue" points="1257.81,-79.1695 1267.1,-74.0893 1256.67,-72.2628 1257.81,-79.1695"/>
</g>
<!-- Node22 -->
<g id="node22" class="node"><title>Node22</title>
<polygon fill="white" stroke="#bfbfbf" points="1331.41,-56.5 1331.41,-75.5 1381.41,-75.5 1381.41,-56.5 1331.41,-56.5"/>
<text text-anchor="middle" x="1356.41" y="-63.5" font-family="Helvetica,sans-Serif" font-size="10.00">fstream</text>
</g>
<!-- Node15&#45;&gt;Node22 -->
<g id="edge23" class="edge"><title>Node15&#45;&gt;Node22</title>
<path fill="none" stroke="midnightblue" d="M805.412,-117.548C927.183,-108.385 1252.75,-83.6922 1321.15,-75.5829"/>
<polygon fill="midnightblue" stroke="midnightblue" points="1321.84,-79.0217 1331.26,-74.1916 1320.88,-72.087 1321.84,-79.0217"/>
</g>
<!-- Node23 -->
<g id="node23" class="node"><title>Node23</title>
<polygon fill="white" stroke="#bfbfbf" points="261.405,-56.5 261.405,-75.5 311.405,-75.5 311.405,-56.5 261.405,-56.5"/>
<text text-anchor="middle" x="286.405" y="-63.5" font-family="Helvetica,sans-Serif" font-size="10.00">iomanip</text>
</g>
<!-- Node15&#45;&gt;Node23 -->
<g id="edge24" class="edge"><title>Node15&#45;&gt;Node23</title>
<path fill="none" stroke="midnightblue" d="M713.251,-118.652C634.695,-114.139 469.909,-102.428 321.743,-75.9745"/>
<polygon fill="midnightblue" stroke="midnightblue" points="322.021,-72.468 311.557,-74.1276 320.772,-79.3557 322.021,-72.468"/>
</g>
<!-- Node24 -->
<g id="node24" class="node"><title>Node24</title>
<polygon fill="white" stroke="#bfbfbf" points="971.405,-56.5 971.405,-75.5 1011.41,-75.5 1011.41,-56.5 971.405,-56.5"/>
<text text-anchor="middle" x="991.405" y="-63.5" font-family="Helvetica,sans-Serif" font-size="10.00">limits</text>
</g>
<!-- Node15&#45;&gt;Node24 -->
<g id="edge26" class="edge"><title>Node15&#45;&gt;Node24</title>
<path fill="none" stroke="midnightblue" d="M801.79,-112.488C842.811,-104.031 906.652,-90.2919 961.405,-76 961.504,-75.9742 961.603,-75.9484 961.702,-75.9224"/>
<polygon fill="midnightblue" stroke="midnightblue" points="962.433,-79.3522 971.128,-73.2995 960.556,-72.6084 962.433,-79.3522"/>
</g>
<!-- Node25 -->
<g id="node25" class="node"><title>Node25</title>
<polygon fill="white" stroke="#bfbfbf" points="329.905,-56.5 329.905,-75.5 364.905,-75.5 364.905,-56.5 329.905,-56.5"/>
<text text-anchor="middle" x="347.405" y="-63.5" font-family="Helvetica,sans-Serif" font-size="10.00">map</text>
</g>
<!-- Node15&#45;&gt;Node25 -->
<g id="edge27" class="edge"><title>Node15&#45;&gt;Node25</title>
<path fill="none" stroke="midnightblue" d="M713.402,-118.869C642.341,-114.876 501.641,-104.179 375.025,-75.9574"/>
<polygon fill="midnightblue" stroke="midnightblue" points="375.686,-72.5185 365.159,-73.7158 374.135,-79.3445 375.686,-72.5185"/>
</g>
<!-- Node26 -->
<g id="node26" class="node"><title>Node26</title>
<polygon fill="white" stroke="#bfbfbf" points="1197.41,-56.5 1197.41,-75.5 1249.41,-75.5 1249.41,-56.5 1197.41,-56.5"/>
<text text-anchor="middle" x="1223.41" y="-63.5" font-family="Helvetica,sans-Serif" font-size="10.00">memory</text>
</g>
<!-- Node15&#45;&gt;Node26 -->
<g id="edge28" class="edge"><title>Node15&#45;&gt;Node26</title>
<path fill="none" stroke="midnightblue" d="M805.694,-117.013C897.272,-108.989 1099.61,-90.5451 1187.27,-75.919"/>
<polygon fill="midnightblue" stroke="midnightblue" points="1187.87,-79.3659 1197.12,-74.2005 1186.67,-72.4698 1187.87,-79.3659"/>
</g>
<!-- Node15&#45;&gt;Node27 -->
<g id="edge29" class="edge"><title>Node15&#45;&gt;Node27</title>
<path fill="none" stroke="midnightblue" d="M713.383,-120.921C604.134,-120.104 320.608,-114.289 75.8245,-75.9264"/>
<polygon fill="midnightblue" stroke="midnightblue" points="76.0938,-72.4253 65.6683,-74.3122 74.995,-79.3385 76.0938,-72.4253"/>
</g>
<!-- Node28 -->
<g id="node28" class="node"><title>Node28</title>
<polygon fill="white" stroke="#bfbfbf" points="382.905,-56.5 382.905,-75.5 433.905,-75.5 433.905,-56.5 382.905,-56.5"/>
<text text-anchor="middle" x="408.405" y="-63.5" font-family="Helvetica,sans-Serif" font-size="10.00">typeinfo</text>
</g>
<!-- Node15&#45;&gt;Node28 -->
<g id="edge32" class="edge"><title>Node15&#45;&gt;Node28</title>
<path fill="none" stroke="midnightblue" d="M713.347,-116.054C653.51,-109.273 545.657,-95.8407 443.783,-75.8673"/>
<polygon fill="midnightblue" stroke="midnightblue" points="444.435,-72.4285 433.945,-73.914 443.072,-79.2944 444.435,-72.4285"/>
</g>
<!-- Node29 -->
<g id="node29" class="node"><title>Node29</title>
<polygon fill="white" stroke="#bfbfbf" points="452.405,-56.5 452.405,-75.5 514.405,-75.5 514.405,-56.5 452.405,-56.5"/>
<text text-anchor="middle" x="483.405" y="-63.5" font-family="Helvetica,sans-Serif" font-size="10.00">type_traits</text>
</g>
<!-- Node15&#45;&gt;Node29 -->
<g id="edge33" class="edge"><title>Node15&#45;&gt;Node29</title>
<path fill="none" stroke="midnightblue" d="M715.108,-112.439C668.598,-103.434 593.342,-88.8186 528.405,-76 527.311,-75.784 526.202,-75.5647 525.083,-75.3431"/>
<polygon fill="midnightblue" stroke="midnightblue" points="525.363,-71.8304 514.873,-73.3143 523.999,-78.6962 525.363,-71.8304"/>
</g>
<!-- Node30 -->
<g id="node30" class="node"><title>Node30</title>
<g id="a_node30"><a xlink:href="NullOStream_8hpp.html" target="_top" xlink:title="NullOStream.hpp">
<polygon fill="white" stroke="black" points="151.405,-56.5 151.405,-75.5 243.405,-75.5 243.405,-56.5 151.405,-56.5"/>
<text text-anchor="middle" x="197.405" y="-63.5" font-family="Helvetica,sans-Serif" font-size="10.00">NullOStream.hpp</text>
</a>
</g>
</g>
<!-- Node15&#45;&gt;Node30 -->
<g id="edge36" class="edge"><title>Node15&#45;&gt;Node30</title>
<path fill="none" stroke="midnightblue" d="M713.146,-118.04C625.511,-112.183 429.081,-97.8686 253.517,-76.0548"/>
<polygon fill="midnightblue" stroke="midnightblue" points="253.941,-72.5806 243.583,-74.8096 253.07,-79.5263 253.941,-72.5806"/>
</g>
<!-- Node32 -->
<g id="node32" class="node"><title>Node32</title>
<g id="a_node32"><a xlink:href="pdal__util__export_8hpp.html" target="_top" xlink:title="pdal_util_export.hpp">
<polygon fill="white" stroke="black" points="1399.41,-56.5 1399.41,-75.5 1503.41,-75.5 1503.41,-56.5 1399.41,-56.5"/>
<text text-anchor="middle" x="1451.41" y="-63.5" font-family="Helvetica,sans-Serif" font-size="10.00">pdal_util_export.hpp</text>
</a>
</g>
</g>
<!-- Node15&#45;&gt;Node32 -->
<g id="edge39" class="edge"><title>Node15&#45;&gt;Node32</title>
<path fill="none" stroke="midnightblue" d="M805.546,-117.599C828.627,-115.904 856.992,-113.83 882.405,-112 1104.86,-95.9794 1163.68,-100.4 1389.03,-76.0728"/>
<polygon fill="midnightblue" stroke="midnightblue" points="1389.63,-79.5285 1399.2,-74.9686 1388.88,-72.5695 1389.63,-79.5285"/>
</g>
<!-- Node30&#45;&gt;Node5 -->
<g id="edge37" class="edge"><title>Node30&#45;&gt;Node5</title>
<path fill="none" stroke="midnightblue" d="M230.681,-56.4435C268.769,-46.6494 330.977,-30.6531 370.517,-20.4857"/>
<polygon fill="midnightblue" stroke="midnightblue" points="371.483,-23.8512 380.296,-17.971 369.74,-17.0717 371.483,-23.8512"/>
</g>
<!-- Node31 -->
<g id="node31" class="node"><title>Node31</title>
<polygon fill="white" stroke="#bfbfbf" points="167.405,-0.5 167.405,-19.5 227.405,-19.5 227.405,-0.5 167.405,-0.5"/>
<text text-anchor="middle" x="197.405" y="-7.5" font-family="Helvetica,sans-Serif" font-size="10.00">streambuf</text>
</g>
<!-- Node30&#45;&gt;Node31 -->
<g id="edge38" class="edge"><title>Node30&#45;&gt;Node31</title>
<path fill="none" stroke="midnightblue" d="M197.405,-56.083C197.405,-49.0059 197.405,-38.8611 197.405,-29.9865"/>
<polygon fill="midnightblue" stroke="midnightblue" points="200.906,-29.751 197.405,-19.7511 193.906,-29.7511 200.906,-29.751"/>
</g>
<!-- Node36&#45;&gt;Node3 -->
<g id="edge48" class="edge"><title>Node36&#45;&gt;Node3</title>
<path fill="none" stroke="midnightblue" d="M1211.44,-336.444C1190.8,-327.596 1158.34,-313.687 1134.77,-303.586"/>
<polygon fill="midnightblue" stroke="midnightblue" points="1135.85,-300.239 1125.28,-299.516 1133.09,-306.673 1135.85,-300.239"/>
</g>
<!-- Node36&#45;&gt;Node13 -->
<g id="edge46" class="edge"><title>Node36&#45;&gt;Node13</title>
<path fill="none" stroke="midnightblue" d="M1227.09,-336.408C1218.36,-318.2 1199.41,-274.181 1199.41,-235 1199.41,-235 1199.41,-235 1199.41,-177 1199.41,-146.775 1202.16,-131.893 1179.41,-112 1108.17,-49.7317 1060.77,-94.9592 962.916,-75.6903"/>
<polygon fill="midnightblue" stroke="midnightblue" points="963.483,-72.2322 952.97,-73.5445 962.007,-79.0748 963.483,-72.2322"/>
</g>
<!-- Node36&#45;&gt;Node14 -->
<g id="edge47" class="edge"><title>Node36&#45;&gt;Node14</title>
<path fill="none" stroke="midnightblue" d="M1237.52,-336.349C1249.61,-318.377 1275.41,-275.314 1275.41,-235 1275.41,-235 1275.41,-235 1275.41,-177 1275.41,-146.205 1272.15,-134.762 1251.41,-112 1242.41,-102.127 1212.52,-88.6725 1188.83,-79.0527"/>
<polygon fill="midnightblue" stroke="midnightblue" points="1190.05,-75.7703 1179.46,-75.3142 1187.45,-82.2717 1190.05,-75.7703"/>
</g>
<!-- Node36&#45;&gt;Node24 -->
<g id="edge45" class="edge"><title>Node36&#45;&gt;Node24</title>
<path fill="none" stroke="midnightblue" d="M1232.19,-336.451C1233.82,-317.962 1237.41,-272.869 1237.41,-235 1237.41,-235 1237.41,-235 1237.41,-177 1237.41,-146.205 1236.94,-131.857 1213.41,-112 1149.12,-57.7702 1108.15,-94.1148 1021.54,-75.8854"/>
<polygon fill="midnightblue" stroke="midnightblue" points="1022.13,-72.4307 1011.6,-73.5975 1020.56,-79.2522 1022.13,-72.4307"/>
</g>
<!-- Node37 -->
<g id="node37" class="node"><title>Node37</title>
<g id="a_node37"><a xlink:href="IStream_8hpp.html" target="_top" xlink:title="pdal/util/IStream.hpp">
<polygon fill="white" stroke="black" points="1303.91,-112.5 1303.91,-131.5 1410.91,-131.5 1410.91,-112.5 1303.91,-112.5"/>
<text text-anchor="middle" x="1357.41" y="-119.5" font-family="Helvetica,sans-Serif" font-size="10.00">pdal/util/IStream.hpp</text>
</a>
</g>
</g>
<!-- Node36&#45;&gt;Node37 -->
<g id="edge49" class="edge"><title>Node36&#45;&gt;Node37</title>
<path fill="none" stroke="midnightblue" d="M1246.63,-336.454C1259.57,-328.5 1277.85,-315.551 1289.41,-300 1326.97,-249.429 1346.37,-175.557 1353.77,-141.48"/>
<polygon fill="midnightblue" stroke="midnightblue" points="1357.23,-142.042 1355.83,-131.54 1350.38,-140.622 1357.23,-142.042"/>
</g>
<!-- Node41 -->
<g id="node41" class="node"><title>Node41</title>
<g id="a_node41"><a xlink:href="OStream_8hpp.html" target="_top" xlink:title="pdal/util/OStream.hpp">
<polygon fill="white" stroke="black" points="1464.91,-112.5 1464.91,-131.5 1575.91,-131.5 1575.91,-112.5 1464.91,-112.5"/>
<text text-anchor="middle" x="1520.41" y="-119.5" font-family="Helvetica,sans-Serif" font-size="10.00">pdal/util/OStream.hpp</text>
</a>
</g>
</g>
<!-- Node36&#45;&gt;Node41 -->
<g id="edge60" class="edge"><title>Node36&#45;&gt;Node41</title>
<path fill="none" stroke="midnightblue" d="M1248.59,-336.376C1264.97,-327.89 1290.08,-314.177 1310.41,-300 1387.16,-246.462 1469.66,-170.98 1503.98,-138.669"/>
<polygon fill="midnightblue" stroke="midnightblue" points="1506.42,-141.179 1511.27,-131.764 1501.61,-136.095 1506.42,-141.179"/>
</g>
<!-- Node37&#45;&gt;Node9 -->
<g id="edge51" class="edge"><title>Node37&#45;&gt;Node9</title>
<path fill="none" stroke="midnightblue" d="M1411.17,-115.745C1510.53,-105.968 1717.75,-85.261 1779.55,-75.7268"/>
<polygon fill="midnightblue" stroke="midnightblue" points="1780.34,-79.1429 1789.62,-74.0285 1779.18,-72.2404 1780.34,-79.1429"/>
</g>
<!-- Node37&#45;&gt;Node14 -->
<g id="edge56" class="edge"><title>Node37&#45;&gt;Node14</title>
<path fill="none" stroke="midnightblue" d="M1324.32,-112.422C1292.2,-104.046 1241.84,-90.7754 1189.53,-76.2705"/>
<polygon fill="midnightblue" stroke="midnightblue" points="1190.31,-72.8561 1179.74,-73.5486 1188.44,-79.6001 1190.31,-72.8561"/>
</g>
<!-- Node37&#45;&gt;Node17 -->
<g id="edge52" class="edge"><title>Node37&#45;&gt;Node17</title>
<path fill="none" stroke="midnightblue" d="M1309.39,-112.444C1248.07,-101.514 1143.41,-82.8621 1089.22,-73.2043"/>
<polygon fill="midnightblue" stroke="midnightblue" points="1089.54,-69.7065 1079.08,-71.3976 1088.31,-76.5979 1089.54,-69.7065"/>
</g>
<!-- Node37&#45;&gt;Node21 -->
<g id="edge57" class="edge"><title>Node37&#45;&gt;Node21</title>
<path fill="none" stroke="midnightblue" d="M1346.64,-112.324C1336.64,-104.263 1321.52,-92.0765 1309.47,-82.3695"/>
<polygon fill="midnightblue" stroke="midnightblue" points="1311.35,-79.3841 1301.37,-75.8339 1306.96,-84.8343 1311.35,-79.3841"/>
</g>
<!-- Node37&#45;&gt;Node22 -->
<g id="edge53" class="edge"><title>Node37&#45;&gt;Node22</title>
<path fill="none" stroke="midnightblue" d="M1357.24,-112.083C1357.11,-105.006 1356.92,-94.8611 1356.76,-85.9865"/>
<polygon fill="midnightblue" stroke="midnightblue" points="1360.25,-85.6845 1356.57,-75.7511 1353.25,-85.8142 1360.25,-85.6845"/>
</g>
<!-- Node37&#45;&gt;Node26 -->
<g id="edge54" class="edge"><title>Node37&#45;&gt;Node26</title>
<path fill="none" stroke="midnightblue" d="M1336.17,-112.444C1314.02,-103.517 1279.09,-89.4387 1253.97,-79.3168"/>
<polygon fill="midnightblue" stroke="midnightblue" points="1255.12,-76.0079 1244.54,-75.5164 1252.51,-82.5006 1255.12,-76.0079"/>
</g>
<!-- Node37&#45;&gt;Node32 -->
<g id="edge59" class="edge"><title>Node37&#45;&gt;Node32</title>
<path fill="none" stroke="midnightblue" d="M1372.51,-112.324C1387.31,-103.822 1410.1,-90.7288 1427.39,-80.7975"/>
<polygon fill="midnightblue" stroke="midnightblue" points="1429.41,-83.6707 1436.34,-75.6545 1425.93,-77.6009 1429.41,-83.6707"/>
</g>
<!-- Node38 -->
<g id="node38" class="node"><title>Node38</title>
<polygon fill="white" stroke="#bfbfbf" points="1521.41,-56.5 1521.41,-75.5 1589.41,-75.5 1589.41,-56.5 1521.41,-56.5"/>
<text text-anchor="middle" x="1555.41" y="-63.5" font-family="Helvetica,sans-Serif" font-size="10.00">sys/types.h</text>
</g>
<!-- Node37&#45;&gt;Node38 -->
<g id="edge50" class="edge"><title>Node37&#45;&gt;Node38</title>
<path fill="none" stroke="midnightblue" d="M1388.78,-112.444C1422.67,-103.201 1476.81,-88.4356 1514.13,-78.2572"/>
<polygon fill="midnightblue" stroke="midnightblue" points="1515.45,-81.5243 1524.18,-75.5164 1513.61,-74.771 1515.45,-81.5243"/>
</g>
<!-- Node39 -->
<g id="node39" class="node"><title>Node39</title>
<polygon fill="white" stroke="#bfbfbf" points="1607.91,-56.5 1607.91,-75.5 1648.91,-75.5 1648.91,-56.5 1607.91,-56.5"/>
<text text-anchor="middle" x="1628.41" y="-63.5" font-family="Helvetica,sans-Serif" font-size="10.00">stack</text>
</g>
<!-- Node37&#45;&gt;Node39 -->
<g id="edge55" class="edge"><title>Node37&#45;&gt;Node39</title>
<path fill="none" stroke="midnightblue" d="M1411.36,-112.622C1458.23,-104.961 1528.08,-92.6258 1597.97,-75.8809"/>
<polygon fill="midnightblue" stroke="midnightblue" points="1598.94,-79.2481 1607.83,-73.4889 1597.28,-72.4455 1598.94,-79.2481"/>
</g>
<!-- Node40 -->
<g id="node40" class="node"><title>Node40</title>
<g id="a_node40"><a xlink:href="portable__endian_8hpp.html" target="_top" xlink:title="portable_endian.hpp">
<polygon fill="white" stroke="black" points="1667.41,-56.5 1667.41,-75.5 1771.41,-75.5 1771.41,-56.5 1667.41,-56.5"/>
<text text-anchor="middle" x="1719.41" y="-63.5" font-family="Helvetica,sans-Serif" font-size="10.00">portable_endian.hpp</text>
</a>
</g>
</g>
<!-- Node37&#45;&gt;Node40 -->
<g id="edge58" class="edge"><title>Node37&#45;&gt;Node40</title>
<path fill="none" stroke="midnightblue" d="M1411.21,-112.974C1477.01,-103.159 1588.15,-86.5795 1657.45,-76.2416"/>
<polygon fill="midnightblue" stroke="midnightblue" points="1657.99,-79.7004 1667.36,-74.7632 1656.96,-72.777 1657.99,-79.7004"/>
</g>
<!-- Node41&#45;&gt;Node9 -->
<g id="edge62" class="edge"><title>Node41&#45;&gt;Node9</title>
<path fill="none" stroke="midnightblue" d="M1575.96,-112.825C1626.52,-105.06 1703.41,-92.4434 1779.36,-76.0669"/>
<polygon fill="midnightblue" stroke="midnightblue" points="1780.56,-79.3881 1789.58,-73.8384 1779.07,-72.5487 1780.56,-79.3881"/>
</g>
<!-- Node41&#45;&gt;Node21 -->
<g id="edge64" class="edge"><title>Node41&#45;&gt;Node21</title>
<path fill="none" stroke="midnightblue" d="M1480.06,-112.459C1442.07,-104.275 1383.33,-91.2663 1323.45,-76.1693"/>
<polygon fill="midnightblue" stroke="midnightblue" points="1323.99,-72.6967 1313.44,-73.629 1322.27,-79.4816 1323.99,-72.6967"/>
</g>
<!-- Node41&#45;&gt;Node22 -->
<g id="edge63" class="edge"><title>Node41&#45;&gt;Node22</title>
<path fill="none" stroke="midnightblue" d="M1494.42,-112.444C1466.46,-103.239 1421.87,-88.5568 1390.98,-78.3829"/>
<polygon fill="midnightblue" stroke="midnightblue" points="1392.06,-75.0539 1381.46,-75.2508 1389.87,-81.7028 1392.06,-75.0539"/>
</g>
<!-- Node41&#45;&gt;Node32 -->
<g id="edge67" class="edge"><title>Node41&#45;&gt;Node32</title>
<path fill="none" stroke="midnightblue" d="M1509.32,-112.324C1498.92,-104.185 1483.14,-91.8395 1470.68,-82.0874"/>
<polygon fill="midnightblue" stroke="midnightblue" points="1472.73,-79.2407 1462.69,-75.8339 1468.41,-84.7533 1472.73,-79.2407"/>
</g>
<!-- Node41&#45;&gt;Node38 -->
<g id="edge61" class="edge"><title>Node41&#45;&gt;Node38</title>
<path fill="none" stroke="midnightblue" d="M1526.18,-112.083C1531.08,-104.534 1538.23,-93.4948 1544.24,-84.2298"/>
<polygon fill="midnightblue" stroke="midnightblue" points="1547.23,-86.0463 1549.73,-75.7511 1541.36,-82.239 1547.23,-86.0463"/>
</g>
<!-- Node41&#45;&gt;Node39 -->
<g id="edge65" class="edge"><title>Node41&#45;&gt;Node39</title>
<path fill="none" stroke="midnightblue" d="M1537.76,-112.324C1555.08,-103.664 1581.92,-90.2424 1601.91,-80.249"/>
<polygon fill="midnightblue" stroke="midnightblue" points="1603.72,-83.2572 1611.1,-75.6545 1600.59,-76.9962 1603.72,-83.2572"/>
</g>
<!-- Node41&#45;&gt;Node40 -->
<g id="edge66" class="edge"><title>Node41&#45;&gt;Node40</title>
<path fill="none" stroke="midnightblue" d="M1551.94,-112.444C1586,-103.201 1640.41,-88.4356 1677.92,-78.2572"/>
<polygon fill="midnightblue" stroke="midnightblue" points="1679.29,-81.5132 1688.02,-75.5164 1677.45,-74.7575 1679.29,-81.5132"/>
</g>
</g>
</svg>
