<?xml version="1.0" encoding="UTF-8" standalone="no"?>
<!DOCTYPE svg PUBLIC "-//W3C//DTD SVG 1.1//EN"
 "http://www.w3.org/Graphics/SVG/1.1/DTD/svg11.dtd">
<!-- Generated by graphviz version 2.38.0 (20140413.2041)
 -->
<!-- Title: pdal/plugins/icebridge/io/Hdf5Handler.cpp Pages: 1 -->
<svg width="1622pt" height="263pt"
 viewBox="0.00 0.00 1621.59 263.00" xmlns="http://www.w3.org/2000/svg" xmlns:xlink="http://www.w3.org/1999/xlink">
<g id="graph0" class="graph" transform="scale(1 1) rotate(0) translate(4 259)">
<title>pdal/plugins/icebridge/io/Hdf5Handler.cpp</title>
<polygon fill="white" stroke="none" points="-4,4 -4,-259 1617.59,-259 1617.59,4 -4,4"/>
<!-- Node1 -->
<g id="node1" class="node"><title>Node1</title>
<polygon fill="#bfbfbf" stroke="black" points="924,-224.5 924,-254.5 1034,-254.5 1034,-224.5 924,-224.5"/>
<text text-anchor="start" x="932" y="-242.5" font-family="Helvetica,sans-Serif" font-size="10.00">pdal/plugins/icebridge</text>
<text text-anchor="middle" x="979" y="-231.5" font-family="Helvetica,sans-Serif" font-size="10.00">/io/Hdf5Handler.cpp</text>
</g>
<!-- Node2 -->
<g id="node2" class="node"><title>Node2</title>
<g id="a_node2"><a xlink:href="Hdf5Handler_8hpp.html" target="_top" xlink:title="Hdf5Handler.hpp">
<polygon fill="white" stroke="black" points="152,-112.5 152,-131.5 242,-131.5 242,-112.5 152,-112.5"/>
<text text-anchor="middle" x="197" y="-119.5" font-family="Helvetica,sans-Serif" font-size="10.00">Hdf5Handler.hpp</text>
</a>
</g>
</g>
<!-- Node1&#45;&gt;Node2 -->
<g id="edge1" class="edge"><title>Node1&#45;&gt;Node2</title>
<path fill="none" stroke="midnightblue" d="M923.7,-230.332C779.993,-209.107 395.98,-152.389 252.288,-131.166"/>
<polygon fill="midnightblue" stroke="midnightblue" points="252.768,-127.699 242.364,-129.7 251.745,-134.624 252.768,-127.699"/>
</g>
<!-- Node8 -->
<g id="node8" class="node"><title>Node8</title>
<g id="a_node8"><a xlink:href="FileUtils_8hpp.html" target="_top" xlink:title="pdal/util/FileUtils.hpp">
<polygon fill="white" stroke="black" points="1160,-112.5 1160,-131.5 1268,-131.5 1268,-112.5 1160,-112.5"/>
<text text-anchor="middle" x="1214" y="-119.5" font-family="Helvetica,sans-Serif" font-size="10.00">pdal/util/FileUtils.hpp</text>
</a>
</g>
</g>
<!-- Node1&#45;&gt;Node8 -->
<g id="edge7" class="edge"><title>Node1&#45;&gt;Node8</title>
<path fill="none" stroke="midnightblue" d="M978.701,-224.417C979.169,-208.411 982.512,-182.617 998,-168 1019.6,-147.612 1094.31,-135.41 1149.85,-128.96"/>
<polygon fill="midnightblue" stroke="midnightblue" points="1150.43,-132.416 1159.98,-127.821 1149.65,-125.46 1150.43,-132.416"/>
</g>
<!-- Node16 -->
<g id="node16" class="node"><title>Node16</title>
<g id="a_node16"><a xlink:href="pdal__types_8hpp.html" target="_top" xlink:title="pdal/pdal_types.hpp">
<polygon fill="white" stroke="black" points="1007,-168.5 1007,-187.5 1111,-187.5 1111,-168.5 1007,-168.5"/>
<text text-anchor="middle" x="1059" y="-175.5" font-family="Helvetica,sans-Serif" font-size="10.00">pdal/pdal_types.hpp</text>
</a>
</g>
</g>
<!-- Node1&#45;&gt;Node16 -->
<g id="edge16" class="edge"><title>Node1&#45;&gt;Node16</title>
<path fill="none" stroke="midnightblue" d="M997.959,-224.399C1010.42,-215.129 1026.7,-203.025 1039.31,-193.647"/>
<polygon fill="midnightblue" stroke="midnightblue" points="1041.42,-196.434 1047.36,-187.658 1037.25,-190.817 1041.42,-196.434"/>
</g>
<!-- Node3 -->
<g id="node3" class="node"><title>Node3</title>
<polygon fill="white" stroke="#bfbfbf" points="0,-56.5 0,-75.5 56,-75.5 56,-56.5 0,-56.5"/>
<text text-anchor="middle" x="28" y="-63.5" font-family="Helvetica,sans-Serif" font-size="10.00">H5Cpp.h</text>
</g>
<!-- Node2&#45;&gt;Node3 -->
<g id="edge2" class="edge"><title>Node2&#45;&gt;Node3</title>
<path fill="none" stroke="midnightblue" d="M170.221,-112.444C141.667,-103.32 96.2674,-88.8133 64.4631,-78.6509"/>
<polygon fill="midnightblue" stroke="midnightblue" points="65.2441,-75.2262 54.6533,-75.5164 63.1135,-81.8941 65.2441,-75.2262"/>
</g>
<!-- Node4 -->
<g id="node4" class="node"><title>Node4</title>
<polygon fill="white" stroke="#bfbfbf" points="136,-56.5 136,-75.5 188,-75.5 188,-56.5 136,-56.5"/>
<text text-anchor="middle" x="162" y="-63.5" font-family="Helvetica,sans-Serif" font-size="10.00">memory</text>
</g>
<!-- Node2&#45;&gt;Node4 -->
<g id="edge3" class="edge"><title>Node2&#45;&gt;Node4</title>
<path fill="none" stroke="midnightblue" d="M191.22,-112.083C186.328,-104.534 179.173,-93.4948 173.167,-84.2298"/>
<polygon fill="midnightblue" stroke="midnightblue" points="176.048,-82.239 167.672,-75.7511 170.174,-86.0463 176.048,-82.239"/>
</g>
<!-- Node5 -->
<g id="node5" class="node"><title>Node5</title>
<polygon fill="white" stroke="#bfbfbf" points="74,-56.5 74,-75.5 118,-75.5 118,-56.5 74,-56.5"/>
<text text-anchor="middle" x="96" y="-63.5" font-family="Helvetica,sans-Serif" font-size="10.00">vector</text>
</g>
<!-- Node2&#45;&gt;Node5 -->
<g id="edge4" class="edge"><title>Node2&#45;&gt;Node5</title>
<path fill="none" stroke="midnightblue" d="M180.773,-112.324C164.649,-103.703 139.7,-90.3643 121.036,-80.3855"/>
<polygon fill="midnightblue" stroke="midnightblue" points="122.656,-77.283 112.187,-75.6545 119.356,-83.456 122.656,-77.283"/>
</g>
<!-- Node6 -->
<g id="node6" class="node"><title>Node6</title>
<polygon fill="white" stroke="#bfbfbf" points="259.5,-56.5 259.5,-75.5 300.5,-75.5 300.5,-56.5 259.5,-56.5"/>
<text text-anchor="middle" x="280" y="-63.5" font-family="Helvetica,sans-Serif" font-size="10.00">string</text>
</g>
<!-- Node2&#45;&gt;Node6 -->
<g id="edge5" class="edge"><title>Node2&#45;&gt;Node6</title>
<path fill="none" stroke="midnightblue" d="M210.335,-112.324C223.162,-103.979 242.785,-91.2122 257.94,-81.3524"/>
<polygon fill="midnightblue" stroke="midnightblue" points="260.224,-84.0417 266.698,-75.6545 256.407,-78.1742 260.224,-84.0417"/>
</g>
<!-- Node7 -->
<g id="node7" class="node"><title>Node7</title>
<polygon fill="white" stroke="#bfbfbf" points="206.5,-56.5 206.5,-75.5 241.5,-75.5 241.5,-56.5 206.5,-56.5"/>
<text text-anchor="middle" x="224" y="-63.5" font-family="Helvetica,sans-Serif" font-size="10.00">map</text>
</g>
<!-- Node2&#45;&gt;Node7 -->
<g id="edge6" class="edge"><title>Node2&#45;&gt;Node7</title>
<path fill="none" stroke="midnightblue" d="M201.459,-112.083C205.154,-104.691 210.523,-93.9533 215.094,-84.8111"/>
<polygon fill="midnightblue" stroke="midnightblue" points="218.283,-86.2606 219.624,-75.7511 212.022,-83.1301 218.283,-86.2606"/>
</g>
<!-- Node8&#45;&gt;Node6 -->
<g id="edge14" class="edge"><title>Node8&#45;&gt;Node6</title>
<path fill="none" stroke="midnightblue" d="M1159.86,-119.068C983.363,-112.668 429.597,-91.7458 310.629,-75.4268"/>
<polygon fill="midnightblue" stroke="midnightblue" points="310.917,-71.9299 300.5,-73.8625 309.849,-78.8479 310.917,-71.9299"/>
</g>
<!-- Node9 -->
<g id="node9" class="node"><title>Node9</title>
<polygon fill="white" stroke="#bfbfbf" points="1331.5,-56.5 1331.5,-75.5 1380.5,-75.5 1380.5,-56.5 1331.5,-56.5"/>
<text text-anchor="middle" x="1356" y="-63.5" font-family="Helvetica,sans-Serif" font-size="10.00">cassert</text>
</g>
<!-- Node8&#45;&gt;Node9 -->
<g id="edge8" class="edge"><title>Node8&#45;&gt;Node9</title>
<path fill="none" stroke="midnightblue" d="M1236.5,-112.444C1260.08,-103.478 1297.32,-89.314 1323.96,-79.1827"/>
<polygon fill="midnightblue" stroke="midnightblue" points="1325.5,-82.3424 1333.6,-75.5164 1323.01,-75.7995 1325.5,-82.3424"/>
</g>
<!-- Node10 -->
<g id="node10" class="node"><title>Node10</title>
<polygon fill="white" stroke="#bfbfbf" points="1083,-56.5 1083,-75.5 1127,-75.5 1127,-56.5 1083,-56.5"/>
<text text-anchor="middle" x="1105" y="-63.5" font-family="Helvetica,sans-Serif" font-size="10.00">cmath</text>
</g>
<!-- Node8&#45;&gt;Node10 -->
<g id="edge9" class="edge"><title>Node8&#45;&gt;Node10</title>
<path fill="none" stroke="midnightblue" d="M1196.49,-112.324C1178.93,-103.625 1151.67,-90.1202 1131.47,-80.113"/>
<polygon fill="midnightblue" stroke="midnightblue" points="1132.98,-76.9575 1122.47,-75.6545 1129.88,-83.23 1132.98,-76.9575"/>
</g>
<!-- Node11 -->
<g id="node11" class="node"><title>Node11</title>
<polygon fill="white" stroke="#bfbfbf" points="1145,-56.5 1145,-75.5 1191,-75.5 1191,-56.5 1145,-56.5"/>
<text text-anchor="middle" x="1168" y="-63.5" font-family="Helvetica,sans-Serif" font-size="10.00">cstdint</text>
</g>
<!-- Node8&#45;&gt;Node11 -->
<g id="edge10" class="edge"><title>Node8&#45;&gt;Node11</title>
<path fill="none" stroke="midnightblue" d="M1206.4,-112.083C1199.77,-104.298 1189.98,-92.8015 1181.94,-83.3665"/>
<polygon fill="midnightblue" stroke="midnightblue" points="1184.6,-81.0939 1175.45,-75.7511 1179.27,-85.6332 1184.6,-81.0939"/>
</g>
<!-- Node12 -->
<g id="node12" class="node"><title>Node12</title>
<polygon fill="white" stroke="#bfbfbf" points="1469.5,-56.5 1469.5,-75.5 1518.5,-75.5 1518.5,-56.5 1469.5,-56.5"/>
<text text-anchor="middle" x="1494" y="-63.5" font-family="Helvetica,sans-Serif" font-size="10.00">istream</text>
</g>
<!-- Node8&#45;&gt;Node12 -->
<g id="edge11" class="edge"><title>Node8&#45;&gt;Node12</title>
<path fill="none" stroke="midnightblue" d="M1267.51,-112.447C1315.26,-104.536 1387.28,-91.9206 1459.05,-76.0688"/>
<polygon fill="midnightblue" stroke="midnightblue" points="1460.17,-79.4041 1469.17,-73.8108 1458.65,-72.572 1460.17,-79.4041"/>
</g>
<!-- Node13 -->
<g id="node13" class="node"><title>Node13</title>
<polygon fill="white" stroke="#bfbfbf" points="1399,-56.5 1399,-75.5 1451,-75.5 1451,-56.5 1399,-56.5"/>
<text text-anchor="middle" x="1425" y="-63.5" font-family="Helvetica,sans-Serif" font-size="10.00">ostream</text>
</g>
<!-- Node8&#45;&gt;Node13 -->
<g id="edge12" class="edge"><title>Node8&#45;&gt;Node13</title>
<path fill="none" stroke="midnightblue" d="M1247.42,-112.471C1280.82,-103.942 1333.91,-90.3765 1388.74,-76.3215"/>
<polygon fill="midnightblue" stroke="midnightblue" points="1389.81,-79.6596 1398.63,-73.7856 1388.07,-72.879 1389.81,-79.6596"/>
</g>
<!-- Node14 -->
<g id="node14" class="node"><title>Node14</title>
<polygon fill="white" stroke="#bfbfbf" points="1536.5,-56.5 1536.5,-75.5 1595.5,-75.5 1595.5,-56.5 1536.5,-56.5"/>
<text text-anchor="middle" x="1566" y="-63.5" font-family="Helvetica,sans-Serif" font-size="10.00">stdexcept</text>
</g>
<!-- Node8&#45;&gt;Node14 -->
<g id="edge13" class="edge"><title>Node8&#45;&gt;Node14</title>
<path fill="none" stroke="midnightblue" d="M1268.14,-114.748C1328.83,-107.402 1430.35,-94.11 1526.32,-76.1925"/>
<polygon fill="midnightblue" stroke="midnightblue" points="1527.01,-79.6244 1536.18,-74.3301 1525.71,-72.7459 1527.01,-79.6244"/>
</g>
<!-- Node15 -->
<g id="node15" class="node"><title>Node15</title>
<g id="a_node15"><a xlink:href="pdal__util__export_8hpp.html" target="_top" xlink:title="pdal_util_export.hpp">
<polygon fill="white" stroke="black" points="1209,-56.5 1209,-75.5 1313,-75.5 1313,-56.5 1209,-56.5"/>
<text text-anchor="middle" x="1261" y="-63.5" font-family="Helvetica,sans-Serif" font-size="10.00">pdal_util_export.hpp</text>
</a>
</g>
</g>
<!-- Node8&#45;&gt;Node15 -->
<g id="edge15" class="edge"><title>Node8&#45;&gt;Node15</title>
<path fill="none" stroke="midnightblue" d="M1221.76,-112.083C1228.54,-104.298 1238.54,-92.8015 1246.76,-83.3665"/>
<polygon fill="midnightblue" stroke="midnightblue" points="1249.46,-85.592 1253.38,-75.7511 1244.18,-80.9963 1249.46,-85.592"/>
</g>
<!-- Node16&#45;&gt;Node5 -->
<g id="edge22" class="edge"><title>Node16&#45;&gt;Node5</title>
<path fill="none" stroke="midnightblue" d="M1006.99,-177.052C824.3,-176.88 218.93,-173.177 143,-132 124.121,-121.762 110.932,-100.27 103.428,-84.7989"/>
<polygon fill="midnightblue" stroke="midnightblue" points="106.617,-83.3571 99.3154,-75.6804 100.236,-86.2351 106.617,-83.3571"/>
</g>
<!-- Node16&#45;&gt;Node6 -->
<g id="edge21" class="edge"><title>Node16&#45;&gt;Node6</title>
<path fill="none" stroke="midnightblue" d="M1006.95,-173.904C948.177,-169.27 850.287,-158.087 770,-132 751.474,-125.98 749.723,-117.375 731,-112 553.671,-61.0893 496.48,-109.407 310.62,-75.6551"/>
<polygon fill="midnightblue" stroke="midnightblue" points="310.992,-72.1639 300.518,-73.7635 309.703,-79.0443 310.992,-72.1639"/>
</g>
<!-- Node16&#45;&gt;Node12 -->
<g id="edge19" class="edge"><title>Node16&#45;&gt;Node12</title>
<path fill="none" stroke="midnightblue" d="M1111.16,-170.285C1156.01,-163.561 1221.96,-151.389 1277,-132 1295.37,-125.528 1297.77,-118.852 1316,-112 1374.86,-89.8844 1394.3,-92.1583 1459.53,-76.0452"/>
<polygon fill="midnightblue" stroke="midnightblue" points="1460.66,-79.3704 1469.5,-73.5294 1458.94,-72.5833 1460.66,-79.3704"/>
</g>
<!-- Node16&#45;&gt;Node14 -->
<g id="edge20" class="edge"><title>Node16&#45;&gt;Node14</title>
<path fill="none" stroke="midnightblue" d="M1111.24,-173.035C1175.79,-167.385 1288.66,-155.05 1383,-132 1438.68,-118.394 1501.12,-94.1913 1536.78,-79.4679"/>
<polygon fill="midnightblue" stroke="midnightblue" points="1538.22,-82.6612 1546.1,-75.5832 1535.52,-76.2 1538.22,-82.6612"/>
</g>
<!-- Node17 -->
<g id="node17" class="node"><title>Node17</title>
<polygon fill="white" stroke="#bfbfbf" points="1324.5,-112.5 1324.5,-131.5 1373.5,-131.5 1373.5,-112.5 1324.5,-112.5"/>
<text text-anchor="middle" x="1349" y="-119.5" font-family="Helvetica,sans-Serif" font-size="10.00">stdint.h</text>
</g>
<!-- Node16&#45;&gt;Node17 -->
<g id="edge17" class="edge"><title>Node16&#45;&gt;Node17</title>
<path fill="none" stroke="midnightblue" d="M1111.06,-168.438C1161.92,-159.891 1241.48,-146.04 1310,-132 1311.45,-131.704 1312.92,-131.394 1314.41,-131.077"/>
<polygon fill="midnightblue" stroke="midnightblue" points="1315.27,-134.471 1324.28,-128.898 1313.76,-127.635 1315.27,-134.471"/>
</g>
<!-- Node18 -->
<g id="node18" class="node"><title>Node18</title>
<polygon fill="white" stroke="#bfbfbf" points="677.5,-112.5 677.5,-131.5 722.5,-131.5 722.5,-112.5 677.5,-112.5"/>
<text text-anchor="middle" x="700" y="-119.5" font-family="Helvetica,sans-Serif" font-size="10.00">cstdlib</text>
</g>
<!-- Node16&#45;&gt;Node18 -->
<g id="edge18" class="edge"><title>Node16&#45;&gt;Node18</title>
<path fill="none" stroke="midnightblue" d="M1006.87,-171.336C942.976,-164.022 831.532,-150.056 737,-132 735.539,-131.721 734.049,-131.421 732.546,-131.107"/>
<polygon fill="midnightblue" stroke="midnightblue" points="733.144,-127.654 722.62,-128.881 731.612,-134.485 733.144,-127.654"/>
</g>
<!-- Node19 -->
<g id="node19" class="node"><title>Node19</title>
<polygon fill="white" stroke="#bfbfbf" points="412,-0.5 412,-19.5 466,-19.5 466,-0.5 412,-0.5"/>
<text text-anchor="middle" x="439" y="-7.5" font-family="Helvetica,sans-Serif" font-size="10.00">iostream</text>
</g>
<!-- Node16&#45;&gt;Node19 -->
<g id="edge23" class="edge"><title>Node16&#45;&gt;Node19</title>
<path fill="none" stroke="midnightblue" d="M1111.06,-173.888C1260.53,-164.028 1675.89,-129.682 1605,-56 1564.96,-14.3851 670.933,-11.2028 476.22,-11.0039"/>
<polygon fill="midnightblue" stroke="midnightblue" points="476.195,-7.50402 466.192,-10.9958 476.189,-14.504 476.195,-7.50402"/>
</g>
<!-- Node20 -->
<g id="node20" class="node"><title>Node20</title>
<g id="a_node20"><a xlink:href="Utils_8hpp.html" target="_top" xlink:title="pdal/util/Utils.hpp">
<polygon fill="white" stroke="black" points="779,-112.5 779,-131.5 871,-131.5 871,-112.5 779,-112.5"/>
<text text-anchor="middle" x="825" y="-119.5" font-family="Helvetica,sans-Serif" font-size="10.00">pdal/util/Utils.hpp</text>
</a>
</g>
</g>
<!-- Node16&#45;&gt;Node20 -->
<g id="edge24" class="edge"><title>Node16&#45;&gt;Node20</title>
<path fill="none" stroke="midnightblue" d="M1021.92,-168.444C981.272,-159.063 915.968,-143.993 871.816,-133.804"/>
<polygon fill="midnightblue" stroke="midnightblue" points="872.435,-130.355 861.905,-131.516 870.861,-137.175 872.435,-130.355"/>
</g>
<!-- Node20&#45;&gt;Node4 -->
<g id="edge36" class="edge"><title>Node20&#45;&gt;Node4</title>
<path fill="none" stroke="midnightblue" d="M778.646,-116.301C763.47,-114.832 746.523,-113.266 731,-112 497.157,-92.9268 433.582,-113.21 198.154,-75.8926"/>
<polygon fill="midnightblue" stroke="midnightblue" points="198.692,-72.4342 188.264,-74.3073 197.584,-79.346 198.692,-72.4342"/>
</g>
<!-- Node20&#45;&gt;Node5 -->
<g id="edge42" class="edge"><title>Node20&#45;&gt;Node5</title>
<path fill="none" stroke="midnightblue" d="M778.652,-116.229C763.476,-114.756 746.528,-113.206 731,-112 466.159,-91.4355 393.757,-121.034 128.148,-75.8033"/>
<polygon fill="midnightblue" stroke="midnightblue" points="128.661,-72.3401 118.212,-74.0919 127.473,-79.2386 128.661,-72.3401"/>
</g>
<!-- Node20&#45;&gt;Node6 -->
<g id="edge39" class="edge"><title>Node20&#45;&gt;Node6</title>
<path fill="none" stroke="midnightblue" d="M778.855,-113.746C774.181,-113.111 769.5,-112.515 765,-112 566.708,-89.3117 511.166,-112.581 310.492,-75.6448"/>
<polygon fill="midnightblue" stroke="midnightblue" points="310.988,-72.1768 300.515,-73.7811 309.702,-79.0578 310.988,-72.1768"/>
</g>
<!-- Node20&#45;&gt;Node7 -->
<g id="edge35" class="edge"><title>Node20&#45;&gt;Node7</title>
<path fill="none" stroke="midnightblue" d="M778.64,-116.369C763.464,-114.904 746.518,-113.323 731,-112 520.633,-94.0588 461.707,-118.658 251.531,-75.8388"/>
<polygon fill="midnightblue" stroke="midnightblue" points="252.233,-72.41 241.732,-73.8163 250.818,-79.2655 252.233,-72.41"/>
</g>
<!-- Node20&#45;&gt;Node9 -->
<g id="edge26" class="edge"><title>Node20&#45;&gt;Node9</title>
<path fill="none" stroke="midnightblue" d="M871.251,-119.413C957.819,-115.88 1150.25,-105.371 1321.29,-75.8171"/>
<polygon fill="midnightblue" stroke="midnightblue" points="1321.98,-79.2494 1331.22,-74.0743 1320.77,-72.3546 1321.98,-79.2494"/>
</g>
<!-- Node20&#45;&gt;Node10 -->
<g id="edge28" class="edge"><title>Node20&#45;&gt;Node10</title>
<path fill="none" stroke="midnightblue" d="M871.187,-114.124C919.242,-106.643 996.837,-93.6496 1072.54,-76.1516"/>
<polygon fill="midnightblue" stroke="midnightblue" points="1073.78,-79.4551 1082.72,-73.7676 1072.19,-72.6395 1073.78,-79.4551"/>
</g>
<!-- Node20&#45;&gt;Node11 -->
<g id="edge29" class="edge"><title>Node20&#45;&gt;Node11</title>
<path fill="none" stroke="midnightblue" d="M871.176,-116.225C930.235,-109.698 1035.79,-96.6238 1134.8,-76.0244"/>
<polygon fill="midnightblue" stroke="midnightblue" points="1135.61,-79.4315 1144.67,-73.9415 1134.16,-72.5824 1135.61,-79.4315"/>
</g>
<!-- Node20&#45;&gt;Node12 -->
<g id="edge33" class="edge"><title>Node20&#45;&gt;Node12</title>
<path fill="none" stroke="midnightblue" d="M871.167,-120.692C974.828,-119.364 1233.94,-112.504 1459.21,-75.7887"/>
<polygon fill="midnightblue" stroke="midnightblue" points="1459.94,-79.2159 1469.23,-74.1314 1458.8,-72.3097 1459.94,-79.2159"/>
</g>
<!-- Node20&#45;&gt;Node14 -->
<g id="edge38" class="edge"><title>Node20&#45;&gt;Node14</title>
<path fill="none" stroke="midnightblue" d="M871.346,-120.727C982.795,-119.495 1274.63,-112.847 1526.16,-76.0452"/>
<polygon fill="midnightblue" stroke="midnightblue" points="1526.84,-79.4827 1536.22,-74.554 1525.82,-72.5583 1526.84,-79.4827"/>
</g>
<!-- Node20&#45;&gt;Node15 -->
<g id="edge47" class="edge"><title>Node20&#45;&gt;Node15</title>
<path fill="none" stroke="midnightblue" d="M871.236,-115.859C940.211,-108.101 1074.4,-92.6621 1198.69,-76.1451"/>
<polygon fill="midnightblue" stroke="midnightblue" points="1199.32,-79.5927 1208.77,-74.801 1198.39,-72.6542 1199.32,-79.5927"/>
</g>
<!-- Node20&#45;&gt;Node19 -->
<g id="edge43" class="edge"><title>Node20&#45;&gt;Node19</title>
<path fill="none" stroke="midnightblue" d="M778.833,-113.922C774.163,-113.252 769.489,-112.6 765,-112 696.915,-102.904 510.467,-120.334 458,-76 444.69,-64.7529 440.423,-44.7404 439.19,-29.8826"/>
<polygon fill="midnightblue" stroke="midnightblue" points="442.68,-29.5904 438.738,-19.7562 435.687,-29.9021 442.68,-29.5904"/>
</g>
<!-- Node21 -->
<g id="node21" class="node"><title>Node21</title>
<polygon fill="white" stroke="#bfbfbf" points="467,-56.5 467,-75.5 523,-75.5 523,-56.5 467,-56.5"/>
<text text-anchor="middle" x="495" y="-63.5" font-family="Helvetica,sans-Serif" font-size="10.00">algorithm</text>
</g>
<!-- Node20&#45;&gt;Node21 -->
<g id="edge25" class="edge"><title>Node20&#45;&gt;Node21</title>
<path fill="none" stroke="midnightblue" d="M778.694,-113.995C707.091,-103.15 574.141,-82.9542 533.221,-75.9434"/>
<polygon fill="midnightblue" stroke="midnightblue" points="533.69,-72.4716 523.226,-74.1312 532.441,-79.3593 533.69,-72.4716"/>
</g>
<!-- Node22 -->
<g id="node22" class="node"><title>Node22</title>
<polygon fill="white" stroke="#bfbfbf" points="541,-56.5 541,-75.5 587,-75.5 587,-56.5 541,-56.5"/>
<text text-anchor="middle" x="564" y="-63.5" font-family="Helvetica,sans-Serif" font-size="10.00">cctype</text>
</g>
<!-- Node20&#45;&gt;Node22 -->
<g id="edge27" class="edge"><title>Node20&#45;&gt;Node22</title>
<path fill="none" stroke="midnightblue" d="M778.71,-113.028C734.463,-105.157 665.687,-92.2706 597.125,-76.1174"/>
<polygon fill="midnightblue" stroke="midnightblue" points="597.553,-72.6215 587.014,-73.7107 595.932,-79.4313 597.553,-72.6215"/>
</g>
<!-- Node23 -->
<g id="node23" class="node"><title>Node23</title>
<polygon fill="white" stroke="#bfbfbf" points="605,-56.5 605,-75.5 651,-75.5 651,-56.5 605,-56.5"/>
<text text-anchor="middle" x="628" y="-63.5" font-family="Helvetica,sans-Serif" font-size="10.00">cstring</text>
</g>
<!-- Node20&#45;&gt;Node23 -->
<g id="edge30" class="edge"><title>Node20&#45;&gt;Node23</title>
<path fill="none" stroke="midnightblue" d="M793.348,-112.447C762.064,-103.977 712.585,-90.5326 660.765,-76.197"/>
<polygon fill="midnightblue" stroke="midnightblue" points="661.637,-72.8068 651.066,-73.5108 659.769,-79.5529 661.637,-72.8068"/>
</g>
<!-- Node24 -->
<g id="node24" class="node"><title>Node24</title>
<polygon fill="white" stroke="#bfbfbf" points="669,-56.5 669,-75.5 719,-75.5 719,-56.5 669,-56.5"/>
<text text-anchor="middle" x="694" y="-63.5" font-family="Helvetica,sans-Serif" font-size="10.00">fstream</text>
</g>
<!-- Node20&#45;&gt;Node24 -->
<g id="edge31" class="edge"><title>Node20&#45;&gt;Node24</title>
<path fill="none" stroke="midnightblue" d="M804.243,-112.444C782.684,-103.557 748.737,-89.5632 724.206,-79.4514"/>
<polygon fill="midnightblue" stroke="midnightblue" points="725.239,-76.0917 714.66,-75.5164 722.572,-82.5634 725.239,-76.0917"/>
</g>
<!-- Node25 -->
<g id="node25" class="node"><title>Node25</title>
<polygon fill="white" stroke="#bfbfbf" points="737,-56.5 737,-75.5 787,-75.5 787,-56.5 737,-56.5"/>
<text text-anchor="middle" x="762" y="-63.5" font-family="Helvetica,sans-Serif" font-size="10.00">iomanip</text>
</g>
<!-- Node20&#45;&gt;Node25 -->
<g id="edge32" class="edge"><title>Node20&#45;&gt;Node25</title>
<path fill="none" stroke="midnightblue" d="M814.878,-112.324C805.474,-104.263 791.256,-92.0765 779.931,-82.3695"/>
<polygon fill="midnightblue" stroke="midnightblue" points="782.177,-79.6844 772.306,-75.8339 777.621,-84.9993 782.177,-79.6844"/>
</g>
<!-- Node26 -->
<g id="node26" class="node"><title>Node26</title>
<polygon fill="white" stroke="#bfbfbf" points="805,-56.5 805,-75.5 845,-75.5 845,-56.5 805,-56.5"/>
<text text-anchor="middle" x="825" y="-63.5" font-family="Helvetica,sans-Serif" font-size="10.00">limits</text>
</g>
<!-- Node20&#45;&gt;Node26 -->
<g id="edge34" class="edge"><title>Node20&#45;&gt;Node26</title>
<path fill="none" stroke="midnightblue" d="M825,-112.083C825,-105.006 825,-94.8611 825,-85.9865"/>
<polygon fill="midnightblue" stroke="midnightblue" points="828.5,-85.751 825,-75.7511 821.5,-85.7511 828.5,-85.751"/>
</g>
<!-- Node27 -->
<g id="node27" class="node"><title>Node27</title>
<polygon fill="white" stroke="#bfbfbf" points="863,-56.5 863,-75.5 915,-75.5 915,-56.5 863,-56.5"/>
<text text-anchor="middle" x="889" y="-63.5" font-family="Helvetica,sans-Serif" font-size="10.00">sstream</text>
</g>
<!-- Node20&#45;&gt;Node27 -->
<g id="edge37" class="edge"><title>Node20&#45;&gt;Node27</title>
<path fill="none" stroke="midnightblue" d="M835.283,-112.324C844.836,-104.263 859.28,-92.0765 870.784,-82.3695"/>
<polygon fill="midnightblue" stroke="midnightblue" points="873.144,-84.9577 878.53,-75.8339 868.63,-79.6076 873.144,-84.9577"/>
</g>
<!-- Node28 -->
<g id="node28" class="node"><title>Node28</title>
<polygon fill="white" stroke="#bfbfbf" points="933.5,-56.5 933.5,-75.5 984.5,-75.5 984.5,-56.5 933.5,-56.5"/>
<text text-anchor="middle" x="959" y="-63.5" font-family="Helvetica,sans-Serif" font-size="10.00">typeinfo</text>
</g>
<!-- Node20&#45;&gt;Node28 -->
<g id="edge40" class="edge"><title>Node20&#45;&gt;Node28</title>
<path fill="none" stroke="midnightblue" d="M846.233,-112.444C868.384,-103.517 903.319,-89.4387 928.436,-79.3168"/>
<polygon fill="midnightblue" stroke="midnightblue" points="929.9,-82.5006 937.867,-75.5164 927.283,-76.0079 929.9,-82.5006"/>
</g>
<!-- Node29 -->
<g id="node29" class="node"><title>Node29</title>
<polygon fill="white" stroke="#bfbfbf" points="1003,-56.5 1003,-75.5 1065,-75.5 1065,-56.5 1003,-56.5"/>
<text text-anchor="middle" x="1034" y="-63.5" font-family="Helvetica,sans-Serif" font-size="10.00">type_traits</text>
</g>
<!-- Node20&#45;&gt;Node29 -->
<g id="edge41" class="edge"><title>Node20&#45;&gt;Node29</title>
<path fill="none" stroke="midnightblue" d="M858.117,-112.444C894.647,-103.005 953.47,-87.8067 992.913,-77.6158"/>
<polygon fill="midnightblue" stroke="midnightblue" points="993.939,-80.9658 1002.75,-75.0755 992.187,-74.1884 993.939,-80.9658"/>
</g>
<!-- Node30 -->
<g id="node30" class="node"><title>Node30</title>
<g id="a_node30"><a xlink:href="NullOStream_8hpp.html" target="_top" xlink:title="NullOStream.hpp">
<polygon fill="white" stroke="black" points="319,-56.5 319,-75.5 411,-75.5 411,-56.5 319,-56.5"/>
<text text-anchor="middle" x="365" y="-63.5" font-family="Helvetica,sans-Serif" font-size="10.00">NullOStream.hpp</text>
</a>
</g>
</g>
<!-- Node20&#45;&gt;Node30 -->
<g id="edge44" class="edge"><title>Node20&#45;&gt;Node30</title>
<path fill="none" stroke="midnightblue" d="M778.84,-113.87C774.169,-113.21 769.493,-112.575 765,-112 614.272,-92.7249 575.728,-95.2751 425,-76 423.736,-75.8384 422.458,-75.672 421.17,-75.5016"/>
<polygon fill="midnightblue" stroke="midnightblue" points="421.542,-72.02 411.16,-74.1303 420.592,-78.9552 421.542,-72.02"/>
</g>
<!-- Node30&#45;&gt;Node19 -->
<g id="edge45" class="edge"><title>Node30&#45;&gt;Node19</title>
<path fill="none" stroke="midnightblue" d="M376.889,-56.324C388.15,-48.1066 405.287,-35.6017 418.709,-25.8069"/>
<polygon fill="midnightblue" stroke="midnightblue" points="420.88,-28.5559 426.894,-19.8339 416.753,-22.9014 420.88,-28.5559"/>
</g>
<!-- Node31 -->
<g id="node31" class="node"><title>Node31</title>
<polygon fill="white" stroke="#bfbfbf" points="334,-0.5 334,-19.5 394,-19.5 394,-0.5 334,-0.5"/>
<text text-anchor="middle" x="364" y="-7.5" font-family="Helvetica,sans-Serif" font-size="10.00">streambuf</text>
</g>
<!-- Node30&#45;&gt;Node31 -->
<g id="edge46" class="edge"><title>Node30&#45;&gt;Node31</title>
<path fill="none" stroke="midnightblue" d="M364.835,-56.083C364.704,-49.0059 364.516,-38.8611 364.352,-29.9865"/>
<polygon fill="midnightblue" stroke="midnightblue" points="367.847,-29.6845 364.162,-19.7511 360.848,-29.8142 367.847,-29.6845"/>
</g>
</g>
</svg>
