<?xml version="1.0" encoding="UTF-8" standalone="no"?>
<!DOCTYPE svg PUBLIC "-//W3C//DTD SVG 1.1//EN"
 "http://www.w3.org/Graphics/SVG/1.1/DTD/svg11.dtd">
<!-- Generated by graphviz version 2.38.0 (20140413.2041)
 -->
<!-- Title: pdal/io/HeaderVal.hpp Pages: 1 -->
<svg width="350pt" height="196pt"
 viewBox="0.00 0.00 350.00 196.00" xmlns="http://www.w3.org/2000/svg" xmlns:xlink="http://www.w3.org/1999/xlink">
<g id="graph0" class="graph" transform="scale(1 1) rotate(0) translate(4 192)">
<title>pdal/io/HeaderVal.hpp</title>
<polygon fill="white" stroke="none" points="-4,4 -4,-192 346,-192 346,4 -4,4"/>
<!-- Node1 -->
<g id="node1" class="node"><title>Node1</title>
<polygon fill="#bfbfbf" stroke="black" points="77.5,-168.5 77.5,-187.5 190.5,-187.5 190.5,-168.5 77.5,-168.5"/>
<text text-anchor="middle" x="134" y="-175.5" font-family="Helvetica,sans-Serif" font-size="10.00">pdal/io/HeaderVal.hpp</text>
</g>
<!-- Node2 -->
<g id="node2" class="node"><title>Node2</title>
<g id="a_node2"><a xlink:href="Uuid_8hpp.html" target="_top" xlink:title="pdal/util/Uuid.hpp">
<polygon fill="white" stroke="black" points="88,-112.5 88,-131.5 180,-131.5 180,-112.5 88,-112.5"/>
<text text-anchor="middle" x="134" y="-119.5" font-family="Helvetica,sans-Serif" font-size="10.00">pdal/util/Uuid.hpp</text>
</a>
</g>
</g>
<!-- Node1&#45;&gt;Node2 -->
<g id="edge1" class="edge"><title>Node1&#45;&gt;Node2</title>
<path fill="none" stroke="midnightblue" d="M134,-168.083C134,-161.006 134,-150.861 134,-141.986"/>
<polygon fill="midnightblue" stroke="midnightblue" points="137.5,-141.751 134,-131.751 130.5,-141.751 137.5,-141.751"/>
</g>
<!-- Node3 -->
<g id="node3" class="node"><title>Node3</title>
<polygon fill="white" stroke="#bfbfbf" points="0,-56.5 0,-75.5 46,-75.5 46,-56.5 0,-56.5"/>
<text text-anchor="middle" x="23" y="-63.5" font-family="Helvetica,sans-Serif" font-size="10.00">cstdint</text>
</g>
<!-- Node2&#45;&gt;Node3 -->
<g id="edge2" class="edge"><title>Node2&#45;&gt;Node3</title>
<path fill="none" stroke="midnightblue" d="M116.166,-112.324C98.2841,-103.625 70.5249,-90.1202 49.9544,-80.113"/>
<polygon fill="midnightblue" stroke="midnightblue" points="51.3133,-76.8819 40.7898,-75.6545 48.251,-83.1765 51.3133,-76.8819"/>
</g>
<!-- Node4 -->
<g id="node4" class="node"><title>Node4</title>
<polygon fill="white" stroke="#bfbfbf" points="64.5,-56.5 64.5,-75.5 105.5,-75.5 105.5,-56.5 64.5,-56.5"/>
<text text-anchor="middle" x="85" y="-63.5" font-family="Helvetica,sans-Serif" font-size="10.00">string</text>
</g>
<!-- Node2&#45;&gt;Node4 -->
<g id="edge3" class="edge"><title>Node2&#45;&gt;Node4</title>
<path fill="none" stroke="midnightblue" d="M125.909,-112.083C118.845,-104.298 108.412,-92.8015 99.8511,-83.3665"/>
<polygon fill="midnightblue" stroke="midnightblue" points="102.253,-80.8047 92.9408,-75.7511 97.0688,-85.5087 102.253,-80.8047"/>
</g>
<!-- Node5 -->
<g id="node5" class="node"><title>Node5</title>
<g id="a_node5"><a xlink:href="pdal__util__export_8hpp.html" target="_top" xlink:title="pdal_util_export.hpp">
<polygon fill="white" stroke="black" points="116,-0.5 116,-19.5 220,-19.5 220,-0.5 116,-0.5"/>
<text text-anchor="middle" x="168" y="-7.5" font-family="Helvetica,sans-Serif" font-size="10.00">pdal_util_export.hpp</text>
</a>
</g>
</g>
<!-- Node2&#45;&gt;Node5 -->
<g id="edge4" class="edge"><title>Node2&#45;&gt;Node5</title>
<path fill="none" stroke="midnightblue" d="M136.477,-112.137C140.008,-99.5963 146.754,-75.9736 153,-56 155.768,-47.1467 159.005,-37.3722 161.761,-29.2013"/>
<polygon fill="midnightblue" stroke="midnightblue" points="165.122,-30.1902 165.028,-19.5958 158.494,-27.9359 165.122,-30.1902"/>
</g>
<!-- Node6 -->
<g id="node6" class="node"><title>Node6</title>
<g id="a_node6"><a xlink:href="Inserter_8hpp.html" target="_top" xlink:title="Inserter.hpp">
<polygon fill="white" stroke="black" points="256,-56.5 256,-75.5 324,-75.5 324,-56.5 256,-56.5"/>
<text text-anchor="middle" x="290" y="-63.5" font-family="Helvetica,sans-Serif" font-size="10.00">Inserter.hpp</text>
</a>
</g>
</g>
<!-- Node2&#45;&gt;Node6 -->
<g id="edge5" class="edge"><title>Node2&#45;&gt;Node6</title>
<path fill="none" stroke="midnightblue" d="M158.719,-112.444C184.848,-103.399 226.259,-89.064 255.576,-78.9158"/>
<polygon fill="midnightblue" stroke="midnightblue" points="257.092,-82.0951 265.397,-75.5164 254.802,-75.4801 257.092,-82.0951"/>
</g>
<!-- Node8 -->
<g id="node8" class="node"><title>Node8</title>
<g id="a_node8"><a xlink:href="Extractor_8hpp.html" target="_top" xlink:title="Extractor.hpp">
<polygon fill="white" stroke="black" points="162.5,-56.5 162.5,-75.5 237.5,-75.5 237.5,-56.5 162.5,-56.5"/>
<text text-anchor="middle" x="200" y="-63.5" font-family="Helvetica,sans-Serif" font-size="10.00">Extractor.hpp</text>
</a>
</g>
</g>
<!-- Node2&#45;&gt;Node8 -->
<g id="edge8" class="edge"><title>Node2&#45;&gt;Node8</title>
<path fill="none" stroke="midnightblue" d="M144.604,-112.324C154.456,-104.263 169.351,-92.0765 181.215,-82.3695"/>
<polygon fill="midnightblue" stroke="midnightblue" points="183.68,-84.8752 189.203,-75.8339 179.247,-79.4575 183.68,-84.8752"/>
</g>
<!-- Node6&#45;&gt;Node5 -->
<g id="edge7" class="edge"><title>Node6&#45;&gt;Node5</title>
<path fill="none" stroke="midnightblue" d="M270.669,-56.4435C250.68,-47.5961 219.257,-33.6875 196.436,-23.5865"/>
<polygon fill="midnightblue" stroke="midnightblue" points="197.802,-20.3635 187.241,-19.5164 194.968,-26.7645 197.802,-20.3635"/>
</g>
<!-- Node7 -->
<g id="node7" class="node"><title>Node7</title>
<g id="a_node7"><a xlink:href="portable__endian_8hpp.html" target="_top" xlink:title="portable_endian.hpp">
<polygon fill="white" stroke="black" points="238,-0.5 238,-19.5 342,-19.5 342,-0.5 238,-0.5"/>
<text text-anchor="middle" x="290" y="-7.5" font-family="Helvetica,sans-Serif" font-size="10.00">portable_endian.hpp</text>
</a>
</g>
</g>
<!-- Node6&#45;&gt;Node7 -->
<g id="edge6" class="edge"><title>Node6&#45;&gt;Node7</title>
<path fill="none" stroke="midnightblue" d="M290,-56.083C290,-49.0059 290,-38.8611 290,-29.9865"/>
<polygon fill="midnightblue" stroke="midnightblue" points="293.5,-29.751 290,-19.7511 286.5,-29.7511 293.5,-29.751"/>
</g>
<!-- Node8&#45;&gt;Node5 -->
<g id="edge9" class="edge"><title>Node8&#45;&gt;Node5</title>
<path fill="none" stroke="midnightblue" d="M194.716,-56.083C190.289,-48.6127 183.837,-37.7244 178.382,-28.5199"/>
<polygon fill="midnightblue" stroke="midnightblue" points="181.295,-26.5697 173.186,-19.7511 175.273,-30.1383 181.295,-26.5697"/>
</g>
<!-- Node8&#45;&gt;Node7 -->
<g id="edge10" class="edge"><title>Node8&#45;&gt;Node7</title>
<path fill="none" stroke="midnightblue" d="M214.46,-56.324C228.5,-47.9002 250.048,-34.9709 266.543,-25.0741"/>
<polygon fill="midnightblue" stroke="midnightblue" points="268.802,-27.8007 275.576,-19.6545 265.2,-21.7983 268.802,-27.8007"/>
</g>
</g>
</svg>
