<?xml version="1.0" encoding="UTF-8" standalone="no"?>
<!DOCTYPE svg PUBLIC "-//W3C//DTD SVG 1.1//EN"
 "http://www.w3.org/Graphics/SVG/1.1/DTD/svg11.dtd">
<!-- Generated by graphviz version 2.38.0 (20140413.2041)
 -->
<!-- Title: checkDimension Pages: 1 -->
<svg width="614pt" height="154pt"
 viewBox="0.00 0.00 614.00 153.50" xmlns="http://www.w3.org/2000/svg" xmlns:xlink="http://www.w3.org/1999/xlink">
<g id="graph0" class="graph" transform="scale(1 1) rotate(0) translate(4 149.5)">
<title>checkDimension</title>
<polygon fill="white" stroke="none" points="-4,4 -4,-149.5 610,-149.5 610,4 -4,4"/>
<!-- Node1 -->
<g id="node1" class="node"><title>Node1</title>
<polygon fill="#bfbfbf" stroke="black" points="0,-57.5 0,-76.5 89,-76.5 89,-57.5 0,-57.5"/>
<text text-anchor="middle" x="44.5" y="-64.5" font-family="Helvetica,sans-Serif" font-size="10.00">checkDimension</text>
</g>
<!-- Node2 -->
<g id="node2" class="node"><title>Node2</title>
<g id="a_node2"><a xlink:href="classpdal_1_1PointView.html#a4c594a6d2a469e594988194ccf125a15" target="_top" xlink:title="pdal::PointView::getFieldAs">
<polygon fill="white" stroke="black" points="125,-57.5 125,-76.5 262,-76.5 262,-57.5 125,-57.5"/>
<text text-anchor="middle" x="193.5" y="-64.5" font-family="Helvetica,sans-Serif" font-size="10.00">pdal::PointView::getFieldAs</text>
</a>
</g>
</g>
<!-- Node1&#45;&gt;Node2 -->
<g id="edge1" class="edge"><title>Node1&#45;&gt;Node2</title>
<path fill="none" stroke="midnightblue" d="M89.2068,-67C97.2971,-67 105.967,-67 114.718,-67"/>
<polygon fill="midnightblue" stroke="midnightblue" points="114.999,-70.5001 124.999,-67 114.999,-63.5001 114.999,-70.5001"/>
</g>
<!-- Node3 -->
<g id="node3" class="node"><title>Node3</title>
<g id="a_node3"><a xlink:href="classpdal_1_1Dimension_1_1Detail.html#adf5961976b7fce3d90a0dddd50519a7c" target="_top" xlink:title="pdal::Dimension::Detail\l::type">
<polygon fill="white" stroke="black" points="326.5,-115 326.5,-145 445.5,-145 445.5,-115 326.5,-115"/>
<text text-anchor="start" x="334.5" y="-133" font-family="Helvetica,sans-Serif" font-size="10.00">pdal::Dimension::Detail</text>
<text text-anchor="middle" x="386" y="-122" font-family="Helvetica,sans-Serif" font-size="10.00">::type</text>
</a>
</g>
</g>
<!-- Node2&#45;&gt;Node3 -->
<g id="edge2" class="edge"><title>Node2&#45;&gt;Node3</title>
<path fill="none" stroke="midnightblue" d="M219.002,-76.5626C239.865,-84.568 270.708,-96.0814 298,-105 305.352,-107.403 313.093,-109.805 320.802,-112.12"/>
<polygon fill="midnightblue" stroke="midnightblue" points="319.935,-115.513 330.517,-114.997 321.923,-108.801 319.935,-115.513"/>
</g>
<!-- Node4 -->
<g id="node4" class="node"><title>Node4</title>
<g id="a_node4"><a xlink:href="namespacepdal_1_1Utils.html#a33d614ac71aa03aaa5c10a242c4d14ac" target="_top" xlink:title="pdal::Utils::numericCast">
<polygon fill="white" stroke="black" points="325,-76.5 325,-95.5 447,-95.5 447,-76.5 325,-76.5"/>
<text text-anchor="middle" x="386" y="-83.5" font-family="Helvetica,sans-Serif" font-size="10.00">pdal::Utils::numericCast</text>
</a>
</g>
</g>
<!-- Node2&#45;&gt;Node4 -->
<g id="edge3" class="edge"><title>Node2&#45;&gt;Node4</title>
<path fill="none" stroke="midnightblue" d="M262.2,-73.7522C279.275,-75.4552 297.642,-77.2871 314.835,-79.002"/>
<polygon fill="midnightblue" stroke="midnightblue" points="314.506,-82.4864 324.804,-79.9962 315.201,-75.521 314.506,-82.4864"/>
</g>
<!-- Node6 -->
<g id="node6" class="node"><title>Node6</title>
<g id="a_node6"><a xlink:href="namespacepdal_1_1Dimension.html#af3176b0b7e6b4be000317846cf7c2718" target="_top" xlink:title="pdal::Dimension::name">
<polygon fill="white" stroke="black" points="327.5,-38.5 327.5,-57.5 444.5,-57.5 444.5,-38.5 327.5,-38.5"/>
<text text-anchor="middle" x="386" y="-45.5" font-family="Helvetica,sans-Serif" font-size="10.00">pdal::Dimension::name</text>
</a>
</g>
</g>
<!-- Node2&#45;&gt;Node6 -->
<g id="edge5" class="edge"><title>Node2&#45;&gt;Node6</title>
<path fill="none" stroke="midnightblue" d="M262.2,-60.2478C279.99,-58.4735 299.183,-56.5592 316.99,-54.7832"/>
<polygon fill="midnightblue" stroke="midnightblue" points="317.689,-58.2309 327.292,-53.7556 316.994,-51.2654 317.689,-58.2309"/>
</g>
<!-- Node7 -->
<g id="node7" class="node"><title>Node7</title>
<g id="a_node7"><a xlink:href="namespacepdal_1_1Dimension.html#acc41232ae1e707d6c928ffb9a56592d3" target="_top" xlink:title="pdal::Dimension::interpretationName">
<polygon fill="white" stroke="black" points="298,-0.5 298,-19.5 474,-19.5 474,-0.5 298,-0.5"/>
<text text-anchor="middle" x="386" y="-7.5" font-family="Helvetica,sans-Serif" font-size="10.00">pdal::Dimension::interpretationName</text>
</a>
</g>
</g>
<!-- Node2&#45;&gt;Node7 -->
<g id="edge6" class="edge"><title>Node2&#45;&gt;Node7</title>
<path fill="none" stroke="midnightblue" d="M217.626,-57.4732C238.404,-49.164 269.882,-37.1904 298,-29 306.829,-26.4281 316.253,-24.0256 325.518,-21.8526"/>
<polygon fill="midnightblue" stroke="midnightblue" points="326.499,-25.2189 335.473,-19.5876 324.946,-18.3934 326.499,-25.2189"/>
</g>
<!-- Node5 -->
<g id="node5" class="node"><title>Node5</title>
<g id="a_node5"><a xlink:href="namespacepdal_1_1Utils.html#a06833597f1fc4287966cfa0867128e59" target="_top" xlink:title="pdal::Utils::sround">
<polygon fill="white" stroke="black" points="510,-76.5 510,-95.5 606,-95.5 606,-76.5 510,-76.5"/>
<text text-anchor="middle" x="558" y="-83.5" font-family="Helvetica,sans-Serif" font-size="10.00">pdal::Utils::sround</text>
</a>
</g>
</g>
<!-- Node4&#45;&gt;Node5 -->
<g id="edge4" class="edge"><title>Node4&#45;&gt;Node5</title>
<path fill="none" stroke="midnightblue" d="M447.414,-86C464.406,-86 482.832,-86 499.641,-86"/>
<polygon fill="midnightblue" stroke="midnightblue" points="499.87,-89.5001 509.87,-86 499.869,-82.5001 499.87,-89.5001"/>
</g>
</g>
</svg>
