<?xml version="1.0" encoding="UTF-8" standalone="no"?>
<!DOCTYPE svg PUBLIC "-//W3C//DTD SVG 1.1//EN"
 "http://www.w3.org/Graphics/SVG/1.1/DTD/svg11.dtd">
<!-- Generated by graphviz version 2.38.0 (20140413.2041)
 -->
<!-- Title: TEST Pages: 1 -->
<svg width="336pt" height="78pt"
 viewBox="0.00 0.00 336.00 77.50" xmlns="http://www.w3.org/2000/svg" xmlns:xlink="http://www.w3.org/1999/xlink">
<g id="graph0" class="graph" transform="scale(1 1) rotate(0) translate(4 73.5)">
<title>TEST</title>
<polygon fill="white" stroke="none" points="-4,4 -4,-73.5 332,-73.5 332,4 -4,4"/>
<!-- Node1 -->
<g id="node1" class="node"><title>Node1</title>
<polygon fill="#bfbfbf" stroke="black" points="0,-22.5 0,-41.5 42,-41.5 42,-22.5 0,-22.5"/>
<text text-anchor="middle" x="21" y="-29.5" font-family="Helvetica,sans-Serif" font-size="10.00">TEST</text>
</g>
<!-- Node2 -->
<g id="node2" class="node"><title>Node2</title>
<g id="a_node2"><a xlink:href="classpdal_1_1MetadataNode.html#ab86b0ccbf27f9eee29cbb5252e9431b7" target="_top" xlink:title="pdal::MetadataNode\l::children">
<polygon fill="white" stroke="black" points="78,-39 78,-69 182,-69 182,-39 78,-39"/>
<text text-anchor="start" x="86" y="-57" font-family="Helvetica,sans-Serif" font-size="10.00">pdal::MetadataNode</text>
<text text-anchor="middle" x="130" y="-46" font-family="Helvetica,sans-Serif" font-size="10.00">::children</text>
</a>
</g>
</g>
<!-- Node1&#45;&gt;Node2 -->
<g id="edge1" class="edge"><title>Node1&#45;&gt;Node2</title>
<path fill="none" stroke="midnightblue" d="M42.1259,-36.138C49.5947,-37.6737 58.5084,-39.5064 67.737,-41.4039"/>
<polygon fill="midnightblue" stroke="midnightblue" points="67.321,-44.8915 77.821,-43.4772 68.7308,-38.0349 67.321,-44.8915"/>
</g>
<!-- Node3 -->
<g id="node3" class="node"><title>Node3</title>
<g id="a_node3"><a xlink:href="classSupport.html#a9bbdf6f202f4f2e45e7a53007dd0a238" target="_top" xlink:title="Support::datapath">
<polygon fill="white" stroke="black" points="83,-0.5 83,-19.5 177,-19.5 177,-0.5 83,-0.5"/>
<text text-anchor="middle" x="130" y="-7.5" font-family="Helvetica,sans-Serif" font-size="10.00">Support::datapath</text>
</a>
</g>
</g>
<!-- Node1&#45;&gt;Node3 -->
<g id="edge2" class="edge"><title>Node1&#45;&gt;Node3</title>
<path fill="none" stroke="midnightblue" d="M42.1259,-27.862C50.9322,-26.0513 61.7472,-23.8277 72.7187,-21.5719"/>
<polygon fill="midnightblue" stroke="midnightblue" points="73.6951,-24.9444 82.7853,-19.5021 72.2853,-18.0878 73.6951,-24.9444"/>
</g>
<!-- Node4 -->
<g id="node4" class="node"><title>Node4</title>
<g id="a_node4"><a xlink:href="namespaceTestConfig.html#a0e622015f0610c2cfcbb3739b972d877" target="_top" xlink:title="TestConfig::dataPath">
<polygon fill="white" stroke="black" points="218,-0.5 218,-19.5 328,-19.5 328,-0.5 218,-0.5"/>
<text text-anchor="middle" x="273" y="-7.5" font-family="Helvetica,sans-Serif" font-size="10.00">TestConfig::dataPath</text>
</a>
</g>
</g>
<!-- Node3&#45;&gt;Node4 -->
<g id="edge3" class="edge"><title>Node3&#45;&gt;Node4</title>
<path fill="none" stroke="midnightblue" d="M177.169,-10C186.927,-10 197.394,-10 207.684,-10"/>
<polygon fill="midnightblue" stroke="midnightblue" points="207.883,-13.5001 217.883,-10 207.883,-6.5001 207.883,-13.5001"/>
</g>
</g>
</svg>
