<?xml version="1.0" encoding="UTF-8" standalone="no"?>
<!DOCTYPE svg PUBLIC "-//W3C//DTD SVG 1.1//EN"
 "http://www.w3.org/Graphics/SVG/1.1/DTD/svg11.dtd">
<!-- Generated by graphviz version 2.38.0 (20140413.2041)
 -->
<!-- Title: Java_io_pdal_Pipeline_getPointViews Pages: 1 -->
<svg width="1462pt" height="39pt"
 viewBox="0.00 0.00 1462.00 39.00" xmlns="http://www.w3.org/2000/svg" xmlns:xlink="http://www.w3.org/1999/xlink">
<g id="graph0" class="graph" transform="scale(1 1) rotate(0) translate(4 35)">
<title>Java_io_pdal_Pipeline_getPointViews</title>
<polygon fill="white" stroke="none" points="-4,4 -4,-35 1458,-35 1458,4 -4,4"/>
<!-- Node1 -->
<g id="node1" class="node"><title>Node1</title>
<polygon fill="#bfbfbf" stroke="black" points="0,-0.5 0,-30.5 113,-30.5 113,-0.5 0,-0.5"/>
<text text-anchor="start" x="8" y="-18.5" font-family="Helvetica,sans-Serif" font-size="10.00">Java_io_pdal_Pipeline</text>
<text text-anchor="middle" x="56.5" y="-7.5" font-family="Helvetica,sans-Serif" font-size="10.00">_getPointViews</text>
</g>
<!-- Node2 -->
<g id="node2" class="node"><title>Node2</title>
<g id="a_node2"><a xlink:href="io__pdal__Pipeline_8cpp.html#a5f3246e321662c6fef50671c277ee500" target="_top" xlink:title="Java_io_pdal_Pipeline\l_getLog">
<polygon fill="white" stroke="black" points="149,-0.5 149,-30.5 262,-30.5 262,-0.5 149,-0.5"/>
<text text-anchor="start" x="157" y="-18.5" font-family="Helvetica,sans-Serif" font-size="10.00">Java_io_pdal_Pipeline</text>
<text text-anchor="middle" x="205.5" y="-7.5" font-family="Helvetica,sans-Serif" font-size="10.00">_getLog</text>
</a>
</g>
</g>
<!-- Node1&#45;&gt;Node2 -->
<g id="edge1" class="edge"><title>Node1&#45;&gt;Node2</title>
<path fill="none" stroke="midnightblue" d="M123.078,-15.5C131.681,-15.5 140.43,-15.5 148.847,-15.5"/>
<polygon fill="midnightblue" stroke="midnightblue" points="123.074,-12.0001 113.074,-15.5 123.074,-19.0001 123.074,-12.0001"/>
</g>
<!-- Node3 -->
<g id="node3" class="node"><title>Node3</title>
<g id="a_node3"><a xlink:href="io__pdal__Pipeline_8cpp.html#a36f7aae14c7ecd91b257653ad04c1f04" target="_top" xlink:title="Java_io_pdal_Pipeline\l_getLogLevel">
<polygon fill="white" stroke="black" points="298,-0.5 298,-30.5 411,-30.5 411,-0.5 298,-0.5"/>
<text text-anchor="start" x="306" y="-18.5" font-family="Helvetica,sans-Serif" font-size="10.00">Java_io_pdal_Pipeline</text>
<text text-anchor="middle" x="354.5" y="-7.5" font-family="Helvetica,sans-Serif" font-size="10.00">_getLogLevel</text>
</a>
</g>
</g>
<!-- Node2&#45;&gt;Node3 -->
<g id="edge2" class="edge"><title>Node2&#45;&gt;Node3</title>
<path fill="none" stroke="midnightblue" d="M272.078,-15.5C280.681,-15.5 289.43,-15.5 297.847,-15.5"/>
<polygon fill="midnightblue" stroke="midnightblue" points="272.074,-12.0001 262.074,-15.5 272.074,-19.0001 272.074,-12.0001"/>
</g>
<!-- Node4 -->
<g id="node4" class="node"><title>Node4</title>
<g id="a_node4"><a xlink:href="io__pdal__Pipeline_8cpp.html#a082bb922d20e2a275aa41432e8e4b125" target="_top" xlink:title="Java_io_pdal_Pipeline\l_setLogLevel">
<polygon fill="white" stroke="black" points="447,-0.5 447,-30.5 560,-30.5 560,-0.5 447,-0.5"/>
<text text-anchor="start" x="455" y="-18.5" font-family="Helvetica,sans-Serif" font-size="10.00">Java_io_pdal_Pipeline</text>
<text text-anchor="middle" x="503.5" y="-7.5" font-family="Helvetica,sans-Serif" font-size="10.00">_setLogLevel</text>
</a>
</g>
</g>
<!-- Node3&#45;&gt;Node4 -->
<g id="edge3" class="edge"><title>Node3&#45;&gt;Node4</title>
<path fill="none" stroke="midnightblue" d="M421.078,-15.5C429.681,-15.5 438.43,-15.5 446.847,-15.5"/>
<polygon fill="midnightblue" stroke="midnightblue" points="421.074,-12.0001 411.074,-15.5 421.074,-19.0001 421.074,-12.0001"/>
</g>
<!-- Node5 -->
<g id="node5" class="node"><title>Node5</title>
<g id="a_node5"><a xlink:href="io__pdal__Pipeline_8cpp.html#a8a69b7f4a488cb8f6e3daf06565454a9" target="_top" xlink:title="Java_io_pdal_Pipeline\l_validate">
<polygon fill="white" stroke="black" points="596,-0.5 596,-30.5 709,-30.5 709,-0.5 596,-0.5"/>
<text text-anchor="start" x="604" y="-18.5" font-family="Helvetica,sans-Serif" font-size="10.00">Java_io_pdal_Pipeline</text>
<text text-anchor="middle" x="652.5" y="-7.5" font-family="Helvetica,sans-Serif" font-size="10.00">_validate</text>
</a>
</g>
</g>
<!-- Node4&#45;&gt;Node5 -->
<g id="edge4" class="edge"><title>Node4&#45;&gt;Node5</title>
<path fill="none" stroke="midnightblue" d="M570.078,-15.5C578.681,-15.5 587.43,-15.5 595.847,-15.5"/>
<polygon fill="midnightblue" stroke="midnightblue" points="570.074,-12.0001 560.074,-15.5 570.074,-19.0001 570.074,-12.0001"/>
</g>
<!-- Node6 -->
<g id="node6" class="node"><title>Node6</title>
<g id="a_node6"><a xlink:href="io__pdal__Pipeline_8cpp.html#ae6caeca72780b5e3ad792cd5c00df87c" target="_top" xlink:title="Java_io_pdal_Pipeline\l_getSchema">
<polygon fill="white" stroke="black" points="745,-0.5 745,-30.5 858,-30.5 858,-0.5 745,-0.5"/>
<text text-anchor="start" x="753" y="-18.5" font-family="Helvetica,sans-Serif" font-size="10.00">Java_io_pdal_Pipeline</text>
<text text-anchor="middle" x="801.5" y="-7.5" font-family="Helvetica,sans-Serif" font-size="10.00">_getSchema</text>
</a>
</g>
</g>
<!-- Node5&#45;&gt;Node6 -->
<g id="edge5" class="edge"><title>Node5&#45;&gt;Node6</title>
<path fill="none" stroke="midnightblue" d="M719.078,-15.5C727.681,-15.5 736.43,-15.5 744.847,-15.5"/>
<polygon fill="midnightblue" stroke="midnightblue" points="719.074,-12.0001 709.074,-15.5 719.074,-19.0001 719.074,-12.0001"/>
</g>
<!-- Node7 -->
<g id="node7" class="node"><title>Node7</title>
<g id="a_node7"><a xlink:href="io__pdal__Pipeline_8cpp.html#a66a0073f40bd33fe176e2e8bacc57d7d" target="_top" xlink:title="Java_io_pdal_Pipeline\l_getMetadata">
<polygon fill="white" stroke="black" points="894,-0.5 894,-30.5 1007,-30.5 1007,-0.5 894,-0.5"/>
<text text-anchor="start" x="902" y="-18.5" font-family="Helvetica,sans-Serif" font-size="10.00">Java_io_pdal_Pipeline</text>
<text text-anchor="middle" x="950.5" y="-7.5" font-family="Helvetica,sans-Serif" font-size="10.00">_getMetadata</text>
</a>
</g>
</g>
<!-- Node6&#45;&gt;Node7 -->
<g id="edge6" class="edge"><title>Node6&#45;&gt;Node7</title>
<path fill="none" stroke="midnightblue" d="M868.078,-15.5C876.681,-15.5 885.43,-15.5 893.847,-15.5"/>
<polygon fill="midnightblue" stroke="midnightblue" points="868.074,-12.0001 858.074,-15.5 868.074,-19.0001 868.074,-12.0001"/>
</g>
<!-- Node8 -->
<g id="node8" class="node"><title>Node8</title>
<g id="a_node8"><a xlink:href="io__pdal__Pipeline_8cpp.html#a12a870b2859adaaa0556bf0a18f4d13c" target="_top" xlink:title="Java_io_pdal_Pipeline\l_execute">
<polygon fill="white" stroke="black" points="1043,-0.5 1043,-30.5 1156,-30.5 1156,-0.5 1043,-0.5"/>
<text text-anchor="start" x="1051" y="-18.5" font-family="Helvetica,sans-Serif" font-size="10.00">Java_io_pdal_Pipeline</text>
<text text-anchor="middle" x="1099.5" y="-7.5" font-family="Helvetica,sans-Serif" font-size="10.00">_execute</text>
</a>
</g>
</g>
<!-- Node7&#45;&gt;Node8 -->
<g id="edge7" class="edge"><title>Node7&#45;&gt;Node8</title>
<path fill="none" stroke="midnightblue" d="M1017.08,-15.5C1025.68,-15.5 1034.43,-15.5 1042.85,-15.5"/>
<polygon fill="midnightblue" stroke="midnightblue" points="1017.07,-12.0001 1007.07,-15.5 1017.07,-19.0001 1017.07,-12.0001"/>
</g>
<!-- Node9 -->
<g id="node9" class="node"><title>Node9</title>
<g id="a_node9"><a xlink:href="io__pdal__Pipeline_8cpp.html#a8238e4e6616b338d76b4ed68e533305c" target="_top" xlink:title="Java_io_pdal_Pipeline\l_dispose">
<polygon fill="white" stroke="black" points="1192,-0.5 1192,-30.5 1305,-30.5 1305,-0.5 1192,-0.5"/>
<text text-anchor="start" x="1200" y="-18.5" font-family="Helvetica,sans-Serif" font-size="10.00">Java_io_pdal_Pipeline</text>
<text text-anchor="middle" x="1248.5" y="-7.5" font-family="Helvetica,sans-Serif" font-size="10.00">_dispose</text>
</a>
</g>
</g>
<!-- Node8&#45;&gt;Node9 -->
<g id="edge8" class="edge"><title>Node8&#45;&gt;Node9</title>
<path fill="none" stroke="midnightblue" d="M1166.08,-15.5C1174.68,-15.5 1183.43,-15.5 1191.85,-15.5"/>
<polygon fill="midnightblue" stroke="midnightblue" points="1166.07,-12.0001 1156.07,-15.5 1166.07,-19.0001 1166.07,-12.0001"/>
</g>
<!-- Node10 -->
<g id="node10" class="node"><title>Node10</title>
<g id="a_node10"><a xlink:href="io__pdal__Pipeline_8cpp.html#ad7b0833a8c4a23a66bf49021695854ee" target="_top" xlink:title="Java_io_pdal_Pipeline\l_initialise">
<polygon fill="white" stroke="black" points="1341,-0.5 1341,-30.5 1454,-30.5 1454,-0.5 1341,-0.5"/>
<text text-anchor="start" x="1349" y="-18.5" font-family="Helvetica,sans-Serif" font-size="10.00">Java_io_pdal_Pipeline</text>
<text text-anchor="middle" x="1397.5" y="-7.5" font-family="Helvetica,sans-Serif" font-size="10.00">_initialise</text>
</a>
</g>
</g>
<!-- Node9&#45;&gt;Node10 -->
<g id="edge9" class="edge"><title>Node9&#45;&gt;Node10</title>
<path fill="none" stroke="midnightblue" d="M1315.08,-15.5C1323.68,-15.5 1332.43,-15.5 1340.85,-15.5"/>
<polygon fill="midnightblue" stroke="midnightblue" points="1315.07,-12.0001 1305.07,-15.5 1315.07,-19.0001 1315.07,-12.0001"/>
</g>
</g>
</svg>
