<?xml version="1.0" encoding="UTF-8" standalone="no"?>
<!DOCTYPE svg PUBLIC "-//W3C//DTD SVG 1.1//EN"
 "http://www.w3.org/Graphics/SVG/1.1/DTD/svg11.dtd">
<!-- Generated by graphviz version 2.38.0 (20140413.2041)
 -->
<!-- Title: Java_io_pdal_Pipeline_getLogLevel Pages: 1 -->
<svg width="727pt" height="212pt"
 viewBox="0.00 0.00 727.00 211.50" xmlns="http://www.w3.org/2000/svg" xmlns:xlink="http://www.w3.org/1999/xlink">
<g id="graph0" class="graph" transform="scale(1 1) rotate(0) translate(4 207.5)">
<title>Java_io_pdal_Pipeline_getLogLevel</title>
<polygon fill="white" stroke="none" points="-4,4 -4,-207.5 723,-207.5 723,4 -4,4"/>
<!-- Node1 -->
<g id="node1" class="node"><title>Node1</title>
<polygon fill="#bfbfbf" stroke="black" points="0,-148 0,-178 113,-178 113,-148 0,-148"/>
<text text-anchor="start" x="8" y="-166" font-family="Helvetica,sans-Serif" font-size="10.00">Java_io_pdal_Pipeline</text>
<text text-anchor="middle" x="56.5" y="-155" font-family="Helvetica,sans-Serif" font-size="10.00">_getLogLevel</text>
</g>
<!-- Node2 -->
<g id="node2" class="node"><title>Node2</title>
<g id="a_node2"><a xlink:href="classlibpdaljava_1_1Pipeline.html#a28b33c156fd9f1d17a9e1a52191920a7" target="_top" xlink:title="libpdaljava::Pipeline\l::getLogLevel">
<polygon fill="white" stroke="black" points="154,-173 154,-203 257,-203 257,-173 154,-173"/>
<text text-anchor="start" x="162" y="-191" font-family="Helvetica,sans-Serif" font-size="10.00">libpdaljava::Pipeline</text>
<text text-anchor="middle" x="205.5" y="-180" font-family="Helvetica,sans-Serif" font-size="10.00">::getLogLevel</text>
</a>
</g>
</g>
<!-- Node1&#45;&gt;Node2 -->
<g id="edge1" class="edge"><title>Node1&#45;&gt;Node2</title>
<path fill="none" stroke="midnightblue" d="M113.074,-172.451C123.075,-174.152 133.547,-175.933 143.687,-177.658"/>
<polygon fill="midnightblue" stroke="midnightblue" points="143.241,-181.132 153.686,-179.358 144.414,-174.231 143.241,-181.132"/>
</g>
<!-- Node4 -->
<g id="node4" class="node"><title>Node4</title>
<g id="a_node4"><a xlink:href="io__pdal__Pipeline_8cpp.html#a5f3246e321662c6fef50671c277ee500" target="_top" xlink:title="Java_io_pdal_Pipeline\l_getLog">
<polygon fill="white" stroke="black" points="149,-124 149,-154 262,-154 262,-124 149,-124"/>
<text text-anchor="start" x="157" y="-142" font-family="Helvetica,sans-Serif" font-size="10.00">Java_io_pdal_Pipeline</text>
<text text-anchor="middle" x="205.5" y="-131" font-family="Helvetica,sans-Serif" font-size="10.00">_getLog</text>
</a>
</g>
</g>
<!-- Node1&#45;&gt;Node4 -->
<g id="edge3" class="edge"><title>Node1&#45;&gt;Node4</title>
<path fill="none" stroke="midnightblue" d="M113.074,-153.927C121.489,-152.553 130.238,-151.124 138.842,-149.72"/>
<polygon fill="midnightblue" stroke="midnightblue" points="139.542,-153.152 148.847,-148.086 138.414,-146.243 139.542,-153.152"/>
</g>
<!-- Node3 -->
<g id="node3" class="node"><title>Node3</title>
<g id="a_node3"><a xlink:href="classpdal_1_1PipelineExecutor.html#a898cfd90e8724d7face92ec6e58ec010" target="_top" xlink:title="pdal::PipelineExecutor\l::getLogLevel">
<polygon fill="white" stroke="black" points="298,-173 298,-203 412,-203 412,-173 298,-173"/>
<text text-anchor="start" x="306" y="-191" font-family="Helvetica,sans-Serif" font-size="10.00">pdal::PipelineExecutor</text>
<text text-anchor="middle" x="355" y="-180" font-family="Helvetica,sans-Serif" font-size="10.00">::getLogLevel</text>
</a>
</g>
</g>
<!-- Node2&#45;&gt;Node3 -->
<g id="edge2" class="edge"><title>Node2&#45;&gt;Node3</title>
<path fill="none" stroke="midnightblue" d="M257.261,-188C267.074,-188 277.489,-188 287.712,-188"/>
<polygon fill="midnightblue" stroke="midnightblue" points="287.841,-191.5 297.84,-188 287.84,-184.5 287.841,-191.5"/>
</g>
<!-- Node5 -->
<g id="node5" class="node"><title>Node5</title>
<g id="a_node5"><a xlink:href="classlibpdaljava_1_1Pipeline.html#af10c3641b7cbb4fea40b0f453fb45a29" target="_top" xlink:title="libpdaljava::Pipeline\l::getLog">
<polygon fill="white" stroke="black" points="303.5,-124 303.5,-154 406.5,-154 406.5,-124 303.5,-124"/>
<text text-anchor="start" x="311.5" y="-142" font-family="Helvetica,sans-Serif" font-size="10.00">libpdaljava::Pipeline</text>
<text text-anchor="middle" x="355" y="-131" font-family="Helvetica,sans-Serif" font-size="10.00">::getLog</text>
</a>
</g>
</g>
<!-- Node4&#45;&gt;Node5 -->
<g id="edge4" class="edge"><title>Node4&#45;&gt;Node5</title>
<path fill="none" stroke="midnightblue" d="M262.263,-139C272.42,-139 283.062,-139 293.352,-139"/>
<polygon fill="midnightblue" stroke="midnightblue" points="293.494,-142.5 303.494,-139 293.494,-135.5 293.494,-142.5"/>
</g>
<!-- Node7 -->
<g id="node7" class="node"><title>Node7</title>
<g id="a_node7"><a xlink:href="io__pdal__Pipeline_8cpp.html#a6d1c246b35dfbc9b84fceb5f08761a6b" target="_top" xlink:title="Java_io_pdal_Pipeline\l_getPointViews">
<polygon fill="white" stroke="black" points="298.5,-75 298.5,-105 411.5,-105 411.5,-75 298.5,-75"/>
<text text-anchor="start" x="306.5" y="-93" font-family="Helvetica,sans-Serif" font-size="10.00">Java_io_pdal_Pipeline</text>
<text text-anchor="middle" x="355" y="-82" font-family="Helvetica,sans-Serif" font-size="10.00">_getPointViews</text>
</a>
</g>
</g>
<!-- Node4&#45;&gt;Node7 -->
<g id="edge6" class="edge"><title>Node4&#45;&gt;Node7</title>
<path fill="none" stroke="midnightblue" d="M251.958,-123.899C266.889,-118.938 283.644,-113.373 299.193,-108.207"/>
<polygon fill="midnightblue" stroke="midnightblue" points="300.305,-111.526 308.692,-105.052 298.098,-104.883 300.305,-111.526"/>
</g>
<!-- Node6 -->
<g id="node6" class="node"><title>Node6</title>
<g id="a_node6"><a xlink:href="namespacepdal_1_1pclsupport.html#a039ae3953bfd61cab329479309c3c8ed" target="_top" xlink:title="pdal::pclsupport::setLog\lLevel">
<polygon fill="white" stroke="black" points="448,-124 448,-154 569,-154 569,-124 448,-124"/>
<text text-anchor="start" x="456" y="-142" font-family="Helvetica,sans-Serif" font-size="10.00">pdal::pclsupport::setLog</text>
<text text-anchor="middle" x="508.5" y="-131" font-family="Helvetica,sans-Serif" font-size="10.00">Level</text>
</a>
</g>
</g>
<!-- Node5&#45;&gt;Node6 -->
<g id="edge5" class="edge"><title>Node5&#45;&gt;Node6</title>
<path fill="none" stroke="midnightblue" d="M406.869,-139C416.733,-139 427.23,-139 437.581,-139"/>
<polygon fill="midnightblue" stroke="midnightblue" points="437.855,-142.5 447.855,-139 437.855,-135.5 437.855,-142.5"/>
</g>
<!-- Node8 -->
<g id="node8" class="node"><title>Node8</title>
<g id="a_node8"><a xlink:href="classlibpdaljava_1_1Pipeline.html#a4ac34d34f578b53893f21097860deaa6" target="_top" xlink:title="libpdaljava::Pipeline\l::getPointViews">
<polygon fill="white" stroke="black" points="457,-75 457,-105 560,-105 560,-75 457,-75"/>
<text text-anchor="start" x="465" y="-93" font-family="Helvetica,sans-Serif" font-size="10.00">libpdaljava::Pipeline</text>
<text text-anchor="middle" x="508.5" y="-82" font-family="Helvetica,sans-Serif" font-size="10.00">::getPointViews</text>
</a>
</g>
</g>
<!-- Node7&#45;&gt;Node8 -->
<g id="edge7" class="edge"><title>Node7&#45;&gt;Node8</title>
<path fill="none" stroke="midnightblue" d="M411.553,-90C423.048,-90 435.214,-90 446.88,-90"/>
<polygon fill="midnightblue" stroke="midnightblue" points="446.974,-93.5001 456.974,-90 446.974,-86.5001 446.974,-93.5001"/>
</g>
<!-- Node12 -->
<g id="node12" class="node"><title>Node12</title>
<g id="a_node12"><a xlink:href="Accessors_8hpp.html#a0096ef2a758f9041ca6424e09c2df937" target="_top" xlink:title="setHandle">
<polygon fill="white" stroke="black" points="478,-24.5 478,-43.5 539,-43.5 539,-24.5 478,-24.5"/>
<text text-anchor="middle" x="508.5" y="-31.5" font-family="Helvetica,sans-Serif" font-size="10.00">setHandle</text>
</a>
</g>
</g>
<!-- Node7&#45;&gt;Node12 -->
<g id="edge11" class="edge"><title>Node7&#45;&gt;Node12</title>
<path fill="none" stroke="midnightblue" d="M396.599,-74.993C420.115,-66.3007 449.438,-55.4618 472.025,-47.1128"/>
<polygon fill="midnightblue" stroke="midnightblue" points="473.403,-50.335 481.569,-43.585 470.976,-43.7692 473.403,-50.335"/>
</g>
<!-- Node9 -->
<g id="node9" class="node"><title>Node9</title>
<g id="a_node9"><a xlink:href="classpdal_1_1PipelineExecutor.html#a2b06756e02a52c7391de330de01520ce" target="_top" xlink:title="pdal::PipelineExecutor\l::executed">
<polygon fill="white" stroke="black" points="605,-137 605,-167 719,-167 719,-137 605,-137"/>
<text text-anchor="start" x="613" y="-155" font-family="Helvetica,sans-Serif" font-size="10.00">pdal::PipelineExecutor</text>
<text text-anchor="middle" x="662" y="-144" font-family="Helvetica,sans-Serif" font-size="10.00">::executed</text>
</a>
</g>
</g>
<!-- Node8&#45;&gt;Node9 -->
<g id="edge8" class="edge"><title>Node8&#45;&gt;Node9</title>
<path fill="none" stroke="midnightblue" d="M546.174,-105.008C566.77,-113.437 592.675,-124.038 614.664,-133.037"/>
<polygon fill="midnightblue" stroke="midnightblue" points="613.558,-136.367 624.139,-136.915 616.209,-129.888 613.558,-136.367"/>
</g>
<!-- Node10 -->
<g id="node10" class="node"><title>Node10</title>
<g id="a_node10"><a xlink:href="classpdal_1_1PipelineExecutor.html#a2d40af9872e5f672dccec303e87c6ddd" target="_top" xlink:title="pdal::PipelineExecutor\l::getManagerConst">
<polygon fill="white" stroke="black" points="605,-88 605,-118 719,-118 719,-88 605,-88"/>
<text text-anchor="start" x="613" y="-106" font-family="Helvetica,sans-Serif" font-size="10.00">pdal::PipelineExecutor</text>
<text text-anchor="middle" x="662" y="-95" font-family="Helvetica,sans-Serif" font-size="10.00">::getManagerConst</text>
</a>
</g>
</g>
<!-- Node8&#45;&gt;Node10 -->
<g id="edge9" class="edge"><title>Node8&#45;&gt;Node10</title>
<path fill="none" stroke="midnightblue" d="M560.369,-94.365C571.405,-95.312 583.235,-96.3271 594.765,-97.3165"/>
<polygon fill="midnightblue" stroke="midnightblue" points="594.531,-100.809 604.794,-98.177 595.13,-93.8348 594.531,-100.809"/>
</g>
<!-- Node11 -->
<g id="node11" class="node"><title>Node11</title>
<g id="a_node11"><a xlink:href="classpdal_1_1PipelineManager.html#a50cae2392ec1b66ae023083879020fbc" target="_top" xlink:title="pdal::PipelineManager\l::views">
<polygon fill="white" stroke="black" points="605.5,-39 605.5,-69 718.5,-69 718.5,-39 605.5,-39"/>
<text text-anchor="start" x="613.5" y="-57" font-family="Helvetica,sans-Serif" font-size="10.00">pdal::PipelineManager</text>
<text text-anchor="middle" x="662" y="-46" font-family="Helvetica,sans-Serif" font-size="10.00">::views</text>
</a>
</g>
</g>
<!-- Node8&#45;&gt;Node11 -->
<g id="edge10" class="edge"><title>Node8&#45;&gt;Node11</title>
<path fill="none" stroke="midnightblue" d="M560.369,-77.9124C571.651,-75.2314 583.762,-72.3536 595.535,-69.556"/>
<polygon fill="midnightblue" stroke="midnightblue" points="596.4,-72.9481 605.32,-67.231 594.781,-66.1377 596.4,-72.9481"/>
</g>
<!-- Node13 -->
<g id="node13" class="node"><title>Node13</title>
<g id="a_node13"><a xlink:href="Accessors_8hpp.html#abf11be145f9b6e8546356546c1f46d88" target="_top" xlink:title="getHandleField">
<polygon fill="white" stroke="black" points="621,-0.5 621,-19.5 703,-19.5 703,-0.5 621,-0.5"/>
<text text-anchor="middle" x="662" y="-7.5" font-family="Helvetica,sans-Serif" font-size="10.00">getHandleField</text>
</a>
</g>
</g>
<!-- Node12&#45;&gt;Node13 -->
<g id="edge12" class="edge"><title>Node12&#45;&gt;Node13</title>
<path fill="none" stroke="midnightblue" d="M539.07,-29.3156C559.49,-26.0808 587.148,-21.6993 610.961,-17.927"/>
<polygon fill="midnightblue" stroke="midnightblue" points="611.569,-21.3743 620.899,-16.3527 610.474,-14.4605 611.569,-21.3743"/>
</g>
</g>
</svg>
