<?xml version="1.0" encoding="UTF-8" standalone="no"?>
<!DOCTYPE svg PUBLIC "-//W3C//DTD SVG 1.1//EN"
 "http://www.w3.org/Graphics/SVG/1.1/DTD/svg11.dtd">
<!-- Generated by graphviz version 2.38.0 (20140413.2041)
 -->
<!-- Title: Java_io_pdal_Pipeline_validate Pages: 1 -->
<svg width="1279pt" height="681pt"
 viewBox="0.00 0.00 1279.00 680.50" xmlns="http://www.w3.org/2000/svg" xmlns:xlink="http://www.w3.org/1999/xlink">
<g id="graph0" class="graph" transform="scale(1 1) rotate(0) translate(4 676.5)">
<title>Java_io_pdal_Pipeline_validate</title>
<polygon fill="white" stroke="none" points="-4,4 -4,-676.5 1275,-676.5 1275,4 -4,4"/>
<!-- Node1 -->
<g id="node1" class="node"><title>Node1</title>
<polygon fill="#bfbfbf" stroke="black" points="0,-435 0,-465 113,-465 113,-435 0,-435"/>
<text text-anchor="start" x="8" y="-453" font-family="Helvetica,sans-Serif" font-size="10.00">Java_io_pdal_Pipeline</text>
<text text-anchor="middle" x="56.5" y="-442" font-family="Helvetica,sans-Serif" font-size="10.00">_validate</text>
</g>
<!-- Node2 -->
<g id="node2" class="node"><title>Node2</title>
<g id="a_node2"><a xlink:href="io__pdal__Pipeline_8cpp.html#a082bb922d20e2a275aa41432e8e4b125" target="_top" xlink:title="Java_io_pdal_Pipeline\l_setLogLevel">
<polygon fill="white" stroke="black" points="149,-480 149,-510 262,-510 262,-480 149,-480"/>
<text text-anchor="start" x="157" y="-498" font-family="Helvetica,sans-Serif" font-size="10.00">Java_io_pdal_Pipeline</text>
<text text-anchor="middle" x="205.5" y="-487" font-family="Helvetica,sans-Serif" font-size="10.00">_setLogLevel</text>
</a>
</g>
</g>
<!-- Node1&#45;&gt;Node2 -->
<g id="edge1" class="edge"><title>Node1&#45;&gt;Node2</title>
<path fill="none" stroke="midnightblue" d="M106.858,-465.11C119.287,-468.914 132.752,-473.036 145.598,-476.969"/>
<polygon fill="midnightblue" stroke="midnightblue" points="144.686,-480.35 155.272,-479.93 146.735,-473.656 144.686,-480.35"/>
</g>
<!-- Node20 -->
<g id="node20" class="node"><title>Node20</title>
<g id="a_node20"><a xlink:href="classlibpdaljava_1_1Pipeline.html#af37a973b3f38b4240f800abf12cd969a" target="_top" xlink:title="libpdaljava::Pipeline\l::validate">
<polygon fill="white" stroke="black" points="154,-411 154,-441 257,-441 257,-411 154,-411"/>
<text text-anchor="start" x="162" y="-429" font-family="Helvetica,sans-Serif" font-size="10.00">libpdaljava::Pipeline</text>
<text text-anchor="middle" x="205.5" y="-418" font-family="Helvetica,sans-Serif" font-size="10.00">::validate</text>
</a>
</g>
</g>
<!-- Node1&#45;&gt;Node20 -->
<g id="edge19" class="edge"><title>Node1&#45;&gt;Node20</title>
<path fill="none" stroke="midnightblue" d="M113.074,-440.927C123.075,-439.294 133.547,-437.584 143.687,-435.929"/>
<polygon fill="midnightblue" stroke="midnightblue" points="144.38,-439.362 153.686,-434.296 143.252,-432.453 144.38,-439.362"/>
</g>
<!-- Node3 -->
<g id="node3" class="node"><title>Node3</title>
<g id="a_node3"><a xlink:href="classlibpdaljava_1_1Pipeline.html#ab4f7ab0d7fd331a6112422bceeca1207" target="_top" xlink:title="libpdaljava::Pipeline\l::setLogLevel">
<polygon fill="white" stroke="black" points="303.5,-568 303.5,-598 406.5,-598 406.5,-568 303.5,-568"/>
<text text-anchor="start" x="311.5" y="-586" font-family="Helvetica,sans-Serif" font-size="10.00">libpdaljava::Pipeline</text>
<text text-anchor="middle" x="355" y="-575" font-family="Helvetica,sans-Serif" font-size="10.00">::setLogLevel</text>
</a>
</g>
</g>
<!-- Node2&#45;&gt;Node3 -->
<g id="edge2" class="edge"><title>Node2&#45;&gt;Node3</title>
<path fill="none" stroke="midnightblue" d="M231.856,-510.128C256.129,-524.609 292.924,-546.561 319.785,-562.587"/>
<polygon fill="midnightblue" stroke="midnightblue" points="318.1,-565.657 328.481,-567.775 321.687,-559.646 318.1,-565.657"/>
</g>
<!-- Node7 -->
<g id="node7" class="node"><title>Node7</title>
<g id="a_node7"><a xlink:href="io__pdal__Pipeline_8cpp.html#a36f7aae14c7ecd91b257653ad04c1f04" target="_top" xlink:title="Java_io_pdal_Pipeline\l_getLogLevel">
<polygon fill="white" stroke="black" points="298.5,-480 298.5,-510 411.5,-510 411.5,-480 298.5,-480"/>
<text text-anchor="start" x="306.5" y="-498" font-family="Helvetica,sans-Serif" font-size="10.00">Java_io_pdal_Pipeline</text>
<text text-anchor="middle" x="355" y="-487" font-family="Helvetica,sans-Serif" font-size="10.00">_getLogLevel</text>
</a>
</g>
</g>
<!-- Node2&#45;&gt;Node7 -->
<g id="edge6" class="edge"><title>Node2&#45;&gt;Node7</title>
<path fill="none" stroke="midnightblue" d="M262.263,-495C270.707,-495 279.486,-495 288.119,-495"/>
<polygon fill="midnightblue" stroke="midnightblue" points="288.158,-498.5 298.158,-495 288.158,-491.5 288.158,-498.5"/>
</g>
<!-- Node4 -->
<g id="node4" class="node"><title>Node4</title>
<g id="a_node4"><a xlink:href="classpdal_1_1PipelineExecutor.html#a51010616986e1ae31d66a949be3d85a6" target="_top" xlink:title="pdal::PipelineExecutor\l::setLogLevel">
<polygon fill="white" stroke="black" points="448,-588 448,-618 562,-618 562,-588 448,-588"/>
<text text-anchor="start" x="456" y="-606" font-family="Helvetica,sans-Serif" font-size="10.00">pdal::PipelineExecutor</text>
<text text-anchor="middle" x="505" y="-595" font-family="Helvetica,sans-Serif" font-size="10.00">::setLogLevel</text>
</a>
</g>
</g>
<!-- Node3&#45;&gt;Node4 -->
<g id="edge3" class="edge"><title>Node3&#45;&gt;Node4</title>
<path fill="none" stroke="midnightblue" d="M406.519,-589.827C416.609,-591.19 427.349,-592.642 437.874,-594.064"/>
<polygon fill="midnightblue" stroke="midnightblue" points="437.492,-597.544 447.87,-595.415 438.429,-590.607 437.492,-597.544"/>
</g>
<!-- Node5 -->
<g id="node5" class="node"><title>Node5</title>
<g id="a_node5"><a xlink:href="classpdal_1_1PipelineExecutor.html#a86ef5fea4e9325bdd7d4f11a76bb05ed" target="_top" xlink:title="pdal::PipelineExecutor\l::setLogStream">
<polygon fill="white" stroke="black" points="608,-618 608,-648 722,-648 722,-618 608,-618"/>
<text text-anchor="start" x="616" y="-636" font-family="Helvetica,sans-Serif" font-size="10.00">pdal::PipelineExecutor</text>
<text text-anchor="middle" x="665" y="-625" font-family="Helvetica,sans-Serif" font-size="10.00">::setLogStream</text>
</a>
</g>
</g>
<!-- Node4&#45;&gt;Node5 -->
<g id="edge4" class="edge"><title>Node4&#45;&gt;Node5</title>
<path fill="none" stroke="midnightblue" d="M562.15,-613.661C573.722,-615.859 586.01,-618.192 597.898,-620.449"/>
<polygon fill="midnightblue" stroke="midnightblue" points="597.288,-623.896 607.765,-622.322 598.593,-617.018 597.288,-623.896"/>
</g>
<!-- Node6 -->
<g id="node6" class="node"><title>Node6</title>
<g id="a_node6"><a xlink:href="classpdal_1_1PipelineManager.html#a2f000535752f8a20e2b7355515bbc0d5" target="_top" xlink:title="pdal::PipelineManager\l::setLog">
<polygon fill="white" stroke="black" points="781.5,-642 781.5,-672 894.5,-672 894.5,-642 781.5,-642"/>
<text text-anchor="start" x="789.5" y="-660" font-family="Helvetica,sans-Serif" font-size="10.00">pdal::PipelineManager</text>
<text text-anchor="middle" x="838" y="-649" font-family="Helvetica,sans-Serif" font-size="10.00">::setLog</text>
</a>
</g>
</g>
<!-- Node5&#45;&gt;Node6 -->
<g id="edge5" class="edge"><title>Node5&#45;&gt;Node6</title>
<path fill="none" stroke="midnightblue" d="M722.466,-640.925C738.175,-643.13 755.369,-645.543 771.547,-647.814"/>
<polygon fill="midnightblue" stroke="midnightblue" points="771.078,-651.282 781.467,-649.206 772.051,-644.35 771.078,-651.282"/>
</g>
<!-- Node8 -->
<g id="node8" class="node"><title>Node8</title>
<g id="a_node8"><a xlink:href="classlibpdaljava_1_1Pipeline.html#a28b33c156fd9f1d17a9e1a52191920a7" target="_top" xlink:title="libpdaljava::Pipeline\l::getLogLevel">
<polygon fill="white" stroke="black" points="453.5,-460 453.5,-490 556.5,-490 556.5,-460 453.5,-460"/>
<text text-anchor="start" x="461.5" y="-478" font-family="Helvetica,sans-Serif" font-size="10.00">libpdaljava::Pipeline</text>
<text text-anchor="middle" x="505" y="-467" font-family="Helvetica,sans-Serif" font-size="10.00">::getLogLevel</text>
</a>
</g>
</g>
<!-- Node7&#45;&gt;Node8 -->
<g id="edge7" class="edge"><title>Node7&#45;&gt;Node8</title>
<path fill="none" stroke="midnightblue" d="M411.531,-487.496C421.743,-486.116 432.456,-484.668 442.823,-483.267"/>
<polygon fill="midnightblue" stroke="midnightblue" points="443.601,-486.694 453.043,-481.886 442.664,-479.757 443.601,-486.694"/>
</g>
<!-- Node10 -->
<g id="node10" class="node"><title>Node10</title>
<g id="a_node10"><a xlink:href="io__pdal__Pipeline_8cpp.html#a5f3246e321662c6fef50671c277ee500" target="_top" xlink:title="Java_io_pdal_Pipeline\l_getLog">
<polygon fill="white" stroke="black" points="448.5,-509 448.5,-539 561.5,-539 561.5,-509 448.5,-509"/>
<text text-anchor="start" x="456.5" y="-527" font-family="Helvetica,sans-Serif" font-size="10.00">Java_io_pdal_Pipeline</text>
<text text-anchor="middle" x="505" y="-516" font-family="Helvetica,sans-Serif" font-size="10.00">_getLog</text>
</a>
</g>
</g>
<!-- Node7&#45;&gt;Node10 -->
<g id="edge9" class="edge"><title>Node7&#45;&gt;Node10</title>
<path fill="none" stroke="midnightblue" d="M411.531,-505.881C420.232,-507.586 429.296,-509.362 438.201,-511.107"/>
<polygon fill="midnightblue" stroke="midnightblue" points="437.672,-514.57 448.158,-513.058 439.018,-507.7 437.672,-514.57"/>
</g>
<!-- Node9 -->
<g id="node9" class="node"><title>Node9</title>
<g id="a_node9"><a xlink:href="classpdal_1_1PipelineExecutor.html#a898cfd90e8724d7face92ec6e58ec010" target="_top" xlink:title="pdal::PipelineExecutor\l::getLogLevel">
<polygon fill="white" stroke="black" points="608,-460 608,-490 722,-490 722,-460 608,-460"/>
<text text-anchor="start" x="616" y="-478" font-family="Helvetica,sans-Serif" font-size="10.00">pdal::PipelineExecutor</text>
<text text-anchor="middle" x="665" y="-467" font-family="Helvetica,sans-Serif" font-size="10.00">::getLogLevel</text>
</a>
</g>
</g>
<!-- Node8&#45;&gt;Node9 -->
<g id="edge8" class="edge"><title>Node8&#45;&gt;Node9</title>
<path fill="none" stroke="midnightblue" d="M556.862,-475C569.802,-475 583.9,-475 597.492,-475"/>
<polygon fill="midnightblue" stroke="midnightblue" points="597.76,-478.5 607.76,-475 597.76,-471.5 597.76,-478.5"/>
</g>
<!-- Node11 -->
<g id="node11" class="node"><title>Node11</title>
<g id="a_node11"><a xlink:href="classlibpdaljava_1_1Pipeline.html#af10c3641b7cbb4fea40b0f453fb45a29" target="_top" xlink:title="libpdaljava::Pipeline\l::getLog">
<polygon fill="white" stroke="black" points="613.5,-509 613.5,-539 716.5,-539 716.5,-509 613.5,-509"/>
<text text-anchor="start" x="621.5" y="-527" font-family="Helvetica,sans-Serif" font-size="10.00">libpdaljava::Pipeline</text>
<text text-anchor="middle" x="665" y="-516" font-family="Helvetica,sans-Serif" font-size="10.00">::getLog</text>
</a>
</g>
</g>
<!-- Node10&#45;&gt;Node11 -->
<g id="edge10" class="edge"><title>Node10&#45;&gt;Node11</title>
<path fill="none" stroke="midnightblue" d="M561.705,-524C575.086,-524 589.446,-524 603.052,-524"/>
<polygon fill="midnightblue" stroke="midnightblue" points="603.28,-527.5 613.28,-524 603.28,-520.5 603.28,-527.5"/>
</g>
<!-- Node13 -->
<g id="node13" class="node"><title>Node13</title>
<g id="a_node13"><a xlink:href="io__pdal__Pipeline_8cpp.html#a6d1c246b35dfbc9b84fceb5f08761a6b" target="_top" xlink:title="Java_io_pdal_Pipeline\l_getPointViews">
<polygon fill="white" stroke="black" points="608.5,-558 608.5,-588 721.5,-588 721.5,-558 608.5,-558"/>
<text text-anchor="start" x="616.5" y="-576" font-family="Helvetica,sans-Serif" font-size="10.00">Java_io_pdal_Pipeline</text>
<text text-anchor="middle" x="665" y="-565" font-family="Helvetica,sans-Serif" font-size="10.00">_getPointViews</text>
</a>
</g>
</g>
<!-- Node10&#45;&gt;Node13 -->
<g id="edge12" class="edge"><title>Node10&#45;&gt;Node13</title>
<path fill="none" stroke="midnightblue" d="M554.694,-539.101C570.839,-544.108 588.974,-549.732 605.762,-554.939"/>
<polygon fill="midnightblue" stroke="midnightblue" points="604.878,-558.329 615.466,-557.948 606.952,-551.643 604.878,-558.329"/>
</g>
<!-- Node12 -->
<g id="node12" class="node"><title>Node12</title>
<g id="a_node12"><a xlink:href="namespacepdal_1_1pclsupport.html#a039ae3953bfd61cab329479309c3c8ed" target="_top" xlink:title="pdal::pclsupport::setLog\lLevel">
<polygon fill="white" stroke="black" points="777.5,-505 777.5,-535 898.5,-535 898.5,-505 777.5,-505"/>
<text text-anchor="start" x="785.5" y="-523" font-family="Helvetica,sans-Serif" font-size="10.00">pdal::pclsupport::setLog</text>
<text text-anchor="middle" x="838" y="-512" font-family="Helvetica,sans-Serif" font-size="10.00">Level</text>
</a>
</g>
</g>
<!-- Node11&#45;&gt;Node12 -->
<g id="edge11" class="edge"><title>Node11&#45;&gt;Node12</title>
<path fill="none" stroke="midnightblue" d="M716.843,-522.811C732.578,-522.443 750.198,-522.03 766.993,-521.638"/>
<polygon fill="midnightblue" stroke="midnightblue" points="767.404,-525.129 777.319,-521.396 767.24,-518.131 767.404,-525.129"/>
</g>
<!-- Node14 -->
<g id="node14" class="node"><title>Node14</title>
<g id="a_node14"><a xlink:href="classlibpdaljava_1_1Pipeline.html#a4ac34d34f578b53893f21097860deaa6" target="_top" xlink:title="libpdaljava::Pipeline\l::getPointViews">
<polygon fill="white" stroke="black" points="786.5,-554 786.5,-584 889.5,-584 889.5,-554 786.5,-554"/>
<text text-anchor="start" x="794.5" y="-572" font-family="Helvetica,sans-Serif" font-size="10.00">libpdaljava::Pipeline</text>
<text text-anchor="middle" x="838" y="-561" font-family="Helvetica,sans-Serif" font-size="10.00">::getPointViews</text>
</a>
</g>
</g>
<!-- Node13&#45;&gt;Node14 -->
<g id="edge13" class="edge"><title>Node13&#45;&gt;Node14</title>
<path fill="none" stroke="midnightblue" d="M721.519,-571.701C738.964,-571.293 758.317,-570.841 776.114,-570.424"/>
<polygon fill="midnightblue" stroke="midnightblue" points="776.471,-573.917 786.387,-570.184 776.307,-566.919 776.471,-573.917"/>
</g>
<!-- Node18 -->
<g id="node18" class="node"><title>Node18</title>
<g id="a_node18"><a xlink:href="Accessors_8hpp.html#a0096ef2a758f9041ca6424e09c2df937" target="_top" xlink:title="setHandle">
<polygon fill="white" stroke="black" points="807.5,-603.5 807.5,-622.5 868.5,-622.5 868.5,-603.5 807.5,-603.5"/>
<text text-anchor="middle" x="838" y="-610.5" font-family="Helvetica,sans-Serif" font-size="10.00">setHandle</text>
</a>
</g>
</g>
<!-- Node13&#45;&gt;Node18 -->
<g id="edge17" class="edge"><title>Node13&#45;&gt;Node18</title>
<path fill="none" stroke="midnightblue" d="M721.519,-585.987C746.213,-591.763 774.728,-598.433 797.244,-603.7"/>
<polygon fill="midnightblue" stroke="midnightblue" points="796.597,-607.143 807.132,-606.013 798.192,-600.327 796.597,-607.143"/>
</g>
<!-- Node15 -->
<g id="node15" class="node"><title>Node15</title>
<g id="a_node15"><a xlink:href="classpdal_1_1PipelineExecutor.html#a2b06756e02a52c7391de330de01520ce" target="_top" xlink:title="pdal::PipelineExecutor\l::executed">
<polygon fill="white" stroke="black" points="963,-550 963,-580 1077,-580 1077,-550 963,-550"/>
<text text-anchor="start" x="971" y="-568" font-family="Helvetica,sans-Serif" font-size="10.00">pdal::PipelineExecutor</text>
<text text-anchor="middle" x="1020" y="-557" font-family="Helvetica,sans-Serif" font-size="10.00">::executed</text>
</a>
</g>
</g>
<!-- Node14&#45;&gt;Node15 -->
<g id="edge14" class="edge"><title>Node14&#45;&gt;Node15</title>
<path fill="none" stroke="midnightblue" d="M889.619,-567.875C909.189,-567.44 931.854,-566.937 952.693,-566.473"/>
<polygon fill="midnightblue" stroke="midnightblue" points="952.836,-569.971 962.756,-566.25 952.68,-562.973 952.836,-569.971"/>
</g>
<!-- Node16 -->
<g id="node16" class="node"><title>Node16</title>
<g id="a_node16"><a xlink:href="classpdal_1_1PipelineExecutor.html#a2d40af9872e5f672dccec303e87c6ddd" target="_top" xlink:title="pdal::PipelineExecutor\l::getManagerConst">
<polygon fill="white" stroke="black" points="963,-501 963,-531 1077,-531 1077,-501 963,-501"/>
<text text-anchor="start" x="971" y="-519" font-family="Helvetica,sans-Serif" font-size="10.00">pdal::PipelineExecutor</text>
<text text-anchor="middle" x="1020" y="-508" font-family="Helvetica,sans-Serif" font-size="10.00">::getManagerConst</text>
</a>
</g>
</g>
<!-- Node14&#45;&gt;Node16 -->
<g id="edge15" class="edge"><title>Node14&#45;&gt;Node16</title>
<path fill="none" stroke="midnightblue" d="M889.619,-554.096C910.905,-547.828 935.852,-540.482 958.13,-533.923"/>
<polygon fill="midnightblue" stroke="midnightblue" points="959.22,-537.25 967.825,-531.068 957.243,-530.535 959.22,-537.25"/>
</g>
<!-- Node17 -->
<g id="node17" class="node"><title>Node17</title>
<g id="a_node17"><a xlink:href="classpdal_1_1PipelineManager.html#a50cae2392ec1b66ae023083879020fbc" target="_top" xlink:title="pdal::PipelineManager\l::views">
<polygon fill="white" stroke="black" points="963.5,-599 963.5,-629 1076.5,-629 1076.5,-599 963.5,-599"/>
<text text-anchor="start" x="971.5" y="-617" font-family="Helvetica,sans-Serif" font-size="10.00">pdal::PipelineManager</text>
<text text-anchor="middle" x="1020" y="-606" font-family="Helvetica,sans-Serif" font-size="10.00">::views</text>
</a>
</g>
</g>
<!-- Node14&#45;&gt;Node17 -->
<g id="edge16" class="edge"><title>Node14&#45;&gt;Node17</title>
<path fill="none" stroke="midnightblue" d="M889.619,-581.655C909.458,-586.614 932.476,-592.369 953.55,-597.637"/>
<polygon fill="midnightblue" stroke="midnightblue" points="952.845,-601.069 963.396,-600.099 954.543,-594.278 952.845,-601.069"/>
</g>
<!-- Node19 -->
<g id="node19" class="node"><title>Node19</title>
<g id="a_node19"><a xlink:href="Accessors_8hpp.html#abf11be145f9b6e8546356546c1f46d88" target="_top" xlink:title="getHandleField">
<polygon fill="white" stroke="black" points="979,-648.5 979,-667.5 1061,-667.5 1061,-648.5 979,-648.5"/>
<text text-anchor="middle" x="1020" y="-655.5" font-family="Helvetica,sans-Serif" font-size="10.00">getHandleField</text>
</a>
</g>
</g>
<!-- Node18&#45;&gt;Node19 -->
<g id="edge18" class="edge"><title>Node18&#45;&gt;Node19</title>
<path fill="none" stroke="midnightblue" d="M868.723,-620.431C896.504,-627.376 938.467,-637.867 970.995,-645.999"/>
<polygon fill="midnightblue" stroke="midnightblue" points="970.211,-649.41 980.761,-648.44 971.909,-642.619 970.211,-649.41"/>
</g>
<!-- Node21 -->
<g id="node21" class="node"><title>Node21</title>
<g id="a_node21"><a xlink:href="classpdal_1_1PipelineExecutor.html#a8a9ea9edd1de624d277ae9ff8d3493bc" target="_top" xlink:title="pdal::PipelineExecutor\l::validate">
<polygon fill="white" stroke="black" points="298,-411 298,-441 412,-441 412,-411 298,-411"/>
<text text-anchor="start" x="306" y="-429" font-family="Helvetica,sans-Serif" font-size="10.00">pdal::PipelineExecutor</text>
<text text-anchor="middle" x="355" y="-418" font-family="Helvetica,sans-Serif" font-size="10.00">::validate</text>
</a>
</g>
</g>
<!-- Node20&#45;&gt;Node21 -->
<g id="edge20" class="edge"><title>Node20&#45;&gt;Node21</title>
<path fill="none" stroke="midnightblue" d="M257.261,-426C267.074,-426 277.489,-426 287.712,-426"/>
<polygon fill="midnightblue" stroke="midnightblue" points="287.841,-429.5 297.84,-426 287.84,-422.5 287.841,-429.5"/>
</g>
<!-- Node22 -->
<g id="node22" class="node"><title>Node22</title>
<g id="a_node22"><a xlink:href="classpdal_1_1PipelineManager.html#ae13910b65bf0d0fce79164630d226aef" target="_top" xlink:title="pdal::PipelineManager\l::readPipeline">
<polygon fill="white" stroke="black" points="448.5,-411 448.5,-441 561.5,-441 561.5,-411 448.5,-411"/>
<text text-anchor="start" x="456.5" y="-429" font-family="Helvetica,sans-Serif" font-size="10.00">pdal::PipelineManager</text>
<text text-anchor="middle" x="505" y="-418" font-family="Helvetica,sans-Serif" font-size="10.00">::readPipeline</text>
</a>
</g>
</g>
<!-- Node21&#45;&gt;Node22 -->
<g id="edge21" class="edge"><title>Node21&#45;&gt;Node22</title>
<path fill="none" stroke="midnightblue" d="M412.375,-426C420.829,-426 429.61,-426 438.24,-426"/>
<polygon fill="midnightblue" stroke="midnightblue" points="438.272,-429.5 448.272,-426 438.272,-422.5 438.272,-429.5"/>
</g>
<!-- Node28 -->
<g id="node28" class="node"><title>Node28</title>
<g id="a_node28"><a xlink:href="classpdal_1_1PipelineManager.html#ab1216e90ce5bea6ed10b3bdfeef47e6d" target="_top" xlink:title="pdal::PipelineManager\l::prepare">
<polygon fill="white" stroke="black" points="448.5,-323 448.5,-353 561.5,-353 561.5,-323 448.5,-323"/>
<text text-anchor="start" x="456.5" y="-341" font-family="Helvetica,sans-Serif" font-size="10.00">pdal::PipelineManager</text>
<text text-anchor="middle" x="505" y="-330" font-family="Helvetica,sans-Serif" font-size="10.00">::prepare</text>
</a>
</g>
</g>
<!-- Node21&#45;&gt;Node28 -->
<g id="edge27" class="edge"><title>Node21&#45;&gt;Node28</title>
<path fill="none" stroke="midnightblue" d="M381.442,-410.872C405.797,-396.391 442.716,-374.439 469.669,-358.413"/>
<polygon fill="midnightblue" stroke="midnightblue" points="471.588,-361.344 478.395,-353.225 468.01,-355.327 471.588,-361.344"/>
</g>
<!-- Node23 -->
<g id="node23" class="node"><title>Node23</title>
<g id="a_node23"><a xlink:href="classpdal_1_1PipelineReaderJSON.html#a84a02c6838be0ce79beb1f3ad56d90d3" target="_top" xlink:title="pdal::PipelineReaderJSON\l::readPipeline">
<polygon fill="white" stroke="black" points="598,-411 598,-441 732,-441 732,-411 598,-411"/>
<text text-anchor="start" x="606" y="-429" font-family="Helvetica,sans-Serif" font-size="10.00">pdal::PipelineReaderJSON</text>
<text text-anchor="middle" x="665" y="-418" font-family="Helvetica,sans-Serif" font-size="10.00">::readPipeline</text>
</a>
</g>
</g>
<!-- Node22&#45;&gt;Node23 -->
<g id="edge22" class="edge"><title>Node22&#45;&gt;Node23</title>
<path fill="none" stroke="midnightblue" d="M561.705,-426C570.134,-426 578.952,-426 587.725,-426"/>
<polygon fill="midnightblue" stroke="midnightblue" points="587.977,-429.5 597.977,-426 587.977,-422.5 587.977,-429.5"/>
</g>
<!-- Node24 -->
<g id="node24" class="node"><title>Node24</title>
<g id="a_node24"><a xlink:href="namespacepdal_1_1Utils.html#ac3322e84f8c5a998a344a5a606c74793" target="_top" xlink:title="pdal::Utils::openFile">
<polygon fill="white" stroke="black" points="786,-454.5 786,-473.5 890,-473.5 890,-454.5 786,-454.5"/>
<text text-anchor="middle" x="838" y="-461.5" font-family="Helvetica,sans-Serif" font-size="10.00">pdal::Utils::openFile</text>
</a>
</g>
</g>
<!-- Node23&#45;&gt;Node24 -->
<g id="edge23" class="edge"><title>Node23&#45;&gt;Node24</title>
<path fill="none" stroke="midnightblue" d="M732.113,-440.692C749.313,-444.514 767.619,-448.582 784.042,-452.231"/>
<polygon fill="midnightblue" stroke="midnightblue" points="783.476,-455.691 793.997,-454.444 784.994,-448.858 783.476,-455.691"/>
</g>
<!-- Node26 -->
<g id="node26" class="node"><title>Node26</title>
<g id="a_node26"><a xlink:href="namespacepdal_1_1Utils.html#aad48cdff8e3ff3d13c7a273583870185" target="_top" xlink:title="pdal::Utils::closeFile">
<polygon fill="white" stroke="black" points="785,-416.5 785,-435.5 891,-435.5 891,-416.5 785,-416.5"/>
<text text-anchor="middle" x="838" y="-423.5" font-family="Helvetica,sans-Serif" font-size="10.00">pdal::Utils::closeFile</text>
</a>
</g>
</g>
<!-- Node23&#45;&gt;Node26 -->
<g id="edge25" class="edge"><title>Node23&#45;&gt;Node26</title>
<path fill="none" stroke="midnightblue" d="M732.113,-426C746.043,-426 760.698,-426 774.491,-426"/>
<polygon fill="midnightblue" stroke="midnightblue" points="774.843,-429.5 784.843,-426 774.843,-422.5 774.843,-429.5"/>
</g>
<!-- Node25 -->
<g id="node25" class="node"><title>Node25</title>
<g id="a_node25"><a xlink:href="SQLiteTest_8cpp.html#afdd1742979cee35fe1879794bd7ff3a4" target="_top" xlink:title="tempFilename">
<polygon fill="white" stroke="black" points="981,-454.5 981,-473.5 1059,-473.5 1059,-454.5 981,-454.5"/>
<text text-anchor="middle" x="1020" y="-461.5" font-family="Helvetica,sans-Serif" font-size="10.00">tempFilename</text>
</a>
</g>
</g>
<!-- Node24&#45;&gt;Node25 -->
<g id="edge24" class="edge"><title>Node24&#45;&gt;Node25</title>
<path fill="none" stroke="midnightblue" d="M890.099,-464C915.382,-464 945.736,-464 970.637,-464"/>
<polygon fill="midnightblue" stroke="midnightblue" points="970.944,-467.5 980.944,-464 970.943,-460.5 970.944,-467.5"/>
</g>
<!-- Node27 -->
<g id="node27" class="node"><title>Node27</title>
<g id="a_node27"><a xlink:href="namespacepdal_1_1Utils.html#a6ce7036b0912ba81b1f1a876b2772a34" target="_top" xlink:title="pdal::Utils::closeFile">
<polygon fill="white" stroke="black" points="967,-416.5 967,-435.5 1073,-435.5 1073,-416.5 967,-416.5"/>
<text text-anchor="middle" x="1020" y="-423.5" font-family="Helvetica,sans-Serif" font-size="10.00">pdal::Utils::closeFile</text>
</a>
</g>
</g>
<!-- Node26&#45;&gt;Node27 -->
<g id="edge26" class="edge"><title>Node26&#45;&gt;Node27</title>
<path fill="none" stroke="midnightblue" d="M891.063,-426C911.497,-426 935.124,-426 956.47,-426"/>
<polygon fill="midnightblue" stroke="midnightblue" points="956.742,-429.5 966.742,-426 956.742,-422.5 956.742,-429.5"/>
</g>
<!-- Node29 -->
<g id="node29" class="node"><title>Node29</title>
<g id="a_node29"><a xlink:href="classpdal_1_1PipelineManager.html#a26e0dafe6752f3a94b5348e811658f50" target="_top" xlink:title="pdal::PipelineManager\l::validateStageOptions">
<polygon fill="white" stroke="black" points="607,-347 607,-377 723,-377 723,-347 607,-347"/>
<text text-anchor="start" x="615" y="-365" font-family="Helvetica,sans-Serif" font-size="10.00">pdal::PipelineManager</text>
<text text-anchor="middle" x="665" y="-354" font-family="Helvetica,sans-Serif" font-size="10.00">::validateStageOptions</text>
</a>
</g>
</g>
<!-- Node28&#45;&gt;Node29 -->
<g id="edge28" class="edge"><title>Node28&#45;&gt;Node29</title>
<path fill="none" stroke="midnightblue" d="M561.705,-346.462C573.043,-348.184 585.085,-350.013 596.774,-351.788"/>
<polygon fill="midnightblue" stroke="midnightblue" points="596.517,-355.29 606.93,-353.331 597.569,-348.369 596.517,-355.29"/>
</g>
<!-- Node30 -->
<g id="node30" class="node"><title>Node30</title>
<g id="a_node30"><a xlink:href="classpdal_1_1PipelineManager.html#a0d1a3762d8fd3528468d9b0bfb794585" target="_top" xlink:title="pdal::PipelineManager\l::getStage">
<polygon fill="white" stroke="black" points="608.5,-298 608.5,-328 721.5,-328 721.5,-298 608.5,-298"/>
<text text-anchor="start" x="616.5" y="-316" font-family="Helvetica,sans-Serif" font-size="10.00">pdal::PipelineManager</text>
<text text-anchor="middle" x="665" y="-305" font-family="Helvetica,sans-Serif" font-size="10.00">::getStage</text>
</a>
</g>
</g>
<!-- Node28&#45;&gt;Node30 -->
<g id="edge29" class="edge"><title>Node28&#45;&gt;Node30</title>
<path fill="none" stroke="midnightblue" d="M561.705,-329.186C573.505,-327.319 586.066,-325.331 598.2,-323.411"/>
<polygon fill="midnightblue" stroke="midnightblue" points="598.935,-326.839 608.266,-321.819 597.841,-319.925 598.935,-326.839"/>
</g>
<!-- Node31 -->
<g id="node31" class="node"><title>Node31</title>
<g id="a_node31"><a xlink:href="classpdal_1_1Stage.html#a4b9296a59f8852b3d08630f1086bfbea" target="_top" xlink:title="pdal::Stage::prepare">
<polygon fill="white" stroke="black" points="613,-226.5 613,-245.5 717,-245.5 717,-226.5 613,-226.5"/>
<text text-anchor="middle" x="665" y="-233.5" font-family="Helvetica,sans-Serif" font-size="10.00">pdal::Stage::prepare</text>
</a>
</g>
</g>
<!-- Node28&#45;&gt;Node31 -->
<g id="edge30" class="edge"><title>Node28&#45;&gt;Node31</title>
<path fill="none" stroke="midnightblue" d="M529.313,-322.95C559.186,-303.665 610.672,-270.427 640.591,-251.112"/>
<polygon fill="midnightblue" stroke="midnightblue" points="642.633,-253.96 649.136,-245.596 638.836,-248.079 642.633,-253.96"/>
</g>
<!-- Node31&#45;&gt;Node31 -->
<g id="edge31" class="edge"><title>Node31&#45;&gt;Node31</title>
<path fill="none" stroke="midnightblue" d="M640.339,-245.757C628.342,-254.565 636.562,-264 665,-264 684.106,-264 694.086,-259.741 694.94,-254.275"/>
<polygon fill="midnightblue" stroke="midnightblue" points="697.904,-252.413 689.661,-245.757 691.954,-256.101 697.904,-252.413"/>
</g>
<!-- Node32 -->
<g id="node32" class="node"><title>Node32</title>
<g id="a_node32"><a xlink:href="classpdal_1_1Stage.html#a75f17f9b67f48f6aab1d98aadefc4d5c" target="_top" xlink:title="pdal::Stage::handleOptions">
<polygon fill="white" stroke="black" points="771,-226.5 771,-245.5 905,-245.5 905,-226.5 771,-226.5"/>
<text text-anchor="middle" x="838" y="-233.5" font-family="Helvetica,sans-Serif" font-size="10.00">pdal::Stage::handleOptions</text>
</a>
</g>
</g>
<!-- Node31&#45;&gt;Node32 -->
<g id="edge32" class="edge"><title>Node31&#45;&gt;Node32</title>
<path fill="none" stroke="midnightblue" d="M717.306,-236C730.974,-236 746.038,-236 760.734,-236"/>
<polygon fill="midnightblue" stroke="midnightblue" points="760.828,-239.5 770.828,-236 760.828,-232.5 760.828,-239.5"/>
</g>
<!-- Node44 -->
<g id="node44" class="node"><title>Node44</title>
<g id="a_node44"><a xlink:href="classpdal_1_1Stage.html#a74cf636cb0f633411e4e40dcd718508a" target="_top" xlink:title="pdal::Stage::startLogging">
<polygon fill="white" stroke="black" points="957.5,-36.5 957.5,-55.5 1082.5,-55.5 1082.5,-36.5 957.5,-36.5"/>
<text text-anchor="middle" x="1020" y="-43.5" font-family="Helvetica,sans-Serif" font-size="10.00">pdal::Stage::startLogging</text>
</a>
</g>
</g>
<!-- Node31&#45;&gt;Node44 -->
<g id="edge46" class="edge"><title>Node31&#45;&gt;Node44</title>
<path fill="none" stroke="midnightblue" d="M717.197,-226.725C783.985,-214.205 894.02,-191.975 908,-179 946.945,-142.856 905.36,-101.47 944,-65 945.667,-63.4269 947.444,-61.9791 949.311,-60.6468"/>
<polygon fill="midnightblue" stroke="midnightblue" points="951.166,-63.6163 957.995,-55.5158 947.605,-57.5897 951.166,-63.6163"/>
</g>
<!-- Node45 -->
<g id="node45" class="node"><title>Node45</title>
<g id="a_node45"><a xlink:href="classpdal_1_1Stage.html#a6c85dfbf6a674dbc2eda76a79efada48" target="_top" xlink:title="pdal::Stage::l_initialize">
<polygon fill="white" stroke="red" points="780.5,-264.5 780.5,-283.5 895.5,-283.5 895.5,-264.5 780.5,-264.5"/>
<text text-anchor="middle" x="838" y="-271.5" font-family="Helvetica,sans-Serif" font-size="10.00">pdal::Stage::l_initialize</text>
</a>
</g>
</g>
<!-- Node31&#45;&gt;Node45 -->
<g id="edge50" class="edge"><title>Node31&#45;&gt;Node45</title>
<path fill="none" stroke="midnightblue" d="M709.151,-245.589C731.919,-250.649 760.048,-256.9 784.119,-262.249"/>
<polygon fill="midnightblue" stroke="midnightblue" points="783.639,-265.727 794.16,-264.48 785.157,-258.894 783.639,-265.727"/>
</g>
<!-- Node46 -->
<g id="node46" class="node"><title>Node46</title>
<g id="a_node46"><a xlink:href="classpdal_1_1Stage.html#a5b422f842a6374b448439df99fe6e07e" target="_top" xlink:title="pdal::Stage::initialize">
<polygon fill="white" stroke="black" points="784.5,-150.5 784.5,-169.5 891.5,-169.5 891.5,-150.5 784.5,-150.5"/>
<text text-anchor="middle" x="838" y="-157.5" font-family="Helvetica,sans-Serif" font-size="10.00">pdal::Stage::initialize</text>
</a>
</g>
</g>
<!-- Node31&#45;&gt;Node46 -->
<g id="edge52" class="edge"><title>Node31&#45;&gt;Node46</title>
<path fill="none" stroke="midnightblue" d="M682.983,-226.434C702.955,-215.4 737.283,-197.099 768,-184 777.265,-180.049 787.422,-176.24 797.025,-172.864"/>
<polygon fill="midnightblue" stroke="midnightblue" points="798.452,-176.075 806.772,-169.516 796.178,-169.455 798.452,-176.075"/>
</g>
<!-- Node47 -->
<g id="node47" class="node"><title>Node47</title>
<g id="a_node47"><a xlink:href="classpdal_1_1Stage.html#a7ec627c76e1c30fc53780bd81d08d4ad" target="_top" xlink:title="pdal::Stage::addDimensions">
<polygon fill="white" stroke="black" points="768,-112.5 768,-131.5 908,-131.5 908,-112.5 768,-112.5"/>
<text text-anchor="middle" x="838" y="-119.5" font-family="Helvetica,sans-Serif" font-size="10.00">pdal::Stage::addDimensions</text>
</a>
</g>
</g>
<!-- Node31&#45;&gt;Node47 -->
<g id="edge53" class="edge"><title>Node31&#45;&gt;Node47</title>
<path fill="none" stroke="midnightblue" d="M673.596,-226.308C689.184,-207.085 726.8,-164.007 768,-141 771.951,-138.794 776.175,-136.83 780.513,-135.086"/>
<polygon fill="midnightblue" stroke="midnightblue" points="781.92,-138.299 790.133,-131.607 779.539,-131.716 781.92,-138.299"/>
</g>
<!-- Node48 -->
<g id="node48" class="node"><title>Node48</title>
<g id="a_node48"><a xlink:href="classpdal_1_1BasePointTable.html#a7e3a12a1f29e6cd10d8669ed3d07eb94" target="_top" xlink:title="pdal::BasePointTable\l::layout">
<polygon fill="white" stroke="black" points="783,-63 783,-93 893,-93 893,-63 783,-63"/>
<text text-anchor="start" x="791" y="-81" font-family="Helvetica,sans-Serif" font-size="10.00">pdal::BasePointTable</text>
<text text-anchor="middle" x="838" y="-70" font-family="Helvetica,sans-Serif" font-size="10.00">::layout</text>
</a>
</g>
</g>
<!-- Node31&#45;&gt;Node48 -->
<g id="edge54" class="edge"><title>Node31&#45;&gt;Node48</title>
<path fill="none" stroke="midnightblue" d="M670.801,-226.464C683.417,-202.329 719.872,-138.244 768,-103 770.621,-101.08 773.405,-99.2952 776.293,-97.6366"/>
<polygon fill="midnightblue" stroke="midnightblue" points="777.93,-100.73 785.21,-93.0331 774.718,-94.5105 777.93,-100.73"/>
</g>
<!-- Node49 -->
<g id="node49" class="node"><title>Node49</title>
<g id="a_node49"><a xlink:href="classpdal_1_1Stage.html#affff6bc9dbff793d074d76333c5732dd" target="_top" xlink:title="pdal::Stage::prepared">
<polygon fill="white" stroke="black" points="783,-340.5 783,-359.5 893,-359.5 893,-340.5 783,-340.5"/>
<text text-anchor="middle" x="838" y="-347.5" font-family="Helvetica,sans-Serif" font-size="10.00">pdal::Stage::prepared</text>
</a>
</g>
</g>
<!-- Node31&#45;&gt;Node49 -->
<g id="edge55" class="edge"><title>Node31&#45;&gt;Node49</title>
<path fill="none" stroke="midnightblue" d="M679.818,-245.595C693.658,-255.495 715.253,-271.743 732,-288 749.884,-305.361 747.033,-317.524 768,-331 771.315,-333.131 774.868,-335.025 778.549,-336.709"/>
<polygon fill="midnightblue" stroke="midnightblue" points="777.317,-339.986 787.9,-340.476 779.932,-333.493 777.317,-339.986"/>
</g>
<!-- Node50 -->
<g id="node50" class="node"><title>Node50</title>
<g id="a_node50"><a xlink:href="classpdal_1_1Stage.html#ae49e996fe285350923a3bf44d027adad" target="_top" xlink:title="pdal::Stage::stopLogging">
<polygon fill="white" stroke="black" points="775.5,-302.5 775.5,-321.5 900.5,-321.5 900.5,-302.5 775.5,-302.5"/>
<text text-anchor="middle" x="838" y="-309.5" font-family="Helvetica,sans-Serif" font-size="10.00">pdal::Stage::stopLogging</text>
</a>
</g>
</g>
<!-- Node31&#45;&gt;Node50 -->
<g id="edge56" class="edge"><title>Node31&#45;&gt;Node50</title>
<path fill="none" stroke="midnightblue" d="M680.639,-245.676C699.957,-258.088 735.342,-279.608 768,-293 773.809,-295.382 780.013,-297.564 786.23,-299.532"/>
<polygon fill="midnightblue" stroke="midnightblue" points="785.371,-302.928 795.955,-302.447 787.381,-296.223 785.371,-302.928"/>
</g>
<!-- Node33 -->
<g id="node33" class="node"><title>Node33</title>
<g id="a_node33"><a xlink:href="classpdal_1_1Stage.html#a75ff99f7b665c6573e304ed4148dd99e" target="_top" xlink:title="pdal::Stage::addAllArgs">
<polygon fill="white" stroke="red" points="960.5,-150.5 960.5,-169.5 1079.5,-169.5 1079.5,-150.5 960.5,-150.5"/>
<text text-anchor="middle" x="1020" y="-157.5" font-family="Helvetica,sans-Serif" font-size="10.00">pdal::Stage::addAllArgs</text>
</a>
</g>
</g>
<!-- Node32&#45;&gt;Node33 -->
<g id="edge33" class="edge"><title>Node32&#45;&gt;Node33</title>
<path fill="none" stroke="midnightblue" d="M875.337,-226.437C886.253,-222.765 897.982,-217.983 908,-212 926.635,-200.872 924.901,-189.311 944,-179 948.281,-176.689 952.852,-174.651 957.545,-172.856"/>
<polygon fill="midnightblue" stroke="midnightblue" points="958.978,-176.065 967.296,-169.502 956.701,-169.445 958.978,-176.065"/>
</g>
<!-- Node34 -->
<g id="node34" class="node"><title>Node34</title>
<g id="a_node34"><a xlink:href="classpdal_1_1Stage.html#a6c81d6fbbac17ebe4cd63806916cc750" target="_top" xlink:title="pdal::Stage::getName">
<polygon fill="white" stroke="black" points="1145.5,-142.5 1145.5,-161.5 1257.5,-161.5 1257.5,-142.5 1145.5,-142.5"/>
<text text-anchor="middle" x="1201.5" y="-149.5" font-family="Helvetica,sans-Serif" font-size="10.00">pdal::Stage::getName</text>
</a>
</g>
</g>
<!-- Node32&#45;&gt;Node34 -->
<g id="edge40" class="edge"><title>Node32&#45;&gt;Node34</title>
<path fill="none" stroke="midnightblue" d="M882.601,-226.497C891.711,-223.034 900.741,-218.342 908,-212 934.642,-188.721 913.852,-159.516 944,-141 1013.22,-98.4867 1113.89,-122.082 1166.14,-139.204"/>
<polygon fill="midnightblue" stroke="midnightblue" points="1165.02,-142.521 1175.62,-142.414 1167.27,-135.891 1165.02,-142.521"/>
</g>
<!-- Node35 -->
<g id="node35" class="node"><title>Node35</title>
<g id="a_node35"><a xlink:href="classpdal_1_1Options.html#a99aa4c0c7ba443d584f741d22d37f6a5" target="_top" xlink:title="pdal::Options::getValues">
<polygon fill="white" stroke="black" points="958,-340.5 958,-359.5 1082,-359.5 1082,-340.5 958,-340.5"/>
<text text-anchor="middle" x="1020" y="-347.5" font-family="Helvetica,sans-Serif" font-size="10.00">pdal::Options::getValues</text>
</a>
</g>
</g>
<!-- Node32&#45;&gt;Node35 -->
<g id="edge35" class="edge"><title>Node32&#45;&gt;Node35</title>
<path fill="none" stroke="midnightblue" d="M892.587,-245.65C898.153,-248.099 903.433,-251.164 908,-255 936.621,-279.037 915.133,-307.259 944,-331 946.042,-332.68 948.214,-334.214 950.484,-335.614"/>
<polygon fill="midnightblue" stroke="midnightblue" points="949.165,-338.873 959.652,-340.38 952.393,-332.662 949.165,-338.873"/>
</g>
<!-- Node36 -->
<g id="node36" class="node"><title>Node36</title>
<g id="a_node36"><a xlink:href="classpdal_1_1Options.html#aab2dd4f9208512ad8c38a71ad9d2c98b" target="_top" xlink:title="pdal::Options::addConditional">
<polygon fill="white" stroke="red" points="947.5,-302.5 947.5,-321.5 1092.5,-321.5 1092.5,-302.5 947.5,-302.5"/>
<text text-anchor="middle" x="1020" y="-309.5" font-family="Helvetica,sans-Serif" font-size="10.00">pdal::Options::addConditional</text>
</a>
</g>
</g>
<!-- Node32&#45;&gt;Node36 -->
<g id="edge36" class="edge"><title>Node32&#45;&gt;Node36</title>
<path fill="none" stroke="midnightblue" d="M887.165,-245.612C894.422,-248.082 901.608,-251.164 908,-255 927.947,-266.972 923.93,-281.234 944,-293 947.715,-295.178 951.676,-297.109 955.763,-298.82"/>
<polygon fill="midnightblue" stroke="midnightblue" points="954.879,-302.225 965.472,-302.426 957.317,-295.663 954.879,-302.225"/>
</g>
<!-- Node37 -->
<g id="node37" class="node"><title>Node37</title>
<g id="a_node37"><a xlink:href="classpdal_1_1Options.html#a541bdbfe72511dad8a22236f0a3cb2ab" target="_top" xlink:title="pdal::Options::fromFile">
<polygon fill="white" stroke="red" points="962,-264.5 962,-283.5 1078,-283.5 1078,-264.5 962,-264.5"/>
<text text-anchor="middle" x="1020" y="-271.5" font-family="Helvetica,sans-Serif" font-size="10.00">pdal::Options::fromFile</text>
</a>
</g>
</g>
<!-- Node32&#45;&gt;Node37 -->
<g id="edge37" class="edge"><title>Node32&#45;&gt;Node37</title>
<path fill="none" stroke="midnightblue" d="M884.422,-245.589C908.603,-250.694 938.527,-257.011 964.014,-262.392"/>
<polygon fill="midnightblue" stroke="midnightblue" points="963.398,-265.839 973.905,-264.48 964.844,-258.99 963.398,-265.839"/>
</g>
<!-- Node38 -->
<g id="node38" class="node"><title>Node38</title>
<g id="a_node38"><a xlink:href="classpdal_1_1Options.html#a0d9ebe7f77b36dea85b51eb0098a5df0" target="_top" xlink:title="pdal::Options::remove">
<polygon fill="white" stroke="red" points="963.5,-226.5 963.5,-245.5 1076.5,-245.5 1076.5,-226.5 963.5,-226.5"/>
<text text-anchor="middle" x="1020" y="-233.5" font-family="Helvetica,sans-Serif" font-size="10.00">pdal::Options::remove</text>
</a>
</g>
</g>
<!-- Node32&#45;&gt;Node38 -->
<g id="edge38" class="edge"><title>Node32&#45;&gt;Node38</title>
<path fill="none" stroke="midnightblue" d="M905.003,-236C920.724,-236 937.498,-236 953.209,-236"/>
<polygon fill="midnightblue" stroke="midnightblue" points="953.358,-239.5 963.358,-236 953.358,-232.5 953.358,-239.5"/>
</g>
<!-- Node39 -->
<g id="node39" class="node"><title>Node39</title>
<g id="a_node39"><a xlink:href="classpdal_1_1Options.html#afb18dcc4f3883b8413171db00482959c" target="_top" xlink:title="pdal::Options::toCommandLine">
<polygon fill="white" stroke="red" points="944,-188.5 944,-207.5 1096,-207.5 1096,-188.5 944,-188.5"/>
<text text-anchor="middle" x="1020" y="-195.5" font-family="Helvetica,sans-Serif" font-size="10.00">pdal::Options::toCommandLine</text>
</a>
</g>
</g>
<!-- Node32&#45;&gt;Node39 -->
<g id="edge39" class="edge"><title>Node32&#45;&gt;Node39</title>
<path fill="none" stroke="midnightblue" d="M884.422,-226.411C908.603,-221.306 938.527,-214.989 964.014,-209.608"/>
<polygon fill="midnightblue" stroke="midnightblue" points="964.844,-213.01 973.905,-207.52 963.398,-206.161 964.844,-213.01"/>
</g>
<!-- Node40 -->
<g id="node40" class="node"><title>Node40</title>
<g id="a_node40"><a xlink:href="classpdal_1_1Stage.html#ab94db25b14b94de1f62f9738327accd2" target="_top" xlink:title="pdal::Stage::setupLog">
<polygon fill="white" stroke="black" points="964,-74.5 964,-93.5 1076,-93.5 1076,-74.5 964,-74.5"/>
<text text-anchor="middle" x="1020" y="-81.5" font-family="Helvetica,sans-Serif" font-size="10.00">pdal::Stage::setupLog</text>
</a>
</g>
</g>
<!-- Node32&#45;&gt;Node40 -->
<g id="edge41" class="edge"><title>Node32&#45;&gt;Node40</title>
<path fill="none" stroke="midnightblue" d="M885.053,-226.498C893.496,-223.056 901.637,-218.372 908,-212 942.561,-177.387 909.008,-142.177 944,-108 948.034,-104.06 952.716,-100.766 957.731,-98.0128"/>
<polygon fill="midnightblue" stroke="midnightblue" points="959.499,-101.049 967.052,-93.6182 956.514,-94.7172 959.499,-101.049"/>
</g>
<!-- Node33&#45;&gt;Node34 -->
<g id="edge34" class="edge"><title>Node33&#45;&gt;Node34</title>
<path fill="none" stroke="midnightblue" d="M1079.78,-157.381C1097.46,-156.592 1116.98,-155.722 1135.08,-154.916"/>
<polygon fill="midnightblue" stroke="midnightblue" points="1135.41,-158.404 1145.25,-154.462 1135.1,-151.411 1135.41,-158.404"/>
</g>
<!-- Node40&#45;&gt;Node34 -->
<g id="edge42" class="edge"><title>Node40&#45;&gt;Node34</title>
<path fill="none" stroke="midnightblue" d="M1052.96,-93.5409C1066.35,-97.7148 1082.02,-102.833 1096,-108 1121.18,-117.31 1149.2,-129.19 1169.88,-138.259"/>
<polygon fill="midnightblue" stroke="midnightblue" points="1168.55,-141.498 1179.11,-142.334 1171.37,-135.094 1168.55,-141.498"/>
</g>
<!-- Node41 -->
<g id="node41" class="node"><title>Node41</title>
<g id="a_node41"><a xlink:href="classpdal_1_1gdal_1_1ErrorHandler.html#a56e0125595a43bf3b0cbd0b9a4bc55ea" target="_top" xlink:title="pdal::gdal::ErrorHandler\l::getGlobalErrorHandler">
<polygon fill="white" stroke="red" points="1142,-39 1142,-69 1261,-69 1261,-39 1142,-39"/>
<text text-anchor="start" x="1150" y="-57" font-family="Helvetica,sans-Serif" font-size="10.00">pdal::gdal::ErrorHandler</text>
<text text-anchor="middle" x="1201.5" y="-46" font-family="Helvetica,sans-Serif" font-size="10.00">::getGlobalErrorHandler</text>
</a>
</g>
</g>
<!-- Node40&#45;&gt;Node41 -->
<g id="edge43" class="edge"><title>Node40&#45;&gt;Node41</title>
<path fill="none" stroke="midnightblue" d="M1076.32,-74.7542C1093.88,-71.8199 1113.51,-68.5394 1131.88,-65.4682"/>
<polygon fill="midnightblue" stroke="midnightblue" points="1132.65,-68.8878 1141.94,-63.7871 1131.5,-61.9835 1132.65,-68.8878"/>
</g>
<!-- Node42 -->
<g id="node42" class="node"><title>Node42</title>
<g id="a_node42"><a xlink:href="classpdal_1_1gdal_1_1ErrorHandler.html#ace1cff928ab179f671181ebaf4d280a4" target="_top" xlink:title="pdal::gdal::ErrorHandler::set">
<polygon fill="white" stroke="red" points="1132,-0.5 1132,-19.5 1271,-19.5 1271,-0.5 1132,-0.5"/>
<text text-anchor="middle" x="1201.5" y="-7.5" font-family="Helvetica,sans-Serif" font-size="10.00">pdal::gdal::ErrorHandler::set</text>
</a>
</g>
</g>
<!-- Node40&#45;&gt;Node42 -->
<g id="edge44" class="edge"><title>Node40&#45;&gt;Node42</title>
<path fill="none" stroke="midnightblue" d="M1074.04,-74.3915C1081.67,-71.9293 1089.23,-68.8491 1096,-65 1115.67,-53.8206 1112.45,-40.3995 1132,-29 1135.72,-26.8317 1139.69,-24.9015 1143.79,-23.1848"/>
<polygon fill="midnightblue" stroke="midnightblue" points="1145.35,-26.3363 1153.49,-19.5552 1142.9,-19.7798 1145.35,-26.3363"/>
</g>
<!-- Node43 -->
<g id="node43" class="node"><title>Node43</title>
<g id="a_node43"><a xlink:href="classpdal_1_1Stage.html#aec4fb27c40bb4b032ff003a89a950dd4" target="_top" xlink:title="pdal::Stage::isDebug">
<polygon fill="white" stroke="black" points="1147.5,-88.5 1147.5,-107.5 1255.5,-107.5 1255.5,-88.5 1147.5,-88.5"/>
<text text-anchor="middle" x="1201.5" y="-95.5" font-family="Helvetica,sans-Serif" font-size="10.00">pdal::Stage::isDebug</text>
</a>
</g>
</g>
<!-- Node40&#45;&gt;Node43 -->
<g id="edge45" class="edge"><title>Node40&#45;&gt;Node43</title>
<path fill="none" stroke="midnightblue" d="M1076.32,-88.3147C1095.53,-89.813 1117.22,-91.5048 1137.04,-93.0503"/>
<polygon fill="midnightblue" stroke="midnightblue" points="1136.96,-96.5552 1147.21,-93.8434 1137.51,-89.5764 1136.96,-96.5552"/>
</g>
<!-- Node44&#45;&gt;Node41 -->
<g id="edge47" class="edge"><title>Node44&#45;&gt;Node41</title>
<path fill="none" stroke="midnightblue" d="M1082.52,-48.742C1098.26,-49.4432 1115.28,-50.2019 1131.37,-50.919"/>
<polygon fill="midnightblue" stroke="midnightblue" points="1131.64,-54.4343 1141.78,-51.3831 1131.95,-47.4413 1131.64,-54.4343"/>
</g>
<!-- Node44&#45;&gt;Node42 -->
<g id="edge48" class="edge"><title>Node44&#45;&gt;Node42</title>
<path fill="none" stroke="midnightblue" d="M1068.63,-36.4472C1091.44,-31.8723 1118.95,-26.3559 1142.92,-21.5475"/>
<polygon fill="midnightblue" stroke="midnightblue" points="1143.84,-24.9331 1152.96,-19.5349 1142.46,-18.0698 1143.84,-24.9331"/>
</g>
<!-- Node44&#45;&gt;Node43 -->
<g id="edge49" class="edge"><title>Node44&#45;&gt;Node43</title>
<path fill="none" stroke="midnightblue" d="M1061.68,-55.5309C1072.87,-58.3611 1084.96,-61.6158 1096,-65 1112.26,-69.9837 1115.83,-72.7247 1132,-78 1139.87,-80.5675 1148.3,-83.1574 1156.46,-85.5831"/>
<polygon fill="midnightblue" stroke="midnightblue" points="1155.64,-88.991 1166.23,-88.4479 1157.62,-82.2741 1155.64,-88.991"/>
</g>
<!-- Node45&#45;&gt;Node34 -->
<g id="edge51" class="edge"><title>Node45&#45;&gt;Node34</title>
<path fill="none" stroke="midnightblue" d="M892.587,-283.65C898.153,-286.099 903.433,-289.164 908,-293 936.621,-317.037 912.417,-349.013 944,-369 1001.09,-405.125 1038.8,-404.942 1096,-369 1167,-324.386 1190.89,-216.504 1197.91,-171.857"/>
<polygon fill="midnightblue" stroke="midnightblue" points="1201.41,-172.117 1199.38,-161.719 1194.48,-171.113 1201.41,-172.117"/>
</g>
</g>
</svg>
