<?xml version="1.0" encoding="UTF-8" standalone="no"?>
<!DOCTYPE svg PUBLIC "-//W3C//DTD SVG 1.1//EN"
 "http://www.w3.org/Graphics/SVG/1.1/DTD/svg11.dtd">
<!-- Generated by graphviz version 2.38.0 (20140413.2041)
 -->
<!-- Title: Java_io_pdal_PointView_size Pages: 1 -->
<svg width="1710pt" height="188pt"
 viewBox="0.00 0.00 1710.00 188.00" xmlns="http://www.w3.org/2000/svg" xmlns:xlink="http://www.w3.org/1999/xlink">
<g id="graph0" class="graph" transform="scale(1 1) rotate(0) translate(4 184)">
<title>Java_io_pdal_PointView_size</title>
<polygon fill="white" stroke="none" points="-4,4 -4,-184 1706,-184 1706,4 -4,4"/>
<!-- Node1 -->
<g id="node1" class="node"><title>Node1</title>
<polygon fill="#bfbfbf" stroke="black" points="0,-15.5 0,-34.5 146,-34.5 146,-15.5 0,-15.5"/>
<text text-anchor="middle" x="73" y="-22.5" font-family="Helvetica,sans-Serif" font-size="10.00">Java_io_pdal_PointView_size</text>
</g>
<!-- Node2 -->
<g id="node2" class="node"><title>Node2</title>
<g id="a_node2"><a xlink:href="io__pdal__PointView_8cpp.html#ad170804ca04c7efdc2b6f18257b452ab" target="_top" xlink:title="Java_io_pdal_PointView\l_empty">
<polygon fill="white" stroke="black" points="182,-35 182,-65 305,-65 305,-35 182,-35"/>
<text text-anchor="start" x="190" y="-53" font-family="Helvetica,sans-Serif" font-size="10.00">Java_io_pdal_PointView</text>
<text text-anchor="middle" x="243.5" y="-42" font-family="Helvetica,sans-Serif" font-size="10.00">_empty</text>
</a>
</g>
</g>
<!-- Node1&#45;&gt;Node2 -->
<g id="edge1" class="edge"><title>Node1&#45;&gt;Node2</title>
<path fill="none" stroke="midnightblue" d="M138.183,-34.5227C149.149,-36.1497 160.596,-37.8481 171.722,-39.4988"/>
<polygon fill="midnightblue" stroke="midnightblue" points="171.42,-42.9923 181.826,-40.9979 172.448,-36.0681 171.42,-42.9923"/>
</g>
<!-- Node3 -->
<g id="node3" class="node"><title>Node3</title>
<g id="a_node3"><a xlink:href="io__pdal__PointView_8cpp.html#a3910b5e0e6e01b04a6e539c8fefe5ef3" target="_top" xlink:title="Java_io_pdal_PointView\l_getCrsProj4">
<polygon fill="white" stroke="black" points="341,-57 341,-87 464,-87 464,-57 341,-57"/>
<text text-anchor="start" x="349" y="-75" font-family="Helvetica,sans-Serif" font-size="10.00">Java_io_pdal_PointView</text>
<text text-anchor="middle" x="402.5" y="-64" font-family="Helvetica,sans-Serif" font-size="10.00">_getCrsProj4</text>
</a>
</g>
</g>
<!-- Node2&#45;&gt;Node3 -->
<g id="edge2" class="edge"><title>Node2&#45;&gt;Node3</title>
<path fill="none" stroke="midnightblue" d="M305.2,-58.5058C313.635,-59.6877 322.359,-60.9102 330.955,-62.1147"/>
<polygon fill="midnightblue" stroke="midnightblue" points="330.572,-65.5952 340.961,-63.5168 331.544,-58.6629 330.572,-65.5952"/>
</g>
<!-- Node4 -->
<g id="node4" class="node"><title>Node4</title>
<g id="a_node4"><a xlink:href="io__pdal__PointView_8cpp.html#a7a0b3bc6dda2240ab6aafe726915d7ee" target="_top" xlink:title="Java_io_pdal_PointView\l_getCrsWKT">
<polygon fill="white" stroke="black" points="500,-68 500,-98 623,-98 623,-68 500,-68"/>
<text text-anchor="start" x="508" y="-86" font-family="Helvetica,sans-Serif" font-size="10.00">Java_io_pdal_PointView</text>
<text text-anchor="middle" x="561.5" y="-75" font-family="Helvetica,sans-Serif" font-size="10.00">_getCrsWKT</text>
</a>
</g>
</g>
<!-- Node3&#45;&gt;Node4 -->
<g id="edge3" class="edge"><title>Node3&#45;&gt;Node4</title>
<path fill="none" stroke="midnightblue" d="M464.2,-76.2529C472.635,-76.8439 481.359,-77.4551 489.955,-78.0573"/>
<polygon fill="midnightblue" stroke="midnightblue" points="489.741,-81.5508 499.961,-78.7584 490.23,-74.568 489.741,-81.5508"/>
</g>
<!-- Node5 -->
<g id="node5" class="node"><title>Node5</title>
<g id="a_node5"><a xlink:href="io__pdal__PointView_8cpp.html#ae26ebc1bcf0b9ddd66beccd20c3356ca" target="_top" xlink:title="Java_io_pdal_PointView\l_getPackedPoint">
<polygon fill="white" stroke="black" points="659,-73 659,-103 782,-103 782,-73 659,-73"/>
<text text-anchor="start" x="667" y="-91" font-family="Helvetica,sans-Serif" font-size="10.00">Java_io_pdal_PointView</text>
<text text-anchor="middle" x="720.5" y="-80" font-family="Helvetica,sans-Serif" font-size="10.00">_getPackedPoint</text>
</a>
</g>
</g>
<!-- Node4&#45;&gt;Node5 -->
<g id="edge4" class="edge"><title>Node4&#45;&gt;Node5</title>
<path fill="none" stroke="midnightblue" d="M623.2,-84.9331C631.635,-85.2018 640.359,-85.4796 648.955,-85.7533"/>
<polygon fill="midnightblue" stroke="midnightblue" points="648.855,-89.2518 658.961,-86.072 649.078,-82.2554 648.855,-89.2518"/>
</g>
<!-- Node6 -->
<g id="node6" class="node"><title>Node6</title>
<g id="a_node6"><a xlink:href="io__pdal__PointView_8cpp.html#ad0eb885be2fafdfed53c74d8c125b9a1" target="_top" xlink:title="convertDimTypeJavaArrayTo\lVector">
<polygon fill="white" stroke="black" points="977,-117 977,-147 1121,-147 1121,-117 977,-117"/>
<text text-anchor="start" x="985" y="-135" font-family="Helvetica,sans-Serif" font-size="10.00">convertDimTypeJavaArrayTo</text>
<text text-anchor="middle" x="1049" y="-124" font-family="Helvetica,sans-Serif" font-size="10.00">Vector</text>
</a>
</g>
</g>
<!-- Node5&#45;&gt;Node6 -->
<g id="edge5" class="edge"><title>Node5&#45;&gt;Node6</title>
<path fill="none" stroke="midnightblue" d="M775.541,-103.025C789.299,-106.412 804.122,-109.686 818,-112 867.057,-120.181 922.594,-125.13 966.803,-128.058"/>
<polygon fill="midnightblue" stroke="midnightblue" points="966.716,-131.56 976.92,-128.706 967.164,-124.574 966.716,-131.56"/>
</g>
<!-- Node13 -->
<g id="node13" class="node"><title>Node13</title>
<g id="a_node13"><a xlink:href="io__pdal__PointView_8cpp.html#a5cd11ffe3330df455cd4981e1d46123b" target="_top" xlink:title="Java_io_pdal_PointView\l_getPackedPoints">
<polygon fill="white" stroke="black" points="818,-73 818,-103 941,-103 941,-73 818,-73"/>
<text text-anchor="start" x="826" y="-91" font-family="Helvetica,sans-Serif" font-size="10.00">Java_io_pdal_PointView</text>
<text text-anchor="middle" x="879.5" y="-80" font-family="Helvetica,sans-Serif" font-size="10.00">_getPackedPoints</text>
</a>
</g>
</g>
<!-- Node5&#45;&gt;Node13 -->
<g id="edge13" class="edge"><title>Node5&#45;&gt;Node13</title>
<path fill="none" stroke="midnightblue" d="M782.2,-88C790.635,-88 799.359,-88 807.955,-88"/>
<polygon fill="midnightblue" stroke="midnightblue" points="807.961,-91.5001 817.961,-88 807.961,-84.5001 807.961,-91.5001"/>
</g>
<!-- Node7 -->
<g id="node7" class="node"><title>Node7</title>
<g id="a_node7"><a xlink:href="namespacepdal_1_1Dimension.html#a10b4c693e3bdbdf1a0eec8f4b008a291" target="_top" xlink:title="pdal::Dimension::id">
<polygon fill="white" stroke="black" points="1168,-160.5 1168,-179.5 1269,-179.5 1269,-160.5 1168,-160.5"/>
<text text-anchor="middle" x="1218.5" y="-167.5" font-family="Helvetica,sans-Serif" font-size="10.00">pdal::Dimension::id</text>
</a>
</g>
</g>
<!-- Node6&#45;&gt;Node7 -->
<g id="edge6" class="edge"><title>Node6&#45;&gt;Node7</title>
<path fill="none" stroke="midnightblue" d="M1116.2,-147.019C1132.55,-150.728 1149.84,-154.65 1165.41,-158.184"/>
<polygon fill="midnightblue" stroke="midnightblue" points="1164.85,-161.644 1175.37,-160.443 1166.4,-154.817 1164.85,-161.644"/>
</g>
<!-- Node9 -->
<g id="node9" class="node"><title>Node9</title>
<g id="a_node9"><a xlink:href="namespacepdal_1_1Dimension.html#acf81dae9d5946f3a941f9df154b2329b" target="_top" xlink:title="pdal::Dimension::size">
<polygon fill="white" stroke="black" points="1163,-122.5 1163,-141.5 1274,-141.5 1274,-122.5 1163,-122.5"/>
<text text-anchor="middle" x="1218.5" y="-129.5" font-family="Helvetica,sans-Serif" font-size="10.00">pdal::Dimension::size</text>
</a>
</g>
</g>
<!-- Node6&#45;&gt;Node9 -->
<g id="edge8" class="edge"><title>Node6&#45;&gt;Node9</title>
<path fill="none" stroke="midnightblue" d="M1121.04,-132C1131.53,-132 1142.31,-132 1152.67,-132"/>
<polygon fill="midnightblue" stroke="midnightblue" points="1152.87,-135.5 1162.87,-132 1152.87,-128.5 1152.87,-135.5"/>
</g>
<!-- Node11 -->
<g id="node11" class="node"><title>Node11</title>
<g id="a_node11"><a xlink:href="namespacepdal_1_1Dimension.html#a880d689fed54aa3ded6f88c9e058c5d2" target="_top" xlink:title="pdal::Dimension::type">
<polygon fill="white" stroke="black" points="1456,-103.5 1456,-122.5 1568,-122.5 1568,-103.5 1456,-103.5"/>
<text text-anchor="middle" x="1512" y="-110.5" font-family="Helvetica,sans-Serif" font-size="10.00">pdal::Dimension::type</text>
</a>
</g>
</g>
<!-- Node6&#45;&gt;Node11 -->
<g id="edge12" class="edge"><title>Node6&#45;&gt;Node11</title>
<path fill="none" stroke="midnightblue" d="M1121.14,-117.572C1133.06,-115.67 1145.35,-114.027 1157,-113 1257.51,-104.145 1374.7,-106.648 1445.83,-109.582"/>
<polygon fill="midnightblue" stroke="midnightblue" points="1445.85,-113.086 1455.99,-110.017 1446.15,-106.092 1445.85,-113.086"/>
</g>
<!-- Node8 -->
<g id="node8" class="node"><title>Node8</title>
<g id="a_node8"><a xlink:href="namespacepdal_1_1Utils.html#a28e3e2faff94b20f9908e77bc54ed983" target="_top" xlink:title="pdal::Utils::toupper">
<polygon fill="white" stroke="black" points="1318.5,-160.5 1318.5,-179.5 1417.5,-179.5 1417.5,-160.5 1318.5,-160.5"/>
<text text-anchor="middle" x="1368" y="-167.5" font-family="Helvetica,sans-Serif" font-size="10.00">pdal::Utils::toupper</text>
</a>
</g>
</g>
<!-- Node7&#45;&gt;Node8 -->
<g id="edge7" class="edge"><title>Node7&#45;&gt;Node8</title>
<path fill="none" stroke="midnightblue" d="M1269.03,-170C1281.57,-170 1295.17,-170 1308.13,-170"/>
<polygon fill="midnightblue" stroke="midnightblue" points="1308.36,-173.5 1318.36,-170 1308.36,-166.5 1308.36,-173.5"/>
</g>
<!-- Node10 -->
<g id="node10" class="node"><title>Node10</title>
<g id="a_node10"><a xlink:href="namespacepdal_1_1Utils.html#a59253304d0f929e3a3ea00f09636002f" target="_top" xlink:title="pdal::Utils::toNative">
<polygon fill="white" stroke="black" points="1316,-122.5 1316,-141.5 1420,-141.5 1420,-122.5 1316,-122.5"/>
<text text-anchor="middle" x="1368" y="-129.5" font-family="Helvetica,sans-Serif" font-size="10.00">pdal::Utils::toNative</text>
</a>
</g>
</g>
<!-- Node9&#45;&gt;Node10 -->
<g id="edge9" class="edge"><title>Node9&#45;&gt;Node10</title>
<path fill="none" stroke="midnightblue" d="M1274,-132C1284.22,-132 1294.97,-132 1305.38,-132"/>
<polygon fill="midnightblue" stroke="midnightblue" points="1305.66,-135.5 1315.66,-132 1305.66,-128.5 1305.66,-135.5"/>
</g>
<!-- Node10&#45;&gt;Node11 -->
<g id="edge10" class="edge"><title>Node10&#45;&gt;Node11</title>
<path fill="none" stroke="midnightblue" d="M1420.27,-125.141C1428.6,-124.025 1437.33,-122.857 1445.95,-121.704"/>
<polygon fill="midnightblue" stroke="midnightblue" points="1446.52,-125.158 1455.97,-120.363 1445.6,-118.22 1446.52,-125.158"/>
</g>
<!-- Node12 -->
<g id="node12" class="node"><title>Node12</title>
<g id="a_node12"><a xlink:href="namespacepdal_1_1Utils.html#a5268937cf695835e55392f752dc02cb2" target="_top" xlink:title="pdal::Utils::tolower">
<polygon fill="white" stroke="black" points="1604,-103.5 1604,-122.5 1702,-122.5 1702,-103.5 1604,-103.5"/>
<text text-anchor="middle" x="1653" y="-110.5" font-family="Helvetica,sans-Serif" font-size="10.00">pdal::Utils::tolower</text>
</a>
</g>
</g>
<!-- Node11&#45;&gt;Node12 -->
<g id="edge11" class="edge"><title>Node11&#45;&gt;Node12</title>
<path fill="none" stroke="midnightblue" d="M1568.34,-113C1576.62,-113 1585.19,-113 1593.55,-113"/>
<polygon fill="midnightblue" stroke="midnightblue" points="1593.59,-116.5 1603.59,-113 1593.59,-109.5 1593.59,-116.5"/>
</g>
<!-- Node13&#45;&gt;Node6 -->
<g id="edge19" class="edge"><title>Node13&#45;&gt;Node6</title>
<path fill="none" stroke="midnightblue" d="M937.676,-103.019C951.613,-106.68 966.646,-110.629 980.995,-114.399"/>
<polygon fill="midnightblue" stroke="midnightblue" points="980.237,-117.818 990.798,-116.974 982.015,-111.048 980.237,-117.818"/>
</g>
<!-- Node14 -->
<g id="node14" class="node"><title>Node14</title>
<g id="a_node14"><a xlink:href="io__pdal__PointView_8cpp.html#ab2efacf1f7c016ec40f3ea316d0a7562" target="_top" xlink:title="appendPackedPoint">
<polygon fill="white" stroke="black" points="997,-78.5 997,-97.5 1101,-97.5 1101,-78.5 997,-78.5"/>
<text text-anchor="middle" x="1049" y="-85.5" font-family="Helvetica,sans-Serif" font-size="10.00">appendPackedPoint</text>
</a>
</g>
</g>
<!-- Node13&#45;&gt;Node14 -->
<g id="edge14" class="edge"><title>Node13&#45;&gt;Node14</title>
<path fill="none" stroke="midnightblue" d="M941.445,-88C956.189,-88 971.954,-88 986.714,-88"/>
<polygon fill="midnightblue" stroke="midnightblue" points="986.747,-91.5001 996.747,-88 986.747,-84.5001 986.747,-91.5001"/>
</g>
<!-- Node18 -->
<g id="node18" class="node"><title>Node18</title>
<g id="a_node18"><a xlink:href="io__pdal__PointView_8cpp.html#a515476d6c9114983a5c16da0b11f268d" target="_top" xlink:title="Java_io_pdal_PointView\l_dispose">
<polygon fill="white" stroke="black" points="987.5,-29 987.5,-59 1110.5,-59 1110.5,-29 987.5,-29"/>
<text text-anchor="start" x="995.5" y="-47" font-family="Helvetica,sans-Serif" font-size="10.00">Java_io_pdal_PointView</text>
<text text-anchor="middle" x="1049" y="-36" font-family="Helvetica,sans-Serif" font-size="10.00">_dispose</text>
</a>
</g>
</g>
<!-- Node13&#45;&gt;Node18 -->
<g id="edge20" class="edge"><title>Node13&#45;&gt;Node18</title>
<path fill="none" stroke="midnightblue" d="M937.676,-72.9808C951.613,-69.3196 966.646,-65.3706 980.995,-61.6013"/>
<polygon fill="midnightblue" stroke="midnightblue" points="982.015,-64.9521 990.798,-59.0262 980.237,-58.1818 982.015,-64.9521"/>
</g>
<!-- Node15 -->
<g id="node15" class="node"><title>Node15</title>
<g id="a_node15"><a xlink:href="io__pdal__PointView_8cpp.html#a264939bfd8d642a33f06ce16b95b37cc" target="_top" xlink:title="Java_io_pdal_PointView\l_layout">
<polygon fill="white" stroke="black" points="1157,-10 1157,-40 1280,-40 1280,-10 1157,-10"/>
<text text-anchor="start" x="1165" y="-28" font-family="Helvetica,sans-Serif" font-size="10.00">Java_io_pdal_PointView</text>
<text text-anchor="middle" x="1218.5" y="-17" font-family="Helvetica,sans-Serif" font-size="10.00">_layout</text>
</a>
</g>
</g>
<!-- Node14&#45;&gt;Node15 -->
<g id="edge15" class="edge"><title>Node14&#45;&gt;Node15</title>
<path fill="none" stroke="midnightblue" d="M1087.91,-78.415C1098.7,-75.3917 1110.4,-71.8312 1121,-68 1139.92,-61.1605 1160.34,-52.2879 1177.51,-44.38"/>
<polygon fill="midnightblue" stroke="midnightblue" points="1179.09,-47.5026 1186.68,-40.1051 1176.13,-41.1581 1179.09,-47.5026"/>
</g>
<!-- Node15&#45;&gt;Node1 -->
<g id="edge16" class="edge"><title>Node15&#45;&gt;Node1</title>
<path fill="none" stroke="midnightblue" d="M1156.72,-17.769C1089.32,-10.3855 977.302,-1.42109e-14 880.5,-0 401.5,-0 401.5,-0 401.5,-0 317.701,-0 222.19,-8.23825 156.028,-15.2565"/>
<polygon fill="midnightblue" stroke="midnightblue" points="155.645,-11.7774 146.076,-16.3264 156.393,-18.7373 155.645,-11.7774"/>
</g>
<!-- Node16 -->
<g id="node16" class="node"><title>Node16</title>
<g id="a_node16"><a xlink:href="Accessors_8hpp.html#a0096ef2a758f9041ca6424e09c2df937" target="_top" xlink:title="setHandle">
<polygon fill="white" stroke="black" points="1337.5,-15.5 1337.5,-34.5 1398.5,-34.5 1398.5,-15.5 1337.5,-15.5"/>
<text text-anchor="middle" x="1368" y="-22.5" font-family="Helvetica,sans-Serif" font-size="10.00">setHandle</text>
</a>
</g>
</g>
<!-- Node15&#45;&gt;Node16 -->
<g id="edge17" class="edge"><title>Node15&#45;&gt;Node16</title>
<path fill="none" stroke="midnightblue" d="M1280.35,-25C1296.18,-25 1312.84,-25 1327.27,-25"/>
<polygon fill="midnightblue" stroke="midnightblue" points="1327.34,-28.5001 1337.34,-25 1327.34,-21.5001 1327.34,-28.5001"/>
</g>
<!-- Node17 -->
<g id="node17" class="node"><title>Node17</title>
<g id="a_node17"><a xlink:href="Accessors_8hpp.html#abf11be145f9b6e8546356546c1f46d88" target="_top" xlink:title="getHandleField">
<polygon fill="white" stroke="black" points="1471,-15.5 1471,-34.5 1553,-34.5 1553,-15.5 1471,-15.5"/>
<text text-anchor="middle" x="1512" y="-22.5" font-family="Helvetica,sans-Serif" font-size="10.00">getHandleField</text>
</a>
</g>
</g>
<!-- Node16&#45;&gt;Node17 -->
<g id="edge18" class="edge"><title>Node16&#45;&gt;Node17</title>
<path fill="none" stroke="midnightblue" d="M1398.77,-25C1416.65,-25 1439.87,-25 1460.54,-25"/>
<polygon fill="midnightblue" stroke="midnightblue" points="1460.77,-28.5001 1470.77,-25 1460.77,-21.5001 1460.77,-28.5001"/>
</g>
</g>
</svg>
