<?xml version="1.0" encoding="UTF-8" standalone="no"?>
<!DOCTYPE svg PUBLIC "-//W3C//DTD SVG 1.1//EN"
 "http://www.w3.org/Graphics/SVG/1.1/DTD/svg11.dtd">
<!-- Generated by graphviz version 2.38.0 (20140413.2041)
 -->
<!-- Title: pdal/java/native/src/include/io_pdal_PointView.h Pages: 1 -->
<svg width="150pt" height="106pt"
 viewBox="0.00 0.00 150.00 106.00" xmlns="http://www.w3.org/2000/svg" xmlns:xlink="http://www.w3.org/1999/xlink">
<g id="graph0" class="graph" transform="scale(1 1) rotate(0) translate(4 102)">
<title>pdal/java/native/src/include/io_pdal_PointView.h</title>
<polygon fill="white" stroke="none" points="-4,4 -4,-102 146,-102 146,4 -4,4"/>
<!-- Node1 -->
<g id="node1" class="node"><title>Node1</title>
<polygon fill="#bfbfbf" stroke="black" points="0,-67.5 0,-97.5 142,-97.5 142,-67.5 0,-67.5"/>
<text text-anchor="start" x="8" y="-85.5" font-family="Helvetica,sans-Serif" font-size="10.00">pdal/java/native/src</text>
<text text-anchor="middle" x="71" y="-74.5" font-family="Helvetica,sans-Serif" font-size="10.00">/include/io_pdal_PointView.h</text>
</g>
<!-- Node2 -->
<g id="node2" class="node"><title>Node2</title>
<g id="a_node2"><a xlink:href="io__pdal__PointView_8cpp.html" target="_top" xlink:title="pdal/java/native/src\l/io_pdal_PointView.cpp">
<polygon fill="white" stroke="black" points="11.5,-0.5 11.5,-30.5 130.5,-30.5 130.5,-0.5 11.5,-0.5"/>
<text text-anchor="start" x="19.5" y="-18.5" font-family="Helvetica,sans-Serif" font-size="10.00">pdal/java/native/src</text>
<text text-anchor="middle" x="71" y="-7.5" font-family="Helvetica,sans-Serif" font-size="10.00">/io_pdal_PointView.cpp</text>
</a>
</g>
</g>
<!-- Node1&#45;&gt;Node2 -->
<g id="edge1" class="edge"><title>Node1&#45;&gt;Node2</title>
<path fill="none" stroke="midnightblue" d="M71,-57.1081C71,-48.1539 71,-38.3227 71,-30.5765"/>
<polygon fill="midnightblue" stroke="midnightblue" points="67.5001,-57.3959 71,-67.396 74.5001,-57.396 67.5001,-57.3959"/>
</g>
</g>
</svg>
