<?xml version="1.0" encoding="UTF-8" standalone="no"?>
<!DOCTYPE svg PUBLIC "-//W3C//DTD SVG 1.1//EN"
 "http://www.w3.org/Graphics/SVG/1.1/DTD/svg11.dtd">
<!-- Generated by graphviz version 2.38.0 (20140413.2041)
 -->
<!-- Title: pdal/pdal/util/IStream.hpp Pages: 1 -->
<svg width="3289pt" height="363pt"
 viewBox="0.00 0.00 3288.50 363.00" xmlns="http://www.w3.org/2000/svg" xmlns:xlink="http://www.w3.org/1999/xlink">
<g id="graph0" class="graph" transform="scale(1 1) rotate(0) translate(4 359)">
<title>pdal/pdal/util/IStream.hpp</title>
<polygon fill="white" stroke="none" points="-4,4 -4,-359 3284.5,-359 3284.5,4 -4,4"/>
<!-- Node1 -->
<g id="node1" class="node"><title>Node1</title>
<polygon fill="#bfbfbf" stroke="black" points="1497.5,-335.5 1497.5,-354.5 1625.5,-354.5 1625.5,-335.5 1497.5,-335.5"/>
<text text-anchor="middle" x="1561.5" y="-342.5" font-family="Helvetica,sans-Serif" font-size="10.00">pdal/pdal/util/IStream.hpp</text>
</g>
<!-- Node2 -->
<g id="node2" class="node"><title>Node2</title>
<g id="a_node2"><a xlink:href="MyReader_8hpp.html" target="_top" xlink:title="pdal/examples/writing\l&#45;reader/MyReader.hpp">
<polygon fill="white" stroke="black" points="0,-268.5 0,-298.5 113,-298.5 113,-268.5 0,-268.5"/>
<text text-anchor="start" x="8" y="-286.5" font-family="Helvetica,sans-Serif" font-size="10.00">pdal/examples/writing</text>
<text text-anchor="middle" x="56.5" y="-275.5" font-family="Helvetica,sans-Serif" font-size="10.00">&#45;reader/MyReader.hpp</text>
</a>
</g>
</g>
<!-- Node1&#45;&gt;Node2 -->
<g id="edge1" class="edge"><title>Node1&#45;&gt;Node2</title>
<path fill="none" stroke="midnightblue" d="M1487.11,-343.525C1231.42,-341.602 389.672,-332.796 121.5,-299 118.747,-298.653 115.939,-298.244 113.11,-297.787"/>
<polygon fill="midnightblue" stroke="midnightblue" points="1487.37,-347.027 1497.4,-343.601 1487.42,-340.027 1487.37,-347.027"/>
</g>
<!-- Node4 -->
<g id="node4" class="node"><title>Node4</title>
<g id="a_node4"><a xlink:href="BpfHeader_8cpp.html" target="_top" xlink:title="pdal/io/BpfHeader.cpp">
<polygon fill="white" stroke="black" points="131,-274 131,-293 244,-293 244,-274 131,-274"/>
<text text-anchor="middle" x="187.5" y="-281" font-family="Helvetica,sans-Serif" font-size="10.00">pdal/io/BpfHeader.cpp</text>
</a>
</g>
</g>
<!-- Node1&#45;&gt;Node4 -->
<g id="edge3" class="edge"><title>Node1&#45;&gt;Node4</title>
<path fill="none" stroke="midnightblue" d="M1487.03,-343.063C1247.55,-339.794 498.948,-327.503 258.5,-299 247.006,-297.638 234.604,-295.382 223.43,-293.05"/>
<polygon fill="midnightblue" stroke="midnightblue" points="1487.32,-346.568 1497.37,-343.203 1487.41,-339.568 1487.32,-346.568"/>
</g>
<!-- Node5 -->
<g id="node5" class="node"><title>Node5</title>
<g id="a_node5"><a xlink:href="BpfReader_8hpp.html" target="_top" xlink:title="pdal/io/BpfReader.hpp">
<polygon fill="white" stroke="black" points="169,-73 169,-92 282,-92 282,-73 169,-73"/>
<text text-anchor="middle" x="225.5" y="-80" font-family="Helvetica,sans-Serif" font-size="10.00">pdal/io/BpfReader.hpp</text>
</a>
</g>
</g>
<!-- Node1&#45;&gt;Node5 -->
<g id="edge4" class="edge"><title>Node1&#45;&gt;Node5</title>
<path fill="none" stroke="midnightblue" d="M1487,-344.416C1272.95,-345.064 659.007,-342.927 463.5,-299 389.08,-282.279 361.885,-283.367 305.5,-232 260.039,-190.585 235.329,-117.189 227.917,-92.1495"/>
<polygon fill="midnightblue" stroke="midnightblue" points="1487.2,-347.916 1497.19,-344.383 1487.18,-340.916 1487.2,-347.916"/>
</g>
<!-- Node10 -->
<g id="node10" class="node"><title>Node10</title>
<g id="a_node10"><a xlink:href="Ilvis2Reader_8hpp.html" target="_top" xlink:title="pdal/io/Ilvis2Reader.hpp">
<polygon fill="white" stroke="black" points="472.5,-274 472.5,-293 594.5,-293 594.5,-274 472.5,-274"/>
<text text-anchor="middle" x="533.5" y="-281" font-family="Helvetica,sans-Serif" font-size="10.00">pdal/io/Ilvis2Reader.hpp</text>
</a>
</g>
</g>
<!-- Node1&#45;&gt;Node10 -->
<g id="edge9" class="edge"><title>Node1&#45;&gt;Node10</title>
<path fill="none" stroke="midnightblue" d="M1487.08,-339.693C1292.77,-328.446 772.851,-298.353 594.522,-288.032"/>
<polygon fill="midnightblue" stroke="midnightblue" points="1487.01,-343.194 1497.19,-340.278 1487.41,-336.206 1487.01,-343.194"/>
</g>
<!-- Node14 -->
<g id="node14" class="node"><title>Node14</title>
<g id="a_node14"><a xlink:href="LasVLR_8hpp.html" target="_top" xlink:title="pdal/io/LasVLR.hpp">
<polygon fill="white" stroke="black" points="1113.5,-274 1113.5,-293 1215.5,-293 1215.5,-274 1113.5,-274"/>
<text text-anchor="middle" x="1164.5" y="-281" font-family="Helvetica,sans-Serif" font-size="10.00">pdal/io/LasVLR.hpp</text>
</a>
</g>
</g>
<!-- Node1&#45;&gt;Node14 -->
<g id="edge14" class="edge"><title>Node1&#45;&gt;Node14</title>
<path fill="none" stroke="midnightblue" d="M1494.32,-333.931C1415.53,-322.124 1286.69,-302.813 1215.6,-292.159"/>
<polygon fill="midnightblue" stroke="midnightblue" points="1494.21,-337.454 1504.62,-335.475 1495.25,-330.531 1494.21,-337.454"/>
</g>
<!-- Node22 -->
<g id="node22" class="node"><title>Node22</title>
<g id="a_node22"><a xlink:href="LasReader_8cpp.html" target="_top" xlink:title="pdal/io/LasReader.cpp">
<polygon fill="white" stroke="black" points="1540.5,-73 1540.5,-92 1654.5,-92 1654.5,-73 1540.5,-73"/>
<text text-anchor="middle" x="1597.5" y="-80" font-family="Helvetica,sans-Serif" font-size="10.00">pdal/io/LasReader.cpp</text>
</a>
</g>
</g>
<!-- Node1&#45;&gt;Node22 -->
<g id="edge39" class="edge"><title>Node1&#45;&gt;Node22</title>
<path fill="none" stroke="midnightblue" d="M1487.58,-332.987C1463.13,-326.387 1437.17,-315.842 1417.5,-299 1382.59,-269.112 1361.13,-240.575 1384.5,-201 1422.29,-136.994 1508.79,-105.459 1559.17,-92.0005"/>
<polygon fill="midnightblue" stroke="midnightblue" points="1487.03,-336.458 1497.59,-335.497 1488.74,-329.668 1487.03,-336.458"/>
</g>
<!-- Node28 -->
<g id="node28" class="node"><title>Node28</title>
<g id="a_node28"><a xlink:href="NitfWrap_8cpp.html" target="_top" xlink:title="pdal/tools/nitfwrap\l/NitfWrap.cpp">
<polygon fill="white" stroke="black" points="1069.5,-134.5 1069.5,-164.5 1165.5,-164.5 1165.5,-134.5 1069.5,-134.5"/>
<text text-anchor="start" x="1077.5" y="-152.5" font-family="Helvetica,sans-Serif" font-size="10.00">pdal/tools/nitfwrap</text>
<text text-anchor="middle" x="1117.5" y="-141.5" font-family="Helvetica,sans-Serif" font-size="10.00">/NitfWrap.cpp</text>
</a>
</g>
</g>
<!-- Node1&#45;&gt;Node28 -->
<g id="edge67" class="edge"><title>Node1&#45;&gt;Node28</title>
<path fill="none" stroke="midnightblue" d="M1508.64,-332.977C1480.46,-325.769 1445.85,-314.729 1417.5,-299 1359.07,-266.588 1362.53,-232.303 1303.5,-201 1259.75,-177.799 1204.42,-164.546 1165.52,-157.492"/>
<polygon fill="midnightblue" stroke="midnightblue" points="1508.16,-336.463 1518.71,-335.46 1509.84,-329.667 1508.16,-336.463"/>
</g>
<!-- Node30 -->
<g id="node30" class="node"><title>Node30</title>
<g id="a_node30"><a xlink:href="OptechReader_8hpp.html" target="_top" xlink:title="pdal/io/OptechReader.hpp">
<polygon fill="white" stroke="black" points="1426.5,-274 1426.5,-293 1556.5,-293 1556.5,-274 1426.5,-274"/>
<text text-anchor="middle" x="1491.5" y="-281" font-family="Helvetica,sans-Serif" font-size="10.00">pdal/io/OptechReader.hpp</text>
</a>
</g>
</g>
<!-- Node1&#45;&gt;Node30 -->
<g id="edge40" class="edge"><title>Node1&#45;&gt;Node30</title>
<path fill="none" stroke="midnightblue" d="M1543.82,-328.973C1530.43,-317.593 1512.52,-302.369 1501.51,-293.009"/>
<polygon fill="midnightblue" stroke="midnightblue" points="1541.58,-331.665 1551.47,-335.475 1546.12,-326.332 1541.58,-331.665"/>
</g>
<!-- Node33 -->
<g id="node33" class="node"><title>Node33</title>
<g id="a_node33"><a xlink:href="PlyReader_8cpp.html" target="_top" xlink:title="pdal/io/PlyReader.cpp">
<polygon fill="white" stroke="black" points="1575,-274 1575,-293 1688,-293 1688,-274 1575,-274"/>
<text text-anchor="middle" x="1631.5" y="-281" font-family="Helvetica,sans-Serif" font-size="10.00">pdal/io/PlyReader.cpp</text>
</a>
</g>
</g>
<!-- Node1&#45;&gt;Node33 -->
<g id="edge44" class="edge"><title>Node1&#45;&gt;Node33</title>
<path fill="none" stroke="midnightblue" d="M1579.18,-328.973C1592.57,-317.593 1610.48,-302.369 1621.49,-293.009"/>
<polygon fill="midnightblue" stroke="midnightblue" points="1576.88,-326.332 1571.53,-335.475 1581.42,-331.665 1576.88,-326.332"/>
</g>
<!-- Node34 -->
<g id="node34" class="node"><title>Node34</title>
<g id="a_node34"><a xlink:href="QfitReader_8hpp.html" target="_top" xlink:title="pdal/io/QfitReader.hpp">
<polygon fill="white" stroke="black" points="1727.5,-274 1727.5,-293 1841.5,-293 1841.5,-274 1727.5,-274"/>
<text text-anchor="middle" x="1784.5" y="-281" font-family="Helvetica,sans-Serif" font-size="10.00">pdal/io/QfitReader.hpp</text>
</a>
</g>
</g>
<!-- Node1&#45;&gt;Node34 -->
<g id="edge45" class="edge"><title>Node1&#45;&gt;Node34</title>
<path fill="none" stroke="midnightblue" d="M1603.12,-332.896C1646.43,-321.34 1713.31,-303.495 1752.61,-293.009"/>
<polygon fill="midnightblue" stroke="midnightblue" points="1602.21,-329.515 1593.45,-335.475 1604.01,-336.279 1602.21,-329.515"/>
</g>
<!-- Node37 -->
<g id="node37" class="node"><title>Node37</title>
<g id="a_node37"><a xlink:href="SbetReader_8hpp.html" target="_top" xlink:title="pdal/io/SbetReader.hpp">
<polygon fill="white" stroke="black" points="2077,-274 2077,-293 2196,-293 2196,-274 2077,-274"/>
<text text-anchor="middle" x="2136.5" y="-281" font-family="Helvetica,sans-Serif" font-size="10.00">pdal/io/SbetReader.hpp</text>
</a>
</g>
</g>
<!-- Node1&#45;&gt;Node37 -->
<g id="edge49" class="edge"><title>Node1&#45;&gt;Node37</title>
<path fill="none" stroke="midnightblue" d="M1635.66,-336.326C1751.01,-324.389 1971.13,-301.612 2076.88,-290.669"/>
<polygon fill="midnightblue" stroke="midnightblue" points="1635.1,-332.866 1625.51,-337.376 1635.82,-339.829 1635.1,-332.866"/>
</g>
<!-- Node41 -->
<g id="node41" class="node"><title>Node41</title>
<g id="a_node41"><a xlink:href="TerrasolidReader_8hpp.html" target="_top" xlink:title="pdal/io/TerrasolidReader.hpp">
<polygon fill="white" stroke="black" points="2512,-274 2512,-293 2653,-293 2653,-274 2512,-274"/>
<text text-anchor="middle" x="2582.5" y="-281" font-family="Helvetica,sans-Serif" font-size="10.00">pdal/io/TerrasolidReader.hpp</text>
</a>
</g>
</g>
<!-- Node1&#45;&gt;Node41 -->
<g id="edge54" class="edge"><title>Node1&#45;&gt;Node41</title>
<path fill="none" stroke="midnightblue" d="M1635.91,-339.664C1825.7,-328.603 2325.91,-299.453 2511.7,-288.626"/>
<polygon fill="midnightblue" stroke="midnightblue" points="1635.53,-336.18 1625.75,-340.255 1635.94,-343.168 1635.53,-336.18"/>
</g>
<!-- Node44 -->
<g id="node44" class="node"><title>Node44</title>
<g id="a_node44"><a xlink:href="OSGReader_8hpp.html" target="_top" xlink:title="pdal/plugins/openscenegraph\l/io/OSGReader.hpp">
<polygon fill="white" stroke="black" points="2744,-268.5 2744,-298.5 2887,-298.5 2887,-268.5 2744,-268.5"/>
<text text-anchor="start" x="2752" y="-286.5" font-family="Helvetica,sans-Serif" font-size="10.00">pdal/plugins/openscenegraph</text>
<text text-anchor="middle" x="2815.5" y="-275.5" font-family="Helvetica,sans-Serif" font-size="10.00">/io/OSGReader.hpp</text>
</a>
</g>
</g>
<!-- Node1&#45;&gt;Node44 -->
<g id="edge58" class="edge"><title>Node1&#45;&gt;Node44</title>
<path fill="none" stroke="midnightblue" d="M1635.74,-342.321C1813.19,-338.011 2275.91,-325.022 2661.5,-299 2688.43,-297.183 2717.95,-294.558 2743.87,-292.039"/>
<polygon fill="midnightblue" stroke="midnightblue" points="1635.64,-338.822 1625.73,-342.562 1635.81,-345.82 1635.64,-338.822"/>
</g>
<!-- Node46 -->
<g id="node46" class="node"><title>Node46</title>
<g id="a_node46"><a xlink:href="Dumper_8cpp.html" target="_top" xlink:title="pdal/tools/lasdump\l/Dumper.cpp">
<polygon fill="white" stroke="black" points="3027.5,-134.5 3027.5,-164.5 3125.5,-164.5 3125.5,-134.5 3027.5,-134.5"/>
<text text-anchor="start" x="3035.5" y="-152.5" font-family="Helvetica,sans-Serif" font-size="10.00">pdal/tools/lasdump</text>
<text text-anchor="middle" x="3076.5" y="-141.5" font-family="Helvetica,sans-Serif" font-size="10.00">/Dumper.cpp</text>
</a>
</g>
</g>
<!-- Node1&#45;&gt;Node46 -->
<g id="edge60" class="edge"><title>Node1&#45;&gt;Node46</title>
<path fill="none" stroke="midnightblue" d="M1635.69,-343.494C1898.24,-341.431 2774.09,-332.111 2895.5,-299 2955.56,-282.621 2971.93,-273.306 3018.5,-232 3040.85,-212.18 3059.35,-182.203 3069.08,-164.664"/>
<polygon fill="midnightblue" stroke="midnightblue" points="1635.47,-339.996 1625.5,-343.573 1635.53,-346.996 1635.47,-339.996"/>
</g>
<!-- Node47 -->
<g id="node47" class="node"><title>Node47</title>
<g id="a_node47"><a xlink:href="Header_8hpp.html" target="_top" xlink:title="pdal/tools/lasdump\l/Header.hpp">
<polygon fill="white" stroke="black" points="3182.5,-268.5 3182.5,-298.5 3280.5,-298.5 3280.5,-268.5 3182.5,-268.5"/>
<text text-anchor="start" x="3190.5" y="-286.5" font-family="Helvetica,sans-Serif" font-size="10.00">pdal/tools/lasdump</text>
<text text-anchor="middle" x="3231.5" y="-275.5" font-family="Helvetica,sans-Serif" font-size="10.00">/Header.hpp</text>
</a>
</g>
</g>
<!-- Node1&#45;&gt;Node47 -->
<g id="edge61" class="edge"><title>Node1&#45;&gt;Node47</title>
<path fill="none" stroke="midnightblue" d="M1635.85,-344.064C1910.92,-343.969 2870.56,-340.593 3173.5,-299 3176.38,-298.605 3179.32,-298.122 3182.28,-297.577"/>
<polygon fill="midnightblue" stroke="midnightblue" points="1635.58,-340.564 1625.58,-344.066 1635.58,-347.564 1635.58,-340.564"/>
</g>
<!-- Node50 -->
<g id="node50" class="node"><title>Node50</title>
<g id="a_node50"><a xlink:href="Vlr_8hpp.html" target="_top" xlink:title="pdal/tools/lasdump\l/Vlr.hpp">
<polygon fill="white" stroke="black" points="3066.5,-268.5 3066.5,-298.5 3164.5,-298.5 3164.5,-268.5 3066.5,-268.5"/>
<text text-anchor="start" x="3074.5" y="-286.5" font-family="Helvetica,sans-Serif" font-size="10.00">pdal/tools/lasdump</text>
<text text-anchor="middle" x="3115.5" y="-275.5" font-family="Helvetica,sans-Serif" font-size="10.00">/Vlr.hpp</text>
</a>
</g>
</g>
<!-- Node1&#45;&gt;Node50 -->
<g id="edge65" class="edge"><title>Node1&#45;&gt;Node50</title>
<path fill="none" stroke="midnightblue" d="M1635.9,-343.683C1897.46,-342.269 2774.01,-334.898 3052.5,-299 3057.06,-298.412 3061.78,-297.64 3066.49,-296.759"/>
<polygon fill="midnightblue" stroke="midnightblue" points="1635.73,-340.184 1625.75,-343.737 1635.76,-347.184 1635.73,-340.184"/>
</g>
<!-- Node3 -->
<g id="node3" class="node"><title>Node3</title>
<g id="a_node3"><a xlink:href="MyReader_8cpp.html" target="_top" xlink:title="pdal/examples/writing\l&#45;reader/MyReader.cpp">
<polygon fill="white" stroke="black" points="0,-201.5 0,-231.5 113,-231.5 113,-201.5 0,-201.5"/>
<text text-anchor="start" x="8" y="-219.5" font-family="Helvetica,sans-Serif" font-size="10.00">pdal/examples/writing</text>
<text text-anchor="middle" x="56.5" y="-208.5" font-family="Helvetica,sans-Serif" font-size="10.00">&#45;reader/MyReader.cpp</text>
</a>
</g>
</g>
<!-- Node2&#45;&gt;Node3 -->
<g id="edge2" class="edge"><title>Node2&#45;&gt;Node3</title>
<path fill="none" stroke="midnightblue" d="M56.5,-258.108C56.5,-249.154 56.5,-239.323 56.5,-231.577"/>
<polygon fill="midnightblue" stroke="midnightblue" points="53.0001,-258.396 56.5,-268.396 60.0001,-258.396 53.0001,-258.396"/>
</g>
<!-- Node6 -->
<g id="node6" class="node"><title>Node6</title>
<g id="a_node6"><a xlink:href="BpfReader_8cpp.html" target="_top" xlink:title="pdal/io/BpfReader.cpp">
<polygon fill="white" stroke="black" points="96,-6 96,-25 209,-25 209,-6 96,-6"/>
<text text-anchor="middle" x="152.5" y="-13" font-family="Helvetica,sans-Serif" font-size="10.00">pdal/io/BpfReader.cpp</text>
</a>
</g>
</g>
<!-- Node5&#45;&gt;Node6 -->
<g id="edge5" class="edge"><title>Node5&#45;&gt;Node6</title>
<path fill="none" stroke="midnightblue" d="M207.931,-65.8564C193.58,-53.0777 173.829,-35.4915 162.189,-25.1273"/>
<polygon fill="midnightblue" stroke="midnightblue" points="205.859,-68.6978 215.655,-72.7338 210.514,-63.4698 205.859,-68.6978"/>
</g>
<!-- Node7 -->
<g id="node7" class="node"><title>Node7</title>
<g id="a_node7"><a xlink:href="StageFactory_8cpp.html" target="_top" xlink:title="pdal/pdal/StageFactory.cpp">
<polygon fill="white" stroke="black" points="855.5,-6 855.5,-25 991.5,-25 991.5,-6 855.5,-6"/>
<text text-anchor="middle" x="923.5" y="-13" font-family="Helvetica,sans-Serif" font-size="10.00">pdal/pdal/StageFactory.cpp</text>
</a>
</g>
</g>
<!-- Node5&#45;&gt;Node7 -->
<g id="edge6" class="edge"><title>Node5&#45;&gt;Node7</title>
<path fill="none" stroke="midnightblue" d="M272.766,-71.0177C280.663,-69.5051 288.793,-68.0933 296.5,-67 350.663,-59.3168 704.165,-32.7227 855.229,-21.5284"/>
<polygon fill="midnightblue" stroke="midnightblue" points="272.063,-67.589 262.937,-72.9711 273.427,-74.4547 272.063,-67.589"/>
</g>
<!-- Node8 -->
<g id="node8" class="node"><title>Node8</title>
<g id="a_node8"><a xlink:href="BPFTest_8cpp.html" target="_top" xlink:title="pdal/test/unit/io/BPFTest.cpp">
<polygon fill="white" stroke="black" points="227.5,-6 227.5,-25 371.5,-25 371.5,-6 227.5,-6"/>
<text text-anchor="middle" x="299.5" y="-13" font-family="Helvetica,sans-Serif" font-size="10.00">pdal/test/unit/io/BPFTest.cpp</text>
</a>
</g>
</g>
<!-- Node5&#45;&gt;Node8 -->
<g id="edge7" class="edge"><title>Node5&#45;&gt;Node8</title>
<path fill="none" stroke="midnightblue" d="M243.31,-65.8564C257.858,-53.0777 277.879,-35.4915 289.678,-25.1273"/>
<polygon fill="midnightblue" stroke="midnightblue" points="240.683,-63.5047 235.48,-72.7338 245.303,-68.764 240.683,-63.5047"/>
</g>
<!-- Node9 -->
<g id="node9" class="node"><title>Node9</title>
<g id="a_node9"><a xlink:href="LasWriterTest_8cpp.html" target="_top" xlink:title="pdal/test/unit/io/LasWriter\lTest.cpp">
<polygon fill="white" stroke="black" points="587.5,-0.5 587.5,-30.5 715.5,-30.5 715.5,-0.5 587.5,-0.5"/>
<text text-anchor="start" x="595.5" y="-18.5" font-family="Helvetica,sans-Serif" font-size="10.00">pdal/test/unit/io/LasWriter</text>
<text text-anchor="middle" x="651.5" y="-7.5" font-family="Helvetica,sans-Serif" font-size="10.00">Test.cpp</text>
</a>
</g>
</g>
<!-- Node5&#45;&gt;Node9 -->
<g id="edge8" class="edge"><title>Node5&#45;&gt;Node9</title>
<path fill="none" stroke="midnightblue" d="M275.431,-70.9098C282.492,-69.5269 289.67,-68.1821 296.5,-67 397.712,-49.4825 515.929,-33.5674 587.186,-24.4662"/>
<polygon fill="midnightblue" stroke="midnightblue" points="274.345,-67.5574 265.225,-72.9484 275.717,-74.4218 274.345,-67.5574"/>
</g>
<!-- Node10&#45;&gt;Node7 -->
<g id="edge11" class="edge"><title>Node10&#45;&gt;Node7</title>
<path fill="none" stroke="midnightblue" d="M462.558,-274.246C410.447,-266.553 345.978,-253.054 329.5,-232 296.012,-189.211 271.461,-146.673 367.5,-67 376.796,-59.2886 708.85,-32.9582 855.29,-21.6874"/>
<polygon fill="midnightblue" stroke="midnightblue" points="462.069,-277.712 472.464,-275.662 463.06,-270.782 462.069,-277.712"/>
</g>
<!-- Node11 -->
<g id="node11" class="node"><title>Node11</title>
<g id="a_node11"><a xlink:href="Ilvis2Reader_8cpp.html" target="_top" xlink:title="pdal/io/Ilvis2Reader.cpp">
<polygon fill="white" stroke="black" points="338.5,-207 338.5,-226 460.5,-226 460.5,-207 338.5,-207"/>
<text text-anchor="middle" x="399.5" y="-214" font-family="Helvetica,sans-Serif" font-size="10.00">pdal/io/Ilvis2Reader.cpp</text>
</a>
</g>
</g>
<!-- Node10&#45;&gt;Node11 -->
<g id="edge10" class="edge"><title>Node10&#45;&gt;Node11</title>
<path fill="none" stroke="midnightblue" d="M506.584,-269.444C480.042,-256.569 440.23,-237.257 417.368,-226.167"/>
<polygon fill="midnightblue" stroke="midnightblue" points="505.181,-272.653 515.706,-273.869 508.236,-266.355 505.181,-272.653"/>
</g>
<!-- Node12 -->
<g id="node12" class="node"><title>Node12</title>
<g id="a_node12"><a xlink:href="Ilvis2ReaderTest_8cpp.html" target="_top" xlink:title="pdal/test/unit/io/Ilvis2\lReaderTest.cpp">
<polygon fill="white" stroke="black" points="478.5,-201.5 478.5,-231.5 588.5,-231.5 588.5,-201.5 478.5,-201.5"/>
<text text-anchor="start" x="486.5" y="-219.5" font-family="Helvetica,sans-Serif" font-size="10.00">pdal/test/unit/io/Ilvis2</text>
<text text-anchor="middle" x="533.5" y="-208.5" font-family="Helvetica,sans-Serif" font-size="10.00">ReaderTest.cpp</text>
</a>
</g>
</g>
<!-- Node10&#45;&gt;Node12 -->
<g id="edge12" class="edge"><title>Node10&#45;&gt;Node12</title>
<path fill="none" stroke="midnightblue" d="M533.5,-263.411C533.5,-253.222 533.5,-240.901 533.5,-231.589"/>
<polygon fill="midnightblue" stroke="midnightblue" points="530,-263.734 533.5,-273.734 537,-263.734 530,-263.734"/>
</g>
<!-- Node13 -->
<g id="node13" class="node"><title>Node13</title>
<g id="a_node13"><a xlink:href="Ilvis2ReaderWithMDReaderTest_8cpp.html" target="_top" xlink:title="pdal/test/unit/io/Ilvis2\lReaderWithMDReaderTest.cpp">
<polygon fill="white" stroke="black" points="606.5,-201.5 606.5,-231.5 760.5,-231.5 760.5,-201.5 606.5,-201.5"/>
<text text-anchor="start" x="614.5" y="-219.5" font-family="Helvetica,sans-Serif" font-size="10.00">pdal/test/unit/io/Ilvis2</text>
<text text-anchor="middle" x="683.5" y="-208.5" font-family="Helvetica,sans-Serif" font-size="10.00">ReaderWithMDReaderTest.cpp</text>
</a>
</g>
</g>
<!-- Node10&#45;&gt;Node13 -->
<g id="edge13" class="edge"><title>Node10&#45;&gt;Node13</title>
<path fill="none" stroke="midnightblue" d="M562.884,-269.767C588.272,-258.766 624.904,-242.892 651.128,-231.528"/>
<polygon fill="midnightblue" stroke="midnightblue" points="561.203,-266.681 553.419,-273.869 563.986,-273.104 561.203,-266.681"/>
</g>
<!-- Node15 -->
<g id="node15" class="node"><title>Node15</title>
<g id="a_node15"><a xlink:href="GeotiffSupport_8cpp.html" target="_top" xlink:title="pdal/io/GeotiffSupport.cpp">
<polygon fill="white" stroke="black" points="778.5,-207 778.5,-226 908.5,-226 908.5,-207 778.5,-207"/>
<text text-anchor="middle" x="843.5" y="-214" font-family="Helvetica,sans-Serif" font-size="10.00">pdal/io/GeotiffSupport.cpp</text>
</a>
</g>
</g>
<!-- Node14&#45;&gt;Node15 -->
<g id="edge15" class="edge"><title>Node14&#45;&gt;Node15</title>
<path fill="none" stroke="midnightblue" d="M1112.05,-271.879C1048.83,-259.077 943.845,-237.819 885.634,-226.032"/>
<polygon fill="midnightblue" stroke="midnightblue" points="1111.71,-275.381 1122.2,-273.936 1113.1,-268.52 1111.71,-275.381"/>
</g>
<!-- Node16 -->
<g id="node16" class="node"><title>Node16</title>
<g id="a_node16"><a xlink:href="LasHeader_8hpp.html" target="_top" xlink:title="pdal/io/LasHeader.hpp">
<polygon fill="white" stroke="black" points="926.5,-207 926.5,-226 1040.5,-226 1040.5,-207 926.5,-207"/>
<text text-anchor="middle" x="983.5" y="-214" font-family="Helvetica,sans-Serif" font-size="10.00">pdal/io/LasHeader.hpp</text>
</a>
</g>
</g>
<!-- Node14&#45;&gt;Node16 -->
<g id="edge16" class="edge"><title>Node14&#45;&gt;Node16</title>
<path fill="none" stroke="midnightblue" d="M1130.91,-270.436C1095,-257.542 1038.98,-237.424 1007.35,-226.064"/>
<polygon fill="midnightblue" stroke="midnightblue" points="1129.87,-273.783 1140.46,-273.869 1132.24,-267.195 1129.87,-273.783"/>
</g>
<!-- Node14&#45;&gt;Node22 -->
<g id="edge37" class="edge"><title>Node14&#45;&gt;Node22</title>
<path fill="none" stroke="midnightblue" d="M1164.58,-263.909C1165.56,-246.08 1169.51,-219.249 1183.5,-201 1221.84,-150.97 1248.79,-154.189 1308.5,-134 1403.61,-101.844 1432.88,-116.779 1531.5,-98 1540.83,-96.2225 1550.87,-94.1182 1560.23,-92.0719"/>
<polygon fill="midnightblue" stroke="midnightblue" points="1161.08,-263.82 1164.29,-273.917 1168.08,-264.023 1161.08,-263.82"/>
</g>
<!-- Node29 -->
<g id="node29" class="node"><title>Node29</title>
<g id="a_node29"><a xlink:href="LasVLR_8cpp.html" target="_top" xlink:title="pdal/io/LasVLR.cpp">
<polygon fill="white" stroke="black" points="1192.5,-207 1192.5,-226 1294.5,-226 1294.5,-207 1192.5,-207"/>
<text text-anchor="middle" x="1243.5" y="-214" font-family="Helvetica,sans-Serif" font-size="10.00">pdal/io/LasVLR.cpp</text>
</a>
</g>
</g>
<!-- Node14&#45;&gt;Node29 -->
<g id="edge38" class="edge"><title>Node14&#45;&gt;Node29</title>
<path fill="none" stroke="midnightblue" d="M1183.08,-267.213C1198.64,-254.407 1220.3,-236.588 1233.01,-226.127"/>
<polygon fill="midnightblue" stroke="midnightblue" points="1180.65,-264.677 1175.15,-273.734 1185.1,-270.083 1180.65,-264.677"/>
</g>
<!-- Node16&#45;&gt;Node9 -->
<g id="edge35" class="edge"><title>Node16&#45;&gt;Node9</title>
<path fill="none" stroke="midnightblue" d="M938.603,-204.812C931.568,-203.376 924.358,-202.042 917.5,-201 731.837,-172.791 676.868,-217.289 496.5,-165 434.45,-147.011 401.041,-153.216 367.5,-98 360.347,-86.2246 358.651,-77.5608 367.5,-67 394.999,-34.18 512.477,-22.6733 587.458,-18.6503"/>
<polygon fill="midnightblue" stroke="midnightblue" points="938.212,-208.307 948.722,-206.966 939.67,-201.46 938.212,-208.307"/>
</g>
<!-- Node17 -->
<g id="node17" class="node"><title>Node17</title>
<g id="a_node17"><a xlink:href="LasHeader_8cpp.html" target="_top" xlink:title="pdal/io/LasHeader.cpp">
<polygon fill="white" stroke="black" points="376.5,-73 376.5,-92 490.5,-92 490.5,-73 376.5,-73"/>
<text text-anchor="middle" x="433.5" y="-80" font-family="Helvetica,sans-Serif" font-size="10.00">pdal/io/LasHeader.cpp</text>
</a>
</g>
</g>
<!-- Node16&#45;&gt;Node17 -->
<g id="edge17" class="edge"><title>Node16&#45;&gt;Node17</title>
<path fill="none" stroke="midnightblue" d="M938.349,-204.85C931.393,-203.421 924.272,-202.079 917.5,-201 758.704,-175.705 709.063,-218.71 557.5,-165 509.908,-148.135 462.505,-109.321 442.899,-92.0529"/>
<polygon fill="midnightblue" stroke="midnightblue" points="937.855,-208.323 948.365,-206.985 939.314,-201.477 937.855,-208.323"/>
</g>
<!-- Node18 -->
<g id="node18" class="node"><title>Node18</title>
<g id="a_node18"><a xlink:href="LasSummaryData_8hpp.html" target="_top" xlink:title="pdal/io/LasSummaryData.hpp">
<polygon fill="white" stroke="black" points="566.5,-140 566.5,-159 712.5,-159 712.5,-140 566.5,-140"/>
<text text-anchor="middle" x="639.5" y="-147" font-family="Helvetica,sans-Serif" font-size="10.00">pdal/io/LasSummaryData.hpp</text>
</a>
</g>
</g>
<!-- Node16&#45;&gt;Node18 -->
<g id="edge18" class="edge"><title>Node16&#45;&gt;Node18</title>
<path fill="none" stroke="midnightblue" d="M935.689,-204.78C929.575,-203.473 923.395,-202.183 917.5,-201 838.022,-185.056 745.314,-168.654 689.573,-159.028"/>
<polygon fill="midnightblue" stroke="midnightblue" points="935.342,-208.286 945.856,-206.981 936.822,-201.444 935.342,-208.286"/>
</g>
<!-- Node20 -->
<g id="node20" class="node"><title>Node20</title>
<g id="a_node20"><a xlink:href="LasWriter_8hpp.html" target="_top" xlink:title="pdal/io/LasWriter.hpp">
<polygon fill="white" stroke="red" points="673,-73 673,-92 782,-92 782,-73 673,-73"/>
<text text-anchor="middle" x="727.5" y="-80" font-family="Helvetica,sans-Serif" font-size="10.00">pdal/io/LasWriter.hpp</text>
</a>
</g>
</g>
<!-- Node16&#45;&gt;Node20 -->
<g id="edge34" class="edge"><title>Node16&#45;&gt;Node20</title>
<path fill="none" stroke="midnightblue" d="M957.703,-202.199C905.259,-175.157 787.491,-114.433 744.026,-92.0212"/>
<polygon fill="midnightblue" stroke="midnightblue" points="956.211,-205.367 966.703,-206.839 959.419,-199.145 956.211,-205.367"/>
</g>
<!-- Node21 -->
<g id="node21" class="node"><title>Node21</title>
<g id="a_node21"><a xlink:href="LasReader_8hpp.html" target="_top" xlink:title="pdal/io/LasReader.hpp">
<polygon fill="white" stroke="red" points="899.5,-140 899.5,-159 1013.5,-159 1013.5,-140 899.5,-140"/>
<text text-anchor="middle" x="956.5" y="-147" font-family="Helvetica,sans-Serif" font-size="10.00">pdal/io/LasReader.hpp</text>
</a>
</g>
</g>
<!-- Node16&#45;&gt;Node21 -->
<g id="edge24" class="edge"><title>Node16&#45;&gt;Node21</title>
<path fill="none" stroke="midnightblue" d="M975.936,-197.29C970.751,-184.808 964.107,-168.814 960.084,-159.127"/>
<polygon fill="midnightblue" stroke="midnightblue" points="972.79,-198.841 979.859,-206.734 979.255,-196.156 972.79,-198.841"/>
</g>
<!-- Node16&#45;&gt;Node22 -->
<g id="edge33" class="edge"><title>Node16&#45;&gt;Node22</title>
<path fill="none" stroke="midnightblue" d="M996.632,-199.001C1014.21,-177.399 1044.98,-141.402 1060.5,-134 1155.25,-88.8108 1427.65,-113.3 1531.5,-98 1541.83,-96.4782 1552.95,-94.262 1563.07,-92.0181"/>
<polygon fill="midnightblue" stroke="midnightblue" points="993.738,-197.014 990.19,-206.997 999.189,-201.405 993.738,-197.014"/>
</g>
<!-- Node16&#45;&gt;Node28 -->
<g id="edge36" class="edge"><title>Node16&#45;&gt;Node28</title>
<path fill="none" stroke="midnightblue" d="M1010.35,-202.474C1033.01,-191.485 1065.36,-175.791 1088.58,-164.528"/>
<polygon fill="midnightblue" stroke="midnightblue" points="1008.76,-199.355 1001.29,-206.869 1011.82,-205.653 1008.76,-199.355"/>
</g>
<!-- Node18&#45;&gt;Node17 -->
<g id="edge19" class="edge"><title>Node18&#45;&gt;Node17</title>
<path fill="none" stroke="midnightblue" d="M602.569,-136.847C561.767,-123.973 497.029,-103.546 460.64,-92.0637"/>
<polygon fill="midnightblue" stroke="midnightblue" points="601.555,-140.197 612.145,-139.869 603.661,-133.522 601.555,-140.197"/>
</g>
<!-- Node19 -->
<g id="node19" class="node"><title>Node19</title>
<g id="a_node19"><a xlink:href="LasSummaryData_8cpp.html" target="_top" xlink:title="pdal/io/LasSummaryData.cpp">
<polygon fill="white" stroke="black" points="508.5,-73 508.5,-92 654.5,-92 654.5,-73 508.5,-73"/>
<text text-anchor="middle" x="581.5" y="-80" font-family="Helvetica,sans-Serif" font-size="10.00">pdal/io/LasSummaryData.cpp</text>
</a>
</g>
</g>
<!-- Node18&#45;&gt;Node19 -->
<g id="edge20" class="edge"><title>Node18&#45;&gt;Node19</title>
<path fill="none" stroke="midnightblue" d="M624.897,-132.135C613.554,-119.423 598.273,-102.298 589.198,-92.1273"/>
<polygon fill="midnightblue" stroke="midnightblue" points="622.408,-134.603 631.678,-139.734 627.631,-129.942 622.408,-134.603"/>
</g>
<!-- Node18&#45;&gt;Node20 -->
<g id="edge21" class="edge"><title>Node18&#45;&gt;Node20</title>
<path fill="none" stroke="midnightblue" d="M659.716,-133.568C677.086,-120.738 701.526,-102.685 715.82,-92.1273"/>
<polygon fill="midnightblue" stroke="midnightblue" points="657.332,-130.977 651.368,-139.734 661.491,-136.608 657.332,-130.977"/>
</g>
<!-- Node20&#45;&gt;Node7 -->
<g id="edge22" class="edge"><title>Node20&#45;&gt;Node7</title>
<path fill="none" stroke="midnightblue" d="M763.379,-69.6013C802.24,-56.7138 863.274,-36.4728 897.677,-25.0637"/>
<polygon fill="midnightblue" stroke="midnightblue" points="761.917,-66.3986 753.527,-72.8685 764.121,-73.0428 761.917,-66.3986"/>
</g>
<!-- Node20&#45;&gt;Node9 -->
<g id="edge23" class="edge"><title>Node20&#45;&gt;Node9</title>
<path fill="none" stroke="midnightblue" d="M709.293,-65.928C696.724,-55.1788 680.149,-41.0024 667.973,-30.589"/>
<polygon fill="midnightblue" stroke="midnightblue" points="707.376,-68.894 717.25,-72.7338 711.926,-63.5742 707.376,-68.894"/>
</g>
<!-- Node21&#45;&gt;Node7 -->
<g id="edge26" class="edge"><title>Node21&#45;&gt;Node7</title>
<path fill="none" stroke="midnightblue" d="M916.162,-136.162C897.906,-128.336 878.082,-116.172 867.5,-98 860.567,-86.094 861.901,-79.5888 867.5,-67 875.8,-48.3397 894.779,-33.6691 908.34,-25.055"/>
<polygon fill="midnightblue" stroke="midnightblue" points="914.923,-139.436 925.509,-139.869 917.504,-132.929 914.923,-139.436"/>
</g>
<!-- Node21&#45;&gt;Node9 -->
<g id="edge32" class="edge"><title>Node21&#45;&gt;Node9</title>
<path fill="none" stroke="midnightblue" d="M931.128,-134.975C898.904,-118.048 841.365,-88.6517 790.5,-67 758.608,-53.4244 721.697,-40.1232 693.93,-30.5822"/>
<polygon fill="midnightblue" stroke="midnightblue" points="929.803,-138.233 940.28,-139.806 933.07,-132.043 929.803,-138.233"/>
</g>
<!-- Node21&#45;&gt;Node22 -->
<g id="edge25" class="edge"><title>Node21&#45;&gt;Node22</title>
<path fill="none" stroke="midnightblue" d="M1003.49,-138.009C1011.47,-136.484 1019.7,-135.07 1027.5,-134 1249.99,-103.468 1309.25,-130.179 1531.5,-98 1541.83,-96.5039 1552.96,-94.2955 1563.08,-92.0509"/>
<polygon fill="midnightblue" stroke="midnightblue" points="1002.69,-134.6 993.561,-139.983 1004.05,-141.465 1002.69,-134.6"/>
</g>
<!-- Node23 -->
<g id="node23" class="node"><title>Node23</title>
<g id="a_node23"><a xlink:href="CpdFilterTest_8cpp.html" target="_top" xlink:title="pdal/plugins/cpd/test\l/CpdFilterTest.cpp">
<polygon fill="white" stroke="black" points="877,-67.5 877,-97.5 984,-97.5 984,-67.5 877,-67.5"/>
<text text-anchor="start" x="885" y="-85.5" font-family="Helvetica,sans-Serif" font-size="10.00">pdal/plugins/cpd/test</text>
<text text-anchor="middle" x="930.5" y="-74.5" font-family="Helvetica,sans-Serif" font-size="10.00">/CpdFilterTest.cpp</text>
</a>
</g>
</g>
<!-- Node21&#45;&gt;Node23 -->
<g id="edge27" class="edge"><title>Node21&#45;&gt;Node23</title>
<path fill="none" stroke="midnightblue" d="M949.256,-130.39C945.108,-120.02 939.981,-107.201 936.136,-97.589"/>
<polygon fill="midnightblue" stroke="midnightblue" points="946.03,-131.749 952.994,-139.734 952.529,-129.149 946.03,-131.749"/>
</g>
<!-- Node24 -->
<g id="node24" class="node"><title>Node24</title>
<g id="a_node24"><a xlink:href="MatlabFilterTest_8cpp.html" target="_top" xlink:title="pdal/plugins/matlab\l/test/MatlabFilterTest.cpp">
<polygon fill="white" stroke="black" points="1002.5,-67.5 1002.5,-97.5 1130.5,-97.5 1130.5,-67.5 1002.5,-67.5"/>
<text text-anchor="start" x="1010.5" y="-85.5" font-family="Helvetica,sans-Serif" font-size="10.00">pdal/plugins/matlab</text>
<text text-anchor="middle" x="1066.5" y="-74.5" font-family="Helvetica,sans-Serif" font-size="10.00">/test/MatlabFilterTest.cpp</text>
</a>
</g>
</g>
<!-- Node21&#45;&gt;Node24 -->
<g id="edge28" class="edge"><title>Node21&#45;&gt;Node24</title>
<path fill="none" stroke="midnightblue" d="M980.017,-134.604C998.488,-123.689 1024.1,-108.553 1042.66,-97.589"/>
<polygon fill="midnightblue" stroke="midnightblue" points="978.164,-131.633 971.335,-139.734 981.725,-137.66 978.164,-131.633"/>
</g>
<!-- Node25 -->
<g id="node25" class="node"><title>Node25</title>
<g id="a_node25"><a xlink:href="MatlabReaderTest_8cpp.html" target="_top" xlink:title="pdal/plugins/matlab\l/test/MatlabReaderTest.cpp">
<polygon fill="white" stroke="black" points="1148.5,-67.5 1148.5,-97.5 1286.5,-97.5 1286.5,-67.5 1148.5,-67.5"/>
<text text-anchor="start" x="1156.5" y="-85.5" font-family="Helvetica,sans-Serif" font-size="10.00">pdal/plugins/matlab</text>
<text text-anchor="middle" x="1217.5" y="-74.5" font-family="Helvetica,sans-Serif" font-size="10.00">/test/MatlabReaderTest.cpp</text>
</a>
</g>
</g>
<!-- Node21&#45;&gt;Node25 -->
<g id="edge29" class="edge"><title>Node21&#45;&gt;Node25</title>
<path fill="none" stroke="midnightblue" d="M1000.76,-137.478C1044.94,-126.475 1113,-109.525 1161.05,-97.5592"/>
<polygon fill="midnightblue" stroke="midnightblue" points="999.747,-134.123 990.89,-139.936 1001.44,-140.915 999.747,-134.123"/>
</g>
<!-- Node26 -->
<g id="node26" class="node"><title>Node26</title>
<g id="a_node26"><a xlink:href="NitfReader_8hpp.html" target="_top" xlink:title="pdal/plugins/nitf/io\l/NitfReader.hpp">
<polygon fill="white" stroke="red" points="1305,-67.5 1305,-97.5 1400,-97.5 1400,-67.5 1305,-67.5"/>
<text text-anchor="start" x="1313" y="-85.5" font-family="Helvetica,sans-Serif" font-size="10.00">pdal/plugins/nitf/io</text>
<text text-anchor="middle" x="1352.5" y="-74.5" font-family="Helvetica,sans-Serif" font-size="10.00">/NitfReader.hpp</text>
</a>
</g>
</g>
<!-- Node21&#45;&gt;Node26 -->
<g id="edge30" class="edge"><title>Node21&#45;&gt;Node26</title>
<path fill="none" stroke="midnightblue" d="M1005.67,-138.008C1012.97,-136.58 1020.42,-135.197 1027.5,-134 1146,-113.965 1177.51,-120.852 1295.5,-98 1298.51,-97.4175 1301.59,-96.7724 1304.7,-96.0874"/>
<polygon fill="midnightblue" stroke="midnightblue" points="1004.96,-134.579 995.844,-139.969 1006.34,-141.444 1004.96,-134.579"/>
</g>
<!-- Node27 -->
<g id="node27" class="node"><title>Node27</title>
<g id="a_node27"><a xlink:href="OCITest_8cpp.html" target="_top" xlink:title="pdal/plugins/oci/test\l/OCITest.cpp">
<polygon fill="white" stroke="black" points="1418.5,-67.5 1418.5,-97.5 1522.5,-97.5 1522.5,-67.5 1418.5,-67.5"/>
<text text-anchor="start" x="1426.5" y="-85.5" font-family="Helvetica,sans-Serif" font-size="10.00">pdal/plugins/oci/test</text>
<text text-anchor="middle" x="1470.5" y="-74.5" font-family="Helvetica,sans-Serif" font-size="10.00">/OCITest.cpp</text>
</a>
</g>
</g>
<!-- Node21&#45;&gt;Node27 -->
<g id="edge31" class="edge"><title>Node21&#45;&gt;Node27</title>
<path fill="none" stroke="midnightblue" d="M1004.31,-138.008C1012.04,-136.522 1019.97,-135.121 1027.5,-134 1195.73,-108.947 1240.64,-125.43 1408.5,-98 1411.66,-97.483 1414.91,-96.8971 1418.17,-96.2645"/>
<polygon fill="midnightblue" stroke="midnightblue" points="1003.44,-134.611 994.319,-139.994 1004.81,-141.477 1003.44,-134.611"/>
</g>
<!-- Node30&#45;&gt;Node7 -->
<g id="edge42" class="edge"><title>Node30&#45;&gt;Node7</title>
<path fill="none" stroke="midnightblue" d="M1459.84,-269.613C1444.07,-261.379 1426.49,-249.015 1417.5,-232 1411.06,-219.817 1409.87,-212.47 1417.5,-201 1486.47,-97.3487 1748.49,-157.984 1663.5,-67 1618.2,-18.5073 1166.1,-15.3653 991.661,-15.9817"/>
<polygon fill="midnightblue" stroke="midnightblue" points="1458.32,-272.763 1468.84,-273.988 1461.38,-266.467 1458.32,-272.763"/>
</g>
<!-- Node31 -->
<g id="node31" class="node"><title>Node31</title>
<g id="a_node31"><a xlink:href="OptechReader_8cpp.html" target="_top" xlink:title="pdal/io/OptechReader.cpp">
<polygon fill="white" stroke="black" points="1426.5,-207 1426.5,-226 1556.5,-226 1556.5,-207 1426.5,-207"/>
<text text-anchor="middle" x="1491.5" y="-214" font-family="Helvetica,sans-Serif" font-size="10.00">pdal/io/OptechReader.cpp</text>
</a>
</g>
</g>
<!-- Node30&#45;&gt;Node31 -->
<g id="edge41" class="edge"><title>Node30&#45;&gt;Node31</title>
<path fill="none" stroke="midnightblue" d="M1491.5,-263.537C1491.5,-251.17 1491.5,-235.62 1491.5,-226.127"/>
<polygon fill="midnightblue" stroke="midnightblue" points="1488,-263.734 1491.5,-273.734 1495,-263.734 1488,-263.734"/>
</g>
<!-- Node32 -->
<g id="node32" class="node"><title>Node32</title>
<g id="a_node32"><a xlink:href="OptechReaderTest_8cpp.html" target="_top" xlink:title="pdal/test/unit/io/Optech\lReaderTest.cpp">
<polygon fill="white" stroke="black" points="1574.5,-201.5 1574.5,-231.5 1692.5,-231.5 1692.5,-201.5 1574.5,-201.5"/>
<text text-anchor="start" x="1582.5" y="-219.5" font-family="Helvetica,sans-Serif" font-size="10.00">pdal/test/unit/io/Optech</text>
<text text-anchor="middle" x="1633.5" y="-208.5" font-family="Helvetica,sans-Serif" font-size="10.00">ReaderTest.cpp</text>
</a>
</g>
</g>
<!-- Node30&#45;&gt;Node32 -->
<g id="edge43" class="edge"><title>Node30&#45;&gt;Node32</title>
<path fill="none" stroke="midnightblue" d="M1519.64,-269.621C1543.66,-258.625 1578.14,-242.841 1602.85,-231.528"/>
<polygon fill="midnightblue" stroke="midnightblue" points="1517.99,-266.524 1510.36,-273.869 1520.91,-272.889 1517.99,-266.524"/>
</g>
<!-- Node34&#45;&gt;Node7 -->
<g id="edge47" class="edge"><title>Node34&#45;&gt;Node7</title>
<path fill="none" stroke="midnightblue" d="M1767.28,-266.72C1757.96,-257.391 1746.88,-244.903 1739.5,-232 1701.27,-165.132 1747.2,-114.409 1686.5,-67 1632.45,-24.7901 1168.59,-17.8193 991.669,-16.7005"/>
<polygon fill="midnightblue" stroke="midnightblue" points="1764.94,-269.333 1774.57,-273.754 1769.8,-264.293 1764.94,-269.333"/>
</g>
<!-- Node35 -->
<g id="node35" class="node"><title>Node35</title>
<g id="a_node35"><a xlink:href="QfitReader_8cpp.html" target="_top" xlink:title="pdal/io/QfitReader.cpp">
<polygon fill="white" stroke="black" points="1748.5,-207 1748.5,-226 1862.5,-226 1862.5,-207 1748.5,-207"/>
<text text-anchor="middle" x="1805.5" y="-214" font-family="Helvetica,sans-Serif" font-size="10.00">pdal/io/QfitReader.cpp</text>
</a>
</g>
</g>
<!-- Node34&#45;&gt;Node35 -->
<g id="edge46" class="edge"><title>Node34&#45;&gt;Node35</title>
<path fill="none" stroke="midnightblue" d="M1790.5,-263.915C1794.52,-251.488 1799.61,-235.717 1802.71,-226.127"/>
<polygon fill="midnightblue" stroke="midnightblue" points="1787.08,-263.142 1787.33,-273.734 1793.74,-265.294 1787.08,-263.142"/>
</g>
<!-- Node36 -->
<g id="node36" class="node"><title>Node36</title>
<g id="a_node36"><a xlink:href="QFITReaderTest_8cpp.html" target="_top" xlink:title="pdal/test/unit/io/QFITReader\lTest.cpp">
<polygon fill="white" stroke="black" points="1880.5,-201.5 1880.5,-231.5 2020.5,-231.5 2020.5,-201.5 1880.5,-201.5"/>
<text text-anchor="start" x="1888.5" y="-219.5" font-family="Helvetica,sans-Serif" font-size="10.00">pdal/test/unit/io/QFITReader</text>
<text text-anchor="middle" x="1950.5" y="-208.5" font-family="Helvetica,sans-Serif" font-size="10.00">Test.cpp</text>
</a>
</g>
</g>
<!-- Node34&#45;&gt;Node36 -->
<g id="edge48" class="edge"><title>Node34&#45;&gt;Node36</title>
<path fill="none" stroke="midnightblue" d="M1815.91,-270.202C1844.04,-259.188 1885.27,-243.042 1914.67,-231.528"/>
<polygon fill="midnightblue" stroke="midnightblue" points="1814.58,-266.963 1806.54,-273.869 1817.13,-273.481 1814.58,-266.963"/>
</g>
<!-- Node37&#45;&gt;Node7 -->
<g id="edge51" class="edge"><title>Node37&#45;&gt;Node7</title>
<path fill="none" stroke="midnightblue" d="M2116.06,-267.97C2102.22,-258.025 2083.59,-244.437 2067.5,-232 2050.26,-218.67 2048.16,-212.256 2029.5,-201 1898.87,-122.218 1861.95,-102.142 1713.5,-67 1577.26,-34.7468 1157.46,-21.8447 991.768,-17.9216"/>
<polygon fill="midnightblue" stroke="midnightblue" points="2114.22,-270.958 2124.39,-273.93 2118.3,-265.265 2114.22,-270.958"/>
</g>
<!-- Node38 -->
<g id="node38" class="node"><title>Node38</title>
<g id="a_node38"><a xlink:href="SbetReader_8cpp.html" target="_top" xlink:title="pdal/io/SbetReader.cpp">
<polygon fill="white" stroke="black" points="2077,-207 2077,-226 2196,-226 2196,-207 2077,-207"/>
<text text-anchor="middle" x="2136.5" y="-214" font-family="Helvetica,sans-Serif" font-size="10.00">pdal/io/SbetReader.cpp</text>
</a>
</g>
</g>
<!-- Node37&#45;&gt;Node38 -->
<g id="edge50" class="edge"><title>Node37&#45;&gt;Node38</title>
<path fill="none" stroke="midnightblue" d="M2136.5,-263.537C2136.5,-251.17 2136.5,-235.62 2136.5,-226.127"/>
<polygon fill="midnightblue" stroke="midnightblue" points="2133,-263.734 2136.5,-273.734 2140,-263.734 2133,-263.734"/>
</g>
<!-- Node39 -->
<g id="node39" class="node"><title>Node39</title>
<g id="a_node39"><a xlink:href="SbetReaderTest_8cpp.html" target="_top" xlink:title="pdal/test/unit/io/SbetReader\lTest.cpp">
<polygon fill="white" stroke="black" points="2214.5,-201.5 2214.5,-231.5 2352.5,-231.5 2352.5,-201.5 2214.5,-201.5"/>
<text text-anchor="start" x="2222.5" y="-219.5" font-family="Helvetica,sans-Serif" font-size="10.00">pdal/test/unit/io/SbetReader</text>
<text text-anchor="middle" x="2283.5" y="-208.5" font-family="Helvetica,sans-Serif" font-size="10.00">Test.cpp</text>
</a>
</g>
</g>
<!-- Node37&#45;&gt;Node39 -->
<g id="edge52" class="edge"><title>Node37&#45;&gt;Node39</title>
<path fill="none" stroke="midnightblue" d="M2165.3,-269.767C2190.18,-258.766 2226.08,-242.892 2251.77,-231.528"/>
<polygon fill="midnightblue" stroke="midnightblue" points="2163.75,-266.623 2156.02,-273.869 2166.58,-273.025 2163.75,-266.623"/>
</g>
<!-- Node40 -->
<g id="node40" class="node"><title>Node40</title>
<g id="a_node40"><a xlink:href="SbetWriterTest_8cpp.html" target="_top" xlink:title="pdal/test/unit/io/SbetWriter\lTest.cpp">
<polygon fill="white" stroke="black" points="2371,-201.5 2371,-231.5 2504,-231.5 2504,-201.5 2371,-201.5"/>
<text text-anchor="start" x="2379" y="-219.5" font-family="Helvetica,sans-Serif" font-size="10.00">pdal/test/unit/io/SbetWriter</text>
<text text-anchor="middle" x="2437.5" y="-208.5" font-family="Helvetica,sans-Serif" font-size="10.00">Test.cpp</text>
</a>
</g>
</g>
<!-- Node37&#45;&gt;Node40 -->
<g id="edge53" class="edge"><title>Node37&#45;&gt;Node40</title>
<path fill="none" stroke="midnightblue" d="M2185.94,-271.823C2236.84,-260.832 2316.4,-243.651 2372.4,-231.559"/>
<polygon fill="midnightblue" stroke="midnightblue" points="2185.2,-268.404 2176.16,-273.936 2186.67,-275.246 2185.2,-268.404"/>
</g>
<!-- Node41&#45;&gt;Node7 -->
<g id="edge56" class="edge"><title>Node41&#45;&gt;Node7</title>
<path fill="none" stroke="midnightblue" d="M2572.59,-265.102C2560.82,-246.135 2539.35,-216.432 2512.5,-201 2247.18,-48.5243 1261.13,-21.8401 991.837,-17.3661"/>
<polygon fill="midnightblue" stroke="midnightblue" points="2569.72,-267.111 2577.84,-273.91 2575.73,-263.528 2569.72,-267.111"/>
</g>
<!-- Node42 -->
<g id="node42" class="node"><title>Node42</title>
<g id="a_node42"><a xlink:href="TerrasolidReader_8cpp.html" target="_top" xlink:title="pdal/io/TerrasolidReader.cpp">
<polygon fill="white" stroke="black" points="2561,-207 2561,-226 2702,-226 2702,-207 2561,-207"/>
<text text-anchor="middle" x="2631.5" y="-214" font-family="Helvetica,sans-Serif" font-size="10.00">pdal/io/TerrasolidReader.cpp</text>
</a>
</g>
</g>
<!-- Node41&#45;&gt;Node42 -->
<g id="edge55" class="edge"><title>Node41&#45;&gt;Node42</title>
<path fill="none" stroke="midnightblue" d="M2595.39,-265.404C2604.91,-252.773 2617.48,-236.104 2625,-226.127"/>
<polygon fill="midnightblue" stroke="midnightblue" points="2592.33,-263.642 2589.11,-273.734 2597.92,-267.855 2592.33,-263.642"/>
</g>
<!-- Node43 -->
<g id="node43" class="node"><title>Node43</title>
<g id="a_node43"><a xlink:href="TerrasolidReaderTest_8cpp.html" target="_top" xlink:title="pdal/test/unit/io/Terrasolid\lReaderTest.cpp">
<polygon fill="white" stroke="black" points="2720,-201.5 2720,-231.5 2849,-231.5 2849,-201.5 2720,-201.5"/>
<text text-anchor="start" x="2728" y="-219.5" font-family="Helvetica,sans-Serif" font-size="10.00">pdal/test/unit/io/Terrasolid</text>
<text text-anchor="middle" x="2784.5" y="-208.5" font-family="Helvetica,sans-Serif" font-size="10.00">ReaderTest.cpp</text>
</a>
</g>
</g>
<!-- Node41&#45;&gt;Node43 -->
<g id="edge57" class="edge"><title>Node41&#45;&gt;Node43</title>
<path fill="none" stroke="midnightblue" d="M2618.94,-270.775C2653.19,-259.753 2704.5,-243.244 2740.91,-231.528"/>
<polygon fill="midnightblue" stroke="midnightblue" points="2617.77,-267.474 2609.32,-273.869 2619.92,-274.137 2617.77,-267.474"/>
</g>
<!-- Node45 -->
<g id="node45" class="node"><title>Node45</title>
<g id="a_node45"><a xlink:href="OSGReader_8cpp.html" target="_top" xlink:title="pdal/plugins/openscenegraph\l/io/OSGReader.cpp">
<polygon fill="white" stroke="black" points="2867,-201.5 2867,-231.5 3010,-231.5 3010,-201.5 2867,-201.5"/>
<text text-anchor="start" x="2875" y="-219.5" font-family="Helvetica,sans-Serif" font-size="10.00">pdal/plugins/openscenegraph</text>
<text text-anchor="middle" x="2938.5" y="-208.5" font-family="Helvetica,sans-Serif" font-size="10.00">/io/OSGReader.cpp</text>
</a>
</g>
</g>
<!-- Node44&#45;&gt;Node45 -->
<g id="edge59" class="edge"><title>Node44&#45;&gt;Node45</title>
<path fill="none" stroke="midnightblue" d="M2851.05,-263.714C2870.45,-253.463 2894.06,-240.983 2911.86,-231.577"/>
<polygon fill="midnightblue" stroke="midnightblue" points="2849.4,-260.629 2842.19,-268.396 2852.67,-266.818 2849.4,-260.629"/>
</g>
<!-- Node48 -->
<g id="node48" class="node"><title>Node48</title>
<g id="a_node48"><a xlink:href="Dumper_8hpp.html" target="_top" xlink:title="pdal/tools/lasdump\l/Dumper.hpp">
<polygon fill="white" stroke="black" points="3066.5,-201.5 3066.5,-231.5 3164.5,-231.5 3164.5,-201.5 3066.5,-201.5"/>
<text text-anchor="start" x="3074.5" y="-219.5" font-family="Helvetica,sans-Serif" font-size="10.00">pdal/tools/lasdump</text>
<text text-anchor="middle" x="3115.5" y="-208.5" font-family="Helvetica,sans-Serif" font-size="10.00">/Dumper.hpp</text>
</a>
</g>
</g>
<!-- Node47&#45;&gt;Node48 -->
<g id="edge62" class="edge"><title>Node47&#45;&gt;Node48</title>
<path fill="none" stroke="midnightblue" d="M3197.23,-263.296C3179.08,-253.125 3157.18,-240.855 3140.62,-231.577"/>
<polygon fill="midnightblue" stroke="midnightblue" points="3195.9,-266.561 3206.33,-268.396 3199.32,-260.454 3195.9,-266.561"/>
</g>
<!-- Node49 -->
<g id="node49" class="node"><title>Node49</title>
<g id="a_node49"><a xlink:href="Header_8cpp.html" target="_top" xlink:title="pdal/tools/lasdump\l/Header.cpp">
<polygon fill="white" stroke="black" points="3182.5,-201.5 3182.5,-231.5 3280.5,-231.5 3280.5,-201.5 3182.5,-201.5"/>
<text text-anchor="start" x="3190.5" y="-219.5" font-family="Helvetica,sans-Serif" font-size="10.00">pdal/tools/lasdump</text>
<text text-anchor="middle" x="3231.5" y="-208.5" font-family="Helvetica,sans-Serif" font-size="10.00">/Header.cpp</text>
</a>
</g>
</g>
<!-- Node47&#45;&gt;Node49 -->
<g id="edge64" class="edge"><title>Node47&#45;&gt;Node49</title>
<path fill="none" stroke="midnightblue" d="M3231.5,-258.108C3231.5,-249.154 3231.5,-239.323 3231.5,-231.577"/>
<polygon fill="midnightblue" stroke="midnightblue" points="3228,-258.396 3231.5,-268.396 3235,-258.396 3228,-258.396"/>
</g>
<!-- Node48&#45;&gt;Node46 -->
<g id="edge63" class="edge"><title>Node48&#45;&gt;Node46</title>
<path fill="none" stroke="midnightblue" d="M3101.75,-192.576C3096.14,-183.241 3089.85,-172.748 3084.95,-164.577"/>
<polygon fill="midnightblue" stroke="midnightblue" points="3098.89,-194.622 3107.04,-201.396 3104.89,-191.02 3098.89,-194.622"/>
</g>
<!-- Node50&#45;&gt;Node48 -->
<g id="edge66" class="edge"><title>Node50&#45;&gt;Node48</title>
<path fill="none" stroke="midnightblue" d="M3115.5,-258.108C3115.5,-249.154 3115.5,-239.323 3115.5,-231.577"/>
<polygon fill="midnightblue" stroke="midnightblue" points="3112,-258.396 3115.5,-268.396 3119,-258.396 3112,-258.396"/>
</g>
</g>
</svg>
