<?xml version="1.0" encoding="UTF-8" standalone="no"?>
<!DOCTYPE svg PUBLIC "-//W3C//DTD SVG 1.1//EN"
 "http://www.w3.org/Graphics/SVG/1.1/DTD/svg11.dtd">
<!-- Generated by graphviz version 2.38.0 (20140413.2041)
 -->
<!-- Title: pdal/java/native/src/include/JavaIterator.hpp Pages: 1 -->
<svg width="284pt" height="106pt"
 viewBox="0.00 0.00 284.00 106.00" xmlns="http://www.w3.org/2000/svg" xmlns:xlink="http://www.w3.org/1999/xlink">
<g id="graph0" class="graph" transform="scale(1 1) rotate(0) translate(4 102)">
<title>pdal/java/native/src/include/JavaIterator.hpp</title>
<polygon fill="white" stroke="none" points="-4,4 -4,-102 280,-102 280,4 -4,4"/>
<!-- Node1 -->
<g id="node1" class="node"><title>Node1</title>
<polygon fill="#bfbfbf" stroke="black" points="65.5,-67.5 65.5,-97.5 189.5,-97.5 189.5,-67.5 65.5,-67.5"/>
<text text-anchor="start" x="73.5" y="-85.5" font-family="Helvetica,sans-Serif" font-size="10.00">pdal/java/native/src</text>
<text text-anchor="middle" x="127.5" y="-74.5" font-family="Helvetica,sans-Serif" font-size="10.00">/include/JavaIterator.hpp</text>
</g>
<!-- Node2 -->
<g id="node2" class="node"><title>Node2</title>
<g id="a_node2"><a xlink:href="io__pdal__Pipeline_8cpp.html" target="_top" xlink:title="pdal/java/native/src\l/io_pdal_Pipeline.cpp">
<polygon fill="white" stroke="black" points="0,-0.5 0,-30.5 109,-30.5 109,-0.5 0,-0.5"/>
<text text-anchor="start" x="8" y="-18.5" font-family="Helvetica,sans-Serif" font-size="10.00">pdal/java/native/src</text>
<text text-anchor="middle" x="54.5" y="-7.5" font-family="Helvetica,sans-Serif" font-size="10.00">/io_pdal_Pipeline.cpp</text>
</a>
</g>
</g>
<!-- Node1&#45;&gt;Node2 -->
<g id="edge1" class="edge"><title>Node1&#45;&gt;Node2</title>
<path fill="none" stroke="midnightblue" d="M104.025,-60.5978C93.0025,-50.7831 80.1558,-39.3442 70.309,-30.5765"/>
<polygon fill="midnightblue" stroke="midnightblue" points="101.864,-63.3599 111.66,-67.396 106.519,-58.132 101.864,-63.3599"/>
</g>
<!-- Node3 -->
<g id="node3" class="node"><title>Node3</title>
<g id="a_node3"><a xlink:href="io__pdal__PointViewIterator_8cpp.html" target="_top" xlink:title="pdal/java/native/src\l/io_pdal_PointViewIterator.cpp">
<polygon fill="white" stroke="black" points="127,-0.5 127,-30.5 276,-30.5 276,-0.5 127,-0.5"/>
<text text-anchor="start" x="135" y="-18.5" font-family="Helvetica,sans-Serif" font-size="10.00">pdal/java/native/src</text>
<text text-anchor="middle" x="201.5" y="-7.5" font-family="Helvetica,sans-Serif" font-size="10.00">/io_pdal_PointViewIterator.cpp</text>
</a>
</g>
</g>
<!-- Node1&#45;&gt;Node3 -->
<g id="edge2" class="edge"><title>Node1&#45;&gt;Node3</title>
<path fill="none" stroke="midnightblue" d="M151.296,-60.5978C162.47,-50.7831 175.493,-39.3442 185.474,-30.5765"/>
<polygon fill="midnightblue" stroke="midnightblue" points="148.76,-58.1669 143.557,-67.396 153.38,-63.4261 148.76,-58.1669"/>
</g>
</g>
</svg>
