<?xml version="1.0" encoding="UTF-8" standalone="no"?>
<!DOCTYPE svg PUBLIC "-//W3C//DTD SVG 1.1//EN"
 "http://www.w3.org/Graphics/SVG/1.1/DTD/svg11.dtd">
<!-- Generated by graphviz version 2.38.0 (20140413.2041)
 -->
<!-- Title: TEST Pages: 1 -->
<svg width="423pt" height="198pt"
 viewBox="0.00 0.00 423.00 197.50" xmlns="http://www.w3.org/2000/svg" xmlns:xlink="http://www.w3.org/1999/xlink">
<g id="graph0" class="graph" transform="scale(1 1) rotate(0) translate(4 193.5)">
<title>TEST</title>
<polygon fill="white" stroke="none" points="-4,4 -4,-193.5 419,-193.5 419,4 -4,4"/>
<!-- Node1 -->
<g id="node1" class="node"><title>Node1</title>
<polygon fill="#bfbfbf" stroke="black" points="0,-115.5 0,-134.5 42,-134.5 42,-115.5 0,-115.5"/>
<text text-anchor="middle" x="21" y="-122.5" font-family="Helvetica,sans-Serif" font-size="10.00">TEST</text>
</g>
<!-- Node2 -->
<g id="node2" class="node"><title>Node2</title>
<g id="a_node2"><a xlink:href="classpdal_1_1BasePointTable.html#a7e3a12a1f29e6cd10d8669ed3d07eb94" target="_top" xlink:title="pdal::BasePointTable\l::layout">
<polygon fill="white" stroke="black" points="85.5,-159 85.5,-189 195.5,-189 195.5,-159 85.5,-159"/>
<text text-anchor="start" x="93.5" y="-177" font-family="Helvetica,sans-Serif" font-size="10.00">pdal::BasePointTable</text>
<text text-anchor="middle" x="140.5" y="-166" font-family="Helvetica,sans-Serif" font-size="10.00">::layout</text>
</a>
</g>
</g>
<!-- Node1&#45;&gt;Node2 -->
<g id="edge1" class="edge"><title>Node1&#45;&gt;Node2</title>
<path fill="none" stroke="midnightblue" d="M42.1167,-134.26C52.7357,-139.077 66.0157,-144.99 78,-150 82.0959,-151.712 86.3604,-153.456 90.6485,-155.182"/>
<polygon fill="midnightblue" stroke="midnightblue" points="89.4323,-158.465 100.018,-158.914 92.0229,-151.962 89.4323,-158.465"/>
</g>
<!-- Node3 -->
<g id="node3" class="node"><title>Node3</title>
<g id="a_node3"><a xlink:href="classpdal_1_1PointLayout.html#ac18a9b8b3dd23c601df823e84d90f61e" target="_top" xlink:title="pdal::PointLayout::\lregisterDim">
<polygon fill="white" stroke="black" points="91.5,-110 91.5,-140 189.5,-140 189.5,-110 91.5,-110"/>
<text text-anchor="start" x="99.5" y="-128" font-family="Helvetica,sans-Serif" font-size="10.00">pdal::PointLayout::</text>
<text text-anchor="middle" x="140.5" y="-117" font-family="Helvetica,sans-Serif" font-size="10.00">registerDim</text>
</a>
</g>
</g>
<!-- Node1&#45;&gt;Node3 -->
<g id="edge2" class="edge"><title>Node1&#45;&gt;Node3</title>
<path fill="none" stroke="midnightblue" d="M42.199,-125C53.0757,-125 67.1087,-125 81.1142,-125"/>
<polygon fill="midnightblue" stroke="midnightblue" points="81.2619,-128.5 91.2619,-125 81.2619,-121.5 81.2619,-128.5"/>
</g>
<!-- Node5 -->
<g id="node5" class="node"><title>Node5</title>
<g id="a_node5"><a xlink:href="classpdal_1_1PointView.html#a7931019cfba92e9c3a93592a2fbf4a0f" target="_top" xlink:title="pdal::PointView::setField">
<polygon fill="white" stroke="black" points="78,-49.5 78,-68.5 203,-68.5 203,-49.5 78,-49.5"/>
<text text-anchor="middle" x="140.5" y="-56.5" font-family="Helvetica,sans-Serif" font-size="10.00">pdal::PointView::setField</text>
</a>
</g>
</g>
<!-- Node1&#45;&gt;Node5 -->
<g id="edge4" class="edge"><title>Node1&#45;&gt;Node5</title>
<path fill="none" stroke="midnightblue" d="M39.0855,-115.403C58.6651,-104.405 90.9647,-86.2624 113.632,-73.5302"/>
<polygon fill="midnightblue" stroke="midnightblue" points="115.389,-76.5575 122.394,-68.6085 111.961,-70.4544 115.389,-76.5575"/>
</g>
<!-- Node4 -->
<g id="node4" class="node"><title>Node4</title>
<g id="a_node4"><a xlink:href="namespacepdal_1_1Dimension.html#a9562a0d1c8e24bf903f1ccdd37b62d2f" target="_top" xlink:title="pdal::Dimension::defaultType">
<polygon fill="white" stroke="black" points="255,-126.5 255,-145.5 399,-145.5 399,-126.5 255,-126.5"/>
<text text-anchor="middle" x="327" y="-133.5" font-family="Helvetica,sans-Serif" font-size="10.00">pdal::Dimension::defaultType</text>
</a>
</g>
</g>
<!-- Node3&#45;&gt;Node4 -->
<g id="edge3" class="edge"><title>Node3&#45;&gt;Node4</title>
<path fill="none" stroke="midnightblue" d="M189.975,-127.89C206.808,-128.894 226.173,-130.048 244.914,-131.166"/>
<polygon fill="midnightblue" stroke="midnightblue" points="244.749,-134.662 254.94,-131.763 245.166,-127.674 244.749,-134.662"/>
</g>
<!-- Node6 -->
<g id="node6" class="node"><title>Node6</title>
<g id="a_node6"><a xlink:href="classpdal_1_1Dimension_1_1Detail.html#adf5961976b7fce3d90a0dddd50519a7c" target="_top" xlink:title="pdal::Dimension::Detail\l::type">
<polygon fill="white" stroke="black" points="267.5,-77 267.5,-107 386.5,-107 386.5,-77 267.5,-77"/>
<text text-anchor="start" x="275.5" y="-95" font-family="Helvetica,sans-Serif" font-size="10.00">pdal::Dimension::Detail</text>
<text text-anchor="middle" x="327" y="-84" font-family="Helvetica,sans-Serif" font-size="10.00">::type</text>
</a>
</g>
</g>
<!-- Node5&#45;&gt;Node6 -->
<g id="edge5" class="edge"><title>Node5&#45;&gt;Node6</title>
<path fill="none" stroke="midnightblue" d="M194.865,-68.545C214.346,-72.0293 236.659,-76.0202 257.288,-79.7101"/>
<polygon fill="midnightblue" stroke="midnightblue" points="256.8,-83.1783 267.261,-81.4938 258.033,-76.2877 256.8,-83.1783"/>
</g>
<!-- Node7 -->
<g id="node7" class="node"><title>Node7</title>
<g id="a_node7"><a xlink:href="namespacepdal_1_1Dimension.html#af3176b0b7e6b4be000317846cf7c2718" target="_top" xlink:title="pdal::Dimension::name">
<polygon fill="white" stroke="black" points="268.5,-38.5 268.5,-57.5 385.5,-57.5 385.5,-38.5 268.5,-38.5"/>
<text text-anchor="middle" x="327" y="-45.5" font-family="Helvetica,sans-Serif" font-size="10.00">pdal::Dimension::name</text>
</a>
</g>
</g>
<!-- Node5&#45;&gt;Node7 -->
<g id="edge6" class="edge"><title>Node5&#45;&gt;Node7</title>
<path fill="none" stroke="midnightblue" d="M203.192,-55.3219C220.876,-54.2675 240.249,-53.1125 258.275,-52.0378"/>
<polygon fill="midnightblue" stroke="midnightblue" points="258.645,-55.5221 268.419,-51.433 258.228,-48.5345 258.645,-55.5221"/>
</g>
<!-- Node8 -->
<g id="node8" class="node"><title>Node8</title>
<g id="a_node8"><a xlink:href="namespacepdal_1_1Dimension.html#acc41232ae1e707d6c928ffb9a56592d3" target="_top" xlink:title="pdal::Dimension::interpretationName">
<polygon fill="white" stroke="black" points="239,-0.5 239,-19.5 415,-19.5 415,-0.5 239,-0.5"/>
<text text-anchor="middle" x="327" y="-7.5" font-family="Helvetica,sans-Serif" font-size="10.00">pdal::Dimension::interpretationName</text>
</a>
</g>
</g>
<!-- Node5&#45;&gt;Node8 -->
<g id="edge7" class="edge"><title>Node5&#45;&gt;Node8</title>
<path fill="none" stroke="midnightblue" d="M170.329,-49.4363C189.643,-43.201 215.704,-35.1165 239,-29 248.645,-26.4677 258.952,-24.0053 268.977,-21.7384"/>
<polygon fill="midnightblue" stroke="midnightblue" points="269.868,-25.1259 278.871,-19.5412 268.35,-18.2923 269.868,-25.1259"/>
</g>
</g>
</svg>
