<?xml version="1.0" encoding="UTF-8" standalone="no"?>
<!DOCTYPE svg PUBLIC "-//W3C//DTD SVG 1.1//EN"
 "http://www.w3.org/Graphics/SVG/1.1/DTD/svg11.dtd">
<!-- Generated by graphviz version 2.38.0 (20140413.2041)
 -->
<!-- Title: pdal/io/LasError.hpp Pages: 1 -->
<svg width="4552pt" height="218pt"
 viewBox="0.00 0.00 4551.50 218.00" xmlns="http://www.w3.org/2000/svg" xmlns:xlink="http://www.w3.org/1999/xlink">
<g id="graph0" class="graph" transform="scale(1 1) rotate(0) translate(4 214)">
<title>pdal/io/LasError.hpp</title>
<polygon fill="white" stroke="none" points="-4,4 -4,-214 4547.5,-214 4547.5,4 -4,4"/>
<!-- Node1 -->
<g id="node1" class="node"><title>Node1</title>
<polygon fill="#bfbfbf" stroke="black" points="1587.5,-190.5 1587.5,-209.5 1691.5,-209.5 1691.5,-190.5 1587.5,-190.5"/>
<text text-anchor="middle" x="1639.5" y="-197.5" font-family="Helvetica,sans-Serif" font-size="10.00">pdal/io/LasError.hpp</text>
</g>
<!-- Node2 -->
<g id="node2" class="node"><title>Node2</title>
<g id="a_node2"><a xlink:href="LasReader_8hpp.html" target="_top" xlink:title="pdal/io/LasReader.hpp">
<polygon fill="white" stroke="black" points="2407.5,-134.5 2407.5,-153.5 2521.5,-153.5 2521.5,-134.5 2407.5,-134.5"/>
<text text-anchor="middle" x="2464.5" y="-141.5" font-family="Helvetica,sans-Serif" font-size="10.00">pdal/io/LasReader.hpp</text>
</a>
</g>
</g>
<!-- Node1&#45;&gt;Node2 -->
<g id="edge1" class="edge"><title>Node1&#45;&gt;Node2</title>
<path fill="none" stroke="midnightblue" d="M1702.03,-194.907C1857.19,-184.751 2258.06,-158.513 2407.35,-148.741"/>
<polygon fill="midnightblue" stroke="midnightblue" points="1701.48,-191.435 1691.73,-195.581 1701.94,-198.42 1701.48,-191.435"/>
</g>
<!-- Node34 -->
<g id="node34" class="node"><title>Node34</title>
<g id="a_node34"><a xlink:href="LasWriter_8hpp.html" target="_top" xlink:title="pdal/io/LasWriter.hpp">
<polygon fill="white" stroke="black" points="685,-134.5 685,-153.5 794,-153.5 794,-134.5 685,-134.5"/>
<text text-anchor="middle" x="739.5" y="-141.5" font-family="Helvetica,sans-Serif" font-size="10.00">pdal/io/LasWriter.hpp</text>
</a>
</g>
</g>
<!-- Node1&#45;&gt;Node34 -->
<g id="edge33" class="edge"><title>Node1&#45;&gt;Node34</title>
<path fill="none" stroke="midnightblue" d="M1577.09,-195.255C1409.63,-185.208 952.363,-157.772 794.197,-148.282"/>
<polygon fill="midnightblue" stroke="midnightblue" points="1577.03,-198.758 1587.22,-195.863 1577.45,-191.771 1577.03,-198.758"/>
</g>
<!-- Node3 -->
<g id="node3" class="node"><title>Node3</title>
<g id="a_node3"><a xlink:href="LasReader_8cpp.html" target="_top" xlink:title="pdal/io/LasReader.cpp">
<polygon fill="white" stroke="black" points="3256.5,-73 3256.5,-92 3370.5,-92 3370.5,-73 3256.5,-73"/>
<text text-anchor="middle" x="3313.5" y="-80" font-family="Helvetica,sans-Serif" font-size="10.00">pdal/io/LasReader.cpp</text>
</a>
</g>
</g>
<!-- Node2&#45;&gt;Node3 -->
<g id="edge2" class="edge"><title>Node2&#45;&gt;Node3</title>
<path fill="none" stroke="midnightblue" d="M2532.04,-142.72C2668.09,-141.364 2984.57,-134.204 3247.5,-98 3257.96,-96.5597 3269.22,-94.34 3279.43,-92.0669"/>
<polygon fill="midnightblue" stroke="midnightblue" points="2531.75,-139.223 2521.78,-142.815 2531.82,-146.222 2531.75,-139.223"/>
</g>
<!-- Node4 -->
<g id="node4" class="node"><title>Node4</title>
<g id="a_node4"><a xlink:href="StageFactory_8cpp.html" target="_top" xlink:title="pdal/pdal/StageFactory.cpp">
<polygon fill="white" stroke="black" points="1071.5,-73 1071.5,-92 1207.5,-92 1207.5,-73 1071.5,-73"/>
<text text-anchor="middle" x="1139.5" y="-80" font-family="Helvetica,sans-Serif" font-size="10.00">pdal/pdal/StageFactory.cpp</text>
</a>
</g>
</g>
<!-- Node2&#45;&gt;Node4 -->
<g id="edge3" class="edge"><title>Node2&#45;&gt;Node4</title>
<path fill="none" stroke="midnightblue" d="M2397.15,-141.906C2172.25,-138.042 1448.34,-123.861 1216.5,-98 1204.06,-96.6126 1190.62,-94.3497 1178.5,-92.0198"/>
<polygon fill="midnightblue" stroke="midnightblue" points="2397.1,-145.405 2407.16,-142.076 2397.22,-138.406 2397.1,-145.405"/>
</g>
<!-- Node5 -->
<g id="node5" class="node"><title>Node5</title>
<g id="a_node5"><a xlink:href="CpdFilterTest_8cpp.html" target="_top" xlink:title="pdal/plugins/cpd/test\l/CpdFilterTest.cpp">
<polygon fill="white" stroke="black" points="3389,-67.5 3389,-97.5 3496,-97.5 3496,-67.5 3389,-67.5"/>
<text text-anchor="start" x="3397" y="-85.5" font-family="Helvetica,sans-Serif" font-size="10.00">pdal/plugins/cpd/test</text>
<text text-anchor="middle" x="3442.5" y="-74.5" font-family="Helvetica,sans-Serif" font-size="10.00">/CpdFilterTest.cpp</text>
</a>
</g>
</g>
<!-- Node2&#45;&gt;Node5 -->
<g id="edge4" class="edge"><title>Node2&#45;&gt;Node5</title>
<path fill="none" stroke="midnightblue" d="M2531.68,-143.75C2683.54,-144.563 3064.56,-141.636 3379.5,-98 3382.5,-97.5841 3385.57,-97.0946 3388.66,-96.5518"/>
<polygon fill="midnightblue" stroke="midnightblue" points="2531.6,-140.25 2521.58,-143.689 2531.56,-147.25 2531.6,-140.25"/>
</g>
<!-- Node6 -->
<g id="node6" class="node"><title>Node6</title>
<g id="a_node6"><a xlink:href="MatlabFilterTest_8cpp.html" target="_top" xlink:title="pdal/plugins/matlab\l/test/MatlabFilterTest.cpp">
<polygon fill="white" stroke="black" points="3514.5,-67.5 3514.5,-97.5 3642.5,-97.5 3642.5,-67.5 3514.5,-67.5"/>
<text text-anchor="start" x="3522.5" y="-85.5" font-family="Helvetica,sans-Serif" font-size="10.00">pdal/plugins/matlab</text>
<text text-anchor="middle" x="3578.5" y="-74.5" font-family="Helvetica,sans-Serif" font-size="10.00">/test/MatlabFilterTest.cpp</text>
</a>
</g>
</g>
<!-- Node2&#45;&gt;Node6 -->
<g id="edge5" class="edge"><title>Node2&#45;&gt;Node6</title>
<path fill="none" stroke="midnightblue" d="M2531.73,-143.578C2697.58,-144.249 3139.32,-141.429 3504.5,-98 3507.75,-97.6135 3511.07,-97.1642 3514.42,-96.6681"/>
<polygon fill="midnightblue" stroke="midnightblue" points="2531.69,-140.078 2521.67,-143.532 2531.66,-147.078 2531.69,-140.078"/>
</g>
<!-- Node7 -->
<g id="node7" class="node"><title>Node7</title>
<g id="a_node7"><a xlink:href="MatlabReaderTest_8cpp.html" target="_top" xlink:title="pdal/plugins/matlab\l/test/MatlabReaderTest.cpp">
<polygon fill="white" stroke="black" points="3660.5,-67.5 3660.5,-97.5 3798.5,-97.5 3798.5,-67.5 3660.5,-67.5"/>
<text text-anchor="start" x="3668.5" y="-85.5" font-family="Helvetica,sans-Serif" font-size="10.00">pdal/plugins/matlab</text>
<text text-anchor="middle" x="3729.5" y="-74.5" font-family="Helvetica,sans-Serif" font-size="10.00">/test/MatlabReaderTest.cpp</text>
</a>
</g>
</g>
<!-- Node2&#45;&gt;Node7 -->
<g id="edge6" class="edge"><title>Node2&#45;&gt;Node7</title>
<path fill="none" stroke="midnightblue" d="M2531.85,-141.741C2749.43,-137.469 3432.09,-122.421 3651.5,-98 3654.37,-97.68 3657.3,-97.315 3660.26,-96.9144"/>
<polygon fill="midnightblue" stroke="midnightblue" points="2531.77,-138.242 2521.84,-141.936 2531.91,-145.24 2531.77,-138.242"/>
</g>
<!-- Node8 -->
<g id="node8" class="node"><title>Node8</title>
<g id="a_node8"><a xlink:href="NitfReader_8hpp.html" target="_top" xlink:title="pdal/plugins/nitf/io\l/NitfReader.hpp">
<polygon fill="white" stroke="black" points="3817,-67.5 3817,-97.5 3912,-97.5 3912,-67.5 3817,-67.5"/>
<text text-anchor="start" x="3825" y="-85.5" font-family="Helvetica,sans-Serif" font-size="10.00">pdal/plugins/nitf/io</text>
<text text-anchor="middle" x="3864.5" y="-74.5" font-family="Helvetica,sans-Serif" font-size="10.00">/NitfReader.hpp</text>
</a>
</g>
</g>
<!-- Node2&#45;&gt;Node8 -->
<g id="edge7" class="edge"><title>Node2&#45;&gt;Node8</title>
<path fill="none" stroke="midnightblue" d="M2531.79,-142.662C2767.79,-141.179 3557.16,-133.61 3807.5,-98 3810.53,-97.5686 3813.64,-97.0392 3816.76,-96.4406"/>
<polygon fill="midnightblue" stroke="midnightblue" points="2531.61,-139.163 2521.63,-142.725 2531.65,-146.163 2531.61,-139.163"/>
</g>
<!-- Node10 -->
<g id="node10" class="node"><title>Node10</title>
<g id="a_node10"><a xlink:href="OCITest_8cpp.html" target="_top" xlink:title="pdal/plugins/oci/test\l/OCITest.cpp">
<polygon fill="white" stroke="black" points="3930.5,-67.5 3930.5,-97.5 4034.5,-97.5 4034.5,-67.5 3930.5,-67.5"/>
<text text-anchor="start" x="3938.5" y="-85.5" font-family="Helvetica,sans-Serif" font-size="10.00">pdal/plugins/oci/test</text>
<text text-anchor="middle" x="3982.5" y="-74.5" font-family="Helvetica,sans-Serif" font-size="10.00">/OCITest.cpp</text>
</a>
</g>
</g>
<!-- Node2&#45;&gt;Node10 -->
<g id="edge9" class="edge"><title>Node2&#45;&gt;Node10</title>
<path fill="none" stroke="midnightblue" d="M2531.96,-142.728C2780.88,-141.444 3647.6,-134.401 3921.5,-98 3924.41,-97.6128 3927.39,-97.146 3930.39,-96.6207"/>
<polygon fill="midnightblue" stroke="midnightblue" points="2531.6,-139.23 2521.61,-142.78 2531.63,-146.23 2531.6,-139.23"/>
</g>
<!-- Node11 -->
<g id="node11" class="node"><title>Node11</title>
<g id="a_node11"><a xlink:href="IcpFilterTest_8cpp.html" target="_top" xlink:title="pdal/plugins/pcl/test\l/IcpFilterTest.cpp">
<polygon fill="white" stroke="black" points="4052.5,-67.5 4052.5,-97.5 4156.5,-97.5 4156.5,-67.5 4052.5,-67.5"/>
<text text-anchor="start" x="4060.5" y="-85.5" font-family="Helvetica,sans-Serif" font-size="10.00">pdal/plugins/pcl/test</text>
<text text-anchor="middle" x="4104.5" y="-74.5" font-family="Helvetica,sans-Serif" font-size="10.00">/IcpFilterTest.cpp</text>
</a>
</g>
</g>
<!-- Node2&#45;&gt;Node11 -->
<g id="edge10" class="edge"><title>Node2&#45;&gt;Node11</title>
<path fill="none" stroke="midnightblue" d="M2531.88,-142.917C2793.8,-142.308 3744.5,-137.374 4043.5,-98 4046.41,-97.6163 4049.39,-97.1522 4052.39,-96.629"/>
<polygon fill="midnightblue" stroke="midnightblue" points="2531.74,-139.417 2521.75,-142.939 2531.76,-146.417 2531.74,-139.417"/>
</g>
<!-- Node12 -->
<g id="node12" class="node"><title>Node12</title>
<g id="a_node12"><a xlink:href="SQLiteTest_8cpp.html" target="_top" xlink:title="pdal/plugins/sqlite\l/test/SQLiteTest.cpp">
<polygon fill="white" stroke="black" points="4175,-67.5 4175,-97.5 4282,-97.5 4282,-67.5 4175,-67.5"/>
<text text-anchor="start" x="4183" y="-85.5" font-family="Helvetica,sans-Serif" font-size="10.00">pdal/plugins/sqlite</text>
<text text-anchor="middle" x="4228.5" y="-74.5" font-family="Helvetica,sans-Serif" font-size="10.00">/test/SQLiteTest.cpp</text>
</a>
</g>
</g>
<!-- Node2&#45;&gt;Node12 -->
<g id="edge11" class="edge"><title>Node2&#45;&gt;Node12</title>
<path fill="none" stroke="midnightblue" d="M2531.99,-143.014C2806.66,-142.792 3841.26,-139.182 4165.5,-98 4168.51,-97.6182 4171.58,-97.1556 4174.67,-96.6336"/>
<polygon fill="midnightblue" stroke="midnightblue" points="2531.77,-139.514 2521.77,-143.021 2531.77,-146.514 2531.77,-139.514"/>
</g>
<!-- Node13 -->
<g id="node13" class="node"><title>Node13</title>
<g id="a_node13"><a xlink:href="pc2pcTest_8cpp.html" target="_top" xlink:title="pdal/test/unit/apps\l/pc2pcTest.cpp">
<polygon fill="white" stroke="black" points="4300,-67.5 4300,-97.5 4397,-97.5 4397,-67.5 4300,-67.5"/>
<text text-anchor="start" x="4308" y="-85.5" font-family="Helvetica,sans-Serif" font-size="10.00">pdal/test/unit/apps</text>
<text text-anchor="middle" x="4348.5" y="-74.5" font-family="Helvetica,sans-Serif" font-size="10.00">/pc2pcTest.cpp</text>
</a>
</g>
</g>
<!-- Node2&#45;&gt;Node13 -->
<g id="edge12" class="edge"><title>Node2&#45;&gt;Node13</title>
<path fill="none" stroke="midnightblue" d="M2532.2,-143.364C2819.85,-144.597 3941.82,-146.159 4291.5,-98 4294.23,-97.6238 4297.02,-97.1657 4299.82,-96.6472"/>
<polygon fill="midnightblue" stroke="midnightblue" points="2531.94,-139.863 2521.93,-143.318 2531.91,-146.863 2531.94,-139.863"/>
</g>
<!-- Node14 -->
<g id="node14" class="node"><title>Node14</title>
<g id="a_node14"><a xlink:href="pcpipelineTestJSON_8cpp.html" target="_top" xlink:title="pdal/test/unit/apps\l/pcpipelineTestJSON.cpp">
<polygon fill="white" stroke="black" points="4415.5,-67.5 4415.5,-97.5 4543.5,-97.5 4543.5,-67.5 4415.5,-67.5"/>
<text text-anchor="start" x="4423.5" y="-85.5" font-family="Helvetica,sans-Serif" font-size="10.00">pdal/test/unit/apps</text>
<text text-anchor="middle" x="4479.5" y="-74.5" font-family="Helvetica,sans-Serif" font-size="10.00">/pcpipelineTestJSON.cpp</text>
</a>
</g>
</g>
<!-- Node2&#45;&gt;Node14 -->
<g id="edge13" class="edge"><title>Node2&#45;&gt;Node14</title>
<path fill="none" stroke="midnightblue" d="M2531.94,-143.002C2830.11,-142.771 4031.73,-139.249 4406.5,-98 4409.33,-97.689 4412.2,-97.3244 4415.11,-96.9176"/>
<polygon fill="midnightblue" stroke="midnightblue" points="2531.72,-139.502 2521.72,-143.009 2531.72,-146.502 2531.72,-139.502"/>
</g>
<!-- Node15 -->
<g id="node15" class="node"><title>Node15</title>
<g id="a_node15"><a xlink:href="RandomTest_8cpp.html" target="_top" xlink:title="pdal/test/unit/apps\l/RandomTest.cpp">
<polygon fill="white" stroke="black" points="1490,-67.5 1490,-97.5 1587,-97.5 1587,-67.5 1490,-67.5"/>
<text text-anchor="start" x="1498" y="-85.5" font-family="Helvetica,sans-Serif" font-size="10.00">pdal/test/unit/apps</text>
<text text-anchor="middle" x="1538.5" y="-74.5" font-family="Helvetica,sans-Serif" font-size="10.00">/RandomTest.cpp</text>
</a>
</g>
</g>
<!-- Node2&#45;&gt;Node15 -->
<g id="edge14" class="edge"><title>Node2&#45;&gt;Node15</title>
<path fill="none" stroke="midnightblue" d="M2397.32,-141.197C2221.48,-136.208 1750.69,-121.049 1596.5,-98 1593.42,-97.5396 1590.27,-96.9881 1587.1,-96.3729"/>
<polygon fill="midnightblue" stroke="midnightblue" points="2397.37,-144.699 2407.47,-141.483 2397.57,-137.702 2397.37,-144.699"/>
</g>
<!-- Node16 -->
<g id="node16" class="node"><title>Node16</title>
<g id="a_node16"><a xlink:href="CompressionTest_8cpp.html" target="_top" xlink:title="pdal/test/unit/Compression\lTest.cpp">
<polygon fill="white" stroke="black" points="1605.5,-67.5 1605.5,-97.5 1739.5,-97.5 1739.5,-67.5 1605.5,-67.5"/>
<text text-anchor="start" x="1613.5" y="-85.5" font-family="Helvetica,sans-Serif" font-size="10.00">pdal/test/unit/Compression</text>
<text text-anchor="middle" x="1672.5" y="-74.5" font-family="Helvetica,sans-Serif" font-size="10.00">Test.cpp</text>
</a>
</g>
</g>
<!-- Node2&#45;&gt;Node16 -->
<g id="edge15" class="edge"><title>Node2&#45;&gt;Node16</title>
<path fill="none" stroke="midnightblue" d="M2396.82,-141.58C2269.45,-138.281 1985.58,-127.945 1748.5,-98 1745.57,-97.6297 1742.58,-97.2159 1739.56,-96.7689"/>
<polygon fill="midnightblue" stroke="midnightblue" points="2397.11,-145.088 2407.19,-141.842 2397.28,-138.091 2397.11,-145.088"/>
</g>
<!-- Node17 -->
<g id="node17" class="node"><title>Node17</title>
<g id="a_node17"><a xlink:href="AdditionalMergeTest_8cpp.html" target="_top" xlink:title="pdal/test/unit/filters\l/AdditionalMergeTest.cpp">
<polygon fill="white" stroke="black" points="1225.5,-67.5 1225.5,-97.5 1353.5,-97.5 1353.5,-67.5 1225.5,-67.5"/>
<text text-anchor="start" x="1233.5" y="-85.5" font-family="Helvetica,sans-Serif" font-size="10.00">pdal/test/unit/filters</text>
<text text-anchor="middle" x="1289.5" y="-74.5" font-family="Helvetica,sans-Serif" font-size="10.00">/AdditionalMergeTest.cpp</text>
</a>
</g>
</g>
<!-- Node2&#45;&gt;Node17 -->
<g id="edge16" class="edge"><title>Node2&#45;&gt;Node17</title>
<path fill="none" stroke="midnightblue" d="M2397.11,-141.621C2189.96,-137.164 1564.44,-122.031 1362.5,-98 1359.55,-97.6488 1356.54,-97.2437 1353.5,-96.7972"/>
<polygon fill="midnightblue" stroke="midnightblue" points="2397.16,-145.123 2407.23,-141.837 2397.31,-138.124 2397.16,-145.123"/>
</g>
<!-- Node18 -->
<g id="node18" class="node"><title>Node18</title>
<g id="a_node18"><a xlink:href="ChipperTest_8cpp.html" target="_top" xlink:title="pdal/test/unit/filters\l/ChipperTest.cpp">
<polygon fill="white" stroke="black" points="1371.5,-67.5 1371.5,-97.5 1471.5,-97.5 1471.5,-67.5 1371.5,-67.5"/>
<text text-anchor="start" x="1379.5" y="-85.5" font-family="Helvetica,sans-Serif" font-size="10.00">pdal/test/unit/filters</text>
<text text-anchor="middle" x="1421.5" y="-74.5" font-family="Helvetica,sans-Serif" font-size="10.00">/ChipperTest.cpp</text>
</a>
</g>
</g>
<!-- Node2&#45;&gt;Node18 -->
<g id="edge17" class="edge"><title>Node2&#45;&gt;Node18</title>
<path fill="none" stroke="midnightblue" d="M2397.18,-141.634C2205.29,-137.468 1658.02,-123.622 1480.5,-98 1477.58,-97.5781 1474.59,-97.075 1471.58,-96.5136"/>
<polygon fill="midnightblue" stroke="midnightblue" points="2397.33,-145.138 2407.4,-141.854 2397.48,-138.14 2397.33,-145.138"/>
</g>
<!-- Node19 -->
<g id="node19" class="node"><title>Node19</title>
<g id="a_node19"><a xlink:href="ColorizationFilterTest_8cpp.html" target="_top" xlink:title="pdal/test/unit/filters\l/ColorizationFilterTest.cpp">
<polygon fill="white" stroke="black" points="1758,-67.5 1758,-97.5 1889,-97.5 1889,-67.5 1758,-67.5"/>
<text text-anchor="start" x="1766" y="-85.5" font-family="Helvetica,sans-Serif" font-size="10.00">pdal/test/unit/filters</text>
<text text-anchor="middle" x="1823.5" y="-74.5" font-family="Helvetica,sans-Serif" font-size="10.00">/ColorizationFilterTest.cpp</text>
</a>
</g>
</g>
<!-- Node2&#45;&gt;Node19 -->
<g id="edge18" class="edge"><title>Node2&#45;&gt;Node19</title>
<path fill="none" stroke="midnightblue" d="M2396.84,-140.134C2290.26,-135.057 2076.91,-122.615 1897.5,-98 1894.78,-97.6263 1892,-97.2164 1889.2,-96.7786"/>
<polygon fill="midnightblue" stroke="midnightblue" points="2396.97,-143.644 2407.13,-140.617 2397.3,-136.652 2396.97,-143.644"/>
</g>
<!-- Node20 -->
<g id="node20" class="node"><title>Node20</title>
<g id="a_node20"><a xlink:href="CropFilterTest_8cpp.html" target="_top" xlink:title="pdal/test/unit/filters\l/CropFilterTest.cpp">
<polygon fill="white" stroke="black" points="1907,-67.5 1907,-97.5 2008,-97.5 2008,-67.5 1907,-67.5"/>
<text text-anchor="start" x="1915" y="-85.5" font-family="Helvetica,sans-Serif" font-size="10.00">pdal/test/unit/filters</text>
<text text-anchor="middle" x="1957.5" y="-74.5" font-family="Helvetica,sans-Serif" font-size="10.00">/CropFilterTest.cpp</text>
</a>
</g>
</g>
<!-- Node2&#45;&gt;Node20 -->
<g id="edge19" class="edge"><title>Node2&#45;&gt;Node20</title>
<path fill="none" stroke="midnightblue" d="M2397.27,-139.108C2309.47,-133.369 2151.18,-120.772 2017.5,-98 2014.44,-97.4781 2011.3,-96.8884 2008.14,-96.2529"/>
<polygon fill="midnightblue" stroke="midnightblue" points="2397.16,-142.608 2407.36,-139.758 2397.61,-135.623 2397.16,-142.608"/>
</g>
<!-- Node21 -->
<g id="node21" class="node"><title>Node21</title>
<g id="a_node21"><a xlink:href="FerryFilterTest_8cpp.html" target="_top" xlink:title="pdal/test/unit/filters\l/FerryFilterTest.cpp">
<polygon fill="white" stroke="black" points="2026.5,-67.5 2026.5,-97.5 2128.5,-97.5 2128.5,-67.5 2026.5,-67.5"/>
<text text-anchor="start" x="2034.5" y="-85.5" font-family="Helvetica,sans-Serif" font-size="10.00">pdal/test/unit/filters</text>
<text text-anchor="middle" x="2077.5" y="-74.5" font-family="Helvetica,sans-Serif" font-size="10.00">/FerryFilterTest.cpp</text>
</a>
</g>
</g>
<!-- Node2&#45;&gt;Node21 -->
<g id="edge20" class="edge"><title>Node2&#45;&gt;Node21</title>
<path fill="none" stroke="midnightblue" d="M2396.9,-135.704C2330.55,-128.072 2226.62,-114.858 2137.5,-98 2134.66,-97.4622 2131.75,-96.8766 2128.81,-96.2592"/>
<polygon fill="midnightblue" stroke="midnightblue" points="2396.88,-139.225 2407.21,-136.881 2397.67,-132.27 2396.88,-139.225"/>
</g>
<!-- Node22 -->
<g id="node22" class="node"><title>Node22</title>
<g id="a_node22"><a xlink:href="GroupByFilterTest_8cpp.html" target="_top" xlink:title="pdal/test/unit/filters\l/GroupByFilterTest.cpp">
<polygon fill="white" stroke="black" points="2146.5,-67.5 2146.5,-97.5 2264.5,-97.5 2264.5,-67.5 2146.5,-67.5"/>
<text text-anchor="start" x="2154.5" y="-85.5" font-family="Helvetica,sans-Serif" font-size="10.00">pdal/test/unit/filters</text>
<text text-anchor="middle" x="2205.5" y="-74.5" font-family="Helvetica,sans-Serif" font-size="10.00">/GroupByFilterTest.cpp</text>
</a>
</g>
</g>
<!-- Node2&#45;&gt;Node22 -->
<g id="edge21" class="edge"><title>Node2&#45;&gt;Node22</title>
<path fill="none" stroke="midnightblue" d="M2417.49,-132.199C2374.55,-122.336 2310.9,-107.714 2264.55,-97.0666"/>
<polygon fill="midnightblue" stroke="midnightblue" points="2416.86,-135.647 2427.39,-134.475 2418.43,-128.825 2416.86,-135.647"/>
</g>
<!-- Node23 -->
<g id="node23" class="node"><title>Node23</title>
<g id="a_node23"><a xlink:href="LocateFilterTest_8cpp.html" target="_top" xlink:title="pdal/test/unit/filters\l/LocateFilterTest.cpp">
<polygon fill="white" stroke="black" points="2283,-67.5 2283,-97.5 2392,-97.5 2392,-67.5 2283,-67.5"/>
<text text-anchor="start" x="2291" y="-85.5" font-family="Helvetica,sans-Serif" font-size="10.00">pdal/test/unit/filters</text>
<text text-anchor="middle" x="2337.5" y="-74.5" font-family="Helvetica,sans-Serif" font-size="10.00">/LocateFilterTest.cpp</text>
</a>
</g>
</g>
<!-- Node2&#45;&gt;Node23 -->
<g id="edge22" class="edge"><title>Node2&#45;&gt;Node23</title>
<path fill="none" stroke="midnightblue" d="M2437.18,-130.2C2416.66,-120.585 2388.56,-107.423 2367.43,-97.523"/>
<polygon fill="midnightblue" stroke="midnightblue" points="2435.76,-133.402 2446.3,-134.475 2438.73,-127.063 2435.76,-133.402"/>
</g>
<!-- Node24 -->
<g id="node24" class="node"><title>Node24</title>
<g id="a_node24"><a xlink:href="RangeFilterTest_8cpp.html" target="_top" xlink:title="pdal/test/unit/filters\l/RangeFilterTest.cpp">
<polygon fill="white" stroke="black" points="2410.5,-67.5 2410.5,-97.5 2518.5,-97.5 2518.5,-67.5 2410.5,-67.5"/>
<text text-anchor="start" x="2418.5" y="-85.5" font-family="Helvetica,sans-Serif" font-size="10.00">pdal/test/unit/filters</text>
<text text-anchor="middle" x="2464.5" y="-74.5" font-family="Helvetica,sans-Serif" font-size="10.00">/RangeFilterTest.cpp</text>
</a>
</g>
</g>
<!-- Node2&#45;&gt;Node24 -->
<g id="edge23" class="edge"><title>Node2&#45;&gt;Node24</title>
<path fill="none" stroke="midnightblue" d="M2464.5,-124.235C2464.5,-115.586 2464.5,-105.497 2464.5,-97.523"/>
<polygon fill="midnightblue" stroke="midnightblue" points="2461,-124.475 2464.5,-134.475 2468,-124.475 2461,-124.475"/>
</g>
<!-- Node25 -->
<g id="node25" class="node"><title>Node25</title>
<g id="a_node25"><a xlink:href="ReprojectionFilterTest_8cpp.html" target="_top" xlink:title="pdal/test/unit/filters\l/ReprojectionFilterTest.cpp">
<polygon fill="white" stroke="black" points="2536.5,-67.5 2536.5,-97.5 2670.5,-97.5 2670.5,-67.5 2536.5,-67.5"/>
<text text-anchor="start" x="2544.5" y="-85.5" font-family="Helvetica,sans-Serif" font-size="10.00">pdal/test/unit/filters</text>
<text text-anchor="middle" x="2603.5" y="-74.5" font-family="Helvetica,sans-Serif" font-size="10.00">/ReprojectionFilterTest.cpp</text>
</a>
</g>
</g>
<!-- Node2&#45;&gt;Node25 -->
<g id="edge24" class="edge"><title>Node2&#45;&gt;Node25</title>
<path fill="none" stroke="midnightblue" d="M2493.79,-130.461C2516.31,-120.823 2547.4,-107.513 2570.74,-97.523"/>
<polygon fill="midnightblue" stroke="midnightblue" points="2492.23,-127.322 2484.42,-134.475 2494.99,-133.757 2492.23,-127.322"/>
</g>
<!-- Node26 -->
<g id="node26" class="node"><title>Node26</title>
<g id="a_node26"><a xlink:href="SortFilterTest_8cpp.html" target="_top" xlink:title="pdal/test/unit/filters\l/SortFilterTest.cpp">
<polygon fill="white" stroke="black" points="482.5,-67.5 482.5,-97.5 582.5,-97.5 582.5,-67.5 482.5,-67.5"/>
<text text-anchor="start" x="490.5" y="-85.5" font-family="Helvetica,sans-Serif" font-size="10.00">pdal/test/unit/filters</text>
<text text-anchor="middle" x="532.5" y="-74.5" font-family="Helvetica,sans-Serif" font-size="10.00">/SortFilterTest.cpp</text>
</a>
</g>
</g>
<!-- Node2&#45;&gt;Node26 -->
<g id="edge25" class="edge"><title>Node2&#45;&gt;Node26</title>
<path fill="none" stroke="midnightblue" d="M2397.05,-143.338C2105.36,-144.499 950.985,-145.914 591.5,-98 588.572,-97.6098 585.58,-97.1315 582.571,-96.589"/>
<polygon fill="midnightblue" stroke="midnightblue" points="2397.48,-146.837 2407.47,-143.295 2397.45,-139.837 2397.48,-146.837"/>
</g>
<!-- Node27 -->
<g id="node27" class="node"><title>Node27</title>
<g id="a_node27"><a xlink:href="SplitterTest_8cpp.html" target="_top" xlink:title="pdal/test/unit/filters\l/SplitterTest.cpp">
<polygon fill="white" stroke="black" points="2688.5,-67.5 2688.5,-97.5 2788.5,-97.5 2788.5,-67.5 2688.5,-67.5"/>
<text text-anchor="start" x="2696.5" y="-85.5" font-family="Helvetica,sans-Serif" font-size="10.00">pdal/test/unit/filters</text>
<text text-anchor="middle" x="2738.5" y="-74.5" font-family="Helvetica,sans-Serif" font-size="10.00">/SplitterTest.cpp</text>
</a>
</g>
</g>
<!-- Node2&#45;&gt;Node27 -->
<g id="edge26" class="edge"><title>Node2&#45;&gt;Node27</title>
<path fill="none" stroke="midnightblue" d="M2517.24,-132.492C2560.83,-123.68 2624.3,-110.555 2679.5,-98 2682.38,-97.3449 2685.34,-96.6597 2688.32,-95.9588"/>
<polygon fill="midnightblue" stroke="midnightblue" points="2516.54,-129.063 2507.43,-134.471 2517.92,-135.925 2516.54,-129.063"/>
</g>
<!-- Node28 -->
<g id="node28" class="node"><title>Node28</title>
<g id="a_node28"><a xlink:href="GDALWriterTest_8cpp.html" target="_top" xlink:title="pdal/test/unit/io/GDALWriter\lTest.cpp">
<polygon fill="white" stroke="black" points="2806.5,-67.5 2806.5,-97.5 2946.5,-97.5 2946.5,-67.5 2806.5,-67.5"/>
<text text-anchor="start" x="2814.5" y="-85.5" font-family="Helvetica,sans-Serif" font-size="10.00">pdal/test/unit/io/GDALWriter</text>
<text text-anchor="middle" x="2876.5" y="-74.5" font-family="Helvetica,sans-Serif" font-size="10.00">Test.cpp</text>
</a>
</g>
</g>
<!-- Node2&#45;&gt;Node28 -->
<g id="edge27" class="edge"><title>Node2&#45;&gt;Node28</title>
<path fill="none" stroke="midnightblue" d="M2531.83,-134.848C2599.2,-126.47 2705.71,-112.617 2797.5,-98 2800.39,-97.5395 2803.34,-97.0569 2806.32,-96.5591"/>
<polygon fill="midnightblue" stroke="midnightblue" points="2531.27,-131.391 2521.78,-136.094 2532.13,-138.338 2531.27,-131.391"/>
</g>
<!-- Node29 -->
<g id="node29" class="node"><title>Node29</title>
<g id="a_node29"><a xlink:href="LasReaderTest_8cpp.html" target="_top" xlink:title="pdal/test/unit/io/LasReader\lTest.cpp">
<polygon fill="white" stroke="black" points="2964.5,-67.5 2964.5,-97.5 3098.5,-97.5 3098.5,-67.5 2964.5,-67.5"/>
<text text-anchor="start" x="2972.5" y="-85.5" font-family="Helvetica,sans-Serif" font-size="10.00">pdal/test/unit/io/LasReader</text>
<text text-anchor="middle" x="3031.5" y="-74.5" font-family="Helvetica,sans-Serif" font-size="10.00">Test.cpp</text>
</a>
</g>
</g>
<!-- Node2&#45;&gt;Node29 -->
<g id="edge28" class="edge"><title>Node2&#45;&gt;Node29</title>
<path fill="none" stroke="midnightblue" d="M2531.81,-138.909C2626.64,-132.674 2804.81,-119.229 2955.5,-98 2958.43,-97.5878 2961.41,-97.1393 2964.42,-96.6638"/>
<polygon fill="midnightblue" stroke="midnightblue" points="2531.54,-135.419 2521.78,-139.562 2531.99,-142.405 2531.54,-135.419"/>
</g>
<!-- Node30 -->
<g id="node30" class="node"><title>Node30</title>
<g id="a_node30"><a xlink:href="LasWriterTest_8cpp.html" target="_top" xlink:title="pdal/test/unit/io/LasWriter\lTest.cpp">
<polygon fill="white" stroke="black" points="600.5,-67.5 600.5,-97.5 728.5,-97.5 728.5,-67.5 600.5,-67.5"/>
<text text-anchor="start" x="608.5" y="-85.5" font-family="Helvetica,sans-Serif" font-size="10.00">pdal/test/unit/io/LasWriter</text>
<text text-anchor="middle" x="664.5" y="-74.5" font-family="Helvetica,sans-Serif" font-size="10.00">Test.cpp</text>
</a>
</g>
</g>
<!-- Node2&#45;&gt;Node30 -->
<g id="edge29" class="edge"><title>Node2&#45;&gt;Node30</title>
<path fill="none" stroke="midnightblue" d="M2396.94,-142.775C2119.62,-141.613 1067.66,-134.821 737.5,-98 734.675,-97.6849 731.796,-97.3169 728.894,-96.9074"/>
<polygon fill="midnightblue" stroke="midnightblue" points="2397.24,-146.276 2407.25,-142.817 2397.27,-139.276 2397.24,-146.276"/>
</g>
<!-- Node31 -->
<g id="node31" class="node"><title>Node31</title>
<g id="a_node31"><a xlink:href="TextReaderTest_8cpp.html" target="_top" xlink:title="pdal/test/unit/io/TextReader\lTest.cpp">
<polygon fill="white" stroke="black" points="747,-67.5 747,-97.5 884,-97.5 884,-67.5 747,-67.5"/>
<text text-anchor="start" x="755" y="-85.5" font-family="Helvetica,sans-Serif" font-size="10.00">pdal/test/unit/io/TextReader</text>
<text text-anchor="middle" x="815.5" y="-74.5" font-family="Helvetica,sans-Serif" font-size="10.00">Test.cpp</text>
</a>
</g>
</g>
<!-- Node2&#45;&gt;Node31 -->
<g id="edge30" class="edge"><title>Node2&#45;&gt;Node31</title>
<path fill="none" stroke="midnightblue" d="M2397.03,-142.484C2135.84,-140.269 1190.85,-130.159 892.5,-98 889.795,-97.7084 887.043,-97.3739 884.267,-97.005"/>
<polygon fill="midnightblue" stroke="midnightblue" points="2397.1,-145.985 2407.13,-142.569 2397.16,-138.985 2397.1,-145.985"/>
</g>
<!-- Node32 -->
<g id="node32" class="node"><title>Node32</title>
<g id="a_node32"><a xlink:href="PointTableTest_8cpp.html" target="_top" xlink:title="pdal/test/unit/PointTable\lTest.cpp">
<polygon fill="white" stroke="black" points="3116.5,-67.5 3116.5,-97.5 3238.5,-97.5 3238.5,-67.5 3116.5,-67.5"/>
<text text-anchor="start" x="3124.5" y="-85.5" font-family="Helvetica,sans-Serif" font-size="10.00">pdal/test/unit/PointTable</text>
<text text-anchor="middle" x="3177.5" y="-74.5" font-family="Helvetica,sans-Serif" font-size="10.00">Test.cpp</text>
</a>
</g>
</g>
<!-- Node2&#45;&gt;Node32 -->
<g id="edge31" class="edge"><title>Node2&#45;&gt;Node32</title>
<path fill="none" stroke="midnightblue" d="M2531.8,-141.265C2649.17,-137.576 2898.74,-126.794 3107.5,-98 3110.33,-97.61 3113.21,-97.173 3116.12,-96.7007"/>
<polygon fill="midnightblue" stroke="midnightblue" points="2531.42,-137.774 2521.53,-141.58 2531.64,-144.771 2531.42,-137.774"/>
</g>
<!-- Node33 -->
<g id="node33" class="node"><title>Node33</title>
<g id="a_node33"><a xlink:href="SpatialReferenceTest_8cpp.html" target="_top" xlink:title="pdal/test/unit/SpatialReference\lTest.cpp">
<polygon fill="white" stroke="black" points="902,-67.5 902,-97.5 1053,-97.5 1053,-67.5 902,-67.5"/>
<text text-anchor="start" x="910" y="-85.5" font-family="Helvetica,sans-Serif" font-size="10.00">pdal/test/unit/SpatialReference</text>
<text text-anchor="middle" x="977.5" y="-74.5" font-family="Helvetica,sans-Serif" font-size="10.00">Test.cpp</text>
</a>
</g>
</g>
<!-- Node2&#45;&gt;Node33 -->
<g id="edge32" class="edge"><title>Node2&#45;&gt;Node33</title>
<path fill="none" stroke="midnightblue" d="M2397.2,-142.062C2154.72,-138.493 1326.15,-124.593 1062.5,-98 1059.52,-97.6995 1056.49,-97.3575 1053.43,-96.9823"/>
<polygon fill="midnightblue" stroke="midnightblue" points="2397.24,-145.563 2407.29,-142.21 2397.34,-138.564 2397.24,-145.563"/>
</g>
<!-- Node9 -->
<g id="node9" class="node"><title>Node9</title>
<g id="a_node9"><a xlink:href="NitfReader_8cpp.html" target="_top" xlink:title="pdal/plugins/nitf/io\l/NitfReader.cpp">
<polygon fill="white" stroke="black" points="3817,-0.5 3817,-30.5 3912,-30.5 3912,-0.5 3817,-0.5"/>
<text text-anchor="start" x="3825" y="-18.5" font-family="Helvetica,sans-Serif" font-size="10.00">pdal/plugins/nitf/io</text>
<text text-anchor="middle" x="3864.5" y="-7.5" font-family="Helvetica,sans-Serif" font-size="10.00">/NitfReader.cpp</text>
</a>
</g>
</g>
<!-- Node8&#45;&gt;Node9 -->
<g id="edge8" class="edge"><title>Node8&#45;&gt;Node9</title>
<path fill="none" stroke="midnightblue" d="M3864.5,-57.1081C3864.5,-48.1539 3864.5,-38.3227 3864.5,-30.5765"/>
<polygon fill="midnightblue" stroke="midnightblue" points="3861,-57.3959 3864.5,-67.396 3868,-57.396 3861,-57.3959"/>
</g>
<!-- Node34&#45;&gt;Node4 -->
<g id="edge35" class="edge"><title>Node34&#45;&gt;Node4</title>
<path fill="none" stroke="midnightblue" d="M804.136,-134.835C869.243,-126.407 972.523,-112.48 1061.5,-98 1072.51,-96.2079 1084.36,-94.0983 1095.42,-92.0514"/>
<polygon fill="midnightblue" stroke="midnightblue" points="803.492,-131.389 794.022,-136.14 804.388,-138.332 803.492,-131.389"/>
</g>
<!-- Node34&#45;&gt;Node17 -->
<g id="edge40" class="edge"><title>Node34&#45;&gt;Node17</title>
<path fill="none" stroke="midnightblue" d="M804.071,-139.007C895.998,-132.846 1069.73,-119.442 1216.5,-98 1219.44,-97.5704 1222.44,-97.1009 1225.47,-96.6022"/>
<polygon fill="midnightblue" stroke="midnightblue" points="803.83,-135.515 794.083,-139.669 804.293,-142.5 803.83,-135.515"/>
</g>
<!-- Node34&#45;&gt;Node18 -->
<g id="edge41" class="edge"><title>Node34&#45;&gt;Node18</title>
<path fill="none" stroke="midnightblue" d="M804.283,-141.916C917.958,-139.215 1160.47,-129.888 1362.5,-98 1365.42,-97.5395 1368.4,-97.0063 1371.41,-96.4218"/>
<polygon fill="midnightblue" stroke="midnightblue" points="803.936,-138.423 794.018,-142.15 804.095,-145.421 803.936,-138.423"/>
</g>
<!-- Node34&#45;&gt;Node26 -->
<g id="edge42" class="edge"><title>Node34&#45;&gt;Node26</title>
<path fill="none" stroke="midnightblue" d="M699.871,-131.609C666.103,-121.903 617.443,-107.916 581.286,-97.523"/>
<polygon fill="midnightblue" stroke="midnightblue" points="699.264,-135.076 709.842,-134.475 701.198,-128.349 699.264,-135.076"/>
</g>
<!-- Node34&#45;&gt;Node30 -->
<g id="edge43" class="edge"><title>Node34&#45;&gt;Node30</title>
<path fill="none" stroke="midnightblue" d="M720.839,-128.195C709.012,-118.813 693.808,-106.751 682.176,-97.523"/>
<polygon fill="midnightblue" stroke="midnightblue" points="718.745,-131.002 728.754,-134.475 723.095,-125.518 718.745,-131.002"/>
</g>
<!-- Node34&#45;&gt;Node31 -->
<g id="edge44" class="edge"><title>Node34&#45;&gt;Node31</title>
<path fill="none" stroke="midnightblue" d="M758.41,-128.195C770.394,-118.813 785.801,-106.751 797.588,-97.523"/>
<polygon fill="midnightblue" stroke="midnightblue" points="756.105,-125.555 750.389,-134.475 760.421,-131.066 756.105,-125.555"/>
</g>
<!-- Node34&#45;&gt;Node33 -->
<g id="edge45" class="edge"><title>Node34&#45;&gt;Node33</title>
<path fill="none" stroke="midnightblue" d="M783.567,-131.983C822.439,-122.265 879.299,-108.05 921.408,-97.523"/>
<polygon fill="midnightblue" stroke="midnightblue" points="782.452,-128.654 773.6,-134.475 784.15,-135.445 782.452,-128.654"/>
</g>
<!-- Node35 -->
<g id="node35" class="node"><title>Node35</title>
<g id="a_node35"><a xlink:href="LasWriter_8cpp.html" target="_top" xlink:title="pdal/io/LasWriter.cpp">
<polygon fill="white" stroke="black" points="236,-73 236,-92 345,-92 345,-73 236,-73"/>
<text text-anchor="middle" x="290.5" y="-80" font-family="Helvetica,sans-Serif" font-size="10.00">pdal/io/LasWriter.cpp</text>
</a>
</g>
</g>
<!-- Node34&#45;&gt;Node35 -->
<g id="edge34" class="edge"><title>Node34&#45;&gt;Node35</title>
<path fill="none" stroke="midnightblue" d="M674.873,-137.659C597.956,-130.796 465.799,-117.408 353.5,-98 343.989,-96.3562 333.758,-94.1804 324.365,-92.0157"/>
<polygon fill="midnightblue" stroke="midnightblue" points="674.624,-141.15 684.893,-138.543 675.239,-134.177 674.624,-141.15"/>
</g>
<!-- Node36 -->
<g id="node36" class="node"><title>Node36</title>
<g id="a_node36"><a xlink:href="MrsidTest_8cpp.html" target="_top" xlink:title="pdal/plugins/mrsid\l/test/MrsidTest.cpp">
<polygon fill="white" stroke="black" points="363,-67.5 363,-97.5 464,-97.5 464,-67.5 363,-67.5"/>
<text text-anchor="start" x="371" y="-85.5" font-family="Helvetica,sans-Serif" font-size="10.00">pdal/plugins/mrsid</text>
<text text-anchor="middle" x="413.5" y="-74.5" font-family="Helvetica,sans-Serif" font-size="10.00">/test/MrsidTest.cpp</text>
</a>
</g>
</g>
<!-- Node34&#45;&gt;Node36 -->
<g id="edge36" class="edge"><title>Node34&#45;&gt;Node36</title>
<path fill="none" stroke="midnightblue" d="M674.66,-133.322C620.655,-124.952 541.818,-112.016 473.5,-98 470.456,-97.3754 467.331,-96.7063 464.183,-96.0106"/>
<polygon fill="midnightblue" stroke="midnightblue" points="674.367,-136.818 684.783,-134.882 675.433,-129.899 674.367,-136.818"/>
</g>
<!-- Node37 -->
<g id="node37" class="node"><title>Node37</title>
<g id="a_node37"><a xlink:href="NitfWriter_8hpp.html" target="_top" xlink:title="pdal/plugins/nitf/io\l/NitfWriter.hpp">
<polygon fill="white" stroke="black" points="0,-67.5 0,-97.5 95,-97.5 95,-67.5 0,-67.5"/>
<text text-anchor="start" x="8" y="-85.5" font-family="Helvetica,sans-Serif" font-size="10.00">pdal/plugins/nitf/io</text>
<text text-anchor="middle" x="47.5" y="-74.5" font-family="Helvetica,sans-Serif" font-size="10.00">/NitfWriter.hpp</text>
</a>
</g>
</g>
<!-- Node34&#45;&gt;Node37 -->
<g id="edge37" class="edge"><title>Node34&#45;&gt;Node37</title>
<path fill="none" stroke="midnightblue" d="M674.566,-142.31C558.986,-140.216 310.284,-131.795 103.5,-98 100.725,-97.5464 97.8868,-97.0186 95.0329,-96.4383"/>
<polygon fill="midnightblue" stroke="midnightblue" points="674.604,-145.811 684.662,-142.483 674.723,-138.812 674.604,-145.811"/>
</g>
<!-- Node39 -->
<g id="node39" class="node"><title>Node39</title>
<g id="a_node39"><a xlink:href="NitfReaderTest_8cpp.html" target="_top" xlink:title="pdal/plugins/nitf/test\l/NitfReaderTest.cpp">
<polygon fill="white" stroke="black" points="113,-67.5 113,-97.5 218,-97.5 218,-67.5 113,-67.5"/>
<text text-anchor="start" x="121" y="-85.5" font-family="Helvetica,sans-Serif" font-size="10.00">pdal/plugins/nitf/test</text>
<text text-anchor="middle" x="165.5" y="-74.5" font-family="Helvetica,sans-Serif" font-size="10.00">/NitfReaderTest.cpp</text>
</a>
</g>
</g>
<!-- Node34&#45;&gt;Node39 -->
<g id="edge39" class="edge"><title>Node34&#45;&gt;Node39</title>
<path fill="none" stroke="midnightblue" d="M674.877,-140.358C577.245,-135.685 386.538,-123.898 226.5,-98 223.814,-97.5653 221.07,-97.0772 218.306,-96.5503"/>
<polygon fill="midnightblue" stroke="midnightblue" points="674.734,-143.855 684.888,-140.828 675.063,-136.863 674.734,-143.855"/>
</g>
<!-- Node38 -->
<g id="node38" class="node"><title>Node38</title>
<g id="a_node38"><a xlink:href="NitfWriter_8cpp.html" target="_top" xlink:title="pdal/plugins/nitf/io\l/NitfWriter.cpp">
<polygon fill="white" stroke="black" points="0,-0.5 0,-30.5 95,-30.5 95,-0.5 0,-0.5"/>
<text text-anchor="start" x="8" y="-18.5" font-family="Helvetica,sans-Serif" font-size="10.00">pdal/plugins/nitf/io</text>
<text text-anchor="middle" x="47.5" y="-7.5" font-family="Helvetica,sans-Serif" font-size="10.00">/NitfWriter.cpp</text>
</a>
</g>
</g>
<!-- Node37&#45;&gt;Node38 -->
<g id="edge38" class="edge"><title>Node37&#45;&gt;Node38</title>
<path fill="none" stroke="midnightblue" d="M47.5,-57.1081C47.5,-48.1539 47.5,-38.3227 47.5,-30.5765"/>
<polygon fill="midnightblue" stroke="midnightblue" points="44.0001,-57.3959 47.5,-67.396 51.0001,-57.396 44.0001,-57.3959"/>
</g>
</g>
</svg>
