<?xml version="1.0" encoding="UTF-8" standalone="no"?>
<!DOCTYPE svg PUBLIC "-//W3C//DTD SVG 1.1//EN"
 "http://www.w3.org/Graphics/SVG/1.1/DTD/svg11.dtd">
<!-- Generated by graphviz version 2.38.0 (20140413.2041)
 -->
<!-- Title: TEST Pages: 1 -->
<svg width="914pt" height="987pt"
 viewBox="0.00 0.00 914.00 986.50" xmlns="http://www.w3.org/2000/svg" xmlns:xlink="http://www.w3.org/1999/xlink">
<g id="graph0" class="graph" transform="scale(1 1) rotate(0) translate(4 982.5)">
<title>TEST</title>
<polygon fill="white" stroke="none" points="-4,4 -4,-982.5 910,-982.5 910,4 -4,4"/>
<!-- Node1 -->
<g id="node1" class="node"><title>Node1</title>
<polygon fill="#bfbfbf" stroke="black" points="0,-235 0,-254 42,-254 42,-235 0,-235"/>
<text text-anchor="middle" x="21" y="-242" font-family="Helvetica,sans-Serif" font-size="10.00">TEST</text>
</g>
<!-- Node2 -->
<g id="node2" class="node"><title>Node2</title>
<g id="a_node2"><a xlink:href="classpdal_1_1Options.html#a30826da39f9c4716412141eeeb719032" target="_top" xlink:title="pdal::Options::add">
<polygon fill="white" stroke="black" points="464,-254 464,-273 560,-273 560,-254 464,-254"/>
<text text-anchor="middle" x="512" y="-261" font-family="Helvetica,sans-Serif" font-size="10.00">pdal::Options::add</text>
</a>
</g>
</g>
<!-- Node1&#45;&gt;Node2 -->
<g id="edge1" class="edge"><title>Node1&#45;&gt;Node2</title>
<path fill="none" stroke="midnightblue" d="M32.1378,-254.194C42.6477,-263.515 60.0303,-276.979 78,-282.5 213.713,-324.198 384.589,-294.11 465.074,-275.401"/>
<polygon fill="midnightblue" stroke="midnightblue" points="465.974,-278.785 474.895,-273.07 464.357,-271.974 465.974,-278.785"/>
</g>
<!-- Node7 -->
<g id="node7" class="node"><title>Node7</title>
<g id="a_node7"><a xlink:href="classSupport.html#a9bbdf6f202f4f2e45e7a53007dd0a238" target="_top" xlink:title="Support::datapath">
<polygon fill="white" stroke="black" points="93.5,-254 93.5,-273 187.5,-273 187.5,-254 93.5,-254"/>
<text text-anchor="middle" x="140.5" y="-261" font-family="Helvetica,sans-Serif" font-size="10.00">Support::datapath</text>
</a>
</g>
</g>
<!-- Node1&#45;&gt;Node7 -->
<g id="edge6" class="edge"><title>Node1&#45;&gt;Node7</title>
<path fill="none" stroke="midnightblue" d="M42.199,-247.766C53.6078,-249.611 68.4893,-252.017 83.1691,-254.391"/>
<polygon fill="midnightblue" stroke="midnightblue" points="82.8241,-257.881 93.2546,-256.022 83.9415,-250.971 82.8241,-257.881"/>
</g>
<!-- Node9 -->
<g id="node9" class="node"><title>Node9</title>
<g id="a_node9"><a xlink:href="namespacepdal_1_1FileUtils.html#a9147ba0dbb2789edbd17feb104b00532" target="_top" xlink:title="pdal::FileUtils::deleteFile">
<polygon fill="white" stroke="black" points="78,-178 78,-197 203,-197 203,-178 78,-178"/>
<text text-anchor="middle" x="140.5" y="-185" font-family="Helvetica,sans-Serif" font-size="10.00">pdal::FileUtils::deleteFile</text>
</a>
</g>
</g>
<!-- Node1&#45;&gt;Node9 -->
<g id="edge8" class="edge"><title>Node1&#45;&gt;Node9</title>
<path fill="none" stroke="midnightblue" d="M33.8189,-234.942C44.7387,-226.496 61.6911,-214.336 78,-206.5 82.6649,-204.259 87.6547,-202.206 92.6992,-200.348"/>
<polygon fill="midnightblue" stroke="midnightblue" points="94.077,-203.576 102.396,-197.015 91.8017,-196.956 94.077,-203.576"/>
</g>
<!-- Node11 -->
<g id="node11" class="node"><title>Node11</title>
<g id="a_node11"><a xlink:href="classpdal_1_1Stage.html#a1615c4aa5ec5e48f90d73f0e7a796935" target="_top" xlink:title="pdal::Stage::execute">
<polygon fill="white" stroke="black" points="87,-756 87,-775 194,-775 194,-756 87,-756"/>
<text text-anchor="middle" x="140.5" y="-763" font-family="Helvetica,sans-Serif" font-size="10.00">pdal::Stage::execute</text>
</a>
</g>
</g>
<!-- Node1&#45;&gt;Node11 -->
<g id="edge10" class="edge"><title>Node1&#45;&gt;Node11</title>
<path fill="none" stroke="midnightblue" d="M24.0797,-254.354C31.329,-288.645 56.2279,-405.921 78,-502.5 98.5853,-593.815 124.462,-702.637 134.861,-746.139"/>
<polygon fill="midnightblue" stroke="midnightblue" points="131.48,-747.049 137.211,-755.959 138.287,-745.419 131.48,-747.049"/>
</g>
<!-- Node25 -->
<g id="node25" class="node"><title>Node25</title>
<g id="a_node25"><a xlink:href="classpdal_1_1PointLayout.html#a5a720db4e74a5412c1420b0d1eaacda7" target="_top" xlink:title="pdal::PointLayout::\lfindDim">
<polygon fill="white" stroke="black" points="91.5,-128.5 91.5,-158.5 189.5,-158.5 189.5,-128.5 91.5,-128.5"/>
<text text-anchor="start" x="99.5" y="-146.5" font-family="Helvetica,sans-Serif" font-size="10.00">pdal::PointLayout::</text>
<text text-anchor="middle" x="140.5" y="-135.5" font-family="Helvetica,sans-Serif" font-size="10.00">findDim</text>
</a>
</g>
</g>
<!-- Node1&#45;&gt;Node25 -->
<g id="edge25" class="edge"><title>Node1&#45;&gt;Node25</title>
<path fill="none" stroke="midnightblue" d="M26.8734,-234.758C35.2775,-218.854 53.935,-187.213 78,-168.5 80.2604,-166.742 82.6613,-165.09 85.1541,-163.54"/>
<polygon fill="midnightblue" stroke="midnightblue" points="86.884,-166.583 93.9131,-158.656 83.4747,-160.469 86.884,-166.583"/>
</g>
<!-- Node32 -->
<g id="node32" class="node"><title>Node32</title>
<g id="a_node32"><a xlink:href="classpdal_1_1BasePointTable.html#a7e3a12a1f29e6cd10d8669ed3d07eb94" target="_top" xlink:title="pdal::BasePointTable\l::layout">
<polygon fill="white" stroke="black" points="264.5,-330.5 264.5,-360.5 374.5,-360.5 374.5,-330.5 264.5,-330.5"/>
<text text-anchor="start" x="272.5" y="-348.5" font-family="Helvetica,sans-Serif" font-size="10.00">pdal::BasePointTable</text>
<text text-anchor="middle" x="319.5" y="-337.5" font-family="Helvetica,sans-Serif" font-size="10.00">::layout</text>
</a>
</g>
</g>
<!-- Node1&#45;&gt;Node32 -->
<g id="edge32" class="edge"><title>Node1&#45;&gt;Node32</title>
<path fill="none" stroke="midnightblue" d="M26.4388,-254.05C34.3351,-269.841 52.4293,-301.078 78,-315.5 131.831,-345.861 203.062,-351.258 254.005,-350.343"/>
<polygon fill="midnightblue" stroke="midnightblue" points="254.33,-353.836 264.233,-350.071 254.143,-346.839 254.33,-353.836"/>
</g>
<!-- Node33 -->
<g id="node33" class="node"><title>Node33</title>
<g id="a_node33"><a xlink:href="classpdal_1_1Stage.html#a4b9296a59f8852b3d08630f1086bfbea" target="_top" xlink:title="pdal::Stage::prepare">
<polygon fill="white" stroke="black" points="88.5,-456 88.5,-475 192.5,-475 192.5,-456 88.5,-456"/>
<text text-anchor="middle" x="140.5" y="-463" font-family="Helvetica,sans-Serif" font-size="10.00">pdal::Stage::prepare</text>
</a>
</g>
</g>
<!-- Node1&#45;&gt;Node33 -->
<g id="edge33" class="edge"><title>Node1&#45;&gt;Node33</title>
<path fill="none" stroke="midnightblue" d="M26.6336,-254.171C36.0238,-273.678 58.0989,-319.07 78,-356.5 95.1603,-388.775 116.326,-425.704 128.822,-447.231"/>
<polygon fill="midnightblue" stroke="midnightblue" points="125.851,-449.085 133.908,-455.966 131.901,-445.563 125.851,-449.085"/>
</g>
<!-- Node48 -->
<g id="node48" class="node"><title>Node48</title>
<g id="a_node48"><a xlink:href="classpdal_1_1Stage.html#abfd87d459bea04a919aace286b2e377e" target="_top" xlink:title="pdal::Stage::setInput">
<polygon fill="white" stroke="black" points="87,-90 87,-109 194,-109 194,-90 87,-90"/>
<text text-anchor="middle" x="140.5" y="-97" font-family="Helvetica,sans-Serif" font-size="10.00">pdal::Stage::setInput</text>
</a>
</g>
</g>
<!-- Node1&#45;&gt;Node48 -->
<g id="edge61" class="edge"><title>Node1&#45;&gt;Node48</title>
<path fill="none" stroke="midnightblue" d="M23.5345,-234.683C27.7413,-211.088 41.6627,-150.765 78,-118.5 79.7653,-116.933 81.658,-115.494 83.6451,-114.175"/>
<polygon fill="midnightblue" stroke="midnightblue" points="85.7778,-116.997 92.8594,-109.117 82.4092,-110.861 85.7778,-116.997"/>
</g>
<!-- Node49 -->
<g id="node49" class="node"><title>Node49</title>
<g id="a_node49"><a xlink:href="classpdal_1_1Stage.html#acb2434df20f371f1fec9577de3cf0046" target="_top" xlink:title="pdal::Stage::setOptions">
<polygon fill="white" stroke="black" points="81,-52 81,-71 200,-71 200,-52 81,-52"/>
<text text-anchor="middle" x="140.5" y="-59" font-family="Helvetica,sans-Serif" font-size="10.00">pdal::Stage::setOptions</text>
</a>
</g>
</g>
<!-- Node1&#45;&gt;Node49 -->
<g id="edge62" class="edge"><title>Node1&#45;&gt;Node49</title>
<path fill="none" stroke="midnightblue" d="M22.3839,-234.781C24.0271,-206.675 32.672,-124.514 78,-80.5 79.6285,-78.9187 81.3858,-77.4687 83.2411,-76.1392"/>
<polygon fill="midnightblue" stroke="midnightblue" points="85.0592,-79.1304 91.9087,-71.0474 81.5136,-73.0948 85.0592,-79.1304"/>
</g>
<!-- Node50 -->
<g id="node50" class="node"><title>Node50</title>
<g id="a_node50"><a xlink:href="classSupport.html#a987d7adce1636b5852ff41a1d34d37bd" target="_top" xlink:title="Support::temppath">
<polygon fill="white" stroke="black" points="92,-216 92,-235 189,-235 189,-216 92,-216"/>
<text text-anchor="middle" x="140.5" y="-223" font-family="Helvetica,sans-Serif" font-size="10.00">Support::temppath</text>
</a>
</g>
</g>
<!-- Node1&#45;&gt;Node50 -->
<g id="edge63" class="edge"><title>Node1&#45;&gt;Node50</title>
<path fill="none" stroke="midnightblue" d="M42.199,-241.234C53.1813,-239.458 67.3815,-237.162 81.5221,-234.875"/>
<polygon fill="midnightblue" stroke="midnightblue" points="82.4482,-238.271 91.7612,-233.219 81.3307,-231.361 82.4482,-238.271"/>
</g>
<!-- Node3 -->
<g id="node3" class="node"><title>Node3</title>
<g id="a_node3"><a xlink:href="classpdal_1_1Option.html#aef4422b88464a9cad83b3c11bf1f8cdd" target="_top" xlink:title="pdal::Option::nameValid">
<polygon fill="white" stroke="black" points="633,-279 633,-298 754,-298 754,-279 633,-279"/>
<text text-anchor="middle" x="693.5" y="-286" font-family="Helvetica,sans-Serif" font-size="10.00">pdal::Option::nameValid</text>
</a>
</g>
</g>
<!-- Node2&#45;&gt;Node3 -->
<g id="edge2" class="edge"><title>Node2&#45;&gt;Node3</title>
<path fill="none" stroke="midnightblue" d="M560.162,-270.068C579.264,-272.729 601.718,-275.856 622.651,-278.772"/>
<polygon fill="midnightblue" stroke="midnightblue" points="622.396,-282.27 632.784,-280.183 623.362,-275.337 622.396,-282.27"/>
</g>
<!-- Node6 -->
<g id="node6" class="node"><title>Node6</title>
<g id="a_node6"><a xlink:href="classpdal_1_1Option.html#ad2b7a736742fb343e421fa326ef45c23" target="_top" xlink:title="pdal::Option::getName">
<polygon fill="white" stroke="black" points="636,-342 636,-361 751,-361 751,-342 636,-342"/>
<text text-anchor="middle" x="693.5" y="-349" font-family="Helvetica,sans-Serif" font-size="10.00">pdal::Option::getName</text>
</a>
</g>
</g>
<!-- Node2&#45;&gt;Node6 -->
<g id="edge5" class="edge"><title>Node2&#45;&gt;Node6</title>
<path fill="none" stroke="midnightblue" d="M560.297,-272.731C569.688,-275.323 579.322,-278.546 588,-282.5 605.726,-290.577 607.802,-296.679 624,-307.5 638.706,-317.325 655.4,-328.057 668.627,-336.462"/>
<polygon fill="midnightblue" stroke="midnightblue" points="666.841,-339.474 677.162,-341.87 670.588,-333.561 666.841,-339.474"/>
</g>
<!-- Node4 -->
<g id="node4" class="node"><title>Node4</title>
<g id="a_node4"><a xlink:href="classpdal_1_1Option.html#a978a36cf9180d3636ea770988961952b" target="_top" xlink:title="pdal::Option::parse">
<polygon fill="white" stroke="red" points="803,-298 803,-317 902,-317 902,-298 803,-298"/>
<text text-anchor="middle" x="852.5" y="-305" font-family="Helvetica,sans-Serif" font-size="10.00">pdal::Option::parse</text>
</a>
</g>
</g>
<!-- Node3&#45;&gt;Node4 -->
<g id="edge3" class="edge"><title>Node3&#45;&gt;Node4</title>
<path fill="none" stroke="midnightblue" d="M754.303,-295.737C766.76,-297.245 779.884,-298.833 792.318,-300.338"/>
<polygon fill="midnightblue" stroke="midnightblue" points="792.223,-303.852 802.571,-301.579 793.064,-296.902 792.223,-303.852"/>
</g>
<!-- Node5 -->
<g id="node5" class="node"><title>Node5</title>
<g id="a_node5"><a xlink:href="namespacepdal_1_1Utils.html#ada321695f57c876ef51227bdf5b84f7a" target="_top" xlink:title="pdal::Utils::printError">
<polygon fill="white" stroke="black" points="799,-260 799,-279 906,-279 906,-260 799,-260"/>
<text text-anchor="middle" x="852.5" y="-267" font-family="Helvetica,sans-Serif" font-size="10.00">pdal::Utils::printError</text>
</a>
</g>
</g>
<!-- Node3&#45;&gt;Node5 -->
<g id="edge4" class="edge"><title>Node3&#45;&gt;Node5</title>
<path fill="none" stroke="midnightblue" d="M754.303,-281.263C765.515,-279.906 777.268,-278.483 788.572,-277.115"/>
<polygon fill="midnightblue" stroke="midnightblue" points="789.292,-280.554 798.799,-275.878 788.451,-273.605 789.292,-280.554"/>
</g>
<!-- Node8 -->
<g id="node8" class="node"><title>Node8</title>
<g id="a_node8"><a xlink:href="namespaceTestConfig.html#a0e622015f0610c2cfcbb3739b972d877" target="_top" xlink:title="TestConfig::dataPath">
<polygon fill="white" stroke="black" points="264.5,-235 264.5,-254 374.5,-254 374.5,-235 264.5,-235"/>
<text text-anchor="middle" x="319.5" y="-242" font-family="Helvetica,sans-Serif" font-size="10.00">TestConfig::dataPath</text>
</a>
</g>
</g>
<!-- Node7&#45;&gt;Node8 -->
<g id="edge7" class="edge"><title>Node7&#45;&gt;Node8</title>
<path fill="none" stroke="midnightblue" d="M187.543,-258.558C207.884,-256.374 232.147,-253.77 254.229,-251.399"/>
<polygon fill="midnightblue" stroke="midnightblue" points="254.63,-254.876 264.2,-250.329 253.883,-247.916 254.63,-254.876"/>
</g>
<!-- Node10 -->
<g id="node10" class="node"><title>Node10</title>
<g id="a_node10"><a xlink:href="namespacepdal_1_1Utils.html#ad875f14218020d7d4d10803f5a115bdb" target="_top" xlink:title="pdal::Utils::remove">
<polygon fill="white" stroke="black" points="270,-187 270,-206 369,-206 369,-187 270,-187"/>
<text text-anchor="middle" x="319.5" y="-194" font-family="Helvetica,sans-Serif" font-size="10.00">pdal::Utils::remove</text>
</a>
</g>
</g>
<!-- Node9&#45;&gt;Node10 -->
<g id="edge9" class="edge"><title>Node9&#45;&gt;Node10</title>
<path fill="none" stroke="midnightblue" d="M203.406,-190.648C221.658,-191.576 241.574,-192.588 259.629,-193.507"/>
<polygon fill="midnightblue" stroke="midnightblue" points="259.567,-197.008 269.731,-194.02 259.922,-190.017 259.567,-197.008"/>
</g>
<!-- Node11&#45;&gt;Node11 -->
<g id="edge16" class="edge"><title>Node11&#45;&gt;Node11</title>
<path fill="none" stroke="midnightblue" d="M122.313,-775.257C113.465,-784.065 119.527,-793.5 140.5,-793.5 153.936,-793.5 161.252,-789.628 162.449,-784.529"/>
<polygon fill="midnightblue" stroke="midnightblue" points="165.69,-783.207 158.687,-775.257 159.204,-785.839 165.69,-783.207"/>
</g>
<!-- Node12 -->
<g id="node12" class="node"><title>Node12</title>
<g id="a_node12"><a xlink:href="classpdal_1_1Stage.html#a74cf636cb0f633411e4e40dcd718508a" target="_top" xlink:title="pdal::Stage::startLogging">
<polygon fill="white" stroke="black" points="449.5,-684 449.5,-703 574.5,-703 574.5,-684 449.5,-684"/>
<text text-anchor="middle" x="512" y="-691" font-family="Helvetica,sans-Serif" font-size="10.00">pdal::Stage::startLogging</text>
</a>
</g>
</g>
<!-- Node11&#45;&gt;Node12 -->
<g id="edge11" class="edge"><title>Node11&#45;&gt;Node12</title>
<path fill="none" stroke="midnightblue" d="M155.926,-775.035C174.309,-786.56 207.491,-805.302 239,-812.5 308.758,-828.436 334.377,-841.028 400,-812.5 447.513,-791.845 483.913,-739.72 500.741,-711.809"/>
<polygon fill="midnightblue" stroke="midnightblue" points="503.843,-713.438 505.863,-703.038 497.798,-709.908 503.843,-713.438"/>
</g>
<!-- Node16 -->
<g id="node16" class="node"><title>Node16</title>
<g id="a_node16"><a xlink:href="classpdal_1_1BasePointTable.html#a2554cd260c437c9b1e4a017a28a5c7de" target="_top" xlink:title="pdal::BasePointTable\l::finalize">
<polygon fill="white" stroke="black" points="264.5,-909.5 264.5,-939.5 374.5,-939.5 374.5,-909.5 264.5,-909.5"/>
<text text-anchor="start" x="272.5" y="-927.5" font-family="Helvetica,sans-Serif" font-size="10.00">pdal::BasePointTable</text>
<text text-anchor="middle" x="319.5" y="-916.5" font-family="Helvetica,sans-Serif" font-size="10.00">::finalize</text>
</a>
</g>
</g>
<!-- Node11&#45;&gt;Node16 -->
<g id="edge15" class="edge"><title>Node11&#45;&gt;Node16</title>
<path fill="none" stroke="midnightblue" d="M145.821,-775.343C157.249,-800.225 190.738,-866.1 239,-900.5 243.813,-903.931 249.124,-906.879 254.65,-909.41"/>
<polygon fill="midnightblue" stroke="midnightblue" points="253.521,-912.73 264.101,-913.288 256.178,-906.254 253.521,-912.73"/>
</g>
<!-- Node17 -->
<g id="node17" class="node"><title>Node17</title>
<g id="a_node17"><a xlink:href="classpdal_1_1BasePointTable.html#aa3ed63a9e1a8897ccb7dc81a614f6141" target="_top" xlink:title="pdal::BasePointTable\l::clearSpatialReferences">
<polygon fill="white" stroke="black" points="257.5,-860.5 257.5,-890.5 381.5,-890.5 381.5,-860.5 257.5,-860.5"/>
<text text-anchor="start" x="265.5" y="-878.5" font-family="Helvetica,sans-Serif" font-size="10.00">pdal::BasePointTable</text>
<text text-anchor="middle" x="319.5" y="-867.5" font-family="Helvetica,sans-Serif" font-size="10.00">::clearSpatialReferences</text>
</a>
</g>
</g>
<!-- Node11&#45;&gt;Node17 -->
<g id="edge17" class="edge"><title>Node11&#45;&gt;Node17</title>
<path fill="none" stroke="midnightblue" d="M150.939,-775.075C167.483,-791.414 203.359,-824.904 239,-845.5 245.992,-849.54 253.629,-853.225 261.316,-856.52"/>
<polygon fill="midnightblue" stroke="midnightblue" points="260.095,-859.802 270.676,-860.345 262.743,-853.323 260.095,-859.802"/>
</g>
<!-- Node18 -->
<g id="node18" class="node"><title>Node18</title>
<g id="a_node18"><a xlink:href="classpdal_1_1BasePointTable.html#a670592aca912391f1a90073a2031e5e0" target="_top" xlink:title="pdal::BasePointTable\l::addSpatialReference">
<polygon fill="white" stroke="black" points="263,-772.5 263,-802.5 376,-802.5 376,-772.5 263,-772.5"/>
<text text-anchor="start" x="271" y="-790.5" font-family="Helvetica,sans-Serif" font-size="10.00">pdal::BasePointTable</text>
<text text-anchor="middle" x="319.5" y="-779.5" font-family="Helvetica,sans-Serif" font-size="10.00">::addSpatialReference</text>
</a>
</g>
</g>
<!-- Node11&#45;&gt;Node18 -->
<g id="edge18" class="edge"><title>Node11&#45;&gt;Node18</title>
<path fill="none" stroke="midnightblue" d="M194.127,-772.041C212.61,-774.339 233.607,-776.948 253.016,-779.361"/>
<polygon fill="midnightblue" stroke="midnightblue" points="252.644,-782.841 263,-780.602 253.508,-775.895 252.644,-782.841"/>
</g>
<!-- Node19 -->
<g id="node19" class="node"><title>Node19</title>
<g id="a_node19"><a xlink:href="classpdal_1_1Stage.html#afb562c59c53ed8120df9106655eb2543" target="_top" xlink:title="pdal::Stage::ready">
<polygon fill="white" stroke="black" points="271.5,-734 271.5,-753 367.5,-753 367.5,-734 271.5,-734"/>
<text text-anchor="middle" x="319.5" y="-741" font-family="Helvetica,sans-Serif" font-size="10.00">pdal::Stage::ready</text>
</a>
</g>
</g>
<!-- Node11&#45;&gt;Node19 -->
<g id="edge19" class="edge"><title>Node11&#45;&gt;Node19</title>
<path fill="none" stroke="midnightblue" d="M194.127,-758.959C215.328,-756.324 239.835,-753.278 261.461,-750.59"/>
<polygon fill="midnightblue" stroke="midnightblue" points="262.003,-754.049 271.495,-749.342 261.139,-747.103 262.003,-754.049"/>
</g>
<!-- Node20 -->
<g id="node20" class="node"><title>Node20</title>
<g id="a_node20"><a xlink:href="classpdal_1_1Stage.html#a9889b4446f40daa6f4cd7bfe3c567839" target="_top" xlink:title="pdal::Stage::getSpatialReference">
<polygon fill="white" stroke="black" points="239,-696 239,-715 400,-715 400,-696 239,-696"/>
<text text-anchor="middle" x="319.5" y="-703" font-family="Helvetica,sans-Serif" font-size="10.00">pdal::Stage::getSpatialReference</text>
</a>
</g>
</g>
<!-- Node11&#45;&gt;Node20 -->
<g id="edge20" class="edge"><title>Node11&#45;&gt;Node20</title>
<path fill="none" stroke="midnightblue" d="M161.673,-755.871C181.137,-746.857 211.601,-733.468 239,-724.5 246.671,-721.989 254.857,-719.656 262.951,-717.546"/>
<polygon fill="midnightblue" stroke="midnightblue" points="263.893,-720.918 272.738,-715.086 262.186,-714.13 263.893,-720.918"/>
</g>
<!-- Node21 -->
<g id="node21" class="node"><title>Node21</title>
<g id="a_node21"><a xlink:href="classpdal_1_1SpatialReference.html#a48fa2f7e79ea172b62ad2e874ff01610" target="_top" xlink:title="pdal::SpatialReference\l::empty">
<polygon fill="white" stroke="black" points="261.5,-646.5 261.5,-676.5 377.5,-676.5 377.5,-646.5 261.5,-646.5"/>
<text text-anchor="start" x="269.5" y="-664.5" font-family="Helvetica,sans-Serif" font-size="10.00">pdal::SpatialReference</text>
<text text-anchor="middle" x="319.5" y="-653.5" font-family="Helvetica,sans-Serif" font-size="10.00">::empty</text>
</a>
</g>
</g>
<!-- Node11&#45;&gt;Node21 -->
<g id="edge21" class="edge"><title>Node11&#45;&gt;Node21</title>
<path fill="none" stroke="midnightblue" d="M150.845,-755.841C167.248,-739.4 202.916,-705.878 239,-686.5 243.163,-684.265 247.557,-682.193 252.056,-680.279"/>
<polygon fill="midnightblue" stroke="midnightblue" points="253.394,-683.514 261.398,-676.571 250.812,-677.007 253.394,-683.514"/>
</g>
<!-- Node22 -->
<g id="node22" class="node"><title>Node22</title>
<g id="a_node22"><a xlink:href="classpdal_1_1Stage.html#a1b00532ede55b90a7b6332a2966f5626" target="_top" xlink:title="pdal::Stage::l_done">
<polygon fill="white" stroke="black" points="269,-959 269,-978 370,-978 370,-959 269,-959"/>
<text text-anchor="middle" x="319.5" y="-966" font-family="Helvetica,sans-Serif" font-size="10.00">pdal::Stage::l_done</text>
</a>
</g>
</g>
<!-- Node11&#45;&gt;Node22 -->
<g id="edge22" class="edge"><title>Node11&#45;&gt;Node22</title>
<path fill="none" stroke="midnightblue" d="M143.676,-775.339C151.052,-806.28 178.123,-902.345 239,-949.5 244.939,-954.1 251.821,-957.61 259.003,-960.285"/>
<polygon fill="midnightblue" stroke="midnightblue" points="258.33,-963.743 268.921,-963.437 260.451,-957.072 258.33,-963.743"/>
</g>
<!-- Node24 -->
<g id="node24" class="node"><title>Node24</title>
<g id="a_node24"><a xlink:href="classpdal_1_1Stage.html#ae49e996fe285350923a3bf44d027adad" target="_top" xlink:title="pdal::Stage::stopLogging">
<polygon fill="white" stroke="black" points="257,-608 257,-627 382,-627 382,-608 257,-608"/>
<text text-anchor="middle" x="319.5" y="-615" font-family="Helvetica,sans-Serif" font-size="10.00">pdal::Stage::stopLogging</text>
</a>
</g>
</g>
<!-- Node11&#45;&gt;Node24 -->
<g id="edge24" class="edge"><title>Node11&#45;&gt;Node24</title>
<path fill="none" stroke="midnightblue" d="M146.046,-755.686C157.762,-731.529 191.431,-668.88 239,-637.5 242.846,-634.963 246.991,-632.747 251.297,-630.813"/>
<polygon fill="midnightblue" stroke="midnightblue" points="252.913,-633.938 260.93,-627.012 250.343,-627.427 252.913,-633.938"/>
</g>
<!-- Node13 -->
<g id="node13" class="node"><title>Node13</title>
<g id="a_node13"><a xlink:href="classpdal_1_1gdal_1_1ErrorHandler.html#a56e0125595a43bf3b0cbd0b9a4bc55ea" target="_top" xlink:title="pdal::gdal::ErrorHandler\l::getGlobalErrorHandler">
<polygon fill="white" stroke="red" points="634,-703.5 634,-733.5 753,-733.5 753,-703.5 634,-703.5"/>
<text text-anchor="start" x="642" y="-721.5" font-family="Helvetica,sans-Serif" font-size="10.00">pdal::gdal::ErrorHandler</text>
<text text-anchor="middle" x="693.5" y="-710.5" font-family="Helvetica,sans-Serif" font-size="10.00">::getGlobalErrorHandler</text>
</a>
</g>
</g>
<!-- Node12&#45;&gt;Node13 -->
<g id="edge12" class="edge"><title>Node12&#45;&gt;Node13</title>
<path fill="none" stroke="midnightblue" d="M574.523,-702.069C590.407,-704.281 607.605,-706.676 623.828,-708.936"/>
<polygon fill="midnightblue" stroke="midnightblue" points="623.396,-712.409 633.784,-710.322 624.362,-705.476 623.396,-712.409"/>
</g>
<!-- Node14 -->
<g id="node14" class="node"><title>Node14</title>
<g id="a_node14"><a xlink:href="classpdal_1_1gdal_1_1ErrorHandler.html#ace1cff928ab179f671181ebaf4d280a4" target="_top" xlink:title="pdal::gdal::ErrorHandler::set">
<polygon fill="white" stroke="red" points="624,-665 624,-684 763,-684 763,-665 624,-665"/>
<text text-anchor="middle" x="693.5" y="-672" font-family="Helvetica,sans-Serif" font-size="10.00">pdal::gdal::ErrorHandler::set</text>
</a>
</g>
</g>
<!-- Node12&#45;&gt;Node14 -->
<g id="edge13" class="edge"><title>Node12&#45;&gt;Node14</title>
<path fill="none" stroke="midnightblue" d="M574.523,-686.988C587.22,-685.644 600.756,-684.211 613.963,-682.813"/>
<polygon fill="midnightblue" stroke="midnightblue" points="614.403,-686.286 623.979,-681.753 613.666,-679.325 614.403,-686.286"/>
</g>
<!-- Node15 -->
<g id="node15" class="node"><title>Node15</title>
<g id="a_node15"><a xlink:href="classpdal_1_1Stage.html#aec4fb27c40bb4b032ff003a89a950dd4" target="_top" xlink:title="pdal::Stage::isDebug">
<polygon fill="white" stroke="black" points="639.5,-627 639.5,-646 747.5,-646 747.5,-627 639.5,-627"/>
<text text-anchor="middle" x="693.5" y="-634" font-family="Helvetica,sans-Serif" font-size="10.00">pdal::Stage::isDebug</text>
</a>
</g>
</g>
<!-- Node12&#45;&gt;Node15 -->
<g id="edge14" class="edge"><title>Node12&#45;&gt;Node15</title>
<path fill="none" stroke="midnightblue" d="M557.961,-683.96C567.99,-681.324 578.471,-678.162 588,-674.5 604.888,-668.011 607.186,-662.179 624,-655.5 629.946,-653.138 636.294,-650.954 642.635,-648.972"/>
<polygon fill="midnightblue" stroke="midnightblue" points="643.951,-652.232 652.538,-646.027 641.956,-645.522 643.951,-652.232"/>
</g>
<!-- Node23 -->
<g id="node23" class="node"><title>Node23</title>
<g id="a_node23"><a xlink:href="classpdal_1_1Stage.html#a2444e73dc41bfc0b94981909595ef2ca" target="_top" xlink:title="pdal::Stage::done">
<polygon fill="white" stroke="black" points="465.5,-959 465.5,-978 558.5,-978 558.5,-959 465.5,-959"/>
<text text-anchor="middle" x="512" y="-966" font-family="Helvetica,sans-Serif" font-size="10.00">pdal::Stage::done</text>
</a>
</g>
</g>
<!-- Node22&#45;&gt;Node23 -->
<g id="edge23" class="edge"><title>Node22&#45;&gt;Node23</title>
<path fill="none" stroke="midnightblue" d="M370.054,-968.5C396.155,-968.5 428.254,-968.5 455.224,-968.5"/>
<polygon fill="midnightblue" stroke="midnightblue" points="455.286,-972 465.286,-968.5 455.286,-965 455.286,-972"/>
</g>
<!-- Node26 -->
<g id="node26" class="node"><title>Node26</title>
<g id="a_node26"><a xlink:href="namespacepdal_1_1Dimension.html#a10b4c693e3bdbdf1a0eec8f4b008a291" target="_top" xlink:title="pdal::Dimension::id">
<polygon fill="white" stroke="black" points="269,-99 269,-118 370,-118 370,-99 269,-99"/>
<text text-anchor="middle" x="319.5" y="-106" font-family="Helvetica,sans-Serif" font-size="10.00">pdal::Dimension::id</text>
</a>
</g>
</g>
<!-- Node25&#45;&gt;Node26 -->
<g id="edge26" class="edge"><title>Node25&#45;&gt;Node26</title>
<path fill="none" stroke="midnightblue" d="M189.866,-133.936C211.622,-129.634 237.482,-124.52 260.291,-120.01"/>
<polygon fill="midnightblue" stroke="midnightblue" points="261.061,-123.426 270.192,-118.052 259.703,-116.559 261.061,-123.426"/>
</g>
<!-- Node28 -->
<g id="node28" class="node"><title>Node28</title>
<g id="a_node28"><a xlink:href="classpdal_1_1PointLayout.html#adaef1dfccc620aa7f7f2a57ea2c19d6d" target="_top" xlink:title="pdal::PointLayout::\ldimType">
<polygon fill="white" stroke="black" points="270.5,-49.5 270.5,-79.5 368.5,-79.5 368.5,-49.5 270.5,-49.5"/>
<text text-anchor="start" x="278.5" y="-67.5" font-family="Helvetica,sans-Serif" font-size="10.00">pdal::PointLayout::</text>
<text text-anchor="middle" x="319.5" y="-56.5" font-family="Helvetica,sans-Serif" font-size="10.00">dimType</text>
</a>
</g>
</g>
<!-- Node25&#45;&gt;Node28 -->
<g id="edge28" class="edge"><title>Node25&#45;&gt;Node28</title>
<path fill="none" stroke="midnightblue" d="M183.316,-128.435C190.06,-125.461 196.842,-122.125 203,-118.5 220.705,-108.076 220.885,-99.1946 239,-89.5 245.817,-85.8518 253.252,-82.6373 260.75,-79.8345"/>
<polygon fill="midnightblue" stroke="midnightblue" points="261.963,-83.118 270.239,-76.5027 259.644,-76.5132 261.963,-83.118"/>
</g>
<!-- Node31 -->
<g id="node31" class="node"><title>Node31</title>
<g id="a_node31"><a xlink:href="classpdal_1_1PointLayout.html#abb03661faa312e6954f49cf8e0e809a3" target="_top" xlink:title="pdal::PointLayout::\lfindProprietaryDim">
<polygon fill="white" stroke="black" points="270.5,-137.5 270.5,-167.5 368.5,-167.5 368.5,-137.5 270.5,-137.5"/>
<text text-anchor="start" x="278.5" y="-155.5" font-family="Helvetica,sans-Serif" font-size="10.00">pdal::PointLayout::</text>
<text text-anchor="middle" x="319.5" y="-144.5" font-family="Helvetica,sans-Serif" font-size="10.00">findProprietaryDim</text>
</a>
</g>
</g>
<!-- Node25&#45;&gt;Node31 -->
<g id="edge31" class="edge"><title>Node25&#45;&gt;Node31</title>
<path fill="none" stroke="midnightblue" d="M189.866,-145.959C211.613,-147.065 237.461,-148.379 260.263,-149.539"/>
<polygon fill="midnightblue" stroke="midnightblue" points="260.334,-153.047 270.499,-150.059 260.69,-146.056 260.334,-153.047"/>
</g>
<!-- Node27 -->
<g id="node27" class="node"><title>Node27</title>
<g id="a_node27"><a xlink:href="namespacepdal_1_1Utils.html#a28e3e2faff94b20f9908e77bc54ed983" target="_top" xlink:title="pdal::Utils::toupper">
<polygon fill="white" stroke="black" points="462.5,-99 462.5,-118 561.5,-118 561.5,-99 462.5,-99"/>
<text text-anchor="middle" x="512" y="-106" font-family="Helvetica,sans-Serif" font-size="10.00">pdal::Utils::toupper</text>
</a>
</g>
</g>
<!-- Node26&#45;&gt;Node27 -->
<g id="edge27" class="edge"><title>Node26&#45;&gt;Node27</title>
<path fill="none" stroke="midnightblue" d="M370.054,-108.5C395.164,-108.5 425.826,-108.5 452.131,-108.5"/>
<polygon fill="midnightblue" stroke="midnightblue" points="452.353,-112 462.353,-108.5 452.353,-105 452.353,-112"/>
</g>
<!-- Node29 -->
<g id="node29" class="node"><title>Node29</title>
<g id="a_node29"><a xlink:href="classpdal_1_1PointLayout.html#abcfdf0f917e71d1bd8a96bc64ff1e8a2" target="_top" xlink:title="pdal::PointLayout::\ldimDetail">
<polygon fill="white" stroke="red" points="463,-0.5 463,-30.5 561,-30.5 561,-0.5 463,-0.5"/>
<text text-anchor="start" x="471" y="-18.5" font-family="Helvetica,sans-Serif" font-size="10.00">pdal::PointLayout::</text>
<text text-anchor="middle" x="512" y="-7.5" font-family="Helvetica,sans-Serif" font-size="10.00">dimDetail</text>
</a>
</g>
</g>
<!-- Node28&#45;&gt;Node29 -->
<g id="edge29" class="edge"><title>Node28&#45;&gt;Node29</title>
<path fill="none" stroke="midnightblue" d="M368.571,-52.1352C394.291,-45.5196 426.151,-37.3247 453.212,-30.3642"/>
<polygon fill="midnightblue" stroke="midnightblue" points="454.131,-33.7416 462.944,-27.8608 452.388,-26.9623 454.131,-33.7416"/>
</g>
<!-- Node30 -->
<g id="node30" class="node"><title>Node30</title>
<g id="a_node30"><a xlink:href="classpdal_1_1Dimension_1_1Detail.html#adf5961976b7fce3d90a0dddd50519a7c" target="_top" xlink:title="pdal::Dimension::Detail\l::type">
<polygon fill="white" stroke="black" points="452.5,-49.5 452.5,-79.5 571.5,-79.5 571.5,-49.5 452.5,-49.5"/>
<text text-anchor="start" x="460.5" y="-67.5" font-family="Helvetica,sans-Serif" font-size="10.00">pdal::Dimension::Detail</text>
<text text-anchor="middle" x="512" y="-56.5" font-family="Helvetica,sans-Serif" font-size="10.00">::type</text>
</a>
</g>
</g>
<!-- Node28&#45;&gt;Node30 -->
<g id="edge30" class="edge"><title>Node28&#45;&gt;Node30</title>
<path fill="none" stroke="midnightblue" d="M368.571,-64.5C390.85,-64.5 417.736,-64.5 442.119,-64.5"/>
<polygon fill="midnightblue" stroke="midnightblue" points="442.395,-68.0001 452.395,-64.5 442.395,-61.0001 442.395,-68.0001"/>
</g>
<!-- Node33&#45;&gt;Node12 -->
<g id="edge52" class="edge"><title>Node33&#45;&gt;Node12</title>
<path fill="none" stroke="midnightblue" d="M155.037,-475.182C173.277,-487.802 207.14,-509.76 239,-522.5 307.266,-549.798 346.122,-510.474 400,-560.5 438.936,-596.653 397.36,-638.03 436,-674.5 437.667,-676.073 439.444,-677.521 441.311,-678.853"/>
<polygon fill="midnightblue" stroke="midnightblue" points="439.605,-681.91 449.995,-683.984 443.166,-675.884 439.605,-681.91"/>
</g>
<!-- Node33&#45;&gt;Node24 -->
<g id="edge60" class="edge"><title>Node33&#45;&gt;Node24</title>
<path fill="none" stroke="midnightblue" d="M145.583,-475.004C156.677,-499.631 189.875,-565.863 239,-598.5 242.077,-600.544 245.35,-602.369 248.748,-603.998"/>
<polygon fill="midnightblue" stroke="midnightblue" points="247.408,-607.231 257.983,-607.869 250.114,-600.776 247.408,-607.231"/>
</g>
<!-- Node33&#45;&gt;Node32 -->
<g id="edge58" class="edge"><title>Node33&#45;&gt;Node32</title>
<path fill="none" stroke="midnightblue" d="M148.731,-455.915C163.575,-436.885 199.438,-394.137 239,-370.5 244.013,-367.505 249.421,-364.833 254.975,-362.457"/>
<polygon fill="midnightblue" stroke="midnightblue" points="256.399,-365.658 264.417,-358.732 253.83,-359.146 256.399,-365.658"/>
</g>
<!-- Node33&#45;&gt;Node33 -->
<g id="edge34" class="edge"><title>Node33&#45;&gt;Node33</title>
<path fill="none" stroke="midnightblue" d="M122.313,-475.257C113.465,-484.065 119.527,-493.5 140.5,-493.5 153.936,-493.5 161.252,-489.628 162.449,-484.529"/>
<polygon fill="midnightblue" stroke="midnightblue" points="165.69,-483.207 158.687,-475.257 159.204,-485.839 165.69,-483.207"/>
</g>
<!-- Node34 -->
<g id="node34" class="node"><title>Node34</title>
<g id="a_node34"><a xlink:href="classpdal_1_1Stage.html#a75f17f9b67f48f6aab1d98aadefc4d5c" target="_top" xlink:title="pdal::Stage::handleOptions">
<polygon fill="white" stroke="black" points="252.5,-494 252.5,-513 386.5,-513 386.5,-494 252.5,-494"/>
<text text-anchor="middle" x="319.5" y="-501" font-family="Helvetica,sans-Serif" font-size="10.00">pdal::Stage::handleOptions</text>
</a>
</g>
</g>
<!-- Node33&#45;&gt;Node34 -->
<g id="edge35" class="edge"><title>Node33&#45;&gt;Node34</title>
<path fill="none" stroke="midnightblue" d="M186.165,-475.089C209.837,-480.171 239.108,-486.455 264.097,-491.82"/>
<polygon fill="midnightblue" stroke="midnightblue" points="263.645,-495.303 274.157,-493.98 265.114,-488.459 263.645,-495.303"/>
</g>
<!-- Node43 -->
<g id="node43" class="node"><title>Node43</title>
<g id="a_node43"><a xlink:href="classpdal_1_1Stage.html#a6c85dfbf6a674dbc2eda76a79efada48" target="_top" xlink:title="pdal::Stage::l_initialize">
<polygon fill="white" stroke="red" points="262,-380 262,-399 377,-399 377,-380 262,-380"/>
<text text-anchor="middle" x="319.5" y="-387" font-family="Helvetica,sans-Serif" font-size="10.00">pdal::Stage::l_initialize</text>
</a>
</g>
</g>
<!-- Node33&#45;&gt;Node43 -->
<g id="edge53" class="edge"><title>Node33&#45;&gt;Node43</title>
<path fill="none" stroke="midnightblue" d="M155.043,-455.832C173.288,-443.227 207.158,-421.285 239,-408.5 245.282,-405.978 251.983,-403.736 258.729,-401.757"/>
<polygon fill="midnightblue" stroke="midnightblue" points="259.886,-405.069 268.602,-399.045 258.032,-398.319 259.886,-405.069"/>
</g>
<!-- Node45 -->
<g id="node45" class="node"><title>Node45</title>
<g id="a_node45"><a xlink:href="classpdal_1_1Stage.html#a5b422f842a6374b448439df99fe6e07e" target="_top" xlink:title="pdal::Stage::initialize">
<polygon fill="white" stroke="black" points="266,-418 266,-437 373,-437 373,-418 266,-418"/>
<text text-anchor="middle" x="319.5" y="-425" font-family="Helvetica,sans-Serif" font-size="10.00">pdal::Stage::initialize</text>
</a>
</g>
</g>
<!-- Node33&#45;&gt;Node45 -->
<g id="edge56" class="edge"><title>Node33&#45;&gt;Node45</title>
<path fill="none" stroke="midnightblue" d="M186.165,-455.911C209.837,-450.829 239.108,-444.545 264.097,-439.18"/>
<polygon fill="midnightblue" stroke="midnightblue" points="265.114,-442.541 274.157,-437.02 263.645,-435.697 265.114,-442.541"/>
</g>
<!-- Node46 -->
<g id="node46" class="node"><title>Node46</title>
<g id="a_node46"><a xlink:href="classpdal_1_1Stage.html#a7ec627c76e1c30fc53780bd81d08d4ad" target="_top" xlink:title="pdal::Stage::addDimensions">
<polygon fill="white" stroke="black" points="249.5,-570 249.5,-589 389.5,-589 389.5,-570 249.5,-570"/>
<text text-anchor="middle" x="319.5" y="-577" font-family="Helvetica,sans-Serif" font-size="10.00">pdal::Stage::addDimensions</text>
</a>
</g>
</g>
<!-- Node33&#45;&gt;Node46 -->
<g id="edge57" class="edge"><title>Node33&#45;&gt;Node46</title>
<path fill="none" stroke="midnightblue" d="M149.295,-475.16C164.586,-493.486 200.401,-533.436 239,-555.5 246.905,-560.019 255.748,-563.769 264.586,-566.854"/>
<polygon fill="midnightblue" stroke="midnightblue" points="263.536,-570.193 274.128,-569.946 265.694,-563.534 263.536,-570.193"/>
</g>
<!-- Node47 -->
<g id="node47" class="node"><title>Node47</title>
<g id="a_node47"><a xlink:href="classpdal_1_1Stage.html#affff6bc9dbff793d074d76333c5732dd" target="_top" xlink:title="pdal::Stage::prepared">
<polygon fill="white" stroke="black" points="264.5,-456 264.5,-475 374.5,-475 374.5,-456 264.5,-456"/>
<text text-anchor="middle" x="319.5" y="-463" font-family="Helvetica,sans-Serif" font-size="10.00">pdal::Stage::prepared</text>
</a>
</g>
</g>
<!-- Node33&#45;&gt;Node47 -->
<g id="edge59" class="edge"><title>Node33&#45;&gt;Node47</title>
<path fill="none" stroke="midnightblue" d="M192.696,-465.5C211.911,-465.5 233.998,-465.5 254.25,-465.5"/>
<polygon fill="midnightblue" stroke="midnightblue" points="254.335,-469 264.334,-465.5 254.334,-462 254.335,-469"/>
</g>
<!-- Node35 -->
<g id="node35" class="node"><title>Node35</title>
<g id="a_node35"><a xlink:href="classpdal_1_1Stage.html#a75ff99f7b665c6573e304ed4148dd99e" target="_top" xlink:title="pdal::Stage::addAllArgs">
<polygon fill="white" stroke="red" points="452.5,-456 452.5,-475 571.5,-475 571.5,-456 452.5,-456"/>
<text text-anchor="middle" x="512" y="-463" font-family="Helvetica,sans-Serif" font-size="10.00">pdal::Stage::addAllArgs</text>
</a>
</g>
</g>
<!-- Node34&#45;&gt;Node35 -->
<g id="edge36" class="edge"><title>Node34&#45;&gt;Node35</title>
<path fill="none" stroke="midnightblue" d="M368.571,-493.911C394.276,-488.784 426.113,-482.433 453.164,-477.037"/>
<polygon fill="midnightblue" stroke="midnightblue" points="454.152,-480.409 463.274,-475.02 452.783,-473.544 454.152,-480.409"/>
</g>
<!-- Node36 -->
<g id="node36" class="node"><title>Node36</title>
<g id="a_node36"><a xlink:href="classpdal_1_1Stage.html#a6c81d6fbbac17ebe4cd63806916cc750" target="_top" xlink:title="pdal::Stage::getName">
<polygon fill="white" stroke="black" points="637.5,-475 637.5,-494 749.5,-494 749.5,-475 637.5,-475"/>
<text text-anchor="middle" x="693.5" y="-482" font-family="Helvetica,sans-Serif" font-size="10.00">pdal::Stage::getName</text>
</a>
</g>
</g>
<!-- Node34&#45;&gt;Node36 -->
<g id="edge46" class="edge"><title>Node34&#45;&gt;Node36</title>
<path fill="none" stroke="midnightblue" d="M386.577,-500.125C454.495,-496.656 559.602,-491.288 627.225,-487.834"/>
<polygon fill="midnightblue" stroke="midnightblue" points="627.525,-491.323 637.333,-487.318 627.168,-484.332 627.525,-491.323"/>
</g>
<!-- Node37 -->
<g id="node37" class="node"><title>Node37</title>
<g id="a_node37"><a xlink:href="classpdal_1_1Options.html#a99aa4c0c7ba443d584f741d22d37f6a5" target="_top" xlink:title="pdal::Options::getValues">
<polygon fill="white" stroke="black" points="450,-608 450,-627 574,-627 574,-608 450,-608"/>
<text text-anchor="middle" x="512" y="-615" font-family="Helvetica,sans-Serif" font-size="10.00">pdal::Options::getValues</text>
</a>
</g>
</g>
<!-- Node34&#45;&gt;Node37 -->
<g id="edge38" class="edge"><title>Node34&#45;&gt;Node37</title>
<path fill="none" stroke="midnightblue" d="M373.994,-513.133C383.353,-516.559 392.485,-521.204 400,-527.5 427.12,-550.221 408.375,-576.396 436,-598.5 438.186,-600.249 440.513,-601.839 442.944,-603.285"/>
<polygon fill="midnightblue" stroke="midnightblue" points="441.628,-606.541 452.134,-607.913 444.777,-600.289 441.628,-606.541"/>
</g>
<!-- Node38 -->
<g id="node38" class="node"><title>Node38</title>
<g id="a_node38"><a xlink:href="classpdal_1_1Options.html#aab2dd4f9208512ad8c38a71ad9d2c98b" target="_top" xlink:title="pdal::Options::addConditional">
<polygon fill="white" stroke="black" points="439.5,-342 439.5,-361 584.5,-361 584.5,-342 439.5,-342"/>
<text text-anchor="middle" x="512" y="-349" font-family="Helvetica,sans-Serif" font-size="10.00">pdal::Options::addConditional</text>
</a>
</g>
</g>
<!-- Node34&#45;&gt;Node38 -->
<g id="edge39" class="edge"><title>Node34&#45;&gt;Node38</title>
<path fill="none" stroke="midnightblue" d="M384.183,-493.912C389.871,-491.433 395.261,-488.344 400,-484.5 429.027,-460.955 412.451,-437.523 436,-408.5 449.696,-391.62 469.388,-376.903 485.157,-366.653"/>
<polygon fill="midnightblue" stroke="midnightblue" points="487.308,-369.435 493.914,-361.152 483.584,-363.508 487.308,-369.435"/>
</g>
<!-- Node39 -->
<g id="node39" class="node"><title>Node39</title>
<g id="a_node39"><a xlink:href="classpdal_1_1Options.html#a541bdbfe72511dad8a22236f0a3cb2ab" target="_top" xlink:title="pdal::Options::fromFile">
<polygon fill="white" stroke="red" points="454,-570 454,-589 570,-589 570,-570 454,-570"/>
<text text-anchor="middle" x="512" y="-577" font-family="Helvetica,sans-Serif" font-size="10.00">pdal::Options::fromFile</text>
</a>
</g>
</g>
<!-- Node34&#45;&gt;Node39 -->
<g id="edge42" class="edge"><title>Node34&#45;&gt;Node39</title>
<path fill="none" stroke="midnightblue" d="M364.858,-513.079C376.718,-516.644 389.225,-521.365 400,-527.5 418.862,-538.239 416.901,-550.189 436,-560.5 440.281,-562.811 444.852,-564.849 449.545,-566.644"/>
<polygon fill="midnightblue" stroke="midnightblue" points="448.701,-570.055 459.296,-569.998 450.978,-563.435 448.701,-570.055"/>
</g>
<!-- Node40 -->
<g id="node40" class="node"><title>Node40</title>
<g id="a_node40"><a xlink:href="classpdal_1_1Options.html#a0d9ebe7f77b36dea85b51eb0098a5df0" target="_top" xlink:title="pdal::Options::remove">
<polygon fill="white" stroke="black" points="455.5,-418 455.5,-437 568.5,-437 568.5,-418 455.5,-418"/>
<text text-anchor="middle" x="512" y="-425" font-family="Helvetica,sans-Serif" font-size="10.00">pdal::Options::remove</text>
</a>
</g>
</g>
<!-- Node34&#45;&gt;Node40 -->
<g id="edge43" class="edge"><title>Node34&#45;&gt;Node40</title>
<path fill="none" stroke="midnightblue" d="M378.067,-493.97C385.716,-491.504 393.24,-488.402 400,-484.5 420.149,-472.87 415.93,-458.266 436,-446.5 439.715,-444.322 443.676,-442.391 447.763,-440.68"/>
<polygon fill="midnightblue" stroke="midnightblue" points="449.317,-443.837 457.472,-437.074 446.879,-437.275 449.317,-443.837"/>
</g>
<!-- Node41 -->
<g id="node41" class="node"><title>Node41</title>
<g id="a_node41"><a xlink:href="classpdal_1_1Options.html#afb18dcc4f3883b8413171db00482959c" target="_top" xlink:title="pdal::Options::toCommandLine">
<polygon fill="white" stroke="red" points="436,-532 436,-551 588,-551 588,-532 436,-532"/>
<text text-anchor="middle" x="512" y="-539" font-family="Helvetica,sans-Serif" font-size="10.00">pdal::Options::toCommandLine</text>
</a>
</g>
</g>
<!-- Node34&#45;&gt;Node41 -->
<g id="edge45" class="edge"><title>Node34&#45;&gt;Node41</title>
<path fill="none" stroke="midnightblue" d="M368.571,-513.089C394.276,-518.216 426.113,-524.567 453.164,-529.963"/>
<polygon fill="midnightblue" stroke="midnightblue" points="452.783,-533.456 463.274,-531.98 454.152,-526.591 452.783,-533.456"/>
</g>
<!-- Node42 -->
<g id="node42" class="node"><title>Node42</title>
<g id="a_node42"><a xlink:href="classpdal_1_1Stage.html#ab94db25b14b94de1f62f9738327accd2" target="_top" xlink:title="pdal::Stage::setupLog">
<polygon fill="white" stroke="black" points="456,-646 456,-665 568,-665 568,-646 456,-646"/>
<text text-anchor="middle" x="512" y="-653" font-family="Helvetica,sans-Serif" font-size="10.00">pdal::Stage::setupLog</text>
</a>
</g>
</g>
<!-- Node34&#45;&gt;Node42 -->
<g id="edge47" class="edge"><title>Node34&#45;&gt;Node42</title>
<path fill="none" stroke="midnightblue" d="M376.834,-513.046C385.377,-516.488 393.495,-521.161 400,-527.5 436.538,-563.107 398.669,-601.726 436,-636.5 439.151,-639.435 442.69,-641.934 446.469,-644.058"/>
<polygon fill="midnightblue" stroke="midnightblue" points="445.115,-647.289 455.655,-648.367 448.087,-640.951 445.115,-647.289"/>
</g>
<!-- Node35&#45;&gt;Node36 -->
<g id="edge37" class="edge"><title>Node35&#45;&gt;Node36</title>
<path fill="none" stroke="midnightblue" d="M571.775,-471.721C589.464,-473.594 608.983,-475.66 627.076,-477.575"/>
<polygon fill="midnightblue" stroke="midnightblue" points="626.935,-481.079 637.248,-478.652 627.672,-474.118 626.935,-481.079"/>
</g>
<!-- Node38&#45;&gt;Node3 -->
<g id="edge40" class="edge"><title>Node38&#45;&gt;Node3</title>
<path fill="none" stroke="midnightblue" d="M552.601,-341.967C564.109,-338.921 576.636,-335.335 588,-331.5 613.514,-322.889 641.711,-311.15 662.378,-302.113"/>
<polygon fill="midnightblue" stroke="midnightblue" points="663.856,-305.287 671.59,-298.046 661.028,-298.883 663.856,-305.287"/>
</g>
<!-- Node38&#45;&gt;Node6 -->
<g id="edge41" class="edge"><title>Node38&#45;&gt;Node6</title>
<path fill="none" stroke="midnightblue" d="M584.717,-351.5C598.257,-351.5 612.368,-351.5 625.748,-351.5"/>
<polygon fill="midnightblue" stroke="midnightblue" points="625.816,-355 635.816,-351.5 625.816,-348 625.816,-355"/>
</g>
<!-- Node40&#45;&gt;Node6 -->
<g id="edge44" class="edge"><title>Node40&#45;&gt;Node6</title>
<path fill="none" stroke="midnightblue" d="M535.734,-417.875C567.294,-404.512 624.542,-380.273 660.433,-365.077"/>
<polygon fill="midnightblue" stroke="midnightblue" points="662.107,-368.169 669.951,-361.047 659.378,-361.723 662.107,-368.169"/>
</g>
<!-- Node42&#45;&gt;Node13 -->
<g id="edge49" class="edge"><title>Node42&#45;&gt;Node13</title>
<path fill="none" stroke="midnightblue" d="M557.961,-665.04C567.99,-667.676 578.471,-670.838 588,-674.5 604.888,-680.989 607.464,-686.16 624,-693.5 628.724,-695.597 633.684,-697.661 638.684,-699.649"/>
<polygon fill="midnightblue" stroke="midnightblue" points="637.707,-703.025 648.297,-703.368 640.233,-696.496 637.707,-703.025"/>
</g>
<!-- Node42&#45;&gt;Node14 -->
<g id="edge50" class="edge"><title>Node42&#45;&gt;Node14</title>
<path fill="none" stroke="midnightblue" d="M568.321,-661.356C582.686,-662.876 598.438,-664.544 613.756,-666.165"/>
<polygon fill="midnightblue" stroke="midnightblue" points="613.427,-669.65 623.74,-667.222 614.164,-662.689 613.427,-669.65"/>
</g>
<!-- Node42&#45;&gt;Node15 -->
<g id="edge51" class="edge"><title>Node42&#45;&gt;Node15</title>
<path fill="none" stroke="midnightblue" d="M568.321,-649.644C587.531,-647.611 609.222,-645.315 629.038,-643.217"/>
<polygon fill="midnightblue" stroke="midnightblue" points="629.631,-646.674 639.207,-642.141 628.894,-639.713 629.631,-646.674"/>
</g>
<!-- Node42&#45;&gt;Node36 -->
<g id="edge48" class="edge"><title>Node42&#45;&gt;Node36</title>
<path fill="none" stroke="midnightblue" d="M568.279,-646.422C575.27,-643.887 582.048,-640.645 588,-636.5 637.56,-601.986 670.812,-535.834 684.888,-503.388"/>
<polygon fill="midnightblue" stroke="midnightblue" points="688.134,-504.696 688.78,-494.121 681.681,-501.985 688.134,-504.696"/>
</g>
<!-- Node43&#45;&gt;Node36 -->
<g id="edge55" class="edge"><title>Node43&#45;&gt;Node36</title>
<path fill="none" stroke="midnightblue" d="M377.182,-384.662C432.652,-381.95 518.676,-383.206 588,-408.5 623.036,-421.283 656.638,-449.515 675.892,-467.74"/>
<polygon fill="midnightblue" stroke="midnightblue" points="673.616,-470.408 683.228,-474.863 678.492,-465.386 673.616,-470.408"/>
</g>
<!-- Node44 -->
<g id="node44" class="node"><title>Node44</title>
<g id="a_node44"><a xlink:href="classpdal_1_1BasePointTable.html#a03429472e71e5dd323bc92319f4a9df6" target="_top" xlink:title="pdal::BasePointTable\l::metadata">
<polygon fill="white" stroke="black" points="457,-292.5 457,-322.5 567,-322.5 567,-292.5 457,-292.5"/>
<text text-anchor="start" x="465" y="-310.5" font-family="Helvetica,sans-Serif" font-size="10.00">pdal::BasePointTable</text>
<text text-anchor="middle" x="512" y="-299.5" font-family="Helvetica,sans-Serif" font-size="10.00">::metadata</text>
</a>
</g>
</g>
<!-- Node43&#45;&gt;Node44 -->
<g id="edge54" class="edge"><title>Node43&#45;&gt;Node44</title>
<path fill="none" stroke="midnightblue" d="M375.516,-379.911C384.027,-377.239 392.478,-373.835 400,-369.5 419.879,-358.044 416.566,-344.696 436,-332.5 439.597,-330.243 443.419,-328.166 447.361,-326.259"/>
<polygon fill="midnightblue" stroke="midnightblue" points="448.997,-329.363 456.723,-322.113 446.163,-322.962 448.997,-329.363"/>
</g>
<!-- Node50&#45;&gt;Node8 -->
<g id="edge64" class="edge"><title>Node50&#45;&gt;Node8</title>
<path fill="none" stroke="midnightblue" d="M189.399,-230.642C209.374,-232.786 232.871,-235.308 254.307,-237.609"/>
<polygon fill="midnightblue" stroke="midnightblue" points="253.997,-241.096 264.314,-238.683 254.744,-234.136 253.997,-241.096"/>
</g>
</g>
</svg>
