<?xml version="1.0" encoding="UTF-8" standalone="no"?>
<!DOCTYPE svg PUBLIC "-//W3C//DTD SVG 1.1//EN"
 "http://www.w3.org/Graphics/SVG/1.1/DTD/svg11.dtd">
<!-- Generated by graphviz version 2.38.0 (20140413.2041)
 -->
<!-- Title: pdal/plugins/matlab/io/MatlabReader.hpp Pages: 1 -->
<svg width="274pt" height="106pt"
 viewBox="0.00 0.00 274.00 106.00" xmlns="http://www.w3.org/2000/svg" xmlns:xlink="http://www.w3.org/1999/xlink">
<g id="graph0" class="graph" transform="scale(1 1) rotate(0) translate(4 102)">
<title>pdal/plugins/matlab/io/MatlabReader.hpp</title>
<polygon fill="white" stroke="none" points="-4,4 -4,-102 270,-102 270,4 -4,4"/>
<!-- Node1 -->
<g id="node1" class="node"><title>Node1</title>
<polygon fill="#bfbfbf" stroke="black" points="71,-67.5 71,-97.5 181,-97.5 181,-67.5 71,-67.5"/>
<text text-anchor="start" x="79" y="-85.5" font-family="Helvetica,sans-Serif" font-size="10.00">pdal/plugins/matlab</text>
<text text-anchor="middle" x="126" y="-74.5" font-family="Helvetica,sans-Serif" font-size="10.00">/io/MatlabReader.hpp</text>
</g>
<!-- Node2 -->
<g id="node2" class="node"><title>Node2</title>
<g id="a_node2"><a xlink:href="MatlabReader_8cpp.html" target="_top" xlink:title="pdal/plugins/matlab\l/io/MatlabReader.cpp">
<polygon fill="white" stroke="black" points="0,-0.5 0,-30.5 110,-30.5 110,-0.5 0,-0.5"/>
<text text-anchor="start" x="8" y="-18.5" font-family="Helvetica,sans-Serif" font-size="10.00">pdal/plugins/matlab</text>
<text text-anchor="middle" x="55" y="-7.5" font-family="Helvetica,sans-Serif" font-size="10.00">/io/MatlabReader.cpp</text>
</a>
</g>
</g>
<!-- Node1&#45;&gt;Node2 -->
<g id="edge1" class="edge"><title>Node1&#45;&gt;Node2</title>
<path fill="none" stroke="midnightblue" d="M103.168,-60.5978C92.4477,-50.7831 79.9529,-39.3442 70.3759,-30.5765"/>
<polygon fill="midnightblue" stroke="midnightblue" points="100.855,-63.225 110.594,-67.396 105.582,-58.0618 100.855,-63.225"/>
</g>
<!-- Node3 -->
<g id="node3" class="node"><title>Node3</title>
<g id="a_node3"><a xlink:href="MatlabReaderTest_8cpp.html" target="_top" xlink:title="pdal/plugins/matlab\l/test/MatlabReaderTest.cpp">
<polygon fill="white" stroke="black" points="128,-0.5 128,-30.5 266,-30.5 266,-0.5 128,-0.5"/>
<text text-anchor="start" x="136" y="-18.5" font-family="Helvetica,sans-Serif" font-size="10.00">pdal/plugins/matlab</text>
<text text-anchor="middle" x="197" y="-7.5" font-family="Helvetica,sans-Serif" font-size="10.00">/test/MatlabReaderTest.cpp</text>
</a>
</g>
</g>
<!-- Node1&#45;&gt;Node3 -->
<g id="edge2" class="edge"><title>Node1&#45;&gt;Node3</title>
<path fill="none" stroke="midnightblue" d="M148.832,-60.5978C159.552,-50.7831 172.047,-39.3442 181.624,-30.5765"/>
<polygon fill="midnightblue" stroke="midnightblue" points="146.418,-58.0618 141.406,-67.396 151.145,-63.225 146.418,-58.0618"/>
</g>
</g>
</svg>
