<?xml version="1.0" encoding="UTF-8" standalone="no"?>
<!DOCTYPE svg PUBLIC "-//W3C//DTD SVG 1.1//EN"
 "http://www.w3.org/Graphics/SVG/1.1/DTD/svg11.dtd">
<!-- Generated by graphviz version 2.38.0 (20140413.2041)
 -->
<!-- Title: pdal/plugins/matlab/io/MatlabWriter.hpp Pages: 1 -->
<svg width="264pt" height="106pt"
 viewBox="0.00 0.00 263.50 106.00" xmlns="http://www.w3.org/2000/svg" xmlns:xlink="http://www.w3.org/1999/xlink">
<g id="graph0" class="graph" transform="scale(1 1) rotate(0) translate(4 102)">
<title>pdal/plugins/matlab/io/MatlabWriter.hpp</title>
<polygon fill="white" stroke="none" points="-4,4 -4,-102 259.5,-102 259.5,4 -4,4"/>
<!-- Node1 -->
<g id="node1" class="node"><title>Node1</title>
<polygon fill="#bfbfbf" stroke="black" points="68,-67.5 68,-97.5 172,-97.5 172,-67.5 68,-67.5"/>
<text text-anchor="start" x="76" y="-85.5" font-family="Helvetica,sans-Serif" font-size="10.00">pdal/plugins/matlab</text>
<text text-anchor="middle" x="120" y="-74.5" font-family="Helvetica,sans-Serif" font-size="10.00">/io/MatlabWriter.hpp</text>
</g>
<!-- Node2 -->
<g id="node2" class="node"><title>Node2</title>
<g id="a_node2"><a xlink:href="MatlabWriter_8cpp.html" target="_top" xlink:title="pdal/plugins/matlab\l/io/MatlabWriter.cpp">
<polygon fill="white" stroke="black" points="0,-0.5 0,-30.5 104,-30.5 104,-0.5 0,-0.5"/>
<text text-anchor="start" x="8" y="-18.5" font-family="Helvetica,sans-Serif" font-size="10.00">pdal/plugins/matlab</text>
<text text-anchor="middle" x="52" y="-7.5" font-family="Helvetica,sans-Serif" font-size="10.00">/io/MatlabWriter.cpp</text>
</a>
</g>
</g>
<!-- Node1&#45;&gt;Node2 -->
<g id="edge1" class="edge"><title>Node1&#45;&gt;Node2</title>
<path fill="none" stroke="midnightblue" d="M97.8335,-60.3115C87.6333,-50.5612 75.8095,-39.259 66.7262,-30.5765"/>
<polygon fill="midnightblue" stroke="midnightblue" points="95.5978,-63.0162 105.245,-67.396 100.435,-57.9561 95.5978,-63.0162"/>
</g>
<!-- Node3 -->
<g id="node3" class="node"><title>Node3</title>
<g id="a_node3"><a xlink:href="MatlabWriterTest_8cpp.html" target="_top" xlink:title="pdal/plugins/matlab\l/test/MatlabWriterTest.cpp">
<polygon fill="white" stroke="black" points="122.5,-0.5 122.5,-30.5 255.5,-30.5 255.5,-0.5 122.5,-0.5"/>
<text text-anchor="start" x="130.5" y="-18.5" font-family="Helvetica,sans-Serif" font-size="10.00">pdal/plugins/matlab</text>
<text text-anchor="middle" x="189" y="-7.5" font-family="Helvetica,sans-Serif" font-size="10.00">/test/MatlabWriterTest.cpp</text>
</a>
</g>
</g>
<!-- Node1&#45;&gt;Node3 -->
<g id="edge2" class="edge"><title>Node1&#45;&gt;Node3</title>
<path fill="none" stroke="midnightblue" d="M142.492,-60.3115C152.843,-50.5612 164.84,-39.259 174.057,-30.5765"/>
<polygon fill="midnightblue" stroke="midnightblue" points="139.851,-57.9914 134.972,-67.396 144.651,-63.0866 139.851,-57.9914"/>
</g>
</g>
</svg>
