<?xml version="1.0" encoding="UTF-8" standalone="no"?>
<!DOCTYPE svg PUBLIC "-//W3C//DTD SVG 1.1//EN"
 "http://www.w3.org/Graphics/SVG/1.1/DTD/svg11.dtd">
<!-- Generated by graphviz version 2.38.0 (20140413.2041)
 -->
<!-- Title: TEST Pages: 1 -->
<svg width="1441pt" height="562pt"
 viewBox="0.00 0.00 1441.00 561.90" xmlns="http://www.w3.org/2000/svg" xmlns:xlink="http://www.w3.org/1999/xlink">
<g id="graph0" class="graph" transform="scale(1 1) rotate(0) translate(4 557.902)">
<title>TEST</title>
<polygon fill="white" stroke="none" points="-4,4 -4,-557.902 1437,-557.902 1437,4 -4,4"/>
<!-- Node1 -->
<g id="node1" class="node"><title>Node1</title>
<polygon fill="#bfbfbf" stroke="black" points="0,-130.5 0,-149.5 42,-149.5 42,-130.5 0,-130.5"/>
<text text-anchor="middle" x="21" y="-137.5" font-family="Helvetica,sans-Serif" font-size="10.00">TEST</text>
</g>
<!-- Node2 -->
<g id="node2" class="node"><title>Node2</title>
<g id="a_node2"><a xlink:href="classpdal_1_1Options.html#a30826da39f9c4716412141eeeb719032" target="_top" xlink:title="pdal::Options::add">
<polygon fill="white" stroke="black" points="89.5,-196.5 89.5,-215.5 185.5,-215.5 185.5,-196.5 89.5,-196.5"/>
<text text-anchor="middle" x="137.5" y="-203.5" font-family="Helvetica,sans-Serif" font-size="10.00">pdal::Options::add</text>
</a>
</g>
</g>
<!-- Node1&#45;&gt;Node2 -->
<g id="edge1" class="edge"><title>Node1&#45;&gt;Node2</title>
<path fill="none" stroke="midnightblue" d="M31.516,-149.66C42.0637,-159.9 59.9772,-175.953 78,-186 82.5132,-188.516 87.3978,-190.793 92.3543,-192.832"/>
<polygon fill="midnightblue" stroke="midnightblue" points="91.3051,-196.177 101.896,-196.459 93.7927,-189.634 91.3051,-196.177"/>
</g>
<!-- Node9 -->
<g id="node9" class="node"><title>Node9</title>
<g id="a_node9"><a xlink:href="classpdal_1_1StageFactory.html#ac23b3763b84750594c834ec6ea27e334" target="_top" xlink:title="pdal::StageFactory\l::createStage">
<polygon fill="white" stroke="black" points="88,-147 88,-177 187,-177 187,-147 88,-147"/>
<text text-anchor="start" x="96" y="-165" font-family="Helvetica,sans-Serif" font-size="10.00">pdal::StageFactory</text>
<text text-anchor="middle" x="137.5" y="-154" font-family="Helvetica,sans-Serif" font-size="10.00">::createStage</text>
</a>
</g>
</g>
<!-- Node1&#45;&gt;Node9 -->
<g id="edge8" class="edge"><title>Node1&#45;&gt;Node9</title>
<path fill="none" stroke="midnightblue" d="M42.2067,-143.883C52.3364,-145.829 65.1775,-148.296 78.0969,-150.778"/>
<polygon fill="midnightblue" stroke="midnightblue" points="77.4674,-154.221 87.9482,-152.671 78.7882,-147.347 77.4674,-154.221"/>
</g>
<!-- Node37 -->
<g id="node37" class="node"><title>Node37</title>
<g id="a_node37"><a xlink:href="classSupport.html#a9bbdf6f202f4f2e45e7a53007dd0a238" target="_top" xlink:title="Support::datapath">
<polygon fill="white" stroke="black" points="90.5,-108.5 90.5,-127.5 184.5,-127.5 184.5,-108.5 90.5,-108.5"/>
<text text-anchor="middle" x="137.5" y="-115.5" font-family="Helvetica,sans-Serif" font-size="10.00">Support::datapath</text>
</a>
</g>
</g>
<!-- Node1&#45;&gt;Node37 -->
<g id="edge42" class="edge"><title>Node1&#45;&gt;Node37</title>
<path fill="none" stroke="midnightblue" d="M42.2067,-136.117C52.9523,-134.053 66.7491,-131.402 80.4539,-128.769"/>
<polygon fill="midnightblue" stroke="midnightblue" points="81.2119,-132.187 90.3719,-126.863 79.8911,-125.313 81.2119,-132.187"/>
</g>
<!-- Node39 -->
<g id="node39" class="node"><title>Node39</title>
<g id="a_node39"><a xlink:href="classpdal_1_1Stage.html#acb2434df20f371f1fec9577de3cf0046" target="_top" xlink:title="pdal::Stage::setOptions">
<polygon fill="white" stroke="black" points="78,-70.5 78,-89.5 197,-89.5 197,-70.5 78,-70.5"/>
<text text-anchor="middle" x="137.5" y="-77.5" font-family="Helvetica,sans-Serif" font-size="10.00">pdal::Stage::setOptions</text>
</a>
</g>
</g>
<!-- Node1&#45;&gt;Node39 -->
<g id="edge44" class="edge"><title>Node1&#45;&gt;Node39</title>
<path fill="none" stroke="midnightblue" d="M32.8857,-130.388C43.6928,-121.258 61.0523,-107.673 78,-99 82.2332,-96.8337 86.7637,-94.8461 91.3601,-93.0406"/>
<polygon fill="midnightblue" stroke="midnightblue" points="92.6187,-96.3072 100.813,-89.5915 90.2193,-89.7312 92.6187,-96.3072"/>
</g>
<!-- Node3 -->
<g id="node3" class="node"><title>Node3</title>
<g id="a_node3"><a xlink:href="classpdal_1_1Option.html#aef4422b88464a9cad83b3c11bf1f8cdd" target="_top" xlink:title="pdal::Option::nameValid">
<polygon fill="white" stroke="black" points="233,-234.5 233,-253.5 354,-253.5 354,-234.5 233,-234.5"/>
<text text-anchor="middle" x="293.5" y="-241.5" font-family="Helvetica,sans-Serif" font-size="10.00">pdal::Option::nameValid</text>
</a>
</g>
</g>
<!-- Node2&#45;&gt;Node3 -->
<g id="edge2" class="edge"><title>Node2&#45;&gt;Node3</title>
<path fill="none" stroke="midnightblue" d="M177.361,-215.589C197.591,-220.581 222.521,-226.732 244.004,-232.033"/>
<polygon fill="midnightblue" stroke="midnightblue" points="243.371,-235.482 253.919,-234.48 245.048,-228.686 243.371,-235.482"/>
</g>
<!-- Node8 -->
<g id="node8" class="node"><title>Node8</title>
<g id="a_node8"><a xlink:href="classpdal_1_1Option.html#ad2b7a736742fb343e421fa326ef45c23" target="_top" xlink:title="pdal::Option::getName">
<polygon fill="white" stroke="black" points="236,-196.5 236,-215.5 351,-215.5 351,-196.5 236,-196.5"/>
<text text-anchor="middle" x="293.5" y="-203.5" font-family="Helvetica,sans-Serif" font-size="10.00">pdal::Option::getName</text>
</a>
</g>
</g>
<!-- Node2&#45;&gt;Node8 -->
<g id="edge7" class="edge"><title>Node2&#45;&gt;Node8</title>
<path fill="none" stroke="midnightblue" d="M185.542,-206C198.23,-206 212.203,-206 225.746,-206"/>
<polygon fill="midnightblue" stroke="midnightblue" points="225.99,-209.5 235.99,-206 225.99,-202.5 225.99,-209.5"/>
</g>
<!-- Node4 -->
<g id="node4" class="node"><title>Node4</title>
<g id="a_node4"><a xlink:href="classpdal_1_1Option.html#a978a36cf9180d3636ea770988961952b" target="_top" xlink:title="pdal::Option::parse">
<polygon fill="white" stroke="black" points="394,-253.5 394,-272.5 493,-272.5 493,-253.5 394,-253.5"/>
<text text-anchor="middle" x="443.5" y="-260.5" font-family="Helvetica,sans-Serif" font-size="10.00">pdal::Option::parse</text>
</a>
</g>
</g>
<!-- Node3&#45;&gt;Node4 -->
<g id="edge3" class="edge"><title>Node3&#45;&gt;Node4</title>
<path fill="none" stroke="midnightblue" d="M354.271,-251.673C364.036,-252.927 374.144,-254.225 383.881,-255.475"/>
<polygon fill="midnightblue" stroke="midnightblue" points="383.499,-258.954 393.863,-256.756 384.39,-252.011 383.499,-258.954"/>
</g>
<!-- Node7 -->
<g id="node7" class="node"><title>Node7</title>
<g id="a_node7"><a xlink:href="namespacepdal_1_1Utils.html#ada321695f57c876ef51227bdf5b84f7a" target="_top" xlink:title="pdal::Utils::printError">
<polygon fill="white" stroke="black" points="390,-215.5 390,-234.5 497,-234.5 497,-215.5 390,-215.5"/>
<text text-anchor="middle" x="443.5" y="-222.5" font-family="Helvetica,sans-Serif" font-size="10.00">pdal::Utils::printError</text>
</a>
</g>
</g>
<!-- Node3&#45;&gt;Node7 -->
<g id="edge6" class="edge"><title>Node3&#45;&gt;Node7</title>
<path fill="none" stroke="midnightblue" d="M354.271,-236.327C362.598,-235.258 371.175,-234.157 379.558,-233.08"/>
<polygon fill="midnightblue" stroke="midnightblue" points="380.185,-236.529 389.658,-231.784 379.294,-229.586 380.185,-236.529"/>
</g>
<!-- Node5 -->
<g id="node5" class="node"><title>Node5</title>
<g id="a_node5"><a xlink:href="namespacepdal_1_1Utils.html#acae5a19cd66121b77e2599daec48413d" target="_top" xlink:title="pdal::Utils::extract">
<polygon fill="white" stroke="black" points="543,-272.5 543,-291.5 640,-291.5 640,-272.5 543,-272.5"/>
<text text-anchor="middle" x="591.5" y="-279.5" font-family="Helvetica,sans-Serif" font-size="10.00">pdal::Utils::extract</text>
</a>
</g>
</g>
<!-- Node4&#45;&gt;Node5 -->
<g id="edge4" class="edge"><title>Node4&#45;&gt;Node5</title>
<path fill="none" stroke="midnightblue" d="M493.116,-269.327C505.683,-270.962 519.34,-272.739 532.341,-274.431"/>
<polygon fill="midnightblue" stroke="midnightblue" points="532.225,-277.946 542.593,-275.766 533.128,-271.004 532.225,-277.946"/>
</g>
<!-- Node6 -->
<g id="node6" class="node"><title>Node6</title>
<g id="a_node6"><a xlink:href="namespacepdal_1_1Dimension.html#af3176b0b7e6b4be000317846cf7c2718" target="_top" xlink:title="pdal::Dimension::name">
<polygon fill="white" stroke="black" points="533,-234.5 533,-253.5 650,-253.5 650,-234.5 533,-234.5"/>
<text text-anchor="middle" x="591.5" y="-241.5" font-family="Helvetica,sans-Serif" font-size="10.00">pdal::Dimension::name</text>
</a>
</g>
</g>
<!-- Node4&#45;&gt;Node6 -->
<g id="edge5" class="edge"><title>Node4&#45;&gt;Node6</title>
<path fill="none" stroke="midnightblue" d="M493.116,-256.673C502.697,-255.426 512.911,-254.097 522.985,-252.786"/>
<polygon fill="midnightblue" stroke="midnightblue" points="523.519,-256.246 532.984,-251.485 522.616,-249.305 523.519,-256.246"/>
</g>
<!-- Node10 -->
<g id="node10" class="node"><title>Node10</title>
<g id="a_node10"><a xlink:href="classpdal_1_1PluginManager.html#a70e78b2649f28e266ec11b7a9e183af9" target="_top" xlink:title="pdal::PluginManager\l::createObject">
<polygon fill="white" stroke="black" points="241,-147 241,-177 346,-177 346,-147 241,-147"/>
<text text-anchor="start" x="249" y="-165" font-family="Helvetica,sans-Serif" font-size="10.00">pdal::PluginManager</text>
<text text-anchor="middle" x="293.5" y="-154" font-family="Helvetica,sans-Serif" font-size="10.00">::createObject</text>
</a>
</g>
</g>
<!-- Node9&#45;&gt;Node10 -->
<g id="edge9" class="edge"><title>Node9&#45;&gt;Node10</title>
<path fill="none" stroke="midnightblue" d="M187.227,-162C200.983,-162 216.137,-162 230.558,-162"/>
<polygon fill="midnightblue" stroke="midnightblue" points="230.899,-165.5 240.899,-162 230.899,-158.5 230.899,-165.5"/>
</g>
<!-- Node11 -->
<g id="node11" class="node"><title>Node11</title>
<g id="a_node11"><a xlink:href="classpdal_1_1PluginManager.html#a1d74a4219bdf2592c026084e0aa3809a" target="_top" xlink:title="pdal::PluginManager\l::l_createObject">
<polygon fill="white" stroke="black" points="391,-147 391,-177 496,-177 496,-147 391,-147"/>
<text text-anchor="start" x="399" y="-165" font-family="Helvetica,sans-Serif" font-size="10.00">pdal::PluginManager</text>
<text text-anchor="middle" x="443.5" y="-154" font-family="Helvetica,sans-Serif" font-size="10.00">::l_createObject</text>
</a>
</g>
</g>
<!-- Node10&#45;&gt;Node11 -->
<g id="edge10" class="edge"><title>Node10&#45;&gt;Node11</title>
<path fill="none" stroke="midnightblue" d="M346.263,-162C357.304,-162 369.073,-162 380.455,-162"/>
<polygon fill="midnightblue" stroke="midnightblue" points="380.766,-165.5 390.766,-162 380.766,-158.5 380.766,-165.5"/>
</g>
<!-- Node12 -->
<g id="node12" class="node"><title>Node12</title>
<g id="a_node12"><a xlink:href="classpdal_1_1PluginManager.html#a4b104d8173aec62bcd3745ddee7aa3d5" target="_top" xlink:title="pdal::PluginManager\l::guessLoadByPath">
<polygon fill="white" stroke="black" points="539,-147 539,-177 644,-177 644,-147 539,-147"/>
<text text-anchor="start" x="547" y="-165" font-family="Helvetica,sans-Serif" font-size="10.00">pdal::PluginManager</text>
<text text-anchor="middle" x="591.5" y="-154" font-family="Helvetica,sans-Serif" font-size="10.00">::guessLoadByPath</text>
</a>
</g>
</g>
<!-- Node11&#45;&gt;Node12 -->
<g id="edge11" class="edge"><title>Node11&#45;&gt;Node12</title>
<path fill="none" stroke="midnightblue" d="M496.385,-162C506.82,-162 517.885,-162 528.621,-162"/>
<polygon fill="midnightblue" stroke="midnightblue" points="528.782,-165.5 538.782,-162 528.782,-158.5 528.782,-165.5"/>
</g>
<!-- Node13 -->
<g id="node13" class="node"><title>Node13</title>
<g id="a_node13"><a xlink:href="namespacepdal_1_1Utils.html#a6ae33c6d7b4eb4bcae6ec17fb8cc04fc" target="_top" xlink:title="pdal::Utils::split2">
<polygon fill="white" stroke="black" points="966,-527.5 966,-546.5 1056,-546.5 1056,-527.5 966,-527.5"/>
<text text-anchor="middle" x="1011" y="-534.5" font-family="Helvetica,sans-Serif" font-size="10.00">pdal::Utils::split2</text>
</a>
</g>
</g>
<!-- Node12&#45;&gt;Node13 -->
<g id="edge12" class="edge"><title>Node12&#45;&gt;Node13</title>
<path fill="none" stroke="midnightblue" d="M611.262,-177.017C624.388,-188.646 641.107,-205.945 650,-225 700.826,-333.904 601.081,-407.958 686,-493 756.631,-563.733 883.392,-557.977 955.646,-547.491"/>
<polygon fill="midnightblue" stroke="midnightblue" points="956.545,-550.894 965.898,-545.918 955.483,-543.975 956.545,-550.894"/>
</g>
<!-- Node14 -->
<g id="node14" class="node"><title>Node14</title>
<g id="a_node14"><a xlink:href="namespacepdal_1_1anonymous__namespace_02PluginManager_8cpp_03.html#a1fdbb485623dfdef1f484e665ffe43fe" target="_top" xlink:title="pdal::anonymous_namespace\l\{PluginManager::cpp\}::pluginSearchPaths">
<polygon fill="white" stroke="black" points="686,-454 686,-484 883,-484 883,-454 686,-454"/>
<text text-anchor="start" x="694" y="-472" font-family="Helvetica,sans-Serif" font-size="10.00">pdal::anonymous_namespace</text>
<text text-anchor="middle" x="784.5" y="-461" font-family="Helvetica,sans-Serif" font-size="10.00">{PluginManager::cpp}::pluginSearchPaths</text>
</a>
</g>
</g>
<!-- Node12&#45;&gt;Node14 -->
<g id="edge13" class="edge"><title>Node12&#45;&gt;Node14</title>
<path fill="none" stroke="midnightblue" d="M608.265,-177.154C620.499,-189.39 637.434,-207.407 650,-225 678.072,-264.303 743.792,-391.179 771.179,-444.761"/>
<polygon fill="midnightblue" stroke="midnightblue" points="768.167,-446.558 775.829,-453.875 774.402,-443.377 768.167,-446.558"/>
</g>
<!-- Node17 -->
<g id="node17" class="node"><title>Node17</title>
<g id="a_node17"><a xlink:href="namespacepdal_1_1FileUtils.html#ae2b8f1ddc38b0033b685a0bde6106ba1" target="_top" xlink:title="pdal::FileUtils::fileExists">
<polygon fill="white" stroke="black" points="723,-114.5 723,-133.5 846,-133.5 846,-114.5 723,-114.5"/>
<text text-anchor="middle" x="784.5" y="-121.5" font-family="Helvetica,sans-Serif" font-size="10.00">pdal::FileUtils::fileExists</text>
</a>
</g>
</g>
<!-- Node12&#45;&gt;Node17 -->
<g id="edge17" class="edge"><title>Node12&#45;&gt;Node17</title>
<path fill="none" stroke="midnightblue" d="M644.414,-151.374C657.947,-148.625 672.516,-145.684 686,-143 698.278,-140.556 711.433,-137.971 723.98,-135.52"/>
<polygon fill="midnightblue" stroke="midnightblue" points="724.739,-138.938 733.884,-133.589 723.399,-132.067 724.739,-138.938"/>
</g>
<!-- Node20 -->
<g id="node20" class="node"><title>Node20</title>
<g id="a_node20"><a xlink:href="namespacepdal_1_1FileUtils.html#acfbe324737d031ab2650a56c6d50c776" target="_top" xlink:title="pdal::FileUtils::isDirectory">
<polygon fill="white" stroke="black" points="719.5,-76.5 719.5,-95.5 849.5,-95.5 849.5,-76.5 719.5,-76.5"/>
<text text-anchor="middle" x="784.5" y="-83.5" font-family="Helvetica,sans-Serif" font-size="10.00">pdal::FileUtils::isDirectory</text>
</a>
</g>
</g>
<!-- Node12&#45;&gt;Node20 -->
<g id="edge20" class="edge"><title>Node12&#45;&gt;Node20</title>
<path fill="none" stroke="midnightblue" d="M612.558,-146.851C630.78,-133.823 658.881,-115.517 686,-105 693.487,-102.096 701.477,-99.6203 709.538,-97.5124"/>
<polygon fill="midnightblue" stroke="midnightblue" points="710.487,-100.884 719.377,-95.12 708.834,-94.0818 710.487,-100.884"/>
</g>
<!-- Node21 -->
<g id="node21" class="node"><title>Node21</title>
<g id="a_node21"><a xlink:href="namespacepdal_1_1FileUtils.html#af4165597419cf00a2ff9cea447ea6c33" target="_top" xlink:title="pdal::FileUtils::directoryList">
<polygon fill="white" stroke="black" points="716.5,-38.5 716.5,-57.5 852.5,-57.5 852.5,-38.5 716.5,-38.5"/>
<text text-anchor="middle" x="784.5" y="-45.5" font-family="Helvetica,sans-Serif" font-size="10.00">pdal::FileUtils::directoryList</text>
</a>
</g>
</g>
<!-- Node12&#45;&gt;Node21 -->
<g id="edge21" class="edge"><title>Node12&#45;&gt;Node21</title>
<path fill="none" stroke="midnightblue" d="M602.884,-146.706C618.335,-125.237 649.508,-86.6009 686,-67 692.424,-63.5497 699.385,-60.7208 706.531,-58.4022"/>
<polygon fill="midnightblue" stroke="midnightblue" points="707.732,-61.6982 716.358,-55.5463 705.778,-54.9763 707.732,-61.6982"/>
</g>
<!-- Node22 -->
<g id="node22" class="node"><title>Node22</title>
<g id="a_node22"><a xlink:href="namespacepdal_1_1FileUtils.html#ae3c153961947c766ab18099f7ef71fc1" target="_top" xlink:title="pdal::FileUtils::extension">
<polygon fill="white" stroke="black" points="722,-0.5 722,-19.5 847,-19.5 847,-0.5 722,-0.5"/>
<text text-anchor="middle" x="784.5" y="-7.5" font-family="Helvetica,sans-Serif" font-size="10.00">pdal::FileUtils::extension</text>
</a>
</g>
</g>
<!-- Node12&#45;&gt;Node22 -->
<g id="edge22" class="edge"><title>Node12&#45;&gt;Node22</title>
<path fill="none" stroke="midnightblue" d="M598.584,-146.747C610.671,-118.554 640.53,-58.4834 686,-29 693.947,-23.847 702.972,-20.0305 712.246,-17.2143"/>
<polygon fill="midnightblue" stroke="midnightblue" points="713.203,-20.5815 721.967,-14.6274 711.403,-13.817 713.203,-20.5815"/>
</g>
<!-- Node23 -->
<g id="node23" class="node"><title>Node23</title>
<g id="a_node23"><a xlink:href="namespacepdal_1_1FileUtils.html#a3bdadae2f0ef6896942c02e9a9c81e00" target="_top" xlink:title="pdal::FileUtils::stem">
<polygon fill="white" stroke="black" points="732.5,-190.5 732.5,-209.5 836.5,-209.5 836.5,-190.5 732.5,-190.5"/>
<text text-anchor="middle" x="784.5" y="-197.5" font-family="Helvetica,sans-Serif" font-size="10.00">pdal::FileUtils::stem</text>
</a>
</g>
</g>
<!-- Node12&#45;&gt;Node23 -->
<g id="edge23" class="edge"><title>Node12&#45;&gt;Node23</title>
<path fill="none" stroke="midnightblue" d="M644.414,-172.626C657.947,-175.375 672.516,-178.316 686,-181 698.278,-183.444 711.433,-186.029 723.98,-188.48"/>
<polygon fill="midnightblue" stroke="midnightblue" points="723.399,-191.933 733.884,-190.411 724.739,-185.062 723.399,-191.933"/>
</g>
<!-- Node25 -->
<g id="node25" class="node"><title>Node25</title>
<g id="a_node25"><a xlink:href="namespacepdal_1_1Dimension.html#a880d689fed54aa3ded6f88c9e058c5d2" target="_top" xlink:title="pdal::Dimension::type">
<polygon fill="white" stroke="black" points="728.5,-152.5 728.5,-171.5 840.5,-171.5 840.5,-152.5 728.5,-152.5"/>
<text text-anchor="middle" x="784.5" y="-159.5" font-family="Helvetica,sans-Serif" font-size="10.00">pdal::Dimension::type</text>
</a>
</g>
</g>
<!-- Node12&#45;&gt;Node25 -->
<g id="edge25" class="edge"><title>Node12&#45;&gt;Node25</title>
<path fill="none" stroke="midnightblue" d="M644.187,-162C667.001,-162 694.074,-162 718.26,-162"/>
<polygon fill="midnightblue" stroke="midnightblue" points="718.427,-165.5 728.427,-162 718.427,-158.5 718.427,-165.5"/>
</g>
<!-- Node27 -->
<g id="node27" class="node"><title>Node27</title>
<g id="a_node27"><a xlink:href="classpdal_1_1PluginManager.html#a3344bf0a8d35b309b26cb23ae5fa3579" target="_top" xlink:title="pdal::PluginManager\l::loadByPath">
<polygon fill="white" stroke="black" points="732,-241 732,-271 837,-271 837,-241 732,-241"/>
<text text-anchor="start" x="740" y="-259" font-family="Helvetica,sans-Serif" font-size="10.00">pdal::PluginManager</text>
<text text-anchor="middle" x="784.5" y="-248" font-family="Helvetica,sans-Serif" font-size="10.00">::loadByPath</text>
</a>
</g>
</g>
<!-- Node12&#45;&gt;Node27 -->
<g id="edge27" class="edge"><title>Node12&#45;&gt;Node27</title>
<path fill="none" stroke="midnightblue" d="M614.513,-177.024C633.057,-189.283 660.556,-206.549 686,-219 699.61,-225.66 714.74,-231.919 728.944,-237.329"/>
<polygon fill="midnightblue" stroke="midnightblue" points="728.006,-240.714 738.599,-240.932 730.454,-234.156 728.006,-240.714"/>
</g>
<!-- Node14&#45;&gt;Node13 -->
<g id="edge15" class="edge"><title>Node14&#45;&gt;Node13</title>
<path fill="none" stroke="midnightblue" d="M822.138,-484.093C848.696,-494.626 885.651,-508.454 919,-518 930.758,-521.366 943.529,-524.404 955.683,-527.013"/>
<polygon fill="midnightblue" stroke="midnightblue" points="955.208,-530.489 965.712,-529.102 956.635,-523.637 955.208,-530.489"/>
</g>
<!-- Node15 -->
<g id="node15" class="node"><title>Node15</title>
<g id="a_node15"><a xlink:href="namespacepdal_1_1Utils.html#a280847d8a85057a3cfe513abec5c6527" target="_top" xlink:title="pdal::Utils::getenv">
<polygon fill="white" stroke="black" points="963,-489.5 963,-508.5 1059,-508.5 1059,-489.5 963,-489.5"/>
<text text-anchor="middle" x="1011" y="-496.5" font-family="Helvetica,sans-Serif" font-size="10.00">pdal::Utils::getenv</text>
</a>
</g>
</g>
<!-- Node14&#45;&gt;Node15 -->
<g id="edge14" class="edge"><title>Node14&#45;&gt;Node15</title>
<path fill="none" stroke="midnightblue" d="M883.316,-482.071C907.077,-485.246 931.716,-488.539 952.877,-491.367"/>
<polygon fill="midnightblue" stroke="midnightblue" points="952.592,-494.86 962.967,-492.715 953.519,-487.921 952.592,-494.86"/>
</g>
<!-- Node16 -->
<g id="node16" class="node"><title>Node16</title>
<g id="a_node16"><a xlink:href="namespacepdal_1_1FileUtils.html#a538c47da3e98daa37d68b568ca849ac9" target="_top" xlink:title="pdal::FileUtils::toAbsolutePath">
<polygon fill="white" stroke="black" points="1139,-410.5 1139,-429.5 1288,-429.5 1288,-410.5 1139,-410.5"/>
<text text-anchor="middle" x="1213.5" y="-417.5" font-family="Helvetica,sans-Serif" font-size="10.00">pdal::FileUtils::toAbsolutePath</text>
</a>
</g>
</g>
<!-- Node14&#45;&gt;Node16 -->
<g id="edge16" class="edge"><title>Node14&#45;&gt;Node16</title>
<path fill="none" stroke="midnightblue" d="M883.277,-460.51C946.136,-454.715 1029.5,-446.403 1103,-437 1116.59,-435.262 1131.09,-433.175 1144.95,-431.068"/>
<polygon fill="midnightblue" stroke="midnightblue" points="1145.55,-434.517 1154.9,-429.535 1144.48,-427.598 1145.55,-434.517"/>
</g>
<!-- Node18 -->
<g id="node18" class="node"><title>Node18</title>
<g id="a_node18"><a xlink:href="namespacepdal_1_1anonymous__namespace_02FileUtils_8cpp_03.html#a813a530ad72d50f747643f1bb996cacf" target="_top" xlink:title="pdal::anonymous_namespace\l\{FileUtils::cpp\}::isStdin">
<polygon fill="white" stroke="black" points="938,-91 938,-121 1084,-121 1084,-91 938,-91"/>
<text text-anchor="start" x="946" y="-109" font-family="Helvetica,sans-Serif" font-size="10.00">pdal::anonymous_namespace</text>
<text text-anchor="middle" x="1011" y="-98" font-family="Helvetica,sans-Serif" font-size="10.00">{FileUtils::cpp}::isStdin</text>
</a>
</g>
</g>
<!-- Node17&#45;&gt;Node18 -->
<g id="edge18" class="edge"><title>Node17&#45;&gt;Node18</title>
<path fill="none" stroke="midnightblue" d="M846.253,-119.129C871.24,-117.126 900.573,-114.774 927.457,-112.618"/>
<polygon fill="midnightblue" stroke="midnightblue" points="927.938,-116.091 937.626,-111.803 927.378,-109.113 927.938,-116.091"/>
</g>
<!-- Node19 -->
<g id="node19" class="node"><title>Node19</title>
<g id="a_node19"><a xlink:href="namespacepdal_1_1Utils.html#a28e3e2faff94b20f9908e77bc54ed983" target="_top" xlink:title="pdal::Utils::toupper">
<polygon fill="white" stroke="black" points="1164,-96.5 1164,-115.5 1263,-115.5 1263,-96.5 1164,-96.5"/>
<text text-anchor="middle" x="1213.5" y="-103.5" font-family="Helvetica,sans-Serif" font-size="10.00">pdal::Utils::toupper</text>
</a>
</g>
</g>
<!-- Node18&#45;&gt;Node19 -->
<g id="edge19" class="edge"><title>Node18&#45;&gt;Node19</title>
<path fill="none" stroke="midnightblue" d="M1084.1,-106C1106.97,-106 1131.98,-106 1153.79,-106"/>
<polygon fill="midnightblue" stroke="midnightblue" points="1153.89,-109.5 1163.89,-106 1153.89,-102.5 1153.89,-109.5"/>
</g>
<!-- Node24 -->
<g id="node24" class="node"><title>Node24</title>
<g id="a_node24"><a xlink:href="namespacepdal_1_1FileUtils.html#a0d150fac3c099a0646763f1b862cac73" target="_top" xlink:title="pdal::FileUtils::getFilename">
<polygon fill="white" stroke="black" points="943,-178.5 943,-197.5 1079,-197.5 1079,-178.5 943,-178.5"/>
<text text-anchor="middle" x="1011" y="-185.5" font-family="Helvetica,sans-Serif" font-size="10.00">pdal::FileUtils::getFilename</text>
</a>
</g>
</g>
<!-- Node23&#45;&gt;Node24 -->
<g id="edge24" class="edge"><title>Node23&#45;&gt;Node24</title>
<path fill="none" stroke="midnightblue" d="M836.723,-197.262C865.1,-195.745 900.951,-193.829 932.671,-192.133"/>
<polygon fill="midnightblue" stroke="midnightblue" points="933.011,-195.62 942.81,-191.591 932.637,-188.63 933.011,-195.62"/>
</g>
<!-- Node26 -->
<g id="node26" class="node"><title>Node26</title>
<g id="a_node26"><a xlink:href="namespacepdal_1_1Utils.html#a5268937cf695835e55392f752dc02cb2" target="_top" xlink:title="pdal::Utils::tolower">
<polygon fill="white" stroke="black" points="962,-140.5 962,-159.5 1060,-159.5 1060,-140.5 962,-140.5"/>
<text text-anchor="middle" x="1011" y="-147.5" font-family="Helvetica,sans-Serif" font-size="10.00">pdal::Utils::tolower</text>
</a>
</g>
</g>
<!-- Node25&#45;&gt;Node26 -->
<g id="edge26" class="edge"><title>Node25&#45;&gt;Node26</title>
<path fill="none" stroke="midnightblue" d="M840.706,-159.049C874.356,-157.25 917.321,-154.954 951.547,-153.124"/>
<polygon fill="midnightblue" stroke="midnightblue" points="952.069,-156.602 961.868,-152.573 951.696,-149.612 952.069,-156.602"/>
</g>
<!-- Node27&#45;&gt;Node16 -->
<g id="edge35" class="edge"><title>Node27&#45;&gt;Node16</title>
<path fill="none" stroke="midnightblue" d="M793.739,-271.16C811.698,-302.456 857.719,-373.724 919,-403 988.693,-436.294 1078.55,-436.167 1140.37,-430.497"/>
<polygon fill="midnightblue" stroke="midnightblue" points="1140.82,-433.969 1150.43,-429.503 1140.14,-427.003 1140.82,-433.969"/>
</g>
<!-- Node27&#45;&gt;Node24 -->
<g id="edge29" class="edge"><title>Node27&#45;&gt;Node24</title>
<path fill="none" stroke="midnightblue" d="M824.445,-240.989C856.992,-228.577 900.902,-212.181 919,-207 928.213,-204.363 938.047,-201.927 947.719,-199.741"/>
<polygon fill="midnightblue" stroke="midnightblue" points="948.686,-203.112 957.707,-197.555 947.19,-196.274 948.686,-203.112"/>
</g>
<!-- Node27&#45;&gt;Node26 -->
<g id="edge28" class="edge"><title>Node27&#45;&gt;Node26</title>
<path fill="none" stroke="midnightblue" d="M837.251,-242.662C852.947,-237.022 869.572,-229.308 883,-219 904.72,-202.325 896.04,-183.922 919,-169 928.734,-162.674 940.182,-158.403 951.613,-155.531"/>
<polygon fill="midnightblue" stroke="midnightblue" points="952.585,-158.902 961.61,-153.352 951.093,-152.062 952.585,-158.902"/>
</g>
<!-- Node28 -->
<g id="node28" class="node"><title>Node28</title>
<g id="a_node28"><a xlink:href="namespacepdal_1_1anonymous__namespace_02PluginManager_8cpp_03.html#a96b6f972ce14621acdc2ef6579cab857" target="_top" xlink:title="pdal::anonymous_namespace\l\{PluginManager::cpp\}::pluginTypeValid">
<polygon fill="white" stroke="black" points="919,-266 919,-296 1103,-296 1103,-266 919,-266"/>
<text text-anchor="start" x="927" y="-284" font-family="Helvetica,sans-Serif" font-size="10.00">pdal::anonymous_namespace</text>
<text text-anchor="middle" x="1011" y="-273" font-family="Helvetica,sans-Serif" font-size="10.00">{PluginManager::cpp}::pluginTypeValid</text>
</a>
</g>
</g>
<!-- Node27&#45;&gt;Node28 -->
<g id="edge30" class="edge"><title>Node27&#45;&gt;Node28</title>
<path fill="none" stroke="midnightblue" d="M837.005,-261.736C858.281,-264.105 883.724,-266.938 908.466,-269.693"/>
<polygon fill="midnightblue" stroke="midnightblue" points="908.315,-273.198 918.64,-270.826 909.089,-266.241 908.315,-273.198"/>
</g>
<!-- Node30 -->
<g id="node30" class="node"><title>Node30</title>
<g id="a_node30"><a xlink:href="classpdal_1_1PluginManager.html#a05f55dd74e4883b9a8bca6ebbadda5bd" target="_top" xlink:title="pdal::PluginManager\l::libraryLoaded">
<polygon fill="white" stroke="black" points="958.5,-364 958.5,-394 1063.5,-394 1063.5,-364 958.5,-364"/>
<text text-anchor="start" x="966.5" y="-382" font-family="Helvetica,sans-Serif" font-size="10.00">pdal::PluginManager</text>
<text text-anchor="middle" x="1011" y="-371" font-family="Helvetica,sans-Serif" font-size="10.00">::libraryLoaded</text>
</a>
</g>
</g>
<!-- Node27&#45;&gt;Node30 -->
<g id="edge32" class="edge"><title>Node27&#45;&gt;Node30</title>
<path fill="none" stroke="midnightblue" d="M801.894,-271.18C825.863,-292.602 872.673,-331.583 919,-354 928.276,-358.489 938.488,-362.281 948.615,-365.448"/>
<polygon fill="midnightblue" stroke="midnightblue" points="947.683,-368.822 958.265,-368.295 949.664,-362.108 947.683,-368.822"/>
</g>
<!-- Node32 -->
<g id="node32" class="node"><title>Node32</title>
<g id="a_node32"><a xlink:href="classpdal_1_1PluginManager.html#a37dc2ebab8261695d3d42038046cd5e4" target="_top" xlink:title="pdal::PluginManager\l::loadLibrary">
<polygon fill="white" stroke="black" points="958.5,-315 958.5,-345 1063.5,-345 1063.5,-315 958.5,-315"/>
<text text-anchor="start" x="966.5" y="-333" font-family="Helvetica,sans-Serif" font-size="10.00">pdal::PluginManager</text>
<text text-anchor="middle" x="1011" y="-322" font-family="Helvetica,sans-Serif" font-size="10.00">::loadLibrary</text>
</a>
</g>
</g>
<!-- Node27&#45;&gt;Node32 -->
<g id="edge36" class="edge"><title>Node27&#45;&gt;Node32</title>
<path fill="none" stroke="midnightblue" d="M823.762,-271.011C850.294,-281.181 886.553,-294.608 919,-305 928.479,-308.036 938.584,-311.039 948.483,-313.853"/>
<polygon fill="midnightblue" stroke="midnightblue" points="947.71,-317.271 958.284,-316.599 949.599,-310.531 947.71,-317.271"/>
</g>
<!-- Node35 -->
<g id="node35" class="node"><title>Node35</title>
<g id="a_node35"><a xlink:href="classpdal_1_1PluginManager.html#ae9e94964092e0fdb6be63484e5e69e9f" target="_top" xlink:title="pdal::PluginManager\l::initializePlugin">
<polygon fill="white" stroke="black" points="958.5,-217 958.5,-247 1063.5,-247 1063.5,-217 958.5,-217"/>
<text text-anchor="start" x="966.5" y="-235" font-family="Helvetica,sans-Serif" font-size="10.00">pdal::PluginManager</text>
<text text-anchor="middle" x="1011" y="-224" font-family="Helvetica,sans-Serif" font-size="10.00">::initializePlugin</text>
</a>
</g>
</g>
<!-- Node27&#45;&gt;Node35 -->
<g id="edge40" class="edge"><title>Node27&#45;&gt;Node35</title>
<path fill="none" stroke="midnightblue" d="M837.005,-250.494C870.113,-246.955 913.311,-242.337 948.257,-238.601"/>
<polygon fill="midnightblue" stroke="midnightblue" points="948.775,-242.065 958.347,-237.522 948.031,-235.105 948.775,-242.065"/>
</g>
<!-- Node29 -->
<g id="node29" class="node"><title>Node29</title>
<g id="a_node29"><a xlink:href="namespacepdal_1_1Utils.html#a28e27948fb8a4c1d958783d8a53bd784" target="_top" xlink:title="pdal::Utils::startsWith">
<polygon fill="white" stroke="black" points="1157.5,-271.5 1157.5,-290.5 1269.5,-290.5 1269.5,-271.5 1157.5,-271.5"/>
<text text-anchor="middle" x="1213.5" y="-278.5" font-family="Helvetica,sans-Serif" font-size="10.00">pdal::Utils::startsWith</text>
</a>
</g>
</g>
<!-- Node28&#45;&gt;Node29 -->
<g id="edge31" class="edge"><title>Node28&#45;&gt;Node29</title>
<path fill="none" stroke="midnightblue" d="M1103.16,-281C1118.06,-281 1133.23,-281 1147.34,-281"/>
<polygon fill="midnightblue" stroke="midnightblue" points="1147.4,-284.5 1157.4,-281 1147.4,-277.5 1147.4,-284.5"/>
</g>
<!-- Node30&#45;&gt;Node16 -->
<g id="edge33" class="edge"><title>Node30&#45;&gt;Node16</title>
<path fill="none" stroke="midnightblue" d="M1063.63,-389.559C1091.86,-395.331 1126.88,-402.492 1155.86,-408.418"/>
<polygon fill="midnightblue" stroke="midnightblue" points="1155.34,-411.884 1165.84,-410.458 1156.74,-405.026 1155.34,-411.884"/>
</g>
<!-- Node31 -->
<g id="node31" class="node"><title>Node31</title>
<g id="a_node31"><a xlink:href="namespacepdal_1_1Utils.html#a3e140e4c0c21d020c56c0b8d58b8cb5b" target="_top" xlink:title="pdal::Utils::contains">
<polygon fill="white" stroke="black" points="1161.5,-369.5 1161.5,-388.5 1265.5,-388.5 1265.5,-369.5 1161.5,-369.5"/>
<text text-anchor="middle" x="1213.5" y="-376.5" font-family="Helvetica,sans-Serif" font-size="10.00">pdal::Utils::contains</text>
</a>
</g>
</g>
<!-- Node30&#45;&gt;Node31 -->
<g id="edge34" class="edge"><title>Node30&#45;&gt;Node31</title>
<path fill="none" stroke="midnightblue" d="M1063.63,-379C1090.4,-379 1123.26,-379 1151.3,-379"/>
<polygon fill="midnightblue" stroke="midnightblue" points="1151.39,-382.5 1161.39,-379 1151.39,-375.5 1151.39,-382.5"/>
</g>
<!-- Node32&#45;&gt;Node16 -->
<g id="edge39" class="edge"><title>Node32&#45;&gt;Node16</title>
<path fill="none" stroke="midnightblue" d="M1063.93,-337.765C1077.36,-341.319 1091.32,-346.488 1103,-354 1124.25,-367.666 1117.98,-383.986 1139,-398 1144.24,-401.491 1150.04,-404.442 1156.03,-406.935"/>
<polygon fill="midnightblue" stroke="midnightblue" points="1154.95,-410.265 1165.54,-410.486 1157.4,-403.708 1154.95,-410.265"/>
</g>
<!-- Node33 -->
<g id="node33" class="node"><title>Node33</title>
<g id="a_node33"><a xlink:href="classpdal_1_1DynamicLibrary.html#afa96ce1595f15fb125e13c827902f030" target="_top" xlink:title="pdal::DynamicLibrary\l::load">
<polygon fill="white" stroke="black" points="1159,-315 1159,-345 1268,-345 1268,-315 1159,-315"/>
<text text-anchor="start" x="1167" y="-333" font-family="Helvetica,sans-Serif" font-size="10.00">pdal::DynamicLibrary</text>
<text text-anchor="middle" x="1213.5" y="-322" font-family="Helvetica,sans-Serif" font-size="10.00">::load</text>
</a>
</g>
</g>
<!-- Node32&#45;&gt;Node33 -->
<g id="edge37" class="edge"><title>Node32&#45;&gt;Node33</title>
<path fill="none" stroke="midnightblue" d="M1063.63,-330C1089.56,-330 1121.21,-330 1148.65,-330"/>
<polygon fill="midnightblue" stroke="midnightblue" points="1148.94,-333.5 1158.94,-330 1148.94,-326.5 1148.94,-333.5"/>
</g>
<!-- Node34 -->
<g id="node34" class="node"><title>Node34</title>
<g id="a_node34"><a xlink:href="classpdal_1_1DynamicLibrary.html#a48b54a6222a25732cc80500f52f3e618" target="_top" xlink:title="pdal::DynamicLibrary\l::DynamicLibrary">
<polygon fill="white" stroke="black" points="1324,-315 1324,-345 1433,-345 1433,-315 1324,-315"/>
<text text-anchor="start" x="1332" y="-333" font-family="Helvetica,sans-Serif" font-size="10.00">pdal::DynamicLibrary</text>
<text text-anchor="middle" x="1378.5" y="-322" font-family="Helvetica,sans-Serif" font-size="10.00">::DynamicLibrary</text>
</a>
</g>
</g>
<!-- Node33&#45;&gt;Node34 -->
<g id="edge38" class="edge"><title>Node33&#45;&gt;Node34</title>
<path fill="none" stroke="midnightblue" d="M1268.32,-330C1282.79,-330 1298.58,-330 1313.53,-330"/>
<polygon fill="midnightblue" stroke="midnightblue" points="1313.73,-333.5 1323.73,-330 1313.73,-326.5 1313.73,-333.5"/>
</g>
<!-- Node36 -->
<g id="node36" class="node"><title>Node36</title>
<g id="a_node36"><a xlink:href="classpdal_1_1PluginManager.html#a8a847508c24b6a254ae8eaba06c0069a" target="_top" xlink:title="pdal::PluginManager\l::l_initializePlugin">
<polygon fill="white" stroke="black" points="1161,-217 1161,-247 1266,-247 1266,-217 1161,-217"/>
<text text-anchor="start" x="1169" y="-235" font-family="Helvetica,sans-Serif" font-size="10.00">pdal::PluginManager</text>
<text text-anchor="middle" x="1213.5" y="-224" font-family="Helvetica,sans-Serif" font-size="10.00">::l_initializePlugin</text>
</a>
</g>
</g>
<!-- Node35&#45;&gt;Node36 -->
<g id="edge41" class="edge"><title>Node35&#45;&gt;Node36</title>
<path fill="none" stroke="midnightblue" d="M1063.63,-232C1090.19,-232 1122.76,-232 1150.65,-232"/>
<polygon fill="midnightblue" stroke="midnightblue" points="1150.69,-235.5 1160.69,-232 1150.69,-228.5 1150.69,-235.5"/>
</g>
<!-- Node38 -->
<g id="node38" class="node"><title>Node38</title>
<g id="a_node38"><a xlink:href="namespaceTestConfig.html#a0e622015f0610c2cfcbb3739b972d877" target="_top" xlink:title="TestConfig::dataPath">
<polygon fill="white" stroke="black" points="238.5,-108.5 238.5,-127.5 348.5,-127.5 348.5,-108.5 238.5,-108.5"/>
<text text-anchor="middle" x="293.5" y="-115.5" font-family="Helvetica,sans-Serif" font-size="10.00">TestConfig::dataPath</text>
</a>
</g>
</g>
<!-- Node37&#45;&gt;Node38 -->
<g id="edge43" class="edge"><title>Node37&#45;&gt;Node38</title>
<path fill="none" stroke="midnightblue" d="M184.705,-118C198.454,-118 213.772,-118 228.444,-118"/>
<polygon fill="midnightblue" stroke="midnightblue" points="228.471,-121.5 238.471,-118 228.471,-114.5 228.471,-121.5"/>
</g>
</g>
</svg>
