<?xml version="1.0" encoding="UTF-8" standalone="no"?>
<!DOCTYPE svg PUBLIC "-//W3C//DTD SVG 1.1//EN"
 "http://www.w3.org/Graphics/SVG/1.1/DTD/svg11.dtd">
<!-- Generated by graphviz version 2.38.0 (20140413.2041)
 -->
<!-- Title: TEST Pages: 1 -->
<svg width="473pt" height="236pt"
 viewBox="0.00 0.00 473.00 236.00" xmlns="http://www.w3.org/2000/svg" xmlns:xlink="http://www.w3.org/1999/xlink">
<g id="graph0" class="graph" transform="scale(1 1) rotate(0) translate(4 232)">
<title>TEST</title>
<polygon fill="white" stroke="none" points="-4,4 -4,-232 469,-232 469,4 -4,4"/>
<!-- Node1 -->
<g id="node1" class="node"><title>Node1</title>
<polygon fill="#bfbfbf" stroke="black" points="0,-120.5 0,-139.5 42,-139.5 42,-120.5 0,-120.5"/>
<text text-anchor="middle" x="21" y="-127.5" font-family="Helvetica,sans-Serif" font-size="10.00">TEST</text>
</g>
<!-- Node2 -->
<g id="node2" class="node"><title>Node2</title>
<g id="a_node2"><a xlink:href="classpdal_1_1MetadataNode.html#af2c1c5d91f6ab47a804aa8a0a1b043c2" target="_top" xlink:title="pdal::MetadataNode::add">
<polygon fill="white" stroke="black" points="218,-208.5 218,-227.5 344,-227.5 344,-208.5 218,-208.5"/>
<text text-anchor="middle" x="281" y="-215.5" font-family="Helvetica,sans-Serif" font-size="10.00">pdal::MetadataNode::add</text>
</a>
</g>
</g>
<!-- Node1&#45;&gt;Node2 -->
<g id="edge1" class="edge"><title>Node1&#45;&gt;Node2</title>
<path fill="none" stroke="midnightblue" d="M26.5963,-139.618C34.6018,-155.17 52.6996,-185.459 78,-199 117.366,-220.069 167.273,-224.931 207.63,-224.471"/>
<polygon fill="midnightblue" stroke="midnightblue" points="207.754,-227.969 217.673,-224.246 207.597,-220.971 207.754,-227.969"/>
</g>
<!-- Node3 -->
<g id="node3" class="node"><title>Node3</title>
<g id="a_node3"><a xlink:href="classpdal_1_1MetadataNode.html#a5f0ad468dcce89e60406eb00e4b0b543" target="_top" xlink:title="pdal::MetadataNode\l::addEncoded">
<polygon fill="white" stroke="black" points="78,-159 78,-189 182,-189 182,-159 78,-159"/>
<text text-anchor="start" x="86" y="-177" font-family="Helvetica,sans-Serif" font-size="10.00">pdal::MetadataNode</text>
<text text-anchor="middle" x="130" y="-166" font-family="Helvetica,sans-Serif" font-size="10.00">::addEncoded</text>
</a>
</g>
</g>
<!-- Node1&#45;&gt;Node3 -->
<g id="edge2" class="edge"><title>Node1&#45;&gt;Node3</title>
<path fill="none" stroke="midnightblue" d="M42.1259,-138.276C53.7463,-143.055 68.8642,-149.271 83.2239,-155.176"/>
<polygon fill="midnightblue" stroke="midnightblue" points="81.9266,-158.427 92.5063,-158.993 84.5889,-151.953 81.9266,-158.427"/>
</g>
<!-- Node5 -->
<g id="node5" class="node"><title>Node5</title>
<g id="a_node5"><a xlink:href="namespacepdal_1_1Utils.html#a0a07c17ead470019c9fa6dc3c1e20ab7" target="_top" xlink:title="pdal::Utils::redirect">
<polygon fill="white" stroke="black" points="80.5,-120.5 80.5,-139.5 179.5,-139.5 179.5,-120.5 80.5,-120.5"/>
<text text-anchor="middle" x="130" y="-127.5" font-family="Helvetica,sans-Serif" font-size="10.00">pdal::Utils::redirect</text>
</a>
</g>
</g>
<!-- Node1&#45;&gt;Node5 -->
<g id="edge5" class="edge"><title>Node1&#45;&gt;Node5</title>
<path fill="none" stroke="midnightblue" d="M42.1259,-130C50.2077,-130 59.9812,-130 70.0148,-130"/>
<polygon fill="midnightblue" stroke="midnightblue" points="70.0821,-133.5 80.082,-130 70.082,-126.5 70.0821,-133.5"/>
</g>
<!-- Node6 -->
<g id="node6" class="node"><title>Node6</title>
<g id="a_node6"><a xlink:href="namespacepdal_1_1Utils.html#afaf69cf8486fa4f78ad6f1ae518435f9" target="_top" xlink:title="pdal::Utils::restore">
<polygon fill="white" stroke="black" points="81.5,-82.5 81.5,-101.5 178.5,-101.5 178.5,-82.5 81.5,-82.5"/>
<text text-anchor="middle" x="130" y="-89.5" font-family="Helvetica,sans-Serif" font-size="10.00">pdal::Utils::restore</text>
</a>
</g>
</g>
<!-- Node1&#45;&gt;Node6 -->
<g id="edge6" class="edge"><title>Node1&#45;&gt;Node6</title>
<path fill="none" stroke="midnightblue" d="M42.1259,-122.852C56.2955,-117.82 75.6655,-110.941 92.5198,-104.956"/>
<polygon fill="midnightblue" stroke="midnightblue" points="93.8423,-108.2 102.094,-101.555 91.4996,-101.604 93.8423,-108.2"/>
</g>
<!-- Node7 -->
<g id="node7" class="node"><title>Node7</title>
<g id="a_node7"><a xlink:href="classpdal_1_1MetadataNode.html#ab5c86ccff7ced090522b31cdc6c772b6" target="_top" xlink:title="pdal::MetadataNode\l::value">
<polygon fill="white" stroke="black" points="78,-33 78,-63 182,-63 182,-33 78,-33"/>
<text text-anchor="start" x="86" y="-51" font-family="Helvetica,sans-Serif" font-size="10.00">pdal::MetadataNode</text>
<text text-anchor="middle" x="130" y="-40" font-family="Helvetica,sans-Serif" font-size="10.00">::value</text>
</a>
</g>
</g>
<!-- Node1&#45;&gt;Node7 -->
<g id="edge7" class="edge"><title>Node1&#45;&gt;Node7</title>
<path fill="none" stroke="midnightblue" d="M29.8811,-120.126C40.0222,-107.893 58.6499,-86.9611 78,-73 80.3615,-71.2962 82.8568,-69.6528 85.4237,-68.0785"/>
<polygon fill="midnightblue" stroke="midnightblue" points="87.3769,-70.994 94.336,-63.0052 83.9139,-64.9106 87.3769,-70.994"/>
</g>
<!-- Node3&#45;&gt;Node2 -->
<g id="edge3" class="edge"><title>Node3&#45;&gt;Node2</title>
<path fill="none" stroke="midnightblue" d="M181.861,-189.019C200.043,-194.388 220.321,-200.377 237.703,-205.51"/>
<polygon fill="midnightblue" stroke="midnightblue" points="236.983,-208.946 247.564,-208.422 238.965,-202.233 236.983,-208.946"/>
</g>
<!-- Node4 -->
<g id="node4" class="node"><title>Node4</title>
<g id="a_node4"><a xlink:href="namespacepdal_1_1Utils.html#ab908ea72a2a7d385cbbab68939d1c1a2" target="_top" xlink:title="pdal::Utils::base64\l_encode">
<polygon fill="white" stroke="black" points="232,-159 232,-189 330,-189 330,-159 232,-159"/>
<text text-anchor="start" x="240" y="-177" font-family="Helvetica,sans-Serif" font-size="10.00">pdal::Utils::base64</text>
<text text-anchor="middle" x="281" y="-166" font-family="Helvetica,sans-Serif" font-size="10.00">_encode</text>
</a>
</g>
</g>
<!-- Node3&#45;&gt;Node4 -->
<g id="edge4" class="edge"><title>Node3&#45;&gt;Node4</title>
<path fill="none" stroke="midnightblue" d="M182.277,-174C194.898,-174 208.506,-174 221.442,-174"/>
<polygon fill="midnightblue" stroke="midnightblue" points="221.64,-177.5 231.64,-174 221.64,-170.5 221.64,-177.5"/>
</g>
<!-- Node8 -->
<g id="node8" class="node"><title>Node8</title>
<g id="a_node8"><a xlink:href="namespacepdal_1_1Utils.html#aab74b31905c5d41eaca70a73675bf407" target="_top" xlink:title="pdal::Utils::base64\l_decode">
<polygon fill="white" stroke="black" points="232,-77 232,-107 330,-107 330,-77 232,-77"/>
<text text-anchor="start" x="240" y="-95" font-family="Helvetica,sans-Serif" font-size="10.00">pdal::Utils::base64</text>
<text text-anchor="middle" x="281" y="-84" font-family="Helvetica,sans-Serif" font-size="10.00">_decode</text>
</a>
</g>
</g>
<!-- Node7&#45;&gt;Node8 -->
<g id="edge8" class="edge"><title>Node7&#45;&gt;Node8</title>
<path fill="none" stroke="midnightblue" d="M181.861,-63.0192C194.759,-66.8282 208.713,-70.9487 221.939,-74.8543"/>
<polygon fill="midnightblue" stroke="midnightblue" points="221.299,-78.3149 231.881,-77.7904 223.282,-71.6015 221.299,-78.3149"/>
</g>
<!-- Node10 -->
<g id="node10" class="node"><title>Node10</title>
<g id="a_node10"><a xlink:href="namespacepdal_1_1Utils.html#ab93520363c4224f135097c2829b4420c" target="_top" xlink:title="pdal::Utils::fromString">
<polygon fill="white" stroke="black" points="225,-38.5 225,-57.5 337,-57.5 337,-38.5 225,-38.5"/>
<text text-anchor="middle" x="281" y="-45.5" font-family="Helvetica,sans-Serif" font-size="10.00">pdal::Utils::fromString</text>
</a>
</g>
</g>
<!-- Node7&#45;&gt;Node10 -->
<g id="edge10" class="edge"><title>Node7&#45;&gt;Node10</title>
<path fill="none" stroke="midnightblue" d="M182.277,-48C192.676,-48 203.744,-48 214.555,-48"/>
<polygon fill="midnightblue" stroke="midnightblue" points="214.811,-51.5001 224.811,-48 214.811,-44.5001 214.811,-51.5001"/>
</g>
<!-- Node11 -->
<g id="node11" class="node"><title>Node11</title>
<g id="a_node11"><a xlink:href="namespacepdal_1_1Dimension.html#af3176b0b7e6b4be000317846cf7c2718" target="_top" xlink:title="pdal::Dimension::name">
<polygon fill="white" stroke="black" points="222.5,-0.5 222.5,-19.5 339.5,-19.5 339.5,-0.5 222.5,-0.5"/>
<text text-anchor="middle" x="281" y="-7.5" font-family="Helvetica,sans-Serif" font-size="10.00">pdal::Dimension::name</text>
</a>
</g>
</g>
<!-- Node7&#45;&gt;Node11 -->
<g id="edge11" class="edge"><title>Node7&#45;&gt;Node11</title>
<path fill="none" stroke="midnightblue" d="M182.277,-34.9226C198.729,-30.7267 216.86,-26.1028 232.991,-21.9889"/>
<polygon fill="midnightblue" stroke="midnightblue" points="233.918,-25.3644 242.743,-19.5017 232.189,-18.5816 233.918,-25.3644"/>
</g>
<!-- Node9 -->
<g id="node9" class="node"><title>Node9</title>
<g id="a_node9"><a xlink:href="namespacepdal.html#a4d7dbf8f97121c52d3b891ad9e944094" target="_top" xlink:title="pdal::is_base64">
<polygon fill="white" stroke="black" points="380,-82.5 380,-101.5 465,-101.5 465,-82.5 380,-82.5"/>
<text text-anchor="middle" x="422.5" y="-89.5" font-family="Helvetica,sans-Serif" font-size="10.00">pdal::is_base64</text>
</a>
</g>
</g>
<!-- Node8&#45;&gt;Node9 -->
<g id="edge9" class="edge"><title>Node8&#45;&gt;Node9</title>
<path fill="none" stroke="midnightblue" d="M330.008,-92C342.819,-92 356.717,-92 369.721,-92"/>
<polygon fill="midnightblue" stroke="midnightblue" points="369.92,-95.5001 379.92,-92 369.92,-88.5001 369.92,-95.5001"/>
</g>
</g>
</svg>
