<?xml version="1.0" encoding="UTF-8" standalone="no"?>
<!DOCTYPE svg PUBLIC "-//W3C//DTD SVG 1.1//EN"
 "http://www.w3.org/Graphics/SVG/1.1/DTD/svg11.dtd">
<!-- Generated by graphviz version 2.38.0 (20140413.2041)
 -->
<!-- Title: TEST Pages: 1 -->
<svg width="486pt" height="154pt"
 viewBox="0.00 0.00 486.00 154.00" xmlns="http://www.w3.org/2000/svg" xmlns:xlink="http://www.w3.org/1999/xlink">
<g id="graph0" class="graph" transform="scale(1 1) rotate(0) translate(4 150)">
<title>TEST</title>
<polygon fill="white" stroke="none" points="-4,4 -4,-150 482,-150 482,4 -4,4"/>
<!-- Node1 -->
<g id="node1" class="node"><title>Node1</title>
<polygon fill="#bfbfbf" stroke="black" points="0,-88.5 0,-107.5 42,-107.5 42,-88.5 0,-88.5"/>
<text text-anchor="middle" x="21" y="-95.5" font-family="Helvetica,sans-Serif" font-size="10.00">TEST</text>
</g>
<!-- Node2 -->
<g id="node2" class="node"><title>Node2</title>
<g id="a_node2"><a xlink:href="classpdal_1_1MetadataNode.html#af2c1c5d91f6ab47a804aa8a0a1b043c2" target="_top" xlink:title="pdal::MetadataNode::add">
<polygon fill="white" stroke="black" points="78,-126.5 78,-145.5 204,-145.5 204,-126.5 78,-126.5"/>
<text text-anchor="middle" x="141" y="-133.5" font-family="Helvetica,sans-Serif" font-size="10.00">pdal::MetadataNode::add</text>
</a>
</g>
</g>
<!-- Node1&#45;&gt;Node2 -->
<g id="edge1" class="edge"><title>Node1&#45;&gt;Node2</title>
<path fill="none" stroke="midnightblue" d="M42.0171,-104.446C57.9922,-109.591 80.8689,-116.958 100.5,-123.28"/>
<polygon fill="midnightblue" stroke="midnightblue" points="99.532,-126.645 110.124,-126.379 101.678,-119.982 99.532,-126.645"/>
</g>
<!-- Node3 -->
<g id="node3" class="node"><title>Node3</title>
<g id="a_node3"><a xlink:href="namespacepdal_1_1Utils.html#ab93520363c4224f135097c2829b4420c" target="_top" xlink:title="pdal::Utils::fromString">
<polygon fill="white" stroke="black" points="242.5,-88.5 242.5,-107.5 354.5,-107.5 354.5,-88.5 242.5,-88.5"/>
<text text-anchor="middle" x="298.5" y="-95.5" font-family="Helvetica,sans-Serif" font-size="10.00">pdal::Utils::fromString</text>
</a>
</g>
</g>
<!-- Node1&#45;&gt;Node3 -->
<g id="edge2" class="edge"><title>Node1&#45;&gt;Node3</title>
<path fill="none" stroke="midnightblue" d="M42.2582,-98C81.7503,-98 170.558,-98 232.243,-98"/>
<polygon fill="midnightblue" stroke="midnightblue" points="232.28,-101.5 242.28,-98 232.28,-94.5001 232.28,-101.5"/>
</g>
<!-- Node4 -->
<g id="node4" class="node"><title>Node4</title>
<g id="a_node4"><a xlink:href="classpdal_1_1MetadataNode.html#ab5c86ccff7ced090522b31cdc6c772b6" target="_top" xlink:title="pdal::MetadataNode\l::value">
<polygon fill="white" stroke="black" points="89,-39 89,-69 193,-69 193,-39 89,-39"/>
<text text-anchor="start" x="97" y="-57" font-family="Helvetica,sans-Serif" font-size="10.00">pdal::MetadataNode</text>
<text text-anchor="middle" x="141" y="-46" font-family="Helvetica,sans-Serif" font-size="10.00">::value</text>
</a>
</g>
</g>
<!-- Node1&#45;&gt;Node4 -->
<g id="edge3" class="edge"><title>Node1&#45;&gt;Node4</title>
<path fill="none" stroke="midnightblue" d="M42.0171,-90.536C55.099,-85.658 72.8091,-79.0542 89.5752,-72.8025"/>
<polygon fill="midnightblue" stroke="midnightblue" points="91.1486,-75.9512 99.2956,-69.1779 88.7029,-69.3924 91.1486,-75.9512"/>
</g>
<!-- Node4&#45;&gt;Node3 -->
<g id="edge6" class="edge"><title>Node4&#45;&gt;Node3</title>
<path fill="none" stroke="midnightblue" d="M193.347,-68.5292C212.994,-74.0884 235.193,-80.3697 254.034,-85.7008"/>
<polygon fill="midnightblue" stroke="midnightblue" points="253.257,-89.1184 263.832,-88.4734 255.163,-82.3829 253.257,-89.1184"/>
</g>
<!-- Node5 -->
<g id="node5" class="node"><title>Node5</title>
<g id="a_node5"><a xlink:href="namespacepdal_1_1Utils.html#aab74b31905c5d41eaca70a73675bf407" target="_top" xlink:title="pdal::Utils::base64\l_decode">
<polygon fill="white" stroke="black" points="249.5,-39 249.5,-69 347.5,-69 347.5,-39 249.5,-39"/>
<text text-anchor="start" x="257.5" y="-57" font-family="Helvetica,sans-Serif" font-size="10.00">pdal::Utils::base64</text>
<text text-anchor="middle" x="298.5" y="-46" font-family="Helvetica,sans-Serif" font-size="10.00">_decode</text>
</a>
</g>
</g>
<!-- Node4&#45;&gt;Node5 -->
<g id="edge4" class="edge"><title>Node4&#45;&gt;Node5</title>
<path fill="none" stroke="midnightblue" d="M193.347,-54C208.01,-54 224.095,-54 239.144,-54"/>
<polygon fill="midnightblue" stroke="midnightblue" points="239.367,-57.5001 249.367,-54 239.367,-50.5001 239.367,-57.5001"/>
</g>
<!-- Node7 -->
<g id="node7" class="node"><title>Node7</title>
<g id="a_node7"><a xlink:href="namespacepdal_1_1Dimension.html#af3176b0b7e6b4be000317846cf7c2718" target="_top" xlink:title="pdal::Dimension::name">
<polygon fill="white" stroke="black" points="240,-0.5 240,-19.5 357,-19.5 357,-0.5 240,-0.5"/>
<text text-anchor="middle" x="298.5" y="-7.5" font-family="Helvetica,sans-Serif" font-size="10.00">pdal::Dimension::name</text>
</a>
</g>
</g>
<!-- Node4&#45;&gt;Node7 -->
<g id="edge7" class="edge"><title>Node4&#45;&gt;Node7</title>
<path fill="none" stroke="midnightblue" d="M193.347,-39.4708C212.994,-33.9116 235.193,-27.6303 254.034,-22.2992"/>
<polygon fill="midnightblue" stroke="midnightblue" points="255.163,-25.6171 263.832,-19.5266 253.257,-18.8816 255.163,-25.6171"/>
</g>
<!-- Node6 -->
<g id="node6" class="node"><title>Node6</title>
<g id="a_node6"><a xlink:href="namespacepdal.html#a4d7dbf8f97121c52d3b891ad9e944094" target="_top" xlink:title="pdal::is_base64">
<polygon fill="white" stroke="black" points="393,-44.5 393,-63.5 478,-63.5 478,-44.5 393,-44.5"/>
<text text-anchor="middle" x="435.5" y="-51.5" font-family="Helvetica,sans-Serif" font-size="10.00">pdal::is_base64</text>
</a>
</g>
</g>
<!-- Node5&#45;&gt;Node6 -->
<g id="edge5" class="edge"><title>Node5&#45;&gt;Node6</title>
<path fill="none" stroke="midnightblue" d="M347.857,-54C359.094,-54 371.104,-54 382.491,-54"/>
<polygon fill="midnightblue" stroke="midnightblue" points="382.734,-57.5001 392.734,-54 382.734,-50.5001 382.734,-57.5001"/>
</g>
</g>
</svg>
