<?xml version="1.0" encoding="UTF-8" standalone="no"?>
<!DOCTYPE svg PUBLIC "-//W3C//DTD SVG 1.1//EN"
 "http://www.w3.org/Graphics/SVG/1.1/DTD/svg11.dtd">
<!-- Generated by graphviz version 2.38.0 (20140413.2041)
 -->
<!-- Title: pdal::pclsupport::setValues Pages: 1 -->
<svg width="511pt" height="230pt"
 viewBox="0.00 0.00 511.00 230.00" xmlns="http://www.w3.org/2000/svg" xmlns:xlink="http://www.w3.org/1999/xlink">
<g id="graph0" class="graph" transform="scale(1 1) rotate(0) translate(4 226)">
<title>pdal::pclsupport::setValues</title>
<polygon fill="white" stroke="none" points="-4,4 -4,-226 507,-226 507,4 -4,4"/>
<!-- Node1 -->
<g id="node1" class="node"><title>Node1</title>
<polygon fill="#bfbfbf" stroke="black" points="0,-98.5 0,-117.5 135,-117.5 135,-98.5 0,-98.5"/>
<text text-anchor="middle" x="67.5" y="-105.5" font-family="Helvetica,sans-Serif" font-size="10.00">pdal::pclsupport::setValues</text>
</g>
<!-- Node2 -->
<g id="node2" class="node"><title>Node2</title>
<g id="a_node2"><a xlink:href="namespacepdal_1_1pclsupport.html#a6b2c6f96f8219e030d2ec6c9c1ec2697" target="_top" xlink:title="Convert PCD point cloud to PDAL. ">
<polygon fill="white" stroke="black" points="171,-98.5 171,-117.5 319,-117.5 319,-98.5 171,-98.5"/>
<text text-anchor="middle" x="245" y="-105.5" font-family="Helvetica,sans-Serif" font-size="10.00">pdal::pclsupport::PCDtoPDAL</text>
</a>
</g>
</g>
<!-- Node1&#45;&gt;Node2 -->
<g id="edge1" class="edge"><title>Node1&#45;&gt;Node2</title>
<path fill="none" stroke="midnightblue" d="M145.106,-108C153.705,-108 162.448,-108 170.999,-108"/>
<polygon fill="midnightblue" stroke="midnightblue" points="145.099,-104.5 135.099,-108 145.099,-111.5 145.099,-104.5"/>
</g>
<!-- Node3 -->
<g id="node3" class="node"><title>Node3</title>
<g id="a_node3"><a xlink:href="namespacepdal_1_1pclsupport.html#a0d4a7fc56c19424605bad7cd3497e075" target="_top" xlink:title="pdal::pclsupport::PCDtoPDAL">
<polygon fill="white" stroke="black" points="355,-202.5 355,-221.5 503,-221.5 503,-202.5 355,-202.5"/>
<text text-anchor="middle" x="429" y="-209.5" font-family="Helvetica,sans-Serif" font-size="10.00">pdal::pclsupport::PCDtoPDAL</text>
</a>
</g>
</g>
<!-- Node2&#45;&gt;Node3 -->
<g id="edge2" class="edge"><title>Node2&#45;&gt;Node3</title>
<path fill="none" stroke="midnightblue" d="M263.016,-124.946C283.258,-144.174 318.876,-175.171 355,-193 362.751,-196.825 371.357,-199.941 379.863,-202.459"/>
<polygon fill="midnightblue" stroke="midnightblue" points="265.183,-122.173 255.563,-117.733 260.315,-127.203 265.183,-122.173"/>
</g>
<!-- Node4 -->
<g id="node4" class="node"><title>Node4</title>
<g id="a_node4"><a xlink:href="classpdal_1_1PcdReader.html#a010f5eef0bc6a4f700aa4d7d80689a9d" target="_top" xlink:title="pdal::PcdReader::read">
<polygon fill="white" stroke="black" points="372,-164.5 372,-183.5 486,-183.5 486,-164.5 372,-164.5"/>
<text text-anchor="middle" x="429" y="-171.5" font-family="Helvetica,sans-Serif" font-size="10.00">pdal::PcdReader::read</text>
</a>
</g>
</g>
<!-- Node2&#45;&gt;Node4 -->
<g id="edge3" class="edge"><title>Node2&#45;&gt;Node4</title>
<path fill="none" stroke="midnightblue" d="M275.029,-121.958C296.72,-132.031 327.281,-145.479 355,-155 365.156,-158.489 376.296,-161.692 386.747,-164.434"/>
<polygon fill="midnightblue" stroke="midnightblue" points="276.269,-118.674 265.73,-117.593 273.295,-125.01 276.269,-118.674"/>
</g>
<!-- Node5 -->
<g id="node5" class="node"><title>Node5</title>
<g id="a_node5"><a xlink:href="classpdal_1_1MovingLeastSquaresFilter.html#a9b5c54a5431d48169846106241b9c57c" target="_top" xlink:title="pdal::MovingLeastSquares\lFilter::run">
<polygon fill="white" stroke="black" points="363,-115 363,-145 495,-145 495,-115 363,-115"/>
<text text-anchor="start" x="371" y="-133" font-family="Helvetica,sans-Serif" font-size="10.00">pdal::MovingLeastSquares</text>
<text text-anchor="middle" x="429" y="-122" font-family="Helvetica,sans-Serif" font-size="10.00">Filter::run</text>
</a>
</g>
</g>
<!-- Node2&#45;&gt;Node5 -->
<g id="edge4" class="edge"><title>Node2&#45;&gt;Node5</title>
<path fill="none" stroke="midnightblue" d="M329.462,-118.089C340.661,-119.443 352.014,-120.815 362.835,-122.123"/>
<polygon fill="midnightblue" stroke="midnightblue" points="329.587,-114.579 319.24,-116.853 328.747,-121.528 329.587,-114.579"/>
</g>
<!-- Node6 -->
<g id="node6" class="node"><title>Node6</title>
<g id="a_node6"><a xlink:href="classpdal_1_1GridProjectionFilter.html#a2a65c4b43428888da1d5555e871abb05" target="_top" xlink:title="pdal::GridProjectionFilter::run">
<polygon fill="white" stroke="black" points="357.5,-76.5 357.5,-95.5 500.5,-95.5 500.5,-76.5 357.5,-76.5"/>
<text text-anchor="middle" x="429" y="-83.5" font-family="Helvetica,sans-Serif" font-size="10.00">pdal::GridProjectionFilter::run</text>
</a>
</g>
</g>
<!-- Node2&#45;&gt;Node6 -->
<g id="edge5" class="edge"><title>Node2&#45;&gt;Node6</title>
<path fill="none" stroke="midnightblue" d="M329.316,-97.9288C338.659,-96.7994 348.111,-95.6569 357.274,-94.5493"/>
<polygon fill="midnightblue" stroke="midnightblue" points="328.747,-94.472 319.24,-99.1469 329.587,-101.421 328.747,-94.472"/>
</g>
<!-- Node7 -->
<g id="node7" class="node"><title>Node7</title>
<g id="a_node7"><a xlink:href="classpdal_1_1VoxelGridFilter.html#a1ca25528d334e8477c8889592f99415f" target="_top" xlink:title="pdal::VoxelGridFilter::run">
<polygon fill="white" stroke="black" points="366.5,-38.5 366.5,-57.5 491.5,-57.5 491.5,-38.5 366.5,-38.5"/>
<text text-anchor="middle" x="429" y="-45.5" font-family="Helvetica,sans-Serif" font-size="10.00">pdal::VoxelGridFilter::run</text>
</a>
</g>
</g>
<!-- Node2&#45;&gt;Node7 -->
<g id="edge6" class="edge"><title>Node2&#45;&gt;Node7</title>
<path fill="none" stroke="midnightblue" d="M278.463,-94.7647C299.974,-86.2496 328.929,-75.2708 355,-67 365.735,-63.5943 377.496,-60.3326 388.382,-57.5025"/>
<polygon fill="midnightblue" stroke="midnightblue" points="277.131,-91.5279 269.14,-98.4852 279.725,-98.0293 277.131,-91.5279"/>
</g>
<!-- Node8 -->
<g id="node8" class="node"><title>Node8</title>
<g id="a_node8"><a xlink:href="classpdal_1_1PCLBlock.html#ac2a76cf2df667cfce88d3a819a40483d" target="_top" xlink:title="pdal::PCLBlock::run">
<polygon fill="white" stroke="black" points="377,-0.5 377,-19.5 481,-19.5 481,-0.5 377,-0.5"/>
<text text-anchor="middle" x="429" y="-7.5" font-family="Helvetica,sans-Serif" font-size="10.00">pdal::PCLBlock::run</text>
</a>
</g>
</g>
<!-- Node2&#45;&gt;Node8 -->
<g id="edge7" class="edge"><title>Node2&#45;&gt;Node8</title>
<path fill="none" stroke="midnightblue" d="M263.892,-91.7484C284.45,-73.8969 319.89,-45.5674 355,-29 363.054,-25.1998 371.979,-22.0778 380.746,-19.542"/>
<polygon fill="midnightblue" stroke="midnightblue" points="261.458,-89.2282 256.282,-98.4722 266.093,-94.474 261.458,-89.2282"/>
</g>
</g>
</svg>
