<?xml version="1.0" encoding="UTF-8" standalone="no"?>
<!DOCTYPE svg PUBLIC "-//W3C//DTD SVG 1.1//EN"
 "http://www.w3.org/Graphics/SVG/1.1/DTD/svg11.dtd">
<!-- Generated by graphviz version 2.38.0 (20140413.2041)
 -->
<!-- Title: pdal::plang::addMetadata Pages: 1 -->
<svg width="899pt" height="256pt"
 viewBox="0.00 0.00 899.00 256.00" xmlns="http://www.w3.org/2000/svg" xmlns:xlink="http://www.w3.org/1999/xlink">
<g id="graph0" class="graph" transform="scale(1 1) rotate(0) translate(4 252)">
<title>pdal::plang::addMetadata</title>
<polygon fill="white" stroke="none" points="-4,4 -4,-252 895,-252 895,4 -4,4"/>
<!-- Node1 -->
<g id="node1" class="node"><title>Node1</title>
<polygon fill="#bfbfbf" stroke="black" points="0,-95.5 0,-114.5 126,-114.5 126,-95.5 0,-95.5"/>
<text text-anchor="middle" x="63" y="-102.5" font-family="Helvetica,sans-Serif" font-size="10.00">pdal::plang::addMetadata</text>
</g>
<!-- Node2 -->
<g id="node2" class="node"><title>Node2</title>
<g id="a_node2"><a xlink:href="classpdal_1_1MetadataNode.html#a198cc59ea0083b8758eb80a3025d1937" target="_top" xlink:title="pdal::MetadataNode\l::addWithType">
<polygon fill="white" stroke="black" points="182.5,-191 182.5,-221 286.5,-221 286.5,-191 182.5,-191"/>
<text text-anchor="start" x="190.5" y="-209" font-family="Helvetica,sans-Serif" font-size="10.00">pdal::MetadataNode</text>
<text text-anchor="middle" x="234.5" y="-198" font-family="Helvetica,sans-Serif" font-size="10.00">::addWithType</text>
</a>
</g>
</g>
<!-- Node1&#45;&gt;Node2 -->
<g id="edge1" class="edge"><title>Node1&#45;&gt;Node2</title>
<path fill="none" stroke="midnightblue" d="M75.4763,-114.671C93.1975,-129.282 128.668,-157.262 162,-176 168.848,-179.85 176.29,-183.503 183.698,-186.85"/>
<polygon fill="midnightblue" stroke="midnightblue" points="182.453,-190.125 193.018,-190.917 185.252,-183.709 182.453,-190.125"/>
</g>
<!-- Node4 -->
<g id="node4" class="node"><title>Node4</title>
<g id="a_node4"><a xlink:href="namespacepdal_1_1Dimension.html#a880d689fed54aa3ded6f88c9e058c5d2" target="_top" xlink:title="pdal::Dimension::type">
<polygon fill="white" stroke="black" points="645,-152.5 645,-171.5 757,-171.5 757,-152.5 645,-152.5"/>
<text text-anchor="middle" x="701" y="-159.5" font-family="Helvetica,sans-Serif" font-size="10.00">pdal::Dimension::type</text>
</a>
</g>
</g>
<!-- Node1&#45;&gt;Node4 -->
<g id="edge13" class="edge"><title>Node1&#45;&gt;Node4</title>
<path fill="none" stroke="midnightblue" d="M82.9422,-114.545C102.269,-123.75 133.4,-137.125 162,-143 329.504,-177.409 532.392,-172.338 634.521,-166.645"/>
<polygon fill="midnightblue" stroke="midnightblue" points="634.9,-170.129 644.681,-166.057 634.496,-163.14 634.9,-170.129"/>
</g>
<!-- Node6 -->
<g id="node6" class="node"><title>Node6</title>
<g id="a_node6"><a xlink:href="namespacepdal_1_1Dimension.html#a4041a0eeee0ca503caad91db24affa0e" target="_top" xlink:title="pdal::Dimension::description">
<polygon fill="white" stroke="black" points="164.5,-114.5 164.5,-133.5 304.5,-133.5 304.5,-114.5 164.5,-114.5"/>
<text text-anchor="middle" x="234.5" y="-121.5" font-family="Helvetica,sans-Serif" font-size="10.00">pdal::Dimension::description</text>
</a>
</g>
</g>
<!-- Node1&#45;&gt;Node6 -->
<g id="edge5" class="edge"><title>Node1&#45;&gt;Node6</title>
<path fill="none" stroke="midnightblue" d="M126.153,-111.967C135.312,-112.994 144.851,-114.063 154.297,-115.122"/>
<polygon fill="midnightblue" stroke="midnightblue" points="154.161,-118.628 164.489,-116.264 154.941,-111.672 154.161,-118.628"/>
</g>
<!-- Node7 -->
<g id="node7" class="node"><title>Node7</title>
<g id="a_node7"><a xlink:href="classpdal_1_1Metadata.html#a4e5f852d52d3a38ddd9706630e409bd8" target="_top" xlink:title="pdal::Metadata::inferType">
<polygon fill="white" stroke="black" points="170.5,-76.5 170.5,-95.5 298.5,-95.5 298.5,-76.5 170.5,-76.5"/>
<text text-anchor="middle" x="234.5" y="-83.5" font-family="Helvetica,sans-Serif" font-size="10.00">pdal::Metadata::inferType</text>
</a>
</g>
</g>
<!-- Node1&#45;&gt;Node7 -->
<g id="edge6" class="edge"><title>Node1&#45;&gt;Node7</title>
<path fill="none" stroke="midnightblue" d="M126.153,-98.033C137.149,-96.8005 148.691,-95.5066 159.965,-94.2429"/>
<polygon fill="midnightblue" stroke="midnightblue" points="160.671,-97.6857 170.219,-93.0935 159.891,-90.7293 160.671,-97.6857"/>
</g>
<!-- Node9 -->
<g id="node9" class="node"><title>Node9</title>
<g id="a_node9"><a xlink:href="namespacepdal_1_1Dimension.html#af3176b0b7e6b4be000317846cf7c2718" target="_top" xlink:title="pdal::Dimension::name">
<polygon fill="white" stroke="black" points="176,-38.5 176,-57.5 293,-57.5 293,-38.5 176,-38.5"/>
<text text-anchor="middle" x="234.5" y="-45.5" font-family="Helvetica,sans-Serif" font-size="10.00">pdal::Dimension::name</text>
</a>
</g>
</g>
<!-- Node1&#45;&gt;Node9 -->
<g id="edge8" class="edge"><title>Node1&#45;&gt;Node9</title>
<path fill="none" stroke="midnightblue" d="M86.7121,-95.372C106.412,-87.2198 135.8,-75.5322 162,-67 169.218,-64.6495 176.914,-62.3716 184.483,-60.2581"/>
<polygon fill="midnightblue" stroke="midnightblue" points="185.579,-63.5869 194.308,-57.5821 183.74,-56.833 185.579,-63.5869"/>
</g>
<!-- Node10 -->
<g id="node10" class="node"><title>Node10</title>
<g id="a_node10"><a xlink:href="namespacepdal_1_1plang.html#a36f7db7b0cd738072ba58ea2c05456e3" target="_top" xlink:title="pdal::plang::readPythonString">
<polygon fill="white" stroke="black" points="162,-0.5 162,-19.5 307,-19.5 307,-0.5 162,-0.5"/>
<text text-anchor="middle" x="234.5" y="-7.5" font-family="Helvetica,sans-Serif" font-size="10.00">pdal::plang::readPythonString</text>
</a>
</g>
</g>
<!-- Node1&#45;&gt;Node10 -->
<g id="edge9" class="edge"><title>Node1&#45;&gt;Node10</title>
<path fill="none" stroke="midnightblue" d="M73.6565,-95.3058C90.2579,-79.1816 125.917,-46.8628 162,-29 166.82,-26.6138 171.976,-24.4999 177.23,-22.633"/>
<polygon fill="midnightblue" stroke="midnightblue" points="178.316,-25.9602 186.74,-19.5339 176.147,-19.3047 178.316,-25.9602"/>
</g>
<!-- Node3 -->
<g id="node3" class="node"><title>Node3</title>
<g id="a_node3"><a xlink:href="classpdal_1_1MetadataNode.html#af2c1c5d91f6ab47a804aa8a0a1b043c2" target="_top" xlink:title="pdal::MetadataNode::add">
<polygon fill="white" stroke="black" points="343,-228.5 343,-247.5 469,-247.5 469,-228.5 343,-228.5"/>
<text text-anchor="middle" x="406" y="-235.5" font-family="Helvetica,sans-Serif" font-size="10.00">pdal::MetadataNode::add</text>
</a>
</g>
</g>
<!-- Node2&#45;&gt;Node3 -->
<g id="edge2" class="edge"><title>Node2&#45;&gt;Node3</title>
<path fill="none" stroke="midnightblue" d="M286.816,-215.688C304.986,-219.118 325.599,-223.01 344.464,-226.571"/>
<polygon fill="midnightblue" stroke="midnightblue" points="343.966,-230.039 354.442,-228.455 345.265,-223.161 343.966,-230.039"/>
</g>
<!-- Node2&#45;&gt;Node4 -->
<g id="edge3" class="edge"><title>Node2&#45;&gt;Node4</title>
<path fill="none" stroke="midnightblue" d="M286.665,-203.069C358.725,-198.673 494.151,-189.429 609,-176 617.33,-175.026 626.068,-173.863 634.697,-172.63"/>
<polygon fill="midnightblue" stroke="midnightblue" points="635.359,-176.07 644.746,-171.157 634.344,-169.144 635.359,-176.07"/>
</g>
<!-- Node5 -->
<g id="node5" class="node"><title>Node5</title>
<g id="a_node5"><a xlink:href="namespacepdal_1_1Utils.html#a5268937cf695835e55392f752dc02cb2" target="_top" xlink:title="pdal::Utils::tolower">
<polygon fill="white" stroke="black" points="793,-152.5 793,-171.5 891,-171.5 891,-152.5 793,-152.5"/>
<text text-anchor="middle" x="842" y="-159.5" font-family="Helvetica,sans-Serif" font-size="10.00">pdal::Utils::tolower</text>
</a>
</g>
</g>
<!-- Node4&#45;&gt;Node5 -->
<g id="edge4" class="edge"><title>Node4&#45;&gt;Node5</title>
<path fill="none" stroke="midnightblue" d="M757.336,-162C765.625,-162 774.194,-162 782.546,-162"/>
<polygon fill="midnightblue" stroke="midnightblue" points="782.59,-165.5 792.59,-162 782.59,-158.5 782.59,-165.5"/>
</g>
<!-- Node8 -->
<g id="node8" class="node"><title>Node8</title>
<g id="a_node8"><a xlink:href="classpdal_1_1Uuid.html#a5ccef147618cf3ceac1e288b287d9c80" target="_top" xlink:title="pdal::Uuid::isNull">
<polygon fill="white" stroke="black" points="360,-76.5 360,-95.5 452,-95.5 452,-76.5 360,-76.5"/>
<text text-anchor="middle" x="406" y="-83.5" font-family="Helvetica,sans-Serif" font-size="10.00">pdal::Uuid::isNull</text>
</a>
</g>
</g>
<!-- Node7&#45;&gt;Node8 -->
<g id="edge7" class="edge"><title>Node7&#45;&gt;Node8</title>
<path fill="none" stroke="midnightblue" d="M298.616,-86C315.293,-86 333.168,-86 349.415,-86"/>
<polygon fill="midnightblue" stroke="midnightblue" points="349.828,-89.5001 359.828,-86 349.828,-82.5001 349.828,-89.5001"/>
</g>
<!-- Node11 -->
<g id="node11" class="node"><title>Node11</title>
<g id="a_node11"><a xlink:href="namespacepdal_1_1Dimension.html#acf81dae9d5946f3a941f9df154b2329b" target="_top" xlink:title="pdal::Dimension::size">
<polygon fill="white" stroke="black" points="350.5,-19.5 350.5,-38.5 461.5,-38.5 461.5,-19.5 350.5,-19.5"/>
<text text-anchor="middle" x="406" y="-26.5" font-family="Helvetica,sans-Serif" font-size="10.00">pdal::Dimension::size</text>
</a>
</g>
</g>
<!-- Node10&#45;&gt;Node11 -->
<g id="edge10" class="edge"><title>Node10&#45;&gt;Node11</title>
<path fill="none" stroke="midnightblue" d="M307.383,-18.0577C318.324,-19.2841 329.557,-20.5432 340.33,-21.7509"/>
<polygon fill="midnightblue" stroke="midnightblue" points="340.167,-25.2544 350.495,-22.8902 340.947,-18.298 340.167,-25.2544"/>
</g>
<!-- Node12 -->
<g id="node12" class="node"><title>Node12</title>
<g id="a_node12"><a xlink:href="namespacepdal_1_1Utils.html#a59253304d0f929e3a3ea00f09636002f" target="_top" xlink:title="pdal::Utils::toNative">
<polygon fill="white" stroke="black" points="505,-57.5 505,-76.5 609,-76.5 609,-57.5 505,-57.5"/>
<text text-anchor="middle" x="557" y="-64.5" font-family="Helvetica,sans-Serif" font-size="10.00">pdal::Utils::toNative</text>
</a>
</g>
</g>
<!-- Node11&#45;&gt;Node12 -->
<g id="edge11" class="edge"><title>Node11&#45;&gt;Node12</title>
<path fill="none" stroke="midnightblue" d="M444.599,-38.589C464.084,-43.5583 488.075,-49.6767 508.796,-54.9613"/>
<polygon fill="midnightblue" stroke="midnightblue" points="508.117,-58.4001 518.671,-57.4799 509.846,-51.6172 508.117,-58.4001"/>
</g>
<!-- Node12&#45;&gt;Node4 -->
<g id="edge12" class="edge"><title>Node12&#45;&gt;Node4</title>
<path fill="none" stroke="midnightblue" d="M572.397,-76.6319C597.062,-93.1331 647.588,-126.936 677.124,-146.696"/>
<polygon fill="midnightblue" stroke="midnightblue" points="675.307,-149.691 685.565,-152.343 679.199,-143.873 675.307,-149.691"/>
</g>
</g>
</svg>
