<?xml version="1.0" encoding="UTF-8" standalone="no"?>
<!DOCTYPE svg PUBLIC "-//W3C//DTD SVG 1.1//EN"
 "http://www.w3.org/Graphics/SVG/1.1/DTD/svg11.dtd">
<!-- Generated by graphviz version 2.38.0 (20140413.2041)
 -->
<!-- Title: pdal::connect Pages: 1 -->
<svg width="654pt" height="142pt"
 viewBox="0.00 0.00 654.00 142.00" xmlns="http://www.w3.org/2000/svg" xmlns:xlink="http://www.w3.org/1999/xlink">
<g id="graph0" class="graph" transform="scale(1 1) rotate(0) translate(4 138)">
<title>pdal::connect</title>
<polygon fill="white" stroke="none" points="-4,4 -4,-138 650,-138 650,4 -4,4"/>
<!-- Node1 -->
<g id="node1" class="node"><title>Node1</title>
<polygon fill="#bfbfbf" stroke="black" points="0,-57.5 0,-76.5 75,-76.5 75,-57.5 0,-57.5"/>
<text text-anchor="middle" x="37.5" y="-64.5" font-family="Helvetica,sans-Serif" font-size="10.00">pdal::connect</text>
</g>
<!-- Node2 -->
<g id="node2" class="node"><title>Node2</title>
<g id="a_node2"><a xlink:href="namespacepdal_1_1Utils.html#aad48cdff8e3ff3d13c7a273583870185" target="_top" xlink:title="pdal::Utils::closeFile">
<polygon fill="white" stroke="black" points="113.5,-114.5 113.5,-133.5 219.5,-133.5 219.5,-114.5 113.5,-114.5"/>
<text text-anchor="middle" x="166.5" y="-121.5" font-family="Helvetica,sans-Serif" font-size="10.00">pdal::Utils::closeFile</text>
</a>
</g>
</g>
<!-- Node1&#45;&gt;Node2 -->
<g id="edge1" class="edge"><title>Node1&#45;&gt;Node2</title>
<path fill="none" stroke="midnightblue" d="M55.1486,-76.626C69.6261,-84.777 91.3123,-96.464 111,-105 115.762,-107.065 120.828,-109.072 125.88,-110.96"/>
<polygon fill="midnightblue" stroke="midnightblue" points="124.901,-114.327 135.495,-114.428 127.276,-107.742 124.901,-114.327"/>
</g>
<!-- Node4 -->
<g id="node4" class="node"><title>Node4</title>
<g id="a_node4"><a xlink:href="namespacepdal_1_1Utils.html#aa7cd618aca677bff881c1c14fbeebe72" target="_top" xlink:title="pdal::Utils::fileExists">
<polygon fill="white" stroke="black" points="113,-76.5 113,-95.5 220,-95.5 220,-76.5 113,-76.5"/>
<text text-anchor="middle" x="166.5" y="-83.5" font-family="Helvetica,sans-Serif" font-size="10.00">pdal::Utils::fileExists</text>
</a>
</g>
</g>
<!-- Node1&#45;&gt;Node4 -->
<g id="edge3" class="edge"><title>Node1&#45;&gt;Node4</title>
<path fill="none" stroke="midnightblue" d="M75.2337,-72.4956C83.8414,-73.7834 93.2524,-75.1913 102.645,-76.5964"/>
<polygon fill="midnightblue" stroke="midnightblue" points="102.382,-80.096 112.79,-78.1142 103.418,-73.1731 102.382,-80.096"/>
</g>
<!-- Node5 -->
<g id="node5" class="node"><title>Node5</title>
<g id="a_node5"><a xlink:href="namespacepdal_1_1Utils.html#ac3322e84f8c5a998a344a5a606c74793" target="_top" xlink:title="pdal::Utils::openFile">
<polygon fill="white" stroke="black" points="114.5,-38.5 114.5,-57.5 218.5,-57.5 218.5,-38.5 114.5,-38.5"/>
<text text-anchor="middle" x="166.5" y="-45.5" font-family="Helvetica,sans-Serif" font-size="10.00">pdal::Utils::openFile</text>
</a>
</g>
</g>
<!-- Node1&#45;&gt;Node5 -->
<g id="edge4" class="edge"><title>Node1&#45;&gt;Node5</title>
<path fill="none" stroke="midnightblue" d="M75.2337,-61.5044C84.2592,-60.1541 94.1679,-58.6717 104.012,-57.199"/>
<polygon fill="midnightblue" stroke="midnightblue" points="104.835,-60.6148 114.207,-55.6737 103.8,-53.6919 104.835,-60.6148"/>
</g>
<!-- Node7 -->
<g id="node7" class="node"><title>Node7</title>
<g id="a_node7"><a xlink:href="namespacepdal_1_1Dimension.html#acf81dae9d5946f3a941f9df154b2329b" target="_top" xlink:title="pdal::Dimension::size">
<polygon fill="white" stroke="black" points="111,-0.5 111,-19.5 222,-19.5 222,-0.5 111,-0.5"/>
<text text-anchor="middle" x="166.5" y="-7.5" font-family="Helvetica,sans-Serif" font-size="10.00">pdal::Dimension::size</text>
</a>
</g>
</g>
<!-- Node1&#45;&gt;Node7 -->
<g id="edge6" class="edge"><title>Node1&#45;&gt;Node7</title>
<path fill="none" stroke="midnightblue" d="M55.1486,-57.374C69.6261,-49.223 91.3123,-37.536 111,-29 115.762,-26.9354 120.828,-24.9284 125.88,-23.0403"/>
<polygon fill="midnightblue" stroke="midnightblue" points="127.276,-26.2576 135.495,-19.5719 124.901,-19.6729 127.276,-26.2576"/>
</g>
<!-- Node3 -->
<g id="node3" class="node"><title>Node3</title>
<g id="a_node3"><a xlink:href="namespacepdal_1_1Utils.html#a6ce7036b0912ba81b1f1a876b2772a34" target="_top" xlink:title="pdal::Utils::closeFile">
<polygon fill="white" stroke="black" points="258,-114.5 258,-133.5 364,-133.5 364,-114.5 258,-114.5"/>
<text text-anchor="middle" x="311" y="-121.5" font-family="Helvetica,sans-Serif" font-size="10.00">pdal::Utils::closeFile</text>
</a>
</g>
</g>
<!-- Node2&#45;&gt;Node3 -->
<g id="edge2" class="edge"><title>Node2&#45;&gt;Node3</title>
<path fill="none" stroke="midnightblue" d="M219.753,-124C228.853,-124 238.399,-124 247.735,-124"/>
<polygon fill="midnightblue" stroke="midnightblue" points="247.754,-127.5 257.754,-124 247.754,-120.5 247.754,-127.5"/>
</g>
<!-- Node6 -->
<g id="node6" class="node"><title>Node6</title>
<g id="a_node6"><a xlink:href="SQLiteTest_8cpp.html#afdd1742979cee35fe1879794bd7ff3a4" target="_top" xlink:title="tempFilename">
<polygon fill="white" stroke="black" points="272,-38.5 272,-57.5 350,-57.5 350,-38.5 272,-38.5"/>
<text text-anchor="middle" x="311" y="-45.5" font-family="Helvetica,sans-Serif" font-size="10.00">tempFilename</text>
</a>
</g>
</g>
<!-- Node5&#45;&gt;Node6 -->
<g id="edge5" class="edge"><title>Node5&#45;&gt;Node6</title>
<path fill="none" stroke="midnightblue" d="M218.543,-48C232.544,-48 247.679,-48 261.531,-48"/>
<polygon fill="midnightblue" stroke="midnightblue" points="261.833,-51.5001 271.833,-48 261.833,-44.5001 261.833,-51.5001"/>
</g>
<!-- Node8 -->
<g id="node8" class="node"><title>Node8</title>
<g id="a_node8"><a xlink:href="namespacepdal_1_1Utils.html#a59253304d0f929e3a3ea00f09636002f" target="_top" xlink:title="pdal::Utils::toNative">
<polygon fill="white" stroke="black" points="259,-0.5 259,-19.5 363,-19.5 363,-0.5 259,-0.5"/>
<text text-anchor="middle" x="311" y="-7.5" font-family="Helvetica,sans-Serif" font-size="10.00">pdal::Utils::toNative</text>
</a>
</g>
</g>
<!-- Node7&#45;&gt;Node8 -->
<g id="edge7" class="edge"><title>Node7&#45;&gt;Node8</title>
<path fill="none" stroke="midnightblue" d="M222.187,-10C230.874,-10 239.91,-10 248.737,-10"/>
<polygon fill="midnightblue" stroke="midnightblue" points="248.969,-13.5001 258.969,-10 248.969,-6.5001 248.969,-13.5001"/>
</g>
<!-- Node9 -->
<g id="node9" class="node"><title>Node9</title>
<g id="a_node9"><a xlink:href="namespacepdal_1_1Dimension.html#a880d689fed54aa3ded6f88c9e058c5d2" target="_top" xlink:title="pdal::Dimension::type">
<polygon fill="white" stroke="black" points="400,-0.5 400,-19.5 512,-19.5 512,-0.5 400,-0.5"/>
<text text-anchor="middle" x="456" y="-7.5" font-family="Helvetica,sans-Serif" font-size="10.00">pdal::Dimension::type</text>
</a>
</g>
</g>
<!-- Node8&#45;&gt;Node9 -->
<g id="edge8" class="edge"><title>Node8&#45;&gt;Node9</title>
<path fill="none" stroke="midnightblue" d="M363.222,-10C371.747,-10 380.692,-10 389.513,-10"/>
<polygon fill="midnightblue" stroke="midnightblue" points="389.78,-13.5001 399.78,-10 389.78,-6.5001 389.78,-13.5001"/>
</g>
<!-- Node10 -->
<g id="node10" class="node"><title>Node10</title>
<g id="a_node10"><a xlink:href="namespacepdal_1_1Utils.html#a5268937cf695835e55392f752dc02cb2" target="_top" xlink:title="pdal::Utils::tolower">
<polygon fill="white" stroke="black" points="548,-0.5 548,-19.5 646,-19.5 646,-0.5 548,-0.5"/>
<text text-anchor="middle" x="597" y="-7.5" font-family="Helvetica,sans-Serif" font-size="10.00">pdal::Utils::tolower</text>
</a>
</g>
</g>
<!-- Node9&#45;&gt;Node10 -->
<g id="edge9" class="edge"><title>Node9&#45;&gt;Node10</title>
<path fill="none" stroke="midnightblue" d="M512.336,-10C520.625,-10 529.194,-10 537.546,-10"/>
<polygon fill="midnightblue" stroke="midnightblue" points="537.59,-13.5001 547.59,-10 537.59,-6.5001 537.59,-13.5001"/>
</g>
</g>
</svg>
