<?xml version="1.0" encoding="UTF-8" standalone="no"?>
<!DOCTYPE svg PUBLIC "-//W3C//DTD SVG 1.1//EN"
 "http://www.w3.org/Graphics/SVG/1.1/DTD/svg11.dtd">
<!-- Generated by graphviz version 2.38.0 (20140413.2041)
 -->
<!-- Title: pdal::Utils::unsetenv Pages: 1 -->
<svg width="247pt" height="66pt"
 viewBox="0.00 0.00 247.00 66.00" xmlns="http://www.w3.org/2000/svg" xmlns:xlink="http://www.w3.org/1999/xlink">
<g id="graph0" class="graph" transform="scale(1 1) rotate(0) translate(4 62)">
<title>pdal::Utils::unsetenv</title>
<polygon fill="white" stroke="none" points="-4,4 -4,-62 243,-62 243,4 -4,4"/>
<!-- Node1 -->
<g id="node1" class="node"><title>Node1</title>
<polygon fill="#bfbfbf" stroke="black" points="0,-19.5 0,-38.5 107,-38.5 107,-19.5 0,-19.5"/>
<text text-anchor="middle" x="53.5" y="-26.5" font-family="Helvetica,sans-Serif" font-size="10.00">pdal::Utils::unsetenv</text>
</g>
<!-- Node2 -->
<g id="node2" class="node"><title>Node2</title>
<g id="a_node2"><a xlink:href="namespacepdal_1_1Utils.html#a8467ec3b1fb828bd4631fa26416a8d5a" target="_top" xlink:title="pdal::Utils::cksum">
<polygon fill="white" stroke="black" points="143,-38.5 143,-57.5 239,-57.5 239,-38.5 143,-38.5"/>
<text text-anchor="middle" x="191" y="-45.5" font-family="Helvetica,sans-Serif" font-size="10.00">pdal::Utils::cksum</text>
</a>
</g>
</g>
<!-- Node1&#45;&gt;Node2 -->
<g id="edge1" class="edge"><title>Node1&#45;&gt;Node2</title>
<path fill="none" stroke="midnightblue" d="M117.298,-37.8057C125.907,-39.0128 134.622,-40.2349 142.885,-41.3935"/>
<polygon fill="midnightblue" stroke="midnightblue" points="117.665,-34.3229 107.276,-36.4003 116.693,-41.2551 117.665,-34.3229"/>
</g>
<!-- Node3 -->
<g id="node3" class="node"><title>Node3</title>
<g id="a_node3"><a xlink:href="namespacepdal.html#a8468f4aac593814b1fa17ab58272129c" target="_top" xlink:title="pdal::TEST">
<polygon fill="white" stroke="black" points="158,-0.5 158,-19.5 224,-19.5 224,-0.5 158,-0.5"/>
<text text-anchor="middle" x="191" y="-7.5" font-family="Helvetica,sans-Serif" font-size="10.00">pdal::TEST</text>
</a>
</g>
</g>
<!-- Node1&#45;&gt;Node3 -->
<g id="edge2" class="edge"><title>Node1&#45;&gt;Node3</title>
<path fill="none" stroke="midnightblue" d="M117.409,-20.1789C131.439,-18.2114 145.749,-16.205 157.913,-14.4993"/>
<polygon fill="midnightblue" stroke="midnightblue" points="116.693,-16.7449 107.276,-21.5997 117.665,-23.6771 116.693,-16.7449"/>
</g>
</g>
</svg>
