<?xml version="1.0" encoding="UTF-8" standalone="no"?>
<!DOCTYPE svg PUBLIC "-//W3C//DTD SVG 1.1//EN"
 "http://www.w3.org/Graphics/SVG/1.1/DTD/svg11.dtd">
<!-- Generated by graphviz version 2.38.0 (20140413.2041)
 -->
<!-- Title: pdal::Utils::writeProgress Pages: 1 -->
<svg width="1409pt" height="347pt"
 viewBox="0.00 0.00 1409.00 346.50" xmlns="http://www.w3.org/2000/svg" xmlns:xlink="http://www.w3.org/1999/xlink">
<g id="graph0" class="graph" transform="scale(1 1) rotate(0) translate(4 342.5)">
<title>pdal::Utils::writeProgress</title>
<polygon fill="white" stroke="none" points="-4,4 -4,-342.5 1405,-342.5 1405,4 -4,4"/>
<!-- Node1 -->
<g id="node1" class="node"><title>Node1</title>
<polygon fill="#bfbfbf" stroke="black" points="0,-205 0,-224 127,-224 127,-205 0,-205"/>
<text text-anchor="middle" x="63.5" y="-212" font-family="Helvetica,sans-Serif" font-size="10.00">pdal::Utils::writeProgress</text>
</g>
<!-- Node2 -->
<g id="node2" class="node"><title>Node2</title>
<g id="a_node2"><a xlink:href="namespacepdal_1_1Utils.html#aad48cdff8e3ff3d13c7a273583870185" target="_top" xlink:title="pdal::Utils::closeFile">
<polygon fill="white" stroke="black" points="183.5,-319 183.5,-338 289.5,-338 289.5,-319 183.5,-319"/>
<text text-anchor="middle" x="236.5" y="-326" font-family="Helvetica,sans-Serif" font-size="10.00">pdal::Utils::closeFile</text>
</a>
</g>
</g>
<!-- Node1&#45;&gt;Node2 -->
<g id="edge1" class="edge"><title>Node1&#45;&gt;Node2</title>
<path fill="none" stroke="midnightblue" d="M71.7325,-224.246C86.5994,-243.566 122.608,-286.81 163,-309.5 167.001,-311.747 171.275,-313.736 175.672,-315.495"/>
<polygon fill="midnightblue" stroke="midnightblue" points="174.838,-318.914 185.433,-318.989 177.197,-312.323 174.838,-318.914"/>
</g>
<!-- Node4 -->
<g id="node4" class="node"><title>Node4</title>
<g id="a_node4"><a xlink:href="namespacepdal_1_1Utils.html#a6e459b6b7c17167255c1e36d4a743b0a" target="_top" xlink:title="pdal::Utils::computeHausdorff">
<polygon fill="white" stroke="black" points="163,-281 163,-300 310,-300 310,-281 163,-281"/>
<text text-anchor="middle" x="236.5" y="-288" font-family="Helvetica,sans-Serif" font-size="10.00">pdal::Utils::computeHausdorff</text>
</a>
</g>
</g>
<!-- Node1&#45;&gt;Node4 -->
<g id="edge3" class="edge"><title>Node1&#45;&gt;Node4</title>
<path fill="none" stroke="midnightblue" d="M78.2402,-224.056C96.7377,-236.536 131.027,-258.34 163,-271.5 168.843,-273.905 175.079,-276.081 181.347,-278.029"/>
<polygon fill="midnightblue" stroke="midnightblue" points="180.592,-281.455 191.173,-280.902 182.557,-274.736 180.592,-281.455"/>
</g>
<!-- Node7 -->
<g id="node7" class="node"><title>Node7</title>
<g id="a_node7"><a xlink:href="namespacepdal_1_1Utils.html#afc186e6df66a9d8e26b8d434d7eb9be5" target="_top" xlink:title="pdal::Utils::createFile">
<polygon fill="white" stroke="black" points="181.5,-205 181.5,-224 291.5,-224 291.5,-205 181.5,-205"/>
<text text-anchor="middle" x="236.5" y="-212" font-family="Helvetica,sans-Serif" font-size="10.00">pdal::Utils::createFile</text>
</a>
</g>
</g>
<!-- Node1&#45;&gt;Node7 -->
<g id="edge6" class="edge"><title>Node1&#45;&gt;Node7</title>
<path fill="none" stroke="midnightblue" d="M127.203,-214.5C141.47,-214.5 156.65,-214.5 170.99,-214.5"/>
<polygon fill="midnightblue" stroke="midnightblue" points="171.259,-218 181.259,-214.5 171.259,-211 171.259,-218"/>
</g>
<!-- Node9 -->
<g id="node9" class="node"><title>Node9</title>
<g id="a_node9"><a xlink:href="namespacepdal_1_1Utils.html#aa7cd618aca677bff881c1c14fbeebe72" target="_top" xlink:title="pdal::Utils::fileExists">
<polygon fill="white" stroke="black" points="183,-167 183,-186 290,-186 290,-167 183,-167"/>
<text text-anchor="middle" x="236.5" y="-174" font-family="Helvetica,sans-Serif" font-size="10.00">pdal::Utils::fileExists</text>
</a>
</g>
</g>
<!-- Node1&#45;&gt;Node9 -->
<g id="edge8" class="edge"><title>Node1&#45;&gt;Node9</title>
<path fill="none" stroke="midnightblue" d="M107.651,-204.911C130.419,-199.851 158.548,-193.6 182.619,-188.251"/>
<polygon fill="midnightblue" stroke="midnightblue" points="183.657,-191.606 192.66,-186.02 182.139,-184.773 183.657,-191.606"/>
</g>
<!-- Node10 -->
<g id="node10" class="node"><title>Node10</title>
<g id="a_node10"><a xlink:href="namespacepdal_1_1Utils.html#a14368c0e4fbc154af1af4963c6c95461" target="_top" xlink:title="pdal::Utils::maybeGlob">
<polygon fill="white" stroke="black" points="178.5,-129 178.5,-148 294.5,-148 294.5,-129 178.5,-129"/>
<text text-anchor="middle" x="236.5" y="-136" font-family="Helvetica,sans-Serif" font-size="10.00">pdal::Utils::maybeGlob</text>
</a>
</g>
</g>
<!-- Node1&#45;&gt;Node10 -->
<g id="edge9" class="edge"><title>Node1&#45;&gt;Node10</title>
<path fill="none" stroke="midnightblue" d="M78.2402,-204.944C96.7377,-192.464 131.027,-170.66 163,-157.5 168.843,-155.095 175.079,-152.919 181.347,-150.971"/>
<polygon fill="midnightblue" stroke="midnightblue" points="182.557,-154.264 191.173,-148.098 180.592,-147.545 182.557,-154.264"/>
</g>
<!-- Node11 -->
<g id="node11" class="node"><title>Node11</title>
<g id="a_node11"><a xlink:href="namespacepdal_1_1Utils.html#ac3322e84f8c5a998a344a5a606c74793" target="_top" xlink:title="pdal::Utils::openFile">
<polygon fill="white" stroke="black" points="184.5,-243 184.5,-262 288.5,-262 288.5,-243 184.5,-243"/>
<text text-anchor="middle" x="236.5" y="-250" font-family="Helvetica,sans-Serif" font-size="10.00">pdal::Utils::openFile</text>
</a>
</g>
</g>
<!-- Node1&#45;&gt;Node11 -->
<g id="edge10" class="edge"><title>Node1&#45;&gt;Node11</title>
<path fill="none" stroke="midnightblue" d="M107.651,-224.089C130.419,-229.149 158.548,-235.4 182.619,-240.749"/>
<polygon fill="midnightblue" stroke="midnightblue" points="182.139,-244.227 192.66,-242.98 183.657,-237.394 182.139,-244.227"/>
</g>
<!-- Node12 -->
<g id="node12" class="node"><title>Node12</title>
<g id="a_node12"><a xlink:href="namespacepdal_1_1Utils.html#ae34d4c6244b0915b7ff635d74c5315cc" target="_top" xlink:title="pdal::Utils::toJSON">
<polygon fill="white" stroke="black" points="185.5,-91 185.5,-110 287.5,-110 287.5,-91 185.5,-91"/>
<text text-anchor="middle" x="236.5" y="-98" font-family="Helvetica,sans-Serif" font-size="10.00">pdal::Utils::toJSON</text>
</a>
</g>
</g>
<!-- Node1&#45;&gt;Node12 -->
<g id="edge12" class="edge"><title>Node1&#45;&gt;Node12</title>
<path fill="none" stroke="midnightblue" d="M71.7325,-204.754C86.5994,-185.434 122.608,-142.19 163,-119.5 167.001,-117.253 171.275,-115.264 175.672,-113.505"/>
<polygon fill="midnightblue" stroke="midnightblue" points="177.197,-116.677 185.433,-110.011 174.838,-110.086 177.197,-116.677"/>
</g>
<!-- Node3 -->
<g id="node3" class="node"><title>Node3</title>
<g id="a_node3"><a xlink:href="namespacepdal_1_1Utils.html#a6ce7036b0912ba81b1f1a876b2772a34" target="_top" xlink:title="pdal::Utils::closeFile">
<polygon fill="white" stroke="black" points="361.5,-319 361.5,-338 467.5,-338 467.5,-319 361.5,-319"/>
<text text-anchor="middle" x="414.5" y="-326" font-family="Helvetica,sans-Serif" font-size="10.00">pdal::Utils::closeFile</text>
</a>
</g>
</g>
<!-- Node2&#45;&gt;Node3 -->
<g id="edge2" class="edge"><title>Node2&#45;&gt;Node3</title>
<path fill="none" stroke="midnightblue" d="M289.829,-328.5C309.16,-328.5 331.254,-328.5 351.369,-328.5"/>
<polygon fill="midnightblue" stroke="midnightblue" points="351.372,-332 361.372,-328.5 351.372,-325 351.372,-332"/>
</g>
<!-- Node5 -->
<g id="node5" class="node"><title>Node5</title>
<g id="a_node5"><a xlink:href="classpdal_1_1KDIndex.html#ad179eda54c39330a0e06ec2bebee9c26" target="_top" xlink:title="pdal::KDIndex::build">
<polygon fill="white" stroke="black" points="362,-243 362,-262 467,-262 467,-243 362,-243"/>
<text text-anchor="middle" x="414.5" y="-250" font-family="Helvetica,sans-Serif" font-size="10.00">pdal::KDIndex::build</text>
</a>
</g>
</g>
<!-- Node4&#45;&gt;Node5 -->
<g id="edge4" class="edge"><title>Node4&#45;&gt;Node5</title>
<path fill="none" stroke="midnightblue" d="M281.912,-280.911C305.451,-275.829 334.557,-269.545 359.405,-264.18"/>
<polygon fill="midnightblue" stroke="midnightblue" points="360.371,-267.552 369.407,-262.02 358.894,-260.709 360.371,-267.552"/>
</g>
<!-- Node6 -->
<g id="node6" class="node"><title>Node6</title>
<g id="a_node6"><a xlink:href="classpdal_1_1KD3Index.html#a577954cbca70ecf9a470b8e1cc6315a2" target="_top" xlink:title="pdal::KD3Index::knnSearch">
<polygon fill="white" stroke="black" points="346,-281 346,-300 483,-300 483,-281 346,-281"/>
<text text-anchor="middle" x="414.5" y="-288" font-family="Helvetica,sans-Serif" font-size="10.00">pdal::KD3Index::knnSearch</text>
</a>
</g>
</g>
<!-- Node4&#45;&gt;Node6 -->
<g id="edge5" class="edge"><title>Node4&#45;&gt;Node6</title>
<path fill="none" stroke="midnightblue" d="M310.102,-290.5C318.517,-290.5 327.126,-290.5 335.607,-290.5"/>
<polygon fill="midnightblue" stroke="midnightblue" points="335.869,-294 345.869,-290.5 335.869,-287 335.869,-294"/>
</g>
<!-- Node8 -->
<g id="node8" class="node"><title>Node8</title>
<g id="a_node8"><a xlink:href="SQLiteTest_8cpp.html#afdd1742979cee35fe1879794bd7ff3a4" target="_top" xlink:title="tempFilename">
<polygon fill="white" stroke="black" points="375.5,-205 375.5,-224 453.5,-224 453.5,-205 375.5,-205"/>
<text text-anchor="middle" x="414.5" y="-212" font-family="Helvetica,sans-Serif" font-size="10.00">tempFilename</text>
</a>
</g>
</g>
<!-- Node7&#45;&gt;Node8 -->
<g id="edge7" class="edge"><title>Node7&#45;&gt;Node8</title>
<path fill="none" stroke="midnightblue" d="M291.742,-214.5C315.215,-214.5 342.466,-214.5 365.228,-214.5"/>
<polygon fill="midnightblue" stroke="midnightblue" points="365.341,-218 375.341,-214.5 365.341,-211 365.341,-218"/>
</g>
<!-- Node11&#45;&gt;Node8 -->
<g id="edge11" class="edge"><title>Node11&#45;&gt;Node8</title>
<path fill="none" stroke="midnightblue" d="M281.912,-242.911C307.354,-237.418 339.298,-230.521 365.341,-224.898"/>
<polygon fill="midnightblue" stroke="midnightblue" points="366.336,-228.264 375.372,-222.732 364.858,-221.422 366.336,-228.264"/>
</g>
<!-- Node13 -->
<g id="node13" class="node"><title>Node13</title>
<g id="a_node13"><a xlink:href="namespacepdal_1_1Utils.html#a90c7b124d5407ee4d7120e4c42b40b02" target="_top" xlink:title="pdal::Utils::toJSON">
<polygon fill="white" stroke="black" points="363.5,-91 363.5,-110 465.5,-110 465.5,-91 363.5,-91"/>
<text text-anchor="middle" x="414.5" y="-98" font-family="Helvetica,sans-Serif" font-size="10.00">pdal::Utils::toJSON</text>
</a>
</g>
</g>
<!-- Node12&#45;&gt;Node13 -->
<g id="edge13" class="edge"><title>Node12&#45;&gt;Node13</title>
<path fill="none" stroke="midnightblue" d="M287.935,-100.5C308.274,-100.5 331.909,-100.5 353.152,-100.5"/>
<polygon fill="midnightblue" stroke="midnightblue" points="353.363,-104 363.363,-100.5 353.363,-97.0001 353.363,-104"/>
</g>
<!-- Node14 -->
<g id="node14" class="node"><title>Node14</title>
<g id="a_node14"><a xlink:href="namespacepdal_1_1anonymous__namespace_02PDALUtils_8cpp_03.html#a24e6b833ca779a04307fb80c249cdf19" target="_top" xlink:title="pdal::anonymous_namespace\l\{PDALUtils::cpp\}::arrayToJSON">
<polygon fill="white" stroke="black" points="519,-138.5 519,-168.5 676,-168.5 676,-138.5 519,-138.5"/>
<text text-anchor="start" x="527" y="-156.5" font-family="Helvetica,sans-Serif" font-size="10.00">pdal::anonymous_namespace</text>
<text text-anchor="middle" x="597.5" y="-145.5" font-family="Helvetica,sans-Serif" font-size="10.00">{PDALUtils::cpp}::arrayToJSON</text>
</a>
</g>
</g>
<!-- Node13&#45;&gt;Node14 -->
<g id="edge14" class="edge"><title>Node13&#45;&gt;Node14</title>
<path fill="none" stroke="midnightblue" d="M448.278,-110.098C472.532,-117.2 506.281,-127.082 535.448,-135.623"/>
<polygon fill="midnightblue" stroke="midnightblue" points="534.564,-139.011 545.144,-138.462 536.531,-132.293 534.564,-139.011"/>
</g>
<!-- Node20 -->
<g id="node20" class="node"><title>Node20</title>
<g id="a_node20"><a xlink:href="namespacepdal_1_1anonymous__namespace_02PDALUtils_8cpp_03.html#a9836ab34bb1a9ec78acdf0da8134082d" target="_top" xlink:title="pdal::anonymous_namespace\l\{PDALUtils::cpp\}::subnodesToJSON">
<polygon fill="white" stroke="black" points="917,-85.5 917,-115.5 1094,-115.5 1094,-85.5 917,-85.5"/>
<text text-anchor="start" x="925" y="-103.5" font-family="Helvetica,sans-Serif" font-size="10.00">pdal::anonymous_namespace</text>
<text text-anchor="middle" x="1005.5" y="-92.5" font-family="Helvetica,sans-Serif" font-size="10.00">{PDALUtils::cpp}::subnodesToJSON</text>
</a>
</g>
</g>
<!-- Node13&#45;&gt;Node20 -->
<g id="edge30" class="edge"><title>Node13&#45;&gt;Node20</title>
<path fill="none" stroke="midnightblue" d="M465.718,-96.5202C563.296,-93.2801 780.035,-92.8823 906.876,-95.3267"/>
<polygon fill="midnightblue" stroke="midnightblue" points="906.91,-98.828 916.979,-95.5315 907.052,-91.8294 906.91,-98.828"/>
</g>
<!-- Node22 -->
<g id="node22" class="node"><title>Node22</title>
<g id="a_node22"><a xlink:href="classpdal_1_1MetadataNode.html#ab86b0ccbf27f9eee29cbb5252e9431b7" target="_top" xlink:title="pdal::MetadataNode\l::children">
<polygon fill="white" stroke="black" points="1140.5,-227.5 1140.5,-257.5 1244.5,-257.5 1244.5,-227.5 1140.5,-227.5"/>
<text text-anchor="start" x="1148.5" y="-245.5" font-family="Helvetica,sans-Serif" font-size="10.00">pdal::MetadataNode</text>
<text text-anchor="middle" x="1192.5" y="-234.5" font-family="Helvetica,sans-Serif" font-size="10.00">::children</text>
</a>
</g>
</g>
<!-- Node13&#45;&gt;Node22 -->
<g id="edge27" class="edge"><title>Node13&#45;&gt;Node22</title>
<path fill="none" stroke="midnightblue" d="M425.105,-110.039C442.329,-126.556 480.299,-160.356 519,-177.5 727.677,-269.943 1007.65,-259.41 1129.98,-249.035"/>
<polygon fill="midnightblue" stroke="midnightblue" points="1130.61,-252.493 1140.27,-248.13 1130,-245.52 1130.61,-252.493"/>
</g>
<!-- Node23 -->
<g id="node23" class="node"><title>Node23</title>
<g id="a_node23"><a xlink:href="classpdal_1_1MetadataNode.html#a66863365a08eb3ee538ebeb4ce788a39" target="_top" xlink:title="pdal::MetadataNode\l::kind">
<polygon fill="white" stroke="black" points="1140.5,-49.5 1140.5,-79.5 1244.5,-79.5 1244.5,-49.5 1140.5,-49.5"/>
<text text-anchor="start" x="1148.5" y="-67.5" font-family="Helvetica,sans-Serif" font-size="10.00">pdal::MetadataNode</text>
<text text-anchor="middle" x="1192.5" y="-56.5" font-family="Helvetica,sans-Serif" font-size="10.00">::kind</text>
</a>
</g>
</g>
<!-- Node13&#45;&gt;Node23 -->
<g id="edge28" class="edge"><title>Node13&#45;&gt;Node23</title>
<path fill="none" stroke="midnightblue" d="M465.675,-97.8364C555.951,-93.0802 751.754,-82.9296 917,-75.5 990.337,-72.2027 1074.72,-68.8939 1130.35,-66.7794"/>
<polygon fill="midnightblue" stroke="midnightblue" points="1130.54,-70.275 1140.4,-66.3987 1130.27,-63.28 1130.54,-70.275"/>
</g>
<!-- Node24 -->
<g id="node24" class="node"><title>Node24</title>
<g id="a_node24"><a xlink:href="classpdal_1_1MetadataNode.html#a645aadd856fb1a4ae4a12247fda3e618" target="_top" xlink:title="pdal::MetadataNode\l::name">
<polygon fill="white" stroke="black" points="1140.5,-0.5 1140.5,-30.5 1244.5,-30.5 1244.5,-0.5 1140.5,-0.5"/>
<text text-anchor="start" x="1148.5" y="-18.5" font-family="Helvetica,sans-Serif" font-size="10.00">pdal::MetadataNode</text>
<text text-anchor="middle" x="1192.5" y="-7.5" font-family="Helvetica,sans-Serif" font-size="10.00">::name</text>
</a>
</g>
</g>
<!-- Node13&#45;&gt;Node24 -->
<g id="edge29" class="edge"><title>Node13&#45;&gt;Node24</title>
<path fill="none" stroke="midnightblue" d="M465.681,-91.6147C482.587,-88.7929 501.58,-85.8091 519,-83.5 743.435,-53.7504 1011.54,-30.2204 1130.02,-20.4317"/>
<polygon fill="midnightblue" stroke="midnightblue" points="1130.65,-23.8914 1140.33,-19.5831 1130.08,-16.915 1130.65,-23.8914"/>
</g>
<!-- Node15 -->
<g id="node15" class="node"><title>Node15</title>
<g id="a_node15"><a xlink:href="namespacepdal_1_1anonymous__namespace_02PDALUtils_8cpp_03.html#ac00099447614a63b2acd68d05ee3a5c1" target="_top" xlink:title="pdal::anonymous_namespace\l\{PDALUtils::cpp\}::arrayEltToJSON">
<polygon fill="white" stroke="black" points="712,-176.5 712,-206.5 881,-206.5 881,-176.5 712,-176.5"/>
<text text-anchor="start" x="720" y="-194.5" font-family="Helvetica,sans-Serif" font-size="10.00">pdal::anonymous_namespace</text>
<text text-anchor="middle" x="796.5" y="-183.5" font-family="Helvetica,sans-Serif" font-size="10.00">{PDALUtils::cpp}::arrayEltToJSON</text>
</a>
</g>
</g>
<!-- Node14&#45;&gt;Node15 -->
<g id="edge15" class="edge"><title>Node14&#45;&gt;Node15</title>
<path fill="none" stroke="midnightblue" d="M676.077,-168.464C686.439,-170.463 697.126,-172.524 707.648,-174.554"/>
<polygon fill="midnightblue" stroke="midnightblue" points="707.189,-178.03 717.671,-176.487 708.515,-171.157 707.189,-178.03"/>
</g>
<!-- Node16 -->
<g id="node16" class="node"><title>Node16</title>
<g id="a_node16"><a xlink:href="classpdal_1_1MetadataNode.html#ada667c2ca1eab9957ae5c7a98fea5d02" target="_top" xlink:title="pdal::MetadataNode\l::hasChildren">
<polygon fill="white" stroke="black" points="953.5,-134.5 953.5,-164.5 1057.5,-164.5 1057.5,-134.5 953.5,-134.5"/>
<text text-anchor="start" x="961.5" y="-152.5" font-family="Helvetica,sans-Serif" font-size="10.00">pdal::MetadataNode</text>
<text text-anchor="middle" x="1005.5" y="-141.5" font-family="Helvetica,sans-Serif" font-size="10.00">::hasChildren</text>
</a>
</g>
</g>
<!-- Node15&#45;&gt;Node16 -->
<g id="edge16" class="edge"><title>Node15&#45;&gt;Node16</title>
<path fill="none" stroke="midnightblue" d="M871.647,-176.456C895.087,-171.7 920.717,-166.499 943.158,-161.946"/>
<polygon fill="midnightblue" stroke="midnightblue" points="944.12,-165.322 953.224,-159.904 942.728,-158.462 944.12,-165.322"/>
</g>
<!-- Node17 -->
<g id="node17" class="node"><title>Node17</title>
<g id="a_node17"><a xlink:href="classpdal_1_1MetadataNode.html#ac936d257e7eaa30e130ad9de526b2087" target="_top" xlink:title="pdal::MetadataNode\l::jsonValue">
<polygon fill="white" stroke="black" points="953.5,-183.5 953.5,-213.5 1057.5,-213.5 1057.5,-183.5 953.5,-183.5"/>
<text text-anchor="start" x="961.5" y="-201.5" font-family="Helvetica,sans-Serif" font-size="10.00">pdal::MetadataNode</text>
<text text-anchor="middle" x="1005.5" y="-190.5" font-family="Helvetica,sans-Serif" font-size="10.00">::jsonValue</text>
</a>
</g>
</g>
<!-- Node15&#45;&gt;Node17 -->
<g id="edge17" class="edge"><title>Node15&#45;&gt;Node17</title>
<path fill="none" stroke="midnightblue" d="M881.098,-194.327C901.833,-195.028 923.675,-195.767 943.124,-196.424"/>
<polygon fill="midnightblue" stroke="midnightblue" points="943.246,-199.931 953.358,-196.771 943.482,-192.935 943.246,-199.931"/>
</g>
<!-- Node15&#45;&gt;Node20 -->
<g id="edge20" class="edge"><title>Node15&#45;&gt;Node20</title>
<path fill="none" stroke="midnightblue" d="M850.887,-176.418C861.287,-172.364 871.804,-167.42 881,-161.5 900.292,-149.08 897.243,-136.166 917,-124.5 920.007,-122.724 923.15,-121.076 926.382,-119.546"/>
<polygon fill="midnightblue" stroke="midnightblue" points="927.886,-122.71 935.69,-115.543 925.12,-116.279 927.886,-122.71"/>
</g>
<!-- Node18 -->
<g id="node18" class="node"><title>Node18</title>
<g id="a_node18"><a xlink:href="namespacepdal_1_1Utils.html#aabcd6b5abf9f2cd30b485fc100656663" target="_top" xlink:title="pdal::Utils::escapeJSON">
<polygon fill="white" stroke="black" points="1130,-189 1130,-208 1255,-208 1255,-189 1130,-189"/>
<text text-anchor="middle" x="1192.5" y="-196" font-family="Helvetica,sans-Serif" font-size="10.00">pdal::Utils::escapeJSON</text>
</a>
</g>
</g>
<!-- Node17&#45;&gt;Node18 -->
<g id="edge18" class="edge"><title>Node17&#45;&gt;Node18</title>
<path fill="none" stroke="midnightblue" d="M1057.54,-198.5C1076.75,-198.5 1098.97,-198.5 1119.72,-198.5"/>
<polygon fill="midnightblue" stroke="midnightblue" points="1119.77,-202 1129.77,-198.5 1119.77,-195 1119.77,-202"/>
</g>
<!-- Node19 -->
<g id="node19" class="node"><title>Node19</title>
<g id="a_node19"><a xlink:href="namespacepdal_1_1Utils.html#ac6b599972dcd3fe440ef5c476961081a" target="_top" xlink:title="pdal::Utils::remove_if">
<polygon fill="white" stroke="black" points="1291,-189 1291,-208 1401,-208 1401,-189 1291,-189"/>
<text text-anchor="middle" x="1346" y="-196" font-family="Helvetica,sans-Serif" font-size="10.00">pdal::Utils::remove_if</text>
</a>
</g>
</g>
<!-- Node18&#45;&gt;Node19 -->
<g id="edge19" class="edge"><title>Node18&#45;&gt;Node19</title>
<path fill="none" stroke="midnightblue" d="M1255.12,-198.5C1263.51,-198.5 1272.13,-198.5 1280.57,-198.5"/>
<polygon fill="midnightblue" stroke="midnightblue" points="1280.73,-202 1290.73,-198.5 1280.73,-195 1280.73,-202"/>
</g>
<!-- Node20&#45;&gt;Node13 -->
<g id="edge26" class="edge"><title>Node20&#45;&gt;Node13</title>
<path fill="none" stroke="midnightblue" d="M916.979,-105.468C795.894,-108.051 580.395,-107.826 475.791,-104.792"/>
<polygon fill="midnightblue" stroke="midnightblue" points="475.822,-101.292 465.718,-104.48 475.604,-108.288 475.822,-101.292"/>
</g>
<!-- Node20&#45;&gt;Node14 -->
<g id="edge21" class="edge"><title>Node20&#45;&gt;Node14</title>
<path fill="none" stroke="midnightblue" d="M928.893,-115.55C913.105,-118.42 896.538,-121.232 881,-123.5 815.989,-132.991 742.145,-140.727 686.262,-145.966"/>
<polygon fill="midnightblue" stroke="midnightblue" points="685.676,-142.505 676.043,-146.914 686.324,-149.475 685.676,-142.505"/>
</g>
<!-- Node21 -->
<g id="node21" class="node"><title>Node21</title>
<g id="a_node21"><a xlink:href="classpdal_1_1MetadataNode.html#ae9794860b91201dce86f162799d902b1" target="_top" xlink:title="pdal::MetadataNode\l::childNames">
<polygon fill="white" stroke="black" points="1140.5,-98.5 1140.5,-128.5 1244.5,-128.5 1244.5,-98.5 1140.5,-98.5"/>
<text text-anchor="start" x="1148.5" y="-116.5" font-family="Helvetica,sans-Serif" font-size="10.00">pdal::MetadataNode</text>
<text text-anchor="middle" x="1192.5" y="-105.5" font-family="Helvetica,sans-Serif" font-size="10.00">::childNames</text>
</a>
</g>
</g>
<!-- Node20&#45;&gt;Node21 -->
<g id="edge22" class="edge"><title>Node20&#45;&gt;Node21</title>
<path fill="none" stroke="midnightblue" d="M1094.12,-106.657C1106.4,-107.52 1118.8,-108.391 1130.44,-109.209"/>
<polygon fill="midnightblue" stroke="midnightblue" points="1130.23,-112.703 1140.45,-109.913 1130.72,-105.72 1130.23,-112.703"/>
</g>
<!-- Node20&#45;&gt;Node22 -->
<g id="edge23" class="edge"><title>Node20&#45;&gt;Node22</title>
<path fill="none" stroke="midnightblue" d="M1081.65,-115.708C1086.09,-118.212 1090.26,-121.121 1094,-124.5 1126.89,-154.208 1098.92,-185.898 1130,-217.5 1131.42,-218.948 1132.94,-220.316 1134.54,-221.607"/>
<polygon fill="midnightblue" stroke="midnightblue" points="1132.83,-224.675 1143.05,-227.442 1136.78,-218.901 1132.83,-224.675"/>
</g>
<!-- Node20&#45;&gt;Node23 -->
<g id="edge24" class="edge"><title>Node20&#45;&gt;Node23</title>
<path fill="none" stroke="midnightblue" d="M1083.62,-85.4934C1099.16,-82.4681 1115.31,-79.3266 1130.22,-76.424"/>
<polygon fill="midnightblue" stroke="midnightblue" points="1131.18,-79.8027 1140.33,-74.457 1129.85,-72.9316 1131.18,-79.8027"/>
</g>
<!-- Node20&#45;&gt;Node24 -->
<g id="edge25" class="edge"><title>Node20&#45;&gt;Node24</title>
<path fill="none" stroke="midnightblue" d="M1035.11,-85.487C1059.93,-72.6773 1096.96,-54.0731 1130,-39.5 1133.83,-37.8088 1137.83,-36.1111 1141.86,-34.4433"/>
<polygon fill="midnightblue" stroke="midnightblue" points="1143.32,-37.6285 1151.26,-30.6231 1140.68,-31.1428 1143.32,-37.6285"/>
</g>
</g>
</svg>
