<?xml version="1.0" encoding="UTF-8" standalone="no"?>
<!DOCTYPE svg PUBLIC "-//W3C//DTD SVG 1.1//EN"
 "http://www.w3.org/Graphics/SVG/1.1/DTD/svg11.dtd">
<!-- Generated by graphviz version 2.38.0 (20140413.2041)
 -->
<!-- Title: anonymous_namespace{GreyhoundReaderTest::cpp}::server Pages: 1 -->
<svg width="287pt" height="78pt"
 viewBox="0.00 0.00 287.00 77.50" xmlns="http://www.w3.org/2000/svg" xmlns:xlink="http://www.w3.org/1999/xlink">
<g id="graph0" class="graph" transform="scale(1 1) rotate(0) translate(4 73.5)">
<title>anonymous_namespace{GreyhoundReaderTest::cpp}::server</title>
<polygon fill="white" stroke="none" points="-4,4 -4,-73.5 283,-73.5 283,4 -4,4"/>
<!-- Node1 -->
<g id="node1" class="node"><title>Node1</title>
<polygon fill="#bfbfbf" stroke="black" points="0,-11.5 0,-52.5 122,-52.5 122,-11.5 0,-11.5"/>
<text text-anchor="start" x="8" y="-40.5" font-family="Helvetica,sans-Serif" font-size="10.00">anonymous_namespace</text>
<text text-anchor="start" x="8" y="-29.5" font-family="Helvetica,sans-Serif" font-size="10.00">{GreyhoundReaderTest</text>
<text text-anchor="middle" x="61" y="-18.5" font-family="Helvetica,sans-Serif" font-size="10.00">::cpp}::server</text>
</g>
<!-- Node2 -->
<g id="node2" class="node"><title>Node2</title>
<g id="a_node2"><a xlink:href="classGreyhoundReaderTest.html#a3ba844c5ed2fb244320f236aa25f09ff" target="_top" xlink:title="GreyhoundReaderTest\l::GreyhoundReaderTest">
<polygon fill="white" stroke="black" points="158,-39 158,-69 279,-69 279,-39 158,-39"/>
<text text-anchor="start" x="166" y="-57" font-family="Helvetica,sans-Serif" font-size="10.00">GreyhoundReaderTest</text>
<text text-anchor="middle" x="218.5" y="-46" font-family="Helvetica,sans-Serif" font-size="10.00">::GreyhoundReaderTest</text>
</a>
</g>
</g>
<!-- Node1&#45;&gt;Node2 -->
<g id="edge1" class="edge"><title>Node1&#45;&gt;Node2</title>
<path fill="none" stroke="midnightblue" d="M132.108,-41.9188C140.686,-43.1324 149.39,-44.3638 157.796,-45.5531"/>
<polygon fill="midnightblue" stroke="midnightblue" points="132.512,-38.4412 122.12,-40.5058 131.531,-45.3722 132.512,-38.4412"/>
</g>
<!-- Node3 -->
<g id="node3" class="node"><title>Node3</title>
<g id="a_node3"><a xlink:href="GreyhoundReaderTest_8cpp.html#a9cf36985634c3277ff9ef8a401724bee" target="_top" xlink:title="TEST_F">
<polygon fill="white" stroke="black" points="192,-0.5 192,-19.5 245,-19.5 245,-0.5 192,-0.5"/>
<text text-anchor="middle" x="218.5" y="-7.5" font-family="Helvetica,sans-Serif" font-size="10.00">TEST_F</text>
</a>
</g>
</g>
<!-- Node1&#45;&gt;Node3 -->
<g id="edge2" class="edge"><title>Node1&#45;&gt;Node3</title>
<path fill="none" stroke="midnightblue" d="M132.114,-22.0804C153.323,-19.0798 175.296,-15.9709 191.641,-13.6585"/>
<polygon fill="midnightblue" stroke="midnightblue" points="131.531,-18.6278 122.12,-23.4942 132.512,-25.5588 131.531,-18.6278"/>
</g>
</g>
</svg>
