<?xml version="1.0" encoding="UTF-8" standalone="no"?>
<!DOCTYPE svg PUBLIC "-//W3C//DTD SVG 1.1//EN"
 "http://www.w3.org/Graphics/SVG/1.1/DTD/svg11.dtd">
<!-- Generated by graphviz version 2.38.0 (20140413.2041)
 -->
<!-- Title: anonymous_namespace{PgpointcloudWriterTest::cpp}::getTestDBTempConn Pages: 1 -->
<svg width="485pt" height="50pt"
 viewBox="0.00 0.00 485.00 50.00" xmlns="http://www.w3.org/2000/svg" xmlns:xlink="http://www.w3.org/1999/xlink">
<g id="graph0" class="graph" transform="scale(1 1) rotate(0) translate(4 46)">
<title>anonymous_namespace{PgpointcloudWriterTest::cpp}::getTestDBTempConn</title>
<polygon fill="white" stroke="none" points="-4,4 -4,-46 481,-46 481,4 -4,4"/>
<!-- Node1 -->
<g id="node1" class="node"><title>Node1</title>
<polygon fill="#bfbfbf" stroke="black" points="0,-0.5 0,-41.5 143,-41.5 143,-0.5 0,-0.5"/>
<text text-anchor="start" x="8" y="-29.5" font-family="Helvetica,sans-Serif" font-size="10.00">anonymous_namespace</text>
<text text-anchor="start" x="8" y="-18.5" font-family="Helvetica,sans-Serif" font-size="10.00">{PgpointcloudWriterTest</text>
<text text-anchor="middle" x="71.5" y="-7.5" font-family="Helvetica,sans-Serif" font-size="10.00">::cpp}::getTestDBTempConn</text>
</g>
<!-- Node2 -->
<g id="node2" class="node"><title>Node2</title>
<g id="a_node2"><a xlink:href="namespaceanonymous__namespace_02PgpointcloudWriterTest_8cpp_03.html#a60cd6cde3d83fb8f2d5b592fb90d4013" target="_top" xlink:title="anonymous_namespace\l\{PgpointcloudWriterTest\l::cpp\}::getConnectionString">
<polygon fill="white" stroke="black" points="179,-0.5 179,-41.5 315,-41.5 315,-0.5 179,-0.5"/>
<text text-anchor="start" x="187" y="-29.5" font-family="Helvetica,sans-Serif" font-size="10.00">anonymous_namespace</text>
<text text-anchor="start" x="187" y="-18.5" font-family="Helvetica,sans-Serif" font-size="10.00">{PgpointcloudWriterTest</text>
<text text-anchor="middle" x="247" y="-7.5" font-family="Helvetica,sans-Serif" font-size="10.00">::cpp}::getConnectionString</text>
</a>
</g>
</g>
<!-- Node1&#45;&gt;Node2 -->
<g id="edge1" class="edge"><title>Node1&#45;&gt;Node2</title>
<path fill="none" stroke="midnightblue" d="M143.069,-21C151.473,-21 160.087,-21 168.58,-21"/>
<polygon fill="midnightblue" stroke="midnightblue" points="168.858,-24.5001 178.858,-21 168.858,-17.5001 168.858,-24.5001"/>
</g>
<!-- Node3 -->
<g id="node3" class="node"><title>Node3</title>
<g id="a_node3"><a xlink:href="namespaceanonymous__namespace_02PgpointcloudWriterTest_8cpp_03.html#ad0bb9895a6185a82f1e347e742957476" target="_top" xlink:title="anonymous_namespace\l\{PgpointcloudWriterTest\l::cpp\}::getTestConnBase">
<polygon fill="white" stroke="black" points="351,-0.5 351,-41.5 477,-41.5 477,-0.5 351,-0.5"/>
<text text-anchor="start" x="359" y="-29.5" font-family="Helvetica,sans-Serif" font-size="10.00">anonymous_namespace</text>
<text text-anchor="start" x="359" y="-18.5" font-family="Helvetica,sans-Serif" font-size="10.00">{PgpointcloudWriterTest</text>
<text text-anchor="middle" x="414" y="-7.5" font-family="Helvetica,sans-Serif" font-size="10.00">::cpp}::getTestConnBase</text>
</a>
</g>
</g>
<!-- Node2&#45;&gt;Node3 -->
<g id="edge2" class="edge"><title>Node2&#45;&gt;Node3</title>
<path fill="none" stroke="midnightblue" d="M315.112,-21C323.485,-21 332.077,-21 340.526,-21"/>
<polygon fill="midnightblue" stroke="midnightblue" points="340.738,-24.5001 350.738,-21 340.738,-17.5001 340.738,-24.5001"/>
</g>
</g>
</svg>
