<?xml version="1.0" encoding="UTF-8" standalone="no"?>
<!DOCTYPE svg PUBLIC "-//W3C//DTD SVG 1.1//EN"
 "http://www.w3.org/Graphics/SVG/1.1/DTD/svg11.dtd">
<!-- Generated by graphviz version 2.38.0 (20140413.2041)
 -->
<!-- Title: pdal::FileUtils::createFile Pages: 1 -->
<svg width="453pt" height="203pt"
 viewBox="0.00 0.00 453.00 203.00" xmlns="http://www.w3.org/2000/svg" xmlns:xlink="http://www.w3.org/1999/xlink">
<g id="graph0" class="graph" transform="scale(1 1) rotate(0) translate(4 199)">
<title>pdal::FileUtils::createFile</title>
<polygon fill="white" stroke="none" points="-4,4 -4,-199 449,-199 449,4 -4,4"/>
<!-- Node1 -->
<g id="node1" class="node"><title>Node1</title>
<polygon fill="#bfbfbf" stroke="black" points="0,-88 0,-107 125,-107 125,-88 0,-88"/>
<text text-anchor="middle" x="62.5" y="-95" font-family="Helvetica,sans-Serif" font-size="10.00">pdal::FileUtils::createFile</text>
</g>
<!-- Node2 -->
<g id="node2" class="node"><title>Node2</title>
<g id="a_node2"><a xlink:href="classpdal_1_1TranslateKernel.html#a29dcfe64f27066795c729465ffbef49c" target="_top" xlink:title="pdal::TranslateKernel\l::execute">
<polygon fill="white" stroke="black" points="167.5,-164.5 167.5,-194.5 276.5,-194.5 276.5,-164.5 167.5,-164.5"/>
<text text-anchor="start" x="175.5" y="-182.5" font-family="Helvetica,sans-Serif" font-size="10.00">pdal::TranslateKernel</text>
<text text-anchor="middle" x="222" y="-171.5" font-family="Helvetica,sans-Serif" font-size="10.00">::execute</text>
</a>
</g>
</g>
<!-- Node1&#45;&gt;Node2 -->
<g id="edge1" class="edge"><title>Node1&#45;&gt;Node2</title>
<path fill="none" stroke="midnightblue" d="M86.856,-112.351C106.307,-124.426 134.937,-141.525 161,-154.5 167.869,-157.92 175.323,-161.287 182.565,-164.388"/>
<polygon fill="midnightblue" stroke="midnightblue" points="88.6855,-109.367 78.3519,-107.029 84.9718,-115.301 88.6855,-109.367"/>
</g>
<!-- Node3 -->
<g id="node3" class="node"><title>Node3</title>
<g id="a_node3"><a xlink:href="classpdal_1_1MyWriter.html#a9492c8ffbaee5849212bb6fd3f944374" target="_top" xlink:title="pdal::MyWriter::initialize">
<polygon fill="white" stroke="black" points="161,-126 161,-145 283,-145 283,-126 161,-126"/>
<text text-anchor="middle" x="222" y="-133" font-family="Helvetica,sans-Serif" font-size="10.00">pdal::MyWriter::initialize</text>
</a>
</g>
</g>
<!-- Node1&#45;&gt;Node3 -->
<g id="edge2" class="edge"><title>Node1&#45;&gt;Node3</title>
<path fill="none" stroke="midnightblue" d="M113.104,-109.468C135.175,-114.793 160.803,-120.976 181.542,-125.98"/>
<polygon fill="midnightblue" stroke="midnightblue" points="113.786,-106.032 103.244,-107.089 112.144,-112.837 113.786,-106.032"/>
</g>
<!-- Node5 -->
<g id="node5" class="node"><title>Node5</title>
<g id="a_node5"><a xlink:href="FileUtilsTest_8cpp.html#a3ed972b865f5ecc3d9b7851abfcea2ea" target="_top" xlink:title="TEST">
<polygon fill="white" stroke="black" points="201,-88 201,-107 243,-107 243,-88 201,-88"/>
<text text-anchor="middle" x="222" y="-95" font-family="Helvetica,sans-Serif" font-size="10.00">TEST</text>
</a>
</g>
</g>
<!-- Node1&#45;&gt;Node5 -->
<g id="edge4" class="edge"><title>Node1&#45;&gt;Node5</title>
<path fill="none" stroke="midnightblue" d="M135.483,-97.5C159.433,-97.5 184.224,-97.5 200.908,-97.5"/>
<polygon fill="midnightblue" stroke="midnightblue" points="135.296,-94.0001 125.296,-97.5 135.296,-101 135.296,-94.0001"/>
</g>
<!-- Node6 -->
<g id="node6" class="node"><title>Node6</title>
<g id="a_node6"><a xlink:href="namespacepdal.html#aa06938168593f61abd59b9a856423fe5" target="_top" xlink:title="pdal::TEST">
<polygon fill="white" stroke="black" points="189,-50 189,-69 255,-69 255,-50 189,-50"/>
<text text-anchor="middle" x="222" y="-57" font-family="Helvetica,sans-Serif" font-size="10.00">pdal::TEST</text>
</a>
</g>
</g>
<!-- Node1&#45;&gt;Node6 -->
<g id="edge5" class="edge"><title>Node1&#45;&gt;Node6</title>
<path fill="none" stroke="midnightblue" d="M113.194,-85.5104C137.956,-79.5361 167.175,-72.4863 188.944,-67.2342"/>
<polygon fill="midnightblue" stroke="midnightblue" points="112.144,-82.1631 103.244,-87.911 113.786,-88.9679 112.144,-82.1631"/>
</g>
<!-- Node7 -->
<g id="node7" class="node"><title>Node7</title>
<g id="a_node7"><a xlink:href="classpdal_1_1nitfwrap_1_1NitfWrap.html#a427c1cc359051aed8f90ec5ba317de89" target="_top" xlink:title="pdal::nitfwrap::NitfWrap\l::unwrap">
<polygon fill="white" stroke="black" points="162,-0.5 162,-30.5 282,-30.5 282,-0.5 162,-0.5"/>
<text text-anchor="start" x="170" y="-18.5" font-family="Helvetica,sans-Serif" font-size="10.00">pdal::nitfwrap::NitfWrap</text>
<text text-anchor="middle" x="222" y="-7.5" font-family="Helvetica,sans-Serif" font-size="10.00">::unwrap</text>
</a>
</g>
</g>
<!-- Node1&#45;&gt;Node7 -->
<g id="edge6" class="edge"><title>Node1&#45;&gt;Node7</title>
<path fill="none" stroke="midnightblue" d="M86.856,-82.6488C106.307,-70.5744 134.937,-53.475 161,-40.5 167.869,-37.0802 175.323,-33.7132 182.565,-30.6123"/>
<polygon fill="midnightblue" stroke="midnightblue" points="84.9718,-79.699 78.3519,-87.9711 88.6855,-85.6328 84.9718,-79.699"/>
</g>
<!-- Node4 -->
<g id="node4" class="node"><title>Node4</title>
<g id="a_node4"><a xlink:href="classpdal_1_1MyWriter.html#a7a1ec3d8ebe4b4602537edecf4a00e4b" target="_top" xlink:title="pdal::MyWriter::MyWriter">
<polygon fill="white" stroke="black" points="319,-126 319,-145 445,-145 445,-126 319,-126"/>
<text text-anchor="middle" x="382" y="-133" font-family="Helvetica,sans-Serif" font-size="10.00">pdal::MyWriter::MyWriter</text>
</a>
</g>
</g>
<!-- Node3&#45;&gt;Node4 -->
<g id="edge3" class="edge"><title>Node3&#45;&gt;Node4</title>
<path fill="none" stroke="midnightblue" d="M293.437,-135.5C301.919,-135.5 310.534,-135.5 318.886,-135.5"/>
<polygon fill="midnightblue" stroke="midnightblue" points="293.184,-132 283.184,-135.5 293.184,-139 293.184,-132"/>
</g>
<!-- Node8 -->
<g id="node8" class="node"><title>Node8</title>
<g id="a_node8"><a xlink:href="classpdal_1_1nitfwrap_1_1NitfWrap.html#a507defc6c08af645c161ee875c58374a" target="_top" xlink:title="pdal::nitfwrap::NitfWrap\l::NitfWrap">
<polygon fill="white" stroke="black" points="322,-0.5 322,-30.5 442,-30.5 442,-0.5 322,-0.5"/>
<text text-anchor="start" x="330" y="-18.5" font-family="Helvetica,sans-Serif" font-size="10.00">pdal::nitfwrap::NitfWrap</text>
<text text-anchor="middle" x="382" y="-7.5" font-family="Helvetica,sans-Serif" font-size="10.00">::NitfWrap</text>
</a>
</g>
</g>
<!-- Node7&#45;&gt;Node8 -->
<g id="edge7" class="edge"><title>Node7&#45;&gt;Node8</title>
<path fill="none" stroke="midnightblue" d="M292.431,-15.5C302.264,-15.5 312.298,-15.5 321.91,-15.5"/>
<polygon fill="midnightblue" stroke="midnightblue" points="292.283,-12.0001 282.283,-15.5 292.283,-19.0001 292.283,-12.0001"/>
</g>
</g>
</svg>
