<?xml version="1.0" encoding="UTF-8" standalone="no"?>
<!DOCTYPE svg PUBLIC "-//W3C//DTD SVG 1.1//EN"
 "http://www.w3.org/Graphics/SVG/1.1/DTD/svg11.dtd">
<!-- Generated by graphviz version 2.38.0 (20140413.2041)
 -->
<!-- Title: pdal::Utils::simpleWordexp Pages: 1 -->
<svg width="330pt" height="104pt"
 viewBox="0.00 0.00 330.00 104.00" xmlns="http://www.w3.org/2000/svg" xmlns:xlink="http://www.w3.org/1999/xlink">
<g id="graph0" class="graph" transform="scale(1 1) rotate(0) translate(4 100)">
<title>pdal::Utils::simpleWordexp</title>
<polygon fill="white" stroke="none" points="-4,4 -4,-100 326,-100 326,4 -4,4"/>
<!-- Node1 -->
<g id="node1" class="node"><title>Node1</title>
<polygon fill="#bfbfbf" stroke="black" points="0,-38.5 0,-57.5 134,-57.5 134,-38.5 0,-38.5"/>
<text text-anchor="middle" x="67" y="-45.5" font-family="Helvetica,sans-Serif" font-size="10.00">pdal::Utils::simpleWordexp</text>
</g>
<!-- Node2 -->
<g id="node2" class="node"><title>Node2</title>
<g id="a_node2"><a xlink:href="classpdal_1_1Options.html#a1a7ad95963052f30ee58f7958c201edf" target="_top" xlink:title="pdal::Options::fromCmdlineFile">
<polygon fill="white" stroke="black" points="170,-76.5 170,-95.5 322,-95.5 322,-76.5 170,-76.5"/>
<text text-anchor="middle" x="246" y="-83.5" font-family="Helvetica,sans-Serif" font-size="10.00">pdal::Options::fromCmdlineFile</text>
</a>
</g>
</g>
<!-- Node1&#45;&gt;Node2 -->
<g id="edge1" class="edge"><title>Node1&#45;&gt;Node2</title>
<path fill="none" stroke="midnightblue" d="M122.742,-59.7526C147.77,-65.1258 177.035,-71.4086 200.657,-76.4799"/>
<polygon fill="midnightblue" stroke="midnightblue" points="123.176,-56.2661 112.665,-57.589 121.707,-63.1102 123.176,-56.2661"/>
</g>
<!-- Node3 -->
<g id="node3" class="node"><title>Node3</title>
<g id="a_node3"><a xlink:href="namespacepdal_1_1Utils.html#a4a001b79c83dbf983f9828cf168f19f4" target="_top" xlink:title="pdal::Utils::split2">
<polygon fill="white" stroke="black" points="201,-38.5 201,-57.5 291,-57.5 291,-38.5 201,-38.5"/>
<text text-anchor="middle" x="246" y="-45.5" font-family="Helvetica,sans-Serif" font-size="10.00">pdal::Utils::split2</text>
</a>
</g>
</g>
<!-- Node1&#45;&gt;Node3 -->
<g id="edge2" class="edge"><title>Node1&#45;&gt;Node3</title>
<path fill="none" stroke="midnightblue" d="M144.199,-48C163.576,-48 183.755,-48 200.922,-48"/>
<polygon fill="midnightblue" stroke="midnightblue" points="144.16,-44.5001 134.16,-48 144.16,-51.5001 144.16,-44.5001"/>
</g>
<!-- Node4 -->
<g id="node4" class="node"><title>Node4</title>
<g id="a_node4"><a xlink:href="UtilsTest_8cpp.html#acfdb8da31f4253b62e8c430d239b9c8f" target="_top" xlink:title="TEST">
<polygon fill="white" stroke="black" points="225,-0.5 225,-19.5 267,-19.5 267,-0.5 225,-0.5"/>
<text text-anchor="middle" x="246" y="-7.5" font-family="Helvetica,sans-Serif" font-size="10.00">TEST</text>
</a>
</g>
</g>
<!-- Node1&#45;&gt;Node4 -->
<g id="edge3" class="edge"><title>Node1&#45;&gt;Node4</title>
<path fill="none" stroke="midnightblue" d="M122.67,-36.2629C157.347,-28.8182 200.181,-19.6221 224.868,-14.3221"/>
<polygon fill="midnightblue" stroke="midnightblue" points="121.707,-32.8898 112.665,-38.411 123.176,-39.7339 121.707,-32.8898"/>
</g>
</g>
</svg>
