<?xml version="1.0" encoding="UTF-8" standalone="no"?>
<!DOCTYPE svg PUBLIC "-//W3C//DTD SVG 1.1//EN"
 "http://www.w3.org/Graphics/SVG/1.1/DTD/svg11.dtd">
<!-- Generated by graphviz version 2.38.0 (20140413.2041)
 -->
<!-- Title: pdal::Utils::base64_decode Pages: 1 -->
<svg width="1004pt" height="541pt"
 viewBox="0.00 0.00 1004.00 540.50" xmlns="http://www.w3.org/2000/svg" xmlns:xlink="http://www.w3.org/1999/xlink">
<g id="graph0" class="graph" transform="scale(1 1) rotate(0) translate(4 536.5)">
<title>pdal::Utils::base64_decode</title>
<polygon fill="white" stroke="none" points="-4,4 -4,-536.5 1000,-536.5 1000,4 -4,4"/>
<!-- Node1 -->
<g id="node1" class="node"><title>Node1</title>
<polygon fill="#bfbfbf" stroke="black" points="0,-403.5 0,-433.5 98,-433.5 98,-403.5 0,-403.5"/>
<text text-anchor="start" x="8" y="-421.5" font-family="Helvetica,sans-Serif" font-size="10.00">pdal::Utils::base64</text>
<text text-anchor="middle" x="49" y="-410.5" font-family="Helvetica,sans-Serif" font-size="10.00">_decode</text>
</g>
<!-- Node2 -->
<g id="node2" class="node"><title>Node2</title>
<g id="a_node2"><a xlink:href="classpdal_1_1LasWriter.html#aabf75f7bd3615f00707fc687dc693d0f" target="_top" xlink:title="Add VLRs forwarded from the input. ">
<polygon fill="white" stroke="black" points="315,-475 315,-494 472,-494 472,-475 315,-475"/>
<text text-anchor="middle" x="393.5" y="-482" font-family="Helvetica,sans-Serif" font-size="10.00">pdal::LasWriter::addForwardVlrs</text>
</a>
</g>
</g>
<!-- Node1&#45;&gt;Node2 -->
<g id="edge1" class="edge"><title>Node1&#45;&gt;Node2</title>
<path fill="none" stroke="midnightblue" d="M79.5264,-439.226C95.014,-448.978 114.734,-459.714 134,-465.5 192.936,-483.2 262.67,-487.411 314.848,-487.494"/>
<polygon fill="midnightblue" stroke="midnightblue" points="81.2246,-436.155 70.9321,-433.642 77.4111,-442.025 81.2246,-436.155"/>
</g>
<!-- Node4 -->
<g id="node4" class="node"><title>Node4</title>
<g id="a_node4"><a xlink:href="classpdal_1_1LasWriter.html#acd9544d91246e45871281c600e414281" target="_top" xlink:title="pdal::LasWriter::addUserVlrs">
<polygon fill="white" stroke="black" points="134,-513 134,-532 277,-532 277,-513 134,-513"/>
<text text-anchor="middle" x="205.5" y="-520" font-family="Helvetica,sans-Serif" font-size="10.00">pdal::LasWriter::addUserVlrs</text>
</a>
</g>
</g>
<!-- Node1&#45;&gt;Node4 -->
<g id="edge3" class="edge"><title>Node1&#45;&gt;Node4</title>
<path fill="none" stroke="midnightblue" d="M68.8095,-441.166C84.6023,-458.924 108.605,-483.12 134,-498.5 143.953,-504.528 155.622,-509.284 166.569,-512.917"/>
<polygon fill="midnightblue" stroke="midnightblue" points="71.3588,-438.763 62.1556,-433.514 66.0768,-443.357 71.3588,-438.763"/>
</g>
<!-- Node5 -->
<g id="node5" class="node"><title>Node5</title>
<g id="a_node5"><a xlink:href="namespacepdal_1_1Utils.html#a6afb17d343ab75a055584b85bcf437bc" target="_top" xlink:title="pdal::Utils::base64\l_encode">
<polygon fill="white" stroke="black" points="156.5,-425.5 156.5,-455.5 254.5,-455.5 254.5,-425.5 156.5,-425.5"/>
<text text-anchor="start" x="164.5" y="-443.5" font-family="Helvetica,sans-Serif" font-size="10.00">pdal::Utils::base64</text>
<text text-anchor="middle" x="205.5" y="-432.5" font-family="Helvetica,sans-Serif" font-size="10.00">_encode</text>
</a>
</g>
</g>
<!-- Node1&#45;&gt;Node5 -->
<g id="edge5" class="edge"><title>Node1&#45;&gt;Node5</title>
<path fill="none" stroke="midnightblue" d="M108.292,-426.8C124.192,-429.065 141.235,-431.491 156.492,-433.664"/>
<polygon fill="midnightblue" stroke="midnightblue" points="108.431,-423.285 98.0379,-425.34 107.445,-430.215 108.431,-423.285"/>
</g>
<!-- Node6 -->
<g id="node6" class="node"><title>Node6</title>
<g id="a_node6"><a xlink:href="classpdal_1_1BpfWriter.html#a526c1c3f5d9b660155d8f44a5ade8de2" target="_top" xlink:title="pdal::BpfWriter::initialize">
<polygon fill="white" stroke="black" points="144,-387 144,-406 267,-406 267,-387 144,-387"/>
<text text-anchor="middle" x="205.5" y="-394" font-family="Helvetica,sans-Serif" font-size="10.00">pdal::BpfWriter::initialize</text>
</a>
</g>
</g>
<!-- Node1&#45;&gt;Node6 -->
<g id="edge6" class="edge"><title>Node1&#45;&gt;Node6</title>
<path fill="none" stroke="midnightblue" d="M108.131,-410.222C119.834,-408.556 132.161,-406.801 143.943,-405.123"/>
<polygon fill="midnightblue" stroke="midnightblue" points="107.445,-406.785 98.0379,-411.66 108.431,-413.715 107.445,-406.785"/>
</g>
<!-- Node7 -->
<g id="node7" class="node"><title>Node7</title>
<g id="a_node7"><a xlink:href="BPFTest_8cpp.html#ad6914e3a20cefae0971f8586adce22d7" target="_top" xlink:title="TEST">
<polygon fill="white" stroke="black" points="184.5,-349 184.5,-368 226.5,-368 226.5,-349 184.5,-349"/>
<text text-anchor="middle" x="205.5" y="-356" font-family="Helvetica,sans-Serif" font-size="10.00">TEST</text>
</a>
</g>
</g>
<!-- Node1&#45;&gt;Node7 -->
<g id="edge7" class="edge"><title>Node1&#45;&gt;Node7</title>
<path fill="none" stroke="midnightblue" d="M86.5456,-398.777C101.047,-391.453 118.045,-383.481 134,-377.5 150.618,-371.27 170.144,-366.172 184.428,-362.831"/>
<polygon fill="midnightblue" stroke="midnightblue" points="84.7084,-395.786 77.4127,-403.468 87.907,-402.012 84.7084,-395.786"/>
</g>
<!-- Node8 -->
<g id="node8" class="node"><title>Node8</title>
<g id="a_node8"><a xlink:href="classpdal_1_1MetadataNode.html#ab5c86ccff7ced090522b31cdc6c772b6" target="_top" xlink:title="pdal::MetadataNode\l::value">
<polygon fill="white" stroke="black" points="153.5,-268.5 153.5,-298.5 257.5,-298.5 257.5,-268.5 153.5,-268.5"/>
<text text-anchor="start" x="161.5" y="-286.5" font-family="Helvetica,sans-Serif" font-size="10.00">pdal::MetadataNode</text>
<text text-anchor="middle" x="205.5" y="-275.5" font-family="Helvetica,sans-Serif" font-size="10.00">::value</text>
</a>
</g>
</g>
<!-- Node1&#45;&gt;Node8 -->
<g id="edge8" class="edge"><title>Node1&#45;&gt;Node8</title>
<path fill="none" stroke="midnightblue" d="M73.0248,-395.858C89.6397,-379.765 112.788,-357.843 134,-339.5 150.671,-325.084 170.365,-309.56 184.694,-298.521"/>
<polygon fill="midnightblue" stroke="midnightblue" points="70.1561,-393.766 65.4304,-403.248 75.038,-398.782 70.1561,-393.766"/>
</g>
<!-- Node3 -->
<g id="node3" class="node"><title>Node3</title>
<g id="a_node3"><a xlink:href="classpdal_1_1LasWriter.html#a2e5b4f04008d3784799d9e4ad029352a" target="_top" xlink:title="pdal::LasWriter::readyTable">
<polygon fill="white" stroke="black" points="516,-494 516,-513 653,-513 653,-494 516,-494"/>
<text text-anchor="middle" x="584.5" y="-501" font-family="Helvetica,sans-Serif" font-size="10.00">pdal::LasWriter::readyTable</text>
</a>
</g>
</g>
<!-- Node2&#45;&gt;Node3 -->
<g id="edge2" class="edge"><title>Node2&#45;&gt;Node3</title>
<path fill="none" stroke="midnightblue" d="M482.428,-493.339C493.633,-494.466 504.961,-495.605 515.779,-496.692"/>
<polygon fill="midnightblue" stroke="midnightblue" points="482.492,-489.828 472.192,-492.31 481.791,-496.793 482.492,-489.828"/>
</g>
<!-- Node4&#45;&gt;Node3 -->
<g id="edge4" class="edge"><title>Node4&#45;&gt;Node3</title>
<path fill="none" stroke="midnightblue" d="M287.662,-518.41C355.719,-514.98 451.773,-510.139 515.762,-506.914"/>
<polygon fill="midnightblue" stroke="midnightblue" points="287.222,-514.927 277.411,-518.926 287.574,-521.918 287.222,-514.927"/>
</g>
<!-- Node8&#45;&gt;Node2 -->
<g id="edge12" class="edge"><title>Node8&#45;&gt;Node2</title>
<path fill="none" stroke="midnightblue" d="M241.036,-304.289C253.962,-313.608 267.741,-325.639 277,-339.5 309.35,-387.93 270.927,-425.227 313,-465.5 316.998,-469.327 321.623,-472.429 326.591,-474.938"/>
<polygon fill="midnightblue" stroke="midnightblue" points="242.942,-301.352 232.721,-298.564 238.973,-307.117 242.942,-301.352"/>
</g>
<!-- Node9 -->
<g id="node9" class="node"><title>Node9</title>
<g id="a_node9"><a xlink:href="classpdal_1_1OciReader.html#a4b1be832c15f90d15eb707f5d280ebaf" target="_top" xlink:title="pdal::OciReader::addDimensions">
<polygon fill="white" stroke="black" points="313,-361 313,-380 474,-380 474,-361 313,-361"/>
<text text-anchor="middle" x="393.5" y="-368" font-family="Helvetica,sans-Serif" font-size="10.00">pdal::OciReader::addDimensions</text>
</a>
</g>
</g>
<!-- Node8&#45;&gt;Node9 -->
<g id="edge9" class="edge"><title>Node8&#45;&gt;Node9</title>
<path fill="none" stroke="midnightblue" d="M234.099,-304.783C254.798,-319.807 284.376,-339.35 313,-351.5 321.883,-355.27 331.656,-358.378 341.219,-360.91"/>
<polygon fill="midnightblue" stroke="midnightblue" points="235.924,-301.779 225.8,-298.655 231.766,-307.411 235.924,-301.779"/>
</g>
<!-- Node10 -->
<g id="node10" class="node"><title>Node10</title>
<g id="a_node10"><a xlink:href="namespacepdal.html#a11786e6ac4fd15c32dea2febd0c4cb61" target="_top" xlink:title="pdal::addForwardMetadata">
<polygon fill="white" stroke="black" points="327.5,-323 327.5,-342 459.5,-342 459.5,-323 327.5,-323"/>
<text text-anchor="middle" x="393.5" y="-330" font-family="Helvetica,sans-Serif" font-size="10.00">pdal::addForwardMetadata</text>
</a>
</g>
</g>
<!-- Node8&#45;&gt;Node10 -->
<g id="edge10" class="edge"><title>Node8&#45;&gt;Node10</title>
<path fill="none" stroke="midnightblue" d="M267.222,-301.057C282.158,-305.251 298.132,-309.631 313,-313.5 325.36,-316.716 338.855,-320.02 351.16,-322.951"/>
<polygon fill="midnightblue" stroke="midnightblue" points="268.153,-297.683 257.578,-298.336 266.252,-304.42 268.153,-297.683"/>
</g>
<!-- Node12 -->
<g id="node12" class="node"><title>Node12</title>
<g id="a_node12"><a xlink:href="namespaceanonymous__namespace_02NitfWriterTest_8cpp_03.html#a9850e52970d9cc3d2e55bc35a299a6dd" target="_top" xlink:title="anonymous_namespace\l\{NitfWriterTest::cpp\}\l::compare_contents">
<polygon fill="white" stroke="black" points="332.5,-263 332.5,-304 454.5,-304 454.5,-263 332.5,-263"/>
<text text-anchor="start" x="340.5" y="-292" font-family="Helvetica,sans-Serif" font-size="10.00">anonymous_namespace</text>
<text text-anchor="start" x="340.5" y="-281" font-family="Helvetica,sans-Serif" font-size="10.00">{NitfWriterTest::cpp}</text>
<text text-anchor="middle" x="393.5" y="-270" font-family="Helvetica,sans-Serif" font-size="10.00">::compare_contents</text>
</a>
</g>
</g>
<!-- Node8&#45;&gt;Node12 -->
<g id="edge13" class="edge"><title>Node8&#45;&gt;Node12</title>
<path fill="none" stroke="midnightblue" d="M268.09,-283.5C288.801,-283.5 311.867,-283.5 332.457,-283.5"/>
<polygon fill="midnightblue" stroke="midnightblue" points="267.818,-280 257.818,-283.5 267.818,-287 267.818,-280"/>
</g>
<!-- Node14 -->
<g id="node14" class="node"><title>Node14</title>
<g id="a_node14"><a xlink:href="namespacepdal_1_1plang.html#aadb0654c8e74d07ceb868c94f430f94a" target="_top" xlink:title="pdal::plang::fromMetadata">
<polygon fill="white" stroke="black" points="328.5,-225 328.5,-244 458.5,-244 458.5,-225 328.5,-225"/>
<text text-anchor="middle" x="393.5" y="-232" font-family="Helvetica,sans-Serif" font-size="10.00">pdal::plang::fromMetadata</text>
</a>
</g>
</g>
<!-- Node8&#45;&gt;Node14 -->
<g id="edge15" class="edge"><title>Node8&#45;&gt;Node14</title>
<path fill="none" stroke="midnightblue" d="M267.222,-265.943C282.158,-261.749 298.132,-257.369 313,-253.5 325.36,-250.284 338.855,-246.98 351.16,-244.049"/>
<polygon fill="midnightblue" stroke="midnightblue" points="266.252,-262.58 257.578,-268.664 268.153,-269.317 266.252,-262.58"/>
</g>
<!-- Node17 -->
<g id="node17" class="node"><title>Node17</title>
<g id="a_node17"><a xlink:href="classpdal_1_1TIndexKernel.html#a496ad191832c2af610f60ae5ef00d1d0" target="_top" xlink:title="pdal::TIndexKernel\l::getFileInfo">
<polygon fill="white" stroke="black" points="344.5,-175.5 344.5,-205.5 442.5,-205.5 442.5,-175.5 344.5,-175.5"/>
<text text-anchor="start" x="352.5" y="-193.5" font-family="Helvetica,sans-Serif" font-size="10.00">pdal::TIndexKernel</text>
<text text-anchor="middle" x="393.5" y="-182.5" font-family="Helvetica,sans-Serif" font-size="10.00">::getFileInfo</text>
</a>
</g>
</g>
<!-- Node8&#45;&gt;Node17 -->
<g id="edge18" class="edge"><title>Node8&#45;&gt;Node17</title>
<path fill="none" stroke="midnightblue" d="M235.14,-262.264C255.925,-247.603 285.167,-228.483 313,-215.5 322.834,-210.913 333.73,-206.868 344.22,-203.441"/>
<polygon fill="midnightblue" stroke="midnightblue" points="232.876,-259.58 226.778,-268.244 236.948,-265.274 232.876,-259.58"/>
</g>
<!-- Node20 -->
<g id="node20" class="node"><title>Node20</title>
<g id="a_node20"><a xlink:href="classpdal_1_1LasWriter.html#ade04e04a657bb03720151c59a8c86b45" target="_top" xlink:title="pdal::LasWriter::handleHeader\lForward">
<polygon fill="white" stroke="black" points="319,-126.5 319,-156.5 468,-156.5 468,-126.5 319,-126.5"/>
<text text-anchor="start" x="327" y="-144.5" font-family="Helvetica,sans-Serif" font-size="10.00">pdal::LasWriter::handleHeader</text>
<text text-anchor="middle" x="393.5" y="-133.5" font-family="Helvetica,sans-Serif" font-size="10.00">Forward</text>
</a>
</g>
</g>
<!-- Node8&#45;&gt;Node20 -->
<g id="edge21" class="edge"><title>Node8&#45;&gt;Node20</title>
<path fill="none" stroke="midnightblue" d="M221.717,-260.058C240.209,-233.385 273.839,-190.319 313,-165.5 318.358,-162.104 324.223,-159.167 330.262,-156.63"/>
<polygon fill="midnightblue" stroke="midnightblue" points="218.759,-258.184 216.04,-268.425 224.551,-262.115 218.759,-258.184"/>
</g>
<!-- Node25 -->
<g id="node25" class="node"><title>Node25</title>
<g id="a_node25"><a xlink:href="HexbinFilterTest_8cpp.html#aa81c0c0394d46b39e59283dea89f3bd8" target="_top" xlink:title="printChildren">
<polygon fill="white" stroke="black" points="358,-88 358,-107 429,-107 429,-88 358,-88"/>
<text text-anchor="middle" x="393.5" y="-95" font-family="Helvetica,sans-Serif" font-size="10.00">printChildren</text>
</a>
</g>
</g>
<!-- Node8&#45;&gt;Node25 -->
<g id="edge26" class="edge"><title>Node8&#45;&gt;Node25</title>
<path fill="none" stroke="midnightblue" d="M215.297,-258.744C229.736,-221.819 262.051,-152.785 313,-116.5 325.946,-107.28 342.781,-102.491 357.624,-100.02"/>
<polygon fill="midnightblue" stroke="midnightblue" points="211.965,-257.662 211.698,-268.253 218.511,-260.14 211.965,-257.662"/>
</g>
<!-- Node27 -->
<g id="node27" class="node"><title>Node27</title>
<g id="a_node27"><a xlink:href="classpdal_1_1OciReader.html#a037e27a09676d06f791f4b39945d7d8e" target="_top" xlink:title="pdal::OciReader::readOci">
<polygon fill="white" stroke="black" points="330,-50 330,-69 457,-69 457,-50 330,-50"/>
<text text-anchor="middle" x="393.5" y="-57" font-family="Helvetica,sans-Serif" font-size="10.00">pdal::OciReader::readOci</text>
</a>
</g>
</g>
<!-- Node8&#45;&gt;Node27 -->
<g id="edge28" class="edge"><title>Node8&#45;&gt;Node27</title>
<path fill="none" stroke="midnightblue" d="M212.222,-258.579C223.562,-215.026 253.142,-125.257 313,-78.5 318.033,-74.569 323.752,-71.4329 329.762,-68.9337"/>
<polygon fill="midnightblue" stroke="midnightblue" points="208.806,-257.81 209.782,-268.36 215.598,-259.504 208.806,-257.81"/>
</g>
<!-- Node29 -->
<g id="node29" class="node"><title>Node29</title>
<g id="a_node29"><a xlink:href="classpdal_1_1SQLiteReader.html#a751ed702c4435a20319840b0727d1a57" target="_top" xlink:title="pdal::SQLiteReader\l::readPatch">
<polygon fill="white" stroke="black" points="342.5,-0.5 342.5,-30.5 444.5,-30.5 444.5,-0.5 342.5,-0.5"/>
<text text-anchor="start" x="350.5" y="-18.5" font-family="Helvetica,sans-Serif" font-size="10.00">pdal::SQLiteReader</text>
<text text-anchor="middle" x="393.5" y="-7.5" font-family="Helvetica,sans-Serif" font-size="10.00">::readPatch</text>
</a>
</g>
</g>
<!-- Node8&#45;&gt;Node29 -->
<g id="edge30" class="edge"><title>Node8&#45;&gt;Node29</title>
<path fill="none" stroke="midnightblue" d="M210.467,-258.376C219.536,-209.295 246.379,-100.265 313,-40.5 321.293,-33.0606 331.789,-27.8347 342.414,-24.1639"/>
<polygon fill="midnightblue" stroke="midnightblue" points="206.983,-257.982 208.705,-268.436 213.878,-259.19 206.983,-257.982"/>
</g>
<!-- Node31 -->
<g id="node31" class="node"><title>Node31</title>
<g id="a_node31"><a xlink:href="NitfReaderTest_8cpp.html#a1ddecda4511b930001aaf117a037bfca" target="_top" xlink:title="TEST">
<polygon fill="white" stroke="black" points="372.5,-437 372.5,-456 414.5,-456 414.5,-437 372.5,-437"/>
<text text-anchor="middle" x="393.5" y="-444" font-family="Helvetica,sans-Serif" font-size="10.00">TEST</text>
</a>
</g>
</g>
<!-- Node8&#45;&gt;Node31 -->
<g id="edge32" class="edge"><title>Node8&#45;&gt;Node31</title>
<path fill="none" stroke="midnightblue" d="M239.682,-304.398C252.661,-313.86 266.839,-325.964 277,-339.5 302.369,-373.295 280.913,-400.002 313,-427.5 329.486,-441.628 354.663,-445.656 372.254,-446.609"/>
<polygon fill="midnightblue" stroke="midnightblue" points="241.576,-301.452 231.38,-298.573 237.556,-307.182 241.576,-301.452"/>
</g>
<!-- Node32 -->
<g id="node32" class="node"><title>Node32</title>
<g id="a_node32"><a xlink:href="namespacepdal.html#acc912ca33465ea181fa835a4b073a77b" target="_top" xlink:title="pdal::TEST">
<polygon fill="white" stroke="black" points="360.5,-399 360.5,-418 426.5,-418 426.5,-399 360.5,-399"/>
<text text-anchor="middle" x="393.5" y="-406" font-family="Helvetica,sans-Serif" font-size="10.00">pdal::TEST</text>
</a>
</g>
</g>
<!-- Node8&#45;&gt;Node32 -->
<g id="edge33" class="edge"><title>Node8&#45;&gt;Node32</title>
<path fill="none" stroke="midnightblue" d="M236.721,-304.597C249.81,-314.446 264.875,-326.789 277,-339.5 295.9,-359.315 290.257,-374.25 313,-389.5 326.908,-398.826 344.885,-403.591 360.226,-406.019"/>
<polygon fill="midnightblue" stroke="midnightblue" points="238.584,-301.622 228.457,-298.507 234.431,-307.257 238.584,-301.622"/>
</g>
<!-- Node11 -->
<g id="node11" class="node"><title>Node11</title>
<g id="a_node11"><a xlink:href="classpdal_1_1LasReader.html#ae37da23f5ec384cb4b43be8c9676805a" target="_top" xlink:title="pdal::LasReader::extract\lHeaderMetadata">
<polygon fill="white" stroke="black" points="522.5,-317.5 522.5,-347.5 646.5,-347.5 646.5,-317.5 522.5,-317.5"/>
<text text-anchor="start" x="530.5" y="-335.5" font-family="Helvetica,sans-Serif" font-size="10.00">pdal::LasReader::extract</text>
<text text-anchor="middle" x="584.5" y="-324.5" font-family="Helvetica,sans-Serif" font-size="10.00">HeaderMetadata</text>
</a>
</g>
</g>
<!-- Node10&#45;&gt;Node11 -->
<g id="edge11" class="edge"><title>Node10&#45;&gt;Node11</title>
<path fill="none" stroke="midnightblue" d="M469.726,-332.5C487.235,-332.5 505.665,-332.5 522.474,-332.5"/>
<polygon fill="midnightblue" stroke="midnightblue" points="469.543,-329 459.543,-332.5 469.543,-336 469.543,-329"/>
</g>
<!-- Node13 -->
<g id="node13" class="node"><title>Node13</title>
<g id="a_node13"><a xlink:href="NitfWriterTest_8cpp.html#ae0d1cacfb011586d52d1de00e1aca19f" target="_top" xlink:title="TEST">
<polygon fill="white" stroke="black" points="563.5,-274 563.5,-293 605.5,-293 605.5,-274 563.5,-274"/>
<text text-anchor="middle" x="584.5" y="-281" font-family="Helvetica,sans-Serif" font-size="10.00">TEST</text>
</a>
</g>
</g>
<!-- Node12&#45;&gt;Node13 -->
<g id="edge14" class="edge"><title>Node12&#45;&gt;Node13</title>
<path fill="none" stroke="midnightblue" d="M464.822,-283.5C500.016,-283.5 540.007,-283.5 563.421,-283.5"/>
<polygon fill="midnightblue" stroke="midnightblue" points="464.561,-280 454.56,-283.5 464.56,-287 464.561,-280"/>
</g>
<!-- Node15 -->
<g id="node15" class="node"><title>Node15</title>
<g id="a_node15"><a xlink:href="classpdal_1_1plang_1_1Invocation.html#adfe14b064df9a0d4dcf2d1da8a7cb1d8" target="_top" xlink:title="pdal::plang::Invocation\l::begin">
<polygon fill="white" stroke="black" points="527,-224.5 527,-254.5 642,-254.5 642,-224.5 527,-224.5"/>
<text text-anchor="start" x="535" y="-242.5" font-family="Helvetica,sans-Serif" font-size="10.00">pdal::plang::Invocation</text>
<text text-anchor="middle" x="584.5" y="-231.5" font-family="Helvetica,sans-Serif" font-size="10.00">::begin</text>
</a>
</g>
</g>
<!-- Node14&#45;&gt;Node15 -->
<g id="edge16" class="edge"><title>Node14&#45;&gt;Node15</title>
<path fill="none" stroke="midnightblue" d="M468.977,-236.47C488.189,-236.979 508.557,-237.517 526.707,-237.998"/>
<polygon fill="midnightblue" stroke="midnightblue" points="468.84,-232.966 458.751,-236.2 468.654,-239.963 468.84,-232.966"/>
</g>
<!-- Node16 -->
<g id="node16" class="node"><title>Node16</title>
<g id="a_node16"><a xlink:href="classpdal_1_1PythonFilter.html#a237d32f937771c1f5792170606a440be" target="_top" xlink:title="pdal::PythonFilter::run">
<polygon fill="white" stroke="black" points="707,-230 707,-249 820,-249 820,-230 707,-230"/>
<text text-anchor="middle" x="763.5" y="-237" font-family="Helvetica,sans-Serif" font-size="10.00">pdal::PythonFilter::run</text>
</a>
</g>
</g>
<!-- Node15&#45;&gt;Node16 -->
<g id="edge17" class="edge"><title>Node15&#45;&gt;Node16</title>
<path fill="none" stroke="midnightblue" d="M652.564,-239.5C670.469,-239.5 689.619,-239.5 706.838,-239.5"/>
<polygon fill="midnightblue" stroke="midnightblue" points="652.478,-236 642.478,-239.5 652.478,-243 652.478,-236"/>
</g>
<!-- Node18 -->
<g id="node18" class="node"><title>Node18</title>
<g id="a_node18"><a xlink:href="classpdal_1_1TIndexKernel.html#a4b8641b118372c9dc004ff4ed105a91e" target="_top" xlink:title="pdal::TIndexKernel\l::createFile">
<polygon fill="white" stroke="black" points="535.5,-175.5 535.5,-205.5 633.5,-205.5 633.5,-175.5 535.5,-175.5"/>
<text text-anchor="start" x="543.5" y="-193.5" font-family="Helvetica,sans-Serif" font-size="10.00">pdal::TIndexKernel</text>
<text text-anchor="middle" x="584.5" y="-182.5" font-family="Helvetica,sans-Serif" font-size="10.00">::createFile</text>
</a>
</g>
</g>
<!-- Node17&#45;&gt;Node18 -->
<g id="edge19" class="edge"><title>Node17&#45;&gt;Node18</title>
<path fill="none" stroke="midnightblue" d="M452.961,-190.5C479.422,-190.5 510.317,-190.5 535.406,-190.5"/>
<polygon fill="midnightblue" stroke="midnightblue" points="452.682,-187 442.682,-190.5 452.682,-194 452.682,-187"/>
</g>
<!-- Node19 -->
<g id="node19" class="node"><title>Node19</title>
<g id="a_node19"><a xlink:href="classpdal_1_1TIndexKernel.html#a607f1463d5518bbaa66662a905b48e51" target="_top" xlink:title="pdal::TIndexKernel\l::execute">
<polygon fill="white" stroke="black" points="714.5,-175.5 714.5,-205.5 812.5,-205.5 812.5,-175.5 714.5,-175.5"/>
<text text-anchor="start" x="722.5" y="-193.5" font-family="Helvetica,sans-Serif" font-size="10.00">pdal::TIndexKernel</text>
<text text-anchor="middle" x="763.5" y="-182.5" font-family="Helvetica,sans-Serif" font-size="10.00">::execute</text>
</a>
</g>
</g>
<!-- Node18&#45;&gt;Node19 -->
<g id="edge20" class="edge"><title>Node18&#45;&gt;Node19</title>
<path fill="none" stroke="midnightblue" d="M644.121,-190.5C666.956,-190.5 692.799,-190.5 714.499,-190.5"/>
<polygon fill="midnightblue" stroke="midnightblue" points="643.866,-187 633.866,-190.5 643.866,-194 643.866,-187"/>
</g>
<!-- Node21 -->
<g id="node21" class="node"><title>Node21</title>
<g id="a_node21"><a xlink:href="classpdal_1_1LasWriter.html#aa362380c11c834b5fe51d81b099ba7c5" target="_top" xlink:title="pdal::LasWriter::handleHeader\lForwards">
<polygon fill="white" stroke="black" points="510,-126.5 510,-156.5 659,-156.5 659,-126.5 510,-126.5"/>
<text text-anchor="start" x="518" y="-144.5" font-family="Helvetica,sans-Serif" font-size="10.00">pdal::LasWriter::handleHeader</text>
<text text-anchor="middle" x="584.5" y="-133.5" font-family="Helvetica,sans-Serif" font-size="10.00">Forwards</text>
</a>
</g>
</g>
<!-- Node20&#45;&gt;Node21 -->
<g id="edge22" class="edge"><title>Node20&#45;&gt;Node21</title>
<path fill="none" stroke="midnightblue" d="M478.145,-141.5C488.684,-141.5 499.406,-141.5 509.776,-141.5"/>
<polygon fill="midnightblue" stroke="midnightblue" points="478.114,-138 468.114,-141.5 478.113,-145 478.114,-138"/>
</g>
<!-- Node22 -->
<g id="node22" class="node"><title>Node22</title>
<g id="a_node22"><a xlink:href="classpdal_1_1LasWriter.html#a76f6b960b128ccdb8e3e8db69eff445b" target="_top" xlink:title="pdal::LasWriter::prepOutput">
<polygon fill="white" stroke="black" points="695,-132 695,-151 832,-151 832,-132 695,-132"/>
<text text-anchor="middle" x="763.5" y="-139" font-family="Helvetica,sans-Serif" font-size="10.00">pdal::LasWriter::prepOutput</text>
</a>
</g>
</g>
<!-- Node21&#45;&gt;Node22 -->
<g id="edge23" class="edge"><title>Node21&#45;&gt;Node22</title>
<path fill="none" stroke="midnightblue" d="M669.112,-141.5C677.745,-141.5 686.44,-141.5 694.867,-141.5"/>
<polygon fill="midnightblue" stroke="midnightblue" points="669.026,-138 659.026,-141.5 669.026,-145 669.026,-138"/>
</g>
<!-- Node23 -->
<g id="node23" class="node"><title>Node23</title>
<g id="a_node23"><a xlink:href="classpdal_1_1NitfWriter.html#a34d932e82c5d6842ca515cc59281021e" target="_top" xlink:title="pdal::NitfWriter::readyFile">
<polygon fill="white" stroke="black" points="868,-151 868,-170 996,-170 996,-151 868,-151"/>
<text text-anchor="middle" x="932" y="-158" font-family="Helvetica,sans-Serif" font-size="10.00">pdal::NitfWriter::readyFile</text>
</a>
</g>
</g>
<!-- Node22&#45;&gt;Node23 -->
<g id="edge24" class="edge"><title>Node22&#45;&gt;Node23</title>
<path fill="none" stroke="midnightblue" d="M842.254,-150.373C850.848,-151.354 859.522,-152.343 867.905,-153.3"/>
<polygon fill="midnightblue" stroke="midnightblue" points="842.554,-146.884 832.222,-149.228 841.761,-153.839 842.554,-146.884"/>
</g>
<!-- Node24 -->
<g id="node24" class="node"><title>Node24</title>
<g id="a_node24"><a xlink:href="classpdal_1_1LasWriter.html#a4b0ad482eac655fb22cf29717c04c6b3" target="_top" xlink:title="pdal::LasWriter::readyFile">
<polygon fill="white" stroke="black" points="868,-113 868,-132 996,-132 996,-113 868,-113"/>
<text text-anchor="middle" x="932" y="-120" font-family="Helvetica,sans-Serif" font-size="10.00">pdal::LasWriter::readyFile</text>
</a>
</g>
</g>
<!-- Node22&#45;&gt;Node24 -->
<g id="edge25" class="edge"><title>Node22&#45;&gt;Node24</title>
<path fill="none" stroke="midnightblue" d="M842.254,-132.627C850.848,-131.646 859.522,-130.657 867.905,-129.7"/>
<polygon fill="midnightblue" stroke="midnightblue" points="841.761,-129.161 832.222,-133.772 842.554,-136.116 841.761,-129.161"/>
</g>
<!-- Node26 -->
<g id="node26" class="node"><title>Node26</title>
<g id="a_node26"><a xlink:href="HexbinFilterTest_8cpp.html#a3236b5bbf267f164a43a7e7d8ee9c0cc" target="_top" xlink:title="TEST">
<polygon fill="white" stroke="black" points="563.5,-88 563.5,-107 605.5,-107 605.5,-88 563.5,-88"/>
<text text-anchor="middle" x="584.5" y="-95" font-family="Helvetica,sans-Serif" font-size="10.00">TEST</text>
</a>
</g>
</g>
<!-- Node25&#45;&gt;Node26 -->
<g id="edge27" class="edge"><title>Node25&#45;&gt;Node26</title>
<path fill="none" stroke="midnightblue" d="M439.287,-97.5C478.586,-97.5 533.921,-97.5 563.31,-97.5"/>
<polygon fill="midnightblue" stroke="midnightblue" points="439.166,-94.0001 429.166,-97.5 439.165,-101 439.166,-94.0001"/>
</g>
<!-- Node28 -->
<g id="node28" class="node"><title>Node28</title>
<g id="a_node28"><a xlink:href="classpdal_1_1OciReader.html#ae697d44314c547c0e8458505c060448b" target="_top" xlink:title="pdal::OciReader::read">
<polygon fill="white" stroke="black" points="528.5,-50 528.5,-69 640.5,-69 640.5,-50 528.5,-50"/>
<text text-anchor="middle" x="584.5" y="-57" font-family="Helvetica,sans-Serif" font-size="10.00">pdal::OciReader::read</text>
</a>
</g>
</g>
<!-- Node27&#45;&gt;Node28 -->
<g id="edge29" class="edge"><title>Node27&#45;&gt;Node28</title>
<path fill="none" stroke="midnightblue" d="M467.301,-59.5C487.563,-59.5 509.231,-59.5 528.3,-59.5"/>
<polygon fill="midnightblue" stroke="midnightblue" points="467.172,-56.0001 457.172,-59.5 467.172,-63.0001 467.172,-56.0001"/>
</g>
<!-- Node30 -->
<g id="node30" class="node"><title>Node30</title>
<g id="a_node30"><a xlink:href="classpdal_1_1SQLiteReader.html#a860ce10057372d42f95445fef91f9931" target="_top" xlink:title="pdal::SQLiteReader\l::read">
<polygon fill="white" stroke="black" points="533.5,-0.5 533.5,-30.5 635.5,-30.5 635.5,-0.5 533.5,-0.5"/>
<text text-anchor="start" x="541.5" y="-18.5" font-family="Helvetica,sans-Serif" font-size="10.00">pdal::SQLiteReader</text>
<text text-anchor="middle" x="584.5" y="-7.5" font-family="Helvetica,sans-Serif" font-size="10.00">::read</text>
</a>
</g>
</g>
<!-- Node29&#45;&gt;Node30 -->
<g id="edge31" class="edge"><title>Node29&#45;&gt;Node30</title>
<path fill="none" stroke="midnightblue" d="M454.885,-15.5C480.218,-15.5 509.329,-15.5 533.442,-15.5"/>
<polygon fill="midnightblue" stroke="midnightblue" points="454.652,-12.0001 444.652,-15.5 454.652,-19.0001 454.652,-12.0001"/>
</g>
</g>
</svg>
