<?xml version="1.0" encoding="UTF-8" standalone="no"?>
<!DOCTYPE svg PUBLIC "-//W3C//DTD SVG 1.1//EN"
 "http://www.w3.org/Graphics/SVG/1.1/DTD/svg11.dtd">
<!-- Generated by graphviz version 2.38.0 (20140413.2041)
 -->
<!-- Title: pdal::anonymous_namespace{PDALUtils::cpp}::toJSON Pages: 1 -->
<svg width="1352pt" height="410pt"
 viewBox="0.00 0.00 1352.00 410.00" xmlns="http://www.w3.org/2000/svg" xmlns:xlink="http://www.w3.org/1999/xlink">
<g id="graph0" class="graph" transform="scale(1 1) rotate(0) translate(4 406)">
<title>pdal::anonymous_namespace{PDALUtils::cpp}::toJSON</title>
<polygon fill="white" stroke="none" points="-4,4 -4,-406 1348,-406 1348,4 -4,4"/>
<!-- Node1 -->
<g id="node1" class="node"><title>Node1</title>
<polygon fill="#bfbfbf" stroke="black" points="0,-71 0,-101 146,-101 146,-71 0,-71"/>
<text text-anchor="start" x="8" y="-89" font-family="Helvetica,sans-Serif" font-size="10.00">pdal::anonymous_namespace</text>
<text text-anchor="middle" x="73" y="-78" font-family="Helvetica,sans-Serif" font-size="10.00">{PDALUtils::cpp}::toJSON</text>
</g>
<!-- Node2 -->
<g id="node2" class="node"><title>Node2</title>
<g id="a_node2"><a xlink:href="classpdal_1_1MetadataNode.html#ada667c2ca1eab9957ae5c7a98fea5d02" target="_top" xlink:title="pdal::MetadataNode\l::hasChildren">
<polygon fill="white" stroke="black" points="933,-301 933,-331 1037,-331 1037,-301 933,-301"/>
<text text-anchor="start" x="941" y="-319" font-family="Helvetica,sans-Serif" font-size="10.00">pdal::MetadataNode</text>
<text text-anchor="middle" x="985" y="-308" font-family="Helvetica,sans-Serif" font-size="10.00">::hasChildren</text>
</a>
</g>
</g>
<!-- Node1&#45;&gt;Node2 -->
<g id="edge1" class="edge"><title>Node1&#45;&gt;Node2</title>
<path fill="none" stroke="midnightblue" d="M81.9874,-101.241C116.281,-164.364 257.879,-402 446,-402 446,-402 446,-402 614.5,-402 732.604,-402 866.545,-359.805 936.191,-334.527"/>
<polygon fill="midnightblue" stroke="midnightblue" points="937.402,-337.811 945.583,-331.078 934.989,-331.24 937.402,-337.811"/>
</g>
<!-- Node3 -->
<g id="node3" class="node"><title>Node3</title>
<g id="a_node3"><a xlink:href="classpdal_1_1MetadataNode.html#ac936d257e7eaa30e130ad9de526b2087" target="_top" xlink:title="pdal::MetadataNode\l::jsonValue">
<polygon fill="white" stroke="black" points="933,-175 933,-205 1037,-205 1037,-175 933,-175"/>
<text text-anchor="start" x="941" y="-193" font-family="Helvetica,sans-Serif" font-size="10.00">pdal::MetadataNode</text>
<text text-anchor="middle" x="985" y="-182" font-family="Helvetica,sans-Serif" font-size="10.00">::jsonValue</text>
</a>
</g>
</g>
<!-- Node1&#45;&gt;Node3 -->
<g id="edge2" class="edge"><title>Node1&#45;&gt;Node3</title>
<path fill="none" stroke="midnightblue" d="M146.135,-74.2368C220.918,-63.0766 341.317,-48 446,-48 446,-48 446,-48 614.5,-48 748.124,-48 891.922,-129.916 953.355,-169.314"/>
<polygon fill="midnightblue" stroke="midnightblue" points="951.517,-172.294 961.81,-174.804 955.329,-166.422 951.517,-172.294"/>
</g>
<!-- Node6 -->
<g id="node6" class="node"><title>Node6</title>
<g id="a_node6"><a xlink:href="classpdal_1_1MetadataNode.html#a645aadd856fb1a4ae4a12247fda3e618" target="_top" xlink:title="pdal::MetadataNode\l::name">
<polygon fill="white" stroke="black" points="561.5,-109 561.5,-139 665.5,-139 665.5,-109 561.5,-109"/>
<text text-anchor="start" x="569.5" y="-127" font-family="Helvetica,sans-Serif" font-size="10.00">pdal::MetadataNode</text>
<text text-anchor="middle" x="613.5" y="-116" font-family="Helvetica,sans-Serif" font-size="10.00">::name</text>
</a>
</g>
</g>
<!-- Node1&#45;&gt;Node6 -->
<g id="edge5" class="edge"><title>Node1&#45;&gt;Node6</title>
<path fill="none" stroke="midnightblue" d="M146.066,-91.0854C252.772,-98.6153 450.942,-112.599 551.124,-119.669"/>
<polygon fill="midnightblue" stroke="midnightblue" points="551.162,-123.18 561.384,-120.393 551.655,-116.198 551.162,-123.18"/>
</g>
<!-- Node7 -->
<g id="node7" class="node"><title>Node7</title>
<g id="a_node7"><a xlink:href="namespacepdal_1_1Dimension.html#af3176b0b7e6b4be000317846cf7c2718" target="_top" xlink:title="pdal::Dimension::name">
<polygon fill="white" stroke="black" points="212,-0.5 212,-19.5 329,-19.5 329,-0.5 212,-0.5"/>
<text text-anchor="middle" x="270.5" y="-7.5" font-family="Helvetica,sans-Serif" font-size="10.00">pdal::Dimension::name</text>
</a>
</g>
</g>
<!-- Node1&#45;&gt;Node7 -->
<g id="edge6" class="edge"><title>Node1&#45;&gt;Node7</title>
<path fill="none" stroke="midnightblue" d="M101.813,-70.8825C123.272,-59.6462 153.935,-44.5063 182,-34 193.64,-29.6423 206.418,-25.6908 218.526,-22.3091"/>
<polygon fill="midnightblue" stroke="midnightblue" points="219.763,-25.6002 228.499,-19.6061 217.932,-18.8439 219.763,-25.6002"/>
</g>
<!-- Node8 -->
<g id="node8" class="node"><title>Node8</title>
<g id="a_node8"><a xlink:href="namespacepdal_1_1anonymous__namespace_02PDALUtils_8cpp_03.html#a9836ab34bb1a9ec78acdf0da8134082d" target="_top" xlink:title="pdal::anonymous_namespace\l\{PDALUtils::cpp\}::subnodesToJSON">
<polygon fill="white" stroke="black" points="182,-185 182,-215 359,-215 359,-185 182,-185"/>
<text text-anchor="start" x="190" y="-203" font-family="Helvetica,sans-Serif" font-size="10.00">pdal::anonymous_namespace</text>
<text text-anchor="middle" x="270.5" y="-192" font-family="Helvetica,sans-Serif" font-size="10.00">{PDALUtils::cpp}::subnodesToJSON</text>
</a>
</g>
</g>
<!-- Node1&#45;&gt;Node8 -->
<g id="edge7" class="edge"><title>Node1&#45;&gt;Node8</title>
<path fill="none" stroke="midnightblue" d="M99.9609,-101.138C134.674,-121.38 196.306,-157.319 234.925,-179.838"/>
<polygon fill="midnightblue" stroke="midnightblue" points="233.341,-182.967 243.743,-184.981 236.868,-176.92 233.341,-182.967"/>
</g>
<!-- Node4 -->
<g id="node4" class="node"><title>Node4</title>
<g id="a_node4"><a xlink:href="namespacepdal_1_1Utils.html#aabcd6b5abf9f2cd30b485fc100656663" target="_top" xlink:title="pdal::Utils::escapeJSON">
<polygon fill="white" stroke="black" points="1073,-180.5 1073,-199.5 1198,-199.5 1198,-180.5 1073,-180.5"/>
<text text-anchor="middle" x="1135.5" y="-187.5" font-family="Helvetica,sans-Serif" font-size="10.00">pdal::Utils::escapeJSON</text>
</a>
</g>
</g>
<!-- Node3&#45;&gt;Node4 -->
<g id="edge3" class="edge"><title>Node3&#45;&gt;Node4</title>
<path fill="none" stroke="midnightblue" d="M1037.11,-190C1045.37,-190 1054.05,-190 1062.69,-190"/>
<polygon fill="midnightblue" stroke="midnightblue" points="1062.79,-193.5 1072.79,-190 1062.79,-186.5 1062.79,-193.5"/>
</g>
<!-- Node5 -->
<g id="node5" class="node"><title>Node5</title>
<g id="a_node5"><a xlink:href="namespacepdal_1_1Utils.html#ac6b599972dcd3fe440ef5c476961081a" target="_top" xlink:title="pdal::Utils::remove_if">
<polygon fill="white" stroke="black" points="1234,-180.5 1234,-199.5 1344,-199.5 1344,-180.5 1234,-180.5"/>
<text text-anchor="middle" x="1289" y="-187.5" font-family="Helvetica,sans-Serif" font-size="10.00">pdal::Utils::remove_if</text>
</a>
</g>
</g>
<!-- Node4&#45;&gt;Node5 -->
<g id="edge4" class="edge"><title>Node4&#45;&gt;Node5</title>
<path fill="none" stroke="midnightblue" d="M1198.12,-190C1206.51,-190 1215.13,-190 1223.57,-190"/>
<polygon fill="midnightblue" stroke="midnightblue" points="1223.73,-193.5 1233.73,-190 1223.73,-186.5 1223.73,-193.5"/>
</g>
<!-- Node8&#45;&gt;Node6 -->
<g id="edge16" class="edge"><title>Node8&#45;&gt;Node6</title>
<path fill="none" stroke="midnightblue" d="M337.5,-184.963C356.092,-180.747 376.334,-176.176 395,-172 447.689,-160.213 507.603,-147.005 551.188,-137.432"/>
<polygon fill="midnightblue" stroke="midnightblue" points="552.048,-140.827 561.065,-135.264 550.547,-133.99 552.048,-140.827"/>
</g>
<!-- Node9 -->
<g id="node9" class="node"><title>Node9</title>
<g id="a_node9"><a xlink:href="namespacepdal_1_1anonymous__namespace_02PDALUtils_8cpp_03.html#a24e6b833ca779a04307fb80c249cdf19" target="_top" xlink:title="pdal::anonymous_namespace\l\{PDALUtils::cpp\}::arrayToJSON">
<polygon fill="white" stroke="black" points="535,-212 535,-242 692,-242 692,-212 535,-212"/>
<text text-anchor="start" x="543" y="-230" font-family="Helvetica,sans-Serif" font-size="10.00">pdal::anonymous_namespace</text>
<text text-anchor="middle" x="613.5" y="-219" font-family="Helvetica,sans-Serif" font-size="10.00">{PDALUtils::cpp}::arrayToJSON</text>
</a>
</g>
</g>
<!-- Node8&#45;&gt;Node9 -->
<g id="edge8" class="edge"><title>Node8&#45;&gt;Node9</title>
<path fill="none" stroke="midnightblue" d="M359.05,-214.751C371.101,-216.406 383.338,-217.892 395,-219 437.563,-223.043 484.992,-225.075 524.669,-226.084"/>
<polygon fill="midnightblue" stroke="midnightblue" points="524.766,-229.587 534.846,-226.325 524.932,-222.589 524.766,-229.587"/>
</g>
<!-- Node11 -->
<g id="node11" class="node"><title>Node11</title>
<g id="a_node11"><a xlink:href="classpdal_1_1MetadataNode.html#ae9794860b91201dce86f162799d902b1" target="_top" xlink:title="pdal::MetadataNode\l::childNames">
<polygon fill="white" stroke="black" points="395,-305 395,-335 499,-335 499,-305 395,-305"/>
<text text-anchor="start" x="403" y="-323" font-family="Helvetica,sans-Serif" font-size="10.00">pdal::MetadataNode</text>
<text text-anchor="middle" x="447" y="-312" font-family="Helvetica,sans-Serif" font-size="10.00">::childNames</text>
</a>
</g>
</g>
<!-- Node8&#45;&gt;Node11 -->
<g id="edge13" class="edge"><title>Node8&#45;&gt;Node11</title>
<path fill="none" stroke="midnightblue" d="M291.182,-215.269C315.204,-233.687 357.293,-265.255 395,-290 399.952,-293.249 405.26,-296.557 410.513,-299.732"/>
<polygon fill="midnightblue" stroke="midnightblue" points="408.844,-302.811 419.228,-304.915 412.422,-296.795 408.844,-302.811"/>
</g>
<!-- Node12 -->
<g id="node12" class="node"><title>Node12</title>
<g id="a_node12"><a xlink:href="classpdal_1_1MetadataNode.html#ab86b0ccbf27f9eee29cbb5252e9431b7" target="_top" xlink:title="pdal::MetadataNode\l::children">
<polygon fill="white" stroke="black" points="561.5,-160 561.5,-190 665.5,-190 665.5,-160 561.5,-160"/>
<text text-anchor="start" x="569.5" y="-178" font-family="Helvetica,sans-Serif" font-size="10.00">pdal::MetadataNode</text>
<text text-anchor="middle" x="613.5" y="-167" font-family="Helvetica,sans-Serif" font-size="10.00">::children</text>
</a>
</g>
</g>
<!-- Node8&#45;&gt;Node12 -->
<g id="edge14" class="edge"><title>Node8&#45;&gt;Node12</title>
<path fill="none" stroke="midnightblue" d="M359.041,-185.149C371.093,-183.509 383.333,-182.054 395,-181 447.592,-176.248 507.603,-174.897 551.247,-174.649"/>
<polygon fill="midnightblue" stroke="midnightblue" points="551.43,-178.148 561.416,-174.609 551.403,-171.148 551.43,-178.148"/>
</g>
<!-- Node13 -->
<g id="node13" class="node"><title>Node13</title>
<g id="a_node13"><a xlink:href="classpdal_1_1MetadataNode.html#a66863365a08eb3ee538ebeb4ce788a39" target="_top" xlink:title="pdal::MetadataNode\l::kind">
<polygon fill="white" stroke="black" points="561.5,-261 561.5,-291 665.5,-291 665.5,-261 561.5,-261"/>
<text text-anchor="start" x="569.5" y="-279" font-family="Helvetica,sans-Serif" font-size="10.00">pdal::MetadataNode</text>
<text text-anchor="middle" x="613.5" y="-268" font-family="Helvetica,sans-Serif" font-size="10.00">::kind</text>
</a>
</g>
</g>
<!-- Node8&#45;&gt;Node13 -->
<g id="edge15" class="edge"><title>Node8&#45;&gt;Node13</title>
<path fill="none" stroke="midnightblue" d="M317.202,-215.045C340.345,-222.317 368.983,-230.791 395,-237 447.274,-249.474 507.467,-259.975 551.259,-266.926"/>
<polygon fill="midnightblue" stroke="midnightblue" points="550.761,-270.391 561.183,-268.485 551.847,-263.476 550.761,-270.391"/>
</g>
<!-- Node14 -->
<g id="node14" class="node"><title>Node14</title>
<g id="a_node14"><a xlink:href="namespacepdal_1_1Utils.html#a90c7b124d5407ee4d7120e4c42b40b02" target="_top" xlink:title="pdal::Utils::toJSON">
<polygon fill="white" stroke="black" points="396,-190.5 396,-209.5 498,-209.5 498,-190.5 396,-190.5"/>
<text text-anchor="middle" x="447" y="-197.5" font-family="Helvetica,sans-Serif" font-size="10.00">pdal::Utils::toJSON</text>
</a>
</g>
</g>
<!-- Node8&#45;&gt;Node14 -->
<g id="edge17" class="edge"><title>Node8&#45;&gt;Node14</title>
<path fill="none" stroke="midnightblue" d="M359.006,-193.25C367.953,-193.252 376.897,-193.348 385.461,-193.539"/>
<polygon fill="midnightblue" stroke="midnightblue" points="385.602,-197.044 395.694,-193.819 385.793,-190.047 385.602,-197.044"/>
</g>
<!-- Node10 -->
<g id="node10" class="node"><title>Node10</title>
<g id="a_node10"><a xlink:href="namespacepdal_1_1anonymous__namespace_02PDALUtils_8cpp_03.html#ac00099447614a63b2acd68d05ee3a5c1" target="_top" xlink:title="pdal::anonymous_namespace\l\{PDALUtils::cpp\}::arrayEltToJSON">
<polygon fill="white" stroke="black" points="728,-277 728,-307 897,-307 897,-277 728,-277"/>
<text text-anchor="start" x="736" y="-295" font-family="Helvetica,sans-Serif" font-size="10.00">pdal::anonymous_namespace</text>
<text text-anchor="middle" x="812.5" y="-284" font-family="Helvetica,sans-Serif" font-size="10.00">{PDALUtils::cpp}::arrayEltToJSON</text>
</a>
</g>
</g>
<!-- Node9&#45;&gt;Node10 -->
<g id="edge9" class="edge"><title>Node9&#45;&gt;Node10</title>
<path fill="none" stroke="midnightblue" d="M663.769,-242.012C673.158,-244.943 682.895,-248.029 692,-251 714.051,-258.195 738.276,-266.442 759.116,-273.645"/>
<polygon fill="midnightblue" stroke="midnightblue" points="758.146,-277.012 768.74,-276.979 760.438,-270.398 758.146,-277.012"/>
</g>
<!-- Node10&#45;&gt;Node2 -->
<g id="edge10" class="edge"><title>Node10&#45;&gt;Node2</title>
<path fill="none" stroke="midnightblue" d="M897.252,-303.789C905.873,-305.003 914.515,-306.219 922.825,-307.389"/>
<polygon fill="midnightblue" stroke="midnightblue" points="922.382,-310.861 932.772,-308.789 923.358,-303.929 922.382,-310.861"/>
</g>
<!-- Node10&#45;&gt;Node3 -->
<g id="edge11" class="edge"><title>Node10&#45;&gt;Node3</title>
<path fill="none" stroke="midnightblue" d="M838.658,-276.95C868.123,-259.322 917.076,-230.036 949.929,-210.383"/>
<polygon fill="midnightblue" stroke="midnightblue" points="951.954,-213.25 958.739,-205.112 948.36,-207.243 951.954,-213.25"/>
</g>
<!-- Node10&#45;&gt;Node8 -->
<g id="edge12" class="edge"><title>Node10&#45;&gt;Node8</title>
<path fill="none" stroke="midnightblue" d="M779.438,-307.116C707.143,-338.897 527.416,-404.88 395,-344 341.116,-319.226 301.932,-258.057 283.428,-223.951"/>
<polygon fill="midnightblue" stroke="midnightblue" points="286.522,-222.315 278.762,-215.102 280.33,-225.58 286.522,-222.315"/>
</g>
<!-- Node14&#45;&gt;Node6 -->
<g id="edge18" class="edge"><title>Node14&#45;&gt;Node6</title>
<path fill="none" stroke="midnightblue" d="M462.614,-190.399C479.528,-179.575 508.467,-161.933 535,-150 540.776,-147.402 546.893,-144.92 553.057,-142.592"/>
<polygon fill="midnightblue" stroke="midnightblue" points="554.54,-145.777 562.739,-139.067 552.145,-139.2 554.54,-145.777"/>
</g>
<!-- Node14&#45;&gt;Node8 -->
<g id="edge19" class="edge"><title>Node14&#45;&gt;Node8</title>
<path fill="none" stroke="midnightblue" d="M395.694,-206.181C387.231,-206.457 378.199,-206.633 369.014,-206.708"/>
<polygon fill="midnightblue" stroke="midnightblue" points="368.991,-203.208 359.006,-206.75 369.02,-210.208 368.991,-203.208"/>
</g>
<!-- Node14&#45;&gt;Node9 -->
<g id="edge21" class="edge"><title>Node14&#45;&gt;Node9</title>
<path fill="none" stroke="midnightblue" d="M498.249,-208.248C506.784,-209.648 515.863,-211.139 525.029,-212.643"/>
<polygon fill="midnightblue" stroke="midnightblue" points="524.553,-216.112 534.988,-214.278 525.687,-209.204 524.553,-216.112"/>
</g>
<!-- Node14&#45;&gt;Node12 -->
<g id="edge22" class="edge"><title>Node14&#45;&gt;Node12</title>
<path fill="none" stroke="midnightblue" d="M498.249,-192.363C514.994,-189.819 533.835,-186.955 551.315,-184.299"/>
<polygon fill="midnightblue" stroke="midnightblue" points="552.063,-187.725 561.423,-182.762 551.011,-180.805 552.063,-187.725"/>
</g>
<!-- Node14&#45;&gt;Node13 -->
<g id="edge20" class="edge"><title>Node14&#45;&gt;Node13</title>
<path fill="none" stroke="midnightblue" d="M462.257,-209.674C479.077,-220.77 508.156,-238.976 535,-251 540.373,-253.407 546.048,-255.692 551.785,-257.831"/>
<polygon fill="midnightblue" stroke="midnightblue" points="550.862,-261.218 561.457,-261.29 553.22,-254.627 550.862,-261.218"/>
</g>
</g>
</svg>
