<?xml version="1.0" encoding="UTF-8" standalone="no"?>
<!DOCTYPE svg PUBLIC "-//W3C//DTD SVG 1.1//EN"
 "http://www.w3.org/Graphics/SVG/1.1/DTD/svg11.dtd">
<!-- Generated by graphviz version 2.38.0 (20140413.2041)
 -->
<!-- Title: pdal::LasUtils::parse Pages: 1 -->
<svg width="445pt" height="204pt"
 viewBox="0.00 0.00 445.00 203.50" xmlns="http://www.w3.org/2000/svg" xmlns:xlink="http://www.w3.org/1999/xlink">
<g id="graph0" class="graph" transform="scale(1 1) rotate(0) translate(4 199.5)">
<title>pdal::LasUtils::parse</title>
<polygon fill="white" stroke="none" points="-4,4 -4,-199.5 441,-199.5 441,4 -4,4"/>
<!-- Node1 -->
<g id="node1" class="node"><title>Node1</title>
<polygon fill="#bfbfbf" stroke="black" points="0,-82.5 0,-101.5 107,-101.5 107,-82.5 0,-82.5"/>
<text text-anchor="middle" x="53.5" y="-89.5" font-family="Helvetica,sans-Serif" font-size="10.00">pdal::LasUtils::parse</text>
</g>
<!-- Node2 -->
<g id="node2" class="node"><title>Node2</title>
<g id="a_node2"><a xlink:href="structpdal_1_1LasUtils_1_1error.html#a96fcbe86a7b0480997a9af72956d34d1" target="_top" xlink:title="pdal::LasUtils::error\l::error">
<polygon fill="white" stroke="black" points="156.5,-165 156.5,-195 258.5,-195 258.5,-165 156.5,-165"/>
<text text-anchor="start" x="164.5" y="-183" font-family="Helvetica,sans-Serif" font-size="10.00">pdal::LasUtils::error</text>
<text text-anchor="middle" x="207.5" y="-172" font-family="Helvetica,sans-Serif" font-size="10.00">::error</text>
</a>
</g>
</g>
<!-- Node1&#45;&gt;Node2 -->
<g id="edge1" class="edge"><title>Node1&#45;&gt;Node2</title>
<path fill="none" stroke="midnightblue" d="M74.1178,-108.093C91.4715,-121.797 117.869,-141.373 143,-155 149.562,-158.558 156.739,-161.879 163.833,-164.864"/>
<polygon fill="midnightblue" stroke="midnightblue" points="75.9141,-105.047 65.9219,-101.525 71.5366,-110.51 75.9141,-105.047"/>
</g>
<!-- Node3 -->
<g id="node3" class="node"><title>Node3</title>
<g id="a_node3"><a xlink:href="classpdal_1_1LasWriter.html#ac06df277822c359343f95003bfda9cce" target="_top" xlink:title="pdal::LasWriter::initialize">
<polygon fill="white" stroke="black" points="145.5,-126.5 145.5,-145.5 269.5,-145.5 269.5,-126.5 145.5,-126.5"/>
<text text-anchor="middle" x="207.5" y="-133.5" font-family="Helvetica,sans-Serif" font-size="10.00">pdal::LasWriter::initialize</text>
</a>
</g>
</g>
<!-- Node1&#45;&gt;Node3 -->
<g id="edge2" class="edge"><title>Node1&#45;&gt;Node3</title>
<path fill="none" stroke="midnightblue" d="M97.1332,-104.341C121.343,-111.349 151.189,-119.989 173.583,-126.471"/>
<polygon fill="midnightblue" stroke="midnightblue" points="98.0606,-100.966 87.4817,-101.547 96.1142,-107.69 98.0606,-100.966"/>
</g>
<!-- Node4 -->
<g id="node4" class="node"><title>Node4</title>
<g id="a_node4"><a xlink:href="classpdal_1_1LasReader.html#a998510dc0b7d1b59387a5c2686c27f46" target="_top" xlink:title="pdal::LasReader::initialize\lLocal">
<polygon fill="white" stroke="black" points="143,-77 143,-107 272,-107 272,-77 143,-77"/>
<text text-anchor="start" x="151" y="-95" font-family="Helvetica,sans-Serif" font-size="10.00">pdal::LasReader::initialize</text>
<text text-anchor="middle" x="207.5" y="-84" font-family="Helvetica,sans-Serif" font-size="10.00">Local</text>
</a>
</g>
</g>
<!-- Node1&#45;&gt;Node4 -->
<g id="edge3" class="edge"><title>Node1&#45;&gt;Node4</title>
<path fill="none" stroke="midnightblue" d="M117.367,-92C125.787,-92 134.429,-92 142.862,-92"/>
<polygon fill="midnightblue" stroke="midnightblue" points="117.236,-88.5001 107.236,-92 117.236,-95.5001 117.236,-88.5001"/>
</g>
<!-- Node6 -->
<g id="node6" class="node"><title>Node6</title>
<g id="a_node6"><a xlink:href="ProgramArgsTest_8cpp.html#a5c58b8358e6272f453c00259f5b2ad75" target="_top" xlink:title="TEST">
<polygon fill="white" stroke="black" points="186.5,-38.5 186.5,-57.5 228.5,-57.5 228.5,-38.5 186.5,-38.5"/>
<text text-anchor="middle" x="207.5" y="-45.5" font-family="Helvetica,sans-Serif" font-size="10.00">TEST</text>
</a>
</g>
</g>
<!-- Node1&#45;&gt;Node6 -->
<g id="edge5" class="edge"><title>Node1&#45;&gt;Node6</title>
<path fill="none" stroke="midnightblue" d="M97.3943,-79.5832C126.471,-71.1664 163.582,-60.4235 186.168,-53.8855"/>
<polygon fill="midnightblue" stroke="midnightblue" points="96.1142,-76.31 87.4817,-82.4527 98.0606,-83.034 96.1142,-76.31"/>
</g>
<!-- Node7 -->
<g id="node7" class="node"><title>Node7</title>
<g id="a_node7"><a xlink:href="classpdal_1_1Uuid.html#a9df2a9432eaeaff6bb97761e7be07d38" target="_top" xlink:title="pdal::Uuid::Uuid">
<polygon fill="white" stroke="black" points="164,-0.5 164,-19.5 251,-19.5 251,-0.5 164,-0.5"/>
<text text-anchor="middle" x="207.5" y="-7.5" font-family="Helvetica,sans-Serif" font-size="10.00">pdal::Uuid::Uuid</text>
</a>
</g>
</g>
<!-- Node1&#45;&gt;Node7 -->
<g id="edge6" class="edge"><title>Node1&#45;&gt;Node7</title>
<path fill="none" stroke="midnightblue" d="M73.5536,-75.6082C90.7256,-61.5517 117.173,-41.6257 143,-29 150.547,-25.3107 158.953,-22.1805 167.115,-19.5906"/>
<polygon fill="midnightblue" stroke="midnightblue" points="70.906,-73.259 65.4716,-82.354 75.3915,-78.6331 70.906,-73.259"/>
</g>
<!-- Node5 -->
<g id="node5" class="node"><title>Node5</title>
<g id="a_node5"><a xlink:href="classpdal_1_1NitfReader.html#aff135fa0b6888020a5de9eb33e2d7fea" target="_top" xlink:title="pdal::NitfReader::initialize">
<polygon fill="white" stroke="black" points="308,-82.5 308,-101.5 437,-101.5 437,-82.5 308,-82.5"/>
<text text-anchor="middle" x="372.5" y="-89.5" font-family="Helvetica,sans-Serif" font-size="10.00">pdal::NitfReader::initialize</text>
</a>
</g>
</g>
<!-- Node4&#45;&gt;Node5 -->
<g id="edge4" class="edge"><title>Node4&#45;&gt;Node5</title>
<path fill="none" stroke="midnightblue" d="M282.688,-92C291.141,-92 299.701,-92 307.998,-92"/>
<polygon fill="midnightblue" stroke="midnightblue" points="282.454,-88.5001 272.454,-92 282.454,-95.5001 282.454,-88.5001"/>
</g>
</g>
</svg>
