<?xml version="1.0" encoding="UTF-8" standalone="no"?>
<!DOCTYPE svg PUBLIC "-//W3C//DTD SVG 1.1//EN"
 "http://www.w3.org/Graphics/SVG/1.1/DTD/svg11.dtd">
<!-- Generated by graphviz version 2.38.0 (20140413.2041)
 -->
<!-- Title: pdal::anonymous_namespace{ColorizationFilter::cpp}::parseDim Pages: 1 -->
<svg width="472pt" height="104pt"
 viewBox="0.00 0.00 472.00 104.00" xmlns="http://www.w3.org/2000/svg" xmlns:xlink="http://www.w3.org/1999/xlink">
<g id="graph0" class="graph" transform="scale(1 1) rotate(0) translate(4 100)">
<title>pdal::anonymous_namespace{ColorizationFilter::cpp}::parseDim</title>
<polygon fill="white" stroke="none" points="-4,4 -4,-100 468,-100 468,4 -4,4"/>
<!-- Node1 -->
<g id="node1" class="node"><title>Node1</title>
<polygon fill="#bfbfbf" stroke="black" points="0,-27.5 0,-68.5 146,-68.5 146,-27.5 0,-27.5"/>
<text text-anchor="start" x="8" y="-56.5" font-family="Helvetica,sans-Serif" font-size="10.00">pdal::anonymous_namespace</text>
<text text-anchor="start" x="8" y="-45.5" font-family="Helvetica,sans-Serif" font-size="10.00">{ColorizationFilter::cpp}</text>
<text text-anchor="middle" x="73" y="-34.5" font-family="Helvetica,sans-Serif" font-size="10.00">::parseDim</text>
</g>
<!-- Node2 -->
<g id="node2" class="node"><title>Node2</title>
<g id="a_node2"><a xlink:href="namespacepdal_1_1Dimension.html#ad7dd00ca79ce099313f3fe405f40cd93" target="_top" xlink:title="pdal::Dimension::extractName">
<polygon fill="white" stroke="black" points="182,-76.5 182,-95.5 331,-95.5 331,-76.5 182,-76.5"/>
<text text-anchor="middle" x="256.5" y="-83.5" font-family="Helvetica,sans-Serif" font-size="10.00">pdal::Dimension::extractName</text>
</a>
</g>
</g>
<!-- Node1&#45;&gt;Node2 -->
<g id="edge1" class="edge"><title>Node1&#45;&gt;Node2</title>
<path fill="none" stroke="midnightblue" d="M146.255,-63.1278C164.102,-66.8643 182.945,-70.8094 199.863,-74.3515"/>
<polygon fill="midnightblue" stroke="midnightblue" points="199.617,-77.8759 210.122,-76.4995 201.052,-71.0244 199.617,-77.8759"/>
</g>
<!-- Node4 -->
<g id="node4" class="node"><title>Node4</title>
<g id="a_node4"><a xlink:href="namespacepdal_1_1Utils.html#a9bda8c5dbe5ef7cf66e99ba022184934" target="_top" xlink:title="pdal::Utils::extractSpaces">
<polygon fill="white" stroke="black" points="191.5,-38.5 191.5,-57.5 321.5,-57.5 321.5,-38.5 191.5,-38.5"/>
<text text-anchor="middle" x="256.5" y="-45.5" font-family="Helvetica,sans-Serif" font-size="10.00">pdal::Utils::extractSpaces</text>
</a>
</g>
</g>
<!-- Node1&#45;&gt;Node4 -->
<g id="edge3" class="edge"><title>Node1&#45;&gt;Node4</title>
<path fill="none" stroke="midnightblue" d="M146.255,-48C157.8,-48 169.763,-48 181.351,-48"/>
<polygon fill="midnightblue" stroke="midnightblue" points="181.419,-51.5001 191.419,-48 181.419,-44.5001 181.419,-51.5001"/>
</g>
<!-- Node5 -->
<g id="node5" class="node"><title>Node5</title>
<g id="a_node5"><a xlink:href="namespacepdal_1_1Dimension.html#af3176b0b7e6b4be000317846cf7c2718" target="_top" xlink:title="pdal::Dimension::name">
<polygon fill="white" stroke="black" points="198,-0.5 198,-19.5 315,-19.5 315,-0.5 198,-0.5"/>
<text text-anchor="middle" x="256.5" y="-7.5" font-family="Helvetica,sans-Serif" font-size="10.00">pdal::Dimension::name</text>
</a>
</g>
</g>
<!-- Node1&#45;&gt;Node5 -->
<g id="edge5" class="edge"><title>Node1&#45;&gt;Node5</title>
<path fill="none" stroke="midnightblue" d="M146.255,-32.8722C164.102,-29.1357 182.945,-25.1906 199.863,-21.6485"/>
<polygon fill="midnightblue" stroke="midnightblue" points="201.052,-24.9756 210.122,-19.5005 199.617,-18.1241 201.052,-24.9756"/>
</g>
<!-- Node3 -->
<g id="node3" class="node"><title>Node3</title>
<g id="a_node3"><a xlink:href="namespacepdal_1_1Utils.html#acae5a19cd66121b77e2599daec48413d" target="_top" xlink:title="pdal::Utils::extract">
<polygon fill="white" stroke="black" points="367,-57.5 367,-76.5 464,-76.5 464,-57.5 367,-57.5"/>
<text text-anchor="middle" x="415.5" y="-64.5" font-family="Helvetica,sans-Serif" font-size="10.00">pdal::Utils::extract</text>
</a>
</g>
</g>
<!-- Node2&#45;&gt;Node3 -->
<g id="edge2" class="edge"><title>Node2&#45;&gt;Node3</title>
<path fill="none" stroke="midnightblue" d="M331.403,-77.0564C339.997,-76.0163 348.666,-74.9672 356.994,-73.9594"/>
<polygon fill="midnightblue" stroke="midnightblue" points="357.448,-77.43 366.955,-72.7538 356.607,-70.4807 357.448,-77.43"/>
</g>
<!-- Node4&#45;&gt;Node3 -->
<g id="edge4" class="edge"><title>Node4&#45;&gt;Node3</title>
<path fill="none" stroke="midnightblue" d="M321.811,-55.7828C333.352,-57.1795 345.316,-58.6274 356.66,-60.0002"/>
<polygon fill="midnightblue" stroke="midnightblue" points="356.526,-63.5095 366.874,-61.2363 357.367,-56.5602 356.526,-63.5095"/>
</g>
</g>
</svg>
