<?xml version="1.0" encoding="UTF-8" standalone="no"?>
<!DOCTYPE svg PUBLIC "-//W3C//DTD SVG 1.1//EN"
 "http://www.w3.org/Graphics/SVG/1.1/DTD/svg11.dtd">
<!-- Generated by graphviz version 2.38.0 (20140413.2041)
 -->
<!-- Title: pdal::eigen::erodeDiamond Pages: 1 -->
<svg width="584pt" height="333pt"
 viewBox="0.00 0.00 584.00 333.00" xmlns="http://www.w3.org/2000/svg" xmlns:xlink="http://www.w3.org/1999/xlink">
<g id="graph0" class="graph" transform="scale(1 1) rotate(0) translate(4 329)">
<title>pdal::eigen::erodeDiamond</title>
<polygon fill="white" stroke="none" points="-4,4 -4,-329 580,-329 580,4 -4,4"/>
<!-- Node1 -->
<g id="node1" class="node"><title>Node1</title>
<polygon fill="#bfbfbf" stroke="black" points="0,-93.5 0,-112.5 133,-112.5 133,-93.5 0,-93.5"/>
<text text-anchor="middle" x="66.5" y="-100.5" font-family="Helvetica,sans-Serif" font-size="10.00">pdal::eigen::erodeDiamond</text>
</g>
<!-- Node2 -->
<g id="node2" class="node"><title>Node2</title>
<g id="a_node2"><a xlink:href="namespacepdal_1_1eigen.html#ab66d3e2ad4a22c909e99668dd0ab6f5d" target="_top" xlink:title="pdal::eigen::centralDiffY">
<polygon fill="white" stroke="black" points="178.5,-191.5 178.5,-210.5 300.5,-210.5 300.5,-191.5 178.5,-191.5"/>
<text text-anchor="middle" x="239.5" y="-198.5" font-family="Helvetica,sans-Serif" font-size="10.00">pdal::eigen::centralDiffY</text>
</a>
</g>
</g>
<!-- Node1&#45;&gt;Node2 -->
<g id="edge1" class="edge"><title>Node1&#45;&gt;Node2</title>
<path fill="none" stroke="midnightblue" d="M90.6266,-118.174C110.973,-131.325 141.546,-150.607 169,-166 185.262,-175.118 204.187,-184.576 218.179,-191.358"/>
<polygon fill="midnightblue" stroke="midnightblue" points="92.3383,-115.112 82.0458,-112.599 88.5246,-120.982 92.3383,-115.112"/>
</g>
<!-- Node9 -->
<g id="node9" class="node"><title>Node9</title>
<g id="a_node9"><a xlink:href="classpdal_1_1SMRFilter.html#ac77707c5ba859920c8b047d22adc94d1" target="_top" xlink:title="pdal::SMRFilter::createZInet">
<polygon fill="white" stroke="black" points="169.5,-137.5 169.5,-156.5 309.5,-156.5 309.5,-137.5 169.5,-137.5"/>
<text text-anchor="middle" x="239.5" y="-144.5" font-family="Helvetica,sans-Serif" font-size="10.00">pdal::SMRFilter::createZInet</text>
</a>
</g>
</g>
<!-- Node1&#45;&gt;Node9 -->
<g id="edge13" class="edge"><title>Node1&#45;&gt;Node9</title>
<path fill="none" stroke="midnightblue" d="M114.376,-115.062C141.801,-122.118 175.939,-130.902 201.468,-137.471"/>
<polygon fill="midnightblue" stroke="midnightblue" points="115.161,-111.65 104.604,-112.547 113.417,-118.429 115.161,-111.65"/>
</g>
<!-- Node10 -->
<g id="node10" class="node"><title>Node10</title>
<g id="a_node10"><a xlink:href="classpdal_1_1PMFFilter.html#a95bf260add76b94ebbaed325d4277c53" target="_top" xlink:title="pdal::PMFFilter::process\lGround">
<polygon fill="white" stroke="black" points="177.5,-88 177.5,-118 301.5,-118 301.5,-88 177.5,-88"/>
<text text-anchor="start" x="185.5" y="-106" font-family="Helvetica,sans-Serif" font-size="10.00">pdal::PMFFilter::process</text>
<text text-anchor="middle" x="239.5" y="-95" font-family="Helvetica,sans-Serif" font-size="10.00">Ground</text>
</a>
</g>
</g>
<!-- Node1&#45;&gt;Node10 -->
<g id="edge14" class="edge"><title>Node1&#45;&gt;Node10</title>
<path fill="none" stroke="midnightblue" d="M143.433,-103C154.752,-103 166.298,-103 177.263,-103"/>
<polygon fill="midnightblue" stroke="midnightblue" points="143.124,-99.5001 133.124,-103 143.124,-106.5 143.124,-99.5001"/>
</g>
<!-- Node12 -->
<g id="node12" class="node"><title>Node12</title>
<g id="a_node12"><a xlink:href="classpdal_1_1SMRFilter.html#a65534047c67cf9aece39221e6c415f3f" target="_top" xlink:title="pdal::SMRFilter::progressive\lFilter">
<polygon fill="white" stroke="black" points="169,-39 169,-69 310,-69 310,-39 169,-39"/>
<text text-anchor="start" x="177" y="-57" font-family="Helvetica,sans-Serif" font-size="10.00">pdal::SMRFilter::progressive</text>
<text text-anchor="middle" x="239.5" y="-46" font-family="Helvetica,sans-Serif" font-size="10.00">Filter</text>
</a>
</g>
</g>
<!-- Node1&#45;&gt;Node12 -->
<g id="edge16" class="edge"><title>Node1&#45;&gt;Node12</title>
<path fill="none" stroke="midnightblue" d="M110.654,-90.6343C133.55,-84.0735 161.865,-75.9597 186.024,-69.037"/>
<polygon fill="midnightblue" stroke="midnightblue" points="109.525,-87.3167 100.876,-93.436 111.454,-94.0459 109.525,-87.3167"/>
</g>
<!-- Node13 -->
<g id="node13" class="node"><title>Node13</title>
<g id="a_node13"><a xlink:href="EigenTest_8cpp.html#a9c57360acee779fc88204cf13ab372c0" target="_top" xlink:title="TEST">
<polygon fill="white" stroke="black" points="218.5,-0.5 218.5,-19.5 260.5,-19.5 260.5,-0.5 218.5,-0.5"/>
<text text-anchor="middle" x="239.5" y="-7.5" font-family="Helvetica,sans-Serif" font-size="10.00">TEST</text>
</a>
</g>
</g>
<!-- Node1&#45;&gt;Node13 -->
<g id="edge17" class="edge"><title>Node1&#45;&gt;Node13</title>
<path fill="none" stroke="midnightblue" d="M85.6196,-86.5978C104.966,-69.8886 137.16,-44.3183 169,-29 184.781,-21.4078 204.087,-16.4372 218.343,-13.4914"/>
<polygon fill="midnightblue" stroke="midnightblue" points="83.1153,-84.1392 77.9179,-93.3717 87.7383,-89.3955 83.1153,-84.1392"/>
</g>
<!-- Node3 -->
<g id="node3" class="node"><title>Node3</title>
<g id="a_node3"><a xlink:href="namespacepdal_1_1eigen.html#ab53aeec07299f46c551e1cc9e2ab2d8c" target="_top" xlink:title="pdal::eigen::computeAspectFD">
<polygon fill="white" stroke="black" points="346,-305.5 346,-324.5 498,-324.5 498,-305.5 346,-305.5"/>
<text text-anchor="middle" x="422" y="-312.5" font-family="Helvetica,sans-Serif" font-size="10.00">pdal::eigen::computeAspectFD</text>
</a>
</g>
</g>
<!-- Node2&#45;&gt;Node3 -->
<g id="edge2" class="edge"><title>Node2&#45;&gt;Node3</title>
<path fill="none" stroke="midnightblue" d="M256.239,-218.038C275.603,-238.081 310.318,-271.135 346,-291 356.87,-297.052 369.489,-301.833 381.24,-305.484"/>
<polygon fill="midnightblue" stroke="midnightblue" points="258.569,-215.408 249.147,-210.563 253.491,-220.226 258.569,-215.408"/>
</g>
<!-- Node4 -->
<g id="node4" class="node"><title>Node4</title>
<g id="a_node4"><a xlink:href="EigenTest_8cpp.html#a117227755b8d6760a72ff7d416bd094f" target="_top" xlink:title="TEST">
<polygon fill="white" stroke="black" points="534,-210.5 534,-229.5 576,-229.5 576,-210.5 534,-210.5"/>
<text text-anchor="middle" x="555" y="-217.5" font-family="Helvetica,sans-Serif" font-size="10.00">TEST</text>
</a>
</g>
</g>
<!-- Node2&#45;&gt;Node4 -->
<g id="edge12" class="edge"><title>Node2&#45;&gt;Node4</title>
<path fill="none" stroke="midnightblue" d="M261.493,-216.44C281.896,-230.415 314.354,-249.998 346,-258 411.494,-274.561 433.424,-277.841 498,-258 515.97,-252.479 533.352,-239.015 543.862,-229.694"/>
<polygon fill="midnightblue" stroke="midnightblue" points="263.462,-213.546 253.268,-210.659 259.437,-219.273 263.462,-213.546"/>
</g>
<!-- Node5 -->
<g id="node5" class="node"><title>Node5</title>
<g id="a_node5"><a xlink:href="namespacepdal_1_1eigen.html#a8a54867810b638e4b6b64fd1804f00c8" target="_top" xlink:title="pdal::eigen::computeContour">
<polygon fill="white" stroke="black" points="351,-229.5 351,-248.5 493,-248.5 493,-229.5 351,-229.5"/>
<text text-anchor="middle" x="422" y="-236.5" font-family="Helvetica,sans-Serif" font-size="10.00">pdal::eigen::computeContour</text>
</a>
</g>
</g>
<!-- Node2&#45;&gt;Node5 -->
<g id="edge4" class="edge"><title>Node2&#45;&gt;Node5</title>
<path fill="none" stroke="midnightblue" d="M295.985,-212.681C321.582,-218.07 351.584,-224.386 375.78,-229.48"/>
<polygon fill="midnightblue" stroke="midnightblue" points="296.554,-209.224 286.048,-210.589 295.112,-216.074 296.554,-209.224"/>
</g>
<!-- Node6 -->
<g id="node6" class="node"><title>Node6</title>
<g id="a_node6"><a xlink:href="namespacepdal_1_1eigen.html#ae3c73acb88d80a9f0428c980b05863d4" target="_top" xlink:title="pdal::eigen::computeProfile">
<polygon fill="white" stroke="black" points="354.5,-191.5 354.5,-210.5 489.5,-210.5 489.5,-191.5 354.5,-191.5"/>
<text text-anchor="middle" x="422" y="-198.5" font-family="Helvetica,sans-Serif" font-size="10.00">pdal::eigen::computeProfile</text>
</a>
</g>
</g>
<!-- Node2&#45;&gt;Node6 -->
<g id="edge6" class="edge"><title>Node2&#45;&gt;Node6</title>
<path fill="none" stroke="midnightblue" d="M310.867,-201C325.161,-201 340.155,-201 354.317,-201"/>
<polygon fill="midnightblue" stroke="midnightblue" points="310.604,-197.5 300.604,-201 310.604,-204.5 310.604,-197.5"/>
</g>
<!-- Node7 -->
<g id="node7" class="node"><title>Node7</title>
<g id="a_node7"><a xlink:href="namespacepdal_1_1eigen.html#a3ae8ec6a3501c7f138dc35aea08da663" target="_top" xlink:title="pdal::eigen::computeSlopeFD">
<polygon fill="white" stroke="black" points="349,-153.5 349,-172.5 495,-172.5 495,-153.5 349,-153.5"/>
<text text-anchor="middle" x="422" y="-160.5" font-family="Helvetica,sans-Serif" font-size="10.00">pdal::eigen::computeSlopeFD</text>
</a>
</g>
</g>
<!-- Node2&#45;&gt;Node7 -->
<g id="edge8" class="edge"><title>Node2&#45;&gt;Node7</title>
<path fill="none" stroke="midnightblue" d="M295.985,-189.319C321.582,-183.93 351.584,-177.614 375.78,-172.52"/>
<polygon fill="midnightblue" stroke="midnightblue" points="295.112,-185.926 286.048,-191.411 296.554,-192.776 295.112,-185.926"/>
</g>
<!-- Node8 -->
<g id="node8" class="node"><title>Node8</title>
<g id="a_node8"><a xlink:href="namespacepdal_1_1eigen.html#a28f0bb391554d5ee42aa5b3f100e833d" target="_top" xlink:title="pdal::eigen::computeTangential">
<polygon fill="white" stroke="black" points="346,-115.5 346,-134.5 498,-134.5 498,-115.5 346,-115.5"/>
<text text-anchor="middle" x="422" y="-122.5" font-family="Helvetica,sans-Serif" font-size="10.00">pdal::eigen::computeTangential</text>
</a>
</g>
</g>
<!-- Node2&#45;&gt;Node8 -->
<g id="edge10" class="edge"><title>Node2&#45;&gt;Node8</title>
<path fill="none" stroke="midnightblue" d="M269.599,-187.009C282.15,-180.805 296.922,-173.273 310,-166 326.387,-156.886 328.717,-151.273 346,-144 354.914,-140.249 364.746,-137.105 374.276,-134.523"/>
<polygon fill="midnightblue" stroke="midnightblue" points="267.937,-183.926 260.498,-191.469 271.018,-190.212 267.937,-183.926"/>
</g>
<!-- Node3&#45;&gt;Node4 -->
<g id="edge3" class="edge"><title>Node3&#45;&gt;Node4</title>
<path fill="none" stroke="midnightblue" d="M477.675,-301.772C484.835,-298.836 491.821,-295.285 498,-291 521.737,-274.539 540.282,-245.062 548.836,-229.783"/>
<polygon fill="midnightblue" stroke="midnightblue" points="476.025,-298.651 467.861,-305.404 478.454,-305.215 476.025,-298.651"/>
</g>
<!-- Node5&#45;&gt;Node4 -->
<g id="edge5" class="edge"><title>Node5&#45;&gt;Node4</title>
<path fill="none" stroke="midnightblue" d="M498.862,-227.997C511.815,-226.118 524.213,-224.32 533.96,-222.907"/>
<polygon fill="midnightblue" stroke="midnightblue" points="498.278,-224.545 488.884,-229.444 499.283,-231.473 498.278,-224.545"/>
</g>
<!-- Node6&#45;&gt;Node4 -->
<g id="edge7" class="edge"><title>Node6&#45;&gt;Node4</title>
<path fill="none" stroke="midnightblue" d="M498.862,-212.003C511.815,-213.882 524.213,-215.68 533.96,-217.093"/>
<polygon fill="midnightblue" stroke="midnightblue" points="499.283,-208.527 488.884,-210.556 498.278,-215.455 499.283,-208.527"/>
</g>
<!-- Node7&#45;&gt;Node4 -->
<g id="edge9" class="edge"><title>Node7&#45;&gt;Node4</title>
<path fill="none" stroke="midnightblue" d="M480.942,-175.501C486.802,-177.408 492.584,-179.567 498,-182 514.505,-189.414 531.418,-201.659 542.275,-210.24"/>
<polygon fill="midnightblue" stroke="midnightblue" points="481.642,-172.056 471.058,-172.524 479.624,-178.759 481.642,-172.056"/>
</g>
<!-- Node8&#45;&gt;Node4 -->
<g id="edge11" class="edge"><title>Node8&#45;&gt;Node4</title>
<path fill="none" stroke="midnightblue" d="M488.217,-138.441C491.633,-140.085 494.921,-141.93 498,-144 523.57,-161.192 541.785,-194.121 549.658,-210.401"/>
<polygon fill="midnightblue" stroke="midnightblue" points="489.507,-135.187 478.931,-134.542 486.797,-141.641 489.507,-135.187"/>
</g>
<!-- Node11 -->
<g id="node11" class="node"><title>Node11</title>
<g id="a_node11"><a xlink:href="classpdal_1_1PMFFilter.html#a4763cf7d3da9db5a7d97b116c6e5bcbb" target="_top" xlink:title="pdal::PMFFilter::run">
<polygon fill="white" stroke="black" points="370.5,-77.5 370.5,-96.5 473.5,-96.5 473.5,-77.5 370.5,-77.5"/>
<text text-anchor="middle" x="422" y="-84.5" font-family="Helvetica,sans-Serif" font-size="10.00">pdal::PMFFilter::run</text>
</a>
</g>
</g>
<!-- Node10&#45;&gt;Node11 -->
<g id="edge15" class="edge"><title>Node10&#45;&gt;Node11</title>
<path fill="none" stroke="midnightblue" d="M311.74,-96.6851C331.371,-94.9449 352.26,-93.0933 370.458,-91.4802"/>
<polygon fill="midnightblue" stroke="midnightblue" points="311.261,-93.2137 301.609,-97.5831 311.879,-100.186 311.261,-93.2137"/>
</g>
</g>
</svg>
