<?xml version="1.0" encoding="UTF-8" standalone="no"?>
<!DOCTYPE svg PUBLIC "-//W3C//DTD SVG 1.1//EN"
 "http://www.w3.org/Graphics/SVG/1.1/DTD/svg11.dtd">
<!-- Generated by graphviz version 2.38.0 (20140413.2041)
 -->
<!-- Title: anonymous_namespace{PgpointcloudWriterTest::cpp}::getMasterDBConn Pages: 1 -->
<svg width="291pt" height="50pt"
 viewBox="0.00 0.00 291.00 50.00" xmlns="http://www.w3.org/2000/svg" xmlns:xlink="http://www.w3.org/1999/xlink">
<g id="graph0" class="graph" transform="scale(1 1) rotate(0) translate(4 46)">
<title>anonymous_namespace{PgpointcloudWriterTest::cpp}::getMasterDBConn</title>
<polygon fill="white" stroke="none" points="-4,4 -4,-46 287,-46 287,4 -4,4"/>
<!-- Node1 -->
<g id="node1" class="node"><title>Node1</title>
<polygon fill="#bfbfbf" stroke="black" points="0,-0.5 0,-41.5 128,-41.5 128,-0.5 0,-0.5"/>
<text text-anchor="start" x="8" y="-29.5" font-family="Helvetica,sans-Serif" font-size="10.00">anonymous_namespace</text>
<text text-anchor="start" x="8" y="-18.5" font-family="Helvetica,sans-Serif" font-size="10.00">{PgpointcloudWriterTest</text>
<text text-anchor="middle" x="64" y="-7.5" font-family="Helvetica,sans-Serif" font-size="10.00">::cpp}::getMasterDBConn</text>
</g>
<!-- Node2 -->
<g id="node2" class="node"><title>Node2</title>
<g id="a_node2"><a xlink:href="classPgpointcloudWriterTest.html#a90ce6b300088c548a738d2da7121153e" target="_top" xlink:title="PgpointcloudWriterTest\l::SetUp">
<polygon fill="white" stroke="black" points="164,-6 164,-36 283,-36 283,-6 164,-6"/>
<text text-anchor="start" x="172" y="-24" font-family="Helvetica,sans-Serif" font-size="10.00">PgpointcloudWriterTest</text>
<text text-anchor="middle" x="223.5" y="-13" font-family="Helvetica,sans-Serif" font-size="10.00">::SetUp</text>
</a>
</g>
</g>
<!-- Node1&#45;&gt;Node2 -->
<g id="edge1" class="edge"><title>Node1&#45;&gt;Node2</title>
<path fill="none" stroke="midnightblue" d="M138.209,-21C146.831,-21 155.542,-21 163.926,-21"/>
<polygon fill="midnightblue" stroke="midnightblue" points="138.154,-17.5001 128.154,-21 138.154,-24.5001 138.154,-17.5001"/>
</g>
</g>
</svg>
