<?xml version="1.0" encoding="UTF-8" standalone="no"?>
<!DOCTYPE svg PUBLIC "-//W3C//DTD SVG 1.1//EN"
 "http://www.w3.org/Graphics/SVG/1.1/DTD/svg11.dtd">
<!-- Generated by graphviz version 2.38.0 (20140413.2041)
 -->
<!-- Title: pdal::operator!= Pages: 1 -->
<svg width="262pt" height="88pt"
 viewBox="0.00 0.00 262.00 88.00" xmlns="http://www.w3.org/2000/svg" xmlns:xlink="http://www.w3.org/1999/xlink">
<g id="graph0" class="graph" transform="scale(1 1) rotate(0) translate(4 84)">
<title>pdal::operator!=</title>
<polygon fill="white" stroke="none" points="-4,4 -4,-84 258,-84 258,4 -4,4"/>
<!-- Node1 -->
<g id="node1" class="node"><title>Node1</title>
<polygon fill="#bfbfbf" stroke="black" points="0,-30 0,-49 85,-49 85,-30 0,-30"/>
<text text-anchor="middle" x="42.5" y="-37" font-family="Helvetica,sans-Serif" font-size="10.00">pdal::operator!=</text>
</g>
<!-- Node2 -->
<g id="node2" class="node"><title>Node2</title>
<g id="a_node2"><a xlink:href="classpdal_1_1Geometry.html#aa8128b5851601c0ff1abd30478e0c148" target="_top" xlink:title="pdal::Geometry::getSpatial\lReference">
<polygon fill="white" stroke="black" points="121,-49.5 121,-79.5 254,-79.5 254,-49.5 121,-49.5"/>
<text text-anchor="start" x="129" y="-67.5" font-family="Helvetica,sans-Serif" font-size="10.00">pdal::Geometry::getSpatial</text>
<text text-anchor="middle" x="187.5" y="-56.5" font-family="Helvetica,sans-Serif" font-size="10.00">Reference</text>
</a>
</g>
</g>
<!-- Node1&#45;&gt;Node2 -->
<g id="edge1" class="edge"><title>Node1&#45;&gt;Node2</title>
<path fill="none" stroke="midnightblue" d="M95.1568,-48.5309C103.467,-49.9838 112.167,-51.5046 120.754,-53.006"/>
<polygon fill="midnightblue" stroke="midnightblue" points="95.6993,-45.0727 85.2459,-46.7982 94.4938,-51.9682 95.6993,-45.0727"/>
</g>
<!-- Node3 -->
<g id="node3" class="node"><title>Node3</title>
<g id="a_node3"><a xlink:href="classpdal_1_1SpatialReference.html#a500300fdb9d2441c7db0fa76ee5cadfd" target="_top" xlink:title="pdal::SpatialReference\l::SpatialReference">
<polygon fill="white" stroke="black" points="129.5,-0.5 129.5,-30.5 245.5,-30.5 245.5,-0.5 129.5,-0.5"/>
<text text-anchor="start" x="137.5" y="-18.5" font-family="Helvetica,sans-Serif" font-size="10.00">pdal::SpatialReference</text>
<text text-anchor="middle" x="187.5" y="-7.5" font-family="Helvetica,sans-Serif" font-size="10.00">::SpatialReference</text>
</a>
</g>
</g>
<!-- Node1&#45;&gt;Node3 -->
<g id="edge2" class="edge"><title>Node1&#45;&gt;Node3</title>
<path fill="none" stroke="midnightblue" d="M95.1873,-30.8252C106.26,-28.9669 118.021,-26.993 129.288,-25.102"/>
<polygon fill="midnightblue" stroke="midnightblue" points="94.5287,-27.3867 85.2459,-32.4937 95.6873,-34.2902 94.5287,-27.3867"/>
</g>
</g>
</svg>
