<?xml version="1.0" encoding="UTF-8" standalone="no"?>
<!DOCTYPE svg PUBLIC "-//W3C//DTD SVG 1.1//EN"
 "http://www.w3.org/Graphics/SVG/1.1/DTD/svg11.dtd">
<!-- Generated by graphviz version 2.38.0 (20140413.2041)
 -->
<!-- Title: pdal::eigen::computeCovariance Pages: 1 -->
<svg width="862pt" height="154pt"
 viewBox="0.00 0.00 862.00 153.50" xmlns="http://www.w3.org/2000/svg" xmlns:xlink="http://www.w3.org/1999/xlink">
<g id="graph0" class="graph" transform="scale(1 1) rotate(0) translate(4 149.5)">
<title>pdal::eigen::computeCovariance</title>
<polygon fill="white" stroke="none" points="-4,4 -4,-149.5 858,-149.5 858,4 -4,4"/>
<!-- Node1 -->
<g id="node1" class="node"><title>Node1</title>
<polygon fill="#bfbfbf" stroke="black" points="0,-69 0,-88 157,-88 157,-69 0,-69"/>
<text text-anchor="middle" x="78.5" y="-76" font-family="Helvetica,sans-Serif" font-size="10.00">pdal::eigen::computeCovariance</text>
</g>
<!-- Node2 -->
<g id="node2" class="node"><title>Node2</title>
<g id="a_node2"><a xlink:href="namespacepdal_1_1eigen.html#a77a9913ed3d09f4d6105909e8ad4a5e5" target="_top" xlink:title="pdal::eigen::computeCentroid">
<polygon fill="white" stroke="black" points="193,-88 193,-107 337,-107 337,-88 193,-88"/>
<text text-anchor="middle" x="265" y="-95" font-family="Helvetica,sans-Serif" font-size="10.00">pdal::eigen::computeCentroid</text>
</a>
</g>
</g>
<!-- Node1&#45;&gt;Node2 -->
<g id="edge1" class="edge"><title>Node1&#45;&gt;Node2</title>
<path fill="none" stroke="midnightblue" d="M157.21,-86.5026C165.612,-87.3679 174.178,-88.2501 182.622,-89.1196"/>
<polygon fill="midnightblue" stroke="midnightblue" points="182.535,-92.629 192.841,-90.1719 183.252,-85.6659 182.535,-92.629"/>
</g>
<!-- Node3 -->
<g id="node3" class="node"><title>Node3</title>
<g id="a_node3"><a xlink:href="classpdal_1_1PointView.html#a4c594a6d2a469e594988194ccf125a15" target="_top" xlink:title="pdal::PointView::getFieldAs">
<polygon fill="white" stroke="black" points="373,-69 373,-88 510,-88 510,-69 373,-69"/>
<text text-anchor="middle" x="441.5" y="-76" font-family="Helvetica,sans-Serif" font-size="10.00">pdal::PointView::getFieldAs</text>
</a>
</g>
</g>
<!-- Node1&#45;&gt;Node3 -->
<g id="edge8" class="edge"><title>Node1&#45;&gt;Node3</title>
<path fill="none" stroke="midnightblue" d="M157.387,-78.5C218.03,-78.5 301.813,-78.5 362.488,-78.5"/>
<polygon fill="midnightblue" stroke="midnightblue" points="362.777,-82.0001 372.777,-78.5 362.777,-75.0001 362.777,-82.0001"/>
</g>
<!-- Node2&#45;&gt;Node3 -->
<g id="edge2" class="edge"><title>Node2&#45;&gt;Node3</title>
<path fill="none" stroke="midnightblue" d="M337.228,-89.7446C345.694,-88.8227 354.37,-87.8781 362.92,-86.9471"/>
<polygon fill="midnightblue" stroke="midnightblue" points="363.317,-90.4247 372.879,-85.8627 362.559,-83.4658 363.317,-90.4247"/>
</g>
<!-- Node4 -->
<g id="node4" class="node"><title>Node4</title>
<g id="a_node4"><a xlink:href="namespacepdal_1_1Dimension.html#acc41232ae1e707d6c928ffb9a56592d3" target="_top" xlink:title="pdal::Dimension::interpretationName">
<polygon fill="white" stroke="black" points="546,-126 546,-145 722,-145 722,-126 546,-126"/>
<text text-anchor="middle" x="634" y="-133" font-family="Helvetica,sans-Serif" font-size="10.00">pdal::Dimension::interpretationName</text>
</a>
</g>
</g>
<!-- Node3&#45;&gt;Node4 -->
<g id="edge3" class="edge"><title>Node3&#45;&gt;Node4</title>
<path fill="none" stroke="midnightblue" d="M465.626,-88.0268C486.404,-96.336 517.882,-108.31 546,-116.5 554.829,-119.072 564.253,-121.474 573.518,-123.647"/>
<polygon fill="midnightblue" stroke="midnightblue" points="572.946,-127.107 583.473,-125.912 574.499,-120.281 572.946,-127.107"/>
</g>
<!-- Node5 -->
<g id="node5" class="node"><title>Node5</title>
<g id="a_node5"><a xlink:href="namespacepdal_1_1Dimension.html#af3176b0b7e6b4be000317846cf7c2718" target="_top" xlink:title="pdal::Dimension::name">
<polygon fill="white" stroke="black" points="575.5,-88 575.5,-107 692.5,-107 692.5,-88 575.5,-88"/>
<text text-anchor="middle" x="634" y="-95" font-family="Helvetica,sans-Serif" font-size="10.00">pdal::Dimension::name</text>
</a>
</g>
</g>
<!-- Node3&#45;&gt;Node5 -->
<g id="edge4" class="edge"><title>Node3&#45;&gt;Node5</title>
<path fill="none" stroke="midnightblue" d="M510.2,-85.2522C527.99,-87.0265 547.183,-88.9408 564.99,-90.7168"/>
<polygon fill="midnightblue" stroke="midnightblue" points="564.994,-94.2346 575.292,-91.7444 565.689,-87.2691 564.994,-94.2346"/>
</g>
<!-- Node6 -->
<g id="node6" class="node"><title>Node6</title>
<g id="a_node6"><a xlink:href="namespacepdal_1_1Utils.html#a33d614ac71aa03aaa5c10a242c4d14ac" target="_top" xlink:title="pdal::Utils::numericCast">
<polygon fill="white" stroke="black" points="573,-50 573,-69 695,-69 695,-50 573,-50"/>
<text text-anchor="middle" x="634" y="-57" font-family="Helvetica,sans-Serif" font-size="10.00">pdal::Utils::numericCast</text>
</a>
</g>
</g>
<!-- Node3&#45;&gt;Node6 -->
<g id="edge5" class="edge"><title>Node3&#45;&gt;Node6</title>
<path fill="none" stroke="midnightblue" d="M510.2,-71.7478C527.275,-70.0448 545.642,-68.2129 562.835,-66.498"/>
<polygon fill="midnightblue" stroke="midnightblue" points="563.201,-69.979 572.804,-65.5038 562.506,-63.0136 563.201,-69.979"/>
</g>
<!-- Node8 -->
<g id="node8" class="node"><title>Node8</title>
<g id="a_node8"><a xlink:href="classpdal_1_1Dimension_1_1Detail.html#adf5961976b7fce3d90a0dddd50519a7c" target="_top" xlink:title="pdal::Dimension::Detail\l::type">
<polygon fill="white" stroke="black" points="574.5,-0.5 574.5,-30.5 693.5,-30.5 693.5,-0.5 574.5,-0.5"/>
<text text-anchor="start" x="582.5" y="-18.5" font-family="Helvetica,sans-Serif" font-size="10.00">pdal::Dimension::Detail</text>
<text text-anchor="middle" x="634" y="-7.5" font-family="Helvetica,sans-Serif" font-size="10.00">::type</text>
</a>
</g>
</g>
<!-- Node3&#45;&gt;Node8 -->
<g id="edge7" class="edge"><title>Node3&#45;&gt;Node8</title>
<path fill="none" stroke="midnightblue" d="M467.002,-68.9374C487.865,-60.932 518.708,-49.4186 546,-40.5 553.352,-38.0974 561.093,-35.6945 568.802,-33.3803"/>
<polygon fill="midnightblue" stroke="midnightblue" points="569.923,-36.6988 578.517,-30.5031 567.935,-29.9869 569.923,-36.6988"/>
</g>
<!-- Node7 -->
<g id="node7" class="node"><title>Node7</title>
<g id="a_node7"><a xlink:href="namespacepdal_1_1Utils.html#a06833597f1fc4287966cfa0867128e59" target="_top" xlink:title="pdal::Utils::sround">
<polygon fill="white" stroke="black" points="758,-50 758,-69 854,-69 854,-50 758,-50"/>
<text text-anchor="middle" x="806" y="-57" font-family="Helvetica,sans-Serif" font-size="10.00">pdal::Utils::sround</text>
</a>
</g>
</g>
<!-- Node6&#45;&gt;Node7 -->
<g id="edge6" class="edge"><title>Node6&#45;&gt;Node7</title>
<path fill="none" stroke="midnightblue" d="M695.414,-59.5C712.406,-59.5 730.832,-59.5 747.641,-59.5"/>
<polygon fill="midnightblue" stroke="midnightblue" points="747.87,-63.0001 757.87,-59.5 747.869,-56.0001 747.87,-63.0001"/>
</g>
</g>
</svg>
