<?xml version="1.0" encoding="UTF-8" standalone="no"?>
<!DOCTYPE svg PUBLIC "-//W3C//DTD SVG 1.1//EN"
 "http://www.w3.org/Graphics/SVG/1.1/DTD/svg11.dtd">
<!-- Generated by graphviz version 2.38.0 (20140413.2041)
 -->
<!-- Title: pdal::eigen::computeHillshade Pages: 1 -->
<svg width="342pt" height="104pt"
 viewBox="0.00 0.00 342.00 104.00" xmlns="http://www.w3.org/2000/svg" xmlns:xlink="http://www.w3.org/1999/xlink">
<g id="graph0" class="graph" transform="scale(1 1) rotate(0) translate(4 100)">
<title>pdal::eigen::computeHillshade</title>
<polygon fill="white" stroke="none" points="-4,4 -4,-100 338,-100 338,4 -4,4"/>
<!-- Node1 -->
<g id="node1" class="node"><title>Node1</title>
<polygon fill="#bfbfbf" stroke="black" points="0,-38.5 0,-57.5 148,-57.5 148,-38.5 0,-38.5"/>
<text text-anchor="middle" x="74" y="-45.5" font-family="Helvetica,sans-Serif" font-size="10.00">pdal::eigen::computeHillshade</text>
</g>
<!-- Node2 -->
<g id="node2" class="node"><title>Node2</title>
<g id="a_node2"><a xlink:href="namespacepdal_1_1eigen.html#afcaf22e198755da4e5f8a8e2092c5235" target="_top" xlink:title="pdal::eigen::computeDZDX">
<polygon fill="white" stroke="black" points="191.5,-76.5 191.5,-95.5 326.5,-95.5 326.5,-76.5 191.5,-76.5"/>
<text text-anchor="middle" x="259" y="-83.5" font-family="Helvetica,sans-Serif" font-size="10.00">pdal::eigen::computeDZDX</text>
</a>
</g>
</g>
<!-- Node1&#45;&gt;Node2 -->
<g id="edge1" class="edge"><title>Node1&#45;&gt;Node2</title>
<path fill="none" stroke="midnightblue" d="M121.179,-57.589C145.763,-62.6939 176.186,-69.0113 202.097,-74.3918"/>
<polygon fill="midnightblue" stroke="midnightblue" points="201.651,-77.8736 212.153,-76.4799 203.074,-71.0198 201.651,-77.8736"/>
</g>
<!-- Node3 -->
<g id="node3" class="node"><title>Node3</title>
<g id="a_node3"><a xlink:href="namespacepdal_1_1eigen.html#acf40669546d96c4848646200ab6c2ead" target="_top" xlink:title="pdal::eigen::computeDZDY">
<polygon fill="white" stroke="black" points="191.5,-38.5 191.5,-57.5 326.5,-57.5 326.5,-38.5 191.5,-38.5"/>
<text text-anchor="middle" x="259" y="-45.5" font-family="Helvetica,sans-Serif" font-size="10.00">pdal::eigen::computeDZDY</text>
</a>
</g>
</g>
<!-- Node1&#45;&gt;Node3 -->
<g id="edge2" class="edge"><title>Node1&#45;&gt;Node3</title>
<path fill="none" stroke="midnightblue" d="M148.115,-48C158.904,-48 170.048,-48 180.914,-48"/>
<polygon fill="midnightblue" stroke="midnightblue" points="181.226,-51.5001 191.226,-48 181.226,-44.5001 181.226,-51.5001"/>
</g>
<!-- Node4 -->
<g id="node4" class="node"><title>Node4</title>
<g id="a_node4"><a xlink:href="namespacepdal_1_1eigen.html#aa3fdc35f98004875cdf1ce56d255b900" target="_top" xlink:title="pdal::eigen::computeSlopeRad">
<polygon fill="white" stroke="black" points="184,-0.5 184,-19.5 334,-19.5 334,-0.5 184,-0.5"/>
<text text-anchor="middle" x="259" y="-7.5" font-family="Helvetica,sans-Serif" font-size="10.00">pdal::eigen::computeSlopeRad</text>
</a>
</g>
</g>
<!-- Node1&#45;&gt;Node4 -->
<g id="edge3" class="edge"><title>Node1&#45;&gt;Node4</title>
<path fill="none" stroke="midnightblue" d="M121.179,-38.411C145.763,-33.3061 176.186,-26.9887 202.097,-21.6082"/>
<polygon fill="midnightblue" stroke="midnightblue" points="203.074,-24.9802 212.153,-19.5201 201.651,-18.1264 203.074,-24.9802"/>
</g>
</g>
</svg>
