<?xml version="1.0" encoding="UTF-8" standalone="no"?>
<!DOCTYPE svg PUBLIC "-//W3C//DTD SVG 1.1//EN"
 "http://www.w3.org/Graphics/SVG/1.1/DTD/svg11.dtd">
<!-- Generated by graphviz version 2.38.0 (20140413.2041)
 -->
<!-- Title: pdal::eigen::extendedLocalMinimum Pages: 1 -->
<svg width="658pt" height="306pt"
 viewBox="0.00 0.00 658.00 305.50" xmlns="http://www.w3.org/2000/svg" xmlns:xlink="http://www.w3.org/1999/xlink">
<g id="graph0" class="graph" transform="scale(1 1) rotate(0) translate(4 301.5)">
<title>pdal::eigen::extendedLocalMinimum</title>
<polygon fill="white" stroke="none" points="-4,4 -4,-301.5 654,-301.5 654,4 -4,4"/>
<!-- Node1 -->
<g id="node1" class="node"><title>Node1</title>
<polygon fill="#bfbfbf" stroke="black" points="0,-82.5 0,-112.5 133,-112.5 133,-82.5 0,-82.5"/>
<text text-anchor="start" x="8" y="-100.5" font-family="Helvetica,sans-Serif" font-size="10.00">pdal::eigen::extendedLocal</text>
<text text-anchor="middle" x="66.5" y="-89.5" font-family="Helvetica,sans-Serif" font-size="10.00">Minimum</text>
</g>
<!-- Node2 -->
<g id="node2" class="node"><title>Node2</title>
<g id="a_node2"><a xlink:href="namespacepdal_1_1Utils.html#af9895f466e24147ed204408cc271579d" target="_top" xlink:title="Clamp value to given bounds. ">
<polygon fill="white" stroke="black" points="191,-202 191,-221 284,-221 284,-202 191,-202"/>
<text text-anchor="middle" x="237.5" y="-209" font-family="Helvetica,sans-Serif" font-size="10.00">pdal::Utils::clamp</text>
</a>
</g>
</g>
<!-- Node1&#45;&gt;Node2 -->
<g id="edge1" class="edge"><title>Node1&#45;&gt;Node2</title>
<path fill="none" stroke="midnightblue" d="M89.9419,-112.638C122.278,-134.451 181.636,-174.491 214.003,-196.325"/>
<polygon fill="midnightblue" stroke="midnightblue" points="212.124,-199.279 222.372,-201.97 216.039,-193.476 212.124,-199.279"/>
</g>
<!-- Node7 -->
<g id="node7" class="node"><title>Node7</title>
<g id="a_node7"><a xlink:href="classpdal_1_1PointView.html#a4c594a6d2a469e594988194ccf125a15" target="_top" xlink:title="pdal::PointView::getFieldAs">
<polygon fill="white" stroke="black" points="169,-88 169,-107 306,-107 306,-88 169,-88"/>
<text text-anchor="middle" x="237.5" y="-95" font-family="Helvetica,sans-Serif" font-size="10.00">pdal::PointView::getFieldAs</text>
</a>
</g>
</g>
<!-- Node1&#45;&gt;Node7 -->
<g id="edge6" class="edge"><title>Node1&#45;&gt;Node7</title>
<path fill="none" stroke="midnightblue" d="M133.324,-97.5C141.626,-97.5 150.181,-97.5 158.647,-97.5"/>
<polygon fill="midnightblue" stroke="midnightblue" points="158.906,-101 168.906,-97.5 158.906,-94.0001 158.906,-101"/>
</g>
<!-- Node13 -->
<g id="node13" class="node"><title>Node13</title>
<g id="a_node13"><a xlink:href="classpdal_1_1PointView.html#a4c2fba9b5d7a61f19a558bb08405555d" target="_top" xlink:title="pdal::PointView::size">
<polygon fill="white" stroke="black" points="183,-50 183,-69 292,-69 292,-50 183,-50"/>
<text text-anchor="middle" x="237.5" y="-57" font-family="Helvetica,sans-Serif" font-size="10.00">pdal::PointView::size</text>
</a>
</g>
</g>
<!-- Node1&#45;&gt;Node13 -->
<g id="edge12" class="edge"><title>Node1&#45;&gt;Node13</title>
<path fill="none" stroke="midnightblue" d="M133.324,-82.6994C150.286,-78.8855 168.305,-74.8339 184.457,-71.2019"/>
<polygon fill="midnightblue" stroke="midnightblue" points="185.259,-74.6091 194.248,-69.0005 183.723,-67.7796 185.259,-74.6091"/>
</g>
<!-- Node3 -->
<g id="node3" class="node"><title>Node3</title>
<g id="a_node3"><a xlink:href="namespacepdal_1_1Utils.html#ad02787dce6b6f45473604bc9fe7e9c10" target="_top" xlink:title="pdal::Utils::random_seed">
<polygon fill="white" stroke="black" points="367.5,-278 367.5,-297 492.5,-297 492.5,-278 367.5,-278"/>
<text text-anchor="middle" x="430" y="-285" font-family="Helvetica,sans-Serif" font-size="10.00">pdal::Utils::random_seed</text>
</a>
</g>
</g>
<!-- Node2&#45;&gt;Node3 -->
<g id="edge2" class="edge"><title>Node2&#45;&gt;Node3</title>
<path fill="none" stroke="midnightblue" d="M252.603,-221.002C271.955,-233.626 308.201,-255.808 342,-268.5 348.944,-271.107 356.341,-273.405 363.777,-275.417"/>
<polygon fill="midnightblue" stroke="midnightblue" points="362.986,-278.827 373.54,-277.9 364.711,-272.043 362.986,-278.827"/>
</g>
<!-- Node4 -->
<g id="node4" class="node"><title>Node4</title>
<g id="a_node4"><a xlink:href="namespacepdal_1_1Utils.html#ae307965bf4f08edcc45fbe8599c0eddc" target="_top" xlink:title="pdal::Utils::random">
<polygon fill="white" stroke="black" points="380.5,-240 380.5,-259 479.5,-259 479.5,-240 380.5,-240"/>
<text text-anchor="middle" x="430" y="-247" font-family="Helvetica,sans-Serif" font-size="10.00">pdal::Utils::random</text>
</a>
</g>
</g>
<!-- Node2&#45;&gt;Node4 -->
<g id="edge3" class="edge"><title>Node2&#45;&gt;Node4</title>
<path fill="none" stroke="midnightblue" d="M284.129,-220.602C310.207,-225.804 343.168,-232.379 371.06,-237.942"/>
<polygon fill="midnightblue" stroke="midnightblue" points="370.593,-241.418 381.084,-239.942 371.962,-234.553 370.593,-241.418"/>
</g>
<!-- Node5 -->
<g id="node5" class="node"><title>Node5</title>
<g id="a_node5"><a xlink:href="namespacepdal_1_1Utils.html#ae21c6270b839374408725a65e3dcd4b1" target="_top" xlink:title="pdal::Utils::uniform">
<polygon fill="white" stroke="black" points="380.5,-202 380.5,-221 479.5,-221 479.5,-202 380.5,-202"/>
<text text-anchor="middle" x="430" y="-209" font-family="Helvetica,sans-Serif" font-size="10.00">pdal::Utils::uniform</text>
</a>
</g>
</g>
<!-- Node2&#45;&gt;Node5 -->
<g id="edge4" class="edge"><title>Node2&#45;&gt;Node5</title>
<path fill="none" stroke="midnightblue" d="M284.129,-211.5C309.897,-211.5 342.386,-211.5 370.065,-211.5"/>
<polygon fill="midnightblue" stroke="midnightblue" points="370.413,-215 380.413,-211.5 370.413,-208 370.413,-215"/>
</g>
<!-- Node6 -->
<g id="node6" class="node"><title>Node6</title>
<g id="a_node6"><a xlink:href="namespacepdal_1_1Utils.html#a811546a69a0e444b3060f63ae4a797c7" target="_top" xlink:title="pdal::Utils::normal">
<polygon fill="white" stroke="black" points="382,-164 382,-183 478,-183 478,-164 382,-164"/>
<text text-anchor="middle" x="430" y="-171" font-family="Helvetica,sans-Serif" font-size="10.00">pdal::Utils::normal</text>
</a>
</g>
</g>
<!-- Node2&#45;&gt;Node6 -->
<g id="edge5" class="edge"><title>Node2&#45;&gt;Node6</title>
<path fill="none" stroke="midnightblue" d="M284.129,-202.398C310.403,-197.157 343.664,-190.522 371.688,-184.932"/>
<polygon fill="midnightblue" stroke="midnightblue" points="372.631,-188.313 381.753,-182.925 371.262,-181.448 372.631,-188.313"/>
</g>
<!-- Node8 -->
<g id="node8" class="node"><title>Node8</title>
<g id="a_node8"><a xlink:href="namespacepdal_1_1Dimension.html#acc41232ae1e707d6c928ffb9a56592d3" target="_top" xlink:title="pdal::Dimension::interpretationName">
<polygon fill="white" stroke="black" points="342,-126 342,-145 518,-145 518,-126 342,-126"/>
<text text-anchor="middle" x="430" y="-133" font-family="Helvetica,sans-Serif" font-size="10.00">pdal::Dimension::interpretationName</text>
</a>
</g>
</g>
<!-- Node7&#45;&gt;Node8 -->
<g id="edge7" class="edge"><title>Node7&#45;&gt;Node8</title>
<path fill="none" stroke="midnightblue" d="M286.571,-107.089C312.276,-112.216 344.113,-118.567 371.164,-123.963"/>
<polygon fill="midnightblue" stroke="midnightblue" points="370.783,-127.456 381.274,-125.98 372.152,-120.591 370.783,-127.456"/>
</g>
<!-- Node9 -->
<g id="node9" class="node"><title>Node9</title>
<g id="a_node9"><a xlink:href="namespacepdal_1_1Dimension.html#af3176b0b7e6b4be000317846cf7c2718" target="_top" xlink:title="pdal::Dimension::name">
<polygon fill="white" stroke="black" points="371.5,-88 371.5,-107 488.5,-107 488.5,-88 371.5,-88"/>
<text text-anchor="middle" x="430" y="-95" font-family="Helvetica,sans-Serif" font-size="10.00">pdal::Dimension::name</text>
</a>
</g>
</g>
<!-- Node7&#45;&gt;Node9 -->
<g id="edge8" class="edge"><title>Node7&#45;&gt;Node9</title>
<path fill="none" stroke="midnightblue" d="M306.2,-97.5C323.99,-97.5 343.183,-97.5 360.99,-97.5"/>
<polygon fill="midnightblue" stroke="midnightblue" points="361.292,-101 371.292,-97.5 361.292,-94.0001 361.292,-101"/>
</g>
<!-- Node10 -->
<g id="node10" class="node"><title>Node10</title>
<g id="a_node10"><a xlink:href="namespacepdal_1_1Utils.html#a33d614ac71aa03aaa5c10a242c4d14ac" target="_top" xlink:title="pdal::Utils::numericCast">
<polygon fill="white" stroke="black" points="369,-50 369,-69 491,-69 491,-50 369,-50"/>
<text text-anchor="middle" x="430" y="-57" font-family="Helvetica,sans-Serif" font-size="10.00">pdal::Utils::numericCast</text>
</a>
</g>
</g>
<!-- Node7&#45;&gt;Node10 -->
<g id="edge9" class="edge"><title>Node7&#45;&gt;Node10</title>
<path fill="none" stroke="midnightblue" d="M286.571,-87.911C312.276,-82.7835 344.113,-76.4328 371.164,-71.0368"/>
<polygon fill="midnightblue" stroke="midnightblue" points="372.152,-74.4087 381.274,-69.0201 370.783,-67.544 372.152,-74.4087"/>
</g>
<!-- Node12 -->
<g id="node12" class="node"><title>Node12</title>
<g id="a_node12"><a xlink:href="classpdal_1_1Dimension_1_1Detail.html#adf5961976b7fce3d90a0dddd50519a7c" target="_top" xlink:title="pdal::Dimension::Detail\l::type">
<polygon fill="white" stroke="black" points="370.5,-0.5 370.5,-30.5 489.5,-30.5 489.5,-0.5 370.5,-0.5"/>
<text text-anchor="start" x="378.5" y="-18.5" font-family="Helvetica,sans-Serif" font-size="10.00">pdal::Dimension::Detail</text>
<text text-anchor="middle" x="430" y="-7.5" font-family="Helvetica,sans-Serif" font-size="10.00">::type</text>
</a>
</g>
</g>
<!-- Node7&#45;&gt;Node12 -->
<g id="edge11" class="edge"><title>Node7&#45;&gt;Node12</title>
<path fill="none" stroke="midnightblue" d="M285.264,-87.9058C292.484,-85.4284 299.643,-82.3397 306,-78.5 325.913,-66.4711 322.119,-52.5829 342,-40.5 347.775,-36.9903 354.064,-33.9542 360.532,-31.3318"/>
<polygon fill="midnightblue" stroke="midnightblue" points="361.942,-34.5418 370.098,-27.7786 359.505,-27.9799 361.942,-34.5418"/>
</g>
<!-- Node11 -->
<g id="node11" class="node"><title>Node11</title>
<g id="a_node11"><a xlink:href="namespacepdal_1_1Utils.html#a06833597f1fc4287966cfa0867128e59" target="_top" xlink:title="pdal::Utils::sround">
<polygon fill="white" stroke="black" points="554,-50 554,-69 650,-69 650,-50 554,-50"/>
<text text-anchor="middle" x="602" y="-57" font-family="Helvetica,sans-Serif" font-size="10.00">pdal::Utils::sround</text>
</a>
</g>
</g>
<!-- Node10&#45;&gt;Node11 -->
<g id="edge10" class="edge"><title>Node10&#45;&gt;Node11</title>
<path fill="none" stroke="midnightblue" d="M491.414,-59.5C508.406,-59.5 526.832,-59.5 543.641,-59.5"/>
<polygon fill="midnightblue" stroke="midnightblue" points="543.87,-63.0001 553.87,-59.5 543.869,-56.0001 543.87,-63.0001"/>
</g>
</g>
</svg>
