<?xml version="1.0" encoding="UTF-8" standalone="no"?>
<!DOCTYPE svg PUBLIC "-//W3C//DTD SVG 1.1//EN"
 "http://www.w3.org/Graphics/SVG/1.1/DTD/svg11.dtd">
<!-- Generated by graphviz version 2.38.0 (20140413.2041)
 -->
<!-- Title: pdal::convert Pages: 1 -->
<svg width="362pt" height="110pt"
 viewBox="0.00 0.00 362.00 110.00" xmlns="http://www.w3.org/2000/svg" xmlns:xlink="http://www.w3.org/1999/xlink">
<g id="graph0" class="graph" transform="scale(1 1) rotate(0) translate(4 106)">
<title>pdal::convert</title>
<polygon fill="white" stroke="none" points="-4,4 -4,-106 358,-106 358,4 -4,4"/>
<!-- Node1 -->
<g id="node1" class="node"><title>Node1</title>
<polygon fill="#bfbfbf" stroke="black" points="0,-52 0,-71 73,-71 73,-52 0,-52"/>
<text text-anchor="middle" x="36.5" y="-59" font-family="Helvetica,sans-Serif" font-size="10.00">pdal::convert</text>
</g>
<!-- Node2 -->
<g id="node2" class="node"><title>Node2</title>
<g id="a_node2"><a xlink:href="classpdal_1_1Ilvis2Reader.html#a506273c16d7e431273181a9d2fd2b736" target="_top" xlink:title="pdal::Ilvis2Reader\l::initialize">
<polygon fill="white" stroke="black" points="110.5,-71.5 110.5,-101.5 205.5,-101.5 205.5,-71.5 110.5,-71.5"/>
<text text-anchor="start" x="118.5" y="-89.5" font-family="Helvetica,sans-Serif" font-size="10.00">pdal::Ilvis2Reader</text>
<text text-anchor="middle" x="158" y="-78.5" font-family="Helvetica,sans-Serif" font-size="10.00">::initialize</text>
</a>
</g>
</g>
<!-- Node1&#45;&gt;Node2 -->
<g id="edge1" class="edge"><title>Node1&#45;&gt;Node2</title>
<path fill="none" stroke="midnightblue" d="M82.9124,-71.0005C91.8786,-72.8763 101.303,-74.8478 110.31,-76.7323"/>
<polygon fill="midnightblue" stroke="midnightblue" points="83.5352,-67.5551 73.0304,-68.9331 82.1018,-74.4068 83.5352,-67.5551"/>
</g>
<!-- Node3 -->
<g id="node3" class="node"><title>Node3</title>
<g id="a_node3"><a xlink:href="classpdal_1_1mlang_1_1Script.html#afbb1ef33651f4742aad98f4acc51a572" target="_top" xlink:title="pdal::mlang::Script\l::setMatlabStruct">
<polygon fill="white" stroke="black" points="109,-22.5 109,-52.5 207,-52.5 207,-22.5 109,-22.5"/>
<text text-anchor="start" x="117" y="-40.5" font-family="Helvetica,sans-Serif" font-size="10.00">pdal::mlang::Script</text>
<text text-anchor="middle" x="158" y="-29.5" font-family="Helvetica,sans-Serif" font-size="10.00">::setMatlabStruct</text>
</a>
</g>
</g>
<!-- Node1&#45;&gt;Node3 -->
<g id="edge2" class="edge"><title>Node1&#45;&gt;Node3</title>
<path fill="none" stroke="midnightblue" d="M83.1132,-52.3392C91.5834,-50.6381 100.456,-48.8562 108.995,-47.1412"/>
<polygon fill="midnightblue" stroke="midnightblue" points="82.1454,-48.9636 73.0304,-54.3642 83.5238,-55.8265 82.1454,-48.9636"/>
</g>
<!-- Node4 -->
<g id="node4" class="node"><title>Node4</title>
<g id="a_node4"><a xlink:href="classpdal_1_1MatlabFilter.html#a8936067bb62fb503d654703fb4dbb45a" target="_top" xlink:title="pdal::MatlabFilter::run">
<polygon fill="white" stroke="black" points="243,-50 243,-69 354,-69 354,-50 243,-50"/>
<text text-anchor="middle" x="298.5" y="-57" font-family="Helvetica,sans-Serif" font-size="10.00">pdal::MatlabFilter::run</text>
</a>
</g>
</g>
<!-- Node3&#45;&gt;Node4 -->
<g id="edge3" class="edge"><title>Node3&#45;&gt;Node4</title>
<path fill="none" stroke="midnightblue" d="M216.983,-46.7102C225.563,-48.0732 234.38,-49.4737 242.889,-50.8253"/>
<polygon fill="midnightblue" stroke="midnightblue" points="217.477,-43.245 207.052,-45.1328 216.379,-50.1583 217.477,-43.245"/>
</g>
<!-- Node5 -->
<g id="node5" class="node"><title>Node5</title>
<g id="a_node5"><a xlink:href="classpdal_1_1MatlabWriter.html#a96ed356ff0f2ae0276cbdbb050be13b6" target="_top" xlink:title="pdal::MatlabWriter\l::write">
<polygon fill="white" stroke="black" points="250.5,-0.5 250.5,-30.5 346.5,-30.5 346.5,-0.5 250.5,-0.5"/>
<text text-anchor="start" x="258.5" y="-18.5" font-family="Helvetica,sans-Serif" font-size="10.00">pdal::MatlabWriter</text>
<text text-anchor="middle" x="298.5" y="-7.5" font-family="Helvetica,sans-Serif" font-size="10.00">::write</text>
</a>
</g>
</g>
<!-- Node3&#45;&gt;Node5 -->
<g id="edge4" class="edge"><title>Node3&#45;&gt;Node5</title>
<path fill="none" stroke="midnightblue" d="M217.119,-28.2681C228.238,-26.5019 239.75,-24.6732 250.468,-22.9707"/>
<polygon fill="midnightblue" stroke="midnightblue" points="216.379,-24.8417 207.052,-29.8672 217.477,-31.755 216.379,-24.8417"/>
</g>
</g>
</svg>
