<?xml version="1.0" encoding="UTF-8" standalone="no"?>
<!DOCTYPE svg PUBLIC "-//W3C//DTD SVG 1.1//EN"
 "http://www.w3.org/Graphics/SVG/1.1/DTD/svg11.dtd">
<!-- Generated by graphviz version 2.38.0 (20140413.2041)
 -->
<!-- Title: pdal::georeference::anonymous_namespace{Georeference::cpp}::cartesianToCurvilinear Pages: 1 -->
<svg width="581pt" height="137pt"
 viewBox="0.00 0.00 581.00 137.00" xmlns="http://www.w3.org/2000/svg" xmlns:xlink="http://www.w3.org/1999/xlink">
<g id="graph0" class="graph" transform="scale(1 1) rotate(0) translate(4 133)">
<title>pdal::georeference::anonymous_namespace{Georeference::cpp}::cartesianToCurvilinear</title>
<polygon fill="white" stroke="none" points="-4,4 -4,-133 577,-133 577,4 -4,4"/>
<!-- Node1 -->
<g id="node1" class="node"><title>Node1</title>
<polygon fill="#bfbfbf" stroke="black" points="0,-38.5 0,-90.5 149,-90.5 149,-38.5 0,-38.5"/>
<text text-anchor="start" x="8" y="-78.5" font-family="Helvetica,sans-Serif" font-size="10.00">pdal::georeference</text>
<text text-anchor="start" x="8" y="-67.5" font-family="Helvetica,sans-Serif" font-size="10.00">::anonymous_namespace</text>
<text text-anchor="start" x="8" y="-56.5" font-family="Helvetica,sans-Serif" font-size="10.00">{Georeference::cpp}::cartesian</text>
<text text-anchor="middle" x="74.5" y="-45.5" font-family="Helvetica,sans-Serif" font-size="10.00">ToCurvilinear</text>
</g>
<!-- Node2 -->
<g id="node2" class="node"><title>Node2</title>
<g id="a_node2"><a xlink:href="namespacepdal_1_1georeference.html#a2b566c71200350d9b85725c40eb5f8fa" target="_top" xlink:title="pdal::georeference\l::georeferenceWgs84">
<polygon fill="white" stroke="black" points="185,-49.5 185,-79.5 295,-79.5 295,-49.5 185,-49.5"/>
<text text-anchor="start" x="193" y="-67.5" font-family="Helvetica,sans-Serif" font-size="10.00">pdal::georeference</text>
<text text-anchor="middle" x="240" y="-56.5" font-family="Helvetica,sans-Serif" font-size="10.00">::georeferenceWgs84</text>
</a>
</g>
</g>
<!-- Node1&#45;&gt;Node2 -->
<g id="edge1" class="edge"><title>Node1&#45;&gt;Node2</title>
<path fill="none" stroke="midnightblue" d="M159.307,-64.5C167.994,-64.5 176.649,-64.5 184.881,-64.5"/>
<polygon fill="midnightblue" stroke="midnightblue" points="159.119,-61.0001 149.119,-64.5 159.119,-68.0001 159.119,-61.0001"/>
</g>
<!-- Node3 -->
<g id="node3" class="node"><title>Node3</title>
<g id="a_node3"><a xlink:href="namespacepdal_1_1georeference.html#a84094e4564a50476a3e5cd1506d4c422" target="_top" xlink:title="pdal::georeference\l::createIdentityMatrix">
<polygon fill="white" stroke="black" points="331,-98.5 331,-128.5 440,-128.5 440,-98.5 331,-98.5"/>
<text text-anchor="start" x="339" y="-116.5" font-family="Helvetica,sans-Serif" font-size="10.00">pdal::georeference</text>
<text text-anchor="middle" x="385.5" y="-105.5" font-family="Helvetica,sans-Serif" font-size="10.00">::createIdentityMatrix</text>
</a>
</g>
</g>
<!-- Node2&#45;&gt;Node3 -->
<g id="edge2" class="edge"><title>Node2&#45;&gt;Node3</title>
<path fill="none" stroke="midnightblue" d="M294.855,-82.8896C309.797,-87.9916 325.844,-93.4711 340.173,-98.3641"/>
<polygon fill="midnightblue" stroke="midnightblue" points="295.82,-79.5207 285.226,-79.6014 293.558,-86.1452 295.82,-79.5207"/>
</g>
<!-- Node5 -->
<g id="node5" class="node"><title>Node5</title>
<g id="a_node5"><a xlink:href="classpdal_1_1OptechReader.html#ade8d12a284f4bc766e32852979462aec" target="_top" xlink:title="pdal::OptechReader\l::read">
<polygon fill="white" stroke="black" points="333.5,-49.5 333.5,-79.5 437.5,-79.5 437.5,-49.5 333.5,-49.5"/>
<text text-anchor="start" x="341.5" y="-67.5" font-family="Helvetica,sans-Serif" font-size="10.00">pdal::OptechReader</text>
<text text-anchor="middle" x="385.5" y="-56.5" font-family="Helvetica,sans-Serif" font-size="10.00">::read</text>
</a>
</g>
</g>
<!-- Node2&#45;&gt;Node5 -->
<g id="edge4" class="edge"><title>Node2&#45;&gt;Node5</title>
<path fill="none" stroke="midnightblue" d="M305.374,-64.5C314.793,-64.5 324.384,-64.5 333.487,-64.5"/>
<polygon fill="midnightblue" stroke="midnightblue" points="305.251,-61.0001 295.251,-64.5 305.251,-68.0001 305.251,-61.0001"/>
</g>
<!-- Node6 -->
<g id="node6" class="node"><title>Node6</title>
<g id="a_node6"><a xlink:href="namespacepdal_1_1georeference.html#ac6fcaefc645591d09008a4982e904c84" target="_top" xlink:title="pdal::georeference\l::TEST">
<polygon fill="white" stroke="black" points="337,-0.5 337,-30.5 434,-30.5 434,-0.5 337,-0.5"/>
<text text-anchor="start" x="345" y="-18.5" font-family="Helvetica,sans-Serif" font-size="10.00">pdal::georeference</text>
<text text-anchor="middle" x="385.5" y="-7.5" font-family="Helvetica,sans-Serif" font-size="10.00">::TEST</text>
</a>
</g>
</g>
<!-- Node2&#45;&gt;Node6 -->
<g id="edge5" class="edge"><title>Node2&#45;&gt;Node6</title>
<path fill="none" stroke="midnightblue" d="M294.855,-46.1104C309.797,-41.0084 325.844,-35.5289 340.173,-30.6359"/>
<polygon fill="midnightblue" stroke="midnightblue" points="293.558,-42.8548 285.226,-49.3986 295.82,-49.4793 293.558,-42.8548"/>
</g>
<!-- Node4 -->
<g id="node4" class="node"><title>Node4</title>
<g id="a_node4"><a xlink:href="namespacepdal_1_1georeference.html#a5d9890cc5cf56263c8627857b8273f28" target="_top" xlink:title="pdal::georeference\l::TEST">
<polygon fill="white" stroke="black" points="476,-98.5 476,-128.5 573,-128.5 573,-98.5 476,-98.5"/>
<text text-anchor="start" x="484" y="-116.5" font-family="Helvetica,sans-Serif" font-size="10.00">pdal::georeference</text>
<text text-anchor="middle" x="524.5" y="-105.5" font-family="Helvetica,sans-Serif" font-size="10.00">::TEST</text>
</a>
</g>
</g>
<!-- Node3&#45;&gt;Node4 -->
<g id="edge3" class="edge"><title>Node3&#45;&gt;Node4</title>
<path fill="none" stroke="midnightblue" d="M450.51,-113.5C458.985,-113.5 467.552,-113.5 475.689,-113.5"/>
<polygon fill="midnightblue" stroke="midnightblue" points="450.253,-110 440.253,-113.5 450.253,-117 450.253,-110"/>
</g>
</g>
</svg>
