<?xml version="1.0" encoding="UTF-8" standalone="no"?>
<!DOCTYPE svg PUBLIC "-//W3C//DTD SVG 1.1//EN"
 "http://www.w3.org/Graphics/SVG/1.1/DTD/svg11.dtd">
<!-- Generated by graphviz version 2.38.0 (20140413.2041)
 -->
<!-- Title: pdal::Segmentation::extractClusters Pages: 1 -->
<svg width="239pt" height="78pt"
 viewBox="0.00 0.00 239.00 77.50" xmlns="http://www.w3.org/2000/svg" xmlns:xlink="http://www.w3.org/1999/xlink">
<g id="graph0" class="graph" transform="scale(1 1) rotate(0) translate(4 73.5)">
<title>pdal::Segmentation::extractClusters</title>
<polygon fill="white" stroke="none" points="-4,4 -4,-73.5 235,-73.5 235,4 -4,4"/>
<!-- Node1 -->
<g id="node1" class="node"><title>Node1</title>
<polygon fill="#bfbfbf" stroke="black" points="0,-17 0,-47 101,-47 101,-17 0,-17"/>
<text text-anchor="start" x="8" y="-35" font-family="Helvetica,sans-Serif" font-size="10.00">pdal::Segmentation</text>
<text text-anchor="middle" x="50.5" y="-24" font-family="Helvetica,sans-Serif" font-size="10.00">::extractClusters</text>
</g>
<!-- Node2 -->
<g id="node2" class="node"><title>Node2</title>
<g id="a_node2"><a xlink:href="classpdal_1_1ClusterFilter.html#a09b30b520f2852ca652cbaa25b86b2c3" target="_top" xlink:title="pdal::ClusterFilter\l::filter">
<polygon fill="white" stroke="black" points="137,-39 137,-69 231,-69 231,-39 137,-39"/>
<text text-anchor="start" x="145" y="-57" font-family="Helvetica,sans-Serif" font-size="10.00">pdal::ClusterFilter</text>
<text text-anchor="middle" x="184" y="-46" font-family="Helvetica,sans-Serif" font-size="10.00">::filter</text>
</a>
</g>
</g>
<!-- Node1&#45;&gt;Node2 -->
<g id="edge1" class="edge"><title>Node1&#45;&gt;Node2</title>
<path fill="none" stroke="midnightblue" d="M111.167,-41.9824C119.73,-43.4149 128.432,-44.8707 136.684,-46.2514"/>
<polygon fill="midnightblue" stroke="midnightblue" points="111.655,-38.5154 101.215,-40.3173 110.5,-45.4194 111.655,-38.5154"/>
</g>
<!-- Node3 -->
<g id="node3" class="node"><title>Node3</title>
<g id="a_node3"><a xlink:href="SegmentationTest_8cpp.html#a1ca3a4d78657ac7f80d95f44d426ac64" target="_top" xlink:title="TEST">
<polygon fill="white" stroke="black" points="163,-0.5 163,-19.5 205,-19.5 205,-0.5 163,-0.5"/>
<text text-anchor="middle" x="184" y="-7.5" font-family="Helvetica,sans-Serif" font-size="10.00">TEST</text>
</a>
</g>
</g>
<!-- Node1&#45;&gt;Node3 -->
<g id="edge2" class="edge"><title>Node1&#45;&gt;Node3</title>
<path fill="none" stroke="midnightblue" d="M111.12,-22.0255C129.675,-18.9213 148.886,-15.7072 162.775,-13.3837"/>
<polygon fill="midnightblue" stroke="midnightblue" points="110.5,-18.5806 101.215,-23.6827 111.655,-25.4846 110.5,-18.5806"/>
</g>
</g>
</svg>
