<?xml version="1.0" encoding="UTF-8" standalone="no"?>
<!DOCTYPE svg PUBLIC "-//W3C//DTD SVG 1.1//EN"
 "http://www.w3.org/Graphics/SVG/1.1/DTD/svg11.dtd">
<!-- Generated by graphviz version 2.38.0 (20140413.2041)
 -->
<!-- Title: pdal::Utils::fileExists Pages: 1 -->
<svg width="800pt" height="524pt"
 viewBox="0.00 0.00 800.00 524.00" xmlns="http://www.w3.org/2000/svg" xmlns:xlink="http://www.w3.org/1999/xlink">
<g id="graph0" class="graph" transform="scale(1 1) rotate(0) translate(4 520)">
<title>pdal::Utils::fileExists</title>
<polygon fill="white" stroke="none" points="-4,4 -4,-520 796,-520 796,4 -4,4"/>
<!-- Node1 -->
<g id="node1" class="node"><title>Node1</title>
<polygon fill="#bfbfbf" stroke="black" points="0,-281.5 0,-300.5 107,-300.5 107,-281.5 0,-281.5"/>
<text text-anchor="middle" x="53.5" y="-288.5" font-family="Helvetica,sans-Serif" font-size="10.00">pdal::Utils::fileExists</text>
</g>
<!-- Node2 -->
<g id="node2" class="node"><title>Node2</title>
<g id="a_node2"><a xlink:href="namespacepdal.html#a923ba44d8815490512521c355b75c38b" target="_top" xlink:title="pdal::connect">
<polygon fill="white" stroke="black" points="180,-439.5 180,-458.5 255,-458.5 255,-439.5 180,-439.5"/>
<text text-anchor="middle" x="217.5" y="-446.5" font-family="Helvetica,sans-Serif" font-size="10.00">pdal::connect</text>
</a>
</g>
</g>
<!-- Node1&#45;&gt;Node2 -->
<g id="edge1" class="edge"><title>Node1&#45;&gt;Node2</title>
<path fill="none" stroke="midnightblue" d="M62.1741,-310.129C74.7647,-339.139 102.52,-394.139 143,-425 153.675,-433.138 167.226,-438.581 179.776,-442.191"/>
<polygon fill="midnightblue" stroke="midnightblue" points="65.3197,-308.58 58.226,-300.71 58.8638,-311.286 65.3197,-308.58"/>
</g>
<!-- Node7 -->
<g id="node7" class="node"><title>Node7</title>
<g id="a_node7"><a xlink:href="classpdal_1_1OciWriter.html#a305cd40729c19754aec8fc7c9d104fdf" target="_top" xlink:title="pdal::OciWriter::createPCEntry">
<polygon fill="white" stroke="black" points="328,-334.5 328,-353.5 480,-353.5 480,-334.5 328,-334.5"/>
<text text-anchor="middle" x="404" y="-341.5" font-family="Helvetica,sans-Serif" font-size="10.00">pdal::OciWriter::createPCEntry</text>
</a>
</g>
</g>
<!-- Node1&#45;&gt;Node7 -->
<g id="edge6" class="edge"><title>Node1&#45;&gt;Node7</title>
<path fill="none" stroke="midnightblue" d="M64.1287,-309.552C77.8819,-333.776 105.675,-375.079 143,-392 203.314,-419.343 227.72,-407.922 292,-392 309.561,-387.65 311.535,-380.497 328,-373 343.627,-365.884 361.552,-358.912 375.958,-353.587"/>
<polygon fill="midnightblue" stroke="midnightblue" points="67.1177,-307.723 59.2554,-300.621 60.9729,-311.076 67.1177,-307.723"/>
</g>
<!-- Node10 -->
<g id="node10" class="node"><title>Node10</title>
<g id="a_node10"><a xlink:href="classSupport.html#a81c874b14add7b8021064e94f62b53c9" target="_top" xlink:title="Support::diff_files">
<polygon fill="white" stroke="black" points="171,-363.5 171,-382.5 264,-382.5 264,-363.5 171,-363.5"/>
<text text-anchor="middle" x="217.5" y="-370.5" font-family="Helvetica,sans-Serif" font-size="10.00">Support::diff_files</text>
</a>
</g>
</g>
<!-- Node1&#45;&gt;Node10 -->
<g id="edge9" class="edge"><title>Node1&#45;&gt;Node10</title>
<path fill="none" stroke="midnightblue" d="M73.1531,-307.395C90.2414,-321.621 116.793,-341.796 143,-354 151.722,-358.062 161.446,-361.352 170.892,-363.98"/>
<polygon fill="midnightblue" stroke="midnightblue" points="75.0164,-304.385 65.1316,-300.572 70.4809,-309.717 75.0164,-304.385"/>
</g>
<!-- Node11 -->
<g id="node11" class="node"><title>Node11</title>
<g id="a_node11"><a xlink:href="classSupport.html#a645224b95da1981afe87fc417ca29494" target="_top" xlink:title="Support::diff_text\l_files">
<polygon fill="white" stroke="black" points="171.5,-188 171.5,-218 263.5,-218 263.5,-188 171.5,-188"/>
<text text-anchor="start" x="179.5" y="-206" font-family="Helvetica,sans-Serif" font-size="10.00">Support::diff_text</text>
<text text-anchor="middle" x="217.5" y="-195" font-family="Helvetica,sans-Serif" font-size="10.00">_files</text>
</a>
</g>
</g>
<!-- Node1&#45;&gt;Node11 -->
<g id="edge10" class="edge"><title>Node1&#45;&gt;Node11</title>
<path fill="none" stroke="midnightblue" d="M75.8546,-275.323C93.3511,-262.896 119.043,-245.589 143,-233 153.248,-227.615 164.685,-222.533 175.426,-218.137"/>
<polygon fill="midnightblue" stroke="midnightblue" points="73.5816,-272.646 67.5047,-281.325 77.6674,-278.33 73.5816,-272.646"/>
</g>
<!-- Node13 -->
<g id="node13" class="node"><title>Node13</title>
<g id="a_node13"><a xlink:href="classpdal_1_1PipelineKernel.html#a0d3bb8f1b2c0af4e3d8af7f61a264d20" target="_top" xlink:title="pdal::PipelineKernel\l::execute">
<polygon fill="white" stroke="black" points="166,-276 166,-306 269,-306 269,-276 166,-276"/>
<text text-anchor="start" x="174" y="-294" font-family="Helvetica,sans-Serif" font-size="10.00">pdal::PipelineKernel</text>
<text text-anchor="middle" x="217.5" y="-283" font-family="Helvetica,sans-Serif" font-size="10.00">::execute</text>
</a>
</g>
</g>
<!-- Node1&#45;&gt;Node13 -->
<g id="edge12" class="edge"><title>Node1&#45;&gt;Node13</title>
<path fill="none" stroke="midnightblue" d="M117.456,-291C133.48,-291 150.497,-291 165.822,-291"/>
<polygon fill="midnightblue" stroke="midnightblue" points="117.097,-287.5 107.097,-291 117.097,-294.5 117.097,-287.5"/>
</g>
<!-- Node14 -->
<g id="node14" class="node"><title>Node14</title>
<g id="a_node14"><a xlink:href="classpdal_1_1OciWriter.html#a7d89ae96811071e045b6cfc091b7bd01" target="_top" xlink:title="pdal::OciWriter::loadSQLData">
<polygon fill="white" stroke="black" points="144.5,-325.5 144.5,-344.5 290.5,-344.5 290.5,-325.5 144.5,-325.5"/>
<text text-anchor="middle" x="217.5" y="-332.5" font-family="Helvetica,sans-Serif" font-size="10.00">pdal::OciWriter::loadSQLData</text>
</a>
</g>
</g>
<!-- Node1&#45;&gt;Node14 -->
<g id="edge13" class="edge"><title>Node1&#45;&gt;Node14</title>
<path fill="none" stroke="midnightblue" d="M99.5943,-303.248C125.458,-310.272 157.444,-318.96 181.417,-325.471"/>
<polygon fill="midnightblue" stroke="midnightblue" points="100.219,-299.791 89.6516,-300.547 98.3846,-306.546 100.219,-299.791"/>
</g>
<!-- Node15 -->
<g id="node15" class="node"><title>Node15</title>
<g id="a_node15"><a xlink:href="classpdal_1_1OciWriter.html#a629a673386708bf15044f9c05c2218fd" target="_top" xlink:title="pdal::OciWriter::runFileSQL">
<polygon fill="white" stroke="black" points="335.5,-252.5 335.5,-271.5 472.5,-271.5 472.5,-252.5 335.5,-252.5"/>
<text text-anchor="middle" x="404" y="-259.5" font-family="Helvetica,sans-Serif" font-size="10.00">pdal::OciWriter::runFileSQL</text>
</a>
</g>
</g>
<!-- Node1&#45;&gt;Node15 -->
<g id="edge21" class="edge"><title>Node1&#45;&gt;Node15</title>
<path fill="none" stroke="midnightblue" d="M91.0999,-278.352C106.866,-273.51 125.635,-268.542 143,-266 207.769,-256.519 282.579,-256.495 335.277,-258.257"/>
<polygon fill="midnightblue" stroke="midnightblue" points="89.6902,-275.128 81.218,-281.489 91.8083,-281.8 89.6902,-275.128"/>
</g>
<!-- Node18 -->
<g id="node18" class="node"><title>Node18</title>
<g id="a_node18"><a xlink:href="classpdal_1_1InfoKernel.html#a5deb06e4be4b248c9e1257fc7edf7e65" target="_top" xlink:title="pdal::InfoKernel::makePipeline">
<polygon fill="white" stroke="black" points="143,-149.5 143,-168.5 292,-168.5 292,-149.5 143,-149.5"/>
<text text-anchor="middle" x="217.5" y="-156.5" font-family="Helvetica,sans-Serif" font-size="10.00">pdal::InfoKernel::makePipeline</text>
</a>
</g>
</g>
<!-- Node1&#45;&gt;Node18 -->
<g id="edge18" class="edge"><title>Node1&#45;&gt;Node18</title>
<path fill="none" stroke="midnightblue" d="M63.9353,-272.451C77.7768,-247.155 106.006,-202.22 143,-178 148.954,-174.102 155.667,-171.002 162.553,-168.539"/>
<polygon fill="midnightblue" stroke="midnightblue" points="60.787,-270.918 59.197,-281.393 66.9722,-274.196 60.787,-270.918"/>
</g>
<!-- Node21 -->
<g id="node21" class="node"><title>Node21</title>
<g id="a_node21"><a xlink:href="namespacepdal_1_1Utils.html#adb7958fecbf7710df7d97a313a57ce39" target="_top" xlink:title="pdal::Utils::writeProgress">
<polygon fill="white" stroke="black" points="154,-76.5 154,-95.5 281,-95.5 281,-76.5 154,-76.5"/>
<text text-anchor="middle" x="217.5" y="-83.5" font-family="Helvetica,sans-Serif" font-size="10.00">pdal::Utils::writeProgress</text>
</a>
</g>
</g>
<!-- Node1&#45;&gt;Node21 -->
<g id="edge22" class="edge"><title>Node1&#45;&gt;Node21</title>
<path fill="none" stroke="midnightblue" d="M62.6195,-271.875C76.1355,-241.543 105.508,-181.588 143,-140 159.752,-121.418 183.823,-105.204 199.798,-95.5124"/>
<polygon fill="midnightblue" stroke="midnightblue" points="59.303,-270.725 58.5127,-281.29 65.7191,-273.524 59.303,-270.725"/>
</g>
<!-- Node3 -->
<g id="node3" class="node"><title>Node3</title>
<g id="a_node3"><a xlink:href="classOCITest.html#a273c0aff205f36f186735781410dc702" target="_top" xlink:title="OCITest::connect">
<polygon fill="white" stroke="black" points="356.5,-496.5 356.5,-515.5 451.5,-515.5 451.5,-496.5 356.5,-496.5"/>
<text text-anchor="middle" x="404" y="-503.5" font-family="Helvetica,sans-Serif" font-size="10.00">OCITest::connect</text>
</a>
</g>
</g>
<!-- Node2&#45;&gt;Node3 -->
<g id="edge2" class="edge"><title>Node2&#45;&gt;Node3</title>
<path fill="none" stroke="midnightblue" d="M253.58,-462.036C274.943,-469.758 302.872,-479.472 328,-487 339.194,-490.354 351.442,-493.622 362.734,-496.476"/>
<polygon fill="midnightblue" stroke="midnightblue" points="254.556,-458.666 243.962,-458.533 252.161,-465.244 254.556,-458.666"/>
</g>
<!-- Node4 -->
<g id="node4" class="node"><title>Node4</title>
<g id="a_node4"><a xlink:href="classpdal_1_1OciWriter.html#a8ebf0753f0a954a733fa978c05159451" target="_top" xlink:title="pdal::OciWriter::initialize">
<polygon fill="white" stroke="black" points="342.5,-458.5 342.5,-477.5 465.5,-477.5 465.5,-458.5 342.5,-458.5"/>
<text text-anchor="middle" x="404" y="-465.5" font-family="Helvetica,sans-Serif" font-size="10.00">pdal::OciWriter::initialize</text>
</a>
</g>
</g>
<!-- Node2&#45;&gt;Node4 -->
<g id="edge3" class="edge"><title>Node2&#45;&gt;Node4</title>
<path fill="none" stroke="midnightblue" d="M265.385,-453.828C288.719,-456.231 317.209,-459.165 342.2,-461.739"/>
<polygon fill="midnightblue" stroke="midnightblue" points="265.699,-450.342 255.393,-452.799 264.982,-457.305 265.699,-450.342"/>
</g>
<!-- Node5 -->
<g id="node5" class="node"><title>Node5</title>
<g id="a_node5"><a xlink:href="classpdal_1_1OciReader.html#a665cc5d7bbfece9e645f6e33144f4b5e" target="_top" xlink:title="pdal::OciReader::initialize">
<polygon fill="white" stroke="black" points="340,-420.5 340,-439.5 468,-439.5 468,-420.5 340,-420.5"/>
<text text-anchor="middle" x="404" y="-427.5" font-family="Helvetica,sans-Serif" font-size="10.00">pdal::OciReader::initialize</text>
</a>
</g>
</g>
<!-- Node2&#45;&gt;Node5 -->
<g id="edge4" class="edge"><title>Node2&#45;&gt;Node5</title>
<path fill="none" stroke="midnightblue" d="M265.383,-444.172C287.922,-441.851 315.274,-439.034 339.636,-436.525"/>
<polygon fill="midnightblue" stroke="midnightblue" points="264.982,-440.695 255.393,-445.201 265.699,-447.658 264.982,-440.695"/>
</g>
<!-- Node6 -->
<g id="node6" class="node"><title>Node6</title>
<g id="a_node6"><a xlink:href="classOCITest.html#acafddbea43025597b6a48a43e8f78fff" target="_top" xlink:title="OCITest::SetUp">
<polygon fill="white" stroke="black" points="360,-382.5 360,-401.5 448,-401.5 448,-382.5 360,-382.5"/>
<text text-anchor="middle" x="404" y="-389.5" font-family="Helvetica,sans-Serif" font-size="10.00">OCITest::SetUp</text>
</a>
</g>
</g>
<!-- Node2&#45;&gt;Node6 -->
<g id="edge5" class="edge"><title>Node2&#45;&gt;Node6</title>
<path fill="none" stroke="midnightblue" d="M258.696,-436.319C269.548,-432.774 281.258,-428.839 292,-425 308.166,-419.222 311.648,-416.229 328,-411 338.747,-407.563 350.516,-404.336 361.48,-401.551"/>
<polygon fill="midnightblue" stroke="midnightblue" points="257.46,-433.04 249.024,-439.45 259.616,-439.7 257.46,-433.04"/>
</g>
<!-- Node8 -->
<g id="node8" class="node"><title>Node8</title>
<g id="a_node8"><a xlink:href="classpdal_1_1OciWriter.html#a29c890b4de7d31ab917f5d4577f62345" target="_top" xlink:title="pdal::OciWriter::writeInit">
<polygon fill="white" stroke="black" points="520.5,-334.5 520.5,-353.5 642.5,-353.5 642.5,-334.5 520.5,-334.5"/>
<text text-anchor="middle" x="581.5" y="-341.5" font-family="Helvetica,sans-Serif" font-size="10.00">pdal::OciWriter::writeInit</text>
</a>
</g>
</g>
<!-- Node7&#45;&gt;Node8 -->
<g id="edge7" class="edge"><title>Node7&#45;&gt;Node8</title>
<path fill="none" stroke="midnightblue" d="M490.294,-344C500.431,-344 510.612,-344 520.295,-344"/>
<polygon fill="midnightblue" stroke="midnightblue" points="490.192,-340.5 480.192,-344 490.192,-347.5 490.192,-340.5"/>
</g>
<!-- Node9 -->
<g id="node9" class="node"><title>Node9</title>
<g id="a_node9"><a xlink:href="classpdal_1_1OciWriter.html#a11f02a9af7350d831dff5f81859c76f2" target="_top" xlink:title="pdal::OciWriter::write">
<polygon fill="white" stroke="black" points="683,-334.5 683,-353.5 792,-353.5 792,-334.5 683,-334.5"/>
<text text-anchor="middle" x="737.5" y="-341.5" font-family="Helvetica,sans-Serif" font-size="10.00">pdal::OciWriter::write</text>
</a>
</g>
</g>
<!-- Node8&#45;&gt;Node9 -->
<g id="edge8" class="edge"><title>Node8&#45;&gt;Node9</title>
<path fill="none" stroke="midnightblue" d="M653.197,-344C663.132,-344 673.207,-344 682.757,-344"/>
<polygon fill="midnightblue" stroke="midnightblue" points="652.923,-340.5 642.923,-344 652.923,-347.5 652.923,-340.5"/>
</g>
<!-- Node12 -->
<g id="node12" class="node"><title>Node12</title>
<g id="a_node12"><a xlink:href="SupportTest_8cpp.html#af0cd917057c2f4b74ce7a6d1466e7bb9" target="_top" xlink:title="TEST">
<polygon fill="white" stroke="black" points="383,-193.5 383,-212.5 425,-212.5 425,-193.5 383,-193.5"/>
<text text-anchor="middle" x="404" y="-200.5" font-family="Helvetica,sans-Serif" font-size="10.00">TEST</text>
</a>
</g>
</g>
<!-- Node11&#45;&gt;Node12 -->
<g id="edge11" class="edge"><title>Node11&#45;&gt;Node12</title>
<path fill="none" stroke="midnightblue" d="M273.723,-203C310.466,-203 356.603,-203 382.647,-203"/>
<polygon fill="midnightblue" stroke="midnightblue" points="273.634,-199.5 263.634,-203 273.634,-206.5 273.634,-199.5"/>
</g>
<!-- Node14&#45;&gt;Node7 -->
<g id="edge14" class="edge"><title>Node14&#45;&gt;Node7</title>
<path fill="none" stroke="midnightblue" d="M300.75,-339.012C309.782,-339.453 318.944,-339.9 327.884,-340.336"/>
<polygon fill="midnightblue" stroke="midnightblue" points="300.784,-335.51 290.625,-338.518 300.443,-342.501 300.784,-335.51"/>
</g>
<!-- Node14&#45;&gt;Node15 -->
<g id="edge15" class="edge"><title>Node14&#45;&gt;Node15</title>
<path fill="none" stroke="midnightblue" d="M268.251,-322.77C276.269,-320.426 284.42,-317.815 292,-315 326.032,-302.362 363.814,-283.137 385.358,-271.646"/>
<polygon fill="midnightblue" stroke="midnightblue" points="267.261,-319.413 258.584,-325.493 269.159,-326.15 267.261,-319.413"/>
</g>
<!-- Node16 -->
<g id="node16" class="node"><title>Node16</title>
<g id="a_node16"><a xlink:href="classpdal_1_1OciWriter.html#a899064a17b0d8ef871ab4d79dd2df62b" target="_top" xlink:title="pdal::OciWriter::done">
<polygon fill="white" stroke="black" points="527,-229.5 527,-248.5 636,-248.5 636,-229.5 527,-229.5"/>
<text text-anchor="middle" x="581.5" y="-236.5" font-family="Helvetica,sans-Serif" font-size="10.00">pdal::OciWriter::done</text>
</a>
</g>
</g>
<!-- Node15&#45;&gt;Node16 -->
<g id="edge16" class="edge"><title>Node15&#45;&gt;Node16</title>
<path fill="none" stroke="midnightblue" d="M482.809,-251.803C497.672,-249.855 512.92,-247.857 526.819,-246.035"/>
<polygon fill="midnightblue" stroke="midnightblue" points="482.062,-248.371 472.602,-253.14 482.972,-255.311 482.062,-248.371"/>
</g>
<!-- Node17 -->
<g id="node17" class="node"><title>Node17</title>
<g id="a_node17"><a xlink:href="classpdal_1_1OciWriter.html#aaef01ec1f04e1cd86cd7d465d49e1d81" target="_top" xlink:title="pdal::OciWriter::ready">
<polygon fill="white" stroke="black" points="525.5,-267.5 525.5,-286.5 637.5,-286.5 637.5,-267.5 525.5,-267.5"/>
<text text-anchor="middle" x="581.5" y="-274.5" font-family="Helvetica,sans-Serif" font-size="10.00">pdal::OciWriter::ready</text>
</a>
</g>
</g>
<!-- Node15&#45;&gt;Node17 -->
<g id="edge17" class="edge"><title>Node15&#45;&gt;Node17</title>
<path fill="none" stroke="midnightblue" d="M482.949,-268.662C497.276,-269.887 511.956,-271.142 525.435,-272.294"/>
<polygon fill="midnightblue" stroke="midnightblue" points="482.864,-265.142 472.602,-267.778 482.267,-272.117 482.864,-265.142"/>
</g>
<!-- Node19 -->
<g id="node19" class="node"><title>Node19</title>
<g id="a_node19"><a xlink:href="classpdal_1_1InfoKernel.html#a00062fa07419bc191ed6269ce47e1fa0" target="_top" xlink:title="pdal::InfoKernel::setup">
<polygon fill="white" stroke="black" points="346.5,-152.5 346.5,-171.5 461.5,-171.5 461.5,-152.5 346.5,-152.5"/>
<text text-anchor="middle" x="404" y="-159.5" font-family="Helvetica,sans-Serif" font-size="10.00">pdal::InfoKernel::setup</text>
</a>
</g>
</g>
<!-- Node18&#45;&gt;Node19 -->
<g id="edge19" class="edge"><title>Node18&#45;&gt;Node19</title>
<path fill="none" stroke="midnightblue" d="M302.462,-160.365C317.36,-160.607 332.547,-160.854 346.455,-161.081"/>
<polygon fill="midnightblue" stroke="midnightblue" points="302.27,-156.862 292.215,-160.199 302.156,-163.861 302.27,-156.862"/>
</g>
<!-- Node20 -->
<g id="node20" class="node"><title>Node20</title>
<g id="a_node20"><a xlink:href="classpdal_1_1InfoKernel.html#ac8d3f256fa5d844710b25034f4e22eaa" target="_top" xlink:title="pdal::InfoKernel::execute">
<polygon fill="white" stroke="black" points="519,-152.5 519,-171.5 644,-171.5 644,-152.5 519,-152.5"/>
<text text-anchor="middle" x="581.5" y="-159.5" font-family="Helvetica,sans-Serif" font-size="10.00">pdal::InfoKernel::execute</text>
</a>
</g>
</g>
<!-- Node19&#45;&gt;Node20 -->
<g id="edge20" class="edge"><title>Node19&#45;&gt;Node20</title>
<path fill="none" stroke="midnightblue" d="M472.415,-162C487.726,-162 503.911,-162 518.963,-162"/>
<polygon fill="midnightblue" stroke="midnightblue" points="471.98,-158.5 461.98,-162 471.98,-165.5 471.98,-158.5"/>
</g>
<!-- Node22 -->
<g id="node22" class="node"><title>Node22</title>
<g id="a_node22"><a xlink:href="classpdal_1_1LasWriter.html#a4b0ad482eac655fb22cf29717c04c6b3" target="_top" xlink:title="pdal::LasWriter::readyFile">
<polygon fill="white" stroke="black" points="340,-114.5 340,-133.5 468,-133.5 468,-114.5 340,-114.5"/>
<text text-anchor="middle" x="404" y="-121.5" font-family="Helvetica,sans-Serif" font-size="10.00">pdal::LasWriter::readyFile</text>
</a>
</g>
</g>
<!-- Node21&#45;&gt;Node22 -->
<g id="edge23" class="edge"><title>Node21&#45;&gt;Node22</title>
<path fill="none" stroke="midnightblue" d="M274.867,-97.6095C301.107,-103.014 331.936,-109.364 356.778,-114.48"/>
<polygon fill="midnightblue" stroke="midnightblue" points="275.558,-94.1783 265.057,-95.589 274.145,-101.034 275.558,-94.1783"/>
</g>
<!-- Node23 -->
<g id="node23" class="node"><title>Node23</title>
<g id="a_node23"><a xlink:href="classpdal_1_1LasWriter.html#a91550327b74a35121c29d342c9659578" target="_top" xlink:title="pdal::LasWriter::writeView">
<polygon fill="white" stroke="black" points="338.5,-76.5 338.5,-95.5 469.5,-95.5 469.5,-76.5 338.5,-76.5"/>
<text text-anchor="middle" x="404" y="-83.5" font-family="Helvetica,sans-Serif" font-size="10.00">pdal::LasWriter::writeView</text>
</a>
</g>
</g>
<!-- Node21&#45;&gt;Node23 -->
<g id="edge24" class="edge"><title>Node21&#45;&gt;Node23</title>
<path fill="none" stroke="midnightblue" d="M291.282,-86C306.791,-86 323.068,-86 338.252,-86"/>
<polygon fill="midnightblue" stroke="midnightblue" points="291.221,-82.5001 281.221,-86 291.221,-89.5001 291.221,-82.5001"/>
</g>
<!-- Node25 -->
<g id="node25" class="node"><title>Node25</title>
<g id="a_node25"><a xlink:href="classpdal_1_1LasWriter.html#a8e6cccdc4e5b6cf4ac9361697b4e6f4f" target="_top" xlink:title="pdal::LasWriter::doneFile">
<polygon fill="white" stroke="black" points="341.5,-38.5 341.5,-57.5 466.5,-57.5 466.5,-38.5 341.5,-38.5"/>
<text text-anchor="middle" x="404" y="-45.5" font-family="Helvetica,sans-Serif" font-size="10.00">pdal::LasWriter::doneFile</text>
</a>
</g>
</g>
<!-- Node21&#45;&gt;Node25 -->
<g id="edge26" class="edge"><title>Node21&#45;&gt;Node25</title>
<path fill="none" stroke="midnightblue" d="M274.867,-74.3905C301.107,-68.986 331.936,-62.6365 356.778,-57.5201"/>
<polygon fill="midnightblue" stroke="midnightblue" points="274.145,-70.9656 265.057,-76.411 275.558,-77.8217 274.145,-70.9656"/>
</g>
<!-- Node26 -->
<g id="node26" class="node"><title>Node26</title>
<g id="a_node26"><a xlink:href="classpdal_1_1NitfWriter.html#a34d932e82c5d6842ca515cc59281021e" target="_top" xlink:title="pdal::NitfWriter::readyFile">
<polygon fill="white" stroke="black" points="340,-0.5 340,-19.5 468,-19.5 468,-0.5 340,-0.5"/>
<text text-anchor="middle" x="404" y="-7.5" font-family="Helvetica,sans-Serif" font-size="10.00">pdal::NitfWriter::readyFile</text>
</a>
</g>
</g>
<!-- Node21&#45;&gt;Node26 -->
<g id="edge27" class="edge"><title>Node21&#45;&gt;Node26</title>
<path fill="none" stroke="midnightblue" d="M243.144,-71.057C264.849,-58.4174 297.644,-40.5659 328,-29 337.539,-25.3653 348.025,-22.2142 358.054,-19.5798"/>
<polygon fill="midnightblue" stroke="midnightblue" points="241.113,-68.1914 234.281,-76.2887 244.672,-74.2196 241.113,-68.1914"/>
</g>
<!-- Node24 -->
<g id="node24" class="node"><title>Node24</title>
<g id="a_node24"><a xlink:href="classpdal_1_1NitfWriter.html#a09c8b43a263e077f6361e5eaf3f37063" target="_top" xlink:title="pdal::NitfWriter::writeView">
<polygon fill="white" stroke="black" points="516,-76.5 516,-95.5 647,-95.5 647,-76.5 516,-76.5"/>
<text text-anchor="middle" x="581.5" y="-83.5" font-family="Helvetica,sans-Serif" font-size="10.00">pdal::NitfWriter::writeView</text>
</a>
</g>
</g>
<!-- Node23&#45;&gt;Node24 -->
<g id="edge25" class="edge"><title>Node23&#45;&gt;Node24</title>
<path fill="none" stroke="midnightblue" d="M480.198,-86C492.089,-86 504.294,-86 515.915,-86"/>
<polygon fill="midnightblue" stroke="midnightblue" points="479.851,-82.5001 469.851,-86 479.851,-89.5001 479.851,-82.5001"/>
</g>
</g>
</svg>
