<?xml version="1.0" encoding="UTF-8" standalone="no"?>
<!DOCTYPE svg PUBLIC "-//W3C//DTD SVG 1.1//EN"
 "http://www.w3.org/Graphics/SVG/1.1/DTD/svg11.dtd">
<!-- Generated by graphviz version 2.38.0 (20140413.2041)
 -->
<!-- Title: pdal::TEST Pages: 1 -->
<svg width="870pt" height="387pt"
 viewBox="0.00 0.00 870.00 386.50" xmlns="http://www.w3.org/2000/svg" xmlns:xlink="http://www.w3.org/1999/xlink">
<g id="graph0" class="graph" transform="scale(1 1) rotate(0) translate(4 382.5)">
<title>pdal::TEST</title>
<polygon fill="white" stroke="none" points="-4,4 -4,-382.5 866,-382.5 866,4 -4,4"/>
<!-- Node1 -->
<g id="node1" class="node"><title>Node1</title>
<polygon fill="#bfbfbf" stroke="black" points="0,-216.5 0,-235.5 66,-235.5 66,-216.5 0,-216.5"/>
<text text-anchor="middle" x="33" y="-223.5" font-family="Helvetica,sans-Serif" font-size="10.00">pdal::TEST</text>
</g>
<!-- Node2 -->
<g id="node2" class="node"><title>Node2</title>
<g id="a_node2"><a xlink:href="classpdal_1_1CpdFilter.html#a5763b0764c0c394ddb1108b883df9edb" target="_top" xlink:title="pdal::CpdFilter::default\lMethod">
<polygon fill="white" stroke="black" points="123.5,-348 123.5,-378 239.5,-378 239.5,-348 123.5,-348"/>
<text text-anchor="start" x="131.5" y="-366" font-family="Helvetica,sans-Serif" font-size="10.00">pdal::CpdFilter::default</text>
<text text-anchor="middle" x="181.5" y="-355" font-family="Helvetica,sans-Serif" font-size="10.00">Method</text>
</a>
</g>
</g>
<!-- Node1&#45;&gt;Node2 -->
<g id="edge1" class="edge"><title>Node1&#45;&gt;Node2</title>
<path fill="none" stroke="midnightblue" d="M37.2057,-235.694C44.8544,-257.331 66.2475,-309.865 102,-338 105.737,-340.941 109.828,-343.54 114.117,-345.836"/>
<polygon fill="midnightblue" stroke="midnightblue" points="112.617,-348.998 123.151,-350.135 115.626,-342.677 112.617,-348.998"/>
</g>
<!-- Node3 -->
<g id="node3" class="node"><title>Node3</title>
<g id="a_node3"><a xlink:href="namespacehag.html#a39becb5458bcac317093e468da1639be" target="_top" xlink:title="hag.filter">
<polygon fill="white" stroke="black" points="154.5,-309.5 154.5,-328.5 208.5,-328.5 208.5,-309.5 154.5,-309.5"/>
<text text-anchor="middle" x="181.5" y="-316.5" font-family="Helvetica,sans-Serif" font-size="10.00">hag.filter</text>
</a>
</g>
</g>
<!-- Node1&#45;&gt;Node3 -->
<g id="edge2" class="edge"><title>Node1&#45;&gt;Node3</title>
<path fill="none" stroke="midnightblue" d="M40.031,-235.619C50.5638,-251.585 73.8912,-283.434 102,-300 114.707,-307.489 130.225,-312.031 144.098,-314.784"/>
<polygon fill="midnightblue" stroke="midnightblue" points="143.861,-318.295 154.313,-316.56 145.06,-311.399 143.861,-318.295"/>
</g>
<!-- Node6 -->
<g id="node6" class="node"><title>Node6</title>
<g id="a_node6"><a xlink:href="classpdal_1_1MetadataNode.html#a0c52985f2bedf620aea438ab1bce0af6" target="_top" xlink:title="pdal::MetadataNode\l::findChild">
<polygon fill="white" stroke="black" points="129.5,-260 129.5,-290 233.5,-290 233.5,-260 129.5,-260"/>
<text text-anchor="start" x="137.5" y="-278" font-family="Helvetica,sans-Serif" font-size="10.00">pdal::MetadataNode</text>
<text text-anchor="middle" x="181.5" y="-267" font-family="Helvetica,sans-Serif" font-size="10.00">::findChild</text>
</a>
</g>
</g>
<!-- Node1&#45;&gt;Node6 -->
<g id="edge5" class="edge"><title>Node1&#45;&gt;Node6</title>
<path fill="none" stroke="midnightblue" d="M60.4147,-235.537C72.9797,-240.018 88.2323,-245.379 102,-250 108.559,-252.201 115.443,-254.464 122.294,-256.685"/>
<polygon fill="midnightblue" stroke="midnightblue" points="121.675,-260.163 132.266,-259.898 123.822,-253.5 121.675,-260.163"/>
</g>
<!-- Node7 -->
<g id="node7" class="node"><title>Node7</title>
<g id="a_node7"><a xlink:href="namespacepdal_1_1anonymous__namespace_02CpdFilterTest_8cpp_03.html#ae3437fdc281b38c7872b5aa5bb40305c" target="_top" xlink:title="pdal::anonymous_namespace\l\{CpdFilterTest::cpp\}::newFilter">
<polygon fill="white" stroke="black" points="107,-211 107,-241 256,-241 256,-211 107,-211"/>
<text text-anchor="start" x="115" y="-229" font-family="Helvetica,sans-Serif" font-size="10.00">pdal::anonymous_namespace</text>
<text text-anchor="middle" x="181.5" y="-218" font-family="Helvetica,sans-Serif" font-size="10.00">{CpdFilterTest::cpp}::newFilter</text>
</a>
</g>
</g>
<!-- Node1&#45;&gt;Node7 -->
<g id="edge6" class="edge"><title>Node1&#45;&gt;Node7</title>
<path fill="none" stroke="midnightblue" d="M66.15,-226C75.4362,-226 86.0253,-226 96.9256,-226"/>
<polygon fill="midnightblue" stroke="midnightblue" points="96.9952,-229.5 106.995,-226 96.9951,-222.5 96.9952,-229.5"/>
</g>
<!-- Node8 -->
<g id="node8" class="node"><title>Node8</title>
<g id="a_node8"><a xlink:href="namespacepdal_1_1anonymous__namespace_02CpdFilterTest_8cpp_03.html#ac41688e5986694872a0680923dfbfe94" target="_top" xlink:title="pdal::anonymous_namespace\l\{CpdFilterTest::cpp\}::newReader">
<polygon fill="white" stroke="black" points="102,-162 102,-192 261,-192 261,-162 102,-162"/>
<text text-anchor="start" x="110" y="-180" font-family="Helvetica,sans-Serif" font-size="10.00">pdal::anonymous_namespace</text>
<text text-anchor="middle" x="181.5" y="-169" font-family="Helvetica,sans-Serif" font-size="10.00">{CpdFilterTest::cpp}::newReader</text>
</a>
</g>
</g>
<!-- Node1&#45;&gt;Node8 -->
<g id="edge7" class="edge"><title>Node1&#45;&gt;Node8</title>
<path fill="none" stroke="midnightblue" d="M59.0708,-216.404C71.8585,-211.606 87.694,-205.813 102,-201 107.85,-199.032 113.968,-197.043 120.095,-195.096"/>
<polygon fill="midnightblue" stroke="midnightblue" points="121.203,-198.417 129.695,-192.081 119.105,-191.739 121.203,-198.417"/>
</g>
<!-- Node18 -->
<g id="node18" class="node"><title>Node18</title>
<g id="a_node18"><a xlink:href="namespacepdal_1_1Dimension.html#acf81dae9d5946f3a941f9df154b2329b" target="_top" xlink:title="pdal::Dimension::size">
<polygon fill="white" stroke="black" points="126,-123.5 126,-142.5 237,-142.5 237,-123.5 126,-123.5"/>
<text text-anchor="middle" x="181.5" y="-130.5" font-family="Helvetica,sans-Serif" font-size="10.00">pdal::Dimension::size</text>
</a>
</g>
</g>
<!-- Node1&#45;&gt;Node18 -->
<g id="edge17" class="edge"><title>Node1&#45;&gt;Node18</title>
<path fill="none" stroke="midnightblue" d="M40.031,-216.381C50.5638,-200.415 73.8912,-168.566 102,-152 106.417,-149.397 111.173,-147.15 116.082,-145.21"/>
<polygon fill="midnightblue" stroke="midnightblue" points="117.386,-148.462 125.661,-141.846 115.066,-141.857 117.386,-148.462"/>
</g>
<!-- Node22 -->
<g id="node22" class="node"><title>Node22</title>
<g id="a_node22"><a xlink:href="classpdal_1_1MetadataNode.html#ab5c86ccff7ced090522b31cdc6c772b6" target="_top" xlink:title="pdal::MetadataNode\l::value">
<polygon fill="white" stroke="black" points="129.5,-56 129.5,-86 233.5,-86 233.5,-56 129.5,-56"/>
<text text-anchor="start" x="137.5" y="-74" font-family="Helvetica,sans-Serif" font-size="10.00">pdal::MetadataNode</text>
<text text-anchor="middle" x="181.5" y="-63" font-family="Helvetica,sans-Serif" font-size="10.00">::value</text>
</a>
</g>
</g>
<!-- Node1&#45;&gt;Node22 -->
<g id="edge21" class="edge"><title>Node1&#45;&gt;Node22</title>
<path fill="none" stroke="midnightblue" d="M37.7468,-216.469C46.3422,-195.611 69.2861,-145.289 102,-114 111.481,-104.932 123.247,-97.1679 134.759,-90.8344"/>
<polygon fill="midnightblue" stroke="midnightblue" points="136.647,-93.7972 143.889,-86.0641 133.405,-87.593 136.647,-93.7972"/>
</g>
<!-- Node4 -->
<g id="node4" class="node"><title>Node4</title>
<g id="a_node4"><a xlink:href="namespacehag.html#acad63bbd5fdda01bf56ff6aae70a0192" target="_top" xlink:title="hag.read">
<polygon fill="white" stroke="black" points="326,-328.5 326,-347.5 380,-347.5 380,-328.5 326,-328.5"/>
<text text-anchor="middle" x="353" y="-335.5" font-family="Helvetica,sans-Serif" font-size="10.00">hag.read</text>
</a>
</g>
</g>
<!-- Node3&#45;&gt;Node4 -->
<g id="edge3" class="edge"><title>Node3&#45;&gt;Node4</title>
<path fill="none" stroke="midnightblue" d="M208.613,-321.927C237.23,-325.135 283.343,-330.304 315.523,-333.911"/>
<polygon fill="midnightblue" stroke="midnightblue" points="315.53,-337.434 325.857,-335.07 316.31,-330.477 315.53,-337.434"/>
</g>
<!-- Node5 -->
<g id="node5" class="node"><title>Node5</title>
<g id="a_node5"><a xlink:href="namespacehag.html#aee422d0ebdb1730554711d82498e54c3" target="_top" xlink:title="hag.wakeup">
<polygon fill="white" stroke="black" points="318.5,-290.5 318.5,-309.5 387.5,-309.5 387.5,-290.5 318.5,-290.5"/>
<text text-anchor="middle" x="353" y="-297.5" font-family="Helvetica,sans-Serif" font-size="10.00">hag.wakeup</text>
</a>
</g>
</g>
<!-- Node3&#45;&gt;Node5 -->
<g id="edge4" class="edge"><title>Node3&#45;&gt;Node5</title>
<path fill="none" stroke="midnightblue" d="M208.613,-316.073C235.061,-313.108 276.452,-308.468 307.979,-304.935"/>
<polygon fill="midnightblue" stroke="midnightblue" points="308.709,-308.375 318.256,-303.782 307.929,-301.418 308.709,-308.375"/>
</g>
<!-- Node9 -->
<g id="node9" class="node"><title>Node9</title>
<g id="a_node9"><a xlink:href="classpdal_1_1Options.html#a30826da39f9c4716412141eeeb719032" target="_top" xlink:title="pdal::Options::add">
<polygon fill="white" stroke="black" points="305,-202.5 305,-221.5 401,-221.5 401,-202.5 305,-202.5"/>
<text text-anchor="middle" x="353" y="-209.5" font-family="Helvetica,sans-Serif" font-size="10.00">pdal::Options::add</text>
</a>
</g>
</g>
<!-- Node8&#45;&gt;Node9 -->
<g id="edge8" class="edge"><title>Node8&#45;&gt;Node9</title>
<path fill="none" stroke="midnightblue" d="M255.367,-192.046C268.819,-194.824 282.679,-197.686 295.554,-200.344"/>
<polygon fill="midnightblue" stroke="midnightblue" points="295.14,-203.833 305.641,-202.427 296.556,-196.977 295.14,-203.833"/>
</g>
<!-- Node16 -->
<g id="node16" class="node"><title>Node16</title>
<g id="a_node16"><a xlink:href="classSupport.html#a9bbdf6f202f4f2e45e7a53007dd0a238" target="_top" xlink:title="Support::datapath">
<polygon fill="white" stroke="black" points="306,-164.5 306,-183.5 400,-183.5 400,-164.5 306,-164.5"/>
<text text-anchor="middle" x="353" y="-171.5" font-family="Helvetica,sans-Serif" font-size="10.00">Support::datapath</text>
</a>
</g>
</g>
<!-- Node8&#45;&gt;Node16 -->
<g id="edge15" class="edge"><title>Node8&#45;&gt;Node16</title>
<path fill="none" stroke="midnightblue" d="M261.295,-175.605C272.826,-175.401 284.504,-175.195 295.471,-175.001"/>
<polygon fill="midnightblue" stroke="midnightblue" points="295.803,-178.495 305.739,-174.819 295.679,-171.496 295.803,-178.495"/>
</g>
<!-- Node10 -->
<g id="node10" class="node"><title>Node10</title>
<g id="a_node10"><a xlink:href="classpdal_1_1Option.html#aef4422b88464a9cad83b3c11bf1f8cdd" target="_top" xlink:title="pdal::Option::nameValid">
<polygon fill="white" stroke="black" points="445,-240.5 445,-259.5 566,-259.5 566,-240.5 445,-240.5"/>
<text text-anchor="middle" x="505.5" y="-247.5" font-family="Helvetica,sans-Serif" font-size="10.00">pdal::Option::nameValid</text>
</a>
</g>
</g>
<!-- Node9&#45;&gt;Node10 -->
<g id="edge9" class="edge"><title>Node9&#45;&gt;Node10</title>
<path fill="none" stroke="midnightblue" d="M391.978,-221.589C411.659,-226.558 435.891,-232.677 456.821,-237.961"/>
<polygon fill="midnightblue" stroke="midnightblue" points="456.243,-241.425 466.796,-240.48 457.957,-234.638 456.243,-241.425"/>
</g>
<!-- Node15 -->
<g id="node15" class="node"><title>Node15</title>
<g id="a_node15"><a xlink:href="classpdal_1_1Option.html#ad2b7a736742fb343e421fa326ef45c23" target="_top" xlink:title="pdal::Option::getName">
<polygon fill="white" stroke="black" points="448,-202.5 448,-221.5 563,-221.5 563,-202.5 448,-202.5"/>
<text text-anchor="middle" x="505.5" y="-209.5" font-family="Helvetica,sans-Serif" font-size="10.00">pdal::Option::getName</text>
</a>
</g>
</g>
<!-- Node9&#45;&gt;Node15 -->
<g id="edge14" class="edge"><title>Node9&#45;&gt;Node15</title>
<path fill="none" stroke="midnightblue" d="M401.206,-212C412.79,-212 425.408,-212 437.72,-212"/>
<polygon fill="midnightblue" stroke="midnightblue" points="437.961,-215.5 447.961,-212 437.961,-208.5 437.961,-215.5"/>
</g>
<!-- Node11 -->
<g id="node11" class="node"><title>Node11</title>
<g id="a_node11"><a xlink:href="classpdal_1_1Option.html#a978a36cf9180d3636ea770988961952b" target="_top" xlink:title="pdal::Option::parse">
<polygon fill="white" stroke="black" points="606,-240.5 606,-259.5 705,-259.5 705,-240.5 606,-240.5"/>
<text text-anchor="middle" x="655.5" y="-247.5" font-family="Helvetica,sans-Serif" font-size="10.00">pdal::Option::parse</text>
</a>
</g>
</g>
<!-- Node10&#45;&gt;Node11 -->
<g id="edge10" class="edge"><title>Node10&#45;&gt;Node11</title>
<path fill="none" stroke="midnightblue" d="M566.271,-250C575.933,-250 585.931,-250 595.573,-250"/>
<polygon fill="midnightblue" stroke="midnightblue" points="595.863,-253.5 605.863,-250 595.863,-246.5 595.863,-253.5"/>
</g>
<!-- Node14 -->
<g id="node14" class="node"><title>Node14</title>
<g id="a_node14"><a xlink:href="namespacepdal_1_1Utils.html#ada321695f57c876ef51227bdf5b84f7a" target="_top" xlink:title="pdal::Utils::printError">
<polygon fill="white" stroke="black" points="602,-202.5 602,-221.5 709,-221.5 709,-202.5 602,-202.5"/>
<text text-anchor="middle" x="655.5" y="-209.5" font-family="Helvetica,sans-Serif" font-size="10.00">pdal::Utils::printError</text>
</a>
</g>
</g>
<!-- Node10&#45;&gt;Node14 -->
<g id="edge13" class="edge"><title>Node10&#45;&gt;Node14</title>
<path fill="none" stroke="midnightblue" d="M543.847,-240.411C563.201,-235.442 587.03,-229.323 607.613,-224.039"/>
<polygon fill="midnightblue" stroke="midnightblue" points="608.607,-227.397 617.422,-221.52 606.866,-220.617 608.607,-227.397"/>
</g>
<!-- Node12 -->
<g id="node12" class="node"><title>Node12</title>
<g id="a_node12"><a xlink:href="namespacepdal_1_1Utils.html#acae5a19cd66121b77e2599daec48413d" target="_top" xlink:title="pdal::Utils::extract">
<polygon fill="white" stroke="black" points="755,-240.5 755,-259.5 852,-259.5 852,-240.5 755,-240.5"/>
<text text-anchor="middle" x="803.5" y="-247.5" font-family="Helvetica,sans-Serif" font-size="10.00">pdal::Utils::extract</text>
</a>
</g>
</g>
<!-- Node11&#45;&gt;Node12 -->
<g id="edge11" class="edge"><title>Node11&#45;&gt;Node12</title>
<path fill="none" stroke="midnightblue" d="M705.116,-250C717.683,-250 731.34,-250 744.341,-250"/>
<polygon fill="midnightblue" stroke="midnightblue" points="744.593,-253.5 754.593,-250 744.593,-246.5 744.593,-253.5"/>
</g>
<!-- Node13 -->
<g id="node13" class="node"><title>Node13</title>
<g id="a_node13"><a xlink:href="namespacepdal_1_1Dimension.html#af3176b0b7e6b4be000317846cf7c2718" target="_top" xlink:title="pdal::Dimension::name">
<polygon fill="white" stroke="black" points="745,-145.5 745,-164.5 862,-164.5 862,-145.5 745,-145.5"/>
<text text-anchor="middle" x="803.5" y="-152.5" font-family="Helvetica,sans-Serif" font-size="10.00">pdal::Dimension::name</text>
</a>
</g>
</g>
<!-- Node11&#45;&gt;Node13 -->
<g id="edge12" class="edge"><title>Node11&#45;&gt;Node13</title>
<path fill="none" stroke="midnightblue" d="M688.357,-240.41C695.356,-237.776 702.588,-234.628 709,-231 738.367,-214.385 767.845,-188.536 785.637,-171.686"/>
<polygon fill="midnightblue" stroke="midnightblue" points="788.174,-174.101 792.947,-164.642 783.317,-169.06 788.174,-174.101"/>
</g>
<!-- Node17 -->
<g id="node17" class="node"><title>Node17</title>
<g id="a_node17"><a xlink:href="namespaceTestConfig.html#a0e622015f0610c2cfcbb3739b972d877" target="_top" xlink:title="TestConfig::dataPath">
<polygon fill="white" stroke="black" points="450.5,-164.5 450.5,-183.5 560.5,-183.5 560.5,-164.5 450.5,-164.5"/>
<text text-anchor="middle" x="505.5" y="-171.5" font-family="Helvetica,sans-Serif" font-size="10.00">TestConfig::dataPath</text>
</a>
</g>
</g>
<!-- Node16&#45;&gt;Node17 -->
<g id="edge16" class="edge"><title>Node16&#45;&gt;Node17</title>
<path fill="none" stroke="midnightblue" d="M400.383,-174C412.978,-174 426.844,-174 440.237,-174"/>
<polygon fill="midnightblue" stroke="midnightblue" points="440.356,-177.5 450.356,-174 440.356,-170.5 440.356,-177.5"/>
</g>
<!-- Node19 -->
<g id="node19" class="node"><title>Node19</title>
<g id="a_node19"><a xlink:href="namespacepdal_1_1Utils.html#a59253304d0f929e3a3ea00f09636002f" target="_top" xlink:title="pdal::Utils::toNative">
<polygon fill="white" stroke="black" points="301,-126.5 301,-145.5 405,-145.5 405,-126.5 301,-126.5"/>
<text text-anchor="middle" x="353" y="-133.5" font-family="Helvetica,sans-Serif" font-size="10.00">pdal::Utils::toNative</text>
</a>
</g>
</g>
<!-- Node18&#45;&gt;Node19 -->
<g id="edge18" class="edge"><title>Node18&#45;&gt;Node19</title>
<path fill="none" stroke="midnightblue" d="M237.064,-133.966C254.215,-134.269 273.263,-134.606 290.84,-134.918"/>
<polygon fill="midnightblue" stroke="midnightblue" points="290.933,-138.42 300.994,-135.097 291.057,-131.421 290.933,-138.42"/>
</g>
<!-- Node20 -->
<g id="node20" class="node"><title>Node20</title>
<g id="a_node20"><a xlink:href="namespacepdal_1_1Dimension.html#a880d689fed54aa3ded6f88c9e058c5d2" target="_top" xlink:title="pdal::Dimension::type">
<polygon fill="white" stroke="black" points="449.5,-126.5 449.5,-145.5 561.5,-145.5 561.5,-126.5 449.5,-126.5"/>
<text text-anchor="middle" x="505.5" y="-133.5" font-family="Helvetica,sans-Serif" font-size="10.00">pdal::Dimension::type</text>
</a>
</g>
</g>
<!-- Node19&#45;&gt;Node20 -->
<g id="edge19" class="edge"><title>Node19&#45;&gt;Node20</title>
<path fill="none" stroke="midnightblue" d="M405.373,-136C416.195,-136 427.753,-136 439.014,-136"/>
<polygon fill="midnightblue" stroke="midnightblue" points="439.242,-139.5 449.242,-136 439.242,-132.5 439.242,-139.5"/>
</g>
<!-- Node21 -->
<g id="node21" class="node"><title>Node21</title>
<g id="a_node21"><a xlink:href="namespacepdal_1_1Utils.html#a5268937cf695835e55392f752dc02cb2" target="_top" xlink:title="pdal::Utils::tolower">
<polygon fill="white" stroke="black" points="606.5,-126.5 606.5,-145.5 704.5,-145.5 704.5,-126.5 606.5,-126.5"/>
<text text-anchor="middle" x="655.5" y="-133.5" font-family="Helvetica,sans-Serif" font-size="10.00">pdal::Utils::tolower</text>
</a>
</g>
</g>
<!-- Node20&#45;&gt;Node21 -->
<g id="edge20" class="edge"><title>Node20&#45;&gt;Node21</title>
<path fill="none" stroke="midnightblue" d="M561.61,-136C572.81,-136 584.629,-136 595.944,-136"/>
<polygon fill="midnightblue" stroke="midnightblue" points="596.161,-139.5 606.161,-136 596.161,-132.5 596.161,-139.5"/>
</g>
<!-- Node22&#45;&gt;Node13 -->
<g id="edge25" class="edge"><title>Node22&#45;&gt;Node13</title>
<path fill="none" stroke="midnightblue" d="M233.667,-74.5975C356.939,-83.3894 663.565,-106.045 709,-117 731.814,-122.5 756.348,-132.646 774.558,-141.071"/>
<polygon fill="midnightblue" stroke="midnightblue" points="773.181,-144.292 783.717,-145.41 776.178,-137.966 773.181,-144.292"/>
</g>
<!-- Node23 -->
<g id="node23" class="node"><title>Node23</title>
<g id="a_node23"><a xlink:href="namespacepdal_1_1Utils.html#aab74b31905c5d41eaca70a73675bf407" target="_top" xlink:title="pdal::Utils::base64\l_decode">
<polygon fill="white" stroke="black" points="304,-39 304,-69 402,-69 402,-39 304,-39"/>
<text text-anchor="start" x="312" y="-57" font-family="Helvetica,sans-Serif" font-size="10.00">pdal::Utils::base64</text>
<text text-anchor="middle" x="353" y="-46" font-family="Helvetica,sans-Serif" font-size="10.00">_decode</text>
</a>
</g>
</g>
<!-- Node22&#45;&gt;Node23 -->
<g id="edge22" class="edge"><title>Node22&#45;&gt;Node23</title>
<path fill="none" stroke="midnightblue" d="M233.816,-65.8533C252.734,-63.9559 274.299,-61.793 293.783,-59.8388"/>
<polygon fill="midnightblue" stroke="midnightblue" points="294.157,-63.319 303.758,-58.8385 293.458,-56.354 294.157,-63.319"/>
</g>
<!-- Node25 -->
<g id="node25" class="node"><title>Node25</title>
<g id="a_node25"><a xlink:href="namespacepdal_1_1Utils.html#ab93520363c4224f135097c2829b4420c" target="_top" xlink:title="pdal::Utils::fromString">
<polygon fill="white" stroke="black" points="297,-0.5 297,-19.5 409,-19.5 409,-0.5 297,-0.5"/>
<text text-anchor="middle" x="353" y="-7.5" font-family="Helvetica,sans-Serif" font-size="10.00">pdal::Utils::fromString</text>
</a>
</g>
</g>
<!-- Node22&#45;&gt;Node25 -->
<g id="edge24" class="edge"><title>Node22&#45;&gt;Node25</title>
<path fill="none" stroke="midnightblue" d="M222.97,-55.9429C244.852,-47.8552 272.366,-37.7722 297,-29 302.609,-27.0026 308.551,-24.9179 314.374,-22.8919"/>
<polygon fill="midnightblue" stroke="midnightblue" points="315.68,-26.1435 323.984,-19.5635 313.389,-19.529 315.68,-26.1435"/>
</g>
<!-- Node24 -->
<g id="node24" class="node"><title>Node24</title>
<g id="a_node24"><a xlink:href="namespacepdal.html#a4d7dbf8f97121c52d3b891ad9e944094" target="_top" xlink:title="pdal::is_base64">
<polygon fill="white" stroke="black" points="463,-44.5 463,-63.5 548,-63.5 548,-44.5 463,-44.5"/>
<text text-anchor="middle" x="505.5" y="-51.5" font-family="Helvetica,sans-Serif" font-size="10.00">pdal::is_base64</text>
</a>
</g>
</g>
<!-- Node23&#45;&gt;Node24 -->
<g id="edge23" class="edge"><title>Node23&#45;&gt;Node24</title>
<path fill="none" stroke="midnightblue" d="M402.033,-54C418.276,-54 436.473,-54 452.976,-54"/>
<polygon fill="midnightblue" stroke="midnightblue" points="452.999,-57.5001 462.999,-54 452.999,-50.5001 452.999,-57.5001"/>
</g>
</g>
</svg>
