<?xml version="1.0" encoding="UTF-8" standalone="no"?>
<!DOCTYPE svg PUBLIC "-//W3C//DTD SVG 1.1//EN"
 "http://www.w3.org/Graphics/SVG/1.1/DTD/svg11.dtd">
<!-- Generated by graphviz version 2.38.0 (20140413.2041)
 -->
<!-- Title: anonymous_namespace{PgpointcloudWriterTest::cpp}::getConnectionString Pages: 1 -->
<svg width="306pt" height="50pt"
 viewBox="0.00 0.00 306.00 50.00" xmlns="http://www.w3.org/2000/svg" xmlns:xlink="http://www.w3.org/1999/xlink">
<g id="graph0" class="graph" transform="scale(1 1) rotate(0) translate(4 46)">
<title>anonymous_namespace{PgpointcloudWriterTest::cpp}::getConnectionString</title>
<polygon fill="white" stroke="none" points="-4,4 -4,-46 302,-46 302,4 -4,4"/>
<!-- Node1 -->
<g id="node1" class="node"><title>Node1</title>
<polygon fill="#bfbfbf" stroke="black" points="0,-0.5 0,-41.5 136,-41.5 136,-0.5 0,-0.5"/>
<text text-anchor="start" x="8" y="-29.5" font-family="Helvetica,sans-Serif" font-size="10.00">anonymous_namespace</text>
<text text-anchor="start" x="8" y="-18.5" font-family="Helvetica,sans-Serif" font-size="10.00">{PgpointcloudWriterTest</text>
<text text-anchor="middle" x="68" y="-7.5" font-family="Helvetica,sans-Serif" font-size="10.00">::cpp}::getConnectionString</text>
</g>
<!-- Node2 -->
<g id="node2" class="node"><title>Node2</title>
<g id="a_node2"><a xlink:href="namespaceanonymous__namespace_02PgpointcloudWriterTest_8cpp_03.html#ad0bb9895a6185a82f1e347e742957476" target="_top" xlink:title="anonymous_namespace\l\{PgpointcloudWriterTest\l::cpp\}::getTestConnBase">
<polygon fill="white" stroke="black" points="172,-0.5 172,-41.5 298,-41.5 298,-0.5 172,-0.5"/>
<text text-anchor="start" x="180" y="-29.5" font-family="Helvetica,sans-Serif" font-size="10.00">anonymous_namespace</text>
<text text-anchor="start" x="180" y="-18.5" font-family="Helvetica,sans-Serif" font-size="10.00">{PgpointcloudWriterTest</text>
<text text-anchor="middle" x="235" y="-7.5" font-family="Helvetica,sans-Serif" font-size="10.00">::cpp}::getTestConnBase</text>
</a>
</g>
</g>
<!-- Node1&#45;&gt;Node2 -->
<g id="edge1" class="edge"><title>Node1&#45;&gt;Node2</title>
<path fill="none" stroke="midnightblue" d="M136.112,-21C144.485,-21 153.077,-21 161.526,-21"/>
<polygon fill="midnightblue" stroke="midnightblue" points="161.738,-24.5001 171.738,-21 161.738,-17.5001 161.738,-24.5001"/>
</g>
</g>
</svg>
