<?xml version="1.0" encoding="UTF-8" standalone="no"?>
<!DOCTYPE svg PUBLIC "-//W3C//DTD SVG 1.1//EN"
 "http://www.w3.org/Graphics/SVG/1.1/DTD/svg11.dtd">
<!-- Generated by graphviz version 2.38.0 (20140413.2041)
 -->
<!-- Title: pdal::TEST Pages: 1 -->
<svg width="1045pt" height="420pt"
 viewBox="0.00 0.00 1045.00 420.40" xmlns="http://www.w3.org/2000/svg" xmlns:xlink="http://www.w3.org/1999/xlink">
<g id="graph0" class="graph" transform="scale(1 1) rotate(0) translate(4 416.404)">
<title>pdal::TEST</title>
<polygon fill="white" stroke="none" points="-4,4 -4,-416.404 1041,-416.404 1041,4 -4,4"/>
<!-- Node1 -->
<g id="node1" class="node"><title>Node1</title>
<polygon fill="#bfbfbf" stroke="black" points="0,-197.5 0,-216.5 66,-216.5 66,-197.5 0,-197.5"/>
<text text-anchor="middle" x="33" y="-204.5" font-family="Helvetica,sans-Serif" font-size="10.00">pdal::TEST</text>
</g>
<!-- Node2 -->
<g id="node2" class="node"><title>Node2</title>
<g id="a_node2"><a xlink:href="classpdal_1_1Options.html#a30826da39f9c4716412141eeeb719032" target="_top" xlink:title="pdal::Options::add">
<polygon fill="white" stroke="black" points="488,-345.5 488,-364.5 584,-364.5 584,-345.5 488,-345.5"/>
<text text-anchor="middle" x="536" y="-352.5" font-family="Helvetica,sans-Serif" font-size="10.00">pdal::Options::add</text>
</a>
</g>
</g>
<!-- Node1&#45;&gt;Node2 -->
<g id="edge1" class="edge"><title>Node1&#45;&gt;Node2</title>
<path fill="none" stroke="midnightblue" d="M34.6188,-216.895C37.0473,-246.187 48.6446,-332.616 102,-368 227.967,-451.538 423.019,-395.898 501.047,-368.121"/>
<polygon fill="midnightblue" stroke="midnightblue" points="502.63,-371.27 510.832,-364.563 500.238,-364.691 502.63,-371.27"/>
</g>
<!-- Node9 -->
<g id="node9" class="node"><title>Node9</title>
<g id="a_node9"><a xlink:href="namespacepdal_1_1anonymous__namespace_02IcpFilterTest_8cpp_03.html#a53c854d0bd6c332d07e687936a44235f" target="_top" xlink:title="pdal::anonymous_namespace\l\{IcpFilterTest::cpp\}::checkPoints\lEqualReader">
<polygon fill="white" stroke="black" points="102,-317.5 102,-358.5 261,-358.5 261,-317.5 102,-317.5"/>
<text text-anchor="start" x="110" y="-346.5" font-family="Helvetica,sans-Serif" font-size="10.00">pdal::anonymous_namespace</text>
<text text-anchor="start" x="110" y="-335.5" font-family="Helvetica,sans-Serif" font-size="10.00">{IcpFilterTest::cpp}::checkPoints</text>
<text text-anchor="middle" x="181.5" y="-324.5" font-family="Helvetica,sans-Serif" font-size="10.00">EqualReader</text>
</a>
</g>
</g>
<!-- Node1&#45;&gt;Node9 -->
<g id="edge8" class="edge"><title>Node1&#45;&gt;Node9</title>
<path fill="none" stroke="midnightblue" d="M38.6428,-216.743C48.1098,-235.698 71.3642,-277.872 102,-303 106.182,-306.43 110.754,-309.591 115.521,-312.49"/>
<polygon fill="midnightblue" stroke="midnightblue" points="113.842,-315.561 124.271,-317.426 117.281,-309.464 113.842,-315.561"/>
</g>
<!-- Node10 -->
<g id="node10" class="node"><title>Node10</title>
<g id="a_node10"><a xlink:href="namespacepdal_1_1anonymous__namespace_02IcpFilterTest_8cpp_03.html#af01af8888cc2abd24c7bbbcac99602b6" target="_top" xlink:title="pdal::anonymous_namespace\l\{IcpFilterTest::cpp\}::newReader">
<polygon fill="white" stroke="black" points="297,-312 297,-342 452,-342 452,-312 297,-312"/>
<text text-anchor="start" x="305" y="-330" font-family="Helvetica,sans-Serif" font-size="10.00">pdal::anonymous_namespace</text>
<text text-anchor="middle" x="374.5" y="-319" font-family="Helvetica,sans-Serif" font-size="10.00">{IcpFilterTest::cpp}::newReader</text>
</a>
</g>
</g>
<!-- Node1&#45;&gt;Node10 -->
<g id="edge18" class="edge"><title>Node1&#45;&gt;Node10</title>
<path fill="none" stroke="midnightblue" d="M41.617,-216.844C53.1026,-230.956 76.2665,-256.698 102,-270 118.498,-278.528 213.678,-297.472 286.736,-311.185"/>
<polygon fill="midnightblue" stroke="midnightblue" points="286.414,-314.685 296.887,-313.083 287.701,-307.805 286.414,-314.685"/>
</g>
<!-- Node13 -->
<g id="node13" class="node"><title>Node13</title>
<g id="a_node13"><a xlink:href="namespacehag.html#a39becb5458bcac317093e468da1639be" target="_top" xlink:title="hag.filter">
<polygon fill="white" stroke="black" points="154.5,-241.5 154.5,-260.5 208.5,-260.5 208.5,-241.5 154.5,-241.5"/>
<text text-anchor="middle" x="181.5" y="-248.5" font-family="Helvetica,sans-Serif" font-size="10.00">hag.filter</text>
</a>
</g>
</g>
<!-- Node1&#45;&gt;Node13 -->
<g id="edge13" class="edge"><title>Node1&#45;&gt;Node13</title>
<path fill="none" stroke="midnightblue" d="M59.3307,-216.55C72.0471,-221.188 87.7429,-226.677 102,-231 115.728,-235.162 130.979,-239.183 144.359,-242.514"/>
<polygon fill="midnightblue" stroke="midnightblue" points="143.625,-245.937 154.17,-244.917 145.291,-239.138 143.625,-245.937"/>
</g>
<!-- Node16 -->
<g id="node16" class="node"><title>Node16</title>
<g id="a_node16"><a xlink:href="classpdal_1_1MetadataNode.html#a0c52985f2bedf620aea438ab1bce0af6" target="_top" xlink:title="pdal::MetadataNode\l::findChild">
<polygon fill="white" stroke="black" points="129.5,-192 129.5,-222 233.5,-222 233.5,-192 129.5,-192"/>
<text text-anchor="start" x="137.5" y="-210" font-family="Helvetica,sans-Serif" font-size="10.00">pdal::MetadataNode</text>
<text text-anchor="middle" x="181.5" y="-199" font-family="Helvetica,sans-Serif" font-size="10.00">::findChild</text>
</a>
</g>
</g>
<!-- Node1&#45;&gt;Node16 -->
<g id="edge16" class="edge"><title>Node1&#45;&gt;Node16</title>
<path fill="none" stroke="midnightblue" d="M66.15,-207C81.7848,-207 101.113,-207 119.402,-207"/>
<polygon fill="midnightblue" stroke="midnightblue" points="119.425,-210.5 129.425,-207 119.425,-203.5 119.425,-210.5"/>
</g>
<!-- Node17 -->
<g id="node17" class="node"><title>Node17</title>
<g id="a_node17"><a xlink:href="namespacepdal_1_1anonymous__namespace_02IcpFilterTest_8cpp_03.html#a07a719e4d70a62dba23ee434159dfeb3" target="_top" xlink:title="pdal::anonymous_namespace\l\{IcpFilterTest::cpp\}::newFilter">
<polygon fill="white" stroke="black" points="108.5,-143 108.5,-173 254.5,-173 254.5,-143 108.5,-143"/>
<text text-anchor="start" x="116.5" y="-161" font-family="Helvetica,sans-Serif" font-size="10.00">pdal::anonymous_namespace</text>
<text text-anchor="middle" x="181.5" y="-150" font-family="Helvetica,sans-Serif" font-size="10.00">{IcpFilterTest::cpp}::newFilter</text>
</a>
</g>
</g>
<!-- Node1&#45;&gt;Node17 -->
<g id="edge17" class="edge"><title>Node1&#45;&gt;Node17</title>
<path fill="none" stroke="midnightblue" d="M59.0708,-197.404C71.8585,-192.606 87.694,-186.813 102,-182 107.85,-180.032 113.968,-178.043 120.095,-176.096"/>
<polygon fill="midnightblue" stroke="midnightblue" points="121.203,-179.417 129.695,-173.081 119.105,-172.739 121.203,-179.417"/>
</g>
<!-- Node18 -->
<g id="node18" class="node"><title>Node18</title>
<g id="a_node18"><a xlink:href="classpdal_1_1Stage.html#abfd87d459bea04a919aace286b2e377e" target="_top" xlink:title="pdal::Stage::setInput">
<polygon fill="white" stroke="black" points="128,-104.5 128,-123.5 235,-123.5 235,-104.5 128,-104.5"/>
<text text-anchor="middle" x="181.5" y="-111.5" font-family="Helvetica,sans-Serif" font-size="10.00">pdal::Stage::setInput</text>
</a>
</g>
</g>
<!-- Node1&#45;&gt;Node18 -->
<g id="edge19" class="edge"><title>Node1&#45;&gt;Node18</title>
<path fill="none" stroke="midnightblue" d="M40.031,-197.381C50.5638,-181.415 73.8912,-149.566 102,-133 107.03,-130.035 112.501,-127.533 118.136,-125.42"/>
<polygon fill="midnightblue" stroke="midnightblue" points="119.348,-128.705 127.725,-122.219 117.131,-122.065 119.348,-128.705"/>
</g>
<!-- Node19 -->
<g id="node19" class="node"><title>Node19</title>
<g id="a_node19"><a xlink:href="classpdal_1_1Stage.html#acb2434df20f371f1fec9577de3cf0046" target="_top" xlink:title="pdal::Stage::setOptions">
<polygon fill="white" stroke="black" points="122,-66.5 122,-85.5 241,-85.5 241,-66.5 122,-66.5"/>
<text text-anchor="middle" x="181.5" y="-73.5" font-family="Helvetica,sans-Serif" font-size="10.00">pdal::Stage::setOptions</text>
</a>
</g>
</g>
<!-- Node1&#45;&gt;Node19 -->
<g id="edge20" class="edge"><title>Node1&#45;&gt;Node19</title>
<path fill="none" stroke="midnightblue" d="M36.9565,-197.449C44.2202,-175.64 65.0899,-121.986 102,-95 105.219,-92.6466 108.691,-90.5816 112.321,-88.7699"/>
<polygon fill="midnightblue" stroke="midnightblue" points="113.813,-91.9381 121.614,-84.7686 111.045,-85.5088 113.813,-91.9381"/>
</g>
<!-- Node20 -->
<g id="node20" class="node"><title>Node20</title>
<g id="a_node20"><a xlink:href="classpdal_1_1MetadataNode.html#ab5c86ccff7ced090522b31cdc6c772b6" target="_top" xlink:title="pdal::MetadataNode\l::value">
<polygon fill="white" stroke="black" points="129.5,-17 129.5,-47 233.5,-47 233.5,-17 129.5,-17"/>
<text text-anchor="start" x="137.5" y="-35" font-family="Helvetica,sans-Serif" font-size="10.00">pdal::MetadataNode</text>
<text text-anchor="middle" x="181.5" y="-24" font-family="Helvetica,sans-Serif" font-size="10.00">::value</text>
</a>
</g>
</g>
<!-- Node1&#45;&gt;Node20 -->
<g id="edge21" class="edge"><title>Node1&#45;&gt;Node20</title>
<path fill="none" stroke="midnightblue" d="M35.5877,-197.325C40.442,-170.842 57.5536,-96.5161 102,-57 107.243,-52.3389 113.358,-48.5461 119.819,-45.4601"/>
<polygon fill="midnightblue" stroke="midnightblue" points="121.595,-48.5114 129.471,-41.4256 118.895,-42.0529 121.595,-48.5114"/>
</g>
<!-- Node3 -->
<g id="node3" class="node"><title>Node3</title>
<g id="a_node3"><a xlink:href="classpdal_1_1Option.html#aef4422b88464a9cad83b3c11bf1f8cdd" target="_top" xlink:title="pdal::Option::nameValid">
<polygon fill="white" stroke="black" points="620,-354.5 620,-373.5 741,-373.5 741,-354.5 620,-354.5"/>
<text text-anchor="middle" x="680.5" y="-361.5" font-family="Helvetica,sans-Serif" font-size="10.00">pdal::Option::nameValid</text>
</a>
</g>
</g>
<!-- Node2&#45;&gt;Node3 -->
<g id="edge2" class="edge"><title>Node2&#45;&gt;Node3</title>
<path fill="none" stroke="midnightblue" d="M584.055,-357.972C592.271,-358.491 600.973,-359.04 609.649,-359.588"/>
<polygon fill="midnightblue" stroke="midnightblue" points="609.588,-363.091 619.789,-360.229 610.029,-356.105 609.588,-363.091"/>
</g>
<!-- Node8 -->
<g id="node8" class="node"><title>Node8</title>
<g id="a_node8"><a xlink:href="classpdal_1_1Option.html#ad2b7a736742fb343e421fa326ef45c23" target="_top" xlink:title="pdal::Option::getName">
<polygon fill="white" stroke="black" points="623,-316.5 623,-335.5 738,-335.5 738,-316.5 623,-316.5"/>
<text text-anchor="middle" x="680.5" y="-323.5" font-family="Helvetica,sans-Serif" font-size="10.00">pdal::Option::getName</text>
</a>
</g>
</g>
<!-- Node2&#45;&gt;Node8 -->
<g id="edge7" class="edge"><title>Node2&#45;&gt;Node8</title>
<path fill="none" stroke="midnightblue" d="M584.055,-345.424C596.337,-342.924 609.707,-340.204 622.446,-337.611"/>
<polygon fill="midnightblue" stroke="midnightblue" points="623.394,-340.99 632.495,-335.566 621.998,-334.131 623.394,-340.99"/>
</g>
<!-- Node4 -->
<g id="node4" class="node"><title>Node4</title>
<g id="a_node4"><a xlink:href="classpdal_1_1Option.html#a978a36cf9180d3636ea770988961952b" target="_top" xlink:title="pdal::Option::parse">
<polygon fill="white" stroke="black" points="781,-354.5 781,-373.5 880,-373.5 880,-354.5 781,-354.5"/>
<text text-anchor="middle" x="830.5" y="-361.5" font-family="Helvetica,sans-Serif" font-size="10.00">pdal::Option::parse</text>
</a>
</g>
</g>
<!-- Node3&#45;&gt;Node4 -->
<g id="edge3" class="edge"><title>Node3&#45;&gt;Node4</title>
<path fill="none" stroke="midnightblue" d="M741.271,-364C750.933,-364 760.931,-364 770.573,-364"/>
<polygon fill="midnightblue" stroke="midnightblue" points="770.863,-367.5 780.863,-364 770.863,-360.5 770.863,-367.5"/>
</g>
<!-- Node7 -->
<g id="node7" class="node"><title>Node7</title>
<g id="a_node7"><a xlink:href="namespacepdal_1_1Utils.html#ada321695f57c876ef51227bdf5b84f7a" target="_top" xlink:title="pdal::Utils::printError">
<polygon fill="white" stroke="black" points="777,-316.5 777,-335.5 884,-335.5 884,-316.5 777,-316.5"/>
<text text-anchor="middle" x="830.5" y="-323.5" font-family="Helvetica,sans-Serif" font-size="10.00">pdal::Utils::printError</text>
</a>
</g>
</g>
<!-- Node3&#45;&gt;Node7 -->
<g id="edge6" class="edge"><title>Node3&#45;&gt;Node7</title>
<path fill="none" stroke="midnightblue" d="M718.847,-354.411C738.201,-349.442 762.03,-343.323 782.613,-338.039"/>
<polygon fill="midnightblue" stroke="midnightblue" points="783.607,-341.397 792.422,-335.52 781.866,-334.617 783.607,-341.397"/>
</g>
<!-- Node5 -->
<g id="node5" class="node"><title>Node5</title>
<g id="a_node5"><a xlink:href="namespacepdal_1_1Utils.html#acae5a19cd66121b77e2599daec48413d" target="_top" xlink:title="pdal::Utils::extract">
<polygon fill="white" stroke="black" points="930,-354.5 930,-373.5 1027,-373.5 1027,-354.5 930,-354.5"/>
<text text-anchor="middle" x="978.5" y="-361.5" font-family="Helvetica,sans-Serif" font-size="10.00">pdal::Utils::extract</text>
</a>
</g>
</g>
<!-- Node4&#45;&gt;Node5 -->
<g id="edge4" class="edge"><title>Node4&#45;&gt;Node5</title>
<path fill="none" stroke="midnightblue" d="M880.116,-364C892.683,-364 906.34,-364 919.341,-364"/>
<polygon fill="midnightblue" stroke="midnightblue" points="919.593,-367.5 929.593,-364 919.593,-360.5 919.593,-367.5"/>
</g>
<!-- Node6 -->
<g id="node6" class="node"><title>Node6</title>
<g id="a_node6"><a xlink:href="namespacepdal_1_1Dimension.html#af3176b0b7e6b4be000317846cf7c2718" target="_top" xlink:title="pdal::Dimension::name">
<polygon fill="white" stroke="black" points="920,-244.5 920,-263.5 1037,-263.5 1037,-244.5 920,-244.5"/>
<text text-anchor="middle" x="978.5" y="-251.5" font-family="Helvetica,sans-Serif" font-size="10.00">pdal::Dimension::name</text>
</a>
</g>
</g>
<!-- Node4&#45;&gt;Node6 -->
<g id="edge5" class="edge"><title>Node4&#45;&gt;Node6</title>
<path fill="none" stroke="midnightblue" d="M864.711,-354.405C871.345,-351.828 878.085,-348.704 884,-345 916.419,-324.695 946.754,-291.58 963.647,-271.391"/>
<polygon fill="midnightblue" stroke="midnightblue" points="966.397,-273.557 970.031,-263.605 960.984,-269.119 966.397,-273.557"/>
</g>
<!-- Node9&#45;&gt;Node10 -->
<g id="edge9" class="edge"><title>Node9&#45;&gt;Node10</title>
<path fill="none" stroke="midnightblue" d="M261.014,-333.478C269.518,-332.988 278.209,-332.488 286.803,-331.993"/>
<polygon fill="midnightblue" stroke="midnightblue" points="287.049,-335.485 296.831,-331.415 286.647,-328.496 287.049,-335.485"/>
</g>
<!-- Node10&#45;&gt;Node2 -->
<g id="edge10" class="edge"><title>Node10&#45;&gt;Node2</title>
<path fill="none" stroke="midnightblue" d="M452.447,-340.508C461.055,-342.019 469.707,-343.538 478.001,-344.994"/>
<polygon fill="midnightblue" stroke="midnightblue" points="477.459,-348.452 487.913,-346.734 478.669,-341.558 477.459,-348.452"/>
</g>
<!-- Node11 -->
<g id="node11" class="node"><title>Node11</title>
<g id="a_node11"><a xlink:href="classSupport.html#a9bbdf6f202f4f2e45e7a53007dd0a238" target="_top" xlink:title="Support::datapath">
<polygon fill="white" stroke="black" points="489,-288.5 489,-307.5 583,-307.5 583,-288.5 489,-288.5"/>
<text text-anchor="middle" x="536" y="-295.5" font-family="Helvetica,sans-Serif" font-size="10.00">Support::datapath</text>
</a>
</g>
</g>
<!-- Node10&#45;&gt;Node11 -->
<g id="edge11" class="edge"><title>Node10&#45;&gt;Node11</title>
<path fill="none" stroke="midnightblue" d="M452.447,-313.01C461.379,-311.386 470.358,-309.753 478.935,-308.194"/>
<polygon fill="midnightblue" stroke="midnightblue" points="479.58,-311.634 488.792,-306.401 478.328,-304.747 479.58,-311.634"/>
</g>
<!-- Node12 -->
<g id="node12" class="node"><title>Node12</title>
<g id="a_node12"><a xlink:href="namespaceTestConfig.html#a0e622015f0610c2cfcbb3739b972d877" target="_top" xlink:title="TestConfig::dataPath">
<polygon fill="white" stroke="black" points="625.5,-278.5 625.5,-297.5 735.5,-297.5 735.5,-278.5 625.5,-278.5"/>
<text text-anchor="middle" x="680.5" y="-285.5" font-family="Helvetica,sans-Serif" font-size="10.00">TestConfig::dataPath</text>
</a>
</g>
</g>
<!-- Node11&#45;&gt;Node12 -->
<g id="edge12" class="edge"><title>Node11&#45;&gt;Node12</title>
<path fill="none" stroke="midnightblue" d="M583.266,-294.753C593.427,-294.04 604.365,-293.273 615.094,-292.52"/>
<polygon fill="midnightblue" stroke="midnightblue" points="615.554,-295.996 625.285,-291.805 615.064,-289.013 615.554,-295.996"/>
</g>
<!-- Node14 -->
<g id="node14" class="node"><title>Node14</title>
<g id="a_node14"><a xlink:href="namespacehag.html#acad63bbd5fdda01bf56ff6aae70a0192" target="_top" xlink:title="hag.read">
<polygon fill="white" stroke="black" points="347.5,-252.5 347.5,-271.5 401.5,-271.5 401.5,-252.5 347.5,-252.5"/>
<text text-anchor="middle" x="374.5" y="-259.5" font-family="Helvetica,sans-Serif" font-size="10.00">hag.read</text>
</a>
</g>
</g>
<!-- Node13&#45;&gt;Node14 -->
<g id="edge14" class="edge"><title>Node13&#45;&gt;Node14</title>
<path fill="none" stroke="midnightblue" d="M208.657,-252.506C241.997,-254.427 299.799,-257.755 337.339,-259.917"/>
<polygon fill="midnightblue" stroke="midnightblue" points="337.168,-263.413 347.353,-260.494 337.571,-256.425 337.168,-263.413"/>
</g>
<!-- Node15 -->
<g id="node15" class="node"><title>Node15</title>
<g id="a_node15"><a xlink:href="namespacehag.html#aee422d0ebdb1730554711d82498e54c3" target="_top" xlink:title="hag.wakeup">
<polygon fill="white" stroke="black" points="340,-214.5 340,-233.5 409,-233.5 409,-214.5 340,-214.5"/>
<text text-anchor="middle" x="374.5" y="-221.5" font-family="Helvetica,sans-Serif" font-size="10.00">hag.wakeup</text>
</a>
</g>
</g>
<!-- Node13&#45;&gt;Node15 -->
<g id="edge15" class="edge"><title>Node13&#45;&gt;Node15</title>
<path fill="none" stroke="midnightblue" d="M208.657,-247.302C239.849,-242.893 292.453,-235.457 329.843,-230.171"/>
<polygon fill="midnightblue" stroke="midnightblue" points="330.544,-233.607 339.955,-228.742 329.564,-226.676 330.544,-233.607"/>
</g>
<!-- Node20&#45;&gt;Node6 -->
<g id="edge25" class="edge"><title>Node20&#45;&gt;Node6</title>
<path fill="none" stroke="midnightblue" d="M233.782,-46.5365C242.977,-49.6477 252.374,-53.1663 261,-57 277.927,-64.5225 280.062,-70.5032 297,-78 398.416,-122.886 424.094,-153 535,-153 535,-153 535,-153 681.5,-153 787.347,-153 903.627,-211.564 953.077,-239.502"/>
<polygon fill="midnightblue" stroke="midnightblue" points="951.369,-242.557 961.785,-244.498 954.853,-236.486 951.369,-242.557"/>
</g>
<!-- Node21 -->
<g id="node21" class="node"><title>Node21</title>
<g id="a_node21"><a xlink:href="namespacepdal_1_1Utils.html#aab74b31905c5d41eaca70a73675bf407" target="_top" xlink:title="pdal::Utils::base64\l_decode">
<polygon fill="white" stroke="black" points="325.5,-39 325.5,-69 423.5,-69 423.5,-39 325.5,-39"/>
<text text-anchor="start" x="333.5" y="-57" font-family="Helvetica,sans-Serif" font-size="10.00">pdal::Utils::base64</text>
<text text-anchor="middle" x="374.5" y="-46" font-family="Helvetica,sans-Serif" font-size="10.00">_decode</text>
</a>
</g>
</g>
<!-- Node20&#45;&gt;Node21 -->
<g id="edge22" class="edge"><title>Node20&#45;&gt;Node21</title>
<path fill="none" stroke="midnightblue" d="M233.684,-37.8956C258.853,-40.7946 289.298,-44.3013 315.343,-47.3013"/>
<polygon fill="midnightblue" stroke="midnightblue" points="315.126,-50.7993 325.461,-48.4667 315.927,-43.8453 315.126,-50.7993"/>
</g>
<!-- Node23 -->
<g id="node23" class="node"><title>Node23</title>
<g id="a_node23"><a xlink:href="namespacepdal_1_1Utils.html#ab93520363c4224f135097c2829b4420c" target="_top" xlink:title="pdal::Utils::fromString">
<polygon fill="white" stroke="black" points="318.5,-0.5 318.5,-19.5 430.5,-19.5 430.5,-0.5 318.5,-0.5"/>
<text text-anchor="middle" x="374.5" y="-7.5" font-family="Helvetica,sans-Serif" font-size="10.00">pdal::Utils::fromString</text>
</a>
</g>
</g>
<!-- Node20&#45;&gt;Node23 -->
<g id="edge24" class="edge"><title>Node20&#45;&gt;Node23</title>
<path fill="none" stroke="midnightblue" d="M233.684,-26.1044C256.6,-23.465 283.889,-20.3217 308.249,-17.5158"/>
<polygon fill="midnightblue" stroke="midnightblue" points="308.955,-20.9577 318.489,-16.3363 308.154,-14.0037 308.955,-20.9577"/>
</g>
<!-- Node22 -->
<g id="node22" class="node"><title>Node22</title>
<g id="a_node22"><a xlink:href="namespacepdal.html#a4d7dbf8f97121c52d3b891ad9e944094" target="_top" xlink:title="pdal::is_base64">
<polygon fill="white" stroke="black" points="493.5,-44.5 493.5,-63.5 578.5,-63.5 578.5,-44.5 493.5,-44.5"/>
<text text-anchor="middle" x="536" y="-51.5" font-family="Helvetica,sans-Serif" font-size="10.00">pdal::is_base64</text>
</a>
</g>
</g>
<!-- Node21&#45;&gt;Node22 -->
<g id="edge23" class="edge"><title>Node21&#45;&gt;Node22</title>
<path fill="none" stroke="midnightblue" d="M423.788,-54C442.597,-54 464.186,-54 483.308,-54"/>
<polygon fill="midnightblue" stroke="midnightblue" points="483.349,-57.5001 493.349,-54 483.349,-50.5001 483.349,-57.5001"/>
</g>
</g>
</svg>
