<?xml version="1.0" encoding="UTF-8" standalone="no"?>
<!DOCTYPE svg PUBLIC "-//W3C//DTD SVG 1.1//EN"
 "http://www.w3.org/Graphics/SVG/1.1/DTD/svg11.dtd">
<!-- Generated by graphviz version 2.38.0 (20140413.2041)
 -->
<!-- Title: pdal::georeference::georeferenceWgs84 Pages: 1 -->
<svg width="303pt" height="122pt"
 viewBox="0.00 0.00 303.00 121.50" xmlns="http://www.w3.org/2000/svg" xmlns:xlink="http://www.w3.org/1999/xlink">
<g id="graph0" class="graph" transform="scale(1 1) rotate(0) translate(4 117.5)">
<title>pdal::georeference::georeferenceWgs84</title>
<polygon fill="white" stroke="none" points="-4,4 -4,-117.5 299,-117.5 299,4 -4,4"/>
<!-- Node1 -->
<g id="node1" class="node"><title>Node1</title>
<polygon fill="#bfbfbf" stroke="black" points="0,-39 0,-69 110,-69 110,-39 0,-39"/>
<text text-anchor="start" x="8" y="-57" font-family="Helvetica,sans-Serif" font-size="10.00">pdal::georeference</text>
<text text-anchor="middle" x="55" y="-46" font-family="Helvetica,sans-Serif" font-size="10.00">::georeferenceWgs84</text>
</g>
<!-- Node2 -->
<g id="node2" class="node"><title>Node2</title>
<g id="a_node2"><a xlink:href="namespacepdal_1_1georeference_1_1anonymous__namespace_02Georeference_8cpp_03.html#a3d97bde05ca277bf07b1e9fc5bb49a3f" target="_top" xlink:title="pdal::georeference\l::anonymous_namespace\l\{Georeference::cpp\}::cartesian\lToCurvilinear">
<polygon fill="white" stroke="black" points="146,-61 146,-113 295,-113 295,-61 146,-61"/>
<text text-anchor="start" x="154" y="-101" font-family="Helvetica,sans-Serif" font-size="10.00">pdal::georeference</text>
<text text-anchor="start" x="154" y="-90" font-family="Helvetica,sans-Serif" font-size="10.00">::anonymous_namespace</text>
<text text-anchor="start" x="154" y="-79" font-family="Helvetica,sans-Serif" font-size="10.00">{Georeference::cpp}::cartesian</text>
<text text-anchor="middle" x="220.5" y="-68" font-family="Helvetica,sans-Serif" font-size="10.00">ToCurvilinear</text>
</a>
</g>
</g>
<!-- Node1&#45;&gt;Node2 -->
<g id="edge1" class="edge"><title>Node1&#45;&gt;Node2</title>
<path fill="none" stroke="midnightblue" d="M110.443,-64.9885C118.589,-66.6326 127.143,-68.3592 135.727,-70.0918"/>
<polygon fill="midnightblue" stroke="midnightblue" points="135.301,-73.5761 145.795,-72.1238 136.686,-66.7145 135.301,-73.5761"/>
</g>
<!-- Node3 -->
<g id="node3" class="node"><title>Node3</title>
<g id="a_node3"><a xlink:href="namespacepdal_1_1georeference_1_1anonymous__namespace_02Georeference_8cpp_03.html#ab65d68d7d44f5d44c6d533ec5d7fc06f" target="_top" xlink:title="pdal::georeference\l::anonymous_namespace\l\{Georeference::cpp\}::rotate">
<polygon fill="white" stroke="black" points="153.5,-0.5 153.5,-41.5 287.5,-41.5 287.5,-0.5 153.5,-0.5"/>
<text text-anchor="start" x="161.5" y="-29.5" font-family="Helvetica,sans-Serif" font-size="10.00">pdal::georeference</text>
<text text-anchor="start" x="161.5" y="-18.5" font-family="Helvetica,sans-Serif" font-size="10.00">::anonymous_namespace</text>
<text text-anchor="middle" x="220.5" y="-7.5" font-family="Helvetica,sans-Serif" font-size="10.00">{Georeference::cpp}::rotate</text>
</a>
</g>
</g>
<!-- Node1&#45;&gt;Node3 -->
<g id="edge2" class="edge"><title>Node1&#45;&gt;Node3</title>
<path fill="none" stroke="midnightblue" d="M110.443,-43.0115C120.969,-40.8869 132.178,-38.6247 143.251,-36.3897"/>
<polygon fill="midnightblue" stroke="midnightblue" points="144.249,-39.7589 153.359,-34.3495 142.864,-32.8972 144.249,-39.7589"/>
</g>
</g>
</svg>
