<?xml version="1.0" encoding="UTF-8" standalone="no"?>
<!DOCTYPE svg PUBLIC "-//W3C//DTD SVG 1.1//EN"
 "http://www.w3.org/Graphics/SVG/1.1/DTD/svg11.dtd">
<!-- Generated by graphviz version 2.38.0 (20140413.2041)
 -->
<!-- Title: pdal::Utils::trim Pages: 1 -->
<svg width="670pt" height="192pt"
 viewBox="0.00 0.00 670.00 191.50" xmlns="http://www.w3.org/2000/svg" xmlns:xlink="http://www.w3.org/1999/xlink">
<g id="graph0" class="graph" transform="scale(1 1) rotate(0) translate(4 187.5)">
<title>pdal::Utils::trim</title>
<polygon fill="white" stroke="none" points="-4,4 -4,-187.5 666,-187.5 666,4 -4,4"/>
<!-- Node1 -->
<g id="node1" class="node"><title>Node1</title>
<polygon fill="#bfbfbf" stroke="black" points="0,-76.5 0,-95.5 83,-95.5 83,-76.5 0,-76.5"/>
<text text-anchor="middle" x="41.5" y="-83.5" font-family="Helvetica,sans-Serif" font-size="10.00">pdal::Utils::trim</text>
</g>
<!-- Node2 -->
<g id="node2" class="node"><title>Node2</title>
<g id="a_node2"><a xlink:href="namespacepdal_1_1Utils.html#ab908ea72a2a7d385cbbab68939d1c1a2" target="_top" xlink:title="pdal::Utils::base64\l_encode">
<polygon fill="white" stroke="black" points="130.5,-153 130.5,-183 228.5,-183 228.5,-153 130.5,-153"/>
<text text-anchor="start" x="138.5" y="-171" font-family="Helvetica,sans-Serif" font-size="10.00">pdal::Utils::base64</text>
<text text-anchor="middle" x="179.5" y="-160" font-family="Helvetica,sans-Serif" font-size="10.00">_encode</text>
</a>
</g>
</g>
<!-- Node1&#45;&gt;Node2 -->
<g id="edge1" class="edge"><title>Node1&#45;&gt;Node2</title>
<path fill="none" stroke="midnightblue" d="M53.8147,-95.819C68.2341,-107.995 94.2646,-128.868 119,-143 122.405,-144.945 125.991,-146.826 129.645,-148.624"/>
<polygon fill="midnightblue" stroke="midnightblue" points="128.263,-151.841 138.804,-152.909 131.23,-145.501 128.263,-151.841"/>
</g>
<!-- Node3 -->
<g id="node3" class="node"><title>Node3</title>
<g id="a_node3"><a xlink:href="namespacepdal_1_1Utils.html#abdd3e6ebf8047dbc72337bac885f1169" target="_top" xlink:title="pdal::Utils::eatcharacter">
<polygon fill="white" stroke="black" points="119,-114.5 119,-133.5 240,-133.5 240,-114.5 119,-114.5"/>
<text text-anchor="middle" x="179.5" y="-121.5" font-family="Helvetica,sans-Serif" font-size="10.00">pdal::Utils::eatcharacter</text>
</a>
</g>
</g>
<!-- Node1&#45;&gt;Node3 -->
<g id="edge2" class="edge"><title>Node1&#45;&gt;Node3</title>
<path fill="none" stroke="midnightblue" d="M76.8185,-95.589C94.2943,-100.472 115.741,-106.464 134.425,-111.685"/>
<polygon fill="midnightblue" stroke="midnightblue" points="133.619,-115.094 144.192,-114.414 135.503,-108.352 133.619,-115.094"/>
</g>
<!-- Node4 -->
<g id="node4" class="node"><title>Node4</title>
<g id="a_node4"><a xlink:href="namespacepdal_1_1Dimension.html#acf81dae9d5946f3a941f9df154b2329b" target="_top" xlink:title="pdal::Dimension::size">
<polygon fill="white" stroke="black" points="124,-76.5 124,-95.5 235,-95.5 235,-76.5 124,-76.5"/>
<text text-anchor="middle" x="179.5" y="-83.5" font-family="Helvetica,sans-Serif" font-size="10.00">pdal::Dimension::size</text>
</a>
</g>
</g>
<!-- Node1&#45;&gt;Node4 -->
<g id="edge3" class="edge"><title>Node1&#45;&gt;Node4</title>
<path fill="none" stroke="midnightblue" d="M83.3045,-86C92.8108,-86 103.166,-86 113.432,-86"/>
<polygon fill="midnightblue" stroke="midnightblue" points="113.634,-89.5001 123.634,-86 113.634,-82.5001 113.634,-89.5001"/>
</g>
<!-- Node8 -->
<g id="node8" class="node"><title>Node8</title>
<g id="a_node8"><a xlink:href="namespacepdal_1_1Utils.html#a10ae3cc2d10407cff89ba1ab00bc036b" target="_top" xlink:title="pdal::Utils::trimLeading">
<polygon fill="white" stroke="black" points="121,-38.5 121,-57.5 238,-57.5 238,-38.5 121,-38.5"/>
<text text-anchor="middle" x="179.5" y="-45.5" font-family="Helvetica,sans-Serif" font-size="10.00">pdal::Utils::trimLeading</text>
</a>
</g>
</g>
<!-- Node1&#45;&gt;Node8 -->
<g id="edge7" class="edge"><title>Node1&#45;&gt;Node8</title>
<path fill="none" stroke="midnightblue" d="M76.8185,-76.411C94.2943,-71.5281 115.741,-65.5357 134.425,-60.315"/>
<polygon fill="midnightblue" stroke="midnightblue" points="135.503,-63.6479 144.192,-57.5859 133.619,-56.9062 135.503,-63.6479"/>
</g>
<!-- Node9 -->
<g id="node9" class="node"><title>Node9</title>
<g id="a_node9"><a xlink:href="namespacepdal_1_1Utils.html#afed0ad4146baafd1973c85e1508ade73" target="_top" xlink:title="pdal::Utils::trimTrailing">
<polygon fill="white" stroke="black" points="122,-0.5 122,-19.5 237,-19.5 237,-0.5 122,-0.5"/>
<text text-anchor="middle" x="179.5" y="-7.5" font-family="Helvetica,sans-Serif" font-size="10.00">pdal::Utils::trimTrailing</text>
</a>
</g>
</g>
<!-- Node1&#45;&gt;Node9 -->
<g id="edge8" class="edge"><title>Node1&#45;&gt;Node9</title>
<path fill="none" stroke="midnightblue" d="M53.129,-76.2565C67.2384,-63.7715 93.3679,-42.1729 119,-29 123.238,-26.8222 127.773,-24.8323 132.38,-23.0299"/>
<polygon fill="midnightblue" stroke="midnightblue" points="133.653,-26.2912 141.863,-19.5935 131.268,-19.71 133.653,-26.2912"/>
</g>
<!-- Node5 -->
<g id="node5" class="node"><title>Node5</title>
<g id="a_node5"><a xlink:href="namespacepdal_1_1Utils.html#a59253304d0f929e3a3ea00f09636002f" target="_top" xlink:title="pdal::Utils::toNative">
<polygon fill="white" stroke="black" points="276,-76.5 276,-95.5 380,-95.5 380,-76.5 276,-76.5"/>
<text text-anchor="middle" x="328" y="-83.5" font-family="Helvetica,sans-Serif" font-size="10.00">pdal::Utils::toNative</text>
</a>
</g>
</g>
<!-- Node4&#45;&gt;Node5 -->
<g id="edge4" class="edge"><title>Node4&#45;&gt;Node5</title>
<path fill="none" stroke="midnightblue" d="M235.051,-86C245.057,-86 255.563,-86 265.749,-86"/>
<polygon fill="midnightblue" stroke="midnightblue" points="265.8,-89.5001 275.8,-86 265.8,-82.5001 265.8,-89.5001"/>
</g>
<!-- Node6 -->
<g id="node6" class="node"><title>Node6</title>
<g id="a_node6"><a xlink:href="namespacepdal_1_1Dimension.html#a880d689fed54aa3ded6f88c9e058c5d2" target="_top" xlink:title="pdal::Dimension::type">
<polygon fill="white" stroke="black" points="416,-76.5 416,-95.5 528,-95.5 528,-76.5 416,-76.5"/>
<text text-anchor="middle" x="472" y="-83.5" font-family="Helvetica,sans-Serif" font-size="10.00">pdal::Dimension::type</text>
</a>
</g>
</g>
<!-- Node5&#45;&gt;Node6 -->
<g id="edge5" class="edge"><title>Node5&#45;&gt;Node6</title>
<path fill="none" stroke="midnightblue" d="M380.265,-86C388.602,-86 397.332,-86 405.946,-86"/>
<polygon fill="midnightblue" stroke="midnightblue" points="405.972,-89.5001 415.972,-86 405.972,-82.5001 405.972,-89.5001"/>
</g>
<!-- Node7 -->
<g id="node7" class="node"><title>Node7</title>
<g id="a_node7"><a xlink:href="namespacepdal_1_1Utils.html#a5268937cf695835e55392f752dc02cb2" target="_top" xlink:title="pdal::Utils::tolower">
<polygon fill="white" stroke="black" points="564,-76.5 564,-95.5 662,-95.5 662,-76.5 564,-76.5"/>
<text text-anchor="middle" x="613" y="-83.5" font-family="Helvetica,sans-Serif" font-size="10.00">pdal::Utils::tolower</text>
</a>
</g>
</g>
<!-- Node6&#45;&gt;Node7 -->
<g id="edge6" class="edge"><title>Node6&#45;&gt;Node7</title>
<path fill="none" stroke="midnightblue" d="M528.336,-86C536.625,-86 545.194,-86 553.546,-86"/>
<polygon fill="midnightblue" stroke="midnightblue" points="553.59,-89.5001 563.59,-86 553.59,-82.5001 553.59,-89.5001"/>
</g>
</g>
</svg>
