<?xml version="1.0" encoding="UTF-8" standalone="no"?>
<!DOCTYPE svg PUBLIC "-//W3C//DTD SVG 1.1//EN"
 "http://www.w3.org/Graphics/SVG/1.1/DTD/svg11.dtd">
<!-- Generated by graphviz version 2.38.0 (20140413.2041)
 -->
<!-- Title: pdal::TEST Pages: 1 -->
<svg width="866pt" height="368pt"
 viewBox="0.00 0.00 866.00 368.00" xmlns="http://www.w3.org/2000/svg" xmlns:xlink="http://www.w3.org/1999/xlink">
<g id="graph0" class="graph" transform="scale(1 1) rotate(0) translate(4 364)">
<title>pdal::TEST</title>
<polygon fill="white" stroke="none" points="-4,4 -4,-364 862,-364 862,4 -4,4"/>
<!-- Node1 -->
<g id="node1" class="node"><title>Node1</title>
<polygon fill="#bfbfbf" stroke="black" points="0,-179.5 0,-198.5 66,-198.5 66,-179.5 0,-179.5"/>
<text text-anchor="middle" x="33" y="-186.5" font-family="Helvetica,sans-Serif" font-size="10.00">pdal::TEST</text>
</g>
<!-- Node2 -->
<g id="node2" class="node"><title>Node2</title>
<g id="a_node2"><a xlink:href="namespacehag.html#a39becb5458bcac317093e468da1639be" target="_top" xlink:title="hag.filter">
<polygon fill="white" stroke="black" points="152.5,-321.5 152.5,-340.5 206.5,-340.5 206.5,-321.5 152.5,-321.5"/>
<text text-anchor="middle" x="179.5" y="-328.5" font-family="Helvetica,sans-Serif" font-size="10.00">hag.filter</text>
</a>
</g>
</g>
<!-- Node1&#45;&gt;Node2 -->
<g id="edge1" class="edge"><title>Node1&#45;&gt;Node2</title>
<path fill="none" stroke="midnightblue" d="M36.5329,-198.646C43.1277,-221.806 63.0833,-280.858 102,-311 113.503,-319.909 128.593,-324.869 142.329,-327.623"/>
<polygon fill="midnightblue" stroke="midnightblue" points="142.045,-331.125 152.487,-329.328 143.204,-324.221 142.045,-331.125"/>
</g>
<!-- Node5 -->
<g id="node5" class="node"><title>Node5</title>
<g id="a_node5"><a xlink:href="classpdal_1_1MetadataNode.html#a0c52985f2bedf620aea438ab1bce0af6" target="_top" xlink:title="pdal::MetadataNode\l::findChild">
<polygon fill="white" stroke="black" points="127.5,-272 127.5,-302 231.5,-302 231.5,-272 127.5,-272"/>
<text text-anchor="start" x="135.5" y="-290" font-family="Helvetica,sans-Serif" font-size="10.00">pdal::MetadataNode</text>
<text text-anchor="middle" x="179.5" y="-279" font-family="Helvetica,sans-Serif" font-size="10.00">::findChild</text>
</a>
</g>
</g>
<!-- Node1&#45;&gt;Node5 -->
<g id="edge4" class="edge"><title>Node1&#45;&gt;Node5</title>
<path fill="none" stroke="midnightblue" d="M40.7373,-199.005C51.7628,-214.639 75.1409,-244.847 102,-262 106.979,-265.18 112.4,-267.991 117.981,-270.469"/>
<polygon fill="midnightblue" stroke="midnightblue" points="116.894,-273.805 127.476,-274.331 119.531,-267.321 116.894,-273.805"/>
</g>
<!-- Node6 -->
<g id="node6" class="node"><title>Node6</title>
<g id="a_node6"><a xlink:href="namespacepdal_1_1anonymous__namespace_02IcpFilterTest_8cpp_03.html#a07a719e4d70a62dba23ee434159dfeb3" target="_top" xlink:title="pdal::anonymous_namespace\l\{IcpFilterTest::cpp\}::newFilter">
<polygon fill="white" stroke="black" points="106.5,-223 106.5,-253 252.5,-253 252.5,-223 106.5,-223"/>
<text text-anchor="start" x="114.5" y="-241" font-family="Helvetica,sans-Serif" font-size="10.00">pdal::anonymous_namespace</text>
<text text-anchor="middle" x="179.5" y="-230" font-family="Helvetica,sans-Serif" font-size="10.00">{IcpFilterTest::cpp}::newFilter</text>
</a>
</g>
</g>
<!-- Node1&#45;&gt;Node6 -->
<g id="edge5" class="edge"><title>Node1&#45;&gt;Node6</title>
<path fill="none" stroke="midnightblue" d="M60.756,-198.606C73.2617,-203.054 88.3684,-208.368 102,-213 108.489,-215.205 115.299,-217.483 122.07,-219.724"/>
<polygon fill="midnightblue" stroke="midnightblue" points="121.326,-223.164 131.919,-222.97 123.517,-216.516 121.326,-223.164"/>
</g>
<!-- Node7 -->
<g id="node7" class="node"><title>Node7</title>
<g id="a_node7"><a xlink:href="namespacepdal_1_1anonymous__namespace_02IcpFilterTest_8cpp_03.html#af01af8888cc2abd24c7bbbcac99602b6" target="_top" xlink:title="pdal::anonymous_namespace\l\{IcpFilterTest::cpp\}::newReader">
<polygon fill="white" stroke="black" points="102,-174 102,-204 257,-204 257,-174 102,-174"/>
<text text-anchor="start" x="110" y="-192" font-family="Helvetica,sans-Serif" font-size="10.00">pdal::anonymous_namespace</text>
<text text-anchor="middle" x="179.5" y="-181" font-family="Helvetica,sans-Serif" font-size="10.00">{IcpFilterTest::cpp}::newReader</text>
</a>
</g>
</g>
<!-- Node1&#45;&gt;Node7 -->
<g id="edge6" class="edge"><title>Node1&#45;&gt;Node7</title>
<path fill="none" stroke="midnightblue" d="M66.0692,-189C73.946,-189 82.7571,-189 91.887,-189"/>
<polygon fill="midnightblue" stroke="midnightblue" points="91.89,-192.5 101.89,-189 91.8899,-185.5 91.89,-192.5"/>
</g>
<!-- Node17 -->
<g id="node17" class="node"><title>Node17</title>
<g id="a_node17"><a xlink:href="namespacepdal_1_1Dimension.html#acf81dae9d5946f3a941f9df154b2329b" target="_top" xlink:title="pdal::Dimension::size">
<polygon fill="white" stroke="black" points="124,-135.5 124,-154.5 235,-154.5 235,-135.5 124,-135.5"/>
<text text-anchor="middle" x="179.5" y="-142.5" font-family="Helvetica,sans-Serif" font-size="10.00">pdal::Dimension::size</text>
</a>
</g>
</g>
<!-- Node1&#45;&gt;Node17 -->
<g id="edge16" class="edge"><title>Node1&#45;&gt;Node17</title>
<path fill="none" stroke="midnightblue" d="M58.0153,-179.445C70.9347,-174.489 87.2102,-168.541 102,-164 109.992,-161.546 118.527,-159.182 126.89,-157.003"/>
<polygon fill="midnightblue" stroke="midnightblue" points="127.756,-160.394 136.585,-154.537 126.031,-153.61 127.756,-160.394"/>
</g>
<!-- Node21 -->
<g id="node21" class="node"><title>Node21</title>
<g id="a_node21"><a xlink:href="classpdal_1_1MetadataNode.html#aaf33c8e550cee85b7182a7dbcc4ec80a" target="_top" xlink:title="pdal::MetadataNode\l::type">
<polygon fill="white" stroke="black" points="127.5,-86 127.5,-116 231.5,-116 231.5,-86 127.5,-86"/>
<text text-anchor="start" x="135.5" y="-104" font-family="Helvetica,sans-Serif" font-size="10.00">pdal::MetadataNode</text>
<text text-anchor="middle" x="179.5" y="-93" font-family="Helvetica,sans-Serif" font-size="10.00">::type</text>
</a>
</g>
</g>
<!-- Node1&#45;&gt;Node21 -->
<g id="edge20" class="edge"><title>Node1&#45;&gt;Node21</title>
<path fill="none" stroke="midnightblue" d="M42.2141,-179.062C54.077,-165.306 77.3062,-140.52 102,-126 107.015,-123.051 112.423,-120.4 117.963,-118.028"/>
<polygon fill="midnightblue" stroke="midnightblue" points="119.362,-121.238 127.365,-114.296 116.779,-114.732 119.362,-121.238"/>
</g>
<!-- Node22 -->
<g id="node22" class="node"><title>Node22</title>
<g id="a_node22"><a xlink:href="classpdal_1_1MetadataNode.html#ab5c86ccff7ced090522b31cdc6c772b6" target="_top" xlink:title="pdal::MetadataNode\l::value">
<polygon fill="white" stroke="black" points="127.5,-37 127.5,-67 231.5,-67 231.5,-37 127.5,-37"/>
<text text-anchor="start" x="135.5" y="-55" font-family="Helvetica,sans-Serif" font-size="10.00">pdal::MetadataNode</text>
<text text-anchor="middle" x="179.5" y="-44" font-family="Helvetica,sans-Serif" font-size="10.00">::value</text>
</a>
</g>
</g>
<!-- Node1&#45;&gt;Node22 -->
<g id="edge21" class="edge"><title>Node1&#45;&gt;Node22</title>
<path fill="none" stroke="midnightblue" d="M37.1714,-179.208C44.7499,-157.356 66.0086,-104.312 102,-76 106.766,-72.251 112.125,-69.083 117.737,-66.4067"/>
<polygon fill="midnightblue" stroke="midnightblue" points="119.505,-69.4598 127.362,-62.3513 116.787,-63.0091 119.505,-69.4598"/>
</g>
<!-- Node3 -->
<g id="node3" class="node"><title>Node3</title>
<g id="a_node3"><a xlink:href="namespacehag.html#acad63bbd5fdda01bf56ff6aae70a0192" target="_top" xlink:title="hag.read">
<polygon fill="white" stroke="black" points="322,-340.5 322,-359.5 376,-359.5 376,-340.5 322,-340.5"/>
<text text-anchor="middle" x="349" y="-347.5" font-family="Helvetica,sans-Serif" font-size="10.00">hag.read</text>
</a>
</g>
</g>
<!-- Node2&#45;&gt;Node3 -->
<g id="edge2" class="edge"><title>Node2&#45;&gt;Node3</title>
<path fill="none" stroke="midnightblue" d="M206.672,-333.969C234.861,-337.166 279.917,-342.277 311.562,-345.867"/>
<polygon fill="midnightblue" stroke="midnightblue" points="311.405,-349.371 321.736,-347.021 312.194,-342.416 311.405,-349.371"/>
</g>
<!-- Node4 -->
<g id="node4" class="node"><title>Node4</title>
<g id="a_node4"><a xlink:href="namespacehag.html#aee422d0ebdb1730554711d82498e54c3" target="_top" xlink:title="hag.wakeup">
<polygon fill="white" stroke="black" points="314.5,-302.5 314.5,-321.5 383.5,-321.5 383.5,-302.5 314.5,-302.5"/>
<text text-anchor="middle" x="349" y="-309.5" font-family="Helvetica,sans-Serif" font-size="10.00">hag.wakeup</text>
</a>
</g>
</g>
<!-- Node2&#45;&gt;Node4 -->
<g id="edge3" class="edge"><title>Node2&#45;&gt;Node4</title>
<path fill="none" stroke="midnightblue" d="M206.672,-328.031C232.712,-325.077 273.145,-320.491 304.103,-316.979"/>
<polygon fill="midnightblue" stroke="midnightblue" points="304.663,-320.438 314.205,-315.833 303.874,-313.483 304.663,-320.438"/>
</g>
<!-- Node8 -->
<g id="node8" class="node"><title>Node8</title>
<g id="a_node8"><a xlink:href="classpdal_1_1Options.html#a30826da39f9c4716412141eeeb719032" target="_top" xlink:title="pdal::Options::add">
<polygon fill="white" stroke="black" points="301,-210.5 301,-229.5 397,-229.5 397,-210.5 301,-210.5"/>
<text text-anchor="middle" x="349" y="-217.5" font-family="Helvetica,sans-Serif" font-size="10.00">pdal::Options::add</text>
</a>
</g>
</g>
<!-- Node7&#45;&gt;Node8 -->
<g id="edge7" class="edge"><title>Node7&#45;&gt;Node8</title>
<path fill="none" stroke="midnightblue" d="M257.387,-203.23C268.597,-205.304 279.971,-207.41 290.701,-209.395"/>
<polygon fill="midnightblue" stroke="midnightblue" points="290.294,-212.879 300.764,-211.258 291.568,-205.996 290.294,-212.879"/>
</g>
<!-- Node15 -->
<g id="node15" class="node"><title>Node15</title>
<g id="a_node15"><a xlink:href="classSupport.html#a9bbdf6f202f4f2e45e7a53007dd0a238" target="_top" xlink:title="Support::datapath">
<polygon fill="white" stroke="black" points="302,-172.5 302,-191.5 396,-191.5 396,-172.5 302,-172.5"/>
<text text-anchor="middle" x="349" y="-179.5" font-family="Helvetica,sans-Serif" font-size="10.00">Support::datapath</text>
</a>
</g>
</g>
<!-- Node7&#45;&gt;Node15 -->
<g id="edge14" class="edge"><title>Node7&#45;&gt;Node15</title>
<path fill="none" stroke="midnightblue" d="M257.387,-185.787C268.857,-185.307 280.501,-184.821 291.448,-184.363"/>
<polygon fill="midnightblue" stroke="midnightblue" points="291.858,-187.849 301.703,-183.935 291.566,-180.855 291.858,-187.849"/>
</g>
<!-- Node9 -->
<g id="node9" class="node"><title>Node9</title>
<g id="a_node9"><a xlink:href="classpdal_1_1Option.html#aef4422b88464a9cad83b3c11bf1f8cdd" target="_top" xlink:title="pdal::Option::nameValid">
<polygon fill="white" stroke="black" points="441,-248.5 441,-267.5 562,-267.5 562,-248.5 441,-248.5"/>
<text text-anchor="middle" x="501.5" y="-255.5" font-family="Helvetica,sans-Serif" font-size="10.00">pdal::Option::nameValid</text>
</a>
</g>
</g>
<!-- Node8&#45;&gt;Node9 -->
<g id="edge8" class="edge"><title>Node8&#45;&gt;Node9</title>
<path fill="none" stroke="midnightblue" d="M387.978,-229.589C407.659,-234.558 431.891,-240.677 452.821,-245.961"/>
<polygon fill="midnightblue" stroke="midnightblue" points="452.243,-249.425 462.796,-248.48 453.957,-242.638 452.243,-249.425"/>
</g>
<!-- Node14 -->
<g id="node14" class="node"><title>Node14</title>
<g id="a_node14"><a xlink:href="classpdal_1_1Option.html#ad2b7a736742fb343e421fa326ef45c23" target="_top" xlink:title="pdal::Option::getName">
<polygon fill="white" stroke="black" points="444,-210.5 444,-229.5 559,-229.5 559,-210.5 444,-210.5"/>
<text text-anchor="middle" x="501.5" y="-217.5" font-family="Helvetica,sans-Serif" font-size="10.00">pdal::Option::getName</text>
</a>
</g>
</g>
<!-- Node8&#45;&gt;Node14 -->
<g id="edge13" class="edge"><title>Node8&#45;&gt;Node14</title>
<path fill="none" stroke="midnightblue" d="M397.206,-220C408.79,-220 421.408,-220 433.72,-220"/>
<polygon fill="midnightblue" stroke="midnightblue" points="433.961,-223.5 443.961,-220 433.961,-216.5 433.961,-223.5"/>
</g>
<!-- Node10 -->
<g id="node10" class="node"><title>Node10</title>
<g id="a_node10"><a xlink:href="classpdal_1_1Option.html#a978a36cf9180d3636ea770988961952b" target="_top" xlink:title="pdal::Option::parse">
<polygon fill="white" stroke="black" points="602,-248.5 602,-267.5 701,-267.5 701,-248.5 602,-248.5"/>
<text text-anchor="middle" x="651.5" y="-255.5" font-family="Helvetica,sans-Serif" font-size="10.00">pdal::Option::parse</text>
</a>
</g>
</g>
<!-- Node9&#45;&gt;Node10 -->
<g id="edge9" class="edge"><title>Node9&#45;&gt;Node10</title>
<path fill="none" stroke="midnightblue" d="M562.271,-258C571.933,-258 581.931,-258 591.573,-258"/>
<polygon fill="midnightblue" stroke="midnightblue" points="591.863,-261.5 601.863,-258 591.863,-254.5 591.863,-261.5"/>
</g>
<!-- Node13 -->
<g id="node13" class="node"><title>Node13</title>
<g id="a_node13"><a xlink:href="namespacepdal_1_1Utils.html#ada321695f57c876ef51227bdf5b84f7a" target="_top" xlink:title="pdal::Utils::printError">
<polygon fill="white" stroke="black" points="598,-210.5 598,-229.5 705,-229.5 705,-210.5 598,-210.5"/>
<text text-anchor="middle" x="651.5" y="-217.5" font-family="Helvetica,sans-Serif" font-size="10.00">pdal::Utils::printError</text>
</a>
</g>
</g>
<!-- Node9&#45;&gt;Node13 -->
<g id="edge12" class="edge"><title>Node9&#45;&gt;Node13</title>
<path fill="none" stroke="midnightblue" d="M539.847,-248.411C559.201,-243.442 583.03,-237.323 603.613,-232.039"/>
<polygon fill="midnightblue" stroke="midnightblue" points="604.607,-235.397 613.422,-229.52 602.866,-228.617 604.607,-235.397"/>
</g>
<!-- Node11 -->
<g id="node11" class="node"><title>Node11</title>
<g id="a_node11"><a xlink:href="namespacepdal_1_1Utils.html#acae5a19cd66121b77e2599daec48413d" target="_top" xlink:title="pdal::Utils::extract">
<polygon fill="white" stroke="black" points="751,-248.5 751,-267.5 848,-267.5 848,-248.5 751,-248.5"/>
<text text-anchor="middle" x="799.5" y="-255.5" font-family="Helvetica,sans-Serif" font-size="10.00">pdal::Utils::extract</text>
</a>
</g>
</g>
<!-- Node10&#45;&gt;Node11 -->
<g id="edge10" class="edge"><title>Node10&#45;&gt;Node11</title>
<path fill="none" stroke="midnightblue" d="M701.116,-258C713.683,-258 727.34,-258 740.341,-258"/>
<polygon fill="midnightblue" stroke="midnightblue" points="740.593,-261.5 750.593,-258 740.593,-254.5 740.593,-261.5"/>
</g>
<!-- Node12 -->
<g id="node12" class="node"><title>Node12</title>
<g id="a_node12"><a xlink:href="namespacepdal_1_1Dimension.html#af3176b0b7e6b4be000317846cf7c2718" target="_top" xlink:title="pdal::Dimension::name">
<polygon fill="white" stroke="black" points="741,-151.5 741,-170.5 858,-170.5 858,-151.5 741,-151.5"/>
<text text-anchor="middle" x="799.5" y="-158.5" font-family="Helvetica,sans-Serif" font-size="10.00">pdal::Dimension::name</text>
</a>
</g>
</g>
<!-- Node10&#45;&gt;Node12 -->
<g id="edge11" class="edge"><title>Node10&#45;&gt;Node12</title>
<path fill="none" stroke="midnightblue" d="M684.391,-248.47C691.389,-245.833 698.612,-242.668 705,-239 734.728,-221.929 764.311,-195.187 782.005,-177.876"/>
<polygon fill="midnightblue" stroke="midnightblue" points="784.64,-180.191 789.255,-170.655 779.7,-175.232 784.64,-180.191"/>
</g>
<!-- Node16 -->
<g id="node16" class="node"><title>Node16</title>
<g id="a_node16"><a xlink:href="namespaceTestConfig.html#a0e622015f0610c2cfcbb3739b972d877" target="_top" xlink:title="TestConfig::dataPath">
<polygon fill="white" stroke="black" points="446.5,-172.5 446.5,-191.5 556.5,-191.5 556.5,-172.5 446.5,-172.5"/>
<text text-anchor="middle" x="501.5" y="-179.5" font-family="Helvetica,sans-Serif" font-size="10.00">TestConfig::dataPath</text>
</a>
</g>
</g>
<!-- Node15&#45;&gt;Node16 -->
<g id="edge15" class="edge"><title>Node15&#45;&gt;Node16</title>
<path fill="none" stroke="midnightblue" d="M396.383,-182C408.978,-182 422.844,-182 436.237,-182"/>
<polygon fill="midnightblue" stroke="midnightblue" points="436.356,-185.5 446.356,-182 436.356,-178.5 436.356,-185.5"/>
</g>
<!-- Node18 -->
<g id="node18" class="node"><title>Node18</title>
<g id="a_node18"><a xlink:href="namespacepdal_1_1Utils.html#a59253304d0f929e3a3ea00f09636002f" target="_top" xlink:title="pdal::Utils::toNative">
<polygon fill="white" stroke="black" points="297,-134.5 297,-153.5 401,-153.5 401,-134.5 297,-134.5"/>
<text text-anchor="middle" x="349" y="-141.5" font-family="Helvetica,sans-Serif" font-size="10.00">pdal::Utils::toNative</text>
</a>
</g>
</g>
<!-- Node17&#45;&gt;Node18 -->
<g id="edge17" class="edge"><title>Node17&#45;&gt;Node18</title>
<path fill="none" stroke="midnightblue" d="M235.346,-144.673C251.701,-144.575 269.733,-144.467 286.485,-144.367"/>
<polygon fill="midnightblue" stroke="midnightblue" points="286.745,-147.866 296.724,-144.306 286.703,-140.866 286.745,-147.866"/>
</g>
<!-- Node19 -->
<g id="node19" class="node"><title>Node19</title>
<g id="a_node19"><a xlink:href="namespacepdal_1_1Dimension.html#a880d689fed54aa3ded6f88c9e058c5d2" target="_top" xlink:title="pdal::Dimension::type">
<polygon fill="white" stroke="black" points="445.5,-134.5 445.5,-153.5 557.5,-153.5 557.5,-134.5 445.5,-134.5"/>
<text text-anchor="middle" x="501.5" y="-141.5" font-family="Helvetica,sans-Serif" font-size="10.00">pdal::Dimension::type</text>
</a>
</g>
</g>
<!-- Node18&#45;&gt;Node19 -->
<g id="edge18" class="edge"><title>Node18&#45;&gt;Node19</title>
<path fill="none" stroke="midnightblue" d="M401.373,-144C412.195,-144 423.753,-144 435.014,-144"/>
<polygon fill="midnightblue" stroke="midnightblue" points="435.242,-147.5 445.242,-144 435.242,-140.5 435.242,-147.5"/>
</g>
<!-- Node20 -->
<g id="node20" class="node"><title>Node20</title>
<g id="a_node20"><a xlink:href="namespacepdal_1_1Utils.html#a5268937cf695835e55392f752dc02cb2" target="_top" xlink:title="pdal::Utils::tolower">
<polygon fill="white" stroke="black" points="602.5,-134.5 602.5,-153.5 700.5,-153.5 700.5,-134.5 602.5,-134.5"/>
<text text-anchor="middle" x="651.5" y="-141.5" font-family="Helvetica,sans-Serif" font-size="10.00">pdal::Utils::tolower</text>
</a>
</g>
</g>
<!-- Node19&#45;&gt;Node20 -->
<g id="edge19" class="edge"><title>Node19&#45;&gt;Node20</title>
<path fill="none" stroke="midnightblue" d="M557.61,-144C568.81,-144 580.629,-144 591.944,-144"/>
<polygon fill="midnightblue" stroke="midnightblue" points="592.161,-147.5 602.161,-144 592.161,-140.5 592.161,-147.5"/>
</g>
<!-- Node22&#45;&gt;Node12 -->
<g id="edge25" class="edge"><title>Node22&#45;&gt;Node12</title>
<path fill="none" stroke="midnightblue" d="M231.776,-65.1432C250.896,-69.7019 272.849,-74.5336 293,-78 474.631,-109.245 526.008,-81.0916 705,-125 726.951,-130.385 750.707,-139.578 768.78,-147.326"/>
<polygon fill="midnightblue" stroke="midnightblue" points="767.624,-150.641 778.188,-151.448 770.434,-144.229 767.624,-150.641"/>
</g>
<!-- Node23 -->
<g id="node23" class="node"><title>Node23</title>
<g id="a_node23"><a xlink:href="namespacepdal_1_1Utils.html#aab74b31905c5d41eaca70a73675bf407" target="_top" xlink:title="pdal::Utils::base64\l_decode">
<polygon fill="white" stroke="black" points="300,-39 300,-69 398,-69 398,-39 300,-39"/>
<text text-anchor="start" x="308" y="-57" font-family="Helvetica,sans-Serif" font-size="10.00">pdal::Utils::base64</text>
<text text-anchor="middle" x="349" y="-46" font-family="Helvetica,sans-Serif" font-size="10.00">_decode</text>
</a>
</g>
</g>
<!-- Node22&#45;&gt;Node23 -->
<g id="edge22" class="edge"><title>Node22&#45;&gt;Node23</title>
<path fill="none" stroke="midnightblue" d="M231.666,-52.6109C249.93,-52.829 270.644,-53.0764 289.48,-53.3013"/>
<polygon fill="midnightblue" stroke="midnightblue" points="289.683,-56.8038 299.724,-53.4236 289.767,-49.8043 289.683,-56.8038"/>
</g>
<!-- Node25 -->
<g id="node25" class="node"><title>Node25</title>
<g id="a_node25"><a xlink:href="namespacepdal_1_1Utils.html#ab93520363c4224f135097c2829b4420c" target="_top" xlink:title="pdal::Utils::fromString">
<polygon fill="white" stroke="black" points="293,-0.5 293,-19.5 405,-19.5 405,-0.5 293,-0.5"/>
<text text-anchor="middle" x="349" y="-7.5" font-family="Helvetica,sans-Serif" font-size="10.00">pdal::Utils::fromString</text>
</a>
</g>
</g>
<!-- Node22&#45;&gt;Node25 -->
<g id="edge24" class="edge"><title>Node22&#45;&gt;Node25</title>
<path fill="none" stroke="midnightblue" d="M231.666,-39.1704C253.426,-33.7141 278.663,-27.3859 300.059,-22.021"/>
<polygon fill="midnightblue" stroke="midnightblue" points="301.058,-25.3789 309.907,-19.5518 299.356,-18.5891 301.058,-25.3789"/>
</g>
<!-- Node24 -->
<g id="node24" class="node"><title>Node24</title>
<g id="a_node24"><a xlink:href="namespacepdal.html#a4d7dbf8f97121c52d3b891ad9e944094" target="_top" xlink:title="pdal::is_base64">
<polygon fill="white" stroke="black" points="459,-44.5 459,-63.5 544,-63.5 544,-44.5 459,-44.5"/>
<text text-anchor="middle" x="501.5" y="-51.5" font-family="Helvetica,sans-Serif" font-size="10.00">pdal::is_base64</text>
</a>
</g>
</g>
<!-- Node23&#45;&gt;Node24 -->
<g id="edge23" class="edge"><title>Node23&#45;&gt;Node24</title>
<path fill="none" stroke="midnightblue" d="M398.033,-54C414.276,-54 432.473,-54 448.976,-54"/>
<polygon fill="midnightblue" stroke="midnightblue" points="448.999,-57.5001 458.999,-54 448.999,-50.5001 448.999,-57.5001"/>
</g>
</g>
</svg>
