<?xml version="1.0" encoding="UTF-8" standalone="no"?>
<!DOCTYPE svg PUBLIC "-//W3C//DTD SVG 1.1//EN"
 "http://www.w3.org/Graphics/SVG/1.1/DTD/svg11.dtd">
<!-- Generated by graphviz version 2.38.0 (20140413.2041)
 -->
<!-- Title: pdal::getWKT Pages: 1 -->
<svg width="719pt" height="170pt"
 viewBox="0.00 0.00 719.00 170.00" xmlns="http://www.w3.org/2000/svg" xmlns:xlink="http://www.w3.org/1999/xlink">
<g id="graph0" class="graph" transform="scale(1 1) rotate(0) translate(4 166)">
<title>pdal::getWKT</title>
<polygon fill="white" stroke="none" points="-4,4 -4,-166 715,-166 715,4 -4,4"/>
<!-- Node1 -->
<g id="node1" class="node"><title>Node1</title>
<polygon fill="#bfbfbf" stroke="black" points="0,-104.5 0,-123.5 77,-123.5 77,-104.5 0,-104.5"/>
<text text-anchor="middle" x="38.5" y="-111.5" font-family="Helvetica,sans-Serif" font-size="10.00">pdal::getWKT</text>
</g>
<!-- Node2 -->
<g id="node2" class="node"><title>Node2</title>
<g id="a_node2"><a xlink:href="namespacepdal_1_1FileUtils.html#a04d2d37c72f0f400f5d5b917b2f2ba05" target="_top" xlink:title="pdal::FileUtils::closeFile">
<polygon fill="white" stroke="black" points="113,-142.5 113,-161.5 235,-161.5 235,-142.5 113,-142.5"/>
<text text-anchor="middle" x="174" y="-149.5" font-family="Helvetica,sans-Serif" font-size="10.00">pdal::FileUtils::closeFile</text>
</a>
</g>
</g>
<!-- Node1&#45;&gt;Node2 -->
<g id="edge1" class="edge"><title>Node1&#45;&gt;Node2</title>
<path fill="none" stroke="midnightblue" d="M73.1877,-123.589C90.2632,-128.449 111.2,-134.409 129.482,-139.613"/>
<polygon fill="midnightblue" stroke="midnightblue" points="128.747,-143.043 139.323,-142.414 130.663,-136.31 128.747,-143.043"/>
</g>
<!-- Node3 -->
<g id="node3" class="node"><title>Node3</title>
<g id="a_node3"><a xlink:href="classSupport.html#a9bbdf6f202f4f2e45e7a53007dd0a238" target="_top" xlink:title="Support::datapath">
<polygon fill="white" stroke="black" points="127,-104.5 127,-123.5 221,-123.5 221,-104.5 127,-104.5"/>
<text text-anchor="middle" x="174" y="-111.5" font-family="Helvetica,sans-Serif" font-size="10.00">Support::datapath</text>
</a>
</g>
</g>
<!-- Node1&#45;&gt;Node3 -->
<g id="edge2" class="edge"><title>Node1&#45;&gt;Node3</title>
<path fill="none" stroke="midnightblue" d="M77.0425,-114C89.3336,-114 103.271,-114 116.638,-114"/>
<polygon fill="midnightblue" stroke="midnightblue" points="116.712,-117.5 126.712,-114 116.712,-110.5 116.712,-117.5"/>
</g>
<!-- Node5 -->
<g id="node5" class="node"><title>Node5</title>
<g id="a_node5"><a xlink:href="namespacepdal_1_1FileUtils.html#aeeda62ff11a1e6bcc9175f51f7efe522" target="_top" xlink:title="pdal::FileUtils::openFile">
<polygon fill="white" stroke="black" points="114.5,-47.5 114.5,-66.5 233.5,-66.5 233.5,-47.5 114.5,-47.5"/>
<text text-anchor="middle" x="174" y="-54.5" font-family="Helvetica,sans-Serif" font-size="10.00">pdal::FileUtils::openFile</text>
</a>
</g>
</g>
<!-- Node1&#45;&gt;Node5 -->
<g id="edge4" class="edge"><title>Node1&#45;&gt;Node5</title>
<path fill="none" stroke="midnightblue" d="M61.8449,-104.459C83.6003,-95.1706 116.873,-80.9642 141.348,-70.5143"/>
<polygon fill="midnightblue" stroke="midnightblue" points="142.76,-73.7173 150.582,-66.5716 140.011,-67.2795 142.76,-73.7173"/>
</g>
<!-- Node4 -->
<g id="node4" class="node"><title>Node4</title>
<g id="a_node4"><a xlink:href="namespaceTestConfig.html#a0e622015f0610c2cfcbb3739b972d877" target="_top" xlink:title="TestConfig::dataPath">
<polygon fill="white" stroke="black" points="277.5,-114.5 277.5,-133.5 387.5,-133.5 387.5,-114.5 277.5,-114.5"/>
<text text-anchor="middle" x="332.5" y="-121.5" font-family="Helvetica,sans-Serif" font-size="10.00">TestConfig::dataPath</text>
</a>
</g>
</g>
<!-- Node3&#45;&gt;Node4 -->
<g id="edge3" class="edge"><title>Node3&#45;&gt;Node4</title>
<path fill="none" stroke="midnightblue" d="M221.109,-116.946C235.605,-117.873 251.883,-118.913 267.394,-119.904"/>
<polygon fill="midnightblue" stroke="midnightblue" points="267.247,-123.401 277.45,-120.546 267.693,-116.416 267.247,-123.401"/>
</g>
<!-- Node6 -->
<g id="node6" class="node"><title>Node6</title>
<g id="a_node6"><a xlink:href="namespacepdal_1_1Dimension.html#af3176b0b7e6b4be000317846cf7c2718" target="_top" xlink:title="pdal::Dimension::name">
<polygon fill="white" stroke="black" points="274,-76.5 274,-95.5 391,-95.5 391,-76.5 274,-76.5"/>
<text text-anchor="middle" x="332.5" y="-83.5" font-family="Helvetica,sans-Serif" font-size="10.00">pdal::Dimension::name</text>
</a>
</g>
</g>
<!-- Node5&#45;&gt;Node6 -->
<g id="edge5" class="edge"><title>Node5&#45;&gt;Node6</title>
<path fill="none" stroke="midnightblue" d="M226.678,-66.5761C240.639,-69.1632 255.881,-71.9876 270.31,-74.6613"/>
<polygon fill="midnightblue" stroke="midnightblue" points="269.673,-78.1028 280.143,-76.4835 270.949,-71.2199 269.673,-78.1028"/>
</g>
<!-- Node7 -->
<g id="node7" class="node"><title>Node7</title>
<g id="a_node7"><a xlink:href="namespacepdal_1_1anonymous__namespace_02FileUtils_8cpp_03.html#a813a530ad72d50f747643f1bb996cacf" target="_top" xlink:title="pdal::anonymous_namespace\l\{FileUtils::cpp\}::isStdin">
<polygon fill="white" stroke="black" points="430,-14 430,-44 576,-44 576,-14 430,-14"/>
<text text-anchor="start" x="438" y="-32" font-family="Helvetica,sans-Serif" font-size="10.00">pdal::anonymous_namespace</text>
<text text-anchor="middle" x="503" y="-21" font-family="Helvetica,sans-Serif" font-size="10.00">{FileUtils::cpp}::isStdin</text>
</a>
</g>
</g>
<!-- Node5&#45;&gt;Node7 -->
<g id="edge6" class="edge"><title>Node5&#45;&gt;Node7</title>
<path fill="none" stroke="midnightblue" d="M233.839,-51.9618C285.704,-47.5208 361.81,-41.004 419.707,-36.0465"/>
<polygon fill="midnightblue" stroke="midnightblue" points="420.264,-39.5117 429.929,-35.1712 419.667,-32.5372 420.264,-39.5117"/>
</g>
<!-- Node9 -->
<g id="node9" class="node"><title>Node9</title>
<g id="a_node9"><a xlink:href="namespacepdal_1_1FileUtils.html#ae2b8f1ddc38b0033b685a0bde6106ba1" target="_top" xlink:title="pdal::FileUtils::fileExists">
<polygon fill="white" stroke="black" points="271,-0.5 271,-19.5 394,-19.5 394,-0.5 271,-0.5"/>
<text text-anchor="middle" x="332.5" y="-7.5" font-family="Helvetica,sans-Serif" font-size="10.00">pdal::FileUtils::fileExists</text>
</a>
</g>
</g>
<!-- Node5&#45;&gt;Node9 -->
<g id="edge8" class="edge"><title>Node5&#45;&gt;Node9</title>
<path fill="none" stroke="midnightblue" d="M206.67,-47.4888C230.667,-40.2821 263.853,-30.3156 289.977,-22.4703"/>
<polygon fill="midnightblue" stroke="midnightblue" points="291.038,-25.806 299.609,-19.5776 289.025,-19.1018 291.038,-25.806"/>
</g>
<!-- Node8 -->
<g id="node8" class="node"><title>Node8</title>
<g id="a_node8"><a xlink:href="namespacepdal_1_1Utils.html#a28e3e2faff94b20f9908e77bc54ed983" target="_top" xlink:title="pdal::Utils::toupper">
<polygon fill="white" stroke="black" points="612,-19.5 612,-38.5 711,-38.5 711,-19.5 612,-19.5"/>
<text text-anchor="middle" x="661.5" y="-26.5" font-family="Helvetica,sans-Serif" font-size="10.00">pdal::Utils::toupper</text>
</a>
</g>
</g>
<!-- Node7&#45;&gt;Node8 -->
<g id="edge7" class="edge"><title>Node7&#45;&gt;Node8</title>
<path fill="none" stroke="midnightblue" d="M576.295,-29C584.742,-29 593.282,-29 601.518,-29"/>
<polygon fill="midnightblue" stroke="midnightblue" points="601.758,-32.5001 611.758,-29 601.758,-25.5001 601.758,-32.5001"/>
</g>
<!-- Node9&#45;&gt;Node7 -->
<g id="edge9" class="edge"><title>Node9&#45;&gt;Node7</title>
<path fill="none" stroke="midnightblue" d="M394.332,-16.8594C402.598,-17.7915 411.191,-18.7604 419.756,-19.7262"/>
<polygon fill="midnightblue" stroke="midnightblue" points="419.448,-23.2135 429.777,-20.8562 420.232,-16.2576 419.448,-23.2135"/>
</g>
</g>
</svg>
