<?xml version="1.0" encoding="UTF-8" standalone="no"?>
<!DOCTYPE svg PUBLIC "-//W3C//DTD SVG 1.1//EN"
 "http://www.w3.org/Graphics/SVG/1.1/DTD/svg11.dtd">
<!-- Generated by graphviz version 2.38.0 (20140413.2041)
 -->
<!-- Title: pdal::gdal::registerDrivers Pages: 1 -->
<svg width="774pt" height="1088pt"
 viewBox="0.00 0.00 774.00 1087.50" xmlns="http://www.w3.org/2000/svg" xmlns:xlink="http://www.w3.org/1999/xlink">
<g id="graph0" class="graph" transform="scale(1 1) rotate(0) translate(4 1083.5)">
<title>pdal::gdal::registerDrivers</title>
<polygon fill="white" stroke="none" points="-4,4 -4,-1083.5 770,-1083.5 770,4 -4,4"/>
<!-- Node1 -->
<g id="node1" class="node"><title>Node1</title>
<polygon fill="#bfbfbf" stroke="black" points="0,-765.5 0,-784.5 128,-784.5 128,-765.5 0,-765.5"/>
<text text-anchor="middle" x="64" y="-772.5" font-family="Helvetica,sans-Serif" font-size="10.00">pdal::gdal::registerDrivers</text>
</g>
<!-- Node2 -->
<g id="node2" class="node"><title>Node2</title>
<g id="a_node2"><a xlink:href="classpdal_1_1DensityKernel.html#a0c74e94ba52214ddb0455254fb25a0b3" target="_top" xlink:title="pdal::DensityKernel\l::execute">
<polygon fill="white" stroke="black" points="183,-1049 183,-1079 285,-1079 285,-1049 183,-1049"/>
<text text-anchor="start" x="191" y="-1067" font-family="Helvetica,sans-Serif" font-size="10.00">pdal::DensityKernel</text>
<text text-anchor="middle" x="234" y="-1056" font-family="Helvetica,sans-Serif" font-size="10.00">::execute</text>
</a>
</g>
</g>
<!-- Node1&#45;&gt;Node2 -->
<g id="edge1" class="edge"><title>Node1&#45;&gt;Node2</title>
<path fill="none" stroke="midnightblue" d="M66.7158,-794.595C72.0004,-843.104 92.3051,-969.921 164,-1040 169.351,-1045.23 175.901,-1049.33 182.812,-1052.53"/>
<polygon fill="midnightblue" stroke="midnightblue" points="70.1853,-794.113 65.7156,-784.507 63.2194,-794.804 70.1853,-794.113"/>
</g>
<!-- Node3 -->
<g id="node3" class="node"><title>Node3</title>
<g id="a_node3"><a xlink:href="classpdal_1_1TIndexKernel.html#a607f1463d5518bbaa66662a905b48e51" target="_top" xlink:title="pdal::TIndexKernel\l::execute">
<polygon fill="white" stroke="black" points="185,-1000 185,-1030 283,-1030 283,-1000 185,-1000"/>
<text text-anchor="start" x="193" y="-1018" font-family="Helvetica,sans-Serif" font-size="10.00">pdal::TIndexKernel</text>
<text text-anchor="middle" x="234" y="-1007" font-family="Helvetica,sans-Serif" font-size="10.00">::execute</text>
</a>
</g>
</g>
<!-- Node1&#45;&gt;Node3 -->
<g id="edge2" class="edge"><title>Node1&#45;&gt;Node3</title>
<path fill="none" stroke="midnightblue" d="M68.738,-794.716C77.6747,-836.572 104.146,-934.969 164,-990 170.003,-995.519 177.317,-999.841 184.911,-1003.22"/>
<polygon fill="midnightblue" stroke="midnightblue" points="72.1261,-793.812 66.7099,-784.707 65.2655,-795.203 72.1261,-793.812"/>
</g>
<!-- Node4 -->
<g id="node4" class="node"><title>Node4</title>
<g id="a_node4"><a xlink:href="classpdal_1_1OciWriter.html#a8ebf0753f0a954a733fa978c05159451" target="_top" xlink:title="pdal::OciWriter::initialize">
<polygon fill="white" stroke="black" points="172.5,-961.5 172.5,-980.5 295.5,-980.5 295.5,-961.5 172.5,-961.5"/>
<text text-anchor="middle" x="234" y="-968.5" font-family="Helvetica,sans-Serif" font-size="10.00">pdal::OciWriter::initialize</text>
</a>
</g>
</g>
<!-- Node1&#45;&gt;Node4 -->
<g id="edge3" class="edge"><title>Node1&#45;&gt;Node4</title>
<path fill="none" stroke="midnightblue" d="M70.4706,-794.765C81.6712,-831.484 110.759,-910.271 164,-952 168.987,-955.909 174.726,-959.015 180.719,-961.482"/>
<polygon fill="midnightblue" stroke="midnightblue" points="73.7255,-793.426 67.5618,-784.808 67.0064,-795.388 73.7255,-793.426"/>
</g>
<!-- Node5 -->
<g id="node5" class="node"><title>Node5</title>
<g id="a_node5"><a xlink:href="classpdal_1_1OciReader.html#a665cc5d7bbfece9e645f6e33144f4b5e" target="_top" xlink:title="pdal::OciReader::initialize">
<polygon fill="white" stroke="black" points="170,-923.5 170,-942.5 298,-942.5 298,-923.5 170,-923.5"/>
<text text-anchor="middle" x="234" y="-930.5" font-family="Helvetica,sans-Serif" font-size="10.00">pdal::OciReader::initialize</text>
</a>
</g>
</g>
<!-- Node1&#45;&gt;Node5 -->
<g id="edge4" class="edge"><title>Node1&#45;&gt;Node5</title>
<path fill="none" stroke="midnightblue" d="M73.4238,-794.252C87.6343,-824.445 119.261,-882.711 164,-914 169.6,-917.917 175.979,-921.027 182.543,-923.497"/>
<polygon fill="midnightblue" stroke="midnightblue" points="76.4631,-792.481 69.1308,-784.833 70.0935,-795.384 76.4631,-792.481"/>
</g>
<!-- Node6 -->
<g id="node6" class="node"><title>Node6</title>
<g id="a_node6"><a xlink:href="classpdal_1_1GDALWriter.html#ab4e5955973f0f549c8399f39b571f634" target="_top" xlink:title="pdal::GDALWriter::initialize">
<polygon fill="white" stroke="black" points="166.5,-885.5 166.5,-904.5 301.5,-904.5 301.5,-885.5 166.5,-885.5"/>
<text text-anchor="middle" x="234" y="-892.5" font-family="Helvetica,sans-Serif" font-size="10.00">pdal::GDALWriter::initialize</text>
</a>
</g>
</g>
<!-- Node1&#45;&gt;Node6 -->
<g id="edge5" class="edge"><title>Node1&#45;&gt;Node6</title>
<path fill="none" stroke="midnightblue" d="M77.658,-792.812C94.7104,-815.494 127.201,-854.337 164,-876 170.532,-879.845 177.868,-882.936 185.255,-885.415"/>
<polygon fill="midnightblue" stroke="midnightblue" points="80.4494,-790.7 71.7093,-784.711 74.8072,-794.843 80.4494,-790.7"/>
</g>
<!-- Node7 -->
<g id="node7" class="node"><title>Node7</title>
<g id="a_node7"><a xlink:href="classpdal_1_1GDALReader.html#a5940fc111395752b5a43f7c4b192dc83" target="_top" xlink:title="pdal::GDALReader::initialize">
<polygon fill="white" stroke="black" points="164,-847.5 164,-866.5 304,-866.5 304,-847.5 164,-847.5"/>
<text text-anchor="middle" x="234" y="-854.5" font-family="Helvetica,sans-Serif" font-size="10.00">pdal::GDALReader::initialize</text>
</a>
</g>
</g>
<!-- Node1&#45;&gt;Node7 -->
<g id="edge6" class="edge"><title>Node1&#45;&gt;Node7</title>
<path fill="none" stroke="midnightblue" d="M85.5078,-790.637C104.845,-804.737 135.096,-825.171 164,-838 172.29,-841.68 181.463,-844.806 190.341,-847.395"/>
<polygon fill="midnightblue" stroke="midnightblue" points="87.5534,-787.797 77.4351,-784.655 83.3855,-793.421 87.5534,-787.797"/>
</g>
<!-- Node9 -->
<g id="node9" class="node"><title>Node9</title>
<g id="a_node9"><a xlink:href="classpdal_1_1OGRWriter.html#a1940d0db472d707c68773f1eee5ae63f" target="_top" xlink:title="pdal::OGRWriter::initialize">
<polygon fill="white" stroke="black" points="168.5,-809.5 168.5,-828.5 299.5,-828.5 299.5,-809.5 168.5,-809.5"/>
<text text-anchor="middle" x="234" y="-816.5" font-family="Helvetica,sans-Serif" font-size="10.00">pdal::OGRWriter::initialize</text>
</a>
</g>
</g>
<!-- Node1&#45;&gt;Node9 -->
<g id="edge8" class="edge"><title>Node1&#45;&gt;Node9</title>
<path fill="none" stroke="midnightblue" d="M111.409,-787.155C138.292,-794.195 171.647,-802.931 196.618,-809.471"/>
<polygon fill="midnightblue" stroke="midnightblue" points="112.014,-783.695 101.453,-784.547 110.24,-790.467 112.014,-783.695"/>
</g>
<!-- Node10 -->
<g id="node10" class="node"><title>Node10</title>
<g id="a_node10"><a xlink:href="classpdal_1_1TIndexReader.html#a441e8f1f37ac3ac418c6d1a7144bf8cd" target="_top" xlink:title="pdal::TIndexReader\l::initialize">
<polygon fill="white" stroke="black" points="183,-760 183,-790 285,-790 285,-760 183,-760"/>
<text text-anchor="start" x="191" y="-778" font-family="Helvetica,sans-Serif" font-size="10.00">pdal::TIndexReader</text>
<text text-anchor="middle" x="234" y="-767" font-family="Helvetica,sans-Serif" font-size="10.00">::initialize</text>
</a>
</g>
</g>
<!-- Node1&#45;&gt;Node10 -->
<g id="edge9" class="edge"><title>Node1&#45;&gt;Node10</title>
<path fill="none" stroke="midnightblue" d="M138.37,-775C153.442,-775 168.977,-775 182.993,-775"/>
<polygon fill="midnightblue" stroke="midnightblue" points="138.035,-771.5 128.035,-775 138.035,-778.5 138.035,-771.5"/>
</g>
<!-- Node11 -->
<g id="node11" class="node"><title>Node11</title>
<g id="a_node11"><a xlink:href="classpdal_1_1ColorizationFilter.html#ab7913018dd5d8e24d34526b86394ab38" target="_top" xlink:title="pdal::ColorizationFilter\l::initialize">
<polygon fill="white" stroke="black" points="177,-711 177,-741 291,-741 291,-711 177,-711"/>
<text text-anchor="start" x="185" y="-729" font-family="Helvetica,sans-Serif" font-size="10.00">pdal::ColorizationFilter</text>
<text text-anchor="middle" x="234" y="-718" font-family="Helvetica,sans-Serif" font-size="10.00">::initialize</text>
</a>
</g>
</g>
<!-- Node1&#45;&gt;Node11 -->
<g id="edge10" class="edge"><title>Node1&#45;&gt;Node11</title>
<path fill="none" stroke="midnightblue" d="M107.397,-762.634C129.891,-756.074 157.71,-747.96 181.445,-741.037"/>
<polygon fill="midnightblue" stroke="midnightblue" points="106.411,-759.276 97.7909,-765.436 108.371,-765.996 106.411,-759.276"/>
</g>
<!-- Node12 -->
<g id="node12" class="node"><title>Node12</title>
<g id="a_node12"><a xlink:href="classpdal_1_1OverlayFilter.html#a4d0664f9869c7c623e559201b9093049" target="_top" xlink:title="pdal::OverlayFilter\l::initialize">
<polygon fill="white" stroke="black" points="186,-662 186,-692 282,-692 282,-662 186,-662"/>
<text text-anchor="start" x="194" y="-680" font-family="Helvetica,sans-Serif" font-size="10.00">pdal::OverlayFilter</text>
<text text-anchor="middle" x="234" y="-669" font-family="Helvetica,sans-Serif" font-size="10.00">::initialize</text>
</a>
</g>
</g>
<!-- Node1&#45;&gt;Node12 -->
<g id="edge11" class="edge"><title>Node1&#45;&gt;Node12</title>
<path fill="none" stroke="midnightblue" d="M83.5152,-758.79C102.626,-742.696 133.824,-718.153 164,-702 170.852,-698.332 178.357,-694.993 185.813,-692.033"/>
<polygon fill="midnightblue" stroke="midnightblue" points="81.1959,-756.168 75.8675,-765.325 85.7436,-761.49 81.1959,-756.168"/>
</g>
<!-- Node13 -->
<g id="node13" class="node"><title>Node13</title>
<g id="a_node13"><a xlink:href="classpdal_1_1ColorinterpFilter.html#aab8dbabf0ab5d8d1541a23a7260faf9c" target="_top" xlink:title="pdal::ColorinterpFilter\l::ready">
<polygon fill="white" stroke="black" points="179,-613 179,-643 289,-643 289,-613 179,-613"/>
<text text-anchor="start" x="187" y="-631" font-family="Helvetica,sans-Serif" font-size="10.00">pdal::ColorinterpFilter</text>
<text text-anchor="middle" x="234" y="-620" font-family="Helvetica,sans-Serif" font-size="10.00">::ready</text>
</a>
</g>
</g>
<!-- Node1&#45;&gt;Node13 -->
<g id="edge12" class="edge"><title>Node1&#45;&gt;Node13</title>
<path fill="none" stroke="midnightblue" d="M75.4422,-756.611C91.3358,-730.163 124.014,-681.447 164,-653 169.399,-649.159 175.451,-645.847 181.669,-643.008"/>
<polygon fill="midnightblue" stroke="midnightblue" points="72.4045,-754.872 70.3636,-765.269 78.4423,-758.414 72.4045,-754.872"/>
</g>
<!-- Node14 -->
<g id="node14" class="node"><title>Node14</title>
<g id="a_node14"><a xlink:href="namespaceanonymous__namespace_02GDALWriterTest_8cpp_03.html#afa82c052f6116c30a757052c3013ec06" target="_top" xlink:title="anonymous_namespace\l\{GDALWriterTest::cpp\}\l::runGdalWriter">
<polygon fill="white" stroke="black" points="173,-553.5 173,-594.5 295,-594.5 295,-553.5 173,-553.5"/>
<text text-anchor="start" x="181" y="-582.5" font-family="Helvetica,sans-Serif" font-size="10.00">anonymous_namespace</text>
<text text-anchor="start" x="181" y="-571.5" font-family="Helvetica,sans-Serif" font-size="10.00">{GDALWriterTest::cpp}</text>
<text text-anchor="middle" x="234" y="-560.5" font-family="Helvetica,sans-Serif" font-size="10.00">::runGdalWriter</text>
</a>
</g>
</g>
<!-- Node1&#45;&gt;Node14 -->
<g id="edge13" class="edge"><title>Node1&#45;&gt;Node14</title>
<path fill="none" stroke="midnightblue" d="M71.5673,-755.628C84.2516,-720.861 115.246,-647.461 164,-604 167.9,-600.523 172.266,-597.4 176.857,-594.606"/>
<polygon fill="midnightblue" stroke="midnightblue" points="68.121,-754.876 68.0932,-765.471 74.7219,-757.206 68.121,-754.876"/>
</g>
<!-- Node16 -->
<g id="node16" class="node"><title>Node16</title>
<g id="a_node16"><a xlink:href="namespaceanonymous__namespace_02GDALWriterTest_8cpp_03.html#ab4af538727de76014b4faf8c8b616793" target="_top" xlink:title="anonymous_namespace\l\{GDALWriterTest::cpp\}\l::runGdalWriter2">
<polygon fill="white" stroke="black" points="173,-493.5 173,-534.5 295,-534.5 295,-493.5 173,-493.5"/>
<text text-anchor="start" x="181" y="-522.5" font-family="Helvetica,sans-Serif" font-size="10.00">anonymous_namespace</text>
<text text-anchor="start" x="181" y="-511.5" font-family="Helvetica,sans-Serif" font-size="10.00">{GDALWriterTest::cpp}</text>
<text text-anchor="middle" x="234" y="-500.5" font-family="Helvetica,sans-Serif" font-size="10.00">::runGdalWriter2</text>
</a>
</g>
</g>
<!-- Node1&#45;&gt;Node16 -->
<g id="edge15" class="edge"><title>Node1&#45;&gt;Node16</title>
<path fill="none" stroke="midnightblue" d="M68.3519,-755.309C76.7474,-711.658 102.573,-605.75 164,-544 167.501,-540.481 171.482,-537.346 175.725,-534.558"/>
<polygon fill="midnightblue" stroke="midnightblue" points="64.8948,-754.758 66.5437,-765.224 71.7812,-756.014 64.8948,-754.758"/>
</g>
<!-- Node18 -->
<g id="node18" class="node"><title>Node18</title>
<g id="a_node18"><a xlink:href="GDALWriterTest_8cpp.html#afd42d9a03df664301e7a25cb66a1c68d" target="_top" xlink:title="TEST">
<polygon fill="white" stroke="black" points="213,-455.5 213,-474.5 255,-474.5 255,-455.5 213,-455.5"/>
<text text-anchor="middle" x="234" y="-462.5" font-family="Helvetica,sans-Serif" font-size="10.00">TEST</text>
</a>
</g>
</g>
<!-- Node1&#45;&gt;Node18 -->
<g id="edge17" class="edge"><title>Node1&#45;&gt;Node18</title>
<path fill="none" stroke="midnightblue" d="M65.6825,-754.962C68.5873,-702.422 83.8482,-559.54 164,-484 177.111,-471.643 197.506,-467.189 212.727,-465.649"/>
<polygon fill="midnightblue" stroke="midnightblue" points="62.172,-755.115 65.2128,-765.264 69.1647,-755.434 62.172,-755.115"/>
</g>
<!-- Node19 -->
<g id="node19" class="node"><title>Node19</title>
<g id="a_node19"><a xlink:href="namespacepdal_1_1eigen.html#a8c61c44faa1808c232cad3aaa7076761" target="_top" xlink:title="pdal::eigen::writeMatrix">
<polygon fill="white" stroke="black" points="175,-351.5 175,-370.5 293,-370.5 293,-351.5 175,-351.5"/>
<text text-anchor="middle" x="234" y="-358.5" font-family="Helvetica,sans-Serif" font-size="10.00">pdal::eigen::writeMatrix</text>
</a>
</g>
</g>
<!-- Node1&#45;&gt;Node19 -->
<g id="edge18" class="edge"><title>Node1&#45;&gt;Node19</title>
<path fill="none" stroke="midnightblue" d="M68.1638,-755.312C77.1978,-702.626 106.258,-555.019 164,-446 180.191,-415.43 208.235,-385.365 223.095,-370.538"/>
<polygon fill="midnightblue" stroke="midnightblue" points="64.6869,-754.885 66.4952,-765.324 71.5916,-756.035 64.6869,-754.885"/>
</g>
<!-- Node8 -->
<g id="node8" class="node"><title>Node8</title>
<g id="a_node8"><a xlink:href="classpdal_1_1GDALReader.html#a61d15f0c8fc1669ae2df2fe16914e80e" target="_top" xlink:title="pdal::GDALReader::inspect">
<polygon fill="white" stroke="black" points="351.5,-847.5 351.5,-866.5 488.5,-866.5 488.5,-847.5 351.5,-847.5"/>
<text text-anchor="middle" x="420" y="-854.5" font-family="Helvetica,sans-Serif" font-size="10.00">pdal::GDALReader::inspect</text>
</a>
</g>
</g>
<!-- Node7&#45;&gt;Node8 -->
<g id="edge7" class="edge"><title>Node7&#45;&gt;Node8</title>
<path fill="none" stroke="midnightblue" d="M314.324,-857C326.679,-857 339.345,-857 351.408,-857"/>
<polygon fill="midnightblue" stroke="midnightblue" points="314.038,-853.5 304.038,-857 314.038,-860.5 314.038,-853.5"/>
</g>
<!-- Node15 -->
<g id="node15" class="node"><title>Node15</title>
<g id="a_node15"><a xlink:href="GDALWriterTest_8cpp.html#a5c0e3ecb8fc89936c1a522ef1dc07e76" target="_top" xlink:title="TEST">
<polygon fill="white" stroke="black" points="399,-564.5 399,-583.5 441,-583.5 441,-564.5 399,-564.5"/>
<text text-anchor="middle" x="420" y="-571.5" font-family="Helvetica,sans-Serif" font-size="10.00">TEST</text>
</a>
</g>
</g>
<!-- Node14&#45;&gt;Node15 -->
<g id="edge14" class="edge"><title>Node14&#45;&gt;Node15</title>
<path fill="none" stroke="midnightblue" d="M305.502,-574C339.026,-574 376.585,-574 398.986,-574"/>
<polygon fill="midnightblue" stroke="midnightblue" points="305.249,-570.5 295.248,-574 305.248,-577.5 305.249,-570.5"/>
</g>
<!-- Node17 -->
<g id="node17" class="node"><title>Node17</title>
<g id="a_node17"><a xlink:href="GDALWriterTest_8cpp.html#ad09a2533632ef747d93323fb11ca4d84" target="_top" xlink:title="TEST">
<polygon fill="white" stroke="black" points="399,-515.5 399,-534.5 441,-534.5 441,-515.5 399,-515.5"/>
<text text-anchor="middle" x="420" y="-522.5" font-family="Helvetica,sans-Serif" font-size="10.00">TEST</text>
</a>
</g>
</g>
<!-- Node16&#45;&gt;Node17 -->
<g id="edge16" class="edge"><title>Node16&#45;&gt;Node17</title>
<path fill="none" stroke="midnightblue" d="M305.502,-518.215C339.026,-520.219 376.585,-522.464 398.986,-523.804"/>
<polygon fill="midnightblue" stroke="midnightblue" points="305.44,-514.705 295.248,-517.602 305.022,-521.692 305.44,-514.705"/>
</g>
<!-- Node20 -->
<g id="node20" class="node"><title>Node20</title>
<g id="a_node20"><a xlink:href="classpdal_1_1SMRFilter.html#a29fbc87981c5a2301557e006d4fe67e9" target="_top" xlink:title="pdal::SMRFilter::classify\lGround">
<polygon fill="white" stroke="black" points="357.5,-466 357.5,-496 482.5,-496 482.5,-466 357.5,-466"/>
<text text-anchor="start" x="365.5" y="-484" font-family="Helvetica,sans-Serif" font-size="10.00">pdal::SMRFilter::classify</text>
<text text-anchor="middle" x="420" y="-473" font-family="Helvetica,sans-Serif" font-size="10.00">Ground</text>
</a>
</g>
</g>
<!-- Node19&#45;&gt;Node20 -->
<g id="edge19" class="edge"><title>Node19&#45;&gt;Node20</title>
<path fill="none" stroke="midnightblue" d="M249.602,-378.12C268.474,-399.243 303.295,-434.937 340,-456 346.613,-459.795 353.874,-463.09 361.231,-465.929"/>
<polygon fill="midnightblue" stroke="midnightblue" points="252.186,-375.759 242.962,-370.547 246.923,-380.374 252.186,-375.759"/>
</g>
<!-- Node21 -->
<g id="node21" class="node"><title>Node21</title>
<g id="a_node21"><a xlink:href="classpdal_1_1SMRFilter.html#aeff24acfb898a12573e781191af5dc41" target="_top" xlink:title="pdal::SMRFilter::createLowMask">
<polygon fill="white" stroke="black" points="340,-427.5 340,-446.5 500,-446.5 500,-427.5 340,-427.5"/>
<text text-anchor="middle" x="420" y="-434.5" font-family="Helvetica,sans-Serif" font-size="10.00">pdal::SMRFilter::createLowMask</text>
</a>
</g>
</g>
<!-- Node19&#45;&gt;Node21 -->
<g id="edge20" class="edge"><title>Node19&#45;&gt;Node21</title>
<path fill="none" stroke="midnightblue" d="M258.434,-376.043C279.17,-388.779 310.615,-406.715 340,-418 349.613,-421.692 360.168,-424.823 370.345,-427.414"/>
<polygon fill="midnightblue" stroke="midnightblue" points="260.044,-372.922 249.706,-370.6 256.34,-378.861 260.044,-372.922"/>
</g>
<!-- Node22 -->
<g id="node22" class="node"><title>Node22</title>
<g id="a_node22"><a xlink:href="classpdal_1_1SMRFilter.html#a3bbd09a2ee50161ed67640e02fddec92" target="_top" xlink:title="pdal::SMRFilter::createObjMask">
<polygon fill="white" stroke="black" points="341.5,-389.5 341.5,-408.5 498.5,-408.5 498.5,-389.5 341.5,-389.5"/>
<text text-anchor="middle" x="420" y="-396.5" font-family="Helvetica,sans-Serif" font-size="10.00">pdal::SMRFilter::createObjMask</text>
</a>
</g>
</g>
<!-- Node19&#45;&gt;Node22 -->
<g id="edge21" class="edge"><title>Node19&#45;&gt;Node22</title>
<path fill="none" stroke="midnightblue" d="M291.561,-372.681C317.654,-378.07 348.238,-384.386 372.903,-389.48"/>
<polygon fill="midnightblue" stroke="midnightblue" points="291.932,-369.184 281.431,-370.589 290.516,-376.039 291.932,-369.184"/>
</g>
<!-- Node23 -->
<g id="node23" class="node"><title>Node23</title>
<g id="a_node23"><a xlink:href="classpdal_1_1SMRFilter.html#ab4ef60fcc73c425d40a4afadf1a83498" target="_top" xlink:title="pdal::SMRFilter::createZImin">
<polygon fill="white" stroke="black" points="348.5,-351.5 348.5,-370.5 491.5,-370.5 491.5,-351.5 348.5,-351.5"/>
<text text-anchor="middle" x="420" y="-358.5" font-family="Helvetica,sans-Serif" font-size="10.00">pdal::SMRFilter::createZImin</text>
</a>
</g>
</g>
<!-- Node19&#45;&gt;Node23 -->
<g id="edge22" class="edge"><title>Node19&#45;&gt;Node23</title>
<path fill="none" stroke="midnightblue" d="M303.229,-361C317.917,-361 333.474,-361 348.256,-361"/>
<polygon fill="midnightblue" stroke="midnightblue" points="303.219,-357.5 293.219,-361 303.219,-364.5 303.219,-357.5"/>
</g>
<!-- Node24 -->
<g id="node24" class="node"><title>Node24</title>
<g id="a_node24"><a xlink:href="classpdal_1_1SMRFilter.html#ac77707c5ba859920c8b047d22adc94d1" target="_top" xlink:title="pdal::SMRFilter::createZInet">
<polygon fill="white" stroke="black" points="350,-313.5 350,-332.5 490,-332.5 490,-313.5 350,-313.5"/>
<text text-anchor="middle" x="420" y="-320.5" font-family="Helvetica,sans-Serif" font-size="10.00">pdal::SMRFilter::createZInet</text>
</a>
</g>
</g>
<!-- Node19&#45;&gt;Node24 -->
<g id="edge23" class="edge"><title>Node19&#45;&gt;Node24</title>
<path fill="none" stroke="midnightblue" d="M291.561,-349.319C317.654,-343.93 348.238,-337.614 372.903,-332.52"/>
<polygon fill="midnightblue" stroke="midnightblue" points="290.516,-345.961 281.431,-351.411 291.932,-352.816 290.516,-345.961"/>
</g>
<!-- Node25 -->
<g id="node25" class="node"><title>Node25</title>
<g id="a_node25"><a xlink:href="classpdal_1_1SMRFilter.html#a34c230bc824d61e5a21f4b0a111e72b0" target="_top" xlink:title="pdal::SMRFilter::createZIpro">
<polygon fill="white" stroke="black" points="350,-275.5 350,-294.5 490,-294.5 490,-275.5 350,-275.5"/>
<text text-anchor="middle" x="420" y="-282.5" font-family="Helvetica,sans-Serif" font-size="10.00">pdal::SMRFilter::createZIpro</text>
</a>
</g>
</g>
<!-- Node19&#45;&gt;Node25 -->
<g id="edge24" class="edge"><title>Node19&#45;&gt;Node25</title>
<path fill="none" stroke="midnightblue" d="M258.434,-345.957C279.17,-333.221 310.615,-315.285 340,-304 349.613,-300.308 360.168,-297.177 370.345,-294.586"/>
<polygon fill="midnightblue" stroke="midnightblue" points="256.34,-343.139 249.706,-351.4 260.044,-349.078 256.34,-343.139"/>
</g>
<!-- Node26 -->
<g id="node26" class="node"><title>Node26</title>
<g id="a_node26"><a xlink:href="classpdal_1_1MongusFilter.html#a7092a8b312119657674a3fb21af1a94c" target="_top" xlink:title="pdal::MongusFilter\l::processGround">
<polygon fill="white" stroke="black" points="371.5,-226 371.5,-256 468.5,-256 468.5,-226 371.5,-226"/>
<text text-anchor="start" x="379.5" y="-244" font-family="Helvetica,sans-Serif" font-size="10.00">pdal::MongusFilter</text>
<text text-anchor="middle" x="420" y="-233" font-family="Helvetica,sans-Serif" font-size="10.00">::processGround</text>
</a>
</g>
</g>
<!-- Node19&#45;&gt;Node26 -->
<g id="edge25" class="edge"><title>Node19&#45;&gt;Node26</title>
<path fill="none" stroke="midnightblue" d="M249.602,-343.88C268.474,-322.757 303.295,-287.063 340,-266 349.607,-260.487 360.583,-256.028 371.233,-252.489"/>
<polygon fill="midnightblue" stroke="midnightblue" points="246.923,-341.626 242.962,-351.453 252.186,-346.241 246.923,-341.626"/>
</g>
<!-- Node28 -->
<g id="node28" class="node"><title>Node28</title>
<g id="a_node28"><a xlink:href="namespacepdal_1_1eigen.html#a35788c656b7df1abc230e9f5dee0b27e" target="_top" xlink:title="pdal::eigen::replaceNaNs">
<polygon fill="white" stroke="black" points="356.5,-133.5 356.5,-152.5 483.5,-152.5 483.5,-133.5 356.5,-133.5"/>
<text text-anchor="middle" x="420" y="-140.5" font-family="Helvetica,sans-Serif" font-size="10.00">pdal::eigen::replaceNaNs</text>
</a>
</g>
</g>
<!-- Node19&#45;&gt;Node28 -->
<g id="edge27" class="edge"><title>Node19&#45;&gt;Node28</title>
<path fill="none" stroke="midnightblue" d="M246.451,-342.861C264.7,-314.53 302.19,-258.608 340,-216 361.939,-191.277 391.306,-165.844 407.341,-152.502"/>
<polygon fill="midnightblue" stroke="midnightblue" points="243.461,-341.041 241.028,-351.353 249.36,-344.809 243.461,-341.041"/>
</g>
<!-- Node27 -->
<g id="node27" class="node"><title>Node27</title>
<g id="a_node27"><a xlink:href="classpdal_1_1MongusFilter.html#a3b5162cf4649432203699574b2527427" target="_top" xlink:title="pdal::MongusFilter::run">
<polygon fill="white" stroke="black" points="554,-266.5 554,-285.5 670,-285.5 670,-266.5 554,-266.5"/>
<text text-anchor="middle" x="612" y="-273.5" font-family="Helvetica,sans-Serif" font-size="10.00">pdal::MongusFilter::run</text>
</a>
</g>
</g>
<!-- Node26&#45;&gt;Node27 -->
<g id="edge26" class="edge"><title>Node26&#45;&gt;Node27</title>
<path fill="none" stroke="midnightblue" d="M478.916,-251.669C504.577,-256.396 534.52,-261.912 559.403,-266.495"/>
<polygon fill="midnightblue" stroke="midnightblue" points="479.414,-248.202 468.945,-249.832 478.145,-255.086 479.414,-248.202"/>
</g>
<!-- Node29 -->
<g id="node29" class="node"><title>Node29</title>
<g id="a_node29"><a xlink:href="namespacepdal_1_1eigen.html#ab53aeec07299f46c551e1cc9e2ab2d8c" target="_top" xlink:title="pdal::eigen::computeAspectFD">
<polygon fill="white" stroke="black" points="536,-228.5 536,-247.5 688,-247.5 688,-228.5 536,-228.5"/>
<text text-anchor="middle" x="612" y="-235.5" font-family="Helvetica,sans-Serif" font-size="10.00">pdal::eigen::computeAspectFD</text>
</a>
</g>
</g>
<!-- Node28&#45;&gt;Node29 -->
<g id="edge28" class="edge"><title>Node28&#45;&gt;Node29</title>
<path fill="none" stroke="midnightblue" d="M442.647,-158.596C465.119,-174.242 501.718,-198.219 536,-214 548.419,-219.717 562.579,-224.629 575.226,-228.494"/>
<polygon fill="midnightblue" stroke="midnightblue" points="444.396,-155.547 434.205,-152.647 440.363,-161.269 444.396,-155.547"/>
</g>
<!-- Node30 -->
<g id="node30" class="node"><title>Node30</title>
<g id="a_node30"><a xlink:href="EigenTest_8cpp.html#a117227755b8d6760a72ff7d416bd094f" target="_top" xlink:title="TEST">
<polygon fill="white" stroke="black" points="724,-114.5 724,-133.5 766,-133.5 766,-114.5 724,-114.5"/>
<text text-anchor="middle" x="745" y="-121.5" font-family="Helvetica,sans-Serif" font-size="10.00">TEST</text>
</a>
</g>
</g>
<!-- Node28&#45;&gt;Node30 -->
<g id="edge40" class="edge"><title>Node28&#45;&gt;Node30</title>
<path fill="none" stroke="midnightblue" d="M449.974,-156.674C500.388,-178.423 606.637,-215.124 688,-181 711.027,-171.342 729.358,-147.086 738.212,-133.535"/>
<polygon fill="midnightblue" stroke="midnightblue" points="451.22,-153.398 440.659,-152.549 448.385,-159.798 451.22,-153.398"/>
</g>
<!-- Node31 -->
<g id="node31" class="node"><title>Node31</title>
<g id="a_node31"><a xlink:href="namespacepdal_1_1eigen.html#a8a54867810b638e4b6b64fd1804f00c8" target="_top" xlink:title="pdal::eigen::computeContour">
<polygon fill="white" stroke="black" points="541,-152.5 541,-171.5 683,-171.5 683,-152.5 541,-152.5"/>
<text text-anchor="middle" x="612" y="-159.5" font-family="Helvetica,sans-Serif" font-size="10.00">pdal::eigen::computeContour</text>
</a>
</g>
</g>
<!-- Node28&#45;&gt;Node31 -->
<g id="edge30" class="edge"><title>Node28&#45;&gt;Node31</title>
<path fill="none" stroke="midnightblue" d="M493.743,-150.274C509.177,-151.818 525.44,-153.444 540.777,-154.978"/>
<polygon fill="midnightblue" stroke="midnightblue" points="494.038,-146.786 483.74,-149.274 493.342,-153.752 494.038,-146.786"/>
</g>
<!-- Node32 -->
<g id="node32" class="node"><title>Node32</title>
<g id="a_node32"><a xlink:href="namespacepdal_1_1eigen.html#ae3c73acb88d80a9f0428c980b05863d4" target="_top" xlink:title="pdal::eigen::computeProfile">
<polygon fill="white" stroke="black" points="544.5,-114.5 544.5,-133.5 679.5,-133.5 679.5,-114.5 544.5,-114.5"/>
<text text-anchor="middle" x="612" y="-121.5" font-family="Helvetica,sans-Serif" font-size="10.00">pdal::eigen::computeProfile</text>
</a>
</g>
</g>
<!-- Node28&#45;&gt;Node32 -->
<g id="edge32" class="edge"><title>Node28&#45;&gt;Node32</title>
<path fill="none" stroke="midnightblue" d="M493.934,-135.707C510.535,-134.046 528.089,-132.291 544.41,-130.659"/>
<polygon fill="midnightblue" stroke="midnightblue" points="493.342,-132.248 483.74,-136.726 494.038,-139.214 493.342,-132.248"/>
</g>
<!-- Node33 -->
<g id="node33" class="node"><title>Node33</title>
<g id="a_node33"><a xlink:href="namespacepdal_1_1eigen.html#a3ae8ec6a3501c7f138dc35aea08da663" target="_top" xlink:title="pdal::eigen::computeSlopeFD">
<polygon fill="white" stroke="black" points="539,-76.5 539,-95.5 685,-95.5 685,-76.5 539,-76.5"/>
<text text-anchor="middle" x="612" y="-83.5" font-family="Helvetica,sans-Serif" font-size="10.00">pdal::eigen::computeSlopeFD</text>
</a>
</g>
</g>
<!-- Node28&#45;&gt;Node33 -->
<g id="edge34" class="edge"><title>Node28&#45;&gt;Node33</title>
<path fill="none" stroke="midnightblue" d="M457.737,-130.122C480.213,-122.428 509.623,-112.689 536,-105 547.348,-101.692 559.757,-98.4134 571.156,-95.5345"/>
<polygon fill="midnightblue" stroke="midnightblue" points="456.563,-126.825 448.247,-133.39 458.842,-133.443 456.563,-126.825"/>
</g>
<!-- Node34 -->
<g id="node34" class="node"><title>Node34</title>
<g id="a_node34"><a xlink:href="namespacepdal_1_1eigen.html#a28f0bb391554d5ee42aa5b3f100e833d" target="_top" xlink:title="pdal::eigen::computeTangential">
<polygon fill="white" stroke="black" points="536,-38.5 536,-57.5 688,-57.5 688,-38.5 536,-38.5"/>
<text text-anchor="middle" x="612" y="-45.5" font-family="Helvetica,sans-Serif" font-size="10.00">pdal::eigen::computeTangential</text>
</a>
</g>
</g>
<!-- Node28&#45;&gt;Node34 -->
<g id="edge36" class="edge"><title>Node28&#45;&gt;Node34</title>
<path fill="none" stroke="midnightblue" d="M440.537,-127.094C462.51,-109.945 499.863,-82.9667 536,-67 544.478,-63.2543 553.834,-60.1475 562.979,-57.6072"/>
<polygon fill="midnightblue" stroke="midnightblue" points="438.301,-124.4 432.639,-133.354 442.649,-129.886 438.301,-124.4"/>
</g>
<!-- Node35 -->
<g id="node35" class="node"><title>Node35</title>
<g id="a_node35"><a xlink:href="namespacepdal_1_1eigen.html#a6a9d9166667216e6ed08d4d0a03e1bf6" target="_top" xlink:title="pdal::eigen::computeTotal">
<polygon fill="white" stroke="black" points="547.5,-0.5 547.5,-19.5 676.5,-19.5 676.5,-0.5 547.5,-0.5"/>
<text text-anchor="middle" x="612" y="-7.5" font-family="Helvetica,sans-Serif" font-size="10.00">pdal::eigen::computeTotal</text>
</a>
</g>
</g>
<!-- Node28&#45;&gt;Node35 -->
<g id="edge38" class="edge"><title>Node28&#45;&gt;Node35</title>
<path fill="none" stroke="midnightblue" d="M434.059,-124.992C453.417,-99.642 492.191,-53.7686 536,-29 542.899,-25.0996 550.601,-21.9879 558.371,-19.5084"/>
<polygon fill="midnightblue" stroke="midnightblue" points="431.014,-123.22 427.832,-133.326 436.622,-127.41 431.014,-123.22"/>
</g>
<!-- Node29&#45;&gt;Node30 -->
<g id="edge29" class="edge"><title>Node29&#45;&gt;Node30</title>
<path fill="none" stroke="midnightblue" d="M669.91,-224.618C676.365,-221.732 682.566,-218.234 688,-214 716.016,-192.169 733.618,-152.101 740.585,-133.703"/>
<polygon fill="midnightblue" stroke="midnightblue" points="668.332,-221.479 660.331,-228.424 670.916,-227.984 668.332,-221.479"/>
</g>
<!-- Node31&#45;&gt;Node30 -->
<g id="edge31" class="edge"><title>Node31&#45;&gt;Node30</title>
<path fill="none" stroke="midnightblue" d="M662.961,-149.929C671.351,-147.735 679.946,-145.383 688,-143 700.011,-139.447 713.292,-134.965 723.905,-131.247"/>
<polygon fill="midnightblue" stroke="midnightblue" points="662.064,-146.546 653.25,-152.425 663.807,-153.326 662.064,-146.546"/>
</g>
<!-- Node32&#45;&gt;Node30 -->
<g id="edge33" class="edge"><title>Node32&#45;&gt;Node30</title>
<path fill="none" stroke="midnightblue" d="M689.841,-124C702.439,-124 714.459,-124 723.961,-124"/>
<polygon fill="midnightblue" stroke="midnightblue" points="689.651,-120.5 679.651,-124 689.651,-127.5 689.651,-120.5"/>
</g>
<!-- Node33&#45;&gt;Node30 -->
<g id="edge35" class="edge"><title>Node33&#45;&gt;Node30</title>
<path fill="none" stroke="midnightblue" d="M662.961,-98.0707C671.351,-100.265 679.946,-102.617 688,-105 700.011,-108.553 713.292,-113.035 723.905,-116.753"/>
<polygon fill="midnightblue" stroke="midnightblue" points="663.807,-94.6744 653.25,-95.5745 662.064,-101.454 663.807,-94.6744"/>
</g>
<!-- Node34&#45;&gt;Node30 -->
<g id="edge37" class="edge"><title>Node34&#45;&gt;Node30</title>
<path fill="none" stroke="midnightblue" d="M675.628,-61.0268C679.925,-62.7764 684.094,-64.7575 688,-67 709.174,-79.1567 727.703,-101.539 737.215,-114.341"/>
<polygon fill="midnightblue" stroke="midnightblue" points="676.664,-57.6796 666.07,-57.5548 674.274,-64.259 676.664,-57.6796"/>
</g>
<!-- Node35&#45;&gt;Node30 -->
<g id="edge39" class="edge"><title>Node35&#45;&gt;Node30</title>
<path fill="none" stroke="midnightblue" d="M680.059,-23.9139C682.837,-25.4377 685.501,-27.1271 688,-29 718.028,-51.5038 734.902,-95.2359 741.162,-114.499"/>
<polygon fill="midnightblue" stroke="midnightblue" points="681.4,-20.6766 670.861,-19.589 678.421,-27.0113 681.4,-20.6766"/>
</g>
</g>
</svg>
