<?xml version="1.0" encoding="UTF-8" standalone="no"?>
<!DOCTYPE svg PUBLIC "-//W3C//DTD SVG 1.1//EN"
 "http://www.w3.org/Graphics/SVG/1.1/DTD/svg11.dtd">
<!-- Generated by graphviz version 2.38.0 (20140413.2041)
 -->
<!-- Title: pdal::Utils::wordWrap2 Pages: 1 -->
<svg width="750pt" height="116pt"
 viewBox="0.00 0.00 750.00 115.50" xmlns="http://www.w3.org/2000/svg" xmlns:xlink="http://www.w3.org/1999/xlink">
<g id="graph0" class="graph" transform="scale(1 1) rotate(0) translate(4 111.5)">
<title>pdal::Utils::wordWrap2</title>
<polygon fill="white" stroke="none" points="-4,4 -4,-111.5 746,-111.5 746,4 -4,4"/>
<!-- Node1 -->
<g id="node1" class="node"><title>Node1</title>
<polygon fill="#bfbfbf" stroke="black" points="0,-38.5 0,-57.5 116,-57.5 116,-38.5 0,-38.5"/>
<text text-anchor="middle" x="58" y="-45.5" font-family="Helvetica,sans-Serif" font-size="10.00">pdal::Utils::wordWrap2</text>
</g>
<!-- Node2 -->
<g id="node2" class="node"><title>Node2</title>
<g id="a_node2"><a xlink:href="namespacepdal_1_1Utils.html#a6afb17d343ab75a055584b85bcf437bc" target="_top" xlink:title="pdal::Utils::base64\l_encode">
<polygon fill="white" stroke="black" points="188,-77 188,-107 286,-107 286,-77 188,-77"/>
<text text-anchor="start" x="196" y="-95" font-family="Helvetica,sans-Serif" font-size="10.00">pdal::Utils::base64</text>
<text text-anchor="middle" x="237" y="-84" font-family="Helvetica,sans-Serif" font-size="10.00">_encode</text>
</a>
</g>
</g>
<!-- Node1&#45;&gt;Node2 -->
<g id="edge1" class="edge"><title>Node1&#45;&gt;Node2</title>
<path fill="none" stroke="midnightblue" d="M107.412,-60.0347C132.436,-66.2554 162.882,-73.8238 187.866,-80.0345"/>
<polygon fill="midnightblue" stroke="midnightblue" points="107.955,-56.5632 97.4064,-57.5473 106.267,-63.3565 107.955,-56.5632"/>
</g>
<!-- Node3 -->
<g id="node3" class="node"><title>Node3</title>
<g id="a_node3"><a xlink:href="UtilsTest_8cpp.html#aa3ae2e233c11850eff2aaa9e8ec04f19" target="_top" xlink:title="TEST">
<polygon fill="white" stroke="black" points="216,-38.5 216,-57.5 258,-57.5 258,-38.5 216,-38.5"/>
<text text-anchor="middle" x="237" y="-45.5" font-family="Helvetica,sans-Serif" font-size="10.00">TEST</text>
</a>
</g>
</g>
<!-- Node1&#45;&gt;Node3 -->
<g id="edge2" class="edge"><title>Node1&#45;&gt;Node3</title>
<path fill="none" stroke="midnightblue" d="M126.642,-48C158.462,-48 194.098,-48 215.789,-48"/>
<polygon fill="midnightblue" stroke="midnightblue" points="126.467,-44.5001 116.467,-48 126.467,-51.5001 126.467,-44.5001"/>
</g>
<!-- Node4 -->
<g id="node4" class="node"><title>Node4</title>
<g id="a_node4"><a xlink:href="classpdal_1_1DimBuilder.html#aa465ecf10aca86dbbb88442abc18b6f7" target="_top" xlink:title="pdal::DimBuilder::writeDescriptions">
<polygon fill="white" stroke="black" points="152,-0.5 152,-19.5 322,-19.5 322,-0.5 152,-0.5"/>
<text text-anchor="middle" x="237" y="-7.5" font-family="Helvetica,sans-Serif" font-size="10.00">pdal::DimBuilder::writeDescriptions</text>
</a>
</g>
</g>
<!-- Node1&#45;&gt;Node4 -->
<g id="edge3" class="edge"><title>Node1&#45;&gt;Node4</title>
<path fill="none" stroke="midnightblue" d="M113.742,-36.2474C138.77,-30.8742 168.035,-24.5914 191.657,-19.5201"/>
<polygon fill="midnightblue" stroke="midnightblue" points="112.707,-32.8898 103.665,-38.411 114.176,-39.7339 112.707,-32.8898"/>
</g>
<!-- Node5 -->
<g id="node5" class="node"><title>Node5</title>
<g id="a_node5"><a xlink:href="classpdal_1_1DimBuilder.html#a708e0d65c30b147f1ac1c8cfb8eb2c02" target="_top" xlink:title="pdal::DimBuilder::writeOutput">
<polygon fill="white" stroke="black" points="358,-0.5 358,-19.5 503,-19.5 503,-0.5 358,-0.5"/>
<text text-anchor="middle" x="430.5" y="-7.5" font-family="Helvetica,sans-Serif" font-size="10.00">pdal::DimBuilder::writeOutput</text>
</a>
</g>
</g>
<!-- Node4&#45;&gt;Node5 -->
<g id="edge4" class="edge"><title>Node4&#45;&gt;Node5</title>
<path fill="none" stroke="midnightblue" d="M332.304,-10C340.869,-10 349.449,-10 357.77,-10"/>
<polygon fill="midnightblue" stroke="midnightblue" points="332.273,-6.5001 322.273,-10 332.273,-13.5001 332.273,-6.5001"/>
</g>
<!-- Node6 -->
<g id="node6" class="node"><title>Node6</title>
<g id="a_node6"><a xlink:href="classpdal_1_1DimBuilder.html#a80dc37c7ba907d37af6ce04620364855" target="_top" xlink:title="pdal::DimBuilder::execute">
<polygon fill="white" stroke="black" points="539,-0.5 539,-19.5 668,-19.5 668,-0.5 539,-0.5"/>
<text text-anchor="middle" x="603.5" y="-7.5" font-family="Helvetica,sans-Serif" font-size="10.00">pdal::DimBuilder::execute</text>
</a>
</g>
</g>
<!-- Node5&#45;&gt;Node6 -->
<g id="edge5" class="edge"><title>Node5&#45;&gt;Node6</title>
<path fill="none" stroke="midnightblue" d="M513.134,-10C521.781,-10 530.481,-10 538.879,-10"/>
<polygon fill="midnightblue" stroke="midnightblue" points="513.029,-6.5001 503.029,-10 513.029,-13.5001 513.029,-6.5001"/>
</g>
<!-- Node7 -->
<g id="node7" class="node"><title>Node7</title>
<g id="a_node7"><a xlink:href="DimBuilder_8cpp.html#a0ddf1224851353fc92bfbff6f499fa97" target="_top" xlink:title="main">
<polygon fill="white" stroke="black" points="704,-0.5 704,-19.5 742,-19.5 742,-0.5 704,-0.5"/>
<text text-anchor="middle" x="723" y="-7.5" font-family="Helvetica,sans-Serif" font-size="10.00">main</text>
</a>
</g>
</g>
<!-- Node6&#45;&gt;Node7 -->
<g id="edge6" class="edge"><title>Node6&#45;&gt;Node7</title>
<path fill="none" stroke="midnightblue" d="M678.158,-10C687.693,-10 696.667,-10 703.982,-10"/>
<polygon fill="midnightblue" stroke="midnightblue" points="678.065,-6.5001 668.065,-10 678.064,-13.5001 678.065,-6.5001"/>
</g>
</g>
</svg>
