<?xml version="1.0" encoding="UTF-8" standalone="no"?>
<!DOCTYPE svg PUBLIC "-//W3C//DTD SVG 1.1//EN"
 "http://www.w3.org/Graphics/SVG/1.1/DTD/svg11.dtd">
<!-- Generated by graphviz version 2.38.0 (20140413.2041)
 -->
<!-- Title: pdal::pg_commit Pages: 1 -->
<svg width="442pt" height="66pt"
 viewBox="0.00 0.00 442.00 66.00" xmlns="http://www.w3.org/2000/svg" xmlns:xlink="http://www.w3.org/1999/xlink">
<g id="graph0" class="graph" transform="scale(1 1) rotate(0) translate(4 62)">
<title>pdal::pg_commit</title>
<polygon fill="white" stroke="none" points="-4,4 -4,-62 438,-62 438,4 -4,4"/>
<!-- Node1 -->
<g id="node1" class="node"><title>Node1</title>
<polygon fill="#bfbfbf" stroke="black" points="0,-19.5 0,-38.5 89,-38.5 89,-19.5 0,-19.5"/>
<text text-anchor="middle" x="44.5" y="-26.5" font-family="Helvetica,sans-Serif" font-size="10.00">pdal::pg_commit</text>
</g>
<!-- Node2 -->
<g id="node2" class="node"><title>Node2</title>
<g id="a_node2"><a xlink:href="classpdal_1_1PgReader.html#a9e915183f5ceacb46456d6ef11d96216" target="_top" xlink:title="pdal::PgReader::CursorTeardown">
<polygon fill="white" stroke="black" points="125,-38.5 125,-57.5 287,-57.5 287,-38.5 125,-38.5"/>
<text text-anchor="middle" x="206" y="-45.5" font-family="Helvetica,sans-Serif" font-size="10.00">pdal::PgReader::CursorTeardown</text>
</a>
</g>
</g>
<!-- Node1&#45;&gt;Node2 -->
<g id="edge1" class="edge"><title>Node1&#45;&gt;Node2</title>
<path fill="none" stroke="midnightblue" d="M99.0342,-35.3771C107.391,-36.3726 116.179,-37.4195 124.973,-38.4669"/>
<polygon fill="midnightblue" stroke="midnightblue" points="99.4279,-31.8994 89.0841,-34.1918 98.5998,-38.8502 99.4279,-31.8994"/>
</g>
<!-- Node4 -->
<g id="node4" class="node"><title>Node4</title>
<g id="a_node4"><a xlink:href="classpdal_1_1PgWriter.html#ac96f312d6b89daab3653f3072d0a899d" target="_top" xlink:title="pdal::PgWriter::done">
<polygon fill="white" stroke="black" points="153,-0.5 153,-19.5 259,-19.5 259,-0.5 153,-0.5"/>
<text text-anchor="middle" x="206" y="-7.5" font-family="Helvetica,sans-Serif" font-size="10.00">pdal::PgWriter::done</text>
</a>
</g>
</g>
<!-- Node1&#45;&gt;Node4 -->
<g id="edge3" class="edge"><title>Node1&#45;&gt;Node4</title>
<path fill="none" stroke="midnightblue" d="M99.0729,-22.6183C116.454,-20.5478 135.7,-18.2552 152.967,-16.1983"/>
<polygon fill="midnightblue" stroke="midnightblue" points="98.5998,-19.1498 89.0841,-23.8082 99.4279,-26.1006 98.5998,-19.1498"/>
</g>
<!-- Node3 -->
<g id="node3" class="node"><title>Node3</title>
<g id="a_node3"><a xlink:href="classpdal_1_1PgReader.html#ac35533373a500b3d3652f44cea860595" target="_top" xlink:title="pdal::PgReader::done">
<polygon fill="white" stroke="black" points="323,-38.5 323,-57.5 434,-57.5 434,-38.5 323,-38.5"/>
<text text-anchor="middle" x="378.5" y="-45.5" font-family="Helvetica,sans-Serif" font-size="10.00">pdal::PgReader::done</text>
</a>
</g>
</g>
<!-- Node2&#45;&gt;Node3 -->
<g id="edge2" class="edge"><title>Node2&#45;&gt;Node3</title>
<path fill="none" stroke="midnightblue" d="M297.47,-48C306.16,-48 314.778,-48 322.959,-48"/>
<polygon fill="midnightblue" stroke="midnightblue" points="297.257,-44.5001 287.257,-48 297.257,-51.5001 297.257,-44.5001"/>
</g>
</g>
</svg>
