<?xml version="1.0" encoding="UTF-8" standalone="no"?>
<!DOCTYPE svg PUBLIC "-//W3C//DTD SVG 1.1//EN"
 "http://www.w3.org/Graphics/SVG/1.1/DTD/svg11.dtd">
<!-- Generated by graphviz version 2.38.0 (20140413.2041)
 -->
<!-- Title: pdal::eigen::centralDiffY Pages: 1 -->
<svg width="1204pt" height="429pt"
 viewBox="0.00 0.00 1204.00 429.41" xmlns="http://www.w3.org/2000/svg" xmlns:xlink="http://www.w3.org/1999/xlink">
<g id="graph0" class="graph" transform="scale(1 1) rotate(0) translate(4 425.406)">
<title>pdal::eigen::centralDiffY</title>
<polygon fill="white" stroke="none" points="-4,4 -4,-425.406 1200,-425.406 1200,4 -4,4"/>
<!-- Node1 -->
<g id="node1" class="node"><title>Node1</title>
<polygon fill="#bfbfbf" stroke="black" points="0,-183.906 0,-202.906 122,-202.906 122,-183.906 0,-183.906"/>
<text text-anchor="middle" x="61" y="-190.906" font-family="Helvetica,sans-Serif" font-size="10.00">pdal::eigen::centralDiffY</text>
</g>
<!-- Node2 -->
<g id="node2" class="node"><title>Node2</title>
<g id="a_node2"><a xlink:href="namespacepdal_1_1eigen.html#a32c810bf98284fc6082ccccb3f4eedc5" target="_top" xlink:title="pdal::eigen::cleanDSM">
<polygon fill="white" stroke="black" points="174,-360.906 174,-379.906 290,-379.906 290,-360.906 174,-360.906"/>
<text text-anchor="middle" x="232" y="-367.906" font-family="Helvetica,sans-Serif" font-size="10.00">pdal::eigen::cleanDSM</text>
</a>
</g>
</g>
<!-- Node1&#45;&gt;Node2 -->
<g id="edge1" class="edge"><title>Node1&#45;&gt;Node2</title>
<path fill="none" stroke="midnightblue" d="M64.947,-202.979C73.967,-230.625 103.925,-311.168 158,-351.406 160.627,-353.36 163.436,-355.114 166.368,-356.688"/>
<polygon fill="midnightblue" stroke="midnightblue" points="164.925,-359.876 175.471,-360.89 167.859,-353.521 164.925,-359.876"/>
</g>
<!-- Node3 -->
<g id="node3" class="node"><title>Node3</title>
<g id="a_node3"><a xlink:href="namespacepdal_1_1eigen.html#a19247293524a59ec2c829c20fca832f7" target="_top" xlink:title="pdal::eigen::computeRank">
<polygon fill="white" stroke="black" points="166.5,-322.906 166.5,-341.906 297.5,-341.906 297.5,-322.906 166.5,-322.906"/>
<text text-anchor="middle" x="232" y="-329.906" font-family="Helvetica,sans-Serif" font-size="10.00">pdal::eigen::computeRank</text>
</a>
</g>
</g>
<!-- Node1&#45;&gt;Node3 -->
<g id="edge2" class="edge"><title>Node1&#45;&gt;Node3</title>
<path fill="none" stroke="midnightblue" d="M66.7975,-202.917C78.8201,-225.748 112.56,-283.936 158,-313.406 161.152,-315.45 164.514,-317.275 168,-318.903"/>
<polygon fill="midnightblue" stroke="midnightblue" points="166.876,-322.225 177.457,-322.773 169.527,-315.746 166.876,-322.225"/>
</g>
<!-- Node12 -->
<g id="node12" class="node"><title>Node12</title>
<g id="a_node12"><a xlink:href="namespacepdal_1_1eigen.html#a9eb56b77a9f1daac90fe69149299e901" target="_top" xlink:title="pdal::eigen::createMaxMatrix">
<polygon fill="white" stroke="black" points="535.5,-237.906 535.5,-256.906 678.5,-256.906 678.5,-237.906 535.5,-237.906"/>
<text text-anchor="middle" x="607" y="-244.906" font-family="Helvetica,sans-Serif" font-size="10.00">pdal::eigen::createMaxMatrix</text>
</a>
</g>
</g>
<!-- Node1&#45;&gt;Node12 -->
<g id="edge12" class="edge"><title>Node1&#45;&gt;Node12</title>
<path fill="none" stroke="midnightblue" d="M104.828,-203C121.369,-206.411 140.495,-209.998 158,-212.406 285.629,-229.959 435.015,-239.43 524.983,-243.942"/>
<polygon fill="midnightblue" stroke="midnightblue" points="524.955,-247.445 535.115,-244.442 525.3,-240.453 524.955,-247.445"/>
</g>
<!-- Node19 -->
<g id="node19" class="node"><title>Node19</title>
<g id="a_node19"><a xlink:href="namespacepdal_1_1eigen.html#a07e6e0633883fbc9b7c33e7dbaa29b10" target="_top" xlink:title="pdal::eigen::createMaxMatrix2">
<polygon fill="white" stroke="black" points="158,-284.906 158,-303.906 306,-303.906 306,-284.906 158,-284.906"/>
<text text-anchor="middle" x="232" y="-291.906" font-family="Helvetica,sans-Serif" font-size="10.00">pdal::eigen::createMaxMatrix2</text>
</a>
</g>
</g>
<!-- Node1&#45;&gt;Node19 -->
<g id="edge20" class="edge"><title>Node1&#45;&gt;Node19</title>
<path fill="none" stroke="midnightblue" d="M73.1888,-203.129C90.4786,-217.808 125.135,-245.877 158,-264.406 169.19,-270.714 181.974,-276.426 193.684,-281.131"/>
<polygon fill="midnightblue" stroke="midnightblue" points="192.621,-284.473 203.21,-284.838 195.16,-277.95 192.621,-284.473"/>
</g>
<!-- Node22 -->
<g id="node22" class="node"><title>Node22</title>
<g id="a_node22"><a xlink:href="namespacepdal_1_1eigen.html#aa987b7cbf37504e39491b728eb906da3" target="_top" xlink:title="pdal::eigen::createMinMatrix">
<polygon fill="white" stroke="black" points="537,-199.906 537,-218.906 677,-218.906 677,-199.906 537,-199.906"/>
<text text-anchor="middle" x="607" y="-206.906" font-family="Helvetica,sans-Serif" font-size="10.00">pdal::eigen::createMinMatrix</text>
</a>
</g>
</g>
<!-- Node1&#45;&gt;Node22 -->
<g id="edge24" class="edge"><title>Node1&#45;&gt;Node22</title>
<path fill="none" stroke="midnightblue" d="M122.035,-195.171C220.643,-198.072 416.902,-203.844 526.784,-207.076"/>
<polygon fill="midnightblue" stroke="midnightblue" points="526.719,-210.575 536.817,-207.371 526.925,-203.578 526.719,-210.575"/>
</g>
<!-- Node23 -->
<g id="node23" class="node"><title>Node23</title>
<g id="a_node23"><a xlink:href="namespacepdal_1_1eigen.html#a0d6815d7fd34883bed5d5161281f2f90" target="_top" xlink:title="pdal::eigen::dilateDiamond">
<polygon fill="white" stroke="black" points="166,-164.906 166,-183.906 298,-183.906 298,-164.906 166,-164.906"/>
<text text-anchor="middle" x="232" y="-171.906" font-family="Helvetica,sans-Serif" font-size="10.00">pdal::eigen::dilateDiamond</text>
</a>
</g>
</g>
<!-- Node1&#45;&gt;Node23 -->
<g id="edge28" class="edge"><title>Node1&#45;&gt;Node23</title>
<path fill="none" stroke="midnightblue" d="M122.059,-186.653C132.955,-185.429 144.443,-184.137 155.711,-182.87"/>
<polygon fill="midnightblue" stroke="midnightblue" points="156.427,-186.312 165.974,-181.716 155.645,-179.356 156.427,-186.312"/>
</g>
<!-- Node24 -->
<g id="node24" class="node"><title>Node24</title>
<g id="a_node24"><a xlink:href="namespacepdal_1_1eigen.html#a78a0eed5d6753db18fc57da7ce6c2661" target="_top" xlink:title="pdal::eigen::erodeDiamond">
<polygon fill="white" stroke="black" points="165.5,-126.906 165.5,-145.906 298.5,-145.906 298.5,-126.906 165.5,-126.906"/>
<text text-anchor="middle" x="232" y="-133.906" font-family="Helvetica,sans-Serif" font-size="10.00">pdal::eigen::erodeDiamond</text>
</a>
</g>
</g>
<!-- Node1&#45;&gt;Node24 -->
<g id="edge29" class="edge"><title>Node1&#45;&gt;Node24</title>
<path fill="none" stroke="midnightblue" d="M83.8353,-183.876C103.114,-175.677 132.101,-163.867 158,-155.406 165.352,-153.004 173.198,-150.699 180.917,-148.574"/>
<polygon fill="midnightblue" stroke="midnightblue" points="181.828,-151.953 190.582,-145.985 180.017,-145.192 181.828,-151.953"/>
</g>
<!-- Node25 -->
<g id="node25" class="node"><title>Node25</title>
<g id="a_node25"><a xlink:href="namespacepdal_1_1eigen.html#a06de07ba3b8cc9060e3a34d6e3d234d8" target="_top" xlink:title="pdal::eigen::extendedLocal\lMinimum">
<polygon fill="white" stroke="black" points="540.5,-150.406 540.5,-180.406 673.5,-180.406 673.5,-150.406 540.5,-150.406"/>
<text text-anchor="start" x="548.5" y="-168.406" font-family="Helvetica,sans-Serif" font-size="10.00">pdal::eigen::extendedLocal</text>
<text text-anchor="middle" x="607" y="-157.406" font-family="Helvetica,sans-Serif" font-size="10.00">Minimum</text>
</a>
</g>
</g>
<!-- Node1&#45;&gt;Node25 -->
<g id="edge30" class="edge"><title>Node1&#45;&gt;Node25</title>
<path fill="none" stroke="midnightblue" d="M64.6248,-183.511C72.7714,-155.058 100.598,-73.044 158,-41.4057 291.115,31.9632 361.334,-2.97903 499,-67.4057 535.779,-84.6181 568.667,-119.012 587.98,-142.125"/>
<polygon fill="midnightblue" stroke="midnightblue" points="585.431,-144.538 594.463,-150.076 590.856,-140.114 585.431,-144.538"/>
</g>
<!-- Node26 -->
<g id="node26" class="node"><title>Node26</title>
<g id="a_node26"><a xlink:href="namespacepdal_1_1eigen.html#ade2a0efe83a67d121acebd437c4cef8e" target="_top" xlink:title="pdal::eigen::matrixClose">
<polygon fill="white" stroke="black" points="171,-88.9057 171,-107.906 293,-107.906 293,-88.9057 171,-88.9057"/>
<text text-anchor="middle" x="232" y="-95.9057" font-family="Helvetica,sans-Serif" font-size="10.00">pdal::eigen::matrixClose</text>
</a>
</g>
</g>
<!-- Node1&#45;&gt;Node26 -->
<g id="edge34" class="edge"><title>Node1&#45;&gt;Node26</title>
<path fill="none" stroke="midnightblue" d="M71.4082,-183.681C87.5953,-167.512 122.419,-135.129 158,-117.406 162.643,-115.093 167.597,-113.041 172.654,-111.225"/>
<polygon fill="midnightblue" stroke="midnightblue" points="174.039,-114.454 182.453,-108.015 171.86,-107.802 174.039,-114.454"/>
</g>
<!-- Node29 -->
<g id="node29" class="node"><title>Node29</title>
<g id="a_node29"><a xlink:href="namespacepdal_1_1eigen.html#a91aec584e0fc953b3d9309d76efad840" target="_top" xlink:title="pdal::eigen::matrixOpen">
<polygon fill="white" stroke="black" points="172,-50.9057 172,-69.9057 292,-69.9057 292,-50.9057 172,-50.9057"/>
<text text-anchor="middle" x="232" y="-57.9057" font-family="Helvetica,sans-Serif" font-size="10.00">pdal::eigen::matrixOpen</text>
</a>
</g>
</g>
<!-- Node1&#45;&gt;Node29 -->
<g id="edge40" class="edge"><title>Node1&#45;&gt;Node29</title>
<path fill="none" stroke="midnightblue" d="M67.2984,-183.723C79.9181,-161.606 114.013,-107.153 158,-79.4057 161.392,-77.2659 165.017,-75.3662 168.771,-73.6797"/>
<polygon fill="midnightblue" stroke="midnightblue" points="170.294,-76.8413 178.309,-69.9115 167.722,-70.331 170.294,-76.8413"/>
</g>
<!-- Node4 -->
<g id="node4" class="node"><title>Node4</title>
<g id="a_node4"><a xlink:href="namespacepdal_1_1eigen.html#a90d92be03d31009bbd1a4575c766eff0" target="_top" xlink:title="pdal::eigen::computeCovariance">
<polygon fill="white" stroke="black" points="342,-401.906 342,-420.906 499,-420.906 499,-401.906 342,-401.906"/>
<text text-anchor="middle" x="420.5" y="-408.906" font-family="Helvetica,sans-Serif" font-size="10.00">pdal::eigen::computeCovariance</text>
</a>
</g>
</g>
<!-- Node3&#45;&gt;Node4 -->
<g id="edge3" class="edge"><title>Node3&#45;&gt;Node4</title>
<path fill="none" stroke="midnightblue" d="M285.618,-342.029C292.752,-344.483 299.757,-347.557 306,-351.406 326.643,-364.131 321.268,-379.827 342,-392.406 345.598,-394.588 349.433,-396.521 353.398,-398.231"/>
<polygon fill="midnightblue" stroke="midnightblue" points="352.246,-401.537 362.837,-401.833 354.742,-394.998 352.246,-401.537"/>
</g>
<!-- Node5 -->
<g id="node5" class="node"><title>Node5</title>
<g id="a_node5"><a xlink:href="namespacepdal_1_1eigen.html#a77a9913ed3d09f4d6105909e8ad4a5e5" target="_top" xlink:title="pdal::eigen::computeCentroid">
<polygon fill="white" stroke="black" points="535,-363.906 535,-382.906 679,-382.906 679,-363.906 535,-363.906"/>
<text text-anchor="middle" x="607" y="-370.906" font-family="Helvetica,sans-Serif" font-size="10.00">pdal::eigen::computeCentroid</text>
</a>
</g>
</g>
<!-- Node4&#45;&gt;Node5 -->
<g id="edge4" class="edge"><title>Node4&#45;&gt;Node5</title>
<path fill="none" stroke="midnightblue" d="M468.057,-401.817C492.843,-396.712 523.515,-390.394 549.639,-385.014"/>
<polygon fill="midnightblue" stroke="midnightblue" points="550.689,-388.371 559.778,-382.926 549.277,-381.515 550.689,-388.371"/>
</g>
<!-- Node6 -->
<g id="node6" class="node"><title>Node6</title>
<g id="a_node6"><a xlink:href="classpdal_1_1PointView.html#a4c594a6d2a469e594988194ccf125a15" target="_top" xlink:title="pdal::PointView::getFieldAs">
<polygon fill="white" stroke="black" points="715,-281.906 715,-300.906 852,-300.906 852,-281.906 715,-281.906"/>
<text text-anchor="middle" x="783.5" y="-288.906" font-family="Helvetica,sans-Serif" font-size="10.00">pdal::PointView::getFieldAs</text>
</a>
</g>
</g>
<!-- Node4&#45;&gt;Node6 -->
<g id="edge11" class="edge"><title>Node4&#45;&gt;Node6</title>
<path fill="none" stroke="midnightblue" d="M499.246,-419.217C552.182,-421.358 622.602,-417.823 679,-392.406 719.212,-374.283 752.975,-333.469 770.203,-309.642"/>
<polygon fill="midnightblue" stroke="midnightblue" points="773.287,-311.34 776.166,-301.144 767.557,-307.32 773.287,-311.34"/>
</g>
<!-- Node5&#45;&gt;Node6 -->
<g id="edge5" class="edge"><title>Node5&#45;&gt;Node6</title>
<path fill="none" stroke="midnightblue" d="M640.29,-363.885C652.599,-359.895 666.635,-354.903 679,-349.406 707.399,-336.779 738.278,-318.887 758.847,-306.323"/>
<polygon fill="midnightblue" stroke="midnightblue" points="760.856,-309.196 767.526,-300.964 757.178,-303.24 760.856,-309.196"/>
</g>
<!-- Node7 -->
<g id="node7" class="node"><title>Node7</title>
<g id="a_node7"><a xlink:href="namespacepdal_1_1Dimension.html#acc41232ae1e707d6c928ffb9a56592d3" target="_top" xlink:title="pdal::Dimension::interpretationName">
<polygon fill="white" stroke="black" points="888,-357.906 888,-376.906 1064,-376.906 1064,-357.906 888,-357.906"/>
<text text-anchor="middle" x="976" y="-364.906" font-family="Helvetica,sans-Serif" font-size="10.00">pdal::Dimension::interpretationName</text>
</a>
</g>
</g>
<!-- Node6&#45;&gt;Node7 -->
<g id="edge6" class="edge"><title>Node6&#45;&gt;Node7</title>
<path fill="none" stroke="midnightblue" d="M798.603,-300.908C817.955,-313.532 854.201,-335.714 888,-348.406 894.944,-351.013 902.341,-353.311 909.777,-355.323"/>
<polygon fill="midnightblue" stroke="midnightblue" points="908.986,-358.733 919.54,-357.805 910.711,-351.949 908.986,-358.733"/>
</g>
<!-- Node8 -->
<g id="node8" class="node"><title>Node8</title>
<g id="a_node8"><a xlink:href="namespacepdal_1_1Dimension.html#af3176b0b7e6b4be000317846cf7c2718" target="_top" xlink:title="pdal::Dimension::name">
<polygon fill="white" stroke="black" points="917.5,-319.906 917.5,-338.906 1034.5,-338.906 1034.5,-319.906 917.5,-319.906"/>
<text text-anchor="middle" x="976" y="-326.906" font-family="Helvetica,sans-Serif" font-size="10.00">pdal::Dimension::name</text>
</a>
</g>
</g>
<!-- Node6&#45;&gt;Node8 -->
<g id="edge7" class="edge"><title>Node6&#45;&gt;Node8</title>
<path fill="none" stroke="midnightblue" d="M832.571,-300.995C858.276,-306.122 890.113,-312.473 917.164,-317.869"/>
<polygon fill="midnightblue" stroke="midnightblue" points="916.783,-321.362 927.274,-319.886 918.152,-314.497 916.783,-321.362"/>
</g>
<!-- Node9 -->
<g id="node9" class="node"><title>Node9</title>
<g id="a_node9"><a xlink:href="namespacepdal_1_1Utils.html#a33d614ac71aa03aaa5c10a242c4d14ac" target="_top" xlink:title="pdal::Utils::numericCast">
<polygon fill="white" stroke="black" points="915,-281.906 915,-300.906 1037,-300.906 1037,-281.906 915,-281.906"/>
<text text-anchor="middle" x="976" y="-288.906" font-family="Helvetica,sans-Serif" font-size="10.00">pdal::Utils::numericCast</text>
</a>
</g>
</g>
<!-- Node6&#45;&gt;Node9 -->
<g id="edge8" class="edge"><title>Node6&#45;&gt;Node9</title>
<path fill="none" stroke="midnightblue" d="M852.2,-291.406C869.115,-291.406 887.299,-291.406 904.353,-291.406"/>
<polygon fill="midnightblue" stroke="midnightblue" points="904.804,-294.906 914.804,-291.406 904.804,-287.906 904.804,-294.906"/>
</g>
<!-- Node11 -->
<g id="node11" class="node"><title>Node11</title>
<g id="a_node11"><a xlink:href="classpdal_1_1Dimension_1_1Detail.html#adf5961976b7fce3d90a0dddd50519a7c" target="_top" xlink:title="pdal::Dimension::Detail\l::type">
<polygon fill="white" stroke="black" points="916.5,-232.406 916.5,-262.406 1035.5,-262.406 1035.5,-232.406 916.5,-232.406"/>
<text text-anchor="start" x="924.5" y="-250.406" font-family="Helvetica,sans-Serif" font-size="10.00">pdal::Dimension::Detail</text>
<text text-anchor="middle" x="976" y="-239.406" font-family="Helvetica,sans-Serif" font-size="10.00">::type</text>
</a>
</g>
</g>
<!-- Node6&#45;&gt;Node11 -->
<g id="edge10" class="edge"><title>Node6&#45;&gt;Node11</title>
<path fill="none" stroke="midnightblue" d="M825.836,-281.858C849.421,-276.411 879.582,-269.444 906.604,-263.203"/>
<polygon fill="midnightblue" stroke="midnightblue" points="907.443,-266.602 916.399,-260.941 905.868,-259.781 907.443,-266.602"/>
</g>
<!-- Node10 -->
<g id="node10" class="node"><title>Node10</title>
<g id="a_node10"><a xlink:href="namespacepdal_1_1Utils.html#a06833597f1fc4287966cfa0867128e59" target="_top" xlink:title="pdal::Utils::sround">
<polygon fill="white" stroke="black" points="1100,-281.906 1100,-300.906 1196,-300.906 1196,-281.906 1100,-281.906"/>
<text text-anchor="middle" x="1148" y="-288.906" font-family="Helvetica,sans-Serif" font-size="10.00">pdal::Utils::sround</text>
</a>
</g>
</g>
<!-- Node9&#45;&gt;Node10 -->
<g id="edge9" class="edge"><title>Node9&#45;&gt;Node10</title>
<path fill="none" stroke="midnightblue" d="M1037.41,-291.406C1054.41,-291.406 1072.83,-291.406 1089.64,-291.406"/>
<polygon fill="midnightblue" stroke="midnightblue" points="1089.87,-294.906 1099.87,-291.406 1089.87,-287.906 1089.87,-294.906"/>
</g>
<!-- Node12&#45;&gt;Node6 -->
<g id="edge14" class="edge"><title>Node12&#45;&gt;Node6</title>
<path fill="none" stroke="midnightblue" d="M645.864,-256.953C671.932,-263.526 706.77,-272.31 734.744,-279.364"/>
<polygon fill="midnightblue" stroke="midnightblue" points="734.158,-282.826 744.71,-281.877 735.869,-276.038 734.158,-282.826"/>
</g>
<!-- Node13 -->
<g id="node13" class="node"><title>Node13</title>
<g id="a_node13"><a xlink:href="classpdal_1_1PointView.html#a4c2fba9b5d7a61f19a558bb08405555d" target="_top" xlink:title="pdal::PointView::size">
<polygon fill="white" stroke="black" points="729,-218.906 729,-237.906 838,-237.906 838,-218.906 729,-218.906"/>
<text text-anchor="middle" x="783.5" y="-225.906" font-family="Helvetica,sans-Serif" font-size="10.00">pdal::PointView::size</text>
</a>
</g>
</g>
<!-- Node12&#45;&gt;Node13 -->
<g id="edge13" class="edge"><title>Node12&#45;&gt;Node13</title>
<path fill="none" stroke="midnightblue" d="M678.724,-239.705C691.919,-238.268 705.637,-236.775 718.611,-235.362"/>
<polygon fill="midnightblue" stroke="midnightblue" points="719.27,-238.811 728.832,-234.249 718.512,-231.852 719.27,-238.811"/>
</g>
<!-- Node14 -->
<g id="node14" class="node"><title>Node14</title>
<g id="a_node14"><a xlink:href="namespacepdal_1_1Utils.html#af9895f466e24147ed204408cc271579d" target="_top" xlink:title="Clamp value to given bounds. ">
<polygon fill="white" stroke="black" points="737,-155.906 737,-174.906 830,-174.906 830,-155.906 737,-155.906"/>
<text text-anchor="middle" x="783.5" y="-162.906" font-family="Helvetica,sans-Serif" font-size="10.00">pdal::Utils::clamp</text>
</a>
</g>
</g>
<!-- Node12&#45;&gt;Node14 -->
<g id="edge15" class="edge"><title>Node12&#45;&gt;Node14</title>
<path fill="none" stroke="midnightblue" d="M651.468,-237.881C660.723,-235.273 670.318,-232.119 679,-228.406 695.106,-221.518 734.062,-196.927 759.32,-180.584"/>
<polygon fill="midnightblue" stroke="midnightblue" points="761.46,-183.367 767.938,-174.983 757.645,-177.497 761.46,-183.367"/>
</g>
<!-- Node15 -->
<g id="node15" class="node"><title>Node15</title>
<g id="a_node15"><a xlink:href="namespacepdal_1_1Utils.html#ad02787dce6b6f45473604bc9fe7e9c10" target="_top" xlink:title="pdal::Utils::random_seed">
<polygon fill="white" stroke="black" points="913.5,-193.906 913.5,-212.906 1038.5,-212.906 1038.5,-193.906 913.5,-193.906"/>
<text text-anchor="middle" x="976" y="-200.906" font-family="Helvetica,sans-Serif" font-size="10.00">pdal::Utils::random_seed</text>
</a>
</g>
</g>
<!-- Node14&#45;&gt;Node15 -->
<g id="edge16" class="edge"><title>Node14&#45;&gt;Node15</title>
<path fill="none" stroke="midnightblue" d="M830.129,-174.508C856.207,-179.709 889.168,-186.284 917.06,-191.848"/>
<polygon fill="midnightblue" stroke="midnightblue" points="916.593,-195.324 927.084,-193.848 917.962,-188.459 916.593,-195.324"/>
</g>
<!-- Node16 -->
<g id="node16" class="node"><title>Node16</title>
<g id="a_node16"><a xlink:href="namespacepdal_1_1Utils.html#ae307965bf4f08edcc45fbe8599c0eddc" target="_top" xlink:title="pdal::Utils::random">
<polygon fill="white" stroke="black" points="926.5,-155.906 926.5,-174.906 1025.5,-174.906 1025.5,-155.906 926.5,-155.906"/>
<text text-anchor="middle" x="976" y="-162.906" font-family="Helvetica,sans-Serif" font-size="10.00">pdal::Utils::random</text>
</a>
</g>
</g>
<!-- Node14&#45;&gt;Node16 -->
<g id="edge17" class="edge"><title>Node14&#45;&gt;Node16</title>
<path fill="none" stroke="midnightblue" d="M830.129,-165.406C855.897,-165.406 888.386,-165.406 916.065,-165.406"/>
<polygon fill="midnightblue" stroke="midnightblue" points="916.413,-168.906 926.413,-165.406 916.413,-161.906 916.413,-168.906"/>
</g>
<!-- Node17 -->
<g id="node17" class="node"><title>Node17</title>
<g id="a_node17"><a xlink:href="namespacepdal_1_1Utils.html#ae21c6270b839374408725a65e3dcd4b1" target="_top" xlink:title="pdal::Utils::uniform">
<polygon fill="white" stroke="black" points="926.5,-117.906 926.5,-136.906 1025.5,-136.906 1025.5,-117.906 926.5,-117.906"/>
<text text-anchor="middle" x="976" y="-124.906" font-family="Helvetica,sans-Serif" font-size="10.00">pdal::Utils::uniform</text>
</a>
</g>
</g>
<!-- Node14&#45;&gt;Node17 -->
<g id="edge18" class="edge"><title>Node14&#45;&gt;Node17</title>
<path fill="none" stroke="midnightblue" d="M830.129,-156.304C856.207,-151.102 889.168,-144.527 917.06,-138.963"/>
<polygon fill="midnightblue" stroke="midnightblue" points="917.962,-142.352 927.084,-136.964 916.593,-135.488 917.962,-142.352"/>
</g>
<!-- Node18 -->
<g id="node18" class="node"><title>Node18</title>
<g id="a_node18"><a xlink:href="namespacepdal_1_1Utils.html#a811546a69a0e444b3060f63ae4a797c7" target="_top" xlink:title="pdal::Utils::normal">
<polygon fill="white" stroke="black" points="928,-79.9057 928,-98.9057 1024,-98.9057 1024,-79.9057 928,-79.9057"/>
<text text-anchor="middle" x="976" y="-86.9057" font-family="Helvetica,sans-Serif" font-size="10.00">pdal::Utils::normal</text>
</a>
</g>
</g>
<!-- Node14&#45;&gt;Node18 -->
<g id="edge19" class="edge"><title>Node14&#45;&gt;Node18</title>
<path fill="none" stroke="midnightblue" d="M798.603,-155.904C817.955,-143.279 854.201,-121.097 888,-108.406 897.444,-104.86 907.726,-101.887 917.805,-99.4254"/>
<polygon fill="midnightblue" stroke="midnightblue" points="918.816,-102.784 927.777,-97.1323 917.247,-95.9623 918.816,-102.784"/>
</g>
<!-- Node19&#45;&gt;Node6 -->
<g id="edge23" class="edge"><title>Node19&#45;&gt;Node6</title>
<path fill="none" stroke="midnightblue" d="M277.858,-303.913C297.455,-307.627 320.767,-311.458 342,-313.406 491.154,-327.087 530.191,-332.433 679,-315.406 699.256,-313.088 721.315,-308.298 739.843,-303.602"/>
<polygon fill="midnightblue" stroke="midnightblue" points="740.948,-306.931 749.74,-301.019 739.18,-300.158 740.948,-306.931"/>
</g>
<!-- Node20 -->
<g id="node20" class="node"><title>Node20</title>
<g id="a_node20"><a xlink:href="classpdal_1_1KDIndex.html#ad179eda54c39330a0e06ec2bebee9c26" target="_top" xlink:title="pdal::KDIndex::build">
<polygon fill="white" stroke="black" points="368,-284.906 368,-303.906 473,-303.906 473,-284.906 368,-284.906"/>
<text text-anchor="middle" x="420.5" y="-291.906" font-family="Helvetica,sans-Serif" font-size="10.00">pdal::KDIndex::build</text>
</a>
</g>
</g>
<!-- Node19&#45;&gt;Node20 -->
<g id="edge21" class="edge"><title>Node19&#45;&gt;Node20</title>
<path fill="none" stroke="midnightblue" d="M306.174,-294.406C323.245,-294.406 341.258,-294.406 357.776,-294.406"/>
<polygon fill="midnightblue" stroke="midnightblue" points="357.845,-297.906 367.845,-294.406 357.845,-290.906 357.845,-297.906"/>
</g>
<!-- Node21 -->
<g id="node21" class="node"><title>Node21</title>
<g id="a_node21"><a xlink:href="classpdal_1_1KD2Index.html#a2edc070bb35fc19188076794b7d742e0" target="_top" xlink:title="pdal::KD2Index::radius">
<polygon fill="white" stroke="black" points="362.5,-363.906 362.5,-382.906 478.5,-382.906 478.5,-363.906 362.5,-363.906"/>
<text text-anchor="middle" x="420.5" y="-370.906" font-family="Helvetica,sans-Serif" font-size="10.00">pdal::KD2Index::radius</text>
</a>
</g>
</g>
<!-- Node19&#45;&gt;Node21 -->
<g id="edge22" class="edge"><title>Node19&#45;&gt;Node21</title>
<path fill="none" stroke="midnightblue" d="M284.243,-304.023C291.803,-306.488 299.295,-309.566 306,-313.406 325.636,-324.649 322.626,-337.717 342,-349.406 349.368,-353.851 357.633,-357.541 365.948,-360.584"/>
<polygon fill="midnightblue" stroke="midnightblue" points="365.086,-363.987 375.68,-363.865 367.322,-357.354 365.086,-363.987"/>
</g>
<!-- Node22&#45;&gt;Node6 -->
<g id="edge26" class="edge"><title>Node22&#45;&gt;Node6</title>
<path fill="none" stroke="midnightblue" d="M651.468,-218.931C660.723,-221.539 670.318,-224.693 679,-228.406 695.106,-235.294 734.062,-259.884 759.32,-276.228"/>
<polygon fill="midnightblue" stroke="midnightblue" points="757.645,-279.314 767.938,-281.828 761.46,-273.444 757.645,-279.314"/>
</g>
<!-- Node22&#45;&gt;Node13 -->
<g id="edge25" class="edge"><title>Node22&#45;&gt;Node13</title>
<path fill="none" stroke="midnightblue" d="M677.218,-216.942C690.942,-218.437 705.289,-219.999 718.819,-221.472"/>
<polygon fill="midnightblue" stroke="midnightblue" points="718.662,-224.975 728.982,-222.579 719.42,-218.017 718.662,-224.975"/>
</g>
<!-- Node22&#45;&gt;Node14 -->
<g id="edge27" class="edge"><title>Node22&#45;&gt;Node14</title>
<path fill="none" stroke="midnightblue" d="M645.864,-199.858C671.932,-193.285 706.77,-184.501 734.744,-177.447"/>
<polygon fill="midnightblue" stroke="midnightblue" points="735.869,-180.773 744.71,-174.934 734.158,-173.986 735.869,-180.773"/>
</g>
<!-- Node25&#45;&gt;Node6 -->
<g id="edge32" class="edge"><title>Node25&#45;&gt;Node6</title>
<path fill="none" stroke="midnightblue" d="M663.096,-180.532C668.765,-183.312 674.197,-186.577 679,-190.406 702.429,-209.083 693.966,-226.067 715,-247.406 726.379,-258.949 741.286,-269.058 754.197,-276.665"/>
<polygon fill="midnightblue" stroke="midnightblue" points="752.739,-279.862 763.165,-281.747 756.19,-273.772 752.739,-279.862"/>
</g>
<!-- Node25&#45;&gt;Node13 -->
<g id="edge31" class="edge"><title>Node25&#45;&gt;Node13</title>
<path fill="none" stroke="midnightblue" d="M651.211,-180.518C660.392,-183.757 670.023,-187.177 679,-190.406 701.651,-198.551 727.023,-207.864 746.978,-215.231"/>
<polygon fill="midnightblue" stroke="midnightblue" points="745.995,-218.599 756.588,-218.784 748.422,-212.034 745.995,-218.599"/>
</g>
<!-- Node25&#45;&gt;Node14 -->
<g id="edge33" class="edge"><title>Node25&#45;&gt;Node14</title>
<path fill="none" stroke="midnightblue" d="M673.971,-165.406C691.315,-165.406 709.854,-165.406 726.612,-165.406"/>
<polygon fill="midnightblue" stroke="midnightblue" points="726.789,-168.906 736.789,-165.406 726.789,-161.906 726.789,-168.906"/>
</g>
<!-- Node26&#45;&gt;Node14 -->
<g id="edge39" class="edge"><title>Node26&#45;&gt;Node14</title>
<path fill="none" stroke="midnightblue" d="M293.349,-103.011C397.407,-111.132 606.412,-128.285 679,-140.406 698.692,-143.694 720.189,-148.657 738.464,-153.297"/>
<polygon fill="midnightblue" stroke="midnightblue" points="737.696,-156.713 748.254,-155.828 739.449,-149.936 737.696,-156.713"/>
</g>
<!-- Node27 -->
<g id="node27" class="node"><title>Node27</title>
<g id="a_node27"><a xlink:href="namespacepdal_1_1eigen.html#a4aae1c885fc7ff09ed79b410d0021957" target="_top" xlink:title="pdal::eigen::padMatrix">
<polygon fill="white" stroke="black" points="364,-76.9057 364,-95.9057 477,-95.9057 477,-76.9057 364,-76.9057"/>
<text text-anchor="middle" x="420.5" y="-83.9057" font-family="Helvetica,sans-Serif" font-size="10.00">pdal::eigen::padMatrix</text>
</a>
</g>
</g>
<!-- Node26&#45;&gt;Node27 -->
<g id="edge35" class="edge"><title>Node26&#45;&gt;Node27</title>
<path fill="none" stroke="midnightblue" d="M293.036,-94.5428C312.351,-93.3 333.852,-91.9166 353.566,-90.6481"/>
<polygon fill="midnightblue" stroke="midnightblue" points="353.937,-94.1315 363.692,-89.9966 353.488,-87.146 353.937,-94.1315"/>
</g>
<!-- Node28 -->
<g id="node28" class="node"><title>Node28</title>
<g id="a_node28"><a xlink:href="namespacepdal_1_1eigen.html#a8cca9caad55d997fe9e961272c2cea8c" target="_top" xlink:title="pdal::eigen::pointViewTo\lEigen">
<polygon fill="white" stroke="black" points="545,-276.406 545,-306.406 669,-306.406 669,-276.406 545,-276.406"/>
<text text-anchor="start" x="553" y="-294.406" font-family="Helvetica,sans-Serif" font-size="10.00">pdal::eigen::pointViewTo</text>
<text text-anchor="middle" x="607" y="-283.406" font-family="Helvetica,sans-Serif" font-size="10.00">Eigen</text>
</a>
</g>
</g>
<!-- Node27&#45;&gt;Node28 -->
<g id="edge36" class="edge"><title>Node27&#45;&gt;Node28</title>
<path fill="none" stroke="midnightblue" d="M424.98,-96.2013C436.117,-126.173 473.775,-217.562 535,-266.406 537.251,-268.201 539.64,-269.873 542.127,-271.429"/>
<polygon fill="midnightblue" stroke="midnightblue" points="540.457,-274.505 550.901,-276.283 543.846,-268.38 540.457,-274.505"/>
</g>
<!-- Node28&#45;&gt;Node6 -->
<g id="edge38" class="edge"><title>Node28&#45;&gt;Node6</title>
<path fill="none" stroke="midnightblue" d="M669.032,-291.406C680.626,-291.406 692.901,-291.406 704.928,-291.406"/>
<polygon fill="midnightblue" stroke="midnightblue" points="704.952,-294.906 714.952,-291.406 704.952,-287.906 704.952,-294.906"/>
</g>
<!-- Node28&#45;&gt;Node13 -->
<g id="edge37" class="edge"><title>Node28&#45;&gt;Node13</title>
<path fill="none" stroke="midnightblue" d="M651.211,-276.294C660.392,-273.054 670.023,-269.634 679,-266.406 701.651,-258.26 727.023,-248.948 746.978,-241.58"/>
<polygon fill="midnightblue" stroke="midnightblue" points="748.422,-244.778 756.588,-238.028 745.995,-238.212 748.422,-244.778"/>
</g>
<!-- Node29&#45;&gt;Node14 -->
<g id="edge42" class="edge"><title>Node29&#45;&gt;Node14</title>
<path fill="none" stroke="midnightblue" d="M292.038,-57.5936C346.208,-56.0442 428.497,-56.2932 499,-67.4057 581.379,-80.39 600.61,-91.9474 679,-120.406 704.598,-129.699 732.909,-142.165 753.441,-151.62"/>
<polygon fill="midnightblue" stroke="midnightblue" points="752.026,-154.822 762.57,-155.861 754.975,-148.474 752.026,-154.822"/>
</g>
<!-- Node29&#45;&gt;Node27 -->
<g id="edge41" class="edge"><title>Node29&#45;&gt;Node27</title>
<path fill="none" stroke="midnightblue" d="M292.01,-68.6322C311.638,-71.3686 333.616,-74.4325 353.723,-77.2357"/>
<polygon fill="midnightblue" stroke="midnightblue" points="353.346,-80.7169 363.733,-78.6312 354.312,-73.7839 353.346,-80.7169"/>
</g>
</g>
</svg>
