<?xml version="1.0" encoding="UTF-8" standalone="no"?>
<!DOCTYPE svg PUBLIC "-//W3C//DTD SVG 1.1//EN"
 "http://www.w3.org/Graphics/SVG/1.1/DTD/svg11.dtd">
<!-- Generated by graphviz version 2.38.0 (20140413.2041)
 -->
<!-- Title: pdal::eigen::centralDiffX2 Pages: 1 -->
<svg width="401pt" height="180pt"
 viewBox="0.00 0.00 401.00 180.00" xmlns="http://www.w3.org/2000/svg" xmlns:xlink="http://www.w3.org/1999/xlink">
<g id="graph0" class="graph" transform="scale(1 1) rotate(0) translate(4 176)">
<title>pdal::eigen::centralDiffX2</title>
<polygon fill="white" stroke="none" points="-4,4 -4,-176 397,-176 397,4 -4,4"/>
<!-- Node1 -->
<g id="node1" class="node"><title>Node1</title>
<polygon fill="#bfbfbf" stroke="black" points="0,-76.5 0,-95.5 127,-95.5 127,-76.5 0,-76.5"/>
<text text-anchor="middle" x="63.5" y="-83.5" font-family="Helvetica,sans-Serif" font-size="10.00">pdal::eigen::centralDiffX2</text>
</g>
<!-- Node2 -->
<g id="node2" class="node"><title>Node2</title>
<g id="a_node2"><a xlink:href="namespacepdal_1_1eigen.html#a8a54867810b638e4b6b64fd1804f00c8" target="_top" xlink:title="pdal::eigen::computeContour">
<polygon fill="white" stroke="black" points="168,-152.5 168,-171.5 310,-171.5 310,-152.5 168,-152.5"/>
<text text-anchor="middle" x="239" y="-159.5" font-family="Helvetica,sans-Serif" font-size="10.00">pdal::eigen::computeContour</text>
</a>
</g>
</g>
<!-- Node1&#45;&gt;Node2 -->
<g id="edge1" class="edge"><title>Node1&#45;&gt;Node2</title>
<path fill="none" stroke="midnightblue" d="M89.3213,-100.671C108.891,-111.851 137.108,-127.122 163,-138 176.108,-143.507 190.944,-148.5 203.94,-152.489"/>
<polygon fill="midnightblue" stroke="midnightblue" points="90.8665,-97.5221 80.4569,-95.5494 87.3643,-103.583 90.8665,-97.5221"/>
</g>
<!-- Node3 -->
<g id="node3" class="node"><title>Node3</title>
<g id="a_node3"><a xlink:href="EigenTest_8cpp.html#a117227755b8d6760a72ff7d416bd094f" target="_top" xlink:title="TEST">
<polygon fill="white" stroke="black" points="351,-76.5 351,-95.5 393,-95.5 393,-76.5 351,-76.5"/>
<text text-anchor="middle" x="372" y="-83.5" font-family="Helvetica,sans-Serif" font-size="10.00">TEST</text>
</a>
</g>
</g>
<!-- Node1&#45;&gt;Node3 -->
<g id="edge9" class="edge"><title>Node1&#45;&gt;Node3</title>
<path fill="none" stroke="midnightblue" d="M114.405,-97.538C129.89,-100.601 147.072,-103.478 163,-105 230.249,-111.427 248.346,-115.999 315,-105 327.257,-102.977 340.438,-98.6221 350.931,-94.5911"/>
<polygon fill="midnightblue" stroke="midnightblue" points="115.004,-94.088 104.505,-95.5106 113.599,-100.946 115.004,-94.088"/>
</g>
<!-- Node4 -->
<g id="node4" class="node"><title>Node4</title>
<g id="a_node4"><a xlink:href="namespacepdal_1_1eigen.html#ae3c73acb88d80a9f0428c980b05863d4" target="_top" xlink:title="pdal::eigen::computeProfile">
<polygon fill="white" stroke="black" points="171.5,-76.5 171.5,-95.5 306.5,-95.5 306.5,-76.5 171.5,-76.5"/>
<text text-anchor="middle" x="239" y="-83.5" font-family="Helvetica,sans-Serif" font-size="10.00">pdal::eigen::computeProfile</text>
</a>
</g>
</g>
<!-- Node1&#45;&gt;Node4 -->
<g id="edge3" class="edge"><title>Node1&#45;&gt;Node4</title>
<path fill="none" stroke="midnightblue" d="M137.374,-86C148.642,-86 160.232,-86 171.355,-86"/>
<polygon fill="midnightblue" stroke="midnightblue" points="137.138,-82.5001 127.137,-86 137.137,-89.5001 137.138,-82.5001"/>
</g>
<!-- Node5 -->
<g id="node5" class="node"><title>Node5</title>
<g id="a_node5"><a xlink:href="namespacepdal_1_1eigen.html#a28f0bb391554d5ee42aa5b3f100e833d" target="_top" xlink:title="pdal::eigen::computeTangential">
<polygon fill="white" stroke="black" points="163,-38.5 163,-57.5 315,-57.5 315,-38.5 163,-38.5"/>
<text text-anchor="middle" x="239" y="-45.5" font-family="Helvetica,sans-Serif" font-size="10.00">pdal::eigen::computeTangential</text>
</a>
</g>
</g>
<!-- Node1&#45;&gt;Node5 -->
<g id="edge5" class="edge"><title>Node1&#45;&gt;Node5</title>
<path fill="none" stroke="midnightblue" d="M118.16,-74.2474C142.693,-68.8742 171.379,-62.5914 194.533,-57.5201"/>
<polygon fill="midnightblue" stroke="midnightblue" points="117.301,-70.8525 108.281,-76.411 118.799,-77.6904 117.301,-70.8525"/>
</g>
<!-- Node6 -->
<g id="node6" class="node"><title>Node6</title>
<g id="a_node6"><a xlink:href="namespacepdal_1_1eigen.html#a6a9d9166667216e6ed08d4d0a03e1bf6" target="_top" xlink:title="pdal::eigen::computeTotal">
<polygon fill="white" stroke="black" points="174.5,-0.5 174.5,-19.5 303.5,-19.5 303.5,-0.5 174.5,-0.5"/>
<text text-anchor="middle" x="239" y="-7.5" font-family="Helvetica,sans-Serif" font-size="10.00">pdal::eigen::computeTotal</text>
</a>
</g>
</g>
<!-- Node1&#45;&gt;Node6 -->
<g id="edge7" class="edge"><title>Node1&#45;&gt;Node6</title>
<path fill="none" stroke="midnightblue" d="M86.643,-70.7913C106.032,-58.0705 135.352,-40.2474 163,-29 172.083,-25.3052 182.084,-22.1726 191.741,-19.582"/>
<polygon fill="midnightblue" stroke="midnightblue" points="84.6026,-67.9451 78.2241,-76.4048 88.4859,-73.7692 84.6026,-67.9451"/>
</g>
<!-- Node2&#45;&gt;Node3 -->
<g id="edge2" class="edge"><title>Node2&#45;&gt;Node3</title>
<path fill="none" stroke="midnightblue" d="M290.56,-149.193C298.999,-146.117 307.454,-142.412 315,-138 334.471,-126.617 352.777,-107.421 362.879,-95.8084"/>
<polygon fill="midnightblue" stroke="midnightblue" points="289.435,-145.878 281.087,-152.403 291.682,-152.508 289.435,-145.878"/>
</g>
<!-- Node4&#45;&gt;Node3 -->
<g id="edge4" class="edge"><title>Node4&#45;&gt;Node3</title>
<path fill="none" stroke="midnightblue" d="M316.841,-86C329.439,-86 341.459,-86 350.961,-86"/>
<polygon fill="midnightblue" stroke="midnightblue" points="316.651,-82.5001 306.651,-86 316.651,-89.5001 316.651,-82.5001"/>
</g>
<!-- Node5&#45;&gt;Node3 -->
<g id="edge6" class="edge"><title>Node5&#45;&gt;Node3</title>
<path fill="none" stroke="midnightblue" d="M289.961,-60.0707C298.351,-62.2653 306.946,-64.6175 315,-67 327.011,-70.5529 340.292,-75.0345 350.905,-78.7528"/>
<polygon fill="midnightblue" stroke="midnightblue" points="290.807,-56.6744 280.25,-57.5745 289.064,-63.454 290.807,-56.6744"/>
</g>
<!-- Node6&#45;&gt;Node3 -->
<g id="edge8" class="edge"><title>Node6&#45;&gt;Node3</title>
<path fill="none" stroke="midnightblue" d="M302.628,-23.0268C306.925,-24.7764 311.094,-26.7575 315,-29 336.174,-41.1567 354.703,-63.5394 364.215,-76.3413"/>
<polygon fill="midnightblue" stroke="midnightblue" points="303.664,-19.6796 293.07,-19.5548 301.274,-26.259 303.664,-19.6796"/>
</g>
</g>
</svg>
