<?xml version="1.0" encoding="UTF-8" standalone="no"?>
<!DOCTYPE svg PUBLIC "-//W3C//DTD SVG 1.1//EN"
 "http://www.w3.org/Graphics/SVG/1.1/DTD/svg11.dtd">
<!-- Generated by graphviz version 2.38.0 (20140413.2041)
 -->
<!-- Title: pdal::operator&gt;&gt; Pages: 1 -->
<svg width="1054pt" height="104pt"
 viewBox="0.00 0.00 1054.00 104.00" xmlns="http://www.w3.org/2000/svg" xmlns:xlink="http://www.w3.org/1999/xlink">
<g id="graph0" class="graph" transform="scale(1 1) rotate(0) translate(4 100)">
<title>pdal::operator&gt;&gt;</title>
<polygon fill="white" stroke="none" points="-4,4 -4,-100 1050,-100 1050,4 -4,4"/>
<!-- Node1 -->
<g id="node1" class="node"><title>Node1</title>
<polygon fill="#bfbfbf" stroke="black" points="0,-19.5 0,-38.5 88,-38.5 88,-19.5 0,-19.5"/>
<text text-anchor="middle" x="44" y="-26.5" font-family="Helvetica,sans-Serif" font-size="10.00">pdal::operator&gt;&gt;</text>
</g>
<!-- Node2 -->
<g id="node2" class="node"><title>Node2</title>
<g id="a_node2"><a xlink:href="classpdal_1_1SpatialReference.html#a703ac7b3efc133deb36ad56416284ba7" target="_top" xlink:title="pdal::SpatialReference::set">
<polygon fill="white" stroke="black" points="124,-19.5 124,-38.5 259,-38.5 259,-19.5 124,-19.5"/>
<text text-anchor="middle" x="191.5" y="-26.5" font-family="Helvetica,sans-Serif" font-size="10.00">pdal::SpatialReference::set</text>
</a>
</g>
</g>
<!-- Node1&#45;&gt;Node2 -->
<g id="edge1" class="edge"><title>Node1&#45;&gt;Node2</title>
<path fill="none" stroke="midnightblue" d="M88.2609,-29C96.3288,-29 104.979,-29 113.707,-29"/>
<polygon fill="midnightblue" stroke="midnightblue" points="113.959,-32.5001 123.959,-29 113.959,-25.5001 113.959,-32.5001"/>
</g>
<!-- Node3 -->
<g id="node3" class="node"><title>Node3</title>
<g id="a_node3"><a xlink:href="namespacepdal_1_1FileUtils.html#a183613921413dc5f8fe3efe45763945c" target="_top" xlink:title="pdal::FileUtils::readFile\lIntoString">
<polygon fill="white" stroke="black" points="295,-14 295,-44 412,-44 412,-14 295,-14"/>
<text text-anchor="start" x="303" y="-32" font-family="Helvetica,sans-Serif" font-size="10.00">pdal::FileUtils::readFile</text>
<text text-anchor="middle" x="353.5" y="-21" font-family="Helvetica,sans-Serif" font-size="10.00">IntoString</text>
</a>
</g>
</g>
<!-- Node2&#45;&gt;Node3 -->
<g id="edge2" class="edge"><title>Node2&#45;&gt;Node3</title>
<path fill="none" stroke="midnightblue" d="M259.427,-29C267.829,-29 276.428,-29 284.84,-29"/>
<polygon fill="midnightblue" stroke="midnightblue" points="284.984,-32.5001 294.984,-29 284.984,-25.5001 284.984,-32.5001"/>
</g>
<!-- Node4 -->
<g id="node4" class="node"><title>Node4</title>
<g id="a_node4"><a xlink:href="namespacepdal_1_1FileUtils.html#aeeda62ff11a1e6bcc9175f51f7efe522" target="_top" xlink:title="pdal::FileUtils::openFile">
<polygon fill="white" stroke="black" points="449.5,-38.5 449.5,-57.5 568.5,-57.5 568.5,-38.5 449.5,-38.5"/>
<text text-anchor="middle" x="509" y="-45.5" font-family="Helvetica,sans-Serif" font-size="10.00">pdal::FileUtils::openFile</text>
</a>
</g>
</g>
<!-- Node3&#45;&gt;Node4 -->
<g id="edge3" class="edge"><title>Node3&#45;&gt;Node4</title>
<path fill="none" stroke="midnightblue" d="M412.094,-36.129C420.933,-37.223 430.134,-38.3619 439.186,-39.4823"/>
<polygon fill="midnightblue" stroke="midnightblue" points="438.961,-42.9811 449.315,-40.7361 439.821,-36.0341 438.961,-42.9811"/>
</g>
<!-- Node9 -->
<g id="node9" class="node"><title>Node9</title>
<g id="a_node9"><a xlink:href="namespacepdal_1_1FileUtils.html#a04d2d37c72f0f400f5d5b917b2f2ba05" target="_top" xlink:title="pdal::FileUtils::closeFile">
<polygon fill="white" stroke="black" points="448,-0.5 448,-19.5 570,-19.5 570,-0.5 448,-0.5"/>
<text text-anchor="middle" x="509" y="-7.5" font-family="Helvetica,sans-Serif" font-size="10.00">pdal::FileUtils::closeFile</text>
</a>
</g>
</g>
<!-- Node3&#45;&gt;Node9 -->
<g id="edge9" class="edge"><title>Node3&#45;&gt;Node9</title>
<path fill="none" stroke="midnightblue" d="M412.094,-21.871C420.471,-20.8342 429.173,-19.757 437.766,-18.6935"/>
<polygon fill="midnightblue" stroke="midnightblue" points="438.282,-22.1564 447.776,-17.4545 437.422,-15.2095 438.282,-22.1564"/>
</g>
<!-- Node5 -->
<g id="node5" class="node"><title>Node5</title>
<g id="a_node5"><a xlink:href="namespacepdal_1_1Dimension.html#af3176b0b7e6b4be000317846cf7c2718" target="_top" xlink:title="pdal::Dimension::name">
<polygon fill="white" stroke="black" points="609,-76.5 609,-95.5 726,-95.5 726,-76.5 609,-76.5"/>
<text text-anchor="middle" x="667.5" y="-83.5" font-family="Helvetica,sans-Serif" font-size="10.00">pdal::Dimension::name</text>
</a>
</g>
</g>
<!-- Node4&#45;&gt;Node5 -->
<g id="edge4" class="edge"><title>Node4&#45;&gt;Node5</title>
<path fill="none" stroke="midnightblue" d="M549.492,-57.589C570.143,-62.6035 595.614,-68.7881 617.512,-74.1053"/>
<polygon fill="midnightblue" stroke="midnightblue" points="616.749,-77.5215 627.292,-76.4799 618.401,-70.7191 616.749,-77.5215"/>
</g>
<!-- Node6 -->
<g id="node6" class="node"><title>Node6</title>
<g id="a_node6"><a xlink:href="namespacepdal_1_1anonymous__namespace_02FileUtils_8cpp_03.html#a813a530ad72d50f747643f1bb996cacf" target="_top" xlink:title="pdal::anonymous_namespace\l\{FileUtils::cpp\}::isStdin">
<polygon fill="white" stroke="black" points="765,-14 765,-44 911,-44 911,-14 765,-14"/>
<text text-anchor="start" x="773" y="-32" font-family="Helvetica,sans-Serif" font-size="10.00">pdal::anonymous_namespace</text>
<text text-anchor="middle" x="838" y="-21" font-family="Helvetica,sans-Serif" font-size="10.00">{FileUtils::cpp}::isStdin</text>
</a>
</g>
</g>
<!-- Node4&#45;&gt;Node6 -->
<g id="edge5" class="edge"><title>Node4&#45;&gt;Node6</title>
<path fill="none" stroke="midnightblue" d="M568.839,-44.5812C620.704,-41.5677 696.81,-37.1456 754.707,-33.7816"/>
<polygon fill="midnightblue" stroke="midnightblue" points="755.149,-37.2618 764.929,-33.1876 754.743,-30.2736 755.149,-37.2618"/>
</g>
<!-- Node8 -->
<g id="node8" class="node"><title>Node8</title>
<g id="a_node8"><a xlink:href="namespacepdal_1_1FileUtils.html#ae2b8f1ddc38b0033b685a0bde6106ba1" target="_top" xlink:title="pdal::FileUtils::fileExists">
<polygon fill="white" stroke="black" points="606,-0.5 606,-19.5 729,-19.5 729,-0.5 606,-0.5"/>
<text text-anchor="middle" x="667.5" y="-7.5" font-family="Helvetica,sans-Serif" font-size="10.00">pdal::FileUtils::fileExists</text>
</a>
</g>
</g>
<!-- Node4&#45;&gt;Node8 -->
<g id="edge7" class="edge"><title>Node4&#45;&gt;Node8</title>
<path fill="none" stroke="midnightblue" d="M549.492,-38.411C570.143,-33.3965 595.614,-27.2119 617.512,-21.8947"/>
<polygon fill="midnightblue" stroke="midnightblue" points="618.401,-25.2809 627.292,-19.5201 616.749,-18.4785 618.401,-25.2809"/>
</g>
<!-- Node7 -->
<g id="node7" class="node"><title>Node7</title>
<g id="a_node7"><a xlink:href="namespacepdal_1_1Utils.html#a28e3e2faff94b20f9908e77bc54ed983" target="_top" xlink:title="pdal::Utils::toupper">
<polygon fill="white" stroke="black" points="947,-19.5 947,-38.5 1046,-38.5 1046,-19.5 947,-19.5"/>
<text text-anchor="middle" x="996.5" y="-26.5" font-family="Helvetica,sans-Serif" font-size="10.00">pdal::Utils::toupper</text>
</a>
</g>
</g>
<!-- Node6&#45;&gt;Node7 -->
<g id="edge6" class="edge"><title>Node6&#45;&gt;Node7</title>
<path fill="none" stroke="midnightblue" d="M911.295,-29C919.742,-29 928.282,-29 936.518,-29"/>
<polygon fill="midnightblue" stroke="midnightblue" points="936.758,-32.5001 946.758,-29 936.758,-25.5001 936.758,-32.5001"/>
</g>
<!-- Node8&#45;&gt;Node6 -->
<g id="edge8" class="edge"><title>Node8&#45;&gt;Node6</title>
<path fill="none" stroke="midnightblue" d="M729.332,-16.8594C737.598,-17.7915 746.191,-18.7604 754.756,-19.7262"/>
<polygon fill="midnightblue" stroke="midnightblue" points="754.448,-23.2135 764.777,-20.8562 755.232,-16.2576 754.448,-23.2135"/>
</g>
</g>
</svg>
