<?xml version="1.0" encoding="UTF-8" standalone="no"?>
<!DOCTYPE svg PUBLIC "-//W3C//DTD SVG 1.1//EN"
 "http://www.w3.org/Graphics/SVG/1.1/DTD/svg11.dtd">
<!-- Generated by graphviz version 2.38.0 (20140413.2041)
 -->
<!-- Title: pdal::Segmentation::ignoreDimRange Pages: 1 -->
<svg width="249pt" height="66pt"
 viewBox="0.00 0.00 249.00 66.00" xmlns="http://www.w3.org/2000/svg" xmlns:xlink="http://www.w3.org/1999/xlink">
<g id="graph0" class="graph" transform="scale(1 1) rotate(0) translate(4 62)">
<title>pdal::Segmentation::ignoreDimRange</title>
<polygon fill="white" stroke="none" points="-4,4 -4,-62 245,-62 245,4 -4,4"/>
<!-- Node1 -->
<g id="node1" class="node"><title>Node1</title>
<polygon fill="#bfbfbf" stroke="black" points="0,-14 0,-44 101,-44 101,-14 0,-14"/>
<text text-anchor="start" x="8" y="-32" font-family="Helvetica,sans-Serif" font-size="10.00">pdal::Segmentation</text>
<text text-anchor="middle" x="50.5" y="-21" font-family="Helvetica,sans-Serif" font-size="10.00">::ignoreDimRange</text>
</g>
<!-- Node2 -->
<g id="node2" class="node"><title>Node2</title>
<g id="a_node2"><a xlink:href="classpdal_1_1PMFFilter.html#a4763cf7d3da9db5a7d97b116c6e5bcbb" target="_top" xlink:title="pdal::PMFFilter::run">
<polygon fill="white" stroke="black" points="137.5,-38.5 137.5,-57.5 240.5,-57.5 240.5,-38.5 137.5,-38.5"/>
<text text-anchor="middle" x="189" y="-45.5" font-family="Helvetica,sans-Serif" font-size="10.00">pdal::PMFFilter::run</text>
</a>
</g>
</g>
<!-- Node1&#45;&gt;Node2 -->
<g id="edge1" class="edge"><title>Node1&#45;&gt;Node2</title>
<path fill="none" stroke="midnightblue" d="M111.225,-37.3133C119.896,-38.5203 128.753,-39.7532 137.225,-40.9325"/>
<polygon fill="midnightblue" stroke="midnightblue" points="111.553,-33.8253 101.166,-35.9132 110.588,-40.7585 111.553,-33.8253"/>
</g>
<!-- Node3 -->
<g id="node3" class="node"><title>Node3</title>
<g id="a_node3"><a xlink:href="classpdal_1_1SMRFilter.html#ac74c1b3d3c4cc0b22141f6ee392ae972" target="_top" xlink:title="pdal::SMRFilter::run">
<polygon fill="white" stroke="black" points="137,-0.5 137,-19.5 241,-19.5 241,-0.5 137,-0.5"/>
<text text-anchor="middle" x="189" y="-7.5" font-family="Helvetica,sans-Serif" font-size="10.00">pdal::SMRFilter::run</text>
</a>
</g>
</g>
<!-- Node1&#45;&gt;Node3 -->
<g id="edge2" class="edge"><title>Node1&#45;&gt;Node3</title>
<path fill="none" stroke="midnightblue" d="M111.093,-20.7051C119.649,-19.514 128.39,-18.2974 136.766,-17.1315"/>
<polygon fill="midnightblue" stroke="midnightblue" points="110.588,-17.2415 101.166,-22.0868 111.553,-24.1747 110.588,-17.2415"/>
</g>
</g>
</svg>
