<?xml version="1.0" encoding="UTF-8" standalone="no"?>
<!DOCTYPE svg PUBLIC "-//W3C//DTD SVG 1.1//EN"
 "http://www.w3.org/Graphics/SVG/1.1/DTD/svg11.dtd">
<!-- Generated by graphviz version 2.38.0 (20140413.2041)
 -->
<!-- Title: pdal::Dimension::id Pages: 1 -->
<svg width="636pt" height="1401pt"
 viewBox="0.00 0.00 636.00 1401.00" xmlns="http://www.w3.org/2000/svg" xmlns:xlink="http://www.w3.org/1999/xlink">
<g id="graph0" class="graph" transform="scale(1 1) rotate(0) translate(4 1397)">
<title>pdal::Dimension::id</title>
<polygon fill="white" stroke="none" points="-4,4 -4,-1397 632,-1397 632,4 -4,4"/>
<!-- Node1 -->
<g id="node1" class="node"><title>Node1</title>
<polygon fill="#bfbfbf" stroke="black" points="0,-661.5 0,-680.5 101,-680.5 101,-661.5 0,-661.5"/>
<text text-anchor="middle" x="50.5" y="-668.5" font-family="Helvetica,sans-Serif" font-size="10.00">pdal::Dimension::id</text>
</g>
<!-- Node2 -->
<g id="node2" class="node"><title>Node2</title>
<g id="a_node2"><a xlink:href="classpdal_1_1GeoWaveReader.html#aa38f9a477c2998e39121e50a8e992e19" target="_top" xlink:title="pdal::GeoWaveReader\l::addDimensions">
<polygon fill="white" stroke="black" points="158.5,-1349 158.5,-1379 274.5,-1379 274.5,-1349 158.5,-1349"/>
<text text-anchor="start" x="166.5" y="-1367" font-family="Helvetica,sans-Serif" font-size="10.00">pdal::GeoWaveReader</text>
<text text-anchor="middle" x="216.5" y="-1356" font-family="Helvetica,sans-Serif" font-size="10.00">::addDimensions</text>
</a>
</g>
</g>
<!-- Node1&#45;&gt;Node2 -->
<g id="edge1" class="edge"><title>Node1&#45;&gt;Node2</title>
<path fill="none" stroke="midnightblue" d="M51.272,-690.835C50.5228,-790.632 52.0261,-1237.06 137,-1339 142.678,-1345.81 150.21,-1350.79 158.365,-1354.42"/>
<polygon fill="midnightblue" stroke="midnightblue" points="54.7734,-690.686 51.3665,-680.654 47.7737,-690.621 54.7734,-690.686"/>
</g>
<!-- Node3 -->
<g id="node3" class="node"><title>Node3</title>
<g id="a_node3"><a xlink:href="classpdal_1_1PointView.html#a43021c7d1b385adfb249c0e476cac379" target="_top" xlink:title="pdal::PointView::appendPoint">
<polygon fill="white" stroke="black" points="144,-1310.5 144,-1329.5 289,-1329.5 289,-1310.5 144,-1310.5"/>
<text text-anchor="middle" x="216.5" y="-1317.5" font-family="Helvetica,sans-Serif" font-size="10.00">pdal::PointView::appendPoint</text>
</a>
</g>
</g>
<!-- Node1&#45;&gt;Node3 -->
<g id="edge2" class="edge"><title>Node1&#45;&gt;Node3</title>
<path fill="none" stroke="midnightblue" d="M51.8217,-690.682C53.7078,-784.334 65.8712,-1184.34 137,-1282 146.984,-1295.71 163.257,-1304.69 178.406,-1310.47"/>
<polygon fill="midnightblue" stroke="midnightblue" points="55.3198,-690.54 51.6358,-680.606 48.321,-690.669 55.3198,-690.54"/>
</g>
<!-- Node6 -->
<g id="node6" class="node"><title>Node6</title>
<g id="a_node6"><a xlink:href="classpdal_1_1PointLayout.html#a62c64539215e8136b502e025627657ca" target="_top" xlink:title="pdal::PointLayout::\lassignDim">
<polygon fill="white" stroke="black" points="167.5,-1242 167.5,-1272 265.5,-1272 265.5,-1242 167.5,-1242"/>
<text text-anchor="start" x="175.5" y="-1260" font-family="Helvetica,sans-Serif" font-size="10.00">pdal::PointLayout::</text>
<text text-anchor="middle" x="216.5" y="-1249" font-family="Helvetica,sans-Serif" font-size="10.00">assignDim</text>
</a>
</g>
</g>
<!-- Node1&#45;&gt;Node6 -->
<g id="edge5" class="edge"><title>Node1&#45;&gt;Node6</title>
<path fill="none" stroke="midnightblue" d="M51.9476,-690.694C54.3405,-779.473 68.2387,-1141.82 137,-1227 144.698,-1236.54 155.796,-1243.04 167.234,-1247.48"/>
<polygon fill="midnightblue" stroke="midnightblue" points="55.4452,-690.552 51.6956,-680.643 48.4474,-690.728 55.4452,-690.552"/>
</g>
<!-- Node8 -->
<g id="node8" class="node"><title>Node8</title>
<g id="a_node8"><a xlink:href="classpdal_1_1PointLayout.html#a5eb18bf1cedb4bd97f5db6a094b10360" target="_top" xlink:title="pdal::PointLayout::\lregisterOrAssignDim">
<polygon fill="white" stroke="red" points="347,-1198 347,-1228 454,-1228 454,-1198 347,-1198"/>
<text text-anchor="start" x="355" y="-1216" font-family="Helvetica,sans-Serif" font-size="10.00">pdal::PointLayout::</text>
<text text-anchor="middle" x="400.5" y="-1205" font-family="Helvetica,sans-Serif" font-size="10.00">registerOrAssignDim</text>
</a>
</g>
</g>
<!-- Node1&#45;&gt;Node8 -->
<g id="edge47" class="edge"><title>Node1&#45;&gt;Node8</title>
<path fill="none" stroke="midnightblue" d="M51.6152,-690.832C52.5645,-777.855 61.1209,-1124.65 137,-1194 166.595,-1221.05 278.981,-1219.94 346.735,-1216.57"/>
<polygon fill="midnightblue" stroke="midnightblue" points="55.1143,-690.7 51.5279,-680.731 48.1145,-690.76 55.1143,-690.7"/>
</g>
<!-- Node10 -->
<g id="node10" class="node"><title>Node10</title>
<g id="a_node10"><a xlink:href="namespacepdal_1_1eigen.html#aeee5106731e88330993a75017489eaff" target="_top" xlink:title="pdal::eigen::computeSpline">
<polygon fill="white" stroke="black" points="149.5,-1165.5 149.5,-1184.5 283.5,-1184.5 283.5,-1165.5 149.5,-1165.5"/>
<text text-anchor="middle" x="216.5" y="-1172.5" font-family="Helvetica,sans-Serif" font-size="10.00">pdal::eigen::computeSpline</text>
</a>
</g>
</g>
<!-- Node1&#45;&gt;Node10 -->
<g id="edge10" class="edge"><title>Node1&#45;&gt;Node10</title>
<path fill="none" stroke="midnightblue" d="M52.1938,-690.922C55.473,-773.38 72.0884,-1086.87 137,-1156 140.551,-1159.78 144.716,-1162.87 149.242,-1165.38"/>
<polygon fill="midnightblue" stroke="midnightblue" points="55.682,-690.54 51.8093,-680.679 48.687,-690.803 55.682,-690.54"/>
</g>
<!-- Node13 -->
<g id="node13" class="node"><title>Node13</title>
<g id="a_node13"><a xlink:href="io__pdal__PointView_8cpp.html#ad0eb885be2fafdfed53c74d8c125b9a1" target="_top" xlink:title="convertDimTypeJavaArrayTo\lVector">
<polygon fill="white" stroke="black" points="144.5,-678 144.5,-708 288.5,-708 288.5,-678 144.5,-678"/>
<text text-anchor="start" x="152.5" y="-696" font-family="Helvetica,sans-Serif" font-size="10.00">convertDimTypeJavaArrayTo</text>
<text text-anchor="middle" x="216.5" y="-685" font-family="Helvetica,sans-Serif" font-size="10.00">Vector</text>
</a>
</g>
</g>
<!-- Node1&#45;&gt;Node13 -->
<g id="edge13" class="edge"><title>Node1&#45;&gt;Node13</title>
<path fill="none" stroke="midnightblue" d="M111.236,-679.013C121.958,-680.452 133.229,-681.964 144.238,-683.44"/>
<polygon fill="midnightblue" stroke="midnightblue" points="111.527,-675.521 101.15,-677.66 110.596,-682.459 111.527,-675.521"/>
</g>
<!-- Node16 -->
<g id="node16" class="node"><title>Node16</title>
<g id="a_node16"><a xlink:href="classpdal_1_1SQLiteWriter.html#abe82618f125304df98d7719e6078fc0a" target="_top" xlink:title="pdal::SQLiteWriter\l::CreateCloud">
<polygon fill="white" stroke="black" points="168,-1116 168,-1146 265,-1146 265,-1116 168,-1116"/>
<text text-anchor="start" x="176" y="-1134" font-family="Helvetica,sans-Serif" font-size="10.00">pdal::SQLiteWriter</text>
<text text-anchor="middle" x="216.5" y="-1123" font-family="Helvetica,sans-Serif" font-size="10.00">::CreateCloud</text>
</a>
</g>
</g>
<!-- Node1&#45;&gt;Node16 -->
<g id="edge17" class="edge"><title>Node1&#45;&gt;Node16</title>
<path fill="none" stroke="midnightblue" d="M52.7739,-690.931C58.0652,-767.671 80.7214,-1042.89 137,-1106 144.997,-1114.97 156.197,-1120.74 167.638,-1124.45"/>
<polygon fill="midnightblue" stroke="midnightblue" points="56.2519,-690.482 52.0941,-680.737 49.2674,-690.948 56.2519,-690.482"/>
</g>
<!-- Node18 -->
<g id="node18" class="node"><title>Node18</title>
<g id="a_node18"><a xlink:href="classpdal_1_1PlyWriter.html#ad042134b4ce1db2c43eefcd1d1e9a9f5" target="_top" xlink:title="pdal::PlyWriter::done">
<polygon fill="white" stroke="black" points="162.5,-1039.5 162.5,-1058.5 270.5,-1058.5 270.5,-1039.5 162.5,-1039.5"/>
<text text-anchor="middle" x="216.5" y="-1046.5" font-family="Helvetica,sans-Serif" font-size="10.00">pdal::PlyWriter::done</text>
</a>
</g>
</g>
<!-- Node1&#45;&gt;Node18 -->
<g id="edge19" class="edge"><title>Node1&#45;&gt;Node18</title>
<path fill="none" stroke="midnightblue" d="M53.5324,-690.961C60.8683,-759.097 88.1605,-980.981 137,-1030 143.928,-1036.95 152.936,-1041.52 162.37,-1044.5"/>
<polygon fill="midnightblue" stroke="midnightblue" points="56.9847,-690.323 52.4593,-680.743 50.023,-691.054 56.9847,-690.323"/>
</g>
<!-- Node19 -->
<g id="node19" class="node"><title>Node19</title>
<g id="a_node19"><a xlink:href="classpdal_1_1DeltaKernel.html#ace8b00d61b47331f3f7697e9f20c2ed7" target="_top" xlink:title="pdal::DeltaKernel::dump">
<polygon fill="white" stroke="black" points="155.5,-1077.5 155.5,-1096.5 277.5,-1096.5 277.5,-1077.5 155.5,-1077.5"/>
<text text-anchor="middle" x="216.5" y="-1084.5" font-family="Helvetica,sans-Serif" font-size="10.00">pdal::DeltaKernel::dump</text>
</a>
</g>
</g>
<!-- Node1&#45;&gt;Node19 -->
<g id="edge20" class="edge"><title>Node1&#45;&gt;Node19</title>
<path fill="none" stroke="midnightblue" d="M53.0198,-690.688C59.001,-763.044 83.2735,-1012.89 137,-1068 142.188,-1073.32 148.592,-1077.25 155.487,-1080.14"/>
<polygon fill="midnightblue" stroke="midnightblue" points="56.5035,-690.345 52.2151,-680.657 49.5259,-690.905 56.5035,-690.345"/>
</g>
<!-- Node21 -->
<g id="node21" class="node"><title>Node21</title>
<g id="a_node21"><a xlink:href="classpdal_1_1DeltaKernel.html#aef8b9fce966792de8d620cf8ddc92801" target="_top" xlink:title="pdal::DeltaKernel::\ldumpDetail">
<polygon fill="white" stroke="black" points="167.5,-990 167.5,-1020 265.5,-1020 265.5,-990 167.5,-990"/>
<text text-anchor="start" x="175.5" y="-1008" font-family="Helvetica,sans-Serif" font-size="10.00">pdal::DeltaKernel::</text>
<text text-anchor="middle" x="216.5" y="-997" font-family="Helvetica,sans-Serif" font-size="10.00">dumpDetail</text>
</a>
</g>
</g>
<!-- Node1&#45;&gt;Node21 -->
<g id="edge22" class="edge"><title>Node1&#45;&gt;Node21</title>
<path fill="none" stroke="midnightblue" d="M50.9217,-690.908C50.4663,-745.085 56.8138,-896.676 137,-980 145.133,-988.451 156.109,-994.053 167.274,-997.764"/>
<polygon fill="midnightblue" stroke="midnightblue" points="54.4262,-690.682 51.1053,-680.622 47.4273,-690.557 54.4262,-690.682"/>
</g>
<!-- Node22 -->
<g id="node22" class="node"><title>Node22</title>
<g id="a_node22"><a xlink:href="classpdal_1_1InfoKernel.html#ae3390441d7172ddfee191dddef7c2fce" target="_top" xlink:title="pdal::InfoKernel::dumpPoints">
<polygon fill="white" stroke="black" points="145,-951.5 145,-970.5 288,-970.5 288,-951.5 145,-951.5"/>
<text text-anchor="middle" x="216.5" y="-958.5" font-family="Helvetica,sans-Serif" font-size="10.00">pdal::InfoKernel::dumpPoints</text>
</a>
</g>
</g>
<!-- Node1&#45;&gt;Node22 -->
<g id="edge24" class="edge"><title>Node1&#45;&gt;Node22</title>
<path fill="none" stroke="midnightblue" d="M51.923,-690.771C54.0617,-739.696 66.4833,-867.484 137,-937 143.394,-943.303 151.395,-947.957 159.825,-951.393"/>
<polygon fill="midnightblue" stroke="midnightblue" points="55.4151,-690.472 51.5822,-680.595 48.419,-690.706 55.4151,-690.472"/>
</g>
<!-- Node24 -->
<g id="node24" class="node"><title>Node24</title>
<g id="a_node24"><a xlink:href="classpdal_1_1AssignFilter.html#a8be55c603ec946dd2747641b183a856b" target="_top" xlink:title="pdal::AssignFilter\l::filter">
<polygon fill="white" stroke="black" points="170.5,-864 170.5,-894 262.5,-894 262.5,-864 170.5,-864"/>
<text text-anchor="start" x="178.5" y="-882" font-family="Helvetica,sans-Serif" font-size="10.00">pdal::AssignFilter</text>
<text text-anchor="middle" x="216.5" y="-871" font-family="Helvetica,sans-Serif" font-size="10.00">::filter</text>
</a>
</g>
</g>
<!-- Node1&#45;&gt;Node24 -->
<g id="edge26" class="edge"><title>Node1&#45;&gt;Node24</title>
<path fill="none" stroke="midnightblue" d="M55.2453,-690.658C63.3753,-727.971 86.155,-809.314 137,-854 146.347,-862.215 158.407,-867.733 170.257,-871.439"/>
<polygon fill="midnightblue" stroke="midnightblue" points="58.6163,-689.674 53.1777,-680.581 51.7592,-691.081 58.6163,-689.674"/>
</g>
<!-- Node25 -->
<g id="node25" class="node"><title>Node25</title>
<g id="a_node25"><a xlink:href="classpdal_1_1ELMFilter.html#a0bd1a3df59df71d3a4eff593c54f36d9" target="_top" xlink:title="pdal::ELMFilter::filter">
<polygon fill="white" stroke="black" points="163,-825.5 163,-844.5 270,-844.5 270,-825.5 163,-825.5"/>
<text text-anchor="middle" x="216.5" y="-832.5" font-family="Helvetica,sans-Serif" font-size="10.00">pdal::ELMFilter::filter</text>
</a>
</g>
</g>
<!-- Node1&#45;&gt;Node25 -->
<g id="edge27" class="edge"><title>Node1&#45;&gt;Node25</title>
<path fill="none" stroke="midnightblue" d="M57.3754,-690.304C67.9647,-721.715 93.3129,-783.626 137,-816 144.548,-821.593 153.522,-825.561 162.659,-828.369"/>
<polygon fill="midnightblue" stroke="midnightblue" points="60.6358,-689.01 54.2395,-680.564 53.9727,-691.156 60.6358,-689.01"/>
</g>
<!-- Node26 -->
<g id="node26" class="node"><title>Node26</title>
<g id="a_node26"><a xlink:href="classpdal_1_1FerryFilter.html#a17b62ce632d7750f7b4ca852c68dd9bb" target="_top" xlink:title="pdal::FerryFilter::\lfilter">
<polygon fill="white" stroke="black" points="171,-776 171,-806 262,-806 262,-776 171,-776"/>
<text text-anchor="start" x="179" y="-794" font-family="Helvetica,sans-Serif" font-size="10.00">pdal::FerryFilter::</text>
<text text-anchor="middle" x="216.5" y="-783" font-family="Helvetica,sans-Serif" font-size="10.00">filter</text>
</a>
</g>
</g>
<!-- Node1&#45;&gt;Node26 -->
<g id="edge28" class="edge"><title>Node1&#45;&gt;Node26</title>
<path fill="none" stroke="midnightblue" d="M63.1845,-689.344C77.8777,-710.968 105.082,-746.544 137,-767 147.199,-773.536 159.279,-778.378 170.867,-781.93"/>
<polygon fill="midnightblue" stroke="midnightblue" points="65.9419,-687.168 57.5087,-680.754 60.1018,-691.027 65.9419,-687.168"/>
</g>
<!-- Node27 -->
<g id="node27" class="node"><title>Node27</title>
<g id="a_node27"><a xlink:href="classpdal_1_1PointLayout.html#a5a720db4e74a5412c1420b0d1eaacda7" target="_top" xlink:title="pdal::PointLayout::\lfindDim">
<polygon fill="white" stroke="red" points="167.5,-727 167.5,-757 265.5,-757 265.5,-727 167.5,-727"/>
<text text-anchor="start" x="175.5" y="-745" font-family="Helvetica,sans-Serif" font-size="10.00">pdal::PointLayout::</text>
<text text-anchor="middle" x="216.5" y="-734" font-family="Helvetica,sans-Serif" font-size="10.00">findDim</text>
</a>
</g>
</g>
<!-- Node1&#45;&gt;Node27 -->
<g id="edge29" class="edge"><title>Node1&#45;&gt;Node27</title>
<path fill="none" stroke="midnightblue" d="M75.3888,-685.873C92.1779,-695.887 115.408,-708.88 137,-718 146.584,-722.048 157.085,-725.739 167.201,-728.947"/>
<polygon fill="midnightblue" stroke="midnightblue" points="77.1428,-682.843 66.7754,-680.659 73.518,-688.832 77.1428,-682.843"/>
</g>
<!-- Node30 -->
<g id="node30" class="node"><title>Node30</title>
<g id="a_node30"><a xlink:href="classpdal_1_1BpfWriter.html#a9f5fb35cec2cfa9043a3c89977c78614" target="_top" xlink:title="pdal::BpfWriter::loadBpf\lDimensions">
<polygon fill="white" stroke="red" points="340,-916 340,-946 461,-946 461,-916 340,-916"/>
<text text-anchor="start" x="348" y="-934" font-family="Helvetica,sans-Serif" font-size="10.00">pdal::BpfWriter::loadBpf</text>
<text text-anchor="middle" x="400.5" y="-923" font-family="Helvetica,sans-Serif" font-size="10.00">Dimensions</text>
</a>
</g>
</g>
<!-- Node1&#45;&gt;Node30 -->
<g id="edge42" class="edge"><title>Node1&#45;&gt;Node30</title>
<path fill="none" stroke="midnightblue" d="M52.1395,-690.672C54.7903,-736.517 68.3193,-850.609 137,-904 167.563,-927.76 272.173,-931.916 339.744,-931.997"/>
<polygon fill="midnightblue" stroke="midnightblue" points="55.6305,-690.393 51.673,-680.565 48.6379,-690.716 55.6305,-690.393"/>
</g>
<!-- Node35 -->
<g id="node35" class="node"><title>Node35</title>
<g id="a_node35"><a xlink:href="classpdal_1_1PointView.html#a36a167de5ffe22d59a5db002250ec2a2" target="_top" xlink:title="pdal::PointView::getField">
<polygon fill="white" stroke="red" points="154,-639.5 154,-658.5 279,-658.5 279,-639.5 154,-639.5"/>
<text text-anchor="middle" x="216.5" y="-646.5" font-family="Helvetica,sans-Serif" font-size="10.00">pdal::PointView::getField</text>
</a>
</g>
</g>
<!-- Node1&#45;&gt;Node35 -->
<g id="edge39" class="edge"><title>Node1&#45;&gt;Node35</title>
<path fill="none" stroke="midnightblue" d="M111.088,-663.006C124.997,-661.141 139.838,-659.15 153.835,-657.272"/>
<polygon fill="midnightblue" stroke="midnightblue" points="110.596,-659.541 101.15,-664.34 111.527,-666.479 110.596,-659.541"/>
</g>
<!-- Node36 -->
<g id="node36" class="node"><title>Node36</title>
<g id="a_node36"><a xlink:href="classpdal_1_1PointView.html#a7b0ba6f2ed89d514a1128196efc6bb40" target="_top" xlink:title="pdal::PointView::getTemp">
<polygon fill="white" stroke="red" points="152,-601.5 152,-620.5 281,-620.5 281,-601.5 152,-601.5"/>
<text text-anchor="middle" x="216.5" y="-608.5" font-family="Helvetica,sans-Serif" font-size="10.00">pdal::PointView::getTemp</text>
</a>
</g>
</g>
<!-- Node1&#45;&gt;Node36 -->
<g id="edge40" class="edge"><title>Node1&#45;&gt;Node36</title>
<path fill="none" stroke="midnightblue" d="M77.8098,-656.61C94.4123,-647.979 116.519,-637.298 137,-630 147.171,-626.376 158.325,-623.213 168.951,-620.562"/>
<polygon fill="midnightblue" stroke="midnightblue" points="75.9288,-653.645 68.7243,-661.413 79.2007,-659.833 75.9288,-653.645"/>
</g>
<!-- Node37 -->
<g id="node37" class="node"><title>Node37</title>
<g id="a_node37"><a xlink:href="classpdal_1_1KDIndex.html#a53e4284b3c93ff4872da6f015f86290e" target="_top" xlink:title="pdal::KDIndex::kdtree\l_get_pt">
<polygon fill="white" stroke="black" points="160.5,-552 160.5,-582 272.5,-582 272.5,-552 160.5,-552"/>
<text text-anchor="start" x="168.5" y="-570" font-family="Helvetica,sans-Serif" font-size="10.00">pdal::KDIndex::kdtree</text>
<text text-anchor="middle" x="216.5" y="-559" font-family="Helvetica,sans-Serif" font-size="10.00">_get_pt</text>
</a>
</g>
</g>
<!-- Node1&#45;&gt;Node37 -->
<g id="edge41" class="edge"><title>Node1&#45;&gt;Node37</title>
<path fill="none" stroke="midnightblue" d="M66.3005,-653.385C82.1257,-635.583 108.78,-608.425 137,-592 144.17,-587.827 152.12,-584.262 160.129,-581.243"/>
<polygon fill="midnightblue" stroke="midnightblue" points="63.3552,-651.439 59.4422,-661.285 68.641,-656.028 63.3552,-651.439"/>
</g>
<!-- Node38 -->
<g id="node38" class="node"><title>Node38</title>
<g id="a_node38"><a xlink:href="classpdal_1_1TriangularMesh.html#adea84592dd4474814757863766941871" target="_top" xlink:title="pdal::TriangularMesh\l::operator[]">
<polygon fill="white" stroke="black" points="163,-503 163,-533 270,-533 270,-503 163,-503"/>
<text text-anchor="start" x="171" y="-521" font-family="Helvetica,sans-Serif" font-size="10.00">pdal::TriangularMesh</text>
<text text-anchor="middle" x="216.5" y="-510" font-family="Helvetica,sans-Serif" font-size="10.00">::operator[]</text>
</a>
</g>
</g>
<!-- Node1&#45;&gt;Node38 -->
<g id="edge43" class="edge"><title>Node1&#45;&gt;Node38</title>
<path fill="none" stroke="midnightblue" d="M59.2861,-651.917C71.6452,-623.965 98.3738,-572.067 137,-543 144.657,-537.238 153.683,-532.78 162.837,-529.337"/>
<polygon fill="midnightblue" stroke="midnightblue" points="55.9625,-650.788 55.2581,-661.359 62.4012,-653.534 55.9625,-650.788"/>
</g>
<!-- Node39 -->
<g id="node39" class="node"><title>Node39</title>
<g id="a_node39"><a xlink:href="namespacepdal_1_1LasUtils.html#aa3390d8572d48c1f2294cde07e614319" target="_top" xlink:title="pdal::LasUtils::parseIgnoreVLRs">
<polygon fill="white" stroke="red" points="137.5,-464.5 137.5,-483.5 295.5,-483.5 295.5,-464.5 137.5,-464.5"/>
<text text-anchor="middle" x="216.5" y="-471.5" font-family="Helvetica,sans-Serif" font-size="10.00">pdal::LasUtils::parseIgnoreVLRs</text>
</a>
</g>
</g>
<!-- Node1&#45;&gt;Node39 -->
<g id="edge44" class="edge"><title>Node1&#45;&gt;Node39</title>
<path fill="none" stroke="midnightblue" d="M55.3303,-651.19C63.5084,-614.396 86.2304,-535.488 137,-494 142.336,-489.639 148.506,-486.215 154.994,-483.529"/>
<polygon fill="midnightblue" stroke="midnightblue" points="51.8646,-650.664 53.2442,-661.168 58.7165,-652.096 51.8646,-650.664"/>
</g>
<!-- Node40 -->
<g id="node40" class="node"><title>Node40</title>
<g id="a_node40"><a xlink:href="classpdal_1_1GreyhoundReader.html#a80825b775f133a7d4af529c4a36298e6" target="_top" xlink:title="pdal::GreyhoundReader\l::read">
<polygon fill="white" stroke="black" points="157,-415 157,-445 276,-445 276,-415 157,-415"/>
<text text-anchor="start" x="165" y="-433" font-family="Helvetica,sans-Serif" font-size="10.00">pdal::GreyhoundReader</text>
<text text-anchor="middle" x="216.5" y="-422" font-family="Helvetica,sans-Serif" font-size="10.00">::read</text>
</a>
</g>
</g>
<!-- Node1&#45;&gt;Node40 -->
<g id="edge45" class="edge"><title>Node1&#45;&gt;Node40</title>
<path fill="none" stroke="midnightblue" d="M53.7014,-651.064C59.4322,-608.765 78.6722,-509.458 137,-455 142.75,-449.631 149.653,-445.416 156.947,-442.105"/>
<polygon fill="midnightblue" stroke="midnightblue" points="50.2041,-650.827 52.4462,-661.182 57.1508,-651.689 50.2041,-650.827"/>
</g>
<!-- Node41 -->
<g id="node41" class="node"><title>Node41</title>
<g id="a_node41"><a xlink:href="classpdal_1_1MbReader.html#aacabf834349474a12eca508bd19ac1e6" target="_top" xlink:title="pdal::MbReader::read">
<polygon fill="white" stroke="black" points="161.5,-376.5 161.5,-395.5 271.5,-395.5 271.5,-376.5 161.5,-376.5"/>
<text text-anchor="middle" x="216.5" y="-383.5" font-family="Helvetica,sans-Serif" font-size="10.00">pdal::MbReader::read</text>
</a>
</g>
</g>
<!-- Node1&#45;&gt;Node41 -->
<g id="edge46" class="edge"><title>Node1&#45;&gt;Node41</title>
<path fill="none" stroke="midnightblue" d="M51.7489,-651.095C53.489,-601.875 65.0698,-473.561 137,-406 143.766,-399.645 152.261,-395.238 161.143,-392.196"/>
<polygon fill="midnightblue" stroke="midnightblue" points="48.2441,-651.252 51.4942,-661.336 55.2419,-651.426 48.2441,-651.252"/>
</g>
<!-- Node42 -->
<g id="node42" class="node"><title>Node42</title>
<g id="a_node42"><a xlink:href="classpdal_1_1ReprojectionFilter.html#a4bb991444113267cf740e403efe2bc18" target="_top" xlink:title="pdal::ReprojectionFilter::run">
<polygon fill="white" stroke="black" points="148,-338.5 148,-357.5 285,-357.5 285,-338.5 148,-338.5"/>
<text text-anchor="middle" x="216.5" y="-345.5" font-family="Helvetica,sans-Serif" font-size="10.00">pdal::ReprojectionFilter::run</text>
</a>
</g>
</g>
<!-- Node1&#45;&gt;Node42 -->
<g id="edge48" class="edge"><title>Node1&#45;&gt;Node42</title>
<path fill="none" stroke="midnightblue" d="M50.7278,-651.102C49.7805,-597.011 54.9942,-446.05 137,-367 140.937,-363.205 145.497,-360.125 150.397,-357.631"/>
<polygon fill="midnightblue" stroke="midnightblue" points="47.2366,-651.477 51.0079,-661.378 54.234,-651.286 47.2366,-651.477"/>
</g>
<!-- Node43 -->
<g id="node43" class="node"><title>Node43</title>
<g id="a_node43"><a xlink:href="classpdal_1_1SampleFilter.html#a8970887f78e4e1d655ad63e73494ee8f" target="_top" xlink:title="pdal::SampleFilter::run">
<polygon fill="white" stroke="black" points="159,-300.5 159,-319.5 274,-319.5 274,-300.5 159,-300.5"/>
<text text-anchor="middle" x="216.5" y="-307.5" font-family="Helvetica,sans-Serif" font-size="10.00">pdal::SampleFilter::run</text>
</a>
</g>
</g>
<!-- Node1&#45;&gt;Node43 -->
<g id="edge49" class="edge"><title>Node1&#45;&gt;Node43</title>
<path fill="none" stroke="midnightblue" d="M53.7739,-651.138C61.7133,-585.239 90.2847,-375.366 137,-329 143.071,-322.975 150.706,-318.742 158.814,-315.79"/>
<polygon fill="midnightblue" stroke="midnightblue" points="50.2609,-651.044 52.5675,-661.385 57.2129,-651.863 50.2609,-651.044"/>
</g>
<!-- Node44 -->
<g id="node44" class="node"><title>Node44</title>
<g id="a_node44"><a xlink:href="classpdal_1_1VoxelCentroidNearestNeighborFilter.html#a2ecd640ccb33081784cc859a76900b68" target="_top" xlink:title="pdal::VoxelCentroidNearest\lNeighborFilter::run">
<polygon fill="white" stroke="black" points="148,-251 148,-281 285,-281 285,-251 148,-251"/>
<text text-anchor="start" x="156" y="-269" font-family="Helvetica,sans-Serif" font-size="10.00">pdal::VoxelCentroidNearest</text>
<text text-anchor="middle" x="216.5" y="-258" font-family="Helvetica,sans-Serif" font-size="10.00">NeighborFilter::run</text>
</a>
</g>
</g>
<!-- Node1&#45;&gt;Node44 -->
<g id="edge50" class="edge"><title>Node1&#45;&gt;Node44</title>
<path fill="none" stroke="midnightblue" d="M53.3581,-651.381C60.3629,-581.381 87.3344,-345.186 137,-291 140.576,-287.099 144.758,-283.803 149.296,-281.019"/>
<polygon fill="midnightblue" stroke="midnightblue" points="49.8618,-651.173 52.3734,-661.466 56.8287,-651.854 49.8618,-651.173"/>
</g>
<!-- Node45 -->
<g id="node45" class="node"><title>Node45</title>
<g id="a_node45"><a xlink:href="classpdal_1_1VoxelCenterNearestNeighborFilter.html#af6c1313d2e10ba457add01089b0a9d99" target="_top" xlink:title="pdal::VoxelCenterNearest\lNeighborFilter::run">
<polygon fill="white" stroke="black" points="152,-202 152,-232 281,-232 281,-202 152,-202"/>
<text text-anchor="start" x="160" y="-220" font-family="Helvetica,sans-Serif" font-size="10.00">pdal::VoxelCenterNearest</text>
<text text-anchor="middle" x="216.5" y="-209" font-family="Helvetica,sans-Serif" font-size="10.00">NeighborFilter::run</text>
</a>
</g>
</g>
<!-- Node1&#45;&gt;Node45 -->
<g id="edge51" class="edge"><title>Node1&#45;&gt;Node45</title>
<path fill="none" stroke="midnightblue" d="M52.814,-651.342C58.2536,-575.651 81.3863,-304.194 137,-242 141.195,-237.309 146.267,-233.492 151.79,-230.387"/>
<polygon fill="midnightblue" stroke="midnightblue" points="49.3171,-651.177 52.1141,-661.396 56.3002,-651.663 49.3171,-651.177"/>
</g>
<!-- Node46 -->
<g id="node46" class="node"><title>Node46</title>
<g id="a_node46"><a xlink:href="structpdal_1_1PlyReader_1_1SimpleProperty.html#ad237b8692dbc5d6a7037008df66357a1" target="_top" xlink:title="pdal::PlyReader::SimpleProperty\l::setDim">
<polygon fill="white" stroke="black" points="137,-153 137,-183 296,-183 296,-153 137,-153"/>
<text text-anchor="start" x="145" y="-171" font-family="Helvetica,sans-Serif" font-size="10.00">pdal::PlyReader::SimpleProperty</text>
<text text-anchor="middle" x="216.5" y="-160" font-family="Helvetica,sans-Serif" font-size="10.00">::setDim</text>
</a>
</g>
</g>
<!-- Node1&#45;&gt;Node46 -->
<g id="edge52" class="edge"><title>Node1&#45;&gt;Node46</title>
<path fill="none" stroke="midnightblue" d="M52.4072,-650.706C56.4682,-568.732 75.5585,-263.09 137,-193 140.394,-189.128 144.386,-185.851 148.741,-183.077"/>
<polygon fill="midnightblue" stroke="midnightblue" points="48.8909,-650.969 51.9138,-661.123 55.883,-651.3 48.8909,-650.969"/>
</g>
<!-- Node47 -->
<g id="node47" class="node"><title>Node47</title>
<g id="a_node47"><a xlink:href="classpdal_1_1XMLSchema.html#a23eec7db7fa2ff4a9e6cbc7970855e0c" target="_top" xlink:title="pdal::XMLSchema::setId">
<polygon fill="white" stroke="red" points="154,-114.5 154,-133.5 279,-133.5 279,-114.5 154,-114.5"/>
<text text-anchor="middle" x="216.5" y="-121.5" font-family="Helvetica,sans-Serif" font-size="10.00">pdal::XMLSchema::setId</text>
</a>
</g>
</g>
<!-- Node1&#45;&gt;Node47 -->
<g id="edge53" class="edge"><title>Node1&#45;&gt;Node47</title>
<path fill="none" stroke="midnightblue" d="M51.8762,-651.274C53.9339,-564.678 66.5089,-219.134 137,-143 141.668,-137.958 147.425,-134.151 153.683,-131.289"/>
<polygon fill="midnightblue" stroke="midnightblue" points="48.376,-651.251 51.6584,-661.325 55.3744,-651.403 48.376,-651.251"/>
</g>
<!-- Node48 -->
<g id="node48" class="node"><title>Node48</title>
<g id="a_node48"><a xlink:href="classpdal_1_1PointIdxRef.html#a60d6d5f77370621b591c3e2846aaceda" target="_top" xlink:title="pdal::PointIdxRef::swap">
<polygon fill="white" stroke="black" points="155.5,-76.5 155.5,-95.5 277.5,-95.5 277.5,-76.5 155.5,-76.5"/>
<text text-anchor="middle" x="216.5" y="-83.5" font-family="Helvetica,sans-Serif" font-size="10.00">pdal::PointIdxRef::swap</text>
</a>
</g>
</g>
<!-- Node1&#45;&gt;Node48 -->
<g id="edge54" class="edge"><title>Node1&#45;&gt;Node48</title>
<path fill="none" stroke="midnightblue" d="M51.6437,-651.018C52.7105,-560.198 61.6804,-187.22 137,-105 142.02,-99.5201 148.326,-95.4949 155.171,-92.5568"/>
<polygon fill="midnightblue" stroke="midnightblue" points="48.1434,-651.044 51.5457,-661.078 55.1431,-651.112 48.1434,-651.044"/>
</g>
<!-- Node49 -->
<g id="node49" class="node"><title>Node49</title>
<g id="a_node49"><a xlink:href="namespacepdal.html#a50f4bb88c99d57979287fdbec7dfabc6" target="_top" xlink:title="pdal::TEST">
<polygon fill="white" stroke="black" points="183.5,-38.5 183.5,-57.5 249.5,-57.5 249.5,-38.5 183.5,-38.5"/>
<text text-anchor="middle" x="216.5" y="-45.5" font-family="Helvetica,sans-Serif" font-size="10.00">pdal::TEST</text>
</a>
</g>
</g>
<!-- Node1&#45;&gt;Node49 -->
<g id="edge55" class="edge"><title>Node1&#45;&gt;Node49</title>
<path fill="none" stroke="midnightblue" d="M51.4343,-651.202C51.5334,-557.045 56.7185,-155.459 137,-67 148.591,-54.2285 167.165,-49.3434 183.337,-47.7148"/>
<polygon fill="midnightblue" stroke="midnightblue" points="47.9343,-651.337 51.4434,-661.334 54.9343,-651.331 47.9343,-651.337"/>
</g>
<!-- Node50 -->
<g id="node50" class="node"><title>Node50</title>
<g id="a_node50"><a xlink:href="LasReaderTest_8cpp.html#a478d8ef6eab7bebe43a94e6ae8bab216" target="_top" xlink:title="TEST">
<polygon fill="white" stroke="black" points="195.5,-0.5 195.5,-19.5 237.5,-19.5 237.5,-0.5 195.5,-0.5"/>
<text text-anchor="middle" x="216.5" y="-7.5" font-family="Helvetica,sans-Serif" font-size="10.00">TEST</text>
</a>
</g>
</g>
<!-- Node1&#45;&gt;Node50 -->
<g id="edge56" class="edge"><title>Node1&#45;&gt;Node50</title>
<path fill="none" stroke="midnightblue" d="M51.251,-651.2C50.4355,-553.494 51.7974,-123.661 137,-29 151.54,-12.8459 177.251,-9.28812 195.274,-8.99531"/>
<polygon fill="midnightblue" stroke="midnightblue" points="47.7511,-651.238 51.353,-661.202 54.7507,-651.167 47.7511,-651.238"/>
</g>
<!-- Node4 -->
<g id="node4" class="node"><title>Node4</title>
<g id="a_node4"><a xlink:href="classpdal_1_1CropFilter.html#ad3c621912b6cae25da4a1789733d4c65" target="_top" xlink:title="pdal::CropFilter::crop">
<polygon fill="white" stroke="black" points="346.5,-1373.5 346.5,-1392.5 454.5,-1392.5 454.5,-1373.5 346.5,-1373.5"/>
<text text-anchor="middle" x="400.5" y="-1380.5" font-family="Helvetica,sans-Serif" font-size="10.00">pdal::CropFilter::crop</text>
</a>
</g>
</g>
<!-- Node3&#45;&gt;Node4 -->
<g id="edge3" class="edge"><title>Node3&#45;&gt;Node4</title>
<path fill="none" stroke="midnightblue" d="M275.341,-1332.34C282.424,-1334.55 289.463,-1337.09 296,-1340 313.568,-1347.82 314.531,-1355.96 332,-1364 340.074,-1367.71 349.032,-1370.86 357.713,-1373.45"/>
<polygon fill="midnightblue" stroke="midnightblue" points="276.277,-1328.97 265.697,-1329.54 274.322,-1335.69 276.277,-1328.97"/>
</g>
<!-- Node5 -->
<g id="node5" class="node"><title>Node5</title>
<g id="a_node5"><a xlink:href="classpdal_1_1DecimationFilter.html#a1e130d000d7b87370ea9dec55a8c9d69" target="_top" xlink:title="pdal::DecimationFilter\l::decimate">
<polygon fill="white" stroke="red" points="344.5,-1324 344.5,-1354 456.5,-1354 456.5,-1324 344.5,-1324"/>
<text text-anchor="start" x="352.5" y="-1342" font-family="Helvetica,sans-Serif" font-size="10.00">pdal::DecimationFilter</text>
<text text-anchor="middle" x="400.5" y="-1331" font-family="Helvetica,sans-Serif" font-size="10.00">::decimate</text>
</a>
</g>
</g>
<!-- Node3&#45;&gt;Node5 -->
<g id="edge4" class="edge"><title>Node3&#45;&gt;Node5</title>
<path fill="none" stroke="midnightblue" d="M299.179,-1328.53C314.516,-1330.13 330.21,-1331.77 344.493,-1333.26"/>
<polygon fill="midnightblue" stroke="midnightblue" points="299.479,-1325.04 289.17,-1327.48 298.752,-1332 299.479,-1325.04"/>
</g>
<!-- Node7 -->
<g id="node7" class="node"><title>Node7</title>
<g id="a_node7"><a xlink:href="classpdal_1_1PointLayout.html#a41955b0c316d4ae4d34eca8768be2ef9" target="_top" xlink:title="pdal::PointLayout::\lfinalized">
<polygon fill="white" stroke="black" points="517.5,-1034 517.5,-1064 615.5,-1064 615.5,-1034 517.5,-1034"/>
<text text-anchor="start" x="525.5" y="-1052" font-family="Helvetica,sans-Serif" font-size="10.00">pdal::PointLayout::</text>
<text text-anchor="middle" x="566.5" y="-1041" font-family="Helvetica,sans-Serif" font-size="10.00">finalized</text>
</a>
</g>
</g>
<!-- Node6&#45;&gt;Node7 -->
<g id="edge6" class="edge"><title>Node6&#45;&gt;Node7</title>
<path fill="none" stroke="midnightblue" d="M261.74,-1275.6C315.458,-1294.99 406.599,-1317.28 469,-1276 543.646,-1226.62 560.728,-1106.57 564.484,-1064.15"/>
<polygon fill="midnightblue" stroke="midnightblue" points="262.753,-1272.24 252.161,-1272.03 260.309,-1278.8 262.753,-1272.24"/>
</g>
<!-- Node6&#45;&gt;Node8 -->
<g id="edge7" class="edge"><title>Node6&#45;&gt;Node8</title>
<path fill="none" stroke="midnightblue" d="M275.701,-1242.93C298.535,-1237.41 324.55,-1231.12 346.819,-1225.74"/>
<polygon fill="midnightblue" stroke="midnightblue" points="274.692,-1239.57 265.795,-1245.32 276.337,-1246.38 274.692,-1239.57"/>
</g>
<!-- Node9 -->
<g id="node9" class="node"><title>Node9</title>
<g id="a_node9"><a xlink:href="PointViewTest_8cpp.html#a32cd87c76917493a23148e8c4febe209" target="_top" xlink:title="TEST">
<polygon fill="white" stroke="black" points="379.5,-1247.5 379.5,-1266.5 421.5,-1266.5 421.5,-1247.5 379.5,-1247.5"/>
<text text-anchor="middle" x="400.5" y="-1254.5" font-family="Helvetica,sans-Serif" font-size="10.00">TEST</text>
</a>
</g>
</g>
<!-- Node6&#45;&gt;Node9 -->
<g id="edge9" class="edge"><title>Node6&#45;&gt;Node9</title>
<path fill="none" stroke="midnightblue" d="M276.057,-1257C311.543,-1257 354.602,-1257 379.349,-1257"/>
<polygon fill="midnightblue" stroke="midnightblue" points="275.795,-1253.5 265.795,-1257 275.795,-1260.5 275.795,-1253.5"/>
</g>
<!-- Node8&#45;&gt;Node7 -->
<g id="edge8" class="edge"><title>Node8&#45;&gt;Node7</title>
<path fill="none" stroke="midnightblue" d="M463.22,-1193.01C465.222,-1191.75 467.156,-1190.41 469,-1189 513.968,-1154.5 545.765,-1093 558.853,-1064.41"/>
<polygon fill="midnightblue" stroke="midnightblue" points="461.132,-1190.17 454.082,-1198.08 464.525,-1196.29 461.132,-1190.17"/>
</g>
<!-- Node11 -->
<g id="node11" class="node"><title>Node11</title>
<g id="a_node11"><a xlink:href="classpdal_1_1MongusFilter.html#a7092a8b312119657674a3fb21af1a94c" target="_top" xlink:title="pdal::MongusFilter\l::processGround">
<polygon fill="white" stroke="red" points="352,-1149 352,-1179 449,-1179 449,-1149 352,-1149"/>
<text text-anchor="start" x="360" y="-1167" font-family="Helvetica,sans-Serif" font-size="10.00">pdal::MongusFilter</text>
<text text-anchor="middle" x="400.5" y="-1156" font-family="Helvetica,sans-Serif" font-size="10.00">::processGround</text>
</a>
</g>
</g>
<!-- Node10&#45;&gt;Node11 -->
<g id="edge11" class="edge"><title>Node10&#45;&gt;Node11</title>
<path fill="none" stroke="midnightblue" d="M293.894,-1170.38C313.549,-1169.19 334.138,-1167.95 351.862,-1166.88"/>
<polygon fill="midnightblue" stroke="midnightblue" points="293.492,-1166.9 283.721,-1171 293.914,-1173.89 293.492,-1166.9"/>
</g>
<!-- Node12 -->
<g id="node12" class="node"><title>Node12</title>
<g id="a_node12"><a xlink:href="namespacepdal_1_1eigen.html#a3631c9837904f8a9daf2370a5f287f72" target="_top" xlink:title="pdal::eigen::erode">
<polygon fill="white" stroke="red" points="353.5,-1110.5 353.5,-1129.5 447.5,-1129.5 447.5,-1110.5 353.5,-1110.5"/>
<text text-anchor="middle" x="400.5" y="-1117.5" font-family="Helvetica,sans-Serif" font-size="10.00">pdal::eigen::erode</text>
</a>
</g>
</g>
<!-- Node10&#45;&gt;Node12 -->
<g id="edge12" class="edge"><title>Node10&#45;&gt;Node12</title>
<path fill="none" stroke="midnightblue" d="M272.953,-1162.91C280.756,-1160.82 288.626,-1158.51 296,-1156 312.577,-1150.36 315.571,-1146.06 332,-1140 342.321,-1136.2 353.728,-1132.59 364.182,-1129.52"/>
<polygon fill="midnightblue" stroke="midnightblue" points="271.962,-1159.55 263.147,-1165.43 273.703,-1166.33 271.962,-1159.55"/>
</g>
<!-- Node14 -->
<g id="node14" class="node"><title>Node14</title>
<g id="a_node14"><a xlink:href="io__pdal__PointView_8cpp.html#ae26ebc1bcf0b9ddd66beccd20c3356ca" target="_top" xlink:title="Java_io_pdal_PointView\l_getPackedPoint">
<polygon fill="white" stroke="red" points="505,-539 505,-569 628,-569 628,-539 505,-539"/>
<text text-anchor="start" x="513" y="-557" font-family="Helvetica,sans-Serif" font-size="10.00">Java_io_pdal_PointView</text>
<text text-anchor="middle" x="566.5" y="-546" font-family="Helvetica,sans-Serif" font-size="10.00">_getPackedPoint</text>
</a>
</g>
</g>
<!-- Node13&#45;&gt;Node14 -->
<g id="edge14" class="edge"><title>Node13&#45;&gt;Node14</title>
<path fill="none" stroke="midnightblue" d="M289.852,-672.692C291.997,-671.235 294.055,-669.673 296,-668 323.423,-644.407 303.054,-616.697 332,-595 358.676,-575.004 445.096,-563.897 504.963,-558.436"/>
<polygon fill="midnightblue" stroke="midnightblue" points="288.023,-669.708 281.198,-677.811 291.587,-675.732 288.023,-669.708"/>
</g>
<!-- Node15 -->
<g id="node15" class="node"><title>Node15</title>
<g id="a_node15"><a xlink:href="io__pdal__PointView_8cpp.html#a5cd11ffe3330df455cd4981e1d46123b" target="_top" xlink:title="Java_io_pdal_PointView\l_getPackedPoints">
<polygon fill="white" stroke="black" points="339,-517 339,-547 462,-547 462,-517 339,-517"/>
<text text-anchor="start" x="347" y="-535" font-family="Helvetica,sans-Serif" font-size="10.00">Java_io_pdal_PointView</text>
<text text-anchor="middle" x="400.5" y="-524" font-family="Helvetica,sans-Serif" font-size="10.00">_getPackedPoints</text>
</a>
</g>
</g>
<!-- Node13&#45;&gt;Node15 -->
<g id="edge15" class="edge"><title>Node13&#45;&gt;Node15</title>
<path fill="none" stroke="midnightblue" d="M290.864,-672.465C292.664,-671.073 294.382,-669.587 296,-668 331.515,-633.156 298.452,-598.742 332,-562 337.534,-555.939 344.52,-551.034 351.886,-547.085"/>
<polygon fill="midnightblue" stroke="midnightblue" points="288.923,-669.553 282.506,-677.985 292.78,-675.395 288.923,-669.553"/>
</g>
<!-- Node15&#45;&gt;Node14 -->
<g id="edge16" class="edge"><title>Node15&#45;&gt;Node14</title>
<path fill="none" stroke="midnightblue" d="M472.041,-541.463C482.974,-542.929 494.185,-544.433 504.874,-545.867"/>
<polygon fill="midnightblue" stroke="midnightblue" points="472.478,-537.99 462.102,-540.129 471.547,-544.928 472.478,-537.99"/>
</g>
<!-- Node17 -->
<g id="node17" class="node"><title>Node17</title>
<g id="a_node17"><a xlink:href="classpdal_1_1SQLiteWriter.html#aeb1ac7f6fa795c2c0c47eff286aae3a0" target="_top" xlink:title="pdal::SQLiteWriter\l::writeInit">
<polygon fill="white" stroke="red" points="352,-1061 352,-1091 449,-1091 449,-1061 352,-1061"/>
<text text-anchor="start" x="360" y="-1079" font-family="Helvetica,sans-Serif" font-size="10.00">pdal::SQLiteWriter</text>
<text text-anchor="middle" x="400.5" y="-1068" font-family="Helvetica,sans-Serif" font-size="10.00">::writeInit</text>
</a>
</g>
</g>
<!-- Node16&#45;&gt;Node17 -->
<g id="edge18" class="edge"><title>Node16&#45;&gt;Node17</title>
<path fill="none" stroke="midnightblue" d="M274.93,-1113.64C299.628,-1106.18 328.163,-1097.56 351.685,-1090.45"/>
<polygon fill="midnightblue" stroke="midnightblue" points="273.878,-1110.31 265.318,-1116.55 275.903,-1117.01 273.878,-1110.31"/>
</g>
<!-- Node20 -->
<g id="node20" class="node"><title>Node20</title>
<g id="a_node20"><a xlink:href="classpdal_1_1DeltaKernel.html#a2f16220306228cfffeff86e51399713e" target="_top" xlink:title="pdal::DeltaKernel::\lexecute">
<polygon fill="white" stroke="black" points="351.5,-1007 351.5,-1037 449.5,-1037 449.5,-1007 351.5,-1007"/>
<text text-anchor="start" x="359.5" y="-1025" font-family="Helvetica,sans-Serif" font-size="10.00">pdal::DeltaKernel::</text>
<text text-anchor="middle" x="400.5" y="-1014" font-family="Helvetica,sans-Serif" font-size="10.00">execute</text>
</a>
</g>
</g>
<!-- Node19&#45;&gt;Node20 -->
<g id="edge21" class="edge"><title>Node19&#45;&gt;Node20</title>
<path fill="none" stroke="midnightblue" d="M272.953,-1074.91C280.756,-1072.82 288.626,-1070.51 296,-1068 296.115,-1067.96 335.513,-1050.45 365.661,-1037.04"/>
<polygon fill="midnightblue" stroke="midnightblue" points="271.962,-1071.55 263.147,-1077.43 273.703,-1078.33 271.962,-1071.55"/>
</g>
<!-- Node21&#45;&gt;Node20 -->
<g id="edge23" class="edge"><title>Node21&#45;&gt;Node20</title>
<path fill="none" stroke="midnightblue" d="M275.974,-1010.46C300.293,-1012.73 328.179,-1015.34 351.296,-1017.5"/>
<polygon fill="midnightblue" stroke="midnightblue" points="276.077,-1006.96 265.795,-1009.51 275.426,-1013.93 276.077,-1006.96"/>
</g>
<!-- Node23 -->
<g id="node23" class="node"><title>Node23</title>
<g id="a_node23"><a xlink:href="classpdal_1_1InfoKernel.html#a402cba839f0a07e7d1b5982869ae71c5" target="_top" xlink:title="pdal::InfoKernel::dump">
<polygon fill="white" stroke="red" points="343,-965.5 343,-984.5 458,-984.5 458,-965.5 343,-965.5"/>
<text text-anchor="middle" x="400.5" y="-972.5" font-family="Helvetica,sans-Serif" font-size="10.00">pdal::InfoKernel::dump</text>
</a>
</g>
</g>
<!-- Node22&#45;&gt;Node23 -->
<g id="edge25" class="edge"><title>Node22&#45;&gt;Node23</title>
<path fill="none" stroke="midnightblue" d="M298.399,-967.223C313.351,-968.373 328.671,-969.552 342.718,-970.632"/>
<polygon fill="midnightblue" stroke="midnightblue" points="298.365,-963.71 288.126,-966.433 297.829,-970.69 298.365,-963.71"/>
</g>
<!-- Node27&#45;&gt;Node7 -->
<g id="edge31" class="edge"><title>Node27&#45;&gt;Node7</title>
<path fill="none" stroke="midnightblue" d="M275.053,-755.41C282.486,-758.523 289.693,-762.336 296,-767 318.6,-783.714 309.144,-802.638 332,-819 383.477,-855.851 420.18,-817.695 469,-858 527.015,-905.897 553.629,-997.529 562.219,-1033.74"/>
<polygon fill="midnightblue" stroke="midnightblue" points="276.16,-752.087 265.569,-751.83 273.689,-758.636 276.16,-752.087"/>
</g>
<!-- Node28 -->
<g id="node28" class="node"><title>Node28</title>
<g id="a_node28"><a xlink:href="classGDALReaderTypeTest.html#a7ccb2f33deda3d1840509c81f3718ca8" target="_top" xlink:title="GDALReaderTypeTest\l::compare">
<polygon fill="white" stroke="black" points="342.5,-779 342.5,-809 458.5,-809 458.5,-779 342.5,-779"/>
<text text-anchor="start" x="350.5" y="-797" font-family="Helvetica,sans-Serif" font-size="10.00">GDALReaderTypeTest</text>
<text text-anchor="middle" x="400.5" y="-786" font-family="Helvetica,sans-Serif" font-size="10.00">::compare</text>
</a>
</g>
</g>
<!-- Node27&#45;&gt;Node28 -->
<g id="edge30" class="edge"><title>Node27&#45;&gt;Node28</title>
<path fill="none" stroke="midnightblue" d="M275.701,-758.629C298.535,-765.153 324.55,-772.586 346.819,-778.948"/>
<polygon fill="midnightblue" stroke="midnightblue" points="276.372,-755.18 265.795,-755.799 274.449,-761.911 276.372,-755.18"/>
</g>
<!-- Node29 -->
<g id="node29" class="node"><title>Node29</title>
<g id="a_node29"><a xlink:href="classpdal_1_1PointLayout.html#ab4aae22c6b219962f56e0d316e7cadf8" target="_top" xlink:title="pdal::PointLayout::\lfindDimType">
<polygon fill="white" stroke="red" points="351.5,-867 351.5,-897 449.5,-897 449.5,-867 351.5,-867"/>
<text text-anchor="start" x="359.5" y="-885" font-family="Helvetica,sans-Serif" font-size="10.00">pdal::PointLayout::</text>
<text text-anchor="middle" x="400.5" y="-874" font-family="Helvetica,sans-Serif" font-size="10.00">findDimType</text>
</a>
</g>
</g>
<!-- Node27&#45;&gt;Node29 -->
<g id="edge32" class="edge"><title>Node27&#45;&gt;Node29</title>
<path fill="none" stroke="midnightblue" d="M275.187,-753.899C282.774,-757.24 289.989,-761.519 296,-767 326.318,-794.641 303.246,-822.736 332,-852 337.932,-858.037 345.292,-862.956 352.949,-866.931"/>
<polygon fill="midnightblue" stroke="midnightblue" points="276.393,-750.613 265.803,-750.27 273.868,-757.141 276.393,-750.613"/>
</g>
<!-- Node27&#45;&gt;Node30 -->
<g id="edge34" class="edge"><title>Node27&#45;&gt;Node30</title>
<path fill="none" stroke="midnightblue" d="M275.395,-752.857C283.084,-756.343 290.273,-760.939 296,-767 340.125,-813.697 288.659,-859.575 332,-907 335.104,-910.397 338.722,-913.313 342.638,-915.817"/>
<polygon fill="midnightblue" stroke="midnightblue" points="276.422,-749.501 265.834,-749.134 273.882,-756.024 276.422,-749.501"/>
</g>
<!-- Node31 -->
<g id="node31" class="node"><title>Node31</title>
<g id="a_node31"><a xlink:href="classpdal_1_1AssignFilter.html#ac8c6082d05ebfa787e611b836b26c15d" target="_top" xlink:title="pdal::AssignFilter\l::prepared">
<polygon fill="white" stroke="black" points="354.5,-730 354.5,-760 446.5,-760 446.5,-730 354.5,-730"/>
<text text-anchor="start" x="362.5" y="-748" font-family="Helvetica,sans-Serif" font-size="10.00">pdal::AssignFilter</text>
<text text-anchor="middle" x="400.5" y="-737" font-family="Helvetica,sans-Serif" font-size="10.00">::prepared</text>
</a>
</g>
</g>
<!-- Node27&#45;&gt;Node31 -->
<g id="edge35" class="edge"><title>Node27&#45;&gt;Node31</title>
<path fill="none" stroke="midnightblue" d="M276.051,-742.965C301.459,-743.384 330.75,-743.867 354.423,-744.257"/>
<polygon fill="midnightblue" stroke="midnightblue" points="275.851,-739.461 265.795,-742.796 275.736,-746.461 275.851,-739.461"/>
</g>
<!-- Node32 -->
<g id="node32" class="node"><title>Node32</title>
<g id="a_node32"><a xlink:href="classpdal_1_1MatlabWriter.html#a3d3313fd65d477c292798d86418e5b72" target="_top" xlink:title="pdal::MatlabWriter\l::prepared">
<polygon fill="white" stroke="black" points="352.5,-681 352.5,-711 448.5,-711 448.5,-681 352.5,-681"/>
<text text-anchor="start" x="360.5" y="-699" font-family="Helvetica,sans-Serif" font-size="10.00">pdal::MatlabWriter</text>
<text text-anchor="middle" x="400.5" y="-688" font-family="Helvetica,sans-Serif" font-size="10.00">::prepared</text>
</a>
</g>
</g>
<!-- Node27&#45;&gt;Node32 -->
<g id="edge36" class="edge"><title>Node27&#45;&gt;Node32</title>
<path fill="none" stroke="midnightblue" d="M275.769,-727.273C300.468,-721.03 328.877,-713.85 352.24,-707.945"/>
<polygon fill="midnightblue" stroke="midnightblue" points="274.632,-723.95 265.795,-729.794 276.348,-730.736 274.632,-723.95"/>
</g>
<!-- Node33 -->
<g id="node33" class="node"><title>Node33</title>
<g id="a_node33"><a xlink:href="classpdal_1_1GDALWriter.html#a2366d4db69778dbadad9b61120dcbd90" target="_top" xlink:title="pdal::GDALWriter::prepared">
<polygon fill="white" stroke="black" points="332,-642.5 332,-661.5 469,-661.5 469,-642.5 332,-642.5"/>
<text text-anchor="middle" x="400.5" y="-649.5" font-family="Helvetica,sans-Serif" font-size="10.00">pdal::GDALWriter::prepared</text>
</a>
</g>
</g>
<!-- Node27&#45;&gt;Node33 -->
<g id="edge37" class="edge"><title>Node27&#45;&gt;Node33</title>
<path fill="none" stroke="midnightblue" d="M275.579,-728.715C282.777,-725.801 289.781,-722.271 296,-718 317.401,-703.304 310.535,-686.603 332,-672 338.366,-667.669 345.687,-664.258 353.107,-661.577"/>
<polygon fill="midnightblue" stroke="midnightblue" points="273.894,-725.604 265.699,-732.318 276.293,-732.18 273.894,-725.604"/>
</g>
<!-- Node34 -->
<g id="node34" class="node"><title>Node34</title>
<g id="a_node34"><a xlink:href="classpdal_1_1PlyWriter.html#acab9a311bcabba9a9b8bf4cef5fe6c3e" target="_top" xlink:title="pdal::PlyWriter::prepared">
<polygon fill="white" stroke="black" points="338,-604.5 338,-623.5 463,-623.5 463,-604.5 338,-604.5"/>
<text text-anchor="middle" x="400.5" y="-611.5" font-family="Helvetica,sans-Serif" font-size="10.00">pdal::PlyWriter::prepared</text>
</a>
</g>
</g>
<!-- Node27&#45;&gt;Node34 -->
<g id="edge38" class="edge"><title>Node27&#45;&gt;Node34</title>
<path fill="none" stroke="midnightblue" d="M275.169,-730.876C282.758,-727.626 289.979,-723.426 296,-718 326.477,-690.536 301.218,-660.122 332,-633 336.384,-629.137 341.498,-626.054 346.913,-623.596"/>
<polygon fill="midnightblue" stroke="midnightblue" points="273.922,-727.605 265.784,-734.389 276.376,-734.161 273.922,-727.605"/>
</g>
<!-- Node29&#45;&gt;Node7 -->
<g id="edge33" class="edge"><title>Node29&#45;&gt;Node7</title>
<path fill="none" stroke="midnightblue" d="M458.779,-900.213C462.379,-902.258 465.825,-904.514 469,-907 514.293,-942.466 546.141,-1005.17 559.073,-1033.88"/>
<polygon fill="midnightblue" stroke="midnightblue" points="460.086,-896.951 449.584,-895.553 456.922,-903.195 460.086,-896.951"/>
</g>
</g>
</svg>
