<?xml version="1.0" encoding="UTF-8" standalone="no"?>
<!DOCTYPE svg PUBLIC "-//W3C//DTD SVG 1.1//EN"
 "http://www.w3.org/Graphics/SVG/1.1/DTD/svg11.dtd">
<!-- Generated by graphviz version 2.38.0 (20140413.2041)
 -->
<!-- Title: pdal::eigen::dilateDiamond Pages: 1 -->
<svg width="583pt" height="333pt"
 viewBox="0.00 0.00 583.00 333.00" xmlns="http://www.w3.org/2000/svg" xmlns:xlink="http://www.w3.org/1999/xlink">
<g id="graph0" class="graph" transform="scale(1 1) rotate(0) translate(4 329)">
<title>pdal::eigen::dilateDiamond</title>
<polygon fill="white" stroke="none" points="-4,4 -4,-329 579,-329 579,4 -4,4"/>
<!-- Node1 -->
<g id="node1" class="node"><title>Node1</title>
<polygon fill="#bfbfbf" stroke="black" points="0,-93.5 0,-112.5 132,-112.5 132,-93.5 0,-93.5"/>
<text text-anchor="middle" x="66" y="-100.5" font-family="Helvetica,sans-Serif" font-size="10.00">pdal::eigen::dilateDiamond</text>
</g>
<!-- Node2 -->
<g id="node2" class="node"><title>Node2</title>
<g id="a_node2"><a xlink:href="namespacepdal_1_1eigen.html#ab66d3e2ad4a22c909e99668dd0ab6f5d" target="_top" xlink:title="pdal::eigen::centralDiffY">
<polygon fill="white" stroke="black" points="177.5,-191.5 177.5,-210.5 299.5,-210.5 299.5,-191.5 177.5,-191.5"/>
<text text-anchor="middle" x="238.5" y="-198.5" font-family="Helvetica,sans-Serif" font-size="10.00">pdal::eigen::centralDiffY</text>
</a>
</g>
</g>
<!-- Node1&#45;&gt;Node2 -->
<g id="edge1" class="edge"><title>Node1&#45;&gt;Node2</title>
<path fill="none" stroke="midnightblue" d="M90.0024,-118.186C110.242,-131.345 140.661,-150.632 168,-166 184.252,-175.136 203.178,-184.592 217.173,-191.37"/>
<polygon fill="midnightblue" stroke="midnightblue" points="91.7526,-115.149 81.467,-112.607 87.9229,-121.008 91.7526,-115.149"/>
</g>
<!-- Node9 -->
<g id="node9" class="node"><title>Node9</title>
<g id="a_node9"><a xlink:href="classpdal_1_1SMRFilter.html#ac77707c5ba859920c8b047d22adc94d1" target="_top" xlink:title="pdal::SMRFilter::createZInet">
<polygon fill="white" stroke="black" points="168.5,-137.5 168.5,-156.5 308.5,-156.5 308.5,-137.5 168.5,-137.5"/>
<text text-anchor="middle" x="238.5" y="-144.5" font-family="Helvetica,sans-Serif" font-size="10.00">pdal::SMRFilter::createZInet</text>
</a>
</g>
</g>
<!-- Node1&#45;&gt;Node9 -->
<g id="edge13" class="edge"><title>Node1&#45;&gt;Node9</title>
<path fill="none" stroke="midnightblue" d="M113.739,-115.062C141.084,-122.118 175.122,-130.902 200.576,-137.471"/>
<polygon fill="midnightblue" stroke="midnightblue" points="114.553,-111.657 103.996,-112.547 112.804,-118.435 114.553,-111.657"/>
</g>
<!-- Node10 -->
<g id="node10" class="node"><title>Node10</title>
<g id="a_node10"><a xlink:href="classpdal_1_1PMFFilter.html#a95bf260add76b94ebbaed325d4277c53" target="_top" xlink:title="pdal::PMFFilter::process\lGround">
<polygon fill="white" stroke="black" points="176.5,-88 176.5,-118 300.5,-118 300.5,-88 176.5,-88"/>
<text text-anchor="start" x="184.5" y="-106" font-family="Helvetica,sans-Serif" font-size="10.00">pdal::PMFFilter::process</text>
<text text-anchor="middle" x="238.5" y="-95" font-family="Helvetica,sans-Serif" font-size="10.00">Ground</text>
</a>
</g>
</g>
<!-- Node1&#45;&gt;Node10 -->
<g id="edge14" class="edge"><title>Node1&#45;&gt;Node10</title>
<path fill="none" stroke="midnightblue" d="M142.71,-103C153.997,-103 165.509,-103 176.442,-103"/>
<polygon fill="midnightblue" stroke="midnightblue" points="142.432,-99.5001 132.432,-103 142.432,-106.5 142.432,-99.5001"/>
</g>
<!-- Node12 -->
<g id="node12" class="node"><title>Node12</title>
<g id="a_node12"><a xlink:href="classpdal_1_1SMRFilter.html#a65534047c67cf9aece39221e6c415f3f" target="_top" xlink:title="pdal::SMRFilter::progressive\lFilter">
<polygon fill="white" stroke="black" points="168,-39 168,-69 309,-69 309,-39 168,-39"/>
<text text-anchor="start" x="176" y="-57" font-family="Helvetica,sans-Serif" font-size="10.00">pdal::SMRFilter::progressive</text>
<text text-anchor="middle" x="238.5" y="-46" font-family="Helvetica,sans-Serif" font-size="10.00">Filter</text>
</a>
</g>
</g>
<!-- Node1&#45;&gt;Node12 -->
<g id="edge16" class="edge"><title>Node1&#45;&gt;Node12</title>
<path fill="none" stroke="midnightblue" d="M110.028,-90.6343C132.856,-84.0735 161.089,-75.9597 185.178,-69.037"/>
<polygon fill="midnightblue" stroke="midnightblue" points="108.923,-87.31 100.279,-93.436 110.857,-94.0377 108.923,-87.31"/>
</g>
<!-- Node13 -->
<g id="node13" class="node"><title>Node13</title>
<g id="a_node13"><a xlink:href="EigenTest_8cpp.html#a9c57360acee779fc88204cf13ab372c0" target="_top" xlink:title="TEST">
<polygon fill="white" stroke="black" points="217.5,-0.5 217.5,-19.5 259.5,-19.5 259.5,-0.5 217.5,-0.5"/>
<text text-anchor="middle" x="238.5" y="-7.5" font-family="Helvetica,sans-Serif" font-size="10.00">TEST</text>
</a>
</g>
</g>
<!-- Node1&#45;&gt;Node13 -->
<g id="edge17" class="edge"><title>Node1&#45;&gt;Node13</title>
<path fill="none" stroke="midnightblue" d="M85.0156,-86.593C104.254,-69.8798 136.28,-44.3064 168,-29 183.772,-21.3892 203.079,-16.4204 217.337,-13.48"/>
<polygon fill="midnightblue" stroke="midnightblue" points="82.5275,-84.121 77.3572,-93.3686 87.1659,-89.3637 82.5275,-84.121"/>
</g>
<!-- Node3 -->
<g id="node3" class="node"><title>Node3</title>
<g id="a_node3"><a xlink:href="namespacepdal_1_1eigen.html#ab53aeec07299f46c551e1cc9e2ab2d8c" target="_top" xlink:title="pdal::eigen::computeAspectFD">
<polygon fill="white" stroke="black" points="345,-305.5 345,-324.5 497,-324.5 497,-305.5 345,-305.5"/>
<text text-anchor="middle" x="421" y="-312.5" font-family="Helvetica,sans-Serif" font-size="10.00">pdal::eigen::computeAspectFD</text>
</a>
</g>
</g>
<!-- Node2&#45;&gt;Node3 -->
<g id="edge2" class="edge"><title>Node2&#45;&gt;Node3</title>
<path fill="none" stroke="midnightblue" d="M255.239,-218.038C274.603,-238.081 309.318,-271.135 345,-291 355.87,-297.052 368.489,-301.833 380.24,-305.484"/>
<polygon fill="midnightblue" stroke="midnightblue" points="257.569,-215.408 248.147,-210.563 252.491,-220.226 257.569,-215.408"/>
</g>
<!-- Node4 -->
<g id="node4" class="node"><title>Node4</title>
<g id="a_node4"><a xlink:href="EigenTest_8cpp.html#a117227755b8d6760a72ff7d416bd094f" target="_top" xlink:title="TEST">
<polygon fill="white" stroke="black" points="533,-210.5 533,-229.5 575,-229.5 575,-210.5 533,-210.5"/>
<text text-anchor="middle" x="554" y="-217.5" font-family="Helvetica,sans-Serif" font-size="10.00">TEST</text>
</a>
</g>
</g>
<!-- Node2&#45;&gt;Node4 -->
<g id="edge12" class="edge"><title>Node2&#45;&gt;Node4</title>
<path fill="none" stroke="midnightblue" d="M260.493,-216.44C280.896,-230.415 313.354,-249.998 345,-258 410.494,-274.561 432.424,-277.841 497,-258 514.97,-252.479 532.352,-239.015 542.862,-229.694"/>
<polygon fill="midnightblue" stroke="midnightblue" points="262.462,-213.546 252.268,-210.659 258.437,-219.273 262.462,-213.546"/>
</g>
<!-- Node5 -->
<g id="node5" class="node"><title>Node5</title>
<g id="a_node5"><a xlink:href="namespacepdal_1_1eigen.html#a8a54867810b638e4b6b64fd1804f00c8" target="_top" xlink:title="pdal::eigen::computeContour">
<polygon fill="white" stroke="black" points="350,-229.5 350,-248.5 492,-248.5 492,-229.5 350,-229.5"/>
<text text-anchor="middle" x="421" y="-236.5" font-family="Helvetica,sans-Serif" font-size="10.00">pdal::eigen::computeContour</text>
</a>
</g>
</g>
<!-- Node2&#45;&gt;Node5 -->
<g id="edge4" class="edge"><title>Node2&#45;&gt;Node5</title>
<path fill="none" stroke="midnightblue" d="M294.985,-212.681C320.582,-218.07 350.584,-224.386 374.78,-229.48"/>
<polygon fill="midnightblue" stroke="midnightblue" points="295.554,-209.224 285.048,-210.589 294.112,-216.074 295.554,-209.224"/>
</g>
<!-- Node6 -->
<g id="node6" class="node"><title>Node6</title>
<g id="a_node6"><a xlink:href="namespacepdal_1_1eigen.html#ae3c73acb88d80a9f0428c980b05863d4" target="_top" xlink:title="pdal::eigen::computeProfile">
<polygon fill="white" stroke="black" points="353.5,-191.5 353.5,-210.5 488.5,-210.5 488.5,-191.5 353.5,-191.5"/>
<text text-anchor="middle" x="421" y="-198.5" font-family="Helvetica,sans-Serif" font-size="10.00">pdal::eigen::computeProfile</text>
</a>
</g>
</g>
<!-- Node2&#45;&gt;Node6 -->
<g id="edge6" class="edge"><title>Node2&#45;&gt;Node6</title>
<path fill="none" stroke="midnightblue" d="M309.867,-201C324.161,-201 339.155,-201 353.317,-201"/>
<polygon fill="midnightblue" stroke="midnightblue" points="309.604,-197.5 299.604,-201 309.604,-204.5 309.604,-197.5"/>
</g>
<!-- Node7 -->
<g id="node7" class="node"><title>Node7</title>
<g id="a_node7"><a xlink:href="namespacepdal_1_1eigen.html#a3ae8ec6a3501c7f138dc35aea08da663" target="_top" xlink:title="pdal::eigen::computeSlopeFD">
<polygon fill="white" stroke="black" points="348,-153.5 348,-172.5 494,-172.5 494,-153.5 348,-153.5"/>
<text text-anchor="middle" x="421" y="-160.5" font-family="Helvetica,sans-Serif" font-size="10.00">pdal::eigen::computeSlopeFD</text>
</a>
</g>
</g>
<!-- Node2&#45;&gt;Node7 -->
<g id="edge8" class="edge"><title>Node2&#45;&gt;Node7</title>
<path fill="none" stroke="midnightblue" d="M294.985,-189.319C320.582,-183.93 350.584,-177.614 374.78,-172.52"/>
<polygon fill="midnightblue" stroke="midnightblue" points="294.112,-185.926 285.048,-191.411 295.554,-192.776 294.112,-185.926"/>
</g>
<!-- Node8 -->
<g id="node8" class="node"><title>Node8</title>
<g id="a_node8"><a xlink:href="namespacepdal_1_1eigen.html#a28f0bb391554d5ee42aa5b3f100e833d" target="_top" xlink:title="pdal::eigen::computeTangential">
<polygon fill="white" stroke="black" points="345,-115.5 345,-134.5 497,-134.5 497,-115.5 345,-115.5"/>
<text text-anchor="middle" x="421" y="-122.5" font-family="Helvetica,sans-Serif" font-size="10.00">pdal::eigen::computeTangential</text>
</a>
</g>
</g>
<!-- Node2&#45;&gt;Node8 -->
<g id="edge10" class="edge"><title>Node2&#45;&gt;Node8</title>
<path fill="none" stroke="midnightblue" d="M268.599,-187.009C281.15,-180.805 295.922,-173.273 309,-166 325.387,-156.886 327.717,-151.273 345,-144 353.914,-140.249 363.746,-137.105 373.276,-134.523"/>
<polygon fill="midnightblue" stroke="midnightblue" points="266.937,-183.926 259.498,-191.469 270.018,-190.212 266.937,-183.926"/>
</g>
<!-- Node3&#45;&gt;Node4 -->
<g id="edge3" class="edge"><title>Node3&#45;&gt;Node4</title>
<path fill="none" stroke="midnightblue" d="M476.675,-301.772C483.835,-298.836 490.821,-295.285 497,-291 520.737,-274.539 539.282,-245.062 547.836,-229.783"/>
<polygon fill="midnightblue" stroke="midnightblue" points="475.025,-298.651 466.861,-305.404 477.454,-305.215 475.025,-298.651"/>
</g>
<!-- Node5&#45;&gt;Node4 -->
<g id="edge5" class="edge"><title>Node5&#45;&gt;Node4</title>
<path fill="none" stroke="midnightblue" d="M497.862,-227.997C510.815,-226.118 523.213,-224.32 532.96,-222.907"/>
<polygon fill="midnightblue" stroke="midnightblue" points="497.278,-224.545 487.884,-229.444 498.283,-231.473 497.278,-224.545"/>
</g>
<!-- Node6&#45;&gt;Node4 -->
<g id="edge7" class="edge"><title>Node6&#45;&gt;Node4</title>
<path fill="none" stroke="midnightblue" d="M497.862,-212.003C510.815,-213.882 523.213,-215.68 532.96,-217.093"/>
<polygon fill="midnightblue" stroke="midnightblue" points="498.283,-208.527 487.884,-210.556 497.278,-215.455 498.283,-208.527"/>
</g>
<!-- Node7&#45;&gt;Node4 -->
<g id="edge9" class="edge"><title>Node7&#45;&gt;Node4</title>
<path fill="none" stroke="midnightblue" d="M479.942,-175.501C485.802,-177.408 491.584,-179.567 497,-182 513.505,-189.414 530.418,-201.659 541.275,-210.24"/>
<polygon fill="midnightblue" stroke="midnightblue" points="480.642,-172.056 470.058,-172.524 478.624,-178.759 480.642,-172.056"/>
</g>
<!-- Node8&#45;&gt;Node4 -->
<g id="edge11" class="edge"><title>Node8&#45;&gt;Node4</title>
<path fill="none" stroke="midnightblue" d="M487.217,-138.441C490.633,-140.085 493.921,-141.93 497,-144 522.57,-161.192 540.785,-194.121 548.658,-210.401"/>
<polygon fill="midnightblue" stroke="midnightblue" points="488.507,-135.187 477.931,-134.542 485.797,-141.641 488.507,-135.187"/>
</g>
<!-- Node11 -->
<g id="node11" class="node"><title>Node11</title>
<g id="a_node11"><a xlink:href="classpdal_1_1PMFFilter.html#a4763cf7d3da9db5a7d97b116c6e5bcbb" target="_top" xlink:title="pdal::PMFFilter::run">
<polygon fill="white" stroke="black" points="369.5,-77.5 369.5,-96.5 472.5,-96.5 472.5,-77.5 369.5,-77.5"/>
<text text-anchor="middle" x="421" y="-84.5" font-family="Helvetica,sans-Serif" font-size="10.00">pdal::PMFFilter::run</text>
</a>
</g>
</g>
<!-- Node10&#45;&gt;Node11 -->
<g id="edge15" class="edge"><title>Node10&#45;&gt;Node11</title>
<path fill="none" stroke="midnightblue" d="M310.74,-96.6851C330.371,-94.9449 351.26,-93.0933 369.458,-91.4802"/>
<polygon fill="midnightblue" stroke="midnightblue" points="310.261,-93.2137 300.609,-97.5831 310.879,-100.186 310.261,-93.2137"/>
</g>
</g>
</svg>
