<?xml version="1.0" encoding="UTF-8" standalone="no"?>
<!DOCTYPE svg PUBLIC "-//W3C//DTD SVG 1.1//EN"
 "http://www.w3.org/Graphics/SVG/1.1/DTD/svg11.dtd">
<!-- Generated by graphviz version 2.38.0 (20140413.2041)
 -->
<!-- Title: pdal::pg_query_result Pages: 1 -->
<svg width="634pt" height="104pt"
 viewBox="0.00 0.00 634.00 104.00" xmlns="http://www.w3.org/2000/svg" xmlns:xlink="http://www.w3.org/1999/xlink">
<g id="graph0" class="graph" transform="scale(1 1) rotate(0) translate(4 100)">
<title>pdal::pg_query_result</title>
<polygon fill="white" stroke="none" points="-4,4 -4,-100 630,-100 630,4 -4,4"/>
<!-- Node1 -->
<g id="node1" class="node"><title>Node1</title>
<polygon fill="#bfbfbf" stroke="black" points="0,-38.5 0,-57.5 110,-57.5 110,-38.5 0,-38.5"/>
<text text-anchor="middle" x="55" y="-45.5" font-family="Helvetica,sans-Serif" font-size="10.00">pdal::pg_query_result</text>
</g>
<!-- Node2 -->
<g id="node2" class="node"><title>Node2</title>
<g id="a_node2"><a xlink:href="classpdal_1_1PgReader.html#a59b7c2c5824978bf95143c00db142eca" target="_top" xlink:title="pdal::PgReader::getNumPoints">
<polygon fill="white" stroke="black" points="146,-76.5 146,-95.5 298,-95.5 298,-76.5 146,-76.5"/>
<text text-anchor="middle" x="222" y="-83.5" font-family="Helvetica,sans-Serif" font-size="10.00">pdal::PgReader::getNumPoints</text>
</a>
</g>
</g>
<!-- Node1&#45;&gt;Node2 -->
<g id="edge1" class="edge"><title>Node1&#45;&gt;Node2</title>
<path fill="none" stroke="midnightblue" d="M107.654,-59.8961C130.846,-65.2374 157.838,-71.4537 179.663,-76.4799"/>
<polygon fill="midnightblue" stroke="midnightblue" points="108.167,-56.4226 97.6365,-57.589 106.596,-63.2441 108.167,-56.4226"/>
</g>
<!-- Node4 -->
<g id="node4" class="node"><title>Node4</title>
<g id="a_node4"><a xlink:href="classpdal_1_1PgReader.html#a99ed5ebb1c9554325b5902a8c2944fbf" target="_top" xlink:title="pdal::PgReader::NextBuffer">
<polygon fill="white" stroke="black" points="153.5,-38.5 153.5,-57.5 290.5,-57.5 290.5,-38.5 153.5,-38.5"/>
<text text-anchor="middle" x="222" y="-45.5" font-family="Helvetica,sans-Serif" font-size="10.00">pdal::PgReader::NextBuffer</text>
</a>
</g>
</g>
<!-- Node1&#45;&gt;Node4 -->
<g id="edge3" class="edge"><title>Node1&#45;&gt;Node4</title>
<path fill="none" stroke="midnightblue" d="M120.253,-48C131.087,-48 142.363,-48 153.282,-48"/>
<polygon fill="midnightblue" stroke="midnightblue" points="120.027,-44.5001 110.027,-48 120.027,-51.5001 120.027,-44.5001"/>
</g>
<!-- Node6 -->
<g id="node6" class="node"><title>Node6</title>
<g id="a_node6"><a xlink:href="classpdal_1_1PgWriter.html#a53ebf855ce148dfff8b9d21e8015ee4f" target="_top" xlink:title="pdal::PgWriter::SetupSchema">
<polygon fill="white" stroke="black" points="149,-0.5 149,-19.5 295,-19.5 295,-0.5 149,-0.5"/>
<text text-anchor="middle" x="222" y="-7.5" font-family="Helvetica,sans-Serif" font-size="10.00">pdal::PgWriter::SetupSchema</text>
</a>
</g>
</g>
<!-- Node1&#45;&gt;Node6 -->
<g id="edge5" class="edge"><title>Node1&#45;&gt;Node6</title>
<path fill="none" stroke="midnightblue" d="M107.654,-36.1039C130.846,-30.7626 157.838,-24.5463 179.663,-19.5201"/>
<polygon fill="midnightblue" stroke="midnightblue" points="106.596,-32.7559 97.6365,-38.411 108.167,-39.5774 106.596,-32.7559"/>
</g>
<!-- Node3 -->
<g id="node3" class="node"><title>Node3</title>
<g id="a_node3"><a xlink:href="classpdal_1_1PgReader.html#afbcd11b4527260ff8744e96829a6f2be" target="_top" xlink:title="pdal::PgReader::getMaxPoints">
<polygon fill="white" stroke="black" points="334,-76.5 334,-95.5 484,-95.5 484,-76.5 334,-76.5"/>
<text text-anchor="middle" x="409" y="-83.5" font-family="Helvetica,sans-Serif" font-size="10.00">pdal::PgReader::getMaxPoints</text>
</a>
</g>
</g>
<!-- Node2&#45;&gt;Node3 -->
<g id="edge2" class="edge"><title>Node2&#45;&gt;Node3</title>
<path fill="none" stroke="midnightblue" d="M308.473,-86C316.904,-86 325.414,-86 333.72,-86"/>
<polygon fill="midnightblue" stroke="midnightblue" points="308.247,-82.5001 298.247,-86 308.247,-89.5001 308.247,-82.5001"/>
</g>
<!-- Node5 -->
<g id="node5" class="node"><title>Node5</title>
<g id="a_node5"><a xlink:href="classpdal_1_1PgReader.html#ac444cf6f786cfe00bd98f6b399779333" target="_top" xlink:title="pdal::PgReader::read">
<polygon fill="white" stroke="black" points="354.5,-38.5 354.5,-57.5 463.5,-57.5 463.5,-38.5 354.5,-38.5"/>
<text text-anchor="middle" x="409" y="-45.5" font-family="Helvetica,sans-Serif" font-size="10.00">pdal::PgReader::read</text>
</a>
</g>
</g>
<!-- Node4&#45;&gt;Node5 -->
<g id="edge4" class="edge"><title>Node4&#45;&gt;Node5</title>
<path fill="none" stroke="midnightblue" d="M300.764,-48C318.755,-48 337.51,-48 354.21,-48"/>
<polygon fill="midnightblue" stroke="midnightblue" points="300.575,-44.5001 290.575,-48 300.575,-51.5001 300.575,-44.5001"/>
</g>
<!-- Node7 -->
<g id="node7" class="node"><title>Node7</title>
<g id="a_node7"><a xlink:href="classpdal_1_1PgWriter.html#a533424111db08989e4d3a670e9db884f" target="_top" xlink:title="pdal::PgWriter::writeInit">
<polygon fill="white" stroke="black" points="349.5,-0.5 349.5,-19.5 468.5,-19.5 468.5,-0.5 349.5,-0.5"/>
<text text-anchor="middle" x="409" y="-7.5" font-family="Helvetica,sans-Serif" font-size="10.00">pdal::PgWriter::writeInit</text>
</a>
</g>
</g>
<!-- Node6&#45;&gt;Node7 -->
<g id="edge6" class="edge"><title>Node6&#45;&gt;Node7</title>
<path fill="none" stroke="midnightblue" d="M305.252,-10C320.089,-10 335.283,-10 349.28,-10"/>
<polygon fill="midnightblue" stroke="midnightblue" points="305.056,-6.5001 295.056,-10 305.056,-13.5001 305.056,-6.5001"/>
</g>
<!-- Node8 -->
<g id="node8" class="node"><title>Node8</title>
<g id="a_node8"><a xlink:href="classpdal_1_1PgWriter.html#a75d2fa0130cb17470e69425c0b866635" target="_top" xlink:title="pdal::PgWriter::write">
<polygon fill="white" stroke="black" points="520,-0.5 520,-19.5 626,-19.5 626,-0.5 520,-0.5"/>
<text text-anchor="middle" x="573" y="-7.5" font-family="Helvetica,sans-Serif" font-size="10.00">pdal::PgWriter::write</text>
</a>
</g>
</g>
<!-- Node7&#45;&gt;Node8 -->
<g id="edge7" class="edge"><title>Node7&#45;&gt;Node8</title>
<path fill="none" stroke="midnightblue" d="M479.228,-10C492.826,-10 506.876,-10 519.802,-10"/>
<polygon fill="midnightblue" stroke="midnightblue" points="478.944,-6.5001 468.944,-10 478.944,-13.5001 478.944,-6.5001"/>
</g>
</g>
</svg>
