<?xml version="1.0" encoding="UTF-8" standalone="no"?>
<!DOCTYPE svg PUBLIC "-//W3C//DTD SVG 1.1//EN"
 "http://www.w3.org/Graphics/SVG/1.1/DTD/svg11.dtd">
<!-- Generated by graphviz version 2.38.0 (20140413.2041)
 -->
<!-- Title: pdal::anonymous_namespace{PDALUtils::cpp}::subnodesToJSON Pages: 1 -->
<svg width="1170pt" height="277pt"
 viewBox="0.00 0.00 1170.00 277.00" xmlns="http://www.w3.org/2000/svg" xmlns:xlink="http://www.w3.org/1999/xlink">
<g id="graph0" class="graph" transform="scale(1 1) rotate(0) translate(4 273)">
<title>pdal::anonymous_namespace{PDALUtils::cpp}::subnodesToJSON</title>
<polygon fill="white" stroke="none" points="-4,4 -4,-273 1166,-273 1166,4 -4,4"/>
<!-- Node1 -->
<g id="node1" class="node"><title>Node1</title>
<polygon fill="#bfbfbf" stroke="black" points="0,-120.5 0,-150.5 177,-150.5 177,-120.5 0,-120.5"/>
<text text-anchor="start" x="8" y="-138.5" font-family="Helvetica,sans-Serif" font-size="10.00">pdal::anonymous_namespace</text>
<text text-anchor="middle" x="88.5" y="-127.5" font-family="Helvetica,sans-Serif" font-size="10.00">{PDALUtils::cpp}::subnodesToJSON</text>
</g>
<!-- Node2 -->
<g id="node2" class="node"><title>Node2</title>
<g id="a_node2"><a xlink:href="namespacepdal_1_1anonymous__namespace_02PDALUtils_8cpp_03.html#a24e6b833ca779a04307fb80c249cdf19" target="_top" xlink:title="pdal::anonymous_namespace\l\{PDALUtils::cpp\}::arrayToJSON">
<polygon fill="white" stroke="black" points="353,-191.5 353,-221.5 510,-221.5 510,-191.5 353,-191.5"/>
<text text-anchor="start" x="361" y="-209.5" font-family="Helvetica,sans-Serif" font-size="10.00">pdal::anonymous_namespace</text>
<text text-anchor="middle" x="431.5" y="-198.5" font-family="Helvetica,sans-Serif" font-size="10.00">{PDALUtils::cpp}::arrayToJSON</text>
</a>
</g>
</g>
<!-- Node1&#45;&gt;Node2 -->
<g id="edge1" class="edge"><title>Node1&#45;&gt;Node2</title>
<path fill="none" stroke="midnightblue" d="M136.059,-150.556C159.043,-157.607 187.291,-165.708 213,-171.5 255.393,-181.051 303,-189.018 342.842,-194.927"/>
<polygon fill="midnightblue" stroke="midnightblue" points="342.394,-198.398 352.796,-196.384 343.408,-191.472 342.394,-198.398"/>
</g>
<!-- Node8 -->
<g id="node8" class="node"><title>Node8</title>
<g id="a_node8"><a xlink:href="classpdal_1_1MetadataNode.html#ae9794860b91201dce86f162799d902b1" target="_top" xlink:title="pdal::MetadataNode\l::childNames">
<polygon fill="white" stroke="black" points="213,-0.5 213,-30.5 317,-30.5 317,-0.5 213,-0.5"/>
<text text-anchor="start" x="221" y="-18.5" font-family="Helvetica,sans-Serif" font-size="10.00">pdal::MetadataNode</text>
<text text-anchor="middle" x="265" y="-7.5" font-family="Helvetica,sans-Serif" font-size="10.00">::childNames</text>
</a>
</g>
</g>
<!-- Node1&#45;&gt;Node8 -->
<g id="edge8" class="edge"><title>Node1&#45;&gt;Node8</title>
<path fill="none" stroke="midnightblue" d="M109.182,-120.231C133.204,-101.813 175.293,-70.2447 213,-45.5 217.952,-42.2505 223.26,-38.9431 228.513,-35.7685"/>
<polygon fill="midnightblue" stroke="midnightblue" points="230.422,-38.705 237.228,-30.5852 226.844,-32.6886 230.422,-38.705"/>
</g>
<!-- Node9 -->
<g id="node9" class="node"><title>Node9</title>
<g id="a_node9"><a xlink:href="classpdal_1_1MetadataNode.html#ab86b0ccbf27f9eee29cbb5252e9431b7" target="_top" xlink:title="pdal::MetadataNode\l::children">
<polygon fill="white" stroke="black" points="379.5,-142.5 379.5,-172.5 483.5,-172.5 483.5,-142.5 379.5,-142.5"/>
<text text-anchor="start" x="387.5" y="-160.5" font-family="Helvetica,sans-Serif" font-size="10.00">pdal::MetadataNode</text>
<text text-anchor="middle" x="431.5" y="-149.5" font-family="Helvetica,sans-Serif" font-size="10.00">::children</text>
</a>
</g>
</g>
<!-- Node1&#45;&gt;Node9 -->
<g id="edge9" class="edge"><title>Node1&#45;&gt;Node9</title>
<path fill="none" stroke="midnightblue" d="M177.028,-150.502C189.082,-152.118 201.326,-153.526 213,-154.5 265.609,-158.888 325.618,-159.379 369.258,-158.919"/>
<polygon fill="midnightblue" stroke="midnightblue" points="369.47,-162.417 379.425,-158.792 369.382,-155.418 369.47,-162.417"/>
</g>
<!-- Node10 -->
<g id="node10" class="node"><title>Node10</title>
<g id="a_node10"><a xlink:href="classpdal_1_1MetadataNode.html#a66863365a08eb3ee538ebeb4ce788a39" target="_top" xlink:title="pdal::MetadataNode\l::kind">
<polygon fill="white" stroke="black" points="379.5,-93.5 379.5,-123.5 483.5,-123.5 483.5,-93.5 379.5,-93.5"/>
<text text-anchor="start" x="387.5" y="-111.5" font-family="Helvetica,sans-Serif" font-size="10.00">pdal::MetadataNode</text>
<text text-anchor="middle" x="431.5" y="-100.5" font-family="Helvetica,sans-Serif" font-size="10.00">::kind</text>
</a>
</g>
</g>
<!-- Node1&#45;&gt;Node10 -->
<g id="edge10" class="edge"><title>Node1&#45;&gt;Node10</title>
<path fill="none" stroke="midnightblue" d="M177.05,-120.749C189.101,-119.094 201.338,-117.608 213,-116.5 265.585,-111.505 325.597,-109.58 369.243,-108.861"/>
<polygon fill="midnightblue" stroke="midnightblue" points="369.466,-112.358 379.413,-108.71 369.362,-105.359 369.466,-112.358"/>
</g>
<!-- Node11 -->
<g id="node11" class="node"><title>Node11</title>
<g id="a_node11"><a xlink:href="classpdal_1_1MetadataNode.html#a645aadd856fb1a4ae4a12247fda3e618" target="_top" xlink:title="pdal::MetadataNode\l::name">
<polygon fill="white" stroke="black" points="379.5,-44.5 379.5,-74.5 483.5,-74.5 483.5,-44.5 379.5,-44.5"/>
<text text-anchor="start" x="387.5" y="-62.5" font-family="Helvetica,sans-Serif" font-size="10.00">pdal::MetadataNode</text>
<text text-anchor="middle" x="431.5" y="-51.5" font-family="Helvetica,sans-Serif" font-size="10.00">::name</text>
</a>
</g>
</g>
<!-- Node1&#45;&gt;Node11 -->
<g id="edge11" class="edge"><title>Node1&#45;&gt;Node11</title>
<path fill="none" stroke="midnightblue" d="M152.595,-120.456C171.958,-115.9 193.341,-110.932 213,-106.5 265.794,-94.5984 325.938,-81.6483 369.579,-72.3611"/>
<polygon fill="midnightblue" stroke="midnightblue" points="370.412,-75.7624 379.466,-70.2597 368.957,-68.9153 370.412,-75.7624"/>
</g>
<!-- Node12 -->
<g id="node12" class="node"><title>Node12</title>
<g id="a_node12"><a xlink:href="namespacepdal_1_1Utils.html#a90c7b124d5407ee4d7120e4c42b40b02" target="_top" xlink:title="pdal::Utils::toJSON">
<polygon fill="white" stroke="black" points="214,-126 214,-145 316,-145 316,-126 214,-126"/>
<text text-anchor="middle" x="265" y="-133" font-family="Helvetica,sans-Serif" font-size="10.00">pdal::Utils::toJSON</text>
</a>
</g>
</g>
<!-- Node1&#45;&gt;Node12 -->
<g id="edge12" class="edge"><title>Node1&#45;&gt;Node12</title>
<path fill="none" stroke="midnightblue" d="M177.006,-128.75C185.953,-128.752 194.897,-128.848 203.461,-129.039"/>
<polygon fill="midnightblue" stroke="midnightblue" points="203.602,-132.544 213.694,-129.319 203.793,-125.547 203.602,-132.544"/>
</g>
<!-- Node3 -->
<g id="node3" class="node"><title>Node3</title>
<g id="a_node3"><a xlink:href="namespacepdal_1_1anonymous__namespace_02PDALUtils_8cpp_03.html#ac00099447614a63b2acd68d05ee3a5c1" target="_top" xlink:title="pdal::anonymous_namespace\l\{PDALUtils::cpp\}::arrayEltToJSON">
<polygon fill="white" stroke="black" points="546,-213.5 546,-243.5 715,-243.5 715,-213.5 546,-213.5"/>
<text text-anchor="start" x="554" y="-231.5" font-family="Helvetica,sans-Serif" font-size="10.00">pdal::anonymous_namespace</text>
<text text-anchor="middle" x="630.5" y="-220.5" font-family="Helvetica,sans-Serif" font-size="10.00">{PDALUtils::cpp}::arrayEltToJSON</text>
</a>
</g>
</g>
<!-- Node2&#45;&gt;Node3 -->
<g id="edge2" class="edge"><title>Node2&#45;&gt;Node3</title>
<path fill="none" stroke="midnightblue" d="M510.077,-215.163C518.512,-216.105 527.162,-217.071 535.764,-218.032"/>
<polygon fill="midnightblue" stroke="midnightblue" points="535.496,-221.524 545.823,-219.155 536.273,-214.567 535.496,-221.524"/>
</g>
<!-- Node3&#45;&gt;Node1 -->
<g id="edge7" class="edge"><title>Node3&#45;&gt;Node1</title>
<path fill="none" stroke="midnightblue" d="M545.929,-230.077C533.873,-230.252 521.619,-230.403 510,-230.5 440.225,-231.084 422.255,-239.026 353,-230.5 289.343,-222.664 273.279,-217.409 213,-195.5 182.407,-184.381 149.312,-168.052 125.088,-155.235"/>
<polygon fill="midnightblue" stroke="midnightblue" points="126.731,-152.144 116.263,-150.513 123.429,-158.317 126.731,-152.144"/>
</g>
<!-- Node4 -->
<g id="node4" class="node"><title>Node4</title>
<g id="a_node4"><a xlink:href="classpdal_1_1MetadataNode.html#ada667c2ca1eab9957ae5c7a98fea5d02" target="_top" xlink:title="pdal::MetadataNode\l::hasChildren">
<polygon fill="white" stroke="black" points="751,-238.5 751,-268.5 855,-268.5 855,-238.5 751,-238.5"/>
<text text-anchor="start" x="759" y="-256.5" font-family="Helvetica,sans-Serif" font-size="10.00">pdal::MetadataNode</text>
<text text-anchor="middle" x="803" y="-245.5" font-family="Helvetica,sans-Serif" font-size="10.00">::hasChildren</text>
</a>
</g>
</g>
<!-- Node3&#45;&gt;Node4 -->
<g id="edge3" class="edge"><title>Node3&#45;&gt;Node4</title>
<path fill="none" stroke="midnightblue" d="M715.252,-240.78C723.873,-242.044 732.515,-243.312 740.825,-244.53"/>
<polygon fill="midnightblue" stroke="midnightblue" points="740.37,-248.001 750.772,-245.989 741.386,-241.075 740.37,-248.001"/>
</g>
<!-- Node5 -->
<g id="node5" class="node"><title>Node5</title>
<g id="a_node5"><a xlink:href="classpdal_1_1MetadataNode.html#ac936d257e7eaa30e130ad9de526b2087" target="_top" xlink:title="pdal::MetadataNode\l::jsonValue">
<polygon fill="white" stroke="black" points="751,-189.5 751,-219.5 855,-219.5 855,-189.5 751,-189.5"/>
<text text-anchor="start" x="759" y="-207.5" font-family="Helvetica,sans-Serif" font-size="10.00">pdal::MetadataNode</text>
<text text-anchor="middle" x="803" y="-196.5" font-family="Helvetica,sans-Serif" font-size="10.00">::jsonValue</text>
</a>
</g>
</g>
<!-- Node3&#45;&gt;Node5 -->
<g id="edge4" class="edge"><title>Node3&#45;&gt;Node5</title>
<path fill="none" stroke="midnightblue" d="M715.252,-216.711C723.873,-215.497 732.515,-214.281 740.825,-213.111"/>
<polygon fill="midnightblue" stroke="midnightblue" points="741.358,-216.571 750.772,-211.711 740.382,-209.639 741.358,-216.571"/>
</g>
<!-- Node6 -->
<g id="node6" class="node"><title>Node6</title>
<g id="a_node6"><a xlink:href="namespacepdal_1_1Utils.html#aabcd6b5abf9f2cd30b485fc100656663" target="_top" xlink:title="pdal::Utils::escapeJSON">
<polygon fill="white" stroke="black" points="891,-195 891,-214 1016,-214 1016,-195 891,-195"/>
<text text-anchor="middle" x="953.5" y="-202" font-family="Helvetica,sans-Serif" font-size="10.00">pdal::Utils::escapeJSON</text>
</a>
</g>
</g>
<!-- Node5&#45;&gt;Node6 -->
<g id="edge5" class="edge"><title>Node5&#45;&gt;Node6</title>
<path fill="none" stroke="midnightblue" d="M855.105,-204.5C863.367,-204.5 872.053,-204.5 880.695,-204.5"/>
<polygon fill="midnightblue" stroke="midnightblue" points="880.791,-208 890.791,-204.5 880.791,-201 880.791,-208"/>
</g>
<!-- Node7 -->
<g id="node7" class="node"><title>Node7</title>
<g id="a_node7"><a xlink:href="namespacepdal_1_1Utils.html#ac6b599972dcd3fe440ef5c476961081a" target="_top" xlink:title="pdal::Utils::remove_if">
<polygon fill="white" stroke="black" points="1052,-195 1052,-214 1162,-214 1162,-195 1052,-195"/>
<text text-anchor="middle" x="1107" y="-202" font-family="Helvetica,sans-Serif" font-size="10.00">pdal::Utils::remove_if</text>
</a>
</g>
</g>
<!-- Node6&#45;&gt;Node7 -->
<g id="edge6" class="edge"><title>Node6&#45;&gt;Node7</title>
<path fill="none" stroke="midnightblue" d="M1016.12,-204.5C1024.51,-204.5 1033.13,-204.5 1041.57,-204.5"/>
<polygon fill="midnightblue" stroke="midnightblue" points="1041.73,-208 1051.73,-204.5 1041.73,-201 1041.73,-208"/>
</g>
<!-- Node12&#45;&gt;Node1 -->
<g id="edge14" class="edge"><title>Node12&#45;&gt;Node1</title>
<path fill="none" stroke="midnightblue" d="M213.694,-141.681C205.231,-141.957 196.199,-142.133 187.014,-142.208"/>
<polygon fill="midnightblue" stroke="midnightblue" points="186.991,-138.708 177.006,-142.25 187.02,-145.708 186.991,-138.708"/>
</g>
<!-- Node12&#45;&gt;Node2 -->
<g id="edge16" class="edge"><title>Node12&#45;&gt;Node2</title>
<path fill="none" stroke="midnightblue" d="M281.944,-145.016C299.086,-154.986 327.34,-170.675 353,-181.5 358.424,-183.788 364.134,-185.993 369.894,-188.082"/>
<polygon fill="midnightblue" stroke="midnightblue" points="368.996,-191.476 379.591,-191.481 371.312,-184.871 368.996,-191.476"/>
</g>
<!-- Node12&#45;&gt;Node9 -->
<g id="edge17" class="edge"><title>Node12&#45;&gt;Node9</title>
<path fill="none" stroke="midnightblue" d="M316.249,-142.22C332.994,-144.46 351.835,-146.979 369.315,-149.317"/>
<polygon fill="midnightblue" stroke="midnightblue" points="369.047,-152.813 379.423,-150.669 369.975,-145.874 369.047,-152.813"/>
</g>
<!-- Node12&#45;&gt;Node10 -->
<g id="edge15" class="edge"><title>Node12&#45;&gt;Node10</title>
<path fill="none" stroke="midnightblue" d="M316.249,-127.252C332.994,-124.504 351.835,-121.412 369.315,-118.543"/>
<polygon fill="midnightblue" stroke="midnightblue" points="370.122,-121.957 379.423,-116.883 368.988,-115.049 370.122,-121.957"/>
</g>
<!-- Node12&#45;&gt;Node11 -->
<g id="edge13" class="edge"><title>Node12&#45;&gt;Node11</title>
<path fill="none" stroke="midnightblue" d="M279.609,-125.963C296.279,-114.617 325.68,-95.6846 353,-83.5 358.357,-81.111 364.021,-78.8642 369.752,-76.7765"/>
<polygon fill="midnightblue" stroke="midnightblue" points="371.119,-80.0065 379.415,-73.4163 368.82,-73.3948 371.119,-80.0065"/>
</g>
</g>
</svg>
