<?xml version="1.0" encoding="UTF-8" standalone="no"?>
<!DOCTYPE svg PUBLIC "-//W3C//DTD SVG 1.1//EN"
 "http://www.w3.org/Graphics/SVG/1.1/DTD/svg11.dtd">
<!-- Generated by graphviz version 2.38.0 (20140413.2041)
 -->
<!-- Title: pdal::Utils::toJSON Pages: 1 -->
<svg width="1028pt" height="268pt"
 viewBox="0.00 0.00 1028.00 268.40" xmlns="http://www.w3.org/2000/svg" xmlns:xlink="http://www.w3.org/1999/xlink">
<g id="graph0" class="graph" transform="scale(1 1) rotate(0) translate(4 264.399)">
<title>pdal::Utils::toJSON</title>
<polygon fill="white" stroke="none" points="-4,4 -4,-264.399 1024,-264.399 1024,4 -4,4"/>
<!-- Node1 -->
<g id="node1" class="node"><title>Node1</title>
<polygon fill="#bfbfbf" stroke="black" points="0,-91 0,-110 102,-110 102,-91 0,-91"/>
<text text-anchor="middle" x="51" y="-98" font-family="Helvetica,sans-Serif" font-size="10.00">pdal::Utils::toJSON</text>
</g>
<!-- Node2 -->
<g id="node2" class="node"><title>Node2</title>
<g id="a_node2"><a xlink:href="namespacepdal_1_1anonymous__namespace_02PDALUtils_8cpp_03.html#a24e6b833ca779a04307fb80c249cdf19" target="_top" xlink:title="pdal::anonymous_namespace\l\{PDALUtils::cpp\}::arrayToJSON">
<polygon fill="white" stroke="black" points="138,-138.5 138,-168.5 295,-168.5 295,-138.5 138,-138.5"/>
<text text-anchor="start" x="146" y="-156.5" font-family="Helvetica,sans-Serif" font-size="10.00">pdal::anonymous_namespace</text>
<text text-anchor="middle" x="216.5" y="-145.5" font-family="Helvetica,sans-Serif" font-size="10.00">{PDALUtils::cpp}::arrayToJSON</text>
</a>
</g>
</g>
<!-- Node1&#45;&gt;Node2 -->
<g id="edge1" class="edge"><title>Node1&#45;&gt;Node2</title>
<path fill="none" stroke="midnightblue" d="M81.6086,-110.098C103.232,-117.107 133.21,-126.825 159.318,-135.288"/>
<polygon fill="midnightblue" stroke="midnightblue" points="158.518,-138.708 169.11,-138.462 160.676,-132.049 158.518,-138.708"/>
</g>
<!-- Node8 -->
<g id="node8" class="node"><title>Node8</title>
<g id="a_node8"><a xlink:href="namespacepdal_1_1anonymous__namespace_02PDALUtils_8cpp_03.html#a9836ab34bb1a9ec78acdf0da8134082d" target="_top" xlink:title="pdal::anonymous_namespace\l\{PDALUtils::cpp\}::subnodesToJSON">
<polygon fill="white" stroke="black" points="536,-85.5 536,-115.5 713,-115.5 713,-85.5 536,-85.5"/>
<text text-anchor="start" x="544" y="-103.5" font-family="Helvetica,sans-Serif" font-size="10.00">pdal::anonymous_namespace</text>
<text text-anchor="middle" x="624.5" y="-92.5" font-family="Helvetica,sans-Serif" font-size="10.00">{PDALUtils::cpp}::subnodesToJSON</text>
</a>
</g>
</g>
<!-- Node1&#45;&gt;Node8 -->
<g id="edge17" class="edge"><title>Node1&#45;&gt;Node8</title>
<path fill="none" stroke="midnightblue" d="M102.216,-96.4698C196.795,-93.3028 402.854,-92.9016 525.68,-95.2661"/>
<polygon fill="midnightblue" stroke="midnightblue" points="525.768,-98.7685 535.837,-95.4721 525.91,-91.77 525.768,-98.7685"/>
</g>
<!-- Node10 -->
<g id="node10" class="node"><title>Node10</title>
<g id="a_node10"><a xlink:href="classpdal_1_1MetadataNode.html#ab86b0ccbf27f9eee29cbb5252e9431b7" target="_top" xlink:title="pdal::MetadataNode\l::children">
<polygon fill="white" stroke="black" points="759.5,-227.5 759.5,-257.5 863.5,-257.5 863.5,-227.5 759.5,-227.5"/>
<text text-anchor="start" x="767.5" y="-245.5" font-family="Helvetica,sans-Serif" font-size="10.00">pdal::MetadataNode</text>
<text text-anchor="middle" x="811.5" y="-234.5" font-family="Helvetica,sans-Serif" font-size="10.00">::children</text>
</a>
</g>
</g>
<!-- Node1&#45;&gt;Node10 -->
<g id="edge14" class="edge"><title>Node1&#45;&gt;Node10</title>
<path fill="none" stroke="midnightblue" d="M59.6225,-110.09C73.3801,-126.687 104.1,-160.606 138,-177.5 342.992,-279.656 626.513,-263.791 749.511,-250.511"/>
<polygon fill="midnightblue" stroke="midnightblue" points="749.947,-253.985 759.499,-249.4 749.173,-247.027 749.947,-253.985"/>
</g>
<!-- Node11 -->
<g id="node11" class="node"><title>Node11</title>
<g id="a_node11"><a xlink:href="classpdal_1_1MetadataNode.html#a66863365a08eb3ee538ebeb4ce788a39" target="_top" xlink:title="pdal::MetadataNode\l::kind">
<polygon fill="white" stroke="black" points="759.5,-49.5 759.5,-79.5 863.5,-79.5 863.5,-49.5 759.5,-49.5"/>
<text text-anchor="start" x="767.5" y="-67.5" font-family="Helvetica,sans-Serif" font-size="10.00">pdal::MetadataNode</text>
<text text-anchor="middle" x="811.5" y="-56.5" font-family="Helvetica,sans-Serif" font-size="10.00">::kind</text>
</a>
</g>
</g>
<!-- Node1&#45;&gt;Node11 -->
<g id="edge15" class="edge"><title>Node1&#45;&gt;Node11</title>
<path fill="none" stroke="midnightblue" d="M102.158,-97.7178C190.035,-92.8862 377.563,-82.7661 536,-75.5 609.334,-72.1368 693.716,-68.8413 749.351,-66.7479"/>
<polygon fill="midnightblue" stroke="midnightblue" points="749.533,-70.2437 759.395,-66.3713 749.271,-63.2486 749.533,-70.2437"/>
</g>
<!-- Node12 -->
<g id="node12" class="node"><title>Node12</title>
<g id="a_node12"><a xlink:href="classpdal_1_1MetadataNode.html#a645aadd856fb1a4ae4a12247fda3e618" target="_top" xlink:title="pdal::MetadataNode\l::name">
<polygon fill="white" stroke="black" points="759.5,-0.5 759.5,-30.5 863.5,-30.5 863.5,-0.5 759.5,-0.5"/>
<text text-anchor="start" x="767.5" y="-18.5" font-family="Helvetica,sans-Serif" font-size="10.00">pdal::MetadataNode</text>
<text text-anchor="middle" x="811.5" y="-7.5" font-family="Helvetica,sans-Serif" font-size="10.00">::name</text>
</a>
</g>
</g>
<!-- Node1&#45;&gt;Node12 -->
<g id="edge16" class="edge"><title>Node1&#45;&gt;Node12</title>
<path fill="none" stroke="midnightblue" d="M96.0535,-90.9617C109.475,-88.2801 124.302,-85.5418 138,-83.5 361.924,-50.123 630.284,-28.433 748.927,-19.7711"/>
<polygon fill="midnightblue" stroke="midnightblue" points="749.534,-23.2364 759.255,-19.0225 749.028,-16.2547 749.534,-23.2364"/>
</g>
<!-- Node3 -->
<g id="node3" class="node"><title>Node3</title>
<g id="a_node3"><a xlink:href="namespacepdal_1_1anonymous__namespace_02PDALUtils_8cpp_03.html#ac00099447614a63b2acd68d05ee3a5c1" target="_top" xlink:title="pdal::anonymous_namespace\l\{PDALUtils::cpp\}::arrayEltToJSON">
<polygon fill="white" stroke="black" points="331,-176.5 331,-206.5 500,-206.5 500,-176.5 331,-176.5"/>
<text text-anchor="start" x="339" y="-194.5" font-family="Helvetica,sans-Serif" font-size="10.00">pdal::anonymous_namespace</text>
<text text-anchor="middle" x="415.5" y="-183.5" font-family="Helvetica,sans-Serif" font-size="10.00">{PDALUtils::cpp}::arrayEltToJSON</text>
</a>
</g>
</g>
<!-- Node2&#45;&gt;Node3 -->
<g id="edge2" class="edge"><title>Node2&#45;&gt;Node3</title>
<path fill="none" stroke="midnightblue" d="M295.077,-168.464C305.439,-170.463 316.126,-172.524 326.648,-174.554"/>
<polygon fill="midnightblue" stroke="midnightblue" points="326.189,-178.03 336.671,-176.487 327.515,-171.157 326.189,-178.03"/>
</g>
<!-- Node4 -->
<g id="node4" class="node"><title>Node4</title>
<g id="a_node4"><a xlink:href="classpdal_1_1MetadataNode.html#ada667c2ca1eab9957ae5c7a98fea5d02" target="_top" xlink:title="pdal::MetadataNode\l::hasChildren">
<polygon fill="white" stroke="black" points="572.5,-134.5 572.5,-164.5 676.5,-164.5 676.5,-134.5 572.5,-134.5"/>
<text text-anchor="start" x="580.5" y="-152.5" font-family="Helvetica,sans-Serif" font-size="10.00">pdal::MetadataNode</text>
<text text-anchor="middle" x="624.5" y="-141.5" font-family="Helvetica,sans-Serif" font-size="10.00">::hasChildren</text>
</a>
</g>
</g>
<!-- Node3&#45;&gt;Node4 -->
<g id="edge3" class="edge"><title>Node3&#45;&gt;Node4</title>
<path fill="none" stroke="midnightblue" d="M490.647,-176.456C514.087,-171.7 539.717,-166.499 562.158,-161.946"/>
<polygon fill="midnightblue" stroke="midnightblue" points="563.12,-165.322 572.224,-159.904 561.728,-158.462 563.12,-165.322"/>
</g>
<!-- Node5 -->
<g id="node5" class="node"><title>Node5</title>
<g id="a_node5"><a xlink:href="classpdal_1_1MetadataNode.html#ac936d257e7eaa30e130ad9de526b2087" target="_top" xlink:title="pdal::MetadataNode\l::jsonValue">
<polygon fill="white" stroke="black" points="572.5,-183.5 572.5,-213.5 676.5,-213.5 676.5,-183.5 572.5,-183.5"/>
<text text-anchor="start" x="580.5" y="-201.5" font-family="Helvetica,sans-Serif" font-size="10.00">pdal::MetadataNode</text>
<text text-anchor="middle" x="624.5" y="-190.5" font-family="Helvetica,sans-Serif" font-size="10.00">::jsonValue</text>
</a>
</g>
</g>
<!-- Node3&#45;&gt;Node5 -->
<g id="edge4" class="edge"><title>Node3&#45;&gt;Node5</title>
<path fill="none" stroke="midnightblue" d="M500.098,-194.327C520.833,-195.028 542.675,-195.767 562.124,-196.424"/>
<polygon fill="midnightblue" stroke="midnightblue" points="562.246,-199.931 572.358,-196.771 562.482,-192.935 562.246,-199.931"/>
</g>
<!-- Node3&#45;&gt;Node8 -->
<g id="edge7" class="edge"><title>Node3&#45;&gt;Node8</title>
<path fill="none" stroke="midnightblue" d="M469.887,-176.418C480.287,-172.364 490.804,-167.42 500,-161.5 519.292,-149.08 516.243,-136.166 536,-124.5 539.007,-122.724 542.15,-121.076 545.382,-119.546"/>
<polygon fill="midnightblue" stroke="midnightblue" points="546.886,-122.71 554.69,-115.543 544.12,-116.279 546.886,-122.71"/>
</g>
<!-- Node6 -->
<g id="node6" class="node"><title>Node6</title>
<g id="a_node6"><a xlink:href="namespacepdal_1_1Utils.html#aabcd6b5abf9f2cd30b485fc100656663" target="_top" xlink:title="pdal::Utils::escapeJSON">
<polygon fill="white" stroke="black" points="749,-189 749,-208 874,-208 874,-189 749,-189"/>
<text text-anchor="middle" x="811.5" y="-196" font-family="Helvetica,sans-Serif" font-size="10.00">pdal::Utils::escapeJSON</text>
</a>
</g>
</g>
<!-- Node5&#45;&gt;Node6 -->
<g id="edge5" class="edge"><title>Node5&#45;&gt;Node6</title>
<path fill="none" stroke="midnightblue" d="M676.542,-198.5C695.751,-198.5 717.968,-198.5 738.719,-198.5"/>
<polygon fill="midnightblue" stroke="midnightblue" points="738.768,-202 748.768,-198.5 738.768,-195 738.768,-202"/>
</g>
<!-- Node7 -->
<g id="node7" class="node"><title>Node7</title>
<g id="a_node7"><a xlink:href="namespacepdal_1_1Utils.html#ac6b599972dcd3fe440ef5c476961081a" target="_top" xlink:title="pdal::Utils::remove_if">
<polygon fill="white" stroke="black" points="910,-189 910,-208 1020,-208 1020,-189 910,-189"/>
<text text-anchor="middle" x="965" y="-196" font-family="Helvetica,sans-Serif" font-size="10.00">pdal::Utils::remove_if</text>
</a>
</g>
</g>
<!-- Node6&#45;&gt;Node7 -->
<g id="edge6" class="edge"><title>Node6&#45;&gt;Node7</title>
<path fill="none" stroke="midnightblue" d="M874.121,-198.5C882.508,-198.5 891.134,-198.5 899.568,-198.5"/>
<polygon fill="midnightblue" stroke="midnightblue" points="899.733,-202 909.733,-198.5 899.733,-195 899.733,-202"/>
</g>
<!-- Node8&#45;&gt;Node1 -->
<g id="edge13" class="edge"><title>Node8&#45;&gt;Node1</title>
<path fill="none" stroke="midnightblue" d="M535.837,-105.528C418.556,-108.033 213.633,-107.805 112.284,-104.845"/>
<polygon fill="midnightblue" stroke="midnightblue" points="112.32,-101.344 102.216,-104.53 112.102,-108.341 112.32,-101.344"/>
</g>
<!-- Node8&#45;&gt;Node2 -->
<g id="edge8" class="edge"><title>Node8&#45;&gt;Node2</title>
<path fill="none" stroke="midnightblue" d="M547.893,-115.55C532.105,-118.42 515.538,-121.232 500,-123.5 434.989,-132.991 361.145,-140.727 305.262,-145.966"/>
<polygon fill="midnightblue" stroke="midnightblue" points="304.676,-142.505 295.043,-146.914 305.324,-149.475 304.676,-142.505"/>
</g>
<!-- Node9 -->
<g id="node9" class="node"><title>Node9</title>
<g id="a_node9"><a xlink:href="classpdal_1_1MetadataNode.html#ae9794860b91201dce86f162799d902b1" target="_top" xlink:title="pdal::MetadataNode\l::childNames">
<polygon fill="white" stroke="black" points="759.5,-98.5 759.5,-128.5 863.5,-128.5 863.5,-98.5 759.5,-98.5"/>
<text text-anchor="start" x="767.5" y="-116.5" font-family="Helvetica,sans-Serif" font-size="10.00">pdal::MetadataNode</text>
<text text-anchor="middle" x="811.5" y="-105.5" font-family="Helvetica,sans-Serif" font-size="10.00">::childNames</text>
</a>
</g>
</g>
<!-- Node8&#45;&gt;Node9 -->
<g id="edge9" class="edge"><title>Node8&#45;&gt;Node9</title>
<path fill="none" stroke="midnightblue" d="M713.124,-106.657C725.404,-107.52 737.798,-108.391 749.439,-109.209"/>
<polygon fill="midnightblue" stroke="midnightblue" points="749.232,-112.703 759.452,-109.913 749.722,-105.72 749.232,-112.703"/>
</g>
<!-- Node8&#45;&gt;Node10 -->
<g id="edge10" class="edge"><title>Node8&#45;&gt;Node10</title>
<path fill="none" stroke="midnightblue" d="M700.648,-115.708C705.087,-118.212 709.259,-121.121 713,-124.5 745.892,-154.208 717.923,-185.898 749,-217.5 750.424,-218.948 751.944,-220.316 753.539,-221.607"/>
<polygon fill="midnightblue" stroke="midnightblue" points="751.825,-224.675 762.052,-227.442 755.783,-218.901 751.825,-224.675"/>
</g>
<!-- Node8&#45;&gt;Node11 -->
<g id="edge11" class="edge"><title>Node8&#45;&gt;Node11</title>
<path fill="none" stroke="midnightblue" d="M702.617,-85.4934C718.164,-82.4681 734.308,-79.3266 749.224,-76.424"/>
<polygon fill="midnightblue" stroke="midnightblue" points="750.185,-79.8027 759.332,-74.457 748.848,-72.9316 750.185,-79.8027"/>
</g>
<!-- Node8&#45;&gt;Node12 -->
<g id="edge12" class="edge"><title>Node8&#45;&gt;Node12</title>
<path fill="none" stroke="midnightblue" d="M654.112,-85.487C678.93,-72.6773 715.961,-54.0731 749,-39.5 752.834,-37.8088 756.828,-36.1111 760.857,-34.4433"/>
<polygon fill="midnightblue" stroke="midnightblue" points="762.316,-37.6285 770.264,-30.6231 759.682,-31.1428 762.316,-37.6285"/>
</g>
</g>
</svg>
