<?xml version="1.0" encoding="UTF-8" standalone="no"?>
<!DOCTYPE svg PUBLIC "-//W3C//DTD SVG 1.1//EN"
 "http://www.w3.org/Graphics/SVG/1.1/DTD/svg11.dtd">
<!-- Generated by graphviz version 2.38.0 (20140413.2041)
 -->
<!-- Title: pdal::eigen::computeCovariance Pages: 1 -->
<svg width="762pt" height="309pt"
 viewBox="0.00 0.00 762.00 309.00" xmlns="http://www.w3.org/2000/svg" xmlns:xlink="http://www.w3.org/1999/xlink">
<g id="graph0" class="graph" transform="scale(1 1) rotate(0) translate(4 305)">
<title>pdal::eigen::computeCovariance</title>
<polygon fill="white" stroke="none" points="-4,4 -4,-305 758,-305 758,4 -4,4"/>
<!-- Node1 -->
<g id="node1" class="node"><title>Node1</title>
<polygon fill="#bfbfbf" stroke="black" points="0,-112.5 0,-131.5 157,-131.5 157,-112.5 0,-112.5"/>
<text text-anchor="middle" x="78.5" y="-119.5" font-family="Helvetica,sans-Serif" font-size="10.00">pdal::eigen::computeCovariance</text>
</g>
<!-- Node2 -->
<g id="node2" class="node"><title>Node2</title>
<g id="a_node2"><a xlink:href="namespacepdal_1_1eigen.html#a19247293524a59ec2c829c20fca832f7" target="_top" xlink:title="pdal::eigen::computeRank">
<polygon fill="white" stroke="black" points="194.5,-181.5 194.5,-200.5 325.5,-200.5 325.5,-181.5 194.5,-181.5"/>
<text text-anchor="middle" x="260" y="-188.5" font-family="Helvetica,sans-Serif" font-size="10.00">pdal::eigen::computeRank</text>
</a>
</g>
</g>
<!-- Node1&#45;&gt;Node2 -->
<g id="edge1" class="edge"><title>Node1&#45;&gt;Node2</title>
<path fill="none" stroke="midnightblue" d="M108.338,-135.995C131.02,-146.685 163.595,-161.346 193,-172 202.417,-175.412 212.76,-178.631 222.407,-181.415"/>
<polygon fill="midnightblue" stroke="midnightblue" points="109.795,-132.812 99.2605,-131.679 106.789,-139.134 109.795,-132.812"/>
</g>
<!-- Node11 -->
<g id="node11" class="node"><title>Node11</title>
<g id="a_node11"><a xlink:href="classpdal_1_1EigenvaluesFilter.html#ace1cf82ccbdbeb69c62e0be58464e2ef" target="_top" xlink:title="pdal::EigenvaluesFilter\l::filter">
<polygon fill="white" stroke="black" points="202,-132 202,-162 318,-162 318,-132 202,-132"/>
<text text-anchor="start" x="210" y="-150" font-family="Helvetica,sans-Serif" font-size="10.00">pdal::EigenvaluesFilter</text>
<text text-anchor="middle" x="260" y="-139" font-family="Helvetica,sans-Serif" font-size="10.00">::filter</text>
</a>
</g>
</g>
<!-- Node1&#45;&gt;Node11 -->
<g id="edge15" class="edge"><title>Node1&#45;&gt;Node11</title>
<path fill="none" stroke="midnightblue" d="M158.011,-132.935C172.778,-134.991 187.957,-137.105 201.916,-139.05"/>
<polygon fill="midnightblue" stroke="midnightblue" points="158.261,-129.436 147.873,-131.523 157.295,-136.369 158.261,-129.436"/>
</g>
<!-- Node12 -->
<g id="node12" class="node"><title>Node12</title>
<g id="a_node12"><a xlink:href="classpdal_1_1ApproximateCoplanarFilter.html#ae6d624215959d717deb5fecc9fe13764" target="_top" xlink:title="pdal::ApproximateCoplanar\lFilter::filter">
<polygon fill="white" stroke="black" points="193,-83 193,-113 327,-113 327,-83 193,-83"/>
<text text-anchor="start" x="201" y="-101" font-family="Helvetica,sans-Serif" font-size="10.00">pdal::ApproximateCoplanar</text>
<text text-anchor="middle" x="260" y="-90" font-family="Helvetica,sans-Serif" font-size="10.00">Filter::filter</text>
</a>
</g>
</g>
<!-- Node1&#45;&gt;Node12 -->
<g id="edge16" class="edge"><title>Node1&#45;&gt;Node12</title>
<path fill="none" stroke="midnightblue" d="M160.889,-111.118C171.587,-109.688 182.444,-108.236 192.847,-106.845"/>
<polygon fill="midnightblue" stroke="midnightblue" points="160.149,-107.686 150.701,-112.48 161.077,-114.624 160.149,-107.686"/>
</g>
<!-- Node13 -->
<g id="node13" class="node"><title>Node13</title>
<g id="a_node13"><a xlink:href="classpdal_1_1NormalFilter.html#a8bf36602629c8ff4ba8d7563b444aa2d" target="_top" xlink:title="pdal::NormalFilter\l::filter">
<polygon fill="white" stroke="black" points="213,-34 213,-64 307,-64 307,-34 213,-34"/>
<text text-anchor="start" x="221" y="-52" font-family="Helvetica,sans-Serif" font-size="10.00">pdal::NormalFilter</text>
<text text-anchor="middle" x="260" y="-41" font-family="Helvetica,sans-Serif" font-size="10.00">::filter</text>
</a>
</g>
</g>
<!-- Node1&#45;&gt;Node13 -->
<g id="edge17" class="edge"><title>Node1&#45;&gt;Node13</title>
<path fill="none" stroke="midnightblue" d="M109.827,-108.331C132.572,-98.2199 164.552,-84.302 193,-73 200.478,-70.029 208.488,-66.9947 216.257,-64.1272"/>
<polygon fill="midnightblue" stroke="midnightblue" points="108.387,-105.141 100.681,-112.412 111.24,-111.533 108.387,-105.141"/>
</g>
<!-- Node3 -->
<g id="node3" class="node"><title>Node3</title>
<g id="a_node3"><a xlink:href="classpdal_1_1EstimateRankFilter.html#a6d3b3cd97dc8c5b575a210b5d77df162" target="_top" xlink:title="pdal::EstimateRankFilter\l::filter">
<polygon fill="white" stroke="black" points="363,-217 363,-247 488,-247 488,-217 363,-217"/>
<text text-anchor="start" x="371" y="-235" font-family="Helvetica,sans-Serif" font-size="10.00">pdal::EstimateRankFilter</text>
<text text-anchor="middle" x="425.5" y="-224" font-family="Helvetica,sans-Serif" font-size="10.00">::filter</text>
</a>
</g>
</g>
<!-- Node2&#45;&gt;Node3 -->
<g id="edge2" class="edge"><title>Node2&#45;&gt;Node3</title>
<path fill="none" stroke="midnightblue" d="M308.834,-202.995C326.21,-207.352 346.071,-212.333 364.373,-216.922"/>
<polygon fill="midnightblue" stroke="midnightblue" points="309.472,-199.547 298.921,-200.509 307.769,-206.337 309.472,-199.547"/>
</g>
<!-- Node4 -->
<g id="node4" class="node"><title>Node4</title>
<g id="a_node4"><a xlink:href="namespacepdal_1_1eigen.html#ab66d3e2ad4a22c909e99668dd0ab6f5d" target="_top" xlink:title="pdal::eigen::centralDiffY">
<polygon fill="white" stroke="black" points="364.5,-178.5 364.5,-197.5 486.5,-197.5 486.5,-178.5 364.5,-178.5"/>
<text text-anchor="middle" x="425.5" y="-185.5" font-family="Helvetica,sans-Serif" font-size="10.00">pdal::eigen::centralDiffY</text>
</a>
</g>
</g>
<!-- Node2&#45;&gt;Node4 -->
<g id="edge3" class="edge"><title>Node2&#45;&gt;Node4</title>
<path fill="none" stroke="midnightblue" d="M335.89,-189.626C345.422,-189.451 355.081,-189.274 364.341,-189.104"/>
<polygon fill="midnightblue" stroke="midnightblue" points="335.554,-186.131 325.62,-189.814 335.682,-193.13 335.554,-186.131"/>
</g>
<!-- Node5 -->
<g id="node5" class="node"><title>Node5</title>
<g id="a_node5"><a xlink:href="namespacepdal_1_1eigen.html#ab53aeec07299f46c551e1cc9e2ab2d8c" target="_top" xlink:title="pdal::eigen::computeAspectFD">
<polygon fill="white" stroke="black" points="524,-281.5 524,-300.5 676,-300.5 676,-281.5 524,-281.5"/>
<text text-anchor="middle" x="600" y="-288.5" font-family="Helvetica,sans-Serif" font-size="10.00">pdal::eigen::computeAspectFD</text>
</a>
</g>
</g>
<!-- Node4&#45;&gt;Node5 -->
<g id="edge4" class="edge"><title>Node4&#45;&gt;Node5</title>
<path fill="none" stroke="midnightblue" d="M478.599,-201.87C481.925,-203.674 485.098,-205.707 488,-208 512.103,-227.044 499.852,-248.013 524,-267 532.06,-273.338 541.835,-278.022 551.628,-281.477"/>
<polygon fill="midnightblue" stroke="midnightblue" points="480.056,-198.688 469.515,-197.614 477.086,-205.026 480.056,-198.688"/>
</g>
<!-- Node6 -->
<g id="node6" class="node"><title>Node6</title>
<g id="a_node6"><a xlink:href="EigenTest_8cpp.html#a117227755b8d6760a72ff7d416bd094f" target="_top" xlink:title="TEST">
<polygon fill="white" stroke="black" points="712,-186.5 712,-205.5 754,-205.5 754,-186.5 712,-186.5"/>
<text text-anchor="middle" x="733" y="-193.5" font-family="Helvetica,sans-Serif" font-size="10.00">TEST</text>
</a>
</g>
</g>
<!-- Node4&#45;&gt;Node6 -->
<g id="edge14" class="edge"><title>Node4&#45;&gt;Node6</title>
<path fill="none" stroke="midnightblue" d="M472.155,-201.071C477.599,-203.146 482.995,-205.458 488,-208 505.597,-216.938 505.221,-227.928 524,-234 588.279,-254.785 611.424,-253.841 676,-234 693.97,-228.479 711.352,-215.015 721.862,-205.694"/>
<polygon fill="midnightblue" stroke="midnightblue" points="472.975,-197.648 462.381,-197.594 470.629,-204.243 472.975,-197.648"/>
</g>
<!-- Node7 -->
<g id="node7" class="node"><title>Node7</title>
<g id="a_node7"><a xlink:href="namespacepdal_1_1eigen.html#a8a54867810b638e4b6b64fd1804f00c8" target="_top" xlink:title="pdal::eigen::computeContour">
<polygon fill="white" stroke="black" points="529,-205.5 529,-224.5 671,-224.5 671,-205.5 529,-205.5"/>
<text text-anchor="middle" x="600" y="-212.5" font-family="Helvetica,sans-Serif" font-size="10.00">pdal::eigen::computeContour</text>
</a>
</g>
</g>
<!-- Node4&#45;&gt;Node7 -->
<g id="edge6" class="edge"><title>Node4&#45;&gt;Node7</title>
<path fill="none" stroke="midnightblue" d="M497.108,-199.052C510.713,-201.181 524.855,-203.395 538.118,-205.471"/>
<polygon fill="midnightblue" stroke="midnightblue" points="497.253,-195.532 486.832,-197.443 496.171,-202.448 497.253,-195.532"/>
</g>
<!-- Node8 -->
<g id="node8" class="node"><title>Node8</title>
<g id="a_node8"><a xlink:href="namespacepdal_1_1eigen.html#ae3c73acb88d80a9f0428c980b05863d4" target="_top" xlink:title="pdal::eigen::computeProfile">
<polygon fill="white" stroke="black" points="532.5,-167.5 532.5,-186.5 667.5,-186.5 667.5,-167.5 532.5,-167.5"/>
<text text-anchor="middle" x="600" y="-174.5" font-family="Helvetica,sans-Serif" font-size="10.00">pdal::eigen::computeProfile</text>
</a>
</g>
</g>
<!-- Node4&#45;&gt;Node8 -->
<g id="edge8" class="edge"><title>Node4&#45;&gt;Node8</title>
<path fill="none" stroke="midnightblue" d="M496.951,-183.507C508.608,-182.764 520.663,-181.995 532.226,-181.258"/>
<polygon fill="midnightblue" stroke="midnightblue" points="496.589,-180.023 486.832,-184.153 497.035,-187.009 496.589,-180.023"/>
</g>
<!-- Node9 -->
<g id="node9" class="node"><title>Node9</title>
<g id="a_node9"><a xlink:href="namespacepdal_1_1eigen.html#a3ae8ec6a3501c7f138dc35aea08da663" target="_top" xlink:title="pdal::eigen::computeSlopeFD">
<polygon fill="white" stroke="black" points="527,-129.5 527,-148.5 673,-148.5 673,-129.5 527,-129.5"/>
<text text-anchor="middle" x="600" y="-136.5" font-family="Helvetica,sans-Serif" font-size="10.00">pdal::eigen::computeSlopeFD</text>
</a>
</g>
</g>
<!-- Node4&#45;&gt;Node9 -->
<g id="edge10" class="edge"><title>Node4&#45;&gt;Node9</title>
<path fill="none" stroke="midnightblue" d="M466.206,-175.286C483.845,-169.767 504.898,-163.355 524,-158 535.511,-154.773 548.083,-151.494 559.587,-148.588"/>
<polygon fill="midnightblue" stroke="midnightblue" points="464.744,-172.078 456.256,-178.418 466.845,-178.755 464.744,-172.078"/>
</g>
<!-- Node10 -->
<g id="node10" class="node"><title>Node10</title>
<g id="a_node10"><a xlink:href="namespacepdal_1_1eigen.html#a28f0bb391554d5ee42aa5b3f100e833d" target="_top" xlink:title="pdal::eigen::computeTangential">
<polygon fill="white" stroke="black" points="524,-91.5 524,-110.5 676,-110.5 676,-91.5 524,-91.5"/>
<text text-anchor="middle" x="600" y="-98.5" font-family="Helvetica,sans-Serif" font-size="10.00">pdal::eigen::computeTangential</text>
</a>
</g>
</g>
<!-- Node4&#45;&gt;Node10 -->
<g id="edge12" class="edge"><title>Node4&#45;&gt;Node10</title>
<path fill="none" stroke="midnightblue" d="M445.139,-171.894C463.888,-156.477 494.211,-133.61 524,-120 532.308,-116.204 541.494,-113.085 550.505,-110.549"/>
<polygon fill="midnightblue" stroke="midnightblue" points="442.8,-169.288 437.383,-178.394 447.296,-174.654 442.8,-169.288"/>
</g>
<!-- Node5&#45;&gt;Node6 -->
<g id="edge5" class="edge"><title>Node5&#45;&gt;Node6</title>
<path fill="none" stroke="midnightblue" d="M655.675,-277.772C662.835,-274.836 669.821,-271.285 676,-267 699.737,-250.539 718.282,-221.062 726.836,-205.783"/>
<polygon fill="midnightblue" stroke="midnightblue" points="654.025,-274.651 645.861,-281.404 656.454,-281.215 654.025,-274.651"/>
</g>
<!-- Node7&#45;&gt;Node6 -->
<g id="edge7" class="edge"><title>Node7&#45;&gt;Node6</title>
<path fill="none" stroke="midnightblue" d="M676.862,-203.997C689.815,-202.118 702.213,-200.32 711.96,-198.907"/>
<polygon fill="midnightblue" stroke="midnightblue" points="676.278,-200.545 666.884,-205.444 677.283,-207.473 676.278,-200.545"/>
</g>
<!-- Node8&#45;&gt;Node6 -->
<g id="edge9" class="edge"><title>Node8&#45;&gt;Node6</title>
<path fill="none" stroke="midnightblue" d="M676.862,-188.003C689.815,-189.882 702.213,-191.68 711.96,-193.093"/>
<polygon fill="midnightblue" stroke="midnightblue" points="677.283,-184.527 666.884,-186.556 676.278,-191.455 677.283,-184.527"/>
</g>
<!-- Node9&#45;&gt;Node6 -->
<g id="edge11" class="edge"><title>Node9&#45;&gt;Node6</title>
<path fill="none" stroke="midnightblue" d="M658.942,-151.501C664.802,-153.408 670.584,-155.567 676,-158 692.505,-165.414 709.418,-177.659 720.275,-186.24"/>
<polygon fill="midnightblue" stroke="midnightblue" points="659.642,-148.056 649.058,-148.524 657.624,-154.759 659.642,-148.056"/>
</g>
<!-- Node10&#45;&gt;Node6 -->
<g id="edge13" class="edge"><title>Node10&#45;&gt;Node6</title>
<path fill="none" stroke="midnightblue" d="M666.217,-114.441C669.633,-116.085 672.921,-117.93 676,-120 701.57,-137.192 719.785,-170.121 727.658,-186.401"/>
<polygon fill="midnightblue" stroke="midnightblue" points="667.507,-111.187 656.931,-110.542 664.797,-117.641 667.507,-111.187"/>
</g>
<!-- Node14 -->
<g id="node14" class="node"><title>Node14</title>
<g id="a_node14"><a xlink:href="classpdal_1_1NormalFilter.html#a185fb796093e0397afbd0b7c6a1813a8" target="_top" xlink:title="pdal::NormalFilter\l::doFilter">
<polygon fill="white" stroke="black" points="378.5,-34 378.5,-64 472.5,-64 472.5,-34 378.5,-34"/>
<text text-anchor="start" x="386.5" y="-52" font-family="Helvetica,sans-Serif" font-size="10.00">pdal::NormalFilter</text>
<text text-anchor="middle" x="425.5" y="-41" font-family="Helvetica,sans-Serif" font-size="10.00">::doFilter</text>
</a>
</g>
</g>
<!-- Node13&#45;&gt;Node14 -->
<g id="edge18" class="edge"><title>Node13&#45;&gt;Node14</title>
<path fill="none" stroke="midnightblue" d="M317.551,-49C337.369,-49 359.377,-49 378.252,-49"/>
<polygon fill="midnightblue" stroke="midnightblue" points="317.415,-45.5001 307.415,-49 317.415,-52.5001 317.415,-45.5001"/>
</g>
<!-- Node15 -->
<g id="node15" class="node"><title>Node15</title>
<g id="a_node15"><a xlink:href="classpdal_1_1GreedyProjection.html#aa0de48c450a56b726634e29d28fd5427" target="_top" xlink:title="pdal::GreedyProjection\l::filter">
<polygon fill="white" stroke="black" points="542,-39 542,-69 658,-69 658,-39 542,-39"/>
<text text-anchor="start" x="550" y="-57" font-family="Helvetica,sans-Serif" font-size="10.00">pdal::GreedyProjection</text>
<text text-anchor="middle" x="600" y="-46" font-family="Helvetica,sans-Serif" font-size="10.00">::filter</text>
</a>
</g>
</g>
<!-- Node14&#45;&gt;Node15 -->
<g id="edge19" class="edge"><title>Node14&#45;&gt;Node15</title>
<path fill="none" stroke="midnightblue" d="M482.969,-50.6368C501.856,-51.1842 522.915,-51.7946 541.854,-52.3436"/>
<polygon fill="midnightblue" stroke="midnightblue" points="482.824,-47.1312 472.727,-50.3399 482.621,-54.1283 482.824,-47.1312"/>
</g>
<!-- Node16 -->
<g id="node16" class="node"><title>Node16</title>
<g id="a_node16"><a xlink:href="classpdal_1_1PoissonFilter.html#a5b238b48de8b895610512e2683cb5fe7" target="_top" xlink:title="pdal::PoissonFilter::run">
<polygon fill="white" stroke="black" points="541.5,-0.5 541.5,-19.5 658.5,-19.5 658.5,-0.5 541.5,-0.5"/>
<text text-anchor="middle" x="600" y="-7.5" font-family="Helvetica,sans-Serif" font-size="10.00">pdal::PoissonFilter::run</text>
</a>
</g>
</g>
<!-- Node14&#45;&gt;Node16 -->
<g id="edge20" class="edge"><title>Node14&#45;&gt;Node16</title>
<path fill="none" stroke="midnightblue" d="M482.802,-36.2709C506.878,-30.8276 534.509,-24.5806 556.785,-19.5444"/>
<polygon fill="midnightblue" stroke="midnightblue" points="481.709,-32.9296 472.727,-38.5487 483.253,-39.7573 481.709,-32.9296"/>
</g>
</g>
</svg>
