<?xml version="1.0" encoding="UTF-8" standalone="no"?>
<!DOCTYPE svg PUBLIC "-//W3C//DTD SVG 1.1//EN"
 "http://www.w3.org/Graphics/SVG/1.1/DTD/svg11.dtd">
<!-- Generated by graphviz version 2.38.0 (20140413.2041)
 -->
<!-- Title: pdal::Utils::backtrace Pages: 1 -->
<svg width="326pt" height="78pt"
 viewBox="0.00 0.00 326.00 77.50" xmlns="http://www.w3.org/2000/svg" xmlns:xlink="http://www.w3.org/1999/xlink">
<g id="graph0" class="graph" transform="scale(1 1) rotate(0) translate(4 73.5)">
<title>pdal::Utils::backtrace</title>
<polygon fill="white" stroke="none" points="-4,4 -4,-73.5 322,-73.5 322,4 -4,4"/>
<!-- Node1 -->
<g id="node1" class="node"><title>Node1</title>
<polygon fill="#bfbfbf" stroke="black" points="0,-22.5 0,-41.5 110,-41.5 110,-22.5 0,-22.5"/>
<text text-anchor="middle" x="55" y="-29.5" font-family="Helvetica,sans-Serif" font-size="10.00">pdal::Utils::backtrace</text>
</g>
<!-- Node2 -->
<g id="node2" class="node"><title>Node2</title>
<g id="a_node2"><a xlink:href="namespacepdal_1_1Utils.html#a6afb17d343ab75a055584b85bcf437bc" target="_top" xlink:title="pdal::Utils::base64\l_encode">
<polygon fill="white" stroke="black" points="146,-39 146,-69 244,-69 244,-39 146,-39"/>
<text text-anchor="start" x="154" y="-57" font-family="Helvetica,sans-Serif" font-size="10.00">pdal::Utils::base64</text>
<text text-anchor="middle" x="195" y="-46" font-family="Helvetica,sans-Serif" font-size="10.00">_encode</text>
</a>
</g>
</g>
<!-- Node1&#45;&gt;Node2 -->
<g id="edge1" class="edge"><title>Node1&#45;&gt;Node2</title>
<path fill="none" stroke="midnightblue" d="M120.196,-42.2341C128.824,-43.6097 137.554,-45.0013 145.84,-46.3224"/>
<polygon fill="midnightblue" stroke="midnightblue" points="120.572,-38.7499 110.145,-40.6318 119.469,-45.6626 120.572,-38.7499"/>
</g>
<!-- Node3 -->
<g id="node3" class="node"><title>Node3</title>
<g id="a_node3"><a xlink:href="classApp.html#a2817579d633c3d379248cd45d035aba8" target="_top" xlink:title="App::execute">
<polygon fill="white" stroke="black" points="158,-0.5 158,-19.5 232,-19.5 232,-0.5 158,-0.5"/>
<text text-anchor="middle" x="195" y="-7.5" font-family="Helvetica,sans-Serif" font-size="10.00">App::execute</text>
</a>
</g>
</g>
<!-- Node1&#45;&gt;Node3 -->
<g id="edge2" class="edge"><title>Node1&#45;&gt;Node3</title>
<path fill="none" stroke="midnightblue" d="M120.39,-21.7349C133.266,-19.6823 146.356,-17.5954 157.858,-15.7618"/>
<polygon fill="midnightblue" stroke="midnightblue" points="119.469,-18.3374 110.145,-23.3682 120.572,-25.2501 119.469,-18.3374"/>
</g>
<!-- Node4 -->
<g id="node4" class="node"><title>Node4</title>
<g id="a_node4"><a xlink:href="pdal_8cpp.html#a0ddf1224851353fc92bfbff6f499fa97" target="_top" xlink:title="main">
<polygon fill="white" stroke="black" points="280,-0.5 280,-19.5 318,-19.5 318,-0.5 280,-0.5"/>
<text text-anchor="middle" x="299" y="-7.5" font-family="Helvetica,sans-Serif" font-size="10.00">main</text>
</a>
</g>
</g>
<!-- Node3&#45;&gt;Node4 -->
<g id="edge3" class="edge"><title>Node3&#45;&gt;Node4</title>
<path fill="none" stroke="midnightblue" d="M242.295,-10C255.622,-10 269.382,-10 279.891,-10"/>
<polygon fill="midnightblue" stroke="midnightblue" points="242.249,-6.5001 232.249,-10 242.249,-13.5001 242.249,-6.5001"/>
</g>
</g>
</svg>
