<?xml version="1.0" encoding="UTF-8" standalone="no"?>
<!DOCTYPE svg PUBLIC "-//W3C//DTD SVG 1.1//EN"
 "http://www.w3.org/Graphics/SVG/1.1/DTD/svg11.dtd">
<!-- Generated by graphviz version 2.38.0 (20140413.2041)
 -->
<!-- Title: pdal::operator&gt;&gt; Pages: 1 -->
<svg width="725pt" height="104pt"
 viewBox="0.00 0.00 725.00 104.00" xmlns="http://www.w3.org/2000/svg" xmlns:xlink="http://www.w3.org/1999/xlink">
<g id="graph0" class="graph" transform="scale(1 1) rotate(0) translate(4 100)">
<title>pdal::operator&gt;&gt;</title>
<polygon fill="white" stroke="none" points="-4,4 -4,-100 721,-100 721,4 -4,4"/>
<!-- Node1 -->
<g id="node1" class="node"><title>Node1</title>
<polygon fill="#bfbfbf" stroke="black" points="0,-19.5 0,-38.5 88,-38.5 88,-19.5 0,-19.5"/>
<text text-anchor="middle" x="44" y="-26.5" font-family="Helvetica,sans-Serif" font-size="10.00">pdal::operator&gt;&gt;</text>
</g>
<!-- Node2 -->
<g id="node2" class="node"><title>Node2</title>
<g id="a_node2"><a xlink:href="structpdal_1_1AssignRange.html#add1a82f38c804c85284aa9bed0c4330a" target="_top" xlink:title="pdal::AssignRange::\lparse">
<polygon fill="white" stroke="black" points="124,-14 124,-44 229,-44 229,-14 124,-14"/>
<text text-anchor="start" x="132" y="-32" font-family="Helvetica,sans-Serif" font-size="10.00">pdal::AssignRange::</text>
<text text-anchor="middle" x="176.5" y="-21" font-family="Helvetica,sans-Serif" font-size="10.00">parse</text>
</a>
</g>
</g>
<!-- Node1&#45;&gt;Node2 -->
<g id="edge1" class="edge"><title>Node1&#45;&gt;Node2</title>
<path fill="none" stroke="midnightblue" d="M88.0923,-29C96.3099,-29 105.06,-29 113.727,-29"/>
<polygon fill="midnightblue" stroke="midnightblue" points="113.828,-32.5001 123.828,-29 113.828,-25.5001 113.828,-32.5001"/>
</g>
<!-- Node3 -->
<g id="node3" class="node"><title>Node3</title>
<g id="a_node3"><a xlink:href="structpdal_1_1DimRange.html#a6b6b128ffc786bddb749f37ccd9fcf1d" target="_top" xlink:title="pdal::DimRange::subParse">
<polygon fill="white" stroke="black" points="265,-38.5 265,-57.5 399,-57.5 399,-38.5 265,-38.5"/>
<text text-anchor="middle" x="332" y="-45.5" font-family="Helvetica,sans-Serif" font-size="10.00">pdal::DimRange::subParse</text>
</a>
</g>
</g>
<!-- Node2&#45;&gt;Node3 -->
<g id="edge2" class="edge"><title>Node2&#45;&gt;Node3</title>
<path fill="none" stroke="midnightblue" d="M229.04,-35.3796C237.304,-36.4024 246.005,-37.4795 254.7,-38.5557"/>
<polygon fill="midnightblue" stroke="midnightblue" points="254.521,-42.0602 264.876,-39.8152 255.381,-35.1132 254.521,-42.0602"/>
</g>
<!-- Node5 -->
<g id="node5" class="node"><title>Node5</title>
<g id="a_node5"><a xlink:href="namespacepdal_1_1Utils.html#a9bda8c5dbe5ef7cf66e99ba022184934" target="_top" xlink:title="pdal::Utils::extractSpaces">
<polygon fill="white" stroke="black" points="444.5,-0.5 444.5,-19.5 574.5,-19.5 574.5,-0.5 444.5,-0.5"/>
<text text-anchor="middle" x="509.5" y="-7.5" font-family="Helvetica,sans-Serif" font-size="10.00">pdal::Utils::extractSpaces</text>
</a>
</g>
</g>
<!-- Node2&#45;&gt;Node5 -->
<g id="edge8" class="edge"><title>Node2&#45;&gt;Node5</title>
<path fill="none" stroke="midnightblue" d="M229.219,-26.0312C284.248,-22.8725 371.806,-17.8465 434.208,-14.2645"/>
<polygon fill="midnightblue" stroke="midnightblue" points="434.603,-17.7477 444.386,-13.6803 434.201,-10.7592 434.603,-17.7477"/>
</g>
<!-- Node4 -->
<g id="node4" class="node"><title>Node4</title>
<g id="a_node4"><a xlink:href="namespacepdal_1_1Dimension.html#af3176b0b7e6b4be000317846cf7c2718" target="_top" xlink:title="pdal::Dimension::name">
<polygon fill="white" stroke="black" points="451,-76.5 451,-95.5 568,-95.5 568,-76.5 451,-76.5"/>
<text text-anchor="middle" x="509.5" y="-83.5" font-family="Helvetica,sans-Serif" font-size="10.00">pdal::Dimension::name</text>
</a>
</g>
</g>
<!-- Node3&#45;&gt;Node4 -->
<g id="edge3" class="edge"><title>Node3&#45;&gt;Node4</title>
<path fill="none" stroke="midnightblue" d="M377.286,-57.589C400.758,-62.6713 429.781,-68.9554 454.558,-74.3203"/>
<polygon fill="midnightblue" stroke="midnightblue" points="454.018,-77.7844 464.532,-76.4799 455.5,-70.9429 454.018,-77.7844"/>
</g>
<!-- Node3&#45;&gt;Node5 -->
<g id="edge4" class="edge"><title>Node3&#45;&gt;Node5</title>
<path fill="none" stroke="midnightblue" d="M377.286,-38.411C400.758,-33.3287 429.781,-27.0446 454.558,-21.6797"/>
<polygon fill="midnightblue" stroke="midnightblue" points="455.5,-25.0571 464.532,-19.5201 454.018,-18.2156 455.5,-25.0571"/>
</g>
<!-- Node7 -->
<g id="node7" class="node"><title>Node7</title>
<g id="a_node7"><a xlink:href="namespacepdal_1_1Dimension.html#ad7dd00ca79ce099313f3fe405f40cd93" target="_top" xlink:title="pdal::Dimension::extractName">
<polygon fill="white" stroke="black" points="435,-38.5 435,-57.5 584,-57.5 584,-38.5 435,-38.5"/>
<text text-anchor="middle" x="509.5" y="-45.5" font-family="Helvetica,sans-Serif" font-size="10.00">pdal::Dimension::extractName</text>
</a>
</g>
</g>
<!-- Node3&#45;&gt;Node7 -->
<g id="edge6" class="edge"><title>Node3&#45;&gt;Node7</title>
<path fill="none" stroke="midnightblue" d="M399.349,-48C407.561,-48 416.039,-48 424.472,-48"/>
<polygon fill="midnightblue" stroke="midnightblue" points="424.714,-51.5001 434.714,-48 424.714,-44.5001 424.714,-51.5001"/>
</g>
<!-- Node6 -->
<g id="node6" class="node"><title>Node6</title>
<g id="a_node6"><a xlink:href="namespacepdal_1_1Utils.html#acae5a19cd66121b77e2599daec48413d" target="_top" xlink:title="pdal::Utils::extract">
<polygon fill="white" stroke="black" points="620,-19.5 620,-38.5 717,-38.5 717,-19.5 620,-19.5"/>
<text text-anchor="middle" x="668.5" y="-26.5" font-family="Helvetica,sans-Serif" font-size="10.00">pdal::Utils::extract</text>
</a>
</g>
</g>
<!-- Node5&#45;&gt;Node6 -->
<g id="edge5" class="edge"><title>Node5&#45;&gt;Node6</title>
<path fill="none" stroke="midnightblue" d="M574.811,-17.7828C586.352,-19.1795 598.316,-20.6274 609.66,-22.0002"/>
<polygon fill="midnightblue" stroke="midnightblue" points="609.526,-25.5095 619.874,-23.2363 610.367,-18.5602 609.526,-25.5095"/>
</g>
<!-- Node7&#45;&gt;Node6 -->
<g id="edge7" class="edge"><title>Node7&#45;&gt;Node6</title>
<path fill="none" stroke="midnightblue" d="M584.403,-39.0564C592.997,-38.0163 601.666,-36.9672 609.994,-35.9594"/>
<polygon fill="midnightblue" stroke="midnightblue" points="610.448,-39.43 619.955,-34.7538 609.607,-32.4807 610.448,-39.43"/>
</g>
</g>
</svg>
