<?xml version="1.0" encoding="UTF-8" standalone="no"?>
<!DOCTYPE svg PUBLIC "-//W3C//DTD SVG 1.1//EN"
 "http://www.w3.org/Graphics/SVG/1.1/DTD/svg11.dtd">
<!-- Generated by graphviz version 2.38.0 (20140413.2041)
 -->
<!-- Title: pdal::TEST_P Pages: 1 -->
<svg width="733pt" height="203pt"
 viewBox="0.00 0.00 733.00 202.50" xmlns="http://www.w3.org/2000/svg" xmlns:xlink="http://www.w3.org/1999/xlink">
<g id="graph0" class="graph" transform="scale(1 1) rotate(0) translate(4 198.5)">
<title>pdal::TEST_P</title>
<polygon fill="white" stroke="none" points="-4,4 -4,-198.5 729,-198.5 729,4 -4,4"/>
<!-- Node1 -->
<g id="node1" class="node"><title>Node1</title>
<polygon fill="#bfbfbf" stroke="black" points="0,-140 0,-159 78,-159 78,-140 0,-140"/>
<text text-anchor="middle" x="39" y="-147" font-family="Helvetica,sans-Serif" font-size="10.00">pdal::TEST_P</text>
</g>
<!-- Node2 -->
<g id="node2" class="node"><title>Node2</title>
<g id="a_node2"><a xlink:href="namespacepdal.html#aa198b9f33462d580eabdb318b5544983" target="_top" xlink:title="pdal::INSTANTIATE_TEST\l_CASE_P">
<polygon fill="white" stroke="black" points="114,-156.5 114,-186.5 251,-186.5 251,-156.5 114,-156.5"/>
<text text-anchor="start" x="122" y="-174.5" font-family="Helvetica,sans-Serif" font-size="10.00">pdal::INSTANTIATE_TEST</text>
<text text-anchor="middle" x="182.5" y="-163.5" font-family="Helvetica,sans-Serif" font-size="10.00">_CASE_P</text>
</a>
</g>
</g>
<!-- Node1&#45;&gt;Node2 -->
<g id="edge1" class="edge"><title>Node1&#45;&gt;Node2</title>
<path fill="none" stroke="midnightblue" d="M78.2919,-155.454C86.2605,-156.692 94.9305,-158.04 103.747,-159.411"/>
<polygon fill="midnightblue" stroke="midnightblue" points="103.315,-162.886 113.734,-160.964 104.39,-155.969 103.315,-162.886"/>
</g>
<!-- Node3 -->
<g id="node3" class="node"><title>Node3</title>
<g id="a_node3"><a xlink:href="PythonFilterTest_8cpp.html#a3b0e29c8ef9c682be47419dfa868bc91" target="_top" xlink:title="run_pipeline">
<polygon fill="white" stroke="black" points="148.5,-118 148.5,-137 216.5,-137 216.5,-118 148.5,-118"/>
<text text-anchor="middle" x="182.5" y="-125" font-family="Helvetica,sans-Serif" font-size="10.00">run_pipeline</text>
</a>
</g>
</g>
<!-- Node1&#45;&gt;Node3 -->
<g id="edge2" class="edge"><title>Node1&#45;&gt;Node3</title>
<path fill="none" stroke="midnightblue" d="M78.2919,-143.546C96.8853,-140.656 119.297,-137.171 138.479,-134.189"/>
<polygon fill="midnightblue" stroke="midnightblue" points="139.123,-137.631 148.467,-132.636 138.048,-130.714 139.123,-137.631"/>
</g>
<!-- Node4 -->
<g id="node4" class="node"><title>Node4</title>
<g id="a_node4"><a xlink:href="classSupport.html#a971cbd16fbe820e56449268eb51ab34f" target="_top" xlink:title="Support::binpath">
<polygon fill="white" stroke="black" points="303,-175 303,-194 391,-194 391,-175 303,-175"/>
<text text-anchor="middle" x="347" y="-182" font-family="Helvetica,sans-Serif" font-size="10.00">Support::binpath</text>
</a>
</g>
</g>
<!-- Node3&#45;&gt;Node4 -->
<g id="edge3" class="edge"><title>Node3&#45;&gt;Node4</title>
<path fill="none" stroke="midnightblue" d="M216.509,-136.026C227.61,-139.223 239.972,-143.148 251,-147.5 267.64,-154.066 270.438,-158.739 287,-165.5 292.23,-167.635 297.797,-169.694 303.342,-171.617"/>
<polygon fill="midnightblue" stroke="midnightblue" points="302.628,-175.069 313.222,-174.921 304.848,-168.431 302.628,-175.069"/>
</g>
<!-- Node6 -->
<g id="node6" class="node"><title>Node6</title>
<g id="a_node6"><a xlink:href="classSupport.html#a8e8acabbcf94009d3839b96571938a2a" target="_top" xlink:title="Support::configuredpath">
<polygon fill="white" stroke="black" points="287,-137 287,-156 407,-156 407,-137 287,-137"/>
<text text-anchor="middle" x="347" y="-144" font-family="Helvetica,sans-Serif" font-size="10.00">Support::configuredpath</text>
</a>
</g>
</g>
<!-- Node3&#45;&gt;Node6 -->
<g id="edge5" class="edge"><title>Node3&#45;&gt;Node6</title>
<path fill="none" stroke="midnightblue" d="M216.776,-131.391C234.092,-133.415 255.937,-135.97 276.715,-138.399"/>
<polygon fill="midnightblue" stroke="midnightblue" points="276.466,-141.894 286.805,-139.579 277.279,-134.941 276.466,-141.894"/>
</g>
<!-- Node8 -->
<g id="node8" class="node"><title>Node8</title>
<g id="a_node8"><a xlink:href="classSupport.html#a37a80a3c6bd89bcb38f46c12e97010a4" target="_top" xlink:title="Support::exename">
<polygon fill="white" stroke="black" points="299,-99 299,-118 395,-118 395,-99 299,-99"/>
<text text-anchor="middle" x="347" y="-106" font-family="Helvetica,sans-Serif" font-size="10.00">Support::exename</text>
</a>
</g>
</g>
<!-- Node3&#45;&gt;Node8 -->
<g id="edge7" class="edge"><title>Node3&#45;&gt;Node8</title>
<path fill="none" stroke="midnightblue" d="M216.776,-123.609C237.495,-121.187 264.697,-118.006 288.796,-115.188"/>
<polygon fill="midnightblue" stroke="midnightblue" points="289.381,-118.644 298.907,-114.006 288.568,-111.691 289.381,-118.644"/>
</g>
<!-- Node10 -->
<g id="node10" class="node"><title>Node10</title>
<g id="a_node10"><a xlink:href="namespacepdal_1_1Utils.html#a5f9f634d9b887cdc8a1740f2725e3f56" target="_top" xlink:title="pdal::Utils::run_shell\l_command">
<polygon fill="white" stroke="black" points="294,-49.5 294,-79.5 400,-79.5 400,-49.5 294,-49.5"/>
<text text-anchor="start" x="302" y="-67.5" font-family="Helvetica,sans-Serif" font-size="10.00">pdal::Utils::run_shell</text>
<text text-anchor="middle" x="347" y="-56.5" font-family="Helvetica,sans-Serif" font-size="10.00">_command</text>
</a>
</g>
</g>
<!-- Node3&#45;&gt;Node10 -->
<g id="edge9" class="edge"><title>Node3&#45;&gt;Node10</title>
<path fill="none" stroke="midnightblue" d="M208.18,-117.932C231.792,-108.778 268.057,-94.7178 297.461,-83.3181"/>
<polygon fill="midnightblue" stroke="midnightblue" points="299.083,-86.4432 307.142,-79.565 296.553,-79.9165 299.083,-86.4432"/>
</g>
<!-- Node5 -->
<g id="node5" class="node"><title>Node5</title>
<g id="a_node5"><a xlink:href="namespaceTestConfig.html#afe7849f5480837fa95084b466d22c603" target="_top" xlink:title="TestConfig::binaryPath">
<polygon fill="white" stroke="black" points="452.5,-175 452.5,-194 569.5,-194 569.5,-175 452.5,-175"/>
<text text-anchor="middle" x="511" y="-182" font-family="Helvetica,sans-Serif" font-size="10.00">TestConfig::binaryPath</text>
</a>
</g>
</g>
<!-- Node4&#45;&gt;Node5 -->
<g id="edge4" class="edge"><title>Node4&#45;&gt;Node5</title>
<path fill="none" stroke="midnightblue" d="M391.413,-184.5C407.082,-184.5 425.163,-184.5 442.409,-184.5"/>
<polygon fill="midnightblue" stroke="midnightblue" points="442.443,-188 452.443,-184.5 442.443,-181 442.443,-188"/>
</g>
<!-- Node7 -->
<g id="node7" class="node"><title>Node7</title>
<g id="a_node7"><a xlink:href="namespaceTestConfig.html#a77d669875d5ac90c7f5ea21b44e0164d" target="_top" xlink:title="TestConfig::configuredPath">
<polygon fill="white" stroke="black" points="443,-137 443,-156 579,-156 579,-137 443,-137"/>
<text text-anchor="middle" x="511" y="-144" font-family="Helvetica,sans-Serif" font-size="10.00">TestConfig::configuredPath</text>
</a>
</g>
</g>
<!-- Node6&#45;&gt;Node7 -->
<g id="edge6" class="edge"><title>Node6&#45;&gt;Node7</title>
<path fill="none" stroke="midnightblue" d="M407.403,-146.5C415.711,-146.5 424.346,-146.5 432.922,-146.5"/>
<polygon fill="midnightblue" stroke="midnightblue" points="432.939,-150 442.939,-146.5 432.939,-143 432.939,-150"/>
</g>
<!-- Node9 -->
<g id="node9" class="node"><title>Node9</title>
<g id="a_node9"><a xlink:href="namespacepdal_1_1Dimension.html#af3176b0b7e6b4be000317846cf7c2718" target="_top" xlink:title="pdal::Dimension::name">
<polygon fill="white" stroke="black" points="452.5,-99 452.5,-118 569.5,-118 569.5,-99 452.5,-99"/>
<text text-anchor="middle" x="511" y="-106" font-family="Helvetica,sans-Serif" font-size="10.00">pdal::Dimension::name</text>
</a>
</g>
</g>
<!-- Node8&#45;&gt;Node9 -->
<g id="edge8" class="edge"><title>Node8&#45;&gt;Node9</title>
<path fill="none" stroke="midnightblue" d="M395.293,-108.5C409.925,-108.5 426.344,-108.5 442.085,-108.5"/>
<polygon fill="midnightblue" stroke="midnightblue" points="442.307,-112 452.307,-108.5 442.307,-105 442.307,-112"/>
</g>
<!-- Node11 -->
<g id="node11" class="node"><title>Node11</title>
<g id="a_node11"><a xlink:href="namespacepdal_1_1Utils.html#a0dc879c4fedda93f12c44e08ac89ae12" target="_top" xlink:title="pdal::Utils::portable\l_popen">
<polygon fill="white" stroke="black" points="460.5,-49.5 460.5,-79.5 561.5,-79.5 561.5,-49.5 460.5,-49.5"/>
<text text-anchor="start" x="468.5" y="-67.5" font-family="Helvetica,sans-Serif" font-size="10.00">pdal::Utils::portable</text>
<text text-anchor="middle" x="511" y="-56.5" font-family="Helvetica,sans-Serif" font-size="10.00">_popen</text>
</a>
</g>
</g>
<!-- Node10&#45;&gt;Node11 -->
<g id="edge10" class="edge"><title>Node10&#45;&gt;Node11</title>
<path fill="none" stroke="midnightblue" d="M400.15,-64.5C416.159,-64.5 433.897,-64.5 450.366,-64.5"/>
<polygon fill="midnightblue" stroke="midnightblue" points="450.43,-68.0001 460.43,-64.5 450.43,-61.0001 450.43,-68.0001"/>
</g>
<!-- Node13 -->
<g id="node13" class="node"><title>Node13</title>
<g id="a_node13"><a xlink:href="namespacepdal_1_1Utils.html#a6c26063d8fb4f02f28d5b1608ab8ea60" target="_top" xlink:title="pdal::Utils::portable\l_pclose">
<polygon fill="white" stroke="black" points="460.5,-0.5 460.5,-30.5 561.5,-30.5 561.5,-0.5 460.5,-0.5"/>
<text text-anchor="start" x="468.5" y="-18.5" font-family="Helvetica,sans-Serif" font-size="10.00">pdal::Utils::portable</text>
<text text-anchor="middle" x="511" y="-7.5" font-family="Helvetica,sans-Serif" font-size="10.00">_pclose</text>
</a>
</g>
</g>
<!-- Node10&#45;&gt;Node13 -->
<g id="edge12" class="edge"><title>Node10&#45;&gt;Node13</title>
<path fill="none" stroke="midnightblue" d="M397.927,-49.3986C414.481,-44.3917 433.075,-38.7676 450.288,-33.561"/>
<polygon fill="midnightblue" stroke="midnightblue" points="451.679,-36.7969 460.238,-30.5516 449.653,-30.0967 451.679,-36.7969"/>
</g>
<!-- Node12 -->
<g id="node12" class="node"><title>Node12</title>
<g id="a_node12"><a xlink:href="namespacepdal_1_1Utils.html#aee933a3f2afb351283582a3a50319fca" target="_top" xlink:title="pdal::Utils::replaceAll">
<polygon fill="white" stroke="black" points="615,-55 615,-74 725,-74 725,-55 615,-55"/>
<text text-anchor="middle" x="670" y="-62" font-family="Helvetica,sans-Serif" font-size="10.00">pdal::Utils::replaceAll</text>
</a>
</g>
</g>
<!-- Node11&#45;&gt;Node12 -->
<g id="edge11" class="edge"><title>Node11&#45;&gt;Node12</title>
<path fill="none" stroke="midnightblue" d="M561.676,-64.5C575.266,-64.5 590.195,-64.5 604.485,-64.5"/>
<polygon fill="midnightblue" stroke="midnightblue" points="604.75,-68.0001 614.75,-64.5 604.75,-61.0001 604.75,-68.0001"/>
</g>
</g>
</svg>
