<?xml version="1.0" encoding="UTF-8" standalone="no"?>
<!DOCTYPE svg PUBLIC "-//W3C//DTD SVG 1.1//EN"
 "http://www.w3.org/Graphics/SVG/1.1/DTD/svg11.dtd">
<!-- Generated by graphviz version 2.38.0 (20140413.2041)
 -->
<!-- Title: pdal::georeference::createIdentityMatrix Pages: 1 -->
<svg width="448pt" height="122pt"
 viewBox="0.00 0.00 448.00 121.50" xmlns="http://www.w3.org/2000/svg" xmlns:xlink="http://www.w3.org/1999/xlink">
<g id="graph0" class="graph" transform="scale(1 1) rotate(0) translate(4 117.5)">
<title>pdal::georeference::createIdentityMatrix</title>
<polygon fill="white" stroke="none" points="-4,4 -4,-117.5 444,-117.5 444,4 -4,4"/>
<!-- Node1 -->
<g id="node1" class="node"><title>Node1</title>
<polygon fill="#bfbfbf" stroke="black" points="0,-44.5 0,-74.5 109,-74.5 109,-44.5 0,-44.5"/>
<text text-anchor="start" x="8" y="-62.5" font-family="Helvetica,sans-Serif" font-size="10.00">pdal::georeference</text>
<text text-anchor="middle" x="54.5" y="-51.5" font-family="Helvetica,sans-Serif" font-size="10.00">::createIdentityMatrix</text>
</g>
<!-- Node2 -->
<g id="node2" class="node"><title>Node2</title>
<g id="a_node2"><a xlink:href="namespacepdal_1_1georeference.html#a2b566c71200350d9b85725c40eb5f8fa" target="_top" xlink:title="pdal::georeference\l::georeferenceWgs84">
<polygon fill="white" stroke="black" points="145,-44.5 145,-74.5 255,-74.5 255,-44.5 145,-44.5"/>
<text text-anchor="start" x="153" y="-62.5" font-family="Helvetica,sans-Serif" font-size="10.00">pdal::georeference</text>
<text text-anchor="middle" x="200" y="-51.5" font-family="Helvetica,sans-Serif" font-size="10.00">::georeferenceWgs84</text>
</a>
</g>
</g>
<!-- Node1&#45;&gt;Node2 -->
<g id="edge1" class="edge"><title>Node1&#45;&gt;Node2</title>
<path fill="none" stroke="midnightblue" d="M109.342,-59.5C117.597,-59.5 126.19,-59.5 134.644,-59.5"/>
<polygon fill="midnightblue" stroke="midnightblue" points="134.856,-63.0001 144.856,-59.5 134.856,-56.0001 134.856,-63.0001"/>
</g>
<!-- Node3 -->
<g id="node3" class="node"><title>Node3</title>
<g id="a_node3"><a xlink:href="namespacepdal_1_1georeference_1_1anonymous__namespace_02Georeference_8cpp_03.html#ab65d68d7d44f5d44c6d533ec5d7fc06f" target="_top" xlink:title="pdal::georeference\l::anonymous_namespace\l\{Georeference::cpp\}::rotate">
<polygon fill="white" stroke="black" points="298.5,-72 298.5,-113 432.5,-113 432.5,-72 298.5,-72"/>
<text text-anchor="start" x="306.5" y="-101" font-family="Helvetica,sans-Serif" font-size="10.00">pdal::georeference</text>
<text text-anchor="start" x="306.5" y="-90" font-family="Helvetica,sans-Serif" font-size="10.00">::anonymous_namespace</text>
<text text-anchor="middle" x="365.5" y="-79" font-family="Helvetica,sans-Serif" font-size="10.00">{Georeference::cpp}::rotate</text>
</a>
</g>
</g>
<!-- Node2&#45;&gt;Node3 -->
<g id="edge2" class="edge"><title>Node2&#45;&gt;Node3</title>
<path fill="none" stroke="midnightblue" d="M255.443,-70.4885C265.969,-72.6131 277.178,-74.8753 288.251,-77.1103"/>
<polygon fill="midnightblue" stroke="midnightblue" points="287.864,-80.6028 298.359,-79.1505 289.249,-73.7411 287.864,-80.6028"/>
</g>
<!-- Node4 -->
<g id="node4" class="node"><title>Node4</title>
<g id="a_node4"><a xlink:href="namespacepdal_1_1georeference_1_1anonymous__namespace_02Georeference_8cpp_03.html#a3d97bde05ca277bf07b1e9fc5bb49a3f" target="_top" xlink:title="pdal::georeference\l::anonymous_namespace\l\{Georeference::cpp\}::cartesian\lToCurvilinear">
<polygon fill="white" stroke="black" points="291,-0.5 291,-52.5 440,-52.5 440,-0.5 291,-0.5"/>
<text text-anchor="start" x="299" y="-40.5" font-family="Helvetica,sans-Serif" font-size="10.00">pdal::georeference</text>
<text text-anchor="start" x="299" y="-29.5" font-family="Helvetica,sans-Serif" font-size="10.00">::anonymous_namespace</text>
<text text-anchor="start" x="299" y="-18.5" font-family="Helvetica,sans-Serif" font-size="10.00">{Georeference::cpp}::cartesian</text>
<text text-anchor="middle" x="365.5" y="-7.5" font-family="Helvetica,sans-Serif" font-size="10.00">ToCurvilinear</text>
</a>
</g>
</g>
<!-- Node2&#45;&gt;Node4 -->
<g id="edge3" class="edge"><title>Node2&#45;&gt;Node4</title>
<path fill="none" stroke="midnightblue" d="M255.443,-48.5115C263.589,-46.8674 272.143,-45.1408 280.727,-43.4082"/>
<polygon fill="midnightblue" stroke="midnightblue" points="281.686,-46.7855 290.795,-41.3762 280.301,-39.9239 281.686,-46.7855"/>
</g>
</g>
</svg>
