<?xml version="1.0" encoding="UTF-8" standalone="no"?>
<!DOCTYPE svg PUBLIC "-//W3C//DTD SVG 1.1//EN"
 "http://www.w3.org/Graphics/SVG/1.1/DTD/svg11.dtd">
<!-- Generated by graphviz version 2.38.0 (20140413.2041)
 -->
<!-- Title: pdal::TEST Pages: 1 -->
<svg width="527pt" height="85pt"
 viewBox="0.00 0.00 527.00 85.00" xmlns="http://www.w3.org/2000/svg" xmlns:xlink="http://www.w3.org/1999/xlink">
<g id="graph0" class="graph" transform="scale(1 1) rotate(0) translate(4 81)">
<title>pdal::TEST</title>
<polygon fill="white" stroke="none" points="-4,4 -4,-81 523,-81 523,4 -4,4"/>
<!-- Node1 -->
<g id="node1" class="node"><title>Node1</title>
<polygon fill="#bfbfbf" stroke="black" points="0,-19.5 0,-38.5 66,-38.5 66,-19.5 0,-19.5"/>
<text text-anchor="middle" x="33" y="-26.5" font-family="Helvetica,sans-Serif" font-size="10.00">pdal::TEST</text>
</g>
<!-- Node2 -->
<g id="node2" class="node"><title>Node2</title>
<g id="a_node2"><a xlink:href="classpdal_1_1Option.html#aef4422b88464a9cad83b3c11bf1f8cdd" target="_top" xlink:title="pdal::Option::nameValid">
<polygon fill="white" stroke="black" points="102,-19.5 102,-38.5 223,-38.5 223,-19.5 102,-19.5"/>
<text text-anchor="middle" x="162.5" y="-26.5" font-family="Helvetica,sans-Serif" font-size="10.00">pdal::Option::nameValid</text>
</a>
</g>
</g>
<!-- Node1&#45;&gt;Node2 -->
<g id="edge1" class="edge"><title>Node1&#45;&gt;Node2</title>
<path fill="none" stroke="midnightblue" d="M66.1736,-29C74.0527,-29 82.7928,-29 91.6917,-29"/>
<polygon fill="midnightblue" stroke="midnightblue" points="91.769,-32.5001 101.769,-29 91.7689,-25.5001 91.769,-32.5001"/>
</g>
<!-- Node3 -->
<g id="node3" class="node"><title>Node3</title>
<g id="a_node3"><a xlink:href="classpdal_1_1Option.html#a978a36cf9180d3636ea770988961952b" target="_top" xlink:title="pdal::Option::parse">
<polygon fill="white" stroke="black" points="263,-38.5 263,-57.5 362,-57.5 362,-38.5 263,-38.5"/>
<text text-anchor="middle" x="312.5" y="-45.5" font-family="Helvetica,sans-Serif" font-size="10.00">pdal::Option::parse</text>
</a>
</g>
</g>
<!-- Node2&#45;&gt;Node3 -->
<g id="edge2" class="edge"><title>Node2&#45;&gt;Node3</title>
<path fill="none" stroke="midnightblue" d="M223.271,-36.6733C233.036,-37.9269 243.144,-39.2246 252.881,-40.4746"/>
<polygon fill="midnightblue" stroke="midnightblue" points="252.499,-43.9542 262.863,-41.7561 253.39,-37.0111 252.499,-43.9542"/>
</g>
<!-- Node6 -->
<g id="node6" class="node"><title>Node6</title>
<g id="a_node6"><a xlink:href="namespacepdal_1_1Utils.html#ada321695f57c876ef51227bdf5b84f7a" target="_top" xlink:title="pdal::Utils::printError">
<polygon fill="white" stroke="black" points="259,-0.5 259,-19.5 366,-19.5 366,-0.5 259,-0.5"/>
<text text-anchor="middle" x="312.5" y="-7.5" font-family="Helvetica,sans-Serif" font-size="10.00">pdal::Utils::printError</text>
</a>
</g>
</g>
<!-- Node2&#45;&gt;Node6 -->
<g id="edge5" class="edge"><title>Node2&#45;&gt;Node6</title>
<path fill="none" stroke="midnightblue" d="M223.271,-21.3267C231.598,-20.2577 240.175,-19.1566 248.558,-18.0804"/>
<polygon fill="midnightblue" stroke="midnightblue" points="249.185,-21.5287 258.658,-16.7838 248.294,-14.5857 249.185,-21.5287"/>
</g>
<!-- Node4 -->
<g id="node4" class="node"><title>Node4</title>
<g id="a_node4"><a xlink:href="namespacepdal_1_1Utils.html#acae5a19cd66121b77e2599daec48413d" target="_top" xlink:title="pdal::Utils::extract">
<polygon fill="white" stroke="black" points="412,-57.5 412,-76.5 509,-76.5 509,-57.5 412,-57.5"/>
<text text-anchor="middle" x="460.5" y="-64.5" font-family="Helvetica,sans-Serif" font-size="10.00">pdal::Utils::extract</text>
</a>
</g>
</g>
<!-- Node3&#45;&gt;Node4 -->
<g id="edge3" class="edge"><title>Node3&#45;&gt;Node4</title>
<path fill="none" stroke="midnightblue" d="M362.116,-54.3267C374.683,-55.9622 388.34,-57.7394 401.341,-59.4313"/>
<polygon fill="midnightblue" stroke="midnightblue" points="401.225,-62.9457 411.593,-60.7655 402.128,-56.0042 401.225,-62.9457"/>
</g>
<!-- Node5 -->
<g id="node5" class="node"><title>Node5</title>
<g id="a_node5"><a xlink:href="namespacepdal_1_1Dimension.html#af3176b0b7e6b4be000317846cf7c2718" target="_top" xlink:title="pdal::Dimension::name">
<polygon fill="white" stroke="black" points="402,-19.5 402,-38.5 519,-38.5 519,-19.5 402,-19.5"/>
<text text-anchor="middle" x="460.5" y="-26.5" font-family="Helvetica,sans-Serif" font-size="10.00">pdal::Dimension::name</text>
</a>
</g>
</g>
<!-- Node3&#45;&gt;Node5 -->
<g id="edge4" class="edge"><title>Node3&#45;&gt;Node5</title>
<path fill="none" stroke="midnightblue" d="M362.116,-41.6733C371.697,-40.4264 381.911,-39.0972 391.985,-37.7862"/>
<polygon fill="midnightblue" stroke="midnightblue" points="392.519,-41.2463 401.984,-36.485 391.616,-34.3049 392.519,-41.2463"/>
</g>
</g>
</svg>
