<?xml version="1.0" encoding="UTF-8" standalone="no"?>
<!DOCTYPE svg PUBLIC "-//W3C//DTD SVG 1.1//EN"
 "http://www.w3.org/Graphics/SVG/1.1/DTD/svg11.dtd">
<!-- Generated by graphviz version 2.38.0 (20140413.2041)
 -->
<!-- Title: pdal::TEST Pages: 1 -->
<svg width="1097pt" height="820pt"
 viewBox="0.00 0.00 1097.00 820.00" xmlns="http://www.w3.org/2000/svg" xmlns:xlink="http://www.w3.org/1999/xlink">
<g id="graph0" class="graph" transform="scale(1 1) rotate(0) translate(4 816)">
<title>pdal::TEST</title>
<polygon fill="white" stroke="none" points="-4,4 -4,-816 1093,-816 1093,4 -4,4"/>
<!-- Node1 -->
<g id="node1" class="node"><title>Node1</title>
<polygon fill="#bfbfbf" stroke="black" points="0,-415.5 0,-434.5 66,-434.5 66,-415.5 0,-415.5"/>
<text text-anchor="middle" x="33" y="-422.5" font-family="Helvetica,sans-Serif" font-size="10.00">pdal::TEST</text>
</g>
<!-- Node2 -->
<g id="node2" class="node"><title>Node2</title>
<g id="a_node2"><a xlink:href="classpdal_1_1Options.html#a30826da39f9c4716412141eeeb719032" target="_top" xlink:title="pdal::Options::add">
<polygon fill="white" stroke="black" points="482,-0.5 482,-19.5 578,-19.5 578,-0.5 482,-0.5"/>
<text text-anchor="middle" x="530" y="-7.5" font-family="Helvetica,sans-Serif" font-size="10.00">pdal::Options::add</text>
</a>
</g>
</g>
<!-- Node1&#45;&gt;Node2 -->
<g id="edge1" class="edge"><title>Node1&#45;&gt;Node2</title>
<path fill="none" stroke="midnightblue" d="M37.34,-415.355C45.8973,-391.363 70.1918,-327.575 102,-281 158.562,-198.179 175.192,-175.016 257,-117 325.92,-68.1241 420.251,-37.5627 477.783,-22.1679"/>
<polygon fill="midnightblue" stroke="midnightblue" points="478.95,-25.4804 487.735,-19.5582 477.174,-18.7094 478.95,-25.4804"/>
</g>
<!-- Node9 -->
<g id="node9" class="node"><title>Node9</title>
<g id="a_node9"><a xlink:href="namespacepdal.html#ac0e59f769b36997868660f0ab25cc397" target="_top" xlink:title="pdal::checkPoint">
<polygon fill="white" stroke="black" points="117,-597.5 117,-616.5 206,-616.5 206,-597.5 117,-597.5"/>
<text text-anchor="middle" x="161.5" y="-604.5" font-family="Helvetica,sans-Serif" font-size="10.00">pdal::checkPoint</text>
</a>
</g>
</g>
<!-- Node1&#45;&gt;Node9 -->
<g id="edge8" class="edge"><title>Node1&#45;&gt;Node9</title>
<path fill="none" stroke="midnightblue" d="M35.212,-434.67C39.2285,-462.63 54.6584,-544.354 102,-588 103.889,-589.742 105.94,-591.324 108.105,-592.761"/>
<polygon fill="midnightblue" stroke="midnightblue" points="106.478,-595.86 116.926,-597.617 109.854,-589.728 106.478,-595.86"/>
</g>
<!-- Node10 -->
<g id="node10" class="node"><title>Node10</title>
<g id="a_node10"><a xlink:href="classSupport.html#a9bbdf6f202f4f2e45e7a53007dd0a238" target="_top" xlink:title="Support::datapath">
<polygon fill="white" stroke="black" points="114.5,-713.5 114.5,-732.5 208.5,-732.5 208.5,-713.5 114.5,-713.5"/>
<text text-anchor="middle" x="161.5" y="-720.5" font-family="Helvetica,sans-Serif" font-size="10.00">Support::datapath</text>
</a>
</g>
</g>
<!-- Node1&#45;&gt;Node10 -->
<g id="edge9" class="edge"><title>Node1&#45;&gt;Node10</title>
<path fill="none" stroke="midnightblue" d="M36.5319,-434.913C44.3028,-464.665 69.2823,-555.491 102,-626 115.445,-654.974 135.378,-686.229 148.154,-705.207"/>
<polygon fill="midnightblue" stroke="midnightblue" points="145.265,-707.184 153.791,-713.473 151.049,-703.24 145.265,-707.184"/>
</g>
<!-- Node12 -->
<g id="node12" class="node"><title>Node12</title>
<g id="a_node12"><a xlink:href="classpdal_1_1Stage.html#a1615c4aa5ec5e48f90d73f0e7a796935" target="_top" xlink:title="pdal::Stage::execute">
<polygon fill="white" stroke="black" points="108,-541.5 108,-560.5 215,-560.5 215,-541.5 108,-541.5"/>
<text text-anchor="middle" x="161.5" y="-548.5" font-family="Helvetica,sans-Serif" font-size="10.00">pdal::Stage::execute</text>
</a>
</g>
</g>
<!-- Node1&#45;&gt;Node12 -->
<g id="edge11" class="edge"><title>Node1&#45;&gt;Node12</title>
<path fill="none" stroke="midnightblue" d="M43.9262,-434.887C65.449,-456.325 116.627,-507.3 143.443,-534.01"/>
<polygon fill="midnightblue" stroke="midnightblue" points="141.065,-536.582 150.62,-541.159 146.005,-531.622 141.065,-536.582"/>
</g>
<!-- Node29 -->
<g id="node29" class="node"><title>Node29</title>
<g id="a_node29"><a xlink:href="classpdal_1_1Stage.html#a4b9296a59f8852b3d08630f1086bfbea" target="_top" xlink:title="pdal::Stage::prepare">
<polygon fill="white" stroke="black" points="109.5,-290.5 109.5,-309.5 213.5,-309.5 213.5,-290.5 109.5,-290.5"/>
<text text-anchor="middle" x="161.5" y="-297.5" font-family="Helvetica,sans-Serif" font-size="10.00">pdal::Stage::prepare</text>
</a>
</g>
</g>
<!-- Node1&#45;&gt;Node29 -->
<g id="edge29" class="edge"><title>Node1&#45;&gt;Node29</title>
<path fill="none" stroke="midnightblue" d="M43.9262,-415.191C65.449,-393.924 116.627,-343.353 143.443,-316.855"/>
<polygon fill="midnightblue" stroke="midnightblue" points="145.967,-319.281 150.62,-309.763 141.047,-314.302 145.967,-319.281"/>
</g>
<!-- Node50 -->
<g id="node50" class="node"><title>Node50</title>
<g id="a_node50"><a xlink:href="classpdal_1_1Stage.html#acb2434df20f371f1fec9577de3cf0046" target="_top" xlink:title="pdal::Stage::setOptions">
<polygon fill="white" stroke="black" points="102,-50.5 102,-69.5 221,-69.5 221,-50.5 102,-50.5"/>
<text text-anchor="middle" x="161.5" y="-57.5" font-family="Helvetica,sans-Serif" font-size="10.00">pdal::Stage::setOptions</text>
</a>
</g>
</g>
<!-- Node1&#45;&gt;Node50 -->
<g id="edge62" class="edge"><title>Node1&#45;&gt;Node50</title>
<path fill="none" stroke="midnightblue" d="M34.7172,-415.233C38.5756,-365.101 58.3353,-136.996 102,-84 105.067,-80.2774 108.805,-77.1257 112.892,-74.4585"/>
<polygon fill="midnightblue" stroke="midnightblue" points="114.591,-77.5186 121.671,-69.6367 111.221,-71.3832 114.591,-77.5186"/>
</g>
<!-- Node3 -->
<g id="node3" class="node"><title>Node3</title>
<g id="a_node3"><a xlink:href="classpdal_1_1Option.html#aef4422b88464a9cad83b3c11bf1f8cdd" target="_top" xlink:title="pdal::Option::nameValid">
<polygon fill="white" stroke="black" points="651,-63.5 651,-82.5 772,-82.5 772,-63.5 651,-63.5"/>
<text text-anchor="middle" x="711.5" y="-70.5" font-family="Helvetica,sans-Serif" font-size="10.00">pdal::Option::nameValid</text>
</a>
</g>
</g>
<!-- Node2&#45;&gt;Node3 -->
<g id="edge2" class="edge"><title>Node2&#45;&gt;Node3</title>
<path fill="none" stroke="midnightblue" d="M573.37,-19.5507C584.108,-22.2936 595.556,-25.5006 606,-29 631.942,-37.6926 660.518,-49.9161 681.221,-59.2741"/>
<polygon fill="midnightblue" stroke="midnightblue" points="679.873,-62.5062 690.423,-63.4792 682.783,-56.1395 679.873,-62.5062"/>
</g>
<!-- Node8 -->
<g id="node8" class="node"><title>Node8</title>
<g id="a_node8"><a xlink:href="classpdal_1_1Option.html#ad2b7a736742fb343e421fa326ef45c23" target="_top" xlink:title="pdal::Option::getName">
<polygon fill="white" stroke="black" points="654,-164.5 654,-183.5 769,-183.5 769,-164.5 654,-164.5"/>
<text text-anchor="middle" x="711.5" y="-171.5" font-family="Helvetica,sans-Serif" font-size="10.00">pdal::Option::getName</text>
</a>
</g>
</g>
<!-- Node2&#45;&gt;Node8 -->
<g id="edge7" class="edge"><title>Node2&#45;&gt;Node8</title>
<path fill="none" stroke="midnightblue" d="M578.04,-15.8091C587.961,-18.639 597.872,-22.823 606,-29 631.675,-48.5136 623.591,-65.5218 642,-92 658.412,-115.605 680.058,-140.683 694.586,-156.799"/>
<polygon fill="midnightblue" stroke="midnightblue" points="692.147,-159.319 701.469,-164.355 697.322,-154.605 692.147,-159.319"/>
</g>
<!-- Node4 -->
<g id="node4" class="node"><title>Node4</title>
<g id="a_node4"><a xlink:href="classpdal_1_1Option.html#a978a36cf9180d3636ea770988961952b" target="_top" xlink:title="pdal::Option::parse">
<polygon fill="white" stroke="black" points="827,-82.5 827,-101.5 926,-101.5 926,-82.5 827,-82.5"/>
<text text-anchor="middle" x="876.5" y="-89.5" font-family="Helvetica,sans-Serif" font-size="10.00">pdal::Option::parse</text>
</a>
</g>
</g>
<!-- Node3&#45;&gt;Node4 -->
<g id="edge3" class="edge"><title>Node3&#45;&gt;Node4</title>
<path fill="none" stroke="midnightblue" d="M772.27,-79.967C786.746,-81.6545 802.209,-83.4569 816.643,-85.1394"/>
<polygon fill="midnightblue" stroke="midnightblue" points="816.605,-88.6585 826.943,-86.34 817.415,-81.7056 816.605,-88.6585"/>
</g>
<!-- Node7 -->
<g id="node7" class="node"><title>Node7</title>
<g id="a_node7"><a xlink:href="namespacepdal_1_1Utils.html#ada321695f57c876ef51227bdf5b84f7a" target="_top" xlink:title="pdal::Utils::printError">
<polygon fill="white" stroke="black" points="823,-44.5 823,-63.5 930,-63.5 930,-44.5 823,-44.5"/>
<text text-anchor="middle" x="876.5" y="-51.5" font-family="Helvetica,sans-Serif" font-size="10.00">pdal::Utils::printError</text>
</a>
</g>
</g>
<!-- Node3&#45;&gt;Node7 -->
<g id="edge6" class="edge"><title>Node3&#45;&gt;Node7</title>
<path fill="none" stroke="midnightblue" d="M772.27,-66.033C785.447,-64.497 799.442,-62.8656 812.734,-61.3162"/>
<polygon fill="midnightblue" stroke="midnightblue" points="813.209,-64.7847 822.737,-60.1503 812.399,-57.8317 813.209,-64.7847"/>
</g>
<!-- Node5 -->
<g id="node5" class="node"><title>Node5</title>
<g id="a_node5"><a xlink:href="namespacepdal_1_1Utils.html#acae5a19cd66121b77e2599daec48413d" target="_top" xlink:title="pdal::Utils::extract">
<polygon fill="white" stroke="black" points="982,-101.5 982,-120.5 1079,-120.5 1079,-101.5 982,-101.5"/>
<text text-anchor="middle" x="1030.5" y="-108.5" font-family="Helvetica,sans-Serif" font-size="10.00">pdal::Utils::extract</text>
</a>
</g>
</g>
<!-- Node4&#45;&gt;Node5 -->
<g id="edge4" class="edge"><title>Node4&#45;&gt;Node5</title>
<path fill="none" stroke="midnightblue" d="M926.012,-98.064C940.554,-99.8817 956.647,-101.893 971.724,-103.778"/>
<polygon fill="midnightblue" stroke="midnightblue" points="971.611,-107.291 981.968,-105.059 972.479,-100.345 971.611,-107.291"/>
</g>
<!-- Node6 -->
<g id="node6" class="node"><title>Node6</title>
<g id="a_node6"><a xlink:href="namespacepdal_1_1Dimension.html#af3176b0b7e6b4be000317846cf7c2718" target="_top" xlink:title="pdal::Dimension::name">
<polygon fill="white" stroke="black" points="972,-63.5 972,-82.5 1089,-82.5 1089,-63.5 972,-63.5"/>
<text text-anchor="middle" x="1030.5" y="-70.5" font-family="Helvetica,sans-Serif" font-size="10.00">pdal::Dimension::name</text>
</a>
</g>
</g>
<!-- Node4&#45;&gt;Node6 -->
<g id="edge5" class="edge"><title>Node4&#45;&gt;Node6</title>
<path fill="none" stroke="midnightblue" d="M926.012,-85.936C937.415,-84.5106 949.773,-82.9659 961.846,-81.4568"/>
<polygon fill="midnightblue" stroke="midnightblue" points="962.404,-84.9143 971.893,-80.2009 961.536,-77.9683 962.404,-84.9143"/>
</g>
<!-- Node11 -->
<g id="node11" class="node"><title>Node11</title>
<g id="a_node11"><a xlink:href="namespaceTestConfig.html#a0e622015f0610c2cfcbb3739b972d877" target="_top" xlink:title="TestConfig::dataPath">
<polygon fill="white" stroke="black" points="282.5,-792.5 282.5,-811.5 392.5,-811.5 392.5,-792.5 282.5,-792.5"/>
<text text-anchor="middle" x="337.5" y="-799.5" font-family="Helvetica,sans-Serif" font-size="10.00">TestConfig::dataPath</text>
</a>
</g>
</g>
<!-- Node10&#45;&gt;Node11 -->
<g id="edge10" class="edge"><title>Node10&#45;&gt;Node11</title>
<path fill="none" stroke="midnightblue" d="M174.6,-732.563C191.899,-745.781 225.141,-769.524 257,-783 262.832,-785.467 269.047,-787.651 275.334,-789.576"/>
<polygon fill="midnightblue" stroke="midnightblue" points="274.651,-793.021 285.227,-792.391 276.567,-786.288 274.651,-793.021"/>
</g>
<!-- Node12&#45;&gt;Node12 -->
<g id="edge15" class="edge"><title>Node12&#45;&gt;Node12</title>
<path fill="none" stroke="midnightblue" d="M141.771,-560.757C132.174,-569.565 138.75,-579 161.5,-579 176.074,-579 184.011,-575.128 185.309,-570.029"/>
<polygon fill="midnightblue" stroke="midnightblue" points="188.46,-568.5 181.229,-560.757 182.053,-571.32 188.46,-568.5"/>
</g>
<!-- Node13 -->
<g id="node13" class="node"><title>Node13</title>
<g id="a_node13"><a xlink:href="classpdal_1_1BasePointTable.html#a670592aca912391f1a90073a2031e5e0" target="_top" xlink:title="pdal::BasePointTable\l::addSpatialReference">
<polygon fill="white" stroke="black" points="281,-492 281,-522 394,-522 394,-492 281,-492"/>
<text text-anchor="start" x="289" y="-510" font-family="Helvetica,sans-Serif" font-size="10.00">pdal::BasePointTable</text>
<text text-anchor="middle" x="337.5" y="-499" font-family="Helvetica,sans-Serif" font-size="10.00">::addSpatialReference</text>
</a>
</g>
</g>
<!-- Node12&#45;&gt;Node13 -->
<g id="edge12" class="edge"><title>Node12&#45;&gt;Node13</title>
<path fill="none" stroke="midnightblue" d="M200.255,-541.453C220.987,-536.21 247.282,-529.561 271.23,-523.505"/>
<polygon fill="midnightblue" stroke="midnightblue" points="272.138,-526.886 280.974,-521.041 270.421,-520.099 272.138,-526.886"/>
</g>
<!-- Node14 -->
<g id="node14" class="node"><title>Node14</title>
<g id="a_node14"><a xlink:href="classpdal_1_1BasePointTable.html#aa3ed63a9e1a8897ccb7dc81a614f6141" target="_top" xlink:title="pdal::BasePointTable\l::clearSpatialReferences">
<polygon fill="white" stroke="black" points="275.5,-443 275.5,-473 399.5,-473 399.5,-443 275.5,-443"/>
<text text-anchor="start" x="283.5" y="-461" font-family="Helvetica,sans-Serif" font-size="10.00">pdal::BasePointTable</text>
<text text-anchor="middle" x="337.5" y="-450" font-family="Helvetica,sans-Serif" font-size="10.00">::clearSpatialReferences</text>
</a>
</g>
</g>
<!-- Node12&#45;&gt;Node14 -->
<g id="edge13" class="edge"><title>Node12&#45;&gt;Node14</title>
<path fill="none" stroke="midnightblue" d="M173.052,-541.409C189.731,-526.708 223.721,-498.568 257,-482 260.775,-480.121 264.725,-478.357 268.762,-476.708"/>
<polygon fill="midnightblue" stroke="midnightblue" points="270.201,-479.905 278.293,-473.066 267.702,-473.366 270.201,-479.905"/>
</g>
<!-- Node15 -->
<g id="node15" class="node"><title>Node15</title>
<g id="a_node15"><a xlink:href="classpdal_1_1SpatialReference.html#a48fa2f7e79ea172b62ad2e874ff01610" target="_top" xlink:title="pdal::SpatialReference\l::empty">
<polygon fill="white" stroke="black" points="279.5,-743 279.5,-773 395.5,-773 395.5,-743 279.5,-743"/>
<text text-anchor="start" x="287.5" y="-761" font-family="Helvetica,sans-Serif" font-size="10.00">pdal::SpatialReference</text>
<text text-anchor="middle" x="337.5" y="-750" font-family="Helvetica,sans-Serif" font-size="10.00">::empty</text>
</a>
</g>
</g>
<!-- Node12&#45;&gt;Node15 -->
<g id="edge14" class="edge"><title>Node12&#45;&gt;Node15</title>
<path fill="none" stroke="midnightblue" d="M185.881,-560.576C198.066,-566.705 212.22,-575.812 221,-588 260.065,-642.226 210.973,-685.543 257,-734 260.848,-738.051 265.352,-741.425 270.226,-744.235"/>
<polygon fill="midnightblue" stroke="midnightblue" points="268.817,-747.442 279.336,-748.707 271.902,-741.159 268.817,-747.442"/>
</g>
<!-- Node16 -->
<g id="node16" class="node"><title>Node16</title>
<g id="a_node16"><a xlink:href="classpdal_1_1BasePointTable.html#a2554cd260c437c9b1e4a017a28a5c7de" target="_top" xlink:title="pdal::BasePointTable\l::finalize">
<polygon fill="white" stroke="black" points="282.5,-694 282.5,-724 392.5,-724 392.5,-694 282.5,-694"/>
<text text-anchor="start" x="290.5" y="-712" font-family="Helvetica,sans-Serif" font-size="10.00">pdal::BasePointTable</text>
<text text-anchor="middle" x="337.5" y="-701" font-family="Helvetica,sans-Serif" font-size="10.00">::finalize</text>
</a>
</g>
</g>
<!-- Node12&#45;&gt;Node16 -->
<g id="edge16" class="edge"><title>Node12&#45;&gt;Node16</title>
<path fill="none" stroke="midnightblue" d="M184.471,-560.55C196.669,-566.817 211.294,-576.067 221,-588 249.752,-623.352 223.919,-652.662 257,-684 261.687,-688.44 267.156,-692.092 272.992,-695.096"/>
<polygon fill="midnightblue" stroke="midnightblue" points="271.846,-698.417 282.404,-699.302 274.702,-692.026 271.846,-698.417"/>
</g>
<!-- Node17 -->
<g id="node17" class="node"><title>Node17</title>
<g id="a_node17"><a xlink:href="classpdal_1_1Stage.html#a9889b4446f40daa6f4cd7bfe3c567839" target="_top" xlink:title="pdal::Stage::getSpatialReference">
<polygon fill="white" stroke="black" points="257,-655.5 257,-674.5 418,-674.5 418,-655.5 257,-655.5"/>
<text text-anchor="middle" x="337.5" y="-662.5" font-family="Helvetica,sans-Serif" font-size="10.00">pdal::Stage::getSpatialReference</text>
</a>
</g>
</g>
<!-- Node12&#45;&gt;Node17 -->
<g id="edge17" class="edge"><title>Node12&#45;&gt;Node17</title>
<path fill="none" stroke="midnightblue" d="M182.243,-560.557C194.396,-567.107 209.746,-576.651 221,-588 242.362,-609.544 232.395,-628.25 257,-646 259.705,-647.951 262.582,-649.704 265.579,-651.279"/>
<polygon fill="midnightblue" stroke="midnightblue" points="264.318,-654.55 274.871,-655.489 267.207,-648.174 264.318,-654.55"/>
</g>
<!-- Node18 -->
<g id="node18" class="node"><title>Node18</title>
<g id="a_node18"><a xlink:href="classpdal_1_1Stage.html#a1b00532ede55b90a7b6332a2966f5626" target="_top" xlink:title="pdal::Stage::l_done">
<polygon fill="white" stroke="black" points="287,-617.5 287,-636.5 388,-636.5 388,-617.5 287,-617.5"/>
<text text-anchor="middle" x="337.5" y="-624.5" font-family="Helvetica,sans-Serif" font-size="10.00">pdal::Stage::l_done</text>
</a>
</g>
</g>
<!-- Node12&#45;&gt;Node18 -->
<g id="edge18" class="edge"><title>Node12&#45;&gt;Node18</title>
<path fill="none" stroke="midnightblue" d="M177.717,-560.684C195.988,-571.999 227.828,-590.731 257,-603 267.277,-607.322 278.599,-611.223 289.397,-614.563"/>
<polygon fill="midnightblue" stroke="midnightblue" points="288.538,-617.959 299.121,-617.468 290.542,-611.252 288.538,-617.959"/>
</g>
<!-- Node20 -->
<g id="node20" class="node"><title>Node20</title>
<g id="a_node20"><a xlink:href="classpdal_1_1Stage.html#afb562c59c53ed8120df9106655eb2543" target="_top" xlink:title="pdal::Stage::ready">
<polygon fill="white" stroke="black" points="289.5,-541.5 289.5,-560.5 385.5,-560.5 385.5,-541.5 289.5,-541.5"/>
<text text-anchor="middle" x="337.5" y="-548.5" font-family="Helvetica,sans-Serif" font-size="10.00">pdal::Stage::ready</text>
</a>
</g>
</g>
<!-- Node12&#45;&gt;Node20 -->
<g id="edge20" class="edge"><title>Node12&#45;&gt;Node20</title>
<path fill="none" stroke="midnightblue" d="M215.178,-551C235.372,-551 258.504,-551 279.118,-551"/>
<polygon fill="midnightblue" stroke="midnightblue" points="279.324,-554.5 289.323,-551 279.323,-547.5 279.324,-554.5"/>
</g>
<!-- Node21 -->
<g id="node21" class="node"><title>Node21</title>
<g id="a_node21"><a xlink:href="classpdal_1_1Stage.html#a74cf636cb0f633411e4e40dcd718508a" target="_top" xlink:title="pdal::Stage::startLogging">
<polygon fill="white" stroke="black" points="467.5,-506.5 467.5,-525.5 592.5,-525.5 592.5,-506.5 467.5,-506.5"/>
<text text-anchor="middle" x="530" y="-513.5" font-family="Helvetica,sans-Serif" font-size="10.00">pdal::Stage::startLogging</text>
</a>
</g>
</g>
<!-- Node12&#45;&gt;Node21 -->
<g id="edge21" class="edge"><title>Node12&#45;&gt;Node21</title>
<path fill="none" stroke="midnightblue" d="M199.409,-560.555C249.557,-572.002 341.713,-587.572 418,-570 450.526,-562.508 484.561,-544.144 506.229,-530.911"/>
<polygon fill="midnightblue" stroke="midnightblue" points="508.097,-533.871 514.718,-525.6 504.384,-527.936 508.097,-533.871"/>
</g>
<!-- Node28 -->
<g id="node28" class="node"><title>Node28</title>
<g id="a_node28"><a xlink:href="classpdal_1_1Stage.html#ae49e996fe285350923a3bf44d027adad" target="_top" xlink:title="pdal::Stage::stopLogging">
<polygon fill="white" stroke="black" points="275,-404.5 275,-423.5 400,-423.5 400,-404.5 275,-404.5"/>
<text text-anchor="middle" x="337.5" y="-411.5" font-family="Helvetica,sans-Serif" font-size="10.00">pdal::Stage::stopLogging</text>
</a>
</g>
</g>
<!-- Node12&#45;&gt;Node28 -->
<g id="edge28" class="edge"><title>Node12&#45;&gt;Node28</title>
<path fill="none" stroke="midnightblue" d="M167.364,-541.253C179.273,-518.446 212.225,-461.389 257,-433 260.343,-430.881 263.901,-428.998 267.587,-427.324"/>
<polygon fill="midnightblue" stroke="midnightblue" points="268.975,-430.539 276.967,-423.583 266.382,-424.037 268.975,-430.539"/>
</g>
<!-- Node19 -->
<g id="node19" class="node"><title>Node19</title>
<g id="a_node19"><a xlink:href="classpdal_1_1Stage.html#a2444e73dc41bfc0b94981909595ef2ca" target="_top" xlink:title="pdal::Stage::done">
<polygon fill="white" stroke="black" points="483.5,-617.5 483.5,-636.5 576.5,-636.5 576.5,-617.5 483.5,-617.5"/>
<text text-anchor="middle" x="530" y="-624.5" font-family="Helvetica,sans-Serif" font-size="10.00">pdal::Stage::done</text>
</a>
</g>
</g>
<!-- Node18&#45;&gt;Node19 -->
<g id="edge19" class="edge"><title>Node18&#45;&gt;Node19</title>
<path fill="none" stroke="midnightblue" d="M388.054,-627C414.155,-627 446.254,-627 473.224,-627"/>
<polygon fill="midnightblue" stroke="midnightblue" points="473.286,-630.5 483.286,-627 473.286,-623.5 473.286,-630.5"/>
</g>
<!-- Node22 -->
<g id="node22" class="node"><title>Node22</title>
<g id="a_node22"><a xlink:href="classpdal_1_1gdal_1_1ErrorHandler.html#a56e0125595a43bf3b0cbd0b9a4bc55ea" target="_top" xlink:title="pdal::gdal::ErrorHandler\l::getGlobalErrorHandler">
<polygon fill="white" stroke="black" points="652,-526 652,-556 771,-556 771,-526 652,-526"/>
<text text-anchor="start" x="660" y="-544" font-family="Helvetica,sans-Serif" font-size="10.00">pdal::gdal::ErrorHandler</text>
<text text-anchor="middle" x="711.5" y="-533" font-family="Helvetica,sans-Serif" font-size="10.00">::getGlobalErrorHandler</text>
</a>
</g>
</g>
<!-- Node21&#45;&gt;Node22 -->
<g id="edge22" class="edge"><title>Node21&#45;&gt;Node22</title>
<path fill="none" stroke="midnightblue" d="M592.523,-524.569C608.407,-526.781 625.605,-529.176 641.828,-531.436"/>
<polygon fill="midnightblue" stroke="midnightblue" points="641.396,-534.909 651.784,-532.822 642.362,-527.976 641.396,-534.909"/>
</g>
<!-- Node24 -->
<g id="node24" class="node"><title>Node24</title>
<g id="a_node24"><a xlink:href="classpdal_1_1Stage.html#aec4fb27c40bb4b032ff003a89a950dd4" target="_top" xlink:title="pdal::Stage::isDebug">
<polygon fill="white" stroke="black" points="657.5,-449.5 657.5,-468.5 765.5,-468.5 765.5,-449.5 657.5,-449.5"/>
<text text-anchor="middle" x="711.5" y="-456.5" font-family="Helvetica,sans-Serif" font-size="10.00">pdal::Stage::isDebug</text>
</a>
</g>
</g>
<!-- Node21&#45;&gt;Node24 -->
<g id="edge24" class="edge"><title>Node21&#45;&gt;Node24</title>
<path fill="none" stroke="midnightblue" d="M575.961,-506.46C585.99,-503.824 596.471,-500.662 606,-497 622.888,-490.511 625.186,-484.679 642,-478 647.946,-475.638 654.294,-473.454 660.635,-471.472"/>
<polygon fill="midnightblue" stroke="midnightblue" points="661.951,-474.732 670.538,-468.527 659.956,-468.022 661.951,-474.732"/>
</g>
<!-- Node25 -->
<g id="node25" class="node"><title>Node25</title>
<g id="a_node25"><a xlink:href="classpdal_1_1gdal_1_1ErrorHandler.html#ace1cff928ab179f671181ebaf4d280a4" target="_top" xlink:title="pdal::gdal::ErrorHandler::set">
<polygon fill="white" stroke="black" points="642,-487.5 642,-506.5 781,-506.5 781,-487.5 642,-487.5"/>
<text text-anchor="middle" x="711.5" y="-494.5" font-family="Helvetica,sans-Serif" font-size="10.00">pdal::gdal::ErrorHandler::set</text>
</a>
</g>
</g>
<!-- Node21&#45;&gt;Node25 -->
<g id="edge25" class="edge"><title>Node21&#45;&gt;Node25</title>
<path fill="none" stroke="midnightblue" d="M592.523,-509.488C605.22,-508.144 618.756,-506.711 631.963,-505.313"/>
<polygon fill="midnightblue" stroke="midnightblue" points="632.403,-508.786 641.979,-504.253 631.666,-501.825 632.403,-508.786"/>
</g>
<!-- Node23 -->
<g id="node23" class="node"><title>Node23</title>
<g id="a_node23"><a xlink:href="classpdal_1_1gdal_1_1ErrorHandler.html#a73215504640551589024d36018f81d33" target="_top" xlink:title="pdal::gdal::ErrorHandler\l::ErrorHandler">
<polygon fill="white" stroke="red" points="817,-531 817,-561 936,-561 936,-531 817,-531"/>
<text text-anchor="start" x="825" y="-549" font-family="Helvetica,sans-Serif" font-size="10.00">pdal::gdal::ErrorHandler</text>
<text text-anchor="middle" x="876.5" y="-538" font-family="Helvetica,sans-Serif" font-size="10.00">::ErrorHandler</text>
</a>
</g>
</g>
<!-- Node22&#45;&gt;Node23 -->
<g id="edge23" class="edge"><title>Node22&#45;&gt;Node23</title>
<path fill="none" stroke="midnightblue" d="M771.347,-542.805C782.773,-543.156 794.844,-543.526 806.56,-543.885"/>
<polygon fill="midnightblue" stroke="midnightblue" points="806.637,-547.389 816.74,-544.198 806.852,-540.392 806.637,-547.389"/>
</g>
<!-- Node26 -->
<g id="node26" class="node"><title>Node26</title>
<g id="a_node26"><a xlink:href="classpdal_1_1gdal_1_1ErrorHandler.html#abe7fbf19bfcfbb0be1c8ae934bd5c9d2" target="_top" xlink:title="pdal::gdal::ErrorHandler\l::setLog">
<polygon fill="white" stroke="black" points="817,-433 817,-463 936,-463 936,-433 817,-433"/>
<text text-anchor="start" x="825" y="-451" font-family="Helvetica,sans-Serif" font-size="10.00">pdal::gdal::ErrorHandler</text>
<text text-anchor="middle" x="876.5" y="-440" font-family="Helvetica,sans-Serif" font-size="10.00">::setLog</text>
</a>
</g>
</g>
<!-- Node25&#45;&gt;Node26 -->
<g id="edge26" class="edge"><title>Node25&#45;&gt;Node26</title>
<path fill="none" stroke="midnightblue" d="M747.771,-487.484C758.468,-484.526 770.235,-481.2 781,-478 793.368,-474.323 806.596,-470.227 819.119,-466.273"/>
<polygon fill="midnightblue" stroke="midnightblue" points="820.508,-469.504 828.981,-463.143 818.391,-462.832 820.508,-469.504"/>
</g>
<!-- Node27 -->
<g id="node27" class="node"><title>Node27</title>
<g id="a_node27"><a xlink:href="classpdal_1_1gdal_1_1ErrorHandler.html#a61ea2c53f778817785d39cd9fc6a81a6" target="_top" xlink:title="pdal::gdal::ErrorHandler\l::setDebug">
<polygon fill="white" stroke="black" points="817,-482 817,-512 936,-512 936,-482 817,-482"/>
<text text-anchor="start" x="825" y="-500" font-family="Helvetica,sans-Serif" font-size="10.00">pdal::gdal::ErrorHandler</text>
<text text-anchor="middle" x="876.5" y="-489" font-family="Helvetica,sans-Serif" font-size="10.00">::setDebug</text>
</a>
</g>
</g>
<!-- Node25&#45;&gt;Node27 -->
<g id="edge27" class="edge"><title>Node25&#45;&gt;Node27</title>
<path fill="none" stroke="midnightblue" d="M781.154,-497C789.628,-497 798.293,-497 806.768,-497"/>
<polygon fill="midnightblue" stroke="midnightblue" points="806.987,-500.5 816.987,-497 806.987,-493.5 806.987,-500.5"/>
</g>
<!-- Node29&#45;&gt;Node21 -->
<g id="edge60" class="edge"><title>Node29&#45;&gt;Node21</title>
<path fill="none" stroke="midnightblue" d="M207.928,-309.507C280.331,-324.747 414.194,-353.315 418,-357 464.154,-401.692 408.49,-451.652 454,-497 455.463,-498.458 457.021,-499.809 458.657,-501.061"/>
<polygon fill="midnightblue" stroke="midnightblue" points="457.075,-504.2 467.41,-506.531 460.785,-498.264 457.075,-504.2"/>
</g>
<!-- Node29&#45;&gt;Node28 -->
<g id="edge61" class="edge"><title>Node29&#45;&gt;Node28</title>
<path fill="none" stroke="midnightblue" d="M169.087,-309.533C182.966,-328.854 217.235,-372.689 257,-395 261.007,-397.248 265.271,-399.231 269.665,-400.981"/>
<polygon fill="midnightblue" stroke="midnightblue" points="268.844,-404.403 279.438,-404.45 271.185,-397.807 268.844,-404.403"/>
</g>
<!-- Node29&#45;&gt;Node29 -->
<g id="edge58" class="edge"><title>Node29&#45;&gt;Node29</title>
<path fill="none" stroke="midnightblue" d="M141.771,-309.757C132.174,-318.565 138.75,-328 161.5,-328 176.074,-328 184.011,-324.128 185.309,-319.029"/>
<polygon fill="midnightblue" stroke="midnightblue" points="188.46,-317.5 181.229,-309.757 182.053,-320.32 188.46,-317.5"/>
</g>
<!-- Node30 -->
<g id="node30" class="node"><title>Node30</title>
<g id="a_node30"><a xlink:href="classpdal_1_1Stage.html#a7ec627c76e1c30fc53780bd81d08d4ad" target="_top" xlink:title="pdal::Stage::addDimensions">
<polygon fill="white" stroke="black" points="267.5,-366.5 267.5,-385.5 407.5,-385.5 407.5,-366.5 267.5,-366.5"/>
<text text-anchor="middle" x="337.5" y="-373.5" font-family="Helvetica,sans-Serif" font-size="10.00">pdal::Stage::addDimensions</text>
</a>
</g>
</g>
<!-- Node29&#45;&gt;Node30 -->
<g id="edge30" class="edge"><title>Node29&#45;&gt;Node30</title>
<path fill="none" stroke="midnightblue" d="M177.717,-309.684C195.988,-320.999 227.828,-339.731 257,-352 267.277,-356.322 278.599,-360.223 289.397,-363.563"/>
<polygon fill="midnightblue" stroke="midnightblue" points="288.538,-366.959 299.121,-366.468 290.542,-360.252 288.538,-366.959"/>
</g>
<!-- Node31 -->
<g id="node31" class="node"><title>Node31</title>
<g id="a_node31"><a xlink:href="classpdal_1_1Stage.html#a75f17f9b67f48f6aab1d98aadefc4d5c" target="_top" xlink:title="pdal::Stage::handleOptions">
<polygon fill="white" stroke="black" points="270.5,-252.5 270.5,-271.5 404.5,-271.5 404.5,-252.5 270.5,-252.5"/>
<text text-anchor="middle" x="337.5" y="-259.5" font-family="Helvetica,sans-Serif" font-size="10.00">pdal::Stage::handleOptions</text>
</a>
</g>
</g>
<!-- Node29&#45;&gt;Node31 -->
<g id="edge31" class="edge"><title>Node29&#45;&gt;Node31</title>
<path fill="none" stroke="midnightblue" d="M206.408,-290.411C229.679,-285.329 258.454,-279.045 283.019,-273.68"/>
<polygon fill="midnightblue" stroke="midnightblue" points="283.885,-277.073 292.908,-271.52 282.392,-270.234 283.885,-277.073"/>
</g>
<!-- Node43 -->
<g id="node43" class="node"><title>Node43</title>
<g id="a_node43"><a xlink:href="classpdal_1_1Stage.html#a5b422f842a6374b448439df99fe6e07e" target="_top" xlink:title="pdal::Stage::initialize">
<polygon fill="white" stroke="black" points="284,-290.5 284,-309.5 391,-309.5 391,-290.5 284,-290.5"/>
<text text-anchor="middle" x="337.5" y="-297.5" font-family="Helvetica,sans-Serif" font-size="10.00">pdal::Stage::initialize</text>
</a>
</g>
</g>
<!-- Node29&#45;&gt;Node43 -->
<g id="edge51" class="edge"><title>Node29&#45;&gt;Node43</title>
<path fill="none" stroke="midnightblue" d="M213.765,-300C232.545,-300 254.014,-300 273.69,-300"/>
<polygon fill="midnightblue" stroke="midnightblue" points="273.793,-303.5 283.793,-300 273.792,-296.5 273.793,-303.5"/>
</g>
<!-- Node44 -->
<g id="node44" class="node"><title>Node44</title>
<g id="a_node44"><a xlink:href="classpdal_1_1Stage.html#a6c85dfbf6a674dbc2eda76a79efada48" target="_top" xlink:title="pdal::Stage::l_initialize">
<polygon fill="white" stroke="black" points="280,-126.5 280,-145.5 395,-145.5 395,-126.5 280,-126.5"/>
<text text-anchor="middle" x="337.5" y="-133.5" font-family="Helvetica,sans-Serif" font-size="10.00">pdal::Stage::l_initialize</text>
</a>
</g>
</g>
<!-- Node29&#45;&gt;Node44 -->
<g id="edge52" class="edge"><title>Node29&#45;&gt;Node44</title>
<path fill="none" stroke="midnightblue" d="M165.833,-290.416C175.457,-264.224 205.912,-191.004 257,-155 261.17,-152.061 265.738,-149.573 270.508,-147.466"/>
<polygon fill="midnightblue" stroke="midnightblue" points="271.798,-150.72 279.88,-143.869 269.29,-144.185 271.798,-150.72"/>
</g>
<!-- Node48 -->
<g id="node48" class="node"><title>Node48</title>
<g id="a_node48"><a xlink:href="classpdal_1_1BasePointTable.html#a7e3a12a1f29e6cd10d8669ed3d07eb94" target="_top" xlink:title="pdal::BasePointTable\l::layout">
<polygon fill="white" stroke="black" points="282.5,-203 282.5,-233 392.5,-233 392.5,-203 282.5,-203"/>
<text text-anchor="start" x="290.5" y="-221" font-family="Helvetica,sans-Serif" font-size="10.00">pdal::BasePointTable</text>
<text text-anchor="middle" x="337.5" y="-210" font-family="Helvetica,sans-Serif" font-size="10.00">::layout</text>
</a>
</g>
</g>
<!-- Node29&#45;&gt;Node48 -->
<g id="edge57" class="edge"><title>Node29&#45;&gt;Node48</title>
<path fill="none" stroke="midnightblue" d="M176.022,-290.421C193.875,-278.113 226.61,-256.707 257,-243 262.028,-240.732 267.322,-238.585 272.691,-236.574"/>
<polygon fill="midnightblue" stroke="midnightblue" points="274.158,-239.766 282.394,-233.102 271.8,-233.175 274.158,-239.766"/>
</g>
<!-- Node49 -->
<g id="node49" class="node"><title>Node49</title>
<g id="a_node49"><a xlink:href="classpdal_1_1Stage.html#affff6bc9dbff793d074d76333c5732dd" target="_top" xlink:title="pdal::Stage::prepared">
<polygon fill="white" stroke="black" points="282.5,-164.5 282.5,-183.5 392.5,-183.5 392.5,-164.5 282.5,-164.5"/>
<text text-anchor="middle" x="337.5" y="-171.5" font-family="Helvetica,sans-Serif" font-size="10.00">pdal::Stage::prepared</text>
</a>
</g>
</g>
<!-- Node29&#45;&gt;Node49 -->
<g id="edge59" class="edge"><title>Node29&#45;&gt;Node49</title>
<path fill="none" stroke="midnightblue" d="M168.181,-290.226C181.07,-268.966 214.722,-218.398 257,-193 261.79,-190.123 266.987,-187.681 272.353,-185.609"/>
<polygon fill="midnightblue" stroke="midnightblue" points="273.81,-188.809 282.142,-182.264 271.547,-182.185 273.81,-188.809"/>
</g>
<!-- Node32 -->
<g id="node32" class="node"><title>Node32</title>
<g id="a_node32"><a xlink:href="classpdal_1_1Stage.html#a75ff99f7b665c6573e304ed4148dd99e" target="_top" xlink:title="pdal::Stage::addAllArgs">
<polygon fill="white" stroke="black" points="470.5,-278.5 470.5,-297.5 589.5,-297.5 589.5,-278.5 470.5,-278.5"/>
<text text-anchor="middle" x="530" y="-285.5" font-family="Helvetica,sans-Serif" font-size="10.00">pdal::Stage::addAllArgs</text>
</a>
</g>
</g>
<!-- Node31&#45;&gt;Node32 -->
<g id="edge32" class="edge"><title>Node31&#45;&gt;Node32</title>
<path fill="none" stroke="midnightblue" d="M404.593,-271.021C422.637,-273.483 442.225,-276.157 460.405,-278.638"/>
<polygon fill="midnightblue" stroke="midnightblue" points="459.96,-282.11 470.341,-279.994 460.906,-275.174 459.96,-282.11"/>
</g>
<!-- Node34 -->
<g id="node34" class="node"><title>Node34</title>
<g id="a_node34"><a xlink:href="classpdal_1_1Stage.html#a6c81d6fbbac17ebe4cd63806916cc750" target="_top" xlink:title="pdal::Stage::getName">
<polygon fill="white" stroke="black" points="655.5,-354.5 655.5,-373.5 767.5,-373.5 767.5,-354.5 655.5,-354.5"/>
<text text-anchor="middle" x="711.5" y="-361.5" font-family="Helvetica,sans-Serif" font-size="10.00">pdal::Stage::getName</text>
</a>
</g>
</g>
<!-- Node31&#45;&gt;Node34 -->
<g id="edge45" class="edge"><title>Node31&#45;&gt;Node34</title>
<path fill="none" stroke="midnightblue" d="M400.564,-271.63C406.772,-274.088 412.721,-277.161 418,-281 442.843,-299.067 427.943,-323.732 454,-340 511.324,-375.789 590.334,-377.692 645.462,-373.242"/>
<polygon fill="midnightblue" stroke="midnightblue" points="645.82,-376.724 655.467,-372.344 645.195,-369.752 645.82,-376.724"/>
</g>
<!-- Node36 -->
<g id="node36" class="node"><title>Node36</title>
<g id="a_node36"><a xlink:href="classpdal_1_1Options.html#a99aa4c0c7ba443d584f741d22d37f6a5" target="_top" xlink:title="pdal::Options::getValues">
<polygon fill="white" stroke="black" points="468,-392.5 468,-411.5 592,-411.5 592,-392.5 468,-392.5"/>
<text text-anchor="middle" x="530" y="-399.5" font-family="Helvetica,sans-Serif" font-size="10.00">pdal::Options::getValues</text>
</a>
</g>
</g>
<!-- Node31&#45;&gt;Node36 -->
<g id="edge36" class="edge"><title>Node31&#45;&gt;Node36</title>
<path fill="none" stroke="midnightblue" d="M403.321,-271.53C408.646,-274.032 413.645,-277.142 418,-281 452.419,-311.494 420.75,-346.235 454,-378 458.243,-382.053 463.171,-385.422 468.436,-388.222"/>
<polygon fill="midnightblue" stroke="midnightblue" points="467.005,-391.416 477.553,-392.418 469.932,-385.058 467.005,-391.416"/>
</g>
<!-- Node37 -->
<g id="node37" class="node"><title>Node37</title>
<g id="a_node37"><a xlink:href="classpdal_1_1Options.html#aab2dd4f9208512ad8c38a71ad9d2c98b" target="_top" xlink:title="pdal::Options::addConditional">
<polygon fill="white" stroke="black" points="457.5,-164.5 457.5,-183.5 602.5,-183.5 602.5,-164.5 457.5,-164.5"/>
<text text-anchor="middle" x="530" y="-171.5" font-family="Helvetica,sans-Serif" font-size="10.00">pdal::Options::addConditional</text>
</a>
</g>
</g>
<!-- Node31&#45;&gt;Node37 -->
<g id="edge37" class="edge"><title>Node31&#45;&gt;Node37</title>
<path fill="none" stroke="midnightblue" d="M396.554,-252.449C404.129,-249.78 411.504,-246.367 418,-242 440.428,-226.925 431.585,-208.094 454,-193 457.078,-190.927 460.365,-189.081 463.78,-187.436"/>
<polygon fill="midnightblue" stroke="midnightblue" points="465.2,-190.635 473.063,-183.535 462.488,-184.182 465.2,-190.635"/>
</g>
<!-- Node38 -->
<g id="node38" class="node"><title>Node38</title>
<g id="a_node38"><a xlink:href="classpdal_1_1Options.html#a541bdbfe72511dad8a22236f0a3cb2ab" target="_top" xlink:title="pdal::Options::fromFile">
<polygon fill="white" stroke="red" points="472,-240.5 472,-259.5 588,-259.5 588,-240.5 472,-240.5"/>
<text text-anchor="middle" x="530" y="-247.5" font-family="Helvetica,sans-Serif" font-size="10.00">pdal::Options::fromFile</text>
</a>
</g>
</g>
<!-- Node31&#45;&gt;Node38 -->
<g id="edge40" class="edge"><title>Node31&#45;&gt;Node38</title>
<path fill="none" stroke="midnightblue" d="M404.593,-257.837C423.09,-256.671 443.211,-255.404 461.773,-254.235"/>
<polygon fill="midnightblue" stroke="midnightblue" points="462.144,-257.718 471.904,-253.597 461.704,-250.732 462.144,-257.718"/>
</g>
<!-- Node40 -->
<g id="node40" class="node"><title>Node40</title>
<g id="a_node40"><a xlink:href="classpdal_1_1Options.html#a0d9ebe7f77b36dea85b51eb0098a5df0" target="_top" xlink:title="pdal::Options::remove">
<polygon fill="white" stroke="black" points="473.5,-202.5 473.5,-221.5 586.5,-221.5 586.5,-202.5 473.5,-202.5"/>
<text text-anchor="middle" x="530" y="-209.5" font-family="Helvetica,sans-Serif" font-size="10.00">pdal::Options::remove</text>
</a>
</g>
</g>
<!-- Node31&#45;&gt;Node40 -->
<g id="edge42" class="edge"><title>Node31&#45;&gt;Node40</title>
<path fill="none" stroke="midnightblue" d="M378.232,-252.419C390.97,-249.237 405.112,-245.588 418,-242 434.117,-237.513 437.886,-235.5 454,-231 462.46,-228.637 471.491,-226.242 480.25,-223.985"/>
<polygon fill="midnightblue" stroke="midnightblue" points="481.153,-227.367 489.979,-221.505 479.424,-220.584 481.153,-227.367"/>
</g>
<!-- Node41 -->
<g id="node41" class="node"><title>Node41</title>
<g id="a_node41"><a xlink:href="classpdal_1_1Options.html#afb18dcc4f3883b8413171db00482959c" target="_top" xlink:title="pdal::Options::toCommandLine">
<polygon fill="white" stroke="red" points="454,-430.5 454,-449.5 606,-449.5 606,-430.5 454,-430.5"/>
<text text-anchor="middle" x="530" y="-437.5" font-family="Helvetica,sans-Serif" font-size="10.00">pdal::Options::toCommandLine</text>
</a>
</g>
</g>
<!-- Node31&#45;&gt;Node41 -->
<g id="edge44" class="edge"><title>Node31&#45;&gt;Node41</title>
<path fill="none" stroke="midnightblue" d="M404.52,-271.448C409.464,-273.982 414.053,-277.12 418,-281 463.816,-326.039 408.49,-375.652 454,-421 455.427,-422.422 456.945,-423.743 458.537,-424.969"/>
<polygon fill="midnightblue" stroke="midnightblue" points="456.726,-427.965 467.05,-430.346 460.464,-422.047 456.726,-427.965"/>
</g>
<!-- Node42 -->
<g id="node42" class="node"><title>Node42</title>
<g id="a_node42"><a xlink:href="classpdal_1_1Stage.html#ab94db25b14b94de1f62f9738327accd2" target="_top" xlink:title="pdal::Stage::setupLog">
<polygon fill="white" stroke="black" points="474,-468.5 474,-487.5 586,-487.5 586,-468.5 474,-468.5"/>
<text text-anchor="middle" x="530" y="-475.5" font-family="Helvetica,sans-Serif" font-size="10.00">pdal::Stage::setupLog</text>
</a>
</g>
</g>
<!-- Node31&#45;&gt;Node42 -->
<g id="edge46" class="edge"><title>Node31&#45;&gt;Node42</title>
<path fill="none" stroke="midnightblue" d="M404.74,-271.229C409.638,-273.809 414.156,-277.019 418,-281 474.064,-339.064 398.33,-400.559 454,-459 457.16,-462.317 460.81,-465.088 464.762,-467.399"/>
<polygon fill="midnightblue" stroke="midnightblue" points="463.297,-470.578 473.826,-471.757 466.33,-464.269 463.297,-470.578"/>
</g>
<!-- Node33 -->
<g id="node33" class="node"><title>Node33</title>
<g id="a_node33"><a xlink:href="classpdal_1_1Stage.html#a3f15d8fc5456be812aafc84000d8e621" target="_top" xlink:title="pdal::Stage::addArgs">
<polygon fill="white" stroke="black" points="657.5,-278.5 657.5,-297.5 765.5,-297.5 765.5,-278.5 657.5,-278.5"/>
<text text-anchor="middle" x="711.5" y="-285.5" font-family="Helvetica,sans-Serif" font-size="10.00">pdal::Stage::addArgs</text>
</a>
</g>
</g>
<!-- Node32&#45;&gt;Node33 -->
<g id="edge33" class="edge"><title>Node32&#45;&gt;Node33</title>
<path fill="none" stroke="midnightblue" d="M589.775,-288C608.15,-288 628.5,-288 647.175,-288"/>
<polygon fill="midnightblue" stroke="midnightblue" points="647.354,-291.5 657.354,-288 647.354,-284.5 647.354,-291.5"/>
</g>
<!-- Node32&#45;&gt;Node34 -->
<g id="edge34" class="edge"><title>Node32&#45;&gt;Node34</title>
<path fill="none" stroke="midnightblue" d="M571.673,-297.518C583.205,-301.131 595.476,-305.893 606,-312 624.773,-322.894 623.017,-334.475 642,-345 645.994,-347.214 650.264,-349.185 654.647,-350.937"/>
<polygon fill="midnightblue" stroke="midnightblue" points="653.765,-354.34 664.36,-354.432 656.135,-347.753 653.765,-354.34"/>
</g>
<!-- Node35 -->
<g id="node35" class="node"><title>Node35</title>
<g id="a_node35"><a xlink:href="classpdal_1_1Stage.html#ae89a62fb39c52a2067fc318359065625" target="_top" xlink:title="pdal::Stage::l_addArgs">
<polygon fill="white" stroke="red" points="653.5,-316.5 653.5,-335.5 769.5,-335.5 769.5,-316.5 653.5,-316.5"/>
<text text-anchor="middle" x="711.5" y="-323.5" font-family="Helvetica,sans-Serif" font-size="10.00">pdal::Stage::l_addArgs</text>
</a>
</g>
</g>
<!-- Node32&#45;&gt;Node35 -->
<g id="edge35" class="edge"><title>Node32&#45;&gt;Node35</title>
<path fill="none" stroke="midnightblue" d="M576.295,-297.589C600.409,-302.694 630.251,-309.011 655.667,-314.392"/>
<polygon fill="midnightblue" stroke="midnightblue" points="655.022,-317.833 665.53,-316.48 656.472,-310.985 655.022,-317.833"/>
</g>
<!-- Node37&#45;&gt;Node3 -->
<g id="edge38" class="edge"><title>Node37&#45;&gt;Node3</title>
<path fill="none" stroke="midnightblue" d="M580.864,-164.483C589.472,-161.97 598.164,-158.85 606,-155 640.563,-138.017 674.5,-108.298 693.921,-89.6858"/>
<polygon fill="midnightblue" stroke="midnightblue" points="696.378,-92.179 701.085,-82.6875 691.486,-87.1715 696.378,-92.179"/>
</g>
<!-- Node37&#45;&gt;Node8 -->
<g id="edge39" class="edge"><title>Node37&#45;&gt;Node8</title>
<path fill="none" stroke="midnightblue" d="M602.717,-174C616.257,-174 630.368,-174 643.748,-174"/>
<polygon fill="midnightblue" stroke="midnightblue" points="643.816,-177.5 653.816,-174 643.816,-170.5 643.816,-177.5"/>
</g>
<!-- Node39 -->
<g id="node39" class="node"><title>Node39</title>
<g id="a_node39"><a xlink:href="namespacepdal_1_1FileUtils.html#ae2b8f1ddc38b0033b685a0bde6106ba1" target="_top" xlink:title="pdal::FileUtils::fileExists">
<polygon fill="white" stroke="red" points="650,-240.5 650,-259.5 773,-259.5 773,-240.5 650,-240.5"/>
<text text-anchor="middle" x="711.5" y="-247.5" font-family="Helvetica,sans-Serif" font-size="10.00">pdal::FileUtils::fileExists</text>
</a>
</g>
</g>
<!-- Node38&#45;&gt;Node39 -->
<g id="edge41" class="edge"><title>Node38&#45;&gt;Node39</title>
<path fill="none" stroke="midnightblue" d="M588.288,-250C604.517,-250 622.382,-250 639.324,-250"/>
<polygon fill="midnightblue" stroke="midnightblue" points="639.73,-253.5 649.73,-250 639.73,-246.5 639.73,-253.5"/>
</g>
<!-- Node40&#45;&gt;Node8 -->
<g id="edge43" class="edge"><title>Node40&#45;&gt;Node8</title>
<path fill="none" stroke="midnightblue" d="M576.295,-202.411C600.409,-197.306 630.251,-190.989 655.667,-185.608"/>
<polygon fill="midnightblue" stroke="midnightblue" points="656.472,-189.015 665.53,-183.52 655.022,-182.167 656.472,-189.015"/>
</g>
<!-- Node42&#45;&gt;Node22 -->
<g id="edge48" class="edge"><title>Node42&#45;&gt;Node22</title>
<path fill="none" stroke="midnightblue" d="M575.961,-487.54C585.99,-490.176 596.471,-493.338 606,-497 622.888,-503.489 625.464,-508.66 642,-516 646.724,-518.097 651.684,-520.161 656.684,-522.149"/>
<polygon fill="midnightblue" stroke="midnightblue" points="655.707,-525.525 666.297,-525.868 658.233,-518.996 655.707,-525.525"/>
</g>
<!-- Node42&#45;&gt;Node24 -->
<g id="edge50" class="edge"><title>Node42&#45;&gt;Node24</title>
<path fill="none" stroke="midnightblue" d="M586.321,-472.144C605.531,-470.111 627.222,-467.815 647.038,-465.717"/>
<polygon fill="midnightblue" stroke="midnightblue" points="647.631,-469.174 657.207,-464.641 646.894,-462.213 647.631,-469.174"/>
</g>
<!-- Node42&#45;&gt;Node25 -->
<g id="edge49" class="edge"><title>Node42&#45;&gt;Node25</title>
<path fill="none" stroke="midnightblue" d="M586.321,-483.856C600.686,-485.376 616.438,-487.044 631.756,-488.665"/>
<polygon fill="midnightblue" stroke="midnightblue" points="631.427,-492.15 641.74,-489.722 632.164,-485.189 631.427,-492.15"/>
</g>
<!-- Node42&#45;&gt;Node34 -->
<g id="edge47" class="edge"><title>Node42&#45;&gt;Node34</title>
<path fill="none" stroke="midnightblue" d="M582.69,-468.472C590.745,-465.986 598.782,-462.878 606,-459 643.183,-439.025 677.613,-402.956 696.178,-381.471"/>
<polygon fill="midnightblue" stroke="midnightblue" points="698.916,-383.653 702.702,-373.757 693.572,-379.132 698.916,-383.653"/>
</g>
<!-- Node44&#45;&gt;Node34 -->
<g id="edge55" class="edge"><title>Node44&#45;&gt;Node34</title>
<path fill="none" stroke="midnightblue" d="M395.157,-141.324C403.663,-144.308 411.685,-148.672 418,-155 467.04,-204.14 404.451,-258.372 454,-307 503.338,-355.421 538.533,-324.93 606,-340 623.54,-343.918 642.714,-348.295 659.795,-352.226"/>
<polygon fill="midnightblue" stroke="midnightblue" points="659.051,-355.647 669.581,-354.483 660.624,-348.826 659.051,-355.647"/>
</g>
<!-- Node45 -->
<g id="node45" class="node"><title>Node45</title>
<g id="a_node45"><a xlink:href="classpdal_1_1BasePointTable.html#a03429472e71e5dd323bc92319f4a9df6" target="_top" xlink:title="pdal::BasePointTable\l::metadata">
<polygon fill="white" stroke="black" points="475,-39 475,-69 585,-69 585,-39 475,-39"/>
<text text-anchor="start" x="483" y="-57" font-family="Helvetica,sans-Serif" font-size="10.00">pdal::BasePointTable</text>
<text text-anchor="middle" x="530" y="-46" font-family="Helvetica,sans-Serif" font-size="10.00">::metadata</text>
</a>
</g>
</g>
<!-- Node44&#45;&gt;Node45 -->
<g id="edge53" class="edge"><title>Node44&#45;&gt;Node45</title>
<path fill="none" stroke="midnightblue" d="M382.858,-126.421C394.718,-122.856 407.225,-118.135 418,-112 436.862,-101.261 435.293,-90.0073 454,-79 457.66,-76.8466 461.53,-74.8486 465.507,-72.9998"/>
<polygon fill="midnightblue" stroke="midnightblue" points="467.122,-76.1153 474.931,-68.954 464.361,-69.6831 467.122,-76.1153"/>
</g>
<!-- Node46 -->
<g id="node46" class="node"><title>Node46</title>
<g id="a_node46"><a xlink:href="classpdal_1_1MetadataNode.html#af2c1c5d91f6ab47a804aa8a0a1b043c2" target="_top" xlink:title="pdal::MetadataNode::add">
<polygon fill="white" stroke="black" points="467,-126.5 467,-145.5 593,-145.5 593,-126.5 467,-126.5"/>
<text text-anchor="middle" x="530" y="-133.5" font-family="Helvetica,sans-Serif" font-size="10.00">pdal::MetadataNode::add</text>
</a>
</g>
</g>
<!-- Node44&#45;&gt;Node46 -->
<g id="edge54" class="edge"><title>Node44&#45;&gt;Node46</title>
<path fill="none" stroke="midnightblue" d="M395.141,-136C414.468,-136 436.349,-136 456.736,-136"/>
<polygon fill="midnightblue" stroke="midnightblue" points="456.922,-139.5 466.922,-136 456.922,-132.5 456.922,-139.5"/>
</g>
<!-- Node47 -->
<g id="node47" class="node"><title>Node47</title>
<g id="a_node47"><a xlink:href="classpdal_1_1Stage.html#a0d7c0bb23ed18577b1aa58b02448487f" target="_top" xlink:title="pdal::Stage::writerInitialize">
<polygon fill="white" stroke="black" points="464,-88.5 464,-107.5 596,-107.5 596,-88.5 464,-88.5"/>
<text text-anchor="middle" x="530" y="-95.5" font-family="Helvetica,sans-Serif" font-size="10.00">pdal::Stage::writerInitialize</text>
</a>
</g>
</g>
<!-- Node44&#45;&gt;Node47 -->
<g id="edge56" class="edge"><title>Node44&#45;&gt;Node47</title>
<path fill="none" stroke="midnightblue" d="M386.571,-126.411C412.276,-121.284 444.113,-114.933 471.164,-109.537"/>
<polygon fill="midnightblue" stroke="midnightblue" points="472.152,-112.909 481.274,-107.52 470.783,-106.044 472.152,-112.909"/>
</g>
</g>
</svg>
