<?xml version="1.0" encoding="UTF-8" standalone="no"?>
<!DOCTYPE svg PUBLIC "-//W3C//DTD SVG 1.1//EN"
 "http://www.w3.org/Graphics/SVG/1.1/DTD/svg11.dtd">
<!-- Generated by graphviz version 2.38.0 (20140413.2041)
 -->
<!-- Title: pdal::TEST Pages: 1 -->
<svg width="869pt" height="161pt"
 viewBox="0.00 0.00 869.00 161.00" xmlns="http://www.w3.org/2000/svg" xmlns:xlink="http://www.w3.org/1999/xlink">
<g id="graph0" class="graph" transform="scale(1 1) rotate(0) translate(4 157)">
<title>pdal::TEST</title>
<polygon fill="white" stroke="none" points="-4,4 -4,-157 865,-157 865,4 -4,4"/>
<!-- Node1 -->
<g id="node1" class="node"><title>Node1</title>
<polygon fill="#bfbfbf" stroke="black" points="0,-61.5 0,-80.5 66,-80.5 66,-61.5 0,-61.5"/>
<text text-anchor="middle" x="33" y="-68.5" font-family="Helvetica,sans-Serif" font-size="10.00">pdal::TEST</text>
</g>
<!-- Node2 -->
<g id="node2" class="node"><title>Node2</title>
<g id="a_node2"><a xlink:href="namespacepdal.html#a5533547ac22c443217a5af2a0a32a985" target="_top" xlink:title="pdal::getWKT">
<polygon fill="white" stroke="black" points="116,-85.5 116,-104.5 193,-104.5 193,-85.5 116,-85.5"/>
<text text-anchor="middle" x="154.5" y="-92.5" font-family="Helvetica,sans-Serif" font-size="10.00">pdal::getWKT</text>
</a>
</g>
</g>
<!-- Node1&#45;&gt;Node2 -->
<g id="edge1" class="edge"><title>Node1&#45;&gt;Node2</title>
<path fill="none" stroke="midnightblue" d="M66.0238,-77.4316C78.2543,-79.8879 92.4763,-82.7442 105.853,-85.4308"/>
<polygon fill="midnightblue" stroke="midnightblue" points="105.378,-88.9051 115.871,-87.4428 106.756,-82.0422 105.378,-88.9051"/>
</g>
<!-- Node11 -->
<g id="node11" class="node"><title>Node11</title>
<g id="a_node11"><a xlink:href="classpdal_1_1Geometry.html#ae5def73416a71131a5484c070f61a07f" target="_top" xlink:title="pdal::Geometry::wkt">
<polygon fill="white" stroke="black" points="102,-38.5 102,-57.5 207,-57.5 207,-38.5 102,-38.5"/>
<text text-anchor="middle" x="154.5" y="-45.5" font-family="Helvetica,sans-Serif" font-size="10.00">pdal::Geometry::wkt</text>
</a>
</g>
</g>
<!-- Node1&#45;&gt;Node11 -->
<g id="edge11" class="edge"><title>Node1&#45;&gt;Node11</title>
<path fill="none" stroke="midnightblue" d="M66.0238,-64.8364C74.6441,-63.1773 84.2538,-61.3277 93.8597,-59.4789"/>
<polygon fill="midnightblue" stroke="midnightblue" points="94.6688,-62.8875 103.827,-57.5605 93.3457,-56.0137 94.6688,-62.8875"/>
</g>
<!-- Node3 -->
<g id="node3" class="node"><title>Node3</title>
<g id="a_node3"><a xlink:href="namespacepdal_1_1FileUtils.html#a04d2d37c72f0f400f5d5b917b2f2ba05" target="_top" xlink:title="pdal::FileUtils::closeFile">
<polygon fill="white" stroke="black" points="253,-133.5 253,-152.5 375,-152.5 375,-133.5 253,-133.5"/>
<text text-anchor="middle" x="314" y="-140.5" font-family="Helvetica,sans-Serif" font-size="10.00">pdal::FileUtils::closeFile</text>
</a>
</g>
</g>
<!-- Node2&#45;&gt;Node3 -->
<g id="edge2" class="edge"><title>Node2&#45;&gt;Node3</title>
<path fill="none" stroke="midnightblue" d="M182.963,-104.533C200.141,-110.388 222.773,-117.908 243,-124 250.545,-126.273 258.585,-128.569 266.425,-130.743"/>
<polygon fill="midnightblue" stroke="midnightblue" points="265.63,-134.154 276.199,-133.419 267.478,-127.402 265.63,-134.154"/>
</g>
<!-- Node4 -->
<g id="node4" class="node"><title>Node4</title>
<g id="a_node4"><a xlink:href="classSupport.html#a9bbdf6f202f4f2e45e7a53007dd0a238" target="_top" xlink:title="Support::datapath">
<polygon fill="white" stroke="black" points="267,-95.5 267,-114.5 361,-114.5 361,-95.5 267,-95.5"/>
<text text-anchor="middle" x="314" y="-102.5" font-family="Helvetica,sans-Serif" font-size="10.00">Support::datapath</text>
</a>
</g>
</g>
<!-- Node2&#45;&gt;Node4 -->
<g id="edge3" class="edge"><title>Node2&#45;&gt;Node4</title>
<path fill="none" stroke="midnightblue" d="M193.225,-97.3952C212.23,-98.6019 235.657,-100.089 256.737,-101.428"/>
<polygon fill="midnightblue" stroke="midnightblue" points="256.666,-104.93 266.868,-102.071 257.11,-97.9443 256.666,-104.93"/>
</g>
<!-- Node6 -->
<g id="node6" class="node"><title>Node6</title>
<g id="a_node6"><a xlink:href="namespacepdal_1_1FileUtils.html#aeeda62ff11a1e6bcc9175f51f7efe522" target="_top" xlink:title="pdal::FileUtils::openFile">
<polygon fill="white" stroke="black" points="254.5,-57.5 254.5,-76.5 373.5,-76.5 373.5,-57.5 254.5,-57.5"/>
<text text-anchor="middle" x="314" y="-64.5" font-family="Helvetica,sans-Serif" font-size="10.00">pdal::FileUtils::openFile</text>
</a>
</g>
</g>
<!-- Node2&#45;&gt;Node6 -->
<g id="edge5" class="edge"><title>Node2&#45;&gt;Node6</title>
<path fill="none" stroke="midnightblue" d="M193.225,-88.2933C210.12,-85.2899 230.509,-81.6651 249.638,-78.2644"/>
<polygon fill="midnightblue" stroke="midnightblue" points="250.268,-81.7073 259.501,-76.511 249.043,-74.8154 250.268,-81.7073"/>
</g>
<!-- Node5 -->
<g id="node5" class="node"><title>Node5</title>
<g id="a_node5"><a xlink:href="namespaceTestConfig.html#a0e622015f0610c2cfcbb3739b972d877" target="_top" xlink:title="TestConfig::dataPath">
<polygon fill="white" stroke="black" points="427.5,-114.5 427.5,-133.5 537.5,-133.5 537.5,-114.5 427.5,-114.5"/>
<text text-anchor="middle" x="482.5" y="-121.5" font-family="Helvetica,sans-Serif" font-size="10.00">TestConfig::dataPath</text>
</a>
</g>
</g>
<!-- Node4&#45;&gt;Node5 -->
<g id="edge4" class="edge"><title>Node4&#45;&gt;Node5</title>
<path fill="none" stroke="midnightblue" d="M361.38,-110.293C378.673,-112.266 398.625,-114.543 417.24,-116.667"/>
<polygon fill="midnightblue" stroke="midnightblue" points="417.086,-120.172 427.419,-117.829 417.88,-113.217 417.086,-120.172"/>
</g>
<!-- Node7 -->
<g id="node7" class="node"><title>Node7</title>
<g id="a_node7"><a xlink:href="namespacepdal_1_1Dimension.html#af3176b0b7e6b4be000317846cf7c2718" target="_top" xlink:title="pdal::Dimension::name">
<polygon fill="white" stroke="black" points="424,-76.5 424,-95.5 541,-95.5 541,-76.5 424,-76.5"/>
<text text-anchor="middle" x="482.5" y="-83.5" font-family="Helvetica,sans-Serif" font-size="10.00">pdal::Dimension::name</text>
</a>
</g>
</g>
<!-- Node6&#45;&gt;Node7 -->
<g id="edge6" class="edge"><title>Node6&#45;&gt;Node7</title>
<path fill="none" stroke="midnightblue" d="M373.702,-73.6987C386.683,-75.1801 400.54,-76.7613 413.845,-78.2796"/>
<polygon fill="midnightblue" stroke="midnightblue" points="413.556,-81.7693 423.889,-79.4257 414.35,-74.8144 413.556,-81.7693"/>
</g>
<!-- Node8 -->
<g id="node8" class="node"><title>Node8</title>
<g id="a_node8"><a xlink:href="namespacepdal_1_1anonymous__namespace_02FileUtils_8cpp_03.html#a813a530ad72d50f747643f1bb996cacf" target="_top" xlink:title="pdal::anonymous_namespace\l\{FileUtils::cpp\}::isStdin">
<polygon fill="white" stroke="black" points="580,-14 580,-44 726,-44 726,-14 580,-14"/>
<text text-anchor="start" x="588" y="-32" font-family="Helvetica,sans-Serif" font-size="10.00">pdal::anonymous_namespace</text>
<text text-anchor="middle" x="653" y="-21" font-family="Helvetica,sans-Serif" font-size="10.00">{FileUtils::cpp}::isStdin</text>
</a>
</g>
</g>
<!-- Node6&#45;&gt;Node8 -->
<g id="edge7" class="edge"><title>Node6&#45;&gt;Node8</title>
<path fill="none" stroke="midnightblue" d="M373.701,-60.3809C428.006,-54.2575 509.261,-45.0952 569.972,-38.2495"/>
<polygon fill="midnightblue" stroke="midnightblue" points="570.367,-41.7272 579.912,-37.1286 569.583,-34.7713 570.367,-41.7272"/>
</g>
<!-- Node10 -->
<g id="node10" class="node"><title>Node10</title>
<g id="a_node10"><a xlink:href="namespacepdal_1_1FileUtils.html#ae2b8f1ddc38b0033b685a0bde6106ba1" target="_top" xlink:title="pdal::FileUtils::fileExists">
<polygon fill="white" stroke="black" points="421,-0.5 421,-19.5 544,-19.5 544,-0.5 421,-0.5"/>
<text text-anchor="middle" x="482.5" y="-7.5" font-family="Helvetica,sans-Serif" font-size="10.00">pdal::FileUtils::fileExists</text>
</a>
</g>
</g>
<!-- Node6&#45;&gt;Node10 -->
<g id="edge9" class="edge"><title>Node6&#45;&gt;Node10</title>
<path fill="none" stroke="midnightblue" d="M353.009,-57.5C363.448,-54.6698 374.721,-51.4075 385,-48 388.235,-46.9278 421.398,-33.8318 447.957,-23.3096"/>
<polygon fill="midnightblue" stroke="midnightblue" points="449.369,-26.515 457.375,-19.5765 446.789,-20.0075 449.369,-26.515"/>
</g>
<!-- Node9 -->
<g id="node9" class="node"><title>Node9</title>
<g id="a_node9"><a xlink:href="namespacepdal_1_1Utils.html#a28e3e2faff94b20f9908e77bc54ed983" target="_top" xlink:title="pdal::Utils::toupper">
<polygon fill="white" stroke="black" points="762,-19.5 762,-38.5 861,-38.5 861,-19.5 762,-19.5"/>
<text text-anchor="middle" x="811.5" y="-26.5" font-family="Helvetica,sans-Serif" font-size="10.00">pdal::Utils::toupper</text>
</a>
</g>
</g>
<!-- Node8&#45;&gt;Node9 -->
<g id="edge8" class="edge"><title>Node8&#45;&gt;Node9</title>
<path fill="none" stroke="midnightblue" d="M726.295,-29C734.742,-29 743.282,-29 751.518,-29"/>
<polygon fill="midnightblue" stroke="midnightblue" points="751.758,-32.5001 761.758,-29 751.758,-25.5001 751.758,-32.5001"/>
</g>
<!-- Node10&#45;&gt;Node8 -->
<g id="edge10" class="edge"><title>Node10&#45;&gt;Node8</title>
<path fill="none" stroke="midnightblue" d="M544.332,-16.8594C552.598,-17.7915 561.191,-18.7604 569.756,-19.7262"/>
<polygon fill="midnightblue" stroke="midnightblue" points="569.448,-23.2135 579.777,-20.8562 570.232,-16.2576 569.448,-23.2135"/>
</g>
<!-- Node12 -->
<g id="node12" class="node"><title>Node12</title>
<g id="a_node12"><a xlink:href="classpdal_1_1geos_1_1ErrorHandler.html#a54bdaa70ba8baee1c8ad8f9f47572c8d" target="_top" xlink:title="pdal::geos::ErrorHandler::ctx">
<polygon fill="white" stroke="black" points="243,-19.5 243,-38.5 385,-38.5 385,-19.5 243,-19.5"/>
<text text-anchor="middle" x="314" y="-26.5" font-family="Helvetica,sans-Serif" font-size="10.00">pdal::geos::ErrorHandler::ctx</text>
</a>
</g>
</g>
<!-- Node11&#45;&gt;Node12 -->
<g id="edge12" class="edge"><title>Node11&#45;&gt;Node12</title>
<path fill="none" stroke="midnightblue" d="M207.071,-41.7787C215.261,-40.7908 223.897,-39.749 232.56,-38.7038"/>
<polygon fill="midnightblue" stroke="midnightblue" points="233.209,-42.1511 242.718,-37.4785 232.37,-35.2014 233.209,-42.1511"/>
</g>
</g>
</svg>
