<?xml version="1.0" encoding="UTF-8" standalone="no"?>
<!DOCTYPE svg PUBLIC "-//W3C//DTD SVG 1.1//EN"
 "http://www.w3.org/Graphics/SVG/1.1/DTD/svg11.dtd">
<!-- Generated by graphviz version 2.38.0 (20140413.2041)
 -->
<!-- Title: pdal::Dimension::toName Pages: 1 -->
<svg width="752pt" height="225pt"
 viewBox="0.00 0.00 752.00 225.00" xmlns="http://www.w3.org/2000/svg" xmlns:xlink="http://www.w3.org/1999/xlink">
<g id="graph0" class="graph" transform="scale(1 1) rotate(0) translate(4 221)">
<title>pdal::Dimension::toName</title>
<polygon fill="white" stroke="none" points="-4,4 -4,-221 748,-221 748,4 -4,4"/>
<!-- Node1 -->
<g id="node1" class="node"><title>Node1</title>
<polygon fill="#bfbfbf" stroke="black" points="0,-128 0,-147 128,-147 128,-128 0,-128"/>
<text text-anchor="middle" x="64" y="-135" font-family="Helvetica,sans-Serif" font-size="10.00">pdal::Dimension::toName</text>
</g>
<!-- Node2 -->
<g id="node2" class="node"><title>Node2</title>
<g id="a_node2"><a xlink:href="classpdal_1_1GreyhoundReader.html#a0efe3298cfb80a47e25fe006d395ceb8" target="_top" xlink:title="pdal::GreyhoundReader\l::prepared">
<polygon fill="white" stroke="black" points="164,-147.5 164,-177.5 283,-177.5 283,-147.5 164,-147.5"/>
<text text-anchor="start" x="172" y="-165.5" font-family="Helvetica,sans-Serif" font-size="10.00">pdal::GreyhoundReader</text>
<text text-anchor="middle" x="223.5" y="-154.5" font-family="Helvetica,sans-Serif" font-size="10.00">::prepared</text>
</a>
</g>
</g>
<!-- Node1&#45;&gt;Node2 -->
<g id="edge1" class="edge"><title>Node1&#45;&gt;Node2</title>
<path fill="none" stroke="midnightblue" d="M134.992,-148.61C144.672,-150.146 154.531,-151.711 163.974,-153.21"/>
<polygon fill="midnightblue" stroke="midnightblue" points="135.418,-145.134 124.993,-147.023 134.321,-152.047 135.418,-145.134"/>
</g>
<!-- Node3 -->
<g id="node3" class="node"><title>Node3</title>
<g id="a_node3"><a xlink:href="classpdal_1_1PointLayout.html#a677fc6bf9b31cdbb8d64f57d7e796140" target="_top" xlink:title="pdal::PointLayout::\ltoMetadata">
<polygon fill="white" stroke="black" points="174.5,-98.5 174.5,-128.5 272.5,-128.5 272.5,-98.5 174.5,-98.5"/>
<text text-anchor="start" x="182.5" y="-116.5" font-family="Helvetica,sans-Serif" font-size="10.00">pdal::PointLayout::</text>
<text text-anchor="middle" x="223.5" y="-105.5" font-family="Helvetica,sans-Serif" font-size="10.00">toMetadata</text>
</a>
</g>
</g>
<!-- Node1&#45;&gt;Node3 -->
<g id="edge2" class="edge"><title>Node1&#45;&gt;Node3</title>
<path fill="none" stroke="midnightblue" d="M137.931,-126.387C150.194,-124.518 162.647,-122.62 174.091,-120.877"/>
<polygon fill="midnightblue" stroke="midnightblue" points="137.059,-122.979 127.701,-127.946 138.114,-129.899 137.059,-122.979"/>
</g>
<!-- Node4 -->
<g id="node4" class="node"><title>Node4</title>
<g id="a_node4"><a xlink:href="classpdal_1_1plang_1_1Invocation.html#adfe14b064df9a0d4dcf2d1da8a7cb1d8" target="_top" xlink:title="pdal::plang::Invocation\l::begin">
<polygon fill="white" stroke="black" points="319,-186.5 319,-216.5 434,-216.5 434,-186.5 319,-186.5"/>
<text text-anchor="start" x="327" y="-204.5" font-family="Helvetica,sans-Serif" font-size="10.00">pdal::plang::Invocation</text>
<text text-anchor="middle" x="376.5" y="-193.5" font-family="Helvetica,sans-Serif" font-size="10.00">::begin</text>
</a>
</g>
</g>
<!-- Node3&#45;&gt;Node4 -->
<g id="edge3" class="edge"><title>Node3&#45;&gt;Node4</title>
<path fill="none" stroke="midnightblue" d="M274.569,-133.209C277.491,-134.874 280.326,-136.638 283,-138.5 302.093,-151.792 299.992,-163.087 319,-176.5 324.171,-180.149 329.959,-183.444 335.806,-186.354"/>
<polygon fill="midnightblue" stroke="midnightblue" points="276.091,-130.055 265.609,-128.514 272.842,-136.256 276.091,-130.055"/>
</g>
<!-- Node6 -->
<g id="node6" class="node"><title>Node6</title>
<g id="a_node6"><a xlink:href="classpdal_1_1InfoKernel.html#a402cba839f0a07e7d1b5982869ae71c5" target="_top" xlink:title="pdal::InfoKernel::dump">
<polygon fill="white" stroke="black" points="319,-148 319,-167 434,-167 434,-148 319,-148"/>
<text text-anchor="middle" x="376.5" y="-155" font-family="Helvetica,sans-Serif" font-size="10.00">pdal::InfoKernel::dump</text>
</a>
</g>
</g>
<!-- Node3&#45;&gt;Node6 -->
<g id="edge5" class="edge"><title>Node3&#45;&gt;Node6</title>
<path fill="none" stroke="midnightblue" d="M282.505,-130.402C302.844,-136.329 324.975,-142.777 342.543,-147.897"/>
<polygon fill="midnightblue" stroke="midnightblue" points="283.272,-126.98 272.693,-127.543 281.314,-133.701 283.272,-126.98"/>
</g>
<!-- Node9 -->
<g id="node9" class="node"><title>Node9</title>
<g id="a_node9"><a xlink:href="classpdal_1_1PointLayout.html#a41955b0c316d4ae4d34eca8768be2ef9" target="_top" xlink:title="pdal::PointLayout::\lfinalized">
<polygon fill="white" stroke="black" points="327.5,-98.5 327.5,-128.5 425.5,-128.5 425.5,-98.5 327.5,-98.5"/>
<text text-anchor="start" x="335.5" y="-116.5" font-family="Helvetica,sans-Serif" font-size="10.00">pdal::PointLayout::</text>
<text text-anchor="middle" x="376.5" y="-105.5" font-family="Helvetica,sans-Serif" font-size="10.00">finalized</text>
</a>
</g>
</g>
<!-- Node3&#45;&gt;Node9 -->
<g id="edge8" class="edge"><title>Node3&#45;&gt;Node9</title>
<path fill="none" stroke="midnightblue" d="M282.707,-113.5C297.429,-113.5 313.077,-113.5 327.247,-113.5"/>
<polygon fill="midnightblue" stroke="midnightblue" points="282.693,-110 272.693,-113.5 282.692,-117 282.693,-110"/>
</g>
<!-- Node10 -->
<g id="node10" class="node"><title>Node10</title>
<g id="a_node10"><a xlink:href="classpdal_1_1PipelineExecutor.html#a9e29a5c7ed214f566efd7524b11d2ade" target="_top" xlink:title="pdal::PipelineExecutor\l::getSchema">
<polygon fill="white" stroke="black" points="319.5,-49.5 319.5,-79.5 433.5,-79.5 433.5,-49.5 319.5,-49.5"/>
<text text-anchor="start" x="327.5" y="-67.5" font-family="Helvetica,sans-Serif" font-size="10.00">pdal::PipelineExecutor</text>
<text text-anchor="middle" x="376.5" y="-56.5" font-family="Helvetica,sans-Serif" font-size="10.00">::getSchema</text>
</a>
</g>
</g>
<!-- Node3&#45;&gt;Node10 -->
<g id="edge9" class="edge"><title>Node3&#45;&gt;Node10</title>
<path fill="none" stroke="midnightblue" d="M280.768,-95.2409C296.694,-90.0727 313.844,-84.5076 329.117,-79.5516"/>
<polygon fill="midnightblue" stroke="midnightblue" points="279.468,-91.9828 271.037,-98.3986 281.629,-98.641 279.468,-91.9828"/>
</g>
<!-- Node11 -->
<g id="node11" class="node"><title>Node11</title>
<g id="a_node11"><a xlink:href="classpdal_1_1BasePointTable.html#af5d3dc0b4de191aa70ad2065cd212ba3" target="_top" xlink:title="pdal::BasePointTable\l::toMetadata">
<polygon fill="white" stroke="black" points="321.5,-0.5 321.5,-30.5 431.5,-30.5 431.5,-0.5 321.5,-0.5"/>
<text text-anchor="start" x="329.5" y="-18.5" font-family="Helvetica,sans-Serif" font-size="10.00">pdal::BasePointTable</text>
<text text-anchor="middle" x="376.5" y="-7.5" font-family="Helvetica,sans-Serif" font-size="10.00">::toMetadata</text>
</a>
</g>
</g>
<!-- Node3&#45;&gt;Node11 -->
<g id="edge10" class="edge"><title>Node3&#45;&gt;Node11</title>
<path fill="none" stroke="midnightblue" d="M249.235,-91.7125C267.639,-76.1865 293.823,-55.4948 319,-40.5 324.99,-36.9324 331.581,-33.5647 338.081,-30.5255"/>
<polygon fill="midnightblue" stroke="midnightblue" points="246.687,-89.2861 241.358,-98.4435 251.235,-94.6077 246.687,-89.2861"/>
</g>
<!-- Node5 -->
<g id="node5" class="node"><title>Node5</title>
<g id="a_node5"><a xlink:href="classpdal_1_1PythonFilter.html#a237d32f937771c1f5792170606a440be" target="_top" xlink:title="pdal::PythonFilter::run">
<polygon fill="white" stroke="black" points="470,-192 470,-211 583,-211 583,-192 470,-192"/>
<text text-anchor="middle" x="526.5" y="-199" font-family="Helvetica,sans-Serif" font-size="10.00">pdal::PythonFilter::run</text>
</a>
</g>
</g>
<!-- Node4&#45;&gt;Node5 -->
<g id="edge4" class="edge"><title>Node4&#45;&gt;Node5</title>
<path fill="none" stroke="midnightblue" d="M444.455,-201.5C452.856,-201.5 461.38,-201.5 469.587,-201.5"/>
<polygon fill="midnightblue" stroke="midnightblue" points="444.297,-198 434.297,-201.5 444.297,-205 444.297,-198"/>
</g>
<!-- Node7 -->
<g id="node7" class="node"><title>Node7</title>
<g id="a_node7"><a xlink:href="classpdal_1_1InfoKernel.html#a507a4fa6aa98127ddc55bb730bcf6a2f" target="_top" xlink:title="pdal::InfoKernel::run">
<polygon fill="white" stroke="black" points="474.5,-148 474.5,-167 578.5,-167 578.5,-148 474.5,-148"/>
<text text-anchor="middle" x="526.5" y="-155" font-family="Helvetica,sans-Serif" font-size="10.00">pdal::InfoKernel::run</text>
</a>
</g>
</g>
<!-- Node6&#45;&gt;Node7 -->
<g id="edge6" class="edge"><title>Node6&#45;&gt;Node7</title>
<path fill="none" stroke="midnightblue" d="M444.319,-157.5C454.428,-157.5 464.718,-157.5 474.424,-157.5"/>
<polygon fill="midnightblue" stroke="midnightblue" points="444.297,-154 434.297,-157.5 444.297,-161 444.297,-154"/>
</g>
<!-- Node8 -->
<g id="node8" class="node"><title>Node8</title>
<g id="a_node8"><a xlink:href="classpdal_1_1InfoKernel.html#ac8d3f256fa5d844710b25034f4e22eaa" target="_top" xlink:title="pdal::InfoKernel::execute">
<polygon fill="white" stroke="black" points="619,-148 619,-167 744,-167 744,-148 619,-148"/>
<text text-anchor="middle" x="681.5" y="-155" font-family="Helvetica,sans-Serif" font-size="10.00">pdal::InfoKernel::execute</text>
</a>
</g>
</g>
<!-- Node7&#45;&gt;Node8 -->
<g id="edge7" class="edge"><title>Node7&#45;&gt;Node8</title>
<path fill="none" stroke="midnightblue" d="M588.993,-157.5C598.853,-157.5 609.058,-157.5 618.92,-157.5"/>
<polygon fill="midnightblue" stroke="midnightblue" points="588.872,-154 578.872,-157.5 588.872,-161 588.872,-154"/>
</g>
</g>
</svg>
