<?xml version="1.0" encoding="UTF-8" standalone="no"?>
<!DOCTYPE svg PUBLIC "-//W3C//DTD SVG 1.1//EN"
 "http://www.w3.org/Graphics/SVG/1.1/DTD/svg11.dtd">
<!-- Generated by graphviz version 2.38.0 (20140413.2041)
 -->
<!-- Title: pdal::Utils::split Pages: 1 -->
<svg width="930pt" height="380pt"
 viewBox="0.00 0.00 930.00 379.50" xmlns="http://www.w3.org/2000/svg" xmlns:xlink="http://www.w3.org/1999/xlink">
<g id="graph0" class="graph" transform="scale(1 1) rotate(0) translate(4 375.5)">
<title>pdal::Utils::split</title>
<polygon fill="white" stroke="none" points="-4,4 -4,-375.5 926,-375.5 926,4 -4,4"/>
<!-- Node1 -->
<g id="node1" class="node"><title>Node1</title>
<polygon fill="#bfbfbf" stroke="black" points="0,-170.5 0,-189.5 85,-189.5 85,-170.5 0,-170.5"/>
<text text-anchor="middle" x="42.5" y="-177.5" font-family="Helvetica,sans-Serif" font-size="10.00">pdal::Utils::split</text>
</g>
<!-- Node2 -->
<g id="node2" class="node"><title>Node2</title>
<g id="a_node2"><a xlink:href="classpdal_1_1ChipperFilter.html#ac3556fc1324a1f9f51fe5fd75705e487" target="_top" xlink:title="pdal::ChipperFilter\l::ChipperFilter">
<polygon fill="white" stroke="black" points="154,-341 154,-371 250,-371 250,-341 154,-341"/>
<text text-anchor="start" x="162" y="-359" font-family="Helvetica,sans-Serif" font-size="10.00">pdal::ChipperFilter</text>
<text text-anchor="middle" x="202" y="-348" font-family="Helvetica,sans-Serif" font-size="10.00">::ChipperFilter</text>
</a>
</g>
</g>
<!-- Node1&#45;&gt;Node2 -->
<g id="edge1" class="edge"><title>Node1&#45;&gt;Node2</title>
<path fill="none" stroke="midnightblue" d="M48.3011,-199.746C57.1441,-231.942 79.0578,-295.691 121,-331 130.351,-338.872 142.178,-344.27 153.851,-347.969"/>
<polygon fill="midnightblue" stroke="midnightblue" points="51.6115,-198.569 45.7069,-189.772 44.8369,-200.331 51.6115,-198.569"/>
</g>
<!-- Node3 -->
<g id="node3" class="node"><title>Node3</title>
<g id="a_node3"><a xlink:href="classpdal_1_1TextReader.html#ad84d96b6633d11d99204a0f12050ec7d" target="_top" xlink:title="pdal::TextReader::fillFields">
<polygon fill="white" stroke="black" points="135,-302.5 135,-321.5 269,-321.5 269,-302.5 135,-302.5"/>
<text text-anchor="middle" x="202" y="-309.5" font-family="Helvetica,sans-Serif" font-size="10.00">pdal::TextReader::fillFields</text>
</a>
</g>
</g>
<!-- Node1&#45;&gt;Node3 -->
<g id="edge2" class="edge"><title>Node1&#45;&gt;Node3</title>
<path fill="none" stroke="midnightblue" d="M51.2329,-198.982C62.6154,-224.45 86.3486,-269.222 121,-293 126.65,-296.877 132.993,-299.968 139.572,-302.432"/>
<polygon fill="midnightblue" stroke="midnightblue" points="54.3933,-197.471 47.2352,-189.66 47.9599,-200.23 54.3933,-197.471"/>
</g>
<!-- Node6 -->
<g id="node6" class="node"><title>Node6</title>
<g id="a_node6"><a xlink:href="namespacepdal_1_1anonymous__namespace_02InfoKernel_8cpp_03.html#af6d8bead92b952511925b36e6204bdd6" target="_top" xlink:title="pdal::anonymous_namespace\l\{InfoKernel::cpp\}::getListOfPoints">
<polygon fill="white" stroke="black" points="121,-253 121,-283 283,-283 283,-253 121,-253"/>
<text text-anchor="start" x="129" y="-271" font-family="Helvetica,sans-Serif" font-size="10.00">pdal::anonymous_namespace</text>
<text text-anchor="middle" x="202" y="-260" font-family="Helvetica,sans-Serif" font-size="10.00">{InfoKernel::cpp}::getListOfPoints</text>
</a>
</g>
</g>
<!-- Node1&#45;&gt;Node6 -->
<g id="edge5" class="edge"><title>Node1&#45;&gt;Node6</title>
<path fill="none" stroke="midnightblue" d="M60.516,-197.078C75.3589,-211.133 98.0558,-230.681 121,-243 128.051,-246.786 135.765,-250.099 143.532,-252.967"/>
<polygon fill="midnightblue" stroke="midnightblue" points="62.7429,-194.362 53.1264,-189.916 57.871,-199.389 62.7429,-194.362"/>
</g>
<!-- Node11 -->
<g id="node11" class="node"><title>Node11</title>
<g id="a_node11"><a xlink:href="classpdal_1_1TextReader.html#ab1ac1a1f74565c6773ab1bbe90cde204" target="_top" xlink:title="pdal::TextReader::initialize">
<polygon fill="white" stroke="black" points="135.5,-214.5 135.5,-233.5 268.5,-233.5 268.5,-214.5 135.5,-214.5"/>
<text text-anchor="middle" x="202" y="-221.5" font-family="Helvetica,sans-Serif" font-size="10.00">pdal::TextReader::initialize</text>
</a>
</g>
</g>
<!-- Node1&#45;&gt;Node11 -->
<g id="edge10" class="edge"><title>Node1&#45;&gt;Node11</title>
<path fill="none" stroke="midnightblue" d="M81.0565,-192.773C93.6846,-196.892 107.893,-201.336 121,-205 132.961,-208.344 146.032,-211.609 158.076,-214.464"/>
<polygon fill="midnightblue" stroke="midnightblue" points="81.9122,-189.37 71.3191,-189.561 79.7192,-196.018 81.9122,-189.37"/>
</g>
<!-- Node12 -->
<g id="node12" class="node"><title>Node12</title>
<g id="a_node12"><a xlink:href="classpdal_1_1FerryFilter.html#a9477df165d2db87405b8af1bba818113" target="_top" xlink:title="pdal::FerryFilter::\linitialize">
<polygon fill="white" stroke="black" points="156.5,-165 156.5,-195 247.5,-195 247.5,-165 156.5,-165"/>
<text text-anchor="start" x="164.5" y="-183" font-family="Helvetica,sans-Serif" font-size="10.00">pdal::FerryFilter::</text>
<text text-anchor="middle" x="202" y="-172" font-family="Helvetica,sans-Serif" font-size="10.00">initialize</text>
</a>
</g>
</g>
<!-- Node1&#45;&gt;Node12 -->
<g id="edge11" class="edge"><title>Node1&#45;&gt;Node12</title>
<path fill="none" stroke="midnightblue" d="M95.3278,-180C115.02,-180 137.265,-180 156.249,-180"/>
<polygon fill="midnightblue" stroke="midnightblue" points="95.2936,-176.5 85.2936,-180 95.2936,-183.5 95.2936,-176.5"/>
</g>
<!-- Node13 -->
<g id="node13" class="node"><title>Node13</title>
<g id="a_node13"><a xlink:href="namespacepdal_1_1Utils.html#a4408865a8740c4c75bf1727e87ef3c42" target="_top" xlink:title="pdal::Utils::split">
<polygon fill="white" stroke="black" points="159.5,-126.5 159.5,-145.5 244.5,-145.5 244.5,-126.5 159.5,-126.5"/>
<text text-anchor="middle" x="202" y="-133.5" font-family="Helvetica,sans-Serif" font-size="10.00">pdal::Utils::split</text>
</a>
</g>
</g>
<!-- Node1&#45;&gt;Node13 -->
<g id="edge12" class="edge"><title>Node1&#45;&gt;Node13</title>
<path fill="none" stroke="midnightblue" d="M82.7269,-167.39C94.946,-163.587 108.495,-159.497 121,-156 133.96,-152.376 148.189,-148.717 161.007,-145.537"/>
<polygon fill="midnightblue" stroke="midnightblue" points="81.3202,-164.164 72.8277,-170.498 83.417,-170.842 81.3202,-164.164"/>
</g>
<!-- Node14 -->
<g id="node14" class="node"><title>Node14</title>
<g id="a_node14"><a xlink:href="classpdal_1_1ProgramArgs.html#a4137837e91ebba7e48846f2ced506dba" target="_top" xlink:title="pdal::ProgramArgs::\lsplitName">
<polygon fill="white" stroke="black" points="150,-77 150,-107 254,-107 254,-77 150,-77"/>
<text text-anchor="start" x="158" y="-95" font-family="Helvetica,sans-Serif" font-size="10.00">pdal::ProgramArgs::</text>
<text text-anchor="middle" x="202" y="-84" font-family="Helvetica,sans-Serif" font-size="10.00">splitName</text>
</a>
</g>
</g>
<!-- Node1&#45;&gt;Node14 -->
<g id="edge13" class="edge"><title>Node1&#45;&gt;Node14</title>
<path fill="none" stroke="midnightblue" d="M60.516,-162.922C75.3589,-148.867 98.0558,-129.319 121,-117 129.974,-112.182 140.022,-108.129 149.886,-104.784"/>
<polygon fill="midnightblue" stroke="midnightblue" points="57.871,-160.611 53.1264,-170.084 62.7429,-165.638 57.871,-160.611"/>
</g>
<!-- Node15 -->
<g id="node15" class="node"><title>Node15</title>
<g id="a_node15"><a xlink:href="UtilsTest_8cpp.html#a5658dd653cedd6b18630d518fdb9ec32" target="_top" xlink:title="TEST">
<polygon fill="white" stroke="black" points="181,-38.5 181,-57.5 223,-57.5 223,-38.5 181,-38.5"/>
<text text-anchor="middle" x="202" y="-45.5" font-family="Helvetica,sans-Serif" font-size="10.00">TEST</text>
</a>
</g>
</g>
<!-- Node1&#45;&gt;Node15 -->
<g id="edge14" class="edge"><title>Node1&#45;&gt;Node15</title>
<path fill="none" stroke="midnightblue" d="M51.2329,-161.018C62.6154,-135.55 86.3486,-90.778 121,-67 138.891,-54.723 163.74,-50.3267 180.976,-48.7809"/>
<polygon fill="midnightblue" stroke="midnightblue" points="47.9599,-159.77 47.2352,-170.34 54.3933,-162.529 47.9599,-159.77"/>
</g>
<!-- Node16 -->
<g id="node16" class="node"><title>Node16</title>
<g id="a_node16"><a xlink:href="OCITest_8cpp.html#a344c9abffdaa06c7636b686a0ab4afcf" target="_top" xlink:title="writeData">
<polygon fill="white" stroke="black" points="172.5,-0.5 172.5,-19.5 231.5,-19.5 231.5,-0.5 172.5,-0.5"/>
<text text-anchor="middle" x="202" y="-7.5" font-family="Helvetica,sans-Serif" font-size="10.00">writeData</text>
</a>
</g>
</g>
<!-- Node1&#45;&gt;Node16 -->
<g id="edge15" class="edge"><title>Node1&#45;&gt;Node16</title>
<path fill="none" stroke="midnightblue" d="M47.9103,-160.391C56.2808,-127.868 77.6454,-62.989 121,-29 135.492,-17.6384 155.693,-12.9026 172.169,-11.0001"/>
<polygon fill="midnightblue" stroke="midnightblue" points="44.4283,-159.899 45.4767,-170.442 51.2318,-161.546 44.4283,-159.899"/>
</g>
<!-- Node4 -->
<g id="node4" class="node"><title>Node4</title>
<g id="a_node4"><a xlink:href="classpdal_1_1TextReader.html#a55dcdf19c947158592db12930696b0a0" target="_top" xlink:title="pdal::TextReader::processOne">
<polygon fill="white" stroke="black" points="319,-302.5 319,-321.5 469,-321.5 469,-302.5 319,-302.5"/>
<text text-anchor="middle" x="394" y="-309.5" font-family="Helvetica,sans-Serif" font-size="10.00">pdal::TextReader::processOne</text>
</a>
</g>
</g>
<!-- Node3&#45;&gt;Node4 -->
<g id="edge3" class="edge"><title>Node3&#45;&gt;Node4</title>
<path fill="none" stroke="midnightblue" d="M279.494,-312C292.501,-312 305.989,-312 318.932,-312"/>
<polygon fill="midnightblue" stroke="midnightblue" points="279.186,-308.5 269.186,-312 279.186,-315.5 279.186,-308.5"/>
</g>
<!-- Node5 -->
<g id="node5" class="node"><title>Node5</title>
<g id="a_node5"><a xlink:href="classpdal_1_1TextReader.html#abced10f0b951aae75fa82807b78cc111" target="_top" xlink:title="pdal::TextReader::read">
<polygon fill="white" stroke="black" points="505,-302.5 505,-321.5 621,-321.5 621,-302.5 505,-302.5"/>
<text text-anchor="middle" x="563" y="-309.5" font-family="Helvetica,sans-Serif" font-size="10.00">pdal::TextReader::read</text>
</a>
</g>
</g>
<!-- Node4&#45;&gt;Node5 -->
<g id="edge4" class="edge"><title>Node4&#45;&gt;Node5</title>
<path fill="none" stroke="midnightblue" d="M479.33,-312C487.955,-312 496.568,-312 504.801,-312"/>
<polygon fill="midnightblue" stroke="midnightblue" points="479.221,-308.5 469.221,-312 479.221,-315.5 479.221,-308.5"/>
</g>
<!-- Node7 -->
<g id="node7" class="node"><title>Node7</title>
<g id="a_node7"><a xlink:href="classpdal_1_1InfoKernel.html#ae3390441d7172ddfee191dddef7c2fce" target="_top" xlink:title="pdal::InfoKernel::dumpPoints">
<polygon fill="white" stroke="black" points="322.5,-258.5 322.5,-277.5 465.5,-277.5 465.5,-258.5 322.5,-258.5"/>
<text text-anchor="middle" x="394" y="-265.5" font-family="Helvetica,sans-Serif" font-size="10.00">pdal::InfoKernel::dumpPoints</text>
</a>
</g>
</g>
<!-- Node6&#45;&gt;Node7 -->
<g id="edge6" class="edge"><title>Node6&#45;&gt;Node7</title>
<path fill="none" stroke="midnightblue" d="M293.205,-268C303.013,-268 312.889,-268 322.415,-268"/>
<polygon fill="midnightblue" stroke="midnightblue" points="293.026,-264.5 283.026,-268 293.026,-271.5 293.026,-264.5"/>
</g>
<!-- Node8 -->
<g id="node8" class="node"><title>Node8</title>
<g id="a_node8"><a xlink:href="classpdal_1_1InfoKernel.html#a402cba839f0a07e7d1b5982869ae71c5" target="_top" xlink:title="pdal::InfoKernel::dump">
<polygon fill="white" stroke="black" points="505.5,-258.5 505.5,-277.5 620.5,-277.5 620.5,-258.5 505.5,-258.5"/>
<text text-anchor="middle" x="563" y="-265.5" font-family="Helvetica,sans-Serif" font-size="10.00">pdal::InfoKernel::dump</text>
</a>
</g>
</g>
<!-- Node7&#45;&gt;Node8 -->
<g id="edge7" class="edge"><title>Node7&#45;&gt;Node8</title>
<path fill="none" stroke="midnightblue" d="M476.131,-268C486.061,-268 496.035,-268 505.492,-268"/>
<polygon fill="midnightblue" stroke="midnightblue" points="475.823,-264.5 465.823,-268 475.823,-271.5 475.823,-264.5"/>
</g>
<!-- Node9 -->
<g id="node9" class="node"><title>Node9</title>
<g id="a_node9"><a xlink:href="classpdal_1_1InfoKernel.html#a507a4fa6aa98127ddc55bb730bcf6a2f" target="_top" xlink:title="pdal::InfoKernel::run">
<polygon fill="white" stroke="black" points="657,-258.5 657,-277.5 761,-277.5 761,-258.5 657,-258.5"/>
<text text-anchor="middle" x="709" y="-265.5" font-family="Helvetica,sans-Serif" font-size="10.00">pdal::InfoKernel::run</text>
</a>
</g>
</g>
<!-- Node8&#45;&gt;Node9 -->
<g id="edge8" class="edge"><title>Node8&#45;&gt;Node9</title>
<path fill="none" stroke="midnightblue" d="M630.966,-268C639.594,-268 648.319,-268 656.642,-268"/>
<polygon fill="midnightblue" stroke="midnightblue" points="630.913,-264.5 620.913,-268 630.913,-271.5 630.913,-264.5"/>
</g>
<!-- Node10 -->
<g id="node10" class="node"><title>Node10</title>
<g id="a_node10"><a xlink:href="classpdal_1_1InfoKernel.html#ac8d3f256fa5d844710b25034f4e22eaa" target="_top" xlink:title="pdal::InfoKernel::execute">
<polygon fill="white" stroke="black" points="797,-258.5 797,-277.5 922,-277.5 922,-258.5 797,-258.5"/>
<text text-anchor="middle" x="859.5" y="-265.5" font-family="Helvetica,sans-Serif" font-size="10.00">pdal::InfoKernel::execute</text>
</a>
</g>
</g>
<!-- Node9&#45;&gt;Node10 -->
<g id="edge9" class="edge"><title>Node9&#45;&gt;Node10</title>
<path fill="none" stroke="midnightblue" d="M771.248,-268C779.683,-268 788.348,-268 796.791,-268"/>
<polygon fill="midnightblue" stroke="midnightblue" points="771.105,-264.5 761.105,-268 771.105,-271.5 771.105,-264.5"/>
</g>
<!-- Node17 -->
<g id="node17" class="node"><title>Node17</title>
<g id="a_node17"><a xlink:href="OCITest_8cpp.html#aeec95d176ecd07ea099b8fd698bd9d25" target="_top" xlink:title="TEST_F">
<polygon fill="white" stroke="black" points="367.5,-0.5 367.5,-19.5 420.5,-19.5 420.5,-0.5 367.5,-0.5"/>
<text text-anchor="middle" x="394" y="-7.5" font-family="Helvetica,sans-Serif" font-size="10.00">TEST_F</text>
</a>
</g>
</g>
<!-- Node16&#45;&gt;Node17 -->
<g id="edge16" class="edge"><title>Node16&#45;&gt;Node17</title>
<path fill="none" stroke="midnightblue" d="M241.908,-10C279.37,-10 334.961,-10 367.232,-10"/>
<polygon fill="midnightblue" stroke="midnightblue" points="241.857,-6.5001 231.857,-10 241.857,-13.5001 241.857,-6.5001"/>
</g>
</g>
</svg>
