<?xml version="1.0" encoding="UTF-8" standalone="no"?>
<!DOCTYPE svg PUBLIC "-//W3C//DTD SVG 1.1//EN"
 "http://www.w3.org/Graphics/SVG/1.1/DTD/svg11.dtd">
<!-- Generated by graphviz version 2.38.0 (20140413.2041)
 -->
<!-- Title: pdal::FileUtils::getFilename Pages: 1 -->
<svg width="1279pt" height="931pt"
 viewBox="0.00 0.00 1279.00 930.50" xmlns="http://www.w3.org/2000/svg" xmlns:xlink="http://www.w3.org/1999/xlink">
<g id="graph0" class="graph" transform="scale(1 1) rotate(0) translate(4 926.5)">
<title>pdal::FileUtils::getFilename</title>
<polygon fill="white" stroke="none" points="-4,4 -4,-926.5 1275,-926.5 1275,4 -4,4"/>
<!-- Node1 -->
<g id="node1" class="node"><title>Node1</title>
<polygon fill="#bfbfbf" stroke="black" points="0,-750.5 0,-769.5 136,-769.5 136,-750.5 0,-750.5"/>
<text text-anchor="middle" x="68" y="-757.5" font-family="Helvetica,sans-Serif" font-size="10.00">pdal::FileUtils::getFilename</text>
</g>
<!-- Node2 -->
<g id="node2" class="node"><title>Node2</title>
<g id="a_node2"><a xlink:href="classpdal_1_1BpfWriter.html#a526c1c3f5d9b660155d8f44a5ade8de2" target="_top" xlink:title="pdal::BpfWriter::initialize">
<polygon fill="white" stroke="black" points="172,-843.5 172,-862.5 295,-862.5 295,-843.5 172,-843.5"/>
<text text-anchor="middle" x="233.5" y="-850.5" font-family="Helvetica,sans-Serif" font-size="10.00">pdal::BpfWriter::initialize</text>
</a>
</g>
</g>
<!-- Node1&#45;&gt;Node2 -->
<g id="edge1" class="edge"><title>Node1&#45;&gt;Node2</title>
<path fill="none" stroke="midnightblue" d="M87.9575,-776.076C107.825,-792.268 140.476,-817.069 172,-833 179.997,-837.042 188.991,-840.528 197.549,-843.406"/>
<polygon fill="midnightblue" stroke="midnightblue" points="89.9583,-773.189 80.0225,-769.511 85.4958,-778.582 89.9583,-773.189"/>
</g>
<!-- Node3 -->
<g id="node3" class="node"><title>Node3</title>
<g id="a_node3"><a xlink:href="classpdal_1_1PluginManager.html#a3344bf0a8d35b309b26cb23ae5fa3579" target="_top" xlink:title="pdal::PluginManager\l::loadByPath">
<polygon fill="white" stroke="black" points="181,-794 181,-824 286,-824 286,-794 181,-794"/>
<text text-anchor="start" x="189" y="-812" font-family="Helvetica,sans-Serif" font-size="10.00">pdal::PluginManager</text>
<text text-anchor="middle" x="233.5" y="-801" font-family="Helvetica,sans-Serif" font-size="10.00">::loadByPath</text>
</a>
</g>
</g>
<!-- Node1&#45;&gt;Node3 -->
<g id="edge2" class="edge"><title>Node1&#45;&gt;Node3</title>
<path fill="none" stroke="midnightblue" d="M110.556,-772.454C132.395,-778.999 159.33,-787.071 182.326,-793.963"/>
<polygon fill="midnightblue" stroke="midnightblue" points="111.496,-769.082 100.913,-769.564 109.487,-775.788 111.496,-769.082"/>
</g>
<!-- Node43 -->
<g id="node43" class="node"><title>Node43</title>
<g id="a_node43"><a xlink:href="namespacepdal_1_1FileUtils.html#a3bdadae2f0ef6896942c02e9a9c81e00" target="_top" xlink:title="pdal::FileUtils::stem">
<polygon fill="white" stroke="black" points="181.5,-750.5 181.5,-769.5 285.5,-769.5 285.5,-750.5 181.5,-750.5"/>
<text text-anchor="middle" x="233.5" y="-757.5" font-family="Helvetica,sans-Serif" font-size="10.00">pdal::FileUtils::stem</text>
</a>
</g>
</g>
<!-- Node1&#45;&gt;Node43 -->
<g id="edge44" class="edge"><title>Node1&#45;&gt;Node43</title>
<path fill="none" stroke="midnightblue" d="M146.747,-760C158.531,-760 170.426,-760 181.449,-760"/>
<polygon fill="midnightblue" stroke="midnightblue" points="146.446,-756.5 136.446,-760 146.446,-763.5 146.446,-756.5"/>
</g>
<!-- Node48 -->
<g id="node48" class="node"><title>Node48</title>
<g id="a_node48"><a xlink:href="FileUtilsTest_8cpp.html#ab4a0ff4a78ff51d95c1b99e61965902c" target="_top" xlink:title="TEST">
<polygon fill="white" stroke="black" points="212.5,-712.5 212.5,-731.5 254.5,-731.5 254.5,-712.5 212.5,-712.5"/>
<text text-anchor="middle" x="233.5" y="-719.5" font-family="Helvetica,sans-Serif" font-size="10.00">TEST</text>
</a>
</g>
</g>
<!-- Node1&#45;&gt;Node48 -->
<g id="edge51" class="edge"><title>Node1&#45;&gt;Node48</title>
<path fill="none" stroke="midnightblue" d="M120.092,-748.126C151.216,-740.892 189.273,-732.047 212.164,-726.726"/>
<polygon fill="midnightblue" stroke="midnightblue" points="119.206,-744.738 110.258,-750.411 120.791,-751.556 119.206,-744.738"/>
</g>
<!-- Node49 -->
<g id="node49" class="node"><title>Node49</title>
<g id="a_node49"><a xlink:href="classpdal_1_1NitfFileWriter.html#a3dd708be19b41cc3633c34903b3418f2" target="_top" xlink:title="pdal::NitfFileWriter\l::write">
<polygon fill="white" stroke="black" points="184.5,-613 184.5,-643 282.5,-643 282.5,-613 184.5,-613"/>
<text text-anchor="start" x="192.5" y="-631" font-family="Helvetica,sans-Serif" font-size="10.00">pdal::NitfFileWriter</text>
<text text-anchor="middle" x="233.5" y="-620" font-family="Helvetica,sans-Serif" font-size="10.00">::write</text>
</a>
</g>
</g>
<!-- Node1&#45;&gt;Node49 -->
<g id="edge52" class="edge"><title>Node1&#45;&gt;Node49</title>
<path fill="none" stroke="midnightblue" d="M89.1958,-743.695C121.155,-717.893 182.928,-668.021 213.877,-643.035"/>
<polygon fill="midnightblue" stroke="midnightblue" points="86.6047,-741.289 81.0225,-750.294 91.0019,-746.735 86.6047,-741.289"/>
</g>
<!-- Node4 -->
<g id="node4" class="node"><title>Node4</title>
<g id="a_node4"><a xlink:href="classpdal_1_1PluginManager.html#a4b104d8173aec62bcd3745ddee7aa3d5" target="_top" xlink:title="pdal::PluginManager\l::guessLoadByPath">
<polygon fill="white" stroke="black" points="341,-794 341,-824 446,-824 446,-794 341,-794"/>
<text text-anchor="start" x="349" y="-812" font-family="Helvetica,sans-Serif" font-size="10.00">pdal::PluginManager</text>
<text text-anchor="middle" x="393.5" y="-801" font-family="Helvetica,sans-Serif" font-size="10.00">::guessLoadByPath</text>
</a>
</g>
</g>
<!-- Node3&#45;&gt;Node4 -->
<g id="edge3" class="edge"><title>Node3&#45;&gt;Node4</title>
<path fill="none" stroke="midnightblue" d="M296.296,-809C311.061,-809 326.669,-809 340.919,-809"/>
<polygon fill="midnightblue" stroke="midnightblue" points="296.235,-805.5 286.235,-809 296.235,-812.5 296.235,-805.5"/>
</g>
<!-- Node37 -->
<g id="node37" class="node"><title>Node37</title>
<g id="a_node37"><a xlink:href="classpdal_1_1PluginManager.html#a15e7ad2b6a2960400decd9845b382c40" target="_top" xlink:title="pdal::PluginManager\l::l_loadPlugin">
<polygon fill="white" stroke="black" points="341,-892 341,-922 446,-922 446,-892 341,-892"/>
<text text-anchor="start" x="349" y="-910" font-family="Helvetica,sans-Serif" font-size="10.00">pdal::PluginManager</text>
<text text-anchor="middle" x="393.5" y="-899" font-family="Helvetica,sans-Serif" font-size="10.00">::l_loadPlugin</text>
</a>
</g>
</g>
<!-- Node3&#45;&gt;Node37 -->
<g id="edge38" class="edge"><title>Node3&#45;&gt;Node37</title>
<path fill="none" stroke="midnightblue" d="M287.804,-829.021C290.311,-830.579 292.727,-832.237 295,-834 316.073,-850.341 309.88,-865.72 331,-882 335.929,-885.8 341.516,-889.109 347.262,-891.965"/>
<polygon fill="midnightblue" stroke="midnightblue" points="289.439,-825.925 279.001,-824.108 286.028,-832.037 289.439,-825.925"/>
</g>
<!-- Node42 -->
<g id="node42" class="node"><title>Node42</title>
<g id="a_node42"><a xlink:href="classpdal_1_1PluginManager.html#a30e6d220be8e42b34afe56ba9d613911" target="_top" xlink:title="pdal::PluginManager\l::loadAll">
<polygon fill="white" stroke="black" points="341,-843 341,-873 446,-873 446,-843 341,-843"/>
<text text-anchor="start" x="349" y="-861" font-family="Helvetica,sans-Serif" font-size="10.00">pdal::PluginManager</text>
<text text-anchor="middle" x="393.5" y="-850" font-family="Helvetica,sans-Serif" font-size="10.00">::loadAll</text>
</a>
</g>
</g>
<!-- Node3&#45;&gt;Node42 -->
<g id="edge43" class="edge"><title>Node3&#45;&gt;Node42</title>
<path fill="none" stroke="midnightblue" d="M292.905,-827.113C309.702,-832.322 327.835,-837.946 343.966,-842.948"/>
<polygon fill="midnightblue" stroke="midnightblue" points="293.782,-823.721 283.194,-824.101 291.709,-830.407 293.782,-823.721"/>
</g>
<!-- Node5 -->
<g id="node5" class="node"><title>Node5</title>
<g id="a_node5"><a xlink:href="classpdal_1_1PluginManager.html#a1d74a4219bdf2592c026084e0aa3809a" target="_top" xlink:title="pdal::PluginManager\l::l_createObject">
<polygon fill="white" stroke="black" points="499.5,-794 499.5,-824 604.5,-824 604.5,-794 499.5,-794"/>
<text text-anchor="start" x="507.5" y="-812" font-family="Helvetica,sans-Serif" font-size="10.00">pdal::PluginManager</text>
<text text-anchor="middle" x="552" y="-801" font-family="Helvetica,sans-Serif" font-size="10.00">::l_createObject</text>
</a>
</g>
</g>
<!-- Node4&#45;&gt;Node5 -->
<g id="edge4" class="edge"><title>Node4&#45;&gt;Node5</title>
<path fill="none" stroke="midnightblue" d="M456.385,-809C470.626,-809 485.624,-809 499.377,-809"/>
<polygon fill="midnightblue" stroke="midnightblue" points="456.178,-805.5 446.178,-809 456.178,-812.5 456.178,-805.5"/>
</g>
<!-- Node6 -->
<g id="node6" class="node"><title>Node6</title>
<g id="a_node6"><a xlink:href="classpdal_1_1PluginManager.html#a70e78b2649f28e266ec11b7a9e183af9" target="_top" xlink:title="pdal::PluginManager\l::createObject">
<polygon fill="white" stroke="black" points="662.5,-794 662.5,-824 767.5,-824 767.5,-794 662.5,-794"/>
<text text-anchor="start" x="670.5" y="-812" font-family="Helvetica,sans-Serif" font-size="10.00">pdal::PluginManager</text>
<text text-anchor="middle" x="715" y="-801" font-family="Helvetica,sans-Serif" font-size="10.00">::createObject</text>
</a>
</g>
</g>
<!-- Node5&#45;&gt;Node6 -->
<g id="edge5" class="edge"><title>Node5&#45;&gt;Node6</title>
<path fill="none" stroke="midnightblue" d="M614.934,-809C630.57,-809 647.195,-809 662.269,-809"/>
<polygon fill="midnightblue" stroke="midnightblue" points="614.828,-805.5 604.828,-809 614.828,-812.5 614.828,-805.5"/>
</g>
<!-- Node7 -->
<g id="node7" class="node"><title>Node7</title>
<g id="a_node7"><a xlink:href="classpdal_1_1StageFactory.html#ac23b3763b84750594c834ec6ea27e334" target="_top" xlink:title="pdal::StageFactory\l::createStage">
<polygon fill="white" stroke="black" points="835.5,-403 835.5,-433 934.5,-433 934.5,-403 835.5,-403"/>
<text text-anchor="start" x="843.5" y="-421" font-family="Helvetica,sans-Serif" font-size="10.00">pdal::StageFactory</text>
<text text-anchor="middle" x="885" y="-410" font-family="Helvetica,sans-Serif" font-size="10.00">::createStage</text>
</a>
</g>
</g>
<!-- Node6&#45;&gt;Node7 -->
<g id="edge6" class="edge"><title>Node6&#45;&gt;Node7</title>
<path fill="none" stroke="midnightblue" d="M726.644,-784.227C758.403,-710.311 851.872,-492.773 877.46,-433.222"/>
<polygon fill="midnightblue" stroke="midnightblue" points="723.318,-783.103 722.586,-793.672 729.749,-785.866 723.318,-783.103"/>
</g>
<!-- Node34 -->
<g id="node34" class="node"><title>Node34</title>
<g id="a_node34"><a xlink:href="classApp.html#a2817579d633c3d379248cd45d035aba8" target="_top" xlink:title="App::execute">
<polygon fill="white" stroke="black" points="848,-845.5 848,-864.5 922,-864.5 922,-845.5 848,-845.5"/>
<text text-anchor="middle" x="885" y="-852.5" font-family="Helvetica,sans-Serif" font-size="10.00">App::execute</text>
</a>
</g>
</g>
<!-- Node6&#45;&gt;Node34 -->
<g id="edge35" class="edge"><title>Node6&#45;&gt;Node34</title>
<path fill="none" stroke="midnightblue" d="M777.571,-825.859C801.688,-832.462 828.468,-839.795 849.131,-845.453"/>
<polygon fill="midnightblue" stroke="midnightblue" points="778.346,-822.442 767.776,-823.177 776.497,-829.194 778.346,-822.442"/>
</g>
<!-- Node36 -->
<g id="node36" class="node"><title>Node36</title>
<g id="a_node36"><a xlink:href="namespacepdal.html#aefb189a539b8abf211887525c5434426" target="_top" xlink:title="pdal::TEST">
<polygon fill="white" stroke="black" points="852,-799.5 852,-818.5 918,-818.5 918,-799.5 852,-799.5"/>
<text text-anchor="middle" x="885" y="-806.5" font-family="Helvetica,sans-Serif" font-size="10.00">pdal::TEST</text>
</a>
</g>
</g>
<!-- Node6&#45;&gt;Node36 -->
<g id="edge37" class="edge"><title>Node6&#45;&gt;Node36</title>
<path fill="none" stroke="midnightblue" d="M777.971,-809C803.087,-809 831.031,-809 851.924,-809"/>
<polygon fill="midnightblue" stroke="midnightblue" points="777.776,-805.5 767.776,-809 777.776,-812.5 777.776,-805.5"/>
</g>
<!-- Node8 -->
<g id="node8" class="node"><title>Node8</title>
<g id="a_node8"><a xlink:href="classpdal_1_1PipelineManager.html#ad7f4c4be357e68bdec3051285cfc72f2" target="_top" xlink:title="pdal::PipelineManager\l::addFilter">
<polygon fill="white" stroke="black" points="998.5,-648 998.5,-678 1111.5,-678 1111.5,-648 998.5,-648"/>
<text text-anchor="start" x="1006.5" y="-666" font-family="Helvetica,sans-Serif" font-size="10.00">pdal::PipelineManager</text>
<text text-anchor="middle" x="1055" y="-655" font-family="Helvetica,sans-Serif" font-size="10.00">::addFilter</text>
</a>
</g>
</g>
<!-- Node7&#45;&gt;Node8 -->
<g id="edge7" class="edge"><title>Node7&#45;&gt;Node8</title>
<path fill="none" stroke="midnightblue" d="M891.049,-442.958C901.41,-488.01 929.219,-583.309 988,-638 992.126,-641.839 996.901,-645.106 1001.96,-647.882"/>
<polygon fill="midnightblue" stroke="midnightblue" points="894.456,-442.151 888.887,-433.138 887.619,-443.657 894.456,-442.151"/>
</g>
<!-- Node11 -->
<g id="node11" class="node"><title>Node11</title>
<g id="a_node11"><a xlink:href="classpdal_1_1PipelineManager.html#ac06522a7da0c1dbe787701a6abbe0f96" target="_top" xlink:title="pdal::PipelineManager\l::addReader">
<polygon fill="white" stroke="black" points="998.5,-599 998.5,-629 1111.5,-629 1111.5,-599 998.5,-599"/>
<text text-anchor="start" x="1006.5" y="-617" font-family="Helvetica,sans-Serif" font-size="10.00">pdal::PipelineManager</text>
<text text-anchor="middle" x="1055" y="-606" font-family="Helvetica,sans-Serif" font-size="10.00">::addReader</text>
</a>
</g>
</g>
<!-- Node7&#45;&gt;Node11 -->
<g id="edge10" class="edge"><title>Node7&#45;&gt;Node11</title>
<path fill="none" stroke="midnightblue" d="M894.578,-442.536C908.604,-479.286 939.808,-548.612 988,-589 992.602,-592.856 997.86,-596.152 1003.35,-598.961"/>
<polygon fill="midnightblue" stroke="midnightblue" points="897.833,-441.247 891.077,-433.086 891.268,-443.679 897.833,-441.247"/>
</g>
<!-- Node13 -->
<g id="node13" class="node"><title>Node13</title>
<g id="a_node13"><a xlink:href="classpdal_1_1PipelineManager.html#afeee48332d9d12837a531c398b9f26d6" target="_top" xlink:title="pdal::PipelineManager\l::addWriter">
<polygon fill="white" stroke="black" points="998.5,-550 998.5,-580 1111.5,-580 1111.5,-550 998.5,-550"/>
<text text-anchor="start" x="1006.5" y="-568" font-family="Helvetica,sans-Serif" font-size="10.00">pdal::PipelineManager</text>
<text text-anchor="middle" x="1055" y="-557" font-family="Helvetica,sans-Serif" font-size="10.00">::addWriter</text>
</a>
</g>
</g>
<!-- Node7&#45;&gt;Node13 -->
<g id="edge13" class="edge"><title>Node7&#45;&gt;Node13</title>
<path fill="none" stroke="midnightblue" d="M900.471,-441.803C918.085,-468.972 950.203,-513.115 988,-540 993.292,-543.764 999.221,-547.041 1005.3,-549.872"/>
<polygon fill="midnightblue" stroke="midnightblue" points="903.381,-439.856 895.067,-433.289 897.471,-443.608 903.381,-439.856"/>
</g>
<!-- Node15 -->
<g id="node15" class="node"><title>Node15</title>
<g id="a_node15"><a xlink:href="classSupport.html#a0f6b5ed9b20a213a0607f3b989b81cec" target="_top" xlink:title="Support::checkXYZ">
<polygon fill="white" stroke="black" points="1004,-511.5 1004,-530.5 1106,-530.5 1106,-511.5 1004,-511.5"/>
<text text-anchor="middle" x="1055" y="-518.5" font-family="Helvetica,sans-Serif" font-size="10.00">Support::checkXYZ</text>
</a>
</g>
</g>
<!-- Node7&#45;&gt;Node15 -->
<g id="edge16" class="edge"><title>Node7&#45;&gt;Node15</title>
<path fill="none" stroke="midnightblue" d="M907.608,-440.341C927.034,-459.243 957.177,-485.772 988,-502 995.175,-505.777 1003.19,-508.888 1011.1,-511.421"/>
<polygon fill="midnightblue" stroke="midnightblue" points="910.028,-437.813 900.462,-433.259 905.101,-442.785 910.028,-437.813"/>
</g>
<!-- Node17 -->
<g id="node17" class="node"><title>Node17</title>
<g id="a_node17"><a xlink:href="namespaceanonymous__namespace_02NitfWriterTest_8cpp_03.html#a9850e52970d9cc3d2e55bc35a299a6dd" target="_top" xlink:title="anonymous_namespace\l\{NitfWriterTest::cpp\}\l::compare_contents">
<polygon fill="white" stroke="black" points="994,-451.5 994,-492.5 1116,-492.5 1116,-451.5 994,-451.5"/>
<text text-anchor="start" x="1002" y="-480.5" font-family="Helvetica,sans-Serif" font-size="10.00">anonymous_namespace</text>
<text text-anchor="start" x="1002" y="-469.5" font-family="Helvetica,sans-Serif" font-size="10.00">{NitfWriterTest::cpp}</text>
<text text-anchor="middle" x="1055" y="-458.5" font-family="Helvetica,sans-Serif" font-size="10.00">::compare_contents</text>
</a>
</g>
</g>
<!-- Node7&#45;&gt;Node17 -->
<g id="edge18" class="edge"><title>Node7&#45;&gt;Node17</title>
<path fill="none" stroke="midnightblue" d="M942.348,-436.112C958.925,-441.44 977.119,-447.288 993.921,-452.689"/>
<polygon fill="midnightblue" stroke="midnightblue" points="943.389,-432.77 932.797,-433.042 941.247,-439.434 943.389,-432.77"/>
</g>
<!-- Node19 -->
<g id="node19" class="node"><title>Node19</title>
<g id="a_node19"><a xlink:href="classpdal_1_1TIndexReader.html#a441e8f1f37ac3ac418c6d1a7144bf8cd" target="_top" xlink:title="pdal::TIndexReader\l::initialize">
<polygon fill="white" stroke="black" points="1004,-403 1004,-433 1106,-433 1106,-403 1004,-403"/>
<text text-anchor="start" x="1012" y="-421" font-family="Helvetica,sans-Serif" font-size="10.00">pdal::TIndexReader</text>
<text text-anchor="middle" x="1055" y="-410" font-family="Helvetica,sans-Serif" font-size="10.00">::initialize</text>
</a>
</g>
</g>
<!-- Node7&#45;&gt;Node19 -->
<g id="edge20" class="edge"><title>Node7&#45;&gt;Node19</title>
<path fill="none" stroke="midnightblue" d="M944.756,-418C964.005,-418 985.204,-418 1003.77,-418"/>
<polygon fill="midnightblue" stroke="midnightblue" points="944.593,-414.5 934.593,-418 944.593,-421.5 944.593,-414.5"/>
</g>
<!-- Node20 -->
<g id="node20" class="node"><title>Node20</title>
<g id="a_node20"><a xlink:href="tutorial_8cpp.html#a0ddf1224851353fc92bfbff6f499fa97" target="_top" xlink:title="main">
<polygon fill="white" stroke="black" points="1036,-364.5 1036,-383.5 1074,-383.5 1074,-364.5 1036,-364.5"/>
<text text-anchor="middle" x="1055" y="-371.5" font-family="Helvetica,sans-Serif" font-size="10.00">main</text>
</a>
</g>
</g>
<!-- Node7&#45;&gt;Node20 -->
<g id="edge21" class="edge"><title>Node7&#45;&gt;Node20</title>
<path fill="none" stroke="midnightblue" d="M944.357,-402.716C976.468,-394.306 1014.11,-384.448 1035.89,-378.743"/>
<polygon fill="midnightblue" stroke="midnightblue" points="943.38,-399.354 934.593,-405.273 945.153,-406.126 943.38,-399.354"/>
</g>
<!-- Node21 -->
<g id="node21" class="node"><title>Node21</title>
<g id="a_node21"><a xlink:href="namespaceanonymous__namespace_02PgpointcloudWriterTest_8cpp_03.html#a3209b8eba8b356583e962c597df644fd" target="_top" xlink:title="anonymous_namespace\l\{PgpointcloudWriterTest\l::cpp\}::optionsWrite">
<polygon fill="white" stroke="red" points="994,-304.5 994,-345.5 1116,-345.5 1116,-304.5 994,-304.5"/>
<text text-anchor="start" x="1002" y="-333.5" font-family="Helvetica,sans-Serif" font-size="10.00">anonymous_namespace</text>
<text text-anchor="start" x="1002" y="-322.5" font-family="Helvetica,sans-Serif" font-size="10.00">{PgpointcloudWriterTest</text>
<text text-anchor="middle" x="1055" y="-311.5" font-family="Helvetica,sans-Serif" font-size="10.00">::cpp}::optionsWrite</text>
</a>
</g>
</g>
<!-- Node7&#45;&gt;Node21 -->
<g id="edge22" class="edge"><title>Node7&#45;&gt;Node21</title>
<path fill="none" stroke="midnightblue" d="M917.241,-397.274C937.125,-384.443 963.633,-367.996 988,-355 993.997,-351.802 1000.4,-348.618 1006.77,-345.584"/>
<polygon fill="midnightblue" stroke="midnightblue" points="915.08,-394.504 908.603,-402.889 918.895,-400.373 915.08,-394.504"/>
</g>
<!-- Node22 -->
<g id="node22" class="node"><title>Node22</title>
<g id="a_node22"><a xlink:href="classApp.html#adf89e292877822f233d3b95598d2b1cb" target="_top" xlink:title="App::outputOptions">
<polygon fill="white" stroke="black" points="1004.5,-266.5 1004.5,-285.5 1105.5,-285.5 1105.5,-266.5 1004.5,-266.5"/>
<text text-anchor="middle" x="1055" y="-273.5" font-family="Helvetica,sans-Serif" font-size="10.00">App::outputOptions</text>
</a>
</g>
</g>
<!-- Node7&#45;&gt;Node22 -->
<g id="edge23" class="edge"><title>Node7&#45;&gt;Node22</title>
<path fill="none" stroke="midnightblue" d="M899.77,-393.886C916.918,-366.001 948.79,-320.654 988,-295 993.887,-291.148 1000.57,-288.063 1007.36,-285.595"/>
<polygon fill="midnightblue" stroke="midnightblue" points="896.673,-392.244 894.529,-402.619 902.676,-395.845 896.673,-392.244"/>
</g>
<!-- Node23 -->
<g id="node23" class="node"><title>Node23</title>
<g id="a_node23"><a xlink:href="OCITest_8cpp.html#ab1703367762abc1490e00dcd5ccb29bc" target="_top" xlink:title="readData">
<polygon fill="white" stroke="red" points="1027,-228.5 1027,-247.5 1083,-247.5 1083,-228.5 1027,-228.5"/>
<text text-anchor="middle" x="1055" y="-235.5" font-family="Helvetica,sans-Serif" font-size="10.00">readData</text>
</a>
</g>
</g>
<!-- Node7&#45;&gt;Node23 -->
<g id="edge24" class="edge"><title>Node7&#45;&gt;Node23</title>
<path fill="none" stroke="midnightblue" d="M895.197,-392.886C909.517,-357.3 940.526,-292.582 988,-257 999.259,-248.562 1014.16,-243.865 1026.96,-241.255"/>
<polygon fill="midnightblue" stroke="midnightblue" points="891.814,-391.928 891.445,-402.516 898.336,-394.47 891.814,-391.928"/>
</g>
<!-- Node24 -->
<g id="node24" class="node"><title>Node24</title>
<g id="a_node24"><a xlink:href="HexbinFilterTest_8cpp.html#a3236b5bbf267f164a43a7e7d8ee9c0cc" target="_top" xlink:title="TEST">
<polygon fill="white" stroke="black" points="1034,-190.5 1034,-209.5 1076,-209.5 1076,-190.5 1034,-190.5"/>
<text text-anchor="middle" x="1055" y="-197.5" font-family="Helvetica,sans-Serif" font-size="10.00">TEST</text>
</a>
</g>
</g>
<!-- Node7&#45;&gt;Node24 -->
<g id="edge25" class="edge"><title>Node7&#45;&gt;Node24</title>
<path fill="none" stroke="midnightblue" d="M891.828,-393.198C903.036,-351.022 931.632,-265.402 988,-219 1000.98,-208.315 1019.68,-203.636 1033.87,-201.589"/>
<polygon fill="midnightblue" stroke="midnightblue" points="888.425,-392.379 889.347,-402.934 895.208,-394.108 888.425,-392.379"/>
</g>
<!-- Node25 -->
<g id="node25" class="node"><title>Node25</title>
<g id="a_node25"><a xlink:href="namespacepdal.html#ae3acd9f23093dc7b4653b012b1d4baa1" target="_top" xlink:title="pdal::TEST">
<polygon fill="white" stroke="black" points="1022,-152.5 1022,-171.5 1088,-171.5 1088,-152.5 1022,-152.5"/>
<text text-anchor="middle" x="1055" y="-159.5" font-family="Helvetica,sans-Serif" font-size="10.00">pdal::TEST</text>
</a>
</g>
</g>
<!-- Node7&#45;&gt;Node25 -->
<g id="edge26" class="edge"><title>Node7&#45;&gt;Node25</title>
<path fill="none" stroke="midnightblue" d="M889.598,-393.02C897.884,-344.758 922.855,-238.407 988,-181 997.304,-172.801 1009.94,-168.128 1021.67,-165.47"/>
<polygon fill="midnightblue" stroke="midnightblue" points="886.138,-392.497 887.994,-402.927 893.048,-393.615 886.138,-392.497"/>
</g>
<!-- Node26 -->
<g id="node26" class="node"><title>Node26</title>
<g id="a_node26"><a xlink:href="namespacepdal.html#a48329950a9a51fa26d2dce521c7ba45f" target="_top" xlink:title="pdal::TEST_F">
<polygon fill="white" stroke="black" points="1016.5,-114.5 1016.5,-133.5 1093.5,-133.5 1093.5,-114.5 1016.5,-114.5"/>
<text text-anchor="middle" x="1055" y="-121.5" font-family="Helvetica,sans-Serif" font-size="10.00">pdal::TEST_F</text>
</a>
</g>
</g>
<!-- Node7&#45;&gt;Node26 -->
<g id="edge27" class="edge"><title>Node7&#45;&gt;Node26</title>
<path fill="none" stroke="midnightblue" d="M887.925,-392.883C893.422,-339.011 913.962,-211.691 988,-143 995.779,-135.782 1006.13,-131.287 1016.32,-128.493"/>
<polygon fill="midnightblue" stroke="midnightblue" points="884.432,-392.647 886.99,-402.928 891.402,-393.295 884.432,-392.647"/>
</g>
<!-- Node27 -->
<g id="node27" class="node"><title>Node27</title>
<g id="a_node27"><a xlink:href="PgpointcloudWriterTest_8cpp.html#ae3e4eceb745c0b398d1cc87850fe1d2a" target="_top" xlink:title="TEST_F">
<polygon fill="white" stroke="black" points="1028.5,-76.5 1028.5,-95.5 1081.5,-95.5 1081.5,-76.5 1028.5,-76.5"/>
<text text-anchor="middle" x="1055" y="-83.5" font-family="Helvetica,sans-Serif" font-size="10.00">TEST_F</text>
</a>
</g>
</g>
<!-- Node7&#45;&gt;Node27 -->
<g id="edge28" class="edge"><title>Node7&#45;&gt;Node27</title>
<path fill="none" stroke="midnightblue" d="M886.637,-392.372C889.536,-333 905.161,-185.011 988,-105 998.721,-94.6454 1014.71,-89.8728 1028.26,-87.6997"/>
<polygon fill="midnightblue" stroke="midnightblue" points="883.126,-392.572 886.221,-402.705 890.121,-392.854 883.126,-392.572"/>
</g>
<!-- Node28 -->
<g id="node28" class="node"><title>Node28</title>
<g id="a_node28"><a xlink:href="PCLBlockFilterTest_8cpp.html#a506f5fda840d2b9c9ca9c0bd6433d27a" target="_top" xlink:title="test_filter">
<polygon fill="white" stroke="red" points="1026.5,-38.5 1026.5,-57.5 1083.5,-57.5 1083.5,-38.5 1026.5,-38.5"/>
<text text-anchor="middle" x="1055" y="-45.5" font-family="Helvetica,sans-Serif" font-size="10.00">test_filter</text>
</a>
</g>
</g>
<!-- Node7&#45;&gt;Node28 -->
<g id="edge29" class="edge"><title>Node7&#45;&gt;Node28</title>
<path fill="none" stroke="midnightblue" d="M885.567,-392.424C885.924,-328.202 896.028,-158.741 988,-67 998.13,-56.8951 1013.27,-52.0888 1026.49,-49.8339"/>
<polygon fill="midnightblue" stroke="midnightblue" points="882.068,-392.823 885.592,-402.814 889.068,-392.806 882.068,-392.823"/>
</g>
<!-- Node29 -->
<g id="node29" class="node"><title>Node29</title>
<g id="a_node29"><a xlink:href="namespacepdal.html#a828f4c33f28b39f623b641bbb79d5602" target="_top" xlink:title="pdal::TEST_P">
<polygon fill="white" stroke="black" points="1016,-0.5 1016,-19.5 1094,-19.5 1094,-0.5 1016,-0.5"/>
<text text-anchor="middle" x="1055" y="-7.5" font-family="Helvetica,sans-Serif" font-size="10.00">pdal::TEST_P</text>
</a>
</g>
</g>
<!-- Node7&#45;&gt;Node29 -->
<g id="edge30" class="edge"><title>Node7&#45;&gt;Node29</title>
<path fill="none" stroke="midnightblue" d="M889.411,-392.246C900.253,-314.129 936.28,-81.9689 988,-29 995.414,-21.4071 1005.65,-16.7973 1015.85,-14.014"/>
<polygon fill="midnightblue" stroke="midnightblue" points="885.88,-392.233 887.995,-402.614 892.816,-393.18 885.88,-392.233"/>
</g>
<!-- Node30 -->
<g id="node30" class="node"><title>Node30</title>
<g id="a_node30"><a xlink:href="PythonFilterTest_8cpp.html#a3cdcc7f98bd91950226a7ae9bc056a7b" target="_top" xlink:title="TEST_P">
<polygon fill="white" stroke="black" points="1028,-811.5 1028,-830.5 1082,-830.5 1082,-811.5 1028,-811.5"/>
<text text-anchor="middle" x="1055" y="-818.5" font-family="Helvetica,sans-Serif" font-size="10.00">TEST_P</text>
</a>
</g>
</g>
<!-- Node7&#45;&gt;Node30 -->
<g id="edge31" class="edge"><title>Node7&#45;&gt;Node30</title>
<path fill="none" stroke="midnightblue" d="M889.458,-443.426C900.437,-520.549 936.818,-749.749 988,-802 998.346,-812.562 1014.15,-817.35 1027.71,-819.479"/>
<polygon fill="midnightblue" stroke="midnightblue" points="892.878,-442.607 888.024,-433.19 885.946,-443.579 892.878,-442.607"/>
</g>
<!-- Node31 -->
<g id="node31" class="node"><title>Node31</title>
<g id="a_node31"><a xlink:href="OverlayFilterTest_8cpp.html#a81ea698dfcbc49b4d563206ceb68d003" target="_top" xlink:title="testOverlay">
<polygon fill="white" stroke="red" points="1021.5,-773.5 1021.5,-792.5 1088.5,-792.5 1088.5,-773.5 1021.5,-773.5"/>
<text text-anchor="middle" x="1055" y="-780.5" font-family="Helvetica,sans-Serif" font-size="10.00">testOverlay</text>
</a>
</g>
</g>
<!-- Node7&#45;&gt;Node31 -->
<g id="edge32" class="edge"><title>Node7&#45;&gt;Node31</title>
<path fill="none" stroke="midnightblue" d="M885.696,-443.66C886.387,-507.318 897.27,-673.847 988,-764 996.881,-772.825 1009.58,-777.607 1021.47,-780.178"/>
<polygon fill="midnightblue" stroke="midnightblue" points="889.195,-443.335 885.666,-433.345 882.195,-443.355 889.195,-443.335"/>
</g>
<!-- Node32 -->
<g id="node32" class="node"><title>Node32</title>
<g id="a_node32"><a xlink:href="SQLiteTest_8cpp.html#a078fa742eaebb2e9f7c59f04870c810b" target="_top" xlink:title="testReadWrite">
<polygon fill="white" stroke="red" points="1015,-735.5 1015,-754.5 1095,-754.5 1095,-735.5 1015,-735.5"/>
<text text-anchor="middle" x="1055" y="-742.5" font-family="Helvetica,sans-Serif" font-size="10.00">testReadWrite</text>
</a>
</g>
</g>
<!-- Node7&#45;&gt;Node32 -->
<g id="edge33" class="edge"><title>Node7&#45;&gt;Node32</title>
<path fill="none" stroke="midnightblue" d="M886.774,-443.229C889.964,-501.672 906.168,-647.338 988,-726 995.307,-733.024 1005.04,-737.478 1014.78,-740.295"/>
<polygon fill="midnightblue" stroke="midnightblue" points="890.262,-442.885 886.305,-433.057 883.269,-443.207 890.262,-442.885"/>
</g>
<!-- Node33 -->
<g id="node33" class="node"><title>Node33</title>
<g id="a_node33"><a xlink:href="OCITest_8cpp.html#a344c9abffdaa06c7636b686a0ab4afcf" target="_top" xlink:title="writeData">
<polygon fill="white" stroke="red" points="1025.5,-697.5 1025.5,-716.5 1084.5,-716.5 1084.5,-697.5 1025.5,-697.5"/>
<text text-anchor="middle" x="1055" y="-704.5" font-family="Helvetica,sans-Serif" font-size="10.00">writeData</text>
</a>
</g>
</g>
<!-- Node7&#45;&gt;Node33 -->
<g id="edge34" class="edge"><title>Node7&#45;&gt;Node33</title>
<path fill="none" stroke="midnightblue" d="M888.256,-443.209C894.354,-496.177 915.928,-619.682 988,-687 998.15,-696.48 1012.65,-701.475 1025.48,-704.104"/>
<polygon fill="midnightblue" stroke="midnightblue" points="891.711,-442.598 887.177,-433.022 884.75,-443.335 891.711,-442.598"/>
</g>
<!-- Node9 -->
<g id="node9" class="node"><title>Node9</title>
<g id="a_node9"><a xlink:href="classpdal_1_1PipelineManager.html#aeb5065b985604b7e92096470643c391a" target="_top" xlink:title="pdal::PipelineManager\l::makeFilter">
<polygon fill="white" stroke="black" points="1158,-687 1158,-717 1271,-717 1271,-687 1158,-687"/>
<text text-anchor="start" x="1166" y="-705" font-family="Helvetica,sans-Serif" font-size="10.00">pdal::PipelineManager</text>
<text text-anchor="middle" x="1214.5" y="-694" font-family="Helvetica,sans-Serif" font-size="10.00">::makeFilter</text>
</a>
</g>
</g>
<!-- Node8&#45;&gt;Node9 -->
<g id="edge8" class="edge"><title>Node8&#45;&gt;Node9</title>
<path fill="none" stroke="midnightblue" d="M1121.56,-679.234C1133.66,-682.229 1146.18,-685.33 1157.94,-688.243"/>
<polygon fill="midnightblue" stroke="midnightblue" points="1122.08,-675.756 1111.53,-676.75 1120.39,-682.551 1122.08,-675.756"/>
</g>
<!-- Node10 -->
<g id="node10" class="node"><title>Node10</title>
<g id="a_node10"><a xlink:href="AdditionalMergeTest_8cpp.html#ac4c8e2ca590e0c0e62bbfdd934c0cdc8" target="_top" xlink:title="TEST">
<polygon fill="white" stroke="black" points="1193.5,-648.5 1193.5,-667.5 1235.5,-667.5 1235.5,-648.5 1193.5,-648.5"/>
<text text-anchor="middle" x="1214.5" y="-655.5" font-family="Helvetica,sans-Serif" font-size="10.00">TEST</text>
</a>
</g>
</g>
<!-- Node8&#45;&gt;Node10 -->
<g id="edge9" class="edge"><title>Node8&#45;&gt;Node10</title>
<path fill="none" stroke="midnightblue" d="M1121.65,-660.916C1147.38,-660.099 1175.03,-659.221 1193.19,-658.645"/>
<polygon fill="midnightblue" stroke="midnightblue" points="1121.41,-657.422 1111.53,-661.237 1121.63,-664.418 1121.41,-657.422"/>
</g>
<!-- Node11&#45;&gt;Node10 -->
<g id="edge12" class="edge"><title>Node11&#45;&gt;Node10</title>
<path fill="none" stroke="midnightblue" d="M1119.74,-631.807C1146.14,-639.183 1174.88,-647.212 1193.49,-652.41"/>
<polygon fill="midnightblue" stroke="midnightblue" points="1120.34,-628.339 1109.76,-629.019 1118.45,-635.081 1120.34,-628.339"/>
</g>
<!-- Node12 -->
<g id="node12" class="node"><title>Node12</title>
<g id="a_node12"><a xlink:href="classpdal_1_1PipelineManager.html#a9b5b93498ef9ce477c9be6125816b97f" target="_top" xlink:title="pdal::PipelineManager\l::makeReader">
<polygon fill="white" stroke="black" points="1158,-599 1158,-629 1271,-629 1271,-599 1158,-599"/>
<text text-anchor="start" x="1166" y="-617" font-family="Helvetica,sans-Serif" font-size="10.00">pdal::PipelineManager</text>
<text text-anchor="middle" x="1214.5" y="-606" font-family="Helvetica,sans-Serif" font-size="10.00">::makeReader</text>
</a>
</g>
</g>
<!-- Node11&#45;&gt;Node12 -->
<g id="edge11" class="edge"><title>Node11&#45;&gt;Node12</title>
<path fill="none" stroke="midnightblue" d="M1121.56,-614C1133.66,-614 1146.18,-614 1157.94,-614"/>
<polygon fill="midnightblue" stroke="midnightblue" points="1121.53,-610.5 1111.53,-614 1121.53,-617.5 1121.53,-610.5"/>
</g>
<!-- Node13&#45;&gt;Node10 -->
<g id="edge15" class="edge"><title>Node13&#45;&gt;Node10</title>
<path fill="none" stroke="midnightblue" d="M1116.17,-585.033C1118.18,-586.283 1120.14,-587.604 1122,-589 1143.63,-605.203 1136.35,-621.829 1158,-638 1168.42,-645.784 1182.16,-650.767 1193.36,-653.812"/>
<polygon fill="midnightblue" stroke="midnightblue" points="1117.42,-581.732 1106.97,-580 1114.06,-587.872 1117.42,-581.732"/>
</g>
<!-- Node14 -->
<g id="node14" class="node"><title>Node14</title>
<g id="a_node14"><a xlink:href="classpdal_1_1PipelineManager.html#a799449dfca11d1961ea0ecd8cdb886a5" target="_top" xlink:title="pdal::PipelineManager\l::makeWriter">
<polygon fill="white" stroke="black" points="1158,-550 1158,-580 1271,-580 1271,-550 1158,-550"/>
<text text-anchor="start" x="1166" y="-568" font-family="Helvetica,sans-Serif" font-size="10.00">pdal::PipelineManager</text>
<text text-anchor="middle" x="1214.5" y="-557" font-family="Helvetica,sans-Serif" font-size="10.00">::makeWriter</text>
</a>
</g>
</g>
<!-- Node13&#45;&gt;Node14 -->
<g id="edge14" class="edge"><title>Node13&#45;&gt;Node14</title>
<path fill="none" stroke="midnightblue" d="M1121.56,-565C1133.66,-565 1146.18,-565 1157.94,-565"/>
<polygon fill="midnightblue" stroke="midnightblue" points="1121.53,-561.5 1111.53,-565 1121.53,-568.5 1121.53,-561.5"/>
</g>
<!-- Node16 -->
<g id="node16" class="node"><title>Node16</title>
<g id="a_node16"><a xlink:href="SpatialReferenceTest_8cpp.html#acbe8bbc3b3d602e92c360d196a0431d0" target="_top" xlink:title="TEST">
<polygon fill="white" stroke="black" points="1193.5,-511.5 1193.5,-530.5 1235.5,-530.5 1235.5,-511.5 1193.5,-511.5"/>
<text text-anchor="middle" x="1214.5" y="-518.5" font-family="Helvetica,sans-Serif" font-size="10.00">TEST</text>
</a>
</g>
</g>
<!-- Node15&#45;&gt;Node16 -->
<g id="edge17" class="edge"><title>Node15&#45;&gt;Node16</title>
<path fill="none" stroke="midnightblue" d="M1116.51,-521C1143.71,-521 1173.97,-521 1193.35,-521"/>
<polygon fill="midnightblue" stroke="midnightblue" points="1116.27,-517.5 1106.27,-521 1116.27,-524.5 1116.27,-517.5"/>
</g>
<!-- Node18 -->
<g id="node18" class="node"><title>Node18</title>
<g id="a_node18"><a xlink:href="NitfWriterTest_8cpp.html#ae0d1cacfb011586d52d1de00e1aca19f" target="_top" xlink:title="TEST">
<polygon fill="white" stroke="black" points="1193.5,-462.5 1193.5,-481.5 1235.5,-481.5 1235.5,-462.5 1193.5,-462.5"/>
<text text-anchor="middle" x="1214.5" y="-469.5" font-family="Helvetica,sans-Serif" font-size="10.00">TEST</text>
</a>
</g>
</g>
<!-- Node17&#45;&gt;Node18 -->
<g id="edge19" class="edge"><title>Node17&#45;&gt;Node18</title>
<path fill="none" stroke="midnightblue" d="M1126.45,-472C1150.87,-472 1176.36,-472 1193.4,-472"/>
<polygon fill="midnightblue" stroke="midnightblue" points="1126.44,-468.5 1116.44,-472 1126.44,-475.5 1126.44,-468.5"/>
</g>
<!-- Node35 -->
<g id="node35" class="node"><title>Node35</title>
<g id="a_node35"><a xlink:href="pdal_8cpp.html#a0ddf1224851353fc92bfbff6f499fa97" target="_top" xlink:title="main">
<polygon fill="white" stroke="black" points="1036,-849.5 1036,-868.5 1074,-868.5 1074,-849.5 1036,-849.5"/>
<text text-anchor="middle" x="1055" y="-856.5" font-family="Helvetica,sans-Serif" font-size="10.00">main</text>
</a>
</g>
</g>
<!-- Node34&#45;&gt;Node35 -->
<g id="edge36" class="edge"><title>Node34&#45;&gt;Node35</title>
<path fill="none" stroke="midnightblue" d="M932.261,-856.101C966.387,-856.914 1011.01,-857.976 1035.64,-858.563"/>
<polygon fill="midnightblue" stroke="midnightblue" points="932.121,-852.597 922.04,-855.858 931.954,-859.595 932.121,-852.597"/>
</g>
<!-- Node38 -->
<g id="node38" class="node"><title>Node38</title>
<g id="a_node38"><a xlink:href="classpdal_1_1PluginManager.html#ab6a21660c6115bf3ce1e3372f757bcb4" target="_top" xlink:title="pdal::PluginManager\l::loadPlugin">
<polygon fill="white" stroke="black" points="499.5,-892 499.5,-922 604.5,-922 604.5,-892 499.5,-892"/>
<text text-anchor="start" x="507.5" y="-910" font-family="Helvetica,sans-Serif" font-size="10.00">pdal::PluginManager</text>
<text text-anchor="middle" x="552" y="-899" font-family="Helvetica,sans-Serif" font-size="10.00">::loadPlugin</text>
</a>
</g>
</g>
<!-- Node37&#45;&gt;Node38 -->
<g id="edge39" class="edge"><title>Node37&#45;&gt;Node38</title>
<path fill="none" stroke="midnightblue" d="M456.385,-907C470.626,-907 485.624,-907 499.377,-907"/>
<polygon fill="midnightblue" stroke="midnightblue" points="456.178,-903.5 446.178,-907 456.178,-910.5 456.178,-903.5"/>
</g>
<!-- Node39 -->
<g id="node39" class="node"><title>Node39</title>
<g id="a_node39"><a xlink:href="classpdal_1_1PipelineReaderJSON.html#a51024630985308ccf8843f250b685545" target="_top" xlink:title="pdal::PipelineReaderJSON\l::extractOptions">
<polygon fill="white" stroke="black" points="648,-892 648,-922 782,-922 782,-892 648,-892"/>
<text text-anchor="start" x="656" y="-910" font-family="Helvetica,sans-Serif" font-size="10.00">pdal::PipelineReaderJSON</text>
<text text-anchor="middle" x="715" y="-899" font-family="Helvetica,sans-Serif" font-size="10.00">::extractOptions</text>
</a>
</g>
</g>
<!-- Node38&#45;&gt;Node39 -->
<g id="edge40" class="edge"><title>Node38&#45;&gt;Node39</title>
<path fill="none" stroke="midnightblue" d="M614.976,-907C625.739,-907 636.969,-907 647.838,-907"/>
<polygon fill="midnightblue" stroke="midnightblue" points="614.828,-903.5 604.828,-907 614.828,-910.5 614.828,-903.5"/>
</g>
<!-- Node40 -->
<g id="node40" class="node"><title>Node40</title>
<g id="a_node40"><a xlink:href="classpdal_1_1PipelineReaderJSON.html#a648ae28bf1b1fc54a9aa92b5d880c434" target="_top" xlink:title="pdal::PipelineReaderJSON\l::parsePipeline">
<polygon fill="white" stroke="black" points="818,-892 818,-922 952,-922 952,-892 818,-892"/>
<text text-anchor="start" x="826" y="-910" font-family="Helvetica,sans-Serif" font-size="10.00">pdal::PipelineReaderJSON</text>
<text text-anchor="middle" x="885" y="-899" font-family="Helvetica,sans-Serif" font-size="10.00">::parsePipeline</text>
</a>
</g>
</g>
<!-- Node39&#45;&gt;Node40 -->
<g id="edge41" class="edge"><title>Node39&#45;&gt;Node40</title>
<path fill="none" stroke="midnightblue" d="M792.595,-907C801.013,-907 809.532,-907 817.809,-907"/>
<polygon fill="midnightblue" stroke="midnightblue" points="792.398,-903.5 782.398,-907 792.398,-910.5 792.398,-903.5"/>
</g>
<!-- Node41 -->
<g id="node41" class="node"><title>Node41</title>
<g id="a_node41"><a xlink:href="classpdal_1_1PipelineReaderJSON.html#a712d3ed4bde00fdf2a043be6f7c0374f" target="_top" xlink:title="pdal::PipelineReaderJSON\l::readPipeline">
<polygon fill="white" stroke="black" points="988,-892 988,-922 1122,-922 1122,-892 988,-892"/>
<text text-anchor="start" x="996" y="-910" font-family="Helvetica,sans-Serif" font-size="10.00">pdal::PipelineReaderJSON</text>
<text text-anchor="middle" x="1055" y="-899" font-family="Helvetica,sans-Serif" font-size="10.00">::readPipeline</text>
</a>
</g>
</g>
<!-- Node40&#45;&gt;Node41 -->
<g id="edge42" class="edge"><title>Node40&#45;&gt;Node41</title>
<path fill="none" stroke="midnightblue" d="M962.595,-907C971.013,-907 979.532,-907 987.809,-907"/>
<polygon fill="midnightblue" stroke="midnightblue" points="962.398,-903.5 952.398,-907 962.398,-910.5 962.398,-903.5"/>
</g>
<!-- Node43&#45;&gt;Node4 -->
<g id="edge45" class="edge"><title>Node43&#45;&gt;Node4</title>
<path fill="none" stroke="midnightblue" d="M274.944,-772.543C295.997,-779.072 321.891,-787.102 344.013,-793.963"/>
<polygon fill="midnightblue" stroke="midnightblue" points="275.927,-769.183 265.339,-769.564 273.854,-775.869 275.927,-769.183"/>
</g>
<!-- Node44 -->
<g id="node44" class="node"><title>Node44</title>
<g id="a_node44"><a xlink:href="FileUtilsTest_8cpp.html#a63febe5b4ec89f8256759d3e3f22652d" target="_top" xlink:title="TEST">
<polygon fill="white" stroke="black" points="372.5,-706.5 372.5,-725.5 414.5,-725.5 414.5,-706.5 372.5,-706.5"/>
<text text-anchor="middle" x="393.5" y="-713.5" font-family="Helvetica,sans-Serif" font-size="10.00">TEST</text>
</a>
</g>
</g>
<!-- Node43&#45;&gt;Node44 -->
<g id="edge46" class="edge"><title>Node43&#45;&gt;Node44</title>
<path fill="none" stroke="midnightblue" d="M278.811,-747.66C309.469,-739.123 348.822,-728.163 372.273,-721.633"/>
<polygon fill="midnightblue" stroke="midnightblue" points="277.478,-744.398 268.784,-750.453 279.356,-751.142 277.478,-744.398"/>
</g>
<!-- Node45 -->
<g id="node45" class="node"><title>Node45</title>
<g id="a_node45"><a xlink:href="classpdal_1_1nitfwrap_1_1NitfWrap.html#a427c1cc359051aed8f90ec5ba317de89" target="_top" xlink:title="pdal::nitfwrap::NitfWrap\l::unwrap">
<polygon fill="white" stroke="black" points="333.5,-745 333.5,-775 453.5,-775 453.5,-745 333.5,-745"/>
<text text-anchor="start" x="341.5" y="-763" font-family="Helvetica,sans-Serif" font-size="10.00">pdal::nitfwrap::NitfWrap</text>
<text text-anchor="middle" x="393.5" y="-752" font-family="Helvetica,sans-Serif" font-size="10.00">::unwrap</text>
</a>
</g>
</g>
<!-- Node43&#45;&gt;Node45 -->
<g id="edge47" class="edge"><title>Node43&#45;&gt;Node45</title>
<path fill="none" stroke="midnightblue" d="M295.928,-760C308.186,-760 321.04,-760 333.224,-760"/>
<polygon fill="midnightblue" stroke="midnightblue" points="295.798,-756.5 285.798,-760 295.798,-763.5 295.798,-756.5"/>
</g>
<!-- Node47 -->
<g id="node47" class="node"><title>Node47</title>
<g id="a_node47"><a xlink:href="classpdal_1_1nitfwrap_1_1NitfWrap.html#abf899b397aff312f6e153a6230a047a4" target="_top" xlink:title="pdal::nitfwrap::NitfWrap\l::parseArgs">
<polygon fill="white" stroke="black" points="333.5,-657 333.5,-687 453.5,-687 453.5,-657 333.5,-657"/>
<text text-anchor="start" x="341.5" y="-675" font-family="Helvetica,sans-Serif" font-size="10.00">pdal::nitfwrap::NitfWrap</text>
<text text-anchor="middle" x="393.5" y="-664" font-family="Helvetica,sans-Serif" font-size="10.00">::parseArgs</text>
</a>
</g>
</g>
<!-- Node43&#45;&gt;Node47 -->
<g id="edge49" class="edge"><title>Node43&#45;&gt;Node47</title>
<path fill="none" stroke="midnightblue" d="M285.707,-746.345C288.954,-744.747 292.085,-742.972 295,-741 315.929,-726.844 310.667,-712 331,-697 336.101,-693.237 341.849,-689.937 347.731,-687.074"/>
<polygon fill="midnightblue" stroke="midnightblue" points="284.126,-743.215 276.332,-750.392 286.9,-749.642 284.126,-743.215"/>
</g>
<!-- Node46 -->
<g id="node46" class="node"><title>Node46</title>
<g id="a_node46"><a xlink:href="classpdal_1_1nitfwrap_1_1NitfWrap.html#a507defc6c08af645c161ee875c58374a" target="_top" xlink:title="pdal::nitfwrap::NitfWrap\l::NitfWrap">
<polygon fill="white" stroke="black" points="492,-657 492,-687 612,-687 612,-657 492,-657"/>
<text text-anchor="start" x="500" y="-675" font-family="Helvetica,sans-Serif" font-size="10.00">pdal::nitfwrap::NitfWrap</text>
<text text-anchor="middle" x="552" y="-664" font-family="Helvetica,sans-Serif" font-size="10.00">::NitfWrap</text>
</a>
</g>
</g>
<!-- Node45&#45;&gt;Node46 -->
<g id="edge48" class="edge"><title>Node45&#45;&gt;Node46</title>
<path fill="none" stroke="midnightblue" d="M444.197,-740.806C448.237,-738.942 452.216,-736.998 456,-735 482.95,-720.769 511.854,-700.861 530.609,-687.257"/>
<polygon fill="midnightblue" stroke="midnightblue" points="442.456,-737.75 434.729,-744.998 445.289,-744.15 442.456,-737.75"/>
</g>
<!-- Node47&#45;&gt;Node46 -->
<g id="edge50" class="edge"><title>Node47&#45;&gt;Node46</title>
<path fill="none" stroke="midnightblue" d="M463.718,-672C473.069,-672 482.595,-672 491.75,-672"/>
<polygon fill="midnightblue" stroke="midnightblue" points="463.666,-668.5 453.666,-672 463.666,-675.5 463.666,-668.5"/>
</g>
<!-- Node49&#45;&gt;Node46 -->
<g id="edge54" class="edge"><title>Node49&#45;&gt;Node46</title>
<path fill="none" stroke="midnightblue" d="M292.901,-630.27C337.767,-632.674 401.137,-637.501 456,-647 470.452,-649.502 485.915,-653.145 500.079,-656.879"/>
<polygon fill="midnightblue" stroke="midnightblue" points="292.932,-626.767 282.766,-629.751 292.574,-633.758 292.932,-626.767"/>
</g>
<!-- Node50 -->
<g id="node50" class="node"><title>Node50</title>
<g id="a_node50"><a xlink:href="classpdal_1_1NitfWriter.html#a0320785ad5311c55705c6b41a13cfb75" target="_top" xlink:title="pdal::NitfWriter::doneFile">
<polygon fill="white" stroke="black" points="331,-580.5 331,-599.5 456,-599.5 456,-580.5 331,-580.5"/>
<text text-anchor="middle" x="393.5" y="-587.5" font-family="Helvetica,sans-Serif" font-size="10.00">pdal::NitfWriter::doneFile</text>
</a>
</g>
</g>
<!-- Node49&#45;&gt;Node50 -->
<g id="edge53" class="edge"><title>Node49&#45;&gt;Node50</title>
<path fill="none" stroke="midnightblue" d="M292.701,-614.002C312.683,-609.196 334.577,-603.931 352.754,-599.559"/>
<polygon fill="midnightblue" stroke="midnightblue" points="291.668,-610.651 282.764,-616.392 293.305,-617.457 291.668,-610.651"/>
</g>
</g>
</svg>
