<?xml version="1.0" encoding="UTF-8" standalone="no"?>
<!DOCTYPE svg PUBLIC "-//W3C//DTD SVG 1.1//EN"
 "http://www.w3.org/Graphics/SVG/1.1/DTD/svg11.dtd">
<!-- Generated by graphviz version 2.38.0 (20140413.2041)
 -->
<!-- Title: pdal::nitfwrap::anonymous_namespace{NitfWrap::cpp}::outputHelp Pages: 1 -->
<svg width="459pt" height="116pt"
 viewBox="0.00 0.00 459.00 115.50" xmlns="http://www.w3.org/2000/svg" xmlns:xlink="http://www.w3.org/1999/xlink">
<g id="graph0" class="graph" transform="scale(1 1) rotate(0) translate(4 111.5)">
<title>pdal::nitfwrap::anonymous_namespace{NitfWrap::cpp}::outputHelp</title>
<polygon fill="white" stroke="none" points="-4,4 -4,-111.5 455,-111.5 455,4 -4,4"/>
<!-- Node1 -->
<g id="node1" class="node"><title>Node1</title>
<polygon fill="#bfbfbf" stroke="black" points="0,-39 0,-80 139,-80 139,-39 0,-39"/>
<text text-anchor="start" x="8" y="-68" font-family="Helvetica,sans-Serif" font-size="10.00">pdal::nitfwrap::anonymous</text>
<text text-anchor="start" x="8" y="-57" font-family="Helvetica,sans-Serif" font-size="10.00">_namespace{NitfWrap::cpp}</text>
<text text-anchor="middle" x="69.5" y="-46" font-family="Helvetica,sans-Serif" font-size="10.00">::outputHelp</text>
</g>
<!-- Node2 -->
<g id="node2" class="node"><title>Node2</title>
<g id="a_node2"><a xlink:href="classApp.html#acb8cbf3e285b91d0170ffe87df5989c5" target="_top" xlink:title="App::App">
<polygon fill="white" stroke="black" points="206.5,-88 206.5,-107 263.5,-107 263.5,-88 206.5,-88"/>
<text text-anchor="middle" x="235" y="-95" font-family="Helvetica,sans-Serif" font-size="10.00">App::App</text>
</a>
</g>
</g>
<!-- Node1&#45;&gt;Node2 -->
<g id="edge1" class="edge"><title>Node1&#45;&gt;Node2</title>
<path fill="none" stroke="midnightblue" d="M149.37,-77.8307C169.836,-82.5874 190.544,-87.4001 206.353,-91.0743"/>
<polygon fill="midnightblue" stroke="midnightblue" points="149.898,-74.36 139.365,-75.5053 148.313,-81.1783 149.898,-74.36"/>
</g>
<!-- Node3 -->
<g id="node3" class="node"><title>Node3</title>
<g id="a_node3"><a xlink:href="classApp.html#a2817579d633c3d379248cd45d035aba8" target="_top" xlink:title="App::execute">
<polygon fill="white" stroke="black" points="198,-50 198,-69 272,-69 272,-50 198,-50"/>
<text text-anchor="middle" x="235" y="-57" font-family="Helvetica,sans-Serif" font-size="10.00">App::execute</text>
</a>
</g>
</g>
<!-- Node1&#45;&gt;Node3 -->
<g id="edge2" class="edge"><title>Node1&#45;&gt;Node3</title>
<path fill="none" stroke="midnightblue" d="M149.784,-59.5C166.586,-59.5 183.528,-59.5 197.766,-59.5"/>
<polygon fill="midnightblue" stroke="midnightblue" points="149.365,-56.0001 139.365,-59.5 149.365,-63.0001 149.365,-56.0001"/>
</g>
<!-- Node5 -->
<g id="node5" class="node"><title>Node5</title>
<g id="a_node5"><a xlink:href="classpdal_1_1nitfwrap_1_1NitfWrap.html#abf899b397aff312f6e153a6230a047a4" target="_top" xlink:title="pdal::nitfwrap::NitfWrap\l::parseArgs">
<polygon fill="white" stroke="black" points="175,-0.5 175,-30.5 295,-30.5 295,-0.5 175,-0.5"/>
<text text-anchor="start" x="183" y="-18.5" font-family="Helvetica,sans-Serif" font-size="10.00">pdal::nitfwrap::NitfWrap</text>
<text text-anchor="middle" x="235" y="-7.5" font-family="Helvetica,sans-Serif" font-size="10.00">::parseArgs</text>
</a>
</g>
</g>
<!-- Node1&#45;&gt;Node5 -->
<g id="edge4" class="edge"><title>Node1&#45;&gt;Node5</title>
<path fill="none" stroke="midnightblue" d="M149.114,-38.344C158.904,-35.7094 168.753,-33.0587 178.101,-30.5433"/>
<polygon fill="midnightblue" stroke="midnightblue" points="148.112,-34.9891 139.365,-40.9676 149.931,-41.7486 148.112,-34.9891"/>
</g>
<!-- Node4 -->
<g id="node4" class="node"><title>Node4</title>
<g id="a_node4"><a xlink:href="pdal_8cpp.html#a0ddf1224851353fc92bfbff6f499fa97" target="_top" xlink:title="main">
<polygon fill="white" stroke="black" points="372,-50 372,-69 410,-69 410,-50 372,-50"/>
<text text-anchor="middle" x="391" y="-57" font-family="Helvetica,sans-Serif" font-size="10.00">main</text>
</a>
</g>
</g>
<!-- Node3&#45;&gt;Node4 -->
<g id="edge3" class="edge"><title>Node3&#45;&gt;Node4</title>
<path fill="none" stroke="midnightblue" d="M282.393,-59.5C312.461,-59.5 349.965,-59.5 371.824,-59.5"/>
<polygon fill="midnightblue" stroke="midnightblue" points="282.106,-56.0001 272.106,-59.5 282.106,-63.0001 282.106,-56.0001"/>
</g>
<!-- Node6 -->
<g id="node6" class="node"><title>Node6</title>
<g id="a_node6"><a xlink:href="classpdal_1_1nitfwrap_1_1NitfWrap.html#a507defc6c08af645c161ee875c58374a" target="_top" xlink:title="pdal::nitfwrap::NitfWrap\l::NitfWrap">
<polygon fill="white" stroke="black" points="331,-0.5 331,-30.5 451,-30.5 451,-0.5 331,-0.5"/>
<text text-anchor="start" x="339" y="-18.5" font-family="Helvetica,sans-Serif" font-size="10.00">pdal::nitfwrap::NitfWrap</text>
<text text-anchor="middle" x="391" y="-7.5" font-family="Helvetica,sans-Serif" font-size="10.00">::NitfWrap</text>
</a>
</g>
</g>
<!-- Node5&#45;&gt;Node6 -->
<g id="edge5" class="edge"><title>Node5&#45;&gt;Node6</title>
<path fill="none" stroke="midnightblue" d="M305.369,-15.5C313.862,-15.5 322.48,-15.5 330.804,-15.5"/>
<polygon fill="midnightblue" stroke="midnightblue" points="305.1,-12.0001 295.1,-15.5 305.1,-19.0001 305.1,-12.0001"/>
</g>
</g>
</svg>
