<?xml version="1.0" encoding="UTF-8" standalone="no"?>
<!DOCTYPE svg PUBLIC "-//W3C//DTD SVG 1.1//EN"
 "http://www.w3.org/Graphics/SVG/1.1/DTD/svg11.dtd">
<!-- Generated by graphviz version 2.38.0 (20140413.2041)
 -->
<!-- Title: pdal::TEST Pages: 1 -->
<svg width="874pt" height="161pt"
 viewBox="0.00 0.00 874.00 161.00" xmlns="http://www.w3.org/2000/svg" xmlns:xlink="http://www.w3.org/1999/xlink">
<g id="graph0" class="graph" transform="scale(1 1) rotate(0) translate(4 157)">
<title>pdal::TEST</title>
<polygon fill="white" stroke="none" points="-4,4 -4,-157 870,-157 870,4 -4,4"/>
<!-- Node1 -->
<g id="node1" class="node"><title>Node1</title>
<polygon fill="#bfbfbf" stroke="black" points="0,-61.5 0,-80.5 66,-80.5 66,-61.5 0,-61.5"/>
<text text-anchor="middle" x="33" y="-68.5" font-family="Helvetica,sans-Serif" font-size="10.00">pdal::TEST</text>
</g>
<!-- Node2 -->
<g id="node2" class="node"><title>Node2</title>
<g id="a_node2"><a xlink:href="namespacepdal.html#a5533547ac22c443217a5af2a0a32a985" target="_top" xlink:title="pdal::getWKT">
<polygon fill="white" stroke="black" points="118.5,-85.5 118.5,-104.5 195.5,-104.5 195.5,-85.5 118.5,-85.5"/>
<text text-anchor="middle" x="157" y="-92.5" font-family="Helvetica,sans-Serif" font-size="10.00">pdal::getWKT</text>
</a>
</g>
</g>
<!-- Node1&#45;&gt;Node2 -->
<g id="edge1" class="edge"><title>Node1&#45;&gt;Node2</title>
<path fill="none" stroke="midnightblue" d="M66.0541,-77.3057C78.8931,-79.8314 93.9593,-82.7953 108.051,-85.5673"/>
<polygon fill="midnightblue" stroke="midnightblue" points="107.606,-89.0468 118.093,-87.5429 108.957,-82.1785 107.606,-89.0468"/>
</g>
<!-- Node11 -->
<g id="node11" class="node"><title>Node11</title>
<g id="a_node11"><a xlink:href="classpdal_1_1Geometry.html#ac192f41520576a84bfbe19dad4679f06" target="_top" xlink:title="pdal::Geometry::valid">
<polygon fill="white" stroke="black" points="102,-38.5 102,-57.5 212,-57.5 212,-38.5 102,-38.5"/>
<text text-anchor="middle" x="157" y="-45.5" font-family="Helvetica,sans-Serif" font-size="10.00">pdal::Geometry::valid</text>
</a>
</g>
</g>
<!-- Node1&#45;&gt;Node11 -->
<g id="edge11" class="edge"><title>Node1&#45;&gt;Node11</title>
<path fill="none" stroke="midnightblue" d="M66.0541,-64.957C75.0554,-63.26 85.1514,-61.3567 95.2387,-59.455"/>
<polygon fill="midnightblue" stroke="midnightblue" points="96.1039,-62.8536 105.282,-57.5615 94.807,-55.9748 96.1039,-62.8536"/>
</g>
<!-- Node3 -->
<g id="node3" class="node"><title>Node3</title>
<g id="a_node3"><a xlink:href="namespacepdal_1_1FileUtils.html#a04d2d37c72f0f400f5d5b917b2f2ba05" target="_top" xlink:title="pdal::FileUtils::closeFile">
<polygon fill="white" stroke="black" points="258,-133.5 258,-152.5 380,-152.5 380,-133.5 258,-133.5"/>
<text text-anchor="middle" x="319" y="-140.5" font-family="Helvetica,sans-Serif" font-size="10.00">pdal::FileUtils::closeFile</text>
</a>
</g>
</g>
<!-- Node2&#45;&gt;Node3 -->
<g id="edge2" class="edge"><title>Node2&#45;&gt;Node3</title>
<path fill="none" stroke="midnightblue" d="M186.672,-104.616C204.299,-110.433 227.383,-117.884 248,-124 255.64,-126.266 263.78,-128.573 271.706,-130.762"/>
<polygon fill="midnightblue" stroke="midnightblue" points="271.009,-134.2 281.578,-133.46 272.854,-127.447 271.009,-134.2"/>
</g>
<!-- Node4 -->
<g id="node4" class="node"><title>Node4</title>
<g id="a_node4"><a xlink:href="classSupport.html#a9bbdf6f202f4f2e45e7a53007dd0a238" target="_top" xlink:title="Support::datapath">
<polygon fill="white" stroke="black" points="272,-95.5 272,-114.5 366,-114.5 366,-95.5 272,-95.5"/>
<text text-anchor="middle" x="319" y="-102.5" font-family="Helvetica,sans-Serif" font-size="10.00">Support::datapath</text>
</a>
</g>
</g>
<!-- Node2&#45;&gt;Node4 -->
<g id="edge3" class="edge"><title>Node2&#45;&gt;Node4</title>
<path fill="none" stroke="midnightblue" d="M195.513,-97.3446C215.208,-98.5755 239.743,-100.109 261.671,-101.479"/>
<polygon fill="midnightblue" stroke="midnightblue" points="261.664,-104.986 271.863,-102.116 262.101,-97.9994 261.664,-104.986"/>
</g>
<!-- Node6 -->
<g id="node6" class="node"><title>Node6</title>
<g id="a_node6"><a xlink:href="namespacepdal_1_1FileUtils.html#aeeda62ff11a1e6bcc9175f51f7efe522" target="_top" xlink:title="pdal::FileUtils::openFile">
<polygon fill="white" stroke="black" points="259.5,-57.5 259.5,-76.5 378.5,-76.5 378.5,-57.5 259.5,-57.5"/>
<text text-anchor="middle" x="319" y="-64.5" font-family="Helvetica,sans-Serif" font-size="10.00">pdal::FileUtils::openFile</text>
</a>
</g>
</g>
<!-- Node2&#45;&gt;Node6 -->
<g id="edge5" class="edge"><title>Node2&#45;&gt;Node6</title>
<path fill="none" stroke="midnightblue" d="M195.513,-88.4352C212.817,-85.407 233.858,-81.7248 253.584,-78.2728"/>
<polygon fill="midnightblue" stroke="midnightblue" points="254.198,-81.7186 263.445,-76.5472 252.991,-74.8234 254.198,-81.7186"/>
</g>
<!-- Node5 -->
<g id="node5" class="node"><title>Node5</title>
<g id="a_node5"><a xlink:href="namespaceTestConfig.html#a0e622015f0610c2cfcbb3739b972d877" target="_top" xlink:title="TestConfig::dataPath">
<polygon fill="white" stroke="black" points="432.5,-114.5 432.5,-133.5 542.5,-133.5 542.5,-114.5 432.5,-114.5"/>
<text text-anchor="middle" x="487.5" y="-121.5" font-family="Helvetica,sans-Serif" font-size="10.00">TestConfig::dataPath</text>
</a>
</g>
</g>
<!-- Node4&#45;&gt;Node5 -->
<g id="edge4" class="edge"><title>Node4&#45;&gt;Node5</title>
<path fill="none" stroke="midnightblue" d="M366.38,-110.293C383.673,-112.266 403.625,-114.543 422.24,-116.667"/>
<polygon fill="midnightblue" stroke="midnightblue" points="422.086,-120.172 432.419,-117.829 422.88,-113.217 422.086,-120.172"/>
</g>
<!-- Node7 -->
<g id="node7" class="node"><title>Node7</title>
<g id="a_node7"><a xlink:href="namespacepdal_1_1Dimension.html#af3176b0b7e6b4be000317846cf7c2718" target="_top" xlink:title="pdal::Dimension::name">
<polygon fill="white" stroke="black" points="429,-76.5 429,-95.5 546,-95.5 546,-76.5 429,-76.5"/>
<text text-anchor="middle" x="487.5" y="-83.5" font-family="Helvetica,sans-Serif" font-size="10.00">pdal::Dimension::name</text>
</a>
</g>
</g>
<!-- Node6&#45;&gt;Node7 -->
<g id="edge6" class="edge"><title>Node6&#45;&gt;Node7</title>
<path fill="none" stroke="midnightblue" d="M378.702,-73.6987C391.683,-75.1801 405.54,-76.7613 418.845,-78.2796"/>
<polygon fill="midnightblue" stroke="midnightblue" points="418.556,-81.7693 428.889,-79.4257 419.35,-74.8144 418.556,-81.7693"/>
</g>
<!-- Node8 -->
<g id="node8" class="node"><title>Node8</title>
<g id="a_node8"><a xlink:href="namespacepdal_1_1anonymous__namespace_02FileUtils_8cpp_03.html#a813a530ad72d50f747643f1bb996cacf" target="_top" xlink:title="pdal::anonymous_namespace\l\{FileUtils::cpp\}::isStdin">
<polygon fill="white" stroke="black" points="585,-14 585,-44 731,-44 731,-14 585,-14"/>
<text text-anchor="start" x="593" y="-32" font-family="Helvetica,sans-Serif" font-size="10.00">pdal::anonymous_namespace</text>
<text text-anchor="middle" x="658" y="-21" font-family="Helvetica,sans-Serif" font-size="10.00">{FileUtils::cpp}::isStdin</text>
</a>
</g>
</g>
<!-- Node6&#45;&gt;Node8 -->
<g id="edge7" class="edge"><title>Node6&#45;&gt;Node8</title>
<path fill="none" stroke="midnightblue" d="M378.701,-60.3809C433.006,-54.2575 514.261,-45.0952 574.972,-38.2495"/>
<polygon fill="midnightblue" stroke="midnightblue" points="575.367,-41.7272 584.912,-37.1286 574.583,-34.7713 575.367,-41.7272"/>
</g>
<!-- Node10 -->
<g id="node10" class="node"><title>Node10</title>
<g id="a_node10"><a xlink:href="namespacepdal_1_1FileUtils.html#ae2b8f1ddc38b0033b685a0bde6106ba1" target="_top" xlink:title="pdal::FileUtils::fileExists">
<polygon fill="white" stroke="black" points="426,-0.5 426,-19.5 549,-19.5 549,-0.5 426,-0.5"/>
<text text-anchor="middle" x="487.5" y="-7.5" font-family="Helvetica,sans-Serif" font-size="10.00">pdal::FileUtils::fileExists</text>
</a>
</g>
</g>
<!-- Node6&#45;&gt;Node10 -->
<g id="edge9" class="edge"><title>Node6&#45;&gt;Node10</title>
<path fill="none" stroke="midnightblue" d="M358.009,-57.5C368.448,-54.6698 379.721,-51.4075 390,-48 393.235,-46.9278 426.398,-33.8318 452.957,-23.3096"/>
<polygon fill="midnightblue" stroke="midnightblue" points="454.369,-26.515 462.375,-19.5765 451.789,-20.0075 454.369,-26.515"/>
</g>
<!-- Node9 -->
<g id="node9" class="node"><title>Node9</title>
<g id="a_node9"><a xlink:href="namespacepdal_1_1Utils.html#a28e3e2faff94b20f9908e77bc54ed983" target="_top" xlink:title="pdal::Utils::toupper">
<polygon fill="white" stroke="black" points="767,-19.5 767,-38.5 866,-38.5 866,-19.5 767,-19.5"/>
<text text-anchor="middle" x="816.5" y="-26.5" font-family="Helvetica,sans-Serif" font-size="10.00">pdal::Utils::toupper</text>
</a>
</g>
</g>
<!-- Node8&#45;&gt;Node9 -->
<g id="edge8" class="edge"><title>Node8&#45;&gt;Node9</title>
<path fill="none" stroke="midnightblue" d="M731.295,-29C739.742,-29 748.282,-29 756.518,-29"/>
<polygon fill="midnightblue" stroke="midnightblue" points="756.758,-32.5001 766.758,-29 756.758,-25.5001 756.758,-32.5001"/>
</g>
<!-- Node10&#45;&gt;Node8 -->
<g id="edge10" class="edge"><title>Node10&#45;&gt;Node8</title>
<path fill="none" stroke="midnightblue" d="M549.332,-16.8594C557.598,-17.7915 566.191,-18.7604 574.756,-19.7262"/>
<polygon fill="midnightblue" stroke="midnightblue" points="574.448,-23.2135 584.777,-20.8562 575.232,-16.2576 574.448,-23.2135"/>
</g>
<!-- Node12 -->
<g id="node12" class="node"><title>Node12</title>
<g id="a_node12"><a xlink:href="classpdal_1_1geos_1_1ErrorHandler.html#a54bdaa70ba8baee1c8ad8f9f47572c8d" target="_top" xlink:title="pdal::geos::ErrorHandler::ctx">
<polygon fill="white" stroke="black" points="248,-19.5 248,-38.5 390,-38.5 390,-19.5 248,-19.5"/>
<text text-anchor="middle" x="319" y="-26.5" font-family="Helvetica,sans-Serif" font-size="10.00">pdal::geos::ErrorHandler::ctx</text>
</a>
</g>
</g>
<!-- Node11&#45;&gt;Node12 -->
<g id="edge12" class="edge"><title>Node11&#45;&gt;Node12</title>
<path fill="none" stroke="midnightblue" d="M212.169,-41.5675C220.379,-40.5925 228.996,-39.5692 237.619,-38.5453"/>
<polygon fill="midnightblue" stroke="midnightblue" points="238.202,-42.0007 247.72,-37.3458 237.377,-35.0495 238.202,-42.0007"/>
</g>
</g>
</svg>
