<?xml version="1.0" encoding="UTF-8" standalone="no"?>
<!DOCTYPE svg PUBLIC "-//W3C//DTD SVG 1.1//EN"
 "http://www.w3.org/Graphics/SVG/1.1/DTD/svg11.dtd">
<!-- Generated by graphviz version 2.38.0 (20140413.2041)
 -->
<!-- Title: pdal::TEST Pages: 1 -->
<svg width="356pt" height="78pt"
 viewBox="0.00 0.00 356.00 77.50" xmlns="http://www.w3.org/2000/svg" xmlns:xlink="http://www.w3.org/1999/xlink">
<g id="graph0" class="graph" transform="scale(1 1) rotate(0) translate(4 73.5)">
<title>pdal::TEST</title>
<polygon fill="white" stroke="none" points="-4,4 -4,-73.5 352,-73.5 352,4 -4,4"/>
<!-- Node1 -->
<g id="node1" class="node"><title>Node1</title>
<polygon fill="#bfbfbf" stroke="black" points="0,-28 0,-47 66,-47 66,-28 0,-28"/>
<text text-anchor="middle" x="33" y="-35" font-family="Helvetica,sans-Serif" font-size="10.00">pdal::TEST</text>
</g>
<!-- Node2 -->
<g id="node2" class="node"><title>Node2</title>
<g id="a_node2"><a xlink:href="namespacepdal_1_1Utils.html#a3e140e4c0c21d020c56c0b8d58b8cb5b" target="_top" xlink:title="pdal::Utils::contains">
<polygon fill="white" stroke="black" points="102.5,-50 102.5,-69 206.5,-69 206.5,-50 102.5,-50"/>
<text text-anchor="middle" x="154.5" y="-57" font-family="Helvetica,sans-Serif" font-size="10.00">pdal::Utils::contains</text>
</a>
</g>
</g>
<!-- Node1&#45;&gt;Node2 -->
<g id="edge1" class="edge"><title>Node1&#45;&gt;Node2</title>
<path fill="none" stroke="midnightblue" d="M66.0238,-43.3956C74.2488,-44.9098 83.3744,-46.5898 92.538,-48.2769"/>
<polygon fill="midnightblue" stroke="midnightblue" points="91.9872,-51.7342 102.456,-50.1027 93.2547,-44.8499 91.9872,-51.7342"/>
</g>
<!-- Node3 -->
<g id="node3" class="node"><title>Node3</title>
<g id="a_node3"><a xlink:href="classpdal_1_1PluginManager.html#a494f92a49079015190f9f8d9e5267779" target="_top" xlink:title="pdal::PluginManager\l::names">
<polygon fill="white" stroke="black" points="102,-0.5 102,-30.5 207,-30.5 207,-0.5 102,-0.5"/>
<text text-anchor="start" x="110" y="-18.5" font-family="Helvetica,sans-Serif" font-size="10.00">pdal::PluginManager</text>
<text text-anchor="middle" x="154.5" y="-7.5" font-family="Helvetica,sans-Serif" font-size="10.00">::names</text>
</a>
</g>
</g>
<!-- Node1&#45;&gt;Node3 -->
<g id="edge2" class="edge"><title>Node1&#45;&gt;Node3</title>
<path fill="none" stroke="midnightblue" d="M66.0238,-31.6044C74.0608,-30.1248 82.9578,-28.4869 91.9099,-26.8388"/>
<polygon fill="midnightblue" stroke="midnightblue" points="92.7966,-30.2344 101.998,-24.9816 91.5291,-23.3501 92.7966,-30.2344"/>
</g>
<!-- Node4 -->
<g id="node4" class="node"><title>Node4</title>
<g id="a_node4"><a xlink:href="classpdal_1_1PluginManager.html#ab1040369e315ab5d6f15033e098e0652" target="_top" xlink:title="pdal::PluginManager\l::l_names">
<polygon fill="white" stroke="black" points="243,-0.5 243,-30.5 348,-30.5 348,-0.5 243,-0.5"/>
<text text-anchor="start" x="251" y="-18.5" font-family="Helvetica,sans-Serif" font-size="10.00">pdal::PluginManager</text>
<text text-anchor="middle" x="295.5" y="-7.5" font-family="Helvetica,sans-Serif" font-size="10.00">::l_names</text>
</a>
</g>
</g>
<!-- Node3&#45;&gt;Node4 -->
<g id="edge3" class="edge"><title>Node3&#45;&gt;Node4</title>
<path fill="none" stroke="midnightblue" d="M207.258,-15.5C215.49,-15.5 224.077,-15.5 232.514,-15.5"/>
<polygon fill="midnightblue" stroke="midnightblue" points="232.698,-19.0001 242.698,-15.5 232.698,-12.0001 232.698,-19.0001"/>
</g>
</g>
</svg>
