<?xml version="1.0" encoding="UTF-8" standalone="no"?>
<!DOCTYPE svg PUBLIC "-//W3C//DTD SVG 1.1//EN"
 "http://www.w3.org/Graphics/SVG/1.1/DTD/svg11.dtd">
<!-- Generated by graphviz version 2.38.0 (20140413.2041)
 -->
<!-- Title: pdal::plang::getPyJSON Pages: 1 -->
<svg width="430pt" height="88pt"
 viewBox="0.00 0.00 430.00 88.00" xmlns="http://www.w3.org/2000/svg" xmlns:xlink="http://www.w3.org/1999/xlink">
<g id="graph0" class="graph" transform="scale(1 1) rotate(0) translate(4 84)">
<title>pdal::plang::getPyJSON</title>
<polygon fill="white" stroke="none" points="-4,4 -4,-84 426,-84 426,4 -4,4"/>
<!-- Node1 -->
<g id="node1" class="node"><title>Node1</title>
<polygon fill="#bfbfbf" stroke="black" points="0,-30 0,-49 122,-49 122,-30 0,-30"/>
<text text-anchor="middle" x="61" y="-37" font-family="Helvetica,sans-Serif" font-size="10.00">pdal::plang::getPyJSON</text>
</g>
<!-- Node2 -->
<g id="node2" class="node"><title>Node2</title>
<g id="a_node2"><a xlink:href="classpdal_1_1plang_1_1Invocation.html#adfe14b064df9a0d4dcf2d1da8a7cb1d8" target="_top" xlink:title="pdal::plang::Invocation\l::begin">
<polygon fill="white" stroke="black" points="158,-49.5 158,-79.5 273,-79.5 273,-49.5 158,-49.5"/>
<text text-anchor="start" x="166" y="-67.5" font-family="Helvetica,sans-Serif" font-size="10.00">pdal::plang::Invocation</text>
<text text-anchor="middle" x="215.5" y="-56.5" font-family="Helvetica,sans-Serif" font-size="10.00">::begin</text>
</a>
</g>
</g>
<!-- Node1&#45;&gt;Node2 -->
<g id="edge1" class="edge"><title>Node1&#45;&gt;Node2</title>
<path fill="none" stroke="midnightblue" d="M130.066,-50.6583C139.344,-52.1793 148.785,-53.7271 157.832,-55.2102"/>
<polygon fill="midnightblue" stroke="midnightblue" points="130.523,-47.1867 120.089,-49.0227 129.391,-54.0945 130.523,-47.1867"/>
</g>
<!-- Node4 -->
<g id="node4" class="node"><title>Node4</title>
<g id="a_node4"><a xlink:href="classpdal_1_1plang_1_1Invocation.html#a5fb68872b8729833aa32d7384d1801e4" target="_top" xlink:title="pdal::plang::Invocation\l::setKWargs">
<polygon fill="white" stroke="black" points="158,-0.5 158,-30.5 273,-30.5 273,-0.5 158,-0.5"/>
<text text-anchor="start" x="166" y="-18.5" font-family="Helvetica,sans-Serif" font-size="10.00">pdal::plang::Invocation</text>
<text text-anchor="middle" x="215.5" y="-7.5" font-family="Helvetica,sans-Serif" font-size="10.00">::setKWargs</text>
</a>
</g>
</g>
<!-- Node1&#45;&gt;Node4 -->
<g id="edge3" class="edge"><title>Node1&#45;&gt;Node4</title>
<path fill="none" stroke="midnightblue" d="M132.205,-28.4514C140.727,-27.1102 149.351,-25.7529 157.647,-24.4474"/>
<polygon fill="midnightblue" stroke="midnightblue" points="131.606,-25.0024 122.272,-30.0146 132.695,-31.9173 131.606,-25.0024"/>
</g>
<!-- Node3 -->
<g id="node3" class="node"><title>Node3</title>
<g id="a_node3"><a xlink:href="classpdal_1_1PythonFilter.html#a237d32f937771c1f5792170606a440be" target="_top" xlink:title="pdal::PythonFilter::run">
<polygon fill="white" stroke="black" points="309,-30 309,-49 422,-49 422,-30 309,-30"/>
<text text-anchor="middle" x="365.5" y="-37" font-family="Helvetica,sans-Serif" font-size="10.00">pdal::PythonFilter::run</text>
</a>
</g>
</g>
<!-- Node2&#45;&gt;Node3 -->
<g id="edge2" class="edge"><title>Node2&#45;&gt;Node3</title>
<path fill="none" stroke="midnightblue" d="M283.178,-53.2368C291.669,-51.8025 300.29,-50.3463 308.587,-48.9447"/>
<polygon fill="midnightblue" stroke="midnightblue" points="282.575,-49.7891 273.297,-54.9058 283.741,-56.6913 282.575,-49.7891"/>
</g>
<!-- Node4&#45;&gt;Node3 -->
<g id="edge4" class="edge"><title>Node4&#45;&gt;Node3</title>
<path fill="none" stroke="midnightblue" d="M283.178,-26.3127C291.669,-27.6896 300.29,-29.0875 308.587,-30.433"/>
<polygon fill="midnightblue" stroke="midnightblue" points="283.729,-22.8563 273.297,-24.7104 282.608,-29.7661 283.729,-22.8563"/>
</g>
</g>
</svg>
