<?xml version="1.0" encoding="UTF-8" standalone="no"?>
<!DOCTYPE svg PUBLIC "-//W3C//DTD SVG 1.1//EN"
 "http://www.w3.org/Graphics/SVG/1.1/DTD/svg11.dtd">
<!-- Generated by graphviz version 2.38.0 (20140413.2041)
 -->
<!-- Title: pdal/tools/nitfwrap/NitfWrapTest.cpp Pages: 1 -->
<svg width="1545pt" height="319pt"
 viewBox="0.00 0.00 1544.79 319.00" xmlns="http://www.w3.org/2000/svg" xmlns:xlink="http://www.w3.org/1999/xlink">
<g id="graph0" class="graph" transform="scale(1 1) rotate(0) translate(4 315)">
<title>pdal/tools/nitfwrap/NitfWrapTest.cpp</title>
<polygon fill="white" stroke="none" points="-4,4 -4,-315 1540.79,-315 1540.79,4 -4,4"/>
<!-- Node1 -->
<g id="node1" class="node"><title>Node1</title>
<polygon fill="#bfbfbf" stroke="black" points="165,-280.5 165,-310.5 262,-310.5 262,-280.5 165,-280.5"/>
<text text-anchor="start" x="173" y="-298.5" font-family="Helvetica,sans-Serif" font-size="10.00">pdal/tools/nitfwrap</text>
<text text-anchor="middle" x="213.5" y="-287.5" font-family="Helvetica,sans-Serif" font-size="10.00">/NitfWrapTest.cpp</text>
</g>
<!-- Node2 -->
<g id="node2" class="node"><title>Node2</title>
<g id="a_node2"><a xlink:href="pdal__test__main_8hpp.html" target="_top" xlink:title="pdal/pdal_test_main.hpp">
<polygon fill="white" stroke="black" points="7.5,-224.5 7.5,-243.5 129.5,-243.5 129.5,-224.5 7.5,-224.5"/>
<text text-anchor="middle" x="68.5" y="-231.5" font-family="Helvetica,sans-Serif" font-size="10.00">pdal/pdal_test_main.hpp</text>
</a>
</g>
</g>
<!-- Node1&#45;&gt;Node2 -->
<g id="edge1" class="edge"><title>Node1&#45;&gt;Node2</title>
<path fill="none" stroke="midnightblue" d="M179.137,-280.399C154.809,-270.416 122.471,-257.147 99.0439,-247.534"/>
<polygon fill="midnightblue" stroke="midnightblue" points="100.179,-244.216 89.5988,-243.658 97.5215,-250.692 100.179,-244.216"/>
</g>
<!-- Node4 -->
<g id="node4" class="node"><title>Node4</title>
<g id="a_node4"><a xlink:href="FileUtils_8hpp.html" target="_top" xlink:title="pdal/util/FileUtils.hpp">
<polygon fill="white" stroke="black" points="201.5,-112.5 201.5,-131.5 309.5,-131.5 309.5,-112.5 201.5,-112.5"/>
<text text-anchor="middle" x="255.5" y="-119.5" font-family="Helvetica,sans-Serif" font-size="10.00">pdal/util/FileUtils.hpp</text>
</a>
</g>
</g>
<!-- Node1&#45;&gt;Node4 -->
<g id="edge3" class="edge"><title>Node1&#45;&gt;Node4</title>
<path fill="none" stroke="midnightblue" d="M215.397,-280.356C217.435,-266.05 220.997,-243.348 225.5,-224 232.322,-194.688 242.767,-161.334 249.36,-141.242"/>
<polygon fill="midnightblue" stroke="midnightblue" points="252.747,-142.147 252.579,-131.553 246.104,-139.94 252.747,-142.147"/>
</g>
<!-- Node13 -->
<g id="node13" class="node"><title>Node13</title>
<g id="a_node13"><a xlink:href="Utils_8hpp.html" target="_top" xlink:title="pdal/util/Utils.hpp">
<polygon fill="white" stroke="black" points="707.5,-112.5 707.5,-131.5 799.5,-131.5 799.5,-112.5 707.5,-112.5"/>
<text text-anchor="middle" x="753.5" y="-119.5" font-family="Helvetica,sans-Serif" font-size="10.00">pdal/util/Utils.hpp</text>
</a>
</g>
</g>
<!-- Node1&#45;&gt;Node13 -->
<g id="edge12" class="edge"><title>Node1&#45;&gt;Node13</title>
<path fill="none" stroke="midnightblue" d="M257.69,-280.465C361.815,-247.396 620.994,-165.083 716.984,-134.597"/>
<polygon fill="midnightblue" stroke="midnightblue" points="718.077,-137.923 726.548,-131.56 715.958,-131.251 718.077,-137.923"/>
</g>
<!-- Node29 -->
<g id="node29" class="node"><title>Node29</title>
<g id="a_node29"><a xlink:href="Support_8hpp.html" target="_top" xlink:title="Support.hpp">
<polygon fill="white" stroke="black" points="235,-224.5 235,-243.5 304,-243.5 304,-224.5 235,-224.5"/>
<text text-anchor="middle" x="269.5" y="-231.5" font-family="Helvetica,sans-Serif" font-size="10.00">Support.hpp</text>
</a>
</g>
</g>
<!-- Node1&#45;&gt;Node29 -->
<g id="edge36" class="edge"><title>Node1&#45;&gt;Node29</title>
<path fill="none" stroke="midnightblue" d="M226.771,-280.399C235.076,-271.575 245.799,-260.183 254.424,-251.018"/>
<polygon fill="midnightblue" stroke="midnightblue" points="257.047,-253.339 261.352,-243.658 251.949,-248.541 257.047,-253.339"/>
</g>
<!-- Node3 -->
<g id="node3" class="node"><title>Node3</title>
<polygon fill="white" stroke="#bfbfbf" points="33,-168.5 33,-187.5 104,-187.5 104,-168.5 33,-168.5"/>
<text text-anchor="middle" x="68.5" y="-175.5" font-family="Helvetica,sans-Serif" font-size="10.00">gtest/gtest.h</text>
</g>
<!-- Node2&#45;&gt;Node3 -->
<g id="edge2" class="edge"><title>Node2&#45;&gt;Node3</title>
<path fill="none" stroke="midnightblue" d="M68.5,-224.083C68.5,-217.006 68.5,-206.861 68.5,-197.986"/>
<polygon fill="midnightblue" stroke="midnightblue" points="72.0001,-197.751 68.5,-187.751 65.0001,-197.751 72.0001,-197.751"/>
</g>
<!-- Node5 -->
<g id="node5" class="node"><title>Node5</title>
<polygon fill="white" stroke="#bfbfbf" points="459,-56.5 459,-75.5 508,-75.5 508,-56.5 459,-56.5"/>
<text text-anchor="middle" x="483.5" y="-63.5" font-family="Helvetica,sans-Serif" font-size="10.00">cassert</text>
</g>
<!-- Node4&#45;&gt;Node5 -->
<g id="edge4" class="edge"><title>Node4&#45;&gt;Node5</title>
<path fill="none" stroke="midnightblue" d="M293.865,-112.468C330.995,-104.129 389.107,-90.8634 448.681,-76.146"/>
<polygon fill="midnightblue" stroke="midnightblue" points="449.777,-79.4801 458.64,-73.6751 448.092,-72.686 449.777,-79.4801"/>
</g>
<!-- Node6 -->
<g id="node6" class="node"><title>Node6</title>
<polygon fill="white" stroke="#bfbfbf" points="396.5,-56.5 396.5,-75.5 440.5,-75.5 440.5,-56.5 396.5,-56.5"/>
<text text-anchor="middle" x="418.5" y="-63.5" font-family="Helvetica,sans-Serif" font-size="10.00">cmath</text>
</g>
<!-- Node4&#45;&gt;Node6 -->
<g id="edge5" class="edge"><title>Node4&#45;&gt;Node6</title>
<path fill="none" stroke="midnightblue" d="M281.328,-112.444C309.878,-102.985 355.889,-87.7421 386.652,-77.551"/>
<polygon fill="midnightblue" stroke="midnightblue" points="388.06,-80.7715 396.452,-74.3042 385.859,-74.1266 388.06,-80.7715"/>
</g>
<!-- Node7 -->
<g id="node7" class="node"><title>Node7</title>
<polygon fill="white" stroke="#bfbfbf" points="526.5,-56.5 526.5,-75.5 572.5,-75.5 572.5,-56.5 526.5,-56.5"/>
<text text-anchor="middle" x="549.5" y="-63.5" font-family="Helvetica,sans-Serif" font-size="10.00">cstdint</text>
</g>
<!-- Node4&#45;&gt;Node7 -->
<g id="edge6" class="edge"><title>Node4&#45;&gt;Node7</title>
<path fill="none" stroke="midnightblue" d="M309.53,-113.226C362.517,-105.241 445.465,-91.7725 516.5,-76 516.601,-75.9775 516.703,-75.9548 516.805,-75.9321"/>
<polygon fill="midnightblue" stroke="midnightblue" points="517.601,-79.3405 526.491,-73.5765 515.947,-72.5388 517.601,-79.3405"/>
</g>
<!-- Node8 -->
<g id="node8" class="node"><title>Node8</title>
<polygon fill="white" stroke="#bfbfbf" points="59,-56.5 59,-75.5 108,-75.5 108,-56.5 59,-56.5"/>
<text text-anchor="middle" x="83.5" y="-63.5" font-family="Helvetica,sans-Serif" font-size="10.00">istream</text>
</g>
<!-- Node4&#45;&gt;Node8 -->
<g id="edge7" class="edge"><title>Node4&#45;&gt;Node8</title>
<path fill="none" stroke="midnightblue" d="M228.246,-112.444C198.415,-103.078 150.521,-88.0415 118.07,-77.8532"/>
<polygon fill="midnightblue" stroke="midnightblue" points="118.708,-74.3852 108.118,-74.729 116.611,-81.0638 118.708,-74.3852"/>
</g>
<!-- Node9 -->
<g id="node9" class="node"><title>Node9</title>
<polygon fill="white" stroke="#bfbfbf" points="126.5,-56.5 126.5,-75.5 178.5,-75.5 178.5,-56.5 126.5,-56.5"/>
<text text-anchor="middle" x="152.5" y="-63.5" font-family="Helvetica,sans-Serif" font-size="10.00">ostream</text>
</g>
<!-- Node4&#45;&gt;Node9 -->
<g id="edge8" class="edge"><title>Node4&#45;&gt;Node9</title>
<path fill="none" stroke="midnightblue" d="M238.951,-112.324C222.508,-103.703 197.065,-90.3643 178.032,-80.3855"/>
<polygon fill="midnightblue" stroke="midnightblue" points="179.489,-77.198 169.008,-75.6545 176.239,-83.3977 179.489,-77.198"/>
</g>
<!-- Node10 -->
<g id="node10" class="node"><title>Node10</title>
<polygon fill="white" stroke="#bfbfbf" points="197,-56.5 197,-75.5 256,-75.5 256,-56.5 197,-56.5"/>
<text text-anchor="middle" x="226.5" y="-63.5" font-family="Helvetica,sans-Serif" font-size="10.00">stdexcept</text>
</g>
<!-- Node4&#45;&gt;Node10 -->
<g id="edge9" class="edge"><title>Node4&#45;&gt;Node10</title>
<path fill="none" stroke="midnightblue" d="M250.711,-112.083C246.742,-104.691 240.975,-93.9533 236.065,-84.8111"/>
<polygon fill="midnightblue" stroke="midnightblue" points="239.014,-82.9051 231.2,-75.7511 232.847,-86.217 239.014,-82.9051"/>
</g>
<!-- Node11 -->
<g id="node11" class="node"><title>Node11</title>
<polygon fill="white" stroke="#bfbfbf" points="0,-56.5 0,-75.5 41,-75.5 41,-56.5 0,-56.5"/>
<text text-anchor="middle" x="20.5" y="-63.5" font-family="Helvetica,sans-Serif" font-size="10.00">string</text>
</g>
<!-- Node4&#45;&gt;Node11 -->
<g id="edge10" class="edge"><title>Node4&#45;&gt;Node11</title>
<path fill="none" stroke="midnightblue" d="M211.034,-112.435C171.262,-104.517 111.202,-91.9305 50.7368,-76.1678"/>
<polygon fill="midnightblue" stroke="midnightblue" points="51.5939,-72.7743 41.0321,-73.611 49.8104,-79.5433 51.5939,-72.7743"/>
</g>
<!-- Node12 -->
<g id="node12" class="node"><title>Node12</title>
<g id="a_node12"><a xlink:href="pdal__util__export_8hpp.html" target="_top" xlink:title="pdal_util_export.hpp">
<polygon fill="white" stroke="black" points="274.5,-56.5 274.5,-75.5 378.5,-75.5 378.5,-56.5 274.5,-56.5"/>
<text text-anchor="middle" x="326.5" y="-63.5" font-family="Helvetica,sans-Serif" font-size="10.00">pdal_util_export.hpp</text>
</a>
</g>
</g>
<!-- Node4&#45;&gt;Node12 -->
<g id="edge11" class="edge"><title>Node4&#45;&gt;Node12</title>
<path fill="none" stroke="midnightblue" d="M266.907,-112.324C277.609,-104.185 293.841,-91.8395 306.663,-82.0874"/>
<polygon fill="midnightblue" stroke="midnightblue" points="309.044,-84.6734 314.885,-75.8339 304.807,-79.1018 309.044,-84.6734"/>
</g>
<!-- Node13&#45;&gt;Node5 -->
<g id="edge14" class="edge"><title>Node13&#45;&gt;Node5</title>
<path fill="none" stroke="midnightblue" d="M707.175,-113.16C661.588,-105.223 589.794,-92.1331 518.401,-76.0745"/>
<polygon fill="midnightblue" stroke="midnightblue" points="518.859,-72.5896 508.333,-73.7891 517.31,-79.4159 518.859,-72.5896"/>
</g>
<!-- Node13&#45;&gt;Node6 -->
<g id="edge16" class="edge"><title>Node13&#45;&gt;Node6</title>
<path fill="none" stroke="midnightblue" d="M707.311,-116.138C649.415,-109.608 547.026,-96.6263 450.663,-76.0054"/>
<polygon fill="midnightblue" stroke="midnightblue" points="451.274,-72.5564 440.758,-73.8537 449.787,-79.3969 451.274,-72.5564"/>
</g>
<!-- Node13&#45;&gt;Node7 -->
<g id="edge17" class="edge"><title>Node13&#45;&gt;Node7</title>
<path fill="none" stroke="midnightblue" d="M720.157,-112.469C687.435,-104.054 635.869,-90.6811 582.237,-76.1655"/>
<polygon fill="midnightblue" stroke="midnightblue" points="583.126,-72.7801 572.558,-73.5394 581.293,-79.5359 583.126,-72.7801"/>
</g>
<!-- Node13&#45;&gt;Node8 -->
<g id="edge21" class="edge"><title>Node13&#45;&gt;Node8</title>
<path fill="none" stroke="midnightblue" d="M707.163,-117.961C573.599,-109.172 193.088,-83.9134 118.309,-75.4646"/>
<polygon fill="midnightblue" stroke="midnightblue" points="118.639,-71.9778 108.265,-74.1317 117.718,-78.9169 118.639,-71.9778"/>
</g>
<!-- Node13&#45;&gt;Node10 -->
<g id="edge26" class="edge"><title>Node13&#45;&gt;Node10</title>
<path fill="none" stroke="midnightblue" d="M707.294,-117.54C606.191,-109.844 367.024,-90.9234 266.381,-75.8776"/>
<polygon fill="midnightblue" stroke="midnightblue" points="266.649,-72.3771 256.229,-74.2955 265.571,-79.2937 266.649,-72.3771"/>
</g>
<!-- Node13&#45;&gt;Node11 -->
<g id="edge27" class="edge"><title>Node13&#45;&gt;Node11</title>
<path fill="none" stroke="midnightblue" d="M707.336,-118.085C562.651,-108.946 123.728,-81.1868 51.2222,-75.0989"/>
<polygon fill="midnightblue" stroke="midnightblue" points="51.5628,-71.6155 41.261,-74.0897 50.8572,-78.5799 51.5628,-71.6155"/>
</g>
<!-- Node13&#45;&gt;Node12 -->
<g id="edge35" class="edge"><title>Node13&#45;&gt;Node12</title>
<path fill="none" stroke="midnightblue" d="M707.233,-115.674C639.645,-107.815 509.687,-92.4008 388.896,-76.1623"/>
<polygon fill="midnightblue" stroke="midnightblue" points="389.11,-72.6596 378.732,-74.791 388.174,-79.5967 389.11,-72.6596"/>
</g>
<!-- Node14 -->
<g id="node14" class="node"><title>Node14</title>
<polygon fill="white" stroke="#bfbfbf" points="1166.5,-56.5 1166.5,-75.5 1222.5,-75.5 1222.5,-56.5 1166.5,-56.5"/>
<text text-anchor="middle" x="1194.5" y="-63.5" font-family="Helvetica,sans-Serif" font-size="10.00">algorithm</text>
</g>
<!-- Node13&#45;&gt;Node14 -->
<g id="edge13" class="edge"><title>Node13&#45;&gt;Node14</title>
<path fill="none" stroke="midnightblue" d="M799.782,-117.276C874.348,-110.94 1025.56,-96.7066 1152.5,-76 1153.74,-75.7974 1155,-75.5824 1156.27,-75.3575"/>
<polygon fill="midnightblue" stroke="midnightblue" points="1156.94,-78.794 1166.11,-73.4818 1155.63,-71.918 1156.94,-78.794"/>
</g>
<!-- Node15 -->
<g id="node15" class="node"><title>Node15</title>
<polygon fill="white" stroke="#bfbfbf" points="1240.5,-56.5 1240.5,-75.5 1286.5,-75.5 1286.5,-56.5 1240.5,-56.5"/>
<text text-anchor="middle" x="1263.5" y="-63.5" font-family="Helvetica,sans-Serif" font-size="10.00">cctype</text>
</g>
<!-- Node13&#45;&gt;Node15 -->
<g id="edge15" class="edge"><title>Node13&#45;&gt;Node15</title>
<path fill="none" stroke="midnightblue" d="M799.691,-119.418C883.684,-115.943 1067.06,-105.605 1229.99,-75.9657"/>
<polygon fill="midnightblue" stroke="midnightblue" points="1231,-79.3385 1240.2,-74.0785 1229.73,-72.4552 1231,-79.3385"/>
</g>
<!-- Node16 -->
<g id="node16" class="node"><title>Node16</title>
<polygon fill="white" stroke="#bfbfbf" points="1304.5,-56.5 1304.5,-75.5 1350.5,-75.5 1350.5,-56.5 1304.5,-56.5"/>
<text text-anchor="middle" x="1327.5" y="-63.5" font-family="Helvetica,sans-Serif" font-size="10.00">cstring</text>
</g>
<!-- Node13&#45;&gt;Node16 -->
<g id="edge18" class="edge"><title>Node13&#45;&gt;Node16</title>
<path fill="none" stroke="midnightblue" d="M799.568,-120.14C891.894,-117.778 1106.13,-109.088 1294.14,-75.9133"/>
<polygon fill="midnightblue" stroke="midnightblue" points="1294.98,-79.3186 1304.2,-74.1089 1293.74,-72.4284 1294.98,-79.3186"/>
</g>
<!-- Node17 -->
<g id="node17" class="node"><title>Node17</title>
<polygon fill="white" stroke="#bfbfbf" points="660.5,-56.5 660.5,-75.5 710.5,-75.5 710.5,-56.5 660.5,-56.5"/>
<text text-anchor="middle" x="685.5" y="-63.5" font-family="Helvetica,sans-Serif" font-size="10.00">fstream</text>
</g>
<!-- Node13&#45;&gt;Node17 -->
<g id="edge19" class="edge"><title>Node13&#45;&gt;Node17</title>
<path fill="none" stroke="midnightblue" d="M742.575,-112.324C732.325,-104.185 716.779,-91.8395 704.499,-82.0874"/>
<polygon fill="midnightblue" stroke="midnightblue" points="706.632,-79.3119 696.624,-75.8339 702.279,-84.7937 706.632,-79.3119"/>
</g>
<!-- Node18 -->
<g id="node18" class="node"><title>Node18</title>
<polygon fill="white" stroke="#bfbfbf" points="728.5,-56.5 728.5,-75.5 778.5,-75.5 778.5,-56.5 728.5,-56.5"/>
<text text-anchor="middle" x="753.5" y="-63.5" font-family="Helvetica,sans-Serif" font-size="10.00">iomanip</text>
</g>
<!-- Node13&#45;&gt;Node18 -->
<g id="edge20" class="edge"><title>Node13&#45;&gt;Node18</title>
<path fill="none" stroke="midnightblue" d="M753.5,-112.083C753.5,-105.006 753.5,-94.8611 753.5,-85.9865"/>
<polygon fill="midnightblue" stroke="midnightblue" points="757,-85.751 753.5,-75.7511 750,-85.7511 757,-85.751"/>
</g>
<!-- Node19 -->
<g id="node19" class="node"><title>Node19</title>
<polygon fill="white" stroke="#bfbfbf" points="796.5,-56.5 796.5,-75.5 836.5,-75.5 836.5,-56.5 796.5,-56.5"/>
<text text-anchor="middle" x="816.5" y="-63.5" font-family="Helvetica,sans-Serif" font-size="10.00">limits</text>
</g>
<!-- Node13&#45;&gt;Node19 -->
<g id="edge22" class="edge"><title>Node13&#45;&gt;Node19</title>
<path fill="none" stroke="midnightblue" d="M763.622,-112.324C773.026,-104.263 787.244,-92.0765 798.569,-82.3695"/>
<polygon fill="midnightblue" stroke="midnightblue" points="800.879,-84.9993 806.194,-75.8339 796.323,-79.6844 800.879,-84.9993"/>
</g>
<!-- Node20 -->
<g id="node20" class="node"><title>Node20</title>
<polygon fill="white" stroke="#bfbfbf" points="855,-56.5 855,-75.5 890,-75.5 890,-56.5 855,-56.5"/>
<text text-anchor="middle" x="872.5" y="-63.5" font-family="Helvetica,sans-Serif" font-size="10.00">map</text>
</g>
<!-- Node13&#45;&gt;Node20 -->
<g id="edge23" class="edge"><title>Node13&#45;&gt;Node20</title>
<path fill="none" stroke="midnightblue" d="M772.356,-112.444C792.109,-103.48 823.309,-89.3221 845.634,-79.1914"/>
<polygon fill="midnightblue" stroke="midnightblue" points="847.236,-82.3078 854.896,-74.9883 844.344,-75.9334 847.236,-82.3078"/>
</g>
<!-- Node21 -->
<g id="node21" class="node"><title>Node21</title>
<polygon fill="white" stroke="#bfbfbf" points="908.5,-56.5 908.5,-75.5 960.5,-75.5 960.5,-56.5 908.5,-56.5"/>
<text text-anchor="middle" x="934.5" y="-63.5" font-family="Helvetica,sans-Serif" font-size="10.00">memory</text>
</g>
<!-- Node13&#45;&gt;Node21 -->
<g id="edge24" class="edge"><title>Node13&#45;&gt;Node21</title>
<path fill="none" stroke="midnightblue" d="M782.18,-112.444C813.753,-103.024 864.554,-87.8679 898.711,-77.6774"/>
<polygon fill="midnightblue" stroke="midnightblue" points="899.723,-81.028 908.305,-74.8151 897.722,-74.3202 899.723,-81.028"/>
</g>
<!-- Node22 -->
<g id="node22" class="node"><title>Node22</title>
<polygon fill="white" stroke="#bfbfbf" points="590.5,-56.5 590.5,-75.5 642.5,-75.5 642.5,-56.5 590.5,-56.5"/>
<text text-anchor="middle" x="616.5" y="-63.5" font-family="Helvetica,sans-Serif" font-size="10.00">sstream</text>
</g>
<!-- Node13&#45;&gt;Node22 -->
<g id="edge25" class="edge"><title>Node13&#45;&gt;Node22</title>
<path fill="none" stroke="midnightblue" d="M731.792,-112.444C709.145,-103.517 673.428,-89.4387 647.748,-79.3168"/>
<polygon fill="midnightblue" stroke="midnightblue" points="648.693,-75.9273 638.106,-75.5164 646.126,-82.4397 648.693,-75.9273"/>
</g>
<!-- Node23 -->
<g id="node23" class="node"><title>Node23</title>
<polygon fill="white" stroke="#bfbfbf" points="979,-56.5 979,-75.5 1030,-75.5 1030,-56.5 979,-56.5"/>
<text text-anchor="middle" x="1004.5" y="-63.5" font-family="Helvetica,sans-Serif" font-size="10.00">typeinfo</text>
</g>
<!-- Node13&#45;&gt;Node23 -->
<g id="edge28" class="edge"><title>Node13&#45;&gt;Node23</title>
<path fill="none" stroke="midnightblue" d="M797.482,-112.457C839.086,-104.238 903.505,-91.1546 968.851,-76.0632"/>
<polygon fill="midnightblue" stroke="midnightblue" points="969.971,-79.3963 978.919,-73.7235 968.387,-72.5779 969.971,-79.3963"/>
</g>
<!-- Node24 -->
<g id="node24" class="node"><title>Node24</title>
<polygon fill="white" stroke="#bfbfbf" points="1048.5,-56.5 1048.5,-75.5 1110.5,-75.5 1110.5,-56.5 1048.5,-56.5"/>
<text text-anchor="middle" x="1079.5" y="-63.5" font-family="Helvetica,sans-Serif" font-size="10.00">type_traits</text>
</g>
<!-- Node13&#45;&gt;Node24 -->
<g id="edge29" class="edge"><title>Node13&#45;&gt;Node24</title>
<path fill="none" stroke="midnightblue" d="M799.727,-114.673C854.36,-106.987 948.229,-93.1229 1038.02,-76.1864"/>
<polygon fill="midnightblue" stroke="midnightblue" points="1038.93,-79.5763 1048.1,-74.2689 1037.62,-72.6997 1038.93,-79.5763"/>
</g>
<!-- Node25 -->
<g id="node25" class="node"><title>Node25</title>
<polygon fill="white" stroke="#bfbfbf" points="1478.5,-56.5 1478.5,-75.5 1522.5,-75.5 1522.5,-56.5 1478.5,-56.5"/>
<text text-anchor="middle" x="1500.5" y="-63.5" font-family="Helvetica,sans-Serif" font-size="10.00">vector</text>
</g>
<!-- Node13&#45;&gt;Node25 -->
<g id="edge30" class="edge"><title>Node13&#45;&gt;Node25</title>
<path fill="none" stroke="midnightblue" d="M799.562,-121.59C912.445,-122.294 1211.77,-119.667 1468.41,-75.796"/>
<polygon fill="midnightblue" stroke="midnightblue" points="1469.03,-79.2402 1478.29,-74.0831 1467.84,-72.3431 1469.03,-79.2402"/>
</g>
<!-- Node26 -->
<g id="node26" class="node"><title>Node26</title>
<polygon fill="white" stroke="#bfbfbf" points="1424.5,-0.5 1424.5,-19.5 1478.5,-19.5 1478.5,-0.5 1424.5,-0.5"/>
<text text-anchor="middle" x="1451.5" y="-7.5" font-family="Helvetica,sans-Serif" font-size="10.00">iostream</text>
</g>
<!-- Node13&#45;&gt;Node26 -->
<g id="edge31" class="edge"><title>Node13&#45;&gt;Node26</title>
<path fill="none" stroke="midnightblue" d="M799.692,-120.62C870.227,-118.87 1008.31,-110.812 1119.5,-76 1137.71,-70.2978 1139.33,-61.8504 1157.5,-56 1264.69,-21.4797 1299.92,-40.9348 1414.58,-19.9592"/>
<polygon fill="midnightblue" stroke="midnightblue" points="1415.27,-23.3913 1424.44,-18.0922 1413.97,-16.5135 1415.27,-23.3913"/>
</g>
<!-- Node27 -->
<g id="node27" class="node"><title>Node27</title>
<g id="a_node27"><a xlink:href="NullOStream_8hpp.html" target="_top" xlink:title="NullOStream.hpp">
<polygon fill="white" stroke="black" points="1368.5,-56.5 1368.5,-75.5 1460.5,-75.5 1460.5,-56.5 1368.5,-56.5"/>
<text text-anchor="middle" x="1414.5" y="-63.5" font-family="Helvetica,sans-Serif" font-size="10.00">NullOStream.hpp</text>
</a>
</g>
</g>
<!-- Node13&#45;&gt;Node27 -->
<g id="edge32" class="edge"><title>Node13&#45;&gt;Node27</title>
<path fill="none" stroke="midnightblue" d="M799.626,-118.964C899.523,-114.254 1143.5,-101.136 1358.13,-76.0612"/>
<polygon fill="midnightblue" stroke="midnightblue" points="1358.81,-79.5058 1368.33,-74.8581 1357.99,-72.554 1358.81,-79.5058"/>
</g>
<!-- Node27&#45;&gt;Node26 -->
<g id="edge33" class="edge"><title>Node27&#45;&gt;Node26</title>
<path fill="none" stroke="midnightblue" d="M1420.61,-56.083C1425.78,-48.5341 1433.35,-37.4948 1439.69,-28.2298"/>
<polygon fill="midnightblue" stroke="midnightblue" points="1442.74,-29.9787 1445.5,-19.7511 1436.96,-26.0221 1442.74,-29.9787"/>
</g>
<!-- Node28 -->
<g id="node28" class="node"><title>Node28</title>
<polygon fill="white" stroke="#bfbfbf" points="1346.5,-0.5 1346.5,-19.5 1406.5,-19.5 1406.5,-0.5 1346.5,-0.5"/>
<text text-anchor="middle" x="1376.5" y="-7.5" font-family="Helvetica,sans-Serif" font-size="10.00">streambuf</text>
</g>
<!-- Node27&#45;&gt;Node28 -->
<g id="edge34" class="edge"><title>Node27&#45;&gt;Node28</title>
<path fill="none" stroke="midnightblue" d="M1408.23,-56.083C1402.86,-48.4554 1394.98,-37.2645 1388.42,-27.9408"/>
<polygon fill="midnightblue" stroke="midnightblue" points="1391.28,-25.9149 1382.66,-19.7511 1385.55,-29.9434 1391.28,-25.9149"/>
</g>
<!-- Node29&#45;&gt;Node11 -->
<g id="edge50" class="edge"><title>Node29&#45;&gt;Node11</title>
<path fill="none" stroke="midnightblue" d="M255.393,-224.322C227.58,-207.137 163.822,-167.376 111.5,-132 86.6204,-115.179 58.5822,-94.9533 40.2864,-81.5794"/>
<polygon fill="midnightblue" stroke="midnightblue" points="42.2782,-78.6998 32.144,-75.6094 38.1391,-84.345 42.2782,-78.6998"/>
</g>
<!-- Node30 -->
<g id="node30" class="node"><title>Node30</title>
<g id="a_node30"><a xlink:href="pdal__types_8hpp.html" target="_top" xlink:title="pdal/pdal_types.hpp">
<polygon fill="white" stroke="black" points="365.5,-168.5 365.5,-187.5 469.5,-187.5 469.5,-168.5 365.5,-168.5"/>
<text text-anchor="middle" x="417.5" y="-175.5" font-family="Helvetica,sans-Serif" font-size="10.00">pdal/pdal_types.hpp</text>
</a>
</g>
</g>
<!-- Node29&#45;&gt;Node30 -->
<g id="edge37" class="edge"><title>Node29&#45;&gt;Node30</title>
<path fill="none" stroke="midnightblue" d="M292.951,-224.444C317.633,-215.438 356.685,-201.189 384.477,-191.049"/>
<polygon fill="midnightblue" stroke="midnightblue" points="385.964,-194.232 394.159,-187.516 383.565,-187.656 385.964,-194.232"/>
</g>
<!-- Node33 -->
<g id="node33" class="node"><title>Node33</title>
<g id="a_node33"><a xlink:href="Bounds_8hpp.html" target="_top" xlink:title="pdal/util/Bounds.hpp">
<polygon fill="white" stroke="black" points="497,-112.5 497,-131.5 602,-131.5 602,-112.5 497,-112.5"/>
<text text-anchor="middle" x="549.5" y="-119.5" font-family="Helvetica,sans-Serif" font-size="10.00">pdal/util/Bounds.hpp</text>
</a>
</g>
</g>
<!-- Node29&#45;&gt;Node33 -->
<g id="edge46" class="edge"><title>Node29&#45;&gt;Node33</title>
<path fill="none" stroke="midnightblue" d="M304.294,-231.075C347.365,-227.477 421.942,-217.207 478.5,-188 501.587,-176.077 522.821,-154.66 535.936,-139.679"/>
<polygon fill="midnightblue" stroke="midnightblue" points="538.882,-141.616 542.672,-131.723 533.539,-137.093 538.882,-141.616"/>
</g>
<!-- Node30&#45;&gt;Node8 -->
<g id="edge40" class="edge"><title>Node30&#45;&gt;Node8</title>
<path fill="none" stroke="midnightblue" d="M365.162,-171.644C318.638,-165.697 249.378,-153.901 192.5,-132 159.037,-119.115 124.067,-96.342 103.031,-81.4613"/>
<polygon fill="midnightblue" stroke="midnightblue" points="105.075,-78.62 94.914,-75.6189 100.986,-84.3014 105.075,-78.62"/>
</g>
<!-- Node30&#45;&gt;Node10 -->
<g id="edge41" class="edge"><title>Node30&#45;&gt;Node10</title>
<path fill="none" stroke="midnightblue" d="M427.396,-168.252C441.188,-155.013 462.954,-129.574 448.5,-112 397.8,-50.3547 350.225,-90.1072 266.171,-75.8743"/>
<polygon fill="midnightblue" stroke="midnightblue" points="266.768,-72.4252 256.288,-73.9793 265.45,-79.2999 266.768,-72.4252"/>
</g>
<!-- Node30&#45;&gt;Node11 -->
<g id="edge42" class="edge"><title>Node30&#45;&gt;Node11</title>
<path fill="none" stroke="midnightblue" d="M365.435,-173.185C310.548,-168.036 222.142,-156.511 149.5,-132 131.416,-125.898 128.5,-120.675 111.5,-112 90.1742,-101.117 65.8574,-89.1131 47.7287,-80.242"/>
<polygon fill="midnightblue" stroke="midnightblue" points="48.8739,-76.9062 38.3522,-75.663 45.8021,-83.1963 48.8739,-76.9062"/>
</g>
<!-- Node30&#45;&gt;Node13 -->
<g id="edge45" class="edge"><title>Node30&#45;&gt;Node13</title>
<path fill="none" stroke="midnightblue" d="M469.631,-168.622C531.355,-158.702 633.764,-142.243 697.239,-132.042"/>
<polygon fill="midnightblue" stroke="midnightblue" points="698.146,-135.441 707.464,-130.399 697.036,-128.53 698.146,-135.441"/>
</g>
<!-- Node30&#45;&gt;Node25 -->
<g id="edge43" class="edge"><title>Node30&#45;&gt;Node25</title>
<path fill="none" stroke="midnightblue" d="M469.709,-175.434C622.616,-170.12 1082.44,-148.937 1468.31,-75.8933"/>
<polygon fill="midnightblue" stroke="midnightblue" points="1469.1,-79.3051 1478.27,-73.9931 1467.79,-72.4291 1469.1,-79.3051"/>
</g>
<!-- Node30&#45;&gt;Node26 -->
<g id="edge44" class="edge"><title>Node30&#45;&gt;Node26</title>
<path fill="none" stroke="midnightblue" d="M469.655,-176.441C680.491,-173.635 1461.82,-157.749 1531.5,-76 1549.6,-54.77 1515.99,-35.2945 1486.94,-23.3081"/>
<polygon fill="midnightblue" stroke="midnightblue" points="1487.93,-19.937 1477.35,-19.5385 1485.37,-26.4524 1487.93,-19.937"/>
</g>
<!-- Node31 -->
<g id="node31" class="node"><title>Node31</title>
<polygon fill="white" stroke="#bfbfbf" points="328,-112.5 328,-131.5 377,-131.5 377,-112.5 328,-112.5"/>
<text text-anchor="middle" x="352.5" y="-119.5" font-family="Helvetica,sans-Serif" font-size="10.00">stdint.h</text>
</g>
<!-- Node30&#45;&gt;Node31 -->
<g id="edge38" class="edge"><title>Node30&#45;&gt;Node31</title>
<path fill="none" stroke="midnightblue" d="M407.057,-168.324C397.354,-160.263 382.685,-148.077 371,-138.369"/>
<polygon fill="midnightblue" stroke="midnightblue" points="373.062,-135.532 363.133,-131.834 368.589,-140.916 373.062,-135.532"/>
</g>
<!-- Node32 -->
<g id="node32" class="node"><title>Node32</title>
<polygon fill="white" stroke="#bfbfbf" points="395,-112.5 395,-131.5 440,-131.5 440,-112.5 395,-112.5"/>
<text text-anchor="middle" x="417.5" y="-119.5" font-family="Helvetica,sans-Serif" font-size="10.00">cstdlib</text>
</g>
<!-- Node30&#45;&gt;Node32 -->
<g id="edge39" class="edge"><title>Node30&#45;&gt;Node32</title>
<path fill="none" stroke="midnightblue" d="M417.5,-168.083C417.5,-161.006 417.5,-150.861 417.5,-141.986"/>
<polygon fill="midnightblue" stroke="midnightblue" points="421,-141.751 417.5,-131.751 414,-141.751 421,-141.751"/>
</g>
<!-- Node33&#45;&gt;Node7 -->
<g id="edge47" class="edge"><title>Node33&#45;&gt;Node7</title>
<path fill="none" stroke="midnightblue" d="M549.5,-112.083C549.5,-105.006 549.5,-94.8611 549.5,-85.9865"/>
<polygon fill="midnightblue" stroke="midnightblue" points="553,-85.751 549.5,-75.7511 546,-85.7511 553,-85.751"/>
</g>
<!-- Node33&#45;&gt;Node12 -->
<g id="edge49" class="edge"><title>Node33&#45;&gt;Node12</title>
<path fill="none" stroke="midnightblue" d="M514.165,-112.444C475.589,-103.102 413.715,-88.1194 371.647,-77.9326"/>
<polygon fill="midnightblue" stroke="midnightblue" points="372.213,-74.4683 361.67,-75.5164 370.565,-81.2717 372.213,-74.4683"/>
</g>
<!-- Node33&#45;&gt;Node22 -->
<g id="edge48" class="edge"><title>Node33&#45;&gt;Node22</title>
<path fill="none" stroke="midnightblue" d="M560.265,-112.324C570.266,-104.263 585.387,-92.0765 597.43,-82.3695"/>
<polygon fill="midnightblue" stroke="midnightblue" points="599.95,-84.8343 605.539,-75.8339 595.557,-79.3841 599.95,-84.8343"/>
</g>
</g>
</svg>
