<?xml version="1.0" encoding="UTF-8" standalone="no"?>
<!DOCTYPE svg PUBLIC "-//W3C//DTD SVG 1.1//EN"
 "http://www.w3.org/Graphics/SVG/1.1/DTD/svg11.dtd">
<!-- Generated by graphviz version 2.38.0 (20140413.2041)
 -->
<!-- Title: compare Pages: 1 -->
<svg width="323pt" height="104pt"
 viewBox="0.00 0.00 323.00 104.00" xmlns="http://www.w3.org/2000/svg" xmlns:xlink="http://www.w3.org/1999/xlink">
<g id="graph0" class="graph" transform="scale(1 1) rotate(0) translate(4 100)">
<title>compare</title>
<polygon fill="white" stroke="none" points="-4,4 -4,-100 319,-100 319,4 -4,4"/>
<!-- Node1 -->
<g id="node1" class="node"><title>Node1</title>
<polygon fill="#bfbfbf" stroke="black" points="0,-38.5 0,-57.5 54,-57.5 54,-38.5 0,-38.5"/>
<text text-anchor="middle" x="27" y="-45.5" font-family="Helvetica,sans-Serif" font-size="10.00">compare</text>
</g>
<!-- Node2 -->
<g id="node2" class="node"><title>Node2</title>
<g id="a_node2"><a xlink:href="OCITest_8cpp.html#ab1703367762abc1490e00dcd5ccb29bc" target="_top" xlink:title="readData">
<polygon fill="white" stroke="black" points="130,-76.5 130,-95.5 186,-95.5 186,-76.5 130,-76.5"/>
<text text-anchor="middle" x="158" y="-83.5" font-family="Helvetica,sans-Serif" font-size="10.00">readData</text>
</a>
</g>
</g>
<!-- Node1&#45;&gt;Node2 -->
<g id="edge1" class="edge"><title>Node1&#45;&gt;Node2</title>
<path fill="none" stroke="midnightblue" d="M63.912,-59.1455C72.4521,-61.7571 81.5404,-64.5046 90,-67 103.104,-70.8655 117.694,-75.0204 129.905,-78.4561"/>
<polygon fill="midnightblue" stroke="midnightblue" points="64.7961,-55.7557 54.2092,-56.1654 62.7408,-62.4472 64.7961,-55.7557"/>
</g>
<!-- Node4 -->
<g id="node4" class="node"><title>Node4</title>
<g id="a_node4"><a xlink:href="classpdal_1_1MortonOrderFilter.html#ad677d9f6af17b471a1959ae20afb1af8" target="_top" xlink:title="pdal::MortonOrderFilter::run">
<polygon fill="white" stroke="black" points="90,-38.5 90,-57.5 226,-57.5 226,-38.5 90,-38.5"/>
<text text-anchor="middle" x="158" y="-45.5" font-family="Helvetica,sans-Serif" font-size="10.00">pdal::MortonOrderFilter::run</text>
</a>
</g>
</g>
<!-- Node1&#45;&gt;Node4 -->
<g id="edge3" class="edge"><title>Node1&#45;&gt;Node4</title>
<path fill="none" stroke="midnightblue" d="M64.1942,-48C72.232,-48 81.0014,-48 89.8374,-48"/>
<polygon fill="midnightblue" stroke="midnightblue" points="64.1051,-44.5001 54.1051,-48 64.105,-51.5001 64.1051,-44.5001"/>
</g>
<!-- Node5 -->
<g id="node5" class="node"><title>Node5</title>
<g id="a_node5"><a xlink:href="GDALReaderTest_8cpp.html#a3516d024f113af1dacf61dd812810c42" target="_top" xlink:title="TEST_F">
<polygon fill="white" stroke="black" points="131.5,-0.5 131.5,-19.5 184.5,-19.5 184.5,-0.5 131.5,-0.5"/>
<text text-anchor="middle" x="158" y="-7.5" font-family="Helvetica,sans-Serif" font-size="10.00">TEST_F</text>
</a>
</g>
</g>
<!-- Node1&#45;&gt;Node5 -->
<g id="edge4" class="edge"><title>Node1&#45;&gt;Node5</title>
<path fill="none" stroke="midnightblue" d="M63.912,-36.8545C72.4521,-34.2429 81.5404,-31.4954 90,-29 103.568,-24.9977 118.729,-20.6851 131.192,-17.1818"/>
<polygon fill="midnightblue" stroke="midnightblue" points="62.7408,-33.5528 54.2092,-39.8346 64.7961,-40.2443 62.7408,-33.5528"/>
</g>
<!-- Node3 -->
<g id="node3" class="node"><title>Node3</title>
<g id="a_node3"><a xlink:href="OCITest_8cpp.html#aeec95d176ecd07ea099b8fd698bd9d25" target="_top" xlink:title="TEST_F">
<polygon fill="white" stroke="black" points="262,-76.5 262,-95.5 315,-95.5 315,-76.5 262,-76.5"/>
<text text-anchor="middle" x="288.5" y="-83.5" font-family="Helvetica,sans-Serif" font-size="10.00">TEST_F</text>
</a>
</g>
</g>
<!-- Node2&#45;&gt;Node3 -->
<g id="edge2" class="edge"><title>Node2&#45;&gt;Node3</title>
<path fill="none" stroke="midnightblue" d="M196.406,-86C217.332,-86 242.89,-86 261.602,-86"/>
<polygon fill="midnightblue" stroke="midnightblue" points="196.252,-82.5001 186.252,-86 196.252,-89.5001 196.252,-82.5001"/>
</g>
</g>
</svg>
