<?xml version="1.0" encoding="UTF-8" standalone="no"?>
<!DOCTYPE svg PUBLIC "-//W3C//DTD SVG 1.1//EN"
 "http://www.w3.org/Graphics/SVG/1.1/DTD/svg11.dtd">
<!-- Generated by graphviz version 2.38.0 (20140413.2041)
 -->
<!-- Title: readData Pages: 1 -->
<svg width="1239pt" height="1053pt"
 viewBox="0.00 0.00 1239.00 1053.00" xmlns="http://www.w3.org/2000/svg" xmlns:xlink="http://www.w3.org/1999/xlink">
<g id="graph0" class="graph" transform="scale(1 1) rotate(0) translate(4 1049)">
<title>readData</title>
<polygon fill="white" stroke="none" points="-4,4 -4,-1049 1235,-1049 1235,4 -4,4"/>
<!-- Node1 -->
<g id="node1" class="node"><title>Node1</title>
<polygon fill="#bfbfbf" stroke="black" points="0,-94.5 0,-113.5 56,-113.5 56,-94.5 0,-94.5"/>
<text text-anchor="middle" x="28" y="-101.5" font-family="Helvetica,sans-Serif" font-size="10.00">readData</text>
</g>
<!-- Node2 -->
<g id="node2" class="node"><title>Node2</title>
<g id="a_node2"><a xlink:href="classpdal_1_1Options.html#a30826da39f9c4716412141eeeb719032" target="_top" xlink:title="pdal::Options::add">
<polygon fill="white" stroke="black" points="253,-137.5 253,-156.5 349,-156.5 349,-137.5 253,-137.5"/>
<text text-anchor="middle" x="301" y="-144.5" font-family="Helvetica,sans-Serif" font-size="10.00">pdal::Options::add</text>
</a>
</g>
</g>
<!-- Node1&#45;&gt;Node2 -->
<g id="edge1" class="edge"><title>Node1&#45;&gt;Node2</title>
<path fill="none" stroke="midnightblue" d="M56.0169,-113.301C67.0596,-116.8 80.0294,-120.525 92,-123 142.48,-133.438 200.859,-139.676 242.895,-143.165"/>
<polygon fill="midnightblue" stroke="midnightblue" points="242.698,-146.66 252.947,-143.972 243.259,-139.682 242.698,-146.66"/>
</g>
<!-- Node9 -->
<g id="node9" class="node"><title>Node9</title>
<g id="a_node9"><a xlink:href="OCITest_8cpp.html#aa992a42d3b52c376e3902f1412402781" target="_top" xlink:title="compare">
<polygon fill="white" stroke="black" points="114.5,-176.5 114.5,-195.5 168.5,-195.5 168.5,-176.5 114.5,-176.5"/>
<text text-anchor="middle" x="141.5" y="-183.5" font-family="Helvetica,sans-Serif" font-size="10.00">compare</text>
</a>
</g>
</g>
<!-- Node1&#45;&gt;Node9 -->
<g id="edge8" class="edge"><title>Node1&#45;&gt;Node9</title>
<path fill="none" stroke="midnightblue" d="M38.7167,-113.644C50.6527,-125.207 71.8093,-144.803 92,-159 98.2869,-163.421 105.364,-167.707 112.128,-171.514"/>
<polygon fill="midnightblue" stroke="midnightblue" points="110.598,-174.667 121.054,-176.376 113.947,-168.52 110.598,-174.667"/>
</g>
<!-- Node43 -->
<g id="node43" class="node"><title>Node43</title>
<g id="a_node43"><a xlink:href="classpdal_1_1StageFactory.html#ac23b3763b84750594c834ec6ea27e334" target="_top" xlink:title="pdal::StageFactory\l::createStage">
<polygon fill="white" stroke="black" points="92,-44 92,-74 191,-74 191,-44 92,-44"/>
<text text-anchor="start" x="100" y="-62" font-family="Helvetica,sans-Serif" font-size="10.00">pdal::StageFactory</text>
<text text-anchor="middle" x="141.5" y="-51" font-family="Helvetica,sans-Serif" font-size="10.00">::createStage</text>
</a>
</g>
</g>
<!-- Node1&#45;&gt;Node43 -->
<g id="edge56" class="edge"><title>Node1&#45;&gt;Node43</title>
<path fill="none" stroke="midnightblue" d="M52.6463,-94.4567C64.5923,-89.6354 79.5217,-83.6101 93.6652,-77.9019"/>
<polygon fill="midnightblue" stroke="midnightblue" points="95.3216,-81.0078 103.285,-74.0195 92.7018,-74.5165 95.3216,-81.0078"/>
</g>
<!-- Node47 -->
<g id="node47" class="node"><title>Node47</title>
<g id="a_node47"><a xlink:href="classSupport.html#a9bbdf6f202f4f2e45e7a53007dd0a238" target="_top" xlink:title="Support::datapath">
<polygon fill="white" stroke="black" points="94.5,-3.5 94.5,-22.5 188.5,-22.5 188.5,-3.5 94.5,-3.5"/>
<text text-anchor="middle" x="141.5" y="-10.5" font-family="Helvetica,sans-Serif" font-size="10.00">Support::datapath</text>
</a>
</g>
</g>
<!-- Node1&#45;&gt;Node47 -->
<g id="edge60" class="edge"><title>Node1&#45;&gt;Node47</title>
<path fill="none" stroke="midnightblue" d="M35.6925,-94.1885C46.1896,-79.422 67.8388,-51.3696 92,-34 95.5202,-31.4693 99.3932,-29.1574 103.369,-27.0698"/>
<polygon fill="midnightblue" stroke="midnightblue" points="105.197,-30.0752 112.714,-22.6081 102.181,-23.7582 105.197,-30.0752"/>
</g>
<!-- Node49 -->
<g id="node49" class="node"><title>Node49</title>
<g id="a_node49"><a xlink:href="OCITest_8cpp.html#a6199cf7554920d2a08861796fcffebaa" target="_top" xlink:title="readerOptions">
<polygon fill="white" stroke="black" points="103,-94.5 103,-113.5 180,-113.5 180,-94.5 103,-94.5"/>
<text text-anchor="middle" x="141.5" y="-101.5" font-family="Helvetica,sans-Serif" font-size="10.00">readerOptions</text>
</a>
</g>
</g>
<!-- Node1&#45;&gt;Node49 -->
<g id="edge62" class="edge"><title>Node1&#45;&gt;Node49</title>
<path fill="none" stroke="midnightblue" d="M56.276,-104C67.2563,-104 80.251,-104 92.705,-104"/>
<polygon fill="midnightblue" stroke="midnightblue" points="92.9831,-107.5 102.983,-104 92.9831,-100.5 92.9831,-107.5"/>
</g>
<!-- Node3 -->
<g id="node3" class="node"><title>Node3</title>
<g id="a_node3"><a xlink:href="classpdal_1_1Option.html#aef4422b88464a9cad83b3c11bf1f8cdd" target="_top" xlink:title="pdal::Option::nameValid">
<polygon fill="white" stroke="black" points="805,-112.5 805,-131.5 926,-131.5 926,-112.5 805,-112.5"/>
<text text-anchor="middle" x="865.5" y="-119.5" font-family="Helvetica,sans-Serif" font-size="10.00">pdal::Option::nameValid</text>
</a>
</g>
</g>
<!-- Node2&#45;&gt;Node3 -->
<g id="edge2" class="edge"><title>Node2&#45;&gt;Node3</title>
<path fill="none" stroke="midnightblue" d="M344.471,-137.469C364.534,-133.415 388.881,-129.135 411,-127 546.322,-113.935 705.403,-116.22 794.635,-119.091"/>
<polygon fill="midnightblue" stroke="midnightblue" points="794.789,-122.598 804.9,-119.434 795.023,-115.602 794.789,-122.598"/>
</g>
<!-- Node8 -->
<g id="node8" class="node"><title>Node8</title>
<g id="a_node8"><a xlink:href="classpdal_1_1Option.html#ad2b7a736742fb343e421fa326ef45c23" target="_top" xlink:title="pdal::Option::getName">
<polygon fill="white" stroke="black" points="808,-169.5 808,-188.5 923,-188.5 923,-169.5 808,-169.5"/>
<text text-anchor="middle" x="865.5" y="-176.5" font-family="Helvetica,sans-Serif" font-size="10.00">pdal::Option::getName</text>
</a>
</g>
</g>
<!-- Node2&#45;&gt;Node8 -->
<g id="edge7" class="edge"><title>Node2&#45;&gt;Node8</title>
<path fill="none" stroke="midnightblue" d="M349.297,-145.99C432.566,-144.735 610.67,-144.396 760,-160 776.555,-161.73 794.427,-164.602 810.63,-167.596"/>
<polygon fill="midnightblue" stroke="midnightblue" points="809.998,-171.038 820.476,-169.467 811.305,-164.161 809.998,-171.038"/>
</g>
<!-- Node4 -->
<g id="node4" class="node"><title>Node4</title>
<g id="a_node4"><a xlink:href="classpdal_1_1Option.html#a978a36cf9180d3636ea770988961952b" target="_top" xlink:title="pdal::Option::parse">
<polygon fill="white" stroke="black" points="975,-131.5 975,-150.5 1074,-150.5 1074,-131.5 975,-131.5"/>
<text text-anchor="middle" x="1024.5" y="-138.5" font-family="Helvetica,sans-Serif" font-size="10.00">pdal::Option::parse</text>
</a>
</g>
</g>
<!-- Node3&#45;&gt;Node4 -->
<g id="edge3" class="edge"><title>Node3&#45;&gt;Node4</title>
<path fill="none" stroke="midnightblue" d="M926.303,-129.237C938.76,-130.745 951.884,-132.333 964.318,-133.838"/>
<polygon fill="midnightblue" stroke="midnightblue" points="964.223,-137.352 974.571,-135.079 965.064,-130.402 964.223,-137.352"/>
</g>
<!-- Node7 -->
<g id="node7" class="node"><title>Node7</title>
<g id="a_node7"><a xlink:href="namespacepdal_1_1Utils.html#ada321695f57c876ef51227bdf5b84f7a" target="_top" xlink:title="pdal::Utils::printError">
<polygon fill="white" stroke="black" points="971,-93.5 971,-112.5 1078,-112.5 1078,-93.5 971,-93.5"/>
<text text-anchor="middle" x="1024.5" y="-100.5" font-family="Helvetica,sans-Serif" font-size="10.00">pdal::Utils::printError</text>
</a>
</g>
</g>
<!-- Node3&#45;&gt;Node7 -->
<g id="edge6" class="edge"><title>Node3&#45;&gt;Node7</title>
<path fill="none" stroke="midnightblue" d="M926.303,-114.763C937.515,-113.406 949.268,-111.983 960.572,-110.615"/>
<polygon fill="midnightblue" stroke="midnightblue" points="961.292,-114.054 970.799,-109.378 960.451,-107.105 961.292,-114.054"/>
</g>
<!-- Node5 -->
<g id="node5" class="node"><title>Node5</title>
<g id="a_node5"><a xlink:href="namespacepdal_1_1Utils.html#acae5a19cd66121b77e2599daec48413d" target="_top" xlink:title="pdal::Utils::extract">
<polygon fill="white" stroke="black" points="1124,-150.5 1124,-169.5 1221,-169.5 1221,-150.5 1124,-150.5"/>
<text text-anchor="middle" x="1172.5" y="-157.5" font-family="Helvetica,sans-Serif" font-size="10.00">pdal::Utils::extract</text>
</a>
</g>
</g>
<!-- Node4&#45;&gt;Node5 -->
<g id="edge4" class="edge"><title>Node4&#45;&gt;Node5</title>
<path fill="none" stroke="midnightblue" d="M1074.12,-147.327C1086.68,-148.962 1100.34,-150.739 1113.34,-152.431"/>
<polygon fill="midnightblue" stroke="midnightblue" points="1113.22,-155.946 1123.59,-153.766 1114.13,-149.004 1113.22,-155.946"/>
</g>
<!-- Node6 -->
<g id="node6" class="node"><title>Node6</title>
<g id="a_node6"><a xlink:href="namespacepdal_1_1Dimension.html#af3176b0b7e6b4be000317846cf7c2718" target="_top" xlink:title="pdal::Dimension::name">
<polygon fill="white" stroke="black" points="1114,-112.5 1114,-131.5 1231,-131.5 1231,-112.5 1114,-112.5"/>
<text text-anchor="middle" x="1172.5" y="-119.5" font-family="Helvetica,sans-Serif" font-size="10.00">pdal::Dimension::name</text>
</a>
</g>
</g>
<!-- Node4&#45;&gt;Node6 -->
<g id="edge5" class="edge"><title>Node4&#45;&gt;Node6</title>
<path fill="none" stroke="midnightblue" d="M1074.12,-134.673C1083.7,-133.426 1093.91,-132.097 1103.98,-130.786"/>
<polygon fill="midnightblue" stroke="midnightblue" points="1104.52,-134.246 1113.98,-129.485 1103.62,-127.305 1104.52,-134.246"/>
</g>
<!-- Node9&#45;&gt;Node2 -->
<g id="edge9" class="edge"><title>Node9&#45;&gt;Node2</title>
<path fill="none" stroke="midnightblue" d="M168.508,-179.56C191.074,-173.972 224.335,-165.736 251.757,-158.946"/>
<polygon fill="midnightblue" stroke="midnightblue" points="252.7,-162.318 261.566,-156.517 251.017,-155.523 252.7,-162.318"/>
</g>
<!-- Node10 -->
<g id="node10" class="node"><title>Node10</title>
<g id="a_node10"><a xlink:href="classpdal_1_1Stage.html#a1615c4aa5ec5e48f90d73f0e7a796935" target="_top" xlink:title="pdal::Stage::execute">
<polygon fill="white" stroke="black" points="247.5,-819.5 247.5,-838.5 354.5,-838.5 354.5,-819.5 247.5,-819.5"/>
<text text-anchor="middle" x="301" y="-826.5" font-family="Helvetica,sans-Serif" font-size="10.00">pdal::Stage::execute</text>
</a>
</g>
</g>
<!-- Node9&#45;&gt;Node10 -->
<g id="edge10" class="edge"><title>Node9&#45;&gt;Node10</title>
<path fill="none" stroke="midnightblue" d="M144.482,-195.679C153.361,-238.858 190.638,-418.173 227,-564 250.048,-656.431 281.539,-765.845 294.292,-809.553"/>
<polygon fill="midnightblue" stroke="midnightblue" points="291.011,-810.804 297.178,-819.419 297.729,-808.838 291.011,-810.804"/>
</g>
<!-- Node24 -->
<g id="node24" class="node"><title>Node24</title>
<g id="a_node24"><a xlink:href="classpdal_1_1Stage.html#a4b9296a59f8852b3d08630f1086bfbea" target="_top" xlink:title="pdal::Stage::prepare">
<polygon fill="white" stroke="black" points="249,-517.5 249,-536.5 353,-536.5 353,-517.5 249,-517.5"/>
<text text-anchor="middle" x="301" y="-524.5" font-family="Helvetica,sans-Serif" font-size="10.00">pdal::Stage::prepare</text>
</a>
</g>
</g>
<!-- Node9&#45;&gt;Node24 -->
<g id="edge25" class="edge"><title>Node9&#45;&gt;Node24</title>
<path fill="none" stroke="midnightblue" d="M147.044,-195.838C168.782,-242.904 262.313,-445.404 291.36,-508.294"/>
<polygon fill="midnightblue" stroke="midnightblue" points="288.218,-509.837 295.588,-517.448 294.572,-506.902 288.218,-509.837"/>
</g>
<!-- Node42 -->
<g id="node42" class="node"><title>Node42</title>
<g id="a_node42"><a xlink:href="classpdal_1_1Stage.html#acb2434df20f371f1fec9577de3cf0046" target="_top" xlink:title="pdal::Stage::setOptions">
<polygon fill="white" stroke="black" points="241.5,-176.5 241.5,-195.5 360.5,-195.5 360.5,-176.5 241.5,-176.5"/>
<text text-anchor="middle" x="301" y="-183.5" font-family="Helvetica,sans-Serif" font-size="10.00">pdal::Stage::setOptions</text>
</a>
</g>
</g>
<!-- Node9&#45;&gt;Node42 -->
<g id="edge55" class="edge"><title>Node9&#45;&gt;Node42</title>
<path fill="none" stroke="midnightblue" d="M168.508,-186C185.631,-186 208.912,-186 231.128,-186"/>
<polygon fill="midnightblue" stroke="midnightblue" points="231.234,-189.5 241.234,-186 231.234,-182.5 231.234,-189.5"/>
</g>
<!-- Node10&#45;&gt;Node10 -->
<g id="edge16" class="edge"><title>Node10&#45;&gt;Node10</title>
<path fill="none" stroke="midnightblue" d="M276.648,-838.757C264.801,-847.565 272.918,-857 301,-857 319.429,-857 329.26,-852.937 330.492,-847.654"/>
<polygon fill="midnightblue" stroke="midnightblue" points="333.386,-845.665 325.352,-838.757 327.324,-849.167 333.386,-845.665"/>
</g>
<!-- Node11 -->
<g id="node11" class="node"><title>Node11</title>
<g id="a_node11"><a xlink:href="classpdal_1_1Stage.html#a74cf636cb0f633411e4e40dcd718508a" target="_top" xlink:title="pdal::Stage::startLogging">
<polygon fill="white" stroke="black" points="621.5,-637.5 621.5,-656.5 746.5,-656.5 746.5,-637.5 621.5,-637.5"/>
<text text-anchor="middle" x="684" y="-644.5" font-family="Helvetica,sans-Serif" font-size="10.00">pdal::Stage::startLogging</text>
</a>
</g>
</g>
<!-- Node10&#45;&gt;Node11 -->
<g id="edge11" class="edge"><title>Node10&#45;&gt;Node11</title>
<path fill="none" stroke="midnightblue" d="M311.193,-819.219C328.785,-801.104 369.195,-762.334 411,-742 477.116,-709.842 503.014,-729.424 572,-704 603.125,-692.529 636.729,-674.388 658.71,-661.659"/>
<polygon fill="midnightblue" stroke="midnightblue" points="660.526,-664.652 667.378,-656.571 656.982,-658.615 660.526,-664.652"/>
</g>
<!-- Node15 -->
<g id="node15" class="node"><title>Node15</title>
<g id="a_node15"><a xlink:href="classpdal_1_1BasePointTable.html#a2554cd260c437c9b1e4a017a28a5c7de" target="_top" xlink:title="pdal::BasePointTable\l::finalize">
<polygon fill="white" stroke="black" points="436.5,-888 436.5,-918 546.5,-918 546.5,-888 436.5,-888"/>
<text text-anchor="start" x="444.5" y="-906" font-family="Helvetica,sans-Serif" font-size="10.00">pdal::BasePointTable</text>
<text text-anchor="middle" x="491.5" y="-895" font-family="Helvetica,sans-Serif" font-size="10.00">::finalize</text>
</a>
</g>
</g>
<!-- Node10&#45;&gt;Node15 -->
<g id="edge15" class="edge"><title>Node10&#45;&gt;Node15</title>
<path fill="none" stroke="midnightblue" d="M320.958,-838.66C342.44,-849.379 378.675,-866.772 411,-879 416.356,-881.026 421.964,-883.001 427.616,-884.892"/>
<polygon fill="midnightblue" stroke="midnightblue" points="426.542,-888.223 437.134,-887.99 428.708,-881.567 426.542,-888.223"/>
</g>
<!-- Node16 -->
<g id="node16" class="node"><title>Node16</title>
<g id="a_node16"><a xlink:href="classpdal_1_1BasePointTable.html#aa3ed63a9e1a8897ccb7dc81a614f6141" target="_top" xlink:title="pdal::BasePointTable\l::clearSpatialReferences">
<polygon fill="white" stroke="black" points="429.5,-839 429.5,-869 553.5,-869 553.5,-839 429.5,-839"/>
<text text-anchor="start" x="437.5" y="-857" font-family="Helvetica,sans-Serif" font-size="10.00">pdal::BasePointTable</text>
<text text-anchor="middle" x="491.5" y="-846" font-family="Helvetica,sans-Serif" font-size="10.00">::clearSpatialReferences</text>
</a>
</g>
</g>
<!-- Node10&#45;&gt;Node16 -->
<g id="edge17" class="edge"><title>Node10&#45;&gt;Node16</title>
<path fill="none" stroke="midnightblue" d="M354.508,-835.964C374.539,-838.621 397.723,-841.695 419.211,-844.545"/>
<polygon fill="midnightblue" stroke="midnightblue" points="418.9,-848.034 429.273,-845.88 419.82,-841.095 418.9,-848.034"/>
</g>
<!-- Node17 -->
<g id="node17" class="node"><title>Node17</title>
<g id="a_node17"><a xlink:href="classpdal_1_1BasePointTable.html#a670592aca912391f1a90073a2031e5e0" target="_top" xlink:title="pdal::BasePointTable\l::addSpatialReference">
<polygon fill="white" stroke="black" points="435,-790 435,-820 548,-820 548,-790 435,-790"/>
<text text-anchor="start" x="443" y="-808" font-family="Helvetica,sans-Serif" font-size="10.00">pdal::BasePointTable</text>
<text text-anchor="middle" x="491.5" y="-797" font-family="Helvetica,sans-Serif" font-size="10.00">::addSpatialReference</text>
</a>
</g>
</g>
<!-- Node10&#45;&gt;Node17 -->
<g id="edge18" class="edge"><title>Node10&#45;&gt;Node17</title>
<path fill="none" stroke="midnightblue" d="M354.508,-822.315C376.333,-819.536 401.902,-816.28 424.941,-813.347"/>
<polygon fill="midnightblue" stroke="midnightblue" points="425.505,-816.804 434.983,-812.068 424.621,-809.86 425.505,-816.804"/>
</g>
<!-- Node18 -->
<g id="node18" class="node"><title>Node18</title>
<g id="a_node18"><a xlink:href="classpdal_1_1Stage.html#afb562c59c53ed8120df9106655eb2543" target="_top" xlink:title="pdal::Stage::ready">
<polygon fill="white" stroke="black" points="443.5,-751.5 443.5,-770.5 539.5,-770.5 539.5,-751.5 443.5,-751.5"/>
<text text-anchor="middle" x="491.5" y="-758.5" font-family="Helvetica,sans-Serif" font-size="10.00">pdal::Stage::ready</text>
</a>
</g>
</g>
<!-- Node10&#45;&gt;Node18 -->
<g id="edge19" class="edge"><title>Node10&#45;&gt;Node18</title>
<path fill="none" stroke="midnightblue" d="M321.295,-819.315C342.778,-808.815 378.731,-792.076 411,-781 419.313,-778.147 428.242,-775.506 437.006,-773.141"/>
<polygon fill="midnightblue" stroke="midnightblue" points="437.995,-776.501 446.789,-770.593 436.23,-769.727 437.995,-776.501"/>
</g>
<!-- Node19 -->
<g id="node19" class="node"><title>Node19</title>
<g id="a_node19"><a xlink:href="classpdal_1_1Stage.html#a9889b4446f40daa6f4cd7bfe3c567839" target="_top" xlink:title="pdal::Stage::getSpatialReference">
<polygon fill="white" stroke="black" points="411,-1025.5 411,-1044.5 572,-1044.5 572,-1025.5 411,-1025.5"/>
<text text-anchor="middle" x="491.5" y="-1032.5" font-family="Helvetica,sans-Serif" font-size="10.00">pdal::Stage::getSpatialReference</text>
</a>
</g>
</g>
<!-- Node10&#45;&gt;Node19 -->
<g id="edge20" class="edge"><title>Node10&#45;&gt;Node19</title>
<path fill="none" stroke="midnightblue" d="M304.626,-838.577C313.649,-869.593 346.442,-968.051 411,-1016 413.538,-1017.89 416.237,-1019.59 419.049,-1021.12"/>
<polygon fill="midnightblue" stroke="midnightblue" points="417.816,-1024.41 428.357,-1025.48 420.784,-1018.07 417.816,-1024.41"/>
</g>
<!-- Node20 -->
<g id="node20" class="node"><title>Node20</title>
<g id="a_node20"><a xlink:href="classpdal_1_1SpatialReference.html#a48fa2f7e79ea172b62ad2e874ff01610" target="_top" xlink:title="pdal::SpatialReference\l::empty">
<polygon fill="white" stroke="black" points="433.5,-976 433.5,-1006 549.5,-1006 549.5,-976 433.5,-976"/>
<text text-anchor="start" x="441.5" y="-994" font-family="Helvetica,sans-Serif" font-size="10.00">pdal::SpatialReference</text>
<text text-anchor="middle" x="491.5" y="-983" font-family="Helvetica,sans-Serif" font-size="10.00">::empty</text>
</a>
</g>
</g>
<!-- Node10&#45;&gt;Node20 -->
<g id="edge21" class="edge"><title>Node10&#45;&gt;Node20</title>
<path fill="none" stroke="midnightblue" d="M306.943,-838.581C320.258,-863.445 359.384,-930.558 411,-966 415.037,-968.772 419.395,-971.248 423.921,-973.457"/>
<polygon fill="midnightblue" stroke="midnightblue" points="422.831,-976.802 433.393,-977.629 425.652,-970.395 422.831,-976.802"/>
</g>
<!-- Node21 -->
<g id="node21" class="node"><title>Node21</title>
<g id="a_node21"><a xlink:href="classpdal_1_1Stage.html#a1b00532ede55b90a7b6332a2966f5626" target="_top" xlink:title="pdal::Stage::l_done">
<polygon fill="white" stroke="black" points="441,-937.5 441,-956.5 542,-956.5 542,-937.5 441,-937.5"/>
<text text-anchor="middle" x="491.5" y="-944.5" font-family="Helvetica,sans-Serif" font-size="10.00">pdal::Stage::l_done</text>
</a>
</g>
</g>
<!-- Node10&#45;&gt;Node21 -->
<g id="edge22" class="edge"><title>Node10&#45;&gt;Node21</title>
<path fill="none" stroke="midnightblue" d="M309.604,-838.603C325.927,-858.532 366.47,-904.478 411,-928 417.154,-931.251 423.869,-933.954 430.702,-936.199"/>
<polygon fill="midnightblue" stroke="midnightblue" points="430.167,-939.69 440.749,-939.171 432.153,-932.978 430.167,-939.69"/>
</g>
<!-- Node23 -->
<g id="node23" class="node"><title>Node23</title>
<g id="a_node23"><a xlink:href="classpdal_1_1Stage.html#ae49e996fe285350923a3bf44d027adad" target="_top" xlink:title="pdal::Stage::stopLogging">
<polygon fill="white" stroke="black" points="429,-675.5 429,-694.5 554,-694.5 554,-675.5 429,-675.5"/>
<text text-anchor="middle" x="491.5" y="-682.5" font-family="Helvetica,sans-Serif" font-size="10.00">pdal::Stage::stopLogging</text>
</a>
</g>
</g>
<!-- Node10&#45;&gt;Node23 -->
<g id="edge24" class="edge"><title>Node10&#45;&gt;Node23</title>
<path fill="none" stroke="midnightblue" d="M308.087,-819.287C322.855,-796.521 362.931,-739.358 411,-709 418.097,-704.518 426.077,-700.833 434.173,-697.815"/>
<polygon fill="midnightblue" stroke="midnightblue" points="435.348,-701.112 443.682,-694.57 433.088,-694.487 435.348,-701.112"/>
</g>
<!-- Node12 -->
<g id="node12" class="node"><title>Node12</title>
<g id="a_node12"><a xlink:href="classpdal_1_1gdal_1_1ErrorHandler.html#a56e0125595a43bf3b0cbd0b9a4bc55ea" target="_top" xlink:title="pdal::gdal::ErrorHandler\l::getGlobalErrorHandler">
<polygon fill="white" stroke="red" points="806,-621 806,-651 925,-651 925,-621 806,-621"/>
<text text-anchor="start" x="814" y="-639" font-family="Helvetica,sans-Serif" font-size="10.00">pdal::gdal::ErrorHandler</text>
<text text-anchor="middle" x="865.5" y="-628" font-family="Helvetica,sans-Serif" font-size="10.00">::getGlobalErrorHandler</text>
</a>
</g>
</g>
<!-- Node11&#45;&gt;Node12 -->
<g id="edge12" class="edge"><title>Node11&#45;&gt;Node12</title>
<path fill="none" stroke="midnightblue" d="M746.523,-643.23C762.257,-642.266 779.28,-641.222 795.369,-640.236"/>
<polygon fill="midnightblue" stroke="midnightblue" points="796.017,-643.703 805.784,-639.598 795.588,-636.717 796.017,-643.703"/>
</g>
<!-- Node13 -->
<g id="node13" class="node"><title>Node13</title>
<g id="a_node13"><a xlink:href="classpdal_1_1gdal_1_1ErrorHandler.html#ace1cff928ab179f671181ebaf4d280a4" target="_top" xlink:title="pdal::gdal::ErrorHandler::set">
<polygon fill="white" stroke="red" points="796,-562.5 796,-581.5 935,-581.5 935,-562.5 796,-562.5"/>
<text text-anchor="middle" x="865.5" y="-569.5" font-family="Helvetica,sans-Serif" font-size="10.00">pdal::gdal::ErrorHandler::set</text>
</a>
</g>
</g>
<!-- Node11&#45;&gt;Node13 -->
<g id="edge13" class="edge"><title>Node11&#45;&gt;Node13</title>
<path fill="none" stroke="midnightblue" d="M730.375,-637.4C740.281,-634.783 750.608,-631.643 760,-628 775.553,-621.967 813.306,-601.123 838.91,-586.642"/>
<polygon fill="midnightblue" stroke="midnightblue" points="840.762,-589.616 847.73,-581.634 837.306,-583.528 840.762,-589.616"/>
</g>
<!-- Node14 -->
<g id="node14" class="node"><title>Node14</title>
<g id="a_node14"><a xlink:href="classpdal_1_1Stage.html#aec4fb27c40bb4b032ff003a89a950dd4" target="_top" xlink:title="pdal::Stage::isDebug">
<polygon fill="white" stroke="black" points="811.5,-483.5 811.5,-502.5 919.5,-502.5 919.5,-483.5 811.5,-483.5"/>
<text text-anchor="middle" x="865.5" y="-490.5" font-family="Helvetica,sans-Serif" font-size="10.00">pdal::Stage::isDebug</text>
</a>
</g>
</g>
<!-- Node11&#45;&gt;Node14 -->
<g id="edge14" class="edge"><title>Node11&#45;&gt;Node14</title>
<path fill="none" stroke="midnightblue" d="M744.328,-637.355C749.971,-634.896 755.322,-631.827 760,-628 788.617,-604.587 773.639,-582.446 796,-553 808.985,-535.901 827.472,-520.057 841.968,-508.95"/>
<polygon fill="midnightblue" stroke="midnightblue" points="844.463,-511.456 850.394,-502.677 840.282,-505.842 844.463,-511.456"/>
</g>
<!-- Node22 -->
<g id="node22" class="node"><title>Node22</title>
<g id="a_node22"><a xlink:href="classpdal_1_1Stage.html#a2444e73dc41bfc0b94981909595ef2ca" target="_top" xlink:title="pdal::Stage::done">
<polygon fill="white" stroke="black" points="637.5,-937.5 637.5,-956.5 730.5,-956.5 730.5,-937.5 637.5,-937.5"/>
<text text-anchor="middle" x="684" y="-944.5" font-family="Helvetica,sans-Serif" font-size="10.00">pdal::Stage::done</text>
</a>
</g>
</g>
<!-- Node21&#45;&gt;Node22 -->
<g id="edge23" class="edge"><title>Node21&#45;&gt;Node22</title>
<path fill="none" stroke="midnightblue" d="M542.054,-947C568.155,-947 600.254,-947 627.224,-947"/>
<polygon fill="midnightblue" stroke="midnightblue" points="627.286,-950.5 637.286,-947 627.286,-943.5 627.286,-950.5"/>
</g>
<!-- Node24&#45;&gt;Node11 -->
<g id="edge44" class="edge"><title>Node24&#45;&gt;Node11</title>
<path fill="none" stroke="midnightblue" d="M308.798,-536.758C324.155,-557.887 363.886,-607.605 411,-628 474.594,-655.529 554.399,-657.787 611.081,-654.674"/>
<polygon fill="midnightblue" stroke="midnightblue" points="611.622,-658.147 621.387,-654.035 611.189,-651.16 611.622,-658.147"/>
</g>
<!-- Node24&#45;&gt;Node23 -->
<g id="edge54" class="edge"><title>Node24&#45;&gt;Node23</title>
<path fill="none" stroke="midnightblue" d="M307.174,-536.76C320.758,-561.433 359.936,-626.769 411,-661 417.568,-665.403 424.97,-669.021 432.548,-671.988"/>
<polygon fill="midnightblue" stroke="midnightblue" points="431.597,-675.364 442.191,-675.408 433.937,-668.767 431.597,-675.364"/>
</g>
<!-- Node24&#45;&gt;Node24 -->
<g id="edge26" class="edge"><title>Node24&#45;&gt;Node24</title>
<path fill="none" stroke="midnightblue" d="M276.648,-536.757C264.801,-545.565 272.918,-555 301,-555 319.429,-555 329.26,-550.937 330.492,-545.654"/>
<polygon fill="midnightblue" stroke="midnightblue" points="333.386,-543.665 325.352,-536.757 327.324,-547.167 333.386,-543.665"/>
</g>
<!-- Node25 -->
<g id="node25" class="node"><title>Node25</title>
<g id="a_node25"><a xlink:href="classpdal_1_1Stage.html#a75f17f9b67f48f6aab1d98aadefc4d5c" target="_top" xlink:title="pdal::Stage::handleOptions">
<polygon fill="white" stroke="black" points="424.5,-321.5 424.5,-340.5 558.5,-340.5 558.5,-321.5 424.5,-321.5"/>
<text text-anchor="middle" x="491.5" y="-328.5" font-family="Helvetica,sans-Serif" font-size="10.00">pdal::Stage::handleOptions</text>
</a>
</g>
</g>
<!-- Node24&#45;&gt;Node25 -->
<g id="edge27" class="edge"><title>Node24&#45;&gt;Node25</title>
<path fill="none" stroke="midnightblue" d="M311.348,-517.28C341.372,-486.062 435.626,-388.058 474,-348.157"/>
<polygon fill="midnightblue" stroke="midnightblue" points="476.687,-350.412 481.096,-340.778 471.641,-345.56 476.687,-350.412"/>
</g>
<!-- Node34 -->
<g id="node34" class="node"><title>Node34</title>
<g id="a_node34"><a xlink:href="classpdal_1_1Stage.html#a6c85dfbf6a674dbc2eda76a79efada48" target="_top" xlink:title="pdal::Stage::l_initialize">
<polygon fill="white" stroke="black" points="434,-435.5 434,-454.5 549,-454.5 549,-435.5 434,-435.5"/>
<text text-anchor="middle" x="491.5" y="-442.5" font-family="Helvetica,sans-Serif" font-size="10.00">pdal::Stage::l_initialize</text>
</a>
</g>
</g>
<!-- Node24&#45;&gt;Node34 -->
<g id="edge45" class="edge"><title>Node24&#45;&gt;Node34</title>
<path fill="none" stroke="midnightblue" d="M315.453,-517.491C335.413,-503.796 374.454,-478.569 411,-464 417.288,-461.493 423.993,-459.261 430.742,-457.288"/>
<polygon fill="midnightblue" stroke="midnightblue" points="431.898,-460.6 440.616,-454.581 430.047,-453.849 431.898,-460.6"/>
</g>
<!-- Node38 -->
<g id="node38" class="node"><title>Node38</title>
<g id="a_node38"><a xlink:href="classpdal_1_1Stage.html#a5b422f842a6374b448439df99fe6e07e" target="_top" xlink:title="pdal::Stage::initialize">
<polygon fill="white" stroke="black" points="438,-599.5 438,-618.5 545,-618.5 545,-599.5 438,-599.5"/>
<text text-anchor="middle" x="491.5" y="-606.5" font-family="Helvetica,sans-Serif" font-size="10.00">pdal::Stage::initialize</text>
</a>
</g>
</g>
<!-- Node24&#45;&gt;Node38 -->
<g id="edge50" class="edge"><title>Node24&#45;&gt;Node38</title>
<path fill="none" stroke="midnightblue" d="M315.453,-536.509C335.413,-550.204 374.454,-575.431 411,-590 417.288,-592.507 423.993,-594.739 430.742,-596.712"/>
<polygon fill="midnightblue" stroke="midnightblue" points="430.047,-600.151 440.616,-599.419 431.898,-593.4 430.047,-600.151"/>
</g>
<!-- Node39 -->
<g id="node39" class="node"><title>Node39</title>
<g id="a_node39"><a xlink:href="classpdal_1_1Stage.html#a7ec627c76e1c30fc53780bd81d08d4ad" target="_top" xlink:title="pdal::Stage::addDimensions">
<polygon fill="white" stroke="black" points="421.5,-561.5 421.5,-580.5 561.5,-580.5 561.5,-561.5 421.5,-561.5"/>
<text text-anchor="middle" x="491.5" y="-568.5" font-family="Helvetica,sans-Serif" font-size="10.00">pdal::Stage::addDimensions</text>
</a>
</g>
</g>
<!-- Node24&#45;&gt;Node39 -->
<g id="edge51" class="edge"><title>Node24&#45;&gt;Node39</title>
<path fill="none" stroke="midnightblue" d="M342.902,-536.547C371.308,-543.178 409.355,-552.059 439.706,-559.143"/>
<polygon fill="midnightblue" stroke="midnightblue" points="439.144,-562.606 449.678,-561.471 440.736,-555.79 439.144,-562.606"/>
</g>
<!-- Node40 -->
<g id="node40" class="node"><title>Node40</title>
<g id="a_node40"><a xlink:href="classpdal_1_1BasePointTable.html#a7e3a12a1f29e6cd10d8669ed3d07eb94" target="_top" xlink:title="pdal::BasePointTable\l::layout">
<polygon fill="white" stroke="black" points="436.5,-512 436.5,-542 546.5,-542 546.5,-512 436.5,-512"/>
<text text-anchor="start" x="444.5" y="-530" font-family="Helvetica,sans-Serif" font-size="10.00">pdal::BasePointTable</text>
<text text-anchor="middle" x="491.5" y="-519" font-family="Helvetica,sans-Serif" font-size="10.00">::layout</text>
</a>
</g>
</g>
<!-- Node24&#45;&gt;Node40 -->
<g id="edge52" class="edge"><title>Node24&#45;&gt;Node40</title>
<path fill="none" stroke="midnightblue" d="M353.011,-527C375.622,-527 402.471,-527 426.417,-527"/>
<polygon fill="midnightblue" stroke="midnightblue" points="426.481,-530.5 436.481,-527 426.48,-523.5 426.481,-530.5"/>
</g>
<!-- Node41 -->
<g id="node41" class="node"><title>Node41</title>
<g id="a_node41"><a xlink:href="classpdal_1_1Stage.html#affff6bc9dbff793d074d76333c5732dd" target="_top" xlink:title="pdal::Stage::prepared">
<polygon fill="white" stroke="black" points="436.5,-473.5 436.5,-492.5 546.5,-492.5 546.5,-473.5 436.5,-473.5"/>
<text text-anchor="middle" x="491.5" y="-480.5" font-family="Helvetica,sans-Serif" font-size="10.00">pdal::Stage::prepared</text>
</a>
</g>
</g>
<!-- Node24&#45;&gt;Node41 -->
<g id="edge53" class="edge"><title>Node24&#45;&gt;Node41</title>
<path fill="none" stroke="midnightblue" d="M342.902,-517.453C371.308,-510.822 409.355,-501.941 439.706,-494.857"/>
<polygon fill="midnightblue" stroke="midnightblue" points="440.736,-498.21 449.678,-492.529 439.144,-491.394 440.736,-498.21"/>
</g>
<!-- Node26 -->
<g id="node26" class="node"><title>Node26</title>
<g id="a_node26"><a xlink:href="classpdal_1_1Stage.html#a75ff99f7b665c6573e304ed4148dd99e" target="_top" xlink:title="pdal::Stage::addAllArgs">
<polygon fill="white" stroke="red" points="624.5,-397.5 624.5,-416.5 743.5,-416.5 743.5,-397.5 624.5,-397.5"/>
<text text-anchor="middle" x="684" y="-404.5" font-family="Helvetica,sans-Serif" font-size="10.00">pdal::Stage::addAllArgs</text>
</a>
</g>
</g>
<!-- Node25&#45;&gt;Node26 -->
<g id="edge28" class="edge"><title>Node25&#45;&gt;Node26</title>
<path fill="none" stroke="midnightblue" d="M509.223,-340.655C531.256,-353.044 571.495,-374.539 608,-388 614.758,-390.492 621.976,-392.774 629.164,-394.824"/>
<polygon fill="midnightblue" stroke="midnightblue" points="628.334,-398.225 638.902,-397.474 630.172,-391.471 628.334,-398.225"/>
</g>
<!-- Node27 -->
<g id="node27" class="node"><title>Node27</title>
<g id="a_node27"><a xlink:href="classpdal_1_1Stage.html#a6c81d6fbbac17ebe4cd63806916cc750" target="_top" xlink:title="pdal::Stage::getName">
<polygon fill="white" stroke="black" points="809.5,-416.5 809.5,-435.5 921.5,-435.5 921.5,-416.5 809.5,-416.5"/>
<text text-anchor="middle" x="865.5" y="-423.5" font-family="Helvetica,sans-Serif" font-size="10.00">pdal::Stage::getName</text>
</a>
</g>
</g>
<!-- Node25&#45;&gt;Node27 -->
<g id="edge38" class="edge"><title>Node25&#45;&gt;Node27</title>
<path fill="none" stroke="midnightblue" d="M518.568,-321.412C568.048,-304.84 677.963,-275.912 760,-312 804.433,-331.546 838.227,-380.344 854.247,-407.327"/>
<polygon fill="midnightblue" stroke="midnightblue" points="851.319,-409.256 859.332,-416.186 857.39,-405.771 851.319,-409.256"/>
</g>
<!-- Node28 -->
<g id="node28" class="node"><title>Node28</title>
<g id="a_node28"><a xlink:href="classpdal_1_1Options.html#a99aa4c0c7ba443d584f741d22d37f6a5" target="_top" xlink:title="pdal::Options::getValues">
<polygon fill="white" stroke="black" points="622,-207.5 622,-226.5 746,-226.5 746,-207.5 622,-207.5"/>
<text text-anchor="middle" x="684" y="-214.5" font-family="Helvetica,sans-Serif" font-size="10.00">pdal::Options::getValues</text>
</a>
</g>
</g>
<!-- Node25&#45;&gt;Node28 -->
<g id="edge30" class="edge"><title>Node25&#45;&gt;Node28</title>
<path fill="none" stroke="midnightblue" d="M501.353,-321.281C519.454,-302.009 562.82,-258.849 608,-236 612.602,-233.673 617.51,-231.616 622.529,-229.802"/>
<polygon fill="midnightblue" stroke="midnightblue" points="623.859,-233.049 632.267,-226.602 621.674,-226.399 623.859,-233.049"/>
</g>
<!-- Node29 -->
<g id="node29" class="node"><title>Node29</title>
<g id="a_node29"><a xlink:href="classpdal_1_1Options.html#aab2dd4f9208512ad8c38a71ad9d2c98b" target="_top" xlink:title="pdal::Options::addConditional">
<polygon fill="white" stroke="black" points="611.5,-169.5 611.5,-188.5 756.5,-188.5 756.5,-169.5 611.5,-169.5"/>
<text text-anchor="middle" x="684" y="-176.5" font-family="Helvetica,sans-Serif" font-size="10.00">pdal::Options::addConditional</text>
</a>
</g>
</g>
<!-- Node25&#45;&gt;Node29 -->
<g id="edge31" class="edge"><title>Node25&#45;&gt;Node29</title>
<path fill="none" stroke="midnightblue" d="M498.069,-321.181C512.665,-296.383 554.616,-230.871 608,-198 611.44,-195.882 615.107,-193.999 618.901,-192.325"/>
<polygon fill="midnightblue" stroke="midnightblue" points="620.479,-195.467 628.532,-188.582 617.944,-188.942 620.479,-195.467"/>
</g>
<!-- Node30 -->
<g id="node30" class="node"><title>Node30</title>
<g id="a_node30"><a xlink:href="classpdal_1_1Options.html#a541bdbfe72511dad8a22236f0a3cb2ab" target="_top" xlink:title="pdal::Options::fromFile">
<polygon fill="white" stroke="red" points="626,-359.5 626,-378.5 742,-378.5 742,-359.5 626,-359.5"/>
<text text-anchor="middle" x="684" y="-366.5" font-family="Helvetica,sans-Serif" font-size="10.00">pdal::Options::fromFile</text>
</a>
</g>
</g>
<!-- Node25&#45;&gt;Node30 -->
<g id="edge34" class="edge"><title>Node25&#45;&gt;Node30</title>
<path fill="none" stroke="midnightblue" d="M540.571,-340.589C566.276,-345.716 598.113,-352.067 625.164,-357.463"/>
<polygon fill="midnightblue" stroke="midnightblue" points="624.783,-360.956 635.274,-359.48 626.152,-354.091 624.783,-360.956"/>
</g>
<!-- Node31 -->
<g id="node31" class="node"><title>Node31</title>
<g id="a_node31"><a xlink:href="classpdal_1_1Options.html#a0d9ebe7f77b36dea85b51eb0098a5df0" target="_top" xlink:title="pdal::Options::remove">
<polygon fill="white" stroke="black" points="627.5,-245.5 627.5,-264.5 740.5,-264.5 740.5,-245.5 627.5,-245.5"/>
<text text-anchor="middle" x="684" y="-252.5" font-family="Helvetica,sans-Serif" font-size="10.00">pdal::Options::remove</text>
</a>
</g>
</g>
<!-- Node25&#45;&gt;Node31 -->
<g id="edge35" class="edge"><title>Node25&#45;&gt;Node31</title>
<path fill="none" stroke="midnightblue" d="M511.834,-321.482C534.545,-310.493 573.508,-292.234 608,-279 618.456,-274.988 629.901,-271.086 640.63,-267.634"/>
<polygon fill="midnightblue" stroke="midnightblue" points="641.753,-270.951 650.234,-264.601 639.644,-264.276 641.753,-270.951"/>
</g>
<!-- Node32 -->
<g id="node32" class="node"><title>Node32</title>
<g id="a_node32"><a xlink:href="classpdal_1_1Options.html#afb18dcc4f3883b8413171db00482959c" target="_top" xlink:title="pdal::Options::toCommandLine">
<polygon fill="white" stroke="red" points="608,-321.5 608,-340.5 760,-340.5 760,-321.5 608,-321.5"/>
<text text-anchor="middle" x="684" y="-328.5" font-family="Helvetica,sans-Serif" font-size="10.00">pdal::Options::toCommandLine</text>
</a>
</g>
</g>
<!-- Node25&#45;&gt;Node32 -->
<g id="edge37" class="edge"><title>Node25&#45;&gt;Node32</title>
<path fill="none" stroke="midnightblue" d="M558.593,-331C571.267,-331 584.703,-331 597.878,-331"/>
<polygon fill="midnightblue" stroke="midnightblue" points="597.885,-334.5 607.885,-331 597.885,-327.5 597.885,-334.5"/>
</g>
<!-- Node33 -->
<g id="node33" class="node"><title>Node33</title>
<g id="a_node33"><a xlink:href="classpdal_1_1Stage.html#ab94db25b14b94de1f62f9738327accd2" target="_top" xlink:title="pdal::Stage::setupLog">
<polygon fill="white" stroke="black" points="628,-473.5 628,-492.5 740,-492.5 740,-473.5 628,-473.5"/>
<text text-anchor="middle" x="684" y="-480.5" font-family="Helvetica,sans-Serif" font-size="10.00">pdal::Stage::setupLog</text>
</a>
</g>
</g>
<!-- Node25&#45;&gt;Node33 -->
<g id="edge39" class="edge"><title>Node25&#45;&gt;Node33</title>
<path fill="none" stroke="midnightblue" d="M503.857,-340.586C524.426,-357.893 569.306,-395.401 608,-426 626.016,-440.246 646.836,-456.016 661.962,-467.35"/>
<polygon fill="midnightblue" stroke="midnightblue" points="660.04,-470.283 670.146,-473.466 664.231,-464.676 660.04,-470.283"/>
</g>
<!-- Node26&#45;&gt;Node27 -->
<g id="edge29" class="edge"><title>Node26&#45;&gt;Node27</title>
<path fill="none" stroke="midnightblue" d="M743.775,-413.221C761.464,-415.094 780.983,-417.16 799.076,-419.075"/>
<polygon fill="midnightblue" stroke="midnightblue" points="798.935,-422.579 809.248,-420.152 799.672,-415.618 798.935,-422.579"/>
</g>
<!-- Node29&#45;&gt;Node3 -->
<g id="edge32" class="edge"><title>Node29&#45;&gt;Node3</title>
<path fill="none" stroke="midnightblue" d="M715.044,-169.459C745.073,-159.924 791.42,-145.206 824.537,-134.69"/>
<polygon fill="midnightblue" stroke="midnightblue" points="825.886,-137.934 834.358,-131.572 823.767,-131.262 825.886,-137.934"/>
</g>
<!-- Node29&#45;&gt;Node8 -->
<g id="edge33" class="edge"><title>Node29&#45;&gt;Node8</title>
<path fill="none" stroke="midnightblue" d="M756.717,-179C770.257,-179 784.368,-179 797.748,-179"/>
<polygon fill="midnightblue" stroke="midnightblue" points="797.816,-182.5 807.816,-179 797.816,-175.5 797.816,-182.5"/>
</g>
<!-- Node31&#45;&gt;Node8 -->
<g id="edge36" class="edge"><title>Node31&#45;&gt;Node8</title>
<path fill="none" stroke="midnightblue" d="M730.395,-245.453C740.301,-242.832 750.621,-239.678 760,-236 789.197,-224.55 820.501,-206.645 841.153,-193.961"/>
<polygon fill="midnightblue" stroke="midnightblue" points="843.212,-196.802 849.847,-188.543 839.509,-190.862 843.212,-196.802"/>
</g>
<!-- Node33&#45;&gt;Node12 -->
<g id="edge41" class="edge"><title>Node33&#45;&gt;Node12</title>
<path fill="none" stroke="midnightblue" d="M740.042,-490.47C747.312,-493.234 754.23,-496.967 760,-502 792.156,-530.048 768.939,-558.01 796,-591 803.896,-600.626 814.397,-608.929 824.799,-615.689"/>
<polygon fill="midnightblue" stroke="midnightblue" points="823.101,-618.753 833.455,-620.999 826.762,-612.786 823.101,-618.753"/>
</g>
<!-- Node33&#45;&gt;Node13 -->
<g id="edge42" class="edge"><title>Node33&#45;&gt;Node13</title>
<path fill="none" stroke="midnightblue" d="M733.04,-492.565C742.183,-495.109 751.534,-498.228 760,-502 791.97,-516.245 824.871,-540.092 845.005,-555.934"/>
<polygon fill="midnightblue" stroke="midnightblue" points="843.067,-558.866 853.061,-562.384 847.442,-553.401 843.067,-558.866"/>
</g>
<!-- Node33&#45;&gt;Node14 -->
<g id="edge43" class="edge"><title>Node33&#45;&gt;Node14</title>
<path fill="none" stroke="midnightblue" d="M740.321,-486.082C759.531,-487.152 781.222,-488.361 801.038,-489.465"/>
<polygon fill="midnightblue" stroke="midnightblue" points="801.028,-492.969 811.207,-490.031 801.417,-485.98 801.028,-492.969"/>
</g>
<!-- Node33&#45;&gt;Node27 -->
<g id="edge40" class="edge"><title>Node33&#45;&gt;Node27</title>
<path fill="none" stroke="midnightblue" d="M715.044,-473.459C745.073,-463.924 791.42,-449.206 824.537,-438.69"/>
<polygon fill="midnightblue" stroke="midnightblue" points="825.886,-441.934 834.358,-435.572 823.767,-435.262 825.886,-441.934"/>
</g>
<!-- Node34&#45;&gt;Node27 -->
<g id="edge48" class="edge"><title>Node34&#45;&gt;Node27</title>
<path fill="none" stroke="midnightblue" d="M549.404,-442.094C616.719,-438.655 728.548,-432.944 799.294,-429.33"/>
<polygon fill="midnightblue" stroke="midnightblue" points="799.615,-432.819 809.423,-428.813 799.258,-425.828 799.615,-432.819"/>
</g>
<!-- Node35 -->
<g id="node35" class="node"><title>Node35</title>
<g id="a_node35"><a xlink:href="classpdal_1_1BasePointTable.html#a03429472e71e5dd323bc92319f4a9df6" target="_top" xlink:title="pdal::BasePointTable\l::metadata">
<polygon fill="white" stroke="black" points="629,-550 629,-580 739,-580 739,-550 629,-550"/>
<text text-anchor="start" x="637" y="-568" font-family="Helvetica,sans-Serif" font-size="10.00">pdal::BasePointTable</text>
<text text-anchor="middle" x="684" y="-557" font-family="Helvetica,sans-Serif" font-size="10.00">::metadata</text>
</a>
</g>
</g>
<!-- Node34&#45;&gt;Node35 -->
<g id="edge46" class="edge"><title>Node34&#45;&gt;Node35</title>
<path fill="none" stroke="midnightblue" d="M549.317,-451.926C557.507,-454.743 565.387,-458.636 572,-464 601.027,-487.545 580.026,-515.212 608,-540 611.599,-543.189 615.617,-545.973 619.872,-548.404"/>
<polygon fill="midnightblue" stroke="midnightblue" points="618.373,-551.567 628.882,-552.912 621.506,-545.307 618.373,-551.567"/>
</g>
<!-- Node36 -->
<g id="node36" class="node"><title>Node36</title>
<g id="a_node36"><a xlink:href="classpdal_1_1MetadataNode.html#af2c1c5d91f6ab47a804aa8a0a1b043c2" target="_top" xlink:title="pdal::MetadataNode::add">
<polygon fill="white" stroke="black" points="621,-511.5 621,-530.5 747,-530.5 747,-511.5 621,-511.5"/>
<text text-anchor="middle" x="684" y="-518.5" font-family="Helvetica,sans-Serif" font-size="10.00">pdal::MetadataNode::add</text>
</a>
</g>
</g>
<!-- Node34&#45;&gt;Node36 -->
<g id="edge47" class="edge"><title>Node34&#45;&gt;Node36</title>
<path fill="none" stroke="midnightblue" d="M549.232,-454.263C557.167,-456.771 564.995,-459.956 572,-464 592.149,-475.63 587.93,-490.234 608,-502 611.715,-504.178 615.676,-506.109 619.763,-507.82"/>
<polygon fill="midnightblue" stroke="midnightblue" points="618.879,-511.225 629.472,-511.426 621.317,-504.663 618.879,-511.225"/>
</g>
<!-- Node37 -->
<g id="node37" class="node"><title>Node37</title>
<g id="a_node37"><a xlink:href="classpdal_1_1Stage.html#a0d7c0bb23ed18577b1aa58b02448487f" target="_top" xlink:title="pdal::Stage::writerInitialize">
<polygon fill="white" stroke="black" points="618,-599.5 618,-618.5 750,-618.5 750,-599.5 618,-599.5"/>
<text text-anchor="middle" x="684" y="-606.5" font-family="Helvetica,sans-Serif" font-size="10.00">pdal::Stage::writerInitialize</text>
</a>
</g>
</g>
<!-- Node34&#45;&gt;Node37 -->
<g id="edge49" class="edge"><title>Node34&#45;&gt;Node37</title>
<path fill="none" stroke="midnightblue" d="M549.308,-450.726C557.694,-453.675 565.638,-457.923 572,-464 613.806,-503.933 566.717,-548.526 608,-589 609.937,-590.899 612.032,-592.622 614.25,-594.187"/>
<polygon fill="midnightblue" stroke="midnightblue" points="612.926,-597.466 623.33,-599.466 616.444,-591.414 612.926,-597.466"/>
</g>
<!-- Node44 -->
<g id="node44" class="node"><title>Node44</title>
<g id="a_node44"><a xlink:href="classpdal_1_1PluginManager.html#a70e78b2649f28e266ec11b7a9e183af9" target="_top" xlink:title="pdal::PluginManager\l::createObject">
<polygon fill="white" stroke="black" points="248.5,-39 248.5,-69 353.5,-69 353.5,-39 248.5,-39"/>
<text text-anchor="start" x="256.5" y="-57" font-family="Helvetica,sans-Serif" font-size="10.00">pdal::PluginManager</text>
<text text-anchor="middle" x="301" y="-46" font-family="Helvetica,sans-Serif" font-size="10.00">::createObject</text>
</a>
</g>
</g>
<!-- Node43&#45;&gt;Node44 -->
<g id="edge57" class="edge"><title>Node43&#45;&gt;Node44</title>
<path fill="none" stroke="midnightblue" d="M191.04,-57.459C205.943,-56.9859 222.548,-56.4588 238.212,-55.9615"/>
<polygon fill="midnightblue" stroke="midnightblue" points="238.459,-59.4556 248.343,-55.6399 238.237,-52.4591 238.459,-59.4556"/>
</g>
<!-- Node45 -->
<g id="node45" class="node"><title>Node45</title>
<g id="a_node45"><a xlink:href="classpdal_1_1PluginManager.html#a1d74a4219bdf2592c026084e0aa3809a" target="_top" xlink:title="pdal::PluginManager\l::l_createObject">
<polygon fill="white" stroke="black" points="439,-39 439,-69 544,-69 544,-39 439,-39"/>
<text text-anchor="start" x="447" y="-57" font-family="Helvetica,sans-Serif" font-size="10.00">pdal::PluginManager</text>
<text text-anchor="middle" x="491.5" y="-46" font-family="Helvetica,sans-Serif" font-size="10.00">::l_createObject</text>
</a>
</g>
</g>
<!-- Node44&#45;&gt;Node45 -->
<g id="edge58" class="edge"><title>Node44&#45;&gt;Node45</title>
<path fill="none" stroke="midnightblue" d="M353.508,-54C376.686,-54 404.239,-54 428.535,-54"/>
<polygon fill="midnightblue" stroke="midnightblue" points="428.727,-57.5001 438.727,-54 428.727,-50.5001 428.727,-57.5001"/>
</g>
<!-- Node46 -->
<g id="node46" class="node"><title>Node46</title>
<g id="a_node46"><a xlink:href="classpdal_1_1PluginManager.html#a4b104d8173aec62bcd3745ddee7aa3d5" target="_top" xlink:title="pdal::PluginManager\l::guessLoadByPath">
<polygon fill="white" stroke="red" points="631.5,-39 631.5,-69 736.5,-69 736.5,-39 631.5,-39"/>
<text text-anchor="start" x="639.5" y="-57" font-family="Helvetica,sans-Serif" font-size="10.00">pdal::PluginManager</text>
<text text-anchor="middle" x="684" y="-46" font-family="Helvetica,sans-Serif" font-size="10.00">::guessLoadByPath</text>
</a>
</g>
</g>
<!-- Node45&#45;&gt;Node46 -->
<g id="edge59" class="edge"><title>Node45&#45;&gt;Node46</title>
<path fill="none" stroke="midnightblue" d="M544.052,-54C567.876,-54 596.357,-54 621.314,-54"/>
<polygon fill="midnightblue" stroke="midnightblue" points="621.407,-57.5001 631.407,-54 621.407,-50.5001 621.407,-57.5001"/>
</g>
<!-- Node48 -->
<g id="node48" class="node"><title>Node48</title>
<g id="a_node48"><a xlink:href="namespaceTestConfig.html#a0e622015f0610c2cfcbb3739b972d877" target="_top" xlink:title="TestConfig::dataPath">
<polygon fill="white" stroke="black" points="246,-0.5 246,-19.5 356,-19.5 356,-0.5 246,-0.5"/>
<text text-anchor="middle" x="301" y="-7.5" font-family="Helvetica,sans-Serif" font-size="10.00">TestConfig::dataPath</text>
</a>
</g>
</g>
<!-- Node47&#45;&gt;Node48 -->
<g id="edge61" class="edge"><title>Node47&#45;&gt;Node48</title>
<path fill="none" stroke="midnightblue" d="M188.903,-12.1161C203.567,-11.8368 220.042,-11.523 235.723,-11.2243"/>
<polygon fill="midnightblue" stroke="midnightblue" points="235.955,-14.7206 245.887,-11.0307 235.822,-7.7219 235.955,-14.7206"/>
</g>
<!-- Node49&#45;&gt;Node2 -->
<g id="edge63" class="edge"><title>Node49&#45;&gt;Node2</title>
<path fill="none" stroke="midnightblue" d="M177.454,-113.543C200.394,-119.806 230.604,-128.054 255.289,-134.793"/>
<polygon fill="midnightblue" stroke="midnightblue" points="254.575,-138.226 265.143,-137.484 256.418,-131.473 254.575,-138.226"/>
</g>
<!-- Node50 -->
<g id="node50" class="node"><title>Node50</title>
<g id="a_node50"><a xlink:href="namespaceanonymous__namespace_02OCITest_8cpp_03.html#a16b0d908e41f34b0693fc46ce9c44aef" target="_top" xlink:title="anonymous_namespace\l\{OCITest::cpp\}::connectString">
<polygon fill="white" stroke="black" points="227,-88 227,-118 375,-118 375,-88 227,-88"/>
<text text-anchor="start" x="235" y="-106" font-family="Helvetica,sans-Serif" font-size="10.00">anonymous_namespace</text>
<text text-anchor="middle" x="301" y="-95" font-family="Helvetica,sans-Serif" font-size="10.00">{OCITest::cpp}::connectString</text>
</a>
</g>
</g>
<!-- Node49&#45;&gt;Node50 -->
<g id="edge64" class="edge"><title>Node49&#45;&gt;Node50</title>
<path fill="none" stroke="midnightblue" d="M180.225,-103.76C191.284,-103.69 203.84,-103.611 216.56,-103.53"/>
<polygon fill="midnightblue" stroke="midnightblue" points="216.793,-107.028 226.77,-103.465 216.748,-100.029 216.793,-107.028"/>
</g>
</g>
</svg>
