<?xml version="1.0" encoding="UTF-8" standalone="no"?>
<!DOCTYPE svg PUBLIC "-//W3C//DTD SVG 1.1//EN"
 "http://www.w3.org/Graphics/SVG/1.1/DTD/svg11.dtd">
<!-- Generated by graphviz version 2.38.0 (20140413.2041)
 -->
<!-- Title: readerOptions Pages: 1 -->
<svg width="722pt" height="135pt"
 viewBox="0.00 0.00 722.00 134.50" xmlns="http://www.w3.org/2000/svg" xmlns:xlink="http://www.w3.org/1999/xlink">
<g id="graph0" class="graph" transform="scale(1 1) rotate(0) translate(4 130.5)">
<title>readerOptions</title>
<polygon fill="white" stroke="none" points="-4,4 -4,-130.5 718,-130.5 718,4 -4,4"/>
<!-- Node1 -->
<g id="node1" class="node"><title>Node1</title>
<polygon fill="#bfbfbf" stroke="black" points="0,-28 0,-47 77,-47 77,-28 0,-28"/>
<text text-anchor="middle" x="38.5" y="-35" font-family="Helvetica,sans-Serif" font-size="10.00">readerOptions</text>
</g>
<!-- Node2 -->
<g id="node2" class="node"><title>Node2</title>
<g id="a_node2"><a xlink:href="classpdal_1_1Options.html#a30826da39f9c4716412141eeeb719032" target="_top" xlink:title="pdal::Options::add">
<polygon fill="white" stroke="black" points="139,-50 139,-69 235,-69 235,-50 139,-50"/>
<text text-anchor="middle" x="187" y="-57" font-family="Helvetica,sans-Serif" font-size="10.00">pdal::Options::add</text>
</a>
</g>
</g>
<!-- Node1&#45;&gt;Node2 -->
<g id="edge1" class="edge"><title>Node1&#45;&gt;Node2</title>
<path fill="none" stroke="midnightblue" d="M77.2274,-43.1655C92.9605,-45.5282 111.579,-48.3241 128.923,-50.9287"/>
<polygon fill="midnightblue" stroke="midnightblue" points="128.548,-54.4115 138.957,-52.4355 129.588,-47.4892 128.548,-54.4115"/>
</g>
<!-- Node9 -->
<g id="node9" class="node"><title>Node9</title>
<g id="a_node9"><a xlink:href="namespaceanonymous__namespace_02OCITest_8cpp_03.html#a16b0d908e41f34b0693fc46ce9c44aef" target="_top" xlink:title="anonymous_namespace\l\{OCITest::cpp\}::connectString">
<polygon fill="white" stroke="black" points="113,-0.5 113,-30.5 261,-30.5 261,-0.5 113,-0.5"/>
<text text-anchor="start" x="121" y="-18.5" font-family="Helvetica,sans-Serif" font-size="10.00">anonymous_namespace</text>
<text text-anchor="middle" x="187" y="-7.5" font-family="Helvetica,sans-Serif" font-size="10.00">{OCITest::cpp}::connectString</text>
</a>
</g>
</g>
<!-- Node1&#45;&gt;Node9 -->
<g id="edge8" class="edge"><title>Node1&#45;&gt;Node9</title>
<path fill="none" stroke="midnightblue" d="M77.2274,-31.8345C85.1734,-30.6412 93.8554,-29.3374 102.737,-28.0036"/>
<polygon fill="midnightblue" stroke="midnightblue" points="103.453,-31.4355 112.822,-26.4892 102.413,-24.5131 103.453,-31.4355"/>
</g>
<!-- Node3 -->
<g id="node3" class="node"><title>Node3</title>
<g id="a_node3"><a xlink:href="classpdal_1_1Option.html#aef4422b88464a9cad83b3c11bf1f8cdd" target="_top" xlink:title="pdal::Option::nameValid">
<polygon fill="white" stroke="black" points="297,-69 297,-88 418,-88 418,-69 297,-69"/>
<text text-anchor="middle" x="357.5" y="-76" font-family="Helvetica,sans-Serif" font-size="10.00">pdal::Option::nameValid</text>
</a>
</g>
</g>
<!-- Node2&#45;&gt;Node3 -->
<g id="edge2" class="edge"><title>Node2&#45;&gt;Node3</title>
<path fill="none" stroke="midnightblue" d="M235.385,-64.8431C251.334,-66.6415 269.478,-68.6874 286.779,-70.6383"/>
<polygon fill="midnightblue" stroke="midnightblue" points="286.516,-74.1307 296.845,-71.7733 287.3,-67.1748 286.516,-74.1307"/>
</g>
<!-- Node8 -->
<g id="node8" class="node"><title>Node8</title>
<g id="a_node8"><a xlink:href="classpdal_1_1Option.html#ad2b7a736742fb343e421fa326ef45c23" target="_top" xlink:title="pdal::Option::getName">
<polygon fill="white" stroke="black" points="300,-31 300,-50 415,-50 415,-31 300,-31"/>
<text text-anchor="middle" x="357.5" y="-38" font-family="Helvetica,sans-Serif" font-size="10.00">pdal::Option::getName</text>
</a>
</g>
</g>
<!-- Node2&#45;&gt;Node8 -->
<g id="edge7" class="edge"><title>Node2&#45;&gt;Node8</title>
<path fill="none" stroke="midnightblue" d="M235.385,-54.1569C252.304,-52.2491 271.694,-50.0627 289.927,-48.0068"/>
<polygon fill="midnightblue" stroke="midnightblue" points="290.369,-51.4792 299.914,-46.8806 289.585,-44.5232 290.369,-51.4792"/>
</g>
<!-- Node4 -->
<g id="node4" class="node"><title>Node4</title>
<g id="a_node4"><a xlink:href="classpdal_1_1Option.html#a978a36cf9180d3636ea770988961952b" target="_top" xlink:title="pdal::Option::parse">
<polygon fill="white" stroke="black" points="458,-88 458,-107 557,-107 557,-88 458,-88"/>
<text text-anchor="middle" x="507.5" y="-95" font-family="Helvetica,sans-Serif" font-size="10.00">pdal::Option::parse</text>
</a>
</g>
</g>
<!-- Node3&#45;&gt;Node4 -->
<g id="edge3" class="edge"><title>Node3&#45;&gt;Node4</title>
<path fill="none" stroke="midnightblue" d="M418.271,-86.1733C428.036,-87.4269 438.144,-88.7246 447.881,-89.9746"/>
<polygon fill="midnightblue" stroke="midnightblue" points="447.499,-93.4542 457.863,-91.2561 448.39,-86.5111 447.499,-93.4542"/>
</g>
<!-- Node7 -->
<g id="node7" class="node"><title>Node7</title>
<g id="a_node7"><a xlink:href="namespacepdal_1_1Utils.html#ada321695f57c876ef51227bdf5b84f7a" target="_top" xlink:title="pdal::Utils::printError">
<polygon fill="white" stroke="black" points="454,-50 454,-69 561,-69 561,-50 454,-50"/>
<text text-anchor="middle" x="507.5" y="-57" font-family="Helvetica,sans-Serif" font-size="10.00">pdal::Utils::printError</text>
</a>
</g>
</g>
<!-- Node3&#45;&gt;Node7 -->
<g id="edge6" class="edge"><title>Node3&#45;&gt;Node7</title>
<path fill="none" stroke="midnightblue" d="M418.271,-70.8267C426.598,-69.7577 435.175,-68.6566 443.558,-67.5804"/>
<polygon fill="midnightblue" stroke="midnightblue" points="444.185,-71.0287 453.658,-66.2838 443.294,-64.0857 444.185,-71.0287"/>
</g>
<!-- Node5 -->
<g id="node5" class="node"><title>Node5</title>
<g id="a_node5"><a xlink:href="namespacepdal_1_1Utils.html#acae5a19cd66121b77e2599daec48413d" target="_top" xlink:title="pdal::Utils::extract">
<polygon fill="white" stroke="black" points="607,-107 607,-126 704,-126 704,-107 607,-107"/>
<text text-anchor="middle" x="655.5" y="-114" font-family="Helvetica,sans-Serif" font-size="10.00">pdal::Utils::extract</text>
</a>
</g>
</g>
<!-- Node4&#45;&gt;Node5 -->
<g id="edge4" class="edge"><title>Node4&#45;&gt;Node5</title>
<path fill="none" stroke="midnightblue" d="M557.116,-103.827C569.683,-105.462 583.34,-107.239 596.341,-108.931"/>
<polygon fill="midnightblue" stroke="midnightblue" points="596.225,-112.446 606.593,-110.266 597.128,-105.504 596.225,-112.446"/>
</g>
<!-- Node6 -->
<g id="node6" class="node"><title>Node6</title>
<g id="a_node6"><a xlink:href="namespacepdal_1_1Dimension.html#af3176b0b7e6b4be000317846cf7c2718" target="_top" xlink:title="pdal::Dimension::name">
<polygon fill="white" stroke="black" points="597,-69 597,-88 714,-88 714,-69 597,-69"/>
<text text-anchor="middle" x="655.5" y="-76" font-family="Helvetica,sans-Serif" font-size="10.00">pdal::Dimension::name</text>
</a>
</g>
</g>
<!-- Node4&#45;&gt;Node6 -->
<g id="edge5" class="edge"><title>Node4&#45;&gt;Node6</title>
<path fill="none" stroke="midnightblue" d="M557.116,-91.1733C566.697,-89.9264 576.911,-88.5972 586.985,-87.2862"/>
<polygon fill="midnightblue" stroke="midnightblue" points="587.519,-90.7463 596.984,-85.985 586.616,-83.8049 587.519,-90.7463"/>
</g>
</g>
</svg>
