<?xml version="1.0" encoding="UTF-8" standalone="no"?>
<!DOCTYPE svg PUBLIC "-//W3C//DTD SVG 1.1//EN"
 "http://www.w3.org/Graphics/SVG/1.1/DTD/svg11.dtd">
<!-- Generated by graphviz version 2.38.0 (20140413.2041)
 -->
<!-- Title: pdal/plugins/hexbin/kernel/OGR.hpp Pages: 1 -->
<svg width="256pt" height="106pt"
 viewBox="0.00 0.00 255.50 106.00" xmlns="http://www.w3.org/2000/svg" xmlns:xlink="http://www.w3.org/1999/xlink">
<g id="graph0" class="graph" transform="scale(1 1) rotate(0) translate(4 102)">
<title>pdal/plugins/hexbin/kernel/OGR.hpp</title>
<polygon fill="white" stroke="none" points="-4,4 -4,-102 251.5,-102 251.5,4 -4,4"/>
<!-- Node1 -->
<g id="node1" class="node"><title>Node1</title>
<polygon fill="#bfbfbf" stroke="black" points="80.5,-67.5 80.5,-97.5 180.5,-97.5 180.5,-67.5 80.5,-67.5"/>
<text text-anchor="start" x="88.5" y="-85.5" font-family="Helvetica,sans-Serif" font-size="10.00">pdal/plugins/hexbin</text>
<text text-anchor="middle" x="130.5" y="-74.5" font-family="Helvetica,sans-Serif" font-size="10.00">/kernel/OGR.hpp</text>
</g>
<!-- Node2 -->
<g id="node2" class="node"><title>Node2</title>
<g id="a_node2"><a xlink:href="DensityKernel_8cpp.html" target="_top" xlink:title="pdal/plugins/hexbin\l/kernel/DensityKernel.cpp">
<polygon fill="white" stroke="black" points="0,-0.5 0,-30.5 129,-30.5 129,-0.5 0,-0.5"/>
<text text-anchor="start" x="8" y="-18.5" font-family="Helvetica,sans-Serif" font-size="10.00">pdal/plugins/hexbin</text>
<text text-anchor="middle" x="64.5" y="-7.5" font-family="Helvetica,sans-Serif" font-size="10.00">/kernel/DensityKernel.cpp</text>
</a>
</g>
</g>
<!-- Node1&#45;&gt;Node2 -->
<g id="edge1" class="edge"><title>Node1&#45;&gt;Node2</title>
<path fill="none" stroke="midnightblue" d="M108.985,-60.3115C99.0852,-50.5612 87.6092,-39.259 78.7931,-30.5765"/>
<polygon fill="midnightblue" stroke="midnightblue" points="106.598,-62.8728 116.179,-67.396 111.51,-57.8853 106.598,-62.8728"/>
</g>
<!-- Node3 -->
<g id="node3" class="node"><title>Node3</title>
<g id="a_node3"><a xlink:href="OGR_8cpp.html" target="_top" xlink:title="pdal/plugins/hexbin\l/kernel/OGR.cpp">
<polygon fill="white" stroke="black" points="147.5,-0.5 147.5,-30.5 247.5,-30.5 247.5,-0.5 147.5,-0.5"/>
<text text-anchor="start" x="155.5" y="-18.5" font-family="Helvetica,sans-Serif" font-size="10.00">pdal/plugins/hexbin</text>
<text text-anchor="middle" x="197.5" y="-7.5" font-family="Helvetica,sans-Serif" font-size="10.00">/kernel/OGR.cpp</text>
</a>
</g>
</g>
<!-- Node1&#45;&gt;Node3 -->
<g id="edge2" class="edge"><title>Node1&#45;&gt;Node3</title>
<path fill="none" stroke="midnightblue" d="M152.34,-60.3115C162.391,-50.5612 174.041,-39.259 182.99,-30.5765"/>
<polygon fill="midnightblue" stroke="midnightblue" points="149.778,-57.9207 145.038,-67.396 154.653,-62.9449 149.778,-57.9207"/>
</g>
</g>
</svg>
