<?xml version="1.0" encoding="UTF-8" standalone="no"?>
<!DOCTYPE svg PUBLIC "-//W3C//DTD SVG 1.1//EN"
 "http://www.w3.org/Graphics/SVG/1.1/DTD/svg11.dtd">
<!-- Generated by graphviz version 2.38.0 (20140413.2041)
 -->
<!-- Title: pdal/plugins/pcl/io/PcdCommon.hpp Pages: 1 -->
<svg width="216pt" height="173pt"
 viewBox="0.00 0.00 216.00 173.00" xmlns="http://www.w3.org/2000/svg" xmlns:xlink="http://www.w3.org/1999/xlink">
<g id="graph0" class="graph" transform="scale(1 1) rotate(0) translate(4 169)">
<title>pdal/plugins/pcl/io/PcdCommon.hpp</title>
<polygon fill="white" stroke="none" points="-4,4 -4,-169 212,-169 212,4 -4,4"/>
<!-- Node1 -->
<g id="node1" class="node"><title>Node1</title>
<polygon fill="#bfbfbf" stroke="black" points="56,-134.5 56,-164.5 151,-164.5 151,-134.5 56,-134.5"/>
<text text-anchor="start" x="64" y="-152.5" font-family="Helvetica,sans-Serif" font-size="10.00">pdal/plugins/pcl/io</text>
<text text-anchor="middle" x="103.5" y="-141.5" font-family="Helvetica,sans-Serif" font-size="10.00">/PcdCommon.hpp</text>
</g>
<!-- Node2 -->
<g id="node2" class="node"><title>Node2</title>
<g id="a_node2"><a xlink:href="PcdCommon_8cpp.html" target="_top" xlink:title="pdal/plugins/pcl/io\l/PcdCommon.cpp">
<polygon fill="white" stroke="black" points="0,-67.5 0,-97.5 95,-97.5 95,-67.5 0,-67.5"/>
<text text-anchor="start" x="8" y="-85.5" font-family="Helvetica,sans-Serif" font-size="10.00">pdal/plugins/pcl/io</text>
<text text-anchor="middle" x="47.5" y="-74.5" font-family="Helvetica,sans-Serif" font-size="10.00">/PcdCommon.cpp</text>
</a>
</g>
</g>
<!-- Node1&#45;&gt;Node2 -->
<g id="edge1" class="edge"><title>Node1&#45;&gt;Node2</title>
<path fill="none" stroke="midnightblue" d="M84.7496,-126.736C76.464,-117.119 66.9611,-106.089 59.6275,-97.5765"/>
<polygon fill="midnightblue" stroke="midnightblue" points="82.1701,-129.104 91.3488,-134.396 87.4733,-124.535 82.1701,-129.104"/>
</g>
<!-- Node3 -->
<g id="node3" class="node"><title>Node3</title>
<g id="a_node3"><a xlink:href="PcdReader_8hpp.html" target="_top" xlink:title="pdal/plugins/pcl/io\l/PcdReader.hpp">
<polygon fill="white" stroke="black" points="113,-67.5 113,-97.5 208,-97.5 208,-67.5 113,-67.5"/>
<text text-anchor="start" x="121" y="-85.5" font-family="Helvetica,sans-Serif" font-size="10.00">pdal/plugins/pcl/io</text>
<text text-anchor="middle" x="160.5" y="-74.5" font-family="Helvetica,sans-Serif" font-size="10.00">/PcdReader.hpp</text>
</a>
</g>
</g>
<!-- Node1&#45;&gt;Node3 -->
<g id="edge2" class="edge"><title>Node1&#45;&gt;Node3</title>
<path fill="none" stroke="midnightblue" d="M122.585,-126.736C131.019,-117.119 140.691,-106.089 148.156,-97.5765"/>
<polygon fill="midnightblue" stroke="midnightblue" points="119.83,-124.57 115.868,-134.396 125.093,-129.185 119.83,-124.57"/>
</g>
<!-- Node4 -->
<g id="node4" class="node"><title>Node4</title>
<g id="a_node4"><a xlink:href="PcdReader_8cpp.html" target="_top" xlink:title="pdal/plugins/pcl/io\l/PcdReader.cpp">
<polygon fill="white" stroke="black" points="113,-0.5 113,-30.5 208,-30.5 208,-0.5 113,-0.5"/>
<text text-anchor="start" x="121" y="-18.5" font-family="Helvetica,sans-Serif" font-size="10.00">pdal/plugins/pcl/io</text>
<text text-anchor="middle" x="160.5" y="-7.5" font-family="Helvetica,sans-Serif" font-size="10.00">/PcdReader.cpp</text>
</a>
</g>
</g>
<!-- Node3&#45;&gt;Node4 -->
<g id="edge3" class="edge"><title>Node3&#45;&gt;Node4</title>
<path fill="none" stroke="midnightblue" d="M160.5,-57.1081C160.5,-48.1539 160.5,-38.3227 160.5,-30.5765"/>
<polygon fill="midnightblue" stroke="midnightblue" points="157,-57.3959 160.5,-67.396 164,-57.396 157,-57.3959"/>
</g>
</g>
</svg>
