<?xml version="1.0" encoding="UTF-8" standalone="no"?>
<!DOCTYPE svg PUBLIC "-//W3C//DTD SVG 1.1//EN"
 "http://www.w3.org/Graphics/SVG/1.1/DTD/svg11.dtd">
<!-- Generated by graphviz version 2.38.0 (20140413.2041)
 -->
<!-- Title: pdal/plugins/pcl/pipeline/PCLPipeline.hpp Pages: 1 -->
<svg width="2390pt" height="352pt"
 viewBox="0.00 0.00 2389.85 352.00" xmlns="http://www.w3.org/2000/svg" xmlns:xlink="http://www.w3.org/1999/xlink">
<g id="graph0" class="graph" transform="scale(1 1) rotate(0) translate(4 348)">
<title>pdal/plugins/pcl/pipeline/PCLPipeline.hpp</title>
<polygon fill="white" stroke="none" points="-4,4 -4,-348 2385.85,-348 2385.85,4 -4,4"/>
<!-- Node1 -->
<g id="node1" class="node"><title>Node1</title>
<polygon fill="#bfbfbf" stroke="black" points="1058.5,-313.5 1058.5,-343.5 1178.5,-343.5 1178.5,-313.5 1058.5,-313.5"/>
<text text-anchor="start" x="1066.5" y="-331.5" font-family="Helvetica,sans-Serif" font-size="10.00">pdal/plugins/pcl/pipeline</text>
<text text-anchor="middle" x="1118.5" y="-320.5" font-family="Helvetica,sans-Serif" font-size="10.00">/PCLPipeline.hpp</text>
</g>
<!-- Node2 -->
<g id="node2" class="node"><title>Node2</title>
<polygon fill="white" stroke="#bfbfbf" points="0,-246.5 0,-265.5 59,-265.5 59,-246.5 0,-246.5"/>
<text text-anchor="middle" x="29.5" y="-253.5" font-family="Helvetica,sans-Serif" font-size="10.00">exception</text>
</g>
<!-- Node1&#45;&gt;Node2 -->
<g id="edge1" class="edge"><title>Node1&#45;&gt;Node2</title>
<path fill="none" stroke="midnightblue" d="M1058.22,-327.937C864.137,-328.821 257.166,-327.382 68.5,-277 62.8025,-275.479 56.9804,-273.045 51.6313,-270.392"/>
<polygon fill="midnightblue" stroke="midnightblue" points="53.1033,-267.209 42.6428,-265.527 49.7713,-273.365 53.1033,-267.209"/>
</g>
<!-- Node3 -->
<g id="node3" class="node"><title>Node3</title>
<polygon fill="white" stroke="#bfbfbf" points="77.5,-246.5 77.5,-265.5 179.5,-265.5 179.5,-246.5 77.5,-246.5"/>
<text text-anchor="middle" x="128.5" y="-253.5" font-family="Helvetica,sans-Serif" font-size="10.00">pcl/for_each_type.h</text>
</g>
<!-- Node1&#45;&gt;Node3 -->
<g id="edge2" class="edge"><title>Node1&#45;&gt;Node3</title>
<path fill="none" stroke="midnightblue" d="M1058.25,-326.33C879.819,-322.531 356.183,-308.901 188.5,-277 178.757,-275.146 168.419,-272.111 159.12,-268.958"/>
<polygon fill="midnightblue" stroke="midnightblue" points="160.108,-265.595 149.514,-265.542 157.763,-272.19 160.108,-265.595"/>
</g>
<!-- Node4 -->
<g id="node4" class="node"><title>Node4</title>
<polygon fill="white" stroke="#bfbfbf" points="197,-246.5 197,-265.5 286,-265.5 286,-246.5 197,-246.5"/>
<text text-anchor="middle" x="241.5" y="-253.5" font-family="Helvetica,sans-Serif" font-size="10.00">pcl/point_traits.h</text>
</g>
<!-- Node1&#45;&gt;Node4 -->
<g id="edge3" class="edge"><title>Node1&#45;&gt;Node4</title>
<path fill="none" stroke="midnightblue" d="M1058.21,-326.09C893.978,-321.883 441.255,-307.761 295.5,-277 287.016,-275.209 278.082,-272.336 269.977,-269.32"/>
<polygon fill="midnightblue" stroke="midnightblue" points="271.175,-266.03 260.588,-265.632 268.616,-272.546 271.175,-266.03"/>
</g>
<!-- Node5 -->
<g id="node5" class="node"><title>Node5</title>
<polygon fill="white" stroke="#bfbfbf" points="304,-246.5 304,-265.5 423,-265.5 423,-246.5 304,-246.5"/>
<text text-anchor="middle" x="363.5" y="-253.5" font-family="Helvetica,sans-Serif" font-size="10.00">pcl/common/common.h</text>
</g>
<!-- Node1&#45;&gt;Node5 -->
<g id="edge4" class="edge"><title>Node1&#45;&gt;Node5</title>
<path fill="none" stroke="midnightblue" d="M1058.33,-327.27C938.329,-325.889 661.109,-318.081 432.5,-277 421.128,-274.956 408.95,-271.773 398.04,-268.542"/>
<polygon fill="midnightblue" stroke="midnightblue" points="399.022,-265.182 388.435,-265.593 396.967,-271.874 399.022,-265.182"/>
</g>
<!-- Node6 -->
<g id="node6" class="node"><title>Node6</title>
<polygon fill="white" stroke="#bfbfbf" points="441.5,-246.5 441.5,-265.5 565.5,-265.5 565.5,-246.5 441.5,-246.5"/>
<text text-anchor="middle" x="503.5" y="-253.5" font-family="Helvetica,sans-Serif" font-size="10.00">pcl/features/normal_3d.h</text>
</g>
<!-- Node1&#45;&gt;Node6 -->
<g id="edge5" class="edge"><title>Node1&#45;&gt;Node6</title>
<path fill="none" stroke="midnightblue" d="M1058.44,-325.495C957.655,-321.335 748.424,-309.291 574.5,-277 562.932,-274.852 550.523,-271.67 539.365,-268.473"/>
<polygon fill="midnightblue" stroke="midnightblue" points="540.113,-265.044 529.531,-265.561 538.126,-271.756 540.113,-265.044"/>
</g>
<!-- Node7 -->
<g id="node7" class="node"><title>Node7</title>
<polygon fill="white" stroke="#bfbfbf" points="583.5,-241 583.5,-271 689.5,-271 689.5,-241 583.5,-241"/>
<text text-anchor="start" x="591.5" y="-259" font-family="Helvetica,sans-Serif" font-size="10.00">pcl/filters/conditional</text>
<text text-anchor="middle" x="636.5" y="-248" font-family="Helvetica,sans-Serif" font-size="10.00">_removal.h</text>
</g>
<!-- Node1&#45;&gt;Node7 -->
<g id="edge6" class="edge"><title>Node1&#45;&gt;Node7</title>
<path fill="none" stroke="midnightblue" d="M1058.43,-323.922C976.356,-318.21 824.937,-304.724 698.5,-277 694.399,-276.101 690.183,-275.042 685.972,-273.888"/>
<polygon fill="midnightblue" stroke="midnightblue" points="686.792,-270.482 676.213,-271.055 684.841,-277.204 686.792,-270.482"/>
</g>
<!-- Node8 -->
<g id="node8" class="node"><title>Node8</title>
<polygon fill="white" stroke="#bfbfbf" points="707,-241 707,-271 796,-271 796,-241 707,-241"/>
<text text-anchor="start" x="715" y="-259" font-family="Helvetica,sans-Serif" font-size="10.00">pcl/filters/extract</text>
<text text-anchor="middle" x="751.5" y="-248" font-family="Helvetica,sans-Serif" font-size="10.00">_indices.h</text>
</g>
<!-- Node1&#45;&gt;Node8 -->
<g id="edge7" class="edge"><title>Node1&#45;&gt;Node8</title>
<path fill="none" stroke="midnightblue" d="M1058.36,-321.321C994.802,-313.976 892,-299.764 805.5,-277 802.358,-276.173 799.143,-275.234 795.925,-274.224"/>
<polygon fill="midnightblue" stroke="midnightblue" points="796.923,-270.867 786.329,-271.025 794.709,-277.508 796.923,-270.867"/>
</g>
<!-- Node9 -->
<g id="node9" class="node"><title>Node9</title>
<polygon fill="white" stroke="#bfbfbf" points="814,-246.5 814,-265.5 935,-265.5 935,-246.5 814,-246.5"/>
<text text-anchor="middle" x="874.5" y="-253.5" font-family="Helvetica,sans-Serif" font-size="10.00">pcl/filters/passthrough.h</text>
</g>
<!-- Node1&#45;&gt;Node9 -->
<g id="edge8" class="edge"><title>Node1&#45;&gt;Node9</title>
<path fill="none" stroke="midnightblue" d="M1070,-313.487C1024.2,-300.253 956.354,-280.65 913.825,-268.362"/>
<polygon fill="midnightblue" stroke="midnightblue" points="914.687,-264.968 904.109,-265.555 912.744,-271.693 914.687,-264.968"/>
</g>
<!-- Node10 -->
<g id="node10" class="node"><title>Node10</title>
<polygon fill="white" stroke="#bfbfbf" points="953.5,-241 953.5,-271 1049.5,-271 1049.5,-241 953.5,-241"/>
<text text-anchor="start" x="961.5" y="-259" font-family="Helvetica,sans-Serif" font-size="10.00">pcl/filters/radius</text>
<text text-anchor="middle" x="1001.5" y="-248" font-family="Helvetica,sans-Serif" font-size="10.00">_outlier_removal.h</text>
</g>
<!-- Node1&#45;&gt;Node10 -->
<g id="edge9" class="edge"><title>Node1&#45;&gt;Node10</title>
<path fill="none" stroke="midnightblue" d="M1095.1,-313.403C1077.49,-302.788 1053.13,-288.112 1033.68,-276.391"/>
<polygon fill="midnightblue" stroke="midnightblue" points="1035.23,-273.236 1024.85,-271.073 1031.61,-279.232 1035.23,-273.236"/>
</g>
<!-- Node11 -->
<g id="node11" class="node"><title>Node11</title>
<polygon fill="white" stroke="#bfbfbf" points="1068,-241 1068,-271 1169,-271 1169,-241 1068,-241"/>
<text text-anchor="start" x="1076" y="-259" font-family="Helvetica,sans-Serif" font-size="10.00">pcl/filters/statistical</text>
<text text-anchor="middle" x="1118.5" y="-248" font-family="Helvetica,sans-Serif" font-size="10.00">_outlier_removal.h</text>
</g>
<!-- Node1&#45;&gt;Node11 -->
<g id="edge10" class="edge"><title>Node1&#45;&gt;Node11</title>
<path fill="none" stroke="midnightblue" d="M1118.5,-313.233C1118.5,-304.155 1118.5,-292.158 1118.5,-281.577"/>
<polygon fill="midnightblue" stroke="midnightblue" points="1122,-281.245 1118.5,-271.246 1115,-281.246 1122,-281.245"/>
</g>
<!-- Node12 -->
<g id="node12" class="node"><title>Node12</title>
<polygon fill="white" stroke="#bfbfbf" points="1187.5,-246.5 1187.5,-265.5 1299.5,-265.5 1299.5,-246.5 1187.5,-246.5"/>
<text text-anchor="middle" x="1243.5" y="-253.5" font-family="Helvetica,sans-Serif" font-size="10.00">pcl/filters/voxel_grid.h</text>
</g>
<!-- Node1&#45;&gt;Node12 -->
<g id="edge11" class="edge"><title>Node1&#45;&gt;Node12</title>
<path fill="none" stroke="midnightblue" d="M1143.5,-313.403C1165.59,-300.942 1197.61,-282.884 1219.42,-270.581"/>
<polygon fill="midnightblue" stroke="midnightblue" points="1221.38,-273.495 1228.37,-265.534 1217.94,-267.398 1221.38,-273.495"/>
</g>
<!-- Node13 -->
<g id="node13" class="node"><title>Node13</title>
<polygon fill="white" stroke="#bfbfbf" points="1317.5,-246.5 1317.5,-265.5 1445.5,-265.5 1445.5,-246.5 1317.5,-246.5"/>
<text text-anchor="middle" x="1381.5" y="-253.5" font-family="Helvetica,sans-Serif" font-size="10.00">pcl/filters/grid_minimum.h</text>
</g>
<!-- Node1&#45;&gt;Node13 -->
<g id="edge12" class="edge"><title>Node1&#45;&gt;Node13</title>
<path fill="none" stroke="midnightblue" d="M1171.76,-313.459C1209.87,-303.386 1262.37,-289.45 1308.5,-277 1318.98,-274.172 1330.3,-271.087 1340.82,-268.204"/>
<polygon fill="midnightblue" stroke="midnightblue" points="1341.89,-271.539 1350.61,-265.519 1340.04,-264.788 1341.89,-271.539"/>
</g>
<!-- Node14 -->
<g id="node14" class="node"><title>Node14</title>
<polygon fill="white" stroke="#bfbfbf" points="1463.5,-246.5 1463.5,-265.5 1565.5,-265.5 1565.5,-246.5 1463.5,-246.5"/>
<text text-anchor="middle" x="1514.5" y="-253.5" font-family="Helvetica,sans-Serif" font-size="10.00">pcl/search/search.h</text>
</g>
<!-- Node1&#45;&gt;Node14 -->
<g id="edge13" class="edge"><title>Node1&#45;&gt;Node14</title>
<path fill="none" stroke="midnightblue" d="M1178.58,-321.634C1246.27,-314.296 1359.28,-299.845 1454.5,-277 1463.65,-274.804 1473.41,-271.835 1482.33,-268.858"/>
<polygon fill="midnightblue" stroke="midnightblue" points="1483.66,-272.102 1491.97,-265.534 1481.38,-265.484 1483.66,-272.102"/>
</g>
<!-- Node15 -->
<g id="node15" class="node"><title>Node15</title>
<polygon fill="white" stroke="#bfbfbf" points="1584,-235.5 1584,-276.5 1731,-276.5 1731,-235.5 1584,-235.5"/>
<text text-anchor="start" x="1592" y="-264.5" font-family="Helvetica,sans-Serif" font-size="10.00">pcl/segmentation/approximate</text>
<text text-anchor="start" x="1592" y="-253.5" font-family="Helvetica,sans-Serif" font-size="10.00">_progressive_morphological</text>
<text text-anchor="middle" x="1657.5" y="-242.5" font-family="Helvetica,sans-Serif" font-size="10.00">_filter.h</text>
</g>
<!-- Node1&#45;&gt;Node15 -->
<g id="edge14" class="edge"><title>Node1&#45;&gt;Node15</title>
<path fill="none" stroke="midnightblue" d="M1178.6,-323.274C1264.18,-316.719 1426.19,-302.329 1573.69,-277.023"/>
<polygon fill="midnightblue" stroke="midnightblue" points="1574.58,-280.421 1583.83,-275.261 1573.38,-273.524 1574.58,-280.421"/>
</g>
<!-- Node16 -->
<g id="node16" class="node"><title>Node16</title>
<polygon fill="white" stroke="#bfbfbf" points="1749.5,-241 1749.5,-271 1893.5,-271 1893.5,-241 1749.5,-241"/>
<text text-anchor="start" x="1757.5" y="-259" font-family="Helvetica,sans-Serif" font-size="10.00">pcl/segmentation/progressive</text>
<text text-anchor="middle" x="1821.5" y="-248" font-family="Helvetica,sans-Serif" font-size="10.00">_morphological_filter.h</text>
</g>
<!-- Node1&#45;&gt;Node16 -->
<g id="edge15" class="edge"><title>Node1&#45;&gt;Node16</title>
<path fill="none" stroke="midnightblue" d="M1178.93,-325.823C1290.55,-322.013 1536.26,-310.283 1740.5,-277 1746.79,-275.976 1753.3,-274.713 1759.78,-273.325"/>
<polygon fill="midnightblue" stroke="midnightblue" points="1760.91,-276.659 1769.9,-271.055 1759.38,-269.828 1760.91,-276.659"/>
</g>
<!-- Node17 -->
<g id="node17" class="node"><title>Node17</title>
<polygon fill="white" stroke="#bfbfbf" points="1911.5,-246.5 1911.5,-265.5 2003.5,-265.5 2003.5,-246.5 1911.5,-246.5"/>
<text text-anchor="middle" x="1957.5" y="-253.5" font-family="Helvetica,sans-Serif" font-size="10.00">pcl/surface/mls.h</text>
</g>
<!-- Node1&#45;&gt;Node17 -->
<g id="edge16" class="edge"><title>Node1&#45;&gt;Node17</title>
<path fill="none" stroke="midnightblue" d="M1178.77,-325.831C1337.53,-321.083 1764.42,-305.933 1902.5,-277 1911.29,-275.158 1920.57,-272.203 1928.95,-269.123"/>
<polygon fill="midnightblue" stroke="midnightblue" points="1930.23,-272.382 1938.29,-265.51 1927.7,-265.853 1930.23,-272.382"/>
</g>
<!-- Node18 -->
<g id="node18" class="node"><title>Node18</title>
<g id="a_node18"><a xlink:href="PCLPipeline_8h.html" target="_top" xlink:title="PCLPipeline.h">
<polygon fill="white" stroke="black" points="2110,-246.5 2110,-265.5 2189,-265.5 2189,-246.5 2110,-246.5"/>
<text text-anchor="middle" x="2149.5" y="-253.5" font-family="Helvetica,sans-Serif" font-size="10.00">PCLPipeline.h</text>
</a>
</g>
</g>
<!-- Node1&#45;&gt;Node18 -->
<g id="edge17" class="edge"><title>Node1&#45;&gt;Node18</title>
<path fill="none" stroke="midnightblue" d="M1178.67,-327.041C1326.69,-325.3 1720.15,-316.958 2045.5,-277 2063.96,-274.733 2084.07,-271.135 2101.64,-267.612"/>
<polygon fill="midnightblue" stroke="midnightblue" points="2102.57,-270.994 2111.66,-265.557 2101.16,-264.137 2102.57,-270.994"/>
</g>
<!-- Node28 -->
<g id="node28" class="node"><title>Node28</title>
<g id="a_node28"><a xlink:href="Utils_8hpp.html" target="_top" xlink:title="pdal/util/Utils.hpp">
<polygon fill="white" stroke="black" points="1692.5,-112.5 1692.5,-131.5 1784.5,-131.5 1784.5,-112.5 1692.5,-112.5"/>
<text text-anchor="middle" x="1738.5" y="-119.5" font-family="Helvetica,sans-Serif" font-size="10.00">pdal/util/Utils.hpp</text>
</a>
</g>
</g>
<!-- Node1&#45;&gt;Node28 -->
<g id="edge53" class="edge"><title>Node1&#45;&gt;Node28</title>
<path fill="none" stroke="midnightblue" d="M1178.76,-326.344C1374.87,-322.293 1983.85,-307.311 2012.5,-277 2084.52,-200.796 1894.06,-152.226 1794.57,-132.739"/>
<polygon fill="midnightblue" stroke="midnightblue" points="1795.14,-129.284 1784.66,-130.835 1793.82,-136.159 1795.14,-129.284"/>
</g>
<!-- Node46 -->
<g id="node46" class="node"><title>Node46</title>
<polygon fill="white" stroke="#bfbfbf" points="2315.5,-174 2315.5,-193 2379.5,-193 2379.5,-174 2315.5,-174"/>
<text text-anchor="middle" x="2347.5" y="-181" font-family="Helvetica,sans-Serif" font-size="10.00">json/json.h</text>
</g>
<!-- Node1&#45;&gt;Node46 -->
<g id="edge54" class="edge"><title>Node1&#45;&gt;Node46</title>
<path fill="none" stroke="midnightblue" d="M1178.55,-326.458C1391.23,-322.524 2101.14,-307.24 2198.5,-277 2250.75,-260.772 2303.06,-221.753 2329.6,-199.932"/>
<polygon fill="midnightblue" stroke="midnightblue" points="2332.16,-202.354 2337.58,-193.249 2327.66,-196.989 2332.16,-202.354"/>
</g>
<!-- Node19 -->
<g id="node19" class="node"><title>Node19</title>
<polygon fill="white" stroke="#bfbfbf" points="2031.5,-56.5 2031.5,-75.5 2083.5,-75.5 2083.5,-56.5 2031.5,-56.5"/>
<text text-anchor="middle" x="2057.5" y="-63.5" font-family="Helvetica,sans-Serif" font-size="10.00">memory</text>
</g>
<!-- Node18&#45;&gt;Node19 -->
<g id="edge18" class="edge"><title>Node18&#45;&gt;Node19</title>
<path fill="none" stroke="midnightblue" d="M2136.14,-246.386C2122.09,-236.609 2100.41,-219.35 2088.5,-199 2067.27,-162.717 2060.57,-112.824 2058.47,-85.9629"/>
<polygon fill="midnightblue" stroke="midnightblue" points="2061.94,-85.4226 2057.8,-75.6699 2054.95,-85.8753 2061.94,-85.4226"/>
</g>
<!-- Node20 -->
<g id="node20" class="node"><title>Node20</title>
<g id="a_node20"><a xlink:href="pdal__types_8hpp.html" target="_top" xlink:title="pdal/pdal_types.hpp">
<polygon fill="white" stroke="black" points="2097.5,-174 2097.5,-193 2201.5,-193 2201.5,-174 2097.5,-174"/>
<text text-anchor="middle" x="2149.5" y="-181" font-family="Helvetica,sans-Serif" font-size="10.00">pdal/pdal_types.hpp</text>
</a>
</g>
</g>
<!-- Node18&#45;&gt;Node20 -->
<g id="edge19" class="edge"><title>Node18&#45;&gt;Node20</title>
<path fill="none" stroke="midnightblue" d="M2149.5,-246.355C2149.5,-235.679 2149.5,-217.217 2149.5,-203.234"/>
<polygon fill="midnightblue" stroke="midnightblue" points="2153,-203.215 2149.5,-193.215 2146,-203.215 2153,-203.215"/>
</g>
<!-- Node45 -->
<g id="node45" class="node"><title>Node45</title>
<polygon fill="white" stroke="#bfbfbf" points="2219.5,-168.5 2219.5,-198.5 2297.5,-198.5 2297.5,-168.5 2219.5,-168.5"/>
<text text-anchor="start" x="2227.5" y="-186.5" font-family="Helvetica,sans-Serif" font-size="10.00">pcl/filters/filter</text>
<text text-anchor="middle" x="2258.5" y="-175.5" font-family="Helvetica,sans-Serif" font-size="10.00">_indices.h</text>
</g>
<!-- Node18&#45;&gt;Node45 -->
<g id="edge51" class="edge"><title>Node18&#45;&gt;Node45</title>
<path fill="none" stroke="midnightblue" d="M2162.87,-246.355C2179.05,-235.885 2206.82,-217.927 2228.27,-204.05"/>
<polygon fill="midnightblue" stroke="midnightblue" points="2230.24,-206.946 2236.74,-198.576 2226.44,-201.068 2230.24,-206.946"/>
</g>
<!-- Node18&#45;&gt;Node46 -->
<g id="edge52" class="edge"><title>Node18&#45;&gt;Node46</title>
<path fill="none" stroke="midnightblue" d="M2173.38,-246.496C2208.47,-234.004 2274.08,-210.641 2313.98,-196.436"/>
<polygon fill="midnightblue" stroke="midnightblue" points="2315.29,-199.686 2323.53,-193.034 2312.94,-193.091 2315.29,-199.686"/>
</g>
<!-- Node21 -->
<g id="node21" class="node"><title>Node21</title>
<polygon fill="white" stroke="#bfbfbf" points="2214,-112.5 2214,-131.5 2263,-131.5 2263,-112.5 2214,-112.5"/>
<text text-anchor="middle" x="2238.5" y="-119.5" font-family="Helvetica,sans-Serif" font-size="10.00">stdint.h</text>
</g>
<!-- Node20&#45;&gt;Node21 -->
<g id="edge20" class="edge"><title>Node20&#45;&gt;Node21</title>
<path fill="none" stroke="midnightblue" d="M2162.25,-173.975C2176.53,-164.431 2199.9,-148.807 2217.01,-137.368"/>
<polygon fill="midnightblue" stroke="midnightblue" points="2219.4,-139.977 2225.77,-131.509 2215.51,-134.157 2219.4,-139.977"/>
</g>
<!-- Node22 -->
<g id="node22" class="node"><title>Node22</title>
<polygon fill="white" stroke="#bfbfbf" points="2320,-112.5 2320,-131.5 2365,-131.5 2365,-112.5 2320,-112.5"/>
<text text-anchor="middle" x="2342.5" y="-119.5" font-family="Helvetica,sans-Serif" font-size="10.00">cstdlib</text>
</g>
<!-- Node20&#45;&gt;Node22 -->
<g id="edge21" class="edge"><title>Node20&#45;&gt;Node22</title>
<path fill="none" stroke="midnightblue" d="M2177.15,-173.975C2212.21,-163.166 2272.57,-144.558 2309.86,-133.063"/>
<polygon fill="midnightblue" stroke="midnightblue" points="2311.2,-136.313 2319.72,-130.022 2309.13,-129.624 2311.2,-136.313"/>
</g>
<!-- Node23 -->
<g id="node23" class="node"><title>Node23</title>
<polygon fill="white" stroke="#bfbfbf" points="2164,-56.5 2164,-75.5 2213,-75.5 2213,-56.5 2164,-56.5"/>
<text text-anchor="middle" x="2188.5" y="-63.5" font-family="Helvetica,sans-Serif" font-size="10.00">istream</text>
</g>
<!-- Node20&#45;&gt;Node23 -->
<g id="edge22" class="edge"><title>Node20&#45;&gt;Node23</title>
<path fill="none" stroke="midnightblue" d="M2152.05,-173.764C2155.99,-160.388 2163.9,-134.062 2171.5,-112 2174.56,-103.106 2178.22,-93.3268 2181.36,-85.1631"/>
<polygon fill="midnightblue" stroke="midnightblue" points="2184.73,-86.1609 2185.09,-75.5722 2178.2,-83.6241 2184.73,-86.1609"/>
</g>
<!-- Node24 -->
<g id="node24" class="node"><title>Node24</title>
<polygon fill="white" stroke="#bfbfbf" points="2231,-56.5 2231,-75.5 2290,-75.5 2290,-56.5 2231,-56.5"/>
<text text-anchor="middle" x="2260.5" y="-63.5" font-family="Helvetica,sans-Serif" font-size="10.00">stdexcept</text>
</g>
<!-- Node20&#45;&gt;Node24 -->
<g id="edge23" class="edge"><title>Node20&#45;&gt;Node24</title>
<path fill="none" stroke="midnightblue" d="M2155.51,-173.768C2165.21,-159.942 2185.31,-132.484 2205.5,-112 2216.3,-101.045 2229.62,-90.0881 2240.45,-81.7286"/>
<polygon fill="midnightblue" stroke="midnightblue" points="2242.65,-84.4576 2248.51,-75.6312 2238.42,-78.8764 2242.65,-84.4576"/>
</g>
<!-- Node25 -->
<g id="node25" class="node"><title>Node25</title>
<polygon fill="white" stroke="#bfbfbf" points="2308,-56.5 2308,-75.5 2349,-75.5 2349,-56.5 2308,-56.5"/>
<text text-anchor="middle" x="2328.5" y="-63.5" font-family="Helvetica,sans-Serif" font-size="10.00">string</text>
</g>
<!-- Node20&#45;&gt;Node25 -->
<g id="edge24" class="edge"><title>Node20&#45;&gt;Node25</title>
<path fill="none" stroke="midnightblue" d="M2181.38,-173.95C2207.51,-165.921 2244.6,-152.114 2272.5,-132 2290.74,-118.853 2306.94,-98.6128 2317.16,-84.2144"/>
<polygon fill="midnightblue" stroke="midnightblue" points="2320.21,-85.9562 2322.98,-75.7293 2314.44,-81.9978 2320.21,-85.9562"/>
</g>
<!-- Node26 -->
<g id="node26" class="node"><title>Node26</title>
<polygon fill="white" stroke="#bfbfbf" points="2101.5,-56.5 2101.5,-75.5 2145.5,-75.5 2145.5,-56.5 2101.5,-56.5"/>
<text text-anchor="middle" x="2123.5" y="-63.5" font-family="Helvetica,sans-Serif" font-size="10.00">vector</text>
</g>
<!-- Node20&#45;&gt;Node26 -->
<g id="edge25" class="edge"><title>Node20&#45;&gt;Node26</title>
<path fill="none" stroke="midnightblue" d="M2146.25,-173.676C2142.67,-163.686 2136.98,-146.866 2133.5,-132 2129.92,-116.694 2127.3,-99.0523 2125.64,-86.0134"/>
<polygon fill="midnightblue" stroke="midnightblue" points="2129.09,-85.427 2124.43,-75.9143 2122.14,-86.2596 2129.09,-85.427"/>
</g>
<!-- Node27 -->
<g id="node27" class="node"><title>Node27</title>
<polygon fill="white" stroke="#bfbfbf" points="1263.5,-0.5 1263.5,-19.5 1317.5,-19.5 1317.5,-0.5 1263.5,-0.5"/>
<text text-anchor="middle" x="1290.5" y="-7.5" font-family="Helvetica,sans-Serif" font-size="10.00">iostream</text>
</g>
<!-- Node20&#45;&gt;Node27 -->
<g id="edge26" class="edge"><title>Node20&#45;&gt;Node27</title>
<path fill="none" stroke="midnightblue" d="M2184.96,-173.962C2193.33,-171.977 2202.22,-169.892 2210.5,-168 2283.25,-151.371 2327.73,-190.15 2374.5,-132 2389.47,-113.387 2378.32,-71.6157 2358.5,-56 2317.21,-23.467 1512.16,-13.2694 1327.86,-11.3568"/>
<polygon fill="midnightblue" stroke="midnightblue" points="1327.63,-7.85434 1317.6,-11.2522 1327.56,-14.854 1327.63,-7.85434"/>
</g>
<!-- Node20&#45;&gt;Node28 -->
<g id="edge27" class="edge"><title>Node20&#45;&gt;Node28</title>
<path fill="none" stroke="midnightblue" d="M2097.45,-174.964C2020.03,-163.757 1875.11,-142.776 1795.12,-131.197"/>
<polygon fill="midnightblue" stroke="midnightblue" points="1795.15,-127.665 1784.76,-129.696 1794.15,-134.593 1795.15,-127.665"/>
</g>
<!-- Node28&#45;&gt;Node19 -->
<g id="edge39" class="edge"><title>Node28&#45;&gt;Node19</title>
<path fill="none" stroke="midnightblue" d="M1784.98,-115.009C1839.39,-107.693 1932.38,-94.2442 2021.22,-76.1092"/>
<polygon fill="midnightblue" stroke="midnightblue" points="2022.1,-79.5001 2031.19,-74.05 2020.69,-72.6448 2022.1,-79.5001"/>
</g>
<!-- Node28&#45;&gt;Node23 -->
<g id="edge36" class="edge"><title>Node28&#45;&gt;Node23</title>
<path fill="none" stroke="midnightblue" d="M1784.69,-118.29C1860.01,-113.373 2014.03,-101.243 2153.69,-75.8729"/>
<polygon fill="midnightblue" stroke="midnightblue" points="2154.52,-79.279 2163.72,-74.0233 2153.25,-72.3951 2154.52,-79.279"/>
</g>
<!-- Node28&#45;&gt;Node24 -->
<g id="edge41" class="edge"><title>Node28&#45;&gt;Node24</title>
<path fill="none" stroke="midnightblue" d="M1784.82,-118.853C1869.53,-114.459 2055.21,-102.664 2220.36,-76.1561"/>
<polygon fill="midnightblue" stroke="midnightblue" points="2221.4,-79.5333 2230.71,-74.4717 2220.28,-72.6242 2221.4,-79.5333"/>
</g>
<!-- Node28&#45;&gt;Node25 -->
<g id="edge42" class="edge"><title>Node28&#45;&gt;Node25</title>
<path fill="none" stroke="midnightblue" d="M1784.78,-120.728C1879.73,-119.432 2103.39,-112.584 2297.91,-75.9301"/>
<polygon fill="midnightblue" stroke="midnightblue" points="2298.57,-79.3669 2307.73,-74.0481 2297.25,-72.4918 2298.57,-79.3669"/>
</g>
<!-- Node28&#45;&gt;Node26 -->
<g id="edge45" class="edge"><title>Node28&#45;&gt;Node26</title>
<path fill="none" stroke="midnightblue" d="M1784.7,-117.444C1850.73,-111.856 1975.96,-99.3792 2091.2,-75.9831"/>
<polygon fill="midnightblue" stroke="midnightblue" points="2092.17,-79.3581 2101.25,-73.9095 2090.75,-72.5026 2092.17,-79.3581"/>
</g>
<!-- Node28&#45;&gt;Node27 -->
<g id="edge46" class="edge"><title>Node28&#45;&gt;Node27</title>
<path fill="none" stroke="midnightblue" d="M1692.26,-119.072C1587.19,-114.281 1337.36,-100.43 1308.5,-76 1295.25,-64.7867 1291.31,-44.7688 1290.34,-29.9006"/>
<polygon fill="midnightblue" stroke="midnightblue" points="1293.84,-29.6695 1290.07,-19.7657 1286.84,-29.8548 1293.84,-29.6695"/>
</g>
<!-- Node29 -->
<g id="node29" class="node"><title>Node29</title>
<polygon fill="white" stroke="#bfbfbf" points="1317.5,-56.5 1317.5,-75.5 1373.5,-75.5 1373.5,-56.5 1317.5,-56.5"/>
<text text-anchor="middle" x="1345.5" y="-63.5" font-family="Helvetica,sans-Serif" font-size="10.00">algorithm</text>
</g>
<!-- Node28&#45;&gt;Node29 -->
<g id="edge28" class="edge"><title>Node28&#45;&gt;Node29</title>
<path fill="none" stroke="midnightblue" d="M1692.31,-116.73C1624.34,-110.09 1493.53,-95.9455 1383.5,-76 1383.4,-75.9819 1383.3,-75.9636 1383.2,-75.9453"/>
<polygon fill="midnightblue" stroke="midnightblue" points="1384.15,-72.5658 1373.65,-74.0199 1382.76,-79.4277 1384.15,-72.5658"/>
</g>
<!-- Node30 -->
<g id="node30" class="node"><title>Node30</title>
<polygon fill="white" stroke="#bfbfbf" points="1392,-56.5 1392,-75.5 1441,-75.5 1441,-56.5 1392,-56.5"/>
<text text-anchor="middle" x="1416.5" y="-63.5" font-family="Helvetica,sans-Serif" font-size="10.00">cassert</text>
</g>
<!-- Node28&#45;&gt;Node30 -->
<g id="edge29" class="edge"><title>Node28&#45;&gt;Node30</title>
<path fill="none" stroke="midnightblue" d="M1692.34,-115.29C1637.25,-108.143 1542.17,-94.7593 1451.23,-75.9622"/>
<polygon fill="midnightblue" stroke="midnightblue" points="1451.82,-72.5084 1441.31,-73.8859 1450.38,-79.36 1451.82,-72.5084"/>
</g>
<!-- Node31 -->
<g id="node31" class="node"><title>Node31</title>
<polygon fill="white" stroke="#bfbfbf" points="1459.5,-56.5 1459.5,-75.5 1505.5,-75.5 1505.5,-56.5 1459.5,-56.5"/>
<text text-anchor="middle" x="1482.5" y="-63.5" font-family="Helvetica,sans-Serif" font-size="10.00">cctype</text>
</g>
<!-- Node28&#45;&gt;Node31 -->
<g id="edge30" class="edge"><title>Node28&#45;&gt;Node31</title>
<path fill="none" stroke="midnightblue" d="M1692.37,-112.792C1649.06,-104.848 1582.25,-91.9896 1515.38,-76.0698"/>
<polygon fill="midnightblue" stroke="midnightblue" points="1516.06,-72.6329 1505.52,-73.699 1514.42,-79.4391 1516.06,-72.6329"/>
</g>
<!-- Node32 -->
<g id="node32" class="node"><title>Node32</title>
<polygon fill="white" stroke="#bfbfbf" points="1523.5,-56.5 1523.5,-75.5 1567.5,-75.5 1567.5,-56.5 1523.5,-56.5"/>
<text text-anchor="middle" x="1545.5" y="-63.5" font-family="Helvetica,sans-Serif" font-size="10.00">cmath</text>
</g>
<!-- Node28&#45;&gt;Node32 -->
<g id="edge31" class="edge"><title>Node28&#45;&gt;Node32</title>
<path fill="none" stroke="midnightblue" d="M1707.41,-112.48C1676.75,-104.052 1628.31,-90.6664 1577.38,-76.227"/>
<polygon fill="midnightblue" stroke="midnightblue" points="1578.08,-72.7881 1567.51,-73.4231 1576.17,-79.5219 1578.08,-72.7881"/>
</g>
<!-- Node33 -->
<g id="node33" class="node"><title>Node33</title>
<polygon fill="white" stroke="#bfbfbf" points="1585.5,-56.5 1585.5,-75.5 1631.5,-75.5 1631.5,-56.5 1585.5,-56.5"/>
<text text-anchor="middle" x="1608.5" y="-63.5" font-family="Helvetica,sans-Serif" font-size="10.00">cstdint</text>
</g>
<!-- Node28&#45;&gt;Node33 -->
<g id="edge32" class="edge"><title>Node28&#45;&gt;Node33</title>
<path fill="none" stroke="midnightblue" d="M1717.9,-112.444C1696.51,-103.557 1662.82,-89.5632 1638.48,-79.4514"/>
<polygon fill="midnightblue" stroke="midnightblue" points="1639.58,-76.1203 1629,-75.5164 1636.89,-82.5848 1639.58,-76.1203"/>
</g>
<!-- Node34 -->
<g id="node34" class="node"><title>Node34</title>
<polygon fill="white" stroke="#bfbfbf" points="1649.5,-56.5 1649.5,-75.5 1695.5,-75.5 1695.5,-56.5 1649.5,-56.5"/>
<text text-anchor="middle" x="1672.5" y="-63.5" font-family="Helvetica,sans-Serif" font-size="10.00">cstring</text>
</g>
<!-- Node28&#45;&gt;Node34 -->
<g id="edge33" class="edge"><title>Node28&#45;&gt;Node34</title>
<path fill="none" stroke="midnightblue" d="M1727.9,-112.324C1718.04,-104.263 1703.15,-92.0765 1691.28,-82.3695"/>
<polygon fill="midnightblue" stroke="midnightblue" points="1693.25,-79.4575 1683.3,-75.8339 1688.82,-84.8752 1693.25,-79.4575"/>
</g>
<!-- Node35 -->
<g id="node35" class="node"><title>Node35</title>
<polygon fill="white" stroke="#bfbfbf" points="1713.5,-56.5 1713.5,-75.5 1763.5,-75.5 1763.5,-56.5 1713.5,-56.5"/>
<text text-anchor="middle" x="1738.5" y="-63.5" font-family="Helvetica,sans-Serif" font-size="10.00">fstream</text>
</g>
<!-- Node28&#45;&gt;Node35 -->
<g id="edge34" class="edge"><title>Node28&#45;&gt;Node35</title>
<path fill="none" stroke="midnightblue" d="M1738.5,-112.083C1738.5,-105.006 1738.5,-94.8611 1738.5,-85.9865"/>
<polygon fill="midnightblue" stroke="midnightblue" points="1742,-85.751 1738.5,-75.7511 1735,-85.7511 1742,-85.751"/>
</g>
<!-- Node36 -->
<g id="node36" class="node"><title>Node36</title>
<polygon fill="white" stroke="#bfbfbf" points="1781.5,-56.5 1781.5,-75.5 1831.5,-75.5 1831.5,-56.5 1781.5,-56.5"/>
<text text-anchor="middle" x="1806.5" y="-63.5" font-family="Helvetica,sans-Serif" font-size="10.00">iomanip</text>
</g>
<!-- Node28&#45;&gt;Node36 -->
<g id="edge35" class="edge"><title>Node28&#45;&gt;Node36</title>
<path fill="none" stroke="midnightblue" d="M1749.43,-112.324C1759.67,-104.185 1775.22,-91.8395 1787.5,-82.0874"/>
<polygon fill="midnightblue" stroke="midnightblue" points="1789.72,-84.7937 1795.38,-75.8339 1785.37,-79.3119 1789.72,-84.7937"/>
</g>
<!-- Node37 -->
<g id="node37" class="node"><title>Node37</title>
<polygon fill="white" stroke="#bfbfbf" points="1849.5,-56.5 1849.5,-75.5 1889.5,-75.5 1889.5,-56.5 1849.5,-56.5"/>
<text text-anchor="middle" x="1869.5" y="-63.5" font-family="Helvetica,sans-Serif" font-size="10.00">limits</text>
</g>
<!-- Node28&#45;&gt;Node37 -->
<g id="edge37" class="edge"><title>Node28&#45;&gt;Node37</title>
<path fill="none" stroke="midnightblue" d="M1759.26,-112.444C1780.94,-103.504 1815.16,-89.3984 1839.73,-79.2734"/>
<polygon fill="midnightblue" stroke="midnightblue" points="1841.36,-82.386 1849.27,-75.339 1838.69,-75.9142 1841.36,-82.386"/>
</g>
<!-- Node38 -->
<g id="node38" class="node"><title>Node38</title>
<polygon fill="white" stroke="#bfbfbf" points="1908,-56.5 1908,-75.5 1943,-75.5 1943,-56.5 1908,-56.5"/>
<text text-anchor="middle" x="1925.5" y="-63.5" font-family="Helvetica,sans-Serif" font-size="10.00">map</text>
</g>
<!-- Node28&#45;&gt;Node38 -->
<g id="edge38" class="edge"><title>Node28&#45;&gt;Node38</title>
<path fill="none" stroke="midnightblue" d="M1770.51,-112.48C1800.94,-104.272 1848.2,-91.2521 1898.14,-76.0027"/>
<polygon fill="midnightblue" stroke="midnightblue" points="1899.29,-79.31 1907.82,-73.0272 1897.23,-72.6187 1899.29,-79.31"/>
</g>
<!-- Node39 -->
<g id="node39" class="node"><title>Node39</title>
<polygon fill="white" stroke="#bfbfbf" points="1961.5,-56.5 1961.5,-75.5 2013.5,-75.5 2013.5,-56.5 1961.5,-56.5"/>
<text text-anchor="middle" x="1987.5" y="-63.5" font-family="Helvetica,sans-Serif" font-size="10.00">sstream</text>
</g>
<!-- Node28&#45;&gt;Node39 -->
<g id="edge40" class="edge"><title>Node28&#45;&gt;Node39</title>
<path fill="none" stroke="midnightblue" d="M1782.07,-112.428C1823.29,-104.188 1887.11,-91.0887 1951.28,-76.2121"/>
<polygon fill="midnightblue" stroke="midnightblue" points="1952.21,-79.5872 1961.16,-73.9074 1950.62,-72.7702 1952.21,-79.5872"/>
</g>
<!-- Node40 -->
<g id="node40" class="node"><title>Node40</title>
<polygon fill="white" stroke="#bfbfbf" points="898,-56.5 898,-75.5 949,-75.5 949,-56.5 898,-56.5"/>
<text text-anchor="middle" x="923.5" y="-63.5" font-family="Helvetica,sans-Serif" font-size="10.00">typeinfo</text>
</g>
<!-- Node28&#45;&gt;Node40 -->
<g id="edge43" class="edge"><title>Node28&#45;&gt;Node40</title>
<path fill="none" stroke="midnightblue" d="M1692.45,-121.447C1572.83,-121.946 1242.45,-119.111 959.425,-75.8082"/>
<polygon fill="midnightblue" stroke="midnightblue" points="959.795,-72.3239 949.377,-74.2507 958.723,-79.2413 959.795,-72.3239"/>
</g>
<!-- Node41 -->
<g id="node41" class="node"><title>Node41</title>
<polygon fill="white" stroke="#bfbfbf" points="967.5,-56.5 967.5,-75.5 1029.5,-75.5 1029.5,-56.5 967.5,-56.5"/>
<text text-anchor="middle" x="998.5" y="-63.5" font-family="Helvetica,sans-Serif" font-size="10.00">type_traits</text>
</g>
<!-- Node28&#45;&gt;Node41 -->
<g id="edge44" class="edge"><title>Node28&#45;&gt;Node41</title>
<path fill="none" stroke="midnightblue" d="M1692.38,-120.535C1581.46,-118.881 1290.99,-111.373 1039.9,-75.9779"/>
<polygon fill="midnightblue" stroke="midnightblue" points="1040.25,-72.4928 1029.86,-74.5443 1039.26,-79.4226 1040.25,-72.4928"/>
</g>
<!-- Node42 -->
<g id="node42" class="node"><title>Node42</title>
<g id="a_node42"><a xlink:href="NullOStream_8hpp.html" target="_top" xlink:title="NullOStream.hpp">
<polygon fill="white" stroke="black" points="1169.5,-56.5 1169.5,-75.5 1261.5,-75.5 1261.5,-56.5 1169.5,-56.5"/>
<text text-anchor="middle" x="1215.5" y="-63.5" font-family="Helvetica,sans-Serif" font-size="10.00">NullOStream.hpp</text>
</a>
</g>
</g>
<!-- Node28&#45;&gt;Node42 -->
<g id="edge47" class="edge"><title>Node28&#45;&gt;Node42</title>
<path fill="none" stroke="midnightblue" d="M1692.41,-117.32C1609.06,-110.486 1427.79,-94.8093 1275.5,-76 1274.24,-75.8439 1272.96,-75.6824 1271.67,-75.5164"/>
<polygon fill="midnightblue" stroke="midnightblue" points="1272.03,-72.0339 1261.65,-74.1705 1271.1,-78.9715 1272.03,-72.0339"/>
</g>
<!-- Node44 -->
<g id="node44" class="node"><title>Node44</title>
<g id="a_node44"><a xlink:href="pdal__util__export_8hpp.html" target="_top" xlink:title="pdal_util_export.hpp">
<polygon fill="white" stroke="black" points="1047.5,-56.5 1047.5,-75.5 1151.5,-75.5 1151.5,-56.5 1047.5,-56.5"/>
<text text-anchor="middle" x="1099.5" y="-63.5" font-family="Helvetica,sans-Serif" font-size="10.00">pdal_util_export.hpp</text>
</a>
</g>
</g>
<!-- Node28&#45;&gt;Node44 -->
<g id="edge50" class="edge"><title>Node28&#45;&gt;Node44</title>
<path fill="none" stroke="midnightblue" d="M1692.32,-118.487C1595.78,-112.998 1365.37,-98.6787 1161.7,-76.0625"/>
<polygon fill="midnightblue" stroke="midnightblue" points="1162.04,-72.5791 1151.71,-74.9447 1161.26,-79.5356 1162.04,-72.5791"/>
</g>
<!-- Node42&#45;&gt;Node27 -->
<g id="edge48" class="edge"><title>Node42&#45;&gt;Node27</title>
<path fill="none" stroke="midnightblue" d="M1227.55,-56.324C1238.96,-48.1066 1256.33,-35.6017 1269.93,-25.8069"/>
<polygon fill="midnightblue" stroke="midnightblue" points="1272.16,-28.5174 1278.23,-19.8339 1268.07,-22.8366 1272.16,-28.5174"/>
</g>
<!-- Node43 -->
<g id="node43" class="node"><title>Node43</title>
<polygon fill="white" stroke="#bfbfbf" points="1185.5,-0.5 1185.5,-19.5 1245.5,-19.5 1245.5,-0.5 1185.5,-0.5"/>
<text text-anchor="middle" x="1215.5" y="-7.5" font-family="Helvetica,sans-Serif" font-size="10.00">streambuf</text>
</g>
<!-- Node42&#45;&gt;Node43 -->
<g id="edge49" class="edge"><title>Node42&#45;&gt;Node43</title>
<path fill="none" stroke="midnightblue" d="M1215.5,-56.083C1215.5,-49.0059 1215.5,-38.8611 1215.5,-29.9865"/>
<polygon fill="midnightblue" stroke="midnightblue" points="1219,-29.751 1215.5,-19.7511 1212,-29.7511 1219,-29.751"/>
</g>
</g>
</svg>
