<?xml version="1.0" encoding="UTF-8" standalone="no"?>
<!DOCTYPE svg PUBLIC "-//W3C//DTD SVG 1.1//EN"
 "http://www.w3.org/Graphics/SVG/1.1/DTD/svg11.dtd">
<!-- Generated by graphviz version 2.38.0 (20140413.2041)
 -->
<!-- Title: pdal/plugins/pcl/pipeline/PCLPipeline.h Pages: 1 -->
<svg width="258pt" height="173pt"
 viewBox="0.00 0.00 257.50 173.00" xmlns="http://www.w3.org/2000/svg" xmlns:xlink="http://www.w3.org/1999/xlink">
<g id="graph0" class="graph" transform="scale(1 1) rotate(0) translate(4 169)">
<title>pdal/plugins/pcl/pipeline/PCLPipeline.h</title>
<polygon fill="white" stroke="none" points="-4,4 -4,-169 253.5,-169 253.5,4 -4,4"/>
<!-- Node1 -->
<g id="node1" class="node"><title>Node1</title>
<polygon fill="#bfbfbf" stroke="black" points="62.5,-134.5 62.5,-164.5 182.5,-164.5 182.5,-134.5 62.5,-134.5"/>
<text text-anchor="start" x="70.5" y="-152.5" font-family="Helvetica,sans-Serif" font-size="10.00">pdal/plugins/pcl/pipeline</text>
<text text-anchor="middle" x="122.5" y="-141.5" font-family="Helvetica,sans-Serif" font-size="10.00">/PCLPipeline.h</text>
</g>
<!-- Node2 -->
<g id="node2" class="node"><title>Node2</title>
<g id="a_node2"><a xlink:href="PCLBlock_8cpp.html" target="_top" xlink:title="pdal/plugins/pcl/filters\l/PCLBlock.cpp">
<polygon fill="white" stroke="black" points="-7.10543e-15,-67.5 -7.10543e-15,-97.5 111,-97.5 111,-67.5 -7.10543e-15,-67.5"/>
<text text-anchor="start" x="8" y="-85.5" font-family="Helvetica,sans-Serif" font-size="10.00">pdal/plugins/pcl/filters</text>
<text text-anchor="middle" x="55.5" y="-74.5" font-family="Helvetica,sans-Serif" font-size="10.00">/PCLBlock.cpp</text>
</a>
</g>
</g>
<!-- Node1&#45;&gt;Node2 -->
<g id="edge1" class="edge"><title>Node1&#45;&gt;Node2</title>
<path fill="none" stroke="midnightblue" d="M100.66,-127.311C90.6092,-117.561 78.9593,-106.259 70.0096,-97.5765"/>
<polygon fill="midnightblue" stroke="midnightblue" points="98.3475,-129.945 107.962,-134.396 103.222,-124.921 98.3475,-129.945"/>
</g>
<!-- Node3 -->
<g id="node3" class="node"><title>Node3</title>
<g id="a_node3"><a xlink:href="PCLPipeline_8hpp.html" target="_top" xlink:title="pdal/plugins/pcl/pipeline\l/PCLPipeline.hpp">
<polygon fill="white" stroke="black" points="129.5,-67.5 129.5,-97.5 249.5,-97.5 249.5,-67.5 129.5,-67.5"/>
<text text-anchor="start" x="137.5" y="-85.5" font-family="Helvetica,sans-Serif" font-size="10.00">pdal/plugins/pcl/pipeline</text>
<text text-anchor="middle" x="189.5" y="-74.5" font-family="Helvetica,sans-Serif" font-size="10.00">/PCLPipeline.hpp</text>
</a>
</g>
</g>
<!-- Node1&#45;&gt;Node3 -->
<g id="edge2" class="edge"><title>Node1&#45;&gt;Node3</title>
<path fill="none" stroke="midnightblue" d="M144.34,-127.311C154.391,-117.561 166.041,-106.259 174.99,-97.5765"/>
<polygon fill="midnightblue" stroke="midnightblue" points="141.778,-124.921 137.038,-134.396 146.653,-129.945 141.778,-124.921"/>
</g>
<!-- Node4 -->
<g id="node4" class="node"><title>Node4</title>
<g id="a_node4"><a xlink:href="PCLPipeline_8cpp.html" target="_top" xlink:title="pdal/plugins/pcl/pipeline\l/PCLPipeline.cpp">
<polygon fill="white" stroke="black" points="129.5,-0.5 129.5,-30.5 249.5,-30.5 249.5,-0.5 129.5,-0.5"/>
<text text-anchor="start" x="137.5" y="-18.5" font-family="Helvetica,sans-Serif" font-size="10.00">pdal/plugins/pcl/pipeline</text>
<text text-anchor="middle" x="189.5" y="-7.5" font-family="Helvetica,sans-Serif" font-size="10.00">/PCLPipeline.cpp</text>
</a>
</g>
</g>
<!-- Node3&#45;&gt;Node4 -->
<g id="edge3" class="edge"><title>Node3&#45;&gt;Node4</title>
<path fill="none" stroke="midnightblue" d="M189.5,-57.1081C189.5,-48.1539 189.5,-38.3227 189.5,-30.5765"/>
<polygon fill="midnightblue" stroke="midnightblue" points="186,-57.3959 189.5,-67.396 193,-57.396 186,-57.3959"/>
</g>
</g>
</svg>
