<?xml version="1.0" encoding="UTF-8" standalone="no"?>
<!DOCTYPE svg PUBLIC "-//W3C//DTD SVG 1.1//EN"
 "http://www.w3.org/Graphics/SVG/1.1/DTD/svg11.dtd">
<!-- Generated by graphviz version 2.38.0 (20140413.2041)
 -->
<!-- Title: headline Pages: 1 -->
<svg width="255pt" height="104pt"
 viewBox="0.00 0.00 255.00 104.00" xmlns="http://www.w3.org/2000/svg" xmlns:xlink="http://www.w3.org/1999/xlink">
<g id="graph0" class="graph" transform="scale(1 1) rotate(0) translate(4 100)">
<title>headline</title>
<polygon fill="white" stroke="none" points="-4,4 -4,-100 251,-100 251,4 -4,4"/>
<!-- Node1 -->
<g id="node1" class="node"><title>Node1</title>
<polygon fill="#bfbfbf" stroke="black" points="0,-38.5 0,-57.5 53,-57.5 53,-38.5 0,-38.5"/>
<text text-anchor="middle" x="26.5" y="-45.5" font-family="Helvetica,sans-Serif" font-size="10.00">headline</text>
</g>
<!-- Node2 -->
<g id="node2" class="node"><title>Node2</title>
<g id="a_node2"><a xlink:href="namespacepdal.html#a94c09f1d24b93adf5d594392a30ecb60" target="_top" xlink:title="pdal::getPDALDebugInformation">
<polygon fill="white" stroke="black" points="89,-76.5 89,-95.5 247,-95.5 247,-76.5 89,-76.5"/>
<text text-anchor="middle" x="168" y="-83.5" font-family="Helvetica,sans-Serif" font-size="10.00">pdal::getPDALDebugInformation</text>
</a>
</g>
</g>
<!-- Node1&#45;&gt;Node2 -->
<g id="edge1" class="edge"><title>Node1&#45;&gt;Node2</title>
<path fill="none" stroke="midnightblue" d="M62.8199,-59.314C71.3611,-61.9385 80.4832,-64.6494 89,-67 100.823,-70.2631 113.735,-73.5279 125.589,-76.4077"/>
<polygon fill="midnightblue" stroke="midnightblue" points="63.7195,-55.9285 53.1312,-56.2996 61.6399,-62.6125 63.7195,-55.9285"/>
</g>
<!-- Node3 -->
<g id="node3" class="node"><title>Node3</title>
<g id="a_node3"><a xlink:href="classApp.html#adf89e292877822f233d3b95598d2b1cb" target="_top" xlink:title="App::outputOptions">
<polygon fill="white" stroke="black" points="117.5,-38.5 117.5,-57.5 218.5,-57.5 218.5,-38.5 117.5,-38.5"/>
<text text-anchor="middle" x="168" y="-45.5" font-family="Helvetica,sans-Serif" font-size="10.00">App::outputOptions</text>
</a>
</g>
</g>
<!-- Node1&#45;&gt;Node3 -->
<g id="edge2" class="edge"><title>Node1&#45;&gt;Node3</title>
<path fill="none" stroke="midnightblue" d="M63.34,-48C79.7518,-48 99.4737,-48 117.29,-48"/>
<polygon fill="midnightblue" stroke="midnightblue" points="63.0865,-44.5001 53.0865,-48 63.0864,-51.5001 63.0865,-44.5001"/>
</g>
<!-- Node4 -->
<g id="node4" class="node"><title>Node4</title>
<g id="a_node4"><a xlink:href="classApp.html#a524a8757f494b2c1b20a9f5041c44df0" target="_top" xlink:title="App::outputVersion">
<polygon fill="white" stroke="black" points="118,-0.5 118,-19.5 218,-19.5 218,-0.5 118,-0.5"/>
<text text-anchor="middle" x="168" y="-7.5" font-family="Helvetica,sans-Serif" font-size="10.00">App::outputVersion</text>
</a>
</g>
</g>
<!-- Node1&#45;&gt;Node4 -->
<g id="edge3" class="edge"><title>Node1&#45;&gt;Node4</title>
<path fill="none" stroke="midnightblue" d="M62.8199,-36.686C71.3611,-34.0615 80.4832,-31.3506 89,-29 100.823,-25.7369 113.735,-22.4721 125.589,-19.5923"/>
<polygon fill="midnightblue" stroke="midnightblue" points="61.6399,-33.3875 53.1312,-39.7004 63.7195,-40.0715 61.6399,-33.3875"/>
</g>
</g>
</svg>
