<?xml version="1.0" encoding="UTF-8" standalone="no"?>
<!DOCTYPE svg PUBLIC "-//W3C//DTD SVG 1.1//EN"
 "http://www.w3.org/Graphics/SVG/1.1/DTD/svg11.dtd">
<!-- Generated by graphviz version 2.38.0 (20140413.2041)
 -->
<!-- Title: pdal/pdal/PipelineExecutor.hpp Pages: 1 -->
<svg width="906pt" height="229pt"
 viewBox="0.00 0.00 905.50 229.00" xmlns="http://www.w3.org/2000/svg" xmlns:xlink="http://www.w3.org/1999/xlink">
<g id="graph0" class="graph" transform="scale(1 1) rotate(0) translate(4 225)">
<title>pdal/pdal/PipelineExecutor.hpp</title>
<polygon fill="white" stroke="none" points="-4,4 -4,-225 901.5,-225 901.5,4 -4,4"/>
<!-- Node1 -->
<g id="node1" class="node"><title>Node1</title>
<polygon fill="#bfbfbf" stroke="black" points="483,-201.5 483,-220.5 634,-220.5 634,-201.5 483,-201.5"/>
<text text-anchor="middle" x="558.5" y="-208.5" font-family="Helvetica,sans-Serif" font-size="10.00">pdal/pdal/PipelineExecutor.hpp</text>
</g>
<!-- Node2 -->
<g id="node2" class="node"><title>Node2</title>
<g id="a_node2"><a xlink:href="JavaPipeline_8hpp.html" target="_top" xlink:title="pdal/java/native/src\l/include/JavaPipeline.hpp">
<polygon fill="white" stroke="black" points="301.5,-134.5 301.5,-164.5 429.5,-164.5 429.5,-134.5 301.5,-134.5"/>
<text text-anchor="start" x="309.5" y="-152.5" font-family="Helvetica,sans-Serif" font-size="10.00">pdal/java/native/src</text>
<text text-anchor="middle" x="365.5" y="-141.5" font-family="Helvetica,sans-Serif" font-size="10.00">/include/JavaPipeline.hpp</text>
</a>
</g>
</g>
<!-- Node1&#45;&gt;Node2 -->
<g id="edge1" class="edge"><title>Node1&#45;&gt;Node2</title>
<path fill="none" stroke="midnightblue" d="M521.143,-198.483C489.676,-188.782 444.553,-174.871 410.986,-164.523"/>
<polygon fill="midnightblue" stroke="midnightblue" points="520.26,-201.874 530.848,-201.475 522.323,-195.184 520.26,-201.874"/>
</g>
<!-- Node11 -->
<g id="node11" class="node"><title>Node11</title>
<g id="a_node11"><a xlink:href="PipelineExecutor_8cpp.html" target="_top" xlink:title="pdal/pdal/PipelineExecutor.cpp">
<polygon fill="white" stroke="black" points="483,-140 483,-159 634,-159 634,-140 483,-140"/>
<text text-anchor="middle" x="558.5" y="-147" font-family="Helvetica,sans-Serif" font-size="10.00">pdal/pdal/PipelineExecutor.cpp</text>
</a>
</g>
</g>
<!-- Node1&#45;&gt;Node11 -->
<g id="edge14" class="edge"><title>Node1&#45;&gt;Node11</title>
<path fill="none" stroke="midnightblue" d="M558.5,-191.317C558.5,-180.496 558.5,-167.398 558.5,-159.009"/>
<polygon fill="midnightblue" stroke="midnightblue" points="555,-191.475 558.5,-201.475 562,-191.475 555,-191.475"/>
</g>
<!-- Node12 -->
<g id="node12" class="node"><title>Node12</title>
<g id="a_node12"><a xlink:href="PyPipeline_8hpp.html" target="_top" xlink:title="pdal/python/pdal/PyPipeline.hpp">
<polygon fill="white" stroke="black" points="723.5,-140 723.5,-159 879.5,-159 879.5,-140 723.5,-140"/>
<text text-anchor="middle" x="801.5" y="-147" font-family="Helvetica,sans-Serif" font-size="10.00">pdal/python/pdal/PyPipeline.hpp</text>
</a>
</g>
</g>
<!-- Node1&#45;&gt;Node12 -->
<g id="edge15" class="edge"><title>Node1&#45;&gt;Node12</title>
<path fill="none" stroke="midnightblue" d="M603.256,-199.041C650.432,-187.49 723.742,-169.539 766.749,-159.009"/>
<polygon fill="midnightblue" stroke="midnightblue" points="602.197,-195.697 593.316,-201.475 603.861,-202.496 602.197,-195.697"/>
</g>
<!-- Node3 -->
<g id="node3" class="node"><title>Node3</title>
<g id="a_node3"><a xlink:href="JavaIterator_8hpp.html" target="_top" xlink:title="pdal/java/native/src\l/include/JavaIterator.hpp">
<polygon fill="white" stroke="black" points="93.5,-67.5 93.5,-97.5 217.5,-97.5 217.5,-67.5 93.5,-67.5"/>
<text text-anchor="start" x="101.5" y="-85.5" font-family="Helvetica,sans-Serif" font-size="10.00">pdal/java/native/src</text>
<text text-anchor="middle" x="155.5" y="-74.5" font-family="Helvetica,sans-Serif" font-size="10.00">/include/JavaIterator.hpp</text>
</a>
</g>
</g>
<!-- Node2&#45;&gt;Node3 -->
<g id="edge2" class="edge"><title>Node2&#45;&gt;Node3</title>
<path fill="none" stroke="midnightblue" d="M310.397,-131.444C276.356,-120.908 233.198,-107.549 201.089,-97.6109"/>
<polygon fill="midnightblue" stroke="midnightblue" points="309.604,-134.863 320.192,-134.476 311.674,-128.176 309.604,-134.863"/>
</g>
<!-- Node4 -->
<g id="node4" class="node"><title>Node4</title>
<g id="a_node4"><a xlink:href="io__pdal__Pipeline_8cpp.html" target="_top" xlink:title="pdal/java/native/src\l/io_pdal_Pipeline.cpp">
<polygon fill="white" stroke="black" points="0,-0.5 0,-30.5 109,-30.5 109,-0.5 0,-0.5"/>
<text text-anchor="start" x="8" y="-18.5" font-family="Helvetica,sans-Serif" font-size="10.00">pdal/java/native/src</text>
<text text-anchor="middle" x="54.5" y="-7.5" font-family="Helvetica,sans-Serif" font-size="10.00">/io_pdal_Pipeline.cpp</text>
</a>
</g>
</g>
<!-- Node2&#45;&gt;Node4 -->
<g id="edge9" class="edge"><title>Node2&#45;&gt;Node4</title>
<path fill="none" stroke="midnightblue" d="M291.31,-143.44C218.855,-137.073 115.148,-123.707 84.5,-98 64.2845,-81.0433 57.6884,-49.1846 55.5381,-30.7216"/>
<polygon fill="midnightblue" stroke="midnightblue" points="291.054,-146.931 301.316,-144.293 291.649,-139.956 291.054,-146.931"/>
</g>
<!-- Node5 -->
<g id="node5" class="node"><title>Node5</title>
<g id="a_node5"><a xlink:href="io__pdal__PointViewIterator_8cpp.html" target="_top" xlink:title="pdal/java/native/src\l/io_pdal_PointViewIterator.cpp">
<polygon fill="white" stroke="black" points="127,-0.5 127,-30.5 276,-30.5 276,-0.5 127,-0.5"/>
<text text-anchor="start" x="135" y="-18.5" font-family="Helvetica,sans-Serif" font-size="10.00">pdal/java/native/src</text>
<text text-anchor="middle" x="201.5" y="-7.5" font-family="Helvetica,sans-Serif" font-size="10.00">/io_pdal_PointViewIterator.cpp</text>
</a>
</g>
</g>
<!-- Node2&#45;&gt;Node5 -->
<g id="edge12" class="edge"><title>Node2&#45;&gt;Node5</title>
<path fill="none" stroke="midnightblue" d="M317.469,-130.243C299.437,-122.024 279.461,-111.176 263.5,-98 239.918,-78.5336 220.037,-48.4347 209.528,-30.7783"/>
<polygon fill="midnightblue" stroke="midnightblue" points="316.128,-133.476 326.691,-134.3 318.947,-127.069 316.128,-133.476"/>
</g>
<!-- Node6 -->
<g id="node6" class="node"><title>Node6</title>
<g id="a_node6"><a xlink:href="PointViewRawPtr_8hpp.html" target="_top" xlink:title="pdal/java/native/src\l/include/PointViewRawPtr.hpp">
<polygon fill="white" stroke="black" points="273,-67.5 273,-97.5 422,-97.5 422,-67.5 273,-67.5"/>
<text text-anchor="start" x="281" y="-85.5" font-family="Helvetica,sans-Serif" font-size="10.00">pdal/java/native/src</text>
<text text-anchor="middle" x="347.5" y="-74.5" font-family="Helvetica,sans-Serif" font-size="10.00">/include/PointViewRawPtr.hpp</text>
</a>
</g>
</g>
<!-- Node2&#45;&gt;Node6 -->
<g id="edge5" class="edge"><title>Node2&#45;&gt;Node6</title>
<path fill="none" stroke="midnightblue" d="M358.908,-124.697C356.386,-115.587 353.59,-105.493 351.398,-97.5765"/>
<polygon fill="midnightblue" stroke="midnightblue" points="355.552,-125.693 361.594,-134.396 362.298,-123.825 355.552,-125.693"/>
</g>
<!-- Node7 -->
<g id="node7" class="node"><title>Node7</title>
<g id="a_node7"><a xlink:href="io__pdal__PointView_8cpp.html" target="_top" xlink:title="pdal/java/native/src\l/io_pdal_PointView.cpp">
<polygon fill="white" stroke="black" points="428,-0.5 428,-30.5 547,-30.5 547,-0.5 428,-0.5"/>
<text text-anchor="start" x="436" y="-18.5" font-family="Helvetica,sans-Serif" font-size="10.00">pdal/java/native/src</text>
<text text-anchor="middle" x="487.5" y="-7.5" font-family="Helvetica,sans-Serif" font-size="10.00">/io_pdal_PointView.cpp</text>
</a>
</g>
</g>
<!-- Node2&#45;&gt;Node7 -->
<g id="edge11" class="edge"><title>Node2&#45;&gt;Node7</title>
<path fill="none" stroke="midnightblue" d="M394.947,-128.552C406.676,-119.885 419.881,-109.166 430.5,-98 450.728,-76.73 469.227,-47.7694 479.372,-30.7119"/>
<polygon fill="midnightblue" stroke="midnightblue" points="392.791,-125.792 386.725,-134.478 396.884,-131.47 392.791,-125.792"/>
</g>
<!-- Node9 -->
<g id="node9" class="node"><title>Node9</title>
<g id="a_node9"><a xlink:href="io__pdal__PointLayout_8cpp.html" target="_top" xlink:title="pdal/java/native/src\l/io_pdal_PointLayout.cpp">
<polygon fill="white" stroke="black" points="477.5,-67.5 477.5,-97.5 603.5,-97.5 603.5,-67.5 477.5,-67.5"/>
<text text-anchor="start" x="485.5" y="-85.5" font-family="Helvetica,sans-Serif" font-size="10.00">pdal/java/native/src</text>
<text text-anchor="middle" x="540.5" y="-74.5" font-family="Helvetica,sans-Serif" font-size="10.00">/io_pdal_PointLayout.cpp</text>
</a>
</g>
</g>
<!-- Node2&#45;&gt;Node9 -->
<g id="edge10" class="edge"><title>Node2&#45;&gt;Node9</title>
<path fill="none" stroke="midnightblue" d="M413.104,-130.819C441.233,-120.371 476.361,-107.323 502.602,-97.5765"/>
<polygon fill="midnightblue" stroke="midnightblue" points="411.628,-127.633 403.472,-134.396 414.065,-134.195 411.628,-127.633"/>
</g>
<!-- Node10 -->
<g id="node10" class="node"><title>Node10</title>
<g id="a_node10"><a xlink:href="JavaPipeline_8cpp.html" target="_top" xlink:title="pdal/java/native/src\l/JavaPipeline.cpp">
<polygon fill="white" stroke="black" points="622,-67.5 622,-97.5 723,-97.5 723,-67.5 622,-67.5"/>
<text text-anchor="start" x="630" y="-85.5" font-family="Helvetica,sans-Serif" font-size="10.00">pdal/java/native/src</text>
<text text-anchor="middle" x="672.5" y="-74.5" font-family="Helvetica,sans-Serif" font-size="10.00">/JavaPipeline.cpp</text>
</a>
</g>
</g>
<!-- Node2&#45;&gt;Node10 -->
<g id="edge13" class="edge"><title>Node2&#45;&gt;Node10</title>
<path fill="none" stroke="midnightblue" d="M439.515,-134.079C488.658,-124.33 554.549,-110.922 612.5,-98 615.533,-97.3236 618.649,-96.6144 621.79,-95.8885"/>
<polygon fill="midnightblue" stroke="midnightblue" points="438.734,-130.666 429.604,-136.041 440.094,-137.533 438.734,-130.666"/>
</g>
<!-- Node3&#45;&gt;Node4 -->
<g id="edge3" class="edge"><title>Node3&#45;&gt;Node4</title>
<path fill="none" stroke="midnightblue" d="M124.786,-61.7337C109.157,-51.6755 90.5254,-39.6847 76.3727,-30.5765"/>
<polygon fill="midnightblue" stroke="midnightblue" points="123.281,-64.9273 133.585,-67.396 127.07,-59.041 123.281,-64.9273"/>
</g>
<!-- Node3&#45;&gt;Node5 -->
<g id="edge4" class="edge"><title>Node3&#45;&gt;Node5</title>
<path fill="none" stroke="midnightblue" d="M171.312,-59.1575C178.02,-49.6788 185.635,-38.9186 191.538,-30.5765"/>
<polygon fill="midnightblue" stroke="midnightblue" points="168.401,-57.2114 165.481,-67.396 174.115,-61.2551 168.401,-57.2114"/>
</g>
<!-- Node6&#45;&gt;Node5 -->
<g id="edge7" class="edge"><title>Node6&#45;&gt;Node5</title>
<path fill="none" stroke="midnightblue" d="M306.55,-63.2687C283.296,-52.9159 254.628,-40.1528 233.118,-30.5765"/>
<polygon fill="midnightblue" stroke="midnightblue" points="305.261,-66.5262 315.82,-67.396 308.108,-60.1313 305.261,-66.5262"/>
</g>
<!-- Node6&#45;&gt;Node7 -->
<g id="edge6" class="edge"><title>Node6&#45;&gt;Node7</title>
<path fill="none" stroke="midnightblue" d="M387.065,-63.1305C409.31,-52.8025 436.647,-40.1103 457.181,-30.5765"/>
<polygon fill="midnightblue" stroke="midnightblue" points="385.474,-60.0103 377.878,-67.396 388.422,-66.3593 385.474,-60.0103"/>
</g>
<!-- Node8 -->
<g id="node8" class="node"><title>Node8</title>
<g id="a_node8"><a xlink:href="PointViewRawPtr_8cpp.html" target="_top" xlink:title="pdal/java/native/src\l/PointViewRawPtr.cpp">
<polygon fill="white" stroke="black" points="293.5,-0.5 293.5,-30.5 409.5,-30.5 409.5,-0.5 293.5,-0.5"/>
<text text-anchor="start" x="301.5" y="-18.5" font-family="Helvetica,sans-Serif" font-size="10.00">pdal/java/native/src</text>
<text text-anchor="middle" x="351.5" y="-7.5" font-family="Helvetica,sans-Serif" font-size="10.00">/PointViewRawPtr.cpp</text>
</a>
</g>
</g>
<!-- Node6&#45;&gt;Node8 -->
<g id="edge8" class="edge"><title>Node6&#45;&gt;Node8</title>
<path fill="none" stroke="midnightblue" d="M348.983,-57.4029C349.539,-48.3703 350.152,-38.4078 350.634,-30.5765"/>
<polygon fill="midnightblue" stroke="midnightblue" points="345.489,-57.1998 348.368,-67.396 352.476,-57.6299 345.489,-57.1998"/>
</g>
<!-- Node13 -->
<g id="node13" class="node"><title>Node13</title>
<g id="a_node13"><a xlink:href="PyPipeline_8cpp.html" target="_top" xlink:title="pdal/python/pdal/PyPipeline.cpp">
<polygon fill="white" stroke="black" points="741.5,-73 741.5,-92 897.5,-92 897.5,-73 741.5,-73"/>
<text text-anchor="middle" x="819.5" y="-80" font-family="Helvetica,sans-Serif" font-size="10.00">pdal/python/pdal/PyPipeline.cpp</text>
</a>
</g>
</g>
<!-- Node12&#45;&gt;Node13 -->
<g id="edge16" class="edge"><title>Node12&#45;&gt;Node13</title>
<path fill="none" stroke="midnightblue" d="M806.647,-129.915C810.088,-117.488 814.455,-101.717 817.111,-92.1273"/>
<polygon fill="midnightblue" stroke="midnightblue" points="803.223,-129.162 803.928,-139.734 809.969,-131.031 803.223,-129.162"/>
</g>
</g>
</svg>
