<?xml version="1.0" encoding="UTF-8" standalone="no"?>
<!DOCTYPE svg PUBLIC "-//W3C//DTD SVG 1.1//EN"
 "http://www.w3.org/Graphics/SVG/1.1/DTD/svg11.dtd">
<!-- Generated by graphviz version 2.38.0 (20140413.2041)
 -->
<!-- Title: include Pages: 1 -->
<svg width="615pt" height="104pt"
 viewBox="0.00 0.00 615.00 104.00" xmlns="http://www.w3.org/2000/svg" xmlns:xlink="http://www.w3.org/1999/xlink">
<g id="graph0" class="graph" transform="scale(1 1) rotate(0) translate(4 100)">
<title>include</title>
<polygon fill="white" stroke="none" points="-4,4 -4,-100 611,-100 611,4 -4,4"/>
<!-- Node1 -->
<g id="node1" class="node"><title>Node1</title>
<polygon fill="#bfbfbf" stroke="black" points="0,-0.5 0,-19.5 47,-19.5 47,-0.5 0,-0.5"/>
<text text-anchor="middle" x="23.5" y="-7.5" font-family="Helvetica,sans-Serif" font-size="10.00">include</text>
</g>
<!-- Node2 -->
<g id="node2" class="node"><title>Node2</title>
<g id="a_node2"><a xlink:href="plugins_2sqlite_2CMakeLists_8txt.html#ae13dd749ac3c6bc0aacc152ad068c9cf" target="_top" xlink:title="PDAL_ADD_PLUGIN">
<polygon fill="white" stroke="black" points="83,-29.5 83,-48.5 196,-48.5 196,-29.5 83,-29.5"/>
<text text-anchor="middle" x="139.5" y="-36.5" font-family="Helvetica,sans-Serif" font-size="10.00">PDAL_ADD_PLUGIN</text>
</a>
</g>
</g>
<!-- Node1&#45;&gt;Node2 -->
<g id="edge1" class="edge"><title>Node1&#45;&gt;Node2</title>
<path fill="none" stroke="midnightblue" d="M47.0227,-15.7295C59.5848,-18.9251 75.7256,-23.0311 90.9427,-26.9021"/>
<polygon fill="midnightblue" stroke="midnightblue" points="90.208,-30.3266 100.762,-29.4001 91.9338,-23.5427 90.208,-30.3266"/>
</g>
<!-- Node3 -->
<g id="node3" class="node"><title>Node3</title>
<g id="a_node3"><a xlink:href="plugins_2greyhound_2CMakeLists_8txt.html#aaf2c36d971af3676acf24962f41e8fce" target="_top" xlink:title="target_include_directories">
<polygon fill="white" stroke="black" points="232,-48.5 232,-67.5 360,-67.5 360,-48.5 232,-48.5"/>
<text text-anchor="middle" x="296" y="-55.5" font-family="Helvetica,sans-Serif" font-size="10.00">target_include_directories</text>
</a>
</g>
</g>
<!-- Node2&#45;&gt;Node3 -->
<g id="edge2" class="edge"><title>Node2&#45;&gt;Node3</title>
<path fill="none" stroke="midnightblue" d="M196.278,-45.8594C204.603,-46.8832 213.289,-47.9514 221.906,-49.0111"/>
<polygon fill="midnightblue" stroke="midnightblue" points="221.611,-52.5012 231.964,-50.248 222.466,-45.5535 221.611,-52.5012"/>
</g>
<!-- Node4 -->
<g id="node4" class="node"><title>Node4</title>
<g id="a_node4"><a xlink:href="plugins_2pgpointcloud_2CMakeLists_8txt.html#aea33ba9daf1f5c8561730ee98d4f613c" target="_top" xlink:title="PDAL_ADD_TEST">
<polygon fill="white" stroke="black" points="396,-76.5 396,-95.5 497,-95.5 497,-76.5 396,-76.5"/>
<text text-anchor="middle" x="446.5" y="-83.5" font-family="Helvetica,sans-Serif" font-size="10.00">PDAL_ADD_TEST</text>
</a>
</g>
</g>
<!-- Node2&#45;&gt;Node4 -->
<g id="edge8" class="edge"><title>Node2&#45;&gt;Node4</title>
<path fill="none" stroke="midnightblue" d="M158.115,-48.5137C176.105,-57.6945 205.129,-71.051 232,-77 282.971,-88.2846 342.415,-89.8826 385.617,-89.0336"/>
<polygon fill="midnightblue" stroke="midnightblue" points="385.771,-92.5309 395.681,-88.7859 385.598,-85.5331 385.771,-92.5309"/>
</g>
<!-- Node5 -->
<g id="node5" class="node"><title>Node5</title>
<g id="a_node5"><a xlink:href="apps_2CMakeLists_8txt.html#a95003200affb100d1d71069d001d318c" target="_top" xlink:title="endif">
<polygon fill="white" stroke="black" points="427.5,-19.5 427.5,-38.5 465.5,-38.5 465.5,-19.5 427.5,-19.5"/>
<text text-anchor="middle" x="446.5" y="-26.5" font-family="Helvetica,sans-Serif" font-size="10.00">endif</text>
</a>
</g>
</g>
<!-- Node2&#45;&gt;Node5 -->
<g id="edge9" class="edge"><title>Node2&#45;&gt;Node5</title>
<path fill="none" stroke="midnightblue" d="M196.087,-37.1775C261.398,-35.0361 367.201,-31.5672 417.377,-29.9221"/>
<polygon fill="midnightblue" stroke="midnightblue" points="417.606,-33.4165 427.486,-29.5906 417.376,-26.4203 417.606,-33.4165"/>
</g>
<!-- Node3&#45;&gt;Node4 -->
<g id="edge3" class="edge"><title>Node3&#45;&gt;Node4</title>
<path fill="none" stroke="midnightblue" d="M347.69,-67.5577C359.955,-69.8703 373.177,-72.3634 385.814,-74.746"/>
<polygon fill="midnightblue" stroke="midnightblue" points="385.317,-78.214 395.793,-76.6276 386.614,-71.3352 385.317,-78.214"/>
</g>
<!-- Node3&#45;&gt;Node5 -->
<g id="edge4" class="edge"><title>Node3&#45;&gt;Node5</title>
<path fill="none" stroke="midnightblue" d="M319.878,-48.4963C345.993,-41.2583 388.739,-32.7728 416.998,-29.1166"/>
<polygon fill="midnightblue" stroke="midnightblue" points="417.518,-32.58 427.055,-27.9644 416.721,-25.6255 417.518,-32.58"/>
</g>
<!-- Node5&#45;&gt;Node1 -->
<g id="edge6" class="edge"><title>Node5&#45;&gt;Node1</title>
<path fill="none" stroke="midnightblue" d="M427.165,-28.1725C362.059,-25.2343 141.413,-15.2764 57.3738,-11.4836"/>
<polygon fill="midnightblue" stroke="midnightblue" points="57.2824,-7.97602 47.1348,-11.0215 56.9668,-14.9689 57.2824,-7.97602"/>
</g>
<!-- Node5&#45;&gt;Node3 -->
<g id="edge7" class="edge"><title>Node5&#45;&gt;Node3</title>
<path fill="none" stroke="midnightblue" d="M427.303,-37.1668C412.84,-41.4345 391.589,-46.2966 370.428,-50.4101"/>
<polygon fill="midnightblue" stroke="midnightblue" points="369.585,-47.0075 360.408,-52.3029 370.884,-53.8858 369.585,-47.0075"/>
</g>
<!-- Node6 -->
<g id="node6" class="node"><title>Node6</title>
<g id="a_node6"><a xlink:href="test_2unit_2CMakeLists_8txt.html#ab08ac1136c19e320931be30a4ff4d593" target="_top" xlink:title="configure_file">
<polygon fill="white" stroke="black" points="533,-19.5 533,-38.5 607,-38.5 607,-19.5 533,-19.5"/>
<text text-anchor="middle" x="570" y="-26.5" font-family="Helvetica,sans-Serif" font-size="10.00">configure_file</text>
</a>
</g>
</g>
<!-- Node5&#45;&gt;Node6 -->
<g id="edge5" class="edge"><title>Node5&#45;&gt;Node6</title>
<path fill="none" stroke="midnightblue" d="M465.69,-29C480.685,-29 502.633,-29 522.447,-29"/>
<polygon fill="midnightblue" stroke="midnightblue" points="522.565,-32.5001 532.565,-29 522.565,-25.5001 522.565,-32.5001"/>
</g>
</g>
</svg>
