<?xml version="1.0" encoding="UTF-8" standalone="no"?>
<!DOCTYPE svg PUBLIC "-//W3C//DTD SVG 1.1//EN"
 "http://www.w3.org/Graphics/SVG/1.1/DTD/svg11.dtd">
<!-- Generated by graphviz version 2.38.0 (20140413.2041)
 -->
<!-- Title: pdal/pdal/PluginManager.hpp Pages: 1 -->
<svg width="1548pt" height="364pt"
 viewBox="0.00 0.00 1548.00 364.00" xmlns="http://www.w3.org/2000/svg" xmlns:xlink="http://www.w3.org/1999/xlink">
<g id="graph0" class="graph" transform="scale(1 1) rotate(0) translate(4 360)">
<title>pdal/pdal/PluginManager.hpp</title>
<polygon fill="white" stroke="none" points="-4,4 -4,-360 1544,-360 1544,4 -4,4"/>
<!-- Node1 -->
<g id="node1" class="node"><title>Node1</title>
<polygon fill="#bfbfbf" stroke="black" points="1170,-336.5 1170,-355.5 1312,-355.5 1312,-336.5 1170,-336.5"/>
<text text-anchor="middle" x="1241" y="-343.5" font-family="Helvetica,sans-Serif" font-size="10.00">pdal/pdal/PluginManager.hpp</text>
</g>
<!-- Node2 -->
<g id="node2" class="node"><title>Node2</title>
<g id="a_node2"><a xlink:href="Log_8hpp.html" target="_top" xlink:title="pdal/Log.hpp">
<polygon fill="white" stroke="black" points="217,-280.5 217,-299.5 289,-299.5 289,-280.5 217,-280.5"/>
<text text-anchor="middle" x="253" y="-287.5" font-family="Helvetica,sans-Serif" font-size="10.00">pdal/Log.hpp</text>
</a>
</g>
</g>
<!-- Node1&#45;&gt;Node2 -->
<g id="edge1" class="edge"><title>Node1&#45;&gt;Node2</title>
<path fill="none" stroke="midnightblue" d="M1169.79,-343.575C1014.93,-340.024 636.053,-328.896 320,-300 313.247,-299.383 306.129,-298.585 299.155,-297.721"/>
<polygon fill="midnightblue" stroke="midnightblue" points="299.466,-294.232 289.099,-296.42 298.567,-301.174 299.466,-294.232"/>
</g>
<!-- Node4 -->
<g id="node4" class="node"><title>Node4</title>
<polygon fill="white" stroke="#bfbfbf" points="0,-56.5 0,-75.5 52,-75.5 52,-56.5 0,-56.5"/>
<text text-anchor="middle" x="26" y="-63.5" font-family="Helvetica,sans-Serif" font-size="10.00">memory</text>
</g>
<!-- Node1&#45;&gt;Node4 -->
<g id="edge49" class="edge"><title>Node1&#45;&gt;Node4</title>
<path fill="none" stroke="midnightblue" d="M1169.74,-344.777C967.453,-343.688 392.414,-337.303 208,-300 126.677,-283.55 33,-317.97 33,-235 33,-235 33,-235 33,-177 33,-144.883 29.9912,-107.598 27.9189,-85.7258"/>
<polygon fill="midnightblue" stroke="midnightblue" points="31.3796,-85.1543 26.9151,-75.546 24.4133,-85.8412 31.3796,-85.1543"/>
</g>
<!-- Node6 -->
<g id="node6" class="node"><title>Node6</title>
<g id="a_node6"><a xlink:href="pdal__internal_8hpp.html" target="_top" xlink:title="pdal/pdal_internal.hpp">
<polygon fill="white" stroke="black" points="1115.5,-224.5 1115.5,-243.5 1226.5,-243.5 1226.5,-224.5 1115.5,-224.5"/>
<text text-anchor="middle" x="1171" y="-231.5" font-family="Helvetica,sans-Serif" font-size="10.00">pdal/pdal_internal.hpp</text>
</a>
</g>
</g>
<!-- Node1&#45;&gt;Node6 -->
<g id="edge43" class="edge"><title>Node1&#45;&gt;Node6</title>
<path fill="none" stroke="midnightblue" d="M1235.51,-336.368C1224.01,-318.296 1197.2,-276.176 1182.01,-252.307"/>
<polygon fill="midnightblue" stroke="midnightblue" points="1184.79,-250.149 1176.47,-243.591 1178.88,-253.907 1184.79,-250.149"/>
</g>
<!-- Node15 -->
<g id="node15" class="node"><title>Node15</title>
<polygon fill="white" stroke="#bfbfbf" points="1395.5,-56.5 1395.5,-75.5 1436.5,-75.5 1436.5,-56.5 1395.5,-56.5"/>
<text text-anchor="middle" x="1416" y="-63.5" font-family="Helvetica,sans-Serif" font-size="10.00">string</text>
</g>
<!-- Node1&#45;&gt;Node15 -->
<g id="edge51" class="edge"><title>Node1&#45;&gt;Node15</title>
<path fill="none" stroke="midnightblue" d="M1297.71,-336.497C1353.38,-324.557 1430,-296.883 1430,-235 1430,-235 1430,-235 1430,-177 1430,-144.541 1423.93,-107.121 1419.78,-85.3564"/>
<polygon fill="midnightblue" stroke="midnightblue" points="1423.21,-84.6401 1417.83,-75.5108 1416.34,-86.0003 1423.21,-84.6401"/>
</g>
<!-- Node16 -->
<g id="node16" class="node"><title>Node16</title>
<polygon fill="white" stroke="#bfbfbf" points="286,-56.5 286,-75.5 330,-75.5 330,-56.5 286,-56.5"/>
<text text-anchor="middle" x="308" y="-63.5" font-family="Helvetica,sans-Serif" font-size="10.00">vector</text>
</g>
<!-- Node1&#45;&gt;Node16 -->
<g id="edge52" class="edge"><title>Node1&#45;&gt;Node16</title>
<path fill="none" stroke="midnightblue" d="M1169.83,-343.819C956.012,-339.335 334,-319.068 334,-235 334,-235 334,-235 334,-177 334,-143.929 322.732,-106.729 315.032,-85.1685"/>
<polygon fill="midnightblue" stroke="midnightblue" points="318.269,-83.8308 311.506,-75.675 311.707,-86.2679 318.269,-83.8308"/>
</g>
<!-- Node26 -->
<g id="node26" class="node"><title>Node26</title>
<polygon fill="white" stroke="#bfbfbf" points="1454.5,-56.5 1454.5,-75.5 1489.5,-75.5 1489.5,-56.5 1454.5,-56.5"/>
<text text-anchor="middle" x="1472" y="-63.5" font-family="Helvetica,sans-Serif" font-size="10.00">map</text>
</g>
<!-- Node1&#45;&gt;Node26 -->
<g id="edge48" class="edge"><title>Node1&#45;&gt;Node26</title>
<path fill="none" stroke="midnightblue" d="M1312.2,-339.842C1378.77,-330.679 1468,-305.288 1468,-235 1468,-235 1468,-235 1468,-177 1468,-144.927 1469.72,-107.628 1470.9,-85.7413"/>
<polygon fill="midnightblue" stroke="midnightblue" points="1474.41,-85.7349 1471.48,-75.5539 1467.42,-85.3413 1474.41,-85.7349"/>
</g>
<!-- Node33 -->
<g id="node33" class="node"><title>Node33</title>
<g id="a_node33"><a xlink:href="plugin_8hpp.html" target="_top" xlink:title="pdal/plugin.hpp">
<polygon fill="white" stroke="black" points="1272,-224.5 1272,-243.5 1354,-243.5 1354,-224.5 1272,-224.5"/>
<text text-anchor="middle" x="1313" y="-231.5" font-family="Helvetica,sans-Serif" font-size="10.00">pdal/plugin.hpp</text>
</a>
</g>
</g>
<!-- Node1&#45;&gt;Node33 -->
<g id="edge44" class="edge"><title>Node1&#45;&gt;Node33</title>
<path fill="none" stroke="midnightblue" d="M1246.65,-336.368C1258.53,-318.215 1286.29,-275.802 1301.88,-251.99"/>
<polygon fill="midnightblue" stroke="midnightblue" points="1304.83,-253.875 1307.38,-243.591 1298.97,-250.042 1304.83,-253.875"/>
</g>
<!-- Node34 -->
<g id="node34" class="node"><title>Node34</title>
<polygon fill="white" stroke="#bfbfbf" points="1496,-280.5 1496,-299.5 1540,-299.5 1540,-280.5 1496,-280.5"/>
<text text-anchor="middle" x="1518" y="-287.5" font-family="Helvetica,sans-Serif" font-size="10.00">mutex</text>
</g>
<!-- Node1&#45;&gt;Node34 -->
<g id="edge50" class="edge"><title>Node1&#45;&gt;Node34</title>
<path fill="none" stroke="midnightblue" d="M1291.49,-336.487C1340.38,-328.028 1416.5,-314.288 1482,-300 1483.27,-299.722 1484.57,-299.432 1485.88,-299.133"/>
<polygon fill="midnightblue" stroke="midnightblue" points="1487.05,-302.453 1495.96,-296.732 1485.43,-295.644 1487.05,-302.453"/>
</g>
<!-- Node3 -->
<g id="node3" class="node"><title>Node3</title>
<polygon fill="white" stroke="#bfbfbf" points="218.5,-56.5 218.5,-75.5 267.5,-75.5 267.5,-56.5 218.5,-56.5"/>
<text text-anchor="middle" x="243" y="-63.5" font-family="Helvetica,sans-Serif" font-size="10.00">cassert</text>
</g>
<!-- Node2&#45;&gt;Node3 -->
<g id="edge2" class="edge"><title>Node2&#45;&gt;Node3</title>
<path fill="none" stroke="midnightblue" d="M252.608,-280.297C251.137,-247.633 245.922,-131.866 243.854,-85.9573"/>
<polygon fill="midnightblue" stroke="midnightblue" points="247.347,-85.7161 243.4,-75.8837 240.354,-86.0311 247.347,-85.7161"/>
</g>
<!-- Node2&#45;&gt;Node4 -->
<g id="edge3" class="edge"><title>Node2&#45;&gt;Node4</title>
<path fill="none" stroke="midnightblue" d="M244.101,-280.297C209.993,-246.94 87.273,-126.923 42.4982,-83.1349"/>
<polygon fill="midnightblue" stroke="midnightblue" points="44.6804,-80.3734 35.0838,-75.8837 39.7861,-85.378 44.6804,-80.3734"/>
</g>
<!-- Node5 -->
<g id="node5" class="node"><title>Node5</title>
<polygon fill="white" stroke="#bfbfbf" points="264.5,-224.5 264.5,-243.5 305.5,-243.5 305.5,-224.5 264.5,-224.5"/>
<text text-anchor="middle" x="285" y="-231.5" font-family="Helvetica,sans-Serif" font-size="10.00">stack</text>
</g>
<!-- Node2&#45;&gt;Node5 -->
<g id="edge4" class="edge"><title>Node2&#45;&gt;Node5</title>
<path fill="none" stroke="midnightblue" d="M258.284,-280.083C262.711,-272.613 269.163,-261.724 274.618,-252.52"/>
<polygon fill="midnightblue" stroke="midnightblue" points="277.727,-254.138 279.814,-243.751 271.705,-250.57 277.727,-254.138"/>
</g>
<!-- Node2&#45;&gt;Node6 -->
<g id="edge5" class="edge"><title>Node2&#45;&gt;Node6</title>
<path fill="none" stroke="midnightblue" d="M289.269,-286.867C427.803,-278.717 924.794,-249.483 1105.08,-238.878"/>
<polygon fill="midnightblue" stroke="midnightblue" points="1105.44,-242.363 1115.21,-238.281 1105.03,-235.375 1105.44,-242.363"/>
</g>
<!-- Node30 -->
<g id="node30" class="node"><title>Node30</title>
<g id="a_node30"><a xlink:href="NullOStream_8hpp.html" target="_top" xlink:title="NullOStream.hpp">
<polygon fill="white" stroke="black" points="70,-56.5 70,-75.5 162,-75.5 162,-56.5 70,-56.5"/>
<text text-anchor="middle" x="116" y="-63.5" font-family="Helvetica,sans-Serif" font-size="10.00">NullOStream.hpp</text>
</a>
</g>
</g>
<!-- Node2&#45;&gt;Node30 -->
<g id="edge42" class="edge"><title>Node2&#45;&gt;Node30</title>
<path fill="none" stroke="midnightblue" d="M247.629,-280.297C227.258,-247.286 154.511,-129.404 126.813,-84.522"/>
<polygon fill="midnightblue" stroke="midnightblue" points="129.713,-82.5557 121.482,-75.8837 123.756,-86.2319 129.713,-82.5557"/>
</g>
<!-- Node7 -->
<g id="node7" class="node"><title>Node7</title>
<polygon fill="white" stroke="#bfbfbf" points="720,-0.5 720,-19.5 774,-19.5 774,-0.5 720,-0.5"/>
<text text-anchor="middle" x="747" y="-7.5" font-family="Helvetica,sans-Serif" font-size="10.00">iostream</text>
</g>
<!-- Node6&#45;&gt;Node7 -->
<g id="edge6" class="edge"><title>Node6&#45;&gt;Node7</title>
<path fill="none" stroke="midnightblue" d="M1170.16,-224.336C1168.53,-201.889 1167.6,-141.539 1201,-112 1301.61,-23.0048 1590.1,-153.782 1498,-56 1473.29,-29.7663 932.89,-15.3172 784.438,-11.8334"/>
<polygon fill="midnightblue" stroke="midnightblue" points="784.122,-8.32525 774.043,-11.5925 783.959,-15.3234 784.122,-8.32525"/>
</g>
<!-- Node8 -->
<g id="node8" class="node"><title>Node8</title>
<g id="a_node8"><a xlink:href="pdal__export_8hpp.html" target="_top" xlink:title="pdal/pdal_export.hpp">
<polygon fill="white" stroke="black" points="1218.5,-168.5 1218.5,-187.5 1325.5,-187.5 1325.5,-168.5 1218.5,-168.5"/>
<text text-anchor="middle" x="1272" y="-175.5" font-family="Helvetica,sans-Serif" font-size="10.00">pdal/pdal_export.hpp</text>
</a>
</g>
</g>
<!-- Node6&#45;&gt;Node8 -->
<g id="edge7" class="edge"><title>Node6&#45;&gt;Node8</title>
<path fill="none" stroke="midnightblue" d="M1187.23,-224.324C1203.35,-215.703 1228.3,-202.364 1246.96,-192.386"/>
<polygon fill="midnightblue" stroke="midnightblue" points="1248.64,-195.456 1255.81,-187.655 1245.34,-189.283 1248.64,-195.456"/>
</g>
<!-- Node9 -->
<g id="node9" class="node"><title>Node9</title>
<g id="a_node9"><a xlink:href="pdal__defines_8h.html" target="_top" xlink:title="pdal/pdal_defines.h">
<polygon fill="white" stroke="black" points="1210.5,-112.5 1210.5,-131.5 1311.5,-131.5 1311.5,-112.5 1210.5,-112.5"/>
<text text-anchor="middle" x="1261" y="-119.5" font-family="Helvetica,sans-Serif" font-size="10.00">pdal/pdal_defines.h</text>
</a>
</g>
</g>
<!-- Node6&#45;&gt;Node9 -->
<g id="edge9" class="edge"><title>Node6&#45;&gt;Node9</title>
<path fill="none" stroke="midnightblue" d="M1174.88,-224.433C1181,-211.432 1193.8,-186.299 1209,-168 1218.3,-156.808 1230.53,-146.073 1240.79,-137.897"/>
<polygon fill="midnightblue" stroke="midnightblue" points="1243.07,-140.561 1248.84,-131.677 1238.79,-135.021 1243.07,-140.561"/>
</g>
<!-- Node10 -->
<g id="node10" class="node"><title>Node10</title>
<g id="a_node10"><a xlink:href="pdal__types_8hpp.html" target="_top" xlink:title="pdal/pdal_types.hpp">
<polygon fill="white" stroke="black" points="489,-168.5 489,-187.5 593,-187.5 593,-168.5 489,-168.5"/>
<text text-anchor="middle" x="541" y="-175.5" font-family="Helvetica,sans-Serif" font-size="10.00">pdal/pdal_types.hpp</text>
</a>
</g>
</g>
<!-- Node6&#45;&gt;Node10 -->
<g id="edge10" class="edge"><title>Node6&#45;&gt;Node10</title>
<path fill="none" stroke="midnightblue" d="M1115.37,-228.232C998.084,-218.179 726.174,-194.872 603.284,-184.339"/>
<polygon fill="midnightblue" stroke="midnightblue" points="603.542,-180.848 593.28,-183.481 602.945,-187.822 603.542,-180.848"/>
</g>
<!-- Node8&#45;&gt;Node9 -->
<g id="edge8" class="edge"><title>Node8&#45;&gt;Node9</title>
<path fill="none" stroke="midnightblue" d="M1270.18,-168.083C1268.73,-160.927 1266.63,-150.635 1264.81,-141.691"/>
<polygon fill="midnightblue" stroke="midnightblue" points="1268.21,-140.851 1262.78,-131.751 1261.35,-142.248 1268.21,-140.851"/>
</g>
<!-- Node10&#45;&gt;Node7 -->
<g id="edge17" class="edge"><title>Node10&#45;&gt;Node7</title>
<path fill="none" stroke="midnightblue" d="M488.789,-175.148C375.92,-169.417 125.832,-146.415 209,-56 242.805,-19.2496 593.116,-12.5012 709.582,-11.2715"/>
<polygon fill="midnightblue" stroke="midnightblue" points="709.824,-14.7694 719.79,-11.1717 709.756,-7.76971 709.824,-14.7694"/>
</g>
<!-- Node11 -->
<g id="node11" class="node"><title>Node11</title>
<polygon fill="white" stroke="#bfbfbf" points="362.5,-112.5 362.5,-131.5 411.5,-131.5 411.5,-112.5 362.5,-112.5"/>
<text text-anchor="middle" x="387" y="-119.5" font-family="Helvetica,sans-Serif" font-size="10.00">stdint.h</text>
</g>
<!-- Node10&#45;&gt;Node11 -->
<g id="edge11" class="edge"><title>Node10&#45;&gt;Node11</title>
<path fill="none" stroke="midnightblue" d="M516.598,-168.444C490.803,-159.399 449.923,-145.064 420.982,-134.916"/>
<polygon fill="midnightblue" stroke="midnightblue" points="421.882,-131.523 411.288,-131.516 419.566,-138.128 421.882,-131.523"/>
</g>
<!-- Node12 -->
<g id="node12" class="node"><title>Node12</title>
<polygon fill="white" stroke="#bfbfbf" points="429.5,-112.5 429.5,-131.5 474.5,-131.5 474.5,-112.5 429.5,-112.5"/>
<text text-anchor="middle" x="452" y="-119.5" font-family="Helvetica,sans-Serif" font-size="10.00">cstdlib</text>
</g>
<!-- Node10&#45;&gt;Node12 -->
<g id="edge12" class="edge"><title>Node10&#45;&gt;Node12</title>
<path fill="none" stroke="midnightblue" d="M526.701,-168.324C512.817,-159.9 491.508,-146.971 475.196,-137.074"/>
<polygon fill="midnightblue" stroke="midnightblue" points="476.629,-133.85 466.264,-131.655 472.998,-139.834 476.629,-133.85"/>
</g>
<!-- Node13 -->
<g id="node13" class="node"><title>Node13</title>
<polygon fill="white" stroke="#bfbfbf" points="348.5,-56.5 348.5,-75.5 397.5,-75.5 397.5,-56.5 348.5,-56.5"/>
<text text-anchor="middle" x="373" y="-63.5" font-family="Helvetica,sans-Serif" font-size="10.00">istream</text>
</g>
<!-- Node10&#45;&gt;Node13 -->
<g id="edge13" class="edge"><title>Node10&#45;&gt;Node13</title>
<path fill="none" stroke="midnightblue" d="M540.18,-168.086C538.423,-154.156 533.044,-127.248 517,-112 512.9,-108.103 448.757,-88.9732 407.476,-76.944"/>
<polygon fill="midnightblue" stroke="midnightblue" points="408.357,-73.5553 397.777,-74.1259 406.403,-80.2773 408.357,-73.5553"/>
</g>
<!-- Node14 -->
<g id="node14" class="node"><title>Node14</title>
<polygon fill="white" stroke="#bfbfbf" points="415.5,-56.5 415.5,-75.5 474.5,-75.5 474.5,-56.5 415.5,-56.5"/>
<text text-anchor="middle" x="445" y="-63.5" font-family="Helvetica,sans-Serif" font-size="10.00">stdexcept</text>
</g>
<!-- Node10&#45;&gt;Node14 -->
<g id="edge14" class="edge"><title>Node10&#45;&gt;Node14</title>
<path fill="none" stroke="midnightblue" d="M546.769,-168.219C554.694,-154.937 566.71,-129.443 555,-112 546.641,-99.5491 512.309,-86.7291 484.195,-77.9736"/>
<polygon fill="midnightblue" stroke="midnightblue" points="485.148,-74.6053 474.563,-75.0534 483.117,-81.3042 485.148,-74.6053"/>
</g>
<!-- Node10&#45;&gt;Node15 -->
<g id="edge15" class="edge"><title>Node10&#45;&gt;Node15</title>
<path fill="none" stroke="midnightblue" d="M593.153,-171.958C749.556,-156.654 1213.87,-109.829 1385.56,-75.6945"/>
<polygon fill="midnightblue" stroke="midnightblue" points="1386.37,-79.1014 1395.46,-73.6701 1384.96,-72.2431 1386.37,-79.1014"/>
</g>
<!-- Node10&#45;&gt;Node16 -->
<g id="edge16" class="edge"><title>Node10&#45;&gt;Node16</title>
<path fill="none" stroke="midnightblue" d="M535.762,-168.342C526.784,-154.27 507.076,-126.55 483,-112 429.187,-79.4778 404.996,-91.8718 340.188,-76.1255"/>
<polygon fill="midnightblue" stroke="midnightblue" points="340.879,-72.6896 330.323,-73.5894 339.136,-79.4692 340.879,-72.6896"/>
</g>
<!-- Node17 -->
<g id="node17" class="node"><title>Node17</title>
<g id="a_node17"><a xlink:href="Utils_8hpp.html" target="_top" xlink:title="pdal/util/Utils.hpp">
<polygon fill="white" stroke="black" points="702,-112.5 702,-131.5 794,-131.5 794,-112.5 702,-112.5"/>
<text text-anchor="middle" x="748" y="-119.5" font-family="Helvetica,sans-Serif" font-size="10.00">pdal/util/Utils.hpp</text>
</a>
</g>
</g>
<!-- Node10&#45;&gt;Node17 -->
<g id="edge18" class="edge"><title>Node10&#45;&gt;Node17</title>
<path fill="none" stroke="midnightblue" d="M573.8,-168.444C609.38,-159.162 666.314,-144.309 705.347,-134.127"/>
<polygon fill="midnightblue" stroke="midnightblue" points="706.561,-137.427 715.354,-131.516 704.794,-130.654 706.561,-137.427"/>
</g>
<!-- Node17&#45;&gt;Node3 -->
<g id="edge20" class="edge"><title>Node17&#45;&gt;Node3</title>
<path fill="none" stroke="midnightblue" d="M701.863,-119.097C618.863,-115.132 438.821,-104.058 277.862,-75.854"/>
<polygon fill="midnightblue" stroke="midnightblue" points="278.236,-72.3657 267.778,-74.0598 277.01,-79.2575 278.236,-72.3657"/>
</g>
<!-- Node17&#45;&gt;Node4 -->
<g id="edge30" class="edge"><title>Node17&#45;&gt;Node4</title>
<path fill="none" stroke="midnightblue" d="M701.907,-119.103C571.991,-113.582 203.66,-96.6912 62.4316,-75.8823"/>
<polygon fill="midnightblue" stroke="midnightblue" points="62.6797,-72.3792 52.2628,-74.3128 61.6118,-79.2973 62.6797,-72.3792"/>
</g>
<!-- Node17&#45;&gt;Node7 -->
<g id="edge37" class="edge"><title>Node17&#45;&gt;Node7</title>
<path fill="none" stroke="midnightblue" d="M794.353,-118.8C921.511,-112.543 1267.51,-93.9364 1284,-76 1290.02,-69.457 1290.02,-62.5426 1284,-56 1250.26,-19.3149 900.599,-12.5231 784.348,-11.277"/>
<polygon fill="midnightblue" stroke="midnightblue" points="784.194,-7.77537 774.16,-11.1757 784.125,-14.775 784.194,-7.77537"/>
</g>
<!-- Node17&#45;&gt;Node13 -->
<g id="edge27" class="edge"><title>Node17&#45;&gt;Node13</title>
<path fill="none" stroke="midnightblue" d="M701.76,-116.922C637.66,-110.828 518.067,-97.8726 407.742,-76.137"/>
<polygon fill="midnightblue" stroke="midnightblue" points="408.272,-72.6738 397.78,-74.145 406.9,-79.5379 408.272,-72.6738"/>
</g>
<!-- Node17&#45;&gt;Node14 -->
<g id="edge32" class="edge"><title>Node17&#45;&gt;Node14</title>
<path fill="none" stroke="midnightblue" d="M701.591,-113.924C650.811,-105.995 566.789,-92.334 484.763,-76.0555"/>
<polygon fill="midnightblue" stroke="midnightblue" points="485.264,-72.5865 474.772,-74.0576 483.892,-79.4506 485.264,-72.5865"/>
</g>
<!-- Node17&#45;&gt;Node15 -->
<g id="edge33" class="edge"><title>Node17&#45;&gt;Node15</title>
<path fill="none" stroke="midnightblue" d="M794.439,-119.059C918.033,-113.686 1253.92,-97.6805 1385.28,-75.6111"/>
<polygon fill="midnightblue" stroke="midnightblue" points="1386.25,-78.993 1395.49,-73.8049 1385.03,-72.0999 1386.25,-78.993"/>
</g>
<!-- Node17&#45;&gt;Node16 -->
<g id="edge36" class="edge"><title>Node17&#45;&gt;Node16</title>
<path fill="none" stroke="midnightblue" d="M701.908,-118.534C627.617,-113.992 476.748,-102.433 340.442,-75.9702"/>
<polygon fill="midnightblue" stroke="midnightblue" points="340.726,-72.4588 330.237,-73.9553 339.37,-79.3262 340.726,-72.4588"/>
</g>
<!-- Node18 -->
<g id="node18" class="node"><title>Node18</title>
<polygon fill="white" stroke="#bfbfbf" points="1029,-56.5 1029,-75.5 1085,-75.5 1085,-56.5 1029,-56.5"/>
<text text-anchor="middle" x="1057" y="-63.5" font-family="Helvetica,sans-Serif" font-size="10.00">algorithm</text>
</g>
<!-- Node17&#45;&gt;Node18 -->
<g id="edge19" class="edge"><title>Node17&#45;&gt;Node18</title>
<path fill="none" stroke="midnightblue" d="M794.395,-114.403C846.624,-106.736 934.22,-93.1607 1018.74,-76.1357"/>
<polygon fill="midnightblue" stroke="midnightblue" points="1019.67,-79.52 1028.77,-74.0973 1018.27,-72.6605 1019.67,-79.52"/>
</g>
<!-- Node19 -->
<g id="node19" class="node"><title>Node19</title>
<polygon fill="white" stroke="#bfbfbf" points="1103,-56.5 1103,-75.5 1149,-75.5 1149,-56.5 1103,-56.5"/>
<text text-anchor="middle" x="1126" y="-63.5" font-family="Helvetica,sans-Serif" font-size="10.00">cctype</text>
</g>
<!-- Node17&#45;&gt;Node19 -->
<g id="edge21" class="edge"><title>Node17&#45;&gt;Node19</title>
<path fill="none" stroke="midnightblue" d="M794.245,-117.133C858.98,-111.249 980.389,-98.5032 1092.55,-76.0413"/>
<polygon fill="midnightblue" stroke="midnightblue" points="1093.58,-79.4042 1102.68,-73.9809 1092.18,-72.5447 1093.58,-79.4042"/>
</g>
<!-- Node20 -->
<g id="node20" class="node"><title>Node20</title>
<polygon fill="white" stroke="#bfbfbf" points="1167,-56.5 1167,-75.5 1211,-75.5 1211,-56.5 1167,-56.5"/>
<text text-anchor="middle" x="1189" y="-63.5" font-family="Helvetica,sans-Serif" font-size="10.00">cmath</text>
</g>
<!-- Node17&#45;&gt;Node20 -->
<g id="edge22" class="edge"><title>Node17&#45;&gt;Node20</title>
<path fill="none" stroke="midnightblue" d="M794.204,-118.544C868.752,-114.012 1020.22,-102.454 1156.95,-75.8944"/>
<polygon fill="midnightblue" stroke="midnightblue" points="1157.63,-79.3268 1166.76,-73.956 1156.27,-72.4594 1157.63,-79.3268"/>
</g>
<!-- Node21 -->
<g id="node21" class="node"><title>Node21</title>
<polygon fill="white" stroke="#bfbfbf" points="1331,-56.5 1331,-75.5 1377,-75.5 1377,-56.5 1331,-56.5"/>
<text text-anchor="middle" x="1354" y="-63.5" font-family="Helvetica,sans-Serif" font-size="10.00">cstdint</text>
</g>
<!-- Node17&#45;&gt;Node21 -->
<g id="edge23" class="edge"><title>Node17&#45;&gt;Node21</title>
<path fill="none" stroke="midnightblue" d="M794.38,-118.291C911.425,-111.301 1216.58,-92.0778 1317,-76 1318.25,-75.8001 1319.52,-75.5799 1320.8,-75.3434"/>
<polygon fill="midnightblue" stroke="midnightblue" points="1321.56,-78.7598 1330.63,-73.2824 1320.12,-71.9087 1321.56,-78.7598"/>
</g>
<!-- Node22 -->
<g id="node22" class="node"><title>Node22</title>
<polygon fill="white" stroke="#bfbfbf" points="1229,-56.5 1229,-75.5 1275,-75.5 1275,-56.5 1229,-56.5"/>
<text text-anchor="middle" x="1252" y="-63.5" font-family="Helvetica,sans-Serif" font-size="10.00">cstring</text>
</g>
<!-- Node17&#45;&gt;Node22 -->
<g id="edge24" class="edge"><title>Node17&#45;&gt;Node22</title>
<path fill="none" stroke="midnightblue" d="M794.277,-119.337C877.521,-115.752 1058.05,-105.265 1218.64,-75.9419"/>
<polygon fill="midnightblue" stroke="midnightblue" points="1219.5,-79.3411 1228.7,-74.0752 1218.22,-72.4585 1219.5,-79.3411"/>
</g>
<!-- Node23 -->
<g id="node23" class="node"><title>Node23</title>
<polygon fill="white" stroke="#bfbfbf" points="493,-56.5 493,-75.5 543,-75.5 543,-56.5 493,-56.5"/>
<text text-anchor="middle" x="518" y="-63.5" font-family="Helvetica,sans-Serif" font-size="10.00">fstream</text>
</g>
<!-- Node17&#45;&gt;Node23 -->
<g id="edge25" class="edge"><title>Node17&#45;&gt;Node23</title>
<path fill="none" stroke="midnightblue" d="M709.234,-112.497C671.718,-104.179 613.003,-90.9312 553.218,-76.243"/>
<polygon fill="midnightblue" stroke="midnightblue" points="553.775,-72.7753 543.227,-73.7771 552.097,-79.5714 553.775,-72.7753"/>
</g>
<!-- Node24 -->
<g id="node24" class="node"><title>Node24</title>
<polygon fill="white" stroke="#bfbfbf" points="561,-56.5 561,-75.5 611,-75.5 611,-56.5 561,-56.5"/>
<text text-anchor="middle" x="586" y="-63.5" font-family="Helvetica,sans-Serif" font-size="10.00">iomanip</text>
</g>
<!-- Node17&#45;&gt;Node24 -->
<g id="edge26" class="edge"><title>Node17&#45;&gt;Node24</title>
<path fill="none" stroke="midnightblue" d="M722.331,-112.444C694.917,-103.306 651.307,-88.7689 620.813,-78.6044"/>
<polygon fill="midnightblue" stroke="midnightblue" points="621.611,-75.1809 611.017,-75.339 619.397,-81.8217 621.611,-75.1809"/>
</g>
<!-- Node25 -->
<g id="node25" class="node"><title>Node25</title>
<polygon fill="white" stroke="#bfbfbf" points="629,-56.5 629,-75.5 669,-75.5 669,-56.5 629,-56.5"/>
<text text-anchor="middle" x="649" y="-63.5" font-family="Helvetica,sans-Serif" font-size="10.00">limits</text>
</g>
<!-- Node17&#45;&gt;Node25 -->
<g id="edge28" class="edge"><title>Node17&#45;&gt;Node25</title>
<path fill="none" stroke="midnightblue" d="M732.094,-112.324C716.362,-103.743 692.058,-90.486 673.791,-80.5224"/>
<polygon fill="midnightblue" stroke="midnightblue" points="675.322,-77.3704 664.867,-75.6545 671.97,-83.5157 675.322,-77.3704"/>
</g>
<!-- Node17&#45;&gt;Node26 -->
<g id="edge29" class="edge"><title>Node17&#45;&gt;Node26</title>
<path fill="none" stroke="midnightblue" d="M794.357,-119.562C926.06,-115.236 1301.58,-101.174 1444.57,-75.4425"/>
<polygon fill="midnightblue" stroke="midnightblue" points="1445.28,-78.8698 1454.46,-73.5696 1443.98,-71.9921 1445.28,-78.8698"/>
</g>
<!-- Node27 -->
<g id="node27" class="node"><title>Node27</title>
<polygon fill="white" stroke="#bfbfbf" points="687,-56.5 687,-75.5 739,-75.5 739,-56.5 687,-56.5"/>
<text text-anchor="middle" x="713" y="-63.5" font-family="Helvetica,sans-Serif" font-size="10.00">sstream</text>
</g>
<!-- Node17&#45;&gt;Node27 -->
<g id="edge31" class="edge"><title>Node17&#45;&gt;Node27</title>
<path fill="none" stroke="midnightblue" d="M742.22,-112.083C737.328,-104.534 730.173,-93.4948 724.167,-84.2298"/>
<polygon fill="midnightblue" stroke="midnightblue" points="727.048,-82.239 718.672,-75.7511 721.174,-86.0463 727.048,-82.239"/>
</g>
<!-- Node28 -->
<g id="node28" class="node"><title>Node28</title>
<polygon fill="white" stroke="#bfbfbf" points="757.5,-56.5 757.5,-75.5 808.5,-75.5 808.5,-56.5 757.5,-56.5"/>
<text text-anchor="middle" x="783" y="-63.5" font-family="Helvetica,sans-Serif" font-size="10.00">typeinfo</text>
</g>
<!-- Node17&#45;&gt;Node28 -->
<g id="edge34" class="edge"><title>Node17&#45;&gt;Node28</title>
<path fill="none" stroke="midnightblue" d="M753.78,-112.083C758.672,-104.534 765.827,-93.4948 771.833,-84.2298"/>
<polygon fill="midnightblue" stroke="midnightblue" points="774.826,-86.0463 777.328,-75.7511 768.952,-82.239 774.826,-86.0463"/>
</g>
<!-- Node29 -->
<g id="node29" class="node"><title>Node29</title>
<polygon fill="white" stroke="#bfbfbf" points="827,-56.5 827,-75.5 889,-75.5 889,-56.5 827,-56.5"/>
<text text-anchor="middle" x="858" y="-63.5" font-family="Helvetica,sans-Serif" font-size="10.00">type_traits</text>
</g>
<!-- Node17&#45;&gt;Node29 -->
<g id="edge35" class="edge"><title>Node17&#45;&gt;Node29</title>
<path fill="none" stroke="midnightblue" d="M765.673,-112.324C783.394,-103.625 810.903,-90.1202 831.288,-80.113"/>
<polygon fill="midnightblue" stroke="midnightblue" points="832.936,-83.2031 840.37,-75.6545 829.851,-76.9195 832.936,-83.2031"/>
</g>
<!-- Node17&#45;&gt;Node30 -->
<g id="edge38" class="edge"><title>Node17&#45;&gt;Node30</title>
<path fill="none" stroke="midnightblue" d="M701.838,-117.352C608.647,-109.943 391.37,-92.4364 209,-76 197.136,-74.9307 184.425,-73.7343 172.33,-72.5716"/>
<polygon fill="midnightblue" stroke="midnightblue" points="172.638,-69.0851 162.347,-71.6065 171.964,-76.0526 172.638,-69.0851"/>
</g>
<!-- Node32 -->
<g id="node32" class="node"><title>Node32</title>
<g id="a_node32"><a xlink:href="pdal__util__export_8hpp.html" target="_top" xlink:title="pdal_util_export.hpp">
<polygon fill="white" stroke="black" points="907,-56.5 907,-75.5 1011,-75.5 1011,-56.5 907,-56.5"/>
<text text-anchor="middle" x="959" y="-63.5" font-family="Helvetica,sans-Serif" font-size="10.00">pdal_util_export.hpp</text>
</a>
</g>
</g>
<!-- Node17&#45;&gt;Node32 -->
<g id="edge41" class="edge"><title>Node17&#45;&gt;Node32</title>
<path fill="none" stroke="midnightblue" d="M781.434,-112.444C817.856,-103.122 876.23,-88.1828 916.029,-77.9972"/>
<polygon fill="midnightblue" stroke="midnightblue" points="916.903,-81.3866 925.723,-75.5164 915.167,-74.6051 916.903,-81.3866"/>
</g>
<!-- Node30&#45;&gt;Node7 -->
<g id="edge39" class="edge"><title>Node30&#45;&gt;Node7</title>
<path fill="none" stroke="midnightblue" d="M162.145,-57.7443C166.819,-57.1095 171.5,-56.5142 176,-56 376.759,-33.061 618.574,-18.1855 709.776,-13.0255"/>
<polygon fill="midnightblue" stroke="midnightblue" points="710.1,-16.5129 719.889,-12.4583 709.708,-9.52383 710.1,-16.5129"/>
</g>
<!-- Node31 -->
<g id="node31" class="node"><title>Node31</title>
<polygon fill="white" stroke="#bfbfbf" points="86,-0.5 86,-19.5 146,-19.5 146,-0.5 86,-0.5"/>
<text text-anchor="middle" x="116" y="-7.5" font-family="Helvetica,sans-Serif" font-size="10.00">streambuf</text>
</g>
<!-- Node30&#45;&gt;Node31 -->
<g id="edge40" class="edge"><title>Node30&#45;&gt;Node31</title>
<path fill="none" stroke="midnightblue" d="M116,-56.083C116,-49.0059 116,-38.8611 116,-29.9865"/>
<polygon fill="midnightblue" stroke="midnightblue" points="119.5,-29.751 116,-19.7511 112.5,-29.7511 119.5,-29.751"/>
</g>
<!-- Node33&#45;&gt;Node8 -->
<g id="edge46" class="edge"><title>Node33&#45;&gt;Node8</title>
<path fill="none" stroke="midnightblue" d="M1306.23,-224.083C1300.44,-216.455 1291.94,-205.264 1284.86,-195.941"/>
<polygon fill="midnightblue" stroke="midnightblue" points="1287.48,-193.599 1278.64,-187.751 1281.9,-197.832 1287.48,-193.599"/>
</g>
<!-- Node33&#45;&gt;Node15 -->
<g id="edge45" class="edge"><title>Node33&#45;&gt;Node15</title>
<path fill="none" stroke="midnightblue" d="M1321.14,-224.47C1329.26,-215.725 1341.8,-201.53 1351,-188 1374.59,-153.301 1396.46,-109.136 1407.83,-84.912"/>
<polygon fill="midnightblue" stroke="midnightblue" points="1411.13,-86.1081 1412.16,-75.563 1404.78,-83.1669 1411.13,-86.1081"/>
</g>
<!-- Node33&#45;&gt;Node21 -->
<g id="edge47" class="edge"><title>Node33&#45;&gt;Node21</title>
<path fill="none" stroke="midnightblue" d="M1317.92,-224.321C1322.74,-215.461 1329.92,-201.177 1334,-188 1344.88,-152.866 1350.18,-110.056 1352.48,-85.9248"/>
<polygon fill="midnightblue" stroke="midnightblue" points="1355.99,-85.9623 1353.38,-75.6943 1349.02,-85.3495 1355.99,-85.9623"/>
</g>
</g>
</svg>
