<?xml version="1.0" encoding="UTF-8" standalone="no"?>
<!DOCTYPE svg PUBLIC "-//W3C//DTD SVG 1.1//EN"
 "http://www.w3.org/Graphics/SVG/1.1/DTD/svg11.dtd">
<!-- Generated by graphviz version 2.38.0 (20140413.2041)
 -->
<!-- Title: target_include_directories Pages: 1 -->
<svg width="770pt" height="188pt"
 viewBox="0.00 0.00 770.00 188.00" xmlns="http://www.w3.org/2000/svg" xmlns:xlink="http://www.w3.org/1999/xlink">
<g id="graph0" class="graph" transform="scale(1 1) rotate(0) translate(4 184)">
<title>target_include_directories</title>
<polygon fill="white" stroke="none" points="-4,4 -4,-184 766,-184 766,4 -4,4"/>
<!-- Node1 -->
<g id="node1" class="node"><title>Node1</title>
<polygon fill="#bfbfbf" stroke="black" points="0,-25.5 0,-44.5 128,-44.5 128,-25.5 0,-25.5"/>
<text text-anchor="middle" x="64" y="-32.5" font-family="Helvetica,sans-Serif" font-size="10.00">target_include_directories</text>
</g>
<!-- Node2 -->
<g id="node2" class="node"><title>Node2</title>
<g id="a_node2"><a xlink:href="apps_2CMakeLists_8txt.html#a95003200affb100d1d71069d001d318c" target="_top" xlink:title="endif">
<polygon fill="white" stroke="black" points="164,-60.5 164,-79.5 202,-79.5 202,-60.5 164,-60.5"/>
<text text-anchor="middle" x="183" y="-67.5" font-family="Helvetica,sans-Serif" font-size="10.00">endif</text>
</a>
</g>
</g>
<!-- Node1&#45;&gt;Node2 -->
<g id="edge1" class="edge"><title>Node1&#45;&gt;Node2</title>
<path fill="none" stroke="midnightblue" d="M96.9708,-44.5639C114.788,-49.894 136.772,-56.4702 153.922,-61.6005"/>
<polygon fill="midnightblue" stroke="midnightblue" points="153.312,-65.0712 163.895,-64.584 155.318,-58.3648 153.312,-65.0712"/>
</g>
<!-- Node7 -->
<g id="node7" class="node"><title>Node7</title>
<g id="a_node7"><a xlink:href="plugins_2pgpointcloud_2CMakeLists_8txt.html#aea33ba9daf1f5c8561730ee98d4f613c" target="_top" xlink:title="PDAL_ADD_TEST">
<polygon fill="white" stroke="black" points="661,-37.5 661,-56.5 762,-56.5 762,-37.5 661,-37.5"/>
<text text-anchor="middle" x="711.5" y="-44.5" font-family="Helvetica,sans-Serif" font-size="10.00">PDAL_ADD_TEST</text>
</a>
</g>
</g>
<!-- Node1&#45;&gt;Node7 -->
<g id="edge11" class="edge"><title>Node1&#45;&gt;Node7</title>
<path fill="none" stroke="midnightblue" d="M100.2,-25.4361C141.499,-15.0732 212.193,-0 274,-0 274,-0 274,-0 405.5,-0 497.677,-6.71685e-15 603.714,-21.2281 663.349,-35.1513"/>
<polygon fill="midnightblue" stroke="midnightblue" points="662.684,-38.5905 673.221,-37.4888 664.297,-31.7789 662.684,-38.5905"/>
</g>
<!-- Node3 -->
<g id="node3" class="node"><title>Node3</title>
<g id="a_node3"><a xlink:href="test_2unit_2CMakeLists_8txt.html#ab08ac1136c19e320931be30a4ff4d593" target="_top" xlink:title="configure_file">
<polygon fill="white" stroke="black" points="238,-160.5 238,-179.5 312,-179.5 312,-160.5 238,-160.5"/>
<text text-anchor="middle" x="275" y="-167.5" font-family="Helvetica,sans-Serif" font-size="10.00">configure_file</text>
</a>
</g>
</g>
<!-- Node2&#45;&gt;Node3 -->
<g id="edge2" class="edge"><title>Node2&#45;&gt;Node3</title>
<path fill="none" stroke="midnightblue" d="M188.413,-79.603C196.346,-96.0066 214.412,-129.711 238,-151 239.495,-152.349 241.104,-153.634 242.782,-154.851"/>
<polygon fill="midnightblue" stroke="midnightblue" points="241.22,-158.004 251.548,-160.367 244.948,-152.079 241.22,-158.004"/>
</g>
<!-- Node4 -->
<g id="node4" class="node"><title>Node4</title>
<g id="a_node4"><a xlink:href="plugins_2geowave_2CMakeLists_8txt.html#a40f7f560816321b423ccda46740e1b80" target="_top" xlink:title="include">
<polygon fill="white" stroke="black" points="251.5,-122.5 251.5,-141.5 298.5,-141.5 298.5,-122.5 251.5,-122.5"/>
<text text-anchor="middle" x="275" y="-129.5" font-family="Helvetica,sans-Serif" font-size="10.00">include</text>
</a>
</g>
</g>
<!-- Node2&#45;&gt;Node4 -->
<g id="edge3" class="edge"><title>Node2&#45;&gt;Node4</title>
<path fill="none" stroke="midnightblue" d="M197.694,-79.7795C208.57,-87.5117 224.192,-98.5413 238,-108 242.121,-110.823 246.53,-113.799 250.8,-116.658"/>
<polygon fill="midnightblue" stroke="midnightblue" points="248.968,-119.643 259.231,-122.275 252.849,-113.817 248.968,-119.643"/>
</g>
<!-- Node6 -->
<g id="node6" class="node"><title>Node6</title>
<g id="a_node6"><a xlink:href="plugins_2greyhound_2CMakeLists_8txt.html#aaf2c36d971af3676acf24962f41e8fce" target="_top" xlink:title="target_include_directories">
<polygon fill="white" stroke="black" points="497,-37.5 497,-56.5 625,-56.5 625,-37.5 497,-37.5"/>
<text text-anchor="middle" x="561" y="-44.5" font-family="Helvetica,sans-Serif" font-size="10.00">target_include_directories</text>
</a>
</g>
</g>
<!-- Node2&#45;&gt;Node6 -->
<g id="edge10" class="edge"><title>Node2&#45;&gt;Node6</title>
<path fill="none" stroke="midnightblue" d="M202.135,-65.781C252.774,-58.8191 397.801,-49.16 486.924,-45.9971"/>
<polygon fill="midnightblue" stroke="midnightblue" points="487.093,-49.4935 496.97,-45.6609 486.859,-42.4974 487.093,-49.4935"/>
</g>
<!-- Node5 -->
<g id="node5" class="node"><title>Node5</title>
<g id="a_node5"><a xlink:href="plugins_2sqlite_2CMakeLists_8txt.html#ae13dd749ac3c6bc0aacc152ad068c9cf" target="_top" xlink:title="PDAL_ADD_PLUGIN">
<polygon fill="white" stroke="black" points="348,-84.5 348,-103.5 461,-103.5 461,-84.5 348,-84.5"/>
<text text-anchor="middle" x="404.5" y="-91.5" font-family="Helvetica,sans-Serif" font-size="10.00">PDAL_ADD_PLUGIN</text>
</a>
</g>
</g>
<!-- Node4&#45;&gt;Node5 -->
<g id="edge4" class="edge"><title>Node4&#45;&gt;Node5</title>
<path fill="none" stroke="midnightblue" d="M298.501,-125.294C315.905,-120.107 340.497,-112.778 361.506,-106.516"/>
<polygon fill="midnightblue" stroke="midnightblue" points="362.592,-109.844 371.176,-103.634 360.593,-103.136 362.592,-109.844"/>
</g>
<!-- Node5&#45;&gt;Node2 -->
<g id="edge9" class="edge"><title>Node5&#45;&gt;Node2</title>
<path fill="none" stroke="midnightblue" d="M347.791,-87.9088C304.66,-83.1929 246.69,-76.8545 212.539,-73.1204"/>
<polygon fill="midnightblue" stroke="midnightblue" points="212.658,-69.6127 202.337,-72.0049 211.897,-76.5712 212.658,-69.6127"/>
</g>
<!-- Node5&#45;&gt;Node6 -->
<g id="edge5" class="edge"><title>Node5&#45;&gt;Node6</title>
<path fill="none" stroke="midnightblue" d="M436.765,-84.4888C460.351,-77.3138 492.929,-67.4034 518.666,-59.5741"/>
<polygon fill="midnightblue" stroke="midnightblue" points="519.968,-62.8365 528.516,-56.5776 517.931,-56.1395 519.968,-62.8365"/>
</g>
<!-- Node5&#45;&gt;Node7 -->
<g id="edge8" class="edge"><title>Node5&#45;&gt;Node7</title>
<path fill="none" stroke="midnightblue" d="M461.192,-88.3246C505.687,-83.4467 569.558,-75.6754 625,-66 636.702,-63.9579 649.223,-61.393 660.974,-58.8143"/>
<polygon fill="midnightblue" stroke="midnightblue" points="662.068,-62.1562 671.063,-56.5576 660.54,-55.325 662.068,-62.1562"/>
</g>
<!-- Node6&#45;&gt;Node2 -->
<g id="edge6" class="edge"><title>Node6&#45;&gt;Node2</title>
<path fill="none" stroke="midnightblue" d="M496.97,-56.0502C414.268,-63.5787 272.59,-71.7739 212.394,-72.0441"/>
<polygon fill="midnightblue" stroke="midnightblue" points="212.15,-68.5431 202.135,-72.0003 212.12,-75.543 212.15,-68.5431"/>
</g>
<!-- Node6&#45;&gt;Node7 -->
<g id="edge7" class="edge"><title>Node6&#45;&gt;Node7</title>
<path fill="none" stroke="midnightblue" d="M625.408,-47C633.815,-47 642.411,-47 650.753,-47"/>
<polygon fill="midnightblue" stroke="midnightblue" points="650.773,-50.5001 660.773,-47 650.773,-43.5001 650.773,-50.5001"/>
</g>
</g>
</svg>
