<?xml version="1.0" encoding="UTF-8" standalone="no"?>
<!DOCTYPE svg PUBLIC "-//W3C//DTD SVG 1.1//EN"
 "http://www.w3.org/Graphics/SVG/1.1/DTD/svg11.dtd">
<!-- Generated by graphviz version 2.38.0 (20140413.2041)
 -->
<!-- Title: target_include_directories Pages: 1 -->
<svg width="865pt" height="350pt"
 viewBox="0.00 0.00 865.00 350.00" xmlns="http://www.w3.org/2000/svg" xmlns:xlink="http://www.w3.org/1999/xlink">
<g id="graph0" class="graph" transform="scale(1 1) rotate(0) translate(4 346)">
<title>target_include_directories</title>
<polygon fill="white" stroke="none" points="-4,4 -4,-346 861,-346 861,4 -4,4"/>
<!-- Node1 -->
<g id="node1" class="node"><title>Node1</title>
<polygon fill="#bfbfbf" stroke="black" points="0,-226.5 0,-245.5 128,-245.5 128,-226.5 0,-226.5"/>
<text text-anchor="middle" x="64" y="-233.5" font-family="Helvetica,sans-Serif" font-size="10.00">target_include_directories</text>
</g>
<!-- Node2 -->
<g id="node2" class="node"><title>Node2</title>
<g id="a_node2"><a xlink:href="test_2unit_2CMakeLists_8txt.html#ab08ac1136c19e320931be30a4ff4d593" target="_top" xlink:title="configure_file">
<polygon fill="white" stroke="black" points="333,-322.5 333,-341.5 407,-341.5 407,-322.5 333,-322.5"/>
<text text-anchor="middle" x="370" y="-329.5" font-family="Helvetica,sans-Serif" font-size="10.00">configure_file</text>
</a>
</g>
</g>
<!-- Node1&#45;&gt;Node2 -->
<g id="edge1" class="edge"><title>Node1&#45;&gt;Node2</title>
<path fill="none" stroke="midnightblue" d="M95.2601,-245.556C150.458,-262.987 267.469,-299.937 329.104,-319.401"/>
<polygon fill="midnightblue" stroke="midnightblue" points="328.272,-322.809 338.862,-322.483 330.38,-316.134 328.272,-322.809"/>
</g>
<!-- Node3 -->
<g id="node3" class="node"><title>Node3</title>
<g id="a_node3"><a xlink:href="plugins_2cpd_2CMakeLists_8txt.html#a07f071e11fd317756f94ff028b629ebf" target="_top" xlink:title="option">
<polygon fill="white" stroke="black" points="164,-133.5 164,-152.5 207,-152.5 207,-133.5 164,-133.5"/>
<text text-anchor="middle" x="185.5" y="-140.5" font-family="Helvetica,sans-Serif" font-size="10.00">option</text>
</a>
</g>
</g>
<!-- Node1&#45;&gt;Node3 -->
<g id="edge2" class="edge"><title>Node1&#45;&gt;Node3</title>
<path fill="none" stroke="midnightblue" d="M77.3385,-226.398C97.8224,-210.456 139.055,-178.367 163.976,-158.973"/>
<polygon fill="midnightblue" stroke="midnightblue" points="166.307,-161.593 172.05,-152.689 162.008,-156.069 166.307,-161.593"/>
</g>
<!-- Node4 -->
<g id="node4" class="node"><title>Node4</title>
<g id="a_node4"><a xlink:href="apps_2CMakeLists_8txt.html#a95003200affb100d1d71069d001d318c" target="_top" xlink:title="endif">
<polygon fill="white" stroke="black" points="251,-220.5 251,-239.5 289,-239.5 289,-220.5 251,-220.5"/>
<text text-anchor="middle" x="270" y="-227.5" font-family="Helvetica,sans-Serif" font-size="10.00">endif</text>
</a>
</g>
</g>
<!-- Node3&#45;&gt;Node4 -->
<g id="edge3" class="edge"><title>Node3&#45;&gt;Node4</title>
<path fill="none" stroke="midnightblue" d="M195.644,-152.643C209.396,-167.145 235.607,-194.786 252.687,-212.798"/>
<polygon fill="midnightblue" stroke="midnightblue" points="250.394,-215.466 259.815,-220.314 255.474,-210.649 250.394,-215.466"/>
</g>
<!-- Node6 -->
<g id="node6" class="node"><title>Node6</title>
<g id="a_node6"><a xlink:href="plugins_2sqlite_2CMakeLists_8txt.html#ae13dd749ac3c6bc0aacc152ad068c9cf" target="_top" xlink:title="PDAL_ADD_PLUGIN">
<polygon fill="white" stroke="black" points="443,-246.5 443,-265.5 556,-265.5 556,-246.5 443,-246.5"/>
<text text-anchor="middle" x="499.5" y="-253.5" font-family="Helvetica,sans-Serif" font-size="10.00">PDAL_ADD_PLUGIN</text>
</a>
</g>
</g>
<!-- Node3&#45;&gt;Node6 -->
<g id="edge16" class="edge"><title>Node3&#45;&gt;Node6</title>
<path fill="none" stroke="midnightblue" d="M207.456,-150.59C259.829,-169.558 396.916,-219.208 462.514,-242.967"/>
<polygon fill="midnightblue" stroke="midnightblue" points="461.436,-246.299 472.03,-246.413 463.82,-239.717 461.436,-246.299"/>
</g>
<!-- Node7 -->
<g id="node7" class="node"><title>Node7</title>
<g id="a_node7"><a xlink:href="plugins_2greyhound_2CMakeLists_8txt.html#aaf2c36d971af3676acf24962f41e8fce" target="_top" xlink:title="target_include_directories">
<polygon fill="white" stroke="black" points="592,-199.5 592,-218.5 720,-218.5 720,-199.5 592,-199.5"/>
<text text-anchor="middle" x="656" y="-206.5" font-family="Helvetica,sans-Serif" font-size="10.00">target_include_directories</text>
</a>
</g>
</g>
<!-- Node3&#45;&gt;Node7 -->
<g id="edge18" class="edge"><title>Node3&#45;&gt;Node7</title>
<path fill="none" stroke="midnightblue" d="M207.235,-145.921C271.976,-155.041 472.555,-183.298 581.976,-198.713"/>
<polygon fill="midnightblue" stroke="midnightblue" points="581.56,-202.189 591.951,-200.118 582.537,-195.257 581.56,-202.189"/>
</g>
<!-- Node8 -->
<g id="node8" class="node"><title>Node8</title>
<g id="a_node8"><a xlink:href="plugins_2pgpointcloud_2CMakeLists_8txt.html#aea33ba9daf1f5c8561730ee98d4f613c" target="_top" xlink:title="PDAL_ADD_TEST">
<polygon fill="white" stroke="black" points="756,-199.5 756,-218.5 857,-218.5 857,-199.5 756,-199.5"/>
<text text-anchor="middle" x="806.5" y="-206.5" font-family="Helvetica,sans-Serif" font-size="10.00">PDAL_ADD_TEST</text>
</a>
</g>
</g>
<!-- Node3&#45;&gt;Node8 -->
<g id="edge17" class="edge"><title>Node3&#45;&gt;Node8</title>
<path fill="none" stroke="midnightblue" d="M204.313,-133.459C236.32,-117.233 306.098,-86 369,-86 369,-86 369,-86 500.5,-86 614.213,-86 735.596,-160.447 783.889,-193.504"/>
<polygon fill="midnightblue" stroke="midnightblue" points="782.086,-196.513 792.294,-199.348 786.082,-190.766 782.086,-196.513"/>
</g>
<!-- Node9 -->
<g id="node9" class="node"><title>Node9</title>
<g id="a_node9"><a xlink:href="namespacehag.html#a39becb5458bcac317093e468da1639be" target="_top" xlink:title="hag.filter">
<polygon fill="white" stroke="black" points="243,-38.5 243,-57.5 297,-57.5 297,-38.5 243,-38.5"/>
<text text-anchor="middle" x="270" y="-45.5" font-family="Helvetica,sans-Serif" font-size="10.00">hag.filter</text>
</a>
</g>
</g>
<!-- Node3&#45;&gt;Node9 -->
<g id="edge13" class="edge"><title>Node3&#45;&gt;Node9</title>
<path fill="none" stroke="midnightblue" d="M193.379,-133.435C203.606,-119.434 223.697,-92.7711 243,-72 245.3,-69.525 247.812,-67.0058 250.338,-64.5754"/>
<polygon fill="midnightblue" stroke="midnightblue" points="252.815,-67.0522 257.764,-57.6846 248.053,-61.9209 252.815,-67.0522"/>
</g>
<!-- Node4&#45;&gt;Node2 -->
<g id="edge4" class="edge"><title>Node4&#45;&gt;Node2</title>
<path fill="none" stroke="midnightblue" d="M276.208,-239.54C285.682,-256.196 307.163,-290.908 333,-313 334.702,-314.455 336.534,-315.841 338.438,-317.153"/>
<polygon fill="midnightblue" stroke="midnightblue" points="336.706,-320.196 347.066,-322.412 340.349,-314.219 336.706,-320.196"/>
</g>
<!-- Node5 -->
<g id="node5" class="node"><title>Node5</title>
<g id="a_node5"><a xlink:href="plugins_2geowave_2CMakeLists_8txt.html#a40f7f560816321b423ccda46740e1b80" target="_top" xlink:title="include">
<polygon fill="white" stroke="black" points="346.5,-284.5 346.5,-303.5 393.5,-303.5 393.5,-284.5 346.5,-284.5"/>
<text text-anchor="middle" x="370" y="-291.5" font-family="Helvetica,sans-Serif" font-size="10.00">include</text>
</a>
</g>
</g>
<!-- Node4&#45;&gt;Node5 -->
<g id="edge5" class="edge"><title>Node4&#45;&gt;Node5</title>
<path fill="none" stroke="midnightblue" d="M285.884,-239.72C301.805,-250.118 327.267,-266.746 345.817,-278.86"/>
<polygon fill="midnightblue" stroke="midnightblue" points="344.01,-281.861 354.297,-284.398 347.838,-276 344.01,-281.861"/>
</g>
<!-- Node4&#45;&gt;Node7 -->
<g id="edge12" class="edge"><title>Node4&#45;&gt;Node7</title>
<path fill="none" stroke="midnightblue" d="M289.006,-225.944C340.529,-219.208 490.688,-210.208 581.872,-207.564"/>
<polygon fill="midnightblue" stroke="midnightblue" points="581.968,-211.063 591.87,-207.294 581.779,-204.066 581.968,-211.063"/>
</g>
<!-- Node5&#45;&gt;Node6 -->
<g id="edge6" class="edge"><title>Node5&#45;&gt;Node6</title>
<path fill="none" stroke="midnightblue" d="M393.501,-287.294C410.905,-282.107 435.497,-274.778 456.506,-268.516"/>
<polygon fill="midnightblue" stroke="midnightblue" points="457.592,-271.844 466.176,-265.634 455.593,-265.136 457.592,-271.844"/>
</g>
<!-- Node6&#45;&gt;Node4 -->
<g id="edge11" class="edge"><title>Node6&#45;&gt;Node4</title>
<path fill="none" stroke="midnightblue" d="M442.711,-249.624C397.336,-244.438 335.171,-237.334 299.429,-233.249"/>
<polygon fill="midnightblue" stroke="midnightblue" points="299.565,-229.742 289.233,-232.084 298.771,-236.697 299.565,-229.742"/>
</g>
<!-- Node6&#45;&gt;Node7 -->
<g id="edge7" class="edge"><title>Node6&#45;&gt;Node7</title>
<path fill="none" stroke="midnightblue" d="M531.765,-246.489C555.351,-239.314 587.929,-229.403 613.666,-221.574"/>
<polygon fill="midnightblue" stroke="midnightblue" points="614.968,-224.836 623.516,-218.578 612.931,-218.14 614.968,-224.836"/>
</g>
<!-- Node6&#45;&gt;Node8 -->
<g id="edge10" class="edge"><title>Node6&#45;&gt;Node8</title>
<path fill="none" stroke="midnightblue" d="M556.192,-250.325C600.687,-245.447 664.558,-237.675 720,-228 731.702,-225.958 744.223,-223.393 755.974,-220.814"/>
<polygon fill="midnightblue" stroke="midnightblue" points="757.068,-224.156 766.063,-218.558 755.54,-217.325 757.068,-224.156"/>
</g>
<!-- Node7&#45;&gt;Node4 -->
<g id="edge8" class="edge"><title>Node7&#45;&gt;Node4</title>
<path fill="none" stroke="midnightblue" d="M591.87,-217.61C507.17,-224.766 360.319,-232.32 299.079,-232.194"/>
<polygon fill="midnightblue" stroke="midnightblue" points="299.043,-228.693 289.006,-232.086 298.968,-235.693 299.043,-228.693"/>
</g>
<!-- Node7&#45;&gt;Node8 -->
<g id="edge9" class="edge"><title>Node7&#45;&gt;Node8</title>
<path fill="none" stroke="midnightblue" d="M720.408,-209C728.815,-209 737.411,-209 745.753,-209"/>
<polygon fill="midnightblue" stroke="midnightblue" points="745.773,-212.5 755.773,-209 745.773,-205.5 745.773,-212.5"/>
</g>
<!-- Node10 -->
<g id="node10" class="node"><title>Node10</title>
<g id="a_node10"><a xlink:href="namespacehag.html#aee422d0ebdb1730554711d82498e54c3" target="_top" xlink:title="hag.wakeup">
<polygon fill="white" stroke="black" points="335.5,-38.5 335.5,-57.5 404.5,-57.5 404.5,-38.5 335.5,-38.5"/>
<text text-anchor="middle" x="370" y="-45.5" font-family="Helvetica,sans-Serif" font-size="10.00">hag.wakeup</text>
</a>
</g>
</g>
<!-- Node9&#45;&gt;Node10 -->
<g id="edge14" class="edge"><title>Node9&#45;&gt;Node10</title>
<path fill="none" stroke="midnightblue" d="M297.005,-48C305.667,-48 315.568,-48 325.199,-48"/>
<polygon fill="midnightblue" stroke="midnightblue" points="325.471,-51.5001 335.471,-48 325.471,-44.5001 325.471,-51.5001"/>
</g>
<!-- Node11 -->
<g id="node11" class="node"><title>Node11</title>
<g id="a_node11"><a xlink:href="namespacehag.html#acad63bbd5fdda01bf56ff6aae70a0192" target="_top" xlink:title="hag.read">
<polygon fill="white" stroke="black" points="343,-0.5 343,-19.5 397,-19.5 397,-0.5 343,-0.5"/>
<text text-anchor="middle" x="370" y="-7.5" font-family="Helvetica,sans-Serif" font-size="10.00">hag.read</text>
</a>
</g>
</g>
<!-- Node9&#45;&gt;Node11 -->
<g id="edge15" class="edge"><title>Node9&#45;&gt;Node11</title>
<path fill="none" stroke="midnightblue" d="M295.73,-38.411C307.568,-33.8206 321.935,-28.2497 334.8,-23.2612"/>
<polygon fill="midnightblue" stroke="midnightblue" points="336.22,-26.4645 344.278,-19.5859 333.689,-19.938 336.22,-26.4645"/>
</g>
</g>
</svg>
