<?xml version="1.0" encoding="UTF-8" standalone="no"?>
<!DOCTYPE svg PUBLIC "-//W3C//DTD SVG 1.1//EN"
 "http://www.w3.org/Graphics/SVG/1.1/DTD/svg11.dtd">
<!-- Generated by graphviz version 2.38.0 (20140413.2041)
 -->
<!-- Title: PDAL_ADD_TEST Pages: 1 -->
<svg width="1257pt" height="540pt"
 viewBox="0.00 0.00 1257.00 540.15" xmlns="http://www.w3.org/2000/svg" xmlns:xlink="http://www.w3.org/1999/xlink">
<g id="graph0" class="graph" transform="scale(1 1) rotate(0) translate(4 536.149)">
<title>PDAL_ADD_TEST</title>
<polygon fill="white" stroke="none" points="-4,4 -4,-536.149 1253,-536.149 1253,4 -4,4"/>
<!-- Node1 -->
<g id="node1" class="node"><title>Node1</title>
<polygon fill="#bfbfbf" stroke="black" points="0,-360.649 0,-379.649 101,-379.649 101,-360.649 0,-360.649"/>
<text text-anchor="middle" x="50.5" y="-367.649" font-family="Helvetica,sans-Serif" font-size="10.00">PDAL_ADD_TEST</text>
</g>
<!-- Node2 -->
<g id="node2" class="node"><title>Node2</title>
<g id="a_node2"><a xlink:href="plugins_2pcl_2CMakeLists_8txt.html#aeb94e26e191424877b600ea56cb1988a" target="_top" xlink:title="find_package">
<polygon fill="white" stroke="black" points="809.5,-370.649 809.5,-389.649 883.5,-389.649 883.5,-370.649 809.5,-370.649"/>
<text text-anchor="middle" x="846.5" y="-377.649" font-family="Helvetica,sans-Serif" font-size="10.00">find_package</text>
</a>
</g>
</g>
<!-- Node1&#45;&gt;Node2 -->
<g id="edge1" class="edge"><title>Node1&#45;&gt;Node2</title>
<path fill="none" stroke="midnightblue" d="M72.1702,-385.536C118.893,-418.742 237.293,-494.149 349,-494.149 349,-494.149 349,-494.149 516.5,-494.149 643.747,-494.149 784.176,-417.071 830.075,-389.672"/>
<polygon fill="midnightblue" stroke="midnightblue" points="74.2069,-382.69 64.0506,-379.673 70.109,-388.365 74.2069,-382.69"/>
</g>
<!-- Node3 -->
<g id="node3" class="node"><title>Node3</title>
<g id="a_node3"><a xlink:href="plugins_2matlab_2CMakeLists_8txt.html#a139691a0c4a734d96555f643d75185e4" target="_top" xlink:title="include">
<polygon fill="white" stroke="black" points="1000.5,-161.649 1000.5,-180.649 1047.5,-180.649 1047.5,-161.649 1000.5,-161.649"/>
<text text-anchor="middle" x="1024" y="-168.649" font-family="Helvetica,sans-Serif" font-size="10.00">include</text>
</a>
</g>
</g>
<!-- Node1&#45;&gt;Node3 -->
<g id="edge2" class="edge"><title>Node1&#45;&gt;Node3</title>
<path fill="none" stroke="midnightblue" d="M51.1254,-350.414C51.2193,-297.372 58.8965,-150.27 137,-69.1488 205.725,2.23138 249.913,-0.148759 349,-0.148759 349,-0.148759 349,-0.148759 682,-0.148759 789.658,-0.148759 818.227,-23.2628 912,-76.1488 954.862,-100.322 996.506,-142.414 1014.16,-161.385"/>
<polygon fill="midnightblue" stroke="midnightblue" points="47.6261,-350.535 51.2024,-360.508 54.6259,-350.481 47.6261,-350.535"/>
</g>
<!-- Node4 -->
<g id="node4" class="node"><title>Node4</title>
<g id="a_node4"><a xlink:href="plugins_2cpd_2CMakeLists_8txt.html#a07f071e11fd317756f94ff028b629ebf" target="_top" xlink:title="option">
<polygon fill="white" stroke="black" points="825,-427.649 825,-446.649 868,-446.649 868,-427.649 825,-427.649"/>
<text text-anchor="middle" x="846.5" y="-434.649" font-family="Helvetica,sans-Serif" font-size="10.00">option</text>
</a>
</g>
</g>
<!-- Node1&#45;&gt;Node4 -->
<g id="edge3" class="edge"><title>Node1&#45;&gt;Node4</title>
<path fill="none" stroke="midnightblue" d="M62.9178,-388.348C77.5154,-410.163 104.793,-446.372 137,-467.149 219.815,-520.572 250.449,-532.149 349,-532.149 349,-532.149 349,-532.149 516.5,-532.149 638.673,-532.149 776.703,-470.932 826.406,-446.781"/>
<polygon fill="midnightblue" stroke="midnightblue" points="65.6824,-386.179 57.2954,-379.706 59.8148,-389.997 65.6824,-386.179"/>
</g>
<!-- Node13 -->
<g id="node13" class="node"><title>Node13</title>
<g id="a_node13"><a xlink:href="plugins_2sqlite_2CMakeLists_8txt.html#ae13dd749ac3c6bc0aacc152ad068c9cf" target="_top" xlink:title="PDAL_ADD_PLUGIN">
<polygon fill="white" stroke="black" points="137,-313.649 137,-332.649 250,-332.649 250,-313.649 137,-313.649"/>
<text text-anchor="middle" x="193.5" y="-320.649" font-family="Helvetica,sans-Serif" font-size="10.00">PDAL_ADD_PLUGIN</text>
</a>
</g>
</g>
<!-- Node1&#45;&gt;Node13 -->
<g id="edge12" class="edge"><title>Node1&#45;&gt;Node13</title>
<path fill="none" stroke="midnightblue" d="M89.5964,-357.45C112.864,-349.694 142.151,-339.932 163.525,-332.807"/>
<polygon fill="midnightblue" stroke="midnightblue" points="88.4135,-354.155 80.0335,-360.638 90.6271,-360.796 88.4135,-354.155"/>
</g>
<!-- Node18 -->
<g id="node18" class="node"><title>Node18</title>
<g id="a_node18"><a xlink:href="tools_2nitfwrap_2CMakeLists_8txt.html#a69a6adbdb33d6a3b0f2011b256f0a7a7" target="_top" xlink:title="set">
<polygon fill="white" stroke="black" points="831.5,-85.6488 831.5,-104.649 861.5,-104.649 861.5,-85.6488 831.5,-85.6488"/>
<text text-anchor="middle" x="846.5" y="-92.6488" font-family="Helvetica,sans-Serif" font-size="10.00">set</text>
</a>
</g>
</g>
<!-- Node1&#45;&gt;Node18 -->
<g id="edge41" class="edge"><title>Node1&#45;&gt;Node18</title>
<path fill="none" stroke="midnightblue" d="M57.9563,-350.689C82.8914,-279.609 180.032,-38.1488 349,-38.1488 349,-38.1488 349,-38.1488 516.5,-38.1488 639.974,-38.1488 785.738,-77.6085 831.222,-90.8645"/>
<polygon fill="midnightblue" stroke="midnightblue" points="54.501,-349.976 54.5744,-360.571 61.1238,-352.243 54.501,-349.976"/>
</g>
<!-- Node19 -->
<g id="node19" class="node"><title>Node19</title>
<g id="a_node19"><a xlink:href="plugins_2greyhound_2CMakeLists_8txt.html#aaf2c36d971af3676acf24962f41e8fce" target="_top" xlink:title="target_include_directories">
<polygon fill="white" stroke="black" points="617,-294.649 617,-313.649 745,-313.649 745,-294.649 617,-294.649"/>
<text text-anchor="middle" x="681" y="-301.649" font-family="Helvetica,sans-Serif" font-size="10.00">target_include_directories</text>
</a>
</g>
</g>
<!-- Node1&#45;&gt;Node19 -->
<g id="edge42" class="edge"><title>Node1&#45;&gt;Node19</title>
<path fill="none" stroke="midnightblue" d="M111.051,-367.504C209.347,-362.598 411.541,-350.223 581,-325.149 600.814,-322.217 622.613,-317.732 640.7,-313.658"/>
<polygon fill="midnightblue" stroke="midnightblue" points="110.828,-364.01 101.012,-367.997 111.172,-371.002 110.828,-364.01"/>
</g>
<!-- Node5 -->
<g id="node5" class="node"><title>Node5</title>
<g id="a_node5"><a xlink:href="classpdal_1_1Options.html#a1a7ad95963052f30ee58f7958c201edf" target="_top" xlink:title="pdal::Options::fromCmdlineFile">
<polygon fill="white" stroke="black" points="948,-465.649 948,-484.649 1100,-484.649 1100,-465.649 948,-465.649"/>
<text text-anchor="middle" x="1024" y="-472.649" font-family="Helvetica,sans-Serif" font-size="10.00">pdal::Options::fromCmdlineFile</text>
</a>
</g>
</g>
<!-- Node4&#45;&gt;Node5 -->
<g id="edge4" class="edge"><title>Node4&#45;&gt;Node5</title>
<path fill="none" stroke="midnightblue" d="M878.308,-443.82C906.224,-449.864 947.671,-458.838 979.059,-465.634"/>
<polygon fill="midnightblue" stroke="midnightblue" points="878.836,-440.353 868.321,-441.657 877.354,-447.194 878.836,-440.353"/>
</g>
<!-- Node6 -->
<g id="node6" class="node"><title>Node6</title>
<g id="a_node6"><a xlink:href="classpdal_1_1Options.html#ab379e8c7e61c2eb6db89b13922cea7d2" target="_top" xlink:title="pdal::Options::Options">
<polygon fill="white" stroke="black" points="967,-427.649 967,-446.649 1081,-446.649 1081,-427.649 967,-427.649"/>
<text text-anchor="middle" x="1024" y="-434.649" font-family="Helvetica,sans-Serif" font-size="10.00">pdal::Options::Options</text>
</a>
</g>
</g>
<!-- Node4&#45;&gt;Node6 -->
<g id="edge5" class="edge"><title>Node4&#45;&gt;Node6</title>
<path fill="none" stroke="midnightblue" d="M878.441,-437.149C902.875,-437.149 937.616,-437.149 966.916,-437.149"/>
<polygon fill="midnightblue" stroke="midnightblue" points="878.321,-433.649 868.321,-437.149 878.321,-440.649 878.321,-433.649"/>
</g>
<!-- Node7 -->
<g id="node7" class="node"><title>Node7</title>
<g id="a_node7"><a xlink:href="classpdal_1_1Options.html#ac68182ff4da939a6896f9cbb2fc0dd90" target="_top" xlink:title="pdal::Options::replace">
<polygon fill="white" stroke="black" points="968,-389.649 968,-408.649 1080,-408.649 1080,-389.649 968,-389.649"/>
<text text-anchor="middle" x="1024" y="-396.649" font-family="Helvetica,sans-Serif" font-size="10.00">pdal::Options::replace</text>
</a>
</g>
</g>
<!-- Node4&#45;&gt;Node7 -->
<g id="edge6" class="edge"><title>Node4&#45;&gt;Node7</title>
<path fill="none" stroke="midnightblue" d="M878.308,-430.478C906.224,-424.434 947.671,-415.459 979.059,-408.663"/>
<polygon fill="midnightblue" stroke="midnightblue" points="877.354,-427.103 868.321,-432.64 878.836,-433.945 877.354,-427.103"/>
</g>
<!-- Node11 -->
<g id="node11" class="node"><title>Node11</title>
<g id="a_node11"><a xlink:href="plugins_2rxp_2CMakeLists_8txt.html#a96f116bcb64cc351c935f3bfcd6dcbca" target="_top" xlink:title="target_include_directories">
<polygon fill="white" stroke="black" points="960,-351.649 960,-370.649 1088,-370.649 1088,-351.649 960,-351.649"/>
<text text-anchor="middle" x="1024" y="-358.649" font-family="Helvetica,sans-Serif" font-size="10.00">target_include_directories</text>
</a>
</g>
</g>
<!-- Node4&#45;&gt;Node11 -->
<g id="edge10" class="edge"><title>Node4&#45;&gt;Node11</title>
<path fill="none" stroke="midnightblue" d="M872.979,-422.227C900.127,-406.404 940.258,-383.259 948,-380.149 957.223,-376.443 967.381,-373.292 977.163,-370.685"/>
<polygon fill="midnightblue" stroke="midnightblue" points="870.863,-419.41 863.992,-427.474 874.393,-425.455 870.863,-419.41"/>
</g>
<!-- Node12 -->
<g id="node12" class="node"><title>Node12</title>
<g id="a_node12"><a xlink:href="namespacepdal.html#aeb4ef85ebf69fda6f12fd1c6ce19c695" target="_top" xlink:title="pdal::TEST">
<polygon fill="white" stroke="black" points="991,-503.649 991,-522.649 1057,-522.649 1057,-503.649 991,-503.649"/>
<text text-anchor="middle" x="1024" y="-510.649" font-family="Helvetica,sans-Serif" font-size="10.00">pdal::TEST</text>
</a>
</g>
</g>
<!-- Node4&#45;&gt;Node12 -->
<g id="edge11" class="edge"><title>Node4&#45;&gt;Node12</title>
<path fill="none" stroke="midnightblue" d="M870.138,-452.332C889.95,-465.037 919.881,-482.852 948,-494.149 961.586,-499.607 977.199,-503.862 990.65,-506.948"/>
<polygon fill="midnightblue" stroke="midnightblue" points="871.824,-449.253 861.534,-446.727 868.002,-455.118 871.824,-449.253"/>
</g>
<!-- Node8 -->
<g id="node8" class="node"><title>Node8</title>
<g id="a_node8"><a xlink:href="classpdal_1_1PipelineManager.html#a9b5b93498ef9ce477c9be6125816b97f" target="_top" xlink:title="pdal::PipelineManager\l::makeReader">
<polygon fill="white" stroke="black" points="1136,-433.149 1136,-463.149 1249,-463.149 1249,-433.149 1136,-433.149"/>
<text text-anchor="start" x="1144" y="-451.149" font-family="Helvetica,sans-Serif" font-size="10.00">pdal::PipelineManager</text>
<text text-anchor="middle" x="1192.5" y="-440.149" font-family="Helvetica,sans-Serif" font-size="10.00">::makeReader</text>
</a>
</g>
</g>
<!-- Node7&#45;&gt;Node8 -->
<g id="edge7" class="edge"><title>Node7&#45;&gt;Node8</title>
<path fill="none" stroke="midnightblue" d="M1074.65,-411.215C1083.14,-413.423 1091.84,-415.781 1100,-418.149 1115.57,-422.669 1132.48,-428.07 1147.48,-433.037"/>
<polygon fill="midnightblue" stroke="midnightblue" points="1075.4,-407.793 1064.84,-408.7 1073.66,-414.574 1075.4,-407.793"/>
</g>
<!-- Node9 -->
<g id="node9" class="node"><title>Node9</title>
<g id="a_node9"><a xlink:href="classpdal_1_1PipelineManager.html#a799449dfca11d1961ea0ecd8cdb886a5" target="_top" xlink:title="pdal::PipelineManager\l::makeWriter">
<polygon fill="white" stroke="black" points="1136,-384.149 1136,-414.149 1249,-414.149 1249,-384.149 1136,-384.149"/>
<text text-anchor="start" x="1144" y="-402.149" font-family="Helvetica,sans-Serif" font-size="10.00">pdal::PipelineManager</text>
<text text-anchor="middle" x="1192.5" y="-391.149" font-family="Helvetica,sans-Serif" font-size="10.00">::makeWriter</text>
</a>
</g>
</g>
<!-- Node7&#45;&gt;Node9 -->
<g id="edge8" class="edge"><title>Node7&#45;&gt;Node9</title>
<path fill="none" stroke="midnightblue" d="M1090.62,-399.149C1105.55,-399.149 1121.26,-399.149 1135.73,-399.149"/>
<polygon fill="midnightblue" stroke="midnightblue" points="1090.44,-395.649 1080.44,-399.149 1090.44,-402.649 1090.44,-395.649"/>
</g>
<!-- Node10 -->
<g id="node10" class="node"><title>Node10</title>
<g id="a_node10"><a xlink:href="BPFTest_8cpp.html#a30071d5dd68251f1768dbe4e3623c615" target="_top" xlink:title="TEST">
<polygon fill="white" stroke="black" points="1171.5,-345.649 1171.5,-364.649 1213.5,-364.649 1213.5,-345.649 1171.5,-345.649"/>
<text text-anchor="middle" x="1192.5" y="-352.649" font-family="Helvetica,sans-Serif" font-size="10.00">TEST</text>
</a>
</g>
</g>
<!-- Node7&#45;&gt;Node10 -->
<g id="edge9" class="edge"><title>Node7&#45;&gt;Node10</title>
<path fill="none" stroke="midnightblue" d="M1073.11,-387.102C1082.06,-384.822 1091.32,-382.435 1100,-380.149 1124.52,-373.693 1152.65,-365.957 1171.18,-360.818"/>
<polygon fill="midnightblue" stroke="midnightblue" points="1072.02,-383.767 1063.19,-389.62 1073.74,-390.552 1072.02,-383.767"/>
</g>
<!-- Node13&#45;&gt;Node2 -->
<g id="edge40" class="edge"><title>Node13&#45;&gt;Node2</title>
<path fill="none" stroke="midnightblue" d="M260.262,-328.907C396.078,-340.798 703.672,-367.731 809.181,-376.969"/>
<polygon fill="midnightblue" stroke="midnightblue" points="260.271,-325.394 250.004,-328.009 259.66,-332.368 260.271,-325.394"/>
</g>
<!-- Node13&#45;&gt;Node4 -->
<g id="edge13" class="edge"><title>Node13&#45;&gt;Node4</title>
<path fill="none" stroke="midnightblue" d="M231.656,-335.853C248.153,-341.146 267.895,-347.01 286,-351.149 493.896,-398.674 751.356,-427.422 824.976,-435.078"/>
<polygon fill="midnightblue" stroke="midnightblue" points="232.44,-332.427 221.848,-332.652 230.268,-339.082 232.44,-332.427"/>
</g>
<!-- Node14 -->
<g id="node14" class="node"><title>Node14</title>
<g id="a_node14"><a xlink:href="plugins_2geowave_2CMakeLists_8txt.html#a40f7f560816321b423ccda46740e1b80" target="_top" xlink:title="include">
<polygon fill="white" stroke="black" points="326.5,-199.649 326.5,-218.649 373.5,-218.649 373.5,-199.649 326.5,-199.649"/>
<text text-anchor="middle" x="350" y="-206.649" font-family="Helvetica,sans-Serif" font-size="10.00">include</text>
</a>
</g>
</g>
<!-- Node13&#45;&gt;Node14 -->
<g id="edge14" class="edge"><title>Node13&#45;&gt;Node14</title>
<path fill="none" stroke="midnightblue" d="M207.118,-305.296C223.116,-283.939 252.661,-248.522 286,-228.149 298.283,-220.643 313.736,-215.923 326.264,-213.065"/>
<polygon fill="midnightblue" stroke="midnightblue" points="204.195,-303.365 201.12,-313.504 209.846,-307.495 204.195,-303.365"/>
</g>
<!-- Node25 -->
<g id="node25" class="node"><title>Node25</title>
<g id="a_node25"><a xlink:href="plugins_2nitf_2CMakeLists_8txt.html#a807418d94ca8fa37342c97e0b10aba9f" target="_top" xlink:title="target_include_directories">
<polygon fill="white" stroke="black" points="286,-237.649 286,-256.649 414,-256.649 414,-237.649 286,-237.649"/>
<text text-anchor="middle" x="350" y="-244.649" font-family="Helvetica,sans-Serif" font-size="10.00">target_include_directories</text>
</a>
</g>
</g>
<!-- Node13&#45;&gt;Node25 -->
<g id="edge39" class="edge"><title>Node13&#45;&gt;Node25</title>
<path fill="none" stroke="midnightblue" d="M218.406,-308.223C236.561,-297.22 262.354,-282.292 286,-271.149 297.329,-265.81 310.193,-260.742 321.331,-256.65"/>
<polygon fill="midnightblue" stroke="midnightblue" points="216.36,-305.371 209.659,-313.578 220.016,-311.341 216.36,-305.371"/>
</g>
<!-- Node15 -->
<g id="node15" class="node"><title>Node15</title>
<g id="a_node15"><a xlink:href="java_2native_2src_2CMakeLists_8txt.html#a997bd4020962e458d3948eb3e383cbdd" target="_top" xlink:title="cmake_minimum_required">
<polygon fill="white" stroke="black" points="450,-189.649 450,-208.649 581,-208.649 581,-189.649 450,-189.649"/>
<text text-anchor="middle" x="515.5" y="-196.649" font-family="Helvetica,sans-Serif" font-size="10.00">cmake_minimum_required</text>
</a>
</g>
</g>
<!-- Node14&#45;&gt;Node15 -->
<g id="edge15" class="edge"><title>Node14&#45;&gt;Node15</title>
<path fill="none" stroke="midnightblue" d="M383.877,-207.138C402.741,-205.984 427.09,-204.495 449.646,-203.115"/>
<polygon fill="midnightblue" stroke="midnightblue" points="383.502,-203.654 373.734,-207.758 383.929,-210.641 383.502,-203.654"/>
</g>
<!-- Node16 -->
<g id="node16" class="node"><title>Node16</title>
<g id="a_node16"><a xlink:href="apps_2CMakeLists_8txt.html#a95003200affb100d1d71069d001d318c" target="_top" xlink:title="endif">
<polygon fill="white" stroke="black" points="496.5,-265.649 496.5,-284.649 534.5,-284.649 534.5,-265.649 496.5,-265.649"/>
<text text-anchor="middle" x="515.5" y="-272.649" font-family="Helvetica,sans-Serif" font-size="10.00">endif</text>
</a>
</g>
</g>
<!-- Node14&#45;&gt;Node16 -->
<g id="edge16" class="edge"><title>Node14&#45;&gt;Node16</title>
<path fill="none" stroke="midnightblue" d="M383.375,-216.445C393.49,-219.368 404.485,-223.232 414,-228.149 432.007,-237.455 431.963,-246.901 450,-256.149 464.751,-263.712 482.983,-268.73 496.295,-271.7"/>
<polygon fill="midnightblue" stroke="midnightblue" points="384.207,-213.045 373.641,-213.833 382.392,-219.805 384.207,-213.045"/>
</g>
<!-- Node14&#45;&gt;Node18 -->
<g id="edge37" class="edge"><title>Node14&#45;&gt;Node18</title>
<path fill="none" stroke="midnightblue" d="M377.082,-194.776C396.742,-184.305 424.573,-170.245 450,-160.149 522.128,-131.508 540.631,-122.95 617,-109.149 697.177,-94.6588 795.471,-94.3979 831.453,-94.869"/>
<polygon fill="midnightblue" stroke="midnightblue" points="375.279,-191.772 368.134,-199.595 378.598,-197.935 375.279,-191.772"/>
</g>
<!-- Node21 -->
<g id="node21" class="node"><title>Node21</title>
<g id="a_node21"><a xlink:href="plugins_2python_2plang_2CMakeLists_8txt.html#a37ea3a3a886fcb0bac4bdb58b4074459" target="_top" xlink:title="set_target_properties">
<polygon fill="white" stroke="black" points="792.5,-142.649 792.5,-161.649 900.5,-161.649 900.5,-142.649 792.5,-142.649"/>
<text text-anchor="middle" x="846.5" y="-149.649" font-family="Helvetica,sans-Serif" font-size="10.00">set_target_properties</text>
</a>
</g>
</g>
<!-- Node14&#45;&gt;Node21 -->
<g id="edge38" class="edge"><title>Node14&#45;&gt;Node21</title>
<path fill="none" stroke="midnightblue" d="M383.58,-197.689C402.689,-191.453 427.438,-184.204 450,-180.149 571.103,-158.385 715.91,-153.363 792.277,-152.314"/>
<polygon fill="midnightblue" stroke="midnightblue" points="382.247,-194.444 373.868,-200.929 384.462,-201.084 382.247,-194.444"/>
</g>
<!-- Node24 -->
<g id="node24" class="node"><title>Node24</title>
<g id="a_node24"><a xlink:href="plugins_2sqlite_2CMakeLists_8txt.html#a1b0a81895483ca0a5d697710b1e8c699" target="_top" xlink:title="include">
<polygon fill="white" stroke="black" points="492,-227.649 492,-246.649 539,-246.649 539,-227.649 492,-227.649"/>
<text text-anchor="middle" x="515.5" y="-234.649" font-family="Helvetica,sans-Serif" font-size="10.00">include</text>
</a>
</g>
</g>
<!-- Node14&#45;&gt;Node24 -->
<g id="edge36" class="edge"><title>Node14&#45;&gt;Node24</title>
<path fill="none" stroke="midnightblue" d="M383.962,-214.794C416.061,-220.291 463.986,-228.498 491.959,-233.289"/>
<polygon fill="midnightblue" stroke="midnightblue" points="384.181,-211.28 373.734,-213.042 383,-218.18 384.181,-211.28"/>
</g>
<!-- Node16&#45;&gt;Node2 -->
<g id="edge17" class="edge"><title>Node16&#45;&gt;Node2</title>
<path fill="none" stroke="midnightblue" d="M542.892,-289.558C562.806,-299.982 591.042,-313.819 617,-323.149 683.179,-346.933 763.579,-364.488 809.216,-373.448"/>
<polygon fill="midnightblue" stroke="midnightblue" points="544.304,-286.346 533.83,-284.75 541.023,-292.529 544.304,-286.346"/>
</g>
<!-- Node16&#45;&gt;Node3 -->
<g id="edge18" class="edge"><title>Node16&#45;&gt;Node3</title>
<path fill="none" stroke="midnightblue" d="M544.718,-269.169C556.314,-266.124 569.656,-261.84 581,-256.149 598.877,-247.181 598.522,-236.802 617,-229.149 754.155,-172.337 937.211,-169.593 1000.42,-170.531"/>
<polygon fill="midnightblue" stroke="midnightblue" points="543.55,-265.852 534.666,-271.623 545.21,-272.652 543.55,-265.852"/>
</g>
<!-- Node16&#45;&gt;Node4 -->
<g id="edge19" class="edge"><title>Node16&#45;&gt;Node4</title>
<path fill="none" stroke="midnightblue" d="M533.558,-291.659C552.596,-309.35 584.955,-337.29 617,-355.149 688.791,-395.158 783.792,-421.793 824.99,-432.215"/>
<polygon fill="midnightblue" stroke="midnightblue" points="535.928,-289.083 526.254,-284.764 531.123,-294.173 535.928,-289.083"/>
</g>
<!-- Node16&#45;&gt;Node13 -->
<g id="edge20" class="edge"><title>Node16&#45;&gt;Node13</title>
<path fill="none" stroke="midnightblue" d="M486.402,-279.292C443.285,-285.658 358.205,-298.253 286,-309.149 274.4,-310.899 261.975,-312.79 250.14,-314.598"/>
<polygon fill="midnightblue" stroke="midnightblue" points="487.045,-282.735 496.427,-277.812 486.023,-275.81 487.045,-282.735"/>
</g>
<!-- Node17 -->
<g id="node17" class="node"><title>Node17</title>
<g id="a_node17"><a xlink:href="plugins_2rxp_2CMakeLists_8txt.html#ac440d3bdd76d5d60db4364e47cc09f5f" target="_top" xlink:title="PDAL_ADD_TEST">
<polygon fill="white" stroke="black" points="796,-218.649 796,-237.649 897,-237.649 897,-218.649 796,-218.649"/>
<text text-anchor="middle" x="846.5" y="-225.649" font-family="Helvetica,sans-Serif" font-size="10.00">PDAL_ADD_TEST</text>
</a>
</g>
</g>
<!-- Node16&#45;&gt;Node17 -->
<g id="edge21" class="edge"><title>Node16&#45;&gt;Node17</title>
<path fill="none" stroke="midnightblue" d="M544.694,-266.651C569.31,-259.352 603.194,-249.623 617,-247.149 677.929,-236.229 749.147,-231.565 795.673,-229.586"/>
<polygon fill="midnightblue" stroke="midnightblue" points="543.38,-263.391 534.797,-269.603 545.381,-270.099 543.38,-263.391"/>
</g>
<!-- Node16&#45;&gt;Node18 -->
<g id="edge22" class="edge"><title>Node16&#45;&gt;Node18</title>
<path fill="none" stroke="midnightblue" d="M544.489,-272.227C556.877,-269.69 570.896,-264.961 581,-256.149 610.384,-230.522 588.321,-202.563 617,-176.149 681.549,-116.698 792.526,-100.357 831.486,-96.3396"/>
<polygon fill="midnightblue" stroke="midnightblue" points="543.874,-268.781 534.588,-273.883 545.029,-275.685 543.874,-268.781"/>
</g>
<!-- Node16&#45;&gt;Node19 -->
<g id="edge23" class="edge"><title>Node16&#45;&gt;Node19</title>
<path fill="none" stroke="midnightblue" d="M544.739,-274.907C575.664,-278.329 624.809,-287.112 654.572,-294.585"/>
<polygon fill="midnightblue" stroke="midnightblue" points="544.912,-271.407 534.622,-273.93 544.24,-278.375 544.912,-271.407"/>
</g>
<!-- Node23 -->
<g id="node23" class="node"><title>Node23</title>
<g id="a_node23"><a xlink:href="namespacepdal.html#a828f4c33f28b39f623b641bbb79d5602" target="_top" xlink:title="pdal::TEST_P">
<polygon fill="white" stroke="black" points="642,-256.649 642,-275.649 720,-275.649 720,-256.649 642,-256.649"/>
<text text-anchor="middle" x="681" y="-263.649" font-family="Helvetica,sans-Serif" font-size="10.00">pdal::TEST_P</text>
</a>
</g>
</g>
<!-- Node16&#45;&gt;Node23 -->
<g id="edge35" class="edge"><title>Node16&#45;&gt;Node23</title>
<path fill="none" stroke="midnightblue" d="M544.857,-273.588C571.645,-272.113 612.03,-269.89 641.678,-268.258"/>
<polygon fill="midnightblue" stroke="midnightblue" points="544.415,-270.107 534.622,-274.151 544.799,-277.096 544.415,-270.107"/>
</g>
<!-- Node19&#45;&gt;Node2 -->
<g id="edge26" class="edge"><title>Node19&#45;&gt;Node2</title>
<path fill="none" stroke="midnightblue" d="M723.963,-317.577C731.208,-320.605 738.495,-324.134 745,-328.149 763.47,-339.549 762.102,-350.473 781,-361.149 789.639,-366.029 799.653,-369.763 809.175,-372.574"/>
<polygon fill="midnightblue" stroke="midnightblue" points="724.773,-314.135 714.184,-313.757 722.226,-320.656 724.773,-314.135"/>
</g>
<!-- Node19&#45;&gt;Node3 -->
<g id="edge27" class="edge"><title>Node19&#45;&gt;Node3</title>
<path fill="none" stroke="midnightblue" d="M739.183,-292.419C796.811,-280.163 881.459,-260.848 912,-247.149 951.849,-229.274 992.709,-196.961 1011.84,-180.84"/>
<polygon fill="midnightblue" stroke="midnightblue" points="738.173,-289.055 729.113,-294.547 739.62,-295.903 738.173,-289.055"/>
</g>
<!-- Node19&#45;&gt;Node4 -->
<g id="edge28" class="edge"><title>Node19&#45;&gt;Node4</title>
<path fill="none" stroke="midnightblue" d="M697.497,-321.27C716.146,-341.318 748.965,-374.867 781,-399.149 795.501,-410.14 813.431,-420.474 826.704,-427.583"/>
<polygon fill="midnightblue" stroke="midnightblue" points="699.981,-318.801 690.635,-313.812 694.83,-323.541 699.981,-318.801"/>
</g>
<!-- Node19&#45;&gt;Node13 -->
<g id="edge29" class="edge"><title>Node19&#45;&gt;Node13</title>
<path fill="none" stroke="midnightblue" d="M606.837,-307.012C509.115,-310.836 338.117,-317.528 250.193,-320.969"/>
<polygon fill="midnightblue" stroke="midnightblue" points="607.075,-310.505 616.93,-306.617 606.801,-303.511 607.075,-310.505"/>
</g>
<!-- Node19&#45;&gt;Node16 -->
<g id="edge25" class="edge"><title>Node19&#45;&gt;Node16</title>
<path fill="none" stroke="midnightblue" d="M606.547,-297.839C579.949,-293.321 552.168,-287.631 534.622,-282.796"/>
<polygon fill="midnightblue" stroke="midnightblue" points="606.222,-301.333 616.659,-299.509 607.363,-294.427 606.222,-301.333"/>
</g>
<!-- Node19&#45;&gt;Node17 -->
<g id="edge30" class="edge"><title>Node19&#45;&gt;Node17</title>
<path fill="none" stroke="midnightblue" d="M732.799,-291.052C737.03,-289.299 741.154,-287.338 745,-285.149 763.864,-274.412 762.485,-263.477 781,-252.149 790.682,-246.225 802.061,-241.393 812.543,-237.657"/>
<polygon fill="midnightblue" stroke="midnightblue" points="731.57,-287.775 723.435,-294.563 734.028,-294.329 731.57,-287.775"/>
</g>
<!-- Node19&#45;&gt;Node18 -->
<g id="edge31" class="edge"><title>Node19&#45;&gt;Node18</title>
<path fill="none" stroke="midnightblue" d="M741.039,-288.831C742.436,-287.689 743.762,-286.464 745,-285.149 792.587,-234.599 739.792,-189.021 781,-133.149 793.652,-115.995 816.564,-105.224 831.399,-99.6982"/>
<polygon fill="midnightblue" stroke="midnightblue" points="738.821,-286.099 732.357,-294.493 742.645,-291.962 738.821,-286.099"/>
</g>
<!-- Node20 -->
<g id="node20" class="node"><title>Node20</title>
<g id="a_node20"><a xlink:href="examples_2writing_2CMakeLists_8txt.html#a6de164ad0f2bd7539377640c4de059d3" target="_top" xlink:title="cmake_minimum_required">
<polygon fill="white" stroke="black" points="781,-294.649 781,-313.649 912,-313.649 912,-294.649 781,-294.649"/>
<text text-anchor="middle" x="846.5" y="-301.649" font-family="Helvetica,sans-Serif" font-size="10.00">cmake_minimum_required</text>
</a>
</g>
</g>
<!-- Node19&#45;&gt;Node20 -->
<g id="edge24" class="edge"><title>Node19&#45;&gt;Node20</title>
<path fill="none" stroke="midnightblue" d="M755.453,-304.149C763.916,-304.149 772.499,-304.149 780.835,-304.149"/>
<polygon fill="midnightblue" stroke="midnightblue" points="755.213,-300.649 745.213,-304.149 755.213,-307.649 755.213,-300.649"/>
</g>
<!-- Node19&#45;&gt;Node21 -->
<g id="edge32" class="edge"><title>Node19&#45;&gt;Node21</title>
<path fill="none" stroke="midnightblue" d="M738.69,-289.795C740.913,-288.388 743.03,-286.844 745,-285.149 773.328,-260.767 758.538,-239.022 781,-209.149 795.549,-189.799 817.513,-172.113 831.682,-161.734"/>
<polygon fill="midnightblue" stroke="midnightblue" points="736.881,-286.792 729.681,-294.565 740.156,-292.979 736.881,-286.792"/>
</g>
<!-- Node22 -->
<g id="node22" class="node"><title>Node22</title>
<g id="a_node22"><a xlink:href="plugins_2mbio_2CMakeLists_8txt.html#ad0d618bcbab0fcc6817145391a7a3133" target="_top" xlink:title="target_include_directories">
<polygon fill="white" stroke="black" points="782.5,-332.649 782.5,-351.649 910.5,-351.649 910.5,-332.649 782.5,-332.649"/>
<text text-anchor="middle" x="846.5" y="-339.649" font-family="Helvetica,sans-Serif" font-size="10.00">target_include_directories</text>
</a>
</g>
</g>
<!-- Node19&#45;&gt;Node22 -->
<g id="edge34" class="edge"><title>Node19&#45;&gt;Node22</title>
<path fill="none" stroke="midnightblue" d="M733.184,-316.045C756.166,-321.386 782.913,-327.602 804.539,-332.629"/>
<polygon fill="midnightblue" stroke="midnightblue" points="733.791,-312.593 723.258,-313.738 732.206,-319.411 733.791,-312.593"/>
</g>
<!-- Node21&#45;&gt;Node3 -->
<g id="edge33" class="edge"><title>Node21&#45;&gt;Node3</title>
<path fill="none" stroke="midnightblue" d="M910.59,-158.979C941.82,-162.36 977.586,-166.232 1000.23,-168.683"/>
<polygon fill="midnightblue" stroke="midnightblue" points="910.951,-155.498 900.632,-157.901 910.197,-162.457 910.951,-155.498"/>
</g>
</g>
</svg>
