<?xml version="1.0" encoding="UTF-8" standalone="no"?>
<!DOCTYPE svg PUBLIC "-//W3C//DTD SVG 1.1//EN"
 "http://www.w3.org/Graphics/SVG/1.1/DTD/svg11.dtd">
<!-- Generated by graphviz version 2.38.0 (20140413.2041)
 -->
<!-- Title: option Pages: 1 -->
<svg width="701pt" height="340pt"
 viewBox="0.00 0.00 701.00 340.00" xmlns="http://www.w3.org/2000/svg" xmlns:xlink="http://www.w3.org/1999/xlink">
<g id="graph0" class="graph" transform="scale(1 1) rotate(0) translate(4 336)">
<title>option</title>
<polygon fill="white" stroke="none" points="-4,4 -4,-336 697,-336 697,4 -4,4"/>
<!-- Node1 -->
<g id="node1" class="node"><title>Node1</title>
<polygon fill="#bfbfbf" stroke="black" points="0,-190.5 0,-209.5 43,-209.5 43,-190.5 0,-190.5"/>
<text text-anchor="middle" x="21.5" y="-197.5" font-family="Helvetica,sans-Serif" font-size="10.00">option</text>
</g>
<!-- Node2 -->
<g id="node2" class="node"><title>Node2</title>
<g id="a_node2"><a xlink:href="apps_2CMakeLists_8txt.html#a95003200affb100d1d71069d001d318c" target="_top" xlink:title="endif">
<polygon fill="white" stroke="black" points="87,-190.5 87,-209.5 125,-209.5 125,-190.5 87,-190.5"/>
<text text-anchor="middle" x="106" y="-197.5" font-family="Helvetica,sans-Serif" font-size="10.00">endif</text>
</a>
</g>
</g>
<!-- Node1&#45;&gt;Node2 -->
<g id="edge1" class="edge"><title>Node1&#45;&gt;Node2</title>
<path fill="none" stroke="midnightblue" d="M43.3182,-200C53.5192,-200 65.9504,-200 76.973,-200"/>
<polygon fill="midnightblue" stroke="midnightblue" points="76.9906,-203.5 86.9906,-200 76.9906,-196.5 76.9906,-203.5"/>
</g>
<!-- Node5 -->
<g id="node5" class="node"><title>Node5</title>
<g id="a_node5"><a xlink:href="plugins_2sqlite_2CMakeLists_8txt.html#ae13dd749ac3c6bc0aacc152ad068c9cf" target="_top" xlink:title="PDAL_ADD_PLUGIN">
<polygon fill="white" stroke="black" points="279,-152.5 279,-171.5 392,-171.5 392,-152.5 279,-152.5"/>
<text text-anchor="middle" x="335.5" y="-159.5" font-family="Helvetica,sans-Serif" font-size="10.00">PDAL_ADD_PLUGIN</text>
</a>
</g>
</g>
<!-- Node1&#45;&gt;Node5 -->
<g id="edge14" class="edge"><title>Node1&#45;&gt;Node5</title>
<path fill="none" stroke="midnightblue" d="M37.0786,-190.286C62.5348,-173.974 117.317,-141.713 169,-130 201.075,-122.731 210.575,-124.494 243,-130 263.943,-133.556 286.478,-141.386 303.945,-148.409"/>
<polygon fill="midnightblue" stroke="midnightblue" points="303.014,-151.813 313.592,-152.413 305.698,-145.347 303.014,-151.813"/>
</g>
<!-- Node6 -->
<g id="node6" class="node"><title>Node6</title>
<g id="a_node6"><a xlink:href="plugins_2greyhound_2CMakeLists_8txt.html#aaf2c36d971af3676acf24962f41e8fce" target="_top" xlink:title="target_include_directories">
<polygon fill="white" stroke="black" points="428,-237.5 428,-256.5 556,-256.5 556,-237.5 428,-237.5"/>
<text text-anchor="middle" x="492" y="-244.5" font-family="Helvetica,sans-Serif" font-size="10.00">target_include_directories</text>
</a>
</g>
</g>
<!-- Node1&#45;&gt;Node6 -->
<g id="edge16" class="edge"><title>Node1&#45;&gt;Node6</title>
<path fill="none" stroke="midnightblue" d="M43.1258,-207.062C53.8125,-210.689 67.0864,-215.144 79,-219 118.856,-231.899 128.106,-237.916 169,-247 265.972,-268.54 292.946,-269.462 392,-262 403.714,-261.118 416.143,-259.656 428.092,-257.982"/>
<polygon fill="midnightblue" stroke="midnightblue" points="428.602,-261.445 437.99,-256.534 427.589,-254.518 428.602,-261.445"/>
</g>
<!-- Node7 -->
<g id="node7" class="node"><title>Node7</title>
<g id="a_node7"><a xlink:href="plugins_2pgpointcloud_2CMakeLists_8txt.html#aea33ba9daf1f5c8561730ee98d4f613c" target="_top" xlink:title="PDAL_ADD_TEST">
<polygon fill="white" stroke="black" points="592,-237.5 592,-256.5 693,-256.5 693,-237.5 592,-237.5"/>
<text text-anchor="middle" x="642.5" y="-244.5" font-family="Helvetica,sans-Serif" font-size="10.00">PDAL_ADD_TEST</text>
</a>
</g>
</g>
<!-- Node1&#45;&gt;Node7 -->
<g id="edge15" class="edge"><title>Node1&#45;&gt;Node7</title>
<path fill="none" stroke="midnightblue" d="M29.1675,-209.921C50.6795,-240.62 121.71,-332 205,-332 205,-332 205,-332 336.5,-332 441.29,-332 559.144,-284.865 612.496,-260.795"/>
<polygon fill="midnightblue" stroke="midnightblue" points="614.055,-263.931 621.69,-256.585 611.141,-257.566 614.055,-263.931"/>
</g>
<!-- Node8 -->
<g id="node8" class="node"><title>Node8</title>
<g id="a_node8"><a xlink:href="namespacehag.html#a39becb5458bcac317093e468da1639be" target="_top" xlink:title="hag.filter">
<polygon fill="white" stroke="black" points="79,-38.5 79,-57.5 133,-57.5 133,-38.5 79,-38.5"/>
<text text-anchor="middle" x="106" y="-45.5" font-family="Helvetica,sans-Serif" font-size="10.00">hag.filter</text>
</a>
</g>
</g>
<!-- Node1&#45;&gt;Node8 -->
<g id="edge11" class="edge"><title>Node1&#45;&gt;Node8</title>
<path fill="none" stroke="midnightblue" d="M25.2719,-190.315C31.9707,-167.976 50.6101,-111.722 79,-72 80.7748,-69.5167 82.8401,-67.0933 85.0163,-64.8001"/>
<polygon fill="midnightblue" stroke="midnightblue" points="87.7461,-67.0341 92.5812,-57.6069 82.9225,-61.9613 87.7461,-67.0341"/>
</g>
<!-- Node3 -->
<g id="node3" class="node"><title>Node3</title>
<g id="a_node3"><a xlink:href="test_2unit_2CMakeLists_8txt.html#ab08ac1136c19e320931be30a4ff4d593" target="_top" xlink:title="configure_file">
<polygon fill="white" stroke="black" points="169,-190.5 169,-209.5 243,-209.5 243,-190.5 169,-190.5"/>
<text text-anchor="middle" x="206" y="-197.5" font-family="Helvetica,sans-Serif" font-size="10.00">configure_file</text>
</a>
</g>
</g>
<!-- Node2&#45;&gt;Node3 -->
<g id="edge2" class="edge"><title>Node2&#45;&gt;Node3</title>
<path fill="none" stroke="midnightblue" d="M125.433,-200C134.867,-200 146.819,-200 158.573,-200"/>
<polygon fill="midnightblue" stroke="midnightblue" points="158.783,-203.5 168.783,-200 158.782,-196.5 158.783,-203.5"/>
</g>
<!-- Node4 -->
<g id="node4" class="node"><title>Node4</title>
<g id="a_node4"><a xlink:href="plugins_2geowave_2CMakeLists_8txt.html#a40f7f560816321b423ccda46740e1b80" target="_top" xlink:title="include">
<polygon fill="white" stroke="black" points="182.5,-152.5 182.5,-171.5 229.5,-171.5 229.5,-152.5 182.5,-152.5"/>
<text text-anchor="middle" x="206" y="-159.5" font-family="Helvetica,sans-Serif" font-size="10.00">include</text>
</a>
</g>
</g>
<!-- Node2&#45;&gt;Node4 -->
<g id="edge3" class="edge"><title>Node2&#45;&gt;Node4</title>
<path fill="none" stroke="midnightblue" d="M125.433,-192.852C138.749,-187.689 157.079,-180.582 172.789,-174.49"/>
<polygon fill="midnightblue" stroke="midnightblue" points="174.106,-177.733 182.164,-170.855 171.575,-171.207 174.106,-177.733"/>
</g>
<!-- Node2&#45;&gt;Node6 -->
<g id="edge10" class="edge"><title>Node2&#45;&gt;Node6</title>
<path fill="none" stroke="midnightblue" d="M125.19,-199.034C137.412,-201.898 153.971,-207.078 169,-210 253.309,-226.394 351.911,-233.193 417.575,-237.935"/>
<polygon fill="midnightblue" stroke="midnightblue" points="417.596,-241.445 427.824,-238.679 418.104,-234.464 417.596,-241.445"/>
</g>
<!-- Node4&#45;&gt;Node5 -->
<g id="edge4" class="edge"><title>Node4&#45;&gt;Node5</title>
<path fill="none" stroke="midnightblue" d="M229.501,-162C240.546,-162 254.486,-162 268.569,-162"/>
<polygon fill="midnightblue" stroke="midnightblue" points="268.809,-165.5 278.808,-162 268.808,-158.5 268.809,-165.5"/>
</g>
<!-- Node5&#45;&gt;Node2 -->
<g id="edge9" class="edge"><title>Node5&#45;&gt;Node2</title>
<path fill="none" stroke="midnightblue" d="M310.851,-152.477C277.897,-140.699 216.83,-124.355 169,-143 148.885,-150.841 131.348,-168.6 120.107,-182.227"/>
<polygon fill="midnightblue" stroke="midnightblue" points="117.083,-180.411 113.665,-190.439 122.591,-184.731 117.083,-180.411"/>
</g>
<!-- Node5&#45;&gt;Node6 -->
<g id="edge5" class="edge"><title>Node5&#45;&gt;Node6</title>
<path fill="none" stroke="midnightblue" d="M353.923,-171.585C380.814,-186.38 432.627,-214.885 464.278,-232.299"/>
<polygon fill="midnightblue" stroke="midnightblue" points="462.955,-235.565 473.404,-237.319 466.329,-229.432 462.955,-235.565"/>
</g>
<!-- Node5&#45;&gt;Node7 -->
<g id="edge8" class="edge"><title>Node5&#45;&gt;Node7</title>
<path fill="none" stroke="midnightblue" d="M370.6,-171.503C426.113,-186.974 535.979,-217.593 597.369,-234.701"/>
<polygon fill="midnightblue" stroke="midnightblue" points="596.581,-238.115 607.153,-237.428 598.46,-231.372 596.581,-238.115"/>
</g>
<!-- Node6&#45;&gt;Node2 -->
<g id="edge7" class="edge"><title>Node6&#45;&gt;Node2</title>
<path fill="none" stroke="midnightblue" d="M427.824,-252.181C362.502,-251.894 257.82,-245.271 169,-228 153.978,-225.079 137.427,-219.903 125.207,-214.342"/>
<polygon fill="midnightblue" stroke="midnightblue" points="126.58,-211.112 116.09,-209.623 123.361,-217.328 126.58,-211.112"/>
</g>
<!-- Node6&#45;&gt;Node7 -->
<g id="edge6" class="edge"><title>Node6&#45;&gt;Node7</title>
<path fill="none" stroke="midnightblue" d="M556.408,-247C564.815,-247 573.411,-247 581.753,-247"/>
<polygon fill="midnightblue" stroke="midnightblue" points="581.773,-250.5 591.773,-247 581.773,-243.5 581.773,-250.5"/>
</g>
<!-- Node9 -->
<g id="node9" class="node"><title>Node9</title>
<g id="a_node9"><a xlink:href="namespacehag.html#aee422d0ebdb1730554711d82498e54c3" target="_top" xlink:title="hag.wakeup">
<polygon fill="white" stroke="black" points="171.5,-0.5 171.5,-19.5 240.5,-19.5 240.5,-0.5 171.5,-0.5"/>
<text text-anchor="middle" x="206" y="-7.5" font-family="Helvetica,sans-Serif" font-size="10.00">hag.wakeup</text>
</a>
</g>
</g>
<!-- Node8&#45;&gt;Node9 -->
<g id="edge12" class="edge"><title>Node8&#45;&gt;Node9</title>
<path fill="none" stroke="midnightblue" d="M131.73,-38.411C143.568,-33.8206 157.935,-28.2497 170.8,-23.2612"/>
<polygon fill="midnightblue" stroke="midnightblue" points="172.22,-26.4645 180.278,-19.5859 169.689,-19.938 172.22,-26.4645"/>
</g>
<!-- Node10 -->
<g id="node10" class="node"><title>Node10</title>
<g id="a_node10"><a xlink:href="namespacehag.html#acad63bbd5fdda01bf56ff6aae70a0192" target="_top" xlink:title="hag.read">
<polygon fill="white" stroke="black" points="179,-38.5 179,-57.5 233,-57.5 233,-38.5 179,-38.5"/>
<text text-anchor="middle" x="206" y="-45.5" font-family="Helvetica,sans-Serif" font-size="10.00">hag.read</text>
</a>
</g>
</g>
<!-- Node8&#45;&gt;Node10 -->
<g id="edge13" class="edge"><title>Node8&#45;&gt;Node10</title>
<path fill="none" stroke="midnightblue" d="M133.005,-48C143.969,-48 156.92,-48 168.794,-48"/>
<polygon fill="midnightblue" stroke="midnightblue" points="168.874,-51.5001 178.874,-48 168.874,-44.5001 168.874,-51.5001"/>
</g>
</g>
</svg>
