<?xml version="1.0" encoding="UTF-8" standalone="no"?>
<!DOCTYPE svg PUBLIC "-//W3C//DTD SVG 1.1//EN"
 "http://www.w3.org/Graphics/SVG/1.1/DTD/svg11.dtd">
<!-- Generated by graphviz version 2.38.0 (20140413.2041)
 -->
<!-- Title: TEST Pages: 1 -->
<svg width="1175pt" height="358pt"
 viewBox="0.00 0.00 1175.00 357.71" xmlns="http://www.w3.org/2000/svg" xmlns:xlink="http://www.w3.org/1999/xlink">
<g id="graph0" class="graph" transform="scale(1 1) rotate(0) translate(4 353.707)">
<title>TEST</title>
<polygon fill="white" stroke="none" points="-4,4 -4,-353.707 1171,-353.707 1171,4 -4,4"/>
<!-- Node1 -->
<g id="node1" class="node"><title>Node1</title>
<polygon fill="#bfbfbf" stroke="black" points="0,-88.5 0,-107.5 42,-107.5 42,-88.5 0,-88.5"/>
<text text-anchor="middle" x="21" y="-95.5" font-family="Helvetica,sans-Serif" font-size="10.00">TEST</text>
</g>
<!-- Node2 -->
<g id="node2" class="node"><title>Node2</title>
<g id="a_node2"><a xlink:href="classpdal_1_1PointLayout.html#a62c64539215e8136b502e025627657ca" target="_top" xlink:title="pdal::PointLayout::\lassignDim">
<polygon fill="white" stroke="black" points="97.5,-184 97.5,-214 195.5,-214 195.5,-184 97.5,-184"/>
<text text-anchor="start" x="105.5" y="-202" font-family="Helvetica,sans-Serif" font-size="10.00">pdal::PointLayout::</text>
<text text-anchor="middle" x="146.5" y="-191" font-family="Helvetica,sans-Serif" font-size="10.00">assignDim</text>
</a>
</g>
</g>
<!-- Node1&#45;&gt;Node2 -->
<g id="edge1" class="edge"><title>Node1&#45;&gt;Node2</title>
<path fill="none" stroke="midnightblue" d="M33.8417,-107.684C53.3446,-123.634 92.6863,-155.808 119.069,-177.384"/>
<polygon fill="midnightblue" stroke="midnightblue" points="117.181,-180.362 127.138,-183.983 121.613,-174.943 117.181,-180.362"/>
</g>
<!-- Node16 -->
<g id="node16" class="node"><title>Node16</title>
<g id="a_node16"><a xlink:href="classpdal_1_1PointView.html#a4c594a6d2a469e594988194ccf125a15" target="_top" xlink:title="pdal::PointView::getFieldAs">
<polygon fill="white" stroke="black" points="78,-69.5 78,-88.5 215,-88.5 215,-69.5 78,-69.5"/>
<text text-anchor="middle" x="146.5" y="-76.5" font-family="Helvetica,sans-Serif" font-size="10.00">pdal::PointView::getFieldAs</text>
</a>
</g>
</g>
<!-- Node1&#45;&gt;Node16 -->
<g id="edge19" class="edge"><title>Node1&#45;&gt;Node16</title>
<path fill="none" stroke="midnightblue" d="M42.1173,-94.905C50.9456,-93.5468 61.8991,-91.8617 73.3437,-90.101"/>
<polygon fill="midnightblue" stroke="midnightblue" points="74.1349,-93.5205 83.4864,-88.5406 73.0705,-86.6019 74.1349,-93.5205"/>
</g>
<!-- Node21 -->
<g id="node21" class="node"><title>Node21</title>
<g id="a_node21"><a xlink:href="classpdal_1_1BasePointTable.html#a7e3a12a1f29e6cd10d8669ed3d07eb94" target="_top" xlink:title="pdal::BasePointTable\l::layout">
<polygon fill="white" stroke="black" points="91.5,-20 91.5,-50 201.5,-50 201.5,-20 91.5,-20"/>
<text text-anchor="start" x="99.5" y="-38" font-family="Helvetica,sans-Serif" font-size="10.00">pdal::BasePointTable</text>
<text text-anchor="middle" x="146.5" y="-27" font-family="Helvetica,sans-Serif" font-size="10.00">::layout</text>
</a>
</g>
</g>
<!-- Node1&#45;&gt;Node21 -->
<g id="edge25" class="edge"><title>Node1&#45;&gt;Node21</title>
<path fill="none" stroke="midnightblue" d="M34.3558,-88.3286C45.3569,-80.0385 62.1219,-68.1747 78,-60 82.0467,-57.9166 86.3082,-55.92 90.6416,-54.0276"/>
<polygon fill="midnightblue" stroke="midnightblue" points="92.2975,-57.1296 100.187,-50.0582 89.6098,-50.6661 92.2975,-57.1296"/>
</g>
<!-- Node22 -->
<g id="node22" class="node"><title>Node22</title>
<g id="a_node22"><a xlink:href="classpdal_1_1PointView.html#a7931019cfba92e9c3a93592a2fbf4a0f" target="_top" xlink:title="pdal::PointView::setField">
<polygon fill="white" stroke="black" points="84,-107.5 84,-126.5 209,-126.5 209,-107.5 84,-107.5"/>
<text text-anchor="middle" x="146.5" y="-114.5" font-family="Helvetica,sans-Serif" font-size="10.00">pdal::PointView::setField</text>
</a>
</g>
</g>
<!-- Node1&#45;&gt;Node22 -->
<g id="edge26" class="edge"><title>Node1&#45;&gt;Node22</title>
<path fill="none" stroke="midnightblue" d="M42.1173,-101.095C50.9985,-102.461 62.0304,-104.159 73.5494,-105.931"/>
<polygon fill="midnightblue" stroke="midnightblue" points="73.3397,-109.44 83.7557,-107.501 74.4042,-102.521 73.3397,-109.44"/>
</g>
<!-- Node3 -->
<g id="node3" class="node"><title>Node3</title>
<g id="a_node3"><a xlink:href="namespacepdal_1_1Utils.html#a59253304d0f929e3a3ea00f09636002f" target="_top" xlink:title="pdal::Utils::toNative">
<polygon fill="white" stroke="black" points="781,-282.5 781,-301.5 885,-301.5 885,-282.5 781,-282.5"/>
<text text-anchor="middle" x="833" y="-289.5" font-family="Helvetica,sans-Serif" font-size="10.00">pdal::Utils::toNative</text>
</a>
</g>
</g>
<!-- Node2&#45;&gt;Node3 -->
<g id="edge2" class="edge"><title>Node2&#45;&gt;Node3</title>
<path fill="none" stroke="midnightblue" d="M162.983,-214.212C182.119,-232.198 216.411,-261.848 251,-279 338.412,-322.345 366.272,-323.223 463,-336 587.282,-352.416 622.823,-358.078 745,-330 766.485,-325.062 789.268,-314.912 806.128,-306.343"/>
<polygon fill="midnightblue" stroke="midnightblue" points="808.08,-309.271 815.315,-301.532 804.833,-303.07 808.08,-309.271"/>
</g>
<!-- Node6 -->
<g id="node6" class="node"><title>Node6</title>
<g id="a_node6"><a xlink:href="classpdal_1_1PointLayout.html#aa1b5a748ef7b9467b4977606a7f61aa5" target="_top" xlink:title="pdal::PointLayout::\lresolveType">
<polygon fill="white" stroke="black" points="480,-296 480,-326 578,-326 578,-296 480,-296"/>
<text text-anchor="start" x="488" y="-314" font-family="Helvetica,sans-Serif" font-size="10.00">pdal::PointLayout::</text>
<text text-anchor="middle" x="529" y="-303" font-family="Helvetica,sans-Serif" font-size="10.00">resolveType</text>
</a>
</g>
</g>
<!-- Node2&#45;&gt;Node6 -->
<g id="edge5" class="edge"><title>Node2&#45;&gt;Node6</title>
<path fill="none" stroke="midnightblue" d="M180.119,-214.027C200.261,-222.935 226.796,-234.007 251,-242 325.361,-266.556 413.457,-287.086 470.003,-299.204"/>
<polygon fill="midnightblue" stroke="midnightblue" points="469.328,-302.639 479.837,-301.295 470.784,-295.792 469.328,-302.639"/>
</g>
<!-- Node9 -->
<g id="node9" class="node"><title>Node9</title>
<g id="a_node9"><a xlink:href="classpdal_1_1PointLayout.html#a63db6cc5de2aea2b949ee0c34e1d5501" target="_top" xlink:title="pdal::PointLayout::\lupdate">
<polygon fill="white" stroke="black" points="290,-203 290,-233 388,-233 388,-203 290,-203"/>
<text text-anchor="start" x="298" y="-221" font-family="Helvetica,sans-Serif" font-size="10.00">pdal::PointLayout::</text>
<text text-anchor="middle" x="339" y="-210" font-family="Helvetica,sans-Serif" font-size="10.00">update</text>
</a>
</g>
</g>
<!-- Node2&#45;&gt;Node9 -->
<g id="edge10" class="edge"><title>Node2&#45;&gt;Node9</title>
<path fill="none" stroke="midnightblue" d="M195.571,-203.795C221.178,-206.348 252.871,-209.509 279.855,-212.201"/>
<polygon fill="midnightblue" stroke="midnightblue" points="279.646,-215.697 289.944,-213.207 280.341,-208.732 279.646,-215.697"/>
</g>
<!-- Node13 -->
<g id="node13" class="node"><title>Node13</title>
<g id="a_node13"><a xlink:href="namespacepdal_1_1Dimension.html#af3176b0b7e6b4be000317846cf7c2718" target="_top" xlink:title="pdal::Dimension::name">
<polygon fill="white" stroke="black" points="280.5,-126.5 280.5,-145.5 397.5,-145.5 397.5,-126.5 280.5,-126.5"/>
<text text-anchor="middle" x="339" y="-133.5" font-family="Helvetica,sans-Serif" font-size="10.00">pdal::Dimension::name</text>
</a>
</g>
</g>
<!-- Node2&#45;&gt;Node13 -->
<g id="edge16" class="edge"><title>Node2&#45;&gt;Node13</title>
<path fill="none" stroke="midnightblue" d="M178.629,-183.958C198.882,-174.627 226.072,-162.944 251,-155 259.241,-152.374 268.035,-149.988 276.747,-147.863"/>
<polygon fill="midnightblue" stroke="midnightblue" points="277.575,-151.264 286.514,-145.576 275.979,-144.448 277.575,-151.264"/>
</g>
<!-- Node14 -->
<g id="node14" class="node"><title>Node14</title>
<g id="a_node14"><a xlink:href="namespacepdal_1_1Dimension.html#a10b4c693e3bdbdf1a0eec8f4b008a291" target="_top" xlink:title="pdal::Dimension::id">
<polygon fill="white" stroke="black" points="288.5,-164.5 288.5,-183.5 389.5,-183.5 389.5,-164.5 288.5,-164.5"/>
<text text-anchor="middle" x="339" y="-171.5" font-family="Helvetica,sans-Serif" font-size="10.00">pdal::Dimension::id</text>
</a>
</g>
</g>
<!-- Node2&#45;&gt;Node14 -->
<g id="edge17" class="edge"><title>Node2&#45;&gt;Node14</title>
<path fill="none" stroke="midnightblue" d="M195.571,-192.691C220.689,-189.395 251.664,-185.33 278.305,-181.834"/>
<polygon fill="midnightblue" stroke="midnightblue" points="278.823,-185.296 288.283,-180.525 277.912,-178.356 278.823,-185.296"/>
</g>
<!-- Node4 -->
<g id="node4" class="node"><title>Node4</title>
<g id="a_node4"><a xlink:href="namespacepdal_1_1Dimension.html#a880d689fed54aa3ded6f88c9e058c5d2" target="_top" xlink:title="pdal::Dimension::type">
<polygon fill="white" stroke="black" points="921,-282.5 921,-301.5 1033,-301.5 1033,-282.5 921,-282.5"/>
<text text-anchor="middle" x="977" y="-289.5" font-family="Helvetica,sans-Serif" font-size="10.00">pdal::Dimension::type</text>
</a>
</g>
</g>
<!-- Node3&#45;&gt;Node4 -->
<g id="edge3" class="edge"><title>Node3&#45;&gt;Node4</title>
<path fill="none" stroke="midnightblue" d="M885.265,-292C893.602,-292 902.332,-292 910.946,-292"/>
<polygon fill="midnightblue" stroke="midnightblue" points="910.972,-295.5 920.972,-292 910.972,-288.5 910.972,-295.5"/>
</g>
<!-- Node5 -->
<g id="node5" class="node"><title>Node5</title>
<g id="a_node5"><a xlink:href="namespacepdal_1_1Utils.html#a5268937cf695835e55392f752dc02cb2" target="_top" xlink:title="pdal::Utils::tolower">
<polygon fill="white" stroke="black" points="1069,-282.5 1069,-301.5 1167,-301.5 1167,-282.5 1069,-282.5"/>
<text text-anchor="middle" x="1118" y="-289.5" font-family="Helvetica,sans-Serif" font-size="10.00">pdal::Utils::tolower</text>
</a>
</g>
</g>
<!-- Node4&#45;&gt;Node5 -->
<g id="edge4" class="edge"><title>Node4&#45;&gt;Node5</title>
<path fill="none" stroke="midnightblue" d="M1033.34,-292C1041.62,-292 1050.19,-292 1058.55,-292"/>
<polygon fill="midnightblue" stroke="midnightblue" points="1058.59,-295.5 1068.59,-292 1058.59,-288.5 1058.59,-295.5"/>
</g>
<!-- Node7 -->
<g id="node7" class="node"><title>Node7</title>
<g id="a_node7"><a xlink:href="namespacepdal_1_1Dimension.html#ab9491687b8700d1db27e0aba1fcd7143" target="_top" xlink:title="pdal::Dimension::base">
<polygon fill="white" stroke="black" points="631,-301.5 631,-320.5 745,-320.5 745,-301.5 631,-301.5"/>
<text text-anchor="middle" x="688" y="-308.5" font-family="Helvetica,sans-Serif" font-size="10.00">pdal::Dimension::base</text>
</a>
</g>
</g>
<!-- Node6&#45;&gt;Node7 -->
<g id="edge6" class="edge"><title>Node6&#45;&gt;Node7</title>
<path fill="none" stroke="midnightblue" d="M578.386,-311C591.726,-311 606.434,-311 620.603,-311"/>
<polygon fill="midnightblue" stroke="midnightblue" points="620.797,-314.5 630.797,-311 620.797,-307.5 620.797,-314.5"/>
</g>
<!-- Node8 -->
<g id="node8" class="node"><title>Node8</title>
<g id="a_node8"><a xlink:href="namespacepdal_1_1Dimension.html#acf81dae9d5946f3a941f9df154b2329b" target="_top" xlink:title="pdal::Dimension::size">
<polygon fill="white" stroke="black" points="632.5,-263.5 632.5,-282.5 743.5,-282.5 743.5,-263.5 632.5,-263.5"/>
<text text-anchor="middle" x="688" y="-270.5" font-family="Helvetica,sans-Serif" font-size="10.00">pdal::Dimension::size</text>
</a>
</g>
</g>
<!-- Node6&#45;&gt;Node8 -->
<g id="edge8" class="edge"><title>Node6&#45;&gt;Node8</title>
<path fill="none" stroke="midnightblue" d="M578.386,-299.289C597.25,-294.723 618.849,-289.495 637.791,-284.91"/>
<polygon fill="midnightblue" stroke="midnightblue" points="638.819,-288.263 647.715,-282.508 637.173,-281.459 638.819,-288.263"/>
</g>
<!-- Node7&#45;&gt;Node3 -->
<g id="edge7" class="edge"><title>Node7&#45;&gt;Node3</title>
<path fill="none" stroke="midnightblue" d="M745.107,-303.545C753.451,-302.437 762.089,-301.289 770.536,-300.166"/>
<polygon fill="midnightblue" stroke="midnightblue" points="771.261,-303.601 780.713,-298.814 770.339,-296.662 771.261,-303.601"/>
</g>
<!-- Node8&#45;&gt;Node3 -->
<g id="edge9" class="edge"><title>Node8&#45;&gt;Node3</title>
<path fill="none" stroke="midnightblue" d="M743.879,-280.292C752.691,-281.462 761.861,-282.681 770.81,-283.87"/>
<polygon fill="midnightblue" stroke="midnightblue" points="770.416,-287.348 780.79,-285.196 771.338,-280.409 770.416,-287.348"/>
</g>
<!-- Node9&#45;&gt;Node3 -->
<g id="edge13" class="edge"><title>Node9&#45;&gt;Node3</title>
<path fill="none" stroke="midnightblue" d="M388.294,-217.046C465.153,-216.688 619.448,-220.73 745,-254 766.043,-259.576 788.531,-269.513 805.371,-277.828"/>
<polygon fill="midnightblue" stroke="midnightblue" points="804.077,-281.096 814.58,-282.49 807.239,-274.85 804.077,-281.096"/>
</g>
<!-- Node10 -->
<g id="node10" class="node"><title>Node10</title>
<g id="a_node10"><a xlink:href="namespacepdal_1_1Utils.html#a3e140e4c0c21d020c56c0b8d58b8cb5b" target="_top" xlink:title="pdal::Utils::contains">
<polygon fill="white" stroke="black" points="477,-170.5 477,-189.5 581,-189.5 581,-170.5 477,-170.5"/>
<text text-anchor="middle" x="529" y="-177.5" font-family="Helvetica,sans-Serif" font-size="10.00">pdal::Utils::contains</text>
</a>
</g>
</g>
<!-- Node9&#45;&gt;Node10 -->
<g id="edge11" class="edge"><title>Node9&#45;&gt;Node10</title>
<path fill="none" stroke="midnightblue" d="M388.415,-208.214C413.594,-203.125 444.53,-196.872 470.874,-191.547"/>
<polygon fill="midnightblue" stroke="midnightblue" points="471.616,-194.968 480.725,-189.556 470.229,-188.106 471.616,-194.968"/>
</g>
<!-- Node11 -->
<g id="node11" class="node"><title>Node11</title>
<g id="a_node11"><a xlink:href="classpdal_1_1Dimension_1_1Detail.html#a549ea013da1958d0b9120987cb33e291" target="_top" xlink:title="pdal::Dimension::Detail::id">
<polygon fill="white" stroke="black" points="463,-132.5 463,-151.5 595,-151.5 595,-132.5 463,-132.5"/>
<text text-anchor="middle" x="529" y="-139.5" font-family="Helvetica,sans-Serif" font-size="10.00">pdal::Dimension::Detail::id</text>
</a>
</g>
</g>
<!-- Node9&#45;&gt;Node11 -->
<g id="edge12" class="edge"><title>Node9&#45;&gt;Node11</title>
<path fill="none" stroke="midnightblue" d="M388.026,-208.32C401.138,-204.593 415.023,-199.594 427,-193 445.753,-182.676 444.27,-171.367 463,-161 466.984,-158.795 471.251,-156.822 475.624,-155.061"/>
<polygon fill="midnightblue" stroke="midnightblue" points="477.097,-158.25 485.296,-151.539 474.702,-151.672 477.097,-158.25"/>
</g>
<!-- Node12 -->
<g id="node12" class="node"><title>Node12</title>
<g id="a_node12"><a xlink:href="classpdal_1_1Dimension_1_1Detail.html#a320806a1cc878b5fdb10e178f27a4c61" target="_top" xlink:title="pdal::Dimension::Detail\l::size">
<polygon fill="white" stroke="black" points="469.5,-247 469.5,-277 588.5,-277 588.5,-247 469.5,-247"/>
<text text-anchor="start" x="477.5" y="-265" font-family="Helvetica,sans-Serif" font-size="10.00">pdal::Dimension::Detail</text>
<text text-anchor="middle" x="529" y="-254" font-family="Helvetica,sans-Serif" font-size="10.00">::size</text>
</a>
</g>
</g>
<!-- Node9&#45;&gt;Node12 -->
<g id="edge14" class="edge"><title>Node9&#45;&gt;Node12</title>
<path fill="none" stroke="midnightblue" d="M388.415,-229.331C410.024,-234.389 435.874,-240.439 459.423,-245.95"/>
<polygon fill="midnightblue" stroke="midnightblue" points="458.821,-249.404 469.355,-248.275 460.416,-242.588 458.821,-249.404"/>
</g>
<!-- Node12&#45;&gt;Node8 -->
<g id="edge15" class="edge"><title>Node12&#45;&gt;Node8</title>
<path fill="none" stroke="midnightblue" d="M588.908,-266.127C599.833,-266.893 611.299,-267.696 622.384,-268.473"/>
<polygon fill="midnightblue" stroke="midnightblue" points="622.21,-271.969 632.43,-269.177 622.699,-264.986 622.21,-271.969"/>
</g>
<!-- Node15 -->
<g id="node15" class="node"><title>Node15</title>
<g id="a_node15"><a xlink:href="namespacepdal_1_1Utils.html#a28e3e2faff94b20f9908e77bc54ed983" target="_top" xlink:title="pdal::Utils::toupper">
<polygon fill="white" stroke="black" points="479.5,-94.5 479.5,-113.5 578.5,-113.5 578.5,-94.5 479.5,-94.5"/>
<text text-anchor="middle" x="529" y="-101.5" font-family="Helvetica,sans-Serif" font-size="10.00">pdal::Utils::toupper</text>
</a>
</g>
</g>
<!-- Node14&#45;&gt;Node15 -->
<g id="edge18" class="edge"><title>Node14&#45;&gt;Node15</title>
<path fill="none" stroke="midnightblue" d="M389.827,-167.671C402.399,-164.865 415.564,-160.821 427,-155 446.078,-145.289 444.27,-133.367 463,-123 466.984,-120.795 471.251,-118.822 475.624,-117.061"/>
<polygon fill="midnightblue" stroke="midnightblue" points="477.097,-120.25 485.296,-113.539 474.702,-113.672 477.097,-120.25"/>
</g>
<!-- Node16&#45;&gt;Node13 -->
<g id="edge23" class="edge"><title>Node16&#45;&gt;Node13</title>
<path fill="none" stroke="midnightblue" d="M186.874,-88.5725C196.221,-91.2576 206.069,-94.4326 215,-98 231.801,-104.711 234.007,-110.791 251,-117 258.249,-119.649 265.98,-121.987 273.728,-124.035"/>
<polygon fill="midnightblue" stroke="midnightblue" points="272.967,-127.453 283.517,-126.476 274.66,-120.66 272.967,-127.453"/>
</g>
<!-- Node17 -->
<g id="node17" class="node"><title>Node17</title>
<g id="a_node17"><a xlink:href="classpdal_1_1Dimension_1_1Detail.html#adf5961976b7fce3d90a0dddd50519a7c" target="_top" xlink:title="pdal::Dimension::Detail\l::type">
<polygon fill="white" stroke="black" points="279.5,-39 279.5,-69 398.5,-69 398.5,-39 279.5,-39"/>
<text text-anchor="start" x="287.5" y="-57" font-family="Helvetica,sans-Serif" font-size="10.00">pdal::Dimension::Detail</text>
<text text-anchor="middle" x="339" y="-46" font-family="Helvetica,sans-Serif" font-size="10.00">::type</text>
</a>
</g>
</g>
<!-- Node16&#45;&gt;Node17 -->
<g id="edge20" class="edge"><title>Node16&#45;&gt;Node17</title>
<path fill="none" stroke="midnightblue" d="M215.2,-70.1155C232.722,-67.8161 251.605,-65.338 269.183,-63.0311"/>
<polygon fill="midnightblue" stroke="midnightblue" points="269.903,-66.4667 279.362,-61.6952 268.992,-59.5262 269.903,-66.4667"/>
</g>
<!-- Node18 -->
<g id="node18" class="node"><title>Node18</title>
<g id="a_node18"><a xlink:href="namespacepdal_1_1Utils.html#a33d614ac71aa03aaa5c10a242c4d14ac" target="_top" xlink:title="pdal::Utils::numericCast">
<polygon fill="white" stroke="black" points="278,-0.5 278,-19.5 400,-19.5 400,-0.5 278,-0.5"/>
<text text-anchor="middle" x="339" y="-7.5" font-family="Helvetica,sans-Serif" font-size="10.00">pdal::Utils::numericCast</text>
</a>
</g>
</g>
<!-- Node16&#45;&gt;Node18 -->
<g id="edge21" class="edge"><title>Node16&#45;&gt;Node18</title>
<path fill="none" stroke="midnightblue" d="M189.605,-69.4054C198.265,-66.6454 207.133,-63.2101 215,-59 233.363,-49.1725 232.29,-38.1505 251,-29 256.338,-26.3892 262.035,-24.134 267.862,-22.1866"/>
<polygon fill="midnightblue" stroke="midnightblue" points="269.195,-25.4399 277.751,-19.1912 267.165,-18.7405 269.195,-25.4399"/>
</g>
<!-- Node20 -->
<g id="node20" class="node"><title>Node20</title>
<g id="a_node20"><a xlink:href="namespacepdal_1_1Dimension.html#acc41232ae1e707d6c928ffb9a56592d3" target="_top" xlink:title="pdal::Dimension::interpretationName">
<polygon fill="white" stroke="black" points="251,-88.5 251,-107.5 427,-107.5 427,-88.5 251,-88.5"/>
<text text-anchor="middle" x="339" y="-95.5" font-family="Helvetica,sans-Serif" font-size="10.00">pdal::Dimension::interpretationName</text>
</a>
</g>
</g>
<!-- Node16&#45;&gt;Node20 -->
<g id="edge24" class="edge"><title>Node16&#45;&gt;Node20</title>
<path fill="none" stroke="midnightblue" d="M215.2,-85.7522C223.501,-86.5802 232.108,-87.4386 240.737,-88.2992"/>
<polygon fill="midnightblue" stroke="midnightblue" points="240.562,-91.799 250.86,-89.3089 241.257,-84.8336 240.562,-91.799"/>
</g>
<!-- Node19 -->
<g id="node19" class="node"><title>Node19</title>
<g id="a_node19"><a xlink:href="namespacepdal_1_1Utils.html#a06833597f1fc4287966cfa0867128e59" target="_top" xlink:title="pdal::Utils::sround">
<polygon fill="white" stroke="black" points="481,-0.5 481,-19.5 577,-19.5 577,-0.5 481,-0.5"/>
<text text-anchor="middle" x="529" y="-7.5" font-family="Helvetica,sans-Serif" font-size="10.00">pdal::Utils::sround</text>
</a>
</g>
</g>
<!-- Node18&#45;&gt;Node19 -->
<g id="edge22" class="edge"><title>Node18&#45;&gt;Node19</title>
<path fill="none" stroke="midnightblue" d="M400.001,-10C422.646,-10 448.333,-10 470.722,-10"/>
<polygon fill="midnightblue" stroke="midnightblue" points="470.754,-13.5001 480.754,-10 470.754,-6.5001 470.754,-13.5001"/>
</g>
<!-- Node22&#45;&gt;Node13 -->
<g id="edge28" class="edge"><title>Node22&#45;&gt;Node13</title>
<path fill="none" stroke="midnightblue" d="M209.087,-123.143C228.526,-125.081 250.113,-127.234 269.975,-129.215"/>
<polygon fill="midnightblue" stroke="midnightblue" points="269.886,-132.724 280.184,-130.234 270.581,-125.758 269.886,-132.724"/>
</g>
<!-- Node22&#45;&gt;Node17 -->
<g id="edge27" class="edge"><title>Node22&#45;&gt;Node17</title>
<path fill="none" stroke="midnightblue" d="M186.874,-107.427C196.221,-104.742 206.069,-101.567 215,-98 231.801,-91.2894 234.217,-85.7562 251,-79 256.932,-76.6121 263.175,-74.3518 269.482,-72.2387"/>
<polygon fill="midnightblue" stroke="midnightblue" points="270.963,-75.4389 279.409,-69.0423 268.818,-68.7758 270.963,-75.4389"/>
</g>
<!-- Node22&#45;&gt;Node20 -->
<g id="edge29" class="edge"><title>Node22&#45;&gt;Node20</title>
<path fill="none" stroke="midnightblue" d="M209.087,-110.857C219.324,-109.836 230.156,-108.756 241.019,-107.673"/>
<polygon fill="midnightblue" stroke="midnightblue" points="241.383,-111.154 250.987,-106.679 240.689,-104.188 241.383,-111.154"/>
</g>
</g>
</svg>
