<?xml version="1.0" encoding="UTF-8" standalone="no"?>
<!DOCTYPE svg PUBLIC "-//W3C//DTD SVG 1.1//EN"
 "http://www.w3.org/Graphics/SVG/1.1/DTD/svg11.dtd">
<!-- Generated by graphviz version 2.38.0 (20140413.2041)
 -->
<!-- Title: pdal/filters/private/Point.hpp Pages: 1 -->
<svg width="1064pt" height="173pt"
 viewBox="0.00 0.00 1064.00 173.00" xmlns="http://www.w3.org/2000/svg" xmlns:xlink="http://www.w3.org/1999/xlink">
<g id="graph0" class="graph" transform="scale(1 1) rotate(0) translate(4 169)">
<title>pdal/filters/private/Point.hpp</title>
<polygon fill="white" stroke="none" points="-4,4 -4,-169 1060,-169 1060,4 -4,4"/>
<!-- Node1 -->
<g id="node1" class="node"><title>Node1</title>
<polygon fill="#bfbfbf" stroke="black" points="371,-134.5 371,-164.5 465,-164.5 465,-134.5 371,-134.5"/>
<text text-anchor="start" x="379" y="-152.5" font-family="Helvetica,sans-Serif" font-size="10.00">pdal/filters/private</text>
<text text-anchor="middle" x="418" y="-141.5" font-family="Helvetica,sans-Serif" font-size="10.00">/Point.hpp</text>
</g>
<!-- Node2 -->
<g id="node2" class="node"><title>Node2</title>
<g id="a_node2"><a xlink:href="CropFilter_8hpp.html" target="_top" xlink:title="pdal/filters/CropFilter.hpp">
<polygon fill="white" stroke="black" points="275,-73 275,-92 401,-92 401,-73 275,-73"/>
<text text-anchor="middle" x="338" y="-80" font-family="Helvetica,sans-Serif" font-size="10.00">pdal/filters/CropFilter.hpp</text>
</a>
</g>
</g>
<!-- Node1&#45;&gt;Node2 -->
<g id="edge1" class="edge"><title>Node1&#45;&gt;Node2</title>
<path fill="none" stroke="midnightblue" d="M392.779,-128.008C377.928,-115.941 359.913,-101.305 348.701,-92.1945"/>
<polygon fill="midnightblue" stroke="midnightblue" points="390.673,-130.806 400.641,-134.396 395.087,-125.374 390.673,-130.806"/>
</g>
<!-- Node3 -->
<g id="node3" class="node"><title>Node3</title>
<g id="a_node3"><a xlink:href="CropFilter_8cpp.html" target="_top" xlink:title="pdal/filters/CropFilter.cpp">
<polygon fill="white" stroke="black" points="0,-6 0,-25 126,-25 126,-6 0,-6"/>
<text text-anchor="middle" x="63" y="-13" font-family="Helvetica,sans-Serif" font-size="10.00">pdal/filters/CropFilter.cpp</text>
</a>
</g>
</g>
<!-- Node1&#45;&gt;Node3 -->
<g id="edge6" class="edge"><title>Node1&#45;&gt;Node3</title>
<path fill="none" stroke="midnightblue" d="M363.614,-131.321C334.509,-121.904 298.137,-109.777 266,-98 198.249,-73.1714 119.245,-40.3041 83.0117,-25.0072"/>
<polygon fill="midnightblue" stroke="midnightblue" points="362.598,-134.67 373.19,-134.406 364.745,-128.008 362.598,-134.67"/>
</g>
<!-- Node7 -->
<g id="node7" class="node"><title>Node7</title>
<g id="a_node7"><a xlink:href="NormalFilter_8hpp.html" target="_top" xlink:title="pdal/filters/NormalFilter.hpp">
<polygon fill="white" stroke="black" points="511.5,-73 511.5,-92 648.5,-92 648.5,-73 511.5,-73"/>
<text text-anchor="middle" x="580" y="-80" font-family="Helvetica,sans-Serif" font-size="10.00">pdal/filters/NormalFilter.hpp</text>
</a>
</g>
</g>
<!-- Node1&#45;&gt;Node7 -->
<g id="edge7" class="edge"><title>Node1&#45;&gt;Node7</title>
<path fill="none" stroke="midnightblue" d="M462.559,-130.621C493.915,-118.04 534.475,-101.766 558.798,-92.007"/>
<polygon fill="midnightblue" stroke="midnightblue" points="461.129,-127.424 453.152,-134.396 463.736,-133.92 461.129,-127.424"/>
</g>
<!-- Node11 -->
<g id="node11" class="node"><title>Node11</title>
<g id="a_node11"><a xlink:href="Point_8cpp.html" target="_top" xlink:title="pdal/filters/private\l/Point.cpp">
<polygon fill="white" stroke="black" points="667,-67.5 667,-97.5 761,-97.5 761,-67.5 667,-67.5"/>
<text text-anchor="start" x="675" y="-85.5" font-family="Helvetica,sans-Serif" font-size="10.00">pdal/filters/private</text>
<text text-anchor="middle" x="714" y="-74.5" font-family="Helvetica,sans-Serif" font-size="10.00">/Point.cpp</text>
</a>
</g>
</g>
<!-- Node1&#45;&gt;Node11 -->
<g id="edge12" class="edge"><title>Node1&#45;&gt;Node11</title>
<path fill="none" stroke="midnightblue" d="M475.084,-137.257C523.814,-127.476 595.691,-112.614 658,-98 660.933,-97.312 663.948,-96.5862 666.985,-95.8408"/>
<polygon fill="midnightblue" stroke="midnightblue" points="474.168,-133.871 465.049,-139.265 475.541,-140.735 474.168,-133.871"/>
</g>
<!-- Node2&#45;&gt;Node3 -->
<g id="edge2" class="edge"><title>Node2&#45;&gt;Node3</title>
<path fill="none" stroke="midnightblue" d="M291.733,-70.5642C237.519,-57.7499 148.82,-36.7848 99.3145,-25.0834"/>
<polygon fill="midnightblue" stroke="midnightblue" points="291.229,-74.0414 301.766,-72.9355 292.839,-67.2291 291.229,-74.0414"/>
</g>
<!-- Node4 -->
<g id="node4" class="node"><title>Node4</title>
<g id="a_node4"><a xlink:href="StageFactory_8cpp.html" target="_top" xlink:title="pdal/pdal/StageFactory.cpp">
<polygon fill="white" stroke="black" points="430,-6 430,-25 566,-25 566,-6 430,-6"/>
<text text-anchor="middle" x="498" y="-13" font-family="Helvetica,sans-Serif" font-size="10.00">pdal/pdal/StageFactory.cpp</text>
</a>
</g>
</g>
<!-- Node2&#45;&gt;Node4 -->
<g id="edge3" class="edge"><title>Node2&#45;&gt;Node4</title>
<path fill="none" stroke="midnightblue" d="M368.513,-69.1041C400.281,-56.1984 449.195,-36.3272 476.92,-25.0637"/>
<polygon fill="midnightblue" stroke="midnightblue" points="367.194,-65.862 359.247,-72.8685 369.829,-72.3473 367.194,-65.862"/>
</g>
<!-- Node5 -->
<g id="node5" class="node"><title>Node5</title>
<g id="a_node5"><a xlink:href="CropFilterTest_8cpp.html" target="_top" xlink:title="pdal/test/unit/filters\l/CropFilterTest.cpp">
<polygon fill="white" stroke="black" points="144.5,-0.5 144.5,-30.5 245.5,-30.5 245.5,-0.5 144.5,-0.5"/>
<text text-anchor="start" x="152.5" y="-18.5" font-family="Helvetica,sans-Serif" font-size="10.00">pdal/test/unit/filters</text>
<text text-anchor="middle" x="195" y="-7.5" font-family="Helvetica,sans-Serif" font-size="10.00">/CropFilterTest.cpp</text>
</a>
</g>
</g>
<!-- Node2&#45;&gt;Node5 -->
<g id="edge4" class="edge"><title>Node2&#45;&gt;Node5</title>
<path fill="none" stroke="midnightblue" d="M309.665,-68.6206C285.475,-57.6252 250.751,-41.8413 225.862,-30.5281"/>
<polygon fill="midnightblue" stroke="midnightblue" points="308.459,-71.9167 319.011,-72.8685 311.355,-65.5441 308.459,-71.9167"/>
</g>
<!-- Node6 -->
<g id="node6" class="node"><title>Node6</title>
<g id="a_node6"><a xlink:href="OptionsTest_8cpp.html" target="_top" xlink:title="pdal/test/unit/OptionsTest.cpp">
<polygon fill="white" stroke="black" points="264,-6 264,-25 412,-25 412,-6 264,-6"/>
<text text-anchor="middle" x="338" y="-13" font-family="Helvetica,sans-Serif" font-size="10.00">pdal/test/unit/OptionsTest.cpp</text>
</a>
</g>
</g>
<!-- Node2&#45;&gt;Node6 -->
<g id="edge5" class="edge"><title>Node2&#45;&gt;Node6</title>
<path fill="none" stroke="midnightblue" d="M338,-62.537C338,-50.1703 338,-34.6198 338,-25.1273"/>
<polygon fill="midnightblue" stroke="midnightblue" points="334.5,-62.7338 338,-72.7338 341.5,-62.7338 334.5,-62.7338"/>
</g>
<!-- Node7&#45;&gt;Node4 -->
<g id="edge11" class="edge"><title>Node7&#45;&gt;Node4</title>
<path fill="none" stroke="midnightblue" d="M560.715,-66.2134C544.56,-53.407 522.081,-35.5884 508.884,-25.1273"/>
<polygon fill="midnightblue" stroke="midnightblue" points="558.93,-69.2647 568.941,-72.7338 563.279,-63.779 558.93,-69.2647"/>
</g>
<!-- Node8 -->
<g id="node8" class="node"><title>Node8</title>
<g id="a_node8"><a xlink:href="GreedyProjection_8cpp.html" target="_top" xlink:title="pdal/filters/GreedyProjection.cpp">
<polygon fill="white" stroke="black" points="584,-6 584,-25 742,-25 742,-6 584,-6"/>
<text text-anchor="middle" x="663" y="-13" font-family="Helvetica,sans-Serif" font-size="10.00">pdal/filters/GreedyProjection.cpp</text>
</a>
</g>
</g>
<!-- Node7&#45;&gt;Node8 -->
<g id="edge8" class="edge"><title>Node7&#45;&gt;Node8</title>
<path fill="none" stroke="midnightblue" d="M599.067,-66.5678C615.45,-53.7376 638.502,-35.6853 651.984,-25.1273"/>
<polygon fill="midnightblue" stroke="midnightblue" points="596.909,-63.8126 591.194,-72.7338 601.225,-69.3237 596.909,-63.8126"/>
</g>
<!-- Node9 -->
<g id="node9" class="node"><title>Node9</title>
<g id="a_node9"><a xlink:href="NormalFilter_8cpp.html" target="_top" xlink:title="pdal/filters/NormalFilter.cpp">
<polygon fill="white" stroke="black" points="760.5,-6 760.5,-25 897.5,-25 897.5,-6 760.5,-6"/>
<text text-anchor="middle" x="829" y="-13" font-family="Helvetica,sans-Serif" font-size="10.00">pdal/filters/NormalFilter.cpp</text>
</a>
</g>
</g>
<!-- Node7&#45;&gt;Node9 -->
<g id="edge9" class="edge"><title>Node7&#45;&gt;Node9</title>
<path fill="none" stroke="midnightblue" d="M622.507,-70.4039C671.649,-57.5757 751.48,-36.7361 796.119,-25.0834"/>
<polygon fill="midnightblue" stroke="midnightblue" points="621.6,-67.0232 612.808,-72.9355 623.368,-73.7962 621.6,-67.0232"/>
</g>
<!-- Node10 -->
<g id="node10" class="node"><title>Node10</title>
<g id="a_node10"><a xlink:href="PoissonFilter_8cpp.html" target="_top" xlink:title="pdal/filters/PoissonFilter.cpp">
<polygon fill="white" stroke="black" points="916,-6 916,-25 1056,-25 1056,-6 916,-6"/>
<text text-anchor="middle" x="986" y="-13" font-family="Helvetica,sans-Serif" font-size="10.00">pdal/filters/PoissonFilter.cpp</text>
</a>
</g>
</g>
<!-- Node7&#45;&gt;Node10 -->
<g id="edge10" class="edge"><title>Node7&#45;&gt;Node10</title>
<path fill="none" stroke="midnightblue" d="M634.099,-71.1522C642.104,-69.7056 650.26,-68.2784 658,-67 768.323,-48.7781 796.657,-49.0964 907,-31 918.146,-29.172 930.148,-27.0492 941.348,-25.0011"/>
<polygon fill="midnightblue" stroke="midnightblue" points="633.29,-67.742 624.084,-72.9851 634.55,-74.6276 633.29,-67.742"/>
</g>
</g>
</svg>
