<?xml version="1.0" encoding="UTF-8" standalone="no"?>
<!DOCTYPE svg PUBLIC "-//W3C//DTD SVG 1.1//EN"
 "http://www.w3.org/Graphics/SVG/1.1/DTD/svg11.dtd">
<!-- Generated by graphviz version 2.38.0 (20140413.2041)
 -->
<!-- Title: TEST Pages: 1 -->
<svg width="494pt" height="88pt"
 viewBox="0.00 0.00 494.00 88.00" xmlns="http://www.w3.org/2000/svg" xmlns:xlink="http://www.w3.org/1999/xlink">
<g id="graph0" class="graph" transform="scale(1 1) rotate(0) translate(4 84)">
<title>TEST</title>
<polygon fill="white" stroke="none" points="-4,4 -4,-84 490,-84 490,4 -4,4"/>
<!-- Node1 -->
<g id="node1" class="node"><title>Node1</title>
<polygon fill="#bfbfbf" stroke="black" points="0,-30 0,-49 42,-49 42,-30 0,-30"/>
<text text-anchor="middle" x="21" y="-37" font-family="Helvetica,sans-Serif" font-size="10.00">TEST</text>
</g>
<!-- Node2 -->
<g id="node2" class="node"><title>Node2</title>
<g id="a_node2"><a xlink:href="PointViewTest_8cpp.html#a5d76a43db6460a65062527358b02c4b0" target="_top" xlink:title="makeTestView">
<polygon fill="white" stroke="black" points="78,-30 78,-49 160,-49 160,-30 78,-30"/>
<text text-anchor="middle" x="119" y="-37" font-family="Helvetica,sans-Serif" font-size="10.00">makeTestView</text>
</a>
</g>
</g>
<!-- Node1&#45;&gt;Node2 -->
<g id="edge1" class="edge"><title>Node1&#45;&gt;Node2</title>
<path fill="none" stroke="midnightblue" d="M42.3591,-39.5C49.8771,-39.5 58.7674,-39.5 67.7627,-39.5"/>
<polygon fill="midnightblue" stroke="midnightblue" points="67.8957,-43.0001 77.8957,-39.5 67.8957,-36.0001 67.8957,-43.0001"/>
</g>
<!-- Node3 -->
<g id="node3" class="node"><title>Node3</title>
<g id="a_node3"><a xlink:href="classpdal_1_1BasePointTable.html#a7e3a12a1f29e6cd10d8669ed3d07eb94" target="_top" xlink:title="pdal::BasePointTable\l::layout">
<polygon fill="white" stroke="black" points="196,-49.5 196,-79.5 306,-79.5 306,-49.5 196,-49.5"/>
<text text-anchor="start" x="204" y="-67.5" font-family="Helvetica,sans-Serif" font-size="10.00">pdal::BasePointTable</text>
<text text-anchor="middle" x="251" y="-56.5" font-family="Helvetica,sans-Serif" font-size="10.00">::layout</text>
</a>
</g>
</g>
<!-- Node2&#45;&gt;Node3 -->
<g id="edge2" class="edge"><title>Node2&#45;&gt;Node3</title>
<path fill="none" stroke="midnightblue" d="M160.065,-47.2048C168.304,-48.7892 177.173,-50.4948 186.017,-52.1956"/>
<polygon fill="midnightblue" stroke="midnightblue" points="185.475,-55.6555 195.957,-54.107 186.797,-48.7815 185.475,-55.6555"/>
</g>
<!-- Node4 -->
<g id="node4" class="node"><title>Node4</title>
<g id="a_node4"><a xlink:href="classpdal_1_1PointLayout.html#ac18a9b8b3dd23c601df823e84d90f61e" target="_top" xlink:title="pdal::PointLayout::\lregisterDim">
<polygon fill="white" stroke="black" points="202,-0.5 202,-30.5 300,-30.5 300,-0.5 202,-0.5"/>
<text text-anchor="start" x="210" y="-18.5" font-family="Helvetica,sans-Serif" font-size="10.00">pdal::PointLayout::</text>
<text text-anchor="middle" x="251" y="-7.5" font-family="Helvetica,sans-Serif" font-size="10.00">registerDim</text>
</a>
</g>
</g>
<!-- Node2&#45;&gt;Node4 -->
<g id="edge3" class="edge"><title>Node2&#45;&gt;Node4</title>
<path fill="none" stroke="midnightblue" d="M160.065,-32.1034C170.015,-30.2664 180.884,-28.2598 191.519,-26.2966"/>
<polygon fill="midnightblue" stroke="midnightblue" points="192.406,-29.692 201.604,-24.4346 191.135,-22.8083 192.406,-29.692"/>
</g>
<!-- Node5 -->
<g id="node5" class="node"><title>Node5</title>
<g id="a_node5"><a xlink:href="namespacepdal_1_1Dimension.html#a9562a0d1c8e24bf903f1ccdd37b62d2f" target="_top" xlink:title="pdal::Dimension::defaultType">
<polygon fill="white" stroke="black" points="342,-6 342,-25 486,-25 486,-6 342,-6"/>
<text text-anchor="middle" x="414" y="-13" font-family="Helvetica,sans-Serif" font-size="10.00">pdal::Dimension::defaultType</text>
</a>
</g>
</g>
<!-- Node4&#45;&gt;Node5 -->
<g id="edge4" class="edge"><title>Node4&#45;&gt;Node5</title>
<path fill="none" stroke="midnightblue" d="M300.305,-15.5C310.202,-15.5 320.877,-15.5 331.573,-15.5"/>
<polygon fill="midnightblue" stroke="midnightblue" points="331.81,-19.0001 341.81,-15.5 331.81,-12.0001 331.81,-19.0001"/>
</g>
</g>
</svg>
