<?xml version="1.0" encoding="UTF-8" standalone="no"?>
<!DOCTYPE svg PUBLIC "-//W3C//DTD SVG 1.1//EN"
 "http://www.w3.org/Graphics/SVG/1.1/DTD/svg11.dtd">
<!-- Generated by graphviz version 2.38.0 (20140413.2041)
 -->
<!-- Title: pdal/pdal/PointTable.hpp Pages: 1 -->
<svg width="1711pt" height="476pt"
 viewBox="0.00 0.00 1711.00 476.00" xmlns="http://www.w3.org/2000/svg" xmlns:xlink="http://www.w3.org/1999/xlink">
<g id="graph0" class="graph" transform="scale(1 1) rotate(0) translate(4 472)">
<title>pdal/pdal/PointTable.hpp</title>
<polygon fill="white" stroke="none" points="-4,4 -4,-472 1707,-472 1707,4 -4,4"/>
<!-- Node1 -->
<g id="node1" class="node"><title>Node1</title>
<polygon fill="#bfbfbf" stroke="black" points="194,-448.5 194,-467.5 318,-467.5 318,-448.5 194,-448.5"/>
<text text-anchor="middle" x="256" y="-455.5" font-family="Helvetica,sans-Serif" font-size="10.00">pdal/pdal/PointTable.hpp</text>
</g>
<!-- Node2 -->
<g id="node2" class="node"><title>Node2</title>
<polygon fill="white" stroke="#bfbfbf" points="32,-56.5 32,-75.5 88,-75.5 88,-56.5 32,-56.5"/>
<text text-anchor="middle" x="60" y="-63.5" font-family="Helvetica,sans-Serif" font-size="10.00">algorithm</text>
</g>
<!-- Node1&#45;&gt;Node2 -->
<g id="edge1" class="edge"><title>Node1&#45;&gt;Node2</title>
<path fill="none" stroke="midnightblue" d="M193.703,-456.26C117.926,-451.68 0,-431.049 0,-347 0,-347 0,-347 0,-177 0,-146.902 4.26356,-138.243 19,-112 25.1175,-101.106 34.3283,-90.6768 42.4709,-82.6068"/>
<polygon fill="midnightblue" stroke="midnightblue" points="44.9591,-85.0709 49.8146,-75.6541 40.1465,-79.9876 44.9591,-85.0709"/>
</g>
<!-- Node3 -->
<g id="node3" class="node"><title>Node3</title>
<polygon fill="white" stroke="#bfbfbf" points="103.5,-392.5 103.5,-411.5 132.5,-411.5 132.5,-392.5 103.5,-392.5"/>
<text text-anchor="middle" x="118" y="-399.5" font-family="Helvetica,sans-Serif" font-size="10.00">list</text>
</g>
<!-- Node1&#45;&gt;Node3 -->
<g id="edge2" class="edge"><title>Node1&#45;&gt;Node3</title>
<path fill="none" stroke="midnightblue" d="M234.133,-448.444C209.04,-438.624 168.016,-422.572 142.043,-412.408"/>
<polygon fill="midnightblue" stroke="midnightblue" points="143.155,-409.085 132.568,-408.7 140.605,-415.604 143.155,-409.085"/>
</g>
<!-- Node4 -->
<g id="node4" class="node"><title>Node4</title>
<polygon fill="white" stroke="#bfbfbf" points="339,-56.5 339,-75.5 383,-75.5 383,-56.5 339,-56.5"/>
<text text-anchor="middle" x="361" y="-63.5" font-family="Helvetica,sans-Serif" font-size="10.00">vector</text>
</g>
<!-- Node1&#45;&gt;Node4 -->
<g id="edge3" class="edge"><title>Node1&#45;&gt;Node4</title>
<path fill="none" stroke="midnightblue" d="M318.131,-451.906C403.98,-440.98 554.456,-406.767 609,-300 647.039,-225.54 670.23,-175.642 616,-112 585.025,-75.6494 455.875,-85.7776 393.104,-75.7022"/>
<polygon fill="midnightblue" stroke="midnightblue" points="393.745,-72.2616 383.266,-73.8202 392.43,-79.1369 393.745,-72.2616"/>
</g>
<!-- Node5 -->
<g id="node5" class="node"><title>Node5</title>
<g id="a_node5"><a xlink:href="SpatialReference_8hpp.html" target="_top" xlink:title="pdal/SpatialReference.hpp">
<polygon fill="white" stroke="black" points="39.5,-336.5 39.5,-355.5 170.5,-355.5 170.5,-336.5 39.5,-336.5"/>
<text text-anchor="middle" x="105" y="-343.5" font-family="Helvetica,sans-Serif" font-size="10.00">pdal/SpatialReference.hpp</text>
</a>
</g>
</g>
<!-- Node1&#45;&gt;Node5 -->
<g id="edge4" class="edge"><title>Node1&#45;&gt;Node5</title>
<path fill="none" stroke="midnightblue" d="M241.257,-448.35C226.663,-439.628 203.836,-425.55 185,-412 162.937,-396.128 138.896,-376.212 122.988,-362.635"/>
<polygon fill="midnightblue" stroke="midnightblue" points="124.916,-359.677 115.052,-355.811 120.353,-364.985 124.916,-359.677"/>
</g>
<!-- Node33 -->
<g id="node33" class="node"><title>Node33</title>
<g id="a_node33"><a xlink:href="Dimension_8hpp.html" target="_top" xlink:title="pdal/Dimension.hpp">
<polygon fill="white" stroke="black" points="261.5,-224.5 261.5,-243.5 364.5,-243.5 364.5,-224.5 261.5,-224.5"/>
<text text-anchor="middle" x="313" y="-231.5" font-family="Helvetica,sans-Serif" font-size="10.00">pdal/Dimension.hpp</text>
</a>
</g>
</g>
<!-- Node1&#45;&gt;Node33 -->
<g id="edge42" class="edge"><title>Node1&#45;&gt;Node33</title>
<path fill="none" stroke="midnightblue" d="M252.727,-448.163C243.245,-420.979 218.379,-337 250,-280 257.555,-266.38 271.179,-255.871 283.829,-248.446"/>
<polygon fill="midnightblue" stroke="midnightblue" points="285.655,-251.437 292.767,-243.584 282.31,-245.288 285.655,-251.437"/>
</g>
<!-- Node35 -->
<g id="node35" class="node"><title>Node35</title>
<g id="a_node35"><a xlink:href="PointContainer_8hpp.html" target="_top" xlink:title="pdal/PointContainer.hpp">
<polygon fill="white" stroke="black" points="252.5,-392.5 252.5,-411.5 373.5,-411.5 373.5,-392.5 252.5,-392.5"/>
<text text-anchor="middle" x="313" y="-399.5" font-family="Helvetica,sans-Serif" font-size="10.00">pdal/PointContainer.hpp</text>
</a>
</g>
</g>
<!-- Node1&#45;&gt;Node35 -->
<g id="edge51" class="edge"><title>Node1&#45;&gt;Node35</title>
<path fill="none" stroke="midnightblue" d="M265.158,-448.324C273.501,-440.42 286.032,-428.548 296.177,-418.938"/>
<polygon fill="midnightblue" stroke="midnightblue" points="298.823,-421.252 303.675,-411.834 294.009,-416.171 298.823,-421.252"/>
</g>
<!-- Node36 -->
<g id="node36" class="node"><title>Node36</title>
<g id="a_node36"><a xlink:href="PointLayout_8hpp.html" target="_top" xlink:title="pdal/PointLayout.hpp">
<polygon fill="white" stroke="black" points="421,-336.5 421,-355.5 529,-355.5 529,-336.5 421,-336.5"/>
<text text-anchor="middle" x="475" y="-343.5" font-family="Helvetica,sans-Serif" font-size="10.00">pdal/PointLayout.hpp</text>
</a>
</g>
</g>
<!-- Node1&#45;&gt;Node36 -->
<g id="edge85" class="edge"><title>Node1&#45;&gt;Node36</title>
<path fill="none" stroke="midnightblue" d="M286.993,-448.464C313.102,-440.684 351.039,-427.982 382,-412 409.678,-397.713 438.646,-376.276 456.75,-361.973"/>
<polygon fill="midnightblue" stroke="midnightblue" points="459.101,-364.575 464.712,-355.587 454.721,-359.114 459.101,-364.575"/>
</g>
<!-- Node40 -->
<g id="node40" class="node"><title>Node40</title>
<g id="a_node40"><a xlink:href="Metadata_8hpp.html" target="_top" xlink:title="pdal/Metadata.hpp">
<polygon fill="white" stroke="black" points="960.5,-280.5 960.5,-299.5 1057.5,-299.5 1057.5,-280.5 960.5,-280.5"/>
<text text-anchor="middle" x="1009" y="-287.5" font-family="Helvetica,sans-Serif" font-size="10.00">pdal/Metadata.hpp</text>
</a>
</g>
</g>
<!-- Node1&#45;&gt;Node40 -->
<g id="edge86" class="edge"><title>Node1&#45;&gt;Node40</title>
<path fill="none" stroke="midnightblue" d="M318.052,-454.584C398.829,-450.438 543.979,-439.559 665,-412 785.499,-384.56 922.248,-328.612 980.402,-303.588"/>
<polygon fill="midnightblue" stroke="midnightblue" points="981.901,-306.752 989.687,-299.566 979.12,-300.329 981.901,-306.752"/>
</g>
<!-- Node6 -->
<g id="node6" class="node"><title>Node6</title>
<g id="a_node6"><a xlink:href="pdal__internal_8hpp.html" target="_top" xlink:title="pdal/pdal_internal.hpp">
<polygon fill="white" stroke="black" points="60.5,-224.5 60.5,-243.5 171.5,-243.5 171.5,-224.5 60.5,-224.5"/>
<text text-anchor="middle" x="116" y="-231.5" font-family="Helvetica,sans-Serif" font-size="10.00">pdal/pdal_internal.hpp</text>
</a>
</g>
</g>
<!-- Node5&#45;&gt;Node6 -->
<g id="edge5" class="edge"><title>Node5&#45;&gt;Node6</title>
<path fill="none" stroke="midnightblue" d="M105.863,-336.368C107.638,-318.617 111.733,-277.666 114.14,-253.597"/>
<polygon fill="midnightblue" stroke="midnightblue" points="117.628,-253.89 115.141,-243.591 110.663,-253.193 117.628,-253.89"/>
</g>
<!-- Node7 -->
<g id="node7" class="node"><title>Node7</title>
<polygon fill="white" stroke="#bfbfbf" points="291,-0.5 291,-19.5 345,-19.5 345,-0.5 291,-0.5"/>
<text text-anchor="middle" x="318" y="-7.5" font-family="Helvetica,sans-Serif" font-size="10.00">iostream</text>
</g>
<!-- Node6&#45;&gt;Node7 -->
<g id="edge6" class="edge"><title>Node6&#45;&gt;Node7</title>
<path fill="none" stroke="midnightblue" d="M102.683,-224.395C80.2953,-209.029 35.9084,-174.464 19,-132 12.278,-115.118 10.0971,-69.9796 23,-56 57.0908,-19.0642 208.983,-12.2675 280.512,-11.1412"/>
<polygon fill="midnightblue" stroke="midnightblue" points="280.912,-14.6364 290.866,-11.0092 280.822,-7.63702 280.912,-14.6364"/>
</g>
<!-- Node8 -->
<g id="node8" class="node"><title>Node8</title>
<g id="a_node8"><a xlink:href="pdal__export_8hpp.html" target="_top" xlink:title="pdal/pdal_export.hpp">
<polygon fill="white" stroke="black" points="88.5,-168.5 88.5,-187.5 195.5,-187.5 195.5,-168.5 88.5,-168.5"/>
<text text-anchor="middle" x="142" y="-175.5" font-family="Helvetica,sans-Serif" font-size="10.00">pdal/pdal_export.hpp</text>
</a>
</g>
</g>
<!-- Node6&#45;&gt;Node8 -->
<g id="edge7" class="edge"><title>Node6&#45;&gt;Node8</title>
<path fill="none" stroke="midnightblue" d="M120.293,-224.083C123.852,-216.691 129.022,-205.953 133.424,-196.811"/>
<polygon fill="midnightblue" stroke="midnightblue" points="136.602,-198.279 137.787,-187.751 130.295,-195.243 136.602,-198.279"/>
</g>
<!-- Node9 -->
<g id="node9" class="node"><title>Node9</title>
<g id="a_node9"><a xlink:href="pdal__defines_8h.html" target="_top" xlink:title="pdal/pdal_defines.h">
<polygon fill="white" stroke="black" points="28.5,-112.5 28.5,-131.5 129.5,-131.5 129.5,-112.5 28.5,-112.5"/>
<text text-anchor="middle" x="79" y="-119.5" font-family="Helvetica,sans-Serif" font-size="10.00">pdal/pdal_defines.h</text>
</a>
</g>
</g>
<!-- Node6&#45;&gt;Node9 -->
<g id="edge9" class="edge"><title>Node6&#45;&gt;Node9</title>
<path fill="none" stroke="midnightblue" d="M105.562,-224.245C96.5764,-215.969 84.2541,-202.663 79,-188 73.7005,-173.21 74.165,-155.283 75.6916,-142.005"/>
<polygon fill="midnightblue" stroke="midnightblue" points="79.2104,-142.129 77.1883,-131.729 72.2835,-141.12 79.2104,-142.129"/>
</g>
<!-- Node10 -->
<g id="node10" class="node"><title>Node10</title>
<g id="a_node10"><a xlink:href="pdal__types_8hpp.html" target="_top" xlink:title="pdal/pdal_types.hpp">
<polygon fill="white" stroke="black" points="313,-168.5 313,-187.5 417,-187.5 417,-168.5 313,-168.5"/>
<text text-anchor="middle" x="365" y="-175.5" font-family="Helvetica,sans-Serif" font-size="10.00">pdal/pdal_types.hpp</text>
</a>
</g>
</g>
<!-- Node6&#45;&gt;Node10 -->
<g id="edge10" class="edge"><title>Node6&#45;&gt;Node10</title>
<path fill="none" stroke="midnightblue" d="M155.455,-224.444C198.892,-215.023 268.786,-199.866 315.776,-189.675"/>
<polygon fill="midnightblue" stroke="midnightblue" points="316.699,-193.056 325.73,-187.516 315.215,-186.215 316.699,-193.056"/>
</g>
<!-- Node8&#45;&gt;Node9 -->
<g id="edge8" class="edge"><title>Node8&#45;&gt;Node9</title>
<path fill="none" stroke="midnightblue" d="M131.878,-168.324C122.474,-160.263 108.256,-148.077 96.931,-138.369"/>
<polygon fill="midnightblue" stroke="midnightblue" points="99.1766,-135.684 89.3062,-131.834 94.621,-140.999 99.1766,-135.684"/>
</g>
<!-- Node10&#45;&gt;Node4 -->
<g id="edge16" class="edge"><title>Node10&#45;&gt;Node4</title>
<path fill="none" stroke="midnightblue" d="M372.792,-168.359C382.884,-156.081 398.461,-132.769 392,-112 388.771,-101.622 382.224,-91.5209 375.975,-83.5268"/>
<polygon fill="midnightblue" stroke="midnightblue" points="378.584,-81.1902 369.483,-75.7661 373.215,-85.6818 378.584,-81.1902"/>
</g>
<!-- Node10&#45;&gt;Node7 -->
<g id="edge17" class="edge"><title>Node10&#45;&gt;Node7</title>
<path fill="none" stroke="midnightblue" d="M327.854,-168.419C284.513,-156.171 214.972,-129.033 185,-76 162.723,-36.5817 234.096,-20.6337 280.773,-14.5206"/>
<polygon fill="midnightblue" stroke="midnightblue" points="281.381,-17.9726 290.888,-13.2964 280.54,-11.0233 281.381,-17.9726"/>
</g>
<!-- Node11 -->
<g id="node11" class="node"><title>Node11</title>
<polygon fill="white" stroke="#bfbfbf" points="744.5,-112.5 744.5,-131.5 793.5,-131.5 793.5,-112.5 744.5,-112.5"/>
<text text-anchor="middle" x="769" y="-119.5" font-family="Helvetica,sans-Serif" font-size="10.00">stdint.h</text>
</g>
<!-- Node10&#45;&gt;Node11 -->
<g id="edge11" class="edge"><title>Node10&#45;&gt;Node11</title>
<path fill="none" stroke="midnightblue" d="M417.339,-170.014C422.628,-169.326 427.92,-168.644 433,-168 564.91,-151.277 599.035,-154.982 730,-132 731.454,-131.745 732.936,-131.47 734.43,-131.18"/>
<polygon fill="midnightblue" stroke="midnightblue" points="735.252,-134.584 744.323,-129.111 733.818,-127.733 735.252,-134.584"/>
</g>
<!-- Node12 -->
<g id="node12" class="node"><title>Node12</title>
<polygon fill="white" stroke="#bfbfbf" points="338.5,-112.5 338.5,-131.5 383.5,-131.5 383.5,-112.5 338.5,-112.5"/>
<text text-anchor="middle" x="361" y="-119.5" font-family="Helvetica,sans-Serif" font-size="10.00">cstdlib</text>
</g>
<!-- Node10&#45;&gt;Node12 -->
<g id="edge12" class="edge"><title>Node10&#45;&gt;Node12</title>
<path fill="none" stroke="midnightblue" d="M364.339,-168.083C363.815,-161.006 363.064,-150.861 362.406,-141.986"/>
<polygon fill="midnightblue" stroke="midnightblue" points="365.877,-141.465 361.648,-131.751 358.897,-141.982 365.877,-141.465"/>
</g>
<!-- Node13 -->
<g id="node13" class="node"><title>Node13</title>
<polygon fill="white" stroke="#bfbfbf" points="401.5,-56.5 401.5,-75.5 450.5,-75.5 450.5,-56.5 401.5,-56.5"/>
<text text-anchor="middle" x="426" y="-63.5" font-family="Helvetica,sans-Serif" font-size="10.00">istream</text>
</g>
<!-- Node10&#45;&gt;Node13 -->
<g id="edge13" class="edge"><title>Node10&#45;&gt;Node13</title>
<path fill="none" stroke="midnightblue" d="M375.443,-168.397C384.959,-160.028 398.75,-146.487 407,-132 415.181,-117.633 420.108,-99.4364 422.886,-85.9527"/>
<polygon fill="midnightblue" stroke="midnightblue" points="426.364,-86.392 424.739,-75.9225 419.481,-85.1201 426.364,-86.392"/>
</g>
<!-- Node14 -->
<g id="node14" class="node"><title>Node14</title>
<polygon fill="white" stroke="#bfbfbf" points="194.5,-56.5 194.5,-75.5 253.5,-75.5 253.5,-56.5 194.5,-56.5"/>
<text text-anchor="middle" x="224" y="-63.5" font-family="Helvetica,sans-Serif" font-size="10.00">stdexcept</text>
</g>
<!-- Node10&#45;&gt;Node14 -->
<g id="edge14" class="edge"><title>Node10&#45;&gt;Node14</title>
<path fill="none" stroke="midnightblue" d="M353.936,-168.368C329.946,-149.653 272.902,-105.151 243.012,-81.8324"/>
<polygon fill="midnightblue" stroke="midnightblue" points="245.05,-78.9829 235.013,-75.5914 240.744,-84.502 245.05,-78.9829"/>
</g>
<!-- Node15 -->
<g id="node15" class="node"><title>Node15</title>
<polygon fill="white" stroke="#bfbfbf" points="279.5,-56.5 279.5,-75.5 320.5,-75.5 320.5,-56.5 279.5,-56.5"/>
<text text-anchor="middle" x="300" y="-63.5" font-family="Helvetica,sans-Serif" font-size="10.00">string</text>
</g>
<!-- Node10&#45;&gt;Node15 -->
<g id="edge15" class="edge"><title>Node10&#45;&gt;Node15</title>
<path fill="none" stroke="midnightblue" d="M356.828,-168.2C349.01,-159.477 337.225,-145.5 329,-132 319.868,-117.012 311.943,-98.647 306.696,-85.2658"/>
<polygon fill="midnightblue" stroke="midnightblue" points="309.91,-83.8706 303.09,-75.7625 303.365,-86.3538 309.91,-83.8706"/>
</g>
<!-- Node16 -->
<g id="node16" class="node"><title>Node16</title>
<g id="a_node16"><a xlink:href="Utils_8hpp.html" target="_top" xlink:title="pdal/util/Utils.hpp">
<polygon fill="white" stroke="black" points="812,-112.5 812,-131.5 904,-131.5 904,-112.5 812,-112.5"/>
<text text-anchor="middle" x="858" y="-119.5" font-family="Helvetica,sans-Serif" font-size="10.00">pdal/util/Utils.hpp</text>
</a>
</g>
</g>
<!-- Node10&#45;&gt;Node16 -->
<g id="edge18" class="edge"><title>Node10&#45;&gt;Node16</title>
<path fill="none" stroke="midnightblue" d="M417.324,-169.891C422.616,-169.227 427.913,-168.585 433,-168 593.504,-149.554 636.894,-152.94 801.882,-131.928"/>
<polygon fill="midnightblue" stroke="midnightblue" points="802.415,-135.389 811.888,-130.643 801.524,-128.446 802.415,-135.389"/>
</g>
<!-- Node16&#45;&gt;Node2 -->
<g id="edge19" class="edge"><title>Node16&#45;&gt;Node2</title>
<path fill="none" stroke="midnightblue" d="M811.905,-113.213C808.558,-112.764 805.23,-112.353 802,-112 528.936,-82.1684 459.107,-93.8637 185,-76 155.934,-74.1057 123.083,-71.7314 98.3556,-69.8971"/>
<polygon fill="midnightblue" stroke="midnightblue" points="98.5224,-66.3999 88.2899,-69.1471 98.0022,-73.3806 98.5224,-66.3999"/>
</g>
<!-- Node16&#45;&gt;Node4 -->
<g id="edge36" class="edge"><title>Node16&#45;&gt;Node4</title>
<path fill="none" stroke="midnightblue" d="M811.893,-113.321C808.549,-112.847 805.225,-112.4 802,-112 623.749,-89.8795 573.602,-108.945 393.311,-75.8931"/>
<polygon fill="midnightblue" stroke="midnightblue" points="393.697,-72.405 383.226,-74.0153 392.416,-79.2867 393.697,-72.405"/>
</g>
<!-- Node16&#45;&gt;Node7 -->
<g id="edge37" class="edge"><title>Node16&#45;&gt;Node7</title>
<path fill="none" stroke="midnightblue" d="M811.878,-113.432C808.537,-112.932 805.218,-112.449 802,-112 667.25,-93.2015 628.144,-115.669 498,-76 479.367,-70.3204 477.007,-63.431 459,-56 424.473,-41.7514 383.695,-29.1752 354.898,-20.9662"/>
<polygon fill="midnightblue" stroke="midnightblue" points="355.815,-17.5886 345.241,-18.2492 353.919,-24.3269 355.815,-17.5886"/>
</g>
<!-- Node16&#45;&gt;Node13 -->
<g id="edge27" class="edge"><title>Node16&#45;&gt;Node13</title>
<path fill="none" stroke="midnightblue" d="M811.884,-113.39C808.542,-112.9 805.221,-112.431 802,-112 652.698,-92.0422 613.544,-100.981 465,-76 463.544,-75.7551 462.061,-75.4889 460.565,-75.2065"/>
<polygon fill="midnightblue" stroke="midnightblue" points="461.169,-71.7574 450.668,-73.1645 459.754,-78.613 461.169,-71.7574"/>
</g>
<!-- Node16&#45;&gt;Node14 -->
<g id="edge32" class="edge"><title>Node16&#45;&gt;Node14</title>
<path fill="none" stroke="midnightblue" d="M811.901,-113.248C808.555,-112.79 805.229,-112.368 802,-112 566.539,-85.1696 504.974,-106.813 270,-76 267.92,-75.7272 265.792,-75.4181 263.648,-75.0827"/>
<polygon fill="midnightblue" stroke="midnightblue" points="264.052,-71.6011 253.604,-73.3599 262.868,-78.5003 264.052,-71.6011"/>
</g>
<!-- Node16&#45;&gt;Node15 -->
<g id="edge33" class="edge"><title>Node16&#45;&gt;Node15</title>
<path fill="none" stroke="midnightblue" d="M811.898,-113.279C808.553,-112.815 805.227,-112.382 802,-112 596.334,-87.6728 538.638,-113.614 330.538,-75.6458"/>
<polygon fill="midnightblue" stroke="midnightblue" points="330.984,-72.1689 320.513,-73.789 329.709,-79.0518 330.984,-72.1689"/>
</g>
<!-- Node17 -->
<g id="node17" class="node"><title>Node17</title>
<polygon fill="white" stroke="#bfbfbf" points="507.5,-56.5 507.5,-75.5 556.5,-75.5 556.5,-56.5 507.5,-56.5"/>
<text text-anchor="middle" x="532" y="-63.5" font-family="Helvetica,sans-Serif" font-size="10.00">cassert</text>
</g>
<!-- Node16&#45;&gt;Node17 -->
<g id="edge20" class="edge"><title>Node16&#45;&gt;Node17</title>
<path fill="none" stroke="midnightblue" d="M811.86,-113.555C808.524,-113.026 805.21,-112.503 802,-112 700.349,-96.0789 671.603,-97.5008 566.847,-75.9802"/>
<polygon fill="midnightblue" stroke="midnightblue" points="567.312,-72.5022 556.809,-73.8964 565.889,-79.3561 567.312,-72.5022"/>
</g>
<!-- Node18 -->
<g id="node18" class="node"><title>Node18</title>
<polygon fill="white" stroke="#bfbfbf" points="575,-56.5 575,-75.5 621,-75.5 621,-56.5 575,-56.5"/>
<text text-anchor="middle" x="598" y="-63.5" font-family="Helvetica,sans-Serif" font-size="10.00">cctype</text>
</g>
<!-- Node16&#45;&gt;Node18 -->
<g id="edge21" class="edge"><title>Node16&#45;&gt;Node18</title>
<path fill="none" stroke="midnightblue" d="M811.914,-113.013C767.862,-105.13 699.386,-92.2345 631.088,-76.1105"/>
<polygon fill="midnightblue" stroke="midnightblue" points="631.554,-72.6237 621.015,-73.7084 629.93,-79.4328 631.554,-72.6237"/>
</g>
<!-- Node19 -->
<g id="node19" class="node"><title>Node19</title>
<polygon fill="white" stroke="#bfbfbf" points="639,-56.5 639,-75.5 683,-75.5 683,-56.5 639,-56.5"/>
<text text-anchor="middle" x="661" y="-63.5" font-family="Helvetica,sans-Serif" font-size="10.00">cmath</text>
</g>
<!-- Node16&#45;&gt;Node19 -->
<g id="edge22" class="edge"><title>Node16&#45;&gt;Node19</title>
<path fill="none" stroke="midnightblue" d="M825.82,-112.459C794.305,-104.053 744.677,-90.7116 692.725,-76.1686"/>
<polygon fill="midnightblue" stroke="midnightblue" points="693.575,-72.772 683.002,-73.44 691.684,-79.5117 693.575,-72.772"/>
</g>
<!-- Node20 -->
<g id="node20" class="node"><title>Node20</title>
<polygon fill="white" stroke="#bfbfbf" points="1413,-56.5 1413,-75.5 1459,-75.5 1459,-56.5 1413,-56.5"/>
<text text-anchor="middle" x="1436" y="-63.5" font-family="Helvetica,sans-Serif" font-size="10.00">cstdint</text>
</g>
<!-- Node16&#45;&gt;Node20 -->
<g id="edge23" class="edge"><title>Node16&#45;&gt;Node20</title>
<path fill="none" stroke="midnightblue" d="M904.045,-120.18C996.897,-117.885 1213.21,-109.303 1402.84,-75.8767"/>
<polygon fill="midnightblue" stroke="midnightblue" points="1403.48,-79.318 1412.7,-74.1105 1402.24,-72.4275 1403.48,-79.318"/>
</g>
<!-- Node21 -->
<g id="node21" class="node"><title>Node21</title>
<polygon fill="white" stroke="#bfbfbf" points="701,-56.5 701,-75.5 747,-75.5 747,-56.5 701,-56.5"/>
<text text-anchor="middle" x="724" y="-63.5" font-family="Helvetica,sans-Serif" font-size="10.00">cstring</text>
</g>
<!-- Node16&#45;&gt;Node21 -->
<g id="edge24" class="edge"><title>Node16&#45;&gt;Node21</title>
<path fill="none" stroke="midnightblue" d="M836.767,-112.444C814.616,-103.517 779.681,-89.4387 754.564,-79.3168"/>
<polygon fill="midnightblue" stroke="midnightblue" points="755.717,-76.0079 745.133,-75.5164 753.1,-82.5006 755.717,-76.0079"/>
</g>
<!-- Node22 -->
<g id="node22" class="node"><title>Node22</title>
<polygon fill="white" stroke="#bfbfbf" points="765,-56.5 765,-75.5 815,-75.5 815,-56.5 765,-56.5"/>
<text text-anchor="middle" x="790" y="-63.5" font-family="Helvetica,sans-Serif" font-size="10.00">fstream</text>
</g>
<!-- Node16&#45;&gt;Node22 -->
<g id="edge25" class="edge"><title>Node16&#45;&gt;Node22</title>
<path fill="none" stroke="midnightblue" d="M847.075,-112.324C836.825,-104.185 821.279,-91.8395 808.999,-82.0874"/>
<polygon fill="midnightblue" stroke="midnightblue" points="811.132,-79.3119 801.124,-75.8339 806.779,-84.7937 811.132,-79.3119"/>
</g>
<!-- Node23 -->
<g id="node23" class="node"><title>Node23</title>
<polygon fill="white" stroke="#bfbfbf" points="833,-56.5 833,-75.5 883,-75.5 883,-56.5 833,-56.5"/>
<text text-anchor="middle" x="858" y="-63.5" font-family="Helvetica,sans-Serif" font-size="10.00">iomanip</text>
</g>
<!-- Node16&#45;&gt;Node23 -->
<g id="edge26" class="edge"><title>Node16&#45;&gt;Node23</title>
<path fill="none" stroke="midnightblue" d="M858,-112.083C858,-105.006 858,-94.8611 858,-85.9865"/>
<polygon fill="midnightblue" stroke="midnightblue" points="861.5,-85.751 858,-75.7511 854.5,-85.7511 861.5,-85.751"/>
</g>
<!-- Node24 -->
<g id="node24" class="node"><title>Node24</title>
<polygon fill="white" stroke="#bfbfbf" points="901,-56.5 901,-75.5 941,-75.5 941,-56.5 901,-56.5"/>
<text text-anchor="middle" x="921" y="-63.5" font-family="Helvetica,sans-Serif" font-size="10.00">limits</text>
</g>
<!-- Node16&#45;&gt;Node24 -->
<g id="edge28" class="edge"><title>Node16&#45;&gt;Node24</title>
<path fill="none" stroke="midnightblue" d="M868.122,-112.324C877.526,-104.263 891.744,-92.0765 903.069,-82.3695"/>
<polygon fill="midnightblue" stroke="midnightblue" points="905.379,-84.9993 910.694,-75.8339 900.823,-79.6844 905.379,-84.9993"/>
</g>
<!-- Node25 -->
<g id="node25" class="node"><title>Node25</title>
<polygon fill="white" stroke="#bfbfbf" points="1219.5,-56.5 1219.5,-75.5 1254.5,-75.5 1254.5,-56.5 1219.5,-56.5"/>
<text text-anchor="middle" x="1237" y="-63.5" font-family="Helvetica,sans-Serif" font-size="10.00">map</text>
</g>
<!-- Node16&#45;&gt;Node25 -->
<g id="edge29" class="edge"><title>Node16&#45;&gt;Node25</title>
<path fill="none" stroke="midnightblue" d="M904.17,-113.95C908.84,-113.274 913.512,-112.613 918,-112 1044.39,-94.7321 1080.69,-104.321 1209.57,-75.6436"/>
<polygon fill="midnightblue" stroke="midnightblue" points="1210.44,-79.0354 1219.42,-73.4177 1208.9,-72.2075 1210.44,-79.0354"/>
</g>
<!-- Node26 -->
<g id="node26" class="node"><title>Node26</title>
<polygon fill="white" stroke="#bfbfbf" points="1273,-56.5 1273,-75.5 1325,-75.5 1325,-56.5 1273,-56.5"/>
<text text-anchor="middle" x="1299" y="-63.5" font-family="Helvetica,sans-Serif" font-size="10.00">memory</text>
</g>
<!-- Node16&#45;&gt;Node26 -->
<g id="edge30" class="edge"><title>Node16&#45;&gt;Node26</title>
<path fill="none" stroke="midnightblue" d="M904.146,-117.9C977.785,-112.512 1126.52,-99.8212 1262.55,-75.8205"/>
<polygon fill="midnightblue" stroke="midnightblue" points="1263.52,-79.2043 1272.74,-73.9973 1262.28,-72.3137 1263.52,-79.2043"/>
</g>
<!-- Node27 -->
<g id="node27" class="node"><title>Node27</title>
<polygon fill="white" stroke="#bfbfbf" points="1343,-56.5 1343,-75.5 1395,-75.5 1395,-56.5 1343,-56.5"/>
<text text-anchor="middle" x="1369" y="-63.5" font-family="Helvetica,sans-Serif" font-size="10.00">sstream</text>
</g>
<!-- Node16&#45;&gt;Node27 -->
<g id="edge31" class="edge"><title>Node16&#45;&gt;Node27</title>
<path fill="none" stroke="midnightblue" d="M904.272,-119.047C987.97,-114.991 1170.15,-103.761 1332.55,-75.9957"/>
<polygon fill="midnightblue" stroke="midnightblue" points="1333.47,-79.3885 1342.72,-74.2299 1332.27,-72.4917 1333.47,-79.3885"/>
</g>
<!-- Node28 -->
<g id="node28" class="node"><title>Node28</title>
<polygon fill="white" stroke="#bfbfbf" points="959.5,-56.5 959.5,-75.5 1010.5,-75.5 1010.5,-56.5 959.5,-56.5"/>
<text text-anchor="middle" x="985" y="-63.5" font-family="Helvetica,sans-Serif" font-size="10.00">typeinfo</text>
</g>
<!-- Node16&#45;&gt;Node28 -->
<g id="edge34" class="edge"><title>Node16&#45;&gt;Node28</title>
<path fill="none" stroke="midnightblue" d="M878.124,-112.444C899.024,-103.557 931.935,-89.5632 955.716,-79.4514"/>
<polygon fill="midnightblue" stroke="midnightblue" points="957.138,-82.6504 964.971,-75.5164 954.398,-76.2085 957.138,-82.6504"/>
</g>
<!-- Node29 -->
<g id="node29" class="node"><title>Node29</title>
<polygon fill="white" stroke="#bfbfbf" points="1029,-56.5 1029,-75.5 1091,-75.5 1091,-56.5 1029,-56.5"/>
<text text-anchor="middle" x="1060" y="-63.5" font-family="Helvetica,sans-Serif" font-size="10.00">type_traits</text>
</g>
<!-- Node16&#45;&gt;Node29 -->
<g id="edge35" class="edge"><title>Node16&#45;&gt;Node29</title>
<path fill="none" stroke="midnightblue" d="M890.008,-112.444C924.933,-103.107 980.942,-88.1343 1019.05,-77.9478"/>
<polygon fill="midnightblue" stroke="midnightblue" points="1020.05,-81.3029 1028.81,-75.339 1018.24,-74.5404 1020.05,-81.3029"/>
</g>
<!-- Node30 -->
<g id="node30" class="node"><title>Node30</title>
<g id="a_node30"><a xlink:href="NullOStream_8hpp.html" target="_top" xlink:title="NullOStream.hpp">
<polygon fill="white" stroke="black" points="1109,-56.5 1109,-75.5 1201,-75.5 1201,-56.5 1109,-56.5"/>
<text text-anchor="middle" x="1155" y="-63.5" font-family="Helvetica,sans-Serif" font-size="10.00">NullOStream.hpp</text>
</a>
</g>
</g>
<!-- Node16&#45;&gt;Node30 -->
<g id="edge38" class="edge"><title>Node16&#45;&gt;Node30</title>
<path fill="none" stroke="midnightblue" d="M904.08,-112.622C956.538,-103.084 1042.24,-87.5014 1098.64,-77.2478"/>
<polygon fill="midnightblue" stroke="midnightblue" points="1099.6,-80.6304 1108.81,-75.3979 1098.35,-73.7433 1099.6,-80.6304"/>
</g>
<!-- Node32 -->
<g id="node32" class="node"><title>Node32</title>
<g id="a_node32"><a xlink:href="pdal__util__export_8hpp.html" target="_top" xlink:title="pdal_util_export.hpp">
<polygon fill="white" stroke="black" points="1477,-56.5 1477,-75.5 1581,-75.5 1581,-56.5 1477,-56.5"/>
<text text-anchor="middle" x="1529" y="-63.5" font-family="Helvetica,sans-Serif" font-size="10.00">pdal_util_export.hpp</text>
</a>
</g>
</g>
<!-- Node16&#45;&gt;Node32 -->
<g id="edge41" class="edge"><title>Node16&#45;&gt;Node32</title>
<path fill="none" stroke="midnightblue" d="M904.018,-118.753C1004.32,-113.607 1250.36,-99.6423 1466.83,-76.0532"/>
<polygon fill="midnightblue" stroke="midnightblue" points="1467.23,-79.5302 1476.79,-74.9587 1466.47,-72.5721 1467.23,-79.5302"/>
</g>
<!-- Node30&#45;&gt;Node7 -->
<g id="edge39" class="edge"><title>Node30&#45;&gt;Node7</title>
<path fill="none" stroke="midnightblue" d="M1108.83,-57.0858C1105.85,-56.6854 1102.89,-56.3182 1100,-56 814.54,-24.5183 467.875,-14.3538 355.256,-11.7599"/>
<polygon fill="midnightblue" stroke="midnightblue" points="355.174,-8.25732 345.098,-11.5321 355.017,-15.2556 355.174,-8.25732"/>
</g>
<!-- Node31 -->
<g id="node31" class="node"><title>Node31</title>
<polygon fill="white" stroke="#bfbfbf" points="1125,-0.5 1125,-19.5 1185,-19.5 1185,-0.5 1125,-0.5"/>
<text text-anchor="middle" x="1155" y="-7.5" font-family="Helvetica,sans-Serif" font-size="10.00">streambuf</text>
</g>
<!-- Node30&#45;&gt;Node31 -->
<g id="edge40" class="edge"><title>Node30&#45;&gt;Node31</title>
<path fill="none" stroke="midnightblue" d="M1155,-56.083C1155,-49.0059 1155,-38.8611 1155,-29.9865"/>
<polygon fill="midnightblue" stroke="midnightblue" points="1158.5,-29.751 1155,-19.7511 1151.5,-29.7511 1158.5,-29.751"/>
</g>
<!-- Node33&#45;&gt;Node4 -->
<g id="edge44" class="edge"><title>Node33&#45;&gt;Node4</title>
<path fill="none" stroke="midnightblue" d="M364.511,-230.172C424.514,-225.674 518.231,-214.508 540,-188 545.641,-181.131 544.482,-175.676 540,-168 523.369,-139.521 437.426,-99.5091 390.94,-79.4685"/>
<polygon fill="midnightblue" stroke="midnightblue" points="392.229,-76.2134 381.658,-75.5065 389.481,-82.6514 392.229,-76.2134"/>
</g>
<!-- Node33&#45;&gt;Node10 -->
<g id="edge49" class="edge"><title>Node33&#45;&gt;Node10</title>
<path fill="none" stroke="midnightblue" d="M321.587,-224.083C329.159,-216.22 340.378,-204.569 349.514,-195.081"/>
<polygon fill="midnightblue" stroke="midnightblue" points="352.158,-197.382 356.573,-187.751 347.115,-192.527 352.158,-197.382"/>
</g>
<!-- Node33&#45;&gt;Node15 -->
<g id="edge43" class="edge"><title>Node33&#45;&gt;Node15</title>
<path fill="none" stroke="midnightblue" d="M310.851,-224.44C308.694,-215.436 305.484,-200.821 304,-188 299.826,-151.935 299.464,-109.45 299.67,-85.6291"/>
<polygon fill="midnightblue" stroke="midnightblue" points="303.17,-85.5893 299.802,-75.5441 296.171,-85.4973 303.17,-85.5893"/>
</g>
<!-- Node33&#45;&gt;Node16 -->
<g id="edge50" class="edge"><title>Node33&#45;&gt;Node16</title>
<path fill="none" stroke="midnightblue" d="M364.631,-231.034C438.277,-227.297 577.277,-216.769 692,-188 742.875,-175.242 799.139,-150.891 831.362,-135.886"/>
<polygon fill="midnightblue" stroke="midnightblue" points="833.003,-138.982 840.557,-131.553 830.019,-132.649 833.003,-138.982"/>
</g>
<!-- Node34 -->
<g id="node34" class="node"><title>Node34</title>
<g id="a_node34"><a xlink:href="DimUtil_8hpp.html" target="_top" xlink:title="pdal/DimUtil.hpp">
<polygon fill="white" stroke="black" points="442.5,-168.5 442.5,-187.5 531.5,-187.5 531.5,-168.5 442.5,-168.5"/>
<text text-anchor="middle" x="487" y="-175.5" font-family="Helvetica,sans-Serif" font-size="10.00">pdal/DimUtil.hpp</text>
</a>
</g>
</g>
<!-- Node33&#45;&gt;Node34 -->
<g id="edge45" class="edge"><title>Node33&#45;&gt;Node34</title>
<path fill="none" stroke="midnightblue" d="M340.571,-224.444C370.097,-215.28 417.118,-200.688 449.883,-190.519"/>
<polygon fill="midnightblue" stroke="midnightblue" points="451.045,-193.823 459.558,-187.516 448.97,-187.138 451.045,-193.823"/>
</g>
<!-- Node34&#45;&gt;Node4 -->
<g id="edge47" class="edge"><title>Node34&#45;&gt;Node4</title>
<path fill="none" stroke="midnightblue" d="M477.113,-168.368C455.859,-149.814 405.573,-105.913 378.683,-82.4376"/>
<polygon fill="midnightblue" stroke="midnightblue" points="380.676,-79.5314 370.841,-75.5914 376.072,-84.8046 380.676,-79.5314"/>
</g>
<!-- Node34&#45;&gt;Node15 -->
<g id="edge46" class="edge"><title>Node34&#45;&gt;Node15</title>
<path fill="none" stroke="midnightblue" d="M475.653,-168.436C458.185,-155.437 423.427,-130.308 392,-112 371.423,-100.013 347.196,-88.2521 328.77,-79.7612"/>
<polygon fill="midnightblue" stroke="midnightblue" points="330.004,-76.4772 319.452,-75.5178 327.102,-82.8476 330.004,-76.4772"/>
</g>
<!-- Node34&#45;&gt;Node16 -->
<g id="edge48" class="edge"><title>Node34&#45;&gt;Node16</title>
<path fill="none" stroke="midnightblue" d="M531.637,-170.873C590.805,-162.697 698.724,-147.592 801.897,-131.991"/>
<polygon fill="midnightblue" stroke="midnightblue" points="802.503,-135.439 811.865,-130.48 801.454,-128.518 802.503,-135.439"/>
</g>
<!-- Node35&#45;&gt;Node10 -->
<g id="edge52" class="edge"><title>Node35&#45;&gt;Node10</title>
<path fill="none" stroke="midnightblue" d="M320.552,-392.323C334.411,-375.757 363.446,-337.888 374,-300 383.808,-264.789 376.185,-221.72 370.255,-197.622"/>
<polygon fill="midnightblue" stroke="midnightblue" points="373.575,-196.485 367.641,-187.707 366.806,-198.269 373.575,-196.485"/>
</g>
<!-- Node35&#45;&gt;Node33 -->
<g id="edge53" class="edge"><title>Node35&#45;&gt;Node33</title>
<path fill="none" stroke="midnightblue" d="M306.137,-392.489C293.257,-375.904 265.874,-337.584 256,-300 253.741,-291.403 252.124,-287.999 256,-280 262.397,-266.8 274.752,-256.303 286.329,-248.779"/>
<polygon fill="midnightblue" stroke="midnightblue" points="288.155,-251.765 294.918,-243.61 284.546,-245.768 288.155,-251.765"/>
</g>
<!-- Node35&#45;&gt;Node36 -->
<g id="edge54" class="edge"><title>Node35&#45;&gt;Node36</title>
<path fill="none" stroke="midnightblue" d="M338.669,-392.444C365.923,-383.359 409.184,-368.939 439.651,-358.783"/>
<polygon fill="midnightblue" stroke="midnightblue" points="441.071,-361.999 449.451,-355.516 438.857,-355.358 441.071,-361.999"/>
</g>
<!-- Node36&#45;&gt;Node4 -->
<g id="edge58" class="edge"><title>Node36&#45;&gt;Node4</title>
<path fill="none" stroke="midnightblue" d="M529.021,-338.214C552.77,-332.244 578.509,-321.035 593,-300 598.043,-292.68 594.948,-288.673 593,-280 580.929,-226.269 577.519,-208.311 540,-168 498.18,-123.068 431.737,-92.9158 392.646,-77.9691"/>
<polygon fill="midnightblue" stroke="midnightblue" points="393.687,-74.6218 383.094,-74.4118 391.244,-81.1817 393.687,-74.6218"/>
</g>
<!-- Node36&#45;&gt;Node15 -->
<g id="edge57" class="edge"><title>Node36&#45;&gt;Node15</title>
<path fill="none" stroke="midnightblue" d="M420.964,-341.232C363.274,-335.991 277.268,-324.263 256,-300 200.751,-236.972 261.214,-126.819 288.281,-84.3667"/>
<polygon fill="midnightblue" stroke="midnightblue" points="291.243,-86.2317 293.784,-75.9461 285.383,-82.402 291.243,-86.2317"/>
</g>
<!-- Node36&#45;&gt;Node25 -->
<g id="edge56" class="edge"><title>Node36&#45;&gt;Node25</title>
<path fill="none" stroke="midnightblue" d="M529.219,-343.306C650.273,-338.052 932,-317.014 932,-235 932,-235 932,-235 932,-177 932,-169.658 1134.68,-101.19 1209.59,-76.1316"/>
<polygon fill="midnightblue" stroke="midnightblue" points="1210.91,-79.383 1219.28,-72.8947 1208.69,-72.7437 1210.91,-79.383"/>
</g>
<!-- Node37 -->
<g id="node37" class="node"><title>Node37</title>
<polygon fill="white" stroke="#bfbfbf" points="535.5,-280.5 535.5,-299.5 584.5,-299.5 584.5,-280.5 535.5,-280.5"/>
<text text-anchor="middle" x="560" y="-287.5" font-family="Helvetica,sans-Serif" font-size="10.00">cstddef</text>
</g>
<!-- Node36&#45;&gt;Node37 -->
<g id="edge55" class="edge"><title>Node36&#45;&gt;Node37</title>
<path fill="none" stroke="midnightblue" d="M488.657,-336.324C501.916,-327.9 522.268,-314.971 537.846,-305.074"/>
<polygon fill="midnightblue" stroke="midnightblue" points="539.813,-307.971 546.377,-299.655 536.06,-302.063 539.813,-307.971"/>
</g>
<!-- Node38 -->
<g id="node38" class="node"><title>Node38</title>
<g id="a_node38"><a xlink:href="DimDetail_8hpp.html" target="_top" xlink:title="pdal/DimDetail.hpp">
<polygon fill="white" stroke="black" points="265,-280.5 265,-299.5 365,-299.5 365,-280.5 265,-280.5"/>
<text text-anchor="middle" x="315" y="-287.5" font-family="Helvetica,sans-Serif" font-size="10.00">pdal/DimDetail.hpp</text>
</a>
</g>
</g>
<!-- Node36&#45;&gt;Node38 -->
<g id="edge59" class="edge"><title>Node36&#45;&gt;Node38</title>
<path fill="none" stroke="midnightblue" d="M449.648,-336.444C422.731,-327.359 380.004,-312.939 349.913,-302.783"/>
<polygon fill="midnightblue" stroke="midnightblue" points="350.828,-299.398 340.234,-299.516 348.59,-306.031 350.828,-299.398"/>
</g>
<!-- Node39 -->
<g id="node39" class="node"><title>Node39</title>
<g id="a_node39"><a xlink:href="DimType_8hpp.html" target="_top" xlink:title="pdal/DimType.hpp">
<polygon fill="white" stroke="black" points="421,-280.5 421,-299.5 517,-299.5 517,-280.5 421,-280.5"/>
<text text-anchor="middle" x="469" y="-287.5" font-family="Helvetica,sans-Serif" font-size="10.00">pdal/DimType.hpp</text>
</a>
</g>
</g>
<!-- Node36&#45;&gt;Node39 -->
<g id="edge61" class="edge"><title>Node36&#45;&gt;Node39</title>
<path fill="none" stroke="midnightblue" d="M474.009,-336.083C473.214,-328.927 472.071,-318.635 471.077,-309.691"/>
<polygon fill="midnightblue" stroke="midnightblue" points="474.555,-309.303 469.972,-299.751 467.598,-310.076 474.555,-309.303"/>
</g>
<!-- Node36&#45;&gt;Node40 -->
<g id="edge64" class="edge"><title>Node36&#45;&gt;Node40</title>
<path fill="none" stroke="midnightblue" d="M529.126,-340.655C616.811,-333.43 795.306,-317.953 946,-300 947.296,-299.846 948.606,-299.686 949.927,-299.523"/>
<polygon fill="midnightblue" stroke="midnightblue" points="950.719,-302.95 960.19,-298.202 949.825,-296.007 950.719,-302.95"/>
</g>
<!-- Node38&#45;&gt;Node33 -->
<g id="edge60" class="edge"><title>Node38&#45;&gt;Node33</title>
<path fill="none" stroke="midnightblue" d="M314.67,-280.083C314.408,-273.006 314.032,-262.861 313.703,-253.986"/>
<polygon fill="midnightblue" stroke="midnightblue" points="317.192,-253.615 313.324,-243.751 310.197,-253.874 317.192,-253.615"/>
</g>
<!-- Node39&#45;&gt;Node10 -->
<g id="edge63" class="edge"><title>Node39&#45;&gt;Node10</title>
<path fill="none" stroke="midnightblue" d="M460.839,-280.368C443.448,-261.974 402.507,-218.671 380.176,-195.052"/>
<polygon fill="midnightblue" stroke="midnightblue" points="382.536,-192.453 373.123,-187.591 377.45,-197.262 382.536,-192.453"/>
</g>
<!-- Node39&#45;&gt;Node33 -->
<g id="edge62" class="edge"><title>Node39&#45;&gt;Node33</title>
<path fill="none" stroke="midnightblue" d="M444.281,-280.444C418.152,-271.399 376.741,-257.064 347.424,-246.916"/>
<polygon fill="midnightblue" stroke="midnightblue" points="348.198,-243.48 337.603,-243.516 345.908,-250.095 348.198,-243.48"/>
</g>
<!-- Node40&#45;&gt;Node4 -->
<g id="edge83" class="edge"><title>Node40&#45;&gt;Node4</title>
<path fill="none" stroke="midnightblue" d="M987.807,-280.363C929.843,-256.728 763.81,-188.955 626,-132 604.641,-123.173 600.126,-118.675 578,-112 500.379,-88.5841 475.675,-95.2038 393.098,-76.0649"/>
<polygon fill="midnightblue" stroke="midnightblue" points="393.824,-72.6401 383.286,-73.7341 392.206,-79.4506 393.824,-72.6401"/>
</g>
<!-- Node40&#45;&gt;Node6 -->
<g id="edge65" class="edge"><title>Node40&#45;&gt;Node6</title>
<path fill="none" stroke="midnightblue" d="M960.284,-286.218C840.021,-279.324 519.392,-260.795 252,-244 229.063,-242.559 203.954,-240.916 181.623,-239.432"/>
<polygon fill="midnightblue" stroke="midnightblue" points="181.787,-235.935 171.577,-238.762 181.322,-242.92 181.787,-235.935"/>
</g>
<!-- Node40&#45;&gt;Node11 -->
<g id="edge84" class="edge"><title>Node40&#45;&gt;Node11</title>
<path fill="none" stroke="midnightblue" d="M996.434,-280.309C957.473,-253.36 838.412,-171.01 789.901,-137.457"/>
<polygon fill="midnightblue" stroke="midnightblue" points="791.657,-134.415 781.441,-131.605 787.675,-140.172 791.657,-134.415"/>
</g>
<!-- Node40&#45;&gt;Node16 -->
<g id="edge70" class="edge"><title>Node40&#45;&gt;Node16</title>
<path fill="none" stroke="midnightblue" d="M1000.88,-280.075C976.598,-253.38 904.269,-173.865 872.847,-139.322"/>
<polygon fill="midnightblue" stroke="midnightblue" points="875.112,-136.61 865.794,-131.568 869.934,-141.321 875.112,-136.61"/>
</g>
<!-- Node40&#45;&gt;Node25 -->
<g id="edge81" class="edge"><title>Node40&#45;&gt;Node25</title>
<path fill="none" stroke="midnightblue" d="M1014.38,-280.258C1031.71,-252.64 1088.78,-165.9 1154,-112 1170.9,-98.0343 1192.8,-86.3782 1209.86,-78.4305"/>
<polygon fill="midnightblue" stroke="midnightblue" points="1211.59,-81.4893 1219.27,-74.1902 1208.71,-75.1072 1211.59,-81.4893"/>
</g>
<!-- Node40&#45;&gt;Node26 -->
<g id="edge82" class="edge"><title>Node40&#45;&gt;Node26</title>
<path fill="none" stroke="midnightblue" d="M1020.37,-280.297C1064.4,-246.588 1224.05,-124.374 1279.7,-81.7708"/>
<polygon fill="midnightblue" stroke="midnightblue" points="1281.9,-84.5003 1287.71,-75.6425 1277.64,-78.9419 1281.9,-84.5003"/>
</g>
<!-- Node41 -->
<g id="node41" class="node"><title>Node41</title>
<g id="a_node41"><a xlink:href="Bounds_8hpp.html" target="_top" xlink:title="pdal/util/Bounds.hpp">
<polygon fill="white" stroke="black" points="1309.5,-112.5 1309.5,-131.5 1414.5,-131.5 1414.5,-112.5 1309.5,-112.5"/>
<text text-anchor="middle" x="1362" y="-119.5" font-family="Helvetica,sans-Serif" font-size="10.00">pdal/util/Bounds.hpp</text>
</a>
</g>
</g>
<!-- Node40&#45;&gt;Node41 -->
<g id="edge66" class="edge"><title>Node40&#45;&gt;Node41</title>
<path fill="none" stroke="midnightblue" d="M1057.84,-280.868C1093.33,-273.879 1141.96,-262.033 1182,-244 1246.33,-215.026 1312.93,-163.64 1344,-138.174"/>
<polygon fill="midnightblue" stroke="midnightblue" points="1346.33,-140.794 1351.79,-131.719 1341.86,-135.404 1346.33,-140.794"/>
</g>
<!-- Node42 -->
<g id="node42" class="node"><title>Node42</title>
<g id="a_node42"><a xlink:href="Uuid_8hpp.html" target="_top" xlink:title="pdal/util/Uuid.hpp">
<polygon fill="white" stroke="black" points="1416,-168.5 1416,-187.5 1508,-187.5 1508,-168.5 1416,-168.5"/>
<text text-anchor="middle" x="1462" y="-175.5" font-family="Helvetica,sans-Serif" font-size="10.00">pdal/util/Uuid.hpp</text>
</a>
</g>
</g>
<!-- Node40&#45;&gt;Node42 -->
<g id="edge71" class="edge"><title>Node40&#45;&gt;Node42</title>
<path fill="none" stroke="midnightblue" d="M1057.5,-284.78C1115.48,-278.976 1215.08,-266.584 1298,-244 1347.81,-230.434 1403.13,-206.552 1435.11,-191.821"/>
<polygon fill="midnightblue" stroke="midnightblue" points="1436.66,-194.958 1444.25,-187.564 1433.71,-188.612 1436.66,-194.958"/>
</g>
<!-- Node41&#45;&gt;Node20 -->
<g id="edge67" class="edge"><title>Node41&#45;&gt;Node20</title>
<path fill="none" stroke="midnightblue" d="M1373.89,-112.324C1385.15,-104.107 1402.29,-91.6017 1415.71,-81.8069"/>
<polygon fill="midnightblue" stroke="midnightblue" points="1417.88,-84.5559 1423.89,-75.8339 1413.75,-78.9014 1417.88,-84.5559"/>
</g>
<!-- Node41&#45;&gt;Node27 -->
<g id="edge68" class="edge"><title>Node41&#45;&gt;Node27</title>
<path fill="none" stroke="midnightblue" d="M1363.16,-112.083C1364.08,-104.927 1365.42,-94.6353 1366.58,-85.6911"/>
<polygon fill="midnightblue" stroke="midnightblue" points="1370.05,-86.1181 1367.87,-75.7511 1363.11,-85.2181 1370.05,-86.1181"/>
</g>
<!-- Node41&#45;&gt;Node32 -->
<g id="edge69" class="edge"><title>Node41&#45;&gt;Node32</title>
<path fill="none" stroke="midnightblue" d="M1388.46,-112.444C1416.68,-103.32 1461.54,-88.8133 1492.97,-78.6509"/>
<polygon fill="midnightblue" stroke="midnightblue" points="1494.22,-81.9234 1502.66,-75.5164 1492.07,-75.263 1494.22,-81.9234"/>
</g>
<!-- Node42&#45;&gt;Node15 -->
<g id="edge73" class="edge"><title>Node42&#45;&gt;Node15</title>
<path fill="none" stroke="midnightblue" d="M1415.97,-175.36C1300.93,-170.997 991.693,-157.654 735,-132 557.455,-114.256 509.28,-114.646 330.547,-75.8032"/>
<polygon fill="midnightblue" stroke="midnightblue" points="331.064,-72.3337 320.548,-73.619 329.57,-79.1724 331.064,-72.3337"/>
</g>
<!-- Node42&#45;&gt;Node20 -->
<g id="edge72" class="edge"><title>Node42&#45;&gt;Node20</title>
<path fill="none" stroke="midnightblue" d="M1459.96,-168.368C1455.76,-150.617 1446.08,-109.666 1440.4,-85.5974"/>
<polygon fill="midnightblue" stroke="midnightblue" points="1443.74,-84.5182 1438.03,-75.5914 1436.92,-86.1284 1443.74,-84.5182"/>
</g>
<!-- Node42&#45;&gt;Node32 -->
<g id="edge74" class="edge"><title>Node42&#45;&gt;Node32</title>
<path fill="none" stroke="midnightblue" d="M1467.04,-168.096C1474.21,-155.507 1487.82,-131.827 1500,-112 1505.72,-102.678 1512.32,-92.4152 1517.77,-84.0475"/>
<polygon fill="midnightblue" stroke="midnightblue" points="1520.78,-85.8393 1523.33,-75.5564 1514.92,-82.0036 1520.78,-85.8393"/>
</g>
<!-- Node43 -->
<g id="node43" class="node"><title>Node43</title>
<g id="a_node43"><a xlink:href="Inserter_8hpp.html" target="_top" xlink:title="Inserter.hpp">
<polygon fill="white" stroke="black" points="1509,-112.5 1509,-131.5 1577,-131.5 1577,-112.5 1509,-112.5"/>
<text text-anchor="middle" x="1543" y="-119.5" font-family="Helvetica,sans-Serif" font-size="10.00">Inserter.hpp</text>
</a>
</g>
</g>
<!-- Node42&#45;&gt;Node43 -->
<g id="edge75" class="edge"><title>Node42&#45;&gt;Node43</title>
<path fill="none" stroke="midnightblue" d="M1475.01,-168.324C1487.53,-159.979 1506.68,-147.212 1521.47,-137.352"/>
<polygon fill="midnightblue" stroke="midnightblue" points="1523.64,-140.114 1530.02,-131.655 1519.76,-134.289 1523.64,-140.114"/>
</g>
<!-- Node45 -->
<g id="node45" class="node"><title>Node45</title>
<g id="a_node45"><a xlink:href="Extractor_8hpp.html" target="_top" xlink:title="Extractor.hpp">
<polygon fill="white" stroke="black" points="1595.5,-112.5 1595.5,-131.5 1670.5,-131.5 1670.5,-112.5 1595.5,-112.5"/>
<text text-anchor="middle" x="1633" y="-119.5" font-family="Helvetica,sans-Serif" font-size="10.00">Extractor.hpp</text>
</a>
</g>
</g>
<!-- Node42&#45;&gt;Node45 -->
<g id="edge78" class="edge"><title>Node42&#45;&gt;Node45</title>
<path fill="none" stroke="midnightblue" d="M1489.1,-168.444C1517.99,-159.32 1563.92,-144.813 1596.11,-134.651"/>
<polygon fill="midnightblue" stroke="midnightblue" points="1597.55,-137.865 1606.03,-131.516 1595.44,-131.19 1597.55,-137.865"/>
</g>
<!-- Node43&#45;&gt;Node32 -->
<g id="edge77" class="edge"><title>Node43&#45;&gt;Node32</title>
<path fill="none" stroke="midnightblue" d="M1540.69,-112.083C1538.83,-104.927 1536.16,-94.6353 1533.85,-85.6911"/>
<polygon fill="midnightblue" stroke="midnightblue" points="1537.17,-84.5527 1531.27,-75.7511 1530.39,-86.3094 1537.17,-84.5527"/>
</g>
<!-- Node44 -->
<g id="node44" class="node"><title>Node44</title>
<g id="a_node44"><a xlink:href="portable__endian_8hpp.html" target="_top" xlink:title="portable_endian.hpp">
<polygon fill="white" stroke="black" points="1599,-56.5 1599,-75.5 1703,-75.5 1703,-56.5 1599,-56.5"/>
<text text-anchor="middle" x="1651" y="-63.5" font-family="Helvetica,sans-Serif" font-size="10.00">portable_endian.hpp</text>
</a>
</g>
</g>
<!-- Node43&#45;&gt;Node44 -->
<g id="edge76" class="edge"><title>Node43&#45;&gt;Node44</title>
<path fill="none" stroke="midnightblue" d="M1560.35,-112.324C1577.67,-103.664 1604.52,-90.2424 1624.5,-80.249"/>
<polygon fill="midnightblue" stroke="midnightblue" points="1626.31,-83.2572 1633.69,-75.6545 1623.18,-76.9962 1626.31,-83.2572"/>
</g>
<!-- Node45&#45;&gt;Node32 -->
<g id="edge79" class="edge"><title>Node45&#45;&gt;Node32</title>
<path fill="none" stroke="midnightblue" d="M1616.29,-112.324C1599.69,-103.703 1574,-90.3643 1554.78,-80.3855"/>
<polygon fill="midnightblue" stroke="midnightblue" points="1556.16,-77.1565 1545.67,-75.6545 1552.93,-83.3689 1556.16,-77.1565"/>
</g>
<!-- Node45&#45;&gt;Node44 -->
<g id="edge80" class="edge"><title>Node45&#45;&gt;Node44</title>
<path fill="none" stroke="midnightblue" d="M1635.97,-112.083C1638.38,-104.849 1641.86,-94.4087 1644.87,-85.3968"/>
<polygon fill="midnightblue" stroke="midnightblue" points="1648.24,-86.3447 1648.08,-75.7511 1641.6,-84.1311 1648.24,-86.3447"/>
</g>
</g>
</svg>
