<?xml version="1.0" encoding="UTF-8" standalone="no"?>
<!DOCTYPE svg PUBLIC "-//W3C//DTD SVG 1.1//EN"
 "http://www.w3.org/Graphics/SVG/1.1/DTD/svg11.dtd">
<!-- Generated by graphviz version 2.38.0 (20140413.2041)
 -->
<!-- Title: pdal/test/unit/ProgramArgsTest.cpp Pages: 1 -->
<svg width="1842pt" height="319pt"
 viewBox="0.00 0.00 1842.00 319.00" xmlns="http://www.w3.org/2000/svg" xmlns:xlink="http://www.w3.org/1999/xlink">
<g id="graph0" class="graph" transform="scale(1 1) rotate(0) translate(4 315)">
<title>pdal/test/unit/ProgramArgsTest.cpp</title>
<polygon fill="white" stroke="none" points="-4,4 -4,-315 1838,-315 1838,4 -4,4"/>
<!-- Node1 -->
<g id="node1" class="node"><title>Node1</title>
<polygon fill="#bfbfbf" stroke="black" points="186.5,-280.5 186.5,-310.5 319.5,-310.5 319.5,-280.5 186.5,-280.5"/>
<text text-anchor="start" x="194.5" y="-298.5" font-family="Helvetica,sans-Serif" font-size="10.00">pdal/test/unit/ProgramArgs</text>
<text text-anchor="middle" x="253" y="-287.5" font-family="Helvetica,sans-Serif" font-size="10.00">Test.cpp</text>
</g>
<!-- Node2 -->
<g id="node2" class="node"><title>Node2</title>
<g id="a_node2"><a xlink:href="pdal__test__main_8hpp.html" target="_top" xlink:title="pdal/pdal_test_main.hpp">
<polygon fill="white" stroke="black" points="0,-224.5 0,-243.5 122,-243.5 122,-224.5 0,-224.5"/>
<text text-anchor="middle" x="61" y="-231.5" font-family="Helvetica,sans-Serif" font-size="10.00">pdal/pdal_test_main.hpp</text>
</a>
</g>
</g>
<!-- Node1&#45;&gt;Node2 -->
<g id="edge1" class="edge"><title>Node1&#45;&gt;Node2</title>
<path fill="none" stroke="midnightblue" d="M207.499,-280.399C174.178,-270.073 129.51,-256.231 98.2898,-246.556"/>
<polygon fill="midnightblue" stroke="midnightblue" points="99.2453,-243.188 88.6574,-243.571 97.1732,-249.874 99.2453,-243.188"/>
</g>
<!-- Node4 -->
<g id="node4" class="node"><title>Node4</title>
<polygon fill="white" stroke="#bfbfbf" points="140,-224.5 140,-243.5 204,-243.5 204,-224.5 140,-224.5"/>
<text text-anchor="middle" x="172" y="-231.5" font-family="Helvetica,sans-Serif" font-size="10.00">json/json.h</text>
</g>
<!-- Node1&#45;&gt;Node4 -->
<g id="edge3" class="edge"><title>Node1&#45;&gt;Node4</title>
<path fill="none" stroke="midnightblue" d="M233.804,-280.399C221.184,-271.129 204.707,-259.025 191.939,-249.647"/>
<polygon fill="midnightblue" stroke="midnightblue" points="193.918,-246.757 183.786,-243.658 189.773,-252.399 193.918,-246.757"/>
</g>
<!-- Node5 -->
<g id="node5" class="node"><title>Node5</title>
<polygon fill="white" stroke="#bfbfbf" points="222,-224.5 222,-243.5 284,-243.5 284,-224.5 222,-224.5"/>
<text text-anchor="middle" x="253" y="-231.5" font-family="Helvetica,sans-Serif" font-size="10.00">wordexp.h</text>
</g>
<!-- Node1&#45;&gt;Node5 -->
<g id="edge4" class="edge"><title>Node1&#45;&gt;Node5</title>
<path fill="none" stroke="midnightblue" d="M253,-280.399C253,-272.466 253,-262.458 253,-253.858"/>
<polygon fill="midnightblue" stroke="midnightblue" points="256.5,-253.658 253,-243.658 249.5,-253.658 256.5,-253.658"/>
</g>
<!-- Node6 -->
<g id="node6" class="node"><title>Node6</title>
<g id="a_node6"><a xlink:href="pdal__internal_8hpp.html" target="_top" xlink:title="pdal/pdal_internal.hpp">
<polygon fill="white" stroke="black" points="301.5,-224.5 301.5,-243.5 412.5,-243.5 412.5,-224.5 301.5,-224.5"/>
<text text-anchor="middle" x="357" y="-231.5" font-family="Helvetica,sans-Serif" font-size="10.00">pdal/pdal_internal.hpp</text>
</a>
</g>
</g>
<!-- Node1&#45;&gt;Node6 -->
<g id="edge5" class="edge"><title>Node1&#45;&gt;Node6</title>
<path fill="none" stroke="midnightblue" d="M277.647,-280.399C294.317,-270.862 316.231,-258.325 332.805,-248.842"/>
<polygon fill="midnightblue" stroke="midnightblue" points="334.925,-251.662 341.867,-243.658 331.449,-245.586 334.925,-251.662"/>
</g>
<!-- Node35 -->
<g id="node35" class="node"><title>Node35</title>
<g id="a_node35"><a xlink:href="ProgramArgs_8hpp.html" target="_top" xlink:title="pdal/util/ProgramArgs.hpp">
<polygon fill="white" stroke="black" points="1623.5,-168.5 1623.5,-187.5 1752.5,-187.5 1752.5,-168.5 1623.5,-168.5"/>
<text text-anchor="middle" x="1688" y="-175.5" font-family="Helvetica,sans-Serif" font-size="10.00">pdal/util/ProgramArgs.hpp</text>
</a>
</g>
</g>
<!-- Node1&#45;&gt;Node35 -->
<g id="edge42" class="edge"><title>Node1&#45;&gt;Node35</title>
<path fill="none" stroke="midnightblue" d="M319.811,-289.123C557.751,-269.971 1362.96,-205.162 1613.18,-185.022"/>
<polygon fill="midnightblue" stroke="midnightblue" points="1613.57,-188.502 1623.26,-184.211 1613.01,-181.525 1613.57,-188.502"/>
</g>
<!-- Node3 -->
<g id="node3" class="node"><title>Node3</title>
<polygon fill="white" stroke="#bfbfbf" points="25.5,-168.5 25.5,-187.5 96.5,-187.5 96.5,-168.5 25.5,-168.5"/>
<text text-anchor="middle" x="61" y="-175.5" font-family="Helvetica,sans-Serif" font-size="10.00">gtest/gtest.h</text>
</g>
<!-- Node2&#45;&gt;Node3 -->
<g id="edge2" class="edge"><title>Node2&#45;&gt;Node3</title>
<path fill="none" stroke="midnightblue" d="M61,-224.083C61,-217.006 61,-206.861 61,-197.986"/>
<polygon fill="midnightblue" stroke="midnightblue" points="64.5001,-197.751 61,-187.751 57.5001,-197.751 64.5001,-197.751"/>
</g>
<!-- Node7 -->
<g id="node7" class="node"><title>Node7</title>
<polygon fill="white" stroke="#bfbfbf" points="448,-0.5 448,-19.5 502,-19.5 502,-0.5 448,-0.5"/>
<text text-anchor="middle" x="475" y="-7.5" font-family="Helvetica,sans-Serif" font-size="10.00">iostream</text>
</g>
<!-- Node6&#45;&gt;Node7 -->
<g id="edge6" class="edge"><title>Node6&#45;&gt;Node7</title>
<path fill="none" stroke="midnightblue" d="M330.192,-224.407C279.875,-206.825 179.422,-163.989 215,-112 265.567,-38.1088 378.72,-18.2673 437.674,-12.9457"/>
<polygon fill="midnightblue" stroke="midnightblue" points="437.997,-16.4311 447.682,-12.1356 437.432,-9.45393 437.997,-16.4311"/>
</g>
<!-- Node8 -->
<g id="node8" class="node"><title>Node8</title>
<g id="a_node8"><a xlink:href="pdal__export_8hpp.html" target="_top" xlink:title="pdal/pdal_export.hpp">
<polygon fill="white" stroke="black" points="303.5,-168.5 303.5,-187.5 410.5,-187.5 410.5,-168.5 303.5,-168.5"/>
<text text-anchor="middle" x="357" y="-175.5" font-family="Helvetica,sans-Serif" font-size="10.00">pdal/pdal_export.hpp</text>
</a>
</g>
</g>
<!-- Node6&#45;&gt;Node8 -->
<g id="edge7" class="edge"><title>Node6&#45;&gt;Node8</title>
<path fill="none" stroke="midnightblue" d="M357,-224.083C357,-217.006 357,-206.861 357,-197.986"/>
<polygon fill="midnightblue" stroke="midnightblue" points="360.5,-197.751 357,-187.751 353.5,-197.751 360.5,-197.751"/>
</g>
<!-- Node9 -->
<g id="node9" class="node"><title>Node9</title>
<g id="a_node9"><a xlink:href="pdal__defines_8h.html" target="_top" xlink:title="pdal/pdal_defines.h">
<polygon fill="white" stroke="black" points="224.5,-112.5 224.5,-131.5 325.5,-131.5 325.5,-112.5 224.5,-112.5"/>
<text text-anchor="middle" x="275" y="-119.5" font-family="Helvetica,sans-Serif" font-size="10.00">pdal/pdal_defines.h</text>
</a>
</g>
</g>
<!-- Node6&#45;&gt;Node9 -->
<g id="edge9" class="edge"><title>Node6&#45;&gt;Node9</title>
<path fill="none" stroke="midnightblue" d="M338.972,-224.391C324.774,-216.726 305.517,-204.22 294,-188 284.321,-174.37 279.533,-155.829 277.188,-142.037"/>
<polygon fill="midnightblue" stroke="midnightblue" points="280.604,-141.193 275.739,-131.78 273.672,-142.172 280.604,-141.193"/>
</g>
<!-- Node10 -->
<g id="node10" class="node"><title>Node10</title>
<g id="a_node10"><a xlink:href="pdal__types_8hpp.html" target="_top" xlink:title="pdal/pdal_types.hpp">
<polygon fill="white" stroke="black" points="458,-168.5 458,-187.5 562,-187.5 562,-168.5 458,-168.5"/>
<text text-anchor="middle" x="510" y="-175.5" font-family="Helvetica,sans-Serif" font-size="10.00">pdal/pdal_types.hpp</text>
</a>
</g>
</g>
<!-- Node6&#45;&gt;Node10 -->
<g id="edge10" class="edge"><title>Node6&#45;&gt;Node10</title>
<path fill="none" stroke="midnightblue" d="M381.243,-224.444C406.871,-215.399 447.485,-201.064 476.238,-190.916"/>
<polygon fill="midnightblue" stroke="midnightblue" points="477.605,-194.145 485.87,-187.516 475.275,-187.544 477.605,-194.145"/>
</g>
<!-- Node8&#45;&gt;Node9 -->
<g id="edge8" class="edge"><title>Node8&#45;&gt;Node9</title>
<path fill="none" stroke="midnightblue" d="M343.825,-168.324C331.153,-159.979 311.767,-147.212 296.794,-137.352"/>
<polygon fill="midnightblue" stroke="midnightblue" points="298.419,-134.231 288.142,-131.655 294.569,-140.078 298.419,-134.231"/>
</g>
<!-- Node10&#45;&gt;Node7 -->
<g id="edge17" class="edge"><title>Node10&#45;&gt;Node7</title>
<path fill="none" stroke="midnightblue" d="M470.751,-168.462C447.813,-161.784 419.611,-150.451 400,-132 379.876,-113.066 379.155,-102.937 373,-76 371.02,-67.3344 368.146,-63.4466 373,-56 387.27,-34.107 414.861,-22.7899 437.752,-16.9828"/>
<polygon fill="midnightblue" stroke="midnightblue" points="438.575,-20.3851 447.547,-14.7503 437.019,-13.5601 438.575,-20.3851"/>
</g>
<!-- Node11 -->
<g id="node11" class="node"><title>Node11</title>
<polygon fill="white" stroke="#bfbfbf" points="420.5,-112.5 420.5,-131.5 469.5,-131.5 469.5,-112.5 420.5,-112.5"/>
<text text-anchor="middle" x="445" y="-119.5" font-family="Helvetica,sans-Serif" font-size="10.00">stdint.h</text>
</g>
<!-- Node10&#45;&gt;Node11 -->
<g id="edge11" class="edge"><title>Node10&#45;&gt;Node11</title>
<path fill="none" stroke="midnightblue" d="M499.557,-168.324C489.854,-160.263 475.185,-148.077 463.5,-138.369"/>
<polygon fill="midnightblue" stroke="midnightblue" points="465.562,-135.532 455.633,-131.834 461.089,-140.916 465.562,-135.532"/>
</g>
<!-- Node12 -->
<g id="node12" class="node"><title>Node12</title>
<polygon fill="white" stroke="#bfbfbf" points="487.5,-112.5 487.5,-131.5 532.5,-131.5 532.5,-112.5 487.5,-112.5"/>
<text text-anchor="middle" x="510" y="-119.5" font-family="Helvetica,sans-Serif" font-size="10.00">cstdlib</text>
</g>
<!-- Node10&#45;&gt;Node12 -->
<g id="edge12" class="edge"><title>Node10&#45;&gt;Node12</title>
<path fill="none" stroke="midnightblue" d="M510,-168.083C510,-161.006 510,-150.861 510,-141.986"/>
<polygon fill="midnightblue" stroke="midnightblue" points="513.5,-141.751 510,-131.751 506.5,-141.751 513.5,-141.751"/>
</g>
<!-- Node13 -->
<g id="node13" class="node"><title>Node13</title>
<polygon fill="white" stroke="#bfbfbf" points="382.5,-56.5 382.5,-75.5 431.5,-75.5 431.5,-56.5 382.5,-56.5"/>
<text text-anchor="middle" x="407" y="-63.5" font-family="Helvetica,sans-Serif" font-size="10.00">istream</text>
</g>
<!-- Node10&#45;&gt;Node13 -->
<g id="edge13" class="edge"><title>Node10&#45;&gt;Node13</title>
<path fill="none" stroke="midnightblue" d="M467.503,-168.435C446.966,-161.992 424.006,-150.896 411,-132 401.794,-118.625 401.658,-99.8013 403.313,-85.8508"/>
<polygon fill="midnightblue" stroke="midnightblue" points="406.781,-86.3286 404.885,-75.9048 399.867,-85.2358 406.781,-86.3286"/>
</g>
<!-- Node14 -->
<g id="node14" class="node"><title>Node14</title>
<polygon fill="white" stroke="#bfbfbf" points="449.5,-56.5 449.5,-75.5 508.5,-75.5 508.5,-56.5 449.5,-56.5"/>
<text text-anchor="middle" x="479" y="-63.5" font-family="Helvetica,sans-Serif" font-size="10.00">stdexcept</text>
</g>
<!-- Node10&#45;&gt;Node14 -->
<g id="edge14" class="edge"><title>Node10&#45;&gt;Node14</title>
<path fill="none" stroke="midnightblue" d="M519.695,-168.096C532.172,-155.507 551.108,-131.826 541,-112 534,-98.2698 520.634,-87.7496 508.1,-80.3465"/>
<polygon fill="midnightblue" stroke="midnightblue" points="509.678,-77.2204 499.223,-75.5055 506.326,-83.366 509.678,-77.2204"/>
</g>
<!-- Node15 -->
<g id="node15" class="node"><title>Node15</title>
<polygon fill="white" stroke="#bfbfbf" points="526.5,-56.5 526.5,-75.5 567.5,-75.5 567.5,-56.5 526.5,-56.5"/>
<text text-anchor="middle" x="547" y="-63.5" font-family="Helvetica,sans-Serif" font-size="10.00">string</text>
</g>
<!-- Node10&#45;&gt;Node15 -->
<g id="edge15" class="edge"><title>Node10&#45;&gt;Node15</title>
<path fill="none" stroke="midnightblue" d="M524.078,-168.259C535.353,-160.355 550.346,-147.584 557,-132 563.368,-117.086 559.592,-98.7133 554.968,-85.31"/>
<polygon fill="midnightblue" stroke="midnightblue" points="558.148,-83.8328 551.255,-75.7875 551.627,-86.3758 558.148,-83.8328"/>
</g>
<!-- Node16 -->
<g id="node16" class="node"><title>Node16</title>
<polygon fill="white" stroke="#bfbfbf" points="1666,-56.5 1666,-75.5 1710,-75.5 1710,-56.5 1666,-56.5"/>
<text text-anchor="middle" x="1688" y="-63.5" font-family="Helvetica,sans-Serif" font-size="10.00">vector</text>
</g>
<!-- Node10&#45;&gt;Node16 -->
<g id="edge16" class="edge"><title>Node10&#45;&gt;Node16</title>
<path fill="none" stroke="midnightblue" d="M562.256,-176.201C724.259,-172.921 1232.11,-156.609 1655.78,-75.9045"/>
<polygon fill="midnightblue" stroke="midnightblue" points="1656.61,-79.3089 1665.77,-73.9861 1655.29,-72.4345 1656.61,-79.3089"/>
</g>
<!-- Node17 -->
<g id="node17" class="node"><title>Node17</title>
<g id="a_node17"><a xlink:href="Utils_8hpp.html" target="_top" xlink:title="pdal/util/Utils.hpp">
<polygon fill="white" stroke="black" points="988,-112.5 988,-131.5 1080,-131.5 1080,-112.5 988,-112.5"/>
<text text-anchor="middle" x="1034" y="-119.5" font-family="Helvetica,sans-Serif" font-size="10.00">pdal/util/Utils.hpp</text>
</a>
</g>
</g>
<!-- Node10&#45;&gt;Node17 -->
<g id="edge18" class="edge"><title>Node10&#45;&gt;Node17</title>
<path fill="none" stroke="midnightblue" d="M562.159,-171.625C661.141,-161.424 875.441,-139.34 977.611,-128.811"/>
<polygon fill="midnightblue" stroke="midnightblue" points="978.143,-132.275 987.732,-127.768 977.426,-125.312 978.143,-132.275"/>
</g>
<!-- Node17&#45;&gt;Node7 -->
<g id="edge37" class="edge"><title>Node17&#45;&gt;Node7</title>
<path fill="none" stroke="midnightblue" d="M987.974,-121.495C909.67,-121.146 746.258,-115.229 615,-76 596.336,-70.4219 593.57,-64.4115 576,-56 552.193,-44.6024 524.822,-32.4664 504.585,-23.6733"/>
<polygon fill="midnightblue" stroke="midnightblue" points="505.837,-20.4018 495.27,-19.6431 503.058,-26.8262 505.837,-20.4018"/>
</g>
<!-- Node17&#45;&gt;Node13 -->
<g id="edge27" class="edge"><title>Node17&#45;&gt;Node13</title>
<path fill="none" stroke="midnightblue" d="M987.799,-120.488C888.957,-118.75 649.675,-111.12 441.635,-75.9884"/>
<polygon fill="midnightblue" stroke="midnightblue" points="442.2,-72.5343 431.752,-74.2946 441.017,-79.4337 442.2,-72.5343"/>
</g>
<!-- Node17&#45;&gt;Node14 -->
<g id="edge32" class="edge"><title>Node17&#45;&gt;Node14</title>
<path fill="none" stroke="midnightblue" d="M987.729,-119.235C898.636,-115.349 697.005,-104.182 518.866,-76.0995"/>
<polygon fill="midnightblue" stroke="midnightblue" points="519.216,-72.611 508.789,-74.4885 518.111,-79.5233 519.216,-72.611"/>
</g>
<!-- Node17&#45;&gt;Node15 -->
<g id="edge33" class="edge"><title>Node17&#45;&gt;Node15</title>
<path fill="none" stroke="midnightblue" d="M987.808,-118.731C905.652,-114.178 728.951,-102.052 582,-76 580.533,-75.7399 579.037,-75.4506 577.529,-75.1397"/>
<polygon fill="midnightblue" stroke="midnightblue" points="578.144,-71.6898 567.614,-72.8568 576.574,-78.5113 578.144,-71.6898"/>
</g>
<!-- Node17&#45;&gt;Node16 -->
<g id="edge36" class="edge"><title>Node17&#45;&gt;Node16</title>
<path fill="none" stroke="midnightblue" d="M1080.13,-120.971C1182.43,-120.201 1435.96,-114.391 1655.68,-75.8575"/>
<polygon fill="midnightblue" stroke="midnightblue" points="1656.55,-79.2569 1665.78,-74.0575 1655.32,-72.3653 1656.55,-79.2569"/>
</g>
<!-- Node18 -->
<g id="node18" class="node"><title>Node18</title>
<polygon fill="white" stroke="#bfbfbf" points="1524,-56.5 1524,-75.5 1580,-75.5 1580,-56.5 1524,-56.5"/>
<text text-anchor="middle" x="1552" y="-63.5" font-family="Helvetica,sans-Serif" font-size="10.00">algorithm</text>
</g>
<!-- Node17&#45;&gt;Node18 -->
<g id="edge19" class="edge"><title>Node17&#45;&gt;Node18</title>
<path fill="none" stroke="midnightblue" d="M1080.05,-118.922C1164.26,-114.64 1348.82,-103.021 1513.49,-76.0214"/>
<polygon fill="midnightblue" stroke="midnightblue" points="1514.52,-79.3989 1523.81,-74.3052 1513.37,-72.4938 1514.52,-79.3989"/>
</g>
<!-- Node19 -->
<g id="node19" class="node"><title>Node19</title>
<polygon fill="white" stroke="#bfbfbf" points="1598.5,-56.5 1598.5,-75.5 1647.5,-75.5 1647.5,-56.5 1598.5,-56.5"/>
<text text-anchor="middle" x="1623" y="-63.5" font-family="Helvetica,sans-Serif" font-size="10.00">cassert</text>
</g>
<!-- Node17&#45;&gt;Node19 -->
<g id="edge20" class="edge"><title>Node17&#45;&gt;Node19</title>
<path fill="none" stroke="midnightblue" d="M1080.03,-120.031C1173.92,-117.459 1394.31,-108.384 1588.14,-75.8216"/>
<polygon fill="midnightblue" stroke="midnightblue" points="1588.96,-79.233 1598.23,-74.1017 1587.78,-72.3326 1588.96,-79.233"/>
</g>
<!-- Node20 -->
<g id="node20" class="node"><title>Node20</title>
<polygon fill="white" stroke="#bfbfbf" points="624,-56.5 624,-75.5 670,-75.5 670,-56.5 624,-56.5"/>
<text text-anchor="middle" x="647" y="-63.5" font-family="Helvetica,sans-Serif" font-size="10.00">cctype</text>
</g>
<!-- Node17&#45;&gt;Node20 -->
<g id="edge21" class="edge"><title>Node17&#45;&gt;Node20</title>
<path fill="none" stroke="midnightblue" d="M987.974,-117.359C921.868,-111.65 796.126,-99.0041 680.412,-76.0254"/>
<polygon fill="midnightblue" stroke="midnightblue" points="680.816,-72.5365 670.321,-73.9898 679.432,-79.3983 680.816,-72.5365"/>
</g>
<!-- Node21 -->
<g id="node21" class="node"><title>Node21</title>
<polygon fill="white" stroke="#bfbfbf" points="688,-56.5 688,-75.5 732,-75.5 732,-56.5 688,-56.5"/>
<text text-anchor="middle" x="710" y="-63.5" font-family="Helvetica,sans-Serif" font-size="10.00">cmath</text>
</g>
<!-- Node17&#45;&gt;Node21 -->
<g id="edge22" class="edge"><title>Node17&#45;&gt;Node21</title>
<path fill="none" stroke="midnightblue" d="M987.982,-115.814C931.969,-109.086 834.392,-96.0311 742.044,-75.9927"/>
<polygon fill="midnightblue" stroke="midnightblue" points="742.78,-72.571 732.262,-73.839 741.275,-79.4073 742.78,-72.571"/>
</g>
<!-- Node22 -->
<g id="node22" class="node"><title>Node22</title>
<polygon fill="white" stroke="#bfbfbf" points="750,-56.5 750,-75.5 796,-75.5 796,-56.5 750,-56.5"/>
<text text-anchor="middle" x="773" y="-63.5" font-family="Helvetica,sans-Serif" font-size="10.00">cstdint</text>
</g>
<!-- Node17&#45;&gt;Node22 -->
<g id="edge23" class="edge"><title>Node17&#45;&gt;Node22</title>
<path fill="none" stroke="midnightblue" d="M987.71,-113.028C943.463,-105.157 874.687,-92.2706 806.125,-76.1174"/>
<polygon fill="midnightblue" stroke="midnightblue" points="806.553,-72.6215 796.014,-73.7107 804.932,-79.4313 806.553,-72.6215"/>
</g>
<!-- Node23 -->
<g id="node23" class="node"><title>Node23</title>
<polygon fill="white" stroke="#bfbfbf" points="814,-56.5 814,-75.5 860,-75.5 860,-56.5 814,-56.5"/>
<text text-anchor="middle" x="837" y="-63.5" font-family="Helvetica,sans-Serif" font-size="10.00">cstring</text>
</g>
<!-- Node17&#45;&gt;Node23 -->
<g id="edge24" class="edge"><title>Node17&#45;&gt;Node23</title>
<path fill="none" stroke="midnightblue" d="M1002.35,-112.447C971.064,-103.977 921.585,-90.5326 869.765,-76.197"/>
<polygon fill="midnightblue" stroke="midnightblue" points="870.637,-72.8068 860.066,-73.5108 868.769,-79.5529 870.637,-72.8068"/>
</g>
<!-- Node24 -->
<g id="node24" class="node"><title>Node24</title>
<polygon fill="white" stroke="#bfbfbf" points="878,-56.5 878,-75.5 928,-75.5 928,-56.5 878,-56.5"/>
<text text-anchor="middle" x="903" y="-63.5" font-family="Helvetica,sans-Serif" font-size="10.00">fstream</text>
</g>
<!-- Node17&#45;&gt;Node24 -->
<g id="edge25" class="edge"><title>Node17&#45;&gt;Node24</title>
<path fill="none" stroke="midnightblue" d="M1013.24,-112.444C991.684,-103.557 957.737,-89.5632 933.206,-79.4514"/>
<polygon fill="midnightblue" stroke="midnightblue" points="934.239,-76.0917 923.66,-75.5164 931.572,-82.5634 934.239,-76.0917"/>
</g>
<!-- Node25 -->
<g id="node25" class="node"><title>Node25</title>
<polygon fill="white" stroke="#bfbfbf" points="946,-56.5 946,-75.5 996,-75.5 996,-56.5 946,-56.5"/>
<text text-anchor="middle" x="971" y="-63.5" font-family="Helvetica,sans-Serif" font-size="10.00">iomanip</text>
</g>
<!-- Node17&#45;&gt;Node25 -->
<g id="edge26" class="edge"><title>Node17&#45;&gt;Node25</title>
<path fill="none" stroke="midnightblue" d="M1023.88,-112.324C1014.47,-104.263 1000.26,-92.0765 988.931,-82.3695"/>
<polygon fill="midnightblue" stroke="midnightblue" points="991.177,-79.6844 981.306,-75.8339 986.621,-84.9993 991.177,-79.6844"/>
</g>
<!-- Node26 -->
<g id="node26" class="node"><title>Node26</title>
<polygon fill="white" stroke="#bfbfbf" points="1014,-56.5 1014,-75.5 1054,-75.5 1054,-56.5 1014,-56.5"/>
<text text-anchor="middle" x="1034" y="-63.5" font-family="Helvetica,sans-Serif" font-size="10.00">limits</text>
</g>
<!-- Node17&#45;&gt;Node26 -->
<g id="edge28" class="edge"><title>Node17&#45;&gt;Node26</title>
<path fill="none" stroke="midnightblue" d="M1034,-112.083C1034,-105.006 1034,-94.8611 1034,-85.9865"/>
<polygon fill="midnightblue" stroke="midnightblue" points="1037.5,-85.751 1034,-75.7511 1030.5,-85.7511 1037.5,-85.751"/>
</g>
<!-- Node27 -->
<g id="node27" class="node"><title>Node27</title>
<polygon fill="white" stroke="#bfbfbf" points="1728.5,-56.5 1728.5,-75.5 1763.5,-75.5 1763.5,-56.5 1728.5,-56.5"/>
<text text-anchor="middle" x="1746" y="-63.5" font-family="Helvetica,sans-Serif" font-size="10.00">map</text>
</g>
<!-- Node17&#45;&gt;Node27 -->
<g id="edge29" class="edge"><title>Node17&#45;&gt;Node27</title>
<path fill="none" stroke="midnightblue" d="M1080.03,-119.513C1209.77,-115.083 1577.5,-100.833 1718.32,-75.4902"/>
<polygon fill="midnightblue" stroke="midnightblue" points="1719.28,-78.8694 1728.46,-73.5667 1717.98,-71.9921 1719.28,-78.8694"/>
</g>
<!-- Node28 -->
<g id="node28" class="node"><title>Node28</title>
<polygon fill="white" stroke="#bfbfbf" points="1782,-56.5 1782,-75.5 1834,-75.5 1834,-56.5 1782,-56.5"/>
<text text-anchor="middle" x="1808" y="-63.5" font-family="Helvetica,sans-Serif" font-size="10.00">memory</text>
</g>
<!-- Node17&#45;&gt;Node28 -->
<g id="edge30" class="edge"><title>Node17&#45;&gt;Node28</title>
<path fill="none" stroke="midnightblue" d="M1080.16,-121.236C1195.47,-121.175 1505.34,-117.013 1771.49,-75.9292"/>
<polygon fill="midnightblue" stroke="midnightblue" points="1772.4,-79.3301 1781.74,-74.326 1771.32,-72.4143 1772.4,-79.3301"/>
</g>
<!-- Node29 -->
<g id="node29" class="node"><title>Node29</title>
<polygon fill="white" stroke="#bfbfbf" points="1072,-56.5 1072,-75.5 1124,-75.5 1124,-56.5 1072,-56.5"/>
<text text-anchor="middle" x="1098" y="-63.5" font-family="Helvetica,sans-Serif" font-size="10.00">sstream</text>
</g>
<!-- Node17&#45;&gt;Node29 -->
<g id="edge31" class="edge"><title>Node17&#45;&gt;Node29</title>
<path fill="none" stroke="midnightblue" d="M1044.28,-112.324C1053.84,-104.263 1068.28,-92.0765 1079.78,-82.3695"/>
<polygon fill="midnightblue" stroke="midnightblue" points="1082.14,-84.9577 1087.53,-75.8339 1077.63,-79.6076 1082.14,-84.9577"/>
</g>
<!-- Node30 -->
<g id="node30" class="node"><title>Node30</title>
<polygon fill="white" stroke="#bfbfbf" points="1142.5,-56.5 1142.5,-75.5 1193.5,-75.5 1193.5,-56.5 1142.5,-56.5"/>
<text text-anchor="middle" x="1168" y="-63.5" font-family="Helvetica,sans-Serif" font-size="10.00">typeinfo</text>
</g>
<!-- Node17&#45;&gt;Node30 -->
<g id="edge34" class="edge"><title>Node17&#45;&gt;Node30</title>
<path fill="none" stroke="midnightblue" d="M1055.23,-112.444C1077.38,-103.517 1112.32,-89.4387 1137.44,-79.3168"/>
<polygon fill="midnightblue" stroke="midnightblue" points="1138.9,-82.5006 1146.87,-75.5164 1136.28,-76.0079 1138.9,-82.5006"/>
</g>
<!-- Node31 -->
<g id="node31" class="node"><title>Node31</title>
<polygon fill="white" stroke="#bfbfbf" points="1212,-56.5 1212,-75.5 1274,-75.5 1274,-56.5 1212,-56.5"/>
<text text-anchor="middle" x="1243" y="-63.5" font-family="Helvetica,sans-Serif" font-size="10.00">type_traits</text>
</g>
<!-- Node17&#45;&gt;Node31 -->
<g id="edge35" class="edge"><title>Node17&#45;&gt;Node31</title>
<path fill="none" stroke="midnightblue" d="M1067.12,-112.444C1103.65,-103.005 1162.47,-87.8067 1201.91,-77.6158"/>
<polygon fill="midnightblue" stroke="midnightblue" points="1202.94,-80.9658 1211.75,-75.0755 1201.19,-74.1884 1202.94,-80.9658"/>
</g>
<!-- Node32 -->
<g id="node32" class="node"><title>Node32</title>
<g id="a_node32"><a xlink:href="NullOStream_8hpp.html" target="_top" xlink:title="NullOStream.hpp">
<polygon fill="white" stroke="black" points="1414,-56.5 1414,-75.5 1506,-75.5 1506,-56.5 1414,-56.5"/>
<text text-anchor="middle" x="1460" y="-63.5" font-family="Helvetica,sans-Serif" font-size="10.00">NullOStream.hpp</text>
</a>
</g>
</g>
<!-- Node17&#45;&gt;Node32 -->
<g id="edge38" class="edge"><title>Node17&#45;&gt;Node32</title>
<path fill="none" stroke="midnightblue" d="M1080.06,-116.035C1148.43,-108.529 1281.03,-93.4472 1403.85,-76.1144"/>
<polygon fill="midnightblue" stroke="midnightblue" points="1404.4,-79.572 1413.81,-74.7014 1403.42,-72.6414 1404.4,-79.572"/>
</g>
<!-- Node34 -->
<g id="node34" class="node"><title>Node34</title>
<g id="a_node34"><a xlink:href="pdal__util__export_8hpp.html" target="_top" xlink:title="pdal_util_export.hpp">
<polygon fill="white" stroke="black" points="1292,-56.5 1292,-75.5 1396,-75.5 1396,-56.5 1292,-56.5"/>
<text text-anchor="middle" x="1344" y="-63.5" font-family="Helvetica,sans-Serif" font-size="10.00">pdal_util_export.hpp</text>
</a>
</g>
</g>
<!-- Node17&#45;&gt;Node34 -->
<g id="edge41" class="edge"><title>Node17&#45;&gt;Node34</title>
<path fill="none" stroke="midnightblue" d="M1080.08,-112.974C1134.6,-103.475 1225.5,-87.6418 1285.1,-77.2608"/>
<polygon fill="midnightblue" stroke="midnightblue" points="1285.86,-80.6804 1295.11,-75.5162 1284.66,-73.7843 1285.86,-80.6804"/>
</g>
<!-- Node32&#45;&gt;Node7 -->
<g id="edge39" class="edge"><title>Node32&#45;&gt;Node7</title>
<path fill="none" stroke="midnightblue" d="M1413.84,-57.055C1410.85,-56.6621 1407.89,-56.305 1405,-56 1059.41,-19.4831 638.393,-12.5632 512.355,-11.2831"/>
<polygon fill="midnightblue" stroke="midnightblue" points="512.129,-7.7809 502.096,-11.185 512.062,-14.7806 512.129,-7.7809"/>
</g>
<!-- Node33 -->
<g id="node33" class="node"><title>Node33</title>
<polygon fill="white" stroke="#bfbfbf" points="1430,-0.5 1430,-19.5 1490,-19.5 1490,-0.5 1430,-0.5"/>
<text text-anchor="middle" x="1460" y="-7.5" font-family="Helvetica,sans-Serif" font-size="10.00">streambuf</text>
</g>
<!-- Node32&#45;&gt;Node33 -->
<g id="edge40" class="edge"><title>Node32&#45;&gt;Node33</title>
<path fill="none" stroke="midnightblue" d="M1460,-56.083C1460,-49.0059 1460,-38.8611 1460,-29.9865"/>
<polygon fill="midnightblue" stroke="midnightblue" points="1463.5,-29.751 1460,-19.7511 1456.5,-29.7511 1463.5,-29.751"/>
</g>
<!-- Node35&#45;&gt;Node16 -->
<g id="edge45" class="edge"><title>Node35&#45;&gt;Node16</title>
<path fill="none" stroke="midnightblue" d="M1688,-168.368C1688,-150.617 1688,-109.666 1688,-85.5974"/>
<polygon fill="midnightblue" stroke="midnightblue" points="1691.5,-85.5914 1688,-75.5914 1684.5,-85.5915 1691.5,-85.5914"/>
</g>
<!-- Node35&#45;&gt;Node17 -->
<g id="edge46" class="edge"><title>Node35&#45;&gt;Node17</title>
<path fill="none" stroke="midnightblue" d="M1623.2,-171.65C1495.12,-161.074 1211.51,-137.657 1090.5,-127.665"/>
<polygon fill="midnightblue" stroke="midnightblue" points="1090.59,-124.161 1080.34,-126.826 1090.02,-131.137 1090.59,-124.161"/>
</g>
<!-- Node35&#45;&gt;Node27 -->
<g id="edge43" class="edge"><title>Node35&#45;&gt;Node27</title>
<path fill="none" stroke="midnightblue" d="M1692.55,-168.368C1702.04,-150.376 1724.09,-108.55 1736.71,-84.6267"/>
<polygon fill="midnightblue" stroke="midnightblue" points="1739.9,-86.0696 1741.47,-75.5914 1733.71,-82.8047 1739.9,-86.0696"/>
</g>
<!-- Node35&#45;&gt;Node28 -->
<g id="edge44" class="edge"><title>Node35&#45;&gt;Node28</title>
<path fill="none" stroke="midnightblue" d="M1697.42,-168.368C1717.66,-149.814 1765.55,-105.913 1791.16,-82.4376"/>
<polygon fill="midnightblue" stroke="midnightblue" points="1793.62,-84.9287 1798.63,-75.5914 1788.89,-79.7686 1793.62,-84.9287"/>
</g>
</g>
</svg>
