<?xml version="1.0" encoding="UTF-8" standalone="no"?>
<!DOCTYPE svg PUBLIC "-//W3C//DTD SVG 1.1//EN"
 "http://www.w3.org/Graphics/SVG/1.1/DTD/svg11.dtd">
<!-- Generated by graphviz version 2.38.0 (20140413.2041)
 -->
<!-- Title: TEST Pages: 1 -->
<svg width="384pt" height="260pt"
 viewBox="0.00 0.00 384.00 260.00" xmlns="http://www.w3.org/2000/svg" xmlns:xlink="http://www.w3.org/1999/xlink">
<g id="graph0" class="graph" transform="scale(1 1) rotate(0) translate(4 256)">
<title>TEST</title>
<polygon fill="white" stroke="none" points="-4,4 -4,-256 380,-256 380,4 -4,4"/>
<!-- Node1 -->
<g id="node1" class="node"><title>Node1</title>
<polygon fill="#bfbfbf" stroke="black" points="0,-104.5 0,-123.5 42,-123.5 42,-104.5 0,-104.5"/>
<text text-anchor="middle" x="21" y="-111.5" font-family="Helvetica,sans-Serif" font-size="10.00">TEST</text>
</g>
<!-- Node2 -->
<g id="node2" class="node"><title>Node2</title>
<g id="a_node2"><a xlink:href="classpdal_1_1ProgramArgs.html#a9f773618ed928e9cef78aa1bf8278784" target="_top" xlink:title="pdal::ProgramArgs::add">
<polygon fill="white" stroke="black" points="79.5,-197.5 79.5,-216.5 198.5,-216.5 198.5,-197.5 79.5,-197.5"/>
<text text-anchor="middle" x="139" y="-204.5" font-family="Helvetica,sans-Serif" font-size="10.00">pdal::ProgramArgs::add</text>
</a>
</g>
</g>
<!-- Node1&#45;&gt;Node2 -->
<g id="edge1" class="edge"><title>Node1&#45;&gt;Node2</title>
<path fill="none" stroke="midnightblue" d="M26.7805,-123.696C35.051,-139.483 53.5209,-170.714 78,-188 80.7223,-189.922 83.6476,-191.656 86.6888,-193.219"/>
<polygon fill="midnightblue" stroke="midnightblue" points="85.5158,-196.529 96.0736,-197.414 88.3724,-190.138 85.5158,-196.529"/>
</g>
<!-- Node5 -->
<g id="node5" class="node"><title>Node5</title>
<g id="a_node5"><a xlink:href="classpdal_1_1ProgramArgs.html#ab4b405bda3b9a91e70b6c6ce8154e539" target="_top" xlink:title="pdal::ProgramArgs::\lparse">
<polygon fill="white" stroke="black" points="87,-148 87,-178 191,-178 191,-148 87,-148"/>
<text text-anchor="start" x="95" y="-166" font-family="Helvetica,sans-Serif" font-size="10.00">pdal::ProgramArgs::</text>
<text text-anchor="middle" x="139" y="-155" font-family="Helvetica,sans-Serif" font-size="10.00">parse</text>
</a>
</g>
</g>
<!-- Node1&#45;&gt;Node5 -->
<g id="edge4" class="edge"><title>Node1&#45;&gt;Node5</title>
<path fill="none" stroke="midnightblue" d="M42.1342,-123.219C52.7579,-128.024 66.0369,-133.939 78,-139 82.062,-140.718 86.2914,-142.475 90.5409,-144.217"/>
<polygon fill="midnightblue" stroke="midnightblue" points="89.2371,-147.465 99.819,-147.989 91.8734,-140.981 89.2371,-147.465"/>
</g>
<!-- Node7 -->
<g id="node7" class="node"><title>Node7</title>
<g id="a_node7"><a xlink:href="classpdal_1_1ProgramArgs.html#a349fdb98969186e0faa2eb21adfe2600" target="_top" xlink:title="pdal::ProgramArgs::\lreset">
<polygon fill="white" stroke="black" points="87,-99 87,-129 191,-129 191,-99 87,-99"/>
<text text-anchor="start" x="95" y="-117" font-family="Helvetica,sans-Serif" font-size="10.00">pdal::ProgramArgs::</text>
<text text-anchor="middle" x="139" y="-106" font-family="Helvetica,sans-Serif" font-size="10.00">reset</text>
</a>
</g>
</g>
<!-- Node1&#45;&gt;Node7 -->
<g id="edge6" class="edge"><title>Node1&#45;&gt;Node7</title>
<path fill="none" stroke="midnightblue" d="M42.2057,-114C51.841,-114 63.9411,-114 76.267,-114"/>
<polygon fill="midnightblue" stroke="midnightblue" points="76.6247,-117.5 86.6247,-114 76.6247,-110.5 76.6247,-117.5"/>
</g>
<!-- Node8 -->
<g id="node8" class="node"><title>Node8</title>
<g id="a_node8"><a xlink:href="classpdal_1_1Arg.html#acd96700a01950da368119d2a06f441ae" target="_top" xlink:title="pdal::Arg::setPositional">
<polygon fill="white" stroke="black" points="80,-60.5 80,-79.5 198,-79.5 198,-60.5 80,-60.5"/>
<text text-anchor="middle" x="139" y="-67.5" font-family="Helvetica,sans-Serif" font-size="10.00">pdal::Arg::setPositional</text>
</a>
</g>
</g>
<!-- Node1&#45;&gt;Node8 -->
<g id="edge7" class="edge"><title>Node1&#45;&gt;Node8</title>
<path fill="none" stroke="midnightblue" d="M42.0527,-104.926C52.6542,-100.252 65.9379,-94.586 78,-90 84.413,-87.5618 91.2699,-85.1223 97.972,-82.8274"/>
<polygon fill="midnightblue" stroke="midnightblue" points="99.2483,-86.0909 107.611,-79.5857 97.0168,-79.4561 99.2483,-86.0909"/>
</g>
<!-- Node9 -->
<g id="node9" class="node"><title>Node9</title>
<g id="a_node9"><a xlink:href="namespaceanonymous__namespace_02ProgramArgsTest_8cpp_03.html#ab15247930f7c8a3845cd122fb2748e6e" target="_top" xlink:title="anonymous_namespace\l\{ProgramArgsTest::cpp\}\l::toStringList">
<polygon fill="white" stroke="black" points="78,-0.5 78,-41.5 200,-41.5 200,-0.5 78,-0.5"/>
<text text-anchor="start" x="86" y="-29.5" font-family="Helvetica,sans-Serif" font-size="10.00">anonymous_namespace</text>
<text text-anchor="start" x="86" y="-18.5" font-family="Helvetica,sans-Serif" font-size="10.00">{ProgramArgsTest::cpp}</text>
<text text-anchor="middle" x="139" y="-7.5" font-family="Helvetica,sans-Serif" font-size="10.00">::toStringList</text>
</a>
</g>
</g>
<!-- Node1&#45;&gt;Node9 -->
<g id="edge8" class="edge"><title>Node1&#45;&gt;Node9</title>
<path fill="none" stroke="midnightblue" d="M28.6702,-104.431C38.3274,-91.1134 57.325,-66.8449 78,-51 79.765,-49.6474 81.6005,-48.3296 83.4861,-47.049"/>
<polygon fill="midnightblue" stroke="midnightblue" points="85.415,-49.9705 92.0118,-41.68 81.6848,-44.0472 85.415,-49.9705"/>
</g>
<!-- Node3 -->
<g id="node3" class="node"><title>Node3</title>
<g id="a_node3"><a xlink:href="namespacepdal_1_1Dimension.html#af3176b0b7e6b4be000317846cf7c2718" target="_top" xlink:title="pdal::Dimension::name">
<polygon fill="white" stroke="black" points="247.5,-232.5 247.5,-251.5 364.5,-251.5 364.5,-232.5 247.5,-232.5"/>
<text text-anchor="middle" x="306" y="-239.5" font-family="Helvetica,sans-Serif" font-size="10.00">pdal::Dimension::name</text>
</a>
</g>
</g>
<!-- Node2&#45;&gt;Node3 -->
<g id="edge2" class="edge"><title>Node2&#45;&gt;Node3</title>
<path fill="none" stroke="midnightblue" d="M185.087,-216.564C205.186,-220.827 229.043,-225.888 250.164,-230.368"/>
<polygon fill="midnightblue" stroke="midnightblue" points="249.459,-233.796 259.968,-232.448 250.911,-226.949 249.459,-233.796"/>
</g>
<!-- Node4 -->
<g id="node4" class="node"><title>Node4</title>
<g id="a_node4"><a xlink:href="namespacepdal_1_1Dimension.html#a4041a0eeee0ca503caad91db24affa0e" target="_top" xlink:title="pdal::Dimension::description">
<polygon fill="white" stroke="black" points="236,-194.5 236,-213.5 376,-213.5 376,-194.5 236,-194.5"/>
<text text-anchor="middle" x="306" y="-201.5" font-family="Helvetica,sans-Serif" font-size="10.00">pdal::Dimension::description</text>
</a>
</g>
</g>
<!-- Node2&#45;&gt;Node4 -->
<g id="edge3" class="edge"><title>Node2&#45;&gt;Node4</title>
<path fill="none" stroke="midnightblue" d="M198.637,-205.934C207.386,-205.775 216.527,-205.609 225.618,-205.443"/>
<polygon fill="midnightblue" stroke="midnightblue" points="225.901,-208.939 235.836,-205.258 225.774,-201.94 225.901,-208.939"/>
</g>
<!-- Node6 -->
<g id="node6" class="node"><title>Node6</title>
<g id="a_node6"><a xlink:href="classpdal_1_1Arg.html#aef855c41a3ce6d940c4597b07b36a41a" target="_top" xlink:title="pdal::Arg::assignPositional">
<polygon fill="white" stroke="black" points="239.5,-153.5 239.5,-172.5 372.5,-172.5 372.5,-153.5 239.5,-153.5"/>
<text text-anchor="middle" x="306" y="-160.5" font-family="Helvetica,sans-Serif" font-size="10.00">pdal::Arg::assignPositional</text>
</a>
</g>
</g>
<!-- Node5&#45;&gt;Node6 -->
<g id="edge5" class="edge"><title>Node5&#45;&gt;Node6</title>
<path fill="none" stroke="midnightblue" d="M191.303,-163C203.321,-163 216.375,-163 229.211,-163"/>
<polygon fill="midnightblue" stroke="midnightblue" points="229.434,-166.5 239.434,-163 229.434,-159.5 229.434,-166.5"/>
</g>
</g>
</svg>
