<?xml version="1.0" encoding="UTF-8" standalone="no"?>
<!DOCTYPE svg PUBLIC "-//W3C//DTD SVG 1.1//EN"
 "http://www.w3.org/Graphics/SVG/1.1/DTD/svg11.dtd">
<!-- Generated by graphviz version 2.38.0 (20140413.2041)
 -->
<!-- Title: TEST_F Pages: 1 -->
<svg width="1464pt" height="497pt"
 viewBox="0.00 0.00 1464.00 497.39" xmlns="http://www.w3.org/2000/svg" xmlns:xlink="http://www.w3.org/1999/xlink">
<g id="graph0" class="graph" transform="scale(1 1) rotate(0) translate(4 493.392)">
<title>TEST_F</title>
<polygon fill="white" stroke="none" points="-4,4 -4,-493.392 1460,-493.392 1460,4 -4,4"/>
<!-- Node1 -->
<g id="node1" class="node"><title>Node1</title>
<polygon fill="#bfbfbf" stroke="black" points="0,-125.987 0,-144.987 53,-144.987 53,-125.987 0,-125.987"/>
<text text-anchor="middle" x="26.5" y="-132.987" font-family="Helvetica,sans-Serif" font-size="10.00">TEST_F</text>
</g>
<!-- Node2 -->
<g id="node2" class="node"><title>Node2</title>
<g id="a_node2"><a xlink:href="classpdal_1_1Options.html#a30826da39f9c4716412141eeeb719032" target="_top" xlink:title="pdal::Options::add">
<polygon fill="white" stroke="black" points="100.5,-279.987 100.5,-298.987 196.5,-298.987 196.5,-279.987 100.5,-279.987"/>
<text text-anchor="middle" x="148.5" y="-286.987" font-family="Helvetica,sans-Serif" font-size="10.00">pdal::Options::add</text>
</a>
</g>
</g>
<!-- Node1&#45;&gt;Node2 -->
<g id="edge1" class="edge"><title>Node1&#45;&gt;Node2</title>
<path fill="none" stroke="midnightblue" d="M30.7345,-145.201C38.201,-166.49 58.3769,-218.023 89,-251.487 97.4738,-260.746 108.675,-268.737 119.005,-274.968"/>
<polygon fill="midnightblue" stroke="midnightblue" points="117.351,-278.054 127.77,-279.979 120.826,-271.977 117.351,-278.054"/>
</g>
<!-- Node9 -->
<g id="node9" class="node"><title>Node9</title>
<g id="a_node9"><a xlink:href="classpdal_1_1StageFactory.html#ac23b3763b84750594c834ec6ea27e334" target="_top" xlink:title="pdal::StageFactory\l::createStage">
<polygon fill="white" stroke="black" points="99,-211.487 99,-241.487 198,-241.487 198,-211.487 99,-211.487"/>
<text text-anchor="start" x="107" y="-229.487" font-family="Helvetica,sans-Serif" font-size="10.00">pdal::StageFactory</text>
<text text-anchor="middle" x="148.5" y="-218.487" font-family="Helvetica,sans-Serif" font-size="10.00">::createStage</text>
</a>
</g>
</g>
<!-- Node1&#45;&gt;Node9 -->
<g id="edge8" class="edge"><title>Node1&#45;&gt;Node9</title>
<path fill="none" stroke="midnightblue" d="M40.1991,-145.237C52.6197,-154.762 72.0808,-169.659 89,-182.487 98.8689,-189.969 109.702,-198.131 119.334,-205.37"/>
<polygon fill="midnightblue" stroke="midnightblue" points="117.338,-208.248 127.436,-211.455 121.542,-202.651 117.338,-208.248"/>
</g>
<!-- Node37 -->
<g id="node37" class="node"><title>Node37</title>
<g id="a_node37"><a xlink:href="namespacehag.html#a39becb5458bcac317093e468da1639be" target="_top" xlink:title="hag.filter">
<polygon fill="white" stroke="black" points="121.5,-103.987 121.5,-122.987 175.5,-122.987 175.5,-103.987 121.5,-103.987"/>
<text text-anchor="middle" x="148.5" y="-110.987" font-family="Helvetica,sans-Serif" font-size="10.00">hag.filter</text>
</a>
</g>
</g>
<!-- Node1&#45;&gt;Node37 -->
<g id="edge42" class="edge"><title>Node1&#45;&gt;Node37</title>
<path fill="none" stroke="midnightblue" d="M53.243,-130.767C70.2101,-127.656 92.6737,-123.538 111.415,-120.102"/>
<polygon fill="midnightblue" stroke="midnightblue" points="112.181,-123.52 121.386,-118.274 110.918,-116.635 112.181,-123.52"/>
</g>
<!-- Node40 -->
<g id="node40" class="node"><title>Node40</title>
<g id="a_node40"><a xlink:href="classpdal_1_1PointLayout.html#a5a720db4e74a5412c1420b0d1eaacda7" target="_top" xlink:title="pdal::PointLayout::\lfindDim">
<polygon fill="white" stroke="black" points="99.5,-142.487 99.5,-172.487 197.5,-172.487 197.5,-142.487 99.5,-142.487"/>
<text text-anchor="start" x="107.5" y="-160.487" font-family="Helvetica,sans-Serif" font-size="10.00">pdal::PointLayout::</text>
<text text-anchor="middle" x="148.5" y="-149.487" font-family="Helvetica,sans-Serif" font-size="10.00">findDim</text>
</a>
</g>
</g>
<!-- Node1&#45;&gt;Node40 -->
<g id="edge45" class="edge"><title>Node1&#45;&gt;Node40</title>
<path fill="none" stroke="midnightblue" d="M53.243,-140.206C63.7851,-142.139 76.4489,-144.461 89.0236,-146.766"/>
<polygon fill="midnightblue" stroke="midnightblue" points="88.5795,-150.243 99.0468,-148.603 89.8419,-143.357 88.5795,-150.243"/>
</g>
<!-- Node47 -->
<g id="node47" class="node"><title>Node47</title>
<g id="a_node47"><a xlink:href="classpdal_1_1BasePointTable.html#a7e3a12a1f29e6cd10d8669ed3d07eb94" target="_top" xlink:title="pdal::BasePointTable\l::layout">
<polygon fill="white" stroke="black" points="93.5,-54.4866 93.5,-84.4866 203.5,-84.4866 203.5,-54.4866 93.5,-54.4866"/>
<text text-anchor="start" x="101.5" y="-72.4866" font-family="Helvetica,sans-Serif" font-size="10.00">pdal::BasePointTable</text>
<text text-anchor="middle" x="148.5" y="-61.4866" font-family="Helvetica,sans-Serif" font-size="10.00">::layout</text>
</a>
</g>
</g>
<!-- Node1&#45;&gt;Node47 -->
<g id="edge54" class="edge"><title>Node1&#45;&gt;Node47</title>
<path fill="none" stroke="midnightblue" d="M40.2614,-125.966C52.4075,-117.153 71.3934,-104.012 89,-94.4866 92.661,-92.5058 96.512,-90.5665 100.418,-88.6992"/>
<polygon fill="midnightblue" stroke="midnightblue" points="101.946,-91.8487 109.566,-84.4877 99.019,-85.4901 101.946,-91.8487"/>
</g>
<!-- Node48 -->
<g id="node48" class="node"><title>Node48</title>
<g id="a_node48"><a xlink:href="classpdal_1_1Stage.html#acb2434df20f371f1fec9577de3cf0046" target="_top" xlink:title="pdal::Stage::setOptions">
<polygon fill="white" stroke="black" points="89,-15.9866 89,-34.9866 208,-34.9866 208,-15.9866 89,-15.9866"/>
<text text-anchor="middle" x="148.5" y="-22.9866" font-family="Helvetica,sans-Serif" font-size="10.00">pdal::Stage::setOptions</text>
</a>
</g>
</g>
<!-- Node1&#45;&gt;Node48 -->
<g id="edge55" class="edge"><title>Node1&#45;&gt;Node48</title>
<path fill="none" stroke="midnightblue" d="M31.374,-125.974C39.3662,-107.522 59.4452,-66.734 89,-44.4866 91.4795,-42.6201 94.1499,-40.9326 96.936,-39.4074"/>
<polygon fill="midnightblue" stroke="midnightblue" points="98.5844,-42.4998 106.136,-35.0686 95.5984,-36.1686 98.5844,-42.4998"/>
</g>
<!-- Node3 -->
<g id="node3" class="node"><title>Node3</title>
<g id="a_node3"><a xlink:href="classpdal_1_1Option.html#aef4422b88464a9cad83b3c11bf1f8cdd" target="_top" xlink:title="pdal::Option::nameValid">
<polygon fill="white" stroke="black" points="244,-317.987 244,-336.987 365,-336.987 365,-317.987 244,-317.987"/>
<text text-anchor="middle" x="304.5" y="-324.987" font-family="Helvetica,sans-Serif" font-size="10.00">pdal::Option::nameValid</text>
</a>
</g>
</g>
<!-- Node2&#45;&gt;Node3 -->
<g id="edge2" class="edge"><title>Node2&#45;&gt;Node3</title>
<path fill="none" stroke="midnightblue" d="M188.361,-299.076C208.591,-304.067 233.521,-310.219 255.004,-315.52"/>
<polygon fill="midnightblue" stroke="midnightblue" points="254.371,-318.969 264.919,-317.967 256.048,-312.173 254.371,-318.969"/>
</g>
<!-- Node8 -->
<g id="node8" class="node"><title>Node8</title>
<g id="a_node8"><a xlink:href="classpdal_1_1Option.html#ad2b7a736742fb343e421fa326ef45c23" target="_top" xlink:title="pdal::Option::getName">
<polygon fill="white" stroke="black" points="247,-279.987 247,-298.987 362,-298.987 362,-279.987 247,-279.987"/>
<text text-anchor="middle" x="304.5" y="-286.987" font-family="Helvetica,sans-Serif" font-size="10.00">pdal::Option::getName</text>
</a>
</g>
</g>
<!-- Node2&#45;&gt;Node8 -->
<g id="edge7" class="edge"><title>Node2&#45;&gt;Node8</title>
<path fill="none" stroke="midnightblue" d="M196.542,-289.487C209.23,-289.487 223.203,-289.487 236.746,-289.487"/>
<polygon fill="midnightblue" stroke="midnightblue" points="236.99,-292.987 246.99,-289.487 236.99,-285.987 236.99,-292.987"/>
</g>
<!-- Node4 -->
<g id="node4" class="node"><title>Node4</title>
<g id="a_node4"><a xlink:href="classpdal_1_1Option.html#a978a36cf9180d3636ea770988961952b" target="_top" xlink:title="pdal::Option::parse">
<polygon fill="white" stroke="black" points="411,-336.987 411,-355.987 510,-355.987 510,-336.987 411,-336.987"/>
<text text-anchor="middle" x="460.5" y="-343.987" font-family="Helvetica,sans-Serif" font-size="10.00">pdal::Option::parse</text>
</a>
</g>
</g>
<!-- Node3&#45;&gt;Node4 -->
<g id="edge3" class="edge"><title>Node3&#45;&gt;Node4</title>
<path fill="none" stroke="midnightblue" d="M365.04,-334.832C376.693,-336.27 388.909,-337.777 400.542,-339.213"/>
<polygon fill="midnightblue" stroke="midnightblue" points="400.233,-342.701 410.587,-340.452 401.09,-335.754 400.233,-342.701"/>
</g>
<!-- Node7 -->
<g id="node7" class="node"><title>Node7</title>
<g id="a_node7"><a xlink:href="namespacepdal_1_1Utils.html#ada321695f57c876ef51227bdf5b84f7a" target="_top" xlink:title="pdal::Utils::printError">
<polygon fill="white" stroke="black" points="407,-298.987 407,-317.987 514,-317.987 514,-298.987 407,-298.987"/>
<text text-anchor="middle" x="460.5" y="-305.987" font-family="Helvetica,sans-Serif" font-size="10.00">pdal::Utils::printError</text>
</a>
</g>
</g>
<!-- Node3&#45;&gt;Node7 -->
<g id="edge6" class="edge"><title>Node3&#45;&gt;Node7</title>
<path fill="none" stroke="midnightblue" d="M365.04,-320.141C375.324,-318.872 386.046,-317.549 396.42,-316.269"/>
<polygon fill="midnightblue" stroke="midnightblue" points="397.152,-319.705 406.648,-315.007 396.295,-312.758 397.152,-319.705"/>
</g>
<!-- Node5 -->
<g id="node5" class="node"><title>Node5</title>
<g id="a_node5"><a xlink:href="namespacepdal_1_1Utils.html#acae5a19cd66121b77e2599daec48413d" target="_top" xlink:title="pdal::Utils::extract">
<polygon fill="white" stroke="black" points="566,-329.987 566,-348.987 663,-348.987 663,-329.987 566,-329.987"/>
<text text-anchor="middle" x="614.5" y="-336.987" font-family="Helvetica,sans-Serif" font-size="10.00">pdal::Utils::extract</text>
</a>
</g>
</g>
<!-- Node4&#45;&gt;Node5 -->
<g id="edge4" class="edge"><title>Node4&#45;&gt;Node5</title>
<path fill="none" stroke="midnightblue" d="M510.012,-344.252C524.554,-343.583 540.647,-342.842 555.724,-342.147"/>
<polygon fill="midnightblue" stroke="midnightblue" points="556.14,-345.632 565.968,-341.676 555.818,-338.639 556.14,-345.632"/>
</g>
<!-- Node6 -->
<g id="node6" class="node"><title>Node6</title>
<g id="a_node6"><a xlink:href="namespacepdal_1_1Dimension.html#af3176b0b7e6b4be000317846cf7c2718" target="_top" xlink:title="pdal::Dimension::name">
<polygon fill="white" stroke="black" points="556,-367.987 556,-386.987 673,-386.987 673,-367.987 556,-367.987"/>
<text text-anchor="middle" x="614.5" y="-374.987" font-family="Helvetica,sans-Serif" font-size="10.00">pdal::Dimension::name</text>
</a>
</g>
</g>
<!-- Node4&#45;&gt;Node6 -->
<g id="edge5" class="edge"><title>Node4&#45;&gt;Node6</title>
<path fill="none" stroke="midnightblue" d="M508.345,-356.041C523.586,-359.149 540.672,-362.633 556.567,-365.875"/>
<polygon fill="midnightblue" stroke="midnightblue" points="556.312,-369.395 566.809,-367.964 557.711,-362.536 556.312,-369.395"/>
</g>
<!-- Node10 -->
<g id="node10" class="node"><title>Node10</title>
<g id="a_node10"><a xlink:href="classpdal_1_1PluginManager.html#a70e78b2649f28e266ec11b7a9e183af9" target="_top" xlink:title="pdal::PluginManager\l::createObject">
<polygon fill="white" stroke="black" points="252,-230.487 252,-260.487 357,-260.487 357,-230.487 252,-230.487"/>
<text text-anchor="start" x="260" y="-248.487" font-family="Helvetica,sans-Serif" font-size="10.00">pdal::PluginManager</text>
<text text-anchor="middle" x="304.5" y="-237.487" font-family="Helvetica,sans-Serif" font-size="10.00">::createObject</text>
</a>
</g>
</g>
<!-- Node9&#45;&gt;Node10 -->
<g id="edge9" class="edge"><title>Node9&#45;&gt;Node10</title>
<path fill="none" stroke="midnightblue" d="M198.227,-232.498C211.983,-234.195 227.137,-236.065 241.558,-237.844"/>
<polygon fill="midnightblue" stroke="midnightblue" points="241.546,-241.369 251.899,-239.12 242.403,-234.422 241.546,-241.369"/>
</g>
<!-- Node11 -->
<g id="node11" class="node"><title>Node11</title>
<g id="a_node11"><a xlink:href="classpdal_1_1PluginManager.html#a1d74a4219bdf2592c026084e0aa3809a" target="_top" xlink:title="pdal::PluginManager\l::l_createObject">
<polygon fill="white" stroke="black" points="408,-240.487 408,-270.487 513,-270.487 513,-240.487 408,-240.487"/>
<text text-anchor="start" x="416" y="-258.487" font-family="Helvetica,sans-Serif" font-size="10.00">pdal::PluginManager</text>
<text text-anchor="middle" x="460.5" y="-247.487" font-family="Helvetica,sans-Serif" font-size="10.00">::l_createObject</text>
</a>
</g>
</g>
<!-- Node10&#45;&gt;Node11 -->
<g id="edge10" class="edge"><title>Node10&#45;&gt;Node11</title>
<path fill="none" stroke="midnightblue" d="M357.208,-248.844C370.229,-249.69 384.336,-250.606 397.793,-251.48"/>
<polygon fill="midnightblue" stroke="midnightblue" points="397.722,-254.982 407.928,-252.138 398.176,-247.997 397.722,-254.982"/>
</g>
<!-- Node12 -->
<g id="node12" class="node"><title>Node12</title>
<g id="a_node12"><a xlink:href="classpdal_1_1PluginManager.html#a4b104d8173aec62bcd3745ddee7aa3d5" target="_top" xlink:title="pdal::PluginManager\l::guessLoadByPath">
<polygon fill="white" stroke="black" points="562,-261.487 562,-291.487 667,-291.487 667,-261.487 562,-261.487"/>
<text text-anchor="start" x="570" y="-279.487" font-family="Helvetica,sans-Serif" font-size="10.00">pdal::PluginManager</text>
<text text-anchor="middle" x="614.5" y="-268.487" font-family="Helvetica,sans-Serif" font-size="10.00">::guessLoadByPath</text>
</a>
</g>
</g>
<!-- Node11&#45;&gt;Node12 -->
<g id="edge11" class="edge"><title>Node11&#45;&gt;Node12</title>
<path fill="none" stroke="midnightblue" d="M513.385,-262.655C525.735,-264.361 539.034,-266.199 551.777,-267.959"/>
<polygon fill="midnightblue" stroke="midnightblue" points="551.464,-271.449 561.849,-269.351 552.422,-264.515 551.464,-271.449"/>
</g>
<!-- Node13 -->
<g id="node13" class="node"><title>Node13</title>
<g id="a_node13"><a xlink:href="namespacepdal_1_1Utils.html#a6ae33c6d7b4eb4bcae6ec17fb8cc04fc" target="_top" xlink:title="pdal::Utils::split2">
<polygon fill="white" stroke="black" points="989,-454.987 989,-473.987 1079,-473.987 1079,-454.987 989,-454.987"/>
<text text-anchor="middle" x="1034" y="-461.987" font-family="Helvetica,sans-Serif" font-size="10.00">pdal::Utils::split2</text>
</a>
</g>
</g>
<!-- Node12&#45;&gt;Node13 -->
<g id="edge12" class="edge"><title>Node12&#45;&gt;Node13</title>
<path fill="none" stroke="midnightblue" d="M642.042,-291.578C653.021,-299.013 665.024,-308.885 673,-320.487 705.028,-367.073 664.893,-407.122 709,-442.487 788.808,-506.475 918.237,-490.813 986.863,-476.26"/>
<polygon fill="midnightblue" stroke="midnightblue" points="987.925,-479.61 996.936,-474.039 986.417,-472.774 987.925,-479.61"/>
</g>
<!-- Node14 -->
<g id="node14" class="node"><title>Node14</title>
<g id="a_node14"><a xlink:href="namespacepdal_1_1anonymous__namespace_02PluginManager_8cpp_03.html#a1fdbb485623dfdef1f484e665ffe43fe" target="_top" xlink:title="pdal::anonymous_namespace\l\{PluginManager::cpp\}::pluginSearchPaths">
<polygon fill="white" stroke="black" points="709,-402.487 709,-432.487 906,-432.487 906,-402.487 709,-402.487"/>
<text text-anchor="start" x="717" y="-420.487" font-family="Helvetica,sans-Serif" font-size="10.00">pdal::anonymous_namespace</text>
<text text-anchor="middle" x="807.5" y="-409.487" font-family="Helvetica,sans-Serif" font-size="10.00">{PluginManager::cpp}::pluginSearchPaths</text>
</a>
</g>
</g>
<!-- Node12&#45;&gt;Node14 -->
<g id="edge13" class="edge"><title>Node12&#45;&gt;Node14</title>
<path fill="none" stroke="midnightblue" d="M639.89,-291.534C650.965,-299.217 663.648,-309.3 673,-320.487 695.439,-347.327 681.863,-368.408 709,-390.487 712.295,-393.168 715.839,-395.583 719.553,-397.759"/>
<polygon fill="midnightblue" stroke="midnightblue" points="718.009,-400.902 728.496,-402.415 721.242,-394.693 718.009,-400.902"/>
</g>
<!-- Node17 -->
<g id="node17" class="node"><title>Node17</title>
<g id="a_node17"><a xlink:href="namespacepdal_1_1FileUtils.html#ae2b8f1ddc38b0033b685a0bde6106ba1" target="_top" xlink:title="pdal::FileUtils::fileExists">
<polygon fill="white" stroke="black" points="746,-144.987 746,-163.987 869,-163.987 869,-144.987 746,-144.987"/>
<text text-anchor="middle" x="807.5" y="-151.987" font-family="Helvetica,sans-Serif" font-size="10.00">pdal::FileUtils::fileExists</text>
</a>
</g>
</g>
<!-- Node12&#45;&gt;Node17 -->
<g id="edge17" class="edge"><title>Node12&#45;&gt;Node17</title>
<path fill="none" stroke="midnightblue" d="M628.281,-261.273C645.057,-242.156 676.239,-209.439 709,-189.487 724.264,-180.19 742.37,-172.837 758.811,-167.32"/>
<polygon fill="midnightblue" stroke="midnightblue" points="760.337,-170.506 768.792,-164.121 758.201,-163.84 760.337,-170.506"/>
</g>
<!-- Node20 -->
<g id="node20" class="node"><title>Node20</title>
<g id="a_node20"><a xlink:href="namespacepdal_1_1FileUtils.html#acfbe324737d031ab2650a56c6d50c776" target="_top" xlink:title="pdal::FileUtils::isDirectory">
<polygon fill="white" stroke="black" points="742.5,-361.987 742.5,-380.987 872.5,-380.987 872.5,-361.987 742.5,-361.987"/>
<text text-anchor="middle" x="807.5" y="-368.987" font-family="Helvetica,sans-Serif" font-size="10.00">pdal::FileUtils::isDirectory</text>
</a>
</g>
</g>
<!-- Node12&#45;&gt;Node20 -->
<g id="edge20" class="edge"><title>Node12&#45;&gt;Node20</title>
<path fill="none" stroke="midnightblue" d="M636.008,-291.605C647.111,-299.933 660.978,-310.566 673,-320.487 689.512,-334.112 689.814,-342.991 709,-352.487 716.443,-356.17 724.536,-359.14 732.771,-361.535"/>
<polygon fill="midnightblue" stroke="midnightblue" points="731.911,-364.928 742.473,-364.09 733.694,-358.158 731.911,-364.928"/>
</g>
<!-- Node21 -->
<g id="node21" class="node"><title>Node21</title>
<g id="a_node21"><a xlink:href="namespacepdal_1_1FileUtils.html#af4165597419cf00a2ff9cea447ea6c33" target="_top" xlink:title="pdal::FileUtils::directoryList">
<polygon fill="white" stroke="black" points="739.5,-285.987 739.5,-304.987 875.5,-304.987 875.5,-285.987 739.5,-285.987"/>
<text text-anchor="middle" x="807.5" y="-292.987" font-family="Helvetica,sans-Serif" font-size="10.00">pdal::FileUtils::directoryList</text>
</a>
</g>
</g>
<!-- Node12&#45;&gt;Node21 -->
<g id="edge21" class="edge"><title>Node12&#45;&gt;Node21</title>
<path fill="none" stroke="midnightblue" d="M667.187,-281.628C686.271,-283.527 708.335,-285.721 729.195,-287.797"/>
<polygon fill="midnightblue" stroke="midnightblue" points="729.024,-291.297 739.321,-288.804 729.717,-284.331 729.024,-291.297"/>
</g>
<!-- Node22 -->
<g id="node22" class="node"><title>Node22</title>
<g id="a_node22"><a xlink:href="namespacepdal_1_1FileUtils.html#ae3c153961947c766ab18099f7ef71fc1" target="_top" xlink:title="pdal::FileUtils::extension">
<polygon fill="white" stroke="black" points="745,-247.987 745,-266.987 870,-266.987 870,-247.987 745,-247.987"/>
<text text-anchor="middle" x="807.5" y="-254.987" font-family="Helvetica,sans-Serif" font-size="10.00">pdal::FileUtils::extension</text>
</a>
</g>
</g>
<!-- Node12&#45;&gt;Node22 -->
<g id="edge22" class="edge"><title>Node12&#45;&gt;Node22</title>
<path fill="none" stroke="midnightblue" d="M667.187,-271.345C687.977,-269.277 712.304,-266.857 734.759,-264.623"/>
<polygon fill="midnightblue" stroke="midnightblue" points="735.321,-268.085 744.926,-263.612 734.628,-261.119 735.321,-268.085"/>
</g>
<!-- Node23 -->
<g id="node23" class="node"><title>Node23</title>
<g id="a_node23"><a xlink:href="namespacepdal_1_1FileUtils.html#a3bdadae2f0ef6896942c02e9a9c81e00" target="_top" xlink:title="pdal::FileUtils::stem">
<polygon fill="white" stroke="black" points="755.5,-323.987 755.5,-342.987 859.5,-342.987 859.5,-323.987 755.5,-323.987"/>
<text text-anchor="middle" x="807.5" y="-330.987" font-family="Helvetica,sans-Serif" font-size="10.00">pdal::FileUtils::stem</text>
</a>
</g>
</g>
<!-- Node12&#45;&gt;Node23 -->
<g id="edge23" class="edge"><title>Node12&#45;&gt;Node23</title>
<path fill="none" stroke="midnightblue" d="M648.261,-291.622C665.952,-299.327 688.343,-308.339 709,-314.487 720.622,-317.945 733.215,-320.937 745.369,-323.458"/>
<polygon fill="midnightblue" stroke="midnightblue" points="744.953,-326.944 755.444,-325.465 746.32,-320.079 744.953,-326.944"/>
</g>
<!-- Node25 -->
<g id="node25" class="node"><title>Node25</title>
<g id="a_node25"><a xlink:href="namespacepdal_1_1Dimension.html#a880d689fed54aa3ded6f88c9e058c5d2" target="_top" xlink:title="pdal::Dimension::type">
<polygon fill="white" stroke="black" points="751.5,-98.9866 751.5,-117.987 863.5,-117.987 863.5,-98.9866 751.5,-98.9866"/>
<text text-anchor="middle" x="807.5" y="-105.987" font-family="Helvetica,sans-Serif" font-size="10.00">pdal::Dimension::type</text>
</a>
</g>
</g>
<!-- Node12&#45;&gt;Node25 -->
<g id="edge25" class="edge"><title>Node12&#45;&gt;Node25</title>
<path fill="none" stroke="midnightblue" d="M626.057,-261.426C637.721,-244.702 656.976,-216.849 673,-192.487 689.465,-167.453 684.946,-153.352 709,-135.487 718.639,-128.328 730.082,-123.067 741.679,-119.201"/>
<polygon fill="midnightblue" stroke="midnightblue" points="742.853,-122.503 751.42,-116.27 740.836,-115.799 742.853,-122.503"/>
</g>
<!-- Node27 -->
<g id="node27" class="node"><title>Node27</title>
<g id="a_node27"><a xlink:href="classpdal_1_1PluginManager.html#a3344bf0a8d35b309b26cb23ae5fa3579" target="_top" xlink:title="pdal::PluginManager\l::loadByPath">
<polygon fill="white" stroke="black" points="755,-198.487 755,-228.487 860,-228.487 860,-198.487 755,-198.487"/>
<text text-anchor="start" x="763" y="-216.487" font-family="Helvetica,sans-Serif" font-size="10.00">pdal::PluginManager</text>
<text text-anchor="middle" x="807.5" y="-205.487" font-family="Helvetica,sans-Serif" font-size="10.00">::loadByPath</text>
</a>
</g>
</g>
<!-- Node12&#45;&gt;Node27 -->
<g id="edge27" class="edge"><title>Node12&#45;&gt;Node27</title>
<path fill="none" stroke="midnightblue" d="M649.283,-261.469C666.875,-253.978 688.865,-245.126 709,-238.487 720.474,-234.703 732.863,-231.14 744.834,-227.953"/>
<polygon fill="midnightblue" stroke="midnightblue" points="745.967,-231.275 754.763,-225.369 744.204,-224.501 745.967,-231.275"/>
</g>
<!-- Node14&#45;&gt;Node13 -->
<g id="edge15" class="edge"><title>Node14&#45;&gt;Node13</title>
<path fill="none" stroke="midnightblue" d="M880.206,-432.538C900.208,-436.734 921.95,-441.291 942,-445.487 953.848,-447.966 966.564,-450.623 978.623,-453.142"/>
<polygon fill="midnightblue" stroke="midnightblue" points="978.06,-456.599 988.565,-455.217 979.491,-449.747 978.06,-456.599"/>
</g>
<!-- Node15 -->
<g id="node15" class="node"><title>Node15</title>
<g id="a_node15"><a xlink:href="namespacepdal_1_1Utils.html#a280847d8a85057a3cfe513abec5c6527" target="_top" xlink:title="pdal::Utils::getenv">
<polygon fill="white" stroke="black" points="986,-416.987 986,-435.987 1082,-435.987 1082,-416.987 986,-416.987"/>
<text text-anchor="middle" x="1034" y="-423.987" font-family="Helvetica,sans-Serif" font-size="10.00">pdal::Utils::getenv</text>
</a>
</g>
</g>
<!-- Node14&#45;&gt;Node15 -->
<g id="edge14" class="edge"><title>Node14&#45;&gt;Node15</title>
<path fill="none" stroke="midnightblue" d="M906.316,-421.408C930.077,-422.36 954.716,-423.348 975.877,-424.197"/>
<polygon fill="midnightblue" stroke="midnightblue" points="975.835,-427.698 985.967,-424.601 976.116,-420.703 975.835,-427.698"/>
</g>
<!-- Node16 -->
<g id="node16" class="node"><title>Node16</title>
<g id="a_node16"><a xlink:href="namespacepdal_1_1FileUtils.html#a538c47da3e98daa37d68b568ca849ac9" target="_top" xlink:title="pdal::FileUtils::toAbsolutePath">
<polygon fill="white" stroke="black" points="1162,-206.987 1162,-225.987 1311,-225.987 1311,-206.987 1162,-206.987"/>
<text text-anchor="middle" x="1236.5" y="-213.987" font-family="Helvetica,sans-Serif" font-size="10.00">pdal::FileUtils::toAbsolutePath</text>
</a>
</g>
</g>
<!-- Node14&#45;&gt;Node16 -->
<g id="edge16" class="edge"><title>Node14&#45;&gt;Node16</title>
<path fill="none" stroke="midnightblue" d="M906.053,-408.111C993.193,-398.873 1109.59,-384.065 1126,-369.487 1171.14,-329.386 1119.79,-281.663 1162,-238.487 1164.85,-235.57 1168.07,-233.036 1171.53,-230.835"/>
<polygon fill="midnightblue" stroke="midnightblue" points="1173.38,-233.816 1180.56,-226.023 1170.09,-227.639 1173.38,-233.816"/>
</g>
<!-- Node18 -->
<g id="node18" class="node"><title>Node18</title>
<g id="a_node18"><a xlink:href="namespacepdal_1_1anonymous__namespace_02FileUtils_8cpp_03.html#a813a530ad72d50f747643f1bb996cacf" target="_top" xlink:title="pdal::anonymous_namespace\l\{FileUtils::cpp\}::isStdin">
<polygon fill="white" stroke="black" points="961,-56.4866 961,-86.4866 1107,-86.4866 1107,-56.4866 961,-56.4866"/>
<text text-anchor="start" x="969" y="-74.4866" font-family="Helvetica,sans-Serif" font-size="10.00">pdal::anonymous_namespace</text>
<text text-anchor="middle" x="1034" y="-63.4866" font-family="Helvetica,sans-Serif" font-size="10.00">{FileUtils::cpp}::isStdin</text>
</a>
</g>
</g>
<!-- Node17&#45;&gt;Node18 -->
<g id="edge18" class="edge"><title>Node17&#45;&gt;Node18</title>
<path fill="none" stroke="midnightblue" d="M859.223,-144.947C874.784,-140.849 891.591,-135.182 906,-127.487 924.625,-117.54 923.365,-106.415 942,-96.4866 946.293,-94.1995 950.814,-92.1068 955.452,-90.1939"/>
<polygon fill="midnightblue" stroke="midnightblue" points="957.005,-93.3477 965.103,-86.5157 954.512,-86.8067 957.005,-93.3477"/>
</g>
<!-- Node19 -->
<g id="node19" class="node"><title>Node19</title>
<g id="a_node19"><a xlink:href="namespacepdal_1_1Utils.html#a28e3e2faff94b20f9908e77bc54ed983" target="_top" xlink:title="pdal::Utils::toupper">
<polygon fill="white" stroke="black" points="1187,-20.9866 1187,-39.9866 1286,-39.9866 1286,-20.9866 1187,-20.9866"/>
<text text-anchor="middle" x="1236.5" y="-27.9866" font-family="Helvetica,sans-Serif" font-size="10.00">pdal::Utils::toupper</text>
</a>
</g>
</g>
<!-- Node18&#45;&gt;Node19 -->
<g id="edge19" class="edge"><title>Node18&#45;&gt;Node19</title>
<path fill="none" stroke="midnightblue" d="M1107.1,-56.7425C1130.76,-51.9048 1156.69,-46.6016 1179.02,-42.0356"/>
<polygon fill="midnightblue" stroke="midnightblue" points="1179.91,-45.4265 1189.01,-39.9939 1178.51,-38.5684 1179.91,-45.4265"/>
</g>
<!-- Node24 -->
<g id="node24" class="node"><title>Node24</title>
<g id="a_node24"><a xlink:href="namespacepdal_1_1FileUtils.html#a0d150fac3c099a0646763f1b862cac73" target="_top" xlink:title="pdal::FileUtils::getFilename">
<polygon fill="white" stroke="black" points="966,-340.987 966,-359.987 1102,-359.987 1102,-340.987 966,-340.987"/>
<text text-anchor="middle" x="1034" y="-347.987" font-family="Helvetica,sans-Serif" font-size="10.00">pdal::FileUtils::getFilename</text>
</a>
</g>
</g>
<!-- Node23&#45;&gt;Node24 -->
<g id="edge24" class="edge"><title>Node23&#45;&gt;Node24</title>
<path fill="none" stroke="midnightblue" d="M859.723,-337.365C888.1,-339.514 923.951,-342.229 955.671,-344.631"/>
<polygon fill="midnightblue" stroke="midnightblue" points="955.574,-348.133 965.81,-345.399 956.102,-341.153 955.574,-348.133"/>
</g>
<!-- Node26 -->
<g id="node26" class="node"><title>Node26</title>
<g id="a_node26"><a xlink:href="namespacepdal_1_1Utils.html#a5268937cf695835e55392f752dc02cb2" target="_top" xlink:title="pdal::Utils::tolower">
<polygon fill="white" stroke="black" points="985,-17.9866 985,-36.9866 1083,-36.9866 1083,-17.9866 985,-17.9866"/>
<text text-anchor="middle" x="1034" y="-24.9866" font-family="Helvetica,sans-Serif" font-size="10.00">pdal::Utils::tolower</text>
</a>
</g>
</g>
<!-- Node25&#45;&gt;Node26 -->
<g id="edge26" class="edge"><title>Node25&#45;&gt;Node26</title>
<path fill="none" stroke="midnightblue" d="M825.684,-98.9424C850.613,-85.4628 898.584,-60.889 942,-46.4866 952.438,-43.0239 963.767,-40.0585 974.772,-37.5709"/>
<polygon fill="midnightblue" stroke="midnightblue" points="975.715,-40.9481 984.754,-35.4202 974.241,-34.1052 975.715,-40.9481"/>
</g>
<!-- Node27&#45;&gt;Node16 -->
<g id="edge35" class="edge"><title>Node27&#45;&gt;Node16</title>
<path fill="none" stroke="midnightblue" d="M860.006,-213.848C932.444,-214.357 1065.24,-215.29 1151.92,-215.899"/>
<polygon fill="midnightblue" stroke="midnightblue" points="1151.97,-219.4 1162,-215.97 1152.02,-212.4 1151.97,-219.4"/>
</g>
<!-- Node27&#45;&gt;Node24 -->
<g id="edge29" class="edge"><title>Node27&#45;&gt;Node24</title>
<path fill="none" stroke="midnightblue" d="M860.199,-217.467C876.435,-220.98 893.392,-227.289 906,-238.487 939.139,-267.919 908.205,-302.81 942,-331.487 946.307,-335.141 951.137,-338.152 956.267,-340.626"/>
<polygon fill="midnightblue" stroke="midnightblue" points="955.196,-343.97 965.777,-344.524 957.851,-337.493 955.196,-343.97"/>
</g>
<!-- Node27&#45;&gt;Node26 -->
<g id="edge28" class="edge"><title>Node27&#45;&gt;Node26</title>
<path fill="none" stroke="midnightblue" d="M860.175,-201.96C876.797,-195.95 893.997,-186.93 906,-173.487 945.074,-129.723 899.081,-86.486 942,-46.4866 950.947,-38.1479 962.572,-33.0811 974.504,-30.0799"/>
<polygon fill="midnightblue" stroke="midnightblue" points="975.456,-33.4576 984.548,-28.0181 974.048,-26.6005 975.456,-33.4576"/>
</g>
<!-- Node28 -->
<g id="node28" class="node"><title>Node28</title>
<g id="a_node28"><a xlink:href="namespacepdal_1_1anonymous__namespace_02PluginManager_8cpp_03.html#a96b6f972ce14621acdc2ef6579cab857" target="_top" xlink:title="pdal::anonymous_namespace\l\{PluginManager::cpp\}::pluginTypeValid">
<polygon fill="white" stroke="black" points="942,-105.487 942,-135.487 1126,-135.487 1126,-105.487 942,-105.487"/>
<text text-anchor="start" x="950" y="-123.487" font-family="Helvetica,sans-Serif" font-size="10.00">pdal::anonymous_namespace</text>
<text text-anchor="middle" x="1034" y="-112.487" font-family="Helvetica,sans-Serif" font-size="10.00">{PluginManager::cpp}::pluginTypeValid</text>
</a>
</g>
</g>
<!-- Node27&#45;&gt;Node28 -->
<g id="edge30" class="edge"><title>Node27&#45;&gt;Node28</title>
<path fill="none" stroke="midnightblue" d="M852.411,-198.396C869.619,-191.739 889.22,-183.21 906,-173.487 923.538,-163.324 923.879,-154.568 942,-145.487 946.641,-143.16 951.528,-141.027 956.528,-139.075"/>
<polygon fill="midnightblue" stroke="midnightblue" points="958.047,-142.246 966.249,-135.539 955.655,-135.668 958.047,-142.246"/>
</g>
<!-- Node30 -->
<g id="node30" class="node"><title>Node30</title>
<g id="a_node30"><a xlink:href="classpdal_1_1PluginManager.html#a05f55dd74e4883b9a8bca6ebbadda5bd" target="_top" xlink:title="pdal::PluginManager\l::libraryLoaded">
<polygon fill="white" stroke="black" points="981.5,-242.487 981.5,-272.487 1086.5,-272.487 1086.5,-242.487 981.5,-242.487"/>
<text text-anchor="start" x="989.5" y="-260.487" font-family="Helvetica,sans-Serif" font-size="10.00">pdal::PluginManager</text>
<text text-anchor="middle" x="1034" y="-249.487" font-family="Helvetica,sans-Serif" font-size="10.00">::libraryLoaded</text>
</a>
</g>
</g>
<!-- Node27&#45;&gt;Node30 -->
<g id="edge32" class="edge"><title>Node27&#45;&gt;Node30</title>
<path fill="none" stroke="midnightblue" d="M860.005,-223.581C893.113,-230.07 936.311,-238.536 971.257,-245.385"/>
<polygon fill="midnightblue" stroke="midnightblue" points="970.86,-248.874 981.347,-247.363 972.206,-242.005 970.86,-248.874"/>
</g>
<!-- Node32 -->
<g id="node32" class="node"><title>Node32</title>
<g id="a_node32"><a xlink:href="classpdal_1_1PluginManager.html#a37dc2ebab8261695d3d42038046cd5e4" target="_top" xlink:title="pdal::PluginManager\l::loadLibrary">
<polygon fill="white" stroke="black" points="981.5,-154.487 981.5,-184.487 1086.5,-184.487 1086.5,-154.487 981.5,-154.487"/>
<text text-anchor="start" x="989.5" y="-172.487" font-family="Helvetica,sans-Serif" font-size="10.00">pdal::PluginManager</text>
<text text-anchor="middle" x="1034" y="-161.487" font-family="Helvetica,sans-Serif" font-size="10.00">::loadLibrary</text>
</a>
</g>
</g>
<!-- Node27&#45;&gt;Node32 -->
<g id="edge36" class="edge"><title>Node27&#45;&gt;Node32</title>
<path fill="none" stroke="midnightblue" d="M860.005,-203.392C893.113,-196.903 936.311,-188.437 971.257,-181.588"/>
<polygon fill="midnightblue" stroke="midnightblue" points="972.206,-184.968 981.347,-179.61 970.86,-178.099 972.206,-184.968"/>
</g>
<!-- Node35 -->
<g id="node35" class="node"><title>Node35</title>
<g id="a_node35"><a xlink:href="classpdal_1_1PluginManager.html#ae9e94964092e0fdb6be63484e5e69e9f" target="_top" xlink:title="pdal::PluginManager\l::initializePlugin">
<polygon fill="white" stroke="black" points="981.5,-291.487 981.5,-321.487 1086.5,-321.487 1086.5,-291.487 981.5,-291.487"/>
<text text-anchor="start" x="989.5" y="-309.487" font-family="Helvetica,sans-Serif" font-size="10.00">pdal::PluginManager</text>
<text text-anchor="middle" x="1034" y="-298.487" font-family="Helvetica,sans-Serif" font-size="10.00">::initializePlugin</text>
</a>
</g>
</g>
<!-- Node27&#45;&gt;Node35 -->
<g id="edge40" class="edge"><title>Node27&#45;&gt;Node35</title>
<path fill="none" stroke="midnightblue" d="M860.085,-220.352C875.687,-224.054 892.301,-229.744 906,-238.487 927.299,-252.08 920.748,-268.821 942,-282.487 950.852,-288.179 961.011,-292.526 971.259,-295.845"/>
<polygon fill="midnightblue" stroke="midnightblue" points="970.49,-299.267 981.071,-298.722 972.459,-292.549 970.49,-299.267"/>
</g>
<!-- Node29 -->
<g id="node29" class="node"><title>Node29</title>
<g id="a_node29"><a xlink:href="namespacepdal_1_1Utils.html#a28e27948fb8a4c1d958783d8a53bd784" target="_top" xlink:title="pdal::Utils::startsWith">
<polygon fill="white" stroke="black" points="1180.5,-110.987 1180.5,-129.987 1292.5,-129.987 1292.5,-110.987 1180.5,-110.987"/>
<text text-anchor="middle" x="1236.5" y="-117.987" font-family="Helvetica,sans-Serif" font-size="10.00">pdal::Utils::startsWith</text>
</a>
</g>
</g>
<!-- Node28&#45;&gt;Node29 -->
<g id="edge31" class="edge"><title>Node28&#45;&gt;Node29</title>
<path fill="none" stroke="midnightblue" d="M1126.16,-120.487C1141.06,-120.487 1156.23,-120.487 1170.34,-120.487"/>
<polygon fill="midnightblue" stroke="midnightblue" points="1170.4,-123.987 1180.4,-120.487 1170.4,-116.987 1170.4,-123.987"/>
</g>
<!-- Node30&#45;&gt;Node16 -->
<g id="edge33" class="edge"><title>Node30&#45;&gt;Node16</title>
<path fill="none" stroke="midnightblue" d="M1086.63,-246.928C1114.86,-241.155 1149.88,-233.994 1178.86,-228.068"/>
<polygon fill="midnightblue" stroke="midnightblue" points="1179.74,-231.461 1188.84,-226.028 1178.34,-224.603 1179.74,-231.461"/>
</g>
<!-- Node31 -->
<g id="node31" class="node"><title>Node31</title>
<g id="a_node31"><a xlink:href="namespacepdal_1_1Utils.html#a3e140e4c0c21d020c56c0b8d58b8cb5b" target="_top" xlink:title="pdal::Utils::contains">
<polygon fill="white" stroke="black" points="1184.5,-247.987 1184.5,-266.987 1288.5,-266.987 1288.5,-247.987 1184.5,-247.987"/>
<text text-anchor="middle" x="1236.5" y="-254.987" font-family="Helvetica,sans-Serif" font-size="10.00">pdal::Utils::contains</text>
</a>
</g>
</g>
<!-- Node30&#45;&gt;Node31 -->
<g id="edge34" class="edge"><title>Node30&#45;&gt;Node31</title>
<path fill="none" stroke="midnightblue" d="M1086.63,-257.487C1113.4,-257.487 1146.26,-257.487 1174.3,-257.487"/>
<polygon fill="midnightblue" stroke="midnightblue" points="1174.39,-260.987 1184.39,-257.487 1174.39,-253.987 1174.39,-260.987"/>
</g>
<!-- Node32&#45;&gt;Node16 -->
<g id="edge39" class="edge"><title>Node32&#45;&gt;Node16</title>
<path fill="none" stroke="midnightblue" d="M1086.63,-181.59C1116.86,-188.677 1154.88,-197.588 1184.92,-204.631"/>
<polygon fill="midnightblue" stroke="midnightblue" points="1184.25,-208.068 1194.79,-206.943 1185.85,-201.253 1184.25,-208.068"/>
</g>
<!-- Node33 -->
<g id="node33" class="node"><title>Node33</title>
<g id="a_node33"><a xlink:href="classpdal_1_1DynamicLibrary.html#afa96ce1595f15fb125e13c827902f030" target="_top" xlink:title="pdal::DynamicLibrary\l::load">
<polygon fill="white" stroke="black" points="1182,-154.487 1182,-184.487 1291,-184.487 1291,-154.487 1182,-154.487"/>
<text text-anchor="start" x="1190" y="-172.487" font-family="Helvetica,sans-Serif" font-size="10.00">pdal::DynamicLibrary</text>
<text text-anchor="middle" x="1236.5" y="-161.487" font-family="Helvetica,sans-Serif" font-size="10.00">::load</text>
</a>
</g>
</g>
<!-- Node32&#45;&gt;Node33 -->
<g id="edge37" class="edge"><title>Node32&#45;&gt;Node33</title>
<path fill="none" stroke="midnightblue" d="M1086.63,-169.487C1112.56,-169.487 1144.21,-169.487 1171.65,-169.487"/>
<polygon fill="midnightblue" stroke="midnightblue" points="1171.94,-172.987 1181.94,-169.487 1171.94,-165.987 1171.94,-172.987"/>
</g>
<!-- Node34 -->
<g id="node34" class="node"><title>Node34</title>
<g id="a_node34"><a xlink:href="classpdal_1_1DynamicLibrary.html#a48b54a6222a25732cc80500f52f3e618" target="_top" xlink:title="pdal::DynamicLibrary\l::DynamicLibrary">
<polygon fill="white" stroke="black" points="1347,-154.487 1347,-184.487 1456,-184.487 1456,-154.487 1347,-154.487"/>
<text text-anchor="start" x="1355" y="-172.487" font-family="Helvetica,sans-Serif" font-size="10.00">pdal::DynamicLibrary</text>
<text text-anchor="middle" x="1401.5" y="-161.487" font-family="Helvetica,sans-Serif" font-size="10.00">::DynamicLibrary</text>
</a>
</g>
</g>
<!-- Node33&#45;&gt;Node34 -->
<g id="edge38" class="edge"><title>Node33&#45;&gt;Node34</title>
<path fill="none" stroke="midnightblue" d="M1291.32,-169.487C1305.79,-169.487 1321.58,-169.487 1336.53,-169.487"/>
<polygon fill="midnightblue" stroke="midnightblue" points="1336.73,-172.987 1346.73,-169.487 1336.73,-165.987 1336.73,-172.987"/>
</g>
<!-- Node36 -->
<g id="node36" class="node"><title>Node36</title>
<g id="a_node36"><a xlink:href="classpdal_1_1PluginManager.html#a8a847508c24b6a254ae8eaba06c0069a" target="_top" xlink:title="pdal::PluginManager\l::l_initializePlugin">
<polygon fill="white" stroke="black" points="1184,-291.487 1184,-321.487 1289,-321.487 1289,-291.487 1184,-291.487"/>
<text text-anchor="start" x="1192" y="-309.487" font-family="Helvetica,sans-Serif" font-size="10.00">pdal::PluginManager</text>
<text text-anchor="middle" x="1236.5" y="-298.487" font-family="Helvetica,sans-Serif" font-size="10.00">::l_initializePlugin</text>
</a>
</g>
</g>
<!-- Node35&#45;&gt;Node36 -->
<g id="edge41" class="edge"><title>Node35&#45;&gt;Node36</title>
<path fill="none" stroke="midnightblue" d="M1086.63,-306.487C1113.19,-306.487 1145.76,-306.487 1173.65,-306.487"/>
<polygon fill="midnightblue" stroke="midnightblue" points="1173.69,-309.987 1183.69,-306.487 1173.69,-302.987 1173.69,-309.987"/>
</g>
<!-- Node38 -->
<g id="node38" class="node"><title>Node38</title>
<g id="a_node38"><a xlink:href="namespacehag.html#aee422d0ebdb1730554711d82498e54c3" target="_top" xlink:title="hag.wakeup">
<polygon fill="white" stroke="black" points="270,-54.9866 270,-73.9866 339,-73.9866 339,-54.9866 270,-54.9866"/>
<text text-anchor="middle" x="304.5" y="-61.9866" font-family="Helvetica,sans-Serif" font-size="10.00">hag.wakeup</text>
</a>
</g>
</g>
<!-- Node37&#45;&gt;Node38 -->
<g id="edge43" class="edge"><title>Node37&#45;&gt;Node38</title>
<path fill="none" stroke="midnightblue" d="M175.624,-105.174C199.775,-97.4899 236.013,-85.9596 263.753,-77.1333"/>
<polygon fill="midnightblue" stroke="midnightblue" points="265.082,-80.3833 273.55,-74.016 262.96,-73.7129 265.082,-80.3833"/>
</g>
<!-- Node39 -->
<g id="node39" class="node"><title>Node39</title>
<g id="a_node39"><a xlink:href="namespacehag.html#acad63bbd5fdda01bf56ff6aae70a0192" target="_top" xlink:title="hag.read">
<polygon fill="white" stroke="black" points="277.5,-16.9866 277.5,-35.9866 331.5,-35.9866 331.5,-16.9866 277.5,-16.9866"/>
<text text-anchor="middle" x="304.5" y="-23.9866" font-family="Helvetica,sans-Serif" font-size="10.00">hag.read</text>
</a>
</g>
</g>
<!-- Node37&#45;&gt;Node39 -->
<g id="edge44" class="edge"><title>Node37&#45;&gt;Node39</title>
<path fill="none" stroke="midnightblue" d="M175.559,-108.163C186.304,-105.095 198.448,-100.427 208,-93.4866 229.573,-77.8114 222.269,-60.9416 244,-45.4866 250.974,-40.5271 259.302,-36.8198 267.487,-34.0639"/>
<polygon fill="midnightblue" stroke="midnightblue" points="268.707,-37.3529 277.299,-31.154 266.716,-30.6417 268.707,-37.3529"/>
</g>
<!-- Node41 -->
<g id="node41" class="node"><title>Node41</title>
<g id="a_node41"><a xlink:href="namespacepdal_1_1Dimension.html#a10b4c693e3bdbdf1a0eec8f4b008a291" target="_top" xlink:title="pdal::Dimension::id">
<polygon fill="white" stroke="black" points="564,-163.987 564,-182.987 665,-182.987 665,-163.987 564,-163.987"/>
<text text-anchor="middle" x="614.5" y="-170.987" font-family="Helvetica,sans-Serif" font-size="10.00">pdal::Dimension::id</text>
</a>
</g>
</g>
<!-- Node40&#45;&gt;Node41 -->
<g id="edge46" class="edge"><title>Node40&#45;&gt;Node41</title>
<path fill="none" stroke="midnightblue" d="M196.612,-172.51C211.598,-176.596 228.349,-180.451 244,-182.487 352.634,-196.613 480.702,-187.896 553.973,-180.52"/>
<polygon fill="midnightblue" stroke="midnightblue" points="554.352,-184 563.94,-179.491 553.633,-177.037 554.352,-184"/>
</g>
<!-- Node42 -->
<g id="node42" class="node"><title>Node42</title>
<g id="a_node42"><a xlink:href="classpdal_1_1PointLayout.html#adaef1dfccc620aa7f7f2a57ea2c19d6d" target="_top" xlink:title="pdal::PointLayout::\ldimType">
<polygon fill="white" stroke="black" points="255.5,-142.487 255.5,-172.487 353.5,-172.487 353.5,-142.487 255.5,-142.487"/>
<text text-anchor="start" x="263.5" y="-160.487" font-family="Helvetica,sans-Serif" font-size="10.00">pdal::PointLayout::</text>
<text text-anchor="middle" x="304.5" y="-149.487" font-family="Helvetica,sans-Serif" font-size="10.00">dimType</text>
</a>
</g>
</g>
<!-- Node40&#45;&gt;Node42 -->
<g id="edge48" class="edge"><title>Node40&#45;&gt;Node42</title>
<path fill="none" stroke="midnightblue" d="M197.804,-157.487C212.855,-157.487 229.612,-157.487 245.268,-157.487"/>
<polygon fill="midnightblue" stroke="midnightblue" points="245.367,-160.987 255.367,-157.487 245.367,-153.987 245.367,-160.987"/>
</g>
<!-- Node46 -->
<g id="node46" class="node"><title>Node46</title>
<g id="a_node46"><a xlink:href="classpdal_1_1PointLayout.html#abb03661faa312e6954f49cf8e0e809a3" target="_top" xlink:title="pdal::PointLayout::\lfindProprietaryDim">
<polygon fill="white" stroke="black" points="255.5,-93.4866 255.5,-123.487 353.5,-123.487 353.5,-93.4866 255.5,-93.4866"/>
<text text-anchor="start" x="263.5" y="-111.487" font-family="Helvetica,sans-Serif" font-size="10.00">pdal::PointLayout::</text>
<text text-anchor="middle" x="304.5" y="-100.487" font-family="Helvetica,sans-Serif" font-size="10.00">findProprietaryDim</text>
</a>
</g>
</g>
<!-- Node40&#45;&gt;Node46 -->
<g id="edge53" class="edge"><title>Node40&#45;&gt;Node46</title>
<path fill="none" stroke="midnightblue" d="M196.962,-142.385C212.55,-137.425 230.043,-131.859 246.278,-126.694"/>
<polygon fill="midnightblue" stroke="midnightblue" points="247.727,-129.905 256.195,-123.538 245.605,-123.235 247.727,-129.905"/>
</g>
<!-- Node41&#45;&gt;Node19 -->
<g id="edge47" class="edge"><title>Node41&#45;&gt;Node19</title>
<path fill="none" stroke="midnightblue" d="M628.709,-163.745C640.645,-154.753 658.509,-140.813 673,-127.487 690.124,-111.738 689.458,-102.109 709,-89.4866 801.094,-30.002 833.896,-26.7414 942,-8.48656 1022.64,5.12993 1044.62,-0.392653 1126,-8.48656 1146.44,-10.52 1168.72,-14.639 1187.82,-18.7688"/>
<polygon fill="midnightblue" stroke="midnightblue" points="1187.25,-22.2285 1197.77,-20.9844 1188.77,-15.3957 1187.25,-22.2285"/>
</g>
<!-- Node43 -->
<g id="node43" class="node"><title>Node43</title>
<g id="a_node43"><a xlink:href="classpdal_1_1PointLayout.html#abcfdf0f917e71d1bd8a96bc64ff1e8a2" target="_top" xlink:title="pdal::PointLayout::\ldimDetail">
<polygon fill="white" stroke="black" points="411.5,-93.4866 411.5,-123.487 509.5,-123.487 509.5,-93.4866 411.5,-93.4866"/>
<text text-anchor="start" x="419.5" y="-111.487" font-family="Helvetica,sans-Serif" font-size="10.00">pdal::PointLayout::</text>
<text text-anchor="middle" x="460.5" y="-100.487" font-family="Helvetica,sans-Serif" font-size="10.00">dimDetail</text>
</a>
</g>
</g>
<!-- Node42&#45;&gt;Node43 -->
<g id="edge49" class="edge"><title>Node42&#45;&gt;Node43</title>
<path fill="none" stroke="midnightblue" d="M352.962,-142.385C368.55,-137.425 386.043,-131.859 402.278,-126.694"/>
<polygon fill="midnightblue" stroke="midnightblue" points="403.727,-129.905 412.195,-123.538 401.605,-123.235 403.727,-129.905"/>
</g>
<!-- Node45 -->
<g id="node45" class="node"><title>Node45</title>
<g id="a_node45"><a xlink:href="classpdal_1_1Dimension_1_1Detail.html#adf5961976b7fce3d90a0dddd50519a7c" target="_top" xlink:title="pdal::Dimension::Detail\l::type">
<polygon fill="white" stroke="black" points="401,-142.487 401,-172.487 520,-172.487 520,-142.487 401,-142.487"/>
<text text-anchor="start" x="409" y="-160.487" font-family="Helvetica,sans-Serif" font-size="10.00">pdal::Dimension::Detail</text>
<text text-anchor="middle" x="460.5" y="-149.487" font-family="Helvetica,sans-Serif" font-size="10.00">::type</text>
</a>
</g>
</g>
<!-- Node42&#45;&gt;Node45 -->
<g id="edge52" class="edge"><title>Node42&#45;&gt;Node45</title>
<path fill="none" stroke="midnightblue" d="M353.804,-157.487C365.45,-157.487 378.119,-157.487 390.508,-157.487"/>
<polygon fill="midnightblue" stroke="midnightblue" points="390.82,-160.987 400.82,-157.487 390.82,-153.987 390.82,-160.987"/>
</g>
<!-- Node44 -->
<g id="node44" class="node"><title>Node44</title>
<g id="a_node44"><a xlink:href="namespacepdal_1_1Utils.html#a59253304d0f929e3a3ea00f09636002f" target="_top" xlink:title="pdal::Utils::toNative">
<polygon fill="white" stroke="black" points="562.5,-98.9866 562.5,-117.987 666.5,-117.987 666.5,-98.9866 562.5,-98.9866"/>
<text text-anchor="middle" x="614.5" y="-105.987" font-family="Helvetica,sans-Serif" font-size="10.00">pdal::Utils::toNative</text>
</a>
</g>
</g>
<!-- Node43&#45;&gt;Node44 -->
<g id="edge50" class="edge"><title>Node43&#45;&gt;Node44</title>
<path fill="none" stroke="midnightblue" d="M509.594,-108.487C523.101,-108.487 537.975,-108.487 552.143,-108.487"/>
<polygon fill="midnightblue" stroke="midnightblue" points="552.305,-111.987 562.305,-108.487 552.305,-104.987 552.305,-111.987"/>
</g>
<!-- Node44&#45;&gt;Node25 -->
<g id="edge51" class="edge"><title>Node44&#45;&gt;Node25</title>
<path fill="none" stroke="midnightblue" d="M666.684,-108.487C689.6,-108.487 716.889,-108.487 741.249,-108.487"/>
<polygon fill="midnightblue" stroke="midnightblue" points="741.489,-111.987 751.489,-108.487 741.489,-104.987 741.489,-111.987"/>
</g>
</g>
</svg>
