<?xml version="1.0" encoding="UTF-8" standalone="no"?>
<!DOCTYPE svg PUBLIC "-//W3C//DTD SVG 1.1//EN"
 "http://www.w3.org/Graphics/SVG/1.1/DTD/svg11.dtd">
<!-- Generated by graphviz version 2.38.0 (20140413.2041)
 -->
<!-- Title: pdal/filters/RangeFilter.hpp Pages: 1 -->
<svg width="422pt" height="95pt"
 viewBox="0.00 0.00 422.00 95.00" xmlns="http://www.w3.org/2000/svg" xmlns:xlink="http://www.w3.org/1999/xlink">
<g id="graph0" class="graph" transform="scale(1 1) rotate(0) translate(4 91)">
<title>pdal/filters/RangeFilter.hpp</title>
<polygon fill="white" stroke="none" points="-4,4 -4,-91 418,-91 418,4 -4,4"/>
<!-- Node1 -->
<g id="node1" class="node"><title>Node1</title>
<polygon fill="#bfbfbf" stroke="black" points="153,-67.5 153,-86.5 287,-86.5 287,-67.5 153,-67.5"/>
<text text-anchor="middle" x="220" y="-74.5" font-family="Helvetica,sans-Serif" font-size="10.00">pdal/filters/RangeFilter.hpp</text>
</g>
<!-- Node2 -->
<g id="node2" class="node"><title>Node2</title>
<g id="a_node2"><a xlink:href="RangeFilter_8cpp.html" target="_top" xlink:title="pdal/filters/RangeFilter.cpp">
<polygon fill="white" stroke="black" points="0,-6 0,-25 134,-25 134,-6 0,-6"/>
<text text-anchor="middle" x="67" y="-13" font-family="Helvetica,sans-Serif" font-size="10.00">pdal/filters/RangeFilter.cpp</text>
</a>
</g>
</g>
<!-- Node1&#45;&gt;Node2 -->
<g id="edge1" class="edge"><title>Node1&#45;&gt;Node2</title>
<path fill="none" stroke="midnightblue" d="M188.583,-63.7824C158.851,-52.2199 114.993,-35.1641 88.8805,-25.0091"/>
<polygon fill="midnightblue" stroke="midnightblue" points="187.49,-67.1126 198.079,-67.4751 190.027,-60.5886 187.49,-67.1126"/>
</g>
<!-- Node3 -->
<g id="node3" class="node"><title>Node3</title>
<g id="a_node3"><a xlink:href="StageFactory_8cpp.html" target="_top" xlink:title="pdal/pdal/StageFactory.cpp">
<polygon fill="white" stroke="black" points="152,-6 152,-25 288,-25 288,-6 152,-6"/>
<text text-anchor="middle" x="220" y="-13" font-family="Helvetica,sans-Serif" font-size="10.00">pdal/pdal/StageFactory.cpp</text>
</a>
</g>
</g>
<!-- Node1&#45;&gt;Node3 -->
<g id="edge2" class="edge"><title>Node1&#45;&gt;Node3</title>
<path fill="none" stroke="midnightblue" d="M220,-57.3165C220,-46.4962 220,-33.398 220,-25.0091"/>
<polygon fill="midnightblue" stroke="midnightblue" points="216.5,-57.4751 220,-67.4751 223.5,-57.4751 216.5,-57.4751"/>
</g>
<!-- Node4 -->
<g id="node4" class="node"><title>Node4</title>
<g id="a_node4"><a xlink:href="RangeFilterTest_8cpp.html" target="_top" xlink:title="pdal/test/unit/filters\l/RangeFilterTest.cpp">
<polygon fill="white" stroke="black" points="306,-0.5 306,-30.5 414,-30.5 414,-0.5 306,-0.5"/>
<text text-anchor="start" x="314" y="-18.5" font-family="Helvetica,sans-Serif" font-size="10.00">pdal/test/unit/filters</text>
<text text-anchor="middle" x="360" y="-7.5" font-family="Helvetica,sans-Serif" font-size="10.00">/RangeFilterTest.cpp</text>
</a>
</g>
</g>
<!-- Node1&#45;&gt;Node4 -->
<g id="edge3" class="edge"><title>Node1&#45;&gt;Node4</title>
<path fill="none" stroke="midnightblue" d="M249.505,-63.4605C272.181,-53.823 303.499,-40.5127 327.005,-30.523"/>
<polygon fill="midnightblue" stroke="midnightblue" points="247.893,-60.3425 240.059,-67.4751 250.631,-66.7848 247.893,-60.3425"/>
</g>
</g>
</svg>
