<?xml version="1.0" encoding="UTF-8" standalone="no"?>
<!DOCTYPE svg PUBLIC "-//W3C//DTD SVG 1.1//EN"
 "http://www.w3.org/Graphics/SVG/1.1/DTD/svg11.dtd">
<!-- Generated by graphviz version 2.38.0 (20140413.2041)
 -->
<!-- Title: checkPoint Pages: 1 -->
<svg width="240pt" height="104pt"
 viewBox="0.00 0.00 240.00 104.00" xmlns="http://www.w3.org/2000/svg" xmlns:xlink="http://www.w3.org/1999/xlink">
<g id="graph0" class="graph" transform="scale(1 1) rotate(0) translate(4 100)">
<title>checkPoint</title>
<polygon fill="white" stroke="none" points="-4,4 -4,-100 236,-100 236,4 -4,4"/>
<!-- Node1 -->
<g id="node1" class="node"><title>Node1</title>
<polygon fill="#bfbfbf" stroke="black" points="0,-38.5 0,-57.5 65,-57.5 65,-38.5 0,-38.5"/>
<text text-anchor="middle" x="32.5" y="-45.5" font-family="Helvetica,sans-Serif" font-size="10.00">checkPoint</text>
</g>
<!-- Node2 -->
<g id="node2" class="node"><title>Node2</title>
<g id="a_node2"><a xlink:href="RxpReaderTest_8cpp.html#a0227aaeceafd2901742386193678b4b5" target="_top" xlink:title="checkDimensionClose">
<polygon fill="white" stroke="black" points="109,-76.5 109,-95.5 224,-95.5 224,-76.5 109,-76.5"/>
<text text-anchor="middle" x="166.5" y="-83.5" font-family="Helvetica,sans-Serif" font-size="10.00">checkDimensionClose</text>
</a>
</g>
</g>
<!-- Node1&#45;&gt;Node2 -->
<g id="edge1" class="edge"><title>Node1&#45;&gt;Node2</title>
<path fill="none" stroke="midnightblue" d="M65.1173,-57.1019C82.3147,-62.0527 103.833,-68.2474 122.532,-73.6303"/>
<polygon fill="midnightblue" stroke="midnightblue" points="121.721,-77.0389 132.299,-76.442 123.657,-70.3121 121.721,-77.0389"/>
</g>
<!-- Node3 -->
<g id="node3" class="node"><title>Node3</title>
<g id="a_node3"><a xlink:href="RxpReaderTest_8cpp.html#ae11d8c5a54a48aed9eeb4ef1b78cc0e1" target="_top" xlink:title="checkDimensionEqual">
<polygon fill="white" stroke="black" points="109.5,-38.5 109.5,-57.5 223.5,-57.5 223.5,-38.5 109.5,-38.5"/>
<text text-anchor="middle" x="166.5" y="-45.5" font-family="Helvetica,sans-Serif" font-size="10.00">checkDimensionEqual</text>
</a>
</g>
</g>
<!-- Node1&#45;&gt;Node3 -->
<g id="edge2" class="edge"><title>Node1&#45;&gt;Node3</title>
<path fill="none" stroke="midnightblue" d="M65.1173,-48C75.4855,-48 87.4242,-48 99.3687,-48"/>
<polygon fill="midnightblue" stroke="midnightblue" points="99.3691,-51.5001 109.369,-48 99.3691,-44.5001 99.3691,-51.5001"/>
</g>
<!-- Node4 -->
<g id="node4" class="node"><title>Node4</title>
<g id="a_node4"><a xlink:href="namespacepdal.html#ad387c869e85189a7ac3e5083b167c22c" target="_top" xlink:title="pdal::getTimeDimensionId">
<polygon fill="white" stroke="black" points="101,-0.5 101,-19.5 232,-19.5 232,-0.5 101,-0.5"/>
<text text-anchor="middle" x="166.5" y="-7.5" font-family="Helvetica,sans-Serif" font-size="10.00">pdal::getTimeDimensionId</text>
</a>
</g>
</g>
<!-- Node1&#45;&gt;Node4 -->
<g id="edge3" class="edge"><title>Node1&#45;&gt;Node4</title>
<path fill="none" stroke="midnightblue" d="M65.1173,-38.8981C82.3147,-33.9473 103.833,-27.7526 122.532,-22.3697"/>
<polygon fill="midnightblue" stroke="midnightblue" points="123.657,-25.6879 132.299,-19.558 121.721,-18.9611 123.657,-25.6879"/>
</g>
</g>
</svg>
