<?xml version="1.0" encoding="UTF-8" standalone="no"?>
<!DOCTYPE svg PUBLIC "-//W3C//DTD SVG 1.1//EN"
 "http://www.w3.org/Graphics/SVG/1.1/DTD/svg11.dtd">
<!-- Generated by graphviz version 2.38.0 (20140413.2041)
 -->
<!-- Title: checkPoint Pages: 1 -->
<svg width="715pt" height="154pt"
 viewBox="0.00 0.00 715.00 153.50" xmlns="http://www.w3.org/2000/svg" xmlns:xlink="http://www.w3.org/1999/xlink">
<g id="graph0" class="graph" transform="scale(1 1) rotate(0) translate(4 149.5)">
<title>checkPoint</title>
<polygon fill="white" stroke="none" points="-4,4 -4,-149.5 711,-149.5 711,4 -4,4"/>
<!-- Node1 -->
<g id="node1" class="node"><title>Node1</title>
<polygon fill="#bfbfbf" stroke="black" points="0,-57.5 0,-76.5 65,-76.5 65,-57.5 0,-57.5"/>
<text text-anchor="middle" x="32.5" y="-64.5" font-family="Helvetica,sans-Serif" font-size="10.00">checkPoint</text>
</g>
<!-- Node2 -->
<g id="node2" class="node"><title>Node2</title>
<g id="a_node2"><a xlink:href="IcebridgeReaderTest_8cpp.html#aeeb72d8c589853d3fe048f20adb0f293" target="_top" xlink:title="checkDimension">
<polygon fill="white" stroke="black" points="101,-76.5 101,-95.5 190,-95.5 190,-76.5 101,-76.5"/>
<text text-anchor="middle" x="145.5" y="-83.5" font-family="Helvetica,sans-Serif" font-size="10.00">checkDimension</text>
</a>
</g>
</g>
<!-- Node1&#45;&gt;Node2 -->
<g id="edge1" class="edge"><title>Node1&#45;&gt;Node2</title>
<path fill="none" stroke="midnightblue" d="M65.0112,-72.3938C73.1142,-73.7808 82.0619,-75.3124 90.9432,-76.8326"/>
<polygon fill="midnightblue" stroke="midnightblue" points="90.4465,-80.2984 100.894,-78.5359 91.6276,-73.3988 90.4465,-80.2984"/>
</g>
<!-- Node3 -->
<g id="node3" class="node"><title>Node3</title>
<g id="a_node3"><a xlink:href="classpdal_1_1PointView.html#a4c594a6d2a469e594988194ccf125a15" target="_top" xlink:title="pdal::PointView::getFieldAs">
<polygon fill="white" stroke="black" points="226,-57.5 226,-76.5 363,-76.5 363,-57.5 226,-57.5"/>
<text text-anchor="middle" x="294.5" y="-64.5" font-family="Helvetica,sans-Serif" font-size="10.00">pdal::PointView::getFieldAs</text>
</a>
</g>
</g>
<!-- Node1&#45;&gt;Node3 -->
<g id="edge8" class="edge"><title>Node1&#45;&gt;Node3</title>
<path fill="none" stroke="midnightblue" d="M65.1212,-67C102.281,-67 165.268,-67 215.693,-67"/>
<polygon fill="midnightblue" stroke="midnightblue" points="215.923,-70.5001 225.923,-67 215.923,-63.5001 215.923,-70.5001"/>
</g>
<!-- Node2&#45;&gt;Node3 -->
<g id="edge2" class="edge"><title>Node2&#45;&gt;Node3</title>
<path fill="none" stroke="midnightblue" d="M190.207,-80.3508C198.385,-79.2938 207.156,-78.1601 216.004,-77.0165"/>
<polygon fill="midnightblue" stroke="midnightblue" points="216.53,-80.4777 225.999,-75.7246 215.633,-73.5354 216.53,-80.4777"/>
</g>
<!-- Node4 -->
<g id="node4" class="node"><title>Node4</title>
<g id="a_node4"><a xlink:href="classpdal_1_1Dimension_1_1Detail.html#adf5961976b7fce3d90a0dddd50519a7c" target="_top" xlink:title="pdal::Dimension::Detail\l::type">
<polygon fill="white" stroke="black" points="427.5,-115 427.5,-145 546.5,-145 546.5,-115 427.5,-115"/>
<text text-anchor="start" x="435.5" y="-133" font-family="Helvetica,sans-Serif" font-size="10.00">pdal::Dimension::Detail</text>
<text text-anchor="middle" x="487" y="-122" font-family="Helvetica,sans-Serif" font-size="10.00">::type</text>
</a>
</g>
</g>
<!-- Node3&#45;&gt;Node4 -->
<g id="edge3" class="edge"><title>Node3&#45;&gt;Node4</title>
<path fill="none" stroke="midnightblue" d="M320.002,-76.5626C340.865,-84.568 371.708,-96.0814 399,-105 406.352,-107.403 414.093,-109.805 421.802,-112.12"/>
<polygon fill="midnightblue" stroke="midnightblue" points="420.935,-115.513 431.517,-114.997 422.923,-108.801 420.935,-115.513"/>
</g>
<!-- Node5 -->
<g id="node5" class="node"><title>Node5</title>
<g id="a_node5"><a xlink:href="namespacepdal_1_1Utils.html#a33d614ac71aa03aaa5c10a242c4d14ac" target="_top" xlink:title="pdal::Utils::numericCast">
<polygon fill="white" stroke="black" points="426,-76.5 426,-95.5 548,-95.5 548,-76.5 426,-76.5"/>
<text text-anchor="middle" x="487" y="-83.5" font-family="Helvetica,sans-Serif" font-size="10.00">pdal::Utils::numericCast</text>
</a>
</g>
</g>
<!-- Node3&#45;&gt;Node5 -->
<g id="edge4" class="edge"><title>Node3&#45;&gt;Node5</title>
<path fill="none" stroke="midnightblue" d="M363.2,-73.7522C380.275,-75.4552 398.642,-77.2871 415.835,-79.002"/>
<polygon fill="midnightblue" stroke="midnightblue" points="415.506,-82.4864 425.804,-79.9962 416.201,-75.521 415.506,-82.4864"/>
</g>
<!-- Node7 -->
<g id="node7" class="node"><title>Node7</title>
<g id="a_node7"><a xlink:href="namespacepdal_1_1Dimension.html#af3176b0b7e6b4be000317846cf7c2718" target="_top" xlink:title="pdal::Dimension::name">
<polygon fill="white" stroke="black" points="428.5,-38.5 428.5,-57.5 545.5,-57.5 545.5,-38.5 428.5,-38.5"/>
<text text-anchor="middle" x="487" y="-45.5" font-family="Helvetica,sans-Serif" font-size="10.00">pdal::Dimension::name</text>
</a>
</g>
</g>
<!-- Node3&#45;&gt;Node7 -->
<g id="edge6" class="edge"><title>Node3&#45;&gt;Node7</title>
<path fill="none" stroke="midnightblue" d="M363.2,-60.2478C380.99,-58.4735 400.183,-56.5592 417.99,-54.7832"/>
<polygon fill="midnightblue" stroke="midnightblue" points="418.689,-58.2309 428.292,-53.7556 417.994,-51.2654 418.689,-58.2309"/>
</g>
<!-- Node8 -->
<g id="node8" class="node"><title>Node8</title>
<g id="a_node8"><a xlink:href="namespacepdal_1_1Dimension.html#acc41232ae1e707d6c928ffb9a56592d3" target="_top" xlink:title="pdal::Dimension::interpretationName">
<polygon fill="white" stroke="black" points="399,-0.5 399,-19.5 575,-19.5 575,-0.5 399,-0.5"/>
<text text-anchor="middle" x="487" y="-7.5" font-family="Helvetica,sans-Serif" font-size="10.00">pdal::Dimension::interpretationName</text>
</a>
</g>
</g>
<!-- Node3&#45;&gt;Node8 -->
<g id="edge7" class="edge"><title>Node3&#45;&gt;Node8</title>
<path fill="none" stroke="midnightblue" d="M318.626,-57.4732C339.404,-49.164 370.882,-37.1904 399,-29 407.829,-26.4281 417.253,-24.0256 426.518,-21.8526"/>
<polygon fill="midnightblue" stroke="midnightblue" points="427.499,-25.2189 436.473,-19.5876 425.946,-18.3934 427.499,-25.2189"/>
</g>
<!-- Node6 -->
<g id="node6" class="node"><title>Node6</title>
<g id="a_node6"><a xlink:href="namespacepdal_1_1Utils.html#a06833597f1fc4287966cfa0867128e59" target="_top" xlink:title="pdal::Utils::sround">
<polygon fill="white" stroke="black" points="611,-76.5 611,-95.5 707,-95.5 707,-76.5 611,-76.5"/>
<text text-anchor="middle" x="659" y="-83.5" font-family="Helvetica,sans-Serif" font-size="10.00">pdal::Utils::sround</text>
</a>
</g>
</g>
<!-- Node5&#45;&gt;Node6 -->
<g id="edge5" class="edge"><title>Node5&#45;&gt;Node6</title>
<path fill="none" stroke="midnightblue" d="M548.414,-86C565.406,-86 583.832,-86 600.641,-86"/>
<polygon fill="midnightblue" stroke="midnightblue" points="600.87,-89.5001 610.87,-86 600.869,-82.5001 600.87,-89.5001"/>
</g>
</g>
</svg>
