<?xml version="1.0" encoding="UTF-8" standalone="no"?>
<!DOCTYPE svg PUBLIC "-//W3C//DTD SVG 1.1//EN"
 "http://www.w3.org/Graphics/SVG/1.1/DTD/svg11.dtd">
<!-- Generated by graphviz version 2.38.0 (20140413.2041)
 -->
<!-- Title: TEST Pages: 1 -->
<svg width="805pt" height="218pt"
 viewBox="0.00 0.00 805.00 218.00" xmlns="http://www.w3.org/2000/svg" xmlns:xlink="http://www.w3.org/1999/xlink">
<g id="graph0" class="graph" transform="scale(1 1) rotate(0) translate(4 214)">
<title>TEST</title>
<polygon fill="white" stroke="none" points="-4,4 -4,-214 801,-214 801,4 -4,4"/>
<!-- Node1 -->
<g id="node1" class="node"><title>Node1</title>
<polygon fill="#bfbfbf" stroke="black" points="0,-76.5 0,-95.5 42,-95.5 42,-76.5 0,-76.5"/>
<text text-anchor="middle" x="21" y="-83.5" font-family="Helvetica,sans-Serif" font-size="10.00">TEST</text>
</g>
<!-- Node2 -->
<g id="node2" class="node"><title>Node2</title>
<g id="a_node2"><a xlink:href="classpdal_1_1SbetWriter.html#a695b1caf15c5ec2bbe240dcf6e0b1aea" target="_top" xlink:title="pdal::SbetWriter::getName">
<polygon fill="white" stroke="black" points="78,-152.5 78,-171.5 211,-171.5 211,-152.5 78,-152.5"/>
<text text-anchor="middle" x="144.5" y="-159.5" font-family="Helvetica,sans-Serif" font-size="10.00">pdal::SbetWriter::getName</text>
</a>
</g>
</g>
<!-- Node1&#45;&gt;Node2 -->
<g id="edge1" class="edge"><title>Node1&#45;&gt;Node2</title>
<path fill="none" stroke="midnightblue" d="M28.8468,-95.5531C38.4293,-108.235 57.0369,-130.483 78,-143 81.6026,-145.151 85.4628,-147.071 89.4405,-148.782"/>
<polygon fill="midnightblue" stroke="midnightblue" points="88.2786,-152.085 98.8686,-152.406 90.7906,-145.551 88.2786,-152.085"/>
</g>
<!-- Node3 -->
<g id="node3" class="node"><title>Node3</title>
<g id="a_node3"><a xlink:href="SbetWriterTest_8cpp.html#a9f01a25233e28f3dfebb0512d79c6d30" target="_top" xlink:title="makeReaderOptions">
<polygon fill="white" stroke="black" points="91.5,-76.5 91.5,-95.5 197.5,-95.5 197.5,-76.5 91.5,-76.5"/>
<text text-anchor="middle" x="144.5" y="-83.5" font-family="Helvetica,sans-Serif" font-size="10.00">makeReaderOptions</text>
</a>
</g>
</g>
<!-- Node1&#45;&gt;Node3 -->
<g id="edge2" class="edge"><title>Node1&#45;&gt;Node3</title>
<path fill="none" stroke="midnightblue" d="M42.0633,-86C52.9106,-86 66.961,-86 81.1291,-86"/>
<polygon fill="midnightblue" stroke="midnightblue" points="81.4223,-89.5001 91.4223,-86 81.4222,-82.5001 81.4223,-89.5001"/>
</g>
<!-- Node13 -->
<g id="node13" class="node"><title>Node13</title>
<g id="a_node13"><a xlink:href="SbetWriterTest_8cpp.html#a8bfcc0ef74bfbc5d654d7c4e120deaed" target="_top" xlink:title="makeWriterOptions">
<polygon fill="white" stroke="black" points="94,-114.5 94,-133.5 195,-133.5 195,-114.5 94,-114.5"/>
<text text-anchor="middle" x="144.5" y="-121.5" font-family="Helvetica,sans-Serif" font-size="10.00">makeWriterOptions</text>
</a>
</g>
</g>
<!-- Node1&#45;&gt;Node13 -->
<g id="edge12" class="edge"><title>Node1&#45;&gt;Node13</title>
<path fill="none" stroke="midnightblue" d="M42.1463,-93.0787C52.7734,-96.7509 66.0518,-101.242 78,-105 84.9887,-107.198 92.4255,-109.443 99.6855,-111.585"/>
<polygon fill="midnightblue" stroke="midnightblue" points="98.837,-114.983 109.417,-114.427 100.799,-108.264 98.837,-114.983"/>
</g>
<!-- Node15 -->
<g id="node15" class="node"><title>Node15</title>
<g id="a_node15"><a xlink:href="classpdal_1_1Stage.html#abfd87d459bea04a919aace286b2e377e" target="_top" xlink:title="pdal::Stage::setInput">
<polygon fill="white" stroke="black" points="91,-38.5 91,-57.5 198,-57.5 198,-38.5 91,-38.5"/>
<text text-anchor="middle" x="144.5" y="-45.5" font-family="Helvetica,sans-Serif" font-size="10.00">pdal::Stage::setInput</text>
</a>
</g>
</g>
<!-- Node1&#45;&gt;Node15 -->
<g id="edge16" class="edge"><title>Node1&#45;&gt;Node15</title>
<path fill="none" stroke="midnightblue" d="M42.1463,-78.9213C52.7734,-75.2491 66.0518,-70.7578 78,-67 84.9887,-64.802 92.4255,-62.5566 99.6855,-60.415"/>
<polygon fill="midnightblue" stroke="midnightblue" points="100.799,-63.7361 109.417,-57.5733 98.837,-57.0167 100.799,-63.7361"/>
</g>
<!-- Node16 -->
<g id="node16" class="node"><title>Node16</title>
<g id="a_node16"><a xlink:href="classpdal_1_1Stage.html#acb2434df20f371f1fec9577de3cf0046" target="_top" xlink:title="pdal::Stage::setOptions">
<polygon fill="white" stroke="black" points="85,-0.5 85,-19.5 204,-19.5 204,-0.5 85,-0.5"/>
<text text-anchor="middle" x="144.5" y="-7.5" font-family="Helvetica,sans-Serif" font-size="10.00">pdal::Stage::setOptions</text>
</a>
</g>
</g>
<!-- Node1&#45;&gt;Node16 -->
<g id="edge17" class="edge"><title>Node1&#45;&gt;Node16</title>
<path fill="none" stroke="midnightblue" d="M28.8468,-76.4469C38.4293,-63.7646 57.0369,-41.5172 78,-29 81.6026,-26.8489 85.4628,-24.9293 89.4405,-23.2182"/>
<polygon fill="midnightblue" stroke="midnightblue" points="90.7906,-26.449 98.8686,-19.5936 88.2786,-19.9152 90.7906,-26.449"/>
</g>
<!-- Node4 -->
<g id="node4" class="node"><title>Node4</title>
<g id="a_node4"><a xlink:href="classpdal_1_1Options.html#a30826da39f9c4716412141eeeb719032" target="_top" xlink:title="pdal::Options::add">
<polygon fill="white" stroke="black" points="247.5,-133.5 247.5,-152.5 343.5,-152.5 343.5,-133.5 247.5,-133.5"/>
<text text-anchor="middle" x="295.5" y="-140.5" font-family="Helvetica,sans-Serif" font-size="10.00">pdal::Options::add</text>
</a>
</g>
</g>
<!-- Node3&#45;&gt;Node4 -->
<g id="edge3" class="edge"><title>Node3&#45;&gt;Node4</title>
<path fill="none" stroke="midnightblue" d="M183.355,-95.5618C192.528,-98.2655 202.218,-101.452 211,-105 227.774,-111.777 230.578,-116.408 247,-124 251.101,-125.896 255.449,-127.789 259.782,-129.605"/>
<polygon fill="midnightblue" stroke="midnightblue" points="258.565,-132.889 269.146,-133.43 261.211,-126.408 258.565,-132.889"/>
</g>
<!-- Node11 -->
<g id="node11" class="node"><title>Node11</title>
<g id="a_node11"><a xlink:href="classSupport.html#a9bbdf6f202f4f2e45e7a53007dd0a238" target="_top" xlink:title="Support::datapath">
<polygon fill="white" stroke="black" points="248.5,-57.5 248.5,-76.5 342.5,-76.5 342.5,-57.5 248.5,-57.5"/>
<text text-anchor="middle" x="295.5" y="-64.5" font-family="Helvetica,sans-Serif" font-size="10.00">Support::datapath</text>
</a>
</g>
</g>
<!-- Node3&#45;&gt;Node11 -->
<g id="edge10" class="edge"><title>Node3&#45;&gt;Node11</title>
<path fill="none" stroke="midnightblue" d="M197.613,-79.3547C210.72,-77.6833 224.847,-75.8819 238.151,-74.1854"/>
<polygon fill="midnightblue" stroke="midnightblue" points="238.657,-77.6493 248.134,-72.9124 237.772,-70.7056 238.657,-77.6493"/>
</g>
<!-- Node5 -->
<g id="node5" class="node"><title>Node5</title>
<g id="a_node5"><a xlink:href="classpdal_1_1Option.html#aef4422b88464a9cad83b3c11bf1f8cdd" target="_top" xlink:title="pdal::Option::nameValid">
<polygon fill="white" stroke="black" points="380,-152.5 380,-171.5 501,-171.5 501,-152.5 380,-152.5"/>
<text text-anchor="middle" x="440.5" y="-159.5" font-family="Helvetica,sans-Serif" font-size="10.00">pdal::Option::nameValid</text>
</a>
</g>
</g>
<!-- Node4&#45;&gt;Node5 -->
<g id="edge4" class="edge"><title>Node4&#45;&gt;Node5</title>
<path fill="none" stroke="midnightblue" d="M343.72,-149.274C352.113,-150.389 361.013,-151.572 369.875,-152.749"/>
<polygon fill="midnightblue" stroke="midnightblue" points="369.46,-156.225 379.834,-154.072 370.382,-149.286 369.46,-156.225"/>
</g>
<!-- Node10 -->
<g id="node10" class="node"><title>Node10</title>
<g id="a_node10"><a xlink:href="classpdal_1_1Option.html#ad2b7a736742fb343e421fa326ef45c23" target="_top" xlink:title="pdal::Option::getName">
<polygon fill="white" stroke="black" points="383,-114.5 383,-133.5 498,-133.5 498,-114.5 383,-114.5"/>
<text text-anchor="middle" x="440.5" y="-121.5" font-family="Helvetica,sans-Serif" font-size="10.00">pdal::Option::getName</text>
</a>
</g>
</g>
<!-- Node4&#45;&gt;Node10 -->
<g id="edge9" class="edge"><title>Node4&#45;&gt;Node10</title>
<path fill="none" stroke="midnightblue" d="M343.72,-136.726C353.018,-135.491 362.938,-134.173 372.739,-132.87"/>
<polygon fill="midnightblue" stroke="midnightblue" points="373.426,-136.31 382.878,-131.523 372.504,-129.371 373.426,-136.31"/>
</g>
<!-- Node6 -->
<g id="node6" class="node"><title>Node6</title>
<g id="a_node6"><a xlink:href="classpdal_1_1Option.html#a978a36cf9180d3636ea770988961952b" target="_top" xlink:title="pdal::Option::parse">
<polygon fill="white" stroke="black" points="541,-171.5 541,-190.5 640,-190.5 640,-171.5 541,-171.5"/>
<text text-anchor="middle" x="590.5" y="-178.5" font-family="Helvetica,sans-Serif" font-size="10.00">pdal::Option::parse</text>
</a>
</g>
</g>
<!-- Node5&#45;&gt;Node6 -->
<g id="edge5" class="edge"><title>Node5&#45;&gt;Node6</title>
<path fill="none" stroke="midnightblue" d="M501.271,-169.673C511.036,-170.927 521.144,-172.225 530.881,-173.475"/>
<polygon fill="midnightblue" stroke="midnightblue" points="530.499,-176.954 540.863,-174.756 531.39,-170.011 530.499,-176.954"/>
</g>
<!-- Node9 -->
<g id="node9" class="node"><title>Node9</title>
<g id="a_node9"><a xlink:href="namespacepdal_1_1Utils.html#ada321695f57c876ef51227bdf5b84f7a" target="_top" xlink:title="pdal::Utils::printError">
<polygon fill="white" stroke="black" points="537,-133.5 537,-152.5 644,-152.5 644,-133.5 537,-133.5"/>
<text text-anchor="middle" x="590.5" y="-140.5" font-family="Helvetica,sans-Serif" font-size="10.00">pdal::Utils::printError</text>
</a>
</g>
</g>
<!-- Node5&#45;&gt;Node9 -->
<g id="edge8" class="edge"><title>Node5&#45;&gt;Node9</title>
<path fill="none" stroke="midnightblue" d="M501.271,-154.327C509.598,-153.258 518.175,-152.157 526.558,-151.08"/>
<polygon fill="midnightblue" stroke="midnightblue" points="527.185,-154.529 536.658,-149.784 526.294,-147.586 527.185,-154.529"/>
</g>
<!-- Node7 -->
<g id="node7" class="node"><title>Node7</title>
<g id="a_node7"><a xlink:href="namespacepdal_1_1Utils.html#acae5a19cd66121b77e2599daec48413d" target="_top" xlink:title="pdal::Utils::extract">
<polygon fill="white" stroke="black" points="690,-190.5 690,-209.5 787,-209.5 787,-190.5 690,-190.5"/>
<text text-anchor="middle" x="738.5" y="-197.5" font-family="Helvetica,sans-Serif" font-size="10.00">pdal::Utils::extract</text>
</a>
</g>
</g>
<!-- Node6&#45;&gt;Node7 -->
<g id="edge6" class="edge"><title>Node6&#45;&gt;Node7</title>
<path fill="none" stroke="midnightblue" d="M640.116,-187.327C652.683,-188.962 666.34,-190.739 679.341,-192.431"/>
<polygon fill="midnightblue" stroke="midnightblue" points="679.225,-195.946 689.593,-193.766 680.128,-189.004 679.225,-195.946"/>
</g>
<!-- Node8 -->
<g id="node8" class="node"><title>Node8</title>
<g id="a_node8"><a xlink:href="namespacepdal_1_1Dimension.html#af3176b0b7e6b4be000317846cf7c2718" target="_top" xlink:title="pdal::Dimension::name">
<polygon fill="white" stroke="black" points="680,-152.5 680,-171.5 797,-171.5 797,-152.5 680,-152.5"/>
<text text-anchor="middle" x="738.5" y="-159.5" font-family="Helvetica,sans-Serif" font-size="10.00">pdal::Dimension::name</text>
</a>
</g>
</g>
<!-- Node6&#45;&gt;Node8 -->
<g id="edge7" class="edge"><title>Node6&#45;&gt;Node8</title>
<path fill="none" stroke="midnightblue" d="M640.116,-174.673C649.697,-173.426 659.911,-172.097 669.985,-170.786"/>
<polygon fill="midnightblue" stroke="midnightblue" points="670.519,-174.246 679.984,-169.485 669.616,-167.305 670.519,-174.246"/>
</g>
<!-- Node12 -->
<g id="node12" class="node"><title>Node12</title>
<g id="a_node12"><a xlink:href="namespaceTestConfig.html#a0e622015f0610c2cfcbb3739b972d877" target="_top" xlink:title="TestConfig::dataPath">
<polygon fill="white" stroke="black" points="385.5,-67.5 385.5,-86.5 495.5,-86.5 495.5,-67.5 385.5,-67.5"/>
<text text-anchor="middle" x="440.5" y="-74.5" font-family="Helvetica,sans-Serif" font-size="10.00">TestConfig::dataPath</text>
</a>
</g>
</g>
<!-- Node11&#45;&gt;Node12 -->
<g id="edge11" class="edge"><title>Node11&#45;&gt;Node12</title>
<path fill="none" stroke="midnightblue" d="M342.533,-70.2191C352.973,-70.9491 364.245,-71.7374 375.284,-72.5093"/>
<polygon fill="midnightblue" stroke="midnightblue" points="375.105,-76.0053 385.325,-73.2115 375.593,-69.0224 375.105,-76.0053"/>
</g>
<!-- Node13&#45;&gt;Node4 -->
<g id="edge13" class="edge"><title>Node13&#45;&gt;Node4</title>
<path fill="none" stroke="midnightblue" d="M195.115,-130.327C208.671,-132.055 223.469,-133.942 237.407,-135.72"/>
<polygon fill="midnightblue" stroke="midnightblue" points="237.011,-139.197 247.373,-136.991 237.896,-132.254 237.011,-139.197"/>
</g>
<!-- Node14 -->
<g id="node14" class="node"><title>Node14</title>
<g id="a_node14"><a xlink:href="classSupport.html#a987d7adce1636b5852ff41a1d34d37bd" target="_top" xlink:title="Support::temppath">
<polygon fill="white" stroke="black" points="247,-95.5 247,-114.5 344,-114.5 344,-95.5 247,-95.5"/>
<text text-anchor="middle" x="295.5" y="-102.5" font-family="Helvetica,sans-Serif" font-size="10.00">Support::temppath</text>
</a>
</g>
</g>
<!-- Node13&#45;&gt;Node14 -->
<g id="edge14" class="edge"><title>Node13&#45;&gt;Node14</title>
<path fill="none" stroke="midnightblue" d="M195.115,-117.673C208.405,-115.979 222.888,-114.132 236.584,-112.385"/>
<polygon fill="midnightblue" stroke="midnightblue" points="237.394,-115.81 246.871,-111.074 236.508,-108.867 237.394,-115.81"/>
</g>
<!-- Node14&#45;&gt;Node12 -->
<g id="edge15" class="edge"><title>Node14&#45;&gt;Node12</title>
<path fill="none" stroke="midnightblue" d="M344.117,-95.6764C355.796,-93.3895 368.436,-90.9146 380.577,-88.5375"/>
<polygon fill="midnightblue" stroke="midnightblue" points="381.484,-91.9263 390.625,-86.5699 380.139,-85.0568 381.484,-91.9263"/>
</g>
</g>
</svg>
