<?xml version="1.0" encoding="UTF-8" standalone="no"?>
<!DOCTYPE svg PUBLIC "-//W3C//DTD SVG 1.1//EN"
 "http://www.w3.org/Graphics/SVG/1.1/DTD/svg11.dtd">
<!-- Generated by graphviz version 2.38.0 (20140413.2041)
 -->
<!-- Title: TEST Pages: 1 -->
<svg width="1073pt" height="972pt"
 viewBox="0.00 0.00 1073.00 972.00" xmlns="http://www.w3.org/2000/svg" xmlns:xlink="http://www.w3.org/1999/xlink">
<g id="graph0" class="graph" transform="scale(1 1) rotate(0) translate(4 968)">
<title>TEST</title>
<polygon fill="white" stroke="none" points="-4,4 -4,-968 1069,-968 1069,4 -4,4"/>
<!-- Node1 -->
<g id="node1" class="node"><title>Node1</title>
<polygon fill="#bfbfbf" stroke="black" points="0,-782.5 0,-801.5 42,-801.5 42,-782.5 0,-782.5"/>
<text text-anchor="middle" x="21" y="-789.5" font-family="Helvetica,sans-Serif" font-size="10.00">TEST</text>
</g>
<!-- Node2 -->
<g id="node2" class="node"><title>Node2</title>
<g id="a_node2"><a xlink:href="classpdal_1_1Options.html#a30826da39f9c4716412141eeeb719032" target="_top" xlink:title="pdal::Options::add">
<polygon fill="white" stroke="black" points="458,-827.5 458,-846.5 554,-846.5 554,-827.5 458,-827.5"/>
<text text-anchor="middle" x="506" y="-834.5" font-family="Helvetica,sans-Serif" font-size="10.00">pdal::Options::add</text>
</a>
</g>
</g>
<!-- Node1&#45;&gt;Node2 -->
<g id="edge1" class="edge"><title>Node1&#45;&gt;Node2</title>
<path fill="none" stroke="midnightblue" d="M42.1607,-800.712C79.1349,-816.162 160.646,-847.788 233,-859 303.712,-869.957 322.787,-865.989 394,-859 414.812,-856.957 437.508,-852.81 456.922,-848.661"/>
<polygon fill="midnightblue" stroke="midnightblue" points="457.732,-852.067 466.748,-846.502 456.23,-845.23 457.732,-852.067"/>
</g>
<!-- Node9 -->
<g id="node9" class="node"><title>Node9</title>
<g id="a_node9"><a xlink:href="namespacepdal.html#ac0e59f769b36997868660f0ab25cc397" target="_top" xlink:title="pdal::checkPoint">
<polygon fill="white" stroke="black" points="93,-906.5 93,-925.5 182,-925.5 182,-906.5 93,-906.5"/>
<text text-anchor="middle" x="137.5" y="-913.5" font-family="Helvetica,sans-Serif" font-size="10.00">pdal::checkPoint</text>
</a>
</g>
</g>
<!-- Node1&#45;&gt;Node9 -->
<g id="edge8" class="edge"><title>Node1&#45;&gt;Node9</title>
<path fill="none" stroke="midnightblue" d="M24.9751,-801.643C31.488,-821.261 48.8036,-866.143 78,-892 82.4751,-895.963 87.6932,-899.326 93.1357,-902.165"/>
<polygon fill="midnightblue" stroke="midnightblue" points="91.8704,-905.436 102.416,-906.461 94.8114,-899.084 91.8704,-905.436"/>
</g>
<!-- Node10 -->
<g id="node10" class="node"><title>Node10</title>
<g id="a_node10"><a xlink:href="classSupport.html#a9bbdf6f202f4f2e45e7a53007dd0a238" target="_top" xlink:title="Support::datapath">
<polygon fill="white" stroke="black" points="90.5,-944.5 90.5,-963.5 184.5,-963.5 184.5,-944.5 90.5,-944.5"/>
<text text-anchor="middle" x="137.5" y="-951.5" font-family="Helvetica,sans-Serif" font-size="10.00">Support::datapath</text>
</a>
</g>
</g>
<!-- Node1&#45;&gt;Node10 -->
<g id="edge9" class="edge"><title>Node1&#45;&gt;Node10</title>
<path fill="none" stroke="midnightblue" d="M22.9551,-801.551C26.0106,-827.012 37.8362,-897.147 78,-935 79.6732,-936.577 81.4788,-938.023 83.3826,-939.349"/>
<polygon fill="midnightblue" stroke="midnightblue" points="81.8362,-942.497 92.2535,-944.428 85.3145,-936.422 81.8362,-942.497"/>
</g>
<!-- Node12 -->
<g id="node12" class="node"><title>Node12</title>
<g id="a_node12"><a xlink:href="classpdal_1_1Stage.html#a1615c4aa5ec5e48f90d73f0e7a796935" target="_top" xlink:title="pdal::Stage::execute">
<polygon fill="white" stroke="black" points="84,-673.5 84,-692.5 191,-692.5 191,-673.5 84,-673.5"/>
<text text-anchor="middle" x="137.5" y="-680.5" font-family="Helvetica,sans-Serif" font-size="10.00">pdal::Stage::execute</text>
</a>
</g>
</g>
<!-- Node1&#45;&gt;Node12 -->
<g id="edge11" class="edge"><title>Node1&#45;&gt;Node12</title>
<path fill="none" stroke="midnightblue" d="M32.1611,-782.327C51.6335,-763.79 94.4254,-723.054 118.725,-699.921"/>
<polygon fill="midnightblue" stroke="midnightblue" points="121.367,-702.238 126.197,-692.808 116.541,-697.168 121.367,-702.238"/>
</g>
<!-- Node29 -->
<g id="node29" class="node"><title>Node29</title>
<g id="a_node29"><a xlink:href="classpdal_1_1Stage.html#a4b9296a59f8852b3d08630f1086bfbea" target="_top" xlink:title="pdal::Stage::prepare">
<polygon fill="white" stroke="black" points="85.5,-382.5 85.5,-401.5 189.5,-401.5 189.5,-382.5 85.5,-382.5"/>
<text text-anchor="middle" x="137.5" y="-389.5" font-family="Helvetica,sans-Serif" font-size="10.00">pdal::Stage::prepare</text>
</a>
</g>
</g>
<!-- Node1&#45;&gt;Node29 -->
<g id="edge29" class="edge"><title>Node1&#45;&gt;Node29</title>
<path fill="none" stroke="midnightblue" d="M24.8304,-782.112C39.8672,-729.582 110.473,-482.924 130.932,-411.452"/>
<polygon fill="midnightblue" stroke="midnightblue" points="134.381,-412.119 133.769,-401.542 127.652,-410.193 134.381,-412.119"/>
</g>
<!-- Node50 -->
<g id="node50" class="node"><title>Node50</title>
<g id="a_node50"><a xlink:href="classpdal_1_1Stage.html#acb2434df20f371f1fec9577de3cf0046" target="_top" xlink:title="pdal::Stage::setOptions">
<polygon fill="white" stroke="black" points="78,-344.5 78,-363.5 197,-363.5 197,-344.5 78,-344.5"/>
<text text-anchor="middle" x="137.5" y="-351.5" font-family="Helvetica,sans-Serif" font-size="10.00">pdal::Stage::setOptions</text>
</a>
</g>
</g>
<!-- Node1&#45;&gt;Node50 -->
<g id="edge62" class="edge"><title>Node1&#45;&gt;Node50</title>
<path fill="none" stroke="midnightblue" d="M21.9443,-782.29C21.8124,-725.629 23.8473,-437.974 78,-373 79.0042,-371.795 80.0857,-370.666 81.2323,-369.608"/>
<polygon fill="midnightblue" stroke="midnightblue" points="83.5235,-372.272 89.6167,-363.605 79.4483,-366.581 83.5235,-372.272"/>
</g>
<!-- Node3 -->
<g id="node3" class="node"><title>Node3</title>
<g id="a_node3"><a xlink:href="classpdal_1_1Option.html#aef4422b88464a9cad83b3c11bf1f8cdd" target="_top" xlink:title="pdal::Option::nameValid">
<polygon fill="white" stroke="black" points="627,-788.5 627,-807.5 748,-807.5 748,-788.5 627,-788.5"/>
<text text-anchor="middle" x="687.5" y="-795.5" font-family="Helvetica,sans-Serif" font-size="10.00">pdal::Option::nameValid</text>
</a>
</g>
</g>
<!-- Node2&#45;&gt;Node3 -->
<g id="edge2" class="edge"><title>Node2&#45;&gt;Node3</title>
<path fill="none" stroke="midnightblue" d="M550.911,-827.46C575.558,-822.104 606.511,-815.379 632.618,-809.707"/>
<polygon fill="midnightblue" stroke="midnightblue" points="633.703,-813.053 642.732,-807.509 632.217,-806.213 633.703,-813.053"/>
</g>
<!-- Node8 -->
<g id="node8" class="node"><title>Node8</title>
<g id="a_node8"><a xlink:href="classpdal_1_1Option.html#ad2b7a736742fb343e421fa326ef45c23" target="_top" xlink:title="pdal::Option::getName">
<polygon fill="white" stroke="black" points="630,-711.5 630,-730.5 745,-730.5 745,-711.5 630,-711.5"/>
<text text-anchor="middle" x="687.5" y="-718.5" font-family="Helvetica,sans-Serif" font-size="10.00">pdal::Option::getName</text>
</a>
</g>
</g>
<!-- Node2&#45;&gt;Node8 -->
<g id="edge7" class="edge"><title>Node2&#45;&gt;Node8</title>
<path fill="none" stroke="midnightblue" d="M554.264,-829.44C563.854,-826.713 573.573,-823.014 582,-818 602.272,-805.938 600.967,-795.319 618,-779 633.561,-764.091 652.301,-748.364 666.243,-737.053"/>
<polygon fill="midnightblue" stroke="midnightblue" points="668.633,-739.623 674.232,-730.628 664.246,-734.168 668.633,-739.623"/>
</g>
<!-- Node4 -->
<g id="node4" class="node"><title>Node4</title>
<g id="a_node4"><a xlink:href="classpdal_1_1Option.html#a978a36cf9180d3636ea770988961952b" target="_top" xlink:title="pdal::Option::parse">
<polygon fill="white" stroke="black" points="803,-769.5 803,-788.5 902,-788.5 902,-769.5 803,-769.5"/>
<text text-anchor="middle" x="852.5" y="-776.5" font-family="Helvetica,sans-Serif" font-size="10.00">pdal::Option::parse</text>
</a>
</g>
</g>
<!-- Node3&#45;&gt;Node4 -->
<g id="edge3" class="edge"><title>Node3&#45;&gt;Node4</title>
<path fill="none" stroke="midnightblue" d="M748.27,-791.033C762.746,-789.346 778.209,-787.543 792.643,-785.861"/>
<polygon fill="midnightblue" stroke="midnightblue" points="793.415,-789.294 802.943,-784.66 792.605,-782.341 793.415,-789.294"/>
</g>
<!-- Node7 -->
<g id="node7" class="node"><title>Node7</title>
<g id="a_node7"><a xlink:href="namespacepdal_1_1Utils.html#ada321695f57c876ef51227bdf5b84f7a" target="_top" xlink:title="pdal::Utils::printError">
<polygon fill="white" stroke="black" points="799,-807.5 799,-826.5 906,-826.5 906,-807.5 799,-807.5"/>
<text text-anchor="middle" x="852.5" y="-814.5" font-family="Helvetica,sans-Serif" font-size="10.00">pdal::Utils::printError</text>
</a>
</g>
</g>
<!-- Node3&#45;&gt;Node7 -->
<g id="edge6" class="edge"><title>Node3&#45;&gt;Node7</title>
<path fill="none" stroke="midnightblue" d="M748.27,-804.967C761.447,-806.503 775.442,-808.134 788.734,-809.684"/>
<polygon fill="midnightblue" stroke="midnightblue" points="788.399,-813.168 798.737,-810.85 789.209,-806.215 788.399,-813.168"/>
</g>
<!-- Node5 -->
<g id="node5" class="node"><title>Node5</title>
<g id="a_node5"><a xlink:href="namespacepdal_1_1Utils.html#acae5a19cd66121b77e2599daec48413d" target="_top" xlink:title="pdal::Utils::extract">
<polygon fill="white" stroke="black" points="958,-788.5 958,-807.5 1055,-807.5 1055,-788.5 958,-788.5"/>
<text text-anchor="middle" x="1006.5" y="-795.5" font-family="Helvetica,sans-Serif" font-size="10.00">pdal::Utils::extract</text>
</a>
</g>
</g>
<!-- Node4&#45;&gt;Node5 -->
<g id="edge4" class="edge"><title>Node4&#45;&gt;Node5</title>
<path fill="none" stroke="midnightblue" d="M902.012,-785.064C916.554,-786.882 932.647,-788.893 947.724,-790.778"/>
<polygon fill="midnightblue" stroke="midnightblue" points="947.611,-794.291 957.968,-792.059 948.479,-787.345 947.611,-794.291"/>
</g>
<!-- Node6 -->
<g id="node6" class="node"><title>Node6</title>
<g id="a_node6"><a xlink:href="namespacepdal_1_1Dimension.html#af3176b0b7e6b4be000317846cf7c2718" target="_top" xlink:title="pdal::Dimension::name">
<polygon fill="white" stroke="black" points="948,-750.5 948,-769.5 1065,-769.5 1065,-750.5 948,-750.5"/>
<text text-anchor="middle" x="1006.5" y="-757.5" font-family="Helvetica,sans-Serif" font-size="10.00">pdal::Dimension::name</text>
</a>
</g>
</g>
<!-- Node4&#45;&gt;Node6 -->
<g id="edge5" class="edge"><title>Node4&#45;&gt;Node6</title>
<path fill="none" stroke="midnightblue" d="M902.012,-772.936C913.415,-771.511 925.773,-769.966 937.846,-768.457"/>
<polygon fill="midnightblue" stroke="midnightblue" points="938.404,-771.914 947.893,-767.201 937.536,-764.968 938.404,-771.914"/>
</g>
<!-- Node11 -->
<g id="node11" class="node"><title>Node11</title>
<g id="a_node11"><a xlink:href="namespaceTestConfig.html#a0e622015f0610c2cfcbb3739b972d877" target="_top" xlink:title="TestConfig::dataPath">
<polygon fill="white" stroke="black" points="258.5,-944.5 258.5,-963.5 368.5,-963.5 368.5,-944.5 258.5,-944.5"/>
<text text-anchor="middle" x="313.5" y="-951.5" font-family="Helvetica,sans-Serif" font-size="10.00">TestConfig::dataPath</text>
</a>
</g>
</g>
<!-- Node10&#45;&gt;Node11 -->
<g id="edge10" class="edge"><title>Node10&#45;&gt;Node11</title>
<path fill="none" stroke="midnightblue" d="M184.672,-954C204.139,-954 227.134,-954 248.216,-954"/>
<polygon fill="midnightblue" stroke="midnightblue" points="248.387,-957.5 258.387,-954 248.387,-950.5 248.387,-957.5"/>
</g>
<!-- Node12&#45;&gt;Node12 -->
<g id="edge20" class="edge"><title>Node12&#45;&gt;Node12</title>
<path fill="none" stroke="midnightblue" d="M119.621,-692.757C110.923,-701.565 116.883,-711 137.5,-711 150.386,-711 157.546,-707.315 158.98,-702.4"/>
<polygon fill="midnightblue" stroke="midnightblue" points="162.157,-700.9 155.379,-692.757 155.599,-703.35 162.157,-700.9"/>
</g>
<!-- Node13 -->
<g id="node13" class="node"><title>Node13</title>
<g id="a_node13"><a xlink:href="classpdal_1_1Stage.html#a74cf636cb0f633411e4e40dcd718508a" target="_top" xlink:title="pdal::Stage::startLogging">
<polygon fill="white" stroke="black" points="443.5,-392.5 443.5,-411.5 568.5,-411.5 568.5,-392.5 443.5,-392.5"/>
<text text-anchor="middle" x="506" y="-399.5" font-family="Helvetica,sans-Serif" font-size="10.00">pdal::Stage::startLogging</text>
</a>
</g>
</g>
<!-- Node12&#45;&gt;Node13 -->
<g id="edge12" class="edge"><title>Node12&#45;&gt;Node13</title>
<path fill="none" stroke="midnightblue" d="M152.765,-692.666C194.695,-719.774 319.294,-790.806 394,-732 447.532,-689.861 408.896,-647.777 430,-583 449.776,-522.299 480.868,-453.314 496.053,-420.82"/>
<polygon fill="midnightblue" stroke="midnightblue" points="499.297,-422.147 500.39,-411.609 492.964,-419.165 499.297,-422.147"/>
</g>
<!-- Node20 -->
<g id="node20" class="node"><title>Node20</title>
<g id="a_node20"><a xlink:href="classpdal_1_1BasePointTable.html#a2554cd260c437c9b1e4a017a28a5c7de" target="_top" xlink:title="pdal::BasePointTable\l::finalize">
<polygon fill="white" stroke="black" points="258.5,-693 258.5,-723 368.5,-723 368.5,-693 258.5,-693"/>
<text text-anchor="start" x="266.5" y="-711" font-family="Helvetica,sans-Serif" font-size="10.00">pdal::BasePointTable</text>
<text text-anchor="middle" x="313.5" y="-700" font-family="Helvetica,sans-Serif" font-size="10.00">::finalize</text>
</a>
</g>
</g>
<!-- Node12&#45;&gt;Node20 -->
<g id="edge19" class="edge"><title>Node12&#45;&gt;Node20</title>
<path fill="none" stroke="midnightblue" d="M191.178,-690.569C209.237,-693.163 229.647,-696.096 248.503,-698.805"/>
<polygon fill="midnightblue" stroke="midnightblue" points="248.101,-702.283 258.497,-700.241 249.096,-695.354 248.101,-702.283"/>
</g>
<!-- Node21 -->
<g id="node21" class="node"><title>Node21</title>
<g id="a_node21"><a xlink:href="classpdal_1_1BasePointTable.html#aa3ed63a9e1a8897ccb7dc81a614f6141" target="_top" xlink:title="pdal::BasePointTable\l::clearSpatialReferences">
<polygon fill="white" stroke="black" points="251.5,-644 251.5,-674 375.5,-674 375.5,-644 251.5,-644"/>
<text text-anchor="start" x="259.5" y="-662" font-family="Helvetica,sans-Serif" font-size="10.00">pdal::BasePointTable</text>
<text text-anchor="middle" x="313.5" y="-651" font-family="Helvetica,sans-Serif" font-size="10.00">::clearSpatialReferences</text>
</a>
</g>
</g>
<!-- Node12&#45;&gt;Node21 -->
<g id="edge21" class="edge"><title>Node12&#45;&gt;Node21</title>
<path fill="none" stroke="midnightblue" d="M191.178,-675.734C206.916,-673.563 224.439,-671.146 241.163,-668.84"/>
<polygon fill="midnightblue" stroke="midnightblue" points="242.022,-672.254 251.45,-667.421 241.066,-665.32 242.022,-672.254"/>
</g>
<!-- Node22 -->
<g id="node22" class="node"><title>Node22</title>
<g id="a_node22"><a xlink:href="classpdal_1_1BasePointTable.html#a670592aca912391f1a90073a2031e5e0" target="_top" xlink:title="pdal::BasePointTable\l::addSpatialReference">
<polygon fill="white" stroke="black" points="257,-595 257,-625 370,-625 370,-595 257,-595"/>
<text text-anchor="start" x="265" y="-613" font-family="Helvetica,sans-Serif" font-size="10.00">pdal::BasePointTable</text>
<text text-anchor="middle" x="313.5" y="-602" font-family="Helvetica,sans-Serif" font-size="10.00">::addSpatialReference</text>
</a>
</g>
</g>
<!-- Node12&#45;&gt;Node22 -->
<g id="edge22" class="edge"><title>Node12&#45;&gt;Node22</title>
<path fill="none" stroke="midnightblue" d="M154.788,-673.37C173.28,-662.719 204.577,-645.543 233,-634 237.803,-632.05 242.824,-630.174 247.909,-628.39"/>
<polygon fill="midnightblue" stroke="midnightblue" points="249.367,-631.591 257.723,-625.077 247.129,-624.959 249.367,-631.591"/>
</g>
<!-- Node23 -->
<g id="node23" class="node"><title>Node23</title>
<g id="a_node23"><a xlink:href="classpdal_1_1Stage.html#afb562c59c53ed8120df9106655eb2543" target="_top" xlink:title="pdal::Stage::ready">
<polygon fill="white" stroke="black" points="265.5,-556.5 265.5,-575.5 361.5,-575.5 361.5,-556.5 265.5,-556.5"/>
<text text-anchor="middle" x="313.5" y="-563.5" font-family="Helvetica,sans-Serif" font-size="10.00">pdal::Stage::ready</text>
</a>
</g>
</g>
<!-- Node12&#45;&gt;Node23 -->
<g id="edge23" class="edge"><title>Node12&#45;&gt;Node23</title>
<path fill="none" stroke="midnightblue" d="M144.803,-673.464C158.404,-653.681 192.572,-608.099 233,-585 240.008,-580.996 247.826,-577.833 255.748,-575.336"/>
<polygon fill="midnightblue" stroke="midnightblue" points="256.742,-578.692 265.416,-572.607 254.841,-571.955 256.742,-578.692"/>
</g>
<!-- Node24 -->
<g id="node24" class="node"><title>Node24</title>
<g id="a_node24"><a xlink:href="classpdal_1_1Stage.html#a9889b4446f40daa6f4cd7bfe3c567839" target="_top" xlink:title="pdal::Stage::getSpatialReference">
<polygon fill="white" stroke="black" points="233,-518.5 233,-537.5 394,-537.5 394,-518.5 233,-518.5"/>
<text text-anchor="middle" x="313.5" y="-525.5" font-family="Helvetica,sans-Serif" font-size="10.00">pdal::Stage::getSpatialReference</text>
</a>
</g>
</g>
<!-- Node12&#45;&gt;Node24 -->
<g id="edge24" class="edge"><title>Node12&#45;&gt;Node24</title>
<path fill="none" stroke="midnightblue" d="M142.309,-673.285C152.702,-648.109 184.086,-580.397 233,-547 235.901,-545.02 238.983,-543.244 242.186,-541.654"/>
<polygon fill="midnightblue" stroke="midnightblue" points="243.685,-544.819 251.478,-537.64 240.91,-538.392 243.685,-544.819"/>
</g>
<!-- Node25 -->
<g id="node25" class="node"><title>Node25</title>
<g id="a_node25"><a xlink:href="classpdal_1_1SpatialReference.html#a48fa2f7e79ea172b62ad2e874ff01610" target="_top" xlink:title="pdal::SpatialReference\l::empty">
<polygon fill="white" stroke="black" points="255.5,-781 255.5,-811 371.5,-811 371.5,-781 255.5,-781"/>
<text text-anchor="start" x="263.5" y="-799" font-family="Helvetica,sans-Serif" font-size="10.00">pdal::SpatialReference</text>
<text text-anchor="middle" x="313.5" y="-788" font-family="Helvetica,sans-Serif" font-size="10.00">::empty</text>
</a>
</g>
</g>
<!-- Node12&#45;&gt;Node25 -->
<g id="edge25" class="edge"><title>Node12&#45;&gt;Node25</title>
<path fill="none" stroke="midnightblue" d="M147.26,-692.714C162.972,-709.639 197.619,-744.755 233,-766 239.758,-770.058 247.159,-773.729 254.64,-776.998"/>
<polygon fill="midnightblue" stroke="midnightblue" points="253.538,-780.33 264.116,-780.923 256.216,-773.863 253.538,-780.33"/>
</g>
<!-- Node26 -->
<g id="node26" class="node"><title>Node26</title>
<g id="a_node26"><a xlink:href="classpdal_1_1Stage.html#a1b00532ede55b90a7b6332a2966f5626" target="_top" xlink:title="pdal::Stage::l_done">
<polygon fill="white" stroke="black" points="263,-830.5 263,-849.5 364,-849.5 364,-830.5 263,-830.5"/>
<text text-anchor="middle" x="313.5" y="-837.5" font-family="Helvetica,sans-Serif" font-size="10.00">pdal::Stage::l_done</text>
</a>
</g>
</g>
<!-- Node12&#45;&gt;Node26 -->
<g id="edge26" class="edge"><title>Node12&#45;&gt;Node26</title>
<path fill="none" stroke="midnightblue" d="M142.31,-692.753C152.708,-718.033 184.101,-786.062 233,-820 239.029,-824.184 245.854,-827.494 252.911,-830.112"/>
<polygon fill="midnightblue" stroke="midnightblue" points="252.031,-833.507 262.623,-833.271 254.196,-826.85 252.031,-833.507"/>
</g>
<!-- Node28 -->
<g id="node28" class="node"><title>Node28</title>
<g id="a_node28"><a xlink:href="classpdal_1_1Stage.html#ae49e996fe285350923a3bf44d027adad" target="_top" xlink:title="pdal::Stage::stopLogging">
<polygon fill="white" stroke="black" points="251,-480.5 251,-499.5 376,-499.5 376,-480.5 251,-480.5"/>
<text text-anchor="middle" x="313.5" y="-487.5" font-family="Helvetica,sans-Serif" font-size="10.00">pdal::Stage::stopLogging</text>
</a>
</g>
</g>
<!-- Node12&#45;&gt;Node28 -->
<g id="edge28" class="edge"><title>Node12&#45;&gt;Node28</title>
<path fill="none" stroke="midnightblue" d="M140.789,-673.275C148.309,-643.567 175.157,-553.332 233,-509 235.647,-506.971 238.478,-505.155 241.436,-503.529"/>
<polygon fill="midnightblue" stroke="midnightblue" points="243.08,-506.624 250.64,-499.201 240.101,-500.289 243.08,-506.624"/>
</g>
<!-- Node14 -->
<g id="node14" class="node"><title>Node14</title>
<g id="a_node14"><a xlink:href="classpdal_1_1gdal_1_1ErrorHandler.html#a56e0125595a43bf3b0cbd0b9a4bc55ea" target="_top" xlink:title="pdal::gdal::ErrorHandler\l::getGlobalErrorHandler">
<polygon fill="white" stroke="black" points="628,-355 628,-385 747,-385 747,-355 628,-355"/>
<text text-anchor="start" x="636" y="-373" font-family="Helvetica,sans-Serif" font-size="10.00">pdal::gdal::ErrorHandler</text>
<text text-anchor="middle" x="687.5" y="-362" font-family="Helvetica,sans-Serif" font-size="10.00">::getGlobalErrorHandler</text>
</a>
</g>
</g>
<!-- Node13&#45;&gt;Node14 -->
<g id="edge13" class="edge"><title>Node13&#45;&gt;Node14</title>
<path fill="none" stroke="midnightblue" d="M560.37,-392.486C578.328,-389.284 598.625,-385.666 617.605,-382.282"/>
<polygon fill="midnightblue" stroke="midnightblue" points="618.459,-385.685 627.689,-380.484 617.23,-378.794 618.459,-385.685"/>
</g>
<!-- Node16 -->
<g id="node16" class="node"><title>Node16</title>
<g id="a_node16"><a xlink:href="classpdal_1_1gdal_1_1ErrorHandler.html#ace1cff928ab179f671181ebaf4d280a4" target="_top" xlink:title="pdal::gdal::ErrorHandler::set">
<polygon fill="white" stroke="black" points="618,-316.5 618,-335.5 757,-335.5 757,-316.5 618,-316.5"/>
<text text-anchor="middle" x="687.5" y="-323.5" font-family="Helvetica,sans-Serif" font-size="10.00">pdal::gdal::ErrorHandler::set</text>
</a>
</g>
</g>
<!-- Node13&#45;&gt;Node16 -->
<g id="edge15" class="edge"><title>Node13&#45;&gt;Node16</title>
<path fill="none" stroke="midnightblue" d="M560.528,-392.426C568.013,-389.962 575.395,-386.872 582,-383 602.07,-371.234 598.064,-356.991 618,-345 621.629,-342.817 625.515,-340.879 629.526,-339.157"/>
<polygon fill="midnightblue" stroke="midnightblue" points="630.95,-342.36 639.044,-335.524 628.453,-335.82 630.95,-342.36"/>
</g>
<!-- Node19 -->
<g id="node19" class="node"><title>Node19</title>
<g id="a_node19"><a xlink:href="classpdal_1_1Stage.html#aec4fb27c40bb4b032ff003a89a950dd4" target="_top" xlink:title="pdal::Stage::isDebug">
<polygon fill="white" stroke="black" points="633.5,-404.5 633.5,-423.5 741.5,-423.5 741.5,-404.5 633.5,-404.5"/>
<text text-anchor="middle" x="687.5" y="-411.5" font-family="Helvetica,sans-Serif" font-size="10.00">pdal::Stage::isDebug</text>
</a>
</g>
</g>
<!-- Node13&#45;&gt;Node19 -->
<g id="edge18" class="edge"><title>Node13&#45;&gt;Node19</title>
<path fill="none" stroke="midnightblue" d="M568.523,-406.113C586.169,-407.293 605.436,-408.581 623.188,-409.767"/>
<polygon fill="midnightblue" stroke="midnightblue" points="623.23,-413.278 633.441,-410.453 623.697,-406.294 623.23,-413.278"/>
</g>
<!-- Node15 -->
<g id="node15" class="node"><title>Node15</title>
<g id="a_node15"><a xlink:href="classpdal_1_1gdal_1_1ErrorHandler.html#a73215504640551589024d36018f81d33" target="_top" xlink:title="pdal::gdal::ErrorHandler\l::ErrorHandler">
<polygon fill="white" stroke="red" points="793,-360 793,-390 912,-390 912,-360 793,-360"/>
<text text-anchor="start" x="801" y="-378" font-family="Helvetica,sans-Serif" font-size="10.00">pdal::gdal::ErrorHandler</text>
<text text-anchor="middle" x="852.5" y="-367" font-family="Helvetica,sans-Serif" font-size="10.00">::ErrorHandler</text>
</a>
</g>
</g>
<!-- Node14&#45;&gt;Node15 -->
<g id="edge14" class="edge"><title>Node14&#45;&gt;Node15</title>
<path fill="none" stroke="midnightblue" d="M747.347,-371.805C758.773,-372.156 770.844,-372.526 782.56,-372.885"/>
<polygon fill="midnightblue" stroke="midnightblue" points="782.637,-376.389 792.74,-373.198 782.852,-369.392 782.637,-376.389"/>
</g>
<!-- Node17 -->
<g id="node17" class="node"><title>Node17</title>
<g id="a_node17"><a xlink:href="classpdal_1_1gdal_1_1ErrorHandler.html#abe7fbf19bfcfbb0be1c8ae934bd5c9d2" target="_top" xlink:title="pdal::gdal::ErrorHandler\l::setLog">
<polygon fill="white" stroke="black" points="793,-262 793,-292 912,-292 912,-262 793,-262"/>
<text text-anchor="start" x="801" y="-280" font-family="Helvetica,sans-Serif" font-size="10.00">pdal::gdal::ErrorHandler</text>
<text text-anchor="middle" x="852.5" y="-269" font-family="Helvetica,sans-Serif" font-size="10.00">::setLog</text>
</a>
</g>
</g>
<!-- Node16&#45;&gt;Node17 -->
<g id="edge16" class="edge"><title>Node16&#45;&gt;Node17</title>
<path fill="none" stroke="midnightblue" d="M723.771,-316.484C734.468,-313.526 746.235,-310.2 757,-307 769.368,-303.323 782.596,-299.227 795.119,-295.273"/>
<polygon fill="midnightblue" stroke="midnightblue" points="796.508,-298.504 804.981,-292.143 794.391,-291.832 796.508,-298.504"/>
</g>
<!-- Node18 -->
<g id="node18" class="node"><title>Node18</title>
<g id="a_node18"><a xlink:href="classpdal_1_1gdal_1_1ErrorHandler.html#a61ea2c53f778817785d39cd9fc6a81a6" target="_top" xlink:title="pdal::gdal::ErrorHandler\l::setDebug">
<polygon fill="white" stroke="black" points="793,-311 793,-341 912,-341 912,-311 793,-311"/>
<text text-anchor="start" x="801" y="-329" font-family="Helvetica,sans-Serif" font-size="10.00">pdal::gdal::ErrorHandler</text>
<text text-anchor="middle" x="852.5" y="-318" font-family="Helvetica,sans-Serif" font-size="10.00">::setDebug</text>
</a>
</g>
</g>
<!-- Node16&#45;&gt;Node18 -->
<g id="edge17" class="edge"><title>Node16&#45;&gt;Node18</title>
<path fill="none" stroke="midnightblue" d="M757.154,-326C765.628,-326 774.293,-326 782.768,-326"/>
<polygon fill="midnightblue" stroke="midnightblue" points="782.987,-329.5 792.987,-326 782.987,-322.5 782.987,-329.5"/>
</g>
<!-- Node27 -->
<g id="node27" class="node"><title>Node27</title>
<g id="a_node27"><a xlink:href="classpdal_1_1Stage.html#a2444e73dc41bfc0b94981909595ef2ca" target="_top" xlink:title="pdal::Stage::done">
<polygon fill="white" stroke="black" points="459.5,-789.5 459.5,-808.5 552.5,-808.5 552.5,-789.5 459.5,-789.5"/>
<text text-anchor="middle" x="506" y="-796.5" font-family="Helvetica,sans-Serif" font-size="10.00">pdal::Stage::done</text>
</a>
</g>
</g>
<!-- Node26&#45;&gt;Node27 -->
<g id="edge27" class="edge"><title>Node26&#45;&gt;Node27</title>
<path fill="none" stroke="midnightblue" d="M358.683,-830.491C386.115,-824.587 421.569,-816.956 450.707,-810.685"/>
<polygon fill="midnightblue" stroke="midnightblue" points="451.687,-814.054 460.727,-808.529 450.214,-807.211 451.687,-814.054"/>
</g>
<!-- Node29&#45;&gt;Node13 -->
<g id="edge51" class="edge"><title>Node29&#45;&gt;Node13</title>
<path fill="none" stroke="midnightblue" d="M181.1,-382.453C186.818,-379.985 192.316,-376.887 197,-373 222.711,-351.661 204.268,-324.056 233,-307 294.531,-270.473 333.535,-268.736 394,-307 425.583,-326.987 401.133,-359.259 430,-383 432.042,-384.68 434.214,-386.214 436.484,-387.614"/>
<polygon fill="midnightblue" stroke="midnightblue" points="435.165,-390.873 445.652,-392.38 438.393,-384.662 435.165,-390.873"/>
</g>
<!-- Node29&#45;&gt;Node28 -->
<g id="edge61" class="edge"><title>Node29&#45;&gt;Node28</title>
<path fill="none" stroke="midnightblue" d="M147.109,-401.674C162.587,-418.445 196.884,-452.861 233,-471 237.835,-473.428 242.993,-475.555 248.27,-477.415"/>
<polygon fill="midnightblue" stroke="midnightblue" points="247.264,-480.768 257.855,-480.485 249.399,-474.102 247.264,-480.768"/>
</g>
<!-- Node29&#45;&gt;Node29 -->
<g id="edge30" class="edge"><title>Node29&#45;&gt;Node29</title>
<path fill="none" stroke="midnightblue" d="M119.621,-401.757C110.923,-410.565 116.883,-420 137.5,-420 150.386,-420 157.546,-416.315 158.98,-411.4"/>
<polygon fill="midnightblue" stroke="midnightblue" points="162.157,-409.9 155.379,-401.757 155.599,-412.35 162.157,-409.9"/>
</g>
<!-- Node30 -->
<g id="node30" class="node"><title>Node30</title>
<g id="a_node30"><a xlink:href="classpdal_1_1Stage.html#a75f17f9b67f48f6aab1d98aadefc4d5c" target="_top" xlink:title="pdal::Stage::handleOptions">
<polygon fill="white" stroke="black" points="246.5,-240.5 246.5,-259.5 380.5,-259.5 380.5,-240.5 246.5,-240.5"/>
<text text-anchor="middle" x="313.5" y="-247.5" font-family="Helvetica,sans-Serif" font-size="10.00">pdal::Stage::handleOptions</text>
</a>
</g>
</g>
<!-- Node29&#45;&gt;Node30 -->
<g id="edge31" class="edge"><title>Node29&#45;&gt;Node30</title>
<path fill="none" stroke="midnightblue" d="M183.131,-382.382C188.221,-379.932 193.006,-376.858 197,-373 230.676,-340.474 198.987,-306.173 233,-274 237.294,-269.938 242.252,-266.561 247.551,-263.755"/>
<polygon fill="midnightblue" stroke="midnightblue" points="249.099,-266.896 256.734,-259.55 246.184,-260.532 249.099,-266.896"/>
</g>
<!-- Node42 -->
<g id="node42" class="node"><title>Node42</title>
<g id="a_node42"><a xlink:href="classpdal_1_1Stage.html#a6c85dfbf6a674dbc2eda76a79efada48" target="_top" xlink:title="pdal::Stage::l_initialize">
<polygon fill="white" stroke="black" points="256,-82.5 256,-101.5 371,-101.5 371,-82.5 256,-82.5"/>
<text text-anchor="middle" x="313.5" y="-89.5" font-family="Helvetica,sans-Serif" font-size="10.00">pdal::Stage::l_initialize</text>
</a>
</g>
</g>
<!-- Node29&#45;&gt;Node42 -->
<g id="edge52" class="edge"><title>Node29&#45;&gt;Node42</title>
<path fill="none" stroke="midnightblue" d="M184.088,-382.462C188.895,-379.997 193.351,-376.897 197,-373 241.5,-325.474 208.614,-291.368 233,-231 251.547,-185.086 282.773,-135.77 300.055,-110.016"/>
<polygon fill="midnightblue" stroke="midnightblue" points="303.018,-111.882 305.741,-101.643 297.227,-107.949 303.018,-111.882"/>
</g>
<!-- Node46 -->
<g id="node46" class="node"><title>Node46</title>
<g id="a_node46"><a xlink:href="classpdal_1_1Stage.html#a5b422f842a6374b448439df99fe6e07e" target="_top" xlink:title="pdal::Stage::initialize">
<polygon fill="white" stroke="black" points="260,-442.5 260,-461.5 367,-461.5 367,-442.5 260,-442.5"/>
<text text-anchor="middle" x="313.5" y="-449.5" font-family="Helvetica,sans-Serif" font-size="10.00">pdal::Stage::initialize</text>
</a>
</g>
</g>
<!-- Node29&#45;&gt;Node46 -->
<g id="edge57" class="edge"><title>Node29&#45;&gt;Node46</title>
<path fill="none" stroke="midnightblue" d="M158.017,-401.666C176.857,-410.707 206.365,-424.115 233,-433 240.477,-435.494 248.453,-437.801 256.358,-439.883"/>
<polygon fill="midnightblue" stroke="midnightblue" points="255.738,-443.337 266.291,-442.399 257.457,-436.551 255.738,-443.337"/>
</g>
<!-- Node47 -->
<g id="node47" class="node"><title>Node47</title>
<g id="a_node47"><a xlink:href="classpdal_1_1Stage.html#a7ec627c76e1c30fc53780bd81d08d4ad" target="_top" xlink:title="pdal::Stage::addDimensions">
<polygon fill="white" stroke="black" points="243.5,-404.5 243.5,-423.5 383.5,-423.5 383.5,-404.5 243.5,-404.5"/>
<text text-anchor="middle" x="313.5" y="-411.5" font-family="Helvetica,sans-Serif" font-size="10.00">pdal::Stage::addDimensions</text>
</a>
</g>
</g>
<!-- Node29&#45;&gt;Node47 -->
<g id="edge58" class="edge"><title>Node29&#45;&gt;Node47</title>
<path fill="none" stroke="midnightblue" d="M189.765,-398.482C203.367,-400.202 218.379,-402.1 233.1,-403.961"/>
<polygon fill="midnightblue" stroke="midnightblue" points="232.863,-407.459 243.223,-405.241 233.741,-400.514 232.863,-407.459"/>
</g>
<!-- Node48 -->
<g id="node48" class="node"><title>Node48</title>
<g id="a_node48"><a xlink:href="classpdal_1_1BasePointTable.html#a7e3a12a1f29e6cd10d8669ed3d07eb94" target="_top" xlink:title="pdal::BasePointTable\l::layout">
<polygon fill="white" stroke="black" points="258.5,-355 258.5,-385 368.5,-385 368.5,-355 258.5,-355"/>
<text text-anchor="start" x="266.5" y="-373" font-family="Helvetica,sans-Serif" font-size="10.00">pdal::BasePointTable</text>
<text text-anchor="middle" x="313.5" y="-362" font-family="Helvetica,sans-Serif" font-size="10.00">::layout</text>
</a>
</g>
</g>
<!-- Node29&#45;&gt;Node48 -->
<g id="edge59" class="edge"><title>Node29&#45;&gt;Node48</title>
<path fill="none" stroke="midnightblue" d="M189.765,-385.518C208.118,-383.198 229.04,-380.552 248.346,-378.111"/>
<polygon fill="midnightblue" stroke="midnightblue" points="248.791,-381.583 258.273,-376.856 247.913,-374.638 248.791,-381.583"/>
</g>
<!-- Node49 -->
<g id="node49" class="node"><title>Node49</title>
<g id="a_node49"><a xlink:href="classpdal_1_1Stage.html#affff6bc9dbff793d074d76333c5732dd" target="_top" xlink:title="pdal::Stage::prepared">
<polygon fill="white" stroke="black" points="258.5,-316.5 258.5,-335.5 368.5,-335.5 368.5,-316.5 258.5,-316.5"/>
<text text-anchor="middle" x="313.5" y="-323.5" font-family="Helvetica,sans-Serif" font-size="10.00">pdal::Stage::prepared</text>
</a>
</g>
</g>
<!-- Node29&#45;&gt;Node49 -->
<g id="edge60" class="edge"><title>Node29&#45;&gt;Node49</title>
<path fill="none" stroke="midnightblue" d="M174.576,-382.458C182.185,-379.851 190.019,-376.702 197,-373 214.908,-363.505 214.729,-353.777 233,-345 238.037,-342.581 243.405,-340.456 248.883,-338.593"/>
<polygon fill="midnightblue" stroke="midnightblue" points="250.3,-341.818 258.815,-335.514 248.227,-335.132 250.3,-341.818"/>
</g>
<!-- Node31 -->
<g id="node31" class="node"><title>Node31</title>
<g id="a_node31"><a xlink:href="classpdal_1_1Stage.html#a75ff99f7b665c6573e304ed4148dd99e" target="_top" xlink:title="pdal::Stage::addAllArgs">
<polygon fill="white" stroke="black" points="446.5,-126.5 446.5,-145.5 565.5,-145.5 565.5,-126.5 446.5,-126.5"/>
<text text-anchor="middle" x="506" y="-133.5" font-family="Helvetica,sans-Serif" font-size="10.00">pdal::Stage::addAllArgs</text>
</a>
</g>
</g>
<!-- Node30&#45;&gt;Node31 -->
<g id="edge32" class="edge"><title>Node30&#45;&gt;Node31</title>
<path fill="none" stroke="midnightblue" d="M330.414,-240.477C363.612,-220.61 440.453,-174.626 480.196,-150.844"/>
<polygon fill="midnightblue" stroke="midnightblue" points="482.213,-153.715 488.997,-145.577 478.619,-147.708 482.213,-153.715"/>
</g>
<!-- Node34 -->
<g id="node34" class="node"><title>Node34</title>
<g id="a_node34"><a xlink:href="classpdal_1_1Stage.html#a6c81d6fbbac17ebe4cd63806916cc750" target="_top" xlink:title="pdal::Stage::getName">
<polygon fill="white" stroke="black" points="631.5,-183.5 631.5,-202.5 743.5,-202.5 743.5,-183.5 631.5,-183.5"/>
<text text-anchor="middle" x="687.5" y="-190.5" font-family="Helvetica,sans-Serif" font-size="10.00">pdal::Stage::getName</text>
</a>
</g>
</g>
<!-- Node30&#45;&gt;Node34 -->
<g id="edge45" class="edge"><title>Node30&#45;&gt;Node34</title>
<path fill="none" stroke="midnightblue" d="M371.161,-240.494C389.884,-237.402 410.826,-233.997 430,-231 495.048,-220.832 569.488,-209.88 621.359,-202.358"/>
<polygon fill="midnightblue" stroke="midnightblue" points="622.027,-205.797 631.422,-200.9 621.024,-198.87 622.027,-205.797"/>
</g>
<!-- Node35 -->
<g id="node35" class="node"><title>Node35</title>
<g id="a_node35"><a xlink:href="classpdal_1_1Options.html#a99aa4c0c7ba443d584f741d22d37f6a5" target="_top" xlink:title="pdal::Options::getValues">
<polygon fill="white" stroke="black" points="444,-354.5 444,-373.5 568,-373.5 568,-354.5 444,-354.5"/>
<text text-anchor="middle" x="506" y="-361.5" font-family="Helvetica,sans-Serif" font-size="10.00">pdal::Options::getValues</text>
</a>
</g>
</g>
<!-- Node30&#45;&gt;Node35 -->
<g id="edge36" class="edge"><title>Node30&#45;&gt;Node35</title>
<path fill="none" stroke="midnightblue" d="M367.994,-259.633C377.353,-263.059 386.485,-267.704 394,-274 421.12,-296.721 402.375,-322.896 430,-345 432.186,-346.749 434.513,-348.339 436.944,-349.785"/>
<polygon fill="midnightblue" stroke="midnightblue" points="435.628,-353.041 446.134,-354.413 438.777,-346.789 435.628,-353.041"/>
</g>
<!-- Node36 -->
<g id="node36" class="node"><title>Node36</title>
<g id="a_node36"><a xlink:href="classpdal_1_1Options.html#aab2dd4f9208512ad8c38a71ad9d2c98b" target="_top" xlink:title="pdal::Options::addConditional">
<polygon fill="white" stroke="black" points="433.5,-711.5 433.5,-730.5 578.5,-730.5 578.5,-711.5 433.5,-711.5"/>
<text text-anchor="middle" x="506" y="-718.5" font-family="Helvetica,sans-Serif" font-size="10.00">pdal::Options::addConditional</text>
</a>
</g>
</g>
<!-- Node30&#45;&gt;Node36 -->
<g id="edge37" class="edge"><title>Node30&#45;&gt;Node36</title>
<path fill="none" stroke="midnightblue" d="M336.724,-259.56C355.344,-268.824 380.918,-284.746 394,-307 465.189,-428.095 378.05,-490.49 430,-621 443.074,-653.844 469.876,-685.379 487.642,-703.973"/>
<polygon fill="midnightblue" stroke="midnightblue" points="485.363,-706.647 494.862,-711.339 490.363,-701.748 485.363,-706.647"/>
</g>
<!-- Node37 -->
<g id="node37" class="node"><title>Node37</title>
<g id="a_node37"><a xlink:href="classpdal_1_1Options.html#a541bdbfe72511dad8a22236f0a3cb2ab" target="_top" xlink:title="pdal::Options::fromFile">
<polygon fill="white" stroke="red" points="448,-278.5 448,-297.5 564,-297.5 564,-278.5 448,-278.5"/>
<text text-anchor="middle" x="506" y="-285.5" font-family="Helvetica,sans-Serif" font-size="10.00">pdal::Options::fromFile</text>
</a>
</g>
</g>
<!-- Node30&#45;&gt;Node37 -->
<g id="edge40" class="edge"><title>Node30&#45;&gt;Node37</title>
<path fill="none" stroke="midnightblue" d="M362.571,-259.589C388.276,-264.716 420.113,-271.067 447.164,-276.463"/>
<polygon fill="midnightblue" stroke="midnightblue" points="446.783,-279.956 457.274,-278.48 448.152,-273.091 446.783,-279.956"/>
</g>
<!-- Node39 -->
<g id="node39" class="node"><title>Node39</title>
<g id="a_node39"><a xlink:href="classpdal_1_1Options.html#a0d9ebe7f77b36dea85b51eb0098a5df0" target="_top" xlink:title="pdal::Options::remove">
<polygon fill="white" stroke="black" points="449.5,-592.5 449.5,-611.5 562.5,-611.5 562.5,-592.5 449.5,-592.5"/>
<text text-anchor="middle" x="506" y="-599.5" font-family="Helvetica,sans-Serif" font-size="10.00">pdal::Options::remove</text>
</a>
</g>
</g>
<!-- Node30&#45;&gt;Node39 -->
<g id="edge42" class="edge"><title>Node30&#45;&gt;Node39</title>
<path fill="none" stroke="midnightblue" d="M334.644,-259.664C352.664,-269.288 378.549,-285.688 394,-307 425.188,-350.017 411.813,-371.077 430,-421 451.852,-480.985 481.976,-550.304 496.497,-583.027"/>
<polygon fill="midnightblue" stroke="midnightblue" points="493.365,-584.598 500.633,-592.308 499.759,-581.749 493.365,-584.598"/>
</g>
<!-- Node40 -->
<g id="node40" class="node"><title>Node40</title>
<g id="a_node40"><a xlink:href="classpdal_1_1Options.html#afb18dcc4f3883b8413171db00482959c" target="_top" xlink:title="pdal::Options::toCommandLine">
<polygon fill="white" stroke="red" points="430,-240.5 430,-259.5 582,-259.5 582,-240.5 430,-240.5"/>
<text text-anchor="middle" x="506" y="-247.5" font-family="Helvetica,sans-Serif" font-size="10.00">pdal::Options::toCommandLine</text>
</a>
</g>
</g>
<!-- Node30&#45;&gt;Node40 -->
<g id="edge44" class="edge"><title>Node30&#45;&gt;Node40</title>
<path fill="none" stroke="midnightblue" d="M380.593,-250C393.267,-250 406.703,-250 419.878,-250"/>
<polygon fill="midnightblue" stroke="midnightblue" points="419.885,-253.5 429.885,-250 419.885,-246.5 419.885,-253.5"/>
</g>
<!-- Node41 -->
<g id="node41" class="node"><title>Node41</title>
<g id="a_node41"><a xlink:href="classpdal_1_1Stage.html#ab94db25b14b94de1f62f9738327accd2" target="_top" xlink:title="pdal::Stage::setupLog">
<polygon fill="white" stroke="black" points="450,-316.5 450,-335.5 562,-335.5 562,-316.5 450,-316.5"/>
<text text-anchor="middle" x="506" y="-323.5" font-family="Helvetica,sans-Serif" font-size="10.00">pdal::Stage::setupLog</text>
</a>
</g>
</g>
<!-- Node30&#45;&gt;Node41 -->
<g id="edge46" class="edge"><title>Node30&#45;&gt;Node41</title>
<path fill="none" stroke="midnightblue" d="M358.858,-259.579C370.718,-263.144 383.225,-267.865 394,-274 412.862,-284.739 410.901,-296.689 430,-307 434.281,-309.311 438.852,-311.349 443.545,-313.144"/>
<polygon fill="midnightblue" stroke="midnightblue" points="442.701,-316.555 453.296,-316.498 444.978,-309.935 442.701,-316.555"/>
</g>
<!-- Node32 -->
<g id="node32" class="node"><title>Node32</title>
<g id="a_node32"><a xlink:href="classpdal_1_1Stage.html#ae89a62fb39c52a2067fc318359065625" target="_top" xlink:title="pdal::Stage::l_addArgs">
<polygon fill="white" stroke="red" points="629.5,-98.5 629.5,-117.5 745.5,-117.5 745.5,-98.5 629.5,-98.5"/>
<text text-anchor="middle" x="687.5" y="-105.5" font-family="Helvetica,sans-Serif" font-size="10.00">pdal::Stage::l_addArgs</text>
</a>
</g>
</g>
<!-- Node31&#45;&gt;Node32 -->
<g id="edge33" class="edge"><title>Node31&#45;&gt;Node32</title>
<path fill="none" stroke="midnightblue" d="M565.775,-126.832C582.869,-124.165 601.672,-121.232 619.245,-118.491"/>
<polygon fill="midnightblue" stroke="midnightblue" points="620.087,-121.902 629.428,-116.903 619.008,-114.986 620.087,-121.902"/>
</g>
<!-- Node33 -->
<g id="node33" class="node"><title>Node33</title>
<g id="a_node33"><a xlink:href="classpdal_1_1Stage.html#a3f15d8fc5456be812aafc84000d8e621" target="_top" xlink:title="pdal::Stage::addArgs">
<polygon fill="white" stroke="black" points="633.5,-136.5 633.5,-155.5 741.5,-155.5 741.5,-136.5 633.5,-136.5"/>
<text text-anchor="middle" x="687.5" y="-143.5" font-family="Helvetica,sans-Serif" font-size="10.00">pdal::Stage::addArgs</text>
</a>
</g>
</g>
<!-- Node31&#45;&gt;Node33 -->
<g id="edge34" class="edge"><title>Node31&#45;&gt;Node33</title>
<path fill="none" stroke="midnightblue" d="M565.775,-139.274C584.15,-140.298 604.5,-141.432 623.175,-142.472"/>
<polygon fill="midnightblue" stroke="midnightblue" points="623.174,-145.977 633.354,-143.039 623.564,-138.988 623.174,-145.977"/>
</g>
<!-- Node31&#45;&gt;Node34 -->
<g id="edge35" class="edge"><title>Node31&#45;&gt;Node34</title>
<path fill="none" stroke="midnightblue" d="M537.044,-145.541C567.073,-155.076 613.42,-169.794 646.537,-180.31"/>
<polygon fill="midnightblue" stroke="midnightblue" points="645.767,-183.738 656.358,-183.428 647.886,-177.066 645.767,-183.738"/>
</g>
<!-- Node36&#45;&gt;Node3 -->
<g id="edge38" class="edge"><title>Node36&#45;&gt;Node3</title>
<path fill="none" stroke="midnightblue" d="M529.371,-730.596C560.898,-744.12 618.565,-768.858 654.584,-784.309"/>
<polygon fill="midnightblue" stroke="midnightblue" points="653.56,-787.678 664.13,-788.404 656.32,-781.245 653.56,-787.678"/>
</g>
<!-- Node36&#45;&gt;Node8 -->
<g id="edge39" class="edge"><title>Node36&#45;&gt;Node8</title>
<path fill="none" stroke="midnightblue" d="M578.717,-721C592.257,-721 606.368,-721 619.748,-721"/>
<polygon fill="midnightblue" stroke="midnightblue" points="619.816,-724.5 629.816,-721 619.816,-717.5 619.816,-724.5"/>
</g>
<!-- Node38 -->
<g id="node38" class="node"><title>Node38</title>
<g id="a_node38"><a xlink:href="namespacepdal_1_1FileUtils.html#ae2b8f1ddc38b0033b685a0bde6106ba1" target="_top" xlink:title="pdal::FileUtils::fileExists">
<polygon fill="white" stroke="red" points="626,-278.5 626,-297.5 749,-297.5 749,-278.5 626,-278.5"/>
<text text-anchor="middle" x="687.5" y="-285.5" font-family="Helvetica,sans-Serif" font-size="10.00">pdal::FileUtils::fileExists</text>
</a>
</g>
</g>
<!-- Node37&#45;&gt;Node38 -->
<g id="edge41" class="edge"><title>Node37&#45;&gt;Node38</title>
<path fill="none" stroke="midnightblue" d="M564.288,-288C580.517,-288 598.382,-288 615.324,-288"/>
<polygon fill="midnightblue" stroke="midnightblue" points="615.73,-291.5 625.73,-288 615.73,-284.5 615.73,-291.5"/>
</g>
<!-- Node39&#45;&gt;Node8 -->
<g id="edge43" class="edge"><title>Node39&#45;&gt;Node8</title>
<path fill="none" stroke="midnightblue" d="M521.386,-611.537C552.37,-632.078 625.645,-680.656 663.29,-705.613"/>
<polygon fill="midnightblue" stroke="midnightblue" points="661.777,-708.809 672.046,-711.417 665.645,-702.975 661.777,-708.809"/>
</g>
<!-- Node41&#45;&gt;Node14 -->
<g id="edge48" class="edge"><title>Node41&#45;&gt;Node14</title>
<path fill="none" stroke="midnightblue" d="M545.949,-335.547C566.974,-340.701 593.544,-347.214 617.909,-353.187"/>
<polygon fill="midnightblue" stroke="midnightblue" points="617.288,-356.638 627.834,-355.619 618.955,-349.839 617.288,-356.638"/>
</g>
<!-- Node41&#45;&gt;Node16 -->
<g id="edge49" class="edge"><title>Node41&#45;&gt;Node16</title>
<path fill="none" stroke="midnightblue" d="M562.321,-326C576.549,-326 592.138,-326 607.318,-326"/>
<polygon fill="midnightblue" stroke="midnightblue" points="607.74,-329.5 617.74,-326 607.74,-322.5 607.74,-329.5"/>
</g>
<!-- Node41&#45;&gt;Node19 -->
<g id="edge50" class="edge"><title>Node41&#45;&gt;Node19</title>
<path fill="none" stroke="midnightblue" d="M562.159,-335.253C569.168,-337.761 575.984,-340.949 582,-345 604.415,-360.094 595.86,-378.505 618,-394 621.483,-396.437 625.263,-398.581 629.197,-400.465"/>
<polygon fill="midnightblue" stroke="midnightblue" points="628.016,-403.765 638.592,-404.408 630.725,-397.311 628.016,-403.765"/>
</g>
<!-- Node41&#45;&gt;Node34 -->
<g id="edge47" class="edge"><title>Node41&#45;&gt;Node34</title>
<path fill="none" stroke="midnightblue" d="M560.979,-316.393C568.321,-313.937 575.542,-310.858 582,-307 584.777,-305.341 642.628,-241.538 671.034,-210.123"/>
<polygon fill="midnightblue" stroke="midnightblue" points="673.775,-212.31 677.883,-202.545 668.581,-207.617 673.775,-212.31"/>
</g>
<!-- Node42&#45;&gt;Node34 -->
<g id="edge55" class="edge"><title>Node42&#45;&gt;Node34</title>
<path fill="none" stroke="midnightblue" d="M328.338,-101.673C349.293,-115.813 390.798,-141.869 430,-155 492.929,-176.079 568.442,-185.482 621.176,-189.667"/>
<polygon fill="midnightblue" stroke="midnightblue" points="621.175,-193.176 631.409,-190.436 621.7,-186.196 621.175,-193.176"/>
</g>
<!-- Node43 -->
<g id="node43" class="node"><title>Node43</title>
<g id="a_node43"><a xlink:href="classpdal_1_1BasePointTable.html#a03429472e71e5dd323bc92319f4a9df6" target="_top" xlink:title="pdal::BasePointTable\l::metadata">
<polygon fill="white" stroke="black" points="451,-77 451,-107 561,-107 561,-77 451,-77"/>
<text text-anchor="start" x="459" y="-95" font-family="Helvetica,sans-Serif" font-size="10.00">pdal::BasePointTable</text>
<text text-anchor="middle" x="506" y="-84" font-family="Helvetica,sans-Serif" font-size="10.00">::metadata</text>
</a>
</g>
</g>
<!-- Node42&#45;&gt;Node43 -->
<g id="edge53" class="edge"><title>Node42&#45;&gt;Node43</title>
<path fill="none" stroke="midnightblue" d="M371.141,-92C393.016,-92 418.161,-92 440.71,-92"/>
<polygon fill="midnightblue" stroke="midnightblue" points="440.866,-95.5001 450.866,-92 440.866,-88.5001 440.866,-95.5001"/>
</g>
<!-- Node44 -->
<g id="node44" class="node"><title>Node44</title>
<g id="a_node44"><a xlink:href="classpdal_1_1MetadataNode.html#af2c1c5d91f6ab47a804aa8a0a1b043c2" target="_top" xlink:title="pdal::MetadataNode::add">
<polygon fill="white" stroke="black" points="443,-38.5 443,-57.5 569,-57.5 569,-38.5 443,-38.5"/>
<text text-anchor="middle" x="506" y="-45.5" font-family="Helvetica,sans-Serif" font-size="10.00">pdal::MetadataNode::add</text>
</a>
</g>
</g>
<!-- Node42&#45;&gt;Node44 -->
<g id="edge54" class="edge"><title>Node42&#45;&gt;Node44</title>
<path fill="none" stroke="midnightblue" d="M355.836,-82.4527C384.544,-75.8219 422.994,-66.9409 453.667,-59.8565"/>
<polygon fill="midnightblue" stroke="midnightblue" points="454.789,-63.1895 463.745,-57.5287 453.214,-56.369 454.789,-63.1895"/>
</g>
<!-- Node45 -->
<g id="node45" class="node"><title>Node45</title>
<g id="a_node45"><a xlink:href="classpdal_1_1Stage.html#a0d7c0bb23ed18577b1aa58b02448487f" target="_top" xlink:title="pdal::Stage::writerInitialize">
<polygon fill="white" stroke="black" points="440,-0.5 440,-19.5 572,-19.5 572,-0.5 440,-0.5"/>
<text text-anchor="middle" x="506" y="-7.5" font-family="Helvetica,sans-Serif" font-size="10.00">pdal::Stage::writerInitialize</text>
</a>
</g>
</g>
<!-- Node42&#45;&gt;Node45 -->
<g id="edge56" class="edge"><title>Node42&#45;&gt;Node45</title>
<path fill="none" stroke="midnightblue" d="M329.231,-82.3812C350.634,-68.7806 391.937,-43.9269 430,-29 436.301,-26.5289 443.028,-24.2944 449.768,-22.2992"/>
<polygon fill="midnightblue" stroke="midnightblue" points="450.918,-25.612 459.605,-19.5474 449.032,-18.8708 450.918,-25.612"/>
</g>
</g>
</svg>
