<?xml version="1.0" encoding="UTF-8" standalone="no"?>
<!DOCTYPE svg PUBLIC "-//W3C//DTD SVG 1.1//EN"
 "http://www.w3.org/Graphics/SVG/1.1/DTD/svg11.dtd">
<!-- Generated by graphviz version 2.38.0 (20140413.2041)
 -->
<!-- Title: TEST Pages: 1 -->
<svg width="526pt" height="72pt"
 viewBox="0.00 0.00 526.00 71.50" xmlns="http://www.w3.org/2000/svg" xmlns:xlink="http://www.w3.org/1999/xlink">
<g id="graph0" class="graph" transform="scale(1 1) rotate(0) translate(4 67.5)">
<title>TEST</title>
<polygon fill="white" stroke="none" points="-4,4 -4,-67.5 522,-67.5 522,4 -4,4"/>
<!-- Node1 -->
<g id="node1" class="node"><title>Node1</title>
<polygon fill="#bfbfbf" stroke="black" points="0,-19.5 0,-38.5 42,-38.5 42,-19.5 0,-19.5"/>
<text text-anchor="middle" x="21" y="-26.5" font-family="Helvetica,sans-Serif" font-size="10.00">TEST</text>
</g>
<!-- Node2 -->
<g id="node2" class="node"><title>Node2</title>
<g id="a_node2"><a xlink:href="namespacepdal_1_1FileUtils.html#ae2b8f1ddc38b0033b685a0bde6106ba1" target="_top" xlink:title="pdal::FileUtils::fileExists">
<polygon fill="white" stroke="black" points="78,-38.5 78,-57.5 201,-57.5 201,-38.5 78,-38.5"/>
<text text-anchor="middle" x="139.5" y="-45.5" font-family="Helvetica,sans-Serif" font-size="10.00">pdal::FileUtils::fileExists</text>
</a>
</g>
</g>
<!-- Node1&#45;&gt;Node2 -->
<g id="edge1" class="edge"><title>Node1&#45;&gt;Node2</title>
<path fill="none" stroke="midnightblue" d="M42.0271,-32.2662C50.1124,-33.5849 59.9568,-35.1904 70.2299,-36.8658"/>
<polygon fill="midnightblue" stroke="midnightblue" points="69.7343,-40.3312 80.1673,-38.4865 70.8611,-33.4224 69.7343,-40.3312"/>
</g>
<!-- Node5 -->
<g id="node5" class="node"><title>Node5</title>
<g id="a_node5"><a xlink:href="namespacepdal_1_1Utils.html#a280847d8a85057a3cfe513abec5c6527" target="_top" xlink:title="pdal::Utils::getenv">
<polygon fill="white" stroke="black" points="91.5,-0.5 91.5,-19.5 187.5,-19.5 187.5,-0.5 91.5,-0.5"/>
<text text-anchor="middle" x="139.5" y="-7.5" font-family="Helvetica,sans-Serif" font-size="10.00">pdal::Utils::getenv</text>
</a>
</g>
</g>
<!-- Node1&#45;&gt;Node5 -->
<g id="edge4" class="edge"><title>Node1&#45;&gt;Node5</title>
<path fill="none" stroke="midnightblue" d="M42.0271,-25.7338C52.9159,-23.9579 66.9953,-21.6617 81.0155,-19.3752"/>
<polygon fill="midnightblue" stroke="midnightblue" points="81.8613,-22.7835 91.1675,-17.7195 80.7345,-15.8748 81.8613,-22.7835"/>
</g>
<!-- Node3 -->
<g id="node3" class="node"><title>Node3</title>
<g id="a_node3"><a xlink:href="namespacepdal_1_1anonymous__namespace_02FileUtils_8cpp_03.html#a813a530ad72d50f747643f1bb996cacf" target="_top" xlink:title="pdal::anonymous_namespace\l\{FileUtils::cpp\}::isStdin">
<polygon fill="white" stroke="black" points="237,-33 237,-63 383,-63 383,-33 237,-33"/>
<text text-anchor="start" x="245" y="-51" font-family="Helvetica,sans-Serif" font-size="10.00">pdal::anonymous_namespace</text>
<text text-anchor="middle" x="310" y="-40" font-family="Helvetica,sans-Serif" font-size="10.00">{FileUtils::cpp}::isStdin</text>
</a>
</g>
</g>
<!-- Node2&#45;&gt;Node3 -->
<g id="edge2" class="edge"><title>Node2&#45;&gt;Node3</title>
<path fill="none" stroke="midnightblue" d="M201.332,-48C209.598,-48 218.191,-48 226.756,-48"/>
<polygon fill="midnightblue" stroke="midnightblue" points="226.777,-51.5001 236.777,-48 226.777,-44.5001 226.777,-51.5001"/>
</g>
<!-- Node4 -->
<g id="node4" class="node"><title>Node4</title>
<g id="a_node4"><a xlink:href="namespacepdal_1_1Utils.html#a28e3e2faff94b20f9908e77bc54ed983" target="_top" xlink:title="pdal::Utils::toupper">
<polygon fill="white" stroke="black" points="419,-38.5 419,-57.5 518,-57.5 518,-38.5 419,-38.5"/>
<text text-anchor="middle" x="468.5" y="-45.5" font-family="Helvetica,sans-Serif" font-size="10.00">pdal::Utils::toupper</text>
</a>
</g>
</g>
<!-- Node3&#45;&gt;Node4 -->
<g id="edge3" class="edge"><title>Node3&#45;&gt;Node4</title>
<path fill="none" stroke="midnightblue" d="M383.295,-48C391.742,-48 400.282,-48 408.518,-48"/>
<polygon fill="midnightblue" stroke="midnightblue" points="408.758,-51.5001 418.758,-48 408.758,-44.5001 408.758,-51.5001"/>
</g>
</g>
</svg>
