<?xml version="1.0" encoding="UTF-8" standalone="no"?>
<!DOCTYPE svg PUBLIC "-//W3C//DTD SVG 1.1//EN"
 "http://www.w3.org/Graphics/SVG/1.1/DTD/svg11.dtd">
<!-- Generated by graphviz version 2.38.0 (20140413.2041)
 -->
<!-- Title: TEST Pages: 1 -->
<svg width="1074pt" height="672pt"
 viewBox="0.00 0.00 1074.00 672.00" xmlns="http://www.w3.org/2000/svg" xmlns:xlink="http://www.w3.org/1999/xlink">
<g id="graph0" class="graph" transform="scale(1 1) rotate(0) translate(4 668)">
<title>TEST</title>
<polygon fill="white" stroke="none" points="-4,4 -4,-668 1070,-668 1070,4 -4,4"/>
<!-- Node1 -->
<g id="node1" class="node"><title>Node1</title>
<polygon fill="#bfbfbf" stroke="black" points="0,-164.5 0,-183.5 42,-183.5 42,-164.5 0,-164.5"/>
<text text-anchor="middle" x="21" y="-171.5" font-family="Helvetica,sans-Serif" font-size="10.00">TEST</text>
</g>
<!-- Node2 -->
<g id="node2" class="node"><title>Node2</title>
<g id="a_node2"><a xlink:href="classpdal_1_1Options.html#a30826da39f9c4716412141eeeb719032" target="_top" xlink:title="pdal::Options::add">
<polygon fill="white" stroke="black" points="448,-135.5 448,-154.5 544,-154.5 544,-135.5 448,-135.5"/>
<text text-anchor="middle" x="496" y="-142.5" font-family="Helvetica,sans-Serif" font-size="10.00">pdal::Options::add</text>
</a>
</g>
</g>
<!-- Node1&#45;&gt;Node2 -->
<g id="edge1" class="edge"><title>Node1&#45;&gt;Node2</title>
<path fill="none" stroke="midnightblue" d="M42.0221,-172.772C109.665,-168.625 331.378,-155.032 437.454,-148.528"/>
<polygon fill="midnightblue" stroke="midnightblue" points="437.89,-152.008 447.657,-147.903 437.461,-145.021 437.89,-152.008"/>
</g>
<!-- Node9 -->
<g id="node9" class="node"><title>Node9</title>
<g id="a_node9"><a xlink:href="classSupport.html#a9bbdf6f202f4f2e45e7a53007dd0a238" target="_top" xlink:title="Support::datapath">
<polygon fill="white" stroke="black" points="92,-609.5 92,-628.5 186,-628.5 186,-609.5 92,-609.5"/>
<text text-anchor="middle" x="139" y="-616.5" font-family="Helvetica,sans-Serif" font-size="10.00">Support::datapath</text>
</a>
</g>
</g>
<!-- Node1&#45;&gt;Node9 -->
<g id="edge8" class="edge"><title>Node1&#45;&gt;Node9</title>
<path fill="none" stroke="midnightblue" d="M22.4457,-183.56C25.0707,-236.974 39.7304,-498.567 78,-568 86.0186,-582.548 99.9423,-594.775 112.359,-603.608"/>
<polygon fill="midnightblue" stroke="midnightblue" points="110.774,-606.759 121.028,-609.423 114.674,-600.946 110.774,-606.759"/>
</g>
<!-- Node11 -->
<g id="node11" class="node"><title>Node11</title>
<g id="a_node11"><a xlink:href="classpdal_1_1StageWrapper.html#a3da6ec570ee21de1d8d8dbf9a00fddbc" target="_top" xlink:title="pdal::StageWrapper\l::done">
<polygon fill="white" stroke="black" points="87.5,-528 87.5,-558 190.5,-558 190.5,-528 87.5,-528"/>
<text text-anchor="start" x="95.5" y="-546" font-family="Helvetica,sans-Serif" font-size="10.00">pdal::StageWrapper</text>
<text text-anchor="middle" x="139" y="-535" font-family="Helvetica,sans-Serif" font-size="10.00">::done</text>
</a>
</g>
</g>
<!-- Node1&#45;&gt;Node11 -->
<g id="edge10" class="edge"><title>Node1&#45;&gt;Node11</title>
<path fill="none" stroke="midnightblue" d="M22.5514,-183.577C24.9332,-220.126 36.1943,-353.805 78,-454 88.0213,-478.018 104.965,-502.317 118.296,-519.444"/>
<polygon fill="midnightblue" stroke="midnightblue" points="115.912,-522.068 124.882,-527.706 121.386,-517.705 115.912,-522.068"/>
</g>
<!-- Node13 -->
<g id="node13" class="node"><title>Node13</title>
<g id="a_node13"><a xlink:href="classpdal_1_1Stage.html#a4b9296a59f8852b3d08630f1086bfbea" target="_top" xlink:title="pdal::Stage::prepare">
<polygon fill="white" stroke="black" points="87,-407.5 87,-426.5 191,-426.5 191,-407.5 87,-407.5"/>
<text text-anchor="middle" x="139" y="-414.5" font-family="Helvetica,sans-Serif" font-size="10.00">pdal::Stage::prepare</text>
</a>
</g>
</g>
<!-- Node1&#45;&gt;Node13 -->
<g id="edge12" class="edge"><title>Node1&#45;&gt;Node13</title>
<path fill="none" stroke="midnightblue" d="M26.5473,-183.526C43.8324,-219.735 105.651,-349.234 128.991,-398.128"/>
<polygon fill="midnightblue" stroke="midnightblue" points="125.891,-399.759 133.358,-407.276 132.209,-396.744 125.891,-399.759"/>
</g>
<!-- Node43 -->
<g id="node43" class="node"><title>Node43</title>
<g id="a_node43"><a xlink:href="OCITest_8cpp.html#a6199cf7554920d2a08861796fcffebaa" target="_top" xlink:title="readerOptions">
<polygon fill="white" stroke="black" points="100.5,-205.5 100.5,-224.5 177.5,-224.5 177.5,-205.5 100.5,-205.5"/>
<text text-anchor="middle" x="139" y="-212.5" font-family="Helvetica,sans-Serif" font-size="10.00">readerOptions</text>
</a>
</g>
</g>
<!-- Node1&#45;&gt;Node43 -->
<g id="edge54" class="edge"><title>Node1&#45;&gt;Node43</title>
<path fill="none" stroke="midnightblue" d="M42.2057,-181.142C58.5314,-186.912 81.9334,-195.183 101.52,-202.106"/>
<polygon fill="midnightblue" stroke="midnightblue" points="100.474,-205.448 111.068,-205.481 102.806,-198.849 100.474,-205.448"/>
</g>
<!-- Node45 -->
<g id="node45" class="node"><title>Node45</title>
<g id="a_node45"><a xlink:href="classpdal_1_1StageWrapper.html#a715049187e7a31bee7e093d791e73123" target="_top" xlink:title="pdal::StageWrapper\l::ready">
<polygon fill="white" stroke="black" points="87.5,-115 87.5,-145 190.5,-145 190.5,-115 87.5,-115"/>
<text text-anchor="start" x="95.5" y="-133" font-family="Helvetica,sans-Serif" font-size="10.00">pdal::StageWrapper</text>
<text text-anchor="middle" x="139" y="-122" font-family="Helvetica,sans-Serif" font-size="10.00">::ready</text>
</a>
</g>
</g>
<!-- Node1&#45;&gt;Node45 -->
<g id="edge57" class="edge"><title>Node1&#45;&gt;Node45</title>
<path fill="none" stroke="midnightblue" d="M42.2057,-166.336C55.12,-161.437 72.4623,-154.859 88.8413,-148.646"/>
<polygon fill="midnightblue" stroke="midnightblue" points="90.2242,-151.865 98.3329,-145.046 87.7416,-145.32 90.2242,-151.865"/>
</g>
<!-- Node47 -->
<g id="node47" class="node"><title>Node47</title>
<g id="a_node47"><a xlink:href="classpdal_1_1StageWrapper.html#a2835b4ff992984d9fccd0427a148b830" target="_top" xlink:title="pdal::StageWrapper::run">
<polygon fill="white" stroke="black" points="78,-76.5 78,-95.5 200,-95.5 200,-76.5 78,-76.5"/>
<text text-anchor="middle" x="139" y="-83.5" font-family="Helvetica,sans-Serif" font-size="10.00">pdal::StageWrapper::run</text>
</a>
</g>
</g>
<!-- Node1&#45;&gt;Node47 -->
<g id="edge59" class="edge"><title>Node1&#45;&gt;Node47</title>
<path fill="none" stroke="midnightblue" d="M27.2293,-164.488C35.8721,-149.633 54.5364,-120.978 78,-105 80.9337,-103.002 84.089,-101.205 87.3624,-99.5909"/>
<polygon fill="midnightblue" stroke="midnightblue" points="89.0224,-102.686 96.8143,-95.5076 86.2463,-96.2605 89.0224,-102.686"/>
</g>
<!-- Node49 -->
<g id="node49" class="node"><title>Node49</title>
<g id="a_node49"><a xlink:href="classpdal_1_1Stage.html#abfd87d459bea04a919aace286b2e377e" target="_top" xlink:title="pdal::Stage::setInput">
<polygon fill="white" stroke="black" points="85.5,-38.5 85.5,-57.5 192.5,-57.5 192.5,-38.5 85.5,-38.5"/>
<text text-anchor="middle" x="139" y="-45.5" font-family="Helvetica,sans-Serif" font-size="10.00">pdal::Stage::setInput</text>
</a>
</g>
</g>
<!-- Node1&#45;&gt;Node49 -->
<g id="edge61" class="edge"><title>Node1&#45;&gt;Node49</title>
<path fill="none" stroke="midnightblue" d="M24.3369,-164.435C29.9224,-143.592 46.0249,-93.8043 78,-67 80.0149,-65.311 82.1811,-63.7716 84.4523,-62.3686"/>
<polygon fill="midnightblue" stroke="midnightblue" points="86.37,-65.3169 93.6357,-57.6059 83.1472,-59.1028 86.37,-65.3169"/>
</g>
<!-- Node50 -->
<g id="node50" class="node"><title>Node50</title>
<g id="a_node50"><a xlink:href="classpdal_1_1Stage.html#acb2434df20f371f1fec9577de3cf0046" target="_top" xlink:title="pdal::Stage::setOptions">
<polygon fill="white" stroke="black" points="79.5,-0.5 79.5,-19.5 198.5,-19.5 198.5,-0.5 79.5,-0.5"/>
<text text-anchor="middle" x="139" y="-7.5" font-family="Helvetica,sans-Serif" font-size="10.00">pdal::Stage::setOptions</text>
</a>
</g>
</g>
<!-- Node1&#45;&gt;Node50 -->
<g id="edge62" class="edge"><title>Node1&#45;&gt;Node50</title>
<path fill="none" stroke="midnightblue" d="M22.8959,-164.302C25.8045,-138.45 37.2975,-67.2585 78,-29 79.6819,-27.4191 81.4947,-25.9698 83.4055,-24.641"/>
<polygon fill="midnightblue" stroke="midnightblue" points="85.3622,-27.554 92.3078,-19.5534 81.889,-21.4765 85.3622,-27.554"/>
</g>
<!-- Node3 -->
<g id="node3" class="node"><title>Node3</title>
<g id="a_node3"><a xlink:href="classpdal_1_1Option.html#aef4422b88464a9cad83b3c11bf1f8cdd" target="_top" xlink:title="pdal::Option::nameValid">
<polygon fill="white" stroke="black" points="617,-205.5 617,-224.5 738,-224.5 738,-205.5 617,-205.5"/>
<text text-anchor="middle" x="677.5" y="-212.5" font-family="Helvetica,sans-Serif" font-size="10.00">pdal::Option::nameValid</text>
</a>
</g>
</g>
<!-- Node2&#45;&gt;Node3 -->
<g id="edge2" class="edge"><title>Node2&#45;&gt;Node3</title>
<path fill="none" stroke="midnightblue" d="M541.086,-154.557C551.356,-157.226 562.162,-160.397 572,-164 599.781,-174.175 630.002,-189.414 650.765,-200.585"/>
<polygon fill="midnightblue" stroke="midnightblue" points="649.14,-203.686 659.596,-205.398 652.49,-197.539 649.14,-203.686"/>
</g>
<!-- Node8 -->
<g id="node8" class="node"><title>Node8</title>
<g id="a_node8"><a xlink:href="classpdal_1_1Option.html#ad2b7a736742fb343e421fa326ef45c23" target="_top" xlink:title="pdal::Option::getName">
<polygon fill="white" stroke="black" points="790.5,-110.5 790.5,-129.5 905.5,-129.5 905.5,-110.5 790.5,-110.5"/>
<text text-anchor="middle" x="848" y="-117.5" font-family="Helvetica,sans-Serif" font-size="10.00">pdal::Option::getName</text>
</a>
</g>
</g>
<!-- Node2&#45;&gt;Node8 -->
<g id="edge7" class="edge"><title>Node2&#45;&gt;Node8</title>
<path fill="none" stroke="midnightblue" d="M509.047,-135.323C528.483,-120.4 568.579,-92.4073 608,-82 667.731,-66.2307 686.238,-70.8443 747,-82 772.159,-86.6191 799.192,-97.2673 818.8,-106.12"/>
<polygon fill="midnightblue" stroke="midnightblue" points="817.513,-109.381 828.058,-110.416 820.46,-103.032 817.513,-109.381"/>
</g>
<!-- Node4 -->
<g id="node4" class="node"><title>Node4</title>
<g id="a_node4"><a xlink:href="classpdal_1_1Option.html#a978a36cf9180d3636ea770988961952b" target="_top" xlink:title="pdal::Option::parse">
<polygon fill="white" stroke="black" points="798.5,-250.5 798.5,-269.5 897.5,-269.5 897.5,-250.5 798.5,-250.5"/>
<text text-anchor="middle" x="848" y="-257.5" font-family="Helvetica,sans-Serif" font-size="10.00">pdal::Option::parse</text>
</a>
</g>
</g>
<!-- Node3&#45;&gt;Node4 -->
<g id="edge3" class="edge"><title>Node3&#45;&gt;Node4</title>
<path fill="none" stroke="midnightblue" d="M714.235,-224.543C739.702,-231.345 774.141,-240.542 801.562,-247.865"/>
<polygon fill="midnightblue" stroke="midnightblue" points="800.752,-251.272 811.317,-250.47 802.559,-244.509 800.752,-251.272"/>
</g>
<!-- Node7 -->
<g id="node7" class="node"><title>Node7</title>
<g id="a_node7"><a xlink:href="namespacepdal_1_1Utils.html#ada321695f57c876ef51227bdf5b84f7a" target="_top" xlink:title="pdal::Utils::printError">
<polygon fill="white" stroke="black" points="794.5,-205.5 794.5,-224.5 901.5,-224.5 901.5,-205.5 794.5,-205.5"/>
<text text-anchor="middle" x="848" y="-212.5" font-family="Helvetica,sans-Serif" font-size="10.00">pdal::Utils::printError</text>
</a>
</g>
</g>
<!-- Node3&#45;&gt;Node7 -->
<g id="edge6" class="edge"><title>Node3&#45;&gt;Node7</title>
<path fill="none" stroke="midnightblue" d="M738.381,-215C753.215,-215 769.151,-215 784.123,-215"/>
<polygon fill="midnightblue" stroke="midnightblue" points="784.308,-218.5 794.308,-215 784.308,-211.5 784.308,-218.5"/>
</g>
<!-- Node5 -->
<g id="node5" class="node"><title>Node5</title>
<g id="a_node5"><a xlink:href="namespacepdal_1_1Utils.html#acae5a19cd66121b77e2599daec48413d" target="_top" xlink:title="pdal::Utils::extract">
<polygon fill="white" stroke="black" points="959,-294.5 959,-313.5 1056,-313.5 1056,-294.5 959,-294.5"/>
<text text-anchor="middle" x="1007.5" y="-301.5" font-family="Helvetica,sans-Serif" font-size="10.00">pdal::Utils::extract</text>
</a>
</g>
</g>
<!-- Node4&#45;&gt;Node5 -->
<g id="edge4" class="edge"><title>Node4&#45;&gt;Node5</title>
<path fill="none" stroke="midnightblue" d="M883.175,-269.547C906.497,-276.063 937.597,-284.751 962.73,-291.772"/>
<polygon fill="midnightblue" stroke="midnightblue" points="961.819,-295.152 972.392,-294.471 963.702,-288.41 961.819,-295.152"/>
</g>
<!-- Node6 -->
<g id="node6" class="node"><title>Node6</title>
<g id="a_node6"><a xlink:href="namespacepdal_1_1Dimension.html#af3176b0b7e6b4be000317846cf7c2718" target="_top" xlink:title="pdal::Dimension::name">
<polygon fill="white" stroke="black" points="949,-250.5 949,-269.5 1066,-269.5 1066,-250.5 949,-250.5"/>
<text text-anchor="middle" x="1007.5" y="-257.5" font-family="Helvetica,sans-Serif" font-size="10.00">pdal::Dimension::name</text>
</a>
</g>
</g>
<!-- Node4&#45;&gt;Node6 -->
<g id="edge5" class="edge"><title>Node4&#45;&gt;Node6</title>
<path fill="none" stroke="midnightblue" d="M897.54,-260C910.632,-260 925.037,-260 938.964,-260"/>
<polygon fill="midnightblue" stroke="midnightblue" points="938.995,-263.5 948.995,-260 938.995,-256.5 938.995,-263.5"/>
</g>
<!-- Node10 -->
<g id="node10" class="node"><title>Node10</title>
<g id="a_node10"><a xlink:href="namespaceTestConfig.html#a0e622015f0610c2cfcbb3739b972d877" target="_top" xlink:title="TestConfig::dataPath">
<polygon fill="white" stroke="black" points="255,-641.5 255,-660.5 365,-660.5 365,-641.5 255,-641.5"/>
<text text-anchor="middle" x="310" y="-648.5" font-family="Helvetica,sans-Serif" font-size="10.00">TestConfig::dataPath</text>
</a>
</g>
</g>
<!-- Node9&#45;&gt;Node10 -->
<g id="edge9" class="edge"><title>Node9&#45;&gt;Node10</title>
<path fill="none" stroke="midnightblue" d="M186.18,-627.744C205.497,-631.402 228.204,-635.701 248.804,-639.602"/>
<polygon fill="midnightblue" stroke="midnightblue" points="248.247,-643.059 258.723,-641.48 249.549,-636.181 248.247,-643.059"/>
</g>
<!-- Node12 -->
<g id="node12" class="node"><title>Node12</title>
<g id="a_node12"><a xlink:href="classpdal_1_1Stage.html#a2444e73dc41bfc0b94981909595ef2ca" target="_top" xlink:title="pdal::Stage::done">
<polygon fill="white" stroke="black" points="263.5,-603.5 263.5,-622.5 356.5,-622.5 356.5,-603.5 263.5,-603.5"/>
<text text-anchor="middle" x="310" y="-610.5" font-family="Helvetica,sans-Serif" font-size="10.00">pdal::Stage::done</text>
</a>
</g>
</g>
<!-- Node11&#45;&gt;Node12 -->
<g id="edge11" class="edge"><title>Node11&#45;&gt;Node12</title>
<path fill="none" stroke="midnightblue" d="M168.972,-558.09C187.797,-567.592 213.022,-579.763 236,-589 246.037,-593.035 257.039,-596.922 267.389,-600.349"/>
<polygon fill="midnightblue" stroke="midnightblue" points="266.466,-603.729 277.058,-603.485 268.626,-597.071 266.466,-603.729"/>
</g>
<!-- Node13&#45;&gt;Node13 -->
<g id="edge13" class="edge"><title>Node13&#45;&gt;Node13</title>
<path fill="none" stroke="midnightblue" d="M120.813,-426.757C111.965,-435.565 118.027,-445 139,-445 152.436,-445 159.752,-441.128 160.949,-436.029"/>
<polygon fill="midnightblue" stroke="midnightblue" points="164.19,-434.707 157.187,-426.757 157.704,-437.339 164.19,-434.707"/>
</g>
<!-- Node14 -->
<g id="node14" class="node"><title>Node14</title>
<g id="a_node14"><a xlink:href="classpdal_1_1Stage.html#a75f17f9b67f48f6aab1d98aadefc4d5c" target="_top" xlink:title="pdal::Stage::handleOptions">
<polygon fill="white" stroke="black" points="243,-287.5 243,-306.5 377,-306.5 377,-287.5 243,-287.5"/>
<text text-anchor="middle" x="310" y="-294.5" font-family="Helvetica,sans-Serif" font-size="10.00">pdal::Stage::handleOptions</text>
</a>
</g>
</g>
<!-- Node13&#45;&gt;Node14 -->
<g id="edge14" class="edge"><title>Node13&#45;&gt;Node14</title>
<path fill="none" stroke="midnightblue" d="M146.405,-407.235C160.227,-386.966 194.946,-340.204 236,-316 239.681,-313.83 243.609,-311.905 247.661,-310.197"/>
<polygon fill="midnightblue" stroke="midnightblue" points="249.148,-313.378 257.286,-306.593 246.694,-306.822 249.148,-313.378"/>
</g>
<!-- Node33 -->
<g id="node33" class="node"><title>Node33</title>
<g id="a_node33"><a xlink:href="classpdal_1_1Stage.html#a74cf636cb0f633411e4e40dcd718508a" target="_top" xlink:title="pdal::Stage::startLogging">
<polygon fill="white" stroke="black" points="433.5,-644.5 433.5,-663.5 558.5,-663.5 558.5,-644.5 433.5,-644.5"/>
<text text-anchor="middle" x="496" y="-651.5" font-family="Helvetica,sans-Serif" font-size="10.00">pdal::Stage::startLogging</text>
</a>
</g>
</g>
<!-- Node13&#45;&gt;Node33 -->
<g id="edge40" class="edge"><title>Node13&#45;&gt;Node33</title>
<path fill="none" stroke="midnightblue" d="M145.503,-426.735C161.861,-455.351 210.619,-538.304 236,-556 291.708,-594.84 326.132,-558.458 384,-594 404.664,-606.691 399.316,-622.342 420,-635 423.446,-637.109 427.118,-638.985 430.914,-640.653"/>
<polygon fill="midnightblue" stroke="midnightblue" points="429.963,-644.037 440.552,-644.386 432.491,-637.51 429.963,-644.037"/>
</g>
<!-- Node34 -->
<g id="node34" class="node"><title>Node34</title>
<g id="a_node34"><a xlink:href="classpdal_1_1Stage.html#a6c85dfbf6a674dbc2eda76a79efada48" target="_top" xlink:title="pdal::Stage::l_initialize">
<polygon fill="white" stroke="black" points="252.5,-527.5 252.5,-546.5 367.5,-546.5 367.5,-527.5 252.5,-527.5"/>
<text text-anchor="middle" x="310" y="-534.5" font-family="Helvetica,sans-Serif" font-size="10.00">pdal::Stage::l_initialize</text>
</a>
</g>
</g>
<!-- Node13&#45;&gt;Node34 -->
<g id="edge44" class="edge"><title>Node13&#45;&gt;Node34</title>
<path fill="none" stroke="midnightblue" d="M146.405,-426.765C160.227,-447.034 194.946,-493.796 236,-518 239.681,-520.17 243.609,-522.095 247.661,-523.803"/>
<polygon fill="midnightblue" stroke="midnightblue" points="246.694,-527.178 257.286,-527.407 249.148,-520.622 246.694,-527.178"/>
</g>
<!-- Node38 -->
<g id="node38" class="node"><title>Node38</title>
<g id="a_node38"><a xlink:href="classpdal_1_1Stage.html#a5b422f842a6374b448439df99fe6e07e" target="_top" xlink:title="pdal::Stage::initialize">
<polygon fill="white" stroke="black" points="256.5,-489.5 256.5,-508.5 363.5,-508.5 363.5,-489.5 256.5,-489.5"/>
<text text-anchor="middle" x="310" y="-496.5" font-family="Helvetica,sans-Serif" font-size="10.00">pdal::Stage::initialize</text>
</a>
</g>
</g>
<!-- Node13&#45;&gt;Node38 -->
<g id="edge49" class="edge"><title>Node13&#45;&gt;Node38</title>
<path fill="none" stroke="midnightblue" d="M151.687,-426.512C169.065,-440.211 203.202,-465.444 236,-480 241.444,-482.416 247.259,-484.574 253.139,-486.488"/>
<polygon fill="midnightblue" stroke="midnightblue" points="252.461,-489.939 263.046,-489.483 254.486,-483.239 252.461,-489.939"/>
</g>
<!-- Node39 -->
<g id="node39" class="node"><title>Node39</title>
<g id="a_node39"><a xlink:href="classpdal_1_1Stage.html#a7ec627c76e1c30fc53780bd81d08d4ad" target="_top" xlink:title="pdal::Stage::addDimensions">
<polygon fill="white" stroke="black" points="240,-451.5 240,-470.5 380,-470.5 380,-451.5 240,-451.5"/>
<text text-anchor="middle" x="310" y="-458.5" font-family="Helvetica,sans-Serif" font-size="10.00">pdal::Stage::addDimensions</text>
</a>
</g>
</g>
<!-- Node13&#45;&gt;Node39 -->
<g id="edge50" class="edge"><title>Node13&#45;&gt;Node39</title>
<path fill="none" stroke="midnightblue" d="M176.67,-426.547C201.806,-433.092 235.361,-441.828 262.392,-448.865"/>
<polygon fill="midnightblue" stroke="midnightblue" points="261.842,-452.339 272.401,-451.471 263.606,-445.565 261.842,-452.339"/>
</g>
<!-- Node40 -->
<g id="node40" class="node"><title>Node40</title>
<g id="a_node40"><a xlink:href="classpdal_1_1BasePointTable.html#a7e3a12a1f29e6cd10d8669ed3d07eb94" target="_top" xlink:title="pdal::BasePointTable\l::layout">
<polygon fill="white" stroke="black" points="255,-402 255,-432 365,-432 365,-402 255,-402"/>
<text text-anchor="start" x="263" y="-420" font-family="Helvetica,sans-Serif" font-size="10.00">pdal::BasePointTable</text>
<text text-anchor="middle" x="310" y="-409" font-family="Helvetica,sans-Serif" font-size="10.00">::layout</text>
</a>
</g>
</g>
<!-- Node13&#45;&gt;Node40 -->
<g id="edge51" class="edge"><title>Node13&#45;&gt;Node40</title>
<path fill="none" stroke="midnightblue" d="M191.164,-417C207.975,-417 226.882,-417 244.549,-417"/>
<polygon fill="midnightblue" stroke="midnightblue" points="244.782,-420.5 254.782,-417 244.782,-413.5 244.782,-420.5"/>
</g>
<!-- Node41 -->
<g id="node41" class="node"><title>Node41</title>
<g id="a_node41"><a xlink:href="classpdal_1_1Stage.html#affff6bc9dbff793d074d76333c5732dd" target="_top" xlink:title="pdal::Stage::prepared">
<polygon fill="white" stroke="black" points="255,-363.5 255,-382.5 365,-382.5 365,-363.5 255,-363.5"/>
<text text-anchor="middle" x="310" y="-370.5" font-family="Helvetica,sans-Serif" font-size="10.00">pdal::Stage::prepared</text>
</a>
</g>
</g>
<!-- Node13&#45;&gt;Node41 -->
<g id="edge52" class="edge"><title>Node13&#45;&gt;Node41</title>
<path fill="none" stroke="midnightblue" d="M176.67,-407.453C201.806,-400.908 235.361,-392.172 262.392,-385.135"/>
<polygon fill="midnightblue" stroke="midnightblue" points="263.606,-388.435 272.401,-382.529 261.842,-381.661 263.606,-388.435"/>
</g>
<!-- Node42 -->
<g id="node42" class="node"><title>Node42</title>
<g id="a_node42"><a xlink:href="classpdal_1_1Stage.html#ae49e996fe285350923a3bf44d027adad" target="_top" xlink:title="pdal::Stage::stopLogging">
<polygon fill="white" stroke="black" points="247.5,-325.5 247.5,-344.5 372.5,-344.5 372.5,-325.5 247.5,-325.5"/>
<text text-anchor="middle" x="310" y="-332.5" font-family="Helvetica,sans-Serif" font-size="10.00">pdal::Stage::stopLogging</text>
</a>
</g>
</g>
<!-- Node13&#45;&gt;Node42 -->
<g id="edge53" class="edge"><title>Node13&#45;&gt;Node42</title>
<path fill="none" stroke="midnightblue" d="M151.687,-407.488C169.065,-393.789 203.202,-368.556 236,-354 241.444,-351.584 247.259,-349.426 253.139,-347.512"/>
<polygon fill="midnightblue" stroke="midnightblue" points="254.486,-350.761 263.046,-344.517 252.461,-344.061 254.486,-350.761"/>
</g>
<!-- Node15 -->
<g id="node15" class="node"><title>Node15</title>
<g id="a_node15"><a xlink:href="classpdal_1_1Stage.html#a75ff99f7b665c6573e304ed4148dd99e" target="_top" xlink:title="pdal::Stage::addAllArgs">
<polygon fill="white" stroke="black" points="436.5,-366.5 436.5,-385.5 555.5,-385.5 555.5,-366.5 436.5,-366.5"/>
<text text-anchor="middle" x="496" y="-373.5" font-family="Helvetica,sans-Serif" font-size="10.00">pdal::Stage::addAllArgs</text>
</a>
</g>
</g>
<!-- Node14&#45;&gt;Node15 -->
<g id="edge15" class="edge"><title>Node14&#45;&gt;Node15</title>
<path fill="none" stroke="midnightblue" d="M362.72,-306.584C370.136,-309.049 377.46,-312.137 384,-316 404.031,-327.832 400.153,-341.862 420,-354 425.756,-357.52 432.104,-360.502 438.599,-363.023"/>
<polygon fill="midnightblue" stroke="midnightblue" points="437.572,-366.372 448.167,-366.396 439.899,-359.77 437.572,-366.372"/>
</g>
<!-- Node18 -->
<g id="node18" class="node"><title>Node18</title>
<g id="a_node18"><a xlink:href="classpdal_1_1Stage.html#a6c81d6fbbac17ebe4cd63806916cc750" target="_top" xlink:title="pdal::Stage::getName">
<polygon fill="white" stroke="black" points="621.5,-445.5 621.5,-464.5 733.5,-464.5 733.5,-445.5 621.5,-445.5"/>
<text text-anchor="middle" x="677.5" y="-452.5" font-family="Helvetica,sans-Serif" font-size="10.00">pdal::Stage::getName</text>
</a>
</g>
</g>
<!-- Node14&#45;&gt;Node18 -->
<g id="edge33" class="edge"><title>Node14&#45;&gt;Node18</title>
<path fill="none" stroke="midnightblue" d="M368.466,-306.556C374.077,-309.028 379.388,-312.124 384,-316 413.538,-340.825 390.156,-370.544 420,-395 435.066,-407.347 543.685,-429.834 614.662,-443.496"/>
<polygon fill="midnightblue" stroke="midnightblue" points="614.365,-447.003 624.845,-445.446 615.682,-440.128 614.365,-447.003"/>
</g>
<!-- Node19 -->
<g id="node19" class="node"><title>Node19</title>
<g id="a_node19"><a xlink:href="classpdal_1_1Options.html#a99aa4c0c7ba443d584f741d22d37f6a5" target="_top" xlink:title="pdal::Options::getValues">
<polygon fill="white" stroke="black" points="434,-325.5 434,-344.5 558,-344.5 558,-325.5 434,-325.5"/>
<text text-anchor="middle" x="496" y="-332.5" font-family="Helvetica,sans-Serif" font-size="10.00">pdal::Options::getValues</text>
</a>
</g>
</g>
<!-- Node14&#45;&gt;Node19 -->
<g id="edge19" class="edge"><title>Node14&#45;&gt;Node19</title>
<path fill="none" stroke="midnightblue" d="M357.431,-306.589C382.149,-311.694 412.739,-318.011 438.792,-323.392"/>
<polygon fill="midnightblue" stroke="midnightblue" points="438.402,-326.885 448.903,-325.48 439.817,-320.03 438.402,-326.885"/>
</g>
<!-- Node20 -->
<g id="node20" class="node"><title>Node20</title>
<g id="a_node20"><a xlink:href="classpdal_1_1Options.html#aab2dd4f9208512ad8c38a71ad9d2c98b" target="_top" xlink:title="pdal::Options::addConditional">
<polygon fill="white" stroke="black" points="423.5,-249.5 423.5,-268.5 568.5,-268.5 568.5,-249.5 423.5,-249.5"/>
<text text-anchor="middle" x="496" y="-256.5" font-family="Helvetica,sans-Serif" font-size="10.00">pdal::Options::addConditional</text>
</a>
</g>
</g>
<!-- Node14&#45;&gt;Node20 -->
<g id="edge20" class="edge"><title>Node14&#45;&gt;Node20</title>
<path fill="none" stroke="midnightblue" d="M357.431,-287.411C382.149,-282.306 412.739,-275.989 438.792,-270.608"/>
<polygon fill="midnightblue" stroke="midnightblue" points="439.817,-273.97 448.903,-268.52 438.402,-267.115 439.817,-273.97"/>
</g>
<!-- Node21 -->
<g id="node21" class="node"><title>Node21</title>
<g id="a_node21"><a xlink:href="classpdal_1_1Options.html#a541bdbfe72511dad8a22236f0a3cb2ab" target="_top" xlink:title="pdal::Options::fromFile">
<polygon fill="white" stroke="black" points="438,-287.5 438,-306.5 554,-306.5 554,-287.5 438,-287.5"/>
<text text-anchor="middle" x="496" y="-294.5" font-family="Helvetica,sans-Serif" font-size="10.00">pdal::Options::fromFile</text>
</a>
</g>
</g>
<!-- Node14&#45;&gt;Node21 -->
<g id="edge23" class="edge"><title>Node14&#45;&gt;Node21</title>
<path fill="none" stroke="midnightblue" d="M377.168,-297C393.635,-297 411.304,-297 427.819,-297"/>
<polygon fill="midnightblue" stroke="midnightblue" points="427.932,-300.5 437.932,-297 427.932,-293.5 427.932,-300.5"/>
</g>
<!-- Node25 -->
<g id="node25" class="node"><title>Node25</title>
<g id="a_node25"><a xlink:href="classpdal_1_1Options.html#a0d9ebe7f77b36dea85b51eb0098a5df0" target="_top" xlink:title="pdal::Options::remove">
<polygon fill="white" stroke="black" points="621,-129.5 621,-148.5 734,-148.5 734,-129.5 621,-129.5"/>
<text text-anchor="middle" x="677.5" y="-136.5" font-family="Helvetica,sans-Serif" font-size="10.00">pdal::Options::remove</text>
</a>
</g>
</g>
<!-- Node14&#45;&gt;Node25 -->
<g id="edge28" class="edge"><title>Node14&#45;&gt;Node25</title>
<path fill="none" stroke="midnightblue" d="M334.82,-287.4C349.324,-281.27 368.066,-272.835 384,-264 400.817,-254.675 402.414,-247.779 420,-240 483.682,-211.829 513.988,-240.518 572,-202 594.216,-187.249 585.57,-168.422 608,-154 609.123,-153.278 610.276,-152.59 611.454,-151.935"/>
<polygon fill="midnightblue" stroke="midnightblue" points="613.314,-154.929 620.893,-147.526 610.352,-148.587 613.314,-154.929"/>
</g>
<!-- Node26 -->
<g id="node26" class="node"><title>Node26</title>
<g id="a_node26"><a xlink:href="classpdal_1_1Options.html#afb18dcc4f3883b8413171db00482959c" target="_top" xlink:title="pdal::Options::toCommandLine">
<polygon fill="white" stroke="black" points="420,-173.5 420,-192.5 572,-192.5 572,-173.5 420,-173.5"/>
<text text-anchor="middle" x="496" y="-180.5" font-family="Helvetica,sans-Serif" font-size="10.00">pdal::Options::toCommandLine</text>
</a>
</g>
</g>
<!-- Node14&#45;&gt;Node26 -->
<g id="edge30" class="edge"><title>Node14&#45;&gt;Node26</title>
<path fill="none" stroke="midnightblue" d="M357.726,-287.438C367.115,-283.99 376.415,-279.319 384,-273 409.673,-251.614 394.242,-228.284 420,-207 425.169,-202.729 431.11,-199.213 437.338,-196.321"/>
<polygon fill="midnightblue" stroke="midnightblue" points="438.691,-199.549 446.612,-192.513 436.032,-193.074 438.691,-199.549"/>
</g>
<!-- Node28 -->
<g id="node28" class="node"><title>Node28</title>
<g id="a_node28"><a xlink:href="classpdal_1_1Stage.html#ab94db25b14b94de1f62f9738327accd2" target="_top" xlink:title="pdal::Stage::setupLog">
<polygon fill="white" stroke="black" points="440,-480.5 440,-499.5 552,-499.5 552,-480.5 440,-480.5"/>
<text text-anchor="middle" x="496" y="-487.5" font-family="Helvetica,sans-Serif" font-size="10.00">pdal::Stage::setupLog</text>
</a>
</g>
</g>
<!-- Node14&#45;&gt;Node28 -->
<g id="edge34" class="edge"><title>Node14&#45;&gt;Node28</title>
<path fill="none" stroke="midnightblue" d="M370.014,-306.539C375.13,-309.027 379.907,-312.132 384,-316 421.999,-351.915 390.672,-384.714 420,-428 433.033,-447.235 453.709,-463.697 470.054,-474.814"/>
<polygon fill="midnightblue" stroke="midnightblue" points="468.331,-477.869 478.613,-480.424 472.168,-472.015 468.331,-477.869"/>
</g>
<!-- Node16 -->
<g id="node16" class="node"><title>Node16</title>
<g id="a_node16"><a xlink:href="classpdal_1_1Stage.html#ae89a62fb39c52a2067fc318359065625" target="_top" xlink:title="pdal::Stage::l_addArgs">
<polygon fill="white" stroke="red" points="619.5,-407.5 619.5,-426.5 735.5,-426.5 735.5,-407.5 619.5,-407.5"/>
<text text-anchor="middle" x="677.5" y="-414.5" font-family="Helvetica,sans-Serif" font-size="10.00">pdal::Stage::l_addArgs</text>
</a>
</g>
</g>
<!-- Node15&#45;&gt;Node16 -->
<g id="edge16" class="edge"><title>Node15&#45;&gt;Node16</title>
<path fill="none" stroke="midnightblue" d="M538.632,-385.509C564.367,-391.387 597.595,-398.977 624.982,-405.233"/>
<polygon fill="midnightblue" stroke="midnightblue" points="624.255,-408.657 634.783,-407.471 625.814,-401.832 624.255,-408.657"/>
</g>
<!-- Node17 -->
<g id="node17" class="node"><title>Node17</title>
<g id="a_node17"><a xlink:href="classpdal_1_1Stage.html#a3f15d8fc5456be812aafc84000d8e621" target="_top" xlink:title="pdal::Stage::addArgs">
<polygon fill="white" stroke="black" points="623.5,-369.5 623.5,-388.5 731.5,-388.5 731.5,-369.5 623.5,-369.5"/>
<text text-anchor="middle" x="677.5" y="-376.5" font-family="Helvetica,sans-Serif" font-size="10.00">pdal::Stage::addArgs</text>
</a>
</g>
</g>
<!-- Node15&#45;&gt;Node17 -->
<g id="edge17" class="edge"><title>Node15&#45;&gt;Node17</title>
<path fill="none" stroke="midnightblue" d="M555.775,-376.982C574.15,-377.289 594.5,-377.63 613.175,-377.942"/>
<polygon fill="midnightblue" stroke="midnightblue" points="613.297,-381.444 623.354,-378.112 613.414,-374.445 613.297,-381.444"/>
</g>
<!-- Node15&#45;&gt;Node18 -->
<g id="edge18" class="edge"><title>Node15&#45;&gt;Node18</title>
<path fill="none" stroke="midnightblue" d="M539.014,-385.597C550.204,-389.162 561.962,-393.879 572,-400 591.319,-411.78 588.454,-424.6 608,-436 611.718,-438.168 615.694,-440.099 619.789,-441.815"/>
<polygon fill="midnightblue" stroke="midnightblue" points="618.902,-445.22 629.495,-445.445 621.354,-438.664 618.902,-445.22"/>
</g>
<!-- Node20&#45;&gt;Node3 -->
<g id="edge21" class="edge"><title>Node20&#45;&gt;Node3</title>
<path fill="none" stroke="midnightblue" d="M535.949,-249.453C562.882,-242.851 598.915,-234.018 627.753,-226.949"/>
<polygon fill="midnightblue" stroke="midnightblue" points="628.748,-230.309 637.627,-224.529 627.081,-223.51 628.748,-230.309"/>
</g>
<!-- Node20&#45;&gt;Node8 -->
<g id="edge22" class="edge"><title>Node20&#45;&gt;Node8</title>
<path fill="none" stroke="midnightblue" d="M539.96,-249.416C550.913,-245.879 562.317,-241.173 572,-235 591.891,-222.319 587.842,-208.252 608,-196 662.729,-162.737 686.107,-177.842 747,-158 769.81,-150.567 795.062,-140.96 814.484,-133.265"/>
<polygon fill="midnightblue" stroke="midnightblue" points="815.8,-136.509 823.789,-129.549 813.204,-130.008 815.8,-136.509"/>
</g>
<!-- Node22 -->
<g id="node22" class="node"><title>Node22</title>
<g id="a_node22"><a xlink:href="namespacepdal_1_1FileUtils.html#ae2b8f1ddc38b0033b685a0bde6106ba1" target="_top" xlink:title="pdal::FileUtils::fileExists">
<polygon fill="white" stroke="red" points="616,-243.5 616,-262.5 739,-262.5 739,-243.5 616,-243.5"/>
<text text-anchor="middle" x="677.5" y="-250.5" font-family="Helvetica,sans-Serif" font-size="10.00">pdal::FileUtils::fileExists</text>
</a>
</g>
</g>
<!-- Node21&#45;&gt;Node22 -->
<g id="edge24" class="edge"><title>Node21&#45;&gt;Node22</title>
<path fill="none" stroke="midnightblue" d="M535.949,-287.453C562.882,-280.851 598.915,-272.018 627.753,-264.949"/>
<polygon fill="midnightblue" stroke="midnightblue" points="628.748,-268.309 637.627,-262.529 627.081,-261.51 628.748,-268.309"/>
</g>
<!-- Node23 -->
<g id="node23" class="node"><title>Node23</title>
<g id="a_node23"><a xlink:href="namespacepdal_1_1FileUtils.html#a183613921413dc5f8fe3efe45763945c" target="_top" xlink:title="pdal::FileUtils::readFile\lIntoString">
<polygon fill="white" stroke="red" points="619,-282 619,-312 736,-312 736,-282 619,-282"/>
<text text-anchor="start" x="627" y="-300" font-family="Helvetica,sans-Serif" font-size="10.00">pdal::FileUtils::readFile</text>
<text text-anchor="middle" x="677.5" y="-289" font-family="Helvetica,sans-Serif" font-size="10.00">IntoString</text>
</a>
</g>
</g>
<!-- Node21&#45;&gt;Node23 -->
<g id="edge25" class="edge"><title>Node21&#45;&gt;Node23</title>
<path fill="none" stroke="midnightblue" d="M554.288,-297C571.608,-297 590.792,-297 608.729,-297"/>
<polygon fill="midnightblue" stroke="midnightblue" points="608.832,-300.5 618.832,-297 608.832,-293.5 608.832,-300.5"/>
</g>
<!-- Node24 -->
<g id="node24" class="node"><title>Node24</title>
<g id="a_node24"><a xlink:href="namespacepdal_1_1Utils.html#a9bda8c5dbe5ef7cf66e99ba022184934" target="_top" xlink:title="pdal::Utils::extractSpaces">
<polygon fill="white" stroke="black" points="783,-306.5 783,-325.5 913,-325.5 913,-306.5 783,-306.5"/>
<text text-anchor="middle" x="848" y="-313.5" font-family="Helvetica,sans-Serif" font-size="10.00">pdal::Utils::extractSpaces</text>
</a>
</g>
</g>
<!-- Node21&#45;&gt;Node24 -->
<g id="edge26" class="edge"><title>Node21&#45;&gt;Node24</title>
<path fill="none" stroke="midnightblue" d="M532.18,-306.615C553.854,-312.035 582.318,-318.255 608,-321 669.428,-327.565 685.241,-322.543 747,-321 755.306,-320.792 763.996,-320.488 772.638,-320.13"/>
<polygon fill="midnightblue" stroke="midnightblue" points="772.897,-323.623 782.734,-319.689 772.59,-316.629 772.897,-323.623"/>
</g>
<!-- Node24&#45;&gt;Node5 -->
<g id="edge27" class="edge"><title>Node24&#45;&gt;Node5</title>
<path fill="none" stroke="midnightblue" d="M913.061,-311.119C924.918,-310.216 937.235,-309.277 948.886,-308.39"/>
<polygon fill="midnightblue" stroke="midnightblue" points="949.219,-311.874 958.924,-307.625 948.687,-304.895 949.219,-311.874"/>
</g>
<!-- Node25&#45;&gt;Node8 -->
<g id="edge29" class="edge"><title>Node25&#45;&gt;Node8</title>
<path fill="none" stroke="midnightblue" d="M734.14,-132.726C748.783,-131.075 764.734,-129.276 779.909,-127.565"/>
<polygon fill="midnightblue" stroke="midnightblue" points="780.721,-130.996 790.266,-126.397 779.936,-124.04 780.721,-130.996"/>
</g>
<!-- Node27 -->
<g id="node27" class="node"><title>Node27</title>
<g id="a_node27"><a xlink:href="classpdal_1_1Option.html#a7fabeedf415bb4253e0b5d625c2717db" target="_top" xlink:title="pdal::Option::toArg">
<polygon fill="white" stroke="red" points="628.5,-91.5 628.5,-110.5 726.5,-110.5 726.5,-91.5 628.5,-91.5"/>
<text text-anchor="middle" x="677.5" y="-98.5" font-family="Helvetica,sans-Serif" font-size="10.00">pdal::Option::toArg</text>
</a>
</g>
</g>
<!-- Node26&#45;&gt;Node27 -->
<g id="edge31" class="edge"><title>Node26&#45;&gt;Node27</title>
<path fill="none" stroke="midnightblue" d="M551.965,-173.452C559.005,-170.99 565.88,-167.893 572,-164 593.319,-150.438 586.835,-133.801 608,-120 611.392,-117.788 615.04,-115.831 618.822,-114.1"/>
<polygon fill="midnightblue" stroke="midnightblue" points="620.454,-117.217 628.432,-110.246 617.848,-110.72 620.454,-117.217"/>
</g>
<!-- Node27&#45;&gt;Node8 -->
<g id="edge32" class="edge"><title>Node27&#45;&gt;Node8</title>
<path fill="none" stroke="midnightblue" d="M726.785,-106.445C743.369,-108.315 762.242,-110.443 780.039,-112.45"/>
<polygon fill="midnightblue" stroke="midnightblue" points="780.039,-115.972 790.368,-113.614 780.823,-109.016 780.039,-115.972"/>
</g>
<!-- Node28&#45;&gt;Node18 -->
<g id="edge35" class="edge"><title>Node28&#45;&gt;Node18</title>
<path fill="none" stroke="midnightblue" d="M546.049,-480.436C568.112,-476.134 594.338,-471.02 617.468,-466.51"/>
<polygon fill="midnightblue" stroke="midnightblue" points="618.365,-469.902 627.51,-464.552 617.025,-463.031 618.365,-469.902"/>
</g>
<!-- Node29 -->
<g id="node29" class="node"><title>Node29</title>
<g id="a_node29"><a xlink:href="classpdal_1_1gdal_1_1ErrorHandler.html#a56e0125595a43bf3b0cbd0b9a4bc55ea" target="_top" xlink:title="pdal::gdal::ErrorHandler\l::getGlobalErrorHandler">
<polygon fill="white" stroke="black" points="618,-629 618,-659 737,-659 737,-629 618,-629"/>
<text text-anchor="start" x="626" y="-647" font-family="Helvetica,sans-Serif" font-size="10.00">pdal::gdal::ErrorHandler</text>
<text text-anchor="middle" x="677.5" y="-636" font-family="Helvetica,sans-Serif" font-size="10.00">::getGlobalErrorHandler</text>
</a>
</g>
</g>
<!-- Node28&#45;&gt;Node29 -->
<g id="edge36" class="edge"><title>Node28&#45;&gt;Node29</title>
<path fill="none" stroke="midnightblue" d="M552.231,-498.064C559.474,-500.945 566.334,-504.813 572,-510 606.533,-541.615 577.002,-573.913 608,-609 612.985,-614.642 619.096,-619.497 625.596,-623.637"/>
<polygon fill="midnightblue" stroke="midnightblue" points="624.219,-626.883 634.631,-628.847 627.716,-620.819 624.219,-626.883"/>
</g>
<!-- Node31 -->
<g id="node31" class="node"><title>Node31</title>
<g id="a_node31"><a xlink:href="classpdal_1_1gdal_1_1ErrorHandler.html#ace1cff928ab179f671181ebaf4d280a4" target="_top" xlink:title="pdal::gdal::ErrorHandler::set">
<polygon fill="white" stroke="red" points="608,-580.5 608,-599.5 747,-599.5 747,-580.5 608,-580.5"/>
<text text-anchor="middle" x="677.5" y="-587.5" font-family="Helvetica,sans-Serif" font-size="10.00">pdal::gdal::ErrorHandler::set</text>
</a>
</g>
</g>
<!-- Node28&#45;&gt;Node31 -->
<g id="edge38" class="edge"><title>Node28&#45;&gt;Node31</title>
<path fill="none" stroke="midnightblue" d="M549.097,-499.59C557.101,-502.261 565.015,-505.665 572,-510 592.604,-522.787 589.204,-535.678 608,-551 619.665,-560.508 633.948,-569.044 646.448,-575.689"/>
<polygon fill="midnightblue" stroke="midnightblue" points="645.092,-578.927 655.586,-580.386 648.292,-572.701 645.092,-578.927"/>
</g>
<!-- Node32 -->
<g id="node32" class="node"><title>Node32</title>
<g id="a_node32"><a xlink:href="classpdal_1_1Stage.html#aec4fb27c40bb4b032ff003a89a950dd4" target="_top" xlink:title="pdal::Stage::isDebug">
<polygon fill="white" stroke="black" points="623.5,-522.5 623.5,-541.5 731.5,-541.5 731.5,-522.5 623.5,-522.5"/>
<text text-anchor="middle" x="677.5" y="-529.5" font-family="Helvetica,sans-Serif" font-size="10.00">pdal::Stage::isDebug</text>
</a>
</g>
</g>
<!-- Node28&#45;&gt;Node32 -->
<g id="edge39" class="edge"><title>Node28&#45;&gt;Node32</title>
<path fill="none" stroke="midnightblue" d="M537.731,-499.53C563.802,-505.631 597.834,-513.593 625.671,-520.107"/>
<polygon fill="midnightblue" stroke="midnightblue" points="625.085,-523.564 635.62,-522.435 626.68,-516.748 625.085,-523.564"/>
</g>
<!-- Node30 -->
<g id="node30" class="node"><title>Node30</title>
<g id="a_node30"><a xlink:href="classpdal_1_1gdal_1_1ErrorHandler.html#a73215504640551589024d36018f81d33" target="_top" xlink:title="pdal::gdal::ErrorHandler\l::ErrorHandler">
<polygon fill="white" stroke="red" points="788.5,-629 788.5,-659 907.5,-659 907.5,-629 788.5,-629"/>
<text text-anchor="start" x="796.5" y="-647" font-family="Helvetica,sans-Serif" font-size="10.00">pdal::gdal::ErrorHandler</text>
<text text-anchor="middle" x="848" y="-636" font-family="Helvetica,sans-Serif" font-size="10.00">::ErrorHandler</text>
</a>
</g>
</g>
<!-- Node29&#45;&gt;Node30 -->
<g id="edge37" class="edge"><title>Node29&#45;&gt;Node30</title>
<path fill="none" stroke="midnightblue" d="M737.433,-644C750.592,-644 764.659,-644 778.178,-644"/>
<polygon fill="midnightblue" stroke="midnightblue" points="778.385,-647.5 788.385,-644 778.385,-640.5 778.385,-647.5"/>
</g>
<!-- Node33&#45;&gt;Node29 -->
<g id="edge41" class="edge"><title>Node33&#45;&gt;Node29</title>
<path fill="none" stroke="midnightblue" d="M558.523,-650.573C574.257,-649.696 591.28,-648.748 607.369,-647.851"/>
<polygon fill="midnightblue" stroke="midnightblue" points="607.994,-651.322 617.784,-647.271 607.604,-644.333 607.994,-651.322"/>
</g>
<!-- Node33&#45;&gt;Node31 -->
<g id="edge42" class="edge"><title>Node33&#45;&gt;Node31</title>
<path fill="none" stroke="midnightblue" d="M539.783,-644.407C550.406,-641.685 561.698,-638.499 572,-635 579.362,-632.5 617.192,-616.055 645.231,-603.763"/>
<polygon fill="midnightblue" stroke="midnightblue" points="646.924,-606.842 654.674,-599.618 644.111,-600.433 646.924,-606.842"/>
</g>
<!-- Node33&#45;&gt;Node32 -->
<g id="edge43" class="edge"><title>Node33&#45;&gt;Node32</title>
<path fill="none" stroke="midnightblue" d="M555.32,-644.358C561.286,-641.905 566.987,-638.837 572,-635 597.916,-615.165 584.983,-594.137 608,-571 618.152,-560.795 631.526,-552.392 643.761,-546.033"/>
<polygon fill="midnightblue" stroke="midnightblue" points="645.396,-549.129 652.822,-541.573 642.304,-542.849 645.396,-549.129"/>
</g>
<!-- Node34&#45;&gt;Node18 -->
<g id="edge47" class="edge"><title>Node34&#45;&gt;Node18</title>
<path fill="none" stroke="midnightblue" d="M364.62,-527.483C371.453,-525.016 378.108,-521.91 384,-518 405.924,-503.451 396.78,-483.377 420,-471 478.998,-439.552 556.808,-439.436 611.195,-444.749"/>
<polygon fill="midnightblue" stroke="midnightblue" points="611.093,-448.258 621.407,-445.837 611.834,-441.297 611.093,-448.258"/>
</g>
<!-- Node35 -->
<g id="node35" class="node"><title>Node35</title>
<g id="a_node35"><a xlink:href="classpdal_1_1BasePointTable.html#a03429472e71e5dd323bc92319f4a9df6" target="_top" xlink:title="pdal::BasePointTable\l::metadata">
<polygon fill="white" stroke="black" points="441,-519 441,-549 551,-549 551,-519 441,-519"/>
<text text-anchor="start" x="449" y="-537" font-family="Helvetica,sans-Serif" font-size="10.00">pdal::BasePointTable</text>
<text text-anchor="middle" x="496" y="-526" font-family="Helvetica,sans-Serif" font-size="10.00">::metadata</text>
</a>
</g>
</g>
<!-- Node34&#45;&gt;Node35 -->
<g id="edge45" class="edge"><title>Node34&#45;&gt;Node35</title>
<path fill="none" stroke="midnightblue" d="M367.707,-536.075C387.671,-535.75 410.247,-535.382 430.785,-535.047"/>
<polygon fill="midnightblue" stroke="midnightblue" points="431.056,-538.543 440.997,-534.88 430.942,-531.544 431.056,-538.543"/>
</g>
<!-- Node36 -->
<g id="node36" class="node"><title>Node36</title>
<g id="a_node36"><a xlink:href="classpdal_1_1MetadataNode.html#af2c1c5d91f6ab47a804aa8a0a1b043c2" target="_top" xlink:title="pdal::MetadataNode::add">
<polygon fill="white" stroke="black" points="433,-606.5 433,-625.5 559,-625.5 559,-606.5 433,-606.5"/>
<text text-anchor="middle" x="496" y="-613.5" font-family="Helvetica,sans-Serif" font-size="10.00">pdal::MetadataNode::add</text>
</a>
</g>
</g>
<!-- Node34&#45;&gt;Node36 -->
<g id="edge46" class="edge"><title>Node34&#45;&gt;Node36</title>
<path fill="none" stroke="midnightblue" d="M351.513,-546.617C362.517,-550.198 374.114,-554.918 384,-561 403.272,-572.856 400.327,-585.821 420,-597 423.916,-599.225 428.093,-601.194 432.395,-602.934"/>
<polygon fill="midnightblue" stroke="midnightblue" points="431.366,-606.284 441.961,-606.392 433.746,-599.701 431.366,-606.284"/>
</g>
<!-- Node37 -->
<g id="node37" class="node"><title>Node37</title>
<g id="a_node37"><a xlink:href="classpdal_1_1Stage.html#a0d7c0bb23ed18577b1aa58b02448487f" target="_top" xlink:title="pdal::Stage::writerInitialize">
<polygon fill="white" stroke="black" points="430,-568.5 430,-587.5 562,-587.5 562,-568.5 430,-568.5"/>
<text text-anchor="middle" x="496" y="-575.5" font-family="Helvetica,sans-Serif" font-size="10.00">pdal::Stage::writerInitialize</text>
</a>
</g>
</g>
<!-- Node34&#45;&gt;Node37 -->
<g id="edge48" class="edge"><title>Node34&#45;&gt;Node37</title>
<path fill="none" stroke="midnightblue" d="M353.676,-546.509C380.056,-552.387 414.117,-559.977 442.191,-566.233"/>
<polygon fill="midnightblue" stroke="midnightblue" points="441.715,-569.713 452.237,-568.471 443.238,-562.88 441.715,-569.713"/>
</g>
<!-- Node43&#45;&gt;Node2 -->
<g id="edge55" class="edge"><title>Node43&#45;&gt;Node2</title>
<path fill="none" stroke="midnightblue" d="M159.907,-224.6C204.093,-244.387 312.127,-284.225 384,-239 415.295,-219.308 391.383,-187.413 420,-164 425.309,-159.657 431.483,-156.291 437.968,-153.684"/>
<polygon fill="midnightblue" stroke="midnightblue" points="439.294,-156.93 447.624,-150.383 437.03,-150.306 439.294,-156.93"/>
</g>
<!-- Node44 -->
<g id="node44" class="node"><title>Node44</title>
<g id="a_node44"><a xlink:href="namespaceanonymous__namespace_02OCITest_8cpp_03.html#a16b0d908e41f34b0693fc46ce9c44aef" target="_top" xlink:title="anonymous_namespace\l\{OCITest::cpp\}::connectString">
<polygon fill="white" stroke="black" points="236,-200 236,-230 384,-230 384,-200 236,-200"/>
<text text-anchor="start" x="244" y="-218" font-family="Helvetica,sans-Serif" font-size="10.00">anonymous_namespace</text>
<text text-anchor="middle" x="310" y="-207" font-family="Helvetica,sans-Serif" font-size="10.00">{OCITest::cpp}::connectString</text>
</a>
</g>
</g>
<!-- Node43&#45;&gt;Node44 -->
<g id="edge56" class="edge"><title>Node43&#45;&gt;Node44</title>
<path fill="none" stroke="midnightblue" d="M177.507,-215C191.76,-215 208.63,-215 225.449,-215"/>
<polygon fill="midnightblue" stroke="midnightblue" points="225.892,-218.5 235.892,-215 225.892,-211.5 225.892,-218.5"/>
</g>
<!-- Node46 -->
<g id="node46" class="node"><title>Node46</title>
<g id="a_node46"><a xlink:href="classpdal_1_1Stage.html#afb562c59c53ed8120df9106655eb2543" target="_top" xlink:title="pdal::Stage::ready">
<polygon fill="white" stroke="black" points="262,-120.5 262,-139.5 358,-139.5 358,-120.5 262,-120.5"/>
<text text-anchor="middle" x="310" y="-127.5" font-family="Helvetica,sans-Serif" font-size="10.00">pdal::Stage::ready</text>
</a>
</g>
</g>
<!-- Node45&#45;&gt;Node46 -->
<g id="edge58" class="edge"><title>Node45&#45;&gt;Node46</title>
<path fill="none" stroke="midnightblue" d="M190.706,-130C209.914,-130 231.912,-130 251.686,-130"/>
<polygon fill="midnightblue" stroke="midnightblue" points="251.798,-133.5 261.798,-130 251.798,-126.5 251.798,-133.5"/>
</g>
<!-- Node48 -->
<g id="node48" class="node"><title>Node48</title>
<g id="a_node48"><a xlink:href="classpdal_1_1Stage.html#ab35b64b6a56fd23969704eb42bbefb94" target="_top" xlink:title="pdal::Stage::run">
<polygon fill="white" stroke="black" points="267,-76.5 267,-95.5 353,-95.5 353,-76.5 267,-76.5"/>
<text text-anchor="middle" x="310" y="-83.5" font-family="Helvetica,sans-Serif" font-size="10.00">pdal::Stage::run</text>
</a>
</g>
</g>
<!-- Node47&#45;&gt;Node48 -->
<g id="edge60" class="edge"><title>Node47&#45;&gt;Node48</title>
<path fill="none" stroke="midnightblue" d="M200.059,-86C218.624,-86 238.912,-86 256.893,-86"/>
<polygon fill="midnightblue" stroke="midnightblue" points="256.901,-89.5001 266.901,-86 256.901,-82.5001 256.901,-89.5001"/>
</g>
</g>
</svg>
