<?xml version="1.0" encoding="UTF-8" standalone="no"?>
<!DOCTYPE svg PUBLIC "-//W3C//DTD SVG 1.1//EN"
 "http://www.w3.org/Graphics/SVG/1.1/DTD/svg11.dtd">
<!-- Generated by graphviz version 2.38.0 (20140413.2041)
 -->
<!-- Title: getReaderOptions Pages: 1 -->
<svg width="688pt" height="123pt"
 viewBox="0.00 0.00 688.00 123.00" xmlns="http://www.w3.org/2000/svg" xmlns:xlink="http://www.w3.org/1999/xlink">
<g id="graph0" class="graph" transform="scale(1 1) rotate(0) translate(4 119)">
<title>getReaderOptions</title>
<polygon fill="white" stroke="none" points="-4,4 -4,-119 684,-119 684,4 -4,4"/>
<!-- Node1 -->
<g id="node1" class="node"><title>Node1</title>
<polygon fill="#bfbfbf" stroke="black" points="0,-19.5 0,-38.5 95,-38.5 95,-19.5 0,-19.5"/>
<text text-anchor="middle" x="47.5" y="-26.5" font-family="Helvetica,sans-Serif" font-size="10.00">getReaderOptions</text>
</g>
<!-- Node2 -->
<g id="node2" class="node"><title>Node2</title>
<g id="a_node2"><a xlink:href="classpdal_1_1Options.html#a30826da39f9c4716412141eeeb719032" target="_top" xlink:title="pdal::Options::add">
<polygon fill="white" stroke="black" points="131,-38.5 131,-57.5 227,-57.5 227,-38.5 131,-38.5"/>
<text text-anchor="middle" x="179" y="-45.5" font-family="Helvetica,sans-Serif" font-size="10.00">pdal::Options::add</text>
</a>
</g>
</g>
<!-- Node1&#45;&gt;Node2 -->
<g id="edge1" class="edge"><title>Node1&#45;&gt;Node2</title>
<path fill="none" stroke="midnightblue" d="M95.2525,-35.8594C103.584,-37.0818 112.348,-38.3676 120.928,-39.6266"/>
<polygon fill="midnightblue" stroke="midnightblue" points="120.479,-43.098 130.881,-41.0868 121.495,-36.1722 120.479,-43.098"/>
</g>
<!-- Node9 -->
<g id="node9" class="node"><title>Node9</title>
<g id="a_node9"><a xlink:href="SQLiteTest_8cpp.html#afdd1742979cee35fe1879794bd7ff3a4" target="_top" xlink:title="tempFilename">
<polygon fill="white" stroke="black" points="140,-0.5 140,-19.5 218,-19.5 218,-0.5 140,-0.5"/>
<text text-anchor="middle" x="179" y="-7.5" font-family="Helvetica,sans-Serif" font-size="10.00">tempFilename</text>
</a>
</g>
</g>
<!-- Node1&#45;&gt;Node9 -->
<g id="edge8" class="edge"><title>Node1&#45;&gt;Node9</title>
<path fill="none" stroke="midnightblue" d="M95.2525,-22.1406C106.457,-20.4966 118.443,-18.7381 129.715,-17.0842"/>
<polygon fill="midnightblue" stroke="midnightblue" points="130.438,-20.5157 139.824,-15.6011 129.422,-13.5899 130.438,-20.5157"/>
</g>
<!-- Node3 -->
<g id="node3" class="node"><title>Node3</title>
<g id="a_node3"><a xlink:href="classpdal_1_1Option.html#aef4422b88464a9cad83b3c11bf1f8cdd" target="_top" xlink:title="pdal::Option::nameValid">
<polygon fill="white" stroke="black" points="263,-57.5 263,-76.5 384,-76.5 384,-57.5 263,-57.5"/>
<text text-anchor="middle" x="323.5" y="-64.5" font-family="Helvetica,sans-Serif" font-size="10.00">pdal::Option::nameValid</text>
</a>
</g>
</g>
<!-- Node2&#45;&gt;Node3 -->
<g id="edge2" class="edge"><title>Node2&#45;&gt;Node3</title>
<path fill="none" stroke="midnightblue" d="M227.055,-54.274C235.271,-55.3694 243.973,-56.5298 252.649,-57.6865"/>
<polygon fill="midnightblue" stroke="midnightblue" points="252.414,-61.1861 262.789,-59.0385 253.339,-54.2475 252.414,-61.1861"/>
</g>
<!-- Node8 -->
<g id="node8" class="node"><title>Node8</title>
<g id="a_node8"><a xlink:href="classpdal_1_1Option.html#ad2b7a736742fb343e421fa326ef45c23" target="_top" xlink:title="pdal::Option::getName">
<polygon fill="white" stroke="black" points="266,-19.5 266,-38.5 381,-38.5 381,-19.5 266,-19.5"/>
<text text-anchor="middle" x="323.5" y="-26.5" font-family="Helvetica,sans-Serif" font-size="10.00">pdal::Option::getName</text>
</a>
</g>
</g>
<!-- Node2&#45;&gt;Node8 -->
<g id="edge7" class="edge"><title>Node2&#45;&gt;Node8</title>
<path fill="none" stroke="midnightblue" d="M227.055,-41.726C236.26,-40.4986 246.078,-39.1896 255.782,-37.8957"/>
<polygon fill="midnightblue" stroke="midnightblue" points="256.375,-41.3478 265.824,-36.5567 255.449,-34.4092 256.375,-41.3478"/>
</g>
<!-- Node4 -->
<g id="node4" class="node"><title>Node4</title>
<g id="a_node4"><a xlink:href="classpdal_1_1Option.html#a978a36cf9180d3636ea770988961952b" target="_top" xlink:title="pdal::Option::parse">
<polygon fill="white" stroke="black" points="424,-76.5 424,-95.5 523,-95.5 523,-76.5 424,-76.5"/>
<text text-anchor="middle" x="473.5" y="-83.5" font-family="Helvetica,sans-Serif" font-size="10.00">pdal::Option::parse</text>
</a>
</g>
</g>
<!-- Node3&#45;&gt;Node4 -->
<g id="edge3" class="edge"><title>Node3&#45;&gt;Node4</title>
<path fill="none" stroke="midnightblue" d="M384.271,-74.6733C394.036,-75.9269 404.144,-77.2246 413.881,-78.4746"/>
<polygon fill="midnightblue" stroke="midnightblue" points="413.499,-81.9542 423.863,-79.7561 414.39,-75.0111 413.499,-81.9542"/>
</g>
<!-- Node7 -->
<g id="node7" class="node"><title>Node7</title>
<g id="a_node7"><a xlink:href="namespacepdal_1_1Utils.html#ada321695f57c876ef51227bdf5b84f7a" target="_top" xlink:title="pdal::Utils::printError">
<polygon fill="white" stroke="black" points="420,-38.5 420,-57.5 527,-57.5 527,-38.5 420,-38.5"/>
<text text-anchor="middle" x="473.5" y="-45.5" font-family="Helvetica,sans-Serif" font-size="10.00">pdal::Utils::printError</text>
</a>
</g>
</g>
<!-- Node3&#45;&gt;Node7 -->
<g id="edge6" class="edge"><title>Node3&#45;&gt;Node7</title>
<path fill="none" stroke="midnightblue" d="M384.271,-59.3267C392.598,-58.2577 401.175,-57.1566 409.558,-56.0804"/>
<polygon fill="midnightblue" stroke="midnightblue" points="410.185,-59.5287 419.658,-54.7838 409.294,-52.5857 410.185,-59.5287"/>
</g>
<!-- Node5 -->
<g id="node5" class="node"><title>Node5</title>
<g id="a_node5"><a xlink:href="namespacepdal_1_1Utils.html#acae5a19cd66121b77e2599daec48413d" target="_top" xlink:title="pdal::Utils::extract">
<polygon fill="white" stroke="black" points="573,-95.5 573,-114.5 670,-114.5 670,-95.5 573,-95.5"/>
<text text-anchor="middle" x="621.5" y="-102.5" font-family="Helvetica,sans-Serif" font-size="10.00">pdal::Utils::extract</text>
</a>
</g>
</g>
<!-- Node4&#45;&gt;Node5 -->
<g id="edge4" class="edge"><title>Node4&#45;&gt;Node5</title>
<path fill="none" stroke="midnightblue" d="M523.116,-92.3267C535.683,-93.9622 549.34,-95.7394 562.341,-97.4313"/>
<polygon fill="midnightblue" stroke="midnightblue" points="562.225,-100.946 572.593,-98.7655 563.128,-94.0042 562.225,-100.946"/>
</g>
<!-- Node6 -->
<g id="node6" class="node"><title>Node6</title>
<g id="a_node6"><a xlink:href="namespacepdal_1_1Dimension.html#af3176b0b7e6b4be000317846cf7c2718" target="_top" xlink:title="pdal::Dimension::name">
<polygon fill="white" stroke="black" points="563,-57.5 563,-76.5 680,-76.5 680,-57.5 563,-57.5"/>
<text text-anchor="middle" x="621.5" y="-64.5" font-family="Helvetica,sans-Serif" font-size="10.00">pdal::Dimension::name</text>
</a>
</g>
</g>
<!-- Node4&#45;&gt;Node6 -->
<g id="edge5" class="edge"><title>Node4&#45;&gt;Node6</title>
<path fill="none" stroke="midnightblue" d="M523.116,-79.6733C532.697,-78.4264 542.911,-77.0972 552.985,-75.7862"/>
<polygon fill="midnightblue" stroke="midnightblue" points="553.519,-79.2463 562.984,-74.485 552.616,-72.3049 553.519,-79.2463"/>
</g>
</g>
</svg>
