<?xml version="1.0" encoding="UTF-8" standalone="no"?>
<!DOCTYPE svg PUBLIC "-//W3C//DTD SVG 1.1//EN"
 "http://www.w3.org/Graphics/SVG/1.1/DTD/svg11.dtd">
<!-- Generated by graphviz version 2.38.0 (20140413.2041)
 -->
<!-- Title: TEST Pages: 1 -->
<svg width="908pt" height="946pt"
 viewBox="0.00 0.00 908.00 945.50" xmlns="http://www.w3.org/2000/svg" xmlns:xlink="http://www.w3.org/1999/xlink">
<g id="graph0" class="graph" transform="scale(1 1) rotate(0) translate(4 941.5)">
<title>TEST</title>
<polygon fill="white" stroke="none" points="-4,4 -4,-941.5 904,-941.5 904,4 -4,4"/>
<!-- Node1 -->
<g id="node1" class="node"><title>Node1</title>
<polygon fill="#bfbfbf" stroke="black" points="0,-320.5 0,-339.5 42,-339.5 42,-320.5 0,-320.5"/>
<text text-anchor="middle" x="21" y="-327.5" font-family="Helvetica,sans-Serif" font-size="10.00">TEST</text>
</g>
<!-- Node2 -->
<g id="node2" class="node"><title>Node2</title>
<g id="a_node2"><a xlink:href="classpdal_1_1Options.html#a30826da39f9c4716412141eeeb719032" target="_top" xlink:title="pdal::Options::add">
<polygon fill="white" stroke="black" points="458,-0.5 458,-19.5 554,-19.5 554,-0.5 458,-0.5"/>
<text text-anchor="middle" x="506" y="-7.5" font-family="Helvetica,sans-Serif" font-size="10.00">pdal::Options::add</text>
</a>
</g>
</g>
<!-- Node1&#45;&gt;Node2 -->
<g id="edge1" class="edge"><title>Node1&#45;&gt;Node2</title>
<path fill="none" stroke="midnightblue" d="M22.2766,-320.305C23.6258,-291.458 31.5464,-205.252 78,-158 117.217,-118.109 144.384,-135.996 197,-117 301.118,-79.4112 324.401,-62.2006 430,-29 437.743,-26.5655 446.01,-24.2216 454.122,-22.0613"/>
<polygon fill="midnightblue" stroke="midnightblue" points="455.094,-25.4248 463.893,-19.5233 453.335,-18.6496 455.094,-25.4248"/>
</g>
<!-- Node7 -->
<g id="node7" class="node"><title>Node7</title>
<g id="a_node7"><a xlink:href="classpdal_1_1stats_1_1Summary.html#a33978d060fcc933705d96bf404683eec" target="_top" xlink:title="pdal::stats::Summary\l::average">
<polygon fill="white" stroke="black" points="82.5,-742 82.5,-772 192.5,-772 192.5,-742 82.5,-742"/>
<text text-anchor="start" x="90.5" y="-760" font-family="Helvetica,sans-Serif" font-size="10.00">pdal::stats::Summary</text>
<text text-anchor="middle" x="137.5" y="-749" font-family="Helvetica,sans-Serif" font-size="10.00">::average</text>
</a>
</g>
</g>
<!-- Node1&#45;&gt;Node7 -->
<g id="edge6" class="edge"><title>Node1&#45;&gt;Node7</title>
<path fill="none" stroke="midnightblue" d="M22.0748,-339.64C22.6835,-394.665 28.2089,-668.815 78,-733 78.5888,-733.759 79.2056,-734.494 79.848,-735.206"/>
<polygon fill="midnightblue" stroke="midnightblue" points="77.7582,-738.028 87.5866,-741.985 82.3705,-732.763 77.7582,-738.028"/>
</g>
<!-- Node8 -->
<g id="node8" class="node"><title>Node8</title>
<g id="a_node8"><a xlink:href="classpdal_1_1stats_1_1Summary.html#af99ed83ce5ce47159f1d0aff04abe706" target="_top" xlink:title="pdal::stats::Summary\l::count">
<polygon fill="white" stroke="black" points="82.5,-693 82.5,-723 192.5,-723 192.5,-693 82.5,-693"/>
<text text-anchor="start" x="90.5" y="-711" font-family="Helvetica,sans-Serif" font-size="10.00">pdal::stats::Summary</text>
<text text-anchor="middle" x="137.5" y="-700" font-family="Helvetica,sans-Serif" font-size="10.00">::count</text>
</a>
</g>
</g>
<!-- Node1&#45;&gt;Node8 -->
<g id="edge7" class="edge"><title>Node1&#45;&gt;Node8</title>
<path fill="none" stroke="midnightblue" d="M22.3024,-339.743C24.0667,-390.792 34.5101,-627.21 78,-683 78.9337,-684.198 79.9358,-685.339 80.9964,-686.426"/>
<polygon fill="midnightblue" stroke="midnightblue" points="78.806,-689.157 88.7373,-692.847 83.275,-683.769 78.806,-689.157"/>
</g>
<!-- Node9 -->
<g id="node9" class="node"><title>Node9</title>
<g id="a_node9"><a xlink:href="classpdal_1_1StageFactory.html#ac23b3763b84750594c834ec6ea27e334" target="_top" xlink:title="pdal::StageFactory\l::createStage">
<polygon fill="white" stroke="black" points="88,-837 88,-867 187,-867 187,-837 88,-837"/>
<text text-anchor="start" x="96" y="-855" font-family="Helvetica,sans-Serif" font-size="10.00">pdal::StageFactory</text>
<text text-anchor="middle" x="137.5" y="-844" font-family="Helvetica,sans-Serif" font-size="10.00">::createStage</text>
</a>
</g>
</g>
<!-- Node1&#45;&gt;Node9 -->
<g id="edge8" class="edge"><title>Node1&#45;&gt;Node9</title>
<path fill="none" stroke="midnightblue" d="M22.457,-339.693C25.2981,-397.609 41.6205,-698.23 78,-782 85.7845,-799.925 99.6555,-816.833 111.937,-829.54"/>
<polygon fill="midnightblue" stroke="midnightblue" points="109.754,-832.305 119.31,-836.88 114.693,-827.344 109.754,-832.305"/>
</g>
<!-- Node12 -->
<g id="node12" class="node"><title>Node12</title>
<g id="a_node12"><a xlink:href="classpdal_1_1Stage.html#a1615c4aa5ec5e48f90d73f0e7a796935" target="_top" xlink:title="pdal::Stage::execute">
<polygon fill="white" stroke="black" points="84,-636.5 84,-655.5 191,-655.5 191,-636.5 84,-636.5"/>
<text text-anchor="middle" x="137.5" y="-643.5" font-family="Helvetica,sans-Serif" font-size="10.00">pdal::Stage::execute</text>
</a>
</g>
</g>
<!-- Node1&#45;&gt;Node12 -->
<g id="edge11" class="edge"><title>Node1&#45;&gt;Node12</title>
<path fill="none" stroke="midnightblue" d="M25.5523,-339.804C41.6142,-384.132 107.61,-566.27 129.448,-626.536"/>
<polygon fill="midnightblue" stroke="midnightblue" points="126.292,-628.101 132.989,-636.311 132.873,-625.716 126.292,-628.101"/>
</g>
<!-- Node26 -->
<g id="node26" class="node"><title>Node26</title>
<g id="a_node26"><a xlink:href="namespacehag.html#a39becb5458bcac317093e468da1639be" target="_top" xlink:title="hag.filter">
<polygon fill="white" stroke="black" points="110.5,-442.5 110.5,-461.5 164.5,-461.5 164.5,-442.5 110.5,-442.5"/>
<text text-anchor="middle" x="137.5" y="-449.5" font-family="Helvetica,sans-Serif" font-size="10.00">hag.filter</text>
</a>
</g>
</g>
<!-- Node1&#45;&gt;Node26 -->
<g id="edge26" class="edge"><title>Node1&#45;&gt;Node26</title>
<path fill="none" stroke="midnightblue" d="M27.1007,-339.539C35.9723,-355.555 55.4665,-388.322 78,-411 87.766,-420.829 100.149,-429.887 111.006,-436.976"/>
<polygon fill="midnightblue" stroke="midnightblue" points="109.349,-440.069 119.675,-442.441 113.082,-434.147 109.349,-440.069"/>
</g>
<!-- Node29 -->
<g id="node29" class="node"><title>Node29</title>
<g id="a_node29"><a xlink:href="classpdal_1_1StatsFilter.html#afd165252d3101d3d003e06d66e642c4d" target="_top" xlink:title="pdal::StatsFilter::\lgetName">
<polygon fill="white" stroke="black" points="91.5,-315 91.5,-345 183.5,-345 183.5,-315 91.5,-315"/>
<text text-anchor="start" x="99.5" y="-333" font-family="Helvetica,sans-Serif" font-size="10.00">pdal::StatsFilter::</text>
<text text-anchor="middle" x="137.5" y="-322" font-family="Helvetica,sans-Serif" font-size="10.00">getName</text>
</a>
</g>
</g>
<!-- Node1&#45;&gt;Node29 -->
<g id="edge29" class="edge"><title>Node1&#45;&gt;Node29</title>
<path fill="none" stroke="midnightblue" d="M42.2067,-330C53.1589,-330 67.2809,-330 81.2444,-330"/>
<polygon fill="midnightblue" stroke="midnightblue" points="81.3365,-333.5 91.3365,-330 81.3364,-326.5 81.3365,-333.5"/>
</g>
<!-- Node30 -->
<g id="node30" class="node"><title>Node30</title>
<g id="a_node30"><a xlink:href="classpdal_1_1StatsFilter.html#ab1e68b1d260f645eee5206c00ca27a80" target="_top" xlink:title="pdal::StatsFilter::\lgetStats">
<polygon fill="white" stroke="black" points="91.5,-266 91.5,-296 183.5,-296 183.5,-266 91.5,-266"/>
<text text-anchor="start" x="99.5" y="-284" font-family="Helvetica,sans-Serif" font-size="10.00">pdal::StatsFilter::</text>
<text text-anchor="middle" x="137.5" y="-273" font-family="Helvetica,sans-Serif" font-size="10.00">getStats</text>
</a>
</g>
</g>
<!-- Node1&#45;&gt;Node30 -->
<g id="edge30" class="edge"><title>Node1&#45;&gt;Node30</title>
<path fill="none" stroke="midnightblue" d="M42.1526,-320.825C52.7814,-316.031 66.0594,-310.113 78,-305 81.86,-303.347 85.8724,-301.652 89.9057,-299.965"/>
<polygon fill="midnightblue" stroke="midnightblue" points="91.4005,-303.134 99.2923,-296.065 88.7148,-296.67 91.4005,-303.134"/>
</g>
<!-- Node31 -->
<g id="node31" class="node"><title>Node31</title>
<g id="a_node31"><a xlink:href="classpdal_1_1stats_1_1Summary.html#ae0c75116f5fb9073b0c28e36c336ed78" target="_top" xlink:title="pdal::stats::Summary\l::maximum">
<polygon fill="white" stroke="black" points="82.5,-217 82.5,-247 192.5,-247 192.5,-217 82.5,-217"/>
<text text-anchor="start" x="90.5" y="-235" font-family="Helvetica,sans-Serif" font-size="10.00">pdal::stats::Summary</text>
<text text-anchor="middle" x="137.5" y="-224" font-family="Helvetica,sans-Serif" font-size="10.00">::maximum</text>
</a>
</g>
</g>
<!-- Node1&#45;&gt;Node31 -->
<g id="edge31" class="edge"><title>Node1&#45;&gt;Node31</title>
<path fill="none" stroke="midnightblue" d="M27.2233,-320.024C35.8578,-304.402 54.5111,-274.085 78,-256 79.7668,-254.64 81.6216,-253.344 83.5391,-252.112"/>
<polygon fill="midnightblue" stroke="midnightblue" points="85.3362,-255.116 92.2715,-247.106 81.8551,-249.043 85.3362,-255.116"/>
</g>
<!-- Node32 -->
<g id="node32" class="node"><title>Node32</title>
<g id="a_node32"><a xlink:href="classpdal_1_1stats_1_1Summary.html#a66c315628ff60b33e548efb4886062f9" target="_top" xlink:title="pdal::stats::Summary\l::minimum">
<polygon fill="white" stroke="black" points="82.5,-168 82.5,-198 192.5,-198 192.5,-168 82.5,-168"/>
<text text-anchor="start" x="90.5" y="-186" font-family="Helvetica,sans-Serif" font-size="10.00">pdal::stats::Summary</text>
<text text-anchor="middle" x="137.5" y="-175" font-family="Helvetica,sans-Serif" font-size="10.00">::minimum</text>
</a>
</g>
</g>
<!-- Node1&#45;&gt;Node32 -->
<g id="edge32" class="edge"><title>Node1&#45;&gt;Node32</title>
<path fill="none" stroke="midnightblue" d="M23.8663,-320.278C28.7291,-297.45 43.8568,-239.872 78,-207 79.1121,-205.929 80.2785,-204.904 81.49,-203.922"/>
<polygon fill="midnightblue" stroke="midnightblue" points="83.7759,-206.598 90.04,-198.053 79.8145,-200.827 83.7759,-206.598"/>
</g>
<!-- Node33 -->
<g id="node33" class="node"><title>Node33</title>
<g id="a_node33"><a xlink:href="classpdal_1_1Stage.html#a4b9296a59f8852b3d08630f1086bfbea" target="_top" xlink:title="pdal::Stage::prepare">
<polygon fill="white" stroke="black" points="85.5,-364.5 85.5,-383.5 189.5,-383.5 189.5,-364.5 85.5,-364.5"/>
<text text-anchor="middle" x="137.5" y="-371.5" font-family="Helvetica,sans-Serif" font-size="10.00">pdal::Stage::prepare</text>
</a>
</g>
</g>
<!-- Node1&#45;&gt;Node33 -->
<g id="edge33" class="edge"><title>Node1&#45;&gt;Node33</title>
<path fill="none" stroke="midnightblue" d="M42.0673,-339.036C52.6727,-343.7 65.9556,-349.368 78,-354 84.327,-356.433 91.0927,-358.883 97.6955,-361.194"/>
<polygon fill="midnightblue" stroke="midnightblue" points="96.5882,-364.514 107.183,-364.46 98.8672,-357.895 96.5882,-364.514"/>
</g>
<!-- Node49 -->
<g id="node49" class="node"><title>Node49</title>
<g id="a_node49"><a xlink:href="classpdal_1_1Stage.html#abfd87d459bea04a919aace286b2e377e" target="_top" xlink:title="pdal::Stage::setInput">
<polygon fill="white" stroke="black" points="84,-88.5 84,-107.5 191,-107.5 191,-88.5 84,-88.5"/>
<text text-anchor="middle" x="137.5" y="-95.5" font-family="Helvetica,sans-Serif" font-size="10.00">pdal::Stage::setInput</text>
</a>
</g>
</g>
<!-- Node1&#45;&gt;Node49 -->
<g id="edge61" class="edge"><title>Node1&#45;&gt;Node49</title>
<path fill="none" stroke="midnightblue" d="M21.7591,-320.346C21.4759,-288.034 24.8481,-182.329 78,-122 81.2747,-118.283 85.2126,-115.131 89.4782,-112.46"/>
<polygon fill="midnightblue" stroke="midnightblue" points="91.3942,-115.405 98.5864,-107.626 88.1125,-109.222 91.3942,-115.405"/>
</g>
<!-- Node50 -->
<g id="node50" class="node"><title>Node50</title>
<g id="a_node50"><a xlink:href="classpdal_1_1Stage.html#acb2434df20f371f1fec9577de3cf0046" target="_top" xlink:title="pdal::Stage::setOptions">
<polygon fill="white" stroke="black" points="78,-50.5 78,-69.5 197,-69.5 197,-50.5 78,-50.5"/>
<text text-anchor="middle" x="137.5" y="-57.5" font-family="Helvetica,sans-Serif" font-size="10.00">pdal::Stage::setOptions</text>
</a>
</g>
</g>
<!-- Node1&#45;&gt;Node50 -->
<g id="edge62" class="edge"><title>Node1&#45;&gt;Node50</title>
<path fill="none" stroke="midnightblue" d="M22.8818,-320.399C26.8705,-278.954 44.501,-115.825 78,-79 79.2103,-77.6695 80.5147,-76.4318 81.8953,-75.2805"/>
<polygon fill="midnightblue" stroke="midnightblue" points="84.1008,-78.0184 90.5155,-69.5862 80.2425,-72.1777 84.1008,-78.0184"/>
</g>
<!-- Node3 -->
<g id="node3" class="node"><title>Node3</title>
<g id="a_node3"><a xlink:href="classpdal_1_1Option.html#aef4422b88464a9cad83b3c11bf1f8cdd" target="_top" xlink:title="pdal::Option::nameValid">
<polygon fill="white" stroke="black" points="627,-25.5 627,-44.5 748,-44.5 748,-25.5 627,-25.5"/>
<text text-anchor="middle" x="687.5" y="-32.5" font-family="Helvetica,sans-Serif" font-size="10.00">pdal::Option::nameValid</text>
</a>
</g>
</g>
<!-- Node2&#45;&gt;Node3 -->
<g id="edge2" class="edge"><title>Node2&#45;&gt;Node3</title>
<path fill="none" stroke="midnightblue" d="M554.162,-16.5685C573.264,-19.229 595.718,-22.3563 616.651,-25.2717"/>
<polygon fill="midnightblue" stroke="midnightblue" points="616.396,-28.77 626.784,-26.683 617.362,-21.8369 616.396,-28.77"/>
</g>
<!-- Node6 -->
<g id="node6" class="node"><title>Node6</title>
<g id="a_node6"><a xlink:href="classpdal_1_1Option.html#ad2b7a736742fb343e421fa326ef45c23" target="_top" xlink:title="pdal::Option::getName">
<polygon fill="white" stroke="black" points="630,-88.5 630,-107.5 745,-107.5 745,-88.5 630,-88.5"/>
<text text-anchor="middle" x="687.5" y="-95.5" font-family="Helvetica,sans-Serif" font-size="10.00">pdal::Option::getName</text>
</a>
</g>
</g>
<!-- Node2&#45;&gt;Node6 -->
<g id="edge5" class="edge"><title>Node2&#45;&gt;Node6</title>
<path fill="none" stroke="midnightblue" d="M554.297,-19.2309C563.688,-21.8232 573.322,-25.0456 582,-29 599.726,-37.0771 601.802,-43.1788 618,-54 632.706,-63.8246 649.4,-74.5567 662.627,-82.9621"/>
<polygon fill="midnightblue" stroke="midnightblue" points="660.841,-85.9744 671.162,-88.3697 664.588,-80.0612 660.841,-85.9744"/>
</g>
<!-- Node4 -->
<g id="node4" class="node"><title>Node4</title>
<g id="a_node4"><a xlink:href="classpdal_1_1Option.html#a978a36cf9180d3636ea770988961952b" target="_top" xlink:title="pdal::Option::parse">
<polygon fill="white" stroke="red" points="797,-44.5 797,-63.5 896,-63.5 896,-44.5 797,-44.5"/>
<text text-anchor="middle" x="846.5" y="-51.5" font-family="Helvetica,sans-Serif" font-size="10.00">pdal::Option::parse</text>
</a>
</g>
</g>
<!-- Node3&#45;&gt;Node4 -->
<g id="edge3" class="edge"><title>Node3&#45;&gt;Node4</title>
<path fill="none" stroke="midnightblue" d="M748.303,-42.2373C760.76,-43.7448 773.884,-45.333 786.318,-46.8378"/>
<polygon fill="midnightblue" stroke="midnightblue" points="786.223,-50.3518 796.571,-48.0786 787.064,-43.4025 786.223,-50.3518"/>
</g>
<!-- Node5 -->
<g id="node5" class="node"><title>Node5</title>
<g id="a_node5"><a xlink:href="namespacepdal_1_1Utils.html#ada321695f57c876ef51227bdf5b84f7a" target="_top" xlink:title="pdal::Utils::printError">
<polygon fill="white" stroke="black" points="793,-6.5 793,-25.5 900,-25.5 900,-6.5 793,-6.5"/>
<text text-anchor="middle" x="846.5" y="-13.5" font-family="Helvetica,sans-Serif" font-size="10.00">pdal::Utils::printError</text>
</a>
</g>
</g>
<!-- Node3&#45;&gt;Node5 -->
<g id="edge4" class="edge"><title>Node3&#45;&gt;Node5</title>
<path fill="none" stroke="midnightblue" d="M748.303,-27.7627C759.515,-26.4058 771.268,-24.9835 782.572,-23.6155"/>
<polygon fill="midnightblue" stroke="midnightblue" points="783.292,-27.054 792.799,-22.3778 782.451,-20.1047 783.292,-27.054"/>
</g>
<!-- Node10 -->
<g id="node10" class="node"><title>Node10</title>
<g id="a_node10"><a xlink:href="classpdal_1_1PluginManager.html#a70e78b2649f28e266ec11b7a9e183af9" target="_top" xlink:title="pdal::PluginManager\l::createObject">
<polygon fill="white" stroke="black" points="261,-907 261,-937 366,-937 366,-907 261,-907"/>
<text text-anchor="start" x="269" y="-925" font-family="Helvetica,sans-Serif" font-size="10.00">pdal::PluginManager</text>
<text text-anchor="middle" x="313.5" y="-914" font-family="Helvetica,sans-Serif" font-size="10.00">::createObject</text>
</a>
</g>
</g>
<!-- Node9&#45;&gt;Node10 -->
<g id="edge9" class="edge"><title>Node9&#45;&gt;Node10</title>
<path fill="none" stroke="midnightblue" d="M167.406,-867.059C185.879,-876.357 210.508,-888.158 233,-897 238.832,-899.293 244.967,-901.525 251.134,-903.652"/>
<polygon fill="midnightblue" stroke="midnightblue" points="250.22,-907.037 260.814,-906.901 252.448,-900.401 250.22,-907.037"/>
</g>
<!-- Node11 -->
<g id="node11" class="node"><title>Node11</title>
<g id="a_node11"><a xlink:href="classpdal_1_1PluginManager.html#a1d74a4219bdf2592c026084e0aa3809a" target="_top" xlink:title="pdal::PluginManager\l::l_createObject">
<polygon fill="white" stroke="red" points="453.5,-907 453.5,-937 558.5,-937 558.5,-907 453.5,-907"/>
<text text-anchor="start" x="461.5" y="-925" font-family="Helvetica,sans-Serif" font-size="10.00">pdal::PluginManager</text>
<text text-anchor="middle" x="506" y="-914" font-family="Helvetica,sans-Serif" font-size="10.00">::l_createObject</text>
</a>
</g>
</g>
<!-- Node10&#45;&gt;Node11 -->
<g id="edge10" class="edge"><title>Node10&#45;&gt;Node11</title>
<path fill="none" stroke="midnightblue" d="M366.052,-922C389.876,-922 418.357,-922 443.314,-922"/>
<polygon fill="midnightblue" stroke="midnightblue" points="443.407,-925.5 453.407,-922 443.407,-918.5 443.407,-925.5"/>
</g>
<!-- Node12&#45;&gt;Node12 -->
<g id="edge17" class="edge"><title>Node12&#45;&gt;Node12</title>
<path fill="none" stroke="midnightblue" d="M119.621,-655.757C110.923,-664.565 116.883,-674 137.5,-674 150.386,-674 157.546,-670.315 158.98,-665.4"/>
<polygon fill="midnightblue" stroke="midnightblue" points="162.157,-663.9 155.379,-655.757 155.599,-666.35 162.157,-663.9"/>
</g>
<!-- Node13 -->
<g id="node13" class="node"><title>Node13</title>
<g id="a_node13"><a xlink:href="classpdal_1_1Stage.html#a74cf636cb0f633411e4e40dcd718508a" target="_top" xlink:title="pdal::Stage::startLogging">
<polygon fill="white" stroke="black" points="443.5,-430.5 443.5,-449.5 568.5,-449.5 568.5,-430.5 443.5,-430.5"/>
<text text-anchor="middle" x="506" y="-437.5" font-family="Helvetica,sans-Serif" font-size="10.00">pdal::Stage::startLogging</text>
</a>
</g>
</g>
<!-- Node12&#45;&gt;Node13 -->
<g id="edge12" class="edge"><title>Node12&#45;&gt;Node13</title>
<path fill="none" stroke="midnightblue" d="M153.19,-655.58C194.714,-681.339 315.047,-746.741 394,-695 476.799,-640.739 498.17,-509.827 503.398,-459.848"/>
<polygon fill="midnightblue" stroke="midnightblue" points="506.899,-459.999 504.348,-449.716 499.93,-459.346 506.899,-459.999"/>
</g>
<!-- Node17 -->
<g id="node17" class="node"><title>Node17</title>
<g id="a_node17"><a xlink:href="classpdal_1_1BasePointTable.html#a2554cd260c437c9b1e4a017a28a5c7de" target="_top" xlink:title="pdal::BasePointTable\l::finalize">
<polygon fill="white" stroke="black" points="258.5,-655 258.5,-685 368.5,-685 368.5,-655 258.5,-655"/>
<text text-anchor="start" x="266.5" y="-673" font-family="Helvetica,sans-Serif" font-size="10.00">pdal::BasePointTable</text>
<text text-anchor="middle" x="313.5" y="-662" font-family="Helvetica,sans-Serif" font-size="10.00">::finalize</text>
</a>
</g>
</g>
<!-- Node12&#45;&gt;Node17 -->
<g id="edge16" class="edge"><title>Node12&#45;&gt;Node17</title>
<path fill="none" stroke="midnightblue" d="M191.178,-653.266C209.237,-655.757 229.647,-658.572 248.503,-661.173"/>
<polygon fill="midnightblue" stroke="midnightblue" points="248.112,-664.652 258.497,-662.551 249.069,-657.718 248.112,-664.652"/>
</g>
<!-- Node18 -->
<g id="node18" class="node"><title>Node18</title>
<g id="a_node18"><a xlink:href="classpdal_1_1BasePointTable.html#aa3ed63a9e1a8897ccb7dc81a614f6141" target="_top" xlink:title="pdal::BasePointTable\l::clearSpatialReferences">
<polygon fill="white" stroke="black" points="251.5,-606 251.5,-636 375.5,-636 375.5,-606 251.5,-606"/>
<text text-anchor="start" x="259.5" y="-624" font-family="Helvetica,sans-Serif" font-size="10.00">pdal::BasePointTable</text>
<text text-anchor="middle" x="313.5" y="-613" font-family="Helvetica,sans-Serif" font-size="10.00">::clearSpatialReferences</text>
</a>
</g>
</g>
<!-- Node12&#45;&gt;Node18 -->
<g id="edge18" class="edge"><title>Node12&#45;&gt;Node18</title>
<path fill="none" stroke="midnightblue" d="M191.178,-638.431C206.916,-636.17 224.439,-633.652 241.163,-631.25"/>
<polygon fill="midnightblue" stroke="midnightblue" points="242.05,-634.658 251.45,-629.771 241.054,-627.729 242.05,-634.658"/>
</g>
<!-- Node19 -->
<g id="node19" class="node"><title>Node19</title>
<g id="a_node19"><a xlink:href="classpdal_1_1BasePointTable.html#a670592aca912391f1a90073a2031e5e0" target="_top" xlink:title="pdal::BasePointTable\l::addSpatialReference">
<polygon fill="white" stroke="black" points="257,-557 257,-587 370,-587 370,-557 257,-557"/>
<text text-anchor="start" x="265" y="-575" font-family="Helvetica,sans-Serif" font-size="10.00">pdal::BasePointTable</text>
<text text-anchor="middle" x="313.5" y="-564" font-family="Helvetica,sans-Serif" font-size="10.00">::addSpatialReference</text>
</a>
</g>
</g>
<!-- Node12&#45;&gt;Node19 -->
<g id="edge19" class="edge"><title>Node12&#45;&gt;Node19</title>
<path fill="none" stroke="midnightblue" d="M154.813,-636.43C173.327,-625.834 204.643,-608.706 233,-597 238.483,-594.736 244.249,-592.557 250.067,-590.492"/>
<polygon fill="midnightblue" stroke="midnightblue" points="251.542,-593.686 259.865,-587.131 249.271,-587.065 251.542,-593.686"/>
</g>
<!-- Node20 -->
<g id="node20" class="node"><title>Node20</title>
<g id="a_node20"><a xlink:href="classpdal_1_1Stage.html#afb562c59c53ed8120df9106655eb2543" target="_top" xlink:title="pdal::Stage::ready">
<polygon fill="white" stroke="black" points="265.5,-868.5 265.5,-887.5 361.5,-887.5 361.5,-868.5 265.5,-868.5"/>
<text text-anchor="middle" x="313.5" y="-875.5" font-family="Helvetica,sans-Serif" font-size="10.00">pdal::Stage::ready</text>
</a>
</g>
</g>
<!-- Node12&#45;&gt;Node20 -->
<g id="edge20" class="edge"><title>Node12&#45;&gt;Node20</title>
<path fill="none" stroke="midnightblue" d="M161.489,-655.545C173.865,-661.844 188.331,-671.295 197,-684 241.758,-749.591 177.748,-801.968 233,-859 239.17,-865.369 247.064,-869.76 255.473,-872.76"/>
<polygon fill="midnightblue" stroke="midnightblue" points="254.541,-876.134 265.122,-875.588 256.51,-869.417 254.541,-876.134"/>
</g>
<!-- Node21 -->
<g id="node21" class="node"><title>Node21</title>
<g id="a_node21"><a xlink:href="classpdal_1_1Stage.html#a9889b4446f40daa6f4cd7bfe3c567839" target="_top" xlink:title="pdal::Stage::getSpatialReference">
<polygon fill="white" stroke="black" points="233,-830.5 233,-849.5 394,-849.5 394,-830.5 233,-830.5"/>
<text text-anchor="middle" x="313.5" y="-837.5" font-family="Helvetica,sans-Serif" font-size="10.00">pdal::Stage::getSpatialReference</text>
</a>
</g>
</g>
<!-- Node12&#45;&gt;Node21 -->
<g id="edge21" class="edge"><title>Node12&#45;&gt;Node21</title>
<path fill="none" stroke="midnightblue" d="M160.939,-655.577C173.294,-661.936 187.919,-671.436 197,-684 233.878,-735.024 187.988,-776.984 233,-821 234.446,-822.414 235.977,-823.729 237.58,-824.952"/>
<polygon fill="midnightblue" stroke="midnightblue" points="235.796,-827.965 246.123,-830.334 239.527,-822.042 235.796,-827.965"/>
</g>
<!-- Node22 -->
<g id="node22" class="node"><title>Node22</title>
<g id="a_node22"><a xlink:href="classpdal_1_1SpatialReference.html#a48fa2f7e79ea172b62ad2e874ff01610" target="_top" xlink:title="pdal::SpatialReference\l::empty">
<polygon fill="white" stroke="black" points="255.5,-781 255.5,-811 371.5,-811 371.5,-781 255.5,-781"/>
<text text-anchor="start" x="263.5" y="-799" font-family="Helvetica,sans-Serif" font-size="10.00">pdal::SpatialReference</text>
<text text-anchor="middle" x="313.5" y="-788" font-family="Helvetica,sans-Serif" font-size="10.00">::empty</text>
</a>
</g>
</g>
<!-- Node12&#45;&gt;Node22 -->
<g id="edge22" class="edge"><title>Node12&#45;&gt;Node22</title>
<path fill="none" stroke="midnightblue" d="M159.468,-655.606C171.777,-662.135 186.858,-671.8 197,-684 223.751,-716.18 202.142,-742.735 233,-771 236.901,-774.573 241.309,-777.636 246,-780.26"/>
<polygon fill="midnightblue" stroke="midnightblue" points="244.788,-783.562 255.311,-784.787 247.849,-777.267 244.788,-783.562"/>
</g>
<!-- Node23 -->
<g id="node23" class="node"><title>Node23</title>
<g id="a_node23"><a xlink:href="classpdal_1_1Stage.html#a1b00532ede55b90a7b6332a2966f5626" target="_top" xlink:title="pdal::Stage::l_done">
<polygon fill="white" stroke="black" points="263,-742.5 263,-761.5 364,-761.5 364,-742.5 263,-742.5"/>
<text text-anchor="middle" x="313.5" y="-749.5" font-family="Helvetica,sans-Serif" font-size="10.00">pdal::Stage::l_done</text>
</a>
</g>
</g>
<!-- Node12&#45;&gt;Node23 -->
<g id="edge23" class="edge"><title>Node12&#45;&gt;Node23</title>
<path fill="none" stroke="midnightblue" d="M156.132,-655.518C168.293,-662.529 184.462,-672.767 197,-684 215.819,-700.861 211.992,-713.961 233,-728 239.574,-732.393 246.98,-736.006 254.56,-738.97"/>
<polygon fill="midnightblue" stroke="midnightblue" points="253.61,-742.347 264.204,-742.389 255.948,-735.749 253.61,-742.347"/>
</g>
<!-- Node25 -->
<g id="node25" class="node"><title>Node25</title>
<g id="a_node25"><a xlink:href="classpdal_1_1Stage.html#ae49e996fe285350923a3bf44d027adad" target="_top" xlink:title="pdal::Stage::stopLogging">
<polygon fill="white" stroke="black" points="251,-480.5 251,-499.5 376,-499.5 376,-480.5 251,-480.5"/>
<text text-anchor="middle" x="313.5" y="-487.5" font-family="Helvetica,sans-Serif" font-size="10.00">pdal::Stage::stopLogging</text>
</a>
</g>
</g>
<!-- Node12&#45;&gt;Node25 -->
<g id="edge25" class="edge"><title>Node12&#45;&gt;Node25</title>
<path fill="none" stroke="midnightblue" d="M142.288,-636.214C152.63,-610.854 183.9,-542.647 233,-509 235.897,-507.015 238.977,-505.236 242.178,-503.641"/>
<polygon fill="midnightblue" stroke="midnightblue" points="243.678,-506.806 251.465,-499.621 240.897,-500.382 243.678,-506.806"/>
</g>
<!-- Node14 -->
<g id="node14" class="node"><title>Node14</title>
<g id="a_node14"><a xlink:href="classpdal_1_1gdal_1_1ErrorHandler.html#a56e0125595a43bf3b0cbd0b9a4bc55ea" target="_top" xlink:title="pdal::gdal::ErrorHandler\l::getGlobalErrorHandler">
<polygon fill="white" stroke="red" points="628,-428 628,-458 747,-458 747,-428 628,-428"/>
<text text-anchor="start" x="636" y="-446" font-family="Helvetica,sans-Serif" font-size="10.00">pdal::gdal::ErrorHandler</text>
<text text-anchor="middle" x="687.5" y="-435" font-family="Helvetica,sans-Serif" font-size="10.00">::getGlobalErrorHandler</text>
</a>
</g>
</g>
<!-- Node13&#45;&gt;Node14 -->
<g id="edge13" class="edge"><title>Node13&#45;&gt;Node14</title>
<path fill="none" stroke="midnightblue" d="M568.523,-441.028C584.257,-441.291 601.28,-441.576 617.369,-441.845"/>
<polygon fill="midnightblue" stroke="midnightblue" points="617.727,-445.351 627.784,-442.019 617.844,-438.352 617.727,-445.351"/>
</g>
<!-- Node15 -->
<g id="node15" class="node"><title>Node15</title>
<g id="a_node15"><a xlink:href="classpdal_1_1gdal_1_1ErrorHandler.html#ace1cff928ab179f671181ebaf4d280a4" target="_top" xlink:title="pdal::gdal::ErrorHandler::set">
<polygon fill="white" stroke="red" points="618,-389.5 618,-408.5 757,-408.5 757,-389.5 618,-389.5"/>
<text text-anchor="middle" x="687.5" y="-396.5" font-family="Helvetica,sans-Serif" font-size="10.00">pdal::gdal::ErrorHandler::set</text>
</a>
</g>
</g>
<!-- Node13&#45;&gt;Node15 -->
<g id="edge14" class="edge"><title>Node13&#45;&gt;Node15</title>
<path fill="none" stroke="midnightblue" d="M548.632,-430.491C574.367,-424.613 607.595,-417.023 634.982,-410.767"/>
<polygon fill="midnightblue" stroke="midnightblue" points="635.814,-414.168 644.783,-408.529 634.255,-407.343 635.814,-414.168"/>
</g>
<!-- Node16 -->
<g id="node16" class="node"><title>Node16</title>
<g id="a_node16"><a xlink:href="classpdal_1_1Stage.html#aec4fb27c40bb4b032ff003a89a950dd4" target="_top" xlink:title="pdal::Stage::isDebug">
<polygon fill="white" stroke="black" points="633.5,-351.5 633.5,-370.5 741.5,-370.5 741.5,-351.5 633.5,-351.5"/>
<text text-anchor="middle" x="687.5" y="-358.5" font-family="Helvetica,sans-Serif" font-size="10.00">pdal::Stage::isDebug</text>
</a>
</g>
</g>
<!-- Node13&#45;&gt;Node16 -->
<g id="edge15" class="edge"><title>Node13&#45;&gt;Node16</title>
<path fill="none" stroke="midnightblue" d="M561.448,-430.386C568.643,-427.933 575.699,-424.856 582,-421 602.684,-408.342 597.46,-392.889 618,-380 621.373,-377.883 624.984,-375.999 628.719,-374.321"/>
<polygon fill="midnightblue" stroke="midnightblue" points="630.19,-377.502 638.195,-370.562 627.609,-370.996 630.19,-377.502"/>
</g>
<!-- Node24 -->
<g id="node24" class="node"><title>Node24</title>
<g id="a_node24"><a xlink:href="classpdal_1_1Stage.html#a2444e73dc41bfc0b94981909595ef2ca" target="_top" xlink:title="pdal::Stage::done">
<polygon fill="white" stroke="black" points="459.5,-742.5 459.5,-761.5 552.5,-761.5 552.5,-742.5 459.5,-742.5"/>
<text text-anchor="middle" x="506" y="-749.5" font-family="Helvetica,sans-Serif" font-size="10.00">pdal::Stage::done</text>
</a>
</g>
</g>
<!-- Node23&#45;&gt;Node24 -->
<g id="edge24" class="edge"><title>Node23&#45;&gt;Node24</title>
<path fill="none" stroke="midnightblue" d="M364.054,-752C390.155,-752 422.254,-752 449.224,-752"/>
<polygon fill="midnightblue" stroke="midnightblue" points="449.286,-755.5 459.286,-752 449.286,-748.5 449.286,-755.5"/>
</g>
<!-- Node27 -->
<g id="node27" class="node"><title>Node27</title>
<g id="a_node27"><a xlink:href="namespacehag.html#aee422d0ebdb1730554711d82498e54c3" target="_top" xlink:title="hag.wakeup">
<polygon fill="white" stroke="black" points="279,-442.5 279,-461.5 348,-461.5 348,-442.5 279,-442.5"/>
<text text-anchor="middle" x="313.5" y="-449.5" font-family="Helvetica,sans-Serif" font-size="10.00">hag.wakeup</text>
</a>
</g>
</g>
<!-- Node26&#45;&gt;Node27 -->
<g id="edge27" class="edge"><title>Node26&#45;&gt;Node27</title>
<path fill="none" stroke="midnightblue" d="M164.55,-452C192.01,-452 235.751,-452 268.564,-452"/>
<polygon fill="midnightblue" stroke="midnightblue" points="268.799,-455.5 278.799,-452 268.799,-448.5 268.799,-455.5"/>
</g>
<!-- Node28 -->
<g id="node28" class="node"><title>Node28</title>
<g id="a_node28"><a xlink:href="namespacehag.html#acad63bbd5fdda01bf56ff6aae70a0192" target="_top" xlink:title="hag.read">
<polygon fill="white" stroke="black" points="286.5,-518.5 286.5,-537.5 340.5,-537.5 340.5,-518.5 286.5,-518.5"/>
<text text-anchor="middle" x="313.5" y="-525.5" font-family="Helvetica,sans-Serif" font-size="10.00">hag.read</text>
</a>
</g>
</g>
<!-- Node26&#45;&gt;Node28 -->
<g id="edge28" class="edge"><title>Node26&#45;&gt;Node28</title>
<path fill="none" stroke="midnightblue" d="M151.576,-461.692C169.205,-474.323 201.971,-496.294 233,-509 246.709,-514.614 262.457,-518.809 276.301,-521.808"/>
<polygon fill="midnightblue" stroke="midnightblue" points="275.955,-525.309 286.452,-523.873 277.35,-518.45 275.955,-525.309"/>
</g>
<!-- Node33&#45;&gt;Node13 -->
<g id="edge52" class="edge"><title>Node33&#45;&gt;Node13</title>
<path fill="none" stroke="midnightblue" d="M180.578,-364.499C186.57,-361.819 192.287,-358.389 197,-354 227.024,-326.041 198.798,-291.658 233,-269 292.653,-229.482 337.874,-224.614 394,-269 448.454,-312.064 381.293,-371.529 430,-421 431.449,-422.472 432.994,-423.835 434.619,-425.098"/>
<polygon fill="midnightblue" stroke="midnightblue" points="433.009,-428.221 443.331,-430.61 436.752,-422.305 433.009,-428.221"/>
</g>
<!-- Node33&#45;&gt;Node25 -->
<g id="edge60" class="edge"><title>Node33&#45;&gt;Node25</title>
<path fill="none" stroke="midnightblue" d="M148.092,-383.54C159.736,-395.151 179.934,-415.391 197,-433 213.191,-449.706 212.851,-459.37 233,-471 236.908,-473.256 241.072,-475.244 245.367,-476.997"/>
<polygon fill="midnightblue" stroke="midnightblue" points="244.339,-480.347 254.933,-480.47 246.728,-473.768 244.339,-480.347"/>
</g>
<!-- Node33&#45;&gt;Node33 -->
<g id="edge34" class="edge"><title>Node33&#45;&gt;Node33</title>
<path fill="none" stroke="midnightblue" d="M119.621,-383.757C110.923,-392.565 116.883,-402 137.5,-402 150.386,-402 157.546,-398.315 158.98,-393.4"/>
<polygon fill="midnightblue" stroke="midnightblue" points="162.157,-391.9 155.379,-383.757 155.599,-394.35 162.157,-391.9"/>
</g>
<!-- Node34 -->
<g id="node34" class="node"><title>Node34</title>
<g id="a_node34"><a xlink:href="classpdal_1_1Stage.html#a75f17f9b67f48f6aab1d98aadefc4d5c" target="_top" xlink:title="pdal::Stage::handleOptions">
<polygon fill="white" stroke="black" points="246.5,-202.5 246.5,-221.5 380.5,-221.5 380.5,-202.5 246.5,-202.5"/>
<text text-anchor="middle" x="313.5" y="-209.5" font-family="Helvetica,sans-Serif" font-size="10.00">pdal::Stage::handleOptions</text>
</a>
</g>
</g>
<!-- Node33&#45;&gt;Node34 -->
<g id="edge35" class="edge"><title>Node33&#45;&gt;Node34</title>
<path fill="none" stroke="midnightblue" d="M182.175,-364.363C187.671,-361.708 192.821,-358.32 197,-354 235.12,-314.588 194.172,-274.714 233,-236 236.956,-232.055 241.536,-228.755 246.461,-225.994"/>
<polygon fill="midnightblue" stroke="midnightblue" points="248.138,-229.071 255.636,-221.585 245.107,-222.762 248.138,-229.071"/>
</g>
<!-- Node43 -->
<g id="node43" class="node"><title>Node43</title>
<g id="a_node43"><a xlink:href="classpdal_1_1Stage.html#a6c85dfbf6a674dbc2eda76a79efada48" target="_top" xlink:title="pdal::Stage::l_initialize">
<polygon fill="white" stroke="red" points="256,-164.5 256,-183.5 371,-183.5 371,-164.5 256,-164.5"/>
<text text-anchor="middle" x="313.5" y="-171.5" font-family="Helvetica,sans-Serif" font-size="10.00">pdal::Stage::l_initialize</text>
</a>
</g>
</g>
<!-- Node33&#45;&gt;Node43 -->
<g id="edge53" class="edge"><title>Node33&#45;&gt;Node43</title>
<path fill="none" stroke="midnightblue" d="M183.064,-364.357C188.293,-361.702 193.132,-358.316 197,-354 245.934,-299.395 181.533,-245.224 233,-193 236.922,-189.02 241.518,-185.815 246.489,-183.241"/>
<polygon fill="midnightblue" stroke="midnightblue" points="247.965,-186.416 255.775,-179.257 245.205,-179.983 247.965,-186.416"/>
</g>
<!-- Node45 -->
<g id="node45" class="node"><title>Node45</title>
<g id="a_node45"><a xlink:href="classpdal_1_1Stage.html#a5b422f842a6374b448439df99fe6e07e" target="_top" xlink:title="pdal::Stage::initialize">
<polygon fill="white" stroke="black" points="260,-404.5 260,-423.5 367,-423.5 367,-404.5 260,-404.5"/>
<text text-anchor="middle" x="313.5" y="-411.5" font-family="Helvetica,sans-Serif" font-size="10.00">pdal::Stage::initialize</text>
</a>
</g>
</g>
<!-- Node33&#45;&gt;Node45 -->
<g id="edge56" class="edge"><title>Node33&#45;&gt;Node45</title>
<path fill="none" stroke="midnightblue" d="M180.177,-383.581C204.497,-389.172 235.372,-396.269 261.18,-402.202"/>
<polygon fill="midnightblue" stroke="midnightblue" points="260.633,-405.668 271.163,-404.497 262.201,-398.846 260.633,-405.668"/>
</g>
<!-- Node46 -->
<g id="node46" class="node"><title>Node46</title>
<g id="a_node46"><a xlink:href="classpdal_1_1Stage.html#a7ec627c76e1c30fc53780bd81d08d4ad" target="_top" xlink:title="pdal::Stage::addDimensions">
<polygon fill="white" stroke="black" points="243.5,-366.5 243.5,-385.5 383.5,-385.5 383.5,-366.5 243.5,-366.5"/>
<text text-anchor="middle" x="313.5" y="-373.5" font-family="Helvetica,sans-Serif" font-size="10.00">pdal::Stage::addDimensions</text>
</a>
</g>
</g>
<!-- Node33&#45;&gt;Node46 -->
<g id="edge57" class="edge"><title>Node33&#45;&gt;Node46</title>
<path fill="none" stroke="midnightblue" d="M189.765,-374.589C203.367,-374.746 218.379,-374.918 233.1,-375.087"/>
<polygon fill="midnightblue" stroke="midnightblue" points="233.183,-378.588 243.223,-375.204 233.264,-371.589 233.183,-378.588"/>
</g>
<!-- Node47 -->
<g id="node47" class="node"><title>Node47</title>
<g id="a_node47"><a xlink:href="classpdal_1_1BasePointTable.html#a7e3a12a1f29e6cd10d8669ed3d07eb94" target="_top" xlink:title="pdal::BasePointTable\l::layout">
<polygon fill="white" stroke="black" points="258.5,-317 258.5,-347 368.5,-347 368.5,-317 258.5,-317"/>
<text text-anchor="start" x="266.5" y="-335" font-family="Helvetica,sans-Serif" font-size="10.00">pdal::BasePointTable</text>
<text text-anchor="middle" x="313.5" y="-324" font-family="Helvetica,sans-Serif" font-size="10.00">::layout</text>
</a>
</g>
</g>
<!-- Node33&#45;&gt;Node47 -->
<g id="edge58" class="edge"><title>Node33&#45;&gt;Node47</title>
<path fill="none" stroke="midnightblue" d="M177.983,-364.47C198.776,-359.451 224.793,-353.171 248.391,-347.475"/>
<polygon fill="midnightblue" stroke="midnightblue" points="249.434,-350.823 258.334,-345.075 247.792,-344.019 249.434,-350.823"/>
</g>
<!-- Node48 -->
<g id="node48" class="node"><title>Node48</title>
<g id="a_node48"><a xlink:href="classpdal_1_1Stage.html#affff6bc9dbff793d074d76333c5732dd" target="_top" xlink:title="pdal::Stage::prepared">
<polygon fill="white" stroke="black" points="258.5,-278.5 258.5,-297.5 368.5,-297.5 368.5,-278.5 258.5,-278.5"/>
<text text-anchor="middle" x="313.5" y="-285.5" font-family="Helvetica,sans-Serif" font-size="10.00">pdal::Stage::prepared</text>
</a>
</g>
</g>
<!-- Node33&#45;&gt;Node48 -->
<g id="edge59" class="edge"><title>Node33&#45;&gt;Node48</title>
<path fill="none" stroke="midnightblue" d="M176.915,-364.496C183.965,-361.769 190.987,-358.323 197,-354 218.365,-338.641 210.931,-321.329 233,-307 237.88,-303.832 243.236,-301.191 248.79,-298.99"/>
<polygon fill="midnightblue" stroke="midnightblue" points="249.984,-302.28 258.276,-295.685 247.681,-295.67 249.984,-302.28"/>
</g>
<!-- Node35 -->
<g id="node35" class="node"><title>Node35</title>
<g id="a_node35"><a xlink:href="classpdal_1_1Stage.html#a75ff99f7b665c6573e304ed4148dd99e" target="_top" xlink:title="pdal::Stage::addAllArgs">
<polygon fill="white" stroke="red" points="446.5,-202.5 446.5,-221.5 565.5,-221.5 565.5,-202.5 446.5,-202.5"/>
<text text-anchor="middle" x="506" y="-209.5" font-family="Helvetica,sans-Serif" font-size="10.00">pdal::Stage::addAllArgs</text>
</a>
</g>
</g>
<!-- Node34&#45;&gt;Node35 -->
<g id="edge36" class="edge"><title>Node34&#45;&gt;Node35</title>
<path fill="none" stroke="midnightblue" d="M380.593,-212C398.553,-212 418.044,-212 436.152,-212"/>
<polygon fill="midnightblue" stroke="midnightblue" points="436.341,-215.5 446.341,-212 436.341,-208.5 436.341,-215.5"/>
</g>
<!-- Node36 -->
<g id="node36" class="node"><title>Node36</title>
<g id="a_node36"><a xlink:href="classpdal_1_1Stage.html#a6c81d6fbbac17ebe4cd63806916cc750" target="_top" xlink:title="pdal::Stage::getName">
<polygon fill="white" stroke="black" points="631.5,-221.5 631.5,-240.5 743.5,-240.5 743.5,-221.5 631.5,-221.5"/>
<text text-anchor="middle" x="687.5" y="-228.5" font-family="Helvetica,sans-Serif" font-size="10.00">pdal::Stage::getName</text>
</a>
</g>
</g>
<!-- Node34&#45;&gt;Node36 -->
<g id="edge46" class="edge"><title>Node34&#45;&gt;Node36</title>
<path fill="none" stroke="midnightblue" d="M361.489,-221.513C382.372,-225.278 407.315,-229.147 430,-231 494.911,-236.303 569.37,-235.547 621.283,-233.924"/>
<polygon fill="midnightblue" stroke="midnightblue" points="621.477,-237.42 631.355,-233.59 621.245,-230.424 621.477,-237.42"/>
</g>
<!-- Node37 -->
<g id="node37" class="node"><title>Node37</title>
<g id="a_node37"><a xlink:href="classpdal_1_1Options.html#a99aa4c0c7ba443d584f741d22d37f6a5" target="_top" xlink:title="pdal::Options::getValues">
<polygon fill="white" stroke="black" points="444,-392.5 444,-411.5 568,-411.5 568,-392.5 444,-392.5"/>
<text text-anchor="middle" x="506" y="-399.5" font-family="Helvetica,sans-Serif" font-size="10.00">pdal::Options::getValues</text>
</a>
</g>
</g>
<!-- Node34&#45;&gt;Node37 -->
<g id="edge38" class="edge"><title>Node34&#45;&gt;Node37</title>
<path fill="none" stroke="midnightblue" d="M372.478,-221.625C380.518,-225.07 388.048,-229.723 394,-236 440.285,-284.807 382.626,-335.249 430,-383 431.614,-384.627 433.346,-386.122 435.174,-387.494"/>
<polygon fill="midnightblue" stroke="midnightblue" points="433.374,-390.496 443.723,-392.762 437.046,-384.537 433.374,-390.496"/>
</g>
<!-- Node38 -->
<g id="node38" class="node"><title>Node38</title>
<g id="a_node38"><a xlink:href="classpdal_1_1Options.html#aab2dd4f9208512ad8c38a71ad9d2c98b" target="_top" xlink:title="pdal::Options::addConditional">
<polygon fill="white" stroke="black" points="433.5,-88.5 433.5,-107.5 578.5,-107.5 578.5,-88.5 433.5,-88.5"/>
<text text-anchor="middle" x="506" y="-95.5" font-family="Helvetica,sans-Serif" font-size="10.00">pdal::Options::addConditional</text>
</a>
</g>
</g>
<!-- Node34&#45;&gt;Node38 -->
<g id="edge39" class="edge"><title>Node34&#45;&gt;Node38</title>
<path fill="none" stroke="midnightblue" d="M378.183,-202.412C383.871,-199.933 389.261,-196.844 394,-193 423.027,-169.455 401.133,-140.741 430,-117 432.042,-115.32 434.214,-113.786 436.484,-112.386"/>
<polygon fill="midnightblue" stroke="midnightblue" points="438.393,-115.338 445.652,-107.62 435.165,-109.127 438.393,-115.338"/>
</g>
<!-- Node39 -->
<g id="node39" class="node"><title>Node39</title>
<g id="a_node39"><a xlink:href="classpdal_1_1Options.html#a541bdbfe72511dad8a22236f0a3cb2ab" target="_top" xlink:title="pdal::Options::fromFile">
<polygon fill="white" stroke="red" points="448,-316.5 448,-335.5 564,-335.5 564,-316.5 448,-316.5"/>
<text text-anchor="middle" x="506" y="-323.5" font-family="Helvetica,sans-Serif" font-size="10.00">pdal::Options::fromFile</text>
</a>
</g>
</g>
<!-- Node34&#45;&gt;Node39 -->
<g id="edge42" class="edge"><title>Node34&#45;&gt;Node39</title>
<path fill="none" stroke="midnightblue" d="M367.994,-221.633C377.353,-225.059 386.485,-229.704 394,-236 421.12,-258.721 402.375,-284.896 430,-307 432.622,-309.098 435.447,-310.967 438.411,-312.633"/>
<polygon fill="midnightblue" stroke="midnightblue" points="437.12,-315.895 447.652,-317.042 440.134,-309.577 437.12,-315.895"/>
</g>
<!-- Node40 -->
<g id="node40" class="node"><title>Node40</title>
<g id="a_node40"><a xlink:href="classpdal_1_1Options.html#a0d9ebe7f77b36dea85b51eb0098a5df0" target="_top" xlink:title="pdal::Options::remove">
<polygon fill="white" stroke="black" points="449.5,-126.5 449.5,-145.5 562.5,-145.5 562.5,-126.5 449.5,-126.5"/>
<text text-anchor="middle" x="506" y="-133.5" font-family="Helvetica,sans-Serif" font-size="10.00">pdal::Options::remove</text>
</a>
</g>
</g>
<!-- Node34&#45;&gt;Node40 -->
<g id="edge43" class="edge"><title>Node34&#45;&gt;Node40</title>
<path fill="none" stroke="midnightblue" d="M362.559,-202.477C373.062,-199.855 384.019,-196.694 394,-193 425.109,-181.485 458.716,-163.352 480.702,-150.638"/>
<polygon fill="midnightblue" stroke="midnightblue" points="482.515,-153.632 489.373,-145.556 478.975,-147.593 482.515,-153.632"/>
</g>
<!-- Node41 -->
<g id="node41" class="node"><title>Node41</title>
<g id="a_node41"><a xlink:href="classpdal_1_1Options.html#afb18dcc4f3883b8413171db00482959c" target="_top" xlink:title="pdal::Options::toCommandLine">
<polygon fill="white" stroke="red" points="430,-278.5 430,-297.5 582,-297.5 582,-278.5 430,-278.5"/>
<text text-anchor="middle" x="506" y="-285.5" font-family="Helvetica,sans-Serif" font-size="10.00">pdal::Options::toCommandLine</text>
</a>
</g>
</g>
<!-- Node34&#45;&gt;Node41 -->
<g id="edge45" class="edge"><title>Node34&#45;&gt;Node41</title>
<path fill="none" stroke="midnightblue" d="M356.481,-221.55C368.931,-225.201 382.345,-229.975 394,-236 412.006,-245.308 412.071,-254.543 430,-264 438.259,-268.356 447.449,-272.096 456.486,-275.239"/>
<polygon fill="midnightblue" stroke="midnightblue" points="455.587,-278.627 466.18,-278.415 457.767,-271.975 455.587,-278.627"/>
</g>
<!-- Node42 -->
<g id="node42" class="node"><title>Node42</title>
<g id="a_node42"><a xlink:href="classpdal_1_1Stage.html#ab94db25b14b94de1f62f9738327accd2" target="_top" xlink:title="pdal::Stage::setupLog">
<polygon fill="white" stroke="black" points="450,-354.5 450,-373.5 562,-373.5 562,-354.5 450,-354.5"/>
<text text-anchor="middle" x="506" y="-361.5" font-family="Helvetica,sans-Serif" font-size="10.00">pdal::Stage::setupLog</text>
</a>
</g>
</g>
<!-- Node34&#45;&gt;Node42 -->
<g id="edge47" class="edge"><title>Node34&#45;&gt;Node42</title>
<path fill="none" stroke="midnightblue" d="M370.834,-221.546C379.377,-224.988 387.495,-229.661 394,-236 430.538,-271.607 392.669,-310.226 430,-345 433.151,-347.935 436.69,-350.434 440.469,-352.558"/>
<polygon fill="midnightblue" stroke="midnightblue" points="439.115,-355.789 449.655,-356.867 442.087,-349.451 439.115,-355.789"/>
</g>
<!-- Node35&#45;&gt;Node36 -->
<g id="edge37" class="edge"><title>Node35&#45;&gt;Node36</title>
<path fill="none" stroke="midnightblue" d="M565.775,-218.221C583.464,-220.094 602.983,-222.16 621.076,-224.075"/>
<polygon fill="midnightblue" stroke="midnightblue" points="620.935,-227.579 631.248,-225.152 621.672,-220.618 620.935,-227.579"/>
</g>
<!-- Node38&#45;&gt;Node3 -->
<g id="edge40" class="edge"><title>Node38&#45;&gt;Node3</title>
<path fill="none" stroke="midnightblue" d="M546.601,-88.4673C558.109,-85.421 570.636,-81.8351 582,-78 607.514,-69.3892 635.711,-57.6503 656.378,-48.6132"/>
<polygon fill="midnightblue" stroke="midnightblue" points="657.856,-51.7868 665.59,-44.546 655.028,-45.3832 657.856,-51.7868"/>
</g>
<!-- Node38&#45;&gt;Node6 -->
<g id="edge41" class="edge"><title>Node38&#45;&gt;Node6</title>
<path fill="none" stroke="midnightblue" d="M578.717,-98C592.257,-98 606.368,-98 619.748,-98"/>
<polygon fill="midnightblue" stroke="midnightblue" points="619.816,-101.5 629.816,-98 619.816,-94.5001 619.816,-101.5"/>
</g>
<!-- Node40&#45;&gt;Node6 -->
<g id="edge44" class="edge"><title>Node40&#45;&gt;Node6</title>
<path fill="none" stroke="midnightblue" d="M552.295,-126.411C576.409,-121.306 606.251,-114.989 631.667,-109.608"/>
<polygon fill="midnightblue" stroke="midnightblue" points="632.472,-113.015 641.53,-107.52 631.022,-106.167 632.472,-113.015"/>
</g>
<!-- Node42&#45;&gt;Node14 -->
<g id="edge49" class="edge"><title>Node42&#45;&gt;Node14</title>
<path fill="none" stroke="midnightblue" d="M559.596,-373.568C567.37,-376.04 575.082,-379.133 582,-383 601.479,-393.888 599.101,-406.135 618,-418 621.19,-420.003 624.563,-421.877 628.035,-423.627"/>
<polygon fill="midnightblue" stroke="midnightblue" points="626.849,-426.935 637.393,-427.968 629.794,-420.585 626.849,-426.935"/>
</g>
<!-- Node42&#45;&gt;Node15 -->
<g id="edge50" class="edge"><title>Node42&#45;&gt;Node15</title>
<path fill="none" stroke="midnightblue" d="M556.049,-373.564C578.112,-377.866 604.338,-382.98 627.468,-387.49"/>
<polygon fill="midnightblue" stroke="midnightblue" points="627.025,-390.969 637.51,-389.448 628.365,-384.098 627.025,-390.969"/>
</g>
<!-- Node42&#45;&gt;Node16 -->
<g id="edge51" class="edge"><title>Node42&#45;&gt;Node16</title>
<path fill="none" stroke="midnightblue" d="M562.321,-363.075C581.531,-362.754 603.222,-362.392 623.038,-362.061"/>
<polygon fill="midnightblue" stroke="midnightblue" points="623.267,-365.557 633.207,-361.891 623.15,-358.558 623.267,-365.557"/>
</g>
<!-- Node42&#45;&gt;Node36 -->
<g id="edge48" class="edge"><title>Node42&#45;&gt;Node36</title>
<path fill="none" stroke="midnightblue" d="M560.979,-354.393C568.321,-351.937 575.542,-348.858 582,-345 623.081,-320.46 657.612,-274.833 674.801,-249.376"/>
<polygon fill="midnightblue" stroke="midnightblue" points="677.942,-250.97 680.517,-240.693 672.095,-247.121 677.942,-250.97"/>
</g>
<!-- Node43&#45;&gt;Node36 -->
<g id="edge55" class="edge"><title>Node43&#45;&gt;Node36</title>
<path fill="none" stroke="midnightblue" d="M371.238,-173.493C425.826,-174.066 510.394,-177.75 582,-193 607.637,-198.46 635.476,-208.818 655.97,-217.343"/>
<polygon fill="midnightblue" stroke="midnightblue" points="654.826,-220.66 665.398,-221.351 657.564,-214.217 654.826,-220.66"/>
</g>
<!-- Node44 -->
<g id="node44" class="node"><title>Node44</title>
<g id="a_node44"><a xlink:href="classpdal_1_1BasePointTable.html#a03429472e71e5dd323bc92319f4a9df6" target="_top" xlink:title="pdal::BasePointTable\l::metadata">
<polygon fill="white" stroke="black" points="451,-39 451,-69 561,-69 561,-39 451,-39"/>
<text text-anchor="start" x="459" y="-57" font-family="Helvetica,sans-Serif" font-size="10.00">pdal::BasePointTable</text>
<text text-anchor="middle" x="506" y="-46" font-family="Helvetica,sans-Serif" font-size="10.00">::metadata</text>
</a>
</g>
</g>
<!-- Node43&#45;&gt;Node44 -->
<g id="edge54" class="edge"><title>Node43&#45;&gt;Node44</title>
<path fill="none" stroke="midnightblue" d="M367.994,-164.367C377.353,-160.941 386.485,-156.296 394,-150 421.12,-127.279 403.207,-102.106 430,-79 433.485,-75.9944 437.344,-73.3472 441.419,-71.0162"/>
<polygon fill="midnightblue" stroke="midnightblue" points="443.253,-74.0122 450.624,-66.4017 440.116,-67.7545 443.253,-74.0122"/>
</g>
</g>
</svg>
