<?xml version="1.0" encoding="UTF-8" standalone="no"?>
<!DOCTYPE svg PUBLIC "-//W3C//DTD SVG 1.1//EN"
 "http://www.w3.org/Graphics/SVG/1.1/DTD/svg11.dtd">
<!-- Generated by graphviz version 2.38.0 (20140413.2041)
 -->
<!-- Title: pdal::DimType Pages: 1 -->
<svg width="163pt" height="173pt"
 viewBox="0.00 0.00 163.00 173.00" xmlns="http://www.w3.org/2000/svg" xmlns:xlink="http://www.w3.org/1999/xlink">
<g id="graph0" class="graph" transform="scale(1 1) rotate(0) translate(4 169)">
<title>pdal::DimType</title>
<polygon fill="white" stroke="none" points="-4,4 -4,-169 159,-169 159,4 -4,4"/>
<!-- Node1 -->
<g id="node1" class="node"><title>Node1</title>
<polygon fill="#bfbfbf" stroke="black" points="37.5,-0.5 37.5,-19.5 117.5,-19.5 117.5,-0.5 37.5,-0.5"/>
<text text-anchor="middle" x="77.5" y="-7.5" font-family="Helvetica,sans-Serif" font-size="10.00">pdal::DimType</text>
</g>
<!-- Node2 -->
<g id="node2" class="node"><title>Node2</title>
<g id="a_node2"><a xlink:href="structpdal_1_1XForm.html" target="_top" xlink:title="pdal::XForm">
<polygon fill="white" stroke="black" points="42.5,-67.5 42.5,-86.5 112.5,-86.5 112.5,-67.5 42.5,-67.5"/>
<text text-anchor="middle" x="77.5" y="-74.5" font-family="Helvetica,sans-Serif" font-size="10.00">pdal::XForm</text>
</a>
</g>
</g>
<!-- Node2&#45;&gt;Node1 -->
<g id="edge1" class="edge"><title>Node2&#45;&gt;Node1</title>
<path fill="none" stroke="#9a32cd" stroke-dasharray="5,2" d="M77.5,-57.037C77.5,-44.6703 77.5,-29.1198 77.5,-19.6273"/>
<polygon fill="#9a32cd" stroke="#9a32cd" points="74.0001,-57.2338 77.5,-67.2338 81.0001,-57.2338 74.0001,-57.2338"/>
<text text-anchor="middle" x="98.5" y="-41" font-family="Helvetica,sans-Serif" font-size="10.00"> m_xform</text>
</g>
<!-- Node3 -->
<g id="node3" class="node"><title>Node3</title>
<g id="a_node3"><a xlink:href="structpdal_1_1XForm_1_1XFormComponent.html" target="_top" xlink:title="pdal::XForm::XFormComponent">
<polygon fill="white" stroke="black" points="0,-145.5 0,-164.5 155,-164.5 155,-145.5 0,-145.5"/>
<text text-anchor="middle" x="77.5" y="-152.5" font-family="Helvetica,sans-Serif" font-size="10.00">pdal::XForm::XFormComponent</text>
</a>
</g>
</g>
<!-- Node3&#45;&gt;Node2 -->
<g id="edge2" class="edge"><title>Node3&#45;&gt;Node2</title>
<path fill="none" stroke="#9a32cd" stroke-dasharray="5,2" d="M77.5,-135.224C77.5,-119.697 77.5,-98.3582 77.5,-86.6165"/>
<polygon fill="#9a32cd" stroke="#9a32cd" points="74.0001,-135.282 77.5,-145.282 81.0001,-135.282 74.0001,-135.282"/>
<text text-anchor="middle" x="98.5" y="-119" font-family="Helvetica,sans-Serif" font-size="10.00"> m_offset</text>
<text text-anchor="middle" x="98.5" y="-108" font-family="Helvetica,sans-Serif" font-size="10.00">m_scale</text>
</g>
</g>
</svg>
