<?xml version="1.0" encoding="UTF-8" standalone="no"?>
<!DOCTYPE svg PUBLIC "-//W3C//DTD SVG 1.1//EN"
 "http://www.w3.org/Graphics/SVG/1.1/DTD/svg11.dtd">
<!-- Generated by graphviz version 2.38.0 (20140413.2041)
 -->
<!-- Title: pdal::BpfHeader::setLog Pages: 1 -->
<svg width="611pt" height="146pt"
 viewBox="0.00 0.00 611.00 145.50" xmlns="http://www.w3.org/2000/svg" xmlns:xlink="http://www.w3.org/1999/xlink">
<g id="graph0" class="graph" transform="scale(1 1) rotate(0) translate(4 141.5)">
<title>pdal::BpfHeader::setLog</title>
<polygon fill="white" stroke="none" points="-4,4 -4,-141.5 607,-141.5 607,4 -4,4"/>
<!-- Node1 -->
<g id="node1" class="node"><title>Node1</title>
<polygon fill="#bfbfbf" stroke="black" points="0,-80 0,-99 122,-99 122,-80 0,-80"/>
<text text-anchor="middle" x="61" y="-87" font-family="Helvetica,sans-Serif" font-size="10.00">pdal::BpfHeader::setLog</text>
</g>
<!-- Node2 -->
<g id="node2" class="node"><title>Node2</title>
<g id="a_node2"><a xlink:href="classpdal_1_1BpfReader.html#ab7dd5387cb7f88c2c5bbbc1d4838be50" target="_top" xlink:title="pdal::BpfReader::initialize">
<polygon fill="white" stroke="black" points="158,-118 158,-137 286,-137 286,-118 158,-118"/>
<text text-anchor="middle" x="222" y="-125" font-family="Helvetica,sans-Serif" font-size="10.00">pdal::BpfReader::initialize</text>
</a>
</g>
</g>
<!-- Node1&#45;&gt;Node2 -->
<g id="edge1" class="edge"><title>Node1&#45;&gt;Node2</title>
<path fill="none" stroke="midnightblue" d="M112.077,-101.468C134.358,-106.793 160.229,-112.976 181.166,-117.98"/>
<polygon fill="midnightblue" stroke="midnightblue" points="112.662,-98.0094 102.122,-99.089 111.035,-104.818 112.662,-98.0094"/>
</g>
<!-- Node4 -->
<g id="node4" class="node"><title>Node4</title>
<g id="a_node4"><a xlink:href="classpdal_1_1BpfWriter.html#a4d02d7d6a8639c21605d5548bb463d71" target="_top" xlink:title="pdal::BpfWriter::readyFile">
<polygon fill="white" stroke="black" points="158,-80 158,-99 286,-99 286,-80 158,-80"/>
<text text-anchor="middle" x="222" y="-87" font-family="Helvetica,sans-Serif" font-size="10.00">pdal::BpfWriter::readyFile</text>
</a>
</g>
</g>
<!-- Node1&#45;&gt;Node4 -->
<g id="edge3" class="edge"><title>Node1&#45;&gt;Node4</title>
<path fill="none" stroke="midnightblue" d="M132.377,-89.5C140.872,-89.5 149.508,-89.5 157.89,-89.5"/>
<polygon fill="midnightblue" stroke="midnightblue" points="132.111,-86.0001 122.111,-89.5 132.111,-93.0001 132.111,-86.0001"/>
</g>
<!-- Node5 -->
<g id="node5" class="node"><title>Node5</title>
<g id="a_node5"><a xlink:href="classpdal_1_1nitfwrap_1_1NitfWrap.html#aafa26f494da377aa5704bf10cc9e3d03" target="_top" xlink:title="pdal::nitfwrap::NitfWrap\l::verifyBpf">
<polygon fill="white" stroke="black" points="162,-30.5 162,-60.5 282,-60.5 282,-30.5 162,-30.5"/>
<text text-anchor="start" x="170" y="-48.5" font-family="Helvetica,sans-Serif" font-size="10.00">pdal::nitfwrap::NitfWrap</text>
<text text-anchor="middle" x="222" y="-37.5" font-family="Helvetica,sans-Serif" font-size="10.00">::verifyBpf</text>
</a>
</g>
</g>
<!-- Node1&#45;&gt;Node5 -->
<g id="edge4" class="edge"><title>Node1&#45;&gt;Node5</title>
<path fill="none" stroke="midnightblue" d="M106.232,-77.2598C124.926,-72.0866 146.883,-66.0103 166.559,-60.5654"/>
<polygon fill="midnightblue" stroke="midnightblue" points="105.205,-73.9123 96.5006,-79.9527 107.072,-80.6587 105.205,-73.9123"/>
</g>
<!-- Node3 -->
<g id="node3" class="node"><title>Node3</title>
<g id="a_node3"><a xlink:href="classpdal_1_1BpfReader.html#accb0283f384ad927abc5f37881be748c" target="_top" xlink:title="pdal::BpfReader::inspect">
<polygon fill="white" stroke="black" points="322,-118 322,-137 447,-137 447,-118 322,-118"/>
<text text-anchor="middle" x="384.5" y="-125" font-family="Helvetica,sans-Serif" font-size="10.00">pdal::BpfReader::inspect</text>
</a>
</g>
</g>
<!-- Node2&#45;&gt;Node3 -->
<g id="edge2" class="edge"><title>Node2&#45;&gt;Node3</title>
<path fill="none" stroke="midnightblue" d="M296.639,-127.5C305.065,-127.5 313.59,-127.5 321.837,-127.5"/>
<polygon fill="midnightblue" stroke="midnightblue" points="296.434,-124 286.434,-127.5 296.434,-131 296.434,-124"/>
</g>
<!-- Node6 -->
<g id="node6" class="node"><title>Node6</title>
<g id="a_node6"><a xlink:href="classpdal_1_1nitfwrap_1_1NitfWrap.html#a427c1cc359051aed8f90ec5ba317de89" target="_top" xlink:title="pdal::nitfwrap::NitfWrap\l::unwrap">
<polygon fill="white" stroke="black" points="324.5,-49.5 324.5,-79.5 444.5,-79.5 444.5,-49.5 324.5,-49.5"/>
<text text-anchor="start" x="332.5" y="-67.5" font-family="Helvetica,sans-Serif" font-size="10.00">pdal::nitfwrap::NitfWrap</text>
<text text-anchor="middle" x="384.5" y="-56.5" font-family="Helvetica,sans-Serif" font-size="10.00">::unwrap</text>
</a>
</g>
</g>
<!-- Node5&#45;&gt;Node6 -->
<g id="edge5" class="edge"><title>Node5&#45;&gt;Node6</title>
<path fill="none" stroke="midnightblue" d="M292.43,-53.7191C303.096,-54.9818 314.022,-56.2752 324.436,-57.5079"/>
<polygon fill="midnightblue" stroke="midnightblue" points="292.65,-50.2209 282.308,-52.5209 291.827,-57.1723 292.65,-50.2209"/>
</g>
<!-- Node8 -->
<g id="node8" class="node"><title>Node8</title>
<g id="a_node8"><a xlink:href="classpdal_1_1nitfwrap_1_1NitfWrap.html#aba62e4c086a16ff4d1a3b1c014dbbcc4" target="_top" xlink:title="pdal::nitfwrap::NitfWrap\l::verify">
<polygon fill="white" stroke="black" points="324.5,-0.5 324.5,-30.5 444.5,-30.5 444.5,-0.5 324.5,-0.5"/>
<text text-anchor="start" x="332.5" y="-18.5" font-family="Helvetica,sans-Serif" font-size="10.00">pdal::nitfwrap::NitfWrap</text>
<text text-anchor="middle" x="384.5" y="-7.5" font-family="Helvetica,sans-Serif" font-size="10.00">::verify</text>
</a>
</g>
</g>
<!-- Node5&#45;&gt;Node8 -->
<g id="edge7" class="edge"><title>Node5&#45;&gt;Node8</title>
<path fill="none" stroke="midnightblue" d="M292.43,-32.5225C303.096,-30.5288 314.022,-28.4865 324.436,-26.5401"/>
<polygon fill="midnightblue" stroke="midnightblue" points="291.495,-29.1365 282.308,-34.4143 292.781,-36.0173 291.495,-29.1365"/>
</g>
<!-- Node7 -->
<g id="node7" class="node"><title>Node7</title>
<g id="a_node7"><a xlink:href="classpdal_1_1nitfwrap_1_1NitfWrap.html#a507defc6c08af645c161ee875c58374a" target="_top" xlink:title="pdal::nitfwrap::NitfWrap\l::NitfWrap">
<polygon fill="white" stroke="black" points="483,-24.5 483,-54.5 603,-54.5 603,-24.5 483,-24.5"/>
<text text-anchor="start" x="491" y="-42.5" font-family="Helvetica,sans-Serif" font-size="10.00">pdal::nitfwrap::NitfWrap</text>
<text text-anchor="middle" x="543" y="-31.5" font-family="Helvetica,sans-Serif" font-size="10.00">::NitfWrap</text>
</a>
</g>
</g>
<!-- Node6&#45;&gt;Node7 -->
<g id="edge6" class="edge"><title>Node6&#45;&gt;Node7</title>
<path fill="none" stroke="midnightblue" d="M454.718,-53.4427C464.069,-51.949 473.595,-50.4274 482.75,-48.9648"/>
<polygon fill="midnightblue" stroke="midnightblue" points="453.989,-50.0149 444.666,-55.0486 455.093,-56.9272 453.989,-50.0149"/>
</g>
<!-- Node8&#45;&gt;Node7 -->
<g id="edge8" class="edge"><title>Node8&#45;&gt;Node7</title>
<path fill="none" stroke="midnightblue" d="M454.718,-26.115C464.069,-27.549 473.595,-29.0097 482.75,-30.4138"/>
<polygon fill="midnightblue" stroke="midnightblue" points="455.081,-22.6297 444.666,-24.5734 454.02,-29.5488 455.081,-22.6297"/>
</g>
</g>
</svg>
