<?xml version="1.0" encoding="UTF-8" standalone="no"?>
<!DOCTYPE svg PUBLIC "-//W3C//DTD SVG 1.1//EN"
 "http://www.w3.org/Graphics/SVG/1.1/DTD/svg11.dtd">
<!-- Generated by graphviz version 2.38.0 (20140413.2041)
 -->
<!-- Title: pdal::BpfHeader::read Pages: 1 -->
<svg width="601pt" height="127pt"
 viewBox="0.00 0.00 601.00 126.50" xmlns="http://www.w3.org/2000/svg" xmlns:xlink="http://www.w3.org/1999/xlink">
<g id="graph0" class="graph" transform="scale(1 1) rotate(0) translate(4 122.5)">
<title>pdal::BpfHeader::read</title>
<polygon fill="white" stroke="none" points="-4,4 -4,-122.5 597,-122.5 597,4 -4,4"/>
<!-- Node1 -->
<g id="node1" class="node"><title>Node1</title>
<polygon fill="#bfbfbf" stroke="black" points="0,-77 0,-96 112,-96 112,-77 0,-77"/>
<text text-anchor="middle" x="56" y="-84" font-family="Helvetica,sans-Serif" font-size="10.00">pdal::BpfHeader::read</text>
</g>
<!-- Node2 -->
<g id="node2" class="node"><title>Node2</title>
<g id="a_node2"><a xlink:href="classpdal_1_1BpfReader.html#ab7dd5387cb7f88c2c5bbbc1d4838be50" target="_top" xlink:title="pdal::BpfReader::initialize">
<polygon fill="white" stroke="black" points="148,-99 148,-118 276,-118 276,-99 148,-99"/>
<text text-anchor="middle" x="212" y="-106" font-family="Helvetica,sans-Serif" font-size="10.00">pdal::BpfReader::initialize</text>
</a>
</g>
</g>
<!-- Node1&#45;&gt;Node2 -->
<g id="edge1" class="edge"><title>Node1&#45;&gt;Node2</title>
<path fill="none" stroke="midnightblue" d="M122.065,-95.7949C130.6,-97.0143 139.336,-98.2623 147.84,-99.4771"/>
<polygon fill="midnightblue" stroke="midnightblue" points="122.557,-92.3298 112.163,-94.3804 121.567,-99.2595 122.557,-92.3298"/>
</g>
<!-- Node4 -->
<g id="node4" class="node"><title>Node4</title>
<g id="a_node4"><a xlink:href="classpdal_1_1nitfwrap_1_1NitfWrap.html#aafa26f494da377aa5704bf10cc9e3d03" target="_top" xlink:title="pdal::nitfwrap::NitfWrap\l::verifyBpf">
<polygon fill="white" stroke="black" points="152,-49.5 152,-79.5 272,-79.5 272,-49.5 152,-49.5"/>
<text text-anchor="start" x="160" y="-67.5" font-family="Helvetica,sans-Serif" font-size="10.00">pdal::nitfwrap::NitfWrap</text>
<text text-anchor="middle" x="212" y="-56.5" font-family="Helvetica,sans-Serif" font-size="10.00">::verifyBpf</text>
</a>
</g>
</g>
<!-- Node1&#45;&gt;Node4 -->
<g id="edge3" class="edge"><title>Node1&#45;&gt;Node4</title>
<path fill="none" stroke="midnightblue" d="M122.258,-77.1775C132.062,-75.7769 142.126,-74.3391 151.794,-72.958"/>
<polygon fill="midnightblue" stroke="midnightblue" points="121.567,-73.7405 112.163,-78.6196 122.557,-80.6702 121.567,-73.7405"/>
</g>
<!-- Node3 -->
<g id="node3" class="node"><title>Node3</title>
<g id="a_node3"><a xlink:href="classpdal_1_1BpfReader.html#accb0283f384ad927abc5f37881be748c" target="_top" xlink:title="pdal::BpfReader::inspect">
<polygon fill="white" stroke="black" points="312,-99 312,-118 437,-118 437,-99 312,-99"/>
<text text-anchor="middle" x="374.5" y="-106" font-family="Helvetica,sans-Serif" font-size="10.00">pdal::BpfReader::inspect</text>
</a>
</g>
</g>
<!-- Node2&#45;&gt;Node3 -->
<g id="edge2" class="edge"><title>Node2&#45;&gt;Node3</title>
<path fill="none" stroke="midnightblue" d="M286.639,-108.5C295.065,-108.5 303.59,-108.5 311.837,-108.5"/>
<polygon fill="midnightblue" stroke="midnightblue" points="286.434,-105 276.434,-108.5 286.434,-112 286.434,-105"/>
</g>
<!-- Node5 -->
<g id="node5" class="node"><title>Node5</title>
<g id="a_node5"><a xlink:href="classpdal_1_1nitfwrap_1_1NitfWrap.html#a427c1cc359051aed8f90ec5ba317de89" target="_top" xlink:title="pdal::nitfwrap::NitfWrap\l::unwrap">
<polygon fill="white" stroke="black" points="314.5,-49.5 314.5,-79.5 434.5,-79.5 434.5,-49.5 314.5,-49.5"/>
<text text-anchor="start" x="322.5" y="-67.5" font-family="Helvetica,sans-Serif" font-size="10.00">pdal::nitfwrap::NitfWrap</text>
<text text-anchor="middle" x="374.5" y="-56.5" font-family="Helvetica,sans-Serif" font-size="10.00">::unwrap</text>
</a>
</g>
</g>
<!-- Node4&#45;&gt;Node5 -->
<g id="edge4" class="edge"><title>Node4&#45;&gt;Node5</title>
<path fill="none" stroke="midnightblue" d="M282.43,-64.5C293.096,-64.5 304.022,-64.5 314.436,-64.5"/>
<polygon fill="midnightblue" stroke="midnightblue" points="282.308,-61.0001 272.308,-64.5 282.308,-68.0001 282.308,-61.0001"/>
</g>
<!-- Node7 -->
<g id="node7" class="node"><title>Node7</title>
<g id="a_node7"><a xlink:href="classpdal_1_1nitfwrap_1_1NitfWrap.html#aba62e4c086a16ff4d1a3b1c014dbbcc4" target="_top" xlink:title="pdal::nitfwrap::NitfWrap\l::verify">
<polygon fill="white" stroke="black" points="314.5,-0.5 314.5,-30.5 434.5,-30.5 434.5,-0.5 314.5,-0.5"/>
<text text-anchor="start" x="322.5" y="-18.5" font-family="Helvetica,sans-Serif" font-size="10.00">pdal::nitfwrap::NitfWrap</text>
<text text-anchor="middle" x="374.5" y="-7.5" font-family="Helvetica,sans-Serif" font-size="10.00">::verify</text>
</a>
</g>
</g>
<!-- Node4&#45;&gt;Node7 -->
<g id="edge6" class="edge"><title>Node4&#45;&gt;Node7</title>
<path fill="none" stroke="midnightblue" d="M272.329,-46.3871C289.392,-41.1778 307.812,-35.5543 324.198,-30.5516"/>
<polygon fill="midnightblue" stroke="midnightblue" points="271.007,-43.1311 262.465,-49.3986 273.051,-49.8261 271.007,-43.1311"/>
</g>
<!-- Node6 -->
<g id="node6" class="node"><title>Node6</title>
<g id="a_node6"><a xlink:href="classpdal_1_1nitfwrap_1_1NitfWrap.html#a507defc6c08af645c161ee875c58374a" target="_top" xlink:title="pdal::nitfwrap::NitfWrap\l::NitfWrap">
<polygon fill="white" stroke="black" points="473,-24.5 473,-54.5 593,-54.5 593,-24.5 473,-24.5"/>
<text text-anchor="start" x="481" y="-42.5" font-family="Helvetica,sans-Serif" font-size="10.00">pdal::nitfwrap::NitfWrap</text>
<text text-anchor="middle" x="533" y="-31.5" font-family="Helvetica,sans-Serif" font-size="10.00">::NitfWrap</text>
</a>
</g>
</g>
<!-- Node5&#45;&gt;Node6 -->
<g id="edge5" class="edge"><title>Node5&#45;&gt;Node6</title>
<path fill="none" stroke="midnightblue" d="M444.718,-53.4427C454.069,-51.949 463.595,-50.4274 472.75,-48.9648"/>
<polygon fill="midnightblue" stroke="midnightblue" points="443.989,-50.0149 434.666,-55.0486 445.093,-56.9272 443.989,-50.0149"/>
</g>
<!-- Node7&#45;&gt;Node6 -->
<g id="edge7" class="edge"><title>Node7&#45;&gt;Node6</title>
<path fill="none" stroke="midnightblue" d="M444.718,-26.115C454.069,-27.549 463.595,-29.0097 472.75,-30.4138"/>
<polygon fill="midnightblue" stroke="midnightblue" points="445.081,-22.6297 434.666,-24.5734 444.02,-29.5488 445.081,-22.6297"/>
</g>
</g>
</svg>
