<?xml version="1.0" encoding="UTF-8" standalone="no"?>
<!DOCTYPE svg PUBLIC "-//W3C//DTD SVG 1.1//EN"
 "http://www.w3.org/Graphics/SVG/1.1/DTD/svg11.dtd">
<!-- Generated by graphviz version 2.38.0 (20140413.2041)
 -->
<!-- Title: NITFDES Pages: 1 -->
<svg width="131pt" height="162pt"
 viewBox="0.00 0.00 130.50 162.00" xmlns="http://www.w3.org/2000/svg" xmlns:xlink="http://www.w3.org/1999/xlink">
<g id="graph0" class="graph" transform="scale(1 1) rotate(0) translate(4 158)">
<title>NITFDES</title>
<polygon fill="white" stroke="none" points="-4,4 -4,-158 126.5,-158 126.5,4 -4,4"/>
<!-- Node1 -->
<g id="node1" class="node"><title>Node1</title>
<polygon fill="#bfbfbf" stroke="black" points="17.5,-0.5 17.5,-19.5 77.5,-19.5 77.5,-0.5 17.5,-0.5"/>
<text text-anchor="middle" x="47.5" y="-7.5" font-family="Helvetica,sans-Serif" font-size="10.00">NITFDES</text>
</g>
<!-- Node2 -->
<g id="node2" class="node"><title>Node2</title>
<g id="a_node2"><a xlink:href="nitflib_8h.html#structNITFFile" target="_top" xlink:title="NITFFile">
<polygon fill="white" stroke="black" points="20,-67.5 20,-86.5 75,-86.5 75,-67.5 20,-67.5"/>
<text text-anchor="middle" x="47.5" y="-74.5" font-family="Helvetica,sans-Serif" font-size="10.00">NITFFile</text>
</a>
</g>
</g>
<!-- Node2&#45;&gt;Node1 -->
<g id="edge1" class="edge"><title>Node2&#45;&gt;Node1</title>
<path fill="none" stroke="#9a32cd" stroke-dasharray="5,2" d="M47.5,-57.037C47.5,-44.6703 47.5,-29.1198 47.5,-19.6273"/>
<polygon fill="#9a32cd" stroke="#9a32cd" points="44.0001,-57.2338 47.5,-67.2338 51.0001,-57.2338 44.0001,-57.2338"/>
<text text-anchor="middle" x="62.5" y="-41" font-family="Helvetica,sans-Serif" font-size="10.00"> psFile</text>
</g>
<!-- Node3 -->
<g id="node3" class="node"><title>Node3</title>
<g id="a_node3"><a xlink:href="nitflib_8h.html#structNITFSegmentInfo" target="_top" xlink:title="NITFSegmentInfo">
<polygon fill="white" stroke="black" points="0,-134.5 0,-153.5 95,-153.5 95,-134.5 0,-134.5"/>
<text text-anchor="middle" x="47.5" y="-141.5" font-family="Helvetica,sans-Serif" font-size="10.00">NITFSegmentInfo</text>
</a>
</g>
</g>
<!-- Node3&#45;&gt;Node2 -->
<g id="edge2" class="edge"><title>Node3&#45;&gt;Node2</title>
<path fill="none" stroke="#9a32cd" stroke-dasharray="5,2" d="M47.5,-124.037C47.5,-111.67 47.5,-96.1198 47.5,-86.6273"/>
<polygon fill="#9a32cd" stroke="#9a32cd" points="44.0001,-124.234 47.5,-134.234 51.0001,-124.234 44.0001,-124.234"/>
<text text-anchor="middle" x="85" y="-108" font-family="Helvetica,sans-Serif" font-size="10.00"> pasSegmentInfo</text>
</g>
</g>
</svg>
