<?xml version="1.0" encoding="UTF-8" standalone="no"?>
<!DOCTYPE svg PUBLIC "-//W3C//DTD SVG 1.1//EN"
 "http://www.w3.org/Graphics/SVG/1.1/DTD/svg11.dtd">
<!-- Generated by graphviz version 2.38.0 (20140413.2041)
 -->
<!-- Title: pdal::LasUtils::error::error Pages: 1 -->
<svg width="958pt" height="214pt"
 viewBox="0.00 0.00 958.00 214.15" xmlns="http://www.w3.org/2000/svg" xmlns:xlink="http://www.w3.org/1999/xlink">
<g id="graph0" class="graph" transform="scale(1 1) rotate(0) translate(4 210.146)">
<title>pdal::LasUtils::error::error</title>
<polygon fill="white" stroke="none" points="-4,4 -4,-210.146 954,-210.146 954,4 -4,4"/>
<!-- Node1 -->
<g id="node1" class="node"><title>Node1</title>
<polygon fill="#bfbfbf" stroke="black" points="0,-83.1461 0,-113.146 102,-113.146 102,-83.1461 0,-83.1461"/>
<text text-anchor="start" x="8" y="-101.146" font-family="Helvetica,sans-Serif" font-size="10.00">pdal::LasUtils::error</text>
<text text-anchor="middle" x="51" y="-90.1461" font-family="Helvetica,sans-Serif" font-size="10.00">::error</text>
</g>
<!-- Node2 -->
<g id="node2" class="node"><title>Node2</title>
<g id="a_node2"><a xlink:href="namespacepdal_1_1LasUtils.html#aa78ca118dc2638ab806bec5afb12b224" target="_top" xlink:title="pdal::LasUtils::parse">
<polygon fill="white" stroke="black" points="138,-88.6461 138,-107.646 245,-107.646 245,-88.6461 138,-88.6461"/>
<text text-anchor="middle" x="191.5" y="-95.6461" font-family="Helvetica,sans-Serif" font-size="10.00">pdal::LasUtils::parse</text>
</a>
</g>
</g>
<!-- Node1&#45;&gt;Node2 -->
<g id="edge1" class="edge"><title>Node1&#45;&gt;Node2</title>
<path fill="none" stroke="midnightblue" d="M102.002,-98.1461C110.355,-98.1461 119.115,-98.1461 127.739,-98.1461"/>
<polygon fill="midnightblue" stroke="midnightblue" points="127.769,-101.646 137.769,-98.1461 127.769,-94.6462 127.769,-101.646"/>
</g>
<!-- Node3 -->
<g id="node3" class="node"><title>Node3</title>
<g id="a_node3"><a xlink:href="namespacepdal_1_1Utils.html#a6ae33c6d7b4eb4bcae6ec17fb8cc04fc" target="_top" xlink:title="pdal::Utils::split2">
<polygon fill="white" stroke="black" points="281,-126.646 281,-145.646 371,-145.646 371,-126.646 281,-126.646"/>
<text text-anchor="middle" x="326" y="-133.646" font-family="Helvetica,sans-Serif" font-size="10.00">pdal::Utils::split2</text>
</a>
</g>
</g>
<!-- Node2&#45;&gt;Node3 -->
<g id="edge2" class="edge"><title>Node2&#45;&gt;Node3</title>
<path fill="none" stroke="midnightblue" d="M225.935,-107.735C242.883,-112.596 263.663,-118.555 281.808,-123.759"/>
<polygon fill="midnightblue" stroke="midnightblue" points="280.998,-127.168 291.575,-126.56 282.928,-120.439 280.998,-127.168"/>
</g>
<!-- Node4 -->
<g id="node4" class="node"><title>Node4</title>
<g id="a_node4"><a xlink:href="namespacepdal_1_1Utils.html#ac5d9d3dfd3f4611182c07aa85e27c1e4" target="_top" xlink:title="pdal::Utils::trim">
<polygon fill="white" stroke="black" points="284.5,-88.6461 284.5,-107.646 367.5,-107.646 367.5,-88.6461 284.5,-88.6461"/>
<text text-anchor="middle" x="326" y="-95.6461" font-family="Helvetica,sans-Serif" font-size="10.00">pdal::Utils::trim</text>
</a>
</g>
</g>
<!-- Node2&#45;&gt;Node4 -->
<g id="edge3" class="edge"><title>Node2&#45;&gt;Node4</title>
<path fill="none" stroke="midnightblue" d="M245.248,-98.1461C254.788,-98.1461 264.718,-98.1461 274.2,-98.1461"/>
<polygon fill="midnightblue" stroke="midnightblue" points="274.275,-101.646 284.275,-98.1461 274.275,-94.6462 274.275,-101.646"/>
</g>
<!-- Node11 -->
<g id="node11" class="node"><title>Node11</title>
<g id="a_node11"><a xlink:href="namespacepdal_1_1Dimension.html#a880d689fed54aa3ded6f88c9e058c5d2" target="_top" xlink:title="pdal::Dimension::type">
<polygon fill="white" stroke="black" points="704,-3.64609 704,-22.6461 816,-22.6461 816,-3.64609 704,-3.64609"/>
<text text-anchor="middle" x="760" y="-10.6461" font-family="Helvetica,sans-Serif" font-size="10.00">pdal::Dimension::type</text>
</a>
</g>
</g>
<!-- Node2&#45;&gt;Node11 -->
<g id="edge12" class="edge"><title>Node2&#45;&gt;Node11</title>
<path fill="none" stroke="midnightblue" d="M209.889,-88.6085C245.547,-69.6588 330.078,-27.8315 407,-13.1461 505.55,5.66839 622.468,0.350978 693.663,-5.88423"/>
<polygon fill="midnightblue" stroke="midnightblue" points="693.552,-9.38849 703.828,-6.80808 694.186,-2.41722 693.552,-9.38849"/>
</g>
<!-- Node5 -->
<g id="node5" class="node"><title>Node5</title>
<g id="a_node5"><a xlink:href="namespacepdal_1_1Utils.html#a10ae3cc2d10407cff89ba1ab00bc036b" target="_top" xlink:title="pdal::Utils::trimLeading">
<polygon fill="white" stroke="black" points="409,-186.646 409,-205.646 526,-205.646 526,-186.646 409,-186.646"/>
<text text-anchor="middle" x="467.5" y="-193.646" font-family="Helvetica,sans-Serif" font-size="10.00">pdal::Utils::trimLeading</text>
</a>
</g>
</g>
<!-- Node4&#45;&gt;Node5 -->
<g id="edge4" class="edge"><title>Node4&#45;&gt;Node5</title>
<path fill="none" stroke="midnightblue" d="M356.448,-107.807C361.642,-110.332 366.743,-113.42 371,-117.146 394.4,-137.629 382.619,-157.841 407,-177.146 409.311,-178.976 411.803,-180.632 414.41,-182.13"/>
<polygon fill="midnightblue" stroke="midnightblue" points="413.106,-185.388 423.627,-186.637 416.181,-179.1 413.106,-185.388"/>
</g>
<!-- Node6 -->
<g id="node6" class="node"><title>Node6</title>
<g id="a_node6"><a xlink:href="namespacepdal_1_1Utils.html#afed0ad4146baafd1973c85e1508ade73" target="_top" xlink:title="pdal::Utils::trimTrailing">
<polygon fill="white" stroke="black" points="410,-148.646 410,-167.646 525,-167.646 525,-148.646 410,-148.646"/>
<text text-anchor="middle" x="467.5" y="-155.646" font-family="Helvetica,sans-Serif" font-size="10.00">pdal::Utils::trimTrailing</text>
</a>
</g>
</g>
<!-- Node4&#45;&gt;Node6 -->
<g id="edge5" class="edge"><title>Node4&#45;&gt;Node6</title>
<path fill="none" stroke="midnightblue" d="M351.034,-107.799C357.596,-110.629 364.647,-113.854 371,-117.146 387.649,-125.773 389.947,-131.349 407,-139.146 411.748,-141.317 416.814,-143.343 421.911,-145.202"/>
<polygon fill="midnightblue" stroke="midnightblue" points="421.08,-148.618 431.675,-148.566 423.36,-141.999 421.08,-148.618"/>
</g>
<!-- Node7 -->
<g id="node7" class="node"><title>Node7</title>
<g id="a_node7"><a xlink:href="namespacepdal_1_1Utils.html#abdd3e6ebf8047dbc72337bac885f1169" target="_top" xlink:title="pdal::Utils::eatcharacter">
<polygon fill="white" stroke="black" points="407,-110.646 407,-129.646 528,-129.646 528,-110.646 407,-110.646"/>
<text text-anchor="middle" x="467.5" y="-117.646" font-family="Helvetica,sans-Serif" font-size="10.00">pdal::Utils::eatcharacter</text>
</a>
</g>
</g>
<!-- Node4&#45;&gt;Node7 -->
<g id="edge6" class="edge"><title>Node4&#45;&gt;Node7</title>
<path fill="none" stroke="midnightblue" d="M367.724,-104.569C376.892,-106.014 386.874,-107.589 396.854,-109.162"/>
<polygon fill="midnightblue" stroke="midnightblue" points="396.379,-112.631 406.802,-110.731 397.469,-105.716 396.379,-112.631"/>
</g>
<!-- Node8 -->
<g id="node8" class="node"><title>Node8</title>
<g id="a_node8"><a xlink:href="namespacepdal_1_1Utils.html#ab908ea72a2a7d385cbbab68939d1c1a2" target="_top" xlink:title="pdal::Utils::base64\l_encode">
<polygon fill="white" stroke="black" points="418.5,-61.1461 418.5,-91.1461 516.5,-91.1461 516.5,-61.1461 418.5,-61.1461"/>
<text text-anchor="start" x="426.5" y="-79.1461" font-family="Helvetica,sans-Serif" font-size="10.00">pdal::Utils::base64</text>
<text text-anchor="middle" x="467.5" y="-68.1461" font-family="Helvetica,sans-Serif" font-size="10.00">_encode</text>
</a>
</g>
</g>
<!-- Node4&#45;&gt;Node8 -->
<g id="edge7" class="edge"><title>Node4&#45;&gt;Node8</title>
<path fill="none" stroke="midnightblue" d="M367.724,-91.7236C380.349,-89.7326 394.518,-87.4981 408.097,-85.3566"/>
<polygon fill="midnightblue" stroke="midnightblue" points="408.998,-88.7578 418.331,-83.7426 407.908,-81.8433 408.998,-88.7578"/>
</g>
<!-- Node9 -->
<g id="node9" class="node"><title>Node9</title>
<g id="a_node9"><a xlink:href="namespacepdal_1_1Dimension.html#acf81dae9d5946f3a941f9df154b2329b" target="_top" xlink:title="pdal::Dimension::size">
<polygon fill="white" stroke="black" points="412,-22.6461 412,-41.6461 523,-41.6461 523,-22.6461 412,-22.6461"/>
<text text-anchor="middle" x="467.5" y="-29.6461" font-family="Helvetica,sans-Serif" font-size="10.00">pdal::Dimension::size</text>
</a>
</g>
</g>
<!-- Node4&#45;&gt;Node9 -->
<g id="edge8" class="edge"><title>Node4&#45;&gt;Node9</title>
<path fill="none" stroke="midnightblue" d="M341.575,-88.5893C357.266,-78.5846 383.188,-62.8673 407,-52.1461 412.538,-49.6525 418.485,-47.2967 424.401,-45.1369"/>
<polygon fill="midnightblue" stroke="midnightblue" points="425.961,-48.2992 434.248,-41.6974 423.653,-41.6908 425.961,-48.2992"/>
</g>
<!-- Node10 -->
<g id="node10" class="node"><title>Node10</title>
<g id="a_node10"><a xlink:href="namespacepdal_1_1Utils.html#a59253304d0f929e3a3ea00f09636002f" target="_top" xlink:title="pdal::Utils::toNative">
<polygon fill="white" stroke="black" points="564,-22.6461 564,-41.6461 668,-41.6461 668,-22.6461 564,-22.6461"/>
<text text-anchor="middle" x="616" y="-29.6461" font-family="Helvetica,sans-Serif" font-size="10.00">pdal::Utils::toNative</text>
</a>
</g>
</g>
<!-- Node9&#45;&gt;Node10 -->
<g id="edge9" class="edge"><title>Node9&#45;&gt;Node10</title>
<path fill="none" stroke="midnightblue" d="M523.051,-32.1461C533.057,-32.1461 543.563,-32.1461 553.749,-32.1461"/>
<polygon fill="midnightblue" stroke="midnightblue" points="553.8,-35.6462 563.8,-32.1461 553.8,-28.6462 553.8,-35.6462"/>
</g>
<!-- Node10&#45;&gt;Node11 -->
<g id="edge10" class="edge"><title>Node10&#45;&gt;Node11</title>
<path fill="none" stroke="midnightblue" d="M668.265,-25.2867C676.602,-24.1712 685.332,-23.003 693.946,-21.8506"/>
<polygon fill="midnightblue" stroke="midnightblue" points="694.525,-25.3044 703.972,-20.509 693.596,-18.3662 694.525,-25.3044"/>
</g>
<!-- Node12 -->
<g id="node12" class="node"><title>Node12</title>
<g id="a_node12"><a xlink:href="namespacepdal_1_1Utils.html#a5268937cf695835e55392f752dc02cb2" target="_top" xlink:title="pdal::Utils::tolower">
<polygon fill="white" stroke="black" points="852,-3.64609 852,-22.6461 950,-22.6461 950,-3.64609 852,-3.64609"/>
<text text-anchor="middle" x="901" y="-10.6461" font-family="Helvetica,sans-Serif" font-size="10.00">pdal::Utils::tolower</text>
</a>
</g>
</g>
<!-- Node11&#45;&gt;Node12 -->
<g id="edge11" class="edge"><title>Node11&#45;&gt;Node12</title>
<path fill="none" stroke="midnightblue" d="M816.336,-13.1461C824.625,-13.1461 833.194,-13.1461 841.546,-13.1461"/>
<polygon fill="midnightblue" stroke="midnightblue" points="841.59,-16.6462 851.59,-13.1461 841.59,-9.64619 841.59,-16.6462"/>
</g>
</g>
</svg>
