<?xml version="1.0" encoding="UTF-8" standalone="no"?>
<!DOCTYPE svg PUBLIC "-//W3C//DTD SVG 1.1//EN"
 "http://www.w3.org/Graphics/SVG/1.1/DTD/svg11.dtd">
<!-- Generated by graphviz version 2.38.0 (20140413.2041)
 -->
<!-- Title: TEST Pages: 1 -->
<svg width="490pt" height="184pt"
 viewBox="0.00 0.00 490.00 183.50" xmlns="http://www.w3.org/2000/svg" xmlns:xlink="http://www.w3.org/1999/xlink">
<g id="graph0" class="graph" transform="scale(1 1) rotate(0) translate(4 179.5)">
<title>TEST</title>
<polygon fill="white" stroke="none" points="-4,4 -4,-179.5 486,-179.5 486,4 -4,4"/>
<!-- Node1 -->
<g id="node1" class="node"><title>Node1</title>
<polygon fill="#bfbfbf" stroke="black" points="0,-106.5 0,-125.5 42,-125.5 42,-106.5 0,-106.5"/>
<text text-anchor="middle" x="21" y="-113.5" font-family="Helvetica,sans-Serif" font-size="10.00">TEST</text>
</g>
<!-- Node2 -->
<g id="node2" class="node"><title>Node2</title>
<g id="a_node2"><a xlink:href="classSupport.html#a103551165ca7a5a6aeeccafd3e41c128" target="_top" xlink:title="Support::compare_text\l_files">
<polygon fill="white" stroke="black" points="78,-145 78,-175 194,-175 194,-145 78,-145"/>
<text text-anchor="start" x="86" y="-163" font-family="Helvetica,sans-Serif" font-size="10.00">Support::compare_text</text>
<text text-anchor="middle" x="136" y="-152" font-family="Helvetica,sans-Serif" font-size="10.00">_files</text>
</a>
</g>
</g>
<!-- Node1&#45;&gt;Node2 -->
<g id="edge1" class="edge"><title>Node1&#45;&gt;Node2</title>
<path fill="none" stroke="midnightblue" d="M42.2021,-123.866C54.6089,-128.697 71.0652,-135.105 86.6717,-141.182"/>
<polygon fill="midnightblue" stroke="midnightblue" points="85.6469,-144.539 96.2353,-144.906 88.1868,-138.016 85.6469,-144.539"/>
</g>
<!-- Node3 -->
<g id="node3" class="node"><title>Node3</title>
<g id="a_node3"><a xlink:href="classSupport.html#a9bbdf6f202f4f2e45e7a53007dd0a238" target="_top" xlink:title="Support::datapath">
<polygon fill="white" stroke="black" points="89,-106.5 89,-125.5 183,-125.5 183,-106.5 89,-106.5"/>
<text text-anchor="middle" x="136" y="-113.5" font-family="Helvetica,sans-Serif" font-size="10.00">Support::datapath</text>
</a>
</g>
</g>
<!-- Node1&#45;&gt;Node3 -->
<g id="edge2" class="edge"><title>Node1&#45;&gt;Node3</title>
<path fill="none" stroke="midnightblue" d="M42.2021,-116C52.4208,-116 65.3864,-116 78.3618,-116"/>
<polygon fill="midnightblue" stroke="midnightblue" points="78.7177,-119.5 88.7176,-116 78.7176,-112.5 78.7177,-119.5"/>
</g>
<!-- Node5 -->
<g id="node5" class="node"><title>Node5</title>
<g id="a_node5"><a xlink:href="classSupport.html#a645224b95da1981afe87fc417ca29494" target="_top" xlink:title="Support::diff_text\l_files">
<polygon fill="white" stroke="black" points="90,-41 90,-71 182,-71 182,-41 90,-41"/>
<text text-anchor="start" x="98" y="-59" font-family="Helvetica,sans-Serif" font-size="10.00">Support::diff_text</text>
<text text-anchor="middle" x="136" y="-48" font-family="Helvetica,sans-Serif" font-size="10.00">_files</text>
</a>
</g>
</g>
<!-- Node1&#45;&gt;Node5 -->
<g id="edge4" class="edge"><title>Node1&#45;&gt;Node5</title>
<path fill="none" stroke="midnightblue" d="M39.9052,-106.493C55.3777,-98.2773 78.2471,-86.1343 97.6811,-75.8153"/>
<polygon fill="midnightblue" stroke="midnightblue" points="99.4222,-78.8537 106.613,-71.0728 96.1394,-72.6712 99.4222,-78.8537"/>
</g>
<!-- Node4 -->
<g id="node4" class="node"><title>Node4</title>
<g id="a_node4"><a xlink:href="namespaceTestConfig.html#a0e622015f0610c2cfcbb3739b972d877" target="_top" xlink:title="TestConfig::dataPath">
<polygon fill="white" stroke="black" points="230,-114.5 230,-133.5 340,-133.5 340,-114.5 230,-114.5"/>
<text text-anchor="middle" x="285" y="-121.5" font-family="Helvetica,sans-Serif" font-size="10.00">TestConfig::dataPath</text>
</a>
</g>
</g>
<!-- Node3&#45;&gt;Node4 -->
<g id="edge3" class="edge"><title>Node3&#45;&gt;Node4</title>
<path fill="none" stroke="midnightblue" d="M183.108,-118.509C194.686,-119.139 207.321,-119.827 219.612,-120.496"/>
<polygon fill="midnightblue" stroke="midnightblue" points="219.648,-124.003 229.824,-121.052 220.029,-117.013 219.648,-124.003"/>
</g>
<!-- Node6 -->
<g id="node6" class="node"><title>Node6</title>
<g id="a_node6"><a xlink:href="namespacepdal_1_1Utils.html#aa7cd618aca677bff881c1c14fbeebe72" target="_top" xlink:title="pdal::Utils::fileExists">
<polygon fill="white" stroke="black" points="231.5,-76.5 231.5,-95.5 338.5,-95.5 338.5,-76.5 231.5,-76.5"/>
<text text-anchor="middle" x="285" y="-83.5" font-family="Helvetica,sans-Serif" font-size="10.00">pdal::Utils::fileExists</text>
</a>
</g>
</g>
<!-- Node5&#45;&gt;Node6 -->
<g id="edge5" class="edge"><title>Node5&#45;&gt;Node6</title>
<path fill="none" stroke="midnightblue" d="M182.304,-65.2458C196.493,-68.1413 212.333,-71.3741 227.209,-74.41"/>
<polygon fill="midnightblue" stroke="midnightblue" points="226.824,-77.9035 237.322,-76.4738 228.224,-71.0448 226.824,-77.9035"/>
</g>
<!-- Node7 -->
<g id="node7" class="node"><title>Node7</title>
<g id="a_node7"><a xlink:href="namespacepdal_1_1Utils.html#ac3322e84f8c5a998a344a5a606c74793" target="_top" xlink:title="pdal::Utils::openFile">
<polygon fill="white" stroke="black" points="233,-38.5 233,-57.5 337,-57.5 337,-38.5 233,-38.5"/>
<text text-anchor="middle" x="285" y="-45.5" font-family="Helvetica,sans-Serif" font-size="10.00">pdal::Utils::openFile</text>
</a>
</g>
</g>
<!-- Node5&#45;&gt;Node7 -->
<g id="edge6" class="edge"><title>Node5&#45;&gt;Node7</title>
<path fill="none" stroke="midnightblue" d="M182.304,-53.5345C195.077,-52.8394 209.188,-52.0714 222.73,-51.3344"/>
<polygon fill="midnightblue" stroke="midnightblue" points="223.148,-54.817 232.943,-50.7786 222.767,-47.8273 223.148,-54.817"/>
</g>
<!-- Node9 -->
<g id="node9" class="node"><title>Node9</title>
<g id="a_node9"><a xlink:href="namespacepdal_1_1Utils.html#aad48cdff8e3ff3d13c7a273583870185" target="_top" xlink:title="pdal::Utils::closeFile">
<polygon fill="white" stroke="black" points="232,-0.5 232,-19.5 338,-19.5 338,-0.5 232,-0.5"/>
<text text-anchor="middle" x="285" y="-7.5" font-family="Helvetica,sans-Serif" font-size="10.00">pdal::Utils::closeFile</text>
</a>
</g>
</g>
<!-- Node5&#45;&gt;Node9 -->
<g id="edge8" class="edge"><title>Node5&#45;&gt;Node9</title>
<path fill="none" stroke="midnightblue" d="M182.304,-41.8231C201.988,-35.6637 224.851,-28.5092 243.908,-22.5457"/>
<polygon fill="midnightblue" stroke="midnightblue" points="244.992,-25.8742 253.49,-19.5474 242.901,-19.1936 244.992,-25.8742"/>
</g>
<!-- Node8 -->
<g id="node8" class="node"><title>Node8</title>
<g id="a_node8"><a xlink:href="SQLiteTest_8cpp.html#afdd1742979cee35fe1879794bd7ff3a4" target="_top" xlink:title="tempFilename">
<polygon fill="white" stroke="black" points="390,-38.5 390,-57.5 468,-57.5 468,-38.5 390,-38.5"/>
<text text-anchor="middle" x="429" y="-45.5" font-family="Helvetica,sans-Serif" font-size="10.00">tempFilename</text>
</a>
</g>
</g>
<!-- Node7&#45;&gt;Node8 -->
<g id="edge7" class="edge"><title>Node7&#45;&gt;Node8</title>
<path fill="none" stroke="midnightblue" d="M337.265,-48C351.066,-48 365.947,-48 379.587,-48"/>
<polygon fill="midnightblue" stroke="midnightblue" points="379.736,-51.5001 389.736,-48 379.736,-44.5001 379.736,-51.5001"/>
</g>
<!-- Node10 -->
<g id="node10" class="node"><title>Node10</title>
<g id="a_node10"><a xlink:href="namespacepdal_1_1Utils.html#a6ce7036b0912ba81b1f1a876b2772a34" target="_top" xlink:title="pdal::Utils::closeFile">
<polygon fill="white" stroke="black" points="376,-0.5 376,-19.5 482,-19.5 482,-0.5 376,-0.5"/>
<text text-anchor="middle" x="429" y="-7.5" font-family="Helvetica,sans-Serif" font-size="10.00">pdal::Utils::closeFile</text>
</a>
</g>
</g>
<!-- Node9&#45;&gt;Node10 -->
<g id="edge9" class="edge"><title>Node9&#45;&gt;Node10</title>
<path fill="none" stroke="midnightblue" d="M338.069,-10C347.041,-10 356.447,-10 365.657,-10"/>
<polygon fill="midnightblue" stroke="midnightblue" points="365.937,-13.5001 375.937,-10 365.937,-6.5001 365.937,-13.5001"/>
</g>
</g>
</svg>
