<?xml version="1.0" encoding="UTF-8" standalone="no"?>
<!DOCTYPE svg PUBLIC "-//W3C//DTD SVG 1.1//EN"
 "http://www.w3.org/Graphics/SVG/1.1/DTD/svg11.dtd">
<!-- Generated by graphviz version 2.38.0 (20140413.2041)
 -->
<!-- Title: compareTextLas Pages: 1 -->
<svg width="1131pt" height="927pt"
 viewBox="0.00 0.00 1131.00 926.50" xmlns="http://www.w3.org/2000/svg" xmlns:xlink="http://www.w3.org/1999/xlink">
<g id="graph0" class="graph" transform="scale(1 1) rotate(0) translate(4 922.5)">
<title>compareTextLas</title>
<polygon fill="white" stroke="none" points="-4,4 -4,-922.5 1127,-922.5 1127,4 -4,4"/>
<!-- Node1 -->
<g id="node1" class="node"><title>Node1</title>
<polygon fill="#bfbfbf" stroke="black" points="0,-309.5 0,-328.5 89,-328.5 89,-309.5 0,-309.5"/>
<text text-anchor="middle" x="44.5" y="-316.5" font-family="Helvetica,sans-Serif" font-size="10.00">compareTextLas</text>
</g>
<!-- Node2 -->
<g id="node2" class="node"><title>Node2</title>
<g id="a_node2"><a xlink:href="classpdal_1_1Options.html#a30826da39f9c4716412141eeeb719032" target="_top" xlink:title="pdal::Options::add">
<polygon fill="white" stroke="black" points="505,-157.5 505,-176.5 601,-176.5 601,-157.5 505,-157.5"/>
<text text-anchor="middle" x="553" y="-164.5" font-family="Helvetica,sans-Serif" font-size="10.00">pdal::Options::add</text>
</a>
</g>
</g>
<!-- Node1&#45;&gt;Node2 -->
<g id="edge1" class="edge"><title>Node1&#45;&gt;Node2</title>
<path fill="none" stroke="midnightblue" d="M74.6473,-309.453C144.02,-286.856 324.538,-228.778 477,-186 485.273,-183.679 494.094,-181.331 502.674,-179.115"/>
<polygon fill="midnightblue" stroke="midnightblue" points="503.763,-182.45 512.586,-176.584 502.031,-175.667 503.763,-182.45"/>
</g>
<!-- Node9 -->
<g id="node9" class="node"><title>Node9</title>
<g id="a_node9"><a xlink:href="classpdal_1_1Stage.html#a1615c4aa5ec5e48f90d73f0e7a796935" target="_top" xlink:title="pdal::Stage::execute">
<polygon fill="white" stroke="black" points="131,-685.5 131,-704.5 238,-704.5 238,-685.5 131,-685.5"/>
<text text-anchor="middle" x="184.5" y="-692.5" font-family="Helvetica,sans-Serif" font-size="10.00">pdal::Stage::execute</text>
</a>
</g>
</g>
<!-- Node1&#45;&gt;Node9 -->
<g id="edge8" class="edge"><title>Node1&#45;&gt;Node9</title>
<path fill="none" stroke="midnightblue" d="M49.0499,-328.672C67.3908,-378.644 151.521,-607.869 176.493,-675.908"/>
<polygon fill="midnightblue" stroke="midnightblue" points="173.242,-677.21 179.974,-685.392 179.814,-674.798 173.242,-677.21"/>
</g>
<!-- Node26 -->
<g id="node26" class="node"><title>Node26</title>
<g id="a_node26"><a xlink:href="classpdal_1_1Stage.html#a4b9296a59f8852b3d08630f1086bfbea" target="_top" xlink:title="pdal::Stage::prepare">
<polygon fill="white" stroke="black" points="132.5,-385.5 132.5,-404.5 236.5,-404.5 236.5,-385.5 132.5,-385.5"/>
<text text-anchor="middle" x="184.5" y="-392.5" font-family="Helvetica,sans-Serif" font-size="10.00">pdal::Stage::prepare</text>
</a>
</g>
</g>
<!-- Node1&#45;&gt;Node26 -->
<g id="edge26" class="edge"><title>Node1&#45;&gt;Node26</title>
<path fill="none" stroke="midnightblue" d="M62.9778,-328.625C86.7231,-341.703 129.382,-365.196 157.056,-380.437"/>
<polygon fill="midnightblue" stroke="midnightblue" points="155.716,-383.694 166.164,-385.453 159.093,-377.563 155.716,-383.694"/>
</g>
<!-- Node50 -->
<g id="node50" class="node"><title>Node50</title>
<g id="a_node50"><a xlink:href="classpdal_1_1Stage.html#acb2434df20f371f1fec9577de3cf0046" target="_top" xlink:title="pdal::Stage::setOptions">
<polygon fill="white" stroke="black" points="125,-195.5 125,-214.5 244,-214.5 244,-195.5 125,-195.5"/>
<text text-anchor="middle" x="184.5" y="-202.5" font-family="Helvetica,sans-Serif" font-size="10.00">pdal::Stage::setOptions</text>
</a>
</g>
</g>
<!-- Node1&#45;&gt;Node50 -->
<g id="edge64" class="edge"><title>Node1&#45;&gt;Node50</title>
<path fill="none" stroke="midnightblue" d="M51.8061,-309.288C63.9724,-291.226 92.3823,-252.202 125,-229 130.589,-225.024 136.936,-221.559 143.336,-218.593"/>
<polygon fill="midnightblue" stroke="midnightblue" points="144.851,-221.751 152.67,-214.602 142.099,-215.315 144.851,-221.751"/>
</g>
<!-- Node3 -->
<g id="node3" class="node"><title>Node3</title>
<g id="a_node3"><a xlink:href="classpdal_1_1Option.html#aef4422b88464a9cad83b3c11bf1f8cdd" target="_top" xlink:title="pdal::Option::nameValid">
<polygon fill="white" stroke="black" points="674,-119.5 674,-138.5 795,-138.5 795,-119.5 674,-119.5"/>
<text text-anchor="middle" x="734.5" y="-126.5" font-family="Helvetica,sans-Serif" font-size="10.00">pdal::Option::nameValid</text>
</a>
</g>
</g>
<!-- Node2&#45;&gt;Node3 -->
<g id="edge2" class="edge"><title>Node2&#45;&gt;Node3</title>
<path fill="none" stroke="midnightblue" d="M599.295,-157.411C623.409,-152.306 653.251,-145.989 678.667,-140.608"/>
<polygon fill="midnightblue" stroke="midnightblue" points="679.472,-144.015 688.53,-138.52 678.022,-137.167 679.472,-144.015"/>
</g>
<!-- Node8 -->
<g id="node8" class="node"><title>Node8</title>
<g id="a_node8"><a xlink:href="classpdal_1_1Option.html#ad2b7a736742fb343e421fa326ef45c23" target="_top" xlink:title="pdal::Option::getName">
<polygon fill="white" stroke="black" points="847.5,-214.5 847.5,-233.5 962.5,-233.5 962.5,-214.5 847.5,-214.5"/>
<text text-anchor="middle" x="905" y="-221.5" font-family="Helvetica,sans-Serif" font-size="10.00">pdal::Option::getName</text>
</a>
</g>
</g>
<!-- Node2&#45;&gt;Node8 -->
<g id="edge7" class="edge"><title>Node2&#45;&gt;Node8</title>
<path fill="none" stroke="midnightblue" d="M601.203,-174.687C662.115,-184.607 768.446,-201.924 837.517,-213.173"/>
<polygon fill="midnightblue" stroke="midnightblue" points="836.995,-216.634 847.428,-214.787 838.12,-209.725 836.995,-216.634"/>
</g>
<!-- Node4 -->
<g id="node4" class="node"><title>Node4</title>
<g id="a_node4"><a xlink:href="classpdal_1_1Option.html#a978a36cf9180d3636ea770988961952b" target="_top" xlink:title="pdal::Option::parse">
<polygon fill="white" stroke="black" points="855.5,-56.5 855.5,-75.5 954.5,-75.5 954.5,-56.5 855.5,-56.5"/>
<text text-anchor="middle" x="905" y="-63.5" font-family="Helvetica,sans-Serif" font-size="10.00">pdal::Option::parse</text>
</a>
</g>
</g>
<!-- Node3&#45;&gt;Node4 -->
<g id="edge3" class="edge"><title>Node3&#45;&gt;Node4</title>
<path fill="none" stroke="midnightblue" d="M771.318,-119.435C781.926,-116.363 793.507,-112.772 804,-109 828.038,-100.359 854.569,-88.8558 874.26,-79.9214"/>
<polygon fill="midnightblue" stroke="midnightblue" points="875.975,-82.9855 883.609,-75.6392 873.06,-76.6213 875.975,-82.9855"/>
</g>
<!-- Node7 -->
<g id="node7" class="node"><title>Node7</title>
<g id="a_node7"><a xlink:href="namespacepdal_1_1Utils.html#ada321695f57c876ef51227bdf5b84f7a" target="_top" xlink:title="pdal::Utils::printError">
<polygon fill="white" stroke="black" points="851.5,-119.5 851.5,-138.5 958.5,-138.5 958.5,-119.5 851.5,-119.5"/>
<text text-anchor="middle" x="905" y="-126.5" font-family="Helvetica,sans-Serif" font-size="10.00">pdal::Utils::printError</text>
</a>
</g>
</g>
<!-- Node3&#45;&gt;Node7 -->
<g id="edge6" class="edge"><title>Node3&#45;&gt;Node7</title>
<path fill="none" stroke="midnightblue" d="M795.381,-129C810.215,-129 826.151,-129 841.123,-129"/>
<polygon fill="midnightblue" stroke="midnightblue" points="841.308,-132.5 851.308,-129 841.308,-125.5 841.308,-132.5"/>
</g>
<!-- Node5 -->
<g id="node5" class="node"><title>Node5</title>
<g id="a_node5"><a xlink:href="namespacepdal_1_1Utils.html#acae5a19cd66121b77e2599daec48413d" target="_top" xlink:title="pdal::Utils::extract">
<polygon fill="white" stroke="black" points="1016,-6.5 1016,-25.5 1113,-25.5 1113,-6.5 1016,-6.5"/>
<text text-anchor="middle" x="1064.5" y="-13.5" font-family="Helvetica,sans-Serif" font-size="10.00">pdal::Utils::extract</text>
</a>
</g>
</g>
<!-- Node4&#45;&gt;Node5 -->
<g id="edge4" class="edge"><title>Node4&#45;&gt;Node5</title>
<path fill="none" stroke="midnightblue" d="M935.995,-56.4777C960.876,-48.5791 996.461,-37.2823 1023.72,-28.6291"/>
<polygon fill="midnightblue" stroke="midnightblue" points="1024.88,-31.9337 1033.35,-25.5719 1022.76,-25.2618 1024.88,-31.9337"/>
</g>
<!-- Node6 -->
<g id="node6" class="node"><title>Node6</title>
<g id="a_node6"><a xlink:href="namespacepdal_1_1Dimension.html#af3176b0b7e6b4be000317846cf7c2718" target="_top" xlink:title="pdal::Dimension::name">
<polygon fill="white" stroke="black" points="1006,-56.5 1006,-75.5 1123,-75.5 1123,-56.5 1006,-56.5"/>
<text text-anchor="middle" x="1064.5" y="-63.5" font-family="Helvetica,sans-Serif" font-size="10.00">pdal::Dimension::name</text>
</a>
</g>
</g>
<!-- Node4&#45;&gt;Node6 -->
<g id="edge5" class="edge"><title>Node4&#45;&gt;Node6</title>
<path fill="none" stroke="midnightblue" d="M954.54,-66C967.632,-66 982.037,-66 995.964,-66"/>
<polygon fill="midnightblue" stroke="midnightblue" points="995.995,-69.5001 1005.99,-66 995.995,-62.5001 995.995,-69.5001"/>
</g>
<!-- Node9&#45;&gt;Node9 -->
<g id="edge17" class="edge"><title>Node9&#45;&gt;Node9</title>
<path fill="none" stroke="midnightblue" d="M162.922,-704.757C152.424,-713.565 159.617,-723 184.5,-723 200.441,-723 209.121,-719.128 210.542,-714.029"/>
<polygon fill="midnightblue" stroke="midnightblue" points="213.569,-712.249 206.078,-704.757 207.262,-715.286 213.569,-712.249"/>
</g>
<!-- Node10 -->
<g id="node10" class="node"><title>Node10</title>
<g id="a_node10"><a xlink:href="classpdal_1_1Stage.html#a74cf636cb0f633411e4e40dcd718508a" target="_top" xlink:title="pdal::Stage::startLogging">
<polygon fill="white" stroke="black" points="490.5,-587.5 490.5,-606.5 615.5,-606.5 615.5,-587.5 490.5,-587.5"/>
<text text-anchor="middle" x="553" y="-594.5" font-family="Helvetica,sans-Serif" font-size="10.00">pdal::Stage::startLogging</text>
</a>
</g>
</g>
<!-- Node9&#45;&gt;Node10 -->
<g id="edge9" class="edge"><title>Node9&#45;&gt;Node10</title>
<path fill="none" stroke="midnightblue" d="M193.356,-685.259C208.158,-667.727 242.116,-631.264 280,-616 344.172,-590.144 423.727,-587.618 480.183,-590.211"/>
<polygon fill="midnightblue" stroke="midnightblue" points="480.277,-593.721 490.447,-590.75 480.645,-586.73 480.277,-593.721"/>
</g>
<!-- Node17 -->
<g id="node17" class="node"><title>Node17</title>
<g id="a_node17"><a xlink:href="classpdal_1_1BasePointTable.html#a2554cd260c437c9b1e4a017a28a5c7de" target="_top" xlink:title="pdal::BasePointTable\l::finalize">
<polygon fill="white" stroke="black" points="305.5,-800 305.5,-830 415.5,-830 415.5,-800 305.5,-800"/>
<text text-anchor="start" x="313.5" y="-818" font-family="Helvetica,sans-Serif" font-size="10.00">pdal::BasePointTable</text>
<text text-anchor="middle" x="360.5" y="-807" font-family="Helvetica,sans-Serif" font-size="10.00">::finalize</text>
</a>
</g>
</g>
<!-- Node9&#45;&gt;Node17 -->
<g id="edge16" class="edge"><title>Node9&#45;&gt;Node17</title>
<path fill="none" stroke="midnightblue" d="M192.39,-704.739C206.565,-724.065 240.961,-767.427 280,-791 284.981,-794.008 290.368,-796.664 295.908,-799.004"/>
<polygon fill="midnightblue" stroke="midnightblue" points="294.743,-802.306 305.332,-802.651 297.269,-795.778 294.743,-802.306"/>
</g>
<!-- Node18 -->
<g id="node18" class="node"><title>Node18</title>
<g id="a_node18"><a xlink:href="classpdal_1_1BasePointTable.html#aa3ed63a9e1a8897ccb7dc81a614f6141" target="_top" xlink:title="pdal::BasePointTable\l::clearSpatialReferences">
<polygon fill="white" stroke="black" points="298.5,-751 298.5,-781 422.5,-781 422.5,-751 298.5,-751"/>
<text text-anchor="start" x="306.5" y="-769" font-family="Helvetica,sans-Serif" font-size="10.00">pdal::BasePointTable</text>
<text text-anchor="middle" x="360.5" y="-758" font-family="Helvetica,sans-Serif" font-size="10.00">::clearSpatialReferences</text>
</a>
</g>
</g>
<!-- Node9&#45;&gt;Node18 -->
<g id="edge18" class="edge"><title>Node9&#45;&gt;Node18</title>
<path fill="none" stroke="midnightblue" d="M202.518,-704.557C221.138,-714.753 252.064,-730.927 280,-742 285.026,-743.992 290.286,-745.916 295.602,-747.748"/>
<polygon fill="midnightblue" stroke="midnightblue" points="294.602,-751.104 305.196,-750.942 296.814,-744.462 294.602,-751.104"/>
</g>
<!-- Node19 -->
<g id="node19" class="node"><title>Node19</title>
<g id="a_node19"><a xlink:href="classpdal_1_1BasePointTable.html#a670592aca912391f1a90073a2031e5e0" target="_top" xlink:title="pdal::BasePointTable\l::addSpatialReference">
<polygon fill="white" stroke="black" points="304,-702 304,-732 417,-732 417,-702 304,-702"/>
<text text-anchor="start" x="312" y="-720" font-family="Helvetica,sans-Serif" font-size="10.00">pdal::BasePointTable</text>
<text text-anchor="middle" x="360.5" y="-709" font-family="Helvetica,sans-Serif" font-size="10.00">::addSpatialReference</text>
</a>
</g>
</g>
<!-- Node9&#45;&gt;Node19 -->
<g id="edge19" class="edge"><title>Node9&#45;&gt;Node19</title>
<path fill="none" stroke="midnightblue" d="M238.178,-701.66C255.732,-703.88 275.507,-706.38 293.917,-708.708"/>
<polygon fill="midnightblue" stroke="midnightblue" points="293.622,-712.198 303.982,-709.98 294.5,-705.254 293.622,-712.198"/>
</g>
<!-- Node20 -->
<g id="node20" class="node"><title>Node20</title>
<g id="a_node20"><a xlink:href="classpdal_1_1Stage.html#afb562c59c53ed8120df9106655eb2543" target="_top" xlink:title="pdal::Stage::ready">
<polygon fill="white" stroke="black" points="312.5,-663.5 312.5,-682.5 408.5,-682.5 408.5,-663.5 312.5,-663.5"/>
<text text-anchor="middle" x="360.5" y="-670.5" font-family="Helvetica,sans-Serif" font-size="10.00">pdal::Stage::ready</text>
</a>
</g>
</g>
<!-- Node9&#45;&gt;Node20 -->
<g id="edge20" class="edge"><title>Node9&#45;&gt;Node20</title>
<path fill="none" stroke="midnightblue" d="M238.178,-688.34C258.464,-685.775 281.716,-682.835 302.4,-680.22"/>
<polygon fill="midnightblue" stroke="midnightblue" points="302.842,-683.692 312.323,-678.965 301.963,-676.747 302.842,-683.692"/>
</g>
<!-- Node21 -->
<g id="node21" class="node"><title>Node21</title>
<g id="a_node21"><a xlink:href="classpdal_1_1Stage.html#a9889b4446f40daa6f4cd7bfe3c567839" target="_top" xlink:title="pdal::Stage::getSpatialReference">
<polygon fill="white" stroke="black" points="280,-625.5 280,-644.5 441,-644.5 441,-625.5 280,-625.5"/>
<text text-anchor="middle" x="360.5" y="-632.5" font-family="Helvetica,sans-Serif" font-size="10.00">pdal::Stage::getSpatialReference</text>
</a>
</g>
</g>
<!-- Node9&#45;&gt;Node21 -->
<g id="edge21" class="edge"><title>Node9&#45;&gt;Node21</title>
<path fill="none" stroke="midnightblue" d="M205.017,-685.334C223.857,-676.293 253.365,-662.885 280,-654 287.477,-651.506 295.453,-649.199 303.358,-647.117"/>
<polygon fill="midnightblue" stroke="midnightblue" points="304.457,-650.449 313.291,-644.601 302.738,-643.663 304.457,-650.449"/>
</g>
<!-- Node22 -->
<g id="node22" class="node"><title>Node22</title>
<g id="a_node22"><a xlink:href="classpdal_1_1SpatialReference.html#a48fa2f7e79ea172b62ad2e874ff01610" target="_top" xlink:title="pdal::SpatialReference\l::empty">
<polygon fill="white" stroke="black" points="302.5,-888 302.5,-918 418.5,-918 418.5,-888 302.5,-888"/>
<text text-anchor="start" x="310.5" y="-906" font-family="Helvetica,sans-Serif" font-size="10.00">pdal::SpatialReference</text>
<text text-anchor="middle" x="360.5" y="-895" font-family="Helvetica,sans-Serif" font-size="10.00">::empty</text>
</a>
</g>
</g>
<!-- Node9&#45;&gt;Node22 -->
<g id="edge22" class="edge"><title>Node9&#45;&gt;Node22</title>
<path fill="none" stroke="midnightblue" d="M187.67,-704.605C195.001,-734.843 221.718,-828.97 280,-878 283.981,-881.349 288.411,-884.25 293.087,-886.763"/>
<polygon fill="midnightblue" stroke="midnightblue" points="291.79,-890.022 302.327,-891.134 294.784,-883.694 291.79,-890.022"/>
</g>
<!-- Node23 -->
<g id="node23" class="node"><title>Node23</title>
<g id="a_node23"><a xlink:href="classpdal_1_1Stage.html#a1b00532ede55b90a7b6332a2966f5626" target="_top" xlink:title="pdal::Stage::l_done">
<polygon fill="white" stroke="black" points="310,-849.5 310,-868.5 411,-868.5 411,-849.5 310,-849.5"/>
<text text-anchor="middle" x="360.5" y="-856.5" font-family="Helvetica,sans-Serif" font-size="10.00">pdal::Stage::l_done</text>
</a>
</g>
</g>
<!-- Node9&#45;&gt;Node23 -->
<g id="edge23" class="edge"><title>Node9&#45;&gt;Node23</title>
<path fill="none" stroke="midnightblue" d="M188.833,-704.584C198.457,-730.776 228.912,-803.996 280,-840 286.061,-844.271 292.959,-847.591 300.101,-850.168"/>
<polygon fill="midnightblue" stroke="midnightblue" points="299.346,-853.599 309.935,-853.244 301.436,-846.919 299.346,-853.599"/>
</g>
<!-- Node25 -->
<g id="node25" class="node"><title>Node25</title>
<g id="a_node25"><a xlink:href="classpdal_1_1Stage.html#ae49e996fe285350923a3bf44d027adad" target="_top" xlink:title="pdal::Stage::stopLogging">
<polygon fill="white" stroke="black" points="298,-549.5 298,-568.5 423,-568.5 423,-549.5 298,-549.5"/>
<text text-anchor="middle" x="360.5" y="-556.5" font-family="Helvetica,sans-Serif" font-size="10.00">pdal::Stage::stopLogging</text>
</a>
</g>
</g>
<!-- Node9&#45;&gt;Node25 -->
<g id="edge25" class="edge"><title>Node9&#45;&gt;Node25</title>
<path fill="none" stroke="midnightblue" d="M190.984,-685.279C203.72,-663.588 237.483,-610.951 280,-583 286.766,-578.552 294.39,-574.9 302.169,-571.91"/>
<polygon fill="midnightblue" stroke="midnightblue" points="303.405,-575.186 311.689,-568.581 301.094,-568.578 303.405,-575.186"/>
</g>
<!-- Node11 -->
<g id="node11" class="node"><title>Node11</title>
<g id="a_node11"><a xlink:href="classpdal_1_1gdal_1_1ErrorHandler.html#a56e0125595a43bf3b0cbd0b9a4bc55ea" target="_top" xlink:title="pdal::gdal::ErrorHandler\l::getGlobalErrorHandler">
<polygon fill="white" stroke="black" points="675,-435 675,-465 794,-465 794,-435 675,-435"/>
<text text-anchor="start" x="683" y="-453" font-family="Helvetica,sans-Serif" font-size="10.00">pdal::gdal::ErrorHandler</text>
<text text-anchor="middle" x="734.5" y="-442" font-family="Helvetica,sans-Serif" font-size="10.00">::getGlobalErrorHandler</text>
</a>
</g>
</g>
<!-- Node10&#45;&gt;Node11 -->
<g id="edge10" class="edge"><title>Node10&#45;&gt;Node11</title>
<path fill="none" stroke="midnightblue" d="M610.554,-587.485C617.188,-584.806 623.53,-581.38 629,-577 655.999,-555.378 643.397,-535.014 665,-508 675.937,-494.323 690.473,-481.477 703.34,-471.368"/>
<polygon fill="midnightblue" stroke="midnightblue" points="705.675,-473.988 711.499,-465.138 701.427,-468.424 705.675,-473.988"/>
</g>
<!-- Node13 -->
<g id="node13" class="node"><title>Node13</title>
<g id="a_node13"><a xlink:href="classpdal_1_1gdal_1_1ErrorHandler.html#ace1cff928ab179f671181ebaf4d280a4" target="_top" xlink:title="pdal::gdal::ErrorHandler::set">
<polygon fill="white" stroke="black" points="665,-517.5 665,-536.5 804,-536.5 804,-517.5 665,-517.5"/>
<text text-anchor="middle" x="734.5" y="-524.5" font-family="Helvetica,sans-Serif" font-size="10.00">pdal::gdal::ErrorHandler::set</text>
</a>
</g>
</g>
<!-- Node10&#45;&gt;Node13 -->
<g id="edge12" class="edge"><title>Node10&#45;&gt;Node13</title>
<path fill="none" stroke="midnightblue" d="M600.558,-587.416C610.195,-584.656 620.112,-581.217 629,-577 646.831,-568.539 647.505,-560.136 665,-551 672.953,-546.847 681.782,-543.147 690.383,-539.97"/>
<polygon fill="midnightblue" stroke="midnightblue" points="691.667,-543.229 699.939,-536.609 689.344,-536.626 691.667,-543.229"/>
</g>
<!-- Node16 -->
<g id="node16" class="node"><title>Node16</title>
<g id="a_node16"><a xlink:href="classpdal_1_1Stage.html#aec4fb27c40bb4b032ff003a89a950dd4" target="_top" xlink:title="pdal::Stage::isDebug">
<polygon fill="white" stroke="black" points="680.5,-560.5 680.5,-579.5 788.5,-579.5 788.5,-560.5 680.5,-560.5"/>
<text text-anchor="middle" x="734.5" y="-567.5" font-family="Helvetica,sans-Serif" font-size="10.00">pdal::Stage::isDebug</text>
</a>
</g>
</g>
<!-- Node10&#45;&gt;Node16 -->
<g id="edge15" class="edge"><title>Node10&#45;&gt;Node16</title>
<path fill="none" stroke="midnightblue" d="M615.523,-587.746C633.169,-585.092 652.436,-582.194 670.188,-579.523"/>
<polygon fill="midnightblue" stroke="midnightblue" points="671.073,-582.93 680.441,-577.981 670.031,-576.008 671.073,-582.93"/>
</g>
<!-- Node12 -->
<g id="node12" class="node"><title>Node12</title>
<g id="a_node12"><a xlink:href="classpdal_1_1gdal_1_1ErrorHandler.html#a73215504640551589024d36018f81d33" target="_top" xlink:title="pdal::gdal::ErrorHandler\l::ErrorHandler">
<polygon fill="white" stroke="red" points="845.5,-435 845.5,-465 964.5,-465 964.5,-435 845.5,-435"/>
<text text-anchor="start" x="853.5" y="-453" font-family="Helvetica,sans-Serif" font-size="10.00">pdal::gdal::ErrorHandler</text>
<text text-anchor="middle" x="905" y="-442" font-family="Helvetica,sans-Serif" font-size="10.00">::ErrorHandler</text>
</a>
</g>
</g>
<!-- Node11&#45;&gt;Node12 -->
<g id="edge11" class="edge"><title>Node11&#45;&gt;Node12</title>
<path fill="none" stroke="midnightblue" d="M794.433,-450C807.592,-450 821.659,-450 835.178,-450"/>
<polygon fill="midnightblue" stroke="midnightblue" points="835.385,-453.5 845.385,-450 835.385,-446.5 835.385,-453.5"/>
</g>
<!-- Node14 -->
<g id="node14" class="node"><title>Node14</title>
<g id="a_node14"><a xlink:href="classpdal_1_1gdal_1_1ErrorHandler.html#abe7fbf19bfcfbb0be1c8ae934bd5c9d2" target="_top" xlink:title="pdal::gdal::ErrorHandler\l::setLog">
<polygon fill="white" stroke="black" points="845.5,-536 845.5,-566 964.5,-566 964.5,-536 845.5,-536"/>
<text text-anchor="start" x="853.5" y="-554" font-family="Helvetica,sans-Serif" font-size="10.00">pdal::gdal::ErrorHandler</text>
<text text-anchor="middle" x="905" y="-543" font-family="Helvetica,sans-Serif" font-size="10.00">::setLog</text>
</a>
</g>
</g>
<!-- Node13&#45;&gt;Node14 -->
<g id="edge13" class="edge"><title>Node13&#45;&gt;Node14</title>
<path fill="none" stroke="midnightblue" d="M802.58,-536.554C813.29,-538.08 824.388,-539.661 835.139,-541.192"/>
<polygon fill="midnightblue" stroke="midnightblue" points="834.923,-544.696 845.316,-542.641 835.91,-537.766 834.923,-544.696"/>
</g>
<!-- Node15 -->
<g id="node15" class="node"><title>Node15</title>
<g id="a_node15"><a xlink:href="classpdal_1_1gdal_1_1ErrorHandler.html#a61ea2c53f778817785d39cd9fc6a81a6" target="_top" xlink:title="pdal::gdal::ErrorHandler\l::setDebug">
<polygon fill="white" stroke="black" points="845.5,-487 845.5,-517 964.5,-517 964.5,-487 845.5,-487"/>
<text text-anchor="start" x="853.5" y="-505" font-family="Helvetica,sans-Serif" font-size="10.00">pdal::gdal::ErrorHandler</text>
<text text-anchor="middle" x="905" y="-494" font-family="Helvetica,sans-Serif" font-size="10.00">::setDebug</text>
</a>
</g>
</g>
<!-- Node13&#45;&gt;Node15 -->
<g id="edge14" class="edge"><title>Node13&#45;&gt;Node15</title>
<path fill="none" stroke="midnightblue" d="M799.683,-517.477C811.264,-515.759 823.383,-513.961 835.092,-512.224"/>
<polygon fill="midnightblue" stroke="midnightblue" points="835.875,-515.646 845.253,-510.716 834.847,-508.722 835.875,-515.646"/>
</g>
<!-- Node24 -->
<g id="node24" class="node"><title>Node24</title>
<g id="a_node24"><a xlink:href="classpdal_1_1Stage.html#a2444e73dc41bfc0b94981909595ef2ca" target="_top" xlink:title="pdal::Stage::done">
<polygon fill="white" stroke="black" points="506.5,-849.5 506.5,-868.5 599.5,-868.5 599.5,-849.5 506.5,-849.5"/>
<text text-anchor="middle" x="553" y="-856.5" font-family="Helvetica,sans-Serif" font-size="10.00">pdal::Stage::done</text>
</a>
</g>
</g>
<!-- Node23&#45;&gt;Node24 -->
<g id="edge24" class="edge"><title>Node23&#45;&gt;Node24</title>
<path fill="none" stroke="midnightblue" d="M411.054,-859C437.155,-859 469.254,-859 496.224,-859"/>
<polygon fill="midnightblue" stroke="midnightblue" points="496.286,-862.5 506.286,-859 496.286,-855.5 496.286,-862.5"/>
</g>
<!-- Node26&#45;&gt;Node10 -->
<g id="edge53" class="edge"><title>Node26&#45;&gt;Node10</title>
<path fill="none" stroke="midnightblue" d="M191.211,-404.672C204.16,-425.712 237.924,-475.768 280,-501 343.142,-538.864 377.048,-503.521 441,-540 460.93,-551.368 457.202,-565.404 477,-577 481.651,-579.724 486.68,-582.086 491.855,-584.131"/>
<polygon fill="midnightblue" stroke="midnightblue" points="490.682,-587.428 501.277,-587.481 493.027,-580.833 490.682,-587.428"/>
</g>
<!-- Node26&#45;&gt;Node25 -->
<g id="edge63" class="edge"><title>Node26&#45;&gt;Node25</title>
<path fill="none" stroke="midnightblue" d="M189.341,-404.834C199.813,-430.347 231.371,-499.161 280,-535 285.905,-539.352 292.602,-542.921 299.544,-545.848"/>
<polygon fill="midnightblue" stroke="midnightblue" points="298.519,-549.202 309.111,-549.454 300.988,-542.652 298.519,-549.202"/>
</g>
<!-- Node26&#45;&gt;Node26 -->
<g id="edge27" class="edge"><title>Node26&#45;&gt;Node26</title>
<path fill="none" stroke="midnightblue" d="M162.922,-404.757C152.424,-413.565 159.617,-423 184.5,-423 200.441,-423 209.121,-419.128 210.542,-414.029"/>
<polygon fill="midnightblue" stroke="midnightblue" points="213.569,-412.249 206.078,-404.757 207.262,-415.286 213.569,-412.249"/>
</g>
<!-- Node27 -->
<g id="node27" class="node"><title>Node27</title>
<g id="a_node27"><a xlink:href="classpdal_1_1Stage.html#a75f17f9b67f48f6aab1d98aadefc4d5c" target="_top" xlink:title="pdal::Stage::handleOptions">
<polygon fill="white" stroke="black" points="293.5,-309.5 293.5,-328.5 427.5,-328.5 427.5,-309.5 293.5,-309.5"/>
<text text-anchor="middle" x="360.5" y="-316.5" font-family="Helvetica,sans-Serif" font-size="10.00">pdal::Stage::handleOptions</text>
</a>
</g>
</g>
<!-- Node26&#45;&gt;Node27 -->
<g id="edge28" class="edge"><title>Node26&#45;&gt;Node27</title>
<path fill="none" stroke="midnightblue" d="M198.576,-385.308C216.205,-372.677 248.971,-350.706 280,-338 286.176,-335.471 292.766,-333.23 299.41,-331.256"/>
<polygon fill="midnightblue" stroke="midnightblue" points="300.441,-334.602 309.14,-328.553 298.568,-327.857 300.441,-334.602"/>
</g>
<!-- Node42 -->
<g id="node42" class="node"><title>Node42</title>
<g id="a_node42"><a xlink:href="classpdal_1_1Stage.html#a6c85dfbf6a674dbc2eda76a79efada48" target="_top" xlink:title="pdal::Stage::l_initialize">
<polygon fill="white" stroke="black" points="303,-385.5 303,-404.5 418,-404.5 418,-385.5 303,-385.5"/>
<text text-anchor="middle" x="360.5" y="-392.5" font-family="Helvetica,sans-Serif" font-size="10.00">pdal::Stage::l_initialize</text>
</a>
</g>
</g>
<!-- Node26&#45;&gt;Node42 -->
<g id="edge54" class="edge"><title>Node26&#45;&gt;Node42</title>
<path fill="none" stroke="midnightblue" d="M236.765,-395C254.273,-395 274.119,-395 292.67,-395"/>
<polygon fill="midnightblue" stroke="midnightblue" points="292.819,-398.5 302.819,-395 292.819,-391.5 292.819,-398.5"/>
</g>
<!-- Node46 -->
<g id="node46" class="node"><title>Node46</title>
<g id="a_node46"><a xlink:href="classpdal_1_1Stage.html#a5b422f842a6374b448439df99fe6e07e" target="_top" xlink:title="pdal::Stage::initialize">
<polygon fill="white" stroke="black" points="307,-347.5 307,-366.5 414,-366.5 414,-347.5 307,-347.5"/>
<text text-anchor="middle" x="360.5" y="-354.5" font-family="Helvetica,sans-Serif" font-size="10.00">pdal::Stage::initialize</text>
</a>
</g>
</g>
<!-- Node26&#45;&gt;Node46 -->
<g id="edge59" class="edge"><title>Node26&#45;&gt;Node46</title>
<path fill="none" stroke="midnightblue" d="M229.408,-385.411C252.679,-380.329 281.454,-374.045 306.019,-368.68"/>
<polygon fill="midnightblue" stroke="midnightblue" points="306.885,-372.073 315.908,-366.52 305.392,-365.234 306.885,-372.073"/>
</g>
<!-- Node47 -->
<g id="node47" class="node"><title>Node47</title>
<g id="a_node47"><a xlink:href="classpdal_1_1Stage.html#a7ec627c76e1c30fc53780bd81d08d4ad" target="_top" xlink:title="pdal::Stage::addDimensions">
<polygon fill="white" stroke="black" points="290.5,-271.5 290.5,-290.5 430.5,-290.5 430.5,-271.5 290.5,-271.5"/>
<text text-anchor="middle" x="360.5" y="-278.5" font-family="Helvetica,sans-Serif" font-size="10.00">pdal::Stage::addDimensions</text>
</a>
</g>
</g>
<!-- Node26&#45;&gt;Node47 -->
<g id="edge60" class="edge"><title>Node26&#45;&gt;Node47</title>
<path fill="none" stroke="midnightblue" d="M192.087,-385.467C205.966,-366.146 240.235,-322.311 280,-300 284.007,-297.752 288.271,-295.769 292.665,-294.019"/>
<polygon fill="midnightblue" stroke="midnightblue" points="294.185,-297.193 302.438,-290.55 291.844,-290.597 294.185,-297.193"/>
</g>
<!-- Node48 -->
<g id="node48" class="node"><title>Node48</title>
<g id="a_node48"><a xlink:href="classpdal_1_1BasePointTable.html#a7e3a12a1f29e6cd10d8669ed3d07eb94" target="_top" xlink:title="pdal::BasePointTable\l::layout">
<polygon fill="white" stroke="black" points="305.5,-462 305.5,-492 415.5,-492 415.5,-462 305.5,-462"/>
<text text-anchor="start" x="313.5" y="-480" font-family="Helvetica,sans-Serif" font-size="10.00">pdal::BasePointTable</text>
<text text-anchor="middle" x="360.5" y="-469" font-family="Helvetica,sans-Serif" font-size="10.00">::layout</text>
</a>
</g>
</g>
<!-- Node26&#45;&gt;Node48 -->
<g id="edge61" class="edge"><title>Node26&#45;&gt;Node48</title>
<path fill="none" stroke="midnightblue" d="M199.022,-404.579C216.875,-416.887 249.61,-438.293 280,-452 285.028,-454.268 290.322,-456.415 295.691,-458.426"/>
<polygon fill="midnightblue" stroke="midnightblue" points="294.8,-461.825 305.394,-461.898 297.158,-455.234 294.8,-461.825"/>
</g>
<!-- Node49 -->
<g id="node49" class="node"><title>Node49</title>
<g id="a_node49"><a xlink:href="classpdal_1_1Stage.html#affff6bc9dbff793d074d76333c5732dd" target="_top" xlink:title="pdal::Stage::prepared">
<polygon fill="white" stroke="black" points="305.5,-423.5 305.5,-442.5 415.5,-442.5 415.5,-423.5 305.5,-423.5"/>
<text text-anchor="middle" x="360.5" y="-430.5" font-family="Helvetica,sans-Serif" font-size="10.00">pdal::Stage::prepared</text>
</a>
</g>
</g>
<!-- Node26&#45;&gt;Node49 -->
<g id="edge62" class="edge"><title>Node26&#45;&gt;Node49</title>
<path fill="none" stroke="midnightblue" d="M229.408,-404.589C252.679,-409.671 281.454,-415.955 306.019,-421.32"/>
<polygon fill="midnightblue" stroke="midnightblue" points="305.392,-424.766 315.908,-423.48 306.885,-417.927 305.392,-424.766"/>
</g>
<!-- Node28 -->
<g id="node28" class="node"><title>Node28</title>
<g id="a_node28"><a xlink:href="classpdal_1_1Stage.html#a75ff99f7b665c6573e304ed4148dd99e" target="_top" xlink:title="pdal::Stage::addAllArgs">
<polygon fill="white" stroke="black" points="493.5,-309.5 493.5,-328.5 612.5,-328.5 612.5,-309.5 493.5,-309.5"/>
<text text-anchor="middle" x="553" y="-316.5" font-family="Helvetica,sans-Serif" font-size="10.00">pdal::Stage::addAllArgs</text>
</a>
</g>
</g>
<!-- Node27&#45;&gt;Node28 -->
<g id="edge29" class="edge"><title>Node27&#45;&gt;Node28</title>
<path fill="none" stroke="midnightblue" d="M427.593,-319C445.553,-319 465.044,-319 483.152,-319"/>
<polygon fill="midnightblue" stroke="midnightblue" points="483.341,-322.5 493.341,-319 483.341,-315.5 483.341,-322.5"/>
</g>
<!-- Node31 -->
<g id="node31" class="node"><title>Node31</title>
<g id="a_node31"><a xlink:href="classpdal_1_1Stage.html#a6c81d6fbbac17ebe4cd63806916cc750" target="_top" xlink:title="pdal::Stage::getName">
<polygon fill="white" stroke="black" points="678.5,-385.5 678.5,-404.5 790.5,-404.5 790.5,-385.5 678.5,-385.5"/>
<text text-anchor="middle" x="734.5" y="-392.5" font-family="Helvetica,sans-Serif" font-size="10.00">pdal::Stage::getName</text>
</a>
</g>
</g>
<!-- Node27&#45;&gt;Node31 -->
<g id="edge47" class="edge"><title>Node27&#45;&gt;Node31</title>
<path fill="none" stroke="midnightblue" d="M408.237,-328.548C476.543,-342.503 603.479,-368.437 676.953,-383.447"/>
<polygon fill="midnightblue" stroke="midnightblue" points="676.456,-386.918 686.954,-385.491 677.857,-380.06 676.456,-386.918"/>
</g>
<!-- Node32 -->
<g id="node32" class="node"><title>Node32</title>
<g id="a_node32"><a xlink:href="classpdal_1_1Options.html#a99aa4c0c7ba443d584f741d22d37f6a5" target="_top" xlink:title="pdal::Options::getValues">
<polygon fill="white" stroke="black" points="491,-195.5 491,-214.5 615,-214.5 615,-195.5 491,-195.5"/>
<text text-anchor="middle" x="553" y="-202.5" font-family="Helvetica,sans-Serif" font-size="10.00">pdal::Options::getValues</text>
</a>
</g>
</g>
<!-- Node27&#45;&gt;Node32 -->
<g id="edge33" class="edge"><title>Node27&#45;&gt;Node32</title>
<path fill="none" stroke="midnightblue" d="M425.183,-309.412C430.871,-306.933 436.261,-303.844 441,-300 470.027,-276.455 448.133,-247.741 477,-224 479.042,-222.32 481.214,-220.786 483.484,-219.386"/>
<polygon fill="midnightblue" stroke="midnightblue" points="485.393,-222.338 492.652,-214.62 482.165,-216.127 485.393,-222.338"/>
</g>
<!-- Node33 -->
<g id="node33" class="node"><title>Node33</title>
<g id="a_node33"><a xlink:href="classpdal_1_1Options.html#aab2dd4f9208512ad8c38a71ad9d2c98b" target="_top" xlink:title="pdal::Options::addConditional">
<polygon fill="white" stroke="black" points="480.5,-119.5 480.5,-138.5 625.5,-138.5 625.5,-119.5 480.5,-119.5"/>
<text text-anchor="middle" x="553" y="-126.5" font-family="Helvetica,sans-Serif" font-size="10.00">pdal::Options::addConditional</text>
</a>
</g>
</g>
<!-- Node27&#45;&gt;Node33 -->
<g id="edge34" class="edge"><title>Node27&#45;&gt;Node33</title>
<path fill="none" stroke="midnightblue" d="M427.6,-309.633C432.527,-307.082 437.091,-303.917 441,-300 490.04,-250.86 428.293,-197.471 477,-148 478.414,-146.564 479.919,-145.232 481.501,-143.995"/>
<polygon fill="midnightblue" stroke="midnightblue" points="483.433,-146.913 489.972,-138.576 479.662,-141.016 483.433,-146.913"/>
</g>
<!-- Node34 -->
<g id="node34" class="node"><title>Node34</title>
<g id="a_node34"><a xlink:href="classpdal_1_1Options.html#a541bdbfe72511dad8a22236f0a3cb2ab" target="_top" xlink:title="pdal::Options::fromFile">
<polygon fill="white" stroke="black" points="495,-53.5 495,-72.5 611,-72.5 611,-53.5 495,-53.5"/>
<text text-anchor="middle" x="553" y="-60.5" font-family="Helvetica,sans-Serif" font-size="10.00">pdal::Options::fromFile</text>
</a>
</g>
</g>
<!-- Node27&#45;&gt;Node34 -->
<g id="edge37" class="edge"><title>Node27&#45;&gt;Node34</title>
<path fill="none" stroke="midnightblue" d="M427.793,-309.821C432.679,-307.231 437.18,-304.005 441,-300 500.318,-237.805 428.533,-180.977 477,-110 486.809,-95.6346 502.609,-84.7836 517.183,-77.1478"/>
<polygon fill="midnightblue" stroke="midnightblue" points="519.061,-80.1257 526.508,-72.5897 515.986,-73.8368 519.061,-80.1257"/>
</g>
<!-- Node38 -->
<g id="node38" class="node"><title>Node38</title>
<g id="a_node38"><a xlink:href="classpdal_1_1Options.html#a0d9ebe7f77b36dea85b51eb0098a5df0" target="_top" xlink:title="pdal::Options::remove">
<polygon fill="white" stroke="black" points="678,-271.5 678,-290.5 791,-290.5 791,-271.5 678,-271.5"/>
<text text-anchor="middle" x="734.5" y="-278.5" font-family="Helvetica,sans-Serif" font-size="10.00">pdal::Options::remove</text>
</a>
</g>
</g>
<!-- Node27&#45;&gt;Node38 -->
<g id="edge42" class="edge"><title>Node27&#45;&gt;Node38</title>
<path fill="none" stroke="midnightblue" d="M413.394,-309.453C433.238,-306.068 456.115,-302.486 477,-300 541.64,-292.305 615.839,-287.212 667.748,-284.254"/>
<polygon fill="midnightblue" stroke="midnightblue" points="668.034,-287.743 677.823,-283.69 667.644,-280.754 668.034,-287.743"/>
</g>
<!-- Node39 -->
<g id="node39" class="node"><title>Node39</title>
<g id="a_node39"><a xlink:href="classpdal_1_1Options.html#afb18dcc4f3883b8413171db00482959c" target="_top" xlink:title="pdal::Options::toCommandLine">
<polygon fill="white" stroke="black" points="477,-233.5 477,-252.5 629,-252.5 629,-233.5 477,-233.5"/>
<text text-anchor="middle" x="553" y="-240.5" font-family="Helvetica,sans-Serif" font-size="10.00">pdal::Options::toCommandLine</text>
</a>
</g>
</g>
<!-- Node27&#45;&gt;Node39 -->
<g id="edge44" class="edge"><title>Node27&#45;&gt;Node39</title>
<path fill="none" stroke="midnightblue" d="M417.562,-309.413C425.675,-306.948 433.731,-303.861 441,-300 460.169,-289.818 458.227,-277.894 477,-267 484.646,-262.563 493.215,-258.836 501.752,-255.744"/>
<polygon fill="midnightblue" stroke="midnightblue" points="502.968,-259.027 511.327,-252.518 500.733,-252.394 502.968,-259.027"/>
</g>
<!-- Node41 -->
<g id="node41" class="node"><title>Node41</title>
<g id="a_node41"><a xlink:href="classpdal_1_1Stage.html#ab94db25b14b94de1f62f9738327accd2" target="_top" xlink:title="pdal::Stage::setupLog">
<polygon fill="white" stroke="black" points="497,-423.5 497,-442.5 609,-442.5 609,-423.5 497,-423.5"/>
<text text-anchor="middle" x="553" y="-430.5" font-family="Helvetica,sans-Serif" font-size="10.00">pdal::Stage::setupLog</text>
</a>
</g>
</g>
<!-- Node27&#45;&gt;Node41 -->
<g id="edge48" class="edge"><title>Node27&#45;&gt;Node41</title>
<path fill="none" stroke="midnightblue" d="M417.562,-328.587C425.675,-331.052 433.731,-334.139 441,-338 460.169,-348.182 460.63,-356.747 477,-371 495.213,-386.857 516.471,-404.337 531.694,-416.683"/>
<polygon fill="midnightblue" stroke="midnightblue" points="529.914,-419.744 539.892,-423.307 534.314,-414.3 529.914,-419.744"/>
</g>
<!-- Node29 -->
<g id="node29" class="node"><title>Node29</title>
<g id="a_node29"><a xlink:href="classpdal_1_1Stage.html#ae89a62fb39c52a2067fc318359065625" target="_top" xlink:title="pdal::Stage::l_addArgs">
<polygon fill="white" stroke="red" points="676.5,-309.5 676.5,-328.5 792.5,-328.5 792.5,-309.5 676.5,-309.5"/>
<text text-anchor="middle" x="734.5" y="-316.5" font-family="Helvetica,sans-Serif" font-size="10.00">pdal::Stage::l_addArgs</text>
</a>
</g>
</g>
<!-- Node28&#45;&gt;Node29 -->
<g id="edge30" class="edge"><title>Node28&#45;&gt;Node29</title>
<path fill="none" stroke="midnightblue" d="M612.775,-319C629.869,-319 648.672,-319 666.245,-319"/>
<polygon fill="midnightblue" stroke="midnightblue" points="666.428,-322.5 676.428,-319 666.428,-315.5 666.428,-322.5"/>
</g>
<!-- Node30 -->
<g id="node30" class="node"><title>Node30</title>
<g id="a_node30"><a xlink:href="classpdal_1_1Stage.html#a3f15d8fc5456be812aafc84000d8e621" target="_top" xlink:title="pdal::Stage::addArgs">
<polygon fill="white" stroke="black" points="680.5,-347.5 680.5,-366.5 788.5,-366.5 788.5,-347.5 680.5,-347.5"/>
<text text-anchor="middle" x="734.5" y="-354.5" font-family="Helvetica,sans-Serif" font-size="10.00">pdal::Stage::addArgs</text>
</a>
</g>
</g>
<!-- Node28&#45;&gt;Node30 -->
<g id="edge31" class="edge"><title>Node28&#45;&gt;Node30</title>
<path fill="none" stroke="midnightblue" d="M599.295,-328.589C623.409,-333.694 653.251,-340.011 678.667,-345.392"/>
<polygon fill="midnightblue" stroke="midnightblue" points="678.022,-348.833 688.53,-347.48 679.472,-341.985 678.022,-348.833"/>
</g>
<!-- Node28&#45;&gt;Node31 -->
<g id="edge32" class="edge"><title>Node28&#45;&gt;Node31</title>
<path fill="none" stroke="midnightblue" d="M594.673,-328.518C606.205,-332.131 618.476,-336.893 629,-343 647.773,-353.894 646.017,-365.475 665,-376 668.994,-378.214 673.264,-380.185 677.647,-381.937"/>
<polygon fill="midnightblue" stroke="midnightblue" points="676.765,-385.34 687.36,-385.432 679.135,-378.753 676.765,-385.34"/>
</g>
<!-- Node33&#45;&gt;Node3 -->
<g id="edge35" class="edge"><title>Node33&#45;&gt;Node3</title>
<path fill="none" stroke="midnightblue" d="M625.717,-129C638.152,-129 651.069,-129 663.459,-129"/>
<polygon fill="midnightblue" stroke="midnightblue" points="663.721,-132.5 673.721,-129 663.721,-125.5 663.721,-132.5"/>
</g>
<!-- Node33&#45;&gt;Node8 -->
<g id="edge36" class="edge"><title>Node33&#45;&gt;Node8</title>
<path fill="none" stroke="midnightblue" d="M604.516,-138.538C666.373,-150.422 767.426,-170.555 804,-182 828.444,-189.649 855.143,-201.027 874.8,-210.011"/>
<polygon fill="midnightblue" stroke="midnightblue" points="873.571,-213.299 884.116,-214.331 876.516,-206.949 873.571,-213.299"/>
</g>
<!-- Node35 -->
<g id="node35" class="node"><title>Node35</title>
<g id="a_node35"><a xlink:href="namespacepdal_1_1FileUtils.html#ae2b8f1ddc38b0033b685a0bde6106ba1" target="_top" xlink:title="pdal::FileUtils::fileExists">
<polygon fill="white" stroke="red" points="673,-31.5 673,-50.5 796,-50.5 796,-31.5 673,-31.5"/>
<text text-anchor="middle" x="734.5" y="-38.5" font-family="Helvetica,sans-Serif" font-size="10.00">pdal::FileUtils::fileExists</text>
</a>
</g>
</g>
<!-- Node34&#45;&gt;Node35 -->
<g id="edge38" class="edge"><title>Node34&#45;&gt;Node35</title>
<path fill="none" stroke="midnightblue" d="M611.288,-55.9786C627.67,-53.9708 645.72,-51.7586 662.803,-49.6648"/>
<polygon fill="midnightblue" stroke="midnightblue" points="663.231,-53.1387 672.73,-48.4481 662.379,-46.1907 663.231,-53.1387"/>
</g>
<!-- Node36 -->
<g id="node36" class="node"><title>Node36</title>
<g id="a_node36"><a xlink:href="namespacepdal_1_1FileUtils.html#a183613921413dc5f8fe3efe45763945c" target="_top" xlink:title="pdal::FileUtils::readFile\lIntoString">
<polygon fill="white" stroke="red" points="676,-70 676,-100 793,-100 793,-70 676,-70"/>
<text text-anchor="start" x="684" y="-88" font-family="Helvetica,sans-Serif" font-size="10.00">pdal::FileUtils::readFile</text>
<text text-anchor="middle" x="734.5" y="-77" font-family="Helvetica,sans-Serif" font-size="10.00">IntoString</text>
</a>
</g>
</g>
<!-- Node34&#45;&gt;Node36 -->
<g id="edge39" class="edge"><title>Node34&#45;&gt;Node36</title>
<path fill="none" stroke="midnightblue" d="M611.288,-70.0214C628.608,-72.1442 647.792,-74.4955 665.729,-76.6938"/>
<polygon fill="midnightblue" stroke="midnightblue" points="665.481,-80.1895 675.832,-77.9321 666.332,-73.2414 665.481,-80.1895"/>
</g>
<!-- Node37 -->
<g id="node37" class="node"><title>Node37</title>
<g id="a_node37"><a xlink:href="namespacepdal_1_1Utils.html#a9bda8c5dbe5ef7cf66e99ba022184934" target="_top" xlink:title="pdal::Utils::extractSpaces">
<polygon fill="white" stroke="black" points="840,-0.5 840,-19.5 970,-19.5 970,-0.5 840,-0.5"/>
<text text-anchor="middle" x="905" y="-7.5" font-family="Helvetica,sans-Serif" font-size="10.00">pdal::Utils::extractSpaces</text>
</a>
</g>
</g>
<!-- Node34&#45;&gt;Node37 -->
<g id="edge40" class="edge"><title>Node34&#45;&gt;Node37</title>
<path fill="none" stroke="midnightblue" d="M574.316,-53.3585C596.165,-43.503 632.195,-28.7181 665,-22 719.413,-10.8568 782.174,-8.07957 829.725,-7.96935"/>
<polygon fill="midnightblue" stroke="midnightblue" points="829.932,-11.4696 839.938,-7.98592 829.943,-4.4696 829.932,-11.4696"/>
</g>
<!-- Node37&#45;&gt;Node5 -->
<g id="edge41" class="edge"><title>Node37&#45;&gt;Node5</title>
<path fill="none" stroke="midnightblue" d="M970.061,-12.4404C981.918,-12.8921 994.235,-13.3613 1005.89,-13.8052"/>
<polygon fill="midnightblue" stroke="midnightblue" points="1005.8,-17.3043 1015.92,-14.1876 1006.06,-10.3094 1005.8,-17.3043"/>
</g>
<!-- Node38&#45;&gt;Node8 -->
<g id="edge43" class="edge"><title>Node38&#45;&gt;Node8</title>
<path fill="none" stroke="midnightblue" d="M772.304,-271.466C782.618,-268.611 793.798,-265.345 804,-262 826.797,-254.525 852.049,-244.918 871.474,-237.234"/>
<polygon fill="midnightblue" stroke="midnightblue" points="872.788,-240.479 880.78,-233.524 870.195,-233.976 872.788,-240.479"/>
</g>
<!-- Node40 -->
<g id="node40" class="node"><title>Node40</title>
<g id="a_node40"><a xlink:href="classpdal_1_1Option.html#a7fabeedf415bb4253e0b5d625c2717db" target="_top" xlink:title="pdal::Option::toArg">
<polygon fill="white" stroke="red" points="685.5,-233.5 685.5,-252.5 783.5,-252.5 783.5,-233.5 685.5,-233.5"/>
<text text-anchor="middle" x="734.5" y="-240.5" font-family="Helvetica,sans-Serif" font-size="10.00">pdal::Option::toArg</text>
</a>
</g>
</g>
<!-- Node39&#45;&gt;Node40 -->
<g id="edge45" class="edge"><title>Node39&#45;&gt;Node40</title>
<path fill="none" stroke="midnightblue" d="M629.084,-243C644.391,-243 660.282,-243 674.912,-243"/>
<polygon fill="midnightblue" stroke="midnightblue" points="675.316,-246.5 685.316,-243 675.316,-239.5 675.316,-246.5"/>
</g>
<!-- Node40&#45;&gt;Node8 -->
<g id="edge46" class="edge"><title>Node40&#45;&gt;Node8</title>
<path fill="none" stroke="midnightblue" d="M783.785,-237.555C800.369,-235.685 819.242,-233.557 837.039,-231.55"/>
<polygon fill="midnightblue" stroke="midnightblue" points="837.823,-234.984 847.368,-230.386 837.039,-228.028 837.823,-234.984"/>
</g>
<!-- Node41&#45;&gt;Node11 -->
<g id="edge50" class="edge"><title>Node41&#45;&gt;Node11</title>
<path fill="none" stroke="midnightblue" d="M609.321,-438.239C626.877,-439.902 646.506,-441.761 664.882,-443.501"/>
<polygon fill="midnightblue" stroke="midnightblue" points="664.655,-446.995 674.94,-444.454 665.315,-440.027 664.655,-446.995"/>
</g>
<!-- Node41&#45;&gt;Node13 -->
<g id="edge51" class="edge"><title>Node41&#45;&gt;Node13</title>
<path fill="none" stroke="midnightblue" d="M602.934,-442.571C611.814,-445.095 620.84,-448.205 629,-452 646.479,-460.129 687.91,-491.404 713.037,-510.909"/>
<polygon fill="midnightblue" stroke="midnightblue" points="711.141,-513.869 721.179,-517.26 715.447,-508.35 711.141,-513.869"/>
</g>
<!-- Node41&#45;&gt;Node16 -->
<g id="edge52" class="edge"><title>Node41&#45;&gt;Node16</title>
<path fill="none" stroke="midnightblue" d="M609.127,-440.373C616.385,-443.151 623.277,-446.914 629,-452 662.439,-481.719 632.915,-514.824 665,-546 669.067,-549.952 673.821,-553.256 678.894,-556.017"/>
<polygon fill="midnightblue" stroke="midnightblue" points="677.752,-559.348 688.292,-560.426 680.725,-553.01 677.752,-559.348"/>
</g>
<!-- Node41&#45;&gt;Node31 -->
<g id="edge49" class="edge"><title>Node41&#45;&gt;Node31</title>
<path fill="none" stroke="midnightblue" d="M599.295,-423.411C623.409,-418.306 653.251,-411.989 678.667,-406.608"/>
<polygon fill="midnightblue" stroke="midnightblue" points="679.472,-410.015 688.53,-404.52 678.022,-403.167 679.472,-410.015"/>
</g>
<!-- Node42&#45;&gt;Node31 -->
<g id="edge57" class="edge"><title>Node42&#45;&gt;Node31</title>
<path fill="none" stroke="midnightblue" d="M418.404,-395C485.719,-395 597.548,-395 668.294,-395"/>
<polygon fill="midnightblue" stroke="midnightblue" points="668.423,-398.5 678.423,-395 668.423,-391.5 668.423,-398.5"/>
</g>
<!-- Node43 -->
<g id="node43" class="node"><title>Node43</title>
<g id="a_node43"><a xlink:href="classpdal_1_1BasePointTable.html#a03429472e71e5dd323bc92319f4a9df6" target="_top" xlink:title="pdal::BasePointTable\l::metadata">
<polygon fill="white" stroke="black" points="498,-538 498,-568 608,-568 608,-538 498,-538"/>
<text text-anchor="start" x="506" y="-556" font-family="Helvetica,sans-Serif" font-size="10.00">pdal::BasePointTable</text>
<text text-anchor="middle" x="553" y="-545" font-family="Helvetica,sans-Serif" font-size="10.00">::metadata</text>
</a>
</g>
</g>
<!-- Node42&#45;&gt;Node43 -->
<g id="edge55" class="edge"><title>Node42&#45;&gt;Node43</title>
<path fill="none" stroke="midnightblue" d="M418.176,-400.867C426.578,-403.798 434.561,-408.004 441,-414 479.886,-450.208 439.729,-490.132 477,-528 480.487,-531.543 484.489,-534.584 488.789,-537.194"/>
<polygon fill="midnightblue" stroke="midnightblue" points="487.482,-540.458 497.968,-541.968 490.712,-534.248 487.482,-540.458"/>
</g>
<!-- Node44 -->
<g id="node44" class="node"><title>Node44</title>
<g id="a_node44"><a xlink:href="classpdal_1_1MetadataNode.html#af2c1c5d91f6ab47a804aa8a0a1b043c2" target="_top" xlink:title="pdal::MetadataNode::add">
<polygon fill="white" stroke="black" points="490,-499.5 490,-518.5 616,-518.5 616,-499.5 490,-499.5"/>
<text text-anchor="middle" x="553" y="-506.5" font-family="Helvetica,sans-Serif" font-size="10.00">pdal::MetadataNode::add</text>
</a>
</g>
</g>
<!-- Node42&#45;&gt;Node44 -->
<g id="edge56" class="edge"><title>Node42&#45;&gt;Node44</title>
<path fill="none" stroke="midnightblue" d="M418.317,-401.926C426.507,-404.743 434.387,-408.636 441,-414 470.027,-437.545 448.133,-466.259 477,-490 479.042,-491.68 481.214,-493.214 483.484,-494.614"/>
<polygon fill="midnightblue" stroke="midnightblue" points="482.165,-497.873 492.652,-499.38 485.393,-491.662 482.165,-497.873"/>
</g>
<!-- Node45 -->
<g id="node45" class="node"><title>Node45</title>
<g id="a_node45"><a xlink:href="classpdal_1_1Stage.html#a0d7c0bb23ed18577b1aa58b02448487f" target="_top" xlink:title="pdal::Stage::writerInitialize">
<polygon fill="white" stroke="black" points="487,-461.5 487,-480.5 619,-480.5 619,-461.5 487,-461.5"/>
<text text-anchor="middle" x="553" y="-468.5" font-family="Helvetica,sans-Serif" font-size="10.00">pdal::Stage::writerInitialize</text>
</a>
</g>
</g>
<!-- Node42&#45;&gt;Node45 -->
<g id="edge58" class="edge"><title>Node42&#45;&gt;Node45</title>
<path fill="none" stroke="midnightblue" d="M418.232,-404.263C426.167,-406.771 433.995,-409.956 441,-414 461.149,-425.63 456.93,-440.234 477,-452 480.715,-454.178 484.676,-456.109 488.763,-457.82"/>
<polygon fill="midnightblue" stroke="midnightblue" points="487.879,-461.225 498.472,-461.426 490.317,-454.663 487.879,-461.225"/>
</g>
</g>
</svg>
