<?xml version="1.0" encoding="UTF-8" standalone="no"?>
<!DOCTYPE svg PUBLIC "-//W3C//DTD SVG 1.1//EN"
 "http://www.w3.org/Graphics/SVG/1.1/DTD/svg11.dtd">
<!-- Generated by graphviz version 2.38.0 (20140413.2041)
 -->
<!-- Title: pdal/io/TextReader.hpp Pages: 1 -->
<svg width="870pt" height="95pt"
 viewBox="0.00 0.00 870.00 95.00" xmlns="http://www.w3.org/2000/svg" xmlns:xlink="http://www.w3.org/1999/xlink">
<g id="graph0" class="graph" transform="scale(1 1) rotate(0) translate(4 91)">
<title>pdal/io/TextReader.hpp</title>
<polygon fill="white" stroke="none" points="-4,4 -4,-91 866,-91 866,4 -4,4"/>
<!-- Node1 -->
<g id="node1" class="node"><title>Node1</title>
<polygon fill="#bfbfbf" stroke="black" points="356,-67.5 356,-86.5 474,-86.5 474,-67.5 356,-67.5"/>
<text text-anchor="middle" x="415" y="-74.5" font-family="Helvetica,sans-Serif" font-size="10.00">pdal/io/TextReader.hpp</text>
</g>
<!-- Node2 -->
<g id="node2" class="node"><title>Node2</title>
<g id="a_node2"><a xlink:href="TextReader_8cpp.html" target="_top" xlink:title="pdal/io/TextReader.cpp">
<polygon fill="white" stroke="black" points="0,-6 0,-25 118,-25 118,-6 0,-6"/>
<text text-anchor="middle" x="59" y="-13" font-family="Helvetica,sans-Serif" font-size="10.00">pdal/io/TextReader.cpp</text>
</a>
</g>
</g>
<!-- Node1&#45;&gt;Node2 -->
<g id="edge1" class="edge"><title>Node1&#45;&gt;Node2</title>
<path fill="none" stroke="midnightblue" d="M345.595,-66.2503C287.148,-57.7778 201.411,-44.7361 127,-31 117.385,-29.2251 107.047,-27.1217 97.4056,-25.0754"/>
<polygon fill="midnightblue" stroke="midnightblue" points="345.422,-69.7615 355.82,-67.7261 346.422,-62.8333 345.422,-69.7615"/>
</g>
<!-- Node3 -->
<g id="node3" class="node"><title>Node3</title>
<g id="a_node3"><a xlink:href="StageFactory_8cpp.html" target="_top" xlink:title="pdal/pdal/StageFactory.cpp">
<polygon fill="white" stroke="black" points="136,-6 136,-25 272,-25 272,-6 136,-6"/>
<text text-anchor="middle" x="204" y="-13" font-family="Helvetica,sans-Serif" font-size="10.00">pdal/pdal/StageFactory.cpp</text>
</a>
</g>
</g>
<!-- Node1&#45;&gt;Node3 -->
<g id="edge2" class="edge"><title>Node1&#45;&gt;Node3</title>
<path fill="none" stroke="midnightblue" d="M375.102,-64.7493C334.109,-53.1894 271.205,-35.4511 234.175,-25.0091"/>
<polygon fill="midnightblue" stroke="midnightblue" points="374.194,-68.1296 384.769,-67.4751 376.094,-61.3923 374.194,-68.1296"/>
</g>
<!-- Node4 -->
<g id="node4" class="node"><title>Node4</title>
<g id="a_node4"><a xlink:href="RangeFilterTest_8cpp.html" target="_top" xlink:title="pdal/test/unit/filters\l/RangeFilterTest.cpp">
<polygon fill="white" stroke="black" points="290,-0.5 290,-30.5 398,-30.5 398,-0.5 290,-0.5"/>
<text text-anchor="start" x="298" y="-18.5" font-family="Helvetica,sans-Serif" font-size="10.00">pdal/test/unit/filters</text>
<text text-anchor="middle" x="344" y="-7.5" font-family="Helvetica,sans-Serif" font-size="10.00">/RangeFilterTest.cpp</text>
</a>
</g>
</g>
<!-- Node1&#45;&gt;Node4 -->
<g id="edge3" class="edge"><title>Node1&#45;&gt;Node4</title>
<path fill="none" stroke="midnightblue" d="M397.007,-60.9215C385.859,-51.579 371.638,-39.6616 360.733,-30.523"/>
<polygon fill="midnightblue" stroke="midnightblue" points="394.915,-63.7346 404.827,-67.4751 399.411,-58.3694 394.915,-63.7346"/>
</g>
<!-- Node5 -->
<g id="node5" class="node"><title>Node5</title>
<g id="a_node5"><a xlink:href="GDALWriterTest_8cpp.html" target="_top" xlink:title="pdal/test/unit/io/GDALWriter\lTest.cpp">
<polygon fill="white" stroke="black" points="416,-0.5 416,-30.5 556,-30.5 556,-0.5 416,-0.5"/>
<text text-anchor="start" x="424" y="-18.5" font-family="Helvetica,sans-Serif" font-size="10.00">pdal/test/unit/io/GDALWriter</text>
<text text-anchor="middle" x="486" y="-7.5" font-family="Helvetica,sans-Serif" font-size="10.00">Test.cpp</text>
</a>
</g>
</g>
<!-- Node1&#45;&gt;Node5 -->
<g id="edge4" class="edge"><title>Node1&#45;&gt;Node5</title>
<path fill="none" stroke="midnightblue" d="M432.993,-60.9215C444.141,-51.579 458.362,-39.6616 469.267,-30.523"/>
<polygon fill="midnightblue" stroke="midnightblue" points="430.589,-58.3694 425.173,-67.4751 435.085,-63.7346 430.589,-58.3694"/>
</g>
<!-- Node6 -->
<g id="node6" class="node"><title>Node6</title>
<g id="a_node6"><a xlink:href="TextReaderTest_8cpp.html" target="_top" xlink:title="pdal/test/unit/io/TextReader\lTest.cpp">
<polygon fill="white" stroke="black" points="574.5,-0.5 574.5,-30.5 711.5,-30.5 711.5,-0.5 574.5,-0.5"/>
<text text-anchor="start" x="582.5" y="-18.5" font-family="Helvetica,sans-Serif" font-size="10.00">pdal/test/unit/io/TextReader</text>
<text text-anchor="middle" x="643" y="-7.5" font-family="Helvetica,sans-Serif" font-size="10.00">Test.cpp</text>
</a>
</g>
</g>
<!-- Node1&#45;&gt;Node6 -->
<g id="edge5" class="edge"><title>Node1&#45;&gt;Node6</title>
<path fill="none" stroke="midnightblue" d="M457.691,-64.859C494.918,-55.1442 549.097,-41.0055 589.265,-30.523"/>
<polygon fill="midnightblue" stroke="midnightblue" points="456.459,-61.5634 447.667,-67.4751 458.227,-68.3365 456.459,-61.5634"/>
</g>
<!-- Node7 -->
<g id="node7" class="node"><title>Node7</title>
<g id="a_node7"><a xlink:href="TextWriterTest_8cpp.html" target="_top" xlink:title="pdal/test/unit/io/TextWriter\lTest.cpp">
<polygon fill="white" stroke="black" points="730,-0.5 730,-30.5 862,-30.5 862,-0.5 730,-0.5"/>
<text text-anchor="start" x="738" y="-18.5" font-family="Helvetica,sans-Serif" font-size="10.00">pdal/test/unit/io/TextWriter</text>
<text text-anchor="middle" x="796" y="-7.5" font-family="Helvetica,sans-Serif" font-size="10.00">Test.cpp</text>
</a>
</g>
</g>
<!-- Node1&#45;&gt;Node7 -->
<g id="edge6" class="edge"><title>Node1&#45;&gt;Node7</title>
<path fill="none" stroke="midnightblue" d="M484.145,-66.7357C546.257,-58.1987 639.891,-44.7972 721,-31 723.876,-30.5107 726.812,-29.9984 729.776,-29.4707"/>
<polygon fill="midnightblue" stroke="midnightblue" points="483.504,-63.2906 474.072,-68.1154 484.455,-70.2258 483.504,-63.2906"/>
</g>
</g>
</svg>
