<?xml version="1.0" encoding="UTF-8" standalone="no"?>
<!DOCTYPE svg PUBLIC "-//W3C//DTD SVG 1.1//EN"
 "http://www.w3.org/Graphics/SVG/1.1/DTD/svg11.dtd">
<!-- Generated by graphviz version 2.38.0 (20140413.2041)
 -->
<!-- Title: pdal/kernels/TIndexKernel.hpp Pages: 1 -->
<svg width="312pt" height="84pt"
 viewBox="0.00 0.00 311.50 84.00" xmlns="http://www.w3.org/2000/svg" xmlns:xlink="http://www.w3.org/1999/xlink">
<g id="graph0" class="graph" transform="scale(1 1) rotate(0) translate(4 80)">
<title>pdal/kernels/TIndexKernel.hpp</title>
<polygon fill="white" stroke="none" points="-4,4 -4,-80 307.5,-80 307.5,4 -4,4"/>
<!-- Node1 -->
<g id="node1" class="node"><title>Node1</title>
<polygon fill="#bfbfbf" stroke="black" points="80,-56.5 80,-75.5 229,-75.5 229,-56.5 80,-56.5"/>
<text text-anchor="middle" x="154.5" y="-63.5" font-family="Helvetica,sans-Serif" font-size="10.00">pdal/kernels/TIndexKernel.hpp</text>
</g>
<!-- Node2 -->
<g id="node2" class="node"><title>Node2</title>
<g id="a_node2"><a xlink:href="TIndexKernel_8cpp.html" target="_top" xlink:title="pdal/kernels/TIndexKernel.cpp">
<polygon fill="white" stroke="black" points="0,-0.5 0,-19.5 149,-19.5 149,-0.5 0,-0.5"/>
<text text-anchor="middle" x="74.5" y="-7.5" font-family="Helvetica,sans-Serif" font-size="10.00">pdal/kernels/TIndexKernel.cpp</text>
</a>
</g>
</g>
<!-- Node1&#45;&gt;Node2 -->
<g id="edge1" class="edge"><title>Node1&#45;&gt;Node2</title>
<path fill="none" stroke="midnightblue" d="M133.199,-50.6221C118.585,-40.7574 99.6732,-27.9919 87.3215,-19.6545"/>
<polygon fill="midnightblue" stroke="midnightblue" points="131.4,-53.6302 141.647,-56.324 135.316,-47.8282 131.4,-53.6302"/>
</g>
<!-- Node3 -->
<g id="node3" class="node"><title>Node3</title>
<g id="a_node3"><a xlink:href="StageFactory_8cpp.html" target="_top" xlink:title="pdal/pdal/StageFactory.cpp">
<polygon fill="white" stroke="black" points="167.5,-0.5 167.5,-19.5 303.5,-19.5 303.5,-0.5 167.5,-0.5"/>
<text text-anchor="middle" x="235.5" y="-7.5" font-family="Helvetica,sans-Serif" font-size="10.00">pdal/pdal/StageFactory.cpp</text>
</a>
</g>
</g>
<!-- Node1&#45;&gt;Node3 -->
<g id="edge2" class="edge"><title>Node1&#45;&gt;Node3</title>
<path fill="none" stroke="midnightblue" d="M176.067,-50.6221C190.864,-40.7574 210.012,-27.9919 222.518,-19.6545"/>
<polygon fill="midnightblue" stroke="midnightblue" points="173.893,-47.8647 167.514,-56.324 177.776,-53.6891 173.893,-47.8647"/>
</g>
</g>
</svg>
