<?xml version="1.0" encoding="UTF-8" standalone="no"?>
<!DOCTYPE svg PUBLIC "-//W3C//DTD SVG 1.1//EN"
 "http://www.w3.org/Graphics/SVG/1.1/DTD/svg11.dtd">
<!-- Generated by graphviz version 2.38.0 (20140413.2041)
 -->
<!-- Title: include Pages: 1 -->
<svg width="662pt" height="85pt"
 viewBox="0.00 0.00 662.00 85.00" xmlns="http://www.w3.org/2000/svg" xmlns:xlink="http://www.w3.org/1999/xlink">
<g id="graph0" class="graph" transform="scale(1 1) rotate(0) translate(4 81)">
<title>include</title>
<polygon fill="white" stroke="none" points="-4,4 -4,-81 658,-81 658,4 -4,4"/>
<!-- Node1 -->
<g id="node1" class="node"><title>Node1</title>
<polygon fill="#bfbfbf" stroke="black" points="0,-38.5 0,-57.5 47,-57.5 47,-38.5 0,-38.5"/>
<text text-anchor="middle" x="23.5" y="-45.5" font-family="Helvetica,sans-Serif" font-size="10.00">include</text>
</g>
<!-- Node2 -->
<g id="node2" class="node"><title>Node2</title>
<g id="a_node2"><a xlink:href="plugins_2geowave_2CMakeLists_8txt.html#a40f7f560816321b423ccda46740e1b80" target="_top" xlink:title="include">
<polygon fill="white" stroke="black" points="83,-38.5 83,-57.5 130,-57.5 130,-38.5 83,-38.5"/>
<text text-anchor="middle" x="106.5" y="-45.5" font-family="Helvetica,sans-Serif" font-size="10.00">include</text>
</a>
</g>
</g>
<!-- Node1&#45;&gt;Node2 -->
<g id="edge1" class="edge"><title>Node1&#45;&gt;Node2</title>
<path fill="none" stroke="midnightblue" d="M47.063,-48C54.9836,-48 64.0512,-48 72.6426,-48"/>
<polygon fill="midnightblue" stroke="midnightblue" points="72.7771,-51.5001 82.7771,-48 72.777,-44.5001 72.7771,-51.5001"/>
</g>
<!-- Node3 -->
<g id="node3" class="node"><title>Node3</title>
<g id="a_node3"><a xlink:href="plugins_2sqlite_2CMakeLists_8txt.html#ae13dd749ac3c6bc0aacc152ad068c9cf" target="_top" xlink:title="PDAL_ADD_PLUGIN">
<polygon fill="white" stroke="black" points="166,-19.5 166,-38.5 279,-38.5 279,-19.5 166,-19.5"/>
<text text-anchor="middle" x="222.5" y="-26.5" font-family="Helvetica,sans-Serif" font-size="10.00">PDAL_ADD_PLUGIN</text>
</a>
</g>
</g>
<!-- Node2&#45;&gt;Node3 -->
<g id="edge2" class="edge"><title>Node2&#45;&gt;Node3</title>
<path fill="none" stroke="midnightblue" d="M130.023,-44.2462C137.647,-42.9755 146.59,-41.485 155.844,-39.9426"/>
<polygon fill="midnightblue" stroke="midnightblue" points="156.673,-43.3529 165.961,-38.2565 155.522,-36.4482 156.673,-43.3529"/>
</g>
<!-- Node4 -->
<g id="node4" class="node"><title>Node4</title>
<g id="a_node4"><a xlink:href="apps_2CMakeLists_8txt.html#a95003200affb100d1d71069d001d318c" target="_top" xlink:title="endif">
<polygon fill="white" stroke="black" points="315,-57.5 315,-76.5 353,-76.5 353,-57.5 315,-57.5"/>
<text text-anchor="middle" x="334" y="-64.5" font-family="Helvetica,sans-Serif" font-size="10.00">endif</text>
</a>
</g>
</g>
<!-- Node3&#45;&gt;Node4 -->
<g id="edge3" class="edge"><title>Node3&#45;&gt;Node4</title>
<path fill="none" stroke="midnightblue" d="M251.131,-38.589C267.711,-44.3426 288.729,-51.6367 305.318,-57.3934"/>
<polygon fill="midnightblue" stroke="midnightblue" points="304.4,-60.7797 314.995,-60.7517 306.695,-54.1665 304.4,-60.7797"/>
</g>
<!-- Node6 -->
<g id="node6" class="node"><title>Node6</title>
<g id="a_node6"><a xlink:href="plugins_2greyhound_2CMakeLists_8txt.html#aaf2c36d971af3676acf24962f41e8fce" target="_top" xlink:title="target_include_directories">
<polygon fill="white" stroke="black" points="389,-19.5 389,-38.5 517,-38.5 517,-19.5 389,-19.5"/>
<text text-anchor="middle" x="453" y="-26.5" font-family="Helvetica,sans-Serif" font-size="10.00">target_include_directories</text>
</a>
</g>
</g>
<!-- Node3&#45;&gt;Node6 -->
<g id="edge10" class="edge"><title>Node3&#45;&gt;Node6</title>
<path fill="none" stroke="midnightblue" d="M279.105,-29C309.025,-29 346.307,-29 378.582,-29"/>
<polygon fill="midnightblue" stroke="midnightblue" points="378.87,-32.5001 388.87,-29 378.869,-25.5001 378.87,-32.5001"/>
</g>
<!-- Node7 -->
<g id="node7" class="node"><title>Node7</title>
<g id="a_node7"><a xlink:href="plugins_2pgpointcloud_2CMakeLists_8txt.html#aea33ba9daf1f5c8561730ee98d4f613c" target="_top" xlink:title="PDAL_ADD_TEST">
<polygon fill="white" stroke="black" points="553,-0.5 553,-19.5 654,-19.5 654,-0.5 553,-0.5"/>
<text text-anchor="middle" x="603.5" y="-7.5" font-family="Helvetica,sans-Serif" font-size="10.00">PDAL_ADD_TEST</text>
</a>
</g>
</g>
<!-- Node3&#45;&gt;Node7 -->
<g id="edge9" class="edge"><title>Node3&#45;&gt;Node7</title>
<path fill="none" stroke="midnightblue" d="M279.286,-20.9869C311.312,-16.7905 352.33,-12.098 389,-10 440.793,-7.03673 499.769,-7.31361 542.593,-8.17346"/>
<polygon fill="midnightblue" stroke="midnightblue" points="542.769,-11.678 552.843,-8.39656 542.922,-4.6797 542.769,-11.678"/>
</g>
<!-- Node4&#45;&gt;Node2 -->
<g id="edge5" class="edge"><title>Node4&#45;&gt;Node2</title>
<path fill="none" stroke="midnightblue" d="M314.888,-65.474C276.996,-62.2813 188.879,-54.8568 140.596,-50.7885"/>
<polygon fill="midnightblue" stroke="midnightblue" points="140.622,-47.2784 130.363,-49.9264 140.034,-54.2537 140.622,-47.2784"/>
</g>
<!-- Node5 -->
<g id="node5" class="node"><title>Node5</title>
<g id="a_node5"><a xlink:href="test_2unit_2CMakeLists_8txt.html#ab08ac1136c19e320931be30a4ff4d593" target="_top" xlink:title="configure_file">
<polygon fill="white" stroke="black" points="416,-57.5 416,-76.5 490,-76.5 490,-57.5 416,-57.5"/>
<text text-anchor="middle" x="453" y="-64.5" font-family="Helvetica,sans-Serif" font-size="10.00">configure_file</text>
</a>
</g>
</g>
<!-- Node4&#45;&gt;Node5 -->
<g id="edge4" class="edge"><title>Node4&#45;&gt;Node5</title>
<path fill="none" stroke="midnightblue" d="M353.025,-67C367.087,-67 387.269,-67 405.745,-67"/>
<polygon fill="midnightblue" stroke="midnightblue" points="405.784,-70.5001 415.784,-67 405.784,-63.5001 405.784,-70.5001"/>
</g>
<!-- Node4&#45;&gt;Node6 -->
<g id="edge6" class="edge"><title>Node4&#45;&gt;Node6</title>
<path fill="none" stroke="midnightblue" d="M343.75,-57.4191C352.4,-52.1241 366.263,-46.7361 380.474,-41.8602"/>
<polygon fill="midnightblue" stroke="midnightblue" points="381.933,-45.063 390.308,-38.5739 379.715,-38.4239 381.933,-45.063"/>
</g>
<!-- Node6&#45;&gt;Node4 -->
<g id="edge7" class="edge"><title>Node6&#45;&gt;Node4</title>
<path fill="none" stroke="midnightblue" d="M441.252,-38.5364C428.675,-44.7217 407.244,-51.0426 389,-57 380.537,-59.7634 371.385,-62.9193 363.062,-65.469"/>
<polygon fill="midnightblue" stroke="midnightblue" points="362.084,-62.1083 353.424,-68.2113 364,-68.8411 362.084,-62.1083"/>
</g>
<!-- Node6&#45;&gt;Node7 -->
<g id="edge8" class="edge"><title>Node6&#45;&gt;Node7</title>
<path fill="none" stroke="midnightblue" d="M517.408,-20.8872C525.815,-19.8116 534.411,-18.7117 542.753,-17.6444"/>
<polygon fill="midnightblue" stroke="midnightblue" points="543.298,-21.1033 552.773,-16.3624 542.409,-14.1599 543.298,-21.1033"/>
</g>
</g>
</svg>
