<?xml version="1.0" encoding="UTF-8" standalone="no"?>
<!DOCTYPE svg PUBLIC "-//W3C//DTD SVG 1.1//EN"
 "http://www.w3.org/Graphics/SVG/1.1/DTD/svg11.dtd">
<!-- Generated by graphviz version 2.38.0 (20140413.2041)
 -->
<!-- Title: TEST Pages: 1 -->
<svg width="628pt" height="184pt"
 viewBox="0.00 0.00 628.00 184.00" xmlns="http://www.w3.org/2000/svg" xmlns:xlink="http://www.w3.org/1999/xlink">
<g id="graph0" class="graph" transform="scale(1 1) rotate(0) translate(4 180)">
<title>TEST</title>
<polygon fill="white" stroke="none" points="-4,4 -4,-180 624,-180 624,4 -4,4"/>
<!-- Node1 -->
<g id="node1" class="node"><title>Node1</title>
<polygon fill="#bfbfbf" stroke="black" points="0,-99.5 0,-118.5 42,-118.5 42,-99.5 0,-99.5"/>
<text text-anchor="middle" x="21" y="-106.5" font-family="Helvetica,sans-Serif" font-size="10.00">TEST</text>
</g>
<!-- Node2 -->
<g id="node2" class="node"><title>Node2</title>
<g id="a_node2"><a xlink:href="classSupport.html#a9bbdf6f202f4f2e45e7a53007dd0a238" target="_top" xlink:title="Support::datapath">
<polygon fill="white" stroke="black" points="79.5,-156.5 79.5,-175.5 173.5,-175.5 173.5,-156.5 79.5,-156.5"/>
<text text-anchor="middle" x="126.5" y="-163.5" font-family="Helvetica,sans-Serif" font-size="10.00">Support::datapath</text>
</a>
</g>
</g>
<!-- Node1&#45;&gt;Node2 -->
<g id="edge1" class="edge"><title>Node1&#45;&gt;Node2</title>
<path fill="none" stroke="midnightblue" d="M34.4087,-118.57C45.4436,-126.796 62.2287,-138.621 78,-147 81.5173,-148.869 85.26,-150.666 89.041,-152.359"/>
<polygon fill="midnightblue" stroke="midnightblue" points="87.8396,-155.651 98.4123,-156.335 90.5738,-149.207 87.8396,-155.651"/>
</g>
<!-- Node4 -->
<g id="node4" class="node"><title>Node4</title>
<g id="a_node4"><a xlink:href="namespacepdal_1_1Utils.html#a5f9f634d9b887cdc8a1740f2725e3f56" target="_top" xlink:title="pdal::Utils::run_shell\l_command">
<polygon fill="white" stroke="black" points="213,-77 213,-107 319,-107 319,-77 213,-77"/>
<text text-anchor="start" x="221" y="-95" font-family="Helvetica,sans-Serif" font-size="10.00">pdal::Utils::run_shell</text>
<text text-anchor="middle" x="266" y="-84" font-family="Helvetica,sans-Serif" font-size="10.00">_command</text>
</a>
</g>
</g>
<!-- Node1&#45;&gt;Node4 -->
<g id="edge3" class="edge"><title>Node1&#45;&gt;Node4</title>
<path fill="none" stroke="midnightblue" d="M42.3001,-107.58C77.162,-105.141 149.756,-100.062 202.614,-96.3645"/>
<polygon fill="midnightblue" stroke="midnightblue" points="203.174,-99.8339 212.905,-95.6445 202.685,-92.851 203.174,-99.8339"/>
</g>
<!-- Node8 -->
<g id="node8" class="node"><title>Node8</title>
<g id="a_node8"><a xlink:href="TranslateTest_8cpp.html#a6ba754073c1ff0bcb2c6cd3268030088" target="_top" xlink:title="runTranslate">
<polygon fill="white" stroke="black" points="91,-39.5 91,-58.5 162,-58.5 162,-39.5 91,-39.5"/>
<text text-anchor="middle" x="126.5" y="-46.5" font-family="Helvetica,sans-Serif" font-size="10.00">runTranslate</text>
</a>
</g>
</g>
<!-- Node1&#45;&gt;Node8 -->
<g id="edge7" class="edge"><title>Node1&#45;&gt;Node8</title>
<path fill="none" stroke="midnightblue" d="M38.1347,-99.402C49.302,-92.7811 64.522,-83.8012 78,-76 84.8858,-72.0144 92.3585,-67.7422 99.2943,-63.7989"/>
<polygon fill="midnightblue" stroke="midnightblue" points="101.342,-66.6613 108.314,-58.6835 97.8888,-60.5723 101.342,-66.6613"/>
</g>
<!-- Node13 -->
<g id="node13" class="node"><title>Node13</title>
<g id="a_node13"><a xlink:href="classSupport.html#a987d7adce1636b5852ff41a1d34d37bd" target="_top" xlink:title="Support::temppath">
<polygon fill="white" stroke="black" points="78,-118.5 78,-137.5 175,-137.5 175,-118.5 78,-118.5"/>
<text text-anchor="middle" x="126.5" y="-125.5" font-family="Helvetica,sans-Serif" font-size="10.00">Support::temppath</text>
</a>
</g>
</g>
<!-- Node1&#45;&gt;Node13 -->
<g id="edge13" class="edge"><title>Node1&#45;&gt;Node13</title>
<path fill="none" stroke="midnightblue" d="M42.4483,-112.754C49.8896,-114.12 58.7141,-115.74 67.7864,-117.405"/>
<polygon fill="midnightblue" stroke="midnightblue" points="67.2067,-120.857 77.6743,-119.22 68.4707,-113.972 67.2067,-120.857"/>
</g>
<!-- Node3 -->
<g id="node3" class="node"><title>Node3</title>
<g id="a_node3"><a xlink:href="namespaceTestConfig.html#a0e622015f0610c2cfcbb3739b972d877" target="_top" xlink:title="TestConfig::dataPath">
<polygon fill="white" stroke="black" points="211,-142.5 211,-161.5 321,-161.5 321,-142.5 211,-142.5"/>
<text text-anchor="middle" x="266" y="-149.5" font-family="Helvetica,sans-Serif" font-size="10.00">TestConfig::dataPath</text>
</a>
</g>
</g>
<!-- Node2&#45;&gt;Node3 -->
<g id="edge2" class="edge"><title>Node2&#45;&gt;Node3</title>
<path fill="none" stroke="midnightblue" d="M173.668,-161.299C182.284,-160.422 191.433,-159.491 200.483,-158.569"/>
<polygon fill="midnightblue" stroke="midnightblue" points="201.032,-162.031 210.626,-157.536 200.322,-155.067 201.032,-162.031"/>
</g>
<!-- Node5 -->
<g id="node5" class="node"><title>Node5</title>
<g id="a_node5"><a xlink:href="namespacepdal_1_1Utils.html#a0dc879c4fedda93f12c44e08ac89ae12" target="_top" xlink:title="pdal::Utils::portable\l_popen">
<polygon fill="white" stroke="black" points="365,-126 365,-156 466,-156 466,-126 365,-126"/>
<text text-anchor="start" x="373" y="-144" font-family="Helvetica,sans-Serif" font-size="10.00">pdal::Utils::portable</text>
<text text-anchor="middle" x="415.5" y="-133" font-family="Helvetica,sans-Serif" font-size="10.00">_popen</text>
</a>
</g>
</g>
<!-- Node4&#45;&gt;Node5 -->
<g id="edge4" class="edge"><title>Node4&#45;&gt;Node5</title>
<path fill="none" stroke="midnightblue" d="M312.458,-107.101C327.389,-112.062 344.144,-117.627 359.693,-122.793"/>
<polygon fill="midnightblue" stroke="midnightblue" points="358.598,-126.117 369.192,-125.948 360.805,-119.474 358.598,-126.117"/>
</g>
<!-- Node7 -->
<g id="node7" class="node"><title>Node7</title>
<g id="a_node7"><a xlink:href="namespacepdal_1_1Utils.html#a6c26063d8fb4f02f28d5b1608ab8ea60" target="_top" xlink:title="pdal::Utils::portable\l_pclose">
<polygon fill="white" stroke="black" points="365,-77 365,-107 466,-107 466,-77 365,-77"/>
<text text-anchor="start" x="373" y="-95" font-family="Helvetica,sans-Serif" font-size="10.00">pdal::Utils::portable</text>
<text text-anchor="middle" x="415.5" y="-84" font-family="Helvetica,sans-Serif" font-size="10.00">_pclose</text>
</a>
</g>
</g>
<!-- Node4&#45;&gt;Node7 -->
<g id="edge6" class="edge"><title>Node4&#45;&gt;Node7</title>
<path fill="none" stroke="midnightblue" d="M319.003,-92C330.55,-92 342.878,-92 354.709,-92"/>
<polygon fill="midnightblue" stroke="midnightblue" points="354.945,-95.5001 364.945,-92 354.945,-88.5001 354.945,-95.5001"/>
</g>
<!-- Node6 -->
<g id="node6" class="node"><title>Node6</title>
<g id="a_node6"><a xlink:href="namespacepdal_1_1Utils.html#aee933a3f2afb351283582a3a50319fca" target="_top" xlink:title="pdal::Utils::replaceAll">
<polygon fill="white" stroke="black" points="510,-131.5 510,-150.5 620,-150.5 620,-131.5 510,-131.5"/>
<text text-anchor="middle" x="565" y="-138.5" font-family="Helvetica,sans-Serif" font-size="10.00">pdal::Utils::replaceAll</text>
</a>
</g>
</g>
<!-- Node5&#45;&gt;Node6 -->
<g id="edge5" class="edge"><title>Node5&#45;&gt;Node6</title>
<path fill="none" stroke="midnightblue" d="M466.026,-141C476.791,-141 488.33,-141 499.576,-141"/>
<polygon fill="midnightblue" stroke="midnightblue" points="499.79,-144.5 509.79,-141 499.79,-137.5 499.79,-144.5"/>
</g>
<!-- Node8&#45;&gt;Node4 -->
<g id="edge12" class="edge"><title>Node8&#45;&gt;Node4</title>
<path fill="none" stroke="midnightblue" d="M158.016,-58.5431C172.5,-63.0727 190.304,-68.6405 207.202,-73.925"/>
<polygon fill="midnightblue" stroke="midnightblue" points="206.426,-77.3494 217.015,-76.9937 208.515,-70.6684 206.426,-77.3494"/>
</g>
<!-- Node9 -->
<g id="node9" class="node"><title>Node9</title>
<g id="a_node9"><a xlink:href="classSupport.html#a971cbd16fbe820e56449268eb51ab34f" target="_top" xlink:title="Support::binpath">
<polygon fill="white" stroke="black" points="222,-38.5 222,-57.5 310,-57.5 310,-38.5 222,-38.5"/>
<text text-anchor="middle" x="266" y="-45.5" font-family="Helvetica,sans-Serif" font-size="10.00">Support::binpath</text>
</a>
</g>
</g>
<!-- Node8&#45;&gt;Node9 -->
<g id="edge8" class="edge"><title>Node8&#45;&gt;Node9</title>
<path fill="none" stroke="midnightblue" d="M162.197,-48.7477C177.218,-48.6384 195.141,-48.5081 211.783,-48.387"/>
<polygon fill="midnightblue" stroke="midnightblue" points="211.968,-51.8859 221.942,-48.3131 211.917,-44.8861 211.968,-51.8859"/>
</g>
<!-- Node11 -->
<g id="node11" class="node"><title>Node11</title>
<g id="a_node11"><a xlink:href="classSupport.html#a37a80a3c6bd89bcb38f46c12e97010a4" target="_top" xlink:title="Support::exename">
<polygon fill="white" stroke="black" points="218,-0.5 218,-19.5 314,-19.5 314,-0.5 218,-0.5"/>
<text text-anchor="middle" x="266" y="-7.5" font-family="Helvetica,sans-Serif" font-size="10.00">Support::exename</text>
</a>
</g>
</g>
<!-- Node8&#45;&gt;Node11 -->
<g id="edge10" class="edge"><title>Node8&#45;&gt;Node11</title>
<path fill="none" stroke="midnightblue" d="M161.136,-39.4595C179.281,-34.3131 201.886,-27.9014 221.37,-22.375"/>
<polygon fill="midnightblue" stroke="midnightblue" points="222.569,-25.6731 231.234,-19.5771 220.659,-18.9388 222.569,-25.6731"/>
</g>
<!-- Node10 -->
<g id="node10" class="node"><title>Node10</title>
<g id="a_node10"><a xlink:href="namespaceTestConfig.html#afe7849f5480837fa95084b466d22c603" target="_top" xlink:title="TestConfig::binaryPath">
<polygon fill="white" stroke="black" points="357,-38.5 357,-57.5 474,-57.5 474,-38.5 357,-38.5"/>
<text text-anchor="middle" x="415.5" y="-45.5" font-family="Helvetica,sans-Serif" font-size="10.00">TestConfig::binaryPath</text>
</a>
</g>
</g>
<!-- Node9&#45;&gt;Node10 -->
<g id="edge9" class="edge"><title>Node9&#45;&gt;Node10</title>
<path fill="none" stroke="midnightblue" d="M310.06,-48C321.486,-48 334.108,-48 346.512,-48"/>
<polygon fill="midnightblue" stroke="midnightblue" points="346.849,-51.5001 356.849,-48 346.849,-44.5001 346.849,-51.5001"/>
</g>
<!-- Node12 -->
<g id="node12" class="node"><title>Node12</title>
<g id="a_node12"><a xlink:href="namespacepdal_1_1Dimension.html#af3176b0b7e6b4be000317846cf7c2718" target="_top" xlink:title="pdal::Dimension::name">
<polygon fill="white" stroke="black" points="357,-0.5 357,-19.5 474,-19.5 474,-0.5 357,-0.5"/>
<text text-anchor="middle" x="415.5" y="-7.5" font-family="Helvetica,sans-Serif" font-size="10.00">pdal::Dimension::name</text>
</a>
</g>
</g>
<!-- Node11&#45;&gt;Node12 -->
<g id="edge11" class="edge"><title>Node11&#45;&gt;Node12</title>
<path fill="none" stroke="midnightblue" d="M314.075,-10C324.468,-10 335.677,-10 346.708,-10"/>
<polygon fill="midnightblue" stroke="midnightblue" points="346.759,-13.5001 356.759,-10 346.759,-6.5001 346.759,-13.5001"/>
</g>
<!-- Node13&#45;&gt;Node3 -->
<g id="edge14" class="edge"><title>Node13&#45;&gt;Node3</title>
<path fill="none" stroke="midnightblue" d="M175.205,-136.327C183.456,-137.767 192.154,-139.285 200.758,-140.787"/>
<polygon fill="midnightblue" stroke="midnightblue" points="200.33,-144.265 210.783,-142.537 201.534,-137.369 200.33,-144.265"/>
</g>
</g>
</svg>
