<?xml version="1.0" encoding="UTF-8" standalone="no"?>
<!DOCTYPE svg PUBLIC "-//W3C//DTD SVG 1.1//EN"
 "http://www.w3.org/Graphics/SVG/1.1/DTD/svg11.dtd">
<!-- Generated by graphviz version 2.38.0 (20140413.2041)
 -->
<!-- Title: pdal/pdal/util/Utils.hpp Pages: 1 -->
<svg width="1460pt" height="140pt"
 viewBox="0.00 0.00 1460.00 140.00" xmlns="http://www.w3.org/2000/svg" xmlns:xlink="http://www.w3.org/1999/xlink">
<g id="graph0" class="graph" transform="scale(1 1) rotate(0) translate(4 136)">
<title>pdal/pdal/util/Utils.hpp</title>
<polygon fill="white" stroke="none" points="-4,4 -4,-136 1456,-136 1456,4 -4,4"/>
<!-- Node1 -->
<g id="node1" class="node"><title>Node1</title>
<polygon fill="#bfbfbf" stroke="black" points="619.5,-112.5 619.5,-131.5 732.5,-131.5 732.5,-112.5 619.5,-112.5"/>
<text text-anchor="middle" x="676" y="-119.5" font-family="Helvetica,sans-Serif" font-size="10.00">pdal/pdal/util/Utils.hpp</text>
</g>
<!-- Node2 -->
<g id="node2" class="node"><title>Node2</title>
<polygon fill="white" stroke="#bfbfbf" points="-3.55271e-15,-56.5 -3.55271e-15,-75.5 56,-75.5 56,-56.5 -3.55271e-15,-56.5"/>
<text text-anchor="middle" x="28" y="-63.5" font-family="Helvetica,sans-Serif" font-size="10.00">algorithm</text>
</g>
<!-- Node1&#45;&gt;Node2 -->
<g id="edge1" class="edge"><title>Node1&#45;&gt;Node2</title>
<path fill="none" stroke="midnightblue" d="M619.315,-119.821C511.138,-116.909 268.026,-107.173 66,-76 65.8995,-75.9845 65.7989,-75.9689 65.6981,-75.9531"/>
<polygon fill="midnightblue" stroke="midnightblue" points="66.5927,-72.5591 56.1236,-74.1866 65.3225,-79.443 66.5927,-72.5591"/>
</g>
<!-- Node3 -->
<g id="node3" class="node"><title>Node3</title>
<polygon fill="white" stroke="#bfbfbf" points="74.5,-56.5 74.5,-75.5 123.5,-75.5 123.5,-56.5 74.5,-56.5"/>
<text text-anchor="middle" x="99" y="-63.5" font-family="Helvetica,sans-Serif" font-size="10.00">cassert</text>
</g>
<!-- Node1&#45;&gt;Node3 -->
<g id="edge2" class="edge"><title>Node1&#45;&gt;Node3</title>
<path fill="none" stroke="midnightblue" d="M619.304,-119.583C521.86,-116.432 316.317,-106.657 133.82,-75.8201"/>
<polygon fill="midnightblue" stroke="midnightblue" points="134.219,-72.3374 123.771,-74.0965 133.036,-79.2367 134.219,-72.3374"/>
</g>
<!-- Node4 -->
<g id="node4" class="node"><title>Node4</title>
<polygon fill="white" stroke="#bfbfbf" points="142,-56.5 142,-75.5 188,-75.5 188,-56.5 142,-56.5"/>
<text text-anchor="middle" x="165" y="-63.5" font-family="Helvetica,sans-Serif" font-size="10.00">cctype</text>
</g>
<!-- Node1&#45;&gt;Node4 -->
<g id="edge3" class="edge"><title>Node1&#45;&gt;Node4</title>
<path fill="none" stroke="midnightblue" d="M619.5,-118.993C531.29,-115.138 355.495,-104.553 198.161,-75.9025"/>
<polygon fill="midnightblue" stroke="midnightblue" points="198.774,-72.4565 188.304,-74.079 197.5,-79.3397 198.774,-72.4565"/>
</g>
<!-- Node5 -->
<g id="node5" class="node"><title>Node5</title>
<polygon fill="white" stroke="#bfbfbf" points="206,-56.5 206,-75.5 250,-75.5 250,-56.5 206,-56.5"/>
<text text-anchor="middle" x="228" y="-63.5" font-family="Helvetica,sans-Serif" font-size="10.00">cmath</text>
</g>
<!-- Node1&#45;&gt;Node5 -->
<g id="edge4" class="edge"><title>Node1&#45;&gt;Node5</title>
<path fill="none" stroke="midnightblue" d="M619.207,-118.029C540.485,-113.216 393.722,-101.732 260.232,-75.9255"/>
<polygon fill="midnightblue" stroke="midnightblue" points="260.723,-72.4552 250.236,-73.961 259.373,-79.3238 260.723,-72.4552"/>
</g>
<!-- Node6 -->
<g id="node6" class="node"><title>Node6</title>
<polygon fill="white" stroke="#bfbfbf" points="268,-56.5 268,-75.5 314,-75.5 314,-56.5 268,-56.5"/>
<text text-anchor="middle" x="291" y="-63.5" font-family="Helvetica,sans-Serif" font-size="10.00">cstdint</text>
</g>
<!-- Node1&#45;&gt;Node6 -->
<g id="edge5" class="edge"><title>Node1&#45;&gt;Node6</title>
<path fill="none" stroke="midnightblue" d="M619.334,-116.369C551.305,-110.234 433.675,-97.7948 324.209,-75.988"/>
<polygon fill="midnightblue" stroke="midnightblue" points="324.817,-72.5402 314.322,-73.9879 323.429,-79.4012 324.817,-72.5402"/>
</g>
<!-- Node7 -->
<g id="node7" class="node"><title>Node7</title>
<polygon fill="white" stroke="#bfbfbf" points="332,-56.5 332,-75.5 378,-75.5 378,-56.5 332,-56.5"/>
<text text-anchor="middle" x="355" y="-63.5" font-family="Helvetica,sans-Serif" font-size="10.00">cstring</text>
</g>
<!-- Node1&#45;&gt;Node7 -->
<g id="edge6" class="edge"><title>Node1&#45;&gt;Node7</title>
<path fill="none" stroke="midnightblue" d="M619.417,-114.226C563.057,-107.022 473.925,-94.3956 388.228,-76.0577"/>
<polygon fill="midnightblue" stroke="midnightblue" points="388.852,-72.6117 378.338,-73.912 387.368,-79.4526 388.852,-72.6117"/>
</g>
<!-- Node8 -->
<g id="node8" class="node"><title>Node8</title>
<polygon fill="white" stroke="#bfbfbf" points="396,-56.5 396,-75.5 446,-75.5 446,-56.5 396,-56.5"/>
<text text-anchor="middle" x="421" y="-63.5" font-family="Helvetica,sans-Serif" font-size="10.00">fstream</text>
</g>
<!-- Node1&#45;&gt;Node8 -->
<g id="edge7" class="edge"><title>Node1&#45;&gt;Node8</title>
<path fill="none" stroke="midnightblue" d="M630.12,-112.461C587.492,-104.348 522.021,-91.432 456.326,-76.2094"/>
<polygon fill="midnightblue" stroke="midnightblue" points="456.744,-72.7129 446.21,-73.8471 455.152,-79.5295 456.744,-72.7129"/>
</g>
<!-- Node9 -->
<g id="node9" class="node"><title>Node9</title>
<polygon fill="white" stroke="#bfbfbf" points="464,-56.5 464,-75.5 514,-75.5 514,-56.5 464,-56.5"/>
<text text-anchor="middle" x="489" y="-63.5" font-family="Helvetica,sans-Serif" font-size="10.00">iomanip</text>
</g>
<!-- Node1&#45;&gt;Node9 -->
<g id="edge8" class="edge"><title>Node1&#45;&gt;Node9</title>
<path fill="none" stroke="midnightblue" d="M646.369,-112.444C613.094,-102.835 559.145,-87.2558 523.867,-77.0686"/>
<polygon fill="midnightblue" stroke="midnightblue" points="524.582,-73.6321 514.004,-74.2203 522.64,-80.3573 524.582,-73.6321"/>
</g>
<!-- Node10 -->
<g id="node10" class="node"><title>Node10</title>
<polygon fill="white" stroke="#bfbfbf" points="532.5,-56.5 532.5,-75.5 581.5,-75.5 581.5,-56.5 532.5,-56.5"/>
<text text-anchor="middle" x="557" y="-63.5" font-family="Helvetica,sans-Serif" font-size="10.00">istream</text>
</g>
<!-- Node1&#45;&gt;Node10 -->
<g id="edge9" class="edge"><title>Node1&#45;&gt;Node10</title>
<path fill="none" stroke="midnightblue" d="M657.144,-112.444C637.734,-103.636 607.27,-89.8116 585.035,-79.722"/>
<polygon fill="midnightblue" stroke="midnightblue" points="586.32,-76.4615 575.768,-75.5164 583.428,-82.836 586.32,-76.4615"/>
</g>
<!-- Node11 -->
<g id="node11" class="node"><title>Node11</title>
<polygon fill="white" stroke="#bfbfbf" points="600,-56.5 600,-75.5 640,-75.5 640,-56.5 600,-56.5"/>
<text text-anchor="middle" x="620" y="-63.5" font-family="Helvetica,sans-Serif" font-size="10.00">limits</text>
</g>
<!-- Node1&#45;&gt;Node11 -->
<g id="edge10" class="edge"><title>Node1&#45;&gt;Node11</title>
<path fill="none" stroke="midnightblue" d="M667.003,-112.324C658.806,-104.42 646.494,-92.5482 636.528,-82.9377"/>
<polygon fill="midnightblue" stroke="midnightblue" points="638.789,-80.2558 629.161,-75.8339 633.93,-85.2947 638.789,-80.2558"/>
</g>
<!-- Node12 -->
<g id="node12" class="node"><title>Node12</title>
<polygon fill="white" stroke="#bfbfbf" points="658.5,-56.5 658.5,-75.5 693.5,-75.5 693.5,-56.5 658.5,-56.5"/>
<text text-anchor="middle" x="676" y="-63.5" font-family="Helvetica,sans-Serif" font-size="10.00">map</text>
</g>
<!-- Node1&#45;&gt;Node12 -->
<g id="edge11" class="edge"><title>Node1&#45;&gt;Node12</title>
<path fill="none" stroke="midnightblue" d="M676,-112.083C676,-105.006 676,-94.8611 676,-85.9865"/>
<polygon fill="midnightblue" stroke="midnightblue" points="679.5,-85.751 676,-75.7511 672.5,-85.7511 679.5,-85.751"/>
</g>
<!-- Node13 -->
<g id="node13" class="node"><title>Node13</title>
<polygon fill="white" stroke="#bfbfbf" points="712,-56.5 712,-75.5 764,-75.5 764,-56.5 712,-56.5"/>
<text text-anchor="middle" x="738" y="-63.5" font-family="Helvetica,sans-Serif" font-size="10.00">memory</text>
</g>
<!-- Node1&#45;&gt;Node13 -->
<g id="edge12" class="edge"><title>Node1&#45;&gt;Node13</title>
<path fill="none" stroke="midnightblue" d="M685.961,-112.324C695.127,-104.341 708.937,-92.3128 720.028,-82.6529"/>
<polygon fill="midnightblue" stroke="midnightblue" points="722.615,-85.041 727.857,-75.8339 718.018,-79.7624 722.615,-85.041"/>
</g>
<!-- Node14 -->
<g id="node14" class="node"><title>Node14</title>
<polygon fill="white" stroke="#bfbfbf" points="782,-56.5 782,-75.5 834,-75.5 834,-56.5 782,-56.5"/>
<text text-anchor="middle" x="808" y="-63.5" font-family="Helvetica,sans-Serif" font-size="10.00">sstream</text>
</g>
<!-- Node1&#45;&gt;Node14 -->
<g id="edge13" class="edge"><title>Node1&#45;&gt;Node14</title>
<path fill="none" stroke="midnightblue" d="M696.916,-112.444C718.736,-103.517 753.15,-89.4387 777.892,-79.3168"/>
<polygon fill="midnightblue" stroke="midnightblue" points="779.252,-82.5422 787.182,-75.5164 776.601,-76.0634 779.252,-82.5422"/>
</g>
<!-- Node15 -->
<g id="node15" class="node"><title>Node15</title>
<polygon fill="white" stroke="#bfbfbf" points="852.5,-56.5 852.5,-75.5 911.5,-75.5 911.5,-56.5 852.5,-56.5"/>
<text text-anchor="middle" x="882" y="-63.5" font-family="Helvetica,sans-Serif" font-size="10.00">stdexcept</text>
</g>
<!-- Node1&#45;&gt;Node15 -->
<g id="edge14" class="edge"><title>Node1&#45;&gt;Node15</title>
<path fill="none" stroke="midnightblue" d="M708.641,-112.444C744.883,-102.943 803.387,-87.6072 842.264,-77.4161"/>
<polygon fill="midnightblue" stroke="midnightblue" points="843.401,-80.7365 852.187,-74.8151 841.626,-73.9652 843.401,-80.7365"/>
</g>
<!-- Node16 -->
<g id="node16" class="node"><title>Node16</title>
<polygon fill="white" stroke="#bfbfbf" points="929.5,-56.5 929.5,-75.5 970.5,-75.5 970.5,-56.5 929.5,-56.5"/>
<text text-anchor="middle" x="950" y="-63.5" font-family="Helvetica,sans-Serif" font-size="10.00">string</text>
</g>
<!-- Node1&#45;&gt;Node16 -->
<g id="edge15" class="edge"><title>Node1&#45;&gt;Node16</title>
<path fill="none" stroke="midnightblue" d="M732.847,-112.531C780.524,-104.981 850.535,-92.8578 919.733,-76.0934"/>
<polygon fill="midnightblue" stroke="midnightblue" points="920.613,-79.4814 929.49,-73.697 918.944,-72.6834 920.613,-79.4814"/>
</g>
<!-- Node17 -->
<g id="node17" class="node"><title>Node17</title>
<polygon fill="white" stroke="#bfbfbf" points="988.5,-56.5 988.5,-75.5 1039.5,-75.5 1039.5,-56.5 988.5,-56.5"/>
<text text-anchor="middle" x="1014" y="-63.5" font-family="Helvetica,sans-Serif" font-size="10.00">typeinfo</text>
</g>
<!-- Node1&#45;&gt;Node17 -->
<g id="edge16" class="edge"><title>Node1&#45;&gt;Node17</title>
<path fill="none" stroke="midnightblue" d="M732.64,-114.538C791.79,-107.359 887.41,-94.5435 978.514,-76.1258"/>
<polygon fill="midnightblue" stroke="midnightblue" points="979.358,-79.5256 988.453,-74.0902 977.954,-72.668 979.358,-79.5256"/>
</g>
<!-- Node18 -->
<g id="node18" class="node"><title>Node18</title>
<polygon fill="white" stroke="#bfbfbf" points="1058,-56.5 1058,-75.5 1120,-75.5 1120,-56.5 1058,-56.5"/>
<text text-anchor="middle" x="1089" y="-63.5" font-family="Helvetica,sans-Serif" font-size="10.00">type_traits</text>
</g>
<!-- Node1&#45;&gt;Node18 -->
<g id="edge17" class="edge"><title>Node1&#45;&gt;Node18</title>
<path fill="none" stroke="midnightblue" d="M732.816,-115.951C804.166,-109.209 930.491,-95.946 1047.75,-76.0687"/>
<polygon fill="midnightblue" stroke="midnightblue" points="1048.35,-79.5166 1057.62,-74.3766 1047.17,-72.6173 1048.35,-79.5166"/>
</g>
<!-- Node19 -->
<g id="node19" class="node"><title>Node19</title>
<polygon fill="white" stroke="#bfbfbf" points="1138,-56.5 1138,-75.5 1182,-75.5 1182,-56.5 1138,-56.5"/>
<text text-anchor="middle" x="1160" y="-63.5" font-family="Helvetica,sans-Serif" font-size="10.00">vector</text>
</g>
<!-- Node1&#45;&gt;Node19 -->
<g id="edge18" class="edge"><title>Node1&#45;&gt;Node19</title>
<path fill="none" stroke="midnightblue" d="M732.624,-118.714C816.919,-114.578 980.409,-103.74 1127.65,-75.9282"/>
<polygon fill="midnightblue" stroke="midnightblue" points="1128.61,-79.3075 1137.77,-73.9841 1127.29,-72.4332 1128.61,-79.3075"/>
</g>
<!-- Node20 -->
<g id="node20" class="node"><title>Node20</title>
<polygon fill="white" stroke="#bfbfbf" points="1183,-0.5 1183,-19.5 1237,-19.5 1237,-0.5 1183,-0.5"/>
<text text-anchor="middle" x="1210" y="-7.5" font-family="Helvetica,sans-Serif" font-size="10.00">iostream</text>
</g>
<!-- Node1&#45;&gt;Node20 -->
<g id="edge19" class="edge"><title>Node1&#45;&gt;Node20</title>
<path fill="none" stroke="midnightblue" d="M732.742,-119.607C859.272,-116 1156.17,-104.56 1191,-76 1204.48,-64.951 1208.72,-44.9071 1209.9,-29.988"/>
<polygon fill="midnightblue" stroke="midnightblue" points="1213.4,-29.9448 1210.31,-19.8119 1206.41,-29.6628 1213.4,-29.9448"/>
</g>
<!-- Node21 -->
<g id="node21" class="node"><title>Node21</title>
<g id="a_node21"><a xlink:href="NullOStream_8hpp.html" target="_top" xlink:title="NullOStream.hpp">
<polygon fill="white" stroke="black" points="1238,-56.5 1238,-75.5 1330,-75.5 1330,-56.5 1238,-56.5"/>
<text text-anchor="middle" x="1284" y="-63.5" font-family="Helvetica,sans-Serif" font-size="10.00">NullOStream.hpp</text>
</a>
</g>
</g>
<!-- Node1&#45;&gt;Node21 -->
<g id="edge20" class="edge"><title>Node1&#45;&gt;Node21</title>
<path fill="none" stroke="midnightblue" d="M732.528,-117.611C832.063,-111.364 1045.02,-96.7486 1224,-76 1225.27,-75.8533 1226.55,-75.7004 1227.84,-75.5422"/>
<polygon fill="midnightblue" stroke="midnightblue" points="1228.39,-78.9998 1237.85,-74.2403 1227.49,-72.0582 1228.39,-78.9998"/>
</g>
<!-- Node23 -->
<g id="node23" class="node"><title>Node23</title>
<g id="a_node23"><a xlink:href="pdal__util__export_8hpp.html" target="_top" xlink:title="pdal_util_export.hpp">
<polygon fill="white" stroke="black" points="1348,-56.5 1348,-75.5 1452,-75.5 1452,-56.5 1348,-56.5"/>
<text text-anchor="middle" x="1400" y="-63.5" font-family="Helvetica,sans-Serif" font-size="10.00">pdal_util_export.hpp</text>
</a>
</g>
</g>
<!-- Node1&#45;&gt;Node23 -->
<g id="edge23" class="edge"><title>Node1&#45;&gt;Node23</title>
<path fill="none" stroke="midnightblue" d="M732.891,-118.65C846.038,-113.647 1107.51,-100.448 1337.55,-76.0734"/>
<polygon fill="midnightblue" stroke="midnightblue" points="1338.22,-79.5222 1347.79,-74.9789 1337.48,-72.5618 1338.22,-79.5222"/>
</g>
<!-- Node21&#45;&gt;Node20 -->
<g id="edge21" class="edge"><title>Node21&#45;&gt;Node20</title>
<path fill="none" stroke="midnightblue" d="M1272.11,-56.324C1260.85,-48.1066 1243.71,-35.6017 1230.29,-25.8069"/>
<polygon fill="midnightblue" stroke="midnightblue" points="1232.25,-22.9014 1222.11,-19.8339 1228.12,-28.5559 1232.25,-22.9014"/>
</g>
<!-- Node22 -->
<g id="node22" class="node"><title>Node22</title>
<polygon fill="white" stroke="#bfbfbf" points="1255,-0.5 1255,-19.5 1315,-19.5 1315,-0.5 1255,-0.5"/>
<text text-anchor="middle" x="1285" y="-7.5" font-family="Helvetica,sans-Serif" font-size="10.00">streambuf</text>
</g>
<!-- Node21&#45;&gt;Node22 -->
<g id="edge22" class="edge"><title>Node21&#45;&gt;Node22</title>
<path fill="none" stroke="midnightblue" d="M1284.17,-56.083C1284.3,-49.0059 1284.48,-38.8611 1284.65,-29.9865"/>
<polygon fill="midnightblue" stroke="midnightblue" points="1288.15,-29.8142 1284.84,-19.7511 1281.15,-29.6845 1288.15,-29.8142"/>
</g>
</g>
</svg>
