<?xml version="1.0" encoding="UTF-8" standalone="no"?>
<!DOCTYPE svg PUBLIC "-//W3C//DTD SVG 1.1//EN"
 "http://www.w3.org/Graphics/SVG/1.1/DTD/svg11.dtd">
<!-- Generated by graphviz version 2.38.0 (20140413.2041)
 -->
<!-- Title: pdal/pdal/XMLSchema.hpp Pages: 1 -->
<svg width="1772pt" height="229pt"
 viewBox="0.00 0.00 1771.50 229.00" xmlns="http://www.w3.org/2000/svg" xmlns:xlink="http://www.w3.org/1999/xlink">
<g id="graph0" class="graph" transform="scale(1 1) rotate(0) translate(4 225)">
<title>pdal/pdal/XMLSchema.hpp</title>
<polygon fill="white" stroke="none" points="-4,4 -4,-225 1767.5,-225 1767.5,4 -4,4"/>
<!-- Node1 -->
<g id="node1" class="node"><title>Node1</title>
<polygon fill="#bfbfbf" stroke="black" points="1068.5,-201.5 1068.5,-220.5 1202.5,-220.5 1202.5,-201.5 1068.5,-201.5"/>
<text text-anchor="middle" x="1135.5" y="-208.5" font-family="Helvetica,sans-Serif" font-size="10.00">pdal/pdal/XMLSchema.hpp</text>
</g>
<!-- Node2 -->
<g id="node2" class="node"><title>Node2</title>
<g id="a_node2"><a xlink:href="DbReader_8hpp.html" target="_top" xlink:title="pdal/pdal/DbReader.hpp">
<polygon fill="white" stroke="black" points="966.5,-140 966.5,-159 1088.5,-159 1088.5,-140 966.5,-140"/>
<text text-anchor="middle" x="1027.5" y="-147" font-family="Helvetica,sans-Serif" font-size="10.00">pdal/pdal/DbReader.hpp</text>
</a>
</g>
</g>
<!-- Node1&#45;&gt;Node2 -->
<g id="edge1" class="edge"><title>Node1&#45;&gt;Node2</title>
<path fill="none" stroke="midnightblue" d="M1111.1,-196.556C1090.2,-185.042 1060.74,-168.811 1042.95,-159.009"/>
<polygon fill="midnightblue" stroke="midnightblue" points="1109.58,-199.715 1120.03,-201.475 1112.96,-193.584 1109.58,-199.715"/>
</g>
<!-- Node6 -->
<g id="node6" class="node"><title>Node6</title>
<g id="a_node6"><a xlink:href="PgReader_8hpp.html" target="_top" xlink:title="pdal/plugins/pgpointcloud\l/io/PgReader.hpp">
<polygon fill="white" stroke="black" points="1043.5,-67.5 1043.5,-97.5 1169.5,-97.5 1169.5,-67.5 1043.5,-67.5"/>
<text text-anchor="start" x="1051.5" y="-85.5" font-family="Helvetica,sans-Serif" font-size="10.00">pdal/plugins/pgpointcloud</text>
<text text-anchor="middle" x="1106.5" y="-74.5" font-family="Helvetica,sans-Serif" font-size="10.00">/io/PgReader.hpp</text>
</a>
</g>
</g>
<!-- Node1&#45;&gt;Node6 -->
<g id="edge23" class="edge"><title>Node1&#45;&gt;Node6</title>
<path fill="none" stroke="midnightblue" d="M1131.25,-191.451C1125.42,-166.033 1115.08,-120.915 1109.8,-97.888"/>
<polygon fill="midnightblue" stroke="midnightblue" points="1127.86,-192.34 1133.51,-201.305 1134.68,-190.776 1127.86,-192.34"/>
</g>
<!-- Node7 -->
<g id="node7" class="node"><title>Node7</title>
<g id="a_node7"><a xlink:href="PgReader_8cpp.html" target="_top" xlink:title="pdal/plugins/pgpointcloud\l/io/PgReader.cpp">
<polygon fill="white" stroke="black" points="1043.5,-0.5 1043.5,-30.5 1169.5,-30.5 1169.5,-0.5 1043.5,-0.5"/>
<text text-anchor="start" x="1051.5" y="-18.5" font-family="Helvetica,sans-Serif" font-size="10.00">pdal/plugins/pgpointcloud</text>
<text text-anchor="middle" x="1106.5" y="-7.5" font-family="Helvetica,sans-Serif" font-size="10.00">/io/PgReader.cpp</text>
</a>
</g>
</g>
<!-- Node1&#45;&gt;Node7 -->
<g id="edge24" class="edge"><title>Node1&#45;&gt;Node7</title>
<path fill="none" stroke="midnightblue" d="M1212.6,-200.794C1321.73,-184.773 1500.81,-145.675 1432.5,-67 1395.12,-23.9533 1234.69,-40.6315 1178.5,-31 1175.61,-30.5045 1172.66,-29.981 1169.68,-29.4386"/>
<polygon fill="midnightblue" stroke="midnightblue" points="1212,-197.344 1202.59,-202.227 1212.99,-204.274 1212,-197.344"/>
</g>
<!-- Node8 -->
<g id="node8" class="node"><title>Node8</title>
<g id="a_node8"><a xlink:href="SQLiteReader_8hpp.html" target="_top" xlink:title="pdal/plugins/sqlite\l/io/SQLiteReader.hpp">
<polygon fill="white" stroke="black" points="1187.5,-67.5 1187.5,-97.5 1297.5,-97.5 1297.5,-67.5 1187.5,-67.5"/>
<text text-anchor="start" x="1195.5" y="-85.5" font-family="Helvetica,sans-Serif" font-size="10.00">pdal/plugins/sqlite</text>
<text text-anchor="middle" x="1242.5" y="-74.5" font-family="Helvetica,sans-Serif" font-size="10.00">/io/SQLiteReader.hpp</text>
</a>
</g>
</g>
<!-- Node1&#45;&gt;Node8 -->
<g id="edge30" class="edge"><title>Node1&#45;&gt;Node8</title>
<path fill="none" stroke="midnightblue" d="M1141.78,-191.755C1148.04,-175.402 1158.82,-151.381 1173.5,-134 1185.86,-119.37 1203.28,-106.661 1217.53,-97.6522"/>
<polygon fill="midnightblue" stroke="midnightblue" points="1138.46,-190.653 1138.33,-201.247 1145.04,-193.045 1138.46,-190.653"/>
</g>
<!-- Node10 -->
<g id="node10" class="node"><title>Node10</title>
<g id="a_node10"><a xlink:href="DbWriter_8hpp.html" target="_top" xlink:title="pdal/pdal/DbWriter.hpp">
<polygon fill="white" stroke="black" points="602.5,-140 602.5,-159 718.5,-159 718.5,-140 602.5,-140"/>
<text text-anchor="middle" x="660.5" y="-147" font-family="Helvetica,sans-Serif" font-size="10.00">pdal/pdal/DbWriter.hpp</text>
</a>
</g>
</g>
<!-- Node1&#45;&gt;Node10 -->
<g id="edge9" class="edge"><title>Node1&#45;&gt;Node10</title>
<path fill="none" stroke="midnightblue" d="M1058.37,-202.976C978.028,-195.262 848.614,-181.72 737.5,-165 726.201,-163.3 714.026,-161.154 702.768,-159.038"/>
<polygon fill="midnightblue" stroke="midnightblue" points="1058.12,-206.467 1068.4,-203.933 1058.78,-199.499 1058.12,-206.467"/>
</g>
<!-- Node15 -->
<g id="node15" class="node"><title>Node15</title>
<g id="a_node15"><a xlink:href="PgWriter_8cpp.html" target="_top" xlink:title="pdal/plugins/pgpointcloud\l/io/PgWriter.cpp">
<polygon fill="white" stroke="black" points="643.5,-0.5 643.5,-30.5 769.5,-30.5 769.5,-0.5 643.5,-0.5"/>
<text text-anchor="start" x="651.5" y="-18.5" font-family="Helvetica,sans-Serif" font-size="10.00">pdal/plugins/pgpointcloud</text>
<text text-anchor="middle" x="706.5" y="-7.5" font-family="Helvetica,sans-Serif" font-size="10.00">/io/PgWriter.cpp</text>
</a>
</g>
</g>
<!-- Node1&#45;&gt;Node15 -->
<g id="edge25" class="edge"><title>Node1&#45;&gt;Node15</title>
<path fill="none" stroke="midnightblue" d="M1058.16,-201.017C979.512,-188.704 857.211,-160.504 770.5,-98 745.106,-79.6953 724.666,-48.6226 714.176,-30.5947"/>
<polygon fill="midnightblue" stroke="midnightblue" points="1058.07,-204.543 1068.48,-202.581 1059.12,-197.622 1058.07,-204.543"/>
</g>
<!-- Node18 -->
<g id="node18" class="node"><title>Node18</title>
<g id="a_node18"><a xlink:href="XMLSchema_8cpp.html" target="_top" xlink:title="pdal/pdal/XMLSchema.cpp">
<polygon fill="white" stroke="black" points="1479.5,-140 1479.5,-159 1613.5,-159 1613.5,-140 1479.5,-140"/>
<text text-anchor="middle" x="1546.5" y="-147" font-family="Helvetica,sans-Serif" font-size="10.00">pdal/pdal/XMLSchema.cpp</text>
</a>
</g>
</g>
<!-- Node1&#45;&gt;Node18 -->
<g id="edge17" class="edge"><title>Node1&#45;&gt;Node18</title>
<path fill="none" stroke="midnightblue" d="M1212.66,-200.4C1279.63,-191.849 1379.12,-178.615 1465.5,-165 1476.93,-163.198 1489.24,-161.085 1500.72,-159.038"/>
<polygon fill="midnightblue" stroke="midnightblue" points="1212.09,-196.944 1202.62,-201.679 1212.98,-203.888 1212.09,-196.944"/>
</g>
<!-- Node19 -->
<g id="node19" class="node"><title>Node19</title>
<g id="a_node19"><a xlink:href="OciCommon_8hpp.html" target="_top" xlink:title="pdal/plugins/oci/io\l/OciCommon.hpp">
<polygon fill="white" stroke="black" points="236,-134.5 236,-164.5 331,-164.5 331,-134.5 236,-134.5"/>
<text text-anchor="start" x="244" y="-152.5" font-family="Helvetica,sans-Serif" font-size="10.00">pdal/plugins/oci/io</text>
<text text-anchor="middle" x="283.5" y="-141.5" font-family="Helvetica,sans-Serif" font-size="10.00">/OciCommon.hpp</text>
</a>
</g>
</g>
<!-- Node1&#45;&gt;Node19 -->
<g id="edge18" class="edge"><title>Node1&#45;&gt;Node19</title>
<path fill="none" stroke="midnightblue" d="M1058.25,-204.605C885.382,-192.533 471.536,-163.632 331.075,-153.822"/>
<polygon fill="midnightblue" stroke="midnightblue" points="1058.07,-208.101 1068.29,-205.306 1058.56,-201.118 1058.07,-208.101"/>
</g>
<!-- Node22 -->
<g id="node22" class="node"><title>Node22</title>
<g id="a_node22"><a xlink:href="SQLiteCommon_8hpp.html" target="_top" xlink:title="pdal/plugins/sqlite\l/io/SQLiteCommon.hpp">
<polygon fill="white" stroke="black" points="1183,-134.5 1183,-164.5 1302,-164.5 1302,-134.5 1183,-134.5"/>
<text text-anchor="start" x="1191" y="-152.5" font-family="Helvetica,sans-Serif" font-size="10.00">pdal/plugins/sqlite</text>
<text text-anchor="middle" x="1242.5" y="-141.5" font-family="Helvetica,sans-Serif" font-size="10.00">/io/SQLiteCommon.hpp</text>
</a>
</g>
</g>
<!-- Node1&#45;&gt;Node22 -->
<g id="edge26" class="edge"><title>Node1&#45;&gt;Node22</title>
<path fill="none" stroke="midnightblue" d="M1159.7,-196.542C1176.88,-186.991 1199.88,-174.199 1217.28,-164.523"/>
<polygon fill="midnightblue" stroke="midnightblue" points="1157.87,-193.556 1150.83,-201.475 1161.27,-199.674 1157.87,-193.556"/>
</g>
<!-- Node24 -->
<g id="node24" class="node"><title>Node24</title>
<g id="a_node24"><a xlink:href="XMLSchemaTest_8cpp.html" target="_top" xlink:title="pdal/test/unit/XMLSchema\lTest.cpp">
<polygon fill="white" stroke="black" points="1631.5,-134.5 1631.5,-164.5 1763.5,-164.5 1763.5,-134.5 1631.5,-134.5"/>
<text text-anchor="start" x="1639.5" y="-152.5" font-family="Helvetica,sans-Serif" font-size="10.00">pdal/test/unit/XMLSchema</text>
<text text-anchor="middle" x="1697.5" y="-141.5" font-family="Helvetica,sans-Serif" font-size="10.00">Test.cpp</text>
</a>
</g>
</g>
<!-- Node1&#45;&gt;Node24 -->
<g id="edge31" class="edge"><title>Node1&#45;&gt;Node24</title>
<path fill="none" stroke="midnightblue" d="M1212.94,-205.216C1309.24,-198.722 1478.54,-185.516 1622.5,-165 1625.39,-164.588 1628.33,-164.14 1631.31,-163.665"/>
<polygon fill="midnightblue" stroke="midnightblue" points="1212.45,-201.741 1202.7,-205.899 1212.91,-208.725 1212.45,-201.741"/>
</g>
<!-- Node3 -->
<g id="node3" class="node"><title>Node3</title>
<g id="a_node3"><a xlink:href="DbReader_8cpp.html" target="_top" xlink:title="pdal/pdal/DbReader.cpp">
<polygon fill="white" stroke="black" points="779.5,-73 779.5,-92 901.5,-92 901.5,-73 779.5,-73"/>
<text text-anchor="middle" x="840.5" y="-80" font-family="Helvetica,sans-Serif" font-size="10.00">pdal/pdal/DbReader.cpp</text>
</a>
</g>
</g>
<!-- Node2&#45;&gt;Node3 -->
<g id="edge2" class="edge"><title>Node2&#45;&gt;Node3</title>
<path fill="none" stroke="midnightblue" d="M992.794,-136.436C955.697,-123.542 897.821,-103.424 865.137,-92.0637"/>
<polygon fill="midnightblue" stroke="midnightblue" points="992.073,-139.891 1002.67,-139.869 994.371,-133.279 992.073,-139.891"/>
</g>
<!-- Node4 -->
<g id="node4" class="node"><title>Node4</title>
<g id="a_node4"><a xlink:href="OciReader_8hpp.html" target="_top" xlink:title="pdal/plugins/oci/io\l/OciReader.hpp">
<polygon fill="white" stroke="black" points="484,-67.5 484,-97.5 579,-97.5 579,-67.5 484,-67.5"/>
<text text-anchor="start" x="492" y="-85.5" font-family="Helvetica,sans-Serif" font-size="10.00">pdal/plugins/oci/io</text>
<text text-anchor="middle" x="531.5" y="-74.5" font-family="Helvetica,sans-Serif" font-size="10.00">/OciReader.hpp</text>
</a>
</g>
</g>
<!-- Node2&#45;&gt;Node4 -->
<g id="edge3" class="edge"><title>Node2&#45;&gt;Node4</title>
<path fill="none" stroke="midnightblue" d="M956.353,-143.278C869.162,-136.199 717.147,-121.651 588.5,-98 585.487,-97.4461 582.398,-96.8229 579.291,-96.1542"/>
<polygon fill="midnightblue" stroke="midnightblue" points="956.152,-146.773 966.4,-144.084 956.711,-139.796 956.152,-146.773"/>
</g>
<!-- Node2&#45;&gt;Node6 -->
<g id="edge5" class="edge"><title>Node2&#45;&gt;Node6</title>
<path fill="none" stroke="midnightblue" d="M1046.05,-133.237C1059.16,-122.452 1076.6,-108.102 1089.38,-97.589"/>
<polygon fill="midnightblue" stroke="midnightblue" points="1043.65,-130.677 1038.15,-139.734 1048.1,-136.083 1043.65,-130.677"/>
</g>
<!-- Node2&#45;&gt;Node8 -->
<g id="edge7" class="edge"><title>Node2&#45;&gt;Node8</title>
<path fill="none" stroke="midnightblue" d="M1065.81,-136.917C1102.27,-125.895 1157.18,-109.294 1196.1,-97.5281"/>
<polygon fill="midnightblue" stroke="midnightblue" points="1064.61,-133.624 1056.05,-139.869 1066.64,-140.325 1064.61,-133.624"/>
</g>
<!-- Node5 -->
<g id="node5" class="node"><title>Node5</title>
<g id="a_node5"><a xlink:href="OciReader_8cpp.html" target="_top" xlink:title="pdal/plugins/oci/io\l/OciReader.cpp">
<polygon fill="white" stroke="black" points="484,-0.5 484,-30.5 579,-30.5 579,-0.5 484,-0.5"/>
<text text-anchor="start" x="492" y="-18.5" font-family="Helvetica,sans-Serif" font-size="10.00">pdal/plugins/oci/io</text>
<text text-anchor="middle" x="531.5" y="-7.5" font-family="Helvetica,sans-Serif" font-size="10.00">/OciReader.cpp</text>
</a>
</g>
</g>
<!-- Node4&#45;&gt;Node5 -->
<g id="edge4" class="edge"><title>Node4&#45;&gt;Node5</title>
<path fill="none" stroke="midnightblue" d="M531.5,-57.1081C531.5,-48.1539 531.5,-38.3227 531.5,-30.5765"/>
<polygon fill="midnightblue" stroke="midnightblue" points="528,-57.3959 531.5,-67.396 535,-57.396 528,-57.3959"/>
</g>
<!-- Node6&#45;&gt;Node7 -->
<g id="edge6" class="edge"><title>Node6&#45;&gt;Node7</title>
<path fill="none" stroke="midnightblue" d="M1106.5,-57.1081C1106.5,-48.1539 1106.5,-38.3227 1106.5,-30.5765"/>
<polygon fill="midnightblue" stroke="midnightblue" points="1103,-57.3959 1106.5,-67.396 1110,-57.396 1103,-57.3959"/>
</g>
<!-- Node9 -->
<g id="node9" class="node"><title>Node9</title>
<g id="a_node9"><a xlink:href="SQLiteReader_8cpp.html" target="_top" xlink:title="pdal/plugins/sqlite\l/io/SQLiteReader.cpp">
<polygon fill="white" stroke="black" points="1187.5,-0.5 1187.5,-30.5 1297.5,-30.5 1297.5,-0.5 1187.5,-0.5"/>
<text text-anchor="start" x="1195.5" y="-18.5" font-family="Helvetica,sans-Serif" font-size="10.00">pdal/plugins/sqlite</text>
<text text-anchor="middle" x="1242.5" y="-7.5" font-family="Helvetica,sans-Serif" font-size="10.00">/io/SQLiteReader.cpp</text>
</a>
</g>
</g>
<!-- Node8&#45;&gt;Node9 -->
<g id="edge8" class="edge"><title>Node8&#45;&gt;Node9</title>
<path fill="none" stroke="midnightblue" d="M1242.5,-57.1081C1242.5,-48.1539 1242.5,-38.3227 1242.5,-30.5765"/>
<polygon fill="midnightblue" stroke="midnightblue" points="1239,-57.3959 1242.5,-67.396 1246,-57.396 1239,-57.3959"/>
</g>
<!-- Node11 -->
<g id="node11" class="node"><title>Node11</title>
<g id="a_node11"><a xlink:href="DbWriter_8cpp.html" target="_top" xlink:title="pdal/pdal/DbWriter.cpp">
<polygon fill="white" stroke="black" points="349.5,-73 349.5,-92 465.5,-92 465.5,-73 349.5,-73"/>
<text text-anchor="middle" x="407.5" y="-80" font-family="Helvetica,sans-Serif" font-size="10.00">pdal/pdal/DbWriter.cpp</text>
</a>
</g>
</g>
<!-- Node10&#45;&gt;Node11 -->
<g id="edge10" class="edge"><title>Node10&#45;&gt;Node11</title>
<path fill="none" stroke="midnightblue" d="M617.311,-137.404C567.379,-124.576 486.265,-103.736 440.909,-92.0834"/>
<polygon fill="midnightblue" stroke="midnightblue" points="616.608,-140.837 627.165,-139.936 618.35,-134.057 616.608,-140.837"/>
</g>
<!-- Node12 -->
<g id="node12" class="node"><title>Node12</title>
<g id="a_node12"><a xlink:href="OciWriter_8hpp.html" target="_top" xlink:title="pdal/plugins/oci/io\l/OciWriter.hpp">
<polygon fill="white" stroke="black" points="236,-67.5 236,-97.5 331,-97.5 331,-67.5 236,-67.5"/>
<text text-anchor="start" x="244" y="-85.5" font-family="Helvetica,sans-Serif" font-size="10.00">pdal/plugins/oci/io</text>
<text text-anchor="middle" x="283.5" y="-74.5" font-family="Helvetica,sans-Serif" font-size="10.00">/OciWriter.hpp</text>
</a>
</g>
</g>
<!-- Node10&#45;&gt;Node12 -->
<g id="edge11" class="edge"><title>Node10&#45;&gt;Node12</title>
<path fill="none" stroke="midnightblue" d="M592.278,-139.599C527.266,-130.678 426.783,-115.743 340.5,-98 337.399,-97.3624 334.214,-96.6666 331.01,-95.9361"/>
<polygon fill="midnightblue" stroke="midnightblue" points="592.019,-143.096 602.4,-140.979 592.965,-136.16 592.019,-143.096"/>
</g>
<!-- Node14 -->
<g id="node14" class="node"><title>Node14</title>
<g id="a_node14"><a xlink:href="PgWriter_8hpp.html" target="_top" xlink:title="pdal/plugins/pgpointcloud\l/io/PgWriter.hpp">
<polygon fill="white" stroke="black" points="597.5,-67.5 597.5,-97.5 723.5,-97.5 723.5,-67.5 597.5,-67.5"/>
<text text-anchor="start" x="605.5" y="-85.5" font-family="Helvetica,sans-Serif" font-size="10.00">pdal/plugins/pgpointcloud</text>
<text text-anchor="middle" x="660.5" y="-74.5" font-family="Helvetica,sans-Serif" font-size="10.00">/io/PgWriter.hpp</text>
</a>
</g>
</g>
<!-- Node10&#45;&gt;Node14 -->
<g id="edge13" class="edge"><title>Node10&#45;&gt;Node14</title>
<path fill="none" stroke="midnightblue" d="M660.5,-129.411C660.5,-119.222 660.5,-106.901 660.5,-97.589"/>
<polygon fill="midnightblue" stroke="midnightblue" points="657,-129.734 660.5,-139.734 664,-129.734 657,-129.734"/>
</g>
<!-- Node16 -->
<g id="node16" class="node"><title>Node16</title>
<g id="a_node16"><a xlink:href="SQLiteWriter_8hpp.html" target="_top" xlink:title="pdal/plugins/sqlite\l/io/SQLiteWriter.hpp">
<polygon fill="white" stroke="black" points="920,-67.5 920,-97.5 1025,-97.5 1025,-67.5 920,-67.5"/>
<text text-anchor="start" x="928" y="-85.5" font-family="Helvetica,sans-Serif" font-size="10.00">pdal/plugins/sqlite</text>
<text text-anchor="middle" x="972.5" y="-74.5" font-family="Helvetica,sans-Serif" font-size="10.00">/io/SQLiteWriter.hpp</text>
</a>
</g>
</g>
<!-- Node10&#45;&gt;Node16 -->
<g id="edge15" class="edge"><title>Node10&#45;&gt;Node16</title>
<path fill="none" stroke="midnightblue" d="M714.926,-138.001C765.637,-128.102 843.31,-112.64 910.5,-98 913.524,-97.3411 916.629,-96.6528 919.76,-95.9495"/>
<polygon fill="midnightblue" stroke="midnightblue" points="713.988,-134.618 704.842,-139.966 715.326,-141.489 713.988,-134.618"/>
</g>
<!-- Node13 -->
<g id="node13" class="node"><title>Node13</title>
<g id="a_node13"><a xlink:href="OciWriter_8cpp.html" target="_top" xlink:title="pdal/plugins/oci/io\l/OciWriter.cpp">
<polygon fill="white" stroke="black" points="236,-0.5 236,-30.5 331,-30.5 331,-0.5 236,-0.5"/>
<text text-anchor="start" x="244" y="-18.5" font-family="Helvetica,sans-Serif" font-size="10.00">pdal/plugins/oci/io</text>
<text text-anchor="middle" x="283.5" y="-7.5" font-family="Helvetica,sans-Serif" font-size="10.00">/OciWriter.cpp</text>
</a>
</g>
</g>
<!-- Node12&#45;&gt;Node13 -->
<g id="edge12" class="edge"><title>Node12&#45;&gt;Node13</title>
<path fill="none" stroke="midnightblue" d="M283.5,-57.1081C283.5,-48.1539 283.5,-38.3227 283.5,-30.5765"/>
<polygon fill="midnightblue" stroke="midnightblue" points="280,-57.3959 283.5,-67.396 287,-57.396 280,-57.3959"/>
</g>
<!-- Node14&#45;&gt;Node15 -->
<g id="edge14" class="edge"><title>Node14&#45;&gt;Node15</title>
<path fill="none" stroke="midnightblue" d="M676.312,-59.1575C683.02,-49.6788 690.635,-38.9186 696.538,-30.5765"/>
<polygon fill="midnightblue" stroke="midnightblue" points="673.401,-57.2114 670.481,-67.396 679.115,-61.2551 673.401,-57.2114"/>
</g>
<!-- Node17 -->
<g id="node17" class="node"><title>Node17</title>
<g id="a_node17"><a xlink:href="SQLiteWriter_8cpp.html" target="_top" xlink:title="pdal/plugins/sqlite\l/io/SQLiteWriter.cpp">
<polygon fill="white" stroke="black" points="920,-0.5 920,-30.5 1025,-30.5 1025,-0.5 920,-0.5"/>
<text text-anchor="start" x="928" y="-18.5" font-family="Helvetica,sans-Serif" font-size="10.00">pdal/plugins/sqlite</text>
<text text-anchor="middle" x="972.5" y="-7.5" font-family="Helvetica,sans-Serif" font-size="10.00">/io/SQLiteWriter.cpp</text>
</a>
</g>
</g>
<!-- Node16&#45;&gt;Node17 -->
<g id="edge16" class="edge"><title>Node16&#45;&gt;Node17</title>
<path fill="none" stroke="midnightblue" d="M972.5,-57.1081C972.5,-48.1539 972.5,-38.3227 972.5,-30.5765"/>
<polygon fill="midnightblue" stroke="midnightblue" points="969,-57.3959 972.5,-67.396 976,-57.396 969,-57.3959"/>
</g>
<!-- Node19&#45;&gt;Node4 -->
<g id="edge20" class="edge"><title>Node19&#45;&gt;Node4</title>
<path fill="none" stroke="midnightblue" d="M340.85,-133.469C384.168,-122.115 442.928,-106.715 483.715,-96.0242"/>
<polygon fill="midnightblue" stroke="midnightblue" points="339.809,-130.123 331.023,-136.044 341.584,-136.894 339.809,-130.123"/>
</g>
<!-- Node19&#45;&gt;Node12 -->
<g id="edge21" class="edge"><title>Node19&#45;&gt;Node12</title>
<path fill="none" stroke="midnightblue" d="M283.5,-124.108C283.5,-115.154 283.5,-105.323 283.5,-97.5765"/>
<polygon fill="midnightblue" stroke="midnightblue" points="280,-124.396 283.5,-134.396 287,-124.396 280,-124.396"/>
</g>
<!-- Node20 -->
<g id="node20" class="node"><title>Node20</title>
<g id="a_node20"><a xlink:href="OciCommon_8cpp.html" target="_top" xlink:title="pdal/plugins/oci/io\l/OciCommon.cpp">
<polygon fill="white" stroke="black" points="0,-67.5 0,-97.5 95,-97.5 95,-67.5 0,-67.5"/>
<text text-anchor="start" x="8" y="-85.5" font-family="Helvetica,sans-Serif" font-size="10.00">pdal/plugins/oci/io</text>
<text text-anchor="middle" x="47.5" y="-74.5" font-family="Helvetica,sans-Serif" font-size="10.00">/OciCommon.cpp</text>
</a>
</g>
</g>
<!-- Node19&#45;&gt;Node20 -->
<g id="edge19" class="edge"><title>Node19&#45;&gt;Node20</title>
<path fill="none" stroke="midnightblue" d="M226.092,-132.689C185.96,-121.635 132.994,-107.047 95.1871,-96.6342"/>
<polygon fill="midnightblue" stroke="midnightblue" points="225.171,-136.065 235.742,-135.346 227.03,-129.316 225.171,-136.065"/>
</g>
<!-- Node21 -->
<g id="node21" class="node"><title>Node21</title>
<g id="a_node21"><a xlink:href="OCITest_8cpp.html" target="_top" xlink:title="pdal/plugins/oci/test\l/OCITest.cpp">
<polygon fill="white" stroke="black" points="113.5,-67.5 113.5,-97.5 217.5,-97.5 217.5,-67.5 113.5,-67.5"/>
<text text-anchor="start" x="121.5" y="-85.5" font-family="Helvetica,sans-Serif" font-size="10.00">pdal/plugins/oci/test</text>
<text text-anchor="middle" x="165.5" y="-74.5" font-family="Helvetica,sans-Serif" font-size="10.00">/OCITest.cpp</text>
</a>
</g>
</g>
<!-- Node19&#45;&gt;Node21 -->
<g id="edge22" class="edge"><title>Node19&#45;&gt;Node21</title>
<path fill="none" stroke="midnightblue" d="M248.89,-129.435C230.377,-119.237 207.975,-106.897 191.054,-97.5765"/>
<polygon fill="midnightblue" stroke="midnightblue" points="247.448,-132.637 257.896,-134.396 250.825,-126.505 247.448,-132.637"/>
</g>
<!-- Node22&#45;&gt;Node8 -->
<g id="edge27" class="edge"><title>Node22&#45;&gt;Node8</title>
<path fill="none" stroke="midnightblue" d="M1242.5,-124.108C1242.5,-115.154 1242.5,-105.323 1242.5,-97.5765"/>
<polygon fill="midnightblue" stroke="midnightblue" points="1239,-124.396 1242.5,-134.396 1246,-124.396 1239,-124.396"/>
</g>
<!-- Node22&#45;&gt;Node16 -->
<g id="edge28" class="edge"><title>Node22&#45;&gt;Node16</title>
<path fill="none" stroke="midnightblue" d="M1174.3,-132.081C1128.02,-120.941 1067.75,-106.43 1025.16,-96.1777"/>
<polygon fill="midnightblue" stroke="midnightblue" points="1173.7,-135.538 1184.25,-134.476 1175.34,-128.733 1173.7,-135.538"/>
</g>
<!-- Node23 -->
<g id="node23" class="node"><title>Node23</title>
<g id="a_node23"><a xlink:href="SQLiteTest_8cpp.html" target="_top" xlink:title="pdal/plugins/sqlite\l/test/SQLiteTest.cpp">
<polygon fill="white" stroke="black" points="1316,-67.5 1316,-97.5 1423,-97.5 1423,-67.5 1316,-67.5"/>
<text text-anchor="start" x="1324" y="-85.5" font-family="Helvetica,sans-Serif" font-size="10.00">pdal/plugins/sqlite</text>
<text text-anchor="middle" x="1369.5" y="-74.5" font-family="Helvetica,sans-Serif" font-size="10.00">/test/SQLiteTest.cpp</text>
</a>
</g>
</g>
<!-- Node22&#45;&gt;Node23 -->
<g id="edge29" class="edge"><title>Node22&#45;&gt;Node23</title>
<path fill="none" stroke="midnightblue" d="M1279.2,-129.714C1299.23,-119.463 1323.62,-106.983 1342,-97.5765"/>
<polygon fill="midnightblue" stroke="midnightblue" points="1277.36,-126.724 1270.06,-134.396 1280.55,-132.956 1277.36,-126.724"/>
</g>
</g>
</svg>
